<svg width="2000" height="2500" xmlns="http://www.w3.org/2000/svg">
<text x="10" y="20" font-family="Arial" font-size="26" fill="black"> [Walker] Training Session</text>
<text x="10" y="50" font-family="Arial" font-size="16" fill="black">[Statistics]</text>
<text x="50" y="70" font-family="Arial" font-size="12" fill="black">Started at: 10:17:17 PM, Tuesday, March 5, 2024</text>
<text x="50" y="90" font-family="Arial" font-size="12" fill="black">Finished at: 10:19:10 PM, Tuesday, March 5, 2024</text>
<text x="50" y="110" font-family="Arial" font-size="12" fill="black">Training Session Time: 0 hrs : 1 min : 50 sec</text>
<text x="50" y="130" font-family="Arial" font-size="12" fill="black">Inference Time: 0 hrs : 36 min : 30 sec        [Device: CPU]</text>
<text x="50" y="150" font-family="Arial" font-size="12" fill="black">Update Time: 0 hrs : 0 min : 54 sec        [Per iteration: 0 hrs : 0 min : 12.906 sec]        [Device: GPU]</text>
<text x="50" y="170" font-family="Arial" font-size="12" fill="black">Episode Count: 1202</text>
<text x="50" y="190" font-family="Arial" font-size="12" fill="black">Inference Steps: 40960</text>
<text x="50" y="210" font-family="Arial" font-size="12" fill="black">Iterations: 4</text>
<text x="50" y="230" font-family="Arial" font-size="12" fill="black">Parallel Agents: 50</text>
<text x="50" y="250" font-family="Arial" font-size="12" fill="black">Timescale: 1</text>
<text x="50" y="270" font-family="Arial" font-size="12" fill="black">Trainer: PPO</text>
<text x="10" y="320" font-family="Arial" font-size="16" fill="black">[Hyperparameters]</text>
<text x="50" y="340" font-family="Arial" font-size="12" fill="black">Buffer Size: 10240        [Batch Size: 512       (x20)]</text>
<text x="50" y="360" font-family="Arial" font-size="12" fill="black">Num Epoch: 8</text>
<text x="50" y="380" font-family="Arial" font-size="12" fill="black">Time Horizon: 256</text>
<text x="50" y="400" font-family="Arial" font-size="12" fill="black">Gradient Cliping by Norm: 0.5</text>
<text x="50" y="420" font-family="Arial" font-size="12" fill="black">Learning Rate Schedule: False    </text>
<text x="10" y="470" font-family="Arial" font-size="16" fill="black">[Behaviour]</text>
<text x="50" y="490" font-family="Arial" font-size="12" fill="black">Space Size: 120</text>
<text x="50" y="510" font-family="Arial" font-size="12" fill="black">Continuous Actions: 36 [Standard Deviation: Fixed]     [Value: 0.2]</text>
<text x="50" y="530" font-family="Arial" font-size="12" fill="black">Discrete Actions: 0</text>
<text x="50" y="550" font-family="Arial" font-size="12" fill="black">TargetFPS: 100 (physics update rate)</text>
<text x="50" y="570" font-family="Arial" font-size="12" fill="black">Observations Normalization: True</text>
<text x="10" y="620" font-family="Arial" font-size="16" fill="black">[Decision Requester]</text>
<text x="50" y="640" font-family="Arial" font-size="12" fill="black">Max Step: 10000</text>
<text x="50" y="660" font-family="Arial" font-size="12" fill="black">Decision Period: 5      [Actions Between Decisions: True]</text>
<text x="10" y="710" font-family="Arial" font-size="16" fill="black">[Graphs]</text>
<text x="50" y="730" font-family="Arial" font-size="12" fill="black">Episode Reward (1202)</text>
<text x="50" y="745" font-family="Arial" font-size="10" fill="black">1.019</text>
<text x="50" y="960" font-family="Arial" font-size="10" fill="black">0.174</text>
<path d="M50,934.6154 L50.39063,913.3136 L50.78125,912.1302 L51.17188,908.5799 L51.5625,888.4615 L51.95313,887.2781 L52.34375,886.0947 L52.73438,884.9113 L53.125,884.9113 L53.51563,883.7278 L53.90625,862.426 L54.29688,862.426 L54.6875,862.426 L55.07813,842.3077 L55.46875,839.9408 L55.85938,838.7574 L56.25,838.7574 L56.64063,819.8224 L57.03125,819.8224 L57.42188,819.8224 L57.8125,819.8224 L58.20313,819.8224 L58.59375,819.8224 L58.98438,819.8224 L59.375,818.639 L59.76563,818.639 L60.15625,817.4556 L60.54688,817.4556 L60.9375,817.4556 L61.32813,817.4556 L61.71875,913.3136 L62.10938,816.2722 L62.5,816.2722 L62.89063,816.2722 L63.28125,816.2722 L63.67188,815.0887 L64.0625,797.3373 L64.45313,932.2485 L64.84375,796.1538 L65.23438,813.9053 L65.625,796.1539 L66.01563,796.1539 L66.40625,796.1539 L66.79688,812.7219 L67.1875,794.9704 L67.57813,902.6627 L67.96875,791.4201 L68.35938,910.9467 L68.75,790.2367 L69.14063,790.2367 L69.53125,789.0533 L69.92188,789.0533 L70.3125,787.8698 L70.70313,863.6094 L71.09375,889.645 L71.48438,766.5681 L71.875,909.7633 L72.26563,886.0947 L72.65625,884.9113 L73.04688,862.426 L73.4375,864.7929 L73.82813,844.6746 L74.21875,931.0651 L74.60938,863.6094 L75,887.2781 L75.39063,864.7929 L75.78125,817.4556 L76.17188,862.426 L76.5625,886.0947 L76.95313,914.497 L77.34375,862.426 L77.73438,863.6094 L78.125,862.426 L78.51563,841.1243 L78.90625,862.426 L79.29688,845.858 L79.6875,861.2426 L80.07813,862.426 L80.46875,843.4911 L80.85938,887.2781 L81.25,842.3077 L81.64063,819.8224 L82.03125,862.426 L82.42188,913.3136 L82.8125,842.3077 L83.20313,862.426 L83.59375,843.4911 L83.98438,878.9941 L84.375,818.639 L84.76563,910.9467 L85.15625,835.2071 L85.54688,817.4556 L85.9375,799.7042 L86.32813,841.1243 L86.71875,902.6627 L87.10938,818.639 L87.5,815.0887 L87.89063,793.787 L88.28125,797.3373 L88.67188,863.6094 L89.0625,797.3373 L89.45313,886.0947 L89.84375,834.0237 L90.23438,797.3373 L90.625,914.497 L91.01563,816.2722 L91.40625,791.4201 L91.79688,796.1539 L92.1875,906.213 L92.57813,910.9467 L92.96875,907.3964 L93.35938,831.6568 L93.75,914.497 L94.14063,798.5207 L94.53125,863.6094 L94.92188,912.1302 L95.3125,912.1302 L95.70313,768.9349 L96.09375,838.7574 L96.48438,857.6923 L96.875,881.361 L97.26563,860.0591 L97.65625,842.3077 L98.04688,839.9408 L98.4375,909.7633 L98.82813,886.0947 L99.21875,914.497 L99.60938,843.4911 L100,818.639 L100.3906,864.7929 L100.7813,819.8224 L101.1719,858.8757 L101.5625,815.0887 L101.9531,800.8876 L102.3438,799.7042 L102.7344,819.8224 L103.125,798.5207 L103.5156,796.1538 L103.9063,861.2426 L104.2969,819.8224 L104.6875,817.4556 L105.0781,910.9467 L105.4688,796.1539 L105.8594,828.1065 L106.25,798.5207 L106.6406,861.2426 L107.0313,818.639 L107.4219,913.3136 L107.8125,865.9763 L108.2031,887.2781 L108.5938,858.8757 L108.9844,815.0887 L109.375,864.7929 L109.7656,816.2722 L110.1563,882.5444 L110.5469,862.426 L110.9375,864.7929 L111.3281,847.0414 L111.7188,807.9882 L112.1094,789.0532 L112.5,797.3373 L112.8906,865.9763 L113.2813,912.1302 L113.6719,910.9467 L114.0625,816.2722 L114.4531,796.1539 L114.8438,812.7219 L115.2344,862.426 L115.625,841.1243 L116.0156,863.6094 L116.4063,863.6094 L116.7969,863.6094 L117.1875,912.1302 L117.5781,867.1597 L117.9688,863.6094 L118.3594,813.9053 L118.75,932.2485 L119.1406,862.426 L119.5313,861.2426 L119.9219,793.787 L120.3125,796.1539 L120.7031,867.1597 L121.0938,867.1597 L121.4844,867.1597 L121.875,863.6094 L122.2656,817.4556 L122.6563,887.2781 L123.0469,903.8461 L123.4375,884.9113 L123.8281,863.6094 L124.2188,864.7929 L124.6094,913.3136 L125,862.426 L125.3906,843.4911 L125.7813,862.426 L126.1719,908.5799 L126.5625,863.6094 L126.9531,793.787 L127.3438,863.6094 L127.7344,813.9053 L128.125,793.787 L128.5156,860.0591 L128.9063,838.7574 L129.2969,819.8224 L129.6875,841.1243 L130.0781,836.3905 L130.4688,798.5207 L130.8594,860.0591 L131.25,781.9527 L131.6406,797.3373 L132.0313,798.5207 L132.4219,854.142 L132.8125,863.6094 L133.2031,906.213 L133.5938,908.5799 L133.9844,913.3136 L134.375,798.5207 L134.7656,865.9763 L135.1563,858.8757 L135.5469,797.3372 L135.9375,882.5444 L136.3281,910.9467 L136.7188,862.426 L137.1094,864.7929 L137.5,862.426 L137.8906,862.426 L138.2813,914.497 L138.6719,819.8224 L139.0625,844.6746 L139.4531,910.9467 L139.8438,862.426 L140.2344,816.2722 L140.625,884.9113 L141.0156,882.5444 L141.4063,793.787 L141.7969,794.9704 L142.1875,839.9408 L142.5781,913.3136 L142.9688,817.4556 L143.3594,841.1243 L143.75,799.7042 L144.1406,913.3136 L144.5313,798.5207 L144.9219,864.7929 L145.3125,862.426 L145.7031,842.3077 L146.0938,854.142 L146.4844,794.9704 L146.875,818.639 L147.2656,842.3077 L147.6563,865.9763 L148.0469,796.1539 L148.4375,867.1597 L148.8281,803.2545 L149.2188,816.2722 L149.6094,798.5207 L150,838.7574 L150.3906,914.497 L150.7813,908.5799 L151.1719,862.426 L151.5625,867.1597 L151.9531,838.7574 L152.3438,863.6094 L152.7344,799.7042 L153.125,797.3373 L153.5156,818.639 L153.9063,883.7278 L154.2969,812.7219 L154.6875,861.2426 L155.0781,822.1893 L155.4688,913.3136 L155.8594,797.3373 L156.25,862.426 L156.6406,861.2426 L157.0313,794.9704 L157.4219,931.0651 L157.8125,863.6094 L158.2031,863.6094 L158.5938,863.6094 L158.9844,796.1539 L159.375,842.3077 L159.7656,796.1539 L160.1563,797.3373 L160.5469,880.1775 L160.9375,910.9467 L161.3281,932.2485 L161.7188,886.0947 L162.1094,835.2071 L162.5,838.7574 L162.8906,789.0533 L163.2813,817.4556 L163.6719,913.3136 L164.0625,864.7929 L164.4531,910.9467 L164.8438,865.9763 L165.2344,862.426 L165.625,864.7929 L166.0156,931.0651 L166.4063,932.2485 L166.7969,863.6094 L167.1875,815.0887 L167.5781,897.929 L167.9688,811.5385 L168.3594,817.4556 L168.75,886.0947 L169.1406,932.2485 L169.5313,817.4556 L169.9219,817.4556 L170.3125,883.7278 L170.7031,864.7929 L171.0938,880.1775 L171.4844,861.2426 L171.875,817.4556 L172.2656,861.2426 L172.6563,862.426 L173.0469,841.1243 L173.4375,818.639 L173.8281,819.8224 L174.2188,933.4319 L174.6094,790.2367 L175,863.6094 L175.3906,863.6094 L175.7813,910.9467 L176.1719,913.3136 L176.5625,817.4556 L176.9531,796.1539 L177.3438,910.9467 L177.7344,843.4911 L178.125,864.7929 L178.5156,841.1243 L178.9063,816.2722 L179.2969,790.2367 L179.6875,913.3136 L180.0781,817.4556 L180.4688,818.639 L180.8594,863.6094 L181.25,903.8461 L181.6406,881.361 L182.0313,817.4556 L182.4219,929.8817 L182.8125,839.9408 L183.2031,839.9408 L183.5938,818.639 L183.9844,817.4556 L184.375,843.4911 L184.7656,841.1243 L185.1563,821.0059 L185.5469,928.6982 L185.9375,905.0296 L186.3281,822.1893 L186.7188,841.1243 L187.1094,816.2722 L187.5,796.1539 L187.8906,865.9763 L188.2813,793.787 L188.6719,908.5799 L189.0625,817.4556 L189.4531,818.639 L189.8438,855.3254 L190.2344,863.6094 L190.625,798.5207 L191.0156,813.9053 L191.4063,836.3905 L191.7969,884.9113 L192.1875,861.2426 L192.5781,863.6094 L192.9688,889.645 L193.3594,912.1302 L193.75,864.7929 L194.1406,792.6036 L194.5313,843.4911 L194.9219,817.4556 L195.3125,862.426 L195.7031,796.1539 L196.0938,913.3136 L196.4844,813.9053 L196.875,815.0887 L197.2656,883.7278 L197.6563,794.9704 L198.0469,828.1065 L198.4375,818.639 L198.8281,812.7219 L199.2188,819.8224 L199.6094,907.3964 L200,821.0059 L200.3906,913.3136 L200.7813,845.858 L201.1719,796.1539 L201.5625,863.6094 L201.9531,865.9763 L202.3438,817.4556 L202.7344,819.8224 L203.125,817.4556 L203.5156,862.426 L203.9063,819.8224 L204.2969,912.1302 L204.6875,912.1302 L205.0781,857.6923 L205.4688,799.7042 L205.8594,847.0414 L206.25,913.3136 L206.6406,841.1243 L207.0313,863.6094 L207.4219,884.9113 L207.8125,793.7869 L208.2031,794.9704 L208.5938,815.0887 L208.9844,913.3136 L209.375,794.9704 L209.7656,813.9053 L210.1563,843.4911 L210.5469,818.639 L210.9375,862.426 L211.3281,816.2722 L211.7188,863.6094 L212.1094,813.9053 L212.5,807.9882 L212.8906,794.9704 L213.2813,797.3373 L213.6719,863.6094 L214.0625,861.2426 L214.4531,887.2781 L214.8438,862.426 L215.2344,798.5207 L215.625,798.5207 L216.0156,842.3077 L216.4063,863.6094 L216.7969,815.0887 L217.1875,862.426 L217.5781,912.1302 L217.9688,865.9763 L218.3594,932.2485 L218.75,845.858 L219.1406,843.4911 L219.5313,931.0651 L219.9219,863.6094 L220.3125,798.5207 L220.7031,931.0651 L221.0938,843.4911 L221.4844,815.0887 L221.875,887.2781 L222.2656,861.2426 L222.6563,818.639 L223.0469,821.0059 L223.4375,816.2722 L223.8281,835.2071 L224.2188,796.1539 L224.6094,860.0591 L225,862.426 L225.3906,862.426 L225.7813,863.6094 L226.1719,907.3964 L226.5625,797.3373 L226.9531,844.6746 L227.3438,836.3905 L227.7344,858.8757 L228.125,910.9467 L228.5156,838.7574 L228.9063,842.3077 L229.2969,886.0947 L229.6875,818.639 L230.0781,863.6094 L230.4688,863.6094 L230.8594,799.7042 L231.25,910.9467 L231.6406,818.639 L232.0313,931.0651 L232.4219,900.2958 L232.8125,843.4911 L233.2031,863.6094 L233.5938,887.2781 L233.9844,816.2722 L234.375,888.4615 L234.7656,799.7042 L235.1563,819.8224 L235.5469,858.8757 L235.9375,798.5207 L236.3281,882.5444 L236.7188,864.7929 L237.1094,838.7574 L237.5,931.0651 L237.8906,862.426 L238.2813,818.639 L238.6719,815.0887 L239.0625,798.5207 L239.4531,844.6746 L239.8438,798.5207 L240.2344,796.1539 L240.625,912.1302 L241.0156,863.6094 L241.4063,912.1302 L241.7969,797.3373 L242.1875,797.3373 L242.5781,863.6094 L242.9688,813.9053 L243.3594,794.9704 L243.75,912.1302 L244.1406,766.5681 L244.5313,821.0059 L244.9219,817.4556 L245.3125,912.1302 L245.7031,818.639 L246.0938,907.3964 L246.4844,839.9408 L246.875,839.9408 L247.2656,845.858 L247.6563,863.6094 L248.0469,862.426 L248.4375,807.9882 L248.8281,865.9763 L249.2188,861.2426 L249.6094,912.1302 L250,750 L250.3906,860.0591 L250.7813,907.3964 L251.1719,934.6154 L251.5625,796.1539 L251.9531,789.0533 L252.3438,817.4556 L252.7344,822.1893 L253.125,796.1539 L253.5156,835.2071 L253.9063,816.2722 L254.2969,861.2426 L254.6875,770.1183 L255.0781,887.2781 L255.4688,862.426 L255.8594,844.6746 L256.25,913.3136 L256.6406,863.6094 L257.0313,843.4911 L257.4219,882.5444 L257.8125,813.9053 L258.2031,862.426 L258.5938,865.9763 L258.9844,787.8698 L259.375,816.2722 L259.7656,798.5207 L260.1563,817.4556 L260.5469,818.639 L260.9375,864.7929 L261.3281,913.3136 L261.7188,786.6864 L262.1094,862.426 L262.5,882.5444 L262.8906,796.1539 L263.2813,768.9349 L263.6719,817.4556 L264.0625,874.2604 L264.4531,883.7278 L264.8438,912.1302 L265.2344,862.426 L265.625,817.4556 L266.0156,817.4556 L266.4063,812.7219 L266.7969,863.6094 L267.1875,913.3136 L267.5781,881.361 L267.9688,841.1243 L268.3594,838.7574 L268.75,817.4556 L269.1406,815.0887 L269.5313,864.7929 L269.9219,816.2722 L270.3125,897.929 L270.7031,868.3432 L271.0938,816.2722 L271.4844,815.0887 L271.875,816.2722 L272.2656,863.6094 L272.6563,818.639 L273.0469,913.3136 L273.4375,794.9704 L273.8281,862.426 L274.2188,868.3432 L274.6094,863.6094 L275,909.7633 L275.3906,910.9467 L275.7813,888.4615 L276.1719,789.0533 L276.5625,818.639 L276.9531,813.9053 L277.3438,863.6094 L277.7344,863.6094 L278.125,821.0059 L278.5156,842.3077 L278.9063,910.9467 L279.2969,816.2722 L279.6875,796.1539 L280.0781,817.4556 L280.4688,888.4615 L280.8594,791.4201 L281.25,818.639 L281.6406,843.4911 L282.0313,863.6094 L282.4219,907.3964 L282.8125,819.8224 L283.2031,863.6094 L283.5938,812.7219 L283.9844,887.2781 L284.375,816.2722 L284.7656,868.3432 L285.1563,909.7633 L285.5469,844.6746 L285.9375,793.787 L286.3281,817.4556 L286.7188,861.2426 L287.1094,913.3136 L287.5,929.8817 L287.8906,839.9408 L288.2813,841.1243 L288.6719,888.4615 L289.0625,863.6094 L289.4531,906.213 L289.8438,884.9113 L290.2344,843.4911 L290.625,860.0591 L291.0156,837.574 L291.4063,817.4556 L291.7969,862.426 L292.1875,813.9053 L292.5781,858.8757 L292.9688,881.361 L293.3594,812.7219 L293.75,815.0887 L294.1406,869.5266 L294.5313,815.0887 L294.9219,863.6094 L295.3125,907.3964 L295.7031,791.4201 L296.0938,863.6094 L296.4844,913.3136 L296.875,912.1302 L297.2656,843.4911 L297.6563,841.1243 L298.0469,839.9408 L298.4375,841.1243 L298.8281,863.6094 L299.2188,864.7929 L299.6094,865.9763 L300,912.1302 L300.3906,929.8817 L300.7813,861.2426 L301.1719,798.5207 L301.5625,816.2722 L301.9531,860.0591 L302.3438,792.6036 L302.7344,818.639 L303.125,861.2426 L303.5156,796.1538 L303.9063,819.8224 L304.2969,815.0887 L304.6875,861.2426 L305.0781,841.1243 L305.4688,843.4911 L305.8594,886.0947 L306.25,913.3136 L306.6407,813.9053 L307.0313,815.0887 L307.4219,910.9467 L307.8125,881.361 L308.2031,860.0591 L308.5938,913.3136 L308.9844,882.5444 L309.375,865.9763 L309.7656,861.2426 L310.1563,787.8698 L310.5469,816.2722 L310.9375,821.0059 L311.3281,813.9053 L311.7188,841.1243 L312.1094,786.6864 L312.5,863.6094 L312.8906,817.4556 L313.2813,797.3373 L313.6719,905.0296 L314.0625,868.3432 L314.4532,817.4556 L314.8438,813.9053 L315.2344,844.6746 L315.625,843.4911 L316.0156,813.9053 L316.4063,811.5385 L316.7969,817.4556 L317.1875,815.0887 L317.5781,813.9053 L317.9688,863.6094 L318.3594,796.1539 L318.75,912.1302 L319.1406,862.426 L319.5313,888.4615 L319.9219,790.2367 L320.3125,798.5207 L320.7031,857.6923 L321.0938,797.3373 L321.4844,781.9527 L321.875,906.213 L322.2657,929.8817 L322.6563,931.0651 L323.0469,931.0651 L323.4375,841.1243 L323.8281,819.8224 L324.2188,817.4556 L324.6094,842.3077 L325,818.639 L325.3906,884.9113 L325.7813,843.4911 L326.1719,815.0887 L326.5625,819.8224 L326.9531,818.639 L327.3438,815.0887 L327.7344,817.4556 L328.125,887.2781 L328.5156,844.6746 L328.9063,929.8817 L329.2969,797.3373 L329.6875,796.1539 L330.0782,843.4911 L330.4688,839.9408 L330.8594,862.426 L331.25,913.3136 L331.6406,862.426 L332.0313,862.426 L332.4219,862.426 L332.8125,862.426 L333.2031,913.3136 L333.5938,863.6094 L333.9844,842.3077 L334.375,931.0651 L334.7656,931.0651 L335.1563,813.9053 L335.5469,860.0591 L335.9375,798.5207 L336.3281,796.1539 L336.7188,912.1302 L337.1094,907.3964 L337.5,865.9763 L337.8907,797.3373 L338.2813,821.0059 L338.6719,843.4911 L339.0625,862.426 L339.4531,845.858 L339.8438,837.574 L340.2344,862.426 L340.625,813.9053 L341.0156,796.1538 L341.4063,796.1539 L341.7969,799.7042 L342.1875,932.2485 L342.5781,912.1302 L342.9688,792.6036 L343.3594,796.1539 L343.75,797.3373 L344.1406,864.7929 L344.5313,836.3905 L344.9219,912.1302 L345.3125,838.7574 L345.7032,841.1243 L346.0938,816.2722 L346.4844,770.1183 L346.875,932.2485 L347.2656,797.3373 L347.6563,797.3373 L348.0469,914.497 L348.4375,888.4615 L348.8281,815.0887 L349.2188,865.9763 L349.6094,862.426 L350,819.8224 L350.3906,909.7633 L350.7813,862.426 L351.1719,862.426 L351.5625,867.1597 L351.9531,842.3077 L352.3438,912.1302 L352.7344,864.7929 L353.125,813.9053 L353.5157,880.1775 L353.9063,816.2722 L354.2969,821.0059 L354.6875,863.6094 L355.0781,857.6923 L355.4688,817.4556 L355.8594,797.3373 L356.25,864.7929 L356.6406,796.1539 L357.0313,819.8224 L357.4219,797.3373 L357.8125,909.7633 L358.2031,912.1302 L358.5938,841.1243 L358.9844,864.7929 L359.375,796.1539 L359.7656,913.3136 L360.1563,910.9467 L360.5469,890.8284 L360.9375,843.4911 L361.3282,823.3727 L361.7188,914.497 L362.1094,863.6094 L362.5,861.2426 L362.8906,796.1539 L363.2813,799.7042 L363.6719,932.2485 L364.0625,838.7574 L364.4531,797.3373 L364.8438,862.426 L365.2344,861.2426 L365.625,843.4911 L366.0156,864.7929 L366.4063,863.6094 L366.7969,843.4911 L367.1875,838.7574 L367.5781,863.6094 L367.9688,839.9408 L368.3594,835.2071 L368.75,844.6746 L369.1407,864.7929 L369.5313,863.6094 L369.9219,913.3136 L370.3125,862.426 L370.7031,863.6094 L371.0938,798.5207 L371.4844,913.3136 L371.875,860.0591 L372.2656,798.5207 L372.6563,819.8224 L373.0469,862.426 L373.4375,912.1302 L373.8281,914.497 L374.2188,912.1302 L374.6094,842.3077 L375,816.2722 L375.3906,817.4556 L375.7813,864.7929 L376.1719,910.9467 L376.5625,912.1302 L376.9532,794.9704 L377.3438,861.2426 L377.7344,841.1243 L378.125,816.2722 L378.5156,817.4556 L378.9063,883.7278 L379.2969,835.2071 L379.6875,839.9408 L380.0781,864.7929 L380.4688,864.7929 L380.8594,852.9586 L381.25,863.6094 L381.6406,912.1302 L382.0313,797.3373 L382.4219,864.7929 L382.8125,864.7929 L383.2031,912.1302 L383.5938,799.7042 L383.9844,818.639 L384.375,862.426 L384.7657,838.7574 L385.1563,884.9113 L385.5469,887.2781 L385.9375,860.0591 L386.3281,841.1243 L386.7188,909.7633 L387.1094,862.426 L387.5,863.6094 L387.8906,842.3077 L388.2813,889.645 L388.6719,796.1538 L389.0625,837.574 L389.4531,890.8284 L389.8438,817.4556 L390.2344,888.4615 L390.625,912.1302 L391.0156,844.6746 L391.4063,883.7278 L391.7969,818.639 L392.1875,886.0947 L392.5782,817.4556 L392.9688,864.7929 L393.3594,910.9467 L393.75,798.5207 L394.1406,799.7042 L394.5313,798.5207 L394.9219,832.8402 L395.3125,910.9467 L395.7031,863.6094 L396.0938,863.6094 L396.4844,838.7574 L396.875,794.9704 L397.2656,815.0887 L397.6563,844.6746 L398.0469,768.9349 L398.4375,818.639 L398.8281,912.1302 L399.2188,819.8224 L399.6094,913.3136 L400,867.1597 L400.3907,841.1243 L400.7813,863.6094 L401.1719,912.1302 L401.5625,862.426 L401.9531,862.426 L402.3438,815.0887 L402.7344,932.2485 L403.125,932.2485 L403.5156,816.2722 L403.9063,797.3373 L404.2969,861.2426 L404.6875,815.0887 L405.0781,844.6746 L405.4688,818.639 L405.8594,886.0947 L406.25,816.2722 L406.6406,844.6746 L407.0313,813.9053 L407.4219,842.3077 L407.8125,812.7219 L408.2032,881.361 L408.5938,932.2485 L408.9844,770.1183 L409.375,887.2781 L409.7656,839.9408 L410.1563,842.3077 L410.5469,794.9704 L410.9375,913.3136 L411.3281,862.426 L411.7188,812.7219 L412.1094,797.3373 L412.5,861.2426 L412.8906,888.4615 L413.2813,867.1597 L413.6719,772.4852 L414.0625,865.9763 L414.4531,819.8224 L414.8438,860.0591 L415.2344,913.3136 L415.625,910.9467 L416.0157,791.4201 L416.4063,844.6746 L416.7969,813.9053 L417.1875,861.2426 L417.5781,867.1597 L417.9688,816.2722 L418.3594,838.7574 L418.75,843.4911 L419.1406,818.639 L419.5313,793.787 L419.9219,818.639 L420.3125,815.0887 L420.7031,950 L421.0938,819.8224 L421.4844,821.0059 L421.875,797.3373 L422.2656,881.361 L422.6563,793.787 L423.0469,913.3136 L423.4375,818.639 L423.8282,932.2485 L424.2188,863.6094 L424.6094,860.0591 L425,864.7929 L425.3906,867.1597 L425.7813,863.6094 L426.1719,901.4793 L426.5625,913.3136 L426.9531,863.6094 L427.3438,877.8107 L427.7344,841.1243 L428.125,792.6036 L428.5156,931.0651 L428.9063,863.6094 L429.2969,864.7929 L429.6875,793.787 L430.0781,794.9704 L430.4688,864.7929 L430.8594,822.1893 L431.25,865.9763 L431.6407,797.3373 L432.0313,817.4556 L432.4219,915.6805 L432.8125,862.426 L433.2031,875.4438 L433.5938,839.9408 L433.9844,790.2367 L434.375,798.5207 L434.7656,867.1597 L435.1563,861.2426 L435.5469,799.7042 L435.9375,886.0947 L436.3281,794.9704 L436.7188,913.3136 L437.1094,796.1539 L437.5,888.4615 L437.8906,841.1243 L438.2813,839.9408 L438.6719,818.639 L439.0625,770.1183 L439.4532,863.6094 L439.8438,887.2781 L440.2344,880.1775 L440.625,787.8698 L441.0156,836.3905 L441.4063,792.6035 L441.7969,886.0947 L442.1875,863.6094 L442.5781,883.7278 L442.9688,798.5207 L443.3594,816.2722 L443.75,794.9704 L444.1406,819.8224 L444.5313,863.6094 L444.9219,867.1597 L445.3125,797.3373 L445.7031,861.2426 L446.0938,839.9408 L446.4844,844.6746 L446.875,797.3373 L447.2657,815.0887 L447.6563,835.2071 L448.0469,932.2485 L448.4375,797.3373 L448.8281,912.1302 L449.2188,862.426 L449.6094,842.3077 L450,864.7929 L450.3906,863.6094 L450.7813,878.9941 L451.1719,819.8224 L451.5625,864.7929 L451.9531,908.5799 L452.3438,932.2485 L452.7344,818.639 L453.125,783.1361 L453.5156,909.7633 L453.9063,912.1302 L454.2969,817.4556 L454.6875,854.142 L455.0782,910.9467 L455.4688,862.426 L455.8594,818.639 L456.25,887.2781 L456.6406,817.4556 L457.0313,838.7574 L457.4219,838.7574 L457.8125,860.0591 L458.2031,862.426 L458.5938,933.4319 L458.9844,796.1539 L459.375,857.6923 L459.7656,816.2722 L460.1563,858.8757 L460.5469,793.787 L460.9375,912.1302 L461.3281,881.361 L461.7188,798.5207 L462.1094,796.1539 L462.5,794.9704 L462.8907,929.8817 L463.2813,793.787 L463.6719,839.9408 L464.0625,815.0887 L464.4531,931.0651 L464.8438,817.4556 L465.2344,883.7278 L465.625,910.9467 L466.0156,906.213 L466.4063,843.4911 L466.7969,818.639 L467.1875,792.6036 L467.5781,886.0947 L467.9688,861.2426 L468.3594,797.3373 L468.75,797.3373 L469.1406,797.3373 L469.5313,797.3373 L469.9219,817.4556 L470.3125,912.1302 L470.7032,815.0887 L471.0938,865.9763 L471.4844,839.9408 L471.875,864.7929 L472.2656,818.639 L472.6563,798.5207 L473.0469,932.2485 L473.4375,798.5207 L473.8281,865.9763 L474.2188,818.639 L474.6094,910.9467 L475,845.858 L475.3906,813.9053 L475.7813,836.3905 L476.1719,883.7278 L476.5625,768.9349 L476.9531,864.7929 L477.3438,816.2722 L477.7344,812.7219 L478.125,910.9467 L478.5157,912.1302 L478.9063,864.7929 L479.2969,819.8224 L479.6875,913.3136 L480.0781,909.7633 L480.4688,837.574 L480.8594,847.0414 L481.25,864.7929 L481.6406,816.2722 L482.0313,813.9053 L482.4219,862.426 L482.8125,862.426 L483.2031,881.361 L483.5938,818.639 L483.9844,798.5207 L484.375,841.1243 L484.7656,816.2722 L485.1563,862.426 L485.5469,910.9467 L485.9375,817.4556 L486.3282,912.1302 L486.7188,816.2722 L487.1094,862.426 L487.5,819.8224 L487.8906,881.361 L488.2813,797.3373 L488.6719,913.3136 L489.0625,842.3077 L489.4531,905.0296 L489.8438,913.3136 L490.2344,796.1538 L490.625,794.9704 L491.0156,819.8224 L491.4063,817.4556 L491.7969,860.0591 L492.1875,821.0059 L492.5781,816.2722 L492.9688,815.0887 L493.3594,816.2722 L493.75,834.0237 L494.1407,791.4201 L494.5313,902.6627 L494.9219,882.5444 L495.3125,864.7929 L495.7031,861.2426 L496.0938,931.0651 L496.4844,907.3964 L496.875,817.4556 L497.2656,832.8402 L497.6563,796.1539 L498.0469,864.7929 L498.4375,838.7574 L498.8281,798.5207 L499.2188,819.8224 L499.6094,797.3373 L500,831.6568 L500.3906,842.3077 L500.7813,813.9053 L501.1719,912.1302 L501.5625,862.426 L501.9532,844.6746 L502.3438,913.3136 L502.7344,868.3432 L503.125,839.9408 L503.5156,796.1539 L503.9063,863.6094 L504.2969,794.9704 L504.6875,903.8461 L505.0781,794.9704 L505.4688,794.9704 L505.8594,843.4911 L506.25,861.2426 L506.6406,884.9113 L507.0313,912.1302 L507.4219,797.3373 L507.8125,794.9704 L508.2031,798.5207 L508.5938,908.5799 L508.9844,816.2722 L509.375,841.1243 L509.7657,908.5799 L510.1563,843.4911 L510.5469,839.9408 L510.9375,798.5207 L511.3281,864.7929 L511.7188,863.6094 L512.1094,884.9113 L512.5,821.0059 L512.8906,882.5444 L513.2813,862.426 L513.6719,862.426 L514.0625,844.6746 L514.4531,887.2781 L514.8438,913.3136 L515.2344,863.6094 L515.625,818.639 L516.0156,887.2781 L516.4063,817.4556 L516.7969,816.2722 L517.1875,794.9704 L517.5781,813.9053 L517.9688,884.9113 L518.3594,798.5207 L518.75,863.6094 L519.1406,860.0591 " stroke="blue" fill="none" />
<text x="50" y="1000" font-family="Arial" font-size="12" fill="black">Episode Length (1202)</text>
<text x="50" y="1015" font-family="Arial" font-size="10" fill="black">57</text>
<text x="50" y="1230" font-family="Arial" font-size="10" fill="black">17</text>
<path d="M50,1220 L50.39063,1205 L50.78125,1200 L51.17188,1185 L51.5625,1175 L51.95313,1170 L52.34375,1165 L52.73438,1160 L53.125,1160 L53.51563,1155 L53.90625,1140 L54.29688,1140 L54.6875,1140 L55.07813,1130 L55.46875,1120 L55.85938,1115 L56.25,1115 L56.64063,1110 L57.03125,1110 L57.42188,1110 L57.8125,1110 L58.20313,1110 L58.59375,1110 L58.98438,1110 L59.375,1105 L59.76563,1105 L60.15625,1100 L60.54688,1100 L60.9375,1100 L61.32813,1100 L61.71875,1200 L62.10938,1095 L62.5,1095 L62.89063,1095 L63.28125,1095 L63.67188,1090 L64.0625,1090 L64.45313,1205 L64.84375,1085 L65.23438,1085 L65.625,1085 L66.01563,1085 L66.40625,1085 L66.79688,1080 L67.1875,1080 L67.57813,1155 L67.96875,1065 L68.35938,1190 L68.75,1060 L69.14063,1060 L69.53125,1055 L69.92188,1055 L70.3125,1050 L70.70313,1140 L71.09375,1175 L71.48438,1035 L71.875,1185 L72.26563,1160 L72.65625,1155 L73.04688,1135 L73.4375,1145 L73.82813,1135 L74.21875,1200 L74.60938,1140 L75,1165 L75.39063,1145 L75.78125,1095 L76.17188,1135 L76.5625,1160 L76.95313,1205 L77.34375,1135 L77.73438,1140 L78.125,1135 L78.51563,1120 L78.90625,1135 L79.29688,1140 L79.6875,1130 L80.07813,1135 L80.46875,1130 L80.85938,1165 L81.25,1125 L81.64063,1105 L82.03125,1135 L82.42188,1200 L82.8125,1125 L83.20313,1135 L83.59375,1130 L83.98438,1130 L84.375,1100 L84.76563,1190 L85.15625,1095 L85.54688,1095 L85.9375,1095 L86.32813,1120 L86.71875,1155 L87.10938,1100 L87.5,1085 L87.89063,1070 L88.28125,1085 L88.67188,1140 L89.0625,1085 L89.45313,1160 L89.84375,1090 L90.23438,1085 L90.625,1205 L91.01563,1090 L91.40625,1060 L91.79688,1080 L92.1875,1170 L92.57813,1190 L92.96875,1175 L93.35938,1080 L93.75,1205 L94.14063,1090 L94.53125,1140 L94.92188,1195 L95.3125,1195 L95.70313,1040 L96.09375,1110 L96.48438,1115 L96.875,1140 L97.26563,1125 L97.65625,1125 L98.04688,1115 L98.4375,1185 L98.82813,1160 L99.21875,1205 L99.60938,1130 L100,1100 L100.3906,1145 L100.7813,1105 L101.1719,1120 L101.5625,1085 L101.9531,1100 L102.3438,1095 L102.7344,1105 L103.125,1090 L103.5156,1080 L103.9063,1130 L104.2969,1105 L104.6875,1095 L105.0781,1190 L105.4688,1080 L105.8594,1065 L106.25,1090 L106.6406,1130 L107.0313,1100 L107.4219,1200 L107.8125,1150 L108.2031,1165 L108.5938,1120 L108.9844,1085 L109.375,1145 L109.7656,1090 L110.1563,1145 L110.5469,1135 L110.9375,1145 L111.3281,1145 L111.7188,1055 L112.1094,1050 L112.5,1085 L112.8906,1150 L113.2813,1195 L113.6719,1190 L114.0625,1090 L114.4531,1080 L114.8438,1075 L115.2344,1135 L115.625,1120 L116.0156,1140 L116.4063,1140 L116.7969,1140 L117.1875,1195 L117.5781,1155 L117.9688,1140 L118.3594,1080 L118.75,1205 L119.1406,1135 L119.5313,1130 L119.9219,1070 L120.3125,1080 L120.7031,1155 L121.0938,1155 L121.4844,1155 L121.875,1140 L122.2656,1095 L122.6563,1165 L123.0469,1160 L123.4375,1155 L123.8281,1140 L124.2188,1145 L124.6094,1200 L125,1135 L125.3906,1130 L125.7813,1135 L126.1719,1180 L126.5625,1140 L126.9531,1070 L127.3438,1140 L127.7344,1080 L128.125,1070 L128.5156,1125 L128.9063,1110 L129.2969,1105 L129.6875,1120 L130.0781,1100 L130.4688,1090 L130.8594,1125 L131.25,1020 L131.6406,1085 L132.0313,1090 L132.4219,1100 L132.8125,1140 L133.2031,1170 L133.5938,1180 L133.9844,1200 L134.375,1090 L134.7656,1150 L135.1563,1120 L135.5469,1085 L135.9375,1145 L136.3281,1190 L136.7188,1135 L137.1094,1145 L137.5,1135 L137.8906,1135 L138.2813,1205 L138.6719,1105 L139.0625,1135 L139.4531,1190 L139.8438,1135 L140.2344,1090 L140.625,1155 L141.0156,1145 L141.4063,1070 L141.7969,1075 L142.1875,1115 L142.5781,1200 L142.9688,1095 L143.3594,1120 L143.75,1095 L144.1406,1200 L144.5313,1090 L144.9219,1145 L145.3125,1135 L145.7031,1125 L146.0938,1100 L146.4844,1075 L146.875,1100 L147.2656,1125 L147.6563,1150 L148.0469,1080 L148.4375,1155 L148.8281,1035 L149.2188,1090 L149.6094,1090 L150,1110 L150.3906,1205 L150.7813,1180 L151.1719,1135 L151.5625,1155 L151.9531,1110 L152.3438,1140 L152.7344,1095 L153.125,1085 L153.5156,1100 L153.9063,1150 L154.2969,1075 L154.6875,1130 L155.0781,1115 L155.4688,1200 L155.8594,1085 L156.25,1135 L156.6406,1130 L157.0313,1075 L157.4219,1200 L157.8125,1140 L158.2031,1140 L158.5938,1140 L158.9844,1080 L159.375,1125 L159.7656,1080 L160.1563,1085 L160.5469,1135 L160.9375,1190 L161.3281,1205 L161.7188,1160 L162.1094,1095 L162.5,1110 L162.8906,1050 L163.2813,1095 L163.6719,1200 L164.0625,1145 L164.4531,1190 L164.8438,1150 L165.2344,1135 L165.625,1145 L166.0156,1200 L166.4063,1205 L166.7969,1140 L167.1875,1085 L167.5781,1135 L167.9688,1070 L168.3594,1095 L168.75,1160 L169.1406,1205 L169.5313,1095 L169.9219,1095 L170.3125,1150 L170.7031,1145 L171.0938,1135 L171.4844,1130 L171.875,1095 L172.2656,1130 L172.6563,1135 L173.0469,1120 L173.4375,1100 L173.8281,1105 L174.2188,1210 L174.6094,1055 L175,1140 L175.3906,1140 L175.7813,1190 L176.1719,1200 L176.5625,1095 L176.9531,1080 L177.3438,1190 L177.7344,1130 L178.125,1145 L178.5156,1120 L178.9063,1090 L179.2969,1055 L179.6875,1200 L180.0781,1095 L180.4688,1100 L180.8594,1140 L181.25,1160 L181.6406,1140 L182.0313,1095 L182.4219,1195 L182.8125,1115 L183.2031,1115 L183.5938,1100 L183.9844,1095 L184.375,1130 L184.7656,1120 L185.1563,1110 L185.5469,1190 L185.9375,1165 L186.3281,1115 L186.7188,1120 L187.1094,1090 L187.5,1080 L187.8906,1150 L188.2813,1070 L188.6719,1180 L189.0625,1095 L189.4531,1100 L189.8438,1105 L190.2344,1140 L190.625,1090 L191.0156,1080 L191.4063,1100 L191.7969,1155 L192.1875,1130 L192.5781,1140 L192.9688,1175 L193.3594,1195 L193.75,1145 L194.1406,1065 L194.5313,1130 L194.9219,1095 L195.3125,1135 L195.7031,1080 L196.0938,1200 L196.4844,1080 L196.875,1085 L197.2656,1150 L197.6563,1075 L198.0469,1065 L198.4375,1100 L198.8281,1075 L199.2188,1105 L199.6094,1175 L200,1110 L200.3906,1200 L200.7813,1140 L201.1719,1080 L201.5625,1140 L201.9531,1150 L202.3438,1095 L202.7344,1105 L203.125,1095 L203.5156,1135 L203.9063,1105 L204.2969,1195 L204.6875,1195 L205.0781,1115 L205.4688,1095 L205.8594,1145 L206.25,1200 L206.6406,1120 L207.0313,1140 L207.4219,1155 L207.8125,1070 L208.2031,1075 L208.5938,1085 L208.9844,1200 L209.375,1075 L209.7656,1080 L210.1563,1130 L210.5469,1100 L210.9375,1135 L211.3281,1090 L211.7188,1140 L212.1094,1080 L212.5,1055 L212.8906,1075 L213.2813,1085 L213.6719,1140 L214.0625,1130 L214.4531,1165 L214.8438,1135 L215.2344,1090 L215.625,1090 L216.0156,1125 L216.4063,1140 L216.7969,1085 L217.1875,1135 L217.5781,1195 L217.9688,1150 L218.3594,1205 L218.75,1140 L219.1406,1130 L219.5313,1200 L219.9219,1140 L220.3125,1090 L220.7031,1200 L221.0938,1130 L221.4844,1085 L221.875,1165 L222.2656,1130 L222.6563,1100 L223.0469,1110 L223.4375,1090 L223.8281,1095 L224.2188,1080 L224.6094,1125 L225,1135 L225.3906,1135 L225.7813,1140 L226.1719,1175 L226.5625,1085 L226.9531,1135 L227.3438,1100 L227.7344,1120 L228.125,1190 L228.5156,1110 L228.9063,1125 L229.2969,1160 L229.6875,1100 L230.0781,1140 L230.4688,1140 L230.8594,1095 L231.25,1190 L231.6406,1100 L232.0313,1200 L232.4219,1145 L232.8125,1130 L233.2031,1140 L233.5938,1165 L233.9844,1090 L234.375,1170 L234.7656,1095 L235.1563,1105 L235.5469,1120 L235.9375,1090 L236.3281,1145 L236.7188,1145 L237.1094,1110 L237.5,1200 L237.8906,1135 L238.2813,1100 L238.6719,1085 L239.0625,1090 L239.4531,1135 L239.8438,1090 L240.2344,1080 L240.625,1195 L241.0156,1140 L241.4063,1195 L241.7969,1085 L242.1875,1085 L242.5781,1140 L242.9688,1080 L243.3594,1075 L243.75,1195 L244.1406,1030 L244.5313,1110 L244.9219,1095 L245.3125,1195 L245.7031,1100 L246.0938,1175 L246.4844,1115 L246.875,1115 L247.2656,1140 L247.6563,1140 L248.0469,1135 L248.4375,1055 L248.8281,1150 L249.2188,1130 L249.6094,1195 L250,1035 L250.3906,1125 L250.7813,1175 L251.1719,1215 L251.5625,1080 L251.9531,1050 L252.3438,1095 L252.7344,1115 L253.125,1080 L253.5156,1095 L253.9063,1090 L254.2969,1130 L254.6875,1045 L255.0781,1165 L255.4688,1135 L255.8594,1135 L256.25,1200 L256.6406,1140 L257.0313,1130 L257.4219,1145 L257.8125,1080 L258.2031,1135 L258.5938,1150 L258.9844,1045 L259.375,1090 L259.7656,1090 L260.1563,1095 L260.5469,1100 L260.9375,1145 L261.3281,1200 L261.7188,1040 L262.1094,1135 L262.5,1145 L262.8906,1080 L263.2813,1040 L263.6719,1095 L264.0625,1110 L264.4531,1150 L264.8438,1195 L265.2344,1135 L265.625,1095 L266.0156,1095 L266.4063,1075 L266.7969,1140 L267.1875,1200 L267.5781,1140 L267.9688,1120 L268.3594,1110 L268.75,1095 L269.1406,1085 L269.5313,1145 L269.9219,1090 L270.3125,1135 L270.7031,1160 L271.0938,1090 L271.4844,1085 L271.875,1090 L272.2656,1140 L272.6563,1100 L273.0469,1200 L273.4375,1075 L273.8281,1135 L274.2188,1160 L274.6094,1140 L275,1185 L275.3906,1190 L275.7813,1170 L276.1719,1050 L276.5625,1100 L276.9531,1080 L277.3438,1140 L277.7344,1140 L278.125,1110 L278.5156,1125 L278.9063,1190 L279.2969,1090 L279.6875,1080 L280.0781,1095 L280.4688,1170 L280.8594,1060 L281.25,1100 L281.6406,1130 L282.0313,1140 L282.4219,1175 L282.8125,1105 L283.2031,1140 L283.5938,1075 L283.9844,1165 L284.375,1090 L284.7656,1160 L285.1563,1185 L285.5469,1135 L285.9375,1070 L286.3281,1095 L286.7188,1130 L287.1094,1200 L287.5,1195 L287.8906,1115 L288.2813,1120 L288.6719,1170 L289.0625,1140 L289.4531,1170 L289.8438,1155 L290.2344,1130 L290.625,1125 L291.0156,1105 L291.4063,1095 L291.7969,1135 L292.1875,1080 L292.5781,1120 L292.9688,1140 L293.3594,1075 L293.75,1085 L294.1406,1165 L294.5313,1085 L294.9219,1140 L295.3125,1175 L295.7031,1060 L296.0938,1140 L296.4844,1200 L296.875,1195 L297.2656,1130 L297.6563,1120 L298.0469,1115 L298.4375,1120 L298.8281,1140 L299.2188,1145 L299.6094,1150 L300,1195 L300.3906,1195 L300.7813,1130 L301.1719,1090 L301.5625,1090 L301.9531,1125 L302.3438,1065 L302.7344,1100 L303.125,1130 L303.5156,1080 L303.9063,1105 L304.2969,1085 L304.6875,1130 L305.0781,1120 L305.4688,1130 L305.8594,1160 L306.25,1200 L306.6407,1080 L307.0313,1085 L307.4219,1190 L307.8125,1140 L308.2031,1125 L308.5938,1200 L308.9844,1145 L309.375,1150 L309.7656,1130 L310.1563,1045 L310.5469,1090 L310.9375,1110 L311.3281,1080 L311.7188,1120 L312.1094,1040 L312.5,1140 L312.8906,1095 L313.2813,1085 L313.6719,1165 L314.0625,1160 L314.4532,1095 L314.8438,1080 L315.2344,1135 L315.625,1130 L316.0156,1080 L316.4063,1070 L316.7969,1095 L317.1875,1085 L317.5781,1080 L317.9688,1140 L318.3594,1080 L318.75,1195 L319.1406,1135 L319.5313,1170 L319.9219,1055 L320.3125,1090 L320.7031,1115 L321.0938,1085 L321.4844,1020 L321.875,1170 L322.2657,1195 L322.6563,1200 L323.0469,1200 L323.4375,1120 L323.8281,1105 L324.2188,1095 L324.6094,1125 L325,1100 L325.3906,1155 L325.7813,1130 L326.1719,1085 L326.5625,1105 L326.9531,1100 L327.3438,1085 L327.7344,1095 L328.125,1165 L328.5156,1135 L328.9063,1195 L329.2969,1085 L329.6875,1080 L330.0782,1130 L330.4688,1115 L330.8594,1135 L331.25,1200 L331.6406,1135 L332.0313,1135 L332.4219,1135 L332.8125,1135 L333.2031,1200 L333.5938,1140 L333.9844,1125 L334.375,1200 L334.7656,1200 L335.1563,1080 L335.5469,1125 L335.9375,1090 L336.3281,1080 L336.7188,1195 L337.1094,1175 L337.5,1150 L337.8907,1085 L338.2813,1110 L338.6719,1130 L339.0625,1135 L339.4531,1140 L339.8438,1105 L340.2344,1135 L340.625,1080 L341.0156,1080 L341.4063,1080 L341.7969,1095 L342.1875,1205 L342.5781,1195 L342.9688,1065 L343.3594,1080 L343.75,1085 L344.1406,1145 L344.5313,1100 L344.9219,1195 L345.3125,1110 L345.7032,1120 L346.0938,1090 L346.4844,1045 L346.875,1205 L347.2656,1085 L347.6563,1085 L348.0469,1205 L348.4375,1170 L348.8281,1085 L349.2188,1150 L349.6094,1135 L350,1105 L350.3906,1185 L350.7813,1135 L351.1719,1135 L351.5625,1155 L351.9531,1125 L352.3438,1195 L352.7344,1145 L353.125,1080 L353.5157,1135 L353.9063,1090 L354.2969,1110 L354.6875,1140 L355.0781,1115 L355.4688,1095 L355.8594,1085 L356.25,1145 L356.6406,1080 L357.0313,1105 L357.4219,1085 L357.8125,1185 L358.2031,1195 L358.5938,1120 L358.9844,1145 L359.375,1080 L359.7656,1200 L360.1563,1190 L360.5469,1180 L360.9375,1130 L361.3282,1120 L361.7188,1205 L362.1094,1140 L362.5,1130 L362.8906,1080 L363.2813,1095 L363.6719,1205 L364.0625,1110 L364.4531,1085 L364.8438,1135 L365.2344,1130 L365.625,1130 L366.0156,1145 L366.4063,1140 L366.7969,1130 L367.1875,1110 L367.5781,1140 L367.9688,1115 L368.3594,1095 L368.75,1135 L369.1407,1145 L369.5313,1140 L369.9219,1200 L370.3125,1135 L370.7031,1140 L371.0938,1090 L371.4844,1200 L371.875,1125 L372.2656,1090 L372.6563,1105 L373.0469,1135 L373.4375,1195 L373.8281,1205 L374.2188,1195 L374.6094,1125 L375,1090 L375.3906,1095 L375.7813,1145 L376.1719,1190 L376.5625,1195 L376.9532,1075 L377.3438,1130 L377.7344,1120 L378.125,1090 L378.5156,1095 L378.9063,1150 L379.2969,1095 L379.6875,1115 L380.0781,1145 L380.4688,1145 L380.8594,1095 L381.25,1140 L381.6406,1195 L382.0313,1085 L382.4219,1145 L382.8125,1145 L383.2031,1195 L383.5938,1095 L383.9844,1100 L384.375,1135 L384.7657,1110 L385.1563,1155 L385.5469,1165 L385.9375,1125 L386.3281,1120 L386.7188,1185 L387.1094,1135 L387.5,1140 L387.8906,1125 L388.2813,1175 L388.6719,1080 L389.0625,1105 L389.4531,1180 L389.8438,1095 L390.2344,1170 L390.625,1195 L391.0156,1135 L391.4063,1150 L391.7969,1100 L392.1875,1160 L392.5782,1095 L392.9688,1145 L393.3594,1190 L393.75,1090 L394.1406,1095 L394.5313,1090 L394.9219,1085 L395.3125,1190 L395.7031,1140 L396.0938,1140 L396.4844,1110 L396.875,1075 L397.2656,1085 L397.6563,1135 L398.0469,1040 L398.4375,1100 L398.8281,1195 L399.2188,1105 L399.6094,1200 L400,1155 L400.3907,1120 L400.7813,1140 L401.1719,1195 L401.5625,1135 L401.9531,1135 L402.3438,1085 L402.7344,1205 L403.125,1205 L403.5156,1090 L403.9063,1085 L404.2969,1130 L404.6875,1085 L405.0781,1135 L405.4688,1100 L405.8594,1160 L406.25,1090 L406.6406,1135 L407.0313,1080 L407.4219,1125 L407.8125,1075 L408.2032,1140 L408.5938,1205 L408.9844,1045 L409.375,1165 L409.7656,1115 L410.1563,1125 L410.5469,1075 L410.9375,1200 L411.3281,1135 L411.7188,1075 L412.1094,1085 L412.5,1130 L412.8906,1170 L413.2813,1155 L413.6719,1055 L414.0625,1150 L414.4531,1105 L414.8438,1125 L415.2344,1200 L415.625,1190 L416.0157,1060 L416.4063,1135 L416.7969,1080 L417.1875,1130 L417.5781,1155 L417.9688,1090 L418.3594,1110 L418.75,1130 L419.1406,1100 L419.5313,1070 L419.9219,1100 L420.3125,1085 L420.7031,1205 L421.0938,1105 L421.4844,1035 L421.875,1085 L422.2656,1140 L422.6563,1070 L423.0469,1200 L423.4375,1100 L423.8282,1205 L424.2188,1140 L424.6094,1125 L425,1145 L425.3906,1155 L425.7813,1140 L426.1719,1150 L426.5625,1200 L426.9531,1140 L427.3438,1125 L427.7344,1120 L428.125,1065 L428.5156,1200 L428.9063,1140 L429.2969,1145 L429.6875,1070 L430.0781,1075 L430.4688,1145 L430.8594,1115 L431.25,1150 L431.6407,1085 L432.0313,1095 L432.4219,1210 L432.8125,1135 L433.2031,1115 L433.5938,1115 L433.9844,1055 L434.375,1090 L434.7656,1155 L435.1563,1130 L435.5469,1095 L435.9375,1160 L436.3281,1075 L436.7188,1200 L437.1094,1080 L437.5,1170 L437.8906,1120 L438.2813,1115 L438.6719,1100 L439.0625,1045 L439.4532,1140 L439.8438,1165 L440.2344,1135 L440.625,1045 L441.0156,1100 L441.4063,1065 L441.7969,1160 L442.1875,1140 L442.5781,1150 L442.9688,1090 L443.3594,1090 L443.75,1075 L444.1406,1105 L444.5313,1140 L444.9219,1155 L445.3125,1085 L445.7031,1130 L446.0938,1115 L446.4844,1135 L446.875,1085 L447.2657,1085 L447.6563,1095 L448.0469,1205 L448.4375,1085 L448.8281,1195 L449.2188,1135 L449.6094,1125 L450,1145 L450.3906,1140 L450.7813,1130 L451.1719,1105 L451.5625,1145 L451.9531,1180 L452.3438,1205 L452.7344,1100 L453.125,1025 L453.5156,1185 L453.9063,1195 L454.2969,1095 L454.6875,1100 L455.0782,1190 L455.4688,1135 L455.8594,1100 L456.25,1165 L456.6406,1095 L457.0313,1110 L457.4219,1110 L457.8125,1125 L458.2031,1135 L458.5938,1210 L458.9844,1080 L459.375,1115 L459.7656,1090 L460.1563,1120 L460.5469,1070 L460.9375,1195 L461.3281,1140 L461.7188,1090 L462.1094,1080 L462.5,1075 L462.8907,1195 L463.2813,1070 L463.6719,1115 L464.0625,1085 L464.4531,1200 L464.8438,1095 L465.2344,1150 L465.625,1190 L466.0156,1170 L466.4063,1130 L466.7969,1100 L467.1875,1065 L467.5781,1160 L467.9688,1130 L468.3594,1085 L468.75,1085 L469.1406,1085 L469.5313,1085 L469.9219,1095 L470.3125,1195 L470.7032,1085 L471.0938,1150 L471.4844,1115 L471.875,1145 L472.2656,1100 L472.6563,1090 L473.0469,1205 L473.4375,1090 L473.8281,1150 L474.2188,1100 L474.6094,1190 L475,1140 L475.3906,1080 L475.7813,1100 L476.1719,1150 L476.5625,1040 L476.9531,1145 L477.3438,1090 L477.7344,1075 L478.125,1190 L478.5157,1195 L478.9063,1145 L479.2969,1105 L479.6875,1200 L480.0781,1185 L480.4688,1105 L480.8594,1145 L481.25,1145 L481.6406,1090 L482.0313,1080 L482.4219,1135 L482.8125,1135 L483.2031,1140 L483.5938,1100 L483.9844,1090 L484.375,1120 L484.7656,1090 L485.1563,1135 L485.5469,1190 L485.9375,1095 L486.3282,1195 L486.7188,1090 L487.1094,1135 L487.5,1105 L487.8906,1140 L488.2813,1085 L488.6719,1200 L489.0625,1125 L489.4531,1165 L489.8438,1200 L490.2344,1080 L490.625,1075 L491.0156,1105 L491.4063,1095 L491.7969,1125 L492.1875,1110 L492.5781,1090 L492.9688,1085 L493.3594,1090 L493.75,1090 L494.1407,1060 L494.5313,1155 L494.9219,1145 L495.3125,1145 L495.7031,1130 L496.0938,1200 L496.4844,1175 L496.875,1095 L497.2656,1085 L497.6563,1080 L498.0469,1145 L498.4375,1110 L498.8281,1090 L499.2188,1105 L499.6094,1085 L500,1080 L500.3906,1125 L500.7813,1080 L501.1719,1195 L501.5625,1135 L501.9532,1135 L502.3438,1200 L502.7344,1160 L503.125,1115 L503.5156,1080 L503.9063,1140 L504.2969,1075 L504.6875,1160 L505.0781,1075 L505.4688,1075 L505.8594,1130 L506.25,1130 L506.6406,1155 L507.0313,1195 L507.4219,1085 L507.8125,1075 L508.2031,1090 L508.5938,1180 L508.9844,1090 L509.375,1120 L509.7657,1180 L510.1563,1130 L510.5469,1115 L510.9375,1090 L511.3281,1145 L511.7188,1140 L512.1094,1155 L512.5,1110 L512.8906,1145 L513.2813,1135 L513.6719,1135 L514.0625,1135 L514.4531,1165 L514.8438,1200 L515.2344,1140 L515.625,1100 L516.0156,1165 L516.4063,1095 L516.7969,1090 L517.1875,1075 L517.5781,1080 L517.9688,1155 L518.3594,1090 L518.75,1140 L519.1406,1125 " stroke="blue" fill="none" />
<text x="50" y="1270" font-family="Arial" font-size="12" fill="black">Policy Loss</text>
<text x="50" y="1285" font-family="Arial" font-size="10" fill="black">0.4229805</text>
<text x="50" y="1500" font-family="Arial" font-size="10" fill="black">0.01248998</text>
<path d="M50,1290 L75,1465.201 L100,1485.377 L125,1490 " stroke="blue" fill="none" />
<text x="50" y="1540" font-family="Arial" font-size="12" fill="black">Value Loss</text>
<text x="50" y="1555" font-family="Arial" font-size="10" fill="black">0.5011515</text>
<text x="50" y="1770" font-family="Arial" font-size="10" fill="black">0.002399275</text>
<path d="M50,1560 L75,1758.059 L100,1759.946 L125,1760 " stroke="blue" fill="none" />
<text x="50" y="1810" font-family="Arial" font-size="12" fill="black">Learning Rate</text>
<text x="50" y="1825" font-family="Arial" font-size="10" fill="black">0.0003</text>
<text x="50" y="2040" font-family="Arial" font-size="10" fill="black">0.0003</text>
<path d="M50,2030 L75,2030 L100,2030 L125,2030 " stroke="blue" fill="none" />
<text x="50" y="2080" font-family="Arial" font-size="12" fill="black">Entropy</text>
<text x="50" y="2095" font-family="Arial" font-size="10" fill="black">0.1041171</text>
<text x="50" y="2310" font-family="Arial" font-size="10" fill="black">0.05874997</text>
<path d="M50,2300 L75,2100 L100,2175.898 L125,2264.542 " stroke="blue" fill="none" />
<text x="750" y="730" font-family="Arial" font-size="12" fill="black">Simplified</text>
<text x="750" y="745" font-family="Arial" font-size="10" fill="black">0.7216315</text>
<text x="750" y="960" font-family="Arial" font-size="10" fill="black">0.5029473</text>
<path d="M757.0313,950 L764.4531,778.8809 L771.875,750 L779.2969,937.2443 L786.7188,883.8147 L794.1406,832.0698 L801.5625,896.5704 L808.9844,807.0397 L816.4063,849.6391 L823.8281,912.9362 L831.25,838.0866 L838.6719,903.5499 L846.0938,861.9134 L853.5156,816.1853 L860.9375,865.2828 L868.3594,925.4512 L875.7813,900.1806 L883.2031,878.5198 L890.625,828.4597 L898.0469,851.8052 L905.4688,850.8424 L912.8906,813.0566 L920.3125,883.8147 L927.7344,858.0625 L935.1563,895.6077 L942.5781,845.0662 L950,836.6426 L957.4219,854.9339 L964.8438,822.4429 L972.2656,841.9374 L979.6875,867.6896 L987.1094,862.1541 L994.5313,883.0927 L1001.953,913.1769 L1009.375,872.9845 L1016.797,781.5283 L1024.219,865.2828 L1031.641,844.5848 L1039.063,904.5127 L1046.484,805.8364 L1053.906,899.9398 L1061.328,862.6354 L1068.75,867.4489 L1076.172,917.509 L1083.594,874.4284 L1091.016,904.7534 L1098.438,819.7955 L1105.859,909.8075 L1113.281,850.361 L1120.703,837.124 L1128.125,892.2383 L1135.547,839.29 L1142.969,839.7714 L1150.391,839.5308 L1157.813,901.8652 L1165.234,856.8593 L1172.656,821.9615 L1180.078,894.8857 L1187.5,846.5103 L1194.922,838.0867 L1202.344,864.5608 L1209.766,838.8087 L1217.188,867.9302 L1219.141,842.0337 " stroke="blue" fill="none" />
<text x="750" y="1000" font-family="Arial" font-size="12" fill="black">Simplified</text>
<text x="750" y="1015" font-family="Arial" font-size="10" fill="black">41.94737</text>
<text x="750" y="1230" font-family="Arial" font-size="10" fill="black">30.31579</text>
<path d="M757.0313,1220 L764.4531,1077.014 L771.875,1020 L779.2969,1195.566 L786.7188,1143.982 L794.1406,1098.733 L801.5625,1151.222 L808.9844,1086.063 L816.4063,1110.498 L823.8281,1172.036 L831.25,1094.208 L838.6719,1163.891 L846.0938,1129.502 L853.5156,1093.303 L860.9375,1128.597 L868.3594,1164.796 L875.7813,1151.222 L883.2031,1137.647 L890.625,1098.733 L898.0469,1105.068 L905.4688,1128.597 L912.8906,1081.538 L920.3125,1157.557 L927.7344,1115.023 L935.1563,1161.177 L942.5781,1120.453 L950,1102.353 L957.4219,1116.833 L964.8438,1076.109 L972.2656,1095.113 L979.6875,1137.647 L987.1094,1130.407 L994.5313,1127.692 L1001.953,1172.941 L1009.375,1130.407 L1016.797,1044.434 L1024.219,1115.023 L1031.641,1118.643 L1039.063,1167.511 L1046.484,1081.538 L1053.906,1163.891 L1061.328,1145.792 L1068.75,1136.742 L1076.172,1189.231 L1083.594,1135.837 L1091.016,1168.416 L1098.438,1093.303 L1105.859,1173.846 L1113.281,1113.213 L1120.703,1104.163 L1128.125,1134.932 L1135.547,1112.308 L1142.969,1100.543 L1150.391,1113.213 L1157.813,1143.982 L1165.234,1110.498 L1172.656,1101.448 L1180.078,1158.462 L1187.5,1112.308 L1194.922,1094.208 L1202.344,1125.882 L1209.766,1110.498 L1217.188,1138.552 L1219.141,1098.19 " stroke="blue" fill="none" />
</svg>
