<svg width="2000" height="2500" xmlns="http://www.w3.org/2000/svg">
<text x="10" y="20" font-family="Arial" font-size="26" fill="black"> [Walker] Training Session</text>
<text x="10" y="50" font-family="Arial" font-size="16" fill="black">[Statistics]</text>
<text x="50" y="70" font-family="Arial" font-size="12" fill="black">Started at: 4:01:56 PM, Wednesday, February 7, 2024</text>
<text x="50" y="90" font-family="Arial" font-size="12" fill="black">Finished at: 4:06:04 PM, Wednesday, February 7, 2024</text>
<text x="50" y="110" font-family="Arial" font-size="12" fill="black">Training Session Time: 0 hrs : 3 min : 58 sec</text>
<text x="50" y="130" font-family="Arial" font-size="12" fill="black">Inference Time: 0 hrs : 55 min : 7 sec        [Device: CPU]</text>
<text x="50" y="150" font-family="Arial" font-size="12" fill="black">Update Time: 0 hrs : 2 min : 5 sec        [Per iteration: 0 hrs : 0 min : 41.573 sec]        [Device: GPU]</text>
<text x="50" y="170" font-family="Arial" font-size="12" fill="black">Episode Count: 2068</text>
<text x="50" y="190" font-family="Arial" font-size="12" fill="black">Inference Steps: 60000</text>
<text x="50" y="210" font-family="Arial" font-size="12" fill="black">Iterations: 3</text>
<text x="50" y="230" font-family="Arial" font-size="12" fill="black">Parallel Agents: 32</text>
<text x="50" y="250" font-family="Arial" font-size="12" fill="black">Timescale: 1</text>
<text x="50" y="270" font-family="Arial" font-size="12" fill="black">Trainer: PPO</text>
<text x="10" y="320" font-family="Arial" font-size="16" fill="black">[Hyperparameters]</text>
<text x="50" y="340" font-family="Arial" font-size="12" fill="black">Buffer Size: 20000        [Batch Size: 1000       (x20)]</text>
<text x="50" y="360" font-family="Arial" font-size="12" fill="black">Num Epoch: 8</text>
<text x="50" y="380" font-family="Arial" font-size="12" fill="black">Time Horizon: 512</text>
<text x="50" y="400" font-family="Arial" font-size="12" fill="black">Gradient Cliping by Norm: 0.5</text>
<text x="50" y="420" font-family="Arial" font-size="12" fill="black">Learning Rate Schedule: False    </text>
<text x="10" y="470" font-family="Arial" font-size="16" fill="black">[Behaviour]</text>
<text x="50" y="490" font-family="Arial" font-size="12" fill="black">Space Size: 120</text>
<text x="50" y="510" font-family="Arial" font-size="12" fill="black">Continuous Actions: 36 [Standard Deviation: Fixed]     [Value: 1.5]</text>
<text x="50" y="530" font-family="Arial" font-size="12" fill="black">Discrete Actions: 0</text>
<text x="50" y="550" font-family="Arial" font-size="12" fill="black">TargetFPS: 100 (physics update rate)</text>
<text x="50" y="570" font-family="Arial" font-size="12" fill="black">Observations Normalization: True</text>
<text x="10" y="620" font-family="Arial" font-size="16" fill="black">[Decision Requester]</text>
<text x="50" y="640" font-family="Arial" font-size="12" fill="black">Max Step: 10000</text>
<text x="50" y="660" font-family="Arial" font-size="12" fill="black">Decision Period: 5      [Actions Between Decisions: True]</text>
<text x="10" y="710" font-family="Arial" font-size="16" fill="black">[Graphs]</text>
<text x="50" y="730" font-family="Arial" font-size="12" fill="black">Episode Reward (2068)</text>
<text x="50" y="745" font-family="Arial" font-size="10" fill="black">0.9389998</text>
<text x="50" y="960" font-family="Arial" font-size="10" fill="black">0.179</text>
<path d="M50,930.2631 L50.19531,882.8947 L50.39063,881.5789 L50.58594,901.3158 L50.78125,901.3158 L50.97656,860.5263 L51.17188,898.6842 L51.36719,878.9473 L51.5625,878.9473 L51.75781,877.6315 L51.95313,877.6315 L52.14844,877.6315 L52.34375,876.3158 L52.53906,856.5789 L52.73438,855.2631 L52.92969,855.2631 L53.125,875 L53.32031,855.2631 L53.51563,853.9473 L53.71094,852.6315 L53.90625,851.3158 L54.10156,850 L54.29688,848.6842 L54.49219,848.6842 L54.6875,827.6315 L54.88281,826.3158 L55.07813,846.0526 L55.27344,825 L55.46875,822.3684 L55.66406,819.7368 L55.85938,905.2631 L56.05469,813.1579 L56.25,771.0526 L56.44531,878.9473 L56.64063,902.6316 L56.83594,880.2631 L57.03125,857.8947 L57.22656,881.5789 L57.42188,878.9473 L57.61719,902.6316 L57.8125,898.6842 L58.00781,856.5789 L58.20313,856.5789 L58.39844,855.2631 L58.59375,857.8947 L58.78906,876.3158 L58.98438,850 L59.17969,853.9473 L59.375,877.6315 L59.57031,897.3684 L59.76563,878.9473 L59.96094,857.8947 L60.15625,857.8947 L60.35156,850 L60.54688,857.8947 L60.74219,821.0526 L60.9375,931.5789 L61.13281,856.5789 L61.32813,855.2631 L61.52344,835.5263 L61.71875,842.1052 L61.91406,853.9473 L62.10938,859.2105 L62.30469,826.3158 L62.5,882.8947 L62.69531,823.6842 L62.89063,901.3158 L63.08594,853.9473 L63.28125,853.9473 L63.47656,853.9473 L63.67188,876.3158 L63.86719,875 L64.0625,876.3158 L64.25781,856.5789 L64.45313,875 L64.64844,878.9473 L64.84375,876.3158 L65.03906,872.3684 L65.23438,878.9473 L65.42969,857.8947 L65.625,856.5789 L65.82031,877.6315 L66.01563,928.9474 L66.21094,878.9473 L66.40625,843.421 L66.60156,905.2631 L66.79688,847.3684 L66.99219,855.2631 L67.1875,877.6315 L67.38281,847.3684 L67.57813,877.6315 L67.77344,825 L67.96875,852.6315 L68.16406,884.2105 L68.35938,818.421 L68.55469,925 L68.75,852.6315 L68.94531,819.7368 L69.14063,880.2631 L69.33594,877.6315 L69.53125,877.6315 L69.72656,876.3158 L69.92188,897.3684 L70.11719,856.5789 L70.3125,903.9473 L70.50781,897.3684 L70.70313,906.5789 L70.89844,876.3158 L71.09375,878.9473 L71.28906,847.3684 L71.48438,897.3684 L71.67969,880.2631 L71.875,852.6315 L72.07031,877.6315 L72.26563,823.6842 L72.46094,859.2105 L72.65625,872.3684 L72.85156,851.3158 L73.04688,880.2631 L73.24219,855.2631 L73.4375,877.6315 L73.63281,878.9473 L73.82813,876.3158 L74.02344,819.7368 L74.21875,875 L74.41406,856.5789 L74.60938,818.421 L74.80469,819.7368 L75,857.8947 L75.19531,851.3158 L75.39063,901.3158 L75.58594,885.5263 L75.78125,881.5789 L75.97656,905.2631 L76.17188,909.2105 L76.36719,855.2631 L76.5625,855.2631 L76.75781,856.5789 L76.95313,906.5789 L77.14844,852.6315 L77.34375,850 L77.53906,897.3684 L77.73438,896.0526 L77.92969,878.9473 L78.125,880.2631 L78.32031,881.5789 L78.51563,876.3158 L78.71094,903.9473 L78.90625,878.9473 L79.10156,818.421 L79.29688,857.8947 L79.49219,857.8947 L79.6875,882.8947 L79.88281,872.3684 L80.07813,878.9473 L80.27344,856.5789 L80.46875,872.3684 L80.66406,906.5789 L80.85938,852.6315 L81.05469,876.3158 L81.25,852.6315 L81.44531,878.9473 L81.64063,894.7368 L81.83594,847.3684 L82.03125,876.3158 L82.22656,855.2631 L82.42188,907.8947 L82.61719,839.4737 L82.8125,878.9473 L83.00781,868.421 L83.20313,905.2631 L83.39844,880.2631 L83.59375,875 L83.78906,859.2105 L83.98438,873.6842 L84.17969,792.1052 L84.375,853.9473 L84.57031,825 L84.76563,876.3158 L84.96094,827.6315 L85.15625,900 L85.35156,856.5789 L85.54688,857.8947 L85.74219,907.8947 L85.9375,919.7368 L86.13281,853.9473 L86.32813,861.8421 L86.52344,825 L86.71875,880.2631 L86.91406,857.8947 L87.10938,909.2105 L87.30469,902.6316 L87.5,822.3684 L87.69531,852.6315 L87.89063,875 L88.08594,855.2631 L88.28125,876.3158 L88.47656,877.6315 L88.67188,905.2631 L88.86719,878.9473 L89.0625,822.3684 L89.25781,875 L89.45313,847.3684 L89.64844,876.3158 L89.84375,878.9473 L90.03906,898.6842 L90.23438,864.4737 L90.42969,893.421 L90.625,856.5789 L90.82031,768.421 L91.01563,882.8947 L91.21094,900 L91.40625,875 L91.60156,846.0526 L91.79688,856.5789 L91.99219,882.8947 L92.1875,848.6842 L92.38281,853.9473 L92.57813,832.8947 L92.77344,905.2631 L92.96875,877.6315 L93.16406,830.2631 L93.35938,860.5263 L93.55469,855.2631 L93.75,857.8947 L93.94531,882.8947 L94.14063,898.6842 L94.33594,878.9473 L94.53125,906.5789 L94.72656,880.2631 L94.92188,882.8947 L95.11719,864.4737 L95.3125,852.6315 L95.50781,902.6316 L95.70313,878.9473 L95.89844,855.2631 L96.09375,872.3684 L96.28906,876.3158 L96.48438,880.2631 L96.67969,876.3158 L96.875,839.4737 L97.07031,878.9473 L97.26563,853.9473 L97.46094,902.6316 L97.65625,882.8947 L97.85156,894.7368 L98.04688,882.8947 L98.24219,877.6315 L98.4375,846.0526 L98.63281,881.5789 L98.82813,850 L99.02344,848.6842 L99.21875,876.3158 L99.41406,856.5789 L99.60938,928.9474 L99.80469,881.5789 L100,857.8947 L100.1953,857.8947 L100.3906,880.2631 L100.5859,859.2105 L100.7813,855.2631 L100.9766,880.2631 L101.1719,875 L101.3672,877.6315 L101.5625,876.3158 L101.7578,875 L101.9531,855.2631 L102.1484,894.7368 L102.3438,877.6315 L102.5391,851.3158 L102.7344,894.7368 L102.9297,898.6842 L103.125,825 L103.3203,907.8947 L103.5156,875 L103.7109,877.6315 L103.9063,896.0526 L104.1016,907.8947 L104.2969,884.2105 L104.4922,906.5789 L104.6875,825 L104.8828,853.9473 L105.0781,871.0526 L105.2734,853.9473 L105.4688,857.8947 L105.6641,859.2105 L105.8594,850 L106.0547,855.2631 L106.25,825 L106.4453,855.2631 L106.6406,900 L106.8359,859.2105 L107.0313,880.2631 L107.2266,878.9473 L107.4219,882.8947 L107.6172,900 L107.8125,846.0526 L108.0078,901.3158 L108.2031,877.6315 L108.3984,893.421 L108.5938,818.421 L108.7891,878.9473 L108.9844,855.2631 L109.1797,830.2631 L109.375,827.6315 L109.5703,855.2631 L109.7656,857.8947 L109.9609,877.6315 L110.1563,931.5789 L110.3516,878.9473 L110.5469,859.2105 L110.7422,856.5789 L110.9375,884.2105 L111.1328,893.421 L111.3281,825 L111.5234,878.9473 L111.7188,855.2631 L111.9141,873.6842 L112.1094,856.5789 L112.3047,897.3684 L112.5,896.0526 L112.6953,877.6315 L112.8906,897.3684 L113.0859,881.5789 L113.2813,818.421 L113.4766,855.2631 L113.6719,855.2631 L113.8672,825 L114.0625,853.9473 L114.2578,793.421 L114.4531,877.6315 L114.6484,855.2631 L114.8438,852.6315 L115.0391,867.1052 L115.2344,903.9473 L115.4297,878.9473 L115.625,907.8947 L115.8203,857.8947 L116.0156,826.3158 L116.2109,900 L116.4063,855.2631 L116.6016,856.5789 L116.7969,894.7368 L116.9922,852.6315 L117.1875,825 L117.3828,877.6315 L117.5781,878.9473 L117.7734,882.8947 L117.9688,881.5789 L118.1641,823.6842 L118.3594,906.5789 L118.5547,856.5789 L118.75,873.6842 L118.9453,873.6842 L119.1406,877.6315 L119.3359,848.6842 L119.5313,856.5789 L119.7266,877.6315 L119.9219,856.5789 L120.1172,882.8947 L120.3125,848.6842 L120.5078,871.0526 L120.7031,906.5789 L120.8984,857.8947 L121.0938,856.5789 L121.2891,880.2631 L121.4844,905.2631 L121.6797,856.5789 L121.875,882.8947 L122.0703,876.3158 L122.2656,868.421 L122.4609,851.3158 L122.6563,856.5789 L122.8516,907.8947 L123.0469,873.6842 L123.2422,880.2631 L123.4375,830.2631 L123.6328,859.2105 L123.8281,852.6315 L124.0234,855.2631 L124.2188,869.7368 L124.4141,855.2631 L124.6094,882.8947 L124.8047,875 L125,897.3684 L125.1953,877.6315 L125.3906,898.6842 L125.5859,880.2631 L125.7813,828.9473 L125.9766,880.2631 L126.1719,875 L126.3672,877.6315 L126.5625,868.421 L126.7578,877.6315 L126.9531,882.8947 L127.1484,876.3158 L127.3438,876.3158 L127.5391,859.2105 L127.7344,856.5789 L127.9297,876.3158 L128.125,828.9473 L128.3203,855.2631 L128.5156,853.9473 L128.7109,868.421 L128.9063,852.6315 L129.1016,950 L129.2969,896.0526 L129.4922,856.5789 L129.6875,827.6315 L129.8828,875 L130.0781,822.3684 L130.2734,856.5789 L130.4688,856.5789 L130.6641,896.0526 L130.8594,852.6315 L131.0547,905.2631 L131.25,880.2631 L131.4453,885.5263 L131.6406,859.2105 L131.8359,856.5789 L132.0313,851.3158 L132.2266,855.2631 L132.4219,906.5789 L132.6172,856.5789 L132.8125,909.2105 L133.0078,875 L133.2031,876.3158 L133.3984,880.2631 L133.5938,900 L133.7891,898.6842 L133.9844,876.3158 L134.1797,857.8947 L134.375,859.2105 L134.5703,878.9473 L134.7656,897.3684 L134.9609,855.2631 L135.1563,922.3684 L135.3516,855.2631 L135.5469,844.7368 L135.7422,898.6842 L135.9375,852.6315 L136.1328,881.5789 L136.3281,905.2631 L136.5234,880.2631 L136.7188,884.2105 L136.9141,880.2631 L137.1094,878.9473 L137.3047,843.421 L137.5,896.0526 L137.6953,853.9473 L137.8906,855.2631 L138.0859,876.3158 L138.2813,894.7368 L138.4766,877.6315 L138.6719,873.6842 L138.8672,898.6842 L139.0625,880.2631 L139.2578,876.3158 L139.4531,882.8947 L139.6484,856.5789 L139.8438,831.5789 L140.0391,821.0526 L140.2344,881.5789 L140.4297,877.6315 L140.625,850 L140.8203,876.3158 L141.0156,903.9473 L141.2109,853.9473 L141.4063,853.9473 L141.6016,856.5789 L141.7969,880.2631 L141.9922,931.5789 L142.1875,750 L142.3828,880.2631 L142.5781,906.5789 L142.7734,857.8947 L142.9688,896.0526 L143.1641,856.5789 L143.3594,855.2631 L143.5547,907.8947 L143.75,827.6315 L143.9453,857.8947 L144.1406,877.6315 L144.3359,897.3684 L144.5313,907.8947 L144.7266,853.9474 L144.9219,878.9473 L145.1172,876.3158 L145.3125,902.6316 L145.5078,852.6315 L145.7031,789.4737 L145.8984,896.0526 L146.0938,876.3158 L146.2891,873.6842 L146.4844,892.1053 L146.6797,825 L146.875,894.7368 L147.0703,851.3158 L147.2656,873.6842 L147.4609,848.6842 L147.6563,856.5789 L147.8516,856.5789 L148.0469,872.3684 L148.2422,877.6315 L148.4375,909.2105 L148.6328,903.9473 L148.8281,856.5789 L149.0234,897.3684 L149.2188,894.7368 L149.4141,855.2631 L149.6094,860.5263 L149.8047,902.6316 L150,873.6842 L150.1953,884.2105 L150.3906,877.6315 L150.5859,853.9473 L150.7813,872.3684 L150.9766,840.7894 L151.1719,894.7368 L151.3672,880.2631 L151.5625,880.2631 L151.7578,859.2105 L151.9531,905.2631 L152.1484,875 L152.3438,905.2631 L152.5391,905.2631 L152.7344,827.6315 L152.9297,828.9473 L153.125,902.6316 L153.3203,880.2631 L153.5156,875 L153.7109,905.2631 L153.9063,893.421 L154.1016,857.8947 L154.2969,856.5789 L154.4922,898.6842 L154.6875,926.3158 L154.8828,880.2631 L155.0781,882.8947 L155.2734,880.2631 L155.4688,857.8947 L155.6641,902.6316 L155.8594,877.6315 L156.0547,869.7368 L156.25,897.3684 L156.4453,853.9473 L156.6406,855.2631 L156.8359,896.0526 L157.0313,905.2631 L157.2266,852.6315 L157.4219,880.2631 L157.6172,882.8947 L157.8125,898.6842 L158.0078,846.0526 L158.2031,871.0526 L158.3984,856.5789 L158.5938,905.2631 L158.7891,857.8947 L158.9844,897.3684 L159.1797,855.2631 L159.375,873.6842 L159.5703,882.8947 L159.7656,893.421 L159.9609,793.421 L160.1563,894.7368 L160.3516,839.4737 L160.5469,855.2631 L160.7422,877.6315 L160.9375,896.0526 L161.1328,856.5789 L161.3281,882.8947 L161.5234,877.6315 L161.7188,882.8947 L161.9141,856.5789 L162.1094,853.9473 L162.3047,855.2631 L162.5,855.2631 L162.6953,878.9473 L162.8906,876.3158 L163.0859,907.8947 L163.2813,793.421 L163.4766,876.3158 L163.6719,877.6315 L163.8672,875 L164.0625,910.5263 L164.2578,878.9473 L164.4531,848.6842 L164.6484,857.8947 L164.8438,877.6315 L165.0391,856.5789 L165.2344,855.2631 L165.4297,822.3684 L165.625,876.3158 L165.8203,882.8947 L166.0156,884.2105 L166.2109,878.9473 L166.4063,930.2631 L166.6016,869.7368 L166.7969,855.2631 L166.9922,865.7895 L167.1875,884.2105 L167.3828,848.6842 L167.5781,855.2631 L167.7734,856.5789 L167.9688,830.2631 L168.1641,880.2631 L168.3594,894.7368 L168.5547,801.3158 L168.75,903.9473 L168.9453,872.3684 L169.1406,906.5789 L169.3359,821.0526 L169.5313,880.2631 L169.7266,851.3158 L169.9219,855.2631 L170.1172,856.5789 L170.3125,875 L170.5078,877.6315 L170.7031,793.421 L170.8984,880.2631 L171.0938,840.7894 L171.2891,877.6315 L171.4844,876.3158 L171.6797,947.3684 L171.875,878.9473 L172.0703,881.5789 L172.2656,856.5789 L172.4609,877.6315 L172.6563,905.2631 L172.8516,855.2631 L173.0469,900 L173.2422,797.3684 L173.4375,873.6842 L173.6328,853.9473 L173.8281,856.5789 L174.0234,898.6842 L174.2188,878.9473 L174.4141,909.2105 L174.6094,856.5789 L174.8047,882.8947 L175,847.3684 L175.1953,876.3158 L175.3906,880.2631 L175.5859,793.421 L175.7813,872.3684 L175.9766,877.6315 L176.1719,900 L176.3672,857.8947 L176.5625,851.3158 L176.7578,855.2631 L176.9531,906.5789 L177.1484,856.5789 L177.3438,760.5263 L177.5391,857.8947 L177.7344,882.8947 L177.9297,873.6842 L178.125,853.9473 L178.3203,877.6315 L178.5156,877.6315 L178.7109,852.6315 L178.9063,843.421 L179.1016,853.9473 L179.2969,881.5789 L179.4922,875 L179.6875,878.9473 L179.8828,909.2105 L180.0781,859.2105 L180.2735,855.2631 L180.4688,881.5789 L180.6641,852.6315 L180.8594,842.1052 L181.0547,826.3158 L181.25,880.2631 L181.4453,827.6315 L181.6406,930.2631 L181.8359,903.9473 L182.0313,907.8947 L182.2266,876.3158 L182.4219,856.5789 L182.6172,893.421 L182.8125,827.6315 L183.0078,880.2631 L183.2031,902.6316 L183.3984,897.3684 L183.5938,855.2631 L183.7891,873.6842 L183.9844,884.2105 L184.1797,855.2631 L184.375,896.0526 L184.5703,901.3158 L184.7656,803.9473 L184.9609,851.3158 L185.1563,876.3158 L185.3516,853.9473 L185.5469,878.9473 L185.7422,876.3158 L185.9375,880.2631 L186.1328,856.5789 L186.3281,848.6842 L186.5234,901.3158 L186.7188,884.2105 L186.9141,878.9473 L187.1094,907.8947 L187.3047,871.0526 L187.5,853.9473 L187.6953,873.6842 L187.8906,857.8947 L188.086,880.2631 L188.2813,880.2631 L188.4766,855.2631 L188.6719,855.2631 L188.8672,859.2105 L189.0625,905.2631 L189.2578,878.9473 L189.4531,869.7368 L189.6484,902.6316 L189.8438,894.7368 L190.0391,856.5789 L190.2344,878.9473 L190.4297,840.7894 L190.625,905.2631 L190.8203,880.2631 L191.0156,856.5789 L191.2109,880.2631 L191.4063,868.421 L191.6016,876.3158 L191.7969,880.2631 L191.9922,825 L192.1875,873.6842 L192.3828,877.6315 L192.5781,903.9473 L192.7734,880.2631 L192.9688,846.0526 L193.1641,828.9474 L193.3594,857.8947 L193.5547,850 L193.75,878.9473 L193.9453,826.3158 L194.1406,881.5789 L194.3359,881.5789 L194.5313,880.2631 L194.7266,830.2631 L194.9219,875 L195.1172,856.5789 L195.3125,878.9473 L195.5078,910.5263 L195.7031,877.6315 L195.8985,856.5789 L196.0938,859.2105 L196.2891,822.3684 L196.4844,852.6315 L196.6797,855.2631 L196.875,852.6315 L197.0703,906.5789 L197.2656,878.9473 L197.4609,876.3158 L197.6563,878.9473 L197.8516,843.421 L198.0469,882.8947 L198.2422,880.2631 L198.4375,851.3158 L198.6328,903.9473 L198.8281,880.2631 L199.0234,857.8947 L199.2188,850 L199.4141,878.9473 L199.6094,856.5789 L199.8047,878.9473 L200,875 L200.1953,897.3684 L200.3906,856.5789 L200.5859,877.6315 L200.7813,909.2105 L200.9766,882.8947 L201.1719,851.3158 L201.3672,878.9473 L201.5625,900 L201.7578,825 L201.9531,893.421 L202.1484,878.9473 L202.3438,852.6315 L202.5391,823.6842 L202.7344,860.5263 L202.9297,906.5789 L203.125,894.7368 L203.3203,877.6315 L203.5156,842.1052 L203.711,893.421 L203.9063,868.421 L204.1016,907.8947 L204.2969,819.7368 L204.4922,823.6842 L204.6875,855.2631 L204.8828,881.5789 L205.0781,897.3684 L205.2734,859.2105 L205.4688,855.2631 L205.6641,880.2631 L205.8594,878.9473 L206.0547,882.8947 L206.25,876.3158 L206.4453,855.2631 L206.6406,882.8947 L206.8359,877.6315 L207.0313,896.0526 L207.2266,894.7368 L207.4219,898.6842 L207.6172,878.9473 L207.8125,880.2631 L208.0078,905.2631 L208.2031,842.1052 L208.3984,855.2631 L208.5938,903.9473 L208.7891,894.7368 L208.9844,852.6315 L209.1797,884.2105 L209.375,842.1052 L209.5703,884.2105 L209.7656,847.3684 L209.9609,906.5789 L210.1563,905.2631 L210.3516,853.9473 L210.5469,815.7895 L210.7422,876.3158 L210.9375,906.5789 L211.1328,878.9473 L211.3281,877.6315 L211.5235,825 L211.7188,859.2105 L211.9141,914.4737 L212.1094,872.3684 L212.3047,859.2105 L212.5,884.2105 L212.6953,878.9473 L212.8906,878.9473 L213.0859,861.8421 L213.2813,860.5263 L213.4766,881.5789 L213.6719,853.9473 L213.8672,877.6315 L214.0625,880.2631 L214.2578,851.3158 L214.4531,907.8947 L214.6484,875 L214.8438,877.6315 L215.0391,877.6315 L215.2344,881.5789 L215.4297,878.9473 L215.625,857.8947 L215.8203,856.5789 L216.0156,856.5789 L216.2109,825 L216.4063,881.5789 L216.6016,875 L216.7969,882.8947 L216.9922,894.7368 L217.1875,855.2631 L217.3828,896.0526 L217.5781,881.5789 L217.7734,876.3158 L217.9688,880.2631 L218.1641,875 L218.3594,877.6315 L218.5547,903.9473 L218.75,855.2631 L218.9453,876.3158 L219.1406,900 L219.336,901.3158 L219.5313,877.6315 L219.7266,853.9473 L219.9219,873.6842 L220.1172,903.9473 L220.3125,880.2631 L220.5078,877.6315 L220.7031,855.2631 L220.8984,906.5789 L221.0938,856.5789 L221.2891,853.9473 L221.4844,877.6315 L221.6797,906.5789 L221.875,875 L222.0703,852.6315 L222.2656,856.5789 L222.4609,878.9473 L222.6563,855.2631 L222.8516,857.8947 L223.0469,859.2105 L223.2422,894.7368 L223.4375,859.2105 L223.6328,875 L223.8281,875 L224.0234,857.8947 L224.2188,850 L224.4141,903.9473 L224.6094,857.8947 L224.8047,859.2105 L225,878.9473 L225.1953,856.5789 L225.3906,900 L225.5859,884.2105 L225.7813,880.2631 L225.9766,877.6315 L226.1719,906.5789 L226.3672,851.3158 L226.5625,885.5263 L226.7578,843.421 L226.9531,876.3158 L227.1485,875 L227.3438,884.2105 L227.5391,878.9473 L227.7344,876.3158 L227.9297,855.2631 L228.125,857.8947 L228.3203,827.6315 L228.5156,819.7368 L228.7109,878.9473 L228.9063,926.3158 L229.1016,902.6316 L229.2969,880.2631 L229.4922,876.3158 L229.6875,878.9473 L229.8828,880.2631 L230.0781,859.2105 L230.2734,907.8947 L230.4688,843.421 L230.6641,851.3158 L230.8594,902.6316 L231.0547,857.8947 L231.25,907.8947 L231.4453,853.9473 L231.6406,878.9473 L231.8359,850 L232.0313,821.0526 L232.2266,856.5789 L232.4219,855.2631 L232.6172,851.3158 L232.8125,906.5789 L233.0078,897.3684 L233.2031,856.5789 L233.3984,840.7894 L233.5938,822.3684 L233.7891,830.2631 L233.9844,876.3158 L234.1797,855.2631 L234.375,860.5263 L234.5703,853.9473 L234.7656,906.5789 L234.961,906.5789 L235.1563,923.6842 L235.3516,875 L235.5469,863.1579 L235.7422,884.2105 L235.9375,903.9473 L236.1328,876.3158 L236.3281,855.2631 L236.5234,847.3684 L236.7188,928.9474 L236.9141,789.4737 L237.1094,905.2631 L237.3047,827.6315 L237.5,875 L237.6953,857.8947 L237.8906,853.9473 L238.0859,877.6315 L238.2813,856.5789 L238.4766,880.2631 L238.6719,892.1053 L238.8672,884.2105 L239.0625,877.6315 L239.2578,830.2631 L239.4531,856.5789 L239.6484,859.2105 L239.8438,875 L240.0391,875 L240.2344,878.9473 L240.4297,853.9473 L240.625,900 L240.8203,882.8947 L241.0156,884.2105 L241.2109,856.5789 L241.4063,852.6315 L241.6016,856.5789 L241.7969,902.6316 L241.9922,906.5789 L242.1875,907.8947 L242.3828,902.6316 L242.5781,898.6842 L242.7735,876.3158 L242.9688,948.6842 L243.1641,802.6315 L243.3594,828.9473 L243.5547,878.9473 L243.75,855.2631 L243.9453,856.5789 L244.1406,857.8947 L244.3359,877.6315 L244.5313,872.3684 L244.7266,903.9473 L244.9219,825 L245.1172,905.2631 L245.3125,905.2631 L245.5078,905.2631 L245.7031,881.5789 L245.8984,802.6315 L246.0938,855.2631 L246.2891,825 L246.4844,859.2105 L246.6797,846.0526 L246.875,882.8947 L247.0703,877.6315 L247.2656,877.6315 L247.4609,907.8947 L247.6563,821.0526 L247.8516,881.5789 L248.0469,926.3158 L248.2422,881.5789 L248.4375,896.0526 L248.6328,872.3684 L248.8281,880.2631 L249.0234,881.5789 L249.2188,876.3158 L249.4141,878.9473 L249.6094,819.7368 L249.8047,876.3158 L250,882.8947 L250.1953,875 L250.3906,875 L250.586,850 L250.7813,900 L250.9766,896.0526 L251.1719,901.3158 L251.3672,877.6315 L251.5625,898.6842 L251.7578,878.9473 L251.9531,821.0526 L252.1484,881.5789 L252.3438,876.3158 L252.5391,877.6315 L252.7344,894.7368 L252.9297,859.2105 L253.125,875 L253.3203,905.2631 L253.5156,855.2631 L253.7109,859.2105 L253.9063,853.9473 L254.1016,902.6316 L254.2969,906.5789 L254.4922,903.9473 L254.6875,907.8947 L254.8828,876.3158 L255.0781,853.9473 L255.2734,850 L255.4688,872.3684 L255.6641,851.3158 L255.8594,878.9473 L256.0547,930.2631 L256.25,893.421 L256.4453,877.6315 L256.6406,881.5789 L256.8359,875 L257.0313,906.5789 L257.2266,878.9473 L257.4219,903.9473 L257.6172,880.2631 L257.8125,857.8947 L258.0078,902.6316 L258.2031,878.9473 L258.3984,880.2631 L258.5938,853.9473 L258.7891,876.3158 L258.9844,855.2631 L259.1797,817.1052 L259.375,909.2105 L259.5703,853.9473 L259.7656,880.2631 L259.9609,882.8947 L260.1563,902.6316 L260.3516,877.6315 L260.5469,855.2631 L260.7422,856.5789 L260.9375,905.2631 L261.1328,902.6316 L261.3281,878.9473 L261.5234,909.2105 L261.7188,876.3158 L261.9141,877.6315 L262.1094,876.3158 L262.3047,852.6315 L262.5,876.3158 L262.6953,859.2105 L262.8906,846.0526 L263.0859,878.9473 L263.2813,880.2631 L263.4766,906.5789 L263.6719,848.6842 L263.8672,905.2631 L264.0625,857.8947 L264.2578,825 L264.4531,907.8947 L264.6484,877.6315 L264.8438,828.9473 L265.0391,851.3158 L265.2344,880.2631 L265.4297,907.8947 L265.625,867.1052 L265.8203,876.3158 L266.0156,848.6842 L266.2109,875 L266.4063,898.6842 L266.6016,876.3158 L266.7969,856.5789 L266.9922,863.1579 L267.1875,894.7368 L267.3828,876.3158 L267.5781,853.9473 L267.7734,876.3158 L267.9688,877.6315 L268.1641,853.9473 L268.3594,823.6842 L268.5547,903.9473 L268.75,857.8947 L268.9453,876.3158 L269.1406,853.9473 L269.3359,855.2631 L269.5313,896.0526 L269.7266,855.2631 L269.9219,871.0526 L270.1172,902.6316 L270.3125,856.5789 L270.5078,902.6316 L270.7031,876.3158 L270.8984,878.9473 L271.0938,819.7368 L271.2891,830.2631 L271.4844,900 L271.6797,881.5789 L271.875,855.2631 L272.0703,906.5789 L272.2656,875 L272.4609,878.9473 L272.6563,846.0526 L272.8516,852.6315 L273.0469,882.8947 L273.2422,859.2105 L273.4375,878.9473 L273.6328,827.6315 L273.8281,877.6315 L274.0234,852.6315 L274.2188,873.6842 L274.4141,851.3158 L274.6094,902.6316 L274.8047,900 L275,877.6315 L275.1953,880.2631 L275.3906,853.9473 L275.5859,859.2105 L275.7813,901.3158 L275.9766,872.3684 L276.1719,876.3158 L276.3672,909.2105 L276.5625,917.1053 L276.7578,856.5789 L276.9531,869.7368 L277.1484,823.6842 L277.3438,877.6315 L277.5391,876.3158 L277.7344,819.7368 L277.9297,876.3158 L278.125,906.5789 L278.3203,851.3158 L278.5156,876.3158 L278.7109,903.9473 L278.9063,881.5789 L279.1016,856.5789 L279.2969,907.8947 L279.4922,877.6315 L279.6875,851.3158 L279.8828,826.3158 L280.0781,873.6842 L280.2734,875 L280.4688,877.6315 L280.6641,844.7368 L280.8594,856.5789 L281.0547,857.8947 L281.25,905.2631 L281.4453,880.2631 L281.6406,851.3158 L281.8359,872.3684 L282.0313,878.9473 L282.2266,903.9473 L282.4219,828.9473 L282.6172,902.6316 L282.8125,871.0526 L283.0078,856.5789 L283.2031,855.2631 L283.3984,876.3158 L283.5938,785.5263 L283.7891,859.2105 L283.9844,898.6842 L284.1797,815.7895 L284.375,877.6315 L284.5703,880.2631 L284.7656,877.6315 L284.9609,855.2631 L285.1563,857.8947 L285.3516,905.2631 L285.5469,852.6315 L285.7422,846.0526 L285.9375,855.2631 L286.1328,875 L286.3281,876.3158 L286.5234,922.3684 L286.7188,876.3158 L286.9141,853.9473 L287.1094,901.3158 L287.3047,909.2105 L287.5,906.5789 L287.6953,898.6842 L287.8906,878.9473 L288.0859,856.5789 L288.2813,876.3158 L288.4766,876.3158 L288.6719,898.6842 L288.8672,877.6315 L289.0625,875 L289.2578,878.9473 L289.4531,857.8947 L289.6484,832.8947 L289.8438,878.9473 L290.0391,831.5789 L290.2344,882.8947 L290.4297,821.0526 L290.625,876.3158 L290.8203,798.6842 L291.0156,863.1579 L291.2109,875 L291.4063,875 L291.6016,921.0526 L291.7969,871.0526 L291.9922,876.3158 L292.1875,872.3684 L292.3828,825 L292.5781,877.6315 L292.7734,851.3158 L292.9688,881.5789 L293.1641,851.3158 L293.3594,902.6316 L293.5547,882.8947 L293.75,884.2105 L293.9453,902.6316 L294.1406,900 L294.3359,878.9473 L294.5313,851.3158 L294.7266,851.3158 L294.9219,855.2631 L295.1172,848.6842 L295.3125,827.6315 L295.5078,857.8947 L295.7031,852.6315 L295.8984,877.6315 L296.0938,853.9473 L296.2891,881.5789 L296.4844,857.8947 L296.6797,802.6315 L296.875,900 L297.0703,857.8947 L297.2656,856.5789 L297.4609,882.8947 L297.6563,882.8947 L297.8516,905.2631 L298.0469,855.2631 L298.2422,876.3158 L298.4375,907.8947 L298.6328,878.9473 L298.8281,828.9473 L299.0234,906.5789 L299.2188,878.9473 L299.4141,894.7368 L299.6094,900 L299.8047,875 L300,878.9473 L300.1953,873.6842 L300.3906,859.2105 L300.5859,877.6315 L300.7813,875 L300.9766,822.3684 L301.1719,856.5789 L301.3672,877.6315 L301.5625,901.3158 L301.7578,852.6315 L301.9531,905.2631 L302.1484,872.3684 L302.3438,875 L302.5391,867.1052 L302.7344,800 L302.9297,878.9473 L303.125,898.6842 L303.3203,853.9473 L303.5156,878.9473 L303.711,857.8947 L303.9063,901.3158 L304.1016,906.5789 L304.2969,882.8947 L304.4922,877.6315 L304.6875,905.2631 L304.8828,807.8947 L305.0781,881.5789 L305.2734,907.8947 L305.4688,857.8947 L305.6641,903.9473 L305.8594,896.0526 L306.0547,859.2105 L306.25,880.2631 L306.4453,882.8947 L306.6407,880.2631 L306.8359,907.8947 L307.0313,860.5263 L307.2266,877.6315 L307.4219,876.3158 L307.6172,831.5789 L307.8125,877.6315 L308.0078,906.5789 L308.2031,876.3158 L308.3984,868.421 L308.5938,905.2631 L308.7891,815.7895 L308.9844,880.2631 L309.1797,878.9473 L309.375,847.3684 L309.5703,873.6842 L309.7656,878.9473 L309.9609,856.5789 L310.1563,855.2631 L310.3516,876.3158 L310.5469,878.9473 L310.7422,828.9473 L310.9375,857.8947 L311.1328,896.0526 L311.3281,857.8947 L311.5235,901.3158 L311.7188,906.5789 L311.9141,878.9473 L312.1094,853.9473 L312.3047,859.2105 L312.5,881.5789 L312.6953,857.8947 L312.8906,856.5789 L313.0859,848.6842 L313.2813,882.8947 L313.4766,878.9473 L313.6719,880.2631 L313.8672,855.2631 L314.0625,906.5789 L314.2578,906.5789 L314.4532,926.3158 L314.6484,875 L314.8438,873.6842 L315.0391,873.6842 L315.2344,896.0526 L315.4297,884.2105 L315.625,894.7368 L315.8203,873.6842 L316.0156,802.6315 L316.2109,857.8947 L316.4063,900 L316.6016,894.7368 L316.7969,877.6315 L316.9922,857.8947 L317.1875,878.9473 L317.3828,897.3684 L317.5781,878.9473 L317.7734,855.2631 L317.9688,901.3158 L318.1641,878.9473 L318.3594,855.2631 L318.5547,823.6842 L318.75,872.3684 L318.9453,901.3158 L319.1406,878.9473 L319.336,827.6315 L319.5313,855.2631 L319.7266,873.6842 L319.9219,928.9474 L320.1172,872.3684 L320.3125,822.3684 L320.5078,842.1052 L320.7031,878.9473 L320.8984,897.3684 L321.0938,872.3684 L321.2891,878.9473 L321.4844,897.3684 L321.6797,828.9473 L321.875,909.2105 L322.0703,876.3158 L322.2657,881.5789 L322.4609,894.7368 L322.6563,821.0526 L322.8516,876.3158 L323.0469,842.1052 L323.2422,859.2105 L323.4375,856.5789 L323.6328,898.6842 L323.8281,853.9473 L324.0234,877.6315 L324.2188,882.8947 L324.4141,876.3158 L324.6094,910.5263 L324.8047,907.8947 L325,880.2631 L325.1953,905.2631 L325.3906,819.7368 L325.5859,898.6842 L325.7813,880.2631 L325.9766,901.3158 L326.1719,877.6315 L326.3672,857.8947 L326.5625,878.9473 L326.7578,898.6842 L326.9531,878.9473 L327.1485,892.1053 L327.3438,857.8947 L327.5391,875 L327.7344,910.5263 L327.9297,881.5789 L328.125,825 L328.3203,867.1052 L328.5156,876.3158 L328.7109,881.5789 L328.9063,906.5789 L329.1016,830.2631 L329.2969,894.7368 L329.4922,880.2631 L329.6875,881.5789 L329.8828,878.9473 L330.0782,873.6842 L330.2734,852.6315 L330.4688,880.2631 L330.6641,880.2631 L330.8594,876.3158 L331.0547,880.2631 L331.25,881.5789 L331.4453,897.3684 L331.6406,868.421 L331.8359,856.5789 L332.0313,881.5789 L332.2266,907.8947 L332.4219,876.3158 L332.6172,857.8947 L332.8125,876.3158 L333.0078,873.6842 L333.2031,882.8947 L333.3984,882.8947 L333.5938,860.5263 L333.7891,881.5789 L333.9844,876.3158 L334.1797,898.6842 L334.375,894.7368 L334.5703,878.9473 L334.7656,851.3158 L334.961,881.5789 L335.1563,878.9473 L335.3516,902.6316 L335.5469,897.3684 L335.7422,877.6315 L335.9375,894.7368 L336.1328,848.6842 L336.3281,910.5263 L336.5234,843.421 L336.7188,855.2631 L336.9141,901.3158 L337.1094,897.3684 L337.3047,881.5789 L337.5,880.2631 L337.6953,790.7895 L337.8907,878.9473 L338.0859,902.6316 L338.2813,857.8947 L338.4766,898.6842 L338.6719,875 L338.8672,873.6842 L339.0625,884.2105 L339.2578,900 L339.4531,871.0526 L339.6484,906.5789 L339.8438,882.8947 L340.0391,925 L340.2344,880.2631 L340.4297,802.6315 L340.625,856.5789 L340.8203,903.9473 L341.0156,906.5789 L341.2109,905.2631 L341.4063,877.6315 L341.6016,786.8421 L341.7969,853.9473 L341.9922,856.5789 L342.1875,880.2631 L342.3828,850 L342.5781,905.2631 L342.7735,878.9473 L342.9688,900 L343.1641,856.5789 L343.3594,892.1053 L343.5547,893.421 L343.75,931.5789 L343.9453,877.6315 L344.1406,882.8947 L344.3359,894.7368 L344.5313,907.8947 L344.7266,830.2631 L344.9219,897.3684 L345.1172,909.2105 L345.3125,857.8947 L345.5078,902.6316 L345.7032,881.5789 L345.8984,877.6315 L346.0938,847.3684 L346.2891,900 L346.4844,856.5789 L346.6797,897.3684 L346.875,875 L347.0703,902.6316 L347.2656,882.8947 L347.4609,857.8947 L347.6563,878.9473 L347.8516,861.8421 L348.0469,880.2631 L348.2422,856.5789 L348.4375,855.2631 L348.6328,850 L348.8281,930.2631 L349.0234,896.0526 L349.2188,900 L349.4141,875 L349.6094,878.9473 L349.8047,907.8947 L350,873.6842 L350.1953,897.3684 L350.3906,930.2631 L350.586,882.8947 L350.7813,906.5789 L350.9766,848.6842 L351.1719,892.1053 L351.3672,876.3158 L351.5625,930.2631 L351.7578,907.8947 L351.9531,876.3158 L352.1484,909.2105 L352.3438,930.2631 L352.5391,877.6315 L352.7344,900 L352.9297,875 L353.125,856.5789 L353.3203,859.2105 L353.5157,871.0526 L353.7109,852.6315 L353.9063,825 L354.1016,901.3158 L354.2969,877.6315 L354.4922,857.8947 L354.6875,884.2105 L354.8828,856.5789 L355.0781,876.3158 L355.2734,855.2631 L355.4688,857.8947 L355.6641,855.2631 L355.8594,901.3158 L356.0547,900 L356.25,873.6842 L356.4453,857.8947 L356.6406,873.6842 L356.8359,877.6315 L357.0313,857.8947 L357.2266,905.2631 L357.4219,878.9473 L357.6172,878.9473 L357.8125,853.9473 L358.0078,850 L358.2031,851.3158 L358.3985,832.8947 L358.5938,900 L358.7891,902.6316 L358.9844,823.6842 L359.1797,857.8947 L359.375,875 L359.5703,880.2631 L359.7656,878.9473 L359.9609,902.6316 L360.1563,893.421 L360.3516,872.3684 L360.5469,856.5789 L360.7422,855.2631 L360.9375,901.3158 L361.1328,880.2631 L361.3282,856.5789 L361.5234,843.421 L361.7188,827.6315 L361.9141,881.5789 L362.1094,857.8947 L362.3047,875 L362.5,875 L362.6953,876.3158 L362.8906,926.3158 L363.0859,852.6315 L363.2813,881.5789 L363.4766,881.5789 L363.6719,853.9473 L363.8672,896.0526 L364.0625,906.5789 L364.2578,903.9473 L364.4531,881.5789 L364.6484,856.5789 L364.8438,897.3684 L365.0391,876.3158 L365.2344,855.2631 L365.4297,902.6316 L365.625,856.5789 L365.8203,850 L366.0156,784.2105 L366.211,903.9473 L366.4063,819.7368 L366.6016,821.0526 L366.7969,880.2631 L366.9922,878.9473 L367.1875,851.3158 L367.3828,852.6315 L367.5781,903.9473 L367.7734,873.6842 L367.9688,875 L368.1641,897.3684 L368.3594,851.3158 L368.5547,857.8947 L368.75,848.6842 L368.9453,907.8947 L369.1407,853.9473 L369.3359,825 L369.5313,875 L369.7266,893.421 L369.9219,898.6842 L370.1172,903.9473 L370.3125,876.3158 L370.5078,853.9473 L370.7031,880.2631 L370.8984,898.6842 L371.0938,882.8947 L371.2891,853.9473 L371.4844,881.5789 L371.6797,881.5789 L371.875,855.2631 L372.0703,882.8947 L372.2656,877.6315 L372.4609,900 L372.6563,876.3158 L372.8516,852.6315 L373.0469,878.9473 L373.2422,925 L373.4375,843.421 L373.6328,906.5789 L373.8281,855.2631 L374.0235,844.7368 L374.2188,922.3684 L374.4141,898.6842 L374.6094,850 L374.8047,840.7894 L375,906.5789 L375.1953,882.8947 L375.3906,882.8947 L375.5859,903.9473 L375.7813,894.7368 L375.9766,901.3158 L376.1719,842.1052 L376.3672,881.5789 L376.5625,856.5789 L376.7578,855.2631 L376.9532,907.8947 L377.1484,900 L377.3438,930.2631 L377.5391,860.5263 L377.7344,859.2105 L377.9297,881.5789 L378.125,898.6842 L378.3203,872.3684 L378.5156,859.2105 L378.7109,873.6842 L378.9063,877.6315 L379.1016,857.8947 L379.2969,893.421 L379.4922,876.3158 L379.6875,878.9473 L379.8828,852.6315 L380.0781,878.9473 L380.2734,877.6315 L380.4688,852.6315 L380.6641,905.2631 L380.8594,857.8947 L381.0547,896.0526 L381.25,880.2631 L381.4453,877.6315 L381.6406,876.3158 L381.836,905.2631 L382.0313,881.5789 L382.2266,903.9473 L382.4219,880.2631 L382.6172,907.8947 L382.8125,859.2105 L383.0078,880.2631 L383.2031,900 L383.3984,832.8947 L383.5938,853.9473 L383.7891,880.2631 L383.9844,826.3158 L384.1797,886.8421 L384.375,852.6315 L384.5703,855.2631 L384.7657,796.0526 L384.9609,878.9473 L385.1563,855.2631 L385.3516,838.1578 L385.5469,877.6315 L385.7422,898.6842 L385.9375,873.6842 L386.1328,825 L386.3281,856.5789 L386.5234,882.8947 L386.7188,865.7895 L386.9141,853.9473 L387.1094,818.421 L387.3047,896.0526 L387.5,881.5789 L387.6953,877.6315 L387.8906,857.8947 L388.0859,877.6315 L388.2813,857.8947 L388.4766,878.9473 L388.6719,901.3158 L388.8672,921.0526 L389.0625,855.2631 L389.2578,876.3158 L389.4531,856.5789 L389.6485,881.5789 L389.8438,877.6315 L390.0391,853.9473 L390.2344,859.2105 L390.4297,880.2631 L390.625,853.9473 L390.8203,847.3684 L391.0156,856.5789 L391.2109,880.2631 L391.4063,880.2631 L391.6016,896.0526 L391.7969,827.6315 L391.9922,877.6315 L392.1875,898.6842 L392.3828,823.6842 L392.5782,876.3158 L392.7734,877.6315 L392.9688,878.9473 L393.1641,852.6315 L393.3594,876.3158 L393.5547,853.9473 L393.75,877.6315 L393.9453,828.9473 L394.1406,881.5789 L394.3359,876.3158 L394.5313,875 L394.7266,880.2631 L394.9219,856.5789 L395.1172,877.6315 L395.3125,826.3158 L395.5078,922.3684 L395.7031,876.3158 L395.8984,893.421 L396.0938,851.3158 L396.2891,806.5789 L396.4844,878.9473 L396.6797,822.3684 L396.875,873.6842 L397.0703,859.2105 L397.2656,902.6316 L397.461,938.1579 L397.6563,877.6315 L397.8516,880.2631 L398.0469,902.6316 L398.2422,878.9473 L398.4375,876.3158 L398.6328,825 L398.8281,905.2631 L399.0234,894.7368 L399.2188,898.6842 L399.4141,878.9473 L399.6094,886.8421 L399.8047,907.8947 L400,855.2631 L400.1953,881.5789 L400.3907,880.2631 L400.5859,877.6315 L400.7813,852.6315 L400.9766,898.6842 L401.1719,877.6315 L401.3672,802.6315 L401.5625,878.9473 L401.7578,893.421 L401.9531,877.6315 L402.1484,847.3684 L402.3438,860.5263 L402.5391,831.5789 L402.7344,878.9473 L402.9297,880.2631 L403.125,878.9473 L403.3203,865.7895 L403.5156,815.7895 L403.7109,902.6316 L403.9063,880.2631 L404.1016,853.9473 L404.2969,878.9473 L404.4922,856.5789 L404.6875,855.2631 L404.8828,906.5789 L405.0781,881.5789 L405.2735,930.2631 L405.4688,903.9473 L405.6641,876.3158 L405.8594,884.2105 L406.0547,853.9473 L406.25,861.8421 L406.4453,844.7368 L406.6406,903.9473 L406.8359,875 L407.0313,853.9473 L407.2266,855.2631 L407.4219,906.5789 L407.6172,856.5789 L407.8125,884.2105 L408.0078,856.5789 L408.2032,930.2631 L408.3984,853.9473 L408.5938,860.5263 L408.7891,857.8947 L408.9844,830.2631 L409.1797,905.2631 L409.375,878.9473 L409.5703,876.3158 L409.7656,856.5789 L409.9609,880.2631 L410.1563,898.6842 L410.3516,882.8947 L410.5469,857.8947 L410.7422,809.2105 L410.9375,855.2631 L411.1328,798.6842 L411.3281,790.7895 L411.5234,903.9473 L411.7188,931.5789 L411.9141,878.9473 L412.1094,900 L412.3047,880.2631 L412.5,873.6842 L412.6953,877.6315 L412.8906,909.2105 L413.086,855.2631 L413.2813,828.9473 L413.4766,876.3158 L413.6719,850 L413.8672,884.2105 L414.0625,897.3684 L414.2578,905.2631 L414.4531,875 L414.6484,857.8947 L414.8438,875 L415.0391,881.5789 L415.2344,857.8947 L415.4297,826.3158 L415.625,853.9473 L415.8203,819.7368 L416.0157,880.2631 L416.2109,856.5789 L416.4063,875 L416.6016,875 L416.7969,856.5789 L416.9922,868.421 L417.1875,875 L417.3828,907.8947 L417.5781,846.0526 L417.7734,876.3158 L417.9688,877.6315 L418.1641,855.2631 L418.3594,856.5789 L418.5547,926.3158 L418.75,847.3684 L418.9453,906.5789 L419.1406,880.2631 L419.3359,848.6842 L419.5313,896.0526 L419.7266,873.6842 L419.9219,876.3158 L420.1172,880.2631 L420.3125,856.5789 L420.5078,882.8947 L420.7031,878.9473 L420.8985,919.7368 L421.0938,856.5789 L421.2891,856.5789 L421.4844,855.2631 L421.6797,894.7368 L421.875,819.7368 L422.0703,894.7368 L422.2656,856.5789 L422.4609,871.0526 L422.6563,905.2631 L422.8516,907.8947 L423.0469,877.6315 L423.2422,898.6842 L423.4375,881.5789 L423.6328,907.8947 L423.8282,876.3158 L424.0234,880.2631 L424.2188,876.3158 L424.4141,792.1052 L424.6094,876.3158 L424.8047,876.3158 L425,880.2631 L425.1953,909.2105 L425.3906,897.3684 L425.5859,857.8947 L425.7813,877.6315 L425.9766,873.6842 L426.1719,856.5789 L426.3672,857.8947 L426.5625,856.5789 L426.7578,905.2631 L426.9531,852.6315 L427.1484,890.7895 L427.3438,878.9473 L427.5391,851.3158 L427.7344,873.6842 L427.9297,869.7368 L428.125,855.2631 L428.3203,902.6316 L428.5156,880.2631 L428.711,844.7368 L428.9063,851.3158 L429.1016,877.6315 L429.2969,882.8947 L429.4922,855.2631 L429.6875,896.0526 L429.8828,898.6842 L430.0781,856.5789 L430.2734,901.3158 L430.4688,894.7368 L430.6641,923.6842 L430.8594,882.8947 L431.0547,885.5263 L431.25,893.421 L431.4453,882.8947 L431.6407,901.3158 L431.8359,857.8947 L432.0313,880.2631 L432.2266,826.3158 L432.4219,852.6315 L432.6172,905.2631 L432.8125,884.2105 L433.0078,877.6315 L433.2031,853.9473 L433.3984,828.9473 L433.5938,842.1052 L433.7891,873.6842 L433.9844,797.3684 L434.1797,855.2631 L434.375,856.5789 L434.5703,909.2105 L434.7656,852.6315 L434.9609,901.3158 L435.1563,853.9473 L435.3516,877.6315 L435.5469,907.8947 L435.7422,878.9473 L435.9375,881.5789 L436.1328,903.9473 L436.3281,822.3684 L436.5235,876.3158 L436.7188,819.7368 L436.9141,901.3158 L437.1094,894.7368 L437.3047,856.5789 L437.5,853.9473 L437.6953,893.421 L437.8906,898.6842 L438.0859,880.2631 L438.2813,905.2631 L438.4766,893.421 L438.6719,859.2105 L438.8672,857.8947 L439.0625,876.3158 L439.2578,930.2631 L439.4532,882.8947 L439.6484,855.2631 L439.8438,851.3158 L440.0391,873.6842 L440.2344,876.3158 L440.4297,882.8947 L440.625,898.6842 L440.8203,842.1052 L441.0156,801.3158 L441.2109,881.5789 L441.4063,851.3158 L441.6016,853.9473 L441.7969,905.2631 L441.9922,881.5789 L442.1875,871.0526 L442.3828,907.8947 L442.5781,822.3684 L442.7734,876.3158 L442.9688,856.5789 L443.1641,875 L443.3594,881.5789 L443.5547,856.5789 L443.75,871.0526 L443.9453,907.8947 L444.1406,885.5263 L444.336,894.7368 L444.5313,881.5789 L444.7266,855.2631 L444.9219,846.0526 L445.1172,821.0526 L445.3125,927.6316 L445.5078,852.6315 L445.7031,826.3158 L445.8984,897.3684 L446.0938,905.2631 L446.2891,855.2631 L446.4844,857.8947 L446.6797,876.3158 L446.875,902.6316 L447.0703,880.2631 L447.2657,856.5789 L447.4609,852.6315 L447.6563,851.3158 L447.8516,931.5789 L448.0469,855.2631 L448.2422,900 L448.4375,901.3158 L448.6328,881.5789 L448.8281,877.6315 L449.0234,826.3158 L449.2188,905.2631 L449.4141,852.6315 L449.6094,856.5789 L449.8047,857.8947 L450,903.9473 L450.1953,830.2631 L450.3906,857.8947 L450.5859,859.2105 L450.7813,902.6316 L450.9766,892.1053 L451.1719,856.5789 L451.3672,859.2105 L451.5625,853.9473 L451.7578,905.2631 L451.9531,901.3158 L452.1485,903.9473 L452.3438,823.6842 L452.5391,877.6315 L452.7344,796.0526 L452.9297,876.3158 L453.125,855.2631 L453.3203,860.5263 L453.5156,848.6842 L453.7109,826.3158 " stroke="blue" fill="none" />
<text x="50" y="1000" font-family="Arial" font-size="12" fill="black">Episode Length (2068)</text>
<text x="50" y="1015" font-family="Arial" font-size="10" fill="black">68</text>
<text x="50" y="1230" font-family="Arial" font-size="10" fill="black">20</text>
<path d="M50,1220 L50.19531,1195 L50.39063,1190.833 L50.58594,1190.833 L50.78125,1190.833 L50.97656,1186.667 L51.17188,1182.5 L51.36719,1182.5 L51.5625,1182.5 L51.75781,1178.333 L51.95313,1178.333 L52.14844,1178.333 L52.34375,1174.167 L52.53906,1174.167 L52.73438,1170 L52.92969,1170 L53.125,1170 L53.32031,1170 L53.51563,1165.833 L53.71094,1161.667 L53.90625,1157.5 L54.10156,1153.333 L54.29688,1149.167 L54.49219,1149.167 L54.6875,1145 L54.88281,1140.833 L55.07813,1140.833 L55.27344,1136.667 L55.46875,1128.333 L55.66406,1120 L55.85938,1199.167 L56.05469,1099.167 L56.25,1090.833 L56.44531,1178.333 L56.64063,1190.833 L56.83594,1182.5 L57.03125,1174.167 L57.22656,1186.667 L57.42188,1178.333 L57.61719,1190.833 L57.8125,1178.333 L58.00781,1170 L58.20313,1170 L58.39844,1165.833 L58.59375,1174.167 L58.78906,1170 L58.98438,1149.167 L59.17969,1161.667 L59.375,1174.167 L59.57031,1174.167 L59.76563,1178.333 L59.96094,1174.167 L60.15625,1174.167 L60.35156,1149.167 L60.54688,1174.167 L60.74219,1120 L60.9375,1220 L61.13281,1170 L61.32813,1165.833 L61.52344,1103.333 L61.71875,1124.167 L61.91406,1161.667 L62.10938,1178.333 L62.30469,1136.667 L62.5,1190.833 L62.69531,1128.333 L62.89063,1186.667 L63.08594,1161.667 L63.28125,1161.667 L63.47656,1161.667 L63.67188,1170 L63.86719,1165.833 L64.0625,1170 L64.25781,1170 L64.45313,1165.833 L64.64844,1178.333 L64.84375,1170 L65.03906,1157.5 L65.23438,1178.333 L65.42969,1174.167 L65.625,1170 L65.82031,1174.167 L66.01563,1211.667 L66.21094,1178.333 L66.40625,1128.333 L66.60156,1199.167 L66.79688,1140.833 L66.99219,1165.833 L67.1875,1174.167 L67.38281,1140.833 L67.57813,1174.167 L67.77344,1132.5 L67.96875,1157.5 L68.16406,1195 L68.35938,1111.667 L68.55469,1199.167 L68.75,1157.5 L68.94531,1115.833 L69.14063,1182.5 L69.33594,1174.167 L69.53125,1174.167 L69.72656,1170 L69.92188,1174.167 L70.11719,1170 L70.3125,1195 L70.50781,1174.167 L70.70313,1203.333 L70.89844,1170 L71.09375,1178.333 L71.28906,1140.833 L71.48438,1174.167 L71.67969,1182.5 L71.875,1157.5 L72.07031,1174.167 L72.26563,1128.333 L72.46094,1178.333 L72.65625,1157.5 L72.85156,1153.333 L73.04688,1182.5 L73.24219,1165.833 L73.4375,1174.167 L73.63281,1178.333 L73.82813,1170 L74.02344,1115.833 L74.21875,1165.833 L74.41406,1170 L74.60938,1111.667 L74.80469,1115.833 L75,1174.167 L75.19531,1153.333 L75.39063,1186.667 L75.58594,1199.167 L75.78125,1186.667 L75.97656,1199.167 L76.17188,1211.667 L76.36719,1165.833 L76.5625,1165.833 L76.75781,1170 L76.95313,1203.333 L77.14844,1157.5 L77.34375,1149.167 L77.53906,1174.167 L77.73438,1170 L77.92969,1178.333 L78.125,1182.5 L78.32031,1186.667 L78.51563,1170 L78.71094,1195 L78.90625,1178.333 L79.10156,1111.667 L79.29688,1174.167 L79.49219,1174.167 L79.6875,1190.833 L79.88281,1157.5 L80.07813,1178.333 L80.27344,1170 L80.46875,1157.5 L80.66406,1203.333 L80.85938,1157.5 L81.05469,1170 L81.25,1157.5 L81.44531,1178.333 L81.64063,1165.833 L81.83594,1140.833 L82.03125,1170 L82.22656,1165.833 L82.42188,1207.5 L82.61719,1115.833 L82.8125,1178.333 L83.00781,1145 L83.20313,1199.167 L83.39844,1182.5 L83.59375,1165.833 L83.78906,1178.333 L83.98438,1161.667 L84.17969,1090.833 L84.375,1161.667 L84.57031,1132.5 L84.76563,1170 L84.96094,1140.833 L85.15625,1182.5 L85.35156,1170 L85.54688,1174.167 L85.74219,1207.5 L85.9375,1182.5 L86.13281,1161.667 L86.32813,1124.167 L86.52344,1132.5 L86.71875,1182.5 L86.91406,1174.167 L87.10938,1211.667 L87.30469,1190.833 L87.5,1124.167 L87.69531,1157.5 L87.89063,1165.833 L88.08594,1165.833 L88.28125,1170 L88.47656,1174.167 L88.67188,1199.167 L88.86719,1178.333 L89.0625,1124.167 L89.25781,1165.833 L89.45313,1140.833 L89.64844,1170 L89.84375,1178.333 L90.03906,1178.333 L90.23438,1132.5 L90.42969,1161.667 L90.625,1170 L90.82031,1078.333 L91.01563,1190.833 L91.21094,1182.5 L91.40625,1165.833 L91.60156,1136.667 L91.79688,1170 L91.99219,1190.833 L92.1875,1145 L92.38281,1161.667 L92.57813,1157.5 L92.77344,1199.167 L92.96875,1174.167 L93.16406,1149.167 L93.35938,1182.5 L93.55469,1165.833 L93.75,1174.167 L93.94531,1190.833 L94.14063,1178.333 L94.33594,1178.333 L94.53125,1203.333 L94.72656,1182.5 L94.92188,1190.833 L95.11719,1132.5 L95.3125,1157.5 L95.50781,1190.833 L95.70313,1178.333 L95.89844,1165.833 L96.09375,1157.5 L96.28906,1170 L96.48438,1182.5 L96.67969,1170 L96.875,1115.833 L97.07031,1178.333 L97.26563,1161.667 L97.46094,1190.833 L97.65625,1190.833 L97.85156,1165.833 L98.04688,1190.833 L98.24219,1174.167 L98.4375,1136.667 L98.63281,1186.667 L98.82813,1149.167 L99.02344,1145 L99.21875,1170 L99.41406,1170 L99.60938,1211.667 L99.80469,1186.667 L100,1174.167 L100.1953,1174.167 L100.3906,1182.5 L100.5859,1178.333 L100.7813,1165.833 L100.9766,1182.5 L101.1719,1165.833 L101.3672,1174.167 L101.5625,1170 L101.7578,1165.833 L101.9531,1165.833 L102.1484,1165.833 L102.3438,1174.167 L102.5391,1153.333 L102.7344,1165.833 L102.9297,1178.333 L103.125,1132.5 L103.3203,1207.5 L103.5156,1165.833 L103.7109,1174.167 L103.9063,1170 L104.1016,1207.5 L104.2969,1195 L104.4922,1203.333 L104.6875,1132.5 L104.8828,1161.667 L105.0781,1153.333 L105.2734,1161.667 L105.4688,1174.167 L105.6641,1178.333 L105.8594,1149.167 L106.0547,1165.833 L106.25,1132.5 L106.4453,1165.833 L106.6406,1182.5 L106.8359,1178.333 L107.0313,1182.5 L107.2266,1178.333 L107.4219,1190.833 L107.6172,1182.5 L107.8125,1136.667 L108.0078,1186.667 L108.2031,1174.167 L108.3984,1161.667 L108.5938,1111.667 L108.7891,1178.333 L108.9844,1165.833 L109.1797,1149.167 L109.375,1140.833 L109.5703,1165.833 L109.7656,1174.167 L109.9609,1174.167 L110.1563,1220 L110.3516,1178.333 L110.5469,1178.333 L110.7422,1170 L110.9375,1195 L111.1328,1161.667 L111.3281,1132.5 L111.5234,1178.333 L111.7188,1165.833 L111.9141,1161.667 L112.1094,1170 L112.3047,1174.167 L112.5,1170 L112.6953,1174.167 L112.8906,1174.167 L113.0859,1186.667 L113.2813,1111.667 L113.4766,1165.833 L113.6719,1165.833 L113.8672,1132.5 L114.0625,1161.667 L114.2578,1095 L114.4531,1174.167 L114.6484,1165.833 L114.8438,1157.5 L115.0391,1140.833 L115.2344,1195 L115.4297,1178.333 L115.625,1207.5 L115.8203,1174.167 L116.0156,1136.667 L116.2109,1182.5 L116.4063,1165.833 L116.6016,1170 L116.7969,1165.833 L116.9922,1157.5 L117.1875,1132.5 L117.3828,1174.167 L117.5781,1178.333 L117.7734,1190.833 L117.9688,1186.667 L118.1641,1128.333 L118.3594,1203.333 L118.5547,1170 L118.75,1161.667 L118.9453,1161.667 L119.1406,1174.167 L119.3359,1145 L119.5313,1170 L119.7266,1174.167 L119.9219,1170 L120.1172,1190.833 L120.3125,1145 L120.5078,1153.333 L120.7031,1203.333 L120.8984,1174.167 L121.0938,1170 L121.2891,1182.5 L121.4844,1199.167 L121.6797,1170 L121.875,1190.833 L122.0703,1170 L122.2656,1145 L122.4609,1153.333 L122.6563,1170 L122.8516,1207.5 L123.0469,1161.667 L123.2422,1182.5 L123.4375,1149.167 L123.6328,1178.333 L123.8281,1157.5 L124.0234,1165.833 L124.2188,1149.167 L124.4141,1165.833 L124.6094,1190.833 L124.8047,1165.833 L125,1174.167 L125.1953,1174.167 L125.3906,1178.333 L125.5859,1182.5 L125.7813,1145 L125.9766,1182.5 L126.1719,1165.833 L126.3672,1174.167 L126.5625,1145 L126.7578,1174.167 L126.9531,1190.833 L127.1484,1170 L127.3438,1170 L127.5391,1178.333 L127.7344,1170 L127.9297,1170 L128.125,1145 L128.3203,1165.833 L128.5156,1161.667 L128.7109,1145 L128.9063,1157.5 L129.1016,1215.833 L129.2969,1170 L129.4922,1170 L129.6875,1140.833 L129.8828,1165.833 L130.0781,1124.167 L130.2734,1170 L130.4688,1170 L130.6641,1170 L130.8594,1157.5 L131.0547,1199.167 L131.25,1182.5 L131.4453,1199.167 L131.6406,1115.833 L131.8359,1170 L132.0313,1153.333 L132.2266,1165.833 L132.4219,1203.333 L132.6172,1170 L132.8125,1211.667 L133.0078,1165.833 L133.2031,1170 L133.3984,1182.5 L133.5938,1182.5 L133.7891,1178.333 L133.9844,1170 L134.1797,1174.167 L134.375,1178.333 L134.5703,1178.333 L134.7656,1174.167 L134.9609,1165.833 L135.1563,1190.833 L135.3516,1165.833 L135.5469,1132.5 L135.7422,1178.333 L135.9375,1157.5 L136.1328,1186.667 L136.3281,1199.167 L136.5234,1182.5 L136.7188,1195 L136.9141,1182.5 L137.1094,1178.333 L137.3047,1128.333 L137.5,1170 L137.6953,1161.667 L137.8906,1165.833 L138.0859,1170 L138.2813,1165.833 L138.4766,1174.167 L138.6719,1161.667 L138.8672,1178.333 L139.0625,1182.5 L139.2578,1170 L139.4531,1190.833 L139.6484,1170 L139.8438,1153.333 L140.0391,1120 L140.2344,1186.667 L140.4297,1174.167 L140.625,1149.167 L140.8203,1170 L141.0156,1195 L141.2109,1161.667 L141.4063,1161.667 L141.6016,1170 L141.7969,1182.5 L141.9922,1220 L142.1875,1020 L142.3828,1182.5 L142.5781,1203.333 L142.7734,1174.167 L142.9688,1170 L143.1641,1170 L143.3594,1165.833 L143.5547,1207.5 L143.75,1140.833 L143.9453,1174.167 L144.1406,1174.167 L144.3359,1174.167 L144.5313,1207.5 L144.7266,1099.167 L144.9219,1178.333 L145.1172,1170 L145.3125,1190.833 L145.5078,1157.5 L145.7031,1082.5 L145.8984,1170 L146.0938,1170 L146.2891,1161.667 L146.4844,1157.5 L146.6797,1132.5 L146.875,1165.833 L147.0703,1153.333 L147.2656,1161.667 L147.4609,1145 L147.6563,1170 L147.8516,1170 L148.0469,1157.5 L148.2422,1174.167 L148.4375,1211.667 L148.6328,1195 L148.8281,1170 L149.0234,1174.167 L149.2188,1165.833 L149.4141,1165.833 L149.6094,1182.5 L149.8047,1190.833 L150,1161.667 L150.1953,1195 L150.3906,1174.167 L150.5859,1161.667 L150.7813,1157.5 L150.9766,1120 L151.1719,1165.833 L151.3672,1182.5 L151.5625,1182.5 L151.7578,1178.333 L151.9531,1199.167 L152.1484,1165.833 L152.3438,1199.167 L152.5391,1199.167 L152.7344,1140.833 L152.9297,1145 L153.125,1190.833 L153.3203,1182.5 L153.5156,1165.833 L153.7109,1199.167 L153.9063,1161.667 L154.1016,1174.167 L154.2969,1170 L154.4922,1178.333 L154.6875,1203.333 L154.8828,1182.5 L155.0781,1190.833 L155.2734,1182.5 L155.4688,1174.167 L155.6641,1190.833 L155.8594,1174.167 L156.0547,1149.167 L156.25,1174.167 L156.4453,1161.667 L156.6406,1165.833 L156.8359,1170 L157.0313,1199.167 L157.2266,1157.5 L157.4219,1182.5 L157.6172,1190.833 L157.8125,1178.333 L158.0078,1136.667 L158.2031,1153.333 L158.3984,1170 L158.5938,1199.167 L158.7891,1174.167 L158.9844,1174.167 L159.1797,1165.833 L159.375,1161.667 L159.5703,1190.833 L159.7656,1161.667 L159.9609,1095 L160.1563,1165.833 L160.3516,1115.833 L160.5469,1165.833 L160.7422,1174.167 L160.9375,1170 L161.1328,1170 L161.3281,1190.833 L161.5234,1174.167 L161.7188,1190.833 L161.9141,1170 L162.1094,1161.667 L162.3047,1165.833 L162.5,1165.833 L162.6953,1178.333 L162.8906,1170 L163.0859,1207.5 L163.2813,1095 L163.4766,1170 L163.6719,1174.167 L163.8672,1165.833 L164.0625,1215.833 L164.2578,1178.333 L164.4531,1145 L164.6484,1174.167 L164.8438,1174.167 L165.0391,1170 L165.2344,1165.833 L165.4297,1124.167 L165.625,1170 L165.8203,1190.833 L166.0156,1195 L166.2109,1178.333 L166.4063,1215.833 L166.6016,1149.167 L166.7969,1165.833 L166.9922,1136.667 L167.1875,1195 L167.3828,1145 L167.5781,1165.833 L167.7734,1170 L167.9688,1149.167 L168.1641,1182.5 L168.3594,1165.833 L168.5547,1120 L168.75,1195 L168.9453,1157.5 L169.1406,1203.333 L169.3359,1120 L169.5313,1182.5 L169.7266,1153.333 L169.9219,1165.833 L170.1172,1170 L170.3125,1165.833 L170.5078,1174.167 L170.7031,1095 L170.8984,1182.5 L171.0938,1120 L171.2891,1174.167 L171.4844,1170 L171.6797,1207.5 L171.875,1178.333 L172.0703,1186.667 L172.2656,1170 L172.4609,1174.167 L172.6563,1199.167 L172.8516,1165.833 L173.0469,1182.5 L173.2422,1107.5 L173.4375,1161.667 L173.6328,1161.667 L173.8281,1170 L174.0234,1178.333 L174.2188,1178.333 L174.4141,1211.667 L174.6094,1170 L174.8047,1190.833 L175,1140.833 L175.1953,1170 L175.3906,1182.5 L175.5859,1095 L175.7813,1157.5 L175.9766,1174.167 L176.1719,1182.5 L176.3672,1174.167 L176.5625,1153.333 L176.7578,1165.833 L176.9531,1203.333 L177.1484,1170 L177.3438,1053.333 L177.5391,1174.167 L177.7344,1190.833 L177.9297,1161.667 L178.125,1161.667 L178.3203,1174.167 L178.5156,1174.167 L178.7109,1157.5 L178.9063,1128.333 L179.1016,1161.667 L179.2969,1186.667 L179.4922,1165.833 L179.6875,1178.333 L179.8828,1211.667 L180.0781,1178.333 L180.2735,1165.833 L180.4688,1186.667 L180.6641,1157.5 L180.8594,1124.167 L181.0547,1136.667 L181.25,1182.5 L181.4453,1140.833 L181.6406,1215.833 L181.8359,1195 L182.0313,1207.5 L182.2266,1170 L182.4219,1170 L182.6172,1161.667 L182.8125,1140.833 L183.0078,1182.5 L183.2031,1190.833 L183.3984,1174.167 L183.5938,1165.833 L183.7891,1161.667 L183.9844,1195 L184.1797,1165.833 L184.375,1170 L184.5703,1186.667 L184.7656,1128.333 L184.9609,1153.333 L185.1563,1170 L185.3516,1161.667 L185.5469,1178.333 L185.7422,1170 L185.9375,1182.5 L186.1328,1170 L186.3281,1145 L186.5234,1186.667 L186.7188,1195 L186.9141,1178.333 L187.1094,1207.5 L187.3047,1153.333 L187.5,1161.667 L187.6953,1161.667 L187.8906,1111.667 L188.086,1182.5 L188.2813,1182.5 L188.4766,1165.833 L188.6719,1165.833 L188.8672,1178.333 L189.0625,1199.167 L189.2578,1178.333 L189.4531,1149.167 L189.6484,1190.833 L189.8438,1165.833 L190.0391,1170 L190.2344,1178.333 L190.4297,1120 L190.625,1199.167 L190.8203,1182.5 L191.0156,1170 L191.2109,1182.5 L191.4063,1145 L191.6016,1170 L191.7969,1182.5 L191.9922,1132.5 L192.1875,1161.667 L192.3828,1174.167 L192.5781,1195 L192.7734,1182.5 L192.9688,1136.667 L193.1641,1082.5 L193.3594,1174.167 L193.5547,1149.167 L193.75,1178.333 L193.9453,1136.667 L194.1406,1186.667 L194.3359,1186.667 L194.5313,1182.5 L194.7266,1149.167 L194.9219,1165.833 L195.1172,1170 L195.3125,1178.333 L195.5078,1215.833 L195.7031,1174.167 L195.8985,1170 L196.0938,1178.333 L196.2891,1124.167 L196.4844,1157.5 L196.6797,1165.833 L196.875,1157.5 L197.0703,1203.333 L197.2656,1178.333 L197.4609,1170 L197.6563,1178.333 L197.8516,1128.333 L198.0469,1190.833 L198.2422,1182.5 L198.4375,1153.333 L198.6328,1195 L198.8281,1182.5 L199.0234,1174.167 L199.2188,1149.167 L199.4141,1178.333 L199.6094,1170 L199.8047,1178.333 L200,1165.833 L200.1953,1174.167 L200.3906,1170 L200.5859,1174.167 L200.7813,1211.667 L200.9766,1190.833 L201.1719,1153.333 L201.3672,1178.333 L201.5625,1182.5 L201.7578,1132.5 L201.9531,1161.667 L202.1484,1178.333 L202.3438,1157.5 L202.5391,1128.333 L202.7344,1182.5 L202.9297,1203.333 L203.125,1165.833 L203.3203,1174.167 L203.5156,1124.167 L203.711,1161.667 L203.9063,1145 L204.1016,1207.5 L204.2969,1115.833 L204.4922,1128.333 L204.6875,1165.833 L204.8828,1186.667 L205.0781,1174.167 L205.2734,1178.333 L205.4688,1165.833 L205.6641,1182.5 L205.8594,1178.333 L206.0547,1190.833 L206.25,1170 L206.4453,1165.833 L206.6406,1190.833 L206.8359,1174.167 L207.0313,1170 L207.2266,1165.833 L207.4219,1178.333 L207.6172,1178.333 L207.8125,1182.5 L208.0078,1199.167 L208.2031,1124.167 L208.3984,1165.833 L208.5938,1195 L208.7891,1165.833 L208.9844,1157.5 L209.1797,1195 L209.375,1124.167 L209.5703,1195 L209.7656,1140.833 L209.9609,1203.333 L210.1563,1199.167 L210.3516,1161.667 L210.5469,1103.333 L210.7422,1170 L210.9375,1203.333 L211.1328,1178.333 L211.3281,1174.167 L211.5235,1132.5 L211.7188,1178.333 L211.9141,1165.833 L212.1094,1157.5 L212.3047,1178.333 L212.5,1195 L212.6953,1178.333 L212.8906,1178.333 L213.0859,1124.167 L213.2813,1182.5 L213.4766,1186.667 L213.6719,1161.667 L213.8672,1174.167 L214.0625,1182.5 L214.2578,1153.333 L214.4531,1207.5 L214.6484,1165.833 L214.8438,1174.167 L215.0391,1174.167 L215.2344,1186.667 L215.4297,1178.333 L215.625,1174.167 L215.8203,1170 L216.0156,1170 L216.2109,1132.5 L216.4063,1186.667 L216.6016,1165.833 L216.7969,1190.833 L216.9922,1165.833 L217.1875,1165.833 L217.3828,1170 L217.5781,1186.667 L217.7734,1170 L217.9688,1182.5 L218.1641,1165.833 L218.3594,1174.167 L218.5547,1195 L218.75,1165.833 L218.9453,1170 L219.1406,1182.5 L219.336,1186.667 L219.5313,1174.167 L219.7266,1161.667 L219.9219,1161.667 L220.1172,1195 L220.3125,1182.5 L220.5078,1174.167 L220.7031,1165.833 L220.8984,1203.333 L221.0938,1170 L221.2891,1161.667 L221.4844,1174.167 L221.6797,1203.333 L221.875,1165.833 L222.0703,1157.5 L222.2656,1170 L222.4609,1178.333 L222.6563,1165.833 L222.8516,1174.167 L223.0469,1178.333 L223.2422,1165.833 L223.4375,1178.333 L223.6328,1165.833 L223.8281,1165.833 L224.0234,1174.167 L224.2188,1149.167 L224.4141,1195 L224.6094,1174.167 L224.8047,1178.333 L225,1178.333 L225.1953,1170 L225.3906,1182.5 L225.5859,1195 L225.7813,1182.5 L225.9766,1174.167 L226.1719,1203.333 L226.3672,1153.333 L226.5625,1199.167 L226.7578,1128.333 L226.9531,1170 L227.1485,1165.833 L227.3438,1195 L227.5391,1178.333 L227.7344,1170 L227.9297,1165.833 L228.125,1174.167 L228.3203,1140.833 L228.5156,1115.833 L228.7109,1178.333 L228.9063,1203.333 L229.1016,1190.833 L229.2969,1182.5 L229.4922,1170 L229.6875,1178.333 L229.8828,1182.5 L230.0781,1178.333 L230.2734,1207.5 L230.4688,1128.333 L230.6641,1153.333 L230.8594,1190.833 L231.0547,1174.167 L231.25,1207.5 L231.4453,1161.667 L231.6406,1178.333 L231.8359,1149.167 L232.0313,1120 L232.2266,1170 L232.4219,1165.833 L232.6172,1153.333 L232.8125,1203.333 L233.0078,1174.167 L233.2031,1170 L233.3984,1120 L233.5938,1124.167 L233.7891,1149.167 L233.9844,1170 L234.1797,1165.833 L234.375,1182.5 L234.5703,1161.667 L234.7656,1203.333 L234.961,1203.333 L235.1563,1195 L235.3516,1165.833 L235.5469,1128.333 L235.7422,1195 L235.9375,1195 L236.1328,1170 L236.3281,1165.833 L236.5234,1140.833 L236.7188,1211.667 L236.9141,1082.5 L237.1094,1199.167 L237.3047,1140.833 L237.5,1165.833 L237.6953,1174.167 L237.8906,1161.667 L238.0859,1174.167 L238.2813,1170 L238.4766,1182.5 L238.6719,1157.5 L238.8672,1195 L239.0625,1174.167 L239.2578,1149.167 L239.4531,1170 L239.6484,1178.333 L239.8438,1165.833 L240.0391,1165.833 L240.2344,1178.333 L240.4297,1161.667 L240.625,1182.5 L240.8203,1190.833 L241.0156,1195 L241.2109,1170 L241.4063,1157.5 L241.6016,1170 L241.7969,1190.833 L241.9922,1203.333 L242.1875,1207.5 L242.3828,1190.833 L242.5781,1178.333 L242.7735,1170 L242.9688,1211.667 L243.1641,1124.167 L243.3594,1145 L243.5547,1178.333 L243.75,1165.833 L243.9453,1170 L244.1406,1174.167 L244.3359,1174.167 L244.5313,1157.5 L244.7266,1195 L244.9219,1132.5 L245.1172,1199.167 L245.3125,1199.167 L245.5078,1199.167 L245.7031,1186.667 L245.8984,1124.167 L246.0938,1165.833 L246.2891,1132.5 L246.4844,1178.333 L246.6797,1136.667 L246.875,1190.833 L247.0703,1174.167 L247.2656,1174.167 L247.4609,1207.5 L247.6563,1120 L247.8516,1186.667 L248.0469,1203.333 L248.2422,1186.667 L248.4375,1170 L248.6328,1157.5 L248.8281,1182.5 L249.0234,1186.667 L249.2188,1170 L249.4141,1178.333 L249.6094,1115.833 L249.8047,1170 L250,1190.833 L250.1953,1165.833 L250.3906,1165.833 L250.586,1149.167 L250.7813,1182.5 L250.9766,1170 L251.1719,1186.667 L251.3672,1174.167 L251.5625,1178.333 L251.7578,1178.333 L251.9531,1120 L252.1484,1186.667 L252.3438,1170 L252.5391,1174.167 L252.7344,1165.833 L252.9297,1115.833 L253.125,1165.833 L253.3203,1199.167 L253.5156,1165.833 L253.7109,1178.333 L253.9063,1161.667 L254.1016,1190.833 L254.2969,1203.333 L254.4922,1195 L254.6875,1207.5 L254.8828,1170 L255.0781,1161.667 L255.2734,1149.167 L255.4688,1157.5 L255.6641,1153.333 L255.8594,1178.333 L256.0547,1215.833 L256.25,1161.667 L256.4453,1174.167 L256.6406,1186.667 L256.8359,1165.833 L257.0313,1203.333 L257.2266,1178.333 L257.4219,1195 L257.6172,1182.5 L257.8125,1174.167 L258.0078,1190.833 L258.2031,1178.333 L258.3984,1182.5 L258.5938,1161.667 L258.7891,1170 L258.9844,1165.833 L259.1797,1107.5 L259.375,1211.667 L259.5703,1161.667 L259.7656,1182.5 L259.9609,1190.833 L260.1563,1190.833 L260.3516,1174.167 L260.5469,1165.833 L260.7422,1170 L260.9375,1199.167 L261.1328,1190.833 L261.3281,1178.333 L261.5234,1211.667 L261.7188,1170 L261.9141,1174.167 L262.1094,1170 L262.3047,1157.5 L262.5,1170 L262.6953,1178.333 L262.8906,1136.667 L263.0859,1178.333 L263.2813,1182.5 L263.4766,1203.333 L263.6719,1145 L263.8672,1199.167 L264.0625,1174.167 L264.2578,1132.5 L264.4531,1207.5 L264.6484,1174.167 L264.8438,1145 L265.0391,1153.333 L265.2344,1182.5 L265.4297,1207.5 L265.625,1140.833 L265.8203,1170 L266.0156,1145 L266.2109,1165.833 L266.4063,1178.333 L266.6016,1170 L266.7969,1170 L266.9922,1128.333 L267.1875,1165.833 L267.3828,1170 L267.5781,1161.667 L267.7734,1170 L267.9688,1174.167 L268.1641,1161.667 L268.3594,1128.333 L268.5547,1195 L268.75,1174.167 L268.9453,1170 L269.1406,1161.667 L269.3359,1165.833 L269.5313,1170 L269.7266,1165.833 L269.9219,1153.333 L270.1172,1190.833 L270.3125,1170 L270.5078,1190.833 L270.7031,1170 L270.8984,1178.333 L271.0938,1115.833 L271.2891,1149.167 L271.4844,1182.5 L271.6797,1186.667 L271.875,1165.833 L272.0703,1203.333 L272.2656,1165.833 L272.4609,1178.333 L272.6563,1136.667 L272.8516,1157.5 L273.0469,1190.833 L273.2422,1178.333 L273.4375,1178.333 L273.6328,1140.833 L273.8281,1174.167 L274.0234,1157.5 L274.2188,1161.667 L274.4141,1153.333 L274.6094,1190.833 L274.8047,1182.5 L275,1174.167 L275.1953,1182.5 L275.3906,1161.667 L275.5859,1178.333 L275.7813,1186.667 L275.9766,1157.5 L276.1719,1170 L276.3672,1211.667 L276.5625,1174.167 L276.7578,1170 L276.9531,1149.167 L277.1484,1128.333 L277.3438,1174.167 L277.5391,1170 L277.7344,1115.833 L277.9297,1170 L278.125,1203.333 L278.3203,1090.833 L278.5156,1170 L278.7109,1195 L278.9063,1186.667 L279.1016,1170 L279.2969,1207.5 L279.4922,1174.167 L279.6875,1153.333 L279.8828,1136.667 L280.0781,1161.667 L280.2734,1165.833 L280.4688,1174.167 L280.6641,1132.5 L280.8594,1170 L281.0547,1174.167 L281.25,1199.167 L281.4453,1182.5 L281.6406,1153.333 L281.8359,1157.5 L282.0313,1178.333 L282.2266,1195 L282.4219,1145 L282.6172,1190.833 L282.8125,1153.333 L283.0078,1170 L283.2031,1165.833 L283.3984,1170 L283.5938,1070 L283.7891,1178.333 L283.9844,1178.333 L284.1797,1103.333 L284.375,1174.167 L284.5703,1182.5 L284.7656,1174.167 L284.9609,1165.833 L285.1563,1174.167 L285.3516,1199.167 L285.5469,1157.5 L285.7422,1136.667 L285.9375,1165.833 L286.1328,1165.833 L286.3281,1170 L286.5234,1190.833 L286.7188,1170 L286.9141,1161.667 L287.1094,1186.667 L287.3047,1211.667 L287.5,1203.333 L287.6953,1178.333 L287.8906,1178.333 L288.0859,1170 L288.2813,1170 L288.4766,1170 L288.6719,1178.333 L288.8672,1174.167 L289.0625,1165.833 L289.2578,1178.333 L289.4531,1174.167 L289.6484,1157.5 L289.8438,1178.333 L290.0391,1153.333 L290.2344,1190.833 L290.4297,1120 L290.625,1170 L290.8203,1049.167 L291.0156,1128.333 L291.2109,1165.833 L291.4063,1165.833 L291.6016,1186.667 L291.7969,1153.333 L291.9922,1170 L292.1875,1157.5 L292.3828,1132.5 L292.5781,1174.167 L292.7734,1153.333 L292.9688,1186.667 L293.1641,1153.333 L293.3594,1190.833 L293.5547,1190.833 L293.75,1195 L293.9453,1190.833 L294.1406,1182.5 L294.3359,1178.333 L294.5313,1153.333 L294.7266,1153.333 L294.9219,1165.833 L295.1172,1145 L295.3125,1140.833 L295.5078,1174.167 L295.7031,1157.5 L295.8984,1174.167 L296.0938,1161.667 L296.2891,1186.667 L296.4844,1174.167 L296.6797,1124.167 L296.875,1182.5 L297.0703,1174.167 L297.2656,1170 L297.4609,1190.833 L297.6563,1190.833 L297.8516,1199.167 L298.0469,1165.833 L298.2422,1170 L298.4375,1207.5 L298.6328,1178.333 L298.8281,1145 L299.0234,1203.333 L299.2188,1178.333 L299.4141,1165.833 L299.6094,1182.5 L299.8047,1165.833 L300,1178.333 L300.1953,1161.667 L300.3906,1178.333 L300.5859,1174.167 L300.7813,1165.833 L300.9766,1124.167 L301.1719,1170 L301.3672,1174.167 L301.5625,1186.667 L301.7578,1157.5 L301.9531,1199.167 L302.1484,1157.5 L302.3438,1165.833 L302.5391,1140.833 L302.7344,1115.833 L302.9297,1178.333 L303.125,1178.333 L303.3203,1161.667 L303.5156,1178.333 L303.711,1174.167 L303.9063,1186.667 L304.1016,1203.333 L304.2969,1190.833 L304.4922,1174.167 L304.6875,1199.167 L304.8828,1078.333 L305.0781,1186.667 L305.2734,1207.5 L305.4688,1174.167 L305.6641,1195 L305.8594,1170 L306.0547,1178.333 L306.25,1182.5 L306.4453,1190.833 L306.6407,1182.5 L306.8359,1207.5 L307.0313,1182.5 L307.2266,1174.167 L307.4219,1170 L307.6172,1153.333 L307.8125,1174.167 L308.0078,1203.333 L308.2031,1170 L308.3984,1145 L308.5938,1199.167 L308.7891,1103.333 L308.9844,1182.5 L309.1797,1178.333 L309.375,1140.833 L309.5703,1161.667 L309.7656,1178.333 L309.9609,1170 L310.1563,1165.833 L310.3516,1170 L310.5469,1178.333 L310.7422,1145 L310.9375,1174.167 L311.1328,1170 L311.3281,1174.167 L311.5235,1186.667 L311.7188,1203.333 L311.9141,1178.333 L312.1094,1161.667 L312.3047,1178.333 L312.5,1186.667 L312.6953,1174.167 L312.8906,1170 L313.0859,1145 L313.2813,1190.833 L313.4766,1178.333 L313.6719,1182.5 L313.8672,1165.833 L314.0625,1203.333 L314.2578,1203.333 L314.4532,1203.333 L314.6484,1165.833 L314.8438,1161.667 L315.0391,1161.667 L315.2344,1170 L315.4297,1195 L315.625,1165.833 L315.8203,1161.667 L316.0156,1124.167 L316.2109,1174.167 L316.4063,1182.5 L316.6016,1165.833 L316.7969,1174.167 L316.9922,1174.167 L317.1875,1178.333 L317.3828,1174.167 L317.5781,1178.333 L317.7734,1165.833 L317.9688,1186.667 L318.1641,1178.333 L318.3594,1165.833 L318.5547,1128.333 L318.75,1157.5 L318.9453,1186.667 L319.1406,1178.333 L319.336,1140.833 L319.5313,1165.833 L319.7266,1161.667 L319.9219,1211.667 L320.1172,1157.5 L320.3125,1124.167 L320.5078,1124.167 L320.7031,1178.333 L320.8984,1174.167 L321.0938,1157.5 L321.2891,1178.333 L321.4844,1174.167 L321.6797,1145 L321.875,1211.667 L322.0703,1170 L322.2657,1186.667 L322.4609,1165.833 L322.6563,1120 L322.8516,1170 L323.0469,1124.167 L323.2422,1178.333 L323.4375,1170 L323.6328,1178.333 L323.8281,1161.667 L324.0234,1174.167 L324.2188,1190.833 L324.4141,1170 L324.6094,1215.833 L324.8047,1207.5 L325,1182.5 L325.1953,1199.167 L325.3906,1115.833 L325.5859,1178.333 L325.7813,1182.5 L325.9766,1186.667 L326.1719,1174.167 L326.3672,1174.167 L326.5625,1178.333 L326.7578,1178.333 L326.9531,1178.333 L327.1485,1157.5 L327.3438,1174.167 L327.5391,1165.833 L327.7344,1215.833 L327.9297,1186.667 L328.125,1132.5 L328.3203,1140.833 L328.5156,1170 L328.7109,1186.667 L328.9063,1203.333 L329.1016,1149.167 L329.2969,1165.833 L329.4922,1182.5 L329.6875,1186.667 L329.8828,1178.333 L330.0782,1161.667 L330.2734,1157.5 L330.4688,1182.5 L330.6641,1182.5 L330.8594,1170 L331.0547,1182.5 L331.25,1186.667 L331.4453,1174.167 L331.6406,1145 L331.8359,1170 L332.0313,1186.667 L332.2266,1207.5 L332.4219,1170 L332.6172,1174.167 L332.8125,1170 L333.0078,1161.667 L333.2031,1190.833 L333.3984,1190.833 L333.5938,1182.5 L333.7891,1186.667 L333.9844,1170 L334.1797,1178.333 L334.375,1165.833 L334.5703,1178.333 L334.7656,1153.333 L334.961,1186.667 L335.1563,1178.333 L335.3516,1190.833 L335.5469,1174.167 L335.7422,1174.167 L335.9375,1165.833 L336.1328,1145 L336.3281,1215.833 L336.5234,1128.333 L336.7188,1165.833 L336.9141,1186.667 L337.1094,1174.167 L337.3047,1186.667 L337.5,1182.5 L337.6953,1086.667 L337.8907,1178.333 L338.0859,1190.833 L338.2813,1174.167 L338.4766,1178.333 L338.6719,1165.833 L338.8672,1161.667 L339.0625,1195 L339.2578,1182.5 L339.4531,1153.333 L339.6484,1203.333 L339.8438,1190.833 L340.0391,1199.167 L340.2344,1182.5 L340.4297,1124.167 L340.625,1170 L340.8203,1195 L341.0156,1203.333 L341.2109,1199.167 L341.4063,1174.167 L341.6016,1074.167 L341.7969,1161.667 L341.9922,1170 L342.1875,1182.5 L342.3828,1149.167 L342.5781,1199.167 L342.7735,1178.333 L342.9688,1182.5 L343.1641,1170 L343.3594,1157.5 L343.5547,1161.667 L343.75,1220 L343.9453,1174.167 L344.1406,1190.833 L344.3359,1165.833 L344.5313,1207.5 L344.7266,1149.167 L344.9219,1174.167 L345.1172,1211.667 L345.3125,1174.167 L345.5078,1190.833 L345.7032,1186.667 L345.8984,1174.167 L346.0938,1140.833 L346.2891,1182.5 L346.4844,1170 L346.6797,1174.167 L346.875,1165.833 L347.0703,1190.833 L347.2656,1190.833 L347.4609,1174.167 L347.6563,1178.333 L347.8516,1124.167 L348.0469,1182.5 L348.2422,1170 L348.4375,1165.833 L348.6328,1149.167 L348.8281,1215.833 L349.0234,1170 L349.2188,1182.5 L349.4141,1165.833 L349.6094,1178.333 L349.8047,1207.5 L350,1161.667 L350.1953,1174.167 L350.3906,1215.833 L350.586,1190.833 L350.7813,1203.333 L350.9766,1145 L351.1719,1157.5 L351.3672,1170 L351.5625,1215.833 L351.7578,1207.5 L351.9531,1170 L352.1484,1211.667 L352.3438,1215.833 L352.5391,1174.167 L352.7344,1182.5 L352.9297,1165.833 L353.125,1170 L353.3203,1178.333 L353.5157,1153.333 L353.7109,1157.5 L353.9063,1132.5 L354.1016,1186.667 L354.2969,1174.167 L354.4922,1174.167 L354.6875,1195 L354.8828,1170 L355.0781,1170 L355.2734,1165.833 L355.4688,1174.167 L355.6641,1165.833 L355.8594,1186.667 L356.0547,1182.5 L356.25,1161.667 L356.4453,1174.167 L356.6406,1161.667 L356.8359,1174.167 L357.0313,1174.167 L357.2266,1199.167 L357.4219,1178.333 L357.6172,1178.333 L357.8125,1161.667 L358.0078,1149.167 L358.2031,1153.333 L358.3985,1157.5 L358.5938,1182.5 L358.7891,1190.833 L358.9844,1128.333 L359.1797,1174.167 L359.375,1165.833 L359.5703,1182.5 L359.7656,1178.333 L359.9609,1190.833 L360.1563,1161.667 L360.3516,1157.5 L360.5469,1170 L360.7422,1165.833 L360.9375,1186.667 L361.1328,1182.5 L361.3282,1170 L361.5234,1128.333 L361.7188,1140.833 L361.9141,1186.667 L362.1094,1174.167 L362.3047,1165.833 L362.5,1165.833 L362.6953,1170 L362.8906,1203.333 L363.0859,1157.5 L363.2813,1186.667 L363.4766,1186.667 L363.6719,1161.667 L363.8672,1170 L364.0625,1203.333 L364.2578,1195 L364.4531,1186.667 L364.6484,1170 L364.8438,1174.167 L365.0391,1170 L365.2344,1165.833 L365.4297,1190.833 L365.625,1170 L365.8203,1149.167 L366.0156,1065.833 L366.211,1195 L366.4063,1115.833 L366.6016,1120 L366.7969,1182.5 L366.9922,1178.333 L367.1875,1153.333 L367.3828,1157.5 L367.5781,1195 L367.7734,1161.667 L367.9688,1165.833 L368.1641,1174.167 L368.3594,1153.333 L368.5547,1174.167 L368.75,1145 L368.9453,1207.5 L369.1407,1161.667 L369.3359,1132.5 L369.5313,1165.833 L369.7266,1161.667 L369.9219,1178.333 L370.1172,1195 L370.3125,1170 L370.5078,1161.667 L370.7031,1182.5 L370.8984,1178.333 L371.0938,1190.833 L371.2891,1161.667 L371.4844,1186.667 L371.6797,1186.667 L371.875,1165.833 L372.0703,1190.833 L372.2656,1174.167 L372.4609,1182.5 L372.6563,1170 L372.8516,1157.5 L373.0469,1178.333 L373.2422,1199.167 L373.4375,1128.333 L373.6328,1203.333 L373.8281,1165.833 L374.0235,1132.5 L374.2188,1190.833 L374.4141,1178.333 L374.6094,1149.167 L374.8047,1120 L375,1203.333 L375.1953,1190.833 L375.3906,1190.833 L375.5859,1195 L375.7813,1165.833 L375.9766,1186.667 L376.1719,1124.167 L376.3672,1186.667 L376.5625,1170 L376.7578,1165.833 L376.9532,1207.5 L377.1484,1182.5 L377.3438,1215.833 L377.5391,1120 L377.7344,1178.333 L377.9297,1186.667 L378.125,1178.333 L378.3203,1157.5 L378.5156,1178.333 L378.7109,1161.667 L378.9063,1174.167 L379.1016,1174.167 L379.2969,1161.667 L379.4922,1170 L379.6875,1178.333 L379.8828,1157.5 L380.0781,1178.333 L380.2734,1174.167 L380.4688,1157.5 L380.6641,1199.167 L380.8594,1174.167 L381.0547,1170 L381.25,1182.5 L381.4453,1174.167 L381.6406,1170 L381.836,1199.167 L382.0313,1186.667 L382.2266,1195 L382.4219,1182.5 L382.6172,1207.5 L382.8125,1178.333 L383.0078,1182.5 L383.2031,1182.5 L383.3984,1095 L383.5938,1161.667 L383.7891,1182.5 L383.9844,1136.667 L384.1797,1140.833 L384.375,1157.5 L384.5703,1165.833 L384.7657,1103.333 L384.9609,1178.333 L385.1563,1165.833 L385.3516,1111.667 L385.5469,1174.167 L385.7422,1178.333 L385.9375,1161.667 L386.1328,1132.5 L386.3281,1170 L386.5234,1190.833 L386.7188,1136.667 L386.9141,1161.667 L387.1094,1111.667 L387.3047,1170 L387.5,1186.667 L387.6953,1174.167 L387.8906,1174.167 L388.0859,1174.167 L388.2813,1111.667 L388.4766,1178.333 L388.6719,1186.667 L388.8672,1186.667 L389.0625,1165.833 L389.2578,1170 L389.4531,1170 L389.6485,1186.667 L389.8438,1174.167 L390.0391,1161.667 L390.2344,1178.333 L390.4297,1182.5 L390.625,1161.667 L390.8203,1140.833 L391.0156,1170 L391.2109,1182.5 L391.4063,1182.5 L391.6016,1170 L391.7969,1140.833 L391.9922,1174.167 L392.1875,1178.333 L392.3828,1128.333 L392.5782,1170 L392.7734,1174.167 L392.9688,1178.333 L393.1641,1157.5 L393.3594,1170 L393.5547,1161.667 L393.75,1174.167 L393.9453,1145 L394.1406,1186.667 L394.3359,1170 L394.5313,1165.833 L394.7266,1182.5 L394.9219,1170 L395.1172,1174.167 L395.3125,1136.667 L395.5078,1190.833 L395.7031,1170 L395.8984,1161.667 L396.0938,1153.333 L396.2891,1136.667 L396.4844,1178.333 L396.6797,1124.167 L396.875,1161.667 L397.0703,1178.333 L397.2656,1190.833 L397.461,1178.333 L397.6563,1174.167 L397.8516,1182.5 L398.0469,1190.833 L398.2422,1178.333 L398.4375,1170 L398.6328,1132.5 L398.8281,1199.167 L399.0234,1165.833 L399.2188,1178.333 L399.4141,1178.333 L399.6094,1203.333 L399.8047,1207.5 L400,1165.833 L400.1953,1186.667 L400.3907,1182.5 L400.5859,1174.167 L400.7813,1157.5 L400.9766,1178.333 L401.1719,1174.167 L401.3672,1124.167 L401.5625,1178.333 L401.7578,1161.667 L401.9531,1174.167 L402.1484,1140.833 L402.3438,1182.5 L402.5391,1153.333 L402.7344,1178.333 L402.9297,1182.5 L403.125,1178.333 L403.3203,1136.667 L403.5156,1103.333 L403.7109,1190.833 L403.9063,1182.5 L404.1016,1161.667 L404.2969,1178.333 L404.4922,1170 L404.6875,1165.833 L404.8828,1203.333 L405.0781,1186.667 L405.2735,1215.833 L405.4688,1195 L405.6641,1170 L405.8594,1195 L406.0547,1161.667 L406.25,1124.167 L406.4453,1132.5 L406.6406,1195 L406.8359,1165.833 L407.0313,1161.667 L407.2266,1165.833 L407.4219,1203.333 L407.6172,1170 L407.8125,1195 L408.0078,1170 L408.2032,1215.833 L408.3984,1161.667 L408.5938,1182.5 L408.7891,1174.167 L408.9844,1149.167 L409.1797,1199.167 L409.375,1178.333 L409.5703,1170 L409.7656,1170 L409.9609,1182.5 L410.1563,1178.333 L410.3516,1190.833 L410.5469,1174.167 L410.7422,1082.5 L410.9375,1165.833 L411.1328,1111.667 L411.3281,1086.667 L411.5234,1195 L411.7188,1220 L411.9141,1178.333 L412.1094,1182.5 L412.3047,1182.5 L412.5,1161.667 L412.6953,1174.167 L412.8906,1211.667 L413.086,1165.833 L413.2813,1145 L413.4766,1170 L413.6719,1149.167 L413.8672,1195 L414.0625,1174.167 L414.2578,1199.167 L414.4531,1165.833 L414.6484,1174.167 L414.8438,1165.833 L415.0391,1186.667 L415.2344,1174.167 L415.4297,1136.667 L415.625,1161.667 L415.8203,1115.833 L416.0157,1182.5 L416.2109,1170 L416.4063,1165.833 L416.6016,1165.833 L416.7969,1170 L416.9922,1145 L417.1875,1165.833 L417.3828,1207.5 L417.5781,1136.667 L417.7734,1170 L417.9688,1174.167 L418.1641,1165.833 L418.3594,1170 L418.5547,1203.333 L418.75,1140.833 L418.9453,1203.333 L419.1406,1182.5 L419.3359,1145 L419.5313,1170 L419.7266,1161.667 L419.9219,1170 L420.1172,1182.5 L420.3125,1170 L420.5078,1190.833 L420.7031,1178.333 L420.8985,1182.5 L421.0938,1170 L421.2891,1170 L421.4844,1165.833 L421.6797,1165.833 L421.875,1115.833 L422.0703,1165.833 L422.2656,1170 L422.4609,1153.333 L422.6563,1199.167 L422.8516,1207.5 L423.0469,1174.167 L423.2422,1178.333 L423.4375,1186.667 L423.6328,1207.5 L423.8282,1170 L424.0234,1182.5 L424.2188,1170 L424.4141,1090.833 L424.6094,1170 L424.8047,1170 L425,1182.5 L425.1953,1211.667 L425.3906,1174.167 L425.5859,1174.167 L425.7813,1174.167 L425.9766,1161.667 L426.1719,1170 L426.3672,1174.167 L426.5625,1170 L426.7578,1199.167 L426.9531,1157.5 L427.1484,1153.333 L427.3438,1178.333 L427.5391,1153.333 L427.7344,1161.667 L427.9297,1149.167 L428.125,1165.833 L428.3203,1190.833 L428.5156,1182.5 L428.711,1132.5 L428.9063,1153.333 L429.1016,1174.167 L429.2969,1190.833 L429.4922,1165.833 L429.6875,1170 L429.8828,1178.333 L430.0781,1170 L430.2734,1186.667 L430.4688,1165.833 L430.6641,1195 L430.8594,1190.833 L431.0547,1199.167 L431.25,1161.667 L431.4453,1190.833 L431.6407,1186.667 L431.8359,1174.167 L432.0313,1182.5 L432.2266,1136.667 L432.4219,1157.5 L432.6172,1199.167 L432.8125,1195 L433.0078,1174.167 L433.2031,1161.667 L433.3984,1145 L433.5938,1124.167 L433.7891,1161.667 L433.9844,1107.5 L434.1797,1165.833 L434.375,1170 L434.5703,1211.667 L434.7656,1157.5 L434.9609,1186.667 L435.1563,1161.667 L435.3516,1174.167 L435.5469,1207.5 L435.7422,1178.333 L435.9375,1186.667 L436.1328,1195 L436.3281,1124.167 L436.5235,1170 L436.7188,1115.833 L436.9141,1186.667 L437.1094,1165.833 L437.3047,1170 L437.5,1161.667 L437.6953,1161.667 L437.8906,1178.333 L438.0859,1182.5 L438.2813,1199.167 L438.4766,1161.667 L438.6719,1178.333 L438.8672,1174.167 L439.0625,1170 L439.2578,1215.833 L439.4532,1190.833 L439.6484,1165.833 L439.8438,1153.333 L440.0391,1161.667 L440.2344,1170 L440.4297,1190.833 L440.625,1178.333 L440.8203,1124.167 L441.0156,1120 L441.2109,1186.667 L441.4063,1153.333 L441.6016,1161.667 L441.7969,1199.167 L441.9922,1186.667 L442.1875,1153.333 L442.3828,1207.5 L442.5781,1124.167 L442.7734,1170 L442.9688,1170 L443.1641,1165.833 L443.3594,1186.667 L443.5547,1170 L443.75,1153.333 L443.9453,1207.5 L444.1406,1136.667 L444.336,1165.833 L444.5313,1186.667 L444.7266,1165.833 L444.9219,1136.667 L445.1172,1120 L445.3125,1207.5 L445.5078,1157.5 L445.7031,1136.667 L445.8984,1174.167 L446.0938,1199.167 L446.2891,1165.833 L446.4844,1174.167 L446.6797,1170 L446.875,1190.833 L447.0703,1182.5 L447.2657,1170 L447.4609,1157.5 L447.6563,1153.333 L447.8516,1220 L448.0469,1165.833 L448.2422,1182.5 L448.4375,1186.667 L448.6328,1186.667 L448.8281,1174.167 L449.0234,1136.667 L449.2188,1199.167 L449.4141,1157.5 L449.6094,1170 L449.8047,1111.667 L450,1195 L450.1953,1149.167 L450.3906,1174.167 L450.5859,1178.333 L450.7813,1190.833 L450.9766,1157.5 L451.1719,1170 L451.3672,1178.333 L451.5625,1161.667 L451.7578,1199.167 L451.9531,1186.667 L452.1485,1195 L452.3438,1128.333 L452.5391,1174.167 L452.7344,1103.333 L452.9297,1170 L453.125,1165.833 L453.3203,1182.5 L453.5156,1145 L453.7109,1136.667 " stroke="blue" fill="none" />
<text x="50" y="1270" font-family="Arial" font-size="12" fill="black">Policy Loss</text>
<text x="50" y="1285" font-family="Arial" font-size="10" fill="black">0.8454386</text>
<text x="50" y="1500" font-family="Arial" font-size="10" fill="black">0.7848081</text>
<path d="M50,1369.026 L75,1290 L100,1490 " stroke="blue" fill="none" />
<text x="50" y="1540" font-family="Arial" font-size="12" fill="black">Value Loss</text>
<text x="50" y="1555" font-family="Arial" font-size="10" fill="black">0.01009788</text>
<text x="50" y="1770" font-family="Arial" font-size="10" fill="black">0.002916219</text>
<path d="M50,1560 L75,1733.846 L100,1760 " stroke="blue" fill="none" />
<text x="50" y="1810" font-family="Arial" font-size="12" fill="black">Learning Rate</text>
<text x="50" y="1825" font-family="Arial" font-size="10" fill="black">0.0001</text>
<text x="50" y="2040" font-family="Arial" font-size="10" fill="black">0.0001</text>
<path d="M50,2030 L75,2030 L100,2030 " stroke="blue" fill="none" />
<text x="50" y="2080" font-family="Arial" font-size="12" fill="black">Entropy</text>
<text x="50" y="2095" font-family="Arial" font-size="10" fill="black">1.509434</text>
<text x="50" y="2310" font-family="Arial" font-size="10" fill="black">1.5</text>
<path d="M50,2300 L75,2101.241 L100,2100 " stroke="blue" fill="none" />
<text x="750" y="730" font-family="Arial" font-size="12" fill="black">Simplified</text>
<text x="750" y="745" font-family="Arial" font-size="10" fill="black">0.5671579</text>
<text x="750" y="960" font-family="Arial" font-size="10" fill="black">0.4226842</text>
<path d="M753.5156,906.6486 L757.2266,750 L760.9375,862.9328 L764.6484,813.0237 L768.3594,847.6321 L772.0703,908.47 L775.7813,814.481 L779.4922,890.9837 L783.2031,886.9764 L786.9141,826.1384 L790.625,877.1403 L794.3359,829.0529 L798.0469,903.7341 L801.7578,869.8545 L805.4688,889.8908 L809.1797,843.6249 L812.8906,880.4191 L816.6016,809.0165 L820.3125,851.6394 L824.0234,866.2115 L827.7344,884.7906 L831.4453,857.1039 L835.1563,905.9199 L838.8672,894.6266 L842.5781,844.7177 L846.2891,869.8543 L850,886.6121 L853.7109,900.8198 L857.4219,920.4918 L861.1328,867.6686 L864.8438,864.7543 L868.5547,838.5247 L872.2656,867.3043 L875.9766,856.3754 L879.6875,829.7815 L883.3984,888.7979 L887.1094,876.0474 L890.8203,885.8835 L894.5313,845.4463 L898.2422,851.2752 L901.9531,887.3408 L905.6641,852.368 L909.375,908.8344 L913.0859,882.2405 L916.7969,869.1258 L920.5078,924.8635 L924.2188,859.2897 L927.9297,894.6268 L931.6406,883.6977 L935.3516,843.2606 L939.0625,868.3972 L942.7734,901.5484 L946.4844,843.6249 L950.1953,897.5411 L953.9063,896.0839 L957.6172,950 L961.3281,893.5338 L965.0391,869.8543 L968.75,877.1402 L972.4609,878.2333 L976.1719,865.4828 L979.8828,876.4117 L983.5938,845.4463 L987.3047,884.7906 L991.0156,849.0894 L994.7266,894.6266 L998.4375,841.8035 L1002.148,890.2551 L1005.859,896.8124 L1009.57,882.2405 L1013.281,862.204 L1016.992,917.9418 L1020.703,864.7542 L1024.414,880.7834 L1028.125,924.1348 L1031.836,898.2697 L1035.547,925.2278 L1039.258,900.4555 L1042.969,894.2624 L1046.68,939.7997 L1050.391,938.7068 L1054.102,935.4282 L1057.813,880.4191 L1061.523,862.2041 L1065.234,903.3698 L1068.945,835.246 L1072.656,900.0911 L1076.367,917.5775 L1080.078,905.5556 L1083.789,916.1202 L1087.5,808.288 L1091.211,872.4044 L1094.922,857.1038 L1098.633,877.5046 L1102.344,901.5483 L1106.055,890.2551 L1109.766,871.6758 L1113.477,855.2825 L1117.188,850.1823 L1120.898,911.7488 L1124.609,881.8763 L1128.32,892.441 L1132.031,926.685 L1135.742,840.3463 L1139.453,910.2915 L1143.164,848.3607 L1146.875,886.6121 L1150.586,868.7614 L1153.711,840.0274 " stroke="blue" fill="none" />
<text x="750" y="1000" font-family="Arial" font-size="12" fill="black">Simplified</text>
<text x="750" y="1015" font-family="Arial" font-size="10" fill="black">36.36842</text>
<text x="750" y="1230" font-family="Arial" font-size="10" fill="black">29.21053</text>
<path d="M753.5156,1220 L757.2266,1020 L760.9375,1147.941 L764.6484,1078.823 L768.3594,1108.235 L772.0703,1155.294 L775.7813,1084.706 L779.4922,1172.941 L783.2031,1134.706 L786.9141,1087.647 L790.625,1117.059 L794.3359,1121.471 L798.0469,1158.235 L801.7578,1153.823 L805.4688,1146.471 L809.1797,1114.118 L812.8906,1152.353 L816.6016,1084.706 L820.3125,1124.412 L824.0234,1161.176 L827.7344,1147.941 L831.4453,1124.412 L835.1563,1167.059 L838.8672,1143.529 L842.5781,1118.529 L846.2891,1109.706 L850,1133.235 L853.7109,1168.529 L857.4219,1181.765 L861.1328,1100.882 L864.8438,1155.294 L868.5547,1115.588 L872.2656,1121.471 L875.9766,1121.471 L879.6875,1102.353 L883.3984,1164.118 L887.1094,1156.765 L890.8203,1130.294 L894.5313,1099.412 L898.2422,1145 L901.9531,1158.235 L905.6641,1105.294 L909.375,1156.765 L913.0859,1137.647 L916.7969,1172.941 L920.5078,1177.353 L924.2188,1155.294 L927.9297,1187.647 L931.6406,1165.588 L935.3516,1112.647 L939.0625,1125.882 L942.7734,1193.529 L946.4844,1136.177 L950.1953,1155.294 L953.9063,1127.353 L957.6172,1212.647 L961.3281,1183.235 L965.0391,1153.823 L968.75,1117.059 L972.4609,1143.529 L976.1719,1136.177 L979.8828,1114.118 L983.5938,1099.412 L987.3047,1147.941 L991.0156,1092.059 L994.7266,1143.529 L998.4375,1150.882 L1002.148,1147.941 L1005.859,1152.353 L1009.57,1159.706 L1013.281,1167.059 L1016.992,1171.471 L1020.703,1111.176 L1024.414,1131.765 L1028.125,1196.471 L1031.836,1158.235 L1035.547,1200.882 L1039.258,1145 L1042.969,1164.118 L1046.68,1193.529 L1050.391,1189.118 L1054.102,1197.941 L1057.813,1174.412 L1061.523,1122.941 L1065.234,1178.823 L1068.945,1080.294 L1072.656,1165.588 L1076.367,1147.941 L1080.078,1165.588 L1083.789,1186.176 L1087.5,1037.647 L1091.211,1142.059 L1094.922,1124.412 L1098.633,1118.529 L1102.344,1171.471 L1106.055,1170 L1109.766,1161.176 L1113.477,1117.059 L1117.188,1118.529 L1120.898,1168.529 L1124.609,1136.177 L1128.32,1156.765 L1132.031,1184.706 L1135.742,1122.941 L1139.453,1162.647 L1143.164,1111.176 L1146.875,1133.235 L1150.586,1149.412 L1153.711,1110.625 " stroke="blue" fill="none" />
</svg>
