<svg width="2000" height="2500" xmlns="http://www.w3.org/2000/svg">
<text x="10" y="20" font-family="Arial" font-size="26" fill="black"> [Walker] Training Session</text>
<text x="10" y="50" font-family="Arial" font-size="16" fill="black">[Statistics]</text>
<text x="50" y="70" font-family="Arial" font-size="12" fill="black">Started at: 12:38:36 PM, Saturday, March 9, 2024</text>
<text x="50" y="90" font-family="Arial" font-size="12" fill="black">Finished at: 12:39:54 PM, Saturday, March 9, 2024</text>
<text x="50" y="110" font-family="Arial" font-size="12" fill="black">Training Session Time: 0 hrs : 0 min : 57 sec</text>
<text x="50" y="130" font-family="Arial" font-size="12" fill="black">Inference Time: 0 hrs : 18 min : 31 sec        [Device: CPU]</text>
<text x="50" y="150" font-family="Arial" font-size="12" fill="black">Update Time: 0 hrs : 0 min : 27 sec        [Per iteration: 0 hrs : 0 min : 12.381 sec]        [Device: GPU]</text>
<text x="50" y="170" font-family="Arial" font-size="12" fill="black">Episode Count: 548</text>
<text x="50" y="190" font-family="Arial" font-size="12" fill="black">Inference Steps: 20480</text>
<text x="50" y="210" font-family="Arial" font-size="12" fill="black">Iterations: 2</text>
<text x="50" y="230" font-family="Arial" font-size="12" fill="black">Parallel Agents: 40</text>
<text x="50" y="250" font-family="Arial" font-size="12" fill="black">Timescale: 1</text>
<text x="50" y="270" font-family="Arial" font-size="12" fill="black">Trainer: PPO</text>
<text x="10" y="320" font-family="Arial" font-size="16" fill="black">[Hyperparameters]</text>
<text x="50" y="340" font-family="Arial" font-size="12" fill="black">Buffer Size: 10240        [Batch Size: 512       (x20)]</text>
<text x="50" y="360" font-family="Arial" font-size="12" fill="black">Num Epoch: 8</text>
<text x="50" y="380" font-family="Arial" font-size="12" fill="black">Time Horizon: 256</text>
<text x="50" y="400" font-family="Arial" font-size="12" fill="black">Gradient Cliping by Norm: 0.5</text>
<text x="50" y="420" font-family="Arial" font-size="12" fill="black">Learning Rate Schedule: False    </text>
<text x="10" y="470" font-family="Arial" font-size="16" fill="black">[Behaviour]</text>
<text x="50" y="490" font-family="Arial" font-size="12" fill="black">Space Size: 120</text>
<text x="50" y="510" font-family="Arial" font-size="12" fill="black">Continuous Actions: 36 [Standard Deviation: Fixed]     [Value: 0.2]</text>
<text x="50" y="530" font-family="Arial" font-size="12" fill="black">Discrete Actions: 0</text>
<text x="50" y="550" font-family="Arial" font-size="12" fill="black">TargetFPS: 100 (physics update rate)</text>
<text x="50" y="570" font-family="Arial" font-size="12" fill="black">Observations Normalization: True</text>
<text x="10" y="620" font-family="Arial" font-size="16" fill="black">[Decision Requester]</text>
<text x="50" y="640" font-family="Arial" font-size="12" fill="black">Max Step: 10000</text>
<text x="50" y="660" font-family="Arial" font-size="12" fill="black">Decision Period: 5      [Actions Between Decisions: True]</text>
<text x="10" y="710" font-family="Arial" font-size="16" fill="black">[Graphs]</text>
<text x="50" y="730" font-family="Arial" font-size="12" fill="black">Episode Reward (548)</text>
<text x="50" y="745" font-family="Arial" font-size="10" fill="black">0.9589999</text>
<text x="50" y="960" font-family="Arial" font-size="10" fill="black">0.259</text>
<path d="M50,848.5714 L50.78125,848.5714 L51.5625,845.7143 L52.34375,845.7143 L53.125,844.2857 L53.90625,844.2857 L54.6875,842.8571 L55.46875,840 L56.25,817.1429 L57.03125,817.1429 L57.8125,817.1429 L58.59375,815.7143 L59.375,815.7143 L60.15625,815.7143 L60.9375,814.2857 L61.71875,814.2857 L62.5,814.2857 L63.28125,791.4286 L64.0625,812.8572 L64.84375,812.8572 L65.625,812.8572 L66.40625,812.8572 L67.1875,812.8572 L67.96875,812.8572 L68.75,790 L69.53125,790 L70.3125,811.4286 L71.09375,810 L71.875,788.5715 L72.65625,788.5715 L73.4375,788.5715 L74.21875,787.1429 L75,787.1429 L75.78125,808.5715 L76.5625,808.5715 L77.34375,787.1429 L78.125,785.7143 L78.90625,785.7143 L79.6875,784.2858 L80.46875,798.5715 L81.25,848.5714 L82.03125,847.1429 L82.8125,847.1429 L83.59375,871.4286 L84.375,891.4286 L85.15625,871.4286 L85.9375,872.8571 L86.71875,815.7143 L87.5,871.4286 L88.28125,847.1429 L89.0625,814.2857 L89.84375,871.4286 L90.625,868.5714 L91.40625,814.2857 L92.1875,844.2857 L92.96875,872.8571 L93.75,864.2857 L94.53125,845.7143 L95.3125,865.7143 L96.09375,870 L96.875,788.5714 L97.65625,844.2857 L98.4375,791.4286 L99.21875,862.8571 L100,818.5714 L100.7813,840 L101.5625,812.8572 L102.3438,815.7143 L103.125,815.7143 L103.9063,861.4286 L104.6875,871.4286 L105.4688,837.1429 L106.25,814.2857 L107.0313,791.4286 L107.8125,791.4286 L108.5938,808.5715 L109.375,812.8572 L110.1563,811.4286 L110.9375,752.8572 L111.7188,751.4286 L112.5,867.1429 L113.2813,871.4286 L114.0625,865.7143 L114.8438,870 L115.625,842.8571 L116.4063,845.7143 L117.1875,865.7143 L117.9688,868.5714 L118.75,791.4286 L119.5313,845.7143 L120.3125,871.4286 L121.0938,845.7143 L121.875,870 L122.6563,790 L123.4375,815.7143 L124.2188,811.4286 L125,790 L125.7813,840 L126.5625,817.1429 L127.3438,867.1429 L128.125,870 L128.9063,814.2857 L129.6875,867.1429 L130.4688,788.5715 L131.25,792.8571 L132.0313,870 L132.8125,810 L133.5938,868.5714 L134.375,810 L135.1563,787.1429 L135.9375,791.4286 L136.7188,808.5714 L137.5,810 L138.2813,787.1429 L139.0625,791.4286 L139.8438,868.5714 L140.625,848.5715 L141.4063,814.2857 L142.1875,812.8571 L142.9688,870 L143.75,817.1429 L144.5313,848.5714 L145.3125,848.5714 L146.0938,891.4286 L146.875,871.4286 L147.6563,845.7143 L148.4375,868.5714 L149.2188,870 L150,850 L150.7813,871.4286 L151.5625,845.7143 L152.3438,791.4286 L153.125,790 L153.9063,868.5714 L154.6875,872.8571 L155.4688,817.1429 L156.25,870 L157.0313,868.5714 L157.8125,847.1429 L158.5938,818.5714 L159.375,815.7143 L160.1563,812.8571 L160.9375,871.4286 L161.7188,790 L162.5,871.4286 L163.2813,870 L164.0625,790 L164.8438,847.1429 L165.625,871.4286 L166.4063,814.2857 L167.1875,814.2857 L167.9688,811.4286 L168.75,820 L169.5313,844.2857 L170.3125,871.4286 L171.0938,808.5714 L171.875,787.1429 L172.6563,788.5715 L173.4375,870 L174.2188,812.8572 L175,811.4286 L175.7813,845.7143 L176.5625,838.5714 L177.3438,814.2857 L178.125,870 L178.9063,844.2857 L179.6875,842.8571 L180.4688,788.5714 L181.25,867.1429 L182.0313,842.8571 L182.8125,812.8572 L183.5938,814.2857 L184.375,842.8571 L185.1563,870 L185.9375,848.5714 L186.7188,841.4286 L187.5,815.7143 L188.2813,841.4286 L189.0625,870 L189.8438,894.2857 L190.625,868.5714 L191.4063,871.4286 L192.1875,868.5714 L192.9688,845.7143 L193.75,814.2857 L194.5313,865.7143 L195.3125,871.4286 L196.0938,841.4286 L196.875,815.7143 L197.6563,814.2857 L198.4375,815.7143 L199.2188,814.2857 L200,870 L200.7813,808.5715 L201.5625,818.5714 L202.3438,832.8572 L203.125,817.1429 L203.9063,790 L204.6875,814.2857 L205.4688,787.1429 L206.25,868.5714 L207.0313,810 L207.8125,897.1429 L208.5938,815.7143 L209.375,791.4286 L210.1563,841.4286 L210.9375,845.7143 L211.7188,870 L212.5,868.5714 L213.2813,842.8571 L214.0625,927.1428 L214.8438,870 L215.625,840 L216.4063,840 L217.1875,870 L217.9688,845.7143 L218.75,892.8571 L219.5313,812.8572 L220.3125,872.8571 L221.0938,844.2857 L221.875,814.2857 L222.6563,812.8571 L223.4375,807.1429 L224.2188,845.7143 L225,810 L225.7813,820 L226.5625,842.8571 L227.3438,870 L228.125,831.4286 L228.9063,817.1428 L229.6875,814.2857 L230.4688,871.4286 L231.25,814.2857 L232.0313,790 L232.8125,832.8572 L233.5938,811.4286 L234.375,788.5715 L235.1563,817.1429 L235.9375,927.1428 L236.7188,818.5714 L237.5,815.7143 L238.2813,837.1429 L239.0625,815.7143 L239.8438,872.8571 L240.625,812.8572 L241.4063,845.7143 L242.1875,790 L242.9688,841.4286 L243.75,870 L244.5313,847.1429 L245.3125,782.8571 L246.0938,867.1429 L246.875,787.1429 L247.6563,865.7143 L248.4375,817.1429 L249.2188,810 L250,797.1429 L250.7813,872.8571 L251.5625,778.5714 L252.3438,791.4286 L253.125,811.4286 L253.9063,867.1429 L254.6875,838.5714 L255.4688,790 L256.25,845.7143 L257.0313,790 L257.8125,817.1429 L258.5938,838.5714 L259.375,868.5714 L260.1563,818.5714 L260.9375,790 L261.7188,775.7143 L262.5,815.7143 L263.2813,810 L264.0625,862.8571 L264.8438,835.7143 L265.625,844.2857 L266.4063,871.4286 L267.1875,817.1428 L267.9688,781.4286 L268.75,847.1429 L269.5313,864.2857 L270.3125,847.1429 L271.0938,840 L271.875,812.8572 L272.6563,814.2857 L273.4375,870 L274.2188,817.1429 L275,778.5715 L275.7813,845.7143 L276.5625,810 L277.3438,790 L278.125,841.4286 L278.9063,788.5715 L279.6875,835.7143 L280.4688,871.4286 L281.25,870 L282.0313,871.4286 L282.8125,814.2857 L283.5938,840 L284.375,818.5714 L285.1563,814.2857 L285.9375,788.5715 L286.7188,814.2857 L287.5,811.4286 L288.2813,871.4286 L289.0625,812.8572 L289.8438,818.5714 L290.625,812.8572 L291.4063,868.5714 L292.1875,867.1429 L292.9688,868.5714 L293.75,875.7143 L294.5313,834.2857 L295.3125,818.5714 L296.0938,790 L296.875,812.8572 L297.6563,811.4286 L298.4375,868.5714 L299.2188,818.5714 L300,870 L300.7813,812.8572 L301.5625,842.8571 L302.3438,788.5715 L303.125,871.4286 L303.9063,831.4286 L304.6875,785.7143 L305.4688,791.4286 L306.25,870 L307.0313,845.7143 L307.8125,815.7143 L308.5938,820 L309.375,812.8572 L310.1563,750 L310.9375,840 L311.7188,871.4286 L312.5,811.4286 L313.2813,817.1429 L314.0625,812.8572 L314.8438,818.5714 L315.625,892.8571 L316.4063,835.7143 L317.1875,817.1428 L317.9688,810 L318.75,842.8571 L319.5313,814.2857 L320.3125,870 L321.0938,872.8571 L321.875,867.1429 L322.6563,788.5714 L323.4375,867.1429 L324.2188,785.7143 L325,845.7143 L325.7813,868.5714 L326.5625,814.2857 L327.3438,847.1429 L328.125,815.7143 L328.9063,812.8572 L329.6875,814.2857 L330.4688,841.4286 L331.25,867.1429 L332.0313,868.5714 L332.8125,770 L333.5938,868.5714 L334.375,841.4286 L335.1563,844.2857 L335.9375,871.4286 L336.7188,782.8572 L337.5,844.2857 L338.2813,817.1429 L339.0625,785.7143 L339.8438,791.4286 L340.625,792.8572 L341.4063,810 L342.1875,871.4286 L342.9688,790 L343.75,818.5714 L344.5313,844.2857 L345.3125,818.5714 L346.0938,815.7143 L346.875,787.1429 L347.6563,815.7143 L348.4375,782.8572 L349.2188,815.7143 L350,814.2857 L350.7813,838.5714 L351.5625,812.8572 L352.3438,811.4286 L353.125,811.4286 L353.9063,790 L354.6875,814.2857 L355.4688,865.7143 L356.25,817.1429 L357.0313,894.2857 L357.8125,842.8571 L358.5938,845.7143 L359.375,815.7143 L360.1563,847.1429 L360.9375,867.1429 L361.7188,950 L362.5,791.4286 L363.2813,818.5714 L364.0625,842.8571 L364.8438,871.4286 L365.625,871.4286 L366.4063,781.4286 L367.1875,842.8571 L367.9688,871.4286 L368.75,788.5715 L369.5313,815.7143 L370.3125,812.8572 L371.0938,792.8571 L371.875,815.7143 L372.6563,811.4286 L373.4375,791.4286 L374.2188,798.5715 L375,791.4286 L375.7813,820 L376.5625,841.4286 L377.3438,778.5715 L378.125,788.5715 L378.9063,867.1429 L379.6875,847.1429 L380.4688,890 L381.25,808.5715 L382.0313,811.4286 L382.8125,872.8571 L383.5938,870 L384.375,812.8572 L385.1563,842.8571 L385.9375,815.7143 L386.7188,870 L387.5,817.1428 L388.2813,817.1429 L389.0625,841.4286 L389.8438,868.5714 L390.625,817.1429 L391.4063,817.1429 L392.1875,787.1429 L392.9688,787.1429 L393.75,870 L394.5313,790 L395.3125,815.7143 L396.0938,872.8571 L396.875,867.1429 L397.6563,774.2858 L398.4375,872.8571 L399.2188,787.1429 L400,790 L400.7813,838.5714 L401.5625,807.1429 L402.3438,841.4286 L403.125,870 L403.9063,842.8571 L404.6875,848.5714 L405.4688,870 L406.25,814.2857 L407.0313,847.1429 L407.8125,868.5714 L408.5938,811.4286 L409.375,841.4286 L410.1563,791.4286 L410.9375,817.1429 L411.7188,847.1429 L412.5,868.5714 L413.2813,868.5714 L414.0625,790 L414.8438,810 L415.625,810 L416.4063,818.5714 L417.1875,815.7143 L417.9688,810 L418.75,790 L419.5313,812.8572 L420.3125,842.8571 L421.0938,872.8571 L421.875,815.7143 L422.6563,887.1429 L423.4375,840 L424.2188,874.2857 L425,845.7143 L425.7813,874.2857 L426.5625,812.8572 L427.3438,817.1429 L428.125,790 L428.9063,811.4286 L429.6875,871.4286 L430.4688,865.7143 L431.25,868.5714 L432.0313,868.5714 L432.8125,814.2857 L433.5938,868.5714 L434.375,841.4286 L435.1563,840 L435.9375,870 L436.7188,791.4286 L437.5,842.8571 L438.2813,867.1429 L439.0625,788.5715 L439.8438,867.1429 L440.625,790 L441.4063,817.1429 L442.1875,862.8571 L442.9688,842.8571 L443.75,848.5714 L444.5313,812.8572 L445.3125,791.4286 L446.0938,834.2857 L446.875,817.1429 L447.6563,828.5715 L448.4375,790 L449.2188,818.5714 L450,871.4286 L450.7813,854.2857 L451.5625,754.2857 L452.3438,812.8572 L453.125,891.4286 L453.9063,838.5714 L454.6875,868.5714 L455.4688,871.4286 L456.25,778.5715 L457.0313,845.7143 L457.8125,815.7143 L458.5938,845.7143 L459.375,842.8571 L460.1563,817.1428 L460.9375,817.1429 L461.7188,790 L462.5,791.4286 L463.2813,784.2857 L464.0625,925.7143 L464.8438,810 L465.625,817.1429 L466.4063,870 L467.1875,811.4286 L467.9688,847.1429 L468.75,808.5715 L469.5313,925.7143 L470.3125,815.7143 L471.0938,817.1429 L471.875,785.7143 L472.6563,888.5714 L473.4375,871.4286 L474.2188,814.2857 L475,871.4286 L475.7813,812.8572 L476.5625,831.4286 L477.3438,790 " stroke="blue" fill="none" />
<text x="50" y="1000" font-family="Arial" font-size="12" fill="black">Episode Length (548)</text>
<text x="50" y="1015" font-family="Arial" font-size="10" fill="black">70</text>
<text x="50" y="1230" font-family="Arial" font-size="10" fill="black">22</text>
<path d="M50,1178.333 L50.78125,1178.333 L51.5625,1170 L52.34375,1170 L53.125,1165.833 L53.90625,1165.833 L54.6875,1161.667 L55.46875,1153.333 L56.25,1149.167 L57.03125,1149.167 L57.8125,1149.167 L58.59375,1145 L59.375,1145 L60.15625,1145 L60.9375,1140.833 L61.71875,1140.833 L62.5,1140.833 L63.28125,1136.667 L64.0625,1136.667 L64.84375,1136.667 L65.625,1136.667 L66.40625,1136.667 L67.1875,1136.667 L67.96875,1136.667 L68.75,1132.5 L69.53125,1132.5 L70.3125,1132.5 L71.09375,1128.333 L71.875,1128.333 L72.65625,1128.333 L73.4375,1128.333 L74.21875,1124.167 L75,1124.167 L75.78125,1124.167 L76.5625,1124.167 L77.34375,1124.167 L78.125,1120 L78.90625,1120 L79.6875,1115.833 L80.46875,1095 L81.25,1174.167 L82.03125,1170 L82.8125,1170 L83.59375,1178.333 L84.375,1174.167 L85.15625,1178.333 L85.9375,1182.5 L86.71875,1140.833 L87.5,1178.333 L88.28125,1170 L89.0625,1136.667 L89.84375,1178.333 L90.625,1170 L91.40625,1136.667 L92.1875,1161.667 L92.96875,1182.5 L93.75,1157.5 L94.53125,1165.833 L95.3125,1161.667 L96.09375,1174.167 L96.875,1124.167 L97.65625,1161.667 L98.4375,1132.5 L99.21875,1153.333 L100,1149.167 L100.7813,1149.167 L101.5625,1132.5 L102.3438,1140.833 L103.125,1140.833 L103.9063,1149.167 L104.6875,1178.333 L105.4688,1140.833 L106.25,1136.667 L107.0313,1132.5 L107.8125,1132.5 L108.5938,1120 L109.375,1132.5 L110.1563,1128.333 L110.9375,1082.5 L111.7188,1078.333 L112.5,1165.833 L113.2813,1178.333 L114.0625,1161.667 L114.8438,1174.167 L115.625,1157.5 L116.4063,1165.833 L117.1875,1161.667 L117.9688,1170 L118.75,1132.5 L119.5313,1165.833 L120.3125,1178.333 L121.0938,1165.833 L121.875,1174.167 L122.6563,1128.333 L123.4375,1140.833 L124.2188,1128.333 L125,1128.333 L125.7813,1149.167 L126.5625,1145 L127.3438,1165.833 L128.125,1174.167 L128.9063,1136.667 L129.6875,1165.833 L130.4688,1124.167 L131.25,1136.667 L132.0313,1174.167 L132.8125,1124.167 L133.5938,1170 L134.375,1124.167 L135.1563,1120 L135.9375,1132.5 L136.7188,1120 L137.5,1124.167 L138.2813,1120 L139.0625,1132.5 L139.8438,1170 L140.625,1111.667 L141.4063,1136.667 L142.1875,1132.5 L142.9688,1174.167 L143.75,1145 L144.5313,1174.167 L145.3125,1174.167 L146.0938,1174.167 L146.875,1178.333 L147.6563,1165.833 L148.4375,1170 L149.2188,1174.167 L150,1178.333 L150.7813,1178.333 L151.5625,1165.833 L152.3438,1132.5 L153.125,1128.333 L153.9063,1170 L154.6875,1182.5 L155.4688,1145 L156.25,1174.167 L157.0313,1170 L157.8125,1170 L158.5938,1149.167 L159.375,1140.833 L160.1563,1132.5 L160.9375,1178.333 L161.7188,1128.333 L162.5,1178.333 L163.2813,1174.167 L164.0625,1128.333 L164.8438,1170 L165.625,1178.333 L166.4063,1136.667 L167.1875,1136.667 L167.9688,1128.333 L168.75,1153.333 L169.5313,1161.667 L170.3125,1178.333 L171.0938,1120 L171.875,1120 L172.6563,1124.167 L173.4375,1174.167 L174.2188,1132.5 L175,1128.333 L175.7813,1165.833 L176.5625,1145 L177.3438,1136.667 L178.125,1174.167 L178.9063,1161.667 L179.6875,1157.5 L180.4688,1124.167 L181.25,1165.833 L182.0313,1157.5 L182.8125,1132.5 L183.5938,1136.667 L184.375,1157.5 L185.1563,1174.167 L185.9375,1174.167 L186.7188,1153.333 L187.5,1140.833 L188.2813,1153.333 L189.0625,1174.167 L189.8438,1182.5 L190.625,1170 L191.4063,1178.333 L192.1875,1170 L192.9688,1165.833 L193.75,1136.667 L194.5313,1161.667 L195.3125,1178.333 L196.0938,1153.333 L196.875,1140.833 L197.6563,1136.667 L198.4375,1140.833 L199.2188,1136.667 L200,1174.167 L200.7813,1120 L201.5625,1149.167 L202.3438,1128.333 L203.125,1145 L203.9063,1128.333 L204.6875,1136.667 L205.4688,1120 L206.25,1170 L207.0313,1124.167 L207.8125,1190.833 L208.5938,1140.833 L209.375,1132.5 L210.1563,1153.333 L210.9375,1165.833 L211.7188,1174.167 L212.5,1170 L213.2813,1157.5 L214.0625,1215.833 L214.8438,1174.167 L215.625,1149.167 L216.4063,1149.167 L217.1875,1174.167 L217.9688,1165.833 L218.75,1178.333 L219.5313,1132.5 L220.3125,1182.5 L221.0938,1161.667 L221.875,1136.667 L222.6563,1132.5 L223.4375,1115.833 L224.2188,1165.833 L225,1124.167 L225.7813,1153.333 L226.5625,1157.5 L227.3438,1174.167 L228.125,1124.167 L228.9063,1145 L229.6875,1136.667 L230.4688,1178.333 L231.25,1136.667 L232.0313,1128.333 L232.8125,1128.333 L233.5938,1128.333 L234.375,1124.167 L235.1563,1145 L235.9375,1215.833 L236.7188,1149.167 L237.5,1140.833 L238.2813,1140.833 L239.0625,1140.833 L239.8438,1182.5 L240.625,1132.5 L241.4063,1165.833 L242.1875,1128.333 L242.9688,1153.333 L243.75,1174.167 L244.5313,1170 L245.3125,1107.5 L246.0938,1165.833 L246.875,1120 L247.6563,1161.667 L248.4375,1145 L249.2188,1124.167 L250,1086.667 L250.7813,1182.5 L251.5625,1095 L252.3438,1132.5 L253.125,1128.333 L253.9063,1165.833 L254.6875,1145 L255.4688,1128.333 L256.25,1165.833 L257.0313,1128.333 L257.8125,1145 L258.5938,1145 L259.375,1170 L260.1563,1149.167 L260.9375,1128.333 L261.7188,1086.667 L262.5,1140.833 L263.2813,1124.167 L264.0625,1153.333 L264.8438,1136.667 L265.625,1161.667 L266.4063,1178.333 L267.1875,1145 L267.9688,1103.333 L268.75,1170 L269.5313,1157.5 L270.3125,1170 L271.0938,1149.167 L271.875,1132.5 L272.6563,1136.667 L273.4375,1174.167 L274.2188,1145 L275,1095 L275.7813,1165.833 L276.5625,1124.167 L277.3438,1128.333 L278.125,1153.333 L278.9063,1124.167 L279.6875,1136.667 L280.4688,1178.333 L281.25,1174.167 L282.0313,1178.333 L282.8125,1136.667 L283.5938,1149.167 L284.375,1149.167 L285.1563,1136.667 L285.9375,1124.167 L286.7188,1136.667 L287.5,1128.333 L288.2813,1178.333 L289.0625,1132.5 L289.8438,1149.167 L290.625,1132.5 L291.4063,1170 L292.1875,1165.833 L292.9688,1170 L293.75,1190.833 L294.5313,1132.5 L295.3125,1149.167 L296.0938,1128.333 L296.875,1132.5 L297.6563,1128.333 L298.4375,1170 L299.2188,1149.167 L300,1174.167 L300.7813,1132.5 L301.5625,1157.5 L302.3438,1124.167 L303.125,1178.333 L303.9063,1124.167 L304.6875,1115.833 L305.4688,1132.5 L306.25,1174.167 L307.0313,1165.833 L307.8125,1140.833 L308.5938,1153.333 L309.375,1132.5 L310.1563,1074.167 L310.9375,1149.167 L311.7188,1178.333 L312.5,1128.333 L313.2813,1145 L314.0625,1132.5 L314.8438,1149.167 L315.625,1178.333 L316.4063,1136.667 L317.1875,1145 L317.9688,1124.167 L318.75,1157.5 L319.5313,1136.667 L320.3125,1174.167 L321.0938,1182.5 L321.875,1165.833 L322.6563,1124.167 L323.4375,1165.833 L324.2188,1115.833 L325,1165.833 L325.7813,1170 L326.5625,1136.667 L327.3438,1170 L328.125,1140.833 L328.9063,1132.5 L329.6875,1136.667 L330.4688,1153.333 L331.25,1165.833 L332.0313,1170 L332.8125,1070 L333.5938,1170 L334.375,1153.333 L335.1563,1161.667 L335.9375,1178.333 L336.7188,1107.5 L337.5,1161.667 L338.2813,1145 L339.0625,1115.833 L339.8438,1132.5 L340.625,1136.667 L341.4063,1124.167 L342.1875,1178.333 L342.9688,1128.333 L343.75,1149.167 L344.5313,1161.667 L345.3125,1149.167 L346.0938,1140.833 L346.875,1120 L347.6563,1140.833 L348.4375,1107.5 L349.2188,1140.833 L350,1136.667 L350.7813,1145 L351.5625,1132.5 L352.3438,1128.333 L353.125,1128.333 L353.9063,1128.333 L354.6875,1136.667 L355.4688,1161.667 L356.25,1145 L357.0313,1182.5 L357.8125,1157.5 L358.5938,1165.833 L359.375,1140.833 L360.1563,1170 L360.9375,1165.833 L361.7188,1220 L362.5,1132.5 L363.2813,1149.167 L364.0625,1157.5 L364.8438,1178.333 L365.625,1178.333 L366.4063,1103.333 L367.1875,1157.5 L367.9688,1178.333 L368.75,1124.167 L369.5313,1140.833 L370.3125,1132.5 L371.0938,1136.667 L371.875,1140.833 L372.6563,1128.333 L373.4375,1132.5 L374.2188,1090.833 L375,1132.5 L375.7813,1153.333 L376.5625,1153.333 L377.3438,1095 L378.125,1124.167 L378.9063,1165.833 L379.6875,1170 L380.4688,1170 L381.25,1120 L382.0313,1128.333 L382.8125,1182.5 L383.5938,1174.167 L384.375,1132.5 L385.1563,1157.5 L385.9375,1140.833 L386.7188,1174.167 L387.5,1145 L388.2813,1145 L389.0625,1153.333 L389.8438,1170 L390.625,1145 L391.4063,1145 L392.1875,1120 L392.9688,1120 L393.75,1174.167 L394.5313,1128.333 L395.3125,1140.833 L396.0938,1182.5 L396.875,1165.833 L397.6563,1020 L398.4375,1182.5 L399.2188,1120 L400,1128.333 L400.7813,1145 L401.5625,1115.833 L402.3438,1153.333 L403.125,1174.167 L403.9063,1157.5 L404.6875,1174.167 L405.4688,1174.167 L406.25,1136.667 L407.0313,1170 L407.8125,1170 L408.5938,1128.333 L409.375,1153.333 L410.1563,1132.5 L410.9375,1145 L411.7188,1170 L412.5,1170 L413.2813,1170 L414.0625,1128.333 L414.8438,1124.167 L415.625,1124.167 L416.4063,1149.167 L417.1875,1140.833 L417.9688,1124.167 L418.75,1128.333 L419.5313,1132.5 L420.3125,1157.5 L421.0938,1182.5 L421.875,1140.833 L422.6563,1161.667 L423.4375,1149.167 L424.2188,1186.667 L425,1165.833 L425.7813,1186.667 L426.5625,1132.5 L427.3438,1145 L428.125,1128.333 L428.9063,1128.333 L429.6875,1178.333 L430.4688,1161.667 L431.25,1170 L432.0313,1170 L432.8125,1136.667 L433.5938,1170 L434.375,1153.333 L435.1563,1149.167 L435.9375,1174.167 L436.7188,1132.5 L437.5,1157.5 L438.2813,1165.833 L439.0625,1124.167 L439.8438,1165.833 L440.625,1128.333 L441.4063,1145 L442.1875,1153.333 L442.9688,1157.5 L443.75,1174.167 L444.5313,1132.5 L445.3125,1132.5 L446.0938,1132.5 L446.875,1145 L447.6563,1115.833 L448.4375,1128.333 L449.2188,1149.167 L450,1178.333 L450.7813,1128.333 L451.5625,1086.667 L452.3438,1132.5 L453.125,1174.167 L453.9063,1145 L454.6875,1170 L455.4688,1178.333 L456.25,1095 L457.0313,1165.833 L457.8125,1140.833 L458.5938,1165.833 L459.375,1157.5 L460.1563,1145 L460.9375,1145 L461.7188,1128.333 L462.5,1132.5 L463.2813,1111.667 L464.0625,1211.667 L464.8438,1124.167 L465.625,1145 L466.4063,1174.167 L467.1875,1128.333 L467.9688,1170 L468.75,1120 L469.5313,1211.667 L470.3125,1140.833 L471.0938,1145 L471.875,1115.833 L472.6563,1165.833 L473.4375,1178.333 L474.2188,1136.667 L475,1178.333 L475.7813,1132.5 L476.5625,1124.167 L477.3438,1128.333 " stroke="blue" fill="none" />
<text x="50" y="1270" font-family="Arial" font-size="12" fill="black">Policy Loss</text>
<text x="50" y="1285" font-family="Arial" font-size="10" fill="black">0.01314216</text>
<text x="50" y="1500" font-family="Arial" font-size="10" fill="black">0.007693638</text>
<path d="M50,1290 L75,1490 " stroke="blue" fill="none" />
<text x="50" y="1540" font-family="Arial" font-size="12" fill="black">Value Loss</text>
<text x="50" y="1555" font-family="Arial" font-size="10" fill="black">0.001518132</text>
<text x="50" y="1770" font-family="Arial" font-size="10" fill="black">0.001413246</text>
<path d="M50,1760 L75,1560.019 " stroke="blue" fill="none" />
<text x="50" y="1810" font-family="Arial" font-size="12" fill="black">Learning Rate</text>
<text x="50" y="1825" font-family="Arial" font-size="10" fill="black">0.0003</text>
<text x="50" y="2040" font-family="Arial" font-size="10" fill="black">0.0003</text>
<path d="M50,2030 L75,2030 " stroke="blue" fill="none" />
<text x="50" y="2080" font-family="Arial" font-size="12" fill="black">Entropy</text>
<text x="50" y="2095" font-family="Arial" font-size="10" fill="black">0.09124994</text>
<text x="50" y="2310" font-family="Arial" font-size="10" fill="black">0.05307029</text>
<path d="M50,2100 L75,2300 " stroke="blue" fill="none" />
<text x="750" y="730" font-family="Arial" font-size="12" fill="black">Simplified</text>
<text x="750" y="745" font-family="Arial" font-size="10" fill="black">0.7874208</text>
<text x="750" y="960" font-family="Arial" font-size="10" fill="black">0.6150526</text>
<path d="M764.0625,862.0609 L778.9063,750 L793.75,950 L808.5938,870.9158 L823.4375,894.1221 L838.2813,839.7711 L853.125,928.3206 L867.9688,912.748 L882.8125,878.2442 L897.6563,949.6945 L912.5,877.3282 L927.3438,942.3665 L942.1875,866.0304 L957.0313,854.7328 L971.875,873.3587 L986.7188,859.6182 L1001.563,900.8397 L1016.406,857.1754 L1031.25,895.6488 L1046.094,849.5419 L1060.938,858.7023 L1075.781,856.5649 L1090.625,899.0076 L1105.469,871.5267 L1120.313,855.6487 L1135.156,942.0611 L1150,872.1373 L1164.844,872.748 L1177.344,900.8205 " stroke="blue" fill="none" />
<text x="750" y="1000" font-family="Arial" font-size="12" fill="black">Simplified</text>
<text x="750" y="1015" font-family="Arial" font-size="10" fill="black">43.78947</text>
<text x="750" y="1230" font-family="Arial" font-size="10" fill="black">36.26316</text>
<path d="M764.0625,1176.643 L778.9063,1020 L793.75,1220 L808.5938,1127.692 L823.4375,1150.07 L838.2813,1089.93 L853.125,1201.818 L867.9688,1193.427 L882.8125,1140.28 L897.6563,1215.804 L912.5,1136.084 L927.3438,1203.217 L942.1875,1126.294 L957.0313,1095.524 L971.875,1117.902 L986.7188,1117.902 L1001.563,1159.86 L1016.406,1106.713 L1031.25,1157.063 L1046.094,1113.706 L1060.938,1113.706 L1075.781,1124.895 L1090.625,1151.469 L1105.469,1109.51 L1120.313,1120.699 L1135.156,1201.818 L1150,1133.287 L1164.844,1115.105 L1177.344,1150.594 " stroke="blue" fill="none" />
</svg>
