<svg width="2000" height="2500" xmlns="http://www.w3.org/2000/svg">
<text x="10" y="20" font-family="Arial" font-size="26" fill="black"> [Walker] Training Session</text>
<text x="10" y="50" font-family="Arial" font-size="16" fill="black">[Statistics]</text>
<text x="50" y="70" font-family="Arial" font-size="12" fill="black">Started at: 10:15:56 PM, Tuesday, March 5, 2024</text>
<text x="50" y="90" font-family="Arial" font-size="12" fill="black">Finished at: 10:16:24 PM, Tuesday, March 5, 2024</text>
<text x="50" y="110" font-family="Arial" font-size="12" fill="black">Training Session Time: 0 hrs : 0 min : 11 sec</text>
<text x="50" y="130" font-family="Arial" font-size="12" fill="black">Inference Time: 0 hrs : 10 min : 40 sec        [Device: CPU]</text>
<text x="50" y="150" font-family="Arial" font-size="12" fill="black">Update Time: 0 hrs : 0 min : 1 sec        [Per iteration: 0 hrs : 0 min : 0.49 sec]        [Device: GPU]</text>
<text x="50" y="170" font-family="Arial" font-size="12" fill="black">Episode Count: 330</text>
<text x="50" y="190" font-family="Arial" font-size="12" fill="black">Inference Steps: 0</text>
<text x="50" y="210" font-family="Arial" font-size="12" fill="black">Iterations: 1</text>
<text x="50" y="230" font-family="Arial" font-size="12" fill="black">Parallel Agents: 50</text>
<text x="50" y="250" font-family="Arial" font-size="12" fill="black">Timescale: 1</text>
<text x="50" y="270" font-family="Arial" font-size="12" fill="black">Trainer: PPO</text>
<text x="10" y="320" font-family="Arial" font-size="16" fill="black">[Hyperparameters]</text>
<text x="50" y="340" font-family="Arial" font-size="12" fill="black">Buffer Size: 10240        [Batch Size: 512       (x20)]</text>
<text x="50" y="360" font-family="Arial" font-size="12" fill="black">Num Epoch: 8</text>
<text x="50" y="380" font-family="Arial" font-size="12" fill="black">Time Horizon: 256</text>
<text x="50" y="400" font-family="Arial" font-size="12" fill="black">Gradient Cliping by Norm: 0.5</text>
<text x="50" y="420" font-family="Arial" font-size="12" fill="black">Learning Rate Schedule: False    </text>
<text x="10" y="470" font-family="Arial" font-size="16" fill="black">[Behaviour]</text>
<text x="50" y="490" font-family="Arial" font-size="12" fill="black">Space Size: 120</text>
<text x="50" y="510" font-family="Arial" font-size="12" fill="black">Continuous Actions: 36 [Standard Deviation: Fixed]     [Value: 0.2]</text>
<text x="50" y="530" font-family="Arial" font-size="12" fill="black">Discrete Actions: 0</text>
<text x="50" y="550" font-family="Arial" font-size="12" fill="black">TargetFPS: 100 (physics update rate)</text>
<text x="50" y="570" font-family="Arial" font-size="12" fill="black">Observations Normalization: True</text>
<text x="10" y="620" font-family="Arial" font-size="16" fill="black">[Decision Requester]</text>
<text x="50" y="640" font-family="Arial" font-size="12" fill="black">Max Step: 10000</text>
<text x="50" y="660" font-family="Arial" font-size="12" fill="black">Decision Period: 5      [Actions Between Decisions: True]</text>
<text x="10" y="710" font-family="Arial" font-size="16" fill="black">[Graphs]</text>
<text x="50" y="730" font-family="Arial" font-size="12" fill="black">Episode Reward (330)</text>
<text x="50" y="745" font-family="Arial" font-size="10" fill="black">1.029</text>
<text x="50" y="960" font-family="Arial" font-size="10" fill="black">0.249</text>
<path d="M50,948.718 L50.78125,929.4872 L51.5625,948.718 L52.34375,926.9231 L53.125,926.9231 L53.90625,879.4872 L54.6875,878.2051 L55.46875,915.3846 L56.25,876.923 L57.03125,856.4102 L57.8125,893.5897 L58.59375,874.3589 L59.375,855.1282 L60.15625,852.5641 L60.9375,851.282 L61.71875,866.6667 L62.5,828.2051 L63.28125,826.9231 L64.0625,826.9231 L64.84375,826.923 L65.625,826.9231 L66.40625,826.9231 L67.1875,826.9231 L67.96875,929.4872 L68.75,825.641 L69.53125,825.641 L70.3125,806.4103 L71.09375,928.2051 L71.875,824.3589 L72.65625,824.3589 L73.4375,824.3589 L74.21875,926.9231 L75,803.8461 L75.78125,803.8461 L76.5625,823.0769 L77.34375,823.0769 L78.125,803.8461 L78.90625,823.0769 L79.6875,823.0769 L80.46875,928.2051 L81.25,802.5641 L82.03125,802.5641 L82.8125,802.5641 L83.59375,802.5641 L84.375,821.7949 L85.15625,802.5641 L85.9375,926.9231 L86.71875,820.5128 L87.5,801.282 L88.28125,801.282 L89.0625,800 L89.84375,800 L90.625,793.5897 L91.40625,771.7949 L92.1875,789.7436 L92.96875,920.5128 L93.75,905.1282 L94.53125,880.7692 L95.3125,900 L96.09375,926.9231 L96.875,919.2308 L97.65625,873.0769 L98.4375,865.3846 L99.21875,873.0769 L100,900 L100.7813,875.641 L101.5625,828.2051 L102.3438,875.641 L103.125,855.1282 L103.9063,878.2051 L104.6875,875.641 L105.4688,898.718 L106.25,876.923 L107.0313,871.7949 L107.8125,802.5641 L108.5938,852.5641 L109.375,875.641 L110.1563,802.5641 L110.9375,853.8461 L111.7188,929.4872 L112.5,873.0769 L113.2813,928.2051 L114.0625,875.641 L114.8438,930.7692 L115.625,874.3589 L116.4063,830.7692 L117.1875,870.5128 L117.9688,806.4103 L118.75,825.641 L119.5313,850 L120.3125,851.282 L121.0938,805.1282 L121.875,825.641 L122.6563,848.718 L123.4375,825.641 L124.2188,826.9231 L125,807.6923 L125.7813,805.1282 L126.5625,823.0769 L127.3438,820.5128 L128.125,823.0769 L128.9063,821.7949 L129.6875,929.4872 L130.4688,819.2308 L131.25,876.923 L132.0313,844.8718 L132.8125,928.2051 L133.5938,825.641 L134.375,946.1539 L135.1563,802.5641 L135.9375,770.5128 L136.7188,928.2051 L137.5,888.4615 L138.2813,750 L139.0625,874.3589 L139.8438,942.3077 L140.625,878.2051 L141.4063,870.5128 L142.1875,898.718 L142.9688,874.3589 L143.75,878.2051 L144.5313,851.282 L145.3125,874.3589 L146.0938,826.9231 L146.875,875.641 L147.6563,874.3589 L148.4375,869.2308 L149.2188,875.641 L150,875.641 L150.7813,874.3589 L151.5625,925.641 L152.3438,848.718 L153.125,829.4872 L153.9063,879.4872 L154.6875,823.0769 L155.4688,806.4103 L156.25,923.0769 L157.0313,825.641 L157.8125,828.2051 L158.5938,874.3589 L159.375,829.4872 L160.1563,797.4359 L160.9375,828.2051 L161.7188,824.3589 L162.5,825.641 L163.2813,870.5128 L164.0625,826.9231 L164.8438,875.641 L165.625,824.3589 L166.4063,791.0256 L167.1875,825.641 L167.9688,950 L168.75,828.2051 L169.5313,875.641 L170.3125,900 L171.0938,876.923 L171.875,800 L172.6563,875.641 L173.4375,794.8718 L174.2188,847.4359 L175,923.0769 L175.7813,878.2051 L176.5625,820.5128 L177.3438,771.7949 L178.125,830.7692 L178.9063,900 L179.6875,929.4872 L180.4688,882.0513 L181.25,900 L182.0313,847.4359 L182.8125,828.2051 L183.5938,821.7949 L184.375,853.8461 L185.1563,873.0769 L185.9375,794.8718 L186.7188,853.8461 L187.5,873.0769 L188.2813,828.2051 L189.0625,806.4102 L189.8438,847.4359 L190.625,828.2051 L191.4063,924.3589 L192.1875,875.641 L192.9688,853.8461 L193.75,850 L194.5313,802.5641 L195.3125,921.7949 L196.0938,876.923 L196.875,853.8461 L197.6563,824.3589 L198.4375,898.718 L199.2188,924.3589 L200,800 L200.7813,850 L201.5625,796.1539 L202.3438,850 L203.125,805.1282 L203.9063,903.8461 L204.6875,879.4872 L205.4688,873.0769 L206.25,876.923 L207.0313,926.9231 L207.8125,824.3589 L208.5938,806.4103 L209.375,825.641 L210.1563,900 L210.9375,820.5128 L211.7188,876.923 L212.5,917.9487 L213.2813,917.9487 L214.0625,802.5641 L214.8438,805.1282 L215.625,803.8461 L216.4063,821.7949 L217.1875,803.8461 L217.9688,897.4359 L218.75,798.718 L219.5313,911.5385 L220.3125,798.718 L221.0938,928.2051 L221.875,878.2051 L222.6563,803.8461 L223.4375,926.9231 L224.2188,921.7949 L225,948.718 L225.7813,898.718 L226.5625,878.2051 L227.3438,853.8461 L228.125,851.282 L228.9063,875.641 L229.6875,879.4872 L230.4688,805.1282 L231.25,876.923 L232.0313,947.4359 L232.8125,824.3589 L233.5938,876.923 L234.375,805.1282 L235.1563,898.718 L235.9375,928.2051 L236.7188,850 L237.5,801.282 L238.2813,855.1282 L239.0625,929.4872 L239.8438,823.0769 L240.625,921.7949 L241.4063,853.8461 L242.1875,889.7436 L242.9688,821.7949 L243.75,925.641 L244.5313,828.2051 L245.3125,801.282 L246.0938,805.1282 L246.875,800 L247.6563,929.4872 L248.4375,803.8461 L249.2188,798.718 L250,848.718 L250.7813,925.641 L251.5625,928.2051 L252.3438,874.3589 L253.125,826.9231 L253.9063,875.641 L254.6875,880.7692 L255.4688,873.0769 L256.25,879.4872 L257.0313,846.1538 L257.8125,828.2051 L258.5938,929.4872 L259.375,861.5385 L260.1563,794.8718 L260.9375,878.2051 L261.7188,852.5641 L262.5,874.3589 L263.2813,878.2051 L264.0625,800 L264.8438,896.1539 L265.625,797.4359 L266.4063,875.641 L267.1875,875.641 L267.9688,921.7949 L268.75,925.641 L269.5313,825.641 L270.3125,855.1282 L271.0938,928.2051 L271.875,848.718 L272.6563,828.2051 L273.4375,900 L274.2188,926.9231 L275,805.1282 L275.7813,806.4103 L276.5625,873.0769 L277.3438,925.641 L278.125,853.8461 L278.9063,873.0769 L279.6875,802.5641 L280.4688,819.2308 L281.25,825.641 L282.0313,929.4872 L282.8125,802.5641 L283.5938,819.2308 L284.375,903.8461 L285.1563,928.2051 L285.9375,876.923 L286.7188,875.641 L287.5,828.2051 L288.2813,798.718 L289.0625,874.3589 L289.8438,875.641 L290.625,929.4872 L291.4063,828.2051 L292.1875,823.0769 L292.9688,828.2051 L293.75,802.5641 L294.5313,926.9231 L295.3125,856.4102 L296.0938,802.5641 L296.875,873.0769 L297.6563,803.8461 L298.4375,801.282 L299.2188,856.4102 L300,948.718 L300.7813,875.641 L301.5625,873.0769 L302.3438,855.1282 L303.125,926.9231 L303.9063,837.1795 L304.6875,930.7692 L305.4688,919.2308 L306.25,800 L307.0313,805.1282 " stroke="blue" fill="none" />
<text x="50" y="1000" font-family="Arial" font-size="12" fill="black">Episode Length (330)</text>
<text x="50" y="1015" font-family="Arial" font-size="10" fill="black">56</text>
<text x="50" y="1230" font-family="Arial" font-size="10" fill="black">20</text>
<path d="M50,1220 L50.78125,1220 L51.5625,1220 L52.34375,1208.889 L53.125,1208.889 L53.90625,1170 L54.6875,1164.444 L55.46875,1158.889 L56.25,1158.889 L57.03125,1153.333 L57.8125,1147.778 L58.59375,1147.778 L59.375,1147.778 L60.15625,1136.667 L60.9375,1131.111 L61.71875,1114.444 L62.5,1114.444 L63.28125,1108.889 L64.0625,1108.889 L64.84375,1108.889 L65.625,1108.889 L66.40625,1108.889 L67.1875,1108.889 L67.96875,1214.444 L68.75,1103.333 L69.53125,1103.333 L70.3125,1103.333 L71.09375,1208.889 L71.875,1097.778 L72.65625,1097.778 L73.4375,1097.778 L74.21875,1203.333 L75,1092.222 L75.78125,1092.222 L76.5625,1092.222 L77.34375,1092.222 L78.125,1092.222 L78.90625,1092.222 L79.6875,1092.222 L80.46875,1208.889 L81.25,1086.667 L82.03125,1086.667 L82.8125,1086.667 L83.59375,1086.667 L84.375,1086.667 L85.15625,1086.667 L85.9375,1203.333 L86.71875,1081.111 L87.5,1081.111 L88.28125,1081.111 L89.0625,1075.556 L89.84375,1075.556 L90.625,1047.778 L91.40625,1036.667 L92.1875,1031.111 L92.96875,1175.556 L93.75,1192.222 L94.53125,1170 L95.3125,1170 L96.09375,1203.333 L96.875,1170 L97.65625,1136.667 L98.4375,1103.333 L99.21875,1136.667 L100,1170 L100.7813,1147.778 L101.5625,1108.889 L102.3438,1147.778 L103.125,1142.222 L103.9063,1158.889 L104.6875,1147.778 L105.4688,1164.444 L106.25,1153.333 L107.0313,1131.111 L107.8125,1081.111 L108.5938,1131.111 L109.375,1147.778 L110.1563,1081.111 L110.9375,1136.667 L111.7188,1214.444 L112.5,1136.667 L113.2813,1208.889 L114.0625,1147.778 L114.8438,1220 L115.625,1142.222 L116.4063,1120 L117.1875,1125.556 L117.9688,1097.778 L118.75,1097.778 L119.5313,1120 L120.3125,1125.556 L121.0938,1092.222 L121.875,1097.778 L122.6563,1114.444 L123.4375,1097.778 L124.2188,1103.333 L125,1103.333 L125.7813,1092.222 L126.5625,1086.667 L127.3438,1075.556 L128.125,1086.667 L128.9063,1081.111 L129.6875,1214.444 L130.4688,1070 L131.25,1153.333 L132.0313,1097.778 L132.8125,1208.889 L133.5938,1097.778 L134.375,1203.333 L135.1563,1081.111 L135.9375,1025.556 L136.7188,1208.889 L137.5,1120 L138.2813,1020 L139.0625,1142.222 L139.8438,1186.667 L140.625,1158.889 L141.4063,1125.556 L142.1875,1164.444 L142.9688,1142.222 L143.75,1158.889 L144.5313,1125.556 L145.3125,1142.222 L146.0938,1103.333 L146.875,1147.778 L147.6563,1142.222 L148.4375,1120 L149.2188,1147.778 L150,1147.778 L150.7813,1142.222 L151.5625,1197.778 L152.3438,1114.444 L153.125,1114.444 L153.9063,1164.444 L154.6875,1086.667 L155.4688,1097.778 L156.25,1186.667 L157.0313,1097.778 L157.8125,1108.889 L158.5938,1142.222 L159.375,1114.444 L160.1563,1058.889 L160.9375,1108.889 L161.7188,1092.222 L162.5,1097.778 L163.2813,1125.556 L164.0625,1103.333 L164.8438,1147.778 L165.625,1092.222 L166.4063,1031.111 L167.1875,1097.778 L167.9688,1220 L168.75,1108.889 L169.5313,1147.778 L170.3125,1170 L171.0938,1153.333 L171.875,1070 L172.6563,1147.778 L173.4375,1047.778 L174.2188,1108.889 L175,1186.667 L175.7813,1158.889 L176.5625,1075.556 L177.3438,1031.111 L178.125,1120 L178.9063,1170 L179.6875,1214.444 L180.4688,1175.556 L181.25,1170 L182.0313,1108.889 L182.8125,1108.889 L183.5938,1081.111 L184.375,1136.667 L185.1563,1136.667 L185.9375,1047.778 L186.7188,1136.667 L187.5,1136.667 L188.2813,1108.889 L189.0625,1097.778 L189.8438,1108.889 L190.625,1108.889 L191.4063,1192.222 L192.1875,1147.778 L192.9688,1136.667 L193.75,1120 L194.5313,1081.111 L195.3125,1181.111 L196.0938,1153.333 L196.875,1136.667 L197.6563,1092.222 L198.4375,1164.444 L199.2188,1192.222 L200,1070 L200.7813,1120 L201.5625,1053.333 L202.3438,1120 L203.125,1092.222 L203.9063,1186.667 L204.6875,1164.444 L205.4688,1136.667 L206.25,1153.333 L207.0313,1203.333 L207.8125,1092.222 L208.5938,1097.778 L209.375,1097.778 L210.1563,1170 L210.9375,1075.556 L211.7188,1153.333 L212.5,1164.444 L213.2813,1164.444 L214.0625,1081.111 L214.8438,1092.222 L215.625,1086.667 L216.4063,1081.111 L217.1875,1086.667 L217.9688,1158.889 L218.75,1064.444 L219.5313,1136.667 L220.3125,1064.444 L221.0938,1208.889 L221.875,1158.889 L222.6563,1086.667 L223.4375,1203.333 L224.2188,1181.111 L225,1214.444 L225.7813,1164.444 L226.5625,1158.889 L227.3438,1136.667 L228.125,1125.556 L228.9063,1147.778 L229.6875,1164.444 L230.4688,1092.222 L231.25,1153.333 L232.0313,1208.889 L232.8125,1092.222 L233.5938,1153.333 L234.375,1092.222 L235.1563,1164.444 L235.9375,1208.889 L236.7188,1120 L237.5,1075.556 L238.2813,1142.222 L239.0625,1214.444 L239.8438,1086.667 L240.625,1181.111 L241.4063,1136.667 L242.1875,1125.556 L242.9688,1081.111 L243.75,1197.778 L244.5313,1108.889 L245.3125,1075.556 L246.0938,1092.222 L246.875,1070 L247.6563,1214.444 L248.4375,1086.667 L249.2188,1064.444 L250,1114.444 L250.7813,1197.778 L251.5625,1208.889 L252.3438,1142.222 L253.125,1103.333 L253.9063,1147.778 L254.6875,1086.667 L255.4688,1136.667 L256.25,1164.444 L257.0313,1103.333 L257.8125,1108.889 L258.5938,1214.444 L259.375,1086.667 L260.1563,1047.778 L260.9375,1158.889 L261.7188,1131.111 L262.5,1142.222 L263.2813,1158.889 L264.0625,1070 L264.8438,1153.333 L265.625,1058.889 L266.4063,1147.778 L267.1875,1147.778 L267.9688,1181.111 L268.75,1197.778 L269.5313,1097.778 L270.3125,1142.222 L271.0938,1208.889 L271.875,1114.444 L272.6563,1108.889 L273.4375,1170 L274.2188,1203.333 L275,1092.222 L275.7813,1097.778 L276.5625,1136.667 L277.3438,1197.778 L278.125,1136.667 L278.9063,1136.667 L279.6875,1081.111 L280.4688,1070 L281.25,1097.778 L282.0313,1214.444 L282.8125,1081.111 L283.5938,1070 L284.375,1186.667 L285.1563,1208.889 L285.9375,1153.333 L286.7188,1147.778 L287.5,1108.889 L288.2813,1064.444 L289.0625,1142.222 L289.8438,1147.778 L290.625,1214.444 L291.4063,1108.889 L292.1875,1086.667 L292.9688,1108.889 L293.75,1081.111 L294.5313,1203.333 L295.3125,1147.778 L296.0938,1081.111 L296.875,1136.667 L297.6563,1086.667 L298.4375,1075.556 L299.2188,1147.778 L300,1214.444 L300.7813,1147.778 L301.5625,1136.667 L302.3438,1142.222 L303.125,1203.333 L303.9063,1064.444 L304.6875,1220 L305.4688,1170 L306.25,1070 L307.0313,1092.222 " stroke="blue" fill="none" />
<text x="50" y="1270" font-family="Arial" font-size="12" fill="black">Policy Loss</text>
<text x="50" y="1285" font-family="Arial" font-size="10" fill="black">0</text>
<text x="50" y="1500" font-family="Arial" font-size="10" fill="black">0</text>
<path d="M50,1490 " stroke="blue" fill="none" />
<text x="50" y="1540" font-family="Arial" font-size="12" fill="black">Value Loss</text>
<text x="50" y="1555" font-family="Arial" font-size="10" fill="black">0</text>
<text x="50" y="1770" font-family="Arial" font-size="10" fill="black">0</text>
<path d="M50,1760 " stroke="blue" fill="none" />
<text x="50" y="1810" font-family="Arial" font-size="12" fill="black">Learning Rate</text>
<text x="50" y="1825" font-family="Arial" font-size="10" fill="black">0</text>
<text x="50" y="2040" font-family="Arial" font-size="10" fill="black">0</text>
<path d="M50,2030 " stroke="blue" fill="none" />
<text x="50" y="2080" font-family="Arial" font-size="12" fill="black">Entropy</text>
<text x="50" y="2095" font-family="Arial" font-size="10" fill="black">0</text>
<text x="50" y="2310" font-family="Arial" font-size="10" fill="black">0</text>
<path d="M50,2300 " stroke="blue" fill="none" />
<text x="750" y="730" font-family="Arial" font-size="12" fill="black">Simplified</text>
<text x="750" y="745" font-family="Arial" font-size="10" fill="black">0.7279473</text>
<text x="750" y="960" font-family="Arial" font-size="10" fill="black">0.5132105</text>
<path d="M764.0625,950 L778.9063,785.7844 L793.75,750 L808.5938,924.5098 L823.4375,858.3333 L838.2813,811.5197 L853.125,922.3039 L867.9688,809.804 L882.8125,863.4803 L897.6563,835.5391 L912.5,872.3039 L927.3438,880.6373 L942.1875,898.5294 L957.0313,856.3725 L971.875,889.7059 L986.7188,875.9805 L1001.563,843.6276 L1007.031,897.374 " stroke="blue" fill="none" />
<text x="750" y="1000" font-family="Arial" font-size="12" fill="black">Simplified</text>
<text x="750" y="1015" font-family="Arial" font-size="10" fill="black">41.57895</text>
<text x="750" y="1230" font-family="Arial" font-size="10" fill="black">30.78947</text>
<path d="M764.0625,1220 L778.9063,1075.61 L793.75,1020 L808.5938,1173.171 L823.4375,1129.268 L838.2813,1060 L853.125,1164.39 L867.9688,1067.805 L882.8125,1120.488 L897.6563,1097.073 L912.5,1126.341 L927.3438,1130.244 L942.1875,1157.561 L957.0313,1106.829 L971.875,1137.073 L986.7188,1140.976 L1001.563,1114.634 L1007.031,1144.599 " stroke="blue" fill="none" />
</svg>
