<svg width="2000" height="2500" xmlns="http://www.w3.org/2000/svg">
<text x="10" y="20" font-family="Arial" font-size="26" fill="black"> [Walker] Training Session</text>
<text x="10" y="50" font-family="Arial" font-size="16" fill="black">[Statistics]</text>
<text x="50" y="70" font-family="Arial" font-size="12" fill="black">Started at: 10:10:07 PM, Tuesday, March 5, 2024</text>
<text x="50" y="90" font-family="Arial" font-size="12" fill="black">Finished at: 10:10:37 PM, Tuesday, March 5, 2024</text>
<text x="50" y="110" font-family="Arial" font-size="12" fill="black">Training Session Time: 0 hrs : 0 min : 26 sec</text>
<text x="50" y="130" font-family="Arial" font-size="12" fill="black">Inference Time: 0 hrs : 11 min : 5 sec        [Device: CPU]</text>
<text x="50" y="150" font-family="Arial" font-size="12" fill="black">Update Time: 0 hrs : 0 min : 14 sec        [Per iteration: 0 hrs : 0 min : 13.307 sec]        [Device: GPU]</text>
<text x="50" y="170" font-family="Arial" font-size="12" fill="black">Episode Count: 341</text>
<text x="50" y="190" font-family="Arial" font-size="12" fill="black">Inference Steps: 10240</text>
<text x="50" y="210" font-family="Arial" font-size="12" fill="black">Iterations: 1</text>
<text x="50" y="230" font-family="Arial" font-size="12" fill="black">Parallel Agents: 44</text>
<text x="50" y="250" font-family="Arial" font-size="12" fill="black">Timescale: 1</text>
<text x="50" y="270" font-family="Arial" font-size="12" fill="black">Trainer: PPO</text>
<text x="10" y="320" font-family="Arial" font-size="16" fill="black">[Hyperparameters]</text>
<text x="50" y="340" font-family="Arial" font-size="12" fill="black">Buffer Size: 10240        [Batch Size: 512       (x20)]</text>
<text x="50" y="360" font-family="Arial" font-size="12" fill="black">Num Epoch: 8</text>
<text x="50" y="380" font-family="Arial" font-size="12" fill="black">Time Horizon: 256</text>
<text x="50" y="400" font-family="Arial" font-size="12" fill="black">Gradient Cliping by Norm: 0.5</text>
<text x="50" y="420" font-family="Arial" font-size="12" fill="black">Learning Rate Schedule: False    </text>
<text x="10" y="470" font-family="Arial" font-size="16" fill="black">[Behaviour]</text>
<text x="50" y="490" font-family="Arial" font-size="12" fill="black">Space Size: 120</text>
<text x="50" y="510" font-family="Arial" font-size="12" fill="black">Continuous Actions: 36 [Standard Deviation: Fixed]     [Value: 0.2]</text>
<text x="50" y="530" font-family="Arial" font-size="12" fill="black">Discrete Actions: 0</text>
<text x="50" y="550" font-family="Arial" font-size="12" fill="black">TargetFPS: 100 (physics update rate)</text>
<text x="50" y="570" font-family="Arial" font-size="12" fill="black">Observations Normalization: True</text>
<text x="10" y="620" font-family="Arial" font-size="16" fill="black">[Decision Requester]</text>
<text x="50" y="640" font-family="Arial" font-size="12" fill="black">Max Step: 10000</text>
<text x="50" y="660" font-family="Arial" font-size="12" fill="black">Decision Period: 5      [Actions Between Decisions: True]</text>
<text x="10" y="710" font-family="Arial" font-size="16" fill="black">[Graphs]</text>
<text x="50" y="730" font-family="Arial" font-size="12" fill="black">Episode Reward (341)</text>
<text x="50" y="745" font-family="Arial" font-size="10" fill="black">0.9389998</text>
<text x="50" y="960" font-family="Arial" font-size="10" fill="black">0.184</text>
<path d="M50,911.5894 L50.78125,911.5894 L51.5625,907.6159 L52.34375,904.9669 L53.125,858.6093 L53.90625,875.8278 L54.6875,855.9603 L55.46875,854.6357 L56.25,830.7947 L57.03125,829.4702 L57.8125,829.4702 L58.59375,828.1457 L59.375,808.2781 L60.15625,825.4967 L60.9375,784.4371 L61.71875,804.3046 L62.5,804.3046 L63.28125,804.3046 L64.0625,804.3046 L64.84375,783.1125 L65.625,802.9801 L66.40625,802.9801 L67.1875,802.9801 L67.96875,802.9801 L68.75,802.9801 L69.53125,802.9801 L70.3125,781.7881 L71.09375,781.7881 L71.875,781.7881 L72.65625,781.7881 L73.4375,801.6556 L74.21875,801.6556 L75,801.6556 L75.78125,781.7881 L76.5625,800.3311 L77.34375,800.3311 L78.125,906.2914 L78.90625,779.139 L79.6875,799.0066 L80.46875,779.139 L81.25,931.457 L82.03125,908.9404 L82.8125,777.8146 L83.59375,775.1655 L84.375,775.1656 L85.15625,775.1656 L85.9375,879.8013 L86.71875,750 L87.5,907.6159 L88.28125,881.1258 L89.0625,857.2847 L89.84375,910.2649 L90.625,910.2649 L91.40625,855.9603 L92.1875,932.7814 L92.96875,855.9603 L93.75,881.1258 L94.53125,832.1192 L95.3125,855.9603 L96.09375,858.6093 L96.875,859.9338 L97.65625,809.6026 L98.4375,855.9603 L99.21875,855.9603 L100,853.3113 L100.7813,836.0927 L101.5625,830.7947 L102.3438,857.2847 L103.125,817.5497 L103.9063,885.0993 L104.6875,783.1125 L105.4688,851.9868 L106.25,826.8212 L107.0313,806.9536 L107.8125,910.2649 L108.5938,805.6292 L109.375,858.6093 L110.1563,802.9801 L110.9375,808.2781 L111.7188,804.3046 L112.5,780.4636 L113.2813,802.9801 L114.0625,783.1125 L114.8438,780.4636 L115.625,799.0066 L116.4063,780.4636 L117.1875,801.6556 L117.9688,776.4901 L118.75,804.3046 L119.5313,777.8146 L120.3125,775.1656 L121.0938,931.457 L121.875,802.9801 L122.6563,775.1656 L123.4375,931.457 L124.2188,776.4901 L125,881.1258 L125.7813,878.4768 L126.5625,858.6093 L127.3438,911.5894 L128.125,853.3113 L128.9063,806.9536 L129.6875,878.4768 L130.4688,882.4503 L131.25,836.0927 L132.0313,857.2847 L132.8125,854.6357 L133.5938,879.8013 L134.375,830.7947 L135.1563,858.6093 L135.9375,780.4636 L136.7188,832.1192 L137.5,849.3378 L138.2813,857.2847 L139.0625,829.4702 L139.8438,806.9536 L140.625,857.2847 L141.4063,857.2847 L142.1875,780.4636 L142.9688,855.9603 L143.75,877.1523 L144.5313,854.6357 L145.3125,779.1391 L146.0938,805.6292 L146.875,931.457 L147.6563,777.8146 L148.4375,805.6292 L149.2188,932.7814 L150,783.1125 L150.7813,850.6622 L151.5625,805.6291 L152.3438,781.7881 L153.125,800.3311 L153.9063,802.9801 L154.6875,855.9603 L155.4688,795.0331 L156.25,804.3046 L157.0313,824.1722 L157.8125,853.3113 L158.5938,804.3046 L159.375,784.4371 L160.1563,801.6556 L160.9375,848.0132 L161.7188,878.4768 L162.5,855.9603 L163.2813,834.7682 L164.0625,779.1391 L164.8438,808.2781 L165.625,833.4437 L166.4063,907.6159 L167.1875,801.6556 L167.9688,834.7682 L168.75,805.6292 L169.5313,834.7682 L170.3125,857.2847 L171.0938,906.2914 L171.875,886.4238 L172.6563,858.6093 L173.4375,805.6292 L174.2188,912.9139 L175,806.9536 L175.7813,832.1192 L176.5625,800.3311 L177.3438,855.9603 L178.125,805.6292 L178.9063,854.6357 L179.6875,805.6291 L180.4688,826.8212 L181.25,857.2847 L182.0313,806.9536 L182.8125,832.1192 L183.5938,881.1258 L184.375,855.9603 L185.1563,806.9536 L185.9375,805.6292 L186.7188,806.9536 L187.5,802.9801 L188.2813,854.6357 L189.0625,818.8741 L189.8438,784.4371 L190.625,804.3046 L191.4063,911.5894 L192.1875,804.3046 L192.9688,806.9536 L193.75,801.6556 L194.5313,912.9139 L195.3125,882.4503 L196.0938,875.8278 L196.875,804.3046 L197.6563,851.9868 L198.4375,802.9801 L199.2188,882.4503 L200,801.6556 L200.7813,830.7947 L201.5625,858.6093 L202.3438,833.4437 L203.125,784.4371 L203.9063,875.8278 L204.6875,801.6556 L205.4688,805.6292 L206.25,781.7881 L207.0313,781.7881 L207.8125,832.1192 L208.5938,801.6556 L209.375,930.1324 L210.1563,911.5894 L210.9375,854.6357 L211.7188,858.6093 L212.5,881.1258 L213.2813,854.6357 L214.0625,910.2649 L214.8438,826.8212 L215.625,804.3046 L216.4063,802.9801 L217.1875,779.139 L217.9688,804.3046 L218.75,801.6556 L219.5313,851.9868 L220.3125,802.9801 L221.0938,833.4437 L221.875,780.4636 L222.6563,855.9603 L223.4375,948.6755 L224.2188,804.3046 L225,784.4371 L225.7813,806.9536 L226.5625,781.7881 L227.3438,802.9801 L228.125,829.4702 L228.9063,832.1192 L229.6875,783.1125 L230.4688,808.2781 L231.25,824.1722 L232.0313,908.9404 L232.8125,855.9603 L233.5938,801.6556 L234.375,825.4967 L235.1563,824.1722 L235.9375,854.6357 L236.7188,854.6357 L237.5,775.1656 L238.2813,857.2847 L239.0625,780.4636 L239.8438,881.1258 L240.625,832.1192 L241.4063,855.9603 L242.1875,834.7682 L242.9688,857.2847 L243.75,802.9801 L244.5313,853.3113 L245.3125,777.8146 L246.0938,855.9603 L246.875,855.9603 L247.6563,845.3643 L248.4375,853.3113 L249.2188,855.9603 L250,855.9603 L250.7813,805.6292 L251.5625,846.6887 L252.3438,881.1258 L253.125,854.6357 L253.9063,804.3046 L254.6875,857.2847 L255.4688,832.1192 L256.25,877.1523 L257.0313,806.9536 L257.8125,834.7682 L258.5938,855.9603 L259.375,878.4768 L260.1563,855.9603 L260.9375,907.6159 L261.7188,846.6887 L262.5,830.7947 L263.2813,834.7682 L264.0625,806.9536 L264.8438,777.8146 L265.625,858.6093 L266.4063,775.1656 L267.1875,833.4437 L267.9688,781.788 L268.75,781.7881 L269.5313,857.2847 L270.3125,934.106 L271.0938,857.2847 L271.875,780.4636 L272.6563,853.3113 L273.4375,883.7748 L274.2188,857.2847 L275,829.4702 L275.7813,821.5232 L276.5625,832.1192 L277.3438,804.3046 L278.125,911.5894 L278.9063,777.8146 L279.6875,882.4503 L280.4688,751.3245 L281.25,779.1391 L282.0313,853.3113 L282.8125,805.6292 L283.5938,904.9669 L284.375,779.1391 L285.1563,855.9603 L285.9375,800.3311 L286.7188,857.2847 L287.5,910.2649 L288.2813,857.2847 L289.0625,932.7814 L289.8438,777.8146 L290.625,804.3046 L291.4063,855.9603 L292.1875,832.1192 L292.9688,804.3046 L293.75,777.8145 L294.5313,752.649 L295.3125,903.6424 L296.0938,776.4901 L296.875,853.3113 L297.6563,855.9603 L298.4375,854.6357 L299.2188,806.9536 L300,855.9603 L300.7813,779.1391 L301.5625,836.0927 L302.3438,801.6556 L303.125,854.6357 L303.9063,854.6357 L304.6875,801.6556 L305.4688,879.8013 L306.25,805.6292 L307.0313,857.2847 L307.8125,779.1391 L308.5938,802.9801 L309.375,854.6357 L310.1563,800.3311 L310.9375,806.9536 L311.7188,908.9404 L312.5,828.1457 L313.2813,950 L314.0625,907.6159 L314.8438,907.6159 L315.625,858.6093 " stroke="blue" fill="none" />
<text x="50" y="1000" font-family="Arial" font-size="12" fill="black">Episode Length (341)</text>
<text x="50" y="1015" font-family="Arial" font-size="10" fill="black">64</text>
<text x="50" y="1230" font-family="Arial" font-size="10" fill="black">19</text>
<path d="M50,1215.556 L50.78125,1215.556 L51.5625,1202.222 L52.34375,1193.333 L53.125,1171.111 L53.90625,1162.222 L54.6875,1162.222 L55.46875,1157.778 L56.25,1144.444 L57.03125,1140 L57.8125,1140 L58.59375,1135.556 L59.375,1135.556 L60.15625,1126.667 L60.9375,1122.222 L61.71875,1122.222 L62.5,1122.222 L63.28125,1122.222 L64.0625,1122.222 L64.84375,1117.778 L65.625,1117.778 L66.40625,1117.778 L67.1875,1117.778 L67.96875,1117.778 L68.75,1117.778 L69.53125,1117.778 L70.3125,1113.333 L71.09375,1113.333 L71.875,1113.333 L72.65625,1113.333 L73.4375,1113.333 L74.21875,1113.333 L75,1113.333 L75.78125,1113.333 L76.5625,1108.889 L77.34375,1108.889 L78.125,1193.333 L78.90625,1104.444 L79.6875,1104.444 L80.46875,1104.444 L81.25,1211.111 L82.03125,1202.222 L82.8125,1100 L83.59375,1091.111 L84.375,1091.111 L85.15625,1091.111 L85.9375,1171.111 L86.71875,1073.333 L87.5,1197.778 L88.28125,1175.556 L89.0625,1162.222 L89.84375,1206.667 L90.625,1206.667 L91.40625,1157.778 L92.1875,1215.556 L92.96875,1157.778 L93.75,1175.556 L94.53125,1144.444 L95.3125,1157.778 L96.09375,1166.667 L96.875,1171.111 L97.65625,1135.556 L98.4375,1157.778 L99.21875,1157.778 L100,1148.889 L100.7813,1157.778 L101.5625,1140 L102.3438,1162.222 L103.125,1095.556 L103.9063,1188.889 L104.6875,1113.333 L105.4688,1144.444 L106.25,1126.667 L107.0313,1126.667 L107.8125,1206.667 L108.5938,1122.222 L109.375,1166.667 L110.1563,1113.333 L110.9375,1131.111 L111.7188,1117.778 L112.5,1104.444 L113.2813,1113.333 L114.0625,1113.333 L114.8438,1104.444 L115.625,1100 L116.4063,1104.444 L117.1875,1108.889 L117.9688,1091.111 L118.75,1117.778 L119.5313,1095.556 L120.3125,1086.667 L121.0938,1211.111 L121.875,1113.333 L122.6563,1086.667 L123.4375,1211.111 L124.2188,1091.111 L125,1175.556 L125.7813,1166.667 L126.5625,1166.667 L127.3438,1211.111 L128.125,1148.889 L128.9063,1126.667 L129.6875,1166.667 L130.4688,1180 L131.25,1157.778 L132.0313,1162.222 L132.8125,1153.333 L133.5938,1171.111 L134.375,1140 L135.1563,1166.667 L135.9375,1104.444 L136.7188,1144.444 L137.5,1135.556 L138.2813,1162.222 L139.0625,1135.556 L139.8438,1126.667 L140.625,1162.222 L141.4063,1162.222 L142.1875,1104.444 L142.9688,1157.778 L143.75,1162.222 L144.5313,1153.333 L145.3125,1100 L146.0938,1122.222 L146.875,1211.111 L147.6563,1095.556 L148.4375,1122.222 L149.2188,1215.556 L150,1113.333 L150.7813,1140 L151.5625,1122.222 L152.3438,1108.889 L153.125,1104.444 L153.9063,1113.333 L154.6875,1157.778 L155.4688,1086.667 L156.25,1117.778 L157.0313,1117.778 L157.8125,1148.889 L158.5938,1117.778 L159.375,1117.778 L160.1563,1108.889 L160.9375,1131.111 L161.7188,1166.667 L162.5,1157.778 L163.2813,1153.333 L164.0625,1100 L164.8438,1131.111 L165.625,1148.889 L166.4063,1197.778 L167.1875,1108.889 L167.9688,1153.333 L168.75,1122.222 L169.5313,1153.333 L170.3125,1162.222 L171.0938,1193.333 L171.875,1193.333 L172.6563,1166.667 L173.4375,1122.222 L174.2188,1215.556 L175,1126.667 L175.7813,1144.444 L176.5625,1104.444 L177.3438,1157.778 L178.125,1122.222 L178.9063,1153.333 L179.6875,1122.222 L180.4688,1126.667 L181.25,1162.222 L182.0313,1126.667 L182.8125,1144.444 L183.5938,1175.556 L184.375,1157.778 L185.1563,1126.667 L185.9375,1122.222 L186.7188,1126.667 L187.5,1113.333 L188.2813,1153.333 L189.0625,1100 L189.8438,1117.778 L190.625,1117.778 L191.4063,1211.111 L192.1875,1117.778 L192.9688,1126.667 L193.75,1108.889 L194.5313,1215.556 L195.3125,1180 L196.0938,1157.778 L196.875,1117.778 L197.6563,1144.444 L198.4375,1113.333 L199.2188,1180 L200,1108.889 L200.7813,1140 L201.5625,1166.667 L202.3438,1148.889 L203.125,1117.778 L203.9063,1157.778 L204.6875,1108.889 L205.4688,1122.222 L206.25,1108.889 L207.0313,1108.889 L207.8125,1144.444 L208.5938,1108.889 L209.375,1206.667 L210.1563,1211.111 L210.9375,1153.333 L211.7188,1166.667 L212.5,1175.556 L213.2813,1153.333 L214.0625,1206.667 L214.8438,1126.667 L215.625,1117.778 L216.4063,1113.333 L217.1875,1100 L217.9688,1117.778 L218.75,1108.889 L219.5313,1144.444 L220.3125,1113.333 L221.0938,1148.889 L221.875,1104.444 L222.6563,1157.778 L223.4375,1202.222 L224.2188,1117.778 L225,1117.778 L225.7813,1126.667 L226.5625,1108.889 L227.3438,1113.333 L228.125,1135.556 L228.9063,1144.444 L229.6875,1113.333 L230.4688,1131.111 L231.25,1117.778 L232.0313,1202.222 L232.8125,1157.778 L233.5938,1108.889 L234.375,1122.222 L235.1563,1117.778 L235.9375,1153.333 L236.7188,1153.333 L237.5,1086.667 L238.2813,1162.222 L239.0625,1104.444 L239.8438,1175.556 L240.625,1144.444 L241.4063,1157.778 L242.1875,1153.333 L242.9688,1162.222 L243.75,1113.333 L244.5313,1148.889 L245.3125,1095.556 L246.0938,1157.778 L246.875,1157.778 L247.6563,1122.222 L248.4375,1148.889 L249.2188,1157.778 L250,1157.778 L250.7813,1122.222 L251.5625,1126.667 L252.3438,1175.556 L253.125,1153.333 L253.9063,1117.778 L254.6875,1162.222 L255.4688,1144.444 L256.25,1162.222 L257.0313,1126.667 L257.8125,1153.333 L258.5938,1157.778 L259.375,1166.667 L260.1563,1157.778 L260.9375,1197.778 L261.7188,1126.667 L262.5,1140 L263.2813,1153.333 L264.0625,1126.667 L264.8438,1095.556 L265.625,1166.667 L266.4063,1020 L267.1875,1148.889 L267.9688,1108.889 L268.75,1108.889 L269.5313,1162.222 L270.3125,1220 L271.0938,1162.222 L271.875,1104.444 L272.6563,1148.889 L273.4375,1184.444 L274.2188,1162.222 L275,1135.556 L275.7813,1108.889 L276.5625,1144.444 L277.3438,1117.778 L278.125,1211.111 L278.9063,1095.556 L279.6875,1180 L280.4688,1073.333 L281.25,1100 L282.0313,1148.889 L282.8125,1122.222 L283.5938,1188.889 L284.375,1100 L285.1563,1157.778 L285.9375,1104.444 L286.7188,1162.222 L287.5,1206.667 L288.2813,1162.222 L289.0625,1215.556 L289.8438,1095.556 L290.625,1117.778 L291.4063,1157.778 L292.1875,1144.444 L292.9688,1117.778 L293.75,1095.556 L294.5313,1077.778 L295.3125,1184.444 L296.0938,1091.111 L296.875,1148.889 L297.6563,1157.778 L298.4375,1153.333 L299.2188,1126.667 L300,1157.778 L300.7813,1100 L301.5625,1157.778 L302.3438,1108.889 L303.125,1153.333 L303.9063,1153.333 L304.6875,1108.889 L305.4688,1171.111 L306.25,1122.222 L307.0313,1162.222 L307.8125,1100 L308.5938,1113.333 L309.375,1153.333 L310.1563,1104.444 L310.9375,1126.667 L311.7188,1202.222 L312.5,1131.111 L313.2813,1206.667 L314.0625,1197.778 L314.8438,1197.778 L315.625,1166.667 " stroke="blue" fill="none" />
<text x="50" y="1270" font-family="Arial" font-size="12" fill="black">Policy Loss</text>
<text x="50" y="1285" font-family="Arial" font-size="10" fill="black">0.01516639</text>
<text x="50" y="1500" font-family="Arial" font-size="10" fill="black">0.01516639</text>
<path d="M50,1490 " stroke="blue" fill="none" />
<text x="50" y="1540" font-family="Arial" font-size="12" fill="black">Value Loss</text>
<text x="50" y="1555" font-family="Arial" font-size="10" fill="black">0.002175289</text>
<text x="50" y="1770" font-family="Arial" font-size="10" fill="black">0.002175289</text>
<path d="M50,1760 " stroke="blue" fill="none" />
<text x="50" y="1810" font-family="Arial" font-size="12" fill="black">Learning Rate</text>
<text x="50" y="1825" font-family="Arial" font-size="10" fill="black">0.0003</text>
<text x="50" y="2040" font-family="Arial" font-size="10" fill="black">0.0003</text>
<path d="M50,2030 " stroke="blue" fill="none" />
<text x="50" y="2080" font-family="Arial" font-size="12" fill="black">Entropy</text>
<text x="50" y="2095" font-family="Arial" font-size="10" fill="black">0.08374995</text>
<text x="50" y="2310" font-family="Arial" font-size="10" fill="black">0.08374995</text>
<path d="M50,2300 " stroke="blue" fill="none" />
<text x="750" y="730" font-family="Arial" font-size="12" fill="black">Simplified</text>
<text x="750" y="745" font-family="Arial" font-size="10" fill="black">0.7500524</text>
<text x="750" y="960" font-family="Arial" font-size="10" fill="black">0.5587369</text>
<path d="M764.0625,923.0399 L778.9063,750 L793.75,945.8736 L808.5938,914.5117 L823.4375,786.5887 L838.2813,950 L853.125,868.8445 L867.9688,855.3646 L882.8125,905.9835 L897.6563,889.7524 L912.5,897.4553 L927.3438,840.7839 L942.1875,878.4732 L957.0313,911.7607 L971.875,893.0535 L986.7188,882.8748 L1001.563,880.1238 L1015.625,938.3998 " stroke="blue" fill="none" />
<text x="750" y="1000" font-family="Arial" font-size="12" fill="black">Simplified</text>
<text x="750" y="1015" font-family="Arial" font-size="10" fill="black">41.89474</text>
<text x="750" y="1230" font-family="Arial" font-size="10" fill="black">33.78947</text>
<path d="M764.0625,1214.805 L778.9063,1020 L793.75,1209.61 L808.5938,1188.831 L823.4375,1032.987 L838.2813,1220 L853.125,1129.091 L867.9688,1104.416 L882.8125,1187.532 L897.6563,1149.87 L912.5,1166.753 L927.3438,1094.026 L942.1875,1135.584 L957.0313,1156.364 L971.875,1145.974 L986.7188,1136.883 L1001.563,1143.377 L1015.625,1190.13 " stroke="blue" fill="none" />
</svg>
