<svg width="2000" height="2500" xmlns="http://www.w3.org/2000/svg">
<text x="10" y="20" font-family="Arial" font-size="26" fill="black"> [Walker] Training Session</text>
<text x="10" y="50" font-family="Arial" font-size="16" fill="black">[Statistics]</text>
<text x="50" y="70" font-family="Arial" font-size="12" fill="black">Started at: 2:00:32 AM, Wednesday, February 21, 2024</text>
<text x="50" y="90" font-family="Arial" font-size="12" fill="black">Finished at: 2:03:53 AM, Wednesday, February 21, 2024</text>
<text x="50" y="110" font-family="Arial" font-size="12" fill="black">Training Session Time: 0 hrs : 3 min : 18 sec</text>
<text x="50" y="130" font-family="Arial" font-size="12" fill="black">Inference Time: 0 hrs : 34 min : 28 sec        [Device: CPU]</text>
<text x="50" y="150" font-family="Arial" font-size="12" fill="black">Update Time: 0 hrs : 2 min : 3 sec        [Per iteration: 0 hrs : 0 min : 12.535 sec]        [Device: GPU]</text>
<text x="50" y="170" font-family="Arial" font-size="12" fill="black">Episode Count: 1052</text>
<text x="50" y="190" font-family="Arial" font-size="12" fill="black">Inference Steps: 40000</text>
<text x="50" y="210" font-family="Arial" font-size="12" fill="black">Iterations: 10</text>
<text x="50" y="230" font-family="Arial" font-size="12" fill="black">Parallel Agents: 32</text>
<text x="50" y="250" font-family="Arial" font-size="12" fill="black">Timescale: 1</text>
<text x="50" y="270" font-family="Arial" font-size="12" fill="black">Trainer: PPO</text>
<text x="10" y="320" font-family="Arial" font-size="16" fill="black">[Hyperparameters]</text>
<text x="50" y="340" font-family="Arial" font-size="12" fill="black">Buffer Size: 4000        [Batch Size: 250       (x16)]</text>
<text x="50" y="360" font-family="Arial" font-size="12" fill="black">Num Epoch: 8</text>
<text x="50" y="380" font-family="Arial" font-size="12" fill="black">Time Horizon: 512</text>
<text x="50" y="400" font-family="Arial" font-size="12" fill="black">Gradient Cliping by Norm: 0.5</text>
<text x="50" y="420" font-family="Arial" font-size="12" fill="black">Learning Rate Schedule: False    </text>
<text x="10" y="470" font-family="Arial" font-size="16" fill="black">[Behaviour]</text>
<text x="50" y="490" font-family="Arial" font-size="12" fill="black">Space Size: 120</text>
<text x="50" y="510" font-family="Arial" font-size="12" fill="black">Continuous Actions: 36 [Standard Deviation: Fixed]     [Value: 0.28]</text>
<text x="50" y="530" font-family="Arial" font-size="12" fill="black">Discrete Actions: 0</text>
<text x="50" y="550" font-family="Arial" font-size="12" fill="black">TargetFPS: 100 (physics update rate)</text>
<text x="50" y="570" font-family="Arial" font-size="12" fill="black">Observations Normalization: True</text>
<text x="10" y="620" font-family="Arial" font-size="16" fill="black">[Decision Requester]</text>
<text x="50" y="640" font-family="Arial" font-size="12" fill="black">Max Step: 10000</text>
<text x="50" y="660" font-family="Arial" font-size="12" fill="black">Decision Period: 5      [Actions Between Decisions: True]</text>
<text x="10" y="710" font-family="Arial" font-size="16" fill="black">[Graphs]</text>
<text x="50" y="730" font-family="Arial" font-size="12" fill="black">Episode Reward (1052)</text>
<text x="50" y="745" font-family="Arial" font-size="10" fill="black">1.059</text>
<text x="50" y="960" font-family="Arial" font-size="10" fill="black">0.254</text>
<path d="M50,880.4348 L50.39063,897.826 L50.78125,875.4658 L51.17188,856.8323 L51.5625,855.59 L51.95313,874.2236 L52.34375,833.2298 L52.73438,833.2298 L53.125,833.2298 L53.51563,831.9875 L53.90625,850.6211 L54.29688,831.9875 L54.6875,831.9875 L55.07813,830.7453 L55.46875,830.7453 L55.85938,849.3788 L56.25,830.7453 L56.64063,829.5031 L57.03125,829.5031 L57.42188,828.2609 L57.8125,828.2609 L58.20313,828.2609 L58.59375,828.2609 L58.98438,828.2609 L59.375,828.2609 L59.76563,828.2609 L60.15625,828.2609 L60.54688,808.3851 L60.9375,804.6584 L61.32813,822.0497 L61.71875,798.4472 L62.10938,930.1242 L62.5,771.118 L62.89063,881.677 L63.28125,881.677 L63.67188,877.9503 L64.0625,831.9875 L64.45313,871.7391 L64.84375,879.1925 L65.23438,831.9875 L65.625,877.9503 L66.01563,858.0745 L66.40625,876.7081 L66.79688,833.2298 L67.1875,876.7081 L67.57813,831.9875 L67.96875,833.2298 L68.35938,808.3851 L68.75,831.9875 L69.14063,828.2609 L69.53125,828.2609 L69.92188,850.6211 L70.3125,809.6273 L70.70313,829.5031 L71.09375,809.6273 L71.48438,853.1056 L71.875,828.2609 L72.26563,805.9006 L72.65625,809.6273 L73.04688,850.6211 L73.4375,855.59 L73.82813,779.8137 L74.21875,782.2982 L74.60938,795.9627 L75,809.6273 L75.39063,829.5031 L75.78125,859.3168 L76.17188,856.8323 L76.5625,879.1925 L76.95313,879.1925 L77.34375,894.0994 L77.73438,854.3478 L78.125,830.7453 L78.51563,831.9875 L78.90625,896.5839 L79.29688,897.826 L79.6875,858.0745 L80.07813,853.1056 L80.46875,868.0124 L80.85938,833.2298 L81.25,829.5031 L81.64063,830.7453 L82.03125,823.2919 L82.42188,854.3478 L82.8125,830.7453 L83.20313,846.8944 L83.59375,855.59 L83.98438,830.7453 L84.375,808.3851 L84.76563,812.1118 L85.15625,854.3478 L85.54688,830.7453 L85.9375,880.4348 L86.32813,830.7453 L86.71875,827.0186 L87.10938,904.0372 L87.5,928.882 L87.89063,841.9255 L88.28125,880.4348 L88.67188,754.9689 L89.0625,855.59 L89.45313,829.5031 L89.84375,856.8323 L90.23438,809.6273 L90.625,897.826 L91.01563,879.1925 L91.40625,853.1056 L91.79688,880.4348 L92.1875,879.1925 L92.57813,827.0186 L92.96875,876.7081 L93.35938,855.59 L93.75,831.9875 L94.14063,879.1925 L94.53125,874.2236 L94.92188,805.9006 L95.3125,830.7453 L95.70313,858.0745 L96.09375,829.5031 L96.48438,853.1056 L96.875,830.7453 L97.26563,950 L97.65625,828.2609 L98.04688,860.559 L98.4375,808.3851 L98.82813,856.8323 L99.21875,881.677 L99.60938,876.7081 L100,897.826 L100.3906,830.7453 L100.7813,829.5031 L101.1719,882.9193 L101.5625,829.5031 L101.9531,881.677 L102.3438,855.59 L102.7344,828.2609 L103.125,807.1428 L103.5156,928.882 L103.9063,833.2298 L104.2969,856.8323 L104.6875,833.2298 L105.0781,829.5031 L105.4688,846.8944 L105.8594,859.3168 L106.25,830.7453 L106.6406,829.5031 L107.0313,871.7391 L107.4219,877.9503 L107.8125,877.9503 L108.2031,804.6584 L108.5938,831.9875 L108.9844,880.4348 L109.375,808.3851 L109.7656,858.0745 L110.1563,827.0186 L110.5469,803.4161 L110.9375,827.0186 L111.3281,871.7391 L111.7188,830.7453 L112.1094,856.8323 L112.5,829.5031 L112.8906,859.3168 L113.2813,875.4658 L113.6719,828.2609 L114.0625,930.1242 L114.4531,853.1056 L114.8438,807.1428 L115.2344,880.4348 L115.625,829.5031 L116.0156,927.6398 L116.4063,831.9875 L116.7969,855.59 L117.1875,855.59 L117.5781,879.1925 L117.9688,855.59 L118.3594,881.677 L118.75,831.9875 L119.1406,805.9006 L119.5313,880.4348 L119.9219,828.2609 L120.3125,881.677 L120.7031,900.3105 L121.0938,824.5342 L121.4844,850.6211 L121.875,904.0372 L122.2656,913.9752 L122.6563,833.2298 L123.0469,830.7453 L123.4375,830.7453 L123.8281,805.9006 L124.2188,830.7453 L124.6094,854.3478 L125,875.4658 L125.3906,834.472 L125.7813,858.0745 L126.1719,853.1056 L126.5625,833.2298 L126.9531,807.1428 L127.3438,802.1739 L127.7344,809.6273 L128.125,829.5031 L128.5156,879.1925 L128.9063,831.9875 L129.2969,831.9875 L129.6875,853.1056 L130.0781,833.2298 L130.4688,880.4348 L130.8594,877.9503 L131.25,830.7453 L131.6406,880.4348 L132.0313,880.4348 L132.4219,882.9193 L132.8125,828.2609 L133.2031,875.4658 L133.5938,829.5031 L133.9844,901.5528 L134.375,854.3478 L134.7656,877.9503 L135.1563,858.0745 L135.5469,926.3975 L135.9375,858.0745 L136.3281,850.6211 L136.7188,880.4348 L137.1094,831.9875 L137.5,855.59 L137.8906,875.4658 L138.2813,879.1925 L138.6719,830.7453 L139.0625,897.826 L139.4531,897.826 L139.8438,855.59 L140.2344,805.9006 L140.625,877.9503 L141.0156,831.9875 L141.4063,872.9814 L141.7969,855.59 L142.1875,830.7453 L142.5781,833.2298 L142.9688,875.4658 L143.3594,829.5031 L143.75,880.4348 L144.1406,848.1367 L144.5313,830.7453 L144.9219,899.0683 L145.3125,856.8323 L145.7031,856.8323 L146.0938,828.2609 L146.4844,879.1925 L146.875,808.3851 L147.2656,856.8323 L147.6563,860.559 L148.0469,825.7764 L148.4375,881.677 L148.8281,853.1056 L149.2188,876.7081 L149.6094,850.6211 L150,827.0186 L150.3906,871.7391 L150.7813,880.4348 L151.1719,829.5031 L151.5625,799.6895 L151.9531,820.8074 L152.3438,830.7453 L152.7344,808.3851 L153.125,896.5839 L153.5156,833.2298 L153.9063,827.0186 L154.2969,858.0745 L154.6875,800.9316 L155.0781,809.6273 L155.4688,858.0745 L155.8594,876.7081 L156.25,834.472 L156.6406,833.2298 L157.0313,829.5031 L157.4219,833.2298 L157.8125,881.677 L158.2031,822.0497 L158.5938,876.7081 L158.9844,875.4658 L159.375,879.1925 L159.7656,895.3416 L160.1563,877.9503 L160.5469,879.1925 L160.9375,879.1925 L161.3281,834.472 L161.7188,829.5031 L162.1094,831.9875 L162.5,833.2298 L162.8906,846.8944 L163.2813,880.4348 L163.6719,876.7081 L164.0625,854.3478 L164.4531,881.677 L164.8438,828.2609 L165.2344,807.1428 L165.625,833.2298 L166.0156,950 L166.4063,828.2609 L166.7969,876.7081 L167.1875,828.2609 L167.5781,950 L167.9688,853.1056 L168.3594,881.677 L168.75,809.6273 L169.1406,880.4348 L169.5313,879.1925 L169.9219,926.3975 L170.3125,828.2609 L170.7031,882.9193 L171.0938,834.472 L171.4844,865.528 L171.875,930.1242 L172.2656,830.7453 L172.6563,829.5031 L173.0469,829.5031 L173.4375,855.59 L173.8281,830.7453 L174.2188,849.3788 L174.6094,828.2609 L175,830.7453 L175.3906,854.3478 L175.7813,874.2236 L176.1719,830.7453 L176.5625,830.7453 L176.9531,853.1056 L177.3438,828.2609 L177.7344,904.0372 L178.125,879.1925 L178.5156,854.3478 L178.9063,853.1056 L179.2969,881.677 L179.6875,874.2236 L180.0781,879.1925 L180.4688,881.677 L180.8594,827.0186 L181.25,900.3105 L181.6406,856.8323 L182.0313,829.5031 L182.4219,824.5342 L182.8125,858.0745 L183.2031,833.2298 L183.5938,830.7453 L183.9844,880.4348 L184.375,846.8944 L184.7656,879.1925 L185.1563,820.8074 L185.5469,880.4348 L185.9375,879.1925 L186.3281,884.1615 L186.7188,881.677 L187.1094,880.4348 L187.5,858.0745 L187.8906,829.5031 L188.2813,861.8012 L188.6719,833.2298 L189.0625,877.9503 L189.4531,830.7453 L189.8438,871.7391 L190.2344,809.6273 L190.625,828.2609 L191.0156,902.795 L191.4063,833.2298 L191.7969,797.205 L192.1875,858.0745 L192.5781,834.472 L192.9688,808.3851 L193.3594,825.7764 L193.75,825.7764 L194.1406,899.0683 L194.5313,845.6522 L194.9219,879.1925 L195.3125,855.59 L195.7031,776.087 L196.0938,854.3478 L196.4844,880.4348 L196.875,830.7453 L197.2656,876.7081 L197.6563,880.4348 L198.0469,829.5031 L198.4375,880.4348 L198.8281,877.9503 L199.2188,858.0745 L199.6094,824.5341 L200,875.4658 L200.3906,907.764 L200.7813,870.4969 L201.1719,813.354 L201.5625,828.2609 L201.9531,876.7081 L202.3438,807.1428 L202.7344,799.6895 L203.125,833.2298 L203.5156,858.0745 L203.9063,928.882 L204.2969,854.3478 L204.6875,877.9503 L205.0781,851.8633 L205.4688,854.3478 L205.8594,850.6211 L206.25,831.9875 L206.6406,855.59 L207.0313,879.1925 L207.4219,853.1056 L207.8125,872.9814 L208.2031,828.2609 L208.5938,848.1367 L208.9844,851.8633 L209.375,851.8633 L209.7656,880.4348 L210.1563,877.9503 L210.5469,827.0186 L210.9375,877.9503 L211.3281,830.7453 L211.7188,881.677 L212.1094,827.0186 L212.5,825.7764 L212.8906,830.7453 L213.2813,833.2298 L213.6719,851.8633 L214.0625,831.9875 L214.4531,882.9193 L214.8438,831.9875 L215.2344,834.472 L215.625,829.5031 L216.0156,824.5341 L216.4063,854.3478 L216.7969,830.7453 L217.1875,800.9317 L217.5781,875.4658 L217.9688,879.1925 L218.3594,879.1925 L218.75,828.2609 L219.1406,804.6584 L219.5313,808.3851 L219.9219,810.8696 L220.3125,833.2298 L220.7031,825.7764 L221.0938,808.3851 L221.4844,853.1056 L221.875,875.4658 L222.2656,831.9875 L222.6563,846.8944 L223.0469,881.677 L223.4375,829.5031 L223.8281,902.795 L224.2188,830.7453 L224.6094,799.6895 L225,876.7081 L225.3906,854.3478 L225.7813,792.236 L226.1719,877.9503 L226.5625,876.7081 L226.9531,879.1925 L227.3438,850.6211 L227.7344,829.5031 L228.125,876.7081 L228.5156,803.4161 L228.9063,851.8633 L229.2969,823.2919 L229.6875,900.3105 L230.0781,858.0745 L230.4688,831.9875 L230.8594,876.7081 L231.25,828.2609 L231.6406,809.6273 L232.0313,829.5031 L232.4219,856.8323 L232.8125,809.6273 L233.2031,830.7453 L233.5938,905.2795 L233.9844,830.7453 L234.375,901.5528 L234.7656,856.8323 L235.1563,825.7764 L235.5469,834.472 L235.9375,853.1056 L236.3281,851.8633 L236.7188,830.7453 L237.1094,854.3478 L237.5,809.6273 L237.8906,853.1056 L238.2813,829.5031 L238.6719,877.9503 L239.0625,833.2298 L239.4531,833.2298 L239.8438,876.7081 L240.2344,877.9503 L240.625,828.2609 L241.0156,880.4348 L241.4063,866.7702 L241.7969,803.4161 L242.1875,851.8633 L242.5781,876.7081 L242.9688,880.4348 L243.3594,853.1056 L243.75,807.1428 L244.1406,810.8696 L244.5313,880.4348 L244.9219,829.5031 L245.3125,828.2609 L245.7031,856.8323 L246.0938,846.8944 L246.4844,876.7081 L246.875,900.3105 L247.2656,850.6211 L247.6563,828.2609 L248.0469,927.6398 L248.4375,875.4658 L248.8281,804.6584 L249.2188,838.1987 L249.6094,879.1925 L250,874.2236 L250.3906,876.7081 L250.7813,879.1925 L251.1719,895.3416 L251.5625,830.7453 L251.9531,829.5031 L252.3438,865.528 L252.7344,831.9875 L253.125,834.472 L253.5156,833.2298 L253.9063,830.7453 L254.2969,850.6211 L254.6875,831.9875 L255.0781,928.882 L255.4688,803.4161 L255.8594,876.7081 L256.25,879.1925 L256.6406,831.9875 L257.0313,850.6211 L257.4219,856.8323 L257.8125,927.6398 L258.2031,827.0186 L258.5938,928.882 L258.9844,803.4161 L259.375,899.0683 L259.7656,881.677 L260.1563,900.3105 L260.5469,815.8385 L260.9375,828.2609 L261.3281,895.3416 L261.7188,854.3478 L262.1094,834.472 L262.5,875.4658 L262.8906,854.3478 L263.2813,902.795 L263.6719,774.8447 L264.0625,848.1367 L264.4531,851.8633 L264.8438,833.2298 L265.2344,877.9503 L265.625,848.1367 L266.0156,803.4161 L266.4063,879.1925 L266.7969,827.0186 L267.1875,855.59 L267.5781,854.3478 L267.9688,803.4161 L268.3594,880.4348 L268.75,809.6273 L269.1406,860.559 L269.5313,877.9503 L269.9219,882.9193 L270.3125,829.5031 L270.7031,853.1056 L271.0938,809.6273 L271.4844,858.0745 L271.875,848.1367 L272.2656,897.826 L272.6563,830.7453 L273.0469,884.1615 L273.4375,915.2174 L273.8281,833.2298 L274.2188,880.4348 L274.6094,800.9317 L275,875.4658 L275.3906,879.1925 L275.7813,856.8323 L276.1719,877.9503 L276.5625,881.677 L276.9531,897.826 L277.3438,833.2298 L277.7344,828.2609 L278.125,884.1615 L278.5156,825.7764 L278.9063,905.2795 L279.2969,809.6273 L279.6875,825.7764 L280.0781,830.7453 L280.4688,874.2236 L280.8594,879.1925 L281.25,853.1056 L281.6406,855.59 L282.0313,831.9875 L282.4219,829.5031 L282.8125,779.8137 L283.2031,855.59 L283.5938,807.1428 L283.9844,854.3478 L284.375,828.2609 L284.7656,856.8323 L285.1563,858.0745 L285.5469,851.8633 L285.9375,828.2609 L286.3281,874.2236 L286.7188,834.472 L287.1094,855.59 L287.5,840.6832 L287.8906,833.2298 L288.2813,875.4658 L288.6719,828.2609 L289.0625,899.0683 L289.4531,849.3788 L289.8438,830.7453 L290.2344,854.3478 L290.625,881.677 L291.0156,879.1925 L291.4063,831.9875 L291.7969,881.677 L292.1875,808.3851 L292.5781,876.7081 L292.9688,827.0186 L293.3594,854.3478 L293.75,853.1056 L294.1406,829.5031 L294.5313,879.1925 L294.9219,856.8323 L295.3125,779.8137 L295.7031,877.9503 L296.0938,882.9193 L296.4844,827.0186 L296.875,830.7453 L297.2656,860.559 L297.6563,853.1056 L298.0469,850.6211 L298.4375,833.2298 L298.8281,902.795 L299.2188,855.59 L299.6094,880.4348 L300,851.8633 L300.3906,877.9503 L300.7813,882.9193 L301.1719,798.4472 L301.5625,875.4658 L301.9531,850.6211 L302.3438,828.2609 L302.7344,829.5031 L303.125,854.3478 L303.5156,877.9503 L303.9063,855.59 L304.2969,854.3478 L304.6875,849.3788 L305.0781,808.3851 L305.4688,874.2236 L305.8594,853.1056 L306.25,860.559 L306.6407,829.5031 L307.0313,831.9875 L307.4219,875.4658 L307.8125,833.2298 L308.2031,877.9503 L308.5938,834.472 L308.9844,828.2609 L309.375,767.3913 L309.7656,846.8944 L310.1563,899.0683 L310.5469,854.3478 L310.9375,846.8944 L311.3281,833.2298 L311.7188,859.3168 L312.1094,799.6895 L312.5,797.205 L312.8906,851.8633 L313.2813,927.6398 L313.6719,809.6273 L314.0625,831.9875 L314.4532,877.9503 L314.8438,808.3851 L315.2344,833.2298 L315.625,828.2609 L316.0156,879.1925 L316.4063,829.5031 L316.7969,828.2609 L317.1875,879.1925 L317.5781,819.5652 L317.9688,830.7453 L318.3594,831.9875 L318.75,830.7453 L319.1406,879.1925 L319.5313,853.1056 L319.9219,825.7764 L320.3125,795.9627 L320.7031,820.8074 L321.0938,827.0186 L321.4844,833.2298 L321.875,881.677 L322.2657,853.1056 L322.6563,831.9875 L323.0469,827.0186 L323.4375,901.5528 L323.8281,859.3168 L324.2188,856.8323 L324.6094,876.7081 L325,828.2609 L325.3906,833.2298 L325.7813,905.2795 L326.1719,833.2298 L326.5625,829.5031 L326.9531,874.2236 L327.3438,856.8323 L327.7344,853.1056 L328.125,830.7453 L328.5156,829.5031 L328.9063,877.9503 L329.2969,824.5342 L329.6875,810.8696 L330.0782,880.4348 L330.4688,804.6584 L330.8594,876.7081 L331.25,930.1242 L331.6406,877.9503 L332.0313,877.9503 L332.4219,798.4472 L332.8125,828.2609 L333.2031,850.6211 L333.5938,880.4348 L333.9844,831.9875 L334.375,829.5031 L334.7656,880.4348 L335.1563,829.5031 L335.5469,827.0186 L335.9375,809.6273 L336.3281,880.4348 L336.7188,866.7702 L337.1094,827.0186 L337.5,800.9317 L337.8907,831.9875 L338.2813,875.4658 L338.6719,875.4658 L339.0625,850.6211 L339.4531,850.6211 L339.8438,859.3168 L340.2344,916.4597 L340.625,825.7764 L341.0156,828.2609 L341.4063,846.8944 L341.7969,879.1925 L342.1875,879.1925 L342.5781,808.3851 L342.9688,880.4348 L343.3594,831.9875 L343.75,859.3168 L344.1406,829.5031 L344.5313,880.4348 L344.9219,827.0186 L345.3125,853.1056 L345.7032,828.2609 L346.0938,877.9503 L346.4844,827.0186 L346.875,853.1056 L347.2656,833.2298 L347.6563,879.1925 L348.0469,831.9875 L348.4375,880.4348 L348.8281,834.472 L349.2188,827.0186 L349.6094,812.1118 L350,854.3478 L350.3906,853.1056 L350.7813,831.9875 L351.1719,846.8944 L351.5625,829.5031 L351.9531,879.1925 L352.3438,827.0186 L352.7344,803.4161 L353.125,880.4348 L353.5157,825.7764 L353.9063,877.9503 L354.2969,825.7764 L354.6875,805.9006 L355.0781,853.1056 L355.4688,879.1925 L355.8594,799.6895 L356.25,881.677 L356.6406,831.9875 L357.0313,901.5528 L357.4219,869.2546 L357.8125,827.0186 L358.2031,829.5031 L358.5938,851.8633 L358.9844,828.2609 L359.375,900.3105 L359.7656,855.59 L360.1563,877.9503 L360.5469,827.0186 L360.9375,850.6211 L361.3282,877.9503 L361.7188,802.1739 L362.1094,853.1056 L362.5,853.1056 L362.8906,855.59 L363.2813,829.5031 L363.6719,879.1925 L364.0625,845.6522 L364.4531,897.826 L364.8438,902.795 L365.2344,879.1925 L365.625,896.5839 L366.0156,855.59 L366.4063,829.5031 L366.7969,858.0745 L367.1875,830.7453 L367.5781,831.9875 L367.9688,858.0745 L368.3594,877.9503 L368.75,872.9814 L369.1407,905.2795 L369.5313,930.1242 L369.9219,831.9875 L370.3125,882.9193 L370.7031,831.9875 L371.0938,853.1056 L371.4844,830.7453 L371.875,853.1056 L372.2656,897.826 L372.6563,877.9503 L373.0469,834.472 L373.4375,905.2795 L373.8281,879.1925 L374.2188,850.6211 L374.6094,896.5839 L375,807.1428 L375.3906,829.5031 L375.7813,833.2298 L376.1719,833.2298 L376.5625,879.1925 L376.9532,877.9503 L377.3438,897.826 L377.7344,876.7081 L378.125,779.8137 L378.5156,855.59 L378.9063,879.1925 L379.2969,823.2919 L379.6875,854.3478 L380.0781,828.2609 L380.4688,854.3478 L380.8594,859.3168 L381.25,808.3851 L381.6406,804.6584 L382.0313,880.4348 L382.4219,828.2609 L382.8125,875.4658 L383.2031,881.677 L383.5938,809.6273 L383.9844,827.0186 L384.375,928.882 L384.7657,859.3168 L385.1563,827.0186 L385.5469,896.5839 L385.9375,828.2609 L386.3281,831.9875 L386.7188,856.8323 L387.1094,895.3416 L387.5,810.8696 L387.8906,849.3788 L388.2813,853.1056 L388.6719,877.9503 L389.0625,877.9503 L389.4531,853.1056 L389.8438,846.8944 L390.2344,856.8323 L390.625,831.9875 L391.0156,848.1367 L391.4063,876.7081 L391.7969,827.0186 L392.1875,896.5839 L392.5782,805.9006 L392.9688,875.4658 L393.3594,876.7081 L393.75,880.4348 L394.1406,854.3478 L394.5313,900.3105 L394.9219,833.2298 L395.3125,855.59 L395.7031,831.9875 L396.0938,881.677 L396.4844,854.3478 L396.875,805.9006 L397.2656,855.59 L397.6563,830.7453 L398.0469,854.3478 L398.4375,854.3478 L398.8281,880.4348 L399.2188,822.0497 L399.6094,859.3168 L400,828.2609 L400.3907,880.4348 L400.7813,856.8323 L401.1719,828.2609 L401.5625,828.2609 L401.9531,880.4348 L402.3438,854.3478 L402.7344,895.3416 L403.125,856.8323 L403.5156,860.559 L403.9063,833.2298 L404.2969,856.8323 L404.6875,859.3168 L405.0781,848.1367 L405.4688,895.3416 L405.8594,877.9503 L406.25,871.7391 L406.6406,830.7453 L407.0313,830.7453 L407.4219,901.5528 L407.8125,809.6273 L408.2032,831.9875 L408.5938,875.4658 L408.9844,845.6522 L409.375,881.677 L409.7656,856.8323 L410.1563,853.1056 L410.5469,871.7391 L410.9375,829.5031 L411.3281,880.4348 L411.7188,875.4658 L412.1094,906.5217 L412.5,855.59 L412.8906,829.5031 L413.2813,830.7453 L413.6719,872.9814 L414.0625,853.1056 L414.4531,927.6398 L414.8438,894.0994 L415.2344,930.1242 L415.625,879.1925 L416.0157,831.9875 L416.4063,897.826 L416.7969,798.4472 L417.1875,833.2298 L417.5781,859.3168 L417.9688,880.4348 L418.3594,828.2609 L418.75,851.8633 L419.1406,809.6273 L419.5313,812.1118 L419.9219,858.0745 L420.3125,830.7453 L420.7031,805.9006 L421.0938,778.5714 L421.4844,860.559 L421.875,835.7143 L422.2656,830.7453 L422.6563,877.9503 L423.0469,828.2609 L423.4375,876.7081 L423.8282,876.7081 L424.2188,808.3851 L424.6094,886.6459 L425,858.0745 L425.3906,859.3168 L425.7813,827.0186 L426.1719,895.3416 L426.5625,830.7453 L426.9531,877.9503 L427.3438,824.5342 L427.7344,827.0186 L428.125,853.1056 L428.5156,927.6398 L428.9063,828.2609 L429.2969,809.6273 L429.6875,845.6522 L430.0781,833.2298 L430.4688,884.1615 L430.8594,815.8385 L431.25,877.9503 L431.6407,799.6895 L432.0313,803.4161 L432.4219,858.0745 L432.8125,880.4348 L433.2031,851.8633 L433.5938,900.3105 L433.9844,855.59 L434.375,876.7081 L434.7656,876.7081 L435.1563,830.7453 L435.5469,879.1925 L435.9375,828.2609 L436.3281,849.3788 L436.7188,855.59 L437.1094,829.5031 L437.5,800.9317 L437.8906,858.0745 L438.2813,830.7453 L438.6719,829.5031 L439.0625,907.764 L439.4532,927.6398 L439.8438,881.677 L440.2344,830.7453 L440.625,834.472 L441.0156,808.3851 L441.4063,829.5031 L441.7969,856.8323 L442.1875,833.2298 L442.5781,927.6398 L442.9688,851.8633 L443.3594,829.5031 L443.75,902.795 L444.1406,875.4658 L444.5313,829.5031 L444.9219,830.7453 L445.3125,797.205 L445.7031,904.0372 L446.0938,853.1056 L446.4844,828.2609 L446.875,830.7453 L447.2657,750 L447.6563,849.3788 L448.0469,926.3975 L448.4375,881.677 L448.8281,853.1056 L449.2188,829.5031 L449.6094,858.0745 L450,828.2609 L450.3906,899.0683 L450.7813,829.5031 L451.1719,829.5031 L451.5625,880.4348 L451.9531,829.5031 L452.3438,863.0435 L452.7344,809.6273 L453.125,844.4099 L453.5156,833.2298 L453.9063,856.8323 L454.2969,869.2546 L454.6875,877.9503 L455.0782,897.826 L455.4688,849.3788 L455.8594,829.5031 L456.25,879.1925 L456.6406,859.3168 L457.0313,874.2236 L457.4219,830.7453 L457.8125,831.9875 L458.2031,901.5528 L458.5938,808.3851 L458.9844,829.5031 L459.375,828.2609 L459.7656,823.2919 L460.1563,855.59 L460.5469,879.1925 " stroke="blue" fill="none" />
<text x="50" y="1000" font-family="Arial" font-size="12" fill="black">Episode Length (1052)</text>
<text x="50" y="1015" font-family="Arial" font-size="10" fill="black">63</text>
<text x="50" y="1230" font-family="Arial" font-size="10" fill="black">21</text>
<path d="M50,1172.381 L50.39063,1167.619 L50.78125,1153.333 L51.17188,1153.333 L51.5625,1148.571 L51.95313,1148.571 L52.34375,1134.286 L52.73438,1134.286 L53.125,1134.286 L53.51563,1129.524 L53.90625,1129.524 L54.29688,1129.524 L54.6875,1129.524 L55.07813,1124.762 L55.46875,1124.762 L55.85938,1124.762 L56.25,1124.762 L56.64063,1120 L57.03125,1120 L57.42188,1115.238 L57.8125,1115.238 L58.20313,1115.238 L58.59375,1115.238 L58.98438,1115.238 L59.375,1115.238 L59.76563,1115.238 L60.15625,1115.238 L60.54688,1110.476 L60.9375,1096.19 L61.32813,1091.429 L61.71875,1072.381 L62.10938,1215.238 L62.5,1039.048 L62.89063,1172.381 L63.28125,1172.381 L63.67188,1158.095 L64.0625,1124.762 L64.45313,1134.286 L64.84375,1162.857 L65.23438,1124.762 L65.625,1158.095 L66.01563,1153.333 L66.40625,1153.333 L66.79688,1129.524 L67.1875,1153.333 L67.57813,1124.762 L67.96875,1129.524 L68.35938,1105.714 L68.75,1124.762 L69.14063,1110.476 L69.53125,1110.476 L69.92188,1124.762 L70.3125,1110.476 L70.70313,1115.238 L71.09375,1110.476 L71.48438,1134.286 L71.875,1110.476 L72.26563,1096.19 L72.65625,1110.476 L73.04688,1124.762 L73.4375,1143.81 L73.82813,1067.619 L74.21875,1077.143 L74.60938,1058.095 L75,1110.476 L75.39063,1115.238 L75.78125,1158.095 L76.17188,1148.571 L76.5625,1162.857 L76.95313,1162.857 L77.34375,1148.571 L77.73438,1139.048 L78.125,1120 L78.51563,1124.762 L78.90625,1158.095 L79.29688,1162.857 L79.6875,1153.333 L80.07813,1134.286 L80.46875,1120 L80.85938,1129.524 L81.25,1115.238 L81.64063,1120 L82.03125,1091.429 L82.42188,1139.048 L82.8125,1120 L83.20313,1110.476 L83.59375,1143.81 L83.98438,1120 L84.375,1105.714 L84.76563,1120 L85.15625,1139.048 L85.54688,1120 L85.9375,1167.619 L86.32813,1120 L86.71875,1105.714 L87.10938,1186.667 L87.5,1210.476 L87.89063,1091.429 L88.28125,1167.619 L88.67188,1043.81 L89.0625,1143.81 L89.45313,1115.238 L89.84375,1148.571 L90.23438,1110.476 L90.625,1162.857 L91.01563,1162.857 L91.40625,1134.286 L91.79688,1167.619 L92.1875,1162.857 L92.57813,1105.714 L92.96875,1153.333 L93.35938,1143.81 L93.75,1124.762 L94.14063,1162.857 L94.53125,1143.81 L94.92188,1096.19 L95.3125,1120 L95.70313,1153.333 L96.09375,1115.238 L96.48438,1134.286 L96.875,1120 L97.26563,1220 L97.65625,1110.476 L98.04688,1162.857 L98.4375,1105.714 L98.82813,1148.571 L99.21875,1172.381 L99.60938,1153.333 L100,1162.857 L100.3906,1120 L100.7813,1115.238 L101.1719,1177.143 L101.5625,1115.238 L101.9531,1172.381 L102.3438,1143.81 L102.7344,1110.476 L103.125,1100.952 L103.5156,1210.476 L103.9063,1129.524 L104.2969,1148.571 L104.6875,1129.524 L105.0781,1115.238 L105.4688,1110.476 L105.8594,1158.095 L106.25,1120 L106.6406,1115.238 L107.0313,1134.286 L107.4219,1158.095 L107.8125,1158.095 L108.2031,1091.429 L108.5938,1124.762 L108.9844,1167.619 L109.375,1105.714 L109.7656,1153.333 L110.1563,1105.714 L110.5469,1086.667 L110.9375,1105.714 L111.3281,1134.286 L111.7188,1120 L112.1094,1148.571 L112.5,1115.238 L112.8906,1158.095 L113.2813,1148.571 L113.6719,1110.476 L114.0625,1215.238 L114.4531,1134.286 L114.8438,1100.952 L115.2344,1167.619 L115.625,1115.238 L116.0156,1205.714 L116.4063,1124.762 L116.7969,1143.81 L117.1875,1143.81 L117.5781,1162.857 L117.9688,1143.81 L118.3594,1172.381 L118.75,1124.762 L119.1406,1096.19 L119.5313,1167.619 L119.9219,1110.476 L120.3125,1172.381 L120.7031,1172.381 L121.0938,1096.19 L121.4844,1124.762 L121.875,1186.667 L122.2656,1153.333 L122.6563,1129.524 L123.0469,1120 L123.4375,1120 L123.8281,1096.19 L124.2188,1120 L124.6094,1139.048 L125,1148.571 L125.3906,1134.286 L125.7813,1153.333 L126.1719,1134.286 L126.5625,1129.524 L126.9531,1100.952 L127.3438,1081.905 L127.7344,1110.476 L128.125,1115.238 L128.5156,1162.857 L128.9063,1124.762 L129.2969,1124.762 L129.6875,1134.286 L130.0781,1129.524 L130.4688,1167.619 L130.8594,1158.095 L131.25,1120 L131.6406,1167.619 L132.0313,1167.619 L132.4219,1177.143 L132.8125,1110.476 L133.2031,1148.571 L133.5938,1115.238 L133.9844,1177.143 L134.375,1139.048 L134.7656,1158.095 L135.1563,1153.333 L135.5469,1200.952 L135.9375,1153.333 L136.3281,1124.762 L136.7188,1167.619 L137.1094,1124.762 L137.5,1143.81 L137.8906,1148.571 L138.2813,1162.857 L138.6719,1120 L139.0625,1162.857 L139.4531,1162.857 L139.8438,1143.81 L140.2344,1096.19 L140.625,1158.095 L141.0156,1124.762 L141.4063,1139.048 L141.7969,1143.81 L142.1875,1120 L142.5781,1129.524 L142.9688,1148.571 L143.3594,1115.238 L143.75,1167.619 L144.1406,1115.238 L144.5313,1120 L144.9219,1167.619 L145.3125,1148.571 L145.7031,1148.571 L146.0938,1110.476 L146.4844,1162.857 L146.875,1105.714 L147.2656,1148.571 L147.6563,1162.857 L148.0469,1100.952 L148.4375,1172.381 L148.8281,1134.286 L149.2188,1153.333 L149.6094,1124.762 L150,1105.714 L150.3906,1134.286 L150.7813,1167.619 L151.1719,1115.238 L151.5625,1072.381 L151.9531,1081.905 L152.3438,1120 L152.7344,1105.714 L153.125,1158.095 L153.5156,1129.524 L153.9063,1105.714 L154.2969,1153.333 L154.6875,1077.143 L155.0781,1110.476 L155.4688,1153.333 L155.8594,1153.333 L156.25,1134.286 L156.6406,1129.524 L157.0313,1115.238 L157.4219,1129.524 L157.8125,1172.381 L158.2031,1086.667 L158.5938,1153.333 L158.9844,1148.571 L159.375,1162.857 L159.7656,1153.333 L160.1563,1158.095 L160.5469,1162.857 L160.9375,1162.857 L161.3281,1134.286 L161.7188,1115.238 L162.1094,1124.762 L162.5,1129.524 L162.8906,1110.476 L163.2813,1167.619 L163.6719,1153.333 L164.0625,1139.048 L164.4531,1172.381 L164.8438,1110.476 L165.2344,1100.952 L165.625,1129.524 L166.0156,1220 L166.4063,1110.476 L166.7969,1153.333 L167.1875,1110.476 L167.5781,1220 L167.9688,1134.286 L168.3594,1172.381 L168.75,1110.476 L169.1406,1167.619 L169.5313,1162.857 L169.9219,1200.952 L170.3125,1110.476 L170.7031,1177.143 L171.0938,1134.286 L171.4844,1110.476 L171.875,1215.238 L172.2656,1120 L172.6563,1115.238 L173.0469,1115.238 L173.4375,1143.81 L173.8281,1120 L174.2188,1120 L174.6094,1110.476 L175,1120 L175.3906,1139.048 L175.7813,1143.81 L176.1719,1120 L176.5625,1120 L176.9531,1134.286 L177.3438,1110.476 L177.7344,1186.667 L178.125,1162.857 L178.5156,1139.048 L178.9063,1134.286 L179.2969,1172.381 L179.6875,1143.81 L180.0781,1162.857 L180.4688,1172.381 L180.8594,1105.714 L181.25,1172.381 L181.6406,1148.571 L182.0313,1115.238 L182.4219,1096.19 L182.8125,1153.333 L183.2031,1129.524 L183.5938,1120 L183.9844,1167.619 L184.375,1110.476 L184.7656,1162.857 L185.1563,1081.905 L185.5469,1167.619 L185.9375,1162.857 L186.3281,1181.905 L186.7188,1172.381 L187.1094,1167.619 L187.5,1153.333 L187.8906,1115.238 L188.2813,1167.619 L188.6719,1129.524 L189.0625,1158.095 L189.4531,1120 L189.8438,1134.286 L190.2344,1110.476 L190.625,1110.476 L191.0156,1181.905 L191.4063,1129.524 L191.7969,1062.857 L192.1875,1153.333 L192.5781,1134.286 L192.9688,1105.714 L193.3594,1100.952 L193.75,1100.952 L194.1406,1167.619 L194.5313,1105.714 L194.9219,1162.857 L195.3125,1143.81 L195.7031,1053.333 L196.0938,1139.048 L196.4844,1167.619 L196.875,1120 L197.2656,1153.333 L197.6563,1167.619 L198.0469,1115.238 L198.4375,1167.619 L198.8281,1158.095 L199.2188,1153.333 L199.6094,1096.19 L200,1148.571 L200.3906,1200.952 L200.7813,1129.524 L201.1719,1124.762 L201.5625,1110.476 L201.9531,1153.333 L202.3438,1100.952 L202.7344,1072.381 L203.125,1129.524 L203.5156,1153.333 L203.9063,1210.476 L204.2969,1139.048 L204.6875,1158.095 L205.0781,1129.524 L205.4688,1139.048 L205.8594,1124.762 L206.25,1124.762 L206.6406,1143.81 L207.0313,1162.857 L207.4219,1134.286 L207.8125,1139.048 L208.2031,1110.476 L208.5938,1115.238 L208.9844,1129.524 L209.375,1129.524 L209.7656,1167.619 L210.1563,1158.095 L210.5469,1105.714 L210.9375,1158.095 L211.3281,1120 L211.7188,1172.381 L212.1094,1105.714 L212.5,1100.952 L212.8906,1120 L213.2813,1129.524 L213.6719,1129.524 L214.0625,1124.762 L214.4531,1177.143 L214.8438,1124.762 L215.2344,1134.286 L215.625,1115.238 L216.0156,1096.19 L216.4063,1139.048 L216.7969,1120 L217.1875,1077.143 L217.5781,1148.571 L217.9688,1162.857 L218.3594,1162.857 L218.75,1110.476 L219.1406,1091.429 L219.5313,1105.714 L219.9219,1115.238 L220.3125,1129.524 L220.7031,1100.952 L221.0938,1105.714 L221.4844,1134.286 L221.875,1148.571 L222.2656,1124.762 L222.6563,1110.476 L223.0469,1172.381 L223.4375,1115.238 L223.8281,1181.905 L224.2188,1120 L224.6094,1072.381 L225,1153.333 L225.3906,1139.048 L225.7813,1043.81 L226.1719,1158.095 L226.5625,1153.333 L226.9531,1162.857 L227.3438,1124.762 L227.7344,1115.238 L228.125,1153.333 L228.5156,1086.667 L228.9063,1129.524 L229.2969,1091.429 L229.6875,1172.381 L230.0781,1153.333 L230.4688,1124.762 L230.8594,1153.333 L231.25,1110.476 L231.6406,1110.476 L232.0313,1115.238 L232.4219,1148.571 L232.8125,1110.476 L233.2031,1120 L233.5938,1191.429 L233.9844,1120 L234.375,1177.143 L234.7656,1148.571 L235.1563,1100.952 L235.5469,1134.286 L235.9375,1134.286 L236.3281,1129.524 L236.7188,1120 L237.1094,1139.048 L237.5,1110.476 L237.8906,1134.286 L238.2813,1115.238 L238.6719,1158.095 L239.0625,1129.524 L239.4531,1129.524 L239.8438,1153.333 L240.2344,1158.095 L240.625,1110.476 L241.0156,1167.619 L241.4063,1115.238 L241.7969,1086.667 L242.1875,1129.524 L242.5781,1153.333 L242.9688,1167.619 L243.3594,1134.286 L243.75,1100.952 L244.1406,1115.238 L244.5313,1167.619 L244.9219,1115.238 L245.3125,1110.476 L245.7031,1148.571 L246.0938,1110.476 L246.4844,1153.333 L246.875,1172.381 L247.2656,1124.762 L247.6563,1110.476 L248.0469,1205.714 L248.4375,1148.571 L248.8281,1091.429 L249.2188,1077.143 L249.6094,1162.857 L250,1143.81 L250.3906,1153.333 L250.7813,1162.857 L251.1719,1153.333 L251.5625,1120 L251.9531,1115.238 L252.3438,1110.476 L252.7344,1124.762 L253.125,1134.286 L253.5156,1129.524 L253.9063,1120 L254.2969,1124.762 L254.6875,1124.762 L255.0781,1210.476 L255.4688,1086.667 L255.8594,1153.333 L256.25,1162.857 L256.6406,1124.762 L257.0313,1124.762 L257.4219,1148.571 L257.8125,1205.714 L258.2031,1105.714 L258.5938,1210.476 L258.9844,1086.667 L259.375,1167.619 L259.7656,1172.381 L260.1563,1172.381 L260.5469,1062.857 L260.9375,1110.476 L261.3281,1153.333 L261.7188,1139.048 L262.1094,1134.286 L262.5,1148.571 L262.8906,1139.048 L263.2813,1181.905 L263.6719,1048.571 L264.0625,1115.238 L264.4531,1129.524 L264.8438,1129.524 L265.2344,1158.095 L265.625,1115.238 L266.0156,1086.667 L266.4063,1162.857 L266.7969,1105.714 L267.1875,1143.81 L267.5781,1139.048 L267.9688,1086.667 L268.3594,1167.619 L268.75,1110.476 L269.1406,1162.857 L269.5313,1158.095 L269.9219,1105.714 L270.3125,1115.238 L270.7031,1134.286 L271.0938,1110.476 L271.4844,1153.333 L271.875,1115.238 L272.2656,1162.857 L272.6563,1120 L273.0469,1181.905 L273.4375,1158.095 L273.8281,1129.524 L274.2188,1167.619 L274.6094,1077.143 L275,1148.571 L275.3906,1162.857 L275.7813,1148.571 L276.1719,1158.095 L276.5625,1172.381 L276.9531,1162.857 L277.3438,1129.524 L277.7344,1110.476 L278.125,1181.905 L278.5156,1100.952 L278.9063,1191.429 L279.2969,1110.476 L279.6875,1100.952 L280.0781,1120 L280.4688,1143.81 L280.8594,1162.857 L281.25,1134.286 L281.6406,1143.81 L282.0313,1124.762 L282.4219,1115.238 L282.8125,1067.619 L283.2031,1143.81 L283.5938,1100.952 L283.9844,1139.048 L284.375,1110.476 L284.7656,1148.571 L285.1563,1153.333 L285.5469,1129.524 L285.9375,1110.476 L286.3281,1143.81 L286.7188,1134.286 L287.1094,1143.81 L287.5,1086.667 L287.8906,1129.524 L288.2813,1148.571 L288.6719,1110.476 L289.0625,1167.619 L289.4531,1120 L289.8438,1120 L290.2344,1139.048 L290.625,1172.381 L291.0156,1162.857 L291.4063,1124.762 L291.7969,1172.381 L292.1875,1105.714 L292.5781,1153.333 L292.9688,1105.714 L293.3594,1139.048 L293.75,1134.286 L294.1406,1115.238 L294.5313,1162.857 L294.9219,1148.571 L295.3125,1067.619 L295.7031,1158.095 L296.0938,1177.143 L296.4844,1105.714 L296.875,1120 L297.2656,1162.857 L297.6563,1134.286 L298.0469,1124.762 L298.4375,1129.524 L298.8281,1181.905 L299.2188,1143.81 L299.6094,1167.619 L300,1129.524 L300.3906,1158.095 L300.7813,1177.143 L301.1719,1067.619 L301.5625,1148.571 L301.9531,1124.762 L302.3438,1110.476 L302.7344,1115.238 L303.125,1139.048 L303.5156,1158.095 L303.9063,1143.81 L304.2969,1139.048 L304.6875,1120 L305.0781,1105.714 L305.4688,1143.81 L305.8594,1134.286 L306.25,1162.857 L306.6407,1115.238 L307.0313,1124.762 L307.4219,1148.571 L307.8125,1129.524 L308.2031,1158.095 L308.5938,1134.286 L308.9844,1110.476 L309.375,1020 L309.7656,1110.476 L310.1563,1167.619 L310.5469,1139.048 L310.9375,1110.476 L311.3281,1129.524 L311.7188,1158.095 L312.1094,1072.381 L312.5,1062.857 L312.8906,1129.524 L313.2813,1205.714 L313.6719,1110.476 L314.0625,1124.762 L314.4532,1158.095 L314.8438,1105.714 L315.2344,1129.524 L315.625,1110.476 L316.0156,1162.857 L316.4063,1115.238 L316.7969,1110.476 L317.1875,1162.857 L317.5781,1077.143 L317.9688,1120 L318.3594,1124.762 L318.75,1120 L319.1406,1162.857 L319.5313,1134.286 L319.9219,1100.952 L320.3125,1058.095 L320.7031,1081.905 L321.0938,1105.714 L321.4844,1129.524 L321.875,1172.381 L322.2657,1134.286 L322.6563,1124.762 L323.0469,1105.714 L323.4375,1177.143 L323.8281,1158.095 L324.2188,1148.571 L324.6094,1153.333 L325,1110.476 L325.3906,1129.524 L325.7813,1191.429 L326.1719,1129.524 L326.5625,1115.238 L326.9531,1143.81 L327.3438,1148.571 L327.7344,1134.286 L328.125,1120 L328.5156,1115.238 L328.9063,1158.095 L329.2969,1096.19 L329.6875,1115.238 L330.0782,1167.619 L330.4688,1091.429 L330.8594,1153.333 L331.25,1215.238 L331.6406,1158.095 L332.0313,1158.095 L332.4219,1067.619 L332.8125,1110.476 L333.2031,1124.762 L333.5938,1167.619 L333.9844,1124.762 L334.375,1115.238 L334.7656,1167.619 L335.1563,1115.238 L335.5469,1105.714 L335.9375,1110.476 L336.3281,1167.619 L336.7188,1115.238 L337.1094,1105.714 L337.5,1077.143 L337.8907,1124.762 L338.2813,1148.571 L338.6719,1148.571 L339.0625,1124.762 L339.4531,1124.762 L339.8438,1158.095 L340.2344,1162.857 L340.625,1100.952 L341.0156,1110.476 L341.4063,1110.476 L341.7969,1162.857 L342.1875,1162.857 L342.5781,1105.714 L342.9688,1167.619 L343.3594,1124.762 L343.75,1158.095 L344.1406,1115.238 L344.5313,1167.619 L344.9219,1105.714 L345.3125,1134.286 L345.7032,1110.476 L346.0938,1158.095 L346.4844,1105.714 L346.875,1134.286 L347.2656,1129.524 L347.6563,1162.857 L348.0469,1124.762 L348.4375,1167.619 L348.8281,1134.286 L349.2188,1105.714 L349.6094,1120 L350,1139.048 L350.3906,1134.286 L350.7813,1124.762 L351.1719,1110.476 L351.5625,1115.238 L351.9531,1162.857 L352.3438,1105.714 L352.7344,1086.667 L353.125,1167.619 L353.5157,1100.952 L353.9063,1158.095 L354.2969,1100.952 L354.6875,1096.19 L355.0781,1134.286 L355.4688,1162.857 L355.8594,1072.381 L356.25,1172.381 L356.6406,1124.762 L357.0313,1177.143 L357.4219,1124.762 L357.8125,1105.714 L358.2031,1115.238 L358.5938,1129.524 L358.9844,1110.476 L359.375,1172.381 L359.7656,1143.81 L360.1563,1158.095 L360.5469,1105.714 L360.9375,1124.762 L361.3282,1158.095 L361.7188,1081.905 L362.1094,1134.286 L362.5,1134.286 L362.8906,1143.81 L363.2813,1115.238 L363.6719,1162.857 L364.0625,1105.714 L364.4531,1162.857 L364.8438,1181.905 L365.2344,1162.857 L365.625,1158.095 L366.0156,1143.81 L366.4063,1115.238 L366.7969,1153.333 L367.1875,1120 L367.5781,1124.762 L367.9688,1153.333 L368.3594,1158.095 L368.75,1139.048 L369.1407,1191.429 L369.5313,1215.238 L369.9219,1124.762 L370.3125,1177.143 L370.7031,1124.762 L371.0938,1134.286 L371.4844,1120 L371.875,1134.286 L372.2656,1162.857 L372.6563,1158.095 L373.0469,1134.286 L373.4375,1191.429 L373.8281,1162.857 L374.2188,1124.762 L374.6094,1158.095 L375,1100.952 L375.3906,1115.238 L375.7813,1129.524 L376.1719,1129.524 L376.5625,1162.857 L376.9532,1158.095 L377.3438,1162.857 L377.7344,1153.333 L378.125,1067.619 L378.5156,1143.81 L378.9063,1162.857 L379.2969,1091.429 L379.6875,1139.048 L380.0781,1110.476 L380.4688,1139.048 L380.8594,1158.095 L381.25,1105.714 L381.6406,1091.429 L382.0313,1167.619 L382.4219,1110.476 L382.8125,1148.571 L383.2031,1172.381 L383.5938,1110.476 L383.9844,1105.714 L384.375,1210.476 L384.7657,1158.095 L385.1563,1105.714 L385.5469,1158.095 L385.9375,1110.476 L386.3281,1124.762 L386.7188,1148.571 L387.1094,1153.333 L387.5,1115.238 L387.8906,1120 L388.2813,1134.286 L388.6719,1158.095 L389.0625,1158.095 L389.4531,1134.286 L389.8438,1110.476 L390.2344,1148.571 L390.625,1124.762 L391.0156,1115.238 L391.4063,1153.333 L391.7969,1105.714 L392.1875,1158.095 L392.5782,1096.19 L392.9688,1148.571 L393.3594,1153.333 L393.75,1167.619 L394.1406,1139.048 L394.5313,1172.381 L394.9219,1129.524 L395.3125,1143.81 L395.7031,1124.762 L396.0938,1172.381 L396.4844,1139.048 L396.875,1096.19 L397.2656,1143.81 L397.6563,1120 L398.0469,1139.048 L398.4375,1139.048 L398.8281,1167.619 L399.2188,1086.667 L399.6094,1158.095 L400,1110.476 L400.3907,1167.619 L400.7813,1148.571 L401.1719,1110.476 L401.5625,1110.476 L401.9531,1167.619 L402.3438,1139.048 L402.7344,1153.333 L403.125,1148.571 L403.5156,1162.857 L403.9063,1129.524 L404.2969,1148.571 L404.6875,1158.095 L405.0781,1115.238 L405.4688,1153.333 L405.8594,1158.095 L406.25,1134.286 L406.6406,1120 L407.0313,1120 L407.4219,1177.143 L407.8125,1110.476 L408.2032,1124.762 L408.5938,1148.571 L408.9844,1105.714 L409.375,1172.381 L409.7656,1148.571 L410.1563,1134.286 L410.5469,1134.286 L410.9375,1115.238 L411.3281,1167.619 L411.7188,1148.571 L412.1094,1196.19 L412.5,1143.81 L412.8906,1115.238 L413.2813,1120 L413.6719,1139.048 L414.0625,1134.286 L414.4531,1205.714 L414.8438,1148.571 L415.2344,1215.238 L415.625,1162.857 L416.0157,1124.762 L416.4063,1162.857 L416.7969,1067.619 L417.1875,1129.524 L417.5781,1158.095 L417.9688,1167.619 L418.3594,1110.476 L418.75,1129.524 L419.1406,1110.476 L419.5313,1120 L419.9219,1153.333 L420.3125,1120 L420.7031,1096.19 L421.0938,1062.857 L421.4844,1162.857 L421.875,1139.048 L422.2656,1120 L422.6563,1158.095 L423.0469,1110.476 L423.4375,1153.333 L423.8282,1153.333 L424.2188,1105.714 L424.6094,1120 L425,1153.333 L425.3906,1158.095 L425.7813,1105.714 L426.1719,1153.333 L426.5625,1120 L426.9531,1158.095 L427.3438,1096.19 L427.7344,1105.714 L428.125,1134.286 L428.5156,1205.714 L428.9063,1110.476 L429.2969,1110.476 L429.6875,1105.714 L430.0781,1058.095 L430.4688,1181.905 L430.8594,1062.857 L431.25,1158.095 L431.6407,1072.381 L432.0313,1086.667 L432.4219,1153.333 L432.8125,1167.619 L433.2031,1129.524 L433.5938,1172.381 L433.9844,1143.81 L434.375,1153.333 L434.7656,1153.333 L435.1563,1120 L435.5469,1162.857 L435.9375,1110.476 L436.3281,1120 L436.7188,1143.81 L437.1094,1115.238 L437.5,1077.143 L437.8906,1153.333 L438.2813,1120 L438.6719,1115.238 L439.0625,1200.952 L439.4532,1205.714 L439.8438,1172.381 L440.2344,1120 L440.625,1134.286 L441.0156,1105.714 L441.4063,1115.238 L441.7969,1148.571 L442.1875,1129.524 L442.5781,1205.714 L442.9688,1129.524 L443.3594,1115.238 L443.75,1181.905 L444.1406,1148.571 L444.5313,1115.238 L444.9219,1120 L445.3125,1062.857 L445.7031,1186.667 L446.0938,1134.286 L446.4844,1110.476 L446.875,1120 L447.2657,1024.762 L447.6563,1120 L448.0469,1200.952 L448.4375,1172.381 L448.8281,1134.286 L449.2188,1115.238 L449.6094,1153.333 L450,1110.476 L450.3906,1167.619 L450.7813,1115.238 L451.1719,1115.238 L451.5625,1167.619 L451.9531,1115.238 L452.3438,1100.952 L452.7344,1110.476 L453.125,1100.952 L453.5156,1129.524 L453.9063,1148.571 L454.2969,1124.762 L454.6875,1158.095 L455.0782,1162.857 L455.4688,1120 L455.8594,1115.238 L456.25,1162.857 L456.6406,1158.095 L457.0313,1143.81 L457.4219,1120 L457.8125,1124.762 L458.2031,1177.143 L458.5938,1105.714 L458.9844,1115.238 L459.375,1110.476 L459.7656,1091.429 L460.1563,1143.81 L460.5469,1162.857 " stroke="blue" fill="none" />
<text x="50" y="1270" font-family="Arial" font-size="12" fill="black">Policy Loss</text>
<text x="50" y="1285" font-family="Arial" font-size="10" fill="black">0.03434939</text>
<text x="50" y="1500" font-family="Arial" font-size="10" fill="black">0.02963151</text>
<path d="M50,1402.139 L75,1402.559 L100,1490 L125,1360.537 L150,1371.948 L175,1295.477 L200,1447.082 L225,1425.258 L250,1355.127 L275,1290 " stroke="blue" fill="none" />
<text x="50" y="1540" font-family="Arial" font-size="12" fill="black">Value Loss</text>
<text x="50" y="1555" font-family="Arial" font-size="10" fill="black">0.002051603</text>
<text x="50" y="1770" font-family="Arial" font-size="10" fill="black">0.00152433</text>
<path d="M50,1671.128 L75,1674.071 L100,1760 L125,1581.419 L150,1720.894 L175,1576.918 L200,1752.05 L225,1695.703 L250,1621.654 L275,1560.004 " stroke="blue" fill="none" />
<text x="50" y="1810" font-family="Arial" font-size="12" fill="black">Learning Rate</text>
<text x="50" y="1825" font-family="Arial" font-size="10" fill="black">0.0001</text>
<text x="50" y="2040" font-family="Arial" font-size="10" fill="black">0.0001</text>
<path d="M50,2030 L75,2030 L100,2030 L125,2030 L150,2030 L175,2030 L200,2030 L225,2030 L250,2030 L275,2030 " stroke="blue" fill="none" />
<text x="50" y="2080" font-family="Arial" font-size="12" fill="black">Entropy</text>
<text x="50" y="2095" font-family="Arial" font-size="10" fill="black">0.2822049</text>
<text x="50" y="2310" font-family="Arial" font-size="10" fill="black">0.2800002</text>
<path d="M50,2300 L75,2101.563 L100,2100.014 L125,2100.001 L150,2100.001 L175,2100.001 L200,2100.001 L225,2100.001 L250,2100.001 L275,2100.001 " stroke="blue" fill="none" />
<text x="750" y="730" font-family="Arial" font-size="12" fill="black">Simplified</text>
<text x="750" y="745" font-family="Arial" font-size="10" fill="black">0.7082105</text>
<text x="750" y="960" font-family="Arial" font-size="10" fill="black">0.5913684</text>
<path d="M757.0313,815.7656 L764.4531,750 L771.875,775.6757 L779.2969,783.784 L786.7188,768.9189 L794.1406,900.901 L801.5625,862.162 L808.9844,844.1442 L816.4063,833.3334 L823.8281,874.7747 L831.25,786.4865 L838.6719,950 L846.0938,880.1802 L853.5156,817.117 L860.9375,866.6669 L868.3594,895.045 L875.7813,874.7748 L883.2031,885.5857 L890.625,880.1802 L898.0469,818.018 L905.4688,885.1351 L912.8906,850.4505 L920.3125,757.2073 L927.7344,828.829 L935.1563,822.9728 L942.5781,828.8289 L950,874.3245 L957.4219,863.0632 L964.8438,906.3063 L972.2656,840.9911 L979.6875,902.2523 L987.1094,798.1983 L994.5313,861.7119 L1001.953,867.1172 L1009.375,792.793 L1016.797,799.5497 L1024.219,798.1982 L1031.641,868.9189 L1039.063,803.1531 L1046.484,852.7028 L1053.906,806.3064 L1061.328,847.2974 L1068.75,896.3965 L1076.172,916.2162 L1083.594,840.0901 L1091.016,877.4775 L1098.438,875.2253 L1105.859,893.6938 L1113.281,881.5315 L1120.703,876.5766 L1128.125,825.2253 L1135.547,869.3695 L1142.969,846.3964 L1150.391,840.991 L1157.813,847.7477 L1160.547,814.6718 " stroke="blue" fill="none" />
<text x="750" y="1000" font-family="Arial" font-size="12" fill="black">Simplified</text>
<text x="750" y="1015" font-family="Arial" font-size="10" fill="black">41.68421</text>
<text x="750" y="1230" font-family="Arial" font-size="10" fill="black">35.57895</text>
<path d="M757.0313,1126.897 L764.4531,1020 L771.875,1070 L779.2969,1049.31 L786.7188,1044.138 L794.1406,1161.379 L801.5625,1142.414 L808.9844,1125.172 L816.4063,1109.655 L823.8281,1138.966 L831.25,1085.517 L838.6719,1220 L846.0938,1133.793 L853.5156,1073.448 L860.9375,1133.793 L868.3594,1164.828 L875.7813,1138.966 L883.2031,1154.483 L890.625,1159.655 L898.0469,1076.897 L905.4688,1152.759 L912.8906,1097.586 L920.3125,1051.035 L927.7344,1066.552 L935.1563,1095.862 L942.5781,1092.414 L950,1111.379 L957.4219,1120 L964.8438,1130.345 L972.2656,1087.241 L979.6875,1166.552 L987.1094,1078.621 L994.5313,1114.828 L1001.953,1135.517 L1009.375,1057.931 L1016.797,1057.931 L1024.219,1052.759 L1031.641,1142.414 L1039.063,1045.862 L1046.484,1106.207 L1053.906,1083.793 L1061.328,1085.517 L1068.75,1144.138 L1076.172,1194.138 L1083.594,1109.655 L1091.016,1123.448 L1098.438,1140.69 L1105.859,1159.655 L1113.281,1138.966 L1120.703,1145.862 L1128.125,1078.621 L1135.547,1092.414 L1142.969,1133.793 L1150.391,1087.241 L1157.813,1087.241 L1160.547,1075.172 " stroke="blue" fill="none" />
</svg>
