<svg width="2000" height="2500" xmlns="http://www.w3.org/2000/svg">
<text x="10" y="20" font-family="Arial" font-size="26" fill="black"> [Walker] Training Session</text>
<text x="10" y="50" font-family="Arial" font-size="16" fill="black">[Statistics]</text>
<text x="50" y="70" font-family="Arial" font-size="12" fill="black">Started at: 1:24:09 PM, Friday, February 9, 2024</text>
<text x="50" y="90" font-family="Arial" font-size="12" fill="black">Finished at: 1:28:07 PM, Friday, February 9, 2024</text>
<text x="50" y="110" font-family="Arial" font-size="12" fill="black">Training Session Time: 0 hrs : 3 min : 55 sec</text>
<text x="50" y="130" font-family="Arial" font-size="12" fill="black">Inference Time: 0 hrs : 51 min : 24 sec        [Device: CPU]</text>
<text x="50" y="150" font-family="Arial" font-size="12" fill="black">Update Time: 0 hrs : 2 min : 8 sec        [Per iteration: 0 hrs : 0 min : 42.861 sec]        [Device: GPU]</text>
<text x="50" y="170" font-family="Arial" font-size="12" fill="black">Episode Count: 1684</text>
<text x="50" y="190" font-family="Arial" font-size="12" fill="black">Inference Steps: 60000</text>
<text x="50" y="210" font-family="Arial" font-size="12" fill="black">Iterations: 3</text>
<text x="50" y="230" font-family="Arial" font-size="12" fill="black">Parallel Agents: 32</text>
<text x="50" y="250" font-family="Arial" font-size="12" fill="black">Timescale: 1</text>
<text x="50" y="270" font-family="Arial" font-size="12" fill="black">Trainer: PPO</text>
<text x="10" y="320" font-family="Arial" font-size="16" fill="black">[Hyperparameters]</text>
<text x="50" y="340" font-family="Arial" font-size="12" fill="black">Buffer Size: 20000        [Batch Size: 1000       (x20)]</text>
<text x="50" y="360" font-family="Arial" font-size="12" fill="black">Num Epoch: 8</text>
<text x="50" y="380" font-family="Arial" font-size="12" fill="black">Time Horizon: 128</text>
<text x="50" y="400" font-family="Arial" font-size="12" fill="black">Gradient Cliping by Norm: 0.5</text>
<text x="50" y="420" font-family="Arial" font-size="12" fill="black">Learning Rate Schedule: False    </text>
<text x="10" y="470" font-family="Arial" font-size="16" fill="black">[Behaviour]</text>
<text x="50" y="490" font-family="Arial" font-size="12" fill="black">Space Size: 120</text>
<text x="50" y="510" font-family="Arial" font-size="12" fill="black">Continuous Actions: 36 [Standard Deviation: Fixed]     [Value: 0.35]</text>
<text x="50" y="530" font-family="Arial" font-size="12" fill="black">Discrete Actions: 0</text>
<text x="50" y="550" font-family="Arial" font-size="12" fill="black">TargetFPS: 100 (physics update rate)</text>
<text x="50" y="570" font-family="Arial" font-size="12" fill="black">Observations Normalization: True</text>
<text x="10" y="620" font-family="Arial" font-size="16" fill="black">[Decision Requester]</text>
<text x="50" y="640" font-family="Arial" font-size="12" fill="black">Max Step: 10000</text>
<text x="50" y="660" font-family="Arial" font-size="12" fill="black">Decision Period: 5      [Actions Between Decisions: True]</text>
<text x="10" y="710" font-family="Arial" font-size="16" fill="black">[Graphs]</text>
<text x="50" y="730" font-family="Arial" font-size="12" fill="black">Episode Reward (1684)</text>
<text x="50" y="745" font-family="Arial" font-size="10" fill="black">0.9739998</text>
<text x="50" y="960" font-family="Arial" font-size="10" fill="black">0.254</text>
<path d="M50,950 L50.19531,872.2222 L50.39063,872.2222 L50.58594,870.8333 L50.78125,870.8333 L50.97656,870.8333 L51.17188,870.8333 L51.36719,869.4445 L51.5625,869.4445 L51.75781,868.0555 L51.95313,868.0555 L52.14844,868.0555 L52.34375,888.8889 L52.53906,845.8333 L52.73438,866.6666 L52.92969,887.5 L53.125,866.6666 L53.32031,845.8333 L53.51563,844.4445 L53.71094,844.4445 L53.90625,843.0555 L54.10156,841.6666 L54.29688,819.4445 L54.49219,840.2778 L54.6875,819.4445 L54.88281,838.8889 L55.07813,837.5 L55.27344,815.2778 L55.46875,856.9445 L55.66406,813.8889 L55.85938,804.1666 L56.05469,873.6111 L56.25,801.3889 L56.44531,898.6111 L56.64063,920.8333 L56.83594,870.8333 L57.03125,870.8333 L57.22656,869.4445 L57.42188,870.8333 L57.61719,872.2222 L57.8125,872.2222 L58.00781,869.4445 L58.20313,843.0555 L58.39844,870.8333 L58.59375,868.0555 L58.78906,868.0555 L58.98438,865.2778 L59.17969,843.0555 L59.375,868.0555 L59.57031,819.4445 L59.76563,863.8889 L59.96094,863.8889 L60.15625,868.0555 L60.35156,847.2222 L60.54688,838.8889 L60.74219,870.8333 L60.9375,845.8333 L61.13281,870.8333 L61.32813,816.6666 L61.52344,837.5 L61.71875,847.2222 L61.91406,813.8889 L62.10938,869.4445 L62.30469,844.4445 L62.5,873.6111 L62.69531,923.6111 L62.89063,801.3889 L63.08594,865.2778 L63.28125,870.8333 L63.47656,872.2222 L63.67188,850 L63.86719,879.1667 L64.0625,891.6667 L64.25781,866.6666 L64.45313,888.8889 L64.64844,869.4445 L64.84375,872.2222 L65.03906,872.2222 L65.23438,868.0555 L65.42969,844.4445 L65.625,872.2222 L65.82031,837.5 L66.01563,858.3333 L66.21094,870.8333 L66.40625,844.4445 L66.60156,816.6666 L66.79688,843.0555 L66.99219,843.0555 L67.1875,868.0555 L67.38281,818.0555 L67.57813,873.6111 L67.77344,855.5555 L67.96875,869.4445 L68.16406,866.6666 L68.35938,818.0555 L68.55469,843.0555 L68.75,869.4445 L68.94531,872.2222 L69.14063,840.2778 L69.33594,872.2222 L69.53125,895.8333 L69.72656,870.8333 L69.92188,870.8333 L70.11719,837.5 L70.3125,870.8333 L70.50781,869.4445 L70.70313,868.0555 L70.89844,873.6111 L71.09375,843.0555 L71.28906,815.2778 L71.48438,869.4445 L71.67969,868.0555 L71.875,834.7222 L72.07031,843.0555 L72.26563,819.4445 L72.46094,816.6666 L72.65625,870.8333 L72.85156,872.2222 L73.04688,819.4445 L73.24219,893.0555 L73.4375,816.6667 L73.63281,816.6666 L73.82813,818.0555 L74.02344,870.8333 L74.21875,875 L74.41406,838.8889 L74.60938,870.8333 L74.80469,815.2778 L75,780.5555 L75.19531,777.7778 L75.39063,898.6111 L75.58594,872.2222 L75.78125,870.8333 L75.97656,893.0555 L76.17188,845.8333 L76.36719,863.8889 L76.5625,848.6111 L76.75781,863.8889 L76.95313,819.4445 L77.14844,840.2778 L77.34375,927.7778 L77.53906,870.8333 L77.73438,861.1111 L77.92969,868.0555 L78.125,870.8333 L78.32031,838.8889 L78.51563,847.2222 L78.71094,815.2778 L78.90625,813.8889 L79.10156,840.2778 L79.29688,873.6111 L79.49219,841.6666 L79.6875,800 L79.88281,869.4445 L80.07813,869.4445 L80.27344,845.8333 L80.46875,816.6666 L80.66406,870.8333 L80.85938,891.6667 L81.05469,870.8333 L81.25,813.8889 L81.44531,820.8333 L81.64063,836.1111 L81.83594,813.8889 L82.03125,819.4445 L82.22656,850 L82.42188,840.2778 L82.61719,870.8333 L82.8125,838.8889 L83.00781,900 L83.20313,838.8889 L83.39844,834.7222 L83.59375,843.0555 L83.78906,868.0555 L83.98438,873.6111 L84.17969,838.8889 L84.375,872.2222 L84.57031,833.3333 L84.76563,872.2222 L84.96094,844.4445 L85.15625,868.0555 L85.35156,869.4445 L85.54688,872.2222 L85.74219,869.4445 L85.9375,808.3333 L86.13281,869.4445 L86.32813,872.2222 L86.52344,781.9444 L86.71875,869.4445 L86.91406,845.8333 L87.10938,869.4445 L87.30469,875 L87.5,873.6111 L87.69531,840.2778 L87.89063,843.0555 L88.08594,891.6667 L88.28125,869.4445 L88.47656,845.8333 L88.67188,844.4445 L88.86719,873.6111 L89.0625,845.8333 L89.25781,897.2222 L89.45313,872.2222 L89.64844,834.7222 L89.84375,869.4445 L90.03906,866.6666 L90.23438,862.5 L90.42969,879.1667 L90.625,870.8333 L90.82031,815.2778 L91.01563,868.0555 L91.21094,854.1667 L91.40625,843.0555 L91.60156,806.9445 L91.79688,831.9445 L91.99219,869.4445 L92.1875,841.6666 L92.38281,837.5 L92.57813,873.6111 L92.77344,844.4445 L92.96875,873.6111 L93.16406,845.8333 L93.35938,750 L93.55469,858.3333 L93.75,844.4445 L93.94531,840.2778 L94.14063,856.9445 L94.33594,872.2222 L94.53125,859.7222 L94.72656,872.2222 L94.92188,866.6666 L95.11719,869.4445 L95.3125,872.2222 L95.50781,870.8333 L95.70313,841.6666 L95.89844,844.4445 L96.09375,870.8333 L96.28906,873.6111 L96.48438,841.6666 L96.67969,870.8333 L96.875,876.3889 L97.07031,869.4445 L97.26563,870.8333 L97.46094,813.8889 L97.65625,848.6111 L97.85156,844.4445 L98.04688,836.1111 L98.24219,827.7778 L98.4375,870.8333 L98.63281,887.5 L98.82813,872.2222 L99.02344,870.8333 L99.21875,872.2222 L99.41406,869.4445 L99.60938,818.0555 L99.80469,816.6666 L100,844.4445 L100.1953,844.4445 L100.3906,870.8333 L100.5859,837.5 L100.7813,872.2222 L100.9766,890.2778 L101.1719,890.2778 L101.3672,840.2778 L101.5625,844.4445 L101.7578,863.8889 L101.9531,812.5 L102.1484,890.2778 L102.3438,873.6111 L102.5391,869.4445 L102.7344,844.4445 L102.9297,870.8333 L103.125,869.4445 L103.3203,895.8333 L103.5156,836.1111 L103.7109,862.5 L103.9063,855.5555 L104.1016,845.8333 L104.2969,811.1111 L104.4922,875 L104.6875,873.6111 L104.8828,926.3889 L105.0781,756.9444 L105.2734,870.8333 L105.4688,870.8333 L105.6641,897.2222 L105.8594,915.2778 L106.0547,897.2222 L106.25,841.6666 L106.4453,848.6111 L106.6406,840.2778 L106.8359,811.1111 L107.0313,868.0555 L107.2266,813.8889 L107.4219,870.8333 L107.6172,838.8889 L107.8125,872.2222 L108.0078,894.4445 L108.2031,844.4445 L108.3984,868.0555 L108.5938,872.2222 L108.7891,872.2222 L108.9844,838.8889 L109.1797,837.5 L109.375,869.4445 L109.5703,897.2222 L109.7656,870.8333 L109.9609,894.4445 L110.1563,848.6111 L110.3516,866.6666 L110.5469,837.5 L110.7422,840.2778 L110.9375,869.4445 L111.1328,869.4445 L111.3281,840.2778 L111.5234,870.8333 L111.7188,898.6111 L111.9141,843.0555 L112.1094,855.5555 L112.3047,873.6111 L112.5,875 L112.6953,848.6111 L112.8906,819.4444 L113.0859,856.9445 L113.2813,820.8333 L113.4766,818.0555 L113.6719,868.0555 L113.8672,862.5 L114.0625,869.4445 L114.2578,872.2222 L114.4531,873.6111 L114.6484,870.8333 L114.8438,869.4445 L115.0391,815.2778 L115.2344,840.2778 L115.4297,868.0555 L115.625,847.2222 L115.8203,870.8333 L116.0156,841.6666 L116.2109,869.4445 L116.4063,791.6666 L116.6016,894.4445 L116.7969,869.4445 L116.9922,843.0555 L117.1875,868.0555 L117.3828,845.8333 L117.5781,872.2222 L117.7734,870.8333 L117.9688,875 L118.1641,815.2778 L118.3594,898.6111 L118.5547,894.4445 L118.75,843.0555 L118.9453,872.2222 L119.1406,873.6111 L119.3359,865.2778 L119.5313,869.4445 L119.7266,812.5 L119.9219,841.6666 L120.1172,869.4445 L120.3125,869.4445 L120.5078,776.3889 L120.7031,869.4445 L120.8984,866.6666 L121.0938,836.1111 L121.2891,866.6666 L121.4844,873.6111 L121.6797,919.4445 L121.875,843.0555 L122.0703,926.3889 L122.2656,818.0555 L122.4609,819.4445 L122.6563,868.0555 L122.8516,869.4445 L123.0469,890.2778 L123.2422,875 L123.4375,875 L123.6328,841.6666 L123.8281,856.9445 L124.0234,868.0555 L124.2188,838.8889 L124.4141,868.0555 L124.6094,869.4445 L124.8047,783.3333 L125,875 L125.1953,818.0555 L125.3906,866.6666 L125.5859,886.1111 L125.7813,869.4445 L125.9766,927.7778 L126.1719,838.8889 L126.3672,898.6111 L126.5625,816.6666 L126.7578,869.4445 L126.9531,870.8333 L127.1484,929.1667 L127.3438,872.2222 L127.5391,870.8333 L127.7344,872.2222 L127.9297,872.2222 L128.125,845.8333 L128.3203,841.6666 L128.5156,858.3333 L128.7109,834.7222 L128.9063,870.8333 L129.1016,872.2222 L129.2969,890.2778 L129.4922,873.6111 L129.6875,836.1111 L129.8828,813.8889 L130.0781,872.2222 L130.2734,869.4445 L130.4688,866.6666 L130.6641,870.8333 L130.8594,875 L131.0547,875 L131.25,908.3333 L131.4453,845.8333 L131.6406,844.4445 L131.8359,893.0555 L132.0313,806.9445 L132.2266,870.8333 L132.4219,840.2778 L132.6172,837.5 L132.8125,872.2222 L133.0078,895.8333 L133.2031,873.6111 L133.3984,848.6111 L133.5938,895.8333 L133.7891,897.2222 L133.9844,834.7222 L134.1797,873.6111 L134.375,847.2222 L134.5703,870.8333 L134.7656,837.5 L134.9609,819.4444 L135.1563,872.2222 L135.3516,834.7222 L135.5469,893.0555 L135.7422,870.8333 L135.9375,894.4445 L136.1328,870.8333 L136.3281,856.9445 L136.5234,844.4445 L136.7188,840.2778 L136.9141,873.6111 L137.1094,834.7222 L137.3047,861.1111 L137.5,872.2222 L137.6953,858.3333 L137.8906,869.4445 L138.0859,841.6666 L138.2813,869.4445 L138.4766,866.6666 L138.6719,875 L138.8672,850 L139.0625,870.8333 L139.2578,872.2222 L139.4531,872.2222 L139.6484,869.4445 L139.8438,840.2778 L140.0391,829.1667 L140.2344,876.3889 L140.4297,870.8333 L140.625,838.8889 L140.8203,872.2222 L141.0156,840.2778 L141.2109,873.6111 L141.4063,870.8333 L141.6016,894.4445 L141.7969,843.0555 L141.9922,870.8333 L142.1875,816.6666 L142.3828,815.2778 L142.5781,869.4445 L142.7734,901.3889 L142.9688,844.4445 L143.1641,837.5 L143.3594,869.4445 L143.5547,819.4445 L143.75,841.6666 L143.9453,868.0555 L144.1406,840.2778 L144.3359,890.2778 L144.5313,866.6666 L144.7266,891.6667 L144.9219,886.1111 L145.1172,869.4445 L145.3125,893.0555 L145.5078,840.2778 L145.7031,816.6666 L145.8984,868.0555 L146.0938,893.0555 L146.2891,850 L146.4844,781.9445 L146.6797,844.4445 L146.875,870.8333 L147.0703,868.0555 L147.2656,829.1667 L147.4609,866.6666 L147.6563,868.0555 L147.8516,890.2778 L148.0469,865.2778 L148.2422,868.0555 L148.4375,844.4445 L148.6328,837.5 L148.8281,781.9445 L149.0234,873.6111 L149.2188,837.5 L149.4141,812.5 L149.6094,870.8333 L149.8047,890.2778 L150,856.9445 L150.1953,840.2778 L150.3906,855.5555 L150.5859,869.4445 L150.7813,845.8333 L150.9766,894.4445 L151.1719,819.4445 L151.3672,872.2222 L151.5625,844.4445 L151.7578,891.6667 L151.9531,866.6666 L152.1484,848.6111 L152.3438,865.2778 L152.5391,847.2222 L152.7344,872.2222 L152.9297,865.2778 L153.125,872.2222 L153.3203,872.2222 L153.5156,805.5555 L153.7109,815.2778 L153.9063,862.5 L154.1016,869.4445 L154.2969,866.6666 L154.4922,869.4445 L154.6875,855.5555 L154.8828,869.4445 L155.0781,841.6666 L155.2734,869.4445 L155.4688,833.3333 L155.6641,893.0555 L155.8594,813.8889 L156.0547,868.0555 L156.25,812.5 L156.4453,918.0555 L156.6406,865.2778 L156.8359,808.3333 L157.0313,854.1667 L157.2266,815.2778 L157.4219,845.8333 L157.6172,872.2222 L157.8125,870.8333 L158.0078,865.2778 L158.2031,890.2778 L158.3984,868.0555 L158.5938,848.6111 L158.7891,797.2222 L158.9844,862.5 L159.1797,813.8889 L159.375,900 L159.5703,815.2778 L159.7656,870.8333 L159.9609,856.9445 L160.1563,808.3333 L160.3516,843.0555 L160.5469,887.5 L160.7422,872.2222 L160.9375,870.8333 L161.1328,843.0555 L161.3281,794.4445 L161.5234,841.6666 L161.7188,837.5 L161.9141,866.6666 L162.1094,816.6666 L162.3047,869.4445 L162.5,873.6111 L162.6953,870.8333 L162.8906,868.0555 L163.0859,872.2222 L163.2813,866.6666 L163.4766,840.2778 L163.6719,888.8889 L163.8672,870.8333 L164.0625,834.7222 L164.2578,872.2222 L164.4531,872.2222 L164.6484,869.4445 L164.8438,870.8333 L165.0391,868.0555 L165.2344,870.8333 L165.4297,870.8333 L165.625,838.8889 L165.8203,869.4445 L166.0156,844.4445 L166.2109,870.8333 L166.4063,845.8333 L166.6016,804.1667 L166.7969,840.2778 L166.9922,837.5 L167.1875,893.0555 L167.3828,845.8333 L167.5781,843.0555 L167.7734,866.6666 L167.9688,893.0555 L168.1641,866.6666 L168.3594,848.6111 L168.5547,847.2222 L168.75,868.0555 L168.9453,841.6666 L169.1406,925 L169.3359,834.7222 L169.5313,838.8889 L169.7266,873.6111 L169.9219,891.6667 L170.1172,845.8333 L170.3125,869.4445 L170.5078,872.2222 L170.7031,847.2222 L170.8984,888.8889 L171.0938,868.0555 L171.2891,895.8333 L171.4844,811.1111 L171.6797,926.3889 L171.875,887.5 L172.0703,848.6111 L172.2656,927.7778 L172.4609,875 L172.6563,848.6111 L172.8516,841.6666 L173.0469,869.4445 L173.2422,776.3889 L173.4375,859.7222 L173.6328,876.3889 L173.8281,820.8333 L174.0234,869.4445 L174.2188,869.4445 L174.4141,813.8889 L174.6094,813.8889 L174.8047,840.2778 L175,836.1111 L175.1953,868.0555 L175.3906,866.6666 L175.5859,869.4445 L175.7813,916.6667 L175.9766,870.8333 L176.1719,897.2222 L176.3672,844.4445 L176.5625,915.2778 L176.7578,873.6111 L176.9531,870.8333 L177.1484,866.6666 L177.3438,812.5 L177.5391,869.4445 L177.7344,893.0555 L177.9297,843.0555 L178.125,815.2778 L178.3203,869.4445 L178.5156,869.4445 L178.7109,872.2222 L178.9063,927.7778 L179.1016,847.2222 L179.2969,873.6111 L179.4922,865.2778 L179.6875,773.6111 L179.8828,893.0555 L180.0781,813.8889 L180.2735,779.1666 L180.4688,800 L180.6641,869.4445 L180.8594,865.2778 L181.0547,869.4445 L181.25,869.4445 L181.4453,840.2778 L181.6406,872.2222 L181.8359,836.1111 L182.0313,850 L182.2266,858.3333 L182.4219,872.2222 L182.6172,926.3889 L182.8125,838.8889 L183.0078,843.0555 L183.2031,812.5 L183.3984,872.2222 L183.5938,861.1111 L183.7891,872.2222 L183.9844,873.6111 L184.1797,898.6111 L184.375,870.8333 L184.5703,848.6111 L184.7656,844.4445 L184.9609,847.2222 L185.1563,873.6111 L185.3516,784.7222 L185.5469,859.7222 L185.7422,875 L185.9375,838.8889 L186.1328,848.6111 L186.3281,815.2778 L186.5234,870.8333 L186.7188,844.4445 L186.9141,891.6667 L187.1094,891.6667 L187.3047,872.2222 L187.5,872.2222 L187.6953,873.6111 L187.8906,866.6666 L188.086,873.6111 L188.2813,870.8333 L188.4766,873.6111 L188.6719,838.8889 L188.8672,865.2778 L189.0625,868.0555 L189.2578,862.5 L189.4531,869.4445 L189.6484,841.6666 L189.8438,847.2222 L190.0391,850 L190.2344,869.4445 L190.4297,863.8889 L190.625,872.2222 L190.8203,872.2222 L191.0156,845.8333 L191.2109,872.2222 L191.4063,812.5 L191.6016,872.2222 L191.7969,873.6111 L191.9922,836.1111 L192.1875,841.6666 L192.3828,870.8333 L192.5781,841.6666 L192.7734,873.6111 L192.9688,869.4445 L193.1641,890.2778 L193.3594,870.8333 L193.5547,837.5 L193.75,891.6667 L193.9453,847.2222 L194.1406,841.6666 L194.3359,872.2222 L194.5313,870.8333 L194.7266,870.8333 L194.9219,894.4445 L195.1172,866.6666 L195.3125,813.8889 L195.5078,838.8889 L195.7031,838.8889 L195.8985,895.8333 L196.0938,869.4445 L196.2891,905.5555 L196.4844,870.8333 L196.6797,848.6111 L196.875,863.8889 L197.0703,845.8333 L197.2656,876.3889 L197.4609,869.4445 L197.6563,877.7778 L197.8516,850 L198.0469,843.0555 L198.2422,769.4445 L198.4375,850 L198.6328,872.2222 L198.8281,894.4445 L199.0234,863.8889 L199.2188,872.2222 L199.4141,834.7222 L199.6094,844.4445 L199.8047,872.2222 L200,838.8889 L200.1953,851.3889 L200.3906,893.0555 L200.5859,816.6666 L200.7813,869.4445 L200.9766,819.4445 L201.1719,870.8333 L201.3672,872.2222 L201.5625,869.4445 L201.7578,858.3333 L201.9531,870.8333 L202.1484,872.2222 L202.3438,848.6111 L202.5391,925 L202.7344,865.2778 L202.9297,868.0555 L203.125,869.4445 L203.3203,872.2222 L203.5156,838.8889 L203.711,915.2778 L203.9063,868.0555 L204.1016,838.8889 L204.2969,870.8333 L204.4922,898.6111 L204.6875,838.8889 L204.8828,890.2778 L205.0781,850 L205.2734,848.6111 L205.4688,865.2778 L205.6641,870.8333 L205.8594,845.8333 L206.0547,868.0555 L206.25,940.2778 L206.4453,819.4445 L206.6406,872.2222 L206.8359,870.8333 L207.0313,869.4445 L207.2266,918.0555 L207.4219,845.8333 L207.6172,872.2222 L207.8125,872.2222 L208.0078,837.5 L208.2031,830.5555 L208.3984,870.8333 L208.5938,873.6111 L208.7891,869.4445 L208.9844,869.4445 L209.1797,866.6666 L209.375,884.7222 L209.5703,847.2222 L209.7656,847.2222 L209.9609,925 L210.1563,837.5 L210.3516,872.2222 L210.5469,815.2778 L210.7422,840.2778 L210.9375,872.2222 L211.1328,870.8333 L211.3281,926.3889 L211.5235,843.0555 L211.7188,869.4445 L211.9141,843.0555 L212.1094,836.1111 L212.3047,844.4445 L212.5,809.7222 L212.6953,911.1111 L212.8906,843.0555 L213.0859,816.6666 L213.2813,815.2778 L213.4766,863.8889 L213.6719,872.2222 L213.8672,836.1111 L214.0625,815.2778 L214.2578,888.8889 L214.4531,845.8333 L214.6484,875 L214.8438,870.8333 L215.0391,869.4445 L215.2344,838.8889 L215.4297,856.9445 L215.625,875 L215.8203,843.0555 L216.0156,872.2222 L216.2109,872.2222 L216.4063,870.8333 L216.6016,891.6667 L216.7969,844.4445 L216.9922,893.0555 L217.1875,786.1111 L217.3828,890.2778 L217.5781,850 L217.7734,876.3889 L217.9688,869.4445 L218.1641,868.0555 L218.3594,872.2222 L218.5547,863.8889 L218.75,866.6666 L218.9453,893.0555 L219.1406,868.0555 L219.336,865.2778 L219.5313,809.7222 L219.7266,816.6666 L219.9219,873.6111 L220.1172,873.6111 L220.3125,894.4445 L220.5078,776.3889 L220.7031,869.4445 L220.8984,872.2222 L221.0938,869.4445 L221.2891,868.0555 L221.4844,869.4445 L221.6797,812.5 L221.875,838.8889 L222.0703,869.4445 L222.2656,872.2222 L222.4609,841.6666 L222.6563,869.4445 L222.8516,800 L223.0469,845.8333 L223.2422,869.4445 L223.4375,816.6666 L223.6328,869.4445 L223.8281,863.8889 L224.0234,816.6666 L224.2188,848.6111 L224.4141,890.2778 L224.6094,872.2222 L224.8047,866.6666 L225,869.4445 L225.1953,869.4445 L225.3906,873.6111 L225.5859,887.5 L225.7813,819.4445 L225.9766,891.6667 L226.1719,840.2778 L226.3672,844.4445 L226.5625,838.8889 L226.7578,891.6667 L226.9531,834.7222 L227.1485,887.5 L227.3438,813.8889 L227.5391,893.0555 L227.7344,866.6666 L227.9297,870.8333 L228.125,872.2222 L228.3203,895.8333 L228.5156,813.8889 L228.7109,831.9445 L228.9063,869.4445 L229.1016,838.8889 L229.2969,872.2222 L229.4922,865.2778 L229.6875,869.4445 L229.8828,869.4445 L230.0781,870.8333 L230.2734,829.1667 L230.4688,844.4445 L230.6641,844.4445 L230.8594,840.2778 L231.0547,834.7222 L231.25,868.0555 L231.4453,912.5 L231.6406,865.2778 L231.8359,843.0555 L232.0313,818.0555 L232.2266,869.4445 L232.4219,872.2222 L232.6172,804.1667 L232.8125,925 L233.0078,870.8333 L233.2031,922.2222 L233.3984,836.1111 L233.5938,869.4445 L233.7891,844.4445 L233.9844,866.6666 L234.1797,919.4445 L234.375,830.5555 L234.5703,872.2222 L234.7656,872.2222 L234.961,870.8333 L235.1563,870.8333 L235.3516,841.6666 L235.5469,868.0555 L235.7422,844.4445 L235.9375,875 L236.1328,890.2778 L236.3281,870.8333 L236.5234,840.2778 L236.7188,845.8333 L236.9141,847.2222 L237.1094,870.8333 L237.3047,868.0555 L237.5,868.0555 L237.6953,872.2222 L237.8906,872.2222 L238.0859,872.2222 L238.2813,875 L238.4766,873.6111 L238.6719,820.8333 L238.8672,897.2222 L239.0625,870.8333 L239.2578,820.8333 L239.4531,834.7222 L239.6484,806.9445 L239.8438,833.3333 L240.0391,866.6666 L240.2344,777.7778 L240.4297,865.2778 L240.625,872.2222 L240.8203,891.6667 L241.0156,872.2222 L241.2109,841.6666 L241.4063,847.2222 L241.6016,843.0555 L241.7969,875 L241.9922,831.9445 L242.1875,868.0555 L242.3828,844.4445 L242.5781,840.2778 L242.7735,897.2222 L242.9688,862.5 L243.1641,845.8333 L243.3594,873.6111 L243.5547,895.8333 L243.75,872.2222 L243.9453,870.8333 L244.1406,815.2778 L244.3359,869.4445 L244.5313,869.4445 L244.7266,780.5555 L244.9219,893.0555 L245.1172,866.6666 L245.3125,868.0555 L245.5078,848.6111 L245.7031,844.4445 L245.8984,873.6111 L246.0938,816.6666 L246.2891,815.2778 L246.4844,870.8333 L246.6797,812.5 L246.875,868.0555 L247.0703,816.6666 L247.2656,859.7222 L247.4609,840.2778 L247.6563,820.8333 L247.8516,813.8889 L248.0469,870.8333 L248.2422,868.0555 L248.4375,838.8889 L248.6328,869.4445 L248.8281,866.6666 L249.0234,843.0555 L249.2188,816.6666 L249.4141,925 L249.6094,870.8333 L249.8047,837.5 L250,875 L250.1953,865.2778 L250.3906,869.4445 L250.586,866.6666 L250.7813,793.0555 L250.9766,843.0555 L251.1719,873.6111 L251.3672,870.8333 L251.5625,875 L251.7578,872.2222 L251.9531,869.4445 L252.1484,812.5 L252.3438,837.5 L252.5391,880.5555 L252.7344,841.6666 L252.9297,890.2778 L253.125,866.6666 L253.3203,811.1111 L253.5156,869.4445 L253.7109,873.6111 L253.9063,816.6666 L254.1016,837.5 L254.2969,845.8333 L254.4922,843.0555 L254.6875,844.4445 L254.8828,868.0555 L255.0781,868.0555 L255.2734,868.0555 L255.4688,865.2778 L255.6641,870.8333 L255.8594,870.8333 L256.0547,894.4445 L256.25,870.8333 L256.4453,840.2778 L256.6406,872.2222 L256.8359,816.6666 L257.0313,869.4445 L257.2266,875 L257.4219,815.2778 L257.6172,869.4445 L257.8125,869.4445 L258.0078,911.1111 L258.2031,840.2778 L258.3984,836.1111 L258.5938,813.8889 L258.7891,888.8889 L258.9844,869.4445 L259.1797,870.8333 L259.375,843.0555 L259.5703,901.3889 L259.7656,870.8333 L259.9609,869.4445 L260.1563,868.0555 L260.3516,841.6666 L260.5469,847.2222 L260.7422,869.4445 L260.9375,856.9445 L261.1328,815.2778 L261.3281,926.3889 L261.5234,891.6667 L261.7188,888.8889 L261.9141,840.2778 L262.1094,859.7222 L262.3047,833.3333 L262.5,848.6111 L262.6953,923.6111 L262.8906,847.2222 L263.0859,870.8333 L263.2813,833.3333 L263.4766,813.8889 L263.6719,833.3333 L263.8672,872.2222 L264.0625,866.6666 L264.2578,890.2778 L264.4531,870.8333 L264.6484,850 L264.8438,863.8889 L265.0391,834.7222 L265.2344,895.8333 L265.4297,870.8333 L265.625,890.2778 L265.8203,836.1111 L266.0156,815.2778 L266.2109,843.0555 L266.4063,834.7222 L266.6016,898.6111 L266.7969,845.8333 L266.9922,865.2778 L267.1875,870.8333 L267.3828,844.4445 L267.5781,847.2222 L267.7734,868.0555 L267.9688,840.2778 L268.1641,816.6666 L268.3594,869.4445 L268.5547,925 L268.75,866.6666 L268.9453,815.2778 L269.1406,838.8889 L269.3359,898.6111 L269.5313,868.0555 L269.7266,870.8333 L269.9219,925 L270.1172,868.0555 L270.3125,816.6666 L270.5078,869.4445 L270.7031,868.0555 L270.8984,838.8889 L271.0938,927.7778 L271.2891,826.3889 L271.4844,841.6666 L271.6797,868.0555 L271.875,873.6111 L272.0703,845.8333 L272.2656,877.7778 L272.4609,868.0555 L272.6563,870.8333 L272.8516,838.8889 L273.0469,838.8889 L273.2422,872.2222 L273.4375,866.6666 L273.6328,870.8333 L273.8281,813.8889 L274.0234,879.1667 L274.2188,893.0555 L274.4141,869.4445 L274.6094,869.4445 L274.8047,872.2222 L275,848.6111 L275.1953,925 L275.3906,841.6666 L275.5859,844.4445 L275.7813,812.5 L275.9766,866.6666 L276.1719,870.8333 L276.3672,841.6666 L276.5625,872.2222 L276.7578,868.0555 L276.9531,887.5 L277.1484,813.8889 L277.3438,816.6666 L277.5391,870.8333 L277.7344,869.4445 L277.9297,866.6666 L278.125,838.8889 L278.3203,863.8889 L278.5156,868.0555 L278.7109,843.0555 L278.9063,847.2222 L279.1016,869.4445 L279.2969,868.0555 L279.4922,908.3333 L279.6875,898.6111 L279.8828,843.0555 L280.0781,891.6667 L280.2734,875 L280.4688,866.6666 L280.6641,843.0555 L280.8594,813.8889 L281.0547,809.7222 L281.25,870.8333 L281.4453,848.6111 L281.6406,866.6666 L281.8359,893.0555 L282.0313,863.8889 L282.2266,869.4445 L282.4219,869.4445 L282.6172,850 L282.8125,873.6111 L283.0078,844.4445 L283.2031,818.0555 L283.3984,872.2222 L283.5938,870.8333 L283.7891,809.7222 L283.9844,844.4445 L284.1797,841.6666 L284.375,868.0555 L284.5703,850 L284.7656,890.2778 L284.9609,897.2222 L285.1563,834.7222 L285.3516,870.8333 L285.5469,851.3889 L285.7422,870.8333 L285.9375,870.8333 L286.1328,869.4445 L286.3281,870.8333 L286.5234,845.8333 L286.7188,870.8333 L286.9141,815.2778 L287.1094,847.2222 L287.3047,872.2222 L287.5,843.0555 L287.6953,843.0555 L287.8906,836.1111 L288.0859,825 L288.2813,869.4445 L288.4766,894.4445 L288.6719,893.0555 L288.8672,815.2778 L289.0625,869.4445 L289.2578,804.1667 L289.4531,870.8333 L289.6484,838.8889 L289.8438,895.8333 L290.0391,865.2778 L290.2344,848.6111 L290.4297,844.4445 L290.625,870.8333 L290.8203,819.4445 L291.0156,868.0555 L291.2109,845.8333 L291.4063,868.0555 L291.6016,873.6111 L291.7969,891.6667 L291.9922,787.5 L292.1875,918.0555 L292.3828,888.8889 L292.5781,848.6111 L292.7734,873.6111 L292.9688,926.3889 L293.1641,840.2778 L293.3594,841.6666 L293.5547,826.3889 L293.75,872.2222 L293.9453,861.1111 L294.1406,870.8333 L294.3359,927.7778 L294.5313,865.2778 L294.7266,870.8333 L294.9219,870.8333 L295.1172,870.8333 L295.3125,843.0555 L295.5078,863.8889 L295.7031,866.6666 L295.8984,869.4445 L296.0938,872.2222 L296.2891,869.4445 L296.4844,875 L296.6797,858.3333 L296.875,781.9445 L297.0703,869.4445 L297.2656,816.6666 L297.4609,845.8333 L297.6563,868.0555 L297.8516,926.3889 L298.0469,844.4445 L298.2422,873.6111 L298.4375,837.5 L298.6328,895.8333 L298.8281,872.2222 L299.0234,869.4445 L299.2188,870.8333 L299.4141,837.5 L299.6094,868.0555 L299.8047,866.6666 L300,852.7778 L300.1953,898.6111 L300.3906,843.0555 L300.5859,830.5555 L300.7813,869.4445 L300.9766,838.8889 L301.1719,895.8333 L301.3672,845.8333 L301.5625,805.5555 L301.7578,811.1111 L301.9531,838.8889 L302.1484,836.1111 L302.3438,838.8889 L302.5391,868.0555 L302.7344,847.2222 L302.9297,900 L303.125,872.2222 L303.3203,806.9445 L303.5156,844.4445 L303.711,841.6666 L303.9063,813.8889 L304.1016,869.4445 L304.2969,838.8889 L304.4922,856.9445 L304.6875,844.4445 L304.8828,812.5 L305.0781,884.7222 L305.2734,869.4445 L305.4688,870.8333 L305.6641,870.8333 L305.8594,891.6667 L306.0547,873.6111 L306.25,837.5 L306.4453,816.6666 L306.6407,770.8333 L306.8359,875 L307.0313,895.8333 L307.2266,873.6111 L307.4219,870.8333 L307.6172,844.4445 L307.8125,868.0555 L308.0078,779.1667 L308.2031,836.1111 L308.3984,843.0555 L308.5938,858.3333 L308.7891,843.0555 L308.9844,868.0555 L309.1797,872.2222 L309.375,861.1111 L309.5703,844.4445 L309.7656,862.5 L309.9609,865.2778 L310.1563,869.4445 L310.3516,837.5 L310.5469,813.8889 L310.7422,791.6666 L310.9375,875 L311.1328,872.2222 L311.3281,840.2778 L311.5235,865.2778 L311.7188,847.2222 L311.9141,870.8333 L312.1094,837.5 L312.3047,872.2222 L312.5,845.8333 L312.6953,869.4445 L312.8906,861.1111 L313.0859,845.8333 L313.2813,780.5555 L313.4766,863.8889 L313.6719,868.0555 L313.8672,873.6111 L314.0625,841.6666 L314.2578,872.2222 L314.4532,897.2222 L314.6484,869.4445 L314.8438,870.8333 L315.0391,868.0555 L315.2344,847.2222 L315.4297,837.5 L315.625,866.6666 L315.8203,812.5 L316.0156,787.5 L316.2109,836.1111 L316.4063,925 L316.6016,818.0555 L316.7969,870.8333 L316.9922,811.1111 L317.1875,813.8889 L317.3828,918.0555 L317.5781,870.8333 L317.7734,866.6666 L317.9688,866.6666 L318.1641,870.8333 L318.3594,813.8889 L318.5547,843.0555 L318.75,890.2778 L318.9453,870.8333 L319.1406,870.8333 L319.336,841.6666 L319.5313,888.8889 L319.7266,840.2778 L319.9219,873.6111 L320.1172,875 L320.3125,809.7222 L320.5078,876.3889 L320.7031,837.5 L320.8984,869.4445 L321.0938,804.1666 L321.2891,816.6666 L321.4844,818.0555 L321.6797,862.5 L321.875,777.7778 L322.0703,843.0555 L322.2657,836.1111 L322.4609,870.8333 L322.6563,873.6111 L322.8516,901.3889 L323.0469,868.0555 L323.2422,868.0555 L323.4375,869.4445 L323.6328,863.8889 L323.8281,831.9445 L324.0234,872.2222 L324.2188,843.0555 L324.4141,870.8333 L324.6094,841.6666 L324.8047,843.0555 L325,869.4445 L325.1953,802.7778 L325.3906,868.0555 L325.5859,865.2778 L325.7813,791.6666 L325.9766,866.6666 L326.1719,858.3333 L326.3672,868.0555 L326.5625,888.8889 L326.7578,868.0555 L326.9531,868.0555 L327.1485,869.4445 L327.3438,840.2778 L327.5391,872.2222 L327.7344,869.4445 L327.9297,865.2778 L328.125,815.2778 L328.3203,927.7778 L328.5156,845.8333 L328.7109,868.0555 L328.9063,876.3889 L329.1016,869.4445 L329.2969,872.2222 L329.4922,872.2222 L329.6875,870.8333 L329.8828,868.0555 L330.0782,840.2778 L330.2734,869.4445 L330.4688,843.0555 L330.6641,870.8333 L330.8594,872.2222 L331.0547,820.8333 L331.25,859.7222 L331.4453,869.4445 L331.6406,840.2778 L331.8359,843.0555 L332.0313,876.3889 L332.2266,844.4445 L332.4219,858.3333 L332.6172,869.4445 L332.8125,869.4445 L333.0078,869.4445 L333.2031,893.0555 L333.3984,784.7222 L333.5938,843.0555 L333.7891,873.6111 L333.9844,872.2222 L334.1797,819.4445 L334.375,870.8333 L334.5703,872.2222 L334.7656,893.0555 L334.961,836.1111 L335.1563,912.5 L335.3516,912.5 L335.5469,812.5 L335.7422,925 L335.9375,865.2778 L336.1328,844.4445 L336.3281,838.8889 L336.5234,870.8333 L336.7188,847.2222 L336.9141,815.2778 L337.1094,813.8889 L337.3047,818.0555 L337.5,844.4445 L337.6953,870.8333 L337.8907,873.6111 L338.0859,869.4445 L338.2813,843.0555 L338.4766,863.8889 L338.6719,844.4445 L338.8672,818.0555 L339.0625,863.8889 L339.2578,869.4445 L339.4531,819.4445 L339.6484,869.4445 L339.8438,890.2778 L340.0391,816.6666 L340.2344,870.8333 L340.4297,922.2222 L340.625,818.0555 L340.8203,875 L341.0156,873.6111 L341.2109,847.2222 L341.4063,869.4445 L341.6016,891.6667 L341.7969,891.6667 L341.9922,870.8333 L342.1875,859.7222 L342.3828,877.7778 L342.5781,897.2222 L342.7735,872.2222 L342.9688,848.6111 L343.1641,844.4445 L343.3594,818.0555 L343.5547,841.6666 L343.75,868.0555 L343.9453,815.2778 L344.1406,868.0555 L344.3359,844.4445 L344.5313,890.2778 L344.7266,859.7222 L344.9219,872.2222 L345.1172,868.0555 L345.3125,891.6667 L345.5078,869.4445 L345.7032,869.4445 L345.8984,926.3889 L346.0938,833.3333 L346.2891,879.1667 L346.4844,838.8889 L346.6797,873.6111 L346.875,894.4445 L347.0703,872.2222 L347.2656,873.6111 L347.4609,866.6666 L347.6563,894.4445 L347.8516,819.4444 L348.0469,869.4445 L348.2422,820.8333 L348.4375,841.6666 L348.6328,841.6666 L348.8281,927.7778 L349.0234,815.2778 L349.2188,805.5555 L349.4141,870.8333 L349.6094,873.6111 L349.8047,868.0555 L350,865.2778 L350.1953,815.2778 L350.3906,869.4445 L350.586,870.8333 L350.7813,848.6111 L350.9766,834.7222 L351.1719,870.8333 L351.3672,831.9445 L351.5625,816.6666 L351.7578,786.1111 L351.9531,838.8889 L352.1484,869.4445 L352.3438,925 L352.5391,870.8333 L352.7344,893.0555 L352.9297,891.6667 L353.125,900 L353.3203,869.4445 L353.5157,843.0555 L353.7109,868.0555 L353.9063,868.0555 L354.1016,865.2778 L354.2969,870.8333 L354.4922,833.3333 L354.6875,873.6111 L354.8828,870.8333 L355.0781,872.2222 L355.2734,872.2222 L355.4688,869.4445 L355.6641,777.7778 L355.8594,813.8889 L356.0547,873.6111 L356.25,873.6111 L356.4453,841.6666 L356.6406,840.2778 L356.8359,900 L357.0313,866.6666 L357.2266,869.4445 L357.4219,870.8333 L357.6172,870.8333 L357.8125,847.2222 L358.0078,872.2222 L358.2031,845.8333 L358.3985,870.8333 L358.5938,890.2778 L358.7891,813.8889 L358.9844,856.9445 L359.1797,844.4445 L359.375,873.6111 L359.5703,895.8333 L359.7656,784.7222 L359.9609,868.0555 L360.1563,868.0555 L360.3516,843.0555 L360.5469,869.4445 L360.7422,865.2778 L360.9375,898.6111 L361.1328,868.0555 L361.3282,890.2778 L361.5234,777.7778 L361.7188,837.5 L361.9141,866.6666 L362.1094,869.4445 L362.3047,786.1111 L362.5,869.4445 L362.6953,869.4445 L362.8906,838.8889 L363.0859,848.6111 L363.2813,890.2778 L363.4766,894.4445 L363.6719,887.5 L363.8672,868.0555 L364.0625,872.2222 L364.2578,848.6111 L364.4531,804.1667 L364.6484,841.6666 L364.8438,869.4445 L365.0391,890.2778 L365.2344,872.2222 L365.4297,927.7778 L365.625,834.7222 L365.8203,818.0555 L366.0156,925 L366.211,861.1111 L366.4063,843.0555 L366.6016,759.7222 L366.7969,800 L366.9922,868.0555 L367.1875,819.4445 L367.3828,869.4445 L367.5781,872.2222 L367.7734,783.3333 L367.9688,872.2222 L368.1641,843.0555 L368.3594,875 L368.5547,870.8333 L368.75,841.6666 L368.9453,872.2222 L369.1407,869.4445 L369.3359,815.2778 L369.5313,869.4445 L369.7266,886.1111 L369.9219,869.4445 L370.1172,890.2778 L370.3125,863.8889 L370.5078,805.5555 L370.7031,870.8333 L370.8984,840.2778 L371.0938,838.8889 L371.2891,875 L371.4844,809.7222 L371.6797,865.2778 L371.875,873.6111 L372.0703,873.6111 L372.2656,818.0555 L372.4609,868.0555 L372.6563,891.6667 L372.8516,859.7222 L373.0469,898.6111 L373.2422,891.6667 L373.4375,820.8333 L373.6328,869.4445 L373.8281,869.4445 L374.0235,865.2778 L374.2188,870.8333 L374.4141,840.2778 L374.6094,869.4445 L374.8047,869.4445 L375,834.7222 L375.1953,868.0555 L375.3906,895.8333 L375.5859,847.2222 L375.7813,872.2222 L375.9766,870.8333 L376.1719,847.2222 L376.3672,869.4445 L376.5625,872.2222 L376.7578,819.4445 L376.9532,872.2222 L377.1484,870.8333 L377.3438,813.8889 L377.5391,804.1667 L377.7344,776.3889 L377.9297,888.8889 L378.125,901.3889 L378.3203,818.0555 L378.5156,870.8333 L378.7109,870.8333 " stroke="blue" fill="none" />
<text x="50" y="1000" font-family="Arial" font-size="12" fill="black">Episode Length (1684)</text>
<text x="50" y="1015" font-family="Arial" font-size="10" fill="black">61</text>
<text x="50" y="1230" font-family="Arial" font-size="10" fill="black">20</text>
<path d="M50,1220 L50.19531,1166.341 L50.39063,1166.341 L50.58594,1161.463 L50.78125,1161.463 L50.97656,1161.463 L51.17188,1161.463 L51.36719,1156.585 L51.5625,1156.585 L51.75781,1151.707 L51.95313,1151.707 L52.14844,1151.707 L52.34375,1151.707 L52.53906,1146.829 L52.73438,1146.829 L52.92969,1146.829 L53.125,1146.829 L53.32031,1146.829 L53.51563,1141.951 L53.71094,1141.951 L53.90625,1137.073 L54.10156,1132.195 L54.29688,1127.317 L54.49219,1127.317 L54.6875,1127.317 L54.88281,1122.439 L55.07813,1117.561 L55.27344,1112.683 L55.46875,1112.683 L55.66406,1107.805 L55.85938,1073.659 L56.05469,1166.341 L56.25,1063.902 L56.44531,1180.976 L56.64063,1185.854 L56.83594,1156.585 L57.03125,1156.585 L57.22656,1151.707 L57.42188,1156.585 L57.61719,1161.463 L57.8125,1161.463 L58.00781,1151.707 L58.20313,1132.195 L58.39844,1156.585 L58.59375,1146.829 L58.78906,1146.829 L58.98438,1137.073 L59.17969,1132.195 L59.375,1146.829 L59.57031,1122.439 L59.76563,1132.195 L59.96094,1132.195 L60.15625,1146.829 L60.35156,1146.829 L60.54688,1117.561 L60.74219,1156.585 L60.9375,1141.951 L61.13281,1156.585 L61.32813,1112.683 L61.52344,1112.683 L61.71875,1146.829 L61.91406,1102.927 L62.10938,1151.707 L62.30469,1137.073 L62.5,1166.341 L62.69531,1195.61 L62.89063,1059.024 L63.08594,1137.073 L63.28125,1156.585 L63.47656,1161.463 L63.67188,1156.585 L63.86719,1112.683 L64.0625,1156.585 L64.25781,1141.951 L64.45313,1146.829 L64.64844,1151.707 L64.84375,1161.463 L65.03906,1161.463 L65.23438,1146.829 L65.42969,1137.073 L65.625,1161.463 L65.82031,1112.683 L66.01563,1112.683 L66.21094,1156.585 L66.40625,1137.073 L66.60156,1112.683 L66.79688,1132.195 L66.99219,1132.195 L67.1875,1146.829 L67.38281,1117.561 L67.57813,1166.341 L67.77344,1102.927 L67.96875,1151.707 L68.16406,1141.951 L68.35938,1117.561 L68.55469,1132.195 L68.75,1151.707 L68.94531,1161.463 L69.14063,1122.439 L69.33594,1161.463 L69.53125,1171.219 L69.72656,1156.585 L69.92188,1156.585 L70.11719,1112.683 L70.3125,1156.585 L70.50781,1151.707 L70.70313,1146.829 L70.89844,1166.341 L71.09375,1132.195 L71.28906,1107.805 L71.48438,1151.707 L71.67969,1146.829 L71.875,1102.927 L72.07031,1132.195 L72.26563,1122.439 L72.46094,1112.683 L72.65625,1156.585 L72.85156,1161.463 L73.04688,1122.439 L73.24219,1161.463 L73.4375,1039.512 L73.63281,1112.683 L73.82813,1117.561 L74.02344,1156.585 L74.21875,1171.219 L74.41406,1117.561 L74.60938,1156.585 L74.80469,1107.805 L75,1059.024 L75.19531,1049.268 L75.39063,1180.976 L75.58594,1161.463 L75.78125,1156.585 L75.97656,1161.463 L76.17188,1141.951 L76.36719,1132.195 L76.5625,1151.707 L76.75781,1132.195 L76.95313,1122.439 L77.14844,1122.439 L77.34375,1210.244 L77.53906,1156.585 L77.73438,1122.439 L77.92969,1146.829 L78.125,1156.585 L78.32031,1117.561 L78.51563,1146.829 L78.71094,1107.805 L78.90625,1102.927 L79.10156,1122.439 L79.29688,1166.341 L79.49219,1127.317 L79.6875,1054.146 L79.88281,1151.707 L80.07813,1151.707 L80.27344,1141.951 L80.46875,1112.683 L80.66406,1156.585 L80.85938,1156.585 L81.05469,1156.585 L81.25,1102.927 L81.44531,1054.146 L81.64063,1107.805 L81.83594,1102.927 L82.03125,1122.439 L82.22656,1156.585 L82.42188,1122.439 L82.61719,1156.585 L82.8125,1117.561 L83.00781,1185.854 L83.20313,1117.561 L83.39844,1102.927 L83.59375,1132.195 L83.78906,1146.829 L83.98438,1166.341 L84.17969,1117.561 L84.375,1161.463 L84.57031,1098.049 L84.76563,1161.463 L84.96094,1137.073 L85.15625,1146.829 L85.35156,1151.707 L85.54688,1161.463 L85.74219,1151.707 L85.9375,1083.415 L86.13281,1151.707 L86.32813,1161.463 L86.52344,1063.902 L86.71875,1151.707 L86.91406,1141.951 L87.10938,1151.707 L87.30469,1171.219 L87.5,1166.341 L87.69531,1122.439 L87.89063,1132.195 L88.08594,1156.585 L88.28125,1151.707 L88.47656,1141.951 L88.67188,1137.073 L88.86719,1166.341 L89.0625,1141.951 L89.25781,1176.098 L89.45313,1161.463 L89.64844,1102.927 L89.84375,1151.707 L90.03906,1141.951 L90.23438,1127.317 L90.42969,1112.683 L90.625,1156.585 L90.82031,1107.805 L91.01563,1146.829 L91.21094,1098.049 L91.40625,1132.195 L91.60156,1078.537 L91.79688,1093.171 L91.99219,1151.707 L92.1875,1127.317 L92.38281,1112.683 L92.57813,1093.171 L92.77344,1137.073 L92.96875,1166.341 L93.16406,1141.951 L93.35938,1024.878 L93.55469,1112.683 L93.75,1137.073 L93.94531,1122.439 L94.14063,1107.805 L94.33594,1161.463 L94.53125,1117.561 L94.72656,1161.463 L94.92188,1141.951 L95.11719,1151.707 L95.3125,1161.463 L95.50781,1156.585 L95.70313,1127.317 L95.89844,1137.073 L96.09375,1156.585 L96.28906,1166.341 L96.48438,1127.317 L96.67969,1156.585 L96.875,1176.098 L97.07031,1151.707 L97.26563,1156.585 L97.46094,1102.927 L97.65625,1151.707 L97.85156,1137.073 L98.04688,1107.805 L98.24219,1078.537 L98.4375,1156.585 L98.63281,1141.951 L98.82813,1161.463 L99.02344,1156.585 L99.21875,1161.463 L99.41406,1151.707 L99.60938,1117.561 L99.80469,1112.683 L100,1137.073 L100.1953,1137.073 L100.3906,1156.585 L100.5859,1112.683 L100.7813,1161.463 L100.9766,1151.707 L101.1719,1151.707 L101.3672,1122.439 L101.5625,1137.073 L101.7578,1132.195 L101.9531,1098.049 L102.1484,1151.707 L102.3438,1166.341 L102.5391,1151.707 L102.7344,1137.073 L102.9297,1156.585 L103.125,1151.707 L103.3203,1171.219 L103.5156,1107.805 L103.7109,1127.317 L103.9063,1102.927 L104.1016,1141.951 L104.2969,1093.171 L104.4922,1171.219 L104.6875,1166.341 L104.8828,1205.366 L105.0781,1049.268 L105.2734,1156.585 L105.4688,1156.585 L105.6641,1176.098 L105.8594,1166.341 L106.0547,1176.098 L106.25,1127.317 L106.4453,1151.707 L106.6406,1122.439 L106.8359,1093.171 L107.0313,1146.829 L107.2266,1102.927 L107.4219,1156.585 L107.6172,1117.561 L107.8125,1161.463 L108.0078,1166.341 L108.2031,1137.073 L108.3984,1146.829 L108.5938,1161.463 L108.7891,1161.463 L108.9844,1117.561 L109.1797,1112.683 L109.375,1151.707 L109.5703,1176.098 L109.7656,1156.585 L109.9609,1166.341 L110.1563,1151.707 L110.3516,1141.951 L110.5469,1112.683 L110.7422,1122.439 L110.9375,1151.707 L111.1328,1151.707 L111.3281,1122.439 L111.5234,1156.585 L111.7188,1180.976 L111.9141,1132.195 L112.1094,1102.927 L112.3047,1166.341 L112.5,1171.219 L112.6953,1151.707 L112.8906,1122.439 L113.0859,1107.805 L113.2813,1127.317 L113.4766,1117.561 L113.6719,1146.829 L113.8672,1127.317 L114.0625,1151.707 L114.2578,1161.463 L114.4531,1166.341 L114.6484,1156.585 L114.8438,1151.707 L115.0391,1107.805 L115.2344,1122.439 L115.4297,1146.829 L115.625,1146.829 L115.8203,1156.585 L116.0156,1127.317 L116.2109,1151.707 L116.4063,1098.049 L116.6016,1166.341 L116.7969,1151.707 L116.9922,1132.195 L117.1875,1146.829 L117.3828,1141.951 L117.5781,1161.463 L117.7734,1156.585 L117.9688,1171.219 L118.1641,1107.805 L118.3594,1180.976 L118.5547,1166.341 L118.75,1132.195 L118.9453,1161.463 L119.1406,1166.341 L119.3359,1137.073 L119.5313,1151.707 L119.7266,1098.049 L119.9219,1127.317 L120.1172,1151.707 L120.3125,1151.707 L120.5078,1044.39 L120.7031,1151.707 L120.8984,1141.951 L121.0938,1107.805 L121.2891,1141.951 L121.4844,1166.341 L121.6797,1180.976 L121.875,1059.024 L122.0703,1205.366 L122.2656,1117.561 L122.4609,1122.439 L122.6563,1146.829 L122.8516,1151.707 L123.0469,1151.707 L123.2422,1171.219 L123.4375,1171.219 L123.6328,1127.317 L123.8281,1107.805 L124.0234,1146.829 L124.2188,1117.561 L124.4141,1146.829 L124.6094,1151.707 L124.8047,1068.781 L125,1171.219 L125.1953,1117.561 L125.3906,1141.951 L125.5859,1137.073 L125.7813,1151.707 L125.9766,1210.244 L126.1719,1117.561 L126.3672,1180.976 L126.5625,1112.683 L126.7578,1151.707 L126.9531,1156.585 L127.1484,1215.122 L127.3438,1161.463 L127.5391,1156.585 L127.7344,1161.463 L127.9297,1161.463 L128.125,1141.951 L128.3203,1127.317 L128.5156,1112.683 L128.7109,1102.927 L128.9063,1156.585 L129.1016,1161.463 L129.2969,1151.707 L129.4922,1166.341 L129.6875,1107.805 L129.8828,1102.927 L130.0781,1161.463 L130.2734,1151.707 L130.4688,1141.951 L130.6641,1156.585 L130.8594,1171.219 L131.0547,1171.219 L131.25,1141.951 L131.4453,1141.951 L131.6406,1137.073 L131.8359,1161.463 L132.0313,1078.537 L132.2266,1156.585 L132.4219,1122.439 L132.6172,1112.683 L132.8125,1161.463 L133.0078,1171.219 L133.2031,1166.341 L133.3984,1151.707 L133.5938,1171.219 L133.7891,1176.098 L133.9844,1102.927 L134.1797,1166.341 L134.375,1146.829 L134.5703,1156.585 L134.7656,1112.683 L134.9609,1122.439 L135.1563,1161.463 L135.3516,1102.927 L135.5469,1161.463 L135.7422,1156.585 L135.9375,1166.341 L136.1328,1156.585 L136.3281,1107.805 L136.5234,1137.073 L136.7188,1122.439 L136.9141,1166.341 L137.1094,1102.927 L137.3047,1122.439 L137.5,1161.463 L137.6953,1112.683 L137.8906,1151.707 L138.0859,1127.317 L138.2813,1151.707 L138.4766,1141.951 L138.6719,1171.219 L138.8672,1156.585 L139.0625,1156.585 L139.2578,1161.463 L139.4531,1161.463 L139.6484,1151.707 L139.8438,1122.439 L140.0391,1083.415 L140.2344,1176.098 L140.4297,1156.585 L140.625,1117.561 L140.8203,1161.463 L141.0156,1122.439 L141.2109,1166.341 L141.4063,1156.585 L141.6016,1166.341 L141.7969,1132.195 L141.9922,1156.585 L142.1875,1112.683 L142.3828,1107.805 L142.5781,1151.707 L142.7734,1190.732 L142.9688,1137.073 L143.1641,1112.683 L143.3594,1151.707 L143.5547,1122.439 L143.75,1127.317 L143.9453,1146.829 L144.1406,1122.439 L144.3359,1151.707 L144.5313,1141.951 L144.7266,1156.585 L144.9219,1137.073 L145.1172,1151.707 L145.3125,1161.463 L145.5078,1122.439 L145.7031,1112.683 L145.8984,1146.829 L146.0938,1161.463 L146.2891,1156.585 L146.4844,1063.902 L146.6797,1137.073 L146.875,1156.585 L147.0703,1146.829 L147.2656,1083.415 L147.4609,1141.951 L147.6563,1146.829 L147.8516,1151.707 L148.0469,1137.073 L148.2422,1146.829 L148.4375,1137.073 L148.6328,1112.683 L148.8281,1063.902 L149.0234,1166.341 L149.2188,1112.683 L149.4141,1098.049 L149.6094,1156.585 L149.8047,1151.707 L150,1107.805 L150.1953,1122.439 L150.3906,1102.927 L150.5859,1151.707 L150.7813,1141.951 L150.9766,1166.341 L151.1719,1122.439 L151.3672,1161.463 L151.5625,1137.073 L151.7578,1156.585 L151.9531,1141.951 L152.1484,1151.707 L152.3438,1137.073 L152.5391,1146.829 L152.7344,1161.463 L152.9297,1137.073 L153.125,1161.463 L153.3203,1161.463 L153.5156,1073.659 L153.7109,1107.805 L153.9063,1127.317 L154.1016,1151.707 L154.2969,1141.951 L154.4922,1151.707 L154.6875,1102.927 L154.8828,1151.707 L155.0781,1127.317 L155.2734,1151.707 L155.4688,1098.049 L155.6641,1161.463 L155.8594,1102.927 L156.0547,1146.829 L156.25,1098.049 L156.4453,1176.098 L156.6406,1137.073 L156.8359,1083.415 L157.0313,1098.049 L157.2266,1107.805 L157.4219,1141.951 L157.6172,1161.463 L157.8125,1156.585 L158.0078,1137.073 L158.2031,1151.707 L158.3984,1146.829 L158.5938,1151.707 L158.7891,1044.39 L158.9844,1127.317 L159.1797,1102.927 L159.375,1185.854 L159.5703,1107.805 L159.7656,1156.585 L159.9609,1107.805 L160.1563,1083.415 L160.3516,1132.195 L160.5469,1141.951 L160.7422,1161.463 L160.9375,1156.585 L161.1328,1132.195 L161.3281,1034.634 L161.5234,1127.317 L161.7188,1112.683 L161.9141,1141.951 L162.1094,1112.683 L162.3047,1151.707 L162.5,1166.341 L162.6953,1156.585 L162.8906,1146.829 L163.0859,1161.463 L163.2813,1141.951 L163.4766,1122.439 L163.6719,1146.829 L163.8672,1156.585 L164.0625,1102.927 L164.2578,1161.463 L164.4531,1161.463 L164.6484,1151.707 L164.8438,1156.585 L165.0391,1146.829 L165.2344,1156.585 L165.4297,1156.585 L165.625,1117.561 L165.8203,1151.707 L166.0156,1137.073 L166.2109,1156.585 L166.4063,1141.951 L166.6016,1068.781 L166.7969,1122.439 L166.9922,1112.683 L167.1875,1161.463 L167.3828,1141.951 L167.5781,1132.195 L167.7734,1141.951 L167.9688,1161.463 L168.1641,1141.951 L168.3594,1151.707 L168.5547,1146.829 L168.75,1146.829 L168.9453,1127.317 L169.1406,1200.488 L169.3359,1102.927 L169.5313,1117.561 L169.7266,1166.341 L169.9219,1156.585 L170.1172,1141.951 L170.3125,1151.707 L170.5078,1161.463 L170.7031,1146.829 L170.8984,1146.829 L171.0938,1146.829 L171.2891,1171.219 L171.4844,1093.171 L171.6797,1205.366 L171.875,1141.951 L172.0703,1151.707 L172.2656,1210.244 L172.4609,1171.219 L172.6563,1151.707 L172.8516,1127.317 L173.0469,1151.707 L173.2422,1044.39 L173.4375,1117.561 L173.6328,1102.927 L173.8281,1127.317 L174.0234,1151.707 L174.2188,1151.707 L174.4141,1102.927 L174.6094,1102.927 L174.8047,1122.439 L175,1107.805 L175.1953,1146.829 L175.3906,1141.951 L175.5859,1151.707 L175.7813,1171.219 L175.9766,1156.585 L176.1719,1176.098 L176.3672,1137.073 L176.5625,1166.341 L176.7578,1166.341 L176.9531,1156.585 L177.1484,1141.951 L177.3438,1098.049 L177.5391,1151.707 L177.7344,1161.463 L177.9297,1132.195 L178.125,1107.805 L178.3203,1151.707 L178.5156,1151.707 L178.7109,1161.463 L178.9063,1210.244 L179.1016,1146.829 L179.2969,1166.341 L179.4922,1137.073 L179.6875,1034.634 L179.8828,1161.463 L180.0781,1102.927 L180.2735,1054.146 L180.4688,1054.146 L180.6641,1151.707 L180.8594,1137.073 L181.0547,1151.707 L181.25,1151.707 L181.4453,1122.439 L181.6406,1161.463 L181.8359,1107.805 L182.0313,1156.585 L182.2266,1112.683 L182.4219,1161.463 L182.6172,1205.366 L182.8125,1117.561 L183.0078,1132.195 L183.2031,1098.049 L183.3984,1161.463 L183.5938,1122.439 L183.7891,1161.463 L183.9844,1166.341 L184.1797,1180.976 L184.375,1156.585 L184.5703,1151.707 L184.7656,1137.073 L184.9609,1146.829 L185.1563,1166.341 L185.3516,1073.659 L185.5469,1117.561 L185.7422,1171.219 L185.9375,1117.561 L186.1328,1151.707 L186.3281,1107.805 L186.5234,1156.585 L186.7188,1137.073 L186.9141,1156.585 L187.1094,1156.585 L187.3047,1161.463 L187.5,1161.463 L187.6953,1166.341 L187.8906,1141.951 L188.086,1166.341 L188.2813,1156.585 L188.4766,1166.341 L188.6719,1117.561 L188.8672,1137.073 L189.0625,1146.829 L189.2578,1127.317 L189.4531,1151.707 L189.6484,1127.317 L189.8438,1146.829 L190.0391,1156.585 L190.2344,1151.707 L190.4297,1132.195 L190.625,1161.463 L190.8203,1161.463 L191.0156,1141.951 L191.2109,1161.463 L191.4063,1098.049 L191.6016,1161.463 L191.7969,1166.341 L191.9922,1107.805 L192.1875,1127.317 L192.3828,1156.585 L192.5781,1127.317 L192.7734,1166.341 L192.9688,1151.707 L193.1641,1151.707 L193.3594,1156.585 L193.5547,1112.683 L193.75,1156.585 L193.9453,1146.829 L194.1406,1127.317 L194.3359,1161.463 L194.5313,1156.585 L194.7266,1156.585 L194.9219,1166.341 L195.1172,1141.951 L195.3125,1102.927 L195.5078,1117.561 L195.7031,1117.561 L195.8985,1171.219 L196.0938,1151.707 L196.2891,1132.195 L196.4844,1156.585 L196.6797,1151.707 L196.875,1132.195 L197.0703,1141.951 L197.2656,1102.927 L197.4609,1151.707 L197.6563,1107.805 L197.8516,1156.585 L198.0469,1132.195 L198.2422,1020 L198.4375,1156.585 L198.6328,1161.463 L198.8281,1166.341 L199.0234,1132.195 L199.2188,1161.463 L199.4141,1102.927 L199.6094,1137.073 L199.8047,1161.463 L200,1117.561 L200.1953,1161.463 L200.3906,1161.463 L200.5859,1112.683 L200.7813,1151.707 L200.9766,1122.439 L201.1719,1156.585 L201.3672,1161.463 L201.5625,1151.707 L201.7578,1112.683 L201.9531,1156.585 L202.1484,1161.463 L202.3438,1151.707 L202.5391,1200.488 L202.7344,1137.073 L202.9297,1146.829 L203.125,1151.707 L203.3203,1161.463 L203.5156,1117.561 L203.711,1166.341 L203.9063,1146.829 L204.1016,1117.561 L204.2969,1156.585 L204.4922,1180.976 L204.6875,1117.561 L204.8828,1151.707 L205.0781,1156.585 L205.2734,1151.707 L205.4688,1137.073 L205.6641,1156.585 L205.8594,1141.951 L206.0547,1146.829 L206.25,1180.976 L206.4453,1122.439 L206.6406,1161.463 L206.8359,1156.585 L207.0313,1151.707 L207.2266,1176.098 L207.4219,1141.951 L207.6172,1161.463 L207.8125,1161.463 L208.0078,1112.683 L208.2031,1088.293 L208.3984,1156.585 L208.5938,1166.341 L208.7891,1151.707 L208.9844,1151.707 L209.1797,1141.951 L209.375,1132.195 L209.5703,1146.829 L209.7656,1146.829 L209.9609,1200.488 L210.1563,1112.683 L210.3516,1161.463 L210.5469,1107.805 L210.7422,1122.439 L210.9375,1161.463 L211.1328,1156.585 L211.3281,1205.366 L211.5235,1132.195 L211.7188,1151.707 L211.9141,1132.195 L212.1094,1107.805 L212.3047,1137.073 L212.5,1088.293 L212.6953,1151.707 L212.8906,1132.195 L213.0859,1112.683 L213.2813,1107.805 L213.4766,1132.195 L213.6719,1161.463 L213.8672,1107.805 L214.0625,1107.805 L214.2578,1146.829 L214.4531,1141.951 L214.6484,1171.219 L214.8438,1156.585 L215.0391,1151.707 L215.2344,1117.561 L215.4297,1107.805 L215.625,1171.219 L215.8203,1132.195 L216.0156,1161.463 L216.2109,1161.463 L216.4063,1156.585 L216.6016,1156.585 L216.7969,1137.073 L216.9922,1161.463 L217.1875,1078.537 L217.3828,1151.707 L217.5781,1156.585 L217.7734,1176.098 L217.9688,1151.707 L218.1641,1146.829 L218.3594,1161.463 L218.5547,1132.195 L218.75,1141.951 L218.9453,1161.463 L219.1406,1146.829 L219.336,1137.073 L219.5313,1088.293 L219.7266,1112.683 L219.9219,1166.341 L220.1172,1166.341 L220.3125,1166.341 L220.5078,1044.39 L220.7031,1151.707 L220.8984,1161.463 L221.0938,1151.707 L221.2891,1146.829 L221.4844,1151.707 L221.6797,1098.049 L221.875,1117.561 L222.0703,1151.707 L222.2656,1161.463 L222.4609,1127.317 L222.6563,1151.707 L222.8516,1054.146 L223.0469,1141.951 L223.2422,1151.707 L223.4375,1112.683 L223.6328,1151.707 L223.8281,1132.195 L224.0234,1112.683 L224.2188,1151.707 L224.4141,1151.707 L224.6094,1161.463 L224.8047,1141.951 L225,1151.707 L225.1953,1151.707 L225.3906,1166.341 L225.5859,1141.951 L225.7813,1122.439 L225.9766,1156.585 L226.1719,1122.439 L226.3672,1137.073 L226.5625,1117.561 L226.7578,1156.585 L226.9531,1102.927 L227.1485,1141.951 L227.3438,1102.927 L227.5391,1161.463 L227.7344,1141.951 L227.9297,1156.585 L228.125,1161.463 L228.3203,1171.219 L228.5156,1102.927 L228.7109,1093.171 L228.9063,1151.707 L229.1016,1117.561 L229.2969,1161.463 L229.4922,1137.073 L229.6875,1151.707 L229.8828,1151.707 L230.0781,1156.585 L230.2734,1083.415 L230.4688,1137.073 L230.6641,1137.073 L230.8594,1122.439 L231.0547,1102.927 L231.25,1146.829 L231.4453,1156.585 L231.6406,1137.073 L231.8359,1132.195 L232.0313,1044.39 L232.2266,1151.707 L232.4219,1161.463 L232.6172,1068.781 L232.8125,1200.488 L233.0078,1156.585 L233.2031,1190.732 L233.3984,1107.805 L233.5938,1151.707 L233.7891,1137.073 L233.9844,1141.951 L234.1797,1180.976 L234.375,1088.293 L234.5703,1161.463 L234.7656,1161.463 L234.961,1156.585 L235.1563,1156.585 L235.3516,1127.317 L235.5469,1146.829 L235.7422,1137.073 L235.9375,1171.219 L236.1328,1151.707 L236.3281,1156.585 L236.5234,1122.439 L236.7188,1141.951 L236.9141,1146.829 L237.1094,1156.585 L237.3047,1146.829 L237.5,1146.829 L237.6953,1161.463 L237.8906,1161.463 L238.0859,1161.463 L238.2813,1171.219 L238.4766,1166.341 L238.6719,1127.317 L238.8672,1176.098 L239.0625,1156.585 L239.2578,1127.317 L239.4531,1102.927 L239.6484,1078.537 L239.8438,1098.049 L240.0391,1141.951 L240.2344,1049.268 L240.4297,1137.073 L240.625,1161.463 L240.8203,1156.585 L241.0156,1161.463 L241.2109,1127.317 L241.4063,1146.829 L241.6016,1132.195 L241.7969,1171.219 L241.9922,1093.171 L242.1875,1146.829 L242.3828,1137.073 L242.5781,1122.439 L242.7735,1176.098 L242.9688,1127.317 L243.1641,1141.951 L243.3594,1166.341 L243.5547,1171.219 L243.75,1161.463 L243.9453,1156.585 L244.1406,1107.805 L244.3359,1151.707 L244.5313,1151.707 L244.7266,1059.024 L244.9219,1161.463 L245.1172,1141.951 L245.3125,1146.829 L245.5078,1151.707 L245.7031,1137.073 L245.8984,1166.341 L246.0938,1112.683 L246.2891,1107.805 L246.4844,1156.585 L246.6797,1098.049 L246.875,1146.829 L247.0703,1112.683 L247.2656,1117.561 L247.4609,1122.439 L247.6563,1127.317 L247.8516,1102.927 L248.0469,1156.585 L248.2422,1146.829 L248.4375,1117.561 L248.6328,1151.707 L248.8281,1141.951 L249.0234,1132.195 L249.2188,1112.683 L249.4141,1200.488 L249.6094,1156.585 L249.8047,1112.683 L250,1171.219 L250.1953,1137.073 L250.3906,1151.707 L250.586,1141.951 L250.7813,1029.756 L250.9766,1132.195 L251.1719,1166.341 L251.3672,1156.585 L251.5625,1171.219 L251.7578,1161.463 L251.9531,1151.707 L252.1484,1098.049 L252.3438,1112.683 L252.5391,1117.561 L252.7344,1127.317 L252.9297,1151.707 L253.125,1141.951 L253.3203,1093.171 L253.5156,1151.707 L253.7109,1166.341 L253.9063,1112.683 L254.1016,1112.683 L254.2969,1141.951 L254.4922,1132.195 L254.6875,1137.073 L254.8828,1146.829 L255.0781,1146.829 L255.2734,1146.829 L255.4688,1137.073 L255.6641,1156.585 L255.8594,1156.585 L256.0547,1166.341 L256.25,1156.585 L256.4453,1122.439 L256.6406,1161.463 L256.8359,1112.683 L257.0313,1151.707 L257.2266,1171.219 L257.4219,1107.805 L257.6172,1151.707 L257.8125,1151.707 L258.0078,1151.707 L258.2031,1122.439 L258.3984,1107.805 L258.5938,1102.927 L258.7891,1146.829 L258.9844,1151.707 L259.1797,1156.585 L259.375,1132.195 L259.5703,1190.732 L259.7656,1156.585 L259.9609,1151.707 L260.1563,1146.829 L260.3516,1127.317 L260.5469,1146.829 L260.7422,1151.707 L260.9375,1107.805 L261.1328,1107.805 L261.3281,1205.366 L261.5234,1156.585 L261.7188,1146.829 L261.9141,1122.439 L262.1094,1117.561 L262.3047,1098.049 L262.5,1151.707 L262.6953,1195.61 L262.8906,1146.829 L263.0859,1156.585 L263.2813,1098.049 L263.4766,1102.927 L263.6719,1098.049 L263.8672,1161.463 L264.0625,1141.951 L264.2578,1151.707 L264.4531,1156.585 L264.6484,1156.585 L264.8438,1059.024 L265.0391,1102.927 L265.2344,1171.219 L265.4297,1156.585 L265.625,1151.707 L265.8203,1107.805 L266.0156,1107.805 L266.2109,1132.195 L266.4063,1102.927 L266.6016,1180.976 L266.7969,1141.951 L266.9922,1137.073 L267.1875,1156.585 L267.3828,1137.073 L267.5781,1146.829 L267.7734,1146.829 L267.9688,1122.439 L268.1641,1112.683 L268.3594,1151.707 L268.5547,1200.488 L268.75,1141.951 L268.9453,1107.805 L269.1406,1117.561 L269.3359,1180.976 L269.5313,1146.829 L269.7266,1156.585 L269.9219,1200.488 L270.1172,1146.829 L270.3125,1112.683 L270.5078,1151.707 L270.7031,1146.829 L270.8984,1117.561 L271.0938,1210.244 L271.2891,1073.659 L271.4844,1127.317 L271.6797,1146.829 L271.875,1166.341 L272.0703,1141.951 L272.2656,1107.805 L272.4609,1146.829 L272.6563,1156.585 L272.8516,1117.561 L273.0469,1117.561 L273.2422,1161.463 L273.4375,1141.951 L273.6328,1156.585 L273.8281,1102.927 L274.0234,1112.683 L274.2188,1161.463 L274.4141,1151.707 L274.6094,1151.707 L274.8047,1161.463 L275,1151.707 L275.1953,1200.488 L275.3906,1127.317 L275.5859,1137.073 L275.7813,1098.049 L275.9766,1141.951 L276.1719,1156.585 L276.3672,1127.317 L276.5625,1161.463 L276.7578,1146.829 L276.9531,1141.951 L277.1484,1102.927 L277.3438,1112.683 L277.5391,1156.585 L277.7344,1151.707 L277.9297,1141.951 L278.125,1117.561 L278.3203,1132.195 L278.5156,1146.829 L278.7109,1132.195 L278.9063,1146.829 L279.1016,1151.707 L279.2969,1146.829 L279.4922,1141.951 L279.6875,1180.976 L279.8828,1132.195 L280.0781,1156.585 L280.2734,1171.219 L280.4688,1141.951 L280.6641,1132.195 L280.8594,1102.927 L281.0547,1088.293 L281.25,1156.585 L281.4453,1151.707 L281.6406,1141.951 L281.8359,1161.463 L282.0313,1132.195 L282.2266,1151.707 L282.4219,1151.707 L282.6172,1156.585 L282.8125,1166.341 L283.0078,1137.073 L283.2031,1117.561 L283.3984,1161.463 L283.5938,1156.585 L283.7891,1088.293 L283.9844,1137.073 L284.1797,1127.317 L284.375,1146.829 L284.5703,1156.585 L284.7656,1151.707 L284.9609,1176.098 L285.1563,1102.927 L285.3516,1156.585 L285.5469,1161.463 L285.7422,1156.585 L285.9375,1156.585 L286.1328,1151.707 L286.3281,1156.585 L286.5234,1068.781 L286.7188,1156.585 L286.9141,1107.805 L287.1094,1146.829 L287.3047,1161.463 L287.5,1132.195 L287.6953,1132.195 L287.8906,1107.805 L288.0859,1068.781 L288.2813,1151.707 L288.4766,1166.341 L288.6719,1161.463 L288.8672,1107.805 L289.0625,1151.707 L289.2578,1068.781 L289.4531,1156.585 L289.6484,1117.561 L289.8438,1171.219 L290.0391,1137.073 L290.2344,1151.707 L290.4297,1137.073 L290.625,1156.585 L290.8203,1122.439 L291.0156,1146.829 L291.2109,1141.951 L291.4063,1146.829 L291.6016,1166.341 L291.7969,1156.585 L291.9922,1083.415 L292.1875,1176.098 L292.3828,1146.829 L292.5781,1151.707 L292.7734,1166.341 L292.9688,1205.366 L293.1641,1122.439 L293.3594,1127.317 L293.5547,1073.659 L293.75,1161.463 L293.9453,1122.439 L294.1406,1156.585 L294.3359,1210.244 L294.5313,1137.073 L294.7266,1156.585 L294.9219,1156.585 L295.1172,1156.585 L295.3125,1132.195 L295.5078,1132.195 L295.7031,1141.951 L295.8984,1151.707 L296.0938,1161.463 L296.2891,1151.707 L296.4844,1171.219 L296.6797,1112.683 L296.875,1063.902 L297.0703,1151.707 L297.2656,1112.683 L297.4609,1141.951 L297.6563,1146.829 L297.8516,1205.366 L298.0469,1137.073 L298.2422,1166.341 L298.4375,1112.683 L298.6328,1171.219 L298.8281,1161.463 L299.0234,1151.707 L299.2188,1156.585 L299.4141,1112.683 L299.6094,1146.829 L299.8047,1141.951 L300,1093.171 L300.1953,1180.976 L300.3906,1132.195 L300.5859,1088.293 L300.7813,1151.707 L300.9766,1117.561 L301.1719,1171.219 L301.3672,1141.951 L301.5625,1073.659 L301.7578,1093.171 L301.9531,1117.561 L302.1484,1107.805 L302.3438,1117.561 L302.5391,1146.829 L302.7344,1146.829 L302.9297,1185.854 L303.125,1161.463 L303.3203,1078.537 L303.5156,1137.073 L303.711,1127.317 L303.9063,1102.927 L304.1016,1151.707 L304.2969,1117.561 L304.4922,1107.805 L304.6875,1137.073 L304.8828,1098.049 L305.0781,1132.195 L305.2734,1151.707 L305.4688,1156.585 L305.6641,1156.585 L305.8594,1156.585 L306.0547,1166.341 L306.25,1112.683 L306.4453,1112.683 L306.6407,1024.878 L306.8359,1171.219 L307.0313,1171.219 L307.2266,1166.341 L307.4219,1156.585 L307.6172,1137.073 L307.8125,1146.829 L308.0078,1054.146 L308.2031,1107.805 L308.3984,1132.195 L308.5938,1112.683 L308.7891,1132.195 L308.9844,1146.829 L309.1797,1161.463 L309.375,1122.439 L309.5703,1137.073 L309.7656,1127.317 L309.9609,1137.073 L310.1563,1151.707 L310.3516,1112.683 L310.5469,1102.927 L310.7422,1098.049 L310.9375,1171.219 L311.1328,1161.463 L311.3281,1122.439 L311.5235,1137.073 L311.7188,1146.829 L311.9141,1156.585 L312.1094,1112.683 L312.3047,1161.463 L312.5,1141.951 L312.6953,1151.707 L312.8906,1122.439 L313.0859,1141.951 L313.2813,1059.024 L313.4766,1132.195 L313.6719,1146.829 L313.8672,1166.341 L314.0625,1127.317 L314.2578,1161.463 L314.4532,1176.098 L314.6484,1151.707 L314.8438,1156.585 L315.0391,1146.829 L315.2344,1146.829 L315.4297,1112.683 L315.625,1141.951 L315.8203,1098.049 L316.0156,1083.415 L316.2109,1107.805 L316.4063,1200.488 L316.6016,1117.561 L316.7969,1156.585 L316.9922,1093.171 L317.1875,1102.927 L317.3828,1176.098 L317.5781,1156.585 L317.7734,1141.951 L317.9688,1141.951 L318.1641,1156.585 L318.3594,1102.927 L318.5547,1132.195 L318.75,1151.707 L318.9453,1156.585 L319.1406,1156.585 L319.336,1127.317 L319.5313,1146.829 L319.7266,1122.439 L319.9219,1166.341 L320.1172,1171.219 L320.3125,1088.293 L320.5078,1176.098 L320.7031,1112.683 L320.8984,1151.707 L321.0938,1068.781 L321.2891,1112.683 L321.4844,1117.561 L321.6797,1127.317 L321.875,1049.268 L322.0703,1132.195 L322.2657,1107.805 L322.4609,1156.585 L322.6563,1166.341 L322.8516,1190.732 L323.0469,1146.829 L323.2422,1146.829 L323.4375,1151.707 L323.6328,1132.195 L323.8281,1093.171 L324.0234,1161.463 L324.2188,1132.195 L324.4141,1156.585 L324.6094,1127.317 L324.8047,1132.195 L325,1151.707 L325.1953,1063.902 L325.3906,1146.829 L325.5859,1137.073 L325.7813,1098.049 L325.9766,1141.951 L326.1719,1112.683 L326.3672,1146.829 L326.5625,1146.829 L326.7578,1146.829 L326.9531,1146.829 L327.1485,1151.707 L327.3438,1122.439 L327.5391,1161.463 L327.7344,1151.707 L327.9297,1137.073 L328.125,1107.805 L328.3203,1210.244 L328.5156,1141.951 L328.7109,1146.829 L328.9063,1176.098 L329.1016,1151.707 L329.2969,1161.463 L329.4922,1161.463 L329.6875,1156.585 L329.8828,1146.829 L330.0782,1122.439 L330.2734,1151.707 L330.4688,1132.195 L330.6641,1156.585 L330.8594,1161.463 L331.0547,1127.317 L331.25,1117.561 L331.4453,1151.707 L331.6406,1122.439 L331.8359,1132.195 L332.0313,1102.927 L332.2266,1137.073 L332.4219,1112.683 L332.6172,1151.707 L332.8125,1151.707 L333.0078,1151.707 L333.2031,1161.463 L333.3984,1073.659 L333.5938,1132.195 L333.7891,1166.341 L333.9844,1161.463 L334.1797,1122.439 L334.375,1156.585 L334.5703,1161.463 L334.7656,1161.463 L334.961,1107.805 L335.1563,1156.585 L335.3516,1156.585 L335.5469,1098.049 L335.7422,1200.488 L335.9375,1137.073 L336.1328,1137.073 L336.3281,1117.561 L336.5234,1156.585 L336.7188,1146.829 L336.9141,1107.805 L337.1094,1102.927 L337.3047,1117.561 L337.5,1137.073 L337.6953,1156.585 L337.8907,1166.341 L338.0859,1151.707 L338.2813,1132.195 L338.4766,1132.195 L338.6719,1137.073 L338.8672,1117.561 L339.0625,1132.195 L339.2578,1151.707 L339.4531,1122.439 L339.6484,1151.707 L339.8438,1151.707 L340.0391,1112.683 L340.2344,1156.585 L340.4297,1190.732 L340.625,1117.561 L340.8203,1171.219 L341.0156,1166.341 L341.2109,1146.829 L341.4063,1151.707 L341.6016,1156.585 L341.7969,1156.585 L341.9922,1156.585 L342.1875,1117.561 L342.3828,1180.976 L342.5781,1176.098 L342.7735,1161.463 L342.9688,1151.707 L343.1641,1137.073 L343.3594,1117.561 L343.5547,1127.317 L343.75,1146.829 L343.9453,1107.805 L344.1406,1146.829 L344.3359,1137.073 L344.5313,1151.707 L344.7266,1117.561 L344.9219,1161.463 L345.1172,1146.829 L345.3125,1156.585 L345.5078,1151.707 L345.7032,1151.707 L345.8984,1205.366 L346.0938,1098.049 L346.2891,1112.683 L346.4844,1117.561 L346.6797,1166.341 L346.875,1166.341 L347.0703,1161.463 L347.2656,1166.341 L347.4609,1141.951 L347.6563,1166.341 L347.8516,1122.439 L348.0469,1151.707 L348.2422,1127.317 L348.4375,1127.317 L348.6328,1127.317 L348.8281,1210.244 L349.0234,1107.805 L349.2188,1073.659 L349.4141,1156.585 L349.6094,1166.341 L349.8047,1146.829 L350,1137.073 L350.1953,1107.805 L350.3906,1151.707 L350.586,1156.585 L350.7813,1151.707 L350.9766,1102.927 L351.1719,1156.585 L351.3672,1093.171 L351.5625,1112.683 L351.7578,1078.537 L351.9531,1117.561 L352.1484,1151.707 L352.3438,1200.488 L352.5391,1156.585 L352.7344,1161.463 L352.9297,1156.585 L353.125,1185.854 L353.3203,1151.707 L353.5157,1132.195 L353.7109,1146.829 L353.9063,1146.829 L354.1016,1137.073 L354.2969,1156.585 L354.4922,1098.049 L354.6875,1166.341 L354.8828,1156.585 L355.0781,1161.463 L355.2734,1161.463 L355.4688,1151.707 L355.6641,1049.268 L355.8594,1102.927 L356.0547,1166.341 L356.25,1166.341 L356.4453,1127.317 L356.6406,1122.439 L356.8359,1185.854 L357.0313,1141.951 L357.2266,1151.707 L357.4219,1156.585 L357.6172,1156.585 L357.8125,1146.829 L358.0078,1161.463 L358.2031,1141.951 L358.3985,1156.585 L358.5938,1151.707 L358.7891,1102.927 L358.9844,1107.805 L359.1797,1137.073 L359.375,1166.341 L359.5703,1171.219 L359.7656,1073.659 L359.9609,1146.829 L360.1563,1146.829 L360.3516,1132.195 L360.5469,1151.707 L360.7422,1137.073 L360.9375,1180.976 L361.1328,1146.829 L361.3282,1151.707 L361.5234,1049.268 L361.7188,1112.683 L361.9141,1141.951 L362.1094,1151.707 L362.3047,1078.537 L362.5,1151.707 L362.6953,1151.707 L362.8906,1117.561 L363.0859,1151.707 L363.2813,1151.707 L363.4766,1166.341 L363.6719,1141.951 L363.8672,1146.829 L364.0625,1161.463 L364.2578,1151.707 L364.4531,1068.781 L364.6484,1127.317 L364.8438,1151.707 L365.0391,1151.707 L365.2344,1161.463 L365.4297,1210.244 L365.625,1102.927 L365.8203,1117.561 L366.0156,1200.488 L366.211,1122.439 L366.4063,1132.195 L366.6016,1059.024 L366.7969,1054.146 L366.9922,1146.829 L367.1875,1122.439 L367.3828,1151.707 L367.5781,1161.463 L367.7734,1068.781 L367.9688,1161.463 L368.1641,1132.195 L368.3594,1171.219 L368.5547,1156.585 L368.75,1127.317 L368.9453,1161.463 L369.1407,1151.707 L369.3359,1107.805 L369.5313,1151.707 L369.7266,1137.073 L369.9219,1151.707 L370.1172,1151.707 L370.3125,1132.195 L370.5078,1073.659 L370.7031,1156.585 L370.8984,1122.439 L371.0938,1117.561 L371.2891,1171.219 L371.4844,1088.293 L371.6797,1137.073 L371.875,1166.341 L372.0703,1166.341 L372.2656,1117.561 L372.4609,1146.829 L372.6563,1156.585 L372.8516,1117.561 L373.0469,1180.976 L373.2422,1156.585 L373.4375,1127.317 L373.6328,1151.707 L373.8281,1151.707 L374.0235,1137.073 L374.2188,1156.585 L374.4141,1122.439 L374.6094,1151.707 L374.8047,1151.707 L375,1102.927 L375.1953,1146.829 L375.3906,1171.219 L375.5859,1146.829 L375.7813,1161.463 L375.9766,1156.585 L376.1719,1146.829 L376.3672,1151.707 L376.5625,1161.463 L376.7578,1122.439 L376.9532,1161.463 L377.1484,1156.585 L377.3438,1102.927 L377.5391,1068.781 L377.7344,1044.39 L377.9297,1146.829 L378.125,1190.732 L378.3203,1117.561 L378.5156,1156.585 L378.7109,1156.585 " stroke="blue" fill="none" />
<text x="50" y="1270" font-family="Arial" font-size="12" fill="black">Policy Loss</text>
<text x="50" y="1285" font-family="Arial" font-size="10" fill="black">0.03588045</text>
<text x="50" y="1500" font-family="Arial" font-size="10" fill="black">0.03311021</text>
<path d="M50,1490 L75,1355.106 L100,1290.001 " stroke="blue" fill="none" />
<text x="50" y="1540" font-family="Arial" font-size="12" fill="black">Value Loss</text>
<text x="50" y="1555" font-family="Arial" font-size="10" fill="black">0.002309608</text>
<text x="50" y="1770" font-family="Arial" font-size="10" fill="black">0.001907787</text>
<path d="M50,1760 L75,1642.111 L100,1560.005 " stroke="blue" fill="none" />
<text x="50" y="1810" font-family="Arial" font-size="12" fill="black">Learning Rate</text>
<text x="50" y="1825" font-family="Arial" font-size="10" fill="black">0.0002</text>
<text x="50" y="2040" font-family="Arial" font-size="10" fill="black">0.0002</text>
<path d="M50,2030 L75,2030 L100,2030 " stroke="blue" fill="none" />
<text x="50" y="2080" font-family="Arial" font-size="12" fill="black">Entropy</text>
<text x="50" y="2095" font-family="Arial" font-size="10" fill="black">0.3522007</text>
<text x="50" y="2310" font-family="Arial" font-size="10" fill="black">0.3499995</text>
<path d="M50,2300 L75,2101.244 L100,2100.001 " stroke="blue" fill="none" />
<text x="750" y="730" font-family="Arial" font-size="12" fill="black">Simplified</text>
<text x="750" y="745" font-family="Arial" font-size="10" fill="black">0.6397894</text>
<text x="750" y="960" font-family="Arial" font-size="10" fill="black">0.5350526</text>
<path d="M753.5156,950 L757.2266,774.1208 L760.9375,864.0704 L764.6484,872.6132 L768.3594,821.8593 L772.0703,863.5679 L775.7813,750 L779.4922,833.4171 L783.2031,773.1155 L786.9141,819.8492 L790.625,898.7439 L794.3359,755.0251 L798.0469,858.5428 L801.7578,855.0251 L805.4688,857.5377 L809.1797,869.0953 L812.8906,885.6783 L816.6016,824.8745 L820.3125,878.6433 L824.0234,875.1255 L827.7344,904.7739 L831.4453,887.1859 L835.1563,865.0754 L838.8672,881.6583 L842.5781,856.0303 L846.2891,885.1759 L850,802.2615 L853.7109,840.4521 L857.4219,828.8944 L861.1328,837.9398 L864.8438,852.5126 L868.5547,840.9548 L872.2656,948.4926 L875.9766,818.3418 L879.6875,889.6985 L883.3984,810.804 L887.1094,857.5377 L890.8203,898.2411 L894.5313,865.0754 L898.2422,857.0351 L901.9531,866.0806 L905.6641,931.4069 L909.375,924.8743 L913.0859,842.9648 L916.7969,860.0502 L920.5078,856.0302 L924.2188,811.3065 L927.9297,897.7389 L931.6406,856.5327 L935.3516,896.7336 L939.0625,905.2764 L942.7734,792.211 L946.4844,836.4321 L950.1953,809.7991 L953.9063,829.3969 L957.6172,855.5276 L961.3281,893.2161 L965.0391,865.5779 L968.75,869.5981 L972.4609,892.2111 L976.1719,877.1358 L979.8828,873.6182 L983.5938,857.5376 L987.3047,850.5025 L991.0156,822.8644 L994.7266,925.377 L998.4375,862.0604 L1002.148,834.4221 L1005.859,832.9147 L1009.57,792.7136 L1013.281,789.6985 L1016.992,830.9047 L1020.703,867.5878 L1024.414,803.2664 L1028.125,828.8944 L1031.836,889.6985 L1035.547,883.6685 L1039.258,817.3365 L1042.969,919.3466 L1046.68,879.6482 L1050.391,855.5277 L1054.102,876.1308 L1057.813,856.533 L1061.523,852.5126 L1065.234,862.5628 L1068.945,801.7587 L1072.656,851.5075 L1076.367,900.7538 L1078.711,787.3116 " stroke="blue" fill="none" />
<text x="750" y="1000" font-family="Arial" font-size="12" fill="black">Simplified</text>
<text x="750" y="1015" font-family="Arial" font-size="10" fill="black">40.78947</text>
<text x="750" y="1230" font-family="Arial" font-size="10" fill="black">32.78947</text>
<path d="M753.5156,1220 L757.2266,1087.105 L760.9375,1147.632 L764.6484,1130.526 L768.3594,1116.053 L772.0703,1146.316 L775.7813,1066.053 L779.4922,1126.579 L783.2031,1067.368 L786.9141,1110.79 L790.625,1159.474 L794.3359,1020 L798.0469,1152.895 L801.7578,1123.947 L805.4688,1130.526 L809.1797,1141.053 L812.8906,1164.737 L816.6016,1123.947 L820.3125,1166.053 L824.0234,1117.368 L827.7344,1175.263 L831.4453,1148.947 L835.1563,1150.263 L838.8672,1134.474 L842.5781,1146.316 L846.2891,1143.684 L850,1064.737 L853.7109,1125.263 L857.4219,1075.263 L861.1328,1098.947 L864.8438,1117.368 L868.5547,1126.579 L872.2656,1191.053 L875.9766,1087.105 L879.6875,1155.526 L883.3984,1087.105 L887.1094,1150.263 L890.8203,1177.895 L894.5313,1150.263 L898.2422,1089.737 L901.9531,1152.895 L905.6641,1185.79 L909.375,1168.684 L913.0859,1131.842 L916.7969,1137.105 L920.5078,1126.579 L924.2188,1108.158 L927.9297,1137.105 L931.6406,1108.158 L935.3516,1134.474 L939.0625,1196.316 L942.7734,1077.895 L946.4844,1134.474 L950.1953,1104.211 L953.9063,1096.316 L957.6172,1145 L961.3281,1145 L965.0391,1092.368 L968.75,1142.368 L972.4609,1142.368 L976.1719,1142.368 L979.8828,1133.158 L983.5938,1150.263 L987.3047,1131.842 L991.0156,1098.947 L994.7266,1170 L998.4375,1142.368 L1002.148,1089.737 L1005.859,1105.526 L1009.57,1079.211 L1013.281,1091.053 L1016.992,1120 L1020.703,1137.105 L1024.414,1087.105 L1028.125,1095 L1031.836,1175.263 L1035.547,1120 L1039.258,1123.947 L1042.969,1193.684 L1046.68,1129.211 L1050.391,1145 L1054.102,1139.737 L1057.813,1147.632 L1061.523,1117.368 L1065.234,1123.947 L1068.945,1102.895 L1072.656,1114.737 L1076.367,1164.737 L1078.711,1089.737 " stroke="blue" fill="none" />
</svg>
