<svg width="2000" height="2500" xmlns="http://www.w3.org/2000/svg">
<text x="10" y="20" font-family="Arial" font-size="26" fill="black"> [PuppyScript] Training Session</text>
<text x="10" y="50" font-family="Arial" font-size="16" fill="black">[Statistics]</text>
<text x="50" y="70" font-family="Arial" font-size="12" fill="black">Started at: 2:11:16 PM, Monday, January 1, 2024</text>
<text x="50" y="90" font-family="Arial" font-size="12" fill="black">Finished at: 2:12:27 PM, Monday, January 1, 2024</text>
<text x="50" y="110" font-family="Arial" font-size="12" fill="black">Training Session Time: 0 hrs : 1 min : 11 sec</text>
<text x="50" y="130" font-family="Arial" font-size="12" fill="black">Inference Time: 0 hrs : 17 min : 4 sec        [Device: CPU]</text>
<text x="50" y="150" font-family="Arial" font-size="12" fill="black">Policy Update Time: 0 hrs : 0 min : 18 sec        [Per iteration: 0 hrs : 0 min : 17.483 sec]        [Device: GPU]</text>
<text x="50" y="170" font-family="Arial" font-size="12" fill="black">Inference Time / Training Session Time: 14.152</text>
<text x="50" y="190" font-family="Arial" font-size="12" fill="black">Policy Update Time / Training Session Time: 0.248</text>
<text x="50" y="210" font-family="Arial" font-size="12" fill="black">Episode Count: 1268</text>
<text x="50" y="230" font-family="Arial" font-size="12" fill="black">Inference Steps: 10481    [Per agent: 10481]     [Per Episode (mean): 8]</text>
<text x="50" y="250" font-family="Arial" font-size="12" fill="black">Iterations: 1</text>
<text x="50" y="270" font-family="Arial" font-size="12" fill="black">Parallel Agents: 1</text>
<text x="50" y="290" font-family="Arial" font-size="12" fill="black">Timescale: 38.2</text>
<text x="50" y="310" font-family="Arial" font-size="12" fill="black">Trainer: PPO</text>
<text x="10" y="360" font-family="Arial" font-size="16" fill="black">[Hyperparameters]</text>
<text x="50" y="380" font-family="Arial" font-size="12" fill="black">Buffer Size: 10240        [Batch Size: 512       (x20)]</text>
<text x="50" y="400" font-family="Arial" font-size="12" fill="black">Num Epoch: 8</text>
<text x="50" y="420" font-family="Arial" font-size="12" fill="black">Time Horizon: 64</text>
<text x="50" y="440" font-family="Arial" font-size="12" fill="black">Gradient Cliping Normalization: 0.5</text>
<text x="50" y="460" font-family="Arial" font-size="12" fill="black">Learning Rate Schedule: False    </text>
<text x="10" y="510" font-family="Arial" font-size="16" fill="black">[Behaviour]</text>
<text x="50" y="530" font-family="Arial" font-size="12" fill="black">Space Size: 156</text>
<text x="50" y="550" font-family="Arial" font-size="12" fill="black">Continuous Actions: 60 [Standard Deviation: Fixed]     [Value: 1.7]</text>
<text x="50" y="570" font-family="Arial" font-size="12" fill="black">Discrete Actions: 0</text>
<text x="50" y="590" font-family="Arial" font-size="12" fill="black">TargetFPS: 50 (physics update rate)</text>
<text x="50" y="610" font-family="Arial" font-size="12" fill="black">Observations Normalization: False</text>
<text x="10" y="660" font-family="Arial" font-size="16" fill="black">[Decision Requester]</text>
<text x="50" y="680" font-family="Arial" font-size="12" fill="black">Max Step: 1000</text>
<text x="50" y="700" font-family="Arial" font-size="12" fill="black">Decision Period: 5      [Actions Between Decisions: True]</text>
<text x="10" y="750" font-family="Arial" font-size="16" fill="black">[Graphs]</text>
<text x="50" y="770" font-family="Arial" font-size="12" fill="black">Episode Reward (1268)</text>
<text x="50" y="785" font-family="Arial" font-size="10" fill="black">-1</text>
<text x="50" y="1000" font-family="Arial" font-size="10" fill="black">-3</text>
<path d="M50,790 L50.39063,790 L50.78125,790 L51.17188,790 L51.5625,790 L51.95313,790 L52.34375,790 L52.73438,790 L53.125,790 L53.51563,790 L53.90625,790 L54.29688,790 L54.6875,790 L55.07813,790 L55.46875,790 L55.85938,790 L56.25,790 L56.64063,790 L57.03125,790 L57.42188,790 L57.8125,790 L58.20313,790 L58.59375,790 L58.98438,790 L59.375,790 L59.76563,790 L60.15625,790 L60.54688,790 L60.9375,790 L61.32813,790 L61.71875,790 L62.10938,790 L62.5,790 L62.89063,790 L63.28125,790 L63.67188,790 L64.0625,790 L64.45313,790 L64.84375,790 L65.23438,790 L65.625,890 L66.01563,790 L66.40625,790 L66.79688,790 L67.1875,790 L67.57813,790 L67.96875,790 L68.35938,790 L68.75,790 L69.14063,790 L69.53125,790 L69.92188,790 L70.3125,790 L70.70313,790 L71.09375,890 L71.48438,790 L71.875,790 L72.26563,790 L72.65625,790 L73.04688,790 L73.4375,890 L73.82813,790 L74.21875,790 L74.60938,790 L75,790 L75.39063,790 L75.78125,790 L76.17188,790 L76.5625,790 L76.95313,790 L77.34375,790 L77.73438,790 L78.125,790 L78.51563,790 L78.90625,790 L79.29688,790 L79.6875,890 L80.07813,790 L80.46875,890 L80.85938,790 L81.25,790 L81.64063,790 L82.03125,790 L82.42188,790 L82.8125,890 L83.20313,790 L83.59375,790 L83.98438,790 L84.375,790 L84.76563,790 L85.15625,790 L85.54688,790 L85.9375,790 L86.32813,790 L86.71875,790 L87.10938,890 L87.5,790 L87.89063,790 L88.28125,790 L88.67188,890 L89.0625,790 L89.45313,790 L89.84375,790 L90.23438,790 L90.625,790 L91.01563,790 L91.40625,790 L91.79688,890 L92.1875,790 L92.57813,890 L92.96875,890 L93.35938,790 L93.75,790 L94.14063,790 L94.53125,790 L94.92188,790 L95.3125,790 L95.70313,790 L96.09375,790 L96.48438,790 L96.875,890 L97.26563,790 L97.65625,790 L98.04688,790 L98.4375,790 L98.82813,790 L99.21875,790 L99.60938,790 L100,790 L100.3906,790 L100.7813,890 L101.1719,790 L101.5625,890 L101.9531,790 L102.3438,790 L102.7344,890 L103.125,790 L103.5156,790 L103.9063,790 L104.2969,790 L104.6875,790 L105.0781,790 L105.4688,790 L105.8594,790 L106.25,790 L106.6406,790 L107.0313,890 L107.4219,790 L107.8125,790 L108.2031,790 L108.5938,790 L108.9844,790 L109.375,790 L109.7656,790 L110.1563,790 L110.5469,790 L110.9375,790 L111.3281,790 L111.7188,790 L112.1094,790 L112.5,790 L112.8906,790 L113.2813,790 L113.6719,790 L114.0625,790 L114.4531,790 L114.8438,790 L115.2344,790 L115.625,790 L116.0156,790 L116.4063,790 L116.7969,790 L117.1875,890 L117.5781,790 L117.9688,790 L118.3594,790 L118.75,790 L119.1406,790 L119.5313,790 L119.9219,790 L120.3125,790 L120.7031,790 L121.0938,790 L121.4844,790 L121.875,790 L122.2656,790 L122.6563,790 L123.0469,790 L123.4375,790 L123.8281,790 L124.2188,990 L124.6094,790 L125,790 L125.3906,790 L125.7813,790 L126.1719,790 L126.5625,790 L126.9531,790 L127.3438,790 L127.7344,790 L128.125,790 L128.5156,790 L128.9063,790 L129.2969,790 L129.6875,890 L130.0781,890 L130.4688,790 L130.8594,790 L131.25,890 L131.6406,890 L132.0313,790 L132.4219,790 L132.8125,790 L133.2031,790 L133.5938,790 L133.9844,790 L134.375,790 L134.7656,790 L135.1563,790 L135.5469,790 L135.9375,790 L136.3281,790 L136.7188,890 L137.1094,890 L137.5,790 L137.8906,790 L138.2813,790 L138.6719,790 L139.0625,790 L139.4531,790 L139.8438,790 L140.2344,790 L140.625,790 L141.0156,790 L141.4063,790 L141.7969,790 L142.1875,790 L142.5781,890 L142.9688,790 L143.3594,790 L143.75,790 L144.1406,790 L144.5313,790 L144.9219,790 L145.3125,790 L145.7031,790 L146.0938,790 L146.4844,790 L146.875,790 L147.2656,790 L147.6563,790 L148.0469,890 L148.4375,790 L148.8281,790 L149.2188,890 L149.6094,790 L150,790 L150.3906,790 L150.7813,790 L151.1719,890 L151.5625,790 L151.9531,890 L152.3438,790 L152.7344,890 L153.125,890 L153.5156,790 L153.9063,790 L154.2969,790 L154.6875,790 L155.0781,790 L155.4688,790 L155.8594,790 L156.25,790 L156.6406,790 L157.0313,790 L157.4219,790 L157.8125,790 L158.2031,790 L158.5938,790 L158.9844,790 L159.375,790 L159.7656,890 L160.1563,890 L160.5469,790 L160.9375,790 L161.3281,790 L161.7188,790 L162.1094,890 L162.5,890 L162.8906,790 L163.2813,790 L163.6719,790 L164.0625,790 L164.4531,790 L164.8438,790 L165.2344,890 L165.625,790 L166.0156,790 L166.4063,790 L166.7969,790 L167.1875,890 L167.5781,790 L167.9688,790 L168.3594,790 L168.75,790 L169.1406,790 L169.5313,790 L169.9219,790 L170.3125,890 L170.7031,890 L171.0938,790 L171.4844,890 L171.875,790 L172.2656,790 L172.6563,790 L173.0469,790 L173.4375,790 L173.8281,790 L174.2188,790 L174.6094,790 L175,890 L175.3906,790 L175.7813,890 L176.1719,790 L176.5625,890 L176.9531,790 L177.3438,790 L177.7344,790 L178.125,890 L178.5156,790 L178.9063,790 L179.2969,790 L179.6875,790 L180.0781,790 L180.4688,790 L180.8594,790 L181.25,790 L181.6406,790 L182.0313,790 L182.4219,790 L182.8125,790 L183.2031,790 L183.5938,790 L183.9844,790 L184.375,790 L184.7656,790 L185.1563,790 L185.5469,790 L185.9375,890 L186.3281,790 L186.7188,790 L187.1094,790 L187.5,790 L187.8906,890 L188.2813,790 L188.6719,790 L189.0625,790 L189.4531,790 L189.8438,790 L190.2344,790 L190.625,790 L191.0156,790 L191.4063,790 L191.7969,790 L192.1875,790 L192.5781,790 L192.9688,790 L193.3594,790 L193.75,790 L194.1406,890 L194.5313,790 L194.9219,790 L195.3125,790 L195.7031,790 L196.0938,790 L196.4844,790 L196.875,790 L197.2656,790 L197.6563,790 L198.0469,790 L198.4375,790 L198.8281,790 L199.2188,790 L199.6094,790 L200,790 L200.3906,790 L200.7813,790 L201.1719,790 L201.5625,890 L201.9531,790 L202.3438,790 L202.7344,790 L203.125,790 L203.5156,890 L203.9063,790 L204.2969,790 L204.6875,790 L205.0781,790 L205.4688,790 L205.8594,790 L206.25,790 L206.6406,890 L207.0313,790 L207.4219,790 L207.8125,790 L208.2031,790 L208.5938,790 L208.9844,790 L209.375,790 L209.7656,790 L210.1563,790 L210.5469,790 L210.9375,790 L211.3281,790 L211.7188,790 L212.1094,790 L212.5,890 L212.8906,790 L213.2813,790 L213.6719,790 L214.0625,790 L214.4531,790 L214.8438,790 L215.2344,890 L215.625,790 L216.0156,790 L216.4063,790 L216.7969,790 L217.1875,790 L217.5781,790 L217.9688,790 L218.3594,790 L218.75,790 L219.1406,790 L219.5313,790 L219.9219,890 L220.3125,790 L220.7031,790 L221.0938,790 L221.4844,790 L221.875,890 L222.2656,790 L222.6563,790 L223.0469,790 L223.4375,790 L223.8281,790 L224.2188,790 L224.6094,790 L225,790 L225.3906,790 L225.7813,890 L226.1719,790 L226.5625,790 L226.9531,790 L227.3438,890 L227.7344,790 L228.125,790 L228.5156,790 L228.9063,790 L229.2969,790 L229.6875,790 L230.0781,790 L230.4688,790 L230.8594,890 L231.25,890 L231.6406,790 L232.0313,790 L232.4219,790 L232.8125,790 L233.2031,790 L233.5938,790 L233.9844,790 L234.375,790 L234.7656,890 L235.1563,790 L235.5469,790 L235.9375,790 L236.3281,890 L236.7188,790 L237.1094,790 L237.5,790 L237.8906,790 L238.2813,790 L238.6719,790 L239.0625,790 L239.4531,790 L239.8438,790 L240.2344,790 L240.625,790 L241.0156,790 L241.4063,790 L241.7969,790 L242.1875,790 L242.5781,790 L242.9688,790 L243.3594,790 L243.75,890 L244.1406,790 L244.5313,790 L244.9219,790 L245.3125,790 L245.7031,790 L246.0938,790 L246.4844,790 L246.875,790 L247.2656,790 L247.6563,790 L248.0469,790 L248.4375,790 L248.8281,790 L249.2188,790 L249.6094,790 L250,790 L250.3906,790 L250.7813,790 L251.1719,790 L251.5625,790 L251.9531,790 L252.3438,790 L252.7344,790 L253.125,790 L253.5156,790 L253.9063,790 L254.2969,790 L254.6875,790 L255.0781,790 L255.4688,790 L255.8594,790 L256.25,790 L256.6406,790 L257.0313,790 L257.4219,790 L257.8125,790 L258.2031,790 L258.5938,790 L258.9844,790 L259.375,790 L259.7656,790 L260.1563,790 L260.5469,790 L260.9375,790 L261.3281,790 L261.7188,790 L262.1094,790 L262.5,790 L262.8906,790 L263.2813,790 L263.6719,790 L264.0625,790 L264.4531,790 L264.8438,790 L265.2344,790 L265.625,790 L266.0156,790 L266.4063,790 L266.7969,790 L267.1875,790 L267.5781,790 L267.9688,890 L268.3594,790 L268.75,790 L269.1406,790 L269.5313,790 L269.9219,790 L270.3125,790 L270.7031,790 L271.0938,790 L271.4844,790 L271.875,790 L272.2656,790 L272.6563,790 L273.0469,790 L273.4375,890 L273.8281,790 L274.2188,790 L274.6094,790 L275,790 L275.3906,790 L275.7813,790 L276.1719,790 L276.5625,890 L276.9531,790 L277.3438,790 L277.7344,790 L278.125,890 L278.5156,790 L278.9063,790 L279.2969,790 L279.6875,790 L280.0781,790 L280.4688,790 L280.8594,790 L281.25,790 L281.6406,790 L282.0313,790 L282.4219,790 L282.8125,790 L283.2031,790 L283.5938,790 L283.9844,790 L284.375,790 L284.7656,790 L285.1563,790 L285.5469,790 L285.9375,790 L286.3281,890 L286.7188,790 L287.1094,790 L287.5,790 L287.8906,790 L288.2813,790 L288.6719,790 L289.0625,790 L289.4531,790 L289.8438,790 L290.2344,790 L290.625,790 L291.0156,790 L291.4063,790 L291.7969,790 L292.1875,890 L292.5781,790 L292.9688,790 L293.3594,790 L293.75,790 L294.1406,790 L294.5313,790 L294.9219,890 L295.3125,790 L295.7031,790 L296.0938,790 L296.4844,790 L296.875,790 L297.2656,790 L297.6563,890 L298.0469,790 L298.4375,790 L298.8281,790 L299.2188,790 L299.6094,790 L300,790 L300.3906,790 L300.7813,790 L301.1719,790 L301.5625,790 L301.9531,790 L302.3438,790 L302.7344,790 L303.125,790 L303.5156,790 L303.9063,790 L304.2969,790 L304.6875,790 L305.0781,790 L305.4688,790 L305.8594,790 L306.25,790 L306.6407,790 L307.0313,790 L307.4219,790 L307.8125,890 L308.2031,790 L308.5938,790 L308.9844,790 L309.375,790 L309.7656,790 L310.1563,790 L310.5469,790 L310.9375,790 L311.3281,790 L311.7188,790 L312.1094,890 L312.5,790 L312.8906,790 L313.2813,790 L313.6719,890 L314.0625,790 L314.4532,790 L314.8438,790 L315.2344,790 L315.625,790 L316.0156,790 L316.4063,790 L316.7969,790 L317.1875,790 L317.5781,790 L317.9688,790 L318.3594,990 L318.75,790 L319.1406,990 L319.5313,790 L319.9219,790 L320.3125,790 L320.7031,790 L321.0938,790 L321.4844,790 L321.875,790 L322.2657,790 L322.6563,790 L323.0469,790 L323.4375,790 L323.8281,790 L324.2188,790 L324.6094,790 L325,790 L325.3906,790 L325.7813,790 L326.1719,790 L326.5625,790 L326.9531,790 L327.3438,790 L327.7344,790 L328.125,790 L328.5156,790 L328.9063,790 L329.2969,790 L329.6875,890 L330.0782,790 L330.4688,790 L330.8594,790 L331.25,790 L331.6406,890 L332.0313,790 L332.4219,790 L332.8125,790 L333.2031,790 L333.5938,790 L333.9844,790 L334.375,790 L334.7656,790 L335.1563,890 L335.5469,790 L335.9375,790 L336.3281,790 L336.7188,790 L337.1094,790 L337.5,790 L337.8907,790 L338.2813,790 L338.6719,790 L339.0625,790 L339.4531,890 L339.8438,790 L340.2344,790 L340.625,890 L341.0156,790 L341.4063,790 L341.7969,790 L342.1875,790 L342.5781,790 L342.9688,790 L343.3594,890 L343.75,890 L344.1406,790 L344.5313,790 L344.9219,790 L345.3125,890 L345.7032,790 L346.0938,790 L346.4844,790 L346.875,790 L347.2656,790 L347.6563,790 L348.0469,790 L348.4375,790 L348.8281,890 L349.2188,790 L349.6094,890 L350,790 L350.3906,790 L350.7813,890 L351.1719,790 L351.5625,790 L351.9531,790 L352.3438,790 L352.7344,790 L353.125,790 L353.5157,790 L353.9063,790 L354.2969,890 L354.6875,890 L355.0781,790 L355.4688,890 L355.8594,790 L356.25,790 L356.6406,990 L357.0313,890 L357.4219,790 L357.8125,790 L358.2031,790 L358.5938,790 L358.9844,790 L359.375,790 L359.7656,790 L360.1563,790 L360.5469,790 L360.9375,790 L361.3282,790 L361.7188,790 L362.1094,790 L362.5,790 L362.8906,790 L363.2813,790 L363.6719,790 L364.0625,790 L364.4531,790 L364.8438,790 L365.2344,790 L365.625,790 L366.0156,790 L366.4063,790 L366.7969,790 L367.1875,790 L367.5781,790 L367.9688,790 L368.3594,890 L368.75,890 L369.1407,790 L369.5313,790 L369.9219,790 L370.3125,790 L370.7031,790 L371.0938,790 L371.4844,790 L371.875,790 L372.2656,790 L372.6563,790 L373.0469,790 L373.4375,790 L373.8281,790 L374.2188,790 L374.6094,790 L375,790 L375.3906,790 L375.7813,790 L376.1719,790 L376.5625,790 L376.9532,890 L377.3438,790 L377.7344,790 L378.125,790 L378.5156,790 L378.9063,890 L379.2969,790 L379.6875,790 L380.0781,790 L380.4688,790 L380.8594,790 L381.25,790 L381.6406,790 L382.0313,790 L382.4219,790 L382.8125,790 L383.2031,790 L383.5938,790 L383.9844,790 L384.375,790 L384.7657,790 L385.1563,790 L385.5469,790 L385.9375,790 L386.3281,790 L386.7188,790 L387.1094,790 L387.5,890 L387.8906,790 L388.2813,790 L388.6719,890 L389.0625,790 L389.4531,790 L389.8438,790 L390.2344,790 L390.625,790 L391.0156,790 L391.4063,790 L391.7969,790 L392.1875,790 L392.5782,790 L392.9688,790 L393.3594,890 L393.75,790 L394.1406,790 L394.5313,790 L394.9219,890 L395.3125,790 L395.7031,790 L396.0938,790 L396.4844,890 L396.875,790 L397.2656,790 L397.6563,790 L398.0469,790 L398.4375,790 L398.8281,790 L399.2188,790 L399.6094,790 L400,890 L400.3907,790 L400.7813,790 L401.1719,790 L401.5625,790 L401.9531,790 L402.3438,790 L402.7344,790 L403.125,790 L403.5156,790 L403.9063,790 L404.2969,790 L404.6875,790 L405.0781,790 L405.4688,790 L405.8594,790 L406.25,790 L406.6406,790 L407.0313,790 L407.4219,790 L407.8125,790 L408.2032,790 L408.5938,790 L408.9844,890 L409.375,790 L409.7656,790 L410.1563,790 L410.5469,790 L410.9375,790 L411.3281,790 L411.7188,890 L412.1094,790 L412.5,890 L412.8906,790 L413.2813,790 L413.6719,790 L414.0625,790 L414.4531,790 L414.8438,890 L415.2344,790 L415.625,790 L416.0157,790 L416.4063,790 L416.7969,790 L417.1875,790 L417.5781,790 L417.9688,790 L418.3594,890 L418.75,790 L419.1406,890 L419.5313,790 L419.9219,790 L420.3125,790 L420.7031,790 L421.0938,790 L421.4844,890 L421.875,790 L422.2656,790 L422.6563,790 L423.0469,790 L423.4375,790 L423.8282,790 L424.2188,790 L424.6094,890 L425,790 L425.3906,790 L425.7813,790 L426.1719,790 L426.5625,790 L426.9531,790 L427.3438,890 L427.7344,790 L428.125,790 L428.5156,790 L428.9063,790 L429.2969,790 L429.6875,790 L430.0781,790 L430.4688,790 L430.8594,790 L431.25,790 L431.6407,790 L432.0313,790 L432.4219,790 L432.8125,790 L433.2031,790 L433.5938,790 L433.9844,790 L434.375,890 L434.7656,790 L435.1563,790 L435.5469,790 L435.9375,790 L436.3281,790 L436.7188,790 L437.1094,790 L437.5,790 L437.8906,790 L438.2813,790 L438.6719,790 L439.0625,790 L439.4532,790 L439.8438,790 L440.2344,790 L440.625,790 L441.0156,790 L441.4063,790 L441.7969,790 L442.1875,790 L442.5781,890 L442.9688,890 L443.3594,790 L443.75,790 L444.1406,790 L444.5313,790 L444.9219,890 L445.3125,890 L445.7031,790 L446.0938,790 L446.4844,790 L446.875,790 L447.2657,790 L447.6563,790 L448.0469,790 L448.4375,790 L448.8281,790 L449.2188,790 L449.6094,790 L450,790 L450.3906,790 L450.7813,790 L451.1719,790 L451.5625,790 L451.9531,790 L452.3438,790 L452.7344,790 L453.125,790 L453.5156,790 L453.9063,890 L454.2969,790 L454.6875,790 L455.0782,890 L455.4688,790 L455.8594,990 L456.25,790 L456.6406,890 L457.0313,890 L457.4219,790 L457.8125,790 L458.2031,890 L458.5938,790 L458.9844,790 L459.375,790 L459.7656,790 L460.1563,890 L460.5469,790 L460.9375,790 L461.3281,790 L461.7188,790 L462.1094,790 L462.5,790 L462.8907,790 L463.2813,790 L463.6719,790 L464.0625,790 L464.4531,790 L464.8438,890 L465.2344,890 L465.625,790 L466.0156,790 L466.4063,790 L466.7969,890 L467.1875,790 L467.5781,790 L467.9688,790 L468.3594,890 L468.75,790 L469.1406,790 L469.5313,790 L469.9219,790 L470.3125,790 L470.7032,790 L471.0938,890 L471.4844,790 L471.875,790 L472.2656,790 L472.6563,890 L473.0469,790 L473.4375,790 L473.8281,790 L474.2188,790 L474.6094,890 L475,790 L475.3906,790 L475.7813,790 L476.1719,890 L476.5625,890 L476.9531,790 L477.3438,890 L477.7344,790 L478.125,790 L478.5157,790 L478.9063,790 L479.2969,790 L479.6875,790 L480.0781,890 L480.4688,790 L480.8594,790 L481.25,790 L481.6406,790 L482.0313,790 L482.4219,790 L482.8125,790 L483.2031,790 L483.5938,790 L483.9844,790 L484.375,790 L484.7656,790 L485.1563,790 L485.5469,890 L485.9375,790 L486.3282,790 L486.7188,790 L487.1094,790 L487.5,890 L487.8906,790 L488.2813,790 L488.6719,790 L489.0625,890 L489.4531,790 L489.8438,790 L490.2344,790 L490.625,790 L491.0156,890 L491.4063,790 L491.7969,790 L492.1875,790 L492.5781,790 L492.9688,790 L493.3594,790 L493.75,790 L494.1407,790 L494.5313,790 L494.9219,790 L495.3125,790 L495.7031,790 L496.0938,790 L496.4844,790 L496.875,790 L497.2656,790 L497.6563,790 L498.0469,790 L498.4375,790 L498.8281,790 L499.2188,790 L499.6094,890 L500,790 L500.3906,790 L500.7813,790 L501.1719,790 L501.5625,790 L501.9532,790 L502.3438,790 L502.7344,790 L503.125,790 L503.5156,790 L503.9063,790 L504.2969,790 L504.6875,790 L505.0781,790 L505.4688,790 L505.8594,890 L506.25,790 L506.6406,790 L507.0313,790 L507.4219,890 L507.8125,790 L508.2031,790 L508.5938,790 L508.9844,790 L509.375,790 L509.7657,790 L510.1563,890 L510.5469,790 L510.9375,790 L511.3281,790 L511.7188,790 L512.1094,790 L512.5,790 L512.8906,790 L513.2813,790 L513.6719,890 L514.0625,790 L514.4531,790 L514.8438,790 L515.2344,790 L515.625,790 L516.0156,790 L516.4063,790 L516.7969,790 L517.1875,790 L517.5781,790 L517.9688,790 L518.3594,890 L518.75,790 L519.1406,890 L519.5313,890 L519.9219,790 L520.3125,790 L520.7031,890 L521.0938,790 L521.4844,790 L521.875,790 L522.2656,790 L522.6563,790 L523.0469,790 L523.4375,890 L523.8281,890 L524.2188,790 L524.6094,790 L525,790 L525.3906,790 L525.7813,790 L526.1719,790 L526.5625,790 L526.9531,790 L527.3438,790 L527.7344,790 L528.125,790 L528.5156,890 L528.9063,890 L529.2969,790 L529.6875,890 L530.0781,790 L530.4688,790 L530.8594,790 L531.25,790 L531.6406,790 L532.0313,790 L532.4219,790 L532.8125,790 L533.2031,790 L533.5938,890 L533.9844,790 L534.375,790 L534.7656,790 L535.1563,790 L535.5469,790 L535.9375,790 L536.3281,790 L536.7188,790 L537.1094,790 L537.5,790 L537.8906,790 L538.2813,790 L538.6719,790 L539.0625,790 L539.4531,790 L539.8438,790 L540.2344,890 L540.625,790 L541.0156,790 L541.4063,790 L541.7969,890 L542.1875,790 L542.5781,790 L542.9688,790 L543.3594,790 L543.75,790 L544.1406,790 L544.5313,890 L544.9219,790 " stroke="blue" fill="none" />
<text x="50" y="1040" font-family="Arial" font-size="12" fill="black">Episode Length (1268)</text>
<text x="50" y="1055" font-family="Arial" font-size="10" fill="black">24</text>
<text x="50" y="1270" font-family="Arial" font-size="10" fill="black">2</text>
<path d="M50,1223.636 L50.39063,1214.545 L50.78125,1232.727 L51.17188,1132.727 L51.5625,1178.182 L51.95313,1214.545 L52.34375,1214.545 L52.73438,1196.364 L53.125,1214.545 L53.51563,1160 L53.90625,1178.182 L54.29688,1223.636 L54.6875,1114.545 L55.07813,1169.091 L55.46875,1178.182 L55.85938,1196.364 L56.25,1214.545 L56.64063,1205.455 L57.03125,1214.545 L57.42188,1196.364 L57.8125,1141.818 L58.20313,1205.455 L58.59375,1232.727 L58.98438,1241.818 L59.375,1241.818 L59.76563,1187.273 L60.15625,1169.091 L60.54688,1205.455 L60.9375,1150.909 L61.32813,1250.909 L61.71875,1196.364 L62.10938,1169.091 L62.5,1205.455 L62.89063,1169.091 L63.28125,1150.909 L63.67188,1223.636 L64.0625,1105.455 L64.45313,1169.091 L64.84375,1178.182 L65.23438,1187.273 L65.625,1214.545 L66.01563,1187.273 L66.40625,1196.364 L66.79688,1241.818 L67.1875,1214.545 L67.57813,1169.091 L67.96875,1214.545 L68.35938,1214.545 L68.75,1196.364 L69.14063,1232.727 L69.53125,1187.273 L69.92188,1260 L70.3125,1178.182 L70.70313,1178.182 L71.09375,1214.545 L71.48438,1187.273 L71.875,1150.909 L72.26563,1214.545 L72.65625,1205.455 L73.04688,1160 L73.4375,1250.909 L73.82813,1105.455 L74.21875,1205.455 L74.60938,1187.273 L75,1169.091 L75.39063,1178.182 L75.78125,1187.273 L76.17188,1150.909 L76.5625,1178.182 L76.95313,1214.545 L77.34375,1196.364 L77.73438,1214.545 L78.125,1132.727 L78.51563,1214.545 L78.90625,1087.273 L79.29688,1205.455 L79.6875,1214.545 L80.07813,1223.636 L80.46875,1223.636 L80.85938,1250.909 L81.25,1250.909 L81.64063,1223.636 L82.03125,1178.182 L82.42188,1214.545 L82.8125,1178.182 L83.20313,1169.091 L83.59375,1250.909 L83.98438,1241.818 L84.375,1232.727 L84.76563,1187.273 L85.15625,1187.273 L85.54688,1196.364 L85.9375,1250.909 L86.32813,1160 L86.71875,1205.455 L87.10938,1187.273 L87.5,1132.727 L87.89063,1178.182 L88.28125,1169.091 L88.67188,1232.727 L89.0625,1160 L89.45313,1214.545 L89.84375,1187.273 L90.23438,1160 L90.625,1214.545 L91.01563,1232.727 L91.40625,1196.364 L91.79688,1087.273 L92.1875,1169.091 L92.57813,1178.182 L92.96875,1241.818 L93.35938,1223.636 L93.75,1250.909 L94.14063,1169.091 L94.53125,1250.909 L94.92188,1196.364 L95.3125,1205.455 L95.70313,1205.455 L96.09375,1223.636 L96.48438,1250.909 L96.875,1205.455 L97.26563,1205.455 L97.65625,1223.636 L98.04688,1214.545 L98.4375,1214.545 L98.82813,1141.818 L99.21875,1223.636 L99.60938,1178.182 L100,1250.909 L100.3906,1241.818 L100.7813,1187.273 L101.1719,1214.545 L101.5625,1178.182 L101.9531,1141.818 L102.3438,1205.455 L102.7344,1178.182 L103.125,1214.545 L103.5156,1232.727 L103.9063,1187.273 L104.2969,1250.909 L104.6875,1196.364 L105.0781,1205.455 L105.4688,1141.818 L105.8594,1169.091 L106.25,1214.545 L106.6406,1260 L107.0313,1214.545 L107.4219,1205.455 L107.8125,1250.909 L108.2031,1214.545 L108.5938,1232.727 L108.9844,1150.909 L109.375,1223.636 L109.7656,1232.727 L110.1563,1178.182 L110.5469,1214.545 L110.9375,1196.364 L111.3281,1250.909 L111.7188,1205.455 L112.1094,1187.273 L112.5,1187.273 L112.8906,1160 L113.2813,1205.455 L113.6719,1205.455 L114.0625,1205.455 L114.4531,1196.364 L114.8438,1223.636 L115.2344,1250.909 L115.625,1196.364 L116.0156,1223.636 L116.4063,1150.909 L116.7969,1232.727 L117.1875,1214.545 L117.5781,1178.182 L117.9688,1205.455 L118.3594,1223.636 L118.75,1187.273 L119.1406,1178.182 L119.5313,1232.727 L119.9219,1223.636 L120.3125,1178.182 L120.7031,1232.727 L121.0938,1250.909 L121.4844,1196.364 L121.875,1196.364 L122.2656,1187.273 L122.6563,1232.727 L123.0469,1241.818 L123.4375,1150.909 L123.8281,1196.364 L124.2188,1250.909 L124.6094,1196.364 L125,1214.545 L125.3906,1214.545 L125.7813,1196.364 L126.1719,1241.818 L126.5625,1196.364 L126.9531,1214.545 L127.3438,1150.909 L127.7344,1178.182 L128.125,1223.636 L128.5156,1232.727 L128.9063,1232.727 L129.2969,1223.636 L129.6875,1223.636 L130.0781,1214.545 L130.4688,1187.273 L130.8594,1223.636 L131.25,1205.455 L131.6406,1205.455 L132.0313,1178.182 L132.4219,1196.364 L132.8125,1223.636 L133.2031,1223.636 L133.5938,1214.545 L133.9844,1241.818 L134.375,1241.818 L134.7656,1214.545 L135.1563,1196.364 L135.5469,1250.909 L135.9375,1196.364 L136.3281,1132.727 L136.7188,1223.636 L137.1094,1214.545 L137.5,1214.545 L137.8906,1250.909 L138.2813,1196.364 L138.6719,1178.182 L139.0625,1132.727 L139.4531,1187.273 L139.8438,1250.909 L140.2344,1223.636 L140.625,1214.545 L141.0156,1214.545 L141.4063,1214.545 L141.7969,1241.818 L142.1875,1232.727 L142.5781,1205.455 L142.9688,1214.545 L143.3594,1241.818 L143.75,1205.455 L144.1406,1196.364 L144.5313,1205.455 L144.9219,1114.545 L145.3125,1196.364 L145.7031,1214.545 L146.0938,1205.455 L146.4844,1178.182 L146.875,1223.636 L147.2656,1187.273 L147.6563,1205.455 L148.0469,1141.818 L148.4375,1214.545 L148.8281,1187.273 L149.2188,1196.364 L149.6094,1196.364 L150,1205.455 L150.3906,1160 L150.7813,1250.909 L151.1719,1205.455 L151.5625,1169.091 L151.9531,1169.091 L152.3438,1196.364 L152.7344,1150.909 L153.125,1214.545 L153.5156,1187.273 L153.9063,1260 L154.2969,1114.545 L154.6875,1250.909 L155.0781,1196.364 L155.4688,1223.636 L155.8594,1223.636 L156.25,1250.909 L156.6406,1196.364 L157.0313,1123.636 L157.4219,1223.636 L157.8125,1223.636 L158.2031,1232.727 L158.5938,1223.636 L158.9844,1223.636 L159.375,1223.636 L159.7656,1087.273 L160.1563,1214.545 L160.5469,1250.909 L160.9375,1205.455 L161.3281,1187.273 L161.7188,1232.727 L162.1094,1178.182 L162.5,1223.636 L162.8906,1250.909 L163.2813,1223.636 L163.6719,1187.273 L164.0625,1260 L164.4531,1232.727 L164.8438,1160 L165.2344,1205.455 L165.625,1232.727 L166.0156,1205.455 L166.4063,1241.818 L166.7969,1223.636 L167.1875,1196.364 L167.5781,1223.636 L167.9688,1232.727 L168.3594,1187.273 L168.75,1205.455 L169.1406,1187.273 L169.5313,1114.545 L169.9219,1169.091 L170.3125,1223.636 L170.7031,1223.636 L171.0938,1123.636 L171.4844,1205.455 L171.875,1232.727 L172.2656,1232.727 L172.6563,1132.727 L173.0469,1178.182 L173.4375,1196.364 L173.8281,1205.455 L174.2188,1196.364 L174.6094,1187.273 L175,1223.636 L175.3906,1205.455 L175.7813,1187.273 L176.1719,1223.636 L176.5625,1250.909 L176.9531,1178.182 L177.3438,1169.091 L177.7344,1123.636 L178.125,1196.364 L178.5156,1223.636 L178.9063,1223.636 L179.2969,1205.455 L179.6875,1250.909 L180.0781,1187.273 L180.4688,1169.091 L180.8594,1214.545 L181.25,1205.455 L181.6406,1205.455 L182.0313,1187.273 L182.4219,1187.273 L182.8125,1178.182 L183.2031,1223.636 L183.5938,1232.727 L183.9844,1241.818 L184.375,1160 L184.7656,1250.909 L185.1563,1150.909 L185.5469,1169.091 L185.9375,1105.455 L186.3281,1232.727 L186.7188,1160 L187.1094,1187.273 L187.5,1241.818 L187.8906,1187.273 L188.2813,1205.455 L188.6719,1214.545 L189.0625,1214.545 L189.4531,1178.182 L189.8438,1160 L190.2344,1169.091 L190.625,1214.545 L191.0156,1214.545 L191.4063,1232.727 L191.7969,1223.636 L192.1875,1223.636 L192.5781,1187.273 L192.9688,1214.545 L193.3594,1205.455 L193.75,1160 L194.1406,1205.455 L194.5313,1205.455 L194.9219,1096.364 L195.3125,1187.273 L195.7031,1132.727 L196.0938,1196.364 L196.4844,1214.545 L196.875,1196.364 L197.2656,1223.636 L197.6563,1223.636 L198.0469,1187.273 L198.4375,1250.909 L198.8281,1169.091 L199.2188,1232.727 L199.6094,1223.636 L200,1187.273 L200.3906,1205.455 L200.7813,1205.455 L201.1719,1232.727 L201.5625,1232.727 L201.9531,1187.273 L202.3438,1223.636 L202.7344,1223.636 L203.125,1250.909 L203.5156,1141.818 L203.9063,1160 L204.2969,1205.455 L204.6875,1250.909 L205.0781,1178.182 L205.4688,1250.909 L205.8594,1169.091 L206.25,1196.364 L206.6406,1187.273 L207.0313,1187.273 L207.4219,1223.636 L207.8125,1205.455 L208.2031,1160 L208.5938,1196.364 L208.9844,1223.636 L209.375,1223.636 L209.7656,1187.273 L210.1563,1205.455 L210.5469,1205.455 L210.9375,1232.727 L211.3281,1205.455 L211.7188,1178.182 L212.1094,1187.273 L212.5,1150.909 L212.8906,1250.909 L213.2813,1132.727 L213.6719,1205.455 L214.0625,1178.182 L214.4531,1241.818 L214.8438,1250.909 L215.2344,1250.909 L215.625,1196.364 L216.0156,1241.818 L216.4063,1160 L216.7969,1205.455 L217.1875,1214.545 L217.5781,1114.545 L217.9688,1223.636 L218.3594,1214.545 L218.75,1250.909 L219.1406,1205.455 L219.5313,1196.364 L219.9219,1196.364 L220.3125,1232.727 L220.7031,1232.727 L221.0938,1223.636 L221.4844,1105.455 L221.875,1196.364 L222.2656,1232.727 L222.6563,1223.636 L223.0469,1187.273 L223.4375,1223.636 L223.8281,1232.727 L224.2188,1223.636 L224.6094,1114.545 L225,1187.273 L225.3906,1223.636 L225.7813,1196.364 L226.1719,1169.091 L226.5625,1196.364 L226.9531,1223.636 L227.3438,1232.727 L227.7344,1214.545 L228.125,1223.636 L228.5156,1223.636 L228.9063,1150.909 L229.2969,1187.273 L229.6875,1214.545 L230.0781,1232.727 L230.4688,1241.818 L230.8594,1114.545 L231.25,1187.273 L231.6406,1250.909 L232.0313,1232.727 L232.4219,1150.909 L232.8125,1114.545 L233.2031,1205.455 L233.5938,1232.727 L233.9844,1232.727 L234.375,1223.636 L234.7656,1214.545 L235.1563,1196.364 L235.5469,1205.455 L235.9375,1232.727 L236.3281,1223.636 L236.7188,1223.636 L237.1094,1187.273 L237.5,1123.636 L237.8906,1196.364 L238.2813,1160 L238.6719,1205.455 L239.0625,1232.727 L239.4531,1114.545 L239.8438,1160 L240.2344,1187.273 L240.625,1205.455 L241.0156,1250.909 L241.4063,1232.727 L241.7969,1214.545 L242.1875,1223.636 L242.5781,1232.727 L242.9688,1169.091 L243.3594,1232.727 L243.75,1196.364 L244.1406,1232.727 L244.5313,1223.636 L244.9219,1196.364 L245.3125,1196.364 L245.7031,1114.545 L246.0938,1232.727 L246.4844,1241.818 L246.875,1205.455 L247.2656,1187.273 L247.6563,1205.455 L248.0469,1196.364 L248.4375,1223.636 L248.8281,1250.909 L249.2188,1196.364 L249.6094,1205.455 L250,1214.545 L250.3906,1205.455 L250.7813,1123.636 L251.1719,1169.091 L251.5625,1205.455 L251.9531,1250.909 L252.3438,1241.818 L252.7344,1214.545 L253.125,1114.545 L253.5156,1205.455 L253.9063,1205.455 L254.2969,1114.545 L254.6875,1214.545 L255.0781,1214.545 L255.4688,1241.818 L255.8594,1250.909 L256.25,1250.909 L256.6406,1223.636 L257.0313,1205.455 L257.4219,1205.455 L257.8125,1178.182 L258.2031,1205.455 L258.5938,1196.364 L258.9844,1205.455 L259.375,1196.364 L259.7656,1160 L260.1563,1187.273 L260.5469,1214.545 L260.9375,1223.636 L261.3281,1205.455 L261.7188,1223.636 L262.1094,1232.727 L262.5,1205.455 L262.8906,1187.273 L263.2813,1214.545 L263.6719,1223.636 L264.0625,1232.727 L264.4531,1196.364 L264.8438,1214.545 L265.2344,1223.636 L265.625,1232.727 L266.0156,1150.909 L266.4063,1196.364 L266.7969,1160 L267.1875,1214.545 L267.5781,1205.455 L267.9688,1150.909 L268.3594,1187.273 L268.75,1187.273 L269.1406,1150.909 L269.5313,1214.545 L269.9219,1205.455 L270.3125,1250.909 L270.7031,1196.364 L271.0938,1178.182 L271.4844,1187.273 L271.875,1214.545 L272.2656,1232.727 L272.6563,1141.818 L273.0469,1223.636 L273.4375,1150.909 L273.8281,1196.364 L274.2188,1196.364 L274.6094,1205.455 L275,1205.455 L275.3906,1241.818 L275.7813,1250.909 L276.1719,1223.636 L276.5625,1196.364 L276.9531,1223.636 L277.3438,1150.909 L277.7344,1241.818 L278.125,1205.455 L278.5156,1187.273 L278.9063,1214.545 L279.2969,1178.182 L279.6875,1141.818 L280.0781,1223.636 L280.4688,1241.818 L280.8594,1214.545 L281.25,1223.636 L281.6406,1205.455 L282.0313,1241.818 L282.4219,1241.818 L282.8125,1241.818 L283.2031,1205.455 L283.5938,1214.545 L283.9844,1250.909 L284.375,1178.182 L284.7656,1232.727 L285.1563,1232.727 L285.5469,1187.273 L285.9375,1250.909 L286.3281,1205.455 L286.7188,1196.364 L287.1094,1232.727 L287.5,1223.636 L287.8906,1232.727 L288.2813,1260 L288.6719,1205.455 L289.0625,1205.455 L289.4531,1241.818 L289.8438,1187.273 L290.2344,1187.273 L290.625,1250.909 L291.0156,1214.545 L291.4063,1187.273 L291.7969,1214.545 L292.1875,1196.364 L292.5781,1223.636 L292.9688,1214.545 L293.3594,1196.364 L293.75,1232.727 L294.1406,1187.273 L294.5313,1232.727 L294.9219,1196.364 L295.3125,1196.364 L295.7031,1214.545 L296.0938,1205.455 L296.4844,1232.727 L296.875,1141.818 L297.2656,1169.091 L297.6563,1169.091 L298.0469,1169.091 L298.4375,1205.455 L298.8281,1169.091 L299.2188,1196.364 L299.6094,1214.545 L300,1205.455 L300.3906,1196.364 L300.7813,1214.545 L301.1719,1196.364 L301.5625,1196.364 L301.9531,1205.455 L302.3438,1178.182 L302.7344,1196.364 L303.125,1214.545 L303.5156,1250.909 L303.9063,1205.455 L304.2969,1205.455 L304.6875,1232.727 L305.0781,1132.727 L305.4688,1250.909 L305.8594,1223.636 L306.25,1214.545 L306.6407,1205.455 L307.0313,1214.545 L307.4219,1196.364 L307.8125,1250.909 L308.2031,1205.455 L308.5938,1214.545 L308.9844,1241.818 L309.375,1223.636 L309.7656,1241.818 L310.1563,1260 L310.5469,1241.818 L310.9375,1223.636 L311.3281,1187.273 L311.7188,1141.818 L312.1094,1160 L312.5,1232.727 L312.8906,1241.818 L313.2813,1205.455 L313.6719,1205.455 L314.0625,1123.636 L314.4532,1205.455 L314.8438,1223.636 L315.2344,1196.364 L315.625,1241.818 L316.0156,1205.455 L316.4063,1232.727 L316.7969,1150.909 L317.1875,1150.909 L317.5781,1160 L317.9688,1223.636 L318.3594,1214.545 L318.75,1214.545 L319.1406,1250.909 L319.5313,1187.273 L319.9219,1223.636 L320.3125,1214.545 L320.7031,1214.545 L321.0938,1232.727 L321.4844,1214.545 L321.875,1223.636 L322.2657,1250.909 L322.6563,1250.909 L323.0469,1196.364 L323.4375,1187.273 L323.8281,1196.364 L324.2188,1250.909 L324.6094,1114.545 L325,1187.273 L325.3906,1205.455 L325.7813,1196.364 L326.1719,1250.909 L326.5625,1160 L326.9531,1178.182 L327.3438,1205.455 L327.7344,1250.909 L328.125,1241.818 L328.5156,1250.909 L328.9063,1250.909 L329.2969,1223.636 L329.6875,1187.273 L330.0782,1223.636 L330.4688,1232.727 L330.8594,1196.364 L331.25,1205.455 L331.6406,1223.636 L332.0313,1232.727 L332.4219,1123.636 L332.8125,1214.545 L333.2031,1187.273 L333.5938,1178.182 L333.9844,1214.545 L334.375,1223.636 L334.7656,1214.545 L335.1563,1187.273 L335.5469,1196.364 L335.9375,1241.818 L336.3281,1169.091 L336.7188,1232.727 L337.1094,1205.455 L337.5,1232.727 L337.8907,1178.182 L338.2813,1196.364 L338.6719,1178.182 L339.0625,1187.273 L339.4531,1150.909 L339.8438,1178.182 L340.2344,1205.455 L340.625,1214.545 L341.0156,1214.545 L341.4063,1196.364 L341.7969,1196.364 L342.1875,1214.545 L342.5781,1187.273 L342.9688,1187.273 L343.3594,1187.273 L343.75,1223.636 L344.1406,1223.636 L344.5313,1196.364 L344.9219,1241.818 L345.3125,1214.545 L345.7032,1196.364 L346.0938,1250.909 L346.4844,1123.636 L346.875,1187.273 L347.2656,1178.182 L347.6563,1205.455 L348.0469,1169.091 L348.4375,1223.636 L348.8281,1160 L349.2188,1250.909 L349.6094,1141.818 L350,1250.909 L350.3906,1132.727 L350.7813,1214.545 L351.1719,1214.545 L351.5625,1205.455 L351.9531,1214.545 L352.3438,1205.455 L352.7344,1150.909 L353.125,1250.909 L353.5157,1241.818 L353.9063,1187.273 L354.2969,1169.091 L354.6875,1241.818 L355.0781,1232.727 L355.4688,1160 L355.8594,1223.636 L356.25,1160 L356.6406,1250.909 L357.0313,1196.364 L357.4219,1223.636 L357.8125,1214.545 L358.2031,1196.364 L358.5938,1196.364 L358.9844,1169.091 L359.375,1223.636 L359.7656,1232.727 L360.1563,1241.818 L360.5469,1241.818 L360.9375,1196.364 L361.3282,1205.455 L361.7188,1232.727 L362.1094,1223.636 L362.5,1250.909 L362.8906,1232.727 L363.2813,1250.909 L363.6719,1205.455 L364.0625,1223.636 L364.4531,1205.455 L364.8438,1214.545 L365.2344,1250.909 L365.625,1223.636 L366.0156,1178.182 L366.4063,1223.636 L366.7969,1241.818 L367.1875,1232.727 L367.5781,1223.636 L367.9688,1160 L368.3594,1232.727 L368.75,1232.727 L369.1407,1196.364 L369.5313,1178.182 L369.9219,1205.455 L370.3125,1205.455 L370.7031,1205.455 L371.0938,1250.909 L371.4844,1205.455 L371.875,1223.636 L372.2656,1223.636 L372.6563,1150.909 L373.0469,1250.909 L373.4375,1223.636 L373.8281,1187.273 L374.2188,1060 L374.6094,1223.636 L375,1169.091 L375.3906,1214.545 L375.7813,1187.273 L376.1719,1232.727 L376.5625,1214.545 L376.9532,1214.545 L377.3438,1250.909 L377.7344,1232.727 L378.125,1178.182 L378.5156,1196.364 L378.9063,1250.909 L379.2969,1169.091 L379.6875,1205.455 L380.0781,1232.727 L380.4688,1205.455 L380.8594,1196.364 L381.25,1214.545 L381.6406,1223.636 L382.0313,1141.818 L382.4219,1150.909 L382.8125,1214.545 L383.2031,1169.091 L383.5938,1250.909 L383.9844,1150.909 L384.375,1150.909 L384.7657,1250.909 L385.1563,1196.364 L385.5469,1178.182 L385.9375,1250.909 L386.3281,1214.545 L386.7188,1196.364 L387.1094,1160 L387.5,1205.455 L387.8906,1196.364 L388.2813,1232.727 L388.6719,1214.545 L389.0625,1187.273 L389.4531,1196.364 L389.8438,1214.545 L390.2344,1223.636 L390.625,1214.545 L391.0156,1205.455 L391.4063,1205.455 L391.7969,1105.455 L392.1875,1087.273 L392.5782,1141.818 L392.9688,1223.636 L393.3594,1196.364 L393.75,1160 L394.1406,1223.636 L394.5313,1187.273 L394.9219,1205.455 L395.3125,1078.182 L395.7031,1241.818 L396.0938,1187.273 L396.4844,1132.727 L396.875,1087.273 L397.2656,1196.364 L397.6563,1232.727 L398.0469,1214.545 L398.4375,1178.182 L398.8281,1214.545 L399.2188,1178.182 L399.6094,1223.636 L400,1141.818 L400.3907,1150.909 L400.7813,1223.636 L401.1719,1114.545 L401.5625,1214.545 L401.9531,1196.364 L402.3438,1223.636 L402.7344,1178.182 L403.125,1160 L403.5156,1205.455 L403.9063,1223.636 L404.2969,1187.273 L404.6875,1214.545 L405.0781,1214.545 L405.4688,1196.364 L405.8594,1250.909 L406.25,1178.182 L406.6406,1214.545 L407.0313,1141.818 L407.4219,1178.182 L407.8125,1214.545 L408.2032,1187.273 L408.5938,1205.455 L408.9844,1205.455 L409.375,1260 L409.7656,1178.182 L410.1563,1187.273 L410.5469,1205.455 L410.9375,1223.636 L411.3281,1178.182 L411.7188,1169.091 L412.1094,1169.091 L412.5,1205.455 L412.8906,1205.455 L413.2813,1241.818 L413.6719,1187.273 L414.0625,1178.182 L414.4531,1196.364 L414.8438,1214.545 L415.2344,1214.545 L415.625,1250.909 L416.0157,1205.455 L416.4063,1260 L416.7969,1160 L417.1875,1241.818 L417.5781,1260 L417.9688,1205.455 L418.3594,1187.273 L418.75,1196.364 L419.1406,1250.909 L419.5313,1232.727 L419.9219,1123.636 L420.3125,1250.909 L420.7031,1150.909 L421.0938,1214.545 L421.4844,1250.909 L421.875,1241.818 L422.2656,1250.909 L422.6563,1187.273 L423.0469,1223.636 L423.4375,1214.545 L423.8282,1205.455 L424.2188,1223.636 L424.6094,1196.364 L425,1223.636 L425.3906,1196.364 L425.7813,1205.455 L426.1719,1169.091 L426.5625,1205.455 L426.9531,1260 L427.3438,1105.455 L427.7344,1214.545 L428.125,1223.636 L428.5156,1241.818 L428.9063,1232.727 L429.2969,1150.909 L429.6875,1232.727 L430.0781,1160 L430.4688,1241.818 L430.8594,1178.182 L431.25,1105.455 L431.6407,1214.545 L432.0313,1187.273 L432.4219,1196.364 L432.8125,1187.273 L433.2031,1232.727 L433.5938,1214.545 L433.9844,1196.364 L434.375,1223.636 L434.7656,1187.273 L435.1563,1250.909 L435.5469,1223.636 L435.9375,1205.455 L436.3281,1214.545 L436.7188,1205.455 L437.1094,1178.182 L437.5,1232.727 L437.8906,1196.364 L438.2813,1241.818 L438.6719,1214.545 L439.0625,1250.909 L439.4532,1223.636 L439.8438,1241.818 L440.2344,1196.364 L440.625,1205.455 L441.0156,1132.727 L441.4063,1187.273 L441.7969,1232.727 L442.1875,1214.545 L442.5781,1250.909 L442.9688,1196.364 L443.3594,1214.545 L443.75,1123.636 L444.1406,1178.182 L444.5313,1141.818 L444.9219,1250.909 L445.3125,1196.364 L445.7031,1214.545 L446.0938,1223.636 L446.4844,1187.273 L446.875,1214.545 L447.2657,1187.273 L447.6563,1250.909 L448.0469,1223.636 L448.4375,1205.455 L448.8281,1187.273 L449.2188,1250.909 L449.6094,1223.636 L450,1205.455 L450.3906,1187.273 L450.7813,1223.636 L451.1719,1214.545 L451.5625,1250.909 L451.9531,1241.818 L452.3438,1178.182 L452.7344,1196.364 L453.125,1214.545 L453.5156,1223.636 L453.9063,1178.182 L454.2969,1196.364 L454.6875,1205.455 L455.0782,1223.636 L455.4688,1196.364 L455.8594,1150.909 L456.25,1205.455 L456.6406,1205.455 L457.0313,1169.091 L457.4219,1150.909 L457.8125,1178.182 L458.2031,1187.273 L458.5938,1241.818 L458.9844,1260 L459.375,1223.636 L459.7656,1205.455 L460.1563,1196.364 L460.5469,1214.545 L460.9375,1123.636 L461.3281,1250.909 L461.7188,1250.909 L462.1094,1187.273 L462.5,1132.727 L462.8907,1169.091 L463.2813,1250.909 L463.6719,1196.364 L464.0625,1196.364 L464.4531,1250.909 L464.8438,1141.818 L465.2344,1187.273 L465.625,1232.727 L466.0156,1214.545 L466.4063,1169.091 L466.7969,1178.182 L467.1875,1214.545 L467.5781,1178.182 L467.9688,1214.545 L468.3594,1223.636 L468.75,1250.909 L469.1406,1132.727 L469.5313,1196.364 L469.9219,1196.364 L470.3125,1214.545 L470.7032,1241.818 L471.0938,1214.545 L471.4844,1232.727 L471.875,1205.455 L472.2656,1223.636 L472.6563,1214.545 L473.0469,1214.545 L473.4375,1178.182 L473.8281,1205.455 L474.2188,1205.455 L474.6094,1241.818 L475,1232.727 L475.3906,1232.727 L475.7813,1223.636 L476.1719,1196.364 L476.5625,1205.455 L476.9531,1105.455 L477.3438,1187.273 L477.7344,1205.455 L478.125,1178.182 L478.5157,1178.182 L478.9063,1196.364 L479.2969,1187.273 L479.6875,1223.636 L480.0781,1205.455 L480.4688,1178.182 L480.8594,1178.182 L481.25,1214.545 L481.6406,1205.455 L482.0313,1187.273 L482.4219,1250.909 L482.8125,1205.455 L483.2031,1132.727 L483.5938,1232.727 L483.9844,1205.455 L484.375,1250.909 L484.7656,1250.909 L485.1563,1223.636 L485.5469,1169.091 L485.9375,1205.455 L486.3282,1223.636 L486.7188,1150.909 L487.1094,1123.636 L487.5,1214.545 L487.8906,1196.364 L488.2813,1132.727 L488.6719,1196.364 L489.0625,1205.455 L489.4531,1187.273 L489.8438,1223.636 L490.2344,1196.364 L490.625,1232.727 L491.0156,1223.636 L491.4063,1205.455 L491.7969,1214.545 L492.1875,1232.727 L492.5781,1223.636 L492.9688,1241.818 L493.3594,1214.545 L493.75,1250.909 L494.1407,1214.545 L494.5313,1214.545 L494.9219,1241.818 L495.3125,1169.091 L495.7031,1196.364 L496.0938,1205.455 L496.4844,1241.818 L496.875,1205.455 L497.2656,1223.636 L497.6563,1214.545 L498.0469,1187.273 L498.4375,1223.636 L498.8281,1214.545 L499.2188,1205.455 L499.6094,1214.545 L500,1223.636 L500.3906,1205.455 L500.7813,1250.909 L501.1719,1205.455 L501.5625,1169.091 L501.9532,1196.364 L502.3438,1241.818 L502.7344,1196.364 L503.125,1223.636 L503.5156,1187.273 L503.9063,1141.818 L504.2969,1232.727 L504.6875,1214.545 L505.0781,1178.182 L505.4688,1196.364 L505.8594,1223.636 L506.25,1223.636 L506.6406,1232.727 L507.0313,1178.182 L507.4219,1150.909 L507.8125,1178.182 L508.2031,1169.091 L508.5938,1187.273 L508.9844,1232.727 L509.375,1187.273 L509.7657,1223.636 L510.1563,1223.636 L510.5469,1205.455 L510.9375,1132.727 L511.3281,1178.182 L511.7188,1205.455 L512.1094,1241.818 L512.5,1178.182 L512.8906,1196.364 L513.2813,1160 L513.6719,1141.818 L514.0625,1232.727 L514.4531,1132.727 L514.8438,1169.091 L515.2344,1178.182 L515.625,1214.545 L516.0156,1096.364 L516.4063,1178.182 L516.7969,1078.182 L517.1875,1205.455 L517.5781,1241.818 L517.9688,1214.545 L518.3594,1123.636 L518.75,1169.091 L519.1406,1196.364 L519.5313,1169.091 L519.9219,1241.818 L520.3125,1178.182 L520.7031,1214.545 L521.0938,1250.909 L521.4844,1232.727 L521.875,1223.636 L522.2656,1232.727 L522.6563,1160 L523.0469,1196.364 L523.4375,1250.909 L523.8281,1205.455 L524.2188,1232.727 L524.6094,1223.636 L525,1214.545 L525.3906,1141.818 L525.7813,1214.545 L526.1719,1169.091 L526.5625,1178.182 L526.9531,1178.182 L527.3438,1205.455 L527.7344,1214.545 L528.125,1141.818 L528.5156,1187.273 L528.9063,1223.636 L529.2969,1214.545 L529.6875,1250.909 L530.0781,1250.909 L530.4688,1241.818 L530.8594,1205.455 L531.25,1196.364 L531.6406,1196.364 L532.0313,1196.364 L532.4219,1214.545 L532.8125,1232.727 L533.2031,1223.636 L533.5938,1214.545 L533.9844,1223.636 L534.375,1196.364 L534.7656,1196.364 L535.1563,1196.364 L535.5469,1214.545 L535.9375,1241.818 L536.3281,1223.636 L536.7188,1214.545 L537.1094,1196.364 L537.5,1250.909 L537.8906,1205.455 L538.2813,1132.727 L538.6719,1232.727 L539.0625,1223.636 L539.4531,1196.364 L539.8438,1223.636 L540.2344,1205.455 L540.625,1196.364 L541.0156,1214.545 L541.4063,1223.636 L541.7969,1196.364 L542.1875,1260 L542.5781,1205.455 L542.9688,1196.364 L543.3594,1214.545 L543.75,1205.455 L544.1406,1160 L544.5313,1178.182 L544.9219,1250.909 " stroke="blue" fill="none" />
<text x="50" y="1310" font-family="Arial" font-size="12" fill="black">Policy Loss</text>
<text x="50" y="1325" font-family="Arial" font-size="10" fill="black">0.02199023</text>
<text x="50" y="1540" font-family="Arial" font-size="10" fill="black">0.02199023</text>
<path d="M50,1530 " stroke="blue" fill="none" />
<text x="50" y="1580" font-family="Arial" font-size="12" fill="black">Value Loss</text>
<text x="50" y="1595" font-family="Arial" font-size="10" fill="black">0.004715178</text>
<text x="50" y="1810" font-family="Arial" font-size="10" fill="black">0.004715178</text>
<path d="M50,1800 " stroke="blue" fill="none" />
<text x="50" y="1850" font-family="Arial" font-size="12" fill="black">Learning Rate</text>
<text x="50" y="1865" font-family="Arial" font-size="10" fill="black">0.0003</text>
<text x="50" y="2080" font-family="Arial" font-size="10" fill="black">0.0003</text>
<path d="M50,2070 " stroke="blue" fill="none" />
<text x="50" y="2120" font-family="Arial" font-size="12" fill="black">Entropy</text>
<text x="50" y="2135" font-family="Arial" font-size="10" fill="black">0.07615493</text>
<text x="50" y="2350" font-family="Arial" font-size="10" fill="black">0.07615493</text>
<path d="M50,2340 " stroke="blue" fill="none" />
<text x="750" y="770" font-family="Arial" font-size="12" fill="black">Simplified</text>
<text x="750" y="785" font-family="Arial" font-size="10" fill="black">-1</text>
<text x="750" y="1000" font-family="Arial" font-size="10" fill="black">-1.315789</text>
<path d="M757.0313,790 L764.4531,790 L771.875,856.6666 L779.2969,823.3334 L786.7188,890 L794.1406,956.6666 L801.5625,890 L808.9844,856.6666 L816.4063,790 L823.8281,823.3334 L831.25,956.6666 L838.6719,890 L846.0938,823.3334 L853.5156,990 L860.9375,856.6666 L868.3594,923.3334 L875.7813,956.6666 L883.2031,856.6666 L890.625,856.6666 L898.0469,823.3334 L905.4688,856.6666 L912.8906,856.6666 L920.3125,856.6666 L927.7344,890 L935.1563,890 L942.5781,823.3334 L950,823.3334 L957.4219,790 L964.8438,790 L972.2656,823.3334 L979.6875,890 L987.1094,823.3334 L994.5313,823.3334 L1001.953,856.6666 L1009.375,823.3334 L1016.797,856.6666 L1024.219,923.3334 L1031.641,856.6666 L1039.063,823.3334 L1046.484,956.6666 L1053.906,890 L1061.328,990 L1068.75,856.6666 L1076.172,790 L1083.594,856.6666 L1091.016,856.6666 L1098.438,890 L1105.859,823.3334 L1113.281,890 L1120.703,890 L1128.125,890 L1135.547,823.3334 L1142.969,856.6666 L1150.391,856.6666 L1157.813,990 L1165.234,923.3334 L1172.656,923.3334 L1180.078,956.6666 L1187.5,856.6666 L1194.922,856.6666 L1202.344,823.3334 L1209.766,856.6666 L1217.188,856.6666 L1224.609,990 L1232.031,890 L1239.453,823.3334 L1244.922,925.7143 " stroke="blue" fill="none" />
<text x="750" y="1040" font-family="Arial" font-size="12" fill="black">Simplified</text>
<text x="750" y="1055" font-family="Arial" font-size="10" fill="black">11.57895</text>
<text x="750" y="1270" font-family="Arial" font-size="10" fill="black">6.052631</text>
<path d="M757.0313,1141.905 L764.4531,1128.571 L771.875,1168.571 L779.2969,1096.19 L786.7188,1218.095 L794.1406,1122.857 L801.5625,1212.381 L808.9844,1181.905 L816.4063,1187.619 L823.8281,1197.143 L831.25,1214.286 L838.6719,1208.571 L846.0938,1191.429 L853.5156,1134.286 L860.9375,1199.048 L868.3594,1227.619 L875.7813,1132.381 L883.2031,1168.571 L890.625,1141.905 L898.0469,1153.333 L905.4688,1212.381 L912.8906,1162.857 L920.3125,1191.429 L927.7344,1176.19 L935.1563,1174.286 L942.5781,1170.476 L950,1193.333 L957.4219,1180 L964.8438,1189.524 L972.2656,1155.238 L979.6875,1162.857 L987.1094,1256.19 L994.5313,1229.524 L1001.953,1145.714 L1009.375,1221.905 L1016.797,1193.333 L1024.219,1221.905 L1031.641,1206.667 L1039.063,1166.667 L1046.484,1168.571 L1053.906,1164.762 L1061.328,1204.762 L1068.75,1260 L1076.172,1166.667 L1083.594,1191.429 L1091.016,1176.19 L1098.438,1060 L1105.859,1149.524 L1113.281,1157.143 L1120.703,1202.857 L1128.125,1212.381 L1135.547,1180 L1142.969,1214.286 L1150.391,1181.905 L1157.813,1168.571 L1165.234,1181.905 L1172.656,1199.048 L1180.078,1168.571 L1187.5,1168.571 L1194.922,1220 L1202.344,1208.571 L1209.766,1159.048 L1217.188,1073.333 L1224.609,1200.952 L1232.031,1172.381 L1239.453,1216.19 L1244.922,1205.034 " stroke="blue" fill="none" />
</svg>
