<svg width="2000" height="2500" xmlns="http://www.w3.org/2000/svg">
<text x="10" y="20" font-family="Arial" font-size="26" fill="black"> [PuppyScript] Training Session</text>
<text x="10" y="50" font-family="Arial" font-size="16" fill="black">[Statistics]</text>
<text x="50" y="70" font-family="Arial" font-size="12" fill="black">Started at: 2:23:38 PM, Monday, January 1, 2024</text>
<text x="50" y="90" font-family="Arial" font-size="12" fill="black">Finished at: 2:24:33 PM, Monday, January 1, 2024</text>
<text x="50" y="110" font-family="Arial" font-size="12" fill="black">Training Session Time: 0 hrs : 0 min : 12 sec</text>
<text x="50" y="130" font-family="Arial" font-size="12" fill="black">Inference Time: 0 hrs : 3 min : 48 sec        [Device: CPU]</text>
<text x="50" y="150" font-family="Arial" font-size="12" fill="black">Policy Update Time: 0 hrs : 0 min : 5 sec        [Per iteration: 0 hrs : 0 min : 4.209 sec]        [Device: GPU]</text>
<text x="50" y="170" font-family="Arial" font-size="12" fill="black">Inference Time / Training Session Time: 17.048</text>
<text x="50" y="190" font-family="Arial" font-size="12" fill="black">Policy Update Time / Training Session Time: 0.359</text>
<text x="50" y="210" font-family="Arial" font-size="12" fill="black">Episode Count: 266</text>
<text x="50" y="230" font-family="Arial" font-size="12" fill="black">Inference Steps: 2327    [Per agent: 2327]     [Per Episode (mean): 8]</text>
<text x="50" y="250" font-family="Arial" font-size="12" fill="black">Iterations: 1</text>
<text x="50" y="270" font-family="Arial" font-size="12" fill="black">Parallel Agents: 1</text>
<text x="50" y="290" font-family="Arial" font-size="12" fill="black">Timescale: 38.2</text>
<text x="50" y="310" font-family="Arial" font-size="12" fill="black">Trainer: PPO</text>
<text x="10" y="360" font-family="Arial" font-size="16" fill="black">[Hyperparameters]</text>
<text x="50" y="380" font-family="Arial" font-size="12" fill="black">Buffer Size: 2048        [Batch Size: 128       (x16)]</text>
<text x="50" y="400" font-family="Arial" font-size="12" fill="black">Num Epoch: 8</text>
<text x="50" y="420" font-family="Arial" font-size="12" fill="black">Time Horizon: 64</text>
<text x="50" y="440" font-family="Arial" font-size="12" fill="black">Gradient Cliping Normalization: 0.5</text>
<text x="50" y="460" font-family="Arial" font-size="12" fill="black">Learning Rate Schedule: False    </text>
<text x="10" y="510" font-family="Arial" font-size="16" fill="black">[Behaviour]</text>
<text x="50" y="530" font-family="Arial" font-size="12" fill="black">Space Size: 156</text>
<text x="50" y="550" font-family="Arial" font-size="12" fill="black">Continuous Actions: 60 [Standard Deviation: Fixed]     [Value: 1.7]</text>
<text x="50" y="570" font-family="Arial" font-size="12" fill="black">Discrete Actions: 0</text>
<text x="50" y="590" font-family="Arial" font-size="12" fill="black">TargetFPS: 50 (physics update rate)</text>
<text x="50" y="610" font-family="Arial" font-size="12" fill="black">Observations Normalization: False</text>
<text x="10" y="660" font-family="Arial" font-size="16" fill="black">[Decision Requester]</text>
<text x="50" y="680" font-family="Arial" font-size="12" fill="black">Max Step: 1000</text>
<text x="50" y="700" font-family="Arial" font-size="12" fill="black">Decision Period: 5      [Actions Between Decisions: True]</text>
<text x="10" y="750" font-family="Arial" font-size="16" fill="black">[Graphs]</text>
<text x="50" y="770" font-family="Arial" font-size="12" fill="black">Episode Reward (266)</text>
<text x="50" y="785" font-family="Arial" font-size="10" fill="black">0</text>
<text x="50" y="1000" font-family="Arial" font-size="10" fill="black">0</text>
<path d="M50,990 L51.5625,990 L53.125,990 L54.6875,990 L56.25,990 L57.8125,990 L59.375,990 L60.9375,990 L62.5,990 L64.0625,990 L65.625,990 L67.1875,990 L68.75,990 L70.3125,990 L71.875,990 L73.4375,990 L75,990 L76.5625,990 L78.125,990 L79.6875,990 L81.25,990 L82.8125,990 L84.375,990 L85.9375,990 L87.5,990 L89.0625,990 L90.625,990 L92.1875,990 L93.75,990 L95.3125,990 L96.875,990 L98.4375,990 L100,990 L101.5625,990 L103.125,990 L104.6875,990 L106.25,990 L107.8125,990 L109.375,990 L110.9375,990 L112.5,990 L114.0625,990 L115.625,990 L117.1875,990 L118.75,990 L120.3125,990 L121.875,990 L123.4375,990 L125,990 L126.5625,990 L128.125,990 L129.6875,990 L131.25,990 L132.8125,990 L134.375,990 L135.9375,990 L137.5,990 L139.0625,990 L140.625,990 L142.1875,990 L143.75,990 L145.3125,990 L146.875,990 L148.4375,990 L150,990 L151.5625,990 L153.125,990 L154.6875,990 L156.25,990 L157.8125,990 L159.375,990 L160.9375,990 L162.5,990 L164.0625,990 L165.625,990 L167.1875,990 L168.75,990 L170.3125,990 L171.875,990 L173.4375,990 L175,990 L176.5625,990 L178.125,990 L179.6875,990 L181.25,990 L182.8125,990 L184.375,990 L185.9375,990 L187.5,990 L189.0625,990 L190.625,990 L192.1875,990 L193.75,990 L195.3125,990 L196.875,990 L198.4375,990 L200,990 L201.5625,990 L203.125,990 L204.6875,990 L206.25,990 L207.8125,990 L209.375,990 L210.9375,990 L212.5,990 L214.0625,990 L215.625,990 L217.1875,990 L218.75,990 L220.3125,990 L221.875,990 L223.4375,990 L225,990 L226.5625,990 L228.125,990 L229.6875,990 L231.25,990 L232.8125,990 L234.375,990 L235.9375,990 L237.5,990 L239.0625,990 L240.625,990 L242.1875,990 L243.75,990 L245.3125,990 L246.875,990 L248.4375,990 L250,990 L251.5625,990 L253.125,990 L254.6875,990 L256.25,990 L257.8125,990 L259.375,990 L260.9375,990 L262.5,990 L264.0625,990 L265.625,990 L267.1875,990 L268.75,990 L270.3125,990 L271.875,990 L273.4375,990 L275,990 L276.5625,990 L278.125,990 L279.6875,990 L281.25,990 L282.8125,990 L284.375,990 L285.9375,990 L287.5,990 L289.0625,990 L290.625,990 L292.1875,990 L293.75,990 L295.3125,990 L296.875,990 L298.4375,990 L300,990 L301.5625,990 L303.125,990 L304.6875,990 L306.25,990 L307.8125,990 L309.375,990 L310.9375,990 L312.5,990 L314.0625,990 L315.625,990 L317.1875,990 L318.75,990 L320.3125,990 L321.875,990 L323.4375,990 L325,990 L326.5625,990 L328.125,990 L329.6875,990 L331.25,990 L332.8125,990 L334.375,990 L335.9375,990 L337.5,990 L339.0625,990 L340.625,990 L342.1875,990 L343.75,990 L345.3125,990 L346.875,990 L348.4375,990 L350,990 L351.5625,990 L353.125,990 L354.6875,990 L356.25,990 L357.8125,990 L359.375,990 L360.9375,990 L362.5,990 L364.0625,990 L365.625,990 L367.1875,990 L368.75,990 L370.3125,990 L371.875,990 L373.4375,990 L375,990 L376.5625,990 L378.125,990 L379.6875,990 L381.25,990 L382.8125,990 L384.375,990 L385.9375,990 L387.5,990 L389.0625,990 L390.625,990 L392.1875,990 L393.75,990 L395.3125,990 L396.875,990 L398.4375,990 L400,990 L401.5625,990 L403.125,990 L404.6875,990 L406.25,990 L407.8125,990 L409.375,990 L410.9375,990 L412.5,990 L414.0625,990 L415.625,990 L417.1875,990 L418.75,990 L420.3125,990 L421.875,990 L423.4375,990 L425,990 L426.5625,990 L428.125,990 L429.6875,990 L431.25,990 L432.8125,990 L434.375,990 L435.9375,990 L437.5,990 L439.0625,990 L440.625,990 L442.1875,990 L443.75,990 L445.3125,990 L446.875,990 L448.4375,990 L450,990 L451.5625,990 L453.125,990 L454.6875,990 L456.25,990 L457.8125,990 L459.375,990 L460.9375,990 L462.5,990 L464.0625,990 " stroke="blue" fill="none" />
<text x="50" y="1040" font-family="Arial" font-size="12" fill="black">Episode Length (266)</text>
<text x="50" y="1055" font-family="Arial" font-size="10" fill="black">31</text>
<text x="50" y="1270" font-family="Arial" font-size="10" fill="black">2</text>
<path d="M50,1218.621 L51.5625,1218.621 L53.125,1232.414 L54.6875,1225.517 L56.25,1211.724 L57.8125,1211.724 L59.375,1253.103 L60.9375,1232.414 L62.5,1218.621 L64.0625,1204.828 L65.625,1184.138 L67.1875,1184.138 L68.75,1239.31 L70.3125,1232.414 L71.875,1163.448 L73.4375,1239.31 L75,1246.207 L76.5625,1184.138 L78.125,1232.414 L79.6875,1253.103 L81.25,1211.724 L82.8125,1225.517 L84.375,1246.207 L85.9375,1225.517 L87.5,1253.103 L89.0625,1232.414 L90.625,1218.621 L92.1875,1191.034 L93.75,1204.828 L95.3125,1225.517 L96.875,1218.621 L98.4375,1191.034 L100,1218.621 L101.5625,1218.621 L103.125,1060 L104.6875,1246.207 L106.25,1246.207 L107.8125,1232.414 L109.375,1232.414 L110.9375,1204.828 L112.5,1218.621 L114.0625,1211.724 L115.625,1204.828 L117.1875,1232.414 L118.75,1260 L120.3125,1197.931 L121.875,1239.31 L123.4375,1218.621 L125,1232.414 L126.5625,1211.724 L128.125,1253.103 L129.6875,1218.621 L131.25,1218.621 L132.8125,1218.621 L134.375,1253.103 L135.9375,1191.034 L137.5,1211.724 L139.0625,1225.517 L140.625,1211.724 L142.1875,1197.931 L143.75,1218.621 L145.3125,1218.621 L146.875,1191.034 L148.4375,1232.414 L150,1232.414 L151.5625,1197.931 L153.125,1225.517 L154.6875,1191.034 L156.25,1232.414 L157.8125,1218.621 L159.375,1204.828 L160.9375,1197.931 L162.5,1197.931 L164.0625,1184.138 L165.625,1184.138 L167.1875,1225.517 L168.75,1211.724 L170.3125,1184.138 L171.875,1204.828 L173.4375,1184.138 L175,1232.414 L176.5625,1246.207 L178.125,1225.517 L179.6875,1177.241 L181.25,1225.517 L182.8125,1204.828 L184.375,1197.931 L185.9375,1197.931 L187.5,1191.034 L189.0625,1191.034 L190.625,1191.034 L192.1875,1204.828 L193.75,1239.31 L195.3125,1197.931 L196.875,1232.414 L198.4375,1239.31 L200,1225.517 L201.5625,1232.414 L203.125,1142.759 L204.6875,1211.724 L206.25,1177.241 L207.8125,1232.414 L209.375,1211.724 L210.9375,1191.034 L212.5,1142.759 L214.0625,1239.31 L215.625,1184.138 L217.1875,1232.414 L218.75,1218.621 L220.3125,1239.31 L221.875,1184.138 L223.4375,1204.828 L225,1211.724 L226.5625,1191.034 L228.125,1260 L229.6875,1232.414 L231.25,1253.103 L232.8125,1218.621 L234.375,1184.138 L235.9375,1232.414 L237.5,1232.414 L239.0625,1197.931 L240.625,1253.103 L242.1875,1184.138 L243.75,1218.621 L245.3125,1225.517 L246.875,1204.828 L248.4375,1191.034 L250,1211.724 L251.5625,1211.724 L253.125,1197.931 L254.6875,1253.103 L256.25,1204.828 L257.8125,1239.31 L259.375,1253.103 L260.9375,1225.517 L262.5,1253.103 L264.0625,1225.517 L265.625,1239.31 L267.1875,1163.448 L268.75,1232.414 L270.3125,1225.517 L271.875,1177.241 L273.4375,1184.138 L275,1135.862 L276.5625,1253.103 L278.125,1225.517 L279.6875,1211.724 L281.25,1184.138 L282.8125,1191.034 L284.375,1253.103 L285.9375,1246.207 L287.5,1211.724 L289.0625,1191.034 L290.625,1239.31 L292.1875,1225.517 L293.75,1204.828 L295.3125,1204.828 L296.875,1211.724 L298.4375,1239.31 L300,1204.828 L301.5625,1191.034 L303.125,1218.621 L304.6875,1177.241 L306.25,1135.862 L307.8125,1239.31 L309.375,1253.103 L310.9375,1239.31 L312.5,1239.31 L314.0625,1246.207 L315.625,1204.828 L317.1875,1239.31 L318.75,1197.931 L320.3125,1218.621 L321.875,1225.517 L323.4375,1225.517 L325,1211.724 L326.5625,1225.517 L328.125,1184.138 L329.6875,1246.207 L331.25,1225.517 L332.8125,1225.517 L334.375,1191.034 L335.9375,1232.414 L337.5,1197.931 L339.0625,1184.138 L340.625,1232.414 L342.1875,1232.414 L343.75,1225.517 L345.3125,1197.931 L346.875,1239.31 L348.4375,1239.31 L350,1218.621 L351.5625,1211.724 L353.125,1184.138 L354.6875,1211.724 L356.25,1218.621 L357.8125,1225.517 L359.375,1225.517 L360.9375,1239.31 L362.5,1177.241 L364.0625,1218.621 L365.625,1239.31 L367.1875,1253.103 L368.75,1135.862 L370.3125,1197.931 L371.875,1218.621 L373.4375,1135.862 L375,1232.414 L376.5625,1246.207 L378.125,1225.517 L379.6875,1211.724 L381.25,1239.31 L382.8125,1170.345 L384.375,1232.414 L385.9375,1191.034 L387.5,1225.517 L389.0625,1184.138 L390.625,1246.207 L392.1875,1225.517 L393.75,1239.31 L395.3125,1239.31 L396.875,1225.517 L398.4375,1225.517 L400,1260 L401.5625,1239.31 L403.125,1218.621 L404.6875,1253.103 L406.25,1232.414 L407.8125,1218.621 L409.375,1204.828 L410.9375,1232.414 L412.5,1135.862 L414.0625,1211.724 L415.625,1204.828 L417.1875,1218.621 L418.75,1142.759 L420.3125,1225.517 L421.875,1204.828 L423.4375,1197.931 L425,1197.931 L426.5625,1197.931 L428.125,1156.552 L429.6875,1218.621 L431.25,1204.828 L432.8125,1225.517 L434.375,1253.103 L435.9375,1225.517 L437.5,1225.517 L439.0625,1225.517 L440.625,1225.517 L442.1875,1218.621 L443.75,1225.517 L445.3125,1211.724 L446.875,1170.345 L448.4375,1225.517 L450,1184.138 L451.5625,1170.345 L453.125,1184.138 L454.6875,1156.552 L456.25,1239.31 L457.8125,1080.69 L459.375,1225.517 L460.9375,1211.724 L462.5,1191.034 L464.0625,1184.138 " stroke="blue" fill="none" />
<text x="50" y="1310" font-family="Arial" font-size="12" fill="black">Policy Loss</text>
<text x="50" y="1325" font-family="Arial" font-size="10" fill="black">0.01769871</text>
<text x="50" y="1540" font-family="Arial" font-size="10" fill="black">0.01769871</text>
<path d="M50,1530 " stroke="blue" fill="none" />
<text x="50" y="1580" font-family="Arial" font-size="12" fill="black">Value Loss</text>
<text x="50" y="1595" font-family="Arial" font-size="10" fill="black">0.0005134491</text>
<text x="50" y="1810" font-family="Arial" font-size="10" fill="black">0.0005134491</text>
<path d="M50,1800 " stroke="blue" fill="none" />
<text x="50" y="1850" font-family="Arial" font-size="12" fill="black">Learning Rate</text>
<text x="50" y="1865" font-family="Arial" font-size="10" fill="black">0.0003</text>
<text x="50" y="2080" font-family="Arial" font-size="10" fill="black">0.0003</text>
<path d="M50,2070 " stroke="blue" fill="none" />
<text x="50" y="2120" font-family="Arial" font-size="12" fill="black">Entropy</text>
<text x="50" y="2135" font-family="Arial" font-size="10" fill="black">0.2436961</text>
<text x="50" y="2350" font-family="Arial" font-size="10" fill="black">0.2436961</text>
<path d="M50,2340 " stroke="blue" fill="none" />
<text x="750" y="770" font-family="Arial" font-size="12" fill="black">Simplified</text>
<text x="750" y="785" font-family="Arial" font-size="10" fill="black">0</text>
<text x="750" y="1000" font-family="Arial" font-size="10" fill="black">0</text>
<path d="M778.125,990 L807.8125,990 L837.5,990 L867.1875,990 L896.875,990 L926.5625,990 L956.25,990 L985.9375,990 L1015.625,990 L1045.313,990 L1075,990 L1104.688,990 L1134.375,990 L1164.063,990 " stroke="blue" fill="none" />
<text x="750" y="1040" font-family="Arial" font-size="12" fill="black">Simplified</text>
<text x="750" y="1055" font-family="Arial" font-size="10" fill="black">10.8421</text>
<text x="750" y="1270" font-family="Arial" font-size="10" fill="black">6.894737</text>
<path d="M778.125,1196 L807.8125,1190.667 L837.5,1233.333 L867.1875,1140 L896.875,1121.333 L926.5625,1110.667 L956.25,1209.333 L985.9375,1190.667 L1015.625,1174.667 L1045.313,1190.667 L1075,1153.333 L1104.688,1260 L1134.375,1100 L1164.063,1060 " stroke="blue" fill="none" />
</svg>
