<svg width="2000" height="2500" xmlns="http://www.w3.org/2000/svg">
<text x="10" y="20" font-family="Arial" font-size="26" fill="black"> [BalanceBall] Training Session</text>
<text x="10" y="50" font-family="Arial" font-size="16" fill="black">[Statistics]</text>
<text x="50" y="70" font-family="Arial" font-size="12" fill="black">Started at: 3:13:10 PM, Thursday, February 8, 2024</text>
<text x="50" y="90" font-family="Arial" font-size="12" fill="black">Finished at: 3:16:40 PM, Thursday, February 8, 2024</text>
<text x="50" y="110" font-family="Arial" font-size="12" fill="black">Training Session Time: 0 hrs : 3 min : 29 sec</text>
<text x="50" y="130" font-family="Arial" font-size="12" fill="black">Inference Time: 0 hrs : 49 min : 53 sec        [Device: CPU]</text>
<text x="50" y="150" font-family="Arial" font-size="12" fill="black">Update Time: 0 hrs : 2 min : 12 sec        [Per iteration: 0 hrs : 0 min : 2.142 sec]        [Device: GPU]</text>
<text x="50" y="170" font-family="Arial" font-size="12" fill="black">Episode Count: 288</text>
<text x="50" y="190" font-family="Arial" font-size="12" fill="black">Inference Steps: 149504</text>
<text x="50" y="210" font-family="Arial" font-size="12" fill="black">Iterations: 73</text>
<text x="50" y="230" font-family="Arial" font-size="12" fill="black">Parallel Agents: 1</text>
<text x="50" y="250" font-family="Arial" font-size="12" fill="black">Timescale: 32.18</text>
<text x="50" y="270" font-family="Arial" font-size="12" fill="black">Trainer: PPO</text>
<text x="10" y="320" font-family="Arial" font-size="16" fill="black">[Hyperparameters]</text>
<text x="50" y="340" font-family="Arial" font-size="12" fill="black">Buffer Size: 2048        [Batch Size: 128       (x16)]</text>
<text x="50" y="360" font-family="Arial" font-size="12" fill="black">Num Epoch: 8</text>
<text x="50" y="380" font-family="Arial" font-size="12" fill="black">Time Horizon: 256</text>
<text x="50" y="400" font-family="Arial" font-size="12" fill="black">Gradient Cliping by Norm: 0.5</text>
<text x="50" y="420" font-family="Arial" font-size="12" fill="black">Learning Rate Schedule: False    </text>
<text x="10" y="470" font-family="Arial" font-size="16" fill="black">[Behaviour]</text>
<text x="50" y="490" font-family="Arial" font-size="12" fill="black">Space Size: 10</text>
<text x="50" y="510" font-family="Arial" font-size="12" fill="black">Continuous Actions: 2 [Standard Deviation: Fixed]     [Value: 2]</text>
<text x="50" y="530" font-family="Arial" font-size="12" fill="black">Discrete Actions: 0</text>
<text x="50" y="550" font-family="Arial" font-size="12" fill="black">TargetFPS: 50 (physics update rate)</text>
<text x="50" y="570" font-family="Arial" font-size="12" fill="black">Observations Normalization: False</text>
<text x="10" y="620" font-family="Arial" font-size="16" fill="black">[Decision Requester]</text>
<text x="50" y="640" font-family="Arial" font-size="12" fill="black">Max Step: 10000</text>
<text x="50" y="660" font-family="Arial" font-size="12" fill="black">Decision Period: 1</text>
<text x="10" y="710" font-family="Arial" font-size="16" fill="black">[Graphs]</text>
<text x="50" y="730" font-family="Arial" font-size="12" fill="black">Episode Reward (288)</text>
<text x="50" y="745" font-family="Arial" font-size="10" fill="black">249.9757</text>
<text x="50" y="960" font-family="Arial" font-size="10" fill="black">1.999999</text>
<path d="M50,949.8185 L51.5625,949.7983 L53.125,949.3346 L54.6875,949.4556 L56.25,949.5766 L57.8125,949.7177 L59.375,949.5564 L60.9375,949.8589 L62.5,949.4153 L64.0625,949.5967 L65.625,949.2943 L67.1875,949.5161 L68.75,949.5967 L70.3125,949.6371 L71.875,949.3548 L73.4375,949.3145 L75,949.5967 L76.5625,949.3951 L78.125,949.6572 L79.6875,949.7379 L81.25,949.7379 L82.8125,949.5161 L84.375,949.6371 L85.9375,949.5161 L87.5,949.2943 L89.0625,949.6572 L90.625,949.5967 L92.1875,949.6774 L93.75,949.7581 L95.3125,949.6976 L96.875,949.6371 L98.4375,949.3346 L100,949.3749 L101.5625,949.6169 L103.125,949.5564 L104.6875,950 L106.25,949.6572 L107.8125,949.6371 L109.375,949.4959 L110.9375,949.6976 L112.5,949.5766 L114.0625,949.5161 L115.625,949.7379 L117.1875,949.879 L118.75,949.7177 L120.3125,949.3749 L121.875,949.4959 L123.4375,949.7581 L125,949.6371 L126.5625,949.7782 L128.125,949.6976 L129.6875,949.5766 L131.25,949.5564 L132.8125,949.7379 L134.375,949.5766 L135.9375,949.3951 L137.5,949.0322 L139.0625,949.3346 L140.625,949.7581 L142.1875,949.8185 L143.75,949.6774 L145.3125,949.5363 L146.875,949.6976 L148.4375,947.9434 L150,949.7379 L151.5625,948.8305 L153.125,949.3145 L154.6875,949.2943 L156.25,949.6572 L157.8125,949.4959 L159.375,949.6572 L160.9375,949.4354 L162.5,949.3346 L164.0625,949.6371 L165.625,948.9515 L167.1875,949.4354 L168.75,949.4959 L170.3125,949.7379 L171.875,949.3145 L173.4375,949.0927 L175,949.6976 L176.5625,949.2136 L178.125,949.4153 L179.6875,949.3145 L181.25,949.2741 L182.8125,948.5482 L184.375,948.9918 L185.9375,949.0523 L187.5,949.4153 L189.0625,949.012 L190.625,949.1733 L192.1875,949.3548 L193.75,949.1935 L195.3125,949.254 L196.875,949.5967 L198.4375,948.8104 L200,949.4153 L201.5625,947.7216 L203.125,949.6169 L204.6875,949.1733 L206.25,949.4354 L207.8125,949.5766 L209.375,948.6894 L210.9375,949.133 L212.5,948.4272 L214.0625,949.0725 L215.625,949.1935 L217.1875,949.1935 L218.75,949.6169 L220.3125,948.8305 L221.875,949.012 L223.4375,949.0322 L225,949.3346 L226.5625,948.7095 L228.125,949.0725 L229.6875,949.0322 L231.25,949.0725 L232.8125,949.5363 L234.375,948.5684 L235.9375,948.4071 L237.5,949.3145 L239.0625,949.2136 L240.625,948.9515 L242.1875,948.9313 L243.75,948.6894 L245.3125,949.012 L246.875,948.9112 L248.4375,948.649 L250,948.5482 L251.5625,949.2741 L253.125,949.012 L254.6875,949.4959 L256.25,949.6169 L257.8125,947.0965 L259.375,948.5886 L260.9375,948.5684 L262.5,949.6371 L264.0625,947.1368 L265.625,948.649 L267.1875,948.8305 L268.75,949.2136 L270.3125,948.3466 L271.875,949.0725 L273.4375,948.8708 L275,948.649 L276.5625,946.1085 L278.125,948.8305 L279.6875,949.0927 L281.25,948.2458 L282.8125,948.4272 L284.375,949.5564 L285.9375,949.5363 L287.5,947.8829 L289.0625,948.145 L290.625,947.1771 L292.1875,948.2861 L293.75,948.7499 L295.3125,948.2659 L296.875,947.0562 L298.4375,948.1047 L300,947.1771 L301.5625,948.4676 L303.125,949.2338 L304.6875,948.0643 L306.25,948.6894 L307.8125,948.5079 L309.375,947.9434 L310.9375,949.3749 L312.5,948.4071 L314.0625,948.9112 L315.625,946.5924 L317.1875,946.4916 L318.75,948.9112 L320.3125,949.1128 L321.875,948.8708 L323.4375,948.6087 L325,948.7902 L326.5625,949.3749 L328.125,949.3548 L329.6875,947.9635 L331.25,945.6851 L332.8125,948.3264 L334.375,946.4512 L335.9375,946.3907 L337.5,946.794 L339.0625,947.0763 L340.625,947.8829 L342.1875,948.9515 L343.75,947.4998 L345.3125,947.3384 L346.875,946.9553 L348.4375,944.7576 L350,948.024 L351.5625,948.5886 L353.125,947.7216 L354.6875,948.4676 L356.25,945.7657 L357.8125,945.0398 L359.375,947.8022 L360.9375,947.6812 L362.5,947.8627 L364.0625,945.6246 L365.625,945.8867 L367.1875,946.8747 L368.75,945.1003 L370.3125,949.0322 L371.875,946.9352 L373.4375,946.915 L375,947.4393 L376.5625,947.7618 L378.125,945.7657 L379.6875,947.7618 L381.25,945.0398 L382.8125,947.5401 L384.375,942.58 L385.9375,941.9348 L387.5,947.8425 L389.0625,943.2655 L390.625,946.6932 L392.1875,944.0317 L393.75,945.4028 L395.3125,941.9146 L396.875,945.9673 L398.4375,943.6688 L400,939.858 L401.5625,944.4753 L403.125,943.9913 L404.6875,947.4393 L406.25,941.0879 L407.8125,944.4148 L409.375,945.9673 L410.9375,947.9836 L412.5,944.9188 L414.0625,942.096 L415.625,928.1231 L417.1875,946.5117 L418.75,946.0682 L420.3125,940.0999 L421.875,929.716 L423.4375,948.3264 L425,936.6722 L426.5625,942.9025 L428.125,947.2578 L429.6875,935.4019 L431.25,941.4508 L432.8125,938.0836 L434.375,938.9708 L435.9375,946.7537 L437.5,946.0682 L439.0625,944.2736 L440.625,944.4954 L442.1875,940.6039 L443.75,912.3345 L445.3125,936.2891 L446.875,940.8862 L448.4375,936.2689 L450,942.1565 L451.5625,941.4508 L453.125,937.0956 L454.6875,940.5032 L456.25,944.3745 L457.8125,942.842 L459.375,929.5748 L460.9375,936.5109 L462.5,932.1557 L464.0625,940.1402 L465.625,946.1689 L467.1875,943.7695 L468.75,942.4993 L470.3125,938.4869 L471.875,918.4443 L473.4375,922.8805 L475,918.0209 L476.5625,868.9203 L478.125,925.6229 L479.6875,938.0836 L481.25,853.0912 L482.8125,750 L484.375,917.8192 L485.9375,933.4663 L487.5,778.262 L489.0625,895.3963 L490.625,907.9789 L492.1875,790.1554 L493.75,750 L495.3125,750 L496.875,770.1382 L498.4375,852.4459 " stroke="blue" fill="none" />
<text x="50" y="1000" font-family="Arial" font-size="12" fill="black">Episode Length (288)</text>
<text x="50" y="1015" font-family="Arial" font-size="10" fill="black">10000</text>
<text x="50" y="1230" font-family="Arial" font-size="10" fill="black">81</text>
<path d="M50,1219.839 L51.5625,1219.798 L53.125,1219.335 L54.6875,1219.456 L56.25,1219.577 L57.8125,1219.718 L59.375,1219.556 L60.9375,1219.859 L62.5,1219.415 L64.0625,1219.597 L65.625,1219.294 L67.1875,1219.516 L68.75,1219.597 L70.3125,1219.637 L71.875,1219.355 L73.4375,1219.314 L75,1219.597 L76.5625,1219.395 L78.125,1219.657 L79.6875,1219.738 L81.25,1219.738 L82.8125,1219.516 L84.375,1219.637 L85.9375,1219.516 L87.5,1219.294 L89.0625,1219.657 L90.625,1219.597 L92.1875,1219.677 L93.75,1219.758 L95.3125,1219.698 L96.875,1219.637 L98.4375,1219.335 L100,1219.375 L101.5625,1219.617 L103.125,1219.556 L104.6875,1220 L106.25,1219.657 L107.8125,1219.637 L109.375,1219.496 L110.9375,1219.698 L112.5,1219.577 L114.0625,1219.516 L115.625,1219.738 L117.1875,1219.879 L118.75,1219.718 L120.3125,1219.375 L121.875,1219.496 L123.4375,1219.758 L125,1219.637 L126.5625,1219.778 L128.125,1219.698 L129.6875,1219.577 L131.25,1219.556 L132.8125,1219.738 L134.375,1219.577 L135.9375,1219.395 L137.5,1219.032 L139.0625,1219.335 L140.625,1219.758 L142.1875,1219.818 L143.75,1219.677 L145.3125,1219.536 L146.875,1219.698 L148.4375,1217.943 L150,1219.738 L151.5625,1218.831 L153.125,1219.314 L154.6875,1219.294 L156.25,1219.657 L157.8125,1219.496 L159.375,1219.657 L160.9375,1219.435 L162.5,1219.335 L164.0625,1219.637 L165.625,1218.952 L167.1875,1219.435 L168.75,1219.496 L170.3125,1219.738 L171.875,1219.314 L173.4375,1219.093 L175,1219.698 L176.5625,1219.214 L178.125,1219.415 L179.6875,1219.314 L181.25,1219.274 L182.8125,1218.548 L184.375,1218.992 L185.9375,1219.052 L187.5,1219.415 L189.0625,1219.012 L190.625,1219.173 L192.1875,1219.355 L193.75,1219.193 L195.3125,1219.254 L196.875,1219.597 L198.4375,1218.81 L200,1219.415 L201.5625,1217.722 L203.125,1219.617 L204.6875,1219.173 L206.25,1219.435 L207.8125,1219.577 L209.375,1218.689 L210.9375,1219.133 L212.5,1218.427 L214.0625,1219.073 L215.625,1219.193 L217.1875,1219.193 L218.75,1219.617 L220.3125,1218.831 L221.875,1219.012 L223.4375,1219.032 L225,1219.335 L226.5625,1218.71 L228.125,1219.073 L229.6875,1219.032 L231.25,1219.073 L232.8125,1219.536 L234.375,1218.568 L235.9375,1218.407 L237.5,1219.314 L239.0625,1219.214 L240.625,1218.952 L242.1875,1218.931 L243.75,1218.689 L245.3125,1219.012 L246.875,1218.911 L248.4375,1218.649 L250,1218.548 L251.5625,1219.274 L253.125,1219.012 L254.6875,1219.496 L256.25,1219.617 L257.8125,1217.096 L259.375,1218.589 L260.9375,1218.568 L262.5,1219.637 L264.0625,1217.137 L265.625,1218.649 L267.1875,1218.831 L268.75,1219.214 L270.3125,1218.347 L271.875,1219.073 L273.4375,1218.871 L275,1218.649 L276.5625,1216.109 L278.125,1218.831 L279.6875,1219.093 L281.25,1218.246 L282.8125,1218.427 L284.375,1219.556 L285.9375,1219.536 L287.5,1217.883 L289.0625,1218.145 L290.625,1217.177 L292.1875,1218.286 L293.75,1218.75 L295.3125,1218.266 L296.875,1217.056 L298.4375,1218.105 L300,1217.177 L301.5625,1218.468 L303.125,1219.234 L304.6875,1218.064 L306.25,1218.689 L307.8125,1218.508 L309.375,1217.943 L310.9375,1219.375 L312.5,1218.407 L314.0625,1218.911 L315.625,1216.592 L317.1875,1216.492 L318.75,1218.911 L320.3125,1219.113 L321.875,1218.871 L323.4375,1218.609 L325,1218.79 L326.5625,1219.375 L328.125,1219.355 L329.6875,1217.964 L331.25,1215.685 L332.8125,1218.326 L334.375,1216.451 L335.9375,1216.391 L337.5,1216.794 L339.0625,1217.076 L340.625,1217.883 L342.1875,1218.952 L343.75,1217.5 L345.3125,1217.339 L346.875,1216.955 L348.4375,1214.758 L350,1218.024 L351.5625,1218.589 L353.125,1217.722 L354.6875,1218.468 L356.25,1215.766 L357.8125,1215.04 L359.375,1217.802 L360.9375,1217.681 L362.5,1217.863 L364.0625,1215.625 L365.625,1215.887 L367.1875,1216.875 L368.75,1215.1 L370.3125,1219.032 L371.875,1216.935 L373.4375,1216.915 L375,1217.439 L376.5625,1217.762 L378.125,1215.766 L379.6875,1217.762 L381.25,1215.04 L382.8125,1217.54 L384.375,1212.58 L385.9375,1211.935 L387.5,1217.843 L389.0625,1213.266 L390.625,1216.693 L392.1875,1214.032 L393.75,1215.403 L395.3125,1211.915 L396.875,1215.967 L398.4375,1213.669 L400,1209.858 L401.5625,1214.475 L403.125,1213.991 L404.6875,1217.439 L406.25,1211.088 L407.8125,1214.415 L409.375,1215.967 L410.9375,1217.984 L412.5,1214.919 L414.0625,1212.096 L415.625,1198.123 L417.1875,1216.512 L418.75,1216.068 L420.3125,1210.1 L421.875,1199.716 L423.4375,1218.326 L425,1206.672 L426.5625,1212.902 L428.125,1217.258 L429.6875,1205.402 L431.25,1211.451 L432.8125,1208.083 L434.375,1208.971 L435.9375,1216.754 L437.5,1216.068 L439.0625,1214.274 L440.625,1214.495 L442.1875,1210.604 L443.75,1182.335 L445.3125,1206.289 L446.875,1210.886 L448.4375,1206.269 L450,1212.156 L451.5625,1211.451 L453.125,1207.095 L454.6875,1210.503 L456.25,1214.374 L457.8125,1212.842 L459.375,1199.575 L460.9375,1206.511 L462.5,1202.156 L464.0625,1210.14 L465.625,1216.169 L467.1875,1213.77 L468.75,1212.499 L470.3125,1208.487 L471.875,1188.444 L473.4375,1192.88 L475,1188.021 L476.5625,1138.923 L478.125,1195.623 L479.6875,1208.083 L481.25,1123.095 L482.8125,1020 L484.375,1187.819 L485.9375,1203.466 L487.5,1048.249 L489.0625,1165.398 L490.625,1177.98 L492.1875,1060.145 L493.75,1020 L495.3125,1020 L496.875,1040.123 L498.4375,1122.45 " stroke="blue" fill="none" />
<text x="50" y="1270" font-family="Arial" font-size="12" fill="black">Policy Loss</text>
<text x="50" y="1285" font-family="Arial" font-size="10" fill="black">0.3951635</text>
<text x="50" y="1500" font-family="Arial" font-size="10" fill="black">0.01141851</text>
<path d="M50,1290 L56.25,1346.07 L62.5,1373.585 L68.75,1411.704 L75,1437.306 L81.25,1442.004 L87.5,1411.978 L93.75,1424.417 L100,1440.123 L106.25,1451.719 L112.5,1444.698 L118.75,1445.424 L125,1438.08 L131.25,1443.993 L137.5,1438.468 L143.75,1448.186 L150,1431.004 L156.25,1436.378 L162.5,1435.637 L168.75,1448.695 L175,1445.227 L181.25,1441.513 L187.5,1436.608 L193.75,1451.191 L200,1441.905 L206.25,1454.075 L212.5,1447.596 L218.75,1441.14 L225,1458.368 L231.25,1465.864 L237.5,1469.51 L243.75,1465.181 L250,1462.446 L256.25,1456.432 L262.5,1457.271 L268.75,1478.128 L275,1474.667 L281.25,1480.476 L287.5,1484.967 L293.75,1488.639 L300,1483.682 L306.25,1476.656 L312.5,1465.62 L318.75,1483.374 L325,1479.812 L331.25,1486.846 L337.5,1480.233 L343.75,1489.302 L350,1475.952 L356.25,1476.046 L362.5,1484.829 L368.75,1488.746 L375,1488.314 L381.25,1481.663 L387.5,1487.012 L393.75,1488.892 L400,1486.34 L406.25,1490 L412.5,1480.522 L418.75,1473.828 L425,1485.43 L431.25,1489.114 L437.5,1477.599 L443.75,1481.694 L450,1480.685 L456.25,1485.802 L462.5,1487.101 L468.75,1481.257 L475,1481.713 L481.25,1478.749 L487.5,1481.708 L493.75,1488.313 L500,1487.86 " stroke="blue" fill="none" />
<text x="50" y="1540" font-family="Arial" font-size="12" fill="black">Value Loss</text>
<text x="50" y="1555" font-family="Arial" font-size="10" fill="black">0.06146944</text>
<text x="50" y="1770" font-family="Arial" font-size="10" fill="black">9.870018E-05</text>
<path d="M50,1560 L56.25,1715.66 L62.5,1737.558 L68.75,1741.606 L75,1742.559 L81.25,1731.963 L87.5,1719.235 L93.75,1717.025 L100,1727.005 L106.25,1734.101 L112.5,1717.003 L118.75,1728.347 L125,1720.832 L131.25,1723.803 L137.5,1719.809 L143.75,1732.319 L150,1712.308 L156.25,1723.163 L162.5,1721.958 L168.75,1726.97 L175,1722.254 L181.25,1710.993 L187.5,1726.456 L193.75,1738.937 L200,1729.713 L206.25,1727.543 L212.5,1723.804 L218.75,1737.324 L225,1738.974 L231.25,1750.995 L237.5,1749.385 L243.75,1743.789 L250,1752.4 L256.25,1743.801 L262.5,1745.836 L268.75,1757.79 L275,1752.774 L281.25,1758.253 L287.5,1759.38 L293.75,1760 L300,1759.118 L306.25,1666.812 L312.5,1734.578 L318.75,1758.323 L325,1758.656 L331.25,1759.38 L337.5,1743.832 L343.75,1759.577 L350,1748.589 L356.25,1743.771 L362.5,1758.695 L368.75,1759.766 L375,1759.739 L381.25,1750.805 L387.5,1759.139 L393.75,1759.545 L400,1759.689 L406.25,1759.94 L412.5,1671.128 L418.75,1757.693 L425,1759.522 L431.25,1759.874 L437.5,1690.587 L443.75,1757.2 L450,1759.213 L456.25,1759.705 L462.5,1759.463 L468.75,1748.369 L475,1758.906 L481.25,1749.76 L487.5,1758.438 L493.75,1759.887 L500,1759.812 " stroke="blue" fill="none" />
<text x="50" y="1810" font-family="Arial" font-size="12" fill="black">Learning Rate</text>
<text x="50" y="1825" font-family="Arial" font-size="10" fill="black">0.0003</text>
<text x="50" y="2040" font-family="Arial" font-size="10" fill="black">0.0003</text>
<path d="M50,2030 L56.25,2030 L62.5,2030 L68.75,2030 L75,2030 L81.25,2030 L87.5,2030 L93.75,2030 L100,2030 L106.25,2030 L112.5,2030 L118.75,2030 L125,2030 L131.25,2030 L137.5,2030 L143.75,2030 L150,2030 L156.25,2030 L162.5,2030 L168.75,2030 L175,2030 L181.25,2030 L187.5,2030 L193.75,2030 L200,2030 L206.25,2030 L212.5,2030 L218.75,2030 L225,2030 L231.25,2030 L237.5,2030 L243.75,2030 L250,2030 L256.25,2030 L262.5,2030 L268.75,2030 L275,2030 L281.25,2030 L287.5,2030 L293.75,2030 L300,2030 L306.25,2030 L312.5,2030 L318.75,2030 L325,2030 L331.25,2030 L337.5,2030 L343.75,2030 L350,2030 L356.25,2030 L362.5,2030 L368.75,2030 L375,2030 L381.25,2030 L387.5,2030 L393.75,2030 L400,2030 L406.25,2030 L412.5,2030 L418.75,2030 L425,2030 L431.25,2030 L437.5,2030 L443.75,2030 L450,2030 L456.25,2030 L462.5,2030 L468.75,2030 L475,2030 L481.25,2030 L487.5,2030 L493.75,2030 L500,2030 " stroke="blue" fill="none" />
<text x="50" y="2080" font-family="Arial" font-size="12" fill="black">Entropy</text>
<text x="50" y="2095" font-family="Arial" font-size="10" fill="black">2.015748</text>
<text x="50" y="2310" font-family="Arial" font-size="10" fill="black">2</text>
<path d="M50,2300 L56.25,2101.563 L62.5,2100.012 L68.75,2100 L75,2100 L81.25,2100 L87.5,2100 L93.75,2100 L100,2100 L106.25,2100 L112.5,2100 L118.75,2100 L125,2100 L131.25,2100 L137.5,2100 L143.75,2100 L150,2100 L156.25,2100 L162.5,2100 L168.75,2100 L175,2100 L181.25,2100 L187.5,2100 L193.75,2100 L200,2100 L206.25,2100 L212.5,2100 L218.75,2100 L225,2100 L231.25,2100 L237.5,2100 L243.75,2100 L250,2100 L256.25,2100 L262.5,2100 L268.75,2100 L275,2100 L281.25,2100 L287.5,2100 L293.75,2100 L300,2100 L306.25,2100 L312.5,2100 L318.75,2100 L325,2100 L331.25,2100 L337.5,2100 L343.75,2100 L350,2100 L356.25,2100 L362.5,2100 L368.75,2100 L375,2100 L381.25,2100 L387.5,2100 L393.75,2100 L400,2100 L406.25,2100 L412.5,2100 L418.75,2100 L425,2100 L431.25,2100 L437.5,2100 L443.75,2100 L450,2100 L456.25,2100 L462.5,2100 L468.75,2100 L475,2100 L481.25,2100 L487.5,2100 L493.75,2100 L500,2100 " stroke="blue" fill="none" />
<text x="750" y="730" font-family="Arial" font-size="12" fill="black">Simplified</text>
<text x="750" y="745" font-family="Arial" font-size="10" fill="black">199.3126</text>
<text x="750" y="960" font-family="Arial" font-size="10" fill="black">2.480263</text>
<path d="M778.125,949.9238 L807.8125,950 L837.5,949.9733 L867.1875,949.7286 L896.875,949.5695 L926.5625,949.2941 L956.25,949.2486 L985.9375,948.6617 L1015.625,948.1697 L1045.313,947.8275 L1075,946.6736 L1104.688,944.0518 L1134.375,939.6172 L1164.063,936.2173 L1193.75,870.1947 L1198.438,750 " stroke="blue" fill="none" />
<text x="750" y="1000" font-family="Arial" font-size="12" fill="black">Simplified</text>
<text x="750" y="1015" font-family="Arial" font-size="10" fill="black">7973.667</text>
<text x="750" y="1230" font-family="Arial" font-size="10" fill="black">100.2105</text>
<path d="M778.125,1219.925 L807.8125,1220 L837.5,1219.973 L867.1875,1219.729 L896.875,1219.569 L926.5625,1219.294 L956.25,1219.249 L985.9375,1218.662 L1015.625,1218.17 L1045.313,1217.828 L1075,1216.674 L1104.688,1214.052 L1134.375,1209.617 L1164.063,1206.218 L1193.75,1140.196 L1198.438,1020 " stroke="blue" fill="none" />
</svg>
