<svg width="2000" height="2500" xmlns="http://www.w3.org/2000/svg">
<text x="10" y="20" font-family="Arial" font-size="26" fill="black"> [BalanceBall] Training Session</text>
<text x="10" y="50" font-family="Arial" font-size="16" fill="black">[Statistics]</text>
<text x="50" y="70" font-family="Arial" font-size="12" fill="black">Started at: 8:51:28 AM, Thursday, March 7, 2024</text>
<text x="50" y="90" font-family="Arial" font-size="12" fill="black">Finished at: 8:58:26 AM, Thursday, March 7, 2024</text>
<text x="50" y="110" font-family="Arial" font-size="12" fill="black">Training Session Time: 0 hrs : 6 min : 57 sec</text>
<text x="50" y="130" font-family="Arial" font-size="12" fill="black">Inference Time: 0 hrs : 43 min : 23 sec        [Device: CPU]</text>
<text x="50" y="150" font-family="Arial" font-size="12" fill="black">Update Time: 0 hrs : 2 min : 5 sec        [Per iteration: 0 hrs : 0 min : 1.791 sec]        [Device: GPU]</text>
<text x="50" y="170" font-family="Arial" font-size="12" fill="black">Episode Count: 226</text>
<text x="50" y="190" font-family="Arial" font-size="12" fill="black">Inference Steps: 129024</text>
<text x="50" y="210" font-family="Arial" font-size="12" fill="black">Iterations: 63</text>
<text x="50" y="230" font-family="Arial" font-size="12" fill="black">Parallel Agents: 1</text>
<text x="50" y="250" font-family="Arial" font-size="12" fill="black">Timescale: 15.45483</text>
<text x="50" y="270" font-family="Arial" font-size="12" fill="black">Trainer: PPO</text>
<text x="10" y="320" font-family="Arial" font-size="16" fill="black">[Hyperparameters]</text>
<text x="50" y="340" font-family="Arial" font-size="12" fill="black">Buffer Size: 2048        [Batch Size: 128       (x16)]</text>
<text x="50" y="360" font-family="Arial" font-size="12" fill="black">Num Epoch: 8</text>
<text x="50" y="380" font-family="Arial" font-size="12" fill="black">Time Horizon: 256</text>
<text x="50" y="400" font-family="Arial" font-size="12" fill="black">Gradient Cliping by Norm: 0.5</text>
<text x="50" y="420" font-family="Arial" font-size="12" fill="black">Learning Rate Schedule: False    </text>
<text x="10" y="470" font-family="Arial" font-size="16" fill="black">[Behaviour]</text>
<text x="50" y="490" font-family="Arial" font-size="12" fill="black">Space Size: 10</text>
<text x="50" y="510" font-family="Arial" font-size="12" fill="black">Continuous Actions: 2 [Standard Deviation: Trainable]     </text>
<text x="50" y="530" font-family="Arial" font-size="12" fill="black">Discrete Actions: 0</text>
<text x="50" y="550" font-family="Arial" font-size="12" fill="black">TargetFPS: 50 (physics update rate)</text>
<text x="50" y="570" font-family="Arial" font-size="12" fill="black">Observations Normalization: False</text>
<text x="10" y="620" font-family="Arial" font-size="16" fill="black">[Decision Requester]</text>
<text x="50" y="640" font-family="Arial" font-size="12" fill="black">Max Step: 10000</text>
<text x="50" y="660" font-family="Arial" font-size="12" fill="black">Decision Period: 1</text>
<text x="10" y="710" font-family="Arial" font-size="16" fill="black">[Graphs]</text>
<text x="50" y="730" font-family="Arial" font-size="12" fill="black">Episode Reward (226)</text>
<text x="50" y="745" font-family="Arial" font-size="10" fill="black">249.9757</text>
<text x="50" y="960" font-family="Arial" font-size="10" fill="black">2.074999</text>
<path d="M50,949.8588 L51.5625,949.6571 L53.125,949.2739 L54.6875,949.4151 L56.25,949.8185 L57.8125,949.8185 L59.375,949.7177 L60.9375,950 L62.5,949.6773 L64.0625,949.4352 L65.625,949.1125 L67.1875,949.6571 L68.75,949.5764 L70.3125,948.9915 L71.875,949.5764 L73.4375,948.9714 L75,949.7781 L76.5625,949.7983 L78.125,948.7899 L79.6875,949.1932 L81.25,949.3142 L82.8125,949.0923 L84.375,949.8185 L85.9375,948.2856 L87.5,949.8185 L89.0625,949.4958 L90.625,948.5074 L92.1875,949.2537 L93.75,949.6571 L95.3125,949.879 L96.875,949.6974 L98.4375,949.8992 L100,949.3748 L101.5625,949.0319 L103.125,949.637 L104.6875,949.0521 L106.25,949.1529 L107.8125,949.9799 L109.375,949.879 L110.9375,949.2941 L112.5,949.4352 L114.0625,949.7781 L115.625,949.0923 L117.1875,949.8386 L118.75,949.1529 L120.3125,949.5361 L121.875,949.2134 L123.4375,949.8992 L125,949.879 L126.5625,949.0521 L128.125,949.6168 L129.6875,949.4958 L131.25,948.9714 L132.8125,949.7177 L134.375,949.4352 L135.9375,948.8503 L137.5,948.9714 L139.0625,949.1932 L140.625,949.8588 L142.1875,948.9108 L143.75,948.6486 L145.3125,949.637 L146.875,949.4151 L148.4375,949.5563 L150,949.637 L151.5625,949.5361 L153.125,949.2739 L154.6875,949.2336 L156.25,949.2134 L157.8125,949.5966 L159.375,949.0722 L160.9375,949.7983 L162.5,949.0117 L164.0625,949.2336 L165.625,949.2336 L167.1875,949.4554 L168.75,948.8503 L170.3125,949.1932 L171.875,949.5563 L173.4375,949.637 L175,948.5276 L176.5625,948.6285 L178.125,948.8907 L179.6875,949.0117 L181.25,949.3142 L182.8125,949.3344 L184.375,949.173 L185.9375,948.7495 L187.5,949.4554 L189.0625,949.0722 L190.625,949.4554 L192.1875,948.6285 L193.75,949.5361 L195.3125,948.0032 L196.875,949.6974 L198.4375,948.7293 L200,949.2134 L201.5625,949.2537 L203.125,948.6486 L204.6875,949.1932 L206.25,949.0923 L207.8125,949.758 L209.375,948.8302 L210.9375,948.1444 L212.5,949.4958 L214.0625,949.0923 L215.625,948.1848 L217.1875,948.2654 L218.75,946.2485 L220.3125,949.1327 L221.875,949.2537 L223.4375,948.7495 L225,947.8621 L226.5625,949.3748 L228.125,947.6603 L229.6875,948.4268 L231.25,948.6083 L232.8125,949.4958 L234.375,948.1041 L235.9375,948.0839 L237.5,948.2452 L239.0625,948.6285 L240.625,948.4873 L242.1875,947.0552 L243.75,946.7729 L245.3125,947.7814 L246.875,947.9427 L248.4375,948.1646 L250,948.3663 L251.5625,946.3695 L253.125,948.2654 L254.6875,949.0319 L256.25,947.257 L257.8125,947.0351 L259.375,949.3546 L260.9375,947.5797 L262.5,948.1646 L264.0625,947.8217 L265.625,945.3005 L267.1875,947.8621 L268.75,947.9024 L270.3125,947.3174 L271.875,948.2452 L273.4375,946.8132 L275,946.1073 L276.5625,946.9343 L278.125,947.7208 L279.6875,946.9746 L281.25,948.4066 L282.8125,944.9778 L284.375,944.9375 L285.9375,948.9512 L287.5,946.7527 L289.0625,944.2517 L290.625,948.5276 L292.1875,947.2368 L293.75,946.4905 L295.3125,944.0702 L296.875,941.0852 L298.4375,946.7729 L300,947.0351 L301.5625,944.6753 L303.125,946.9343 L304.6875,943.0618 L306.25,947.1763 L307.8125,947.62 L309.375,942.9206 L310.9375,947.5595 L312.5,945.6837 L314.0625,938.08 L315.625,944.4534 L317.1875,946.1476 L318.75,944.3929 L320.3125,946.2485 L321.875,939.6532 L323.4375,944.5745 L325,936.1841 L326.5625,942.7592 L328.125,944.05 L329.6875,936.6278 L331.25,943.2029 L332.8125,945.4215 L334.375,946.2888 L335.9375,943.1827 L337.5,944.0097 L339.0625,946.7325 L340.625,941.186 L342.1875,942.4163 L343.75,938.1204 L345.3125,928.6005 L346.875,946.9544 L348.4375,937.8783 L350,945.6232 L351.5625,940.0767 L353.125,942.376 L354.6875,943.9694 L356.25,937.3136 L357.8125,939.6532 L359.375,937.5153 L360.9375,945.0787 L362.5,946.8737 L364.0625,936.4261 L365.625,945.8047 L367.1875,935.3168 L368.75,943.3038 L370.3125,907.3409 L371.875,938.1808 L373.4375,924.0018 L375,938.8666 L376.5625,929.0846 L378.125,924.6271 L379.6875,925.8374 L381.25,916.6194 L382.8125,750 L384.375,774.0764 L385.9375,750 L387.5,885.2743 L389.0625,938.7053 L390.625,937.7573 L392.1875,946.5914 L393.75,912.4643 L395.3125,750 L396.875,750 L398.4375,799.5037 L400,947.4385 L401.5625,750 " stroke="blue" fill="none" />
<text x="50" y="1000" font-family="Arial" font-size="12" fill="black">Episode Length (226)</text>
<text x="50" y="1015" font-family="Arial" font-size="10" fill="black">10000</text>
<text x="50" y="1230" font-family="Arial" font-size="10" fill="black">84</text>
<path d="M50,1219.879 L51.5625,1219.657 L53.125,1219.274 L54.6875,1219.415 L56.25,1219.818 L57.8125,1219.818 L59.375,1219.718 L60.9375,1220 L62.5,1219.677 L64.0625,1219.435 L65.625,1219.113 L67.1875,1219.657 L68.75,1219.576 L70.3125,1218.992 L71.875,1219.576 L73.4375,1218.971 L75,1219.778 L76.5625,1219.798 L78.125,1218.79 L79.6875,1219.193 L81.25,1219.314 L82.8125,1219.092 L84.375,1219.818 L85.9375,1218.286 L87.5,1219.818 L89.0625,1219.496 L90.625,1218.507 L92.1875,1219.254 L93.75,1219.657 L95.3125,1219.879 L96.875,1219.698 L98.4375,1219.899 L100,1219.375 L101.5625,1219.032 L103.125,1219.637 L104.6875,1219.052 L106.25,1219.153 L107.8125,1219.98 L109.375,1219.879 L110.9375,1219.294 L112.5,1219.435 L114.0625,1219.778 L115.625,1219.092 L117.1875,1219.839 L118.75,1219.153 L120.3125,1219.536 L121.875,1219.213 L123.4375,1219.899 L125,1219.879 L126.5625,1219.052 L128.125,1219.617 L129.6875,1219.496 L131.25,1218.971 L132.8125,1219.718 L134.375,1219.435 L135.9375,1218.85 L137.5,1218.971 L139.0625,1219.193 L140.625,1219.859 L142.1875,1218.911 L143.75,1218.649 L145.3125,1219.637 L146.875,1219.415 L148.4375,1219.556 L150,1219.637 L151.5625,1219.536 L153.125,1219.274 L154.6875,1219.234 L156.25,1219.213 L157.8125,1219.597 L159.375,1219.072 L160.9375,1219.798 L162.5,1219.012 L164.0625,1219.234 L165.625,1219.234 L167.1875,1219.455 L168.75,1218.85 L170.3125,1219.193 L171.875,1219.556 L173.4375,1219.637 L175,1218.528 L176.5625,1218.629 L178.125,1218.891 L179.6875,1219.012 L181.25,1219.314 L182.8125,1219.334 L184.375,1219.173 L185.9375,1218.75 L187.5,1219.455 L189.0625,1219.072 L190.625,1219.455 L192.1875,1218.629 L193.75,1219.536 L195.3125,1218.003 L196.875,1219.698 L198.4375,1218.729 L200,1219.213 L201.5625,1219.254 L203.125,1218.649 L204.6875,1219.193 L206.25,1219.092 L207.8125,1219.758 L209.375,1218.83 L210.9375,1218.144 L212.5,1219.496 L214.0625,1219.092 L215.625,1218.185 L217.1875,1218.265 L218.75,1216.249 L220.3125,1219.133 L221.875,1219.254 L223.4375,1218.75 L225,1217.862 L226.5625,1219.375 L228.125,1217.66 L229.6875,1218.427 L231.25,1218.608 L232.8125,1219.496 L234.375,1218.104 L235.9375,1218.084 L237.5,1218.245 L239.0625,1218.629 L240.625,1218.487 L242.1875,1217.055 L243.75,1216.773 L245.3125,1217.781 L246.875,1217.943 L248.4375,1218.165 L250,1218.366 L251.5625,1216.37 L253.125,1218.265 L254.6875,1219.032 L256.25,1217.257 L257.8125,1217.035 L259.375,1219.355 L260.9375,1217.58 L262.5,1218.165 L264.0625,1217.822 L265.625,1215.301 L267.1875,1217.862 L268.75,1217.902 L270.3125,1217.318 L271.875,1218.245 L273.4375,1216.813 L275,1216.107 L276.5625,1216.934 L278.125,1217.721 L279.6875,1216.975 L281.25,1218.407 L282.8125,1214.978 L284.375,1214.938 L285.9375,1218.951 L287.5,1216.753 L289.0625,1214.252 L290.625,1218.528 L292.1875,1217.237 L293.75,1216.49 L295.3125,1214.07 L296.875,1211.085 L298.4375,1216.773 L300,1217.035 L301.5625,1214.675 L303.125,1216.934 L304.6875,1213.062 L306.25,1217.176 L307.8125,1217.62 L309.375,1212.921 L310.9375,1217.559 L312.5,1215.684 L314.0625,1208.08 L315.625,1214.453 L317.1875,1216.148 L318.75,1214.393 L320.3125,1216.249 L321.875,1209.653 L323.4375,1214.574 L325,1206.184 L326.5625,1212.759 L328.125,1214.05 L329.6875,1206.628 L331.25,1213.203 L332.8125,1215.422 L334.375,1216.289 L335.9375,1213.183 L337.5,1214.01 L339.0625,1216.733 L340.625,1211.186 L342.1875,1212.416 L343.75,1208.12 L345.3125,1198.6 L346.875,1216.954 L348.4375,1207.878 L350,1215.623 L351.5625,1210.077 L353.125,1212.376 L354.6875,1213.969 L356.25,1207.313 L357.8125,1209.653 L359.375,1207.515 L360.9375,1215.079 L362.5,1216.874 L364.0625,1206.426 L365.625,1215.805 L367.1875,1205.317 L368.75,1213.304 L370.3125,1177.342 L371.875,1208.181 L373.4375,1194.002 L375,1208.866 L376.5625,1199.084 L378.125,1194.627 L379.6875,1195.837 L381.25,1186.62 L382.8125,1020 L384.375,1044.062 L385.9375,1020 L387.5,1155.276 L389.0625,1208.705 L390.625,1207.757 L392.1875,1216.591 L393.75,1182.465 L395.3125,1020 L396.875,1020 L398.4375,1069.496 L400,1217.438 L401.5625,1020 " stroke="blue" fill="none" />
<text x="50" y="1270" font-family="Arial" font-size="12" fill="black">Policy Loss</text>
<text x="50" y="1285" font-family="Arial" font-size="10" fill="black">0.8870845</text>
<text x="50" y="1500" font-family="Arial" font-size="10" fill="black">0.2998874</text>
<path d="M50,1315.209 L56.25,1290 L62.5,1300.908 L68.75,1315.301 L75,1314.406 L81.25,1327.735 L87.5,1326.739 L93.75,1322.166 L100,1323.734 L106.25,1320.497 L112.5,1332.124 L118.75,1339.12 L125,1347.845 L131.25,1335.636 L137.5,1354.99 L143.75,1352.889 L150,1353.649 L156.25,1348.248 L162.5,1360.575 L168.75,1358.989 L175,1360.743 L181.25,1371.497 L187.5,1357.22 L193.75,1389.149 L200,1367.368 L206.25,1408.177 L212.5,1396.18 L218.75,1340.544 L225,1339.858 L231.25,1327.668 L237.5,1333.557 L243.75,1484.796 L250,1313.755 L256.25,1325.139 L262.5,1348.83 L268.75,1443.583 L275,1337.964 L281.25,1348.105 L287.5,1338.571 L293.75,1386.88 L300,1473.96 L306.25,1320.08 L312.5,1378.205 L318.75,1394.521 L325,1330.948 L331.25,1311.951 L337.5,1350.729 L343.75,1340.653 L350,1482.889 L356.25,1343.697 L362.5,1317.658 L368.75,1322.486 L375,1347.514 L381.25,1490 L387.5,1333.363 L393.75,1325.893 L400,1370.439 L406.25,1425.156 L412.5,1381.613 L418.75,1370.037 L425,1342.677 L431.25,1352.696 L437.5,1486.759 " stroke="blue" fill="none" />
<text x="50" y="1540" font-family="Arial" font-size="12" fill="black">Value Loss</text>
<text x="50" y="1555" font-family="Arial" font-size="10" fill="black">0.03014778</text>
<text x="50" y="1770" font-family="Arial" font-size="10" fill="black">1.784167E-05</text>
<path d="M50,1623.495 L56.25,1712.73 L62.5,1732.608 L68.75,1733.943 L75,1737.45 L81.25,1721.356 L87.5,1712.934 L93.75,1728.625 L100,1709.174 L106.25,1713.524 L112.5,1690.082 L118.75,1703.461 L125,1709.36 L131.25,1677.649 L137.5,1686.524 L143.75,1676.754 L150,1693.236 L156.25,1687.13 L162.5,1705.548 L168.75,1696.846 L175,1689.08 L181.25,1705.794 L187.5,1696.869 L193.75,1716.265 L200,1722.037 L206.25,1716.69 L212.5,1747.493 L218.75,1748.694 L225,1756.138 L231.25,1755.738 L237.5,1758.861 L243.75,1587.344 L250,1753.159 L256.25,1755.189 L262.5,1758.514 L268.75,1727.605 L275,1758.8 L281.25,1759.454 L287.5,1759.347 L293.75,1758.971 L300,1560 L306.25,1756.011 L312.5,1672.533 L318.75,1721.796 L325,1756.304 L331.25,1759.206 L337.5,1759.667 L343.75,1759.973 L350,1560.146 L356.25,1757.419 L362.5,1759.837 L368.75,1759.978 L375,1760 L381.25,1560.824 L387.5,1758.158 L393.75,1759.916 L400,1759.195 L406.25,1725.692 L412.5,1757.265 L418.75,1758.614 L425,1759.806 L431.25,1759.448 L437.5,1560.29 " stroke="blue" fill="none" />
<text x="50" y="1810" font-family="Arial" font-size="12" fill="black">Learning Rate</text>
<text x="50" y="1825" font-family="Arial" font-size="10" fill="black">0.0003</text>
<text x="50" y="2040" font-family="Arial" font-size="10" fill="black">0.0003</text>
<path d="M50,2030 L56.25,2030 L62.5,2030 L68.75,2030 L75,2030 L81.25,2030 L87.5,2030 L93.75,2030 L100,2030 L106.25,2030 L112.5,2030 L118.75,2030 L125,2030 L131.25,2030 L137.5,2030 L143.75,2030 L150,2030 L156.25,2030 L162.5,2030 L168.75,2030 L175,2030 L181.25,2030 L187.5,2030 L193.75,2030 L200,2030 L206.25,2030 L212.5,2030 L218.75,2030 L225,2030 L231.25,2030 L237.5,2030 L243.75,2030 L250,2030 L256.25,2030 L262.5,2030 L268.75,2030 L275,2030 L281.25,2030 L287.5,2030 L293.75,2030 L300,2030 L306.25,2030 L312.5,2030 L318.75,2030 L325,2030 L331.25,2030 L337.5,2030 L343.75,2030 L350,2030 L356.25,2030 L362.5,2030 L368.75,2030 L375,2030 L381.25,2030 L387.5,2030 L393.75,2030 L400,2030 L406.25,2030 L412.5,2030 L418.75,2030 L425,2030 L431.25,2030 L437.5,2030 " stroke="blue" fill="none" />
<text x="50" y="2080" font-family="Arial" font-size="12" fill="black">Entropy</text>
<text x="50" y="2095" font-family="Arial" font-size="10" fill="black">3.125965</text>
<text x="50" y="2310" font-family="Arial" font-size="10" fill="black">1.034954</text>
<path d="M50,2140.739 L56.25,2116.984 L62.5,2100 L68.75,2119.15 L75,2122.642 L81.25,2149.923 L87.5,2161.625 L93.75,2184.679 L100,2183.988 L106.25,2185.413 L112.5,2175.281 L118.75,2187.65 L125,2173.809 L131.25,2202.623 L137.5,2199.62 L143.75,2188.732 L150,2232.439 L156.25,2213.3 L162.5,2236.119 L168.75,2231.288 L175,2201.644 L181.25,2227.618 L187.5,2215.062 L193.75,2236.933 L200,2229.909 L206.25,2246.683 L212.5,2237.83 L218.75,2240.888 L225,2251.867 L231.25,2241.926 L237.5,2256.607 L243.75,2263.702 L250,2263.352 L256.25,2257.94 L262.5,2271.768 L268.75,2235.802 L275,2275.328 L281.25,2276.425 L287.5,2282.468 L293.75,2282.65 L300,2263.37 L306.25,2278.25 L312.5,2158.576 L318.75,2210.179 L325,2246.285 L331.25,2292.363 L337.5,2272.528 L343.75,2291.502 L350,2250.579 L356.25,2266.715 L362.5,2293.196 L368.75,2300 L375,2294.703 L381.25,2281.411 L387.5,2289.125 L393.75,2282.279 L400,2255.498 L406.25,2210.611 L412.5,2246.527 L418.75,2227.034 L425,2246.071 L431.25,2232.003 L437.5,2219.964 " stroke="blue" fill="none" />
<text x="750" y="730" font-family="Arial" font-size="12" fill="black">Simplified</text>
<text x="750" y="745" font-family="Arial" font-size="10" fill="black">115.965</text>
<text x="750" y="960" font-family="Arial" font-size="10" fill="black">2.667106</text>
<path d="M778.125,950 L807.8125,949.6794 L837.5,949.791 L867.1875,949.6075 L896.875,949.0546 L926.5625,948.3416 L956.25,946.7552 L985.9375,945.1037 L1015.625,940.7255 L1045.313,933.7481 L1075,926.0042 L1101.563,750 " stroke="blue" fill="none" />
<text x="750" y="1000" font-family="Arial" font-size="12" fill="black">Simplified</text>
<text x="750" y="1015" font-family="Arial" font-size="10" fill="black">4639.647</text>
<text x="750" y="1230" font-family="Arial" font-size="10" fill="black">107.6316</text>
<path d="M778.125,1220 L807.8125,1219.677 L837.5,1219.789 L867.1875,1219.605 L896.875,1219.052 L926.5625,1218.339 L956.25,1216.753 L985.9375,1215.102 L1015.625,1210.723 L1045.313,1203.746 L1075,1196.002 L1101.563,1020 " stroke="blue" fill="none" />
</svg>
