<svg width="2000" height="2500" xmlns="http://www.w3.org/2000/svg">
<text x="10" y="20" font-family="Arial" font-size="26" fill="black"> [HumanStandup] Training Session</text>
<text x="10" y="50" font-family="Arial" font-size="16" fill="black">[Statistics]</text>
<text x="50" y="70" font-family="Arial" font-size="12" fill="black">Started at: 3:29:14 PM, Wednesday, December 13, 2023</text>
<text x="50" y="90" font-family="Arial" font-size="12" fill="black">Finished at: 3:29:21 PM, Wednesday, December 13, 2023</text>
<text x="50" y="110" font-family="Arial" font-size="12" fill="black">Training Session Time: 0 hrs : 0 min : 7 sec</text>
<text x="50" y="130" font-family="Arial" font-size="12" fill="black">Inference Time: 0 hrs : 0 min : 31 sec       [Per agent: 0 hrs : 0 min : 31 sec]        [Device: CPU]</text>
<text x="50" y="150" font-family="Arial" font-size="12" fill="black">Policy Update Time: 0 hrs : 0 min : 4 sec        [Per iteration: 0 hrs : 0 min : 3 sec]        [Device: GPU]</text>
<text x="50" y="170" font-family="Arial" font-size="12" fill="black">Inference Time / Training Session Time: 3.187</text>
<text x="50" y="190" font-family="Arial" font-size="12" fill="black">Policy Update Time / Training Session Time: 0.557</text>
<text x="50" y="210" font-family="Arial" font-size="12" fill="black">Episode Count: 1</text>
<text x="50" y="230" font-family="Arial" font-size="12" fill="black">Inference Steps: 1538    [Per agent: 1538]     [Per Episode (mean): 1538]</text>
<text x="50" y="250" font-family="Arial" font-size="12" fill="black">Iterations: 1</text>
<text x="50" y="270" font-family="Arial" font-size="12" fill="black">Parallel Agents: 1</text>
<text x="50" y="290" font-family="Arial" font-size="12" fill="black">Timescale: 12</text>
<text x="50" y="310" font-family="Arial" font-size="12" fill="black">Trainer: PPO</text>
<text x="10" y="360" font-family="Arial" font-size="16" fill="black">[Hyperparameters]</text>
<text x="50" y="380" font-family="Arial" font-size="12" fill="black">Buffer Size: 1024        [Batch Size: 64       (x16)]</text>
<text x="50" y="400" font-family="Arial" font-size="12" fill="black">Num Epoch: 8</text>
<text x="50" y="420" font-family="Arial" font-size="12" fill="black">Time Horizon: 64</text>
<text x="50" y="440" font-family="Arial" font-size="12" fill="black">Gradient Cliping Normalization: 0.5</text>
<text x="50" y="460" font-family="Arial" font-size="12" fill="black">Learning Rate Schedule: False    </text>
<text x="10" y="510" font-family="Arial" font-size="16" fill="black">[Behaviour]</text>
<text x="50" y="530" font-family="Arial" font-size="12" fill="black">Space Size: 138</text>
<text x="50" y="550" font-family="Arial" font-size="12" fill="black">Continuous Actions: 44 [Standard Deviation: Fixed]     [Value: 1.25]</text>
<text x="50" y="570" font-family="Arial" font-size="12" fill="black">Discrete Actions: 0</text>
<text x="50" y="590" font-family="Arial" font-size="12" fill="black">TargetFPS: 100 (physics update rate)</text>
<text x="50" y="610" font-family="Arial" font-size="12" fill="black">Observations Normalization: True</text>
<text x="10" y="660" font-family="Arial" font-size="16" fill="black">[Decision Requester]</text>
<text x="50" y="680" font-family="Arial" font-size="12" fill="black">Max Step: 1000</text>
<text x="50" y="700" font-family="Arial" font-size="12" fill="black">Decision Period: 2      [Actions Between Decisions: True]</text>
<text x="10" y="750" font-family="Arial" font-size="16" fill="black">[Graphs]</text>
<text x="50" y="770" font-family="Arial" font-size="12" fill="black">Episode Reward (1)</text>
<text x="50" y="785" font-family="Arial" font-size="10" fill="black">-25.85535</text>
<text x="50" y="1000" font-family="Arial" font-size="10" fill="black">-25.85535</text>
<path d="M50,990 " stroke="blue" fill="none" />
<text x="50" y="1040" font-family="Arial" font-size="12" fill="black">Episode Length (1)</text>
<text x="50" y="1055" font-family="Arial" font-size="10" fill="black">1000</text>
<text x="50" y="1270" font-family="Arial" font-size="10" fill="black">1000</text>
<path d="M50,1260 " stroke="blue" fill="none" />
<text x="50" y="1310" font-family="Arial" font-size="12" fill="black">Policy Loss</text>
<text x="50" y="1325" font-family="Arial" font-size="10" fill="black">0.05865601</text>
<text x="50" y="1540" font-family="Arial" font-size="10" fill="black">0.01888612</text>
<path d="M50,1330 L75,1512.564 L100,1529.101 L125,1468.224 L150,1512.422 L175,1530 L200,1525.649 L225,1506.997 " stroke="blue" fill="none" />
<text x="50" y="1580" font-family="Arial" font-size="12" fill="black">Value Loss</text>
<text x="50" y="1595" font-family="Arial" font-size="10" fill="black">0.02724049</text>
<text x="50" y="1810" font-family="Arial" font-size="10" fill="black">0.004483815</text>
<path d="M50,1600 L75,1680.789 L100,1719.292 L125,1745.152 L150,1762.875 L175,1777.916 L200,1791.026 L225,1800 " stroke="blue" fill="none" />
<text x="50" y="1850" font-family="Arial" font-size="12" fill="black">Learning Rate</text>
<text x="50" y="1865" font-family="Arial" font-size="10" fill="black">0.0003</text>
<text x="50" y="2080" font-family="Arial" font-size="10" fill="black">0.0003</text>
<path d="M50,2070 L75,2070 L100,2070 L125,2070 L150,2070 L175,2070 L200,2070 L225,2070 " stroke="blue" fill="none" />
<text x="50" y="2120" font-family="Arial" font-size="12" fill="black">Entropy</text>
<text x="50" y="2135" font-family="Arial" font-size="10" fill="black">0.4105206</text>
<text x="50" y="2350" font-family="Arial" font-size="10" fill="black">0.4105206</text>
<path d="M50,2340 L75,2340 L100,2340 L125,2340 L150,2340 L175,2340 L200,2340 L225,2340 " stroke="blue" fill="none" />
<text x="750" y="770" font-family="Arial" font-size="12" fill="black">Simplified</text>
<text x="750" y="785" font-family="Arial" font-size="10" fill="black">-25.85535</text>
<text x="750" y="1000" font-family="Arial" font-size="10" fill="black">-25.85535</text>
<path d="M750,990 " stroke="blue" fill="none" />
<text x="750" y="1040" font-family="Arial" font-size="12" fill="black">Simplified</text>
<text x="750" y="1055" font-family="Arial" font-size="10" fill="black">1000</text>
<text x="750" y="1270" font-family="Arial" font-size="10" fill="black">1000</text>
<path d="M750,1260 " stroke="blue" fill="none" />
</svg>
