<svg width="2000" height="2500" xmlns="http://www.w3.org/2000/svg">
<text x="10" y="20" font-family="Arial" font-size="26" fill="black"> [<tspan font-weight="bold" fill="blue">BalanceBall</tspan>] Training Session</text>
<text x="10" y="50" font-family="Arial" font-size="16" fill="black">[Statistics]</text>
<text x="50" y="70" font-family="Arial" font-size="12" fill="black">Started at: 3:34:17 PM, Sunday, March 31, 2024</text>
<text x="50" y="90" font-family="Arial" font-size="12" fill="black">Finished at: 3:55:16 PM, Sunday, March 31, 2024</text>
<text x="50" y="110" font-family="Arial" font-size="12" fill="black">Training Session Time: 0 hrs : 20 min : 54 sec</text>
<text x="50" y="130" font-family="Arial" font-size="12" fill="black">Inference Time: 0 hrs : 28 min : 47 sec        [Device: CPU]</text>
<text x="50" y="150" font-family="Arial" font-size="12" fill="black">Update Time: 0 hrs : 17 min : 23 sec        [Per iteration: 0 hrs : 0 min : 26.276 sec]        [Device: GPU]</text>
<text x="50" y="170" font-family="Arial" font-size="12" fill="black">Episode Count: 225</text>
<text x="50" y="190" font-family="Arial" font-size="12" fill="black">Inference Steps: 85920</text>
<text x="50" y="210" font-family="Arial" font-size="12" fill="black">Iterations: 41</text>
<text x="50" y="230" font-family="Arial" font-size="12" fill="black">Parallel Agents: 1</text>
<text x="50" y="250" font-family="Arial" font-size="12" fill="black">Timescale: 19.47</text>
<text x="50" y="270" font-family="Arial" font-size="12" fill="black">Trainer: PPO</text>
<text x="10" y="320" font-family="Arial" font-size="16" fill="black">[Hyperparameters]</text>
<text x="50" y="340" font-family="Arial" font-size="12" fill="black">Buffer Size: 2048        [Batch Size: 128       (x16)]</text>
<text x="50" y="360" font-family="Arial" font-size="12" fill="black">Num Epoch: 8</text>
<text x="50" y="380" font-family="Arial" font-size="12" fill="black">Time Horizon: 256</text>
<text x="50" y="400" font-family="Arial" font-size="12" fill="black">Gradient Cliping by Norm: 0.5</text>
<text x="50" y="420" font-family="Arial" font-size="12" fill="black">Learning Rate Schedule: False    </text>
<text x="10" y="470" font-family="Arial" font-size="16" fill="black">[Behaviour]</text>
<text x="50" y="490" font-family="Arial" font-size="12" fill="black">Space Size: 10</text>
<text x="50" y="510" font-family="Arial" font-size="12" fill="black">Continuous Actions: 2 [Standard Deviation: Fixed]     [Value: 1.97]</text>
<text x="50" y="530" font-family="Arial" font-size="12" fill="black">Discrete Actions: 0</text>
<text x="50" y="550" font-family="Arial" font-size="12" fill="black">TargetFPS: 50 (physics update rate)</text>
<text x="50" y="570" font-family="Arial" font-size="12" fill="black">Observations Normalization: True</text>
<text x="10" y="620" font-family="Arial" font-size="16" fill="black">[Decision Requester]</text>
<text x="50" y="640" font-family="Arial" font-size="12" fill="black">Max Step: 10000</text>
<text x="50" y="660" font-family="Arial" font-size="12" fill="black">Decision Period: 1</text>
<text x="10" y="710" font-family="Arial" font-size="16" fill="black">[Graphs]</text>
<text x="50" y="730" font-family="Arial" font-size="12" fill="black">Episode Reward (225)</text>
<text x="50" y="745" font-family="Arial" font-size="10" fill="black">135.7036</text>
<text x="50" y="960" font-family="Arial" font-size="10" fill="black">2.35</text>
<path d="M50,946.5505 L51.5625,949.5876 L53.125,948.6127 L54.6875,948.2003 L56.25,949.7001 L57.8125,949.7375 L59.375,948.4252 L60.9375,949.6625 L62.5,949.4001 L64.0625,949.2126 L65.625,949.775 L67.1875,949.4376 L68.75,948.7252 L70.3125,949.4751 L71.875,948.0878 L73.4375,949.3626 L75,947.3379 L76.5625,948.5752 L78.125,947.9003 L79.6875,949.5126 L81.25,949.2126 L82.8125,948.9127 L84.375,947.7503 L85.9375,948.1628 L87.5,947.038 L89.0625,949.2126 L90.625,948.5377 L92.1875,949.0626 L93.75,949.85 L95.3125,948.2377 L96.875,948.0503 L98.4375,948.8752 L100,948.6502 L101.5625,949.5126 L103.125,949.2126 L104.6875,948.4627 L106.25,949.1376 L107.8125,947.9003 L109.375,949.0626 L110.9375,948.3878 L112.5,947.5629 L114.0625,949.6251 L115.625,949.3251 L117.1875,949.85 L118.75,948.8752 L120.3125,949.1751 L121.875,948.9501 L123.4375,947.1129 L125,948.9127 L126.5625,949.55 L128.125,948.2753 L129.6875,949.55 L131.25,948.4627 L132.8125,949.2126 L134.375,949.4751 L135.9375,948.9127 L137.5,948.9501 L139.0625,949.6251 L140.625,949.0251 L142.1875,948.1628 L143.75,947.5629 L145.3125,948.6877 L146.875,949.3626 L148.4375,949.0626 L150,949.1002 L151.5625,950 L153.125,948.1628 L154.6875,949.6625 L156.25,948.5752 L157.8125,949.4376 L159.375,948.9877 L160.9375,948.6502 L162.5,949.1002 L164.0625,948.2377 L165.625,948.6877 L167.1875,949.0251 L168.75,949.1751 L170.3125,946.6255 L171.875,948.8002 L173.4375,949.4376 L175,947.7128 L176.5625,948.3127 L178.125,948.3127 L179.6875,947.7878 L181.25,948.8752 L182.8125,948.1253 L184.375,949.55 L185.9375,949.5126 L187.5,949.3251 L189.0625,947.7878 L190.625,949.7375 L192.1875,949.5876 L193.75,947.038 L195.3125,944.5258 L196.875,948.2003 L198.4375,945.0132 L200,947.6003 L201.5625,948.9501 L203.125,949.0626 L204.6875,949.3626 L206.25,948.4627 L207.8125,947.1505 L209.375,948.9127 L210.9375,949.0626 L212.5,948.0503 L214.0625,947.9003 L215.625,949.8125 L217.1875,947.4129 L218.75,949.3626 L220.3125,943.7759 L221.875,947.5254 L223.4375,949.2126 L225,946.1381 L226.5625,947.6754 L228.125,948.3502 L229.6875,949.0626 L231.25,948.1253 L232.8125,945.9131 L234.375,946.2131 L235.9375,948.5002 L237.5,948.8752 L239.0625,948.6127 L240.625,947.9003 L242.1875,944.6758 L243.75,948.2753 L245.3125,947.7503 L246.875,945.8756 L248.4375,947.5629 L250,943.176 L251.5625,946.6255 L253.125,947.9378 L254.6875,948.7627 L256.25,946.813 L257.8125,949.2126 L259.375,946.813 L260.9375,945.6132 L262.5,938.0018 L264.0625,939.5391 L265.625,947.9003 L267.1875,946.7755 L268.75,947.3004 L270.3125,948.0878 L271.875,944.8633 L273.4375,947.0754 L275,947.2629 L276.5625,947.4129 L278.125,944.6758 L279.6875,942.2386 L281.25,941.6013 L282.8125,945.6506 L284.375,945.2007 L285.9375,945.6506 L287.5,946.438 L289.0625,941.3763 L290.625,945.3132 L292.1875,935.6772 L293.75,943.9634 L295.3125,944.2634 L296.875,943.176 L298.4375,945.0507 L300,932.9402 L301.5625,946.288 L303.125,932.8277 L304.6875,940.3265 L306.25,944.0384 L307.8125,943.1385 L309.375,942.3137 L310.9375,943.326 L312.5,943.8509 L314.0625,936.9146 L315.625,941.6762 L317.1875,939.6516 L318.75,947.3379 L320.3125,923.7917 L321.875,940.8139 L323.4375,940.8889 L325,927.5036 L326.5625,931.5154 L328.125,944.0384 L329.6875,941.4888 L331.25,924.5416 L332.8125,941.3763 L334.375,935.8647 L335.9375,935.1898 L337.5,932.9402 L339.0625,936.3896 L340.625,929.1158 L342.1875,933.6526 L343.75,936.2772 L345.3125,928.3285 L346.875,925.5164 L348.4375,924.8041 L350,934.5524 L351.5625,920.9797 L353.125,925.9289 L354.6875,924.0917 L356.25,936.7271 L357.8125,934.8899 L359.375,923.2668 L360.9375,917.8677 L362.5,928.5159 L364.0625,920.0424 L365.625,933.3151 L367.1875,920.9797 L368.75,926.1538 L370.3125,868.5981 L371.875,941.9762 L373.4375,867.4358 L375,841.4882 L376.5625,899.1579 L378.125,909.3192 L379.6875,839.0884 L381.25,917.4928 L382.8125,911.0439 L384.375,882.0219 L385.9375,865.7859 L387.5,907.182 L389.0625,926.8287 L390.625,917.4928 L392.1875,750 L393.75,938.9767 L395.3125,920.7922 L396.875,850.5998 L398.4375,909.2067 L400,804.0291 " stroke="blue" fill="none" />
<text x="50" y="1000" font-family="Arial" font-size="12" fill="black">Episode Length (225)</text>
<text x="50" y="1015" font-family="Arial" font-size="10" fill="black">5429</text>
<text x="50" y="1230" font-family="Arial" font-size="10" fill="black">95</text>
<path d="M50,1216.588 L51.5625,1219.588 L53.125,1218.613 L54.6875,1218.2 L56.25,1219.7 L57.8125,1219.738 L59.375,1218.425 L60.9375,1219.663 L62.5,1219.4 L64.0625,1219.213 L65.625,1219.775 L67.1875,1219.438 L68.75,1218.725 L70.3125,1219.475 L71.875,1218.088 L73.4375,1219.363 L75,1217.338 L76.5625,1218.575 L78.125,1217.9 L79.6875,1219.513 L81.25,1219.213 L82.8125,1218.913 L84.375,1217.75 L85.9375,1218.163 L87.5,1217.038 L89.0625,1219.213 L90.625,1218.538 L92.1875,1219.063 L93.75,1219.85 L95.3125,1218.238 L96.875,1218.05 L98.4375,1218.875 L100,1218.65 L101.5625,1219.513 L103.125,1219.213 L104.6875,1218.463 L106.25,1219.138 L107.8125,1217.9 L109.375,1219.063 L110.9375,1218.388 L112.5,1217.563 L114.0625,1219.625 L115.625,1219.325 L117.1875,1219.85 L118.75,1218.875 L120.3125,1219.175 L121.875,1218.95 L123.4375,1217.113 L125,1218.913 L126.5625,1219.55 L128.125,1218.275 L129.6875,1219.55 L131.25,1218.463 L132.8125,1219.213 L134.375,1219.475 L135.9375,1218.913 L137.5,1218.95 L139.0625,1219.625 L140.625,1219.025 L142.1875,1218.163 L143.75,1217.563 L145.3125,1218.688 L146.875,1219.363 L148.4375,1219.063 L150,1219.1 L151.5625,1220 L153.125,1218.163 L154.6875,1219.663 L156.25,1218.575 L157.8125,1219.438 L159.375,1218.988 L160.9375,1218.65 L162.5,1219.1 L164.0625,1218.238 L165.625,1218.688 L167.1875,1219.025 L168.75,1219.175 L170.3125,1216.625 L171.875,1218.8 L173.4375,1219.438 L175,1217.713 L176.5625,1218.313 L178.125,1218.313 L179.6875,1217.788 L181.25,1218.875 L182.8125,1218.125 L184.375,1219.55 L185.9375,1219.513 L187.5,1219.325 L189.0625,1217.788 L190.625,1219.738 L192.1875,1219.588 L193.75,1217.038 L195.3125,1214.526 L196.875,1218.2 L198.4375,1215.013 L200,1217.6 L201.5625,1218.95 L203.125,1219.063 L204.6875,1219.363 L206.25,1218.463 L207.8125,1217.15 L209.375,1218.913 L210.9375,1219.063 L212.5,1218.05 L214.0625,1217.9 L215.625,1219.813 L217.1875,1217.413 L218.75,1219.363 L220.3125,1213.776 L221.875,1217.525 L223.4375,1219.213 L225,1216.138 L226.5625,1217.675 L228.125,1218.35 L229.6875,1219.063 L231.25,1218.125 L232.8125,1215.913 L234.375,1216.213 L235.9375,1218.5 L237.5,1218.875 L239.0625,1218.613 L240.625,1217.9 L242.1875,1214.676 L243.75,1218.275 L245.3125,1217.75 L246.875,1215.875 L248.4375,1217.563 L250,1213.176 L251.5625,1216.625 L253.125,1217.938 L254.6875,1218.763 L256.25,1216.813 L257.8125,1219.213 L259.375,1216.813 L260.9375,1215.613 L262.5,1208.001 L264.0625,1209.539 L265.625,1217.9 L267.1875,1216.775 L268.75,1217.3 L270.3125,1218.088 L271.875,1214.863 L273.4375,1217.075 L275,1217.263 L276.5625,1217.413 L278.125,1214.676 L279.6875,1212.239 L281.25,1211.601 L282.8125,1215.651 L284.375,1215.201 L285.9375,1215.651 L287.5,1216.438 L289.0625,1211.376 L290.625,1215.313 L292.1875,1205.677 L293.75,1213.963 L295.3125,1214.263 L296.875,1213.176 L298.4375,1215.051 L300,1202.94 L301.5625,1216.288 L303.125,1202.827 L304.6875,1210.326 L306.25,1214.038 L307.8125,1213.138 L309.375,1212.313 L310.9375,1213.326 L312.5,1213.851 L314.0625,1206.914 L315.625,1211.676 L317.1875,1209.651 L318.75,1217.338 L320.3125,1193.791 L321.875,1210.814 L323.4375,1210.889 L325,1197.503 L326.5625,1201.515 L328.125,1214.038 L329.6875,1211.489 L331.25,1194.541 L332.8125,1211.376 L334.375,1205.864 L335.9375,1205.189 L337.5,1202.94 L339.0625,1206.389 L340.625,1199.115 L342.1875,1203.652 L343.75,1206.277 L345.3125,1198.328 L346.875,1195.516 L348.4375,1194.803 L350,1204.552 L351.5625,1190.979 L353.125,1195.928 L354.6875,1194.091 L356.25,1206.727 L357.8125,1204.889 L359.375,1193.266 L360.9375,1187.867 L362.5,1198.515 L364.0625,1190.041 L365.625,1203.315 L367.1875,1190.979 L368.75,1196.153 L370.3125,1138.598 L371.875,1211.976 L373.4375,1137.435 L375,1111.489 L376.5625,1169.156 L378.125,1179.318 L379.6875,1109.089 L381.25,1187.492 L382.8125,1181.042 L384.375,1152.021 L385.9375,1135.786 L387.5,1177.18 L389.0625,1196.828 L390.625,1187.492 L392.1875,1020 L393.75,1208.976 L395.3125,1190.791 L396.875,1120.6 L398.4375,1179.205 L400,1074.031 " stroke="blue" fill="none" />
<text x="50" y="1270" font-family="Arial" font-size="12" fill="black">Policy Loss</text>
<text x="50" y="1285" font-family="Arial" font-size="10" fill="black">0.8307862</text>
<text x="50" y="1500" font-family="Arial" font-size="10" fill="black">0.3719954</text>
<path d="M50,1322.898 L56.25,1295.208 L62.5,1290 L68.75,1302.94 L75,1298.859 L81.25,1326.497 L87.5,1314.676 L93.75,1316.274 L100,1345.83 L106.25,1348.333 L112.5,1335.772 L118.75,1341.472 L125,1352.088 L131.25,1369.368 L137.5,1391.184 L143.75,1384.065 L150,1377.959 L156.25,1387.357 L162.5,1392.006 L168.75,1375.334 L175,1407.408 L181.25,1414.48 L187.5,1403.043 L193.75,1390.202 L200,1330.304 L206.25,1432.898 L212.5,1414.721 L218.75,1417.738 L225,1343.785 L231.25,1434.59 L237.5,1490 L243.75,1484.72 L250,1428.147 L256.25,1425.533 L262.5,1331.626 L268.75,1322.953 L275,1450.833 L281.25,1472.972 L287.5,1447.731 L293.75,1447.498 L300,1458.114 " stroke="blue" fill="none" />
<text x="50" y="1540" font-family="Arial" font-size="12" fill="black">Value Loss</text>
<text x="50" y="1555" font-family="Arial" font-size="10" fill="black">0.01524274</text>
<text x="50" y="1770" font-family="Arial" font-size="10" fill="black">8.089832E-05</text>
<path d="M50,1560 L56.25,1682.987 L62.5,1692.41 L68.75,1711.182 L75,1725.52 L81.25,1699.071 L87.5,1683.754 L93.75,1670.596 L100,1683.522 L106.25,1684.987 L112.5,1678.274 L118.75,1714.686 L125,1696.865 L131.25,1690.927 L137.5,1687.282 L143.75,1686.289 L150,1647.555 L156.25,1695.26 L162.5,1719.267 L168.75,1719.673 L175,1721.284 L181.25,1710.287 L187.5,1726.222 L193.75,1719.186 L200,1752.1 L206.25,1747.605 L212.5,1716.114 L218.75,1735.463 L225,1756.142 L231.25,1739.548 L237.5,1737.462 L243.75,1738.631 L250,1738.709 L256.25,1725.009 L262.5,1758.419 L268.75,1760 L275,1728.385 L281.25,1749.612 L287.5,1742.807 L293.75,1752.407 L300,1734.12 " stroke="blue" fill="none" />
<text x="50" y="1810" font-family="Arial" font-size="12" fill="black">Learning Rate</text>
<text x="50" y="1825" font-family="Arial" font-size="10" fill="black">0.0003</text>
<text x="50" y="2040" font-family="Arial" font-size="10" fill="black">0.0003</text>
<path d="M50,2030 L56.25,2030 L62.5,2030 L68.75,2030 L75,2030 L81.25,2030 L87.5,2030 L93.75,2030 L100,2030 L106.25,2030 L112.5,2030 L118.75,2030 L125,2030 L131.25,2030 L137.5,2030 L143.75,2030 L150,2030 L156.25,2030 L162.5,2030 L168.75,2030 L175,2030 L181.25,2030 L187.5,2030 L193.75,2030 L200,2030 L206.25,2030 L212.5,2030 L218.75,2030 L225,2030 L231.25,2030 L237.5,2030 L243.75,2030 L250,2030 L256.25,2030 L262.5,2030 L268.75,2030 L275,2030 L281.25,2030 L287.5,2030 L293.75,2030 L300,2030 " stroke="blue" fill="none" />
<text x="50" y="2080" font-family="Arial" font-size="12" fill="black">Entropy</text>
<text x="50" y="2095" font-family="Arial" font-size="10" fill="black">1.985513</text>
<text x="50" y="2310" font-family="Arial" font-size="10" fill="black">1.970001</text>
<path d="M50,2300 L56.25,2101.563 L62.5,2100.012 L68.75,2100 L75,2100 L81.25,2100 L87.5,2100 L93.75,2100 L100,2100 L106.25,2100 L112.5,2100 L118.75,2100 L125,2100 L131.25,2100 L137.5,2100 L143.75,2100 L150,2100 L156.25,2100 L162.5,2100 L168.75,2100 L175,2100 L181.25,2100 L187.5,2100 L193.75,2100 L200,2100 L206.25,2100 L212.5,2100 L218.75,2100 L225,2100 L231.25,2100 L237.5,2100 L243.75,2100 L250,2100 L256.25,2100 L262.5,2100 L268.75,2100 L275,2100 L281.25,2100 L287.5,2100 L293.75,2100 L300,2100 " stroke="blue" fill="none" />
<text x="750" y="730" font-family="Arial" font-size="12" fill="black">Simplified</text>
<text x="750" y="745" font-family="Arial" font-size="10" fill="black">46.14759</text>
<text x="750" y="960" font-family="Arial" font-size="10" fill="black">3.07895</text>
<path d="M778.125,949.7617 L807.8125,949.3584 L837.5,950 L867.1875,949.9817 L896.875,948.2402 L926.5625,946.9388 L956.25,945.0751 L985.9375,938.8611 L1015.625,927.7833 L1045.313,907.8704 L1075,850.2504 L1100,750 " stroke="blue" fill="none" />
<text x="750" y="1000" font-family="Arial" font-size="12" fill="black">Simplified</text>
<text x="750" y="1015" font-family="Arial" font-size="10" fill="black">1846.875</text>
<text x="750" y="1230" font-family="Arial" font-size="10" fill="black">124.1579</text>
<path d="M778.125,1219.768 L807.8125,1219.358 L837.5,1220 L867.1875,1219.982 L896.875,1218.24 L926.5625,1216.939 L956.25,1215.075 L985.9375,1208.861 L1015.625,1197.783 L1045.313,1177.87 L1075,1120.249 L1100,1020 " stroke="blue" fill="none" />
</svg>
