<svg width="2000" height="2500" xmlns="http://www.w3.org/2000/svg">
<text x="10" y="20" font-family="Arial" font-size="26" fill="black"> [SurvivorScript] Training Session</text>
<text x="10" y="50" font-family="Arial" font-size="16" fill="black">[Statistics]</text>
<text x="50" y="70" font-family="Arial" font-size="12" fill="black">Started at: 3:37:29 PM, Sunday, January 21, 2024</text>
<text x="50" y="90" font-family="Arial" font-size="12" fill="black">Finished at: 4:07:03 PM, Sunday, January 21, 2024</text>
<text x="50" y="110" font-family="Arial" font-size="12" fill="black">Training Session Time: 0 hrs : 29 min : 27 sec</text>
<text x="50" y="130" font-family="Arial" font-size="12" fill="black">Inference Time: 4 hrs : 1 min : 38 sec        [Device: CPU]</text>
<text x="50" y="150" font-family="Arial" font-size="12" fill="black">Update Time: 0 hrs : 12 min : 38 sec        [Per iteration: 0 hrs : 0 min : 10.711 sec]        [Device: GPU]</text>
<text x="50" y="170" font-family="Arial" font-size="12" fill="black">Episode Count: 282</text>
<text x="50" y="190" font-family="Arial" font-size="12" fill="black">Inference Steps: 727040</text>
<text x="50" y="210" font-family="Arial" font-size="12" fill="black">Iterations: 71</text>
<text x="50" y="230" font-family="Arial" font-size="12" fill="black">Parallel Agents: 1</text>
<text x="50" y="250" font-family="Arial" font-size="12" fill="black">Timescale: 15.9</text>
<text x="50" y="270" font-family="Arial" font-size="12" fill="black">Trainer: PPO</text>
<text x="10" y="320" font-family="Arial" font-size="16" fill="black">[Hyperparameters]</text>
<text x="50" y="340" font-family="Arial" font-size="12" fill="black">Buffer Size: 10240        [Batch Size: 512       (x20)]</text>
<text x="50" y="360" font-family="Arial" font-size="12" fill="black">Num Epoch: 8</text>
<text x="50" y="380" font-family="Arial" font-size="12" fill="black">Time Horizon: 256</text>
<text x="50" y="400" font-family="Arial" font-size="12" fill="black">Gradient Cliping by Norm: 0.5</text>
<text x="50" y="420" font-family="Arial" font-size="12" fill="black">Learning Rate Schedule: False    </text>
<text x="10" y="470" font-family="Arial" font-size="16" fill="black">[Behaviour]</text>
<text x="50" y="490" font-family="Arial" font-size="12" fill="black">Space Size: 157</text>
<text x="50" y="510" font-family="Arial" font-size="12" fill="black">Continuous Actions: 0 [Standard Deviation: Trainable]     </text>
<text x="50" y="530" font-family="Arial" font-size="12" fill="black">Discrete Actions: 9</text>
<text x="50" y="550" font-family="Arial" font-size="12" fill="black">TargetFPS: 50 (physics update rate)</text>
<text x="50" y="570" font-family="Arial" font-size="12" fill="black">Observations Normalization: False</text>
<text x="10" y="620" font-family="Arial" font-size="16" fill="black">[Decision Requester]</text>
<text x="50" y="640" font-family="Arial" font-size="12" fill="black">Max Step: 0</text>
<text x="50" y="660" font-family="Arial" font-size="12" fill="black">Decision Period: 1</text>
<text x="10" y="710" font-family="Arial" font-size="16" fill="black">[Graphs]</text>
<text x="50" y="730" font-family="Arial" font-size="12" fill="black">Episode Reward (282)</text>
<text x="50" y="745" font-family="Arial" font-size="10" fill="black">70.31099</text>
<text x="50" y="960" font-family="Arial" font-size="10" fill="black">1.125002</text>
<path d="M50,940.9084 L51.5625,945.0639 L53.125,944.8326 L54.6875,944.4858 L56.25,943.0765 L57.8125,947.8463 L59.375,940.1423 L60.9375,946.8707 L62.5,948.3522 L64.0625,946.4154 L65.625,946.0685 L67.1875,949.5736 L68.75,947.868 L70.3125,943.7847 L71.875,946.372 L73.4375,943.6547 L75,947.644 L76.5625,947.9981 L78.125,947.7018 L79.6875,947.5573 L81.25,949.1038 L82.8125,939.2606 L84.375,941.7973 L85.9375,948.7642 L87.5,946.3431 L89.0625,944.2906 L90.625,947.5211 L92.1875,948.3233 L93.75,944.2689 L95.3125,934.4113 L96.875,945.9528 L98.4375,948.41 L100,932.3805 L101.5625,947.9403 L103.125,944.5291 L104.6875,943.5607 L106.25,944.8182 L107.8125,944.5724 L109.375,942.7874 L110.9375,943.9509 L112.5,947.6946 L114.0625,947.3115 L115.625,942.7729 L117.1875,904.9282 L118.75,941.1902 L120.3125,947.6512 L121.875,935.929 L123.4375,940.5181 L125,939.5135 L126.5625,932.9297 L128.125,921.5557 L129.6875,938.6391 L131.25,945.0712 L132.8125,946.1841 L134.375,948.7858 L135.9375,945.5482 L137.5,935.9578 L139.0625,947.6729 L140.625,942.6068 L142.1875,943.4017 L143.75,949.0605 L145.3125,946.1841 L146.875,946.9791 L148.4375,945.4253 L150,941.8623 L151.5625,944.4858 L153.125,937.2659 L154.6875,941.8479 L156.25,941.5588 L157.8125,946.8996 L159.375,942.3538 L160.9375,939.2462 L162.5,941.2552 L164.0625,913.9252 L165.625,947.4561 L167.1875,938.7981 L168.75,945.7505 L170.3125,945.129 L171.875,948.9087 L173.4375,948.728 L175,944.7604 L176.5625,949.6603 L178.125,945.0278 L179.6875,948.8798 L181.25,941.2119 L182.8125,946.6322 L184.375,949.1111 L185.9375,931.1591 L187.5,942.9464 L189.0625,942.4188 L190.625,930.328 L192.1875,941.6672 L193.75,947.2682 L195.3125,947.2827 L196.875,945.6276 L198.4375,939.6364 L200,899.854 L201.5625,945.0928 L203.125,944.4207 L204.6875,945.4036 L206.25,947.1598 L207.8125,946.4226 L209.375,941.0457 L210.9375,907.3062 L212.5,945.2807 L214.0625,924.5401 L215.625,942.3466 L217.1875,902.1667 L218.75,944.6086 L220.3125,946.3865 L221.875,930.9857 L223.4375,923.1454 L225,936.9552 L226.5625,943.4089 L228.125,940.7133 L229.6875,893.8837 L231.25,944.4352 L232.8125,935.3869 L234.375,937.0853 L235.9375,949.4291 L237.5,950 L239.0625,949.5302 L240.625,927.9001 L242.1875,944.1389 L243.75,900.483 L245.3125,938.6174 L246.875,947.7958 L248.4375,932.8286 L250,943.5173 L251.5625,946.8635 L253.125,931.0001 L254.6875,943.9582 L256.25,932.843 L257.8125,944.5508 L259.375,945.8661 L260.9375,937.5695 L262.5,934.5269 L264.0625,897.7866 L265.625,936.4782 L267.1875,943.5969 L268.75,948.0342 L270.3125,944.2184 L271.875,947.1237 L273.4375,946.1624 L275,947.4922 L276.5625,937.3744 L278.125,948.1282 L279.6875,930.1691 L281.25,943.9871 L282.8125,941.8624 L284.375,945.7722 L285.9375,925.9203 L287.5,933.6813 L289.0625,939.9327 L290.625,941.595 L292.1875,938.921 L293.75,942.4188 L295.3125,944.7387 L296.875,939.8388 L298.4375,941.0096 L300,907.6675 L301.5625,927.9869 L303.125,944.1244 L304.6875,910.7457 L306.25,931.0146 L307.8125,927.8711 L309.375,937.0203 L310.9375,924.1788 L312.5,913.3326 L314.0625,914.6765 L315.625,922.076 L317.1875,936.8107 L318.75,938.6102 L320.3125,871.5052 L321.875,938.6319 L323.4375,933.0165 L325,922.1772 L326.5625,931.2675 L328.125,887.8698 L329.6875,924.3956 L331.25,941.1035 L332.8125,948.439 L334.375,947.9836 L335.9375,947.6151 L337.5,945.5915 L339.0625,894.8372 L340.625,928.4927 L342.1875,937.4249 L343.75,945.129 L345.3125,942.7441 L346.875,947.6078 L348.4375,914.4454 L350,946.3142 L351.5625,898.4877 L353.125,942.6718 L354.6875,942.679 L356.25,935.0906 L357.8125,849.2999 L359.375,909.9871 L360.9375,946.6105 L362.5,887.2697 L364.0625,922.7911 L365.625,934.4113 L367.1875,907.2556 L368.75,938.444 L370.3125,898.8782 L371.875,912.6605 L373.4375,914.8862 L375,896.7239 L376.5625,924.569 L378.125,935.5748 L379.6875,929.1791 L381.25,935.1629 L382.8125,926.6067 L384.375,935.3219 L385.9375,930.9134 L387.5,938.0682 L389.0625,937.7791 L390.625,937.3093 L392.1875,938.3789 L393.75,936.6661 L395.3125,940.9662 L396.875,935.0545 L398.4375,899.6155 L400,904.7474 L401.5625,899.0875 L403.125,905.933 L404.6875,939.369 L406.25,944.8038 L407.8125,943.1849 L409.375,945.577 L410.9375,948.0126 L412.5,944.0377 L414.0625,936.9769 L415.625,941.3564 L417.1875,932.1348 L418.75,944.9628 L420.3125,940.6843 L421.875,944.7676 L423.4375,946.2636 L425,943.6547 L426.5625,919.0556 L428.125,942.6212 L429.6875,944.9916 L431.25,936.471 L432.8125,914.207 L434.375,892.1561 L435.9375,947.7307 L437.5,871.1944 L439.0625,944.4496 L440.625,922.7046 L442.1875,929.7066 L443.75,896.1896 L445.3125,940.9301 L446.875,910.1893 L448.4375,755.7501 L450,941.8118 L451.5625,920.6743 L453.125,773.3557 L454.6875,867.0894 L456.25,866.9877 L457.8125,936.7239 L459.375,872.8353 L460.9375,908.7153 L462.5,930.0823 L464.0625,939.3763 L465.625,946.9357 L467.1875,934.1005 L468.75,910.2689 L470.3125,946.5021 L471.875,863.1133 L473.4375,927.3944 L475,914.3442 L476.5625,750 L478.125,809.0997 L479.6875,857.5361 L481.25,882.8824 L482.8125,882.1668 L484.375,905.5062 L485.9375,918.6149 L487.5,943.0837 L489.0625,914.5392 " stroke="blue" fill="none" />
<text x="50" y="1000" font-family="Arial" font-size="12" fill="black">Episode Length (282)</text>
<text x="50" y="1015" font-family="Arial" font-size="10" fill="black">21527</text>
<text x="50" y="1230" font-family="Arial" font-size="10" fill="black">450</text>
<path d="M50,1209.021 L51.5625,1213.519 L53.125,1213.215 L54.6875,1213.709 L56.25,1210.91 L57.8125,1217.172 L59.375,1207.057 L60.9375,1215.891 L62.5,1217.837 L64.0625,1215.293 L65.625,1214.838 L67.1875,1219.44 L68.75,1217.201 L70.3125,1211.839 L71.875,1215.237 L73.4375,1211.669 L75,1216.907 L76.5625,1217.372 L78.125,1216.983 L79.6875,1216.793 L81.25,1218.823 L82.8125,1206.848 L84.375,1210.179 L85.9375,1218.377 L87.5,1216.147 L89.0625,1213.453 L90.625,1216.745 L92.1875,1217.799 L93.75,1212.475 L95.3125,1202.379 L96.875,1214.686 L98.4375,1217.912 L100,1202.559 L101.5625,1217.296 L103.125,1213.766 L104.6875,1212.494 L106.25,1214.145 L107.8125,1212.874 L109.375,1210.53 L110.9375,1212.058 L112.5,1216.973 L114.0625,1216.47 L115.625,1211.46 L117.1875,1172.204 L118.75,1209.382 L120.3125,1216.916 L121.875,1205.32 L123.4375,1208.499 L125,1208.129 L126.5625,1200.434 L128.125,1190.242 L129.6875,1207.93 L131.25,1214.477 L132.8125,1214.99 L134.375,1218.406 L135.9375,1214.155 L137.5,1203.461 L139.0625,1216.945 L140.625,1211.242 L142.1875,1212.285 L143.75,1218.766 L145.3125,1214.99 L146.875,1216.034 L148.4375,1213.993 L150,1210.264 L151.5625,1212.76 L153.125,1204.229 L154.6875,1210.245 L156.25,1209.866 L157.8125,1215.929 L159.375,1211.858 L160.9375,1207.778 L162.5,1209.467 L164.0625,1183.069 L165.625,1216.66 L167.1875,1207.19 L168.75,1214.42 L170.3125,1213.604 L171.875,1218.567 L173.4375,1218.33 L175,1213.12 L176.5625,1219.554 L178.125,1213.472 L179.6875,1218.529 L181.25,1210.359 L182.8125,1215.578 L184.375,1218.833 L185.9375,1199.058 L187.5,1210.739 L189.0625,1210.046 L190.625,1197.967 L192.1875,1210.957 L193.75,1216.413 L195.3125,1216.432 L196.875,1214.259 L198.4375,1206.393 L200,1166.491 L201.5625,1214.506 L203.125,1212.674 L204.6875,1214.914 L206.25,1216.271 L207.8125,1215.303 L209.375,1209.192 L210.9375,1177.224 L212.5,1213.804 L214.0625,1194.161 L215.625,1211.849 L217.1875,1171.426 L218.75,1212.921 L220.3125,1216.204 L221.875,1199.779 L223.4375,1190.432 L225,1204.77 L226.5625,1211.346 L228.125,1210.653 L229.6875,1164.347 L231.25,1213.642 L232.8125,1202.711 L234.375,1205.89 L235.9375,1219.25 L237.5,1220 L239.0625,1219.383 L240.625,1196.676 L242.1875,1212.304 L243.75,1169.215 L245.3125,1207.901 L246.875,1217.106 L248.4375,1202.199 L250,1212.437 L251.5625,1216.831 L253.125,1199.798 L254.6875,1213.965 L256.25,1201.269 L257.8125,1213.794 L259.375,1214.572 L260.9375,1205.577 L262.5,1203.48 L264.0625,1166.624 L265.625,1204.144 L267.1875,1212.542 L268.75,1217.419 L270.3125,1213.358 L271.875,1216.223 L273.4375,1214.961 L275,1216.707 L276.5625,1206.269 L278.125,1217.542 L279.6875,1199.656 L281.25,1212.105 L282.8125,1211.213 L284.375,1215.398 L285.9375,1195.025 L287.5,1201.421 L289.0625,1208.68 L290.625,1209.913 L292.1875,1208.3 L293.75,1211.944 L295.3125,1214.041 L296.875,1209.505 L298.4375,1210.094 L300,1176.749 L301.5625,1196.79 L303.125,1212.285 L304.6875,1179.843 L306.25,1199.817 L307.8125,1195.689 L309.375,1206.753 L310.9375,1192.738 L312.5,1182.291 L314.0625,1183.107 L315.625,1190.926 L317.1875,1204.58 L318.75,1205.994 L320.3125,1140.662 L321.875,1207.921 L323.4375,1201.496 L325,1192.007 L326.5625,1200.149 L328.125,1157.401 L329.6875,1193.972 L331.25,1208.319 L332.8125,1217.95 L334.375,1217.353 L335.9375,1216.869 L337.5,1215.161 L339.0625,1162.753 L340.625,1197.454 L342.1875,1206.336 L343.75,1214.553 L345.3125,1212.371 L346.875,1216.859 L348.4375,1182.803 L350,1215.161 L351.5625,1167.545 L353.125,1210.378 L354.6875,1212.285 L356.25,1204.22 L357.8125,1119.094 L359.375,1177.897 L360.9375,1215.55 L362.5,1157.562 L364.0625,1191.865 L365.625,1202.379 L367.1875,1177.157 L368.75,1206.725 L370.3125,1169.006 L371.875,1182.357 L373.4375,1184.331 L375,1167.127 L376.5625,1193.25 L378.125,1204.855 L379.6875,1198.356 L381.25,1203.366 L382.8125,1196.875 L384.375,1204.523 L385.9375,1200.633 L387.5,1207.18 L389.0625,1205.852 L390.625,1206.184 L392.1875,1206.639 L393.75,1206.288 L395.3125,1210.036 L396.875,1204.172 L398.4375,1168.076 L400,1172.916 L401.5625,1168.332 L403.125,1174.472 L404.6875,1207.939 L406.25,1213.177 L407.8125,1212.001 L409.375,1214.193 L410.9375,1217.391 L412.5,1214.069 L414.0625,1204.799 L415.625,1210.549 L417.1875,1200.339 L418.75,1214.335 L420.3125,1209.667 L421.875,1213.13 L423.4375,1215.094 L425,1211.669 L426.5625,1188.857 L428.125,1212.209 L429.6875,1213.424 L431.25,1205.083 L432.8125,1182.49 L434.375,1161.13 L435.9375,1217.021 L437.5,1140.254 L439.0625,1212.712 L440.625,1191.751 L442.1875,1199.048 L443.75,1165.476 L445.3125,1209.04 L446.875,1179.112 L448.4375,1025.646 L450,1211.147 L451.5625,1190.034 L453.125,1044.007 L454.6875,1137.711 L456.25,1136.63 L457.8125,1206.364 L459.375,1143.357 L460.9375,1178.125 L462.5,1198.593 L464.0625,1208.898 L465.625,1215.977 L467.1875,1201.971 L468.75,1180.165 L470.3125,1215.407 L471.875,1132.492 L473.4375,1196.961 L475,1183.619 L476.5625,1020 L478.125,1080.521 L479.6875,1127.065 L481.25,1152.751 L482.8125,1150.863 L484.375,1174.861 L485.9375,1186.38 L487.5,1211.868 L489.0625,1183.875 " stroke="blue" fill="none" />
<text x="50" y="1270" font-family="Arial" font-size="12" fill="black">Policy Loss</text>
<text x="50" y="1285" font-family="Arial" font-size="10" fill="black">0.6008128</text>
<text x="50" y="1500" font-family="Arial" font-size="10" fill="black">0.3664493</text>
<path d="M50,1442.452 L56.25,1396.606 L62.5,1442.135 L68.75,1434.034 L75,1447.056 L81.25,1490 L87.5,1425.486 L93.75,1432.096 L100,1411.318 L106.25,1386.795 L112.5,1431.846 L118.75,1416.369 L125,1412.072 L131.25,1421.075 L137.5,1382.176 L143.75,1400.815 L150,1395.559 L156.25,1422.091 L162.5,1371.098 L168.75,1402.688 L175,1383.218 L181.25,1387.231 L187.5,1383.558 L193.75,1412.531 L200,1393.467 L206.25,1324.906 L212.5,1347.89 L218.75,1368.619 L225,1350.7 L231.25,1390.682 L237.5,1342.619 L243.75,1397.502 L250,1400.295 L256.25,1368.863 L262.5,1348.832 L268.75,1337.463 L275,1367.52 L281.25,1362.539 L287.5,1342.39 L293.75,1358.87 L300,1364.475 L306.25,1387.786 L312.5,1356.018 L318.75,1369.974 L325,1330.201 L331.25,1368.129 L337.5,1436.78 L343.75,1428.575 L350,1362.824 L356.25,1336.526 L362.5,1348.477 L368.75,1374.094 L375,1319.421 L381.25,1310.5 L387.5,1338.564 L393.75,1320.271 L400,1338.278 L406.25,1326.065 L412.5,1314.91 L418.75,1339.17 L425,1352.077 L431.25,1321.218 L437.5,1308.615 L443.75,1290 L450,1329.249 L456.25,1312.349 L462.5,1312.02 L468.75,1361.336 L475,1330.613 L481.25,1379.575 L487.5,1306.463 " stroke="blue" fill="none" />
<text x="50" y="1540" font-family="Arial" font-size="12" fill="black">Value Loss</text>
<text x="50" y="1555" font-family="Arial" font-size="10" fill="black">0.001220029</text>
<text x="50" y="1770" font-family="Arial" font-size="10" fill="black">0.0003152469</text>
<path d="M50,1744.116 L56.25,1760 L62.5,1734.608 L68.75,1684.605 L75,1675.277 L81.25,1658.814 L87.5,1722.092 L93.75,1758.091 L100,1669.082 L106.25,1649.173 L112.5,1721.018 L118.75,1705.934 L125,1623.671 L131.25,1666.117 L137.5,1620.248 L143.75,1680.922 L150,1560.002 L156.25,1682.945 L162.5,1660.366 L168.75,1662.286 L175,1611.904 L181.25,1712.72 L187.5,1694.454 L193.75,1653.165 L200,1654.947 L206.25,1674.922 L212.5,1626.176 L218.75,1644.38 L225,1624.723 L231.25,1585.447 L237.5,1621.333 L243.75,1649.014 L250,1649.733 L256.25,1652.293 L262.5,1620.698 L268.75,1612.56 L275,1611.576 L281.25,1622.556 L287.5,1630.442 L293.75,1613.562 L300,1626.937 L306.25,1609.432 L312.5,1690.607 L318.75,1631.789 L325,1679.819 L331.25,1610.033 L337.5,1635.209 L343.75,1594.23 L350,1648.688 L356.25,1647.088 L362.5,1627.168 L368.75,1639.275 L375,1650.705 L381.25,1645.991 L387.5,1599.361 L393.75,1616.846 L400,1629.376 L406.25,1627.074 L412.5,1603.53 L418.75,1598.073 L425,1650.994 L431.25,1609.855 L437.5,1607.084 L443.75,1599.272 L450,1632.5 L456.25,1572.982 L462.5,1646.784 L468.75,1628.32 L475,1594.423 L481.25,1590.318 L487.5,1591.982 " stroke="blue" fill="none" />
<text x="50" y="1810" font-family="Arial" font-size="12" fill="black">Learning Rate</text>
<text x="50" y="1825" font-family="Arial" font-size="10" fill="black">0.0003</text>
<text x="50" y="2040" font-family="Arial" font-size="10" fill="black">0.0003</text>
<path d="M50,2030 L56.25,2030 L62.5,2030 L68.75,2030 L75,2030 L81.25,2030 L87.5,2030 L93.75,2030 L100,2030 L106.25,2030 L112.5,2030 L118.75,2030 L125,2030 L131.25,2030 L137.5,2030 L143.75,2030 L150,2030 L156.25,2030 L162.5,2030 L168.75,2030 L175,2030 L181.25,2030 L187.5,2030 L193.75,2030 L200,2030 L206.25,2030 L212.5,2030 L218.75,2030 L225,2030 L231.25,2030 L237.5,2030 L243.75,2030 L250,2030 L256.25,2030 L262.5,2030 L268.75,2030 L275,2030 L281.25,2030 L287.5,2030 L293.75,2030 L300,2030 L306.25,2030 L312.5,2030 L318.75,2030 L325,2030 L331.25,2030 L337.5,2030 L343.75,2030 L350,2030 L356.25,2030 L362.5,2030 L368.75,2030 L375,2030 L381.25,2030 L387.5,2030 L393.75,2030 L400,2030 L406.25,2030 L412.5,2030 L418.75,2030 L425,2030 L431.25,2030 L437.5,2030 L443.75,2030 L450,2030 L456.25,2030 L462.5,2030 L468.75,2030 L475,2030 L481.25,2030 L487.5,2030 " stroke="blue" fill="none" />
<text x="50" y="2080" font-family="Arial" font-size="12" fill="black">Entropy</text>
<text x="50" y="2095" font-family="Arial" font-size="10" fill="black">0.2385392</text>
<text x="50" y="2310" font-family="Arial" font-size="10" fill="black">0.1961676</text>
<path d="M50,2100 L56.25,2104.717 L62.5,2115.567 L68.75,2117.022 L75,2125.8 L81.25,2107.665 L87.5,2110.823 L93.75,2110.449 L100,2138.253 L106.25,2148.907 L112.5,2141.743 L118.75,2174.729 L125,2170.877 L131.25,2151.275 L137.5,2163.102 L143.75,2177.39 L150,2176.107 L156.25,2185.075 L162.5,2185.693 L168.75,2198.954 L175,2191.064 L181.25,2198.782 L187.5,2178.745 L193.75,2189.216 L200,2180.373 L206.25,2207.172 L212.5,2212.578 L218.75,2212.113 L225,2178.889 L231.25,2199.326 L237.5,2192.41 L243.75,2201.393 L250,2201.742 L256.25,2196.479 L262.5,2207.195 L268.75,2198.315 L275,2223.915 L281.25,2226.497 L287.5,2212.084 L293.75,2214.288 L300,2220.266 L306.25,2213.438 L312.5,2224.808 L318.75,2215.583 L325,2239.799 L331.25,2266.789 L337.5,2249.464 L343.75,2251.34 L350,2232.436 L356.25,2256.958 L362.5,2265.516 L368.75,2279.585 L375,2255.14 L381.25,2267.901 L387.5,2288.249 L393.75,2284.464 L400,2263.421 L406.25,2280.929 L412.5,2261.55 L418.75,2250.13 L425,2245.831 L431.25,2222.098 L437.5,2233.272 L443.75,2235.477 L450,2259.762 L456.25,2259.618 L462.5,2253.918 L468.75,2285.708 L475,2280.228 L481.25,2300 L487.5,2264.764 " stroke="blue" fill="none" />
<text x="750" y="730" font-family="Arial" font-size="12" fill="black">Simplified</text>
<text x="750" y="745" font-family="Arial" font-size="10" fill="black">20.45193</text>
<text x="750" y="960" font-family="Arial" font-size="10" fill="black">2.605956</text>
<path d="M778.125,950 L807.8125,944.9288 L837.5,925.5677 L867.1875,935.6406 L896.875,944.6618 L926.5625,906.642 L956.25,913.6292 L985.9375,925.0984 L1015.625,891.6782 L1045.313,887.7635 L1075,843.4593 L1104.688,880.9603 L1134.375,916.7938 L1164.063,767.9594 L1189.063,750 " stroke="blue" fill="none" />
<text x="750" y="1000" font-family="Arial" font-size="12" fill="black">Simplified</text>
<text x="750" y="1015" font-family="Arial" font-size="10" fill="black">6412.313</text>
<text x="750" y="1230" font-family="Arial" font-size="10" fill="black">1031.789</text>
<path d="M778.125,1220 L807.8125,1216.009 L837.5,1194.626 L867.1875,1205.251 L896.875,1214.872 L926.5625,1175.581 L956.25,1185.047 L985.9375,1195.569 L1015.625,1161.401 L1045.313,1157.776 L1075,1113.861 L1104.688,1150.899 L1134.375,1186.703 L1164.063,1038.531 L1189.063,1020 " stroke="blue" fill="none" />
</svg>
