<svg width="2000" height="2500" xmlns="http://www.w3.org/2000/svg">
<text x="10" y="20" font-family="Arial" font-size="26" fill="black"> [<tspan font-weight="bold" fill="blue">ShooterScript</tspan>] Training Session</text>
<text x="10" y="50" font-family="Arial" font-size="16" fill="black">[Statistics]</text>
<text x="50" y="70" font-family="Arial" font-size="12" fill="black">Started at: 7:29:11 PM, Sunday, May 5, 2024</text>
<text x="50" y="90" font-family="Arial" font-size="12" fill="black">Finished at: 7:30:13 PM, Sunday, May 5, 2024</text>
<text x="50" y="110" font-family="Arial" font-size="12" fill="black">Training Session Time: 0 hrs : 0 min : 59 sec</text>
<text x="50" y="130" font-family="Arial" font-size="12" fill="black">Inference Time: 0 hrs : 11 min : 10 sec        [Device: CPU]</text>
<text x="50" y="150" font-family="Arial" font-size="12" fill="black">Update Time: 0 hrs : 0 min : 40 sec        [Per iteration: 0 hrs : 0 min : 19.749 sec]        [Device: GPU]</text>
<text x="50" y="170" font-family="Arial" font-size="12" fill="black">Episode Count: 1001</text>
<text x="50" y="190" font-family="Arial" font-size="12" fill="black">Inference Steps: 60000</text>
<text x="50" y="210" font-family="Arial" font-size="12" fill="black">Iterations: 2</text>
<text x="50" y="230" font-family="Arial" font-size="12" fill="black">Parallel Agents: 32</text>
<text x="50" y="250" font-family="Arial" font-size="12" fill="black">Timescale: 1</text>
<text x="50" y="270" font-family="Arial" font-size="12" fill="black">Trainer: PPO</text>
<text x="10" y="320" font-family="Arial" font-size="16" fill="black">[Hyperparameters]</text>
<text x="50" y="340" font-family="Arial" font-size="12" fill="black">Buffer Size: 30000        [Batch Size: 1000       (x30)]</text>
<text x="50" y="360" font-family="Arial" font-size="12" fill="black">Num Epoch: 6</text>
<text x="50" y="380" font-family="Arial" font-size="12" fill="black">Time Horizon: 256</text>
<text x="50" y="400" font-family="Arial" font-size="12" fill="black">Gradient Cliping by Norm: 0.5</text>
<text x="50" y="420" font-family="Arial" font-size="12" fill="black">Learning Rate Schedule: False    </text>
<text x="10" y="470" font-family="Arial" font-size="16" fill="black">[Behaviour]</text>
<text x="50" y="490" font-family="Arial" font-size="12" fill="black">Space Size: 131</text>
<text x="50" y="510" font-family="Arial" font-size="12" fill="black">Continuous Actions: 36 [Standard Deviation: Fixed]     [Value: 4]</text>
<text x="50" y="530" font-family="Arial" font-size="12" fill="black">Discrete Actions: 3</text>
<text x="50" y="550" font-family="Arial" font-size="12" fill="black">TargetFPS: 100 (physics update rate)</text>
<text x="50" y="570" font-family="Arial" font-size="12" fill="black">Observations Normalization: True</text>
<text x="10" y="620" font-family="Arial" font-size="16" fill="black">[Decision Requester]</text>
<text x="50" y="640" font-family="Arial" font-size="12" fill="black">Max Step: 1000</text>
<text x="50" y="660" font-family="Arial" font-size="12" fill="black">Decision Period: 1</text>
<text x="10" y="710" font-family="Arial" font-size="16" fill="black">[Graphs]</text>
<text x="50" y="730" font-family="Arial" font-size="12" fill="black">Episode Reward (1001)</text>
<text x="50" y="745" font-family="Arial" font-size="10" fill="black">0.5760016</text>
<text x="50" y="960" font-family="Arial" font-size="10" fill="black">-3.946</text>
<path d="M50,795.5551 L50.39063,795.4225 L50.78125,795.334 L51.17188,795.2455 L51.5625,817.3596 L51.95313,795.1129 L52.34375,794.9802 L52.73438,883.4366 L53.125,772.8218 L53.51563,817.0058 L53.90625,817.0058 L54.29688,861.1898 L54.6875,816.9615 L55.07813,816.9615 L55.46875,794.8475 L55.85938,794.8033 L56.25,816.9174 L56.64063,816.9174 L57.03125,794.759 L57.42188,794.7148 L57.8125,794.7148 L58.20313,794.7148 L58.59375,838.943 L58.98438,838.8988 L59.375,838.8988 L59.76563,816.7847 L60.15625,794.6263 L60.54688,927.2667 L60.9375,838.7661 L61.32813,794.4937 L61.71875,860.8359 L62.10938,860.7917 L62.5,861.809 L62.89063,816.8289 L63.28125,861.3224 L63.67188,817.3596 L64.0625,817.1827 L64.45313,816.652 L64.84375,816.6962 L65.23438,817.0942 L65.625,816.9615 L66.01563,817.1827 L66.40625,817.05 L66.79688,795.2013 L67.1875,861.1898 L67.57813,816.2097 L67.96875,816.8731 L68.35938,861.1456 L68.75,816.6077 L69.14063,816.6962 L69.53125,816.9174 L69.92188,816.7847 L70.3125,816.8731 L70.70313,816.6077 L71.09375,816.5193 L71.48438,816.7847 L71.875,816.8289 L72.26563,816.3866 L72.65625,816.2097 L73.04688,860.5264 L73.4375,904.7988 L73.82813,949.027 L74.21875,860.7475 L74.60938,860.3052 L75,816.7847 L75.39063,817.0942 L75.78125,817.2269 L76.17188,817.05 L76.5625,816.9615 L76.95313,816.8731 L77.34375,861.2782 L77.73438,816.4308 L78.125,816.3423 L78.51563,816.5635 L78.90625,817.0058 L79.29688,817.0058 L79.6875,816.6077 L80.07813,816.8731 L80.46875,860.9686 L80.85938,817.3154 L81.25,817.1827 L81.64063,816.475 L82.03125,816.9615 L82.42188,860.7475 L82.8125,861.3667 L83.20313,816.6077 L83.59375,816.4308 L83.98438,816.475 L84.375,816.652 L84.76563,816.4308 L85.15625,816.8731 L85.54688,816.475 L85.9375,815.9885 L86.32813,905.0199 L86.71875,816.2982 L87.10938,815.9443 L87.5,816.8731 L87.89063,816.2539 L88.28125,816.9174 L88.67188,816.2539 L89.0625,816.8731 L89.45313,817.1385 L89.84375,816.8289 L90.23438,860.9686 L90.625,816.4308 L91.01563,816.7404 L91.40625,794.361 L91.79688,816.6962 L92.1875,816.7404 L92.57813,816.6962 L92.96875,816.8289 L93.35938,816.652 L93.75,817.05 L94.14063,816.3866 L94.53125,817.5807 L94.92188,816.8289 L95.3125,860.9686 L95.70313,816.7404 L96.09375,816.6077 L96.48438,816.2097 L96.875,817.0058 L97.26563,860.7917 L97.65625,860.3937 L98.04688,816.5193 L98.4375,816.6962 L98.82813,816.4308 L99.21875,904.7988 L99.60938,816.9174 L100,817.1827 L100.3906,817.0058 L100.7813,817.0058 L101.1719,816.8289 L101.5625,861.1456 L101.9531,817.1827 L102.3438,816.7404 L102.7344,816.7404 L103.125,817.0942 L103.5156,816.8289 L103.9063,817.3596 L104.2969,816.9615 L104.6875,816.8731 L105.0781,817.3154 L105.4688,816.4308 L105.8594,949.6019 L106.25,860.9244 L106.6406,816.652 L107.0313,794.8033 L107.4219,816.3423 L107.8125,816.9174 L108.2031,860.8359 L108.5938,816.475 L108.9844,816.8289 L109.375,860.7917 L109.7656,794.8917 L110.1563,860.7032 L110.5469,817.1827 L110.9375,816.8289 L111.3281,816.2982 L111.7188,816.5193 L112.1094,816.3866 L112.5,817.0942 L112.8906,816.5635 L113.2813,860.7475 L113.6719,861.1013 L114.0625,860.8802 L114.4531,861.1013 L114.8438,816.6962 L115.2344,816.6962 L115.625,816.3866 L116.0156,816.9615 L116.4063,816.3423 L116.7969,816.9174 L117.1875,817.2712 L117.5781,816.8289 L117.9688,816.9174 L118.3594,816.8289 L118.75,816.9615 L119.1406,905.0641 L119.5313,816.7847 L119.9219,816.7404 L120.3125,816.7404 L120.7031,816.5193 L121.0938,816.7404 L121.4844,816.8289 L121.875,816.8289 L122.2656,860.7032 L122.6563,860.9244 L123.0469,816.4308 L123.4375,816.9615 L123.8281,816.2982 L124.2188,816.6077 L124.6094,816.7404 L125,816.4308 L125.3906,816.8731 L125.7813,816.6962 L126.1719,816.9174 L126.5625,860.7032 L126.9531,861.0571 L127.3438,816.4308 L127.7344,816.475 L128.125,816.4308 L128.5156,816.8731 L128.9063,860.7917 L129.2969,816.652 L129.6875,817.1385 L130.0781,816.4308 L130.4688,816.7847 L130.8594,816.7404 L131.25,816.8731 L131.6406,816.6962 L132.0313,816.7404 L132.4219,817.0058 L132.8125,816.8289 L133.2031,816.8731 L133.5938,816.8731 L133.9844,861.1898 L134.375,816.8731 L134.7656,816.2539 L135.1563,816.5193 L135.5469,816.475 L135.9375,816.7404 L136.3281,817.1827 L136.7188,817.1385 L137.1094,838.7219 L137.5,816.6962 L137.8906,817.0058 L138.2813,817.0942 L138.6719,817.3596 L139.0625,817.2269 L139.4531,861.1898 L139.8438,816.9615 L140.2344,817.0058 L140.625,905.3737 L141.0156,817.2712 L141.4063,816.6077 L141.7969,817.1385 L142.1875,817.0058 L142.5781,860.7917 L142.9688,816.7404 L143.3594,861.0129 L143.75,816.7847 L144.1406,816.475 L144.5313,816.5193 L144.9219,816.6077 L145.3125,816.8731 L145.7031,816.9174 L146.0938,816.6077 L146.4844,905.1084 L146.875,816.6077 L147.2656,816.4308 L147.6563,816.652 L148.0469,816.5193 L148.4375,816.6962 L148.8281,816.5635 L149.2188,860.7475 L149.6094,817.05 L150,817.0942 L150.3906,794.9802 L150.7813,816.9174 L151.1719,817.4481 L151.5625,816.9174 L151.9531,816.5635 L152.3438,794.6706 L152.7344,860.7032 L153.125,816.652 L153.5156,816.8289 L153.9063,816.4308 L154.2969,816.5635 L154.6875,817.1827 L155.0781,860.9244 L155.4688,816.7847 L155.8594,817.0058 L156.25,816.7404 L156.6406,816.652 L157.0313,816.652 L157.4219,860.7032 L157.8125,816.5635 L158.2031,905.418 L158.5938,860.7917 L158.9844,816.4308 L159.375,816.2097 L159.7656,816.9174 L160.1563,816.9174 L160.5469,816.5193 L160.9375,816.7404 L161.3281,816.5635 L161.7188,817.4923 L162.1094,816.652 L162.5,816.2097 L162.8906,816.2982 L163.2813,817.05 L163.6719,816.2097 L164.0625,817.0942 L164.4531,816.475 L164.8438,816.9615 L165.2344,816.4308 L165.625,816.7847 L166.0156,817.05 L166.4063,816.8289 L166.7969,816.8289 L167.1875,794.6706 L167.5781,817.0058 L167.9688,816.6077 L168.3594,860.7917 L168.75,817.2269 L169.1406,816.9174 L169.5313,816.9615 L169.9219,816.7404 L170.3125,860.8802 L170.7031,861.4551 L171.0938,816.7847 L171.4844,816.4308 L171.875,816.9615 L172.2656,817.1385 L172.6563,905.1968 L173.0469,861.0571 L173.4375,950 L173.8281,816.7847 L174.2188,816.8731 L174.6094,816.6962 L175,816.9174 L175.3906,816.5635 L175.7813,816.8289 L176.1719,816.9615 L176.5625,816.8731 L176.9531,816.652 L177.3438,817.05 L177.7344,861.1456 L178.125,817.0058 L178.5156,816.6962 L178.9063,817.1385 L179.2969,816.6962 L179.6875,816.9174 L180.0781,860.5264 L180.4688,816.8289 L180.8594,816.3866 L181.25,816.9615 L181.6406,816.8289 L182.0313,816.5193 L182.4219,860.4379 L182.8125,816.4308 L183.2031,816.8731 L183.5938,816.652 L183.9844,816.8731 L184.375,816.9615 L184.7656,860.6591 L185.1563,816.6077 L185.5469,817.0942 L185.9375,816.7847 L186.3281,816.7847 L186.7188,860.1725 L187.1094,816.4308 L187.5,816.5193 L187.8906,816.6077 L188.2813,817.4039 L188.6719,861.4551 L189.0625,817.1827 L189.4531,817.2712 L189.8438,817.2712 L190.2344,817.0942 L190.625,817.3154 L191.0156,838.8988 L191.4063,816.6962 L191.7969,794.5821 L192.1875,905.1526 L192.5781,817.05 L192.9688,816.8289 L193.3594,817.3596 L193.75,816.8289 L194.1406,816.8731 L194.5313,816.8289 L194.9219,816.9174 L195.3125,860.9686 L195.7031,817.0058 L196.0938,861.4994 L196.4844,816.8289 L196.875,816.5635 L197.2656,816.7847 L197.6563,816.5635 L198.0469,817.05 L198.4375,817.4039 L198.8281,816.9615 L199.2188,816.5193 L199.6094,816.475 L200,817.1385 L200.3906,861.5878 L200.7813,816.2539 L201.1719,816.6077 L201.5625,817.0058 L201.9531,817.05 L202.3438,860.6148 L202.7344,817.4481 L203.125,817.1385 L203.5156,816.652 L203.9063,927.6648 L204.2969,860.7475 L204.6875,816.7404 L205.0781,816.8289 L205.4688,816.7404 L205.8594,816.652 L206.25,905.1084 L206.6406,817.0058 L207.0313,816.9615 L207.4219,860.8359 L207.8125,817.1385 L208.2031,816.9615 L208.5938,816.6077 L208.9844,816.652 L209.375,816.5193 L209.7656,860.7475 L210.1563,816.8289 L210.5469,860.8359 L210.9375,816.9174 L211.3281,816.8289 L211.7188,860.8359 L212.1094,816.6962 L212.5,816.9615 L212.8906,817.3154 L213.2813,817.1385 L213.6719,817.0058 L214.0625,816.8731 L214.4531,816.8289 L214.8438,816.6962 L215.2344,816.5635 L215.625,816.6962 L216.0156,817.0058 L216.4063,816.652 L216.7969,817.1827 L217.1875,861.3224 L217.5781,816.7404 L217.9688,816.4308 L218.3594,816.9174 L218.75,860.9244 L219.1406,816.6962 L219.5313,816.475 L219.9219,816.8289 L220.3125,816.8731 L220.7031,816.8731 L221.0938,817.0058 L221.4844,816.7404 L221.875,794.8033 L222.2656,905.3737 L222.6563,816.3866 L223.0469,816.8289 L223.4375,816.3423 L223.8281,816.7404 L224.2188,816.475 L224.6094,816.6077 L225,860.8802 L225.3906,816.5193 L225.7813,817.2269 L226.1719,816.6962 L226.5625,817.05 L226.9531,817.3154 L227.3438,816.9615 L227.7344,816.7404 L228.125,817.2712 L228.5156,817.0058 L228.9063,816.7847 L229.2969,816.5193 L229.6875,817.2269 L230.0781,817.2269 L230.4688,817.1827 L230.8594,816.652 L231.25,817.0942 L231.6406,816.7847 L232.0313,816.7404 L232.4219,816.9615 L232.8125,860.6148 L233.2031,816.6962 L233.5938,817.1385 L233.9844,817.4039 L234.375,817.1827 L234.7656,816.9615 L235.1563,817.1827 L235.5469,816.7847 L235.9375,816.9174 L236.3281,816.5635 L236.7188,816.6077 L237.1094,816.9615 L237.5,816.5193 L237.8906,795.5994 L238.2813,816.8731 L238.6719,816.9174 L239.0625,816.3423 L239.4531,905.418 L239.8438,817.5807 L240.2344,816.9174 L240.625,816.5635 L241.0156,817.3596 L241.4063,817.625 L241.7969,860.3937 L242.1875,816.6962 L242.5781,816.7404 L242.9688,816.4308 L243.3594,817.1827 L243.75,817.5807 L244.1406,816.3423 L244.5313,816.2539 L244.9219,816.2539 L245.3125,817.1385 L245.7031,816.5635 L246.0938,816.9174 L246.4844,860.7917 L246.875,816.7847 L247.2656,817.0942 L247.6563,816.9174 L248.0469,816.7847 L248.4375,817.0058 L248.8281,817.05 L249.2188,816.5635 L249.6094,861.1456 L250,816.3423 L250.3906,905.1084 L250.7813,817.4039 L251.1719,816.7404 L251.5625,816.9174 L251.9531,816.7404 L252.3438,816.6962 L252.7344,816.5635 L253.125,816.9615 L253.5156,816.6962 L253.9063,816.652 L254.2969,816.5193 L254.6875,817.2712 L255.0781,816.6077 L255.4688,816.7847 L255.8594,860.9686 L256.25,861.234 L256.6406,816.7404 L257.0313,816.6962 L257.4219,817.05 L257.8125,817.0058 L258.2031,816.5635 L258.5938,794.6263 L258.9844,816.5635 L259.375,860.7917 L259.7656,816.7404 L260.1563,816.475 L260.5469,816.3423 L260.9375,817.0058 L261.3281,817.0942 L261.7188,816.652 L262.1094,816.7847 L262.5,817.0942 L262.8906,817.0058 L263.2813,816.9615 L263.6719,794.5822 L264.0625,817.4481 L264.4531,817.1827 L264.8438,816.8731 L265.2344,816.652 L265.625,816.6962 L266.0156,816.8731 L266.4063,816.6077 L266.7969,904.8872 L267.1875,816.7847 L267.5781,860.6591 L267.9688,817.0058 L268.3594,817.4923 L268.75,817.6693 L269.1406,816.8731 L269.5313,817.3596 L269.9219,816.5635 L270.3125,816.7847 L270.7031,816.7847 L271.0938,816.7847 L271.4844,860.8802 L271.875,816.7847 L272.2656,816.6077 L272.6563,861.3224 L273.0469,817.4481 L273.4375,817.0942 L273.8281,816.8289 L274.2188,816.652 L274.6094,816.3866 L275,816.7847 L275.3906,816.9615 L275.7813,816.3866 L276.1719,793.8745 L276.5625,816.8731 L276.9531,816.652 L277.3438,816.652 L277.7344,816.6077 L278.125,816.652 L278.5156,816.3866 L278.9063,816.6077 L279.2969,817.1385 L279.6875,817.05 L280.0781,904.7103 L280.4688,816.5635 L280.8594,817.1385 L281.25,816.475 L281.6406,816.7847 L282.0313,816.5193 L282.4219,794.6263 L282.8125,815.9885 L283.2031,817.3596 L283.5938,861.1456 L283.9844,816.9615 L284.375,816.9174 L284.7656,816.9174 L285.1563,816.8289 L285.5469,860.8802 L285.9375,860.261 L286.3281,817.0058 L286.7188,816.9174 L287.1094,816.5635 L287.5,816.475 L287.8906,816.8289 L288.2813,794.8475 L288.6719,816.7404 L289.0625,816.4308 L289.4531,816.652 L289.8438,816.5193 L290.2344,817.0942 L290.625,816.7404 L291.0156,816.7404 L291.4063,817.0058 L291.7969,816.7404 L292.1875,816.652 L292.5781,816.3866 L292.9688,817.1385 L293.3594,816.3866 L293.75,794.7148 L294.1406,816.8289 L294.5313,860.7032 L294.9219,816.9174 L295.3125,816.7847 L295.7031,949.3366 L296.0938,815.9443 L296.4844,817.1827 L296.875,817.1827 L297.2656,816.4308 L297.6563,817.1385 L298.0469,816.5193 L298.4375,816.7847 L298.8281,816.475 L299.2188,816.8731 L299.6094,816.2097 L300,817.05 L300.3906,817.3154 L300.7813,816.6962 L301.1719,817.3154 L301.5625,860.7917 L301.9531,816.9174 L302.3438,750 L302.7344,817.4039 L303.125,816.6077 L303.5156,816.2539 L303.9063,817.1385 L304.2969,816.5635 L304.6875,817.4923 L305.0781,861.4994 L305.4688,816.8289 L305.8594,817.4481 L306.25,860.8359 L306.6407,816.9615 L307.0313,816.3423 L307.4219,816.3423 L307.8125,816.9615 L308.2031,816.9174 L308.5938,816.2982 L308.9844,816.9174 L309.375,795.0244 L309.7656,795.0687 L310.1563,816.3423 L310.5469,816.9615 L310.9375,816.6077 L311.3281,816.9615 L311.7188,817.1827 L312.1094,795.3782 L312.5,816.652 L312.8906,816.6077 L313.2813,861.809 L313.6719,816.6962 L314.0625,817.1385 L314.4532,860.8802 L314.8438,816.4308 L315.2344,816.5635 L315.625,817.1827 L316.0156,861.0571 L316.4063,816.5635 L316.7969,860.9686 L317.1875,816.8289 L317.5781,860.5264 L317.9688,817.05 L318.3594,816.7847 L318.75,816.6077 L319.1406,905.0199 L319.5313,816.652 L319.9219,816.8289 L320.3125,816.8289 L320.7031,861.0129 L321.0938,816.475 L321.4844,816.2982 L321.875,816.7404 L322.2657,817.0942 L322.6563,817.2269 L323.0469,816.8289 L323.4375,816.2982 L323.8281,816.5635 L324.2188,817.0058 L324.6094,816.7404 L325,860.6591 L325.3906,816.2097 L325.7813,816.3423 L326.1719,816.9174 L326.5625,816.8731 L326.9531,817.0058 L327.3438,816.5193 L327.7344,817.0058 L328.125,816.6077 L328.5156,817.3596 L328.9063,816.9615 L329.2969,816.1212 L329.6875,817.0058 L330.0782,817.1385 L330.4688,816.2982 L330.8594,817.4039 L331.25,816.7404 L331.6406,817.4039 L332.0313,905.0641 L332.4219,816.6077 L332.8125,817.0942 L333.2031,816.7404 L333.5938,816.7847 L333.9844,816.8731 L334.375,816.652 L334.7656,860.6591 L335.1563,816.8731 L335.5469,905.1084 L335.9375,860.8359 L336.3281,816.8731 L336.7188,794.4937 L337.1094,860.7475 L337.5,816.4308 L337.8907,816.2982 L338.2813,817.0058 L338.6719,817.1827 L339.0625,816.5193 L339.4531,816.6962 L339.8438,816.7847 L340.2344,816.7847 L340.625,817.1385 L341.0156,816.5193 L341.4063,816.9174 L341.7969,817.0058 L342.1875,861.3667 L342.5781,860.4379 L342.9688,816.5193 L343.3594,816.1655 L343.75,816.9615 L344.1406,816.6962 L344.5313,817.2269 L344.9219,816.1655 L345.3125,817.1385 L345.7032,816.1655 L346.0938,904.7546 L346.4844,817.0942 L346.875,861.1013 L347.2656,816.3423 L347.6563,816.6962 L348.0469,816.8289 L348.4375,794.0956 L348.8281,816.9174 L349.2188,816.4308 L349.6094,817.0942 L350,817.1827 L350.3906,816.8289 L350.7813,860.6591 L351.1719,794.936 L351.5625,817.3596 L351.9531,817.4923 L352.3438,817.1827 L352.7344,816.9174 L353.125,817.1385 L353.5157,817.1385 L353.9063,816.9615 L354.2969,816.1655 L354.6875,816.3866 L355.0781,816.9174 L355.4688,816.652 L355.8594,816.8731 L356.25,816.9174 L356.6406,860.9244 L357.0313,817.3154 L357.4219,861.1898 L357.8125,860.6148 L358.2031,816.5193 L358.5938,816.6962 L358.9844,861.4109 L359.375,905.1968 L359.7656,816.652 L360.1563,816.9174 L360.5469,817.1385 L360.9375,816.6962 L361.3282,816.8731 L361.7188,860.6148 L362.1094,816.8289 L362.5,815.9001 L362.8906,904.9315 L363.2813,816.7847 L363.6719,817.0058 L364.0625,817.0058 L364.4531,816.6077 L364.8438,816.9615 L365.2344,817.4039 L365.625,817.05 L366.0156,816.9174 L366.4063,816.7404 L366.7969,816.652 L367.1875,817.05 L367.5781,817.4923 L367.9688,817.1385 L368.3594,816.6077 L368.75,816.4308 L369.1407,794.8475 L369.5313,816.6962 L369.9219,860.7032 L370.3125,816.8289 L370.7031,860.7475 L371.0938,817.3154 L371.4844,816.6077 L371.875,816.4308 L372.2656,816.652 L372.6563,816.9615 L373.0469,861.7205 L373.4375,816.4308 L373.8281,816.4308 L374.2188,816.652 L374.6094,816.475 L375,817.05 L375.3906,816.7847 L375.7813,816.6077 L376.1719,816.2097 L376.5625,817.1827 L376.9532,817.2269 L377.3438,816.9174 L377.7344,816.8289 L378.125,861.4994 L378.5156,816.652 L378.9063,816.9615 L379.2969,815.9885 L379.6875,816.5635 L380.0781,861.0129 L380.4688,816.475 L380.8594,816.6077 L381.25,816.9615 L381.6406,816.8731 L382.0313,905.1968 L382.4219,817.2269 L382.8125,860.7917 L383.2031,817.1827 L383.5938,816.2539 L383.9844,816.8731 L384.375,816.5193 L384.7657,816.9615 L385.1563,861.0571 L385.5469,816.7404 L385.9375,816.9615 L386.3281,816.7847 L386.7188,816.5635 L387.1094,817.0942 L387.5,816.5635 L387.8906,816.9615 L388.2813,795.0687 L388.6719,794.5821 L389.0625,860.7032 L389.4531,816.7847 L389.8438,794.2725 L390.2344,816.7847 L390.625,816.3866 L391.0156,861.0129 L391.4063,816.6077 L391.7969,816.9174 L392.1875,816.9615 L392.5782,816.9174 L392.9688,794.5379 L393.3594,861.4994 L393.75,816.9174 L394.1406,816.6962 L394.5313,816.7847 L394.9219,816.1655 L395.3125,861.2782 L395.7031,795.0687 L396.0938,816.7404 L396.4844,816.8289 L396.875,817.1385 L397.2656,816.8289 L397.6563,794.9802 L398.0469,817.0942 L398.4375,794.4937 L398.8281,816.7847 L399.2188,816.9174 L399.6094,816.8289 L400,816.8289 L400.3907,816.6077 L400.7813,816.5193 L401.1719,816.9174 L401.5625,817.0058 L401.9531,816.7404 L402.3438,816.3866 L402.7344,816.652 L403.125,861.0571 L403.5156,817.1385 L403.9063,816.2982 L404.2969,816.6962 L404.6875,816.8289 L405.0781,816.652 L405.4688,816.5635 L405.8594,816.7404 L406.25,816.7847 L406.6406,817.2712 L407.0313,817.1827 L407.4219,816.475 L407.8125,816.6077 L408.2032,816.5193 L408.5938,816.9174 L408.9844,816.8731 L409.375,816.9174 L409.7656,816.7404 L410.1563,816.3423 L410.5469,817.0058 L410.9375,816.8731 L411.3281,816.9174 L411.7188,860.9244 L412.1094,816.652 L412.5,816.9174 L412.8906,816.8289 L413.2813,816.4308 L413.6719,861.4109 L414.0625,816.2539 L414.4531,816.5635 L414.8438,816.2097 L415.2344,817.2712 L415.625,816.5193 L416.0157,816.3423 L416.4063,816.3866 L416.7969,860.3494 L417.1875,816.7404 L417.5781,816.8289 L417.9688,817.0942 L418.3594,817.0942 L418.75,817.0058 L419.1406,816.077 L419.5313,816.7404 L419.9219,817.3596 L420.3125,816.8289 L420.7031,816.5193 L421.0938,816.3866 L421.4844,860.5706 L421.875,816.8731 L422.2656,816.7404 L422.6563,816.5193 L423.0469,816.8731 L423.4375,816.9174 L423.8282,816.4308 L424.2188,816.7847 L424.6094,817.6693 L425,817.4039 L425.3906,816.7404 L425.7813,816.9615 L426.1719,860.7475 L426.5625,794.5379 L426.9531,861.0571 L427.3438,816.7404 L427.7344,817.1385 L428.125,816.9174 L428.5156,816.7847 L428.9063,816.6077 L429.2969,816.5193 L429.6875,816.652 L430.0781,904.9315 L430.4688,860.4379 L430.8594,817.1827 L431.25,816.3866 L431.6407,817.0058 L432.0313,816.8289 L432.4219,817.4923 L432.8125,816.9174 L433.2031,816.9615 L433.5938,816.8289 L433.9844,817.0058 L434.375,817.1827 L434.7656,816.5635 L435.1563,816.3866 L435.5469,816.652 L435.9375,816.3866 L436.3281,817.0942 L436.7188,860.8802 L437.1094,816.652 L437.5,817.0942 L437.8906,860.8802 L438.2813,816.652 L438.6719,816.3423 L439.0625,817.1385 L439.4532,816.6077 L439.8438,794.6706 L440.2344,817.05 L440.625,816.6077 " stroke="blue" fill="none" />
<text x="50" y="1000" font-family="Arial" font-size="12" fill="black">Episode Length (1001)</text>
<text x="50" y="1015" font-family="Arial" font-size="10" fill="black">86</text>
<text x="50" y="1230" font-family="Arial" font-size="10" fill="black">45</text>
<path d="M50,1220 L50.39063,1205.366 L50.78125,1195.61 L51.17188,1185.854 L51.5625,1185.854 L51.95313,1171.219 L52.34375,1156.585 L52.73438,1156.585 L53.125,1151.707 L53.51563,1146.829 L53.90625,1146.829 L54.29688,1141.951 L54.6875,1141.951 L55.07813,1141.951 L55.46875,1141.951 L55.85938,1137.073 L56.25,1137.073 L56.64063,1137.073 L57.03125,1132.195 L57.42188,1127.317 L57.8125,1127.317 L58.20313,1127.317 L58.59375,1127.317 L58.98438,1122.439 L59.375,1122.439 L59.76563,1122.439 L60.15625,1117.561 L60.54688,1112.683 L60.9375,1107.805 L61.32813,1102.927 L61.71875,1102.927 L62.10938,1098.049 L62.5,1205.366 L62.89063,1122.439 L63.28125,1151.707 L63.67188,1180.976 L64.0625,1161.463 L64.45313,1102.927 L64.84375,1107.805 L65.23438,1151.707 L65.625,1137.073 L66.01563,1161.463 L66.40625,1146.829 L66.79688,1176.098 L67.1875,1137.073 L67.57813,1054.146 L67.96875,1127.317 L68.35938,1132.195 L68.75,1098.049 L69.14063,1107.805 L69.53125,1132.195 L69.92188,1117.561 L70.3125,1127.317 L70.70313,1098.049 L71.09375,1088.293 L71.48438,1117.561 L71.875,1122.439 L72.26563,1073.659 L72.65625,1054.146 L73.04688,1063.902 L73.4375,1068.781 L73.82813,1068.781 L74.21875,1088.293 L74.60938,1039.512 L75,1117.561 L75.39063,1151.707 L75.78125,1166.341 L76.17188,1146.829 L76.5625,1137.073 L76.95313,1127.317 L77.34375,1146.829 L77.73438,1078.537 L78.125,1068.781 L78.51563,1093.171 L78.90625,1141.951 L79.29688,1141.951 L79.6875,1098.049 L80.07813,1127.317 L80.46875,1112.683 L80.85938,1176.098 L81.25,1161.463 L81.64063,1083.415 L82.03125,1137.073 L82.42188,1088.293 L82.8125,1156.585 L83.20313,1098.049 L83.59375,1078.537 L83.98438,1083.415 L84.375,1102.927 L84.76563,1078.537 L85.15625,1127.317 L85.54688,1083.415 L85.9375,1029.756 L86.32813,1093.171 L86.71875,1063.902 L87.10938,1024.878 L87.5,1127.317 L87.89063,1059.024 L88.28125,1132.195 L88.67188,1059.024 L89.0625,1127.317 L89.45313,1156.585 L89.84375,1122.439 L90.23438,1112.683 L90.625,1078.537 L91.01563,1112.683 L91.40625,1083.415 L91.79688,1107.805 L92.1875,1112.683 L92.57813,1107.805 L92.96875,1122.439 L93.35938,1102.927 L93.75,1146.829 L94.14063,1073.659 L94.53125,1205.366 L94.92188,1122.439 L95.3125,1112.683 L95.70313,1112.683 L96.09375,1098.049 L96.48438,1054.146 L96.875,1141.951 L97.26563,1093.171 L97.65625,1049.268 L98.04688,1088.293 L98.4375,1107.805 L98.82813,1078.537 L99.21875,1068.781 L99.60938,1132.195 L100,1161.463 L100.3906,1141.951 L100.7813,1141.951 L101.1719,1122.439 L101.5625,1132.195 L101.9531,1161.463 L102.3438,1112.683 L102.7344,1112.683 L103.125,1151.707 L103.5156,1122.439 L103.9063,1180.976 L104.2969,1137.073 L104.6875,1127.317 L105.0781,1176.098 L105.4688,1078.537 L105.8594,1132.195 L106.25,1107.805 L106.6406,1102.927 L107.0313,1132.195 L107.4219,1068.781 L107.8125,1132.195 L108.2031,1098.049 L108.5938,1083.415 L108.9844,1122.439 L109.375,1093.171 L109.7656,1141.951 L110.1563,1083.415 L110.5469,1161.463 L110.9375,1122.439 L111.3281,1063.902 L111.7188,1088.293 L112.1094,1073.659 L112.5,1151.707 L112.8906,1093.171 L113.2813,1088.293 L113.6719,1127.317 L114.0625,1102.927 L114.4531,1127.317 L114.8438,1107.805 L115.2344,1107.805 L115.625,1073.659 L116.0156,1137.073 L116.4063,1068.781 L116.7969,1132.195 L117.1875,1171.219 L117.5781,1122.439 L117.9688,1132.195 L118.3594,1122.439 L118.75,1137.073 L119.1406,1098.049 L119.5313,1117.561 L119.9219,1112.683 L120.3125,1112.683 L120.7031,1088.293 L121.0938,1112.683 L121.4844,1122.439 L121.875,1122.439 L122.2656,1083.415 L122.6563,1107.805 L123.0469,1078.537 L123.4375,1137.073 L123.8281,1063.902 L124.2188,1098.049 L124.6094,1112.683 L125,1078.537 L125.3906,1127.317 L125.7813,1107.805 L126.1719,1132.195 L126.5625,1083.415 L126.9531,1122.439 L127.3438,1078.537 L127.7344,1083.415 L128.125,1078.537 L128.5156,1127.317 L128.9063,1093.171 L129.2969,1102.927 L129.6875,1156.585 L130.0781,1078.537 L130.4688,1117.561 L130.8594,1112.683 L131.25,1127.317 L131.6406,1107.805 L132.0313,1112.683 L132.4219,1141.951 L132.8125,1122.439 L133.2031,1127.317 L133.5938,1127.317 L133.9844,1137.073 L134.375,1127.317 L134.7656,1059.024 L135.1563,1088.293 L135.5469,1083.415 L135.9375,1112.683 L136.3281,1161.463 L136.7188,1156.585 L137.1094,1098.049 L137.5,1107.805 L137.8906,1141.951 L138.2813,1151.707 L138.6719,1180.976 L139.0625,1166.341 L139.4531,1137.073 L139.8438,1137.073 L140.2344,1141.951 L140.625,1132.195 L141.0156,1171.219 L141.4063,1098.049 L141.7969,1156.585 L142.1875,1141.951 L142.5781,1093.171 L142.9688,1112.683 L143.3594,1117.561 L143.75,1117.561 L144.1406,1083.415 L144.5313,1088.293 L144.9219,1098.049 L145.3125,1127.317 L145.7031,1132.195 L146.0938,1098.049 L146.4844,1102.927 L146.875,1098.049 L147.2656,1078.537 L147.6563,1102.927 L148.0469,1088.293 L148.4375,1107.805 L148.8281,1093.171 L149.2188,1088.293 L149.6094,1146.829 L150,1151.707 L150.3906,1151.707 L150.7813,1132.195 L151.1719,1190.732 L151.5625,1132.195 L151.9531,1093.171 L152.3438,1117.561 L152.7344,1083.415 L153.125,1102.927 L153.5156,1122.439 L153.9063,1078.537 L154.2969,1093.171 L154.6875,1161.463 L155.0781,1107.805 L155.4688,1117.561 L155.8594,1141.951 L156.25,1112.683 L156.6406,1102.927 L157.0313,1102.927 L157.4219,1083.415 L157.8125,1093.171 L158.2031,1137.073 L158.5938,1093.171 L158.9844,1078.537 L159.375,1054.146 L159.7656,1132.195 L160.1563,1132.195 L160.5469,1088.293 L160.9375,1112.683 L161.3281,1093.171 L161.7188,1195.61 L162.1094,1102.927 L162.5,1054.146 L162.8906,1063.902 L163.2813,1146.829 L163.6719,1054.146 L164.0625,1151.707 L164.4531,1083.415 L164.8438,1137.073 L165.2344,1078.537 L165.625,1117.561 L166.0156,1146.829 L166.4063,1122.439 L166.7969,1122.439 L167.1875,1117.561 L167.5781,1141.951 L167.9688,1098.049 L168.3594,1093.171 L168.75,1166.341 L169.1406,1132.195 L169.5313,1137.073 L169.9219,1112.683 L170.3125,1102.927 L170.7031,1166.341 L171.0938,1117.561 L171.4844,1078.537 L171.875,1137.073 L172.2656,1156.585 L172.6563,1112.683 L173.0469,1122.439 L173.4375,1176.098 L173.8281,1117.561 L174.2188,1127.317 L174.6094,1107.805 L175,1132.195 L175.3906,1093.171 L175.7813,1122.439 L176.1719,1137.073 L176.5625,1127.317 L176.9531,1102.927 L177.3438,1146.829 L177.7344,1132.195 L178.125,1141.951 L178.5156,1107.805 L178.9063,1156.585 L179.2969,1107.805 L179.6875,1132.195 L180.0781,1063.902 L180.4688,1122.439 L180.8594,1073.659 L181.25,1137.073 L181.6406,1122.439 L182.0313,1088.293 L182.4219,1054.146 L182.8125,1078.537 L183.2031,1127.317 L183.5938,1102.927 L183.9844,1127.317 L184.375,1137.073 L184.7656,1078.537 L185.1563,1098.049 L185.5469,1151.707 L185.9375,1117.561 L186.3281,1117.561 L186.7188,1024.878 L187.1094,1078.537 L187.5,1088.293 L187.8906,1098.049 L188.2813,1185.854 L188.6719,1166.341 L189.0625,1161.463 L189.4531,1171.219 L189.8438,1171.219 L190.2344,1151.707 L190.625,1176.098 L191.0156,1117.561 L191.4063,1107.805 L191.7969,1107.805 L192.1875,1107.805 L192.5781,1146.829 L192.9688,1122.439 L193.3594,1180.976 L193.75,1122.439 L194.1406,1127.317 L194.5313,1122.439 L194.9219,1132.195 L195.3125,1112.683 L195.7031,1141.951 L196.0938,1171.219 L196.4844,1122.439 L196.875,1093.171 L197.2656,1117.561 L197.6563,1093.171 L198.0469,1146.829 L198.4375,1185.854 L198.8281,1137.073 L199.2188,1088.293 L199.6094,1083.415 L200,1156.585 L200.3906,1180.976 L200.7813,1059.024 L201.1719,1098.049 L201.5625,1141.951 L201.9531,1146.829 L202.3438,1073.659 L202.7344,1190.732 L203.125,1156.585 L203.5156,1102.927 L203.9063,1151.707 L204.2969,1088.293 L204.6875,1112.683 L205.0781,1122.439 L205.4688,1112.683 L205.8594,1102.927 L206.25,1102.927 L206.6406,1141.951 L207.0313,1137.073 L207.4219,1098.049 L207.8125,1156.585 L208.2031,1137.073 L208.5938,1098.049 L208.9844,1102.927 L209.375,1088.293 L209.7656,1088.293 L210.1563,1122.439 L210.5469,1098.049 L210.9375,1132.195 L211.3281,1122.439 L211.7188,1098.049 L212.1094,1107.805 L212.5,1137.073 L212.8906,1176.098 L213.2813,1156.585 L213.6719,1141.951 L214.0625,1127.317 L214.4531,1122.439 L214.8438,1107.805 L215.2344,1093.171 L215.625,1107.805 L216.0156,1141.951 L216.4063,1102.927 L216.7969,1161.463 L217.1875,1151.707 L217.5781,1112.683 L217.9688,1078.537 L218.3594,1132.195 L218.75,1107.805 L219.1406,1107.805 L219.5313,1083.415 L219.9219,1122.439 L220.3125,1127.317 L220.7031,1127.317 L221.0938,1141.951 L221.4844,1112.683 L221.875,1132.195 L222.2656,1132.195 L222.6563,1073.659 L223.0469,1122.439 L223.4375,1068.781 L223.8281,1112.683 L224.2188,1083.415 L224.6094,1098.049 L225,1102.927 L225.3906,1088.293 L225.7813,1166.341 L226.1719,1107.805 L226.5625,1146.829 L226.9531,1176.098 L227.3438,1137.073 L227.7344,1112.683 L228.125,1171.219 L228.5156,1141.951 L228.9063,1117.561 L229.2969,1088.293 L229.6875,1166.341 L230.0781,1166.341 L230.4688,1161.463 L230.8594,1102.927 L231.25,1151.707 L231.6406,1117.561 L232.0313,1112.683 L232.4219,1137.073 L232.8125,1073.659 L233.2031,1107.805 L233.5938,1156.585 L233.9844,1185.854 L234.375,1161.463 L234.7656,1137.073 L235.1563,1161.463 L235.5469,1117.561 L235.9375,1132.195 L236.3281,1093.171 L236.7188,1098.049 L237.1094,1137.073 L237.5,1088.293 L237.8906,1220 L238.2813,1127.317 L238.6719,1132.195 L239.0625,1068.781 L239.4531,1137.073 L239.8438,1205.366 L240.2344,1132.195 L240.625,1093.171 L241.0156,1180.976 L241.4063,1210.244 L241.7969,1049.268 L242.1875,1107.805 L242.5781,1112.683 L242.9688,1078.537 L243.3594,1161.463 L243.75,1205.366 L244.1406,1068.781 L244.5313,1059.024 L244.9219,1059.024 L245.3125,1156.585 L245.7031,1093.171 L246.0938,1132.195 L246.4844,1093.171 L246.875,1117.561 L247.2656,1151.707 L247.6563,1132.195 L248.0469,1117.561 L248.4375,1141.951 L248.8281,1146.829 L249.2188,1093.171 L249.6094,1132.195 L250,1068.781 L250.3906,1102.927 L250.7813,1185.854 L251.1719,1112.683 L251.5625,1132.195 L251.9531,1112.683 L252.3438,1107.805 L252.7344,1093.171 L253.125,1137.073 L253.5156,1107.805 L253.9063,1102.927 L254.2969,1088.293 L254.6875,1171.219 L255.0781,1098.049 L255.4688,1117.561 L255.8594,1112.683 L256.25,1141.951 L256.6406,1112.683 L257.0313,1107.805 L257.4219,1146.829 L257.8125,1141.951 L258.2031,1093.171 L258.5938,1112.683 L258.9844,1093.171 L259.375,1093.171 L259.7656,1112.683 L260.1563,1083.415 L260.5469,1068.781 L260.9375,1141.951 L261.3281,1151.707 L261.7188,1102.927 L262.1094,1117.561 L262.5,1151.707 L262.8906,1141.951 L263.2813,1137.073 L263.6719,1107.805 L264.0625,1190.732 L264.4531,1161.463 L264.8438,1127.317 L265.2344,1102.927 L265.625,1107.805 L266.0156,1127.317 L266.4063,1098.049 L266.7969,1078.537 L267.1875,1117.561 L267.5781,1078.537 L267.9688,1141.951 L268.3594,1195.61 L268.75,1215.122 L269.1406,1127.317 L269.5313,1180.976 L269.9219,1093.171 L270.3125,1117.561 L270.7031,1117.561 L271.0938,1117.561 L271.4844,1102.927 L271.875,1117.561 L272.2656,1098.049 L272.6563,1151.707 L273.0469,1190.732 L273.4375,1151.707 L273.8281,1122.439 L274.2188,1102.927 L274.6094,1073.659 L275,1117.561 L275.3906,1137.073 L275.7813,1073.659 L276.1719,1029.756 L276.5625,1127.317 L276.9531,1102.927 L277.3438,1102.927 L277.7344,1098.049 L278.125,1102.927 L278.5156,1073.659 L278.9063,1098.049 L279.2969,1156.585 L279.6875,1146.829 L280.0781,1059.024 L280.4688,1093.171 L280.8594,1156.585 L281.25,1083.415 L281.6406,1117.561 L282.0313,1088.293 L282.4219,1112.683 L282.8125,1029.756 L283.2031,1180.976 L283.5938,1132.195 L283.9844,1137.073 L284.375,1132.195 L284.7656,1132.195 L285.1563,1122.439 L285.5469,1102.927 L285.9375,1034.634 L286.3281,1141.951 L286.7188,1132.195 L287.1094,1093.171 L287.5,1083.415 L287.8906,1122.439 L288.2813,1137.073 L288.6719,1112.683 L289.0625,1078.537 L289.4531,1102.927 L289.8438,1088.293 L290.2344,1151.707 L290.625,1112.683 L291.0156,1112.683 L291.4063,1141.951 L291.7969,1112.683 L292.1875,1102.927 L292.5781,1073.659 L292.9688,1156.585 L293.3594,1073.659 L293.75,1122.439 L294.1406,1122.439 L294.5313,1083.415 L294.9219,1132.195 L295.3125,1117.561 L295.7031,1102.927 L296.0938,1024.878 L296.4844,1161.463 L296.875,1161.463 L297.2656,1078.537 L297.6563,1156.585 L298.0469,1088.293 L298.4375,1117.561 L298.8281,1083.415 L299.2188,1127.317 L299.6094,1054.146 L300,1146.829 L300.3906,1176.098 L300.7813,1107.805 L301.1719,1176.098 L301.5625,1093.171 L301.9531,1132.195 L302.3438,1068.781 L302.7344,1185.854 L303.125,1098.049 L303.5156,1059.024 L303.9063,1156.585 L304.2969,1093.171 L304.6875,1195.61 L305.0781,1171.219 L305.4688,1122.439 L305.8594,1190.732 L306.25,1098.049 L306.6407,1137.073 L307.0313,1068.781 L307.4219,1068.781 L307.8125,1137.073 L308.2031,1132.195 L308.5938,1063.902 L308.9844,1132.195 L309.375,1156.585 L309.7656,1161.463 L310.1563,1068.781 L310.5469,1137.073 L310.9375,1098.049 L311.3281,1137.073 L311.7188,1161.463 L312.1094,1195.61 L312.5,1102.927 L312.8906,1098.049 L313.2813,1205.366 L313.6719,1107.805 L314.0625,1156.585 L314.4532,1102.927 L314.8438,1078.537 L315.2344,1093.171 L315.625,1161.463 L316.0156,1122.439 L316.4063,1093.171 L316.7969,1112.683 L317.1875,1122.439 L317.5781,1063.902 L317.9688,1146.829 L318.3594,1117.561 L318.75,1098.049 L319.1406,1093.171 L319.5313,1102.927 L319.9219,1122.439 L320.3125,1122.439 L320.7031,1117.561 L321.0938,1083.415 L321.4844,1063.902 L321.875,1112.683 L322.2657,1151.707 L322.6563,1166.341 L323.0469,1122.439 L323.4375,1063.902 L323.8281,1093.171 L324.2188,1141.951 L324.6094,1112.683 L325,1078.537 L325.3906,1054.146 L325.7813,1068.781 L326.1719,1132.195 L326.5625,1127.317 L326.9531,1141.951 L327.3438,1088.293 L327.7344,1141.951 L328.125,1098.049 L328.5156,1180.976 L328.9063,1137.073 L329.2969,1044.39 L329.6875,1141.951 L330.0782,1156.585 L330.4688,1063.902 L330.8594,1185.854 L331.25,1112.683 L331.6406,1185.854 L332.0313,1098.049 L332.4219,1098.049 L332.8125,1151.707 L333.2031,1112.683 L333.5938,1117.561 L333.9844,1127.317 L334.375,1102.927 L334.7656,1078.537 L335.1563,1127.317 L335.5469,1102.927 L335.9375,1098.049 L336.3281,1127.317 L336.7188,1098.049 L337.1094,1088.293 L337.5,1078.537 L337.8907,1063.902 L338.2813,1141.951 L338.6719,1161.463 L339.0625,1088.293 L339.4531,1107.805 L339.8438,1117.561 L340.2344,1117.561 L340.625,1156.585 L341.0156,1088.293 L341.4063,1132.195 L341.7969,1141.951 L342.1875,1156.585 L342.5781,1054.146 L342.9688,1088.293 L343.3594,1049.268 L343.75,1137.073 L344.1406,1107.805 L344.5313,1166.341 L344.9219,1049.268 L345.3125,1156.585 L345.7032,1049.268 L346.0938,1063.902 L346.4844,1151.707 L346.875,1127.317 L347.2656,1068.781 L347.6563,1107.805 L348.0469,1122.439 L348.4375,1054.146 L348.8281,1132.195 L349.2188,1078.537 L349.6094,1151.707 L350,1161.463 L350.3906,1122.439 L350.7813,1078.537 L351.1719,1146.829 L351.5625,1180.976 L351.9531,1195.61 L352.3438,1161.463 L352.7344,1132.195 L353.125,1156.585 L353.5157,1156.585 L353.9063,1137.073 L354.2969,1049.268 L354.6875,1073.659 L355.0781,1132.195 L355.4688,1102.927 L355.8594,1127.317 L356.25,1132.195 L356.6406,1107.805 L357.0313,1176.098 L357.4219,1137.073 L357.8125,1073.659 L358.2031,1088.293 L358.5938,1107.805 L358.9844,1161.463 L359.375,1112.683 L359.7656,1102.927 L360.1563,1132.195 L360.5469,1156.585 L360.9375,1107.805 L361.3282,1127.317 L361.7188,1073.659 L362.1094,1122.439 L362.5,1020 L362.8906,1083.415 L363.2813,1117.561 L363.6719,1141.951 L364.0625,1141.951 L364.4531,1098.049 L364.8438,1137.073 L365.2344,1185.854 L365.625,1146.829 L366.0156,1132.195 L366.4063,1112.683 L366.7969,1102.927 L367.1875,1146.829 L367.5781,1195.61 L367.9688,1156.585 L368.3594,1098.049 L368.75,1078.537 L369.1407,1137.073 L369.5313,1107.805 L369.9219,1083.415 L370.3125,1122.439 L370.7031,1088.293 L371.0938,1176.098 L371.4844,1098.049 L371.875,1078.537 L372.2656,1102.927 L372.6563,1137.073 L373.0469,1195.61 L373.4375,1078.537 L373.8281,1078.537 L374.2188,1102.927 L374.6094,1083.415 L375,1146.829 L375.3906,1117.561 L375.7813,1098.049 L376.1719,1054.146 L376.5625,1161.463 L376.9532,1166.341 L377.3438,1132.195 L377.7344,1122.439 L378.125,1171.219 L378.5156,1102.927 L378.9063,1137.073 L379.2969,1029.756 L379.6875,1093.171 L380.0781,1117.561 L380.4688,1083.415 L380.8594,1098.049 L381.25,1137.073 L381.6406,1127.317 L382.0313,1112.683 L382.4219,1166.341 L382.8125,1093.171 L383.2031,1161.463 L383.5938,1059.024 L383.9844,1127.317 L384.375,1088.293 L384.7657,1137.073 L385.1563,1122.439 L385.5469,1112.683 L385.9375,1137.073 L386.3281,1117.561 L386.7188,1093.171 L387.1094,1151.707 L387.5,1093.171 L387.8906,1137.073 L388.2813,1161.463 L388.6719,1107.805 L389.0625,1083.415 L389.4531,1117.561 L389.8438,1073.659 L390.2344,1117.561 L390.625,1073.659 L391.0156,1117.561 L391.4063,1098.049 L391.7969,1132.195 L392.1875,1137.073 L392.5782,1132.195 L392.9688,1102.927 L393.3594,1171.219 L393.75,1132.195 L394.1406,1107.805 L394.5313,1117.561 L394.9219,1049.268 L395.3125,1146.829 L395.7031,1161.463 L396.0938,1112.683 L396.4844,1122.439 L396.875,1156.585 L397.2656,1122.439 L397.6563,1151.707 L398.0469,1151.707 L398.4375,1098.049 L398.8281,1117.561 L399.2188,1132.195 L399.6094,1122.439 L400,1122.439 L400.3907,1098.049 L400.7813,1088.293 L401.1719,1132.195 L401.5625,1141.951 L401.9531,1112.683 L402.3438,1073.659 L402.7344,1102.927 L403.125,1122.439 L403.5156,1156.585 L403.9063,1063.902 L404.2969,1107.805 L404.6875,1122.439 L405.0781,1102.927 L405.4688,1093.171 L405.8594,1112.683 L406.25,1117.561 L406.6406,1171.219 L407.0313,1161.463 L407.4219,1083.415 L407.8125,1098.049 L408.2032,1088.293 L408.5938,1132.195 L408.9844,1127.317 L409.375,1132.195 L409.7656,1112.683 L410.1563,1068.781 L410.5469,1141.951 L410.9375,1127.317 L411.3281,1132.195 L411.7188,1107.805 L412.1094,1102.927 L412.5,1132.195 L412.8906,1122.439 L413.2813,1078.537 L413.6719,1161.463 L414.0625,1059.024 L414.4531,1093.171 L414.8438,1054.146 L415.2344,1171.219 L415.625,1088.293 L416.0157,1068.781 L416.4063,1073.659 L416.7969,1044.39 L417.1875,1112.683 L417.5781,1122.439 L417.9688,1151.707 L418.3594,1151.707 L418.75,1141.951 L419.1406,1039.512 L419.5313,1112.683 L419.9219,1180.976 L420.3125,1122.439 L420.7031,1088.293 L421.0938,1073.659 L421.4844,1068.781 L421.875,1127.317 L422.2656,1112.683 L422.6563,1088.293 L423.0469,1127.317 L423.4375,1132.195 L423.8282,1078.537 L424.2188,1117.561 L424.6094,1215.122 L425,1185.854 L425.3906,1112.683 L425.7813,1137.073 L426.1719,1088.293 L426.5625,1102.927 L426.9531,1122.439 L427.3438,1112.683 L427.7344,1156.585 L428.125,1132.195 L428.5156,1117.561 L428.9063,1098.049 L429.2969,1088.293 L429.6875,1102.927 L430.0781,1083.415 L430.4688,1054.146 L430.8594,1161.463 L431.25,1073.659 L431.6407,1141.951 L432.0313,1122.439 L432.4219,1195.61 L432.8125,1132.195 L433.2031,1137.073 L433.5938,1122.439 L433.9844,1141.951 L434.375,1161.463 L434.7656,1093.171 L435.1563,1073.659 L435.5469,1102.927 L435.9375,1073.659 L436.3281,1151.707 L436.7188,1102.927 L437.1094,1102.927 L437.5,1151.707 L437.8906,1102.927 L438.2813,1102.927 L438.6719,1068.781 L439.0625,1156.585 L439.4532,1098.049 L439.8438,1117.561 L440.2344,1146.829 L440.625,1098.049 " stroke="blue" fill="none" />
<text x="50" y="1270" font-family="Arial" font-size="12" fill="black">Policy Loss</text>
<text x="50" y="1285" font-family="Arial" font-size="10" fill="black">1.325547</text>
<text x="50" y="1500" font-family="Arial" font-size="10" fill="black">1.287609</text>
<path d="M50,1490 L75,1290 " stroke="blue" fill="none" />
<text x="50" y="1540" font-family="Arial" font-size="12" fill="black">Value Loss</text>
<text x="50" y="1555" font-family="Arial" font-size="10" fill="black">0.05559102</text>
<text x="50" y="1770" font-family="Arial" font-size="10" fill="black">0.04086002</text>
<path d="M50,1560 L75,1760 " stroke="blue" fill="none" />
<text x="50" y="1810" font-family="Arial" font-size="12" fill="black">Learning Rate</text>
<text x="50" y="1825" font-family="Arial" font-size="10" fill="black">0.0002</text>
<text x="50" y="2040" font-family="Arial" font-size="10" fill="black">0.0002</text>
<path d="M50,2030 L75,2030 " stroke="blue" fill="none" />
<text x="50" y="2080" font-family="Arial" font-size="12" fill="black">Entropy</text>
<text x="50" y="2095" font-family="Arial" font-size="10" fill="black">4.377412</text>
<text x="50" y="2310" font-family="Arial" font-size="10" fill="black">4.352534</text>
<path d="M50,2300 L75,2100 " stroke="blue" fill="none" />
<text x="750" y="730" font-family="Arial" font-size="12" fill="black">Simplified</text>
<text x="750" y="745" font-family="Arial" font-size="10" fill="black">-0.7837372</text>
<text x="750" y="960" font-family="Arial" font-size="10" fill="black">-1.404895</text>
<path d="M757.0313,750 L764.4531,900.5678 L771.875,824.1738 L779.2969,950 L786.7188,882.2318 L794.1406,805.9396 L801.5625,899.822 L808.9844,875.0126 L816.4063,890.8235 L823.8281,865.9634 L831.25,848.4748 L838.6719,824.1907 L846.0938,883.5197 L853.5156,849.051 L860.9375,882.3843 L868.3594,806.465 L875.7813,934.5958 L883.2031,848.9662 L890.625,849.8135 L898.0469,866.726 L905.4688,892.1284 L912.8906,900.1101 L920.3125,832.4605 L927.7344,840.7812 L935.1563,816.6666 L942.5781,841.476 L950,832.1894 L957.4219,866.3701 L964.8438,798.7205 L972.2656,866.5226 L979.6875,806.6005 L987.1094,874.1146 L994.5313,797.8901 L1001.953,866.1836 L1009.375,798.7374 L1016.797,849.7797 L1024.219,865.7261 L1031.641,815.3957 L1039.063,907.9393 L1046.484,865.6753 L1053.906,816.1582 L1061.328,899.9745 L1068.75,849.4238 L1076.172,840.2388 L1083.594,883.2486 L1091.016,823.5807 L1098.438,798.9747 L1105.859,814.9551 L1113.281,815.3448 L1120.703,831.5963 L1128.125,840.9506 L1135.547,849.1187 L1140.625,835.2606 " stroke="blue" fill="none" />
<text x="750" y="1000" font-family="Arial" font-size="12" fill="black">Simplified</text>
<text x="750" y="1015" font-family="Arial" font-size="10" fill="black">68.8421</text>
<text x="750" y="1230" font-family="Arial" font-size="10" fill="black">57.36842</text>
<path d="M757.0313,1220 L764.4531,1108.991 L771.875,1089.725 L779.2969,1020.917 L786.7188,1021.835 L794.1406,1020 L801.5625,1056.697 L808.9844,1089.725 L816.4063,1028.257 L823.8281,1058.532 L831.25,1029.174 L838.6719,1090.642 L846.0938,1091.56 L853.5156,1060.367 L860.9375,1030.092 L868.3594,1048.44 L875.7813,1104.404 L883.2031,1055.78 L890.625,1101.651 L898.0469,1099.816 L905.4688,1098.899 L912.8906,1072.294 L920.3125,1079.633 L927.7344,1071.376 L935.1563,1142.018 L942.5781,1108.991 L950,1064.954 L957.4219,1080.55 L964.8438,1087.89 L972.2656,1088.807 L979.6875,1055.78 L987.1094,1041.101 L994.5313,1042.936 L1001.953,1070.459 L1009.375,1088.807 L1016.797,1099.816 L1024.219,1045.688 L1031.641,1073.211 L1039.063,1037.431 L1046.484,1042.936 L1053.906,1114.495 L1061.328,1064.954 L1068.75,1080.55 L1076.172,1042.018 L1083.594,1076.881 L1091.016,1057.615 L1098.438,1101.651 L1105.859,1049.358 L1113.281,1070.459 L1120.703,1032.844 L1128.125,1080.55 L1135.547,1064.037 L1140.625,1054.792 " stroke="blue" fill="none" />
</svg>
