<svg width="2000" height="2500" xmlns="http://www.w3.org/2000/svg">
<text x="10" y="20" font-family="Arial" font-size="26" fill="black"> [Sorter] Training Session</text>
<text x="10" y="50" font-family="Arial" font-size="16" fill="black">[Statistics]</text>
<text x="50" y="70" font-family="Arial" font-size="12" fill="black">Started at: 5:45:28 PM, Thursday, January 18, 2024</text>
<text x="50" y="90" font-family="Arial" font-size="12" fill="black">Finished at: 5:52:22 PM, Thursday, January 18, 2024</text>
<text x="50" y="110" font-family="Arial" font-size="12" fill="black">Training Session Time: 0 hrs : 6 min : 52 sec</text>
<text x="50" y="130" font-family="Arial" font-size="12" fill="black">Inference Time: 1 hrs : 47 min : 21 sec        [Device: CPU]</text>
<text x="50" y="150" font-family="Arial" font-size="12" fill="black">Update Time: 0 hrs : 2 min : 57 sec        [Per iteration: 0 hrs : 0 min : 17.817 sec]        [Device: GPU]</text>
<text x="50" y="170" font-family="Arial" font-size="12" fill="black">Episode Count: 283</text>
<text x="50" y="190" font-family="Arial" font-size="12" fill="black">Inference Steps: 160000</text>
<text x="50" y="210" font-family="Arial" font-size="12" fill="black">Iterations: 10</text>
<text x="50" y="230" font-family="Arial" font-size="12" fill="black">Parallel Agents: 1</text>
<text x="50" y="250" font-family="Arial" font-size="12" fill="black">Timescale: 30.8</text>
<text x="50" y="270" font-family="Arial" font-size="12" fill="black">Trainer: PPO</text>
<text x="10" y="320" font-family="Arial" font-size="16" fill="black">[Hyperparameters]</text>
<text x="50" y="340" font-family="Arial" font-size="12" fill="black">Buffer Size: 16000        [Batch Size: 800       (x20)]</text>
<text x="50" y="360" font-family="Arial" font-size="12" fill="black">Num Epoch: 8</text>
<text x="50" y="380" font-family="Arial" font-size="12" fill="black">Time Horizon: 256</text>
<text x="50" y="400" font-family="Arial" font-size="12" fill="black">Gradient Cliping by Norm: 0.5</text>
<text x="50" y="420" font-family="Arial" font-size="12" fill="black">Learning Rate Schedule: False    </text>
<text x="10" y="470" font-family="Arial" font-size="16" fill="black">[Behaviour]</text>
<text x="50" y="490" font-family="Arial" font-size="12" fill="black">Space Size: 70</text>
<text x="50" y="510" font-family="Arial" font-size="12" fill="black">Continuous Actions: 0 [Standard Deviation: Trainable]     </text>
<text x="50" y="530" font-family="Arial" font-size="12" fill="black">Discrete Actions: 7</text>
<text x="50" y="550" font-family="Arial" font-size="12" fill="black">TargetFPS: 50 (physics update rate)</text>
<text x="50" y="570" font-family="Arial" font-size="12" fill="black">Observations Normalization: False</text>
<text x="10" y="620" font-family="Arial" font-size="16" fill="black">[Decision Requester]</text>
<text x="50" y="640" font-family="Arial" font-size="12" fill="black">Max Step: 1000000</text>
<text x="50" y="660" font-family="Arial" font-size="12" fill="black">Decision Period: 2      [Actions Between Decisions: True]</text>
<text x="10" y="710" font-family="Arial" font-size="16" fill="black">[Graphs]</text>
<text x="50" y="730" font-family="Arial" font-size="12" fill="black">Episode Reward (283)</text>
<text x="50" y="745" font-family="Arial" font-size="10" fill="black">7.287459</text>
<text x="50" y="960" font-family="Arial" font-size="10" fill="black">-0.5274997</text>
<path d="M50,779.5593 L51.5625,792.2271 L53.125,771.7535 L54.6875,824.6006 L56.25,823.449 L57.8125,888.0677 L59.375,836.2446 L60.9375,844.5621 L62.5,771.8815 L64.0625,778.4074 L65.625,779.4314 L67.1875,763.8198 L68.75,799.9045 L70.3125,841.4908 L71.875,781.8622 L73.4375,781.2227 L75,781.4785 L76.5625,787.4926 L78.125,774.9525 L79.6875,767.4026 L81.25,833.0456 L82.8125,779.9429 L84.375,875.6557 L85.9375,786.3412 L87.5,771.8815 L89.0625,904.1904 L90.625,778.5352 L92.1875,774.4406 L93.75,783.9097 L95.3125,768.5544 L96.875,905.0861 L98.4375,775.9763 L100,884.1011 L101.5625,927.6071 L103.125,772.9053 L104.6875,824.7283 L106.25,903.0388 L107.8125,772.7771 L109.375,943.6021 L110.9375,771.4976 L112.5,943.0902 L114.0625,770.4741 L115.625,849.936 L117.1875,772.3934 L118.75,769.066 L120.3125,781.4783 L121.875,868.1063 L123.4375,941.6826 L125,851.9835 L126.5625,774.5685 L128.125,884.101 L129.6875,772.1375 L131.25,847.5048 L132.8125,771.6254 L134.375,756.2703 L135.9375,781.0944 L137.5,771.6255 L139.0625,761.2606 L140.625,832.278 L142.1875,851.4713 L143.75,772.3936 L145.3125,909.6927 L146.875,776.9998 L148.4375,771.7534 L150,950 L151.5625,769.1946 L153.125,756.654 L154.6875,773.8008 L156.25,776.7439 L157.8125,762.6682 L159.375,945.2655 L160.9375,778.0237 L162.5,779.1752 L164.0625,854.5428 L165.625,859.149 L167.1875,833.3018 L168.75,815.2598 L170.3125,859.0214 L171.875,867.2105 L173.4375,767.9146 L175,782.3743 L176.5625,927.3511 L178.125,773.033 L179.6875,765.0995 L181.25,817.179 L182.8125,874.376 L184.375,819.4821 L185.9375,867.978 L187.5,767.9149 L189.0625,778.5355 L190.625,814.8755 L192.1875,773.6729 L193.75,769.0663 L195.3125,943.602 L196.875,859.7888 L198.4375,775.4643 L200,773.417 L201.5625,756.6539 L203.125,771.1138 L204.6875,922.4886 L206.25,777.2558 L207.8125,779.0474 L209.375,903.2947 L210.9375,782.3744 L212.5,924.9199 L214.0625,774.9527 L215.625,787.2365 L217.1875,844.3059 L218.75,769.5784 L220.3125,940.6589 L221.875,942.7063 L223.4375,777.7675 L225,771.2415 L226.5625,775.0804 L228.125,895.2332 L229.6875,942.4504 L231.25,790.564 L232.8125,765.2275 L234.375,756.6541 L235.9375,773.4172 L237.5,774.0566 L239.0625,847.249 L240.625,783.1419 L242.1875,925.1758 L243.75,868.4899 L245.3125,765.2275 L246.875,766.3793 L248.4375,761.6446 L250,775.848 L251.5625,766.7631 L253.125,766.6351 L254.6875,910.5884 L256.25,770.9855 L257.8125,774.0568 L259.375,769.0661 L260.9375,784.2937 L262.5,855.4383 L264.0625,853.6467 L265.625,773.5448 L267.1875,770.9857 L268.75,791.8435 L270.3125,768.8102 L271.875,836.7563 L273.4375,766.1232 L275,767.4027 L276.5625,830.7421 L278.125,775.4641 L279.6875,767.0189 L281.25,765.6112 L282.8125,765.7395 L284.375,777.2557 L285.9375,767.6586 L287.5,823.1926 L289.0625,876.8071 L290.625,776.9997 L292.1875,778.4078 L293.75,781.4785 L295.3125,758.5735 L296.875,772.7773 L298.4375,821.0176 L300,927.4791 L301.5625,779.3032 L303.125,855.0542 L304.6875,761.2605 L306.25,767.1468 L307.8125,899.3279 L309.375,767.1469 L310.9375,832.6616 L312.5,912.8917 L314.0625,774.0568 L315.625,776.2321 L317.1875,765.0994 L318.75,765.3553 L320.3125,764.2037 L321.875,763.5641 L323.4375,876.1674 L325,773.2891 L326.5625,769.4502 L328.125,764.5876 L329.6875,774.5685 L331.25,946.1612 L332.8125,804.3829 L334.375,752.9432 L335.9375,818.2026 L337.5,775.2083 L339.0625,763.1802 L340.625,778.0233 L342.1875,757.6779 L343.75,760.8768 L345.3125,750 L346.875,772.6491 L348.4375,767.9147 L350,768.9383 L351.5625,890.2429 L353.125,775.5922 L354.6875,919.2897 L356.25,823.7047 L357.8125,769.1941 L359.375,819.4821 L360.9375,755.5024 L362.5,761.5167 L364.0625,777.6396 L365.625,819.9939 L367.1875,760.6208 L368.75,776.7441 L370.3125,847.761 L371.875,767.5306 L373.4375,758.4456 L375,892.9299 L376.5625,774.0566 L378.125,762.7961 L379.6875,767.2748 L381.25,877.7029 L382.8125,763.5639 L384.375,883.717 L385.9375,858.2532 L387.5,767.7867 L389.0625,769.8339 L390.625,776.8719 L392.1875,908.7969 L393.75,943.73 L395.3125,773.4171 L396.875,904.0624 L398.4375,852.7511 L400,765.2275 L401.5625,773.5448 L403.125,766.507 L404.6875,771.8817 L406.25,761.3886 L407.8125,772.1372 L409.375,759.2131 L410.9375,764.9714 L412.5,757.1659 L414.0625,865.803 L415.625,808.2214 L417.1875,761.6443 L418.75,772.2651 L420.3125,909.5647 L421.875,759.5969 L423.4375,765.6114 L425,853.5187 L426.5625,765.2275 L428.125,864.0115 L429.6875,765.9951 L431.25,907.2614 L432.8125,762.0284 L434.375,771.6254 L435.9375,763.5639 L437.5,924.1522 L439.0625,773.8008 L440.625,771.4975 L442.1875,919.4176 L443.75,759.4691 L445.3125,810.269 L446.875,769.7061 L448.4375,760.4929 L450,766.2513 L451.5625,760.4929 L453.125,927.863 L454.6875,764.4596 L456.25,923.3844 L457.8125,762.1563 L459.375,780.199 L460.9375,883.0773 L462.5,767.1472 L464.0625,758.3177 L465.625,765.995 L467.1875,770.346 L468.75,758.9573 L470.3125,768.4266 L471.875,836.2444 L473.4375,872.9685 L475,941.9385 L476.5625,942.9622 L478.125,805.6625 L479.6875,841.6186 L481.25,907.0055 L482.8125,766.5071 L484.375,759.5971 L485.9375,812.0604 L487.5,769.578 L489.0625,758.9574 L490.625,942.5784 " stroke="blue" fill="none" />
<text x="50" y="1000" font-family="Arial" font-size="12" fill="black">Episode Length (283)</text>
<text x="50" y="1015" font-family="Arial" font-size="10" fill="black">873</text>
<text x="50" y="1230" font-family="Arial" font-size="10" fill="black">33</text>
<path d="M50,1043.81 L51.5625,1020 L53.125,1058.095 L54.6875,1055 L56.25,1057.143 L57.8125,1175 L59.375,1080.952 L60.9375,1065.476 L62.5,1057.857 L64.0625,1045.714 L65.625,1043.81 L67.1875,1072.857 L68.75,1053.333 L70.3125,1118.81 L71.875,1039.286 L73.4375,1040.476 L75,1040 L76.5625,1028.81 L78.125,1052.143 L79.6875,1066.19 L81.25,1086.905 L82.8125,1042.857 L84.375,1150.476 L85.9375,1030.952 L87.5,1057.857 L89.0625,1145 L90.625,1045.476 L92.1875,1053.095 L93.75,1035.476 L95.3125,1064.048 L96.875,1190.952 L98.4375,1050.238 L100,1134.762 L101.5625,1196.667 L103.125,1055.952 L104.6875,1102.381 L106.25,1194.762 L107.8125,1056.19 L109.375,1214.524 L110.9375,1058.571 L112.5,1215.476 L114.0625,1060.476 L115.625,1103.095 L117.1875,1056.905 L118.75,1063.095 L120.3125,1040 L121.875,1116.905 L123.4375,1218.095 L125,1099.286 L126.5625,1052.857 L128.125,1134.762 L129.6875,1057.381 L131.25,1107.619 L132.8125,1058.333 L134.375,1086.905 L135.9375,1040.714 L137.5,1058.333 L139.0625,1077.619 L140.625,1088.333 L142.1875,1147.857 L143.75,1056.905 L145.3125,1182.381 L146.875,1048.333 L148.4375,1058.095 L150,1202.619 L151.5625,1062.857 L153.125,1086.19 L154.6875,1054.286 L156.25,1048.81 L157.8125,1075 L159.375,1211.429 L160.9375,1046.429 L162.5,1044.286 L164.0625,1094.524 L165.625,1133.571 L167.1875,1086.429 L168.75,1072.381 L170.3125,1133.81 L171.875,1118.571 L173.4375,1065.238 L175,1038.333 L176.5625,1197.143 L178.125,1055.714 L179.6875,1070.476 L181.25,1068.81 L182.8125,1152.857 L184.375,1112.143 L185.9375,1164.762 L187.5,1065.238 L189.0625,1045.476 L190.625,1120.714 L192.1875,1054.524 L193.75,1063.095 L195.3125,1214.524 L196.875,1132.381 L198.4375,1051.19 L200,1055 L201.5625,1086.19 L203.125,1059.286 L204.6875,1206.19 L206.25,1047.857 L207.8125,1044.524 L209.375,1146.667 L210.9375,1038.333 L212.5,1201.667 L214.0625,1052.143 L215.625,1029.286 L217.1875,1113.571 L218.75,1062.143 L220.3125,1220 L221.875,1216.19 L223.4375,1046.905 L225,1059.048 L226.5625,1051.905 L228.125,1161.667 L229.6875,1216.667 L231.25,1023.095 L232.8125,1070.238 L234.375,1086.19 L235.9375,1055 L237.5,1053.81 L239.0625,1108.095 L240.625,1036.905 L242.1875,1201.19 L243.75,1163.81 L245.3125,1070.238 L246.875,1068.095 L248.4375,1076.905 L250,1050.476 L251.5625,1067.381 L253.125,1067.619 L254.6875,1180.714 L256.25,1059.524 L257.8125,1053.81 L259.375,1063.095 L260.9375,1034.762 L262.5,1140.476 L264.0625,1143.81 L265.625,1054.762 L267.1875,1059.524 L268.75,1020.714 L270.3125,1063.571 L271.875,1127.619 L273.4375,1068.571 L275,1066.19 L276.5625,1138.81 L278.125,1051.19 L279.6875,1066.905 L281.25,1069.524 L282.8125,1069.286 L284.375,1047.857 L285.9375,1065.714 L287.5,1105.238 L289.0625,1148.333 L290.625,1048.333 L292.1875,1045.714 L293.75,1040 L295.3125,1082.619 L296.875,1056.19 L298.4375,1109.286 L300,1196.905 L301.5625,1044.048 L303.125,1141.19 L304.6875,1077.619 L306.25,1066.667 L307.8125,1154.048 L309.375,1066.667 L310.9375,1135.238 L312.5,1176.429 L314.0625,1053.81 L315.625,1049.762 L317.1875,1070.476 L318.75,1070 L320.3125,1072.143 L321.875,1073.333 L323.4375,1149.524 L325,1055.238 L326.5625,1062.381 L328.125,1071.429 L329.6875,1052.857 L331.25,1209.762 L332.8125,1092.619 L334.375,1093.095 L335.9375,1066.905 L337.5,1051.667 L339.0625,1074.048 L340.625,1046.429 L342.1875,1084.286 L343.75,1078.333 L345.3125,1098.571 L346.875,1056.429 L348.4375,1065.238 L350,1063.333 L351.5625,1170.952 L353.125,1050.952 L354.6875,1212.143 L356.25,1104.286 L357.8125,1062.857 L359.375,1064.524 L360.9375,1088.333 L362.5,1077.143 L364.0625,1047.143 L365.625,1111.19 L367.1875,1078.81 L368.75,1048.81 L370.3125,1107.143 L371.875,1065.952 L373.4375,1082.857 L375,1165.952 L376.5625,1053.81 L378.125,1074.762 L379.6875,1066.429 L381.25,1194.286 L382.8125,1073.333 L384.375,1183.095 L385.9375,1135.238 L387.5,1065.476 L389.0625,1061.667 L390.625,1048.571 L392.1875,1184.048 L393.75,1214.286 L395.3125,1055 L396.875,1192.857 L398.4375,1145.476 L400,1070.238 L401.5625,1054.762 L403.125,1067.857 L404.6875,1057.857 L406.25,1077.381 L407.8125,1057.381 L409.375,1081.429 L410.9375,1070.714 L412.5,1085.238 L414.0625,1121.19 L415.625,1085.476 L417.1875,1076.905 L418.75,1057.143 L420.3125,1182.619 L421.875,1080.714 L423.4375,1069.524 L425,1144.048 L426.5625,1070.238 L428.125,1124.524 L429.6875,1068.81 L431.25,1186.905 L432.8125,1076.19 L434.375,1058.333 L435.9375,1073.333 L437.5,1203.095 L439.0625,1054.286 L440.625,1058.571 L442.1875,1164.286 L443.75,1080.952 L445.3125,1081.667 L446.875,1061.905 L448.4375,1079.048 L450,1068.333 L451.5625,1079.048 L453.125,1196.19 L454.6875,1071.667 L456.25,1204.524 L457.8125,1075.952 L459.375,1042.381 L460.9375,1184.286 L462.5,1066.667 L464.0625,1083.095 L465.625,1068.81 L467.1875,1060.714 L468.75,1081.905 L470.3125,1064.286 L471.875,1128.571 L473.4375,1155.476 L475,1217.619 L476.5625,1215.714 L478.125,1090.238 L479.6875,1118.571 L481.25,1187.381 L482.8125,1067.857 L484.375,1080.714 L485.9375,1078.333 L487.5,1062.143 L489.0625,1081.905 L490.625,1216.429 " stroke="blue" fill="none" />
<text x="50" y="1270" font-family="Arial" font-size="12" fill="black">Policy Loss</text>
<text x="50" y="1285" font-family="Arial" font-size="10" fill="black">0.6089007</text>
<text x="50" y="1500" font-family="Arial" font-size="10" fill="black">0.5102505</text>
<path d="M50,1350.31 L75,1381.558 L100,1361.297 L125,1429.183 L150,1347.914 L175,1290 L200,1367.889 L225,1490 L250,1428.413 L275,1474.59 " stroke="blue" fill="none" />
<text x="50" y="1540" font-family="Arial" font-size="12" fill="black">Value Loss</text>
<text x="50" y="1555" font-family="Arial" font-size="10" fill="black">0.0238493</text>
<text x="50" y="1770" font-family="Arial" font-size="10" fill="black">0.01446798</text>
<path d="M50,1744.427 L75,1627.459 L100,1668.083 L125,1604.116 L150,1721.153 L175,1760 L200,1730.28 L225,1656.927 L250,1728.434 L275,1560 " stroke="blue" fill="none" />
<text x="50" y="1810" font-family="Arial" font-size="12" fill="black">Learning Rate</text>
<text x="50" y="1825" font-family="Arial" font-size="10" fill="black">0.0001</text>
<text x="50" y="2040" font-family="Arial" font-size="10" fill="black">0.0001</text>
<path d="M50,2030 L75,2030 L100,2030 L125,2030 L150,2030 L175,2030 L200,2030 L225,2030 L250,2030 L275,2030 " stroke="blue" fill="none" />
<text x="50" y="2080" font-family="Arial" font-size="12" fill="black">Entropy</text>
<text x="50" y="2095" font-family="Arial" font-size="10" fill="black">0.185487</text>
<text x="50" y="2310" font-family="Arial" font-size="10" fill="black">0.1398393</text>
<path d="M50,2100 L75,2112.579 L100,2139.065 L125,2170.479 L150,2206.247 L175,2228.372 L200,2247.235 L225,2266.503 L250,2286.913 L275,2300 " stroke="blue" fill="none" />
<text x="750" y="730" font-family="Arial" font-size="12" fill="black">Simplified</text>
<text x="750" y="745" font-family="Arial" font-size="10" fill="black">5.90351</text>
<text x="750" y="960" font-family="Arial" font-size="10" fill="black">4.365116</text>
<path d="M778.125,824.7198 L807.8125,928.3806 L837.5,936.9678 L867.1875,908.1274 L896.875,942.7155 L926.5625,917.5357 L956.25,879.0815 L985.9375,760.2982 L1015.625,888.7291 L1045.313,750 L1075,830.9453 L1104.688,894.0658 L1134.375,809.9728 L1164.063,863.0359 L1190.625,950 " stroke="blue" fill="none" />
<text x="750" y="1000" font-family="Arial" font-size="12" fill="black">Simplified</text>
<text x="750" y="1015" font-family="Arial" font-size="10" fill="black">703.1053</text>
<text x="750" y="1230" font-family="Arial" font-size="10" fill="black">468.6471</text>
<path d="M778.125,1020 L807.8125,1135.339 L837.5,1151.008 L867.1875,1143.959 L896.875,1170.403 L926.5625,1140.592 L956.25,1146.159 L985.9375,1068.578 L1015.625,1142.477 L1045.313,1100.05 L1075,1128.515 L1104.688,1180.37 L1134.375,1138.077 L1164.063,1167.215 L1190.625,1220 " stroke="blue" fill="none" />
</svg>
