<svg width="2000" height="2500" xmlns="http://www.w3.org/2000/svg">
<text x="10" y="20" font-family="Arial" font-size="26" fill="black"> [Sorter] Training Session</text>
<text x="10" y="50" font-family="Arial" font-size="16" fill="black">[Statistics]</text>
<text x="50" y="70" font-family="Arial" font-size="12" fill="black">Started at: 8:33:04 PM, Monday, January 15, 2024</text>
<text x="50" y="90" font-family="Arial" font-size="12" fill="black">Finished at: 8:40:48 PM, Monday, January 15, 2024</text>
<text x="50" y="110" font-family="Arial" font-size="12" fill="black">Training Session Time: 0 hrs : 7 min : 18 sec</text>
<text x="50" y="130" font-family="Arial" font-size="12" fill="black">Inference Time: 1 hrs : 29 min : 2 sec        [Device: CPU]</text>
<text x="50" y="150" font-family="Arial" font-size="12" fill="black">Update Time: 0 hrs : 4 min : 0 sec        [Per iteration: 0 hrs : 0 min : 39.623 sec]        [Device: GPU]</text>
<text x="50" y="170" font-family="Arial" font-size="12" fill="black">Episode Count: 187</text>
<text x="50" y="190" font-family="Arial" font-size="12" fill="black">Inference Steps: 240000</text>
<text x="50" y="210" font-family="Arial" font-size="12" fill="black">Iterations: 6</text>
<text x="50" y="230" font-family="Arial" font-size="12" fill="black">Parallel Agents: 1</text>
<text x="50" y="250" font-family="Arial" font-size="12" fill="black">Timescale: 25.77</text>
<text x="50" y="270" font-family="Arial" font-size="12" fill="black">Trainer: PPO</text>
<text x="10" y="320" font-family="Arial" font-size="16" fill="black">[Hyperparameters]</text>
<text x="50" y="340" font-family="Arial" font-size="12" fill="black">Buffer Size: 40000        [Batch Size: 2000       (x20)]</text>
<text x="50" y="360" font-family="Arial" font-size="12" fill="black">Num Epoch: 8</text>
<text x="50" y="380" font-family="Arial" font-size="12" fill="black">Time Horizon: 512</text>
<text x="50" y="400" font-family="Arial" font-size="12" fill="black">Gradient Cliping by Norm: 0.5</text>
<text x="50" y="420" font-family="Arial" font-size="12" fill="black">Learning Rate Schedule: False    </text>
<text x="10" y="470" font-family="Arial" font-size="16" fill="black">[Behaviour]</text>
<text x="50" y="490" font-family="Arial" font-size="12" fill="black">Space Size: 70</text>
<text x="50" y="510" font-family="Arial" font-size="12" fill="black">Continuous Actions: 0 [Standard Deviation: Trainable]     </text>
<text x="50" y="530" font-family="Arial" font-size="12" fill="black">Discrete Actions: 7</text>
<text x="50" y="550" font-family="Arial" font-size="12" fill="black">TargetFPS: 50 (physics update rate)</text>
<text x="50" y="570" font-family="Arial" font-size="12" fill="black">Observations Normalization: False</text>
<text x="10" y="620" font-family="Arial" font-size="16" fill="black">[Decision Requester]</text>
<text x="50" y="640" font-family="Arial" font-size="12" fill="black">Max Step: 5000</text>
<text x="50" y="660" font-family="Arial" font-size="12" fill="black">Decision Period: 1</text>
<text x="10" y="710" font-family="Arial" font-size="16" fill="black">[Graphs]</text>
<text x="50" y="730" font-family="Arial" font-size="12" fill="black">Episode Reward (187)</text>
<text x="50" y="745" font-family="Arial" font-size="10" fill="black">10.47245</text>
<text x="50" y="960" font-family="Arial" font-size="10" fill="black">0.7050002</text>
<path d="M50,890.7233 L51.5625,870.0419 L53.125,877.6183 L54.6875,785.527 L56.25,924.2514 L57.8125,884.2732 L59.375,861.0323 L60.9375,868.8645 L62.5,778.1553 L64.0625,873.7277 L65.625,858.319 L67.1875,868.4037 L68.75,867.4824 L70.3125,876.8503 L71.875,886.0137 L73.4375,875.3146 L75,864.7181 L76.5625,878.5909 L78.125,876.492 L79.6875,895.8425 L81.25,770.6812 L82.8125,872.2432 L84.375,875.0587 L85.9375,766.6884 L87.5,865.0251 L89.0625,865.1788 L90.625,868.8133 L92.1875,920.3609 L93.75,867.124 L95.3125,785.6804 L96.875,866.7657 L98.4375,856.7833 L100,888.4197 L101.5625,784.5031 L103.125,768.8896 L104.6875,860.8786 L106.25,864.974 L107.8125,867.5847 L109.375,884.9899 L110.9375,866.5609 L112.5,863.8989 L114.0625,864.3085 L115.625,888.8292 L117.1875,792.5402 L118.75,762.8491 L120.3125,857.3464 L121.875,778.2578 L123.4375,896.4567 L125,770.6301 L126.5625,881.7647 L128.125,875.5707 L129.6875,950 L131.25,767.7123 L132.8125,763.7705 L134.375,896.6104 L135.9375,868.9157 L137.5,767.1492 L139.0625,796.0724 L140.625,871.0657 L142.1875,885.7577 L143.75,911.9678 L145.3125,861.9537 L146.875,877.1063 L148.4375,868.9669 L150,874.3932 L151.5625,874.4443 L153.125,766.6373 L154.6875,769.8622 L156.25,859.1382 L157.8125,764.5385 L159.375,773.3434 L160.9375,863.7965 L162.5,868.0966 L164.0625,783.1722 L165.625,872.6015 L167.1875,870.0419 L168.75,862.7216 L170.3125,870.605 L171.875,874.1372 L173.4375,871.8848 L175,864.8716 L176.5625,859.7524 L178.125,873.0622 L179.6875,880.6386 L181.25,785.3734 L182.8125,866.6121 L184.375,906.695 L185.9375,774.316 L187.5,866.9192 L189.0625,868.3526 L190.625,893.5388 L192.1875,871.7313 L193.75,786.6531 L195.3125,886.5768 L196.875,775.6981 L198.4375,866.049 L200,856.4249 L201.5625,884.733 L203.125,876.1849 L204.6875,860.1108 L206.25,874.5468 L207.8125,871.68 L209.375,865.2299 L210.9375,762.1835 L212.5,867.4311 L214.0625,872.9086 L215.625,885.3481 L217.1875,768.8384 L218.75,761.3134 L220.3125,902.2413 L221.875,865.6395 L223.4375,890.1091 L225,776.5173 L226.5625,872.4991 L228.125,863.1311 L229.6875,764.7944 L231.25,873.9836 L232.8125,786.09 L234.375,895.7386 L235.9375,887.1911 L237.5,885.9625 L239.0625,898.5045 L240.625,864.4621 L242.1875,874.4955 L243.75,873.8813 L245.3125,890.7745 L246.875,861.0834 L248.4375,907.6147 L250,870.7074 L251.5625,877.5671 L253.125,875.7755 L254.6875,863.7966 L256.25,870.9121 L257.8125,861.6465 L259.375,868.3525 L260.9375,878.4373 L262.5,877.1575 L264.0625,867.6871 L265.625,876.5432 L267.1875,885.6553 L268.75,868.3525 L270.3125,865.6906 L271.875,774.9302 L273.4375,883.8124 L275,879.1539 L276.5625,924.3563 L278.125,761.1599 L279.6875,895.4315 L281.25,880.3826 L282.8125,861.9025 L284.375,889.8517 L285.9375,885.8089 L287.5,770.7327 L289.0625,861.4929 L290.625,810.7644 L292.1875,900.8081 L293.75,877.5159 L295.3125,901.5248 L296.875,872.8062 L298.4375,911.1487 L300,896.2505 L301.5625,784.2471 L303.125,792.5402 L304.6875,912.838 L306.25,775.5958 L307.8125,893.9996 L309.375,873.7277 L310.9375,870.2979 L312.5,874.3415 L314.0625,764.2825 L315.625,750 L317.1875,880.7922 L318.75,871.6801 L320.3125,873.7278 L321.875,861.5954 L323.4375,856.3738 L325,882.2256 L326.5625,772.1147 L328.125,792.6426 L329.6875,782.1995 L331.25,768.0194 L332.8125,865.1787 L334.375,760.4431 L335.9375,781.3805 L337.5,798.069 L339.0625,774.1111 L340.625,881.2017 " stroke="blue" fill="none" />
<text x="50" y="1000" font-family="Arial" font-size="12" fill="black">Episode Length (187)</text>
<text x="50" y="1015" font-family="Arial" font-size="10" fill="black">2417</text>
<text x="50" y="1230" font-family="Arial" font-size="10" fill="black">118</text>
<path d="M50,1077.242 L51.5625,1112.301 L53.125,1099.426 L54.6875,1081.94 L56.25,1194.163 L57.8125,1088.117 L59.375,1127.612 L60.9375,1114.302 L62.5,1094.467 L64.0625,1106.037 L65.625,1132.223 L67.1875,1115.085 L68.75,1116.651 L70.3125,1100.731 L71.875,1085.159 L73.4375,1103.341 L75,1121.348 L76.5625,1097.773 L78.125,1101.34 L79.6875,1068.456 L81.25,1107.168 L82.8125,1108.56 L84.375,1103.776 L85.9375,1113.954 L87.5,1120.826 L89.0625,1120.565 L90.625,1114.389 L92.1875,1200.774 L93.75,1117.26 L95.3125,1081.679 L96.875,1117.869 L98.4375,1134.833 L100,1081.07 L101.5625,1083.68 L103.125,1110.213 L104.6875,1127.873 L106.25,1120.913 L107.8125,1116.477 L109.375,1086.899 L110.9375,1118.217 L112.5,1122.74 L114.0625,1122.044 L115.625,1080.374 L117.1875,1070.022 L118.75,1120.479 L120.3125,1133.876 L121.875,1094.293 L123.4375,1067.412 L125,1107.255 L126.5625,1092.379 L128.125,1102.906 L129.6875,1220 L131.25,1112.214 L132.8125,1118.913 L134.375,1067.151 L135.9375,1114.215 L137.5,1113.171 L139.0625,1064.019 L140.625,1110.561 L142.1875,1085.594 L143.75,1041.053 L145.3125,1126.046 L146.875,1100.296 L148.4375,1114.128 L150,1104.906 L151.5625,1104.819 L153.125,1114.041 L154.6875,1108.56 L156.25,1130.831 L157.8125,1117.608 L159.375,1102.645 L160.9375,1122.914 L162.5,1115.607 L164.0625,1085.942 L165.625,1107.951 L167.1875,1112.301 L168.75,1124.741 L170.3125,1111.344 L171.875,1105.341 L173.4375,1109.169 L175,1121.087 L176.5625,1129.787 L178.125,1107.168 L179.6875,1094.293 L181.25,1082.201 L182.8125,1118.13 L184.375,1050.013 L185.9375,1100.992 L187.5,1117.608 L189.0625,1115.172 L190.625,1072.371 L192.1875,1109.43 L193.75,1080.026 L195.3125,1084.202 L196.875,1098.643 L198.4375,1119.087 L200,1135.442 L201.5625,1156.929 L203.125,1101.862 L204.6875,1129.178 L206.25,1104.646 L207.8125,1109.517 L209.375,1120.479 L210.9375,1121.609 L212.5,1116.738 L214.0625,1107.429 L215.625,1086.29 L217.1875,1110.3 L218.75,1123.088 L220.3125,1057.582 L221.875,1119.782 L223.4375,1078.199 L225,1097.251 L226.5625,1108.125 L228.125,1124.045 L229.6875,1117.173 L231.25,1105.602 L232.8125,1080.983 L234.375,1173.023 L235.9375,1083.158 L237.5,1085.246 L239.0625,1063.932 L240.625,1121.783 L242.1875,1104.733 L243.75,1105.776 L245.3125,1077.068 L246.875,1127.525 L248.4375,1187.638 L250,1111.17 L251.5625,1099.513 L253.125,1102.558 L254.6875,1122.914 L256.25,1110.822 L257.8125,1126.568 L259.375,1115.172 L260.9375,1098.034 L262.5,1100.209 L264.0625,1116.303 L265.625,1101.253 L267.1875,1085.768 L268.75,1115.172 L270.3125,1119.696 L271.875,1099.948 L273.4375,1088.9 L275,1096.816 L276.5625,1020 L278.125,1123.349 L279.6875,1173.545 L281.25,1094.728 L282.8125,1126.133 L284.375,1183.027 L285.9375,1085.507 L287.5,1107.081 L289.0625,1126.829 L290.625,1039.052 L292.1875,1060.017 L293.75,1099.6 L295.3125,1058.799 L296.875,1107.603 L298.4375,1042.445 L300,1172.153 L301.5625,1084.115 L303.125,1070.022 L304.6875,1039.574 L306.25,1098.817 L307.8125,1071.588 L309.375,1106.037 L310.9375,1111.866 L312.5,1139.791 L314.0625,1118.043 L315.625,1142.314 L317.1875,1094.032 L318.75,1109.517 L320.3125,1106.037 L321.875,1126.655 L323.4375,1135.528 L325,1091.596 L326.5625,1104.733 L328.125,1069.848 L329.6875,1087.595 L331.25,1111.692 L332.8125,1120.565 L334.375,1124.567 L335.9375,1088.987 L337.5,1060.626 L339.0625,1101.34 L340.625,1093.336 " stroke="blue" fill="none" />
<text x="50" y="1270" font-family="Arial" font-size="12" fill="black">Policy Loss</text>
<text x="50" y="1285" font-family="Arial" font-size="10" fill="black">0.3619145</text>
<text x="50" y="1500" font-family="Arial" font-size="10" fill="black">0.2715761</text>
<path d="M50,1415.218 L75,1490 L100,1428.185 L125,1463.739 L150,1290 L175,1442.693 " stroke="blue" fill="none" />
<text x="50" y="1540" font-family="Arial" font-size="12" fill="black">Value Loss</text>
<text x="50" y="1555" font-family="Arial" font-size="10" fill="black">0.04918322</text>
<text x="50" y="1770" font-family="Arial" font-size="10" fill="black">0.01624515</text>
<path d="M50,1708.109 L75,1560 L100,1633.559 L125,1633.923 L150,1760 L175,1638.28 " stroke="blue" fill="none" />
<text x="50" y="1810" font-family="Arial" font-size="12" fill="black">Learning Rate</text>
<text x="50" y="1825" font-family="Arial" font-size="10" fill="black">0.0003</text>
<text x="50" y="2040" font-family="Arial" font-size="10" fill="black">0.0003</text>
<path d="M50,2030 L75,2030 L100,2030 L125,2030 L150,2030 L175,2030 " stroke="blue" fill="none" />
<text x="50" y="2080" font-family="Arial" font-size="12" fill="black">Entropy</text>
<text x="50" y="2095" font-family="Arial" font-size="10" fill="black">0.1270441</text>
<text x="50" y="2310" font-family="Arial" font-size="10" fill="black">0.1105811</text>
<path d="M50,2100 L75,2118.834 L100,2191.111 L125,2260.656 L150,2300 L175,2173.283 " stroke="blue" fill="none" />
<text x="750" y="730" font-family="Arial" font-size="12" fill="black">Simplified</text>
<text x="750" y="745" font-family="Arial" font-size="10" fill="black">6.8043</text>
<text x="750" y="960" font-family="Arial" font-size="10" fill="black">4.723881</text>
<path d="M778.125,945.0415 L807.8125,857.3438 L837.5,829.3388 L867.1875,832.9946 L896.875,889.1322 L926.5625,874.2688 L956.25,950 L985.9375,949.9621 L1015.625,853.2468 L1040.625,750 " stroke="blue" fill="none" />
<text x="750" y="1000" font-family="Arial" font-size="12" fill="black">Simplified</text>
<text x="750" y="1015" font-family="Arial" font-size="10" fill="black">1560.474</text>
<text x="750" y="1230" font-family="Arial" font-size="10" fill="black">1345.947</text>
<path d="M778.125,1174.269 L807.8125,1220 L837.5,1171.619 L867.1875,1118.185 L896.875,1096.693 L926.5625,1193.602 L956.25,1194.239 L985.9375,1174.76 L1015.625,1020 L1040.625,1096.656 " stroke="blue" fill="none" />
</svg>
