<svg width="2000" height="2500" xmlns="http://www.w3.org/2000/svg">
<text x="10" y="20" font-family="Arial" font-size="26" fill="black"> [Sorter] Training Session</text>
<text x="10" y="50" font-family="Arial" font-size="16" fill="black">[Statistics]</text>
<text x="50" y="70" font-family="Arial" font-size="12" fill="black">Started at: 5:09:12 PM, Sunday, January 14, 2024</text>
<text x="50" y="90" font-family="Arial" font-size="12" fill="black">Finished at: 6:26:22 PM, Sunday, January 14, 2024</text>
<text x="50" y="110" font-family="Arial" font-size="12" fill="black">Training Session Time: 1 hrs : 17 min : 7 sec</text>
<text x="50" y="130" font-family="Arial" font-size="12" fill="black">Inference Time: 12 hrs : 49 min : 25 sec        [Device: CPU]</text>
<text x="50" y="150" font-family="Arial" font-size="12" fill="black">Update Time: 0 hrs : 39 min : 8 sec        [Per iteration: 0 hrs : 0 min : 49.269 sec]        [Device: GPU]</text>
<text x="50" y="170" font-family="Arial" font-size="12" fill="black">Episode Count: 464</text>
<text x="50" y="190" font-family="Arial" font-size="12" fill="black">Inference Steps: 2350000</text>
<text x="50" y="210" font-family="Arial" font-size="12" fill="black">Iterations: 47</text>
<text x="50" y="230" font-family="Arial" font-size="12" fill="black">Parallel Agents: 1</text>
<text x="50" y="250" font-family="Arial" font-size="12" fill="black">Timescale: 24</text>
<text x="50" y="270" font-family="Arial" font-size="12" fill="black">Trainer: PPO</text>
<text x="10" y="320" font-family="Arial" font-size="16" fill="black">[Hyperparameters]</text>
<text x="50" y="340" font-family="Arial" font-size="12" fill="black">Buffer Size: 50000        [Batch Size: 2500       (x20)]</text>
<text x="50" y="360" font-family="Arial" font-size="12" fill="black">Num Epoch: 8</text>
<text x="50" y="380" font-family="Arial" font-size="12" fill="black">Time Horizon: 1024</text>
<text x="50" y="400" font-family="Arial" font-size="12" fill="black">Gradient Cliping by Norm: 0.5</text>
<text x="50" y="420" font-family="Arial" font-size="12" fill="black">Learning Rate Schedule: False    </text>
<text x="10" y="470" font-family="Arial" font-size="16" fill="black">[Behaviour]</text>
<text x="50" y="490" font-family="Arial" font-size="12" fill="black">Space Size: 70</text>
<text x="50" y="510" font-family="Arial" font-size="12" fill="black">Continuous Actions: 0 [Standard Deviation: Trainable]     </text>
<text x="50" y="530" font-family="Arial" font-size="12" fill="black">Discrete Actions: 7</text>
<text x="50" y="550" font-family="Arial" font-size="12" fill="black">TargetFPS: 50 (physics update rate)</text>
<text x="50" y="570" font-family="Arial" font-size="12" fill="black">Observations Normalization: False</text>
<text x="10" y="620" font-family="Arial" font-size="16" fill="black">[Decision Requester]</text>
<text x="50" y="640" font-family="Arial" font-size="12" fill="black">Max Step: 10000</text>
<text x="50" y="660" font-family="Arial" font-size="12" fill="black">Decision Period: 1</text>
<text x="10" y="710" font-family="Arial" font-size="16" fill="black">[Graphs]</text>
<text x="50" y="730" font-family="Arial" font-size="12" fill="black">Episode Reward (464)</text>
<text x="50" y="745" font-family="Arial" font-size="10" fill="black">-0.3924997</text>
<text x="50" y="960" font-family="Arial" font-size="10" fill="black">-24.00074</text>
<path d="M50,755.1677 L50.78125,949.9982 L51.5625,812.2042 L52.34375,767.7905 L53.125,754.9347 L53.90625,822.4763 L54.6875,950 L55.46875,846.6591 L56.25,783.9716 L57.03125,783.6539 L57.8125,762.9828 L58.59375,758.4716 L59.375,757.7515 L60.15625,757.4127 L60.9375,760.6955 L61.71875,865.1447 L62.5,758.8952 L63.28125,774.0385 L64.0625,753.8334 L64.84375,754.2993 L65.625,941.652 L66.40625,919.6615 L67.1875,949.9982 L67.96875,949.9983 L68.75,928.3892 L69.53125,860.1263 L70.3125,949.9984 L71.09375,949.9984 L71.875,904.5366 L72.65625,815.2752 L73.4375,789.8386 L74.21875,949.9984 L75,834.4206 L75.78125,949.9984 L76.5625,949.9982 L77.34375,929.872 L78.125,949.9982 L78.90625,814.5125 L79.6875,949.9982 L80.46875,776.9402 L81.25,949.9984 L82.03125,949.9984 L82.8125,949.9982 L83.59375,949.9982 L84.375,794.7098 L85.15625,949.9982 L85.9375,861.4602 L86.71875,949.9984 L87.5,919.6407 L88.28125,848.162 L89.0625,751.2919 L89.84375,949.9982 L90.625,949.9984 L91.40625,949.9982 L92.1875,949.9982 L92.96875,759.6789 L93.75,934.0437 L94.53125,925.3849 L95.3125,949.9982 L96.09375,949.9982 L96.875,949.9982 L97.65625,750 L98.4375,949.9984 L99.21875,949.9983 L100,803.6262 L100.7813,949.9982 L101.5625,924.8516 L102.3438,789.6266 L103.125,794.6885 L103.9063,949.9982 L104.6875,759.0646 L105.4688,949.9982 L106.25,770.3956 L107.0313,816.8001 L107.8125,759.8483 L108.5938,828.7653 L109.375,949.9982 L110.1563,854.2606 L110.9375,949.9983 L111.7188,938.1336 L112.5,949.9982 L113.2813,949.9982 L114.0625,949.9982 L114.8438,790.9611 L115.625,949.9982 L116.4063,949.9982 L117.1875,882.0851 L117.9688,755.6971 L118.75,949.9982 L119.5313,813.3477 L120.3125,798.1617 L121.0938,750.6354 L121.875,808.0104 L122.6563,826.4783 L123.4375,811.1026 L124.2188,755.4006 L125,786.1108 L125.7813,892.1229 L126.5625,816.8846 L127.3438,912.9236 L128.125,829.9087 L128.9063,754.4899 L129.6875,770.6921 L130.4688,756.6714 L131.25,756.7137 L132.0313,758.2598 L132.8125,818.0495 L133.5938,825.1019 L134.375,949.9982 L135.1563,949.9982 L135.9375,949.9982 L136.7188,949.9982 L137.5,949.9982 L138.2813,847.5056 L139.0625,887.3578 L139.8438,949.9982 L140.625,809.6412 L141.4063,947.8586 L142.1875,949.9982 L142.9688,778.2108 L143.75,949.9982 L144.5313,949.9982 L145.3125,811.6321 L146.0938,949.9982 L146.875,941.5244 L147.6563,949.9982 L148.4375,909.9595 L149.2188,949.9982 L150,769.5908 L150.7813,941.5266 L151.5625,933.0485 L152.3438,949.9982 L153.125,910.0442 L153.9063,753.3887 L154.6875,754.617 L155.4688,767.8328 L156.25,949.9982 L157.0313,752.8168 L157.8125,832.6828 L158.5938,949.9982 L159.375,757.7092 L160.1563,949.9982 L160.9375,818.4305 L161.7188,760.8013 L162.5,755.9089 L163.2813,857.5865 L164.0625,949.9982 L164.8438,949.9982 L165.625,949.9982 L166.4063,834.3134 L167.1875,883.8624 L167.9688,933.0501 L168.75,941.5266 L169.5313,913.0302 L170.3125,949.9982 L171.0938,755.6971 L171.875,949.9982 L172.6563,924.5128 L173.4375,949.9982 L174.2188,949.9982 L175,933.0514 L175.7813,855.0019 L176.5625,790.9609 L177.3438,941.525 L178.125,845.1765 L178.9063,771.8995 L179.6875,941.525 L180.4688,924.3856 L181.25,780.8795 L182.0313,941.525 L182.8125,941.525 L183.5938,867.518 L184.375,941.525 L185.1563,755.5701 L185.9375,775.0551 L186.7188,770.9674 L187.5,847.0397 L188.2813,753.5793 L189.0625,756.4808 L189.8438,760.0601 L190.625,915.1072 L191.4063,770.332 L192.1875,753.1981 L192.9688,752.7321 L193.75,760.1448 L194.5313,941.5247 L195.3125,941.525 L196.0938,915.6374 L196.875,789.1396 L197.6563,941.525 L198.4375,941.525 L199.2188,761.6697 L200,941.5247 L200.7813,941.5247 L201.5625,924.682 L202.3438,781.6843 L203.125,767.2398 L203.9063,941.5248 L204.6875,941.5247 L205.4688,825.2717 L206.25,790.6006 L207.0313,762.7922 L207.8125,760.4413 L208.5938,760.6319 L209.375,941.525 L210.1563,754.384 L210.9375,752.8592 L211.7188,925.381 L212.5,941.525 L213.2813,933.0501 L214.0625,941.525 L214.8438,941.5247 L215.625,825.3561 L216.4063,839.4379 L217.1875,870.3962 L217.9688,941.5247 L218.75,807.6927 L219.5313,805.2359 L220.3125,754.4688 L221.0938,941.5248 L221.875,764.8466 L222.6563,760.6955 L223.4375,762.3474 L224.2188,765.5667 L225,941.5248 L225.7813,753.7064 L226.5625,941.525 L227.3438,941.5248 L228.125,941.525 L228.9063,941.525 L229.6875,845.8964 L230.4688,941.5249 L231.25,874.4411 L232.0313,841.026 L232.8125,941.5247 L233.5938,911.0824 L234.375,757.4338 L235.1563,755.3583 L235.9375,756.0148 L236.7188,811.9075 L237.5,941.5248 L238.2813,875.4786 L239.0625,763.6816 L239.8438,941.5247 L240.625,941.525 L241.4063,767.9599 L242.1875,895.809 L242.9688,783.9507 L243.75,941.525 L244.5313,820.0614 L245.3125,864.1283 L246.0938,756.6078 L246.875,760.5895 L247.6563,850.9785 L248.4375,762.2627 L249.2188,941.5248 L250,758.1328 L250.7813,933.0501 L251.5625,869.3798 L252.3438,874.3563 L253.125,758.9164 L253.9063,775.6693 L254.6875,763.1945 L255.4688,776.559 L256.25,801.1271 L257.0313,815.2961 L257.8125,867.0294 L258.5938,944.5099 L259.375,760.4836 L260.1563,877.3208 L260.9375,836.7484 L261.7188,764.4229 L262.5,771.3275 L263.2813,776.8765 L264.0625,836.2615 L264.8438,941.525 L265.625,941.5233 L266.4063,941.5242 L267.1875,792.6339 L267.9688,776.9824 L268.75,941.525 L269.5313,761.3943 L270.3125,761.5426 L271.0938,763.9993 L271.875,801.593 L272.6563,758.1963 L273.4375,757.921 L274.2188,760.4201 L275,770.8826 L275.7813,927.6902 L276.5625,761.1614 L277.3438,924.8303 L278.125,853.9645 L278.9063,850.7032 L279.6875,755.5277 L280.4688,763.1945 L281.25,882.2124 L282.0313,941.525 L282.8125,941.5247 L283.5938,765.9692 L284.375,933.0515 L285.1563,910.0869 L285.9375,787.8475 L286.7188,941.525 L287.5,789.1606 L288.2813,941.5251 L289.0625,799.5175 L289.8438,761.1826 L290.625,941.5251 L291.4063,868.4695 L292.1875,817.3508 L292.9688,843.7579 L293.75,762.9615 L294.5313,777.7872 L295.3125,763.7452 L296.0938,755.2947 L296.875,889.5619 L297.6563,941.525 L298.4375,941.525 L299.2188,768.32 L300,769.972 L300.7813,820.2732 L301.5625,761.6485 L302.3438,941.5247 L303.125,760.8225 L303.9063,769.0825 L304.6875,774.1867 L305.4688,780.5829 L306.25,770.9674 L307.0313,763.9146 L307.8125,773.3819 L308.5938,802.8217 L309.375,949.9982 L310.1563,826.3945 L310.9375,793.4391 L311.7188,771.5818 L312.5,883.6948 L313.2813,786.5979 L314.0625,768.6377 L314.8438,940.8453 L315.625,881.4503 L316.4063,818.1556 L317.1875,763.4063 L317.9688,788.3347 L318.75,833.7841 L319.5313,846.3409 L320.3125,762.4744 L321.0938,757.5397 L321.875,833.1909 L322.6563,933.0501 L323.4375,932.7532 L324.2188,769.6757 L325,888.2686 L325.7813,801.0002 L326.5625,814.9785 L327.3438,811.9712 L328.125,941.5247 L328.9063,784.2682 L329.6875,941.5251 L330.4688,835.2244 L331.25,892.4194 L332.0313,802.3131 L332.8125,831.2852 L333.5938,779.6511 L334.375,941.5251 L335.1563,751.8638 L335.9375,854.0276 L336.7188,785.8143 L337.5,802.3555 L338.2813,793.079 L339.0625,897.2285 L339.8438,941.5236 L340.625,775.7542 L341.4063,801.3179 L342.1875,765.6514 L342.9688,789.7748 L343.75,807.0574 L344.5313,933.0518 L345.3125,792.1048 L346.0938,763.4063 L346.875,902.0372 L347.6563,861.0156 L348.4375,941.5251 L349.2188,772.8948 L350,872.4073 L350.7813,834.0593 L351.5625,901.2744 L352.3438,843.2495 L353.125,774.9703 L353.9063,775.8177 L354.6875,941.525 L355.4688,941.5247 L356.25,941.5251 L357.0313,763.5757 L357.8125,777.406 L358.5938,776.9824 L359.375,752.5627 L360.1563,788.6523 L360.9375,941.5248 L361.7188,770.5438 L362.5,905.2975 L363.2813,770.5226 L364.0625,941.5219 L364.8438,810.3825 L365.625,770.6497 L366.4063,894.1355 L367.1875,784.2047 L367.9688,876.2199 L368.75,764.8889 L369.5313,949.9752 L370.3125,788.5254 L371.0938,933.0517 L371.875,760.0389 L372.6563,861.3318 L373.4375,764.1899 L374.2188,820.4217 L375,753.7063 L375.7813,788.5464 L376.5625,868.3622 L377.3438,822.4763 L378.125,830.015 L378.9063,941.525 L379.6875,803.711 L380.4688,787.9536 L381.25,796.0654 L382.0313,832.344 L382.8125,787.8055 L383.5938,804.3466 L384.375,803.0121 L385.1563,797.1453 L385.9375,841.4086 L386.7188,769.6331 L387.5,763.4488 L388.2813,758.5987 L389.0625,798.9032 L389.8438,832.9173 L390.625,941.5268 L391.4063,941.525 L392.1875,815.1692 L392.9688,790.6432 L393.75,941.5248 L394.5313,878.1044 L395.3125,809.1543 L396.0938,783.1246 L396.875,941.5236 L397.6563,812.5854 L398.4375,941.5266 L399.2188,933.0471 L400,767.8328 L400.7813,806.0833 L401.5625,770.8192 L402.3438,903.1826 L403.125,941.5251 L403.9063,762.9827 L404.6875,783.6754 L405.4688,941.5248 L406.25,760.7378 L407.0313,761.4791 L407.8125,947.0732 L408.5938,941.5248 L409.375,838.5061 L410.1563,780.3074 L410.9375,799.7082 L411.7188,941.5249 " stroke="blue" fill="none" />
<text x="50" y="1000" font-family="Arial" font-size="12" fill="black">Episode Length (464)</text>
<text x="50" y="1015" font-family="Arial" font-size="10" fill="black">10000</text>
<text x="50" y="1230" font-family="Arial" font-size="10" fill="black">0</text>
<path d="M50,1220 L50.78125,1020 L51.5625,1158.12 L52.34375,1208.06 L53.125,1212.2 L53.90625,1148.42 L54.6875,1020 L55.46875,1109.58 L56.25,1184.78 L57.03125,1193.08 L57.8125,1204.6 L58.59375,1216.86 L59.375,1209.54 L60.15625,1209.86 L60.9375,1198.76 L61.71875,1108.12 L62.5,1208.46 L63.28125,1194.16 L64.0625,1213.24 L64.84375,1212.8 L65.625,1027.88 L66.40625,1056.64 L67.1875,1020 L67.96875,1020 L68.75,1048.4 L69.53125,1112.86 L70.3125,1020 L71.09375,1020 L71.875,1070.92 L72.65625,1155.22 L73.4375,1179.24 L74.21875,1020 L75,1145.14 L75.78125,1020 L76.5625,1020 L77.34375,1047 L78.125,1020 L78.90625,1163.94 L79.6875,1020 L80.46875,1191.42 L81.25,1020 L82.03125,1020 L82.8125,1020 L83.59375,1020 L84.375,1174.64 L85.15625,1020 L85.9375,1111.6 L86.71875,1020 L87.5,1048.66 L88.28125,1124.16 L89.0625,1215.64 L89.84375,1020 L90.625,1020 L91.40625,1020 L92.1875,1020 L92.96875,1207.72 L93.75,1035.06 L94.53125,1035.24 L95.3125,1020 L96.09375,1020 L96.875,1020 L97.65625,1216.86 L98.4375,1020 L99.21875,1020 L100,1166.22 L100.7813,1020 L101.5625,1051.74 L102.3438,1179.44 L103.125,1174.66 L103.9063,1020 L104.6875,1208.3 L105.4688,1020 L106.25,1197.6 L107.0313,1145.78 L107.8125,1207.56 L108.5938,1142.48 L109.375,1020 L110.1563,1118.4 L110.9375,1020 L111.7188,1039.2 L112.5,1020 L113.2813,1020 L114.0625,1020 L114.8438,1170.18 L115.625,1020 L116.4063,1020 L117.1875,1092.12 L117.9688,1211.48 L118.75,1020 L119.5313,1157.04 L120.3125,1179.38 L121.0938,1216.26 L121.875,1162.08 L122.6563,1144.64 L123.4375,1159.16 L124.2188,1211.76 L125,1182.76 L125.7813,1082.64 L126.5625,1153.7 L127.3438,1055 L128.125,1141.4 L128.9063,1212.62 L129.6875,1197.32 L130.4688,1210.56 L131.25,1210.52 L132.0313,1209.06 L132.8125,1152.6 L133.5938,1145.94 L134.375,1020 L135.1563,1020 L135.9375,1020 L136.7188,1020 L137.5,1020 L138.2813,1124.78 L139.0625,1087.14 L139.8438,1020 L140.625,1160.54 L141.4063,1022.02 L142.1875,1020 L142.9688,1190.22 L143.75,1020 L144.5313,1020 L145.3125,1158.66 L146.0938,1020 L146.875,1020 L147.6563,1020 L148.4375,1065.8 L149.2188,1020 L150,1198.36 L150.7813,1020 L151.5625,1020 L152.3438,1020 L153.125,1065.72 L153.9063,1213.66 L154.6875,1212.5 L155.4688,1200.02 L156.25,1020 L157.0313,1214.2 L157.8125,1138.78 L158.5938,1020 L159.375,1209.58 L160.1563,1020 L160.9375,1160.24 L161.7188,1214.66 L162.5,1211.28 L163.2813,1123.26 L164.0625,1020 L164.8438,1020 L165.625,1020 L166.4063,1129.24 L167.1875,1082.44 L167.9688,1020 L168.75,1020 L169.5313,1054.9 L170.3125,1020 L171.0938,1211.48 L171.875,1020 L172.6563,1044.06 L173.4375,1020 L174.2188,1020 L175,1020 L175.7813,1109.7 L176.5625,1178.18 L177.3438,1020 L178.125,1118.98 L178.9063,1188.18 L179.6875,1020 L180.4688,1044.18 L181.25,1187.7 L182.0313,1020 L182.8125,1020 L183.5938,1105.88 L184.375,1020 L185.1563,1211.6 L185.9375,1193.2 L186.7188,1197.06 L187.5,1117.22 L188.2813,1213.48 L189.0625,1210.74 L189.8438,1207.36 L190.625,1052.94 L191.4063,1197.66 L192.1875,1213.84 L192.9688,1214.28 L193.75,1207.28 L194.5313,1020 L195.3125,1020 L196.0938,1044.44 L196.875,1171.9 L197.6563,1020 L198.4375,1020 L199.2188,1213.84 L200,1020 L200.7813,1020 L201.5625,1043.9 L202.3438,1178.94 L203.125,1200.58 L203.9063,1020 L204.6875,1020 L205.4688,1145.78 L206.25,1186.52 L207.0313,1196.78 L207.8125,1207 L208.5938,1214.82 L209.375,1020 L210.1563,1212.72 L210.9375,1214.16 L211.7188,1043.24 L212.5,1020 L213.2813,1020 L214.0625,1020 L214.8438,1020 L215.625,1137.7 L216.4063,1124.4 L217.1875,1095.16 L217.9688,1020 L218.75,1154.38 L219.5313,1156.7 L220.3125,1212.64 L221.0938,1020 L221.875,1202.84 L222.6563,1206.76 L223.4375,1205.2 L224.2188,1202.16 L225,1020 L225.7813,1213.36 L226.5625,1020 L227.3438,1020 L228.125,1020 L228.9063,1020 L229.6875,1118.3 L230.4688,1020 L231.25,1083.34 L232.0313,1122.9 L232.8125,1020 L233.5938,1056.74 L234.375,1201.84 L235.1563,1211.8 L235.9375,1211.18 L236.7188,1150.4 L237.5,1020 L238.2813,1090.36 L239.0625,1195.94 L239.8438,1020 L240.625,1020 L241.4063,1199.9 L242.1875,1071.16 L242.9688,1176.8 L243.75,1020 L244.5313,1158.7 L245.3125,1101.08 L246.0938,1202.62 L246.875,1214.86 L247.6563,1113.5 L248.4375,1213.28 L249.2188,1020 L250,1217.18 L250.7813,1020 L251.5625,1104.12 L252.3438,1091.42 L253.125,1216.44 L253.9063,1192.62 L254.6875,1204.4 L255.4688,1183.78 L256.25,1160.58 L257.0313,1155.2 L257.8125,1106.34 L258.5938,1025.18 L259.375,1214.96 L260.1563,1096.62 L260.9375,1134.94 L261.7188,1203.24 L262.5,1196.72 L263.2813,1191.48 L264.0625,1127.4 L264.8438,1020 L265.625,1020 L266.4063,1020 L267.1875,1184.6 L267.9688,1191.38 L268.75,1020 L269.5313,1214.1 L270.3125,1213.96 L271.0938,1211.64 L271.875,1168.14 L272.6563,1217.12 L273.4375,1217.38 L274.2188,1215.02 L275,1205.14 L275.7813,1041.06 L276.5625,1214.32 L277.3438,1043.76 L278.125,1110.68 L278.9063,1113.76 L279.6875,1211.64 L280.4688,1212.4 L281.25,1084 L282.0313,1020 L282.8125,1020 L283.5938,1201.78 L284.375,1020 L285.1563,1057.68 L285.9375,1189.12 L286.7188,1020 L287.5,1187.88 L288.2813,1020 L289.0625,1170.1 L289.8438,1214.3 L290.625,1020 L291.4063,1096.98 L292.1875,1145.26 L292.9688,1120.32 L293.75,1212.62 L294.5313,1198.62 L295.3125,1211.88 L296.0938,1211.86 L296.875,1085.06 L297.6563,1020 L298.4375,1020 L299.2188,1207.56 L300,1206 L300.7813,1158.5 L301.5625,1213.86 L302.3438,1020 L303.125,1214.64 L303.9063,1206.84 L304.6875,1202.02 L305.4688,1195.98 L306.25,1205.06 L307.0313,1211.72 L307.8125,1202.78 L308.5938,1166.98 L309.375,1020 L310.1563,1144.72 L310.9375,1167.84 L311.7188,1196.48 L312.5,1082.6 L313.2813,1182.3 L314.0625,1207.26 L314.8438,1028.64 L315.625,1084.72 L316.4063,1152.5 L317.1875,1204.2 L317.9688,1188.66 L318.75,1137.74 L319.5313,1125.88 L320.3125,1205.08 L321.0938,1209.74 L321.875,1146.3 L322.6563,1020 L323.4375,1036.28 L324.2188,1198.28 L325,1086.28 L325.7813,1168.7 L326.5625,1163.5 L327.3438,1158.34 L328.125,1020 L328.9063,1192.5 L329.6875,1020 L330.4688,1120.38 L331.25,1082.36 L332.0313,1167.46 L332.8125,1140.1 L333.5938,1188.86 L334.375,1020 L335.1563,1215.1 L335.9375,1110.62 L336.7188,1191.04 L337.5,1167.42 L338.2813,1176.18 L339.0625,1069.82 L339.8438,1020 L340.625,1192.54 L341.4063,1168.4 L342.1875,1202.08 L342.9688,1187.3 L343.75,1162.98 L344.5313,1020 L345.3125,1177.1 L346.0938,1204.2 L346.875,1065.28 L347.6563,1112.02 L348.4375,1020 L349.2188,1195.24 L350,1093.26 L350.7813,1129.48 L351.5625,1066 L352.3438,1128.8 L353.125,1201.28 L353.9063,1192.48 L354.6875,1020 L355.4688,1020 L356.25,1020 L357.0313,1212.04 L357.8125,1190.98 L358.5938,1199.38 L359.375,1214.44 L360.1563,1180.36 L360.9375,1020 L361.7188,1205.46 L362.5,1070.2 L363.2813,1205.48 L364.0625,1020 L364.8438,1167.84 L365.625,1205.36 L366.4063,1080.74 L367.1875,1192.56 L367.9688,1081.66 L368.75,1202.8 L369.5313,1020.02 L370.3125,1172.48 L371.0938,1020 L371.875,1207.38 L372.6563,1103.72 L373.4375,1203.46 L374.2188,1150.36 L375,1205.36 L375.7813,1188.46 L376.5625,1097.08 L377.3438,1148.42 L378.125,1133.3 L378.9063,1020 L379.6875,1174.14 L380.4688,1181.02 L381.25,1165.36 L382.0313,1131.1 L382.8125,1173.16 L383.5938,1165.54 L384.375,1166.8 L385.1563,1172.34 L385.9375,1138.54 L386.7188,1198.32 L387.5,1204.16 L388.2813,1208.74 L389.0625,1178.68 L389.8438,1146.56 L390.625,1020 L391.4063,1020 L392.1875,1147.32 L392.9688,1178.48 L393.75,1020 L394.5313,1095.88 L395.3125,1153 L396.0938,1185.58 L396.875,1020 L397.6563,1149.76 L398.4375,1020 L399.2188,1020 L400,1208.02 L400.7813,1163.9 L401.5625,1205.2 L402.3438,1064.2 L403.125,1020 L403.9063,1204.6 L404.6875,1185.06 L405.4688,1020 L406.25,1214.72 L407.0313,1206.02 L407.8125,1022.76 L408.5938,1020 L409.375,1133.28 L410.1563,1196.24 L410.9375,1169.92 L411.7188,1020 " stroke="blue" fill="none" />
<text x="50" y="1270" font-family="Arial" font-size="12" fill="black">Policy Loss</text>
<text x="50" y="1285" font-family="Arial" font-size="10" fill="black">0.6464599</text>
<text x="50" y="1500" font-family="Arial" font-size="10" fill="black">0.3094569</text>
<path d="M50,1328.326 L56.25,1290 L62.5,1354.275 L68.75,1327.265 L75,1339.312 L81.25,1369.544 L87.5,1406.815 L93.75,1337.857 L100,1410.081 L106.25,1326.575 L112.5,1419.901 L118.75,1453.508 L125,1317.451 L131.25,1456.953 L137.5,1393.244 L143.75,1430.091 L150,1490 L156.25,1409.976 L162.5,1448.78 L168.75,1424.73 L175,1460.198 L181.25,1436.983 L187.5,1435.082 L193.75,1479.037 L200,1388.534 L206.25,1461.744 L212.5,1401.704 L218.75,1465.167 L225,1442.808 L231.25,1476.821 L237.5,1427.943 L243.75,1461.542 L250,1444.448 L256.25,1437.345 L262.5,1466.901 L268.75,1449.195 L275,1414.289 L281.25,1472.985 L287.5,1429.377 L293.75,1444.812 L300,1430.948 L306.25,1450.314 L312.5,1441.864 L318.75,1450.91 L325,1385.014 L331.25,1413.893 L337.5,1477.269 " stroke="blue" fill="none" />
<text x="50" y="1540" font-family="Arial" font-size="12" fill="black">Value Loss</text>
<text x="50" y="1555" font-family="Arial" font-size="10" fill="black">0.005840348</text>
<text x="50" y="1770" font-family="Arial" font-size="10" fill="black">0.0003003817</text>
<path d="M50,1560 L56.25,1712.138 L62.5,1701.1 L68.75,1734.986 L75,1752.899 L81.25,1726.564 L87.5,1722.145 L93.75,1744.607 L100,1704.691 L106.25,1746.188 L112.5,1734.146 L118.75,1588.552 L125,1760 L131.25,1731.128 L137.5,1748.014 L143.75,1726.837 L150,1631.743 L156.25,1716.816 L162.5,1740.093 L168.75,1724.974 L175,1684.714 L181.25,1665.469 L187.5,1712.8 L193.75,1647.171 L200,1737.613 L206.25,1685.407 L212.5,1741.467 L218.75,1703.993 L225,1716.917 L231.25,1671.031 L237.5,1677.853 L243.75,1644.082 L250,1691.953 L256.25,1703.193 L262.5,1651.476 L268.75,1640.631 L275,1693.587 L281.25,1665.597 L287.5,1681.399 L293.75,1668.563 L300,1715.462 L306.25,1649.494 L312.5,1664.681 L318.75,1574.271 L325,1722.246 L331.25,1724.074 L337.5,1668.082 " stroke="blue" fill="none" />
<text x="50" y="1810" font-family="Arial" font-size="12" fill="black">Learning Rate</text>
<text x="50" y="1825" font-family="Arial" font-size="10" fill="black">0.0003</text>
<text x="50" y="2040" font-family="Arial" font-size="10" fill="black">0.0003</text>
<path d="M50,2030 L56.25,2030 L62.5,2030 L68.75,2030 L75,2030 L81.25,2030 L87.5,2030 L93.75,2030 L100,2030 L106.25,2030 L112.5,2030 L118.75,2030 L125,2030 L131.25,2030 L137.5,2030 L143.75,2030 L150,2030 L156.25,2030 L162.5,2030 L168.75,2030 L175,2030 L181.25,2030 L187.5,2030 L193.75,2030 L200,2030 L206.25,2030 L212.5,2030 L218.75,2030 L225,2030 L231.25,2030 L237.5,2030 L243.75,2030 L250,2030 L256.25,2030 L262.5,2030 L268.75,2030 L275,2030 L281.25,2030 L287.5,2030 L293.75,2030 L300,2030 L306.25,2030 L312.5,2030 L318.75,2030 L325,2030 L331.25,2030 L337.5,2030 " stroke="blue" fill="none" />
<text x="50" y="2080" font-family="Arial" font-size="12" fill="black">Entropy</text>
<text x="50" y="2095" font-family="Arial" font-size="10" fill="black">0.2784104</text>
<text x="50" y="2310" font-family="Arial" font-size="10" fill="black">0.2600082</text>
<path d="M50,2300 L56.25,2228.855 L62.5,2226.874 L68.75,2221.847 L75,2181.058 L81.25,2178.152 L87.5,2173.899 L93.75,2156.81 L100,2164.76 L106.25,2157.804 L112.5,2157.28 L118.75,2180.339 L125,2137.726 L131.25,2133.022 L137.5,2124.739 L143.75,2117.387 L150,2120.637 L156.25,2109.757 L162.5,2106.983 L168.75,2109.312 L175,2110.947 L181.25,2115.908 L187.5,2111.354 L193.75,2115.155 L200,2108.845 L206.25,2115.786 L212.5,2112.463 L218.75,2108.916 L225,2105.309 L231.25,2105.283 L237.5,2106.474 L243.75,2102.873 L250,2103.234 L256.25,2103.51 L262.5,2104.992 L268.75,2103.668 L275,2102.387 L281.25,2101.545 L287.5,2105.745 L293.75,2105.601 L300,2100 L306.25,2101.511 L312.5,2104.411 L318.75,2108.322 L325,2103.194 L331.25,2103.528 L337.5,2103.166 " stroke="blue" fill="none" />
<text x="750" y="730" font-family="Arial" font-size="12" fill="black">Simplified</text>
<text x="750" y="745" font-family="Arial" font-size="10" fill="black">-6.145967</text>
<text x="750" y="960" font-family="Arial" font-size="10" fill="black">-18.97082</text>
<path d="M764.0625,750 L778.9063,935.6794 L793.75,936.0028 L808.5938,880.5001 L823.4375,890.7527 L838.2813,832.8121 L853.125,950 L867.9688,845.6168 L882.8125,926.9252 L897.6563,801.5991 L912.5,845.1636 L927.3438,852.4457 L942.1875,873.1103 L957.0313,791.7796 L971.875,816.1863 L986.7188,828.6855 L1001.563,802.2232 L1016.406,787.0099 L1031.25,823.2111 L1046.094,791.9225 L1060.938,839.9529 L1075.781,801.5499 L1090.625,789.2498 L1105.469,855.5537 L1111.719,837.6534 " stroke="blue" fill="none" />
<text x="750" y="1000" font-family="Arial" font-size="12" fill="black">Simplified</text>
<text x="750" y="1015" font-family="Arial" font-size="10" fill="black">7925.105</text>
<text x="750" y="1230" font-family="Arial" font-size="10" fill="black">2479.368</text>
<path d="M764.0625,1220 L778.9063,1040.449 L793.75,1035.506 L808.5938,1089.337 L823.4375,1081.997 L838.2813,1138.122 L853.125,1020 L867.9688,1124.514 L882.8125,1036.324 L897.6563,1162.112 L912.5,1119.529 L927.3438,1107.257 L942.1875,1086.242 L957.0313,1174.454 L971.875,1154.556 L986.7188,1140.461 L1001.563,1170.029 L1016.406,1186.68 L1031.25,1147.165 L1046.094,1175.867 L1060.938,1127.528 L1075.781,1168.342 L1090.625,1179.932 L1105.469,1108.195 L1111.719,1132.693 " stroke="blue" fill="none" />
</svg>
