<svg width="2000" height="2500" xmlns="http://www.w3.org/2000/svg">
<text x="10" y="20" font-family="Arial" font-size="26" fill="black"> [Sorter] Training Session</text>
<text x="10" y="50" font-family="Arial" font-size="16" fill="black">[Statistics]</text>
<text x="50" y="70" font-family="Arial" font-size="12" fill="black">Started at: 6:18:37 PM, Monday, January 15, 2024</text>
<text x="50" y="90" font-family="Arial" font-size="12" fill="black">Finished at: 6:34:41 PM, Monday, January 15, 2024</text>
<text x="50" y="110" font-family="Arial" font-size="12" fill="black">Training Session Time: 0 hrs : 16 min : 1 sec</text>
<text x="50" y="130" font-family="Arial" font-size="12" fill="black">Inference Time: 2 hrs : 53 min : 10 sec        [Device: CPU]</text>
<text x="50" y="150" font-family="Arial" font-size="12" fill="black">Update Time: 0 hrs : 8 min : 49 sec        [Per iteration: 0 hrs : 0 min : 48.887 sec]        [Device: GPU]</text>
<text x="50" y="170" font-family="Arial" font-size="12" fill="black">Episode Count: 382</text>
<text x="50" y="190" font-family="Arial" font-size="12" fill="black">Inference Steps: 520000</text>
<text x="50" y="210" font-family="Arial" font-size="12" fill="black">Iterations: 13</text>
<text x="50" y="230" font-family="Arial" font-size="12" fill="black">Parallel Agents: 1</text>
<text x="50" y="250" font-family="Arial" font-size="12" fill="black">Timescale: 25.77</text>
<text x="50" y="270" font-family="Arial" font-size="12" fill="black">Trainer: PPO</text>
<text x="10" y="320" font-family="Arial" font-size="16" fill="black">[Hyperparameters]</text>
<text x="50" y="340" font-family="Arial" font-size="12" fill="black">Buffer Size: 40000        [Batch Size: 2000       (x20)]</text>
<text x="50" y="360" font-family="Arial" font-size="12" fill="black">Num Epoch: 8</text>
<text x="50" y="380" font-family="Arial" font-size="12" fill="black">Time Horizon: 512</text>
<text x="50" y="400" font-family="Arial" font-size="12" fill="black">Gradient Cliping by Norm: 0.5</text>
<text x="50" y="420" font-family="Arial" font-size="12" fill="black">Learning Rate Schedule: False    </text>
<text x="10" y="470" font-family="Arial" font-size="16" fill="black">[Behaviour]</text>
<text x="50" y="490" font-family="Arial" font-size="12" fill="black">Space Size: 70</text>
<text x="50" y="510" font-family="Arial" font-size="12" fill="black">Continuous Actions: 0 [Standard Deviation: Trainable]     </text>
<text x="50" y="530" font-family="Arial" font-size="12" fill="black">Discrete Actions: 7</text>
<text x="50" y="550" font-family="Arial" font-size="12" fill="black">TargetFPS: 50 (physics update rate)</text>
<text x="50" y="570" font-family="Arial" font-size="12" fill="black">Observations Normalization: False</text>
<text x="10" y="620" font-family="Arial" font-size="16" fill="black">[Decision Requester]</text>
<text x="50" y="640" font-family="Arial" font-size="12" fill="black">Max Step: 5000</text>
<text x="50" y="660" font-family="Arial" font-size="12" fill="black">Decision Period: 1</text>
<text x="10" y="710" font-family="Arial" font-size="16" fill="black">[Graphs]</text>
<text x="50" y="730" font-family="Arial" font-size="12" fill="black">Episode Reward (382)</text>
<text x="50" y="745" font-family="Arial" font-size="10" fill="black">9.952438</text>
<text x="50" y="960" font-family="Arial" font-size="10" fill="black">-1.3125</text>
<path d="M50,917.9093 L50.78125,884.5768 L51.5625,921.0606 L52.34375,924.434 L53.125,911.8289 L53.90625,864.0267 L54.6875,898.7794 L55.46875,923.6794 L56.25,867.0891 L57.03125,873.259 L57.8125,932.2458 L58.59375,933.3998 L59.375,920.4847 L60.15625,863.9819 L60.9375,908.4996 L61.71875,930.9142 L62.5,918.1318 L63.28125,884.1334 L64.0625,936.418 L64.84375,872.326 L65.625,873.8358 L66.40625,863.0944 L67.1875,874.7676 L67.96875,931.4025 L68.75,893.4978 L69.53125,936.0629 L70.3125,890.4805 L71.09375,912.7162 L71.875,939.3475 L72.65625,910.5866 L73.4375,904.8157 L74.21875,871.8825 L75,936.9507 L75.78125,891.3231 L76.5625,919.951 L77.34375,862.473 L78.125,874.7238 L78.90625,863.0055 L79.6875,895.2729 L80.46875,855.7263 L81.25,917.6429 L82.03125,856.4368 L82.8125,771.5271 L83.59375,906.2813 L84.375,868.5982 L85.15625,924.7446 L85.9375,864.2484 L86.71875,877.7416 L87.5,874.5907 L88.28125,876.365 L89.0625,780.1827 L89.84375,860.9641 L90.625,910.497 L91.40625,936.9951 L92.1875,906.5024 L92.96875,904.8161 L93.75,911.3854 L94.53125,923.635 L95.3125,893.3647 L96.09375,890.6131 L96.875,858.5225 L97.65625,882.3137 L98.4375,855.105 L99.21875,864.0266 L100,845.8285 L100.7813,866.8669 L101.5625,905.5258 L102.3438,875.2565 L103.125,862.5173 L103.9063,860.5201 L104.6875,853.5958 L105.4688,898.513 L106.25,864.2484 L107.0313,881.0707 L107.8125,894.4307 L108.5938,910.7189 L109.375,921.2826 L110.1563,850.6221 L110.9375,856.1259 L111.7188,866.823 L112.5,861.2745 L113.2813,906.9462 L114.0625,911.9623 L114.8438,850.4003 L115.625,842.011 L116.4063,909.2991 L117.1875,763.9372 L117.9688,847.6925 L118.75,860.298 L119.5313,858.5673 L120.3125,868.6869 L121.0938,853.6401 L121.875,851.998 L122.6563,853.6846 L123.4375,843.5202 L124.2188,837.3949 L125,865.225 L125.7813,858.8336 L126.5625,854.8831 L127.3438,866.3345 L128.125,870.3735 L128.9063,849.2458 L129.6875,849.3792 L130.4688,756.7907 L131.25,873.5253 L132.0313,864.9144 L132.8125,855.6818 L133.5938,849.9119 L134.375,842.9432 L135.1563,897.5365 L135.9375,846.8491 L136.7188,854.4838 L137.5,855.4601 L138.2813,882.8452 L139.0625,856.7919 L139.8438,859.8545 L140.625,878.8068 L141.4063,856.126 L142.1875,862.2956 L142.9688,860.6533 L143.75,843.9197 L144.5313,860.7419 L145.3125,934.9089 L146.0938,845.8284 L146.875,762.2063 L147.6563,859.4993 L148.4375,847.3374 L149.2188,854.5281 L150,848.9798 L150.7813,859.5881 L151.5625,842.1443 L152.3438,844.2305 L153.125,855.238 L153.9063,908.9883 L154.6875,849.6456 L155.4688,853.3296 L156.25,767.1774 L157.0313,769.9735 L157.8125,859.0109 L158.5938,850.7108 L159.375,850.0447 L160.1563,851.5543 L160.9375,856.3036 L161.7188,847.16 L162.5,862.6509 L163.2813,848.1809 L164.0625,892.9205 L164.8438,852.0867 L165.625,768.1982 L166.4063,851.9537 L167.1875,844.6299 L167.9688,854.1285 L168.75,847.5151 L169.5313,867.9763 L170.3125,903.9723 L171.0938,932.3346 L171.875,891.5001 L172.6563,852.442 L173.4375,859.4548 L174.2188,874.634 L175,854.2617 L175.7813,892.8317 L176.5625,858.9668 L177.3438,896.0273 L178.125,844.2305 L178.9063,880.6705 L179.6875,767.1329 L180.4688,950 L181.25,850.5776 L182.0313,847.7811 L182.8125,866.7787 L183.5938,848.2252 L184.375,855.1049 L185.1563,851.288 L185.9375,840.3689 L186.7188,855.1048 L187.5,844.2305 L188.2813,879.0727 L189.0625,845.562 L189.8438,771.6159 L190.625,861.3191 L191.4063,851.6429 L192.1875,850.6665 L192.9688,852.3531 L193.75,902.0637 L194.5313,826.7866 L195.3125,855.5045 L196.0938,845.0738 L196.875,842.8101 L197.6563,846.716 L198.4375,842.2332 L199.2188,853.773 L200,853.3739 L200.7813,846.1391 L201.5625,844.1862 L202.3438,852.5751 L203.125,850.1339 L203.9063,847.2043 L204.6875,837.7057 L205.4688,767.5325 L206.25,840.0138 L207.0313,845.3845 L207.8125,899.7558 L208.5938,851.421 L209.375,846.6718 L210.1563,852.4418 L210.9375,846.2278 L211.7188,846.5829 L212.5,849.246 L213.2813,857.4574 L214.0625,846.8937 L214.8438,851.5097 L215.625,857.0582 L216.4063,763.7153 L217.1875,846.3165 L217.9688,848.2252 L218.75,845.2514 L219.5313,844.985 L220.3125,854.2173 L221.0938,846.5385 L221.875,850.0446 L222.6563,848.6246 L223.4375,847.6926 L224.2188,753.1069 L225,847.1599 L225.7813,854.6611 L226.5625,845.9171 L227.3438,851.6874 L228.125,853.7291 L228.9063,758.0782 L229.6875,760.8745 L230.4688,899.2231 L231.25,847.2042 L232.0313,851.9981 L232.8125,840.9014 L233.5938,845.7396 L234.375,846.1834 L235.1563,847.7814 L235.9375,850.5776 L236.7188,854.3505 L237.5,848.8466 L238.2813,851.2435 L239.0625,849.0687 L239.8438,861.6292 L240.625,753.0182 L241.4063,768.509 L242.1875,850.0007 L242.9688,846.4498 L243.75,853.9509 L244.5313,948.9348 L245.3125,855.1495 L246.0938,842.3219 L246.875,856.0372 L247.6563,849.2017 L248.4375,930.6923 L249.2188,842.9877 L250,843.2984 L250.7813,758.3889 L251.5625,848.1807 L252.3438,847.9146 L253.125,845.1626 L253.9063,859.7658 L254.6875,858.2565 L255.4688,752.8406 L256.25,924.1677 L257.0313,845.2514 L257.8125,845.7397 L258.5938,754.6606 L259.375,923.3243 L260.1563,848.0921 L260.9375,860.6082 L261.7188,848.4028 L262.5,833.7552 L263.2813,855.549 L264.0625,850.3113 L264.8438,839.4367 L265.625,846.8937 L266.4063,851.5099 L267.1875,846.5829 L267.9688,855.993 L268.75,859.6324 L269.5313,848.4914 L270.3125,848.2253 L271.0938,851.6874 L271.875,843.8754 L272.6563,853.0634 L273.4375,895.8943 L274.2188,848.8022 L275,836.9511 L275.7813,830.9588 L276.5625,859.5438 L277.3438,846.2278 L278.125,837.0398 L278.9063,755.7257 L279.6875,863.1835 L280.4688,845.6064 L281.25,858.1235 L282.0313,868.5985 L282.8125,854.5725 L283.5938,773.3472 L284.375,861.6743 L285.1563,859.9433 L285.9375,860.3871 L286.7188,906.1472 L287.5,847.3375 L288.2813,862.9615 L289.0625,766.2897 L289.8438,866.0675 L290.625,845.5621 L291.4063,840.9903 L292.1875,762.65 L292.9688,879.7396 L293.75,858.1235 L294.5313,853.1965 L295.3125,775.3002 L296.0938,851.7317 L296.875,859.233 L297.6563,763.6266 L298.4375,783.9112 L299.2188,872.2827 L300,852.0425 L300.7813,759.7206 L301.5625,869.087 L302.3438,853.3741 L303.125,846.8492 L303.9063,781.9581 L304.6875,835.9745 L305.4688,839.5255 L306.25,842.1443 L307.0313,871.4837 L307.8125,765.0025 L308.5938,841.8336 L309.375,851.1547 L310.1563,842.0555 L310.9375,754.5718 L311.7188,840.4132 L312.5,750 L313.2813,862.8728 L314.0625,835.1757 L314.8438,849.2462 L315.625,845.207 L316.4063,842.8545 L317.1875,751.7311 L317.9688,833.0451 L318.75,842.0556 L319.5313,859.1443 L320.3125,762.8275 L321.0938,835.442 L321.875,856.4368 L322.6563,842.3219 L323.4375,844.0086 L324.2188,856.2148 L325,859.3219 L325.7813,759.6761 L326.5625,841.5673 L327.3438,835.5751 L328.125,845.4733 L328.9063,839.2148 L329.6875,843.254 L330.4688,842.455 L331.25,846.4054 L332.0313,929.7602 L332.8125,839.6587 L333.5938,848.4471 L334.375,842.5438 L335.1563,844.9406 L335.9375,769.53 L336.7188,837.4837 L337.5,842.3662 L338.2813,845.7396 L339.0625,850.8884 L339.8438,845.5177 L340.625,857.4133 L341.4063,880.8493 L342.1875,850.489 L342.9688,933.3554 L343.75,835.0425 L344.5313,845.1182 L345.3125,857.502 L346.0938,756.5247 L346.875,841.4341 L347.6563,852.9302 " stroke="blue" fill="none" />
<text x="50" y="1000" font-family="Arial" font-size="12" fill="black">Episode Length (382)</text>
<text x="50" y="1015" font-family="Arial" font-size="10" fill="black">2455</text>
<text x="50" y="1230" font-family="Arial" font-size="10" fill="black">69</text>
<path d="M50,1208.935 L50.78125,1037.1 L51.5625,1169.371 L52.34375,1196.53 L53.125,1119.749 L53.90625,1075.909 L54.6875,1177.921 L55.46875,1197.955 L56.25,1070.126 L57.03125,1058.474 L57.8125,1181.777 L58.59375,1213.127 L59.375,1103.403 L60.15625,1075.993 L60.9375,1159.564 L61.71875,1217.821 L62.5,1040.788 L63.28125,1037.938 L64.0625,1207.427 L64.84375,1093.764 L65.625,1090.914 L66.40625,1077.67 L67.1875,1055.625 L67.96875,1183.37 L68.75,1154.367 L69.53125,1208.097 L70.3125,1025.951 L71.09375,1151.601 L71.875,1201.894 L72.65625,1122.096 L73.4375,1166.521 L74.21875,1094.602 L75,1206.421 L75.78125,1024.359 L76.5625,1171.467 L77.34375,1078.843 L78.125,1055.708 L78.90625,1077.837 L79.6875,1184.543 L80.46875,1091.584 L81.25,1175.826 L82.03125,1090.243 L82.8125,1082.951 L83.59375,1096.697 L84.375,1067.276 L85.15625,1195.943 L85.9375,1075.49 L86.71875,1050.008 L87.5,1055.96 L88.28125,1153.194 L89.0625,1066.605 L89.84375,1081.693 L90.625,1155.792 L91.40625,1206.337 L92.1875,1196.865 L92.96875,1099.464 L93.75,1020 L94.53125,1198.039 L95.3125,1121.09 L96.09375,1025.7 L96.875,1086.303 L97.65625,1074.904 L98.4375,1092.758 L99.21875,1075.909 L100,1110.277 L100.7813,1104.074 L101.5625,1165.18 L102.3438,1054.702 L103.125,1078.759 L103.9063,1082.531 L104.6875,1095.608 L105.4688,1178.424 L106.25,1075.49 L107.0313,1043.722 L107.8125,1085.549 L108.5938,1155.373 L109.375,1202.481 L110.1563,1101.224 L110.9375,1090.83 L111.7188,1070.629 L112.5,1114.635 L113.2813,1162.498 L114.0625,1085.968 L114.8438,1101.643 L115.625,1117.485 L116.4063,1158.055 L117.1875,1097.284 L117.9688,1106.756 L118.75,1082.951 L119.5313,1086.22 L120.3125,1067.108 L121.0938,1095.524 L121.875,1098.625 L122.6563,1095.44 L123.4375,1114.635 L124.2188,1126.203 L125,1073.646 L125.7813,1085.717 L126.5625,1093.177 L127.3438,1071.551 L128.125,1097.452 L128.9063,1103.822 L129.6875,1103.571 L130.4688,1110.78 L131.25,1057.972 L132.0313,1074.233 L132.8125,1091.668 L133.5938,1102.565 L134.375,1115.725 L135.1563,1180.268 L135.9375,1108.349 L136.7188,1093.931 L137.5,1092.087 L138.2813,1140.956 L139.0625,1089.573 L139.8438,1083.789 L140.625,1081.526 L141.4063,1090.83 L142.1875,1079.179 L142.9688,1082.28 L143.75,1113.881 L144.5313,1082.112 L145.3125,1210.277 L146.0938,1110.277 L146.875,1100.553 L147.6563,1084.459 L148.4375,1107.427 L149.2188,1093.847 L150,1104.325 L150.7813,1084.292 L151.5625,1117.234 L152.3438,1113.294 L153.125,1092.506 L153.9063,1158.642 L154.6875,1103.068 L155.4688,1096.111 L156.25,1091.165 L157.0313,1085.884 L157.8125,1085.381 L158.5938,1101.056 L159.375,1135.842 L160.1563,1099.464 L160.9375,1090.495 L161.7188,1107.762 L162.5,1078.508 L163.2813,1105.834 L164.0625,1188.986 L164.8438,1098.458 L165.625,1089.237 L166.4063,1098.709 L167.1875,1112.54 L167.9688,1094.602 L168.75,1107.091 L169.5313,1135.507 L170.3125,1201.643 L171.0938,1215.138 L171.875,1191.668 L172.6563,1097.787 L173.4375,1084.543 L174.2188,1156.463 L175,1094.35 L175.7813,1189.153 L176.5625,1085.465 L177.3438,1183.118 L178.125,1113.294 L178.9063,1145.063 L179.6875,1091.249 L180.4688,1215.306 L181.25,1101.308 L182.0313,1106.588 L182.8125,1070.713 L183.5938,1105.75 L184.375,1092.758 L185.1563,1099.966 L185.9375,1120.587 L186.7188,1092.758 L187.5,1113.294 L188.2813,1148.08 L189.0625,1110.78 L189.8438,1082.783 L190.625,1081.023 L191.4063,1099.296 L192.1875,1101.14 L192.9688,1097.955 L193.75,1205.247 L194.5313,1146.236 L195.3125,1092.003 L196.0938,1111.702 L196.875,1115.977 L197.6563,1108.6 L198.4375,1117.066 L199.2188,1128.801 L200,1096.027 L200.7813,1109.69 L201.5625,1113.378 L202.3438,1097.536 L203.125,1102.146 L203.9063,1107.678 L204.6875,1125.616 L205.4688,1090.495 L206.25,1121.257 L207.0313,1111.115 L207.8125,1176.077 L208.5938,1099.715 L209.375,1108.684 L210.1563,1097.787 L210.9375,1109.522 L211.7188,1108.852 L212.5,1103.822 L213.2813,1088.315 L214.0625,1108.265 L214.8438,1099.547 L215.625,1089.07 L216.4063,1097.703 L217.1875,1109.355 L217.9688,1105.75 L218.75,1111.366 L219.5313,1111.869 L220.3125,1094.434 L221.0938,1108.935 L221.875,1135.842 L222.6563,1104.996 L223.4375,1106.756 L224.2188,1117.737 L225,1107.762 L225.7813,1093.596 L226.5625,1110.109 L227.3438,1099.212 L228.125,1095.356 L228.9063,1108.349 L229.6875,1103.068 L230.4688,1177.083 L231.25,1107.678 L232.0313,1098.625 L232.8125,1119.581 L233.5938,1110.444 L234.375,1109.606 L235.1563,1106.588 L235.9375,1101.308 L236.7188,1094.183 L237.5,1104.577 L238.2813,1100.05 L239.0625,1104.158 L239.8438,1147.494 L240.625,1117.904 L241.4063,1088.651 L242.1875,1102.397 L242.9688,1109.103 L243.75,1094.937 L244.5313,1217.318 L245.3125,1092.674 L246.0938,1116.899 L246.875,1090.997 L247.6563,1103.906 L248.4375,1218.24 L249.2188,1115.641 L250,1115.054 L250.7813,1107.762 L251.5625,1105.834 L252.3438,1106.337 L253.125,1111.534 L253.9063,1083.956 L254.6875,1086.806 L255.4688,1118.24 L256.25,1197.033 L257.0313,1111.366 L257.8125,1110.444 L258.5938,1114.803 L259.375,1198.625 L260.1563,1106.002 L260.9375,1149.422 L261.7188,1105.415 L262.5,1133.076 L263.2813,1091.92 L264.0625,1101.811 L264.8438,1122.347 L265.625,1108.265 L266.4063,1099.547 L267.1875,1108.852 L267.9688,1091.081 L268.75,1084.208 L269.5313,1105.247 L270.3125,1105.75 L271.0938,1099.212 L271.875,1113.965 L272.6563,1096.614 L273.4375,1183.37 L274.2188,1104.661 L275,1127.041 L275.7813,1138.357 L276.5625,1084.375 L277.3438,1109.522 L278.125,1126.873 L278.9063,1112.791 L279.6875,1077.502 L280.4688,1110.696 L281.25,1087.058 L282.0313,1067.276 L282.8125,1093.764 L283.5938,1079.514 L284.375,1080.352 L285.1563,1083.621 L285.9375,1082.783 L286.7188,1197.536 L287.5,1107.427 L288.2813,1077.921 L289.0625,1092.842 L289.8438,1172.64 L290.625,1110.78 L291.4063,1119.413 L292.1875,1099.715 L292.9688,1046.236 L293.75,1087.058 L294.5313,1096.362 L295.3125,1075.826 L296.0938,1099.128 L296.875,1084.962 L297.6563,1097.871 L298.4375,1059.564 L299.2188,1060.318 L300,1098.542 L300.7813,1105.247 L301.5625,1066.354 L302.3438,1096.027 L303.125,1108.349 L303.9063,1063.252 L304.6875,1128.885 L305.4688,1122.179 L306.25,1117.234 L307.0313,1061.827 L307.8125,1095.272 L308.5938,1117.821 L309.375,1100.218 L310.1563,1117.401 L310.9375,1114.971 L311.7188,1120.503 L312.5,1123.604 L313.2813,1078.089 L314.0625,1130.394 L314.8438,1103.822 L315.625,1111.45 L316.4063,1115.893 L317.1875,1120.335 L317.9688,1134.417 L318.75,1117.401 L319.5313,1085.13 L320.3125,1099.38 L321.0938,1129.891 L321.875,1090.243 L322.6563,1116.899 L323.4375,1113.713 L324.2188,1090.662 L325,1084.795 L325.7813,1105.331 L326.5625,1118.324 L327.3438,1129.64 L328.125,1110.947 L328.9063,1122.766 L329.6875,1115.138 L330.4688,1116.647 L331.25,1109.187 L332.0313,1220 L332.8125,1121.928 L333.5938,1105.331 L334.375,1116.479 L335.1563,1111.953 L335.9375,1086.723 L336.7188,1126.035 L337.5,1116.815 L338.2813,1110.444 L339.0625,1100.721 L339.8438,1110.863 L340.625,1088.399 L341.4063,1044.141 L342.1875,1101.475 L342.9688,1213.21 L343.75,1130.645 L344.5313,1111.618 L345.3125,1088.231 L346.0938,1111.282 L346.875,1118.575 L347.6563,1096.865 " stroke="blue" fill="none" />
<text x="50" y="1270" font-family="Arial" font-size="12" fill="black">Policy Loss</text>
<text x="50" y="1285" font-family="Arial" font-size="10" fill="black">0.5021651</text>
<text x="50" y="1500" font-family="Arial" font-size="10" fill="black">0.3019308</text>
<path d="M50,1327.383 L75,1335.461 L100,1290 L125,1324.819 L150,1364.465 L175,1384.708 L200,1348.988 L225,1438.152 L250,1434.195 L275,1393.002 L300,1490 L325,1481.296 L350,1446.493 " stroke="blue" fill="none" />
<text x="50" y="1540" font-family="Arial" font-size="12" fill="black">Value Loss</text>
<text x="50" y="1555" font-family="Arial" font-size="10" fill="black">0.03832911</text>
<text x="50" y="1770" font-family="Arial" font-size="10" fill="black">0.0111034</text>
<path d="M50,1760 L75,1710.321 L100,1748.15 L125,1746.31 L150,1683.868 L175,1695.42 L200,1719.115 L225,1652.762 L250,1641.729 L275,1717.381 L300,1560 L325,1594.482 L350,1687.431 " stroke="blue" fill="none" />
<text x="50" y="1810" font-family="Arial" font-size="12" fill="black">Learning Rate</text>
<text x="50" y="1825" font-family="Arial" font-size="10" fill="black">0.0003</text>
<text x="50" y="2040" font-family="Arial" font-size="10" fill="black">0.0003</text>
<path d="M50,2030 L75,2030 L100,2030 L125,2030 L150,2030 L175,2030 L200,2030 L225,2030 L250,2030 L275,2030 L300,2030 L325,2030 L350,2030 " stroke="blue" fill="none" />
<text x="50" y="2080" font-family="Arial" font-size="12" fill="black">Entropy</text>
<text x="50" y="2095" font-family="Arial" font-size="10" fill="black">0.2327575</text>
<text x="50" y="2310" font-family="Arial" font-size="10" fill="black">0.1362607</text>
<path d="M50,2100 L75,2114.887 L100,2144.308 L125,2177.373 L150,2199.638 L175,2227.693 L200,2236.414 L225,2254.026 L250,2256.262 L275,2270.329 L300,2261.363 L325,2289.086 L350,2300 " stroke="blue" fill="none" />
<text x="750" y="730" font-family="Arial" font-size="12" fill="black">Simplified</text>
<text x="750" y="745" font-family="Arial" font-size="10" fill="black">5.500721</text>
<text x="750" y="960" font-family="Arial" font-size="10" fill="black">1.16326</text>
<path d="M764.0625,950 L778.9063,923.8088 L793.75,879.6953 L808.5938,877.8027 L823.4375,835.7155 L838.2813,815.7366 L853.125,815.8825 L867.9688,789.2236 L882.8125,857.6292 L897.6563,801.0967 L912.5,793.8648 L927.3438,778.6183 L942.1875,761.9276 L957.0313,812.5027 L971.875,799.3555 L986.7188,799.7683 L1001.563,752.4818 L1016.406,750 L1031.25,756.0792 L1046.094,799.4102 L1047.656,797.1262 " stroke="blue" fill="none" />
<text x="750" y="1000" font-family="Arial" font-size="12" fill="black">Simplified</text>
<text x="750" y="1015" font-family="Arial" font-size="10" fill="black">1589.632</text>
<text x="750" y="1230" font-family="Arial" font-size="10" fill="black">1070.211</text>
<path d="M764.0625,1211.407 L778.9063,1136.749 L793.75,1113.87 L808.5938,1055.343 L823.4375,1090.544 L838.2813,1060.004 L853.125,1059.518 L867.9688,1083.715 L882.8125,1220 L897.6563,1108.905 L912.5,1108.743 L927.3438,1078.608 L942.1875,1101.933 L957.0313,1151.868 L971.875,1114.721 L986.7188,1089.024 L1001.563,1020 L1016.406,1085.032 L1031.25,1105.257 L1046.094,1130.751 L1047.656,1089.744 " stroke="blue" fill="none" />
</svg>
