<svg width="2000" height="2500" xmlns="http://www.w3.org/2000/svg">
<text x="10" y="20" font-family="Arial" font-size="26" fill="black"> [Sorter] Training Session</text>
<text x="10" y="50" font-family="Arial" font-size="16" fill="black">[Statistics]</text>
<text x="50" y="70" font-family="Arial" font-size="12" fill="black">Started at: 8:41:04 PM, Monday, January 15, 2024</text>
<text x="50" y="90" font-family="Arial" font-size="12" fill="black">Finished at: 9:34:24 PM, Monday, January 15, 2024</text>
<text x="50" y="110" font-family="Arial" font-size="12" fill="black">Training Session Time: 0 hrs : 53 min : 7 sec</text>
<text x="50" y="130" font-family="Arial" font-size="12" fill="black">Inference Time: 9 hrs : 41 min : 20 sec        [Device: CPU]</text>
<text x="50" y="150" font-family="Arial" font-size="12" fill="black">Update Time: 0 hrs : 29 min : 21 sec        [Per iteration: 0 hrs : 0 min : 39.612 sec]        [Device: GPU]</text>
<text x="50" y="170" font-family="Arial" font-size="12" fill="black">Episode Count: 1254</text>
<text x="50" y="190" font-family="Arial" font-size="12" fill="black">Inference Steps: 1760000</text>
<text x="50" y="210" font-family="Arial" font-size="12" fill="black">Iterations: 44</text>
<text x="50" y="230" font-family="Arial" font-size="12" fill="black">Parallel Agents: 1</text>
<text x="50" y="250" font-family="Arial" font-size="12" fill="black">Timescale: 25.77</text>
<text x="50" y="270" font-family="Arial" font-size="12" fill="black">Trainer: PPO</text>
<text x="10" y="320" font-family="Arial" font-size="16" fill="black">[Hyperparameters]</text>
<text x="50" y="340" font-family="Arial" font-size="12" fill="black">Buffer Size: 40000        [Batch Size: 2000       (x20)]</text>
<text x="50" y="360" font-family="Arial" font-size="12" fill="black">Num Epoch: 8</text>
<text x="50" y="380" font-family="Arial" font-size="12" fill="black">Time Horizon: 512</text>
<text x="50" y="400" font-family="Arial" font-size="12" fill="black">Gradient Cliping by Norm: 0.5</text>
<text x="50" y="420" font-family="Arial" font-size="12" fill="black">Learning Rate Schedule: False    </text>
<text x="10" y="470" font-family="Arial" font-size="16" fill="black">[Behaviour]</text>
<text x="50" y="490" font-family="Arial" font-size="12" fill="black">Space Size: 70</text>
<text x="50" y="510" font-family="Arial" font-size="12" fill="black">Continuous Actions: 0 [Standard Deviation: Trainable]     </text>
<text x="50" y="530" font-family="Arial" font-size="12" fill="black">Discrete Actions: 7</text>
<text x="50" y="550" font-family="Arial" font-size="12" fill="black">TargetFPS: 50 (physics update rate)</text>
<text x="50" y="570" font-family="Arial" font-size="12" fill="black">Observations Normalization: False</text>
<text x="10" y="620" font-family="Arial" font-size="16" fill="black">[Decision Requester]</text>
<text x="50" y="640" font-family="Arial" font-size="12" fill="black">Max Step: 5000</text>
<text x="50" y="660" font-family="Arial" font-size="12" fill="black">Decision Period: 1</text>
<text x="10" y="710" font-family="Arial" font-size="16" fill="black">[Graphs]</text>
<text x="50" y="730" font-family="Arial" font-size="12" fill="black">Episode Reward (1254)</text>
<text x="50" y="745" font-family="Arial" font-size="10" fill="black">10.91746</text>
<text x="50" y="960" font-family="Arial" font-size="10" fill="black">-2.092671</text>
<path d="M50,765.2192 L50.39063,770.1769 L50.78125,769.2162 L51.17188,849.1155 L51.5625,844.273 L51.95313,768.3707 L52.34375,847.2324 L52.73438,921.1737 L53.125,773.7128 L53.51563,842.7742 L53.90625,776.8258 L54.29688,777.2101 L54.6875,857.8781 L55.07813,855.1495 L55.46875,854.8419 L55.85938,843.8503 L56.25,854.8804 L56.64063,841.2369 L57.03125,848.7696 L57.42188,759.6082 L57.8125,783.0519 L58.20313,775.4423 L58.59375,774.174 L58.98438,837.9317 L59.375,848.808 L59.76563,866.3333 L60.15625,765.8726 L60.54688,841.1212 L60.9375,769.7542 L61.32813,843.0048 L61.71875,836.7404 L62.10938,839.5074 L62.5,845.157 L62.89063,839.3921 L63.28125,865.9874 L63.67188,839.0078 L64.0625,848.3853 L64.45313,835.741 L64.84375,844.1962 L65.23438,762.3752 L65.625,856.9941 L66.01563,771.7143 L66.40625,842.5051 L66.79688,778.5938 L67.1875,857.6475 L67.57813,767.7942 L67.96875,847.8088 L68.35938,839.7765 L68.75,848.8849 L69.14063,854.6497 L69.53125,769.1008 L69.92188,853.9196 L70.3125,875.1713 L70.70313,843.0432 L71.09375,853.0741 L71.48438,779.2086 L71.875,840.0454 L72.26563,843.0048 L72.65625,847.501 L73.04688,850.6528 L73.4375,850.4606 L73.82813,847.5399 L74.21875,837.3552 L74.60938,852.9203 L75,842.2745 L75.39063,844.6958 L75.78125,841.2368 L76.17188,836.625 L76.5625,844.811 L76.95313,761.914 L77.34375,848.001 L77.73438,852.267 L78.125,839.469 L78.51563,845.5029 L78.90625,848.6544 L79.29688,853.5737 L79.6875,838.4313 L80.07813,841.0832 L80.46875,853.151 L80.85938,841.9671 L81.25,855.9565 L81.64063,772.1371 L82.03125,767.9479 L82.42188,766.1031 L82.8125,842.3898 L83.20313,842.6205 L83.59375,847.3476 L83.98438,855.5723 L84.375,768.9856 L84.76563,846.5021 L85.15625,848.0394 L85.54688,847.5782 L85.9375,767.1409 L86.32813,839.0079 L86.71875,837.9702 L87.10938,841.2753 L87.5,854.7651 L87.89063,854.5345 L88.28125,761.2607 L88.67188,840.1223 L89.0625,842.6589 L89.45313,848.4238 L89.84375,858.3393 L90.23438,856.1103 L90.625,767.1792 L91.01563,762.2599 L91.40625,849.2308 L91.79688,839.8149 L92.1875,846.3483 L92.57813,833.7042 L92.96875,844.5036 L93.35938,840.2761 L93.75,853.5352 L94.14063,842.0056 L94.53125,843.8503 L94.92188,857.7244 L95.3125,843.1201 L95.70313,846.5405 L96.09375,865.2177 L96.48438,844.6188 L96.875,761.2991 L97.26563,848.3853 L97.65625,850.5759 L98.04688,848.0395 L98.4375,839.5458 L98.82813,851.4983 L99.21875,766.8333 L99.60938,837.2014 L100,845.1185 L100.3906,847.9626 L100.7813,851.4984 L101.1719,843.9271 L101.5625,764.5659 L101.9531,844.1577 L102.3438,839.9302 L102.7344,839.738 L103.125,834.2037 L103.5156,838.4697 L103.9063,842.7358 L104.2969,841.8519 L104.6875,762.4521 L105.0781,843.8887 L105.4688,843.0432 L105.8594,853.1509 L106.25,840.1608 L106.6406,844.3115 L107.0313,839.469 L107.4219,841.16 L107.8125,856.9173 L108.2031,767.7557 L108.5938,843.4276 L108.9844,838.6619 L109.375,835.1261 L109.7656,843.4276 L110.1563,847.0402 L110.5469,862.9897 L110.9375,846.7712 L111.3281,837.4321 L111.7188,853.9964 L112.1094,774.4046 L112.5,847.4629 L112.8906,839.6612 L113.2813,868.4855 L113.6719,857.7628 L114.0625,845.695 L114.4531,878.1307 L114.8438,862.9512 L115.2344,857.2247 L115.625,773.905 L116.0156,850.6528 L116.4063,846.8095 L116.7969,878.2075 L117.1875,841.1216 L117.5781,836.7018 L117.9688,836.9709 L118.3594,831.0523 L118.75,854.4192 L119.1406,844.5806 L119.5313,837.2399 L119.9219,862.49 L120.3125,853.3047 L120.7031,847.4246 L121.0938,840.814 L121.4844,850.9603 L121.875,878.7839 L122.2656,902.9573 L122.6563,859.8382 L123.0469,766.4106 L123.4375,852.9203 L123.8281,768.0633 L124.2188,846.2715 L124.6094,841.2369 L125,774.7505 L125.3906,845.5413 L125.7813,909.2214 L126.1719,777.9405 L126.5625,802.2297 L126.9531,933.7819 L127.3438,920.405 L127.7344,786.7029 L128.125,862.9512 L128.5156,839.738 L128.9063,781.2071 L129.2969,771.8296 L129.6875,776.4031 L130.0781,769.6005 L130.4688,800.923 L130.8594,848.6544 L131.25,846.4252 L131.6406,759.8002 L132.0313,844.7343 L132.4219,845.8871 L132.8125,903.6491 L133.2031,858.3777 L133.5938,857.7628 L133.9844,842.0055 L134.375,840.4298 L134.7656,852.9972 L135.1563,763.1439 L135.5469,858.493 L135.9375,909.6442 L136.3281,767.333 L136.7188,757.9556 L137.1094,848.1163 L137.5,840.6604 L137.8906,843.2738 L138.2813,839.8148 L138.6719,781.6298 L139.0625,759.4928 L139.4531,859.377 L139.8438,901.9965 L140.2344,844.1193 L140.625,838.4313 L141.0156,770.3307 L141.4063,764.9117 L141.7969,835.203 L142.1875,846.2715 L142.5781,770.0233 L142.9688,794.0821 L143.3594,774.2892 L143.75,848.5391 L144.1406,766.795 L144.5313,782.2833 L144.9219,840.276 L145.3125,759.4545 L145.7031,844.8495 L146.0938,768.0248 L146.4844,832.705 L146.875,853.5736 L147.2656,837.163 L147.6563,851.9211 L148.0469,849.3845 L148.4375,785.7037 L148.8281,803.3058 L149.2188,861.2218 L149.6094,763.0286 L150,763.9126 L150.3906,761.2223 L150.7813,837.778 L151.1719,783.8974 L151.5625,852.536 L151.9531,845.0032 L152.3438,804.2666 L152.7344,765.2578 L153.125,781.7067 L153.5156,768.8704 L153.9063,852.8051 L154.2969,770.5613 L154.6875,777.5945 L155.0781,835.9717 L155.4688,764.9118 L155.8594,781.4377 L156.25,769.908 L156.6406,838.3928 L157.0313,852.3054 L157.4219,850.3453 L157.8125,853.8427 L158.2031,838.5466 L158.5938,843.3891 L158.9844,846.8865 L159.375,867.0635 L159.7656,844.004 L160.1563,843.3123 L160.5469,786.7798 L160.9375,855.8028 L161.3281,842.6204 L161.7188,833.6656 L162.1094,842.313 L162.5,863.9505 L162.8906,846.233 L163.2813,835.4335 L163.6719,832.1669 L164.0625,843.9271 L164.4531,846.6559 L164.8438,768.755 L165.2344,775.8265 L165.625,765.9879 L166.0156,845.4261 L166.4063,849.5768 L166.7969,839.8533 L167.1875,843.5812 L167.5781,840.1223 L167.9688,840.4298 L168.3594,778.2479 L168.75,773.2516 L169.1406,845.7719 L169.5313,855.6105 L169.9219,845.8103 L170.3125,773.5975 L170.7031,838.2391 L171.0938,857.9166 L171.4844,848.9234 L171.875,853.5737 L172.2656,765.6804 L172.6563,852.0364 L173.0469,767.4099 L173.4375,850.1917 L173.8281,841.9671 L174.2188,854.7267 L174.6094,871.3679 L175,760.6458 L175.3906,772.4446 L175.7813,845.3107 L176.1719,830.7064 L176.5625,783.3978 L176.9531,862.7206 L177.3438,781.7068 L177.7344,779.2855 L178.125,859.377 L178.5156,861.4908 L178.9063,858.8006 L179.2969,845.8872 L179.6875,838.0085 L180.0781,863.7573 L180.4688,767.5636 L180.8594,895.5399 L181.25,839.5458 L181.6406,877.2097 L182.0313,843.0048 L182.4219,838.931 L182.8125,864.4116 L183.2031,841.6596 L183.5938,779.0933 L183.9844,869.9844 L184.375,921.7501 L184.7656,761.7218 L185.1563,858.1471 L185.5469,844.3499 L185.9375,835.2799 L186.3281,761.1838 L186.7188,842.2361 L187.1094,851.998 L187.5,780.131 L187.8906,860.9911 L188.2813,761.107 L188.6719,762.4136 L189.0625,777.1333 L189.4531,762.1447 L189.8438,858.8005 L190.2344,843.2738 L190.625,773.8281 L191.0156,854.8804 L191.4063,764.412 L191.7969,779.862 L192.1875,777.6329 L192.5781,848.8849 L192.9688,863.9889 L193.3594,758.2245 L193.75,770.9841 L194.1406,839.7765 L194.5313,864.4885 L194.9219,860.9527 L195.3125,752.7672 L195.7031,766.0262 L196.0938,853.689 L196.4844,840.0071 L196.875,862.7964 L197.2656,776.1341 L197.6563,836.8171 L198.0469,880.0138 L198.4375,845.5797 L198.8281,841.8134 L199.2188,780.2079 L199.6094,766.449 L200,856.1487 L200.3906,839.8917 L200.7813,780.0157 L201.1719,853.1894 L201.5625,762.3752 L201.9531,838.7773 L202.3438,781.7452 L202.7344,841.967 L203.125,847.8088 L203.5156,846.2331 L203.9063,790.7384 L204.2969,839.0847 L204.6875,852.9972 L205.0781,849.9226 L205.4688,854.1886 L205.8594,772.4446 L206.25,761.6835 L206.6406,844.7726 L207.0313,835.7026 L207.4219,835.1646 L207.8125,857.5699 L208.2031,848.5391 L208.5938,835.0493 L208.9844,832.0515 L209.375,760.2231 L209.7656,836.9709 L210.1563,837.3552 L210.5469,846.0025 L210.9375,840.1608 L211.3281,766.5644 L211.7188,840.6604 L212.1094,761.2607 L212.5,838.6619 L212.8906,836.7787 L213.2813,850.9604 L213.6719,851.114 L214.0625,787.1257 L214.4531,769.6774 L214.8438,839.2769 L215.2344,774.4046 L215.625,851.2677 L216.0156,867.7168 L216.4063,920.3282 L216.7969,854.227 L217.1875,769.1009 L217.5781,782.8597 L217.9688,776.4799 L218.3594,785.5115 L218.75,850.8834 L219.1406,772.5214 L219.5313,852.7282 L219.9219,850.6528 L220.3125,765.2961 L220.7031,857.686 L221.0938,845.0033 L221.4844,766.2953 L221.875,758.9932 L222.2656,847.0401 L222.6563,859.1464 L223.0469,844.6573 L223.4375,778.2479 L223.8281,867.371 L224.2188,842.6205 L224.6094,800.1159 L225,845.9256 L225.3906,846.5789 L225.7813,848.2701 L226.1719,845.4645 L226.5625,843.9656 L226.9531,903.649 L227.3438,847.9241 L227.7344,842.851 L228.125,838.5082 L228.5156,847.0786 L228.9063,842.2745 L229.2969,842.3899 L229.6875,849.6536 L230.0781,843.5813 L230.4688,765.2192 L230.8594,851.5368 L231.25,866.8714 L231.6406,843.9271 L232.0313,848.9617 L232.4219,844.2346 L232.8125,766.795 L233.2031,852.7667 L233.5938,840.3145 L233.9844,763.0287 L234.375,765.4498 L234.7656,834.9724 L235.1563,854.6881 L235.5469,850.3454 L235.9375,841.3522 L236.3281,846.8096 L236.7188,851.0756 L237.1094,859.9919 L237.5,756.2645 L237.8906,836.5096 L238.2813,786.972 L238.6719,771.2531 L239.0625,865.7952 L239.4531,850.7681 L239.8438,855.1878 L240.2344,894.3515 L240.625,865.2572 L241.0156,862.3747 L241.4063,775.9803 L241.7969,842.6973 L242.1875,764.6043 L242.5781,823.3291 L242.9688,848.3469 L243.3594,875.2111 L243.75,847.4245 L244.1406,842.9664 L244.5313,842.1208 L244.9219,843.5044 L245.3125,855.0726 L245.7031,876.095 L246.0938,783.6284 L246.4844,864.45 L246.875,851.3062 L247.2656,764.3737 L247.6563,769.7158 L248.0469,835.0493 L248.4375,777.7866 L248.8281,769.908 L249.2188,773.3669 L249.6094,840.5067 L250,849.6152 L250.3906,834.8187 L250.7813,778.0941 L251.1719,841.0447 L251.5625,780.4769 L251.9531,840.5067 L252.3438,841.7749 L252.7344,840.9678 L253.125,843.5812 L253.5156,764.9886 L253.9063,888.1245 L254.2969,847.8472 L254.6875,851.4599 L255.0781,846.6943 L255.4688,841.1984 L255.8594,840.8525 L256.25,767.5636 L256.6406,774.443 L257.0313,843.9655 L257.4219,853.689 L257.8125,762.9517 L258.2031,794.3895 L258.5938,778.363 L258.9844,840.6219 L259.375,841.1215 L259.7656,849.5767 L260.1563,842.2746 L260.5469,839.738 L260.9375,805.4965 L261.3281,856.0718 L261.7188,839.7765 L262.1094,846.0409 L262.5,839.9686 L262.8906,769.1393 L263.2813,785.8574 L263.6719,851.8442 L264.0625,774.4814 L264.4531,768.486 L264.8438,781.5912 L265.2344,868.0243 L265.625,776.4031 L266.0156,786.8952 L266.4063,776.5184 L266.7969,760.7611 L267.1875,840.0839 L267.5781,851.6136 L267.9688,766.8719 L268.3594,847.3477 L268.75,839.9302 L269.1406,843.3891 L269.5313,772.4446 L269.9219,839.4306 L270.3125,840.5451 L270.7031,856.6099 L271.0938,760.7996 L271.4844,774.2509 L271.875,844.6959 L272.2656,861.8751 L272.6563,845.2723 L273.0469,851.8826 L273.4375,920.136 L273.8281,848.5005 L274.2188,770.8304 L274.6094,771.5605 L275,839.2769 L275.3906,839.6996 L275.7813,834.8955 L276.1719,837.4706 L276.5625,845.3107 L276.9531,842.0439 L277.3438,770.5614 L277.7344,852.6898 L278.125,841.2369 L278.5156,845.5798 L278.9063,840.353 L279.2969,842.4667 L279.6875,842.9279 L280.0781,846.6943 L280.4688,852.4976 L280.8594,859.4923 L281.25,844.7726 L281.6406,857.6476 L282.0313,769.3699 L282.4219,842.0056 L282.8125,838.3929 L283.2031,843.6581 L283.5938,784.7813 L283.9844,760.7227 L284.375,869.5616 L284.7656,773.0979 L285.1563,857.955 L285.5469,855.2263 L285.9375,770.9841 L286.3281,843.8502 L286.7188,839.469 L287.1094,836.9709 L287.5,835.6257 L287.8906,784.3586 L288.2813,759.4543 L288.6719,775.9035 L289.0625,771.4069 L289.4531,853.6506 L289.8438,776.4031 L290.2344,853.0356 L290.625,773.9818 L291.0156,760.6843 L291.4063,834.934 L291.7969,843.0047 L292.1875,777.4407 L292.5781,840.1608 L292.9688,840.4682 L293.3594,842.0824 L293.75,855.1879 L294.1406,761.9141 L294.5313,851.1909 L294.9219,765.1423 L295.3125,855.111 L295.7031,847.3092 L296.0938,840.1992 L296.4844,766.2568 L296.875,834.8954 L297.2656,777.5176 L297.6563,837.9701 L298.0469,772.5214 L298.4375,840.353 L298.8281,769.1009 L299.2188,839.738 L299.6094,843.2353 L300,877.9399 L300.3906,849.3462 L300.7813,769.4468 L301.1719,772.5598 L301.5625,836.2407 L301.9531,854.2654 L302.3438,764.7964 L302.7344,758.1093 L303.125,843.5043 L303.5156,842.582 L303.9063,773.7897 L304.2969,772.5214 L304.6875,791.1996 L305.0781,846.8096 L305.4688,847.3476 L305.8594,841.8903 L306.25,785.2426 L306.6407,842.7358 L307.0313,836.8171 L307.4219,773.9049 L307.8125,838.7772 L308.2031,760.6073 L308.5938,856.2256 L308.9844,833.4735 L309.375,774.8273 L309.7656,840.353 L310.1563,846.2715 L310.5469,849.0386 L310.9375,854.573 L311.3281,767.8711 L311.7188,772.9442 L312.1094,838.1622 L312.5,849.3846 L312.8906,768.4091 L313.2813,854.4961 L313.6719,847.9626 L314.0625,849.9611 L314.4532,845.3876 L314.8438,853.4968 L315.2344,873.6354 L315.625,837.509 L316.0156,855.5338 L316.4063,762.4521 L316.7969,847.117 L317.1875,764.8734 L317.5781,761.8372 L317.9688,839.6611 L318.3594,857.3016 L318.75,767.7941 L319.1406,870.9451 L319.5313,853.9965 L319.9219,843.5428 L320.3125,823.5597 L320.7031,762.9133 L321.0938,845.7719 L321.4844,855.3416 L321.875,940.6995 L322.2657,853.5729 L322.6563,875.3649 L323.0469,775.2117 L323.4375,768.7166 L323.8281,841.6212 L324.2188,875.8646 L324.6094,840.8525 L325,894.9655 L325.3906,853.4968 L325.7813,779.1318 L326.1719,852.4207 L326.5625,866.9471 L326.9531,866.1411 L327.3438,772.752 L327.7344,773.0211 L328.125,861.8367 L328.5156,862.6437 L328.9063,844.2346 L329.2969,839.6227 L329.6875,866.7945 L330.0782,896.887 L330.4688,947.4251 L330.8594,857.1863 L331.25,855.9566 L331.6406,907.9557 L332.0313,836.2023 L332.4219,844.0424 L332.8125,854.4576 L333.2031,867.2556 L333.5938,776.749 L333.9844,934.6658 L334.375,778.9012 L334.7656,824.3668 L335.1563,877.0184 L335.5469,870.8299 L335.9375,764.1047 L336.3281,867.8321 L336.7188,853.3444 L337.1094,894.3505 L337.5,775.9034 L337.8907,776.48 L338.2813,770.3307 L338.6719,946.349 L339.0625,853.1893 L339.4531,791.6223 L339.8438,841.1985 L340.2344,883.4752 L340.625,910.1463 L341.0156,877.1328 L341.4063,765.1423 L341.7969,771.1379 L342.1875,763.6435 L342.5781,764.2969 L342.9688,836.4328 L343.3594,769.1394 L343.75,865.8337 L344.1406,904.7252 L344.5313,860.0303 L344.9219,866.7176 L345.3125,857.2248 L345.7032,763.0286 L346.0938,765.3729 L346.4844,764.9886 L346.875,884.166 L347.2656,850.1533 L347.6563,771.9449 L348.0469,847.3092 L348.4375,856.0334 L348.8281,770.0617 L349.2188,832.7048 L349.6094,839.0847 L350,847.8473 L350.3906,870.5224 L350.7813,849.0002 L351.1719,773.8281 L351.5625,838.3544 L351.9531,757.3021 L352.3438,863.374 L352.7344,865.0266 L353.125,765.4113 L353.5157,754.9962 L353.9063,838.5466 L354.2969,771.6759 L354.6875,845.9257 L355.0781,847.7704 L355.4688,779.8619 L355.8594,842.2361 L356.25,838.8541 L356.6406,764.2969 L357.0313,782.4754 L357.4219,763.413 L357.8125,761.4144 L358.2031,850.6913 L358.5938,838.8156 L358.9844,780.9766 L359.375,771.1378 L359.7656,766.4875 L360.1563,857.2632 L360.5469,780.7844 L360.9375,755.6496 L361.3282,842.4667 L361.7188,857.2632 L362.1094,837.9702 L362.5,843.5043 L362.8906,761.7219 L363.2813,839.5074 L363.6719,768.1401 L364.0625,853.3046 L364.4531,843.3892 L364.8438,841.9286 L365.2344,765.9879 L365.625,763.7588 L366.0156,768.9855 L366.4063,839.8149 L366.7969,759.7618 L367.1875,846.7327 L367.5781,840.545 L367.9688,896.9618 L368.3594,847.194 L368.75,842.6973 L369.1407,830.1299 L369.5313,760.761 L369.9219,841.5059 L370.3125,848.5775 L370.7031,761.9525 L371.0938,843.8118 L371.4844,763.2592 L371.875,839.6227 L372.2656,835.8179 L372.6563,839.5459 L373.0469,856.7635 L373.4375,840.2376 L373.8281,772.2908 L374.2188,840.7756 L374.6094,840.5836 L375,845.2338 L375.3906,846.4252 L375.7813,838.2391 L376.1719,844.1193 L376.5625,849.423 L376.9532,769.293 L377.3438,847.1939 L377.7344,772.7136 L378.125,778.2479 L378.5156,841.1984 L378.9063,767.4483 L379.2969,841.0447 L379.6875,847.8088 L380.0781,771.6374 L380.4688,763.9893 L380.8594,849.6921 L381.25,851.8827 L381.6406,828.8616 L382.0313,833.0508 L382.4219,845.157 L382.8125,840.6989 L383.2031,767.6788 L383.5938,851.4214 L383.9844,847.6166 L384.375,762.798 L384.7657,840.6988 L385.1563,767.2945 L385.5469,836.2407 L385.9375,845.4645 L386.3281,833.512 L386.7188,854.6883 L387.1094,859.7614 L387.5,776.5568 L387.8906,843.1584 L388.2813,763.7972 L388.6719,852.2286 L389.0625,844.8112 L389.4531,843.9656 L389.8438,842.313 L390.2344,838.8925 L390.625,841.4286 L391.0156,855.0341 L391.4063,763.4897 L391.7969,845.1185 L392.1875,758.3398 L392.5782,774.097 L392.9688,762.798 L393.3594,838.7388 L393.75,778.0557 L394.1406,853.8043 L394.5313,838.3929 L394.9219,776.7106 L395.3125,872.9437 L395.7031,840.8525 L396.0938,844.3114 L396.4844,859.6075 L396.875,774.9811 L397.2656,764.7581 L397.6563,851.114 L398.0469,846.9634 L398.4375,787.7407 L398.8281,836.7403 L399.2188,798.5018 L399.6094,843.4275 L400,840.6603 L400.3907,855.6874 L400.7813,854.2655 L401.1719,773.0594 L401.5625,846.5021 L401.9531,863.7968 L402.3438,840.2761 L402.7344,831.3597 L403.125,837.8932 L403.5156,812.6449 L403.9063,841.6212 L404.2969,856.4561 L404.6875,768.7549 L405.0781,765.2192 L405.4688,836.6251 L405.8594,854.5345 L406.25,847.0786 L406.6406,768.4091 L407.0313,772.8673 L407.4219,807.7639 L407.8125,764.4506 L408.2032,766.4875 L408.5938,841.7365 L408.9844,777.0564 L409.375,782.3217 L409.7656,767.1793 L410.1563,866.1026 L410.5469,766.6028 L410.9375,896.3085 L411.3281,850.3453 L411.7188,846.6174 L412.1094,839.2 L412.5,781.1687 L412.8906,879.9768 L413.2813,778.2478 L413.6719,786.0496 L414.0625,761.7988 L414.4531,758.6473 L414.8438,783.2441 L415.2344,841.429 L415.625,845.2338 L416.0157,841.4291 L416.4063,848.4622 L416.7969,845.8103 L417.1875,761.2222 L417.5781,842.1592 L417.9688,765.8341 L418.3594,764.3737 L418.75,840.6605 L419.1406,797.3104 L419.5313,757.7634 L419.9219,763.1823 L420.3125,755.8417 L420.7031,843.4275 L421.0938,864.7191 L421.4844,841.5828 L421.875,757.2253 L422.2656,762.798 L422.6563,849.692 L423.0469,842.6204 L423.4375,846.0026 L423.8282,863.5661 L424.2188,842.6973 L424.6094,781.2455 L425,838.4313 L425.3906,778.171 L425.7813,841.5828 L426.1719,790.1235 L426.5625,835.5873 L426.9531,840.6219 L427.3438,768.5245 L427.7344,836.894 L428.125,837.8549 L428.5156,843.9271 L428.9063,768.0632 L429.2969,844.3114 L429.6875,846.6943 L430.0781,857.2632 L430.4688,768.6397 L430.8594,849.0387 L431.25,838.5465 L431.6407,841.3907 L432.0313,860.2609 L432.4219,850.1533 L432.8125,839.2 L433.2031,779.862 L433.5938,840.1992 L433.9844,843.8503 L434.375,857.0325 L434.7656,838.6235 L435.1563,851.0372 L435.5469,807.3028 L435.9375,797.5024 L436.3281,844.5037 L436.7188,786.972 L437.1094,773.3669 L437.5,854.7266 L437.8906,841.9286 L438.2813,857.3016 L438.6719,851.4599 L439.0625,853.7659 L439.4532,805.458 L439.8438,795.0428 L440.2344,838.7772 L440.625,915.5652 L441.0156,858.0319 L441.4063,777.2485 L441.7969,840.3145 L442.1875,850.7681 L442.5781,853.9197 L442.9688,813.2214 L443.3594,864.5654 L443.75,828.5559 L444.1406,844.1578 L444.5313,880.8223 L444.9219,858.3393 L445.3125,845.1569 L445.7031,868.9082 L446.0938,852.8435 L446.4844,834.5881 L446.875,846.5789 L447.2657,764.8734 L447.6563,805.1887 L448.0469,837.3552 L448.4375,907.6097 L448.8281,843.4659 L449.2188,759.9155 L449.6094,842.6204 L450,840.9679 L450.3906,848.0778 L450.7813,770.446 L451.1719,771.945 L451.5625,779.5545 L451.9531,842.313 L452.3438,887.3156 L452.7344,838.0082 L453.125,845.1185 L453.5156,764.9117 L453.9063,856.3024 L454.2969,845.6951 L454.6875,838.8541 L455.0782,876.9406 L455.4688,763.6435 L455.8594,758.9163 L456.25,863.1434 L456.6406,771.9064 L457.0313,840.0455 L457.4219,841.2753 L457.8125,845.695 L458.2031,840.5067 L458.5938,867.6016 L458.9844,857.6475 L459.375,875.2866 L459.7656,772.2524 L460.1563,836.4329 L460.5469,842.6204 L460.9375,833.9732 L461.3281,831.4366 L461.7188,848.539 L462.1094,854.6498 L462.5,759.416 L462.8907,843.7734 L463.2813,758.1093 L463.6719,843.3891 L464.0625,846.8864 L464.4531,760.6458 L464.8438,840.8525 L465.2344,842.044 L465.625,850.6144 L466.0156,761.1838 L466.4063,763.7972 L466.7969,890.8514 L467.1875,853.6121 L467.5781,849.4614 L467.9688,770.2538 L468.3594,837.2015 L468.75,839.5458 L469.1406,764.9117 L469.5313,798.1559 L469.9219,839.5843 L470.3125,884.856 L470.7032,846.1562 L471.0938,844.3882 L471.4844,845.0801 L471.875,765.6036 L472.2656,853.1893 L472.6563,878.0168 L473.0469,775.5959 L473.4375,763.4514 L473.8281,840.5067 L474.2188,801.7685 L474.6094,779.4008 L475,765.2576 L475.3906,844.5421 L475.7813,855.4569 L476.1719,838.1239 L476.5625,766.4875 L476.9531,840.4298 L477.3438,841.1984 L477.7344,766.5643 L478.125,759.07 L478.5157,838.0854 L478.9063,883.0128 L479.2969,867.7552 L479.6875,858.8774 L480.0781,779.593 L480.4688,846.4637 L480.8594,777.4023 L481.25,767.2946 L481.6406,764.7964 L482.0313,841.1215 L482.4219,762.1062 L482.8125,841.5059 L483.2031,764.1047 L483.5938,776.2109 L483.9844,842.4283 L484.375,844.9264 L484.7656,887.4327 L485.1563,763.7972 L485.5469,841.7749 L485.9375,838.7003 L486.3282,762.2983 L486.7188,857.3401 L487.1094,867.7937 L487.5,761.9141 L487.8906,891.0838 L488.2813,858.5699 L488.6719,841.5444 L489.0625,836.7404 L489.4531,872.3287 L489.8438,841.7365 L490.2344,853.1509 L490.625,760.3768 L491.0156,841.1601 L491.4063,860.5684 L491.7969,764.0278 L492.1875,760.5305 L492.5781,838.9309 L492.9688,851.6137 L493.3594,844.0424 L493.75,850.8834 L494.1407,897.4252 L494.5313,767.2177 L494.9219,769.4852 L495.3125,843.5813 L495.7031,889.1622 L496.0938,853.9196 L496.4844,845.5413 L496.875,839.6611 L497.2656,877.5171 L497.6563,844.1193 L498.0469,758.8395 L498.4375,864.9113 L498.8281,757.8787 L499.2188,766.2569 L499.6094,840.1992 L500,840.1223 L500.3906,840.7372 L500.7813,770.0233 L501.1719,837.9317 L501.5625,765.2192 L501.9532,932.8979 L502.3438,763.3745 L502.7344,811.9531 L503.125,764.7196 L503.5156,782.9366 L503.9063,898.1169 L504.2969,832.9355 L504.6875,918.1403 L505.0781,763.1823 L505.4688,855.8028 L505.8594,863.3355 L506.25,880.707 L506.6406,825.3643 L507.0313,853.8811 L507.4219,869.2542 L507.8125,830.2469 L508.2031,761.9909 L508.5938,843.4659 L508.9844,878.2089 L509.375,847.3861 L509.7657,784.6276 L510.1563,761.6834 L510.5469,839.6612 L510.9375,777.0179 L511.3281,750 L511.7188,864.527 L512.1094,788.932 L512.5,844.1193 L512.8906,841.5828 L513.2813,866.5255 L513.6719,867.1403 L514.0625,761.7603 L514.4531,842.3514 L514.8438,766.2569 L515.2344,770.3307 L515.625,793.8129 L516.0156,905.6112 L516.4063,763.2208 L516.7969,845.0417 L517.1875,831.1309 L517.5781,764.3353 L517.9688,796.0805 L518.3594,836.4713 L518.75,839.2769 L519.1406,767.602 L519.5313,887.279 L519.9219,878.7085 L520.3125,840.0839 L520.7031,841.1984 L521.0938,766.3339 L521.4844,807.6871 L521.875,886.2797 L522.2656,873.3665 L522.6563,851.8442 L523.0469,844.0809 L523.4375,852.3439 L523.8281,831.8594 L524.2188,841.3522 L524.6094,875.4418 L525,761.5297 L525.3906,877.056 L525.7813,844.6573 L526.1719,773.4437 L526.5625,762.183 L526.9531,875.4418 L527.3438,844.4652 L527.7344,844.4268 L528.125,846.4637 L528.5156,889.8924 L528.9063,950 L529.2969,757.4175 L529.6875,801.6147 L530.0781,861.2601 L530.4688,845.3876 L530.8594,768.6396 L531.25,861.1448 L531.6406,836.5481 L532.0313,840.5451 L532.4219,836.3175 L532.8125,918.1018 L533.2031,839.6611 L533.5938,847.463 L533.9844,761.2991 L534.375,828.5926 L534.7656,766.8334 L535.1563,845.8872 L535.5469,902.2654 L535.9375,866.1027 L536.3281,869.6385 L536.7188,886.0107 L537.1094,857.4553 L537.5,842.5436 L537.8906,891.814 L538.2813,792.6984 L538.6719,888.7394 L539.0625,803.4211 L539.4531,855.1879 " stroke="blue" fill="none" />
<text x="50" y="1000" font-family="Arial" font-size="12" fill="black">Episode Length (1254)</text>
<text x="50" y="1015" font-family="Arial" font-size="10" fill="black">4589</text>
<text x="50" y="1230" font-family="Arial" font-size="10" fill="black">60</text>
<path d="M50,1168.421 L50.39063,1162.681 L50.78125,1163.785 L51.17188,1160.296 L51.5625,1165.86 L51.95313,1164.756 L52.34375,1162.46 L52.73438,1218.808 L53.125,1158.618 L53.51563,1167.582 L53.90625,1155.041 L54.29688,1154.599 L54.6875,1150.227 L55.07813,1153.363 L55.46875,1153.716 L55.85938,1166.346 L56.25,1153.672 L56.64063,1169.349 L57.03125,1160.693 L57.42188,1174.824 L57.8125,1147.887 L58.20313,1156.631 L58.59375,1158.088 L58.98438,1173.146 L59.375,1160.649 L59.76563,1140.512 L60.15625,1167.626 L60.54688,1187.145 L60.9375,1163.166 L61.32813,1167.317 L61.71875,1174.515 L62.10938,1171.336 L62.5,1164.844 L62.89063,1171.468 L63.28125,1140.91 L63.67188,1171.91 L64.0625,1161.135 L64.45313,1175.663 L64.84375,1165.948 L65.23438,1171.645 L65.625,1151.243 L66.01563,1160.914 L66.40625,1167.891 L66.79688,1153.01 L67.1875,1150.492 L67.57813,1165.418 L67.96875,1161.797 L68.35938,1171.027 L68.75,1160.561 L69.14063,1153.937 L69.53125,1163.917 L69.92188,1154.776 L70.3125,1201.011 L70.70313,1167.273 L71.09375,1155.747 L71.48438,1152.303 L71.875,1170.718 L72.26563,1167.317 L72.65625,1179.815 L73.04688,1158.529 L73.4375,1158.75 L73.82813,1162.106 L74.21875,1173.809 L74.60938,1155.924 L75,1168.156 L75.39063,1165.374 L75.78125,1169.349 L76.17188,1174.648 L76.5625,1165.242 L76.95313,1172.175 L77.34375,1161.577 L77.73438,1156.675 L78.125,1171.38 L78.51563,1164.447 L78.90625,1160.826 L79.29688,1155.173 L79.6875,1172.572 L80.07813,1169.525 L80.46875,1155.659 L80.85938,1168.51 L81.25,1152.435 L81.64063,1160.428 L82.03125,1165.242 L82.42188,1167.361 L82.8125,1168.024 L83.20313,1167.759 L83.59375,1162.327 L83.98438,1152.877 L84.375,1164.049 L84.76563,1163.299 L85.15625,1161.532 L85.54688,1162.062 L85.9375,1166.169 L86.32813,1171.91 L86.71875,1173.102 L87.10938,1169.304 L87.5,1153.804 L87.89063,1154.069 L88.28125,1172.926 L88.67188,1170.629 L89.0625,1167.715 L89.45313,1161.091 L89.84375,1149.698 L90.23438,1152.259 L90.625,1166.125 L91.01563,1171.777 L91.40625,1160.163 L91.79688,1170.983 L92.1875,1163.475 L92.57813,1178.004 L92.96875,1165.595 L93.35938,1170.453 L93.75,1155.218 L94.14063,1168.465 L94.53125,1166.346 L94.92188,1150.404 L95.3125,1167.185 L95.70313,1163.255 L96.09375,1194.785 L96.48438,1165.463 L96.875,1172.881 L97.26563,1161.135 L97.65625,1158.618 L98.04688,1161.532 L98.4375,1171.292 L98.82813,1157.558 L99.21875,1166.522 L99.60938,1173.985 L100,1164.889 L100.3906,1161.621 L100.7813,1157.558 L101.1719,1166.257 L101.5625,1169.128 L101.9531,1165.993 L102.3438,1170.85 L102.7344,1171.071 L103.125,1177.43 L103.5156,1172.528 L103.9063,1167.626 L104.2969,1168.642 L104.6875,1171.557 L105.0781,1166.302 L105.4688,1167.273 L105.8594,1155.659 L106.25,1170.585 L106.6406,1165.816 L107.0313,1171.38 L107.4219,1169.437 L107.8125,1151.331 L108.2031,1165.463 L108.5938,1166.832 L108.9844,1172.307 L109.375,1176.37 L109.7656,1166.832 L110.1563,1162.681 L110.5469,1144.354 L110.9375,1162.99 L111.3281,1173.72 L111.7188,1154.688 L112.1094,1157.823 L112.5,1162.195 L112.8906,1171.159 L113.2813,1138.039 L113.6719,1150.36 L114.0625,1164.226 L114.4531,1197.611 L114.8438,1144.398 L115.2344,1150.978 L115.625,1158.397 L116.0156,1158.529 L116.4063,1162.945 L116.7969,1197.523 L117.1875,1169.481 L117.5781,1174.559 L117.9688,1174.25 L118.3594,1181.051 L118.75,1154.202 L119.1406,1165.507 L119.5313,1173.941 L119.9219,1144.928 L120.3125,1155.482 L120.7031,1162.239 L121.0938,1169.834 L121.4844,1158.176 L121.875,1196.86 L122.2656,1204.412 L122.6563,1147.975 L123.0469,1167.008 L123.4375,1155.924 L123.8281,1165.109 L124.2188,1163.564 L124.6094,1169.349 L125,1157.426 L125.3906,1164.403 L125.7813,1214.877 L126.1719,1153.76 L126.5625,1125.851 L126.9531,1063.012 L127.3438,1219.691 L127.7344,1143.692 L128.125,1144.398 L128.5156,1171.071 L128.9063,1150.007 L129.2969,1160.782 L129.6875,1155.527 L130.0781,1163.343 L130.4688,1127.353 L130.8594,1160.826 L131.25,1163.387 L131.6406,1174.604 L132.0313,1165.33 L132.4219,1164.005 L132.8125,1203.617 L133.2031,1149.653 L133.5938,1150.36 L133.9844,1168.465 L134.375,1170.276 L134.7656,1155.836 L135.1563,1170.762 L135.5469,1149.521 L135.9375,1214.392 L136.3281,1165.948 L136.7188,1176.723 L137.1094,1161.444 L137.5,1170.011 L137.8906,1167.008 L138.2813,1170.983 L138.6719,1149.521 L139.0625,1174.957 L139.4531,1148.505 L139.8438,1205.516 L140.2344,1166.037 L140.625,1172.572 L141.0156,1162.504 L141.4063,1168.73 L141.7969,1176.282 L142.1875,1163.564 L142.5781,1162.857 L142.9688,1135.213 L143.3594,1157.955 L143.75,1160.958 L144.1406,1166.567 L144.5313,1148.77 L144.9219,1170.453 L145.3125,1175.001 L145.7031,1165.198 L146.0938,1165.153 L146.4844,1179.152 L146.875,1155.173 L147.2656,1174.03 L147.6563,1157.072 L148.0469,1159.987 L148.4375,1144.84 L148.8281,1124.615 L149.2188,1146.385 L149.6094,1170.894 L150,1169.879 L150.3906,1172.97 L150.7813,1173.323 L151.1719,1146.915 L151.5625,1156.366 L151.9531,1165.021 L152.3438,1123.511 L152.7344,1168.333 L153.125,1149.432 L153.5156,1164.182 L153.9063,1156.057 L154.2969,1162.239 L154.6875,1154.158 L155.0781,1175.399 L155.4688,1168.73 L155.8594,1149.742 L156.25,1162.99 L156.6406,1172.616 L157.0313,1156.631 L157.4219,1158.883 L157.8125,1154.864 L158.2031,1172.44 L158.5938,1166.876 L158.9844,1162.857 L159.375,1139.673 L159.7656,1166.169 L160.1563,1166.964 L160.5469,1143.603 L160.9375,1152.612 L161.3281,1167.759 L161.7188,1178.048 L162.1094,1168.112 L162.5,1143.25 L162.8906,1163.608 L163.2813,1176.017 L163.6719,1179.77 L164.0625,1166.257 L164.4531,1163.122 L164.8438,1164.314 L165.2344,1156.189 L165.625,1167.494 L166.0156,1164.535 L166.4063,1159.766 L166.7969,1170.938 L167.1875,1166.655 L167.5781,1170.629 L167.9688,1170.276 L168.3594,1153.407 L168.75,1159.148 L169.1406,1164.138 L169.5313,1152.833 L169.9219,1164.094 L170.3125,1158.75 L170.7031,1172.793 L171.0938,1150.183 L171.4844,1160.517 L171.875,1155.173 L172.2656,1167.847 L172.6563,1156.94 L173.0469,1165.86 L173.4375,1159.059 L173.8281,1168.51 L174.2188,1153.849 L174.6094,1134.727 L175,1173.632 L175.3906,1160.075 L175.7813,1164.668 L176.1719,1181.448 L176.5625,1147.49 L176.9531,1144.663 L177.3438,1149.432 L177.7344,1152.215 L178.125,1148.505 L178.5156,1146.076 L178.9063,1149.168 L179.2969,1164.005 L179.6875,1173.058 L180.0781,1196.463 L180.4688,1165.683 L180.8594,1212.934 L181.25,1171.292 L181.6406,1128.015 L182.0313,1167.317 L182.4219,1171.998 L182.8125,1142.72 L183.2031,1168.863 L183.5938,1152.435 L183.9844,1136.317 L184.375,1218.145 L184.7656,1172.396 L185.1563,1149.918 L185.5469,1165.772 L185.9375,1176.193 L186.3281,1173.014 L186.7188,1168.2 L187.1094,1156.984 L187.5,1151.243 L187.8906,1146.651 L188.2813,1173.102 L188.6719,1171.601 L189.0625,1154.688 L189.4531,1171.91 L189.8438,1149.168 L190.2344,1167.008 L190.625,1158.485 L191.0156,1153.672 L191.4063,1169.304 L191.7969,1151.552 L192.1875,1154.114 L192.5781,1160.561 L192.9688,1143.206 L193.3594,1176.414 L193.75,1161.753 L194.1406,1171.027 L194.5313,1142.632 L194.9219,1146.695 L195.3125,1182.685 L195.7031,1167.45 L196.0938,1155.041 L196.4844,1170.762 L196.875,1197.567 L197.2656,1155.836 L197.6563,1174.427 L198.0469,1195.447 L198.4375,1164.359 L198.8281,1168.686 L199.2188,1151.155 L199.6094,1166.964 L200,1152.215 L200.3906,1170.894 L200.7813,1151.376 L201.1719,1155.615 L201.5625,1171.645 L201.9531,1172.175 L202.3438,1149.388 L202.7344,1168.51 L203.125,1161.797 L203.5156,1163.608 L203.9063,1139.055 L204.2969,1171.822 L204.6875,1155.836 L205.0781,1159.369 L205.4688,1154.467 L205.8594,1160.075 L206.25,1172.44 L206.6406,1165.286 L207.0313,1175.708 L207.4219,1176.326 L207.8125,1185.909 L208.2031,1160.958 L208.5938,1176.458 L208.9844,1179.903 L209.375,1174.118 L209.7656,1174.25 L210.1563,1173.809 L210.5469,1163.873 L210.9375,1170.585 L211.3281,1166.832 L211.7188,1170.011 L212.1094,1172.926 L212.5,1172.307 L212.8906,1174.471 L213.2813,1158.176 L213.6719,1158 L214.0625,1143.206 L214.4531,1163.255 L214.8438,1171.601 L215.2344,1157.823 L215.625,1157.823 L216.0156,1138.922 L216.4063,1219.779 L216.7969,1154.423 L217.1875,1163.917 L217.5781,1148.108 L217.9688,1155.438 L218.3594,1145.061 L218.75,1158.265 L219.1406,1159.987 L219.5313,1156.145 L219.9219,1158.529 L220.3125,1168.289 L220.7031,1150.448 L221.0938,1165.021 L221.4844,1167.141 L221.875,1175.531 L222.2656,1162.681 L222.6563,1148.77 L223.0469,1165.418 L223.4375,1153.407 L223.8281,1139.32 L224.2188,1167.759 L224.6094,1128.28 L225,1163.961 L225.3906,1163.21 L225.7813,1161.267 L226.1719,1164.491 L226.5625,1166.213 L226.9531,1203.617 L227.3438,1161.665 L227.7344,1167.494 L228.125,1172.484 L228.5156,1162.636 L228.9063,1168.156 L229.2969,1168.024 L229.6875,1159.678 L230.0781,1166.655 L230.4688,1168.377 L230.8594,1157.514 L231.25,1139.894 L231.6406,1166.257 L232.0313,1160.473 L232.4219,1165.904 L232.8125,1166.567 L233.2031,1156.101 L233.5938,1170.408 L233.9844,1170.894 L234.375,1168.112 L234.7656,1176.547 L235.1563,1153.893 L235.5469,1158.883 L235.9375,1169.216 L236.3281,1162.945 L236.7188,1158.044 L237.1094,1147.799 L237.5,1178.666 L237.8906,1174.78 L238.2813,1143.383 L238.6719,1161.444 L239.0625,1141.13 L239.4531,1158.397 L239.8438,1153.319 L240.2344,1020 L240.625,1141.749 L241.0156,1145.061 L241.4063,1156.012 L241.7969,1167.671 L242.1875,1169.084 L242.5781,1101.607 L242.9688,1161.179 L243.3594,1130.311 L243.75,1162.239 L244.1406,1167.361 L244.5313,1168.333 L244.9219,1166.743 L245.3125,1153.451 L245.7031,1129.296 L246.0938,1147.225 L246.4844,1142.676 L246.875,1157.779 L247.2656,1169.349 L247.6563,1163.21 L248.0469,1176.458 L248.4375,1153.937 L248.8281,1162.99 L249.2188,1159.015 L249.6094,1170.188 L250,1159.722 L250.3906,1176.723 L250.7813,1153.584 L251.1719,1169.569 L251.5625,1150.846 L251.9531,1170.188 L252.3438,1168.73 L252.7344,1169.658 L253.125,1166.655 L253.5156,1168.642 L253.9063,1115.474 L254.2969,1161.753 L254.6875,1157.602 L255.0781,1163.078 L255.4688,1169.393 L255.8594,1169.79 L256.25,1165.683 L256.6406,1157.779 L257.0313,1166.213 L257.4219,1155.041 L257.8125,1170.983 L258.2031,1134.86 L258.5938,1153.274 L258.9844,1170.055 L259.375,1169.481 L259.7656,1159.766 L260.1563,1168.156 L260.5469,1171.071 L260.9375,1122.098 L261.3281,1152.303 L261.7188,1171.027 L262.1094,1163.829 L262.5,1170.806 L262.8906,1163.873 L263.2813,1144.663 L263.6719,1157.161 L264.0625,1157.735 L264.4531,1164.624 L264.8438,1149.565 L265.2344,1138.569 L265.625,1155.527 L266.0156,1143.471 L266.4063,1155.394 L266.7969,1173.5 L267.1875,1170.673 L267.5781,1157.426 L267.9688,1166.478 L268.3594,1162.327 L268.75,1170.85 L269.1406,1166.876 L269.5313,1160.075 L269.9219,1171.424 L270.3125,1170.144 L270.7031,1151.685 L271.0938,1173.456 L271.4844,1158 L271.875,1165.374 L272.2656,1145.635 L272.6563,1164.712 L273.0469,1157.116 L273.4375,1220 L273.8281,1161.002 L274.2188,1161.93 L274.6094,1161.091 L275,1171.601 L275.3906,1171.115 L275.7813,1176.635 L276.1719,1173.676 L276.5625,1164.668 L276.9531,1168.421 L277.3438,1162.239 L277.7344,1156.189 L278.125,1169.349 L278.5156,1164.359 L278.9063,1170.364 L279.2969,1167.936 L279.6875,1167.406 L280.0781,1163.078 L280.4688,1156.41 L280.8594,1148.373 L281.25,1165.286 L281.6406,1150.492 L282.0313,1163.608 L282.4219,1168.465 L282.8125,1172.616 L283.2031,1166.567 L283.5938,1145.9 L283.9844,1173.544 L284.375,1136.803 L284.7656,1159.324 L285.1563,1150.139 L285.5469,1153.274 L285.9375,1161.753 L286.3281,1166.346 L286.7188,1171.38 L287.1094,1174.25 L287.5,1175.796 L287.8906,1146.385 L288.2813,1175.001 L288.6719,1156.101 L289.0625,1161.267 L289.4531,1155.085 L289.8438,1155.527 L290.2344,1155.792 L290.625,1158.309 L291.0156,1173.588 L291.4063,1176.591 L291.7969,1167.317 L292.1875,1154.334 L292.5781,1170.585 L292.9688,1170.232 L293.3594,1168.377 L293.75,1153.319 L294.1406,1172.175 L294.5313,1157.911 L294.9219,1168.465 L295.3125,1153.407 L295.7031,1162.371 L296.0938,1170.541 L296.4844,1167.185 L296.875,1176.635 L297.2656,1154.246 L297.6563,1173.102 L298.0469,1159.987 L298.4375,1170.364 L298.8281,1163.917 L299.2188,1171.071 L299.6094,1167.052 L300,1127.176 L300.3906,1160.031 L300.7813,1163.52 L301.1719,1159.943 L301.5625,1175.089 L301.9531,1154.378 L302.3438,1168.863 L302.7344,1176.547 L303.125,1166.743 L303.5156,1167.803 L303.9063,1158.529 L304.2969,1159.987 L304.6875,1138.525 L305.0781,1162.945 L305.4688,1162.327 L305.8594,1168.598 L306.25,1145.37 L306.6407,1167.626 L307.0313,1174.427 L307.4219,1158.397 L307.8125,1172.175 L308.2031,1173.676 L308.5938,1152.126 L308.9844,1178.269 L309.375,1157.337 L309.7656,1170.364 L310.1563,1163.564 L310.5469,1160.384 L310.9375,1154.025 L311.3281,1165.33 L311.7188,1159.501 L312.1094,1172.881 L312.5,1159.987 L312.8906,1164.712 L313.2813,1154.114 L313.6719,1161.621 L314.0625,1159.324 L314.4532,1164.579 L314.8438,1155.262 L315.2344,1132.122 L315.625,1173.632 L316.0156,1152.921 L316.4063,1171.557 L316.7969,1162.592 L317.1875,1168.775 L317.5781,1172.263 L317.9688,1171.159 L318.3594,1150.89 L318.75,1165.418 L319.1406,1135.213 L319.5313,1154.688 L319.9219,1166.699 L320.3125,1101.342 L320.7031,1171.027 L321.0938,1164.138 L321.4844,1153.142 L321.875,1055.063 L322.2657,1190.501 L322.6563,1130.135 L323.0469,1156.896 L323.4375,1164.359 L323.8281,1168.907 L324.2188,1129.561 L324.6094,1169.79 L325,1107.613 L325.3906,1155.262 L325.7813,1152.391 L326.1719,1156.498 L326.5625,1192.797 L326.9531,1140.733 L327.3438,1159.722 L327.7344,1159.413 L328.125,1145.679 L328.5156,1144.752 L328.9063,1165.904 L329.2969,1171.203 L329.6875,1139.982 L330.0782,1105.405 L330.4688,1047.335 L330.8594,1151.022 L331.25,1152.435 L331.6406,1092.687 L332.0313,1175.134 L332.4219,1166.125 L332.8125,1154.158 L333.2031,1139.452 L333.5938,1155.129 L333.9844,1061.996 L334.375,1152.656 L334.7656,1100.415 L335.1563,1039.916 L335.5469,1135.346 L335.9375,1169.658 L336.3281,1138.79 L336.7188,1067.119 L337.1094,1108.32 L337.5,1156.101 L337.8907,1155.438 L338.2813,1162.504 L338.6719,1048.571 L339.0625,1155.615 L339.4531,1138.039 L339.8438,1169.393 L340.2344,1032.497 L340.625,1090.17 L341.0156,1128.103 L341.4063,1168.465 L341.7969,1161.577 L342.1875,1170.188 L342.5781,1169.437 L342.9688,1174.869 L343.3594,1163.873 L343.75,1141.086 L344.1406,1202.38 L344.5313,1147.755 L344.9219,1140.071 L345.3125,1150.978 L345.7032,1170.894 L346.0938,1168.2 L346.4844,1168.642 L346.875,1120.022 L347.2656,1159.104 L347.6563,1160.649 L348.0469,1162.371 L348.4375,1152.347 L348.8281,1162.813 L349.2188,1179.152 L349.6094,1171.822 L350,1161.753 L350.3906,1135.699 L350.7813,1160.428 L351.1719,1158.485 L351.5625,1172.661 L351.9531,1177.474 L352.3438,1143.913 L352.7344,1142.014 L353.125,1168.156 L353.5157,1180.124 L353.9063,1172.44 L354.2969,1160.958 L354.6875,1163.961 L355.0781,1161.841 L355.4688,1151.552 L355.8594,1168.2 L356.25,1172.087 L356.6406,1169.437 L357.0313,1148.549 L357.4219,1170.453 L357.8125,1172.749 L358.2031,1158.485 L358.5938,1172.131 L358.9844,1150.272 L359.375,1161.577 L359.7656,1166.92 L360.1563,1150.934 L360.5469,1150.492 L360.9375,1179.373 L361.3282,1167.936 L361.7188,1150.934 L362.1094,1173.102 L362.5,1166.743 L362.8906,1172.396 L363.2813,1171.336 L363.6719,1165.021 L364.0625,1155.482 L364.4531,1166.876 L364.8438,1168.554 L365.2344,1167.494 L365.625,1170.055 L366.0156,1164.049 L366.4063,1170.983 L366.7969,1174.648 L367.1875,1163.034 L367.5781,1170.144 L367.9688,1211.301 L368.3594,1162.504 L368.75,1167.671 L369.1407,1182.111 L369.5313,1173.5 L369.9219,1169.04 L370.3125,1160.914 L370.7031,1172.131 L371.0938,1166.39 L371.4844,1170.629 L371.875,1171.203 L372.2656,1175.575 L372.6563,1171.292 L373.0469,1151.508 L373.4375,1170.497 L373.8281,1160.252 L374.2188,1169.879 L374.6094,1170.099 L375,1164.756 L375.3906,1163.387 L375.7813,1172.793 L376.1719,1166.037 L376.5625,1159.943 L376.9532,1163.696 L377.3438,1162.504 L377.7344,1159.766 L378.125,1153.407 L378.5156,1169.393 L378.9063,1165.816 L379.2969,1169.569 L379.6875,1161.797 L380.0781,1161.002 L380.4688,1169.79 L380.8594,1159.633 L381.25,1157.116 L381.6406,1183.568 L382.0313,1178.755 L382.4219,1164.844 L382.8125,1169.967 L383.2031,1165.551 L383.5938,1157.646 L383.9844,1162.018 L384.375,1171.159 L384.7657,1169.967 L385.1563,1165.993 L385.5469,1175.089 L385.9375,1164.491 L386.3281,1178.225 L386.7188,1153.893 L387.1094,1148.064 L387.5,1155.35 L387.8906,1167.141 L388.2813,1170.011 L388.6719,1156.719 L389.0625,1165.242 L389.4531,1166.213 L389.8438,1168.112 L390.2344,1172.042 L390.625,1186.792 L391.0156,1153.495 L391.4063,1170.364 L391.7969,1164.889 L392.1875,1176.282 L392.5782,1158.176 L392.9688,1171.159 L393.3594,1172.219 L393.75,1153.628 L394.1406,1154.908 L394.5313,1172.616 L394.9219,1155.173 L395.3125,1132.917 L395.7031,1169.79 L396.0938,1165.816 L396.4844,1148.24 L396.875,1157.161 L397.2656,1168.907 L397.6563,1158 L398.0469,1162.769 L398.4375,1142.499 L398.8281,1174.515 L399.2188,1130.135 L399.6094,1166.832 L400,1170.011 L400.3907,1152.745 L400.7813,1154.378 L401.1719,1159.369 L401.5625,1163.299 L401.9531,1143.427 L402.3438,1170.453 L402.7344,1180.698 L403.125,1173.191 L403.5156,1113.884 L403.9063,1168.907 L404.2969,1151.861 L404.6875,1164.314 L405.0781,1168.377 L405.4688,1174.648 L405.8594,1154.069 L406.25,1162.636 L406.6406,1164.712 L407.0313,1159.589 L407.4219,1119.492 L407.8125,1169.26 L408.2032,1166.92 L408.5938,1168.775 L408.9844,1154.776 L409.375,1148.726 L409.7656,1166.125 L410.1563,1140.777 L410.5469,1166.787 L410.9375,1212.051 L411.3281,1158.883 L411.7188,1163.166 L412.1094,1171.689 L412.5,1150.051 L412.8906,1124.835 L413.2813,1153.407 L413.6719,1144.443 L414.0625,1172.307 L414.4531,1175.928 L414.8438,1147.666 L415.2344,1169.128 L415.625,1164.756 L416.0157,1169.128 L416.4063,1161.047 L416.7969,1164.094 L417.1875,1172.97 L417.5781,1168.289 L417.9688,1167.671 L418.3594,1169.349 L418.75,1170.011 L419.1406,1131.504 L419.5313,1176.944 L419.9219,1170.718 L420.3125,1179.152 L420.7031,1166.832 L421.0938,1142.367 L421.4844,1168.951 L421.875,1177.562 L422.2656,1171.159 L422.6563,1159.633 L423.0469,1167.759 L423.4375,1163.873 L423.8282,1143.692 L424.2188,1167.671 L424.6094,1149.963 L425,1172.572 L425.3906,1153.495 L425.7813,1168.951 L426.1719,1139.762 L426.5625,1175.84 L426.9531,1170.055 L427.3438,1164.579 L427.7344,1174.339 L428.125,1173.235 L428.5156,1166.257 L428.9063,1165.109 L429.2969,1165.816 L429.6875,1163.078 L430.0781,1150.934 L430.4688,1164.447 L430.8594,1160.384 L431.25,1172.44 L431.6407,1169.172 L432.0313,1147.49 L432.4219,1159.104 L432.8125,1171.689 L433.2031,1151.552 L433.5938,1170.541 L433.9844,1166.346 L434.375,1151.199 L434.7656,1172.352 L435.1563,1158.088 L435.5469,1120.022 L435.9375,1131.283 L436.3281,1165.595 L436.7188,1143.383 L437.1094,1159.015 L437.5,1153.849 L437.8906,1168.554 L438.2813,1150.89 L438.6719,1157.602 L439.0625,1154.953 L439.4532,1122.142 L439.8438,1134.109 L440.2344,1172.175 L440.625,1083.943 L441.0156,1150.051 L441.4063,1154.555 L441.7969,1170.408 L442.1875,1158.397 L442.5781,1154.776 L442.9688,1113.221 L443.3594,1142.544 L443.75,1095.602 L444.1406,1165.993 L444.5313,1123.864 L444.9219,1149.698 L445.3125,1164.844 L445.7031,1137.554 L446.0938,1156.012 L446.4844,1176.988 L446.875,1163.21 L447.2657,1168.775 L447.6563,1140.115 L448.0469,1173.809 L448.4375,1093.085 L448.8281,1166.787 L449.2188,1174.471 L449.6094,1167.759 L450,1169.658 L450.3906,1161.488 L450.7813,1162.371 L451.1719,1160.649 L451.5625,1151.906 L451.9531,1168.112 L452.3438,1204.721 L452.7344,1190.722 L453.125,1164.889 L453.5156,1168.73 L453.9063,1152.038 L454.2969,1164.226 L454.6875,1172.087 L455.0782,1128.324 L455.4688,1170.188 L455.8594,1175.619 L456.25,1144.177 L456.6406,1160.693 L457.0313,1170.718 L457.4219,1169.304 L457.8125,1164.226 L458.2031,1170.188 L458.5938,1139.055 L458.9844,1150.492 L459.375,1200.879 L459.7656,1160.296 L460.1563,1174.869 L460.5469,1167.759 L460.9375,1177.695 L461.3281,1180.609 L461.7188,1160.958 L462.1094,1153.937 L462.5,1175.045 L462.8907,1166.434 L463.2813,1176.547 L463.6719,1166.876 L464.0625,1162.857 L464.4531,1173.632 L464.8438,1169.79 L465.2344,1168.421 L465.625,1158.574 L466.0156,1173.014 L466.4063,1170.011 L466.7969,1200.658 L467.1875,1155.129 L467.5781,1159.898 L467.9688,1162.592 L468.3594,1173.985 L468.75,1171.292 L469.1406,1168.73 L469.5313,1130.532 L469.9219,1171.248 L470.3125,1207.547 L470.7032,1163.696 L471.0938,1165.728 L471.4844,1164.933 L471.875,1167.936 L472.2656,1155.615 L472.6563,1127.088 L473.0469,1156.454 L473.4375,1170.408 L473.8281,1170.188 L474.2188,1126.381 L474.6094,1152.082 L475,1168.333 L475.3906,1165.551 L475.7813,1153.01 L476.1719,1172.926 L476.5625,1166.92 L476.9531,1170.276 L477.3438,1169.393 L477.7344,1166.832 L478.125,1175.443 L478.5157,1172.97 L478.9063,1121.347 L479.2969,1138.878 L479.6875,1149.079 L480.0781,1151.861 L480.4688,1163.343 L480.8594,1154.378 L481.25,1165.993 L481.6406,1168.863 L482.0313,1169.481 L482.4219,1171.954 L482.8125,1169.04 L483.2031,1169.658 L483.5938,1155.747 L483.9844,1167.98 L484.375,1165.109 L484.7656,1116.268 L485.1563,1170.011 L485.5469,1168.73 L485.9375,1172.263 L486.3282,1171.733 L486.7188,1150.846 L487.1094,1138.834 L487.5,1172.175 L487.8906,1112.073 L488.2813,1149.432 L488.6719,1168.995 L489.0625,1174.515 L489.4531,1133.623 L489.8438,1168.775 L490.2344,1155.659 L490.625,1173.941 L491.0156,1169.437 L491.4063,1147.136 L491.7969,1169.746 L492.1875,1173.765 L492.5781,1171.998 L492.9688,1157.426 L493.3594,1166.125 L493.75,1158.265 L494.1407,1104.787 L494.5313,1166.081 L494.9219,1163.475 L495.3125,1166.655 L495.7031,1114.281 L496.0938,1154.776 L496.4844,1164.403 L496.875,1171.159 L497.2656,1127.662 L497.6563,1166.037 L498.0469,1175.708 L498.4375,1142.146 L498.8281,1176.812 L499.2188,1167.185 L499.6094,1170.541 L500,1170.629 L500.3906,1169.923 L500.7813,1162.857 L501.1719,1173.146 L501.5625,1168.377 L501.9532,1064.027 L502.3438,1170.497 L502.7344,1114.679 L503.125,1168.951 L503.5156,1148.019 L503.9063,1103.992 L504.2969,1178.887 L504.6875,1080.985 L505.0781,1170.718 L505.4688,1152.612 L505.8594,1143.957 L506.25,1123.996 L506.6406,1187.587 L507.0313,1154.82 L507.4219,1137.156 L507.8125,1093.659 L508.2031,1172.087 L508.5938,1166.787 L508.9844,1126.867 L509.375,1162.283 L509.7657,1146.076 L510.1563,1172.44 L510.5469,1171.159 L510.9375,1154.82 L511.3281,1185.864 L511.7188,1142.588 L512.1094,1141.13 L512.5,1166.037 L512.8906,1168.951 L513.2813,1140.292 L513.6719,1139.585 L514.0625,1172.352 L514.4531,1168.068 L514.8438,1167.185 L515.2344,1162.504 L515.625,1135.522 L516.0156,1095.381 L516.4063,1170.673 L516.7969,1164.977 L517.1875,1092.643 L517.5781,1169.393 L517.9688,1132.917 L518.3594,1174.824 L518.75,1171.601 L519.1406,1165.639 L519.5313,1116.445 L519.9219,1126.293 L520.3125,1170.673 L520.7031,1169.393 L521.0938,1167.096 L521.4844,1119.58 L521.875,1117.593 L522.2656,1132.431 L522.6563,1157.161 L523.0469,1166.081 L523.4375,1156.586 L523.8281,1180.124 L524.2188,1169.216 L524.6094,1130.046 L525,1172.616 L525.3906,1128.192 L525.7813,1165.418 L526.1719,1158.927 L526.5625,1171.866 L526.9531,1130.046 L527.3438,1165.639 L527.7344,1165.683 L528.125,1163.343 L528.5156,1113.442 L528.9063,1044.376 L529.2969,1177.342 L529.6875,1126.558 L530.0781,1146.341 L530.4688,1164.579 L530.8594,1164.447 L531.25,1146.474 L531.6406,1174.736 L532.0313,1170.144 L532.4219,1175.001 L532.8125,1081.029 L533.2031,1171.159 L533.5938,1162.195 L533.9844,1172.881 L534.375,1183.877 L534.7656,1166.522 L535.1563,1164.005 L535.5469,1205.206 L535.9375,1140.777 L536.3281,1136.714 L536.7188,1117.902 L537.1094,1150.713 L537.5,1167.847 L537.8906,1111.234 L538.2813,1136.803 L538.6719,1114.767 L539.0625,1124.482 L539.4531,1153.319 " stroke="blue" fill="none" />
<text x="50" y="1270" font-family="Arial" font-size="12" fill="black">Policy Loss</text>
<text x="50" y="1285" font-family="Arial" font-size="10" fill="black">0.3793376</text>
<text x="50" y="1500" font-family="Arial" font-size="10" fill="black">0.2715206</text>
<path d="M50,1490 L56.25,1388.133 L62.5,1359.439 L68.75,1439.308 L75,1382.076 L81.25,1306.876 L87.5,1471.464 L93.75,1453.402 L100,1461.776 L106.25,1329.571 L112.5,1427.977 L118.75,1401.658 L125,1404.416 L131.25,1362.757 L137.5,1420.73 L143.75,1302.136 L150,1424.151 L156.25,1476.641 L162.5,1447.823 L168.75,1393.656 L175,1446.387 L181.25,1408.303 L187.5,1369.065 L193.75,1382.679 L200,1295.949 L206.25,1487.001 L212.5,1434.404 L218.75,1415.413 L225,1414.797 L231.25,1388.825 L237.5,1394.71 L243.75,1389.438 L250,1410.74 L256.25,1335.388 L262.5,1334.114 L268.75,1355.735 L275,1382.807 L281.25,1415.101 L287.5,1413.381 L293.75,1293.107 L300,1390.297 L306.25,1437.251 L312.5,1290 L318.75,1299.822 " stroke="blue" fill="none" />
<text x="50" y="1540" font-family="Arial" font-size="12" fill="black">Value Loss</text>
<text x="50" y="1555" font-family="Arial" font-size="10" fill="black">0.06406423</text>
<text x="50" y="1770" font-family="Arial" font-size="10" fill="black">0.01636228</text>
<path d="M50,1587.181 L56.25,1684.495 L62.5,1703.882 L68.75,1702.733 L75,1720.4 L81.25,1760 L87.5,1584.472 L93.75,1588.531 L100,1564.573 L106.25,1682.021 L112.5,1631.835 L118.75,1634.306 L125,1585.107 L131.25,1666.029 L137.5,1588.676 L143.75,1712.156 L150,1660.963 L156.25,1628.401 L162.5,1573.787 L168.75,1682.014 L175,1602.17 L181.25,1618.951 L187.5,1626 L193.75,1663.113 L200,1726.963 L206.25,1661.227 L212.5,1612.801 L218.75,1560 L225,1623.004 L231.25,1639.124 L237.5,1616.38 L243.75,1608.075 L250,1565.276 L256.25,1652.797 L262.5,1659.203 L268.75,1666.467 L275,1653.624 L281.25,1596.935 L287.5,1599.681 L293.75,1691.085 L300,1647.439 L306.25,1590.854 L312.5,1658.597 L318.75,1709.029 " stroke="blue" fill="none" />
<text x="50" y="1810" font-family="Arial" font-size="12" fill="black">Learning Rate</text>
<text x="50" y="1825" font-family="Arial" font-size="10" fill="black">0.0001</text>
<text x="50" y="2040" font-family="Arial" font-size="10" fill="black">0.0001</text>
<path d="M50,2030 L56.25,2030 L62.5,2030 L68.75,2030 L75,2030 L81.25,2030 L87.5,2030 L93.75,2030 L100,2030 L106.25,2030 L112.5,2030 L118.75,2030 L125,2030 L131.25,2030 L137.5,2030 L143.75,2030 L150,2030 L156.25,2030 L162.5,2030 L168.75,2030 L175,2030 L181.25,2030 L187.5,2030 L193.75,2030 L200,2030 L206.25,2030 L212.5,2030 L218.75,2030 L225,2030 L231.25,2030 L237.5,2030 L243.75,2030 L250,2030 L256.25,2030 L262.5,2030 L268.75,2030 L275,2030 L281.25,2030 L287.5,2030 L293.75,2030 L300,2030 L306.25,2030 L312.5,2030 L318.75,2030 " stroke="blue" fill="none" />
<text x="50" y="2080" font-family="Arial" font-size="12" fill="black">Entropy</text>
<text x="50" y="2095" font-family="Arial" font-size="10" fill="black">0.1141693</text>
<text x="50" y="2310" font-family="Arial" font-size="10" fill="black">0.07201998</text>
<path d="M50,2147.727 L56.25,2163.799 L62.5,2155.792 L68.75,2182.878 L75,2194.182 L81.25,2146.332 L87.5,2122.905 L93.75,2174.25 L100,2180.898 L106.25,2186.166 L112.5,2178.891 L118.75,2174.258 L125,2198.574 L131.25,2215.666 L137.5,2189.674 L143.75,2225.365 L150,2140.394 L156.25,2227.595 L162.5,2204.833 L168.75,2238.855 L175,2203.437 L181.25,2241.632 L187.5,2217.625 L193.75,2200.841 L200,2149.771 L206.25,2100 L212.5,2218.439 L218.75,2251.175 L225,2300 L231.25,2270.588 L237.5,2250.475 L243.75,2215.974 L250,2244.381 L256.25,2271.445 L262.5,2207.913 L268.75,2220.755 L275,2273.61 L281.25,2234.091 L287.5,2230.769 L293.75,2185.767 L300,2136.888 L306.25,2166.87 L312.5,2146.65 L318.75,2139.267 " stroke="blue" fill="none" />
<text x="750" y="730" font-family="Arial" font-size="12" fill="black">Simplified</text>
<text x="750" y="745" font-family="Arial" font-size="10" fill="black">7.651647</text>
<text x="750" y="960" font-family="Arial" font-size="10" fill="black">4.103332</text>
<path d="M757.0313,838.3889 L764.4531,829.3408 L771.875,843.1354 L779.2969,901.4061 L786.7188,841.8672 L794.1406,872.052 L801.5625,876.1383 L808.9844,875.7452 L816.4063,909.4088 L823.8281,912.1745 L831.25,852.6512 L838.6719,868.0691 L846.0938,781.8163 L853.5156,788.3211 L860.9375,840.6957 L868.3594,852.4503 L875.7813,840.8144 L883.2031,890.7045 L890.625,808.2189 L898.0469,817.2446 L905.4688,839.7834 L912.8906,824.0524 L920.3125,821.0645 L927.7344,882.7541 L935.1563,857.7532 L942.5781,865.2151 L950,847.7562 L957.4219,850.0032 L964.8438,800.929 L972.2656,808.7829 L979.6875,880.996 L987.1094,854.8388 L994.5313,786.0883 L1001.953,816.6292 L1009.375,784.9833 L1016.797,867.8472 L1024.219,860.9059 L1031.641,950 L1039.063,897.1439 L1046.484,830.5506 L1053.906,841.0443 L1061.328,757.3943 L1068.75,830.1415 L1076.172,843.7432 L1083.594,810.7033 L1091.016,855.4391 L1098.438,794.1798 L1105.859,856.9376 L1113.281,787.8315 L1120.703,750 L1128.125,830.2902 L1135.547,869.9386 L1142.969,866.9434 L1150.391,898.7297 L1157.813,826.834 L1165.234,856.5588 L1172.656,852.7766 L1180.078,800.4246 L1187.5,789.6632 L1194.922,865.3111 L1202.344,851.8946 L1209.766,877.8235 L1217.188,803.4213 L1224.609,880.7894 L1232.031,873.1653 L1239.453,922.9371 " stroke="blue" fill="none" />
<text x="750" y="1000" font-family="Arial" font-size="12" fill="black">Simplified</text>
<text x="750" y="1015" font-family="Arial" font-size="10" fill="black">2130.895</text>
<text x="750" y="1230" font-family="Arial" font-size="10" fill="black">1149.053</text>
<path d="M757.0313,1182.133 L764.4531,1186.626 L771.875,1179.55 L779.2969,1189.66 L786.7188,1185.671 L794.1406,1184.921 L801.5625,1191.879 L808.9844,1201.024 L816.4063,1169.515 L823.8281,1208.4 L831.25,1148.641 L838.6719,1203.543 L846.0938,1191 L853.5156,1155.867 L860.9375,1165.923 L868.3594,1191.815 L875.7813,1165.752 L883.2031,1175.111 L890.625,1182.852 L898.0469,1186.958 L905.4688,1167.242 L912.8906,1220 L920.3125,1164.283 L927.7344,1173.739 L935.1563,1184.149 L942.5781,1109.038 L950,1155.717 L957.4219,1173.911 L964.8438,1159.083 L972.2656,1169.172 L979.6875,1206.299 L987.1094,1166.92 L994.5313,1180.536 L1001.953,1179.271 L1009.375,1182.133 L1016.797,1169.558 L1024.219,1123.844 L1031.641,1085.109 L1039.063,1020 L1046.484,1120.552 L1053.906,1165.419 L1061.328,1179.132 L1068.75,1206.91 L1076.172,1204.401 L1083.594,1187.837 L1091.016,1191.782 L1098.438,1168.839 L1105.859,1163.886 L1113.281,1160.863 L1120.703,1189.82 L1128.125,1180.965 L1135.547,1166.534 L1142.969,1106.54 L1150.391,1129.204 L1157.813,1190.249 L1165.234,1203.029 L1172.656,1191.343 L1180.078,1159.812 L1187.5,1175.369 L1194.922,1151.782 L1202.344,1149.735 L1209.766,1090.812 L1217.188,1134.039 L1224.609,1129.408 L1232.031,1118.987 L1239.453,1115.653 " stroke="blue" fill="none" />
</svg>
