<svg width="2000" height="2500" xmlns="http://www.w3.org/2000/svg">
<text x="10" y="20" font-family="Arial" font-size="26" fill="black"> [Crawler] Training Session</text>
<text x="10" y="50" font-family="Arial" font-size="16" fill="black">[Statistics]</text>
<text x="50" y="70" font-family="Arial" font-size="12" fill="black">Started at: 3:33:48 PM, Sunday, November 26, 2023</text>
<text x="50" y="90" font-family="Arial" font-size="12" fill="black">Finished at: 3:35:59 PM, Sunday, November 26, 2023</text>
<text x="50" y="110" font-family="Arial" font-size="12" fill="black">Training Session Time: 0 hrs : 2 min : 10 sec</text>
<text x="50" y="130" font-family="Arial" font-size="12" fill="black">Inference Time: 0 hrs : 15 min : 11 sec       [Per agent: 0 hrs : 15 min : 11 sec]        [Device: CPU]</text>
<text x="50" y="150" font-family="Arial" font-size="12" fill="black">Policy Update Time: 0 hrs : 0 min : 26 sec        [Per iteration: 0 hrs : 0 min : 5 sec]        [Device: GPU]</text>
<text x="50" y="170" font-family="Arial" font-size="12" fill="black">Inference Time / Training Session Time: 6.800</text>
<text x="50" y="190" font-family="Arial" font-size="12" fill="black">Policy Update Time / Training Session Time: 0.219</text>
<text x="50" y="210" font-family="Arial" font-size="12" fill="black">Episode Count: 731</text>
<text x="50" y="230" font-family="Arial" font-size="12" fill="black">Inference Steps: 9252    [Per agent: 9252]     [Per Episode (mean): 12]</text>
<text x="50" y="250" font-family="Arial" font-size="12" fill="black">Iterations: 4</text>
<text x="50" y="270" font-family="Arial" font-size="12" fill="black">Parallel Agents: 1</text>
<text x="50" y="290" font-family="Arial" font-size="12" fill="black">Timescale: 8.002652</text>
<text x="50" y="310" font-family="Arial" font-size="12" fill="black">Trainer: PPO</text>
<text x="10" y="360" font-family="Arial" font-size="16" fill="black">[Hyperparameters]</text>
<text x="50" y="380" font-family="Arial" font-size="12" fill="black">Buffer Size: 2048        [Batch Size: 128       (x16)]</text>
<text x="50" y="400" font-family="Arial" font-size="12" fill="black">Num Epoch: 8</text>
<text x="50" y="420" font-family="Arial" font-size="12" fill="black">Time Horizon: 64</text>
<text x="50" y="440" font-family="Arial" font-size="12" fill="black">Gradient Cliping Normalization: 0.5</text>
<text x="50" y="460" font-family="Arial" font-size="12" fill="black">Learning Rate Schedule: False    </text>
<text x="10" y="510" font-family="Arial" font-size="16" fill="black">[Behaviour]</text>
<text x="50" y="530" font-family="Arial" font-size="12" fill="black">Space Size: 126</text>
<text x="50" y="550" font-family="Arial" font-size="12" fill="black">Continuous Actions: 20 [Standard Deviation: Trainable]     </text>
<text x="50" y="570" font-family="Arial" font-size="12" fill="black">Discrete Actions: 0</text>
<text x="50" y="590" font-family="Arial" font-size="12" fill="black">TargetFPS: 50 (physics update rate)</text>
<text x="50" y="610" font-family="Arial" font-size="12" fill="black">Observations Normalization: True</text>
<text x="10" y="660" font-family="Arial" font-size="16" fill="black">[Decision Requester]</text>
<text x="50" y="680" font-family="Arial" font-size="12" fill="black">Max Step: 1500</text>
<text x="50" y="700" font-family="Arial" font-size="12" fill="black">Decision Period: 5      [Actions Between Decisions: True]</text>
<text x="10" y="750" font-family="Arial" font-size="16" fill="black">[Graphs]</text>
<text x="50" y="770" font-family="Arial" font-size="12" fill="black">Episode Reward (731)</text>
<text x="50" y="785" font-family="Arial" font-size="10" fill="black">1.45715</text>
<text x="50" y="1000" font-family="Arial" font-size="10" fill="black">-0.9339397</text>
<path d="M50,898.7114 L50.39063,890.4982 L50.78125,897.3064 L51.17188,902.0926 L51.5625,881.0558 L51.95313,881.5443 L52.34375,894.5142 L52.73438,897.3819 L53.125,895.541 L53.51563,899.7299 L53.90625,885.7462 L54.29688,904.7566 L54.6875,906.2161 L55.07813,899.2863 L55.46875,900.4016 L55.85938,895.1251 L56.25,890.9379 L56.64063,878.1185 L57.03125,881.3076 L57.42188,893.9324 L57.8125,877.9138 L58.20313,891.2866 L58.59375,894.9745 L58.98438,894.7109 L59.375,896.6802 L59.76563,897.8581 L60.15625,889.9922 L60.54688,901.6628 L60.9375,900.5563 L61.32813,903.1866 L61.71875,895.7625 L62.10938,896.5667 L62.5,964.7527 L62.89063,872.2089 L63.28125,898.9357 L63.67188,895.6445 L64.0625,900.4823 L64.45313,903.8214 L64.84375,892.9971 L65.23438,982.5071 L65.625,988.1892 L66.01563,897.9309 L66.40625,888.0894 L66.79688,987.7271 L67.1875,862.2682 L67.57813,876.2185 L67.96875,890.399 L68.35938,893.7433 L68.75,902.028 L69.14063,893.5497 L69.53125,875.2325 L69.92188,893.2332 L70.3125,890.1616 L70.70313,893.5291 L71.09375,905.0397 L71.48438,888.2401 L71.875,899.3423 L72.26563,897.0818 L72.65625,900.4042 L73.04688,956.2628 L73.4375,987.0485 L73.82813,892.2459 L74.21875,899.7401 L74.60938,898.4682 L75,884.4643 L75.39063,895.717 L75.78125,897.6652 L76.17188,896.8526 L76.5625,888.7174 L76.95313,971.6667 L77.34375,895.4351 L77.73438,892.1979 L78.125,903.1243 L78.51563,894.3658 L78.90625,905.2748 L79.29688,880.5475 L79.6875,903.8138 L80.07813,890.0039 L80.46875,898.5718 L80.85938,892.0174 L81.25,888.4487 L81.64063,891.4727 L82.03125,896.2841 L82.42188,901.8456 L82.8125,903.5793 L83.20313,899.293 L83.59375,978.0384 L83.98438,894.7023 L84.375,988.9385 L84.76563,893.637 L85.15625,898.8379 L85.54688,901.9756 L85.9375,883.3594 L86.32813,897.7199 L86.71875,888.158 L87.10938,897.6228 L87.5,893.394 L87.89063,895.1111 L88.28125,898.6245 L88.67188,896.5192 L89.0625,845.6193 L89.45313,900.1455 L89.84375,898.1069 L90.23438,888.6281 L90.625,989.8295 L91.01563,903.2294 L91.40625,885.8401 L91.79688,898.597 L92.1875,898.0642 L92.57813,989.6508 L92.96875,898.1464 L93.35938,868.8881 L93.75,899.213 L94.14063,901.3911 L94.53125,976.5884 L94.92188,888.1472 L95.3125,891.9545 L95.70313,900.062 L96.09375,896.3586 L96.48438,887.139 L96.875,988.5803 L97.26563,891.3194 L97.65625,897.9178 L98.04688,901.5725 L98.4375,898.8152 L98.82813,984.3115 L99.21875,900.1313 L99.60938,968.6946 L100,889.03 L100.3906,967.569 L100.7813,892.4141 L101.1719,893.06 L101.5625,902.7044 L101.9531,891.7955 L102.3438,894.3384 L102.7344,895.6442 L103.125,897.8118 L103.5156,897.5818 L103.9063,903.7767 L104.2969,896.8131 L104.6875,903.4378 L105.0781,900.8655 L105.4688,906.0031 L105.8594,884.707 L106.25,881.8514 L106.6406,896.5096 L107.0313,892.8317 L107.4219,890.7353 L107.8125,979.6669 L108.2031,886.4818 L108.5938,901.6191 L108.9844,857.7344 L109.375,950.4542 L109.7656,971.4078 L110.1563,889.4829 L110.5469,887.1918 L110.9375,899.7144 L111.3281,892.5389 L111.7188,899.2422 L112.1094,895.8492 L112.5,899.1841 L112.8906,896.798 L113.2813,874.5278 L113.6719,893.6616 L114.0625,890.0491 L114.4531,900.553 L114.8438,981.2271 L115.2344,884.2373 L115.625,905.6827 L116.0156,891.3678 L116.4063,892.2012 L116.7969,882.4971 L117.1875,898.532 L117.5781,898.6685 L117.9688,977.7943 L118.3594,893.7925 L118.75,895.9197 L119.1406,868.9519 L119.5313,895.4911 L119.9219,896.3213 L120.3125,885.7579 L120.7031,854.4781 L121.0938,888.6217 L121.4844,894.5825 L121.875,902.3223 L122.2656,887.1089 L122.6563,882.1052 L123.0469,890.4776 L123.4375,888.4647 L123.8281,890.5609 L124.2188,900.232 L124.6094,902.507 L125,889.6728 L125.3906,891.1931 L125.7813,983.8929 L126.1719,894.9586 L126.5625,893.7183 L126.9531,894.2493 L127.3438,900.8715 L127.7344,881.9211 L128.125,986.2106 L128.5156,984.8828 L128.9063,899.2158 L129.2969,890.8452 L129.6875,893.9452 L130.0781,894.0323 L130.4688,898.4949 L130.8594,900.7259 L131.25,892.1138 L131.6406,897.5673 L132.0313,901.1973 L132.4219,897.4248 L132.8125,889.1436 L133.2031,872.7954 L133.5938,894.2246 L133.9844,896.2512 L134.375,873.2076 L134.7656,889.2486 L135.1563,901.0155 L135.5469,902.816 L135.9375,888.1975 L136.3281,882.5626 L136.7188,892.6738 L137.1094,887.6163 L137.5,888.5072 L137.8906,890.0286 L138.2813,906.5164 L138.6719,895.4029 L139.0625,965.8717 L139.4531,898.2534 L139.8438,888.3233 L140.2344,901.821 L140.625,882.0843 L141.0156,888.3783 L141.4063,903.8155 L141.7969,904.3034 L142.1875,901.1534 L142.5781,881.5198 L142.9688,883.1006 L143.3594,904.4579 L143.75,899.3661 L144.1406,903.285 L144.5313,900.7788 L144.9219,897.9529 L145.3125,888.6642 L145.7031,890.4138 L146.0938,886.4363 L146.4844,898.9624 L146.875,891.5581 L147.2656,978.2789 L147.6563,892.4978 L148.0469,902.3091 L148.4375,888.3276 L148.8281,988.31 L149.2188,893.3257 L149.6094,904.0851 L150,903.4002 L150.3906,901.8608 L150.7813,903.074 L151.1719,964.4647 L151.5625,888.2321 L151.9531,890.9398 L152.3438,887.2107 L152.7344,883.1305 L153.125,892.7643 L153.5156,897.6351 L153.9063,898.7371 L154.2969,888.7052 L154.6875,889.5126 L155.0781,900.5759 L155.4688,888.9 L155.8594,900.9642 L156.25,902.8348 L156.6406,898.1648 L157.0313,953.8195 L157.4219,885.84 L157.8125,899.6218 L158.2031,900.6483 L158.5938,886.4114 L158.9844,896.3155 L159.375,882.4511 L159.7656,893.4438 L160.1563,887.4781 L160.5469,897.6922 L160.9375,901.1787 L161.3281,880.9645 L161.7188,895.4789 L162.1094,902.2677 L162.5,890.2006 L162.8906,885.6155 L163.2813,882.0508 L163.6719,897.3947 L164.0625,893.5364 L164.4531,869.4238 L164.8438,897.3113 L165.2344,900.3679 L165.625,989.7252 L166.0156,887.9301 L166.4063,899.9362 L166.7969,859.0291 L167.1875,896.021 L167.5781,888.8688 L167.9688,894.9227 L168.3594,899.6556 L168.75,987.3119 L169.1406,901.9167 L169.5313,897.8884 L169.9219,883.0497 L170.3125,984.536 L170.7031,889.1463 L171.0938,896.8024 L171.4844,891.2175 L171.875,899.8426 L172.2656,900.3843 L172.6563,990 L173.0469,889.9297 L173.4375,891.4587 L173.8281,986.8285 L174.2188,902.0897 L174.6094,897.2002 L175,903.602 L175.3906,892.3745 L175.7813,889.6741 L176.1719,980.9684 L176.5625,900.1157 L176.9531,790 L177.3438,903.1948 L177.7344,887.4619 L178.125,931.9993 L178.5156,898.0775 L178.9063,897.3028 L179.2969,875.644 L179.6875,893.2798 L180.0781,894.4414 L180.4688,893.2252 L180.8594,895.5663 L181.25,892.8773 L181.6406,895.5158 L182.0313,901.3264 L182.4219,904.7504 L182.8125,976.348 L183.2031,985.2814 L183.5938,898.3911 L183.9844,898.073 L184.375,895.3118 L184.7656,891.0226 L185.1563,893.7094 L185.5469,894.4884 L185.9375,893.4456 L186.3281,901.8375 L186.7188,903.3759 L187.1094,986.6155 L187.5,894.9238 L187.8906,890.5569 L188.2813,890.3044 L188.6719,902.4028 L189.0625,899.6691 L189.4531,895.1683 L189.8438,979.6575 L190.2344,881.4452 L190.625,904.2069 L191.0156,905.6072 L191.4063,892.2877 L191.7969,977.2336 L192.1875,892.5199 L192.5781,901.7892 L192.9688,877.7492 L193.3594,903.3939 L193.75,898.5168 L194.1406,852.2074 L194.5313,893.6717 L194.9219,880.9579 L195.3125,894.6877 L195.7031,902.8941 L196.0938,895.9431 L196.4844,896.1713 L196.875,897.2999 L197.2656,903.2208 L197.6563,890.7116 L198.0469,900.5775 L198.4375,895.5516 L198.8281,899.0908 L199.2188,896.5634 L199.6094,884.9365 L200,884.3309 L200.3906,900.7164 L200.7813,897.267 L201.1719,893.8226 L201.5625,890.4235 L201.9531,901.2138 L202.3438,896.7017 L202.7344,966.3831 L203.125,944.574 L203.5156,902.4102 L203.9063,886.1073 L204.2969,885.7888 L204.6875,906.0992 L205.0781,895.4607 L205.4688,875.604 L205.8594,876.4227 L206.25,900.0922 L206.6406,893.3298 L207.0313,899.8692 L207.4219,886.0853 L207.8125,898.2018 L208.2031,903.205 L208.5938,892.1052 L208.9844,882.2619 L209.375,884.2927 L209.7656,903.7167 L210.1563,886.9141 L210.5469,879.1562 L210.9375,885.0689 L211.3281,892.1353 L211.7188,904.1716 L212.1094,887.6188 L212.5,896.0502 L212.8906,896.2095 L213.2813,891.4553 L213.6719,870.5848 L214.0625,914.0986 L214.4531,895.4085 L214.8438,973.9532 L215.2344,897.7962 L215.625,873.1967 L216.0156,894.319 L216.4063,891.0645 L216.7969,904.7288 L217.1875,899.3253 L217.5781,883.8245 L217.9688,897.9738 L218.3594,902.788 L218.75,897.3188 L219.1406,903.1311 L219.5313,875.3962 L219.9219,884.8966 L220.3125,905.9394 L220.7031,882.2714 L221.0938,898.2039 L221.4844,985.873 L221.875,988.8097 L222.2656,984.6353 L222.6563,895.4397 L223.0469,895.0913 L223.4375,887.3148 L223.8281,889.7685 L224.2188,905.8699 L224.6094,899.2235 L225,896.8848 L225.3906,898.9618 L225.7813,902.4948 L226.1719,898.5391 L226.5625,904.8636 L226.9531,902.4153 L227.3438,895.2837 L227.7344,893.7057 L228.125,875.0278 L228.5156,898.6346 L228.9063,891.0553 L229.2969,894.0569 L229.6875,888.4792 L230.0781,899.158 L230.4688,892.6147 L230.8594,894.4856 L231.25,901.983 L231.6406,897.3448 L232.0313,977.4152 L232.4219,879.0143 L232.8125,885.306 L233.2031,894.9742 L233.5938,896.5934 L233.9844,904.2428 L234.375,881.9268 L234.7656,877.4113 L235.1563,988.2999 L235.5469,890.8935 L235.9375,884.2147 L236.3281,895.5797 L236.7188,892.7244 L237.1094,892.7109 L237.5,976.8356 L237.8906,898.2914 L238.2813,886.5992 L238.6719,900.1215 L239.0625,986.5026 L239.4531,974.7731 L239.8438,889.077 L240.2344,894.0323 L240.625,888.7532 L241.0156,897.5419 L241.4063,886.8337 L241.7969,902.0072 L242.1875,900.8973 L242.5781,883.3828 L242.9688,901.9153 L243.3594,903.6719 L243.75,895.4822 L244.1406,894.5593 L244.5313,896.3459 L244.9219,883.2124 L245.3125,895.8885 L245.7031,832.2279 L246.0938,856.5646 L246.4844,888.3546 L246.875,888.6081 L247.2656,898.918 L247.6563,873.7056 L248.0469,901.9376 L248.4375,899.3924 L248.8281,893.8688 L249.2188,901.0984 L249.6094,902.6782 L250,903.0107 L250.3906,884.0943 L250.7813,884.9042 L251.1719,973.1938 L251.5625,963.368 L251.9531,904.2259 L252.3438,903.7354 L252.7344,902.1631 L253.125,896.4149 L253.5156,891.5889 L253.9063,900.6842 L254.2969,891.0212 L254.6875,897.0905 L255.0781,962.6037 L255.4688,900.2034 L255.8594,898.2047 L256.25,902.5394 L256.6406,900.0811 L257.0313,888.1071 L257.4219,885.1838 L257.8125,891.3737 L258.2031,881.3884 L258.5938,899.7894 L258.9844,903.6791 L259.375,895.6703 L259.7656,981.9437 L260.1563,904.5773 L260.5469,902.9997 L260.9375,972.9976 L261.3281,980.7846 L261.7188,881.7809 L262.1094,895.9091 L262.5,898.2248 L262.8906,887.2659 L263.2813,899.8155 L263.6719,901.3578 L264.0625,896.7202 L264.4531,884.5039 L264.8438,891.2094 L265.2344,895.2601 L265.625,900.6047 L266.0156,896.0006 L266.4063,860.4186 L266.7969,902.0687 L267.1875,892.6826 L267.5781,889.5408 L267.9688,886.6859 L268.3594,892.6289 L268.75,962.0868 L269.1406,872.6946 L269.5313,891.8024 L269.9219,891.6066 L270.3125,895.437 L270.7031,905.342 L271.0938,896.8547 L271.4844,905.0678 L271.875,895.5606 L272.2656,842.5936 L272.6563,894.5073 L273.0469,900.3002 L273.4375,985.83 L273.8281,958.7013 L274.2188,850.5391 L274.6094,870.7551 L275,896.3275 L275.3906,890.7519 L275.7813,881.1489 L276.1719,882.2914 L276.5625,895.9567 L276.9531,882.4484 L277.3438,899.5636 L277.7344,890.6905 L278.125,892.708 L278.5156,874.6735 L278.9063,898.582 L279.2969,884.9296 L279.6875,987.9211 L280.0781,889.6984 L280.4688,897.8848 L280.8594,901.7411 L281.25,892.8281 L281.6406,796.6168 L282.0313,892.1764 L282.4219,892.9749 L282.8125,893.6357 L283.2031,897.8207 L283.5938,901.5907 L283.9844,892.4236 L284.375,895.992 L284.7656,893.0685 L285.1563,974.0514 L285.5469,889.5606 L285.9375,895.1665 L286.3281,899.0127 L286.7188,985.963 L287.1094,974.9566 L287.5,898.4247 L287.8906,890.6624 L288.2813,973.3033 L288.6719,898.2941 L289.0625,892.1485 L289.4531,902.6069 L289.8438,858.4407 L290.2344,889.1216 L290.625,884.5096 L291.0156,988.8149 L291.4063,898.3223 L291.7969,893.7891 L292.1875,905.1469 L292.5781,898.7839 L292.9688,974.6225 L293.3594,903.1799 L293.75,901.8912 L294.1406,905.1163 L294.5313,900.2121 L294.9219,900.6373 L295.3125,884.2793 L295.7031,889.6996 L296.0938,861.137 L296.4844,881.249 L296.875,893.0028 L297.2656,890.0195 L297.6563,882.2805 L298.0469,893.2106 L298.4375,894.3773 L298.8281,975.9695 L299.2188,899.5313 L299.6094,985.7091 L300,885.9965 L300.3906,901.1548 L300.7813,892.4678 L301.1719,980.5448 L301.5625,884.0736 L301.9531,889.526 L302.3438,989.4573 L302.7344,892.3585 L303.125,904.2535 L303.5156,904.7052 L303.9063,904.5645 L304.2969,891.2723 L304.6875,878.0746 L305.0781,900.2719 L305.4688,976.3665 L305.8594,887.9664 L306.25,894.0201 L306.6407,897.2337 L307.0313,898.16 L307.4219,898.2186 L307.8125,886.1487 L308.2031,899.5452 L308.5938,899.2449 L308.9844,874.4393 L309.375,897.7679 L309.7656,899.4875 L310.1563,865.6321 L310.5469,896.6185 L310.9375,891.768 L311.3281,977.9136 L311.7188,901.5919 L312.1094,878.5751 L312.5,861.0252 L312.8906,903.0524 L313.2813,891.8008 L313.6719,880.9892 L314.0625,885.6923 L314.4532,890.9261 L314.8438,898.4638 L315.2344,893.3694 L315.625,888.0699 L316.0156,888.752 L316.4063,892.4224 L316.7969,885.92 L317.1875,904.1945 L317.5781,886.9783 L317.9688,887.2458 L318.3594,869.0803 L318.75,973.0818 L319.1406,902.1132 L319.5313,895.4426 L319.9219,902.6738 L320.3125,897.5849 L320.7031,904.5832 L321.0938,879.5067 L321.4844,893.0359 L321.875,897.27 L322.2657,892.7614 L322.6563,864.7458 L323.0469,971.776 L323.4375,890.2627 L323.8281,904.2411 L324.2188,903.0869 L324.6094,894.0056 L325,900.7051 L325.3906,889.9471 L325.7813,881.6174 L326.1719,902.0468 L326.5625,894.1562 L326.9531,904.38 L327.3438,887.2627 L327.7344,894.6859 L328.125,871.4513 L328.5156,901.3187 L328.9063,885.3148 L329.2969,901.1873 L329.6875,893.4256 L330.0782,901.1151 L330.4688,897.7859 L330.8594,898.3741 L331.25,903.5898 L331.6406,886.1263 L332.0313,890.8085 L332.4219,882.4388 L332.8125,898.2367 L333.2031,890.832 L333.5938,895.2111 L333.9844,894.1115 L334.375,897.8857 L334.7656,890.728 L335.1563,899.0994 " stroke="blue" fill="none" />
<text x="50" y="1040" font-family="Arial" font-size="12" fill="black">Episode Length (731)</text>
<text x="50" y="1055" font-family="Arial" font-size="10" fill="black">80</text>
<text x="50" y="1270" font-family="Arial" font-size="10" fill="black">4</text>
<path d="M50,1249.474 L50.39063,1238.947 L50.78125,1241.579 L51.17188,1249.474 L51.5625,1228.421 L51.95313,1225.789 L52.34375,1236.316 L52.73438,1236.316 L53.125,1244.211 L53.51563,1244.211 L53.90625,1225.789 L54.29688,1254.737 L54.6875,1257.368 L55.07813,1238.947 L55.46875,1246.842 L55.85938,1225.789 L56.25,1233.684 L56.64063,1196.842 L57.03125,1228.421 L57.42188,1233.684 L57.8125,1217.895 L58.20313,1244.211 L58.59375,1246.842 L58.98438,1241.579 L59.375,1233.684 L59.76563,1249.474 L60.15625,1233.684 L60.54688,1249.474 L60.9375,1246.842 L61.32813,1249.474 L61.71875,1246.842 L62.10938,1241.579 L62.5,1223.158 L62.89063,1215.263 L63.28125,1246.842 L63.67188,1249.474 L64.0625,1244.211 L64.45313,1249.474 L64.84375,1238.947 L65.23438,1246.842 L65.625,1257.368 L66.01563,1241.579 L66.40625,1223.158 L66.79688,1260 L67.1875,1199.474 L67.57813,1202.105 L67.96875,1233.684 L68.35938,1233.684 L68.75,1252.105 L69.14063,1246.842 L69.53125,1207.368 L69.92188,1236.316 L70.3125,1223.158 L70.70313,1233.684 L71.09375,1257.368 L71.48438,1228.421 L71.875,1241.579 L72.26563,1236.316 L72.65625,1254.737 L73.04688,1210 L73.4375,1257.368 L73.82813,1217.895 L74.21875,1246.842 L74.60938,1244.211 L75,1233.684 L75.39063,1241.579 L75.78125,1233.684 L76.17188,1238.947 L76.5625,1233.684 L76.95313,1225.789 L77.34375,1233.684 L77.73438,1241.579 L78.125,1257.368 L78.51563,1231.053 L78.90625,1257.368 L79.29688,1199.474 L79.6875,1249.474 L80.07813,1241.579 L80.46875,1244.211 L80.85938,1241.579 L81.25,1225.789 L81.64063,1241.579 L82.03125,1249.474 L82.42188,1252.105 L82.8125,1257.368 L83.20313,1246.842 L83.59375,1215.263 L83.98438,1228.421 L84.375,1257.368 L84.76563,1225.789 L85.15625,1252.105 L85.54688,1252.105 L85.9375,1233.684 L86.32813,1238.947 L86.71875,1236.316 L87.10938,1241.579 L87.5,1246.842 L87.89063,1236.316 L88.28125,1241.579 L88.67188,1249.474 L89.0625,1175.789 L89.45313,1241.579 L89.84375,1246.842 L90.23438,1231.053 L90.625,1257.368 L91.01563,1252.105 L91.40625,1210 L91.79688,1252.105 L92.1875,1241.579 L92.57813,1257.368 L92.96875,1249.474 L93.35938,1210 L93.75,1241.579 L94.14063,1246.842 L94.53125,1241.579 L94.92188,1231.053 L95.3125,1241.579 L95.70313,1246.842 L96.09375,1246.842 L96.48438,1233.684 L96.875,1257.368 L97.26563,1223.158 L97.65625,1231.053 L98.04688,1254.737 L98.4375,1252.105 L98.82813,1252.105 L99.21875,1249.474 L99.60938,1210 L100,1238.947 L100.3906,1217.895 L100.7813,1244.211 L101.1719,1236.316 L101.5625,1252.105 L101.9531,1238.947 L102.3438,1241.579 L102.7344,1246.842 L103.125,1241.579 L103.5156,1249.474 L103.9063,1254.737 L104.2969,1238.947 L104.6875,1254.737 L105.0781,1249.474 L105.4688,1257.368 L105.8594,1223.158 L106.25,1231.053 L106.6406,1249.474 L107.0313,1228.421 L107.4219,1241.579 L107.8125,1233.684 L108.2031,1238.947 L108.5938,1252.105 L108.9844,1186.316 L109.375,1202.105 L109.7656,1236.316 L110.1563,1212.632 L110.5469,1233.684 L110.9375,1246.842 L111.3281,1241.579 L111.7188,1252.105 L112.1094,1238.947 L112.5,1252.105 L112.8906,1238.947 L113.2813,1217.895 L113.6719,1231.053 L114.0625,1233.684 L114.4531,1254.737 L114.8438,1249.474 L115.2344,1210 L115.625,1257.368 L116.0156,1244.211 L116.4063,1228.421 L116.7969,1210 L117.1875,1246.842 L117.5781,1249.474 L117.9688,1238.947 L118.3594,1231.053 L118.75,1241.579 L119.1406,1210 L119.5313,1246.842 L119.9219,1249.474 L120.3125,1233.684 L120.7031,1178.421 L121.0938,1231.053 L121.4844,1244.211 L121.875,1249.474 L122.2656,1233.684 L122.6563,1217.895 L123.0469,1231.053 L123.4375,1236.316 L123.8281,1241.579 L124.2188,1246.842 L124.6094,1249.474 L125,1228.421 L125.3906,1238.947 L125.7813,1246.842 L126.1719,1244.211 L126.5625,1238.947 L126.9531,1241.579 L127.3438,1246.842 L127.7344,1215.263 L128.125,1257.368 L128.5156,1254.737 L128.9063,1244.211 L129.2969,1236.316 L129.6875,1244.211 L130.0781,1236.316 L130.4688,1249.474 L130.8594,1246.842 L131.25,1228.421 L131.6406,1246.842 L132.0313,1244.211 L132.4219,1249.474 L132.8125,1241.579 L133.2031,1207.368 L133.5938,1233.684 L133.9844,1244.211 L134.375,1217.895 L134.7656,1223.158 L135.1563,1254.737 L135.5469,1249.474 L135.9375,1233.684 L136.3281,1225.789 L136.7188,1225.789 L137.1094,1238.947 L137.5,1217.895 L137.8906,1236.316 L138.2813,1260 L138.6719,1246.842 L139.0625,1207.368 L139.4531,1252.105 L139.8438,1236.316 L140.2344,1249.474 L140.625,1194.211 L141.0156,1236.316 L141.4063,1254.737 L141.7969,1257.368 L142.1875,1246.842 L142.5781,1223.158 L142.9688,1210 L143.3594,1252.105 L143.75,1244.211 L144.1406,1252.105 L144.5313,1246.842 L144.9219,1252.105 L145.3125,1233.684 L145.7031,1215.263 L146.0938,1233.684 L146.4844,1244.211 L146.875,1241.579 L147.2656,1238.947 L147.6563,1228.421 L148.0469,1257.368 L148.4375,1236.316 L148.8281,1257.368 L149.2188,1236.316 L149.6094,1254.737 L150,1252.105 L150.3906,1249.474 L150.7813,1254.737 L151.1719,1223.158 L151.5625,1236.316 L151.9531,1223.158 L152.3438,1236.316 L152.7344,1225.789 L153.125,1244.211 L153.5156,1238.947 L153.9063,1252.105 L154.2969,1236.316 L154.6875,1225.789 L155.0781,1246.842 L155.4688,1238.947 L155.8594,1249.474 L156.25,1254.737 L156.6406,1249.474 L157.0313,1196.842 L157.4219,1217.895 L157.8125,1241.579 L158.2031,1244.211 L158.5938,1228.421 L158.9844,1249.474 L159.375,1220.526 L159.7656,1228.421 L160.1563,1220.526 L160.5469,1244.211 L160.9375,1246.842 L161.3281,1217.895 L161.7188,1244.211 L162.1094,1252.105 L162.5,1241.579 L162.8906,1225.789 L163.2813,1228.421 L163.6719,1244.211 L164.0625,1233.684 L164.4531,1212.632 L164.8438,1244.211 L165.2344,1244.211 L165.625,1257.368 L166.0156,1217.895 L166.4063,1246.842 L166.7969,1199.474 L167.1875,1238.947 L167.5781,1238.947 L167.9688,1236.316 L168.3594,1252.105 L168.75,1257.368 L169.1406,1252.105 L169.5313,1249.474 L169.9219,1231.053 L170.3125,1254.737 L170.7031,1236.316 L171.0938,1238.947 L171.4844,1228.421 L171.875,1238.947 L172.2656,1252.105 L172.6563,1257.368 L173.0469,1241.579 L173.4375,1241.579 L173.8281,1257.368 L174.2188,1246.842 L174.6094,1244.211 L175,1252.105 L175.3906,1217.895 L175.7813,1220.526 L176.1719,1236.316 L176.5625,1252.105 L176.9531,1060 L177.3438,1252.105 L177.7344,1233.684 L178.125,1138.947 L178.5156,1241.579 L178.9063,1238.947 L179.2969,1181.053 L179.6875,1233.684 L180.0781,1246.842 L180.4688,1231.053 L180.8594,1244.211 L181.25,1231.053 L181.6406,1236.316 L182.0313,1246.842 L182.4219,1257.368 L182.8125,1244.211 L183.2031,1244.211 L183.5938,1238.947 L183.9844,1244.211 L184.375,1249.474 L184.7656,1238.947 L185.1563,1231.053 L185.5469,1236.316 L185.9375,1238.947 L186.3281,1257.368 L186.7188,1252.105 L187.1094,1257.368 L187.5,1246.842 L187.8906,1241.579 L188.2813,1225.789 L188.6719,1249.474 L189.0625,1241.579 L189.4531,1246.842 L189.8438,1231.053 L190.2344,1225.789 L190.625,1254.737 L191.0156,1257.368 L191.4063,1238.947 L191.7969,1238.947 L192.1875,1236.316 L192.5781,1244.211 L192.9688,1202.105 L193.3594,1257.368 L193.75,1252.105 L194.1406,1136.316 L194.5313,1244.211 L194.9219,1225.789 L195.3125,1244.211 L195.7031,1252.105 L196.0938,1241.579 L196.4844,1249.474 L196.875,1246.842 L197.2656,1252.105 L197.6563,1223.158 L198.0469,1244.211 L198.4375,1241.579 L198.8281,1249.474 L199.2188,1249.474 L199.6094,1233.684 L200,1228.421 L200.3906,1252.105 L200.7813,1238.947 L201.1719,1236.316 L201.5625,1238.947 L201.9531,1249.474 L202.3438,1246.842 L202.7344,1196.842 L203.125,1188.947 L203.5156,1257.368 L203.9063,1231.053 L204.2969,1233.684 L204.6875,1257.368 L205.0781,1238.947 L205.4688,1204.737 L205.8594,1220.526 L206.25,1249.474 L206.6406,1231.053 L207.0313,1249.474 L207.4219,1223.158 L207.8125,1246.842 L208.2031,1252.105 L208.5938,1244.211 L208.9844,1231.053 L209.375,1236.316 L209.7656,1254.737 L210.1563,1236.316 L210.5469,1212.632 L210.9375,1223.158 L211.3281,1241.579 L211.7188,1257.368 L212.1094,1225.789 L212.5,1246.842 L212.8906,1238.947 L213.2813,1236.316 L213.6719,1210 L214.0625,1141.579 L214.4531,1236.316 L214.8438,1231.053 L215.2344,1241.579 L215.625,1215.263 L216.0156,1236.316 L216.4063,1220.526 L216.7969,1254.737 L217.1875,1246.842 L217.5781,1220.526 L217.9688,1244.211 L218.3594,1249.474 L218.75,1246.842 L219.1406,1252.105 L219.5313,1188.947 L219.9219,1204.737 L220.3125,1260 L220.7031,1223.158 L221.0938,1241.579 L221.4844,1252.105 L221.875,1257.368 L222.2656,1254.737 L222.6563,1246.842 L223.0469,1241.579 L223.4375,1236.316 L223.8281,1236.316 L224.2188,1257.368 L224.6094,1252.105 L225,1241.579 L225.3906,1244.211 L225.7813,1252.105 L226.1719,1238.947 L226.5625,1254.737 L226.9531,1249.474 L227.3438,1244.211 L227.7344,1244.211 L228.125,1220.526 L228.5156,1246.842 L228.9063,1241.579 L229.2969,1244.211 L229.6875,1215.263 L230.0781,1238.947 L230.4688,1244.211 L230.8594,1241.579 L231.25,1252.105 L231.6406,1249.474 L232.0313,1236.316 L232.4219,1225.789 L232.8125,1210 L233.2031,1244.211 L233.5938,1246.842 L233.9844,1254.737 L234.375,1223.158 L234.7656,1217.895 L235.1563,1257.368 L235.5469,1241.579 L235.9375,1220.526 L236.3281,1233.684 L236.7188,1244.211 L237.1094,1244.211 L237.5,1241.579 L237.8906,1252.105 L238.2813,1231.053 L238.6719,1246.842 L239.0625,1257.368 L239.4531,1238.947 L239.8438,1223.158 L240.2344,1241.579 L240.625,1225.789 L241.0156,1249.474 L241.4063,1215.263 L241.7969,1252.105 L242.1875,1254.737 L242.5781,1204.737 L242.9688,1249.474 L243.3594,1254.737 L243.75,1238.947 L244.1406,1241.579 L244.5313,1249.474 L244.9219,1212.632 L245.3125,1246.842 L245.7031,1149.474 L246.0938,1191.579 L246.4844,1225.789 L246.875,1228.421 L247.2656,1252.105 L247.6563,1215.263 L248.0469,1249.474 L248.4375,1249.474 L248.8281,1244.211 L249.2188,1249.474 L249.6094,1249.474 L250,1257.368 L250.3906,1225.789 L250.7813,1231.053 L251.1719,1233.684 L251.5625,1217.895 L251.9531,1254.737 L252.3438,1252.105 L252.7344,1249.474 L253.125,1249.474 L253.5156,1233.684 L253.9063,1249.474 L254.2969,1241.579 L254.6875,1241.579 L255.0781,1210 L255.4688,1252.105 L255.8594,1252.105 L256.25,1252.105 L256.6406,1246.842 L257.0313,1223.158 L257.4219,1231.053 L257.8125,1241.579 L258.2031,1231.053 L258.5938,1246.842 L258.9844,1252.105 L259.375,1244.211 L259.7656,1241.579 L260.1563,1254.737 L260.5469,1252.105 L260.9375,1220.526 L261.3281,1238.947 L261.7188,1233.684 L262.1094,1246.842 L262.5,1252.105 L262.8906,1223.158 L263.2813,1246.842 L263.6719,1246.842 L264.0625,1244.211 L264.4531,1210 L264.8438,1238.947 L265.2344,1244.211 L265.625,1252.105 L266.0156,1246.842 L266.4063,1191.579 L266.7969,1257.368 L267.1875,1241.579 L267.5781,1238.947 L267.9688,1233.684 L268.3594,1238.947 L268.75,1196.842 L269.1406,1196.842 L269.5313,1244.211 L269.9219,1241.579 L270.3125,1244.211 L270.7031,1257.368 L271.0938,1244.211 L271.4844,1254.737 L271.875,1244.211 L272.2656,1173.158 L272.6563,1236.316 L273.0469,1246.842 L273.4375,1249.474 L273.8281,1167.895 L274.2188,1149.474 L274.6094,1199.474 L275,1244.211 L275.3906,1238.947 L275.7813,1228.421 L276.1719,1231.053 L276.5625,1236.316 L276.9531,1225.789 L277.3438,1249.474 L277.7344,1233.684 L278.125,1236.316 L278.5156,1212.632 L278.9063,1246.842 L279.2969,1236.316 L279.6875,1257.368 L280.0781,1236.316 L280.4688,1249.474 L280.8594,1252.105 L281.25,1244.211 L281.6406,1104.737 L282.0313,1231.053 L282.4219,1241.579 L282.8125,1244.211 L283.2031,1249.474 L283.5938,1249.474 L283.9844,1244.211 L284.375,1246.842 L284.7656,1244.211 L285.1563,1238.947 L285.5469,1238.947 L285.9375,1241.579 L286.3281,1244.211 L286.7188,1257.368 L287.1094,1233.684 L287.5,1252.105 L287.8906,1238.947 L288.2813,1236.316 L288.6719,1246.842 L289.0625,1244.211 L289.4531,1257.368 L289.8438,1188.947 L290.2344,1238.947 L290.625,1233.684 L291.0156,1254.737 L291.4063,1241.579 L291.7969,1231.053 L292.1875,1257.368 L292.5781,1244.211 L292.9688,1238.947 L293.3594,1257.368 L293.75,1249.474 L294.1406,1257.368 L294.5313,1249.474 L294.9219,1246.842 L295.3125,1231.053 L295.7031,1233.684 L296.0938,1183.684 L296.4844,1225.789 L296.875,1236.316 L297.2656,1241.579 L297.6563,1225.789 L298.0469,1238.947 L298.4375,1233.684 L298.8281,1231.053 L299.2188,1252.105 L299.6094,1254.737 L300,1236.316 L300.3906,1249.474 L300.7813,1241.579 L301.1719,1244.211 L301.5625,1236.316 L301.9531,1220.526 L302.3438,1257.368 L302.7344,1244.211 L303.125,1254.737 L303.5156,1254.737 L303.9063,1254.737 L304.2969,1241.579 L304.6875,1199.474 L305.0781,1244.211 L305.4688,1241.579 L305.8594,1210 L306.25,1246.842 L306.6407,1244.211 L307.0313,1252.105 L307.4219,1241.579 L307.8125,1215.263 L308.2031,1244.211 L308.5938,1249.474 L308.9844,1196.842 L309.375,1244.211 L309.7656,1249.474 L310.1563,1207.368 L310.5469,1236.316 L310.9375,1241.579 L311.3281,1238.947 L311.7188,1254.737 L312.1094,1225.789 L312.5,1181.053 L312.8906,1257.368 L313.2813,1244.211 L313.6719,1223.158 L314.0625,1228.421 L314.4532,1233.684 L314.8438,1241.579 L315.2344,1236.316 L315.625,1241.579 L316.0156,1238.947 L316.4063,1233.684 L316.7969,1228.421 L317.1875,1254.737 L317.5781,1217.895 L317.9688,1233.684 L318.3594,1212.632 L318.75,1236.316 L319.1406,1252.105 L319.5313,1241.579 L319.9219,1257.368 L320.3125,1236.316 L320.7031,1257.368 L321.0938,1207.368 L321.4844,1236.316 L321.875,1236.316 L322.2657,1241.579 L322.6563,1202.105 L323.0469,1233.684 L323.4375,1236.316 L323.8281,1254.737 L324.2188,1257.368 L324.6094,1241.579 L325,1252.105 L325.3906,1241.579 L325.7813,1215.263 L326.1719,1257.368 L326.5625,1244.211 L326.9531,1254.737 L327.3438,1212.632 L327.7344,1241.579 L328.125,1210 L328.5156,1252.105 L328.9063,1210 L329.2969,1249.474 L329.6875,1241.579 L330.0782,1254.737 L330.4688,1236.316 L330.8594,1252.105 L331.25,1252.105 L331.6406,1236.316 L332.0313,1241.579 L332.4219,1228.421 L332.8125,1241.579 L333.2031,1238.947 L333.5938,1246.842 L333.9844,1244.211 L334.375,1252.105 L334.7656,1241.579 L335.1563,1233.684 " stroke="blue" fill="none" />
<text x="50" y="1310" font-family="Arial" font-size="12" fill="black">Policy Loss</text>
<text x="50" y="1325" font-family="Arial" font-size="10" fill="black">0.03632269</text>
<text x="50" y="1540" font-family="Arial" font-size="10" fill="black">0.006184208</text>
<path d="M50,1367.543 L62.5,1504.784 L75,1525.92 L87.5,1529.749 L100,1525.225 L112.5,1530 L125,1517.973 L137.5,1516.851 L150,1384.636 L162.5,1517.403 L175,1515.319 L187.5,1513.171 L200,1501.251 L212.5,1524.152 L225,1518.047 L237.5,1528.462 L250,1354.616 L262.5,1496.296 L275,1521.889 L287.5,1500.673 L300,1510.717 L312.5,1520.025 L325,1507.409 L337.5,1512.149 L350,1330 L362.5,1496.014 L375,1522.694 L387.5,1516.335 L400,1506.385 L412.5,1513.828 L425,1529.326 L437.5,1514.402 " stroke="blue" fill="none" />
<text x="50" y="1580" font-family="Arial" font-size="12" fill="black">Value Loss</text>
<text x="50" y="1595" font-family="Arial" font-size="10" fill="black">0.008888893</text>
<text x="50" y="1810" font-family="Arial" font-size="10" fill="black">0.004193877</text>
<path d="M50,1613.834 L62.5,1652.314 L75,1669.349 L87.5,1681.245 L100,1690.226 L112.5,1699.168 L125,1707.077 L137.5,1714.782 L150,1707.301 L162.5,1740.433 L175,1757.596 L187.5,1770.633 L200,1781.098 L212.5,1788.187 L225,1793.569 L237.5,1800 L250,1641.567 L262.5,1677.434 L275,1695.797 L287.5,1706.422 L300,1719.305 L312.5,1726.502 L325,1732.849 L337.5,1740.393 L350,1600 L362.5,1631.675 L375,1655.282 L387.5,1672.686 L400,1684.906 L412.5,1695.292 L425,1706.492 L437.5,1715.604 " stroke="blue" fill="none" />
<text x="50" y="1850" font-family="Arial" font-size="12" fill="black">Learning Rate</text>
<text x="50" y="1865" font-family="Arial" font-size="10" fill="black">0.0003</text>
<text x="50" y="2080" font-family="Arial" font-size="10" fill="black">0.0003</text>
<path d="M50,2070 L62.5,2070 L75,2070 L87.5,2070 L100,2070 L112.5,2070 L125,2070 L137.5,2070 L150,2070 L162.5,2070 L175,2070 L187.5,2070 L200,2070 L212.5,2070 L225,2070 L237.5,2070 L250,2070 L262.5,2070 L275,2070 L287.5,2070 L300,2070 L312.5,2070 L325,2070 L337.5,2070 L350,2070 L362.5,2070 L375,2070 L387.5,2070 L400,2070 L412.5,2070 L425,2070 L437.5,2070 " stroke="blue" fill="none" />
<text x="50" y="2120" font-family="Arial" font-size="12" fill="black">Entropy</text>
<text x="50" y="2135" font-family="Arial" font-size="10" fill="black">0.32376</text>
<text x="50" y="2350" font-family="Arial" font-size="10" fill="black">0.3165289</text>
<path d="M50,2338.903 L62.5,2340 L75,2333.88 L87.5,2329.354 L100,2315.446 L112.5,2310.95 L125,2308.14 L137.5,2301.733 L150,2309.553 L162.5,2310.54 L175,2293.898 L187.5,2284.862 L200,2274.456 L212.5,2273.48 L225,2273.759 L237.5,2272.184 L250,2253.058 L262.5,2247.168 L275,2230.144 L287.5,2217.558 L300,2213.396 L312.5,2199.177 L325,2201.319 L337.5,2193.285 L350,2214.997 L362.5,2204.972 L375,2180.232 L387.5,2161.166 L400,2154.867 L412.5,2152.239 L425,2148.012 L437.5,2140 " stroke="blue" fill="none" />
<text x="750" y="770" font-family="Arial" font-size="12" fill="black">Simplified</text>
<text x="750" y="785" font-family="Arial" font-size="10" fill="black">0.2606988</text>
<text x="750" y="1000" font-family="Arial" font-size="10" fill="black">-0.05701993</text>
<path d="M757.0313,817.2635 L764.4531,853.1725 L771.875,904.4657 L779.2969,919.0635 L786.7188,900.6122 L794.1406,883.1538 L801.5625,990 L808.9844,848.9249 L816.4063,902.4634 L823.8281,814.1647 L831.25,933.4825 L838.6719,803.8462 L846.0938,852.7966 L853.5156,924.2471 L860.9375,846.1878 L868.3594,829.3165 L875.7813,973.7138 L883.2031,903.2578 L890.625,902.1602 L898.0469,847.8298 L905.4688,865.8938 L912.8906,804.0481 L920.3125,847.7343 L927.7344,946.1443 L935.1563,871.8266 L942.5781,912.9208 L950,790 L957.4219,915.945 L964.8438,924.8905 L972.2656,815.1506 L979.6875,872.065 L987.1094,887.3292 L994.5313,927.0292 L1001.953,890.3807 L1009.375,894.0259 L1016.797,814.0151 L1024.219,872.4765 L1031.641,820.5211 L1035.156,813.9732 " stroke="blue" fill="none" />
<text x="750" y="1040" font-family="Arial" font-size="12" fill="black">Simplified</text>
<text x="750" y="1055" font-family="Arial" font-size="10" fill="black">17.78947</text>
<text x="750" y="1270" font-family="Arial" font-size="10" fill="black">9.421053</text>
<path d="M757.0313,1180.755 L764.4531,1209.686 L771.875,1161.887 L779.2969,1176.981 L786.7188,1222.264 L794.1406,1193.333 L801.5625,1208.428 L808.9844,1207.17 L816.4063,1170.692 L823.8281,1141.761 L831.25,1224.78 L838.6719,1178.239 L846.0938,1178.239 L853.5156,1217.233 L860.9375,1175.723 L868.3594,1168.176 L875.7813,1236.101 L883.2031,1060 L890.625,1231.069 L898.0469,1173.208 L905.4688,1166.918 L912.8906,1189.56 L920.3125,1101.509 L927.7344,1260 L935.1563,1184.528 L942.5781,1188.302 L950,1158.113 L957.4219,1202.138 L964.8438,1210.943 L972.2656,1151.824 L979.6875,1096.478 L987.1094,1175.723 L994.5313,1236.101 L1001.953,1161.887 L1009.375,1197.107 L1016.797,1151.824 L1024.219,1182.013 L1031.641,1205.912 L1035.156,1216.953 " stroke="blue" fill="none" />
</svg>
