<svg width="2000" height="2500" xmlns="http://www.w3.org/2000/svg">
<text x="10" y="20" font-family="Arial" font-size="26" fill="black"> [<tspan font-weight="bold" fill="blue">Crawler</tspan>] Training Session</text>
<text x="10" y="50" font-family="Arial" font-size="16" fill="black">[Statistics]</text>
<text x="50" y="70" font-family="Arial" font-size="12" fill="black">Started at: 9:21:30 AM, Sunday, March 15, 2026</text>
<text x="50" y="90" font-family="Arial" font-size="12" fill="black">Finished at: 9:22:38 AM, Sunday, March 15, 2026</text>
<text x="50" y="110" font-family="Arial" font-size="12" fill="black">Training Session Time: 0 hrs : 1 min : 4.75 sec</text>
<text x="50" y="130" font-family="Arial" font-size="12" fill="black">Inference Time: 0 hrs : 22 min : 24 sec        [Device: CPU]</text>
<text x="50" y="150" font-family="Arial" font-size="12" fill="black">Update Time: 0 hrs : 0 min : 18.00 sec        [Per iteration: 0 hrs : 0 min : 5.75 sec]        [Device: GPU]</text>
<text x="50" y="170" font-family="Arial" font-size="12" fill="black">Episode Count: 2023</text>
<text x="50" y="190" font-family="Arial" font-size="12" fill="black">Inference Steps: 12288</text>
<text x="50" y="210" font-family="Arial" font-size="12" fill="black">Iterations: 3</text>
<text x="50" y="230" font-family="Arial" font-size="12" fill="black">Parallel Agents: 1</text>
<text x="50" y="250" font-family="Arial" font-size="12" fill="black">Timescale: 42.76</text>
<text x="50" y="270" font-family="Arial" font-size="12" fill="black">Trainer: PPO</text>
<text x="10" y="320" font-family="Arial" font-size="16" fill="black">[Hyperparameters]</text>
<text x="50" y="340" font-family="Arial" font-size="12" fill="black">Buffer Size: 4096        [Batch Size: 256       (x16)]</text>
<text x="50" y="360" font-family="Arial" font-size="12" fill="black">Num Epoch: 8</text>
<text x="50" y="380" font-family="Arial" font-size="12" fill="black">Time Horizon: -1</text>
<text x="50" y="400" font-family="Arial" font-size="12" fill="black">Gradient Cliping by Norm: 0.5</text>
<text x="50" y="420" font-family="Arial" font-size="12" fill="black">Learning Rate Schedule: False    </text>
<text x="10" y="470" font-family="Arial" font-size="16" fill="black">[Behaviour]</text>
<text x="50" y="490" font-family="Arial" font-size="12" fill="black">Space Size: 94</text>
<text x="50" y="510" font-family="Arial" font-size="12" fill="black">Continuous Actions: 20 [Standard Deviation: FixedStandardDeviation]     [Value: 1.15]</text>
<text x="50" y="530" font-family="Arial" font-size="12" fill="black">Discrete Actions: 0</text>
<text x="50" y="550" font-family="Arial" font-size="12" fill="black">TargetFPS: 50 (physics update rate)</text>
<text x="50" y="570" font-family="Arial" font-size="12" fill="black">Observations Normalization: True</text>
<text x="10" y="620" font-family="Arial" font-size="16" fill="black">[Decision Requester]</text>
<text x="50" y="640" font-family="Arial" font-size="12" fill="black">Max Step: 10000</text>
<text x="50" y="660" font-family="Arial" font-size="12" fill="black">Decision Period: 5      [Actions Between Decisions: True]</text>
<text x="10" y="710" font-family="Arial" font-size="16" fill="black">[Graphs]</text>
<text x="50" y="730" font-family="Arial" font-size="12" fill="black">Episode Reward (2023)</text>
<text x="50" y="745" font-family="Arial" font-size="10" fill="black">1.141663</text>
<text x="50" y="960" font-family="Arial" font-size="10" fill="black">-0.05899272</text>
<path d="M50,940.7581 L50.19531,937.7245 L50.39063,936.2036 L50.58594,944.9325 L50.78125,939.4546 L50.97656,939.7619 L51.17188,940.7585 L51.36719,940.4787 L51.5625,940.0795 L51.75781,942.8447 L51.95313,944.3579 L52.14844,939.7376 L52.34375,940.8701 L52.53906,941.6914 L52.73438,936.8314 L52.92969,937.7935 L53.125,940.8441 L53.32031,942.134 L53.51563,940.9213 L53.71094,938.0167 L53.90625,934.8069 L54.10156,941.1023 L54.29688,938.9556 L54.49219,941.4732 L54.6875,939.6577 L54.88281,942.6979 L55.07813,939.5079 L55.27344,940.7 L55.46875,944.5357 L55.66406,938.6589 L55.85938,933.3866 L56.05469,935.3959 L56.25,934.7534 L56.44531,938.4485 L56.64063,938.3199 L56.83594,944.4503 L57.03125,940.1282 L57.22656,940.7053 L57.42188,944.6556 L57.61719,940.4464 L57.8125,939.0089 L58.00781,939.1157 L58.20313,939.6941 L58.39844,939.7035 L58.59375,937.3561 L58.78906,940.5671 L58.98438,942.1917 L59.17969,943.7288 L59.375,943.143 L59.57031,943.0548 L59.76563,941.0118 L59.96094,935.3891 L60.15625,942.0138 L60.35156,941.8757 L60.54688,938.0478 L60.74219,946.3344 L60.9375,937.3406 L61.13281,942.9661 L61.32813,936.2462 L61.52344,941.1976 L61.71875,938.3672 L61.91406,940.2521 L62.10938,940.2614 L62.30469,942.0744 L62.5,938.4628 L62.69531,940.3022 L62.89063,939.0132 L63.08594,940.2116 L63.28125,941.8959 L63.47656,939.0929 L63.67188,938.9026 L63.86719,942.7684 L64.0625,945.6809 L64.25781,937.9755 L64.45313,943.4465 L64.64844,940.7146 L64.84375,940.6077 L65.03906,939.1442 L65.23438,941.0145 L65.42969,936.0906 L65.625,941.7821 L65.82031,941.7529 L66.01563,942.1415 L66.21094,941.0807 L66.40625,939.9639 L66.60156,940.566 L66.79688,941.8327 L66.99219,943.2654 L67.1875,941.9802 L67.38281,941.4923 L67.57813,936.1903 L67.77344,937.4358 L67.96875,939.1476 L68.16406,942.0696 L68.35938,941.0173 L68.55469,938.8671 L68.75,939.9951 L68.94531,940.4228 L69.14063,938.1033 L69.33594,940.6169 L69.53125,939.5876 L69.72656,943.3274 L69.92188,943.0541 L70.11719,942.6937 L70.3125,936.4919 L70.50781,936.5822 L70.70313,941.6021 L70.89844,936.6722 L71.09375,941.6656 L71.28906,942.6451 L71.48438,935.0302 L71.67969,940.5722 L71.875,939.4778 L72.07031,945.3408 L72.26563,940.4977 L72.46094,940.98 L72.65625,944.1691 L72.85156,940.8987 L73.04688,939.7624 L73.24219,939.7684 L73.4375,945.1603 L73.63281,943.1967 L73.82813,939.8955 L74.02344,944.0626 L74.21875,940.8763 L74.41406,938.4538 L74.60938,942.3696 L74.80469,943.034 L75,937.9111 L75.19531,940.8762 L75.39063,942.8251 L75.58594,940.736 L75.78125,941.3448 L75.97656,943.1529 L76.17188,939.8853 L76.36719,937.6115 L76.5625,941.054 L76.75781,941.1626 L76.95313,940.6678 L77.14844,940.325 L77.34375,943.1038 L77.53906,942.4496 L77.73438,937.7983 L77.92969,941.3895 L78.125,934.3351 L78.32031,934.718 L78.51563,942.1389 L78.71094,941.6354 L78.90625,939.4231 L79.10156,944.9656 L79.29688,945.2585 L79.49219,942.4728 L79.6875,939.4942 L79.88281,942.506 L80.07813,940.3007 L80.27344,939.7984 L80.46875,943.6477 L80.66406,942.4726 L80.85938,946.7773 L81.05469,935.9234 L81.25,944.575 L81.44531,939.7878 L81.64063,944.9326 L81.83594,943.2025 L82.03125,937.9063 L82.22656,940.8814 L82.42188,943.5854 L82.61719,940.1888 L82.8125,938.625 L83.00781,942.8838 L83.20313,933.0782 L83.39844,934.2444 L83.59375,940.0497 L83.78906,939.4632 L83.98438,938.2167 L84.17969,939.814 L84.375,943.2634 L84.57031,943.9937 L84.76563,943.264 L84.96094,942.7262 L85.15625,941.9084 L85.35156,941.8798 L85.54688,943.8895 L85.74219,940.816 L85.9375,940.5536 L86.13281,944.0807 L86.32813,939.8515 L86.52344,940.7737 L86.71875,937.0314 L86.91406,941.5278 L87.10938,944.2984 L87.30469,942.0594 L87.5,940.1526 L87.69531,944.5134 L87.89063,942.1169 L88.08594,940.2694 L88.28125,940.8477 L88.47656,940.3237 L88.67188,941.799 L88.86719,938.3062 L89.0625,941.1584 L89.25781,941.2527 L89.45313,943.449 L89.64844,938.4107 L89.84375,942.3181 L90.03906,943.8436 L90.23438,948.5096 L90.42969,940.0015 L90.625,941.1697 L90.82031,941.7654 L91.01563,940.641 L91.21094,942.7114 L91.40625,940.0045 L91.60156,941.5842 L91.79688,939.6721 L91.99219,941.2625 L92.1875,940.3934 L92.38281,939.4528 L92.57813,939.5719 L92.77344,940.8569 L92.96875,942.5721 L93.16406,934.6473 L93.35938,938.082 L93.55469,941.9393 L93.75,942.0982 L93.94531,938.8721 L94.14063,941.9146 L94.33594,940.6821 L94.53125,931.5017 L94.72656,943.247 L94.92188,943.4256 L95.11719,950 L95.3125,941.3691 L95.50781,937.8124 L95.70313,943.3344 L95.89844,945.956 L96.09375,941.3642 L96.28906,942.7808 L96.48438,942.3009 L96.67969,941.6602 L96.875,941.1589 L97.07031,942.4728 L97.26563,941.4857 L97.46094,942.7287 L97.65625,937.6701 L97.85156,945.7117 L98.04688,940.7556 L98.24219,938.6655 L98.4375,941.4072 L98.63281,942.6727 L98.82813,932.7624 L99.02344,943.9641 L99.21875,944.6353 L99.41406,943.014 L99.60938,936.1639 L99.80469,943.4436 L100,946.9073 L100.1953,941.4549 L100.3906,938.0896 L100.5859,937.4128 L100.7813,937.5429 L100.9766,936.0517 L101.1719,943.7565 L101.3672,936.376 L101.5625,941.6608 L101.7578,939.9726 L101.9531,946.7838 L102.1484,942.5762 L102.3438,938.8331 L102.5391,943.0582 L102.7344,943.7158 L102.9297,938.1304 L103.125,936.6061 L103.3203,943.465 L103.5156,938.6259 L103.7109,939.6302 L103.9063,941.1594 L104.1016,942.1093 L104.2969,939.4897 L104.4922,941.6911 L104.6875,937.8979 L104.8828,937.4731 L105.0781,936.6252 L105.2734,942.3257 L105.4688,936.3102 L105.6641,940.5587 L105.8594,940.451 L106.0547,939.6714 L106.25,939.8409 L106.4453,938.0478 L106.6406,938.4804 L106.8359,934.5776 L107.0313,941.4743 L107.2266,942.0156 L107.4219,942.9131 L107.6172,940.626 L107.8125,940.6377 L108.0078,945.1791 L108.2031,940.7402 L108.3984,940.4539 L108.5938,943.0566 L108.7891,939.2014 L108.9844,935.7557 L109.1797,939.9485 L109.375,940.9784 L109.5703,940.2266 L109.7656,938.4177 L109.9609,938.8492 L110.1563,938.5649 L110.3516,942.6252 L110.5469,940.3236 L110.7422,936.6777 L110.9375,939.7988 L111.1328,938.1563 L111.3281,940.584 L111.5234,940.2413 L111.7188,935.1026 L111.9141,941.8406 L112.1094,942.7571 L112.3047,936.6219 L112.5,943.8249 L112.6953,944.1732 L112.8906,944.296 L113.0859,939.8765 L113.2813,942.0533 L113.4766,949.9835 L113.6719,947.8102 L113.8672,935.5778 L114.0625,941.3358 L114.2578,943.4911 L114.4531,942.9757 L114.6484,943.2789 L114.8438,938.9741 L115.0391,941.2474 L115.2344,939.3909 L115.4297,943.0253 L115.625,939.7792 L115.8203,939.3009 L116.0156,940.4609 L116.2109,938.9056 L116.4063,941.2301 L116.6016,935.0717 L116.7969,939.3021 L116.9922,942.2259 L117.1875,942.3958 L117.3828,937.9677 L117.5781,942.7089 L117.7734,943.3239 L117.9688,941.3255 L118.1641,938.2134 L118.3594,934.5098 L118.5547,942.6985 L118.75,940.244 L118.9453,942.2388 L119.1406,943.3187 L119.3359,941.4583 L119.5313,942.4437 L119.7266,938.8813 L119.9219,943.543 L120.1172,937.1849 L120.3125,941.64 L120.5078,941.3897 L120.7031,941.6121 L120.8984,942.0422 L121.0938,945.3357 L121.2891,943.0892 L121.4844,941.586 L121.6797,936.8436 L121.875,943.2999 L122.0703,941.5418 L122.2656,941.548 L122.4609,934.3295 L122.6563,941.3304 L122.8516,939.9195 L123.0469,941.9791 L123.2422,937.4803 L123.4375,939.9391 L123.6328,940.6723 L123.8281,942.5814 L124.0234,938.4399 L124.2188,943.0914 L124.4141,938.0608 L124.6094,938.4136 L124.8047,938.3181 L125,936.2118 L125.1953,940.9025 L125.3906,942.5095 L125.5859,942.069 L125.7813,941.6749 L125.9766,940.3469 L126.1719,941.5075 L126.3672,941.113 L126.5625,940.1382 L126.7578,943.5274 L126.9531,939.8637 L127.1484,938.9053 L127.3438,939.3346 L127.5391,936.6693 L127.7344,940.8163 L127.9297,941.6715 L128.125,940.1054 L128.3203,940.3224 L128.5156,942.144 L128.7109,934.6423 L128.9063,945.0078 L129.1016,939.4028 L129.2969,941.5721 L129.4922,936.1247 L129.6875,940.182 L129.8828,940.1254 L130.0781,939.0693 L130.2734,934.2327 L130.4688,940.4071 L130.6641,942.3666 L130.8594,941.0117 L131.0547,935.2938 L131.25,945.7656 L131.4453,941.0681 L131.6406,933.3939 L131.8359,941.4004 L132.0313,940.642 L132.2266,941.1817 L132.4219,940.1509 L132.6172,940.8578 L132.8125,938.3005 L133.0078,944.1064 L133.2031,939.313 L133.3984,939.5425 L133.5938,942.4291 L133.7891,940.9117 L133.9844,941.7593 L134.1797,939.5452 L134.375,939.8622 L134.5703,938.4056 L134.7656,942.5996 L134.9609,939.5829 L135.1563,947.3959 L135.3516,946.293 L135.5469,943.0626 L135.7422,935.7487 L135.9375,941.0067 L136.1328,935.44 L136.3281,941.3387 L136.5234,944.5719 L136.7188,938.9832 L136.9141,941.7148 L137.1094,941.8509 L137.3047,934.3298 L137.5,943.0436 L137.6953,941.4481 L137.8906,940.1055 L138.0859,936.3442 L138.2813,941.5588 L138.4766,941.8481 L138.6719,941.196 L138.8672,946.1447 L139.0625,940.4408 L139.2578,944.3723 L139.4531,939.5121 L139.6484,930.5366 L139.8438,945.7294 L140.0391,936.0499 L140.2344,937.7355 L140.4297,937.3885 L140.625,934.1989 L140.8203,934.7638 L141.0156,942.4583 L141.2109,936.4091 L141.4063,935.7808 L141.6016,939.5846 L141.7969,938.3405 L141.9922,942.7639 L142.1875,940.7788 L142.3828,942.2444 L142.5781,941.9256 L142.7734,940.8442 L142.9688,941.4882 L143.1641,940.1251 L143.3594,944.282 L143.5547,942.1827 L143.75,946.9955 L143.9453,941.6733 L144.1406,941.1246 L144.3359,939.4393 L144.5313,939.1134 L144.7266,942.7528 L144.9219,940.251 L145.1172,945.3604 L145.3125,942.6026 L145.5078,941.4923 L145.7031,940.3379 L145.8984,941.3236 L146.0938,942.7886 L146.2891,938.8242 L146.4844,940.4092 L146.6797,942.4379 L146.875,943.6374 L147.0703,942.6962 L147.2656,939.7158 L147.4609,939.9639 L147.6563,943.8489 L147.8516,941.8527 L148.0469,942.1954 L148.2422,942.0967 L148.4375,945.103 L148.6328,946.6837 L148.8281,940.5018 L149.0234,938.9003 L149.2188,941.7752 L149.4141,941.158 L149.6094,943.2283 L149.8047,935.0884 L150,935.7954 L150.1953,944.5701 L150.3906,943.5804 L150.5859,941.738 L150.7813,943.8061 L150.9766,941.7913 L151.1719,939.4425 L151.3672,943.1687 L151.5625,943.0344 L151.7578,941.3294 L151.9531,942.8842 L152.1484,941.5295 L152.3438,940.6577 L152.5391,941.2383 L152.7344,932.9782 L152.9297,941.431 L153.125,934.5679 L153.3203,940.153 L153.5156,943.7938 L153.7109,935.3042 L153.9063,936.7085 L154.1016,939.4362 L154.2969,938.166 L154.4922,939.7432 L154.6875,942.0979 L154.8828,940.9516 L155.0781,936.0582 L155.2734,942.9069 L155.4688,938.644 L155.6641,937.3328 L155.8594,935.3285 L156.0547,937.9636 L156.25,940.9152 L156.4453,937.6816 L156.6406,942.6479 L156.8359,942.2151 L157.0313,938.6766 L157.2266,943.9631 L157.4219,938.8948 L157.6172,942.8983 L157.8125,939.9052 L158.0078,940.7228 L158.2031,941.573 L158.3984,940.2071 L158.5938,939.2181 L158.7891,938.2537 L158.9844,939.9602 L159.1797,939.5483 L159.375,942.609 L159.5703,945.1173 L159.7656,939.3896 L159.9609,937.6645 L160.1563,943.9409 L160.3516,943.2103 L160.5469,943.2546 L160.7422,941.4257 L160.9375,938.6017 L161.1328,938.7228 L161.3281,943.7018 L161.5234,939.5518 L161.7188,946.1852 L161.9141,938.6066 L162.1094,942.6068 L162.3047,940.7422 L162.5,938.8997 L162.6953,940.263 L162.8906,941.201 L163.0859,941.5676 L163.2813,939.0089 L163.4766,943.1006 L163.6719,945.4696 L163.8672,939.4489 L164.0625,943.0319 L164.2578,938.204 L164.4531,942.1145 L164.6484,943.1445 L164.8438,938.5025 L165.0391,941.2728 L165.2344,940.6309 L165.4297,939.0466 L165.625,937.1899 L165.8203,948.0502 L166.0156,933.7958 L166.2109,943.1663 L166.4063,942.4011 L166.6016,941.5427 L166.7969,945.17 L166.9922,941.1917 L167.1875,938.3344 L167.3828,941.2466 L167.5781,939.3866 L167.7734,938.8058 L167.9688,941.8411 L168.1641,933.0714 L168.3594,936.6078 L168.5547,938.1419 L168.75,938.0533 L168.9453,939.2841 L169.1406,935.7148 L169.3359,939.2275 L169.5313,936.6448 L169.7266,940.6497 L169.9219,937.9872 L170.1172,939.4543 L170.3125,939.9166 L170.5078,938.8842 L170.7031,939.9584 L170.8984,936.3746 L171.0938,940.4557 L171.2891,941.2672 L171.4844,938.1354 L171.6797,943.2097 L171.875,936.6622 L172.0703,941.7243 L172.2656,939.8702 L172.4609,941.2489 L172.6563,941.0094 L172.8516,935.0992 L173.0469,939.2905 L173.2422,938.3629 L173.4375,936.4361 L173.6328,939.8072 L173.8281,942.6524 L174.0234,938.1713 L174.2188,938.2357 L174.4141,934.4534 L174.6094,937.7866 L174.8047,936.1021 L175,942.7521 L175.1953,934.3143 L175.3906,936.575 L175.5859,941.1735 L175.7813,940.6801 L175.9766,940.9341 L176.1719,935.3743 L176.3672,935.7935 L176.5625,939.7397 L176.7578,938.3165 L176.9531,939.9014 L177.1484,939.2872 L177.3438,939.7585 L177.5391,940.0286 L177.7344,937.7485 L177.9297,940.6779 L178.125,939.1987 L178.3203,943.866 L178.5156,938.0413 L178.7109,940.9052 L178.9063,934.4556 L179.1016,937.2917 L179.2969,937.8849 L179.4922,941.221 L179.6875,941.4128 L179.8828,938.668 L180.0781,941.6366 L180.2735,938.3947 L180.4688,939.6871 L180.6641,938.4578 L180.8594,942.3364 L181.0547,938.4892 L181.25,938.1641 L181.4453,931.0701 L181.6406,936.0505 L181.8359,938.74 L182.0313,941.225 L182.2266,940.1209 L182.4219,936.0785 L182.6172,942.908 L182.8125,941.5205 L183.0078,937.5571 L183.2031,940.6548 L183.3984,941.2159 L183.5938,936.399 L183.7891,941.5999 L183.9844,937.9977 L184.1797,937.8786 L184.375,941.5379 L184.5703,940.2374 L184.7656,940.6478 L184.9609,934.5211 L185.1563,938.8395 L185.3516,933.6302 L185.5469,941.8082 L185.7422,940.4773 L185.9375,933.7016 L186.1328,939.36 L186.3281,941.7336 L186.5234,938.2297 L186.7188,942.7039 L186.9141,945.4893 L187.1094,937.1979 L187.3047,940.0726 L187.5,938.9979 L187.6953,940.0425 L187.8906,939.7734 L188.086,940.2938 L188.2813,945.1815 L188.4766,942.443 L188.6719,942.8265 L188.8672,940.4047 L189.0625,941.6902 L189.2578,935.7869 L189.4531,940.7846 L189.6484,938.8948 L189.8438,937.1006 L190.0391,937.5465 L190.2344,942.6908 L190.4297,940.9742 L190.625,938.9203 L190.8203,940.694 L191.0156,937.6028 L191.2109,941.4384 L191.4063,939.0872 L191.6016,943.106 L191.7969,940.1821 L191.9922,944.1839 L192.1875,937.5964 L192.3828,938.582 L192.5781,937.0042 L192.7734,941.524 L192.9688,939.7869 L193.1641,944.1204 L193.3594,935.6351 L193.5547,937.2499 L193.75,937.929 L193.9453,940.1923 L194.1406,941.476 L194.3359,939.6619 L194.5313,938.1623 L194.7266,941.5558 L194.9219,939.7095 L195.1172,945.2054 L195.3125,937.8793 L195.5078,936.9669 L195.7031,942.8389 L195.8985,939.862 L196.0938,941.5444 L196.2891,939.7485 L196.4844,936.4196 L196.6797,937.4257 L196.875,940.1229 L197.0703,939.5547 L197.2656,940.1638 L197.4609,939.8623 L197.6563,939.8983 L197.8516,940.1326 L198.0469,937.1678 L198.2422,938.7959 L198.4375,940.1734 L198.6328,940.251 L198.8281,939.8472 L199.0234,940.0158 L199.2188,942.4264 L199.4141,936.7783 L199.6094,938.9166 L199.8047,940.8498 L200,941.853 L200.1953,939.0789 L200.3906,940.1979 L200.5859,941.0945 L200.7813,940.6581 L200.9766,940.311 L201.1719,939.5201 L201.3672,942.3353 L201.5625,938.136 L201.7578,939.5886 L201.9531,934.6053 L202.1484,937.0295 L202.3438,940.2986 L202.5391,933.8284 L202.7344,939.0559 L202.9297,936.9863 L203.125,937.1693 L203.3203,938.6616 L203.5156,937.069 L203.711,940.1218 L203.9063,943.3645 L204.1016,932.6194 L204.2969,934.0419 L204.4922,942.8688 L204.6875,940.8887 L204.8828,940.1954 L205.0781,935.5084 L205.2734,939.2689 L205.4688,942.895 L205.6641,940.894 L205.8594,936.6285 L206.0547,940.6309 L206.25,941.1047 L206.4453,939.126 L206.6406,941.6544 L206.8359,935.5491 L207.0313,942.6249 L207.2266,941.799 L207.4219,940.0765 L207.6172,940.911 L207.8125,940.9324 L208.0078,934.2776 L208.2031,946.1262 L208.3984,937.0712 L208.5938,939.2404 L208.7891,939.6208 L208.9844,937.2182 L209.1797,939.118 L209.375,936.8906 L209.5703,942.9855 L209.7656,939.3875 L209.9609,940.2767 L210.1563,938.5808 L210.3516,941.0016 L210.5469,934.4006 L210.7422,940.019 L210.9375,937.8109 L211.1328,938.1255 L211.3281,938.4083 L211.5235,940.3914 L211.7188,940.6207 L211.9141,937.9846 L212.1094,933.6111 L212.3047,940.9252 L212.5,941.4871 L212.6953,941.0465 L212.8906,938.3942 L213.0859,939.0823 L213.2813,937.3197 L213.4766,940.7952 L213.6719,939.5526 L213.8672,940.4135 L214.0625,939.2716 L214.2578,938.4111 L214.4531,936.8473 L214.6484,937.6904 L214.8438,938.6263 L215.0391,937.7841 L215.2344,939.3371 L215.4297,940.618 L215.625,939.7288 L215.8203,937.8309 L216.0156,933.8199 L216.2109,940.3207 L216.4063,936.9432 L216.6016,941.7133 L216.7969,941.8353 L216.9922,938.285 L217.1875,939.9614 L217.3828,936.137 L217.5781,942.1015 L217.7734,940.9069 L217.9688,941.3199 L218.1641,939.6552 L218.3594,940.1647 L218.5547,938.1899 L218.75,940.9916 L218.9453,942.5814 L219.1406,938.7378 L219.336,937.1839 L219.5313,938.0838 L219.7266,941.8359 L219.9219,940.2729 L220.1172,939.8645 L220.3125,936.5651 L220.5078,940.9517 L220.7031,939.6522 L220.8984,937.8193 L221.0938,938.8005 L221.2891,936.0834 L221.4844,941.9154 L221.6797,942.1343 L221.875,942.1129 L222.0703,939.7939 L222.2656,940.5148 L222.4609,939.8229 L222.6563,942.0999 L222.8516,939.3254 L223.0469,939.0662 L223.2422,941.4208 L223.4375,939.032 L223.6328,940.122 L223.8281,936.619 L224.0234,942.4973 L224.2188,938.3469 L224.4141,943.3159 L224.6094,941.3717 L224.8047,938.9047 L225,943.808 L225.1953,936.0633 L225.3906,931.4163 L225.5859,940.8096 L225.7813,937.9817 L225.9766,940.0297 L226.1719,934.5573 L226.3672,937.9909 L226.5625,938.7256 L226.7578,936.5585 L226.9531,943.5683 L227.1485,938.7302 L227.3438,939.8487 L227.5391,939.3994 L227.7344,938.6512 L227.9297,939.4075 L228.125,937.877 L228.3203,943.325 L228.5156,938.6497 L228.7109,940.6033 L228.9063,942.0121 L229.1016,939.1495 L229.2969,938.8698 L229.4922,941.2878 L229.6875,939.2322 L229.8828,940.6969 L230.0781,934.744 L230.2734,941.9339 L230.4688,940.4248 L230.6641,938.4918 L230.8594,936.9321 L231.0547,939.9846 L231.25,937.9566 L231.4453,940.1028 L231.6406,937.644 L231.8359,940.9391 L232.0313,940.5657 L232.2266,940.9705 L232.4219,935.3134 L232.6172,940.4208 L232.8125,942.5887 L233.0078,942.107 L233.2031,940.2202 L233.3984,938.6595 L233.5938,934.1093 L233.7891,935.0879 L233.9844,940.3419 L234.1797,939.4788 L234.375,944.4946 L234.5703,942.9577 L234.7656,941.5092 L234.961,939.5752 L235.1563,938.6426 L235.3516,938.0104 L235.5469,933.6037 L235.7422,940.3729 L235.9375,941.3332 L236.1328,941.6773 L236.3281,939.7836 L236.5234,939.7781 L236.7188,932.5452 L236.9141,940.5616 L237.1094,939.9338 L237.3047,941.586 L237.5,937.9034 L237.6953,935.4152 L237.8906,938.0857 L238.0859,940.5771 L238.2813,941.04 L238.4766,939.7061 L238.6719,940.8673 L238.8672,940.2635 L239.0625,940.2708 L239.2578,940.018 L239.4531,940.0584 L239.6484,940.9975 L239.8438,943.245 L240.0391,940.7902 L240.2344,938.5276 L240.4297,937.7581 L240.625,941.189 L240.8203,939.8439 L241.0156,942.091 L241.2109,931.3302 L241.4063,939.6115 L241.6016,939.2199 L241.7969,931.7535 L241.9922,939.1035 L242.1875,940.3546 L242.3828,939.5238 L242.5781,941.2162 L242.7735,942.0504 L242.9688,941.3393 L243.1641,939.5963 L243.3594,941.9807 L243.5547,935.2756 L243.75,941.3229 L243.9453,935.6182 L244.1406,940.3773 L244.3359,934.9461 L244.5313,944.2423 L244.7266,941.507 L244.9219,939.7458 L245.1172,940.1652 L245.3125,942.3298 L245.5078,944.1198 L245.7031,939.2183 L245.8984,940.9219 L246.0938,940.3632 L246.2891,943.2765 L246.4844,939.6655 L246.6797,937.1517 L246.875,942.3671 L247.0703,941.9205 L247.2656,942.2451 L247.4609,940.7506 L247.6563,937.6714 L247.8516,937.8426 L248.0469,941.3896 L248.2422,942.6984 L248.4375,943.1531 L248.6328,943.2088 L248.8281,939.3989 L249.0234,939.6145 L249.2188,941.0708 L249.4141,940.2454 L249.6094,941.9374 L249.8047,940.3343 L250,934.7902 L250.1953,940.2249 L250.3906,940.9253 L250.586,939.631 L250.7813,939.1384 L250.9766,940.7897 L251.1719,942.2424 L251.3672,941.4712 L251.5625,939.0297 L251.7578,937.2254 L251.9531,940.6264 L252.1484,939.9541 L252.3438,939.5622 L252.5391,931.9136 L252.7344,934.1819 L252.9297,940.1807 L253.125,938.1429 L253.3203,941.7186 L253.5156,941.2139 L253.7109,938.2627 L253.9063,942.5991 L254.1016,938.8021 L254.2969,941.2088 L254.4922,939.1912 L254.6875,938.6287 L254.8828,936.6326 L255.0781,941.1873 L255.2734,939.079 L255.4688,938.8792 L255.6641,939.848 L255.8594,941.4645 L256.0547,940.6448 L256.25,942.0692 L256.4453,935.21 L256.6406,941.7098 L256.8359,940.2626 L257.0313,942.1415 L257.2266,936.9407 L257.4219,942.4911 L257.6172,943.0651 L257.8125,938.6973 L258.0078,940.6268 L258.2031,932.1799 L258.3984,942.4987 L258.5938,938.9025 L258.7891,941.0421 L258.9844,938.46 L259.1797,942.3264 L259.375,936.1956 L259.5703,940.218 L259.7656,937.0771 L259.9609,941.808 L260.1563,941.5568 L260.3516,940.004 L260.5469,938.9734 L260.7422,937.8004 L260.9375,937.2753 L261.1328,935.6018 L261.3281,939.291 L261.5234,940.6804 L261.7188,940.1328 L261.9141,939.2155 L262.1094,938.8416 L262.3047,941.2924 L262.5,940.3805 L262.6953,939.5545 L262.8906,937.6285 L263.0859,939.7599 L263.2813,940.3101 L263.4766,936.5568 L263.6719,939.509 L263.8672,939.0145 L264.0625,943.5195 L264.2578,937.6298 L264.4531,939.6537 L264.6484,942.4365 L264.8438,936.8279 L265.0391,939.8962 L265.2344,938.6209 L265.4297,941.5856 L265.625,937.6536 L265.8203,940.3515 L266.0156,938.8515 L266.2109,938.3859 L266.4063,943.6247 L266.6016,944.0559 L266.7969,938.4051 L266.9922,941.4783 L267.1875,939.5611 L267.3828,935.4188 L267.5781,938.0651 L267.7734,940.649 L267.9688,936.9801 L268.1641,940.2579 L268.3594,935.3815 L268.5547,934.8063 L268.75,938.373 L268.9453,937.335 L269.1406,939.403 L269.3359,941.7739 L269.5313,941.4211 L269.7266,939.1431 L269.9219,940.7844 L270.1172,938.7072 L270.3125,937.0079 L270.5078,932.1548 L270.7031,941.2881 L270.8984,942.8885 L271.0938,940.2883 L271.2891,940.7795 L271.4844,939.3743 L271.6797,940.9136 L271.875,939.1307 L272.0703,934.5739 L272.2656,940.437 L272.4609,940.7328 L272.6563,941.2353 L272.8516,940.506 L273.0469,940.6375 L273.2422,935.7568 L273.4375,939.9681 L273.6328,938.1701 L273.8281,940.2359 L274.0234,939.6402 L274.2188,943.0906 L274.4141,937.5636 L274.6094,940.0964 L274.8047,939.4558 L275,941.6274 L275.1953,942.085 L275.3906,932.8092 L275.5859,938.288 L275.7813,943.9026 L275.9766,940.8811 L276.1719,933.2339 L276.3672,941.0126 L276.5625,937.5178 L276.7578,938.5295 L276.9531,941.6318 L277.1484,941.1665 L277.3438,945.6148 L277.5391,934.6906 L277.7344,941.5172 L277.9297,941.2056 L278.125,940.5137 L278.3203,939.3827 L278.5156,939.3969 L278.7109,934.9517 L278.9063,937.4445 L279.1016,933.6838 L279.2969,944.119 L279.4922,940.183 L279.6875,940.1379 L279.8828,940.27 L280.0781,936.2965 L280.2734,936.8524 L280.4688,941.2432 L280.6641,938.0483 L280.8594,936.3629 L281.0547,936.6116 L281.25,942.6428 L281.4453,939.476 L281.6406,942.2371 L281.8359,942.1339 L282.0313,939.9271 L282.2266,938.465 L282.4219,937.7445 L282.6172,939.4441 L282.8125,940.879 L283.0078,931.1243 L283.2031,940.4675 L283.3984,939.4229 L283.5938,937.1882 L283.7891,750 L283.9844,935.7551 L284.1797,941.1566 L284.375,941.9123 L284.5703,936.9679 L284.7656,938.2446 L284.9609,940.1812 L285.1563,935.8031 L285.3516,939.4631 L285.5469,937.7789 L285.7422,939.9694 L285.9375,935.9158 L286.1328,939.5889 L286.3281,940.0027 L286.5234,937.3684 L286.7188,937.0204 L286.9141,940.218 L287.1094,936.4763 L287.3047,938.9326 L287.5,941.9305 L287.6953,940.4097 L287.8906,939.9338 L288.0859,940.1466 L288.2813,939.7125 L288.4766,942.0555 L288.6719,941.6976 L288.8672,937.1678 L289.0625,936.289 L289.2578,935.412 L289.4531,932.2354 L289.6484,936.9977 L289.8438,941.2523 L290.0391,937.8644 L290.2344,937.4257 L290.4297,938.6237 L290.625,938.7124 L290.8203,938.4624 L291.0156,940.6283 L291.2109,939.6793 L291.4063,938.9695 L291.6016,937.7577 L291.7969,936.6332 L291.9922,940.9248 L292.1875,940.6766 L292.3828,931.9547 L292.5781,939.3209 L292.7734,935.5326 L292.9688,939.7206 L293.1641,937.9752 L293.3594,937.3054 L293.5547,940.2341 L293.75,939.2449 L293.9453,940.1778 L294.1406,939.2859 L294.3359,939.3474 L294.5313,941.7199 L294.7266,932.0855 L294.9219,939.3895 L295.1172,941.5088 L295.3125,939.0375 L295.5078,942.8628 L295.7031,941.43 L295.8984,938.8916 L296.0938,940.6027 L296.2891,938.3122 L296.4844,939.0107 L296.6797,939.0396 L296.875,934.4085 L297.0703,936.9228 L297.2656,939.9113 L297.4609,939.5738 L297.6563,937.7125 L297.8516,936.5794 L298.0469,939.1927 L298.2422,931.1943 L298.4375,936.6518 L298.6328,944.306 L298.8281,937.0678 L299.0234,935.2721 L299.2188,941.9422 L299.4141,938.6709 L299.6094,938.7277 L299.8047,938.2524 L300,937.5417 L300.1953,937.6652 L300.3906,937.7746 L300.5859,934.3956 L300.7813,938.1639 L300.9766,938.3013 L301.1719,934.6021 L301.3672,937.264 L301.5625,940.6635 L301.7578,936.3907 L301.9531,939.8882 L302.1484,937.1942 L302.3438,943.1981 L302.5391,941.5311 L302.7344,941.1103 L302.9297,933.8906 L303.125,941.7283 L303.3203,936.822 L303.5156,936.6209 L303.711,940.4048 L303.9063,939.8439 L304.1016,938.643 L304.2969,934.951 L304.4922,942.8498 L304.6875,939.6852 L304.8828,939.0245 L305.0781,939.2798 L305.2734,936.9496 L305.4688,939.7047 L305.6641,937.519 L305.8594,942.0439 L306.0547,939.548 L306.25,942.8177 L306.4453,939.6983 L306.6407,936.673 L306.8359,936.4659 L307.0313,940.0891 L307.2266,933.332 L307.4219,940.4523 L307.6172,937.0244 L307.8125,940.3372 L308.0078,937.0651 L308.2031,939.8698 L308.3984,940.3579 L308.5938,938.6636 L308.7891,938.6893 L308.9844,940.4157 L309.1797,940.809 L309.375,938.3958 L309.5703,937.8605 L309.7656,938.8033 L309.9609,938.5677 L310.1563,935.0643 L310.3516,942.8903 L310.5469,934.8717 L310.7422,942.6273 L310.9375,938.2513 L311.1328,939.3201 L311.3281,938.5413 L311.5235,939.5489 L311.7188,939.8743 L311.9141,941.5324 L312.1094,935.1259 L312.3047,937.0839 L312.5,932.5673 L312.6953,939.6484 L312.8906,943.8424 L313.0859,943.7709 L313.2813,941.1694 L313.4766,940.2458 L313.6719,936.639 L313.8672,939.663 L314.0625,938.5348 L314.2578,937.0551 L314.4532,939.314 L314.6484,936.8994 L314.8438,938.6622 L315.0391,937.3396 L315.2344,940.3103 L315.4297,941.5016 L315.625,939.5521 L315.8203,937.4512 L316.0156,938.229 L316.2109,941.6331 L316.4063,938.134 L316.6016,938.5814 L316.7969,937.4844 L316.9922,938.6923 L317.1875,938.071 L317.3828,940.6359 L317.5781,936.9418 L317.7734,935.9609 L317.9688,936.6365 L318.1641,941.1227 L318.3594,934.6953 L318.5547,941.7162 L318.75,936.6117 L318.9453,945.1046 L319.1406,936.0965 L319.336,940.7188 L319.5313,942.4047 L319.7266,936.373 L319.9219,938.2657 L320.1172,942.42 L320.3125,937.5215 L320.5078,937.7115 L320.7031,938.9532 L320.8984,939.9739 L321.0938,938.5038 L321.2891,941.7945 L321.4844,936.7297 L321.6797,940.1144 L321.875,941.6433 L322.0703,939.9291 L322.2657,939.8594 L322.4609,937.0902 L322.6563,942.737 L322.8516,939.2325 L323.0469,941.3235 L323.2422,941.8373 L323.4375,938.9161 L323.6328,940.1458 L323.8281,931.8979 L324.0234,936.5961 L324.2188,941.5651 L324.4141,943.5071 L324.6094,937.4658 L324.8047,937.1525 L325,935.8013 L325.1953,943.0998 L325.3906,938.9369 L325.5859,938.9559 L325.7813,937.3662 L325.9766,938.8393 L326.1719,938.8441 L326.3672,933.545 L326.5625,937.5934 L326.7578,941.1274 L326.9531,941.0838 L327.1485,936.5768 L327.3438,938.3998 L327.5391,936.0093 L327.7344,939.9528 L327.9297,937.5983 L328.125,938.2875 L328.3203,941.2547 L328.5156,937.3074 L328.7109,938.4731 L328.9063,932.627 L329.1016,935.8315 L329.2969,939.8618 L329.4922,939.9882 L329.6875,942.2665 L329.8828,939.6808 L330.0782,935.5284 L330.2734,938.3232 L330.4688,936.6891 L330.6641,939.519 L330.8594,938.991 L331.0547,934.797 L331.25,943.6893 L331.4453,934.9599 L331.6406,940.6893 L331.8359,934.1499 L332.0313,937.1993 L332.2266,936.1589 L332.4219,940.6281 L332.6172,939.912 L332.8125,938.4653 L333.0078,938.6392 L333.2031,938.8428 L333.3984,942.5544 L333.5938,934.2424 L333.7891,937.981 L333.9844,937.1829 L334.1797,935.389 L334.375,939.822 L334.5703,939.2403 L334.7656,939.1107 L334.961,939.2116 L335.1563,933.5486 L335.3516,938.1196 L335.5469,940.3731 L335.7422,936.8187 L335.9375,933.5256 L336.1328,932.2822 L336.3281,935.4005 L336.5234,938.8215 L336.7188,940.6307 L336.9141,947.4684 L337.1094,938.0408 L337.3047,939.1401 L337.5,933.2309 L337.6953,938.7479 L337.8907,936.6983 L338.0859,937.1417 L338.2813,940.3688 L338.4766,939.5097 L338.6719,939.175 L338.8672,937.3904 L339.0625,937.4453 L339.2578,939.976 L339.4531,933.2997 L339.6484,938.6525 L339.8438,937.8061 L340.0391,939.7283 L340.2344,943.2917 L340.4297,935.0883 L340.625,940.662 L340.8203,939.976 L341.0156,933.7149 L341.2109,939.4121 L341.4063,939.0384 L341.6016,936.7478 L341.7969,937.7919 L341.9922,936.4345 L342.1875,932.77 L342.3828,941.1195 L342.5781,939.2659 L342.7735,939.3558 L342.9688,940.614 L343.1641,939.8453 L343.3594,935.0492 L343.5547,940.0306 L343.75,941.7087 L343.9453,936.7264 L344.1406,938.932 L344.3359,940.4309 L344.5313,936.6281 L344.7266,944.427 L344.9219,935.9658 L345.1172,942.0229 L345.3125,936.327 L345.5078,942.4005 L345.7032,944.0895 L345.8984,938.5922 L346.0938,943.281 L346.2891,936.6838 L346.4844,942.502 L346.6797,935.0247 L346.875,939.8844 L347.0703,941.381 L347.2656,938.1249 L347.4609,937.0809 L347.6563,939.1817 L347.8516,935.1172 L348.0469,938.7548 L348.2422,937.3588 L348.4375,939.9051 L348.6328,935.5886 L348.8281,941.1508 L349.0234,941.1801 L349.2188,940.4437 L349.4141,940.0009 L349.6094,934.9869 L349.8047,936.3723 L350,942.2054 L350.1953,936.9986 L350.3906,942.318 L350.586,941.5878 L350.7813,938.7697 L350.9766,940.7841 L351.1719,940.1322 L351.3672,937.6137 L351.5625,938.4576 L351.7578,940.0433 L351.9531,945.173 L352.1484,939.7153 L352.3438,934.8612 L352.5391,942.0435 L352.7344,939.5667 L352.9297,941.1064 L353.125,941.0937 L353.3203,940.2553 L353.5157,938.2347 L353.7109,937.6309 L353.9063,940.4413 L354.1016,940.1802 L354.2969,940.7402 L354.4922,940.7444 L354.6875,939.3193 L354.8828,945.892 L355.0781,933.2273 L355.2734,937.3015 L355.4688,933.8893 L355.6641,941.0157 L355.8594,930.7025 L356.0547,931.4766 L356.25,939.8171 L356.4453,937.2056 L356.6406,940.7806 L356.8359,941.8048 L357.0313,935.5443 L357.2266,935.4608 L357.4219,934.5754 L357.6172,943.4613 L357.8125,942.6054 L358.0078,939.1795 L358.2031,941.1144 L358.3985,936.3716 L358.5938,938.3515 L358.7891,938.1583 L358.9844,941.7056 L359.1797,939.5074 L359.375,939.302 L359.5703,940.8786 L359.7656,941.8204 L359.9609,938.7089 L360.1563,941.5734 L360.3516,938.5859 L360.5469,934.4672 L360.7422,933.6815 L360.9375,934.2249 L361.1328,940.8407 L361.3282,931.7101 L361.5234,936.4505 L361.7188,941.1528 L361.9141,939.4266 L362.1094,944.1332 L362.3047,937.8433 L362.5,939.2534 L362.6953,938.7382 L362.8906,938.2866 L363.0859,940.7791 L363.2813,937.5764 L363.4766,940.1154 L363.6719,940.7543 L363.8672,942.6853 L364.0625,941.7227 L364.2578,939.5587 L364.4531,940.855 L364.6484,938.4721 L364.8438,937.498 L365.0391,939.6066 L365.2344,938.403 L365.4297,939.8721 L365.625,935.0062 L365.8203,939.349 L366.0156,939.0718 L366.211,937.2621 L366.4063,937.6089 L366.6016,936.2117 L366.7969,934.2191 L366.9922,936.3707 L367.1875,938.3419 L367.3828,940.044 L367.5781,940.1515 L367.7734,939.872 L367.9688,939.0349 L368.1641,942.5138 L368.3594,940.2391 L368.5547,940.2852 L368.75,936.2222 L368.9453,940.0443 L369.1407,939.6454 L369.3359,938.3016 L369.5313,939.4113 L369.7266,940.9379 L369.9219,937.2217 L370.1172,936.2562 L370.3125,938.7867 L370.5078,939.2042 L370.7031,936.7189 L370.8984,938.0024 L371.0938,936.9237 L371.2891,940.0016 L371.4844,938.7109 L371.6797,937.687 L371.875,937.2415 L372.0703,936.6602 L372.2656,941.8056 L372.4609,934.7706 L372.6563,939.8479 L372.8516,939.5421 L373.0469,940.4233 L373.2422,933.3264 L373.4375,942.2178 L373.6328,937.9793 L373.8281,938.1387 L374.0235,938.4692 L374.2188,939.7598 L374.4141,932.8669 L374.6094,939.8665 L374.8047,940.6648 L375,937.0999 L375.1953,937.9417 L375.3906,938.4064 L375.5859,941.8539 L375.7813,941.3478 L375.9766,940.793 L376.1719,940.7131 L376.3672,937.535 L376.5625,940.1857 L376.7578,938.5734 L376.9532,943.4199 L377.1484,938.7241 L377.3438,937.7659 L377.5391,943.5582 L377.7344,939.1044 L377.9297,940.0997 L378.125,934.0228 L378.3203,939.64 L378.5156,939.57 L378.7109,938.7267 L378.9063,943.0248 L379.1016,937.2593 L379.2969,940.2271 L379.4922,936.7192 L379.6875,940.8002 L379.8828,943.1485 L380.0781,934.3425 L380.2734,940.2633 L380.4688,941.629 L380.6641,941.4838 L380.8594,937.8331 L381.0547,939.3419 L381.25,941.7375 L381.4453,939.2355 L381.6406,939.4088 L381.836,941.7123 L382.0313,940.8801 L382.2266,941.3284 L382.4219,936.8348 L382.6172,939.3564 L382.8125,934.4855 L383.0078,938.444 L383.2031,940.1691 L383.3984,938.6431 L383.5938,941.9253 L383.7891,940.7417 L383.9844,938.0583 L384.1797,938.8293 L384.375,936.2556 L384.5703,938.7575 L384.7657,939.3286 L384.9609,939.1898 L385.1563,937.7343 L385.3516,938.1396 L385.5469,937.4571 L385.7422,938.4406 L385.9375,939.0731 L386.1328,941.2131 L386.3281,939.9352 L386.5234,938.9888 L386.7188,935.5646 L386.9141,939.1784 L387.1094,938.1483 L387.3047,938.572 L387.5,940.7119 L387.6953,936.5092 L387.8906,943.082 L388.0859,934.7684 L388.2813,938.6064 L388.4766,933.2675 L388.6719,932.533 L388.8672,943.3215 L389.0625,944.1462 L389.2578,937.728 L389.4531,936.9609 L389.6485,939.2343 L389.8438,940.399 L390.0391,939.0029 L390.2344,938.8931 L390.4297,939.0397 L390.625,938.6182 L390.8203,940.9813 L391.0156,937.9068 L391.2109,937.2247 L391.4063,940.1935 L391.6016,939.2038 L391.7969,935.0618 L391.9922,935.9603 L392.1875,936.9119 L392.3828,941.3615 L392.5782,938.0897 L392.7734,937.6213 L392.9688,941.5631 L393.1641,942.8754 L393.3594,940.2347 L393.5547,935.5972 L393.75,941.5092 L393.9453,936.2274 L394.1406,935.2054 L394.3359,937.6592 L394.5313,938.9265 L394.7266,935.1467 L394.9219,932.8822 L395.1172,933.0251 L395.3125,940.102 L395.5078,938.2712 L395.7031,939.1757 L395.8984,939.6927 L396.0938,939.5953 L396.2891,937.4832 L396.4844,940.6533 L396.6797,938.2028 L396.875,941.5306 L397.0703,940.9188 L397.2656,939.7148 L397.461,940.7692 L397.6563,936.2804 L397.8516,934.0203 L398.0469,938.637 L398.2422,939.2543 L398.4375,935.6113 L398.6328,935.6403 L398.8281,940.9475 L399.0234,942.0458 L399.2188,942.0518 L399.4141,940.6473 L399.6094,941.1553 L399.8047,934.3849 L400,937.8883 L400.1953,939.203 L400.3907,938.321 L400.5859,940.3447 L400.7813,934.5031 L400.9766,934.5817 L401.1719,933.0654 L401.3672,937.0038 L401.5625,941.3661 L401.7578,939.1232 L401.9531,935.3026 L402.1484,938.8898 L402.3438,938.0966 L402.5391,939.646 L402.7344,939.7752 L402.9297,935.9177 L403.125,939.023 L403.3203,939.0181 L403.5156,937.4538 L403.7109,938.3013 L403.9063,935.7024 L404.1016,936.7864 L404.2969,937.7628 L404.4922,937.5732 L404.6875,938.0537 L404.8828,940.2921 L405.0781,940.4695 L405.2735,934.0276 L405.4688,932.6286 L405.6641,938.3502 L405.8594,940.0291 L406.0547,938.9374 L406.25,941.0018 L406.4453,940.2297 L406.6406,931.8452 L406.8359,937.291 L407.0313,938.8171 L407.2266,940.2402 L407.4219,939.6207 L407.6172,939.2831 L407.8125,939.4551 L408.0078,937.8394 L408.2032,942.0606 L408.3984,940.4204 L408.5938,940.0549 L408.7891,938.431 L408.9844,936.1744 L409.1797,939.5459 L409.375,940.2535 L409.5703,939.1666 L409.7656,936.3591 L409.9609,940.7756 L410.1563,938.8005 L410.3516,940.7211 L410.5469,936.9182 L410.7422,940.0626 L410.9375,938.1186 L411.1328,936.6904 L411.3281,936.0632 L411.5234,939.1771 L411.7188,938.72 L411.9141,941.1908 L412.1094,939.5252 L412.3047,940.1099 L412.5,936.4393 L412.6953,939.9124 L412.8906,941.9192 L413.086,939.7086 L413.2813,934.4165 L413.4766,941.046 L413.6719,937.9969 L413.8672,939.9589 L414.0625,938.1563 L414.2578,938.777 L414.4531,934.1831 L414.6484,936.7549 L414.8438,940.3155 L415.0391,939.5676 L415.2344,936.0127 L415.4297,939.8775 L415.625,941.2579 L415.8203,934.8606 L416.0157,938.7623 L416.2109,941.9015 L416.4063,930.8809 L416.6016,939.5048 L416.7969,938.9725 L416.9922,938.7785 L417.1875,936.6945 L417.3828,939.9781 L417.5781,939.3348 L417.7734,940.6487 L417.9688,941.6423 L418.1641,936.1764 L418.3594,938.9485 L418.5547,935.6763 L418.75,940.6993 L418.9453,940.9367 L419.1406,938.4789 L419.3359,944.4513 L419.5313,937.4515 L419.7266,935.0837 L419.9219,937.9887 L420.1172,936.9836 L420.3125,939.2362 L420.5078,937.0349 L420.7031,934.4002 L420.8985,940.6862 L421.0938,939.4013 L421.2891,937.7481 L421.4844,936.7596 L421.6797,936.0927 L421.875,936.5723 L422.0703,939.9575 L422.2656,940.1613 L422.4609,933.8413 L422.6563,941.0435 L422.8516,936.4118 L423.0469,939.908 L423.2422,938.2204 L423.4375,938.1605 L423.6328,936.0792 L423.8282,934.8947 L424.0234,940.6858 L424.2188,937.8182 L424.4141,939.7736 L424.6094,938.6861 L424.8047,938.3365 L425,938.8136 L425.1953,941.7055 L425.3906,937.9395 L425.5859,934.5782 L425.7813,935.0189 L425.9766,937.1978 L426.1719,937.691 L426.3672,940.1186 L426.5625,937.7275 L426.7578,940.135 L426.9531,938.7942 L427.1484,935.4243 L427.3438,938.8906 L427.5391,935.4557 L427.7344,940.873 L427.9297,939.5396 L428.125,939.5735 L428.3203,937.5897 L428.5156,937.2145 L428.711,934.8947 L428.9063,941.677 L429.1016,937.7504 L429.2969,934.5737 L429.4922,938.1491 L429.6875,939.5922 L429.8828,940.4627 L430.0781,939.892 L430.2734,941.6802 L430.4688,936.1094 L430.6641,937.4004 L430.8594,938.3842 L431.0547,939.6157 L431.25,939.6586 L431.4453,938.5306 L431.6407,940.2968 L431.8359,935.8326 L432.0313,940.7092 L432.2266,935.8146 L432.4219,932.4757 L432.6172,938.7318 L432.8125,937.3376 L433.0078,938.7506 L433.2031,940.6639 L433.3984,940.4357 L433.5938,940.3344 L433.7891,940.8511 L433.9844,938.6926 L434.1797,936.7645 L434.375,938.9423 L434.5703,933.8892 L434.7656,933.0818 L434.9609,939.6631 L435.1563,940.2476 L435.3516,939.0226 L435.5469,936.3158 L435.7422,941.5701 L435.9375,938.1004 L436.1328,940.5764 L436.3281,939.2888 L436.5235,937.6962 L436.7188,940.4008 L436.9141,937.138 L437.1094,935.9149 L437.3047,936.4006 L437.5,940.8696 L437.6953,934.1437 L437.8906,936.7645 L438.0859,939.5848 L438.2813,939.473 L438.4766,938.6862 L438.6719,936.1259 L438.8672,934.9684 L439.0625,936.5854 L439.2578,936.8684 L439.4532,940.1016 L439.6484,934.1544 L439.8438,935.0339 L440.0391,940.6978 L440.2344,936.5003 L440.4297,938.0429 L440.625,941.3426 L440.8203,939.9934 L441.0156,934.6579 L441.2109,939.8812 L441.4063,941.9158 L441.6016,935.5359 L441.7969,930.0331 L441.9922,946.4003 L442.1875,938.2537 L442.3828,939.8643 L442.5781,935.0853 L442.7734,933.5859 L442.9688,939.5607 L443.1641,938.0874 L443.3594,935.6993 L443.5547,934.6635 L443.75,938.4772 L443.9453,937.1442 L444.1406,940.7248 L444.336,936.804 L444.5313,939.1533 L444.7266,935.4993 L444.9219,941.8004 " stroke="blue" fill="none" />
<text x="50" y="1000" font-family="Arial" font-size="12" fill="black">Episode Length (2023)</text>
<text x="50" y="1015" font-family="Arial" font-size="10" fill="black">34</text>
<text x="50" y="1230" font-family="Arial" font-size="10" fill="black">2</text>
<path d="M50,1220 L50.19531,1195 L50.39063,1176.25 L50.58594,1201.25 L50.78125,1201.25 L50.97656,1188.75 L51.17188,1213.75 L51.36719,1157.5 L51.5625,1213.75 L51.75781,1201.25 L51.95313,1157.5 L52.14844,1207.5 L52.34375,1195 L52.53906,1207.5 L52.73438,1195 L52.92969,1201.25 L53.125,1201.25 L53.32031,1195 L53.51563,1188.75 L53.71094,1176.25 L53.90625,1138.75 L54.10156,1188.75 L54.29688,1195 L54.49219,1188.75 L54.6875,1213.75 L54.88281,1163.75 L55.07813,1213.75 L55.27344,1182.5 L55.46875,1176.25 L55.66406,1195 L55.85938,1132.5 L56.05469,1182.5 L56.25,1195 L56.44531,1207.5 L56.64063,1201.25 L56.83594,1188.75 L57.03125,1195 L57.22656,1188.75 L57.42188,1195 L57.61719,1207.5 L57.8125,1195 L58.00781,1182.5 L58.20313,1188.75 L58.39844,1207.5 L58.59375,1182.5 L58.78906,1195 L58.98438,1176.25 L59.17969,1207.5 L59.375,1207.5 L59.57031,1195 L59.76563,1201.25 L59.96094,1163.75 L60.15625,1201.25 L60.35156,1195 L60.54688,1201.25 L60.74219,1188.75 L60.9375,1163.75 L61.13281,1201.25 L61.32813,1182.5 L61.52344,1195 L61.71875,1207.5 L61.91406,1207.5 L62.10938,1213.75 L62.30469,1195 L62.5,1182.5 L62.69531,1201.25 L62.89063,1201.25 L63.08594,1101.25 L63.28125,1188.75 L63.47656,1201.25 L63.67188,1138.75 L63.86719,1201.25 L64.0625,1170 L64.25781,1182.5 L64.45313,1195 L64.64844,1151.25 L64.84375,1213.75 L65.03906,1182.5 L65.23438,1213.75 L65.42969,1195 L65.625,1201.25 L65.82031,1195 L66.01563,1188.75 L66.21094,1195 L66.40625,1145 L66.60156,1188.75 L66.79688,1182.5 L66.99219,1182.5 L67.1875,1201.25 L67.38281,1213.75 L67.57813,1182.5 L67.77344,1145 L67.96875,1201.25 L68.16406,1207.5 L68.35938,1188.75 L68.55469,1170 L68.75,1195 L68.94531,1201.25 L69.14063,1182.5 L69.33594,1213.75 L69.53125,1201.25 L69.72656,1201.25 L69.92188,1182.5 L70.11719,1182.5 L70.3125,1163.75 L70.50781,1170 L70.70313,1201.25 L70.89844,1188.75 L71.09375,1176.25 L71.28906,1201.25 L71.48438,1151.25 L71.67969,1207.5 L71.875,1176.25 L72.07031,1195 L72.26563,1195 L72.46094,1213.75 L72.65625,1195 L72.85156,1207.5 L73.04688,1195 L73.24219,1182.5 L73.4375,1126.25 L73.63281,1195 L73.82813,1213.75 L74.02344,1207.5 L74.21875,1201.25 L74.41406,1157.5 L74.60938,1182.5 L74.80469,1176.25 L75,1195 L75.19531,1182.5 L75.39063,1207.5 L75.58594,1207.5 L75.78125,1201.25 L75.97656,1207.5 L76.17188,1188.75 L76.36719,1176.25 L76.5625,1170 L76.75781,1188.75 L76.95313,1182.5 L77.14844,1176.25 L77.34375,1207.5 L77.53906,1176.25 L77.73438,1163.75 L77.92969,1195 L78.125,1157.5 L78.32031,1157.5 L78.51563,1120 L78.71094,1176.25 L78.90625,1201.25 L79.10156,1170 L79.29688,1188.75 L79.49219,1188.75 L79.6875,1213.75 L79.88281,1195 L80.07813,1188.75 L80.27344,1207.5 L80.46875,1188.75 L80.66406,1151.25 L80.85938,1182.5 L81.05469,1176.25 L81.25,1176.25 L81.44531,1207.5 L81.64063,1195 L81.83594,1170 L82.03125,1176.25 L82.22656,1188.75 L82.42188,1195 L82.61719,1213.75 L82.8125,1201.25 L83.00781,1207.5 L83.20313,1157.5 L83.39844,1195 L83.59375,1207.5 L83.78906,1207.5 L83.98438,1201.25 L84.17969,1182.5 L84.375,1188.75 L84.57031,1170 L84.76563,1195 L84.96094,1195 L85.15625,1176.25 L85.35156,1195 L85.54688,1195 L85.74219,1195 L85.9375,1170 L86.13281,1201.25 L86.32813,1188.75 L86.52344,1207.5 L86.71875,1201.25 L86.91406,1207.5 L87.10938,1163.75 L87.30469,1195 L87.5,1188.75 L87.69531,1182.5 L87.89063,1195 L88.08594,1207.5 L88.28125,1188.75 L88.47656,1195 L88.67188,1207.5 L88.86719,1201.25 L89.0625,1213.75 L89.25781,1195 L89.45313,1151.25 L89.64844,1207.5 L89.84375,1201.25 L90.03906,1188.75 L90.23438,1163.75 L90.42969,1201.25 L90.625,1201.25 L90.82031,1195 L91.01563,1201.25 L91.21094,1188.75 L91.40625,1213.75 L91.60156,1213.75 L91.79688,1207.5 L91.99219,1213.75 L92.1875,1188.75 L92.38281,1207.5 L92.57813,1213.75 L92.77344,1195 L92.96875,1157.5 L93.16406,1095 L93.35938,1201.25 L93.55469,1213.75 L93.75,1201.25 L93.94531,1213.75 L94.14063,1195 L94.33594,1220 L94.53125,1138.75 L94.72656,1182.5 L94.92188,1182.5 L95.11719,1170 L95.3125,1213.75 L95.50781,1163.75 L95.70313,1188.75 L95.89844,1188.75 L96.09375,1201.25 L96.28906,1195 L96.48438,1188.75 L96.67969,1182.5 L96.875,1207.5 L97.07031,1182.5 L97.26563,1182.5 L97.46094,1201.25 L97.65625,1201.25 L97.85156,1188.75 L98.04688,1188.75 L98.24219,1207.5 L98.4375,1207.5 L98.63281,1188.75 L98.82813,1145 L99.02344,1195 L99.21875,1182.5 L99.41406,1201.25 L99.60938,1188.75 L99.80469,1182.5 L100,1188.75 L100.1953,1195 L100.3906,1188.75 L100.5859,1170 L100.7813,1182.5 L100.9766,1195 L101.1719,1126.25 L101.3672,1195 L101.5625,1182.5 L101.7578,1182.5 L101.9531,1182.5 L102.1484,1182.5 L102.3438,1207.5 L102.5391,1176.25 L102.7344,1176.25 L102.9297,1213.75 L103.125,1188.75 L103.3203,1176.25 L103.5156,1182.5 L103.7109,1188.75 L103.9063,1207.5 L104.1016,1207.5 L104.2969,1207.5 L104.4922,1207.5 L104.6875,1213.75 L104.8828,1188.75 L105.0781,1157.5 L105.2734,1195 L105.4688,1182.5 L105.6641,1213.75 L105.8594,1207.5 L106.0547,1157.5 L106.25,1195 L106.4453,1207.5 L106.6406,1201.25 L106.8359,1157.5 L107.0313,1195 L107.2266,1195 L107.4219,1195 L107.6172,1170 L107.8125,1195 L108.0078,1207.5 L108.2031,1195 L108.3984,1176.25 L108.5938,1195 L108.7891,1188.75 L108.9844,1182.5 L109.1797,1207.5 L109.375,1213.75 L109.5703,1188.75 L109.7656,1145 L109.9609,1188.75 L110.1563,1188.75 L110.3516,1176.25 L110.5469,1201.25 L110.7422,1195 L110.9375,1195 L111.1328,1182.5 L111.3281,1188.75 L111.5234,1207.5 L111.7188,1188.75 L111.9141,1201.25 L112.1094,1188.75 L112.3047,1163.75 L112.5,1195 L112.6953,1163.75 L112.8906,1201.25 L113.0859,1195 L113.2813,1207.5 L113.4766,1163.75 L113.6719,1151.25 L113.8672,1170 L114.0625,1188.75 L114.2578,1195 L114.4531,1201.25 L114.6484,1207.5 L114.8438,1195 L115.0391,1201.25 L115.2344,1201.25 L115.4297,1207.5 L115.625,1207.5 L115.8203,1182.5 L116.0156,1207.5 L116.2109,1163.75 L116.4063,1195 L116.6016,1182.5 L116.7969,1207.5 L116.9922,1195 L117.1875,1157.5 L117.3828,1195 L117.5781,1176.25 L117.7734,1188.75 L117.9688,1201.25 L118.1641,1176.25 L118.3594,1176.25 L118.5547,1207.5 L118.75,1151.25 L118.9453,1213.75 L119.1406,1195 L119.3359,1201.25 L119.5313,1182.5 L119.7266,1157.5 L119.9219,1201.25 L120.1172,1182.5 L120.3125,1157.5 L120.5078,1176.25 L120.7031,1195 L120.8984,1145 L121.0938,1132.5 L121.2891,1170 L121.4844,1182.5 L121.6797,1195 L121.875,1188.75 L122.0703,1182.5 L122.2656,1201.25 L122.4609,1201.25 L122.6563,1207.5 L122.8516,1195 L123.0469,1195 L123.2422,1176.25 L123.4375,1213.75 L123.6328,1163.75 L123.8281,1195 L124.0234,1195 L124.2188,1120 L124.4141,1176.25 L124.6094,1195 L124.8047,1207.5 L125,1195 L125.1953,1201.25 L125.3906,1188.75 L125.5859,1195 L125.7813,1207.5 L125.9766,1201.25 L126.1719,1201.25 L126.3672,1213.75 L126.5625,1201.25 L126.7578,1195 L126.9531,1207.5 L127.1484,1195 L127.3438,1188.75 L127.5391,1157.5 L127.7344,1182.5 L127.9297,1201.25 L128.125,1213.75 L128.3203,1213.75 L128.5156,1176.25 L128.7109,1145 L128.9063,1195 L129.1016,1207.5 L129.2969,1195 L129.4922,1188.75 L129.6875,1213.75 L129.8828,1201.25 L130.0781,1188.75 L130.2734,1188.75 L130.4688,1207.5 L130.6641,1207.5 L130.8594,1201.25 L131.0547,1188.75 L131.25,1176.25 L131.4453,1182.5 L131.6406,1063.75 L131.8359,1201.25 L132.0313,1213.75 L132.2266,1188.75 L132.4219,1182.5 L132.6172,1195 L132.8125,1201.25 L133.0078,1188.75 L133.2031,1213.75 L133.3984,1157.5 L133.5938,1207.5 L133.7891,1182.5 L133.9844,1213.75 L134.1797,1207.5 L134.375,1188.75 L134.5703,1170 L134.7656,1195 L134.9609,1207.5 L135.1563,1182.5 L135.3516,1188.75 L135.5469,1207.5 L135.7422,1176.25 L135.9375,1213.75 L136.1328,1201.25 L136.3281,1201.25 L136.5234,1126.25 L136.7188,1201.25 L136.9141,1195 L137.1094,1195 L137.3047,1170 L137.5,1195 L137.6953,1213.75 L137.8906,1188.75 L138.0859,1188.75 L138.2813,1188.75 L138.4766,1195 L138.6719,1195 L138.8672,1101.25 L139.0625,1201.25 L139.2578,1170 L139.4531,1188.75 L139.6484,1120 L139.8438,1170 L140.0391,1176.25 L140.2344,1182.5 L140.4297,1188.75 L140.625,1170 L140.8203,1188.75 L141.0156,1207.5 L141.2109,1182.5 L141.4063,1188.75 L141.6016,1201.25 L141.7969,1201.25 L141.9922,1188.75 L142.1875,1195 L142.3828,1195 L142.5781,1188.75 L142.7734,1170 L142.9688,1195 L143.1641,1195 L143.3594,1157.5 L143.5547,1188.75 L143.75,1188.75 L143.9453,1201.25 L144.1406,1201.25 L144.3359,1182.5 L144.5313,1170 L144.7266,1201.25 L144.9219,1201.25 L145.1172,1195 L145.3125,1201.25 L145.5078,1201.25 L145.7031,1213.75 L145.8984,1195 L146.0938,1176.25 L146.2891,1207.5 L146.4844,1207.5 L146.6797,1201.25 L146.875,1195 L147.0703,1188.75 L147.2656,1201.25 L147.4609,1188.75 L147.6563,1182.5 L147.8516,1176.25 L148.0469,1195 L148.2422,1195 L148.4375,1170 L148.6328,1195 L148.8281,1145 L149.0234,1201.25 L149.2188,1195 L149.4141,1188.75 L149.6094,1201.25 L149.8047,1195 L150,1176.25 L150.1953,1188.75 L150.3906,1188.75 L150.5859,1188.75 L150.7813,1188.75 L150.9766,1188.75 L151.1719,1195 L151.3672,1207.5 L151.5625,1201.25 L151.7578,1207.5 L151.9531,1176.25 L152.1484,1213.75 L152.3438,1207.5 L152.5391,1201.25 L152.7344,1132.5 L152.9297,1201.25 L153.125,1170 L153.3203,1176.25 L153.5156,1188.75 L153.7109,1188.75 L153.9063,1182.5 L154.1016,1195 L154.2969,1157.5 L154.4922,1182.5 L154.6875,1188.75 L154.8828,1201.25 L155.0781,1176.25 L155.2734,1195 L155.4688,1182.5 L155.6641,1195 L155.8594,1182.5 L156.0547,1201.25 L156.25,1207.5 L156.4453,1157.5 L156.6406,1207.5 L156.8359,1176.25 L157.0313,1182.5 L157.2266,1157.5 L157.4219,1201.25 L157.6172,1188.75 L157.8125,1207.5 L158.0078,1163.75 L158.2031,1145 L158.3984,1213.75 L158.5938,1195 L158.7891,1151.25 L158.9844,1176.25 L159.1797,1195 L159.375,1170 L159.5703,1188.75 L159.7656,1182.5 L159.9609,1195 L160.1563,1201.25 L160.3516,1201.25 L160.5469,1120 L160.7422,1207.5 L160.9375,1201.25 L161.1328,1182.5 L161.3281,1201.25 L161.5234,1213.75 L161.7188,1195 L161.9141,1195 L162.1094,1182.5 L162.3047,1207.5 L162.5,1201.25 L162.6953,1195 L162.8906,1207.5 L163.0859,1188.75 L163.2813,1201.25 L163.4766,1151.25 L163.6719,1151.25 L163.8672,1207.5 L164.0625,1176.25 L164.2578,1188.75 L164.4531,1213.75 L164.6484,1157.5 L164.8438,1207.5 L165.0391,1182.5 L165.2344,1207.5 L165.4297,1195 L165.625,1138.75 L165.8203,1176.25 L166.0156,1145 L166.2109,1151.25 L166.4063,1195 L166.6016,1195 L166.7969,1201.25 L166.9922,1213.75 L167.1875,1182.5 L167.3828,1182.5 L167.5781,1207.5 L167.7734,1170 L167.9688,1195 L168.1641,1182.5 L168.3594,1188.75 L168.5547,1195 L168.75,1201.25 L168.9453,1201.25 L169.1406,1176.25 L169.3359,1213.75 L169.5313,1182.5 L169.7266,1195 L169.9219,1170 L170.1172,1188.75 L170.3125,1195 L170.5078,1207.5 L170.7031,1213.75 L170.8984,1188.75 L171.0938,1213.75 L171.2891,1213.75 L171.4844,1213.75 L171.6797,1188.75 L171.875,1201.25 L172.0703,1182.5 L172.2656,1213.75 L172.4609,1188.75 L172.6563,1207.5 L172.8516,1170 L173.0469,1201.25 L173.2422,1188.75 L173.4375,1182.5 L173.6328,1182.5 L173.8281,1207.5 L174.0234,1195 L174.2188,1213.75 L174.4141,1170 L174.6094,1207.5 L174.8047,1176.25 L175,1188.75 L175.1953,1145 L175.3906,1182.5 L175.5859,1195 L175.7813,1195 L175.9766,1145 L176.1719,1176.25 L176.3672,1163.75 L176.5625,1182.5 L176.7578,1207.5 L176.9531,1213.75 L177.1484,1201.25 L177.3438,1188.75 L177.5391,1176.25 L177.7344,1182.5 L177.9297,1195 L178.125,1163.75 L178.3203,1201.25 L178.5156,1195 L178.7109,1201.25 L178.9063,1170 L179.1016,1188.75 L179.2969,1113.75 L179.4922,1201.25 L179.6875,1107.5 L179.8828,1188.75 L180.0781,1207.5 L180.2735,1188.75 L180.4688,1207.5 L180.6641,1201.25 L180.8594,1201.25 L181.0547,1195 L181.25,1182.5 L181.4453,1176.25 L181.6406,1182.5 L181.8359,1188.75 L182.0313,1145 L182.2266,1195 L182.4219,1188.75 L182.6172,1201.25 L182.8125,1201.25 L183.0078,1182.5 L183.2031,1213.75 L183.3984,1213.75 L183.5938,1201.25 L183.7891,1201.25 L183.9844,1188.75 L184.1797,1201.25 L184.375,1182.5 L184.5703,1188.75 L184.7656,1213.75 L184.9609,1195 L185.1563,1213.75 L185.3516,1126.25 L185.5469,1201.25 L185.7422,1213.75 L185.9375,1163.75 L186.1328,1207.5 L186.3281,1195 L186.5234,1195 L186.7188,1201.25 L186.9141,1195 L187.1094,1138.75 L187.3047,1207.5 L187.5,1182.5 L187.6953,1201.25 L187.8906,1213.75 L188.086,1195 L188.2813,1201.25 L188.4766,1182.5 L188.6719,1188.75 L188.8672,1201.25 L189.0625,1213.75 L189.2578,1145 L189.4531,1213.75 L189.6484,1182.5 L189.8438,1182.5 L190.0391,1170 L190.2344,1201.25 L190.4297,1213.75 L190.625,1207.5 L190.8203,1213.75 L191.0156,1163.75 L191.2109,1188.75 L191.4063,1201.25 L191.6016,1201.25 L191.7969,1188.75 L191.9922,1170 L192.1875,1195 L192.3828,1207.5 L192.5781,1201.25 L192.7734,1176.25 L192.9688,1213.75 L193.1641,1188.75 L193.3594,1182.5 L193.5547,1188.75 L193.75,1201.25 L193.9453,1195 L194.1406,1157.5 L194.3359,1182.5 L194.5313,1195 L194.7266,1195 L194.9219,1213.75 L195.1172,1188.75 L195.3125,1207.5 L195.5078,1201.25 L195.7031,1188.75 L195.8985,1182.5 L196.0938,1195 L196.2891,1213.75 L196.4844,1188.75 L196.6797,1201.25 L196.875,1182.5 L197.0703,1201.25 L197.2656,1213.75 L197.4609,1182.5 L197.6563,1213.75 L197.8516,1213.75 L198.0469,1188.75 L198.2422,1188.75 L198.4375,1182.5 L198.6328,1201.25 L198.8281,1201.25 L199.0234,1213.75 L199.2188,1195 L199.4141,1176.25 L199.6094,1188.75 L199.8047,1213.75 L200,1176.25 L200.1953,1188.75 L200.3906,1213.75 L200.5859,1201.25 L200.7813,1201.25 L200.9766,1188.75 L201.1719,1182.5 L201.3672,1195 L201.5625,1176.25 L201.7578,1132.5 L201.9531,1195 L202.1484,1188.75 L202.3438,1207.5 L202.5391,1163.75 L202.7344,1207.5 L202.9297,1176.25 L203.125,1195 L203.3203,1195 L203.5156,1182.5 L203.711,1213.75 L203.9063,1207.5 L204.1016,1182.5 L204.2969,1163.75 L204.4922,1182.5 L204.6875,1182.5 L204.8828,1195 L205.0781,1182.5 L205.2734,1213.75 L205.4688,1176.25 L205.6641,1157.5 L205.8594,1182.5 L206.0547,1188.75 L206.25,1195 L206.4453,1176.25 L206.6406,1207.5 L206.8359,1163.75 L207.0313,1170 L207.2266,1195 L207.4219,1195 L207.6172,1201.25 L207.8125,1195 L208.0078,1188.75 L208.2031,1170 L208.3984,1188.75 L208.5938,1207.5 L208.7891,1201.25 L208.9844,1188.75 L209.1797,1195 L209.375,1170 L209.5703,1207.5 L209.7656,1207.5 L209.9609,1213.75 L210.1563,1195 L210.3516,1207.5 L210.5469,1170 L210.7422,1213.75 L210.9375,1201.25 L211.1328,1201.25 L211.3281,1207.5 L211.5235,1195 L211.7188,1201.25 L211.9141,1201.25 L212.1094,1157.5 L212.3047,1195 L212.5,1188.75 L212.6953,1201.25 L212.8906,1182.5 L213.0859,1213.75 L213.2813,1195 L213.4766,1213.75 L213.6719,1207.5 L213.8672,1213.75 L214.0625,1207.5 L214.2578,1182.5 L214.4531,1170 L214.6484,1195 L214.8438,1201.25 L215.0391,1201.25 L215.2344,1201.25 L215.4297,1201.25 L215.625,1213.75 L215.8203,1207.5 L216.0156,1182.5 L216.2109,1182.5 L216.4063,1207.5 L216.6016,1195 L216.7969,1201.25 L216.9922,1201.25 L217.1875,1188.75 L217.3828,1151.25 L217.5781,1201.25 L217.7734,1145 L217.9688,1201.25 L218.1641,1182.5 L218.3594,1213.75 L218.5547,1132.5 L218.75,1170 L218.9453,1201.25 L219.1406,1207.5 L219.336,1188.75 L219.5313,1195 L219.7266,1176.25 L219.9219,1207.5 L220.1172,1207.5 L220.3125,1170 L220.5078,1201.25 L220.7031,1207.5 L220.8984,1201.25 L221.0938,1145 L221.2891,1201.25 L221.4844,1213.75 L221.6797,1195 L221.875,1163.75 L222.0703,1213.75 L222.2656,1213.75 L222.4609,1188.75 L222.6563,1163.75 L222.8516,1213.75 L223.0469,1201.25 L223.2422,1213.75 L223.4375,1057.5 L223.6328,1207.5 L223.8281,1201.25 L224.0234,1207.5 L224.2188,1207.5 L224.4141,1195 L224.6094,1163.75 L224.8047,1182.5 L225,1170 L225.1953,1195 L225.3906,1176.25 L225.5859,1213.75 L225.7813,1188.75 L225.9766,1201.25 L226.1719,1176.25 L226.3672,1170 L226.5625,1195 L226.7578,1163.75 L226.9531,1151.25 L227.1485,1170 L227.3438,1213.75 L227.5391,1207.5 L227.7344,1213.75 L227.9297,1207.5 L228.125,1188.75 L228.3203,1207.5 L228.5156,1195 L228.7109,1188.75 L228.9063,1195 L229.1016,1151.25 L229.2969,1138.75 L229.4922,1195 L229.6875,1182.5 L229.8828,1213.75 L230.0781,1188.75 L230.2734,1188.75 L230.4688,1176.25 L230.6641,1195 L230.8594,1157.5 L231.0547,1188.75 L231.25,1195 L231.4453,1188.75 L231.6406,1201.25 L231.8359,1207.5 L232.0313,1201.25 L232.2266,1201.25 L232.4219,1188.75 L232.6172,1213.75 L232.8125,1195 L233.0078,1195 L233.2031,1188.75 L233.3984,1176.25 L233.5938,1176.25 L233.7891,1176.25 L233.9844,1213.75 L234.1797,1207.5 L234.375,1195 L234.5703,1195 L234.7656,1213.75 L234.961,1213.75 L235.1563,1132.5 L235.3516,1201.25 L235.5469,1188.75 L235.7422,1201.25 L235.9375,1213.75 L236.1328,1163.75 L236.3281,1201.25 L236.5234,1188.75 L236.7188,1170 L236.9141,1176.25 L237.1094,1188.75 L237.3047,1201.25 L237.5,1201.25 L237.6953,1188.75 L237.8906,1195 L238.0859,1207.5 L238.2813,1176.25 L238.4766,1195 L238.6719,1201.25 L238.8672,1188.75 L239.0625,1213.75 L239.2578,1201.25 L239.4531,1207.5 L239.6484,1207.5 L239.8438,1195 L240.0391,1213.75 L240.2344,1195 L240.4297,1145 L240.625,1207.5 L240.8203,1182.5 L241.0156,1201.25 L241.2109,1145 L241.4063,1213.75 L241.6016,1201.25 L241.7969,1182.5 L241.9922,1188.75 L242.1875,1213.75 L242.3828,1201.25 L242.5781,1201.25 L242.7735,1207.5 L242.9688,1201.25 L243.1641,1195 L243.3594,1207.5 L243.5547,1182.5 L243.75,1182.5 L243.9453,1188.75 L244.1406,1188.75 L244.3359,1145 L244.5313,1182.5 L244.7266,1195 L244.9219,1213.75 L245.1172,1201.25 L245.3125,1213.75 L245.5078,1195 L245.7031,1201.25 L245.8984,1213.75 L246.0938,1188.75 L246.2891,1188.75 L246.4844,1188.75 L246.6797,1163.75 L246.875,1145 L247.0703,1188.75 L247.2656,1182.5 L247.4609,1207.5 L247.6563,1195 L247.8516,1182.5 L248.0469,1145 L248.2422,1201.25 L248.4375,1182.5 L248.6328,1188.75 L248.8281,1207.5 L249.0234,1207.5 L249.2188,1188.75 L249.4141,1188.75 L249.6094,1170 L249.8047,1213.75 L250,1195 L250.1953,1213.75 L250.3906,1201.25 L250.586,1201.25 L250.7813,1213.75 L250.9766,1182.5 L251.1719,1195 L251.3672,1195 L251.5625,1213.75 L251.7578,1151.25 L251.9531,1213.75 L252.1484,1213.75 L252.3438,1120 L252.5391,1182.5 L252.7344,1188.75 L252.9297,1182.5 L253.125,1176.25 L253.3203,1201.25 L253.5156,1213.75 L253.7109,1207.5 L253.9063,1195 L254.1016,1188.75 L254.2969,1188.75 L254.4922,1201.25 L254.6875,1213.75 L254.8828,1201.25 L255.0781,1195 L255.2734,1182.5 L255.4688,1207.5 L255.6641,1163.75 L255.8594,1188.75 L256.0547,1213.75 L256.25,1176.25 L256.4453,1176.25 L256.6406,1201.25 L256.8359,1201.25 L257.0313,1182.5 L257.2266,1195 L257.4219,1213.75 L257.6172,1182.5 L257.8125,1188.75 L258.0078,1213.75 L258.2031,1157.5 L258.3984,1207.5 L258.5938,1207.5 L258.7891,1201.25 L258.9844,1163.75 L259.1797,1182.5 L259.375,1145 L259.5703,1195 L259.7656,1207.5 L259.9609,1188.75 L260.1563,1207.5 L260.3516,1201.25 L260.5469,1213.75 L260.7422,1188.75 L260.9375,1182.5 L261.1328,1188.75 L261.3281,1213.75 L261.5234,1195 L261.7188,1182.5 L261.9141,1213.75 L262.1094,1188.75 L262.3047,1182.5 L262.5,1201.25 L262.6953,1201.25 L262.8906,1201.25 L263.0859,1213.75 L263.2813,1188.75 L263.4766,1195 L263.6719,1201.25 L263.8672,1201.25 L264.0625,1182.5 L264.2578,1207.5 L264.4531,1207.5 L264.6484,1188.75 L264.8438,1188.75 L265.0391,1213.75 L265.2344,1170 L265.4297,1195 L265.625,1182.5 L265.8203,1188.75 L266.0156,1207.5 L266.2109,1176.25 L266.4063,1188.75 L266.6016,1188.75 L266.7969,1163.75 L266.9922,1213.75 L267.1875,1201.25 L267.3828,1195 L267.5781,1201.25 L267.7734,1201.25 L267.9688,1188.75 L268.1641,1201.25 L268.3594,1188.75 L268.5547,1176.25 L268.75,1182.5 L268.9453,1138.75 L269.1406,1207.5 L269.3359,1201.25 L269.5313,1201.25 L269.7266,1176.25 L269.9219,1170 L270.1172,1182.5 L270.3125,1145 L270.5078,1176.25 L270.7031,1188.75 L270.8984,1182.5 L271.0938,1138.75 L271.2891,1201.25 L271.4844,1195 L271.6797,1201.25 L271.875,1201.25 L272.0703,1182.5 L272.2656,1132.5 L272.4609,1151.25 L272.6563,1213.75 L272.8516,1195 L273.0469,1207.5 L273.2422,1176.25 L273.4375,1195 L273.6328,1195 L273.8281,1213.75 L274.0234,1213.75 L274.2188,1201.25 L274.4141,1132.5 L274.6094,1213.75 L274.8047,1201.25 L275,1195 L275.1953,1195 L275.3906,1163.75 L275.5859,1182.5 L275.7813,1195 L275.9766,1195 L276.1719,1201.25 L276.3672,1201.25 L276.5625,1188.75 L276.7578,1213.75 L276.9531,1182.5 L277.1484,1207.5 L277.3438,1182.5 L277.5391,1145 L277.7344,1207.5 L277.9297,1213.75 L278.125,1195 L278.3203,1213.75 L278.5156,1201.25 L278.7109,1201.25 L278.9063,1201.25 L279.1016,1195 L279.2969,1188.75 L279.4922,1201.25 L279.6875,1213.75 L279.8828,1195 L280.0781,1151.25 L280.2734,1163.75 L280.4688,1195 L280.6641,1188.75 L280.8594,1163.75 L281.0547,1188.75 L281.25,1188.75 L281.4453,1201.25 L281.6406,1195 L281.8359,1195 L282.0313,1201.25 L282.2266,1145 L282.4219,1201.25 L282.6172,1182.5 L282.8125,1163.75 L283.0078,1145 L283.2031,1195 L283.3984,1201.25 L283.5938,1207.5 L283.7891,1020 L283.9844,1201.25 L284.1797,1188.75 L284.375,1188.75 L284.5703,1182.5 L284.7656,1182.5 L284.9609,1188.75 L285.1563,1163.75 L285.3516,1213.75 L285.5469,1195 L285.7422,1213.75 L285.9375,1188.75 L286.1328,1201.25 L286.3281,1201.25 L286.5234,1182.5 L286.7188,1188.75 L286.9141,1207.5 L287.1094,1188.75 L287.3047,1195 L287.5,1157.5 L287.6953,1213.75 L287.8906,1176.25 L288.0859,1201.25 L288.2813,1213.75 L288.4766,1201.25 L288.6719,1188.75 L288.8672,1170 L289.0625,1201.25 L289.2578,1188.75 L289.4531,1163.75 L289.6484,1163.75 L289.8438,1207.5 L290.0391,1195 L290.2344,1188.75 L290.4297,1182.5 L290.625,1195 L290.8203,1213.75 L291.0156,1176.25 L291.2109,1213.75 L291.4063,1157.5 L291.6016,1188.75 L291.7969,1182.5 L291.9922,1213.75 L292.1875,1182.5 L292.3828,1163.75 L292.5781,1201.25 L292.7734,1145 L292.9688,1201.25 L293.1641,1182.5 L293.3594,1188.75 L293.5547,1201.25 L293.75,1176.25 L293.9453,1188.75 L294.1406,1195 L294.3359,1188.75 L294.5313,1195 L294.7266,1170 L294.9219,1213.75 L295.1172,1201.25 L295.3125,1201.25 L295.5078,1201.25 L295.7031,1176.25 L295.8984,1207.5 L296.0938,1176.25 L296.2891,1207.5 L296.4844,1201.25 L296.6797,1188.75 L296.875,1170 L297.0703,1195 L297.2656,1201.25 L297.4609,1182.5 L297.6563,1176.25 L297.8516,1188.75 L298.0469,1163.75 L298.2422,1170 L298.4375,1195 L298.6328,1182.5 L298.8281,1163.75 L299.0234,1145 L299.2188,1207.5 L299.4141,1201.25 L299.6094,1176.25 L299.8047,1195 L300,1188.75 L300.1953,1195 L300.3906,1195 L300.5859,1182.5 L300.7813,1195 L300.9766,1201.25 L301.1719,1195 L301.3672,1188.75 L301.5625,1213.75 L301.7578,1120 L301.9531,1188.75 L302.1484,1170 L302.3438,1188.75 L302.5391,1213.75 L302.7344,1195 L302.9297,1188.75 L303.125,1207.5 L303.3203,1170 L303.5156,1176.25 L303.711,1201.25 L303.9063,1220 L304.1016,1176.25 L304.2969,1201.25 L304.4922,1201.25 L304.6875,1170 L304.8828,1176.25 L305.0781,1201.25 L305.2734,1195 L305.4688,1201.25 L305.6641,1195 L305.8594,1195 L306.0547,1195 L306.25,1170 L306.4453,1213.75 L306.6407,1163.75 L306.8359,1176.25 L307.0313,1188.75 L307.2266,1151.25 L307.4219,1207.5 L307.6172,1195 L307.8125,1213.75 L308.0078,1195 L308.2031,1195 L308.3984,1213.75 L308.5938,1213.75 L308.7891,1195 L308.9844,1188.75 L309.1797,1213.75 L309.375,1163.75 L309.5703,1207.5 L309.7656,1157.5 L309.9609,1176.25 L310.1563,1170 L310.3516,1176.25 L310.5469,1188.75 L310.7422,1195 L310.9375,1195 L311.1328,1213.75 L311.3281,1213.75 L311.5235,1201.25 L311.7188,1213.75 L311.9141,1201.25 L312.1094,1182.5 L312.3047,1188.75 L312.5,1138.75 L312.6953,1201.25 L312.8906,1182.5 L313.0859,1201.25 L313.2813,1201.25 L313.4766,1170 L313.6719,1163.75 L313.8672,1201.25 L314.0625,1201.25 L314.2578,1176.25 L314.4532,1145 L314.6484,1188.75 L314.8438,1195 L315.0391,1176.25 L315.2344,1213.75 L315.4297,1176.25 L315.625,1195 L315.8203,1195 L316.0156,1188.75 L316.2109,1188.75 L316.4063,1201.25 L316.6016,1170 L316.7969,1170 L316.9922,1195 L317.1875,1213.75 L317.3828,1195 L317.5781,1195 L317.7734,1182.5 L317.9688,1163.75 L318.1641,1213.75 L318.3594,1170 L318.5547,1182.5 L318.75,1195 L318.9453,1151.25 L319.1406,1170 L319.336,1213.75 L319.5313,1170 L319.7266,1195 L319.9219,1201.25 L320.1172,1207.5 L320.3125,1182.5 L320.5078,1195 L320.7031,1188.75 L320.8984,1207.5 L321.0938,1188.75 L321.2891,1163.75 L321.4844,1195 L321.6797,1213.75 L321.875,1176.25 L322.0703,1176.25 L322.2657,1220 L322.4609,1170 L322.6563,1201.25 L322.8516,1176.25 L323.0469,1188.75 L323.2422,1182.5 L323.4375,1201.25 L323.6328,1213.75 L323.8281,1138.75 L324.0234,1182.5 L324.2188,1213.75 L324.4141,1207.5 L324.6094,1201.25 L324.8047,1195 L325,1157.5 L325.1953,1188.75 L325.3906,1207.5 L325.5859,1213.75 L325.7813,1188.75 L325.9766,1207.5 L326.1719,1207.5 L326.3672,1182.5 L326.5625,1170 L326.7578,1207.5 L326.9531,1213.75 L327.1485,1195 L327.3438,1195 L327.5391,1188.75 L327.7344,1195 L327.9297,1157.5 L328.125,1182.5 L328.3203,1201.25 L328.5156,1182.5 L328.7109,1201.25 L328.9063,1157.5 L329.1016,1170 L329.2969,1213.75 L329.4922,1188.75 L329.6875,1176.25 L329.8828,1207.5 L330.0782,1195 L330.2734,1201.25 L330.4688,1188.75 L330.6641,1201.25 L330.8594,1213.75 L331.0547,1176.25 L331.25,1182.5 L331.4453,1201.25 L331.6406,1213.75 L331.8359,1176.25 L332.0313,1157.5 L332.2266,1182.5 L332.4219,1188.75 L332.6172,1195 L332.8125,1201.25 L333.0078,1145 L333.2031,1182.5 L333.3984,1176.25 L333.5938,1151.25 L333.7891,1213.75 L333.9844,1188.75 L334.1797,1170 L334.375,1213.75 L334.5703,1188.75 L334.7656,1188.75 L334.961,1207.5 L335.1563,1170 L335.3516,1170 L335.5469,1163.75 L335.7422,1195 L335.9375,1170 L336.1328,1132.5 L336.3281,1170 L336.5234,1157.5 L336.7188,1207.5 L336.9141,1151.25 L337.1094,1195 L337.3047,1207.5 L337.5,1188.75 L337.6953,1188.75 L337.8907,1195 L338.0859,1176.25 L338.2813,1201.25 L338.4766,1213.75 L338.6719,1182.5 L338.8672,1201.25 L339.0625,1188.75 L339.2578,1213.75 L339.4531,1120 L339.6484,1207.5 L339.8438,1195 L340.0391,1182.5 L340.2344,1182.5 L340.4297,1151.25 L340.625,1201.25 L340.8203,1213.75 L341.0156,1151.25 L341.2109,1207.5 L341.4063,1188.75 L341.6016,1201.25 L341.7969,1188.75 L341.9922,1170 L342.1875,1176.25 L342.3828,1188.75 L342.5781,1207.5 L342.7735,1201.25 L342.9688,1195 L343.1641,1213.75 L343.3594,1188.75 L343.5547,1176.25 L343.75,1188.75 L343.9453,1195 L344.1406,1201.25 L344.3359,1201.25 L344.5313,1195 L344.7266,1188.75 L344.9219,1157.5 L345.1172,1195 L345.3125,1195 L345.5078,1182.5 L345.7032,1182.5 L345.8984,1201.25 L346.0938,1188.75 L346.2891,1195 L346.4844,1207.5 L346.6797,1101.25 L346.875,1213.75 L347.0703,1213.75 L347.2656,1195 L347.4609,1188.75 L347.6563,1201.25 L347.8516,1176.25 L348.0469,1207.5 L348.2422,1201.25 L348.4375,1195 L348.6328,1157.5 L348.8281,1201.25 L349.0234,1201.25 L349.2188,1201.25 L349.4141,1176.25 L349.6094,1151.25 L349.8047,1201.25 L350,1207.5 L350.1953,1201.25 L350.3906,1213.75 L350.586,1195 L350.7813,1213.75 L350.9766,1213.75 L351.1719,1207.5 L351.3672,1201.25 L351.5625,1163.75 L351.7578,1151.25 L351.9531,1163.75 L352.1484,1201.25 L352.3438,1163.75 L352.5391,1213.75 L352.7344,1213.75 L352.9297,1195 L353.125,1195 L353.3203,1170 L353.5157,1207.5 L353.7109,1182.5 L353.9063,1195 L354.1016,1213.75 L354.2969,1201.25 L354.4922,1213.75 L354.6875,1195 L354.8828,1145 L355.0781,1113.75 L355.2734,1182.5 L355.4688,1170 L355.6641,1170 L355.8594,1163.75 L356.0547,1157.5 L356.25,1182.5 L356.4453,1176.25 L356.6406,1213.75 L356.8359,1201.25 L357.0313,1188.75 L357.2266,1188.75 L357.4219,1145 L357.6172,1170 L357.8125,1188.75 L358.0078,1213.75 L358.2031,1207.5 L358.3985,1182.5 L358.5938,1182.5 L358.7891,1201.25 L358.9844,1195 L359.1797,1213.75 L359.375,1213.75 L359.5703,1213.75 L359.7656,1188.75 L359.9609,1188.75 L360.1563,1207.5 L360.3516,1213.75 L360.5469,1188.75 L360.7422,1188.75 L360.9375,1157.5 L361.1328,1182.5 L361.3282,1151.25 L361.5234,1188.75 L361.7188,1195 L361.9141,1195 L362.1094,1188.75 L362.3047,1157.5 L362.5,1213.75 L362.6953,1213.75 L362.8906,1207.5 L363.0859,1195 L363.2813,1195 L363.4766,1176.25 L363.6719,1201.25 L363.8672,1145 L364.0625,1195 L364.2578,1151.25 L364.4531,1176.25 L364.6484,1195 L364.8438,1170 L365.0391,1138.75 L365.2344,1163.75 L365.4297,1207.5 L365.625,1195 L365.8203,1195 L366.0156,1176.25 L366.211,1170 L366.4063,1213.75 L366.6016,1188.75 L366.7969,1176.25 L366.9922,1170 L367.1875,1188.75 L367.3828,1213.75 L367.5781,1207.5 L367.7734,1207.5 L367.9688,1213.75 L368.1641,1207.5 L368.3594,1201.25 L368.5547,1213.75 L368.75,1188.75 L368.9453,1176.25 L369.1407,1195 L369.3359,1201.25 L369.5313,1207.5 L369.7266,1213.75 L369.9219,1201.25 L370.1172,1188.75 L370.3125,1213.75 L370.5078,1213.75 L370.7031,1195 L370.8984,1188.75 L371.0938,1195 L371.2891,1213.75 L371.4844,1207.5 L371.6797,1201.25 L371.875,1201.25 L372.0703,1157.5 L372.2656,1201.25 L372.4609,1176.25 L372.6563,1213.75 L372.8516,1213.75 L373.0469,1188.75 L373.2422,1176.25 L373.4375,1195 L373.6328,1170 L373.8281,1170 L374.0235,1188.75 L374.2188,1207.5 L374.4141,1188.75 L374.6094,1182.5 L374.8047,1163.75 L375,1195 L375.1953,1188.75 L375.3906,1182.5 L375.5859,1170 L375.7813,1170 L375.9766,1201.25 L376.1719,1201.25 L376.3672,1170 L376.5625,1157.5 L376.7578,1213.75 L376.9532,1188.75 L377.1484,1188.75 L377.3438,1201.25 L377.5391,1188.75 L377.7344,1201.25 L377.9297,1213.75 L378.125,1188.75 L378.3203,1188.75 L378.5156,1213.75 L378.7109,1195 L378.9063,1182.5 L379.1016,1182.5 L379.2969,1188.75 L379.4922,1195 L379.6875,1170 L379.8828,1195 L380.0781,1151.25 L380.2734,1182.5 L380.4688,1163.75 L380.6641,1182.5 L380.8594,1207.5 L381.0547,1213.75 L381.25,1213.75 L381.4453,1182.5 L381.6406,1207.5 L381.836,1207.5 L382.0313,1201.25 L382.2266,1201.25 L382.4219,1201.25 L382.6172,1188.75 L382.8125,1182.5 L383.0078,1151.25 L383.2031,1213.75 L383.3984,1213.75 L383.5938,1182.5 L383.7891,1213.75 L383.9844,1195 L384.1797,1201.25 L384.375,1201.25 L384.5703,1188.75 L384.7657,1195 L384.9609,1207.5 L385.1563,1182.5 L385.3516,1163.75 L385.5469,1195 L385.7422,1176.25 L385.9375,1207.5 L386.1328,1201.25 L386.3281,1201.25 L386.5234,1213.75 L386.7188,1182.5 L386.9141,1201.25 L387.1094,1151.25 L387.3047,1207.5 L387.5,1213.75 L387.6953,1170 L387.8906,1195 L388.0859,1151.25 L388.2813,1195 L388.4766,1170 L388.6719,1188.75 L388.8672,1145 L389.0625,1132.5 L389.2578,1201.25 L389.4531,1195 L389.6485,1182.5 L389.8438,1213.75 L390.0391,1207.5 L390.2344,1213.75 L390.4297,1163.75 L390.625,1138.75 L390.8203,1213.75 L391.0156,1207.5 L391.2109,1170 L391.4063,1201.25 L391.6016,1188.75 L391.7969,1201.25 L391.9922,1170 L392.1875,1201.25 L392.3828,1213.75 L392.5782,1188.75 L392.7734,1207.5 L392.9688,1188.75 L393.1641,1188.75 L393.3594,1182.5 L393.5547,1138.75 L393.75,1213.75 L393.9453,1195 L394.1406,1182.5 L394.3359,1170 L394.5313,1145 L394.7266,1138.75 L394.9219,1182.5 L395.1172,1170 L395.3125,1213.75 L395.5078,1188.75 L395.7031,1213.75 L395.8984,1188.75 L396.0938,1157.5 L396.2891,1195 L396.4844,1188.75 L396.6797,1176.25 L396.875,1176.25 L397.0703,1213.75 L397.2656,1170 L397.461,1213.75 L397.6563,1195 L397.8516,1188.75 L398.0469,1207.5 L398.2422,1195 L398.4375,1157.5 L398.6328,1163.75 L398.8281,1188.75 L399.0234,1195 L399.2188,1195 L399.4141,1195 L399.6094,1201.25 L399.8047,1182.5 L400,1201.25 L400.1953,1207.5 L400.3907,1195 L400.5859,1213.75 L400.7813,1170 L400.9766,1170 L401.1719,1095 L401.3672,1207.5 L401.5625,1195 L401.7578,1195 L401.9531,1170 L402.1484,1201.25 L402.3438,1201.25 L402.5391,1213.75 L402.7344,1213.75 L402.9297,1182.5 L403.125,1195 L403.3203,1201.25 L403.5156,1182.5 L403.7109,1182.5 L403.9063,1195 L404.1016,1188.75 L404.2969,1195 L404.4922,1195 L404.6875,1201.25 L404.8828,1213.75 L405.0781,1213.75 L405.2735,1188.75 L405.4688,1170 L405.6641,1163.75 L405.8594,1213.75 L406.0547,1182.5 L406.25,1195 L406.4453,1188.75 L406.6406,1176.25 L406.8359,1195 L407.0313,1213.75 L407.2266,1182.5 L407.4219,1213.75 L407.6172,1195 L407.8125,1201.25 L408.0078,1188.75 L408.2032,1157.5 L408.3984,1213.75 L408.5938,1195 L408.7891,1195 L408.9844,1195 L409.1797,1213.75 L409.375,1213.75 L409.5703,1201.25 L409.7656,1201.25 L409.9609,1213.75 L410.1563,1145 L410.3516,1213.75 L410.5469,1201.25 L410.7422,1201.25 L410.9375,1182.5 L411.1328,1195 L411.3281,1182.5 L411.5234,1207.5 L411.7188,1213.75 L411.9141,1188.75 L412.1094,1176.25 L412.3047,1182.5 L412.5,1182.5 L412.6953,1195 L412.8906,1195 L413.086,1195 L413.2813,1157.5 L413.4766,1213.75 L413.6719,1182.5 L413.8672,1195 L414.0625,1195 L414.2578,1195 L414.4531,1176.25 L414.6484,1201.25 L414.8438,1201.25 L415.0391,1207.5 L415.2344,1201.25 L415.4297,1201.25 L415.625,1182.5 L415.8203,1182.5 L416.0157,1213.75 L416.2109,1207.5 L416.4063,1157.5 L416.6016,1207.5 L416.7969,1182.5 L416.9922,1213.75 L417.1875,1170 L417.3828,1182.5 L417.5781,1182.5 L417.7734,1213.75 L417.9688,1213.75 L418.1641,1195 L418.3594,1213.75 L418.5547,1195 L418.75,1182.5 L418.9453,1195 L419.1406,1176.25 L419.3359,1188.75 L419.5313,1201.25 L419.7266,1188.75 L419.9219,1145 L420.1172,1207.5 L420.3125,1157.5 L420.5078,1195 L420.7031,1182.5 L420.8985,1195 L421.0938,1195 L421.2891,1195 L421.4844,1195 L421.6797,1170 L421.875,1170 L422.0703,1188.75 L422.2656,1213.75 L422.4609,1176.25 L422.6563,1213.75 L422.8516,1151.25 L423.0469,1201.25 L423.2422,1188.75 L423.4375,1195 L423.6328,1182.5 L423.8282,1182.5 L424.0234,1176.25 L424.2188,1188.75 L424.4141,1201.25 L424.6094,1195 L424.8047,1195 L425,1213.75 L425.1953,1176.25 L425.3906,1170 L425.5859,1151.25 L425.7813,1188.75 L425.9766,1151.25 L426.1719,1157.5 L426.3672,1213.75 L426.5625,1176.25 L426.7578,1182.5 L426.9531,1182.5 L427.1484,1188.75 L427.3438,1201.25 L427.5391,1195 L427.7344,1207.5 L427.9297,1213.75 L428.125,1201.25 L428.3203,1176.25 L428.5156,1195 L428.711,1182.5 L428.9063,1201.25 L429.1016,1195 L429.2969,1188.75 L429.4922,1201.25 L429.6875,1201.25 L429.8828,1213.75 L430.0781,1213.75 L430.2734,1195 L430.4688,1182.5 L430.6641,1188.75 L430.8594,1201.25 L431.0547,1163.75 L431.25,1207.5 L431.4453,1201.25 L431.6407,1195 L431.8359,1188.75 L432.0313,1207.5 L432.2266,1176.25 L432.4219,1170 L432.6172,1207.5 L432.8125,1195 L433.0078,1213.75 L433.2031,1201.25 L433.3984,1213.75 L433.5938,1170 L433.7891,1201.25 L433.9844,1201.25 L434.1797,1163.75 L434.375,1163.75 L434.5703,1176.25 L434.7656,1170 L434.9609,1195 L435.1563,1163.75 L435.3516,1201.25 L435.5469,1201.25 L435.7422,1207.5 L435.9375,1195 L436.1328,1195 L436.3281,1213.75 L436.5235,1188.75 L436.7188,1213.75 L436.9141,1201.25 L437.1094,1188.75 L437.3047,1201.25 L437.5,1182.5 L437.6953,1138.75 L437.8906,1188.75 L438.0859,1195 L438.2813,1213.75 L438.4766,1188.75 L438.6719,1195 L438.8672,1188.75 L439.0625,1157.5 L439.2578,1182.5 L439.4532,1220 L439.6484,1176.25 L439.8438,1201.25 L440.0391,1170 L440.2344,1195 L440.4297,1213.75 L440.625,1207.5 L440.8203,1157.5 L441.0156,1170 L441.2109,1213.75 L441.4063,1201.25 L441.6016,1182.5 L441.7969,1163.75 L441.9922,1188.75 L442.1875,1163.75 L442.3828,1170 L442.5781,1188.75 L442.7734,1195 L442.9688,1213.75 L443.1641,1188.75 L443.3594,1157.5 L443.5547,1188.75 L443.75,1195 L443.9453,1182.5 L444.1406,1201.25 L444.336,1207.5 L444.5313,1207.5 L444.7266,1182.5 L444.9219,1213.75 " stroke="blue" fill="none" />
<text x="50" y="1270" font-family="Arial" font-size="12" fill="black">Actor Loss</text>
<text x="50" y="1285" font-family="Arial" font-size="10" fill="black">0.7826623</text>
<text x="50" y="1500" font-family="Arial" font-size="10" fill="black">0.4403304</text>
<path d="M50,1327.437 L75,1490 L100,1290 " stroke="blue" fill="none" />
<text x="50" y="1540" font-family="Arial" font-size="12" fill="black">Critic Loss</text>
<text x="50" y="1555" font-family="Arial" font-size="10" fill="black">4.660112</text>
<text x="50" y="1770" font-family="Arial" font-size="10" fill="black">0.1469504</text>
<path d="M50,1737.873 L75,1560 L100,1760 " stroke="blue" fill="none" />
<text x="50" y="1810" font-family="Arial" font-size="12" fill="black">Entropy</text>
<text x="50" y="1825" font-family="Arial" font-size="10" fill="black">1.15905</text>
<text x="50" y="2040" font-family="Arial" font-size="10" fill="black">1.078125</text>
<path d="M50,2030 L75,1831.55 L100,1830 " stroke="blue" fill="none" />
<text x="750" y="710" font-family="Arial" font-size="12" fill="black">Simplified</text>
<text x="750" y="725" font-family="Arial" font-size="10" fill="black">0.06968119</text>
<text x="750" y="940" font-family="Arial" font-size="10" fill="black">-0.010567</text>
<path d="M753.5156,907.5118 L757.2266,889.8121 L760.9375,912.6313 L764.6484,908.8144 L768.3594,907.8248 L772.0703,903.2362 L775.7813,922.1904 L779.4922,911.7404 L783.2031,917.2679 L786.9141,914.7328 L790.625,928.4758 L794.3359,907.9418 L798.0469,930 L801.7578,905.7604 L805.4688,906.1955 L809.1797,903.9304 L812.8906,904.2691 L816.6016,919.7892 L820.3125,913.3755 L824.0234,912.8522 L827.7344,903.8076 L831.4453,901.4776 L835.1563,910.034 L838.8672,913.6947 L842.5781,886.1212 L846.2891,927.0598 L850,922.4031 L853.7109,914.4579 L857.4219,893.4586 L861.1328,913.8472 L864.8438,921.035 L868.5547,901.7758 L872.2656,888.0583 L875.9766,881.4523 L879.6875,886.0341 L883.3984,887.6656 L887.1094,888.4654 L890.8203,905.103 L894.5313,896.7574 L898.2422,897.0201 L901.9531,898.4241 L905.6641,879.626 L909.375,893.6703 L913.0859,888.8977 L916.7969,884.4244 L920.5078,896.1819 L924.2188,898.8506 L927.9297,886.2192 L931.6406,893.1328 L935.3516,897.9163 L939.0625,889.5001 L942.7734,892.1599 L946.4844,905.8058 L950.1953,907.3835 L953.9063,892.2596 L957.6172,900.6437 L961.3281,885.7444 L965.0391,895.434 L968.75,887.296 L972.4609,891.7308 L976.1719,892.5547 L979.8828,895.5357 L983.5938,882.6194 L987.3047,730 L991.0156,882.9269 L994.7266,876.3031 L998.4375,879.2062 L1002.148,872.7897 L1005.859,889.8906 L1009.57,884.1927 L1013.281,887.7648 L1016.992,882.1118 L1020.703,883.7177 L1024.414,895.8723 L1028.125,874.799 L1031.836,873.2173 L1035.547,874.7875 L1039.258,871.0009 L1042.969,873.3293 L1046.68,893.7233 L1050.391,883.7746 L1054.102,899.2535 L1057.813,873.9551 L1061.523,874.7963 L1065.234,898.5999 L1068.945,878.803 L1072.656,875.9799 L1076.367,884.4924 L1080.078,892.3409 L1083.789,897.4918 L1087.5,880.2643 L1091.211,879.1988 L1094.922,871.3301 L1098.633,876.3289 L1102.344,876.5992 L1106.055,869.3753 L1109.766,883.8185 L1113.477,885.5709 L1117.188,872.1044 L1120.898,882.0441 L1124.609,871.3184 L1128.32,873.8281 L1132.031,879.3569 L1135.742,872.3968 L1139.453,869.3275 L1143.164,868.4922 L1144.922,867.7675 " stroke="blue" fill="none" />
<text x="750" y="980" font-family="Arial" font-size="12" fill="black">Simplified</text>
<text x="750" y="995" font-family="Arial" font-size="10" fill="black">8.842105</text>
<text x="750" y="1210" font-family="Arial" font-size="10" fill="black">5.31579</text>
<path d="M753.5156,1167.164 L757.2266,1074.627 L760.9375,1137.313 L764.6484,1071.642 L768.3594,1122.388 L772.0703,1092.537 L775.7813,1131.343 L779.4922,1011.94 L783.2031,1107.463 L786.9141,1149.254 L790.625,1134.328 L794.3359,1176.119 L798.0469,1086.567 L801.7578,1065.672 L805.4688,1131.343 L809.1797,1131.343 L812.8906,1098.507 L816.6016,1122.388 L820.3125,1074.627 L824.0234,1068.657 L827.7344,1125.373 L831.4453,1155.224 L835.1563,1092.537 L838.8672,1083.582 L842.5781,1065.672 L846.2891,1131.343 L850,1110.448 L853.7109,1116.418 L857.4219,1077.612 L861.1328,1056.716 L864.8438,1131.343 L868.5547,1065.672 L872.2656,1188.06 L875.9766,1083.582 L879.6875,1029.851 L883.3984,1140.298 L887.1094,1122.388 L890.8203,1167.164 L894.5313,1110.448 L898.2422,1188.06 L901.9531,1122.388 L905.6641,1098.507 L909.375,1101.493 L913.0859,1188.06 L916.7969,1197.015 L920.5078,1083.582 L924.2188,1119.403 L927.9297,1089.552 L931.6406,1080.597 L935.3516,1155.224 L939.0625,1140.298 L942.7734,1164.179 L946.4844,1146.269 L950.1953,1095.522 L953.9063,1134.328 L957.6172,1146.269 L961.3281,1137.313 L965.0391,1185.075 L968.75,1116.418 L972.4609,1002.985 L976.1719,1152.239 L979.8828,1182.09 L983.5938,1050.746 L987.3047,1059.702 L991.0156,1110.448 L994.7266,1080.597 L998.4375,1119.403 L1002.148,1065.672 L1005.859,1146.269 L1009.57,1140.298 L1013.281,1110.448 L1016.992,1068.657 L1020.703,1104.478 L1024.414,1119.403 L1028.125,1137.313 L1031.836,1134.328 L1035.547,1041.791 L1039.258,1080.597 L1042.969,1077.612 L1046.68,1089.552 L1050.391,1161.194 L1054.102,1140.298 L1057.813,1000 L1061.523,1149.254 L1065.234,1050.746 L1068.945,1164.179 L1072.656,1200 L1076.367,1074.627 L1080.078,1113.433 L1083.789,1164.179 L1087.5,1152.239 L1091.211,1041.791 L1094.922,1062.687 L1098.633,1098.507 L1102.344,1101.493 L1106.055,1155.224 L1109.766,1176.119 L1113.477,1131.343 L1117.188,1146.269 L1120.898,1116.418 L1124.609,1101.493 L1128.32,1083.582 L1132.031,1170.149 L1135.742,1107.463 L1139.453,1134.328 L1143.164,1092.537 L1144.922,1142.289 " stroke="blue" fill="none" />
</svg>
