<svg width="2000" height="2500" xmlns="http://www.w3.org/2000/svg">
<text x="10" y="20" font-family="Arial" font-size="26" fill="black"> [<tspan font-weight="bold" fill="blue">Crawler</tspan>] Training Session</text>
<text x="10" y="50" font-family="Arial" font-size="16" fill="black">[Statistics]</text>
<text x="50" y="70" font-family="Arial" font-size="12" fill="black">Started at: 1:29:50 PM, Tuesday, May 14, 2024</text>
<text x="50" y="90" font-family="Arial" font-size="12" fill="black">Finished at: 1:31:07 PM, Tuesday, May 14, 2024</text>
<text x="50" y="110" font-family="Arial" font-size="12" fill="black">Training Session Time: 0 hrs : 1 min : 15 sec</text>
<text x="50" y="130" font-family="Arial" font-size="12" fill="black">Inference Time: 0 hrs : 51 min : 26 sec        [Device: CPU]</text>
<text x="50" y="150" font-family="Arial" font-size="12" fill="black">Update Time: 0 hrs : 0 min : 28 sec        [Per iteration: 0 hrs : 0 min : 9.433 sec]        [Device: GPU]</text>
<text x="50" y="170" font-family="Arial" font-size="12" fill="black">Episode Count: 335</text>
<text x="50" y="190" font-family="Arial" font-size="12" fill="black">Inference Steps: 60000</text>
<text x="50" y="210" font-family="Arial" font-size="12" fill="black">Iterations: 3</text>
<text x="50" y="230" font-family="Arial" font-size="12" fill="black">Parallel Agents: 64</text>
<text x="50" y="250" font-family="Arial" font-size="12" fill="black">Timescale: 1</text>
<text x="50" y="270" font-family="Arial" font-size="12" fill="black">Trainer: PPO</text>
<text x="10" y="320" font-family="Arial" font-size="16" fill="black">[Hyperparameters]</text>
<text x="50" y="340" font-family="Arial" font-size="12" fill="black">Buffer Size: 20000        [Batch Size: 1000       (x20)]</text>
<text x="50" y="360" font-family="Arial" font-size="12" fill="black">Num Epoch: 7</text>
<text x="50" y="380" font-family="Arial" font-size="12" fill="black">Time Horizon: 256</text>
<text x="50" y="400" font-family="Arial" font-size="12" fill="black">Gradient Cliping by Norm: 0.5</text>
<text x="50" y="420" font-family="Arial" font-size="12" fill="black">Learning Rate Schedule: True    </text>
<text x="10" y="470" font-family="Arial" font-size="16" fill="black">[Behaviour]</text>
<text x="50" y="490" font-family="Arial" font-size="12" fill="black">Space Size: 94</text>
<text x="50" y="510" font-family="Arial" font-size="12" fill="black">Continuous Actions: 20 [Standard Deviation: FixedStandardDeviation]     [Value: 1.5]</text>
<text x="50" y="530" font-family="Arial" font-size="12" fill="black">Discrete Actions: 0</text>
<text x="50" y="550" font-family="Arial" font-size="12" fill="black">TargetFPS: 100 (physics update rate)</text>
<text x="50" y="570" font-family="Arial" font-size="12" fill="black">Observations Normalization: True</text>
<text x="10" y="620" font-family="Arial" font-size="16" fill="black">[Decision Requester]</text>
<text x="50" y="640" font-family="Arial" font-size="12" fill="black">Max Step: 10000</text>
<text x="50" y="660" font-family="Arial" font-size="12" fill="black">Decision Period: 5      [Actions Between Decisions: True]</text>
<text x="10" y="710" font-family="Arial" font-size="16" fill="black">[Graphs]</text>
<text x="50" y="730" font-family="Arial" font-size="12" fill="black">Episode Reward (335)</text>
<text x="50" y="745" font-family="Arial" font-size="10" fill="black">5.964588</text>
<text x="50" y="960" font-family="Arial" font-size="10" fill="black">0.08441601</text>
<path d="M50,947.1157 L50.78125,947.2335 L51.5625,946.2429 L52.34375,946.158 L53.125,941.1754 L53.90625,941.9015 L54.6875,942.9 L55.46875,945.9913 L56.25,931.0574 L57.03125,936.8658 L57.8125,933.9561 L58.59375,936.8021 L59.375,935.92 L60.15625,944.6261 L60.9375,930.6821 L61.71875,932.9151 L62.5,933.1955 L63.28125,941.5596 L64.0625,924.9221 L64.84375,939.962 L65.625,930.8558 L66.40625,935.2283 L67.1875,933.788 L67.96875,931.0205 L68.75,929.7914 L69.53125,929.5452 L70.3125,934.1292 L71.09375,926.259 L71.875,933.02 L72.65625,928.544 L73.4375,939.9667 L74.21875,925.3018 L75,932.6383 L75.78125,924.5134 L76.5625,920.8369 L77.34375,944.6484 L78.125,922.9128 L78.90625,942.6095 L79.6875,918.0117 L80.46875,940.2438 L81.25,921.0304 L82.03125,918.84 L82.8125,911.9052 L83.59375,945.1622 L84.375,916.4396 L85.15625,948.5246 L85.9375,926.6034 L86.71875,931.2891 L87.5,915.6735 L88.28125,905.5438 L89.0625,930.4271 L89.84375,909.37 L90.625,914.5248 L91.40625,945.5303 L92.1875,936.9917 L92.96875,936.7933 L93.75,899.7197 L94.53125,937.3362 L95.3125,906.9977 L96.09375,922.3528 L96.875,930.7972 L97.65625,933.9608 L98.4375,933.1929 L99.21875,924.5021 L100,942.8078 L100.7813,943.3292 L101.5625,901.2253 L102.3438,941.3487 L103.125,925.9361 L103.9063,911.9999 L104.6875,905.2883 L105.4688,926.2343 L106.25,932.2009 L107.0313,929.5414 L107.8125,922.1776 L108.5938,939.7667 L109.375,899.0927 L110.1563,894.3143 L110.9375,944.8859 L111.7188,936.8741 L112.5,929.3275 L113.2813,880.4462 L114.0625,889.3826 L114.8438,923.8224 L115.625,893.6735 L116.4063,938.0418 L117.1875,938.2549 L117.9688,948.1141 L118.75,920.7915 L119.5313,892.4512 L120.3125,910.2793 L121.0938,938.8303 L121.875,900.0903 L122.6563,945.5238 L123.4375,908.8143 L124.2188,943.6282 L125,892.2337 L125.7813,945.6104 L126.5625,876.6492 L127.3438,933.9395 L128.125,929.8002 L128.9063,877.8852 L129.6875,883.5299 L130.4688,879.2474 L131.25,940.3147 L132.0313,939.7651 L132.8125,893.5256 L133.5938,940.2089 L134.375,880.9212 L135.1563,879.7114 L135.9375,944.397 L136.7188,936.1619 L137.5,936.9399 L138.2813,906.2078 L139.0625,936.0535 L139.8438,938.83 L140.625,893.6849 L141.4063,890.0389 L142.1875,881.1605 L142.9688,941.2476 L143.75,931.5746 L144.5313,918.3886 L145.3125,911.9637 L146.0938,943.9581 L146.875,891.5344 L147.6563,868.0024 L148.4375,907.1449 L149.2188,882.3745 L150,883.5995 L150.7813,911.4399 L151.5625,925.3348 L152.3438,871.0787 L153.125,928.9157 L153.9063,909.5751 L154.6875,905.0122 L155.4688,937.1367 L156.25,923.0848 L157.0313,939.3881 L157.8125,939.5228 L158.5938,904.5402 L159.375,855.7481 L160.1563,937.8235 L160.9375,938.6945 L161.7188,943.4946 L162.5,916.5455 L163.2813,939.0211 L164.0625,877.1373 L164.8438,919.6099 L165.625,937.4244 L166.4063,892.9828 L167.1875,936.9346 L167.9688,889.2594 L168.75,924.0005 L169.5313,894.4193 L170.3125,904.0522 L171.0938,916.5264 L171.875,926.6439 L172.6563,910.3449 L173.4375,948.2728 L174.2188,929.8933 L175,930.8043 L175.7813,916.2104 L176.5625,897.4163 L177.3438,839.8956 L178.125,944.178 L178.9063,863.2474 L179.6875,923.1525 L180.4688,919.9095 L181.25,927.9944 L182.0313,946.2992 L182.8125,912.1271 L183.5938,930.6156 L184.375,938.3397 L185.1563,850.2078 L185.9375,943.022 L186.7188,850.7357 L187.5,944.2141 L188.2813,944.1835 L189.0625,942.8557 L189.8438,930.5384 L190.625,883.1547 L191.4063,940.1845 L192.1875,903.9338 L192.9688,925.587 L193.75,927.8975 L194.5313,935.7645 L195.3125,941.4388 L196.0938,864.6177 L196.875,928.6737 L197.6563,874.7545 L198.4375,920.9705 L199.2188,942.2746 L200,940.5548 L200.7813,861.8644 L201.5625,937.3864 L202.3438,915.7209 L203.125,934.3201 L203.9063,870.6997 L204.6875,942.502 L205.4688,944.0103 L206.25,946.2795 L207.0313,886.1166 L207.8125,871.7745 L208.5938,924.9573 L209.375,915.704 L210.1563,867.6129 L210.9375,905.3768 L211.7188,878.6277 L212.5,909.3768 L213.2813,890.0159 L214.0625,925.4144 L214.8438,810.931 L215.625,925.2175 L216.4063,931.9165 L217.1875,929.1533 L217.9688,916.1829 L218.75,875.1218 L219.5313,931.3926 L220.3125,857.9791 L221.0938,941.5741 L221.875,922.6151 L222.6563,900.3576 L223.4375,852.813 L224.2188,932.0021 L225,945.243 L225.7813,852.4688 L226.5625,950 L227.3438,934.3156 L228.125,912.0984 L228.9063,903.923 L229.6875,947.9624 L230.4688,871.1829 L231.25,932.2169 L232.0313,876.566 L232.8125,920.4453 L233.5938,922.4257 L234.375,942.8414 L235.1563,925.6424 L235.9375,923.2028 L236.7188,945.9888 L237.5,934.0732 L238.2813,938.9814 L239.0625,946.1299 L239.8438,932.0261 L240.625,867.2867 L241.4063,946.6528 L242.1875,936.6923 L242.9688,938.9241 L243.75,923.1581 L244.5313,893.7693 L245.3125,894.6526 L246.0938,902.4906 L246.875,899.6093 L247.6563,938.0916 L248.4375,934.2215 L249.2188,917.75 L250,935.5475 L250.7813,935.2817 L251.5625,919.3506 L252.3438,861.7237 L253.125,938.8284 L253.9063,941.2123 L254.6875,933.4594 L255.4688,904.3401 L256.25,858.3467 L257.0313,929.8679 L257.8125,933.493 L258.5938,934.7817 L259.375,927.954 L260.1563,916.0615 L260.9375,880.1566 L261.7188,936.7686 L262.5,945.4124 L263.2813,941.1638 L264.0625,910.9391 L264.8438,926.5028 L265.625,902.252 L266.4063,927.5386 L267.1875,932.3458 L267.9688,832.7373 L268.75,921.0496 L269.5313,750 L270.3125,863.325 L271.0938,944.0497 L271.875,945.0746 L272.6563,932.8572 L273.4375,926.6475 L274.2188,809.5392 L275,890.4604 L275.7813,940.5278 L276.5625,946.6725 L277.3438,935.0876 L278.125,886.6581 L278.9063,908.1361 L279.6875,935.327 L280.4688,935.0199 L281.25,924.5772 L282.0313,874.3203 L282.8125,934.0399 L283.5938,927.8873 L284.375,934.8098 L285.1563,937.6144 L285.9375,922.2219 L286.7188,909.8263 L287.5,826.6188 L288.2813,866.2259 L289.0625,887.6313 L289.8438,895.9567 L290.625,907.3564 L291.4063,891.257 L292.1875,922.211 L292.9688,857.052 L293.75,942.0497 L294.5313,939.201 L295.3125,940.4191 L296.0938,923.7254 L296.875,864.5267 L297.6563,942.5092 L298.4375,912.6954 L299.2188,829.114 L300,895.2792 L300.7813,926.0916 L301.5625,927.9188 L302.3438,934.3177 L303.125,932.0153 L303.9063,944.2479 L304.6875,841.2329 L305.4688,904.1977 L306.25,889.9165 L307.0313,903.2568 L307.8125,916.8719 L308.5938,930.4189 L309.375,876.827 L310.1563,883.6835 L310.9375,811.4854 " stroke="blue" fill="none" />
<text x="50" y="1000" font-family="Arial" font-size="12" fill="black">Episode Length (335)</text>
<text x="50" y="1015" font-family="Arial" font-size="10" fill="black">822</text>
<text x="50" y="1230" font-family="Arial" font-size="10" fill="black">13</text>
<path d="M50,1218.269 L50.78125,1217.528 L51.5625,1216.786 L52.34375,1216.786 L53.125,1213.82 L53.90625,1213.82 L54.6875,1213.078 L55.46875,1212.336 L56.25,1208.628 L57.03125,1207.886 L57.8125,1207.639 L58.59375,1207.639 L59.375,1206.156 L60.15625,1216.292 L60.9375,1204.425 L61.71875,1204.178 L62.5,1203.684 L63.28125,1212.831 L64.0625,1202.448 L64.84375,1207.392 L65.625,1200.964 L66.40625,1199.975 L67.1875,1199.728 L67.96875,1198.986 L68.75,1198.739 L69.53125,1198.492 L70.3125,1198.492 L71.09375,1198.245 L71.875,1203.189 L72.65625,1197.009 L73.4375,1209.864 L74.21875,1195.278 L75,1194.042 L75.78125,1193.053 L76.5625,1192.559 L77.34375,1216.292 L78.125,1192.064 L78.90625,1214.067 L79.6875,1190.581 L80.46875,1212.831 L81.25,1188.109 L82.03125,1187.367 L82.8125,1186.873 L83.59375,1217.281 L84.375,1183.906 L85.15625,1219.011 L85.9375,1196.761 L86.71875,1201.706 L87.5,1180.692 L88.28125,1180.198 L89.0625,1197.75 L89.84375,1178.714 L90.625,1176.737 L91.40625,1217.033 L92.1875,1201.706 L92.96875,1206.156 L93.75,1175.006 L94.53125,1205.661 L95.3125,1174.265 L96.09375,1193.548 L96.875,1189.098 L97.65625,1207.886 L98.4375,1200.717 L99.21875,1195.031 L100,1213.325 L100.7813,1213.572 L101.5625,1169.815 L102.3438,1213.325 L103.125,1193.548 L103.9063,1177.973 L104.6875,1167.59 L105.4688,1199.728 L106.25,1205.167 L107.0313,1197.256 L107.8125,1184.153 L108.5938,1212.089 L109.375,1163.881 L110.1563,1162.398 L110.9375,1216.292 L111.7188,1204.92 L112.5,1199.728 L113.2813,1159.184 L114.0625,1158.937 L114.8438,1188.85 L115.625,1158.69 L116.4063,1211.1 L117.1875,1207.886 L117.9688,1219.011 L118.75,1190.087 L119.5313,1154.487 L120.3125,1179.209 L121.0938,1210.606 L121.875,1153.498 L122.6563,1217.281 L123.4375,1174.512 L124.2188,1214.314 L125,1156.465 L125.7813,1216.786 L126.5625,1150.779 L127.3438,1204.92 L128.125,1201.953 L128.9063,1149.79 L129.6875,1148.554 L130.4688,1148.059 L131.25,1211.842 L132.0313,1209.122 L132.8125,1153.498 L133.5938,1212.583 L134.375,1142.373 L135.1563,1141.632 L135.9375,1214.808 L136.7188,1205.909 L137.5,1209.617 L138.2813,1173.77 L139.0625,1205.909 L139.8438,1212.089 L140.625,1163.387 L141.4063,1153.745 L142.1875,1135.204 L142.9688,1211.595 L143.75,1195.278 L144.5313,1185.884 L145.3125,1184.401 L146.0938,1213.078 L146.875,1156.465 L147.6563,1132.979 L148.4375,1180.939 L149.2188,1150.779 L150,1146.082 L150.7813,1176.242 L151.5625,1195.773 L152.3438,1134.462 L153.125,1202.2 L153.9063,1176.984 L154.6875,1169.567 L155.4688,1208.875 L156.25,1196.267 L157.0313,1211.347 L157.8125,1211.842 L158.5938,1176.984 L159.375,1121.36 L160.1563,1210.853 L160.9375,1209.617 L161.7188,1215.797 L162.5,1191.075 L163.2813,1208.628 L164.0625,1141.384 L164.8438,1189.592 L165.625,1201.459 L166.4063,1161.656 L167.1875,1206.65 L167.9688,1168.084 L168.75,1199.481 L169.5313,1166.601 L170.3125,1180.939 L171.0938,1189.592 L171.875,1196.267 L172.6563,1179.703 L173.4375,1208.875 L174.2188,1205.414 L175,1202.448 L175.7813,1183.906 L176.5625,1163.881 L177.3438,1103.313 L178.125,1214.808 L178.9063,1132.237 L179.6875,1195.278 L180.4688,1188.603 L181.25,1198.739 L182.0313,1216.539 L182.8125,1180.198 L183.5938,1199.234 L184.375,1205.909 L185.1563,1125.81 L185.9375,1214.067 L186.7188,1115.921 L187.5,1215.797 L188.2813,1215.303 L189.0625,1211.1 L189.8438,1198.492 L190.625,1140.396 L191.4063,1212.583 L192.1875,1162.892 L192.9688,1191.323 L193.75,1193.795 L194.5313,1205.661 L195.3125,1211.595 L196.0938,1137.429 L196.875,1202.2 L197.6563,1134.709 L198.4375,1196.514 L199.2188,1213.572 L200,1204.92 L200.7813,1126.304 L201.5625,1208.875 L202.3438,1179.951 L203.125,1207.145 L203.9063,1146.823 L204.6875,1209.122 L205.4688,1216.292 L206.25,1217.528 L207.0313,1147.318 L207.8125,1124.574 L208.5938,1195.278 L209.375,1178.467 L210.1563,1135.946 L210.9375,1174.512 L211.7188,1141.632 L212.5,1179.209 L213.2813,1157.206 L214.0625,1193.053 L214.8438,1068.949 L215.625,1193.795 L216.4063,1202.2 L217.1875,1195.031 L217.9688,1186.378 L218.75,1153.251 L219.5313,1203.436 L220.3125,1116.663 L221.0938,1212.831 L221.875,1179.456 L222.6563,1155.229 L223.4375,1119.382 L224.2188,1200.47 L225,1216.786 L225.7813,1115.426 L226.5625,1220 L227.3438,1205.167 L228.125,1170.062 L228.9063,1172.781 L229.6875,1218.022 L230.4688,1134.957 L231.25,1204.672 L232.0313,1135.451 L232.8125,1190.087 L233.5938,1188.603 L234.375,1212.089 L235.1563,1192.312 L235.9375,1192.064 L236.7188,1214.808 L237.5,1204.178 L238.2813,1211.1 L239.0625,1216.539 L239.8438,1197.998 L240.625,1130.754 L241.4063,1218.517 L242.1875,1206.403 L242.9688,1212.089 L243.75,1189.592 L244.5313,1158.937 L245.3125,1174.265 L246.0938,1175.995 L246.875,1175.253 L247.6563,1211.347 L248.4375,1207.145 L249.2188,1187.862 L250,1208.134 L250.7813,1201.211 L251.5625,1192.312 L252.3438,1129.023 L253.125,1209.864 L253.9063,1210.359 L254.6875,1205.167 L255.4688,1175.501 L256.25,1120.371 L257.0313,1198.492 L257.8125,1207.145 L258.5938,1203.189 L259.375,1200.964 L260.1563,1185.389 L260.9375,1145.093 L261.7188,1208.628 L262.5,1211.595 L263.2813,1212.336 L264.0625,1189.345 L264.8438,1199.728 L265.625,1173.77 L266.4063,1195.278 L267.1875,1201.211 L267.9688,1105.538 L268.75,1192.064 L269.5313,1020 L270.3125,1129.023 L271.0938,1215.303 L271.875,1215.303 L272.6563,1198.492 L273.4375,1203.931 L274.2188,1063.263 L275,1143.362 L275.7813,1211.1 L276.5625,1217.528 L277.3438,1204.92 L278.125,1159.926 L278.9063,1172.534 L279.6875,1209.122 L280.4688,1204.672 L281.25,1197.998 L282.0313,1121.607 L282.8125,1205.414 L283.5938,1201.211 L284.375,1207.886 L285.1563,1207.886 L285.9375,1187.367 L286.7188,1178.962 L287.5,1076.366 L288.2813,1128.776 L289.0625,1137.429 L289.8438,1172.04 L290.625,1176.984 L291.4063,1159.184 L292.1875,1187.614 L292.9688,1128.776 L293.75,1214.314 L294.5313,1209.864 L295.3125,1210.606 L296.0938,1196.267 L296.875,1131.743 L297.6563,1207.639 L298.4375,1175.006 L299.2188,1098.616 L300,1168.578 L300.7813,1198.986 L301.5625,1198.739 L302.3438,1200.717 L303.125,1201.459 L303.9063,1215.056 L304.6875,1093.424 L305.4688,1172.04 L306.25,1138.171 L307.0313,1173.276 L307.8125,1178.714 L308.5938,1202.942 L309.375,1124.079 L310.1563,1146.576 L310.9375,1080.569 " stroke="blue" fill="none" />
<text x="50" y="1270" font-family="Arial" font-size="12" fill="black">Actor Loss</text>
<text x="50" y="1285" font-family="Arial" font-size="10" fill="black">0.6987845</text>
<text x="50" y="1500" font-family="Arial" font-size="10" fill="black">0.6857308</text>
<path d="M50,1490 L75,1448.495 L100,1290 " stroke="blue" fill="none" />
<text x="50" y="1540" font-family="Arial" font-size="12" fill="black">Critic Loss</text>
<text x="50" y="1555" font-family="Arial" font-size="10" fill="black">0.00339771</text>
<text x="50" y="1770" font-family="Arial" font-size="10" fill="black">0.003161135</text>
<path d="M50,1732.237 L75,1760 L100,1560.008 " stroke="blue" fill="none" />
<text x="50" y="1810" font-family="Arial" font-size="12" fill="black">Entropy</text>
<text x="50" y="1825" font-family="Arial" font-size="10" fill="black">1.510791</text>
<text x="50" y="2040" font-family="Arial" font-size="10" fill="black">1.5</text>
<path d="M50,2030 L75,1831.419 L100,1830 " stroke="blue" fill="none" />
<text x="750" y="710" font-family="Arial" font-size="12" fill="black">Simplified</text>
<text x="750" y="725" font-family="Arial" font-size="10" fill="black">1.631706</text>
<text x="750" y="940" font-family="Arial" font-size="10" fill="black">0.4074849</text>
<path d="M764.0625,930 L778.9063,895.7081 L793.75,862.099 L808.5938,871.7994 L823.4375,826.8048 L838.2813,808.5189 L853.125,782.1388 L867.9688,829.3138 L882.8125,812.2379 L897.6563,818.6415 L912.5,797.2574 L927.3438,774.1476 L942.1875,850.3981 L957.0313,818.6179 L971.875,786.0018 L986.7188,821.5515 L1001.563,742.0735 L1010.938,730 " stroke="blue" fill="none" />
<text x="750" y="980" font-family="Arial" font-size="12" fill="black">Simplified</text>
<text x="750" y="995" font-family="Arial" font-size="10" fill="black">253.3333</text>
<text x="750" y="1210" font-family="Arial" font-size="10" fill="black">50.42105</text>
<path d="M764.0625,1200 L778.9063,1158.914 L793.75,1135.829 L808.5938,1139.046 L823.4375,1100.605 L838.2813,1087.221 L853.125,1059.882 L867.9688,1110.565 L882.8125,1095.625 L897.6563,1092.979 L912.5,1074.045 L927.3438,1051.115 L942.1875,1117.569 L957.0313,1103.199 L971.875,1075.497 L986.7188,1093.602 L1001.563,1026.526 L1010.938,1000 " stroke="blue" fill="none" />
</svg>
