<svg width="2000" height="2500" xmlns="http://www.w3.org/2000/svg">
<text x="10" y="20" font-family="Arial" font-size="26" fill="black"> [Crawler] Training Session</text>
<text x="10" y="50" font-family="Arial" font-size="16" fill="black">[Statistics]</text>
<text x="50" y="70" font-family="Arial" font-size="12" fill="black">Started at: 10:25:58 PM, Sunday, November 26, 2023</text>
<text x="50" y="90" font-family="Arial" font-size="12" fill="black">Finished at: 10:43:58 PM, Sunday, November 26, 2023</text>
<text x="50" y="110" font-family="Arial" font-size="12" fill="black">Training Session Time: 0 hrs : 17 min : 58 sec</text>
<text x="50" y="130" font-family="Arial" font-size="12" fill="black">Inference Time: 1 hrs : 45 min : 5 sec       [Per agent: 1 hrs : 45 min : 5 sec]        [Device: CPU]</text>
<text x="50" y="150" font-family="Arial" font-size="12" fill="black">Policy Update Time: 0 hrs : 4 min : 6 sec        [Per iteration: 0 hrs : 0 min : 3 sec]        [Device: GPU]</text>
<text x="50" y="170" font-family="Arial" font-size="12" fill="black">Inference Time / Training Session Time: 5.897</text>
<text x="50" y="190" font-family="Arial" font-size="12" fill="black">Policy Update Time / Training Session Time: 0.231</text>
<text x="50" y="210" font-family="Arial" font-size="12" fill="black">Episode Count: 209</text>
<text x="50" y="230" font-family="Arial" font-size="12" fill="black">Inference Steps: 125691    [Per agent: 125691]     [Per Episode (mean): 601]</text>
<text x="50" y="250" font-family="Arial" font-size="12" fill="black">Iterations: 61</text>
<text x="50" y="270" font-family="Arial" font-size="12" fill="black">Parallel Agents: 1</text>
<text x="50" y="290" font-family="Arial" font-size="12" fill="black">Timescale: 7.305196</text>
<text x="50" y="310" font-family="Arial" font-size="12" fill="black">Trainer: PPO</text>
<text x="10" y="360" font-family="Arial" font-size="16" fill="black">[Hyperparameters]</text>
<text x="50" y="380" font-family="Arial" font-size="12" fill="black">Buffer Size: 2048        [Batch Size: 128       (x16)]</text>
<text x="50" y="400" font-family="Arial" font-size="12" fill="black">Num Epoch: 8</text>
<text x="50" y="420" font-family="Arial" font-size="12" fill="black">Time Horizon: 256</text>
<text x="50" y="440" font-family="Arial" font-size="12" fill="black">Gradient Cliping Normalization: 0.5</text>
<text x="50" y="460" font-family="Arial" font-size="12" fill="black">Learning Rate Schedule: False    </text>
<text x="10" y="510" font-family="Arial" font-size="16" fill="black">[Behaviour]</text>
<text x="50" y="530" font-family="Arial" font-size="12" fill="black">Space Size: 126</text>
<text x="50" y="550" font-family="Arial" font-size="12" fill="black">Continuous Actions: 20 [Standard Deviation: Fixed]     [Value: 1.51]</text>
<text x="50" y="570" font-family="Arial" font-size="12" fill="black">Discrete Actions: 0</text>
<text x="50" y="590" font-family="Arial" font-size="12" fill="black">TargetFPS: 80 (physics update rate)</text>
<text x="50" y="610" font-family="Arial" font-size="12" fill="black">Observations Normalization: True</text>
<text x="10" y="660" font-family="Arial" font-size="16" fill="black">[Decision Requester]</text>
<text x="50" y="680" font-family="Arial" font-size="12" fill="black">Max Step: 0</text>
<text x="50" y="700" font-family="Arial" font-size="12" fill="black">Decision Period: 4      [Actions Between Decisions: True]</text>
<text x="10" y="750" font-family="Arial" font-size="16" fill="black">[Graphs]</text>
<text x="50" y="770" font-family="Arial" font-size="12" fill="black">Episode Reward (209)</text>
<text x="50" y="785" font-family="Arial" font-size="10" fill="black">110.0015</text>
<text x="50" y="1000" font-family="Arial" font-size="10" fill="black">0.5476135</text>
<path d="M50,925.0264 L51.5625,977.0383 L53.125,965.0621 L54.6875,989.0923 L56.25,963.7593 L57.8125,977.3184 L59.375,982.7043 L60.9375,985.8307 L62.5,908.9434 L64.0625,988.5051 L65.625,985.0999 L67.1875,968.3195 L68.75,987.2104 L70.3125,988.2222 L71.875,988.3309 L73.4375,984.1761 L75,986.6166 L76.5625,952.6974 L78.125,962.0798 L79.6875,934.6345 L81.25,911.0413 L82.8125,977.6133 L84.375,976.0785 L85.9375,978.9564 L87.5,973.6779 L89.0625,967.6496 L90.625,958.4867 L92.1875,987.4688 L93.75,956.1088 L95.3125,978.5606 L96.875,981.7615 L98.4375,927.9723 L100,970.2755 L101.5625,930.3123 L103.125,790 L104.6875,988.8671 L106.25,963.0963 L107.8125,989.9263 L109.375,950.1224 L110.9375,929.569 L112.5,989.0939 L114.0625,981.225 L115.625,983.596 L117.1875,969.8414 L118.75,952.0924 L120.3125,988.8494 L121.875,969.8882 L123.4375,976.6804 L125,936.0365 L126.5625,982.814 L128.125,979.7134 L129.6875,973.585 L131.25,987.0124 L132.8125,914.3987 L134.375,986.6421 L135.9375,967.5353 L137.5,961.6556 L139.0625,982.5659 L140.625,910.5486 L142.1875,974.8109 L143.75,977.8171 L145.3125,972.1303 L146.875,961.8926 L148.4375,976.6486 L150,964.1127 L151.5625,982.5755 L153.125,984.4907 L154.6875,963.8524 L156.25,943.5687 L157.8125,985.8073 L159.375,883.3862 L160.9375,970.8377 L162.5,986.7234 L164.0625,985.6136 L165.625,916.2275 L167.1875,958.3652 L168.75,967.7783 L170.3125,984.1459 L171.875,974.3065 L173.4375,850.1029 L175,984.1137 L176.5625,884.9079 L178.125,952.0522 L179.6875,986.6022 L181.25,870.3795 L182.8125,976.6749 L184.375,989.3376 L185.9375,976.5856 L187.5,960.1616 L189.0625,967.6179 L190.625,955.2611 L192.1875,966.7822 L193.75,947.2556 L195.3125,985.175 L196.875,985.9406 L198.4375,989.5814 L200,942.092 L201.5625,988.0554 L203.125,988.6047 L204.6875,948.9963 L206.25,858.9818 L207.8125,966.4579 L209.375,984.4404 L210.9375,989.1943 L212.5,903.6965 L214.0625,962.9362 L215.625,965.2016 L217.1875,930.2416 L218.75,990 L220.3125,988.8323 L221.875,951.1475 L223.4375,986.8013 L225,989.8817 L226.5625,986.8716 L228.125,943.0267 L229.6875,979.7673 L231.25,988.913 L232.8125,941.0694 L234.375,975.4559 L235.9375,986.8369 L237.5,983.8372 L239.0625,920.5934 L240.625,972.1378 L242.1875,982.7002 L243.75,981.3479 L245.3125,987.4943 L246.875,987.6879 L248.4375,962.0981 L250,940.5815 L251.5625,987.0307 L253.125,945.413 L254.6875,850.0928 L256.25,985.4613 L257.8125,945.8986 L259.375,906.1831 L260.9375,947.0397 L262.5,974.8712 L264.0625,989.4063 L265.625,911.3182 L267.1875,979.6016 L268.75,984.6102 L270.3125,978.74 L271.875,975.4685 L273.4375,938.7593 L275,978.9548 L276.5625,959.474 L278.125,984.4827 L279.6875,982.4081 L281.25,963.5616 L282.8125,980.8539 L284.375,964.4583 L285.9375,893.9742 L287.5,923.7515 L289.0625,918.0037 L290.625,983.6591 L292.1875,956.9667 L293.75,963.9604 L295.3125,966.4343 L296.875,981.5146 L298.4375,982.2896 L300,986.8173 L301.5625,982.7205 L303.125,975.3735 L304.6875,971.4101 L306.25,906.3768 L307.8125,967.8732 L309.375,977.0693 L310.9375,960.037 L312.5,950.8448 L314.0625,981.7072 L315.625,914.3268 L317.1875,954.6877 L318.75,984.0551 L320.3125,976.8233 L321.875,987.9271 L323.4375,862.8105 L325,986.6248 L326.5625,913.826 L328.125,947.4359 L329.6875,976.512 L331.25,917.6885 L332.8125,980.9584 L334.375,967.6284 L335.9375,964.4981 L337.5,987.2546 L339.0625,917.8892 L340.625,882.5562 L342.1875,986.9514 L343.75,905.5374 L345.3125,972.887 L346.875,988.5542 L348.4375,957.1926 L350,962.9708 L351.5625,985.2396 L353.125,989.4217 L354.6875,961.5938 L356.25,984.1562 L357.8125,930.0903 L359.375,967.3317 L360.9375,985.067 L362.5,985.3239 L364.0625,989.1465 L365.625,980.8646 L367.1875,946.3375 L368.75,967.424 L370.3125,972.9091 L371.875,960.628 L373.4375,981.4942 L375,983.0054 " stroke="blue" fill="none" />
<text x="50" y="1040" font-family="Arial" font-size="12" fill="black">Episode Length (209)</text>
<text x="50" y="1055" font-family="Arial" font-size="10" fill="black">4057</text>
<text x="50" y="1270" font-family="Arial" font-size="10" fill="black">17</text>
<path d="M50,1187.228 L51.5625,1247.426 L53.125,1232.624 L54.6875,1258.861 L56.25,1230.842 L57.8125,1247.525 L59.375,1252.772 L60.9375,1256.04 L62.5,1170.792 L64.0625,1258.218 L65.625,1255.495 L67.1875,1241.089 L68.75,1257.129 L70.3125,1257.97 L71.875,1258.614 L73.4375,1253.713 L75,1256.683 L76.5625,1225.792 L78.125,1232.228 L79.6875,1200.743 L81.25,1181.337 L82.8125,1247.228 L84.375,1244.455 L85.9375,1247.921 L87.5,1243.812 L89.0625,1235.693 L90.625,1225.594 L92.1875,1257.822 L93.75,1230.743 L95.3125,1247.723 L96.875,1252.772 L98.4375,1196.337 L100,1237.723 L101.5625,1203.762 L103.125,1060 L104.6875,1258.515 L106.25,1230.891 L107.8125,1259.95 L109.375,1217.574 L110.9375,1198.465 L112.5,1258.762 L114.0625,1250.99 L115.625,1252.525 L117.1875,1242.277 L118.75,1224.604 L120.3125,1259.059 L121.875,1241.832 L123.4375,1247.079 L125,1199.505 L126.5625,1252.723 L128.125,1250.594 L129.6875,1244.703 L131.25,1256.535 L132.8125,1170.198 L134.375,1256.733 L135.9375,1237.871 L137.5,1229.455 L139.0625,1251.832 L140.625,1172.574 L142.1875,1245.149 L143.75,1248.614 L145.3125,1242.426 L146.875,1234.752 L148.4375,1245.792 L150,1234.455 L151.5625,1252.822 L153.125,1253.812 L154.6875,1231.337 L156.25,1208.713 L157.8125,1254.901 L159.375,1132.921 L160.9375,1239.307 L162.5,1256.386 L164.0625,1255.05 L165.625,1190.545 L167.1875,1233.218 L168.75,1237.129 L170.3125,1254.802 L171.875,1245.495 L173.4375,1122.327 L175,1253.416 L176.5625,1143.465 L178.125,1225.792 L179.6875,1257.03 L181.25,1124.01 L182.8125,1246.683 L184.375,1259.158 L185.9375,1244.851 L187.5,1230.396 L189.0625,1237.327 L190.625,1223.861 L192.1875,1237.277 L193.75,1220.99 L195.3125,1254.901 L196.875,1256.238 L198.4375,1259.406 L200,1217.97 L201.5625,1258.218 L203.125,1258.515 L204.6875,1215.297 L206.25,1123.069 L207.8125,1239.851 L209.375,1254.01 L210.9375,1259.307 L212.5,1179.703 L214.0625,1231.238 L215.625,1233.614 L217.1875,1187.723 L218.75,1260 L220.3125,1258.96 L221.875,1226.535 L223.4375,1256.386 L225,1259.653 L226.5625,1256.881 L228.125,1208.218 L229.6875,1250.644 L231.25,1258.663 L232.8125,1213.366 L234.375,1247.228 L235.9375,1256.98 L237.5,1254.802 L239.0625,1198.069 L240.625,1240.396 L242.1875,1251.535 L243.75,1250.594 L245.3125,1256.782 L246.875,1257.723 L248.4375,1234.752 L250,1216.188 L251.5625,1257.376 L253.125,1212.129 L254.6875,1098.267 L256.25,1254.604 L257.8125,1213.762 L259.375,1162.327 L260.9375,1213.465 L262.5,1247.178 L264.0625,1259.505 L265.625,1174.307 L267.1875,1249.059 L268.75,1254.01 L270.3125,1249.109 L271.875,1244.356 L273.4375,1201.931 L275,1248.416 L276.5625,1232.772 L278.125,1253.762 L279.6875,1251.832 L281.25,1236.733 L282.8125,1252.079 L284.375,1236.683 L285.9375,1156.287 L287.5,1190.347 L289.0625,1194.109 L290.625,1252.822 L292.1875,1231.535 L293.75,1234.208 L295.3125,1234.95 L296.875,1252.772 L298.4375,1251.931 L300,1256.98 L301.5625,1253.515 L303.125,1247.327 L304.6875,1239.604 L306.25,1171.881 L307.8125,1237.129 L309.375,1246.683 L310.9375,1231.04 L312.5,1223.96 L314.0625,1250.693 L315.625,1177.871 L317.1875,1222.03 L318.75,1254.851 L320.3125,1246.485 L321.875,1257.525 L323.4375,1116.139 L325,1256.683 L326.5625,1177.178 L328.125,1222.129 L329.6875,1246.98 L331.25,1176.832 L332.8125,1250.644 L334.375,1239.208 L335.9375,1231.832 L337.5,1256.683 L339.0625,1180.693 L340.625,1135.297 L342.1875,1256.386 L343.75,1169.752 L345.3125,1241.04 L346.875,1258.663 L348.4375,1229.01 L350,1235.693 L351.5625,1254.356 L353.125,1259.554 L354.6875,1236.089 L356.25,1254.554 L357.8125,1196.287 L359.375,1234.95 L360.9375,1255.149 L362.5,1255.941 L364.0625,1258.911 L365.625,1250.446 L367.1875,1218.168 L368.75,1236.733 L370.3125,1245.099 L371.875,1227.624 L373.4375,1250.545 L375,1252.475 " stroke="blue" fill="none" />
<text x="50" y="1310" font-family="Arial" font-size="12" fill="black">Policy Loss</text>
<text x="50" y="1325" font-family="Arial" font-size="10" fill="black">0.07299788</text>
<text x="50" y="1540" font-family="Arial" font-size="10" fill="black">0</text>
<path d="M50,1417.159 L50.78125,1497.66 L51.5625,1512.062 L52.34375,1511.826 L53.125,1507.864 L53.90625,1512.821 L54.6875,1506.824 L55.46875,1510.557 L56.25,1386.381 L57.03125,1500.043 L57.8125,1503.182 L58.59375,1507.774 L59.375,1512.083 L60.15625,1504.226 L60.9375,1504.781 L61.71875,1510.793 L62.5,1330 L63.28125,1502.719 L64.0625,1502.163 L64.84375,1516.136 L65.625,1509.436 L66.40625,1502.846 L67.1875,1500.912 L67.96875,1511.722 L68.75,1398.224 L69.53125,1501.348 L70.3125,1510.936 L71.09375,1503.749 L71.875,1499.452 L72.65625,1501.442 L73.4375,1495.637 L74.21875,1504.296 L75,1434.913 L75.78125,1508.204 L76.5625,1501.446 L77.34375,1504.355 L78.125,1504.142 L78.90625,1504.634 L79.6875,1496.325 L80.46875,1510.669 L81.25,1395.443 L82.03125,1505 L82.8125,1511.847 L83.59375,1515.724 L84.375,1506.016 L85.15625,1507.952 L85.9375,1502.328 L86.71875,1503.615 L87.5,1380.499 L88.28125,1505.862 L89.0625,1508.966 L89.84375,1511.222 L90.625,1505.22 L91.40625,1502.471 L92.1875,1505.985 L92.96875,1508.093 L93.75,1409.692 L94.53125,1502.1 L95.3125,1507.688 L96.09375,1502.614 L96.875,1514.163 L97.65625,1505.924 L98.4375,1508.135 L99.21875,1501.77 L100,1396.576 L100.7813,1502.774 L101.5625,1507.067 L102.3438,1503.425 L103.125,1506.391 L103.9063,1512.222 L104.6875,1502.353 L105.4688,1510.108 L106.25,1385.94 L107.0313,1513.249 L107.8125,1506.119 L108.5938,1506.337 L109.375,1502.889 L110.1563,1501.968 L110.9375,1501.296 L111.7188,1504.165 L112.5,1530 L113.2813,1530 L114.0625,1530 L114.8438,1530 L115.625,1530 L116.4063,1530 L117.1875,1530 L117.9688,1530 L118.75,1375.545 L119.5313,1507.337 L120.3125,1504.519 L121.0938,1510.741 L121.875,1504.035 L122.6563,1511.474 L123.4375,1509.47 L124.2188,1506.23 L125,1398.033 L125.7813,1498.029 L126.5625,1506.037 L127.3438,1509.295 L128.125,1502.254 L128.9063,1507.454 L129.6875,1509.248 L130.4688,1511.018 L131.25,1401.824 L132.0313,1497.801 L132.8125,1499.885 L133.5938,1508.359 L134.375,1513.331 L135.1563,1508.964 L135.9375,1505.154 L136.7188,1508.318 L137.5,1392.182 L138.2813,1510.849 L139.0625,1506.482 L139.8438,1511.456 L140.625,1505.916 L141.4063,1521.269 L142.1875,1505.535 L142.9688,1502.632 L143.75,1360.22 L144.5313,1492.322 L145.3125,1497.512 L146.0938,1513.949 L146.875,1503.474 L147.6563,1510.511 L148.4375,1508.242 L149.2188,1502.289 L150,1372.966 L150.7813,1508.391 L151.5625,1512.831 L152.3438,1507.986 L153.125,1504.368 L153.9063,1498.941 L154.6875,1511.471 L155.4688,1500.883 L156.25,1377.458 L157.0313,1499.229 L157.8125,1504.248 L158.5938,1496.604 L159.375,1504.18 L160.1563,1510.996 L160.9375,1516.251 L161.7188,1507.552 L162.5,1391.361 L163.2813,1505.91 L164.0625,1500.799 L164.8438,1509.22 L165.625,1501.71 L166.4063,1507.967 L167.1875,1512.318 L167.9688,1511.713 L168.75,1530 L169.5313,1530 L170.3125,1530 L171.0938,1530 L171.875,1530 L172.6563,1530 L173.4375,1530 L174.2188,1530 L175,1530 L175.7813,1530 L176.5625,1530 L177.3438,1530 L178.125,1530 L178.9063,1530 L179.6875,1530 L180.4688,1530 L181.25,1381.874 L182.0313,1504.82 L182.8125,1503.892 L183.5938,1510.4 L184.375,1507.075 L185.1563,1511.495 L185.9375,1503.204 L186.7188,1509.479 L187.5,1406.706 L188.2813,1500.881 L189.0625,1508.838 L189.8438,1504.667 L190.625,1499.651 L191.4063,1503.237 L192.1875,1502.717 L192.9688,1515.578 L193.75,1530 L194.5313,1530 L195.3125,1530 L196.0938,1530 L196.875,1530 L197.6563,1530 L198.4375,1530 L199.2188,1530 L200,1384.135 L200.7813,1503.599 L201.5625,1510.258 L202.3438,1504.733 L203.125,1503.797 L203.9063,1502.302 L204.6875,1507.864 L205.4688,1512.209 L206.25,1530 L207.0313,1530 L207.8125,1530 L208.5938,1530 L209.375,1530 L210.1563,1530 L210.9375,1530 L211.7188,1530 L212.5,1530 L213.2813,1530 L214.0625,1530 L214.8438,1530 L215.625,1530 L216.4063,1530 L217.1875,1530 L217.9688,1530 L218.75,1530 L219.5313,1530 L220.3125,1530 L221.0938,1530 L221.875,1530 L222.6563,1530 L223.4375,1530 L224.2188,1530 L225,1405.146 L225.7813,1508.151 L226.5625,1501.992 L227.3438,1504.444 L228.125,1508.137 L228.9063,1509.94 L229.6875,1503.439 L230.4688,1497.764 L231.25,1530 L232.0313,1530 L232.8125,1530 L233.5938,1530 L234.375,1530 L235.1563,1530 L235.9375,1530 L236.7188,1530 L237.5,1530 L238.2813,1530 L239.0625,1530 L239.8438,1530 L240.625,1530 L241.4063,1530 L242.1875,1530 L242.9688,1530 L243.75,1530 L244.5313,1530 L245.3125,1530 L246.0938,1530 L246.875,1530 L247.6563,1530 L248.4375,1530 L249.2188,1530 L250,1530 L250.7813,1530 L251.5625,1530 L252.3438,1530 L253.125,1530 L253.9063,1530 L254.6875,1530 L255.4688,1530 L256.25,1530 L257.0313,1530 L257.8125,1530 L258.5938,1530 L259.375,1530 L260.1563,1530 L260.9375,1530 L261.7188,1530 L262.5,1372.334 L263.2813,1505.17 L264.0625,1498.37 L264.8438,1506.927 L265.625,1511.65 L266.4063,1512.276 L267.1875,1505.202 L267.9688,1504.371 L268.75,1530 L269.5313,1530 L270.3125,1530 L271.0938,1530 L271.875,1530 L272.6563,1530 L273.4375,1530 L274.2188,1530 L275,1437.358 L275.7813,1504.45 L276.5625,1498.99 L277.3438,1515.302 L278.125,1503.448 L278.9063,1508.506 L279.6875,1508.401 L280.4688,1504.385 L281.25,1530 L282.0313,1530 L282.8125,1530 L283.5938,1530 L284.375,1530 L285.1563,1530 L285.9375,1530 L286.7188,1530 L287.5,1530 L288.2813,1530 L289.0625,1530 L289.8438,1530 L290.625,1530 L291.4063,1530 L292.1875,1530 L292.9688,1530 L293.75,1530 L294.5313,1530 L295.3125,1530 L296.0938,1530 L296.875,1530 L297.6563,1530 L298.4375,1530 L299.2188,1530 L300,1414.109 L300.7813,1507.53 L301.5625,1506.522 L302.3438,1511.378 L303.125,1504.582 L303.9063,1510.084 L304.6875,1505.166 L305.4688,1506.884 L306.25,1407.004 L307.0313,1513.176 L307.8125,1513.37 L308.5938,1499.617 L309.375,1508.73 L310.1563,1506.03 L310.9375,1505.716 L311.7188,1506.708 L312.5,1530 L313.2813,1530 L314.0625,1530 L314.8438,1530 L315.625,1530 L316.4063,1530 L317.1875,1530 L317.9688,1530 L318.75,1446.462 L319.5313,1495.622 L320.3125,1512.043 L321.0938,1505.574 L321.875,1510.34 L322.6563,1505.412 L323.4375,1511.859 L324.2188,1505.819 L325,1421.442 L325.7813,1503.081 L326.5625,1504.581 L327.3438,1506.627 L328.125,1510.06 L328.9063,1506.907 L329.6875,1505.358 L330.4688,1508.403 L331.25,1530 L332.0313,1530 L332.8125,1530 L333.5938,1530 L334.375,1530 L335.1563,1530 L335.9375,1530 L336.7188,1530 L337.5,1530 L338.2813,1530 L339.0625,1530 L339.8438,1530 L340.625,1530 L341.4063,1530 L342.1875,1530 L342.9688,1530 L343.75,1530 L344.5313,1530 L345.3125,1530 L346.0938,1530 L346.875,1530 L347.6563,1530 L348.4375,1530 L349.2188,1530 L350,1377.911 L350.7813,1503.644 L351.5625,1504.828 L352.3438,1506.198 L353.125,1512.827 L353.9063,1511.744 L354.6875,1514.722 L355.4688,1513.608 L356.25,1399.064 L357.0313,1513.094 L357.8125,1507.523 L358.5938,1505.553 L359.375,1501.804 L360.1563,1505.096 L360.9375,1507.359 L361.7188,1504.377 L362.5,1350.556 L363.2813,1504.837 L364.0625,1507.46 L364.8438,1505.767 L365.625,1508.266 L366.4063,1502.102 L367.1875,1516.378 L367.9688,1515.244 L368.75,1530 L369.5313,1530 L370.3125,1530 L371.0938,1530 L371.875,1530 L372.6563,1530 L373.4375,1530 L374.2188,1530 L375,1424.201 L375.7813,1511.702 L376.5625,1508.427 L377.3438,1507.022 L378.125,1498.577 L378.9063,1502.298 L379.6875,1503.34 L380.4688,1507.381 L381.25,1405.341 L382.0313,1508.889 L382.8125,1503.215 L383.5938,1510.792 L384.375,1508.709 L385.1563,1510.301 L385.9375,1509.356 L386.7188,1511.82 L387.5,1530 L388.2813,1530 L389.0625,1530 L389.8438,1530 L390.625,1530 L391.4063,1530 L392.1875,1530 L392.9688,1530 L393.75,1447.296 L394.5313,1499.039 L395.3125,1507.251 L396.0938,1504.861 L396.875,1509.839 L397.6563,1505.567 L398.4375,1512.606 L399.2188,1502.938 L400,1530 L400.7813,1530 L401.5625,1530 L402.3438,1530 L403.125,1530 L403.9063,1530 L404.6875,1530 L405.4688,1530 L406.25,1417.987 L407.0313,1513.876 L407.8125,1504.971 L408.5938,1497.829 L409.375,1504.244 L410.1563,1504.161 L410.9375,1508.912 L411.7188,1507.281 L412.5,1530 L413.2813,1530 L414.0625,1530 L414.8438,1530 L415.625,1530 L416.4063,1530 L417.1875,1530 L417.9688,1530 L418.75,1530 L419.5313,1530 L420.3125,1530 L421.0938,1530 L421.875,1530 L422.6563,1530 L423.4375,1530 L424.2188,1530 L425,1530 L425.7813,1530 L426.5625,1530 L427.3438,1530 L428.125,1530 L428.9063,1530 L429.6875,1530 L430.4688,1530 " stroke="blue" fill="none" />
<text x="50" y="1580" font-family="Arial" font-size="12" fill="black">Value Loss</text>
<text x="50" y="1595" font-family="Arial" font-size="10" fill="black">0.01748408</text>
<text x="50" y="1810" font-family="Arial" font-size="10" fill="black">0.0006006636</text>
<path d="M50,1700.825 L50.78125,1721.325 L51.5625,1740.961 L52.34375,1749.933 L53.125,1755.489 L53.90625,1759.562 L54.6875,1762.603 L55.46875,1765.083 L56.25,1690.539 L57.03125,1703.735 L57.8125,1716.423 L58.59375,1723.572 L59.375,1730.201 L60.15625,1734.948 L60.9375,1738.837 L61.71875,1742.567 L62.5,1660.471 L63.28125,1677.709 L64.0625,1718.036 L64.84375,1731.667 L65.625,1739.16 L66.40625,1744.616 L67.1875,1748.168 L67.96875,1751.123 L68.75,1676.492 L69.53125,1721.123 L70.3125,1739.791 L71.09375,1750.006 L71.875,1755.717 L72.65625,1759.32 L73.4375,1763 L74.21875,1765.713 L75,1739.002 L75.78125,1741.944 L76.5625,1773.746 L77.34375,1783.517 L78.125,1787.467 L78.90625,1789.498 L79.6875,1790.852 L80.46875,1791.91 L81.25,1692.779 L82.03125,1709.984 L82.8125,1724.019 L83.59375,1732.451 L84.375,1738.979 L85.15625,1743.537 L85.9375,1747.048 L86.71875,1749.899 L87.5,1675.825 L88.28125,1702.756 L89.0625,1719.837 L89.84375,1730.181 L90.625,1738.254 L91.40625,1743.334 L92.1875,1747.818 L92.96875,1750.778 L93.75,1732.017 L94.53125,1744.905 L95.3125,1764.91 L96.09375,1772.207 L96.875,1776.613 L97.65625,1780.114 L98.4375,1782.312 L99.21875,1783.932 L100,1761.647 L100.7813,1764.93 L101.5625,1780.648 L102.3438,1784.561 L103.125,1787.43 L103.9063,1789.179 L104.6875,1790.302 L105.4688,1791.384 L106.25,1784.698 L107.0313,1755.256 L107.8125,1791.394 L108.5938,1797.279 L109.375,1798.619 L110.1563,1799.247 L110.9375,1799.643 L111.7188,1800 L112.5,1721.334 L113.2813,1707.726 L114.0625,1731.749 L114.8438,1742.503 L115.625,1749.651 L116.4063,1756.18 L117.1875,1756.109 L117.9688,1759.433 L118.75,1649.16 L119.5313,1688.894 L120.3125,1729.735 L121.0938,1743.337 L121.875,1752.272 L122.6563,1756.894 L123.4375,1761.264 L124.2188,1764.681 L125,1676.142 L125.7813,1708.424 L126.5625,1727.342 L127.3438,1737.671 L128.125,1744.886 L128.9063,1749.704 L129.6875,1754.241 L130.4688,1757.796 L131.25,1637.359 L132.0313,1682.919 L132.8125,1704.058 L133.5938,1715.231 L134.375,1723.438 L135.1563,1728.788 L135.9375,1733.036 L136.7188,1736.957 L137.5,1732.825 L138.2813,1739.615 L139.0625,1753.701 L139.8438,1761.776 L140.625,1765.972 L141.4063,1771.683 L142.1875,1772.768 L142.9688,1776.545 L143.75,1727.531 L144.5313,1747.202 L145.3125,1762.912 L146.0938,1768.846 L146.875,1774.242 L147.6563,1778.418 L148.4375,1779.546 L149.2188,1780.789 L150,1707.533 L150.7813,1721.749 L151.5625,1735.087 L152.3438,1742.264 L153.125,1747.783 L153.9063,1751.017 L154.6875,1754.56 L155.4688,1757.276 L156.25,1727.323 L157.0313,1744.642 L157.8125,1759.079 L158.5938,1767.408 L159.375,1771.796 L160.1563,1775.302 L160.9375,1776.616 L161.7188,1777.333 L162.5,1714.176 L163.2813,1748.672 L164.0625,1767.116 L164.8438,1775.549 L165.625,1780.568 L166.4063,1783.837 L167.1875,1786.12 L167.9688,1787.903 L168.75,1749.691 L169.5313,1724.601 L170.3125,1761.354 L171.0938,1766.93 L171.875,1769.784 L172.6563,1770.866 L173.4375,1774.184 L174.2188,1776.775 L175,1747.463 L175.7813,1740.172 L176.5625,1761.392 L177.3438,1771.861 L178.125,1778.291 L178.9063,1780.699 L179.6875,1782.861 L180.4688,1781.89 L181.25,1717.198 L182.0313,1710.024 L182.8125,1754.785 L183.5938,1766.269 L184.375,1772.914 L185.1563,1776.632 L185.9375,1779.527 L186.7188,1781.477 L187.5,1703.19 L188.2813,1740.872 L189.0625,1754.241 L189.8438,1761.916 L190.625,1766.354 L191.4063,1770.171 L192.1875,1773.117 L192.9688,1775.506 L193.75,1785.507 L194.5313,1787.463 L195.3125,1789.722 L196.0938,1791.001 L196.875,1792.859 L197.6563,1792.585 L198.4375,1793.074 L199.2188,1793.725 L200,1737.47 L200.7813,1742.736 L201.5625,1761.592 L202.3438,1769.261 L203.125,1773.038 L203.9063,1775.861 L204.6875,1778.051 L205.4688,1779.497 L206.25,1752.849 L207.0313,1734.093 L207.8125,1744.838 L208.5938,1751.028 L209.375,1754.176 L210.1563,1762.161 L210.9375,1763.344 L211.7188,1764.988 L212.5,1739.64 L213.2813,1740.566 L214.0625,1756.459 L214.8438,1765.78 L215.625,1768.429 L216.4063,1772.786 L217.1875,1774.635 L217.9688,1774.757 L218.75,1652.615 L219.5313,1680.33 L220.3125,1716.659 L221.0938,1734.023 L221.875,1740.432 L222.6563,1747.72 L223.4375,1752.465 L224.2188,1754.659 L225,1760.932 L225.7813,1778.448 L226.5625,1785.278 L227.3438,1789.247 L228.125,1791.426 L228.9063,1792.873 L229.6875,1793.934 L230.4688,1794.766 L231.25,1785.705 L232.0313,1743.713 L232.8125,1766.675 L233.5938,1769.891 L234.375,1778.255 L235.1563,1783.793 L235.9375,1781.509 L236.7188,1784.737 L237.5,1721.273 L238.2813,1706.276 L239.0625,1734.177 L239.8438,1748.485 L240.625,1754.064 L241.4063,1756.686 L242.1875,1761.303 L242.9688,1764.396 L243.75,1776.256 L244.5313,1750.951 L245.3125,1762.106 L246.0938,1770.999 L246.875,1772.288 L247.6563,1773.833 L248.4375,1777.426 L249.2188,1776.493 L250,1698.942 L250.7813,1646.954 L251.5625,1685.103 L252.3438,1703.029 L253.125,1711.973 L253.9063,1715.603 L254.6875,1722.566 L255.4688,1728.914 L256.25,1700.454 L257.0313,1696.484 L257.8125,1719.099 L258.5938,1736.158 L259.375,1743.259 L260.1563,1749.096 L260.9375,1753.453 L261.7188,1754.869 L262.5,1600 L263.2813,1666.047 L264.0625,1694.205 L264.8438,1709.526 L265.625,1718.176 L266.4063,1723.757 L267.1875,1728.318 L267.9688,1732.337 L268.75,1718.456 L269.5313,1701.944 L270.3125,1725.666 L271.0938,1735.151 L271.875,1742.714 L272.6563,1749.774 L273.4375,1751.964 L274.2188,1757.142 L275,1754.453 L275.7813,1765.406 L276.5625,1777.977 L277.3438,1781.697 L278.125,1784.38 L278.9063,1786.001 L279.6875,1786.873 L280.4688,1788.074 L281.25,1777.147 L282.0313,1769.322 L282.8125,1774.799 L283.5938,1777.185 L284.375,1778.176 L285.1563,1780.077 L285.9375,1783.468 L286.7188,1783.225 L287.5,1777.562 L288.2813,1768.398 L289.0625,1777.393 L289.8438,1780.586 L290.625,1784.675 L291.4063,1784.829 L292.1875,1785.797 L292.9688,1786.861 L293.75,1728.418 L294.5313,1720.832 L295.3125,1735.896 L296.0938,1741.734 L296.875,1747.608 L297.6563,1752.832 L298.4375,1758.402 L299.2188,1758.937 L300,1704.803 L300.7813,1726.228 L301.5625,1743.918 L302.3438,1753.061 L303.125,1759.288 L303.9063,1764.02 L304.6875,1767.938 L305.4688,1770.718 L306.25,1669.128 L307.0313,1689.609 L307.8125,1704.058 L308.5938,1712.029 L309.375,1718.599 L310.1563,1723.899 L310.9375,1727.128 L311.7188,1731.287 L312.5,1664.913 L313.2813,1663.856 L314.0625,1688.188 L314.8438,1699.492 L315.625,1712.326 L316.4063,1713.82 L317.1875,1723.398 L317.9688,1727.729 L318.75,1760.004 L319.5313,1778.309 L320.3125,1786.559 L321.0938,1790.656 L321.875,1792.611 L322.6563,1793.999 L323.4375,1795.031 L324.2188,1795.811 L325,1753.02 L325.7813,1779.187 L326.5625,1783.842 L327.3438,1786.894 L328.125,1789.179 L328.9063,1790.643 L329.6875,1791.693 L330.4688,1792.717 L331.25,1716.009 L332.0313,1721.323 L332.8125,1738.192 L333.5938,1744.537 L334.375,1753.788 L335.1563,1755.986 L335.9375,1755.858 L336.7188,1759.693 L337.5,1668.912 L338.2813,1691.9 L339.0625,1716.427 L339.8438,1730.701 L340.625,1742.377 L341.4063,1748.48 L342.1875,1750.897 L342.9688,1750.916 L343.75,1753.449 L344.5313,1761.606 L345.3125,1771.813 L346.0938,1775.997 L346.875,1777.457 L347.6563,1782.025 L348.4375,1782.089 L349.2188,1783.619 L350,1666.455 L350.7813,1697.56 L351.5625,1716.862 L352.3438,1729.191 L353.125,1736.134 L353.9063,1740.931 L354.6875,1745.159 L355.4688,1748.205 L356.25,1750.493 L357.0313,1765.654 L357.8125,1775.681 L358.5938,1782.335 L359.375,1784.972 L360.1563,1786.968 L360.9375,1788.226 L361.7188,1789.11 L362.5,1688.325 L363.2813,1731.666 L364.0625,1755.522 L364.8438,1768.639 L365.625,1775.131 L366.4063,1779.427 L367.1875,1782.366 L367.9688,1784.243 L368.75,1755.906 L369.5313,1742.444 L370.3125,1760.249 L371.0938,1767.517 L371.875,1772.953 L372.6563,1774.564 L373.4375,1778.98 L374.2188,1781.039 L375,1743.011 L375.7813,1753.976 L376.5625,1765.496 L377.3438,1769.643 L378.125,1772.752 L378.9063,1775.206 L379.6875,1777.266 L380.4688,1778.973 L381.25,1729.748 L382.0313,1738.569 L382.8125,1752.006 L383.5938,1758.601 L384.375,1762.495 L385.1563,1765.377 L385.9375,1767.839 L386.7188,1769.787 L387.5,1678.695 L388.2813,1695.876 L389.0625,1719.716 L389.8438,1727.529 L390.625,1734.895 L391.4063,1741.784 L392.1875,1743.096 L392.9688,1748.922 L393.75,1762.751 L394.5313,1772.934 L395.3125,1781.933 L396.0938,1785.103 L396.875,1787.394 L397.6563,1788.773 L398.4375,1790.076 L399.2188,1791.036 L400,1771.278 L400.7813,1753.456 L401.5625,1763.197 L402.3438,1769.287 L403.125,1773.458 L403.9063,1776.625 L404.6875,1780.036 L405.4688,1781.688 L406.25,1703.396 L407.0313,1737.215 L407.8125,1762.18 L408.5938,1772.448 L409.375,1778.059 L410.1563,1782.447 L410.9375,1785.588 L411.7188,1787.937 L412.5,1714.603 L413.2813,1689.519 L414.0625,1723.236 L414.8438,1728.185 L415.625,1746.033 L416.4063,1743.413 L417.1875,1749.151 L417.9688,1745.113 L418.75,1685.303 L419.5313,1699.512 L420.3125,1720.242 L421.0938,1736.379 L421.875,1740.951 L422.6563,1743.353 L423.4375,1749.729 L424.2188,1749.798 L425,1710.842 L425.7813,1714.631 L426.5625,1728.486 L427.3438,1741.036 L428.125,1746.276 L428.9063,1748.785 L429.6875,1751.531 L430.4688,1751.709 " stroke="blue" fill="none" />
<text x="50" y="1850" font-family="Arial" font-size="12" fill="black">Learning Rate</text>
<text x="50" y="1865" font-family="Arial" font-size="10" fill="black">0.0003</text>
<text x="50" y="2080" font-family="Arial" font-size="10" fill="black">0.0003</text>
<path d="M50,2070 L50.78125,2070 L51.5625,2070 L52.34375,2070 L53.125,2070 L53.90625,2070 L54.6875,2070 L55.46875,2070 L56.25,2070 L57.03125,2070 L57.8125,2070 L58.59375,2070 L59.375,2070 L60.15625,2070 L60.9375,2070 L61.71875,2070 L62.5,2070 L63.28125,2070 L64.0625,2070 L64.84375,2070 L65.625,2070 L66.40625,2070 L67.1875,2070 L67.96875,2070 L68.75,2070 L69.53125,2070 L70.3125,2070 L71.09375,2070 L71.875,2070 L72.65625,2070 L73.4375,2070 L74.21875,2070 L75,2070 L75.78125,2070 L76.5625,2070 L77.34375,2070 L78.125,2070 L78.90625,2070 L79.6875,2070 L80.46875,2070 L81.25,2070 L82.03125,2070 L82.8125,2070 L83.59375,2070 L84.375,2070 L85.15625,2070 L85.9375,2070 L86.71875,2070 L87.5,2070 L88.28125,2070 L89.0625,2070 L89.84375,2070 L90.625,2070 L91.40625,2070 L92.1875,2070 L92.96875,2070 L93.75,2070 L94.53125,2070 L95.3125,2070 L96.09375,2070 L96.875,2070 L97.65625,2070 L98.4375,2070 L99.21875,2070 L100,2070 L100.7813,2070 L101.5625,2070 L102.3438,2070 L103.125,2070 L103.9063,2070 L104.6875,2070 L105.4688,2070 L106.25,2070 L107.0313,2070 L107.8125,2070 L108.5938,2070 L109.375,2070 L110.1563,2070 L110.9375,2070 L111.7188,2070 L112.5,2070 L113.2813,2070 L114.0625,2070 L114.8438,2070 L115.625,2070 L116.4063,2070 L117.1875,2070 L117.9688,2070 L118.75,2070 L119.5313,2070 L120.3125,2070 L121.0938,2070 L121.875,2070 L122.6563,2070 L123.4375,2070 L124.2188,2070 L125,2070 L125.7813,2070 L126.5625,2070 L127.3438,2070 L128.125,2070 L128.9063,2070 L129.6875,2070 L130.4688,2070 L131.25,2070 L132.0313,2070 L132.8125,2070 L133.5938,2070 L134.375,2070 L135.1563,2070 L135.9375,2070 L136.7188,2070 L137.5,2070 L138.2813,2070 L139.0625,2070 L139.8438,2070 L140.625,2070 L141.4063,2070 L142.1875,2070 L142.9688,2070 L143.75,2070 L144.5313,2070 L145.3125,2070 L146.0938,2070 L146.875,2070 L147.6563,2070 L148.4375,2070 L149.2188,2070 L150,2070 L150.7813,2070 L151.5625,2070 L152.3438,2070 L153.125,2070 L153.9063,2070 L154.6875,2070 L155.4688,2070 L156.25,2070 L157.0313,2070 L157.8125,2070 L158.5938,2070 L159.375,2070 L160.1563,2070 L160.9375,2070 L161.7188,2070 L162.5,2070 L163.2813,2070 L164.0625,2070 L164.8438,2070 L165.625,2070 L166.4063,2070 L167.1875,2070 L167.9688,2070 L168.75,2070 L169.5313,2070 L170.3125,2070 L171.0938,2070 L171.875,2070 L172.6563,2070 L173.4375,2070 L174.2188,2070 L175,2070 L175.7813,2070 L176.5625,2070 L177.3438,2070 L178.125,2070 L178.9063,2070 L179.6875,2070 L180.4688,2070 L181.25,2070 L182.0313,2070 L182.8125,2070 L183.5938,2070 L184.375,2070 L185.1563,2070 L185.9375,2070 L186.7188,2070 L187.5,2070 L188.2813,2070 L189.0625,2070 L189.8438,2070 L190.625,2070 L191.4063,2070 L192.1875,2070 L192.9688,2070 L193.75,2070 L194.5313,2070 L195.3125,2070 L196.0938,2070 L196.875,2070 L197.6563,2070 L198.4375,2070 L199.2188,2070 L200,2070 L200.7813,2070 L201.5625,2070 L202.3438,2070 L203.125,2070 L203.9063,2070 L204.6875,2070 L205.4688,2070 L206.25,2070 L207.0313,2070 L207.8125,2070 L208.5938,2070 L209.375,2070 L210.1563,2070 L210.9375,2070 L211.7188,2070 L212.5,2070 L213.2813,2070 L214.0625,2070 L214.8438,2070 L215.625,2070 L216.4063,2070 L217.1875,2070 L217.9688,2070 L218.75,2070 L219.5313,2070 L220.3125,2070 L221.0938,2070 L221.875,2070 L222.6563,2070 L223.4375,2070 L224.2188,2070 L225,2070 L225.7813,2070 L226.5625,2070 L227.3438,2070 L228.125,2070 L228.9063,2070 L229.6875,2070 L230.4688,2070 L231.25,2070 L232.0313,2070 L232.8125,2070 L233.5938,2070 L234.375,2070 L235.1563,2070 L235.9375,2070 L236.7188,2070 L237.5,2070 L238.2813,2070 L239.0625,2070 L239.8438,2070 L240.625,2070 L241.4063,2070 L242.1875,2070 L242.9688,2070 L243.75,2070 L244.5313,2070 L245.3125,2070 L246.0938,2070 L246.875,2070 L247.6563,2070 L248.4375,2070 L249.2188,2070 L250,2070 L250.7813,2070 L251.5625,2070 L252.3438,2070 L253.125,2070 L253.9063,2070 L254.6875,2070 L255.4688,2070 L256.25,2070 L257.0313,2070 L257.8125,2070 L258.5938,2070 L259.375,2070 L260.1563,2070 L260.9375,2070 L261.7188,2070 L262.5,2070 L263.2813,2070 L264.0625,2070 L264.8438,2070 L265.625,2070 L266.4063,2070 L267.1875,2070 L267.9688,2070 L268.75,2070 L269.5313,2070 L270.3125,2070 L271.0938,2070 L271.875,2070 L272.6563,2070 L273.4375,2070 L274.2188,2070 L275,2070 L275.7813,2070 L276.5625,2070 L277.3438,2070 L278.125,2070 L278.9063,2070 L279.6875,2070 L280.4688,2070 L281.25,2070 L282.0313,2070 L282.8125,2070 L283.5938,2070 L284.375,2070 L285.1563,2070 L285.9375,2070 L286.7188,2070 L287.5,2070 L288.2813,2070 L289.0625,2070 L289.8438,2070 L290.625,2070 L291.4063,2070 L292.1875,2070 L292.9688,2070 L293.75,2070 L294.5313,2070 L295.3125,2070 L296.0938,2070 L296.875,2070 L297.6563,2070 L298.4375,2070 L299.2188,2070 L300,2070 L300.7813,2070 L301.5625,2070 L302.3438,2070 L303.125,2070 L303.9063,2070 L304.6875,2070 L305.4688,2070 L306.25,2070 L307.0313,2070 L307.8125,2070 L308.5938,2070 L309.375,2070 L310.1563,2070 L310.9375,2070 L311.7188,2070 L312.5,2070 L313.2813,2070 L314.0625,2070 L314.8438,2070 L315.625,2070 L316.4063,2070 L317.1875,2070 L317.9688,2070 L318.75,2070 L319.5313,2070 L320.3125,2070 L321.0938,2070 L321.875,2070 L322.6563,2070 L323.4375,2070 L324.2188,2070 L325,2070 L325.7813,2070 L326.5625,2070 L327.3438,2070 L328.125,2070 L328.9063,2070 L329.6875,2070 L330.4688,2070 L331.25,2070 L332.0313,2070 L332.8125,2070 L333.5938,2070 L334.375,2070 L335.1563,2070 L335.9375,2070 L336.7188,2070 L337.5,2070 L338.2813,2070 L339.0625,2070 L339.8438,2070 L340.625,2070 L341.4063,2070 L342.1875,2070 L342.9688,2070 L343.75,2070 L344.5313,2070 L345.3125,2070 L346.0938,2070 L346.875,2070 L347.6563,2070 L348.4375,2070 L349.2188,2070 L350,2070 L350.7813,2070 L351.5625,2070 L352.3438,2070 L353.125,2070 L353.9063,2070 L354.6875,2070 L355.4688,2070 L356.25,2070 L357.0313,2070 L357.8125,2070 L358.5938,2070 L359.375,2070 L360.1563,2070 L360.9375,2070 L361.7188,2070 L362.5,2070 L363.2813,2070 L364.0625,2070 L364.8438,2070 L365.625,2070 L366.4063,2070 L367.1875,2070 L367.9688,2070 L368.75,2070 L369.5313,2070 L370.3125,2070 L371.0938,2070 L371.875,2070 L372.6563,2070 L373.4375,2070 L374.2188,2070 L375,2070 L375.7813,2070 L376.5625,2070 L377.3438,2070 L378.125,2070 L378.9063,2070 L379.6875,2070 L380.4688,2070 L381.25,2070 L382.0313,2070 L382.8125,2070 L383.5938,2070 L384.375,2070 L385.1563,2070 L385.9375,2070 L386.7188,2070 L387.5,2070 L388.2813,2070 L389.0625,2070 L389.8438,2070 L390.625,2070 L391.4063,2070 L392.1875,2070 L392.9688,2070 L393.75,2070 L394.5313,2070 L395.3125,2070 L396.0938,2070 L396.875,2070 L397.6563,2070 L398.4375,2070 L399.2188,2070 L400,2070 L400.7813,2070 L401.5625,2070 L402.3438,2070 L403.125,2070 L403.9063,2070 L404.6875,2070 L405.4688,2070 L406.25,2070 L407.0313,2070 L407.8125,2070 L408.5938,2070 L409.375,2070 L410.1563,2070 L410.9375,2070 L411.7188,2070 L412.5,2070 L413.2813,2070 L414.0625,2070 L414.8438,2070 L415.625,2070 L416.4063,2070 L417.1875,2070 L417.9688,2070 L418.75,2070 L419.5313,2070 L420.3125,2070 L421.0938,2070 L421.875,2070 L422.6563,2070 L423.4375,2070 L424.2188,2070 L425,2070 L425.7813,2070 L426.5625,2070 L427.3438,2070 L428.125,2070 L428.9063,2070 L429.6875,2070 L430.4688,2070 " stroke="blue" fill="none" />
<text x="50" y="2120" font-family="Arial" font-size="12" fill="black">Entropy</text>
<text x="50" y="2135" font-family="Arial" font-size="10" fill="black">0.2288813</text>
<text x="50" y="2350" font-family="Arial" font-size="10" fill="black">0</text>
<path d="M50,2140 L50.78125,2140 L51.5625,2140 L52.34375,2140 L53.125,2140 L53.90625,2140 L54.6875,2140 L55.46875,2140 L56.25,2140 L57.03125,2140 L57.8125,2140 L58.59375,2140 L59.375,2140 L60.15625,2140 L60.9375,2140 L61.71875,2140 L62.5,2140 L63.28125,2140 L64.0625,2140 L64.84375,2140 L65.625,2140 L66.40625,2140 L67.1875,2140 L67.96875,2140 L68.75,2140 L69.53125,2140 L70.3125,2140 L71.09375,2140 L71.875,2140 L72.65625,2140 L73.4375,2140 L74.21875,2140 L75,2140 L75.78125,2140 L76.5625,2140 L77.34375,2140 L78.125,2140 L78.90625,2140 L79.6875,2140 L80.46875,2140 L81.25,2140 L82.03125,2140 L82.8125,2140 L83.59375,2140 L84.375,2140 L85.15625,2140 L85.9375,2140 L86.71875,2140 L87.5,2140 L88.28125,2140 L89.0625,2140 L89.84375,2140 L90.625,2140 L91.40625,2140 L92.1875,2140 L92.96875,2140 L93.75,2140 L94.53125,2140 L95.3125,2140 L96.09375,2140 L96.875,2140 L97.65625,2140 L98.4375,2140 L99.21875,2140 L100,2140 L100.7813,2140 L101.5625,2140 L102.3438,2140 L103.125,2140 L103.9063,2140 L104.6875,2140 L105.4688,2140 L106.25,2140 L107.0313,2140 L107.8125,2140 L108.5938,2140 L109.375,2140 L110.1563,2140 L110.9375,2140 L111.7188,2140 L112.5,2340 L113.2813,2340 L114.0625,2340 L114.8438,2340 L115.625,2340 L116.4063,2340 L117.1875,2340 L117.9688,2340 L118.75,2140 L119.5313,2140 L120.3125,2140 L121.0938,2140 L121.875,2140 L122.6563,2140 L123.4375,2140 L124.2188,2140 L125,2140 L125.7813,2140 L126.5625,2140 L127.3438,2140 L128.125,2140 L128.9063,2140 L129.6875,2140 L130.4688,2140 L131.25,2140 L132.0313,2140 L132.8125,2140 L133.5938,2140 L134.375,2140 L135.1563,2140 L135.9375,2140 L136.7188,2140 L137.5,2140 L138.2813,2140 L139.0625,2140 L139.8438,2140 L140.625,2140 L141.4063,2140 L142.1875,2140 L142.9688,2140 L143.75,2140 L144.5313,2140 L145.3125,2140 L146.0938,2140 L146.875,2140 L147.6563,2140 L148.4375,2140 L149.2188,2140 L150,2140 L150.7813,2140 L151.5625,2140 L152.3438,2140 L153.125,2140 L153.9063,2140 L154.6875,2140 L155.4688,2140 L156.25,2140 L157.0313,2140 L157.8125,2140 L158.5938,2140 L159.375,2140 L160.1563,2140 L160.9375,2140 L161.7188,2140 L162.5,2140 L163.2813,2140 L164.0625,2140 L164.8438,2140 L165.625,2140 L166.4063,2140 L167.1875,2140 L167.9688,2140 L168.75,2340 L169.5313,2340 L170.3125,2340 L171.0938,2340 L171.875,2340 L172.6563,2340 L173.4375,2340 L174.2188,2340 L175,2340 L175.7813,2340 L176.5625,2340 L177.3438,2340 L178.125,2340 L178.9063,2340 L179.6875,2340 L180.4688,2340 L181.25,2140 L182.0313,2140 L182.8125,2140 L183.5938,2140 L184.375,2140 L185.1563,2140 L185.9375,2140 L186.7188,2140 L187.5,2140 L188.2813,2140 L189.0625,2140 L189.8438,2140 L190.625,2140 L191.4063,2140 L192.1875,2140 L192.9688,2140 L193.75,2340 L194.5313,2340 L195.3125,2340 L196.0938,2340 L196.875,2340 L197.6563,2340 L198.4375,2340 L199.2188,2340 L200,2140 L200.7813,2140 L201.5625,2140 L202.3438,2140 L203.125,2140 L203.9063,2140 L204.6875,2140 L205.4688,2140 L206.25,2340 L207.0313,2340 L207.8125,2340 L208.5938,2340 L209.375,2340 L210.1563,2340 L210.9375,2340 L211.7188,2340 L212.5,2340 L213.2813,2340 L214.0625,2340 L214.8438,2340 L215.625,2340 L216.4063,2340 L217.1875,2340 L217.9688,2340 L218.75,2340 L219.5313,2340 L220.3125,2340 L221.0938,2340 L221.875,2340 L222.6563,2340 L223.4375,2340 L224.2188,2340 L225,2140 L225.7813,2140 L226.5625,2140 L227.3438,2140 L228.125,2140 L228.9063,2140 L229.6875,2140 L230.4688,2140 L231.25,2340 L232.0313,2340 L232.8125,2340 L233.5938,2340 L234.375,2340 L235.1563,2340 L235.9375,2340 L236.7188,2340 L237.5,2340 L238.2813,2340 L239.0625,2340 L239.8438,2340 L240.625,2340 L241.4063,2340 L242.1875,2340 L242.9688,2340 L243.75,2340 L244.5313,2340 L245.3125,2340 L246.0938,2340 L246.875,2340 L247.6563,2340 L248.4375,2340 L249.2188,2340 L250,2340 L250.7813,2340 L251.5625,2340 L252.3438,2340 L253.125,2340 L253.9063,2340 L254.6875,2340 L255.4688,2340 L256.25,2340 L257.0313,2340 L257.8125,2340 L258.5938,2340 L259.375,2340 L260.1563,2340 L260.9375,2340 L261.7188,2340 L262.5,2140 L263.2813,2140 L264.0625,2140 L264.8438,2140 L265.625,2140 L266.4063,2140 L267.1875,2140 L267.9688,2140 L268.75,2340 L269.5313,2340 L270.3125,2340 L271.0938,2340 L271.875,2340 L272.6563,2340 L273.4375,2340 L274.2188,2340 L275,2140 L275.7813,2140 L276.5625,2140 L277.3438,2140 L278.125,2140 L278.9063,2140 L279.6875,2140 L280.4688,2140 L281.25,2340 L282.0313,2340 L282.8125,2340 L283.5938,2340 L284.375,2340 L285.1563,2340 L285.9375,2340 L286.7188,2340 L287.5,2340 L288.2813,2340 L289.0625,2340 L289.8438,2340 L290.625,2340 L291.4063,2340 L292.1875,2340 L292.9688,2340 L293.75,2340 L294.5313,2340 L295.3125,2340 L296.0938,2340 L296.875,2340 L297.6563,2340 L298.4375,2340 L299.2188,2340 L300,2140 L300.7813,2140 L301.5625,2140 L302.3438,2140 L303.125,2140 L303.9063,2140 L304.6875,2140 L305.4688,2140 L306.25,2140 L307.0313,2140 L307.8125,2140 L308.5938,2140 L309.375,2140 L310.1563,2140 L310.9375,2140 L311.7188,2140 L312.5,2340 L313.2813,2340 L314.0625,2340 L314.8438,2340 L315.625,2340 L316.4063,2340 L317.1875,2340 L317.9688,2340 L318.75,2140 L319.5313,2140 L320.3125,2140 L321.0938,2140 L321.875,2140 L322.6563,2140 L323.4375,2140 L324.2188,2140 L325,2140 L325.7813,2140 L326.5625,2140 L327.3438,2140 L328.125,2140 L328.9063,2140 L329.6875,2140 L330.4688,2140 L331.25,2340 L332.0313,2340 L332.8125,2340 L333.5938,2340 L334.375,2340 L335.1563,2340 L335.9375,2340 L336.7188,2340 L337.5,2340 L338.2813,2340 L339.0625,2340 L339.8438,2340 L340.625,2340 L341.4063,2340 L342.1875,2340 L342.9688,2340 L343.75,2340 L344.5313,2340 L345.3125,2340 L346.0938,2340 L346.875,2340 L347.6563,2340 L348.4375,2340 L349.2188,2340 L350,2140 L350.7813,2140 L351.5625,2140 L352.3438,2140 L353.125,2140 L353.9063,2140 L354.6875,2140 L355.4688,2140 L356.25,2140 L357.0313,2140 L357.8125,2140 L358.5938,2140 L359.375,2140 L360.1563,2140 L360.9375,2140 L361.7188,2140 L362.5,2140 L363.2813,2140 L364.0625,2140 L364.8438,2140 L365.625,2140 L366.4063,2140 L367.1875,2140 L367.9688,2140 L368.75,2340 L369.5313,2340 L370.3125,2340 L371.0938,2340 L371.875,2340 L372.6563,2340 L373.4375,2340 L374.2188,2340 L375,2140 L375.7813,2140 L376.5625,2140 L377.3438,2140 L378.125,2140 L378.9063,2140 L379.6875,2140 L380.4688,2140 L381.25,2140 L382.0313,2140 L382.8125,2140 L383.5938,2140 L384.375,2140 L385.1563,2140 L385.9375,2140 L386.7188,2140 L387.5,2340 L388.2813,2340 L389.0625,2340 L389.8438,2340 L390.625,2340 L391.4063,2340 L392.1875,2340 L392.9688,2340 L393.75,2140 L394.5313,2140 L395.3125,2140 L396.0938,2140 L396.875,2140 L397.6563,2140 L398.4375,2140 L399.2188,2140 L400,2340 L400.7813,2340 L401.5625,2340 L402.3438,2340 L403.125,2340 L403.9063,2340 L404.6875,2340 L405.4688,2340 L406.25,2140 L407.0313,2140 L407.8125,2140 L408.5938,2140 L409.375,2140 L410.1563,2140 L410.9375,2140 L411.7188,2140 L412.5,2340 L413.2813,2340 L414.0625,2340 L414.8438,2340 L415.625,2340 L416.4063,2340 L417.1875,2340 L417.9688,2340 L418.75,2340 L419.5313,2340 L420.3125,2340 L421.0938,2340 L421.875,2340 L422.6563,2340 L423.4375,2340 L424.2188,2340 L425,2340 L425.7813,2340 L426.5625,2340 L427.3438,2340 L428.125,2340 L428.9063,2340 L429.6875,2340 L430.4688,2340 " stroke="blue" fill="none" />
<text x="750" y="770" font-family="Arial" font-size="12" fill="black">Simplified</text>
<text x="750" y="785" font-family="Arial" font-size="10" fill="black">21.73122</text>
<text x="750" y="1000" font-family="Arial" font-size="10" fill="black">10.0888</text>
<path d="M778.125,983.707 L807.8125,823.6152 L837.5,941.3112 L867.1875,892.634 L896.875,834.8441 L926.5625,907.498 L956.25,902.3177 L985.9375,871.8965 L1015.625,877.3751 L1045.313,790 L1075,990 " stroke="blue" fill="none" />
<text x="750" y="1040" font-family="Arial" font-size="12" fill="black">Simplified</text>
<text x="750" y="1055" font-family="Arial" font-size="10" fill="black">869.2632</text>
<text x="750" y="1270" font-family="Arial" font-size="10" fill="black">367.5789</text>
<path d="M778.125,1247.621 L807.8125,1112.833 L837.5,1209.664 L867.1875,1164.364 L896.875,1117.973 L926.5625,1186.29 L956.25,1178.653 L985.9375,1144.431 L1015.625,1162.14 L1045.313,1060 L1075,1260 " stroke="blue" fill="none" />
</svg>
