<svg width="2000" height="2500" xmlns="http://www.w3.org/2000/svg">
<text x="10" y="20" font-family="Arial" font-size="26" fill="black"> [Crawler] Training Session</text>
<text x="10" y="50" font-family="Arial" font-size="16" fill="black">[Statistics]</text>
<text x="50" y="70" font-family="Arial" font-size="12" fill="black">Started at: 10:45:16 PM, Wednesday, November 29, 2023</text>
<text x="50" y="90" font-family="Arial" font-size="12" fill="black">Finished at: 10:57:42 PM, Wednesday, November 29, 2023</text>
<text x="50" y="110" font-family="Arial" font-size="12" fill="black">Training Session Time: 0 hrs : 12 min : 25 sec</text>
<text x="50" y="130" font-family="Arial" font-size="12" fill="black">Inference Time: 1 hrs : 13 min : 21 sec       [Per agent: 1 hrs : 13 min : 21 sec]        [Device: CPU]</text>
<text x="50" y="150" font-family="Arial" font-size="12" fill="black">Policy Update Time: 0 hrs : 2 min : 28 sec        [Per iteration: 0 hrs : 0 min : 13 sec]        [Device: GPU]</text>
<text x="50" y="170" font-family="Arial" font-size="12" fill="black">Inference Time / Training Session Time: 5.896</text>
<text x="50" y="190" font-family="Arial" font-size="12" fill="black">Policy Update Time / Training Session Time: 0.199</text>
<text x="50" y="210" font-family="Arial" font-size="12" fill="black">Episode Count: 54</text>
<text x="50" y="230" font-family="Arial" font-size="12" fill="black">Inference Steps: 88148    [Per agent: 88148]     [Per Episode (mean): 1632]</text>
<text x="50" y="250" font-family="Arial" font-size="12" fill="black">Iterations: 11</text>
<text x="50" y="270" font-family="Arial" font-size="12" fill="black">Parallel Agents: 1</text>
<text x="50" y="290" font-family="Arial" font-size="12" fill="black">Timescale: 7.216756</text>
<text x="50" y="310" font-family="Arial" font-size="12" fill="black">Trainer: PPO</text>
<text x="10" y="360" font-family="Arial" font-size="16" fill="black">[Hyperparameters]</text>
<text x="50" y="380" font-family="Arial" font-size="12" fill="black">Buffer Size: 8000        [Batch Size: 400       (x20)]</text>
<text x="50" y="400" font-family="Arial" font-size="12" fill="black">Num Epoch: 8</text>
<text x="50" y="420" font-family="Arial" font-size="12" fill="black">Time Horizon: 512</text>
<text x="50" y="440" font-family="Arial" font-size="12" fill="black">Gradient Cliping Normalization: 0.5</text>
<text x="50" y="460" font-family="Arial" font-size="12" fill="black">Learning Rate Schedule: False    </text>
<text x="10" y="510" font-family="Arial" font-size="16" fill="black">[Behaviour]</text>
<text x="50" y="530" font-family="Arial" font-size="12" fill="black">Space Size: 126</text>
<text x="50" y="550" font-family="Arial" font-size="12" fill="black">Continuous Actions: 20 [Standard Deviation: Fixed]     [Value: 1.51]</text>
<text x="50" y="570" font-family="Arial" font-size="12" fill="black">Discrete Actions: 0</text>
<text x="50" y="590" font-family="Arial" font-size="12" fill="black">TargetFPS: 80 (physics update rate)</text>
<text x="50" y="610" font-family="Arial" font-size="12" fill="black">Observations Normalization: True</text>
<text x="10" y="660" font-family="Arial" font-size="16" fill="black">[Decision Requester]</text>
<text x="50" y="680" font-family="Arial" font-size="12" fill="black">Max Step: 0</text>
<text x="50" y="700" font-family="Arial" font-size="12" fill="black">Decision Period: 4      [Actions Between Decisions: True]</text>
<text x="10" y="750" font-family="Arial" font-size="16" fill="black">[Graphs]</text>
<text x="50" y="770" font-family="Arial" font-size="12" fill="black">Episode Reward (54)</text>
<text x="50" y="785" font-family="Arial" font-size="10" fill="black">16.91365</text>
<text x="50" y="1000" font-family="Arial" font-size="10" fill="black">0.06764676</text>
<path d="M50,988.3838 L56.25,954.8742 L62.5,961.7452 L68.75,941.8541 L75,952.325 L81.25,889.7934 L87.5,867.3805 L93.75,955.3568 L100,902.2859 L106.25,865.3159 L112.5,984.0287 L118.75,959.3537 L125,960.4794 L131.25,942.9371 L137.5,942.9904 L143.75,979.0468 L150,887.3504 L156.25,989.0746 L162.5,965.3729 L168.75,966.6101 L175,891.5516 L181.25,981.8666 L187.5,990 L193.75,923.527 L200,975.2623 L206.25,892.1569 L212.5,910.1784 L218.75,946.329 L225,946.6135 L231.25,918.3318 L237.5,918.6549 L243.75,969.939 L250,987.2903 L256.25,790 L262.5,918.3354 L268.75,956.9119 L275,973.4402 L281.25,905.6538 L287.5,962.7806 L293.75,944.4364 L300,979.1126 L306.25,929.0289 L312.5,975.0905 L318.75,936.7375 L325,951.2207 L331.25,844.6987 L337.5,902.5476 L343.75,948.6353 L350,989.874 L356.25,923.3833 L362.5,933.6185 L368.75,987.0164 L375,813.7335 L381.25,938.2672 " stroke="blue" fill="none" />
<text x="50" y="1040" font-family="Arial" font-size="12" fill="black">Episode Length (54)</text>
<text x="50" y="1055" font-family="Arial" font-size="10" fill="black">5923</text>
<text x="50" y="1270" font-family="Arial" font-size="10" fill="black">27</text>
<path d="M50,1258.745 L56.25,1222.754 L62.5,1231.337 L68.75,1208.168 L75,1215.631 L81.25,1155.251 L87.5,1124.281 L93.75,1227.164 L100,1177.673 L106.25,1143.379 L112.5,1254.912 L118.75,1232.083 L125,1227.402 L131.25,1205.217 L137.5,1210.407 L143.75,1247.246 L150,1165.224 L156.25,1259.491 L162.5,1237.815 L168.75,1238.392 L175,1164.444 L181.25,1250.434 L187.5,1260 L193.75,1190.801 L200,1246.703 L206.25,1155.828 L212.5,1183.982 L218.75,1217.734 L225,1218.175 L231.25,1180.149 L237.5,1190.326 L243.75,1242.225 L250,1257.659 L256.25,1060 L262.5,1192.972 L268.75,1223.161 L275,1244.803 L281.25,1160.17 L287.5,1228.792 L293.75,1215.36 L300,1247.483 L306.25,1199.858 L312.5,1246.364 L318.75,1200.74 L325,1225.231 L331.25,1109.864 L337.5,1161.594 L343.75,1217.293 L350,1260 L356.25,1199.484 L362.5,1200.706 L368.75,1257.083 L375,1089.037 L381.25,1191.479 " stroke="blue" fill="none" />
<text x="50" y="1310" font-family="Arial" font-size="12" fill="black">Policy Loss</text>
<text x="50" y="1325" font-family="Arial" font-size="10" fill="black">0.01936664</text>
<text x="50" y="1540" font-family="Arial" font-size="10" fill="black">0.001232808</text>
<path d="M50,1403.956 L53.125,1527.28 L56.25,1519.354 L59.375,1518.971 L62.5,1526.74 L65.625,1520.009 L68.75,1528.122 L71.875,1515.64 L75,1330 L78.125,1522.416 L81.25,1521.292 L84.375,1524.598 L87.5,1518.706 L90.625,1522.169 L93.75,1523.7 L96.875,1521.553 L100,1434.436 L103.125,1519.376 L106.25,1520.7 L109.375,1522.186 L112.5,1524.391 L115.625,1518.7 L118.75,1521.763 L121.875,1523.631 L125,1390.775 L128.125,1519.042 L131.25,1524.692 L134.375,1527.276 L137.5,1521.475 L140.625,1519.215 L143.75,1524.314 L146.875,1522.03 L150,1401.056 L153.125,1523.783 L156.25,1518.957 L159.375,1523.64 L162.5,1520.083 L165.625,1527.21 L168.75,1526.664 L171.875,1517.165 L175,1391.404 L178.125,1529.59 L181.25,1520.852 L184.375,1518.825 L187.5,1522.969 L190.625,1517.331 L193.75,1513.706 L196.875,1524.784 L200,1390.963 L203.125,1520.456 L206.25,1520.246 L209.375,1520.26 L212.5,1527.348 L215.625,1523.737 L218.75,1519.517 L221.875,1520.386 L225,1367.326 L228.125,1521.299 L231.25,1519.531 L234.375,1525.687 L237.5,1515.512 L240.625,1528.101 L243.75,1526.293 L246.875,1524.391 L250,1401.962 L253.125,1521.699 L256.25,1526.215 L259.375,1528.533 L262.5,1522.281 L265.625,1521.028 L268.75,1523.54 L271.875,1518.419 L275,1428.981 L278.125,1515.012 L281.25,1514.763 L284.375,1526.034 L287.5,1526.169 L290.625,1520.272 L293.75,1522.691 L296.875,1527.28 L300,1432.081 L303.125,1530 L306.25,1515.861 L309.375,1522.048 L312.5,1523.793 L315.625,1520.837 L318.75,1525.306 L321.875,1526.614 " stroke="blue" fill="none" />
<text x="50" y="1580" font-family="Arial" font-size="12" fill="black">Value Loss</text>
<text x="50" y="1595" font-family="Arial" font-size="10" fill="black">0.0001219667</text>
<text x="50" y="1810" font-family="Arial" font-size="10" fill="black">5.939391E-06</text>
<path d="M50,1777.859 L53.125,1787.703 L56.25,1791.541 L59.375,1793.459 L62.5,1794.605 L65.625,1795.492 L68.75,1796.21 L71.875,1796.829 L75,1778.244 L78.125,1773.583 L81.25,1792.492 L84.375,1795.208 L87.5,1796.177 L90.625,1796.757 L93.75,1797.323 L96.875,1797.842 L100,1616.504 L103.125,1648.111 L106.25,1680.704 L109.375,1697.819 L112.5,1706.425 L115.625,1713.65 L118.75,1719.192 L121.875,1726.993 L125,1710.559 L128.125,1750.181 L131.25,1762.786 L134.375,1766.765 L137.5,1769.354 L140.625,1771.364 L143.75,1773.323 L146.875,1774.62 L150,1773.075 L153.125,1781.138 L156.25,1786.848 L159.375,1788.932 L162.5,1789.992 L165.625,1790.941 L168.75,1791.665 L171.875,1792.411 L175,1766.668 L178.125,1772.458 L181.25,1779.329 L184.375,1782.003 L187.5,1783.689 L190.625,1784.915 L193.75,1786.19 L196.875,1787.044 L200,1790.771 L203.125,1794.189 L206.25,1796.74 L209.375,1797.792 L212.5,1798.543 L215.625,1799.179 L218.75,1799.551 L221.875,1800 L225,1767.608 L228.125,1769.762 L231.25,1782.906 L234.375,1785.873 L237.5,1787.213 L240.625,1788.151 L243.75,1788.963 L246.875,1789.56 L250,1777.247 L253.125,1780.365 L256.25,1786.917 L259.375,1789.135 L262.5,1790.21 L265.625,1791.055 L268.75,1791.818 L271.875,1792.414 L275,1640.539 L278.125,1727.257 L281.25,1752.146 L284.375,1763.088 L287.5,1768.801 L290.625,1773.099 L293.75,1776.224 L296.875,1778.552 L300,1621.068 L303.125,1600.017 L306.25,1647.499 L309.375,1664.747 L312.5,1674.348 L315.625,1678.314 L318.75,1680.374 L321.875,1683.577 " stroke="blue" fill="none" />
<text x="50" y="1850" font-family="Arial" font-size="12" fill="black">Learning Rate</text>
<text x="50" y="1865" font-family="Arial" font-size="10" fill="black">0.0003</text>
<text x="50" y="2080" font-family="Arial" font-size="10" fill="black">0.0003</text>
<path d="M50,2070 L53.125,2070 L56.25,2070 L59.375,2070 L62.5,2070 L65.625,2070 L68.75,2070 L71.875,2070 L75,2070 L78.125,2070 L81.25,2070 L84.375,2070 L87.5,2070 L90.625,2070 L93.75,2070 L96.875,2070 L100,2070 L103.125,2070 L106.25,2070 L109.375,2070 L112.5,2070 L115.625,2070 L118.75,2070 L121.875,2070 L125,2070 L128.125,2070 L131.25,2070 L134.375,2070 L137.5,2070 L140.625,2070 L143.75,2070 L146.875,2070 L150,2070 L153.125,2070 L156.25,2070 L159.375,2070 L162.5,2070 L165.625,2070 L168.75,2070 L171.875,2070 L175,2070 L178.125,2070 L181.25,2070 L184.375,2070 L187.5,2070 L190.625,2070 L193.75,2070 L196.875,2070 L200,2070 L203.125,2070 L206.25,2070 L209.375,2070 L212.5,2070 L215.625,2070 L218.75,2070 L221.875,2070 L225,2070 L228.125,2070 L231.25,2070 L234.375,2070 L237.5,2070 L240.625,2070 L243.75,2070 L246.875,2070 L250,2070 L253.125,2070 L256.25,2070 L259.375,2070 L262.5,2070 L265.625,2070 L268.75,2070 L271.875,2070 L275,2070 L278.125,2070 L281.25,2070 L284.375,2070 L287.5,2070 L290.625,2070 L293.75,2070 L296.875,2070 L300,2070 L303.125,2070 L306.25,2070 L309.375,2070 L312.5,2070 L315.625,2070 L318.75,2070 L321.875,2070 " stroke="blue" fill="none" />
<text x="50" y="2120" font-family="Arial" font-size="12" fill="black">Entropy</text>
<text x="50" y="2135" font-family="Arial" font-size="10" fill="black">-0.09155266</text>
<text x="50" y="2350" font-family="Arial" font-size="10" fill="black">-0.09155266</text>
<path d="M50,2340 L53.125,2340 L56.25,2340 L59.375,2340 L62.5,2340 L65.625,2340 L68.75,2340 L71.875,2340 L75,2340 L78.125,2340 L81.25,2340 L84.375,2340 L87.5,2340 L90.625,2340 L93.75,2340 L96.875,2340 L100,2340 L103.125,2340 L106.25,2340 L109.375,2340 L112.5,2340 L115.625,2340 L118.75,2340 L121.875,2340 L125,2340 L128.125,2340 L131.25,2340 L134.375,2340 L137.5,2340 L140.625,2340 L143.75,2340 L146.875,2340 L150,2340 L153.125,2340 L156.25,2340 L159.375,2340 L162.5,2340 L165.625,2340 L168.75,2340 L171.875,2340 L175,2340 L178.125,2340 L181.25,2340 L184.375,2340 L187.5,2340 L190.625,2340 L193.75,2340 L196.875,2340 L200,2340 L203.125,2340 L206.25,2340 L209.375,2340 L212.5,2340 L215.625,2340 L218.75,2340 L221.875,2340 L225,2340 L228.125,2340 L231.25,2340 L234.375,2340 L237.5,2340 L240.625,2340 L243.75,2340 L246.875,2340 L250,2340 L253.125,2340 L256.25,2340 L259.375,2340 L262.5,2340 L265.625,2340 L268.75,2340 L271.875,2340 L275,2340 L278.125,2340 L281.25,2340 L284.375,2340 L287.5,2340 L290.625,2340 L293.75,2340 L296.875,2340 L300,2340 L303.125,2340 L306.25,2340 L309.375,2340 L312.5,2340 L315.625,2340 L318.75,2340 L321.875,2340 " stroke="blue" fill="none" />
<text x="750" y="770" font-family="Arial" font-size="12" fill="black">Simplified</text>
<text x="750" y="785" font-family="Arial" font-size="10" fill="black">4.710705</text>
<text x="750" y="1000" font-family="Arial" font-size="10" fill="black">4.14638</text>
<path d="M862.5,990 L981.25,790 L1081.25,794.0271 " stroke="blue" fill="none" />
<text x="750" y="1040" font-family="Arial" font-size="12" fill="black">Simplified</text>
<text x="750" y="1055" font-family="Arial" font-size="10" fill="black">1703</text>
<text x="750" y="1270" font-family="Arial" font-size="10" fill="black">1479</text>
<path d="M862.5,1260 L981.25,1085.141 L1081.25,1060 " stroke="blue" fill="none" />
</svg>
