<svg width="2000" height="2500" xmlns="http://www.w3.org/2000/svg">
<text x="10" y="20" font-family="Arial" font-size="26" fill="black"> [Crawler] Training Session</text>
<text x="10" y="50" font-family="Arial" font-size="16" fill="black">[Statistics]</text>
<text x="50" y="70" font-family="Arial" font-size="12" fill="black">Started at: 11:12:07 PM, Wednesday, December 6, 2023</text>
<text x="50" y="90" font-family="Arial" font-size="12" fill="black">Finished at: 11:25:59 PM, Wednesday, December 6, 2023</text>
<text x="50" y="110" font-family="Arial" font-size="12" fill="black">Training Session Time: 0 hrs : 13 min : 51 sec</text>
<text x="50" y="130" font-family="Arial" font-size="12" fill="black">Inference Time: 3 hrs : 24 min : 31 sec       [Per agent: 3 hrs : 24 min : 31 sec]        [Device: CPU]</text>
<text x="50" y="150" font-family="Arial" font-size="12" fill="black">Policy Update Time: 0 hrs : 4 min : 4 sec        [Per iteration: 0 hrs : 0 min : 11 sec]        [Device: GPU]</text>
<text x="50" y="170" font-family="Arial" font-size="12" fill="black">Inference Time / Training Session Time: 14.681</text>
<text x="50" y="190" font-family="Arial" font-size="12" fill="black">Policy Update Time / Training Session Time: 0.296</text>
<text x="50" y="210" font-family="Arial" font-size="12" fill="black">Episode Count: 475</text>
<text x="50" y="230" font-family="Arial" font-size="12" fill="black">Inference Steps: 249365    [Per agent: 249365]     [Per Episode (mean): 524]</text>
<text x="50" y="250" font-family="Arial" font-size="12" fill="black">Iterations: 24</text>
<text x="50" y="270" font-family="Arial" font-size="12" fill="black">Parallel Agents: 1</text>
<text x="50" y="290" font-family="Arial" font-size="12" fill="black">Timescale: 23.05</text>
<text x="50" y="310" font-family="Arial" font-size="12" fill="black">Trainer: PPO</text>
<text x="10" y="360" font-family="Arial" font-size="16" fill="black">[Hyperparameters]</text>
<text x="50" y="380" font-family="Arial" font-size="12" fill="black">Buffer Size: 10240        [Batch Size: 512       (x20)]</text>
<text x="50" y="400" font-family="Arial" font-size="12" fill="black">Num Epoch: 8</text>
<text x="50" y="420" font-family="Arial" font-size="12" fill="black">Time Horizon: 128</text>
<text x="50" y="440" font-family="Arial" font-size="12" fill="black">Gradient Cliping Normalization: 0.5</text>
<text x="50" y="460" font-family="Arial" font-size="12" fill="black">Learning Rate Schedule: False    </text>
<text x="10" y="510" font-family="Arial" font-size="16" fill="black">[Behaviour]</text>
<text x="50" y="530" font-family="Arial" font-size="12" fill="black">Space Size: 126</text>
<text x="50" y="550" font-family="Arial" font-size="12" fill="black">Continuous Actions: 20 [Standard Deviation: Fixed]     [Value: 1.75]</text>
<text x="50" y="570" font-family="Arial" font-size="12" fill="black">Discrete Actions: 0</text>
<text x="50" y="590" font-family="Arial" font-size="12" fill="black">TargetFPS: 100 (physics update rate)</text>
<text x="50" y="610" font-family="Arial" font-size="12" fill="black">Observations Normalization: True</text>
<text x="10" y="660" font-family="Arial" font-size="16" fill="black">[Decision Requester]</text>
<text x="50" y="680" font-family="Arial" font-size="12" fill="black">Max Step: 0</text>
<text x="50" y="700" font-family="Arial" font-size="12" fill="black">Decision Period: 5      [Actions Between Decisions: True]</text>
<text x="10" y="750" font-family="Arial" font-size="16" fill="black">[Graphs]</text>
<text x="50" y="770" font-family="Arial" font-size="12" fill="black">Episode Reward (475)</text>
<text x="50" y="785" font-family="Arial" font-size="10" fill="black">22.13337</text>
<text x="50" y="1000" font-family="Arial" font-size="10" fill="black">-0.8911568</text>
<path d="M50,954.0989 L50.78125,937.4542 L51.5625,973.4526 L52.34375,973.4128 L53.125,974.8439 L53.90625,975.3576 L54.6875,926.1854 L55.46875,946.2653 L56.25,938.1101 L57.03125,868.8334 L57.8125,955.2756 L58.59375,972.439 L59.375,975.214 L60.15625,957.2988 L60.9375,865.1762 L61.71875,975.7658 L62.5,931.7861 L63.28125,911.853 L64.0625,843.6157 L64.84375,899.9542 L65.625,937.8207 L66.40625,970.7352 L67.1875,981.3428 L67.96875,976.1863 L68.75,967.2997 L69.53125,970.0844 L70.3125,980.0543 L71.09375,790 L71.875,973.5479 L72.65625,979.483 L73.4375,965.2832 L74.21875,902.1867 L75,980.5288 L75.78125,976.2072 L76.5625,978.6741 L77.34375,975.7923 L78.125,976.9193 L78.90625,977.3037 L79.6875,979.8583 L80.46875,894.1652 L81.25,955.6529 L82.03125,985.6515 L82.8125,980.1642 L83.59375,951.6016 L84.375,967.1061 L85.15625,972.4364 L85.9375,978.3045 L86.71875,976.3383 L87.5,978.259 L88.28125,974.969 L89.0625,856.1873 L89.84375,974.6766 L90.625,965.743 L91.40625,966.9664 L92.1875,978.6274 L92.96875,958.7445 L93.75,976.1736 L94.53125,976.9827 L95.3125,980.1065 L96.09375,975.3992 L96.875,962.9212 L97.65625,975.1995 L98.4375,965.6378 L99.21875,978.0854 L100,974.1784 L100.7813,986.2651 L101.5625,938.8181 L102.3438,953.3898 L103.125,942.8104 L103.9063,980.4288 L104.6875,965.1639 L105.4688,977.1231 L106.25,971.5421 L107.0313,966.234 L107.8125,975.4871 L108.5938,980.0931 L109.375,973.6477 L110.1563,990 L110.9375,964.1303 L111.7188,957.0739 L112.5,980.7491 L113.2813,989.078 L114.0625,975.4847 L114.8438,962.5847 L115.625,957.7101 L116.4063,971.1093 L117.1875,910.0492 L117.9688,949.3585 L118.75,977.8661 L119.5313,969.1924 L120.3125,950.7053 L121.0938,978.8443 L121.875,973.2508 L122.6563,976.1509 L123.4375,980.799 L124.2188,979.0341 L125,974.3267 L125.7813,978.744 L126.5625,890.9586 L127.3438,934.1923 L128.125,989.8173 L128.9063,980.0673 L129.6875,944.8137 L130.4688,960.6489 L131.25,975.5924 L132.0313,978.8751 L132.8125,966.6829 L133.5938,924.9391 L134.375,971.5117 L135.1563,966.8387 L135.9375,932.1017 L136.7188,955.5784 L137.5,937.7444 L138.2813,968.0309 L139.0625,977.7661 L139.8438,979.1531 L140.625,980.1909 L141.4063,974.0632 L142.1875,980.5347 L142.9688,969.4263 L143.75,971.1588 L144.5313,941.072 L145.3125,885.1998 L146.0938,872.8138 L146.875,978.0431 L147.6563,976.6006 L148.4375,974.6754 L149.2188,980.4038 L150,964.8087 L150.7813,977.8148 L151.5625,943.0935 L152.3438,873.7283 L153.125,973.5472 L153.9063,978.1812 L154.6875,976.1593 L155.4688,974.0742 L156.25,975.9756 L157.0313,946.3093 L157.8125,977.7714 L158.5938,955.0915 L159.375,980.1346 L160.1563,968.6725 L160.9375,975.8917 L161.7188,905.8696 L162.5,979.2797 L163.2813,973.5859 L164.0625,875.7646 L164.8438,987.8976 L165.625,979.3428 L166.4063,977.6982 L167.1875,981.2878 L167.9688,975.8807 L168.75,973.2346 L169.5313,976.059 L170.3125,932.8224 L171.0938,981.1147 L171.875,971.7343 L172.6563,975.7115 L173.4375,977.1489 L174.2188,965.1277 L175,975.5145 L175.7813,962.1763 L176.5625,976.0027 L177.3438,889.9354 L178.125,917.9811 L178.9063,903.3001 L179.6875,975.8519 L180.4688,951.7181 L181.25,976.3054 L182.0313,980.5214 L182.8125,988.4221 L183.5938,975.2697 L184.375,978.0646 L185.1563,960.0101 L185.9375,948.325 L186.7188,951.0386 L187.5,935.6071 L188.2813,978.7901 L189.0625,976.2228 L189.8438,971.6174 L190.625,974.9883 L191.4063,912.3921 L192.1875,976.0576 L192.9688,972.5479 L193.75,918.0911 L194.5313,978.8854 L195.3125,980.0891 L196.0938,937.9634 L196.875,948.0751 L197.6563,975.4924 L198.4375,943.2285 L199.2188,917.572 L200,947.7029 L200.7813,937.6255 L201.5625,977.5485 L202.3438,965.3019 L203.125,980.6368 L203.9063,980.7413 L204.6875,975.97 L205.4688,980.5115 L206.25,962.2624 L207.0313,956.3802 L207.8125,906.3455 L208.5938,976.3485 L209.375,973.0157 L210.1563,886.3044 L210.9375,972.6257 L211.7188,979.3681 L212.5,948.1068 L213.2813,977.0573 L214.0625,946.2992 L214.8438,975.2732 L215.625,980.0024 L216.4063,970.6635 L217.1875,901.7359 L217.9688,978.1773 L218.75,961.3544 L219.5313,976.6042 L220.3125,928.9603 L221.0938,968.1942 L221.875,969.7725 L222.6563,979.697 L223.4375,978.8179 L224.2188,976.6094 L225,976.5202 L225.7813,970.1287 L226.5625,953.5501 L227.3438,973.6294 L228.125,931.0833 L228.9063,963.8004 L229.6875,977.4094 L230.4688,947.6259 L231.25,977.5101 L232.0313,966.497 L232.8125,971.8818 L233.5938,966.3145 L234.375,849.5497 L235.1563,961.3099 L235.9375,963.6713 L236.7188,964.3395 L237.5,977.9568 L238.2813,975.7992 L239.0625,979.3549 L239.8438,954.2095 L240.625,972.0029 L241.4063,968.2242 L242.1875,970.8004 L242.9688,979.4978 L243.75,978.0293 L244.5313,963.0263 L245.3125,980.277 L246.0938,964.4819 L246.875,977.7283 L247.6563,987.8241 L248.4375,878.8033 L249.2188,935.3022 L250,958.304 L250.7813,964.565 L251.5625,937.1639 L252.3438,973.152 L253.125,974.9222 L253.9063,971.1373 L254.6875,963.4373 L255.4688,980.8942 L256.25,976.862 L257.0313,966.518 L257.8125,964.9649 L258.5938,934.7756 L259.375,980.2656 L260.1563,980.7723 L260.9375,887.7302 L261.7188,960.1191 L262.5,979.5377 L263.2813,963.2113 L264.0625,977.2065 L264.8438,968.945 L265.625,973.2025 L266.4063,980.2451 L267.1875,969.2932 L267.9688,932.1204 L268.75,976.07 L269.5313,960.097 L270.3125,971.6025 L271.0938,972.0814 L271.875,963.4019 L272.6563,928.2156 L273.4375,966.3401 L274.2188,976.6863 L275,945.171 L275.7813,979.6877 L276.5625,964.634 L277.3438,962.8589 L278.125,977.8307 L278.9063,959.8195 L279.6875,973.6678 L280.4688,977.528 L281.25,975.9311 L282.0313,979.1575 L282.8125,980.5361 L283.5938,979.8242 L284.375,972.1978 L285.1563,960.1627 L285.9375,941.1464 L286.7188,882.2756 L287.5,979.2666 L288.2813,966.2744 L289.0625,952.6727 L289.8438,967.2735 L290.625,974.5129 L291.4063,974.4263 L292.1875,978.4176 L292.9688,980.0444 L293.75,964.8438 L294.5313,970.06 L295.3125,912.5182 L296.0938,938.5808 L296.875,967.6711 L297.6563,968.2551 L298.4375,969.7142 L299.2188,976.3601 L300,974.6768 L300.7813,966.4695 L301.5625,981.0004 L302.3438,970.4722 L303.125,972.8756 L303.9063,980.7699 L304.6875,925.8676 L305.4688,972.2592 L306.25,914.6899 L307.0313,979.4228 L307.8125,977.7769 L308.5938,930.6906 L309.375,980.4062 L310.1563,978.6012 L310.9375,964.8814 L311.7188,988.52 L312.5,976.6534 L313.2813,968.3517 L314.0625,942.8464 L314.8438,975.6918 L315.625,949.7348 L316.4063,975.6264 L317.1875,980.9346 L317.9688,950.0986 L318.75,970.4495 L319.5313,976.1365 L320.3125,937.3445 L321.0938,909.9279 L321.875,873.6698 L322.6563,980.0938 L323.4375,963.0498 L324.2188,942.9987 L325,979.997 L325.7813,886.8735 L326.5625,978.0518 L327.3438,977.2809 L328.125,977.4518 L328.9063,975.7559 L329.6875,978.4203 L330.4688,971.0118 L331.25,975.092 L332.0313,937.2044 L332.8125,976.0092 L333.5938,960.8837 L334.375,923.3131 L335.1563,951.6095 L335.9375,976.6261 L336.7188,973.075 L337.5,961.5383 L338.2813,913.5249 L339.0625,881.8287 L339.8438,933.5992 L340.625,927.8959 L341.4063,952.462 L342.1875,947.897 L342.9688,969.3719 L343.75,928.9752 L344.5313,899.7474 L345.3125,977.4459 L346.0938,971.3373 L346.875,957.9462 L347.6563,978.197 L348.4375,979.6468 L349.2188,926.0533 L350,971.5976 L350.7813,968.0397 L351.5625,944.5327 L352.3438,972.6217 L353.125,945.3428 L353.9063,918.958 L354.6875,938.4042 L355.4688,973.9614 L356.25,866.0131 L357.0313,905.6075 L357.8125,980.7944 L358.5938,965.7417 L359.375,971.7692 L360.1563,906.9637 L360.9375,973.2061 L361.7188,978.3896 L362.5,976.8777 L363.2813,967.8357 L364.0625,974.6105 L364.8438,969.6036 L365.625,954.1617 L366.4063,980.7947 L367.1875,972.3397 L367.9688,892.6663 L368.75,929.6813 L369.5313,972.7787 L370.3125,974.9201 L371.0938,972.3627 L371.875,955.7827 L372.6563,980.9028 L373.4375,980.1747 L374.2188,976.4167 L375,977.9192 L375.7813,941.9129 L376.5625,986.5107 L377.3438,973.7813 L378.125,953.7041 L378.9063,970.2839 L379.6875,963.5022 L380.4688,914.1606 L381.25,973.3483 L382.0313,965.134 L382.8125,977.6711 L383.5938,980.3284 L384.375,972.8541 L385.1563,943.5739 L385.9375,925.2341 L386.7188,946.7034 L387.5,977.8081 L388.2813,980.9108 L389.0625,964.2716 L389.8438,973.2134 L390.625,973.6807 L391.4063,974.7231 L392.1875,977.483 L392.9688,911.6971 L393.75,955.1072 L394.5313,983.1071 L395.3125,917.9925 L396.0938,962.5236 L396.875,980.7067 L397.6563,979.9543 L398.4375,899.0302 L399.2188,952.1575 L400,952.0785 L400.7813,930.66 L401.5625,980.048 L402.3438,918.6079 L403.125,921.2988 L403.9063,980.505 L404.6875,903.2799 L405.4688,970.2938 L406.25,974.0659 L407.0313,871.749 L407.8125,979.4105 L408.5938,860.1812 L409.375,965.293 L410.1563,957.5435 L410.9375,920.0611 L411.7188,977.2822 L412.5,963.0359 L413.2813,908.5956 L414.0625,885.6726 L414.8438,858.4717 L415.625,976.7706 L416.4063,955.455 L417.1875,978.0286 L417.9688,956.2881 L418.75,961.6572 L419.5313,976.2687 L420.3125,973.7961 " stroke="blue" fill="none" />
<text x="50" y="1040" font-family="Arial" font-size="12" fill="black">Episode Length (475)</text>
<text x="50" y="1055" font-family="Arial" font-size="10" fill="black">4082</text>
<text x="50" y="1270" font-family="Arial" font-size="10" fill="black">18</text>
<path d="M50,1228.061 L50.78125,1208.819 L51.5625,1252.274 L52.34375,1250.059 L53.125,1253.553 L53.90625,1253.602 L54.6875,1194.695 L55.46875,1234.409 L56.25,1201.486 L57.03125,1140.561 L57.8125,1219.892 L58.59375,1251.683 L59.375,1253.75 L60.15625,1233.425 L60.9375,1125.699 L61.71875,1248.238 L62.5,1211.427 L63.28125,1194.301 L64.0625,1114.134 L64.84375,1176.535 L65.625,1220.876 L66.40625,1249.124 L67.1875,1260 L67.96875,1254.439 L68.75,1245.335 L69.53125,1248.041 L70.3125,1258.77 L71.09375,1060 L71.875,1250.502 L72.65625,1257.736 L73.4375,1244.154 L74.21875,1167.677 L75,1259.163 L75.78125,1254.537 L76.5625,1256.85 L77.34375,1254.193 L78.125,1255.177 L78.90625,1255.128 L79.6875,1258.327 L80.46875,1154.783 L81.25,1230.472 L82.03125,1254.291 L82.8125,1258.868 L83.59375,1210.098 L84.375,1244.843 L85.15625,1251.585 L85.9375,1256.604 L86.71875,1254.045 L87.5,1256.949 L88.28125,1252.963 L89.0625,1131.506 L89.84375,1252.52 L90.625,1240.61 L91.40625,1244.547 L92.1875,1256.949 L92.96875,1233.425 L93.75,1254.439 L94.53125,1255.522 L95.3125,1258.425 L96.09375,1253.406 L96.875,1240.856 L97.65625,1253.209 L98.4375,1241.791 L99.21875,1256.211 L100,1252.224 L100.7813,1255.669 L101.5625,1219.006 L102.3438,1233.13 L103.125,1215.069 L103.9063,1258.917 L104.6875,1244.154 L105.4688,1255.522 L106.25,1250.502 L107.0313,1241.939 L107.8125,1253.504 L108.5938,1258.376 L109.375,1252.077 L110.1563,1259.803 L110.9375,1239.085 L111.7188,1235.492 L112.5,1259.213 L113.2813,1259.114 L114.0625,1252.717 L114.8438,1241.348 L115.625,1234.902 L116.4063,1249.665 L117.1875,1182.982 L117.9688,1224.469 L118.75,1256.358 L119.5313,1248.78 L120.3125,1222.992 L121.0938,1257.244 L121.875,1250.256 L122.6563,1254.537 L123.4375,1259.262 L124.2188,1257.539 L125,1252.47 L125.7813,1257.244 L126.5625,1150.551 L127.3438,1209.262 L128.125,1259.803 L128.9063,1258.819 L129.6875,1216.742 L130.4688,1235.64 L131.25,1252.618 L132.0313,1256.654 L132.8125,1245.679 L133.5938,1200.453 L134.375,1249.026 L135.1563,1243.661 L135.9375,1203.996 L136.7188,1227.618 L137.5,1217.825 L138.2813,1242.874 L139.0625,1255.423 L139.8438,1257.785 L140.625,1258.917 L141.4063,1251.929 L142.1875,1259.262 L142.9688,1247.254 L143.75,1249.518 L144.5313,1219.547 L145.3125,1114.921 L146.0938,1141.644 L146.875,1256.752 L147.6563,1254.488 L148.4375,1252.864 L149.2188,1259.114 L150,1240.02 L150.7813,1255.571 L151.5625,1222.205 L152.3438,1134.852 L153.125,1251.142 L153.9063,1256.85 L154.6875,1254.833 L155.4688,1251.437 L156.25,1254.291 L157.0313,1228.504 L157.8125,1256.211 L158.5938,1235.787 L159.375,1258.77 L160.1563,1247.549 L160.9375,1254.587 L161.7188,1185.984 L162.5,1257.49 L163.2813,1251.043 L164.0625,1132.638 L164.8438,1257.343 L165.625,1257.638 L166.4063,1256.457 L167.1875,1259.852 L167.9688,1252.963 L168.75,1252.372 L169.5313,1253.75 L170.3125,1208.376 L171.0938,1259.705 L171.875,1248.533 L172.6563,1253.504 L173.4375,1255.965 L174.2188,1243.465 L175,1254.439 L175.7813,1241.89 L176.5625,1255.177 L177.3438,1153.602 L178.125,1193.071 L178.9063,1177.815 L179.6875,1253.11 L180.4688,1244.203 L181.25,1254.636 L182.0313,1259.163 L182.8125,1258.13 L183.5938,1254.045 L184.375,1257.195 L185.1563,1232.835 L185.9375,1224.764 L186.7188,1222.451 L187.5,1197.648 L188.2813,1257.638 L189.0625,1254.882 L189.8438,1237.657 L190.625,1253.11 L191.4063,1166.89 L192.1875,1254.39 L192.9688,1250.65 L193.75,1190.61 L194.5313,1257.244 L195.3125,1258.474 L196.0938,1204.488 L196.875,1221.663 L197.6563,1253.455 L198.4375,1217.283 L199.2188,1202.864 L200,1230.768 L200.7813,1200.699 L201.5625,1255.128 L202.3438,1244.547 L203.125,1259.213 L203.9063,1259.065 L204.6875,1254.144 L205.4688,1258.72 L206.25,1240.266 L207.0313,1236.427 L207.8125,1185.837 L208.5938,1254.488 L209.375,1250.01 L210.1563,1175.65 L210.9375,1249.173 L211.7188,1257.589 L212.5,1217.923 L213.2813,1254.833 L214.0625,1242.283 L214.8438,1254.144 L215.625,1258.278 L216.4063,1246.86 L217.1875,1150.108 L217.9688,1256.457 L218.75,1237.018 L219.5313,1254.439 L220.3125,1196.22 L221.0938,1241.89 L221.875,1246.024 L222.6563,1258.376 L223.4375,1257.49 L224.2188,1255.128 L225,1254.636 L225.7813,1247.205 L226.5625,1228.209 L227.3438,1251.24 L228.125,1196.22 L228.9063,1241.742 L229.6875,1256.211 L230.4688,1223.484 L231.25,1255.866 L232.0313,1242.923 L232.8125,1248.337 L233.5938,1241.152 L234.375,1108.72 L235.1563,1237.018 L235.9375,1251.388 L236.7188,1238.297 L237.5,1255.817 L238.2813,1252.913 L239.0625,1257.638 L239.8438,1244.104 L240.625,1250.945 L241.4063,1245.335 L242.1875,1248.583 L242.9688,1257.835 L243.75,1256.457 L244.5313,1235.591 L245.3125,1258.77 L246.0938,1244.154 L246.875,1255.325 L247.6563,1257.047 L248.4375,1163.199 L249.2188,1210.492 L250,1235.394 L250.7813,1243.661 L251.5625,1220.187 L252.3438,1250.404 L253.125,1252.864 L253.9063,1247.549 L254.6875,1241.693 L255.4688,1259.36 L256.25,1255.472 L257.0313,1242.382 L257.8125,1244.4 L258.5938,1202.717 L259.375,1249.075 L260.1563,1259.213 L260.9375,1141.348 L261.7188,1237.756 L262.5,1257.785 L263.2813,1242.923 L264.0625,1255.374 L264.8438,1245.925 L265.625,1250.01 L266.4063,1259.016 L267.1875,1248.78 L267.9688,1203.652 L268.75,1254.341 L269.5313,1232.687 L270.3125,1248.829 L271.0938,1248.484 L271.875,1239.872 L272.6563,1217.726 L273.4375,1244.35 L274.2188,1253.848 L275,1211.526 L275.7813,1258.228 L276.5625,1241.644 L277.3438,1236.476 L278.125,1255.817 L278.9063,1224.764 L279.6875,1251.093 L280.4688,1256.014 L281.25,1254.587 L282.0313,1257.884 L282.8125,1259.016 L283.5938,1258.524 L284.375,1250.157 L285.1563,1236.722 L285.9375,1192.677 L286.7188,1172.352 L287.5,1257.293 L288.2813,1245.187 L289.0625,1224.518 L289.8438,1246.368 L290.625,1251.535 L291.4063,1251.831 L292.1875,1256.309 L292.9688,1258.474 L293.75,1241.348 L294.5313,1247.205 L295.3125,1193.514 L296.0938,1219.4 L296.875,1242.972 L297.6563,1248.583 L298.4375,1245.335 L299.2188,1254.094 L300,1252.372 L300.7813,1243.612 L301.5625,1259.606 L302.3438,1248.681 L303.125,1250.896 L303.9063,1259.36 L304.6875,1199.911 L305.4688,1249.469 L306.25,1202.963 L307.0313,1257.589 L307.8125,1256.358 L308.5938,1217.825 L309.375,1259.016 L310.1563,1256.801 L310.9375,1243.022 L311.7188,1258.278 L312.5,1254.931 L313.2813,1245.63 L314.0625,1225.059 L314.8438,1244.006 L315.625,1238.593 L316.4063,1253.701 L317.1875,1259.557 L317.9688,1222.156 L318.75,1247.5 L319.5313,1254.144 L320.3125,1220.335 L321.0938,1204.587 L321.875,1157.244 L322.6563,1258.425 L323.4375,1238.396 L324.2188,1217.628 L325,1258.671 L325.7813,1157.343 L326.5625,1256.161 L327.3438,1255.325 L328.125,1255.325 L328.9063,1253.75 L329.6875,1257.047 L330.4688,1247.894 L331.25,1253.553 L332.0313,1228.307 L332.8125,1253.455 L333.5938,1233.425 L334.375,1199.518 L335.1563,1224.911 L335.9375,1254.931 L336.7188,1250.6 L337.5,1239.872 L338.2813,1212.608 L339.0625,1141.102 L339.8438,1210 L340.625,1208.819 L341.4063,1229.439 L342.1875,1218.12 L342.9688,1233.967 L343.75,1205.817 L344.5313,1174.419 L345.3125,1255.571 L346.0938,1248.976 L346.875,1235.049 L347.6563,1256.26 L348.4375,1249.173 L349.2188,1199.026 L350,1250.453 L350.7813,1244.695 L351.5625,1224.272 L352.3438,1249.665 L353.125,1235.049 L353.9063,1201.142 L354.6875,1209.163 L355.4688,1251.929 L356.25,1119.006 L357.0313,1176.388 L357.8125,1259.163 L358.5938,1245.285 L359.375,1250.256 L360.1563,1173.041 L360.9375,1251.191 L361.7188,1256.555 L362.5,1255.522 L363.2813,1245.039 L364.0625,1251.437 L364.8438,1246.663 L365.625,1234.508 L366.4063,1259.36 L367.1875,1249.37 L367.9688,1171.22 L368.75,1205.965 L369.5313,1250.453 L370.3125,1252.913 L371.0938,1250.157 L371.875,1228.159 L372.6563,1259.508 L373.4375,1258.573 L374.2188,1254.833 L375,1256.358 L375.7813,1230.817 L376.5625,1256.457 L377.3438,1252.028 L378.125,1243.661 L378.9063,1246.713 L379.6875,1237.067 L380.4688,1183.179 L381.25,1252.274 L382.0313,1230.522 L382.8125,1256.506 L383.5938,1258.819 L384.375,1251.043 L385.1563,1210.492 L385.9375,1206.407 L386.7188,1216.939 L387.5,1255.866 L388.2813,1259.508 L389.0625,1242.53 L389.8438,1252.52 L390.625,1251.486 L391.4063,1252.618 L392.1875,1255.669 L392.9688,1191.496 L393.75,1229.833 L394.5313,1251.831 L395.3125,1188.937 L396.0938,1239.232 L396.875,1259.213 L397.6563,1258.031 L398.4375,1153.159 L399.2188,1216.152 L400,1240.364 L400.7813,1213.002 L401.5625,1258.376 L402.3438,1191.644 L403.125,1203.996 L403.9063,1259.163 L404.6875,1173.583 L405.4688,1247.008 L406.25,1251.634 L407.0313,1130.128 L407.8125,1257.982 L408.5938,1109.459 L409.375,1232.392 L410.1563,1233.081 L410.9375,1186.427 L411.7188,1255.472 L412.5,1237.411 L413.2813,1172.451 L414.0625,1140.217 L414.8438,1126.289 L415.625,1255.079 L416.4063,1239.626 L417.1875,1256.014 L417.9688,1232.638 L418.75,1241.496 L419.5313,1254.931 L420.3125,1252.766 " stroke="blue" fill="none" />
<text x="50" y="1310" font-family="Arial" font-size="12" fill="black">Policy Loss</text>
<text x="50" y="1325" font-family="Arial" font-size="10" fill="black">0.01055386</text>
<text x="50" y="1540" font-family="Arial" font-size="10" fill="black">0.0007387565</text>
<path d="M50,1436.319 L51.5625,1522.415 L53.125,1520.463 L54.6875,1514.428 L56.25,1522.219 L57.8125,1514.341 L59.375,1511.196 L60.9375,1522.101 L62.5,1394.653 L64.0625,1517.587 L65.625,1517.039 L67.1875,1515.567 L68.75,1515.08 L70.3125,1511.815 L71.875,1518.469 L73.4375,1520.394 L75,1399.445 L76.5625,1512.907 L78.125,1517.814 L79.6875,1522.603 L81.25,1522.34 L82.8125,1511.563 L84.375,1515.253 L85.9375,1514.252 L87.5,1370.251 L89.0625,1524.404 L90.625,1519.552 L92.1875,1518.061 L93.75,1514.823 L95.3125,1522.191 L96.875,1521.503 L98.4375,1524.477 L100,1375.089 L101.5625,1518.921 L103.125,1523.766 L104.6875,1508.582 L106.25,1519.715 L107.8125,1523.885 L109.375,1519.5 L110.9375,1520.212 L112.5,1373.744 L114.0625,1525.052 L115.625,1526.302 L117.1875,1523.401 L118.75,1521.32 L120.3125,1522.78 L121.875,1505.796 L123.4375,1524.552 L125,1382.959 L126.5625,1521.57 L128.125,1518.7 L129.6875,1515.185 L131.25,1516.062 L132.8125,1510.648 L134.375,1513.279 L135.9375,1518.533 L137.5,1330 L139.0625,1512.142 L140.625,1516.626 L142.1875,1517.801 L143.75,1520.109 L145.3125,1519.204 L146.875,1516.964 L148.4375,1514.941 L150,1402.173 L151.5625,1514.573 L153.125,1519.094 L154.6875,1518.118 L156.25,1515.232 L157.8125,1520.104 L159.375,1523.191 L160.9375,1514.811 L162.5,1413.16 L164.0625,1518.46 L165.625,1518.432 L167.1875,1521.048 L168.75,1514.501 L170.3125,1521.046 L171.875,1519.208 L173.4375,1510.319 L175,1370.6 L176.5625,1511.71 L178.125,1520.037 L179.6875,1519.418 L181.25,1530 L182.8125,1524.784 L184.375,1524.139 L185.9375,1520.928 L187.5,1401.481 L189.0625,1516.579 L190.625,1519.464 L192.1875,1502.934 L193.75,1519.109 L195.3125,1515.738 L196.875,1517.796 L198.4375,1524.073 L200,1426.005 L201.5625,1524.998 L203.125,1514.355 L204.6875,1525.2 L206.25,1517.837 L207.8125,1515.459 L209.375,1514.672 L210.9375,1522.59 L212.5,1406.151 L214.0625,1502.559 L215.625,1526.144 L217.1875,1508.238 L218.75,1518.224 L220.3125,1520.117 L221.875,1514.245 L223.4375,1516.58 L225,1342.99 L226.5625,1513.883 L228.125,1518.636 L229.6875,1519.686 L231.25,1515.557 L232.8125,1519.453 L234.375,1522.327 L235.9375,1515.441 L237.5,1368.059 L239.0625,1526.727 L240.625,1514.299 L242.1875,1517.831 L243.75,1515.824 L245.3125,1520.758 L246.875,1512.677 L248.4375,1524.077 L250,1387.243 L251.5625,1516.869 L253.125,1517.609 L254.6875,1520.031 L256.25,1516.751 L257.8125,1514.352 L259.375,1514.846 L260.9375,1524.08 L262.5,1414.635 L264.0625,1513.993 L265.625,1525.2 L267.1875,1520.667 L268.75,1515.092 L270.3125,1522.376 L271.875,1520.135 L273.4375,1518.779 L275,1408.241 L276.5625,1521.991 L278.125,1517.432 L279.6875,1516.033 L281.25,1512.886 L282.8125,1518.271 L284.375,1525.608 L285.9375,1521.419 L287.5,1382.109 L289.0625,1511.881 L290.625,1516.126 L292.1875,1522.427 L293.75,1518.383 L295.3125,1524.12 L296.875,1513.047 L298.4375,1518.057 L300,1365.272 L301.5625,1519.697 L303.125,1517.323 L304.6875,1509.883 L306.25,1519.385 L307.8125,1518.569 L309.375,1513.668 L310.9375,1522.551 L312.5,1371.77 L314.0625,1522.316 L315.625,1507.882 L317.1875,1523.286 L318.75,1518.786 L320.3125,1518.004 L321.875,1516.628 L323.4375,1520.058 L325,1394.68 L326.5625,1523.357 L328.125,1514.033 L329.6875,1510.133 L331.25,1517.237 L332.8125,1523.443 L334.375,1508.232 L335.9375,1525.675 L337.5,1415.382 L339.0625,1514.807 L340.625,1523.726 L342.1875,1511.679 L343.75,1524.265 L345.3125,1518.859 L346.875,1511.317 L348.4375,1513.399 " stroke="blue" fill="none" />
<text x="50" y="1580" font-family="Arial" font-size="12" fill="black">Value Loss</text>
<text x="50" y="1595" font-family="Arial" font-size="10" fill="black">0.0006594388</text>
<text x="50" y="1810" font-family="Arial" font-size="10" fill="black">5.374297E-05</text>
<path d="M50,1732.916 L51.5625,1763.557 L53.125,1772.904 L54.6875,1778.306 L56.25,1782.417 L57.8125,1786.521 L59.375,1790.265 L60.9375,1794.102 L62.5,1725.833 L64.0625,1756.574 L65.625,1770.736 L67.1875,1775.141 L68.75,1778.873 L70.3125,1782.223 L71.875,1785.21 L73.4375,1787.956 L75,1748.081 L76.5625,1778.742 L78.125,1790.242 L79.6875,1793.915 L81.25,1795.901 L82.8125,1797.177 L84.375,1798.745 L85.9375,1800 L87.5,1729.684 L89.0625,1749.453 L90.625,1760.911 L92.1875,1766.208 L93.75,1769.572 L95.3125,1772.395 L96.875,1774.886 L98.4375,1777.078 L100,1741.118 L101.5625,1757.261 L103.125,1763.448 L104.6875,1766.682 L106.25,1769.127 L107.8125,1770.953 L109.375,1772.439 L110.9375,1773.946 L112.5,1755.033 L114.0625,1771.45 L115.625,1776.719 L117.1875,1779.387 L118.75,1781.205 L120.3125,1782.676 L121.875,1783.768 L123.4375,1784.896 L125,1719.903 L126.5625,1742.108 L128.125,1753.006 L129.6875,1759.676 L131.25,1764.444 L132.8125,1767.99 L134.375,1771.083 L135.9375,1773.732 L137.5,1683.921 L139.0625,1696.652 L140.625,1724.109 L142.1875,1732.721 L143.75,1737.815 L145.3125,1741.834 L146.875,1745.113 L148.4375,1747.942 L150,1694.175 L151.5625,1716.82 L153.125,1729.458 L154.6875,1735.875 L156.25,1740.692 L157.8125,1744.434 L159.375,1747.836 L160.9375,1750.817 L162.5,1733.09 L164.0625,1751.452 L165.625,1757.283 L167.1875,1760.776 L168.75,1763.133 L170.3125,1765.195 L171.875,1766.917 L173.4375,1768.245 L175,1680.048 L176.5625,1694.58 L178.125,1711.546 L179.6875,1721.107 L181.25,1726.949 L182.8125,1731.367 L184.375,1735.688 L185.9375,1739.21 L187.5,1725.431 L189.0625,1737.965 L190.625,1749.796 L192.1875,1754.6 L193.75,1757.851 L195.3125,1760.571 L196.875,1762.753 L198.4375,1764.74 L200,1656.15 L201.5625,1674.526 L203.125,1687.043 L204.6875,1694.182 L206.25,1699.563 L207.8125,1703.672 L209.375,1707.508 L210.9375,1711.046 L212.5,1683.081 L214.0625,1703.265 L215.625,1717.011 L217.1875,1723.564 L218.75,1728.98 L220.3125,1733.06 L221.875,1736.873 L223.4375,1740.043 L225,1614.867 L226.5625,1648.471 L228.125,1661.785 L229.6875,1669.518 L231.25,1675.344 L232.8125,1679.748 L234.375,1683.546 L235.9375,1686.582 L237.5,1621.366 L239.0625,1655.31 L240.625,1674.349 L242.1875,1683.983 L243.75,1690.562 L245.3125,1695.872 L246.875,1700.383 L248.4375,1704.254 L250,1604.138 L251.5625,1633.601 L253.125,1653.045 L254.6875,1663.919 L256.25,1671.452 L257.8125,1678.539 L259.375,1684.03 L260.9375,1689.326 L262.5,1711.159 L264.0625,1731.401 L265.625,1740.103 L267.1875,1746.042 L268.75,1750.321 L270.3125,1753.759 L271.875,1756.655 L273.4375,1759.272 L275,1630.761 L276.5625,1673.493 L278.125,1694.22 L279.6875,1704.162 L281.25,1711.206 L282.8125,1716.763 L284.375,1721.498 L285.9375,1725.667 L287.5,1699.848 L289.0625,1716.345 L290.625,1729.004 L292.1875,1735.36 L293.75,1739.897 L295.3125,1743.384 L296.875,1746.418 L298.4375,1748.845 L300,1600.003 L301.5625,1635.154 L303.125,1650.889 L304.6875,1659.406 L306.25,1666.185 L307.8125,1672.14 L309.375,1678.68 L310.9375,1683.789 L312.5,1622.011 L314.0625,1651.998 L315.625,1667.179 L317.1875,1676.524 L318.75,1684.255 L320.3125,1690.426 L321.875,1696.01 L323.4375,1700.772 L325,1729.687 L326.5625,1746.744 L328.125,1757.853 L329.6875,1762.583 L331.25,1765.954 L332.8125,1768.6 L334.375,1770.904 L335.9375,1772.768 L337.5,1731.26 L339.0625,1747.032 L340.625,1755.598 L342.1875,1761.541 L343.75,1765.26 L345.3125,1767.923 L346.875,1770.05 L348.4375,1771.657 " stroke="blue" fill="none" />
<text x="50" y="1850" font-family="Arial" font-size="12" fill="black">Learning Rate</text>
<text x="50" y="1865" font-family="Arial" font-size="10" fill="black">0.0003</text>
<text x="50" y="2080" font-family="Arial" font-size="10" fill="black">0.0003</text>
<path d="M50,2070 L51.5625,2070 L53.125,2070 L54.6875,2070 L56.25,2070 L57.8125,2070 L59.375,2070 L60.9375,2070 L62.5,2070 L64.0625,2070 L65.625,2070 L67.1875,2070 L68.75,2070 L70.3125,2070 L71.875,2070 L73.4375,2070 L75,2070 L76.5625,2070 L78.125,2070 L79.6875,2070 L81.25,2070 L82.8125,2070 L84.375,2070 L85.9375,2070 L87.5,2070 L89.0625,2070 L90.625,2070 L92.1875,2070 L93.75,2070 L95.3125,2070 L96.875,2070 L98.4375,2070 L100,2070 L101.5625,2070 L103.125,2070 L104.6875,2070 L106.25,2070 L107.8125,2070 L109.375,2070 L110.9375,2070 L112.5,2070 L114.0625,2070 L115.625,2070 L117.1875,2070 L118.75,2070 L120.3125,2070 L121.875,2070 L123.4375,2070 L125,2070 L126.5625,2070 L128.125,2070 L129.6875,2070 L131.25,2070 L132.8125,2070 L134.375,2070 L135.9375,2070 L137.5,2070 L139.0625,2070 L140.625,2070 L142.1875,2070 L143.75,2070 L145.3125,2070 L146.875,2070 L148.4375,2070 L150,2070 L151.5625,2070 L153.125,2070 L154.6875,2070 L156.25,2070 L157.8125,2070 L159.375,2070 L160.9375,2070 L162.5,2070 L164.0625,2070 L165.625,2070 L167.1875,2070 L168.75,2070 L170.3125,2070 L171.875,2070 L173.4375,2070 L175,2070 L176.5625,2070 L178.125,2070 L179.6875,2070 L181.25,2070 L182.8125,2070 L184.375,2070 L185.9375,2070 L187.5,2070 L189.0625,2070 L190.625,2070 L192.1875,2070 L193.75,2070 L195.3125,2070 L196.875,2070 L198.4375,2070 L200,2070 L201.5625,2070 L203.125,2070 L204.6875,2070 L206.25,2070 L207.8125,2070 L209.375,2070 L210.9375,2070 L212.5,2070 L214.0625,2070 L215.625,2070 L217.1875,2070 L218.75,2070 L220.3125,2070 L221.875,2070 L223.4375,2070 L225,2070 L226.5625,2070 L228.125,2070 L229.6875,2070 L231.25,2070 L232.8125,2070 L234.375,2070 L235.9375,2070 L237.5,2070 L239.0625,2070 L240.625,2070 L242.1875,2070 L243.75,2070 L245.3125,2070 L246.875,2070 L248.4375,2070 L250,2070 L251.5625,2070 L253.125,2070 L254.6875,2070 L256.25,2070 L257.8125,2070 L259.375,2070 L260.9375,2070 L262.5,2070 L264.0625,2070 L265.625,2070 L267.1875,2070 L268.75,2070 L270.3125,2070 L271.875,2070 L273.4375,2070 L275,2070 L276.5625,2070 L278.125,2070 L279.6875,2070 L281.25,2070 L282.8125,2070 L284.375,2070 L285.9375,2070 L287.5,2070 L289.0625,2070 L290.625,2070 L292.1875,2070 L293.75,2070 L295.3125,2070 L296.875,2070 L298.4375,2070 L300,2070 L301.5625,2070 L303.125,2070 L304.6875,2070 L306.25,2070 L307.8125,2070 L309.375,2070 L310.9375,2070 L312.5,2070 L314.0625,2070 L315.625,2070 L317.1875,2070 L318.75,2070 L320.3125,2070 L321.875,2070 L323.4375,2070 L325,2070 L326.5625,2070 L328.125,2070 L329.6875,2070 L331.25,2070 L332.8125,2070 L334.375,2070 L335.9375,2070 L337.5,2070 L339.0625,2070 L340.625,2070 L342.1875,2070 L343.75,2070 L345.3125,2070 L346.875,2070 L348.4375,2070 " stroke="blue" fill="none" />
<text x="50" y="2120" font-family="Arial" font-size="12" fill="black">Entropy</text>
<text x="50" y="2135" font-family="Arial" font-size="10" fill="black">-0.07378639</text>
<text x="50" y="2350" font-family="Arial" font-size="10" fill="black">-0.07728766</text>
<path d="M50,2140 L51.5625,2140 L53.125,2140 L54.6875,2140 L56.25,2140 L57.8125,2140 L59.375,2140 L60.9375,2140 L62.5,2140 L64.0625,2140 L65.625,2140 L67.1875,2140 L68.75,2140 L70.3125,2140 L71.875,2140 L73.4375,2140 L75,2340 L76.5625,2340 L78.125,2340 L79.6875,2340 L81.25,2340 L82.8125,2340 L84.375,2340 L85.9375,2340 L87.5,2340 L89.0625,2340 L90.625,2340 L92.1875,2340 L93.75,2340 L95.3125,2340 L96.875,2340 L98.4375,2340 L100,2340 L101.5625,2340 L103.125,2340 L104.6875,2340 L106.25,2340 L107.8125,2340 L109.375,2340 L110.9375,2340 L112.5,2340 L114.0625,2340 L115.625,2340 L117.1875,2340 L118.75,2340 L120.3125,2340 L121.875,2340 L123.4375,2340 L125,2340 L126.5625,2340 L128.125,2340 L129.6875,2340 L131.25,2340 L132.8125,2340 L134.375,2340 L135.9375,2340 L137.5,2340 L139.0625,2340 L140.625,2340 L142.1875,2340 L143.75,2340 L145.3125,2340 L146.875,2340 L148.4375,2340 L150,2340 L151.5625,2340 L153.125,2340 L154.6875,2340 L156.25,2340 L157.8125,2340 L159.375,2340 L160.9375,2340 L162.5,2340 L164.0625,2340 L165.625,2340 L167.1875,2340 L168.75,2340 L170.3125,2340 L171.875,2340 L173.4375,2340 L175,2340 L176.5625,2340 L178.125,2340 L179.6875,2340 L181.25,2340 L182.8125,2340 L184.375,2340 L185.9375,2340 L187.5,2340 L189.0625,2340 L190.625,2340 L192.1875,2340 L193.75,2340 L195.3125,2340 L196.875,2340 L198.4375,2340 L200,2340 L201.5625,2340 L203.125,2340 L204.6875,2340 L206.25,2340 L207.8125,2340 L209.375,2340 L210.9375,2340 L212.5,2340 L214.0625,2340 L215.625,2340 L217.1875,2340 L218.75,2340 L220.3125,2340 L221.875,2340 L223.4375,2340 L225,2340 L226.5625,2340 L228.125,2340 L229.6875,2340 L231.25,2340 L232.8125,2340 L234.375,2340 L235.9375,2340 L237.5,2340 L239.0625,2340 L240.625,2340 L242.1875,2340 L243.75,2340 L245.3125,2340 L246.875,2340 L248.4375,2340 L250,2340 L251.5625,2340 L253.125,2340 L254.6875,2340 L256.25,2340 L257.8125,2340 L259.375,2340 L260.9375,2340 L262.5,2340 L264.0625,2340 L265.625,2340 L267.1875,2340 L268.75,2340 L270.3125,2340 L271.875,2340 L273.4375,2340 L275,2340 L276.5625,2340 L278.125,2340 L279.6875,2340 L281.25,2340 L282.8125,2340 L284.375,2340 L285.9375,2340 L287.5,2340 L289.0625,2340 L290.625,2340 L292.1875,2340 L293.75,2340 L295.3125,2340 L296.875,2340 L298.4375,2340 L300,2340 L301.5625,2340 L303.125,2340 L304.6875,2340 L306.25,2340 L307.8125,2340 L309.375,2340 L310.9375,2340 L312.5,2340 L314.0625,2340 L315.625,2340 L317.1875,2340 L318.75,2340 L320.3125,2340 L321.875,2340 L323.4375,2340 L325,2340 L326.5625,2340 L328.125,2340 L329.6875,2340 L331.25,2340 L332.8125,2340 L334.375,2340 L335.9375,2340 L337.5,2340 L339.0625,2340 L340.625,2340 L342.1875,2340 L343.75,2340 L345.3125,2340 L346.875,2340 L348.4375,2340 " stroke="blue" fill="none" />
<text x="750" y="770" font-family="Arial" font-size="12" fill="black">Simplified</text>
<text x="750" y="785" font-family="Arial" font-size="10" fill="black">4.886557</text>
<text x="750" y="1000" font-family="Arial" font-size="10" fill="black">1.436343</text>
<path d="M764.0625,790 L778.9063,896.4105 L793.75,935.8262 L808.5938,990 L823.4375,976.6245 L838.2813,914.3563 L853.125,901.5701 L867.9688,961.5511 L882.8125,928.4701 L897.6563,928.0647 L912.5,899.288 L927.3438,960.9114 L942.1875,924.4867 L957.0313,949.9808 L971.875,944.2614 L986.7188,940.0568 L1001.563,967.933 L1016.406,954.9725 L1031.25,905.2737 L1046.094,827.9001 L1060.938,856.368 L1075.781,956.3751 L1090.625,951.6487 L1105.469,858.4252 L1120.313,805.1691 " stroke="blue" fill="none" />
<text x="750" y="1040" font-family="Arial" font-size="12" fill="black">Simplified</text>
<text x="750" y="1055" font-family="Arial" font-size="10" fill="black">953.2632</text>
<text x="750" y="1270" font-family="Arial" font-size="10" fill="black">277.4211</text>
<path d="M764.0625,1061.448 L778.9063,1174.804 L793.75,1196.827 L808.5938,1260 L823.4375,1241.917 L838.2813,1178.044 L853.125,1160.553 L867.9688,1232.401 L882.8125,1204.132 L897.6563,1181.719 L912.5,1181.626 L927.3438,1226.264 L942.1875,1196.469 L957.0313,1225.314 L971.875,1204.537 L986.7188,1208.088 L1001.563,1241.684 L1016.406,1236.155 L1031.25,1189.616 L1046.094,1110.121 L1060.938,1127.954 L1075.781,1234.675 L1090.625,1217.776 L1105.469,1128.935 L1120.313,1060 " stroke="blue" fill="none" />
</svg>
