<svg width="2000" height="2500" xmlns="http://www.w3.org/2000/svg">
<text x="10" y="20" font-family="Arial" font-size="26" fill="black"> [<tspan font-weight="bold" fill="blue">Crawler</tspan>] Training Session</text>
<text x="10" y="50" font-family="Arial" font-size="16" fill="black">[Statistics]</text>
<text x="50" y="70" font-family="Arial" font-size="12" fill="black">Started at: 1:34:06 PM, Tuesday, May 14, 2024</text>
<text x="50" y="90" font-family="Arial" font-size="12" fill="black">Finished at: 1:38:41 PM, Tuesday, May 14, 2024</text>
<text x="50" y="110" font-family="Arial" font-size="12" fill="black">Training Session Time: 0 hrs : 4 min : 28 sec</text>
<text x="50" y="130" font-family="Arial" font-size="12" fill="black">Inference Time: 3 hrs : 10 min : 57 sec        [Device: CPU]</text>
<text x="50" y="150" font-family="Arial" font-size="12" fill="black">Update Time: 0 hrs : 1 min : 42 sec        [Per iteration: 0 hrs : 0 min : 9.204 sec]        [Device: GPU]</text>
<text x="50" y="170" font-family="Arial" font-size="12" fill="black">Episode Count: 1249</text>
<text x="50" y="190" font-family="Arial" font-size="12" fill="black">Inference Steps: 220000</text>
<text x="50" y="210" font-family="Arial" font-size="12" fill="black">Iterations: 11</text>
<text x="50" y="230" font-family="Arial" font-size="12" fill="black">Parallel Agents: 64</text>
<text x="50" y="250" font-family="Arial" font-size="12" fill="black">Timescale: 1.13</text>
<text x="50" y="270" font-family="Arial" font-size="12" fill="black">Trainer: PPO</text>
<text x="10" y="320" font-family="Arial" font-size="16" fill="black">[Hyperparameters]</text>
<text x="50" y="340" font-family="Arial" font-size="12" fill="black">Buffer Size: 20000        [Batch Size: 1000       (x20)]</text>
<text x="50" y="360" font-family="Arial" font-size="12" fill="black">Num Epoch: 7</text>
<text x="50" y="380" font-family="Arial" font-size="12" fill="black">Time Horizon: 256</text>
<text x="50" y="400" font-family="Arial" font-size="12" fill="black">Gradient Cliping by Norm: 0.5</text>
<text x="50" y="420" font-family="Arial" font-size="12" fill="black">Learning Rate Schedule: True    </text>
<text x="10" y="470" font-family="Arial" font-size="16" fill="black">[Behaviour]</text>
<text x="50" y="490" font-family="Arial" font-size="12" fill="black">Space Size: 94</text>
<text x="50" y="510" font-family="Arial" font-size="12" fill="black">Continuous Actions: 20 [Standard Deviation: FixedStandardDeviation]     [Value: 1.38]</text>
<text x="50" y="530" font-family="Arial" font-size="12" fill="black">Discrete Actions: 0</text>
<text x="50" y="550" font-family="Arial" font-size="12" fill="black">TargetFPS: 100 (physics update rate)</text>
<text x="50" y="570" font-family="Arial" font-size="12" fill="black">Observations Normalization: True</text>
<text x="10" y="620" font-family="Arial" font-size="16" fill="black">[Decision Requester]</text>
<text x="50" y="640" font-family="Arial" font-size="12" fill="black">Max Step: 10000</text>
<text x="50" y="660" font-family="Arial" font-size="12" fill="black">Decision Period: 5      [Actions Between Decisions: True]</text>
<text x="10" y="710" font-family="Arial" font-size="16" fill="black">[Graphs]</text>
<text x="50" y="730" font-family="Arial" font-size="12" fill="black">Episode Reward (1249)</text>
<text x="50" y="745" font-family="Arial" font-size="10" fill="black">13.29387</text>
<text x="50" y="960" font-family="Arial" font-size="10" fill="black">0.01312254</text>
<path d="M50,946.8537 L50.39063,947.089 L50.78125,946.6516 L51.17188,946.7558 L51.5625,945.7354 L51.95313,948.395 L52.34375,946.2871 L52.73438,945.358 L53.125,945.0754 L53.51563,944.23 L53.90625,946.9341 L54.29688,945.1587 L54.6875,943.537 L55.07813,945.0735 L55.46875,944.4907 L55.85938,944.9355 L56.25,944.3245 L56.64063,944.5049 L57.03125,944.0172 L57.42188,942.5598 L57.8125,944.7206 L58.20313,941.1425 L58.59375,946.1915 L58.98438,943.9437 L59.375,942.194 L59.76563,945.4183 L60.15625,946.095 L60.54688,941.2059 L60.9375,940.5635 L61.32813,941.1415 L61.71875,943.3809 L62.10938,947.722 L62.5,941.7224 L62.89063,942.6249 L63.28125,939.7804 L63.67188,938.8758 L64.0625,940.5052 L64.45313,935.704 L64.84375,938.864 L65.23438,939.1454 L65.625,940.1217 L66.01563,948.1708 L66.40625,937.3234 L66.79688,937.2411 L67.1875,936.9755 L67.57813,945.2764 L67.96875,947.6871 L68.35938,942.8771 L68.75,939.7703 L69.14063,934.5623 L69.53125,935.8722 L69.92188,941.53 L70.3125,934.3508 L70.70313,938.3864 L71.09375,941.0233 L71.48438,939.2529 L71.875,938.6064 L72.26563,942.582 L72.65625,943.9691 L73.04688,945.04 L73.4375,938.1359 L73.82813,947.3586 L74.21875,927.8344 L74.60938,933.5842 L75,946.4013 L75.39063,944.7377 L75.78125,935.8659 L76.17188,945.0997 L76.5625,933.2099 L76.95313,948.437 L77.34375,943.0924 L77.73438,928.4584 L78.125,947.6574 L78.51563,937.5993 L78.90625,938.587 L79.29688,943.7766 L79.6875,928.5837 L80.07813,936.482 L80.46875,926.5161 L80.85938,940.3718 L81.25,939.9037 L81.64063,947.2778 L82.03125,928.9147 L82.42188,944.9844 L82.8125,923.8445 L83.20313,926.3091 L83.59375,940.3629 L83.98438,944.4474 L84.375,920.4547 L84.76563,940.6576 L85.15625,937.0396 L85.54688,921.8647 L85.9375,945.2668 L86.32813,941.4002 L86.71875,934.6736 L87.10938,936.8126 L87.5,945.0593 L87.89063,939.1625 L88.28125,921.8607 L88.67188,939.4625 L89.0625,942.8177 L89.45313,939.0887 L89.84375,928.4244 L90.23438,933.9675 L90.625,918.7462 L91.01563,924.7697 L91.40625,938.2514 L91.79688,935.4169 L92.1875,947.519 L92.57813,942.4556 L92.96875,929.4299 L93.35938,941.4949 L93.75,920.8609 L94.14063,932.0695 L94.53125,919.8997 L94.92188,915.8663 L95.3125,938.5428 L95.70313,946.9654 L96.09375,943.6011 L96.48438,926.3892 L96.875,926.3351 L97.26563,946.3505 L97.65625,926.8282 L98.04688,942.0334 L98.4375,939.2115 L98.82813,931.3129 L99.21875,946.9458 L99.60938,933.1891 L100,945.8859 L100.3906,945.751 L100.7813,942.265 L101.1719,942.8801 L101.5625,909.3627 L101.9531,945.6699 L102.3438,923.298 L102.7344,913.7311 L103.125,940.8156 L103.5156,916.7964 L103.9063,942.1017 L104.2969,943.3824 L104.6875,935.2863 L105.0781,933.458 L105.4688,911.3387 L105.8594,935.1622 L106.25,937.656 L106.6406,935.3689 L107.0313,945.551 L107.4219,933.8649 L107.8125,940.3499 L108.2031,943.1722 L108.5938,943.2719 L108.9844,903.9251 L109.375,944.4574 L109.7656,909.7476 L110.1563,916.6039 L110.5469,934.4532 L110.9375,939.4063 L111.3281,932.556 L111.7188,937.2274 L112.1094,933.2497 L112.5,939.2347 L112.8906,935.8263 L113.2813,943.2103 L113.6719,924.5296 L114.0625,945.2648 L114.4531,943.6202 L114.8438,937.8229 L115.2344,947.702 L115.625,945.8812 L116.0156,944.3511 L116.4063,940.9822 L116.7969,942.8847 L117.1875,944.5321 L117.5781,936.0769 L117.9688,945.2234 L118.3594,945.5784 L118.75,945.9627 L119.1406,909.9677 L119.5313,907.2362 L119.9219,941.3826 L120.3125,896.5926 L120.7031,932.0716 L121.0938,927.5422 L121.4844,922.5524 L121.875,940.6748 L122.2656,941.1438 L122.6563,942.5436 L123.0469,946.8949 L123.4375,946.8691 L123.8281,928.9709 L124.2188,923.3472 L124.6094,945.4384 L125,937.8454 L125.3906,936.1084 L125.7813,947.4569 L126.1719,935.0744 L126.5625,946.3029 L126.9531,942.7437 L127.3438,937.4601 L127.7344,945.811 L128.125,934.6465 L128.5156,929.0216 L128.9063,945.8298 L129.2969,926.4016 L129.6875,936.9849 L130.0781,918.5751 L130.4688,943.7367 L130.8594,947.3427 L131.25,922.6718 L131.6406,926.1945 L132.0313,901.5148 L132.4219,947.7557 L132.8125,947.3433 L133.2031,900.784 L133.5938,920.4594 L133.9844,947.2994 L134.375,945.6672 L134.7656,936.1417 L135.1563,940.8054 L135.5469,942.3248 L135.9375,939.0133 L136.3281,946.6108 L136.7188,937.9333 L137.1094,944.721 L137.5,935.6849 L137.8906,932.517 L138.2813,939.371 L138.6719,911.3866 L139.0625,941.2924 L139.4531,938.8163 L139.8438,940.0257 L140.2344,938.4302 L140.625,943.157 L141.0156,932.9149 L141.4063,945.1317 L141.7969,934.3635 L142.1875,940.7085 L142.5781,941.6302 L142.9688,901.4547 L143.3594,932.4048 L143.75,944.1631 L144.1406,907.8236 L144.5313,946.9384 L144.9219,933.9244 L145.3125,889.3513 L145.7031,935.5984 L146.0938,943.5114 L146.4844,934.9615 L146.875,935.011 L147.2656,946.4448 L147.6563,945.4904 L148.0469,947.1399 L148.4375,944.8443 L148.8281,938.0494 L149.2188,946.3744 L149.6094,896.9099 L150,939.7389 L150.3906,939.4249 L150.7813,936.601 L151.1719,921.7197 L151.5625,912.0974 L151.9531,933.9113 L152.3438,943.1152 L152.7344,915.3255 L153.125,929.0387 L153.5156,940.3864 L153.9063,936.2996 L154.2969,945.6705 L154.6875,938.621 L155.0781,937.6667 L155.4688,930.7233 L155.8594,888.5428 L156.25,942.5958 L156.6406,936.0627 L157.0313,945.0506 L157.4219,946.8138 L157.8125,947.9929 L158.2031,936.1094 L158.5938,944.1086 L158.9844,915.9581 L159.375,927.0354 L159.7656,921.3732 L160.1563,948.5168 L160.5469,905.871 L160.9375,945.8734 L161.3281,948.8546 L161.7188,936.9573 L162.1094,925.7004 L162.5,940.453 L162.8906,941.4883 L163.2813,919.7986 L163.6719,943.7237 L164.0625,929.6549 L164.4531,938.4429 L164.8438,946.3986 L165.2344,927.1733 L165.625,944.9659 L166.0156,931.4422 L166.4063,875.6705 L166.7969,934.9549 L167.1875,930.4426 L167.5781,945.7502 L167.9688,937.7301 L168.3594,938.1806 L168.75,904.7172 L169.1406,924.226 L169.5313,938.567 L169.9219,939.9363 L170.3125,910.9778 L170.7031,922.9962 L171.0938,943.4903 L171.4844,942.5038 L171.875,943.3328 L172.2656,937.9213 L172.6563,945.0129 L173.0469,917.3793 L173.4375,942.5261 L173.8281,910.5012 L174.2188,937.3266 L174.6094,943.6047 L175,946.4728 L175.3906,898.5184 L175.7813,941.9056 L176.1719,942.5223 L176.5625,929.8055 L176.9531,910.2924 L177.3438,943.8661 L177.7344,946.7067 L178.125,935.7581 L178.5156,945.6077 L178.9063,941.8828 L179.2969,932.7238 L179.6875,938.6393 L180.0781,905.3736 L180.4688,945.2927 L180.8594,944.8562 L181.25,929.6115 L181.6406,916.0579 L182.0313,930.561 L182.4219,936.6882 L182.8125,938.1179 L183.2031,943.3292 L183.5938,946.5159 L183.9844,934.9556 L184.375,940.2338 L184.7656,944.0562 L185.1563,943.0287 L185.5469,939.0884 L185.9375,944.4302 L186.3281,920.7748 L186.7188,923.8863 L187.1094,914.577 L187.5,944.4006 L187.8906,931.6872 L188.2813,932.2883 L188.6719,932.0674 L189.0625,910.5319 L189.4531,941.2391 L189.8438,931.3578 L190.2344,940.9623 L190.625,941.6667 L191.0156,945.8969 L191.4063,947.8275 L191.7969,943.6202 L192.1875,942.5741 L192.5781,931.8478 L192.9688,927.6677 L193.3594,931.2243 L193.75,932.5 L194.1406,936.2643 L194.5313,925.9955 L194.9219,750 L195.3125,900.0605 L195.7031,936.9877 L196.0938,946.9897 L196.4844,944.9877 L196.875,933.7316 L197.2656,946.5822 L197.6563,947.4982 L198.0469,929.1078 L198.4375,916.4651 L198.8281,947.9876 L199.2188,939.016 L199.6094,940.0858 L200,943.6849 L200.3906,889.4515 L200.7813,949.9382 L201.1719,940.782 L201.5625,892.5104 L201.9531,943.643 L202.3438,947.2676 L202.7344,943.6818 L203.125,943.8899 L203.5156,938.749 L203.9063,900.3333 L204.2969,938.2244 L204.6875,940.3233 L205.0781,944.6088 L205.4688,940.2713 L205.8594,943.3989 L206.25,918.4877 L206.6406,944.4123 L207.0313,936.9245 L207.4219,929.6434 L207.8125,937.1006 L208.2031,928.3308 L208.5938,896.986 L208.9844,936.2264 L209.375,929.3057 L209.7656,940.5408 L210.1563,926.6039 L210.5469,918.471 L210.9375,910.4107 L211.3281,947.3317 L211.7188,944.8455 L212.1094,941.8544 L212.5,922.1371 L212.8906,939.2577 L213.2813,946.6113 L213.6719,941.7257 L214.0625,935.7972 L214.4531,876.4146 L214.8438,947.0353 L215.2344,942.9211 L215.625,919.5482 L216.0156,945.4867 L216.4063,944.6709 L216.7969,924.6404 L217.1875,922.9152 L217.5781,933.2221 L217.9688,939.8214 L218.3594,939.4063 L218.75,922.327 L219.1406,915.651 L219.5313,921.5547 L219.9219,943.15 L220.3125,943.8157 L220.7031,927.3781 L221.0938,946.5626 L221.4844,921.7609 L221.875,945.5763 L222.2656,942.184 L222.6563,939.476 L223.0469,933.0078 L223.4375,911.0652 L223.8281,945.3105 L224.2188,945.3411 L224.6094,908.4158 L225,917.8486 L225.3906,935.5302 L225.7813,939.8194 L226.1719,919.0276 L226.5625,937.213 L226.9531,916.2477 L227.3438,942.3369 L227.7344,938.8063 L228.125,938.7919 L228.5156,927.1785 L228.9063,938.7334 L229.2969,904.3492 L229.6875,947.0428 L230.0781,908.4791 L230.4688,861.477 L230.8594,924.3318 L231.25,935.8813 L231.6406,877.7455 L232.0313,924.9517 L232.4219,947.1652 L232.8125,934.4527 L233.2031,943.3678 L233.5938,918.1237 L233.9844,911.6459 L234.375,914.7437 L234.7656,946.1199 L235.1563,942.7026 L235.5469,948.9243 L235.9375,923.2646 L236.3281,945.1279 L236.7188,923.7635 L237.1094,932.3553 L237.5,935.4293 L237.8906,948.8008 L238.2813,944.2194 L238.6719,938.1849 L239.0625,940.5771 L239.4531,944.8112 L239.8438,946.134 L240.2344,908.5418 L240.625,948.72 L241.0156,941.0143 L241.4063,947.0753 L241.7969,942.9937 L242.1875,932.4112 L242.5781,927.1919 L242.9688,888.543 L243.3594,946.9 L243.75,946.1943 L244.1406,944.514 L244.5313,923.1925 L244.9219,909.7089 L245.3125,937.545 L245.7031,919.52 L246.0938,921.9019 L246.4844,888.5151 L246.875,937.1677 L247.2656,938.1472 L247.6563,944.0059 L248.0469,934.1958 L248.4375,946.8589 L248.8281,939.0675 L249.2188,944.041 L249.6094,946.5345 L250,936.3041 L250.3906,925.8036 L250.7813,936.6606 L251.1719,927.8079 L251.5625,913.1022 L251.9531,946.4131 L252.3438,918.086 L252.7344,924.9301 L253.125,936.5751 L253.5156,945.694 L253.9063,947.8039 L254.2969,924.8909 L254.6875,922.1888 L255.0781,914.4089 L255.4688,944.3619 L255.8594,928.8976 L256.25,936.5845 L256.6406,933.0757 L257.0313,935.188 L257.4219,912.5692 L257.8125,918.8815 L258.2031,930.929 L258.5938,896.809 L258.9844,908.5573 L259.375,934.2272 L259.7656,942.8508 L260.1563,934.0268 L260.5469,947.1573 L260.9375,933.2628 L261.3281,939.1909 L261.7188,915.0975 L262.1094,930.6132 L262.5,896.4077 L262.8906,881.8741 L263.2813,935.9984 L263.6719,926.7581 L264.0625,937.7529 L264.4531,938.4634 L264.8438,935.1866 L265.2344,941.7047 L265.625,943.6271 L266.0156,929.9006 L266.4063,930.642 L266.7969,853.838 L267.1875,944.9677 L267.5781,917.3134 L267.9688,937.0911 L268.3594,927.9339 L268.75,940.22 L269.1406,946.3431 L269.5313,933.5068 L269.9219,875.5179 L270.3125,926.9617 L270.7031,927.2828 L271.0938,945.0227 L271.4844,935.2294 L271.875,945.8957 L272.2656,905.7068 L272.6563,944.456 L273.0469,929.2618 L273.4375,937.3893 L273.8281,929.1657 L274.2188,936.0346 L274.6094,936.6249 L275,897.3815 L275.3906,944.9863 L275.7813,916.0451 L276.1719,926.1924 L276.5625,940.4832 L276.9531,928.0971 L277.3438,911.7657 L277.7344,944.8289 L278.125,936.0482 L278.5156,886.238 L278.9063,945.7387 L279.2969,946.36 L279.6875,893.7975 L280.0781,946.3853 L280.4688,947.2157 L280.8594,842.5054 L281.25,925.9534 L281.6406,946.115 L282.0313,909.452 L282.4219,942.6624 L282.8125,947.0449 L283.2031,941.8146 L283.5938,934.5214 L283.9844,944.5712 L284.375,923.893 L284.7656,941.8118 L285.1563,945.2197 L285.5469,935.9177 L285.9375,869.421 L286.3281,942.9997 L286.7188,943.2621 L287.1094,945.3459 L287.5,930.8738 L287.8906,932.0311 L288.2813,946.1245 L288.6719,918.6091 L289.0625,938.3658 L289.4531,943.5577 L289.8438,935.9539 L290.2344,946.1126 L290.625,947.8149 L291.0156,930.6979 L291.4063,921.5671 L291.7969,926.5322 L292.1875,943.8378 L292.5781,925.8165 L292.9688,938.9739 L293.3594,939.7042 L293.75,943.3393 L294.1406,913.8735 L294.5313,918.754 L294.9219,938.8076 L295.3125,945.4763 L295.7031,945.3394 L296.0938,938.7378 L296.4844,946.0837 L296.875,909.4092 L297.2656,897.8134 L297.6563,942.5508 L298.0469,933.1198 L298.4375,930.3493 L298.8281,929.0253 L299.2188,896.2283 L299.6094,940.2871 L300,926.3966 L300.3906,903.7175 L300.7813,923.447 L301.1719,940.3197 L301.5625,927.8706 L301.9531,946.0632 L302.3438,936.5604 L302.7344,900.5081 L303.125,943.0027 L303.5156,921.9562 L303.9063,945.4508 L304.2969,943.9907 L304.6875,941.2772 L305.0781,917.3134 L305.4688,934.9995 L305.8594,921.6501 L306.25,920.6995 L306.6407,937.5223 L307.0313,938.3353 L307.4219,880.699 L307.8125,944.2308 L308.2031,944.3936 L308.5938,939.3868 L308.9844,929.204 L309.375,927.4677 L309.7656,864.6082 L310.1563,930.9077 L310.5469,945.3243 L310.9375,942.0151 L311.3281,937.8563 L311.7188,907.4955 L312.1094,933.3359 L312.5,882.9064 L312.8906,938.8201 L313.2813,942.674 L313.6719,933.4851 L314.0625,927.499 L314.4532,938.1965 L314.8438,941.0712 L315.2344,928.4269 L315.625,946.3663 L316.0156,944.7791 L316.4063,946.5787 L316.7969,936.9813 L317.1875,937.6745 L317.5781,939.0082 L317.9688,929.645 L318.3594,928.2805 L318.75,924.1439 L319.1406,920.7101 L319.5313,945.6226 L319.9219,926.5867 L320.3125,937.9843 L320.7031,915.3621 L321.0938,948.0225 L321.4844,944.0996 L321.875,924.314 L322.2657,911.9454 L322.6563,941.8405 L323.0469,932.9494 L323.4375,919.6486 L323.8281,946.4688 L324.2188,914.7621 L324.6094,944.2679 L325,941.4579 L325.3906,916.0333 L325.7813,942.9659 L326.1719,946.0338 L326.5625,930.9113 L326.9531,945.0677 L327.3438,870.6526 L327.7344,940.4399 L328.125,941.3088 L328.5156,940.4908 L328.9063,939.9869 L329.2969,943.4231 L329.6875,934.6912 L330.0782,905.5231 L330.4688,910.8659 L330.8594,920.2916 L331.25,931.8341 L331.6406,937.0272 L332.0313,926.653 L332.4219,923.8738 L332.8125,862.2134 L333.2031,946.3106 L333.5938,934.136 L333.9844,939.0498 L334.375,932.8335 L334.7656,933.1986 L335.1563,938.077 L335.5469,946.0717 L335.9375,940.9517 L336.3281,944.6337 L336.7188,916.0031 L337.1094,923.4174 L337.5,942.1862 L337.8907,932.2946 L338.2813,903.1223 L338.6719,923.2122 L339.0625,942.7889 L339.4531,943.7155 L339.8438,937.0402 L340.2344,900.8913 L340.625,931.8822 L341.0156,931.9344 L341.4063,890.5856 L341.7969,921.0511 L342.1875,946.8886 L342.5781,947.2677 L342.9688,943.9298 L343.3594,924.3095 L343.75,928.244 L344.1406,940.1274 L344.5313,945.2143 L344.9219,918.8196 L345.3125,941.5955 L345.7032,944.2064 L346.0938,946.9901 L346.4844,940.5475 L346.875,869.5872 L347.2656,917.0463 L347.6563,933.6958 L348.0469,932.8984 L348.4375,921.6714 L348.8281,851.3963 L349.2188,934.3857 L349.6094,937.9473 L350,939.1337 L350.3906,925.796 L350.7813,944.0401 L351.1719,942.3034 L351.5625,945.519 L351.9531,936.2599 L352.3438,928.0731 L352.7344,946.324 L353.125,937.0468 L353.5157,925.6908 L353.9063,918.1629 L354.2969,942.2241 L354.6875,906.122 L355.0781,930.4183 L355.4688,928.0978 L355.8594,936.2856 L356.25,937.954 L356.6406,894.2141 L357.0313,941.8979 L357.4219,933.2668 L357.8125,942.4699 L358.2031,947.7205 L358.5938,937.245 L358.9844,942.1372 L359.375,930.9609 L359.7656,946.3071 L360.1563,919.3431 L360.5469,925.3687 L360.9375,939.9593 L361.3282,929.7701 L361.7188,912.0836 L362.1094,918.3021 L362.5,935.562 L362.8906,926.9705 L363.2813,943.2169 L363.6719,938.2648 L364.0625,934.2587 L364.4531,917.0129 L364.8438,944.1854 L365.2344,910.5236 L365.625,932.4647 L366.0156,939.968 L366.4063,944.1448 L366.7969,945.0889 L367.1875,934.3873 L367.5781,943.1072 L367.9688,936.9974 L368.3594,895.7942 L368.75,927.7659 L369.1407,928.3138 L369.5313,923.7917 L369.9219,945.3575 L370.3125,944.1437 L370.7031,923.1685 L371.0938,941.8932 L371.4844,940.0787 L371.875,945.9373 L372.2656,939.17 L372.6563,938.6003 L373.0469,928.9025 L373.4375,941.8608 L373.8281,926.1959 L374.2188,946.0271 L374.6094,932.7281 L375,910.5208 L375.3906,946.196 L375.7813,945.8119 L376.1719,939.8085 L376.5625,916.7416 L376.9532,940.4867 L377.3438,947.7958 L377.7344,890.6176 L378.125,935.3552 L378.5156,915.9733 L378.9063,896.3294 L379.2969,936.5047 L379.6875,922.8332 L380.0781,943.9401 L380.4688,858.6415 L380.8594,939.998 L381.25,913.6243 L381.6406,883.9606 L382.0313,933.6643 L382.4219,926.9263 L382.8125,943.2701 L383.2031,913.9672 L383.5938,915.1915 L383.9844,927.749 L384.375,943.6749 L384.7657,924.3118 L385.1563,936.3609 L385.5469,944.8094 L385.9375,946.9111 L386.3281,942.11 L386.7188,944.2116 L387.1094,938.0239 L387.5,924.0815 L387.8906,934.0449 L388.2813,936.554 L388.6719,882.8951 L389.0625,946.4415 L389.4531,947.0593 L389.8438,947.6587 L390.2344,941.2704 L390.625,904.3071 L391.0156,941.9826 L391.4063,934.3635 L391.7969,943.3503 L392.1875,930.2225 L392.5782,904.817 L392.9688,918.6609 L393.3594,942.183 L393.75,890.2123 L394.1406,941.2079 L394.5313,940.7982 L394.9219,942.8214 L395.3125,932.3597 L395.7031,939.1248 L396.0938,924.8352 L396.4844,916.3019 L396.875,939.3328 L397.2656,934.9382 L397.6563,944.7946 L398.0469,946.118 L398.4375,940.3002 L398.8281,941.9573 L399.2188,929.0011 L399.6094,929.1542 L400,937.3301 L400.3907,885.7424 L400.7813,940.6692 L401.1719,882.112 L401.5625,920.8344 L401.9531,945.9818 L402.3438,915.2089 L402.7344,947.0965 L403.125,940.1057 L403.5156,948.887 L403.9063,924.2855 L404.2969,933.3594 L404.6875,940.9096 L405.0781,923.5152 L405.4688,932.3825 L405.8594,935.1203 L406.25,932.3824 L406.6406,937.2989 L407.0313,937.4809 L407.4219,946.9398 L407.8125,945.1171 L408.2032,945.1705 L408.5938,909.4086 L408.9844,921.2028 L409.375,933.8553 L409.7656,942.4343 L410.1563,887.7194 L410.5469,945.5162 L410.9375,940.8299 L411.3281,885.337 L411.7188,939.5089 L412.1094,944.7088 L412.5,898.4134 L412.8906,890.4346 L413.2813,926.2869 L413.6719,920.8553 L414.0625,926.8038 L414.4531,909.3489 L414.8438,881.1536 L415.2344,937.8651 L415.625,915.3038 L416.0157,943.3951 L416.4063,933.97 L416.7969,943.389 L417.1875,944.7914 L417.5781,849.2368 L417.9688,925.9826 L418.3594,942.1763 L418.75,943.0333 L419.1406,941.0017 L419.5313,932.7673 L419.9219,931.1635 L420.3125,931.5232 L420.7031,933.0974 L421.0938,940.5762 L421.4844,936.5942 L421.875,928.3401 L422.2656,933.7234 L422.6563,947.9167 L423.0469,902.5854 L423.4375,940.5994 L423.8282,944.7802 L424.2188,944.9856 L424.6094,920.0643 L425,938.4252 L425.3906,929.6427 L425.7813,947.8875 L426.1719,931.4431 L426.5625,945.1371 L426.9531,943.6613 L427.3438,943.5952 L427.7344,942.0276 L428.125,908.2452 L428.5156,946.259 L428.9063,903.6412 L429.2969,922.8278 L429.6875,944.6062 L430.0781,926.7352 L430.4688,941.193 L430.8594,925.5854 L431.25,929.5204 L431.6407,938.5338 L432.0313,939.8486 L432.4219,925.4681 L432.8125,933.2049 L433.2031,942.7401 L433.5938,921.0577 L433.9844,946.3754 L434.375,918.9816 L434.7656,931.3375 L435.1563,932.692 L435.5469,942.2753 L435.9375,917.8658 L436.3281,923.567 L436.7188,888.2145 L437.1094,932.0944 L437.5,944.5135 L437.8906,913.4348 L438.2813,934.2503 L438.6719,940.4579 L439.0625,945.0074 L439.4532,919.3878 L439.8438,859.4681 L440.2344,936.864 L440.625,942.4719 L441.0156,941.7411 L441.4063,914.0321 L441.7969,932.8824 L442.1875,938.6356 L442.5781,944.3149 L442.9688,943.0134 L443.3594,911.4868 L443.75,908.0107 L444.1406,935.3467 L444.5313,932.9114 L444.9219,925.6877 L445.3125,896.605 L445.7031,946.2693 L446.0938,934.8773 L446.4844,885.2899 L446.875,948.3694 L447.2657,916.6303 L447.6563,936.1201 L448.0469,887.1072 L448.4375,944.8077 L448.8281,946.1158 L449.2188,919.4913 L449.6094,934.653 L450,936.3698 L450.3906,941.9091 L450.7813,942.6988 L451.1719,946.7191 L451.5625,927.1531 L451.9531,938.9221 L452.3438,946.2192 L452.7344,944.1569 L453.125,933.9836 L453.5156,931.3956 L453.9063,936.7952 L454.2969,929.4805 L454.6875,915.7526 L455.0782,942.403 L455.4688,925.7233 L455.8594,943.0776 L456.25,944.7377 L456.6406,928.6683 L457.0313,940.103 L457.4219,938.6047 L457.8125,928.4564 L458.2031,944.9395 L458.5938,933.0201 L458.9844,870.438 L459.375,946.8832 L459.7656,933.0569 L460.1563,903.5358 L460.5469,940.3723 L460.9375,942.5602 L461.3281,942.3105 L461.7188,930.9635 L462.1094,906.6714 L462.5,932.3839 L462.8907,946.3715 L463.2813,939.7494 L463.6719,941.1061 L464.0625,941.5079 L464.4531,920.3788 L464.8438,907.6198 L465.2344,933.0836 L465.625,922.1733 L466.0156,932.1312 L466.4063,943.2965 L466.7969,944.0694 L467.1875,935.9403 L467.5781,945.8837 L467.9688,915.7334 L468.3594,946.9579 L468.75,906.3466 L469.1406,922.0419 L469.5313,946.0493 L469.9219,893.2009 L470.3125,943.799 L470.7032,936.8415 L471.0938,937.3134 L471.4844,914.2637 L471.875,925.8849 L472.2656,919.1267 L472.6563,936.2211 L473.0469,942.2161 L473.4375,921.0461 L473.8281,930.861 L474.2188,941.6466 L474.6094,945.4215 L475,942.6318 L475.3906,943.4368 L475.7813,943.7274 L476.1719,946.6369 L476.5625,943.1688 L476.9531,926.8066 L477.3438,907.0753 L477.7344,945.0842 L478.125,944.4219 L478.5157,906.9484 L478.9063,942.218 L479.2969,946.5984 L479.6875,940.9729 L480.0781,945.8428 L480.4688,916.7481 L480.8594,876.6945 L481.25,931.9911 L481.6406,938.4778 L482.0313,943.5192 L482.4219,948.3068 L482.8125,833.3456 L483.2031,938.4516 L483.5938,943.5695 L483.9844,889.8414 L484.375,945.0173 L484.7656,943.8231 L485.1563,923.2267 L485.5469,940.2382 L485.9375,908.8762 L486.3282,945.2367 L486.7188,929.6516 L487.1094,933.6346 L487.5,922.7282 L487.8906,899.0129 L488.2813,925.8151 L488.6719,940.4571 L489.0625,939.1481 L489.4531,930.2728 L489.8438,923.5884 L490.2344,941.841 L490.625,937.9328 L491.0156,945.2574 L491.4063,928.4217 L491.7969,945.4227 L492.1875,928.3379 L492.5781,926.5497 L492.9688,942.2958 L493.3594,900.0242 L493.75,942.0352 L494.1407,888.445 L494.5313,929.2186 L494.9219,939.5294 L495.3125,942.5987 L495.7031,886.0399 L496.0938,933.2587 L496.4844,935.1268 L496.875,949.2995 L497.2656,942.6901 L497.6563,920.3575 L498.0469,938.9465 L498.4375,944.8694 L498.8281,906.1559 L499.2188,944.0377 L499.6094,928.6039 L500,948.8196 L500.3906,857.4205 L500.7813,921.7308 L501.1719,935.1562 L501.5625,931.6909 L501.9532,936.4075 L502.3438,948.3707 L502.7344,934.9326 L503.125,941.7948 L503.5156,926.5764 L503.9063,917.2645 L504.2969,933.7433 L504.6875,941.8003 L505.0781,939.233 L505.4688,940.7758 L505.8594,925.6072 L506.25,927.4987 L506.6406,904.7939 L507.0313,857.6776 L507.4219,937.0733 L507.8125,932.3303 L508.2031,944.6786 L508.5938,935.9315 L508.9844,935.8195 L509.375,938.8151 L509.7657,943.6811 L510.1563,946.6769 L510.5469,930.0708 L510.9375,942.7458 L511.3281,946.3929 L511.7188,928.1206 L512.1094,945.0754 L512.5,931.5253 L512.8906,945.7912 L513.2813,934.1334 L513.6719,936.9827 L514.0625,940.6245 L514.4531,944.423 L514.8438,933.5953 L515.2344,936.8217 L515.625,916.5544 L516.0156,945.1318 L516.4063,923.7917 L516.7969,944.5772 L517.1875,946.6559 L517.5781,946.8526 L517.9688,941.3959 L518.3594,927.4562 L518.75,940.0364 L519.1406,942.1104 L519.5313,934.3629 L519.9219,942.0569 L520.3125,947.8288 L520.7031,946.5068 L521.0938,925.6799 L521.4844,907.6485 L521.875,933.918 L522.2656,934.5898 L522.6563,922.9637 L523.0469,915.951 L523.4375,945.9331 L523.8281,926.7817 L524.2188,935.9187 L524.6094,943.8986 L525,911.9054 L525.3906,932.8693 L525.7813,934.7042 L526.1719,944.2181 L526.5625,942.7321 L526.9531,948.5259 L527.3438,944.3058 L527.7344,943.643 L528.125,947.3933 L528.5156,938.3564 L528.9063,939.226 L529.2969,922.2957 L529.6875,909.265 L530.0781,950 L530.4688,947.9235 L530.8594,940.0297 L531.25,937.7596 L531.6406,935.0543 L532.0313,926.5365 L532.4219,947.9244 L532.8125,923.8901 L533.2031,927.1021 L533.5938,890.4187 L533.9844,946.0119 L534.375,929.6513 L534.7656,913.5746 L535.1563,940.0605 L535.5469,939.9764 L535.9375,944.0378 L536.3281,944.0309 L536.7188,947.6145 L537.1094,885.8691 L537.5,922.9454 " stroke="blue" fill="none" />
<text x="50" y="1000" font-family="Arial" font-size="12" fill="black">Episode Length (1249)</text>
<text x="50" y="1015" font-family="Arial" font-size="10" fill="black">1085</text>
<text x="50" y="1230" font-family="Arial" font-size="10" fill="black">5</text>
<path d="M50,1217.407 L50.39063,1216.852 L50.78125,1215.926 L51.17188,1215.926 L51.5625,1214.444 L51.95313,1214.074 L52.34375,1213.889 L52.73438,1213.704 L53.125,1213.704 L53.51563,1213.519 L53.90625,1213.333 L54.29688,1212.963 L54.6875,1212.963 L55.07813,1212.778 L55.46875,1212.037 L55.85938,1211.667 L56.25,1211.481 L56.64063,1211.296 L57.03125,1209.815 L57.42188,1209.444 L57.8125,1212.963 L58.20313,1208.519 L58.59375,1214.63 L58.98438,1207.778 L59.375,1207.593 L59.76563,1213.889 L60.15625,1214.63 L60.54688,1206.296 L60.9375,1206.296 L61.32813,1205.926 L61.71875,1210.556 L62.10938,1216.852 L62.5,1203.333 L62.89063,1202.593 L63.28125,1202.593 L63.67188,1202.037 L64.0625,1201.667 L64.45313,1201.481 L64.84375,1201.481 L65.23438,1200.37 L65.625,1200.185 L66.01563,1200.185 L66.40625,1199.815 L66.79688,1199.63 L67.1875,1199.444 L67.57813,1213.333 L67.96875,1216.296 L68.35938,1208.333 L68.75,1204.259 L69.14063,1194.815 L69.53125,1194.815 L69.92188,1207.037 L70.3125,1194.63 L70.70313,1194.444 L71.09375,1205.741 L71.48438,1200.37 L71.875,1200.185 L72.26563,1207.222 L72.65625,1207.593 L73.04688,1210.926 L73.4375,1198.704 L73.82813,1215.741 L74.21875,1188.333 L74.60938,1188.148 L75,1215 L75.39063,1212.963 L75.78125,1190.926 L76.17188,1213.148 L76.5625,1187.037 L76.95313,1218.148 L77.34375,1204.815 L77.73438,1185.37 L78.125,1216.667 L78.51563,1197.407 L78.90625,1205.37 L79.29688,1207.778 L79.6875,1186.296 L80.07813,1194.444 L80.46875,1181.111 L80.85938,1200.926 L81.25,1199.815 L81.64063,1214.63 L82.03125,1177.037 L82.42188,1210.37 L82.8125,1175.741 L83.20313,1175.37 L83.59375,1202.963 L83.98438,1213.889 L84.375,1174.259 L84.76563,1201.852 L85.15625,1194.63 L85.54688,1172.963 L85.9375,1211.296 L86.32813,1200 L86.71875,1198.148 L87.10938,1197.037 L87.5,1203.704 L87.89063,1204.259 L88.28125,1169.815 L88.67188,1195.185 L89.0625,1203.889 L89.45313,1201.667 L89.84375,1185.926 L90.23438,1188.148 L90.625,1167.222 L91.01563,1174.074 L91.40625,1199.815 L91.79688,1197.037 L92.1875,1217.222 L92.57813,1210.185 L92.96875,1181.481 L93.35938,1207.222 L93.75,1171.296 L94.14063,1184.259 L94.53125,1163.333 L94.92188,1163.148 L95.3125,1195 L95.70313,1215.556 L96.09375,1212.963 L96.48438,1173.704 L96.875,1169.074 L97.26563,1215.741 L97.65625,1179.63 L98.04688,1206.667 L98.4375,1203.519 L98.82813,1190.556 L99.21875,1216.667 L99.60938,1186.481 L100,1211.111 L100.3906,1207.778 L100.7813,1204.259 L101.1719,1209.259 L101.5625,1152.778 L101.9531,1214.444 L102.3438,1170.926 L102.7344,1160.926 L103.125,1207.407 L103.5156,1150.185 L103.9063,1200.741 L104.2969,1210 L104.6875,1182.778 L105.0781,1189.074 L105.4688,1147.778 L105.8594,1193.889 L106.25,1195.37 L106.6406,1196.296 L107.0313,1211.852 L107.4219,1192.963 L107.8125,1202.963 L108.2031,1207.963 L108.5938,1208.148 L108.9844,1144.259 L109.375,1207.778 L109.7656,1143.704 L110.1563,1152.593 L110.5469,1192.037 L110.9375,1202.407 L111.3281,1189.815 L111.7188,1194.815 L112.1094,1186.852 L112.5,1198.704 L112.8906,1194.259 L113.2813,1208.889 L113.6719,1178.333 L114.0625,1208.148 L114.4531,1205.741 L114.8438,1197.407 L115.2344,1215.741 L115.625,1212.593 L116.0156,1212.593 L116.4063,1202.037 L116.7969,1210 L117.1875,1212.963 L117.5781,1196.667 L117.9688,1210.926 L118.3594,1215.185 L118.75,1215 L119.1406,1140.37 L119.5313,1154.074 L119.9219,1207.963 L120.3125,1131.667 L120.7031,1189.074 L121.0938,1172.963 L121.4844,1170 L121.875,1203.889 L122.2656,1207.963 L122.6563,1200.185 L123.0469,1211.111 L123.4375,1215.926 L123.8281,1176.852 L124.2188,1172.407 L124.6094,1213.333 L125,1202.222 L125.3906,1198.889 L125.7813,1216.667 L126.1719,1185.37 L126.5625,1213.148 L126.9531,1209.444 L127.3438,1195.556 L127.7344,1213.333 L128.125,1189.63 L128.5156,1180.185 L128.9063,1214.815 L129.2969,1179.815 L129.6875,1195.926 L130.0781,1162.037 L130.4688,1209.63 L130.8594,1216.296 L131.25,1171.481 L131.6406,1175.556 L132.0313,1119.815 L132.4219,1217.037 L132.8125,1216.667 L133.2031,1139.63 L133.5938,1164.074 L133.9844,1215.926 L134.375,1209.63 L134.7656,1194.259 L135.1563,1204.259 L135.5469,1206.296 L135.9375,1200 L136.3281,1214.815 L136.7188,1197.963 L137.1094,1211.296 L137.5,1196.667 L137.8906,1189.815 L138.2813,1203.889 L138.6719,1153.704 L139.0625,1205 L139.4531,1203.519 L139.8438,1202.593 L140.2344,1202.593 L140.625,1207.407 L141.0156,1187.593 L141.4063,1211.481 L141.7969,1191.852 L142.1875,1202.593 L142.5781,1207.407 L142.9688,1122.407 L143.3594,1186.481 L143.75,1211.481 L144.1406,1125 L144.5313,1215 L144.9219,1194.815 L145.3125,1110.926 L145.7031,1192.407 L146.0938,1210.185 L146.4844,1200.37 L146.875,1197.778 L147.2656,1213.889 L147.6563,1214.259 L148.0469,1211.296 L148.4375,1212.963 L148.8281,1200 L149.2188,1215.926 L149.6094,1117.407 L150,1203.519 L150.3906,1203.519 L150.7813,1197.963 L151.1719,1164.074 L151.5625,1151.481 L151.9531,1194.63 L152.3438,1211.481 L152.7344,1163.519 L153.125,1184.074 L153.5156,1204.259 L153.9063,1198.333 L154.2969,1211.111 L154.6875,1205.185 L155.0781,1202.407 L155.4688,1180.741 L155.8594,1102.593 L156.25,1208.519 L156.6406,1198.519 L157.0313,1215 L157.4219,1214.259 L157.8125,1217.593 L158.2031,1197.963 L158.5938,1214.63 L158.9844,1153.333 L159.375,1179.815 L159.7656,1161.481 L160.1563,1218.148 L160.5469,1137.593 L160.9375,1213.148 L161.3281,1218.148 L161.7188,1198.704 L162.1094,1182.593 L162.5,1202.222 L162.8906,1207.778 L163.2813,1169.63 L163.6719,1212.778 L164.0625,1184.074 L164.4531,1193.519 L164.8438,1215.37 L165.2344,1186.111 L165.625,1212.593 L166.0156,1187.407 L166.4063,1092.407 L166.7969,1193.519 L167.1875,1185.185 L167.5781,1213.519 L167.9688,1202.407 L168.3594,1198.519 L168.75,1131.296 L169.1406,1177.593 L169.5313,1191.852 L169.9219,1198.519 L170.3125,1162.037 L170.7031,1170.556 L171.0938,1210.185 L171.4844,1210.741 L171.875,1206.852 L172.2656,1199.63 L172.6563,1211.667 L173.0469,1167.778 L173.4375,1205 L173.8281,1143.704 L174.2188,1198.889 L174.6094,1211.481 L175,1214.63 L175.3906,1127.407 L175.7813,1207.407 L176.1719,1209.815 L176.5625,1188.148 L176.9531,1152.593 L177.3438,1207.222 L177.7344,1214.074 L178.125,1197.222 L178.5156,1211.667 L178.9063,1204.815 L179.2969,1189.444 L179.6875,1200.926 L180.0781,1141.296 L180.4688,1212.778 L180.8594,1213.148 L181.25,1189.815 L181.6406,1152.778 L182.0313,1188.148 L182.4219,1190.741 L182.8125,1199.63 L183.2031,1207.037 L183.5938,1214.815 L183.9844,1196.481 L184.375,1198.704 L184.7656,1205.926 L185.1563,1208.889 L185.5469,1201.481 L185.9375,1211.111 L186.3281,1156.111 L186.7188,1174.815 L187.1094,1162.222 L187.5,1210.556 L187.8906,1185.926 L188.2813,1181.667 L188.6719,1188.148 L189.0625,1158.148 L189.4531,1207.037 L189.8438,1193.333 L190.2344,1197.778 L190.625,1207.593 L191.0156,1215 L191.4063,1216.296 L191.7969,1207.593 L192.1875,1210.185 L192.5781,1188.704 L192.9688,1183.704 L193.3594,1190.37 L193.75,1191.852 L194.1406,1195.37 L194.5313,1181.296 L194.9219,1196.481 L195.3125,1118.519 L195.7031,1193.519 L196.0938,1216.481 L196.4844,1210.741 L196.875,1190.37 L197.2656,1215.185 L197.6563,1217.222 L198.0469,1177.778 L198.4375,1150.926 L198.8281,1216.111 L199.2188,1199.815 L199.6094,1200.556 L200,1211.667 L200.3906,1111.481 L200.7813,1220 L201.1719,1199.815 L201.5625,1123.519 L201.9531,1209.815 L202.3438,1216.296 L202.7344,1210 L203.125,1211.111 L203.5156,1202.593 L203.9063,1119.259 L204.2969,1202.222 L204.6875,1196.852 L205.0781,1210.185 L205.4688,1202.037 L205.8594,1211.667 L206.25,1159.074 L206.6406,1209.074 L207.0313,1192.407 L207.4219,1184.815 L207.8125,1199.259 L208.2031,1182.222 L208.5938,1126.667 L208.9844,1200.185 L209.375,1181.667 L209.7656,1199.63 L210.1563,1181.481 L210.5469,1160.37 L210.9375,1151.111 L211.3281,1216.111 L211.7188,1213.704 L212.1094,1205.185 L212.5,1163.148 L212.8906,1201.296 L213.2813,1213.333 L213.6719,1206.481 L214.0625,1186.667 L214.4531,1084.815 L214.8438,1210.926 L215.2344,1209.259 L215.625,1170.556 L216.0156,1210.926 L216.4063,1211.296 L216.7969,1172.963 L217.1875,1175.741 L217.5781,1194.444 L217.9688,1200.185 L218.3594,1205.556 L218.75,1171.296 L219.1406,1161.111 L219.5313,1169.444 L219.9219,1207.778 L220.3125,1210.185 L220.7031,1171.481 L221.0938,1214.63 L221.4844,1175.741 L221.875,1214.074 L222.2656,1206.111 L222.6563,1204.815 L223.0469,1189.63 L223.4375,1161.296 L223.8281,1214.444 L224.2188,1212.593 L224.6094,1136.852 L225,1162.778 L225.3906,1194.63 L225.7813,1201.852 L226.1719,1158.519 L226.5625,1193.148 L226.9531,1157.407 L227.3438,1206.296 L227.7344,1204.815 L228.125,1205 L228.5156,1173.889 L228.9063,1201.667 L229.2969,1135.926 L229.6875,1214.259 L230.0781,1149.815 L230.4688,1060.37 L230.8594,1170 L231.25,1195.37 L231.6406,1097.222 L232.0313,1180.185 L232.4219,1216.481 L232.8125,1192.963 L233.2031,1206.481 L233.5938,1164.074 L233.9844,1148.704 L234.375,1159.259 L234.7656,1215.185 L235.1563,1209.259 L235.5469,1217.963 L235.9375,1170.37 L236.3281,1212.222 L236.7188,1172.407 L237.1094,1189.63 L237.5,1193.704 L237.8906,1217.963 L238.2813,1212.407 L238.6719,1199.815 L239.0625,1203.148 L239.4531,1214.444 L239.8438,1213.704 L240.2344,1138.704 L240.625,1218.148 L241.0156,1201.852 L241.4063,1214.444 L241.7969,1210.37 L242.1875,1195 L242.5781,1173.889 L242.9688,1111.111 L243.3594,1215.741 L243.75,1215.556 L244.1406,1209.63 L244.5313,1174.074 L244.9219,1147.222 L245.3125,1202.963 L245.7031,1159.074 L246.0938,1163.333 L246.4844,1117.778 L246.875,1199.815 L247.2656,1199.259 L247.6563,1210.556 L248.0469,1210.741 L248.4375,1216.296 L248.8281,1203.519 L249.2188,1210.185 L249.6094,1213.519 L250,1195.185 L250.3906,1177.778 L250.7813,1197.407 L251.1719,1180.741 L251.5625,1157.222 L251.9531,1214.815 L252.3438,1164.63 L252.7344,1175.926 L253.125,1190.741 L253.5156,1213.333 L253.9063,1215.556 L254.2969,1181.852 L254.6875,1176.481 L255.0781,1148.333 L255.4688,1211.296 L255.8594,1188.333 L256.25,1201.667 L256.6406,1188.519 L257.0313,1194.63 L257.4219,1141.667 L257.8125,1161.667 L258.2031,1183.889 L258.5938,1130.37 L258.9844,1148.889 L259.375,1191.296 L259.7656,1209.63 L260.1563,1192.037 L260.5469,1215.741 L260.9375,1191.111 L261.3281,1201.481 L261.7188,1145.741 L262.1094,1183.704 L262.5,1124.815 L262.8906,1107.963 L263.2813,1196.296 L263.6719,1183.333 L264.0625,1190.556 L264.4531,1199.815 L264.8438,1189.444 L265.2344,1202.222 L265.625,1211.481 L266.0156,1183.704 L266.4063,1188.333 L266.7969,1061.481 L267.1875,1212.963 L267.5781,1155.926 L267.9688,1202.037 L268.3594,1184.259 L268.75,1203.889 L269.1406,1211.667 L269.5313,1186.667 L269.9219,1081.111 L270.3125,1176.481 L270.7031,1182.593 L271.0938,1210.926 L271.4844,1195.556 L271.875,1212.963 L272.2656,1150.556 L272.6563,1212.407 L273.0469,1180.185 L273.4375,1200.185 L273.8281,1187.407 L274.2188,1194.444 L274.6094,1201.481 L275,1137.593 L275.3906,1210.556 L275.7813,1153.333 L276.1719,1169.259 L276.5625,1199.815 L276.9531,1180.741 L277.3438,1156.111 L277.7344,1212.222 L278.125,1188.519 L278.5156,1104.074 L278.9063,1212.593 L279.2969,1213.704 L279.6875,1119.63 L280.0781,1213.333 L280.4688,1216.667 L280.8594,1027.778 L281.25,1177.593 L281.6406,1215.185 L282.0313,1148.889 L282.4219,1202.222 L282.8125,1214.63 L283.2031,1203.333 L283.5938,1196.481 L283.9844,1206.481 L284.375,1178.148 L284.7656,1205.926 L285.1563,1209.815 L285.5469,1187.778 L285.9375,1088.519 L286.3281,1209.074 L286.7188,1203.704 L287.1094,1212.593 L287.5,1185 L287.8906,1193.889 L288.2813,1215.185 L288.6719,1159.63 L289.0625,1199.444 L289.4531,1210 L289.8438,1193.704 L290.2344,1213.889 L290.625,1216.481 L291.0156,1174.444 L291.4063,1163.519 L291.7969,1180.37 L292.1875,1209.444 L292.5781,1174.815 L292.9688,1202.407 L293.3594,1205.37 L293.75,1208.519 L294.1406,1157.222 L294.5313,1171.852 L294.9219,1199.444 L295.3125,1213.148 L295.7031,1214.259 L296.0938,1199.259 L296.4844,1215 L296.875,1145.556 L297.2656,1126.852 L297.6563,1199.815 L298.0469,1188.333 L298.4375,1188.704 L298.8281,1178.148 L299.2188,1117.593 L299.6094,1206.481 L300,1184.074 L300.3906,1139.63 L300.7813,1173.333 L301.1719,1203.704 L301.5625,1176.667 L301.9531,1211.852 L302.3438,1202.222 L302.7344,1132.778 L303.125,1208.333 L303.5156,1165 L303.9063,1213.704 L304.2969,1208.889 L304.6875,1205.185 L305.0781,1152.037 L305.4688,1195.741 L305.8594,1173.889 L306.25,1172.778 L306.6407,1198.148 L307.0313,1195 L307.4219,1100.37 L307.8125,1212.593 L308.2031,1212.963 L308.5938,1198.704 L308.9844,1185.37 L309.375,1182.037 L309.7656,1082.778 L310.1563,1179.074 L310.5469,1208.704 L310.9375,1208.704 L311.3281,1200 L311.7188,1147.037 L312.1094,1189.074 L312.5,1103.333 L312.8906,1197.407 L313.2813,1209.444 L313.6719,1193.889 L314.0625,1176.481 L314.4532,1196.296 L314.8438,1206.111 L315.2344,1177.407 L315.625,1213.148 L316.0156,1211.481 L316.4063,1215.556 L316.7969,1193.148 L317.1875,1197.778 L317.5781,1203.333 L317.9688,1177.037 L318.3594,1184.63 L318.75,1173.148 L319.1406,1167.037 L319.5313,1212.963 L319.9219,1177.407 L320.3125,1197.778 L320.7031,1170.185 L321.0938,1218.519 L321.4844,1204.815 L321.875,1180.185 L322.2657,1149.63 L322.6563,1206.481 L323.0469,1192.222 L323.4375,1168.148 L323.8281,1216.111 L324.2188,1151.852 L324.6094,1210.37 L325,1202.407 L325.3906,1158.519 L325.7813,1206.481 L326.1719,1215 L326.5625,1186.667 L326.9531,1211.296 L327.3438,1089.63 L327.7344,1200 L328.125,1202.778 L328.5156,1206.667 L328.9063,1206.111 L329.2969,1208.148 L329.6875,1190 L330.0782,1138.148 L330.4688,1151.667 L330.8594,1167.222 L331.25,1191.852 L331.6406,1193.333 L332.0313,1176.852 L332.4219,1163.148 L332.8125,1067.593 L333.2031,1213.333 L333.5938,1185.556 L333.9844,1203.704 L334.375,1189.444 L334.7656,1192.963 L335.1563,1197.593 L335.5469,1210.926 L335.9375,1205 L336.3281,1209.63 L336.7188,1165.37 L337.1094,1171.667 L337.5,1208.148 L337.8907,1187.778 L338.2813,1123.519 L338.6719,1155.926 L339.0625,1207.778 L339.4531,1207.593 L339.8438,1198.333 L340.2344,1140.185 L340.625,1188.519 L341.0156,1192.963 L341.4063,1120.741 L341.7969,1171.481 L342.1875,1215.926 L342.5781,1214.63 L342.9688,1207.593 L343.3594,1181.852 L343.75,1180 L344.1406,1205.556 L344.5313,1212.222 L344.9219,1163.333 L345.3125,1205 L345.7032,1215.185 L346.0938,1213.519 L346.4844,1207.222 L346.875,1080.926 L347.2656,1154.63 L347.6563,1189.259 L348.0469,1193.519 L348.4375,1165.37 L348.8281,1039.63 L349.2188,1190.556 L349.6094,1199.815 L350,1197.778 L350.3906,1173.333 L350.7813,1211.296 L351.1719,1210.741 L351.5625,1214.259 L351.9531,1190.185 L352.3438,1184.259 L352.7344,1212.593 L353.125,1195.926 L353.5157,1172.037 L353.9063,1150.926 L354.2969,1205.926 L354.6875,1143.148 L355.0781,1185.741 L355.4688,1165 L355.8594,1194.074 L356.25,1200 L356.6406,1121.481 L357.0313,1201.667 L357.4219,1179.074 L357.8125,1207.778 L358.2031,1216.481 L358.5938,1200.926 L358.9844,1206.481 L359.375,1181.667 L359.7656,1215.37 L360.1563,1169.074 L360.5469,1172.963 L360.9375,1203.889 L361.3282,1182.778 L361.7188,1141.481 L362.1094,1156.111 L362.5,1198.519 L362.8906,1184.63 L363.2813,1206.481 L363.6719,1200.556 L364.0625,1193.148 L364.4531,1169.259 L364.8438,1209.63 L365.2344,1151.296 L365.625,1191.296 L366.0156,1198.148 L366.4063,1207.778 L366.7969,1214.444 L367.1875,1193.889 L367.5781,1207.778 L367.9688,1190.741 L368.3594,1121.296 L368.75,1182.037 L369.1407,1187.037 L369.5313,1174.63 L369.9219,1209.63 L370.3125,1208.889 L370.7031,1160.741 L371.0938,1209.259 L371.4844,1206.852 L371.875,1214.815 L372.2656,1205.185 L372.6563,1201.111 L373.0469,1181.296 L373.4375,1206.852 L373.8281,1183.889 L374.2188,1215.556 L374.6094,1189.074 L375,1154.815 L375.3906,1215.926 L375.7813,1214.259 L376.1719,1202.222 L376.5625,1167.593 L376.9532,1203.333 L377.3438,1216.296 L377.7344,1108.333 L378.125,1195 L378.5156,1155.556 L378.9063,1117.407 L379.2969,1198.333 L379.6875,1174.074 L380.0781,1207.593 L380.4688,1053.333 L380.8594,1202.963 L381.25,1148.333 L381.6406,1100.37 L382.0313,1195.185 L382.4219,1183.333 L382.8125,1207.407 L383.2031,1164.63 L383.5938,1162.963 L383.9844,1180.185 L384.375,1204.259 L384.7657,1170.741 L385.1563,1194.259 L385.5469,1209.074 L385.9375,1216.852 L386.3281,1205.37 L386.7188,1211.481 L387.1094,1199.259 L387.5,1171.481 L387.8906,1191.296 L388.2813,1192.222 L388.6719,1110.37 L389.0625,1214.259 L389.4531,1214.074 L389.8438,1215.185 L390.2344,1204.63 L390.625,1126.111 L391.0156,1206.111 L391.4063,1193.704 L391.7969,1205.926 L392.1875,1182.222 L392.5782,1156.296 L392.9688,1150.556 L393.3594,1204.444 L393.75,1114.074 L394.1406,1202.778 L394.5313,1204.259 L394.9219,1210.185 L395.3125,1188.889 L395.7031,1202.778 L396.0938,1171.852 L396.4844,1164.259 L396.875,1195.926 L397.2656,1188.519 L397.6563,1209.815 L398.0469,1208.889 L398.4375,1200 L398.8281,1203.519 L399.2188,1184.815 L399.6094,1180 L400,1196.296 L400.3907,1108.889 L400.7813,1206.481 L401.1719,1091.296 L401.5625,1172.963 L401.9531,1215.185 L402.3438,1144.444 L402.7344,1215.741 L403.125,1207.963 L403.5156,1217.963 L403.9063,1178.519 L404.2969,1191.296 L404.6875,1208.519 L405.0781,1171.481 L405.4688,1184.444 L405.8594,1199.815 L406.25,1187.778 L406.6406,1204.444 L407.0313,1184.815 L407.4219,1215.185 L407.8125,1213.889 L408.2032,1213.704 L408.5938,1146.296 L408.9844,1167.778 L409.375,1192.407 L409.7656,1209.63 L410.1563,1122.593 L410.5469,1210 L410.9375,1204.259 L411.3281,1114.815 L411.7188,1198.148 L412.1094,1210.556 L412.5,1127.407 L412.8906,1116.111 L413.2813,1179.444 L413.6719,1163.333 L414.0625,1179.815 L414.4531,1150.185 L414.8438,1095.556 L415.2344,1199.815 L415.625,1163.333 L416.0157,1208.148 L416.4063,1196.296 L416.7969,1206.852 L417.1875,1211.296 L417.5781,1020 L417.9688,1168.889 L418.3594,1206.111 L418.75,1211.852 L419.1406,1205.926 L419.5313,1187.407 L419.9219,1193.333 L420.3125,1191.481 L420.7031,1191.481 L421.0938,1206.852 L421.4844,1192.037 L421.875,1187.037 L422.2656,1193.333 L422.6563,1217.222 L423.0469,1119.074 L423.4375,1202.778 L423.8282,1207.407 L424.2188,1211.852 L424.6094,1161.111 L425,1200.926 L425.3906,1183.519 L425.7813,1217.037 L426.1719,1181.296 L426.5625,1212.037 L426.9531,1211.481 L427.3438,1208.519 L427.7344,1209.074 L428.125,1157.037 L428.5156,1215.185 L428.9063,1141.296 L429.2969,1174.444 L429.6875,1211.481 L430.0781,1175.37 L430.4688,1202.963 L430.8594,1180.185 L431.25,1187.778 L431.6407,1200 L432.0313,1200.556 L432.4219,1164.815 L432.8125,1186.852 L433.2031,1203.333 L433.5938,1167.037 L433.9844,1215.37 L434.375,1163.333 L434.7656,1185.556 L435.1563,1190.185 L435.5469,1207.037 L435.9375,1165.556 L436.3281,1172.593 L436.7188,1108.148 L437.1094,1190.926 L437.5,1208.519 L437.8906,1150.37 L438.2813,1192.407 L438.6719,1202.593 L439.0625,1213.519 L439.4532,1162.593 L439.8438,1206.667 L440.2344,1200.37 L440.625,1207.963 L441.0156,1205.185 L441.4063,1154.63 L441.7969,1188.889 L442.1875,1197.778 L442.5781,1210.556 L442.9688,1210 L443.3594,1151.111 L443.75,1144.259 L444.1406,1199.444 L444.5313,1187.778 L444.9219,1179.444 L445.3125,1135.556 L445.7031,1213.148 L446.0938,1195.37 L446.4844,1199.815 L446.875,1217.593 L447.2657,1159.63 L447.6563,1197.037 L448.0469,1110.556 L448.4375,1209.815 L448.8281,1214.444 L449.2188,1172.778 L449.6094,1190.741 L450,1194.074 L450.3906,1206.852 L450.7813,1212.222 L451.1719,1215.926 L451.5625,1180.37 L451.9531,1200.37 L452.3438,1213.333 L452.7344,1210.741 L453.125,1192.037 L453.5156,1184.259 L453.9063,1196.667 L454.2969,1181.667 L454.6875,1154.444 L455.0782,1203.148 L455.4688,1179.444 L455.8594,1209.63 L456.25,1207.963 L456.6406,1180.37 L457.0313,1200.37 L457.4219,1202.593 L457.8125,1178.148 L458.2031,1210 L458.5938,1191.111 L458.9844,1065.926 L459.375,1216.481 L459.7656,1187.037 L460.1563,1139.259 L460.5469,1206.667 L460.9375,1208.148 L461.3281,1203.889 L461.7188,1182.037 L462.1094,1142.593 L462.5,1193.704 L462.8907,1214.444 L463.2813,1200.926 L463.6719,1205.926 L464.0625,1204.63 L464.4531,1170.741 L464.8438,1146.852 L465.2344,1191.481 L465.625,1174.259 L466.0156,1182.778 L466.4063,1210.926 L466.7969,1208.889 L467.1875,1197.037 L467.5781,1213.889 L467.9688,1158.519 L468.3594,1215.741 L468.75,1143.333 L469.1406,1171.852 L469.5313,1215.185 L469.9219,1111.667 L470.3125,1209.259 L470.7032,1200.741 L471.0938,1198.704 L471.4844,1153.333 L471.875,1176.296 L472.2656,1162.778 L472.6563,1195.556 L473.0469,1199.444 L473.4375,1173.889 L473.8281,1184.259 L474.2188,1204.444 L474.6094,1207.778 L475,1210.556 L475.3906,1208.148 L475.7813,1210.926 L476.1719,1214.074 L476.5625,1203.704 L476.9531,1173.519 L477.3438,1132.593 L477.7344,1210.556 L478.125,1210.741 L478.5157,1138.333 L478.9063,1210.37 L479.2969,1214.259 L479.6875,1208.148 L480.0781,1213.889 L480.4688,1164.074 L480.8594,1083.519 L481.25,1188.889 L481.6406,1195.556 L482.0313,1203.889 L482.4219,1213.519 L482.8125,1020.741 L483.2031,1200.741 L483.5938,1208.333 L483.9844,1106.481 L484.375,1212.778 L484.7656,1207.593 L485.1563,1164.259 L485.5469,1201.667 L485.9375,1150.556 L486.3282,1213.519 L486.7188,1182.593 L487.1094,1188.889 L487.5,1172.037 L487.8906,1112.037 L488.2813,1178.704 L488.6719,1204.074 L489.0625,1200.926 L489.4531,1180.741 L489.8438,1172.407 L490.2344,1207.407 L490.625,1196.852 L491.0156,1209.259 L491.4063,1178.148 L491.7969,1211.111 L492.1875,1179.444 L492.5781,1179.63 L492.9688,1207.593 L493.3594,1134.815 L493.75,1203.889 L494.1407,1124.074 L494.5313,1189.259 L494.9219,1199.259 L495.3125,1206.111 L495.7031,1106.296 L496.0938,1193.519 L496.4844,1191.111 L496.875,1218.148 L497.2656,1207.037 L497.6563,1172.963 L498.0469,1197.407 L498.4375,1211.852 L498.8281,1144.444 L499.2188,1207.963 L499.6094,1182.778 L500,1216.852 L500.3906,1048.519 L500.7813,1165.741 L501.1719,1192.037 L501.5625,1180 L501.9532,1197.407 L502.3438,1216.667 L502.7344,1191.111 L503.125,1208.704 L503.5156,1179.074 L503.9063,1158.519 L504.2969,1191.296 L504.6875,1199.815 L505.0781,1202.222 L505.4688,1207.037 L505.8594,1172.407 L506.25,1175.37 L506.6406,1135 L507.0313,1043.889 L507.4219,1197.778 L507.8125,1190.556 L508.2031,1210.556 L508.5938,1198.333 L508.9844,1193.889 L509.375,1203.889 L509.7657,1208.148 L510.1563,1214.63 L510.5469,1182.593 L510.9375,1211.111 L511.3281,1213.333 L511.7188,1187.407 L512.1094,1214.074 L512.5,1188.333 L512.8906,1212.778 L513.2813,1192.407 L513.6719,1194.259 L514.0625,1204.259 L514.4531,1210.556 L514.8438,1187.963 L515.2344,1197.222 L515.625,1159.444 L516.0156,1209.259 L516.4063,1166.296 L516.7969,1209.63 L517.1875,1212.037 L517.5781,1216.111 L517.9688,1208.519 L518.3594,1173.704 L518.75,1204.444 L519.1406,1207.222 L519.5313,1189.444 L519.9219,1200.185 L520.3125,1217.222 L520.7031,1215.185 L521.0938,1177.778 L521.4844,1135.926 L521.875,1191.852 L522.2656,1195.37 L522.6563,1172.593 L523.0469,1167.963 L523.4375,1215.37 L523.8281,1178.889 L524.2188,1197.407 L524.6094,1210.556 L525,1153.889 L525.3906,1189.074 L525.7813,1189.63 L526.1719,1210.556 L526.5625,1210 L526.9531,1215 L527.3438,1211.296 L527.7344,1204.63 L528.125,1215.556 L528.5156,1202.778 L528.9063,1200.741 L529.2969,1164.815 L529.6875,1133.333 L530.0781,1214.074 L530.4688,1217.222 L530.8594,1197.963 L531.25,1201.296 L531.6406,1189.63 L532.0313,1182.407 L532.4219,1216.481 L532.8125,1176.852 L533.2031,1182.407 L533.5938,1123.519 L533.9844,1215.556 L534.375,1180.926 L534.7656,1157.222 L535.1563,1199.815 L535.5469,1201.481 L535.9375,1210.741 L536.3281,1206.481 L536.7188,1216.852 L537.1094,1095 L537.5,1177.222 " stroke="blue" fill="none" />
<text x="50" y="1270" font-family="Arial" font-size="12" fill="black">Actor Loss</text>
<text x="50" y="1285" font-family="Arial" font-size="10" fill="black">0.6905999</text>
<text x="50" y="1500" font-family="Arial" font-size="10" fill="black">0.469357</text>
<path d="M50,1291.876 L75,1290 L100,1490 L125,1335.708 L150,1324.068 L175,1297.718 L200,1292.683 L225,1306.668 L250,1298.471 L275,1400.905 L300,1292.622 " stroke="blue" fill="none" />
<text x="50" y="1540" font-family="Arial" font-size="12" fill="black">Critic Loss</text>
<text x="50" y="1555" font-family="Arial" font-size="10" fill="black">0.005742394</text>
<text x="50" y="1770" font-family="Arial" font-size="10" fill="black">0.003334115</text>
<path d="M50,1728.734 L75,1736.17 L100,1560.001 L125,1738.965 L150,1748.843 L175,1730.381 L200,1747.892 L225,1760 L250,1744.391 L275,1668.951 L300,1737.907 " stroke="blue" fill="none" />
<text x="50" y="1810" font-family="Arial" font-size="12" fill="black">Entropy</text>
<text x="50" y="1825" font-family="Arial" font-size="10" fill="black">1.510791</text>
<text x="50" y="2040" font-family="Arial" font-size="10" fill="black">1.389929</text>
<path d="M50,1847.857 L75,1830.127 L100,1830.001 L125,1830 L150,1830 L175,1830 L200,1830 L225,2028.571 L250,2029.99 L275,2030 L300,2030 " stroke="blue" fill="none" />
<text x="750" y="710" font-family="Arial" font-size="12" fill="black">Simplified</text>
<text x="750" y="725" font-family="Arial" font-size="10" fill="black">2.019838</text>
<text x="750" y="940" font-family="Arial" font-size="10" fill="black">0.3087693</text>
<path d="M757.0313,930 L764.4531,905.5242 L771.875,885.7299 L779.2969,891.6082 L786.7188,849.9112 L794.1406,845.1375 L801.5625,850.0175 L808.9844,831.4649 L816.4063,860.8474 L823.8281,839.8396 L831.25,863.5732 L838.6719,839.3605 L846.0938,834.5043 L853.5156,840.6091 L860.9375,838.281 L868.3594,837.0134 L875.7813,818.2766 L883.2031,845.1469 L890.625,845.1695 L898.0469,781.2852 L905.4688,838.2927 L912.8906,818.4207 L920.3125,824.3219 L927.7344,826.852 L935.1563,759.1929 L942.5781,870.4123 L950,818.661 L957.4219,811.3834 L964.8438,774.21 L972.2656,784.2842 L979.6875,793.3489 L987.1094,811.8204 L994.5313,838.9568 L1001.953,805.6644 L1009.375,808.7714 L1016.797,809.049 L1024.219,817.1134 L1031.641,814.7457 L1039.063,801.5732 L1046.484,831.8898 L1053.906,775.4085 L1061.328,826.384 L1068.75,813.4492 L1076.172,857.7345 L1083.594,730 L1091.016,843.8253 L1098.438,824.3331 L1105.859,802.6458 L1113.281,784.8317 L1120.703,775.3594 L1128.125,850.2687 L1135.547,826.8418 L1142.969,785.7188 L1150.391,775.8498 L1157.813,856.3229 L1165.234,803.9935 L1172.656,808.2103 L1180.078,865.192 L1187.5,761.6826 L1194.922,802.6265 L1202.344,801.7993 L1209.766,805.2497 L1217.188,870.4736 L1224.609,846.8615 L1232.031,861.0995 L1237.5,799.9586 " stroke="blue" fill="none" />
<text x="750" y="980" font-family="Arial" font-size="12" fill="black">Simplified</text>
<text x="750" y="995" font-family="Arial" font-size="10" fill="black">294.3158</text>
<text x="750" y="1210" font-family="Arial" font-size="10" fill="black">39.73684</text>
<path d="M757.0313,1200 L764.4531,1175.729 L771.875,1150.341 L779.2969,1158.363 L786.7188,1116.932 L794.1406,1111.061 L801.5625,1115.03 L808.9844,1095.1 L816.4063,1121.108 L823.8281,1107.339 L831.25,1129.088 L838.6719,1104.776 L846.0938,1095.72 L853.5156,1111.722 L860.9375,1104.569 L868.3594,1110.399 L875.7813,1086.004 L883.2031,1113.707 L890.625,1111.35 L898.0469,1123.837 L905.4688,1100.972 L912.8906,1084.184 L920.3125,1091.751 L927.7344,1093.57 L935.1563,1029.936 L942.5781,1135.787 L950,1092.33 L957.4219,1080.132 L964.8438,1041.472 L972.2656,1056.44 L979.6875,1060.781 L987.1094,1079.512 L994.5313,1105.644 L1001.953,1071.408 L1009.375,1078.975 L1016.797,1077.486 L1024.219,1086.458 L1031.641,1083.564 L1039.063,1061.154 L1046.484,1107.133 L1053.906,1036.841 L1061.328,1087.41 L1068.75,1079.595 L1076.172,1129.502 L1083.594,1000 L1091.016,1106.099 L1098.438,1087.823 L1105.859,1070.912 L1113.281,1057.432 L1120.703,1042.216 L1128.125,1115.568 L1135.547,1091.71 L1142.969,1086.458 L1150.391,1070.87 L1157.813,1120.943 L1165.234,1071.408 L1172.656,1075.625 L1180.078,1126.731 L1187.5,1026.256 L1194.922,1068.679 L1202.344,1065.826 L1209.766,1068.224 L1217.188,1135.208 L1224.609,1114.699 L1232.031,1120.984 L1237.5,1069.887 " stroke="blue" fill="none" />
</svg>
