<svg width="2000" height="2500" xmlns="http://www.w3.org/2000/svg">
<text x="10" y="20" font-family="Arial" font-size="26" fill="black"> [<tspan font-weight="bold" fill="blue">Crawler</tspan>] Training Session</text>
<text x="10" y="50" font-family="Arial" font-size="16" fill="black">[Statistics]</text>
<text x="50" y="70" font-family="Arial" font-size="12" fill="black">Started at: 1:53:22 PM, Tuesday, May 14, 2024</text>
<text x="50" y="90" font-family="Arial" font-size="12" fill="black">Finished at: 1:54:39 PM, Tuesday, May 14, 2024</text>
<text x="50" y="110" font-family="Arial" font-size="12" fill="black">Training Session Time: 0 hrs : 1 min : 14 sec</text>
<text x="50" y="130" font-family="Arial" font-size="12" fill="black">Inference Time: 0 hrs : 54 min : 13 sec        [Device: CPU]</text>
<text x="50" y="150" font-family="Arial" font-size="12" fill="black">Update Time: 0 hrs : 0 min : 25 sec        [Per iteration: 0 hrs : 0 min : 12.104 sec]        [Device: GPU]</text>
<text x="50" y="170" font-family="Arial" font-size="12" fill="black">Episode Count: 272</text>
<text x="50" y="190" font-family="Arial" font-size="12" fill="black">Inference Steps: 60000</text>
<text x="50" y="210" font-family="Arial" font-size="12" fill="black">Iterations: 2</text>
<text x="50" y="230" font-family="Arial" font-size="12" fill="black">Parallel Agents: 64</text>
<text x="50" y="250" font-family="Arial" font-size="12" fill="black">Timescale: 1</text>
<text x="50" y="270" font-family="Arial" font-size="12" fill="black">Trainer: PPO</text>
<text x="10" y="320" font-family="Arial" font-size="16" fill="black">[Hyperparameters]</text>
<text x="50" y="340" font-family="Arial" font-size="12" fill="black">Buffer Size: 30000        [Batch Size: 1000       (x30)]</text>
<text x="50" y="360" font-family="Arial" font-size="12" fill="black">Num Epoch: 6</text>
<text x="50" y="380" font-family="Arial" font-size="12" fill="black">Time Horizon: 256</text>
<text x="50" y="400" font-family="Arial" font-size="12" fill="black">Gradient Cliping by Norm: 0.5</text>
<text x="50" y="420" font-family="Arial" font-size="12" fill="black">Learning Rate Schedule: True    </text>
<text x="10" y="470" font-family="Arial" font-size="16" fill="black">[Behaviour]</text>
<text x="50" y="490" font-family="Arial" font-size="12" fill="black">Space Size: 94</text>
<text x="50" y="510" font-family="Arial" font-size="12" fill="black">Continuous Actions: 20 [Standard Deviation: FixedStandardDeviation]     [Value: 1.25]</text>
<text x="50" y="530" font-family="Arial" font-size="12" fill="black">Discrete Actions: 0</text>
<text x="50" y="550" font-family="Arial" font-size="12" fill="black">TargetFPS: 100 (physics update rate)</text>
<text x="50" y="570" font-family="Arial" font-size="12" fill="black">Observations Normalization: True</text>
<text x="10" y="620" font-family="Arial" font-size="16" fill="black">[Decision Requester]</text>
<text x="50" y="640" font-family="Arial" font-size="12" fill="black">Max Step: 10000</text>
<text x="50" y="660" font-family="Arial" font-size="12" fill="black">Decision Period: 5      [Actions Between Decisions: True]</text>
<text x="10" y="710" font-family="Arial" font-size="16" fill="black">[Graphs]</text>
<text x="50" y="730" font-family="Arial" font-size="12" fill="black">Episode Reward (272)</text>
<text x="50" y="745" font-family="Arial" font-size="10" fill="black">5.820774</text>
<text x="50" y="960" font-family="Arial" font-size="10" fill="black">0.1454374</text>
<path d="M50,950 L51.5625,947.0189 L53.125,946.1638 L54.6875,946.5522 L56.25,941.0057 L57.8125,944.6953 L59.375,941.2472 L60.9375,941.8027 L62.5,940.5225 L64.0625,945.4839 L65.625,937.0609 L67.1875,946.9836 L68.75,936.5034 L70.3125,936.0922 L71.875,935.3669 L73.4375,931.3344 L75,935.8214 L76.5625,927.8322 L78.125,933.7889 L79.6875,928.9969 L81.25,939.482 L82.8125,944.9332 L84.375,924.981 L85.9375,921.5322 L87.5,928.1652 L89.0625,926.8419 L90.625,926.0238 L92.1875,927.7682 L93.75,939.5072 L95.3125,933.8585 L96.875,923.3721 L98.4375,933.1248 L100,946.186 L101.5625,924.7132 L103.125,916.1025 L104.6875,939.4547 L106.25,946.3898 L107.8125,926.1134 L109.375,923.7131 L110.9375,925.7927 L112.5,902.3281 L114.0625,937.0371 L115.625,901.5065 L117.1875,911.3597 L118.75,922.1273 L120.3125,908.2424 L121.875,937.1449 L123.4375,897.9703 L125,896.9933 L126.5625,899.761 L128.125,903.7938 L129.6875,893.811 L131.25,899.7922 L132.8125,904.0431 L134.375,902.2441 L135.9375,936.1771 L137.5,893.1591 L139.0625,895.5286 L140.625,891.1638 L142.1875,893.0361 L143.75,935.3333 L145.3125,886.6484 L146.875,904.7049 L148.4375,899.3807 L150,877.3845 L151.5625,927.201 L153.125,899.45 L154.6875,947.9051 L156.25,884.663 L157.8125,937.7281 L159.375,879.0088 L160.9375,942.512 L162.5,939.9032 L164.0625,871.541 L165.625,900.3948 L167.1875,907.3948 L168.75,931.2258 L170.3125,924.0828 L171.875,894.7897 L173.4375,880.1763 L175,942.3937 L176.5625,949.6888 L178.125,948.809 L179.6875,891.1504 L181.25,934.12 L182.8125,872.9813 L184.375,928.978 L185.9375,940.5367 L187.5,915.9178 L189.0625,880.342 L190.625,860.0743 L192.1875,875.9521 L193.75,858.1122 L195.3125,947.6302 L196.875,890.8243 L198.4375,893.8347 L200,938.777 L201.5625,885.9294 L203.125,937.998 L204.6875,924.91 L206.25,863.0501 L207.8125,907.2087 L209.375,860.2743 L210.9375,884.5294 L212.5,900.8848 L214.0625,934.5827 L215.625,924.7141 L217.1875,937.9467 L218.75,940.5003 L220.3125,927.1799 L221.875,930.6932 L223.4375,948.8357 L225,943.672 L226.5625,928.8392 L228.125,833.784 L229.6875,937.7808 L231.25,912.2626 L232.8125,901.3409 L234.375,879.1652 L235.9375,946.4376 L237.5,939.4844 L239.0625,830.1975 L240.625,914.9171 L242.1875,911.5807 L243.75,928.0665 L245.3125,935.7357 L246.875,829.3308 L248.4375,900.3718 L250,939.2966 L251.5625,936.5942 L253.125,944.6923 L254.6875,866.0204 L256.25,862.5418 L257.8125,889.5248 L259.375,895.4404 L260.9375,941.2695 L262.5,930.3468 L264.0625,922.1002 L265.625,845.2546 L267.1875,893.1594 L268.75,859.1331 L270.3125,842.7866 L271.875,892.6504 L273.4375,902.7872 L275,908.9143 L276.5625,916.4905 L278.125,937.5066 L279.6875,917.668 L281.25,931.9747 L282.8125,822.6028 L284.375,945.2351 L285.9375,911.2782 L287.5,841.7535 L289.0625,911.3254 L290.625,838.3981 L292.1875,907.403 L293.75,886.4258 L295.3125,856.0408 L296.875,934.9225 L298.4375,799.4081 L300,928.3771 L301.5625,928.3349 L303.125,854.1796 L304.6875,936.1661 L306.25,923.6308 L307.8125,866.5651 L309.375,835.2288 L310.9375,916.2216 L312.5,932.2739 L314.0625,903.3713 L315.625,889.4586 L317.1875,917.3874 L318.75,940.1725 L320.3125,941.0508 L321.875,896.1494 L323.4375,855.5699 L325,918.9861 L326.5625,938.3817 L328.125,931.7288 L329.6875,929.1158 L331.25,882.1003 L332.8125,900.8096 L334.375,895.1045 L335.9375,797.1828 L337.5,944.6513 L339.0625,914.3295 L340.625,913.2361 L342.1875,930.873 L343.75,939.4732 L345.3125,867.9645 L346.875,881.1437 L348.4375,948.892 L350,912.6575 L351.5625,941.321 L353.125,855.4473 L354.6875,895.5035 L356.25,929.3852 L357.8125,920.6448 L359.375,805.803 L360.9375,841.5152 L362.5,887.7724 L364.0625,905.782 L365.625,781.0072 L367.1875,910.6141 L368.75,900.0311 L370.3125,931.2054 L371.875,927.1929 L373.4375,859.5324 L375,891.0991 L376.5625,894.4789 L378.125,903.4451 L379.6875,946.0058 L381.25,907.4341 L382.8125,879.0593 L384.375,924.5577 L385.9375,925.1376 L387.5,750 L389.0625,938.4417 L390.625,920.1989 L392.1875,917.4191 L393.75,920.2958 L395.3125,891.3044 L396.875,935.8845 L398.4375,942.3848 L400,877.4106 L401.5625,919.7007 L403.125,832.8113 L404.6875,853.943 L406.25,888.1274 L407.8125,943.2079 L409.375,938.869 L410.9375,895.5224 L412.5,896.0465 L414.0625,928.9131 L415.625,750.5709 L417.1875,923.9786 L418.75,777.389 L420.3125,887.1847 L421.875,857.8894 L423.4375,921.2811 L425,928.5993 L426.5625,906.9707 L428.125,942.9786 L429.6875,921.0684 L431.25,884.6181 L432.8125,854.5521 L434.375,854.6725 L435.9375,803.4767 L437.5,934.8623 L439.0625,930.5166 L440.625,941.3858 L442.1875,945.5709 L443.75,935.5493 L445.3125,938.5186 L446.875,851.3041 L448.4375,834.891 L450,948.716 L451.5625,930.553 L453.125,942.2469 L454.6875,911.4313 L456.25,939.4611 L457.8125,934.6929 L459.375,924.0359 L460.9375,948.9481 L462.5,946.3203 L464.0625,931.4762 L465.625,850.9062 L467.1875,906.5258 L468.75,918.3118 L470.3125,943.034 L471.875,937.0183 L473.4375,843.0715 " stroke="blue" fill="none" />
<text x="50" y="1000" font-family="Arial" font-size="12" fill="black">Episode Length (272)</text>
<text x="50" y="1015" font-family="Arial" font-size="10" fill="black">895</text>
<text x="50" y="1230" font-family="Arial" font-size="10" fill="black">17</text>
<path d="M50,1218.861 L51.5625,1217.95 L53.125,1216.583 L54.6875,1215.9 L56.25,1215.444 L57.8125,1214.989 L59.375,1213.394 L60.9375,1212.938 L62.5,1211.572 L64.0625,1210.888 L65.625,1209.977 L67.1875,1217.494 L68.75,1207.699 L70.3125,1206.788 L71.875,1204.966 L73.4375,1204.51 L75,1203.599 L76.5625,1203.371 L78.125,1202.916 L79.6875,1201.321 L81.25,1201.093 L82.8125,1213.85 L84.375,1199.499 L85.9375,1198.588 L87.5,1198.36 L89.0625,1198.132 L90.625,1197.904 L92.1875,1197.221 L93.75,1211.344 L95.3125,1196.31 L96.875,1196.082 L98.4375,1200.638 L100,1212.027 L101.5625,1201.093 L103.125,1189.704 L104.6875,1211.8 L106.25,1217.039 L107.8125,1189.704 L109.375,1198.36 L110.9375,1199.271 L112.5,1181.276 L114.0625,1207.016 L115.625,1180.592 L117.1875,1180.137 L118.75,1191.754 L120.3125,1177.175 L121.875,1201.093 L123.4375,1175.581 L125,1174.214 L126.5625,1173.759 L128.125,1173.531 L129.6875,1173.075 L131.25,1172.62 L132.8125,1171.025 L134.375,1168.747 L135.9375,1210.205 L137.5,1166.697 L139.0625,1188.565 L140.625,1164.647 L142.1875,1164.191 L143.75,1208.155 L145.3125,1162.597 L146.875,1179.681 L148.4375,1178.77 L150,1158.952 L151.5625,1199.954 L153.125,1158.041 L154.6875,1215.672 L156.25,1156.446 L157.8125,1209.066 L159.375,1153.713 L160.9375,1213.166 L162.5,1208.61 L164.0625,1152.574 L165.625,1174.67 L167.1875,1180.137 L168.75,1206.105 L170.3125,1200.41 L171.875,1170.342 L173.4375,1147.563 L175,1212.938 L176.5625,1220 L178.125,1218.178 L179.6875,1168.975 L181.25,1208.838 L182.8125,1141.412 L184.375,1192.21 L185.9375,1207.472 L187.5,1187.654 L189.0625,1139.362 L190.625,1138.679 L192.1875,1145.285 L193.75,1137.995 L195.3125,1218.178 L196.875,1162.369 L198.4375,1169.203 L200,1207.472 L201.5625,1153.713 L203.125,1203.827 L204.6875,1193.576 L206.25,1132.073 L207.8125,1179.909 L209.375,1141.868 L210.9375,1169.658 L212.5,1177.175 L214.0625,1207.016 L215.625,1196.31 L217.1875,1212.938 L218.75,1211.8 L220.3125,1198.815 L221.875,1202.46 L223.4375,1216.811 L225,1214.077 L226.5625,1198.36 L228.125,1121.139 L229.6875,1202.46 L231.25,1191.526 L232.8125,1178.087 L234.375,1144.829 L235.9375,1216.583 L237.5,1211.116 L239.0625,1115.672 L240.625,1185.604 L242.1875,1177.631 L243.75,1197.449 L245.3125,1211.116 L246.875,1112.027 L248.4375,1170.569 L250,1212.027 L251.5625,1208.61 L253.125,1215.9 L254.6875,1143.462 L256.25,1132.073 L257.8125,1156.219 L259.375,1171.253 L260.9375,1213.622 L262.5,1197.221 L264.0625,1195.626 L265.625,1131.39 L267.1875,1168.064 L268.75,1136.629 L270.3125,1102.005 L271.875,1166.469 L273.4375,1181.731 L275,1183.098 L276.5625,1191.298 L278.125,1210.205 L279.6875,1189.476 L281.25,1208.155 L282.8125,1094.487 L284.375,1214.305 L285.9375,1178.314 L287.5,1114.305 L289.0625,1179.681 L290.625,1102.916 L292.1875,1180.137 L293.75,1159.18 L295.3125,1130.706 L296.875,1206.788 L298.4375,1085.831 L300,1204.738 L301.5625,1201.093 L303.125,1126.834 L304.6875,1206.105 L306.25,1193.121 L307.8125,1130.706 L309.375,1105.877 L310.9375,1182.415 L312.5,1199.499 L314.0625,1168.519 L315.625,1160.319 L317.1875,1180.82 L318.75,1211.116 L320.3125,1212.027 L321.875,1170.569 L323.4375,1127.745 L325,1187.654 L326.5625,1209.066 L328.125,1202.005 L329.6875,1204.51 L331.25,1152.118 L332.8125,1174.897 L334.375,1161.686 L335.9375,1070.342 L337.5,1215.216 L339.0625,1181.276 L340.625,1194.032 L342.1875,1204.282 L343.75,1211.572 L345.3125,1141.412 L346.875,1148.929 L348.4375,1217.494 L350,1188.337 L351.5625,1209.977 L353.125,1133.895 L354.6875,1167.153 L356.25,1199.271 L357.8125,1196.31 L359.375,1084.92 L360.9375,1115.672 L362.5,1167.38 L364.0625,1174.442 L365.625,1052.346 L367.1875,1178.998 L368.75,1176.72 L370.3125,1203.371 L371.875,1199.043 L373.4375,1145.057 L375,1172.164 L376.5625,1167.38 L378.125,1176.264 L379.6875,1218.633 L381.25,1184.92 L382.8125,1156.674 L384.375,1181.959 L385.9375,1199.499 L387.5,1034.123 L389.0625,1210.433 L390.625,1192.437 L392.1875,1183.554 L393.75,1191.982 L395.3125,1168.292 L396.875,1209.294 L398.4375,1215.216 L400,1153.485 L401.5625,1190.159 L403.125,1101.321 L404.6875,1126.606 L406.25,1160.091 L407.8125,1212.027 L409.375,1207.244 L410.9375,1165.786 L412.5,1173.531 L414.0625,1196.765 L415.625,1020 L417.1875,1195.171 L418.75,1068.747 L420.3125,1160.091 L421.875,1124.556 L423.4375,1194.715 L425,1199.954 L426.5625,1173.759 L428.125,1212.027 L429.6875,1194.943 L431.25,1160.319 L432.8125,1139.818 L434.375,1130.023 L435.9375,1099.271 L437.5,1203.144 L439.0625,1205.421 L440.625,1212.255 L442.1875,1214.989 L443.75,1210.433 L445.3125,1209.977 L446.875,1124.556 L448.4375,1098.132 L450,1218.406 L451.5625,1189.476 L453.125,1212.711 L454.6875,1184.92 L456.25,1210.661 L457.8125,1207.244 L459.375,1194.943 L460.9375,1218.633 L462.5,1216.128 L464.0625,1214.761 L465.625,1126.606 L467.1875,1175.581 L468.75,1192.893 L470.3125,1213.394 L471.875,1208.383 L473.4375,1104.282 " stroke="blue" fill="none" />
<text x="50" y="1270" font-family="Arial" font-size="12" fill="black">Actor Loss</text>
<text x="50" y="1285" font-family="Arial" font-size="10" fill="black">0.6515808</text>
<text x="50" y="1500" font-family="Arial" font-size="10" fill="black">0.651321</text>
<path d="M50,1490 L75,1290.008 " stroke="blue" fill="none" />
<text x="50" y="1540" font-family="Arial" font-size="12" fill="black">Critic Loss</text>
<text x="50" y="1555" font-family="Arial" font-size="10" fill="black">0.003491197</text>
<text x="50" y="1770" font-family="Arial" font-size="10" fill="black">0.00337391</text>
<path d="M50,1760 L75,1560.017 " stroke="blue" fill="none" />
<text x="50" y="1810" font-family="Arial" font-size="12" fill="black">Entropy</text>
<text x="50" y="1825" font-family="Arial" font-size="10" fill="black">1.256944</text>
<text x="50" y="2040" font-family="Arial" font-size="10" fill="black">1.25</text>
<path d="M50,2030 L75,1830 " stroke="blue" fill="none" />
<text x="750" y="710" font-family="Arial" font-size="12" fill="black">Simplified</text>
<text x="750" y="725" font-family="Arial" font-size="10" fill="black">1.878678</text>
<text x="750" y="940" font-family="Arial" font-size="10" fill="black">0.4213244</text>
<path d="M778.125,930 L807.8125,895.6218 L837.5,813.5244 L867.1875,797.9237 L896.875,807.5372 L926.5625,837.5795 L956.25,783.3138 L985.9375,774.4026 L1015.625,730 L1045.313,804.7665 L1075,737.5969 L1104.688,769.0305 L1134.375,732.6553 L1164.063,849.7945 L1173.438,772.4125 " stroke="blue" fill="none" />
<text x="750" y="980" font-family="Arial" font-size="12" fill="black">Simplified</text>
<text x="750" y="995" font-family="Arial" font-size="10" fill="black">280.6842</text>
<text x="750" y="1210" font-family="Arial" font-size="10" fill="black">56.31579</text>
<path d="M778.125,1200 L807.8125,1163.312 L837.5,1090.077 L867.1875,1080.084 L896.875,1079.334 L926.5625,1112.925 L956.25,1063.664 L985.9375,1051.654 L1015.625,1000 L1045.313,1076.941 L1075,1019.095 L1104.688,1046.024 L1134.375,1010.462 L1164.063,1125.076 L1173.438,1040.128 " stroke="blue" fill="none" />
</svg>
