<svg width="2000" height="2500" xmlns="http://www.w3.org/2000/svg">
<text x="10" y="20" font-family="Arial" font-size="26" fill="black"> [Crawler] Training Session</text>
<text x="10" y="50" font-family="Arial" font-size="16" fill="black">[Statistics]</text>
<text x="50" y="70" font-family="Arial" font-size="12" fill="black">Started at: 4:04:26 PM, Thursday, December 7, 2023</text>
<text x="50" y="90" font-family="Arial" font-size="12" fill="black">Finished at: 4:05:17 PM, Thursday, December 7, 2023</text>
<text x="50" y="110" font-family="Arial" font-size="12" fill="black">Training Session Time: 0 hrs : 0 min : 44 sec</text>
<text x="50" y="130" font-family="Arial" font-size="12" fill="black">Inference Time: 0 hrs : 9 min : 41 sec       [Per agent: 0 hrs : 9 min : 41 sec]        [Device: CPU]</text>
<text x="50" y="150" font-family="Arial" font-size="12" fill="black">Policy Update Time: 0 hrs : 0 min : 10 sec        [Per iteration: 0 hrs : 0 min : 9 sec]        [Device: GPU]</text>
<text x="50" y="170" font-family="Arial" font-size="12" fill="black">Inference Time / Training Session Time: 12.260</text>
<text x="50" y="190" font-family="Arial" font-size="12" fill="black">Policy Update Time / Training Session Time: 0.227</text>
<text x="50" y="210" font-family="Arial" font-size="12" fill="black">Episode Count: 10</text>
<text x="50" y="230" font-family="Arial" font-size="12" fill="black">Inference Steps: 11616    [Per agent: 11616]     [Per Episode (mean): 1161]</text>
<text x="50" y="250" font-family="Arial" font-size="12" fill="black">Iterations: 1</text>
<text x="50" y="270" font-family="Arial" font-size="12" fill="black">Parallel Agents: 1</text>
<text x="50" y="290" font-family="Arial" font-size="12" fill="black">Timescale: 23.05</text>
<text x="50" y="310" font-family="Arial" font-size="12" fill="black">Trainer: PPO</text>
<text x="10" y="360" font-family="Arial" font-size="16" fill="black">[Hyperparameters]</text>
<text x="50" y="380" font-family="Arial" font-size="12" fill="black">Buffer Size: 10240        [Batch Size: 512       (x20)]</text>
<text x="50" y="400" font-family="Arial" font-size="12" fill="black">Num Epoch: 8</text>
<text x="50" y="420" font-family="Arial" font-size="12" fill="black">Time Horizon: 512</text>
<text x="50" y="440" font-family="Arial" font-size="12" fill="black">Gradient Cliping Normalization: 0.5</text>
<text x="50" y="460" font-family="Arial" font-size="12" fill="black">Learning Rate Schedule: False    </text>
<text x="10" y="510" font-family="Arial" font-size="16" fill="black">[Behaviour]</text>
<text x="50" y="530" font-family="Arial" font-size="12" fill="black">Space Size: 126</text>
<text x="50" y="550" font-family="Arial" font-size="12" fill="black">Continuous Actions: 20 [Standard Deviation: Fixed]     [Value: 1.5]</text>
<text x="50" y="570" font-family="Arial" font-size="12" fill="black">Discrete Actions: 0</text>
<text x="50" y="590" font-family="Arial" font-size="12" fill="black">TargetFPS: 100 (physics update rate)</text>
<text x="50" y="610" font-family="Arial" font-size="12" fill="black">Observations Normalization: True</text>
<text x="10" y="660" font-family="Arial" font-size="16" fill="black">[Decision Requester]</text>
<text x="50" y="680" font-family="Arial" font-size="12" fill="black">Max Step: 0</text>
<text x="50" y="700" font-family="Arial" font-size="12" fill="black">Decision Period: 5      [Actions Between Decisions: True]</text>
<text x="10" y="750" font-family="Arial" font-size="16" fill="black">[Graphs]</text>
<text x="50" y="770" font-family="Arial" font-size="12" fill="black">Episode Reward (10)</text>
<text x="50" y="785" font-family="Arial" font-size="10" fill="black">22.6095</text>
<text x="50" y="1000" font-family="Arial" font-size="10" fill="black">0.1830985</text>
<path d="M50,983.54 L75,986.5092 L100,897.3008 L125,790 L150,987.2348 L175,938.2598 L200,975.9281 L225,810.4141 L250,990 L275,989.9742 " stroke="blue" fill="none" />
<text x="50" y="1040" font-family="Arial" font-size="12" fill="black">Episode Length (10)</text>
<text x="50" y="1055" font-family="Arial" font-size="10" fill="black">3770</text>
<text x="50" y="1270" font-family="Arial" font-size="10" fill="black">31</text>
<path d="M50,1253.474 L75,1256.202 L100,1161.899 L125,1064.119 L150,1257.165 L175,1195.812 L200,1245.13 L225,1060 L250,1260 L275,1259.733 " stroke="blue" fill="none" />
<text x="50" y="1310" font-family="Arial" font-size="12" fill="black">Policy Loss</text>
<text x="50" y="1325" font-family="Arial" font-size="10" fill="black">0</text>
<text x="50" y="1540" font-family="Arial" font-size="10" fill="black">0</text>
<path d="M50,1530 L75,1530 L100,1530 L125,1530 L150,1530 L175,1530 L200,1530 L225,1530 " stroke="blue" fill="none" />
<text x="50" y="1580" font-family="Arial" font-size="12" fill="black">Value Loss</text>
<text x="50" y="1595" font-family="Arial" font-size="10" fill="black">0.0002680207</text>
<text x="50" y="1810" font-family="Arial" font-size="10" fill="black">0.0001753104</text>
<path d="M50,1600.022 L75,1611.488 L100,1676.603 L125,1710.279 L150,1733.669 L175,1761.288 L200,1787.075 L225,1800 " stroke="blue" fill="none" />
<text x="50" y="1850" font-family="Arial" font-size="12" fill="black">Learning Rate</text>
<text x="50" y="1865" font-family="Arial" font-size="10" fill="black">0.0003</text>
<text x="50" y="2080" font-family="Arial" font-size="10" fill="black">0.0003</text>
<path d="M50,2070 L75,2070 L100,2070 L125,2070 L150,2070 L175,2070 L200,2070 L225,2070 " stroke="blue" fill="none" />
<text x="50" y="2120" font-family="Arial" font-size="12" fill="black">Entropy</text>
<text x="50" y="2135" font-family="Arial" font-size="10" fill="black">0</text>
<text x="50" y="2350" font-family="Arial" font-size="10" fill="black">0</text>
<path d="M50,2340 L75,2340 L100,2340 L125,2340 L150,2340 L175,2340 L200,2340 L225,2340 " stroke="blue" fill="none" />
<text x="750" y="770" font-family="Arial" font-size="12" fill="black">Simplified</text>
<text x="750" y="785" font-family="Arial" font-size="10" fill="black">6.359767</text>
<text x="750" y="1000" font-family="Arial" font-size="10" fill="black">6.359767</text>
<path d="M975,990 " stroke="blue" fill="none" />
<text x="750" y="1040" font-family="Arial" font-size="12" fill="black">Simplified</text>
<text x="750" y="1055" font-family="Arial" font-size="10" fill="black">1127.4</text>
<text x="750" y="1270" font-family="Arial" font-size="10" fill="black">1127.4</text>
<path d="M975,1260 " stroke="blue" fill="none" />
</svg>
