<svg width="2000" height="2500" xmlns="http://www.w3.org/2000/svg">
<text x="10" y="20" font-family="Arial" font-size="26" fill="black"> [Crawler] Training Session</text>
<text x="10" y="50" font-family="Arial" font-size="16" fill="black">[Statistics]</text>
<text x="50" y="70" font-family="Arial" font-size="12" fill="black">Started at: 3:38:07 PM, Thursday, December 7, 2023</text>
<text x="50" y="90" font-family="Arial" font-size="12" fill="black">Finished at: 3:50:21 PM, Thursday, December 7, 2023</text>
<text x="50" y="110" font-family="Arial" font-size="12" fill="black">Training Session Time: 0 hrs : 11 min : 36 sec</text>
<text x="50" y="130" font-family="Arial" font-size="12" fill="black">Inference Time: 2 hrs : 58 min : 29 sec       [Per agent: 2 hrs : 58 min : 29 sec]        [Device: CPU]</text>
<text x="50" y="150" font-family="Arial" font-size="12" fill="black">Policy Update Time: 0 hrs : 2 min : 57 sec        [Per iteration: 0 hrs : 0 min : 7 sec]        [Device: GPU]</text>
<text x="50" y="170" font-family="Arial" font-size="12" fill="black">Inference Time / Training Session Time: 15.319</text>
<text x="50" y="190" font-family="Arial" font-size="12" fill="black">Policy Update Time / Training Session Time: 0.256</text>
<text x="50" y="210" font-family="Arial" font-size="12" fill="black">Episode Count: 265</text>
<text x="50" y="230" font-family="Arial" font-size="12" fill="black">Inference Steps: 217329    [Per agent: 217329]     [Per Episode (mean): 820]</text>
<text x="50" y="250" font-family="Arial" font-size="12" fill="black">Iterations: 21</text>
<text x="50" y="270" font-family="Arial" font-size="12" fill="black">Parallel Agents: 1</text>
<text x="50" y="290" font-family="Arial" font-size="12" fill="black">Timescale: 23.05</text>
<text x="50" y="310" font-family="Arial" font-size="12" fill="black">Trainer: PPO</text>
<text x="10" y="360" font-family="Arial" font-size="16" fill="black">[Hyperparameters]</text>
<text x="50" y="380" font-family="Arial" font-size="12" fill="black">Buffer Size: 10240        [Batch Size: 512       (x20)]</text>
<text x="50" y="400" font-family="Arial" font-size="12" fill="black">Num Epoch: 8</text>
<text x="50" y="420" font-family="Arial" font-size="12" fill="black">Time Horizon: 512</text>
<text x="50" y="440" font-family="Arial" font-size="12" fill="black">Gradient Cliping Normalization: 0.5</text>
<text x="50" y="460" font-family="Arial" font-size="12" fill="black">Learning Rate Schedule: False    </text>
<text x="10" y="510" font-family="Arial" font-size="16" fill="black">[Behaviour]</text>
<text x="50" y="530" font-family="Arial" font-size="12" fill="black">Space Size: 126</text>
<text x="50" y="550" font-family="Arial" font-size="12" fill="black">Continuous Actions: 20 [Standard Deviation: Fixed]     [Value: 1.5]</text>
<text x="50" y="570" font-family="Arial" font-size="12" fill="black">Discrete Actions: 0</text>
<text x="50" y="590" font-family="Arial" font-size="12" fill="black">TargetFPS: 100 (physics update rate)</text>
<text x="50" y="610" font-family="Arial" font-size="12" fill="black">Observations Normalization: True</text>
<text x="10" y="660" font-family="Arial" font-size="16" fill="black">[Decision Requester]</text>
<text x="50" y="680" font-family="Arial" font-size="12" fill="black">Max Step: 0</text>
<text x="50" y="700" font-family="Arial" font-size="12" fill="black">Decision Period: 5      [Actions Between Decisions: True]</text>
<text x="10" y="750" font-family="Arial" font-size="16" fill="black">[Graphs]</text>
<text x="50" y="770" font-family="Arial" font-size="12" fill="black">Episode Reward (265)</text>
<text x="50" y="785" font-family="Arial" font-size="10" fill="black">31.79244</text>
<text x="50" y="1000" font-family="Arial" font-size="10" fill="black">-0.7711527</text>
<path d="M50,958.8298 L51.5625,978.9926 L53.125,984.4286 L54.6875,989.2281 L56.25,955.5319 L57.8125,990 L59.375,980.7578 L60.9375,984.0226 L62.5,981.6335 L64.0625,972.4712 L65.625,969.6639 L67.1875,983.1808 L68.75,978.9319 L70.3125,936.1385 L71.875,960.4564 L73.4375,942.7315 L75,980.5752 L76.5625,962.5092 L78.125,979.84 L79.6875,981.9518 L81.25,968.554 L82.8125,957.1398 L84.375,937.5569 L85.9375,979.4114 L87.5,975.9365 L89.0625,967.0563 L90.625,892.1701 L92.1875,935.5128 L93.75,983.5126 L95.3125,933.5628 L96.875,928.4272 L98.4375,984.27 L100,980.5266 L101.5625,955.3614 L103.125,980.5601 L104.6875,984.2956 L106.25,972.0479 L107.8125,979.2361 L109.375,947.9514 L110.9375,928.9149 L112.5,980.9191 L114.0625,981.3882 L115.625,984.4224 L117.1875,977.1652 L118.75,974.8668 L120.3125,981.4226 L121.875,894.9105 L123.4375,958.5252 L125,975.8682 L126.5625,984.3472 L128.125,977.501 L129.6875,965.7064 L131.25,980.0399 L132.8125,979.8637 L134.375,982.2435 L135.9375,948.5035 L137.5,975.3111 L139.0625,945.2996 L140.625,896.1191 L142.1875,952.3325 L143.75,886.6964 L145.3125,983.2393 L146.875,959.1204 L148.4375,968.5371 L150,964.2087 L151.5625,964.3543 L153.125,979.4504 L154.6875,984.1078 L156.25,982.5173 L157.8125,883.6404 L159.375,977.2748 L160.9375,939.3345 L162.5,935.1215 L164.0625,982.1031 L165.625,987.6764 L167.1875,962.3586 L168.75,984.2082 L170.3125,956.9299 L171.875,953.7842 L173.4375,978.3864 L175,981.4317 L176.5625,955.0167 L178.125,935.7723 L179.6875,979.7613 L181.25,983.2875 L182.8125,984.2414 L184.375,988.3839 L185.9375,981.3849 L187.5,980.6113 L189.0625,973.5916 L190.625,982.3829 L192.1875,947.1719 L193.75,983.8535 L195.3125,983.3108 L196.875,901.6725 L198.4375,977.688 L200,982.9083 L201.5625,971.9493 L203.125,943.6772 L204.6875,980.9805 L206.25,902.9113 L207.8125,977.0497 L209.375,983.8834 L210.9375,972.6934 L212.5,983.6926 L214.0625,980.9247 L215.625,970.3909 L217.1875,957.2699 L218.75,983.7241 L220.3125,966.8885 L221.875,983.076 L223.4375,977.6647 L225,922.3499 L226.5625,975.9205 L228.125,978.3317 L229.6875,972.1403 L231.25,982.3747 L232.8125,947.4602 L234.375,920.6268 L235.9375,976.126 L237.5,980.8752 L239.0625,883.3503 L240.625,982.7001 L242.1875,898.5688 L243.75,982.4203 L245.3125,939.5893 L246.875,891.6139 L248.4375,984.2903 L250,954.8752 L251.5625,984.3036 L253.125,984.0104 L254.6875,976.6364 L256.25,979.9746 L257.8125,928.3636 L259.375,961.988 L260.9375,974.7035 L262.5,968.5557 L264.0625,982.4501 L265.625,952.6019 L267.1875,888.5424 L268.75,937.7224 L270.3125,983.8668 L271.875,936.1256 L273.4375,954.2449 L275,973.1814 L276.5625,890.3705 L278.125,955.0149 L279.6875,961.6294 L281.25,972.8376 L282.8125,920.7567 L284.375,904.6323 L285.9375,969.9617 L287.5,972.2437 L289.0625,973.2299 L290.625,984.4531 L292.1875,983.9889 L293.75,952.2554 L295.3125,972.7636 L296.875,914.8624 L298.4375,923.0125 L300,948.0653 L301.5625,940.562 L303.125,984.1129 L304.6875,946.6112 L306.25,798.8396 L307.8125,967.7437 L309.375,983.4425 L310.9375,883.1104 L312.5,933.9375 L314.0625,973.5327 L315.625,980.5195 L317.1875,981.6583 L318.75,982.3068 L320.3125,975.9801 L321.875,987.2976 L323.4375,848.3017 L325,914.3653 L326.5625,972.8674 L328.125,982.6166 L329.6875,963.4917 L331.25,983.2896 L332.8125,952.6278 L334.375,983.5742 L335.9375,966.1673 L337.5,977.1811 L339.0625,983.4247 L340.625,867.1423 L342.1875,982.1507 L343.75,981.9673 L345.3125,975.2679 L346.875,968.1282 L348.4375,945.7601 L350,941.9581 L351.5625,971.4851 L353.125,984.1039 L354.6875,890.3085 L356.25,959.8461 L357.8125,960.433 L359.375,984.0865 L360.9375,982.9006 L362.5,987.1285 L364.0625,980.831 L365.625,983.6608 L367.1875,954.7879 L368.75,926.3434 L370.3125,951.7342 L371.875,926.1862 L373.4375,981.6526 L375,980.9039 L376.5625,975.3077 L378.125,951.8761 L379.6875,977.4654 L381.25,899.0764 L382.8125,963.7931 L384.375,971.0417 L385.9375,977.9445 L387.5,970.2049 L389.0625,946.8571 L390.625,861.1025 L392.1875,982.1214 L393.75,965.184 L395.3125,968.3607 L396.875,790 L398.4375,973.9351 L400,980.0021 L401.5625,970.8007 L403.125,977.8326 L404.6875,963.3977 L406.25,877.9976 L407.8125,981.6763 L409.375,969.252 L410.9375,983.2187 L412.5,914.0779 L414.0625,982.1275 L415.625,943.7524 L417.1875,952.3638 L418.75,926.1841 L420.3125,982.9827 L421.875,879.975 L423.4375,983.7488 L425,983.6285 L426.5625,966.4928 L428.125,973.5848 L429.6875,972.7148 L431.25,976.8738 L432.8125,872.5912 L434.375,984.4905 L435.9375,916.4798 L437.5,918.5293 L439.0625,895.8387 L440.625,966.3615 L442.1875,968.9941 L443.75,970.0027 L445.3125,948.8223 L446.875,955.3209 L448.4375,944.8654 L450,982.1274 L451.5625,980.7573 L453.125,963.1951 L454.6875,941.2998 L456.25,923.6686 L457.8125,981.0319 L459.375,982.5981 L460.9375,966.9326 L462.5,982.1815 " stroke="blue" fill="none" />
<text x="50" y="1040" font-family="Arial" font-size="12" fill="black">Episode Length (265)</text>
<text x="50" y="1055" font-family="Arial" font-size="10" fill="black">6940</text>
<text x="50" y="1270" font-family="Arial" font-size="10" fill="black">23</text>
<path d="M50,1232.531 L51.5625,1255.316 L53.125,1260 L54.6875,1258.381 L56.25,1227.125 L57.8125,1259.393 L59.375,1256.415 L60.9375,1259.508 L62.5,1257.282 L64.0625,1247.914 L65.625,1248.666 L67.1875,1258.757 L68.75,1255.316 L70.3125,1225.1 L71.875,1234.526 L73.4375,1234.324 L75,1256.125 L76.5625,1242.391 L78.125,1255.229 L79.6875,1257.658 L81.25,1247.422 L82.8125,1232.821 L84.375,1225.303 L85.9375,1255.056 L87.5,1252.396 L89.0625,1250.747 L90.625,1178.867 L92.1875,1202.432 L93.75,1259.104 L95.3125,1222.296 L96.875,1206.509 L98.4375,1259.855 L100,1256.039 L101.5625,1234.729 L103.125,1256.733 L104.6875,1259.711 L106.25,1247.798 L107.8125,1254.709 L109.375,1226.228 L110.9375,1214.634 L112.5,1256.964 L114.0625,1257.137 L115.625,1260 L117.1875,1245.167 L118.75,1251.066 L120.3125,1257.051 L121.875,1179.589 L123.4375,1237.765 L125,1252.106 L126.5625,1259.913 L128.125,1252.858 L129.6875,1243.403 L131.25,1255.836 L132.8125,1255.142 L134.375,1257.86 L135.9375,1224.291 L137.5,1252.251 L139.0625,1227.934 L140.625,1187.31 L142.1875,1232.965 L143.75,1185.632 L145.3125,1258.641 L146.875,1238.285 L148.4375,1246.15 L150,1239.962 L151.5625,1240.194 L153.125,1255.258 L154.6875,1259.653 L156.25,1257.976 L157.8125,1164.988 L159.375,1253.118 L160.9375,1221.139 L162.5,1212.002 L164.0625,1257.716 L165.625,1257.137 L167.1875,1247.278 L168.75,1259.798 L170.3125,1232.184 L171.875,1232.763 L173.4375,1254.911 L175,1257.224 L176.5625,1232.965 L178.125,1218.826 L179.6875,1255.923 L181.25,1258.728 L182.8125,1259.682 L184.375,1257.918 L185.9375,1257.282 L187.5,1256.125 L189.0625,1249.417 L190.625,1257.947 L192.1875,1235.799 L193.75,1259.335 L195.3125,1259.046 L196.875,1187.541 L198.4375,1254.998 L200,1258.728 L201.5625,1248.666 L203.125,1216.629 L204.6875,1257.253 L206.25,1196.851 L207.8125,1248.203 L209.375,1259.508 L210.9375,1247.972 L212.5,1259.393 L214.0625,1250.892 L215.625,1245.167 L217.1875,1233.861 L218.75,1259.161 L220.3125,1244.126 L221.875,1258.815 L223.4375,1252.974 L225,1193.642 L226.5625,1252.251 L228.125,1254.448 L229.6875,1249.042 L231.25,1258.381 L232.8125,1225.794 L234.375,1207 L235.9375,1252.482 L237.5,1256.935 L239.0625,1168.053 L240.625,1258.439 L242.1875,1175.426 L243.75,1257.947 L245.3125,1220.243 L246.875,1183.724 L248.4375,1259.769 L250,1243.114 L251.5625,1259.74 L253.125,1259.624 L254.6875,1252.222 L256.25,1256.241 L257.8125,1212.494 L259.375,1233.63 L260.9375,1251.268 L262.5,1246.266 L264.0625,1258.352 L265.625,1234.642 L267.1875,1161.113 L268.75,1212.234 L270.3125,1259.479 L271.875,1221.168 L273.4375,1229.264 L275,1249.909 L276.5625,1191.097 L278.125,1237.331 L279.6875,1235.712 L281.25,1249.967 L282.8125,1199.54 L284.375,1187.339 L285.9375,1245.138 L287.5,1250.661 L289.0625,1251.326 L290.625,1259.884 L292.1875,1259.566 L293.75,1228.483 L295.3125,1250.082 L296.875,1194.625 L298.4375,1185.343 L300,1227.876 L301.5625,1208.562 L303.125,1259.624 L304.6875,1232.676 L306.25,1110.716 L307.8125,1244.965 L309.375,1259.161 L310.9375,1154.723 L312.5,1213.246 L314.0625,1249.707 L315.625,1257.022 L317.1875,1257.658 L318.75,1258.005 L320.3125,1252.8 L321.875,1257.137 L323.4375,1132.661 L325,1191.965 L326.5625,1248.984 L328.125,1258.525 L329.6875,1242.333 L331.25,1258.786 L332.8125,1217.294 L334.375,1259.133 L335.9375,1245.051 L337.5,1252.743 L339.0625,1259.133 L340.625,1146.309 L342.1875,1258.092 L343.75,1258.034 L345.3125,1250.69 L346.875,1252.771 L348.4375,1225.158 L350,1222.036 L351.5625,1249.793 L353.125,1259.711 L354.6875,1172.043 L356.25,1242.478 L357.8125,1235.799 L359.375,1259.769 L360.9375,1258.468 L362.5,1256.617 L364.0625,1252.396 L365.625,1259.277 L367.1875,1242.767 L368.75,1204.514 L370.3125,1238.517 L371.875,1191.155 L373.4375,1257.6 L375,1257.08 L376.5625,1252.656 L378.125,1225.274 L379.6875,1252.916 L381.25,1202.056 L382.8125,1238.864 L384.375,1248.521 L385.9375,1253.899 L387.5,1249.302 L389.0625,1226.951 L390.625,1149.085 L392.1875,1251.268 L393.75,1248.926 L395.3125,1245.514 L396.875,1060 L398.4375,1249.793 L400,1255.779 L401.5625,1248.608 L403.125,1253.523 L404.6875,1241.668 L406.25,1161.316 L407.8125,1257.282 L409.375,1251.962 L410.9375,1258.728 L412.5,1186.008 L414.0625,1257.658 L415.625,1223.452 L417.1875,1236.464 L418.75,1219.173 L420.3125,1258.728 L421.875,1156.169 L423.4375,1259.219 L425,1259.133 L426.5625,1247.104 L428.125,1250.545 L429.6875,1250.082 L431.25,1252.511 L432.8125,1150.617 L434.375,1260 L435.9375,1198.846 L437.5,1197.69 L439.0625,1181.845 L440.625,1242.276 L442.1875,1247.625 L443.75,1246.15 L445.3125,1229.409 L446.875,1237.158 L448.4375,1227.009 L450,1257.629 L451.5625,1256.039 L453.125,1240.83 L454.6875,1213.621 L456.25,1207.058 L457.8125,1256.935 L459.375,1258.034 L460.9375,1244.3 L462.5,1257.86 " stroke="blue" fill="none" />
<text x="50" y="1310" font-family="Arial" font-size="12" fill="black">Policy Loss</text>
<text x="50" y="1325" font-family="Arial" font-size="10" fill="black">0.01191672</text>
<text x="50" y="1540" font-family="Arial" font-size="10" fill="black">0</text>
<path d="M50,1530 L51.5625,1530 L53.125,1530 L54.6875,1530 L56.25,1530 L57.8125,1530 L59.375,1530 L60.9375,1530 L62.5,1397.587 L64.0625,1505.197 L65.625,1510.263 L67.1875,1504.24 L68.75,1509.648 L70.3125,1510.806 L71.875,1511.504 L73.4375,1512.785 L75,1340.938 L76.5625,1512.198 L78.125,1510.734 L79.6875,1510.262 L81.25,1506.86 L82.8125,1510.773 L84.375,1512.503 L85.9375,1501.17 L87.5,1410.115 L89.0625,1507.056 L90.625,1508.715 L92.1875,1510.582 L93.75,1495.562 L95.3125,1509.464 L96.875,1505.546 L98.4375,1506.942 L100,1530 L101.5625,1530 L103.125,1530 L104.6875,1530 L106.25,1530 L107.8125,1530 L109.375,1530 L110.9375,1530 L112.5,1330 L114.0625,1504.386 L115.625,1514.474 L117.1875,1510.94 L118.75,1513.229 L120.3125,1507.33 L121.875,1508.386 L123.4375,1507.617 L125,1380.331 L126.5625,1508.085 L128.125,1508.283 L129.6875,1512.288 L131.25,1509.49 L132.8125,1512.241 L134.375,1511.418 L135.9375,1511.186 L137.5,1425.033 L139.0625,1511.328 L140.625,1504.803 L142.1875,1501.573 L143.75,1502.29 L145.3125,1507.83 L146.875,1506.443 L148.4375,1499.001 L150,1530 L151.5625,1530 L153.125,1530 L154.6875,1530 L156.25,1530 L157.8125,1530 L159.375,1530 L160.9375,1530 L162.5,1432.389 L164.0625,1508.679 L165.625,1504.218 L167.1875,1505.471 L168.75,1508.547 L170.3125,1510.012 L171.875,1498.707 L173.4375,1500.863 L175,1530 L176.5625,1530 L178.125,1530 L179.6875,1530 L181.25,1530 L182.8125,1530 L184.375,1530 L185.9375,1530 L187.5,1530 L189.0625,1530 L190.625,1530 L192.1875,1530 L193.75,1530 L195.3125,1530 L196.875,1530 L198.4375,1530 L200,1530 L201.5625,1530 L203.125,1530 L204.6875,1530 L206.25,1530 L207.8125,1530 L209.375,1530 L210.9375,1530 L212.5,1400.485 L214.0625,1510.909 L215.625,1505.817 L217.1875,1503.814 L218.75,1512.114 L220.3125,1507.262 L221.875,1503.033 L223.4375,1498.821 L225,1530 L226.5625,1530 L228.125,1530 L229.6875,1530 L231.25,1530 L232.8125,1530 L234.375,1530 L235.9375,1530 L237.5,1391.568 L239.0625,1508.104 L240.625,1502.521 L242.1875,1508.849 L243.75,1508.711 L245.3125,1506.292 L246.875,1498.722 L248.4375,1510.951 L250,1530 L251.5625,1530 L253.125,1530 L254.6875,1530 L256.25,1530 L257.8125,1530 L259.375,1530 L260.9375,1530 L262.5,1530 L264.0625,1530 L265.625,1530 L267.1875,1530 L268.75,1530 L270.3125,1530 L271.875,1530 L273.4375,1530 L275,1530 L276.5625,1530 L278.125,1530 L279.6875,1530 L281.25,1530 L282.8125,1530 L284.375,1530 L285.9375,1530 L287.5,1530 L289.0625,1530 L290.625,1530 L292.1875,1530 L293.75,1530 L295.3125,1530 L296.875,1530 L298.4375,1530 L300,1530 L301.5625,1530 L303.125,1530 L304.6875,1530 L306.25,1530 L307.8125,1530 L309.375,1530 L310.9375,1530 " stroke="blue" fill="none" />
<text x="50" y="1580" font-family="Arial" font-size="12" fill="black">Value Loss</text>
<text x="50" y="1595" font-family="Arial" font-size="10" fill="black">0.0006850253</text>
<text x="50" y="1810" font-family="Arial" font-size="10" fill="black">0.0001116867</text>
<path d="M50,1641.343 L51.5625,1663.724 L53.125,1679.042 L54.6875,1688.742 L56.25,1694.881 L57.8125,1703.417 L59.375,1709.064 L60.9375,1713.111 L62.5,1695.248 L64.0625,1720.765 L65.625,1732.196 L67.1875,1738.973 L68.75,1744.471 L70.3125,1748.897 L71.875,1752.908 L73.4375,1756.153 L75,1685.84 L76.5625,1711.871 L78.125,1721.342 L79.6875,1727.635 L81.25,1732.354 L82.8125,1736.252 L84.375,1739.595 L85.9375,1742.596 L87.5,1703.301 L89.0625,1719.531 L90.625,1731.854 L92.1875,1738.305 L93.75,1742.909 L95.3125,1747.41 L96.875,1750.941 L98.4375,1754.377 L100,1738.082 L101.5625,1744.32 L103.125,1755.264 L104.6875,1759.734 L106.25,1763.386 L107.8125,1766.705 L109.375,1770.005 L110.9375,1771.32 L112.5,1635.954 L114.0625,1665.65 L115.625,1692.159 L117.1875,1703.165 L118.75,1710.319 L120.3125,1715.66 L121.875,1720.684 L123.4375,1724.752 L125,1641.184 L126.5625,1679.208 L128.125,1697.282 L129.6875,1707.256 L131.25,1714.884 L132.8125,1720.942 L134.375,1725.425 L135.9375,1729.472 L137.5,1753.125 L139.0625,1769.775 L140.625,1776.666 L142.1875,1781.427 L143.75,1784.534 L145.3125,1787.056 L146.875,1789.127 L148.4375,1790.875 L150,1671.291 L151.5625,1701.462 L153.125,1714.649 L154.6875,1724.304 L156.25,1730.345 L157.8125,1736.756 L159.375,1742.254 L160.9375,1743.49 L162.5,1705.989 L164.0625,1723.345 L165.625,1736.298 L167.1875,1742.983 L168.75,1748.046 L170.3125,1751.996 L171.875,1754.978 L173.4375,1757.814 L175,1771.913 L176.5625,1761.808 L178.125,1770.457 L179.6875,1775.353 L181.25,1778.166 L182.8125,1780.694 L184.375,1784 L185.9375,1786.137 L187.5,1771.631 L189.0625,1752.401 L190.625,1769.595 L192.1875,1779.144 L193.75,1781.547 L195.3125,1784.765 L196.875,1787.499 L198.4375,1789.957 L200,1772.567 L201.5625,1739.466 L203.125,1752.626 L204.6875,1761.831 L206.25,1764.437 L207.8125,1766.736 L209.375,1770.3 L210.9375,1771.917 L212.5,1711.027 L214.0625,1728.902 L215.625,1743.976 L217.1875,1750.598 L218.75,1755.127 L220.3125,1758.797 L221.875,1761.767 L223.4375,1764.707 L225,1727.204 L226.5625,1737.846 L228.125,1746.88 L229.6875,1752.792 L231.25,1756.511 L232.8125,1760.502 L234.375,1762.789 L235.9375,1765.352 L237.5,1600.004 L239.0625,1642.776 L240.625,1690.186 L242.1875,1712.353 L243.75,1718.962 L245.3125,1732.004 L246.875,1734.382 L248.4375,1744.88 L250,1664.593 L251.5625,1695.847 L253.125,1727.272 L254.6875,1729.426 L256.25,1739.273 L257.8125,1738.057 L259.375,1748.294 L260.9375,1749.816 L262.5,1783.166 L264.0625,1782.698 L265.625,1788.113 L267.1875,1791.747 L268.75,1793.7 L270.3125,1796.594 L271.875,1797.715 L273.4375,1799.964 L275,1767.869 L276.5625,1777.5 L278.125,1787.113 L279.6875,1791.314 L281.25,1793.809 L282.8125,1795.464 L284.375,1798.479 L285.9375,1800 L287.5,1759.049 L289.0625,1747.92 L290.625,1760.846 L292.1875,1766.552 L293.75,1770.234 L295.3125,1774.619 L296.875,1778.077 L298.4375,1780.058 L300,1742.636 L301.5625,1751.777 L303.125,1764.165 L304.6875,1772.07 L306.25,1775.571 L307.8125,1776.184 L309.375,1778.591 L310.9375,1782.384 " stroke="blue" fill="none" />
<text x="50" y="1850" font-family="Arial" font-size="12" fill="black">Learning Rate</text>
<text x="50" y="1865" font-family="Arial" font-size="10" fill="black">0.0003</text>
<text x="50" y="2080" font-family="Arial" font-size="10" fill="black">0.0003</text>
<path d="M50,2070 L51.5625,2070 L53.125,2070 L54.6875,2070 L56.25,2070 L57.8125,2070 L59.375,2070 L60.9375,2070 L62.5,2070 L64.0625,2070 L65.625,2070 L67.1875,2070 L68.75,2070 L70.3125,2070 L71.875,2070 L73.4375,2070 L75,2070 L76.5625,2070 L78.125,2070 L79.6875,2070 L81.25,2070 L82.8125,2070 L84.375,2070 L85.9375,2070 L87.5,2070 L89.0625,2070 L90.625,2070 L92.1875,2070 L93.75,2070 L95.3125,2070 L96.875,2070 L98.4375,2070 L100,2070 L101.5625,2070 L103.125,2070 L104.6875,2070 L106.25,2070 L107.8125,2070 L109.375,2070 L110.9375,2070 L112.5,2070 L114.0625,2070 L115.625,2070 L117.1875,2070 L118.75,2070 L120.3125,2070 L121.875,2070 L123.4375,2070 L125,2070 L126.5625,2070 L128.125,2070 L129.6875,2070 L131.25,2070 L132.8125,2070 L134.375,2070 L135.9375,2070 L137.5,2070 L139.0625,2070 L140.625,2070 L142.1875,2070 L143.75,2070 L145.3125,2070 L146.875,2070 L148.4375,2070 L150,2070 L151.5625,2070 L153.125,2070 L154.6875,2070 L156.25,2070 L157.8125,2070 L159.375,2070 L160.9375,2070 L162.5,2070 L164.0625,2070 L165.625,2070 L167.1875,2070 L168.75,2070 L170.3125,2070 L171.875,2070 L173.4375,2070 L175,2070 L176.5625,2070 L178.125,2070 L179.6875,2070 L181.25,2070 L182.8125,2070 L184.375,2070 L185.9375,2070 L187.5,2070 L189.0625,2070 L190.625,2070 L192.1875,2070 L193.75,2070 L195.3125,2070 L196.875,2070 L198.4375,2070 L200,2070 L201.5625,2070 L203.125,2070 L204.6875,2070 L206.25,2070 L207.8125,2070 L209.375,2070 L210.9375,2070 L212.5,2070 L214.0625,2070 L215.625,2070 L217.1875,2070 L218.75,2070 L220.3125,2070 L221.875,2070 L223.4375,2070 L225,2070 L226.5625,2070 L228.125,2070 L229.6875,2070 L231.25,2070 L232.8125,2070 L234.375,2070 L235.9375,2070 L237.5,2070 L239.0625,2070 L240.625,2070 L242.1875,2070 L243.75,2070 L245.3125,2070 L246.875,2070 L248.4375,2070 L250,2070 L251.5625,2070 L253.125,2070 L254.6875,2070 L256.25,2070 L257.8125,2070 L259.375,2070 L260.9375,2070 L262.5,2070 L264.0625,2070 L265.625,2070 L267.1875,2070 L268.75,2070 L270.3125,2070 L271.875,2070 L273.4375,2070 L275,2070 L276.5625,2070 L278.125,2070 L279.6875,2070 L281.25,2070 L282.8125,2070 L284.375,2070 L285.9375,2070 L287.5,2070 L289.0625,2070 L290.625,2070 L292.1875,2070 L293.75,2070 L295.3125,2070 L296.875,2070 L298.4375,2070 L300,2070 L301.5625,2070 L303.125,2070 L304.6875,2070 L306.25,2070 L307.8125,2070 L309.375,2070 L310.9375,2070 " stroke="blue" fill="none" />
<text x="50" y="2120" font-family="Arial" font-size="12" fill="black">Entropy</text>
<text x="50" y="2135" font-family="Arial" font-size="10" fill="black">0</text>
<text x="50" y="2350" font-family="Arial" font-size="10" fill="black">-0.0712657</text>
<path d="M50,2140 L51.5625,2140 L53.125,2140 L54.6875,2140 L56.25,2140 L57.8125,2140 L59.375,2140 L60.9375,2140 L62.5,2340 L64.0625,2340 L65.625,2340 L67.1875,2340 L68.75,2340 L70.3125,2340 L71.875,2340 L73.4375,2340 L75,2340 L76.5625,2340 L78.125,2340 L79.6875,2340 L81.25,2340 L82.8125,2340 L84.375,2340 L85.9375,2340 L87.5,2340 L89.0625,2340 L90.625,2340 L92.1875,2340 L93.75,2340 L95.3125,2340 L96.875,2340 L98.4375,2340 L100,2140 L101.5625,2140 L103.125,2140 L104.6875,2140 L106.25,2140 L107.8125,2140 L109.375,2140 L110.9375,2140 L112.5,2340 L114.0625,2340 L115.625,2340 L117.1875,2340 L118.75,2340 L120.3125,2340 L121.875,2340 L123.4375,2340 L125,2340 L126.5625,2340 L128.125,2340 L129.6875,2340 L131.25,2340 L132.8125,2340 L134.375,2340 L135.9375,2340 L137.5,2340 L139.0625,2340 L140.625,2340 L142.1875,2340 L143.75,2340 L145.3125,2340 L146.875,2340 L148.4375,2340 L150,2140 L151.5625,2140 L153.125,2140 L154.6875,2140 L156.25,2140 L157.8125,2140 L159.375,2140 L160.9375,2140 L162.5,2340 L164.0625,2340 L165.625,2340 L167.1875,2340 L168.75,2340 L170.3125,2340 L171.875,2340 L173.4375,2340 L175,2140 L176.5625,2140 L178.125,2140 L179.6875,2140 L181.25,2140 L182.8125,2140 L184.375,2140 L185.9375,2140 L187.5,2140 L189.0625,2140 L190.625,2140 L192.1875,2140 L193.75,2140 L195.3125,2140 L196.875,2140 L198.4375,2140 L200,2140 L201.5625,2140 L203.125,2140 L204.6875,2140 L206.25,2140 L207.8125,2140 L209.375,2140 L210.9375,2140 L212.5,2340 L214.0625,2340 L215.625,2340 L217.1875,2340 L218.75,2340 L220.3125,2340 L221.875,2340 L223.4375,2340 L225,2140 L226.5625,2140 L228.125,2140 L229.6875,2140 L231.25,2140 L232.8125,2140 L234.375,2140 L235.9375,2140 L237.5,2340 L239.0625,2340 L240.625,2340 L242.1875,2340 L243.75,2340 L245.3125,2340 L246.875,2340 L248.4375,2340 L250,2140 L251.5625,2140 L253.125,2140 L254.6875,2140 L256.25,2140 L257.8125,2140 L259.375,2140 L260.9375,2140 L262.5,2140 L264.0625,2140 L265.625,2140 L267.1875,2140 L268.75,2140 L270.3125,2140 L271.875,2140 L273.4375,2140 L275,2140 L276.5625,2140 L278.125,2140 L279.6875,2140 L281.25,2140 L282.8125,2140 L284.375,2140 L285.9375,2140 L287.5,2140 L289.0625,2140 L290.625,2140 L292.1875,2140 L293.75,2140 L295.3125,2140 L296.875,2140 L298.4375,2140 L300,2140 L301.5625,2140 L303.125,2140 L304.6875,2140 L306.25,2140 L307.8125,2140 L309.375,2140 L310.9375,2140 " stroke="blue" fill="none" />
<text x="750" y="770" font-family="Arial" font-size="12" fill="black">Simplified</text>
<text x="750" y="785" font-family="Arial" font-size="10" fill="black">6.0219</text>
<text x="750" y="1000" font-family="Arial" font-size="10" fill="black">2.143089</text>
<path d="M778.125,990 L807.8125,904.7953 L837.5,950.2098 L867.1875,841.3461 L896.875,965.8127 L926.5625,957.1788 L956.25,870.8515 L985.9375,790.1161 L1015.625,790 L1045.313,897.986 L1075,898.2335 L1104.688,811.6586 L1134.375,829.9644 L1162.5,845.9678 " stroke="blue" fill="none" />
<text x="750" y="1040" font-family="Arial" font-size="12" fill="black">Simplified</text>
<text x="750" y="1055" font-family="Arial" font-size="10" fill="black">1191.158</text>
<text x="750" y="1270" font-family="Arial" font-size="10" fill="black">415.6316</text>
<path d="M778.125,1260 L807.8125,1182.959 L837.5,1220.081 L867.1875,1128.11 L896.875,1240.808 L926.5625,1220 L956.25,1154.062 L985.9375,1068.307 L1015.625,1060 L1045.313,1157.211 L1075,1172.521 L1104.688,1086.454 L1134.375,1105.959 L1162.5,1123.568 " stroke="blue" fill="none" />
</svg>
