<svg width="2000" height="2500" xmlns="http://www.w3.org/2000/svg">
<text x="10" y="20" font-family="Arial" font-size="26" fill="black"> [SpiderWalk] Training Session</text>
<text x="10" y="50" font-family="Arial" font-size="16" fill="black">[Statistics]</text>
<text x="50" y="70" font-family="Arial" font-size="12" fill="black">Started at: 2:12:29 PM, Tuesday, October 31, 2023</text>
<text x="50" y="90" font-family="Arial" font-size="12" fill="black">Finished at: 2:16:44 PM, Tuesday, October 31, 2023</text>
<text x="50" y="110" font-family="Arial" font-size="12" fill="black">Training Session Time: 0 hrs : 1 min : 41 sec</text>
<text x="50" y="130" font-family="Arial" font-size="12" fill="black">Inference Time: 0 hrs : 4 min : 7 sec       [Per agent: 0 hrs : 4 min : 7 sec]        [Device: CPU]</text>
<text x="50" y="150" font-family="Arial" font-size="12" fill="black">Policy Update Time: 0 hrs : 0 min : 18 sec        [Per iteration: 0 hrs : 0 min : 6 sec]        [Device: GPU]</text>
<text x="50" y="170" font-family="Arial" font-size="12" fill="black">Inference Time / Training Session Time: 2.412</text>
<text x="50" y="190" font-family="Arial" font-size="12" fill="black">Policy Update Time / Training Session Time: 0.178</text>
<text x="50" y="210" font-family="Arial" font-size="12" fill="black">Episode Count: 284</text>
<text x="50" y="230" font-family="Arial" font-size="12" fill="black">Inference Steps: 6154    [Per agent: 6154]     [Per Episode (mean): 21]</text>
<text x="50" y="250" font-family="Arial" font-size="12" fill="black">Iterations: 2</text>
<text x="50" y="270" font-family="Arial" font-size="12" fill="black">Parallel Agents: 1</text>
<text x="50" y="290" font-family="Arial" font-size="12" fill="black">Timescale: 2.97</text>
<text x="10" y="340" font-family="Arial" font-size="16" fill="black">[Hyperparameters]</text>
<text x="50" y="360" font-family="Arial" font-size="12" fill="black">Buffer Size: 3000        [Batch Size: 100       (x30)]</text>
<text x="50" y="380" font-family="Arial" font-size="12" fill="black">Num Epoch: 8</text>
<text x="50" y="400" font-family="Arial" font-size="12" fill="black">Time Horizon: 64</text>
<text x="50" y="420" font-family="Arial" font-size="12" fill="black">Gradient Cliping Normalization: 0.5</text>
<text x="50" y="440" font-family="Arial" font-size="12" fill="black">Advantages Normalization: True</text>
<text x="50" y="460" font-family="Arial" font-size="12" fill="black">Training Data Shuffle: True</text>
<text x="50" y="480" font-family="Arial" font-size="12" fill="black">Learning Rate Schedule: True    </text>
<text x="10" y="530" font-family="Arial" font-size="16" fill="black">[Behaviour]</text>
<text x="50" y="550" font-family="Arial" font-size="12" fill="black">Space Size: 126</text>
<text x="50" y="570" font-family="Arial" font-size="12" fill="black">Continuous Actions: 20 [Standard Deviation: Trainable]     </text>
<text x="50" y="590" font-family="Arial" font-size="12" fill="black">Discrete Actions: 0</text>
<text x="50" y="610" font-family="Arial" font-size="12" fill="black">TargetFPS: 50 (physics update rate)</text>
<text x="50" y="630" font-family="Arial" font-size="12" fill="black">Observations Normalization: False</text>
<text x="10" y="680" font-family="Arial" font-size="16" fill="black">[Decision Requester]</text>
<text x="50" y="700" font-family="Arial" font-size="12" fill="black">Max Step: 3000</text>
<text x="50" y="720" font-family="Arial" font-size="12" fill="black">Decision Period: 2      [Actions Between Decisions: True]</text>
<text x="10" y="770" font-family="Arial" font-size="16" fill="black">[Graphs]</text>
<text x="50" y="790" font-family="Arial" font-size="12" fill="black">Episode Reward (284)</text>
<text x="50" y="805" font-family="Arial" font-size="10" fill="black">1.733559</text>
<text x="50" y="1020" font-family="Arial" font-size="10" fill="black">0.227593</text>
<path d="M50,972.4525 L51.5625,906.1641 L53.125,985.939 L54.6875,998.3192 L56.25,965.1263 L57.8125,933.2338 L59.375,962.8396 L60.9375,1002.952 L62.5,984.0394 L64.0625,954.726 L65.625,944.9217 L67.1875,936.1476 L68.75,910.6538 L70.3125,964.206 L71.875,972.7471 L73.4375,976.7615 L75,966.549 L76.5625,999.8003 L78.125,810 L79.6875,1000.127 L81.25,959.1625 L82.8125,982.2922 L84.375,1007.108 L85.9375,1010 L87.5,945.1312 L89.0625,1008.757 L90.625,1001.647 L92.1875,1006.64 L93.75,1005.866 L95.3125,952.3292 L96.875,992.2746 L98.4375,1003.217 L100,985.9245 L101.5625,1008.519 L103.125,1009.093 L104.6875,998.0956 L106.25,936.5189 L107.8125,1006.52 L109.375,938.0175 L110.9375,960.55 L112.5,956.4001 L114.0625,992.4489 L115.625,1004.683 L117.1875,973.069 L118.75,970.4421 L120.3125,983.6005 L121.875,992.6241 L123.4375,970.6058 L125,1008.884 L126.5625,998.9445 L128.125,974.8159 L129.6875,887.603 L131.25,1006.537 L132.8125,927.1627 L134.375,948.0389 L135.9375,978.6854 L137.5,956.4877 L139.0625,913.1346 L140.625,1006.826 L142.1875,976.9776 L143.75,978.7253 L145.3125,985.583 L146.875,996.98 L148.4375,954.3548 L150,967.8829 L151.5625,962.6099 L153.125,1000.508 L154.6875,1007.986 L156.25,978.1022 L157.8125,980.4406 L159.375,1008.041 L160.9375,977.8785 L162.5,1007.348 L164.0625,977.4523 L165.625,956.7355 L167.1875,1007.317 L168.75,952.4402 L170.3125,1009.183 L171.875,982.9133 L173.4375,994.3521 L175,999.3681 L176.5625,983.7874 L178.125,946.996 L179.6875,993.788 L181.25,1008.674 L182.8125,997.9661 L184.375,1006.428 L185.9375,959.4144 L187.5,962.2914 L189.0625,968.44 L190.625,991.5855 L192.1875,975.1301 L193.75,886.0388 L195.3125,971.9952 L196.875,984.3889 L198.4375,974.7697 L200,1002.511 L201.5625,955.158 L203.125,900.2107 L204.6875,999.7479 L206.25,1007.819 L207.8125,992.9383 L209.375,935.0062 L210.9375,931.9478 L212.5,1006.378 L214.0625,994.7078 L215.625,1005.872 L217.1875,999.384 L218.75,969.4652 L220.3125,1007.166 L221.875,990.1528 L223.4375,983.7027 L225,963.6486 L226.5625,940.1755 L228.125,938.9484 L229.6875,1002.764 L231.25,918.5374 L232.8125,951.9178 L234.375,898.6087 L235.9375,933.162 L237.5,1009.899 L239.0625,1006.99 L240.625,997.468 L242.1875,1008.433 L243.75,1008.765 L245.3125,961.608 L246.875,973.0632 L248.4375,962.6412 L250,962.3302 L251.5625,982.9878 L253.125,983.6668 L254.6875,997.1987 L256.25,1008.697 L257.8125,968.5667 L259.375,1002.354 L260.9375,979.3961 L262.5,940.7764 L264.0625,1002.365 L265.625,1009.167 L267.1875,988.4593 L268.75,983.8813 L270.3125,958.2595 L271.875,934.7776 L273.4375,996.4041 L275,940.326 L276.5625,946.6228 L278.125,970.1662 L279.6875,974.6049 L281.25,962.6953 L282.8125,923.4254 L284.375,985.6208 L285.9375,1009.26 L287.5,1001.9 L289.0625,999.428 L290.625,983.9475 L292.1875,1001.384 L293.75,931.548 L295.3125,977.1636 L296.875,949.9598 L298.4375,990.4282 L300,953.9916 L301.5625,954.5498 L303.125,954.9002 L304.6875,938.2314 L306.25,970.8832 L307.8125,1009.227 L309.375,988.8699 L310.9375,959.9891 L312.5,931.4863 L314.0625,984.7683 L315.625,974.011 L317.1875,1006.332 L318.75,931.751 L320.3125,979.084 L321.875,992.8611 L323.4375,1006.252 L325,998.134 L326.5625,1000.956 L328.125,978.2104 L329.6875,1003.193 L331.25,1009.835 L332.8125,1008.356 L334.375,1009.248 L335.9375,936.1628 L337.5,943.6127 L339.0625,943.3798 L340.625,999.1665 L342.1875,997.5604 L343.75,997.2218 L345.3125,995.9377 L346.875,933.1306 L348.4375,938.4211 L350,985.1574 L351.5625,996.5751 L353.125,1002.02 L354.6875,986.1231 L356.25,1003.071 L357.8125,1006.948 L359.375,944.3751 L360.9375,976.301 L362.5,1002.116 L364.0625,1006.689 L365.625,1006.115 L367.1875,965.0538 L368.75,997.6205 L370.3125,992.2394 L371.875,951.8661 L373.4375,1002.469 L375,951.2386 L376.5625,979.7172 L378.125,996.4739 L379.6875,997.8353 L381.25,1003.234 L382.8125,964.8035 L384.375,941.7277 L385.9375,1002.011 L387.5,987.2268 L389.0625,953.4174 L390.625,999.2586 L392.1875,973.0109 L393.75,935.8471 L395.3125,1002.356 L396.875,943.2679 L398.4375,972.1972 L400,948.2191 L401.5625,1005.922 L403.125,922.5636 L404.6875,978.5284 L406.25,930.6609 L407.8125,1006.101 L409.375,1006.809 L410.9375,977.5691 L412.5,992.9221 L414.0625,1009.214 L415.625,1009.127 L417.1875,977.5922 L418.75,979.2694 L420.3125,984.977 L421.875,958.8453 L423.4375,980.4263 L425,945.3494 L426.5625,973.0871 L428.125,934.3958 L429.6875,1006.234 L431.25,974.5962 L432.8125,946.6663 L434.375,968.3349 L435.9375,938.313 L437.5,1007.846 L439.0625,1006.516 L440.625,996.4941 L442.1875,994.3253 L443.75,1000.911 L445.3125,986.2568 L446.875,987.5267 L448.4375,946.7997 L450,961.4426 L451.5625,960.1746 L453.125,976.3139 L454.6875,1009.065 L456.25,969.0835 L457.8125,959.6071 L459.375,1001.583 L460.9375,928.6697 L462.5,974.5845 L464.0625,962.2012 L465.625,1008.371 L467.1875,996.6294 L468.75,1001.193 L470.3125,974.3956 L471.875,1009.985 L473.4375,1009.985 L475,1009.985 L476.5625,1009.985 L478.125,1009.985 L479.6875,1009.985 L481.25,1009.985 L482.8125,1009.985 L484.375,1009.985 L485.9375,1009.985 L487.5,1009.985 L489.0625,1009.985 L490.625,1009.985 L492.1875,1009.985 " stroke="blue" fill="none" />
<text x="50" y="1060" font-family="Arial" font-size="12" fill="black">Episode Length (284)</text>
<text x="50" y="1075" font-family="Arial" font-size="10" fill="black">81</text>
<text x="50" y="1290" font-family="Arial" font-size="10" fill="black">10</text>
<path d="M50,1246.197 L51.5625,1178.592 L53.125,1254.648 L54.6875,1268.732 L56.25,1234.93 L57.8125,1212.394 L59.375,1240.563 L60.9375,1271.549 L62.5,1254.648 L64.0625,1223.662 L65.625,1212.394 L67.1875,1206.761 L68.75,1170.141 L70.3125,1234.93 L71.875,1240.563 L73.4375,1243.38 L75,1232.113 L76.5625,1268.732 L78.125,1080 L79.6875,1268.732 L81.25,1232.113 L82.8125,1246.197 L84.375,1277.183 L85.9375,1280 L87.5,1215.211 L89.0625,1280 L90.625,1271.549 L92.1875,1277.183 L93.75,1277.183 L95.3125,1223.662 L96.875,1263.099 L98.4375,1274.366 L100,1257.465 L101.5625,1280 L103.125,1280 L104.6875,1268.732 L106.25,1201.127 L107.8125,1277.183 L109.375,1203.944 L110.9375,1226.479 L112.5,1229.296 L114.0625,1260.282 L115.625,1274.366 L117.1875,1237.746 L118.75,1240.563 L120.3125,1251.831 L121.875,1263.099 L123.4375,1240.563 L125,1280 L126.5625,1268.732 L128.125,1246.197 L129.6875,1161.69 L131.25,1277.183 L132.8125,1195.493 L134.375,1212.394 L135.9375,1240.563 L137.5,1226.479 L139.0625,1178.592 L140.625,1277.183 L142.1875,1249.014 L143.75,1246.197 L145.3125,1257.465 L146.875,1265.916 L148.4375,1218.028 L150,1232.113 L151.5625,1226.479 L153.125,1271.549 L154.6875,1280 L156.25,1249.014 L157.8125,1251.831 L159.375,1280 L160.9375,1249.014 L162.5,1277.183 L164.0625,1249.014 L165.625,1226.479 L167.1875,1277.183 L168.75,1218.028 L170.3125,1280 L171.875,1254.648 L173.4375,1263.099 L175,1268.732 L176.5625,1251.831 L178.125,1209.578 L179.6875,1263.099 L181.25,1280 L182.8125,1265.916 L184.375,1277.183 L185.9375,1234.93 L187.5,1234.93 L189.0625,1237.746 L190.625,1260.282 L192.1875,1240.563 L193.75,1158.873 L195.3125,1237.746 L196.875,1251.831 L198.4375,1240.563 L200,1271.549 L201.5625,1226.479 L203.125,1164.507 L204.6875,1268.732 L206.25,1280 L207.8125,1263.099 L209.375,1192.676 L210.9375,1203.944 L212.5,1277.183 L214.0625,1260.282 L215.625,1277.183 L217.1875,1268.732 L218.75,1240.563 L220.3125,1277.183 L221.875,1260.282 L223.4375,1251.831 L225,1232.113 L226.5625,1201.127 L228.125,1209.578 L229.6875,1274.366 L231.25,1181.408 L232.8125,1220.845 L234.375,1175.775 L235.9375,1198.31 L237.5,1280 L239.0625,1277.183 L240.625,1265.916 L242.1875,1280 L243.75,1280 L245.3125,1223.662 L246.875,1240.563 L248.4375,1232.113 L250,1229.296 L251.5625,1254.648 L253.125,1251.831 L254.6875,1265.916 L256.25,1280 L257.8125,1237.746 L259.375,1271.549 L260.9375,1249.014 L262.5,1212.394 L264.0625,1271.549 L265.625,1280 L267.1875,1260.282 L268.75,1254.648 L270.3125,1232.113 L271.875,1195.493 L273.4375,1265.916 L275,1209.578 L276.5625,1215.211 L278.125,1237.746 L279.6875,1246.197 L281.25,1232.113 L282.8125,1192.676 L284.375,1257.465 L285.9375,1280 L287.5,1271.549 L289.0625,1268.732 L290.625,1251.831 L292.1875,1271.549 L293.75,1201.127 L295.3125,1243.38 L296.875,1215.211 L298.4375,1257.465 L300,1220.845 L301.5625,1223.662 L303.125,1223.662 L304.6875,1201.127 L306.25,1243.38 L307.8125,1280 L309.375,1260.282 L310.9375,1234.93 L312.5,1201.127 L314.0625,1254.648 L315.625,1246.197 L317.1875,1277.183 L318.75,1198.31 L320.3125,1249.014 L321.875,1263.099 L323.4375,1277.183 L325,1268.732 L326.5625,1271.549 L328.125,1249.014 L329.6875,1274.366 L331.25,1280 L332.8125,1280 L334.375,1280 L335.9375,1198.31 L337.5,1209.578 L339.0625,1206.761 L340.625,1268.732 L342.1875,1265.916 L343.75,1265.916 L345.3125,1265.916 L346.875,1201.127 L348.4375,1201.127 L350,1254.648 L351.5625,1265.916 L353.125,1271.549 L354.6875,1251.831 L356.25,1274.366 L357.8125,1277.183 L359.375,1215.211 L360.9375,1243.38 L362.5,1271.549 L364.0625,1277.183 L365.625,1277.183 L367.1875,1229.296 L368.75,1265.916 L370.3125,1257.465 L371.875,1215.211 L373.4375,1271.549 L375,1220.845 L376.5625,1251.831 L378.125,1265.916 L379.6875,1265.916 L381.25,1274.366 L382.8125,1232.113 L384.375,1209.578 L385.9375,1271.549 L387.5,1254.648 L389.0625,1223.662 L390.625,1268.732 L392.1875,1237.746 L393.75,1203.944 L395.3125,1271.549 L396.875,1212.394 L398.4375,1243.38 L400,1212.394 L401.5625,1277.183 L403.125,1195.493 L404.6875,1243.38 L406.25,1198.31 L407.8125,1277.183 L409.375,1277.183 L410.9375,1246.197 L412.5,1263.099 L414.0625,1280 L415.625,1280 L417.1875,1243.38 L418.75,1246.197 L420.3125,1254.648 L421.875,1226.479 L423.4375,1251.831 L425,1212.394 L426.5625,1243.38 L428.125,1203.944 L429.6875,1277.183 L431.25,1240.563 L432.8125,1215.211 L434.375,1229.296 L435.9375,1206.761 L437.5,1280 L439.0625,1277.183 L440.625,1263.099 L442.1875,1263.099 L443.75,1271.549 L445.3125,1254.648 L446.875,1257.465 L448.4375,1226.479 L450,1232.113 L451.5625,1229.296 L453.125,1240.563 L454.6875,1280 L456.25,1234.93 L457.8125,1229.296 L459.375,1271.549 L460.9375,1195.493 L462.5,1240.563 L464.0625,1234.93 L465.625,1280 L467.1875,1265.916 L468.75,1271.549 L470.3125,1246.197 L471.875,1280 L473.4375,1280 L475,1280 L476.5625,1280 L478.125,1280 L479.6875,1280 L481.25,1280 L482.8125,1280 L484.375,1280 L485.9375,1280 L487.5,1280 L489.0625,1280 L490.625,1280 L492.1875,1280 " stroke="blue" fill="none" />
<text x="50" y="1330" font-family="Arial" font-size="12" fill="black">Policy Loss</text>
<text x="50" y="1345" font-family="Arial" font-size="10" fill="black">0.06586559</text>
<text x="50" y="1560" font-family="Arial" font-size="10" fill="black">0</text>
<path d="M50,1350 L75,1477.793 L100,1488.8 L125,1471.639 L150,1486.519 L175,1461.863 L200,1481.825 L225,1476.454 L250,1444.683 L275,1521.059 L300,1550 L325,1550 L350,1550 L375,1550 L400,1550 L425,1550 " stroke="blue" fill="none" />
<text x="50" y="1600" font-family="Arial" font-size="12" fill="black">Value Loss</text>
<text x="50" y="1615" font-family="Arial" font-size="10" fill="black">0.01919261</text>
<text x="50" y="1830" font-family="Arial" font-size="10" fill="black">0.006548367</text>
<path d="M50,1620 L75,1673.789 L100,1700.972 L125,1719.547 L150,1729.376 L175,1747.075 L200,1757.599 L225,1765.858 L250,1704.713 L275,1758.01 L300,1779.82 L325,1792.107 L350,1800.919 L375,1806.115 L400,1820 L425,1815.7 " stroke="blue" fill="none" />
<text x="50" y="1870" font-family="Arial" font-size="12" fill="black">Learning Rate</text>
<text x="50" y="1885" font-family="Arial" font-size="10" fill="black">0.0002999995</text>
<text x="50" y="2100" font-family="Arial" font-size="10" fill="black">0.0002999926</text>
<path d="M50,2007.751 L75,2013.235 L100,2018.718 L125,2024.201 L150,2029.684 L175,2035.168 L200,2040.651 L225,2046.134 L250,2051.617 L275,2057.101 L300,2062.584 L325,2068.067 L350,2073.55 L375,2079.033 L400,2084.517 L425,2090 " stroke="blue" fill="none" />
<text x="50" y="2140" font-family="Arial" font-size="12" fill="black">Entropy</text>
<text x="50" y="2155" font-family="Arial" font-size="10" fill="black">Infinity</text>
<text x="50" y="2370" font-family="Arial" font-size="10" fill="black">0</text>
<path d="M50,2360 L75,2360 L100,2360 L125,2360 L150,2360 L175,2360 L200,2360 L225,2360 L250,2360 L275,NaN L300,2360 L325,2360 L350,2360 L375,2360 L400,2360 L425,2360 " stroke="blue" fill="none" />
<text x="750" y="790" font-family="Arial" font-size="12" fill="black">Simplified</text>
<text x="750" y="805" font-family="Arial" font-size="10" fill="black">0.6407115</text>
<text x="750" y="1020" font-family="Arial" font-size="10" fill="black">0.2525316</text>
<path d="M778.125,810 L807.8125,947.1411 L837.5,867.5853 L867.1875,911.5431 L896.875,897.3109 L926.5625,894.3662 L956.25,883.5292 L985.9375,877.2897 L1015.625,873.1117 L1045.313,930.4041 L1075,912.0836 L1104.688,883.5151 L1134.375,894.6556 L1164.063,895.786 L1192.188,1010 " stroke="blue" fill="none" />
<text x="750" y="1060" font-family="Arial" font-size="12" fill="black">Simplified</text>
<text x="750" y="1075" font-family="Arial" font-size="10" fill="black">29.52632</text>
<text x="750" y="1290" font-family="Arial" font-size="10" fill="black">11.11111</text>
<path d="M778.125,1080 L807.8125,1217.186 L837.5,1133.16 L867.1875,1178.889 L896.875,1164.027 L926.5625,1157.739 L956.25,1150.308 L985.9375,1146.307 L1015.625,1140.019 L1045.313,1196.608 L1075,1174.887 L1104.688,1149.165 L1134.375,1159.454 L1164.063,1164.027 L1192.188,1280 " stroke="blue" fill="none" />
</svg>
