<svg width="2000" height="2500" xmlns="http://www.w3.org/2000/svg">
<text x="10" y="20" font-family="Arial" font-size="26" fill="black"> [<tspan font-weight="bold" fill="blue">Skier</tspan>] Training Session</text>
<text x="10" y="50" font-family="Arial" font-size="16" fill="black">[Statistics]</text>
<text x="50" y="70" font-family="Arial" font-size="12" fill="black">Started at: 6:47:44 PM, Sunday, April 7, 2024</text>
<text x="50" y="90" font-family="Arial" font-size="12" fill="black">Finished at: 6:57:16 PM, Sunday, April 7, 2024</text>
<text x="50" y="110" font-family="Arial" font-size="12" fill="black">Training Session Time: 0 hrs : 9 min : 28 sec</text>
<text x="50" y="130" font-family="Arial" font-size="12" fill="black">Inference Time: 6 hrs : 9 min : 36 sec        [Device: CPU]</text>
<text x="50" y="150" font-family="Arial" font-size="12" fill="black">Update Time: 0 hrs : 3 min : 30 sec        [Per iteration: 0 hrs : 0 min : 9.552 sec]        [Device: GPU]</text>
<text x="50" y="170" font-family="Arial" font-size="12" fill="black">Episode Count: 1059</text>
<text x="50" y="190" font-family="Arial" font-size="12" fill="black">Inference Steps: 440000</text>
<text x="50" y="210" font-family="Arial" font-size="12" fill="black">Iterations: 22</text>
<text x="50" y="230" font-family="Arial" font-size="12" fill="black">Parallel Agents: 62</text>
<text x="50" y="250" font-family="Arial" font-size="12" fill="black">Timescale: 1</text>
<text x="50" y="270" font-family="Arial" font-size="12" fill="black">Trainer: PPO</text>
<text x="10" y="320" font-family="Arial" font-size="16" fill="black">[Hyperparameters]</text>
<text x="50" y="340" font-family="Arial" font-size="12" fill="black">Buffer Size: 20000        [Batch Size: 1000       (x20)]</text>
<text x="50" y="360" font-family="Arial" font-size="12" fill="black">Num Epoch: 8</text>
<text x="50" y="380" font-family="Arial" font-size="12" fill="black">Time Horizon: 256</text>
<text x="50" y="400" font-family="Arial" font-size="12" fill="black">Gradient Cliping by Norm: 0.5</text>
<text x="50" y="420" font-family="Arial" font-size="12" fill="black">Learning Rate Schedule: False    </text>
<text x="10" y="470" font-family="Arial" font-size="16" fill="black">[Behaviour]</text>
<text x="50" y="490" font-family="Arial" font-size="12" fill="black">Space Size: 136</text>
<text x="50" y="510" font-family="Arial" font-size="12" fill="black">Continuous Actions: 38 [Standard Deviation: Fixed]     [Value: 1.8]</text>
<text x="50" y="530" font-family="Arial" font-size="12" fill="black">Discrete Actions: 0</text>
<text x="50" y="550" font-family="Arial" font-size="12" fill="black">TargetFPS: 100 (physics update rate)</text>
<text x="50" y="570" font-family="Arial" font-size="12" fill="black">Observations Normalization: True</text>
<text x="10" y="620" font-family="Arial" font-size="16" fill="black">[Decision Requester]</text>
<text x="50" y="640" font-family="Arial" font-size="12" fill="black">Max Step: 10000</text>
<text x="50" y="660" font-family="Arial" font-size="12" fill="black">Decision Period: 5      [Actions Between Decisions: True]</text>
<text x="10" y="710" font-family="Arial" font-size="16" fill="black">[Graphs]</text>
<text x="50" y="730" font-family="Arial" font-size="12" fill="black">Episode Reward (1059)</text>
<text x="50" y="745" font-family="Arial" font-size="10" fill="black">5.239072</text>
<text x="50" y="960" font-family="Arial" font-size="10" fill="black">0.054</text>
<path d="M50,950 L50.39063,949.8071 L50.78125,949.8071 L51.17188,949.8071 L51.5625,949.8071 L51.95313,949.6143 L52.34375,949.6143 L52.73438,949.6143 L53.125,949.6143 L53.51563,949.6143 L53.90625,949.4214 L54.29688,949.4214 L54.6875,949.4214 L55.07813,949.4214 L55.46875,949.4214 L55.85938,949.4214 L56.25,949.4214 L56.64063,949.4214 L57.03125,949.4214 L57.42188,949.4214 L57.8125,949.4214 L58.20313,949.4214 L58.59375,949.4214 L58.98438,949.4214 L59.375,949.2286 L59.76563,949.2286 L60.15625,949.2286 L60.54688,949.2286 L60.9375,949.2286 L61.32813,949.2286 L61.71875,949.2286 L62.10938,949.2286 L62.5,949.2286 L62.89063,949.2286 L63.28125,949.0357 L63.67188,949.0357 L64.0625,949.0357 L64.45313,949.0357 L64.84375,949.0357 L65.23438,949.0357 L65.625,949.0357 L66.01563,949.0357 L66.40625,949.0357 L66.79688,948.8428 L67.1875,948.8428 L67.57813,948.8428 L67.96875,948.8428 L68.35938,948.8428 L68.75,948.8428 L69.14063,948.8428 L69.53125,948.8428 L69.92188,948.8428 L70.3125,948.8428 L70.70313,948.65 L71.09375,948.65 L71.48438,948.65 L71.875,948.65 L72.26563,948.65 L72.65625,948.65 L73.04688,948.2642 L73.4375,948.0714 L73.82813,948.0714 L74.21875,947.8785 L74.60938,947.6857 L75,948.0714 L75.39063,947.4928 L75.78125,946.7214 L76.17188,947.8785 L76.5625,946.3356 L76.95313,945.3713 L77.34375,945.5642 L77.73438,944.407 L78.125,943.8284 L78.51563,944.0213 L78.90625,943.8284 L79.29688,942.6713 L79.6875,942.6713 L80.07813,947.1071 L80.46875,942.4784 L80.85938,942.4784 L81.25,939.5855 L81.64063,942.2855 L82.03125,930.9067 L82.42188,934.3782 L82.8125,920.1065 L83.20313,919.9136 L83.59375,919.9136 L83.98438,941.5141 L84.375,898.6989 L84.76563,893.2988 L85.15625,886.7415 L85.54688,882.4986 L85.9375,841.8041 L86.32813,834.2823 L86.71875,942.0927 L87.10938,831.0036 L87.5,947.8785 L87.89063,825.2177 L88.28125,818.4673 L88.67188,799.1808 L89.0625,797.2521 L89.45313,803.0381 L89.84375,788.1874 L90.23438,938.4283 L90.625,839.2969 L91.01563,784.3301 L91.40625,948.65 L91.79688,787.9946 L92.1875,778.9299 L92.57813,911.2349 L92.96875,775.4583 L93.35938,774.6868 L93.75,782.98 L94.14063,946.3356 L94.53125,772.7582 L94.92188,771.4081 L95.3125,946.5285 L95.70313,946.7214 L96.09375,941.1284 L96.48438,776.2297 L96.875,933.4139 L97.26563,752.7001 L97.65625,752.7001 L98.04688,752.893 L98.4375,752.7001 L98.82813,752.5073 L99.21875,752.5073 L99.60938,752.7001 L100,752.893 L100.3906,752.7001 L100.7813,752.3144 L101.1719,752.893 L101.5625,752.7001 L101.9531,752.3144 L102.3438,752.1215 L102.7344,752.7001 L103.125,752.5073 L103.5156,752.893 L103.9063,751.9286 L104.2969,751.9286 L104.6875,752.3144 L105.0781,752.1215 L105.4688,752.1215 L105.8594,751.7358 L106.25,751.7358 L106.6406,751.7358 L107.0313,948.4571 L107.4219,948.2642 L107.8125,752.3144 L108.2031,947.6857 L108.5938,948.4571 L108.9844,752.7001 L109.375,947.1071 L109.7656,946.9142 L110.1563,945.9499 L110.5469,948.2642 L110.9375,946.1428 L111.3281,945.3713 L111.7188,946.3356 L112.1094,945.5642 L112.5,945.7571 L112.8906,945.5642 L113.2813,944.5999 L113.6719,751.7358 L114.0625,751.9286 L114.4531,948.65 L114.8438,945.5642 L115.2344,752.3144 L115.625,944.9856 L116.0156,752.3144 L116.4063,751.5429 L116.7969,752.1215 L117.1875,752.5073 L117.5781,948.8428 L117.9688,751.5429 L118.3594,946.7214 L118.75,947.1071 L119.1406,944.407 L119.5313,946.1428 L119.9219,943.4427 L120.3125,948.2642 L120.7031,945.1785 L121.0938,948.0714 L121.4844,939.1998 L121.875,948.65 L122.2656,949.0357 L122.6563,752.893 L123.0469,943.6356 L123.4375,941.8998 L123.8281,944.2142 L124.2188,948.0714 L124.6094,939.1998 L125,941.5141 L125.3906,915.0921 L125.7813,947.6857 L126.1719,941.1284 L126.5625,938.814 L126.9531,944.7927 L127.3438,945.9499 L127.7344,895.4203 L128.125,933.4139 L128.5156,751.9286 L128.9063,943.4427 L129.2969,939.7784 L129.6875,947.1071 L130.0781,948.0714 L130.4688,841.9969 L130.8594,942.2855 L131.25,932.2568 L131.6406,933.9925 L132.0313,925.8923 L132.4219,948.4571 L132.8125,752.7001 L133.2031,926.6638 L133.5938,937.8497 L133.9844,937.4641 L134.375,923.578 L134.7656,751.9286 L135.1563,947.8785 L135.5469,752.7001 L135.9375,947.2999 L136.3281,907.7634 L136.7188,940.1641 L137.1094,947.2999 L137.5,885.1987 L137.8906,919.7208 L138.2813,948.0714 L138.6719,875.5556 L139.0625,898.8918 L139.4531,947.4928 L139.8438,949.6143 L140.2344,918.9493 L140.625,752.3144 L141.0156,945.5642 L141.4063,872.4697 L141.7969,944.7927 L142.1875,752.3144 L142.5781,884.6201 L142.9688,752.1215 L143.3594,925.3138 L143.75,948.0714 L144.1406,890.213 L144.5313,806.3168 L144.9219,948.0714 L145.3125,945.7571 L145.7031,948.0714 L146.0938,936.3068 L146.4844,947.8785 L146.875,892.3345 L147.2656,898.506 L147.6563,942.0927 L148.0469,790.5018 L148.4375,938.6212 L148.8281,944.5999 L149.2188,942.6713 L149.6094,875.3627 L150,871.8912 L150.3906,900.4347 L150.7813,775.6511 L151.1719,869.191 L151.5625,945.7571 L151.9531,943.2499 L152.3438,850.0974 L152.7344,862.055 L153.125,848.9401 L153.5156,939.3926 L153.9063,946.9142 L154.2969,937.2712 L154.6875,902.5562 L155.0781,944.9856 L155.4688,945.9499 L155.8594,947.8785 L156.25,827.3392 L156.6406,882.1129 L157.0313,861.2836 L157.4219,942.4784 L157.8125,830.0393 L158.2031,857.812 L158.5938,947.8785 L158.9844,868.0338 L159.375,824.0604 L159.7656,900.8204 L160.1563,852.7974 L160.5469,885.0058 L160.9375,764.6578 L161.3281,819.6245 L161.7188,942.8641 L162.1094,826.3748 L162.5,947.8785 L162.8906,940.7427 L163.2813,944.0213 L163.6719,893.8774 L164.0625,808.0526 L164.4531,942.8641 L164.8438,859.5477 L165.2344,818.2745 L165.625,752.1215 L166.0156,944.7927 L166.4063,751.9286 L166.7969,752.1215 L167.1875,881.1486 L167.5781,948.4571 L167.9688,834.4752 L168.3594,947.4928 L168.75,942.4784 L169.1406,751.5429 L169.5313,752.893 L169.9219,939.1998 L170.3125,946.1428 L170.7031,944.9856 L171.0938,933.9925 L171.4844,868.4196 L171.875,939.7784 L172.2656,947.1071 L172.6563,857.4262 L173.0469,806.7025 L173.4375,750.1929 L173.8281,752.7001 L174.2188,771.4081 L174.6094,937.2712 L175,942.4784 L175.3906,944.407 L175.7813,943.8284 L176.1719,934.764 L176.5625,752.1215 L176.9531,752.1215 L177.3438,907.7634 L177.7344,908.342 L178.125,823.289 L178.5156,750.5786 L178.9063,947.8785 L179.2969,948.65 L179.6875,750 L180.0781,889.0558 L180.4688,751.9286 L180.8594,930.521 L181.25,751.9286 L181.6406,947.4928 L182.0313,752.1215 L182.4219,927.4352 L182.8125,947.4928 L183.2031,761.572 L183.5938,750.3857 L183.9844,910.6563 L184.375,947.4928 L184.7656,942.0927 L185.1563,948.2642 L185.5469,949.0357 L185.9375,752.1215 L186.3281,941.5141 L186.7188,944.9856 L187.1094,940.9355 L187.5,945.5642 L187.8906,752.5073 L188.2813,946.9142 L188.6719,949.4214 L189.0625,752.1215 L189.4531,945.5642 L189.8438,866.8766 L190.2344,938.4283 L190.625,945.3713 L191.0156,944.7927 L191.4063,886.5486 L191.7969,945.5642 L192.1875,947.1071 L192.5781,750.7715 L192.9688,942.6713 L193.3594,752.5073 L193.75,942.0927 L194.1406,752.3144 L194.5313,947.1071 L194.9219,934.9568 L195.3125,948.2642 L195.7031,887.8987 L196.0938,941.8998 L196.4844,927.0495 L196.875,752.5073 L197.2656,946.3356 L197.6563,947.4928 L198.0469,944.5999 L198.4375,752.7001 L198.8281,752.893 L199.2188,924.7352 L199.6094,752.7001 L200,945.9499 L200.3906,948.8428 L200.7813,796.2878 L201.1719,751.7358 L201.5625,942.0927 L201.9531,948.65 L202.3438,938.2355 L202.7344,769.0937 L203.125,945.9499 L203.5156,750.9644 L203.9063,877.0984 L204.2969,942.6713 L204.6875,892.7202 L205.0781,947.1071 L205.4688,837.3682 L205.8594,874.5912 L206.25,881.92 L206.6406,941.5141 L207.0313,945.3713 L207.4219,751.1572 L207.8125,752.3144 L208.2031,911.2349 L208.5938,948.4571 L208.9844,751.7358 L209.375,877.4842 L209.7656,949.6143 L210.1563,862.4407 L210.5469,922.6137 L210.9375,935.5354 L211.3281,858.9692 L211.7188,751.9286 L212.1094,879.22 L212.5,948.65 L212.8906,752.3144 L213.2813,751.35 L213.6719,947.4928 L214.0625,946.9142 L214.4531,946.5285 L214.8438,870.1554 L215.2344,884.8129 L215.625,947.6857 L216.0156,928.2067 L216.4063,822.5175 L216.7969,759.6433 L217.1875,752.5073 L217.5781,837.1753 L217.9688,921.6494 L218.3594,787.0302 L218.75,752.1215 L219.1406,947.1071 L219.5313,946.9142 L219.9219,948.8428 L220.3125,750.9644 L220.7031,752.5073 L221.0938,786.2588 L221.4844,933.0282 L221.875,947.6857 L222.2656,922.228 L222.6563,752.3144 L223.0469,752.3144 L223.4375,936.114 L223.8281,942.2855 L224.2188,751.5429 L224.6094,945.5642 L225,949.4214 L225.3906,939.0069 L225.7813,796.6735 L226.1719,892.7202 L226.5625,945.7571 L226.9531,947.4928 L227.3438,947.4928 L227.7344,898.3132 L228.125,795.3234 L228.5156,752.1215 L228.9063,752.3144 L229.2969,809.2098 L229.6875,948.4571 L230.0781,926.8566 L230.4688,816.7316 L230.8594,797.6378 L231.25,940.1641 L231.6406,835.6324 L232.0313,939.3926 L232.4219,908.5349 L232.8125,883.8486 L233.2031,891.1774 L233.5938,946.7214 L233.9844,943.4427 L234.375,947.2999 L234.7656,770.2509 L235.1563,942.0927 L235.5469,947.4928 L235.9375,908.7277 L236.3281,750.9644 L236.7188,949.0357 L237.1094,753.0859 L237.5,752.3144 L237.8906,751.7358 L238.2813,884.8129 L238.6719,752.3144 L239.0625,947.1071 L239.4531,947.6857 L239.8438,924.5423 L240.2344,836.4039 L240.625,758.1003 L241.0156,790.8875 L241.4063,940.9355 L241.7969,939.3926 L242.1875,752.5073 L242.5781,759.0647 L242.9688,751.5429 L243.3594,947.2999 L243.75,900.2418 L244.1406,821.1675 L244.5313,751.1572 L244.9219,752.893 L245.3125,751.1572 L245.7031,899.6632 L246.0938,948.65 L246.4844,751.9286 L246.875,945.7571 L247.2656,945.3713 L247.6563,788.1874 L248.0469,895.2274 L248.4375,934.764 L248.8281,864.948 L249.2188,946.7214 L249.6094,946.9142 L250,941.707 L250.3906,939.5855 L250.7813,753.6644 L251.1719,860.705 L251.5625,752.893 L251.9531,858.0048 L252.3438,947.8785 L252.7344,944.7927 L253.125,841.2255 L253.5156,939.3926 L253.9063,750.9644 L254.2969,751.1572 L254.6875,932.2568 L255.0781,910.0778 L255.4688,942.6713 L255.8594,862.6336 L256.25,751.7358 L256.6406,837.7539 L257.0313,775.0726 L257.4219,813.0671 L257.8125,937.2712 L258.2031,752.893 L258.5938,942.6713 L258.9844,939.9712 L259.375,942.8641 L259.7656,753.2787 L260.1563,948.4571 L260.5469,945.9499 L260.9375,752.3144 L261.3281,816.5387 L261.7188,939.9712 L262.1094,944.9856 L262.5,840.454 L262.8906,751.5429 L263.2813,947.8785 L263.6719,948.4571 L264.0625,945.7571 L264.4531,894.6489 L264.8438,752.5073 L265.2344,894.456 L265.625,909.692 L266.0156,939.5855 L266.4063,937.6569 L266.7969,948.8428 L267.1875,807.8597 L267.5781,946.3356 L267.9688,947.8785 L268.3594,841.8041 L268.75,751.7358 L269.1406,751.9286 L269.5313,932.0639 L269.9219,936.3068 L270.3125,945.1785 L270.7031,758.8718 L271.0938,840.2612 L271.4844,761.572 L271.875,819.4317 L272.2656,946.1428 L272.6563,943.4427 L273.0469,786.8373 L273.4375,853.1832 L273.8281,946.9142 L274.2188,831.5822 L274.6094,921.4565 L275,946.3356 L275.3906,911.6206 L275.7813,938.2355 L276.1719,751.1572 L276.5625,751.7358 L276.9531,938.6212 L277.3438,910.8492 L277.7344,821.746 L278.125,751.7358 L278.5156,891.1774 L278.9063,945.3713 L279.2969,805.9311 L279.6875,944.2142 L280.0781,752.5073 L280.4688,941.5141 L280.8594,863.2122 L281.25,752.893 L281.6406,873.2412 L282.0313,949.2286 L282.4219,752.1215 L282.8125,943.4427 L283.2031,949.0357 L283.5938,947.8785 L283.9844,802.8452 L284.375,947.6857 L284.7656,753.2787 L285.1563,943.4427 L285.5469,751.1572 L285.9375,751.35 L286.3281,949.0357 L286.7188,752.5073 L287.1094,751.9286 L287.5,921.4565 L287.8906,946.9142 L288.2813,752.5073 L288.6719,946.1428 L289.0625,946.7214 L289.4531,947.1071 L289.8438,945.7571 L290.2344,947.2999 L290.625,752.893 L291.0156,752.3144 L291.4063,946.9142 L291.7969,764.8506 L292.1875,945.3713 L292.5781,948.2642 L292.9688,923.578 L293.3594,878.4485 L293.75,939.9712 L294.1406,829.075 L294.5313,874.5912 L294.9219,823.0961 L295.3125,790.8875 L295.7031,946.5285 L296.0938,947.6857 L296.4844,752.7001 L296.875,936.4997 L297.2656,948.0714 L297.6563,944.407 L298.0469,896.9632 L298.4375,752.1215 L298.8281,945.1785 L299.2188,889.6345 L299.6094,902.3633 L300,946.3356 L300.3906,946.5285 L300.7813,876.5199 L301.1719,839.6826 L301.5625,874.7841 L301.9531,945.7571 L302.3438,752.5073 L302.7344,841.0327 L303.125,947.4928 L303.5156,851.2545 L303.9063,941.707 L304.2969,899.4704 L304.6875,912.3921 L305.0781,911.0421 L305.4688,809.4026 L305.8594,918.1779 L306.25,946.9142 L306.6407,751.7358 L307.0313,750.9644 L307.4219,901.9775 L307.8125,752.5073 L308.2031,751.9286 L308.5938,942.6713 L308.9844,752.5073 L309.375,832.5466 L309.7656,947.1071 L310.1563,752.893 L310.5469,752.3144 L310.9375,942.8641 L311.3281,948.2642 L311.7188,936.8854 L312.1094,944.7927 L312.5,907.1848 L312.8906,944.407 L313.2813,879.22 L313.6719,932.8353 L314.0625,752.3144 L314.4532,751.5429 L314.8438,752.5073 L315.2344,947.6857 L315.625,752.5073 L316.0156,752.1215 L316.4063,915.285 L316.7969,751.1572 L317.1875,859.7406 L317.5781,948.0714 L317.9688,933.7997 L318.3594,751.1572 L318.75,943.6356 L319.1406,945.1785 L319.5313,876.1342 L319.9219,875.3627 L320.3125,948.65 L320.7031,944.9856 L321.0938,853.376 L321.4844,940.9355 L321.875,764.4649 L322.2657,943.6356 L322.6563,937.8497 L323.0469,940.5498 L323.4375,940.9355 L323.8281,943.4427 L324.2188,946.5285 L324.6094,911.6206 L325,946.3356 L325.3906,795.7092 L325.7813,843.9256 L326.1719,881.5343 L326.5625,827.1463 L326.9531,828.1107 L327.3438,902.1704 L327.7344,870.1554 L328.125,805.9311 L328.5156,797.6378 L328.9063,933.7997 L329.2969,751.5429 L329.6875,783.7515 L330.0782,752.5073 L330.4688,844.6971 L330.8594,920.2994 L331.25,946.7214 L331.6406,752.7001 L332.0313,752.3144 L332.4219,935.7283 L332.8125,943.057 L333.2031,750 L333.5938,945.7571 L333.9844,947.4928 L334.375,872.084 L334.7656,752.3144 L335.1563,752.7001 L335.5469,752.893 L335.9375,947.8785 L336.3281,925.6995 L336.7188,947.4928 L337.1094,859.9335 L337.5,782.2086 L337.8907,928.9781 L338.2813,751.7358 L338.6719,946.7214 L339.0625,752.7001 L339.4531,753.0859 L339.8438,946.9142 L340.2344,938.814 L340.625,904.6776 L341.0156,943.6356 L341.4063,943.6356 L341.7969,945.5642 L342.1875,945.1785 L342.5781,944.5999 L342.9688,904.6776 L343.3594,947.8785 L343.75,771.7938 L344.1406,882.4986 L344.5313,945.3713 L344.9219,939.1998 L345.3125,943.2499 L345.7032,940.5498 L346.0938,751.7358 L346.4844,946.9142 L346.875,918.9493 L347.2656,752.7001 L347.6563,883.27 L348.0469,854.9189 L348.4375,948.4571 L348.8281,891.563 L349.2188,752.3144 L349.6094,943.2499 L350,751.7358 L350.3906,946.3356 L350.7813,946.1428 L351.1719,942.6713 L351.5625,946.7214 L351.9531,944.0213 L352.3438,753.0859 L352.7344,943.057 L353.125,946.3356 L353.5157,752.1215 L353.9063,751.5429 L354.2969,939.9712 L354.6875,942.6713 L355.0781,752.1215 L355.4688,752.1215 L355.8594,901.0132 L356.25,752.5073 L356.6406,942.4784 L357.0313,806.8954 L357.4219,921.0708 L357.8125,751.7358 L358.2031,943.4427 L358.5938,752.893 L358.9844,751.7358 L359.375,942.4784 L359.7656,947.4928 L360.1563,943.4427 L360.5469,908.7277 L360.9375,947.8785 L361.3282,930.521 L361.7188,751.1572 L362.1094,886.9344 L362.5,767.165 L362.8906,946.7214 L363.2813,943.057 L363.6719,934.3782 L364.0625,919.9136 L364.4531,753.2787 L364.8438,752.3144 L365.2344,944.5999 L365.625,751.9286 L366.0156,771.9867 L366.4063,889.0558 L366.7969,925.1209 L367.1875,810.367 L367.5781,906.0276 L367.9688,843.1542 L368.3594,931.6782 L368.75,752.893 L369.1407,943.4427 L369.5313,863.4051 L369.9219,750.9644 L370.3125,944.407 L370.7031,944.0213 L371.0938,751.9286 L371.4844,752.5073 L371.875,783.7515 L372.2656,920.4922 L372.6563,752.1215 L373.0469,798.4093 L373.4375,939.5855 L373.8281,752.1215 L374.2188,867.841 L374.6094,752.5073 L375,752.3144 L375.3906,941.3212 L375.7813,947.4928 L376.1719,939.7784 L376.5625,757.7147 L376.9532,752.3144 L377.3438,942.0927 L377.7344,758.8718 L378.125,752.893 L378.5156,763.5006 L378.9063,864.948 L379.2969,944.407 L379.6875,941.8998 L380.0781,752.1215 L380.4688,751.7358 L380.8594,864.948 L381.25,946.1428 L381.6406,947.4928 L382.0313,896.9632 L382.4219,943.057 L382.8125,752.3144 L383.2031,943.6356 L383.5938,941.1284 L383.9844,941.8998 L384.375,753.0859 L384.7657,751.5429 L385.1563,947.6857 L385.5469,937.8497 L385.9375,943.4427 L386.3281,947.8785 L386.7188,944.9856 L387.1094,752.5073 L387.5,949.0357 L387.8906,752.5073 L388.2813,750 L388.6719,938.6212 L389.0625,947.1071 L389.4531,946.5285 L389.8438,908.1491 L390.2344,752.1215 L390.625,780.087 L391.0156,912.7778 L391.4063,947.8785 L391.7969,944.5999 L392.1875,940.3569 L392.5782,912.7778 L392.9688,758.679 L393.3594,927.821 L393.75,947.1071 L394.1406,945.7571 L394.5313,913.5493 L394.9219,752.7001 L395.3125,941.8998 L395.7031,751.35 L396.0938,860.3192 L396.4844,945.5642 L396.875,943.057 L397.2656,941.707 L397.6563,943.2499 L398.0469,843.7327 L398.4375,944.5999 L398.8281,752.3144 L399.2188,755.5931 L399.6094,930.1353 L400,948.0714 L400.3907,752.7001 L400.7813,942.4784 L401.1719,884.8129 L401.5625,945.3713 L401.9531,753.0859 L402.3438,884.6201 L402.7344,885.0058 L403.125,751.9286 L403.5156,894.2631 L403.9063,751.9286 L404.2969,940.1641 L404.6875,945.7571 L405.0781,885.9701 L405.4688,945.3713 L405.8594,948.4571 L406.25,816.9244 L406.6406,853.376 L407.0313,944.0213 L407.4219,752.7001 L407.8125,752.7001 L408.2032,915.0921 L408.5938,752.7001 L408.9844,919.1422 L409.375,946.9142 L409.7656,939.7784 L410.1563,905.4491 L410.5469,946.7214 L410.9375,840.0683 L411.3281,910.6563 L411.7188,752.1215 L412.1094,803.4238 L412.5,943.2499 L412.8906,898.8918 L413.2813,947.6857 L413.6719,753.0859 L414.0625,947.2999 L414.4531,877.0984 L414.8438,809.2098 L415.2344,801.688 L415.625,751.9286 L416.0157,949.0357 L416.4063,753.0859 L416.7969,787.0302 L417.1875,944.9856 L417.5781,946.7214 L417.9688,945.9499 L418.3594,948.4571 L418.75,906.0276 L419.1406,946.7214 L419.5313,947.6857 L419.9219,941.5141 L420.3125,941.8998 L420.7031,943.8284 L421.0938,946.7214 L421.4844,752.3144 L421.875,752.1215 L422.2656,936.8854 L422.6563,752.5073 L423.0469,947.8785 L423.4375,947.6857 L423.8282,908.342 L424.2188,944.2142 L424.6094,752.3144 L425,752.3144 L425.3906,857.4262 L425.7813,835.0538 L426.1719,948.4571 L426.5625,946.3356 L426.9531,752.7001 L427.3438,935.7283 L427.7344,922.9995 L428.125,947.6857 L428.5156,755.5931 L428.9063,881.7272 L429.2969,791.4661 L429.6875,945.3713 L430.0781,752.3144 L430.4688,939.3926 L430.8594,752.3144 L431.25,891.3702 L431.6407,751.9286 L432.0313,834.861 L432.4219,764.4649 L432.8125,942.8641 L433.2031,942.2855 L433.5938,850.483 L433.9844,910.2706 L434.375,848.1686 L434.7656,755.5931 L435.1563,836.7896 L435.5469,941.707 L435.9375,752.7001 L436.3281,949.0357 L436.7188,941.5141 L437.1094,752.5073 L437.5,856.4619 L437.8906,887.513 L438.2813,751.35 L438.6719,890.9845 L439.0625,946.3356 L439.4532,862.8265 L439.8438,946.1428 L440.2344,751.7358 L440.625,818.8531 L441.0156,753.0859 L441.4063,751.7358 L441.7969,944.407 L442.1875,922.228 L442.5781,896.5775 L442.9688,943.2499 L443.3594,780.087 L443.75,918.9493 L444.1406,751.9286 L444.5313,751.7358 L444.9219,875.7485 L445.3125,946.3356 L445.7031,752.7001 L446.0938,751.9286 L446.4844,916.2493 L446.875,751.35 L447.2657,940.1641 L447.6563,752.7001 L448.0469,752.5073 L448.4375,945.1785 L448.8281,948.2642 L449.2188,943.057 L449.6094,868.0338 L450,945.1785 L450.3906,751.5429 L450.7813,869.7697 L451.1719,752.1215 L451.5625,752.5073 L451.9531,753.2787 L452.3438,947.4928 L452.7344,945.7571 L453.125,946.3356 L453.5156,821.9389 L453.9063,945.5642 L454.2969,944.9856 L454.6875,752.1215 L455.0782,933.2211 L455.4688,751.7358 L455.8594,948.65 L456.25,926.8566 L456.6406,946.1428 L457.0313,752.1215 L457.4219,898.6989 L457.8125,827.7249 L458.2031,897.3489 L458.5938,886.163 L458.9844,909.4991 L459.375,925.1209 L459.7656,940.7427 L460.1563,752.7001 L460.5469,786.6445 L460.9375,918.7565 L461.3281,902.3633 L461.7188,947.8785 L462.1094,946.7214 L462.5,825.2177 L462.8907,761.7648 L463.2813,811.3313 " stroke="blue" fill="none" />
<text x="50" y="1000" font-family="Arial" font-size="12" fill="black">Episode Length (1059)</text>
<text x="50" y="1015" font-family="Arial" font-size="10" fill="black">1048</text>
<text x="50" y="1230" font-family="Arial" font-size="10" fill="black">10</text>
<path d="M50,1220 L50.39063,1219.807 L50.78125,1219.807 L51.17188,1219.807 L51.5625,1219.807 L51.95313,1219.615 L52.34375,1219.615 L52.73438,1219.615 L53.125,1219.615 L53.51563,1219.615 L53.90625,1219.422 L54.29688,1219.422 L54.6875,1219.422 L55.07813,1219.422 L55.46875,1219.422 L55.85938,1219.422 L56.25,1219.422 L56.64063,1219.422 L57.03125,1219.422 L57.42188,1219.422 L57.8125,1219.422 L58.20313,1219.422 L58.59375,1219.422 L58.98438,1219.422 L59.375,1219.229 L59.76563,1219.229 L60.15625,1219.229 L60.54688,1219.229 L60.9375,1219.229 L61.32813,1219.229 L61.71875,1219.229 L62.10938,1219.229 L62.5,1219.229 L62.89063,1219.229 L63.28125,1219.037 L63.67188,1219.037 L64.0625,1219.037 L64.45313,1219.037 L64.84375,1219.037 L65.23438,1219.037 L65.625,1219.037 L66.01563,1219.037 L66.40625,1219.037 L66.79688,1218.844 L67.1875,1218.844 L67.57813,1218.844 L67.96875,1218.844 L68.35938,1218.844 L68.75,1218.844 L69.14063,1218.844 L69.53125,1218.844 L69.92188,1218.844 L70.3125,1218.844 L70.70313,1218.651 L71.09375,1218.651 L71.48438,1218.651 L71.875,1218.651 L72.26563,1218.651 L72.65625,1218.651 L73.04688,1218.266 L73.4375,1218.073 L73.82813,1218.073 L74.21875,1217.688 L74.60938,1217.495 L75,1217.88 L75.39063,1217.302 L75.78125,1216.532 L76.17188,1217.688 L76.5625,1216.146 L76.95313,1215.183 L77.34375,1215.376 L77.73438,1214.22 L78.125,1213.642 L78.51563,1213.834 L78.90625,1213.642 L79.29688,1212.486 L79.6875,1212.486 L80.07813,1216.917 L80.46875,1212.293 L80.85938,1212.293 L81.25,1209.403 L81.64063,1212.1 L82.03125,1200.732 L82.42188,1204.2 L82.8125,1189.942 L83.20313,1189.75 L83.59375,1189.75 L83.98438,1211.329 L84.375,1168.555 L84.76563,1163.16 L85.15625,1156.609 L85.54688,1152.37 L85.9375,1111.715 L86.32813,1104.2 L86.71875,1211.907 L87.10938,1100.925 L87.5,1217.688 L87.89063,1095.145 L88.28125,1088.401 L88.67188,1069.133 L89.0625,1067.206 L89.45313,1072.987 L89.84375,1058.15 L90.23438,1208.247 L90.625,1109.21 L91.01563,1054.297 L91.40625,1218.459 L91.79688,1057.958 L92.1875,1048.902 L92.57813,1181.079 L92.96875,1045.433 L93.35938,1044.663 L93.75,1052.948 L94.14063,1216.146 L94.53125,1042.736 L94.92188,1041.387 L95.3125,1216.339 L95.70313,1216.532 L96.09375,1210.944 L96.48438,1046.204 L96.875,1203.237 L97.26563,1022.698 L97.65625,1022.698 L98.04688,1022.89 L98.4375,1022.698 L98.82813,1022.505 L99.21875,1022.505 L99.60938,1022.698 L100,1022.89 L100.3906,1022.698 L100.7813,1022.312 L101.1719,1022.89 L101.5625,1022.698 L101.9531,1022.312 L102.3438,1022.119 L102.7344,1022.698 L103.125,1022.505 L103.5156,1022.89 L103.9063,1021.927 L104.2969,1021.927 L104.6875,1022.312 L105.0781,1022.119 L105.4688,1022.119 L105.8594,1021.734 L106.25,1021.734 L106.6406,1021.734 L107.0313,1218.266 L107.4219,1218.073 L107.8125,1022.312 L108.2031,1217.495 L108.5938,1218.266 L108.9844,1022.698 L109.375,1216.917 L109.7656,1216.724 L110.1563,1215.761 L110.5469,1218.073 L110.9375,1215.954 L111.3281,1215.183 L111.7188,1216.146 L112.1094,1215.376 L112.5,1215.568 L112.8906,1215.376 L113.2813,1214.412 L113.6719,1021.734 L114.0625,1021.927 L114.4531,1218.459 L114.8438,1215.376 L115.2344,1022.312 L115.625,1214.798 L116.0156,1022.312 L116.4063,1021.541 L116.7969,1022.119 L117.1875,1022.505 L117.5781,1218.651 L117.9688,1021.541 L118.3594,1216.532 L118.75,1216.917 L119.1406,1214.22 L119.5313,1215.954 L119.9219,1213.256 L120.3125,1218.073 L120.7031,1214.99 L121.0938,1217.88 L121.4844,1209.017 L121.875,1218.459 L122.2656,1218.844 L122.6563,1022.89 L123.0469,1213.449 L123.4375,1211.715 L123.8281,1214.027 L124.2188,1217.88 L124.6094,1209.017 L125,1211.329 L125.3906,1184.933 L125.7813,1217.495 L126.1719,1210.944 L126.5625,1208.632 L126.9531,1214.605 L127.3438,1215.761 L127.7344,1165.279 L128.125,1203.237 L128.5156,1021.927 L128.9063,1213.256 L129.2969,1209.595 L129.6875,1216.917 L130.0781,1217.88 L130.4688,1111.907 L130.8594,1212.1 L131.25,1202.081 L131.6406,1203.815 L132.0313,1195.723 L132.4219,1218.266 L132.8125,1022.698 L133.2031,1196.493 L133.5938,1207.669 L133.9844,1207.283 L134.375,1193.41 L134.7656,1021.927 L135.1563,1217.688 L135.5469,1022.698 L135.9375,1217.11 L136.3281,1177.611 L136.7188,1209.981 L137.1094,1217.11 L137.5,1155.067 L137.8906,1189.557 L138.2813,1217.88 L138.6719,1145.433 L139.0625,1168.748 L139.4531,1217.302 L139.8438,1219.422 L140.2344,1188.786 L140.625,1022.312 L141.0156,1215.376 L141.4063,1142.351 L141.7969,1214.605 L142.1875,1022.312 L142.5781,1154.489 L142.9688,1022.119 L143.3594,1195.145 L143.75,1217.88 L144.1406,1160.077 L144.5313,1076.262 L144.9219,1217.88 L145.3125,1215.568 L145.7031,1217.88 L146.0938,1206.127 L146.4844,1217.688 L146.875,1162.197 L147.2656,1168.362 L147.6563,1211.907 L148.0469,1060.462 L148.4375,1208.439 L148.8281,1214.412 L149.2188,1212.486 L149.6094,1145.241 L150,1141.773 L150.3906,1170.289 L150.7813,1045.626 L151.1719,1139.075 L151.5625,1215.568 L151.9531,1213.064 L152.3438,1120 L152.7344,1131.946 L153.125,1118.844 L153.5156,1209.21 L153.9063,1216.724 L154.2969,1207.091 L154.6875,1172.408 L155.0781,1214.798 L155.4688,1215.761 L155.8594,1217.688 L156.25,1097.264 L156.6406,1151.985 L157.0313,1131.175 L157.4219,1212.293 L157.8125,1099.961 L158.2031,1127.707 L158.5938,1217.688 L158.9844,1137.919 L159.375,1093.988 L159.7656,1170.674 L160.1563,1122.698 L160.5469,1154.875 L160.9375,1034.644 L161.3281,1089.557 L161.7188,1212.678 L162.1094,1096.301 L162.5,1217.688 L162.8906,1210.559 L163.2813,1213.834 L163.6719,1163.738 L164.0625,1077.996 L164.4531,1212.678 L164.8438,1129.441 L165.2344,1088.208 L165.625,1022.119 L166.0156,1214.605 L166.4063,1021.927 L166.7969,1022.119 L167.1875,1151.021 L167.5781,1218.266 L167.9688,1104.393 L168.3594,1217.302 L168.75,1212.293 L169.1406,1021.541 L169.5313,1022.89 L169.9219,1209.017 L170.3125,1215.954 L170.7031,1214.798 L171.0938,1203.815 L171.4844,1138.304 L171.875,1209.595 L172.2656,1216.917 L172.6563,1127.322 L173.0469,1076.647 L173.4375,1020.193 L173.8281,1022.698 L174.2188,1041.387 L174.6094,1207.091 L175,1212.293 L175.3906,1214.22 L175.7813,1213.642 L176.1719,1204.586 L176.5625,1022.119 L176.9531,1022.119 L177.3438,1177.611 L177.7344,1178.189 L178.125,1093.218 L178.5156,1020.578 L178.9063,1217.688 L179.2969,1218.459 L179.6875,1020 L180.0781,1158.921 L180.4688,1021.927 L180.8594,1200.347 L181.25,1021.927 L181.6406,1217.302 L182.0313,1022.119 L182.4219,1197.264 L182.8125,1217.302 L183.2031,1031.561 L183.5938,1020.385 L183.9844,1180.501 L184.375,1217.302 L184.7656,1211.907 L185.1563,1218.073 L185.5469,1218.844 L185.9375,1022.119 L186.3281,1211.329 L186.7188,1214.798 L187.1094,1210.751 L187.5,1215.376 L187.8906,1022.505 L188.2813,1216.724 L188.6719,1219.229 L189.0625,1022.119 L189.4531,1215.376 L189.8438,1136.763 L190.2344,1208.247 L190.625,1215.183 L191.0156,1214.605 L191.4063,1156.416 L191.7969,1215.376 L192.1875,1216.917 L192.5781,1020.771 L192.9688,1212.486 L193.3594,1022.505 L193.75,1211.907 L194.1406,1022.312 L194.5313,1216.917 L194.9219,1204.778 L195.3125,1218.073 L195.7031,1157.765 L196.0938,1211.715 L196.4844,1196.879 L196.875,1022.505 L197.2656,1216.146 L197.6563,1217.302 L198.0469,1214.412 L198.4375,1022.698 L198.8281,1022.89 L199.2188,1194.567 L199.6094,1022.698 L200,1215.761 L200.3906,1218.651 L200.7813,1066.243 L201.1719,1021.734 L201.5625,1211.907 L201.9531,1218.459 L202.3438,1208.054 L202.7344,1039.075 L203.125,1215.761 L203.5156,1020.963 L203.9063,1146.975 L204.2969,1212.486 L204.6875,1162.582 L205.0781,1216.917 L205.4688,1107.283 L205.8594,1144.47 L206.25,1151.792 L206.6406,1211.329 L207.0313,1215.183 L207.4219,1021.156 L207.8125,1022.312 L208.2031,1181.079 L208.5938,1218.266 L208.9844,1021.734 L209.375,1147.36 L209.7656,1219.422 L210.1563,1132.331 L210.5469,1192.447 L210.9375,1205.356 L211.3281,1128.863 L211.7188,1021.927 L212.1094,1149.094 L212.5,1218.459 L212.8906,1022.312 L213.2813,1021.349 L213.6719,1217.302 L214.0625,1216.724 L214.4531,1216.339 L214.8438,1140.039 L215.2344,1154.682 L215.625,1217.495 L216.0156,1198.035 L216.4063,1092.447 L216.7969,1029.634 L217.1875,1022.505 L217.5781,1107.091 L217.9688,1191.484 L218.3594,1056.994 L218.75,1022.119 L219.1406,1216.917 L219.5313,1216.724 L219.9219,1218.651 L220.3125,1020.963 L220.7031,1022.505 L221.0938,1056.224 L221.4844,1202.852 L221.875,1217.495 L222.2656,1192.062 L222.6563,1022.312 L223.0469,1022.312 L223.4375,1205.934 L223.8281,1212.1 L224.2188,1021.541 L224.6094,1215.376 L225,1219.229 L225.3906,1208.825 L225.7813,1066.628 L226.1719,1162.582 L226.5625,1215.568 L226.9531,1217.302 L227.3438,1217.302 L227.7344,1168.17 L228.125,1065.279 L228.5156,1022.119 L228.9063,1022.312 L229.2969,1079.152 L229.6875,1218.266 L230.0781,1196.686 L230.4688,1086.667 L230.8594,1067.592 L231.25,1209.981 L231.6406,1105.549 L232.0313,1209.21 L232.4219,1178.381 L232.8125,1153.719 L233.2031,1161.04 L233.5938,1216.532 L233.9844,1213.256 L234.375,1217.11 L234.7656,1040.231 L235.1563,1211.907 L235.5469,1217.302 L235.9375,1178.574 L236.3281,1020.963 L236.7188,1218.844 L237.1094,1023.083 L237.5,1022.312 L237.8906,1021.734 L238.2813,1154.682 L238.6719,1022.312 L239.0625,1216.917 L239.4531,1217.495 L239.8438,1194.374 L240.2344,1106.32 L240.625,1028.093 L241.0156,1060.848 L241.4063,1210.751 L241.7969,1209.21 L242.1875,1022.505 L242.5781,1029.056 L242.9688,1021.541 L243.3594,1217.11 L243.75,1170.096 L244.1406,1091.098 L244.5313,1021.156 L244.9219,1022.89 L245.3125,1021.156 L245.7031,1169.518 L246.0938,1218.459 L246.4844,1021.927 L246.875,1215.568 L247.2656,1215.183 L247.6563,1058.15 L248.0469,1165.087 L248.4375,1204.586 L248.8281,1134.836 L249.2188,1216.532 L249.6094,1216.724 L250,1211.522 L250.3906,1209.403 L250.7813,1023.661 L251.1719,1130.597 L251.5625,1022.89 L251.9531,1127.9 L252.3438,1217.688 L252.7344,1214.605 L253.125,1111.137 L253.5156,1209.21 L253.9063,1020.963 L254.2969,1021.156 L254.6875,1202.081 L255.0781,1179.923 L255.4688,1212.486 L255.8594,1132.524 L256.25,1021.734 L256.6406,1107.669 L257.0313,1045.048 L257.4219,1083.006 L257.8125,1207.091 L258.2031,1022.89 L258.5938,1212.486 L258.9844,1209.788 L259.375,1212.678 L259.7656,1023.276 L260.1563,1218.266 L260.5469,1215.761 L260.9375,1022.312 L261.3281,1086.474 L261.7188,1209.788 L262.1094,1214.798 L262.5,1110.366 L262.8906,1021.541 L263.2813,1217.688 L263.6719,1218.266 L264.0625,1215.568 L264.4531,1164.509 L264.8438,1022.505 L265.2344,1164.316 L265.625,1179.538 L266.0156,1209.403 L266.4063,1207.476 L266.7969,1218.651 L267.1875,1077.803 L267.5781,1216.146 L267.9688,1217.688 L268.3594,1111.715 L268.75,1021.734 L269.1406,1021.927 L269.5313,1201.888 L269.9219,1206.127 L270.3125,1214.99 L270.7031,1028.863 L271.0938,1110.173 L271.4844,1031.561 L271.875,1089.364 L272.2656,1215.954 L272.6563,1213.256 L273.0469,1056.802 L273.4375,1123.083 L273.8281,1216.724 L274.2188,1101.503 L274.6094,1191.291 L275,1216.146 L275.3906,1181.464 L275.7813,1208.054 L276.1719,1021.156 L276.5625,1021.734 L276.9531,1208.439 L277.3438,1180.694 L277.7344,1091.676 L278.125,1021.734 L278.5156,1161.04 L278.9063,1215.183 L279.2969,1075.877 L279.6875,1214.027 L280.0781,1022.505 L280.4688,1211.329 L280.8594,1133.102 L281.25,1022.89 L281.6406,1143.121 L282.0313,1219.037 L282.4219,1022.119 L282.8125,1213.256 L283.2031,1218.844 L283.5938,1217.688 L283.9844,1072.794 L284.375,1217.495 L284.7656,1023.276 L285.1563,1213.256 L285.5469,1021.156 L285.9375,1021.349 L286.3281,1218.844 L286.7188,1022.505 L287.1094,1021.927 L287.5,1191.291 L287.8906,1216.724 L288.2813,1022.505 L288.6719,1215.954 L289.0625,1216.532 L289.4531,1216.917 L289.8438,1215.568 L290.2344,1217.11 L290.625,1022.89 L291.0156,1022.312 L291.4063,1216.724 L291.7969,1034.836 L292.1875,1215.183 L292.5781,1218.073 L292.9688,1193.41 L293.3594,1148.324 L293.75,1209.788 L294.1406,1098.998 L294.5313,1144.47 L294.9219,1093.025 L295.3125,1060.848 L295.7031,1216.339 L296.0938,1217.495 L296.4844,1022.698 L296.875,1206.32 L297.2656,1217.88 L297.6563,1214.22 L298.0469,1166.821 L298.4375,1022.119 L298.8281,1214.99 L299.2188,1159.499 L299.6094,1172.216 L300,1216.146 L300.3906,1216.339 L300.7813,1146.397 L301.1719,1109.595 L301.5625,1144.663 L301.9531,1215.568 L302.3438,1022.505 L302.7344,1110.944 L303.125,1217.302 L303.5156,1121.156 L303.9063,1211.522 L304.2969,1169.326 L304.6875,1182.235 L305.0781,1180.886 L305.4688,1079.345 L305.8594,1188.015 L306.25,1216.724 L306.6407,1021.734 L307.0313,1020.963 L307.4219,1171.83 L307.8125,1022.505 L308.2031,1021.927 L308.5938,1212.486 L308.9844,1022.505 L309.375,1102.466 L309.7656,1216.917 L310.1563,1022.89 L310.5469,1022.312 L310.9375,1212.678 L311.3281,1218.073 L311.7188,1206.705 L312.1094,1214.605 L312.5,1177.033 L312.8906,1214.22 L313.2813,1149.094 L313.6719,1202.659 L314.0625,1022.312 L314.4532,1021.541 L314.8438,1022.505 L315.2344,1217.495 L315.625,1022.505 L316.0156,1022.119 L316.4063,1185.125 L316.7969,1021.156 L317.1875,1129.634 L317.5781,1217.88 L317.9688,1203.622 L318.3594,1021.156 L318.75,1213.449 L319.1406,1214.99 L319.5313,1146.012 L319.9219,1145.241 L320.3125,1218.459 L320.7031,1214.798 L321.0938,1123.276 L321.4844,1210.751 L321.875,1034.451 L322.2657,1213.449 L322.6563,1207.669 L323.0469,1210.366 L323.4375,1210.751 L323.8281,1213.256 L324.2188,1216.339 L324.6094,1181.464 L325,1216.146 L325.3906,1065.665 L325.7813,1113.834 L326.1719,1151.406 L326.5625,1097.071 L326.9531,1098.035 L327.3438,1172.023 L327.7344,1140.039 L328.125,1075.877 L328.5156,1067.592 L328.9063,1203.622 L329.2969,1021.541 L329.6875,1053.719 L330.0782,1022.505 L330.4688,1114.605 L330.8594,1190.135 L331.25,1216.532 L331.6406,1022.698 L332.0313,1022.312 L332.4219,1205.549 L332.8125,1212.871 L333.2031,1020 L333.5938,1215.568 L333.9844,1217.302 L334.375,1141.965 L334.7656,1022.312 L335.1563,1022.698 L335.5469,1022.89 L335.9375,1217.688 L336.3281,1195.53 L336.7188,1217.302 L337.1094,1129.827 L337.5,1052.177 L337.8907,1198.805 L338.2813,1021.734 L338.6719,1216.532 L339.0625,1022.698 L339.4531,1023.083 L339.8438,1216.724 L340.2344,1208.632 L340.625,1174.528 L341.0156,1213.449 L341.4063,1213.449 L341.7969,1215.376 L342.1875,1214.99 L342.5781,1214.412 L342.9688,1174.528 L343.3594,1217.688 L343.75,1041.773 L344.1406,1152.37 L344.5313,1215.183 L344.9219,1209.017 L345.3125,1213.064 L345.7032,1210.366 L346.0938,1021.734 L346.4844,1216.724 L346.875,1188.786 L347.2656,1022.698 L347.6563,1153.141 L348.0469,1124.817 L348.4375,1218.266 L348.8281,1161.426 L349.2188,1022.312 L349.6094,1213.064 L350,1021.734 L350.3906,1216.146 L350.7813,1215.954 L351.1719,1212.486 L351.5625,1216.532 L351.9531,1213.834 L352.3438,1023.083 L352.7344,1212.871 L353.125,1216.146 L353.5157,1022.119 L353.9063,1021.541 L354.2969,1209.788 L354.6875,1212.486 L355.0781,1022.119 L355.4688,1022.119 L355.8594,1170.867 L356.25,1022.505 L356.6406,1212.293 L357.0313,1076.84 L357.4219,1190.906 L357.8125,1021.734 L358.2031,1213.256 L358.5938,1022.89 L358.9844,1021.734 L359.375,1212.293 L359.7656,1217.302 L360.1563,1213.256 L360.5469,1178.574 L360.9375,1217.688 L361.3282,1200.347 L361.7188,1021.156 L362.1094,1156.802 L362.5,1037.148 L362.8906,1216.532 L363.2813,1212.871 L363.6719,1204.2 L364.0625,1189.75 L364.4531,1023.276 L364.8438,1022.312 L365.2344,1214.412 L365.625,1021.927 L366.0156,1041.965 L366.4063,1158.921 L366.7969,1194.952 L367.1875,1080.308 L367.5781,1175.877 L367.9688,1113.064 L368.3594,1201.503 L368.75,1022.89 L369.1407,1213.256 L369.5313,1133.295 L369.9219,1020.963 L370.3125,1214.22 L370.7031,1213.834 L371.0938,1021.927 L371.4844,1022.505 L371.875,1053.719 L372.2656,1190.328 L372.6563,1022.119 L373.0469,1068.362 L373.4375,1209.403 L373.8281,1022.119 L374.2188,1137.726 L374.6094,1022.505 L375,1022.312 L375.3906,1211.137 L375.7813,1217.302 L376.1719,1209.595 L376.5625,1027.707 L376.9532,1022.312 L377.3438,1211.907 L377.7344,1028.863 L378.125,1022.89 L378.5156,1033.487 L378.9063,1134.836 L379.2969,1214.22 L379.6875,1211.715 L380.0781,1022.119 L380.4688,1021.734 L380.8594,1134.836 L381.25,1215.954 L381.6406,1217.302 L382.0313,1166.821 L382.4219,1212.871 L382.8125,1022.312 L383.2031,1213.449 L383.5938,1210.944 L383.9844,1211.715 L384.375,1023.083 L384.7657,1021.541 L385.1563,1217.495 L385.5469,1207.669 L385.9375,1213.256 L386.3281,1217.688 L386.7188,1214.798 L387.1094,1022.505 L387.5,1218.844 L387.8906,1022.505 L388.2813,1020 L388.6719,1208.439 L389.0625,1216.917 L389.4531,1216.339 L389.8438,1177.996 L390.2344,1022.119 L390.625,1050.058 L391.0156,1182.62 L391.4063,1217.688 L391.7969,1214.412 L392.1875,1210.173 L392.5782,1182.62 L392.9688,1028.671 L393.3594,1197.649 L393.75,1216.917 L394.1406,1215.568 L394.5313,1183.391 L394.9219,1022.698 L395.3125,1211.715 L395.7031,1021.349 L396.0938,1130.212 L396.4844,1215.376 L396.875,1212.871 L397.2656,1211.522 L397.6563,1213.064 L398.0469,1113.642 L398.4375,1214.412 L398.8281,1022.312 L399.2188,1025.588 L399.6094,1199.961 L400,1217.88 L400.3907,1022.698 L400.7813,1212.293 L401.1719,1154.682 L401.5625,1215.183 L401.9531,1023.083 L402.3438,1154.489 L402.7344,1154.875 L403.125,1021.927 L403.5156,1164.123 L403.9063,1021.927 L404.2969,1209.981 L404.6875,1215.568 L405.0781,1155.838 L405.4688,1215.183 L405.8594,1218.266 L406.25,1086.859 L406.6406,1123.276 L407.0313,1213.834 L407.4219,1022.698 L407.8125,1022.698 L408.2032,1184.933 L408.5938,1022.698 L408.9844,1188.979 L409.375,1216.724 L409.7656,1209.595 L410.1563,1175.299 L410.5469,1216.532 L410.9375,1109.981 L411.3281,1180.501 L411.7188,1022.119 L412.1094,1073.372 L412.5,1213.064 L412.8906,1168.748 L413.2813,1217.495 L413.6719,1023.083 L414.0625,1217.11 L414.4531,1146.975 L414.8438,1079.152 L415.2344,1071.638 L415.625,1021.927 L416.0157,1218.844 L416.4063,1023.083 L416.7969,1056.994 L417.1875,1214.798 L417.5781,1216.532 L417.9688,1215.761 L418.3594,1218.266 L418.75,1175.877 L419.1406,1216.532 L419.5313,1217.495 L419.9219,1211.329 L420.3125,1211.715 L420.7031,1213.642 L421.0938,1216.532 L421.4844,1022.312 L421.875,1022.119 L422.2656,1206.705 L422.6563,1022.505 L423.0469,1217.688 L423.4375,1217.495 L423.8282,1178.189 L424.2188,1214.027 L424.6094,1022.312 L425,1022.312 L425.3906,1127.322 L425.7813,1104.971 L426.1719,1218.266 L426.5625,1216.146 L426.9531,1022.698 L427.3438,1205.549 L427.7344,1192.832 L428.125,1217.495 L428.5156,1025.588 L428.9063,1151.599 L429.2969,1061.426 L429.6875,1215.183 L430.0781,1022.312 L430.4688,1209.21 L430.8594,1022.312 L431.25,1161.233 L431.6407,1021.927 L432.0313,1104.778 L432.4219,1034.451 L432.8125,1212.678 L433.2031,1212.1 L433.5938,1120.385 L433.9844,1180.116 L434.375,1118.073 L434.7656,1025.588 L435.1563,1106.705 L435.5469,1211.522 L435.9375,1022.698 L436.3281,1218.844 L436.7188,1211.329 L437.1094,1022.505 L437.5,1126.358 L437.8906,1157.38 L438.2813,1021.349 L438.6719,1160.848 L439.0625,1216.146 L439.4532,1132.717 L439.8438,1215.954 L440.2344,1021.734 L440.625,1088.786 L441.0156,1023.083 L441.4063,1021.734 L441.7969,1214.22 L442.1875,1192.062 L442.5781,1166.435 L442.9688,1213.064 L443.3594,1050.058 L443.75,1188.786 L444.1406,1021.927 L444.5313,1021.734 L444.9219,1145.626 L445.3125,1216.146 L445.7031,1022.698 L446.0938,1021.927 L446.4844,1186.089 L446.875,1021.349 L447.2657,1209.981 L447.6563,1022.698 L448.0469,1022.505 L448.4375,1214.99 L448.8281,1218.073 L449.2188,1212.871 L449.6094,1137.919 L450,1214.99 L450.3906,1021.541 L450.7813,1139.653 L451.1719,1022.119 L451.5625,1022.505 L451.9531,1023.276 L452.3438,1217.302 L452.7344,1215.568 L453.125,1216.146 L453.5156,1091.869 L453.9063,1215.376 L454.2969,1214.798 L454.6875,1022.119 L455.0782,1203.044 L455.4688,1021.734 L455.8594,1218.459 L456.25,1196.686 L456.6406,1215.954 L457.0313,1022.119 L457.4219,1168.555 L457.8125,1097.649 L458.2031,1167.206 L458.5938,1156.031 L458.9844,1179.345 L459.375,1194.952 L459.7656,1210.559 L460.1563,1022.698 L460.5469,1056.609 L460.9375,1188.594 L461.3281,1172.216 L461.7188,1217.688 L462.1094,1216.532 L462.5,1095.145 L462.8907,1031.753 L463.2813,1081.272 " stroke="blue" fill="none" />
<text x="50" y="1270" font-family="Arial" font-size="12" fill="black">Policy Loss</text>
<text x="50" y="1285" font-family="Arial" font-size="10" fill="black">0.5502514</text>
<text x="50" y="1500" font-family="Arial" font-size="10" fill="black">0.366978</text>
<path d="M50,1397.714 L62.5,1490 L75,1488.992 L87.5,1290 L100,1375.384 L112.5,1395.346 L125,1365.11 L137.5,1428.713 L150,1386.94 L162.5,1444.543 L175,1399.014 L187.5,1393.528 L200,1370.448 L212.5,1408.349 L225,1394.2 L237.5,1422.003 L250,1435.838 L262.5,1369.341 L275,1420.89 L287.5,1397.069 L300,1435.167 L312.5,1432.722 " stroke="blue" fill="none" />
<text x="50" y="1540" font-family="Arial" font-size="12" fill="black">Value Loss</text>
<text x="50" y="1555" font-family="Arial" font-size="10" fill="black">0.00419949</text>
<text x="50" y="1770" font-family="Arial" font-size="10" fill="black">0.0002674279</text>
<path d="M50,1723.431 L62.5,1760 L75,1724.129 L87.5,1560 L100,1692.105 L112.5,1700.644 L125,1643.679 L137.5,1688.916 L150,1670.171 L162.5,1699.565 L175,1671.654 L187.5,1679.193 L200,1663.39 L212.5,1671.434 L225,1676.613 L237.5,1696.577 L250,1677.318 L262.5,1653.195 L275,1690.465 L287.5,1676.402 L300,1690.643 L312.5,1687.307 " stroke="blue" fill="none" />
<text x="50" y="1810" font-family="Arial" font-size="12" fill="black">Learning Rate</text>
<text x="50" y="1825" font-family="Arial" font-size="10" fill="black">0.0001</text>
<text x="50" y="2040" font-family="Arial" font-size="10" fill="black">0.0001</text>
<path d="M50,2030 L62.5,2030 L75,2030 L87.5,2030 L100,2030 L112.5,2030 L125,2030 L137.5,2030 L150,2030 L162.5,2030 L175,2030 L187.5,2030 L200,2030 L212.5,2030 L225,2030 L237.5,2030 L250,2030 L262.5,2030 L275,2030 L287.5,2030 L300,2030 L312.5,2030 " stroke="blue" fill="none" />
<text x="50" y="2080" font-family="Arial" font-size="12" fill="black">Entropy</text>
<text x="50" y="2095" font-family="Arial" font-size="10" fill="black">1.811321</text>
<text x="50" y="2310" font-family="Arial" font-size="10" fill="black">1.490002</text>
<path d="M50,2300 L62.5,2294.204 L75,2101.214 L87.5,2100.008 L100,2100 L112.5,2100 L125,2100 L137.5,2100 L150,2100 L162.5,2100 L175,2100 L187.5,2100 L200,2100 L212.5,2100 L225,2100 L237.5,2100 L250,2100 L262.5,2100 L275,2100 L287.5,2100 L300,2100 L312.5,2100 " stroke="blue" fill="none" />
<text x="750" y="730" font-family="Arial" font-size="12" fill="black">Simplified</text>
<text x="750" y="745" font-family="Arial" font-size="10" fill="black">4.11195</text>
<text x="750" y="960" font-family="Arial" font-size="10" fill="black">0.06478947</text>
<path d="M757.0313,950 L764.4531,949.5579 L771.875,949.0637 L779.2969,946.0466 L786.7188,906.8898 L794.1406,804.1132 L801.5625,752.9911 L808.9844,750 L816.4063,880.1776 L823.8281,892.8052 L831.25,916.0059 L838.6719,887.1614 L846.0938,877.5249 L853.5156,878.3315 L860.9375,870.9578 L868.3594,849.8379 L875.7813,857.6796 L883.2031,821.4093 L890.625,884.4692 L898.0469,882.5966 L905.4688,840.4743 L912.8906,845.8195 L920.3125,842.6201 L927.7344,862.1141 L935.1563,849.2006 L942.5781,815.4791 L950,845.026 L957.4219,823.4642 L964.8438,859.3961 L972.2656,853.9473 L979.6875,852.2307 L987.1094,820.9541 L994.5313,873.6754 L1001.953,873.3765 L1009.375,823.6463 L1016.797,830.0964 L1024.219,895.8096 L1031.641,818.7957 L1039.063,829.004 L1046.484,895.9135 L1053.906,850.683 L1061.328,848.121 L1068.75,824.5566 L1076.172,818.9384 L1083.594,827.0143 L1091.016,849.9156 L1098.438,886.9272 L1105.859,845.8843 L1113.281,848.8235 L1120.703,869.1627 L1128.125,848.6932 L1135.547,818.3013 L1142.969,833.829 L1150.391,815.2451 L1157.813,840.4222 L1163.281,850.9916 " stroke="blue" fill="none" />
<text x="750" y="1000" font-family="Arial" font-size="12" fill="black">Simplified</text>
<text x="750" y="1015" font-family="Arial" font-size="10" fill="black">822.5789</text>
<text x="750" y="1230" font-family="Arial" font-size="10" fill="black">12.1579</text>
<path d="M757.0313,1220 L764.4531,1219.558 L771.875,1219.065 L779.2969,1215.87 L786.7188,1176.696 L794.1406,1074.046 L801.5625,1022.987 L808.9844,1020 L816.4063,1150.017 L823.8281,1162.629 L831.25,1185.801 L838.6719,1156.992 L846.0938,1147.367 L853.5156,1148.172 L860.9375,1140.808 L868.3594,1119.714 L875.7813,1127.546 L883.2031,1091.321 L890.625,1154.303 L898.0469,1152.433 L905.4688,1110.362 L912.8906,1115.701 L920.3125,1112.505 L927.7344,1131.976 L935.1563,1119.078 L942.5781,1085.398 L950,1114.908 L957.4219,1093.373 L964.8438,1129.261 L972.2656,1123.819 L979.6875,1122.104 L987.1094,1090.866 L994.5313,1143.523 L1001.953,1143.224 L1009.375,1093.555 L1016.797,1099.997 L1024.219,1165.629 L1031.641,1088.71 L1039.063,1098.906 L1046.484,1165.733 L1053.906,1120.558 L1061.328,1118 L1068.75,1094.464 L1076.172,1088.853 L1083.594,1096.919 L1091.016,1119.792 L1098.438,1156.758 L1105.859,1115.766 L1113.281,1118.701 L1120.703,1139.016 L1128.125,1118.571 L1135.547,1088.217 L1142.969,1103.725 L1150.391,1085.164 L1157.813,1110.31 L1163.281,1120.867 " stroke="blue" fill="none" />
</svg>
