<svg width="2000" height="2500" xmlns="http://www.w3.org/2000/svg">
<text x="10" y="20" font-family="Arial" font-size="26" fill="black"> [<tspan font-weight="bold" fill="blue">Crawler</tspan>] Training Session</text>
<text x="10" y="50" font-family="Arial" font-size="16" fill="black">[Statistics]</text>
<text x="50" y="70" font-family="Arial" font-size="12" fill="black">Started at: 9:28:31 AM, Sunday, March 15, 2026</text>
<text x="50" y="90" font-family="Arial" font-size="12" fill="black">Finished at: 9:30:03 AM, Sunday, March 15, 2026</text>
<text x="50" y="110" font-family="Arial" font-size="12" fill="black">Training Session Time: 0 hrs : 0 min : 29.37 sec</text>
<text x="50" y="130" font-family="Arial" font-size="12" fill="black">Inference Time: 0 hrs : 18 min : 37 sec        [Device: CPU]</text>
<text x="50" y="150" font-family="Arial" font-size="12" fill="black">Update Time: 0 hrs : 0 min : 13.00 sec        [Per iteration: 0 hrs : 0 min : 12.03 sec]        [Device: GPU]</text>
<text x="50" y="170" font-family="Arial" font-size="12" fill="black">Episode Count: 2016</text>
<text x="50" y="190" font-family="Arial" font-size="12" fill="black">Inference Steps: 8192</text>
<text x="50" y="210" font-family="Arial" font-size="12" fill="black">Iterations: 1</text>
<text x="50" y="230" font-family="Arial" font-size="12" fill="black">Parallel Agents: 128</text>
<text x="50" y="250" font-family="Arial" font-size="12" fill="black">Timescale: 1</text>
<text x="50" y="270" font-family="Arial" font-size="12" fill="black">Trainer: PPO</text>
<text x="10" y="320" font-family="Arial" font-size="16" fill="black">[Hyperparameters]</text>
<text x="50" y="340" font-family="Arial" font-size="12" fill="black">Buffer Size: 8192        [Batch Size: 256       (x32)]</text>
<text x="50" y="360" font-family="Arial" font-size="12" fill="black">Num Epoch: 8</text>
<text x="50" y="380" font-family="Arial" font-size="12" fill="black">Time Horizon: -1</text>
<text x="50" y="400" font-family="Arial" font-size="12" fill="black">Gradient Cliping by Norm: 0.5</text>
<text x="50" y="420" font-family="Arial" font-size="12" fill="black">Learning Rate Schedule: False    </text>
<text x="10" y="470" font-family="Arial" font-size="16" fill="black">[Behaviour]</text>
<text x="50" y="490" font-family="Arial" font-size="12" fill="black">Space Size: 94</text>
<text x="50" y="510" font-family="Arial" font-size="12" fill="black">Continuous Actions: 20 [Standard Deviation: FixedStandardDeviation]     [Value: 2]</text>
<text x="50" y="530" font-family="Arial" font-size="12" fill="black">Discrete Actions: 0</text>
<text x="50" y="550" font-family="Arial" font-size="12" fill="black">TargetFPS: 50 (physics update rate)</text>
<text x="50" y="570" font-family="Arial" font-size="12" fill="black">Observations Normalization: True</text>
<text x="10" y="620" font-family="Arial" font-size="16" fill="black">[Decision Requester]</text>
<text x="50" y="640" font-family="Arial" font-size="12" fill="black">Max Step: 10000</text>
<text x="50" y="660" font-family="Arial" font-size="12" fill="black">Decision Period: 5      [Actions Between Decisions: True]</text>
<text x="10" y="710" font-family="Arial" font-size="16" fill="black">[Graphs]</text>
<text x="50" y="730" font-family="Arial" font-size="12" fill="black">Episode Reward (2016)</text>
<text x="50" y="745" font-family="Arial" font-size="10" fill="black">0.1114647</text>
<text x="50" y="960" font-family="Arial" font-size="10" fill="black">-0.03611006</text>
<path d="M50,901.9376 L50.19531,891.722 L50.39063,894.7313 L50.58594,907.5682 L50.78125,914.2065 L50.97656,911.308 L51.17188,888.2103 L51.36719,885.2549 L51.5625,886.2233 L51.75781,888.951 L51.95313,904.6548 L52.14844,879.6544 L52.34375,893.3315 L52.53906,891.7814 L52.73438,878.6057 L52.92969,890.1254 L53.125,880.3686 L53.32031,882.0631 L53.51563,890.0664 L53.71094,895.1823 L53.90625,875.1105 L54.10156,884.6526 L54.29688,888.9569 L54.49219,903.0814 L54.6875,887.6922 L54.88281,881.1616 L55.07813,877.1177 L55.27344,872.9195 L55.46875,877.5876 L55.66406,884.26 L55.85938,885.0451 L56.05469,867.2231 L56.25,895.0331 L56.44531,879.7195 L56.64063,863.5919 L56.83594,887.8577 L57.03125,904.4351 L57.22656,878.5931 L57.42188,870.1986 L57.61719,862.0114 L57.8125,878.1512 L58.00781,864.6572 L58.20313,886.4084 L58.39844,877.0155 L58.59375,879.6091 L58.78906,872.2426 L58.98438,889.6473 L59.17969,859.6697 L59.375,864.9775 L59.57031,868.476 L59.76563,861.8217 L59.96094,873.6761 L60.15625,850.2519 L60.35156,872.4921 L60.54688,848.494 L60.74219,864.3192 L60.9375,859.0918 L61.13281,857.4804 L61.32813,862.8497 L61.52344,859.8038 L61.71875,873.5067 L61.91406,871.9734 L62.10938,872.4763 L62.30469,886.5039 L62.5,852.7441 L62.69531,873.1732 L62.89063,852.0062 L63.08594,879.4612 L63.28125,866.3275 L63.47656,910.0493 L63.67188,892.4236 L63.86719,884.6879 L64.0625,905.0318 L64.25781,886.6182 L64.45313,839.687 L64.64844,857.8466 L64.84375,858.0146 L65.03906,866.7173 L65.23438,878.3826 L65.42969,854.0362 L65.625,861.6303 L65.82031,867.3707 L66.01563,877.8408 L66.21094,884.5063 L66.40625,862.5366 L66.60156,878.5272 L66.79688,848.8379 L66.99219,863.437 L67.1875,875.3596 L67.38281,874.0214 L67.57813,884.5074 L67.77344,855.2558 L67.96875,845.0037 L68.16406,866.6569 L68.35938,867.311 L68.55469,860.6513 L68.75,889.0945 L68.94531,881.524 L69.14063,862.3292 L69.33594,896.0469 L69.53125,871.12 L69.72656,881.7137 L69.92188,876.0557 L70.11719,887.1379 L70.3125,882.3253 L70.50781,888.1307 L70.70313,841.8748 L70.89844,877.1124 L71.09375,881.3801 L71.28906,839.7415 L71.48438,845.5964 L71.67969,874.568 L71.875,848.5454 L72.07031,848.5719 L72.26563,872.0419 L72.46094,835.5775 L72.65625,865.2324 L72.85156,892.4216 L73.04688,880.4086 L73.24219,896.2772 L73.4375,864.5613 L73.63281,869.5383 L73.82813,884.5185 L74.02344,872.3033 L74.21875,859.972 L74.41406,862.814 L74.60938,887.1308 L74.80469,883.2236 L75,871.1934 L75.19531,875.2321 L75.39063,879.8746 L75.58594,885.3806 L75.78125,848.3896 L75.97656,853.3734 L76.17188,841.6885 L76.36719,856.6339 L76.5625,840.1202 L76.75781,872.6537 L76.95313,842.6995 L77.14844,875.7368 L77.34375,850.473 L77.53906,859.0833 L77.73438,898.6537 L77.92969,884.2978 L78.125,845.8458 L78.32031,886.7549 L78.51563,858.4678 L78.71094,882.3062 L78.90625,862.7842 L79.10156,887.014 L79.29688,851.1334 L79.49219,892.4537 L79.6875,883.7488 L79.88281,856.3259 L80.07813,849.4509 L80.27344,868.0928 L80.46875,846.444 L80.66406,861.2213 L80.85938,890.6487 L81.05469,885.0109 L81.25,851.9395 L81.44531,874.2453 L81.64063,852.467 L81.83594,879.6013 L82.03125,858.2301 L82.22656,860.4069 L82.42188,824.87 L82.61719,887.5561 L82.8125,872.2614 L83.00781,849.7693 L83.20313,875.7219 L83.39844,873.1741 L83.59375,888.1232 L83.78906,877.9176 L83.98438,855.1057 L84.17969,874.8342 L84.375,895.134 L84.57031,856.27 L84.76563,873.2547 L84.96094,860.1232 L85.15625,860.0439 L85.35156,857.0256 L85.54688,850.0844 L85.74219,854.8983 L85.9375,882.0457 L86.13281,902.2288 L86.32813,893.21 L86.52344,902.5662 L86.71875,887.2888 L86.91406,877.8588 L87.10938,886.6659 L87.30469,853.9372 L87.5,879.5991 L87.69531,842.6251 L87.89063,925.5809 L88.08594,850.6534 L88.28125,847.173 L88.47656,887.5598 L88.67188,908.65 L88.86719,863.5378 L89.0625,874.4041 L89.25781,849.7269 L89.45313,850.4089 L89.64844,884.6348 L89.84375,924.467 L90.03906,848.8845 L90.23438,886.7097 L90.42969,878.048 L90.625,883.4119 L90.82031,876.3093 L91.01563,896.9033 L91.21094,848.8846 L91.40625,872.246 L91.60156,879.4031 L91.79688,843.366 L91.99219,898.2064 L92.1875,874.3892 L92.38281,870.6599 L92.57813,875.438 L92.77344,872.1415 L92.96875,881.603 L93.16406,860.1679 L93.35938,838.5007 L93.55469,851.4181 L93.75,867.9888 L93.94531,845.8964 L94.14063,851.9945 L94.33594,858.7966 L94.53125,871.1403 L94.72656,868.8227 L94.92188,888.6202 L95.11719,829.6593 L95.3125,822.4359 L95.50781,850.502 L95.70313,863.887 L95.89844,874.5096 L96.09375,872.5369 L96.28906,883.8 L96.48438,865.4247 L96.67969,880.9163 L96.875,870.7904 L97.07031,849.832 L97.26563,854.3969 L97.46094,845.1049 L97.65625,860.3547 L97.85156,839.3151 L98.04688,912.3912 L98.24219,854.7227 L98.4375,864.4011 L98.63281,866.0012 L98.82813,852.9016 L99.02344,805.8688 L99.21875,891.2258 L99.41406,861.9794 L99.60938,861.2157 L99.80469,864.2355 L100,862.721 L100.1953,845.6704 L100.3906,880.127 L100.5859,839.3942 L100.7813,870.7895 L100.9766,882.6317 L101.1719,866.6242 L101.3672,857.4783 L101.5625,849.3217 L101.7578,888.5217 L101.9531,900.624 L102.1484,825.7902 L102.3438,885.7294 L102.5391,879.5054 L102.7344,859.8045 L102.9297,849.8638 L103.125,897.2282 L103.3203,870.0973 L103.5156,866.2264 L103.7109,834.3918 L103.9063,879.569 L104.1016,861.931 L104.2969,815.0413 L104.4922,890.0238 L104.6875,874.89 L104.8828,867.3524 L105.0781,888.7308 L105.2734,871.1987 L105.4688,908.5342 L105.6641,903.5617 L105.8594,869.957 L106.0547,877.353 L106.25,866.9892 L106.4453,857.9596 L106.6406,894.1161 L106.8359,869.0079 L107.0313,890.3795 L107.2266,891.9602 L107.4219,885.7405 L107.6172,878.2427 L107.8125,886.816 L108.0078,835.5297 L108.2031,884.9868 L108.3984,875.788 L108.5938,898.5669 L108.7891,853.9954 L108.9844,888.2687 L109.1797,852.3039 L109.375,821.2794 L109.5703,822.3572 L109.7656,928.686 L109.9609,854.0328 L110.1563,869.2958 L110.3516,900.8005 L110.5469,867.2034 L110.7422,897.4811 L110.9375,895.0511 L111.1328,862.0806 L111.3281,869.9577 L111.5234,840.8107 L111.7188,853.7598 L111.9141,839.3035 L112.1094,869.4175 L112.3047,885.9949 L112.5,860.865 L112.6953,865.426 L112.8906,888.9033 L113.0859,828.3954 L113.2813,894.8456 L113.4766,854.1436 L113.6719,865.6699 L113.8672,850.9496 L114.0625,862.4536 L114.2578,877.3058 L114.4531,848.7505 L114.6484,848.653 L114.8438,823.159 L115.0391,903.0294 L115.2344,892.5906 L115.4297,859.48 L115.625,879.2232 L115.8203,867.9724 L116.0156,896.9796 L116.2109,883.6436 L116.4063,819.1447 L116.6016,833.4255 L116.7969,885.8345 L116.9922,860.7686 L117.1875,858.6174 L117.3828,887.3008 L117.5781,859.7481 L117.7734,862.1628 L117.9688,852.3942 L118.1641,849.3375 L118.3594,907.1508 L118.5547,871.2328 L118.75,750 L118.9453,898.3712 L119.1406,880.3616 L119.3359,886.5247 L119.5313,883.4278 L119.7266,859.0038 L119.9219,867.3801 L120.1172,888.9838 L120.3125,869.8872 L120.5078,866.0479 L120.7031,867.6357 L120.8984,890.2381 L121.0938,865.8726 L121.2891,880.2175 L121.4844,867.1755 L121.6797,862.4242 L121.875,832.2571 L122.0703,905.489 L122.2656,885.0677 L122.4609,861.5222 L122.6563,823.5958 L122.8516,865.5074 L123.0469,846.5342 L123.2422,876.3654 L123.4375,897.9138 L123.6328,876.8498 L123.8281,882.7576 L124.0234,844.9266 L124.2188,841.3281 L124.4141,858.862 L124.6094,883.4711 L124.8047,851.9572 L125,838.3603 L125.1953,889.5692 L125.3906,855.0034 L125.5859,849.1755 L125.7813,857.8173 L125.9766,884.1442 L126.1719,856.75 L126.3672,863.5788 L126.5625,850.4966 L126.7578,852.1341 L126.9531,865.8372 L127.1484,912.8586 L127.3438,864.9268 L127.5391,870.2114 L127.7344,863.8069 L127.9297,828.6675 L128.125,865.8058 L128.3203,839.1763 L128.5156,880.0361 L128.7109,885.5019 L128.9063,864.574 L129.1016,889.2982 L129.2969,867.4465 L129.4922,885.1096 L129.6875,864.767 L129.8828,861.0059 L130.0781,883.363 L130.2734,883.3879 L130.4688,885.5571 L130.6641,864.4475 L130.8594,890.2385 L131.0547,851.2134 L131.25,805.9313 L131.4453,836.405 L131.6406,894.0009 L131.8359,867.1027 L132.0313,876.694 L132.2266,847.5571 L132.4219,859.0965 L132.6172,880.145 L132.8125,849.4875 L133.0078,831.3975 L133.2031,889.082 L133.3984,874.6071 L133.5938,900.9208 L133.7891,887.7042 L133.9844,858.8574 L134.1797,850.4326 L134.375,889.018 L134.5703,867.6247 L134.7656,861.0069 L134.9609,853.2244 L135.1563,839.4533 L135.3516,856.7415 L135.5469,857.2488 L135.7422,883.8231 L135.9375,876.0752 L136.1328,881.5469 L136.3281,839.8114 L136.5234,868.2004 L136.7188,884.415 L136.9141,872.869 L137.1094,867.51 L137.3047,855.0113 L137.5,862.4167 L137.6953,814.3624 L137.8906,882.1583 L138.0859,887.5047 L138.2813,830.6425 L138.4766,867.2119 L138.6719,873.2806 L138.8672,886.1569 L139.0625,889.0856 L139.2578,898.3297 L139.4531,860.4368 L139.6484,838.5931 L139.8438,826.1964 L140.0391,852.0232 L140.2344,860.5154 L140.4297,852.6075 L140.625,880.4262 L140.8203,873.7704 L141.0156,873.7352 L141.2109,868.8856 L141.4063,880.1924 L141.6016,862.5093 L141.7969,870.7697 L141.9922,840.1249 L142.1875,843.813 L142.3828,881.8425 L142.5781,886.204 L142.7734,888.619 L142.9688,854.7497 L143.1641,895.4575 L143.3594,851.5423 L143.5547,861.1653 L143.75,888.269 L143.9453,894.9939 L144.1406,848.5266 L144.3359,872.8993 L144.5313,867.9048 L144.7266,882.7736 L144.9219,837.5145 L145.1172,861.0691 L145.3125,874.1055 L145.5078,880.5208 L145.7031,854.0168 L145.8984,896.791 L146.0938,886.3945 L146.2891,875.423 L146.4844,858.2384 L146.6797,882.9421 L146.875,882.1783 L147.0703,834.905 L147.2656,867.3124 L147.4609,838.887 L147.6563,898.8149 L147.8516,880.7436 L148.0469,865.1002 L148.2422,885.7269 L148.4375,885.1795 L148.6328,875.399 L148.8281,877.0007 L149.0234,886.28 L149.2188,909.8426 L149.4141,865.5831 L149.6094,882.6098 L149.8047,875.7032 L150,846.5032 L150.1953,871.7847 L150.3906,899.1681 L150.5859,873.0102 L150.7813,859.7549 L150.9766,858.4353 L151.1719,842.1283 L151.3672,860.9062 L151.5625,870.3912 L151.7578,855.4647 L151.9531,866.547 L152.1484,879.8424 L152.3438,864.139 L152.5391,865.7524 L152.7344,860.8533 L152.9297,858.5565 L153.125,866.3729 L153.3203,898.6407 L153.5156,890.4834 L153.7109,856.7925 L153.9063,893.2427 L154.1016,854.3046 L154.2969,867.6394 L154.4922,859.2238 L154.6875,899.6858 L154.8828,860.521 L155.0781,888.8976 L155.2734,854.0494 L155.4688,853.4792 L155.6641,878.1577 L155.8594,847.3839 L156.0547,883.1058 L156.25,867.8615 L156.4453,857.8538 L156.6406,811.4468 L156.8359,871.0726 L157.0313,880.1047 L157.2266,887.7336 L157.4219,864.4766 L157.6172,871.9647 L157.8125,875.3672 L158.0078,850.5662 L158.2031,876.5221 L158.3984,882.0305 L158.5938,883.0453 L158.7891,852.2361 L158.9844,865.8973 L159.1797,857.3797 L159.375,891.9683 L159.5703,895.3265 L159.7656,853.5721 L159.9609,840.2677 L160.1563,834.2921 L160.3516,853.6291 L160.5469,861.4948 L160.7422,894.3622 L160.9375,879.4499 L161.1328,866.602 L161.3281,864.2374 L161.5234,865.9627 L161.7188,877.2185 L161.9141,887.3151 L162.1094,899.2825 L162.3047,896.0414 L162.5,851.0435 L162.6953,883.543 L162.8906,911.0994 L163.0859,884.0607 L163.2813,874.4304 L163.4766,882.521 L163.6719,863.668 L163.8672,902.4031 L164.0625,833.9973 L164.2578,874.1279 L164.4531,886.8281 L164.6484,854.3074 L164.8438,850.358 L165.0391,869.5841 L165.2344,869.7299 L165.4297,885.8694 L165.625,895.4612 L165.8203,871.9614 L166.0156,868.1007 L166.2109,882.0791 L166.4063,883.1018 L166.6016,827.2611 L166.7969,863.8066 L166.9922,876.5769 L167.1875,865.0002 L167.3828,882.0846 L167.5781,875.0067 L167.7734,869.4226 L167.9688,887.6272 L168.1641,850.9402 L168.3594,875.7352 L168.5547,850.6082 L168.75,864.5718 L168.9453,873.5278 L169.1406,854.3137 L169.3359,832.6921 L169.5313,856.5237 L169.7266,855.2336 L169.9219,870.0619 L170.1172,867.5165 L170.3125,877.179 L170.5078,879.895 L170.7031,846.6906 L170.8984,855.4157 L171.0938,831.4189 L171.2891,879.8616 L171.4844,894.1456 L171.6797,874.5073 L171.875,885.9547 L172.0703,875.12 L172.2656,885.0536 L172.4609,862.4216 L172.6563,898.1317 L172.8516,883.4302 L173.0469,876.9172 L173.2422,858.575 L173.4375,879.6665 L173.6328,881.6874 L173.8281,882.8656 L174.0234,855.46 L174.2188,878.9047 L174.4141,898.4992 L174.6094,883.287 L174.8047,876.4954 L175,878.5743 L175.1953,888.3674 L175.3906,870.0248 L175.5859,876.4933 L175.7813,859.0085 L175.9766,847.6605 L176.1719,862.9178 L176.3672,860.9531 L176.5625,879.4324 L176.7578,856.3584 L176.9531,870.0836 L177.1484,882.548 L177.3438,890.6398 L177.5391,853.5203 L177.7344,881.4987 L177.9297,869.9567 L178.125,889.736 L178.3203,853.7173 L178.5156,817.4537 L178.7109,893.0689 L178.9063,886.8194 L179.1016,855.6323 L179.2969,874.8505 L179.4922,841.3397 L179.6875,864.4653 L179.8828,886.7895 L180.0781,876.2003 L180.2735,874.3152 L180.4688,844.6808 L180.6641,891.9809 L180.8594,882.0948 L181.0547,874.7481 L181.25,890.0524 L181.4453,871.7725 L181.6406,871.9894 L181.8359,833.7411 L182.0313,871.4838 L182.2266,832.7114 L182.4219,874.4663 L182.6172,864.1882 L182.8125,892.6516 L183.0078,910.2093 L183.2031,860.8786 L183.3984,877.1945 L183.5938,861.3146 L183.7891,879.2767 L183.9844,863.2368 L184.1797,895.9562 L184.375,857.282 L184.5703,893.4066 L184.7656,849.89 L184.9609,865.4641 L185.1563,886.6345 L185.3516,852.5918 L185.5469,878.7631 L185.7422,859.9021 L185.9375,851.4997 L186.1328,898.5782 L186.3281,854.8271 L186.5234,857.3487 L186.7188,867.8077 L186.9141,863.6132 L187.1094,858.6759 L187.3047,841.6246 L187.5,856.3405 L187.6953,876.8966 L187.8906,837.7067 L188.086,845.1304 L188.2813,891.744 L188.4766,864.2684 L188.6719,879.6564 L188.8672,891.4775 L189.0625,882.691 L189.2578,863.2321 L189.4531,899.7617 L189.6484,846.8452 L189.8438,883.4877 L190.0391,890.8095 L190.2344,854.7774 L190.4297,841.7034 L190.625,865.9965 L190.8203,893.5092 L191.0156,863.2979 L191.2109,879.7779 L191.4063,868.4535 L191.6016,884.5641 L191.7969,864.4908 L191.9922,857.9324 L192.1875,880.0389 L192.3828,895.2924 L192.5781,849.6738 L192.7734,869.0776 L192.9688,839.695 L193.1641,853.4416 L193.3594,835.5616 L193.5547,805.9901 L193.75,879.3727 L193.9453,881.936 L194.1406,884.5983 L194.3359,875.6826 L194.5313,880.4193 L194.7266,877.8307 L194.9219,869.9925 L195.1172,882.624 L195.3125,867.517 L195.5078,866.7358 L195.7031,876.6216 L195.8985,858.4108 L196.0938,838.9724 L196.2891,877.3616 L196.4844,892.8123 L196.6797,900.0915 L196.875,846.3632 L197.0703,835.387 L197.2656,861.5028 L197.4609,836.2062 L197.6563,836.6142 L197.8516,869.6934 L198.0469,843.6029 L198.2422,857.8666 L198.4375,871.2698 L198.6328,893.6517 L198.8281,885.1472 L199.0234,861.6928 L199.2188,894.9249 L199.4141,861.1389 L199.6094,857.4323 L199.8047,875.6888 L200,845.0734 L200.1953,854.9246 L200.3906,871.671 L200.5859,769.6819 L200.7813,889.0187 L200.9766,883.0163 L201.1719,889.7648 L201.3672,873.3749 L201.5625,865.5578 L201.7578,833.3102 L201.9531,875.1098 L202.1484,893.9931 L202.3438,848.6783 L202.5391,893.5803 L202.7344,868.7209 L202.9297,854.5612 L203.125,865.9495 L203.3203,903.5762 L203.5156,885.0387 L203.711,837.4781 L203.9063,881.1321 L204.1016,895.8658 L204.2969,898.8466 L204.4922,851.5313 L204.6875,865.267 L204.8828,869.6066 L205.0781,868.7928 L205.2734,843.0266 L205.4688,894.9286 L205.6641,837.9788 L205.8594,867.1635 L206.0547,872.3984 L206.25,869.2556 L206.4453,896.3071 L206.6406,852.7637 L206.8359,850.733 L207.0313,870.1712 L207.2266,879.5217 L207.4219,858.3793 L207.6172,861.809 L207.8125,874.7073 L208.0078,868.7322 L208.2031,884.527 L208.3984,893.0948 L208.5938,859.1855 L208.7891,877.0358 L208.9844,873.8147 L209.1797,907.0458 L209.375,878.0377 L209.5703,887.8652 L209.7656,931.9026 L209.9609,859.5825 L210.1563,860.9347 L210.3516,826.5844 L210.5469,858.4985 L210.7422,877.8509 L210.9375,847.517 L211.1328,850.7158 L211.3281,863.4269 L211.5235,855.7596 L211.7188,887.4425 L211.9141,878.6257 L212.1094,872.4727 L212.3047,857.8636 L212.5,871.7029 L212.6953,871.5811 L212.8906,866.0399 L213.0859,849.0945 L213.2813,855.5854 L213.4766,853.599 L213.6719,859.5905 L213.8672,882.1977 L214.0625,869.2001 L214.2578,888.168 L214.4531,861.7816 L214.6484,869.037 L214.8438,848.967 L215.0391,818.2933 L215.2344,859.6555 L215.4297,877.2714 L215.625,881.6734 L215.8203,858.1588 L216.0156,816.7321 L216.2109,867.3988 L216.4063,900.3665 L216.6016,890.8865 L216.7969,871.5706 L216.9922,848.0916 L217.1875,840.6733 L217.3828,856.4556 L217.5781,884.4897 L217.7734,888.2523 L217.9688,873.8315 L218.1641,848.907 L218.3594,858.5229 L218.5547,837.7761 L218.75,862.2025 L218.9453,844.9753 L219.1406,875.6705 L219.336,855.9991 L219.5313,833.56 L219.7266,884.5555 L219.9219,867.7053 L220.1172,859.3012 L220.3125,882.547 L220.5078,879.9273 L220.7031,886.0036 L220.8984,869.0776 L221.0938,880.7814 L221.2891,903.5949 L221.4844,823.9103 L221.6797,911.2229 L221.875,889.2375 L222.0703,897.4618 L222.2656,895.4097 L222.4609,864.8923 L222.6563,870.3103 L222.8516,845.5052 L223.0469,879.6788 L223.2422,847.8694 L223.4375,829.9135 L223.6328,880.1986 L223.8281,890.3979 L224.0234,883.9877 L224.2188,846.9555 L224.4141,887.6235 L224.6094,893.7056 L224.8047,909.6053 L225,872.095 L225.1953,864.3697 L225.3906,864.3712 L225.5859,858.7927 L225.7813,890.8713 L225.9766,861.4479 L226.1719,892.9012 L226.3672,872.6511 L226.5625,852.0524 L226.7578,870.4471 L226.9531,846.2565 L227.1485,881.7629 L227.3438,876.8819 L227.5391,854.6697 L227.7344,892.8458 L227.9297,860.7794 L228.125,850.1031 L228.3203,847.6022 L228.5156,886.9066 L228.7109,892.5084 L228.9063,860.0104 L229.1016,910.2465 L229.2969,888.3368 L229.4922,889.5339 L229.6875,867.7798 L229.8828,871.2729 L230.0781,835.3804 L230.2734,861.467 L230.4688,882.194 L230.6641,875.5439 L230.8594,862.1492 L231.0547,857.8599 L231.25,862.6177 L231.4453,853.3554 L231.6406,859.4284 L231.8359,859.5426 L232.0313,883.9597 L232.2266,878.0655 L232.4219,822.7033 L232.6172,871.4622 L232.8125,872.0645 L233.0078,838.506 L233.2031,875.0979 L233.3984,868.1349 L233.5938,870.523 L233.7891,890.9985 L233.9844,830.5137 L234.1797,841.4808 L234.375,882.6257 L234.5703,864.1411 L234.7656,863.0161 L234.961,887.1558 L235.1563,838.9543 L235.3516,841.4067 L235.5469,845.6382 L235.7422,855.2137 L235.9375,891.5591 L236.1328,890.2119 L236.3281,874.3975 L236.5234,882.6364 L236.7188,871.4467 L236.9141,867.3241 L237.1094,883.5765 L237.3047,890.6404 L237.5,849.8306 L237.6953,887.8517 L237.8906,856.9202 L238.0859,837.9382 L238.2813,861.6743 L238.4766,889.3429 L238.6719,879.189 L238.8672,876.0643 L239.0625,862.3533 L239.2578,875.2697 L239.4531,853.9347 L239.6484,900.5184 L239.8438,870.8303 L240.0391,867.2413 L240.2344,872.0733 L240.4297,867.7685 L240.625,846.8657 L240.8203,873.8057 L241.0156,892.0527 L241.2109,859.5726 L241.4063,873.0297 L241.6016,854.2593 L241.7969,828.7138 L241.9922,847.4927 L242.1875,863.1566 L242.3828,865.5261 L242.5781,854.7728 L242.7735,924.9514 L242.9688,845.3431 L243.1641,836.5283 L243.3594,901.0837 L243.5547,906.3099 L243.75,877.5254 L243.9453,878.8441 L244.1406,891.3875 L244.3359,862.9926 L244.5313,883.7592 L244.7266,882.272 L244.9219,869.5288 L245.1172,809.0727 L245.3125,884.9438 L245.5078,881.0956 L245.7031,885.4833 L245.8984,858.3978 L246.0938,867.9789 L246.2891,892.5238 L246.4844,873.2576 L246.6797,839.7419 L246.875,868.4426 L247.0703,885.1573 L247.2656,871.155 L247.4609,887.9753 L247.6563,860.7841 L247.8516,865.8959 L248.0469,862.1544 L248.2422,863.181 L248.4375,863.1452 L248.6328,838.5327 L248.8281,862.7438 L249.0234,892.813 L249.2188,875.775 L249.4141,874.5024 L249.6094,838.0834 L249.8047,875.8841 L250,815.6415 L250.1953,865.0001 L250.3906,865.1419 L250.586,901.3956 L250.7813,868.0605 L250.9766,858.8984 L251.1719,871.1848 L251.3672,889.8232 L251.5625,888.8156 L251.7578,853.6381 L251.9531,855.6632 L252.1484,885.3461 L252.3438,874.1545 L252.5391,879.5018 L252.7344,890.6129 L252.9297,882.2716 L253.125,866.4061 L253.3203,871.7597 L253.5156,857.209 L253.7109,863.8758 L253.9063,862.7354 L254.1016,817.2615 L254.2969,871.5529 L254.4922,879.491 L254.6875,850.6661 L254.8828,881.1953 L255.0781,848.9697 L255.2734,857.797 L255.4688,847.9441 L255.6641,851.4957 L255.8594,861.8074 L256.0547,853.3139 L256.25,882.9407 L256.4453,897.2745 L256.6406,881.4155 L256.8359,895.4772 L257.0313,857.2356 L257.2266,863.9598 L257.4219,873.301 L257.6172,883.0808 L257.8125,836.5129 L258.0078,883.4239 L258.2031,842.6997 L258.3984,886.3774 L258.5938,856.5547 L258.7891,892.6611 L258.9844,841.0101 L259.1797,848.3068 L259.375,868.3688 L259.5703,851.775 L259.7656,855.5422 L259.9609,889.5706 L260.1563,889.5272 L260.3516,878.8645 L260.5469,876.839 L260.7422,835.5356 L260.9375,856.9457 L261.1328,862.2458 L261.3281,875.8723 L261.5234,893.3741 L261.7188,863.5544 L261.9141,873.0063 L262.1094,866.195 L262.3047,881.3211 L262.5,851.8115 L262.6953,883.1943 L262.8906,894.7905 L263.0859,874.377 L263.2813,843.8742 L263.4766,868.3019 L263.6719,871.1282 L263.8672,872.8388 L264.0625,880.8477 L264.2578,863.273 L264.4531,864.0352 L264.6484,868.5549 L264.8438,883.8078 L265.0391,864.3334 L265.2344,887.1404 L265.4297,863.4619 L265.625,858.1508 L265.8203,872.9824 L266.0156,829.8068 L266.2109,888.4429 L266.4063,861.6811 L266.6016,877.2012 L266.7969,870.8831 L266.9922,868.4107 L267.1875,880.8123 L267.3828,888.073 L267.5781,891.9226 L267.7734,859.0024 L267.9688,853.03 L268.1641,866.6484 L268.3594,892.2145 L268.5547,893.8917 L268.75,886.7469 L268.9453,943.7563 L269.1406,866.9836 L269.3359,863.4437 L269.5313,854.9525 L269.7266,841.952 L269.9219,836.1685 L270.1172,880.2661 L270.3125,905.4399 L270.5078,855.3779 L270.7031,896.1932 L270.8984,858.4015 L271.0938,860.8971 L271.2891,877.5607 L271.4844,881.0601 L271.6797,889.9812 L271.875,864.79 L272.0703,865.9513 L272.2656,891.6102 L272.4609,885.9915 L272.6563,838.1571 L272.8516,851.3802 L273.0469,876.1083 L273.2422,842.2797 L273.4375,880.0326 L273.6328,883.2773 L273.8281,834.2344 L274.0234,856.1959 L274.2188,870.0078 L274.4141,864.6336 L274.6094,888.6057 L274.8047,869.6663 L275,840.8685 L275.1953,861.2573 L275.3906,867.3333 L275.5859,869.863 L275.7813,772.0346 L275.9766,842.1116 L276.1719,876.9468 L276.3672,880.3394 L276.5625,896.4122 L276.7578,878.8994 L276.9531,854.0593 L277.1484,868.7304 L277.3438,883.986 L277.5391,883.3928 L277.7344,874.5396 L277.9297,859.509 L278.125,891.192 L278.3203,835.3325 L278.5156,888.6293 L278.7109,839.3245 L278.9063,870.5412 L279.1016,879.876 L279.2969,844.7116 L279.4922,833.4105 L279.6875,832.8059 L279.8828,899.0485 L280.0781,877.8746 L280.2734,868.4301 L280.4688,832.3854 L280.6641,884.3581 L280.8594,844.9167 L281.0547,865.5364 L281.25,844.699 L281.4453,870.3631 L281.6406,838.9087 L281.8359,891.222 L282.0313,840.9398 L282.2266,841.4885 L282.4219,867.0634 L282.6172,872.0018 L282.8125,870.233 L283.0078,877.7231 L283.2031,879.9926 L283.3984,856.3125 L283.5938,891.8505 L283.7891,879.6596 L283.9844,886.3124 L284.1797,863.0422 L284.375,841.2314 L284.5703,861.3023 L284.7656,865.4119 L284.9609,884.1216 L285.1563,874.4323 L285.3516,891.9255 L285.5469,828.2915 L285.7422,882.2207 L285.9375,835.0157 L286.1328,841.9293 L286.3281,864.9863 L286.5234,866.5602 L286.7188,860.8842 L286.9141,887.4368 L287.1094,878.8431 L287.3047,877.9767 L287.5,854.9045 L287.6953,895.0271 L287.8906,866.6697 L288.0859,857.0733 L288.2813,867.9899 L288.4766,871.126 L288.6719,867.5263 L288.8672,897.3743 L289.0625,884.6566 L289.2578,872.2601 L289.4531,855.0615 L289.6484,865.5026 L289.8438,863.1485 L290.0391,885.9307 L290.2344,859.9502 L290.4297,845.6817 L290.625,899.2874 L290.8203,858.0327 L291.0156,861.2827 L291.2109,896.7544 L291.4063,830.89 L291.6016,904.4647 L291.7969,890.7187 L291.9922,860.6486 L292.1875,891.4728 L292.3828,888.4205 L292.5781,878.9654 L292.7734,857.6736 L292.9688,872.2305 L293.1641,848.8846 L293.3594,892.1512 L293.5547,863.0161 L293.75,856.9691 L293.9453,843.2749 L294.1406,855.596 L294.3359,847.2212 L294.5313,870.1108 L294.7266,847.746 L294.9219,893.1874 L295.1172,867.5745 L295.3125,888.9812 L295.5078,871.6358 L295.7031,865.733 L295.8984,837.6793 L296.0938,856.3558 L296.2891,884.5388 L296.4844,883.2482 L296.6797,888.5779 L296.875,853.4578 L297.0703,842.6071 L297.2656,872.2019 L297.4609,907.3206 L297.6563,876.832 L297.8516,877.8717 L298.0469,873.7481 L298.2422,861.7964 L298.4375,862.7174 L298.6328,846.0535 L298.8281,879.0536 L299.0234,901.8141 L299.2188,878.1674 L299.4141,859.1595 L299.6094,905.3546 L299.8047,821.9008 L300,825.8304 L300.1953,864.392 L300.3906,881.1257 L300.5859,864.8092 L300.7813,904.8643 L300.9766,877.9191 L301.1719,900.6635 L301.3672,906.7615 L301.5625,862.1299 L301.7578,888.0875 L301.9531,854.7963 L302.1484,866.7921 L302.3438,877.7531 L302.5391,870.03 L302.7344,881.1957 L302.9297,857.9553 L303.125,899.0425 L303.3203,853.6878 L303.5156,830.2606 L303.711,887.8406 L303.9063,847.7441 L304.1016,847.8486 L304.2969,893.7757 L304.4922,883.6691 L304.6875,860.5105 L304.8828,857.1216 L305.0781,849.3063 L305.2734,889.5167 L305.4688,856.9951 L305.6641,881.2513 L305.8594,871.3253 L306.0547,906.2065 L306.25,873.9012 L306.4453,853.2737 L306.6407,905.1722 L306.8359,897.9149 L307.0313,870.6268 L307.2266,845.2581 L307.4219,847.9422 L307.6172,847.5734 L307.8125,863.5237 L308.0078,799.0847 L308.2031,847.9075 L308.3984,880.8677 L308.5938,880.329 L308.7891,894.7521 L308.9844,840.7896 L309.1797,868.6135 L309.375,866.7344 L309.5703,875.1406 L309.7656,843.296 L309.9609,889.5223 L310.1563,862.9528 L310.3516,891.8088 L310.5469,885.7351 L310.7422,882.5684 L310.9375,884.2838 L311.1328,829.9153 L311.3281,850.188 L311.5235,876.2837 L311.7188,883.4255 L311.9141,884.9027 L312.1094,872.1841 L312.3047,860.9503 L312.5,859.5508 L312.6953,882.5972 L312.8906,847.2769 L313.0859,838.3584 L313.2813,885.9011 L313.4766,850.0208 L313.6719,867.4076 L313.8672,862.9575 L314.0625,893.0226 L314.2578,875.3619 L314.4532,902.6842 L314.6484,864.5415 L314.8438,840.1269 L315.0391,858.2692 L315.2344,887.7524 L315.4297,877.7339 L315.625,865.5948 L315.8203,852.7421 L316.0156,878.7269 L316.2109,865.326 L316.4063,899.339 L316.6016,876.4467 L316.7969,862.9756 L316.9922,861.3328 L317.1875,855.7625 L317.3828,877.1131 L317.5781,880.1593 L317.7734,858.7636 L317.9688,865.949 L318.1641,950 L318.3594,890.2104 L318.5547,868.2759 L318.75,859.3667 L318.9453,861.0419 L319.1406,858.9954 L319.336,835.9076 L319.5313,888.597 L319.7266,880.7172 L319.9219,869.518 L320.1172,841.2572 L320.3125,820.2097 L320.5078,866.4713 L320.7031,897.1537 L320.8984,848.9383 L321.0938,840.2508 L321.2891,867.9687 L321.4844,884.0104 L321.6797,878.0555 L321.875,882.413 L322.0703,885.0994 L322.2657,883.3748 L322.4609,892.6088 L322.6563,873.561 L322.8516,890.3807 L323.0469,865.4673 L323.2422,900.6567 L323.4375,834.5264 L323.6328,831.6668 L323.8281,864.4581 L324.0234,864.6675 L324.2188,890.2518 L324.4141,893.1818 L324.6094,889.938 L324.8047,889.7354 L325,853.3114 L325.1953,831.8511 L325.3906,793.2536 L325.5859,894.2971 L325.7813,860.2429 L325.9766,903.4538 L326.1719,924.6046 L326.3672,890.7901 L326.5625,846.9191 L326.7578,877.8289 L326.9531,865.0919 L327.1485,860.3932 L327.3438,823.0399 L327.5391,865.8464 L327.7344,874.5758 L327.9297,865.8215 L328.125,875.5219 L328.3203,843.3398 L328.5156,894.2932 L328.7109,835.7745 L328.9063,865.0866 L329.1016,848.8224 L329.2969,870.1981 L329.4922,876.8199 L329.6875,848.6733 L329.8828,861.5723 L330.0782,874.9044 L330.2734,908.98 L330.4688,846.0278 L330.6641,895.4293 L330.8594,845.6896 L331.0547,871.4821 L331.25,872.4037 L331.4453,862.838 L331.6406,845.054 L331.8359,878.3777 L332.0313,883.5115 L332.2266,867.8116 L332.4219,873.1575 L332.6172,838.5891 L332.8125,881.2503 L333.0078,870.7965 L333.2031,839.5117 L333.3984,844.8295 L333.5938,846.5125 L333.7891,839.1503 L333.9844,866.7656 L334.1797,853.3301 L334.375,865.553 L334.5703,865.4086 L334.7656,862.6108 L334.961,875.4242 L335.1563,857.6607 L335.3516,840.9112 L335.5469,897.7043 L335.7422,883.5193 L335.9375,871.9216 L336.1328,866.9521 L336.3281,857.7038 L336.5234,850.529 L336.7188,868.5202 L336.9141,865.6909 L337.1094,871.3094 L337.3047,874.803 L337.5,894.7312 L337.6953,873.2388 L337.8907,869.809 L338.0859,884.9572 L338.2813,853.8952 L338.4766,856.9019 L338.6719,879.0018 L338.8672,862.514 L339.0625,844.6653 L339.2578,781.0112 L339.4531,858.2861 L339.6484,856.4886 L339.8438,858.3842 L340.0391,891.3142 L340.2344,866.7379 L340.4297,863.3459 L340.625,888.1696 L340.8203,863.518 L341.0156,892.3882 L341.2109,882.6008 L341.4063,872.533 L341.6016,850.2496 L341.7969,853.5981 L341.9922,859.7004 L342.1875,872.0185 L342.3828,885.4761 L342.5781,873.385 L342.7735,857.3824 L342.9688,886.4818 L343.1641,859.7693 L343.3594,909.3795 L343.5547,876.1874 L343.75,816.6474 L343.9453,851.6331 L344.1406,867.3397 L344.3359,885.6352 L344.5313,884.7817 L344.7266,891.951 L344.9219,873.7682 L345.1172,857.7775 L345.3125,864.6368 L345.5078,905.3926 L345.7032,898.5924 L345.8984,865.3312 L346.0938,873.9372 L346.2891,844.0654 L346.4844,857.0635 L346.6797,884.9739 L346.875,839.957 L347.0703,872.2061 L347.2656,808.3115 L347.4609,857.6155 L347.6563,866.0971 L347.8516,865.3441 L348.0469,864.2106 L348.2422,865.1334 L348.4375,890.6977 L348.6328,860.0268 L348.8281,865.0938 L349.0234,840.3185 L349.2188,856.6357 L349.4141,866.1902 L349.6094,881.1775 L349.8047,872.5089 L350,898.4315 L350.1953,890.6235 L350.3906,823.2785 L350.586,874.7904 L350.7813,880.5506 L350.9766,875.0952 L351.1719,850.506 L351.3672,870.5084 L351.5625,856.8942 L351.7578,862.4227 L351.9531,866.9518 L352.1484,833.9527 L352.3438,894.3685 L352.5391,886.8918 L352.7344,891.2526 L352.9297,883.488 L353.125,889.8187 L353.3203,864.6314 L353.5157,898.9583 L353.7109,869.0852 L353.9063,849.9299 L354.1016,881.6897 L354.2969,858.6505 L354.4922,862.2054 L354.6875,850.1578 L354.8828,890.8398 L355.0781,872.4922 L355.2734,860.8618 L355.4688,886.4174 L355.6641,874.0511 L355.8594,838.2139 L356.0547,861.201 L356.25,870.224 L356.4453,865.3685 L356.6406,871.4863 L356.8359,876.4274 L357.0313,864.5306 L357.2266,879.0098 L357.4219,881.1332 L357.6172,861.0175 L357.8125,875.2889 L358.0078,896.3762 L358.2031,875.1086 L358.3985,899.1248 L358.5938,855.4355 L358.7891,885.7412 L358.9844,886.2468 L359.1797,825.2343 L359.375,851.6009 L359.5703,849.1547 L359.7656,860.7169 L359.9609,889.6019 L360.1563,865.7103 L360.3516,879.0732 L360.5469,860.9944 L360.7422,881.4884 L360.9375,877.1033 L361.1328,869.0898 L361.3282,862.8773 L361.5234,859.9645 L361.7188,820.8928 L361.9141,877.4561 L362.1094,879.8115 L362.3047,881.6562 L362.5,859.1296 L362.6953,851.8683 L362.8906,868.8475 L363.0859,839.4409 L363.2813,835.0005 L363.4766,860.03 L363.6719,870.2715 L363.8672,870.4401 L364.0625,871.6202 L364.2578,888.6541 L364.4531,858.539 L364.6484,882.7413 L364.8438,845.4304 L365.0391,901.0076 L365.2344,851.9288 L365.4297,850.3303 L365.625,847.9642 L365.8203,906.8262 L366.0156,858.4993 L366.211,876.2381 L366.4063,857.4215 L366.6016,862.3956 L366.7969,845.5946 L366.9922,866.346 L367.1875,883.1675 L367.3828,873.1766 L367.5781,881.6135 L367.7734,876.9816 L367.9688,858.4501 L368.1641,866.3766 L368.3594,879.2122 L368.5547,816.0751 L368.75,887.1408 L368.9453,844.392 L369.1407,838.0283 L369.3359,871.8718 L369.5313,908.9907 L369.7266,885.0646 L369.9219,886.3041 L370.1172,881.0656 L370.3125,867.7932 L370.5078,910.6482 L370.7031,856.4685 L370.8984,881.9708 L371.0938,840.4855 L371.2891,846.6627 L371.4844,868.7591 L371.6797,911.8403 L371.875,856.6229 L372.0703,861.7258 L372.2656,885.5832 L372.4609,888.3534 L372.6563,874.7679 L372.8516,860.8281 L373.0469,865.1744 L373.2422,863.379 L373.4375,826.0723 L373.6328,886.6473 L373.8281,873.332 L374.0235,880.952 L374.2188,840.5305 L374.4141,867.761 L374.6094,884.8617 L374.8047,859.5709 L375,889.9413 L375.1953,847.4573 L375.3906,862.4612 L375.5859,852.7819 L375.7813,852.6809 L375.9766,830.285 L376.1719,870.7485 L376.3672,873.2083 L376.5625,824.679 L376.7578,858.5853 L376.9532,865.0007 L377.1484,838.4791 L377.3438,883.0278 L377.5391,875.2698 L377.7344,874.221 L377.9297,861.0344 L378.125,833.9164 L378.3203,853.2068 L378.5156,865.431 L378.7109,888.3125 L378.9063,844.824 L379.1016,891.9551 L379.2969,812.526 L379.4922,829.6121 L379.6875,876.6751 L379.8828,886.9131 L380.0781,865.8103 L380.2734,881.7921 L380.4688,892.6947 L380.6641,880.8848 L380.8594,901.6217 L381.0547,860.0506 L381.25,859.7042 L381.4453,840.5925 L381.6406,883.3876 L381.836,873.8411 L382.0313,843.491 L382.2266,856.7786 L382.4219,857.4208 L382.6172,867.4833 L382.8125,837.6176 L383.0078,856.4017 L383.2031,878.6076 L383.3984,858.3319 L383.5938,877.7192 L383.7891,882.6345 L383.9844,855.5162 L384.1797,889.4561 L384.375,863.4453 L384.5703,867.2766 L384.7657,870.6892 L384.9609,855.2193 L385.1563,893.5184 L385.3516,886.6973 L385.5469,837.2233 L385.7422,853.3 L385.9375,884.2643 L386.1328,870.636 L386.3281,905.6688 L386.5234,855.884 L386.7188,889.6957 L386.9141,878.37 L387.1094,876.3448 L387.3047,859.6418 L387.5,844.6826 L387.6953,867.7227 L387.8906,891.1411 L388.0859,883.1063 L388.2813,900.569 L388.4766,867.6608 L388.6719,876.5272 L388.8672,858.7605 L389.0625,866.0349 L389.2578,839.3925 L389.4531,854.9225 L389.6485,865.7524 L389.8438,867.4471 L390.0391,825.8219 L390.2344,875.0283 L390.4297,866.4323 L390.625,873.2552 L390.8203,845.0588 L391.0156,863.8521 L391.2109,930.6243 L391.4063,828.2419 L391.6016,860.0962 L391.7969,868.3721 L391.9922,850.1386 L392.1875,839.7239 L392.3828,848.5585 L392.5782,881.7881 L392.7734,870.1456 L392.9688,864.8271 L393.1641,853.2108 L393.3594,887.0031 L393.5547,888.0952 L393.75,876.0069 L393.9453,886.6094 L394.1406,859.997 L394.3359,853.8545 L394.5313,891.6152 L394.7266,873.902 L394.9219,832.0025 L395.1172,874.2849 L395.3125,868.3898 L395.5078,849.4484 L395.7031,896.6104 L395.8984,859.4678 L396.0938,849.1569 L396.2891,862.8678 L396.4844,847.5161 L396.6797,883.3402 L396.875,854.7594 L397.0703,836.7565 L397.2656,874.2609 L397.461,860.049 L397.6563,856.7909 L397.8516,877.8762 L398.0469,795.5893 L398.2422,841.0099 L398.4375,870.2142 L398.6328,883.665 L398.8281,882.4767 L399.0234,863.9174 L399.2188,834.7406 L399.4141,884.4371 L399.6094,865.3574 L399.8047,894.7134 L400,870.8166 L400.1953,849.6261 L400.3907,900.4348 L400.5859,871.0229 L400.7813,870.3548 L400.9766,878.4279 L401.1719,884.9382 L401.3672,859.8179 L401.5625,873.1599 L401.7578,866.7416 L401.9531,882.2635 L402.1484,877.4351 L402.3438,886.9619 L402.5391,843.7393 L402.7344,854.1199 L402.9297,881.4688 L403.125,858.4769 L403.3203,894.9775 L403.5156,847.9011 L403.7109,875.401 L403.9063,872.8845 L404.1016,894.054 L404.2969,870.3403 L404.4922,852.332 L404.6875,897.7158 L404.8828,881.6429 L405.0781,873.4293 L405.2735,865.9381 L405.4688,876.5527 L405.6641,843.3589 L405.8594,876.3104 L406.0547,855.1081 L406.25,867.0084 L406.4453,822.0879 L406.6406,875.131 L406.8359,898.1013 L407.0313,881.1848 L407.2266,892.4571 L407.4219,889.4543 L407.6172,850.7424 L407.8125,875.1777 L408.0078,841.5262 L408.2032,886.9568 L408.3984,902.7271 L408.5938,843.8282 L408.7891,859.985 L408.9844,859.8694 L409.1797,876.4763 L409.375,881.8359 L409.5703,851.5964 L409.7656,871.011 L409.9609,873.1115 L410.1563,864.9836 L410.3516,886.9664 L410.5469,893.0158 L410.7422,892.5488 L410.9375,850.5761 L411.1328,864.9756 L411.3281,844.5366 L411.5234,849.0647 L411.7188,881.9033 L411.9141,862.0123 L412.1094,868.8304 L412.3047,842.6789 L412.5,861.8992 L412.6953,864.9185 L412.8906,889.095 L413.086,880.8577 L413.2813,856.4005 L413.4766,894.7543 L413.6719,857.5516 L413.8672,833.2082 L414.0625,883.7889 L414.2578,871.0438 L414.4531,840.3195 L414.6484,849.0759 L414.8438,837.3086 L415.0391,868.623 L415.2344,861.2147 L415.4297,867.4805 L415.625,860.6838 L415.8203,867.0384 L416.0157,858.2103 L416.2109,857.7358 L416.4063,887.0817 L416.6016,890.5125 L416.7969,876.9745 L416.9922,839.038 L417.1875,864.1896 L417.3828,880.6555 L417.5781,885.5449 L417.7734,860.3602 L417.9688,849.6556 L418.1641,898.1709 L418.3594,851.8497 L418.5547,845.0078 L418.75,879.1385 L418.9453,906.0167 L419.1406,838.9888 L419.3359,826.248 L419.5313,878.8214 L419.7266,884.937 L419.9219,843.243 L420.1172,852.3936 L420.3125,881.9413 L420.5078,856.0466 L420.7031,858.3994 L420.8985,875.1962 L421.0938,845.8564 L421.2891,849.1465 L421.4844,850.9861 L421.6797,876.1183 L421.875,847.0255 L422.0703,848.0277 L422.2656,879.1155 L422.4609,866.12 L422.6563,866.6917 L422.8516,864.4468 L423.0469,876.685 L423.2422,896.8495 L423.4375,857.7172 L423.6328,880.8633 L423.8282,804.693 L424.0234,886.4037 L424.2188,853.4342 L424.4141,823.9207 L424.6094,848.8651 L424.8047,906.2955 L425,903.9702 L425.1953,872.8058 L425.3906,887.5679 L425.5859,873.3848 L425.7813,884.8318 L425.9766,860.3085 L426.1719,852.3218 L426.3672,869.4265 L426.5625,851.4414 L426.7578,884.2729 L426.9531,852.4222 L427.1484,912.2968 L427.3438,904.8996 L427.5391,872.1878 L427.7344,899.2227 L427.9297,855.4363 L428.125,839.1054 L428.3203,855.8507 L428.5156,846.7704 L428.711,814.1332 L428.9063,902.05 L429.1016,888.3242 L429.2969,870.4058 L429.4922,846.9899 L429.6875,853.2155 L429.8828,853.6063 L430.0781,859.5077 L430.2734,862.131 L430.4688,848.9647 L430.6641,895.2816 L430.8594,875.2109 L431.0547,860.9788 L431.25,836.4912 L431.4453,868.4277 L431.6407,844.5097 L431.8359,863.8221 L432.0313,878.8254 L432.2266,874.1286 L432.4219,886.2388 L432.6172,869.4717 L432.8125,853.8747 L433.0078,836.2476 L433.2031,834.1642 L433.3984,858.4313 L433.5938,882.1411 L433.7891,870.3624 L433.9844,858.3944 L434.1797,851.6508 L434.375,844.1259 L434.5703,881.5975 L434.7656,881.8199 L434.9609,897.1391 L435.1563,875.7507 L435.3516,888.5073 L435.5469,882.7715 L435.7422,879.0203 L435.9375,861.5458 L436.1328,887.1087 L436.3281,861.3533 L436.5235,852.9998 L436.7188,860.2339 L436.9141,880.7411 L437.1094,895.1397 L437.3047,870.5164 L437.5,883.0146 L437.6953,902.2695 L437.8906,906.4926 L438.0859,877.9766 L438.2813,888.8203 L438.4766,836.5294 L438.6719,894.2761 L438.8672,861.0857 L439.0625,869.1248 L439.2578,838.754 L439.4532,850.4399 L439.6484,901.7229 L439.8438,868.2155 L440.0391,879.976 L440.2344,882.3002 L440.4297,887.9626 L440.625,850.8898 L440.8203,881.2409 L441.0156,850.9677 L441.2109,885.2411 L441.4063,871.2335 L441.6016,890.5737 L441.7969,863.3642 L441.9922,898.8256 L442.1875,900.162 L442.3828,853.653 L442.5781,876.7885 L442.7734,844.2451 L442.9688,870.5917 L443.1641,854.6359 L443.3594,796.5901 L443.5547,867.9814 " stroke="blue" fill="none" />
<text x="50" y="1000" font-family="Arial" font-size="12" fill="black">Episode Length (2016)</text>
<text x="50" y="1015" font-family="Arial" font-size="10" fill="black">21</text>
<text x="50" y="1230" font-family="Arial" font-size="10" fill="black">1</text>
<path d="M50,1220 L50.19531,1220 L50.39063,1220 L50.58594,1220 L50.78125,1210 L50.97656,1210 L51.17188,1210 L51.36719,1210 L51.5625,1210 L51.75781,1210 L51.95313,1210 L52.14844,1210 L52.34375,1210 L52.53906,1210 L52.73438,1210 L52.92969,1210 L53.125,1210 L53.32031,1210 L53.51563,1210 L53.71094,1210 L53.90625,1210 L54.10156,1210 L54.29688,1210 L54.49219,1210 L54.6875,1210 L54.88281,1210 L55.07813,1210 L55.27344,1200 L55.46875,1200 L55.66406,1200 L55.85938,1200 L56.05469,1200 L56.25,1200 L56.44531,1200 L56.64063,1200 L56.83594,1200 L57.03125,1200 L57.22656,1200 L57.42188,1200 L57.61719,1200 L57.8125,1200 L58.00781,1200 L58.20313,1200 L58.39844,1200 L58.59375,1200 L58.78906,1200 L58.98438,1210 L59.17969,1190 L59.375,1190 L59.57031,1190 L59.76563,1190 L59.96094,1190 L60.15625,1190 L60.35156,1190 L60.54688,1190 L60.74219,1190 L60.9375,1190 L61.13281,1190 L61.32813,1190 L61.52344,1190 L61.71875,1190 L61.91406,1190 L62.10938,1190 L62.30469,1190 L62.5,1190 L62.69531,1190 L62.89063,1190 L63.08594,1190 L63.28125,1190 L63.47656,1200 L63.67188,1200 L63.86719,1200 L64.0625,1200 L64.25781,1200 L64.45313,1180 L64.64844,1180 L64.84375,1180 L65.03906,1180 L65.23438,1180 L65.42969,1180 L65.625,1180 L65.82031,1180 L66.01563,1180 L66.21094,1180 L66.40625,1180 L66.60156,1180 L66.79688,1180 L66.99219,1180 L67.1875,1180 L67.38281,1180 L67.57813,1180 L67.77344,1180 L67.96875,1180 L68.16406,1180 L68.35938,1180 L68.55469,1180 L68.75,1190 L68.94531,1200 L69.14063,1190 L69.33594,1200 L69.53125,1190 L69.72656,1190 L69.92188,1180 L70.11719,1200 L70.3125,1200 L70.50781,1190 L70.70313,1170 L70.89844,1170 L71.09375,1170 L71.28906,1170 L71.48438,1170 L71.67969,1170 L71.875,1170 L72.07031,1170 L72.26563,1170 L72.46094,1170 L72.65625,1190 L72.85156,1190 L73.04688,1200 L73.24219,1200 L73.4375,1170 L73.63281,1180 L73.82813,1200 L74.02344,1190 L74.21875,1180 L74.41406,1190 L74.60938,1200 L74.80469,1170 L75,1180 L75.19531,1190 L75.39063,1200 L75.58594,1160 L75.78125,1160 L75.97656,1160 L76.17188,1160 L76.36719,1160 L76.5625,1160 L76.75781,1160 L76.95313,1160 L77.14844,1160 L77.34375,1160 L77.53906,1160 L77.73438,1210 L77.92969,1200 L78.125,1180 L78.32031,1200 L78.51563,1190 L78.71094,1200 L78.90625,1190 L79.10156,1190 L79.29688,1180 L79.49219,1200 L79.6875,1200 L79.88281,1170 L80.07813,1180 L80.27344,1170 L80.46875,1170 L80.66406,1180 L80.85938,1190 L81.05469,1190 L81.25,1150 L81.44531,1150 L81.64063,1150 L81.83594,1150 L82.03125,1150 L82.22656,1150 L82.42188,1150 L82.61719,1200 L82.8125,1190 L83.00781,1180 L83.20313,1170 L83.39844,1190 L83.59375,1200 L83.78906,1170 L83.98438,1170 L84.17969,1190 L84.375,1200 L84.57031,1180 L84.76563,1200 L84.96094,1180 L85.15625,1140 L85.35156,1140 L85.54688,1140 L85.74219,1180 L85.9375,1200 L86.13281,1200 L86.32813,1200 L86.52344,1200 L86.71875,1200 L86.91406,1200 L87.10938,1180 L87.30469,1180 L87.5,1150 L87.69531,1170 L87.89063,1160 L88.08594,1180 L88.28125,1150 L88.47656,1200 L88.67188,1200 L88.86719,1180 L89.0625,1200 L89.25781,1180 L89.45313,1170 L89.64844,1180 L89.84375,1130 L90.03906,1180 L90.23438,1200 L90.42969,1200 L90.625,1190 L90.82031,1200 L91.01563,1200 L91.21094,1170 L91.40625,1190 L91.60156,1200 L91.79688,1160 L91.99219,1200 L92.1875,1180 L92.38281,1180 L92.57813,1180 L92.77344,1160 L92.96875,1190 L93.16406,1130 L93.35938,1160 L93.55469,1170 L93.75,1180 L93.94531,1140 L94.14063,1140 L94.33594,1160 L94.53125,1160 L94.72656,1170 L94.92188,1160 L95.11719,1120 L95.3125,1120 L95.50781,1170 L95.70313,1180 L95.89844,1190 L96.09375,1170 L96.28906,1200 L96.48438,1190 L96.67969,1190 L96.875,1170 L97.07031,1140 L97.26563,1160 L97.46094,1170 L97.65625,1130 L97.85156,1150 L98.04688,1200 L98.24219,1160 L98.4375,1160 L98.63281,1150 L98.82813,1110 L99.02344,1110 L99.21875,1200 L99.41406,1190 L99.60938,1190 L99.80469,1190 L100,1180 L100.1953,1160 L100.3906,1190 L100.5859,1170 L100.7813,1200 L100.9766,1200 L101.1719,1180 L101.3672,1160 L101.5625,1180 L101.7578,1200 L101.9531,1200 L102.1484,1160 L102.3438,1170 L102.5391,1200 L102.7344,1170 L102.9297,1150 L103.125,1200 L103.3203,1180 L103.5156,1180 L103.7109,1170 L103.9063,1170 L104.1016,1180 L104.2969,1100 L104.4922,1200 L104.6875,1200 L104.8828,1190 L105.0781,1190 L105.2734,1190 L105.4688,1200 L105.6641,1200 L105.8594,1170 L106.0547,1190 L106.25,1190 L106.4453,1170 L106.6406,1210 L106.8359,1170 L107.0313,1210 L107.2266,1200 L107.4219,1200 L107.6172,1200 L107.8125,1200 L108.0078,1180 L108.2031,1200 L108.3984,1190 L108.5938,1180 L108.7891,1190 L108.9844,1140 L109.1797,1180 L109.375,1140 L109.5703,1140 L109.7656,1120 L109.9609,1160 L110.1563,1140 L110.3516,1200 L110.5469,1160 L110.7422,1210 L110.9375,1210 L111.1328,1190 L111.3281,1180 L111.5234,1170 L111.7188,1190 L111.9141,1150 L112.1094,1190 L112.3047,1190 L112.5,1170 L112.6953,1180 L112.8906,1200 L113.0859,1150 L113.2813,1200 L113.4766,1160 L113.6719,1190 L113.8672,1160 L114.0625,1100 L114.2578,1200 L114.4531,1160 L114.6484,1170 L114.8438,1150 L115.0391,1200 L115.2344,1200 L115.4297,1190 L115.625,1200 L115.8203,1190 L116.0156,1210 L116.2109,1200 L116.4063,1150 L116.6016,1170 L116.7969,1180 L116.9922,1160 L117.1875,1190 L117.3828,1200 L117.5781,1140 L117.7734,1160 L117.9688,1170 L118.1641,1160 L118.3594,1130 L118.5547,1150 L118.75,1070 L118.9453,1200 L119.1406,1200 L119.3359,1200 L119.5313,1200 L119.7266,1170 L119.9219,1190 L120.1172,1200 L120.3125,1190 L120.5078,1170 L120.7031,1180 L120.8984,1200 L121.0938,1170 L121.2891,1200 L121.4844,1170 L121.6797,1150 L121.875,1110 L122.0703,1200 L122.2656,1190 L122.4609,1190 L122.6563,1160 L122.8516,1180 L123.0469,1170 L123.2422,1190 L123.4375,1210 L123.6328,1190 L123.8281,1200 L124.0234,1170 L124.2188,1180 L124.4141,1160 L124.6094,1200 L124.8047,1180 L125,1150 L125.1953,1170 L125.3906,1180 L125.5859,1170 L125.7813,1190 L125.9766,1180 L126.1719,1160 L126.3672,1180 L126.5625,1160 L126.7578,1170 L126.9531,1130 L127.1484,1200 L127.3438,1150 L127.5391,1150 L127.7344,1170 L127.9297,1160 L128.125,1190 L128.3203,1170 L128.5156,1110 L128.7109,1200 L128.9063,1190 L129.1016,1200 L129.2969,1180 L129.4922,1200 L129.6875,1180 L129.8828,1160 L130.0781,1190 L130.2734,1200 L130.4688,1180 L130.6641,1170 L130.8594,1210 L131.0547,1180 L131.25,1100 L131.4453,1150 L131.6406,1170 L131.8359,1190 L132.0313,1170 L132.2266,1180 L132.4219,1180 L132.6172,1200 L132.8125,1150 L133.0078,1160 L133.2031,1200 L133.3984,1190 L133.5938,1200 L133.7891,1200 L133.9844,1170 L134.1797,1160 L134.375,1170 L134.5703,1180 L134.7656,1170 L134.9609,1180 L135.1563,1180 L135.3516,1180 L135.5469,1180 L135.7422,1160 L135.9375,1190 L136.1328,1190 L136.3281,1150 L136.5234,1180 L136.7188,1200 L136.9141,1170 L137.1094,1170 L137.3047,1140 L137.5,1180 L137.6953,1100 L137.8906,1190 L138.0859,1200 L138.2813,1160 L138.4766,1190 L138.6719,1180 L138.8672,1200 L139.0625,1190 L139.2578,1200 L139.4531,1160 L139.6484,1160 L139.8438,1170 L140.0391,1170 L140.2344,1160 L140.4297,1140 L140.625,1180 L140.8203,1170 L141.0156,1160 L141.2109,1180 L141.4063,1200 L141.6016,1180 L141.7969,1190 L141.9922,1150 L142.1875,1170 L142.3828,1200 L142.5781,1170 L142.7734,1170 L142.9688,1180 L143.1641,1190 L143.3594,1170 L143.5547,1190 L143.75,1170 L143.9453,1210 L144.1406,1140 L144.3359,1140 L144.5313,1190 L144.7266,1190 L144.9219,1150 L145.1172,1190 L145.3125,1180 L145.5078,1180 L145.7031,1180 L145.8984,1190 L146.0938,1200 L146.2891,1180 L146.4844,1180 L146.6797,1200 L146.875,1200 L147.0703,1150 L147.2656,1180 L147.4609,1170 L147.6563,1210 L147.8516,1190 L148.0469,1180 L148.2422,1180 L148.4375,1190 L148.6328,1180 L148.8281,1070 L149.0234,1200 L149.2188,1150 L149.4141,1140 L149.6094,1190 L149.8047,1190 L150,1170 L150.1953,1180 L150.3906,1180 L150.5859,1170 L150.7813,1190 L150.9766,1170 L151.1719,1160 L151.3672,1160 L151.5625,1160 L151.7578,1170 L151.9531,1140 L152.1484,1190 L152.3438,1120 L152.5391,1160 L152.7344,1180 L152.9297,1180 L153.125,1170 L153.3203,1200 L153.5156,1180 L153.7109,1070 L153.9063,1210 L154.1016,1180 L154.2969,1180 L154.4922,1180 L154.6875,1160 L154.8828,1170 L155.0781,1190 L155.2734,1180 L155.4688,1160 L155.6641,1200 L155.8594,1150 L156.0547,1190 L156.25,1170 L156.4453,1170 L156.6406,1130 L156.8359,1160 L157.0313,1190 L157.2266,1160 L157.4219,1190 L157.6172,1180 L157.8125,1190 L158.0078,1170 L158.2031,1200 L158.3984,1200 L158.5938,1200 L158.7891,1140 L158.9844,1180 L159.1797,1190 L159.375,1170 L159.5703,1200 L159.7656,1170 L159.9609,1170 L160.1563,1130 L160.3516,1170 L160.5469,1160 L160.7422,1110 L160.9375,1170 L161.1328,1170 L161.3281,1160 L161.5234,1170 L161.7188,1200 L161.9141,1150 L162.1094,1210 L162.3047,1210 L162.5,1160 L162.6953,1200 L162.8906,1190 L163.0859,1200 L163.2813,1190 L163.4766,1180 L163.6719,1190 L163.8672,1200 L164.0625,1130 L164.2578,1200 L164.4531,1170 L164.6484,1170 L164.8438,1150 L165.0391,1090 L165.2344,1170 L165.4297,1130 L165.625,1100 L165.8203,1180 L166.0156,1140 L166.2109,1200 L166.4063,1190 L166.6016,1120 L166.7969,1190 L166.9922,1180 L167.1875,1190 L167.3828,1180 L167.5781,1190 L167.7734,1180 L167.9688,1190 L168.1641,1160 L168.3594,1200 L168.5547,1160 L168.75,1180 L168.9453,1120 L169.1406,1170 L169.3359,1080 L169.5313,1170 L169.7266,1170 L169.9219,1160 L170.1172,1160 L170.3125,1150 L170.5078,1190 L170.7031,1100 L170.8984,1170 L171.0938,1150 L171.2891,1200 L171.4844,1210 L171.6797,1190 L171.875,1170 L172.0703,1180 L172.2656,1190 L172.4609,1180 L172.6563,1120 L172.8516,1200 L173.0469,1200 L173.2422,1150 L173.4375,1200 L173.6328,1170 L173.8281,1200 L174.0234,1170 L174.2188,1190 L174.4141,1210 L174.6094,1130 L174.8047,1200 L175,1200 L175.1953,1200 L175.3906,1180 L175.5859,1200 L175.7813,1190 L175.9766,1100 L176.1719,1170 L176.3672,1170 L176.5625,1180 L176.7578,1180 L176.9531,1190 L177.1484,1150 L177.3438,1150 L177.5391,1160 L177.7344,1170 L177.9297,1180 L178.125,1210 L178.3203,1180 L178.5156,1140 L178.7109,1120 L178.9063,1160 L179.1016,1170 L179.2969,1200 L179.4922,1160 L179.6875,1180 L179.8828,1160 L180.0781,1190 L180.2735,1200 L180.4688,1160 L180.6641,1210 L180.8594,1120 L181.0547,1180 L181.25,1200 L181.4453,1190 L181.6406,1180 L181.8359,1100 L182.0313,1170 L182.2266,1160 L182.4219,1180 L182.6172,1170 L182.8125,1210 L183.0078,1190 L183.2031,1160 L183.3984,1190 L183.5938,1180 L183.7891,1200 L183.9844,1170 L184.1797,1200 L184.375,1140 L184.5703,1200 L184.7656,1150 L184.9609,1190 L185.1563,1130 L185.3516,1180 L185.5469,1160 L185.7422,1130 L185.9375,1180 L186.1328,1190 L186.3281,1180 L186.5234,1160 L186.7188,1180 L186.9141,1180 L187.1094,1170 L187.3047,1130 L187.5,1160 L187.6953,1110 L187.8906,1170 L188.086,1140 L188.2813,1200 L188.4766,1190 L188.6719,1150 L188.8672,1170 L189.0625,1200 L189.2578,1170 L189.4531,1200 L189.6484,1160 L189.8438,1190 L190.0391,1190 L190.2344,1140 L190.4297,1170 L190.625,1190 L190.8203,1200 L191.0156,1190 L191.2109,1180 L191.4063,1170 L191.6016,1200 L191.7969,1180 L191.9922,1160 L192.1875,1190 L192.3828,1210 L192.5781,1180 L192.7734,1170 L192.9688,1150 L193.1641,1130 L193.3594,1160 L193.5547,1070 L193.75,1200 L193.9453,1200 L194.1406,1200 L194.3359,1180 L194.5313,1180 L194.7266,1190 L194.9219,1180 L195.1172,1180 L195.3125,1190 L195.5078,1180 L195.7031,1150 L195.8985,1170 L196.0938,1170 L196.2891,1190 L196.4844,1210 L196.6797,1190 L196.875,1130 L197.0703,1170 L197.2656,1170 L197.4609,1160 L197.6563,1170 L197.8516,1190 L198.0469,1170 L198.2422,1180 L198.4375,1190 L198.6328,1200 L198.8281,1200 L199.0234,1170 L199.2188,1200 L199.4141,1180 L199.6094,1190 L199.8047,1160 L200,1180 L200.1953,1180 L200.3906,1190 L200.5859,1100 L200.7813,1200 L200.9766,1200 L201.1719,1200 L201.3672,1140 L201.5625,1150 L201.7578,1170 L201.9531,1150 L202.1484,1190 L202.3438,1060 L202.5391,1210 L202.7344,1180 L202.9297,1190 L203.125,1180 L203.3203,1200 L203.5156,1200 L203.711,1170 L203.9063,1190 L204.1016,1210 L204.2969,1200 L204.4922,1180 L204.6875,1140 L204.8828,1170 L205.0781,1190 L205.2734,1170 L205.4688,1200 L205.6641,1120 L205.8594,1180 L206.0547,1200 L206.25,1190 L206.4453,1200 L206.6406,1170 L206.8359,1160 L207.0313,1200 L207.2266,1120 L207.4219,1160 L207.6172,1160 L207.8125,1140 L208.0078,1150 L208.2031,1200 L208.3984,1180 L208.5938,1130 L208.7891,1200 L208.9844,1190 L209.1797,1200 L209.375,1180 L209.5703,1200 L209.7656,1180 L209.9609,1180 L210.1563,1180 L210.3516,1060 L210.5469,1170 L210.7422,1200 L210.9375,1180 L211.1328,1180 L211.3281,1180 L211.5235,1170 L211.7188,1200 L211.9141,1200 L212.1094,1180 L212.3047,1130 L212.5,1170 L212.6953,1180 L212.8906,1190 L213.0859,1150 L213.2813,1180 L213.4766,1180 L213.6719,1180 L213.8672,1150 L214.0625,1180 L214.2578,1160 L214.4531,1130 L214.6484,1190 L214.8438,1140 L215.0391,1110 L215.2344,1170 L215.4297,1190 L215.625,1190 L215.8203,1180 L216.0156,1110 L216.2109,1190 L216.4063,1180 L216.6016,1210 L216.7969,1180 L216.9922,1170 L217.1875,1170 L217.3828,1180 L217.5781,1200 L217.7734,1200 L217.9688,1190 L218.1641,1150 L218.3594,1160 L218.5547,1140 L218.75,1150 L218.9453,1140 L219.1406,1160 L219.336,1160 L219.5313,1170 L219.7266,1200 L219.9219,1190 L220.1172,1180 L220.3125,1190 L220.5078,1200 L220.7031,1200 L220.8984,1170 L221.0938,1200 L221.2891,1200 L221.4844,1150 L221.6797,1140 L221.875,1180 L222.0703,1170 L222.2656,1210 L222.4609,1180 L222.6563,1160 L222.8516,1160 L223.0469,1100 L223.2422,1150 L223.4375,1140 L223.6328,1180 L223.8281,1190 L224.0234,1200 L224.2188,1150 L224.4141,1210 L224.6094,1200 L224.8047,1190 L225,1180 L225.1953,1190 L225.3906,1180 L225.5859,1190 L225.7813,1200 L225.9766,1170 L226.1719,1200 L226.3672,1170 L226.5625,1140 L226.7578,1150 L226.9531,1170 L227.1485,1170 L227.3438,1200 L227.5391,1150 L227.7344,1190 L227.9297,1170 L228.125,1170 L228.3203,1180 L228.5156,1200 L228.7109,1210 L228.9063,1130 L229.1016,1190 L229.2969,1200 L229.4922,1200 L229.6875,1190 L229.8828,1190 L230.0781,1160 L230.2734,1160 L230.4688,1200 L230.6641,1150 L230.8594,1170 L231.0547,1190 L231.25,1180 L231.4453,1160 L231.6406,1160 L231.8359,1130 L232.0313,1200 L232.2266,1190 L232.4219,1150 L232.6172,1190 L232.8125,1180 L233.0078,1160 L233.2031,1140 L233.3984,1180 L233.5938,1190 L233.7891,1200 L233.9844,1080 L234.1797,1170 L234.375,1180 L234.5703,1170 L234.7656,1180 L234.961,1200 L235.1563,1170 L235.3516,1160 L235.5469,1120 L235.7422,1180 L235.9375,1200 L236.1328,1200 L236.3281,1160 L236.5234,1170 L236.7188,1190 L236.9141,1190 L237.1094,1190 L237.3047,1200 L237.5,1150 L237.6953,1180 L237.8906,1170 L238.0859,1170 L238.2813,1170 L238.4766,1200 L238.6719,1200 L238.8672,1160 L239.0625,1150 L239.2578,1200 L239.4531,1170 L239.6484,1200 L239.8438,1180 L240.0391,1180 L240.2344,1190 L240.4297,1150 L240.625,1160 L240.8203,1200 L241.0156,1210 L241.2109,1150 L241.4063,1190 L241.6016,1150 L241.7969,1150 L241.9922,1170 L242.1875,1110 L242.3828,1150 L242.5781,1190 L242.7735,1020 L242.9688,1130 L243.1641,1130 L243.3594,1200 L243.5547,1200 L243.75,1190 L243.9453,1200 L244.1406,1200 L244.3359,1190 L244.5313,1160 L244.7266,1190 L244.9219,1200 L245.1172,1130 L245.3125,1200 L245.5078,1160 L245.7031,1200 L245.8984,1140 L246.0938,1170 L246.2891,1140 L246.4844,1200 L246.6797,1160 L246.875,1180 L247.0703,1180 L247.2656,1200 L247.4609,1210 L247.6563,1170 L247.8516,1190 L248.0469,1190 L248.2422,1180 L248.4375,1150 L248.6328,1160 L248.8281,1170 L249.0234,1200 L249.2188,1190 L249.4141,1190 L249.6094,1150 L249.8047,1170 L250,1140 L250.1953,1190 L250.3906,1170 L250.586,1210 L250.7813,1180 L250.9766,1180 L251.1719,1100 L251.3672,1200 L251.5625,1200 L251.7578,1170 L251.9531,1170 L252.1484,1200 L252.3438,1200 L252.5391,1200 L252.7344,1200 L252.9297,1200 L253.125,1150 L253.3203,1160 L253.5156,1180 L253.7109,1150 L253.9063,1170 L254.1016,1110 L254.2969,1190 L254.4922,1160 L254.6875,1180 L254.8828,1190 L255.0781,1180 L255.2734,1180 L255.4688,1160 L255.6641,1160 L255.8594,1190 L256.0547,1180 L256.25,1190 L256.4453,1190 L256.6406,1190 L256.8359,1200 L257.0313,1180 L257.2266,1180 L257.4219,1140 L257.6172,1200 L257.8125,1140 L258.0078,1160 L258.2031,1140 L258.3984,1200 L258.5938,1170 L258.7891,1150 L258.9844,1160 L259.1797,1170 L259.375,1190 L259.5703,1170 L259.7656,1140 L259.9609,1180 L260.1563,1200 L260.3516,1160 L260.5469,1140 L260.7422,1150 L260.9375,1170 L261.1328,1170 L261.3281,1160 L261.5234,1170 L261.7188,1190 L261.9141,1170 L262.1094,1180 L262.3047,1200 L262.5,1180 L262.6953,1200 L262.8906,1210 L263.0859,1180 L263.2813,1150 L263.4766,1160 L263.6719,1190 L263.8672,1180 L264.0625,1200 L264.2578,1150 L264.4531,1140 L264.6484,1190 L264.8438,1200 L265.0391,1190 L265.2344,1150 L265.4297,1180 L265.625,1180 L265.8203,1170 L266.0156,1060 L266.2109,1200 L266.4063,1180 L266.6016,1160 L266.7969,1190 L266.9922,1170 L267.1875,1180 L267.3828,1200 L267.5781,1160 L267.7734,1170 L267.9688,1170 L268.1641,1180 L268.3594,1200 L268.5547,1200 L268.75,1200 L268.9453,1090 L269.1406,1160 L269.3359,1190 L269.5313,1180 L269.7266,1160 L269.9219,1170 L270.1172,1190 L270.3125,1200 L270.5078,1170 L270.7031,1200 L270.8984,1170 L271.0938,1180 L271.2891,1200 L271.4844,1200 L271.6797,1150 L271.875,1170 L272.0703,1160 L272.2656,1170 L272.4609,1200 L272.6563,1170 L272.8516,1160 L273.0469,1180 L273.2422,1180 L273.4375,1200 L273.6328,1200 L273.8281,1150 L274.0234,1180 L274.2188,1180 L274.4141,1190 L274.6094,1200 L274.8047,1190 L275,1170 L275.1953,1170 L275.3906,1180 L275.5859,1160 L275.7813,1120 L275.9766,1160 L276.1719,1200 L276.3672,1190 L276.5625,1200 L276.7578,1190 L276.9531,1150 L277.1484,1180 L277.3438,1190 L277.5391,1200 L277.7344,1190 L277.9297,1170 L278.125,1180 L278.3203,1090 L278.5156,1210 L278.7109,1130 L278.9063,1160 L279.1016,1200 L279.2969,1170 L279.4922,1160 L279.6875,1170 L279.8828,1200 L280.0781,1200 L280.2734,1190 L280.4688,1170 L280.6641,1190 L280.8594,1170 L281.0547,1190 L281.25,1110 L281.4453,1170 L281.6406,1140 L281.8359,1210 L282.0313,1180 L282.2266,1150 L282.4219,1150 L282.6172,1120 L282.8125,1190 L283.0078,1140 L283.2031,1200 L283.3984,1160 L283.5938,1130 L283.7891,1200 L283.9844,1200 L284.1797,1180 L284.375,1140 L284.5703,1170 L284.7656,1180 L284.9609,1160 L285.1563,1180 L285.3516,1200 L285.5469,1080 L285.7422,1170 L285.9375,1150 L286.1328,1160 L286.3281,1170 L286.5234,1170 L286.7188,1180 L286.9141,1200 L287.1094,1200 L287.3047,1200 L287.5,1190 L287.6953,1200 L287.8906,1180 L288.0859,1160 L288.2813,1170 L288.4766,1200 L288.6719,1190 L288.8672,1200 L289.0625,1190 L289.2578,1170 L289.4531,1180 L289.6484,1180 L289.8438,1170 L290.0391,1200 L290.2344,1180 L290.4297,1150 L290.625,1200 L290.8203,1180 L291.0156,1160 L291.2109,1210 L291.4063,1140 L291.6016,1090 L291.7969,1180 L291.9922,1190 L292.1875,1200 L292.3828,1200 L292.5781,1110 L292.7734,1140 L292.9688,1180 L293.1641,1170 L293.3594,1200 L293.5547,1170 L293.75,1170 L293.9453,1170 L294.1406,1180 L294.3359,1170 L294.5313,1170 L294.7266,1150 L294.9219,1170 L295.1172,1180 L295.3125,1200 L295.5078,1180 L295.7031,1170 L295.8984,1150 L296.0938,1180 L296.2891,1160 L296.4844,1200 L296.6797,1180 L296.875,1170 L297.0703,1180 L297.2656,1070 L297.4609,1200 L297.6563,1160 L297.8516,1180 L298.0469,1150 L298.2422,1190 L298.4375,1180 L298.6328,1150 L298.8281,1200 L299.0234,1120 L299.2188,1200 L299.4141,1150 L299.6094,1200 L299.8047,1170 L300,1140 L300.1953,1160 L300.3906,1190 L300.5859,1170 L300.7813,1190 L300.9766,1190 L301.1719,1200 L301.3672,1180 L301.5625,1180 L301.7578,1200 L301.9531,1180 L302.1484,1190 L302.3438,1170 L302.5391,1190 L302.7344,1170 L302.9297,1150 L303.125,1180 L303.3203,1160 L303.5156,1160 L303.711,1190 L303.9063,1180 L304.1016,1160 L304.2969,1190 L304.4922,1200 L304.6875,1180 L304.8828,1160 L305.0781,1160 L305.2734,1200 L305.4688,1170 L305.6641,1170 L305.8594,1190 L306.0547,1200 L306.25,1170 L306.4453,1180 L306.6407,1210 L306.8359,1200 L307.0313,1180 L307.2266,1180 L307.4219,1160 L307.6172,1170 L307.8125,1180 L308.0078,1110 L308.2031,1180 L308.3984,1200 L308.5938,1200 L308.7891,1210 L308.9844,1150 L309.1797,1190 L309.375,1190 L309.5703,1170 L309.7656,1160 L309.9609,1190 L310.1563,1170 L310.3516,1190 L310.5469,1190 L310.7422,1180 L310.9375,1200 L311.1328,1170 L311.3281,1160 L311.5235,1190 L311.7188,1180 L311.9141,1200 L312.1094,1190 L312.3047,1180 L312.5,1160 L312.6953,1200 L312.8906,1170 L313.0859,1170 L313.2813,1200 L313.4766,1170 L313.6719,1160 L313.8672,1180 L314.0625,1200 L314.2578,1170 L314.4532,1200 L314.6484,1190 L314.8438,1070 L315.0391,1180 L315.2344,1190 L315.4297,1180 L315.625,1190 L315.8203,1170 L316.0156,1170 L316.2109,1190 L316.4063,1160 L316.6016,1190 L316.7969,1180 L316.9922,1190 L317.1875,1160 L317.3828,1180 L317.5781,1200 L317.7734,1170 L317.9688,1180 L318.1641,1080 L318.3594,1200 L318.5547,1160 L318.75,1150 L318.9453,1170 L319.1406,1190 L319.336,1160 L319.5313,1200 L319.7266,1170 L319.9219,1180 L320.1172,1180 L320.3125,1140 L320.5078,1180 L320.7031,1200 L320.8984,1160 L321.0938,1140 L321.2891,1170 L321.4844,1200 L321.6797,1140 L321.875,1180 L322.0703,1200 L322.2657,1200 L322.4609,1190 L322.6563,1160 L322.8516,1200 L323.0469,1180 L323.2422,1200 L323.4375,1140 L323.6328,1170 L323.8281,1180 L324.0234,1180 L324.2188,1100 L324.4141,1200 L324.6094,1190 L324.8047,1130 L325,1170 L325.1953,1110 L325.3906,1110 L325.5859,1200 L325.7813,1190 L325.9766,1170 L326.1719,1200 L326.3672,1190 L326.5625,1180 L326.7578,1180 L326.9531,1180 L327.1485,1160 L327.3438,1140 L327.5391,1160 L327.7344,1170 L327.9297,1180 L328.125,1150 L328.3203,1170 L328.5156,1200 L328.7109,1150 L328.9063,1190 L329.1016,1160 L329.2969,1170 L329.4922,1170 L329.6875,1160 L329.8828,1140 L330.0782,1190 L330.2734,1200 L330.4688,1080 L330.6641,1210 L330.8594,1170 L331.0547,1200 L331.25,1200 L331.4453,1180 L331.6406,1100 L331.8359,1200 L332.0313,1200 L332.2266,1180 L332.4219,1190 L332.6172,1150 L332.8125,1190 L333.0078,1200 L333.2031,1170 L333.3984,1160 L333.5938,1180 L333.7891,1100 L333.9844,1180 L334.1797,1160 L334.375,1180 L334.5703,1170 L334.7656,1180 L334.961,1190 L335.1563,1180 L335.3516,1150 L335.5469,1160 L335.7422,1200 L335.9375,1170 L336.1328,1180 L336.3281,1170 L336.5234,1180 L336.7188,1190 L336.9141,1160 L337.1094,1190 L337.3047,1180 L337.5,1210 L337.6953,1180 L337.8907,1180 L338.0859,1200 L338.2813,1170 L338.4766,1110 L338.6719,1190 L338.8672,1180 L339.0625,1180 L339.2578,1100 L339.4531,1160 L339.6484,1190 L339.8438,1170 L340.0391,1210 L340.2344,1190 L340.4297,1180 L340.625,1110 L340.8203,1170 L341.0156,1210 L341.2109,1200 L341.4063,1170 L341.6016,1150 L341.7969,1150 L341.9922,1180 L342.1875,1190 L342.3828,1170 L342.5781,1170 L342.7735,1190 L342.9688,1200 L343.1641,1160 L343.3594,1200 L343.5547,1160 L343.75,1150 L343.9453,1180 L344.1406,1170 L344.3359,1200 L344.5313,1200 L344.7266,1140 L344.9219,1200 L345.1172,1190 L345.3125,1170 L345.5078,1200 L345.7032,1210 L345.8984,1190 L346.0938,1130 L346.2891,1180 L346.4844,1160 L346.6797,1180 L346.875,1150 L347.0703,1160 L347.2656,1130 L347.4609,1180 L347.6563,1190 L347.8516,1190 L348.0469,1190 L348.2422,1120 L348.4375,1190 L348.6328,1190 L348.8281,1160 L349.0234,1170 L349.2188,1180 L349.4141,1150 L349.6094,1200 L349.8047,1190 L350,1200 L350.1953,1200 L350.3906,1150 L350.586,1180 L350.7813,1200 L350.9766,1190 L351.1719,1140 L351.3672,1150 L351.5625,1150 L351.7578,1170 L351.9531,1180 L352.1484,1140 L352.3438,1140 L352.5391,1200 L352.7344,1210 L352.9297,1180 L353.125,1210 L353.3203,1140 L353.5157,1200 L353.7109,1190 L353.9063,1160 L354.1016,1200 L354.2969,1180 L354.4922,1070 L354.6875,1170 L354.8828,1200 L355.0781,1180 L355.2734,1180 L355.4688,1160 L355.6641,1190 L355.8594,1170 L356.0547,1140 L356.25,1190 L356.4453,1190 L356.6406,1190 L356.8359,1160 L357.0313,1180 L357.2266,1200 L357.4219,1180 L357.6172,1170 L357.8125,1180 L358.0078,1200 L358.2031,1080 L358.3985,1170 L358.5938,1180 L358.7891,1200 L358.9844,1180 L359.1797,1050 L359.375,1170 L359.5703,1170 L359.7656,1170 L359.9609,1200 L360.1563,1190 L360.3516,1190 L360.5469,1190 L360.7422,1200 L360.9375,1200 L361.1328,1180 L361.3282,1180 L361.5234,1170 L361.7188,1170 L361.9141,1200 L362.1094,1200 L362.3047,1170 L362.5,1180 L362.6953,1120 L362.8906,1150 L363.0859,1150 L363.2813,1160 L363.4766,1180 L363.6719,1190 L363.8672,1180 L364.0625,1180 L364.2578,1200 L364.4531,1190 L364.6484,1200 L364.8438,1150 L365.0391,1210 L365.2344,1180 L365.4297,1140 L365.625,1180 L365.8203,1200 L366.0156,1190 L366.211,1190 L366.4063,1180 L366.6016,1180 L366.7969,1170 L366.9922,1190 L367.1875,1200 L367.3828,1180 L367.5781,1200 L367.7734,1200 L367.9688,1180 L368.1641,1180 L368.3594,1190 L368.5547,1150 L368.75,1200 L368.9453,1150 L369.1407,1170 L369.3359,1170 L369.5313,1190 L369.7266,1140 L369.9219,1200 L370.1172,1180 L370.3125,1170 L370.5078,1200 L370.7031,1180 L370.8984,1120 L371.0938,1090 L371.2891,1170 L371.4844,1180 L371.6797,1180 L371.875,1170 L372.0703,1180 L372.2656,1130 L372.4609,1190 L372.6563,1190 L372.8516,1180 L373.0469,1190 L373.2422,1170 L373.4375,1140 L373.6328,1170 L373.8281,1170 L374.0235,1180 L374.2188,1180 L374.4141,1190 L374.6094,1190 L374.8047,1180 L375,1200 L375.1953,1170 L375.3906,1180 L375.5859,1140 L375.7813,1170 L375.9766,1150 L376.1719,1180 L376.3672,1180 L376.5625,1090 L376.7578,1180 L376.9532,1180 L377.1484,1160 L377.3438,1200 L377.5391,1190 L377.7344,1150 L377.9297,1190 L378.125,1150 L378.3203,1170 L378.5156,1180 L378.7109,1190 L378.9063,1170 L379.1016,1200 L379.2969,1110 L379.4922,1170 L379.6875,1180 L379.8828,1200 L380.0781,1160 L380.2734,1140 L380.4688,1210 L380.6641,1200 L380.8594,1210 L381.0547,1180 L381.25,1150 L381.4453,1160 L381.6406,1140 L381.836,1190 L382.0313,1170 L382.2266,1190 L382.4219,1160 L382.6172,1180 L382.8125,1140 L383.0078,1180 L383.2031,1180 L383.3984,1160 L383.5938,1170 L383.7891,1200 L383.9844,1180 L384.1797,1170 L384.375,1190 L384.5703,1160 L384.7657,1190 L384.9609,1170 L385.1563,1180 L385.3516,1190 L385.5469,1130 L385.7422,1170 L385.9375,1190 L386.1328,1180 L386.3281,1200 L386.5234,1160 L386.7188,1200 L386.9141,1200 L387.1094,1140 L387.3047,1180 L387.5,1180 L387.6953,1180 L387.8906,1200 L388.0859,1200 L388.2813,1200 L388.4766,1180 L388.6719,1200 L388.8672,1170 L389.0625,1160 L389.2578,1120 L389.4531,1150 L389.6485,1190 L389.8438,1190 L390.0391,1170 L390.2344,1160 L390.4297,1160 L390.625,1190 L390.8203,1110 L391.0156,1180 L391.2109,1140 L391.4063,1140 L391.6016,1150 L391.7969,1180 L391.9922,1180 L392.1875,1170 L392.3828,1180 L392.5782,1170 L392.7734,1170 L392.9688,1150 L393.1641,1170 L393.3594,1200 L393.5547,1190 L393.75,1160 L393.9453,1190 L394.1406,1190 L394.3359,1190 L394.5313,1200 L394.7266,1190 L394.9219,1120 L395.1172,1180 L395.3125,1120 L395.5078,1180 L395.7031,1200 L395.8984,1180 L396.0938,1180 L396.2891,1150 L396.4844,1140 L396.6797,1200 L396.875,1180 L397.0703,1170 L397.2656,1120 L397.461,1180 L397.6563,1170 L397.8516,1190 L398.0469,1110 L398.2422,1170 L398.4375,1140 L398.6328,1180 L398.8281,1200 L399.0234,1190 L399.2188,1160 L399.4141,1200 L399.6094,1150 L399.8047,1210 L400,1140 L400.1953,1120 L400.3907,1150 L400.5859,1160 L400.7813,1170 L400.9766,1200 L401.1719,1200 L401.3672,1150 L401.5625,1140 L401.7578,1180 L401.9531,1100 L402.1484,1200 L402.3438,1200 L402.5391,1170 L402.7344,1180 L402.9297,1170 L403.125,1180 L403.3203,1210 L403.5156,1180 L403.7109,1200 L403.9063,1180 L404.1016,1200 L404.2969,1180 L404.4922,1190 L404.6875,1200 L404.8828,1200 L405.0781,1190 L405.2735,1180 L405.4688,1200 L405.6641,1160 L405.8594,1200 L406.0547,1160 L406.25,1180 L406.4453,1170 L406.6406,1160 L406.8359,1210 L407.0313,1170 L407.2266,1190 L407.4219,1200 L407.6172,1180 L407.8125,1190 L408.0078,1150 L408.2032,1200 L408.3984,1200 L408.5938,1120 L408.7891,1170 L408.9844,1150 L409.1797,1140 L409.375,1200 L409.5703,1180 L409.7656,1170 L409.9609,1190 L410.1563,1190 L410.3516,1190 L410.5469,1200 L410.7422,1190 L410.9375,1160 L411.1328,1190 L411.3281,1130 L411.5234,1180 L411.7188,1200 L411.9141,1180 L412.1094,1170 L412.3047,1160 L412.5,1190 L412.6953,1180 L412.8906,1200 L413.086,1180 L413.2813,1170 L413.4766,1210 L413.6719,1140 L413.8672,1170 L414.0625,1200 L414.2578,1190 L414.4531,1160 L414.6484,1170 L414.8438,1150 L415.0391,1190 L415.2344,1160 L415.4297,1180 L415.625,1180 L415.8203,1170 L416.0157,1150 L416.2109,1180 L416.4063,1180 L416.6016,1210 L416.7969,1190 L416.9922,1170 L417.1875,1190 L417.3828,1200 L417.5781,1200 L417.7734,1100 L417.9688,1160 L418.1641,1210 L418.3594,1180 L418.5547,1170 L418.75,1190 L418.9453,1200 L419.1406,1160 L419.3359,1160 L419.5313,1190 L419.7266,1200 L419.9219,1180 L420.1172,1180 L420.3125,1160 L420.5078,1190 L420.7031,1150 L420.8985,1200 L421.0938,1180 L421.2891,1130 L421.4844,1180 L421.6797,1180 L421.875,1180 L422.0703,1170 L422.2656,1200 L422.4609,1190 L422.6563,1180 L422.8516,1180 L423.0469,1200 L423.2422,1210 L423.4375,1170 L423.6328,1200 L423.8282,1120 L424.0234,1190 L424.2188,1170 L424.4141,1150 L424.6094,1170 L424.8047,1110 L425,1130 L425.1953,1170 L425.3906,1200 L425.5859,1180 L425.7813,1190 L425.9766,1190 L426.1719,1170 L426.3672,1180 L426.5625,1180 L426.7578,1200 L426.9531,1180 L427.1484,1200 L427.3438,1140 L427.5391,1190 L427.7344,1200 L427.9297,1160 L428.125,1150 L428.3203,1170 L428.5156,1160 L428.711,1130 L428.9063,1200 L429.1016,1200 L429.2969,1180 L429.4922,1140 L429.6875,1170 L429.8828,1160 L430.0781,1170 L430.2734,1160 L430.4688,1180 L430.6641,1200 L430.8594,1150 L431.0547,1190 L431.25,1160 L431.4453,1200 L431.6407,1140 L431.8359,1170 L432.0313,1200 L432.2266,1140 L432.4219,1200 L432.6172,1180 L432.8125,1180 L433.0078,1160 L433.2031,1140 L433.3984,1160 L433.5938,1200 L433.7891,1170 L433.9844,1180 L434.1797,1170 L434.375,1170 L434.5703,1200 L434.7656,1200 L434.9609,1200 L435.1563,1170 L435.3516,1200 L435.5469,1150 L435.7422,1170 L435.9375,1170 L436.1328,1170 L436.3281,1190 L436.5235,1170 L436.7188,1170 L436.9141,1190 L437.1094,1200 L437.3047,1190 L437.5,1200 L437.6953,1200 L437.8906,1200 L438.0859,1200 L438.2813,1200 L438.4766,1150 L438.6719,1200 L438.8672,1180 L439.0625,1180 L439.2578,1160 L439.4532,1180 L439.6484,1200 L439.8438,1190 L440.0391,1190 L440.2344,1130 L440.4297,1200 L440.625,1180 L440.8203,1200 L441.0156,1110 L441.2109,1200 L441.4063,1180 L441.6016,1200 L441.7969,1190 L441.9922,1140 L442.1875,1200 L442.3828,1170 L442.5781,1200 L442.7734,1170 L442.9688,1180 L443.1641,1150 L443.3594,1150 L443.5547,1180 " stroke="blue" fill="none" />
<text x="50" y="1270" font-family="Arial" font-size="12" fill="black">Actor Loss</text>
<text x="50" y="1285" font-family="Arial" font-size="10" fill="black">0.780187</text>
<text x="50" y="1500" font-family="Arial" font-size="10" fill="black">0.780187</text>
<path d="M50,1490 " stroke="blue" fill="none" />
<text x="50" y="1540" font-family="Arial" font-size="12" fill="black">Critic Loss</text>
<text x="50" y="1555" font-family="Arial" font-size="10" fill="black">0.002090425</text>
<text x="50" y="1770" font-family="Arial" font-size="10" fill="black">0.002090425</text>
<path d="M50,1760 " stroke="blue" fill="none" />
<text x="50" y="1810" font-family="Arial" font-size="12" fill="black">Entropy</text>
<text x="50" y="1825" font-family="Arial" font-size="10" fill="black">2</text>
<text x="50" y="2040" font-family="Arial" font-size="10" fill="black">2</text>
<path d="M50,2030 " stroke="blue" fill="none" />
<text x="750" y="710" font-family="Arial" font-size="12" fill="black">Simplified</text>
<text x="750" y="725" font-family="Arial" font-size="10" fill="black">0.05074824</text>
<text x="750" y="940" font-family="Arial" font-size="10" fill="black">0.006190918</text>
<path d="M753.5156,930 L757.2266,900.097 L760.9375,850.2408 L764.6484,864.437 L768.3594,844.4433 L772.0703,855.524 L775.7813,864.6882 L779.4922,839.6009 L783.2031,837.1323 L786.9141,870.806 L790.625,871.7631 L794.3359,843.4602 L798.0469,833.0233 L801.7578,826.2932 L805.4688,854.306 L809.1797,877.8371 L812.8906,848.4096 L816.6016,830.4739 L820.3125,845.931 L824.0234,849.4018 L827.7344,834.0428 L831.4453,837.8157 L835.1563,845.7436 L838.8672,840.4399 L842.5781,839.2326 L846.2891,862.3602 L850,866.9296 L853.7109,849.5108 L857.4219,846.2366 L861.1328,847.236 L864.8438,874.5116 L868.5547,858.3894 L872.2656,842.6531 L875.9766,873.47 L879.6875,847.0648 L883.3984,864.0009 L887.1094,848.9957 L890.8203,851.0161 L894.5313,840.8425 L898.2422,831.588 L901.9531,841.2178 L905.6641,859.8877 L909.375,866.1859 L913.0859,845.4034 L916.7969,837.502 L920.5078,829.3633 L924.2188,866.4868 L927.9297,867.8326 L931.6406,852.1732 L935.3516,828.8243 L939.0625,859.0608 L942.7734,848.2578 L946.4844,865.0781 L950.1953,833.4014 L953.9063,864.7584 L957.6172,842.0424 L961.3281,837.2406 L965.0391,860.5966 L968.75,865.4572 L972.4609,870.7345 L976.1719,812.2018 L979.8828,848.7641 L983.5938,835.0906 L987.3047,844.7276 L991.0156,854.6465 L994.7266,849.1945 L998.4375,861.1972 L1002.148,865.3128 L1005.859,849.1284 L1009.57,843.6866 L1013.281,851.7207 L1016.992,857.0655 L1020.703,854.1208 L1024.414,862.1513 L1028.125,847.3306 L1031.836,840.2272 L1035.547,827.105 L1039.258,834.2845 L1042.969,855.2693 L1046.68,861.685 L1050.391,829.4355 L1054.102,863.9377 L1057.813,849.6073 L1061.523,855.0226 L1065.234,834.8233 L1068.945,838.9085 L1072.656,871.1231 L1076.367,830.275 L1080.078,819.9564 L1083.789,848.1218 L1087.5,856.223 L1091.211,853.0121 L1094.922,834.7227 L1098.633,822.1483 L1102.344,866.702 L1106.055,852.4268 L1109.766,854.415 L1113.477,853.7128 L1117.188,827.2079 L1120.898,841.421 L1124.609,818.821 L1128.32,873.7452 L1132.031,826.9581 L1135.742,850.6986 L1139.453,863.3513 L1143.164,869.3073 L1143.555,730.0001 " stroke="blue" fill="none" />
<text x="750" y="980" font-family="Arial" font-size="12" fill="black">Simplified</text>
<text x="750" y="995" font-family="Arial" font-size="10" fill="black">6.631579</text>
<text x="750" y="1210" font-family="Arial" font-size="10" fill="black">1.789474</text>
<path d="M753.5156,1200 L757.2266,1167.391 L760.9375,1130.435 L764.6484,1115.217 L768.3594,1067.391 L772.0703,1078.261 L775.7813,1082.609 L779.4922,1058.696 L783.2031,1028.261 L786.9141,1080.435 L790.625,1058.696 L794.3359,1039.13 L798.0469,1006.522 L801.7578,1036.957 L805.4688,1063.043 L809.1797,1100 L812.8906,1039.13 L816.6016,1052.174 L820.3125,1032.609 L824.0234,1063.043 L827.7344,1026.087 L831.4453,1045.652 L835.1563,1063.043 L838.8672,1043.478 L842.5781,1041.304 L846.2891,1060.87 L850,1045.652 L853.7109,1004.348 L857.4219,1045.652 L861.1328,1034.783 L864.8438,1069.565 L868.5547,1006.522 L872.2656,1000 L875.9766,1060.87 L879.6875,1023.913 L883.3984,1045.652 L887.1094,1034.783 L890.8203,1026.087 L894.5313,1041.304 L898.2422,1050 L901.9531,1052.174 L905.6641,1052.174 L909.375,1043.478 L913.0859,1036.957 L916.7969,1019.565 L920.5078,1041.304 L924.2188,1026.087 L927.9297,1067.391 L931.6406,1060.87 L935.3516,1023.913 L939.0625,1052.174 L942.7734,1002.174 L946.4844,1047.826 L950.1953,1056.522 L953.9063,1060.87 L957.6172,1052.174 L961.3281,1002.174 L965.0391,1069.565 L968.75,1041.304 L972.4609,1043.478 L976.1719,1050 L979.8828,1047.826 L983.5938,1010.87 L987.3047,1039.13 L991.0156,1073.913 L994.7266,1017.391 L998.4375,1030.435 L1002.148,1054.348 L1005.859,1047.826 L1009.57,1069.565 L1013.281,1073.913 L1016.992,1047.826 L1020.703,1030.435 L1024.414,1039.13 L1028.125,1010.87 L1031.836,1028.261 L1035.547,1034.783 L1039.258,1045.652 L1042.969,1054.348 L1046.68,1056.522 L1050.391,1039.13 L1054.102,1047.826 L1057.813,1036.957 L1061.523,1034.783 L1065.234,1054.348 L1068.945,1073.913 L1072.656,1019.565 L1076.367,1043.478 L1080.078,1023.913 L1083.789,1043.478 L1087.5,1054.348 L1091.211,1030.435 L1094.922,1039.13 L1098.633,1006.522 L1102.344,1023.913 L1106.055,1091.304 L1109.766,1047.826 L1113.477,1076.087 L1117.188,1047.826 L1120.898,1058.696 L1124.609,1052.174 L1128.32,1039.13 L1132.031,1032.609 L1135.742,1050 L1139.453,1084.783 L1143.164,1058.696 L1143.555,1005.435 " stroke="blue" fill="none" />
</svg>
