<svg width="2000" height="2500" xmlns="http://www.w3.org/2000/svg">
<text x="10" y="20" font-family="Arial" font-size="26" fill="black"> [HumanWalk] Training Session</text>
<text x="10" y="50" font-family="Arial" font-size="16" fill="black">[Statistics]</text>
<text x="50" y="70" font-family="Arial" font-size="12" fill="black">Started at: 12:14:08 AM, Tuesday, December 5, 2023</text>
<text x="50" y="90" font-family="Arial" font-size="12" fill="black">Finished at: 12:15:21 AM, Tuesday, December 5, 2023</text>
<text x="50" y="110" font-family="Arial" font-size="12" fill="black">Training Session Time: 0 hrs : 1 min : 12 sec</text>
<text x="50" y="130" font-family="Arial" font-size="12" fill="black">Inference Time: 0 hrs : 3 min : 15 sec       [Per agent: 0 hrs : 3 min : 15 sec]        [Device: CPU]</text>
<text x="50" y="150" font-family="Arial" font-size="12" fill="black">Policy Update Time: 0 hrs : 0 min : 49 sec        [Per iteration: 0 hrs : 0 min : 24 sec]        [Device: GPU]</text>
<text x="50" y="170" font-family="Arial" font-size="12" fill="black">Inference Time / Training Session Time: 2.340</text>
<text x="50" y="190" font-family="Arial" font-size="12" fill="black">Policy Update Time / Training Session Time: 0.707</text>
<text x="50" y="210" font-family="Arial" font-size="12" fill="black">Episode Count: 211</text>
<text x="50" y="230" font-family="Arial" font-size="12" fill="black">Inference Steps: 4971    [Per agent: 4971]     [Per Episode (mean): 23]</text>
<text x="50" y="250" font-family="Arial" font-size="12" fill="black">Iterations: 2</text>
<text x="50" y="270" font-family="Arial" font-size="12" fill="black">Parallel Agents: 1</text>
<text x="50" y="290" font-family="Arial" font-size="12" fill="black">Timescale: 9</text>
<text x="50" y="310" font-family="Arial" font-size="12" fill="black">Trainer: PPO</text>
<text x="10" y="360" font-family="Arial" font-size="16" fill="black">[Hyperparameters]</text>
<text x="50" y="380" font-family="Arial" font-size="12" fill="black">Buffer Size: 2048        [Batch Size: 128       (x16)]</text>
<text x="50" y="400" font-family="Arial" font-size="12" fill="black">Num Epoch: 8</text>
<text x="50" y="420" font-family="Arial" font-size="12" fill="black">Time Horizon: 72</text>
<text x="50" y="440" font-family="Arial" font-size="12" fill="black">Gradient Cliping Normalization: 0.5</text>
<text x="50" y="460" font-family="Arial" font-size="12" fill="black">Learning Rate Schedule: False    </text>
<text x="10" y="510" font-family="Arial" font-size="16" fill="black">[Behaviour]</text>
<text x="50" y="530" font-family="Arial" font-size="12" fill="black">Space Size: 189</text>
<text x="50" y="550" font-family="Arial" font-size="12" fill="black">Continuous Actions: 40 [Standard Deviation: Trainable]     </text>
<text x="50" y="570" font-family="Arial" font-size="12" fill="black">Discrete Actions: 0</text>
<text x="50" y="590" font-family="Arial" font-size="12" fill="black">TargetFPS: 50 (physics update rate)</text>
<text x="50" y="610" font-family="Arial" font-size="12" fill="black">Observations Normalization: True</text>
<text x="10" y="660" font-family="Arial" font-size="16" fill="black">[Decision Requester]</text>
<text x="50" y="680" font-family="Arial" font-size="12" fill="black">Max Step: 0</text>
<text x="50" y="700" font-family="Arial" font-size="12" fill="black">Decision Period: 2      [Actions Between Decisions: True]</text>
<text x="10" y="750" font-family="Arial" font-size="16" fill="black">[Graphs]</text>
<text x="50" y="770" font-family="Arial" font-size="12" fill="black">Episode Reward (211)</text>
<text x="50" y="785" font-family="Arial" font-size="10" fill="black">1.020678</text>
<text x="50" y="1000" font-family="Arial" font-size="10" fill="black">0.1528937</text>
<path d="M50,910.8043 L51.5625,967.3256 L53.125,911.6279 L54.6875,958.8765 L56.25,873.3193 L57.8125,974.5184 L59.375,902.9238 L60.9375,938.9053 L62.5,911.4874 L64.0625,885.4009 L65.625,852.5814 L67.1875,907.7991 L68.75,918.0595 L70.3125,985.8179 L71.875,908.6845 L73.4375,905.9114 L75,875.1113 L76.5625,947.1537 L78.125,921.7456 L79.6875,904.6989 L81.25,949.6515 L82.8125,953.2289 L84.375,965.5085 L85.9375,918.5803 L87.5,914.2797 L89.0625,897.4694 L90.625,922.2973 L92.1875,930.8136 L93.75,933.5336 L95.3125,914.4732 L96.875,924.6827 L98.4375,897.8492 L100,926.5598 L101.5625,920.1885 L103.125,885.1414 L104.6875,895.5757 L106.25,951.3741 L107.8125,964.1688 L109.375,828.7682 L110.9375,966.2708 L112.5,979.3134 L114.0625,790 L115.625,971.1711 L117.1875,890.6227 L118.75,929.8716 L120.3125,956.0259 L121.875,917.6253 L123.4375,907.049 L125,930.3917 L126.5625,949.5923 L128.125,955.7086 L129.6875,970.0965 L131.25,943.9843 L132.8125,905.9902 L134.375,945.3062 L135.9375,946.679 L137.5,957.2087 L139.0625,864.3297 L140.625,875.6857 L142.1875,962.2795 L143.75,970.6603 L145.3125,823.4513 L146.875,953.4428 L148.4375,858.9758 L150,973.4127 L151.5625,990 L153.125,964.4058 L154.6875,949.7838 L156.25,874.1767 L157.8125,916.8901 L159.375,949.5553 L160.9375,987.7162 L162.5,948.4559 L164.0625,891.6224 L165.625,860.5219 L167.1875,979.7017 L168.75,898.6996 L170.3125,884.2217 L171.875,869.598 L173.4375,920.2985 L175,946.4564 L176.5625,888.9485 L178.125,910.3146 L179.6875,973.243 L181.25,886.1854 L182.8125,932.4974 L184.375,905.5347 L185.9375,923.4892 L187.5,923.2109 L189.0625,957.4756 L190.625,939.1937 L192.1875,985.5267 L193.75,961.3314 L195.3125,933.9889 L196.875,930.0454 L198.4375,907.6697 L200,952.3023 L201.5625,950.0599 L203.125,869.7185 L204.6875,885.8447 L206.25,967.5308 L207.8125,970.0096 L209.375,910.8655 L210.9375,952.9393 L212.5,929.246 L214.0625,925.9135 L215.625,948.8712 L217.1875,925.0439 L218.75,864.5937 L220.3125,935.6792 L221.875,940.8373 L223.4375,936.3069 L225,869.9714 L226.5625,930.0492 L228.125,941.5522 L229.6875,917.0139 L231.25,949.8886 L232.8125,922.932 L234.375,898.3685 L235.9375,924.4096 L237.5,959.1014 L239.0625,918.1213 L240.625,906.6783 L242.1875,886.4111 L243.75,946.6187 L245.3125,869.8029 L246.875,935.3746 L248.4375,934.5605 L250,894.8054 L251.5625,933.3392 L253.125,895.8078 L254.6875,903.5726 L256.25,976.8566 L257.8125,946.5286 L259.375,939.0849 L260.9375,889.4684 L262.5,908.6684 L264.0625,976.6705 L265.625,924.5891 L267.1875,920.7275 L268.75,913.1152 L270.3125,917.4393 L271.875,924.9318 L273.4375,962.0842 L275,961.341 L276.5625,918.1663 L278.125,933.3663 L279.6875,933.3852 L281.25,938.9081 L282.8125,890.5369 L284.375,937.0645 L285.9375,920.6444 L287.5,958.0433 L289.0625,942.4132 L290.625,934.4255 L292.1875,959.0528 L293.75,936.4262 L295.3125,926.4542 L296.875,971.0566 L298.4375,936.8099 L300,922.5144 L301.5625,891.5676 L303.125,869.8615 L304.6875,946.9528 L306.25,913.7462 L307.8125,919.7567 L309.375,930.5693 L310.9375,914.4605 L312.5,953.0832 L314.0625,886.0511 L315.625,912.8411 L317.1875,926.2786 L318.75,952.1125 L320.3125,973.6354 L321.875,989.0081 L323.4375,918.77 L325,923.6478 L326.5625,959.1382 L328.125,934.3139 L329.6875,953.7726 L331.25,937.9075 L332.8125,967.0325 L334.375,828.9213 L335.9375,914.0224 L337.5,905.2418 L339.0625,898.6201 L340.625,936.8022 L342.1875,905.1905 L343.75,908.905 L345.3125,901.193 L346.875,970.9008 L348.4375,900.5522 L350,910.4673 L351.5625,938.1986 L353.125,904.6564 L354.6875,926.7051 L356.25,878.3165 L357.8125,948.8609 L359.375,949.5407 L360.9375,938.0291 L362.5,947.4185 L364.0625,827.0576 L365.625,906.5163 L367.1875,951.0274 L368.75,927.6324 L370.3125,933.5714 L371.875,918.5663 L373.4375,908.0513 L375,968.8704 L376.5625,953.8032 L378.125,928.1091 " stroke="blue" fill="none" />
<text x="50" y="1040" font-family="Arial" font-size="12" fill="black">Episode Length (211)</text>
<text x="50" y="1055" font-family="Arial" font-size="10" fill="black">43</text>
<text x="50" y="1270" font-family="Arial" font-size="10" fill="black">10</text>
<path d="M50,1169.091 L51.5625,1211.515 L53.125,1156.97 L54.6875,1217.576 L56.25,1126.667 L57.8125,1241.818 L59.375,1144.849 L60.9375,1199.394 L62.5,1175.151 L64.0625,1138.788 L65.625,1114.545 L67.1875,1163.03 L68.75,1163.03 L70.3125,1260 L71.875,1156.97 L73.4375,1156.97 L75,1138.788 L76.5625,1187.273 L78.125,1187.273 L79.6875,1163.03 L81.25,1211.515 L82.8125,1211.515 L84.375,1211.515 L85.9375,1163.03 L87.5,1156.97 L89.0625,1150.909 L90.625,1163.03 L92.1875,1181.212 L93.75,1175.151 L95.3125,1156.97 L96.875,1169.091 L98.4375,1156.97 L100,1187.273 L101.5625,1150.909 L103.125,1132.727 L104.6875,1132.727 L106.25,1199.394 L107.8125,1211.515 L109.375,1108.485 L110.9375,1205.455 L112.5,1247.879 L114.0625,1072.121 L115.625,1223.636 L117.1875,1138.788 L118.75,1181.212 L120.3125,1205.455 L121.875,1144.849 L123.4375,1169.091 L125,1169.091 L126.5625,1199.394 L128.125,1205.455 L129.6875,1217.576 L131.25,1181.212 L132.8125,1163.03 L134.375,1199.394 L135.9375,1187.273 L137.5,1205.455 L139.0625,1114.545 L140.625,1126.667 L142.1875,1217.576 L143.75,1229.697 L145.3125,1096.364 L146.875,1217.576 L148.4375,1108.485 L150,1223.636 L151.5625,1260 L153.125,1229.697 L154.6875,1187.273 L156.25,1126.667 L157.8125,1169.091 L159.375,1205.455 L160.9375,1260 L162.5,1205.455 L164.0625,1144.849 L165.625,1120.606 L167.1875,1247.879 L168.75,1156.97 L170.3125,1138.788 L171.875,1126.667 L173.4375,1156.97 L175,1199.394 L176.5625,1144.849 L178.125,1163.03 L179.6875,1241.818 L181.25,1150.909 L182.8125,1187.273 L184.375,1156.97 L185.9375,1175.151 L187.5,1163.03 L189.0625,1211.515 L190.625,1181.212 L192.1875,1253.939 L193.75,1223.636 L195.3125,1193.333 L196.875,1181.212 L198.4375,1163.03 L200,1211.515 L201.5625,1205.455 L203.125,1138.788 L204.6875,1144.849 L206.25,1217.576 L207.8125,1229.697 L209.375,1156.97 L210.9375,1193.333 L212.5,1175.151 L214.0625,1169.091 L215.625,1193.333 L217.1875,1169.091 L218.75,1126.667 L220.3125,1187.273 L221.875,1199.394 L223.4375,1187.273 L225,1108.485 L226.5625,1175.151 L228.125,1181.212 L229.6875,1156.97 L231.25,1211.515 L232.8125,1163.03 L234.375,1150.909 L235.9375,1156.97 L237.5,1223.636 L239.0625,1169.091 L240.625,1163.03 L242.1875,1132.727 L243.75,1193.333 L245.3125,1132.727 L246.875,1187.273 L248.4375,1193.333 L250,1156.97 L251.5625,1199.394 L253.125,1144.849 L254.6875,1150.909 L256.25,1229.697 L257.8125,1205.455 L259.375,1175.151 L260.9375,1132.727 L262.5,1150.909 L264.0625,1241.818 L265.625,1169.091 L267.1875,1169.091 L268.75,1175.151 L270.3125,1175.151 L271.875,1175.151 L273.4375,1223.636 L275,1199.394 L276.5625,1175.151 L278.125,1187.273 L279.6875,1187.273 L281.25,1199.394 L282.8125,1156.97 L284.375,1193.333 L285.9375,1169.091 L287.5,1211.515 L289.0625,1193.333 L290.625,1187.273 L292.1875,1199.394 L293.75,1193.333 L295.3125,1187.273 L296.875,1235.758 L298.4375,1193.333 L300,1181.212 L301.5625,1132.727 L303.125,1126.667 L304.6875,1205.455 L306.25,1175.151 L307.8125,1169.091 L309.375,1169.091 L310.9375,1163.03 L312.5,1211.515 L314.0625,1126.667 L315.625,1163.03 L317.1875,1175.151 L318.75,1199.394 L320.3125,1241.818 L321.875,1260 L323.4375,1181.212 L325,1169.091 L326.5625,1223.636 L328.125,1187.273 L329.6875,1211.515 L331.25,1193.333 L332.8125,1205.455 L334.375,1060 L335.9375,1169.091 L337.5,1156.97 L339.0625,1156.97 L340.625,1169.091 L342.1875,1150.909 L343.75,1156.97 L345.3125,1150.909 L346.875,1235.758 L348.4375,1156.97 L350,1150.909 L351.5625,1181.212 L353.125,1156.97 L354.6875,1169.091 L356.25,1126.667 L357.8125,1199.394 L359.375,1193.333 L360.9375,1193.333 L362.5,1193.333 L364.0625,1102.424 L365.625,1150.909 L367.1875,1193.333 L368.75,1169.091 L370.3125,1181.212 L371.875,1156.97 L373.4375,1169.091 L375,1229.697 L376.5625,1199.394 L378.125,1163.03 " stroke="blue" fill="none" />
<text x="50" y="1310" font-family="Arial" font-size="12" fill="black">Policy Loss</text>
<text x="50" y="1325" font-family="Arial" font-size="10" fill="black">0.02180905</text>
<text x="50" y="1540" font-family="Arial" font-size="10" fill="black">0.006898133</text>
<path d="M50,1330 L75,1484.78 L100,1514.974 L125,1530 L150,1498.429 L175,1508.241 L200,1502.489 L225,1490.715 L250,1366.025 L275,1513.194 L300,1509.523 L325,1509.849 L350,1485.908 L375,1519.299 L400,1496.327 L425,1481.192 " stroke="blue" fill="none" />
<text x="50" y="1580" font-family="Arial" font-size="12" fill="black">Value Loss</text>
<text x="50" y="1595" font-family="Arial" font-size="10" fill="black">0.000781846</text>
<text x="50" y="1810" font-family="Arial" font-size="10" fill="black">0.0002696959</text>
<path d="M50,1600.004 L75,1662.709 L100,1685.797 L125,1698.727 L150,1712.149 L175,1718.971 L200,1723.121 L225,1734.954 L250,1694.966 L275,1736.589 L300,1759.759 L325,1769.276 L350,1779.46 L375,1788.242 L400,1793.407 L425,1800 " stroke="blue" fill="none" />
<text x="50" y="1850" font-family="Arial" font-size="12" fill="black">Learning Rate</text>
<text x="50" y="1865" font-family="Arial" font-size="10" fill="black">0.0002</text>
<text x="50" y="2080" font-family="Arial" font-size="10" fill="black">0.0002</text>
<path d="M50,2070 L75,2070 L100,2070 L125,2070 L150,2070 L175,2070 L200,2070 L225,2070 L250,2070 L275,2070 L300,2070 L325,2070 L350,2070 L375,2070 L400,2070 L425,2070 " stroke="blue" fill="none" />
<text x="50" y="2120" font-family="Arial" font-size="12" fill="black">Entropy</text>
<text x="50" y="2135" font-family="Arial" font-size="10" fill="black">-0.343969</text>
<text x="50" y="2350" font-family="Arial" font-size="10" fill="black">-0.3482605</text>
<path d="M50,2276.757 L75,2249.358 L100,2297.479 L125,2303.914 L150,2332.09 L175,2325.519 L200,2336.329 L225,2340 L250,2140 L275,2174.87 L300,2165.174 L325,2204.072 L350,2219.877 L375,2222.908 L400,2226.133 L425,2239.343 " stroke="blue" fill="none" />
<text x="750" y="770" font-family="Arial" font-size="12" fill="black">Simplified</text>
<text x="750" y="785" font-family="Arial" font-size="10" fill="black">0.4616298</text>
<text x="750" y="1000" font-family="Arial" font-size="10" fill="black">0.3656911</text>
<path d="M778.125,790 L807.8125,843.3292 L837.5,877.4154 L867.1875,855.2272 L896.875,843.417 L926.5625,844.9368 L956.25,817.2124 L985.9375,884.5779 L1015.625,869.9938 L1045.313,874.0059 L1075,836.1234 L1078.125,990 " stroke="blue" fill="none" />
<text x="750" y="1040" font-family="Arial" font-size="12" fill="black">Simplified</text>
<text x="750" y="1055" font-family="Arial" font-size="10" fill="black">24.36842</text>
<text x="750" y="1270" font-family="Arial" font-size="10" fill="black">22.57895</text>
<path d="M778.125,1083.53 L807.8125,1060 L837.5,1195.294 L867.1875,1260 L896.875,1177.647 L926.5625,1124.706 L956.25,1071.765 L985.9375,1230.588 L1015.625,1195.294 L1045.313,1189.412 L1075,1083.53 L1078.125,1212.941 " stroke="blue" fill="none" />
</svg>
