<svg width="2000" height="2500" xmlns="http://www.w3.org/2000/svg">
<text x="10" y="20" font-family="Arial" font-size="26" fill="black"> [HumanWalk] Training Session</text>
<text x="10" y="50" font-family="Arial" font-size="16" fill="black">[Statistics]</text>
<text x="50" y="70" font-family="Arial" font-size="12" fill="black">Started at: 1:21:39 PM, Tuesday, December 5, 2023</text>
<text x="50" y="90" font-family="Arial" font-size="12" fill="black">Finished at: 1:25:12 PM, Tuesday, December 5, 2023</text>
<text x="50" y="110" font-family="Arial" font-size="12" fill="black">Training Session Time: 0 hrs : 3 min : 32 sec</text>
<text x="50" y="130" font-family="Arial" font-size="12" fill="black">Inference Time: 0 hrs : 16 min : 52 sec       [Per agent: 0 hrs : 16 min : 52 sec]        [Device: CPU]</text>
<text x="50" y="150" font-family="Arial" font-size="12" fill="black">Policy Update Time: 0 hrs : 2 min : 28 sec        [Per iteration: 0 hrs : 0 min : 48 sec]        [Device: GPU]</text>
<text x="50" y="170" font-family="Arial" font-size="12" fill="black">Inference Time / Training Session Time: 4.536</text>
<text x="50" y="190" font-family="Arial" font-size="12" fill="black">Policy Update Time / Training Session Time: 0.706</text>
<text x="50" y="210" font-family="Arial" font-size="12" fill="black">Episode Count: 802</text>
<text x="50" y="230" font-family="Arial" font-size="12" fill="black">Inference Steps: 25688    [Per agent: 25688]     [Per Episode (mean): 32]</text>
<text x="50" y="250" font-family="Arial" font-size="12" fill="black">Iterations: 3</text>
<text x="50" y="270" font-family="Arial" font-size="12" fill="black">Parallel Agents: 1</text>
<text x="50" y="290" font-family="Arial" font-size="12" fill="black">Timescale: 16.86</text>
<text x="50" y="310" font-family="Arial" font-size="12" fill="black">Trainer: PPO</text>
<text x="10" y="360" font-family="Arial" font-size="16" fill="black">[Hyperparameters]</text>
<text x="50" y="380" font-family="Arial" font-size="12" fill="black">Buffer Size: 8000        [Batch Size: 400       (x20)]</text>
<text x="50" y="400" font-family="Arial" font-size="12" fill="black">Num Epoch: 10</text>
<text x="50" y="420" font-family="Arial" font-size="12" fill="black">Time Horizon: 72</text>
<text x="50" y="440" font-family="Arial" font-size="12" fill="black">Gradient Cliping Normalization: 0.5</text>
<text x="50" y="460" font-family="Arial" font-size="12" fill="black">Learning Rate Schedule: False    </text>
<text x="10" y="510" font-family="Arial" font-size="16" fill="black">[Behaviour]</text>
<text x="50" y="530" font-family="Arial" font-size="12" fill="black">Space Size: 189</text>
<text x="50" y="550" font-family="Arial" font-size="12" fill="black">Continuous Actions: 40 [Standard Deviation: Fixed]     [Value: 1.4]</text>
<text x="50" y="570" font-family="Arial" font-size="12" fill="black">Discrete Actions: 0</text>
<text x="50" y="590" font-family="Arial" font-size="12" fill="black">TargetFPS: 50 (physics update rate)</text>
<text x="50" y="610" font-family="Arial" font-size="12" fill="black">Observations Normalization: True</text>
<text x="10" y="660" font-family="Arial" font-size="16" fill="black">[Decision Requester]</text>
<text x="50" y="680" font-family="Arial" font-size="12" fill="black">Max Step: 0</text>
<text x="50" y="700" font-family="Arial" font-size="12" fill="black">Decision Period: 2      [Actions Between Decisions: True]</text>
<text x="10" y="750" font-family="Arial" font-size="16" fill="black">[Graphs]</text>
<text x="50" y="770" font-family="Arial" font-size="12" fill="black">Episode Reward (802)</text>
<text x="50" y="785" font-family="Arial" font-size="10" fill="black">1.844162</text>
<text x="50" y="1000" font-family="Arial" font-size="10" fill="black">0.2070451</text>
<path d="M50,952.0572 L50.39063,944.4871 L50.78125,930.9963 L51.17188,920.2028 L51.5625,945.4998 L51.95313,922.2662 L52.34375,965.1895 L52.73438,892.6627 L53.125,924.0304 L53.51563,900.9903 L53.90625,910.7284 L54.29688,938.1565 L54.6875,970.6383 L55.07813,926.964 L55.46875,937.7548 L55.85938,932.3445 L56.25,945.332 L56.64063,899.264 L57.03125,940.9602 L57.42188,930.239 L57.8125,939.2414 L58.20313,917.6181 L58.59375,951.8597 L58.98438,881.4608 L59.375,930.6469 L59.76563,921.5245 L60.15625,956.1808 L60.54688,947.5453 L60.9375,954.8641 L61.32813,940.6685 L61.71875,961.1371 L62.10938,925.1017 L62.5,930.9935 L62.89063,930.2019 L63.28125,909.0461 L63.67188,900.8691 L64.0625,967.6041 L64.45313,919.5031 L64.84375,915.4724 L65.23438,827.8101 L65.625,926.9861 L66.01563,920.6575 L66.40625,936.025 L66.79688,951.3282 L67.1875,956.2678 L67.57813,844.3575 L67.96875,927.3041 L68.35938,904.6508 L68.75,936.3806 L69.14063,900.8814 L69.53125,888.7587 L69.92188,906.4379 L70.3125,863.5949 L70.70313,864.9959 L71.09375,947.5649 L71.48438,943.9402 L71.875,942.5172 L72.26563,931.6517 L72.65625,945.0031 L73.04688,874.5717 L73.4375,955.9586 L73.82813,958.3812 L74.21875,932.2288 L74.60938,925.8569 L75,905.0733 L75.39063,943.2369 L75.78125,806.8497 L76.17188,900.0185 L76.5625,936.7158 L76.95313,829.3954 L77.34375,923.9419 L77.73438,934.8259 L78.125,951.8384 L78.51563,931.7309 L78.90625,949.4328 L79.29688,950.1952 L79.6875,920.6923 L80.07813,943.9464 L80.46875,941.3724 L80.85938,969.0587 L81.25,918.853 L81.64063,940.953 L82.03125,931.1244 L82.42188,936.2957 L82.8125,964.9648 L83.20313,916.1438 L83.59375,964.7028 L83.98438,920.3386 L84.375,951.4728 L84.76563,890.3635 L85.15625,955.8551 L85.54688,909.605 L85.9375,949.3235 L86.32813,939.4743 L86.71875,877.0347 L87.10938,926.4109 L87.5,921.5739 L87.89063,960.1716 L88.28125,854.2949 L88.67188,948.1603 L89.0625,947.9461 L89.45313,917.6941 L89.84375,950.3626 L90.23438,947.4591 L90.625,943.5403 L91.01563,897.178 L91.40625,941.0074 L91.79688,865.9035 L92.1875,952.2733 L92.57813,929.976 L92.96875,905.8221 L93.35938,935.6198 L93.75,919.6438 L94.14063,935.2043 L94.53125,929.5153 L94.92188,963.9827 L95.3125,925.6731 L95.70313,965.6569 L96.09375,953.3752 L96.48438,943.7499 L96.875,932.6909 L97.26563,920.6401 L97.65625,941.6953 L98.04688,932.3855 L98.4375,940.8572 L98.82813,941.2844 L99.21875,939.9531 L99.60938,806.7726 L100,864.21 L100.3906,913.3785 L100.7813,939.2101 L101.1719,959.0355 L101.5625,955.3833 L101.9531,946.1671 L102.3438,863.4055 L102.7344,902.8931 L103.125,963.0079 L103.5156,928.799 L103.9063,908.2253 L104.2969,926.0697 L104.6875,935.2726 L105.0781,937.9923 L105.4688,924.6923 L105.8594,905.5169 L106.25,937.8216 L106.6406,933.789 L107.0313,938.5201 L107.4219,926.6803 L107.8125,955.9884 L108.2031,958.9036 L108.5938,818.6726 L108.9844,949.7849 L109.375,936.4069 L109.7656,931.3151 L110.1563,928.6873 L110.5469,916.3112 L110.9375,922.2978 L111.3281,915.7198 L111.7188,910.7725 L112.1094,907.8239 L112.5,922.2118 L112.8906,935.6821 L113.2813,933.5251 L113.6719,937.0042 L114.0625,938.3801 L114.4531,860.354 L114.8438,958.5225 L115.2344,942.6647 L115.625,947.9424 L116.0156,945.985 L116.4063,940.5246 L116.7969,953.2108 L117.1875,939.0193 L117.5781,955.2435 L117.9688,819.0098 L118.3594,956.0594 L118.75,899.4431 L119.1406,875.5876 L119.5313,920.7401 L119.9219,921.2563 L120.3125,945.4561 L120.7031,940.5934 L121.0938,929.6379 L121.4844,948.3406 L121.875,934.2176 L122.2656,913.439 L122.6563,932.5057 L123.0469,928.9243 L123.4375,948.5936 L123.8281,936.7648 L124.2188,943.9145 L124.6094,936.4497 L125,894.4447 L125.3906,948.1425 L125.7813,925.8094 L126.1719,916.5798 L126.5625,939.98 L126.9531,947.2113 L127.3438,970.985 L127.7344,940.9768 L128.125,963.2393 L128.5156,974.5849 L128.9063,927.9321 L129.2969,949.3303 L129.6875,955.943 L130.0781,922.8292 L130.4688,947.6631 L130.8594,944.4421 L131.25,949.633 L131.6406,916.6324 L132.0313,950.5699 L132.4219,893.3398 L132.8125,951.9839 L133.2031,920.3474 L133.5938,907.888 L133.9844,923.2687 L134.375,929.5153 L134.7656,959.1631 L135.1563,926.4276 L135.5469,938.7451 L135.9375,954.5209 L136.3281,917.1364 L136.7188,941.0958 L137.1094,964.6044 L137.5,909.1638 L137.8906,951.3965 L138.2813,956.1434 L138.6719,952.7816 L139.0625,951.7587 L139.4531,944.2316 L139.8438,875.0452 L140.2344,938.9349 L140.625,952.2853 L141.0156,945.4754 L141.4063,964.3998 L141.7969,894.5161 L142.1875,931.95 L142.5781,916.2768 L142.9688,865.2876 L143.3594,934.209 L143.75,909.8214 L144.1406,911.4062 L144.5313,931.3565 L144.9219,935.2915 L145.3125,798.8444 L145.7031,915.0287 L146.0938,977.5972 L146.4844,911.1769 L146.875,949.3049 L147.2656,951.6719 L147.6563,929.6681 L148.0469,903.3934 L148.4375,921.2751 L148.8281,952.5009 L149.2188,899.0905 L149.6094,948.2502 L150,943.1568 L150.3906,942.598 L150.7813,928.5049 L151.1719,948.6745 L151.5625,934.2405 L151.9531,949.6212 L152.3438,969.2883 L152.7344,901.2014 L153.125,909.6036 L153.5156,926.2438 L153.9063,909.7632 L154.2969,932.3417 L154.6875,947.8181 L155.0781,898.5806 L155.4688,931.8677 L155.8594,861.2502 L156.25,944.0792 L156.6406,904.5658 L157.0313,904.4404 L157.4219,929.375 L157.8125,906.2963 L158.2031,914.5654 L158.5938,925.6348 L158.9844,925.7886 L159.375,966.2303 L159.7656,930.9808 L160.1563,924.1027 L160.5469,930.0806 L160.9375,894.1379 L161.3281,921.8997 L161.7188,927.2985 L162.1094,931.3176 L162.5,917.0555 L162.8906,929.9191 L163.2813,918.389 L163.6719,948.9517 L164.0625,960.3839 L164.4531,887.8269 L164.8438,937.988 L165.2344,945.7206 L165.625,925.2628 L166.0156,952.4715 L166.4063,928.3489 L166.7969,933.4728 L167.1875,930.1234 L167.5781,929.5808 L167.9688,965.0623 L168.3594,958.8206 L168.75,965.6341 L169.1406,950.3684 L169.5313,951.875 L169.9219,922.0452 L170.3125,973.138 L170.7031,943.3232 L171.0938,943.4059 L171.4844,826.1946 L171.875,901.5402 L172.2656,933.9571 L172.6563,860.4965 L173.0469,944.6246 L173.4375,927.6608 L173.8281,959.789 L174.2188,941.9168 L174.6094,906.8755 L175,941.6685 L175.3906,932.9534 L175.7813,921.672 L176.1719,947.5715 L176.5625,963.82 L176.9531,954.8374 L177.3438,953.3459 L177.7344,922.4416 L178.125,946.6627 L178.5156,918.8136 L178.9063,962.0609 L179.2969,924.2816 L179.6875,941.3882 L180.0781,923.7759 L180.4688,957.8813 L180.8594,929.5247 L181.25,934.2548 L181.6406,939.0427 L182.0313,934.5212 L182.4219,962.2532 L182.8125,924.9196 L183.2031,892.3533 L183.5938,966.4958 L183.9844,930.201 L184.375,907.2694 L184.7656,951.1976 L185.1563,952.8856 L185.5469,950.6565 L185.9375,951.1132 L186.3281,904.0273 L186.7188,957.0175 L187.1094,894.3484 L187.5,939.8234 L187.8906,932.5802 L188.2813,926.1956 L188.6719,912.3351 L189.0625,874.9429 L189.4531,934.7233 L189.8438,932.6422 L190.2344,944.157 L190.625,928.313 L191.0156,956.3812 L191.4063,901.3908 L191.7969,938.3267 L192.1875,889.2225 L192.5781,926.0031 L192.9688,981.5168 L193.3594,963.9803 L193.75,955.1437 L194.1406,928.1479 L194.5313,948.9031 L194.9219,937.1728 L195.3125,975.2723 L195.7031,955.8752 L196.0938,928.6529 L196.4844,894.3438 L196.875,949.1779 L197.2656,968.0428 L197.6563,937.6021 L198.0469,972.1244 L198.4375,913.019 L198.8281,910.4412 L199.2188,951.8327 L199.6094,932.6103 L200,894.3195 L200.3906,926.8347 L200.7813,953.2781 L201.1719,868.1462 L201.5625,955.2953 L201.9531,961.7651 L202.3438,959.2904 L202.7344,888.6632 L203.125,968.0486 L203.5156,964.2319 L203.9063,885.8196 L204.2969,959.2065 L204.6875,938.7566 L205.0781,964.2266 L205.4688,918.4209 L205.8594,965.2384 L206.25,957.1917 L206.6406,946.2003 L207.0313,921.252 L207.4219,925.5411 L207.8125,953.7093 L208.2031,952.23 L208.5938,941.1529 L208.9844,952.3958 L209.375,924.1215 L209.7656,940.5417 L210.1563,824.0162 L210.5469,928.4743 L210.9375,905.6771 L211.3281,935.9637 L211.7188,926.6764 L212.1094,945.8018 L212.5,937.9426 L212.8906,918.1917 L213.2813,938.1622 L213.6719,949.1716 L214.0625,940.2229 L214.4531,954.6325 L214.8438,935.8264 L215.2344,939.7144 L215.625,932.4309 L216.0156,915.4872 L216.4063,972.7167 L216.7969,947.7507 L217.1875,978.5128 L217.5781,943.4753 L217.9688,847.826 L218.3594,953.2703 L218.75,944.7534 L219.1406,930.834 L219.5313,874.821 L219.9219,879.0789 L220.3125,941.7349 L220.7031,967.963 L221.0938,896.0986 L221.4844,938.9785 L221.875,934.5898 L222.2656,910.4127 L222.6563,921.4964 L223.0469,954.3331 L223.4375,945.2893 L223.8281,926.1916 L224.2188,911.4244 L224.6094,933.5115 L225,961.8063 L225.3906,939.6582 L225.7813,928.8838 L226.1719,942.5032 L226.5625,939.7036 L226.9531,940.9594 L227.3438,975.0745 L227.7344,883.958 L228.125,932.2632 L228.5156,949.061 L228.9063,945.7909 L229.2969,953.3505 L229.6875,990 L230.0781,942.7413 L230.4688,945.0256 L230.8594,960.817 L231.25,962.045 L231.6406,935.3138 L232.0313,916.8213 L232.4219,940.8553 L232.8125,948.0978 L233.2031,926.0547 L233.5938,947.7283 L233.9844,828.2931 L234.375,963.3256 L234.7656,885.1626 L235.1563,934.9886 L235.5469,964.1439 L235.9375,881.8594 L236.3281,940.2136 L236.7188,960.3795 L237.1094,945.9078 L237.5,945.5974 L237.8906,926.5049 L238.2813,944.8824 L238.6719,949.1966 L239.0625,929.7485 L239.4531,943.9485 L239.8438,959.0313 L240.2344,934.5975 L240.625,961.05 L241.0156,980.059 L241.4063,852.0895 L241.7969,961.793 L242.1875,931.9969 L242.5781,899.8832 L242.9688,922.8551 L243.3594,965.3591 L243.75,934.4812 L244.1406,941.2932 L244.5313,977.5042 L244.9219,901.0573 L245.3125,939.5295 L245.7031,906.9025 L246.0938,880.2354 L246.4844,917.5313 L246.875,899.4042 L247.2656,939.5708 L247.6563,963.4598 L248.0469,941.5497 L248.4375,925.0598 L248.8281,933.1896 L249.2188,922.7853 L249.6094,960.0437 L250,944.2148 L250.3906,921.9848 L250.7813,963.048 L251.1719,902.1055 L251.5625,832.352 L251.9531,975.2211 L252.3438,925.1143 L252.7344,945.2863 L253.125,932.0911 L253.5156,889.377 L253.9063,958.3521 L254.2969,927.1578 L254.6875,886.3621 L255.0781,940.2246 L255.4688,955.9249 L255.8594,924.7772 L256.25,885.1753 L256.6406,939.8145 L257.0313,898.6541 L257.4219,923.7407 L257.8125,932.8939 L258.2031,893.723 L258.5938,929.4954 L258.9844,951.3166 L259.375,941.9197 L259.7656,943.1648 L260.1563,937.071 L260.5469,961.0098 L260.9375,977.382 L261.3281,944.9153 L261.7188,941.2642 L262.1094,941.2229 L262.5,940.1921 L262.8906,926.5897 L263.2813,928.82 L263.6719,916.3697 L264.0625,898.9434 L264.4531,918.8721 L264.8438,929.8389 L265.2344,967.955 L265.625,923.7251 L266.0156,944.537 L266.4063,939.7256 L266.7969,928.8555 L267.1875,922.9471 L267.5781,908.4685 L267.9688,954.0292 L268.3594,912.1111 L268.75,896.3896 L269.1406,952.3157 L269.5313,943.236 L269.9219,935.414 L270.3125,969.493 L270.7031,947.8655 L271.0938,876.7148 L271.4844,951.0776 L271.875,822.4432 L272.2656,914.2652 L272.6563,947.4196 L273.0469,897.1293 L273.4375,931.0542 L273.8281,934.4706 L274.2188,962.4182 L274.6094,934.9968 L275,919.8518 L275.3906,938.4827 L275.7813,944.9187 L276.1719,907.168 L276.5625,948.1855 L276.9531,954.3224 L277.3438,897.7103 L277.7344,929.1638 L278.125,948.1683 L278.5156,907.0942 L278.9063,961.5614 L279.2969,924.6392 L279.6875,940.917 L280.0781,851.5978 L280.4688,926.1422 L280.8594,892.4844 L281.25,931.0289 L281.6406,939.7871 L282.0313,935.7062 L282.4219,944.0772 L282.8125,970.4359 L283.2031,940.1254 L283.5938,959.9905 L283.9844,926.3055 L284.375,912.6963 L284.7656,918.2981 L285.1563,925.6586 L285.5469,961.4396 L285.9375,949.3067 L286.3281,914.4345 L286.7188,947.8678 L287.1094,936.15 L287.5,933.8608 L287.8906,940.3563 L288.2813,957.5112 L288.6719,985.8732 L289.0625,913.6312 L289.4531,957.9031 L289.8438,881.2468 L290.2344,928.4899 L290.625,952.4356 L291.0156,905.3914 L291.4063,889.0677 L291.7969,915.8264 L292.1875,953.6331 L292.5781,960.3418 L292.9688,946.0803 L293.3594,922.1214 L293.75,910.2596 L294.1406,953.1965 L294.5313,945.5582 L294.9219,934.8705 L295.3125,890.9359 L295.7031,951.116 L296.0938,934.6821 L296.4844,936.443 L296.875,960.2316 L297.2656,934.6151 L297.6563,931.9795 L298.0469,943.2483 L298.4375,918.6673 L298.8281,930.4903 L299.2188,941.4182 L299.6094,960.4304 L300,908.3613 L300.3906,927.5597 L300.7813,942.1613 L301.1719,916.7927 L301.5625,940.7068 L301.9531,921.4993 L302.3438,949.9459 L302.7344,947.069 L303.125,972.7235 L303.5156,920.5455 L303.9063,892.478 L304.2969,938.6395 L304.6875,903.4267 L305.0781,919.9907 L305.4688,931.0686 L305.8594,927.3459 L306.25,944.2664 L306.6407,956.1736 L307.0313,949.4316 L307.4219,895.487 L307.8125,893.8489 L308.2031,944.8081 L308.5938,923.8033 L308.9844,940.1375 L309.375,939.1228 L309.7656,962.4807 L310.1563,897.895 L310.5469,935.5954 L310.9375,956.0925 L311.3281,962.1801 L311.7188,877.752 L312.1094,946.8233 L312.5,941.639 L312.8906,909.9522 L313.2813,984.1385 L313.6719,941.5925 L314.0625,905.1487 L314.4532,932.2461 L314.8438,957.5438 L315.2344,934.6971 L315.625,884.6369 L316.0156,955.9987 L316.4063,918.3824 L316.7969,937.5937 L317.1875,936.7972 L317.5781,920.084 L317.9688,962.9425 L318.3594,905.4223 L318.75,953.062 L319.1406,963.4065 L319.5313,965.2306 L319.9219,942.8892 L320.3125,935.7647 L320.7031,937.9741 L321.0938,932.502 L321.4844,916.7215 L321.875,947.3737 L322.2657,939.3262 L322.6563,926.5959 L323.0469,939.2014 L323.4375,945.7836 L323.8281,906.6811 L324.2188,916.5011 L324.6094,974.9655 L325,951.47 L325.3906,904.4293 L325.7813,914.5294 L326.1719,945.2872 L326.5625,904.2644 L326.9531,941.5256 L327.3438,936.2395 L327.7344,946.1171 L328.125,921.1855 L328.5156,964.0584 L328.9063,934.8793 L329.2969,899.6204 L329.6875,942.1379 L330.0782,897.7855 L330.4688,972.3843 L330.8594,948.6564 L331.25,950.6776 L331.6406,888.8777 L332.0313,893.6688 L332.4219,937.145 L332.8125,943.175 L333.2031,924.3572 L333.5938,891.0705 L333.9844,932.5646 L334.375,938.3358 L334.7656,908.5562 L335.1563,913.8653 L335.5469,915.8824 L335.9375,937.4861 L336.3281,953.6295 L336.7188,915.3508 L337.1094,957.1778 L337.5,910.154 L337.8907,825.157 L338.2813,925.9528 L338.6719,933.1848 L339.0625,931.8539 L339.4531,883.0178 L339.8438,940.6262 L340.2344,909.2958 L340.625,842.3929 L341.0156,946.2662 L341.4063,922.1359 L341.7969,915.4649 L342.1875,927.4541 L342.5781,790 L342.9688,955.6985 L343.3594,953.8397 L343.75,935.8111 L344.1406,946.981 L344.5313,904.9537 L344.9219,939.7836 L345.3125,922.8591 L345.7032,920.2627 L346.0938,953.2654 L346.4844,959.9004 L346.875,921.5427 L347.2656,953.616 L347.6563,917.1046 L348.0469,958.5815 L348.4375,920.3699 L348.8281,925.4619 L349.2188,950.5479 L349.6094,929.5414 L350,932.9585 L350.3906,941.1494 L350.7813,932.3005 L351.1719,946.397 L351.5625,952.4626 L351.9531,898.2453 L352.3438,937.1602 L352.7344,896.9968 L353.125,957.4285 L353.5157,937.5154 L353.9063,926.4258 L354.2969,941.9226 L354.6875,940.449 L355.0781,926.7797 L355.4688,919.9061 L355.8594,961.7997 L356.25,875.7825 L356.6406,940.2049 L357.0313,914.1812 L357.4219,966.9572 L357.8125,908.8732 L358.2031,972.3212 L358.5938,956.5003 L358.9844,939.8341 L359.375,958.9956 L359.7656,932.1909 L360.1563,959.653 L360.5469,873.613 L360.9375,929.4894 L361.3282,932.89 L361.7188,938.044 L362.1094,914.5173 L362.5,915.0291 L362.8906,952.1978 " stroke="blue" fill="none" />
<text x="50" y="1040" font-family="Arial" font-size="12" fill="black">Episode Length (802)</text>
<text x="50" y="1055" font-family="Arial" font-size="10" fill="black">61</text>
<text x="50" y="1270" font-family="Arial" font-size="10" fill="black">12</text>
<path d="M50,1202.857 L50.39063,1190.612 L50.78125,1178.367 L51.17188,1166.122 L51.5625,1190.612 L51.95313,1166.122 L52.34375,1215.102 L52.73438,1145.714 L53.125,1170.204 L53.51563,1153.878 L53.90625,1149.796 L54.29688,1182.449 L54.6875,1219.184 L55.07813,1170.204 L55.46875,1182.449 L55.85938,1174.286 L56.25,1190.612 L56.64063,1149.796 L57.03125,1186.531 L57.42188,1174.286 L57.8125,1182.449 L58.20313,1153.878 L58.59375,1206.939 L58.98438,1125.306 L59.375,1174.286 L59.76563,1162.041 L60.15625,1202.857 L60.54688,1194.694 L60.9375,1211.02 L61.32813,1190.612 L61.71875,1219.184 L62.10938,1170.204 L62.5,1174.286 L62.89063,1178.367 L63.28125,1153.878 L63.67188,1149.796 L64.0625,1211.02 L64.45313,1162.041 L64.84375,1162.041 L65.23438,1088.571 L65.625,1170.204 L66.01563,1166.122 L66.40625,1186.531 L66.79688,1202.857 L67.1875,1202.857 L67.57813,1100.816 L67.96875,1174.286 L68.35938,1149.796 L68.75,1182.449 L69.14063,1149.796 L69.53125,1145.714 L69.92188,1149.796 L70.3125,1117.143 L70.70313,1121.224 L71.09375,1194.694 L71.48438,1190.612 L71.875,1190.612 L72.26563,1178.367 L72.65625,1194.694 L73.04688,1133.469 L73.4375,1202.857 L73.82813,1206.939 L74.21875,1182.449 L74.60938,1166.122 L75,1153.878 L75.39063,1190.612 L75.78125,1076.327 L76.17188,1157.959 L76.5625,1182.449 L76.95313,1096.735 L77.34375,1170.204 L77.73438,1178.367 L78.125,1202.857 L78.51563,1178.367 L78.90625,1202.857 L79.29688,1198.776 L79.6875,1170.204 L80.07813,1190.612 L80.46875,1194.694 L80.85938,1223.265 L81.25,1162.041 L81.64063,1186.531 L82.03125,1178.367 L82.42188,1182.449 L82.8125,1223.265 L83.20313,1162.041 L83.59375,1211.02 L83.98438,1174.286 L84.375,1198.776 L84.76563,1145.714 L85.15625,1202.857 L85.54688,1153.878 L85.9375,1198.776 L86.32813,1186.531 L86.71875,1129.388 L87.10938,1170.204 L87.5,1162.041 L87.89063,1202.857 L88.28125,1108.98 L88.67188,1190.612 L89.0625,1198.776 L89.45313,1162.041 L89.84375,1198.776 L90.23438,1190.612 L90.625,1190.612 L91.01563,1145.714 L91.40625,1186.531 L91.79688,1121.224 L92.1875,1202.857 L92.57813,1182.449 L92.96875,1141.633 L93.35938,1178.367 L93.75,1166.122 L94.14063,1178.367 L94.53125,1174.286 L94.92188,1206.939 L95.3125,1170.204 L95.70313,1211.02 L96.09375,1194.694 L96.48438,1190.612 L96.875,1178.367 L97.26563,1170.204 L97.65625,1190.612 L98.04688,1178.367 L98.4375,1190.612 L98.82813,1186.531 L99.21875,1186.531 L99.60938,1072.245 L100,1117.143 L100.3906,1157.959 L100.7813,1186.531 L101.1719,1206.939 L101.5625,1202.857 L101.9531,1194.694 L102.3438,1117.143 L102.7344,1153.878 L103.125,1206.939 L103.5156,1174.286 L103.9063,1153.878 L104.2969,1166.122 L104.6875,1182.449 L105.0781,1186.531 L105.4688,1166.122 L105.8594,1153.878 L106.25,1178.367 L106.6406,1178.367 L107.0313,1178.367 L107.4219,1170.204 L107.8125,1211.02 L108.2031,1206.939 L108.5938,1084.49 L108.9844,1194.694 L109.375,1182.449 L109.7656,1174.286 L110.1563,1174.286 L110.5469,1170.204 L110.9375,1170.204 L111.3281,1162.041 L111.7188,1157.959 L112.1094,1153.878 L112.5,1166.122 L112.8906,1186.531 L113.2813,1178.367 L113.6719,1182.449 L114.0625,1182.449 L114.4531,1113.061 L114.8438,1206.939 L115.2344,1190.612 L115.625,1190.612 L116.0156,1190.612 L116.4063,1182.449 L116.7969,1202.857 L117.1875,1182.449 L117.5781,1206.939 L117.9688,1084.49 L118.3594,1202.857 L118.75,1145.714 L119.1406,1125.306 L119.5313,1162.041 L119.9219,1166.122 L120.3125,1190.612 L120.7031,1186.531 L121.0938,1178.367 L121.4844,1190.612 L121.875,1182.449 L122.2656,1166.122 L122.6563,1178.367 L123.0469,1170.204 L123.4375,1198.776 L123.8281,1178.367 L124.2188,1190.612 L124.6094,1182.449 L125,1133.469 L125.3906,1190.612 L125.7813,1174.286 L126.1719,1157.959 L126.5625,1186.531 L126.9531,1194.694 L127.3438,1219.184 L127.7344,1182.449 L128.125,1211.02 L128.5156,1223.265 L128.9063,1174.286 L129.2969,1194.694 L129.6875,1206.939 L130.0781,1170.204 L130.4688,1194.694 L130.8594,1190.612 L131.25,1198.776 L131.6406,1166.122 L132.0313,1194.694 L132.4219,1137.551 L132.8125,1198.776 L133.2031,1166.122 L133.5938,1162.041 L133.9844,1170.204 L134.375,1170.204 L134.7656,1202.857 L135.1563,1166.122 L135.5469,1186.531 L135.9375,1202.857 L136.3281,1166.122 L136.7188,1194.694 L137.1094,1219.184 L137.5,1149.796 L137.8906,1198.776 L138.2813,1202.857 L138.6719,1198.776 L139.0625,1206.939 L139.4531,1194.694 L139.8438,1121.224 L140.2344,1182.449 L140.625,1198.776 L141.0156,1202.857 L141.4063,1211.02 L141.7969,1141.633 L142.1875,1174.286 L142.5781,1157.959 L142.9688,1113.061 L143.3594,1174.286 L143.75,1157.959 L144.1406,1162.041 L144.5313,1170.204 L144.9219,1182.449 L145.3125,1072.245 L145.7031,1162.041 L146.0938,1227.347 L146.4844,1157.959 L146.875,1198.776 L147.2656,1198.776 L147.6563,1174.286 L148.0469,1145.714 L148.4375,1166.122 L148.8281,1198.776 L149.2188,1145.714 L149.6094,1190.612 L150,1190.612 L150.3906,1194.694 L150.7813,1174.286 L151.1719,1194.694 L151.5625,1178.367 L151.9531,1194.694 L152.3438,1223.265 L152.7344,1153.878 L153.125,1157.959 L153.5156,1174.286 L153.9063,1157.959 L154.2969,1174.286 L154.6875,1194.694 L155.0781,1153.878 L155.4688,1174.286 L155.8594,1117.143 L156.25,1190.612 L156.6406,1153.878 L157.0313,1153.878 L157.4219,1170.204 L157.8125,1153.878 L158.2031,1162.041 L158.5938,1178.367 L158.9844,1166.122 L159.375,1219.184 L159.7656,1178.367 L160.1563,1166.122 L160.5469,1174.286 L160.9375,1141.633 L161.3281,1170.204 L161.7188,1174.286 L162.1094,1178.367 L162.5,1166.122 L162.8906,1174.286 L163.2813,1166.122 L163.6719,1198.776 L164.0625,1219.184 L164.4531,1133.469 L164.8438,1186.531 L165.2344,1198.776 L165.625,1170.204 L166.0156,1198.776 L166.4063,1174.286 L166.7969,1178.367 L167.1875,1174.286 L167.5781,1174.286 L167.9688,1215.102 L168.3594,1206.939 L168.75,1211.02 L169.1406,1198.776 L169.5313,1198.776 L169.9219,1170.204 L170.3125,1223.265 L170.7031,1186.531 L171.0938,1194.694 L171.4844,1084.49 L171.875,1145.714 L172.2656,1182.449 L172.6563,1121.224 L173.0469,1190.612 L173.4375,1178.367 L173.8281,1206.939 L174.2188,1190.612 L174.6094,1149.796 L175,1190.612 L175.3906,1178.367 L175.7813,1170.204 L176.1719,1194.694 L176.5625,1211.02 L176.9531,1202.857 L177.3438,1202.857 L177.7344,1162.041 L178.125,1194.694 L178.5156,1166.122 L178.9063,1211.02 L179.2969,1170.204 L179.6875,1186.531 L180.0781,1166.122 L180.4688,1202.857 L180.8594,1178.367 L181.25,1182.449 L181.6406,1190.612 L182.0313,1182.449 L182.4219,1211.02 L182.8125,1170.204 L183.2031,1141.633 L183.5938,1227.347 L183.9844,1174.286 L184.375,1153.878 L184.7656,1194.694 L185.1563,1202.857 L185.5469,1198.776 L185.9375,1194.694 L186.3281,1153.878 L186.7188,1211.02 L187.1094,1145.714 L187.5,1182.449 L187.8906,1174.286 L188.2813,1174.286 L188.6719,1162.041 L189.0625,1125.306 L189.4531,1178.367 L189.8438,1174.286 L190.2344,1194.694 L190.625,1178.367 L191.0156,1202.857 L191.4063,1149.796 L191.7969,1186.531 L192.1875,1141.633 L192.5781,1170.204 L192.9688,1227.347 L193.3594,1219.184 L193.75,1198.776 L194.1406,1178.367 L194.5313,1194.694 L194.9219,1182.449 L195.3125,1231.429 L195.7031,1202.857 L196.0938,1178.367 L196.4844,1141.633 L196.875,1198.776 L197.2656,1215.102 L197.6563,1182.449 L198.0469,1223.265 L198.4375,1157.959 L198.8281,1153.878 L199.2188,1190.612 L199.6094,1178.367 L200,1145.714 L200.3906,1174.286 L200.7813,1202.857 L201.1719,1125.306 L201.5625,1202.857 L201.9531,1211.02 L202.3438,1206.939 L202.7344,1137.551 L203.125,1219.184 L203.5156,1211.02 L203.9063,1129.388 L204.2969,1202.857 L204.6875,1186.531 L205.0781,1211.02 L205.4688,1170.204 L205.8594,1211.02 L206.25,1202.857 L206.6406,1198.776 L207.0313,1166.122 L207.4219,1162.041 L207.8125,1202.857 L208.2031,1206.939 L208.5938,1194.694 L208.9844,1206.939 L209.375,1166.122 L209.7656,1182.449 L210.1563,1084.49 L210.5469,1178.367 L210.9375,1153.878 L211.3281,1178.367 L211.7188,1170.204 L212.1094,1198.776 L212.5,1186.531 L212.8906,1162.041 L213.2813,1178.367 L213.6719,1194.694 L214.0625,1186.531 L214.4531,1206.939 L214.8438,1178.367 L215.2344,1190.612 L215.625,1174.286 L216.0156,1162.041 L216.4063,1227.347 L216.7969,1194.694 L217.1875,1227.347 L217.5781,1194.694 L217.9688,1104.898 L218.3594,1198.776 L218.75,1194.694 L219.1406,1174.286 L219.5313,1125.306 L219.9219,1125.306 L220.3125,1186.531 L220.7031,1211.02 L221.0938,1137.551 L221.4844,1182.449 L221.875,1178.367 L222.2656,1157.959 L222.6563,1162.041 L223.0469,1202.857 L223.4375,1186.531 L223.8281,1170.204 L224.2188,1157.959 L224.6094,1178.367 L225,1206.939 L225.3906,1186.531 L225.7813,1174.286 L226.1719,1190.612 L226.5625,1182.449 L226.9531,1186.531 L227.3438,1227.347 L227.7344,1129.388 L228.125,1182.449 L228.5156,1202.857 L228.9063,1190.612 L229.2969,1202.857 L229.6875,1260 L230.0781,1186.531 L230.4688,1194.694 L230.8594,1206.939 L231.25,1211.02 L231.6406,1178.367 L232.0313,1162.041 L232.4219,1198.776 L232.8125,1202.857 L233.2031,1174.286 L233.5938,1194.694 L233.9844,1088.571 L234.375,1211.02 L234.7656,1133.469 L235.1563,1182.449 L235.5469,1215.102 L235.9375,1129.388 L236.3281,1186.531 L236.7188,1211.02 L237.1094,1194.694 L237.5,1190.612 L237.8906,1166.122 L238.2813,1190.612 L238.6719,1198.776 L239.0625,1174.286 L239.4531,1190.612 L239.8438,1211.02 L240.2344,1178.367 L240.625,1206.939 L241.0156,1223.265 L241.4063,1113.061 L241.7969,1211.02 L242.1875,1174.286 L242.5781,1149.796 L242.9688,1170.204 L243.3594,1215.102 L243.75,1178.367 L244.1406,1182.449 L244.5313,1243.673 L244.9219,1153.878 L245.3125,1186.531 L245.7031,1157.959 L246.0938,1129.388 L246.4844,1157.959 L246.875,1145.714 L247.2656,1182.449 L247.6563,1211.02 L248.0469,1186.531 L248.4375,1170.204 L248.8281,1182.449 L249.2188,1170.204 L249.6094,1202.857 L250,1194.694 L250.3906,1170.204 L250.7813,1211.02 L251.1719,1149.796 L251.5625,1092.653 L251.9531,1227.347 L252.3438,1166.122 L252.7344,1190.612 L253.125,1178.367 L253.5156,1137.551 L253.9063,1206.939 L254.2969,1174.286 L254.6875,1141.633 L255.0781,1190.612 L255.4688,1202.857 L255.8594,1170.204 L256.25,1137.551 L256.6406,1186.531 L257.0313,1145.714 L257.4219,1170.204 L257.8125,1178.367 L258.2031,1133.469 L258.5938,1174.286 L258.9844,1198.776 L259.375,1194.694 L259.7656,1190.612 L260.1563,1182.449 L260.5469,1219.184 L260.9375,1231.429 L261.3281,1194.694 L261.7188,1186.531 L262.1094,1186.531 L262.5,1190.612 L262.8906,1170.204 L263.2813,1170.204 L263.6719,1157.959 L264.0625,1145.714 L264.4531,1170.204 L264.8438,1174.286 L265.2344,1215.102 L265.625,1170.204 L266.0156,1186.531 L266.4063,1190.612 L266.7969,1178.367 L267.1875,1170.204 L267.5781,1157.959 L267.9688,1202.857 L268.3594,1162.041 L268.75,1137.551 L269.1406,1194.694 L269.5313,1190.612 L269.9219,1178.367 L270.3125,1231.429 L270.7031,1194.694 L271.0938,1125.306 L271.4844,1202.857 L271.875,1084.49 L272.2656,1153.878 L272.6563,1194.694 L273.0469,1145.714 L273.4375,1170.204 L273.8281,1190.612 L274.2188,1211.02 L274.6094,1182.449 L275,1166.122 L275.3906,1178.367 L275.7813,1194.694 L276.1719,1157.959 L276.5625,1194.694 L276.9531,1202.857 L277.3438,1137.551 L277.7344,1178.367 L278.125,1198.776 L278.5156,1157.959 L278.9063,1211.02 L279.2969,1174.286 L279.6875,1182.449 L280.0781,1108.98 L280.4688,1174.286 L280.8594,1137.551 L281.25,1182.449 L281.6406,1182.449 L282.0313,1182.449 L282.4219,1190.612 L282.8125,1223.265 L283.2031,1186.531 L283.5938,1211.02 L283.9844,1174.286 L284.375,1153.878 L284.7656,1166.122 L285.1563,1170.204 L285.5469,1211.02 L285.9375,1198.776 L286.3281,1157.959 L286.7188,1194.694 L287.1094,1178.367 L287.5,1174.286 L287.8906,1182.449 L288.2813,1211.02 L288.6719,1247.755 L289.0625,1157.959 L289.4531,1202.857 L289.8438,1129.388 L290.2344,1170.204 L290.625,1194.694 L291.0156,1153.878 L291.4063,1133.469 L291.7969,1157.959 L292.1875,1198.776 L292.5781,1211.02 L292.9688,1190.612 L293.3594,1166.122 L293.75,1153.878 L294.1406,1202.857 L294.5313,1190.612 L294.9219,1186.531 L295.3125,1137.551 L295.7031,1194.694 L296.0938,1182.449 L296.4844,1178.367 L296.875,1206.939 L297.2656,1178.367 L297.6563,1174.286 L298.0469,1190.612 L298.4375,1162.041 L298.8281,1174.286 L299.2188,1190.612 L299.6094,1206.939 L300,1157.959 L300.3906,1170.204 L300.7813,1190.612 L301.1719,1162.041 L301.5625,1194.694 L301.9531,1162.041 L302.3438,1198.776 L302.7344,1190.612 L303.125,1231.429 L303.5156,1166.122 L303.9063,1141.633 L304.2969,1186.531 L304.6875,1145.714 L305.0781,1174.286 L305.4688,1182.449 L305.8594,1174.286 L306.25,1190.612 L306.6407,1198.776 L307.0313,1194.694 L307.4219,1141.633 L307.8125,1141.633 L308.2031,1194.694 L308.5938,1170.204 L308.9844,1182.449 L309.375,1182.449 L309.7656,1211.02 L310.1563,1141.633 L310.5469,1182.449 L310.9375,1211.02 L311.3281,1215.102 L311.7188,1125.306 L312.1094,1194.694 L312.5,1186.531 L312.8906,1153.878 L313.2813,1243.673 L313.6719,1190.612 L314.0625,1153.878 L314.4532,1178.367 L314.8438,1206.939 L315.2344,1178.367 L315.625,1137.551 L316.0156,1206.939 L316.4063,1157.959 L316.7969,1186.531 L317.1875,1182.449 L317.5781,1166.122 L317.9688,1206.939 L318.3594,1153.878 L318.75,1198.776 L319.1406,1211.02 L319.5313,1219.184 L319.9219,1186.531 L320.3125,1186.531 L320.7031,1186.531 L321.0938,1178.367 L321.4844,1157.959 L321.875,1194.694 L322.2657,1190.612 L322.6563,1170.204 L323.0469,1190.612 L323.4375,1194.694 L323.8281,1145.714 L324.2188,1166.122 L324.6094,1223.265 L325,1198.776 L325.3906,1153.878 L325.7813,1157.959 L326.1719,1190.612 L326.5625,1149.796 L326.9531,1186.531 L327.3438,1186.531 L327.7344,1190.612 L328.125,1170.204 L328.5156,1211.02 L328.9063,1178.367 L329.2969,1149.796 L329.6875,1190.612 L330.0782,1149.796 L330.4688,1231.429 L330.8594,1194.694 L331.25,1198.776 L331.6406,1137.551 L332.0313,1141.633 L332.4219,1182.449 L332.8125,1190.612 L333.2031,1178.367 L333.5938,1137.551 L333.9844,1178.367 L334.375,1186.531 L334.7656,1162.041 L335.1563,1166.122 L335.5469,1157.959 L335.9375,1182.449 L336.3281,1198.776 L336.7188,1157.959 L337.1094,1202.857 L337.5,1157.959 L337.8907,1088.571 L338.2813,1170.204 L338.6719,1182.449 L339.0625,1178.367 L339.4531,1129.388 L339.8438,1186.531 L340.2344,1153.878 L340.625,1104.898 L341.0156,1194.694 L341.4063,1170.204 L341.7969,1166.122 L342.1875,1174.286 L342.5781,1060 L342.9688,1211.02 L343.3594,1202.857 L343.75,1178.367 L344.1406,1194.694 L344.5313,1157.959 L344.9219,1186.531 L345.3125,1170.204 L345.7032,1170.204 L346.0938,1198.776 L346.4844,1215.102 L346.875,1174.286 L347.2656,1202.857 L347.6563,1157.959 L348.0469,1206.939 L348.4375,1170.204 L348.8281,1178.367 L349.2188,1194.694 L349.6094,1182.449 L350,1182.449 L350.3906,1186.531 L350.7813,1178.367 L351.1719,1194.694 L351.5625,1194.694 L351.9531,1141.633 L352.3438,1182.449 L352.7344,1145.714 L353.125,1206.939 L353.5157,1186.531 L353.9063,1174.286 L354.2969,1186.531 L354.6875,1186.531 L355.0781,1174.286 L355.4688,1162.041 L355.8594,1211.02 L356.25,1133.469 L356.6406,1186.531 L357.0313,1166.122 L357.4219,1211.02 L357.8125,1162.041 L358.2031,1235.51 L358.5938,1211.02 L358.9844,1182.449 L359.375,1211.02 L359.7656,1178.367 L360.1563,1206.939 L360.5469,1121.224 L360.9375,1174.286 L361.3282,1178.367 L361.7188,1182.449 L362.1094,1157.959 L362.5,1157.959 L362.8906,1211.02 " stroke="blue" fill="none" />
<text x="50" y="1310" font-family="Arial" font-size="12" fill="black">Policy Loss</text>
<text x="50" y="1325" font-family="Arial" font-size="10" fill="black">0.01141834</text>
<text x="50" y="1540" font-family="Arial" font-size="10" fill="black">0.001449379</text>
<path d="M50,1330 L62.5,1524.012 L75,1516.101 L87.5,1527.386 L100,1525.635 L112.5,1526.96 L125,1505.464 L137.5,1513.052 L150,1518.669 L162.5,1517.212 L175,1420.315 L187.5,1521.137 L200,1507.466 L212.5,1516.72 L225,1522.445 L237.5,1528.432 L250,1519.068 L262.5,1518.202 L275,1530 L287.5,1516.284 L300,1441.027 L312.5,1517.052 L325,1523.806 L337.5,1521.97 L350,1513.95 L362.5,1524.53 L375,1515.407 L387.5,1514.939 L400,1516.287 L412.5,1520.138 " stroke="blue" fill="none" />
<text x="50" y="1580" font-family="Arial" font-size="12" fill="black">Value Loss</text>
<text x="50" y="1595" font-family="Arial" font-size="10" fill="black">0.0003410446</text>
<text x="50" y="1810" font-family="Arial" font-size="10" fill="black">0.0001649109</text>
<path d="M50,1600.011 L62.5,1655.922 L75,1678.282 L87.5,1692.777 L100,1705.775 L112.5,1716.537 L125,1727.059 L137.5,1737.688 L150,1746.831 L162.5,1755.574 L175,1634.802 L187.5,1678.796 L200,1703.428 L212.5,1719.864 L225,1731.719 L237.5,1744.071 L250,1753.212 L262.5,1763.955 L275,1773.008 L287.5,1781.248 L300,1646.413 L312.5,1692.162 L325,1720.987 L337.5,1739.895 L350,1752.836 L362.5,1764.458 L375,1774.697 L387.5,1784.025 L400,1793.081 L412.5,1800 " stroke="blue" fill="none" />
<text x="50" y="1850" font-family="Arial" font-size="12" fill="black">Learning Rate</text>
<text x="50" y="1865" font-family="Arial" font-size="10" fill="black">0.0002</text>
<text x="50" y="2080" font-family="Arial" font-size="10" fill="black">0.0002</text>
<path d="M50,2070 L62.5,2070 L75,2070 L87.5,2070 L100,2070 L112.5,2070 L125,2070 L137.5,2070 L150,2070 L162.5,2070 L175,2070 L187.5,2070 L200,2070 L212.5,2070 L225,2070 L237.5,2070 L250,2070 L262.5,2070 L275,2070 L287.5,2070 L300,2070 L312.5,2070 L325,2070 L337.5,2070 L350,2070 L362.5,2070 L375,2070 L387.5,2070 L400,2070 L412.5,2070 " stroke="blue" fill="none" />
<text x="50" y="2120" font-family="Arial" font-size="12" fill="black">Entropy</text>
<text x="50" y="2135" font-family="Arial" font-size="10" fill="black">-0.08777068</text>
<text x="50" y="2350" font-family="Arial" font-size="10" fill="black">-0.08777068</text>
<path d="M50,2340 L62.5,2340 L75,2340 L87.5,2340 L100,2340 L112.5,2340 L125,2340 L137.5,2340 L150,2340 L162.5,2340 L175,2340 L187.5,2340 L200,2340 L212.5,2340 L225,2340 L237.5,2340 L250,2340 L262.5,2340 L275,2340 L287.5,2340 L300,2340 L312.5,2340 L325,2340 L337.5,2340 L350,2340 L362.5,2340 L375,2340 L387.5,2340 L400,2340 L412.5,2340 " stroke="blue" fill="none" />
<text x="750" y="770" font-family="Arial" font-size="12" fill="black">Simplified</text>
<text x="750" y="785" font-family="Arial" font-size="10" fill="black">0.8550285</text>
<text x="750" y="1000" font-family="Arial" font-size="10" fill="black">0.595955</text>
<path d="M757.0313,921.2361 L764.4531,926.4847 L771.875,790 L779.2969,850.1899 L786.7188,934.8887 L794.1406,887.8835 L801.5625,910.901 L808.9844,875.232 L816.4063,898.4893 L823.8281,887.1521 L831.25,987.6088 L838.6719,942.5879 L846.0938,852.4546 L853.5156,927.5353 L860.9375,848.5244 L868.3594,937.6554 L875.7813,904.1459 L883.2031,965.5448 L890.625,918.0433 L898.0469,990 L905.4688,925.7866 L912.8906,921.8328 L920.3125,927.8538 L927.7344,938.634 L935.1563,956.8928 L942.5781,958.6047 L950,926.3917 L957.4219,863.4456 L964.8438,939.3552 L972.2656,891.6506 L979.6875,930.93 L987.1094,915.5847 L994.5313,938.6169 L1001.953,929.7783 L1009.375,917.8397 L1016.797,935.1594 L1024.219,952.4109 L1031.641,934.0626 L1039.063,850.7422 L1046.484,844.57 L1053.906,932.97 L1061.328,938.4702 L1062.891,910.7492 " stroke="blue" fill="none" />
<text x="750" y="1040" font-family="Arial" font-size="12" fill="black">Simplified</text>
<text x="750" y="1055" font-family="Arial" font-size="10" fill="black">36.42105</text>
<text x="750" y="1270" font-family="Arial" font-size="10" fill="black">28.94737</text>
<path d="M757.0313,1176.901 L764.4531,1181.127 L771.875,1060 L779.2969,1131.831 L786.7188,1207.887 L794.1406,1140.282 L801.5625,1172.676 L808.9844,1133.239 L816.4063,1152.958 L823.8281,1147.324 L831.25,1243.099 L838.6719,1200.845 L846.0938,1117.746 L853.5156,1186.761 L860.9375,1106.479 L868.3594,1202.254 L875.7813,1172.676 L883.2031,1226.197 L890.625,1182.535 L898.0469,1260 L905.4688,1188.169 L912.8906,1186.761 L920.3125,1190.986 L927.7344,1185.352 L935.1563,1238.873 L942.5781,1221.972 L950,1189.578 L957.4219,1130.422 L964.8438,1199.437 L972.2656,1157.183 L979.6875,1192.394 L987.1094,1176.901 L994.5313,1192.394 L1001.953,1182.535 L1009.375,1178.31 L1016.797,1203.662 L1024.219,1212.113 L1031.641,1199.437 L1039.063,1113.521 L1046.484,1121.972 L1053.906,1196.62 L1061.328,1209.296 L1062.891,1171.62 " stroke="blue" fill="none" />
</svg>
