<svg width="2000" height="2500" xmlns="http://www.w3.org/2000/svg">
<text x="10" y="20" font-family="Arial" font-size="26" fill="black"> [DinoScript] Training Session</text>
<text x="10" y="50" font-family="Arial" font-size="16" fill="black">[Statistics]</text>
<text x="50" y="70" font-family="Arial" font-size="12" fill="black">Started at: 11:16:36 PM, Saturday, December 23, 2023</text>
<text x="50" y="90" font-family="Arial" font-size="12" fill="black">Finished at: 11:17:40 PM, Saturday, December 23, 2023</text>
<text x="50" y="110" font-family="Arial" font-size="12" fill="black">Training Session Time: 0 hrs : 0 min : 53 sec</text>
<text x="50" y="130" font-family="Arial" font-size="12" fill="black">Inference Time: 0 hrs : 12 min : 58 sec       [Per agent: 0 hrs : 0 min : 25 sec]        [Device: CPU]</text>
<text x="50" y="150" font-family="Arial" font-size="12" fill="black">Policy Update Time: 0 hrs : 0 min : 27 sec        [Per iteration: 0 hrs : 0 min : 26 sec]        [Device: GPU]</text>
<text x="50" y="170" font-family="Arial" font-size="12" fill="black">Inference Time / Training Session Time: 13.434</text>
<text x="50" y="190" font-family="Arial" font-size="12" fill="black">Policy Update Time / Training Session Time: 0.530</text>
<text x="50" y="210" font-family="Arial" font-size="12" fill="black">Episode Count: 400</text>
<text x="50" y="230" font-family="Arial" font-size="12" fill="black">Inference Steps: 11748    [Per agent: 367]     [Per Episode (mean): 29]</text>
<text x="50" y="250" font-family="Arial" font-size="12" fill="black">Iterations: 1</text>
<text x="50" y="270" font-family="Arial" font-size="12" fill="black">Parallel Agents: 32</text>
<text x="50" y="290" font-family="Arial" font-size="12" fill="black">Timescale: 1</text>
<text x="50" y="310" font-family="Arial" font-size="12" fill="black">Trainer: PPO</text>
<text x="10" y="360" font-family="Arial" font-size="16" fill="black">[Hyperparameters]</text>
<text x="50" y="380" font-family="Arial" font-size="12" fill="black">Buffer Size: 10240        [Batch Size: 512       (x20)]</text>
<text x="50" y="400" font-family="Arial" font-size="12" fill="black">Num Epoch: 8</text>
<text x="50" y="420" font-family="Arial" font-size="12" fill="black">Time Horizon: 64</text>
<text x="50" y="440" font-family="Arial" font-size="12" fill="black">Gradient Cliping Normalization: 0.5</text>
<text x="50" y="460" font-family="Arial" font-size="12" fill="black">Learning Rate Schedule: False    </text>
<text x="10" y="510" font-family="Arial" font-size="16" fill="black">[Behaviour]</text>
<text x="50" y="530" font-family="Arial" font-size="12" fill="black">Space Size: 282</text>
<text x="50" y="550" font-family="Arial" font-size="12" fill="black">Continuous Actions: 108 [Standard Deviation: Fixed]     [Value: 1]</text>
<text x="50" y="570" font-family="Arial" font-size="12" fill="black">Discrete Actions: 0</text>
<text x="50" y="590" font-family="Arial" font-size="12" fill="black">TargetFPS: 60 (physics update rate)</text>
<text x="50" y="610" font-family="Arial" font-size="12" fill="black">Observations Normalization: False</text>
<text x="10" y="660" font-family="Arial" font-size="16" fill="black">[Decision Requester]</text>
<text x="50" y="680" font-family="Arial" font-size="12" fill="black">Max Step: 1000</text>
<text x="50" y="700" font-family="Arial" font-size="12" fill="black">Decision Period: 4      [Actions Between Decisions: True]</text>
<text x="10" y="750" font-family="Arial" font-size="16" fill="black">[Graphs]</text>
<text x="50" y="770" font-family="Arial" font-size="12" fill="black">Episode Reward (400)</text>
<text x="50" y="785" font-family="Arial" font-size="10" fill="black">0</text>
<text x="50" y="1000" font-family="Arial" font-size="10" fill="black">0</text>
<path d="M50,990 L50.78125,990 L51.5625,990 L52.34375,990 L53.125,990 L53.90625,990 L54.6875,990 L55.46875,990 L56.25,990 L57.03125,990 L57.8125,990 L58.59375,990 L59.375,990 L60.15625,990 L60.9375,990 L61.71875,990 L62.5,990 L63.28125,990 L64.0625,990 L64.84375,990 L65.625,990 L66.40625,990 L67.1875,990 L67.96875,990 L68.75,990 L69.53125,990 L70.3125,990 L71.09375,990 L71.875,990 L72.65625,990 L73.4375,990 L74.21875,990 L75,990 L75.78125,990 L76.5625,990 L77.34375,990 L78.125,990 L78.90625,990 L79.6875,990 L80.46875,990 L81.25,990 L82.03125,990 L82.8125,990 L83.59375,990 L84.375,990 L85.15625,990 L85.9375,990 L86.71875,990 L87.5,990 L88.28125,990 L89.0625,990 L89.84375,990 L90.625,990 L91.40625,990 L92.1875,990 L92.96875,990 L93.75,990 L94.53125,990 L95.3125,990 L96.09375,990 L96.875,990 L97.65625,990 L98.4375,990 L99.21875,990 L100,990 L100.7813,990 L101.5625,990 L102.3438,990 L103.125,990 L103.9063,990 L104.6875,990 L105.4688,990 L106.25,990 L107.0313,990 L107.8125,990 L108.5938,990 L109.375,990 L110.1563,990 L110.9375,990 L111.7188,990 L112.5,990 L113.2813,990 L114.0625,990 L114.8438,990 L115.625,990 L116.4063,990 L117.1875,990 L117.9688,990 L118.75,990 L119.5313,990 L120.3125,990 L121.0938,990 L121.875,990 L122.6563,990 L123.4375,990 L124.2188,990 L125,990 L125.7813,990 L126.5625,990 L127.3438,990 L128.125,990 L128.9063,990 L129.6875,990 L130.4688,990 L131.25,990 L132.0313,990 L132.8125,990 L133.5938,990 L134.375,990 L135.1563,990 L135.9375,990 L136.7188,990 L137.5,990 L138.2813,990 L139.0625,990 L139.8438,990 L140.625,990 L141.4063,990 L142.1875,990 L142.9688,990 L143.75,990 L144.5313,990 L145.3125,990 L146.0938,990 L146.875,990 L147.6563,990 L148.4375,990 L149.2188,990 L150,990 L150.7813,990 L151.5625,990 L152.3438,990 L153.125,990 L153.9063,990 L154.6875,990 L155.4688,990 L156.25,990 L157.0313,990 L157.8125,990 L158.5938,990 L159.375,990 L160.1563,990 L160.9375,990 L161.7188,990 L162.5,990 L163.2813,990 L164.0625,990 L164.8438,990 L165.625,990 L166.4063,990 L167.1875,990 L167.9688,990 L168.75,990 L169.5313,990 L170.3125,990 L171.0938,990 L171.875,990 L172.6563,990 L173.4375,990 L174.2188,990 L175,990 L175.7813,990 L176.5625,990 L177.3438,990 L178.125,990 L178.9063,990 L179.6875,990 L180.4688,990 L181.25,990 L182.0313,990 L182.8125,990 L183.5938,990 L184.375,990 L185.1563,990 L185.9375,990 L186.7188,990 L187.5,990 L188.2813,990 L189.0625,990 L189.8438,990 L190.625,990 L191.4063,990 L192.1875,990 L192.9688,990 L193.75,990 L194.5313,990 L195.3125,990 L196.0938,990 L196.875,990 L197.6563,990 L198.4375,990 L199.2188,990 L200,990 L200.7813,990 L201.5625,990 L202.3438,990 L203.125,990 L203.9063,990 L204.6875,990 L205.4688,990 L206.25,990 L207.0313,990 L207.8125,990 L208.5938,990 L209.375,990 L210.1563,990 L210.9375,990 L211.7188,990 L212.5,990 L213.2813,990 L214.0625,990 L214.8438,990 L215.625,990 L216.4063,990 L217.1875,990 L217.9688,990 L218.75,990 L219.5313,990 L220.3125,990 L221.0938,990 L221.875,990 L222.6563,990 L223.4375,990 L224.2188,990 L225,990 L225.7813,990 L226.5625,990 L227.3438,990 L228.125,990 L228.9063,990 L229.6875,990 L230.4688,990 L231.25,990 L232.0313,990 L232.8125,990 L233.5938,990 L234.375,990 L235.1563,990 L235.9375,990 L236.7188,990 L237.5,990 L238.2813,990 L239.0625,990 L239.8438,990 L240.625,990 L241.4063,990 L242.1875,990 L242.9688,990 L243.75,990 L244.5313,990 L245.3125,990 L246.0938,990 L246.875,990 L247.6563,990 L248.4375,990 L249.2188,990 L250,990 L250.7813,990 L251.5625,990 L252.3438,990 L253.125,990 L253.9063,990 L254.6875,990 L255.4688,990 L256.25,990 L257.0313,990 L257.8125,990 L258.5938,990 L259.375,990 L260.1563,990 L260.9375,990 L261.7188,990 L262.5,990 L263.2813,990 L264.0625,990 L264.8438,990 L265.625,990 L266.4063,990 L267.1875,990 L267.9688,990 L268.75,990 L269.5313,990 L270.3125,990 L271.0938,990 L271.875,990 L272.6563,990 L273.4375,990 L274.2188,990 L275,990 L275.7813,990 L276.5625,990 L277.3438,990 L278.125,990 L278.9063,990 L279.6875,990 L280.4688,990 L281.25,990 L282.0313,990 L282.8125,990 L283.5938,990 L284.375,990 L285.1563,990 L285.9375,990 L286.7188,990 L287.5,990 L288.2813,990 L289.0625,990 L289.8438,990 L290.625,990 L291.4063,990 L292.1875,990 L292.9688,990 L293.75,990 L294.5313,990 L295.3125,990 L296.0938,990 L296.875,990 L297.6563,990 L298.4375,990 L299.2188,990 L300,990 L300.7813,990 L301.5625,990 L302.3438,990 L303.125,990 L303.9063,990 L304.6875,990 L305.4688,990 L306.25,990 L307.0313,990 L307.8125,990 L308.5938,990 L309.375,990 L310.1563,990 L310.9375,990 L311.7188,990 L312.5,990 L313.2813,990 L314.0625,990 L314.8438,990 L315.625,990 L316.4063,990 L317.1875,990 L317.9688,990 L318.75,990 L319.5313,990 L320.3125,990 L321.0938,990 L321.875,990 L322.6563,990 L323.4375,990 L324.2188,990 L325,990 L325.7813,990 L326.5625,990 L327.3438,990 L328.125,990 L328.9063,990 L329.6875,990 L330.4688,990 L331.25,990 L332.0313,990 L332.8125,990 L333.5938,990 L334.375,990 L335.1563,990 L335.9375,990 L336.7188,990 L337.5,990 L338.2813,990 L339.0625,990 L339.8438,990 L340.625,990 L341.4063,990 L342.1875,990 L342.9688,990 L343.75,990 L344.5313,990 L345.3125,990 L346.0938,990 L346.875,990 L347.6563,990 L348.4375,990 L349.2188,990 L350,990 L350.7813,990 L351.5625,990 L352.3438,990 L353.125,990 L353.9063,990 L354.6875,990 L355.4688,990 L356.25,990 L357.0313,990 L357.8125,990 L358.5938,990 L359.375,990 L360.1563,990 L360.9375,990 L361.7188,990 " stroke="blue" fill="none" />
<text x="50" y="1040" font-family="Arial" font-size="12" fill="black">Episode Length (400)</text>
<text x="50" y="1055" font-family="Arial" font-size="10" fill="black">79</text>
<text x="50" y="1270" font-family="Arial" font-size="10" fill="black">7</text>
<path d="M50,1260 L50.78125,1260 L51.5625,1257.222 L52.34375,1257.222 L53.125,1237.778 L53.90625,1229.444 L54.6875,1226.667 L55.46875,1243.333 L56.25,1215.556 L57.03125,1212.778 L57.8125,1212.778 L58.59375,1212.778 L59.375,1207.222 L60.15625,1207.222 L60.9375,1204.444 L61.71875,1201.667 L62.5,1196.111 L63.28125,1196.111 L64.0625,1196.111 L64.84375,1196.111 L65.625,1193.333 L66.40625,1257.222 L67.1875,1190.556 L67.96875,1251.667 L68.75,1185 L69.53125,1251.667 L70.3125,1179.444 L71.09375,1176.667 L71.875,1176.667 L72.65625,1176.667 L73.4375,1173.889 L74.21875,1173.889 L75,1168.333 L75.78125,1165.556 L76.5625,1162.778 L77.34375,1176.667 L78.125,1198.889 L78.90625,1246.111 L79.6875,1151.667 L80.46875,1251.667 L81.25,1201.667 L82.03125,1193.333 L82.8125,1207.222 L83.59375,1137.778 L84.375,1193.333 L85.15625,1196.111 L85.9375,1251.667 L86.71875,1171.111 L87.5,1204.444 L88.28125,1226.667 L89.0625,1207.222 L89.84375,1207.222 L90.625,1207.222 L91.40625,1198.889 L92.1875,1187.778 L92.96875,1254.444 L93.75,1251.667 L94.53125,1185 L95.3125,1190.556 L96.09375,1254.444 L96.875,1212.778 L97.65625,1182.222 L98.4375,1235 L99.21875,1198.889 L100,1187.778 L100.7813,1196.111 L101.5625,1187.778 L102.3438,1198.889 L103.125,1210 L103.9063,1210 L104.6875,1198.889 L105.4688,1162.778 L106.25,1218.333 L107.0313,1187.778 L107.8125,1215.556 L108.5938,1201.667 L109.375,1210 L110.1563,1254.444 L110.9375,1162.778 L111.7188,1160 L112.5,1182.222 L113.2813,1257.222 L114.0625,1221.111 L114.8438,1190.556 L115.625,1182.222 L116.4063,1201.667 L117.1875,1185 L117.9688,1207.222 L118.75,1215.556 L119.5313,1196.111 L120.3125,1187.778 L121.0938,1204.444 L121.875,1187.778 L122.6563,1240.556 L123.4375,1254.444 L124.2188,1204.444 L125,1187.778 L125.7813,1190.556 L126.5625,1190.556 L127.3438,1229.444 L128.125,1207.222 L128.9063,1201.667 L129.6875,1193.333 L130.4688,1162.778 L131.25,1254.444 L132.0313,1207.222 L132.8125,1185 L133.5938,1248.889 L134.375,1207.222 L135.1563,1204.444 L135.9375,1254.444 L136.7188,1146.111 L137.5,1187.778 L138.2813,1254.444 L139.0625,1165.556 L139.8438,1210 L140.625,1210 L141.4063,1171.111 L142.1875,1190.556 L142.9688,1204.444 L143.75,1232.222 L144.5313,1193.333 L145.3125,1212.778 L146.0938,1165.556 L146.875,1240.556 L147.6563,1198.889 L148.4375,1257.222 L149.2188,1193.333 L150,1201.667 L150.7813,1248.889 L151.5625,1060 L152.3438,1257.222 L153.125,1201.667 L153.9063,1160 L154.6875,1193.333 L155.4688,1198.889 L156.25,1246.111 L157.0313,1193.333 L157.8125,1193.333 L158.5938,1171.111 L159.375,1210 L160.1563,1187.778 L160.9375,1254.444 L161.7188,1196.111 L162.5,1240.556 L163.2813,1229.444 L164.0625,1173.889 L164.8438,1157.222 L165.625,1185 L166.4063,1148.889 L167.1875,1179.444 L167.9688,1210 L168.75,1190.556 L169.5313,1148.889 L170.3125,1204.444 L171.0938,1254.444 L171.875,1190.556 L172.6563,1196.111 L173.4375,1157.222 L174.2188,1223.889 L175,1212.778 L175.7813,1173.889 L176.5625,1207.222 L177.3438,1185 L178.125,1204.444 L178.9063,1190.556 L179.6875,1196.111 L180.4688,1210 L181.25,1190.556 L182.0313,1201.667 L182.8125,1190.556 L183.5938,1215.556 L184.375,1201.667 L185.1563,1204.444 L185.9375,1204.444 L186.7188,1251.667 L187.5,1251.667 L188.2813,1151.667 L189.0625,1198.889 L189.8438,1185 L190.625,1212.778 L191.4063,1187.778 L192.1875,1204.444 L192.9688,1204.444 L193.75,1212.778 L194.5313,1248.889 L195.3125,1193.333 L196.0938,1204.444 L196.875,1221.111 L197.6563,1198.889 L198.4375,1165.556 L199.2188,1254.444 L200,1210 L200.7813,1118.333 L201.5625,1187.778 L202.3438,1210 L203.125,1171.111 L203.9063,1198.889 L204.6875,1201.667 L205.4688,1185 L206.25,1210 L207.0313,1187.778 L207.8125,1190.556 L208.5938,1198.889 L209.375,1248.889 L210.1563,1146.111 L210.9375,1168.333 L211.7188,1254.444 L212.5,1204.444 L213.2813,1132.222 L214.0625,1162.778 L214.8438,1260 L215.625,1168.333 L216.4063,1187.778 L217.1875,1212.778 L217.9688,1190.556 L218.75,1207.222 L219.5313,1207.222 L220.3125,1196.111 L221.0938,1254.444 L221.875,1198.889 L222.6563,1251.667 L223.4375,1187.778 L224.2188,1154.444 L225,1193.333 L225.7813,1187.778 L226.5625,1196.111 L227.3438,1193.333 L228.125,1187.778 L228.9063,1196.111 L229.6875,1212.778 L230.4688,1204.444 L231.25,1204.444 L232.0313,1207.222 L232.8125,1207.222 L233.5938,1204.444 L234.375,1207.222 L235.1563,1210 L235.9375,1201.667 L236.7188,1190.556 L237.5,1201.667 L238.2813,1257.222 L239.0625,1157.222 L239.8438,1226.667 L240.625,1201.667 L241.4063,1232.222 L242.1875,1171.111 L242.9688,1240.556 L243.75,1218.333 L244.5313,1210 L245.3125,1193.333 L246.0938,1207.222 L246.875,1176.667 L247.6563,1201.667 L248.4375,1251.667 L249.2188,1146.111 L250,1151.667 L250.7813,1193.333 L251.5625,1212.778 L252.3438,1168.333 L253.125,1182.222 L253.9063,1182.222 L254.6875,1201.667 L255.4688,1146.111 L256.25,1157.222 L257.0313,1198.889 L257.8125,1251.667 L258.5938,1176.667 L259.375,1212.778 L260.1563,1212.778 L260.9375,1204.444 L261.7188,1237.778 L262.5,1185 L263.2813,1157.222 L264.0625,1173.889 L264.8438,1210 L265.625,1254.444 L266.4063,1193.333 L267.1875,1215.556 L267.9688,1140.556 L268.75,1240.556 L269.5313,1221.111 L270.3125,1185 L271.0938,1198.889 L271.875,1237.778 L272.6563,1193.333 L273.4375,1190.556 L274.2188,1190.556 L275,1204.444 L275.7813,1182.222 L276.5625,1137.778 L277.3438,1210 L278.125,1207.222 L278.9063,1207.222 L279.6875,1198.889 L280.4688,1251.667 L281.25,1193.333 L282.0313,1226.667 L282.8125,1198.889 L283.5938,1196.111 L284.375,1193.333 L285.1563,1190.556 L285.9375,1204.444 L286.7188,1176.667 L287.5,1182.222 L288.2813,1193.333 L289.0625,1210 L289.8438,1254.444 L290.625,1235 L291.4063,1196.111 L292.1875,1182.222 L292.9688,1198.889 L293.75,1198.889 L294.5313,1218.333 L295.3125,1215.556 L296.0938,1182.222 L296.875,1204.444 L297.6563,1190.556 L298.4375,1198.889 L299.2188,1207.222 L300,1254.444 L300.7813,1185 L301.5625,1212.778 L302.3438,1198.889 L303.125,1168.333 L303.9063,1201.667 L304.6875,1160 L305.4688,1179.444 L306.25,1254.444 L307.0313,1198.889 L307.8125,1173.889 L308.5938,1190.556 L309.375,1182.222 L310.1563,1193.333 L310.9375,1190.556 L311.7188,1160 L312.5,1248.889 L313.2813,1196.111 L314.0625,1160 L314.8438,1204.444 L315.625,1193.333 L316.4063,1179.444 L317.1875,1193.333 L317.9688,1168.333 L318.75,1218.333 L319.5313,1201.667 L320.3125,1204.444 L321.0938,1204.444 L321.875,1187.778 L322.6563,1235 L323.4375,1171.111 L324.2188,1171.111 L325,1196.111 L325.7813,1201.667 L326.5625,1215.556 L327.3438,1210 L328.125,1190.556 L328.9063,1201.667 L329.6875,1204.444 L330.4688,1251.667 L331.25,1187.778 L332.0313,1185 L332.8125,1204.444 L333.5938,1212.778 L334.375,1176.667 L335.1563,1171.111 L335.9375,1151.667 L336.7188,1201.667 L337.5,1212.778 L338.2813,1193.333 L339.0625,1193.333 L339.8438,1196.111 L340.625,1254.444 L341.4063,1257.222 L342.1875,1248.889 L342.9688,1207.222 L343.75,1198.889 L344.5313,1212.778 L345.3125,1251.667 L346.0938,1210 L346.875,1196.111 L347.6563,1198.889 L348.4375,1196.111 L349.2188,1212.778 L350,1212.778 L350.7813,1251.667 L351.5625,1207.222 L352.3438,1173.889 L353.125,1207.222 L353.9063,1201.667 L354.6875,1201.667 L355.4688,1204.444 L356.25,1179.444 L357.0313,1212.778 L357.8125,1212.778 L358.5938,1190.556 L359.375,1196.111 L360.1563,1193.333 L360.9375,1210 L361.7188,1160 " stroke="blue" fill="none" />
<text x="50" y="1310" font-family="Arial" font-size="12" fill="black">Policy Loss</text>
<text x="50" y="1325" font-family="Arial" font-size="10" fill="black">0.0001644673</text>
<text x="50" y="1540" font-family="Arial" font-size="10" fill="black">7.274536E-06</text>
<path d="M50,1530 L75,1490.484 L100,1449.909 L125,1417.728 L150,1388.814 L175,1363.735 L200,1343.666 L225,1330.013 " stroke="blue" fill="none" />
<text x="50" y="1580" font-family="Arial" font-size="12" fill="black">Value Loss</text>
<text x="50" y="1595" font-family="Arial" font-size="10" fill="black">0.0001714434</text>
<text x="50" y="1810" font-family="Arial" font-size="10" fill="black">4.369651E-05</text>
<path d="M50,1600.016 L75,1735.408 L100,1758.269 L125,1771.529 L150,1780.882 L175,1790.53 L200,1795.97 L225,1800 " stroke="blue" fill="none" />
<text x="50" y="1850" font-family="Arial" font-size="12" fill="black">Learning Rate</text>
<text x="50" y="1865" font-family="Arial" font-size="10" fill="black">0.0003</text>
<text x="50" y="2080" font-family="Arial" font-size="10" fill="black">0.0003</text>
<path d="M50,2070 L75,2070 L100,2070 L125,2070 L150,2070 L175,2070 L200,2070 L225,2070 " stroke="blue" fill="none" />
<text x="50" y="2120" font-family="Arial" font-size="12" fill="black">Entropy</text>
<text x="50" y="2135" font-family="Arial" font-size="10" fill="black">0.05542754</text>
<text x="50" y="2350" font-family="Arial" font-size="10" fill="black">0.05542754</text>
<path d="M50,2340 L75,2340 L100,2340 L125,2340 L150,2340 L175,2340 L200,2340 L225,2340 " stroke="blue" fill="none" />
<text x="750" y="770" font-family="Arial" font-size="12" fill="black">Simplified</text>
<text x="750" y="785" font-family="Arial" font-size="10" fill="black">0</text>
<text x="750" y="1000" font-family="Arial" font-size="10" fill="black">0</text>
<path d="M764.0625,990 L778.9063,990 L793.75,990 L808.5938,990 L823.4375,990 L838.2813,990 L853.125,990 L867.9688,990 L882.8125,990 L897.6563,990 L912.5,990 L927.3438,990 L942.1875,990 L957.0313,990 L971.875,990 L986.7188,990 L1001.563,990 L1016.406,990 L1031.25,990 L1046.094,990 L1060.938,990 L1061.719,990 " stroke="blue" fill="none" />
<text x="750" y="1040" font-family="Arial" font-size="12" fill="black">Simplified</text>
<text x="750" y="1055" font-family="Arial" font-size="10" fill="black">43</text>
<text x="750" y="1270" font-family="Arial" font-size="10" fill="black">20.36842</text>
<path d="M764.0625,1260 L778.9063,1170.698 L793.75,1204.186 L808.5938,1193.023 L823.4375,1204.186 L838.2813,1206.977 L853.125,1189.767 L867.9688,1175.349 L882.8125,1175.349 L897.6563,1213.023 L912.5,1172.558 L927.3438,1177.674 L942.1875,1200.93 L957.0313,1160.465 L971.875,1205.581 L986.7188,1179.535 L1001.563,1207.442 L1016.406,1159.535 L1031.25,1189.767 L1046.094,1210.698 L1060.938,1197.209 L1061.719,1060 " stroke="blue" fill="none" />
</svg>
