<svg width="2000" height="2500" xmlns="http://www.w3.org/2000/svg">
<text x="10" y="20" font-family="Arial" font-size="26" fill="black"> [Pusher] Training Session</text>
<text x="10" y="50" font-family="Arial" font-size="16" fill="black">[Statistics]</text>
<text x="50" y="70" font-family="Arial" font-size="12" fill="black">Started at: 4:07:40 PM, Sunday, December 3, 2023</text>
<text x="50" y="90" font-family="Arial" font-size="12" fill="black">Finished at: 5:08:40 PM, Sunday, December 3, 2023</text>
<text x="50" y="110" font-family="Arial" font-size="12" fill="black">Training Session Time: 1 hrs : 0 min : 59 sec</text>
<text x="50" y="130" font-family="Arial" font-size="12" fill="black">Inference Time: 4 hrs : 46 min : 38 sec       [Per agent: 4 hrs : 46 min : 38 sec]        [Device: CPU]</text>
<text x="50" y="150" font-family="Arial" font-size="12" fill="black">Policy Update Time: 0 hrs : 15 min : 15 sec        [Per iteration: 0 hrs : 0 min : 8 sec]        [Device: GPU]</text>
<text x="50" y="170" font-family="Arial" font-size="12" fill="black">Inference Time / Training Session Time: 4.695</text>
<text x="50" y="190" font-family="Arial" font-size="12" fill="black">Policy Update Time / Training Session Time: 0.250</text>
<text x="50" y="210" font-family="Arial" font-size="12" fill="black">Episode Count: 598</text>
<text x="50" y="230" font-family="Arial" font-size="12" fill="black">Inference Steps: 435446    [Per agent: 435446]     [Per Episode (mean): 728]</text>
<text x="50" y="250" font-family="Arial" font-size="12" fill="black">Iterations: 106</text>
<text x="50" y="270" font-family="Arial" font-size="12" fill="black">Parallel Agents: 1</text>
<text x="50" y="290" font-family="Arial" font-size="12" fill="black">Timescale: 6.794476</text>
<text x="50" y="310" font-family="Arial" font-size="12" fill="black">Trainer: PPO</text>
<text x="10" y="360" font-family="Arial" font-size="16" fill="black">[Hyperparameters]</text>
<text x="50" y="380" font-family="Arial" font-size="12" fill="black">Buffer Size: 4096        [Batch Size: 256       (x16)]</text>
<text x="50" y="400" font-family="Arial" font-size="12" fill="black">Num Epoch: 8</text>
<text x="50" y="420" font-family="Arial" font-size="12" fill="black">Time Horizon: 64</text>
<text x="50" y="440" font-family="Arial" font-size="12" fill="black">Gradient Cliping Normalization: 0.5</text>
<text x="50" y="460" font-family="Arial" font-size="12" fill="black">Learning Rate Schedule: False    </text>
<text x="10" y="510" font-family="Arial" font-size="16" fill="black">[Behaviour]</text>
<text x="50" y="530" font-family="Arial" font-size="12" fill="black">Space Size: 72</text>
<text x="50" y="550" font-family="Arial" font-size="12" fill="black">Continuous Actions: 3 [Standard Deviation: Trainable]     </text>
<text x="50" y="570" font-family="Arial" font-size="12" fill="black">Discrete Actions: 0</text>
<text x="50" y="590" font-family="Arial" font-size="12" fill="black">TargetFPS: 50 (physics update rate)</text>
<text x="50" y="610" font-family="Arial" font-size="12" fill="black">Observations Normalization: True</text>
<text x="10" y="660" font-family="Arial" font-size="16" fill="black">[Decision Requester]</text>
<text x="50" y="680" font-family="Arial" font-size="12" fill="black">Max Step: 750</text>
<text x="50" y="700" font-family="Arial" font-size="12" fill="black">Decision Period: 2      [Actions Between Decisions: True]</text>
<text x="10" y="750" font-family="Arial" font-size="16" fill="black">[Graphs]</text>
<text x="50" y="770" font-family="Arial" font-size="12" fill="black">Episode Reward (598)</text>
<text x="50" y="785" font-family="Arial" font-size="10" fill="black">0.8825001</text>
<text x="50" y="1000" font-family="Arial" font-size="10" fill="black">-3.752562</text>
<path d="M50,990 L50.78125,989.7842 L51.5625,989.6764 L52.34375,925.1676 L53.125,989.7842 L53.90625,989.7842 L54.6875,989.6764 L55.46875,989.6764 L56.25,989.7842 L57.03125,989.7842 L57.8125,989.7842 L58.59375,988.7055 L59.375,989.7842 L60.15625,886.7637 L60.9375,989.7842 L61.71875,883.6354 L62.5,989.7842 L63.28125,989.7842 L64.0625,989.7842 L64.84375,989.6764 L65.625,989.6764 L66.40625,989.7842 L67.1875,989.4606 L67.96875,989.7842 L68.75,989.7842 L69.53125,915.1351 L70.3125,989.6764 L71.09375,989.7842 L71.875,989.7842 L72.65625,989.7842 L73.4375,989.7842 L74.21875,989.7842 L75,989.7842 L75.78125,989.7842 L76.5625,868.2091 L77.34375,989.137 L78.125,989.7842 L78.90625,989.7842 L79.6875,989.7842 L80.46875,989.4606 L81.25,989.7842 L82.03125,989.137 L82.8125,989.7842 L83.59375,989.6764 L84.375,989.5685 L85.15625,989.6764 L85.9375,989.7842 L86.71875,989.6764 L87.5,989.7842 L88.28125,989.7842 L89.0625,989.7842 L89.84375,989.7842 L90.625,989.5685 L91.40625,904.1318 L92.1875,989.7842 L92.96875,989.7842 L93.75,989.5685 L94.53125,989.4606 L95.3125,989.7842 L96.09375,989.7842 L96.875,989.7842 L97.65625,989.7842 L98.4375,989.7842 L99.21875,989.7842 L100,989.7842 L100.7813,989.7842 L101.5625,989.7842 L102.3438,989.7842 L103.125,989.6764 L103.9063,989.7842 L104.6875,989.6764 L105.4688,989.7842 L106.25,989.7842 L107.0313,989.4606 L107.8125,989.4606 L108.5938,989.7842 L109.375,989.3527 L110.1563,989.5685 L110.9375,989.7842 L111.7188,989.7842 L112.5,989.7842 L113.2813,989.7842 L114.0625,989.7842 L114.8438,989.5685 L115.625,989.6764 L116.4063,989.2449 L117.1875,989.4606 L117.9688,989.7842 L118.75,989.5685 L119.5313,989.6764 L120.3125,989.6764 L121.0938,989.6764 L121.875,989.6764 L122.6563,988.7055 L123.4375,989.7842 L124.2188,989.7842 L125,989.7842 L125.7813,989.7842 L126.5625,989.7842 L127.3438,989.7842 L128.125,989.5685 L128.9063,989.6764 L129.6875,989.7842 L130.4688,989.7842 L131.25,989.6764 L132.0313,989.7842 L132.8125,989.7842 L133.5938,989.6764 L134.375,989.6764 L135.1563,989.137 L135.9375,989.4606 L136.7188,989.7842 L137.5,989.7842 L138.2813,840.8087 L139.0625,989.137 L139.8438,989.7842 L140.625,989.7842 L141.4063,989.4606 L142.1875,989.4606 L142.9688,989.7842 L143.75,989.5685 L144.5313,989.6764 L145.3125,989.7842 L146.0938,989.7842 L146.875,989.6764 L147.6563,989.7842 L148.4375,989.7842 L149.2188,989.137 L150,989.6764 L150.7813,989.6764 L151.5625,989.6764 L152.3438,989.3527 L153.125,989.6764 L153.9063,989.6764 L154.6875,989.7842 L155.4688,989.7842 L156.25,989.4606 L157.0313,989.4606 L157.8125,840.485 L158.5938,989.3527 L159.375,989.4606 L160.1563,989.4606 L160.9375,989.137 L161.7188,989.7842 L162.5,989.6764 L163.2813,989.3527 L164.0625,989.7842 L164.8438,989.7842 L165.625,989.7842 L166.4063,989.5685 L167.1875,989.5685 L167.9688,989.6764 L168.75,989.5685 L169.5313,989.5685 L170.3125,989.7842 L171.0938,989.6764 L171.875,989.5685 L172.6563,989.5685 L173.4375,989.4606 L174.2188,989.4606 L175,989.4606 L175.7813,989.6764 L176.5625,989.6764 L177.3438,989.5685 L178.125,989.7842 L178.9063,989.7842 L179.6875,988.8134 L180.4688,989.7842 L181.25,989.6764 L182.0313,989.7842 L182.8125,989.6764 L183.5938,989.7842 L184.375,989.7842 L185.1563,989.6764 L185.9375,989.7842 L186.7188,989.2449 L187.5,989.5685 L188.2813,989.7842 L189.0625,989.3527 L189.8438,988.5976 L190.625,989.137 L191.4063,989.5685 L192.1875,989.6764 L192.9688,989.3527 L193.75,989.7842 L194.5313,989.7842 L195.3125,989.6764 L196.0938,989.7842 L196.875,989.6764 L197.6563,989.6764 L198.4375,989.7842 L199.2188,989.6764 L200,989.7842 L200.7813,989.5685 L201.5625,989.7842 L202.3438,989.3527 L203.125,989.4606 L203.9063,989.4606 L204.6875,989.7842 L205.4688,989.5685 L206.25,989.6764 L207.0313,989.6764 L207.8125,989.7842 L208.5938,989.6764 L209.375,989.3527 L210.1563,989.7842 L210.9375,989.7842 L211.7188,989.7842 L212.5,989.6764 L213.2813,989.4606 L214.0625,989.5685 L214.8438,988.8134 L215.625,989.6764 L216.4063,989.6764 L217.1875,989.5685 L217.9688,914.7036 L218.75,989.2449 L219.5313,989.7842 L220.3125,989.7842 L221.0938,989.6764 L221.875,989.7842 L222.6563,989.3527 L223.4375,989.7842 L224.2188,989.5685 L225,989.6764 L225.7813,989.6764 L226.5625,989.7842 L227.3438,989.6764 L228.125,989.7842 L228.9063,989.6764 L229.6875,989.7842 L230.4688,989.5685 L231.25,989.7842 L232.0313,989.7842 L232.8125,989.6764 L233.5938,989.3527 L234.375,989.5685 L235.1563,989.7842 L235.9375,989.6764 L236.7188,989.6764 L237.5,989.2449 L238.2813,804.1314 L239.0625,989.7842 L239.8438,989.137 L240.625,945.2325 L241.4063,989.7842 L242.1875,989.6764 L242.9688,989.5685 L243.75,989.7842 L244.5313,989.6764 L245.3125,989.7842 L246.0938,989.6764 L246.875,989.7842 L247.6563,989.7842 L248.4375,989.5685 L249.2188,989.6764 L250,989.2449 L250.7813,890.9709 L251.5625,989.7842 L252.3438,989.4606 L253.125,989.7842 L253.9063,989.7842 L254.6875,989.7842 L255.4688,989.7842 L256.25,989.5685 L257.0313,989.7842 L257.8125,989.4606 L258.5938,989.6764 L259.375,989.6764 L260.1563,989.7842 L260.9375,989.7842 L261.7188,989.3527 L262.5,989.6764 L263.2813,989.7842 L264.0625,989.7842 L264.8438,989.7842 L265.625,989.7842 L266.4063,832.0707 L267.1875,989.4606 L267.9688,989.5685 L268.75,989.3527 L269.5313,989.7842 L270.3125,989.3527 L271.0938,989.7842 L271.875,989.5685 L272.6563,989.6764 L273.4375,989.7842 L274.2188,825.4903 L275,989.137 L275.7813,989.137 L276.5625,989.4606 L277.3438,989.7842 L278.125,989.5685 L278.9063,989.7842 L279.6875,988.8134 L280.4688,989.7842 L281.25,989.7842 L282.0313,989.5685 L282.8125,989.6764 L283.5938,989.7842 L284.375,989.6764 L285.1563,989.7842 L285.9375,989.4606 L286.7188,989.7842 L287.5,989.5685 L288.2813,989.7842 L289.0625,940.8096 L289.8438,855.4797 L290.625,989.4606 L291.4063,989.6764 L292.1875,989.5685 L292.9688,842.6425 L293.75,989.5685 L294.5313,989.6764 L295.3125,989.5685 L296.0938,989.6764 L296.875,989.7842 L297.6563,989.4606 L298.4375,989.7842 L299.2188,989.7842 L300,989.7842 L300.7813,989.7842 L301.5625,989.6764 L302.3438,989.5685 L303.125,989.7842 L303.9063,989.7842 L304.6875,989.7842 L305.4688,989.6764 L306.25,989.6764 L307.0313,989.7842 L307.8125,989.6764 L308.5938,989.7842 L309.375,989.7842 L310.1563,989.6764 L310.9375,989.7842 L311.7188,989.7842 L312.5,989.6764 L313.2813,989.7842 L314.0625,989.7842 L314.8438,989.7842 L315.625,989.7842 L316.4063,989.6764 L317.1875,989.6764 L317.9688,989.7842 L318.75,989.7842 L319.5313,989.6764 L320.3125,989.6764 L321.0938,989.6764 L321.875,989.6764 L322.6563,989.0291 L323.4375,903.7003 L324.2188,989.4606 L325,989.7842 L325.7813,989.7842 L326.5625,989.7842 L327.3438,989.7842 L328.125,989.7842 L328.9063,989.7842 L329.6875,989.7842 L330.4688,989.7842 L331.25,989.7842 L332.0313,884.3905 L332.8125,989.7842 L333.5938,989.7842 L334.375,989.7842 L335.1563,989.5685 L335.9375,989.6764 L336.7188,989.5685 L337.5,989.6764 L338.2813,989.7842 L339.0625,989.7842 L339.8438,989.7842 L340.625,989.6764 L341.4063,989.5685 L342.1875,989.7842 L342.9688,989.6764 L343.75,989.5685 L344.5313,989.6764 L345.3125,989.7842 L346.0938,989.5685 L346.875,989.6764 L347.6563,989.7842 L348.4375,989.7842 L349.2188,989.6764 L350,989.6764 L350.7813,989.6764 L351.5625,989.6764 L352.3438,989.6764 L353.125,989.4606 L353.9063,989.6764 L354.6875,989.7842 L355.4688,989.6764 L356.25,989.2449 L357.0313,940.0544 L357.8125,989.7842 L358.5938,989.5685 L359.375,989.7842 L360.1563,989.7842 L360.9375,989.7842 L361.7188,989.7842 L362.5,989.6764 L363.2813,989.7842 L364.0625,858.2845 L364.8438,989.5685 L365.625,989.7842 L366.4063,989.0291 L367.1875,989.7842 L367.9688,989.6764 L368.75,989.5685 L369.5313,864.2177 L370.3125,925.1676 L371.0938,989.7842 L371.875,818.0471 L372.6563,989.6764 L373.4375,989.7842 L374.2188,989.7842 L375,989.137 L375.7813,799.9244 L376.5625,989.7842 L377.3438,989.5685 L378.125,989.7842 L378.9063,989.7842 L379.6875,989.7842 L380.4688,989.5685 L381.25,989.2449 L382.0313,989.5685 L382.8125,989.7842 L383.5938,989.3527 L384.375,989.7842 L385.1563,989.7842 L385.9375,989.7842 L386.7188,989.7842 L387.5,989.6764 L388.2813,989.4606 L389.0625,989.6764 L389.8438,989.7842 L390.625,989.7842 L391.4063,989.7842 L392.1875,989.7842 L392.9688,989.6764 L393.75,823.0092 L394.5313,989.7842 L395.3125,989.3527 L396.0938,989.6764 L396.875,989.7842 L397.6563,989.7842 L398.4375,989.7842 L399.2188,989.7842 L400,989.7842 L400.7813,989.6764 L401.5625,989.7842 L402.3438,989.0291 L403.125,989.6764 L403.9063,989.5685 L404.6875,989.5685 L405.4688,989.2449 L406.25,989.6764 L407.0313,989.7842 L407.8125,989.6764 L408.5938,989.7842 L409.375,989.7842 L410.1563,989.7842 L410.9375,989.7842 L411.7188,989.7842 L412.5,989.6764 L413.2813,989.7842 L414.0625,989.7842 L414.8438,790 L415.625,989.7842 L416.4063,989.7842 L417.1875,989.7842 L417.9688,989.7842 L418.75,989.5685 L419.5313,989.3527 L420.3125,989.6764 L421.0938,989.6764 L421.875,989.7842 L422.6563,989.7842 L423.4375,989.4606 L424.2188,989.6764 L425,989.5685 L425.7813,989.3527 L426.5625,989.7842 L427.3438,989.7842 L428.125,989.7842 L428.9063,989.7842 L429.6875,989.7842 L430.4688,989.4606 L431.25,989.7842 L432.0313,989.7842 L432.8125,989.6764 L433.5938,989.6764 L434.375,989.7842 L435.1563,989.7842 L435.9375,989.7842 L436.7188,989.7842 L437.5,989.5685 L438.2813,989.3527 L439.0625,989.7842 L439.8438,989.4606 L440.625,988.5976 L441.4063,989.3527 L442.1875,989.7842 L442.9688,942.3198 L443.75,989.6764 L444.5313,989.7842 L445.3125,989.5685 L446.0938,989.2449 L446.875,989.4606 L447.6563,989.6764 L448.4375,989.7842 L449.2188,989.7842 L450,989.5685 L450.7813,989.4606 L451.5625,989.5685 L452.3438,989.6764 L453.125,989.6764 L453.9063,989.4606 L454.6875,989.4606 L455.4688,989.7842 L456.25,989.5685 L457.0313,989.5685 L457.8125,989.6764 L458.5938,989.7842 L459.375,989.7842 L460.1563,989.6764 L460.9375,989.6764 L461.7188,989.7842 L462.5,989.7842 L463.2813,989.7842 L464.0625,989.7842 L464.8438,989.5685 L465.625,989.7842 L466.4063,989.7842 L467.1875,989.7842 L467.9688,989.7842 L468.75,989.4606 L469.5313,989.2449 L470.3125,989.7842 L471.0938,989.7842 L471.875,989.7842 L472.6563,989.7842 L473.4375,989.7842 L474.2188,989.5685 L475,989.7842 L475.7813,989.6764 L476.5625,989.7842 L477.3438,989.7842 L478.125,989.5685 L478.9063,989.7842 L479.6875,834.9833 L480.4688,989.6764 L481.25,989.4606 L482.0313,989.7842 L482.8125,988.8134 L483.5938,989.7842 L484.375,793.452 L485.1563,989.7842 L485.9375,989.6764 L486.7188,941.6726 L487.5,989.7842 L488.2813,845.1237 L489.0625,989.5685 L489.8438,989.6764 L490.625,989.3527 L491.4063,989.7842 L492.1875,989.7842 L492.9688,989.5685 L493.75,989.6764 L494.5313,989.7842 L495.3125,989.5685 L496.0938,853.1065 L496.875,989.7842 L497.6563,989.6764 L498.4375,806.3967 L499.2188,989.7842 L500,989.4606 L500.7813,989.4606 L501.5625,989.7842 L502.3438,989.7842 L503.125,843.7213 L503.9063,989.7842 L504.6875,989.5685 L505.4688,989.7842 L506.25,989.6764 L507.0313,840.0535 L507.8125,989.4606 L508.5938,988.3818 L509.375,989.7842 L510.1563,989.5685 L510.9375,901.9742 L511.7188,989.7842 L512.5,989.7842 L513.2813,989.3527 L514.0625,989.7842 L514.8438,989.6764 L515.625,989.7842 L516.4063,989.5685 " stroke="blue" fill="none" />
<text x="50" y="1040" font-family="Arial" font-size="12" fill="black">Episode Length (598)</text>
<text x="50" y="1055" font-family="Arial" font-size="10" fill="black">750</text>
<text x="50" y="1270" font-family="Arial" font-size="10" fill="black">25</text>
<path d="M50,1060 L50.78125,1060 L51.5625,1060 L52.34375,1087.31 L53.125,1060 L53.90625,1060 L54.6875,1060 L55.46875,1060 L56.25,1060 L57.03125,1060 L57.8125,1060 L58.59375,1060 L59.375,1060 L60.15625,1136.414 L60.9375,1060 L61.71875,1140 L62.5,1060 L63.28125,1060 L64.0625,1060 L64.84375,1060 L65.625,1060 L66.40625,1060 L67.1875,1060 L67.96875,1060 L68.75,1060 L69.53125,1100 L70.3125,1060 L71.09375,1060 L71.875,1060 L72.65625,1060 L73.4375,1060 L74.21875,1060 L75,1060 L75.78125,1060 L76.5625,1159.862 L77.34375,1060 L78.125,1060 L78.90625,1060 L79.6875,1060 L80.46875,1060 L81.25,1060 L82.03125,1060 L82.8125,1060 L83.59375,1060 L84.375,1060 L85.15625,1060 L85.9375,1060 L86.71875,1060 L87.5,1060 L88.28125,1060 L89.0625,1060 L89.84375,1060 L90.625,1060 L91.40625,1114.069 L92.1875,1060 L92.96875,1060 L93.75,1060 L94.53125,1060 L95.3125,1060 L96.09375,1060 L96.875,1060 L97.65625,1060 L98.4375,1060 L99.21875,1060 L100,1060 L100.7813,1060 L101.5625,1060 L102.3438,1060 L103.125,1060 L103.9063,1060 L104.6875,1060 L105.4688,1060 L106.25,1060 L107.0313,1060 L107.8125,1060 L108.5938,1060 L109.375,1060 L110.1563,1060 L110.9375,1060 L111.7188,1060 L112.5,1060 L113.2813,1060 L114.0625,1060 L114.8438,1060 L115.625,1060 L116.4063,1060 L117.1875,1060 L117.9688,1060 L118.75,1060 L119.5313,1060 L120.3125,1060 L121.0938,1060 L121.875,1060 L122.6563,1060 L123.4375,1060 L124.2188,1060 L125,1060 L125.7813,1060 L126.5625,1060 L127.3438,1060 L128.125,1060 L128.9063,1060 L129.6875,1060 L130.4688,1060 L131.25,1060 L132.0313,1060 L132.8125,1060 L133.5938,1060 L134.375,1060 L135.1563,1060 L135.9375,1060 L136.7188,1060 L137.5,1060 L138.2813,1195.172 L139.0625,1060 L139.8438,1060 L140.625,1060 L141.4063,1060 L142.1875,1060 L142.9688,1060 L143.75,1060 L144.5313,1060 L145.3125,1060 L146.0938,1060 L146.875,1060 L147.6563,1060 L148.4375,1060 L149.2188,1060 L150,1060 L150.7813,1060 L151.5625,1060 L152.3438,1060 L153.125,1060 L153.9063,1060 L154.6875,1060 L155.4688,1060 L156.25,1060 L157.0313,1060 L157.8125,1194.897 L158.5938,1060 L159.375,1060 L160.1563,1060 L160.9375,1060 L161.7188,1060 L162.5,1060 L163.2813,1060 L164.0625,1060 L164.8438,1060 L165.625,1060 L166.4063,1060 L167.1875,1060 L167.9688,1060 L168.75,1060 L169.5313,1060 L170.3125,1060 L171.0938,1060 L171.875,1060 L172.6563,1060 L173.4375,1060 L174.2188,1060 L175,1060 L175.7813,1060 L176.5625,1060 L177.3438,1060 L178.125,1060 L178.9063,1060 L179.6875,1060 L180.4688,1060 L181.25,1060 L182.0313,1060 L182.8125,1060 L183.5938,1060 L184.375,1060 L185.1563,1060 L185.9375,1060 L186.7188,1060 L187.5,1060 L188.2813,1060 L189.0625,1060 L189.8438,1060 L190.625,1060 L191.4063,1060 L192.1875,1060 L192.9688,1060 L193.75,1060 L194.5313,1060 L195.3125,1060 L196.0938,1060 L196.875,1060 L197.6563,1060 L198.4375,1060 L199.2188,1060 L200,1060 L200.7813,1060 L201.5625,1060 L202.3438,1060 L203.125,1060 L203.9063,1060 L204.6875,1060 L205.4688,1060 L206.25,1060 L207.0313,1060 L207.8125,1060 L208.5938,1060 L209.375,1060 L210.1563,1060 L210.9375,1060 L211.7188,1060 L212.5,1060 L213.2813,1060 L214.0625,1060 L214.8438,1060 L215.625,1060 L216.4063,1060 L217.1875,1060 L217.9688,1100.552 L218.75,1060 L219.5313,1060 L220.3125,1060 L221.0938,1060 L221.875,1060 L222.6563,1060 L223.4375,1060 L224.2188,1060 L225,1060 L225.7813,1060 L226.5625,1060 L227.3438,1060 L228.125,1060 L228.9063,1060 L229.6875,1060 L230.4688,1060 L231.25,1060 L232.0313,1060 L232.8125,1060 L233.5938,1060 L234.375,1060 L235.1563,1060 L235.9375,1060 L236.7188,1060 L237.5,1060 L238.2813,1242.069 L239.0625,1060 L239.8438,1060 L240.625,1061.379 L241.4063,1060 L242.1875,1060 L242.9688,1060 L243.75,1060 L244.5313,1060 L245.3125,1060 L246.0938,1060 L246.875,1060 L247.6563,1060 L248.4375,1060 L249.2188,1060 L250,1060 L250.7813,1130.897 L251.5625,1060 L252.3438,1060 L253.125,1060 L253.9063,1060 L254.6875,1060 L255.4688,1060 L256.25,1060 L257.0313,1060 L257.8125,1060 L258.5938,1060 L259.375,1060 L260.1563,1060 L260.9375,1060 L261.7188,1060 L262.5,1060 L263.2813,1060 L264.0625,1060 L264.8438,1060 L265.625,1060 L266.4063,1205.931 L267.1875,1060 L267.9688,1060 L268.75,1060 L269.5313,1060 L270.3125,1060 L271.0938,1060 L271.875,1060 L272.6563,1060 L273.4375,1060 L274.2188,1214.759 L275,1060 L275.7813,1060 L276.5625,1060 L277.3438,1060 L278.125,1060 L278.9063,1060 L279.6875,1060 L280.4688,1060 L281.25,1060 L282.0313,1060 L282.8125,1060 L283.5938,1060 L284.375,1060 L285.1563,1060 L285.9375,1060 L286.7188,1060 L287.5,1060 L288.2813,1060 L289.0625,1067.172 L289.8438,1175.862 L290.625,1060 L291.4063,1060 L292.1875,1060 L292.9688,1192.69 L293.75,1060 L294.5313,1060 L295.3125,1060 L296.0938,1060 L296.875,1060 L297.6563,1060 L298.4375,1060 L299.2188,1060 L300,1060 L300.7813,1060 L301.5625,1060 L302.3438,1060 L303.125,1060 L303.9063,1060 L304.6875,1060 L305.4688,1060 L306.25,1060 L307.0313,1060 L307.8125,1060 L308.5938,1060 L309.375,1060 L310.1563,1060 L310.9375,1060 L311.7188,1060 L312.5,1060 L313.2813,1060 L314.0625,1060 L314.8438,1060 L315.625,1060 L316.4063,1060 L317.1875,1060 L317.9688,1060 L318.75,1060 L319.5313,1060 L320.3125,1060 L321.0938,1060 L321.875,1060 L322.6563,1060 L323.4375,1114.621 L324.2188,1060 L325,1060 L325.7813,1060 L326.5625,1060 L327.3438,1060 L328.125,1060 L328.9063,1060 L329.6875,1060 L330.4688,1060 L331.25,1060 L332.0313,1139.172 L332.8125,1060 L333.5938,1060 L334.375,1060 L335.1563,1060 L335.9375,1060 L336.7188,1060 L337.5,1060 L338.2813,1060 L339.0625,1060 L339.8438,1060 L340.625,1060 L341.4063,1060 L342.1875,1060 L342.9688,1060 L343.75,1060 L344.5313,1060 L345.3125,1060 L346.0938,1060 L346.875,1060 L347.6563,1060 L348.4375,1060 L349.2188,1060 L350,1060 L350.7813,1060 L351.5625,1060 L352.3438,1060 L353.125,1060 L353.9063,1060 L354.6875,1060 L355.4688,1060 L356.25,1060 L357.0313,1068.276 L357.8125,1060 L358.5938,1060 L359.375,1060 L360.1563,1060 L360.9375,1060 L361.7188,1060 L362.5,1060 L363.2813,1060 L364.0625,1172.828 L364.8438,1060 L365.625,1060 L366.4063,1060 L367.1875,1060 L367.9688,1060 L368.75,1060 L369.5313,1164.276 L370.3125,1087.034 L371.0938,1060 L371.875,1223.862 L372.6563,1060 L373.4375,1060 L374.2188,1060 L375,1060 L375.7813,1246.759 L376.5625,1060 L377.3438,1060 L378.125,1060 L378.9063,1060 L379.6875,1060 L380.4688,1060 L381.25,1060 L382.0313,1060 L382.8125,1060 L383.5938,1060 L384.375,1060 L385.1563,1060 L385.9375,1060 L386.7188,1060 L387.5,1060 L388.2813,1060 L389.0625,1060 L389.8438,1060 L390.625,1060 L391.4063,1060 L392.1875,1060 L392.9688,1060 L393.75,1217.517 L394.5313,1060 L395.3125,1060 L396.0938,1060 L396.875,1060 L397.6563,1060 L398.4375,1060 L399.2188,1060 L400,1060 L400.7813,1060 L401.5625,1060 L402.3438,1060 L403.125,1060 L403.9063,1060 L404.6875,1060 L405.4688,1060 L406.25,1060 L407.0313,1060 L407.8125,1060 L408.5938,1060 L409.375,1060 L410.1563,1060 L410.9375,1060 L411.7188,1060 L412.5,1060 L413.2813,1060 L414.0625,1060 L414.8438,1260 L415.625,1060 L416.4063,1060 L417.1875,1060 L417.9688,1060 L418.75,1060 L419.5313,1060 L420.3125,1060 L421.0938,1060 L421.875,1060 L422.6563,1060 L423.4375,1060 L424.2188,1060 L425,1060 L425.7813,1060 L426.5625,1060 L427.3438,1060 L428.125,1060 L428.9063,1060 L429.6875,1060 L430.4688,1060 L431.25,1060 L432.0313,1060 L432.8125,1060 L433.5938,1060 L434.375,1060 L435.1563,1060 L435.9375,1060 L436.7188,1060 L437.5,1060 L438.2813,1060 L439.0625,1060 L439.8438,1060 L440.625,1060 L441.4063,1060 L442.1875,1060 L442.9688,1065.241 L443.75,1060 L444.5313,1060 L445.3125,1060 L446.0938,1060 L446.875,1060 L447.6563,1060 L448.4375,1060 L449.2188,1060 L450,1060 L450.7813,1060 L451.5625,1060 L452.3438,1060 L453.125,1060 L453.9063,1060 L454.6875,1060 L455.4688,1060 L456.25,1060 L457.0313,1060 L457.8125,1060 L458.5938,1060 L459.375,1060 L460.1563,1060 L460.9375,1060 L461.7188,1060 L462.5,1060 L463.2813,1060 L464.0625,1060 L464.8438,1060 L465.625,1060 L466.4063,1060 L467.1875,1060 L467.9688,1060 L468.75,1060 L469.5313,1060 L470.3125,1060 L471.0938,1060 L471.875,1060 L472.6563,1060 L473.4375,1060 L474.2188,1060 L475,1060 L475.7813,1060 L476.5625,1060 L477.3438,1060 L478.125,1060 L478.9063,1060 L479.6875,1202.621 L480.4688,1060 L481.25,1060 L482.0313,1060 L482.8125,1060 L483.5938,1060 L484.375,1255.034 L485.1563,1060 L485.9375,1060 L486.7188,1066.069 L487.5,1060 L488.2813,1189.655 L489.0625,1060 L489.8438,1060 L490.625,1060 L491.4063,1060 L492.1875,1060 L492.9688,1060 L493.75,1060 L494.5313,1060 L495.3125,1060 L496.0938,1179.448 L496.875,1060 L497.6563,1060 L498.4375,1239.034 L499.2188,1060 L500,1060 L500.7813,1060 L501.5625,1060 L502.3438,1060 L503.125,1191.31 L503.9063,1060 L504.6875,1060 L505.4688,1060 L506.25,1060 L507.0313,1195.724 L507.8125,1060 L508.5938,1060 L509.375,1060 L510.1563,1060 L510.9375,1116.552 L511.7188,1060 L512.5,1060 L513.2813,1060 L514.0625,1060 L514.8438,1060 L515.625,1060 L516.4063,1060 " stroke="blue" fill="none" />
<text x="50" y="1310" font-family="Arial" font-size="12" fill="black">Policy Loss</text>
<text x="50" y="1325" font-family="Arial" font-size="10" fill="black">0.0196702</text>
<text x="50" y="1540" font-family="Arial" font-size="10" fill="black">0.001441598</text>
<path d="M50,1479.614 L50.39063,1511.787 L50.78125,1505.039 L51.17188,1502.015 L51.5625,1518.7 L51.95313,1509.815 L52.34375,1514.235 L52.73438,1509.046 L53.125,1429.03 L53.51563,1516.59 L53.90625,1504.587 L54.29688,1519.991 L54.6875,1507.968 L55.07813,1515.55 L55.46875,1514.194 L55.85938,1519.138 L56.25,1390.57 L56.64063,1501.091 L57.03125,1498.24 L57.42188,1515.781 L57.8125,1518.572 L58.20313,1512.58 L58.59375,1518.221 L58.98438,1515.152 L59.375,1412.211 L59.76563,1510.392 L60.15625,1506.449 L60.54688,1515.937 L60.9375,1508.016 L61.32813,1519.034 L61.71875,1516.283 L62.10938,1517.424 L62.5,1426.317 L62.89063,1512.378 L63.28125,1510.978 L63.67188,1499.632 L64.0625,1512.464 L64.45313,1514.806 L64.84375,1509.706 L65.23438,1501.514 L65.625,1387.116 L66.01563,1512.58 L66.40625,1504.793 L66.79688,1508.936 L67.1875,1505.719 L67.57813,1513.571 L67.96875,1508.053 L68.35938,1507.903 L68.75,1409.277 L69.14063,1519.38 L69.53125,1509.415 L69.92188,1509.465 L70.3125,1511.307 L70.70313,1507.462 L71.09375,1500.721 L71.48438,1514.859 L71.875,1407.178 L72.26563,1512.41 L72.65625,1515.918 L73.04688,1513.167 L73.4375,1519.059 L73.82813,1501.166 L74.21875,1515.395 L74.60938,1515.792 L75,1440.187 L75.39063,1520.916 L75.78125,1512.948 L76.17188,1512.543 L76.5625,1508.781 L76.95313,1515.095 L77.34375,1517.225 L77.73438,1502.594 L78.125,1389.443 L78.51563,1505.999 L78.90625,1514.739 L79.29688,1513.986 L79.6875,1513.834 L80.07813,1517.304 L80.46875,1503.784 L80.85938,1509.269 L81.25,1384.352 L81.64063,1511.618 L82.03125,1515.186 L82.42188,1520.742 L82.8125,1523.588 L83.20313,1523.598 L83.59375,1520.374 L83.98438,1508.564 L84.375,1413.539 L84.76563,1515.838 L85.15625,1511.127 L85.54688,1519.82 L85.9375,1507.814 L86.32813,1511.706 L86.71875,1508.524 L87.10938,1509.159 L87.5,1373.205 L87.89063,1515.808 L88.28125,1518.413 L88.67188,1513.571 L89.0625,1503.565 L89.45313,1517.183 L89.84375,1505.013 L90.23438,1513.82 L90.625,1378.955 L91.01563,1521.654 L91.40625,1519.799 L91.79688,1514.33 L92.1875,1510.267 L92.57813,1514.333 L92.96875,1515.055 L93.35938,1514.789 L93.75,1402.641 L94.14063,1525.13 L94.53125,1521.066 L94.92188,1518.913 L95.3125,1500.719 L95.70313,1515.532 L96.09375,1509.631 L96.48438,1501.876 L96.875,1368.28 L97.26563,1507.966 L97.65625,1508.953 L98.04688,1507.211 L98.4375,1501.179 L98.82813,1504.767 L99.21875,1516.892 L99.60938,1522.068 L100,1400.599 L100.3906,1512.162 L100.7813,1516.896 L101.1719,1516.766 L101.5625,1516.045 L101.9531,1522.035 L102.3438,1514.061 L102.7344,1515.299 L103.125,1367.377 L103.5156,1503.731 L103.9063,1514.363 L104.2969,1500.074 L104.6875,1505.6 L105.0781,1510.321 L105.4688,1506.045 L105.8594,1520.352 L106.25,1381.832 L106.6406,1521.199 L107.0313,1523.535 L107.4219,1504.861 L107.8125,1515.8 L108.2031,1511.394 L108.5938,1507.199 L108.9844,1503.932 L109.375,1400.58 L109.7656,1515.349 L110.1563,1518.004 L110.5469,1518.226 L110.9375,1504.121 L111.3281,1513.829 L111.7188,1511.217 L112.1094,1509.249 L112.5,1363.628 L112.8906,1501.936 L113.2813,1513.728 L113.6719,1506.348 L114.0625,1516.443 L114.4531,1517.831 L114.8438,1500.068 L115.2344,1508.962 L115.625,1375.603 L116.0156,1507.029 L116.4063,1506.53 L116.7969,1513.196 L117.1875,1513.779 L117.5781,1517.827 L117.9688,1515.967 L118.3594,1524.179 L118.75,1412.167 L119.1406,1507.779 L119.5313,1513.617 L119.9219,1504.195 L120.3125,1517.556 L120.7031,1521.346 L121.0938,1522.112 L121.4844,1498.775 L121.875,1364.984 L122.2656,1520.125 L122.6563,1508.793 L123.0469,1512.374 L123.4375,1513.482 L123.8281,1511.649 L124.2188,1509.857 L124.6094,1512.052 L125,1394.93 L125.3906,1509.103 L125.7813,1505.923 L126.1719,1511.103 L126.5625,1514.974 L126.9531,1503.606 L127.3438,1506.787 L127.7344,1515.73 L128.125,1386.455 L128.5156,1504.093 L128.9063,1501.95 L129.2969,1522.231 L129.6875,1510.704 L130.0781,1521.873 L130.4688,1517.179 L130.8594,1512.139 L131.25,1344.114 L131.6406,1518.861 L132.0313,1503.876 L132.4219,1518.644 L132.8125,1514.523 L133.2031,1512.26 L133.5938,1516.874 L133.9844,1514.475 L134.375,1380.969 L134.7656,1516.287 L135.1563,1504.201 L135.5469,1498.798 L135.9375,1516.813 L136.3281,1509.022 L136.7188,1515.917 L137.1094,1513.897 L137.5,1367.995 L137.8906,1508.187 L138.2813,1501.571 L138.6719,1512.118 L139.0625,1501.589 L139.4531,1509.806 L139.8438,1516.636 L140.2344,1503.972 L140.625,1367.27 L141.0156,1495.757 L141.4063,1511.26 L141.7969,1521.941 L142.1875,1517.479 L142.5781,1509.203 L142.9688,1513.231 L143.3594,1513.76 L143.75,1393.108 L144.1406,1502.449 L144.5313,1508.002 L144.9219,1515.181 L145.3125,1518.998 L145.7031,1510.001 L146.0938,1519.951 L146.4844,1508.232 L146.875,1358.109 L147.2656,1514.454 L147.6563,1514.333 L148.0469,1511.53 L148.4375,1512.016 L148.8281,1512.181 L149.2188,1517.667 L149.6094,1515.468 L150,1405.893 L150.3906,1511.37 L150.7813,1513.364 L151.1719,1507.609 L151.5625,1510.86 L151.9531,1505.604 L152.3438,1515.223 L152.7344,1518.571 L153.125,1365.672 L153.5156,1508.94 L153.9063,1516.173 L154.2969,1512.071 L154.6875,1510.253 L155.0781,1516.177 L155.4688,1504.695 L155.8594,1501.617 L156.25,1350.872 L156.6406,1511.172 L157.0313,1507.324 L157.4219,1504.198 L157.8125,1515.571 L158.2031,1511.636 L158.5938,1516.953 L158.9844,1516.37 L159.375,1385.412 L159.7656,1514.732 L160.1563,1509.651 L160.5469,1512.907 L160.9375,1505.05 L161.3281,1520.011 L161.7188,1504.692 L162.1094,1520.968 L162.5,1343.956 L162.8906,1493.079 L163.2813,1521.781 L163.6719,1512.246 L164.0625,1510.044 L164.4531,1518.313 L164.8438,1513.403 L165.2344,1514.693 L165.625,1404.13 L166.0156,1515.255 L166.4063,1509.902 L166.7969,1514.943 L167.1875,1503.859 L167.5781,1509.226 L167.9688,1505.308 L168.3594,1507.251 L168.75,1376.737 L169.1406,1508.062 L169.5313,1519.91 L169.9219,1511.381 L170.3125,1507.446 L170.7031,1513.973 L171.0938,1516.951 L171.4844,1504.002 L171.875,1370.099 L172.2656,1503.242 L172.6563,1507.76 L173.0469,1508.609 L173.4375,1514.144 L173.8281,1509.762 L174.2188,1513.068 L174.6094,1505.732 L175,1355.603 L175.3906,1506.548 L175.7813,1520.339 L176.1719,1519.939 L176.5625,1510.893 L176.9531,1510.736 L177.3438,1508.219 L177.7344,1512.267 L178.125,1399.342 L178.5156,1517.196 L178.9063,1516.965 L179.2969,1515.641 L179.6875,1484.75 L180.0781,1510.262 L180.4688,1506.759 L180.8594,1515.981 L181.25,1370.08 L181.6406,1497.358 L182.0313,1505.226 L182.4219,1511.162 L182.8125,1504.117 L183.2031,1514.935 L183.5938,1518.343 L183.9844,1515.196 L184.375,1340.73 L184.7656,1507.047 L185.1563,1519.155 L185.5469,1514.3 L185.9375,1517.552 L186.3281,1520.697 L186.7188,1513.009 L187.1094,1513.117 L187.5,1377.294 L187.8906,1509.358 L188.2813,1510.51 L188.6719,1516.197 L189.0625,1512.151 L189.4531,1518.014 L189.8438,1508.608 L190.2344,1500.525 L190.625,1380.023 L191.0156,1518.378 L191.4063,1517.566 L191.7969,1505.9 L192.1875,1512.438 L192.5781,1517.607 L192.9688,1513.889 L193.3594,1508.164 L193.75,1368.18 L194.1406,1515.162 L194.5313,1521.25 L194.9219,1516.312 L195.3125,1514.505 L195.7031,1511.787 L196.0938,1515.182 L196.4844,1519.743 L196.875,1416.88 L197.2656,1519.637 L197.6563,1510.811 L198.0469,1504.379 L198.4375,1511.078 L198.8281,1508.194 L199.2188,1516.846 L199.6094,1510.448 L200,1384.189 L200.3906,1519.163 L200.7813,1527.862 L201.1719,1502.063 L201.5625,1514.921 L201.9531,1498.749 L202.3438,1513.751 L202.7344,1511.063 L203.125,1367.928 L203.5156,1498.539 L203.9063,1511.389 L204.2969,1519.017 L204.6875,1507.004 L205.0781,1516 L205.4688,1517.571 L205.8594,1516.981 L206.25,1389.745 L206.6406,1516.323 L207.0313,1502.375 L207.4219,1518.165 L207.8125,1516.609 L208.2031,1515.04 L208.5938,1513.603 L208.9844,1523.035 L209.375,1368.088 L209.7656,1505.663 L210.1563,1516.639 L210.5469,1496.733 L210.9375,1519.06 L211.3281,1512.848 L211.7188,1506.007 L212.1094,1499.108 L212.5,1398.161 L212.8906,1506.439 L213.2813,1514.499 L213.6719,1511.933 L214.0625,1521.887 L214.4531,1514.98 L214.8438,1507.108 L215.2344,1517.854 L215.625,1364.52 L216.0156,1514.81 L216.4063,1514.814 L216.7969,1497.694 L217.1875,1512.083 L217.5781,1493.654 L217.9688,1521.577 L218.3594,1505.422 L218.75,1374.997 L219.1406,1508.756 L219.5313,1503.513 L219.9219,1510.683 L220.3125,1500.69 L220.7031,1511.308 L221.0938,1515.346 L221.4844,1513.024 L221.875,1361.88 L222.2656,1515.002 L222.6563,1522.259 L223.0469,1518.046 L223.4375,1518.871 L223.8281,1504.978 L224.2188,1512.409 L224.6094,1515.048 L225,1409.165 L225.3906,1497.032 L225.7813,1510.963 L226.1719,1517.977 L226.5625,1521.01 L226.9531,1515.067 L227.3438,1507.417 L227.7344,1499.239 L228.125,1375.455 L228.5156,1524.34 L228.9063,1511.016 L229.2969,1512.59 L229.6875,1510.253 L230.0781,1502.889 L230.4688,1507.256 L230.8594,1515.155 L231.25,1370.598 L231.6406,1504.776 L232.0313,1513.969 L232.4219,1506.442 L232.8125,1510.957 L233.2031,1505.791 L233.5938,1501.965 L233.9844,1513.2 L234.375,1380.274 L234.7656,1518.892 L235.1563,1515.577 L235.5469,1509.161 L235.9375,1515.061 L236.3281,1506.451 L236.7188,1524.901 L237.1094,1518.207 L237.5,1386.825 L237.8906,1511.507 L238.2813,1506.954 L238.6719,1504.638 L239.0625,1513.952 L239.4531,1510.154 L239.8438,1517.29 L240.2344,1515.188 L240.625,1351.437 L241.0156,1504.305 L241.4063,1513.19 L241.7969,1499.692 L242.1875,1520.722 L242.5781,1513.684 L242.9688,1516.281 L243.3594,1512.815 L243.75,1376.244 L244.1406,1504.422 L244.5313,1510.714 L244.9219,1507.37 L245.3125,1516.713 L245.7031,1514.424 L246.0938,1500.433 L246.4844,1502.568 L246.875,1369.343 L247.2656,1514.924 L247.6563,1512.038 L248.0469,1516.96 L248.4375,1514.44 L248.8281,1504.476 L249.2188,1525.26 L249.6094,1515.824 L250,1364.696 L250.3906,1508.27 L250.7813,1502.404 L251.1719,1509.106 L251.5625,1516.443 L251.9531,1507.883 L252.3438,1512.142 L252.7344,1514.353 L253.125,1397.644 L253.5156,1516.948 L253.9063,1518.415 L254.2969,1514.547 L254.6875,1511.644 L255.0781,1508.791 L255.4688,1508.602 L255.8594,1515.389 L256.25,1365.281 L256.6406,1517.24 L257.0313,1518.002 L257.4219,1511.721 L257.8125,1517.198 L258.2031,1512.282 L258.5938,1523.862 L258.9844,1506.915 L259.375,1337.688 L259.7656,1511.405 L260.1563,1515.661 L260.5469,1510.99 L260.9375,1508.131 L261.3281,1506.678 L261.7188,1514.735 L262.1094,1514.643 L262.5,1392.996 L262.8906,1519.499 L263.2813,1516.861 L263.6719,1521.671 L264.0625,1512.715 L264.4531,1517.171 L264.8438,1510.13 L265.2344,1488.526 L265.625,1371.529 L266.0156,1505.789 L266.4063,1511.913 L266.7969,1512.842 L267.1875,1507.3 L267.5781,1504.986 L267.9688,1509.771 L268.3594,1499.463 L268.75,1394.446 L269.1406,1520.927 L269.5313,1504.742 L269.9219,1514.381 L270.3125,1507.188 L270.7031,1504.207 L271.0938,1518.22 L271.4844,1503.539 L271.875,1375.515 L272.2656,1510.218 L272.6563,1510.016 L273.0469,1509.195 L273.4375,1511.845 L273.8281,1513.571 L274.2188,1515.213 L274.6094,1514.656 L275,1353.47 L275.3906,1516.793 L275.7813,1512.664 L276.1719,1513.953 L276.5625,1518.494 L276.9531,1514.269 L277.3438,1517.005 L277.7344,1518.045 L278.125,1344.363 L278.5156,1510.298 L278.9063,1517.994 L279.2969,1493.545 L279.6875,1526.585 L280.0781,1515.67 L280.4688,1512.802 L280.8594,1518.169 L281.25,1344.616 L281.6406,1506.142 L282.0313,1521.547 L282.4219,1505.765 L282.8125,1514.777 L283.2031,1517.302 L283.5938,1508.141 L283.9844,1509.471 L284.375,1376.432 L284.7656,1510.556 L285.1563,1510.474 L285.5469,1515.099 L285.9375,1512.648 L286.3281,1514.982 L286.7188,1507.572 L287.1094,1523.151 L287.5,1405.769 L287.8906,1514.404 L288.2813,1523.671 L288.6719,1508.583 L289.0625,1510.54 L289.4531,1523.198 L289.8438,1504.555 L290.2344,1509.155 L290.625,1385.98 L291.0156,1510.85 L291.4063,1498.803 L291.7969,1506.667 L292.1875,1510.613 L292.5781,1509.338 L292.9688,1515.036 L293.3594,1508.652 L293.75,1392.903 L294.1406,1511.216 L294.5313,1515.413 L294.9219,1500.676 L295.3125,1516.4 L295.7031,1513.003 L296.0938,1517.774 L296.4844,1514.252 L296.875,1401.202 L297.2656,1515.356 L297.6563,1511.005 L298.0469,1514.99 L298.4375,1522.088 L298.8281,1518.985 L299.2188,1517.277 L299.6094,1519.601 L300,1363.25 L300.3906,1511.58 L300.7813,1512.867 L301.1719,1510.349 L301.5625,1507.825 L301.9531,1507.264 L302.3438,1522.34 L302.7344,1509.424 L303.125,1371.193 L303.5156,1511.976 L303.9063,1513.992 L304.2969,1505.712 L304.6875,1511.276 L305.0781,1509.199 L305.4688,1516.935 L305.8594,1500.272 L306.25,1352.238 L306.6407,1513.586 L307.0313,1519.623 L307.4219,1512.975 L307.8125,1505.745 L308.2031,1511.791 L308.5938,1496.464 L308.9844,1518.115 L309.375,1354.8 L309.7656,1511.662 L310.1563,1511.658 L310.5469,1515.558 L310.9375,1520.906 L311.3281,1509.292 L311.7188,1507.784 L312.1094,1519.007 L312.5,1408.05 L312.8906,1521.645 L313.2813,1511.864 L313.6719,1505 L314.0625,1513.165 L314.4532,1503.126 L314.8438,1505.637 L315.2344,1513.911 L315.625,1365.127 L316.0156,1509.844 L316.4063,1515.241 L316.7969,1519.034 L317.1875,1518.831 L317.5781,1510.498 L317.9688,1503.852 L318.3594,1508.145 L318.75,1415.314 L319.1406,1511.991 L319.5313,1514.617 L319.9219,1516.779 L320.3125,1523.736 L320.7031,1516.659 L321.0938,1513.401 L321.4844,1511.491 L321.875,1347.018 L322.2657,1510.035 L322.6563,1522.724 L323.0469,1513.595 L323.4375,1510.882 L323.8281,1506.812 L324.2188,1513.516 L324.6094,1512.868 L325,1349.907 L325.3906,1506.502 L325.7813,1510.879 L326.1719,1514.772 L326.5625,1509.577 L326.9531,1512.461 L327.3438,1516.733 L327.7344,1515.989 L328.125,1376.547 L328.5156,1510.757 L328.9063,1518.926 L329.2969,1517.77 L329.6875,1514.939 L330.0782,1515.364 L330.4688,1510.612 L330.8594,1510.719 L331.25,1350.819 L331.6406,1508.957 L332.0313,1516.262 L332.4219,1517.116 L332.8125,1517.978 L333.2031,1511.752 L333.5938,1516.206 L333.9844,1526.661 L334.375,1379.042 L334.7656,1512.606 L335.1563,1512.776 L335.5469,1516.509 L335.9375,1507.537 L336.3281,1505.909 L336.7188,1507.027 L337.1094,1514.114 L337.5,1379.486 L337.8907,1519.901 L338.2813,1519.223 L338.6719,1517.531 L339.0625,1507.212 L339.4531,1511.954 L339.8438,1509.511 L340.2344,1513.74 L340.625,1382.036 L341.0156,1508.232 L341.4063,1521.269 L341.7969,1516.272 L342.1875,1503.664 L342.5781,1506.547 L342.9688,1506.196 L343.3594,1509.223 L343.75,1372.703 L344.1406,1509.558 L344.5313,1511.967 L344.9219,1503.889 L345.3125,1511.15 L345.7032,1506.012 L346.0938,1502.47 L346.4844,1507.708 L346.875,1351.508 L347.2656,1506.024 L347.6563,1518.856 L348.0469,1520.309 L348.4375,1514.173 L348.8281,1508.328 L349.2188,1509.767 L349.6094,1509.756 L350,1389.848 L350.3906,1523.124 L350.7813,1511.196 L351.1719,1509.068 L351.5625,1511.245 L351.9531,1519.143 L352.3438,1504.38 L352.7344,1506.403 L353.125,1354.941 L353.5157,1501.54 L353.9063,1513.027 L354.2969,1508.234 L354.6875,1519.997 L355.0781,1507.11 L355.4688,1513.353 L355.8594,1511.521 L356.25,1373.6 L356.6406,1508.062 L357.0313,1506.89 L357.4219,1511.214 L357.8125,1513.314 L358.2031,1514.36 L358.5938,1504.071 L358.9844,1508.133 L359.375,1375.908 L359.7656,1518.366 L360.1563,1517.942 L360.5469,1511.807 L360.9375,1518.83 L361.3282,1520.286 L361.7188,1513.612 L362.1094,1517.051 L362.5,1385.382 L362.8906,1512.895 L363.2813,1529.467 L363.6719,1525.331 L364.0625,1516.637 L364.4531,1511.675 L364.8438,1513.59 L365.2344,1498.593 L365.625,1365.596 L366.0156,1514.627 L366.4063,1512.163 L366.7969,1507.367 L367.1875,1508.735 L367.5781,1509.183 L367.9688,1510.445 L368.3594,1512.459 L368.75,1330 L369.1407,1504.062 L369.5313,1519.933 L369.9219,1508.703 L370.3125,1520.082 L370.7031,1506.057 L371.0938,1515.059 L371.4844,1504.603 L371.875,1361.965 L372.2656,1520.776 L372.6563,1515.582 L373.0469,1514.805 L373.4375,1514.3 L373.8281,1513.273 L374.2188,1517.431 L374.6094,1503.701 L375,1399.684 L375.3906,1503.403 L375.7813,1507.829 L376.1719,1521.012 L376.5625,1513.402 L376.9532,1518.224 L377.3438,1514.024 L377.7344,1506.277 L378.125,1364.551 L378.5156,1517.059 L378.9063,1525.708 L379.2969,1521.872 L379.6875,1530 L380.0781,1509.488 L380.4688,1508.325 L380.8594,1501.996 " stroke="blue" fill="none" />
<text x="50" y="1580" font-family="Arial" font-size="12" fill="black">Value Loss</text>
<text x="50" y="1595" font-family="Arial" font-size="10" fill="black">0.02002575</text>
<text x="50" y="1810" font-family="Arial" font-size="10" fill="black">0.0001272083</text>
<path d="M50,1600 L50.39063,1706.685 L50.78125,1739.066 L51.17188,1748.881 L51.5625,1753.014 L51.95313,1755.457 L52.34375,1757.415 L52.73438,1759.1 L53.125,1778.99 L53.51563,1786.762 L53.90625,1790.397 L54.29688,1791.567 L54.6875,1792.32 L55.07813,1792.89 L55.46875,1793.379 L55.85938,1793.809 L56.25,1787.33 L56.64063,1791.347 L57.03125,1792.93 L57.42188,1793.685 L57.8125,1794.175 L58.20313,1794.615 L58.59375,1794.975 L58.98438,1795.265 L59.375,1795.193 L59.76563,1796.747 L60.15625,1797.385 L60.54688,1797.715 L60.9375,1797.932 L61.32813,1798.13 L61.71875,1798.273 L62.10938,1798.402 L62.5,1794.938 L62.89063,1796.698 L63.28125,1797.398 L63.67188,1797.761 L64.0625,1798 L64.45313,1798.19 L64.84375,1798.371 L65.23438,1798.518 L65.625,1796.703 L66.01563,1797.949 L66.40625,1798.471 L66.79688,1798.679 L67.1875,1798.855 L67.57813,1799.004 L67.96875,1799.116 L68.35938,1799.221 L68.75,1795.182 L69.14063,1795.922 L69.53125,1797.373 L69.92188,1797.76 L70.3125,1797.988 L70.70313,1798.153 L71.09375,1798.292 L71.48438,1798.384 L71.875,1797.381 L72.26563,1797.833 L72.65625,1798.582 L73.04688,1798.818 L73.4375,1798.965 L73.82813,1799.056 L74.21875,1799.13 L74.60938,1799.208 L75,1798.293 L75.39063,1798.763 L75.78125,1799.216 L76.17188,1799.365 L76.5625,1799.453 L76.95313,1799.511 L77.34375,1799.587 L77.73438,1799.655 L78.125,1795.151 L78.51563,1796.214 L78.90625,1796.868 L79.29688,1797.165 L79.6875,1797.425 L80.07813,1797.607 L80.46875,1797.745 L80.85938,1797.913 L81.25,1798.41 L81.64063,1798.868 L82.03125,1799.024 L82.42188,1799.122 L82.8125,1799.161 L83.20313,1799.238 L83.59375,1799.265 L83.98438,1799.298 L84.375,1797.628 L84.76563,1798.422 L85.15625,1798.705 L85.54688,1798.871 L85.9375,1798.977 L86.32813,1799.059 L86.71875,1799.118 L87.10938,1799.175 L87.5,1798.538 L87.89063,1798.876 L88.28125,1799.096 L88.67188,1799.291 L89.0625,1799.398 L89.45313,1799.455 L89.84375,1799.533 L90.23438,1799.597 L90.625,1797.632 L91.01563,1798.058 L91.40625,1798.545 L91.79688,1798.724 L92.1875,1798.827 L92.57813,1798.929 L92.96875,1799.015 L93.35938,1799.063 L93.75,1798.374 L94.14063,1798.54 L94.53125,1799.045 L94.92188,1799.142 L95.3125,1799.242 L95.70313,1799.28 L96.09375,1799.323 L96.48438,1799.341 L96.875,1797.715 L97.26563,1798.493 L97.65625,1798.889 L98.04688,1799.1 L98.4375,1799.224 L98.82813,1799.354 L99.21875,1799.443 L99.60938,1799.52 L100,1797.963 L100.3906,1798.795 L100.7813,1799.19 L101.1719,1799.342 L101.5625,1799.451 L101.9531,1799.536 L102.3438,1799.601 L102.7344,1799.632 L103.125,1798.406 L103.5156,1798.636 L103.9063,1798.884 L104.2969,1798.95 L104.6875,1799.017 L105.0781,1799.062 L105.4688,1799.081 L105.8594,1799.13 L106.25,1798.3 L106.6406,1798.641 L107.0313,1799.055 L107.4219,1799.198 L107.8125,1799.285 L108.2031,1799.34 L108.5938,1799.415 L108.9844,1799.454 L109.375,1797.663 L109.7656,1798.112 L110.1563,1798.649 L110.5469,1798.822 L110.9375,1798.919 L111.3281,1799.021 L111.7188,1799.091 L112.1094,1799.173 L112.5,1793.991 L112.8906,1795.513 L113.2813,1796.482 L113.6719,1796.934 L114.0625,1797.219 L114.4531,1797.439 L114.8438,1797.619 L115.2344,1797.751 L115.625,1797.805 L116.0156,1798.696 L116.4063,1799.061 L116.7969,1799.234 L117.1875,1799.342 L117.5781,1799.448 L117.9688,1799.523 L118.3594,1799.606 L118.75,1797.114 L119.1406,1797.634 L119.5313,1798.285 L119.9219,1798.492 L120.3125,1798.617 L120.7031,1798.731 L121.0938,1798.81 L121.4844,1798.898 L121.875,1798.175 L122.2656,1798.748 L122.6563,1799.256 L123.0469,1799.416 L123.4375,1799.506 L123.8281,1799.585 L124.2188,1799.664 L124.6094,1799.73 L125,1794.809 L125.3906,1796.064 L125.7813,1797.291 L126.1719,1797.843 L126.5625,1798.2 L126.9531,1798.465 L127.3438,1798.66 L127.7344,1798.845 L128.125,1797.514 L128.5156,1798.179 L128.9063,1798.522 L129.2969,1798.715 L129.6875,1798.805 L130.0781,1798.897 L130.4688,1798.968 L130.8594,1799.032 L131.25,1798.485 L131.6406,1798.986 L132.0313,1799.26 L132.4219,1799.417 L132.8125,1799.51 L133.2031,1799.571 L133.5938,1799.636 L133.9844,1799.69 L134.375,1797.643 L134.7656,1798.451 L135.1563,1798.827 L135.5469,1798.975 L135.9375,1799.063 L136.3281,1799.149 L136.7188,1799.241 L137.1094,1799.303 L137.5,1797.782 L137.8906,1798.396 L138.2813,1798.944 L138.6719,1799.171 L139.0625,1799.281 L139.4531,1799.361 L139.8438,1799.433 L140.2344,1799.495 L140.625,1798.237 L141.0156,1798.828 L141.4063,1799.171 L141.7969,1799.336 L142.1875,1799.442 L142.5781,1799.517 L142.9688,1799.571 L143.3594,1799.637 L143.75,1797.68 L144.1406,1798.204 L144.5313,1798.734 L144.9219,1798.979 L145.3125,1799.092 L145.7031,1799.191 L146.0938,1799.273 L146.4844,1799.348 L146.875,1798.457 L147.2656,1798.985 L147.6563,1799.326 L148.0469,1799.482 L148.4375,1799.574 L148.8281,1799.666 L149.2188,1799.723 L149.6094,1799.79 L150,1797.488 L150.3906,1797.763 L150.7813,1798.677 L151.1719,1798.919 L151.5625,1799.068 L151.9531,1799.174 L152.3438,1799.255 L152.7344,1799.348 L153.125,1798.221 L153.5156,1798.686 L153.9063,1799.073 L154.2969,1799.251 L154.6875,1799.338 L155.0781,1799.412 L155.4688,1799.483 L155.8594,1799.521 L156.25,1797.851 L156.6406,1798.354 L157.0313,1798.708 L157.4219,1798.823 L157.8125,1798.944 L158.2031,1799.027 L158.5938,1799.107 L158.9844,1799.183 L159.375,1797.794 L159.7656,1798.421 L160.1563,1798.839 L160.5469,1799.019 L160.9375,1799.139 L161.3281,1799.229 L161.7188,1799.315 L162.1094,1799.384 L162.5,1797.685 L162.8906,1798.464 L163.2813,1798.809 L163.6719,1799.026 L164.0625,1799.159 L164.4531,1799.29 L164.8438,1799.378 L165.2344,1799.459 L165.625,1798.401 L166.0156,1798.711 L166.4063,1799.175 L166.7969,1799.343 L167.1875,1799.428 L167.5781,1799.494 L167.9688,1799.564 L168.3594,1799.62 L168.75,1794.531 L169.1406,1795.214 L169.5313,1796.822 L169.9219,1797.529 L170.3125,1797.945 L170.7031,1798.238 L171.0938,1798.451 L171.4844,1798.643 L171.875,1797.976 L172.2656,1798.641 L172.6563,1798.963 L173.0469,1799.153 L173.4375,1799.285 L173.8281,1799.402 L174.2188,1799.492 L174.6094,1799.575 L175,1797.553 L175.3906,1797.275 L175.7813,1798.485 L176.1719,1798.926 L176.5625,1799.06 L176.9531,1799.148 L177.3438,1799.215 L177.7344,1799.278 L178.125,1798.324 L178.5156,1798.382 L178.9063,1799.086 L179.2969,1799.302 L179.6875,1799.409 L180.0781,1799.512 L180.4688,1799.593 L180.8594,1799.653 L181.25,1797.713 L181.6406,1798.297 L182.0313,1798.634 L182.4219,1798.792 L182.8125,1798.87 L183.2031,1798.935 L183.5938,1799.006 L183.9844,1799.072 L184.375,1794.509 L184.7656,1796.239 L185.1563,1797.012 L185.5469,1797.528 L185.9375,1797.937 L186.3281,1798.263 L186.7188,1798.511 L187.1094,1798.708 L187.5,1794.385 L187.8906,1796.337 L188.2813,1797.589 L188.6719,1798.144 L189.0625,1798.45 L189.4531,1798.681 L189.8438,1798.863 L190.2344,1799.018 L190.625,1797.511 L191.0156,1798.087 L191.4063,1798.72 L191.7969,1798.912 L192.1875,1799.03 L192.5781,1799.148 L192.9688,1799.234 L193.3594,1799.305 L193.75,1793.653 L194.1406,1795.417 L194.5313,1796.507 L194.9219,1796.961 L195.3125,1797.291 L195.7031,1797.565 L196.0938,1797.786 L196.4844,1797.926 L196.875,1797.62 L197.2656,1798.4 L197.6563,1799.069 L198.0469,1799.257 L198.4375,1799.376 L198.8281,1799.466 L199.2188,1799.511 L199.6094,1799.565 L200,1797.522 L200.3906,1798.101 L200.7813,1798.735 L201.1719,1798.973 L201.5625,1799.125 L201.9531,1799.253 L202.3438,1799.354 L202.7344,1799.455 L203.125,1795.432 L203.5156,1796.106 L203.9063,1797.114 L204.2969,1797.635 L204.6875,1797.941 L205.0781,1798.147 L205.4688,1798.342 L205.8594,1798.527 L206.25,1797.285 L206.6406,1798.365 L207.0313,1798.782 L207.4219,1798.968 L207.8125,1799.087 L208.2031,1799.208 L208.5938,1799.311 L208.9844,1799.397 L209.375,1794.961 L209.7656,1796.704 L210.1563,1797.67 L210.5469,1798.194 L210.9375,1798.54 L211.3281,1798.771 L211.7188,1798.928 L212.1094,1799.04 L212.5,1797.623 L212.8906,1798.625 L213.2813,1799.109 L213.6719,1799.319 L214.0625,1799.47 L214.4531,1799.57 L214.8438,1799.653 L215.2344,1799.723 L215.625,1798.313 L216.0156,1798.653 L216.4063,1799.146 L216.7969,1799.322 L217.1875,1799.406 L217.5781,1799.496 L217.9688,1799.56 L218.3594,1799.614 L218.75,1797.501 L219.1406,1797.487 L219.5313,1798.635 L219.9219,1798.941 L220.3125,1799.126 L220.7031,1799.245 L221.0938,1799.3 L221.4844,1799.363 L221.875,1789.661 L222.2656,1794.753 L222.6563,1796.35 L223.0469,1797.235 L223.4375,1797.828 L223.8281,1798.238 L224.2188,1798.578 L224.6094,1798.807 L225,1797.133 L225.3906,1798.447 L225.7813,1799.147 L226.1719,1799.433 L226.5625,1799.589 L226.9531,1799.705 L227.3438,1799.803 L227.7344,1799.894 L228.125,1797.658 L228.5156,1798.375 L228.9063,1798.72 L229.2969,1798.833 L229.6875,1798.917 L230.0781,1798.998 L230.4688,1799.045 L230.8594,1799.109 L231.25,1798.313 L231.6406,1798.835 L232.0313,1799.227 L232.4219,1799.406 L232.8125,1799.491 L233.2031,1799.566 L233.5938,1799.627 L233.9844,1799.67 L234.375,1798.151 L234.7656,1798.673 L235.1563,1799.128 L235.5469,1799.336 L235.9375,1799.422 L236.3281,1799.48 L236.7188,1799.545 L237.1094,1799.596 L237.5,1798.006 L237.8906,1798.567 L238.2813,1798.946 L238.6719,1799.069 L239.0625,1799.153 L239.4531,1799.234 L239.8438,1799.296 L240.2344,1799.342 L240.625,1798.206 L241.0156,1798.948 L241.4063,1799.313 L241.7969,1799.478 L242.1875,1799.564 L242.5781,1799.622 L242.9688,1799.702 L243.3594,1799.754 L243.75,1794.518 L244.1406,1795.99 L244.5313,1796.828 L244.9219,1797.282 L245.3125,1797.554 L245.7031,1797.755 L246.0938,1797.916 L246.4844,1798.044 L246.875,1797.992 L247.2656,1798.621 L247.6563,1798.867 L248.0469,1798.991 L248.4375,1799.096 L248.8281,1799.154 L249.2188,1799.207 L249.6094,1799.273 L250,1795.866 L250.3906,1797.13 L250.7813,1798.082 L251.1719,1798.514 L251.5625,1798.799 L251.9531,1798.999 L252.3438,1799.178 L252.7344,1799.296 L253.125,1796.219 L253.5156,1797.299 L253.9063,1798.384 L254.2969,1798.691 L254.6875,1798.831 L255.0781,1798.945 L255.4688,1799.023 L255.8594,1799.108 L256.25,1798.374 L256.6406,1798.731 L257.0313,1798.972 L257.4219,1799.08 L257.8125,1799.156 L258.2031,1799.195 L258.5938,1799.236 L258.9844,1799.269 L259.375,1798.141 L259.7656,1798.477 L260.1563,1798.995 L260.5469,1799.157 L260.9375,1799.247 L261.3281,1799.333 L261.7188,1799.38 L262.1094,1799.44 L262.5,1798.466 L262.8906,1798.986 L263.2813,1799.313 L263.6719,1799.459 L264.0625,1799.546 L264.4531,1799.629 L264.8438,1799.678 L265.2344,1799.733 L265.625,1797.867 L266.0156,1798.485 L266.4063,1798.792 L266.7969,1798.967 L267.1875,1799.052 L267.5781,1799.125 L267.9688,1799.204 L268.3594,1799.264 L268.75,1795.652 L269.1406,1796.997 L269.5313,1797.817 L269.9219,1798.284 L270.3125,1798.577 L270.7031,1798.779 L271.0938,1798.941 L271.4844,1799.083 L271.875,1797.456 L272.2656,1798.248 L272.6563,1798.63 L273.0469,1798.824 L273.4375,1798.947 L273.8281,1799.016 L274.2188,1799.077 L274.6094,1799.125 L275,1795.097 L275.3906,1797.131 L275.7813,1797.922 L276.1719,1798.324 L276.5625,1798.569 L276.9531,1798.74 L277.3438,1798.912 L277.7344,1799.041 L278.125,1789.858 L278.5156,1793.953 L278.9063,1795.807 L279.2969,1796.65 L279.6875,1797.175 L280.0781,1797.555 L280.4688,1797.848 L280.8594,1798.102 L281.25,1795.93 L281.6406,1797.068 L282.0313,1797.653 L282.4219,1797.944 L282.8125,1798.11 L283.2031,1798.27 L283.5938,1798.458 L283.9844,1798.578 L284.375,1797.888 L284.7656,1798.701 L285.1563,1799.025 L285.5469,1799.18 L285.9375,1799.305 L286.3281,1799.392 L286.7188,1799.46 L287.1094,1799.517 L287.5,1797.522 L287.8906,1798.138 L288.2813,1799.027 L288.6719,1799.329 L289.0625,1799.486 L289.4531,1799.595 L289.8438,1799.682 L290.2344,1799.761 L290.625,1797.49 L291.0156,1798.159 L291.4063,1798.884 L291.7969,1799.083 L292.1875,1799.19 L292.5781,1799.325 L292.9688,1799.423 L293.3594,1799.488 L293.75,1795.544 L294.1406,1796.983 L294.5313,1797.684 L294.9219,1798.067 L295.3125,1798.318 L295.7031,1798.501 L296.0938,1798.643 L296.4844,1798.754 L296.875,1798.03 L297.2656,1798.681 L297.6563,1799.124 L298.0469,1799.34 L298.4375,1799.492 L298.8281,1799.567 L299.2188,1799.644 L299.6094,1799.693 L300,1798.165 L300.3906,1798.395 L300.7813,1799.03 L301.1719,1799.226 L301.5625,1799.311 L301.9531,1799.384 L302.3438,1799.441 L302.7344,1799.488 L303.125,1796.838 L303.5156,1798.198 L303.9063,1799.007 L304.2969,1799.262 L304.6875,1799.423 L305.0781,1799.519 L305.4688,1799.611 L305.8594,1799.684 L306.25,1798.522 L306.6407,1798.88 L307.0313,1799.17 L307.4219,1799.29 L307.8125,1799.344 L308.2031,1799.405 L308.5938,1799.488 L308.9844,1799.539 L309.375,1795.189 L309.7656,1796.862 L310.1563,1797.973 L310.5469,1798.462 L310.9375,1798.724 L311.3281,1798.873 L311.7188,1798.996 L312.1094,1799.092 L312.5,1797.802 L312.8906,1798.721 L313.2813,1798.972 L313.6719,1799.161 L314.0625,1799.292 L314.4532,1799.364 L314.8438,1799.443 L315.2344,1799.5 L315.625,1797.599 L316.0156,1798.312 L316.4063,1798.787 L316.7969,1798.956 L317.1875,1799.094 L317.5781,1799.199 L317.9688,1799.292 L318.3594,1799.377 L318.75,1798.354 L319.1406,1798.669 L319.5313,1799.23 L319.9219,1799.361 L320.3125,1799.436 L320.7031,1799.516 L321.0938,1799.569 L321.4844,1799.625 L321.875,1797.914 L322.2657,1798.572 L322.6563,1798.945 L323.0469,1799.091 L323.4375,1799.205 L323.8281,1799.271 L324.2188,1799.34 L324.6094,1799.414 L325,1798.574 L325.3906,1798.872 L325.7813,1799.347 L326.1719,1799.457 L326.5625,1799.528 L326.9531,1799.584 L327.3438,1799.646 L327.7344,1799.679 L328.125,1795.443 L328.5156,1796.258 L328.9063,1797.507 L329.2969,1798.047 L329.6875,1798.439 L330.0782,1798.672 L330.4688,1798.897 L330.8594,1799.036 L331.25,1798.036 L331.6406,1798.894 L332.0313,1799.18 L332.4219,1799.314 L332.8125,1799.436 L333.2031,1799.551 L333.5938,1799.64 L333.9844,1799.713 L334.375,1798.313 L334.7656,1798.757 L335.1563,1799.142 L335.5469,1799.305 L335.9375,1799.395 L336.3281,1799.484 L336.7188,1799.563 L337.1094,1799.634 L337.5,1797.701 L337.8907,1798.876 L338.2813,1799.264 L338.6719,1799.423 L339.0625,1799.513 L339.4531,1799.584 L339.8438,1799.633 L340.2344,1799.676 L340.625,1798.264 L341.0156,1799.047 L341.4063,1799.479 L341.7969,1799.651 L342.1875,1799.786 L342.5781,1799.877 L342.9688,1799.938 L343.3594,1800 L343.75,1797.911 L344.1406,1798.664 L344.5313,1799.013 L344.9219,1799.168 L345.3125,1799.262 L345.7032,1799.365 L346.0938,1799.432 L346.4844,1799.495 L346.875,1798.356 L347.2656,1798.758 L347.6563,1799.163 L348.0469,1799.297 L348.4375,1799.391 L348.8281,1799.447 L349.2188,1799.492 L349.6094,1799.527 L350,1797.712 L350.3906,1798.487 L350.7813,1798.999 L351.1719,1799.207 L351.5625,1799.329 L351.9531,1799.422 L352.3438,1799.514 L352.7344,1799.595 L353.125,1797.985 L353.5157,1798.867 L353.9063,1799.188 L354.2969,1799.318 L354.6875,1799.426 L355.0781,1799.498 L355.4688,1799.569 L355.8594,1799.616 L356.25,1795.159 L356.6406,1797.602 L357.0313,1798.367 L357.4219,1798.684 L357.8125,1798.93 L358.2031,1799.095 L358.5938,1799.2 L358.9844,1799.305 L359.375,1793.451 L359.7656,1796.418 L360.1563,1797.687 L360.5469,1798.236 L360.9375,1798.514 L361.3282,1798.771 L361.7188,1798.938 L362.1094,1799.073 L362.5,1793.322 L362.8906,1794.719 L363.2813,1796.93 L363.6719,1797.524 L364.0625,1797.872 L364.4531,1798.062 L364.8438,1798.248 L365.2344,1798.372 L365.625,1795.545 L366.0156,1796.873 L366.4063,1797.994 L366.7969,1798.388 L367.1875,1798.622 L367.5781,1798.777 L367.9688,1798.907 L368.3594,1799.043 L368.75,1795.994 L369.1407,1797.812 L369.5313,1798.457 L369.9219,1798.758 L370.3125,1798.93 L370.7031,1799.081 L371.0938,1799.186 L371.4844,1799.278 L371.875,1794.112 L372.2656,1796.451 L372.6563,1797.168 L373.0469,1797.573 L373.4375,1797.833 L373.8281,1798.026 L374.2188,1798.197 L374.6094,1798.356 L375,1793.995 L375.3906,1796.21 L375.7813,1797.432 L376.1719,1797.916 L376.5625,1798.182 L376.9532,1798.38 L377.3438,1798.531 L377.7344,1798.66 L378.125,1798.14 L378.5156,1798.922 L378.9063,1799.19 L379.2969,1799.327 L379.6875,1799.412 L380.0781,1799.481 L380.4688,1799.546 L380.8594,1799.594 " stroke="blue" fill="none" />
<text x="50" y="1850" font-family="Arial" font-size="12" fill="black">Learning Rate</text>
<text x="50" y="1865" font-family="Arial" font-size="10" fill="black">0.0003</text>
<text x="50" y="2080" font-family="Arial" font-size="10" fill="black">0.0003</text>
<path d="M50,2070 L50.39063,2070 L50.78125,2070 L51.17188,2070 L51.5625,2070 L51.95313,2070 L52.34375,2070 L52.73438,2070 L53.125,2070 L53.51563,2070 L53.90625,2070 L54.29688,2070 L54.6875,2070 L55.07813,2070 L55.46875,2070 L55.85938,2070 L56.25,2070 L56.64063,2070 L57.03125,2070 L57.42188,2070 L57.8125,2070 L58.20313,2070 L58.59375,2070 L58.98438,2070 L59.375,2070 L59.76563,2070 L60.15625,2070 L60.54688,2070 L60.9375,2070 L61.32813,2070 L61.71875,2070 L62.10938,2070 L62.5,2070 L62.89063,2070 L63.28125,2070 L63.67188,2070 L64.0625,2070 L64.45313,2070 L64.84375,2070 L65.23438,2070 L65.625,2070 L66.01563,2070 L66.40625,2070 L66.79688,2070 L67.1875,2070 L67.57813,2070 L67.96875,2070 L68.35938,2070 L68.75,2070 L69.14063,2070 L69.53125,2070 L69.92188,2070 L70.3125,2070 L70.70313,2070 L71.09375,2070 L71.48438,2070 L71.875,2070 L72.26563,2070 L72.65625,2070 L73.04688,2070 L73.4375,2070 L73.82813,2070 L74.21875,2070 L74.60938,2070 L75,2070 L75.39063,2070 L75.78125,2070 L76.17188,2070 L76.5625,2070 L76.95313,2070 L77.34375,2070 L77.73438,2070 L78.125,2070 L78.51563,2070 L78.90625,2070 L79.29688,2070 L79.6875,2070 L80.07813,2070 L80.46875,2070 L80.85938,2070 L81.25,2070 L81.64063,2070 L82.03125,2070 L82.42188,2070 L82.8125,2070 L83.20313,2070 L83.59375,2070 L83.98438,2070 L84.375,2070 L84.76563,2070 L85.15625,2070 L85.54688,2070 L85.9375,2070 L86.32813,2070 L86.71875,2070 L87.10938,2070 L87.5,2070 L87.89063,2070 L88.28125,2070 L88.67188,2070 L89.0625,2070 L89.45313,2070 L89.84375,2070 L90.23438,2070 L90.625,2070 L91.01563,2070 L91.40625,2070 L91.79688,2070 L92.1875,2070 L92.57813,2070 L92.96875,2070 L93.35938,2070 L93.75,2070 L94.14063,2070 L94.53125,2070 L94.92188,2070 L95.3125,2070 L95.70313,2070 L96.09375,2070 L96.48438,2070 L96.875,2070 L97.26563,2070 L97.65625,2070 L98.04688,2070 L98.4375,2070 L98.82813,2070 L99.21875,2070 L99.60938,2070 L100,2070 L100.3906,2070 L100.7813,2070 L101.1719,2070 L101.5625,2070 L101.9531,2070 L102.3438,2070 L102.7344,2070 L103.125,2070 L103.5156,2070 L103.9063,2070 L104.2969,2070 L104.6875,2070 L105.0781,2070 L105.4688,2070 L105.8594,2070 L106.25,2070 L106.6406,2070 L107.0313,2070 L107.4219,2070 L107.8125,2070 L108.2031,2070 L108.5938,2070 L108.9844,2070 L109.375,2070 L109.7656,2070 L110.1563,2070 L110.5469,2070 L110.9375,2070 L111.3281,2070 L111.7188,2070 L112.1094,2070 L112.5,2070 L112.8906,2070 L113.2813,2070 L113.6719,2070 L114.0625,2070 L114.4531,2070 L114.8438,2070 L115.2344,2070 L115.625,2070 L116.0156,2070 L116.4063,2070 L116.7969,2070 L117.1875,2070 L117.5781,2070 L117.9688,2070 L118.3594,2070 L118.75,2070 L119.1406,2070 L119.5313,2070 L119.9219,2070 L120.3125,2070 L120.7031,2070 L121.0938,2070 L121.4844,2070 L121.875,2070 L122.2656,2070 L122.6563,2070 L123.0469,2070 L123.4375,2070 L123.8281,2070 L124.2188,2070 L124.6094,2070 L125,2070 L125.3906,2070 L125.7813,2070 L126.1719,2070 L126.5625,2070 L126.9531,2070 L127.3438,2070 L127.7344,2070 L128.125,2070 L128.5156,2070 L128.9063,2070 L129.2969,2070 L129.6875,2070 L130.0781,2070 L130.4688,2070 L130.8594,2070 L131.25,2070 L131.6406,2070 L132.0313,2070 L132.4219,2070 L132.8125,2070 L133.2031,2070 L133.5938,2070 L133.9844,2070 L134.375,2070 L134.7656,2070 L135.1563,2070 L135.5469,2070 L135.9375,2070 L136.3281,2070 L136.7188,2070 L137.1094,2070 L137.5,2070 L137.8906,2070 L138.2813,2070 L138.6719,2070 L139.0625,2070 L139.4531,2070 L139.8438,2070 L140.2344,2070 L140.625,2070 L141.0156,2070 L141.4063,2070 L141.7969,2070 L142.1875,2070 L142.5781,2070 L142.9688,2070 L143.3594,2070 L143.75,2070 L144.1406,2070 L144.5313,2070 L144.9219,2070 L145.3125,2070 L145.7031,2070 L146.0938,2070 L146.4844,2070 L146.875,2070 L147.2656,2070 L147.6563,2070 L148.0469,2070 L148.4375,2070 L148.8281,2070 L149.2188,2070 L149.6094,2070 L150,2070 L150.3906,2070 L150.7813,2070 L151.1719,2070 L151.5625,2070 L151.9531,2070 L152.3438,2070 L152.7344,2070 L153.125,2070 L153.5156,2070 L153.9063,2070 L154.2969,2070 L154.6875,2070 L155.0781,2070 L155.4688,2070 L155.8594,2070 L156.25,2070 L156.6406,2070 L157.0313,2070 L157.4219,2070 L157.8125,2070 L158.2031,2070 L158.5938,2070 L158.9844,2070 L159.375,2070 L159.7656,2070 L160.1563,2070 L160.5469,2070 L160.9375,2070 L161.3281,2070 L161.7188,2070 L162.1094,2070 L162.5,2070 L162.8906,2070 L163.2813,2070 L163.6719,2070 L164.0625,2070 L164.4531,2070 L164.8438,2070 L165.2344,2070 L165.625,2070 L166.0156,2070 L166.4063,2070 L166.7969,2070 L167.1875,2070 L167.5781,2070 L167.9688,2070 L168.3594,2070 L168.75,2070 L169.1406,2070 L169.5313,2070 L169.9219,2070 L170.3125,2070 L170.7031,2070 L171.0938,2070 L171.4844,2070 L171.875,2070 L172.2656,2070 L172.6563,2070 L173.0469,2070 L173.4375,2070 L173.8281,2070 L174.2188,2070 L174.6094,2070 L175,2070 L175.3906,2070 L175.7813,2070 L176.1719,2070 L176.5625,2070 L176.9531,2070 L177.3438,2070 L177.7344,2070 L178.125,2070 L178.5156,2070 L178.9063,2070 L179.2969,2070 L179.6875,2070 L180.0781,2070 L180.4688,2070 L180.8594,2070 L181.25,2070 L181.6406,2070 L182.0313,2070 L182.4219,2070 L182.8125,2070 L183.2031,2070 L183.5938,2070 L183.9844,2070 L184.375,2070 L184.7656,2070 L185.1563,2070 L185.5469,2070 L185.9375,2070 L186.3281,2070 L186.7188,2070 L187.1094,2070 L187.5,2070 L187.8906,2070 L188.2813,2070 L188.6719,2070 L189.0625,2070 L189.4531,2070 L189.8438,2070 L190.2344,2070 L190.625,2070 L191.0156,2070 L191.4063,2070 L191.7969,2070 L192.1875,2070 L192.5781,2070 L192.9688,2070 L193.3594,2070 L193.75,2070 L194.1406,2070 L194.5313,2070 L194.9219,2070 L195.3125,2070 L195.7031,2070 L196.0938,2070 L196.4844,2070 L196.875,2070 L197.2656,2070 L197.6563,2070 L198.0469,2070 L198.4375,2070 L198.8281,2070 L199.2188,2070 L199.6094,2070 L200,2070 L200.3906,2070 L200.7813,2070 L201.1719,2070 L201.5625,2070 L201.9531,2070 L202.3438,2070 L202.7344,2070 L203.125,2070 L203.5156,2070 L203.9063,2070 L204.2969,2070 L204.6875,2070 L205.0781,2070 L205.4688,2070 L205.8594,2070 L206.25,2070 L206.6406,2070 L207.0313,2070 L207.4219,2070 L207.8125,2070 L208.2031,2070 L208.5938,2070 L208.9844,2070 L209.375,2070 L209.7656,2070 L210.1563,2070 L210.5469,2070 L210.9375,2070 L211.3281,2070 L211.7188,2070 L212.1094,2070 L212.5,2070 L212.8906,2070 L213.2813,2070 L213.6719,2070 L214.0625,2070 L214.4531,2070 L214.8438,2070 L215.2344,2070 L215.625,2070 L216.0156,2070 L216.4063,2070 L216.7969,2070 L217.1875,2070 L217.5781,2070 L217.9688,2070 L218.3594,2070 L218.75,2070 L219.1406,2070 L219.5313,2070 L219.9219,2070 L220.3125,2070 L220.7031,2070 L221.0938,2070 L221.4844,2070 L221.875,2070 L222.2656,2070 L222.6563,2070 L223.0469,2070 L223.4375,2070 L223.8281,2070 L224.2188,2070 L224.6094,2070 L225,2070 L225.3906,2070 L225.7813,2070 L226.1719,2070 L226.5625,2070 L226.9531,2070 L227.3438,2070 L227.7344,2070 L228.125,2070 L228.5156,2070 L228.9063,2070 L229.2969,2070 L229.6875,2070 L230.0781,2070 L230.4688,2070 L230.8594,2070 L231.25,2070 L231.6406,2070 L232.0313,2070 L232.4219,2070 L232.8125,2070 L233.2031,2070 L233.5938,2070 L233.9844,2070 L234.375,2070 L234.7656,2070 L235.1563,2070 L235.5469,2070 L235.9375,2070 L236.3281,2070 L236.7188,2070 L237.1094,2070 L237.5,2070 L237.8906,2070 L238.2813,2070 L238.6719,2070 L239.0625,2070 L239.4531,2070 L239.8438,2070 L240.2344,2070 L240.625,2070 L241.0156,2070 L241.4063,2070 L241.7969,2070 L242.1875,2070 L242.5781,2070 L242.9688,2070 L243.3594,2070 L243.75,2070 L244.1406,2070 L244.5313,2070 L244.9219,2070 L245.3125,2070 L245.7031,2070 L246.0938,2070 L246.4844,2070 L246.875,2070 L247.2656,2070 L247.6563,2070 L248.0469,2070 L248.4375,2070 L248.8281,2070 L249.2188,2070 L249.6094,2070 L250,2070 L250.3906,2070 L250.7813,2070 L251.1719,2070 L251.5625,2070 L251.9531,2070 L252.3438,2070 L252.7344,2070 L253.125,2070 L253.5156,2070 L253.9063,2070 L254.2969,2070 L254.6875,2070 L255.0781,2070 L255.4688,2070 L255.8594,2070 L256.25,2070 L256.6406,2070 L257.0313,2070 L257.4219,2070 L257.8125,2070 L258.2031,2070 L258.5938,2070 L258.9844,2070 L259.375,2070 L259.7656,2070 L260.1563,2070 L260.5469,2070 L260.9375,2070 L261.3281,2070 L261.7188,2070 L262.1094,2070 L262.5,2070 L262.8906,2070 L263.2813,2070 L263.6719,2070 L264.0625,2070 L264.4531,2070 L264.8438,2070 L265.2344,2070 L265.625,2070 L266.0156,2070 L266.4063,2070 L266.7969,2070 L267.1875,2070 L267.5781,2070 L267.9688,2070 L268.3594,2070 L268.75,2070 L269.1406,2070 L269.5313,2070 L269.9219,2070 L270.3125,2070 L270.7031,2070 L271.0938,2070 L271.4844,2070 L271.875,2070 L272.2656,2070 L272.6563,2070 L273.0469,2070 L273.4375,2070 L273.8281,2070 L274.2188,2070 L274.6094,2070 L275,2070 L275.3906,2070 L275.7813,2070 L276.1719,2070 L276.5625,2070 L276.9531,2070 L277.3438,2070 L277.7344,2070 L278.125,2070 L278.5156,2070 L278.9063,2070 L279.2969,2070 L279.6875,2070 L280.0781,2070 L280.4688,2070 L280.8594,2070 L281.25,2070 L281.6406,2070 L282.0313,2070 L282.4219,2070 L282.8125,2070 L283.2031,2070 L283.5938,2070 L283.9844,2070 L284.375,2070 L284.7656,2070 L285.1563,2070 L285.5469,2070 L285.9375,2070 L286.3281,2070 L286.7188,2070 L287.1094,2070 L287.5,2070 L287.8906,2070 L288.2813,2070 L288.6719,2070 L289.0625,2070 L289.4531,2070 L289.8438,2070 L290.2344,2070 L290.625,2070 L291.0156,2070 L291.4063,2070 L291.7969,2070 L292.1875,2070 L292.5781,2070 L292.9688,2070 L293.3594,2070 L293.75,2070 L294.1406,2070 L294.5313,2070 L294.9219,2070 L295.3125,2070 L295.7031,2070 L296.0938,2070 L296.4844,2070 L296.875,2070 L297.2656,2070 L297.6563,2070 L298.0469,2070 L298.4375,2070 L298.8281,2070 L299.2188,2070 L299.6094,2070 L300,2070 L300.3906,2070 L300.7813,2070 L301.1719,2070 L301.5625,2070 L301.9531,2070 L302.3438,2070 L302.7344,2070 L303.125,2070 L303.5156,2070 L303.9063,2070 L304.2969,2070 L304.6875,2070 L305.0781,2070 L305.4688,2070 L305.8594,2070 L306.25,2070 L306.6407,2070 L307.0313,2070 L307.4219,2070 L307.8125,2070 L308.2031,2070 L308.5938,2070 L308.9844,2070 L309.375,2070 L309.7656,2070 L310.1563,2070 L310.5469,2070 L310.9375,2070 L311.3281,2070 L311.7188,2070 L312.1094,2070 L312.5,2070 L312.8906,2070 L313.2813,2070 L313.6719,2070 L314.0625,2070 L314.4532,2070 L314.8438,2070 L315.2344,2070 L315.625,2070 L316.0156,2070 L316.4063,2070 L316.7969,2070 L317.1875,2070 L317.5781,2070 L317.9688,2070 L318.3594,2070 L318.75,2070 L319.1406,2070 L319.5313,2070 L319.9219,2070 L320.3125,2070 L320.7031,2070 L321.0938,2070 L321.4844,2070 L321.875,2070 L322.2657,2070 L322.6563,2070 L323.0469,2070 L323.4375,2070 L323.8281,2070 L324.2188,2070 L324.6094,2070 L325,2070 L325.3906,2070 L325.7813,2070 L326.1719,2070 L326.5625,2070 L326.9531,2070 L327.3438,2070 L327.7344,2070 L328.125,2070 L328.5156,2070 L328.9063,2070 L329.2969,2070 L329.6875,2070 L330.0782,2070 L330.4688,2070 L330.8594,2070 L331.25,2070 L331.6406,2070 L332.0313,2070 L332.4219,2070 L332.8125,2070 L333.2031,2070 L333.5938,2070 L333.9844,2070 L334.375,2070 L334.7656,2070 L335.1563,2070 L335.5469,2070 L335.9375,2070 L336.3281,2070 L336.7188,2070 L337.1094,2070 L337.5,2070 L337.8907,2070 L338.2813,2070 L338.6719,2070 L339.0625,2070 L339.4531,2070 L339.8438,2070 L340.2344,2070 L340.625,2070 L341.0156,2070 L341.4063,2070 L341.7969,2070 L342.1875,2070 L342.5781,2070 L342.9688,2070 L343.3594,2070 L343.75,2070 L344.1406,2070 L344.5313,2070 L344.9219,2070 L345.3125,2070 L345.7032,2070 L346.0938,2070 L346.4844,2070 L346.875,2070 L347.2656,2070 L347.6563,2070 L348.0469,2070 L348.4375,2070 L348.8281,2070 L349.2188,2070 L349.6094,2070 L350,2070 L350.3906,2070 L350.7813,2070 L351.1719,2070 L351.5625,2070 L351.9531,2070 L352.3438,2070 L352.7344,2070 L353.125,2070 L353.5157,2070 L353.9063,2070 L354.2969,2070 L354.6875,2070 L355.0781,2070 L355.4688,2070 L355.8594,2070 L356.25,2070 L356.6406,2070 L357.0313,2070 L357.4219,2070 L357.8125,2070 L358.2031,2070 L358.5938,2070 L358.9844,2070 L359.375,2070 L359.7656,2070 L360.1563,2070 L360.5469,2070 L360.9375,2070 L361.3282,2070 L361.7188,2070 L362.1094,2070 L362.5,2070 L362.8906,2070 L363.2813,2070 L363.6719,2070 L364.0625,2070 L364.4531,2070 L364.8438,2070 L365.2344,2070 L365.625,2070 L366.0156,2070 L366.4063,2070 L366.7969,2070 L367.1875,2070 L367.5781,2070 L367.9688,2070 L368.3594,2070 L368.75,2070 L369.1407,2070 L369.5313,2070 L369.9219,2070 L370.3125,2070 L370.7031,2070 L371.0938,2070 L371.4844,2070 L371.875,2070 L372.2656,2070 L372.6563,2070 L373.0469,2070 L373.4375,2070 L373.8281,2070 L374.2188,2070 L374.6094,2070 L375,2070 L375.3906,2070 L375.7813,2070 L376.1719,2070 L376.5625,2070 L376.9532,2070 L377.3438,2070 L377.7344,2070 L378.125,2070 L378.5156,2070 L378.9063,2070 L379.2969,2070 L379.6875,2070 L380.0781,2070 L380.4688,2070 L380.8594,2070 " stroke="blue" fill="none" />
<text x="50" y="2120" font-family="Arial" font-size="12" fill="black">Entropy</text>
<text x="50" y="2135" font-family="Arial" font-size="10" fill="black">-0.1393077</text>
<text x="50" y="2350" font-family="Arial" font-size="10" fill="black">-0.2233218</text>
<path d="M50,2160.752 L50.39063,2160.909 L50.78125,2162.154 L51.17188,2162.183 L51.5625,2162.436 L51.95313,2161.915 L52.34375,2163.245 L52.73438,2162.452 L53.125,2165.149 L53.51563,2166.649 L53.90625,2167.255 L54.29688,2167.3 L54.6875,2167.358 L55.07813,2168.071 L55.46875,2167.343 L55.85938,2167.331 L56.25,2165.541 L56.64063,2164.66 L57.03125,2165.48 L57.42188,2165.83 L57.8125,2167.167 L58.20313,2166.744 L58.59375,2166.966 L58.98438,2166.674 L59.375,2176.906 L59.76563,2176.713 L60.15625,2176.83 L60.54688,2177.443 L60.9375,2177.35 L61.32813,2178.292 L61.71875,2177.705 L62.10938,2177.588 L62.5,2181.471 L62.89063,2182.091 L63.28125,2181.924 L63.67188,2181.631 L64.0625,2182.52 L64.45313,2183.798 L64.84375,2182.807 L65.23438,2183.615 L65.625,2191.308 L66.01563,2192.363 L66.40625,2191.517 L66.79688,2191.789 L67.1875,2191.722 L67.57813,2192.778 L67.96875,2192.965 L68.35938,2192.38 L68.75,2181.614 L69.14063,2181.195 L69.53125,2180.116 L69.92188,2180.394 L70.3125,2181.349 L70.70313,2181.268 L71.09375,2181.065 L71.48438,2182.07 L71.875,2184.978 L72.26563,2184.699 L72.65625,2183.386 L73.04688,2182.512 L73.4375,2182.349 L73.82813,2182.987 L74.21875,2182.641 L74.60938,2182.553 L75,2172.793 L75.39063,2172.963 L75.78125,2174.678 L76.17188,2173.689 L76.5625,2173.866 L76.95313,2174.62 L77.34375,2174.251 L77.73438,2174.717 L78.125,2163.71 L78.51563,2164.033 L78.90625,2164.773 L79.29688,2165.659 L79.6875,2166.383 L80.07813,2166.577 L80.46875,2166.87 L80.85938,2166.834 L81.25,2151.496 L81.64063,2151.243 L82.03125,2150.207 L82.42188,2149.155 L82.8125,2150.865 L83.20313,2150.233 L83.59375,2148.43 L83.98438,2150.485 L84.375,2187.712 L84.76563,2188.088 L85.15625,2186.707 L85.54688,2186.252 L85.9375,2186.803 L86.32813,2187.536 L86.71875,2187.683 L87.10938,2186.816 L87.5,2169.395 L87.89063,2169.819 L88.28125,2167.058 L88.67188,2166.228 L89.0625,2166.998 L89.45313,2167.235 L89.84375,2166.347 L90.23438,2168.336 L90.625,2180.471 L91.01563,2181.755 L91.40625,2180.294 L91.79688,2180.344 L92.1875,2181.581 L92.57813,2180.877 L92.96875,2181.495 L93.35938,2181.083 L93.75,2144.329 L94.14063,2143.942 L94.53125,2140.799 L94.92188,2143.062 L95.3125,2141.557 L95.70313,2143.244 L96.09375,2144.151 L96.48438,2144.063 L96.875,2155.652 L97.26563,2156.679 L97.65625,2156.427 L98.04688,2157.354 L98.4375,2158.85 L98.82813,2157.897 L99.21875,2158.236 L99.60938,2159.156 L100,2168.296 L100.3906,2169.777 L100.7813,2170.754 L101.1719,2169.421 L101.5625,2170.133 L101.9531,2171.444 L102.3438,2170.625 L102.7344,2171.45 L103.125,2141.148 L103.5156,2141.198 L103.9063,2141.13 L104.2969,2140 L104.6875,2140.696 L105.0781,2143.082 L105.4688,2141.512 L105.8594,2142.852 L106.25,2161.691 L106.6406,2162.281 L107.0313,2161.254 L107.4219,2163.954 L107.8125,2161.394 L108.2031,2164.312 L108.5938,2163.513 L108.9844,2162.65 L109.375,2173.671 L109.7656,2173.846 L110.1563,2172.528 L110.5469,2174.963 L110.9375,2174.936 L111.3281,2174.874 L111.7188,2174.485 L112.1094,2176.141 L112.5,2162.323 L112.8906,2163.764 L113.2813,2163.992 L113.6719,2161.976 L114.0625,2162.414 L114.4531,2163.722 L114.8438,2163.635 L115.2344,2162.862 L115.625,2168.139 L116.0156,2166.843 L116.4063,2167.093 L116.7969,2167.439 L117.1875,2168.333 L117.5781,2167.916 L117.9688,2169.041 L118.3594,2169.325 L118.75,2147.441 L119.1406,2149.389 L119.5313,2148.623 L119.9219,2147.773 L120.3125,2149.019 L120.7031,2148.676 L121.0938,2149.233 L121.4844,2149.609 L121.875,2174.032 L122.2656,2174.676 L122.6563,2175.394 L123.0469,2176.466 L123.4375,2177.403 L123.8281,2178.88 L124.2188,2179.627 L124.6094,2179.281 L125,2198.995 L125.3906,2203.563 L125.7813,2202.347 L126.1719,2202.246 L126.5625,2202.451 L126.9531,2202.164 L127.3438,2202.427 L127.7344,2203.258 L128.125,2188.533 L128.5156,2189.898 L128.9063,2190.669 L129.2969,2191.086 L129.6875,2190.764 L130.0781,2191.471 L130.4688,2192.85 L130.8594,2192.471 L131.25,2168.881 L131.6406,2169.961 L132.0313,2169.809 L132.4219,2169.233 L132.8125,2169.457 L133.2031,2171.512 L133.5938,2171.675 L133.9844,2171.078 L134.375,2190.606 L134.7656,2190.712 L135.1563,2192.137 L135.5469,2192.418 L135.9375,2192.807 L136.3281,2192.777 L136.7188,2192.08 L137.1094,2193.576 L137.5,2160.448 L137.8906,2159.358 L138.2813,2160.405 L138.6719,2160.737 L139.0625,2160.711 L139.4531,2161.744 L139.8438,2161.155 L140.2344,2162.609 L140.625,2194.233 L141.0156,2194.435 L141.4063,2194.998 L141.7969,2194.643 L142.1875,2196.256 L142.5781,2195.471 L142.9688,2196.842 L143.3594,2197.909 L143.75,2171.461 L144.1406,2171.313 L144.5313,2172.301 L144.9219,2171.906 L145.3125,2172.558 L145.7031,2172.555 L146.0938,2173.313 L146.4844,2173.36 L146.875,2194.836 L147.2656,2194.187 L147.6563,2192.09 L148.0469,2195.441 L148.4375,2194.885 L148.8281,2195.72 L149.2188,2195.509 L149.6094,2196.754 L150,2204.884 L150.3906,2205.806 L150.7813,2205.25 L151.1719,2205.324 L151.5625,2206.085 L151.9531,2206.819 L152.3438,2206.507 L152.7344,2206.414 L153.125,2200.769 L153.5156,2201.44 L153.9063,2201.083 L154.2969,2201.302 L154.6875,2202.08 L155.0781,2202.449 L155.4688,2202.289 L155.8594,2202.891 L156.25,2184.036 L156.6406,2184.193 L157.0313,2184.371 L157.4219,2185.236 L157.8125,2187.407 L158.2031,2187.138 L158.5938,2186.484 L158.9844,2186.025 L159.375,2213.273 L159.7656,2215.194 L160.1563,2214.786 L160.5469,2215.262 L160.9375,2216.215 L161.3281,2214.731 L161.7188,2216.719 L162.1094,2216.159 L162.5,2188.097 L162.8906,2192.428 L163.2813,2190.574 L163.6719,2191.088 L164.0625,2192.823 L164.4531,2190.954 L164.8438,2192.707 L165.2344,2192.503 L165.625,2208.416 L166.0156,2207.671 L166.4063,2207.615 L166.7969,2206.251 L167.1875,2207.467 L167.5781,2207.737 L167.9688,2206.271 L168.3594,2207.565 L168.75,2215.706 L169.1406,2217.747 L169.5313,2216.713 L169.9219,2220.227 L170.3125,2218.961 L170.7031,2220.319 L171.0938,2222.067 L171.4844,2221.814 L171.875,2194 L172.2656,2196.724 L172.6563,2196.718 L173.0469,2197.144 L173.4375,2197.267 L173.8281,2197.298 L174.2188,2197.736 L174.6094,2196.959 L175,2221.354 L175.3906,2222.146 L175.7813,2222.526 L176.1719,2223.769 L176.5625,2225.031 L176.9531,2225.487 L177.3438,2225.611 L177.7344,2227.074 L178.125,2201.324 L178.5156,2200.292 L178.9063,2199.707 L179.2969,2200.897 L179.6875,2200.294 L180.0781,2202.143 L180.4688,2202.185 L180.8594,2202.333 L181.25,2199.079 L181.6406,2201.168 L182.0313,2201.166 L182.4219,2202.702 L182.8125,2202.518 L183.2031,2203.501 L183.5938,2203.537 L183.9844,2204.355 L184.375,2214.075 L184.7656,2214.683 L185.1563,2216.088 L185.5469,2215.355 L185.9375,2216.611 L186.3281,2216.792 L186.7188,2217.55 L187.1094,2217.648 L187.5,2221.181 L187.8906,2220.722 L188.2813,2220.335 L188.6719,2221.019 L189.0625,2220.51 L189.4531,2222.427 L189.8438,2223.143 L190.2344,2222.092 L190.625,2217.865 L191.0156,2220.279 L191.4063,2220.19 L191.7969,2219.934 L192.1875,2221.173 L192.5781,2220.869 L192.9688,2221.497 L193.3594,2221.115 L193.75,2246.889 L194.1406,2247.658 L194.5313,2245.718 L194.9219,2245.223 L195.3125,2245.394 L195.7031,2246.899 L196.0938,2245.544 L196.4844,2246.94 L196.875,2244.231 L197.2656,2242.953 L197.6563,2242.632 L198.0469,2243.74 L198.4375,2243.838 L198.8281,2244.281 L199.2188,2243.47 L199.6094,2246.09 L200,2235.405 L200.3906,2236.622 L200.7813,2236.749 L201.1719,2236.135 L201.5625,2237.847 L201.9531,2237.233 L202.3438,2237.951 L202.7344,2238.126 L203.125,2216.078 L203.5156,2219.321 L203.9063,2219.734 L204.2969,2219.565 L204.6875,2220.308 L205.0781,2220.504 L205.4688,2220.244 L205.8594,2219.856 L206.25,2222.571 L206.6406,2224.146 L207.0313,2221.069 L207.4219,2220.946 L207.8125,2221.367 L208.2031,2222.451 L208.5938,2221.462 L208.9844,2221.55 L209.375,2219.532 L209.7656,2220.598 L210.1563,2220.409 L210.5469,2221.643 L210.9375,2223.122 L211.3281,2221.972 L211.7188,2222.409 L212.1094,2223.438 L212.5,2220.081 L212.8906,2222.27 L213.2813,2220.403 L213.6719,2219.984 L214.0625,2220.109 L214.4531,2220.384 L214.8438,2220.328 L215.2344,2221.308 L215.625,2224.868 L216.0156,2224.639 L216.4063,2224.177 L216.7969,2224.245 L217.1875,2223.927 L217.5781,2224.93 L217.9688,2225.391 L218.3594,2224.712 L218.75,2238.808 L219.1406,2240.198 L219.5313,2238.076 L219.9219,2237.062 L220.3125,2238.09 L220.7031,2237.667 L221.0938,2239.592 L221.4844,2238.097 L221.875,2243.168 L222.2656,2244.778 L222.6563,2245.833 L223.0469,2248.017 L223.4375,2247.833 L223.8281,2247.998 L224.2188,2248.549 L224.6094,2248.703 L225,2235.455 L225.3906,2237.27 L225.7813,2235.856 L226.1719,2235.372 L226.5625,2234.83 L226.9531,2236.306 L227.3438,2235.263 L227.7344,2236.252 L228.125,2248.536 L228.5156,2248.893 L228.9063,2247.532 L229.2969,2247.812 L229.6875,2248.572 L230.0781,2247.312 L230.4688,2249.833 L230.8594,2247.998 L231.25,2221.784 L231.6406,2222.765 L232.0313,2222.693 L232.4219,2223.785 L232.8125,2224.388 L233.2031,2223.582 L233.5938,2224.607 L233.9844,2224.93 L234.375,2222.203 L234.7656,2223.178 L235.1563,2222.384 L235.5469,2221.723 L235.9375,2223.64 L236.3281,2222.968 L236.7188,2223.319 L237.1094,2224.74 L237.5,2241.498 L237.8906,2242.886 L238.2813,2242.078 L238.6719,2244.779 L239.0625,2243.564 L239.4531,2244.518 L239.8438,2244.796 L240.2344,2244.597 L240.625,2237.946 L241.0156,2238.796 L241.4063,2237.555 L241.7969,2237.961 L242.1875,2238.436 L242.5781,2238.67 L242.9688,2239.489 L243.3594,2240.36 L243.75,2243.93 L244.1406,2243.86 L244.5313,2244.213 L244.9219,2244.796 L245.3125,2245.578 L245.7031,2246.374 L246.0938,2247.344 L246.4844,2248.17 L246.875,2215.144 L247.2656,2215.626 L247.6563,2213.499 L248.0469,2213.19 L248.4375,2214.189 L248.8281,2215.567 L249.2188,2214.246 L249.6094,2214.509 L250,2220.994 L250.3906,2221.743 L250.7813,2223.723 L251.1719,2224.521 L251.5625,2222.343 L251.9531,2223.621 L252.3438,2225.614 L252.7344,2223.768 L253.125,2255.491 L253.5156,2256.097 L253.9063,2256.019 L254.2969,2256.782 L254.6875,2255.841 L255.0781,2255.904 L255.4688,2256.139 L255.8594,2256.574 L256.25,2282.787 L256.6406,2283.981 L257.0313,2282.309 L257.4219,2283.484 L257.8125,2284.345 L258.2031,2284.585 L258.5938,2284.358 L258.9844,2285.028 L259.375,2258.037 L259.7656,2257.815 L260.1563,2256.493 L260.5469,2259.377 L260.9375,2257.805 L261.3281,2259.083 L261.7188,2258.903 L262.1094,2259.767 L262.5,2265.744 L262.8906,2265.812 L263.2813,2264.664 L263.6719,2267.56 L264.0625,2268.658 L264.4531,2268.58 L264.8438,2269.234 L265.2344,2269.939 L265.625,2254.465 L266.0156,2254.332 L266.4063,2252.761 L266.7969,2254.508 L267.1875,2254.402 L267.5781,2256.024 L267.9688,2255.405 L268.3594,2255.974 L268.75,2247.688 L269.1406,2248.884 L269.5313,2246.361 L269.9219,2250.112 L270.3125,2249.139 L270.7031,2250.046 L271.0938,2250.702 L271.4844,2250.843 L271.875,2263.373 L272.2656,2262.76 L272.6563,2261.684 L273.0469,2261.306 L273.4375,2262.106 L273.8281,2262.606 L274.2188,2261.8 L274.6094,2262.828 L275,2271.121 L275.3906,2271.924 L275.7813,2273.109 L276.1719,2274.023 L276.5625,2274.25 L276.9531,2275.591 L277.3438,2276.507 L277.7344,2276.725 L278.125,2243.178 L278.5156,2245.562 L278.9063,2247.807 L279.2969,2246.961 L279.6875,2248.905 L280.0781,2247.933 L280.4688,2249.254 L280.8594,2249.239 L281.25,2274.988 L281.6406,2274.533 L282.0313,2274.209 L282.4219,2274.58 L282.8125,2274.313 L283.2031,2275.185 L283.5938,2273.972 L283.9844,2275.573 L284.375,2272.004 L284.7656,2270.077 L285.1563,2271.241 L285.5469,2271.339 L285.9375,2271.819 L286.3281,2271.86 L286.7188,2273.527 L287.1094,2272.7 L287.5,2264.529 L287.8906,2264.694 L288.2813,2264.487 L288.6719,2266.416 L289.0625,2266.08 L289.4531,2265.787 L289.8438,2265.754 L290.2344,2264.89 L290.625,2251.788 L291.0156,2252.435 L291.4063,2251.7 L291.7969,2251.194 L292.1875,2251.67 L292.5781,2253.082 L292.9688,2251.449 L293.3594,2252.532 L293.75,2254.987 L294.1406,2257.182 L294.5313,2257.178 L294.9219,2257.082 L295.3125,2258.278 L295.7031,2259.734 L296.0938,2258.86 L296.4844,2259.408 L296.875,2285.592 L297.2656,2285.011 L297.6563,2284.507 L298.0469,2286.091 L298.4375,2286.668 L298.8281,2287.329 L299.2188,2287.675 L299.6094,2285.895 L300,2250.33 L300.3906,2249.687 L300.7813,2251.308 L301.1719,2249.64 L301.5625,2250.746 L301.9531,2251.449 L302.3438,2251.95 L302.7344,2249.848 L303.125,2270.183 L303.5156,2270.463 L303.9063,2269.544 L304.2969,2269.519 L304.6875,2269.86 L305.0781,2270.076 L305.4688,2270.487 L305.8594,2270.781 L306.25,2263.396 L306.6407,2263.553 L307.0313,2259.911 L307.4219,2260.193 L307.8125,2262.037 L308.2031,2260.473 L308.5938,2261.723 L308.9844,2262.494 L309.375,2254.534 L309.7656,2256.267 L310.1563,2255.401 L310.5469,2255.313 L310.9375,2257.267 L311.3281,2258.457 L311.7188,2258.191 L312.1094,2259.859 L312.5,2263.57 L312.8906,2263.822 L313.2813,2262.852 L313.6719,2262.563 L314.0625,2265.508 L314.4532,2264.85 L314.8438,2265.01 L315.2344,2265.094 L315.625,2279.931 L316.0156,2280.335 L316.4063,2281.076 L316.7969,2281.168 L317.1875,2281.435 L317.5781,2281.532 L317.9688,2284.168 L318.3594,2282.353 L318.75,2281.949 L319.1406,2280.818 L319.5313,2281.135 L319.9219,2281.78 L320.3125,2282.39 L320.7031,2283.069 L321.0938,2281.945 L321.4844,2282.339 L321.875,2285.014 L322.2657,2285.767 L322.6563,2284.52 L323.0469,2285.979 L323.4375,2286.41 L323.8281,2286.202 L324.2188,2286.693 L324.6094,2286.52 L325,2286.274 L325.3906,2285.523 L325.7813,2285.682 L326.1719,2287.33 L326.5625,2288.95 L326.9531,2287.376 L327.3438,2288.764 L327.7344,2289.345 L328.125,2286.579 L328.5156,2289.241 L328.9063,2288.406 L329.2969,2290.247 L329.6875,2290.142 L330.0782,2290.526 L330.4688,2290.489 L330.8594,2291.813 L331.25,2301.043 L331.6406,2303.11 L332.0313,2305.311 L332.4219,2305.914 L332.8125,2306.802 L333.2031,2307.977 L333.5938,2307.191 L333.9844,2307.74 L334.375,2282.249 L334.7656,2284.539 L335.1563,2283.802 L335.5469,2282.851 L335.9375,2283.592 L336.3281,2284.9 L336.7188,2284.54 L337.1094,2284.719 L337.5,2298.226 L337.8907,2300.207 L338.2813,2299.202 L338.6719,2299.233 L339.0625,2300.294 L339.4531,2301.236 L339.8438,2302.048 L340.2344,2300.948 L340.625,2309.182 L341.0156,2311.62 L341.4063,2310.806 L341.7969,2309.515 L342.1875,2309.978 L342.5781,2309.936 L342.9688,2310.755 L343.3594,2309.514 L343.75,2286.999 L344.1406,2287.327 L344.5313,2287.495 L344.9219,2287.494 L345.3125,2288.635 L345.7032,2288.672 L346.0938,2287.501 L346.4844,2288.706 L346.875,2301.926 L347.2656,2300.854 L347.6563,2300.137 L348.0469,2299.849 L348.4375,2301.397 L348.8281,2301.052 L349.2188,2301.128 L349.6094,2301.849 L350,2306.939 L350.3906,2308.945 L350.7813,2308.477 L351.1719,2308.654 L351.5625,2308.835 L351.9531,2309.113 L352.3438,2310.904 L352.7344,2311.594 L353.125,2311.28 L353.5157,2310.883 L353.9063,2310.186 L354.2969,2311.229 L354.6875,2311.396 L355.0781,2313.151 L355.4688,2312.944 L355.8594,2313.844 L356.25,2312.642 L356.6406,2314.392 L357.0313,2314.369 L357.4219,2315.572 L357.8125,2316.71 L358.2031,2318.444 L358.5938,2317.848 L358.9844,2318.993 L359.375,2296.63 L359.7656,2298.478 L360.1563,2297.875 L360.5469,2300.512 L360.9375,2300.454 L361.3282,2301.173 L361.7188,2301.009 L362.1094,2301.009 L362.5,2316.825 L362.8906,2314.637 L363.2813,2313.533 L363.6719,2314.535 L364.0625,2314.409 L364.4531,2314.412 L364.8438,2315.792 L365.2344,2316.292 L365.625,2302.609 L366.0156,2300.531 L366.4063,2300.24 L366.7969,2302.35 L367.1875,2302.021 L367.5781,2302.98 L367.9688,2303.121 L368.3594,2302.553 L368.75,2308.509 L369.1407,2310.244 L369.5313,2312.654 L369.9219,2312.233 L370.3125,2312.386 L370.7031,2313.871 L371.0938,2314.463 L371.4844,2314.213 L371.875,2323.516 L372.2656,2325.176 L372.6563,2325.804 L373.0469,2325.03 L373.4375,2325.986 L373.8281,2325.811 L374.2188,2325.912 L374.6094,2327.03 L375,2334.949 L375.3906,2334.862 L375.7813,2335.55 L376.1719,2335.689 L376.5625,2336.594 L376.9532,2337.03 L377.3438,2337.253 L377.7344,2337.542 L378.125,2339.268 L378.5156,2338.919 L378.9063,2338.933 L379.2969,2338.124 L379.6875,2339.74 L380.0781,2339.358 L380.4688,2338.294 L380.8594,2340 " stroke="blue" fill="none" />
<text x="750" y="770" font-family="Arial" font-size="12" fill="black">Simplified</text>
<text x="750" y="785" font-family="Arial" font-size="10" fill="black">-2.911497</text>
<text x="750" y="1000" font-family="Arial" font-size="10" fill="black">-3.74651</text>
<path d="M764.0625,909.9182 L778.9063,932.5466 L793.75,964.6611 L808.5938,989.9054 L823.4375,989.2121 L838.2813,946.2559 L853.125,989.3066 L867.9688,945.594 L882.8125,989.2119 L897.6563,989.0228 L912.5,989.5272 L927.3438,967.277 L942.1875,922.241 L957.0313,960.8477 L971.875,943.3878 L986.7188,941.1816 L1001.563,893.1517 L1016.406,990 L1031.25,964.6296 L1046.094,958.9882 L1060.938,975.1559 L1075.781,790 L1090.625,989.6216 L1105.469,940.772 L1120.313,931.5695 L1135.156,989.7477 L1150,975.1876 L1164.844,989.5588 L1179.688,944.6169 L1194.531,875.8179 L1209.375,809.445 L1216.406,935.4951 " stroke="blue" fill="none" />
<text x="750" y="1040" font-family="Arial" font-size="12" fill="black">Simplified</text>
<text x="750" y="1055" font-family="Arial" font-size="10" fill="black">750</text>
<text x="750" y="1270" font-family="Arial" font-size="10" fill="black">636.5263</text>
<path d="M764.0625,1121.781 L778.9063,1107.031 L793.75,1078.182 L808.5938,1060 L823.4375,1060 L838.2813,1105.455 L853.125,1060 L867.9688,1105.362 L882.8125,1060 L897.6563,1060 L912.5,1060 L927.3438,1073.636 L942.1875,1121.688 L957.0313,1083.84 L971.875,1109.072 L986.7188,1112.041 L1001.563,1145.993 L1016.406,1060 L1031.25,1078.367 L1046.094,1086.623 L1060.938,1062.783 L1075.781,1260 L1090.625,1060 L1105.469,1112.968 L1120.313,1127.254 L1135.156,1060 L1150,1061.763 L1164.844,1060 L1179.688,1107.959 L1194.531,1171.224 L1209.375,1250.167 L1216.406,1100.146 " stroke="blue" fill="none" />
</svg>
