<svg width="2000" height="2500" xmlns="http://www.w3.org/2000/svg">
<text x="10" y="20" font-family="Arial" font-size="26" fill="black"> [Pusher] Training Session</text>
<text x="10" y="50" font-family="Arial" font-size="16" fill="black">[Statistics]</text>
<text x="50" y="70" font-family="Arial" font-size="12" fill="black">Started at: 11:58:48 AM, Wednesday, December 13, 2023</text>
<text x="50" y="90" font-family="Arial" font-size="12" fill="black">Finished at: 12:00:01 PM, Wednesday, December 13, 2023</text>
<text x="50" y="110" font-family="Arial" font-size="12" fill="black">Training Session Time: 0 hrs : 0 min : 45 sec</text>
<text x="50" y="130" font-family="Arial" font-size="12" fill="black">Inference Time: 0 hrs : 7 min : 47 sec       [Per agent: 0 hrs : 7 min : 47 sec]        [Device: CPU]</text>
<text x="50" y="150" font-family="Arial" font-size="12" fill="black">Policy Update Time: 0 hrs : 0 min : 11 sec        [Per iteration: 0 hrs : 0 min : 10 sec]        [Device: GPU]</text>
<text x="50" y="170" font-family="Arial" font-size="12" fill="black">Inference Time / Training Session Time: 9.533</text>
<text x="50" y="190" font-family="Arial" font-size="12" fill="black">Policy Update Time / Training Session Time: 0.236</text>
<text x="50" y="210" font-family="Arial" font-size="12" fill="black">Episode Count: 11</text>
<text x="50" y="230" font-family="Arial" font-size="12" fill="black">Inference Steps: 11680    [Per agent: 11680]     [Per Episode (mean): 1061]</text>
<text x="50" y="250" font-family="Arial" font-size="12" fill="black">Iterations: 1</text>
<text x="50" y="270" font-family="Arial" font-size="12" fill="black">Parallel Agents: 1</text>
<text x="50" y="290" font-family="Arial" font-size="12" fill="black">Timescale: 21.83</text>
<text x="50" y="310" font-family="Arial" font-size="12" fill="black">Trainer: PPO</text>
<text x="10" y="360" font-family="Arial" font-size="16" fill="black">[Hyperparameters]</text>
<text x="50" y="380" font-family="Arial" font-size="12" fill="black">Buffer Size: 10240        [Batch Size: 512       (x20)]</text>
<text x="50" y="400" font-family="Arial" font-size="12" fill="black">Num Epoch: 8</text>
<text x="50" y="420" font-family="Arial" font-size="12" fill="black">Time Horizon: 128</text>
<text x="50" y="440" font-family="Arial" font-size="12" fill="black">Gradient Cliping Normalization: 0.5</text>
<text x="50" y="460" font-family="Arial" font-size="12" fill="black">Learning Rate Schedule: False    </text>
<text x="10" y="510" font-family="Arial" font-size="16" fill="black">[Behaviour]</text>
<text x="50" y="530" font-family="Arial" font-size="12" fill="black">Space Size: 70</text>
<text x="50" y="550" font-family="Arial" font-size="12" fill="black">Continuous Actions: 3 [Standard Deviation: Fixed]     [Value: 2.25]</text>
<text x="50" y="570" font-family="Arial" font-size="12" fill="black">Discrete Actions: 0</text>
<text x="50" y="590" font-family="Arial" font-size="12" fill="black">TargetFPS: 50 (physics update rate)</text>
<text x="50" y="610" font-family="Arial" font-size="12" fill="black">Observations Normalization: False</text>
<text x="10" y="660" font-family="Arial" font-size="16" fill="black">[Decision Requester]</text>
<text x="50" y="680" font-family="Arial" font-size="12" fill="black">Max Step: 1000</text>
<text x="50" y="700" font-family="Arial" font-size="12" fill="black">Decision Period: 2      [Actions Between Decisions: True]</text>
<text x="10" y="750" font-family="Arial" font-size="16" fill="black">[Graphs]</text>
<text x="50" y="770" font-family="Arial" font-size="12" fill="black">Episode Reward (11)</text>
<text x="50" y="785" font-family="Arial" font-size="10" fill="black">-4.997591</text>
<text x="50" y="1000" font-family="Arial" font-size="10" fill="black">-5.002591</text>
<path d="M50,990 L75,790.0004 L100,790.0004 L125,790.0004 L150,790.0004 L175,790.0004 L200,790.0004 L225,790.0004 L250,790.0004 L275,790.0004 L300,790.0004 " stroke="blue" fill="none" />
<text x="50" y="1040" font-family="Arial" font-size="12" fill="black">Episode Length (11)</text>
<text x="50" y="1055" font-family="Arial" font-size="10" fill="black">1000</text>
<text x="50" y="1270" font-family="Arial" font-size="10" fill="black">1000</text>
<path d="M50,1260 L75,1260 L100,1260 L125,1260 L150,1260 L175,1260 L200,1260 L225,1260 L250,1260 L275,1260 L300,1260 " stroke="blue" fill="none" />
<text x="50" y="1310" font-family="Arial" font-size="12" fill="black">Policy Loss</text>
<text x="50" y="1325" font-family="Arial" font-size="10" fill="black">0.007516027</text>
<text x="50" y="1540" font-family="Arial" font-size="10" fill="black">0.001058982</text>
<path d="M50,1330 L75,1524.793 L100,1521.495 L125,1524.301 L150,1529.624 L175,1519.877 L200,1530 L225,1526.686 " stroke="blue" fill="none" />
<text x="50" y="1580" font-family="Arial" font-size="12" fill="black">Value Loss</text>
<text x="50" y="1595" font-family="Arial" font-size="10" fill="black">0.0001898051</text>
<text x="50" y="1810" font-family="Arial" font-size="10" fill="black">0.0001559272</text>
<path d="M50,1600.059 L75,1704.605 L100,1756.884 L125,1777.951 L150,1788.245 L175,1791.687 L200,1797.027 L225,1800 " stroke="blue" fill="none" />
<text x="50" y="1850" font-family="Arial" font-size="12" fill="black">Learning Rate</text>
<text x="50" y="1865" font-family="Arial" font-size="10" fill="black">0.0003</text>
<text x="50" y="2080" font-family="Arial" font-size="10" fill="black">0.0003</text>
<path d="M50,2070 L75,2070 L100,2070 L125,2070 L150,2070 L175,2070 L200,2070 L225,2070 " stroke="blue" fill="none" />
<text x="50" y="2120" font-family="Arial" font-size="12" fill="black">Entropy</text>
<text x="50" y="2135" font-family="Arial" font-size="10" fill="black">0.08710398</text>
<text x="50" y="2350" font-family="Arial" font-size="10" fill="black">0.08710398</text>
<path d="M50,2340 L75,2340 L100,2340 L125,2340 L150,2340 L175,2340 L200,2340 L225,2340 " stroke="blue" fill="none" />
<text x="750" y="770" font-family="Arial" font-size="12" fill="black">Simplified</text>
<text x="750" y="785" font-family="Arial" font-size="10" fill="black">-4.998045</text>
<text x="750" y="1000" font-family="Arial" font-size="10" fill="black">-4.998045</text>
<path d="M1000,990 " stroke="blue" fill="none" />
<text x="750" y="1040" font-family="Arial" font-size="12" fill="black">Simplified</text>
<text x="750" y="1055" font-family="Arial" font-size="10" fill="black">1000</text>
<text x="750" y="1270" font-family="Arial" font-size="10" fill="black">1000</text>
<path d="M1000,1260 " stroke="blue" fill="none" />
</svg>
