<svg width="2000" height="2500" xmlns="http://www.w3.org/2000/svg">
<text x="10" y="20" font-family="Arial" font-size="26" fill="black"> [<tspan font-weight="bold" fill="blue">Snowboarder</tspan>] Training Session</text>
<text x="10" y="50" font-family="Arial" font-size="16" fill="black">[Statistics]</text>
<text x="50" y="70" font-family="Arial" font-size="12" fill="black">Started at: 10:41:19 PM, Saturday, April 6, 2024</text>
<text x="50" y="90" font-family="Arial" font-size="12" fill="black">Finished at: 10:45:51 PM, Saturday, April 6, 2024</text>
<text x="50" y="110" font-family="Arial" font-size="12" fill="black">Training Session Time: 0 hrs : 4 min : 28 sec</text>
<text x="50" y="130" font-family="Arial" font-size="12" fill="black">Inference Time: 2 hrs : 49 min : 41 sec        [Device: CPU]</text>
<text x="50" y="150" font-family="Arial" font-size="12" fill="black">Update Time: 0 hrs : 1 min : 13 sec        [Per iteration: 0 hrs : 0 min : 7.224 sec]        [Device: GPU]</text>
<text x="50" y="170" font-family="Arial" font-size="12" fill="black">Episode Count: 627</text>
<text x="50" y="190" font-family="Arial" font-size="12" fill="black">Inference Steps: 200000</text>
<text x="50" y="210" font-family="Arial" font-size="12" fill="black">Iterations: 10</text>
<text x="50" y="230" font-family="Arial" font-size="12" fill="black">Parallel Agents: 52</text>
<text x="50" y="250" font-family="Arial" font-size="12" fill="black">Timescale: 1</text>
<text x="50" y="270" font-family="Arial" font-size="12" fill="black">Trainer: PPO</text>
<text x="10" y="320" font-family="Arial" font-size="16" fill="black">[Hyperparameters]</text>
<text x="50" y="340" font-family="Arial" font-size="12" fill="black">Buffer Size: 20000        [Batch Size: 1000       (x20)]</text>
<text x="50" y="360" font-family="Arial" font-size="12" fill="black">Num Epoch: 6</text>
<text x="50" y="380" font-family="Arial" font-size="12" fill="black">Time Horizon: 256</text>
<text x="50" y="400" font-family="Arial" font-size="12" fill="black">Gradient Cliping by Norm: 0.5</text>
<text x="50" y="420" font-family="Arial" font-size="12" fill="black">Learning Rate Schedule: False    </text>
<text x="10" y="470" font-family="Arial" font-size="16" fill="black">[Behaviour]</text>
<text x="50" y="490" font-family="Arial" font-size="12" fill="black">Space Size: 113</text>
<text x="50" y="510" font-family="Arial" font-size="12" fill="black">Continuous Actions: 38 [Standard Deviation: Fixed]     [Value: 1.71]</text>
<text x="50" y="530" font-family="Arial" font-size="12" fill="black">Discrete Actions: 0</text>
<text x="50" y="550" font-family="Arial" font-size="12" fill="black">TargetFPS: 100 (physics update rate)</text>
<text x="50" y="570" font-family="Arial" font-size="12" fill="black">Observations Normalization: True</text>
<text x="10" y="620" font-family="Arial" font-size="16" fill="black">[Decision Requester]</text>
<text x="50" y="640" font-family="Arial" font-size="12" fill="black">Max Step: 10000</text>
<text x="50" y="660" font-family="Arial" font-size="12" fill="black">Decision Period: 5      [Actions Between Decisions: True]</text>
<text x="10" y="710" font-family="Arial" font-size="16" fill="black">[Graphs]</text>
<text x="50" y="730" font-family="Arial" font-size="12" fill="black">Episode Reward (627)</text>
<text x="50" y="745" font-family="Arial" font-size="10" fill="black">2.749015</text>
<text x="50" y="960" font-family="Arial" font-size="10" fill="black">0.054</text>
<path d="M50,948.5158 L50.78125,948.5158 L51.5625,948.1447 L52.34375,948.1447 L53.125,948.1447 L53.90625,947.7737 L54.6875,947.7737 L55.46875,947.7737 L56.25,947.7737 L57.03125,947.7737 L57.8125,947.4026 L58.59375,947.4026 L59.375,946.6605 L60.15625,946.6605 L60.9375,945.9184 L61.71875,945.5474 L62.5,945.5474 L63.28125,945.1763 L64.0625,944.8052 L64.84375,948.1447 L65.625,947.7737 L66.40625,948.1447 L67.1875,942.2078 L67.96875,948.1447 L68.75,947.7737 L69.53125,940.3525 L70.3125,938.4973 L71.09375,948.5158 L71.875,947.7737 L72.65625,947.4026 L73.4375,947.4026 L74.21875,935.1578 L75,934.4156 L75.78125,945.1763 L76.5625,947.7737 L77.34375,927.3657 L78.125,927.3657 L78.90625,944.0631 L79.6875,947.4026 L80.46875,920.6866 L81.25,918.0892 L82.03125,946.6605 L82.8125,900.6497 L83.59375,899.9075 L84.375,893.2286 L85.15625,882.8391 L85.9375,948.1447 L86.71875,924.3972 L87.5,873.9337 L88.28125,949.2579 L89.0625,937.0131 L89.84375,856.8652 L90.625,862.8021 L91.40625,948.5158 L92.1875,852.0414 L92.96875,857.2362 L93.75,859.8336 L94.53125,947.7737 L95.3125,946.6605 L96.09375,849.8151 L96.875,912.8945 L97.65625,832.7466 L98.4375,804.5464 L99.21875,784.88 L100,895.0839 L100.7813,903.2471 L101.5625,750.3711 L102.3438,750 L103.125,750 L103.9063,750 L104.6875,750 L105.4688,750 L106.25,750 L107.0313,750 L107.8125,750 L108.5938,750 L109.375,750 L110.1563,750 L110.9375,750 L111.7188,750 L112.5,750 L113.2813,750 L114.0625,948.5158 L114.8438,750 L115.625,750 L116.4063,947.7737 L117.1875,750 L117.9688,750 L118.75,750 L119.5313,750 L120.3125,750 L121.0938,750 L121.875,750 L122.6563,750 L123.4375,750 L124.2188,948.5158 L125,947.4026 L125.7813,948.1447 L126.5625,947.7737 L127.3438,750 L128.125,750 L128.9063,948.5158 L129.6875,750 L130.4688,750 L131.25,750 L132.0313,750 L132.8125,750 L133.5938,779.6851 L134.375,948.1447 L135.1563,750 L135.9375,750 L136.7188,948.8868 L137.5,947.7737 L138.2813,750 L139.0625,947.7737 L139.8438,947.4026 L140.625,750 L141.4063,898.0523 L142.1875,948.1447 L142.9688,948.5158 L143.75,947.0316 L144.5313,916.234 L145.3125,750 L146.0938,947.4026 L146.875,750 L147.6563,750 L148.4375,870.9653 L149.2188,852.0414 L150,873.9337 L150.7813,750 L151.5625,948.1447 L152.3438,750 L153.125,750 L153.9063,948.1447 L154.6875,750 L155.4688,750 L156.25,948.1447 L157.0313,867.6258 L157.8125,948.1447 L158.5938,782.2825 L159.375,818.6465 L160.1563,860.2047 L160.9375,750 L161.7188,911.7813 L162.5,904.7313 L163.2813,948.5158 L164.0625,750 L164.8438,914.7498 L165.625,862.0599 L166.4063,823.4702 L167.1875,750 L167.9688,750 L168.75,750 L169.5313,750 L170.3125,750 L171.0938,750 L171.875,750 L172.6563,750 L173.4375,750 L174.2188,750 L175,750 L175.7813,750 L176.5625,750 L177.3438,780.7983 L178.125,948.1447 L178.9063,750 L179.6875,750 L180.4688,750 L181.25,750 L182.0313,750 L182.8125,750 L183.5938,750 L184.375,950 L185.1563,750 L185.9375,750 L186.7188,750 L187.5,750 L188.2813,948.1447 L189.0625,750 L189.8438,947.4026 L190.625,948.1447 L191.4063,903.6181 L192.1875,750 L192.9688,944.0631 L193.75,750 L194.5313,948.5158 L195.3125,750 L196.0938,750 L196.875,945.9184 L197.6563,942.2078 L198.4375,948.5158 L199.2188,842.394 L200,943.6921 L200.7813,948.1447 L201.5625,945.9184 L202.3438,750 L203.125,862.8021 L203.9063,750 L204.6875,945.9184 L205.4688,948.5158 L206.25,750 L207.0313,750 L207.8125,945.9184 L208.5938,885.8075 L209.375,750 L210.1563,948.5158 L210.9375,908.0707 L211.7188,853.1546 L212.5,898.0523 L213.2813,750 L214.0625,750 L214.8438,750 L215.625,918.4603 L216.4063,897.3102 L217.1875,750 L217.9688,750 L218.75,750 L219.5313,862.0599 L220.3125,750 L221.0938,750 L221.875,948.1447 L222.6563,945.5474 L223.4375,867.2547 L224.2188,837.5703 L225,948.1447 L225.7813,947.4026 L226.5625,947.7737 L227.3438,948.5158 L228.125,946.2894 L228.9063,948.5158 L229.6875,750 L230.4688,882.8391 L231.25,750 L232.0313,750 L232.8125,947.4026 L233.5938,860.5757 L234.375,873.5626 L235.1563,750 L235.9375,948.5158 L236.7188,750 L237.5,750 L238.2813,750 L239.0625,750 L239.8438,750 L240.625,750 L241.4063,750 L242.1875,750 L242.9688,750 L243.75,750 L244.5313,750 L245.3125,754.4528 L246.0938,809.3701 L246.875,750 L247.6563,750 L248.4375,750 L249.2188,943.321 L250,750 L250.7813,948.5158 L251.5625,750 L252.3438,750 L253.125,750 L253.9063,750 L254.6875,750 L255.4688,948.5158 L256.25,750 L257.0313,750 L257.8125,947.4026 L258.5938,826.0676 L259.375,913.6366 L260.1563,750 L260.9375,947.0316 L261.7188,750 L262.5,943.6921 L263.2813,948.1447 L264.0625,750 L264.8438,946.6605 L265.625,945.9184 L266.4063,948.5158 L267.1875,750 L267.9688,861.6889 L268.75,940.7236 L269.5313,945.9184 L270.3125,947.4026 L271.0938,937.0131 L271.875,750 L272.6563,796.0119 L273.4375,750 L274.2188,944.0631 L275,948.1447 L275.7813,944.0631 L276.5625,750 L277.3438,948.5158 L278.125,948.5158 L278.9063,750 L279.6875,947.7737 L280.4688,887.6627 L281.25,750 L282.0313,893.5996 L282.8125,948.5158 L283.5938,912.1524 L284.375,948.5158 L285.1563,948.8868 L285.9375,947.4026 L286.7188,944.4341 L287.5,750 L288.2813,908.0707 L289.0625,933.6736 L289.8438,947.0316 L290.625,945.5474 L291.4063,948.1447 L292.1875,750 L292.9688,750 L293.75,947.4026 L294.5313,944.4341 L295.3125,750 L296.0938,944.4341 L296.875,750 L297.6563,750 L298.4375,945.1763 L299.2188,947.7737 L300,948.1447 L300.7813,750 L301.5625,750 L302.3438,750 L303.125,903.6181 L303.9063,948.1447 L304.6875,878.3864 L305.4688,941.0947 L306.25,750 L307.0313,750 L307.8125,947.7737 L308.5938,948.1447 L309.375,945.1763 L310.1563,830.5203 L310.9375,945.5474 L311.7188,871.7074 L312.5,948.1447 L313.2813,750 L314.0625,867.9968 L314.8438,750 L315.625,948.1447 L316.4063,866.1415 L317.1875,910.2971 L317.9688,895.8259 L318.75,750 L319.5313,750 L320.3125,750 L321.0938,750 L321.875,750 L322.6563,750 L323.4375,750 L324.2188,750 L325,750 L325.7813,750 L326.5625,750 L327.3438,750 L328.125,946.6605 L328.9063,946.6605 L329.6875,948.1447 L330.4688,750 L331.25,750 L332.0313,750 L332.8125,750 L333.5938,946.2894 L334.375,750 L335.1563,750 L335.9375,936.2709 L336.7188,947.4026 L337.5,750 L338.2813,750 L339.0625,750 L339.8438,948.8868 L340.625,947.4026 L341.4063,750 L342.1875,886.1785 L342.9688,750 L343.75,750 L344.5313,948.1447 L345.3125,947.4026 L346.0938,947.0316 L346.875,750 L347.6563,750 L348.4375,750 L349.2188,948.1447 L350,750 L350.7813,932.9315 L351.5625,750 L352.3438,914.3787 L353.125,750 L353.9063,947.7737 L354.6875,948.8868 L355.4688,947.7737 L356.25,750 L357.0313,948.1447 L357.8125,750 L358.5938,869.11 L359.375,948.8868 L360.1563,945.9184 L360.9375,750 L361.7188,818.6465 L362.5,750 L363.2813,946.2894 L364.0625,872.8206 L364.8438,949.2579 L365.625,847.2177 L366.4063,757.7924 L367.1875,750 L367.9688,750 L368.75,750 L369.5313,750 L370.3125,948.1447 L371.0938,750 L371.875,949.2579 L372.6563,857.9783 L373.4375,948.5158 L374.2188,897.3102 L375,750 L375.7813,750 L376.5625,750 L377.3438,948.5158 L378.125,750 L378.9063,948.1447 L379.6875,750 L380.4688,750 L381.25,947.0316 L382.0313,859.4626 L382.8125,907.3287 L383.5938,750 L384.375,948.5158 L385.1563,945.9184 L385.9375,750 L386.7188,852.7836 L387.5,750 L388.2813,750 L389.0625,750 L389.8438,750 L390.625,750 L391.4063,750 L392.1875,750 L392.9688,948.5158 L393.75,750 L394.5313,750 L395.3125,750 L396.0938,750 L396.875,750 L397.6563,947.0316 L398.4375,945.9184 L399.2188,750 L400,750 L400.7813,750 L401.5625,750 L402.3438,750 L403.125,946.6605 L403.9063,750 L404.6875,942.5789 L405.4688,946.6605 L406.25,750 L407.0313,939.2394 L407.8125,750 L408.5938,937.7552 L409.375,750 L410.1563,750 L410.9375,883.9522 L411.7188,909.555 L412.5,944.0631 L413.2813,943.6921 L414.0625,750 L414.8438,945.9184 L415.625,830.8913 L416.4063,750 L417.1875,750 L417.9688,750 L418.75,750 L419.5313,940.3525 L420.3125,750 L421.0938,948.5158 L421.875,939.9815 L422.6563,872.0784 L423.4375,947.7737 L424.2188,750 L425,750 L425.7813,750 L426.5625,948.8868 L427.3438,948.5158 L428.125,750 L428.9063,948.1447 L429.6875,948.1447 L430.4688,750 L431.25,750 L432.0313,948.1447 L432.8125,944.8052 L433.5938,948.1447 L434.375,750 L435.1563,750 L435.9375,948.5158 L436.7188,908.0707 L437.5,750 L438.2813,750 L439.0625,947.0316 L439.8438,750 L440.625,871.3363 L441.4063,750 L442.1875,750 L442.9688,948.1447 L443.75,856.123 L444.5313,921.7998 L445.3125,946.2894 L446.0938,750 L446.875,750 L447.6563,750 L448.4375,750 L449.2188,750 L450,805.2885 L450.7813,835.715 L451.5625,837.5703 L452.3438,750 L453.125,750 L453.9063,947.0316 L454.6875,765.9557 L455.4688,947.4026 L456.25,750 L457.0313,750 L457.8125,750 L458.5938,750 L459.375,750 L460.1563,867.9968 L460.9375,946.6605 L461.7188,750 L462.5,750 L463.2813,750 L464.0625,750 L464.8438,947.0316 L465.625,750 L466.4063,947.4026 L467.1875,942.5789 L467.9688,750 L468.75,946.2894 L469.5313,750 L470.3125,948.5158 L471.0938,882.468 L471.875,750 L472.6563,938.1262 L473.4375,750 L474.2188,948.5158 L475,750 L475.7813,750 L476.5625,845.7335 L477.3438,756.6791 L478.125,750 L478.9063,947.4026 L479.6875,810.1122 L480.4688,946.2894 L481.25,750 L482.0313,948.5158 L482.8125,750 L483.5938,750 L484.375,947.7737 L485.1563,750 L485.9375,947.4026 L486.7188,941.4657 L487.5,750 L488.2813,948.5158 L489.0625,750 L489.8438,750 L490.625,947.0316 L491.4063,947.7737 L492.1875,750 L492.9688,943.6921 L493.75,948.5158 L494.5313,947.4026 L495.3125,947.4026 L496.0938,912.5234 L496.875,750 L497.6563,750 L498.4375,750 L499.2188,948.8868 L500,869.11 L500.7813,750 L501.5625,946.6605 L502.3438,750 L503.125,787.4775 L503.9063,750 L504.6875,750 L505.4688,750 L506.25,948.5158 L507.0313,948.1447 L507.8125,945.1763 L508.5938,867.2547 L509.375,947.7737 L510.1563,750 L510.9375,945.9184 L511.7188,750 L512.5,900.6497 L513.2813,750 L514.0625,859.0915 L514.8438,750 L515.625,750 L516.4063,948.5158 L517.1875,750 L517.9688,750 L518.75,750 L519.5313,916.234 L520.3125,750 L521.0938,948.1447 L521.875,750 L522.6563,878.3864 L523.4375,948.1447 L524.2188,856.4941 L525,750 L525.7813,750 L526.5625,948.5158 L527.3438,913.2656 L528.125,750 L528.9063,891.3733 L529.6875,916.234 L530.4688,750 L531.25,750 L532.0313,750 L532.8125,750 L533.5938,939.6105 L534.375,750 L535.1563,875.0469 L535.9375,750 L536.7188,750 L537.5,750 L538.2813,750 L539.0625,750 " stroke="blue" fill="none" />
<text x="50" y="1000" font-family="Arial" font-size="12" fill="black">Episode Length (627)</text>
<text x="50" y="1015" font-family="Arial" font-size="10" fill="black">550</text>
<text x="50" y="1230" font-family="Arial" font-size="10" fill="black">11</text>
<path d="M50,1218.887 L50.78125,1218.887 L51.5625,1218.516 L52.34375,1218.516 L53.125,1218.516 L53.90625,1218.145 L54.6875,1218.145 L55.46875,1218.145 L56.25,1218.145 L57.03125,1218.145 L57.8125,1217.774 L58.59375,1217.774 L59.375,1217.031 L60.15625,1217.031 L60.9375,1216.289 L61.71875,1215.918 L62.5,1215.918 L63.28125,1215.547 L64.0625,1215.176 L64.84375,1218.145 L65.625,1217.774 L66.40625,1218.145 L67.1875,1212.579 L67.96875,1218.145 L68.75,1217.774 L69.53125,1210.724 L70.3125,1208.868 L71.09375,1218.516 L71.875,1217.774 L72.65625,1217.403 L73.4375,1217.403 L74.21875,1205.529 L75,1204.787 L75.78125,1215.176 L76.5625,1217.774 L77.34375,1197.737 L78.125,1197.737 L78.90625,1214.063 L79.6875,1217.403 L80.46875,1191.057 L81.25,1188.46 L82.03125,1216.661 L82.8125,1171.02 L83.59375,1170.278 L84.375,1163.599 L85.15625,1153.21 L85.9375,1218.145 L86.71875,1194.397 L87.5,1143.933 L88.28125,1219.258 L89.0625,1207.013 L89.84375,1127.236 L90.625,1132.802 L91.40625,1218.516 L92.1875,1122.412 L92.96875,1127.236 L93.75,1129.833 L94.53125,1217.774 L95.3125,1216.661 L96.09375,1119.814 L96.875,1182.894 L97.65625,1102.746 L98.4375,1074.917 L99.21875,1055.25 L100,1165.083 L100.7813,1173.247 L101.5625,1020.742 L102.3438,1020.371 L103.125,1020.371 L103.9063,1020.371 L104.6875,1020.371 L105.4688,1020.371 L106.25,1020.371 L107.0313,1020.371 L107.8125,1020.371 L108.5938,1020.371 L109.375,1020.371 L110.1563,1020.371 L110.9375,1020.371 L111.7188,1020.371 L112.5,1020.371 L113.2813,1020.371 L114.0625,1218.516 L114.8438,1020 L115.625,1020 L116.4063,1217.774 L117.1875,1020 L117.9688,1020 L118.75,1020 L119.5313,1020 L120.3125,1020 L121.0938,1020 L121.875,1020 L122.6563,1020 L123.4375,1020 L124.2188,1218.516 L125,1217.403 L125.7813,1218.145 L126.5625,1217.774 L127.3438,1020 L128.125,1020 L128.9063,1218.516 L129.6875,1020 L130.4688,1020 L131.25,1020 L132.0313,1020 L132.8125,1020 L133.5938,1049.685 L134.375,1218.145 L135.1563,1020 L135.9375,1020 L136.7188,1218.887 L137.5,1217.774 L138.2813,1020 L139.0625,1217.774 L139.8438,1217.403 L140.625,1020 L141.4063,1168.052 L142.1875,1218.145 L142.9688,1218.516 L143.75,1217.031 L144.5313,1186.234 L145.3125,1020 L146.0938,1217.403 L146.875,1020 L147.6563,1020 L148.4375,1140.965 L149.2188,1122.041 L150,1143.933 L150.7813,1020 L151.5625,1218.145 L152.3438,1020 L153.125,1020 L153.9063,1218.145 L154.6875,1020 L155.4688,1020 L156.25,1218.145 L157.0313,1137.625 L157.8125,1218.145 L158.5938,1052.282 L159.375,1088.646 L160.1563,1130.204 L160.9375,1020 L161.7188,1181.781 L162.5,1174.731 L163.2813,1218.516 L164.0625,1020 L164.8438,1184.75 L165.625,1132.059 L166.4063,1093.469 L167.1875,1020 L167.9688,1020 L168.75,1020 L169.5313,1020 L170.3125,1020 L171.0938,1020 L171.875,1020 L172.6563,1020 L173.4375,1020 L174.2188,1020 L175,1020 L175.7813,1020 L176.5625,1020 L177.3438,1050.798 L178.125,1218.145 L178.9063,1020 L179.6875,1020 L180.4688,1020 L181.25,1020 L182.0313,1020 L182.8125,1020 L183.5938,1020 L184.375,1220 L185.1563,1020 L185.9375,1020 L186.7188,1020 L187.5,1020 L188.2813,1218.145 L189.0625,1020 L189.8438,1217.403 L190.625,1218.145 L191.4063,1173.618 L192.1875,1020 L192.9688,1214.063 L193.75,1020 L194.5313,1218.516 L195.3125,1020 L196.0938,1020 L196.875,1215.918 L197.6563,1212.208 L198.4375,1218.516 L199.2188,1112.393 L200,1213.692 L200.7813,1218.145 L201.5625,1215.918 L202.3438,1020 L203.125,1132.802 L203.9063,1020 L204.6875,1215.918 L205.4688,1218.516 L206.25,1020 L207.0313,1020 L207.8125,1215.918 L208.5938,1155.807 L209.375,1020 L210.1563,1218.516 L210.9375,1178.071 L211.7188,1123.154 L212.5,1168.052 L213.2813,1020 L214.0625,1020 L214.8438,1020 L215.625,1188.46 L216.4063,1167.31 L217.1875,1020 L217.9688,1020 L218.75,1020 L219.5313,1132.059 L220.3125,1020 L221.0938,1020 L221.875,1218.145 L222.6563,1215.547 L223.4375,1137.254 L224.2188,1107.57 L225,1218.145 L225.7813,1217.403 L226.5625,1217.774 L227.3438,1218.516 L228.125,1216.289 L228.9063,1218.516 L229.6875,1020 L230.4688,1152.839 L231.25,1020 L232.0313,1020 L232.8125,1217.403 L233.5938,1130.575 L234.375,1143.562 L235.1563,1020 L235.9375,1218.516 L236.7188,1020 L237.5,1020 L238.2813,1020 L239.0625,1020 L239.8438,1020 L240.625,1020 L241.4063,1020 L242.1875,1020 L242.9688,1020 L243.75,1020 L244.5313,1020 L245.3125,1024.453 L246.0938,1079.369 L246.875,1020 L247.6563,1020 L248.4375,1020 L249.2188,1213.321 L250,1020 L250.7813,1218.516 L251.5625,1020 L252.3438,1020 L253.125,1020 L253.9063,1020 L254.6875,1020 L255.4688,1218.516 L256.25,1020 L257.0313,1020 L257.8125,1217.403 L258.5938,1096.067 L259.375,1183.636 L260.1563,1020 L260.9375,1217.031 L261.7188,1020 L262.5,1213.692 L263.2813,1218.145 L264.0625,1020 L264.8438,1216.661 L265.625,1215.918 L266.4063,1218.516 L267.1875,1020 L267.9688,1131.688 L268.75,1210.724 L269.5313,1215.918 L270.3125,1217.403 L271.0938,1207.013 L271.875,1020 L272.6563,1066.011 L273.4375,1020 L274.2188,1214.063 L275,1218.145 L275.7813,1214.063 L276.5625,1020 L277.3438,1218.516 L278.125,1218.516 L278.9063,1020 L279.6875,1217.774 L280.4688,1157.662 L281.25,1020 L282.0313,1163.599 L282.8125,1218.516 L283.5938,1182.152 L284.375,1218.516 L285.1563,1218.887 L285.9375,1217.403 L286.7188,1214.434 L287.5,1020 L288.2813,1178.071 L289.0625,1203.673 L289.8438,1217.031 L290.625,1215.547 L291.4063,1218.145 L292.1875,1020 L292.9688,1020 L293.75,1217.403 L294.5313,1214.434 L295.3125,1020 L296.0938,1214.434 L296.875,1020 L297.6563,1020 L298.4375,1215.176 L299.2188,1217.774 L300,1218.145 L300.7813,1020 L301.5625,1020 L302.3438,1020 L303.125,1173.618 L303.9063,1218.145 L304.6875,1148.386 L305.4688,1211.095 L306.25,1020 L307.0313,1020 L307.8125,1217.774 L308.5938,1218.145 L309.375,1215.176 L310.1563,1100.52 L310.9375,1215.547 L311.7188,1141.707 L312.5,1218.145 L313.2813,1020 L314.0625,1137.996 L314.8438,1020 L315.625,1218.145 L316.4063,1136.141 L317.1875,1180.297 L317.9688,1165.826 L318.75,1020 L319.5313,1020 L320.3125,1020 L321.0938,1020 L321.875,1020 L322.6563,1020 L323.4375,1020 L324.2188,1020 L325,1020 L325.7813,1020 L326.5625,1020 L327.3438,1020 L328.125,1216.661 L328.9063,1216.661 L329.6875,1218.145 L330.4688,1020 L331.25,1020 L332.0313,1020 L332.8125,1020 L333.5938,1216.289 L334.375,1020 L335.1563,1020 L335.9375,1206.271 L336.7188,1217.403 L337.5,1020 L338.2813,1020 L339.0625,1020 L339.8438,1218.887 L340.625,1217.403 L341.4063,1020 L342.1875,1156.178 L342.9688,1020 L343.75,1020 L344.5313,1218.145 L345.3125,1217.403 L346.0938,1217.031 L346.875,1020 L347.6563,1020 L348.4375,1020 L349.2188,1218.145 L350,1020 L350.7813,1202.931 L351.5625,1020 L352.3438,1184.378 L353.125,1020 L353.9063,1217.774 L354.6875,1218.887 L355.4688,1217.774 L356.25,1020 L357.0313,1218.145 L357.8125,1020 L358.5938,1139.109 L359.375,1218.887 L360.1563,1215.918 L360.9375,1020 L361.7188,1088.646 L362.5,1020 L363.2813,1216.289 L364.0625,1142.82 L364.8438,1219.258 L365.625,1117.217 L366.4063,1027.792 L367.1875,1020 L367.9688,1020 L368.75,1020 L369.5313,1020 L370.3125,1218.145 L371.0938,1020 L371.875,1219.258 L372.6563,1127.978 L373.4375,1218.516 L374.2188,1167.31 L375,1020 L375.7813,1020 L376.5625,1020 L377.3438,1218.516 L378.125,1020 L378.9063,1218.145 L379.6875,1020 L380.4688,1020 L381.25,1217.031 L382.0313,1129.462 L382.8125,1177.328 L383.5938,1020 L384.375,1218.516 L385.1563,1215.918 L385.9375,1020 L386.7188,1122.783 L387.5,1020 L388.2813,1020 L389.0625,1020 L389.8438,1020 L390.625,1020 L391.4063,1020 L392.1875,1020 L392.9688,1218.516 L393.75,1020 L394.5313,1020 L395.3125,1020 L396.0938,1020 L396.875,1020 L397.6563,1217.031 L398.4375,1215.918 L399.2188,1020 L400,1020 L400.7813,1020 L401.5625,1020 L402.3438,1020 L403.125,1216.661 L403.9063,1020 L404.6875,1212.579 L405.4688,1216.661 L406.25,1020 L407.0313,1209.239 L407.8125,1020 L408.5938,1207.755 L409.375,1020 L410.1563,1020 L410.9375,1153.952 L411.7188,1179.555 L412.5,1214.063 L413.2813,1213.692 L414.0625,1020 L414.8438,1215.918 L415.625,1100.891 L416.4063,1020 L417.1875,1020 L417.9688,1020 L418.75,1020 L419.5313,1210.353 L420.3125,1020 L421.0938,1218.516 L421.875,1209.981 L422.6563,1142.078 L423.4375,1217.774 L424.2188,1020 L425,1020 L425.7813,1020 L426.5625,1218.887 L427.3438,1218.516 L428.125,1020 L428.9063,1218.145 L429.6875,1218.145 L430.4688,1020 L431.25,1020 L432.0313,1218.145 L432.8125,1214.805 L433.5938,1218.145 L434.375,1020 L435.1563,1020 L435.9375,1218.516 L436.7188,1178.071 L437.5,1020 L438.2813,1020 L439.0625,1217.031 L439.8438,1020 L440.625,1141.336 L441.4063,1020 L442.1875,1020 L442.9688,1218.145 L443.75,1126.122 L444.5313,1191.8 L445.3125,1216.289 L446.0938,1020 L446.875,1020 L447.6563,1020 L448.4375,1020 L449.2188,1020 L450,1075.288 L450.7813,1105.714 L451.5625,1107.57 L452.3438,1020 L453.125,1020 L453.9063,1217.031 L454.6875,1035.955 L455.4688,1217.403 L456.25,1020 L457.0313,1020 L457.8125,1020 L458.5938,1020 L459.375,1020 L460.1563,1137.996 L460.9375,1216.661 L461.7188,1020 L462.5,1020 L463.2813,1020 L464.0625,1020 L464.8438,1217.031 L465.625,1020 L466.4063,1217.403 L467.1875,1212.579 L467.9688,1020 L468.75,1216.289 L469.5313,1020 L470.3125,1218.516 L471.0938,1152.468 L471.875,1020 L472.6563,1208.126 L473.4375,1020 L474.2188,1218.516 L475,1020 L475.7813,1020 L476.5625,1115.733 L477.3438,1026.679 L478.125,1020 L478.9063,1217.403 L479.6875,1080.111 L480.4688,1216.289 L481.25,1020 L482.0313,1218.516 L482.8125,1020 L483.5938,1020 L484.375,1217.774 L485.1563,1020 L485.9375,1217.403 L486.7188,1211.466 L487.5,1020 L488.2813,1218.516 L489.0625,1020 L489.8438,1020 L490.625,1217.031 L491.4063,1217.774 L492.1875,1020 L492.9688,1213.692 L493.75,1218.516 L494.5313,1217.403 L495.3125,1217.403 L496.0938,1182.523 L496.875,1020 L497.6563,1020 L498.4375,1020 L499.2188,1218.887 L500,1139.109 L500.7813,1020 L501.5625,1216.661 L502.3438,1020 L503.125,1057.477 L503.9063,1020 L504.6875,1020 L505.4688,1020 L506.25,1218.516 L507.0313,1218.145 L507.8125,1215.176 L508.5938,1137.254 L509.375,1217.774 L510.1563,1020 L510.9375,1215.918 L511.7188,1020 L512.5,1170.649 L513.2813,1020 L514.0625,1129.091 L514.8438,1020 L515.625,1020 L516.4063,1218.516 L517.1875,1020 L517.9688,1020 L518.75,1020 L519.5313,1186.234 L520.3125,1020 L521.0938,1218.145 L521.875,1020 L522.6563,1148.386 L523.4375,1218.145 L524.2188,1126.494 L525,1020 L525.7813,1020 L526.5625,1218.516 L527.3438,1183.265 L528.125,1020 L528.9063,1161.373 L529.6875,1186.234 L530.4688,1020 L531.25,1020 L532.0313,1020 L532.8125,1020 L533.5938,1209.61 L534.375,1020 L535.1563,1145.046 L535.9375,1020 L536.7188,1020 L537.5,1020 L538.2813,1020 L539.0625,1020 " stroke="blue" fill="none" />
<text x="50" y="1270" font-family="Arial" font-size="12" fill="black">Policy Loss</text>
<text x="50" y="1285" font-family="Arial" font-size="10" fill="black">0.6064764</text>
<text x="50" y="1500" font-family="Arial" font-size="10" fill="black">0.444198</text>
<path d="M50,1290 L75,1440.94 L100,1422.647 L125,1480.235 L150,1405.638 L175,1440.4 L200,1490 L225,1428.381 L250,1435.161 L275,1482.127 " stroke="blue" fill="none" />
<text x="50" y="1540" font-family="Arial" font-size="12" fill="black">Value Loss</text>
<text x="50" y="1555" font-family="Arial" font-size="10" fill="black">0.003308999</text>
<text x="50" y="1770" font-family="Arial" font-size="10" fill="black">0.001717352</text>
<path d="M50,1760 L75,1647.475 L100,1570.578 L125,1759.047 L150,1560.001 L175,1603.805 L200,1733.028 L225,1561.845 L250,1613.703 L275,1717.443 " stroke="blue" fill="none" />
<text x="50" y="1810" font-family="Arial" font-size="12" fill="black">Learning Rate</text>
<text x="50" y="1825" font-family="Arial" font-size="10" fill="black">0.0001</text>
<text x="50" y="2040" font-family="Arial" font-size="10" fill="black">0.0001</text>
<path d="M50,2030 L75,2030 L100,2030 L125,2030 L150,2030 L175,2030 L200,2030 L225,2030 L250,2030 L275,2030 " stroke="blue" fill="none" />
<text x="50" y="2080" font-family="Arial" font-size="12" fill="black">Entropy</text>
<text x="50" y="2095" font-family="Arial" font-size="10" fill="black">1.724372</text>
<text x="50" y="2310" font-family="Arial" font-size="10" fill="black">1.710002</text>
<path d="M50,2300 L75,2101.664 L100,2100.012 L125,2100 L150,2100 L175,2100 L200,2100 L225,2100 L250,2100 L275,2100 " stroke="blue" fill="none" />
<text x="750" y="730" font-family="Arial" font-size="12" fill="black">Simplified</text>
<text x="750" y="745" font-family="Arial" font-size="10" fill="black">2.586646</text>
<text x="750" y="960" font-family="Arial" font-size="10" fill="black">0.09268421</text>
<path d="M764.0625,950 L778.9063,945.3361 L793.75,903.5932 L808.5938,801.1345 L823.4375,759.5178 L838.2813,828.8224 L853.125,853.3239 L867.9688,838.6992 L882.8125,750 L897.6563,835.259 L912.5,869.2362 L927.3438,840.3874 L942.1875,802.8227 L957.0313,774.1849 L971.875,879.1549 L986.7188,888.1662 L1001.563,856.9748 L1016.406,867.2524 L1031.25,788.0289 L1046.094,833.9506 L1060.938,842.3077 L1075.781,824.7496 L1090.625,814.1976 L1105.469,803.9411 L1120.313,823.7365 L1135.156,856.0251 L1150,816.7512 L1164.844,799.2773 L1179.688,831.6082 L1194.531,860.077 L1209.375,840.4296 L1224.219,819.5369 L1239.063,792.9462 " stroke="blue" fill="none" />
<text x="750" y="1000" font-family="Arial" font-size="12" fill="black">Simplified</text>
<text x="750" y="1015" font-family="Arial" font-size="10" fill="black">517.5263</text>
<text x="750" y="1230" font-family="Arial" font-size="10" fill="black">17.73684</text>
<path d="M764.0625,1220 L778.9063,1215.093 L793.75,1173.454 L808.5938,1071.285 L823.4375,1029.625 L838.2813,1098.665 L853.125,1123.117 L867.9688,1108.521 L882.8125,1020 L897.6563,1105.089 L912.5,1138.997 L927.3438,1110.206 L942.1875,1072.717 L957.0313,1044.136 L971.875,1148.896 L986.7188,1157.89 L1001.563,1126.761 L1016.406,1137.018 L1031.25,1057.953 L1046.094,1103.783 L1060.938,1112.123 L1075.781,1094.6 L1090.625,1084.069 L1105.469,1073.833 L1120.313,1093.589 L1135.156,1125.813 L1150,1086.618 L1164.844,1069.179 L1179.688,1101.445 L1194.531,1129.857 L1209.375,1110.249 L1224.219,1089.398 L1239.063,1062.86 " stroke="blue" fill="none" />
</svg>
