<svg width="2000" height="2500" xmlns="http://www.w3.org/2000/svg">
<text x="10" y="20" font-family="Arial" font-size="26" fill="black"> [MarioScript] Training Session</text>
<text x="10" y="50" font-family="Arial" font-size="16" fill="black">[Statistics]</text>
<text x="50" y="70" font-family="Arial" font-size="12" fill="black">Started at: 3:18:00 PM, Monday, January 29, 2024</text>
<text x="50" y="90" font-family="Arial" font-size="12" fill="black">Finished at: 3:46:37 PM, Monday, January 29, 2024</text>
<text x="50" y="110" font-family="Arial" font-size="12" fill="black">Training Session Time: 0 hrs : 28 min : 36 sec</text>
<text x="50" y="130" font-family="Arial" font-size="12" fill="black">Inference Time: 1 hrs : 40 min : 12 sec        [Device: CPU]</text>
<text x="50" y="150" font-family="Arial" font-size="12" fill="black">Update Time: 0 hrs : 20 min : 58 sec        [Per iteration: 0 hrs : 1 min : 22.903 sec]        [Device: GPU]</text>
<text x="50" y="170" font-family="Arial" font-size="12" fill="black">Episode Count: 245</text>
<text x="50" y="190" font-family="Arial" font-size="12" fill="black">Inference Steps: 300000</text>
<text x="50" y="210" font-family="Arial" font-size="12" fill="black">Iterations: 15</text>
<text x="50" y="230" font-family="Arial" font-size="12" fill="black">Parallel Agents: 1</text>
<text x="50" y="250" font-family="Arial" font-size="12" fill="black">Timescale: 15</text>
<text x="50" y="270" font-family="Arial" font-size="12" fill="black">Trainer: PPO</text>
<text x="10" y="320" font-family="Arial" font-size="16" fill="black">[Hyperparameters]</text>
<text x="50" y="340" font-family="Arial" font-size="12" fill="black">Buffer Size: 20000        [Batch Size: 1000       (x20)]</text>
<text x="50" y="360" font-family="Arial" font-size="12" fill="black">Num Epoch: 5</text>
<text x="50" y="380" font-family="Arial" font-size="12" fill="black">Time Horizon: 4096</text>
<text x="50" y="400" font-family="Arial" font-size="12" fill="black">Gradient Cliping by Norm: 0.5</text>
<text x="50" y="420" font-family="Arial" font-size="12" fill="black">Learning Rate Schedule: False    </text>
<text x="10" y="470" font-family="Arial" font-size="16" fill="black">[Behaviour]</text>
<text x="50" y="490" font-family="Arial" font-size="12" fill="black">Space Size: 204</text>
<text x="50" y="510" font-family="Arial" font-size="12" fill="black">Continuous Actions: 0 [Standard Deviation: Trainable]     </text>
<text x="50" y="530" font-family="Arial" font-size="12" fill="black">Discrete Actions: 5</text>
<text x="50" y="550" font-family="Arial" font-size="12" fill="black">TargetFPS: 50 (physics update rate)</text>
<text x="50" y="570" font-family="Arial" font-size="12" fill="black">Observations Normalization: False</text>
<text x="10" y="620" font-family="Arial" font-size="16" fill="black">[Decision Requester]</text>
<text x="50" y="640" font-family="Arial" font-size="12" fill="black">Max Step: 6000</text>
<text x="50" y="660" font-family="Arial" font-size="12" fill="black">Decision Period: 1</text>
<text x="10" y="710" font-family="Arial" font-size="16" fill="black">[Graphs]</text>
<text x="50" y="730" font-family="Arial" font-size="12" fill="black">Episode Reward (245)</text>
<text x="50" y="745" font-family="Arial" font-size="10" fill="black">5</text>
<text x="50" y="960" font-family="Arial" font-size="10" fill="black">-3</text>
<path d="M50,750 L51.5625,750 L53.125,750 L54.6875,750 L56.25,750 L57.8125,750 L59.375,750 L60.9375,750 L62.5,800 L64.0625,750 L65.625,775 L67.1875,750 L68.75,775 L70.3125,750 L71.875,750 L73.4375,775 L75,750 L76.5625,750 L78.125,750 L79.6875,750 L81.25,825 L82.8125,750 L84.375,750 L85.9375,750 L87.5,750 L89.0625,750 L90.625,750 L92.1875,750 L93.75,750 L95.3125,750 L96.875,750 L98.4375,750 L100,750 L101.5625,750 L103.125,750 L104.6875,750 L106.25,775 L107.8125,750 L109.375,750 L110.9375,750 L112.5,750 L114.0625,775 L115.625,750 L117.1875,750 L118.75,775 L120.3125,750 L121.875,750 L123.4375,850 L125,800 L126.5625,750 L128.125,775 L129.6875,750 L131.25,750 L132.8125,750 L134.375,750 L135.9375,775 L137.5,750 L139.0625,775 L140.625,750 L142.1875,750 L143.75,750 L145.3125,750 L146.875,750 L148.4375,750 L150,775 L151.5625,750 L153.125,750 L154.6875,775 L156.25,750 L157.8125,750 L159.375,750 L160.9375,775 L162.5,750 L164.0625,750 L165.625,750 L167.1875,750 L168.75,800 L170.3125,800 L171.875,775 L173.4375,775 L175,750 L176.5625,750 L178.125,750 L179.6875,750 L181.25,800 L182.8125,750 L184.375,750 L185.9375,775 L187.5,800 L189.0625,800 L190.625,800 L192.1875,750 L193.75,775 L195.3125,750 L196.875,800 L198.4375,750 L200,775 L201.5625,800 L203.125,775 L204.6875,800 L206.25,775 L207.8125,775 L209.375,775 L210.9375,775 L212.5,775 L214.0625,775 L215.625,800 L217.1875,800 L218.75,800 L220.3125,750 L221.875,800 L223.4375,800 L225,800 L226.5625,800 L228.125,750 L229.6875,800 L231.25,750 L232.8125,800 L234.375,775 L235.9375,775 L237.5,750 L239.0625,825 L240.625,775 L242.1875,750 L243.75,825 L245.3125,800 L246.875,775 L248.4375,800 L250,775 L251.5625,800 L253.125,775 L254.6875,800 L256.25,775 L257.8125,800 L259.375,800 L260.9375,775 L262.5,800 L264.0625,750 L265.625,800 L267.1875,800 L268.75,800 L270.3125,800 L271.875,750 L273.4375,800 L275,750 L276.5625,775 L278.125,775 L279.6875,800 L281.25,800 L282.8125,750 L284.375,750 L285.9375,800 L287.5,800 L289.0625,825 L290.625,950 L292.1875,800 L293.75,800 L295.3125,800 L296.875,800 L298.4375,825 L300,800 L301.5625,825 L303.125,825 L304.6875,825 L306.25,825 L307.8125,800 L309.375,850 L310.9375,825 L312.5,825 L314.0625,800 L315.625,850 L317.1875,825 L318.75,825 L320.3125,825 L321.875,850 L323.4375,825 L325,850 L326.5625,825 L328.125,850 L329.6875,825 L331.25,850 L332.8125,850 L334.375,850 L335.9375,825 L337.5,850 L339.0625,825 L340.625,850 L342.1875,850 L343.75,850 L345.3125,875 L346.875,850 L348.4375,850 L350,850 L351.5625,850 L353.125,800 L354.6875,850 L356.25,950 L357.8125,850 L359.375,850 L360.9375,850 L362.5,850 L364.0625,850 L365.625,825 L367.1875,850 L368.75,825 L370.3125,850 L371.875,850 L373.4375,850 L375,850 L376.5625,850 L378.125,825 L379.6875,825 L381.25,850 L382.8125,800 L384.375,850 L385.9375,850 L387.5,850 L389.0625,850 L390.625,850 L392.1875,825 L393.75,850 L395.3125,850 L396.875,850 L398.4375,850 L400,850 L401.5625,850 L403.125,850 L404.6875,850 L406.25,850 L407.8125,850 L409.375,825 L410.9375,850 L412.5,850 L414.0625,825 L415.625,825 L417.1875,825 L418.75,825 L420.3125,850 L421.875,825 L423.4375,850 L425,825 L426.5625,825 L428.125,850 L429.6875,825 L431.25,825 " stroke="blue" fill="none" />
<text x="50" y="1000" font-family="Arial" font-size="12" fill="black">Episode Length (245)</text>
<text x="50" y="1015" font-family="Arial" font-size="10" fill="black">3509</text>
<text x="50" y="1230" font-family="Arial" font-size="10" fill="black">71</text>
<path d="M50,1149.319 L51.5625,1162.757 L53.125,1163.514 L54.6875,1146.818 L56.25,1172.182 L57.8125,1143.269 L59.375,1127.214 L60.9375,1167.237 L62.5,1165.608 L64.0625,1165.026 L65.625,1173.636 L67.1875,1135.358 L68.75,1176.661 L70.3125,1154.671 L71.875,1150.541 L73.4375,1179.337 L75,1155.486 L76.5625,1162.234 L78.125,1127.446 L79.6875,1160.14 L81.25,1171.891 L82.8125,1164.793 L84.375,1169.796 L85.9375,1172.123 L87.5,1175.032 L89.0625,1165.782 L90.625,1156.94 L92.1875,1145.189 L93.75,1167.818 L95.3125,1162.118 L96.875,1140.651 L98.4375,1156.824 L100,1172.007 L101.5625,1140.302 L103.125,1146.934 L104.6875,1150.774 L106.25,1171.891 L107.8125,1151.704 L109.375,1169.04 L110.9375,1160.023 L112.5,1117.499 L114.0625,1159.442 L115.625,1176.021 L117.1875,1160.78 L118.75,1167.295 L120.3125,1115.753 L121.875,1128.319 L123.4375,1192.949 L125,1188.761 L126.5625,1145.829 L128.125,1169.913 L129.6875,1143.618 L131.25,1161.652 L132.8125,1154.555 L134.375,1096.614 L135.9375,1175.788 L137.5,1167.818 L139.0625,1184.689 L140.625,1158.627 L142.1875,1161.303 L143.75,1139.663 L145.3125,1136.812 L146.875,1169.622 L148.4375,1125.236 L150,1180.5 L151.5625,1165.433 L153.125,1167.76 L154.6875,1186.027 L156.25,1156.882 L157.8125,1178.057 L159.375,1110.925 L160.9375,1181.664 L162.5,1105.631 L164.0625,1127.155 L165.625,1135.881 L167.1875,1158.394 L168.75,1174.508 L170.3125,1182.129 L171.875,1149.378 L173.4375,1174.799 L175,1152.112 L176.5625,1119.651 L178.125,1162.525 L179.6875,1159.849 L181.25,1182.711 L182.8125,1180.326 L184.375,1147.458 L185.9375,1152.868 L187.5,1169.564 L189.0625,1161.012 L190.625,1159.383 L192.1875,1070.262 L193.75,1116.393 L195.3125,1076.254 L196.875,1115.172 L198.4375,1090.855 L200,1020 L201.5625,1164.735 L203.125,1175.439 L204.6875,1179.162 L206.25,1167.877 L207.8125,1131.053 L209.375,1125.177 L210.9375,1171.134 L212.5,1151.297 L214.0625,1140.477 L215.625,1174.741 L217.1875,1153.915 L218.75,1170.378 L220.3125,1134.194 L221.875,1176.952 L223.4375,1170.436 L225,1168.284 L226.5625,1160.489 L228.125,1153.101 L229.6875,1164.91 L231.25,1109.994 L232.8125,1175.905 L234.375,1156.591 L235.9375,1177.941 L237.5,1161.419 L239.0625,1190.273 L240.625,1162.699 L242.1875,1155.137 L243.75,1187.132 L245.3125,1174.043 L246.875,1148.97 L248.4375,1183.816 L250,1130.82 L251.5625,1169.796 L253.125,1167.528 L254.6875,1163.572 L256.25,1147.749 L257.8125,1183.932 L259.375,1175.497 L260.9375,1168.982 L262.5,1168.458 L264.0625,1138.848 L265.625,1132.624 L267.1875,1162.641 L268.75,1144.724 L270.3125,1178.464 L271.875,1106.213 L273.4375,1163.281 L275,1097.312 L276.5625,1176.603 L278.125,1158.86 L279.6875,1179.395 L281.25,1188.412 L282.8125,1159.093 L284.375,1137.685 L285.9375,1086.725 L287.5,1170.727 L289.0625,1105.224 L290.625,1209.412 L292.1875,1158.22 L293.75,1158.627 L295.3125,1183.874 L296.875,1155.893 L298.4375,1166.422 L300,1144.782 L301.5625,1152.112 L303.125,1164.503 L304.6875,1175.556 L306.25,1177.184 L307.8125,1161.478 L309.375,1192.426 L310.9375,1162.234 L312.5,1157.929 L314.0625,1151.937 L315.625,1142.339 L317.1875,1164.735 L318.75,1114.066 L320.3125,1136.463 L321.875,1152.752 L323.4375,1163.048 L325,1132.798 L326.5625,1172.938 L328.125,1170.495 L329.6875,1174.276 L331.25,1181.082 L332.8125,1139.895 L334.375,1153.857 L335.9375,1144.607 L337.5,1175.207 L339.0625,1137.685 L340.625,1146.353 L342.1875,1140.593 L343.75,1153.799 L345.3125,1176.428 L346.875,1166.364 L348.4375,1166.655 L350,1141.117 L351.5625,1129.657 L353.125,1067.179 L354.6875,1171.076 L356.25,1220 L357.8125,1141.757 L359.375,1101.966 L360.9375,1157.173 L362.5,1159.442 L364.0625,1105.748 L365.625,1117.15 L367.1875,1128.493 L368.75,1162.932 L370.3125,1162.001 L371.875,1149.61 L373.4375,1167.295 L375,1168.284 L376.5625,1174.625 L378.125,1147.632 L379.6875,1144.84 L381.25,1162.699 L382.8125,1136.638 L384.375,1158.918 L385.9375,1176.312 L387.5,1102.664 L389.0625,1152.344 L390.625,1146.294 L392.1875,1139.372 L393.75,1157.755 L395.3125,1146.353 L396.875,1137.917 L398.4375,1178.93 L400,1161.012 L401.5625,1163.572 L403.125,1150.774 L404.6875,1137.627 L406.25,1120.989 L407.8125,1064.968 L409.375,1149.668 L410.9375,1149.727 L412.5,1164.212 L414.0625,1134.02 L415.625,1128.319 L417.1875,1147.283 L418.75,1094.927 L420.3125,1146.004 L421.875,1125.119 L423.4375,1155.311 L425,1129.599 L426.5625,1158.569 L428.125,1137.452 L429.6875,1153.217 L431.25,1129.25 " stroke="blue" fill="none" />
<text x="50" y="1270" font-family="Arial" font-size="12" fill="black">Policy Loss</text>
<text x="50" y="1285" font-family="Arial" font-size="10" fill="black">0.1263535</text>
<text x="50" y="1500" font-family="Arial" font-size="10" fill="black">0.0886297</text>
<path d="M50,1326.574 L75,1290 L100,1315.654 L125,1437.459 L150,1468.134 L175,1476.303 L200,1422.1 L225,1402.158 L250,1430.795 L275,1363.679 L300,1341.062 L325,1373.634 L350,1445.39 L375,1465.563 L400,1490 " stroke="blue" fill="none" />
<text x="50" y="1540" font-family="Arial" font-size="12" fill="black">Value Loss</text>
<text x="50" y="1555" font-family="Arial" font-size="10" fill="black">0.03629722</text>
<text x="50" y="1770" font-family="Arial" font-size="10" fill="black">0.01202249</text>
<path d="M50,1581.858 L75,1560 L100,1577.004 L125,1652.339 L150,1674.451 L175,1723.521 L200,1668.754 L225,1650.986 L250,1668.45 L275,1661.823 L300,1699.21 L325,1736.86 L350,1743.799 L375,1760 L400,1736.979 " stroke="blue" fill="none" />
<text x="50" y="1810" font-family="Arial" font-size="12" fill="black">Learning Rate</text>
<text x="50" y="1825" font-family="Arial" font-size="10" fill="black">0.0003</text>
<text x="50" y="2040" font-family="Arial" font-size="10" fill="black">0.0003</text>
<path d="M50,2030 L75,2030 L100,2030 L125,2030 L150,2030 L175,2030 L200,2030 L225,2030 L250,2030 L275,2030 L300,2030 L325,2030 L350,2030 L375,2030 L400,2030 " stroke="blue" fill="none" />
<text x="50" y="2080" font-family="Arial" font-size="12" fill="black">Entropy</text>
<text x="50" y="2095" font-family="Arial" font-size="10" fill="black">0.3233445</text>
<text x="50" y="2310" font-family="Arial" font-size="10" fill="black">0.3170468</text>
<path d="M50,2300 L75,2203.156 L100,2231.065 L125,2192.496 L150,2193.783 L175,2110.954 L200,2140.194 L225,2167.109 L250,2108.824 L275,2132.312 L300,2103.786 L325,2118.097 L350,2114.771 L375,2100 L400,2160.569 " stroke="blue" fill="none" />
<text x="750" y="730" font-family="Arial" font-size="12" fill="black">Simplified</text>
<text x="750" y="745" font-family="Arial" font-size="10" fill="black">4.789474</text>
<text x="750" y="960" font-family="Arial" font-size="10" fill="black">1</text>
<path d="M778.125,752.7778 L807.8125,750 L837.5,766.6666 L867.1875,750 L896.875,788.8889 L926.5625,811.1111 L956.25,808.3333 L985.9375,808.3333 L1015.625,894.4445 L1045.313,930.5555 L1075,950 L1104.688,936.1111 L1131.25,918.9542 " stroke="blue" fill="none" />
<text x="750" y="1000" font-family="Arial" font-size="12" fill="black">Simplified</text>
<text x="750" y="1015" font-family="Arial" font-size="10" fill="black">1538.588</text>
<text x="750" y="1230" font-family="Arial" font-size="10" fill="black">1056.368</text>
<path d="M778.125,1177.761 L807.8125,1201.926 L837.5,1167.764 L867.1875,1159.73 L896.875,1113.235 L926.5625,1120.831 L956.25,1216.442 L985.9375,1151.283 L1015.625,1220 L1045.313,1160.036 L1075,1104.809 L1104.688,1139.473 L1131.25,1020 " stroke="blue" fill="none" />
</svg>
