<svg width="2000" height="2500" xmlns="http://www.w3.org/2000/svg">
<text x="10" y="20" font-family="Arial" font-size="26" fill="black"> [MarioScript] Training Session</text>
<text x="10" y="50" font-family="Arial" font-size="16" fill="black">[Statistics]</text>
<text x="50" y="70" font-family="Arial" font-size="12" fill="black">Started at: 10:48:56 PM, Sunday, January 28, 2024</text>
<text x="50" y="90" font-family="Arial" font-size="12" fill="black">Finished at: 11:26:28 PM, Sunday, January 28, 2024</text>
<text x="50" y="110" font-family="Arial" font-size="12" fill="black">Training Session Time: 0 hrs : 37 min : 30 sec</text>
<text x="50" y="130" font-family="Arial" font-size="12" fill="black">Inference Time: 2 hrs : 13 min : 45 sec        [Device: CPU]</text>
<text x="50" y="150" font-family="Arial" font-size="12" fill="black">Update Time: 0 hrs : 26 min : 52 sec        [Per iteration: 0 hrs : 0 min : 39.796 sec]        [Device: GPU]</text>
<text x="50" y="170" font-family="Arial" font-size="12" fill="black">Episode Count: 344</text>
<text x="50" y="190" font-family="Arial" font-size="12" fill="black">Inference Steps: 399360</text>
<text x="50" y="210" font-family="Arial" font-size="12" fill="black">Iterations: 39</text>
<text x="50" y="230" font-family="Arial" font-size="12" fill="black">Parallel Agents: 1</text>
<text x="50" y="250" font-family="Arial" font-size="12" fill="black">Timescale: 14.41</text>
<text x="50" y="270" font-family="Arial" font-size="12" fill="black">Trainer: PPO</text>
<text x="10" y="320" font-family="Arial" font-size="16" fill="black">[Hyperparameters]</text>
<text x="50" y="340" font-family="Arial" font-size="12" fill="black">Buffer Size: 10240        [Batch Size: 512       (x20)]</text>
<text x="50" y="360" font-family="Arial" font-size="12" fill="black">Num Epoch: 8</text>
<text x="50" y="380" font-family="Arial" font-size="12" fill="black">Time Horizon: 4096</text>
<text x="50" y="400" font-family="Arial" font-size="12" fill="black">Gradient Cliping by Norm: 0.5</text>
<text x="50" y="420" font-family="Arial" font-size="12" fill="black">Learning Rate Schedule: False    </text>
<text x="10" y="470" font-family="Arial" font-size="16" fill="black">[Behaviour]</text>
<text x="50" y="490" font-family="Arial" font-size="12" fill="black">Space Size: 204</text>
<text x="50" y="510" font-family="Arial" font-size="12" fill="black">Continuous Actions: 0 [Standard Deviation: Trainable]     </text>
<text x="50" y="530" font-family="Arial" font-size="12" fill="black">Discrete Actions: 5</text>
<text x="50" y="550" font-family="Arial" font-size="12" fill="black">TargetFPS: 50 (physics update rate)</text>
<text x="50" y="570" font-family="Arial" font-size="12" fill="black">Observations Normalization: False</text>
<text x="10" y="620" font-family="Arial" font-size="16" fill="black">[Decision Requester]</text>
<text x="50" y="640" font-family="Arial" font-size="12" fill="black">Max Step: 6000</text>
<text x="50" y="660" font-family="Arial" font-size="12" fill="black">Decision Period: 1</text>
<text x="10" y="710" font-family="Arial" font-size="16" fill="black">[Graphs]</text>
<text x="50" y="730" font-family="Arial" font-size="12" fill="black">Episode Reward (344)</text>
<text x="50" y="745" font-family="Arial" font-size="10" fill="black">5</text>
<text x="50" y="960" font-family="Arial" font-size="10" fill="black">-3</text>
<path d="M50,800 L50.78125,825 L51.5625,800 L52.34375,825 L53.125,825 L53.90625,850 L54.6875,950 L55.46875,850 L56.25,850 L57.03125,850 L57.8125,875 L58.59375,850 L59.375,850 L60.15625,850 L60.9375,850 L61.71875,850 L62.5,850 L63.28125,825 L64.0625,850 L64.84375,850 L65.625,875 L66.40625,850 L67.1875,850 L67.96875,850 L68.75,825 L69.53125,850 L70.3125,850 L71.09375,850 L71.875,850 L72.65625,850 L73.4375,850 L74.21875,850 L75,850 L75.78125,875 L76.5625,850 L77.34375,850 L78.125,875 L78.90625,850 L79.6875,850 L80.46875,850 L81.25,850 L82.03125,850 L82.8125,850 L83.59375,875 L84.375,875 L85.15625,875 L85.9375,850 L86.71875,850 L87.5,825 L88.28125,875 L89.0625,850 L89.84375,850 L90.625,875 L91.40625,850 L92.1875,800 L92.96875,850 L93.75,850 L94.53125,800 L95.3125,850 L96.09375,800 L96.875,750 L97.65625,850 L98.4375,800 L99.21875,850 L100,750 L100.7813,850 L101.5625,800 L102.3438,800 L103.125,875 L103.9063,825 L104.6875,750 L105.4688,750 L106.25,825 L107.0313,775 L107.8125,800 L108.5938,825 L109.375,775 L110.1563,825 L110.9375,775 L111.7188,775 L112.5,750 L113.2813,750 L114.0625,850 L114.8438,800 L115.625,775 L116.4063,800 L117.1875,825 L117.9688,850 L118.75,850 L119.5313,825 L120.3125,950 L121.0938,800 L121.875,800 L122.6563,800 L123.4375,950 L124.2188,775 L125,950 L125.7813,750 L126.5625,800 L127.3438,750 L128.125,825 L128.9063,775 L129.6875,800 L130.4688,775 L131.25,775 L132.0313,825 L132.8125,825 L133.5938,800 L134.375,825 L135.1563,775 L135.9375,750 L136.7188,750 L137.5,800 L138.2813,775 L139.0625,800 L139.8438,750 L140.625,750 L141.4063,750 L142.1875,750 L142.9688,775 L143.75,750 L144.5313,750 L145.3125,750 L146.0938,750 L146.875,750 L147.6563,750 L148.4375,750 L149.2188,750 L150,750 L150.7813,750 L151.5625,750 L152.3438,750 L153.125,750 L153.9063,750 L154.6875,750 L155.4688,750 L156.25,750 L157.0313,750 L157.8125,750 L158.5938,775 L159.375,750 L160.1563,750 L160.9375,750 L161.7188,750 L162.5,750 L163.2813,750 L164.0625,775 L164.8438,750 L165.625,750 L166.4063,750 L167.1875,750 L167.9688,750 L168.75,750 L169.5313,750 L170.3125,750 L171.0938,750 L171.875,750 L172.6563,750 L173.4375,750 L174.2188,750 L175,750 L175.7813,750 L176.5625,750 L177.3438,750 L178.125,750 L178.9063,775 L179.6875,750 L180.4688,750 L181.25,750 L182.0313,750 L182.8125,750 L183.5938,775 L184.375,750 L185.1563,750 L185.9375,775 L186.7188,750 L187.5,750 L188.2813,750 L189.0625,775 L189.8438,750 L190.625,750 L191.4063,750 L192.1875,750 L192.9688,750 L193.75,775 L194.5313,800 L195.3125,800 L196.0938,750 L196.875,775 L197.6563,775 L198.4375,750 L199.2188,750 L200,750 L200.7813,750 L201.5625,775 L202.3438,775 L203.125,775 L203.9063,750 L204.6875,800 L205.4688,750 L206.25,775 L207.0313,750 L207.8125,775 L208.5938,800 L209.375,750 L210.1563,775 L210.9375,750 L211.7188,775 L212.5,800 L213.2813,775 L214.0625,800 L214.8438,800 L215.625,800 L216.4063,800 L217.1875,800 L217.9688,800 L218.75,800 L219.5313,800 L220.3125,825 L221.0938,825 L221.875,800 L222.6563,800 L223.4375,800 L224.2188,800 L225,800 L225.7813,825 L226.5625,850 L227.3438,825 L228.125,850 L228.9063,850 L229.6875,825 L230.4688,800 L231.25,825 L232.0313,850 L232.8125,825 L233.5938,825 L234.375,825 L235.1563,850 L235.9375,825 L236.7188,825 L237.5,850 L238.2813,825 L239.0625,850 L239.8438,800 L240.625,800 L241.4063,850 L242.1875,825 L242.9688,850 L243.75,825 L244.5313,850 L245.3125,850 L246.0938,800 L246.875,825 L247.6563,825 L248.4375,800 L249.2188,850 L250,850 L250.7813,825 L251.5625,850 L252.3438,850 L253.125,825 L253.9063,825 L254.6875,800 L255.4688,850 L256.25,800 L257.0313,800 L257.8125,800 L258.5938,800 L259.375,850 L260.1563,800 L260.9375,850 L261.7188,800 L262.5,850 L263.2813,800 L264.0625,850 L264.8438,850 L265.625,800 L266.4063,800 L267.1875,825 L267.9688,825 L268.75,825 L269.5313,950 L270.3125,800 L271.0938,825 L271.875,825 L272.6563,850 L273.4375,825 L274.2188,825 L275,800 L275.7813,775 L276.5625,800 L277.3438,800 L278.125,800 L278.9063,800 L279.6875,775 L280.4688,800 L281.25,800 L282.0313,800 L282.8125,775 L283.5938,800 L284.375,775 L285.1563,775 L285.9375,775 L286.7188,775 L287.5,775 L288.2813,825 L289.0625,825 L289.8438,825 L290.625,825 L291.4063,825 L292.1875,825 L292.9688,800 L293.75,825 L294.5313,800 L295.3125,800 L296.0938,800 L296.875,800 L297.6563,775 L298.4375,800 L299.2188,800 L300,825 L300.7813,800 L301.5625,775 L302.3438,800 L303.125,775 L303.9063,800 L304.6875,750 L305.4688,775 L306.25,775 L307.0313,775 L307.8125,800 L308.5938,750 L309.375,750 L310.1563,750 L310.9375,750 L311.7188,750 L312.5,750 L313.2813,750 L314.0625,775 L314.8438,750 L315.625,750 L316.4063,750 L317.1875,750 L317.9688,750 " stroke="blue" fill="none" />
<text x="50" y="1000" font-family="Arial" font-size="12" fill="black">Episode Length (344)</text>
<text x="50" y="1015" font-family="Arial" font-size="10" fill="black">3650</text>
<text x="50" y="1230" font-family="Arial" font-size="10" fill="black">76</text>
<path d="M50,1020 L50.78125,1169.021 L51.5625,1044.958 L52.34375,1114.908 L53.125,1078.59 L53.90625,1189.222 L54.6875,1207.185 L55.46875,1172.938 L56.25,1177.359 L57.03125,1162.417 L57.8125,1150.722 L58.59375,1194.259 L59.375,1171.763 L60.15625,1170.476 L60.9375,1154.247 L61.71875,1152.625 L62.5,1179.709 L63.28125,1149.715 L64.0625,1181.444 L64.84375,1179.149 L65.625,1169.412 L66.40625,1090.285 L67.1875,1175.568 L67.96875,1073.386 L68.75,1162.697 L69.53125,1121.063 L70.3125,1142.384 L71.09375,1167.566 L71.875,1152.065 L72.65625,1139.698 L73.4375,1135.221 L74.21875,1139.25 L75,1159.731 L75.78125,1166.391 L76.5625,1163.537 L77.34375,1131.584 L78.125,1181.668 L78.90625,1153.072 L79.6875,1152.457 L80.46875,1141.041 L81.25,1169.189 L82.03125,1136.228 L82.8125,1168.965 L83.59375,1136.005 L84.375,1176.967 L85.15625,1192.468 L85.9375,1156.598 L86.71875,1165.104 L87.5,1126.995 L88.28125,1127.89 L89.0625,1121.231 L89.84375,1153.184 L90.625,1157.269 L91.40625,1120.951 L92.1875,1074.896 L92.96875,1131.584 L93.75,1172.378 L94.53125,1156.598 L95.3125,1167.79 L96.09375,1110.879 L96.875,1124.253 L97.65625,1155.534 L98.4375,1152.177 L99.21875,1173.05 L100,1102.82 L100.7813,1169.077 L101.5625,1173.553 L102.3438,1157.605 L103.125,1161.69 L103.9063,1182.955 L104.6875,1095.154 L105.4688,1145.07 L106.25,1173.162 L107.0313,1153.744 L107.8125,1166.726 L108.5938,1172.042 L109.375,1165.383 L110.1563,1169.133 L110.9375,1174.729 L111.7188,1160.011 L112.5,1158.332 L113.2813,1151.841 L114.0625,1181.22 L114.8438,1158.612 L115.625,1150.61 L116.4063,1160.459 L117.1875,1157.941 L117.9688,1164.656 L118.75,1165.607 L119.5313,1169.916 L120.3125,1220 L121.0938,1171.203 L121.875,1168.181 L122.6563,1155.59 L123.4375,1195.378 L124.2188,1161.41 L125,1208.976 L125.7813,1122.518 L126.5625,1176.575 L127.3438,1151.897 L128.125,1179.094 L128.9063,1152.848 L129.6875,1171.203 L130.4688,1174.617 L131.25,1159.563 L132.0313,1180.996 L132.8125,1177.806 L133.5938,1171.819 L134.375,1181.108 L135.1563,1161.858 L135.9375,1149.379 L136.7188,1146.693 L137.5,1166.726 L138.2813,1175.288 L139.0625,1182.003 L139.8438,1153.184 L140.625,1168.853 L141.4063,1183.29 L142.1875,1128.226 L142.9688,1173.609 L143.75,1164.936 L144.5313,1181.388 L145.3125,1158.444 L146.0938,1176.016 L146.875,1164.6 L147.6563,1168.405 L148.4375,1168.461 L149.2188,1169.636 L150,1152.401 L150.7813,1169.133 L151.5625,1174.057 L152.3438,1176.184 L153.125,1191.293 L153.9063,1146.917 L154.6875,1169.245 L155.4688,1141.936 L156.25,1175.904 L157.0313,1175.68 L157.8125,1164.432 L158.5938,1173.833 L159.375,1182.339 L160.1563,1174.057 L160.9375,1143.503 L161.7188,1171.147 L162.5,1146.917 L163.2813,1187.823 L164.0625,1134.941 L164.8438,1162.753 L165.625,1165.383 L166.4063,1177.247 L167.1875,1187.04 L167.9688,1169.077 L168.75,1184.857 L169.5313,1153.688 L170.3125,1183.402 L171.0938,1173.721 L171.875,1160.851 L172.6563,1163.425 L173.4375,1166.279 L174.2188,1166.614 L175,1178.086 L175.7813,1166.111 L176.5625,1149.994 L177.3438,1166.558 L178.125,1169.189 L178.9063,1162.473 L179.6875,1159.787 L180.4688,1156.262 L181.25,1166.67 L182.0313,1134.717 L182.8125,1166.782 L183.5938,1184.578 L184.375,1167.454 L185.1563,1167.454 L185.9375,1186.144 L186.7188,1179.485 L187.5,1147.308 L188.2813,1190.453 L189.0625,1167.901 L189.8438,1175.232 L190.625,1178.758 L191.4063,1154.975 L192.1875,1156.262 L192.9688,1168.405 L193.75,1176.687 L194.5313,1176.631 L195.3125,1187.32 L196.0938,1171.651 L196.875,1160.963 L197.6563,1166.894 L198.4375,1162.194 L199.2188,1149.435 L200,1141.992 L200.7813,1163.201 L201.5625,1183.178 L202.3438,1171.035 L203.125,1173.162 L203.9063,1173.274 L204.6875,1176.184 L205.4688,1161.746 L206.25,1161.41 L207.0313,1150.106 L207.8125,1182.563 L208.5938,1190.621 L209.375,1165.551 L210.1563,1178.59 L210.9375,1157.045 L211.7188,1162.921 L212.5,1155.255 L213.2813,1133.374 L214.0625,1173.274 L214.8438,1150.666 L215.625,1169.133 L216.4063,1169.804 L217.1875,1172.938 L217.9688,1163.369 L218.75,1109.592 L219.5313,1145.741 L220.3125,1150.05 L221.0938,1171.539 L221.875,1161.858 L222.6563,1160.795 L223.4375,1168.405 L224.2188,1169.748 L225,1141.768 L225.7813,1151.225 L226.5625,1164.656 L227.3438,1165.271 L228.125,1156.094 L228.9063,1174.952 L229.6875,1186.648 L230.4688,1130.912 L231.25,1156.598 L232.0313,1174.337 L232.8125,1149.715 L233.5938,1160.739 L234.375,1156.43 L235.1563,1171.539 L235.9375,1168.069 L236.7188,1171.315 L237.5,1165.887 L238.2813,1153.352 L239.0625,1154.415 L239.8438,1157.997 L240.625,1148.931 L241.4063,1158.388 L242.1875,1149.994 L242.9688,1158.5 L243.75,1176.463 L244.5313,1182.227 L245.3125,1189.95 L246.0938,1148.148 L246.875,1157.885 L247.6563,1168.965 L248.4375,1151.561 L249.2188,1168.237 L250,1182.675 L250.7813,1100.358 L251.5625,1163.816 L252.3438,1175.12 L253.125,1175.96 L253.9063,1168.181 L254.6875,1022.126 L255.4688,1183.458 L256.25,1075.568 L257.0313,1170.308 L257.8125,1156.374 L258.5938,1158.724 L259.375,1172.49 L260.1563,1117.538 L260.9375,1175.904 L261.7188,1150.442 L262.5,1165.383 L263.2813,1165.215 L264.0625,1185.585 L264.8438,1157.325 L265.625,1159.731 L266.4063,1152.177 L267.1875,1152.233 L267.9688,1170.532 L268.75,1168.517 L269.5313,1211.998 L270.3125,1161.354 L271.0938,1172.099 L271.875,1160.683 L272.6563,1186.032 L273.4375,1176.351 L274.2188,1116.978 L275,1162.753 L275.7813,1179.709 L276.5625,1172.21 L277.3438,1166.055 L278.125,1172.994 L278.9063,1168.517 L279.6875,1155.702 L280.4688,1122.574 L281.25,1175.736 L282.0313,1170.532 L282.8125,1171.035 L283.5938,1168.909 L284.375,1154.807 L285.1563,1151.673 L285.9375,1143.335 L286.7188,1146.413 L287.5,1133.654 L288.2813,1168.741 L289.0625,1157.269 L289.8438,1160.235 L290.625,1177.862 L291.4063,1179.653 L292.1875,1169.524 L292.9688,1156.43 L293.75,1167.118 L294.5313,1175.68 L295.3125,1170.532 L296.0938,1079.765 L296.875,1167.174 L297.6563,1143.111 L298.4375,1178.534 L299.2188,1145.07 L300,1187.935 L300.7813,1166.167 L301.5625,1151.393 L302.3438,1173.162 L303.125,1140.146 L303.9063,1178.87 L304.6875,1103.548 L305.4688,1142.496 L306.25,1094.259 L307.0313,1158.724 L307.8125,1168.853 L308.5938,1127.331 L309.375,1085.081 L310.1563,1160.347 L310.9375,1123.246 L311.7188,1054.471 L312.5,1155.031 L313.2813,1171.651 L314.0625,1171.595 L314.8438,1164.432 L315.625,1169.412 L316.4063,1169.748 L317.1875,1140.649 L317.9688,1144.566 " stroke="blue" fill="none" />
<text x="50" y="1270" font-family="Arial" font-size="12" fill="black">Policy Loss</text>
<text x="50" y="1285" font-family="Arial" font-size="10" fill="black">0.2079911</text>
<text x="50" y="1500" font-family="Arial" font-size="10" fill="black">0.09465431</text>
<path d="M50,1381.878 L62.5,1290 L75,1351.009 L87.5,1386.095 L100,1425.595 L112.5,1453.106 L125,1476.882 L137.5,1490 L150,1472.314 L162.5,1465.538 L175,1453.626 L187.5,1469.114 L200,1435.97 L212.5,1439.972 L225,1391.445 L237.5,1403.578 L250,1413.266 L262.5,1418.304 L275,1439.265 L287.5,1406.016 L300,1414.334 L312.5,1393.057 L325,1391.547 L337.5,1375.454 L350,1358.347 L362.5,1302.604 L375,1325.41 L387.5,1385.988 L400,1387.785 L412.5,1444.563 L425,1435.605 L437.5,1434.059 L450,1449.238 L462.5,1455.043 L475,1474.098 L487.5,1477.066 L500,1461.565 L512.5,1468.754 L525,1459.909 " stroke="blue" fill="none" />
<text x="50" y="1540" font-family="Arial" font-size="12" fill="black">Value Loss</text>
<text x="50" y="1555" font-family="Arial" font-size="10" fill="black">0.04014444</text>
<text x="50" y="1770" font-family="Arial" font-size="10" fill="black">0.01011813</text>
<path d="M50,1697.84 L62.5,1638.636 L75,1679.454 L87.5,1710.611 L100,1743.041 L112.5,1744.989 L125,1760 L137.5,1703.514 L150,1661.927 L162.5,1647.974 L175,1607.344 L187.5,1625.523 L200,1606.305 L212.5,1606.804 L225,1560 L237.5,1617.423 L250,1637.287 L262.5,1635.468 L275,1607.863 L287.5,1566.725 L300,1588.306 L312.5,1589.726 L325,1579.322 L337.5,1617.006 L350,1610.155 L362.5,1604.072 L375,1628.628 L387.5,1656.575 L400,1651.41 L412.5,1683.762 L425,1685.157 L437.5,1613.637 L450,1620.7 L462.5,1621.081 L475,1678.487 L487.5,1658.173 L500,1652.765 L512.5,1628.158 L525,1629.902 " stroke="blue" fill="none" />
<text x="50" y="1810" font-family="Arial" font-size="12" fill="black">Learning Rate</text>
<text x="50" y="1825" font-family="Arial" font-size="10" fill="black">0.0003</text>
<text x="50" y="2040" font-family="Arial" font-size="10" fill="black">0.0003</text>
<path d="M50,2030 L62.5,2030 L75,2030 L87.5,2030 L100,2030 L112.5,2030 L125,2030 L137.5,2030 L150,2030 L162.5,2030 L175,2030 L187.5,2030 L200,2030 L212.5,2030 L225,2030 L237.5,2030 L250,2030 L262.5,2030 L275,2030 L287.5,2030 L300,2030 L312.5,2030 L325,2030 L337.5,2030 L350,2030 L362.5,2030 L375,2030 L387.5,2030 L400,2030 L412.5,2030 L425,2030 L437.5,2030 L450,2030 L462.5,2030 L475,2030 L487.5,2030 L500,2030 L512.5,2030 L525,2030 " stroke="blue" fill="none" />
<text x="50" y="2080" font-family="Arial" font-size="12" fill="black">Entropy</text>
<text x="50" y="2095" font-family="Arial" font-size="10" fill="black">0.3228025</text>
<text x="50" y="2310" font-family="Arial" font-size="10" fill="black">0.3152586</text>
<path d="M50,2216.395 L62.5,2144.989 L75,2143.286 L87.5,2128.678 L100,2129.321 L112.5,2118.028 L125,2100 L137.5,2100.516 L150,2124.245 L162.5,2151.839 L175,2158.054 L187.5,2167.977 L200,2214.966 L212.5,2209.871 L225,2235.989 L237.5,2300 L250,2247.307 L262.5,2238.789 L275,2265.122 L287.5,2298.426 L300,2282.341 L312.5,2226.385 L325,2186.26 L337.5,2184.37 L350,2177.894 L362.5,2209.625 L375,2128.716 L387.5,2139.273 L400,2131.162 L412.5,2120.948 L425,2116.114 L437.5,2158.559 L450,2141.213 L462.5,2174.236 L475,2134.699 L487.5,2144.638 L500,2163.938 L512.5,2173.701 L525,2192.325 " stroke="blue" fill="none" />
<text x="750" y="730" font-family="Arial" font-size="12" fill="black">Simplified</text>
<text x="750" y="745" font-family="Arial" font-size="10" fill="black">5</text>
<text x="750" y="960" font-family="Arial" font-size="10" fill="black">0.8947368</text>
<path d="M764.0625,937.1795 L778.9063,950 L793.75,950 L808.5938,860.2564 L823.4375,880.7692 L838.2813,837.1795 L853.125,757.6923 L867.9688,755.1282 L882.8125,752.5641 L897.6563,775.641 L912.5,783.3333 L927.3438,860.2564 L942.1875,906.4103 L957.0313,903.8461 L971.875,901.282 L986.7188,839.7436 L1001.563,860.2564 L1016.406,778.2051 L1017.969,750 " stroke="blue" fill="none" />
<text x="750" y="1000" font-family="Arial" font-size="12" fill="black">Simplified</text>
<text x="750" y="1015" font-family="Arial" font-size="10" fill="black">1459</text>
<text x="750" y="1230" font-family="Arial" font-size="10" fill="black">937</text>
<path d="M764.0625,1067.57 L778.9063,1053.938 L793.75,1045.892 L808.5938,1086.425 L823.4375,1196.306 L838.2813,1186.062 L853.125,1198.221 L867.9688,1178.782 L882.8125,1171.321 L897.6563,1220 L912.5,1182.129 L927.3438,1122.218 L942.1875,1141.355 L957.0313,1095.66 L971.875,1165.856 L986.7188,1147.122 L1001.563,1137.584 L1016.406,1021.028 L1017.969,1020 " stroke="blue" fill="none" />
</svg>
