<svg width="1000" height="2500" xmlns="http://www.w3.org/2000/svg">
<text x="10" y="20" font-family="Arial" font-size="26" fill="black"> [DriveLittleCar] Training Session</text>
<text x="10" y="50" font-family="Arial" font-size="16" fill="black">[Statistics]</text>
<text x="50" y="70" font-family="Arial" font-size="12" fill="black">Started at: 4:00:47 PM, Saturday, September 16, 2023</text>
<text x="50" y="90" font-family="Arial" font-size="12" fill="black">Finished at: 4:04:01 PM, Saturday, September 16, 2023</text>
<text x="50" y="110" font-family="Arial" font-size="12" fill="black">Training Session Time: 0 hrs : 2 min : 56 sec</text>
<text x="50" y="130" font-family="Arial" font-size="12" fill="black">Inference Time: 1 hrs : 11 min : 25 sec       [Per agent: 0 hrs : 1 min : 30 sec]        [Device: CPU]</text>
<text x="50" y="150" font-family="Arial" font-size="12" fill="black">Policy Update Time: 0 hrs : 1 min : 2 sec        [Per iteration: 0 hrs : 0 min : 19 sec]        [Device: GPU]</text>
<text x="50" y="170" font-family="Arial" font-size="12" fill="black">Inference Time / Training Session Time: 24.022</text>
<text x="50" y="190" font-family="Arial" font-size="12" fill="black">Policy Update Time / Training Session Time: 0.350</text>
<text x="50" y="210" font-family="Arial" font-size="12" fill="black">Inference Steps: 1296000    [Per agent: 27000]</text>
<text x="50" y="230" font-family="Arial" font-size="12" fill="black">Iterations: 3</text>
<text x="50" y="250" font-family="Arial" font-size="12" fill="black">Parallel Agents: 48</text>
<text x="10" y="300" font-family="Arial" font-size="16" fill="black">[Hyperparameters]</text>
<text x="50" y="320" font-family="Arial" font-size="12" fill="black">Buffer Size: 9000        [Batch Size: 500       (x18)]</text>
<text x="50" y="340" font-family="Arial" font-size="12" fill="black">Num Epoch: 6</text>
<text x="50" y="360" font-family="Arial" font-size="12" fill="black">Time Horizon: 64</text>
<text x="50" y="380" font-family="Arial" font-size="12" fill="black">Gradient Cliping Normalization: 0.5</text>
<text x="50" y="400" font-family="Arial" font-size="12" fill="black">Advantages Normalization: True</text>
<text x="50" y="420" font-family="Arial" font-size="12" fill="black">Training Data Shuffle: True</text>
<text x="50" y="440" font-family="Arial" font-size="12" fill="black">Learning Rate Schedule: False    </text>
<text x="10" y="490" font-family="Arial" font-size="16" fill="black">[Behaviour]</text>
<text x="50" y="510" font-family="Arial" font-size="12" fill="black">Space Size: 13</text>
<text x="50" y="530" font-family="Arial" font-size="12" fill="black">Continuous Dim: 3</text>
<text x="50" y="550" font-family="Arial" font-size="12" fill="black">Discrete Branches: 0</text>
<text x="50" y="570" font-family="Arial" font-size="12" fill="black">TargetFPS: 50 (physics update rate)</text>
<text x="50" y="590" font-family="Arial" font-size="12" fill="black">Observations Normalization: False</text>
<text x="50" y="610" font-family="Arial" font-size="12" fill="black">Standard Deviation: Fixed    [Value: 1]</text>
<text x="10" y="660" font-family="Arial" font-size="16" fill="black">[Decision Requester]</text>
<text x="50" y="680" font-family="Arial" font-size="12" fill="black">Max Step: 300</text>
<text x="50" y="700" font-family="Arial" font-size="12" fill="black">Decision Period: 5      [Actions Between Decisions: False]</text>
<text x="10" y="750" font-family="Arial" font-size="16" fill="black">[Graphs]</text>
<text x="50" y="770" font-family="Arial" font-size="12" fill="black">Episode Reward</text>
<text x="50" y="785" font-family="Arial" font-size="10" fill="black">9.647505</text>
<text x="50" y="1000" font-family="Arial" font-size="10" fill="black">-1.015</text>
<path d="M50,971.2427 L53.125,934.8535 L56.25,934.9004 L59.375,935.4162 L62.5,898.6519 L65.625,881.5359 L68.75,881.5359 L71.875,881.5828 L75,863.3413 L78.125,863.5289 L81.25,863.5289 L84.375,864.0916 L87.5,935.5569 L90.625,972.837 L93.75,790.5627 L96.875,791.1724 L100,791.1722 L103.125,791.313 L106.25,898.7926 L109.375,810.1173 L112.5,791.5007 L115.625,791.5004 L118.75,791.5475 L121.875,791.5475 L125,791.5944 L128.125,791.6414 L131.25,791.688 L134.375,791.8288 L137.5,792.0634 L140.625,792.11 L143.75,792.2508 L146.875,792.2507 L150,792.251 L153.125,792.2507 L156.25,792.2507 L159.375,792.2978 L162.5,792.298 L165.625,792.3445 L168.75,953.2357 L171.875,811.1489 L175,811.1956 L178.125,971.8992 L181.25,792.4382 L184.375,952.8605 L187.5,792.579 L190.625,953.2825 L193.75,792.6727 L196.875,792.7198 L200,792.7198 L203.125,953.4232 L206.25,791.3599 L209.375,792.9072 L212.5,793.0009 L215.625,793.3295 L218.75,793.1416 L221.875,793.47 L225,791.7347 L228.125,793.8919 L231.25,812.8839 L234.375,794.4078 L237.5,790.3752 L240.625,972.0867 L243.75,791.7819 L246.875,937.1512 L250,792.1101 L253.125,881.2076 L256.25,792.0632 L259.375,791.313 L262.5,790.2344 L265.625,883.6461 L268.75,883.0365 L271.875,793.5638 L275,808.9918 L278.125,792.8604 L281.25,791.1254 L284.375,792.8136 L287.5,809.6484 L290.625,790.8441 L293.75,791.9695 L296.875,791.1254 L300,792.2977 L303.125,792.157 L306.25,790.8441 L309.375,791.7349 L312.5,882.0048 L315.625,810.5863 L318.75,792.6259 L321.875,810.5391 L325,792.7665 L328.125,971.6178 L331.25,898.5581 L334.375,953.7046 L337.5,935.2755 L340.625,953.2357 L343.75,953.3295 L346.875,793.376 L350,792.4852 L353.125,971.4302 L356.25,811.1487 L359.375,792.3444 L362.5,792.6258 L365.625,792.5792 L368.75,792.5789 L371.875,809.1326 L375,811.6176 L378.125,792.8603 L381.25,791.5943 L384.375,792.9072 L387.5,792.6725 L390.625,792.2977 L393.75,953.3763 L396.875,936.5417 L400,793.4698 L403.125,790.3282 L406.25,792.9071 L409.375,791.5473 L412.5,812.4616 L415.625,793.751 L418.75,794.1262 L421.875,792.7665 L425,791.5474 L428.125,791.2191 L431.25,881.5828 L434.375,794.7358 L437.5,790 L440.625,900.9028 L443.75,936.7761 L446.875,882.6144 L450,791.2663 L453.125,810.2111 L456.25,794.0327 L459.375,791.5942 L462.5,882.38 L465.625,809.7421 L468.75,917.2216 L471.875,790.0469 L475,882.38 L478.125,864.373 L481.25,791.1722 L484.375,791.3129 L487.5,792.6727 L490.625,791.5006 L493.75,792.0162 L496.875,791.688 L500,811.7115 L503.125,953.4701 L506.25,791.7818 L509.375,794.5953 L512.5,811.7114 L515.625,792.4382 L518.75,791.6411 L521.875,971.4772 L525,935.1348 L528.125,990 L531.25,792.6259 L534.375,792.2979 L537.5,899.1208 L540.625,793.7513 L543.75,791.9225 L546.875,791.6411 " stroke="blue" fill="none" />
<text x="50" y="1040" font-family="Arial" font-size="12" fill="black">Episode Length</text>
<text x="50" y="1055" font-family="Arial" font-size="10" fill="black">242</text>
<text x="50" y="1270" font-family="Arial" font-size="10" fill="black">6</text>
<path d="M50,1260 L53.125,1239.661 L56.25,1238.814 L59.375,1229.492 L62.5,1215.932 L65.625,1186.271 L68.75,1186.271 L71.875,1185.424 L75,1176.102 L78.125,1172.712 L81.25,1172.712 L84.375,1162.542 L87.5,1226.949 L90.625,1231.186 L93.75,1135.424 L96.875,1124.407 L100,1124.407 L103.125,1121.864 L106.25,1213.39 L109.375,1121.017 L112.5,1118.475 L115.625,1118.475 L118.75,1117.627 L121.875,1117.627 L125,1116.78 L128.125,1115.932 L131.25,1115.085 L134.375,1112.542 L137.5,1108.305 L140.625,1107.458 L143.75,1104.915 L146.875,1104.915 L150,1104.915 L153.125,1104.915 L156.25,1104.915 L159.375,1104.068 L162.5,1104.068 L165.625,1103.22 L168.75,1246.441 L171.875,1102.373 L175,1101.525 L178.125,1248.136 L181.25,1101.525 L184.375,1253.22 L187.5,1098.983 L190.625,1245.593 L193.75,1097.288 L196.875,1096.441 L200,1096.441 L203.125,1243.051 L206.25,1121.017 L209.375,1093.051 L212.5,1091.356 L215.625,1085.424 L218.75,1088.814 L221.875,1082.881 L225,1114.237 L228.125,1075.254 L231.25,1071.017 L234.375,1065.932 L237.5,1138.814 L240.625,1244.746 L243.75,1113.39 L246.875,1198.136 L250,1107.458 L253.125,1192.203 L256.25,1108.305 L259.375,1121.864 L262.5,1141.356 L265.625,1148.136 L268.75,1159.153 L271.875,1081.186 L275,1141.356 L278.125,1093.898 L281.25,1125.254 L284.375,1094.746 L287.5,1129.492 L290.625,1130.339 L293.75,1110 L296.875,1125.254 L300,1104.068 L303.125,1106.61 L306.25,1130.339 L309.375,1114.237 L312.5,1177.797 L315.625,1112.542 L318.75,1098.136 L321.875,1113.39 L325,1095.593 L328.125,1253.22 L331.25,1217.627 L334.375,1237.966 L337.5,1232.034 L340.625,1246.441 L343.75,1244.746 L346.875,1084.576 L350,1100.678 L353.125,1256.61 L356.25,1102.373 L359.375,1103.22 L362.5,1098.136 L365.625,1098.983 L368.75,1098.983 L371.875,1138.814 L375,1093.898 L378.125,1093.898 L381.25,1116.78 L384.375,1093.051 L387.5,1097.288 L390.625,1104.068 L393.75,1243.898 L396.875,1209.153 L400,1082.881 L403.125,1139.661 L406.25,1093.051 L409.375,1117.627 L412.5,1078.644 L415.625,1077.797 L418.75,1071.017 L421.875,1095.593 L425,1117.627 L428.125,1123.559 L431.25,1185.424 L434.375,1060 L437.5,1145.593 L440.625,1175.254 L443.75,1204.915 L446.875,1166.78 L450,1122.712 L453.125,1119.322 L456.25,1072.712 L459.375,1116.78 L462.5,1171.017 L465.625,1127.797 L468.75,1219.322 L471.875,1144.746 L475,1171.017 L478.125,1157.458 L481.25,1124.407 L484.375,1121.864 L487.5,1097.288 L490.625,1118.475 L493.75,1109.153 L496.875,1115.085 L500,1092.203 L503.125,1242.203 L506.25,1113.39 L509.375,1062.542 L512.5,1092.203 L515.625,1101.525 L518.75,1115.932 L521.875,1255.763 L525,1234.576 L528.125,1260 L531.25,1098.136 L534.375,1104.068 L537.5,1207.458 L540.625,1077.797 L543.75,1110.847 L546.875,1115.932 " stroke="blue" fill="none" />
<text x="50" y="1310" font-family="Arial" font-size="12" fill="black">Policy Loss</text>
<text x="50" y="1325" font-family="Arial" font-size="10" fill="black">0.01020123</text>
<text x="50" y="1540" font-family="Arial" font-size="10" fill="black">0.0009303088</text>
<path d="M50,1385.965 L75,1524.841 L100,1525.46 L125,1527.665 L150,1526.268 L175,1524.979 L200,1523.271 L225,1520.716 L250,1360.845 L275,1520.062 L300,1522.428 L325,1521.502 L350,1514.588 L375,1513.815 L400,1330 L425,1519.963 L450,1529.237 L475,1526.421 L500,1523.841 L525,1530 " stroke="blue" fill="none" />
<text x="50" y="1580" font-family="Arial" font-size="12" fill="black">Value Loss</text>
<text x="50" y="1595" font-family="Arial" font-size="10" fill="black">0.0575229</text>
<text x="50" y="1810" font-family="Arial" font-size="10" fill="black">0.04768397</text>
<path d="M50,1632.491 L75,1672.908 L100,1697.564 L125,1713.575 L150,1721.343 L175,1727.008 L200,1731.572 L225,1732.473 L250,1708.472 L275,1754.678 L300,1776.857 L325,1787.376 L350,1793.944 L375,1800 L400,1600 L425,1613.43 L450,1633.639 L475,1644.272 L500,1652.622 L525,1659.898 " stroke="blue" fill="none" />
<text x="50" y="1850" font-family="Arial" font-size="12" fill="black">Learning Rate</text>
<text x="50" y="1865" font-family="Arial" font-size="10" fill="black">0.0003</text>
<text x="50" y="2080" font-family="Arial" font-size="10" fill="black">0.0003</text>
<path d="M50,2070 L75,2070 L100,2070 L125,2070 L150,2070 L175,2070 L200,2070 L225,2070 L250,2070 L275,2070 L300,2070 L325,2070 L350,2070 L375,2070 L400,2070 L425,2070 L450,2070 L475,2070 L500,2070 L525,2070 " stroke="blue" fill="none" />
<text x="50" y="2120" font-family="Arial" font-size="12" fill="black">Epsilon</text>
<text x="50" y="2135" font-family="Arial" font-size="10" fill="black">0.2</text>
<text x="50" y="2350" font-family="Arial" font-size="10" fill="black">0.2</text>
<path d="M50,2340 L75,2340 L100,2340 L125,2340 L150,2340 L175,2340 L200,2340 L225,2340 L250,2340 L275,2340 L300,2340 L325,2340 L350,2340 L375,2340 L400,2340 L425,2340 L450,2340 L475,2340 L500,2340 L525,2340 " stroke="blue" fill="none" />
</svg>
