<svg width="2000" height="2500" xmlns="http://www.w3.org/2000/svg">
<text x="10" y="20" font-family="Arial" font-size="26" fill="black"> [HumanWalk] Training Session</text>
<text x="10" y="50" font-family="Arial" font-size="16" fill="black">[Statistics]</text>
<text x="50" y="70" font-family="Arial" font-size="12" fill="black">Started at: 8:19:08 PM, Wednesday, October 18, 2023</text>
<text x="50" y="90" font-family="Arial" font-size="12" fill="black">Finished at: 8:22:12 PM, Wednesday, October 18, 2023</text>
<text x="50" y="110" font-family="Arial" font-size="12" fill="black">Training Session Time: 0 hrs : 3 min : 4 sec</text>
<text x="50" y="130" font-family="Arial" font-size="12" fill="black">Inference Time: 0 hrs : 5 min : 39 sec       [Per agent: 0 hrs : 5 min : 39 sec]        [Device: CPU]</text>
<text x="50" y="150" font-family="Arial" font-size="12" fill="black">Policy Update Time: 0 hrs : 1 min : 8 sec        [Per iteration: 0 hrs : 0 min : 33 sec]        [Device: GPU]</text>
<text x="50" y="170" font-family="Arial" font-size="12" fill="black">Inference Time / Training Session Time: 1.811</text>
<text x="50" y="190" font-family="Arial" font-size="12" fill="black">Policy Update Time / Training Session Time: 0.374</text>
<text x="50" y="210" font-family="Arial" font-size="12" fill="black">Episode Count: 302</text>
<text x="50" y="230" font-family="Arial" font-size="12" fill="black">Inference Steps: 8452    [Per agent: 8452]     [Per Episode (mean): 27]</text>
<text x="50" y="250" font-family="Arial" font-size="12" fill="black">Iterations: 2</text>
<text x="50" y="270" font-family="Arial" font-size="12" fill="black">Parallel Agents: 1</text>
<text x="50" y="290" font-family="Arial" font-size="12" fill="black">Timescale: 3</text>
<text x="10" y="340" font-family="Arial" font-size="16" fill="black">[Hyperparameters]</text>
<text x="50" y="360" font-family="Arial" font-size="12" fill="black">Buffer Size: 4096        [Batch Size: 256       (x16)]</text>
<text x="50" y="380" font-family="Arial" font-size="12" fill="black">Num Epoch: 8</text>
<text x="50" y="400" font-family="Arial" font-size="12" fill="black">Time Horizon: 72</text>
<text x="50" y="420" font-family="Arial" font-size="12" fill="black">Gradient Cliping Normalization: 0.5</text>
<text x="50" y="440" font-family="Arial" font-size="12" fill="black">Advantages Normalization: True</text>
<text x="50" y="460" font-family="Arial" font-size="12" fill="black">Training Data Shuffle: True</text>
<text x="50" y="480" font-family="Arial" font-size="12" fill="black">Learning Rate Schedule: False    </text>
<text x="10" y="530" font-family="Arial" font-size="16" fill="black">[Behaviour]</text>
<text x="50" y="550" font-family="Arial" font-size="12" fill="black">Space Size: 142</text>
<text x="50" y="570" font-family="Arial" font-size="12" fill="black">Continuous Actions: 29 [Standard Deviation: Fixed]     [Value: 1.5]</text>
<text x="50" y="590" font-family="Arial" font-size="12" fill="black">Discrete Actions: 0</text>
<text x="50" y="610" font-family="Arial" font-size="12" fill="black">TargetFPS: 50 (physics update rate)</text>
<text x="50" y="630" font-family="Arial" font-size="12" fill="black">Observations Normalization: False</text>
<text x="10" y="680" font-family="Arial" font-size="16" fill="black">[Decision Requester]</text>
<text x="50" y="700" font-family="Arial" font-size="12" fill="black">Max Step: 3000</text>
<text x="50" y="720" font-family="Arial" font-size="12" fill="black">Decision Period: 2      [Actions Between Decisions: True]</text>
<text x="10" y="770" font-family="Arial" font-size="16" fill="black">[Graphs]</text>
<text x="50" y="790" font-family="Arial" font-size="12" fill="black">Episode Reward (302)</text>
<text x="50" y="805" font-family="Arial" font-size="10" fill="black">1.517068</text>
<text x="50" y="1020" font-family="Arial" font-size="10" fill="black">0.1062752</text>
<path d="M50,847.9498 L51.5625,923.0223 L53.125,924.2756 L54.6875,923.1781 L56.25,898.2349 L57.8125,909.0497 L59.375,952.7706 L60.9375,883.4039 L62.5,913.8802 L64.0625,951.1992 L65.625,939.4084 L67.1875,948.1255 L68.75,984.2555 L70.3125,933.0504 L71.875,886.3041 L73.4375,930.311 L75,892.2498 L76.5625,998.9914 L78.125,945.2208 L79.6875,920.7686 L81.25,942.6691 L82.8125,998.762 L84.375,974.9824 L85.9375,934.3359 L87.5,954.0373 L89.0625,927.1641 L90.625,941.3604 L92.1875,882.1373 L93.75,846.4895 L95.3125,917.6189 L96.875,988.6891 L98.4375,890.5713 L100,903.4306 L101.5625,909.9373 L103.125,888.8575 L104.6875,927.3298 L106.25,924.6908 L107.8125,913.7133 L109.375,959.923 L110.9375,880.8969 L112.5,946.9062 L114.0625,900.3583 L115.625,992.475 L117.1875,1002.647 L118.75,946.2034 L120.3125,900.6474 L121.875,992.4502 L123.4375,908.2369 L125,898.8208 L126.5625,953.5476 L128.125,954.0294 L129.6875,889.1512 L131.25,1010 L132.8125,892.1151 L134.375,977.2862 L135.9375,896.8854 L137.5,916.3129 L139.0625,920.6187 L140.625,947.7634 L142.1875,934.1906 L143.75,956.7183 L145.3125,906.0128 L146.875,903.1723 L148.4375,906.5703 L150,930.925 L151.5625,947.185 L153.125,893.7566 L154.6875,912.3125 L156.25,967.0253 L157.8125,918.8474 L159.375,964.2664 L160.9375,975.4873 L162.5,926.0513 L164.0625,929.5313 L165.625,935.3276 L167.1875,989.4002 L168.75,940.6025 L170.3125,992.0881 L171.875,999.2052 L173.4375,938.2225 L175,928.4688 L176.5625,945.8887 L178.125,914.1237 L179.6875,935.0587 L181.25,978.7707 L182.8125,865.11 L184.375,886.3134 L185.9375,998.9915 L187.5,948.1366 L189.0625,979.4781 L190.625,999.0541 L192.1875,899.5158 L193.75,893.1511 L195.3125,876.3748 L196.875,944.0443 L198.4375,924.5247 L200,904.4447 L201.5625,991.4479 L203.125,857.1039 L204.6875,899.0674 L206.25,955.0776 L207.8125,949.9541 L209.375,958.9423 L210.9375,985.993 L212.5,879.4128 L214.0625,963.0408 L215.625,849.7994 L217.1875,941.3517 L218.75,887.3463 L220.3125,954.6499 L221.875,897.7355 L223.4375,946.8929 L225,908.3395 L226.5625,925.4928 L228.125,924.6234 L229.6875,932.4622 L231.25,887.324 L232.8125,903.4077 L234.375,904.6451 L235.9375,981.8862 L237.5,934.8481 L239.0625,933.4473 L240.625,918.8404 L242.1875,998.7206 L243.75,885.4164 L245.3125,933.9316 L246.875,944.7064 L248.4375,914.0577 L250,912.725 L251.5625,974.0663 L253.125,949.5149 L254.6875,978.172 L256.25,908.7413 L257.8125,984.6074 L259.375,970.6071 L260.9375,920.5728 L262.5,899.4911 L264.0625,931.2352 L265.625,938.6067 L267.1875,935.7745 L268.75,912.8322 L270.3125,896.9955 L271.875,860.6061 L273.4375,913.916 L275,907.8193 L276.5625,951.5204 L278.125,893.0046 L279.6875,908.9206 L281.25,890.6173 L282.8125,956.4498 L284.375,889.2529 L285.9375,869.6506 L287.5,908.592 L289.0625,985.7643 L290.625,969.8321 L292.1875,945.7762 L293.75,922.9293 L295.3125,952.2612 L296.875,867.3396 L298.4375,973.5359 L300,970.4298 L301.5625,967.0742 L303.125,973.9845 L304.6875,937.31 L306.25,910.0233 L307.8125,942.0574 L309.375,917.9497 L310.9375,971.0439 L312.5,901.0452 L314.0625,914.3912 L315.625,872.901 L317.1875,963.4933 L318.75,905.7869 L320.3125,922.136 L321.875,926.0292 L323.4375,937.8075 L325,939.9361 L326.5625,879.8572 L328.125,929.8124 L329.6875,958.2293 L331.25,870.4813 L332.8125,952.9387 L334.375,950.8232 L335.9375,969.1642 L337.5,988.3192 L339.0625,951.5646 L340.625,995.1412 L342.1875,918.58 L343.75,907.4976 L345.3125,864.7179 L346.875,910.7213 L348.4375,810 L350,977.2889 L351.5625,892.1117 L353.125,929.0417 L354.6875,925.0542 L356.25,895.5208 L357.8125,923.5881 L359.375,930.548 L360.9375,944.311 L362.5,851.9191 L364.0625,915.8585 L365.625,936.933 L367.1875,971.0475 L368.75,864.1722 L370.3125,927.876 L371.875,986.3681 L373.4375,944.1086 L375,916.5953 L376.5625,883.5511 L378.125,959.5118 L379.6875,906.0909 L381.25,998.9862 L382.8125,914.4371 L384.375,926.6932 L385.9375,907.0028 L387.5,949.3964 L389.0625,978.6443 L390.625,909.7363 L392.1875,936.8368 L393.75,909.1272 L395.3125,901.814 L396.875,991.6795 L398.4375,978.0451 L400,911.629 L401.5625,977.6758 L403.125,843.3691 L404.6875,902.153 L406.25,971.5717 L407.8125,895.0962 L409.375,951.3951 L410.9375,998.8126 L412.5,893.4198 L414.0625,956.3969 L415.625,943.6846 L417.1875,980.655 L418.75,902.6599 L420.3125,935.4252 L421.875,950.1799 L423.4375,947.7482 L425,922.2462 L426.5625,945.4332 L428.125,988.1025 L429.6875,939.8821 L431.25,912.1652 L432.8125,945.6692 L434.375,927.2165 L435.9375,911.1662 L437.5,940.6091 L439.0625,975.4149 L440.625,925.5934 L442.1875,950.6326 L443.75,907.4167 L445.3125,935.7223 L446.875,936.8453 L448.4375,907.4523 L450,899.7468 L451.5625,995.6401 L453.125,922.0952 L454.6875,937.2932 L456.25,914.3321 L457.8125,941.0167 L459.375,978.6603 L460.9375,919.2103 L462.5,942.0558 L464.0625,959.7064 L465.625,896.7997 L467.1875,962.2014 L468.75,984.8509 L470.3125,966.3412 L471.875,988.2496 L473.4375,876.2643 L475,902.9332 L476.5625,820.4161 L478.125,903.1794 L479.6875,972.8525 L481.25,937.0893 L482.8125,910.5931 L484.375,911.5512 L485.9375,972.6386 L487.5,938.8996 L489.0625,942.3497 L490.625,962.7376 L492.1875,957.1343 L493.75,943.3882 L495.3125,921.0671 L496.875,949.6788 L498.4375,915.9409 L500,899.6608 L501.5625,918.7506 L503.125,846.5329 L504.6875,960.3212 L506.25,982.4799 L507.8125,999.0051 L509.375,861.5883 L510.9375,890.3085 L512.5,921.1976 L514.0625,958.6344 L515.625,910.2729 L517.1875,929.8945 L518.75,988.1041 L520.3125,920.7304 " stroke="blue" fill="none" />
<text x="50" y="1060" font-family="Arial" font-size="12" fill="black">Episode Length (302)</text>
<text x="50" y="1075" font-family="Arial" font-size="10" fill="black">65</text>
<text x="50" y="1290" font-family="Arial" font-size="10" fill="black">4</text>
<path d="M50,1125.902 L51.5625,1198.033 L53.125,1201.312 L54.6875,1194.754 L56.25,1178.361 L57.8125,1181.639 L59.375,1220.984 L60.9375,1161.967 L62.5,1188.197 L64.0625,1220.984 L65.625,1207.869 L67.1875,1214.426 L68.75,1253.771 L70.3125,1198.033 L71.875,1161.967 L73.4375,1204.59 L75,1152.131 L76.5625,1270.164 L78.125,1211.148 L79.6875,1178.361 L81.25,1211.148 L82.8125,1270.164 L84.375,1247.213 L85.9375,1207.869 L87.5,1227.541 L89.0625,1198.033 L90.625,1204.59 L92.1875,1158.688 L93.75,1119.344 L95.3125,1188.197 L96.875,1260.328 L98.4375,1161.967 L100,1165.246 L101.5625,1175.082 L103.125,1161.967 L104.6875,1198.033 L106.25,1191.475 L107.8125,1191.475 L109.375,1234.098 L110.9375,1148.852 L112.5,1220.984 L114.0625,1165.246 L115.625,1263.607 L117.1875,1273.443 L118.75,1211.148 L120.3125,1178.361 L121.875,1263.607 L123.4375,1171.803 L125,1165.246 L126.5625,1227.541 L128.125,1214.426 L129.6875,1155.41 L131.25,1280 L132.8125,1161.967 L134.375,1250.492 L135.9375,1175.082 L137.5,1175.082 L139.0625,1191.475 L140.625,1220.984 L142.1875,1198.033 L143.75,1230.82 L145.3125,1184.918 L146.875,1175.082 L148.4375,1181.639 L150,1204.59 L151.5625,1207.869 L153.125,1168.525 L154.6875,1165.246 L156.25,1240.656 L157.8125,1191.475 L159.375,1230.82 L160.9375,1247.213 L162.5,1198.033 L164.0625,1191.475 L165.625,1191.475 L167.1875,1260.328 L168.75,1214.426 L170.3125,1263.607 L171.875,1270.164 L173.4375,1211.148 L175,1194.754 L176.5625,1224.262 L178.125,1184.918 L179.6875,1204.59 L181.25,1250.492 L182.8125,1129.18 L184.375,1155.41 L185.9375,1270.164 L187.5,1214.426 L189.0625,1247.213 L190.625,1270.164 L192.1875,1168.525 L193.75,1161.967 L195.3125,1152.131 L196.875,1220.984 L198.4375,1194.754 L200,1175.082 L201.5625,1263.607 L203.125,1129.18 L204.6875,1171.803 L206.25,1230.82 L207.8125,1214.426 L209.375,1234.098 L210.9375,1257.049 L212.5,1155.41 L214.0625,1237.377 L215.625,1132.459 L217.1875,1217.705 L218.75,1168.525 L220.3125,1224.262 L221.875,1168.525 L223.4375,1211.148 L225,1168.525 L226.5625,1191.475 L228.125,1198.033 L229.6875,1207.869 L231.25,1158.688 L232.8125,1178.361 L234.375,1178.361 L235.9375,1253.771 L237.5,1207.869 L239.0625,1198.033 L240.625,1188.197 L242.1875,1270.164 L243.75,1145.574 L245.3125,1201.312 L246.875,1214.426 L248.4375,1184.918 L250,1181.639 L251.5625,1243.934 L253.125,1224.262 L254.6875,1250.492 L256.25,1188.197 L257.8125,1257.049 L259.375,1243.934 L260.9375,1181.639 L262.5,1161.967 L264.0625,1198.033 L265.625,1201.312 L267.1875,1211.148 L268.75,1188.197 L270.3125,1175.082 L271.875,1142.295 L273.4375,1178.361 L275,1181.639 L276.5625,1207.869 L278.125,1158.688 L279.6875,1178.361 L281.25,1161.967 L282.8125,1230.82 L284.375,1158.688 L285.9375,1129.18 L287.5,1178.361 L289.0625,1257.049 L290.625,1240.656 L292.1875,1207.869 L293.75,1188.197 L295.3125,1224.262 L296.875,1139.016 L298.4375,1247.213 L300,1243.934 L301.5625,1240.656 L303.125,1247.213 L304.6875,1207.869 L306.25,1178.361 L307.8125,1217.705 L309.375,1198.033 L310.9375,1243.934 L312.5,1161.967 L314.0625,1184.918 L315.625,1119.344 L317.1875,1230.82 L318.75,1181.639 L320.3125,1191.475 L321.875,1201.312 L323.4375,1214.426 L325,1201.312 L326.5625,1139.016 L328.125,1194.754 L329.6875,1230.82 L331.25,1145.574 L332.8125,1227.541 L334.375,1214.426 L335.9375,1243.934 L337.5,1260.328 L339.0625,1224.262 L340.625,1266.885 L342.1875,1194.754 L343.75,1171.803 L345.3125,1135.738 L346.875,1178.361 L348.4375,1080 L350,1247.213 L351.5625,1158.688 L353.125,1194.754 L354.6875,1184.918 L356.25,1161.967 L357.8125,1191.475 L359.375,1201.312 L360.9375,1217.705 L362.5,1119.344 L364.0625,1181.639 L365.625,1201.312 L367.1875,1230.82 L368.75,1125.902 L370.3125,1201.312 L371.875,1257.049 L373.4375,1217.705 L375,1184.918 L376.5625,1161.967 L378.125,1234.098 L379.6875,1178.361 L381.25,1270.164 L382.8125,1181.639 L384.375,1191.475 L385.9375,1178.361 L387.5,1224.262 L389.0625,1250.492 L390.625,1178.361 L392.1875,1204.59 L393.75,1175.082 L395.3125,1184.918 L396.875,1263.607 L398.4375,1250.492 L400,1178.361 L401.5625,1250.492 L403.125,1112.787 L404.6875,1178.361 L406.25,1243.934 L407.8125,1158.688 L409.375,1217.705 L410.9375,1270.164 L412.5,1165.246 L414.0625,1227.541 L415.625,1217.705 L417.1875,1253.771 L418.75,1178.361 L420.3125,1201.312 L421.875,1227.541 L423.4375,1207.869 L425,1191.475 L426.5625,1220.984 L428.125,1260.328 L429.6875,1207.869 L431.25,1178.361 L432.8125,1211.148 L434.375,1194.754 L435.9375,1181.639 L437.5,1207.869 L439.0625,1247.213 L440.625,1201.312 L442.1875,1224.262 L443.75,1181.639 L445.3125,1207.869 L446.875,1204.59 L448.4375,1175.082 L450,1178.361 L451.5625,1266.885 L453.125,1198.033 L454.6875,1207.869 L456.25,1181.639 L457.8125,1204.59 L459.375,1250.492 L460.9375,1171.803 L462.5,1207.869 L464.0625,1230.82 L465.625,1175.082 L467.1875,1237.377 L468.75,1257.049 L470.3125,1234.098 L471.875,1260.328 L473.4375,1148.852 L475,1178.361 L476.5625,1102.951 L478.125,1184.918 L479.6875,1243.934 L481.25,1211.148 L482.8125,1188.197 L484.375,1178.361 L485.9375,1240.656 L487.5,1207.869 L489.0625,1217.705 L490.625,1237.377 L492.1875,1230.82 L493.75,1204.59 L495.3125,1198.033 L496.875,1214.426 L498.4375,1181.639 L500,1168.525 L501.5625,1198.033 L503.125,1119.344 L504.6875,1230.82 L506.25,1253.771 L507.8125,1270.164 L509.375,1132.459 L510.9375,1168.525 L512.5,1188.197 L514.0625,1234.098 L515.625,1175.082 L517.1875,1204.59 L518.75,1260.328 L520.3125,1188.197 " stroke="blue" fill="none" />
<text x="50" y="1330" font-family="Arial" font-size="12" fill="black">Policy Loss</text>
<text x="50" y="1345" font-family="Arial" font-size="10" fill="black">0.01052941</text>
<text x="50" y="1560" font-family="Arial" font-size="10" fill="black">0.002076994</text>
<path d="M50,1362.523 L75,1550 L100,1527.949 L125,1511.243 L150,1527.282 L175,1530.545 L200,1545.798 L225,1508.716 L250,1350 L275,1526.262 L300,1514.085 L325,1535.248 L350,1526.014 L375,1533.851 L400,1518.113 L425,1540.007 " stroke="blue" fill="none" />
<text x="50" y="1600" font-family="Arial" font-size="12" fill="black">Value Loss</text>
<text x="50" y="1615" font-family="Arial" font-size="10" fill="black">0.001437815</text>
<text x="50" y="1830" font-family="Arial" font-size="10" fill="black">0.0009728947</text>
<path d="M50,1689.088 L75,1735.263 L100,1754.052 L125,1769.486 L150,1782.749 L175,1796.101 L200,1808.188 L225,1820 L250,1620.004 L275,1644.325 L300,1678.393 L325,1704.211 L350,1720.579 L375,1733.806 L400,1746.315 L425,1758.392 " stroke="blue" fill="none" />
<text x="50" y="1870" font-family="Arial" font-size="12" fill="black">Learning Rate</text>
<text x="50" y="1885" font-family="Arial" font-size="10" fill="black">0.000249999</text>
<text x="50" y="2100" font-family="Arial" font-size="10" fill="black">0.0002499832</text>
<path d="M50,1967.772 L75,1975.921 L100,1984.069 L125,1992.218 L150,2000.366 L175,2008.515 L200,2016.663 L225,2024.812 L250,2032.96 L275,2041.109 L300,2049.258 L325,2057.406 L350,2065.554 L375,2073.703 L400,2081.852 L425,2090 " stroke="blue" fill="none" />
<text x="50" y="2140" font-family="Arial" font-size="12" fill="black">Epsilon</text>
<text x="50" y="2155" font-family="Arial" font-size="10" fill="black">0.2</text>
<text x="50" y="2370" font-family="Arial" font-size="10" fill="black">0.2</text>
<path d="M50,2360 L75,2360 L100,2360 L125,2360 L150,2360 L175,2360 L200,2360 L225,2360 L250,2360 L275,2360 L300,2360 L325,2360 L350,2360 L375,2360 L400,2360 L425,2360 " stroke="blue" fill="none" />
<text x="750" y="790" font-family="Arial" font-size="12" fill="black">Simplified</text>
<text x="750" y="805" font-family="Arial" font-size="10" fill="black">0.7587745</text>
<text x="750" y="1020" font-family="Arial" font-size="10" fill="black">0.5823215</text>
<path d="M778.125,874.1312 L807.8125,875.2523 L837.5,972.6043 L867.1875,949.9943 L896.875,990.9959 L926.5625,872.3369 L956.25,931.6365 L985.9375,810 L1015.625,966.4387 L1045.313,936.1722 L1075,818.6619 L1104.688,916.8422 L1134.375,1010 L1164.063,964.9108 L1193.75,943.8117 L1220.313,893.0974 " stroke="blue" fill="none" />
<text x="750" y="1060" font-family="Arial" font-size="12" fill="black">Simplified</text>
<text x="750" y="1075" font-family="Arial" font-size="10" fill="black">32.63158</text>
<text x="750" y="1290" font-family="Arial" font-size="10" fill="black">24.63158</text>
<path d="M778.125,1164.211 L807.8125,1152.368 L837.5,1240.526 L867.1875,1218.158 L896.875,1269.474 L926.5625,1164.211 L956.25,1215.526 L985.9375,1083.947 L1015.625,1236.579 L1045.313,1214.21 L1075,1080 L1104.688,1205 L1134.375,1280 L1164.063,1237.895 L1193.75,1241.842 L1220.313,1179.613 " stroke="blue" fill="none" />
</svg>
