<svg width="2000" height="2500" xmlns="http://www.w3.org/2000/svg">
<text x="10" y="20" font-family="Arial" font-size="26" fill="black"> [HumanWalk] Training Session</text>
<text x="10" y="50" font-family="Arial" font-size="16" fill="black">[Statistics]</text>
<text x="50" y="70" font-family="Arial" font-size="12" fill="black">Started at: 8:38:47 PM, Wednesday, October 18, 2023</text>
<text x="50" y="90" font-family="Arial" font-size="12" fill="black">Finished at: 8:40:11 PM, Wednesday, October 18, 2023</text>
<text x="50" y="110" font-family="Arial" font-size="12" fill="black">Training Session Time: 0 hrs : 1 min : 23 sec</text>
<text x="50" y="130" font-family="Arial" font-size="12" fill="black">Inference Time: 0 hrs : 3 min : 12 sec       [Per agent: 0 hrs : 3 min : 12 sec]        [Device: CPU]</text>
<text x="50" y="150" font-family="Arial" font-size="12" fill="black">Policy Update Time: 0 hrs : 0 min : 12 sec        [Per iteration: 0 hrs : 0 min : 11 sec]        [Device: GPU]</text>
<text x="50" y="170" font-family="Arial" font-size="12" fill="black">Inference Time / Training Session Time: 2.447</text>
<text x="50" y="190" font-family="Arial" font-size="12" fill="black">Policy Update Time / Training Session Time: 0.168</text>
<text x="50" y="210" font-family="Arial" font-size="12" fill="black">Episode Count: 206</text>
<text x="50" y="230" font-family="Arial" font-size="12" fill="black">Inference Steps: 4795    [Per agent: 4795]     [Per Episode (mean): 23]</text>
<text x="50" y="250" font-family="Arial" font-size="12" fill="black">Iterations: 1</text>
<text x="50" y="270" font-family="Arial" font-size="12" fill="black">Parallel Agents: 1</text>
<text x="50" y="290" font-family="Arial" font-size="12" fill="black">Timescale: 3</text>
<text x="10" y="340" font-family="Arial" font-size="16" fill="black">[Hyperparameters]</text>
<text x="50" y="360" font-family="Arial" font-size="12" fill="black">Buffer Size: 4096        [Batch Size: 256       (x16)]</text>
<text x="50" y="380" font-family="Arial" font-size="12" fill="black">Num Epoch: 8</text>
<text x="50" y="400" font-family="Arial" font-size="12" fill="black">Time Horizon: 72</text>
<text x="50" y="420" font-family="Arial" font-size="12" fill="black">Gradient Cliping Normalization: 0.5</text>
<text x="50" y="440" font-family="Arial" font-size="12" fill="black">Advantages Normalization: True</text>
<text x="50" y="460" font-family="Arial" font-size="12" fill="black">Training Data Shuffle: True</text>
<text x="50" y="480" font-family="Arial" font-size="12" fill="black">Learning Rate Schedule: False    </text>
<text x="10" y="530" font-family="Arial" font-size="16" fill="black">[Behaviour]</text>
<text x="50" y="550" font-family="Arial" font-size="12" fill="black">Space Size: 142</text>
<text x="50" y="570" font-family="Arial" font-size="12" fill="black">Continuous Actions: 29 [Standard Deviation: Fixed]     [Value: 1.72]</text>
<text x="50" y="590" font-family="Arial" font-size="12" fill="black">Discrete Actions: 0</text>
<text x="50" y="610" font-family="Arial" font-size="12" fill="black">TargetFPS: 50 (physics update rate)</text>
<text x="50" y="630" font-family="Arial" font-size="12" fill="black">Observations Normalization: False</text>
<text x="10" y="680" font-family="Arial" font-size="16" fill="black">[Decision Requester]</text>
<text x="50" y="700" font-family="Arial" font-size="12" fill="black">Max Step: 3000</text>
<text x="50" y="720" font-family="Arial" font-size="12" fill="black">Decision Period: 2      [Actions Between Decisions: True]</text>
<text x="10" y="770" font-family="Arial" font-size="16" fill="black">[Graphs]</text>
<text x="50" y="790" font-family="Arial" font-size="12" fill="black">Episode Reward (206)</text>
<text x="50" y="805" font-family="Arial" font-size="10" fill="black">1.416192</text>
<text x="50" y="1020" font-family="Arial" font-size="10" fill="black">0.1061132</text>
<path d="M50,931.718 L51.5625,936.5895 L53.125,1009.882 L54.6875,913.265 L56.25,984.1481 L57.8125,923.0182 L59.375,990.3197 L60.9375,978.8432 L62.5,982.0102 L64.0625,979.4913 L65.625,890.0563 L67.1875,910.4017 L68.75,994.893 L70.3125,1002.297 L71.875,973.4711 L73.4375,943.3633 L75,901.4756 L76.5625,963.0215 L78.125,968.1533 L79.6875,967.9448 L81.25,915.6291 L82.8125,936.2631 L84.375,924.0441 L85.9375,978.3925 L87.5,960.76 L89.0625,913.9144 L90.625,947.3881 L92.1875,936.8591 L93.75,956.3456 L95.3125,909.0019 L96.875,899.1577 L98.4375,919.913 L100,916.2652 L101.5625,960.6647 L103.125,931.0649 L104.6875,975.7032 L106.25,991.0955 L107.8125,970.2117 L109.375,959.1113 L110.9375,958.683 L112.5,931.2856 L114.0625,909.3328 L115.625,943.0388 L117.1875,962.5505 L118.75,968.3007 L120.3125,937.4987 L121.875,963.0657 L123.4375,895.3835 L125,1006.377 L126.5625,978.8825 L128.125,928.114 L129.6875,892.8113 L131.25,886.7819 L132.8125,863.9088 L134.375,986.4614 L135.9375,959.9276 L137.5,903.0007 L139.0625,874.6385 L140.625,973.494 L142.1875,912.4302 L143.75,961.5063 L145.3125,900.0325 L146.875,968.1907 L148.4375,942.135 L150,945.9294 L151.5625,916.6064 L153.125,952.104 L154.6875,917.0689 L156.25,986.514 L157.8125,926.7193 L159.375,998.2352 L160.9375,966.8458 L162.5,879.6302 L164.0625,931.396 L165.625,912.4221 L167.1875,979.49 L168.75,896.505 L170.3125,916.9042 L171.875,876.4587 L173.4375,978.3881 L175,939.5623 L176.5625,979.7078 L178.125,956.9409 L179.6875,975.5843 L181.25,925.0208 L182.8125,961.7866 L184.375,997.9604 L185.9375,881.5099 L187.5,986.4597 L189.0625,998.33 L190.625,969.2627 L192.1875,962.1336 L193.75,943.7145 L195.3125,990.7952 L196.875,917.7966 L198.4375,1005.917 L200,928.8304 L201.5625,904.3323 L203.125,987.0156 L204.6875,935.8384 L206.25,946.0342 L207.8125,932.7103 L209.375,907.0882 L210.9375,917.9865 L212.5,901.4177 L214.0625,930.2449 L215.625,955.9536 L217.1875,947.0394 L218.75,915.1143 L220.3125,928.9677 L221.875,982.9567 L223.4375,965.7648 L225,931.6942 L226.5625,919.7639 L228.125,917.6017 L229.6875,926.7374 L231.25,987.2457 L232.8125,961.5301 L234.375,1006.118 L235.9375,924.1968 L237.5,1010 L239.0625,931.324 L240.625,893.9732 L242.1875,906.0901 L243.75,994.663 L245.3125,872.6801 L246.875,971.188 L248.4375,943.6331 L250,948.8028 L251.5625,918.777 L253.125,979.6941 L254.6875,974.8804 L256.25,910.4169 L257.8125,912.1769 L259.375,986.471 L260.9375,964.4151 L262.5,970.3729 L264.0625,939.6511 L265.625,892.0992 L267.1875,906.2959 L268.75,931.3367 L270.3125,903.0954 L271.875,892.9058 L273.4375,990.573 L275,935.2206 L276.5625,921.3917 L278.125,934.6833 L279.6875,986.4635 L281.25,958.2922 L282.8125,987.051 L284.375,931.5532 L285.9375,957.1045 L287.5,987.0939 L289.0625,987.225 L290.625,912.5736 L292.1875,970.8217 L293.75,868.8777 L295.3125,923.4549 L296.875,914.516 L298.4375,998.4233 L300,892.3796 L301.5625,950.5114 L303.125,870.8898 L304.6875,919.2715 L306.25,955.8639 L307.8125,810 L309.375,912.2298 L310.9375,957.3099 L312.5,988.7189 L314.0625,983.1203 L315.625,925.0861 L317.1875,935.8198 L318.75,935.6799 L320.3125,940.8913 L321.875,969.2521 L323.4375,968.0247 L325,924.7253 L326.5625,925.2013 L328.125,925.5707 L329.6875,913.2938 L331.25,954.9052 L332.8125,943.6927 L334.375,880.404 L335.9375,991.1956 L337.5,917.3851 L339.0625,958.6291 L340.625,941.6393 L342.1875,926.4105 L343.75,920.4691 L345.3125,936.9515 L346.875,983.7264 L348.4375,902.7902 L350,995.3812 L351.5625,990.4548 L353.125,973.113 L354.6875,906.7029 L356.25,896.2453 L357.8125,979.3224 L359.375,919.738 L360.9375,987.4695 L362.5,900.6335 L364.0625,881.9791 L365.625,992.4423 L367.1875,883.4011 L368.75,987.3777 L370.3125,914.8183 " stroke="blue" fill="none" />
<text x="50" y="1060" font-family="Arial" font-size="12" fill="black">Episode Length (206)</text>
<text x="50" y="1075" font-family="Arial" font-size="10" fill="black">61</text>
<text x="50" y="1290" font-family="Arial" font-size="10" fill="black">4</text>
<path d="M50,1209.825 L51.5625,1202.807 L53.125,1280 L54.6875,1185.263 L56.25,1255.439 L57.8125,1181.754 L59.375,1262.456 L60.9375,1251.93 L62.5,1251.93 L64.0625,1251.93 L65.625,1157.193 L67.1875,1178.246 L68.75,1265.965 L70.3125,1272.982 L71.875,1244.912 L73.4375,1209.825 L75,1171.228 L76.5625,1237.895 L78.125,1241.404 L79.6875,1241.404 L81.25,1195.789 L82.8125,1209.825 L84.375,1181.754 L85.9375,1251.93 L87.5,1230.877 L89.0625,1192.281 L90.625,1206.316 L92.1875,1202.807 L93.75,1213.333 L95.3125,1181.754 L96.875,1167.719 L98.4375,1199.298 L100,1195.789 L101.5625,1234.386 L103.125,1206.316 L104.6875,1248.421 L106.25,1262.456 L107.8125,1237.895 L109.375,1227.368 L110.9375,1234.386 L112.5,1199.298 L114.0625,1171.228 L115.625,1220.351 L117.1875,1234.386 L118.75,1241.404 L120.3125,1199.298 L121.875,1237.895 L123.4375,1167.719 L125,1276.491 L126.5625,1251.93 L128.125,1199.298 L129.6875,1164.211 L131.25,1167.719 L132.8125,1136.14 L134.375,1258.947 L135.9375,1234.386 L137.5,1171.228 L139.0625,1150.175 L140.625,1244.912 L142.1875,1185.263 L143.75,1223.86 L145.3125,1171.228 L146.875,1234.386 L148.4375,1199.298 L150,1223.86 L151.5625,1174.737 L153.125,1216.842 L154.6875,1171.228 L156.25,1258.947 L157.8125,1192.281 L159.375,1269.474 L160.9375,1241.404 L162.5,1150.175 L164.0625,1199.298 L165.625,1181.754 L167.1875,1251.93 L168.75,1178.246 L170.3125,1188.772 L171.875,1143.158 L173.4375,1248.421 L175,1213.333 L176.5625,1251.93 L178.125,1209.825 L179.6875,1248.421 L181.25,1188.772 L182.8125,1234.386 L184.375,1269.474 L185.9375,1150.175 L187.5,1258.947 L189.0625,1269.474 L190.625,1241.404 L192.1875,1234.386 L193.75,1216.842 L195.3125,1262.456 L196.875,1188.772 L198.4375,1276.491 L200,1192.281 L201.5625,1178.246 L203.125,1258.947 L204.6875,1213.333 L206.25,1206.316 L207.8125,1202.807 L209.375,1185.263 L210.9375,1188.772 L212.5,1181.754 L214.0625,1185.263 L215.625,1227.368 L217.1875,1220.351 L218.75,1185.263 L220.3125,1199.298 L221.875,1255.439 L223.4375,1237.895 L225,1188.772 L226.5625,1195.789 L228.125,1188.772 L229.6875,1195.789 L231.25,1258.947 L232.8125,1234.386 L234.375,1276.491 L235.9375,1195.789 L237.5,1280 L239.0625,1202.807 L240.625,1174.737 L242.1875,1174.737 L243.75,1265.965 L245.3125,1153.684 L246.875,1241.404 L248.4375,1216.842 L250,1223.86 L251.5625,1188.772 L253.125,1251.93 L254.6875,1248.421 L256.25,1181.754 L257.8125,1181.754 L259.375,1258.947 L260.9375,1237.895 L262.5,1244.912 L264.0625,1216.842 L265.625,1157.193 L267.1875,1181.754 L268.75,1195.789 L270.3125,1167.719 L271.875,1167.719 L273.4375,1262.456 L275,1206.316 L276.5625,1188.772 L278.125,1199.298 L279.6875,1258.947 L281.25,1223.86 L282.8125,1258.947 L284.375,1195.789 L285.9375,1230.877 L287.5,1258.947 L289.0625,1258.947 L290.625,1178.246 L292.1875,1244.912 L293.75,1139.649 L295.3125,1195.789 L296.875,1185.263 L298.4375,1269.474 L300,1160.702 L301.5625,1223.86 L303.125,1139.649 L304.6875,1185.263 L306.25,1216.842 L307.8125,1080 L309.375,1181.754 L310.9375,1216.842 L312.5,1258.947 L314.0625,1255.439 L315.625,1195.789 L317.1875,1195.789 L318.75,1202.807 L320.3125,1216.842 L321.875,1241.404 L323.4375,1241.404 L325,1192.281 L326.5625,1195.789 L328.125,1188.772 L329.6875,1181.754 L331.25,1227.368 L332.8125,1213.333 L334.375,1139.649 L335.9375,1262.456 L337.5,1188.772 L339.0625,1223.86 L340.625,1213.333 L342.1875,1195.789 L343.75,1185.263 L345.3125,1213.333 L346.875,1255.439 L348.4375,1181.754 L350,1265.965 L351.5625,1262.456 L353.125,1244.912 L354.6875,1164.211 L356.25,1160.702 L357.8125,1251.93 L359.375,1185.263 L360.9375,1258.947 L362.5,1164.211 L364.0625,1146.667 L365.625,1262.456 L367.1875,1146.667 L368.75,1258.947 L370.3125,1185.263 " stroke="blue" fill="none" />
<text x="50" y="1330" font-family="Arial" font-size="12" fill="black">Policy Loss</text>
<text x="50" y="1345" font-family="Arial" font-size="10" fill="black">0.0147723</text>
<text x="50" y="1560" font-family="Arial" font-size="10" fill="black">0.00217083</text>
<path d="M50,1350 L75,1536.054 L100,1550 L125,1532.52 L150,1543.01 L175,1541.847 L200,1534.461 L225,1535.269 " stroke="blue" fill="none" />
<text x="50" y="1600" font-family="Arial" font-size="12" fill="black">Value Loss</text>
<text x="50" y="1615" font-family="Arial" font-size="10" fill="black">0.001354832</text>
<text x="50" y="1830" font-family="Arial" font-size="10" fill="black">0.001035216</text>
<path d="M50,1620.006 L75,1692.107 L100,1720.184 L125,1749.385 L150,1770.779 L175,1788.776 L200,1804.949 L225,1820 " stroke="blue" fill="none" />
<text x="50" y="1870" font-family="Arial" font-size="12" fill="black">Learning Rate</text>
<text x="50" y="1885" font-family="Arial" font-size="10" fill="black">0.000249999</text>
<text x="50" y="2100" font-family="Arial" font-size="10" fill="black">0.0002499916</text>
<path d="M50,2005.379 L75,2017.468 L100,2029.557 L125,2041.645 L150,2053.734 L175,2065.823 L200,2077.911 L225,2090 " stroke="blue" fill="none" />
<text x="50" y="2140" font-family="Arial" font-size="12" fill="black">Epsilon</text>
<text x="50" y="2155" font-family="Arial" font-size="10" fill="black">0.2</text>
<text x="50" y="2370" font-family="Arial" font-size="10" fill="black">0.2</text>
<path d="M50,2360 L75,2360 L100,2360 L125,2360 L150,2360 L175,2360 L200,2360 L225,2360 " stroke="blue" fill="none" />
<text x="750" y="790" font-family="Arial" font-size="12" fill="black">Simplified</text>
<text x="750" y="805" font-family="Arial" font-size="10" fill="black">0.6100222</text>
<text x="750" y="1020" font-family="Arial" font-size="10" fill="black">0.4555534</text>
<path d="M778.125,1010 L807.8125,891.3531 L837.5,857.3822 L867.1875,862.2357 L896.875,955.722 L926.5625,861.915 L956.25,922.1234 L985.9375,887.1279 L1015.625,810 L1045.313,846.5021 L1070.313,898.2279 " stroke="blue" fill="none" />
<text x="750" y="1060" font-family="Arial" font-size="12" fill="black">Simplified</text>
<text x="750" y="1075" font-family="Arial" font-size="10" fill="black">26.10526</text>
<text x="750" y="1290" font-family="Arial" font-size="10" fill="black">19.10526</text>
<path d="M778.125,1280 L807.8125,1171.729 L837.5,1143.158 L867.1875,1120.602 L896.875,1230.376 L926.5625,1137.143 L956.25,1212.331 L985.9375,1161.203 L1015.625,1080 L1045.313,1111.579 L1070.313,1159.793 " stroke="blue" fill="none" />
</svg>
