<svg width="2000" height="2500" xmlns="http://www.w3.org/2000/svg">
<text x="10" y="20" font-family="Arial" font-size="26" fill="black"> [HumanWalk] Training Session</text>
<text x="10" y="50" font-family="Arial" font-size="16" fill="black">[Statistics]</text>
<text x="50" y="70" font-family="Arial" font-size="12" fill="black">Started at: 8:23:28 PM, Wednesday, October 18, 2023</text>
<text x="50" y="90" font-family="Arial" font-size="12" fill="black">Finished at: 8:28:03 PM, Wednesday, October 18, 2023</text>
<text x="50" y="110" font-family="Arial" font-size="12" fill="black">Training Session Time: 0 hrs : 4 min : 35 sec</text>
<text x="50" y="130" font-family="Arial" font-size="12" fill="black">Inference Time: 0 hrs : 11 min : 8 sec       [Per agent: 0 hrs : 11 min : 8 sec]        [Device: CPU]</text>
<text x="50" y="150" font-family="Arial" font-size="12" fill="black">Policy Update Time: 0 hrs : 0 min : 47 sec        [Per iteration: 0 hrs : 0 min : 11 sec]        [Device: GPU]</text>
<text x="50" y="170" font-family="Arial" font-size="12" fill="black">Inference Time / Training Session Time: 2.415</text>
<text x="50" y="190" font-family="Arial" font-size="12" fill="black">Policy Update Time / Training Session Time: 0.172</text>
<text x="50" y="210" font-family="Arial" font-size="12" fill="black">Episode Count: 629</text>
<text x="50" y="230" font-family="Arial" font-size="12" fill="black">Inference Steps: 16680    [Per agent: 16680]     [Per Episode (mean): 26]</text>
<text x="50" y="250" font-family="Arial" font-size="12" fill="black">Iterations: 4</text>
<text x="50" y="270" font-family="Arial" font-size="12" fill="black">Parallel Agents: 1</text>
<text x="50" y="290" font-family="Arial" font-size="12" fill="black">Timescale: 3</text>
<text x="10" y="340" font-family="Arial" font-size="16" fill="black">[Hyperparameters]</text>
<text x="50" y="360" font-family="Arial" font-size="12" fill="black">Buffer Size: 4096        [Batch Size: 256       (x16)]</text>
<text x="50" y="380" font-family="Arial" font-size="12" fill="black">Num Epoch: 8</text>
<text x="50" y="400" font-family="Arial" font-size="12" fill="black">Time Horizon: 72</text>
<text x="50" y="420" font-family="Arial" font-size="12" fill="black">Gradient Cliping Normalization: 0.5</text>
<text x="50" y="440" font-family="Arial" font-size="12" fill="black">Advantages Normalization: True</text>
<text x="50" y="460" font-family="Arial" font-size="12" fill="black">Training Data Shuffle: True</text>
<text x="50" y="480" font-family="Arial" font-size="12" fill="black">Learning Rate Schedule: False    </text>
<text x="10" y="530" font-family="Arial" font-size="16" fill="black">[Behaviour]</text>
<text x="50" y="550" font-family="Arial" font-size="12" fill="black">Space Size: 142</text>
<text x="50" y="570" font-family="Arial" font-size="12" fill="black">Continuous Actions: 29 [Standard Deviation: Fixed]     [Value: 1.72]</text>
<text x="50" y="590" font-family="Arial" font-size="12" fill="black">Discrete Actions: 0</text>
<text x="50" y="610" font-family="Arial" font-size="12" fill="black">TargetFPS: 50 (physics update rate)</text>
<text x="50" y="630" font-family="Arial" font-size="12" fill="black">Observations Normalization: False</text>
<text x="10" y="680" font-family="Arial" font-size="16" fill="black">[Decision Requester]</text>
<text x="50" y="700" font-family="Arial" font-size="12" fill="black">Max Step: 3000</text>
<text x="50" y="720" font-family="Arial" font-size="12" fill="black">Decision Period: 2      [Actions Between Decisions: True]</text>
<text x="10" y="770" font-family="Arial" font-size="16" fill="black">[Graphs]</text>
<text x="50" y="790" font-family="Arial" font-size="12" fill="black">Episode Reward (629)</text>
<text x="50" y="805" font-family="Arial" font-size="10" fill="black">1.553885</text>
<text x="50" y="1020" font-family="Arial" font-size="10" fill="black">0.1316367</text>
<path d="M50,938.3933 L50.78125,944.8986 L51.5625,913.4146 L52.34375,935.4786 L53.125,915.8874 L53.90625,849.4131 L54.6875,931.8505 L55.46875,965.917 L56.25,908.3303 L57.03125,913.5823 L57.8125,906.4857 L58.59375,976.5059 L59.375,995.5392 L60.15625,941.6899 L60.9375,915.9962 L61.71875,912.2579 L62.5,936.108 L63.28125,1006.414 L64.0625,923.4549 L64.84375,950.7622 L65.625,979.6091 L66.40625,936.8735 L67.1875,910.0563 L67.96875,901.8236 L68.75,900.7769 L69.53125,916.3584 L70.3125,921.0182 L71.09375,930.0568 L71.875,878.7484 L72.65625,892.2778 L73.4375,976.5409 L74.21875,1006.475 L75,985.6881 L75.78125,916.9482 L76.5625,877.9454 L77.34375,919.0059 L78.125,981.4837 L78.90625,959.2443 L79.6875,980.7014 L80.46875,946.4238 L81.25,867.233 L82.03125,978.5688 L82.8125,958.42 L83.59375,926.8889 L84.375,895.5554 L85.15625,941.3328 L85.9375,900.6741 L86.71875,982.2983 L87.5,934.1976 L88.28125,972.1074 L89.0625,948.7032 L89.84375,964.5505 L90.625,868.5172 L91.40625,995.3176 L92.1875,885.3101 L92.96875,873.7481 L93.75,898.5665 L94.53125,888.1225 L95.3125,945.9276 L96.09375,950.2082 L96.875,914.6002 L97.65625,938.0443 L98.4375,914.7634 L99.21875,843.1084 L100,978.3674 L100.7813,933.1823 L101.5625,944.5161 L102.3438,925.6098 L103.125,824.6705 L103.9063,988.452 L104.6875,927.8946 L105.4688,911.7549 L106.25,948.5521 L107.0313,964.4697 L107.8125,884.0473 L108.5938,897.3625 L109.375,868.9792 L110.1563,901.8677 L110.9375,937.8284 L111.7188,954.9155 L112.5,966.494 L113.2813,927.9493 L114.0625,899.4572 L114.8438,905.1049 L115.625,933.9409 L116.4063,932.5917 L117.1875,995.1755 L117.9688,910.8289 L118.75,984.0445 L119.5313,928.5491 L120.3125,873.5866 L121.0938,873.9026 L121.875,998.9517 L122.6563,909.8037 L123.4375,926.1089 L124.2188,975.6565 L125,931.9805 L125.7813,977.5148 L126.5625,982.9909 L127.3438,925.238 L128.125,964.0281 L128.9063,875.5964 L129.6875,974.459 L130.4688,903.2415 L131.25,904.5099 L132.0313,909.1558 L132.8125,946.8896 L133.5938,985.1702 L134.375,963.4056 L135.1563,991.6432 L135.9375,941.071 L136.7188,953.0966 L137.5,927.5528 L138.2813,924.2642 L139.0625,937.797 L139.8438,953.0225 L140.625,917.4496 L141.4063,932.9051 L142.1875,985.4488 L142.9688,956.0589 L143.75,952.5766 L144.5313,928.1154 L145.3125,903.4871 L146.0938,950.6747 L146.875,926.1465 L147.6563,938.392 L148.4375,985.7498 L149.2188,903.5866 L150,931.9219 L150.7813,942.7476 L151.5625,937.1117 L152.3438,919.4547 L153.125,972.4832 L153.9063,969.363 L154.6875,872.4481 L155.4688,940.6579 L156.25,902.749 L157.0313,934.9486 L157.8125,922.6971 L158.5938,967.1957 L159.375,912.5648 L160.1563,905.1788 L160.9375,988.5925 L161.7188,974.9172 L162.5,946.2568 L163.2813,861.9552 L164.0625,943.1638 L164.8438,829.3056 L165.625,934.348 L166.4063,955.8097 L167.1875,940.9244 L167.9688,967.5161 L168.75,928.6817 L169.5313,953.8017 L170.3125,914.0414 L171.0938,910.2244 L171.875,999.4857 L172.6563,986.764 L173.4375,960.6251 L174.2188,905.9212 L175,908.2527 L175.7813,992.1655 L176.5625,977.012 L177.3438,965.4777 L178.125,952.6616 L178.9063,946.0756 L179.6875,938.7209 L180.4688,975.2103 L181.25,949.8771 L182.0313,952.7554 L182.8125,977.6107 L183.5938,988.511 L184.375,932.2762 L185.1563,944.8372 L185.9375,934.8793 L186.7188,965.8341 L187.5,970.8021 L188.2813,978.0747 L189.0625,925.2033 L189.8438,1002.718 L190.625,913.6547 L191.4063,902.2524 L192.1875,995.2237 L192.9688,974.2075 L193.75,886.8279 L194.5313,914.3164 L195.3125,911.909 L196.0938,884.4595 L196.875,914.6901 L197.6563,988.2194 L198.4375,990.0576 L199.2188,938.4611 L200,1006.42 L200.7813,969.3983 L201.5625,981.7142 L202.3438,909.2776 L203.125,862.1475 L203.9063,975.9035 L204.6875,925.2809 L205.4688,977.1783 L206.25,894.6396 L207.0313,935.6555 L207.8125,949.7625 L208.5938,937.3577 L209.375,991.7479 L210.1563,911.7656 L210.9375,998.9207 L211.7188,966.788 L212.5,966.4923 L213.2813,933.3538 L214.0625,949.3519 L214.8438,894.7665 L215.625,938.1868 L216.4063,937.2663 L217.1875,909.9886 L217.9688,952.2767 L218.75,936.9811 L219.5313,984.4506 L220.3125,949.6032 L221.0938,897.5388 L221.875,905.1815 L222.6563,963.3077 L223.4375,940.2011 L224.2188,932.1729 L225,933.8996 L225.7813,904.3383 L226.5625,905.6003 L227.3438,912.1993 L228.125,871.0015 L228.9063,905.9838 L229.6875,916.9345 L230.4688,935.465 L231.25,977.3101 L232.0313,884.2441 L232.8125,869.0574 L233.5938,904.0615 L234.375,949.2805 L235.1563,955.9726 L235.9375,944.3666 L236.7188,828.6456 L237.5,813.8231 L238.2813,950.7741 L239.0625,950.6284 L239.8438,945.6484 L240.625,939.2437 L241.4063,930.9056 L242.1875,965.5914 L242.9688,1002.681 L243.75,919.1395 L244.5313,894.2913 L245.3125,965.7198 L246.0938,927.6683 L246.875,962.92 L247.6563,1002.257 L248.4375,959.7405 L249.2188,944.6143 L250,870.6019 L250.7813,887.4638 L251.5625,923.048 L252.3438,904.0367 L253.125,993.2252 L253.9063,917.1874 L254.6875,929.5435 L255.4688,970.4549 L256.25,947.9913 L257.0313,908.0725 L257.8125,885.994 L258.5938,957.743 L259.375,898.8502 L260.1563,979.3425 L260.9375,989.351 L261.7188,936.1674 L262.5,895.6958 L263.2813,982.3861 L264.0625,940.8381 L264.8438,921.1214 L265.625,979.7192 L266.4063,985.7715 L267.1875,871.3454 L267.9688,879.3407 L268.75,949.412 L269.5313,888.7999 L270.3125,890.6686 L271.0938,889.9732 L271.875,992.4956 L272.6563,969.0858 L273.4375,927.8011 L274.2188,924.9377 L275,927.4609 L275.7813,907.4056 L276.5625,940.0962 L277.3438,944.3911 L278.125,912.5127 L278.9063,914.8223 L279.6875,916.0566 L280.4688,961.961 L281.25,979.2239 L282.0313,956.6689 L282.8125,935.6807 L283.5938,942.9214 L284.375,955.5815 L285.1563,902.8677 L285.9375,920.134 L286.7188,891.5519 L287.5,995.4875 L288.2813,958.1539 L289.0625,963.2808 L289.8438,937.5909 L290.625,1006.305 L291.4063,938.1895 L292.1875,978.9029 L292.9688,971.4671 L293.75,918.3971 L294.5313,903.4339 L295.3125,910.5555 L296.0938,916.2859 L296.875,970.9389 L297.6563,977.9755 L298.4375,994.8807 L299.2188,927.962 L300,860.2814 L300.7813,992.0334 L301.5625,934.611 L302.3438,924.3792 L303.125,970.5112 L303.9063,921.2642 L304.6875,887.8575 L305.4688,923.2753 L306.25,951.2426 L307.0313,948.8961 L307.8125,944.0629 L308.5938,964.6956 L309.375,929.7293 L310.1563,981.7727 L310.9375,924.1005 L311.7188,988.3152 L312.5,988.187 L313.2813,923.1326 L314.0625,972.8147 L314.8438,837.8925 L315.625,951.5176 L316.4063,943.6152 L317.1875,877.8238 L317.9688,967.1047 L318.75,938.4155 L319.5313,905.6826 L320.3125,892.8007 L321.0938,915.2363 L321.875,925.6717 L322.6563,947.3577 L323.4375,919.377 L324.2188,901.814 L325,817.0338 L325.7813,910.399 L326.5625,944.5647 L327.3438,988.8763 L328.125,965.5956 L328.9063,913.2772 L329.6875,916.5266 L330.4688,930.0475 L331.25,910.4711 L332.0313,931.484 L332.8125,945.3513 L333.5938,954.4587 L334.375,984.2693 L335.1563,970.1205 L335.9375,951.5611 L336.7188,906.8577 L337.5,904.8807 L338.2813,980.3749 L339.0625,956.486 L339.8438,971.6221 L340.625,989.2344 L341.4063,988.3038 L342.1875,956.4731 L342.9688,877.3563 L343.75,863.8179 L344.5313,914.9648 L345.3125,953.2559 L346.0938,940.6487 L346.875,934.608 L347.6563,989.9818 L348.4375,958.0396 L349.2188,992.1411 L350,996.2283 L350.7813,939.2604 L351.5625,976.7856 L352.3438,925.9323 L353.125,810 L353.9063,914.0953 L354.6875,965.5404 L355.4688,914.7174 L356.25,843.1204 L357.0313,899.6342 L357.8125,917.9327 L358.5938,928.6051 L359.375,985.8684 L360.1563,985.5228 L360.9375,944.5594 L361.7188,918.9182 L362.5,975.8684 L363.2813,964.7743 L364.0625,1003.169 L364.8438,867.532 L365.625,957.9053 L366.4063,898.2579 L367.1875,988.2405 L367.9688,955.3902 L368.75,923.27 L369.5313,900.9642 L370.3125,909.7126 L371.0938,952.5945 L371.875,942.5314 L372.6563,932.0979 L373.4375,897.4438 L374.2188,939.9009 L375,894.7048 L375.7813,940.1757 L376.5625,940.3613 L377.3438,969.8316 L378.125,978.377 L378.9063,954.2308 L379.6875,930.9199 L380.4688,970.6027 L381.25,923.3981 L382.0313,939.0651 L382.8125,984.8934 L383.5938,963.9406 L384.375,917.4552 L385.1563,926.6818 L385.9375,824.1183 L386.7188,970.5146 L387.5,910.0289 L388.2813,924.5731 L389.0625,999.0949 L389.8438,918.2222 L390.625,929.27 L391.4063,900.6653 L392.1875,886.8879 L392.9688,911.6138 L393.75,927.2836 L394.5313,944.0661 L395.3125,995.6666 L396.0938,865.0104 L396.875,979.8322 L397.6563,957.8194 L398.4375,957.1695 L399.2188,935.8063 L400,964.6284 L400.7813,986.2601 L401.5625,964.4446 L402.3438,939.8573 L403.125,924.5356 L403.9063,923.2084 L404.6875,996.1526 L405.4688,912.9586 L406.25,1003.551 L407.0313,938.0596 L407.8125,966.0196 L408.5938,981.8853 L409.375,950.2262 L410.1563,969.4296 L410.9375,922.5994 L411.7188,939.2503 L412.5,907.3698 L413.2813,916.2829 L414.0625,916.2234 L414.8438,952.103 L415.625,931.7902 L416.4063,934.662 L417.1875,921.7221 L417.9688,981.9317 L418.75,948.6912 L419.5313,948.0337 L420.3125,910.0052 L421.0938,1002.619 L421.875,902.8171 L422.6563,920.1115 L423.4375,919.7837 L424.2188,943.7952 L425,956.5416 L425.7813,928.2043 L426.5625,905.5739 L427.3438,944.9375 L428.125,995.7612 L428.9063,1002.67 L429.6875,884.6785 L430.4688,859.5126 L431.25,946.9843 L432.0313,920.0107 L432.8125,977.0367 L433.5938,968.5897 L434.375,1002.857 L435.1563,979.0476 L435.9375,1002.683 L436.7188,999.8975 L437.5,957.5091 L438.2813,964.2826 L439.0625,974.4066 L439.8438,949.4033 L440.625,942.266 L441.4063,995.6407 L442.1875,903.4024 L442.9688,987.1169 L443.75,1000.754 L444.5313,1002.999 L445.3125,908.3063 L446.0938,969.656 L446.875,924.2929 L447.6563,939.1434 L448.4375,964.1016 L449.2188,921.085 L450,921.5794 L450.7813,958.3922 L451.5625,986.1721 L452.3438,937.0525 L453.125,954.4626 L453.9063,918.9654 L454.6875,957.1946 L455.4688,891.1402 L456.25,937.3577 L457.0313,900.6658 L457.8125,952.7803 L458.5938,972.9284 L459.375,985.3615 L460.1563,888.8872 L460.9375,944.9241 L461.7188,885.9457 L462.5,924.4552 L463.2813,822.6165 L464.0625,960.2598 L464.8438,974.6981 L465.625,995.3773 L466.4063,970.1073 L467.1875,908.9288 L467.9688,922.4729 L468.75,981.0051 L469.5313,947.3188 L470.3125,999.4385 L471.0938,991.9676 L471.875,1006.241 L472.6563,906.077 L473.4375,972.3291 L474.2188,1010 L475,982.0996 L475.7813,911.6149 L476.5625,912.6856 L477.3438,958.6733 L478.125,918.444 L478.9063,948.0034 L479.6875,868.4339 L480.4688,935.4836 L481.25,998.5895 L482.0313,991.8253 L482.8125,837.728 L483.5938,950.3446 L484.375,984.8796 L485.1563,992.8668 L485.9375,926.8491 L486.7188,930.5914 L487.5,910.616 L488.2813,893.7762 L489.0625,916.4586 L489.8438,956.1483 L490.625,979.7365 L491.4063,984.7975 L492.1875,960.1349 L492.9688,915.9117 L493.75,956.8469 L494.5313,917.4099 L495.3125,987.9122 L496.0938,933.9709 L496.875,993.4272 L497.6563,960.1999 L498.4375,981.9864 L499.2188,976.5648 L500,933.6788 L500.7813,941.689 L501.5625,950.3578 L502.3438,909.9702 L503.125,992.3893 L503.9063,917.7573 L504.6875,945.6915 L505.4688,952.9633 L506.25,968.5149 L507.0313,905.619 L507.8125,995.4535 L508.5938,904.5975 L509.375,964.028 L510.1563,876.1887 L510.9375,983.4828 L511.7188,1006.36 L512.5,955.7979 L513.2813,989.5205 L514.0625,906.2599 L514.8438,890.7574 L515.625,992.9234 L516.4063,949.1984 L517.1875,886.7861 L517.9688,926.9962 L518.75,956.45 L519.5313,989.6189 L520.3125,929.8578 L521.0938,939.6748 L521.875,995.3949 L522.6563,965.8357 L523.4375,936.9123 L524.2188,923.5775 L525,936.1669 L525.7813,959.8995 L526.5625,911.59 L527.3438,919.1957 L528.125,952.4678 L528.9063,912.6562 L529.6875,936.1563 L530.4688,979.7139 L531.25,940.4836 L532.0313,950.6979 L532.8125,952.4824 L533.5938,921.6384 L534.375,922.4647 L535.1563,894.5573 L535.9375,901.8554 L536.7188,974.4515 L537.5,973.2984 L538.2813,963.1093 L539.0625,959.4633 L539.8438,897.1079 L540.625,981.8448 " stroke="blue" fill="none" />
<text x="50" y="1060" font-family="Arial" font-size="12" fill="black">Episode Length (629)</text>
<text x="50" y="1075" font-family="Arial" font-size="10" fill="black">63</text>
<text x="50" y="1290" font-family="Arial" font-size="10" fill="black">5</text>
<path d="M50,1211.034 L50.78125,1214.483 L51.5625,1180 L52.34375,1200.69 L53.125,1180 L53.90625,1124.828 L54.6875,1190.345 L55.46875,1238.621 L56.25,1173.103 L57.03125,1186.897 L57.8125,1162.759 L58.59375,1245.517 L59.375,1266.207 L60.15625,1211.034 L60.9375,1183.448 L61.71875,1183.448 L62.5,1193.793 L63.28125,1276.552 L64.0625,1190.345 L64.84375,1217.931 L65.625,1248.966 L66.40625,1204.138 L67.1875,1173.103 L67.96875,1176.552 L68.75,1159.31 L69.53125,1176.552 L70.3125,1186.897 L71.09375,1193.793 L71.875,1145.517 L72.65625,1159.31 L73.4375,1242.069 L74.21875,1276.552 L75,1255.862 L75.78125,1173.103 L76.5625,1138.621 L77.34375,1190.345 L78.125,1252.414 L78.90625,1231.724 L79.6875,1248.966 L80.46875,1211.034 L81.25,1131.724 L82.03125,1248.966 L82.8125,1221.379 L83.59375,1186.897 L84.375,1166.207 L85.15625,1214.483 L85.9375,1169.655 L86.71875,1252.414 L87.5,1204.138 L88.28125,1242.069 L89.0625,1214.483 L89.84375,1221.379 L90.625,1135.172 L91.40625,1266.207 L92.1875,1148.966 L92.96875,1138.621 L93.75,1166.207 L94.53125,1162.759 L95.3125,1217.931 L96.09375,1221.379 L96.875,1173.103 L97.65625,1200.69 L98.4375,1190.345 L99.21875,1107.586 L100,1248.966 L100.7813,1200.69 L101.5625,1217.931 L102.3438,1186.897 L103.125,1093.793 L103.9063,1259.31 L104.6875,1193.793 L105.4688,1173.103 L106.25,1207.586 L107.0313,1235.172 L107.8125,1148.966 L108.5938,1159.31 L109.375,1138.621 L110.1563,1169.655 L110.9375,1190.345 L111.7188,1224.828 L112.5,1238.621 L113.2813,1190.345 L114.0625,1162.759 L114.8438,1166.207 L115.625,1190.345 L116.4063,1200.69 L117.1875,1266.207 L117.9688,1173.103 L118.75,1252.414 L119.5313,1190.345 L120.3125,1135.172 L121.0938,1138.621 L121.875,1269.655 L122.6563,1173.103 L123.4375,1193.793 L124.2188,1245.517 L125,1193.793 L125.7813,1248.966 L126.5625,1252.414 L127.3438,1193.793 L128.125,1228.276 L128.9063,1138.621 L129.6875,1245.517 L130.4688,1173.103 L131.25,1166.207 L132.0313,1180 L132.8125,1217.931 L133.5938,1255.862 L134.375,1231.724 L135.1563,1262.759 L135.9375,1214.483 L136.7188,1224.828 L137.5,1186.897 L138.2813,1197.241 L139.0625,1204.138 L139.8438,1211.034 L140.625,1180 L141.4063,1204.138 L142.1875,1255.862 L142.9688,1224.828 L143.75,1214.483 L144.5313,1193.793 L145.3125,1169.655 L146.0938,1214.483 L146.875,1190.345 L147.6563,1211.034 L148.4375,1255.862 L149.2188,1169.655 L150,1204.138 L150.7813,1214.483 L151.5625,1200.69 L152.3438,1186.897 L153.125,1242.069 L153.9063,1238.621 L154.6875,1145.517 L155.4688,1211.034 L156.25,1169.655 L157.0313,1200.69 L157.8125,1186.897 L158.5938,1231.724 L159.375,1173.103 L160.1563,1173.103 L160.9375,1259.31 L161.7188,1238.621 L162.5,1204.138 L163.2813,1131.724 L164.0625,1207.586 L164.8438,1097.241 L165.625,1197.241 L166.4063,1211.034 L167.1875,1200.69 L167.9688,1238.621 L168.75,1190.345 L169.5313,1211.034 L170.3125,1180 L171.0938,1166.207 L171.875,1269.655 L172.6563,1255.862 L173.4375,1231.724 L174.2188,1173.103 L175,1166.207 L175.7813,1262.759 L176.5625,1248.966 L177.3438,1235.172 L178.125,1217.931 L178.9063,1217.931 L179.6875,1204.138 L180.4688,1245.517 L181.25,1217.931 L182.0313,1214.483 L182.8125,1248.966 L183.5938,1259.31 L184.375,1193.793 L185.1563,1217.931 L185.9375,1200.69 L186.7188,1235.172 L187.5,1242.069 L188.2813,1248.966 L189.0625,1193.793 L189.8438,1273.103 L190.625,1169.655 L191.4063,1173.103 L192.1875,1266.207 L192.9688,1245.517 L193.75,1138.621 L194.5313,1180 L195.3125,1183.448 L196.0938,1152.414 L196.875,1166.207 L197.6563,1259.31 L198.4375,1259.31 L199.2188,1214.483 L200,1276.552 L200.7813,1242.069 L201.5625,1252.414 L202.3438,1180 L203.125,1107.586 L203.9063,1245.517 L204.6875,1200.69 L205.4688,1248.966 L206.25,1145.517 L207.0313,1197.241 L207.8125,1214.483 L208.5938,1193.793 L209.375,1262.759 L210.1563,1169.655 L210.9375,1269.655 L211.7188,1238.621 L212.5,1238.621 L213.2813,1204.138 L214.0625,1204.138 L214.8438,1162.759 L215.625,1190.345 L216.4063,1204.138 L217.1875,1176.552 L217.9688,1221.379 L218.75,1197.241 L219.5313,1255.862 L220.3125,1217.931 L221.0938,1159.31 L221.875,1162.759 L222.6563,1228.276 L223.4375,1211.034 L224.2188,1190.345 L225,1197.241 L225.7813,1166.207 L226.5625,1162.759 L227.3438,1183.448 L228.125,1135.172 L228.9063,1162.759 L229.6875,1183.448 L230.4688,1204.138 L231.25,1245.517 L232.0313,1148.966 L232.8125,1135.172 L233.5938,1162.759 L234.375,1217.931 L235.1563,1214.483 L235.9375,1207.586 L236.7188,1104.138 L237.5,1080 L238.2813,1217.931 L239.0625,1211.034 L239.8438,1207.586 L240.625,1207.586 L241.4063,1193.793 L242.1875,1235.172 L242.9688,1273.103 L243.75,1183.448 L244.5313,1169.655 L245.3125,1224.828 L246.0938,1190.345 L246.875,1231.724 L247.6563,1273.103 L248.4375,1231.724 L249.2188,1217.931 L250,1131.724 L250.7813,1148.966 L251.5625,1186.897 L252.3438,1176.552 L253.125,1262.759 L253.9063,1173.103 L254.6875,1186.897 L255.4688,1242.069 L256.25,1221.379 L257.0313,1173.103 L257.8125,1148.966 L258.5938,1228.276 L259.375,1159.31 L260.1563,1248.966 L260.9375,1259.31 L261.7188,1190.345 L262.5,1162.759 L263.2813,1252.414 L264.0625,1214.483 L264.8438,1180 L265.625,1248.966 L266.4063,1255.862 L267.1875,1135.172 L267.9688,1145.517 L268.75,1207.586 L269.5313,1155.862 L270.3125,1155.862 L271.0938,1152.414 L271.875,1262.759 L272.6563,1242.069 L273.4375,1190.345 L274.2188,1186.897 L275,1190.345 L275.7813,1169.655 L276.5625,1204.138 L277.3438,1214.483 L278.125,1186.897 L278.9063,1183.448 L279.6875,1180 L280.4688,1231.724 L281.25,1248.966 L282.0313,1207.586 L282.8125,1197.241 L283.5938,1214.483 L284.375,1228.276 L285.1563,1159.31 L285.9375,1183.448 L286.7188,1162.759 L287.5,1266.207 L288.2813,1221.379 L289.0625,1231.724 L289.8438,1193.793 L290.625,1276.552 L291.4063,1197.241 L292.1875,1248.966 L292.9688,1242.069 L293.75,1180 L294.5313,1169.655 L295.3125,1169.655 L296.0938,1190.345 L296.875,1238.621 L297.6563,1248.966 L298.4375,1266.207 L299.2188,1193.793 L300,1121.379 L300.7813,1262.759 L301.5625,1197.241 L302.3438,1183.448 L303.125,1242.069 L303.9063,1193.793 L304.6875,1152.414 L305.4688,1190.345 L306.25,1211.034 L307.0313,1207.586 L307.8125,1214.483 L308.5938,1235.172 L309.375,1190.345 L310.1563,1252.414 L310.9375,1186.897 L311.7188,1259.31 L312.5,1259.31 L313.2813,1190.345 L314.0625,1235.172 L314.8438,1107.586 L315.625,1221.379 L316.4063,1214.483 L317.1875,1145.517 L317.9688,1235.172 L318.75,1211.034 L319.5313,1176.552 L320.3125,1152.414 L321.0938,1183.448 L321.875,1200.69 L322.6563,1207.586 L323.4375,1183.448 L324.2188,1176.552 L325,1083.448 L325.7813,1180 L326.5625,1207.586 L327.3438,1259.31 L328.125,1238.621 L328.9063,1173.103 L329.6875,1180 L330.4688,1193.793 L331.25,1183.448 L332.0313,1186.897 L332.8125,1211.034 L333.5938,1211.034 L334.375,1255.862 L335.1563,1238.621 L335.9375,1224.828 L336.7188,1180 L337.5,1166.207 L338.2813,1252.414 L339.0625,1214.483 L339.8438,1228.276 L340.625,1259.31 L341.4063,1259.31 L342.1875,1214.483 L342.9688,1142.069 L343.75,1124.828 L344.5313,1173.103 L345.3125,1217.931 L346.0938,1197.241 L346.875,1197.241 L347.6563,1259.31 L348.4375,1224.828 L349.2188,1262.759 L350,1266.207 L350.7813,1204.138 L351.5625,1248.966 L352.3438,1190.345 L353.125,1080 L353.9063,1183.448 L354.6875,1235.172 L355.4688,1176.552 L356.25,1100.69 L357.0313,1159.31 L357.8125,1180 L358.5938,1204.138 L359.375,1255.862 L360.1563,1255.862 L360.9375,1217.931 L361.7188,1190.345 L362.5,1245.517 L363.2813,1231.724 L364.0625,1273.103 L364.8438,1131.724 L365.625,1228.276 L366.4063,1159.31 L367.1875,1259.31 L367.9688,1228.276 L368.75,1197.241 L369.5313,1166.207 L370.3125,1173.103 L371.0938,1224.828 L371.875,1207.586 L372.6563,1204.138 L373.4375,1173.103 L374.2188,1197.241 L375,1159.31 L375.7813,1204.138 L376.5625,1211.034 L377.3438,1231.724 L378.125,1248.966 L378.9063,1221.379 L379.6875,1200.69 L380.4688,1242.069 L381.25,1186.897 L382.0313,1193.793 L382.8125,1255.862 L383.5938,1235.172 L384.375,1173.103 L385.1563,1200.69 L385.9375,1090.345 L386.7188,1238.621 L387.5,1180 L388.2813,1186.897 L389.0625,1269.655 L389.8438,1180 L390.625,1204.138 L391.4063,1166.207 L392.1875,1142.069 L392.9688,1173.103 L393.75,1193.793 L394.5313,1217.931 L395.3125,1266.207 L396.0938,1131.724 L396.875,1248.966 L397.6563,1221.379 L398.4375,1221.379 L399.2188,1197.241 L400,1235.172 L400.7813,1255.862 L401.5625,1235.172 L402.3438,1211.034 L403.125,1193.793 L403.9063,1176.552 L404.6875,1266.207 L405.4688,1176.552 L406.25,1273.103 L407.0313,1197.241 L407.8125,1231.724 L408.5938,1252.414 L409.375,1221.379 L410.1563,1238.621 L410.9375,1193.793 L411.7188,1200.69 L412.5,1166.207 L413.2813,1176.552 L414.0625,1183.448 L414.8438,1221.379 L415.625,1204.138 L416.4063,1204.138 L417.1875,1193.793 L417.9688,1252.414 L418.75,1207.586 L419.5313,1221.379 L420.3125,1183.448 L421.0938,1273.103 L421.875,1176.552 L422.6563,1186.897 L423.4375,1173.103 L424.2188,1207.586 L425,1214.483 L425.7813,1183.448 L426.5625,1169.655 L427.3438,1207.586 L428.125,1266.207 L428.9063,1273.103 L429.6875,1152.414 L430.4688,1124.828 L431.25,1217.931 L432.0313,1183.448 L432.8125,1248.966 L433.5938,1238.621 L434.375,1273.103 L435.1563,1248.966 L435.9375,1273.103 L436.7188,1269.655 L437.5,1217.931 L438.2813,1228.276 L439.0625,1245.517 L439.8438,1214.483 L440.625,1204.138 L441.4063,1266.207 L442.1875,1166.207 L442.9688,1255.862 L443.75,1269.655 L444.5313,1273.103 L445.3125,1169.655 L446.0938,1238.621 L446.875,1180 L447.6563,1204.138 L448.4375,1221.379 L449.2188,1186.897 L450,1186.897 L450.7813,1217.931 L451.5625,1255.862 L452.3438,1197.241 L453.125,1217.931 L453.9063,1190.345 L454.6875,1228.276 L455.4688,1148.966 L456.25,1200.69 L457.0313,1162.759 L457.8125,1224.828 L458.5938,1245.517 L459.375,1255.862 L460.1563,1145.517 L460.9375,1214.483 L461.7188,1148.966 L462.5,1186.897 L463.2813,1097.241 L464.0625,1231.724 L464.8438,1245.517 L465.625,1266.207 L466.4063,1242.069 L467.1875,1180 L467.9688,1183.448 L468.75,1252.414 L469.5313,1217.931 L470.3125,1269.655 L471.0938,1262.759 L471.875,1276.552 L472.6563,1166.207 L473.4375,1242.069 L474.2188,1280 L475,1252.414 L475.7813,1162.759 L476.5625,1176.552 L477.3438,1217.931 L478.125,1180 L478.9063,1214.483 L479.6875,1135.172 L480.4688,1190.345 L481.25,1269.655 L482.0313,1262.759 L482.8125,1107.586 L483.5938,1204.138 L484.375,1248.966 L485.1563,1262.759 L485.9375,1190.345 L486.7188,1193.793 L487.5,1183.448 L488.2813,1166.207 L489.0625,1173.103 L489.8438,1214.483 L490.625,1248.966 L491.4063,1255.862 L492.1875,1231.724 L492.9688,1173.103 L493.75,1221.379 L494.5313,1183.448 L495.3125,1259.31 L496.0938,1204.138 L496.875,1262.759 L497.6563,1228.276 L498.4375,1252.414 L499.2188,1245.517 L500,1193.793 L500.7813,1211.034 L501.5625,1217.931 L502.3438,1173.103 L503.125,1262.759 L503.9063,1183.448 L504.6875,1207.586 L505.4688,1224.828 L506.25,1235.172 L507.0313,1169.655 L507.8125,1266.207 L508.5938,1176.552 L509.375,1235.172 L510.1563,1148.966 L510.9375,1252.414 L511.7188,1276.552 L512.5,1214.483 L513.2813,1259.31 L514.0625,1173.103 L514.8438,1162.759 L515.625,1262.759 L516.4063,1214.483 L517.1875,1152.414 L517.9688,1193.793 L518.75,1224.828 L519.5313,1259.31 L520.3125,1200.69 L521.0938,1200.69 L521.875,1266.207 L522.6563,1238.621 L523.4375,1190.345 L524.2188,1186.897 L525,1204.138 L525.7813,1228.276 L526.5625,1176.552 L527.3438,1193.793 L528.125,1214.483 L528.9063,1180 L529.6875,1190.345 L530.4688,1248.966 L531.25,1211.034 L532.0313,1207.586 L532.8125,1224.828 L533.5938,1190.345 L534.375,1197.241 L535.1563,1166.207 L535.9375,1162.759 L536.7188,1242.069 L537.5,1245.517 L538.2813,1224.828 L539.0625,1231.724 L539.8438,1162.759 L540.625,1252.414 " stroke="blue" fill="none" />
<text x="50" y="1330" font-family="Arial" font-size="12" fill="black">Policy Loss</text>
<text x="50" y="1345" font-family="Arial" font-size="10" fill="black">0.01636117</text>
<text x="50" y="1560" font-family="Arial" font-size="10" fill="black">0.001803844</text>
<path d="M50,1406.51 L62.5,1527.759 L75,1536.605 L87.5,1535.333 L100,1529.594 L112.5,1528.948 L125,1529.692 L137.5,1522.458 L150,1350 L162.5,1533.111 L175,1526.052 L187.5,1524.143 L200,1531.168 L212.5,1519.146 L225,1537.269 L237.5,1540.034 L250,1412.786 L262.5,1545.977 L275,1529.195 L287.5,1525.099 L300,1535.757 L312.5,1530.741 L325,1536.315 L337.5,1538.427 L350,1394.996 L362.5,1530.709 L375,1531.196 L387.5,1537.381 L400,1550 L412.5,1527.184 L425,1519.078 L437.5,1537.815 " stroke="blue" fill="none" />
<text x="50" y="1600" font-family="Arial" font-size="12" fill="black">Value Loss</text>
<text x="50" y="1615" font-family="Arial" font-size="10" fill="black">0.001707938</text>
<text x="50" y="1830" font-family="Arial" font-size="10" fill="black">0.001080383</text>
<path d="M50,1704.05 L62.5,1746.984 L75,1764.881 L87.5,1780.202 L100,1791.339 L112.5,1802.524 L125,1811.097 L137.5,1820 L150,1669.858 L162.5,1718.734 L175,1740.708 L187.5,1754.976 L200,1767.374 L212.5,1777.082 L225,1787.55 L237.5,1796.827 L250,1620.003 L262.5,1657.406 L275,1684.718 L287.5,1701.974 L300,1716.847 L312.5,1729.525 L325,1740.594 L337.5,1752.646 L350,1714.66 L362.5,1745.135 L375,1765.196 L387.5,1779.481 L400,1791.608 L412.5,1801.264 L425,1811.08 L437.5,1819.013 " stroke="blue" fill="none" />
<text x="50" y="1870" font-family="Arial" font-size="12" fill="black">Learning Rate</text>
<text x="50" y="1885" font-family="Arial" font-size="10" fill="black">0.000249999</text>
<text x="50" y="2100" font-family="Arial" font-size="10" fill="black">0.0002499665</text>
<path d="M50,1937.081 L62.5,1942.014 L75,1946.947 L87.5,1951.88 L100,1956.813 L112.5,1961.745 L125,1966.678 L137.5,1971.611 L150,1976.544 L162.5,1981.477 L175,1986.41 L187.5,1991.343 L200,1996.276 L212.5,2001.208 L225,2006.141 L237.5,2011.074 L250,2016.007 L262.5,2020.94 L275,2025.873 L287.5,2030.806 L300,2035.738 L312.5,2040.671 L325,2045.604 L337.5,2050.537 L350,2055.47 L362.5,2060.403 L375,2065.336 L387.5,2070.269 L400,2075.201 L412.5,2080.134 L425,2085.067 L437.5,2090 " stroke="blue" fill="none" />
<text x="50" y="2140" font-family="Arial" font-size="12" fill="black">Epsilon</text>
<text x="50" y="2155" font-family="Arial" font-size="10" fill="black">0.2</text>
<text x="50" y="2370" font-family="Arial" font-size="10" fill="black">0.2</text>
<path d="M50,2360 L62.5,2360 L75,2360 L87.5,2360 L100,2360 L112.5,2360 L125,2360 L137.5,2360 L150,2360 L162.5,2360 L175,2360 L187.5,2360 L200,2360 L212.5,2360 L225,2360 L237.5,2360 L250,2360 L262.5,2360 L275,2360 L287.5,2360 L300,2360 L312.5,2360 L325,2360 L337.5,2360 L350,2360 L362.5,2360 L375,2360 L387.5,2360 L400,2360 L412.5,2360 L425,2360 L437.5,2360 " stroke="blue" fill="none" />
<text x="750" y="790" font-family="Arial" font-size="12" fill="black">Simplified</text>
<text x="750" y="805" font-family="Arial" font-size="10" fill="black">0.7870173</text>
<text x="750" y="1020" font-family="Arial" font-size="10" fill="black">0.4914933</text>
<path d="M764.0625,884.1346 L778.9063,886.6868 L793.75,880.9678 L808.5938,831.4583 L823.4375,858.4158 L838.2813,941.3411 L853.125,920.4859 L867.9688,868.6774 L882.8125,976.2707 L897.6563,934.1048 L912.5,974.6507 L927.3438,871.2287 L942.1875,810 L957.0313,909.2209 L971.875,879.9296 L986.7188,884.0192 L1001.563,966.4854 L1016.406,921.0259 L1031.25,822.4465 L1046.094,937.3027 L1060.938,907.1735 L1075.781,892.1982 L1090.625,920.5998 L1105.469,920.166 L1120.313,936.8759 L1135.156,942.3714 L1150,1010 L1164.844,889.87 L1179.688,980.2863 L1194.531,937.1691 L1209.375,981.6929 L1224.219,952.5186 L1239.063,917.2485 L1240.625,914.1337 " stroke="blue" fill="none" />
<text x="750" y="1060" font-family="Arial" font-size="12" fill="black">Simplified</text>
<text x="750" y="1075" font-family="Arial" font-size="10" fill="black">33.15789</text>
<text x="750" y="1290" font-family="Arial" font-size="10" fill="black">21</text>
<path d="M764.0625,1164.849 L778.9063,1162.251 L793.75,1158.788 L808.5938,1111.169 L823.4375,1127.619 L838.2813,1226.32 L853.125,1198.615 L867.9688,1140.606 L882.8125,1251.429 L897.6563,1211.602 L912.5,1251.429 L927.3438,1135.411 L942.1875,1080 L957.0313,1186.494 L971.875,1152.727 L986.7188,1157.056 L1001.563,1241.039 L1016.406,1198.615 L1031.25,1104.242 L1046.094,1201.212 L1060.938,1187.359 L1075.781,1175.238 L1090.625,1199.48 L1105.469,1194.286 L1120.313,1217.662 L1135.156,1216.797 L1150,1280 L1164.844,1165.714 L1179.688,1256.623 L1194.531,1207.273 L1209.375,1264.416 L1224.219,1231.515 L1239.063,1196.883 L1240.625,1197.749 " stroke="blue" fill="none" />
</svg>
