<svg width="2000" height="2500" xmlns="http://www.w3.org/2000/svg">
<text x="10" y="20" font-family="Arial" font-size="26" fill="black"> [HumanWalk] Training Session</text>
<text x="10" y="50" font-family="Arial" font-size="16" fill="black">[Statistics]</text>
<text x="50" y="70" font-family="Arial" font-size="12" fill="black">Started at: 8:32:36 PM, Wednesday, October 18, 2023</text>
<text x="50" y="90" font-family="Arial" font-size="12" fill="black">Finished at: 8:33:49 PM, Wednesday, October 18, 2023</text>
<text x="50" y="110" font-family="Arial" font-size="12" fill="black">Training Session Time: 0 hrs : 1 min : 12 sec</text>
<text x="50" y="130" font-family="Arial" font-size="12" fill="black">Inference Time: 0 hrs : 3 min : 2 sec       [Per agent: 0 hrs : 3 min : 2 sec]        [Device: CPU]</text>
<text x="50" y="150" font-family="Arial" font-size="12" fill="black">Policy Update Time: 0 hrs : 0 min : 12 sec        [Per iteration: 0 hrs : 0 min : 11 sec]        [Device: GPU]</text>
<text x="50" y="170" font-family="Arial" font-size="12" fill="black">Inference Time / Training Session Time: 2.449</text>
<text x="50" y="190" font-family="Arial" font-size="12" fill="black">Policy Update Time / Training Session Time: 0.167</text>
<text x="50" y="210" font-family="Arial" font-size="12" fill="black">Episode Count: 187</text>
<text x="50" y="230" font-family="Arial" font-size="12" fill="black">Inference Steps: 4546    [Per agent: 4546]     [Per Episode (mean): 24]</text>
<text x="50" y="250" font-family="Arial" font-size="12" fill="black">Iterations: 1</text>
<text x="50" y="270" font-family="Arial" font-size="12" fill="black">Parallel Agents: 1</text>
<text x="50" y="290" font-family="Arial" font-size="12" fill="black">Timescale: 3</text>
<text x="10" y="340" font-family="Arial" font-size="16" fill="black">[Hyperparameters]</text>
<text x="50" y="360" font-family="Arial" font-size="12" fill="black">Buffer Size: 4096        [Batch Size: 256       (x16)]</text>
<text x="50" y="380" font-family="Arial" font-size="12" fill="black">Num Epoch: 8</text>
<text x="50" y="400" font-family="Arial" font-size="12" fill="black">Time Horizon: 72</text>
<text x="50" y="420" font-family="Arial" font-size="12" fill="black">Gradient Cliping Normalization: 0.5</text>
<text x="50" y="440" font-family="Arial" font-size="12" fill="black">Advantages Normalization: True</text>
<text x="50" y="460" font-family="Arial" font-size="12" fill="black">Training Data Shuffle: True</text>
<text x="50" y="480" font-family="Arial" font-size="12" fill="black">Learning Rate Schedule: False    </text>
<text x="10" y="530" font-family="Arial" font-size="16" fill="black">[Behaviour]</text>
<text x="50" y="550" font-family="Arial" font-size="12" fill="black">Space Size: 142</text>
<text x="50" y="570" font-family="Arial" font-size="12" fill="black">Continuous Actions: 29 [Standard Deviation: Fixed]     [Value: 1.72]</text>
<text x="50" y="590" font-family="Arial" font-size="12" fill="black">Discrete Actions: 0</text>
<text x="50" y="610" font-family="Arial" font-size="12" fill="black">TargetFPS: 50 (physics update rate)</text>
<text x="50" y="630" font-family="Arial" font-size="12" fill="black">Observations Normalization: False</text>
<text x="10" y="680" font-family="Arial" font-size="16" fill="black">[Decision Requester]</text>
<text x="50" y="700" font-family="Arial" font-size="12" fill="black">Max Step: 3000</text>
<text x="50" y="720" font-family="Arial" font-size="12" fill="black">Decision Period: 2      [Actions Between Decisions: True]</text>
<text x="10" y="770" font-family="Arial" font-size="16" fill="black">[Graphs]</text>
<text x="50" y="790" font-family="Arial" font-size="12" fill="black">Episode Reward (187)</text>
<text x="50" y="805" font-family="Arial" font-size="10" fill="black">1.182831</text>
<text x="50" y="1020" font-family="Arial" font-size="10" fill="black">0.1316363</text>
<path d="M50,946.3049 L51.5625,892.8403 L53.125,972.8815 L54.6875,905.6714 L56.25,961.3036 L57.8125,985.9905 L59.375,957.5303 L60.9375,868.0508 L62.5,995.4178 L64.0625,980.5485 L65.625,969.7136 L67.1875,875.1987 L68.75,852.2396 L70.3125,942.8582 L71.875,895.6223 L73.4375,906.6661 L75,935.3264 L76.5625,922.5663 L78.125,862.5143 L79.6875,897.9728 L81.25,916.2441 L82.8125,907.6233 L84.375,910.7991 L85.9375,923.1368 L87.5,958.8583 L89.0625,977.5969 L90.625,945.8276 L92.1875,942.5689 L93.75,946.2885 L95.3125,922.4847 L96.875,919.9191 L98.4375,898.7117 L100,853.2311 L101.5625,996.102 L103.125,905.1626 L104.6875,901.7178 L106.25,934.5709 L107.8125,846.3668 L109.375,962.1779 L110.9375,930.7748 L112.5,941.0449 L114.0625,925.3403 L115.625,1000.408 L117.1875,891.4293 L118.75,903.4987 L120.3125,922.064 L121.875,899.4628 L123.4375,944.0491 L125,908.2632 L126.5625,932.3787 L128.125,866.4827 L129.6875,896.1964 L131.25,888.7775 L132.8125,937.6462 L134.375,857.9637 L135.9375,882.2347 L137.5,905.522 L139.0625,853.2458 L140.625,933.4563 L142.1875,948.6681 L143.75,925.6501 L145.3125,881.3391 L146.875,919.5759 L148.4375,921.5612 L150,918.4175 L151.5625,960.2867 L153.125,894.6984 L154.6875,914.8641 L156.25,963.3171 L157.8125,954.8914 L159.375,968.3729 L160.9375,949.9676 L162.5,876.8049 L164.0625,1010 L165.625,959.4731 L167.1875,945.6342 L168.75,860.5129 L170.3125,920.4567 L171.875,986.4833 L173.4375,902.7552 L175,915.428 L176.5625,964.548 L178.125,915.8269 L179.6875,951.2598 L181.25,977.0422 L182.8125,839.2574 L184.375,994.8784 L185.9375,878.7293 L187.5,923.5425 L189.0625,947.7358 L190.625,901.3546 L192.1875,879.5166 L193.75,974.3906 L195.3125,928.181 L196.875,888.269 L198.4375,877.1376 L200,874.4539 L201.5625,952.3884 L203.125,843.2017 L204.6875,982.8697 L206.25,960.9443 L207.8125,1005.366 L209.375,929.4638 L210.9375,934.6647 L212.5,880.3732 L214.0625,948.8477 L215.625,877.3997 L217.1875,987.8188 L218.75,995.7804 L220.3125,963.9659 L221.875,872.4184 L223.4375,1000.029 L225,990.8389 L226.5625,939.0306 L228.125,914.2764 L229.6875,827.9714 L231.25,884.2299 L232.8125,929.5565 L234.375,891.5443 L235.9375,962.654 L237.5,896.569 L239.0625,962.5386 L240.625,953.0026 L242.1875,1000.682 L243.75,968.1945 L245.3125,957.7415 L246.875,924.6834 L248.4375,892.3408 L250,944.2137 L251.5625,900.7308 L253.125,950.5323 L254.6875,971.033 L256.25,948.8096 L257.8125,957.0562 L259.375,977.0844 L260.9375,951.8582 L262.5,889.8817 L264.0625,921.8566 L265.625,953.7418 L267.1875,962.2197 L268.75,853.6385 L270.3125,907.7473 L271.875,948.2408 L273.4375,871.0874 L275,870.7815 L276.5625,981.4528 L278.125,944.6801 L279.6875,930.5164 L281.25,892.6069 L282.8125,962.8265 L284.375,884.72 L285.9375,939.3464 L287.5,916.0523 L289.0625,981.5624 L290.625,984.9653 L292.1875,969.3926 L293.75,990.3729 L295.3125,883.1964 L296.875,995.1642 L298.4375,923.3792 L300,868.0546 L301.5625,936.5076 L303.125,886.9556 L304.6875,902.8444 L306.25,893.6885 L307.8125,879.1735 L309.375,985.9142 L310.9375,885.0175 L312.5,906.2077 L314.0625,962.1283 L315.625,887.2564 L317.1875,810 L318.75,915.6582 L320.3125,924.175 L321.875,907.8689 L323.4375,816.2659 L325,908.6343 L326.5625,918.6212 L328.125,900.9661 L329.6875,863.2204 L331.25,864.8522 L332.8125,863.0115 L334.375,864.6906 L335.9375,988.884 L337.5,977.586 L339.0625,926.4654 L340.625,970.9578 " stroke="blue" fill="none" />
<text x="50" y="1060" font-family="Arial" font-size="12" fill="black">Episode Length (187)</text>
<text x="50" y="1075" font-family="Arial" font-size="10" fill="black">54</text>
<text x="50" y="1290" font-family="Arial" font-size="10" fill="black">5</text>
<path d="M50,1210.612 L51.5625,1165.714 L53.125,1247.347 L54.6875,1173.878 L56.25,1239.184 L57.8125,1259.592 L59.375,1235.102 L60.9375,1153.469 L62.5,1267.755 L64.0625,1255.51 L65.625,1243.265 L67.1875,1149.388 L68.75,1133.061 L70.3125,1222.857 L71.875,1169.796 L73.4375,1186.122 L75,1198.367 L76.5625,1202.449 L78.125,1141.224 L79.6875,1186.122 L81.25,1202.449 L82.8125,1177.959 L84.375,1182.041 L85.9375,1202.449 L87.5,1235.102 L89.0625,1251.429 L90.625,1222.857 L92.1875,1222.857 L93.75,1222.857 L95.3125,1190.204 L96.875,1194.286 L98.4375,1177.959 L100,1124.898 L101.5625,1267.755 L103.125,1182.041 L104.6875,1186.122 L106.25,1206.531 L107.8125,1137.143 L109.375,1239.184 L110.9375,1198.367 L112.5,1218.776 L114.0625,1206.531 L115.625,1271.837 L117.1875,1177.959 L118.75,1157.551 L120.3125,1190.204 L121.875,1177.959 L123.4375,1222.857 L125,1186.122 L126.5625,1210.612 L128.125,1141.224 L129.6875,1161.633 L131.25,1169.796 L132.8125,1218.776 L134.375,1137.143 L135.9375,1161.633 L137.5,1173.878 L139.0625,1145.306 L140.625,1214.694 L142.1875,1222.857 L143.75,1206.531 L145.3125,1153.469 L146.875,1182.041 L148.4375,1206.531 L150,1177.959 L151.5625,1235.102 L153.125,1169.796 L154.6875,1198.367 L156.25,1239.184 L157.8125,1235.102 L159.375,1243.265 L160.9375,1231.02 L162.5,1165.714 L164.0625,1280 L165.625,1231.02 L167.1875,1218.776 L168.75,1149.388 L170.3125,1206.531 L171.875,1259.592 L173.4375,1173.878 L175,1190.204 L176.5625,1239.184 L178.125,1198.367 L179.6875,1226.939 L181.25,1251.429 L182.8125,1128.98 L184.375,1267.755 L185.9375,1157.551 L187.5,1186.122 L189.0625,1226.939 L190.625,1182.041 L192.1875,1161.633 L193.75,1247.347 L195.3125,1198.367 L196.875,1169.796 L198.4375,1165.714 L200,1165.714 L201.5625,1231.02 L203.125,1124.898 L204.6875,1255.51 L206.25,1239.184 L207.8125,1275.918 L209.375,1206.531 L210.9375,1198.367 L212.5,1157.551 L214.0625,1226.939 L215.625,1169.796 L217.1875,1259.592 L218.75,1267.755 L220.3125,1239.184 L221.875,1157.551 L223.4375,1271.837 L225,1263.673 L226.5625,1214.694 L228.125,1190.204 L229.6875,1120.816 L231.25,1165.714 L232.8125,1206.531 L234.375,1169.796 L235.9375,1239.184 L237.5,1165.714 L239.0625,1239.184 L240.625,1222.857 L242.1875,1271.837 L243.75,1243.265 L245.3125,1235.102 L246.875,1206.531 L248.4375,1165.714 L250,1214.694 L251.5625,1169.796 L253.125,1222.857 L254.6875,1247.347 L256.25,1226.939 L257.8125,1235.102 L259.375,1251.429 L260.9375,1231.02 L262.5,1177.959 L264.0625,1173.878 L265.625,1231.02 L267.1875,1235.102 L268.75,1133.061 L270.3125,1177.959 L271.875,1226.939 L273.4375,1153.469 L275,1161.633 L276.5625,1255.51 L278.125,1222.857 L279.6875,1210.612 L281.25,1177.959 L282.8125,1231.02 L284.375,1161.633 L285.9375,1218.776 L287.5,1190.204 L289.0625,1255.51 L290.625,1259.592 L292.1875,1243.265 L293.75,1263.673 L295.3125,1157.551 L296.875,1267.755 L298.4375,1202.449 L300,1149.388 L301.5625,1218.776 L303.125,1161.633 L304.6875,1190.204 L306.25,1173.878 L307.8125,1161.633 L309.375,1259.592 L310.9375,1161.633 L312.5,1177.959 L314.0625,1239.184 L315.625,1165.714 L317.1875,1080 L318.75,1182.041 L320.3125,1190.204 L321.875,1177.959 L323.4375,1096.327 L325,1190.204 L326.5625,1202.449 L328.125,1182.041 L329.6875,1128.98 L331.25,1153.469 L332.8125,1141.224 L334.375,1145.306 L335.9375,1259.592 L337.5,1251.429 L339.0625,1194.286 L340.625,1247.347 " stroke="blue" fill="none" />
<text x="50" y="1330" font-family="Arial" font-size="12" fill="black">Policy Loss</text>
<text x="50" y="1345" font-family="Arial" font-size="10" fill="black">0.009486401</text>
<text x="50" y="1560" font-family="Arial" font-size="10" fill="black">0.002140627</text>
<path d="M50,1350 L75,1503.842 L100,1525.729 L125,1503.868 L150,1528.459 L175,1550 L200,1545.131 L225,1515.046 " stroke="blue" fill="none" />
<text x="50" y="1600" font-family="Arial" font-size="12" fill="black">Value Loss</text>
<text x="50" y="1615" font-family="Arial" font-size="10" fill="black">0.001192615</text>
<text x="50" y="1830" font-family="Arial" font-size="10" fill="black">0.0009113963</text>
<path d="M50,1620.007 L75,1685.153 L100,1716.962 L125,1741.758 L150,1764.873 L175,1784.428 L200,1805.45 L225,1820 " stroke="blue" fill="none" />
<text x="50" y="1870" font-family="Arial" font-size="12" fill="black">Learning Rate</text>
<text x="50" y="1885" font-family="Arial" font-size="10" fill="black">0.000249999</text>
<text x="50" y="2100" font-family="Arial" font-size="10" fill="black">0.0002499916</text>
<path d="M50,2005.379 L75,2017.468 L100,2029.557 L125,2041.645 L150,2053.734 L175,2065.823 L200,2077.911 L225,2090 " stroke="blue" fill="none" />
<text x="50" y="2140" font-family="Arial" font-size="12" fill="black">Epsilon</text>
<text x="50" y="2155" font-family="Arial" font-size="10" fill="black">0.2</text>
<text x="50" y="2370" font-family="Arial" font-size="10" fill="black">0.2</text>
<path d="M50,2360 L75,2360 L100,2360 L125,2360 L150,2360 L175,2360 L200,2360 L225,2360 " stroke="blue" fill="none" />
<text x="750" y="790" font-family="Arial" font-size="12" fill="black">Simplified</text>
<text x="750" y="805" font-family="Arial" font-size="10" fill="black">0.7026134</text>
<text x="750" y="1020" font-family="Arial" font-size="10" fill="black">0.5114515</text>
<path d="M778.125,955.6619 L807.8125,919.756 L837.5,888.0737 L867.1875,976.2048 L896.875,932.7756 L926.5625,1010 L956.25,970.7292 L985.9375,947.5867 L1015.625,958.1477 L1040.625,810 " stroke="blue" fill="none" />
<text x="750" y="1060" font-family="Arial" font-size="12" fill="black">Simplified</text>
<text x="750" y="1075" font-family="Arial" font-size="10" fill="black">30.375</text>
<text x="750" y="1290" font-family="Arial" font-size="10" fill="black">20.84211</text>
<path d="M778.125,1215.956 L807.8125,1193.872 L837.5,1153.016 L867.1875,1243.561 L896.875,1207.122 L926.5625,1280 L956.25,1234.727 L985.9375,1219.268 L1015.625,1228.102 L1040.625,1080 " stroke="blue" fill="none" />
</svg>
