<svg width="2000" height="2500" xmlns="http://www.w3.org/2000/svg">
<text x="10" y="20" font-family="Arial" font-size="26" fill="black"> [HumanWalk] Training Session</text>
<text x="10" y="50" font-family="Arial" font-size="16" fill="black">[Statistics]</text>
<text x="50" y="70" font-family="Arial" font-size="12" fill="black">Started at: 7:52:43 PM, Wednesday, October 18, 2023</text>
<text x="50" y="90" font-family="Arial" font-size="12" fill="black">Finished at: 7:55:02 PM, Wednesday, October 18, 2023</text>
<text x="50" y="110" font-family="Arial" font-size="12" fill="black">Training Session Time: 0 hrs : 2 min : 18 sec</text>
<text x="50" y="130" font-family="Arial" font-size="12" fill="black">Inference Time: 0 hrs : 5 min : 38 sec       [Per agent: 0 hrs : 5 min : 38 sec]        [Device: CPU]</text>
<text x="50" y="150" font-family="Arial" font-size="12" fill="black">Policy Update Time: 0 hrs : 0 min : 25 sec        [Per iteration: 0 hrs : 0 min : 12 sec]        [Device: GPU]</text>
<text x="50" y="170" font-family="Arial" font-size="12" fill="black">Inference Time / Training Session Time: 2.414</text>
<text x="50" y="190" font-family="Arial" font-size="12" fill="black">Policy Update Time / Training Session Time: 0.180</text>
<text x="50" y="210" font-family="Arial" font-size="12" fill="black">Episode Count: 311</text>
<text x="50" y="230" font-family="Arial" font-size="12" fill="black">Inference Steps: 8443    [Per agent: 8443]     [Per Episode (mean): 27]</text>
<text x="50" y="250" font-family="Arial" font-size="12" fill="black">Iterations: 2</text>
<text x="50" y="270" font-family="Arial" font-size="12" fill="black">Parallel Agents: 1</text>
<text x="50" y="290" font-family="Arial" font-size="12" fill="black">Timescale: 3</text>
<text x="10" y="340" font-family="Arial" font-size="16" fill="black">[Hyperparameters]</text>
<text x="50" y="360" font-family="Arial" font-size="12" fill="black">Buffer Size: 4096        [Batch Size: 256       (x16)]</text>
<text x="50" y="380" font-family="Arial" font-size="12" fill="black">Num Epoch: 8</text>
<text x="50" y="400" font-family="Arial" font-size="12" fill="black">Time Horizon: 72</text>
<text x="50" y="420" font-family="Arial" font-size="12" fill="black">Gradient Cliping Normalization: 0.5</text>
<text x="50" y="440" font-family="Arial" font-size="12" fill="black">Advantages Normalization: True</text>
<text x="50" y="460" font-family="Arial" font-size="12" fill="black">Training Data Shuffle: True</text>
<text x="50" y="480" font-family="Arial" font-size="12" fill="black">Learning Rate Schedule: False    </text>
<text x="10" y="530" font-family="Arial" font-size="16" fill="black">[Behaviour]</text>
<text x="50" y="550" font-family="Arial" font-size="12" fill="black">Space Size: 142</text>
<text x="50" y="570" font-family="Arial" font-size="12" fill="black">Continuous Actions: 29 [Standard Deviation: Fixed]     [Value: 1.5]</text>
<text x="50" y="590" font-family="Arial" font-size="12" fill="black">Discrete Actions: 0</text>
<text x="50" y="610" font-family="Arial" font-size="12" fill="black">TargetFPS: 50 (physics update rate)</text>
<text x="50" y="630" font-family="Arial" font-size="12" fill="black">Observations Normalization: False</text>
<text x="10" y="680" font-family="Arial" font-size="16" fill="black">[Decision Requester]</text>
<text x="50" y="700" font-family="Arial" font-size="12" fill="black">Max Step: 3000</text>
<text x="50" y="720" font-family="Arial" font-size="12" fill="black">Decision Period: 2      [Actions Between Decisions: True]</text>
<text x="10" y="770" font-family="Arial" font-size="16" fill="black">[Graphs]</text>
<text x="50" y="790" font-family="Arial" font-size="12" fill="black">Episode Reward (311)</text>
<text x="50" y="805" font-family="Arial" font-size="10" fill="black">1.292623</text>
<text x="50" y="1020" font-family="Arial" font-size="10" fill="black">0.133172</text>
<path d="M50,810 L51.5625,921.014 L53.125,935.8463 L54.6875,898.8268 L56.25,842.0923 L57.8125,916.2253 L59.375,981.1669 L60.9375,940.6646 L62.5,894.3968 L64.0625,1002.297 L65.625,912.0286 L67.1875,891.1722 L68.75,984.6088 L70.3125,934.051 L71.875,862.0474 L73.4375,832.4061 L75,934.4769 L76.5625,887.5962 L78.125,895.5648 L79.6875,978.5493 L81.25,855.4963 L82.8125,865.1039 L84.375,937.9678 L85.9375,918.2557 L87.5,952.9662 L89.0625,857.4736 L90.625,954.1859 L92.1875,914.2167 L93.75,934.4672 L95.3125,910.9447 L96.875,867.4948 L98.4375,900.8198 L100,887.5718 L101.5625,876.0031 L103.125,975.0917 L104.6875,891.0666 L106.25,909.7798 L107.8125,869.6407 L109.375,961.1422 L110.9375,882.5696 L112.5,948.3561 L114.0625,874.234 L115.625,979.332 L117.1875,878.7405 L118.75,987.6387 L120.3125,923.608 L121.875,857.6011 L123.4375,955.2361 L125,906.545 L126.5625,979.6199 L128.125,994.5164 L129.6875,917.6329 L131.25,883.0089 L132.8125,895.2586 L134.375,829.5558 L135.9375,974.4645 L137.5,869.379 L139.0625,876.6588 L140.625,872.8211 L142.1875,962.0831 L143.75,870.6109 L145.3125,898.0212 L146.875,1010 L148.4375,992.6801 L150,927.937 L151.5625,834.6095 L153.125,895.5907 L154.6875,901.88 L156.25,945.5377 L157.8125,892.4613 L159.375,983.4882 L160.9375,923.8686 L162.5,969.8567 L164.0625,824.3842 L165.625,861.7708 L167.1875,926.1248 L168.75,915.3965 L170.3125,892.0375 L171.875,892.4868 L173.4375,962.3748 L175,879.9465 L176.5625,895.7854 L178.125,925.9204 L179.6875,873.1036 L181.25,909.993 L182.8125,883.9931 L184.375,925.0254 L185.9375,834.0028 L187.5,968.7122 L189.0625,996.8746 L190.625,980.1102 L192.1875,889.1794 L193.75,872.1362 L195.3125,906.0166 L196.875,961.5732 L198.4375,965.5092 L200,909.8725 L201.5625,924.2536 L203.125,990.0373 L204.6875,914.2428 L206.25,878.9077 L207.8125,937.8181 L209.375,984.2971 L210.9375,914.0425 L212.5,921.6346 L214.0625,871.8358 L215.625,927.2003 L217.1875,917.5617 L218.75,992.6469 L220.3125,970.0797 L221.875,884.3122 L223.4375,965.6413 L225,941.8433 L226.5625,937.2137 L228.125,980.2474 L229.6875,871.1277 L231.25,913.3119 L232.8125,886.773 L234.375,875.7592 L235.9375,951.8 L237.5,988.3785 L239.0625,912.9601 L240.625,998.184 L242.1875,911.0811 L243.75,913.9341 L245.3125,933.163 L246.875,903.9653 L248.4375,849.2473 L250,888.2701 L251.5625,932.0063 L253.125,965.8456 L254.6875,902.1657 L256.25,845.5197 L257.8125,855.8802 L259.375,976.5322 L260.9375,913.2256 L262.5,905.5527 L264.0625,988.6823 L265.625,836.811 L267.1875,922.0221 L268.75,926.5729 L270.3125,926.0096 L271.875,919.2634 L273.4375,861.8271 L275,917.8452 L276.5625,984.5134 L278.125,834.4222 L279.6875,880.6554 L281.25,932.4791 L282.8125,969.6103 L284.375,954.1619 L285.9375,917.9984 L287.5,977.1385 L289.0625,983.0239 L290.625,865.9549 L292.1875,885.5974 L293.75,914.4617 L295.3125,984.6042 L296.875,877.4263 L298.4375,985.5018 L300,917.5314 L301.5625,1001.816 L303.125,948.3793 L304.6875,887.4576 L306.25,890.7887 L307.8125,888.5586 L309.375,900.2856 L310.9375,981.6533 L312.5,950.1412 L314.0625,891.1046 L315.625,993.8281 L317.1875,856.1713 L318.75,976.1019 L320.3125,949.4488 L321.875,977.2738 L323.4375,961.9199 L325,971.6416 L326.5625,921.2283 L328.125,922.4216 L329.6875,997.2241 L331.25,970.6258 L332.8125,876.225 L334.375,891.4064 L335.9375,971.6538 L337.5,954.1072 L339.0625,903.7484 L340.625,954.9438 L342.1875,891.8263 L343.75,996.7844 L345.3125,1001.738 L346.875,973.6945 L348.4375,856.2432 L350,936.233 L351.5625,979.6942 L353.125,927.1181 L354.6875,894.8719 L356.25,916.2947 L357.8125,918.7965 L359.375,923.8071 L360.9375,891.6344 L362.5,896.7442 L364.0625,903.3379 L365.625,872.1263 L367.1875,960.9178 L368.75,906.7906 L370.3125,937.5764 L371.875,917.0588 L373.4375,926.5981 L375,1000.846 L376.5625,910.3895 L378.125,989.5085 L379.6875,893.7004 L381.25,984.8254 L382.8125,835.0201 L384.375,923.3721 L385.9375,815.692 L387.5,897.8806 L389.0625,939.1896 L390.625,958.6257 L392.1875,904.1979 L393.75,979.1154 L395.3125,1001.755 L396.875,992.368 L398.4375,929.4498 L400,997.0416 L401.5625,897.7277 L403.125,879.4152 L404.6875,947.4578 L406.25,895.222 L407.8125,964.4913 L409.375,958.7942 L410.9375,979.7345 L412.5,988.5182 L414.0625,983.1148 L415.625,880.4075 L417.1875,961.368 L418.75,969.9646 L420.3125,875.3242 L421.875,932.6804 L423.4375,952.7918 L425,992.5388 L426.5625,935.6268 L428.125,957.8815 L429.6875,1006.005 L431.25,891.3934 L432.8125,890.7583 L434.375,906.2859 L435.9375,819.8617 L437.5,886.3962 L439.0625,939.2849 L440.625,899.388 L442.1875,909.8617 L443.75,962.2471 L445.3125,937.1856 L446.875,878.4171 L448.4375,919.5793 L450,947.5729 L451.5625,890.1974 L453.125,960.5052 L454.6875,932.6325 L456.25,916.5476 L457.8125,966.951 L459.375,976.0555 L460.9375,901.8965 L462.5,975.4755 L464.0625,977.8337 L465.625,911.7219 L467.1875,879.233 L468.75,919.9588 L470.3125,867.1066 L471.875,870.7761 L473.4375,989.0491 L475,858.4458 L476.5625,869.8093 L478.125,921.3591 L479.6875,924.8455 L481.25,975.9233 L482.8125,908.8875 L484.375,946.8317 L485.9375,889.1511 L487.5,914.8065 L489.0625,899.2776 L490.625,913.517 L492.1875,880.5488 L493.75,922.0048 L495.3125,862.7382 L496.875,880.52 L498.4375,909.9548 L500,883.2141 L501.5625,834.5055 L503.125,876.4136 L504.6875,960.0443 L506.25,926.9075 L507.8125,965.3958 L509.375,911.0662 L510.9375,920.5718 L512.5,906.5356 L514.0625,962.549 L515.625,892.6851 L517.1875,920.8568 L518.75,997.2711 L520.3125,872.6964 L521.875,881.6937 L523.4375,943.8674 L525,866.9253 L526.5625,937.5876 L528.125,815.6146 L529.6875,887.4026 L531.25,909.0452 L532.8125,863.8301 L534.375,947.1398 " stroke="blue" fill="none" />
<text x="50" y="1060" font-family="Arial" font-size="12" fill="black">Episode Length (311)</text>
<text x="50" y="1075" font-family="Arial" font-size="10" fill="black">54</text>
<text x="50" y="1290" font-family="Arial" font-size="10" fill="black">5</text>
<path d="M50,1080 L51.5625,1198.367 L53.125,1194.286 L54.6875,1169.796 L56.25,1112.653 L57.8125,1177.959 L59.375,1251.429 L60.9375,1206.531 L62.5,1157.551 L64.0625,1271.837 L65.625,1182.041 L67.1875,1153.469 L68.75,1255.51 L70.3125,1210.612 L71.875,1133.061 L73.4375,1084.082 L75,1206.531 L76.5625,1161.633 L78.125,1161.633 L79.6875,1251.429 L81.25,1116.735 L82.8125,1128.98 L84.375,1210.612 L85.9375,1186.122 L87.5,1214.694 L89.0625,1124.898 L90.625,1226.939 L92.1875,1186.122 L93.75,1198.367 L95.3125,1173.878 L96.875,1137.143 L98.4375,1169.796 L100,1157.551 L101.5625,1153.469 L103.125,1247.347 L104.6875,1149.388 L106.25,1169.796 L107.8125,1141.224 L109.375,1235.102 L110.9375,1161.633 L112.5,1218.776 L114.0625,1137.143 L115.625,1251.429 L117.1875,1149.388 L118.75,1259.592 L120.3125,1190.204 L121.875,1120.816 L123.4375,1226.939 L125,1173.878 L126.5625,1251.429 L128.125,1263.673 L129.6875,1186.122 L131.25,1149.388 L132.8125,1161.633 L134.375,1108.571 L135.9375,1243.265 L137.5,1141.224 L139.0625,1141.224 L140.625,1145.306 L142.1875,1235.102 L143.75,1120.816 L145.3125,1177.959 L146.875,1280 L148.4375,1263.673 L150,1190.204 L151.5625,1092.245 L153.125,1165.714 L154.6875,1173.878 L156.25,1214.694 L157.8125,1157.551 L159.375,1255.51 L160.9375,1202.449 L162.5,1239.184 L164.0625,1084.082 L165.625,1137.143 L167.1875,1190.204 L168.75,1177.959 L170.3125,1153.469 L171.875,1157.551 L173.4375,1235.102 L175,1145.306 L176.5625,1165.714 L178.125,1190.204 L179.6875,1137.143 L181.25,1165.714 L182.8125,1145.306 L184.375,1186.122 L185.9375,1104.49 L187.5,1239.184 L189.0625,1267.755 L190.625,1251.429 L192.1875,1153.469 L193.75,1149.388 L195.3125,1177.959 L196.875,1235.102 L198.4375,1239.184 L200,1177.959 L201.5625,1190.204 L203.125,1259.592 L204.6875,1182.041 L206.25,1137.143 L207.8125,1202.449 L209.375,1255.51 L210.9375,1169.796 L212.5,1186.122 L214.0625,1141.224 L215.625,1186.122 L217.1875,1182.041 L218.75,1263.673 L220.3125,1239.184 L221.875,1149.388 L223.4375,1239.184 L225,1210.612 L226.5625,1206.531 L228.125,1251.429 L229.6875,1128.98 L231.25,1177.959 L232.8125,1153.469 L234.375,1145.306 L235.9375,1218.776 L237.5,1259.592 L239.0625,1173.878 L240.625,1267.755 L242.1875,1165.714 L243.75,1182.041 L245.3125,1202.449 L246.875,1165.714 L248.4375,1120.816 L250,1157.551 L251.5625,1206.531 L253.125,1239.184 L254.6875,1169.796 L256.25,1104.49 L257.8125,1104.49 L259.375,1247.347 L260.9375,1182.041 L262.5,1177.959 L264.0625,1259.592 L265.625,1096.327 L267.1875,1186.122 L268.75,1190.204 L270.3125,1194.286 L271.875,1177.959 L273.4375,1137.143 L275,1190.204 L276.5625,1255.51 L278.125,1104.49 L279.6875,1157.551 L281.25,1206.531 L282.8125,1239.184 L284.375,1226.939 L285.9375,1186.122 L287.5,1247.347 L289.0625,1255.51 L290.625,1133.061 L292.1875,1153.469 L293.75,1177.959 L295.3125,1255.51 L296.875,1145.306 L298.4375,1255.51 L300,1177.959 L301.5625,1271.837 L303.125,1214.694 L304.6875,1165.714 L306.25,1165.714 L307.8125,1153.469 L309.375,1165.714 L310.9375,1251.429 L312.5,1222.857 L314.0625,1165.714 L315.625,1263.673 L317.1875,1128.98 L318.75,1247.347 L320.3125,1222.857 L321.875,1247.347 L323.4375,1235.102 L325,1243.265 L326.5625,1198.367 L328.125,1177.959 L329.6875,1267.755 L331.25,1239.184 L332.8125,1141.224 L334.375,1153.469 L335.9375,1243.265 L337.5,1226.939 L339.0625,1169.796 L340.625,1222.857 L342.1875,1141.224 L343.75,1267.755 L345.3125,1271.837 L346.875,1243.265 L348.4375,1116.735 L350,1210.612 L351.5625,1251.429 L353.125,1194.286 L354.6875,1165.714 L356.25,1194.286 L357.8125,1182.041 L359.375,1182.041 L360.9375,1157.551 L362.5,1149.388 L364.0625,1173.878 L365.625,1124.898 L367.1875,1231.02 L368.75,1186.122 L370.3125,1210.612 L371.875,1194.286 L373.4375,1202.449 L375,1271.837 L376.5625,1169.796 L378.125,1259.592 L379.6875,1157.551 L381.25,1255.51 L382.8125,1108.571 L384.375,1186.122 L385.9375,1080 L387.5,1169.796 L389.0625,1214.694 L390.625,1231.02 L392.1875,1161.633 L393.75,1247.347 L395.3125,1271.837 L396.875,1263.673 L398.4375,1206.531 L400,1267.755 L401.5625,1161.633 L403.125,1153.469 L404.6875,1222.857 L406.25,1165.714 L407.8125,1239.184 L409.375,1226.939 L410.9375,1251.429 L412.5,1259.592 L414.0625,1255.51 L415.625,1145.306 L417.1875,1222.857 L418.75,1239.184 L420.3125,1149.388 L421.875,1202.449 L423.4375,1226.939 L425,1263.673 L426.5625,1198.367 L428.125,1231.02 L429.6875,1275.918 L431.25,1157.551 L432.8125,1161.633 L434.375,1169.796 L435.9375,1096.327 L437.5,1153.469 L439.0625,1214.694 L440.625,1149.388 L442.1875,1173.878 L443.75,1231.02 L445.3125,1202.449 L446.875,1149.388 L448.4375,1198.367 L450,1218.776 L451.5625,1137.143 L453.125,1231.02 L454.6875,1206.531 L456.25,1173.878 L457.8125,1239.184 L459.375,1247.347 L460.9375,1161.633 L462.5,1247.347 L464.0625,1247.347 L465.625,1182.041 L467.1875,1149.388 L468.75,1177.959 L470.3125,1145.306 L471.875,1137.143 L473.4375,1259.592 L475,1120.816 L476.5625,1128.98 L478.125,1186.122 L479.6875,1202.449 L481.25,1247.347 L482.8125,1173.878 L484.375,1210.612 L485.9375,1161.633 L487.5,1182.041 L489.0625,1173.878 L490.625,1182.041 L492.1875,1161.633 L493.75,1198.367 L495.3125,1141.224 L496.875,1149.388 L498.4375,1186.122 L500,1145.306 L501.5625,1096.327 L503.125,1137.143 L504.6875,1231.02 L506.25,1202.449 L507.8125,1235.102 L509.375,1177.959 L510.9375,1186.122 L512.5,1169.796 L514.0625,1235.102 L515.625,1153.469 L517.1875,1190.204 L518.75,1267.755 L520.3125,1145.306 L521.875,1133.061 L523.4375,1214.694 L525,1133.061 L526.5625,1210.612 L528.125,1096.327 L529.6875,1149.388 L531.25,1169.796 L532.8125,1141.224 L534.375,1218.776 " stroke="blue" fill="none" />
<text x="50" y="1330" font-family="Arial" font-size="12" fill="black">Policy Loss</text>
<text x="50" y="1345" font-family="Arial" font-size="10" fill="black">0.009208465</text>
<text x="50" y="1560" font-family="Arial" font-size="10" fill="black">0.002099165</text>
<path d="M50,1350 L75,1545.106 L100,1521.295 L125,1521.694 L150,1550 L175,1486.821 L200,1497.685 L225,1545.632 L250,1364.366 L275,1496.147 L300,1527.736 L325,1519.255 L350,1528.98 L375,1507.503 L400,1532.531 L425,1500.155 " stroke="blue" fill="none" />
<text x="50" y="1600" font-family="Arial" font-size="12" fill="black">Value Loss</text>
<text x="50" y="1615" font-family="Arial" font-size="10" fill="black">0.001502009</text>
<text x="50" y="1830" font-family="Arial" font-size="10" fill="black">0.001095029</text>
<path d="M50,1652.974 L75,1710.457 L100,1736.849 L125,1757.695 L150,1775.99 L175,1790.32 L200,1803.722 L225,1820 L250,1620.005 L275,1672.035 L300,1711.68 L325,1739.164 L350,1757.238 L375,1773.302 L400,1787.016 L425,1799.281 " stroke="blue" fill="none" />
<text x="50" y="1870" font-family="Arial" font-size="12" fill="black">Learning Rate</text>
<text x="50" y="1885" font-family="Arial" font-size="10" fill="black">0.000249999</text>
<text x="50" y="2100" font-family="Arial" font-size="10" fill="black">0.0002499832</text>
<path d="M50,1967.772 L75,1975.921 L100,1984.069 L125,1992.218 L150,2000.366 L175,2008.515 L200,2016.663 L225,2024.812 L250,2032.96 L275,2041.109 L300,2049.258 L325,2057.406 L350,2065.554 L375,2073.703 L400,2081.852 L425,2090 " stroke="blue" fill="none" />
<text x="50" y="2140" font-family="Arial" font-size="12" fill="black">Epsilon</text>
<text x="50" y="2155" font-family="Arial" font-size="10" fill="black">0.2</text>
<text x="50" y="2370" font-family="Arial" font-size="10" fill="black">0.2</text>
<path d="M50,2360 L75,2360 L100,2360 L125,2360 L150,2360 L175,2360 L200,2360 L225,2360 L250,2360 L275,2360 L300,2360 L325,2360 L350,2360 L375,2360 L400,2360 L425,2360 " stroke="blue" fill="none" />
<text x="750" y="790" font-family="Arial" font-size="12" fill="black">Simplified</text>
<text x="750" y="805" font-family="Arial" font-size="10" fill="black">0.8308758</text>
<text x="750" y="1020" font-family="Arial" font-size="10" fill="black">0.5125899</text>
<path d="M778.125,881.5417 L807.8125,877.8248 L837.5,924.0968 L867.1875,899.5453 L896.875,898.4494 L926.5625,972.1262 L956.25,909.775 L985.9375,909.8373 L1015.625,967.5829 L1045.313,1010 L1075,932.1385 L1104.688,958.2802 L1134.375,1005.477 L1164.063,943.164 L1193.75,879.0055 L1223.438,887.8697 L1234.375,810 " stroke="blue" fill="none" />
<text x="750" y="1060" font-family="Arial" font-size="12" fill="black">Simplified</text>
<text x="750" y="1075" font-family="Arial" font-size="10" fill="black">34.42857</text>
<text x="750" y="1290" font-family="Arial" font-size="10" fill="black">21.42105</text>
<path d="M778.125,1145.665 L807.8125,1140.809 L837.5,1197.457 L867.1875,1165.087 L896.875,1159.422 L926.5625,1234.682 L956.25,1169.942 L985.9375,1175.607 L1015.625,1239.538 L1045.313,1280 L1075,1199.884 L1104.688,1229.017 L1134.375,1279.191 L1164.063,1207.168 L1193.75,1148.093 L1223.438,1151.329 L1234.375,1080 " stroke="blue" fill="none" />
</svg>
