<svg width="2000" height="2500" xmlns="http://www.w3.org/2000/svg">
<text x="10" y="20" font-family="Arial" font-size="26" fill="black"> [Jumper] Training Session</text>
<text x="10" y="50" font-family="Arial" font-size="16" fill="black">[Statistics]</text>
<text x="50" y="70" font-family="Arial" font-size="12" fill="black">Started at: 8:27:25 PM, Tuesday, October 31, 2023</text>
<text x="50" y="90" font-family="Arial" font-size="12" fill="black">Finished at: 8:46:26 PM, Tuesday, October 31, 2023</text>
<text x="50" y="110" font-family="Arial" font-size="12" fill="black">Training Session Time: 0 hrs : 19 min : 0 sec</text>
<text x="50" y="130" font-family="Arial" font-size="12" fill="black">Inference Time: 1 hrs : 5 min : 44 sec       [Per agent: 1 hrs : 5 min : 44 sec]        [Device: CPU]</text>
<text x="50" y="150" font-family="Arial" font-size="12" fill="black">Policy Update Time: 0 hrs : 4 min : 4 sec        [Per iteration: 0 hrs : 0 min : 10 sec]        [Device: GPU]</text>
<text x="50" y="170" font-family="Arial" font-size="12" fill="black">Inference Time / Training Session Time: 3.454</text>
<text x="50" y="190" font-family="Arial" font-size="12" fill="black">Policy Update Time / Training Session Time: 0.214</text>
<text x="50" y="210" font-family="Arial" font-size="12" fill="black">Episode Count: 270</text>
<text x="50" y="230" font-family="Arial" font-size="12" fill="black">Inference Steps: 98599    [Per agent: 98599]     [Per Episode (mean): 365]</text>
<text x="50" y="250" font-family="Arial" font-size="12" fill="black">Iterations: 24</text>
<text x="50" y="270" font-family="Arial" font-size="12" fill="black">Parallel Agents: 1</text>
<text x="50" y="290" font-family="Arial" font-size="12" fill="black">Timescale: 4.55</text>
<text x="10" y="340" font-family="Arial" font-size="16" fill="black">[Hyperparameters]</text>
<text x="50" y="360" font-family="Arial" font-size="12" fill="black">Buffer Size: 4096        [Batch Size: 256       (x16)]</text>
<text x="50" y="380" font-family="Arial" font-size="12" fill="black">Num Epoch: 8</text>
<text x="50" y="400" font-family="Arial" font-size="12" fill="black">Time Horizon: 512</text>
<text x="50" y="420" font-family="Arial" font-size="12" fill="black">Gradient Cliping Normalization: 0.5</text>
<text x="50" y="440" font-family="Arial" font-size="12" fill="black">Advantages Normalization: True</text>
<text x="50" y="460" font-family="Arial" font-size="12" fill="black">Training Data Shuffle: True</text>
<text x="50" y="480" font-family="Arial" font-size="12" fill="black">Learning Rate Schedule: True    </text>
<text x="10" y="530" font-family="Arial" font-size="16" fill="black">[Behaviour]</text>
<text x="50" y="550" font-family="Arial" font-size="12" fill="black">Space Size: 251</text>
<text x="50" y="570" font-family="Arial" font-size="12" fill="black">Continuous Actions: 0 [Standard Deviation: Trainable]     </text>
<text x="50" y="590" font-family="Arial" font-size="12" fill="black">Discrete Actions: 8</text>
<text x="50" y="610" font-family="Arial" font-size="12" fill="black">TargetFPS: 50 (physics update rate)</text>
<text x="50" y="630" font-family="Arial" font-size="12" fill="black">Observations Normalization: False</text>
<text x="10" y="680" font-family="Arial" font-size="16" fill="black">[Decision Requester]</text>
<text x="50" y="700" font-family="Arial" font-size="12" fill="black">Max Step: 1000</text>
<text x="50" y="720" font-family="Arial" font-size="12" fill="black">Decision Period: 2      [Actions Between Decisions: True]</text>
<text x="10" y="770" font-family="Arial" font-size="16" fill="black">[Graphs]</text>
<text x="50" y="790" font-family="Arial" font-size="12" fill="black">Episode Reward (270)</text>
<text x="50" y="805" font-family="Arial" font-size="10" fill="black">1.204001</text>
<text x="50" y="1020" font-family="Arial" font-size="10" fill="black">-2.906033</text>
<path d="M50,918.077 L51.5625,919.1962 L53.125,920.7534 L54.6875,923.8677 L56.25,919.4882 L57.8125,919.3909 L59.375,920.3641 L60.9375,923.0891 L62.5,921.3373 L64.0625,919.0989 L65.625,922.3105 L67.1875,918.8069 L68.75,923.965 L70.3125,918.515 L71.875,924.0624 L73.4375,919.7802 L75,923.8677 L76.5625,921.4346 L78.125,918.9042 L79.6875,920.0721 L81.25,933.6 L82.8125,921.9213 L84.375,923.2838 L85.9375,921.9213 L87.5,919.5855 L89.0625,918.6123 L90.625,926.3008 L92.1875,919.5855 L93.75,918.3203 L95.3125,931.2642 L96.875,927.7606 L98.4375,918.8069 L100,926.3981 L101.5625,978.4659 L103.125,925.7169 L104.6875,919.1962 L106.25,919.7802 L107.8125,919.7802 L109.375,919.4882 L110.9375,920.6561 L112.5,918.8069 L114.0625,918.515 L115.625,920.3641 L117.1875,918.515 L118.75,932.1401 L120.3125,921.8239 L121.875,918.4177 L123.4375,920.6561 L125,918.0284 L126.5625,938.0768 L128.125,923.1865 L129.6875,921.6293 L131.25,920.4614 L132.8125,920.9481 L134.375,919.1962 L135.9375,919.6829 L137.5,919.3909 L139.0625,919.6829 L140.625,927.274 L142.1875,918.4177 L143.75,922.9918 L145.3125,922.9918 L146.875,923.965 L148.4375,921.4346 L150,919.0989 L151.5625,925.4249 L153.125,918.3203 L154.6875,921.4346 L156.25,929.6098 L157.8125,919.0989 L159.375,921.6293 L160.9375,918.6123 L162.5,921.3373 L164.0625,928.15 L165.625,921.6293 L167.1875,919.0989 L168.75,920.1694 L170.3125,920.7534 L171.875,931.3616 L173.4375,924.257 L175,918.9042 L176.5625,919.0016 L178.125,927.858 L179.6875,925.1329 L181.25,918.7096 L182.8125,920.2668 L184.375,922.9918 L185.9375,935.9357 L187.5,967.3706 L189.0625,921.9213 L190.625,919.1962 L192.1875,920.2668 L193.75,920.7534 L195.3125,922.1159 L196.875,920.0721 L198.4375,919.3909 L200,919.2935 L201.5625,928.4419 L203.125,918.223 L204.6875,924.257 L206.25,946.5437 L207.8125,942.7482 L209.375,918.8069 L210.9375,948.4902 L212.5,922.6998 L214.0625,921.824 L215.625,920.8507 L217.1875,926.5928 L218.75,926.5928 L220.3125,919.7802 L221.875,919.0989 L223.4375,921.24 L225,918.6123 L226.5625,924.3543 L228.125,924.4517 L229.6875,954.3295 L231.25,920.5587 L232.8125,918.4177 L234.375,922.6998 L235.9375,920.8507 L237.5,965.913 L239.0625,925.9115 L240.625,965.913 L242.1875,918.515 L243.75,929.1232 L245.3125,957.833 L246.875,965.4241 L248.4375,921.9213 L250,918.223 L251.5625,953.2589 L253.125,952.9669 L254.6875,924.8409 L256.25,928.6365 L257.8125,992.2864 L259.375,941.5803 L260.9375,978.6606 L262.5,936.1303 L264.0625,918.4177 L265.625,920.8507 L267.1875,965.913 L268.75,918.3203 L270.3125,965.913 L271.875,965.913 L273.4375,959.0982 L275,871.0216 L276.5625,965.913 L278.125,960.558 L279.6875,965.913 L281.25,930.5829 L282.8125,927.566 L284.375,920.5587 L285.9375,919.7802 L287.5,934.2809 L289.0625,965.913 L290.625,918.0284 L292.1875,930.7776 L293.75,890.4877 L295.3125,918.9042 L296.875,986.8361 L298.4375,921.9213 L300,965.913 L301.5625,965.913 L303.125,957.2491 L304.6875,821.8734 L306.25,965.913 L307.8125,926.3007 L309.375,965.913 L310.9375,965.913 L312.5,965.913 L314.0625,965.913 L315.625,921.1427 L317.1875,940.6071 L318.75,965.913 L320.3125,965.913 L321.875,838.3208 L323.4375,965.913 L325,961.4338 L326.5625,965.913 L328.125,927.3713 L329.6875,965.913 L331.25,965.913 L332.8125,965.913 L334.375,928.2473 L335.9375,965.913 L337.5,935.2545 L339.0625,965.913 L340.625,965.913 L342.1875,965.913 L343.75,965.913 L345.3125,962.2125 L346.875,920.4614 L348.4375,941.5823 L350,965.913 L351.5625,965.913 L353.125,873.6501 L354.6875,918.0284 L356.25,965.913 L357.8125,948.1982 L359.375,925.9115 L360.9375,934.7678 L362.5,925.9115 L364.0625,965.913 L365.625,919.3909 L367.1875,965.913 L368.75,941.5823 L370.3125,965.913 L371.875,988.1987 L373.4375,918.9042 L375,953.8428 L376.5625,965.913 L378.125,919.9748 L379.6875,965.913 L381.25,877.6404 L382.8125,931.1669 L384.375,1010 L385.9375,965.913 L387.5,965.913 L389.0625,965.913 L390.625,930.1937 L392.1875,993.7463 L393.75,965.913 L395.3125,965.913 L396.875,861.9698 L398.4375,920.1694 L400,941.581 L401.5625,965.913 L403.125,918.223 L404.6875,965.913 L406.25,941.5823 L407.8125,965.913 L409.375,965.913 L410.9375,918.0284 L412.5,965.913 L414.0625,922.6025 L415.625,936.325 L417.1875,965.913 L418.75,889.3192 L420.3125,919.6829 L421.875,941.5808 L423.4375,965.913 L425,919.6829 L426.5625,941.5814 L428.125,984.2083 L429.6875,941.5808 L431.25,810 L432.8125,920.5587 L434.375,941.5818 L435.9375,875.0119 L437.5,965.913 L439.0625,941.581 L440.625,919.7802 L442.1875,965.913 L443.75,918.3203 L445.3125,965.913 L446.875,874.3312 L448.4375,965.913 L450,941.5808 L451.5625,965.913 L453.125,817.5912 L454.6875,965.913 L456.25,880.6572 L457.8125,848.637 L459.375,818.4671 L460.9375,983.624 L462.5,976.2274 L464.0625,849.8047 L465.625,849.1237 L467.1875,949.5607 L468.75,920.6561 L470.3125,970.3878 " stroke="blue" fill="none" />
<text x="50" y="1060" font-family="Arial" font-size="12" fill="black">Episode Length (270)</text>
<text x="50" y="1075" font-family="Arial" font-size="10" fill="black">1000</text>
<text x="50" y="1290" font-family="Arial" font-size="10" fill="black">8</text>
<path d="M50,1280 L51.5625,1277.581 L53.125,1274.355 L54.6875,1267.903 L56.25,1276.976 L57.8125,1277.177 L59.375,1275.161 L60.9375,1269.516 L62.5,1273.145 L64.0625,1277.782 L65.625,1271.129 L67.1875,1278.387 L68.75,1267.702 L70.3125,1278.992 L71.875,1267.5 L73.4375,1276.371 L75,1267.903 L76.5625,1272.944 L78.125,1278.185 L79.6875,1275.766 L81.25,1247.742 L82.8125,1271.935 L84.375,1269.113 L85.9375,1271.935 L87.5,1276.774 L89.0625,1278.79 L90.625,1262.863 L92.1875,1276.774 L93.75,1279.395 L95.3125,1252.581 L96.875,1259.839 L98.4375,1278.387 L100,1262.661 L101.5625,1154.798 L103.125,1264.073 L104.6875,1277.581 L106.25,1276.371 L107.8125,1276.371 L109.375,1276.976 L110.9375,1274.556 L112.5,1278.387 L114.0625,1278.992 L115.625,1275.161 L117.1875,1278.992 L118.75,1250.766 L120.3125,1272.137 L121.875,1279.194 L123.4375,1274.556 L125,1280 L126.5625,1238.468 L128.125,1269.315 L129.6875,1272.54 L131.25,1274.96 L132.8125,1273.952 L134.375,1277.581 L135.9375,1276.573 L137.5,1277.177 L139.0625,1276.573 L140.625,1260.847 L142.1875,1279.194 L143.75,1269.718 L145.3125,1269.718 L146.875,1267.702 L148.4375,1272.944 L150,1277.782 L151.5625,1264.677 L153.125,1279.395 L154.6875,1272.944 L156.25,1256.008 L157.8125,1277.782 L159.375,1272.54 L160.9375,1278.79 L162.5,1273.145 L164.0625,1259.032 L165.625,1272.54 L167.1875,1277.782 L168.75,1275.565 L170.3125,1274.355 L171.875,1252.379 L173.4375,1267.097 L175,1278.185 L176.5625,1277.984 L178.125,1259.637 L179.6875,1265.282 L181.25,1278.589 L182.8125,1275.363 L184.375,1269.718 L185.9375,1242.903 L187.5,1177.782 L189.0625,1271.935 L190.625,1277.581 L192.1875,1275.363 L193.75,1274.355 L195.3125,1271.532 L196.875,1275.766 L198.4375,1277.177 L200,1277.379 L201.5625,1258.427 L203.125,1279.597 L204.6875,1267.097 L206.25,1220.927 L207.8125,1228.79 L209.375,1278.387 L210.9375,1216.895 L212.5,1270.323 L214.0625,1272.137 L215.625,1274.153 L217.1875,1262.258 L218.75,1262.258 L220.3125,1276.371 L221.875,1277.782 L223.4375,1273.347 L225,1278.79 L226.5625,1266.895 L228.125,1266.694 L229.6875,1204.798 L231.25,1274.758 L232.8125,1279.194 L234.375,1270.323 L235.9375,1274.153 L237.5,1080 L239.0625,1263.669 L240.625,1080 L242.1875,1278.992 L243.75,1257.016 L245.3125,1197.54 L246.875,1181.815 L248.4375,1271.935 L250,1279.597 L251.5625,1207.016 L253.125,1207.621 L254.6875,1265.887 L256.25,1258.024 L257.8125,1126.169 L259.375,1231.21 L260.9375,1154.395 L262.5,1242.5 L264.0625,1279.194 L265.625,1274.153 L267.1875,1080 L268.75,1279.395 L270.3125,1080 L271.875,1080 L273.4375,1194.919 L275,1125.363 L276.5625,1080 L278.125,1191.895 L279.6875,1080 L281.25,1203.589 L282.8125,1260.242 L284.375,1274.758 L285.9375,1276.371 L287.5,1195.927 L289.0625,1080 L290.625,1280 L292.1875,1253.589 L293.75,1085.04 L295.3125,1278.185 L296.875,1137.46 L298.4375,1271.935 L300,1080 L301.5625,1080 L303.125,1198.75 L304.6875,1227.177 L306.25,1080 L307.8125,1212.46 L309.375,1080 L310.9375,1080 L312.5,1080 L314.0625,1080 L315.625,1273.548 L317.1875,1182.823 L318.75,1080 L320.3125,1080 L321.875,1193.105 L323.4375,1080 L325,1139.677 L326.5625,1080 L328.125,1260.645 L329.6875,1080 L331.25,1080 L332.8125,1080 L334.375,1258.831 L335.9375,1080 L337.5,1244.315 L339.0625,1080 L340.625,1080 L342.1875,1080 L343.75,1080 L345.3125,1188.468 L346.875,1274.96 L348.4375,1080 L350,1080 L351.5625,1080 L353.125,1119.919 L354.6875,1280 L356.25,1080 L357.8125,1217.5 L359.375,1263.669 L360.9375,1245.323 L362.5,1263.669 L364.0625,1080 L365.625,1277.177 L367.1875,1080 L368.75,1080 L370.3125,1080 L371.875,1134.637 L373.4375,1278.185 L375,1205.806 L376.5625,1080 L378.125,1275.968 L379.6875,1080 L381.25,1111.653 L382.8125,1252.782 L384.375,1089.476 L385.9375,1080 L387.5,1080 L389.0625,1080 L390.625,1254.798 L392.1875,1123.145 L393.75,1080 L395.3125,1080 L396.875,1144.113 L398.4375,1275.565 L400,1080 L401.5625,1080 L403.125,1279.597 L404.6875,1080 L406.25,1080 L407.8125,1080 L409.375,1080 L410.9375,1280 L412.5,1080 L414.0625,1270.524 L415.625,1242.097 L417.1875,1080 L418.75,1087.46 L420.3125,1276.573 L421.875,1080 L423.4375,1080 L425,1276.573 L426.5625,1080 L428.125,1142.903 L429.6875,1080 L431.25,1251.774 L432.8125,1274.758 L434.375,1080 L435.9375,1117.097 L437.5,1080 L439.0625,1080 L440.625,1276.371 L442.1875,1080 L443.75,1279.395 L445.3125,1080 L446.875,1118.508 L448.4375,1080 L450,1080 L451.5625,1080 L453.125,1236.048 L454.6875,1080 L456.25,1105.403 L457.8125,1222.137 L459.375,1234.234 L460.9375,1093.71 L462.5,1159.435 L464.0625,1169.315 L465.625,1170.726 L467.1875,1214.677 L468.75,1274.556 L470.3125,1171.532 " stroke="blue" fill="none" />
<text x="50" y="1330" font-family="Arial" font-size="12" fill="black">Policy Loss</text>
<text x="50" y="1345" font-family="Arial" font-size="10" fill="black">0.03440777</text>
<text x="50" y="1560" font-family="Arial" font-size="10" fill="black">0.001750543</text>
<path d="M50,1393.012 L51.5625,1536.222 L53.125,1544.415 L54.6875,1538.245 L56.25,1544.553 L57.8125,1537.92 L59.375,1541.355 L60.9375,1540.802 L62.5,1394.67 L64.0625,1544.571 L65.625,1542.525 L67.1875,1542.777 L68.75,1546.084 L70.3125,1542.694 L71.875,1544.905 L73.4375,1544.633 L75,1409.842 L76.5625,1545.272 L78.125,1544.44 L79.6875,1537.127 L81.25,1542.011 L82.8125,1548.386 L84.375,1541.554 L85.9375,1546.549 L87.5,1350.485 L89.0625,1544.559 L90.625,1548.794 L92.1875,1543.087 L93.75,1540.855 L95.3125,1546.149 L96.875,1540.683 L98.4375,1536.116 L100,1399.842 L101.5625,1543.506 L103.125,1543.494 L104.6875,1544.002 L106.25,1545.408 L107.8125,1540.309 L109.375,1548.257 L110.9375,1541.201 L112.5,1350 L114.0625,1544.166 L115.625,1544.691 L117.1875,1547.73 L118.75,1536.873 L120.3125,1539.484 L121.875,1547.221 L123.4375,1536.562 L125,1423.358 L126.5625,1537.912 L128.125,1531.88 L129.6875,1542.169 L131.25,1535.349 L132.8125,1540.616 L134.375,1545.515 L135.9375,1542.256 L137.5,1387.349 L139.0625,1541.849 L140.625,1536.349 L142.1875,1540.016 L143.75,1539.231 L145.3125,1539.995 L146.875,1544.172 L148.4375,1542.869 L150,1393.979 L151.5625,1545.337 L153.125,1538.378 L154.6875,1543.913 L156.25,1542.16 L157.8125,1543.38 L159.375,1544.561 L160.9375,1543.456 L162.5,1427.376 L164.0625,1545.93 L165.625,1543.712 L167.1875,1538.217 L168.75,1543.09 L170.3125,1542.902 L171.875,1545.695 L173.4375,1546.595 L175,1426.884 L176.5625,1539.714 L178.125,1541.034 L179.6875,1547.521 L181.25,1543.179 L182.8125,1545.956 L184.375,1546.235 L185.9375,1534.95 L187.5,1391.426 L189.0625,1548.395 L190.625,1541.909 L192.1875,1538.024 L193.75,1536.489 L195.3125,1539.862 L196.875,1543.302 L198.4375,1544.678 L200,1386.72 L201.5625,1541.255 L203.125,1538.77 L204.6875,1545.255 L206.25,1546.737 L207.8125,1540.14 L209.375,1541.232 L210.9375,1537.567 L212.5,1401.431 L214.0625,1545.194 L215.625,1545.991 L217.1875,1541.867 L218.75,1536.086 L220.3125,1544.98 L221.875,1541.468 L223.4375,1539.799 L225,1386.187 L226.5625,1539.177 L228.125,1547.147 L229.6875,1547.001 L231.25,1531.77 L232.8125,1543.109 L234.375,1540.728 L235.9375,1539.61 L237.5,1391.384 L239.0625,1543.847 L240.625,1544.096 L242.1875,1538.775 L243.75,1543.25 L245.3125,1543.146 L246.875,1538.123 L248.4375,1541.976 L250,1389.712 L251.5625,1544.162 L253.125,1537.622 L254.6875,1545.551 L256.25,1542.363 L257.8125,1543.108 L259.375,1538.253 L260.9375,1543.238 L262.5,1394.887 L264.0625,1543.404 L265.625,1544.477 L267.1875,1550 L268.75,1541.195 L270.3125,1542.825 L271.875,1545.227 L273.4375,1541.462 L275,1417.895 L276.5625,1539.394 L278.125,1537.482 L279.6875,1538.109 L281.25,1542.31 L282.8125,1542.34 L284.375,1539.043 L285.9375,1539.333 L287.5,1398.54 L289.0625,1537.243 L290.625,1538.513 L292.1875,1534.141 L293.75,1533.367 L295.3125,1531.012 L296.875,1536.577 L298.4375,1526.822 L300,1383.312 L301.5625,1538.654 L303.125,1549.097 L304.6875,1540.43 L306.25,1542.411 L307.8125,1540.434 L309.375,1537.276 L310.9375,1547.597 L312.5,1411.909 L314.0625,1537.972 L315.625,1541.008 L317.1875,1537.312 L318.75,1544.508 L320.3125,1547.975 L321.875,1542.119 L323.4375,1537.757 L325,1406.947 L326.5625,1534.152 L328.125,1543.119 L329.6875,1544.05 L331.25,1545.014 L332.8125,1540.231 L334.375,1539.818 L335.9375,1538.993 L337.5,1359.908 L339.0625,1542.772 L340.625,1539.222 L342.1875,1542.546 L343.75,1543.893 L345.3125,1540.186 L346.875,1540.408 L348.4375,1546.916 " stroke="blue" fill="none" />
<text x="50" y="1600" font-family="Arial" font-size="12" fill="black">Value Loss</text>
<text x="50" y="1615" font-family="Arial" font-size="10" fill="black">0.00924455</text>
<text x="50" y="1830" font-family="Arial" font-size="10" fill="black">0.000139204</text>
<path d="M50,1620 L51.5625,1735.549 L53.125,1764.878 L54.6875,1775.628 L56.25,1779.966 L57.8125,1782.311 L59.375,1784.08 L60.9375,1785.526 L62.5,1742.982 L64.0625,1769.377 L65.625,1779.839 L67.1875,1784.637 L68.75,1786.935 L70.3125,1788.848 L71.875,1789.979 L73.4375,1790.973 L75,1661.583 L76.5625,1752.635 L78.125,1778.081 L79.6875,1787.723 L81.25,1791.451 L82.8125,1794.083 L84.375,1795.293 L85.9375,1796.717 L87.5,1754.446 L89.0625,1780.755 L90.625,1801.091 L92.1875,1805.807 L93.75,1807.876 L95.3125,1809.177 L96.875,1809.915 L98.4375,1810.337 L100,1744.685 L101.5625,1781.784 L103.125,1802.098 L104.6875,1808.133 L106.25,1810.495 L107.8125,1812.111 L109.375,1813.452 L110.9375,1814.277 L112.5,1686.409 L114.0625,1752.145 L115.625,1774.832 L117.1875,1785.672 L118.75,1791.658 L120.3125,1794.976 L121.875,1797.545 L123.4375,1798.845 L125,1741.534 L126.5625,1768.195 L128.125,1781.196 L129.6875,1790.607 L131.25,1795.431 L132.8125,1798.637 L134.375,1800.585 L135.9375,1802.013 L137.5,1799.455 L139.0625,1814.486 L140.625,1817.73 L142.1875,1818.612 L143.75,1819.091 L145.3125,1819.329 L146.875,1819.525 L148.4375,1819.66 L150,1770.408 L151.5625,1797.305 L153.125,1807.846 L154.6875,1810.804 L156.25,1812.312 L157.8125,1813.075 L159.375,1813.582 L160.9375,1813.993 L162.5,1798.503 L164.0625,1807.026 L165.625,1812.782 L167.1875,1814.506 L168.75,1815.316 L170.3125,1815.835 L171.875,1816.18 L173.4375,1816.358 L175,1796.072 L176.5625,1800.637 L178.125,1808.527 L179.6875,1810.674 L181.25,1811.983 L182.8125,1812.828 L184.375,1813.351 L185.9375,1813.733 L187.5,1793.278 L189.0625,1805.021 L190.625,1812.304 L192.1875,1815.866 L193.75,1817.753 L195.3125,1818.771 L196.875,1819.278 L198.4375,1819.764 L200,1741.5 L201.5625,1766.432 L203.125,1782.102 L204.6875,1788 L206.25,1790.671 L207.8125,1792.476 L209.375,1793.271 L210.9375,1794 L212.5,1766.683 L214.0625,1797.058 L215.625,1808.433 L217.1875,1811.119 L218.75,1812.183 L220.3125,1812.766 L221.875,1813.223 L223.4375,1813.725 L225,1765.164 L226.5625,1781.978 L228.125,1794.11 L229.6875,1797.667 L231.25,1799.961 L232.8125,1800.92 L234.375,1801.897 L235.9375,1802.659 L237.5,1790.188 L239.0625,1809.621 L240.625,1815.15 L242.1875,1817.187 L243.75,1818.051 L245.3125,1818.614 L246.875,1818.937 L248.4375,1819.183 L250,1773.681 L251.5625,1787.498 L253.125,1802.152 L254.6875,1808.152 L256.25,1811.391 L257.8125,1813.115 L259.375,1814.44 L260.9375,1815.142 L262.5,1802.475 L264.0625,1814.718 L265.625,1817.538 L267.1875,1818.742 L268.75,1819.298 L270.3125,1819.582 L271.875,1819.825 L273.4375,1820 L275,1792.855 L276.5625,1804.674 L278.125,1809.99 L279.6875,1811.994 L281.25,1813.024 L282.8125,1813.684 L284.375,1814.156 L285.9375,1814.528 L287.5,1757.323 L289.0625,1798.023 L290.625,1808.66 L292.1875,1811.521 L293.75,1812.826 L295.3125,1813.686 L296.875,1814.263 L298.4375,1814.708 L300,1754.597 L301.5625,1772.375 L303.125,1785.846 L304.6875,1793.475 L306.25,1797.728 L307.8125,1800.669 L309.375,1802.565 L310.9375,1804.065 L312.5,1777.146 L314.0625,1796.778 L315.625,1804.131 L317.1875,1807.147 L318.75,1809.035 L320.3125,1810.481 L321.875,1811.384 L323.4375,1811.964 L325,1753.008 L326.5625,1784.839 L328.125,1796.328 L329.6875,1800.151 L331.25,1802.423 L332.8125,1804.168 L334.375,1805.365 L335.9375,1806.03 L337.5,1631.96 L339.0625,1707.778 L340.625,1736.138 L342.1875,1747.574 L343.75,1752.26 L345.3125,1755.77 L346.875,1757.929 L348.4375,1759.813 " stroke="blue" fill="none" />
<text x="50" y="1870" font-family="Arial" font-size="12" fill="black">Learning Rate</text>
<text x="50" y="1885" font-family="Arial" font-size="10" fill="black">0.0002999994</text>
<text x="50" y="2100" font-family="Arial" font-size="10" fill="black">0.0002998801</text>
<path d="M50,1905.472 L51.5625,1906.462 L53.125,1907.453 L54.6875,1908.444 L56.25,1909.434 L57.8125,1910.425 L59.375,1911.416 L60.9375,1912.406 L62.5,1913.397 L64.0625,1914.387 L65.625,1915.378 L67.1875,1916.369 L68.75,1917.359 L70.3125,1918.35 L71.875,1919.341 L73.4375,1920.331 L75,1921.322 L76.5625,1922.313 L78.125,1923.303 L79.6875,1924.294 L81.25,1925.285 L82.8125,1926.275 L84.375,1927.266 L85.9375,1928.256 L87.5,1929.247 L89.0625,1930.238 L90.625,1931.228 L92.1875,1932.219 L93.75,1933.21 L95.3125,1934.2 L96.875,1935.191 L98.4375,1936.182 L100,1937.172 L101.5625,1938.163 L103.125,1939.153 L104.6875,1940.144 L106.25,1941.135 L107.8125,1942.125 L109.375,1943.116 L110.9375,1944.107 L112.5,1945.097 L114.0625,1946.088 L115.625,1947.078 L117.1875,1948.069 L118.75,1949.06 L120.3125,1950.05 L121.875,1951.041 L123.4375,1952.032 L125,1953.022 L126.5625,1954.013 L128.125,1955.004 L129.6875,1955.994 L131.25,1956.985 L132.8125,1957.975 L134.375,1958.966 L135.9375,1959.957 L137.5,1960.947 L139.0625,1961.938 L140.625,1962.929 L142.1875,1963.919 L143.75,1964.91 L145.3125,1965.901 L146.875,1966.891 L148.4375,1967.882 L150,1968.872 L151.5625,1969.863 L153.125,1970.854 L154.6875,1971.844 L156.25,1972.835 L157.8125,1973.826 L159.375,1974.816 L160.9375,1975.807 L162.5,1976.797 L164.0625,1977.788 L165.625,1978.779 L167.1875,1979.769 L168.75,1980.76 L170.3125,1981.751 L171.875,1982.741 L173.4375,1983.732 L175,1984.723 L176.5625,1985.713 L178.125,1986.704 L179.6875,1987.694 L181.25,1988.685 L182.8125,1989.676 L184.375,1990.666 L185.9375,1991.657 L187.5,1992.603 L189.0625,1993.548 L190.625,1994.494 L192.1875,1995.439 L193.75,1996.385 L195.3125,1997.331 L196.875,1998.276 L198.4375,1999.222 L200,2000.167 L201.5625,2001.113 L203.125,2002.059 L204.6875,2003.004 L206.25,2003.95 L207.8125,2004.896 L209.375,2005.841 L210.9375,2006.787 L212.5,2007.732 L214.0625,2008.678 L215.625,2009.624 L217.1875,2010.569 L218.75,2011.515 L220.3125,2012.46 L221.875,2013.406 L223.4375,2014.352 L225,2015.297 L226.5625,2016.243 L228.125,2017.188 L229.6875,2018.134 L231.25,2019.08 L232.8125,2020.025 L234.375,2020.971 L235.9375,2021.916 L237.5,2022.862 L239.0625,2023.808 L240.625,2024.753 L242.1875,2025.699 L243.75,2026.644 L245.3125,2027.59 L246.875,2028.536 L248.4375,2029.481 L250,2030.427 L251.5625,2031.372 L253.125,2032.318 L254.6875,2033.264 L256.25,2034.209 L257.8125,2035.155 L259.375,2036.1 L260.9375,2037.046 L262.5,2037.992 L264.0625,2038.937 L265.625,2039.883 L267.1875,2040.828 L268.75,2041.774 L270.3125,2042.72 L271.875,2043.665 L273.4375,2044.611 L275,2045.557 L276.5625,2046.502 L278.125,2047.448 L279.6875,2048.393 L281.25,2049.339 L282.8125,2050.285 L284.375,2051.23 L285.9375,2052.176 L287.5,2053.121 L289.0625,2054.067 L290.625,2055.013 L292.1875,2055.958 L293.75,2056.904 L295.3125,2057.849 L296.875,2058.795 L298.4375,2059.741 L300,2060.686 L301.5625,2061.632 L303.125,2062.577 L304.6875,2063.523 L306.25,2064.469 L307.8125,2065.414 L309.375,2066.36 L310.9375,2067.305 L312.5,2068.251 L314.0625,2069.197 L315.625,2070.142 L317.1875,2071.088 L318.75,2072.033 L320.3125,2072.979 L321.875,2073.925 L323.4375,2074.87 L325,2075.816 L326.5625,2076.761 L328.125,2077.707 L329.6875,2078.653 L331.25,2079.598 L332.8125,2080.544 L334.375,2081.49 L335.9375,2082.435 L337.5,2083.381 L339.0625,2084.326 L340.625,2085.272 L342.1875,2086.218 L343.75,2087.163 L345.3125,2088.109 L346.875,2089.054 L348.4375,2090 " stroke="blue" fill="none" />
<text x="50" y="2140" font-family="Arial" font-size="12" fill="black">Entropy</text>
<text x="50" y="2155" font-family="Arial" font-size="10" fill="black">-0.01488469</text>
<text x="50" y="2370" font-family="Arial" font-size="10" fill="black">-0.01569301</text>
<path d="M50,2333.675 L51.5625,2345.387 L53.125,2330.358 L54.6875,2339.688 L56.25,2331.782 L57.8125,2339.078 L59.375,2330.311 L60.9375,2330.691 L62.5,2322.685 L64.0625,2341.199 L65.625,2315.346 L67.1875,2322.055 L68.75,2329.294 L70.3125,2327.204 L71.875,2322.049 L73.4375,2323.555 L75,2360 L76.5625,2331.692 L78.125,2334.862 L79.6875,2331.588 L81.25,2328.706 L82.8125,2329.484 L84.375,2331.237 L85.9375,2329.636 L87.5,2344.677 L89.0625,2337.112 L90.625,2329.039 L92.1875,2323.044 L93.75,2325.351 L95.3125,2318.223 L96.875,2318.375 L98.4375,2320.788 L100,2320.407 L101.5625,2326.974 L103.125,2325.221 L104.6875,2325.396 L106.25,2324.797 L107.8125,2321.151 L109.375,2324.157 L110.9375,2323.699 L112.5,2316.868 L114.0625,2323.427 L115.625,2314.798 L117.1875,2316.443 L118.75,2317.697 L120.3125,2308.114 L121.875,2309.114 L123.4375,2312.027 L125,2317.196 L126.5625,2334.879 L128.125,2342.082 L129.6875,2336.487 L131.25,2329.943 L132.8125,2325.479 L134.375,2325.488 L135.9375,2331.096 L137.5,2313.391 L139.0625,2318.867 L140.625,2326.628 L142.1875,2325.746 L143.75,2331.251 L145.3125,2328.111 L146.875,2333.256 L148.4375,2325.452 L150,2312.627 L151.5625,2322.051 L153.125,2330.476 L154.6875,2327.941 L156.25,2316.082 L157.8125,2316.673 L159.375,2322.431 L160.9375,2322.207 L162.5,2319.573 L164.0625,2330.028 L165.625,2326.334 L167.1875,2329.264 L168.75,2319.071 L170.3125,2316.619 L171.875,2317.816 L173.4375,2317.679 L175,2337.579 L176.5625,2344.873 L178.125,2350.092 L179.6875,2346.359 L181.25,2338.792 L182.8125,2341.273 L184.375,2341.558 L185.9375,2333.08 L187.5,2326.745 L189.0625,2312.868 L190.625,2289.686 L192.1875,2299.129 L193.75,2295.301 L195.3125,2292.763 L196.875,2301.841 L198.4375,2301.897 L200,2340.631 L201.5625,2333.752 L203.125,2345.439 L204.6875,2341.39 L206.25,2339.614 L207.8125,2340 L209.375,2339.53 L210.9375,2339.423 L212.5,2303.366 L214.0625,2312.069 L215.625,2311.709 L217.1875,2310.778 L218.75,2308.828 L220.3125,2301.644 L221.875,2298.453 L223.4375,2301.786 L225,2312.827 L226.5625,2299.519 L228.125,2304.296 L229.6875,2304.931 L231.25,2299.929 L232.8125,2302.416 L234.375,2303.134 L235.9375,2303.204 L237.5,2296.576 L239.0625,2311.173 L240.625,2304.82 L242.1875,2300.811 L243.75,2296.649 L245.3125,2302.433 L246.875,2304.053 L248.4375,2300.838 L250,2265.641 L251.5625,2243.393 L253.125,2239.09 L254.6875,2240.661 L256.25,2250.638 L257.8125,2242.791 L259.375,2251.779 L260.9375,2237.14 L262.5,2312.654 L264.0625,2308.972 L265.625,2298.823 L267.1875,2299.526 L268.75,2299.717 L270.3125,2297.758 L271.875,2293.829 L273.4375,2297.504 L275,2276.44 L276.5625,2286.883 L278.125,2287.292 L279.6875,2286.575 L281.25,2291.379 L282.8125,2284.551 L284.375,2281.337 L285.9375,2277.945 L287.5,2223.119 L289.0625,2243.668 L290.625,2255.239 L292.1875,2247.036 L293.75,2241.868 L295.3125,2242.78 L296.875,2249.489 L298.4375,2242.323 L300,2165.123 L301.5625,2169.368 L303.125,2177.509 L304.6875,2169.269 L306.25,2173.358 L307.8125,2176.91 L309.375,2178.879 L310.9375,2175.122 L312.5,2279.494 L314.0625,2281.453 L315.625,2278.316 L317.1875,2284.96 L318.75,2278.77 L320.3125,2281.94 L321.875,2277.556 L323.4375,2283.46 L325,2242.911 L326.5625,2235.15 L328.125,2246.791 L329.6875,2242.691 L331.25,2253.031 L332.8125,2252.722 L334.375,2252.691 L335.9375,2256.627 L337.5,2160.002 L339.0625,2179.507 L340.625,2186.46 L342.1875,2192.508 L343.75,2189.552 L345.3125,2190.605 L346.875,2198.024 L348.4375,2191.121 " stroke="blue" fill="none" />
<text x="750" y="790" font-family="Arial" font-size="12" fill="black">Simplified</text>
<text x="750" y="805" font-family="Arial" font-size="10" fill="black">-1.014436</text>
<text x="750" y="1020" font-family="Arial" font-size="10" fill="black">-1.710233</text>
<path d="M778.125,827.1666 L807.8125,856.4099 L837.5,831.4177 L867.1875,834.5947 L896.875,852.2646 L926.5625,855.623 L956.25,918.4068 L985.9375,960.4358 L1015.625,938.7135 L1045.313,1010 L1075,954.5074 L1104.688,983.1014 L1134.375,908.4867 L1164.063,810 L1170.313,836.462 " stroke="blue" fill="none" />
<text x="750" y="1060" font-family="Arial" font-size="12" fill="black">Simplified</text>
<text x="750" y="1075" font-family="Arial" font-size="10" fill="black">763</text>
<text x="750" y="1290" font-family="Arial" font-size="10" fill="black">37.05263</text>
<path d="M778.125,1280 L807.8125,1265.978 L837.5,1277.955 L867.1875,1276.433 L896.875,1267.965 L926.5625,1266.355 L956.25,1221.768 L985.9375,1158.127 L1015.625,1125.037 L1045.313,1080 L1075,1135.593 L1104.688,1092.891 L1134.375,1114.148 L1164.063,1096.095 L1170.313,1189.443 " stroke="blue" fill="none" />
</svg>
