<svg width="2000" height="2500" xmlns="http://www.w3.org/2000/svg">
<text x="10" y="20" font-family="Arial" font-size="26" fill="black"> [Jumper] Training Session</text>
<text x="10" y="50" font-family="Arial" font-size="16" fill="black">[Statistics]</text>
<text x="50" y="70" font-family="Arial" font-size="12" fill="black">Started at: 8:09:11 PM, Tuesday, October 31, 2023</text>
<text x="50" y="90" font-family="Arial" font-size="12" fill="black">Finished at: 8:12:52 PM, Tuesday, October 31, 2023</text>
<text x="50" y="110" font-family="Arial" font-size="12" fill="black">Training Session Time: 0 hrs : 3 min : 31 sec</text>
<text x="50" y="130" font-family="Arial" font-size="12" fill="black">Inference Time: 0 hrs : 16 min : 42 sec       [Per agent: 0 hrs : 16 min : 42 sec]        [Device: CPU]</text>
<text x="50" y="150" font-family="Arial" font-size="12" fill="black">Policy Update Time: 0 hrs : 0 min : 49 sec        [Per iteration: 0 hrs : 0 min : 7 sec]        [Device: GPU]</text>
<text x="50" y="170" font-family="Arial" font-size="12" fill="black">Inference Time / Training Session Time: 4.703</text>
<text x="50" y="190" font-family="Arial" font-size="12" fill="black">Policy Update Time / Training Session Time: 0.234</text>
<text x="50" y="210" font-family="Arial" font-size="12" fill="black">Episode Count: 62</text>
<text x="50" y="230" font-family="Arial" font-size="12" fill="black">Inference Steps: 25028    [Per agent: 25028]     [Per Episode (mean): 403]</text>
<text x="50" y="250" font-family="Arial" font-size="12" fill="black">Iterations: 6</text>
<text x="50" y="270" font-family="Arial" font-size="12" fill="black">Parallel Agents: 1</text>
<text x="50" y="290" font-family="Arial" font-size="12" fill="black">Timescale: 6.21</text>
<text x="10" y="340" font-family="Arial" font-size="16" fill="black">[Hyperparameters]</text>
<text x="50" y="360" font-family="Arial" font-size="12" fill="black">Buffer Size: 4096        [Batch Size: 256       (x16)]</text>
<text x="50" y="380" font-family="Arial" font-size="12" fill="black">Num Epoch: 8</text>
<text x="50" y="400" font-family="Arial" font-size="12" fill="black">Time Horizon: 64</text>
<text x="50" y="420" font-family="Arial" font-size="12" fill="black">Gradient Cliping Normalization: 0.5</text>
<text x="50" y="440" font-family="Arial" font-size="12" fill="black">Advantages Normalization: True</text>
<text x="50" y="460" font-family="Arial" font-size="12" fill="black">Training Data Shuffle: True</text>
<text x="50" y="480" font-family="Arial" font-size="12" fill="black">Learning Rate Schedule: True    </text>
<text x="10" y="530" font-family="Arial" font-size="16" fill="black">[Behaviour]</text>
<text x="50" y="550" font-family="Arial" font-size="12" fill="black">Space Size: 126</text>
<text x="50" y="570" font-family="Arial" font-size="12" fill="black">Continuous Actions: 0 [Standard Deviation: Trainable]     </text>
<text x="50" y="590" font-family="Arial" font-size="12" fill="black">Discrete Actions: 8</text>
<text x="50" y="610" font-family="Arial" font-size="12" fill="black">TargetFPS: 50 (physics update rate)</text>
<text x="50" y="630" font-family="Arial" font-size="12" fill="black">Observations Normalization: False</text>
<text x="10" y="680" font-family="Arial" font-size="16" fill="black">[Decision Requester]</text>
<text x="50" y="700" font-family="Arial" font-size="12" fill="black">Max Step: 1000</text>
<text x="50" y="720" font-family="Arial" font-size="12" fill="black">Decision Period: 2      [Actions Between Decisions: True]</text>
<text x="10" y="770" font-family="Arial" font-size="16" fill="black">[Graphs]</text>
<text x="50" y="790" font-family="Arial" font-size="12" fill="black">Episode Reward (62)</text>
<text x="50" y="805" font-family="Arial" font-size="10" fill="black">1.5</text>
<text x="50" y="1020" font-family="Arial" font-size="10" fill="black">-1</text>
<path d="M50,1010 L56.25,1010 L62.5,1010 L68.75,1010 L75,1010 L81.25,1010 L87.5,1010 L93.75,1010 L100,1010 L106.25,1010 L112.5,1010 L118.75,1010 L125,1010 L131.25,1010 L137.5,1010 L143.75,1010 L150,1010 L156.25,1010 L162.5,1010 L168.75,1010 L175,1010 L181.25,1010 L187.5,1010 L193.75,1010 L200,1010 L206.25,1010 L212.5,1010 L218.75,1010 L225,1010 L231.25,1010 L237.5,1010 L243.75,1010 L250,1010 L256.25,1010 L262.5,1010 L268.75,1010 L275,1010 L281.25,1010 L287.5,1010 L293.75,1010 L300,1010 L306.25,1010 L312.5,1010 L318.75,970 L325,930 L331.25,1010 L337.5,930 L343.75,970 L350,930 L356.25,930 L362.5,930 L368.75,1010 L375,970 L381.25,810 L387.5,930 L393.75,1010 L400,970 L406.25,930 L412.5,970 L418.75,970 L425,810 L431.25,970 " stroke="blue" fill="none" />
<text x="50" y="1060" font-family="Arial" font-size="12" fill="black">Episode Length (62)</text>
<text x="50" y="1075" font-family="Arial" font-size="10" fill="black">1000</text>
<text x="50" y="1290" font-family="Arial" font-size="10" fill="black">7</text>
<path d="M50,1258.046 L56.25,1275.972 L62.5,1278.389 L68.75,1280 L75,1255.428 L81.25,1276.979 L87.5,1189.366 L93.75,1254.824 L100,1223.807 L106.25,1208.701 L112.5,1248.983 L118.75,1232.266 L125,1277.382 L131.25,1266.103 L137.5,1230.856 L143.75,1270.937 L150,1224.411 L156.25,1211.319 L162.5,1198.832 L168.75,1192.387 L175,1202.659 L181.25,1174.864 L187.5,1204.471 L193.75,1266.908 L200,1250.796 L206.25,1202.457 L212.5,1160.363 L218.75,1120.282 L225,1225.418 L231.25,1262.88 L237.5,1207.694 L243.75,1276.173 L250,1261.873 L256.25,1204.27 L262.5,1235.287 L268.75,1276.576 L275,1179.496 L281.25,1261.47 L287.5,1124.512 L293.75,1154.924 L300,1167.815 L306.25,1187.956 L312.5,1273.354 L318.75,1208.298 L325,1080 L331.25,1279.396 L337.5,1080 L343.75,1205.076 L350,1080 L356.25,1080 L362.5,1080 L368.75,1279.396 L375,1108.197 L381.25,1096.918 L387.5,1080 L393.75,1276.576 L400,1129.547 L406.25,1080 L412.5,1207.492 L418.75,1089.668 L425,1128.741 L431.25,1114.441 " stroke="blue" fill="none" />
<text x="50" y="1330" font-family="Arial" font-size="12" fill="black">Policy Loss</text>
<text x="50" y="1345" font-family="Arial" font-size="10" fill="black">0.02551669</text>
<text x="50" y="1560" font-family="Arial" font-size="10" fill="black">0.002094282</text>
<path d="M50,1411.688 L56.25,1540.856 L62.5,1541.299 L68.75,1542.097 L75,1534.056 L81.25,1536.422 L87.5,1537.376 L93.75,1535.575 L100,1396.891 L106.25,1541.017 L112.5,1549.459 L118.75,1543.309 L125,1541.089 L131.25,1537.219 L137.5,1537.692 L143.75,1540.453 L150,1397.776 L156.25,1542.974 L162.5,1542.922 L168.75,1540.401 L175,1535.406 L181.25,1534.848 L187.5,1543.898 L193.75,1534.492 L200,1441.902 L206.25,1533.865 L212.5,1546.266 L218.75,1546.483 L225,1543.329 L231.25,1546.166 L237.5,1546.981 L243.75,1541.743 L250,1457.281 L256.25,1541.589 L262.5,1532.787 L268.75,1538.296 L275,1548.465 L281.25,1545.698 L287.5,1541.105 L293.75,1550 L300,1350 L306.25,1539.348 L312.5,1544.487 L318.75,1540.879 L325,1534.144 L331.25,1536.18 L337.5,1534.253 L343.75,1542.408 " stroke="blue" fill="none" />
<text x="50" y="1600" font-family="Arial" font-size="12" fill="black">Value Loss</text>
<text x="50" y="1615" font-family="Arial" font-size="10" fill="black">0.002865029</text>
<text x="50" y="1830" font-family="Arial" font-size="10" fill="black">0.0003056827</text>
<path d="M50,1623.469 L56.25,1676.79 L62.5,1691.917 L68.75,1699.979 L75,1704.637 L81.25,1706.993 L87.5,1709.247 L93.75,1711.243 L100,1667.789 L106.25,1693.816 L112.5,1710.103 L118.75,1717.544 L125,1721.36 L131.25,1723.627 L137.5,1725.153 L143.75,1726.241 L150,1620.001 L156.25,1674.872 L162.5,1704.557 L168.75,1714.645 L175,1720.022 L181.25,1721.045 L187.5,1723.063 L193.75,1725.96 L200,1693.106 L206.25,1777.782 L212.5,1802.887 L218.75,1811.93 L225,1815.607 L231.25,1817.686 L237.5,1818.782 L243.75,1820 L250,1627.698 L256.25,1719.471 L262.5,1754.824 L268.75,1764.936 L275,1770.805 L281.25,1775.17 L287.5,1779.003 L293.75,1780.591 L300,1621.234 L306.25,1705.002 L312.5,1721.119 L318.75,1728.34 L325,1729.974 L331.25,1733.336 L337.5,1734.887 L343.75,1736.275 " stroke="blue" fill="none" />
<text x="50" y="1870" font-family="Arial" font-size="12" fill="black">Learning Rate</text>
<text x="50" y="1885" font-family="Arial" font-size="10" fill="black">0.0002999994</text>
<text x="50" y="2100" font-family="Arial" font-size="10" fill="black">0.0002999693</text>
<path d="M50,1939.884 L56.25,1943.078 L62.5,1946.271 L68.75,1949.465 L75,1952.659 L81.25,1955.853 L87.5,1959.047 L93.75,1962.241 L100,1965.435 L106.25,1968.629 L112.5,1971.823 L118.75,1975.017 L125,1978.211 L131.25,1981.405 L137.5,1984.599 L143.75,1987.793 L150,1990.987 L156.25,1994.181 L162.5,1997.375 L168.75,2000.569 L175,2003.763 L181.25,2006.957 L187.5,2010.151 L193.75,2013.345 L200,2016.539 L206.25,2019.733 L212.5,2022.927 L218.75,2026.121 L225,2029.315 L231.25,2032.509 L237.5,2035.703 L243.75,2038.896 L250,2042.09 L256.25,2045.284 L262.5,2048.479 L268.75,2051.672 L275,2054.866 L281.25,2058.06 L287.5,2061.254 L293.75,2064.448 L300,2067.642 L306.25,2070.836 L312.5,2074.03 L318.75,2077.224 L325,2080.418 L331.25,2083.612 L337.5,2086.806 L343.75,2090 " stroke="blue" fill="none" />
<text x="50" y="2140" font-family="Arial" font-size="12" fill="black">Entropy</text>
<text x="50" y="2155" font-family="Arial" font-size="10" fill="black">-0.01439718</text>
<text x="50" y="2370" font-family="Arial" font-size="10" fill="black">-0.0153201</text>
<path d="M50,2179.052 L56.25,2183.031 L62.5,2186.1 L68.75,2209.09 L75,2182.697 L81.25,2201.111 L87.5,2195.842 L93.75,2199.745 L100,2189.927 L106.25,2160.002 L112.5,2189.079 L118.75,2173.82 L125,2202.26 L131.25,2193.388 L137.5,2189.524 L143.75,2205.977 L150,2175.1 L156.25,2225.801 L162.5,2235.348 L168.75,2237.364 L175,2243.665 L181.25,2239.304 L187.5,2240.878 L193.75,2240.551 L200,2280.938 L206.25,2318.428 L212.5,2287.436 L218.75,2290.807 L225,2290.482 L231.25,2275.857 L237.5,2284.249 L243.75,2288.736 L250,2313.438 L256.25,2325.289 L262.5,2309.159 L268.75,2321.343 L275,2326.453 L281.25,2320.917 L287.5,2333.17 L293.75,2327.05 L300,2338.829 L306.25,2360 L312.5,2352.958 L318.75,2348.334 L325,2358.235 L331.25,2358.214 L337.5,2349.019 L343.75,2351.257 " stroke="blue" fill="none" />
<text x="750" y="790" font-family="Arial" font-size="12" fill="black">Simplified</text>
<text x="750" y="805" font-family="Arial" font-size="10" fill="black">0</text>
<text x="750" y="1020" font-family="Arial" font-size="10" fill="black">-1</text>
<path d="M862.5,1010 L981.25,1010 L1100,899.4737 L1131.25,810 " stroke="blue" fill="none" />
<text x="750" y="1060" font-family="Arial" font-size="12" fill="black">Simplified</text>
<text x="750" y="1075" font-family="Arial" font-size="10" fill="black">781.2</text>
<text x="750" y="1290" font-family="Arial" font-size="10" fill="black">178.7895</text>
<path d="M862.5,1280 L981.25,1236.945 L1100,1133.326 L1131.25,1080 " stroke="blue" fill="none" />
</svg>
