<svg width="2000" height="2500" xmlns="http://www.w3.org/2000/svg">
<text x="10" y="20" font-family="Arial" font-size="26" fill="black"> [SpiderWalk] Training Session</text>
<text x="10" y="50" font-family="Arial" font-size="16" fill="black">[Statistics]</text>
<text x="50" y="70" font-family="Arial" font-size="12" fill="black">Started at: 1:25:30 PM, Tuesday, October 31, 2023</text>
<text x="50" y="90" font-family="Arial" font-size="12" fill="black">Finished at: 1:29:20 PM, Tuesday, October 31, 2023</text>
<text x="50" y="110" font-family="Arial" font-size="12" fill="black">Training Session Time: 0 hrs : 3 min : 39 sec</text>
<text x="50" y="130" font-family="Arial" font-size="12" fill="black">Inference Time: 0 hrs : 13 min : 55 sec       [Per agent: 0 hrs : 13 min : 55 sec]        [Device: CPU]</text>
<text x="50" y="150" font-family="Arial" font-size="12" fill="black">Policy Update Time: 0 hrs : 0 min : 31 sec        [Per iteration: 0 hrs : 0 min : 11 sec]        [Device: GPU]</text>
<text x="50" y="170" font-family="Arial" font-size="12" fill="black">Inference Time / Training Session Time: 3.800</text>
<text x="50" y="190" font-family="Arial" font-size="12" fill="black">Policy Update Time / Training Session Time: 0.142</text>
<text x="50" y="210" font-family="Arial" font-size="12" fill="black">Episode Count: 983</text>
<text x="50" y="230" font-family="Arial" font-size="12" fill="black">Inference Steps: 20859    [Per agent: 20859]     [Per Episode (mean): 21]</text>
<text x="50" y="250" font-family="Arial" font-size="12" fill="black">Iterations: 2</text>
<text x="50" y="270" font-family="Arial" font-size="12" fill="black">Parallel Agents: 1</text>
<text x="50" y="290" font-family="Arial" font-size="12" fill="black">Timescale: 4.97</text>
<text x="10" y="340" font-family="Arial" font-size="16" fill="black">[Hyperparameters]</text>
<text x="50" y="360" font-family="Arial" font-size="12" fill="black">Buffer Size: 10240        [Batch Size: 512       (x20)]</text>
<text x="50" y="380" font-family="Arial" font-size="12" fill="black">Num Epoch: 8</text>
<text x="50" y="400" font-family="Arial" font-size="12" fill="black">Time Horizon: 78</text>
<text x="50" y="420" font-family="Arial" font-size="12" fill="black">Gradient Cliping Normalization: 0.5</text>
<text x="50" y="440" font-family="Arial" font-size="12" fill="black">Advantages Normalization: True</text>
<text x="50" y="460" font-family="Arial" font-size="12" fill="black">Training Data Shuffle: True</text>
<text x="50" y="480" font-family="Arial" font-size="12" fill="black">Learning Rate Schedule: False    </text>
<text x="10" y="530" font-family="Arial" font-size="16" fill="black">[Behaviour]</text>
<text x="50" y="550" font-family="Arial" font-size="12" fill="black">Space Size: 126</text>
<text x="50" y="570" font-family="Arial" font-size="12" fill="black">Continuous Actions: 20 [Standard Deviation: Trainable]     </text>
<text x="50" y="590" font-family="Arial" font-size="12" fill="black">Discrete Actions: 0</text>
<text x="50" y="610" font-family="Arial" font-size="12" fill="black">TargetFPS: 50 (physics update rate)</text>
<text x="50" y="630" font-family="Arial" font-size="12" fill="black">Observations Normalization: False</text>
<text x="10" y="680" font-family="Arial" font-size="16" fill="black">[Decision Requester]</text>
<text x="50" y="700" font-family="Arial" font-size="12" fill="black">Max Step: 3000</text>
<text x="50" y="720" font-family="Arial" font-size="12" fill="black">Decision Period: 2      [Actions Between Decisions: True]</text>
<text x="10" y="770" font-family="Arial" font-size="16" fill="black">[Graphs]</text>
<text x="50" y="790" font-family="Arial" font-size="12" fill="black">Episode Reward (983)</text>
<text x="50" y="805" font-family="Arial" font-size="10" fill="black">1.33853</text>
<text x="50" y="1020" font-family="Arial" font-size="10" fill="black">0.2242182</text>
<path d="M50,982.6577 L50.39063,964.5038 L50.78125,961.4395 L51.17188,934.4361 L51.5625,1004.654 L51.95313,999.023 L52.34375,901.0875 L52.73438,1002.771 L53.125,958.4512 L53.51563,976.6053 L53.90625,982.5383 L54.29688,978.8318 L54.6875,961.1393 L55.07813,982.3345 L55.46875,949.0149 L55.85938,965.2813 L56.25,1005.227 L56.64063,950.9867 L57.03125,974.2974 L57.42188,944.6835 L57.8125,893.3292 L58.20313,975.0637 L58.59375,960.1985 L58.98438,980.2314 L59.375,999.7321 L59.76563,1008.208 L60.15625,971.2513 L60.54688,952.6892 L60.9375,1004.64 L61.32813,951.1989 L61.71875,1006.916 L62.10938,908.7603 L62.5,943.5252 L62.89063,999.5165 L63.28125,979.9056 L63.67188,977.111 L64.0625,1006.461 L64.45313,964.3451 L64.84375,995.3519 L65.23438,982.6617 L65.625,956.8714 L66.01563,946.1644 L66.40625,943.8311 L66.79688,920.544 L67.1875,1007.605 L67.57813,1008.824 L67.96875,997.2653 L68.35938,892.795 L68.75,925.1423 L69.14063,1006.322 L69.53125,987.3566 L69.92188,949.1992 L70.3125,983.4017 L70.70313,952.0878 L71.09375,933.7128 L71.48438,974.1343 L71.875,975.119 L72.26563,999.1588 L72.65625,1002.416 L73.04688,964.6133 L73.4375,941.7219 L73.82813,962.4775 L74.21875,993.3667 L74.60938,998.1848 L75,945.1971 L75.39063,985.5562 L75.78125,978.0853 L76.17188,1008.802 L76.5625,945.0949 L76.95313,961.7234 L77.34375,991.6324 L77.73438,982.3282 L78.125,961.1884 L78.51563,978.1026 L78.90625,1008.179 L79.29688,897.5717 L79.6875,1002.027 L80.07813,1008.392 L80.46875,979.087 L80.85938,984.2877 L81.25,1004.664 L81.64063,1002.435 L82.03125,997.1484 L82.42188,1005.603 L82.8125,996.0859 L83.20313,1002.289 L83.59375,1000.606 L83.98438,1006.145 L84.375,1007.383 L84.76563,985.4984 L85.15625,876.2691 L85.54688,997.1592 L85.9375,933.6028 L86.32813,942.0628 L86.71875,972.3745 L87.10938,1005.329 L87.5,939.9971 L87.89063,883.743 L88.28125,964.6893 L88.67188,977.073 L89.0625,960.4517 L89.45313,963.8127 L89.84375,1004.785 L90.23438,1007.686 L90.625,945.8129 L91.01563,990.7092 L91.40625,974.9118 L91.79688,995.2325 L92.1875,973.8497 L92.57813,955.2094 L92.96875,1006.011 L93.35938,1008.602 L93.75,960.5484 L94.14063,971.6683 L94.53125,968.2665 L94.92188,1004.731 L95.3125,987.1921 L95.70313,1005.991 L96.09375,997.212 L96.48438,966.809 L96.875,981.221 L97.26563,962.2731 L97.65625,928.8726 L98.04688,970.8348 L98.4375,938.8663 L98.82813,949.4432 L99.21875,940.9283 L99.60938,989.0101 L100,999.6653 L100.3906,965.3376 L100.7813,967.2003 L101.1719,911.8249 L101.5625,1006.186 L101.9531,999.4659 L102.3438,984.6058 L102.7344,1009.106 L103.125,941.7545 L103.5156,916.8731 L103.9063,962.3789 L104.2969,970.9686 L104.6875,964.9084 L105.0781,975.8934 L105.4688,922.0501 L105.8594,960.7574 L106.25,975.6981 L106.6406,931.934 L107.0313,985.0663 L107.4219,957.372 L107.8125,941.6758 L108.2031,990.9659 L108.5938,969.3076 L108.9844,942.7997 L109.375,985.454 L109.7656,999.7202 L110.1563,980.3148 L110.5469,944.3154 L110.9375,985.8223 L111.3281,987.8558 L111.7188,934.3182 L112.1094,909.2151 L112.5,943.4918 L112.8906,961.7171 L113.2813,1004.009 L113.6719,1006.499 L114.0625,982.6057 L114.4531,914.2449 L114.8438,961.4959 L115.2344,975.6923 L115.625,903.1041 L116.0156,934.2565 L116.4063,988.4612 L116.7969,988.6407 L117.1875,985.3781 L117.5781,970.9344 L117.9688,941.666 L118.3594,969.576 L118.75,995.9763 L119.1406,932.5065 L119.5313,985.3656 L119.9219,962.1428 L120.3125,1007.676 L120.7031,1008.626 L121.0938,934.1528 L121.4844,1008.095 L121.875,992.8912 L122.2656,993.428 L122.6563,956.5788 L123.0469,1007.642 L123.4375,980.9609 L123.8281,990.1743 L124.2188,953.1578 L124.6094,964.7587 L125,968.9197 L125.3906,965.0839 L125.7813,960.2746 L126.1719,999.4092 L126.5625,943.2543 L126.9531,960.4516 L127.3438,989.9867 L127.7344,925.5583 L128.125,933.6793 L128.5156,1008.763 L128.9063,915.2112 L129.2969,964.3706 L129.6875,1008.177 L130.0781,942.0945 L130.4688,1007.678 L130.8594,984.1375 L131.25,959.0685 L131.6406,987.4166 L132.0313,934.2717 L132.4219,970.054 L132.8125,963.834 L133.2031,999.9265 L133.5938,981.3334 L133.9844,996.0085 L134.375,873.8511 L134.7656,997.5037 L135.1563,983.994 L135.5469,928.0095 L135.9375,990.5339 L136.3281,1006.826 L136.7188,960.4855 L137.1094,1006.064 L137.5,1001.32 L137.8906,977.1122 L138.2813,954.2596 L138.6719,984.9894 L139.0625,970.5402 L139.4531,975.9549 L139.8438,982.6578 L140.2344,938.0173 L140.625,997.952 L141.0156,943.9718 L141.4063,988.2441 L141.7969,884.2552 L142.1875,937.4233 L142.5781,1009.302 L142.9688,995.077 L143.3594,973.6188 L143.75,974.0702 L144.1406,930.0474 L144.5313,1005.257 L144.9219,1005.576 L145.3125,952.074 L145.7031,965.2124 L146.0938,1004.525 L146.4844,977.2141 L146.875,958.1533 L147.2656,1002.328 L147.6563,963.1428 L148.0469,896.2594 L148.4375,956.0809 L148.8281,971.6476 L149.2188,1008.336 L149.6094,993.6042 L150,983.0291 L150.3906,944.7778 L150.7813,940.4833 L151.1719,1000.714 L151.5625,967.3197 L151.9531,984.1009 L152.3438,980.4955 L152.7344,953.6409 L153.125,936.0416 L153.5156,938.5514 L153.9063,1008.301 L154.2969,990.0984 L154.6875,1000.664 L155.0781,985.7781 L155.4688,937.678 L155.8594,995.8979 L156.25,1008.885 L156.6406,1003.809 L157.0313,920.7095 L157.4219,954.316 L157.8125,972.1901 L158.2031,1008.545 L158.5938,1008.277 L158.9844,971.9869 L159.375,979.2004 L159.7656,939.4586 L160.1563,1006.179 L160.5469,960.2844 L160.9375,980.366 L161.3281,1008.058 L161.7188,1004.214 L162.1094,987.5091 L162.5,934.226 L162.8906,969.3516 L163.2813,1001.003 L163.6719,1007.663 L164.0625,934.4698 L164.4531,1006.205 L164.8438,931.9017 L165.2344,969.5234 L165.625,970.6088 L166.0156,888.1528 L166.4063,959.1793 L166.7969,964.5937 L167.1875,950.3235 L167.5781,984.1636 L167.9688,921.4451 L168.3594,955.4155 L168.75,1002.398 L169.1406,965.3051 L169.5313,925.7216 L169.9219,1005.625 L170.3125,954.1788 L170.7031,975.2309 L171.0938,959.4344 L171.4844,981.5719 L171.875,983.9332 L172.2656,978.4745 L172.6563,942.0207 L173.0469,979.0233 L173.4375,972.4614 L173.8281,943.2207 L174.2188,928.5621 L174.6094,999.6744 L175,1008.106 L175.3906,979.0427 L175.7813,991.042 L176.1719,979.2296 L176.5625,998.6635 L176.9531,1005.061 L177.3438,973.315 L177.7344,976.4241 L178.125,1002.098 L178.5156,1004.561 L178.9063,821.7032 L179.2969,938.8604 L179.6875,1004.77 L180.0781,1006.51 L180.4688,956.8692 L180.8594,961.1957 L181.25,961.8857 L181.6406,1007.228 L182.0313,1004.594 L182.4219,953.1758 L182.8125,1001.345 L183.2031,979.9456 L183.5938,951.3018 L183.9844,1008.341 L184.375,963.5746 L184.7656,1008.03 L185.1563,982.2759 L185.5469,1004.192 L185.9375,973.5687 L186.3281,1002.109 L186.7188,998.0359 L187.1094,984.2828 L187.5,989.548 L187.8906,903.4929 L188.2813,982.5513 L188.6719,943.8748 L189.0625,1005.434 L189.4531,981.8472 L189.8438,871.4401 L190.2344,999.5717 L190.625,947.0094 L191.0156,957.5352 L191.4063,991.7592 L191.7969,1005.903 L192.1875,965.3087 L192.5781,992.3203 L192.9688,898.5081 L193.3594,969.5851 L193.75,959.9879 L194.1406,943.6194 L194.5313,907.0904 L194.9219,981.1061 L195.3125,1002.146 L195.7031,1004.807 L196.0938,949.0244 L196.4844,960.3041 L196.875,940.7026 L197.2656,968.9884 L197.6563,972.7005 L198.0469,989.8688 L198.4375,1007.479 L198.8281,1004.731 L199.2188,1005.124 L199.6094,975.8024 L200,938.8471 L200.3906,1002.716 L200.7813,929.8854 L201.1719,870.8031 L201.5625,966.8488 L201.9531,978.3708 L202.3438,1009.114 L202.7344,935.4435 L203.125,1002.249 L203.5156,1007.01 L203.9063,967.1666 L204.2969,988.5125 L204.6875,959.0551 L205.0781,933.0714 L205.4688,993.2283 L205.8594,985.4166 L206.25,1002.765 L206.6406,1001.795 L207.0313,984.2729 L207.4219,969.5598 L207.8125,1007.768 L208.2031,957.9708 L208.5938,948.3935 L208.9844,991.9846 L209.375,952.184 L209.7656,966.3433 L210.1563,962.0243 L210.5469,981.0119 L210.9375,988.2114 L211.3281,1005.901 L211.7188,987.4266 L212.1094,994.9044 L212.5,962.7278 L212.8906,984.7274 L213.2813,919.9102 L213.6719,998.4604 L214.0625,1004.539 L214.4531,1006.03 L214.8438,974.8449 L215.2344,978.0284 L215.625,948.2645 L216.0156,955.5884 L216.4063,1008.287 L216.7969,943.4623 L217.1875,1004.995 L217.5781,999.5107 L217.9688,1003.237 L218.3594,1004.955 L218.75,912.9249 L219.1406,927.9961 L219.5313,967.4863 L219.9219,1007.632 L220.3125,989.2134 L220.7031,993.0869 L221.0938,996.5663 L221.4844,1002.453 L221.875,951.5812 L222.2656,1008.22 L222.6563,873.8743 L223.0469,1007.725 L223.4375,1003.438 L223.8281,994.9595 L224.2188,1008.137 L224.6094,1007.959 L225,968.8666 L225.3906,984.4395 L225.7813,974.819 L226.1719,906.2855 L226.5625,982.0789 L226.9531,961.6011 L227.3438,981.5857 L227.7344,1005.241 L228.125,867.8371 L228.5156,952.6443 L228.9063,960.4594 L229.2969,982.1813 L229.6875,991.3569 L230.0781,960.1933 L230.4688,1005.193 L230.8594,878.8516 L231.25,975.1111 L231.6406,1005.065 L232.0313,938.2946 L232.4219,960.2096 L232.8125,966.7701 L233.2031,899.9345 L233.5938,975.1821 L233.9844,997.1967 L234.375,965.9685 L234.7656,1007.168 L235.1563,964.3805 L235.5469,976.4735 L235.9375,985.9514 L236.3281,1003.692 L236.7188,990.9541 L237.1094,1007.655 L237.5,995.6008 L237.8906,993.4267 L238.2813,993.1988 L238.6719,948.1273 L239.0625,952.8804 L239.4531,1000.909 L239.8438,955.1047 L240.2344,1000.629 L240.625,976.6196 L241.0156,963.532 L241.4063,938.6508 L241.7969,1001.051 L242.1875,995.0909 L242.5781,997.5361 L242.9688,978.1627 L243.3594,993.1639 L243.75,1008.604 L244.1406,966.967 L244.5313,1008.73 L244.9219,975.9219 L245.3125,969.2398 L245.7031,943.4456 L246.0938,913.3053 L246.4844,971.8919 L246.875,914.2528 L247.2656,948.9955 L247.6563,994.4319 L248.0469,981.6019 L248.4375,862.511 L248.8281,958.3775 L249.2188,990.8553 L249.6094,878.0459 L250,960.9514 L250.3906,1007.662 L250.7813,1004.451 L251.1719,938.7549 L251.5625,967.5876 L251.9531,966.4401 L252.3438,965.9365 L252.7344,980.5656 L253.125,883.5067 L253.5156,937.3455 L253.9063,997.7636 L254.2969,1009.266 L254.6875,991.7837 L255.0781,922.8347 L255.4688,960.5309 L255.8594,982.1019 L256.25,914.9559 L256.6406,951.9348 L257.0313,971.1521 L257.4219,951.7706 L257.8125,960.2794 L258.2031,901.0765 L258.5938,945.8983 L258.9844,927.2802 L259.375,891.0265 L259.7656,982.2574 L260.1563,947.8589 L260.5469,980.5132 L260.9375,941.6538 L261.3281,999.6899 L261.7188,972.2369 L262.1094,979.1188 L262.5,953.6161 L262.8906,978.7162 L263.2813,1005.119 L263.6719,1003.282 L264.0625,1004.397 L264.4531,958.7344 L264.8438,953.6228 L265.2344,935.7856 L265.625,1008.407 L266.0156,999.2118 L266.4063,981.4032 L266.7969,934.7532 L267.1875,985.6907 L267.5781,961.2732 L267.9688,982.9126 L268.3594,942.8194 L268.75,926.9186 L269.1406,968.0014 L269.5313,956.0594 L269.9219,840.2245 L270.3125,1005.343 L270.7031,1001.39 L271.0938,994.7341 L271.4844,961.0344 L271.875,979.6621 L272.2656,931.077 L272.6563,971.0627 L273.0469,1005.737 L273.4375,986.3647 L273.8281,969.3875 L274.2188,998.3477 L274.6094,1004.622 L275,1003.95 L275.3906,956.4306 L275.7813,974.4715 L276.1719,878.6943 L276.5625,973.775 L276.9531,968.095 L277.3438,965.8377 L277.7344,1006.72 L278.125,958.4685 L278.5156,1003.902 L278.9063,921.8266 L279.2969,1001.952 L279.6875,1002.335 L280.0781,810 L280.4688,996.5543 L280.8594,998.6714 L281.25,930.794 L281.6406,947.1532 L282.0313,1004.252 L282.4219,893.7622 L282.8125,938.5317 L283.2031,957.7351 L283.5938,991.5649 L283.9844,936.5975 L284.375,995.5182 L284.7656,944.2787 L285.1563,973.3083 L285.5469,977.0724 L285.9375,999.1987 L286.3281,963.7863 L286.7188,951.38 L287.1094,974.7409 L287.5,907.7213 L287.8906,947.0233 L288.2813,946.1108 L288.6719,987.2876 L289.0625,958.4464 L289.4531,1008.484 L289.8438,841.0006 L290.2344,967.8773 L290.625,953.3865 L291.0156,1002.082 L291.4063,966.8575 L291.7969,969.7213 L292.1875,963.6534 L292.5781,931.0532 L292.9688,985.4573 L293.3594,923.5776 L293.75,952.3795 L294.1406,961.6311 L294.5313,1005.491 L294.9219,977.7264 L295.3125,947.7469 L295.7031,856.1091 L296.0938,986.04 L296.4844,1005.629 L296.875,925.4274 L297.2656,996.7502 L297.6563,960.7809 L298.0469,967.6356 L298.4375,993.4829 L298.8281,986.2597 L299.2188,895.1576 L299.6094,998.4306 L300,1005.2 L300.3906,982.0298 L300.7813,967.4282 L301.1719,954.1518 L301.5625,1000.904 L301.9531,993.6048 L302.3438,964.4412 L302.7344,973.9787 L303.125,966.9884 L303.5156,961.2145 L303.9063,934.3074 L304.2969,860.8915 L304.6875,968.9932 L305.0781,1008.245 L305.4688,992.5694 L305.8594,880.7967 L306.25,983.3977 L306.6407,883.561 L307.0313,981.6083 L307.4219,982.3209 L307.8125,983.1456 L308.2031,1002.23 L308.5938,986.4186 L308.9844,937.8834 L309.375,964.2437 L309.7656,984.938 L310.1563,986.6744 L310.5469,995.2609 L310.9375,895.277 L311.3281,887.2847 L311.7188,988.3082 L312.1094,939.9763 L312.5,1002.289 L312.8906,943.5224 L313.2813,969.9801 L313.6719,996.6204 L314.0625,960.7427 L314.4532,961.7416 L314.8438,1005.396 L315.2344,933.4965 L315.625,977.2368 L316.0156,924.4109 L316.4063,983.9089 L316.7969,903.9868 L317.1875,961.1289 L317.5781,857.566 L317.9688,940.1537 L318.3594,948.5783 L318.75,1000.695 L319.1406,975.8112 L319.5313,930.1213 L319.9219,997.2913 L320.3125,989.2115 L320.7031,978.1106 L321.0938,890.5891 L321.4844,957.1273 L321.875,884.7628 L322.2657,945.0504 L322.6563,958.3588 L323.0469,943.9017 L323.4375,1003.029 L323.8281,958.2153 L324.2188,944.9916 L324.6094,953.0621 L325,1004.872 L325.3906,948.2465 L325.7813,977.6889 L326.1719,954.5877 L326.5625,1007.528 L326.9531,949.7916 L327.3438,960.9584 L327.7344,987.7045 L328.125,953.5804 L328.5156,990.8104 L328.9063,963.0055 L329.2969,923.0479 L329.6875,1003.538 L330.0782,963.3859 L330.4688,985.0197 L330.8594,1001.379 L331.25,894.7238 L331.6406,947.8625 L332.0313,998.112 L332.4219,986.4437 L332.8125,936.2552 L333.2031,925.8699 L333.5938,980.5716 L333.9844,978.9741 L334.375,932.879 L334.7656,969.4379 L335.1563,959.4904 L335.5469,906.6891 L335.9375,973.2684 L336.3281,971.3837 L336.7188,968.3919 L337.1094,926.2529 L337.5,990.843 L337.8907,889.1812 L338.2813,972.9181 L338.6719,894.3745 L339.0625,1004.548 L339.4531,923.0253 L339.8438,972.4454 L340.2344,982.4161 L340.625,939.535 L341.0156,984.4745 L341.4063,992.2276 L341.7969,1004.975 L342.1875,951.3657 L342.5781,981.6591 L342.9688,953.7641 L343.3594,893.4769 L343.75,993.1737 L344.1406,971.0206 L344.5313,957.3398 L344.9219,993.2114 L345.3125,941.9335 L345.7032,956.9687 L346.0938,907.713 L346.4844,972.7758 L346.875,826.4479 L347.2656,976.3378 L347.6563,855.5853 L348.0469,943.4208 L348.4375,969.8824 L348.8281,984.7927 L349.2188,967.8244 L349.6094,1000.891 L350,1003.515 L350.3906,929.5732 L350.7813,974.6685 L351.1719,1010 L351.5625,967.1433 L351.9531,970.4493 L352.3438,930.2495 L352.7344,1001.013 L353.125,974.7559 L353.5157,971.0563 L353.9063,887.3373 L354.2969,939.7289 L354.6875,945.9687 L355.0781,961.1981 L355.4688,966.4555 L355.8594,981.606 L356.25,974.4849 L356.6406,974.6104 L357.0313,1002.572 L357.4219,1000.26 L357.8125,975.7092 L358.2031,986.3475 L358.5938,984.5078 L358.9844,1009.553 L359.375,990.1412 L359.7656,890.8657 L360.1563,993.8292 L360.5469,907.1664 L360.9375,948.4417 L361.3282,1007.694 L361.7188,972.7961 L362.1094,989.1577 L362.5,939.4243 L362.8906,941.6536 L363.2813,976.0233 L363.6719,1003.123 L364.0625,880.6286 L364.4531,1000.314 L364.8438,969.1292 L365.2344,924.368 L365.625,936.8683 L366.0156,958.5643 L366.4063,945.4495 L366.7969,1005.086 L367.1875,957.9107 L367.5781,972.7908 L367.9688,971.6057 L368.3594,928.8307 L368.75,958.9077 L369.1407,945.097 L369.5313,949.916 L369.9219,903.8746 L370.3125,876.9644 L370.7031,951.6073 L371.0938,940.7603 L371.4844,1003.233 L371.875,1005.374 L372.2656,986.431 L372.6563,1004.77 L373.0469,989.5908 L373.4375,896.3134 L373.8281,969.0539 L374.2188,950.9204 L374.6094,868.4976 L375,998.7999 L375.3906,986.933 L375.7813,915.4369 L376.1719,916.9352 L376.5625,1007.88 L376.9532,990.7679 L377.3438,897.8692 L377.7344,975.6009 L378.125,992.6235 L378.5156,987.1189 L378.9063,957.9894 L379.2969,1001.963 L379.6875,928.2399 L380.0781,918.8158 L380.4688,995.4501 L380.8594,1002.19 L381.25,954.1312 L381.6406,992.703 L382.0313,1004.883 L382.4219,1005.814 L382.8125,1004.826 L383.2031,903.3367 L383.5938,959.4246 L383.9844,933.3591 L384.375,1004.859 L384.7657,1003.172 L385.1563,951.3809 L385.5469,972.0383 L385.9375,947.4268 L386.3281,1005.669 L386.7188,954.4714 L387.1094,954.5256 L387.5,981.5408 L387.8906,1006.29 L388.2813,944.7581 L388.6719,920.0803 L389.0625,925.9985 L389.4531,978.4646 L389.8438,961.8685 L390.2344,962.8992 L390.625,983.1909 L391.0156,947.8278 L391.4063,955.8318 L391.7969,923.5013 L392.1875,959.6642 L392.5782,950.6371 L392.9688,993.5567 L393.3594,922.0441 L393.75,940.5712 L394.1406,942.8875 L394.5313,954.4167 L394.9219,883.6675 L395.3125,960.0685 L395.7031,1008.609 L396.0938,960.7378 L396.4844,932.9326 L396.875,907.0955 L397.2656,1007.896 L397.6563,913.5974 L398.0469,986.6085 L398.4375,941.2471 L398.8281,968.4271 L399.2188,996.4407 L399.6094,973.0086 L400,954.3309 L400.3907,950.3423 L400.7813,984.2291 L401.1719,968.6169 L401.5625,964.5926 L401.9531,964.7 L402.3438,944.1494 L402.7344,973.4727 L403.125,989.1079 L403.5156,1006.935 L403.9063,1006.409 L404.2969,956.5759 L404.6875,971.1153 L405.0781,984.3203 L405.4688,919.7955 L405.8594,962.787 L406.25,1009.684 L406.6406,970.2042 L407.0313,1006.342 L407.4219,991.4799 L407.8125,960.2019 L408.2032,937.2012 L408.5938,1006.592 L408.9844,943.2273 L409.375,1005.589 L409.7656,914.9902 L410.1563,983.3715 L410.5469,941.9464 L410.9375,999.3372 L411.3281,936.8965 L411.7188,981.1068 L412.1094,1000.74 L412.5,1001.463 L412.8906,950.1194 L413.2813,979.9999 L413.6719,974.1312 L414.0625,1002.062 L414.4531,983.2737 L414.8438,925.178 L415.2344,946.7242 L415.625,999.3817 L416.0157,984.0398 L416.4063,865.6218 L416.7969,926.4977 L417.1875,994.6104 L417.5781,946.0052 L417.9688,1004.514 L418.3594,958.4551 L418.75,1000.806 L419.1406,972.82 L419.5313,1009.375 L419.9219,1009.375 L420.3125,1009.375 L420.7031,1009.375 L421.0938,1009.375 L421.4844,1009.375 L421.875,1009.375 L422.2656,1009.375 L422.6563,1009.375 L423.0469,1009.375 L423.4375,1009.375 L423.8282,1009.375 L424.2188,1009.375 L424.6094,1009.375 L425,1009.375 L425.3906,1009.375 L425.7813,1009.375 L426.1719,1009.375 L426.5625,1009.375 L426.9531,1009.375 L427.3438,1009.375 L427.7344,1009.375 L428.125,1009.375 L428.5156,1009.375 L428.9063,1009.375 L429.2969,1009.375 L429.6875,1009.375 L430.0781,1009.375 L430.4688,1009.375 L430.8594,1009.375 L431.25,1009.375 L431.6407,1009.375 L432.0313,1009.375 L432.4219,1009.375 L432.8125,1009.375 L433.2031,1009.375 L433.5938,1009.375 " stroke="blue" fill="none" />
<text x="50" y="1060" font-family="Arial" font-size="12" fill="black">Episode Length (983)</text>
<text x="50" y="1075" font-family="Arial" font-size="10" fill="black">68</text>
<text x="50" y="1290" font-family="Arial" font-size="10" fill="black">10</text>
<path d="M50,1255.862 L50.39063,1235.172 L50.78125,1228.276 L51.17188,1207.586 L51.5625,1276.552 L51.95313,1269.655 L52.34375,1180 L52.73438,1273.103 L53.125,1231.724 L53.51563,1245.517 L53.90625,1255.862 L54.29688,1245.517 L54.6875,1238.621 L55.07813,1255.862 L55.46875,1231.724 L55.85938,1238.621 L56.25,1276.552 L56.64063,1224.828 L57.03125,1242.069 L57.42188,1217.931 L57.8125,1176.552 L58.20313,1238.621 L58.59375,1228.276 L58.98438,1248.966 L59.375,1269.655 L59.76563,1280 L60.15625,1248.966 L60.54688,1224.828 L60.9375,1276.552 L61.32813,1228.276 L61.71875,1280 L62.10938,1176.552 L62.5,1221.379 L62.89063,1269.655 L63.28125,1248.966 L63.67188,1245.517 L64.0625,1276.552 L64.45313,1238.621 L64.84375,1266.207 L65.23438,1252.414 L65.625,1228.276 L66.01563,1211.034 L66.40625,1214.483 L66.79688,1200.69 L67.1875,1280 L67.57813,1280 L67.96875,1269.655 L68.35938,1166.207 L68.75,1204.138 L69.14063,1276.552 L69.53125,1255.862 L69.92188,1221.379 L70.3125,1252.414 L70.70313,1228.276 L71.09375,1211.034 L71.48438,1242.069 L71.875,1245.517 L72.26563,1269.655 L72.65625,1273.103 L73.04688,1242.069 L73.4375,1217.931 L73.82813,1238.621 L74.21875,1262.759 L74.60938,1269.655 L75,1214.483 L75.39063,1252.414 L75.78125,1248.966 L76.17188,1280 L76.5625,1217.931 L76.95313,1235.172 L77.34375,1262.759 L77.73438,1252.414 L78.125,1235.172 L78.51563,1245.517 L78.90625,1280 L79.29688,1173.103 L79.6875,1273.103 L80.07813,1280 L80.46875,1248.966 L80.85938,1252.414 L81.25,1276.552 L81.64063,1273.103 L82.03125,1266.207 L82.42188,1276.552 L82.8125,1266.207 L83.20313,1273.103 L83.59375,1273.103 L83.98438,1276.552 L84.375,1280 L84.76563,1255.862 L85.15625,1145.517 L85.54688,1266.207 L85.9375,1211.034 L86.32813,1214.483 L86.71875,1242.069 L87.10938,1276.552 L87.5,1221.379 L87.89063,1166.207 L88.28125,1235.172 L88.67188,1245.517 L89.0625,1235.172 L89.45313,1231.724 L89.84375,1276.552 L90.23438,1280 L90.625,1224.828 L91.01563,1262.759 L91.40625,1242.069 L91.79688,1269.655 L92.1875,1245.517 L92.57813,1221.379 L92.96875,1276.552 L93.35938,1280 L93.75,1228.276 L94.14063,1238.621 L94.53125,1242.069 L94.92188,1276.552 L95.3125,1259.31 L95.70313,1276.552 L96.09375,1266.207 L96.48438,1235.172 L96.875,1255.862 L97.26563,1238.621 L97.65625,1200.69 L98.04688,1238.621 L98.4375,1214.483 L98.82813,1214.483 L99.21875,1214.483 L99.60938,1259.31 L100,1269.655 L100.3906,1231.724 L100.7813,1242.069 L101.1719,1190.345 L101.5625,1276.552 L101.9531,1269.655 L102.3438,1259.31 L102.7344,1280 L103.125,1211.034 L103.5156,1186.897 L103.9063,1235.172 L104.2969,1238.621 L104.6875,1235.172 L105.0781,1248.966 L105.4688,1180 L105.8594,1238.621 L106.25,1248.966 L106.6406,1204.138 L107.0313,1255.862 L107.4219,1228.276 L107.8125,1221.379 L108.2031,1259.31 L108.5938,1242.069 L108.9844,1217.931 L109.375,1252.414 L109.7656,1269.655 L110.1563,1248.966 L110.5469,1221.379 L110.9375,1255.862 L111.3281,1259.31 L111.7188,1214.483 L112.1094,1190.345 L112.5,1214.483 L112.8906,1235.172 L113.2813,1276.552 L113.6719,1276.552 L114.0625,1255.862 L114.4531,1204.138 L114.8438,1235.172 L115.2344,1242.069 L115.625,1183.448 L116.0156,1204.138 L116.4063,1259.31 L116.7969,1262.759 L117.1875,1255.862 L117.5781,1242.069 L117.9688,1221.379 L118.3594,1242.069 L118.75,1266.207 L119.1406,1207.586 L119.5313,1255.862 L119.9219,1231.724 L120.3125,1280 L120.7031,1280 L121.0938,1204.138 L121.4844,1280 L121.875,1262.759 L122.2656,1266.207 L122.6563,1228.276 L123.0469,1280 L123.4375,1252.414 L123.8281,1262.759 L124.2188,1228.276 L124.6094,1238.621 L125,1238.621 L125.3906,1238.621 L125.7813,1228.276 L126.1719,1273.103 L126.5625,1217.931 L126.9531,1235.172 L127.3438,1262.759 L127.7344,1197.241 L128.125,1211.034 L128.5156,1280 L128.9063,1190.345 L129.2969,1235.172 L129.6875,1280 L130.0781,1211.034 L130.4688,1280 L130.8594,1252.414 L131.25,1228.276 L131.6406,1255.862 L132.0313,1214.483 L132.4219,1238.621 L132.8125,1235.172 L133.2031,1269.655 L133.5938,1252.414 L133.9844,1266.207 L134.375,1152.414 L134.7656,1269.655 L135.1563,1255.862 L135.5469,1193.793 L135.9375,1259.31 L136.3281,1276.552 L136.7188,1221.379 L137.1094,1276.552 L137.5,1273.103 L137.8906,1248.966 L138.2813,1217.931 L138.6719,1255.862 L139.0625,1235.172 L139.4531,1248.966 L139.8438,1255.862 L140.2344,1204.138 L140.625,1269.655 L141.0156,1217.931 L141.4063,1262.759 L141.7969,1159.31 L142.1875,1211.034 L142.5781,1280 L142.9688,1266.207 L143.3594,1242.069 L143.75,1245.517 L144.1406,1204.138 L144.5313,1276.552 L144.9219,1276.552 L145.3125,1224.828 L145.7031,1242.069 L146.0938,1276.552 L146.4844,1248.966 L146.875,1224.828 L147.2656,1273.103 L147.6563,1238.621 L148.0469,1180 L148.4375,1231.724 L148.8281,1238.621 L149.2188,1280 L149.6094,1262.759 L150,1252.414 L150.3906,1224.828 L150.7813,1217.931 L151.1719,1273.103 L151.5625,1245.517 L151.9531,1255.862 L152.3438,1248.966 L152.7344,1217.931 L153.125,1211.034 L153.5156,1214.483 L153.9063,1280 L154.2969,1259.31 L154.6875,1273.103 L155.0781,1259.31 L155.4688,1214.483 L155.8594,1269.655 L156.25,1280 L156.6406,1276.552 L157.0313,1197.241 L157.4219,1224.828 L157.8125,1242.069 L158.2031,1280 L158.5938,1280 L158.9844,1238.621 L159.375,1248.966 L159.7656,1211.034 L160.1563,1276.552 L160.5469,1235.172 L160.9375,1245.517 L161.3281,1280 L161.7188,1276.552 L162.1094,1255.862 L162.5,1214.483 L162.8906,1235.172 L163.2813,1273.103 L163.6719,1280 L164.0625,1207.586 L164.4531,1276.552 L164.8438,1211.034 L165.2344,1242.069 L165.625,1245.517 L166.0156,1155.862 L166.4063,1235.172 L166.7969,1235.172 L167.1875,1217.931 L167.5781,1252.414 L167.9688,1197.241 L168.3594,1228.276 L168.75,1273.103 L169.1406,1235.172 L169.5313,1204.138 L169.9219,1276.552 L170.3125,1228.276 L170.7031,1248.966 L171.0938,1228.276 L171.4844,1248.966 L171.875,1255.862 L172.2656,1245.517 L172.6563,1207.586 L173.0469,1245.517 L173.4375,1245.517 L173.8281,1217.931 L174.2188,1186.897 L174.6094,1273.103 L175,1280 L175.3906,1245.517 L175.7813,1259.31 L176.1719,1252.414 L176.5625,1269.655 L176.9531,1276.552 L177.3438,1245.517 L177.7344,1248.966 L178.125,1273.103 L178.5156,1276.552 L178.9063,1090.345 L179.2969,1207.586 L179.6875,1276.552 L180.0781,1280 L180.4688,1235.172 L180.8594,1228.276 L181.25,1231.724 L181.6406,1280 L182.0313,1276.552 L182.4219,1231.724 L182.8125,1273.103 L183.2031,1252.414 L183.5938,1221.379 L183.9844,1280 L184.375,1235.172 L184.7656,1280 L185.1563,1252.414 L185.5469,1276.552 L185.9375,1248.966 L186.3281,1273.103 L186.7188,1269.655 L187.1094,1252.414 L187.5,1259.31 L187.8906,1173.103 L188.2813,1255.862 L188.6719,1214.483 L189.0625,1276.552 L189.4531,1248.966 L189.8438,1152.414 L190.2344,1269.655 L190.625,1221.379 L191.0156,1231.724 L191.4063,1262.759 L191.7969,1276.552 L192.1875,1242.069 L192.5781,1262.759 L192.9688,1176.552 L193.3594,1238.621 L193.75,1235.172 L194.1406,1217.931 L194.5313,1183.448 L194.9219,1248.966 L195.3125,1273.103 L195.7031,1276.552 L196.0938,1217.931 L196.4844,1235.172 L196.875,1214.483 L197.2656,1245.517 L197.6563,1242.069 L198.0469,1259.31 L198.4375,1280 L198.8281,1276.552 L199.2188,1276.552 L199.6094,1245.517 L200,1214.483 L200.3906,1273.103 L200.7813,1211.034 L201.1719,1138.621 L201.5625,1231.724 L201.9531,1248.966 L202.3438,1280 L202.7344,1211.034 L203.125,1273.103 L203.5156,1280 L203.9063,1238.621 L204.2969,1259.31 L204.6875,1231.724 L205.0781,1204.138 L205.4688,1262.759 L205.8594,1255.862 L206.25,1273.103 L206.6406,1273.103 L207.0313,1255.862 L207.4219,1238.621 L207.8125,1280 L208.2031,1231.724 L208.5938,1224.828 L208.9844,1262.759 L209.375,1224.828 L209.7656,1231.724 L210.1563,1231.724 L210.5469,1248.966 L210.9375,1259.31 L211.3281,1276.552 L211.7188,1255.862 L212.1094,1262.759 L212.5,1238.621 L212.8906,1252.414 L213.2813,1190.345 L213.6719,1269.655 L214.0625,1276.552 L214.4531,1276.552 L214.8438,1248.966 L215.2344,1245.517 L215.625,1228.276 L216.0156,1217.931 L216.4063,1280 L216.7969,1217.931 L217.1875,1276.552 L217.5781,1269.655 L217.9688,1276.552 L218.3594,1276.552 L218.75,1190.345 L219.1406,1200.69 L219.5313,1235.172 L219.9219,1280 L220.3125,1259.31 L220.7031,1262.759 L221.0938,1266.207 L221.4844,1273.103 L221.875,1224.828 L222.2656,1280 L222.6563,1142.069 L223.0469,1280 L223.4375,1273.103 L223.8281,1266.207 L224.2188,1280 L224.6094,1280 L225,1245.517 L225.3906,1252.414 L225.7813,1245.517 L226.1719,1180 L226.5625,1252.414 L226.9531,1238.621 L227.3438,1252.414 L227.7344,1276.552 L228.125,1138.621 L228.5156,1228.276 L228.9063,1235.172 L229.2969,1252.414 L229.6875,1262.759 L230.0781,1238.621 L230.4688,1276.552 L230.8594,1148.966 L231.25,1248.966 L231.6406,1276.552 L232.0313,1207.586 L232.4219,1235.172 L232.8125,1238.621 L233.2031,1169.655 L233.5938,1248.966 L233.9844,1266.207 L234.375,1242.069 L234.7656,1280 L235.1563,1235.172 L235.5469,1245.517 L235.9375,1255.862 L236.3281,1273.103 L236.7188,1262.759 L237.1094,1280 L237.5,1266.207 L237.8906,1262.759 L238.2813,1262.759 L238.6719,1228.276 L239.0625,1224.828 L239.4531,1273.103 L239.8438,1221.379 L240.2344,1269.655 L240.625,1245.517 L241.0156,1235.172 L241.4063,1204.138 L241.7969,1273.103 L242.1875,1266.207 L242.5781,1269.655 L242.9688,1248.966 L243.3594,1262.759 L243.75,1280 L244.1406,1242.069 L244.5313,1280 L244.9219,1245.517 L245.3125,1235.172 L245.7031,1221.379 L246.0938,1190.345 L246.4844,1245.517 L246.875,1193.793 L247.2656,1221.379 L247.6563,1266.207 L248.0469,1252.414 L248.4375,1135.172 L248.8281,1231.724 L249.2188,1262.759 L249.6094,1159.31 L250,1238.621 L250.3906,1280 L250.7813,1276.552 L251.1719,1211.034 L251.5625,1238.621 L251.9531,1235.172 L252.3438,1235.172 L252.7344,1255.862 L253.125,1162.759 L253.5156,1228.276 L253.9063,1269.655 L254.2969,1280 L254.6875,1262.759 L255.0781,1197.241 L255.4688,1231.724 L255.8594,1252.414 L256.25,1183.448 L256.6406,1221.379 L257.0313,1245.517 L257.4219,1228.276 L257.8125,1235.172 L258.2031,1176.552 L258.5938,1221.379 L258.9844,1207.586 L259.375,1173.103 L259.7656,1252.414 L260.1563,1224.828 L260.5469,1255.862 L260.9375,1217.931 L261.3281,1269.655 L261.7188,1242.069 L262.1094,1248.966 L262.5,1231.724 L262.8906,1245.517 L263.2813,1276.552 L263.6719,1276.552 L264.0625,1276.552 L264.4531,1231.724 L264.8438,1231.724 L265.2344,1207.586 L265.625,1280 L266.0156,1269.655 L266.4063,1255.862 L266.7969,1214.483 L267.1875,1255.862 L267.5781,1238.621 L267.9688,1248.966 L268.3594,1217.931 L268.75,1200.69 L269.1406,1238.621 L269.5313,1235.172 L269.9219,1124.828 L270.3125,1276.552 L270.7031,1273.103 L271.0938,1266.207 L271.4844,1231.724 L271.875,1252.414 L272.2656,1207.586 L272.6563,1242.069 L273.0469,1276.552 L273.4375,1259.31 L273.8281,1238.621 L274.2188,1269.655 L274.6094,1276.552 L275,1276.552 L275.3906,1231.724 L275.7813,1245.517 L276.1719,1155.862 L276.5625,1242.069 L276.9531,1242.069 L277.3438,1238.621 L277.7344,1280 L278.125,1235.172 L278.5156,1276.552 L278.9063,1204.138 L279.2969,1273.103 L279.6875,1273.103 L280.0781,1080 L280.4688,1266.207 L280.8594,1269.655 L281.25,1214.483 L281.6406,1211.034 L282.0313,1276.552 L282.4219,1176.552 L282.8125,1217.931 L283.2031,1224.828 L283.5938,1262.759 L283.9844,1217.931 L284.375,1266.207 L284.7656,1224.828 L285.1563,1242.069 L285.5469,1245.517 L285.9375,1269.655 L286.3281,1228.276 L286.7188,1228.276 L287.1094,1245.517 L287.5,1176.552 L287.8906,1224.828 L288.2813,1221.379 L288.6719,1259.31 L289.0625,1231.724 L289.4531,1280 L289.8438,1121.379 L290.2344,1242.069 L290.625,1228.276 L291.0156,1273.103 L291.4063,1238.621 L291.7969,1238.621 L292.1875,1238.621 L292.5781,1207.586 L292.9688,1252.414 L293.3594,1204.138 L293.75,1228.276 L294.1406,1235.172 L294.5313,1276.552 L294.9219,1248.966 L295.3125,1224.828 L295.7031,1131.724 L296.0938,1255.862 L296.4844,1276.552 L296.875,1193.793 L297.2656,1266.207 L297.6563,1235.172 L298.0469,1235.172 L298.4375,1266.207 L298.8281,1255.862 L299.2188,1173.103 L299.6094,1269.655 L300,1276.552 L300.3906,1252.414 L300.7813,1242.069 L301.1719,1231.724 L301.5625,1273.103 L301.9531,1266.207 L302.3438,1235.172 L302.7344,1248.966 L303.125,1242.069 L303.5156,1235.172 L303.9063,1211.034 L304.2969,1135.172 L304.6875,1242.069 L305.0781,1280 L305.4688,1266.207 L305.8594,1142.069 L306.25,1252.414 L306.6407,1159.31 L307.0313,1252.414 L307.4219,1252.414 L307.8125,1252.414 L308.2031,1273.103 L308.5938,1255.862 L308.9844,1214.483 L309.375,1235.172 L309.7656,1252.414 L310.1563,1255.862 L310.5469,1266.207 L310.9375,1162.759 L311.3281,1176.552 L311.7188,1255.862 L312.1094,1211.034 L312.5,1273.103 L312.8906,1217.931 L313.2813,1242.069 L313.6719,1269.655 L314.0625,1231.724 L314.4532,1231.724 L314.8438,1276.552 L315.2344,1211.034 L315.625,1248.966 L316.0156,1200.69 L316.4063,1255.862 L316.7969,1183.448 L317.1875,1235.172 L317.5781,1124.828 L317.9688,1217.931 L318.3594,1221.379 L318.75,1273.103 L319.1406,1248.966 L319.5313,1214.483 L319.9219,1266.207 L320.3125,1262.759 L320.7031,1252.414 L321.0938,1169.655 L321.4844,1228.276 L321.875,1166.207 L322.2657,1214.483 L322.6563,1228.276 L323.0469,1217.931 L323.4375,1276.552 L323.8281,1224.828 L324.2188,1224.828 L324.6094,1228.276 L325,1276.552 L325.3906,1221.379 L325.7813,1248.966 L326.1719,1235.172 L326.5625,1280 L326.9531,1228.276 L327.3438,1235.172 L327.7344,1259.31 L328.125,1221.379 L328.5156,1259.31 L328.9063,1235.172 L329.2969,1193.793 L329.6875,1276.552 L330.0782,1238.621 L330.4688,1255.862 L330.8594,1273.103 L331.25,1176.552 L331.6406,1228.276 L332.0313,1269.655 L332.4219,1255.862 L332.8125,1211.034 L333.2031,1197.241 L333.5938,1248.966 L333.9844,1252.414 L334.375,1211.034 L334.7656,1245.517 L335.1563,1224.828 L335.5469,1186.897 L335.9375,1238.621 L336.3281,1245.517 L336.7188,1235.172 L337.1094,1197.241 L337.5,1262.759 L337.8907,1169.655 L338.2813,1238.621 L338.6719,1176.552 L339.0625,1276.552 L339.4531,1200.69 L339.8438,1245.517 L340.2344,1255.862 L340.625,1217.931 L341.0156,1255.862 L341.4063,1259.31 L341.7969,1276.552 L342.1875,1228.276 L342.5781,1248.966 L342.9688,1228.276 L343.3594,1169.655 L343.75,1266.207 L344.1406,1242.069 L344.5313,1231.724 L344.9219,1262.759 L345.3125,1214.483 L345.7032,1231.724 L346.0938,1183.448 L346.4844,1245.517 L346.875,1100.69 L347.2656,1248.966 L347.6563,1121.379 L348.0469,1221.379 L348.4375,1238.621 L348.8281,1259.31 L349.2188,1235.172 L349.6094,1273.103 L350,1276.552 L350.3906,1190.345 L350.7813,1242.069 L351.1719,1280 L351.5625,1242.069 L351.9531,1238.621 L352.3438,1204.138 L352.7344,1273.103 L353.125,1242.069 L353.5157,1245.517 L353.9063,1169.655 L354.2969,1207.586 L354.6875,1228.276 L355.0781,1235.172 L355.4688,1238.621 L355.8594,1248.966 L356.25,1242.069 L356.6406,1238.621 L357.0313,1273.103 L357.4219,1273.103 L357.8125,1245.517 L358.2031,1259.31 L358.5938,1255.862 L358.9844,1280 L359.375,1259.31 L359.7656,1162.759 L360.1563,1266.207 L360.5469,1180 L360.9375,1231.724 L361.3282,1280 L361.7188,1242.069 L362.1094,1259.31 L362.5,1211.034 L362.8906,1211.034 L363.2813,1248.966 L363.6719,1273.103 L364.0625,1142.069 L364.4531,1273.103 L364.8438,1242.069 L365.2344,1200.69 L365.625,1211.034 L366.0156,1235.172 L366.4063,1221.379 L366.7969,1276.552 L367.1875,1228.276 L367.5781,1238.621 L367.9688,1242.069 L368.3594,1214.483 L368.75,1224.828 L369.1407,1221.379 L369.5313,1221.379 L369.9219,1176.552 L370.3125,1155.862 L370.7031,1221.379 L371.0938,1217.931 L371.4844,1276.552 L371.875,1276.552 L372.2656,1259.31 L372.6563,1276.552 L373.0469,1262.759 L373.4375,1176.552 L373.8281,1238.621 L374.2188,1221.379 L374.6094,1138.621 L375,1269.655 L375.3906,1255.862 L375.7813,1186.897 L376.1719,1193.793 L376.5625,1280 L376.9532,1259.31 L377.3438,1180 L377.7344,1245.517 L378.125,1262.759 L378.5156,1259.31 L378.9063,1235.172 L379.2969,1273.103 L379.6875,1204.138 L380.0781,1200.69 L380.4688,1266.207 L380.8594,1273.103 L381.25,1231.724 L381.6406,1262.759 L382.0313,1276.552 L382.4219,1276.552 L382.8125,1276.552 L383.2031,1180 L383.5938,1228.276 L383.9844,1211.034 L384.375,1276.552 L384.7657,1273.103 L385.1563,1228.276 L385.5469,1245.517 L385.9375,1224.828 L386.3281,1276.552 L386.7188,1224.828 L387.1094,1228.276 L387.5,1255.862 L387.8906,1276.552 L388.2813,1217.931 L388.6719,1200.69 L389.0625,1207.586 L389.4531,1245.517 L389.8438,1235.172 L390.2344,1228.276 L390.625,1255.862 L391.0156,1221.379 L391.4063,1231.724 L391.7969,1197.241 L392.1875,1235.172 L392.5782,1224.828 L392.9688,1262.759 L393.3594,1193.793 L393.75,1214.483 L394.1406,1214.483 L394.5313,1224.828 L394.9219,1166.207 L395.3125,1235.172 L395.7031,1280 L396.0938,1231.724 L396.4844,1197.241 L396.875,1186.897 L397.2656,1280 L397.6563,1193.793 L398.0469,1259.31 L398.4375,1214.483 L398.8281,1245.517 L399.2188,1269.655 L399.6094,1245.517 L400,1224.828 L400.3907,1224.828 L400.7813,1252.414 L401.1719,1238.621 L401.5625,1238.621 L401.9531,1238.621 L402.3438,1221.379 L402.7344,1248.966 L403.125,1262.759 L403.5156,1280 L403.9063,1280 L404.2969,1228.276 L404.6875,1245.517 L405.0781,1252.414 L405.4688,1193.793 L405.8594,1238.621 L406.25,1280 L406.6406,1242.069 L407.0313,1276.552 L407.4219,1262.759 L407.8125,1235.172 L408.2032,1217.931 L408.5938,1276.552 L408.9844,1221.379 L409.375,1276.552 L409.7656,1204.138 L410.1563,1252.414 L410.5469,1217.931 L410.9375,1269.655 L411.3281,1217.931 L411.7188,1248.966 L412.1094,1273.103 L412.5,1273.103 L412.8906,1224.828 L413.2813,1252.414 L413.6719,1248.966 L414.0625,1273.103 L414.4531,1255.862 L414.8438,1197.241 L415.2344,1214.483 L415.625,1269.655 L416.0157,1252.414 L416.4063,1138.621 L416.7969,1193.793 L417.1875,1266.207 L417.5781,1221.379 L417.9688,1276.552 L418.3594,1231.724 L418.75,1273.103 L419.1406,1245.517 L419.5313,1280 L419.9219,1280 L420.3125,1280 L420.7031,1280 L421.0938,1280 L421.4844,1280 L421.875,1280 L422.2656,1280 L422.6563,1280 L423.0469,1280 L423.4375,1280 L423.8282,1280 L424.2188,1280 L424.6094,1280 L425,1280 L425.3906,1280 L425.7813,1280 L426.1719,1280 L426.5625,1280 L426.9531,1280 L427.3438,1280 L427.7344,1280 L428.125,1280 L428.5156,1280 L428.9063,1280 L429.2969,1280 L429.6875,1280 L430.0781,1280 L430.4688,1280 L430.8594,1280 L431.25,1280 L431.6407,1280 L432.0313,1280 L432.4219,1280 L432.8125,1280 L433.2031,1280 L433.5938,1280 " stroke="blue" fill="none" />
<text x="50" y="1330" font-family="Arial" font-size="12" fill="black">Policy Loss</text>
<text x="50" y="1345" font-family="Arial" font-size="10" fill="black">0.007602444</text>
<text x="50" y="1560" font-family="Arial" font-size="10" fill="black">0</text>
<path d="M50,1484.551 L75,1460.618 L100,1426.552 L125,1377.612 L150,1376.311 L175,1350 L200,1353.604 L225,1394.316 L250,1508.246 L275,1550 L300,1550 L325,1550 L350,1550 L375,1550 L400,1550 L425,1550 " stroke="blue" fill="none" />
<text x="50" y="1600" font-family="Arial" font-size="12" fill="black">Value Loss</text>
<text x="50" y="1615" font-family="Arial" font-size="10" fill="black">0.2331391</text>
<text x="50" y="1830" font-family="Arial" font-size="10" fill="black">0.00222641</text>
<path d="M50,1620 L75,1779.17 L100,1801.248 L125,1808.75 L150,1812.418 L175,1814.672 L200,1816.132 L225,1817.089 L250,1816.392 L275,1817.416 L300,1818.242 L325,1818.856 L350,1819.268 L375,1819.589 L400,1819.824 L425,1820 " stroke="blue" fill="none" />
<text x="50" y="1870" font-family="Arial" font-size="12" fill="black">Learning Rate</text>
<text x="50" y="1885" font-family="Arial" font-size="10" fill="black">0.0002999985</text>
<text x="50" y="2100" font-family="Arial" font-size="10" fill="black">0.0002999753</text>
<path d="M50,1950.354 L75,1959.664 L100,1968.974 L125,1978.284 L150,1987.593 L175,1996.903 L200,2006.213 L225,2015.522 L250,2024.832 L275,2034.142 L300,2043.452 L325,2052.761 L350,2062.071 L375,2071.381 L400,2080.69 L425,2090 " stroke="blue" fill="none" />
<text x="50" y="2140" font-family="Arial" font-size="12" fill="black">Entropy</text>
<text x="50" y="2155" font-family="Arial" font-size="10" fill="black">Infinity</text>
<text x="50" y="2370" font-family="Arial" font-size="10" fill="black">0</text>
<path d="M50,2360 L75,2360 L100,2360 L125,2360 L150,2360 L175,2360 L200,2360 L225,2360 L250,NaN L275,2360 L300,2360 L325,2360 L350,2360 L375,2360 L400,2360 L425,2360 " stroke="blue" fill="none" />
<text x="750" y="790" font-family="Arial" font-size="12" fill="black">Simplified</text>
<text x="750" y="805" font-family="Arial" font-size="10" fill="black">0.5598109</text>
<text x="750" y="1020" font-family="Arial" font-size="10" fill="black">0.2277031</text>
<path d="M757.0313,878.8204 L764.4531,877.4932 L771.875,861.7101 L779.2969,891.203 L786.7188,926.1188 L794.1406,888.505 L801.5625,879.983 L808.9844,855.5632 L816.4063,855.3886 L823.8281,910.1003 L831.25,864.4727 L838.6719,889.8596 L846.0938,878.5547 L853.5156,864.8058 L860.9375,913.6702 L868.3594,863.4083 L875.7813,885.8392 L883.2031,896.8604 L890.625,890.3343 L898.0469,865.7497 L905.4688,885.9154 L912.8906,914.1581 L920.3125,900.0267 L927.7344,910.1896 L935.1563,846.8071 L942.5781,921.5212 L950,840.707 L957.4219,856.0511 L964.8438,852.525 L972.2656,854.348 L979.6875,899.4286 L987.1094,834.6049 L994.5313,833.6057 L1001.953,872.6775 L1009.375,840.315 L1016.797,844.5208 L1024.219,813.3772 L1031.641,867.4322 L1039.063,831.2468 L1046.484,850.2512 L1053.906,827.5488 L1061.328,879.855 L1068.75,843.0338 L1076.172,812.6382 L1083.594,887.005 L1091.016,861.9628 L1098.438,810 L1105.859,879.54 L1113.281,893.8682 L1120.703,894.0672 L1128.125,1010 L1133.594,1010 " stroke="blue" fill="none" />
<text x="750" y="1060" font-family="Arial" font-size="12" fill="black">Simplified</text>
<text x="750" y="1075" font-family="Arial" font-size="10" fill="black">26.42105</text>
<text x="750" y="1290" font-family="Arial" font-size="10" fill="black">10</text>
<path d="M757.0313,1148.59 L764.4531,1145.385 L771.875,1128.718 L779.2969,1159.487 L786.7188,1192.821 L794.1406,1156.923 L801.5625,1146.667 L808.9844,1120.385 L816.4063,1127.436 L823.8281,1180 L831.25,1132.564 L838.6719,1152.436 L846.0938,1146.026 L853.5156,1135.128 L860.9375,1181.923 L868.3594,1131.282 L875.7813,1147.308 L883.2031,1165.897 L890.625,1157.564 L898.0469,1135.128 L905.4688,1153.077 L912.8906,1179.359 L920.3125,1167.821 L927.7344,1178.077 L935.1563,1114.615 L942.5781,1187.051 L950,1111.41 L957.4219,1126.795 L964.8438,1126.795 L972.2656,1126.795 L979.6875,1171.667 L987.1094,1103.077 L994.5313,1105 L1001.953,1141.538 L1009.375,1106.282 L1016.797,1113.333 L1024.219,1084.487 L1031.641,1140.897 L1039.063,1098.59 L1046.484,1121.026 L1053.906,1090.897 L1061.328,1147.308 L1068.75,1108.205 L1076.172,1080.641 L1083.594,1159.487 L1091.016,1133.846 L1098.438,1080 L1105.859,1151.795 L1113.281,1169.103 L1120.703,1160.769 L1128.125,1280 L1133.594,1280 " stroke="blue" fill="none" />
</svg>
