<svg width="2000" height="2500" xmlns="http://www.w3.org/2000/svg">
<text x="10" y="20" font-family="Arial" font-size="26" fill="black"> [MoveToGoal] Training Session</text>
<text x="10" y="50" font-family="Arial" font-size="16" fill="black">[Statistics]</text>
<text x="50" y="70" font-family="Arial" font-size="12" fill="black">Started at: 10:53:04 PM, Thursday, November 23, 2023</text>
<text x="50" y="90" font-family="Arial" font-size="12" fill="black">Finished at: 10:53:35 PM, Thursday, November 23, 2023</text>
<text x="50" y="110" font-family="Arial" font-size="12" fill="black">Training Session Time: 0 hrs : 0 min : 31 sec</text>
<text x="50" y="130" font-family="Arial" font-size="12" fill="black">Inference Time: 0 hrs : 2 min : 5 sec       [Per agent: 0 hrs : 2 min : 5 sec]        [Device: CPU]</text>
<text x="50" y="150" font-family="Arial" font-size="12" fill="black">Policy Update Time: 0 hrs : 0 min : 6 sec        [Per iteration: 0 hrs : 0 min : 5 sec]        [Device: GPU]</text>
<text x="50" y="170" font-family="Arial" font-size="12" fill="black">Inference Time / Training Session Time: 3.249</text>
<text x="50" y="190" font-family="Arial" font-size="12" fill="black">Policy Update Time / Training Session Time: 0.223</text>
<text x="50" y="210" font-family="Arial" font-size="12" fill="black">Episode Count: 128</text>
<text x="50" y="230" font-family="Arial" font-size="12" fill="black">Inference Steps: 6241    [Per agent: 6241]     [Per Episode (mean): 48]</text>
<text x="50" y="250" font-family="Arial" font-size="12" fill="black">Iterations: 1</text>
<text x="50" y="270" font-family="Arial" font-size="12" fill="black">Parallel Agents: 1</text>
<text x="50" y="290" font-family="Arial" font-size="12" fill="black">Timescale: 7.95</text>
<text x="50" y="310" font-family="Arial" font-size="12" fill="black">Trainer: PPO</text>
<text x="10" y="360" font-family="Arial" font-size="16" fill="black">[Hyperparameters]</text>
<text x="50" y="380" font-family="Arial" font-size="12" fill="black">Buffer Size: 4096        [Batch Size: 256       (x16)]</text>
<text x="50" y="400" font-family="Arial" font-size="12" fill="black">Num Epoch: 8</text>
<text x="50" y="420" font-family="Arial" font-size="12" fill="black">Time Horizon: 64</text>
<text x="50" y="440" font-family="Arial" font-size="12" fill="black">Gradient Cliping Normalization: 0.5</text>
<text x="50" y="460" font-family="Arial" font-size="12" fill="black">Learning Rate Schedule: False    </text>
<text x="10" y="510" font-family="Arial" font-size="16" fill="black">[Behaviour]</text>
<text x="50" y="530" font-family="Arial" font-size="12" fill="black">Space Size: 4</text>
<text x="50" y="550" font-family="Arial" font-size="12" fill="black">Continuous Actions: 0 [Standard Deviation: Trainable]     </text>
<text x="50" y="570" font-family="Arial" font-size="12" fill="black">Discrete Actions: 5</text>
<text x="50" y="590" font-family="Arial" font-size="12" fill="black">TargetFPS: 50 (physics update rate)</text>
<text x="50" y="610" font-family="Arial" font-size="12" fill="black">Observations Normalization: False</text>
<text x="10" y="660" font-family="Arial" font-size="16" fill="black">[Decision Requester]</text>
<text x="50" y="680" font-family="Arial" font-size="12" fill="black">Max Step: 1000</text>
<text x="50" y="700" font-family="Arial" font-size="12" fill="black">Decision Period: 1</text>
<text x="10" y="750" font-family="Arial" font-size="16" fill="black">[Graphs]</text>
<text x="50" y="770" font-family="Arial" font-size="12" fill="black">Episode Reward (128)</text>
<text x="50" y="785" font-family="Arial" font-size="10" fill="black">1.9875</text>
<text x="50" y="1000" font-family="Arial" font-size="10" fill="black">0.9975</text>
<path d="M50,809.697 L53.125,818.2828 L56.25,822.3232 L59.375,828.8889 L62.5,809.697 L65.625,835.4545 L68.75,838.4848 L71.875,808.1818 L75,820.808 L78.125,792.5253 L81.25,797.5757 L84.375,801.1111 L87.5,825.3535 L90.625,809.697 L93.75,813.2323 L96.875,818.2828 L100,827.8787 L103.125,818.2828 L106.25,805.6566 L109.375,804.1414 L112.5,811.2121 L115.625,806.6667 L118.75,807.1717 L121.875,819.7979 L125,820.303 L128.125,792.0202 L131.25,831.4141 L134.375,816.7676 L137.5,825.8585 L140.625,822.3232 L143.75,808.6869 L146.875,843.0303 L150,808.6869 L153.125,795.5555 L156.25,808.1818 L159.375,805.1515 L162.5,796.5657 L165.625,800.6061 L168.75,812.7273 L171.875,808.6869 L175,822.8282 L178.125,798.5859 L181.25,795.5555 L184.375,815.2525 L187.5,792.5253 L190.625,990 L193.75,809.697 L196.875,805.6566 L200,834.4444 L203.125,792.0202 L206.25,800.101 L209.375,814.2424 L212.5,832.4242 L215.625,828.8889 L218.75,813.2323 L221.875,799.0909 L225,806.6667 L228.125,801.6161 L231.25,818.2828 L234.375,802.6263 L237.5,813.7374 L240.625,990 L243.75,809.697 L246.875,803.1313 L250,807.6768 L253.125,800.6061 L256.25,793.5353 L259.375,804.6465 L262.5,827.8787 L265.625,828.3838 L268.75,835.4545 L271.875,819.7979 L275,810.202 L278.125,813.2323 L281.25,813.2323 L284.375,815.7576 L287.5,800.6061 L290.625,820.808 L293.75,815.7576 L296.875,812.7273 L300,822.3232 L303.125,798.0808 L306.25,835.4545 L309.375,812.2222 L312.5,805.6566 L315.625,802.6263 L318.75,814.2424 L321.875,798.5859 L325,824.3434 L328.125,812.2222 L331.25,822.3232 L334.375,804.1414 L337.5,827.8787 L340.625,839.4949 L343.75,825.8585 L346.875,826.8687 L350,818.2828 L353.125,795.5555 L356.25,803.6364 L359.375,808.6869 L362.5,807.6768 L365.625,820.808 L368.75,831.4141 L371.875,803.1313 L375,812.7273 L378.125,811.7172 L381.25,790 L384.375,793.0303 L387.5,804.6465 L390.625,838.4848 L393.75,810.7071 L396.875,804.6465 L400,803.1313 L403.125,800.6061 L406.25,814.7474 L409.375,990 L412.5,814.7474 L415.625,990 L418.75,990 L421.875,823.8383 L425,835.4545 L428.125,806.1616 L431.25,791.0101 L434.375,806.1616 L437.5,800.6061 L440.625,824.8484 L443.75,819.7979 L446.875,835.9595 " stroke="blue" fill="none" />
<text x="50" y="1040" font-family="Arial" font-size="12" fill="black">Episode Length (128)</text>
<text x="50" y="1055" font-family="Arial" font-size="10" fill="black">110</text>
<text x="50" y="1270" font-family="Arial" font-size="10" fill="black">1</text>
<path d="M50,1182.936 L53.125,1149.908 L56.25,1135.229 L59.375,1111.376 L62.5,1181.101 L65.625,1087.523 L68.75,1076.514 L71.875,1186.605 L75,1140.734 L78.125,1243.486 L81.25,1225.138 L84.375,1212.294 L87.5,1124.22 L90.625,1181.101 L93.75,1168.257 L96.875,1149.908 L100,1115.046 L103.125,1149.908 L106.25,1195.78 L109.375,1201.284 L112.5,1175.596 L115.625,1192.11 L118.75,1190.275 L121.875,1144.404 L125,1142.569 L128.125,1245.321 L131.25,1102.202 L134.375,1155.413 L137.5,1122.385 L140.625,1135.229 L143.75,1184.771 L146.875,1060 L150,1184.771 L153.125,1232.477 L156.25,1186.605 L159.375,1197.615 L162.5,1228.807 L165.625,1214.128 L168.75,1170.092 L171.875,1184.771 L175,1133.395 L178.125,1221.468 L181.25,1232.477 L184.375,1160.917 L187.5,1243.486 L190.625,1260 L193.75,1181.101 L196.875,1195.78 L200,1091.193 L203.125,1245.321 L206.25,1215.963 L209.375,1164.587 L212.5,1098.532 L215.625,1111.376 L218.75,1168.257 L221.875,1219.633 L225,1192.11 L228.125,1210.459 L231.25,1149.908 L234.375,1206.789 L237.5,1166.422 L240.625,1260 L243.75,1181.101 L246.875,1204.954 L250,1188.44 L253.125,1214.128 L256.25,1239.817 L259.375,1199.45 L262.5,1115.046 L265.625,1113.211 L268.75,1087.523 L271.875,1144.404 L275,1179.266 L278.125,1168.257 L281.25,1168.257 L284.375,1159.083 L287.5,1214.128 L290.625,1140.734 L293.75,1159.083 L296.875,1170.092 L300,1135.229 L303.125,1223.303 L306.25,1087.523 L309.375,1171.927 L312.5,1195.78 L315.625,1206.789 L318.75,1164.587 L321.875,1221.468 L325,1127.89 L328.125,1171.927 L331.25,1135.229 L334.375,1201.284 L337.5,1115.046 L340.625,1072.844 L343.75,1122.385 L346.875,1118.716 L350,1149.908 L353.125,1232.477 L356.25,1203.119 L359.375,1184.771 L362.5,1188.44 L365.625,1140.734 L368.75,1102.202 L371.875,1204.954 L375,1170.092 L378.125,1173.761 L381.25,1252.661 L384.375,1241.651 L387.5,1199.45 L390.625,1076.514 L393.75,1177.431 L396.875,1199.45 L400,1204.954 L403.125,1214.128 L406.25,1162.752 L409.375,1260 L412.5,1162.752 L415.625,1260 L418.75,1260 L421.875,1129.725 L425,1087.523 L428.125,1193.945 L431.25,1248.991 L434.375,1193.945 L437.5,1214.128 L440.625,1126.055 L443.75,1144.404 L446.875,1085.688 " stroke="blue" fill="none" />
<text x="50" y="1310" font-family="Arial" font-size="12" fill="black">Policy Loss</text>
<text x="50" y="1325" font-family="Arial" font-size="10" fill="black">0.009134729</text>
<text x="50" y="1540" font-family="Arial" font-size="10" fill="black">0.001674599</text>
<path d="M50,1330 L75,1476.905 L100,1500.135 L125,1491.754 L150,1493.041 L175,1506.889 L200,1530 L225,1469.947 " stroke="blue" fill="none" />
<text x="50" y="1580" font-family="Arial" font-size="12" fill="black">Value Loss</text>
<text x="50" y="1595" font-family="Arial" font-size="10" fill="black">0.0002340919</text>
<text x="50" y="1810" font-family="Arial" font-size="10" fill="black">0.0001252433</text>
<path d="M50,1600.018 L75,1670.296 L100,1719.481 L125,1746.361 L150,1764.6 L175,1779.122 L200,1790.221 L225,1800 " stroke="blue" fill="none" />
<text x="50" y="1850" font-family="Arial" font-size="12" fill="black">Learning Rate</text>
<text x="50" y="1865" font-family="Arial" font-size="10" fill="black">0.0003</text>
<text x="50" y="2080" font-family="Arial" font-size="10" fill="black">0.0003</text>
<path d="M50,2070 L75,2070 L100,2070 L125,2070 L150,2070 L175,2070 L200,2070 L225,2070 " stroke="blue" fill="none" />
<text x="50" y="2120" font-family="Arial" font-size="12" fill="black">Entropy</text>
<text x="50" y="2135" font-family="Arial" font-size="10" fill="black">-0.01194362</text>
<text x="50" y="2350" font-family="Arial" font-size="10" fill="black">-0.01204765</text>
<path d="M50,2340 L75,2140.019 L100,2216.021 L125,2266.976 L150,2216.47 L175,2285.32 L200,2237.655 L225,2288.093 " stroke="blue" fill="none" />
<text x="750" y="770" font-family="Arial" font-size="12" fill="black">Simplified</text>
<text x="750" y="785" font-family="Arial" font-size="10" fill="black">1.889606</text>
<text x="750" y="1000" font-family="Arial" font-size="10" fill="black">1.675179</text>
<path d="M806.25,818.1044 L865.625,799.3274 L925,835.4089 L984.375,844.3679 L1043.75,816.6318 L1103.125,790 L1146.875,990 " stroke="blue" fill="none" />
<text x="750" y="1040" font-family="Arial" font-size="12" fill="black">Simplified</text>
<text x="750" y="1055" font-family="Arial" font-size="10" fill="black">56.15789</text>
<text x="750" y="1270" font-family="Arial" font-size="10" fill="black">42.57895</text>
<path d="M806.25,1060 L865.625,1177.829 L925,1260 L984.375,1203.411 L1043.75,1068.527 L1103.125,1236.744 L1146.875,1235.914 " stroke="blue" fill="none" />
</svg>
