<svg width="2000" height="2500" xmlns="http://www.w3.org/2000/svg">
<text x="10" y="20" font-family="Arial" font-size="26" fill="black"> [MoveToGoal] Training Session</text>
<text x="10" y="50" font-family="Arial" font-size="16" fill="black">[Statistics]</text>
<text x="50" y="70" font-family="Arial" font-size="12" fill="black">Started at: 10:58:20 PM, Thursday, November 23, 2023</text>
<text x="50" y="90" font-family="Arial" font-size="12" fill="black">Finished at: 10:58:44 PM, Thursday, November 23, 2023</text>
<text x="50" y="110" font-family="Arial" font-size="12" fill="black">Training Session Time: 0 hrs : 0 min : 23 sec</text>
<text x="50" y="130" font-family="Arial" font-size="12" fill="black">Inference Time: 0 hrs : 1 min : 48 sec       [Per agent: 0 hrs : 1 min : 48 sec]        [Device: CPU]</text>
<text x="50" y="150" font-family="Arial" font-size="12" fill="black">Policy Update Time: 0 hrs : 0 min : 6 sec        [Per iteration: 0 hrs : 0 min : 5 sec]        [Device: GPU]</text>
<text x="50" y="170" font-family="Arial" font-size="12" fill="black">Inference Time / Training Session Time: 4.106</text>
<text x="50" y="190" font-family="Arial" font-size="12" fill="black">Policy Update Time / Training Session Time: 0.285</text>
<text x="50" y="210" font-family="Arial" font-size="12" fill="black">Episode Count: 120</text>
<text x="50" y="230" font-family="Arial" font-size="12" fill="black">Inference Steps: 5355    [Per agent: 5355]     [Per Episode (mean): 44]</text>
<text x="50" y="250" font-family="Arial" font-size="12" fill="black">Iterations: 1</text>
<text x="50" y="270" font-family="Arial" font-size="12" fill="black">Parallel Agents: 1</text>
<text x="50" y="290" font-family="Arial" font-size="12" fill="black">Timescale: 6.703194</text>
<text x="50" y="310" font-family="Arial" font-size="12" fill="black">Trainer: PPO</text>
<text x="10" y="360" font-family="Arial" font-size="16" fill="black">[Hyperparameters]</text>
<text x="50" y="380" font-family="Arial" font-size="12" fill="black">Buffer Size: 4096        [Batch Size: 256       (x16)]</text>
<text x="50" y="400" font-family="Arial" font-size="12" fill="black">Num Epoch: 8</text>
<text x="50" y="420" font-family="Arial" font-size="12" fill="black">Time Horizon: 64</text>
<text x="50" y="440" font-family="Arial" font-size="12" fill="black">Gradient Cliping Normalization: 0.5</text>
<text x="50" y="460" font-family="Arial" font-size="12" fill="black">Learning Rate Schedule: False    </text>
<text x="10" y="510" font-family="Arial" font-size="16" fill="black">[Behaviour]</text>
<text x="50" y="530" font-family="Arial" font-size="12" fill="black">Space Size: 4</text>
<text x="50" y="550" font-family="Arial" font-size="12" fill="black">Continuous Actions: 0 [Standard Deviation: Trainable]     </text>
<text x="50" y="570" font-family="Arial" font-size="12" fill="black">Discrete Actions: 5</text>
<text x="50" y="590" font-family="Arial" font-size="12" fill="black">TargetFPS: 50 (physics update rate)</text>
<text x="50" y="610" font-family="Arial" font-size="12" fill="black">Observations Normalization: False</text>
<text x="10" y="660" font-family="Arial" font-size="16" fill="black">[Decision Requester]</text>
<text x="50" y="680" font-family="Arial" font-size="12" fill="black">Max Step: 1000</text>
<text x="50" y="700" font-family="Arial" font-size="12" fill="black">Decision Period: 1</text>
<text x="10" y="750" font-family="Arial" font-size="16" fill="black">[Graphs]</text>
<text x="50" y="770" font-family="Arial" font-size="12" fill="black">Episode Reward (120)</text>
<text x="50" y="785" font-family="Arial" font-size="10" fill="black">1.9875</text>
<text x="50" y="1000" font-family="Arial" font-size="10" fill="black">0.9975</text>
<path d="M50,828.8889 L53.125,990 L56.25,804.1414 L59.375,815.7576 L62.5,833.4343 L65.625,809.1919 L68.75,818.7878 L71.875,798.5859 L75,822.8282 L78.125,804.1414 L81.25,825.3535 L84.375,814.7474 L87.5,802.1212 L90.625,813.2323 L93.75,831.9191 L96.875,804.1414 L100,795.0505 L103.125,804.6465 L106.25,818.7878 L109.375,819.2929 L112.5,990 L115.625,831.4141 L118.75,809.697 L121.875,813.2323 L125,990 L128.125,826.8687 L131.25,804.1414 L134.375,811.2121 L137.5,806.1616 L140.625,795.5555 L143.75,819.7979 L146.875,795.5555 L150,814.2424 L153.125,812.7273 L156.25,810.7071 L159.375,803.1313 L162.5,813.7374 L165.625,822.8282 L168.75,990 L171.875,812.2222 L175,815.7576 L178.125,813.2323 L181.25,799.5959 L184.375,799.5959 L187.5,814.7474 L190.625,806.1616 L193.75,802.6263 L196.875,810.202 L200,820.303 L203.125,990 L206.25,804.6465 L209.375,990 L212.5,792.0202 L215.625,811.2121 L218.75,813.7374 L221.875,818.2828 L225,815.7576 L228.125,810.202 L231.25,790 L234.375,990 L237.5,824.3434 L240.625,792.5253 L243.75,801.1111 L246.875,823.8383 L250,816.7676 L253.125,822.8282 L256.25,843.0303 L259.375,806.1616 L262.5,990 L265.625,828.8889 L268.75,796.5657 L271.875,822.8282 L275,794.5454 L278.125,837.9797 L281.25,814.7474 L284.375,825.8585 L287.5,806.6667 L290.625,807.6768 L293.75,990 L296.875,842.0201 L300,796.5657 L303.125,801.6161 L306.25,790.5051 L309.375,808.6869 L312.5,839.9999 L315.625,797.5757 L318.75,800.101 L321.875,797.0707 L325,830.404 L328.125,822.8282 L331.25,799.5959 L334.375,817.2727 L337.5,827.3737 L340.625,990 L343.75,822.3232 L346.875,820.303 L350,797.5757 L353.125,815.7576 L356.25,801.6161 L359.375,810.202 L362.5,810.7071 L365.625,820.808 L368.75,807.6768 L371.875,800.101 L375,816.7676 L378.125,801.1111 L381.25,990 L384.375,832.9293 L387.5,804.6465 L390.625,824.3434 L393.75,811.2121 L396.875,807.1717 L400,817.7778 L403.125,817.7778 L406.25,796.0606 L409.375,803.6364 L412.5,817.7778 L415.625,806.6667 L418.75,804.1414 L421.875,808.6869 " stroke="blue" fill="none" />
<text x="50" y="1040" font-family="Arial" font-size="12" fill="black">Episode Length (120)</text>
<text x="50" y="1055" font-family="Arial" font-size="10" fill="black">110</text>
<text x="50" y="1270" font-family="Arial" font-size="10" fill="black">1</text>
<path d="M50,1113.211 L53.125,1260 L56.25,1201.284 L59.375,1159.083 L62.5,1094.862 L65.625,1182.936 L68.75,1148.073 L71.875,1221.468 L75,1133.395 L78.125,1201.284 L81.25,1124.22 L84.375,1162.752 L87.5,1208.624 L90.625,1168.257 L93.75,1100.367 L96.875,1201.284 L100,1234.312 L103.125,1199.45 L106.25,1148.073 L109.375,1146.239 L112.5,1260 L115.625,1102.202 L118.75,1181.101 L121.875,1168.257 L125,1260 L128.125,1118.716 L131.25,1201.284 L134.375,1175.596 L137.5,1193.945 L140.625,1232.477 L143.75,1144.404 L146.875,1232.477 L150,1164.587 L153.125,1170.092 L156.25,1177.431 L159.375,1204.954 L162.5,1166.422 L165.625,1133.395 L168.75,1260 L171.875,1171.927 L175,1159.083 L178.125,1168.257 L181.25,1217.798 L184.375,1217.798 L187.5,1162.752 L190.625,1193.945 L193.75,1206.789 L196.875,1179.266 L200,1142.569 L203.125,1260 L206.25,1199.45 L209.375,1260 L212.5,1245.321 L215.625,1175.596 L218.75,1166.422 L221.875,1149.908 L225,1159.083 L228.125,1179.266 L231.25,1252.661 L234.375,1260 L237.5,1127.89 L240.625,1243.486 L243.75,1212.294 L246.875,1129.725 L250,1155.413 L253.125,1133.395 L256.25,1060 L259.375,1193.945 L262.5,1260 L265.625,1111.376 L268.75,1228.807 L271.875,1133.395 L275,1236.147 L278.125,1078.349 L281.25,1162.752 L284.375,1122.385 L287.5,1192.11 L290.625,1188.44 L293.75,1260 L296.875,1063.67 L300,1228.807 L303.125,1210.459 L306.25,1250.826 L309.375,1184.771 L312.5,1071.009 L315.625,1225.138 L318.75,1215.963 L321.875,1226.973 L325,1105.872 L328.125,1133.395 L331.25,1217.798 L334.375,1153.578 L337.5,1116.881 L340.625,1260 L343.75,1135.229 L346.875,1142.569 L350,1225.138 L353.125,1159.083 L356.25,1210.459 L359.375,1179.266 L362.5,1177.431 L365.625,1140.734 L368.75,1188.44 L371.875,1215.963 L375,1155.413 L378.125,1212.294 L381.25,1260 L384.375,1096.697 L387.5,1199.45 L390.625,1127.89 L393.75,1175.596 L396.875,1190.275 L400,1151.743 L403.125,1151.743 L406.25,1230.642 L409.375,1203.119 L412.5,1151.743 L415.625,1192.11 L418.75,1201.284 L421.875,1184.771 " stroke="blue" fill="none" />
<text x="50" y="1310" font-family="Arial" font-size="12" fill="black">Policy Loss</text>
<text x="50" y="1325" font-family="Arial" font-size="10" fill="black">0.008629315</text>
<text x="50" y="1540" font-family="Arial" font-size="10" fill="black">0.002157989</text>
<path d="M50,1330 L75,1512.998 L100,1480.134 L125,1495.008 L150,1491.669 L175,1500.454 L200,1529.631 L225,1530 " stroke="blue" fill="none" />
<text x="50" y="1580" font-family="Arial" font-size="12" fill="black">Value Loss</text>
<text x="50" y="1595" font-family="Arial" font-size="10" fill="black">0.0002111368</text>
<text x="50" y="1810" font-family="Arial" font-size="10" fill="black">7.460169E-05</text>
<path d="M50,1600.015 L75,1720.977 L100,1757.434 L125,1774.865 L150,1783.285 L175,1789.137 L200,1794.961 L225,1800 " stroke="blue" fill="none" />
<text x="50" y="1850" font-family="Arial" font-size="12" fill="black">Learning Rate</text>
<text x="50" y="1865" font-family="Arial" font-size="10" fill="black">0.0003</text>
<text x="50" y="2080" font-family="Arial" font-size="10" fill="black">0.0003</text>
<path d="M50,2070 L75,2070 L100,2070 L125,2070 L150,2070 L175,2070 L200,2070 L225,2070 " stroke="blue" fill="none" />
<text x="50" y="2120" font-family="Arial" font-size="12" fill="black">Entropy</text>
<text x="50" y="2135" font-family="Arial" font-size="10" fill="black">-0.01003063</text>
<text x="50" y="2350" font-family="Arial" font-size="10" fill="black">-0.01017141</text>
<path d="M50,2340 L75,2164.439 L100,2289.197 L125,2188.714 L150,2241.828 L175,2258.127 L200,2140.014 L225,2174.645 " stroke="blue" fill="none" />
<text x="750" y="770" font-family="Arial" font-size="12" fill="black">Simplified</text>
<text x="750" y="785" font-family="Arial" font-size="10" fill="black">1.9075</text>
<text x="750" y="1000" font-family="Arial" font-size="10" fill="black">1.750395</text>
<path d="M806.25,895.695 L865.625,946.9513 L925,990 L984.375,960.8541 L1043.75,946.2812 L1103.125,886.65 L1121.875,790 " stroke="blue" fill="none" />
<text x="750" y="1040" font-family="Arial" font-size="12" fill="black">Simplified</text>
<text x="750" y="1055" font-family="Arial" font-size="10" fill="black">49.10526</text>
<text x="750" y="1270" font-family="Arial" font-size="10" fill="black">36.68421</text>
<path d="M806.25,1060 L865.625,1138.814 L925,1260 L984.375,1068.474 L1043.75,1142.203 L1103.125,1104.915 L1121.875,1254.915 " stroke="blue" fill="none" />
</svg>
