<svg width="2000" height="2500" xmlns="http://www.w3.org/2000/svg">
<text x="10" y="20" font-family="Arial" font-size="26" fill="black"> [MoveToGoal] Training Session</text>
<text x="10" y="50" font-family="Arial" font-size="16" fill="black">[Statistics]</text>
<text x="50" y="70" font-family="Arial" font-size="12" fill="black">Started at: 10:56:20 PM, Thursday, November 23, 2023</text>
<text x="50" y="90" font-family="Arial" font-size="12" fill="black">Finished at: 10:57:27 PM, Thursday, November 23, 2023</text>
<text x="50" y="110" font-family="Arial" font-size="12" fill="black">Training Session Time: 0 hrs : 1 min : 6 sec</text>
<text x="50" y="130" font-family="Arial" font-size="12" fill="black">Inference Time: 0 hrs : 5 min : 9 sec       [Per agent: 0 hrs : 5 min : 9 sec]        [Device: CPU]</text>
<text x="50" y="150" font-family="Arial" font-size="12" fill="black">Policy Update Time: 0 hrs : 0 min : 18 sec        [Per iteration: 0 hrs : 0 min : 5 sec]        [Device: GPU]</text>
<text x="50" y="170" font-family="Arial" font-size="12" fill="black">Inference Time / Training Session Time: 4.340</text>
<text x="50" y="190" font-family="Arial" font-size="12" fill="black">Policy Update Time / Training Session Time: 0.301</text>
<text x="50" y="210" font-family="Arial" font-size="12" fill="black">Episode Count: 351</text>
<text x="50" y="230" font-family="Arial" font-size="12" fill="black">Inference Steps: 15428    [Per agent: 15428]     [Per Episode (mean): 43]</text>
<text x="50" y="250" font-family="Arial" font-size="12" fill="black">Iterations: 3</text>
<text x="50" y="270" font-family="Arial" font-size="12" fill="black">Parallel Agents: 1</text>
<text x="50" y="290" font-family="Arial" font-size="12" fill="black">Timescale: 5.470984</text>
<text x="50" y="310" font-family="Arial" font-size="12" fill="black">Trainer: PPO</text>
<text x="10" y="360" font-family="Arial" font-size="16" fill="black">[Hyperparameters]</text>
<text x="50" y="380" font-family="Arial" font-size="12" fill="black">Buffer Size: 4096        [Batch Size: 256       (x16)]</text>
<text x="50" y="400" font-family="Arial" font-size="12" fill="black">Num Epoch: 8</text>
<text x="50" y="420" font-family="Arial" font-size="12" fill="black">Time Horizon: 64</text>
<text x="50" y="440" font-family="Arial" font-size="12" fill="black">Gradient Cliping Normalization: 0.5</text>
<text x="50" y="460" font-family="Arial" font-size="12" fill="black">Learning Rate Schedule: False    </text>
<text x="10" y="510" font-family="Arial" font-size="16" fill="black">[Behaviour]</text>
<text x="50" y="530" font-family="Arial" font-size="12" fill="black">Space Size: 4</text>
<text x="50" y="550" font-family="Arial" font-size="12" fill="black">Continuous Actions: 0 [Standard Deviation: Trainable]     </text>
<text x="50" y="570" font-family="Arial" font-size="12" fill="black">Discrete Actions: 5</text>
<text x="50" y="590" font-family="Arial" font-size="12" fill="black">TargetFPS: 50 (physics update rate)</text>
<text x="50" y="610" font-family="Arial" font-size="12" fill="black">Observations Normalization: False</text>
<text x="10" y="660" font-family="Arial" font-size="16" fill="black">[Decision Requester]</text>
<text x="50" y="680" font-family="Arial" font-size="12" fill="black">Max Step: 1000</text>
<text x="50" y="700" font-family="Arial" font-size="12" fill="black">Decision Period: 1</text>
<text x="10" y="750" font-family="Arial" font-size="16" fill="black">[Graphs]</text>
<text x="50" y="770" font-family="Arial" font-size="12" fill="black">Episode Reward (351)</text>
<text x="50" y="785" font-family="Arial" font-size="10" fill="black">1.9925</text>
<text x="50" y="1000" font-family="Arial" font-size="10" fill="black">0.9975</text>
<path d="M50,809.598 L50.78125,811.1055 L51.5625,839.7487 L52.34375,793.5176 L53.125,812.613 L53.90625,808.0905 L54.6875,990 L55.46875,823.6683 L56.25,990 L57.03125,801.0553 L57.8125,802.0603 L58.59375,816.6332 L59.375,802.0603 L60.15625,815.1256 L60.9375,820.1508 L61.71875,790 L62.5,802.5628 L63.28125,808.0905 L64.0625,828.1909 L64.84375,835.7286 L65.625,823.1658 L66.40625,821.1558 L67.1875,836.2311 L67.96875,847.2864 L68.75,797.5377 L69.53125,800.0503 L70.3125,853.8191 L71.09375,795.0251 L71.875,802.0603 L72.65625,804.0704 L73.4375,822.1608 L74.21875,826.1809 L75,822.1608 L75.78125,805.5779 L76.5625,812.1105 L77.34375,817.6382 L78.125,809.598 L78.90625,798.5427 L79.6875,816.6332 L80.46875,810.603 L81.25,831.206 L82.03125,990 L82.8125,833.2161 L83.59375,813.1156 L84.375,812.1105 L85.15625,791.0051 L85.9375,801.5578 L86.71875,808.593 L87.5,812.613 L88.28125,805.0754 L89.0625,791.0051 L89.84375,813.6181 L90.625,801.0553 L91.40625,812.613 L92.1875,813.6181 L92.96875,814.6231 L93.75,796.0302 L94.53125,829.6985 L95.3125,819.1458 L96.09375,807.588 L96.875,811.608 L97.65625,832.2111 L98.4375,796.0302 L99.21875,822.1608 L100,807.0854 L100.7813,795.5276 L101.5625,802.5628 L102.3438,824.6733 L103.125,811.1055 L103.9063,824.6733 L104.6875,795.0251 L105.4688,854.3216 L106.25,804.0704 L107.0313,806.5829 L107.8125,802.5628 L108.5938,808.0905 L109.375,807.0854 L110.1563,818.6432 L110.9375,819.1458 L111.7188,808.593 L112.5,804.5729 L113.2813,797.0352 L114.0625,823.6683 L114.8438,804.5729 L115.625,817.1357 L116.4063,799.5478 L117.1875,808.593 L117.9688,818.1407 L118.75,844.2713 L119.5313,797.5377 L120.3125,812.613 L121.0938,812.1105 L121.875,817.1357 L122.6563,798.5427 L123.4375,816.1307 L124.2188,823.1658 L125,813.1156 L125.7813,812.1105 L126.5625,828.6934 L127.3438,834.7236 L128.125,824.6733 L128.9063,830.7035 L129.6875,822.1608 L130.4688,810.1005 L131.25,826.1809 L132.0313,809.0955 L132.8125,806.5829 L133.5938,801.5578 L134.375,830.7035 L135.1563,813.1156 L135.9375,990 L136.7188,797.0352 L137.5,820.6533 L138.2813,825.6784 L139.0625,835.2261 L139.8438,808.593 L140.625,807.0854 L141.4063,795.5276 L142.1875,809.598 L142.9688,800.5528 L143.75,803.0654 L144.5313,813.1156 L145.3125,815.1256 L146.0938,799.0452 L146.875,804.0704 L147.6563,805.5779 L148.4375,802.5628 L149.2188,840.7538 L150,811.608 L150.7813,805.5779 L151.5625,834.2211 L152.3438,824.6733 L153.125,990 L153.9063,815.1256 L154.6875,807.588 L155.4688,990 L156.25,805.0754 L157.0313,826.6834 L157.8125,819.6483 L158.5938,797.0352 L159.375,815.1256 L160.1563,820.1508 L160.9375,797.0352 L161.7188,821.6583 L162.5,828.1909 L163.2813,990 L164.0625,990 L164.8438,810.1005 L165.625,805.0754 L166.4063,990 L167.1875,816.1307 L167.9688,795.5276 L168.75,819.1458 L169.5313,807.588 L170.3125,812.613 L171.0938,824.6733 L171.875,815.1256 L172.6563,813.6181 L173.4375,838.7437 L174.2188,825.1758 L175,793.0151 L175.7813,815.6282 L176.5625,827.1859 L177.3438,798.5427 L178.125,808.593 L178.9063,823.1658 L179.6875,803.0654 L180.4688,802.5628 L181.25,827.1859 L182.0313,823.6683 L182.8125,793.0151 L183.5938,815.6282 L184.375,819.6483 L185.1563,817.1357 L185.9375,790 L186.7188,812.613 L187.5,801.0553 L188.2813,796.0302 L189.0625,806.0804 L189.8438,825.6784 L190.625,803.0654 L191.4063,808.0905 L192.1875,812.613 L192.9688,801.5578 L193.75,810.1005 L194.5313,814.6231 L195.3125,800.5528 L196.0938,990 L196.875,833.2161 L197.6563,812.613 L198.4375,803.0654 L199.2188,795.0251 L200,814.1206 L200.7813,819.6483 L201.5625,810.1005 L202.3438,816.1307 L203.125,824.6733 L203.9063,820.1508 L204.6875,807.0854 L205.4688,797.0352 L206.25,818.6432 L207.0313,816.1307 L207.8125,810.603 L208.5938,804.5729 L209.375,826.6834 L210.1563,812.1105 L210.9375,792.5126 L211.7188,818.1407 L212.5,839.2462 L213.2813,819.1458 L214.0625,809.598 L214.8438,799.0452 L215.625,810.1005 L216.4063,824.6733 L217.1875,803.5679 L217.9688,816.6332 L218.75,832.2111 L219.5313,795.5276 L220.3125,801.5578 L221.0938,812.1105 L221.875,815.6282 L222.6563,801.0553 L223.4375,822.1608 L224.2188,838.7437 L225,813.6181 L225.7813,829.196 L226.5625,808.0905 L227.3438,806.0804 L228.125,807.588 L228.9063,828.1909 L229.6875,799.5478 L230.4688,828.6934 L231.25,807.0854 L232.0313,990 L232.8125,813.1156 L233.5938,818.6432 L234.375,809.0955 L235.1563,803.0654 L235.9375,791.5076 L236.7188,816.6332 L237.5,799.5478 L238.2813,990 L239.0625,813.6181 L239.8438,821.6583 L240.625,826.1809 L241.4063,804.0704 L242.1875,825.6784 L242.9688,815.6282 L243.75,795.0251 L244.5313,827.1859 L245.3125,798.0402 L246.0938,990 L246.875,807.588 L247.6563,814.1206 L248.4375,791.0051 L249.2188,790 L250,818.1407 L250.7813,805.5779 L251.5625,820.1508 L252.3438,807.0854 L253.125,805.0754 L253.9063,990 L254.6875,812.1105 L255.4688,797.5377 L256.25,825.1758 L257.0313,816.1307 L257.8125,990 L258.5938,814.6231 L259.375,805.5779 L260.1563,839.2462 L260.9375,798.0402 L261.7188,794.5226 L262.5,798.0402 L263.2813,813.1156 L264.0625,799.5478 L264.8438,826.6834 L265.625,811.608 L266.4063,818.6432 L267.1875,798.0402 L267.9688,799.0452 L268.75,804.0704 L269.5313,821.6583 L270.3125,821.6583 L271.0938,811.608 L271.875,803.0654 L272.6563,799.5478 L273.4375,796.5327 L274.2188,801.5578 L275,804.0704 L275.7813,810.603 L276.5625,791.0051 L277.3438,802.0603 L278.125,827.6884 L278.9063,803.0654 L279.6875,818.6432 L280.4688,806.5829 L281.25,990 L282.0313,814.1206 L282.8125,830.7035 L283.5938,816.6332 L284.375,801.0553 L285.1563,799.0452 L285.9375,801.0553 L286.7188,799.5478 L287.5,796.0302 L288.2813,990 L289.0625,798.5427 L289.8438,844.7739 L290.625,811.1055 L291.4063,805.5779 L292.1875,806.5829 L292.9688,815.6282 L293.75,819.1458 L294.5313,802.0603 L295.3125,842.2613 L296.0938,990 L296.875,814.6231 L297.6563,990 L298.4375,809.598 L299.2188,808.0905 L300,793.0151 L300.7813,801.0553 L301.5625,794.0201 L302.3438,809.0955 L303.125,836.2311 L303.9063,790 L304.6875,797.0352 L305.4688,799.0452 L306.25,805.0754 L307.0313,812.1105 L307.8125,797.5377 L308.5938,805.5779 L309.375,802.0603 L310.1563,812.1105 L310.9375,811.608 L311.7188,807.588 L312.5,830.201 L313.2813,990 L314.0625,810.603 L314.8438,791.5076 L315.625,990 L316.4063,823.6683 L317.1875,799.0452 L317.9688,845.2764 L318.75,800.5528 L319.5313,806.0804 L320.3125,824.1708 L321.0938,817.1357 L321.875,810.1005 L322.6563,817.6382 L323.4375,990 " stroke="blue" fill="none" />
<text x="50" y="1040" font-family="Arial" font-size="12" fill="black">Episode Length (351)</text>
<text x="50" y="1055" font-family="Arial" font-size="10" fill="black">131</text>
<text x="50" y="1270" font-family="Arial" font-size="10" fill="black">1</text>
<path d="M50,1198.462 L50.78125,1192.308 L51.5625,1104.615 L52.34375,1246.154 L53.125,1187.692 L53.90625,1201.538 L54.6875,1260 L55.46875,1153.846 L56.25,1260 L57.03125,1223.077 L57.8125,1220 L58.59375,1175.385 L59.375,1220 L60.15625,1180 L60.9375,1164.615 L61.71875,1256.923 L62.5,1218.462 L63.28125,1201.538 L64.0625,1140 L64.84375,1116.923 L65.625,1155.385 L66.40625,1161.538 L67.1875,1115.385 L67.96875,1081.538 L68.75,1233.846 L69.53125,1226.154 L70.3125,1061.538 L71.09375,1241.538 L71.875,1220 L72.65625,1213.846 L73.4375,1158.462 L74.21875,1146.154 L75,1158.462 L75.78125,1209.231 L76.5625,1189.231 L77.34375,1172.308 L78.125,1196.923 L78.90625,1230.769 L79.6875,1175.385 L80.46875,1193.846 L81.25,1130.769 L82.03125,1260 L82.8125,1124.615 L83.59375,1186.154 L84.375,1189.231 L85.15625,1253.846 L85.9375,1221.538 L86.71875,1200 L87.5,1187.692 L88.28125,1210.769 L89.0625,1253.846 L89.84375,1184.615 L90.625,1223.077 L91.40625,1187.692 L92.1875,1184.615 L92.96875,1181.538 L93.75,1238.462 L94.53125,1135.385 L95.3125,1167.692 L96.09375,1203.077 L96.875,1190.769 L97.65625,1127.692 L98.4375,1238.462 L99.21875,1158.462 L100,1204.615 L100.7813,1240 L101.5625,1218.462 L102.3438,1150.769 L103.125,1192.308 L103.9063,1150.769 L104.6875,1241.538 L105.4688,1060 L106.25,1213.846 L107.0313,1206.154 L107.8125,1218.462 L108.5938,1201.538 L109.375,1204.615 L110.1563,1169.231 L110.9375,1167.692 L111.7188,1200 L112.5,1212.308 L113.2813,1235.385 L114.0625,1153.846 L114.8438,1212.308 L115.625,1173.846 L116.4063,1227.692 L117.1875,1200 L117.9688,1170.769 L118.75,1090.769 L119.5313,1233.846 L120.3125,1187.692 L121.0938,1189.231 L121.875,1173.846 L122.6563,1230.769 L123.4375,1176.923 L124.2188,1155.385 L125,1186.154 L125.7813,1189.231 L126.5625,1138.462 L127.3438,1120 L128.125,1150.769 L128.9063,1132.308 L129.6875,1158.462 L130.4688,1195.385 L131.25,1146.154 L132.0313,1198.462 L132.8125,1206.154 L133.5938,1221.538 L134.375,1132.308 L135.1563,1186.154 L135.9375,1260 L136.7188,1235.385 L137.5,1163.077 L138.2813,1147.692 L139.0625,1118.462 L139.8438,1200 L140.625,1204.615 L141.4063,1240 L142.1875,1196.923 L142.9688,1224.615 L143.75,1216.923 L144.5313,1186.154 L145.3125,1180 L146.0938,1229.231 L146.875,1213.846 L147.6563,1209.231 L148.4375,1218.462 L149.2188,1101.538 L150,1190.769 L150.7813,1209.231 L151.5625,1121.538 L152.3438,1150.769 L153.125,1260 L153.9063,1180 L154.6875,1203.077 L155.4688,1260 L156.25,1210.769 L157.0313,1144.615 L157.8125,1166.154 L158.5938,1235.385 L159.375,1180 L160.1563,1164.615 L160.9375,1235.385 L161.7188,1160 L162.5,1140 L163.2813,1260 L164.0625,1260 L164.8438,1195.385 L165.625,1210.769 L166.4063,1260 L167.1875,1176.923 L167.9688,1240 L168.75,1167.692 L169.5313,1203.077 L170.3125,1187.692 L171.0938,1150.769 L171.875,1180 L172.6563,1184.615 L173.4375,1107.692 L174.2188,1149.231 L175,1247.692 L175.7813,1178.462 L176.5625,1143.077 L177.3438,1230.769 L178.125,1200 L178.9063,1155.385 L179.6875,1216.923 L180.4688,1218.462 L181.25,1143.077 L182.0313,1153.846 L182.8125,1247.692 L183.5938,1178.462 L184.375,1166.154 L185.1563,1173.846 L185.9375,1256.923 L186.7188,1187.692 L187.5,1223.077 L188.2813,1238.462 L189.0625,1207.692 L189.8438,1147.692 L190.625,1216.923 L191.4063,1201.538 L192.1875,1187.692 L192.9688,1221.538 L193.75,1195.385 L194.5313,1181.538 L195.3125,1224.615 L196.0938,1260 L196.875,1124.615 L197.6563,1187.692 L198.4375,1216.923 L199.2188,1241.538 L200,1183.077 L200.7813,1166.154 L201.5625,1195.385 L202.3438,1176.923 L203.125,1150.769 L203.9063,1164.615 L204.6875,1204.615 L205.4688,1235.385 L206.25,1169.231 L207.0313,1176.923 L207.8125,1193.846 L208.5938,1212.308 L209.375,1144.615 L210.1563,1189.231 L210.9375,1249.231 L211.7188,1170.769 L212.5,1106.154 L213.2813,1167.692 L214.0625,1196.923 L214.8438,1229.231 L215.625,1195.385 L216.4063,1150.769 L217.1875,1215.385 L217.9688,1175.385 L218.75,1127.692 L219.5313,1240 L220.3125,1221.538 L221.0938,1189.231 L221.875,1178.462 L222.6563,1223.077 L223.4375,1158.462 L224.2188,1107.692 L225,1184.615 L225.7813,1136.923 L226.5625,1201.538 L227.3438,1207.692 L228.125,1203.077 L228.9063,1140 L229.6875,1227.692 L230.4688,1138.462 L231.25,1204.615 L232.0313,1260 L232.8125,1186.154 L233.5938,1169.231 L234.375,1198.462 L235.1563,1216.923 L235.9375,1252.308 L236.7188,1175.385 L237.5,1227.692 L238.2813,1260 L239.0625,1184.615 L239.8438,1160 L240.625,1146.154 L241.4063,1213.846 L242.1875,1147.692 L242.9688,1178.462 L243.75,1241.538 L244.5313,1143.077 L245.3125,1232.308 L246.0938,1260 L246.875,1203.077 L247.6563,1183.077 L248.4375,1253.846 L249.2188,1256.923 L250,1170.769 L250.7813,1209.231 L251.5625,1164.615 L252.3438,1204.615 L253.125,1210.769 L253.9063,1260 L254.6875,1189.231 L255.4688,1233.846 L256.25,1149.231 L257.0313,1176.923 L257.8125,1260 L258.5938,1181.538 L259.375,1209.231 L260.1563,1106.154 L260.9375,1232.308 L261.7188,1243.077 L262.5,1232.308 L263.2813,1186.154 L264.0625,1227.692 L264.8438,1144.615 L265.625,1190.769 L266.4063,1169.231 L267.1875,1232.308 L267.9688,1229.231 L268.75,1213.846 L269.5313,1160 L270.3125,1160 L271.0938,1190.769 L271.875,1216.923 L272.6563,1227.692 L273.4375,1236.923 L274.2188,1221.538 L275,1213.846 L275.7813,1193.846 L276.5625,1253.846 L277.3438,1220 L278.125,1141.538 L278.9063,1216.923 L279.6875,1169.231 L280.4688,1206.154 L281.25,1260 L282.0313,1183.077 L282.8125,1132.308 L283.5938,1175.385 L284.375,1223.077 L285.1563,1229.231 L285.9375,1223.077 L286.7188,1227.692 L287.5,1238.462 L288.2813,1260 L289.0625,1230.769 L289.8438,1089.231 L290.625,1192.308 L291.4063,1209.231 L292.1875,1206.154 L292.9688,1178.462 L293.75,1167.692 L294.5313,1220 L295.3125,1096.923 L296.0938,1260 L296.875,1181.538 L297.6563,1260 L298.4375,1196.923 L299.2188,1201.538 L300,1247.692 L300.7813,1223.077 L301.5625,1244.615 L302.3438,1198.462 L303.125,1115.385 L303.9063,1256.923 L304.6875,1235.385 L305.4688,1229.231 L306.25,1210.769 L307.0313,1189.231 L307.8125,1233.846 L308.5938,1209.231 L309.375,1220 L310.1563,1189.231 L310.9375,1190.769 L311.7188,1203.077 L312.5,1133.846 L313.2813,1260 L314.0625,1193.846 L314.8438,1252.308 L315.625,1260 L316.4063,1153.846 L317.1875,1229.231 L317.9688,1087.692 L318.75,1224.615 L319.5313,1207.692 L320.3125,1152.308 L321.0938,1173.846 L321.875,1195.385 L322.6563,1172.308 L323.4375,1260 " stroke="blue" fill="none" />
<text x="50" y="1310" font-family="Arial" font-size="12" fill="black">Policy Loss</text>
<text x="50" y="1325" font-family="Arial" font-size="10" fill="black">0.009704174</text>
<text x="50" y="1540" font-family="Arial" font-size="10" fill="black">0.001799854</text>
<path d="M50,1333.323 L62.5,1514.26 L75,1477.865 L87.5,1490.515 L100,1505.793 L112.5,1505.694 L125,1504.47 L137.5,1494.716 L150,1427.404 L162.5,1511.205 L175,1506.003 L187.5,1469.035 L200,1482.167 L212.5,1519.008 L225,1506.318 L237.5,1482.694 L250,1330 L262.5,1444.148 L275,1487.546 L287.5,1488.225 L300,1476.958 L312.5,1503.451 L325,1530 L337.5,1499.263 " stroke="blue" fill="none" />
<text x="50" y="1580" font-family="Arial" font-size="12" fill="black">Value Loss</text>
<text x="50" y="1595" font-family="Arial" font-size="10" fill="black">0.0002293458</text>
<text x="50" y="1810" font-family="Arial" font-size="10" fill="black">7.66505E-05</text>
<path d="M50,1600.013 L62.5,1687.861 L75,1728.486 L87.5,1747.637 L100,1758.141 L112.5,1765.689 L125,1771.987 L137.5,1777.679 L150,1683.906 L162.5,1720.62 L175,1757.435 L187.5,1772.478 L200,1782.576 L212.5,1789.118 L225,1793.076 L237.5,1798.083 L250,1705.97 L262.5,1735.177 L275,1763.604 L287.5,1777.135 L300,1785.512 L312.5,1791.247 L325,1795.776 L337.5,1800 " stroke="blue" fill="none" />
<text x="50" y="1850" font-family="Arial" font-size="12" fill="black">Learning Rate</text>
<text x="50" y="1865" font-family="Arial" font-size="10" fill="black">0.0003</text>
<text x="50" y="2080" font-family="Arial" font-size="10" fill="black">0.0003</text>
<path d="M50,2070 L62.5,2070 L75,2070 L87.5,2070 L100,2070 L112.5,2070 L125,2070 L137.5,2070 L150,2070 L162.5,2070 L175,2070 L187.5,2070 L200,2070 L212.5,2070 L225,2070 L237.5,2070 L250,2070 L262.5,2070 L275,2070 L287.5,2070 L300,2070 L312.5,2070 L325,2070 L337.5,2070 " stroke="blue" fill="none" />
<text x="50" y="2120" font-family="Arial" font-size="12" fill="black">Entropy</text>
<text x="50" y="2135" font-family="Arial" font-size="10" fill="black">-0.01017964</text>
<text x="50" y="2350" font-family="Arial" font-size="10" fill="black">-0.01078956</text>
<path d="M50,2340 L62.5,2300.969 L75,2286.098 L87.5,2292.545 L100,2295.719 L112.5,2305.409 L125,2322.146 L137.5,2325.91 L150,2262.676 L162.5,2183.404 L175,2156.761 L187.5,2170.239 L200,2173.737 L212.5,2169.837 L225,2191.978 L237.5,2164.429 L250,2198.93 L262.5,2197.281 L275,2194.883 L287.5,2160.342 L300,2143.747 L312.5,2140.003 L325,2145.796 L337.5,2140.92 " stroke="blue" fill="none" />
<text x="750" y="770" font-family="Arial" font-size="12" fill="black">Simplified</text>
<text x="750" y="785" font-family="Arial" font-size="10" fill="black">1.883816</text>
<text x="750" y="1000" font-family="Arial" font-size="10" fill="black">1.696579</text>
<path d="M764.0625,884.8697 L778.9063,819.3743 L793.75,830.0561 L808.5938,798.2924 L823.4375,790 L838.2813,872.5016 L853.125,840.5972 L867.9688,990 L882.8125,803.2113 L897.6563,830.6182 L912.5,795.7623 L927.3438,799.4169 L942.1875,893.1622 L957.0313,874.0477 L971.875,830.1968 L986.7188,814.7364 L1001.563,931.8129 L1016.406,872.7825 L1023.438,910.0905 " stroke="blue" fill="none" />
<text x="750" y="1040" font-family="Arial" font-size="12" fill="black">Simplified</text>
<text x="750" y="1055" font-family="Arial" font-size="10" fill="black">57.47368</text>
<text x="750" y="1270" font-family="Arial" font-size="10" fill="black">34.68421</text>
<path d="M764.0625,1214.734 L778.9063,1060 L793.75,1209.654 L808.5938,1129.284 L823.4375,1156.536 L838.2813,1070.162 L853.125,1175.012 L867.9688,1238.291 L882.8125,1113.118 L897.6563,1207.806 L912.5,1137.598 L927.3438,1125.589 L942.1875,1187.021 L957.0313,1249.838 L971.875,1209.192 L986.7188,1260 L1001.563,1244.758 L1016.406,1253.995 L1023.438,1151.917 " stroke="blue" fill="none" />
</svg>
