<svg width="2000" height="2500" xmlns="http://www.w3.org/2000/svg">
<text x="10" y="20" font-family="Arial" font-size="26" fill="black"> [HumanWalk] Training Session</text>
<text x="10" y="50" font-family="Arial" font-size="16" fill="black">[Statistics]</text>
<text x="50" y="70" font-family="Arial" font-size="12" fill="black">Started at: 2:57:13 PM, Wednesday, December 20, 2023</text>
<text x="50" y="90" font-family="Arial" font-size="12" fill="black">Finished at: 2:59:00 PM, Wednesday, December 20, 2023</text>
<text x="50" y="110" font-family="Arial" font-size="12" fill="black">Training Session Time: 0 hrs : 1 min : 46 sec</text>
<text x="50" y="130" font-family="Arial" font-size="12" fill="black">Inference Time: 0 hrs : 14 min : 19 sec       [Per agent: 0 hrs : 0 min : 36 sec]        [Device: CPU]</text>
<text x="50" y="150" font-family="Arial" font-size="12" fill="black">Policy Update Time: 0 hrs : 0 min : 51 sec        [Per iteration: 0 hrs : 0 min : 10 sec]        [Device: GPU]</text>
<text x="50" y="170" font-family="Arial" font-size="12" fill="black">Inference Time / Training Session Time: 7.652</text>
<text x="50" y="190" font-family="Arial" font-size="12" fill="black">Policy Update Time / Training Session Time: 0.488</text>
<text x="50" y="210" font-family="Arial" font-size="12" fill="black">Episode Count: 582</text>
<text x="50" y="230" font-family="Arial" font-size="12" fill="black">Inference Steps: 43186    [Per agent: 1799]     [Per Episode (mean): 74]</text>
<text x="50" y="250" font-family="Arial" font-size="12" fill="black">Iterations: 5</text>
<text x="50" y="270" font-family="Arial" font-size="12" fill="black">Parallel Agents: 24</text>
<text x="50" y="290" font-family="Arial" font-size="12" fill="black">Timescale: 1</text>
<text x="50" y="310" font-family="Arial" font-size="12" fill="black">Trainer: PPO</text>
<text x="10" y="360" font-family="Arial" font-size="16" fill="black">[Hyperparameters]</text>
<text x="50" y="380" font-family="Arial" font-size="12" fill="black">Buffer Size: 8000        [Batch Size: 400       (x20)]</text>
<text x="50" y="400" font-family="Arial" font-size="12" fill="black">Num Epoch: 8</text>
<text x="50" y="420" font-family="Arial" font-size="12" fill="black">Time Horizon: 128</text>
<text x="50" y="440" font-family="Arial" font-size="12" fill="black">Gradient Cliping Normalization: 0.5</text>
<text x="50" y="460" font-family="Arial" font-size="12" fill="black">Learning Rate Schedule: False    </text>
<text x="10" y="510" font-family="Arial" font-size="16" fill="black">[Behaviour]</text>
<text x="50" y="530" font-family="Arial" font-size="12" fill="black">Space Size: 130</text>
<text x="50" y="550" font-family="Arial" font-size="12" fill="black">Continuous Actions: 44 [Standard Deviation: Fixed]     [Value: 0.7]</text>
<text x="50" y="570" font-family="Arial" font-size="12" fill="black">Discrete Actions: 0</text>
<text x="50" y="590" font-family="Arial" font-size="12" fill="black">TargetFPS: 100 (physics update rate)</text>
<text x="50" y="610" font-family="Arial" font-size="12" fill="black">Observations Normalization: True</text>
<text x="10" y="660" font-family="Arial" font-size="16" fill="black">[Decision Requester]</text>
<text x="50" y="680" font-family="Arial" font-size="12" fill="black">Max Step: 6000</text>
<text x="50" y="700" font-family="Arial" font-size="12" fill="black">Decision Period: 2      [Actions Between Decisions: True]</text>
<text x="10" y="750" font-family="Arial" font-size="16" fill="black">[Graphs]</text>
<text x="50" y="770" font-family="Arial" font-size="12" fill="black">Episode Reward (582)</text>
<text x="50" y="785" font-family="Arial" font-size="10" fill="black">0.4192469</text>
<text x="50" y="1000" font-family="Arial" font-size="10" fill="black">0.09598872</text>
<path d="M50,923.8207 L50.78125,907.3184 L51.5625,948.4744 L52.34375,899.0529 L53.125,919.6143 L53.90625,955.2828 L54.6875,913.7351 L55.46875,948.8084 L56.25,912.1769 L57.03125,915.3673 L57.8125,891.4869 L58.59375,886.695 L59.375,941.5339 L60.15625,900.6888 L60.9375,896.6257 L61.71875,887.3475 L62.5,922.8072 L63.28125,903.7502 L64.0625,888.6897 L64.84375,897.1457 L65.625,902.9031 L66.40625,884.7579 L67.1875,864.3122 L67.96875,869.7356 L68.75,971.8376 L69.53125,957.8856 L70.3125,970.7403 L71.09375,924.4608 L71.875,949.0167 L72.65625,901.745 L73.4375,947.9855 L74.21875,926.8786 L75,949.3771 L75.78125,930.2572 L76.5625,930.5541 L77.34375,887.0259 L78.125,897.3533 L78.90625,894.9889 L79.6875,960.5315 L80.46875,922.666 L81.25,961.3092 L82.03125,940.9961 L82.8125,938.7994 L83.59375,891.5727 L84.375,944.4631 L85.15625,942.1088 L85.9375,942.8349 L86.71875,894.2585 L87.5,851.9758 L88.28125,869.7943 L89.0625,915.769 L89.84375,935.9431 L90.625,925.3675 L91.40625,943.8124 L92.1875,933.8318 L92.96875,947.1899 L93.75,946.8433 L94.53125,943.581 L95.3125,967.0436 L96.09375,904.8249 L96.875,889.4114 L97.65625,865.9908 L98.4375,896.4639 L99.21875,941.1147 L100,973.7192 L100.7813,874.021 L101.5625,947.1915 L102.3438,934.5992 L103.125,878.1808 L103.9063,945.8798 L104.6875,818.5612 L105.4688,910.5692 L106.25,856.7579 L107.0313,869.9202 L107.8125,963.0538 L108.5938,909.7701 L109.375,905.1561 L110.1563,944.0743 L110.9375,942.1658 L111.7188,950.6958 L112.5,909.2283 L113.2813,873.7956 L114.0625,921.0336 L114.8438,895.8715 L115.625,928.0282 L116.4063,925.2459 L117.1875,878.2521 L117.9688,919.8567 L118.75,842.584 L119.5313,948.6938 L120.3125,850.9974 L121.0938,893.4979 L121.875,933.6312 L122.6563,893.0963 L123.4375,902.3505 L124.2188,952.9394 L125,901.5065 L125.7813,810.0831 L126.5625,894.9348 L127.3438,908.0405 L128.125,922.4139 L128.9063,951.6285 L129.6875,949.265 L130.4688,900.472 L131.25,925.465 L132.0313,907.4938 L132.8125,884.6398 L133.5938,958.7113 L134.375,893.874 L135.1563,929.4214 L135.9375,921.7599 L136.7188,856.5051 L137.5,973.6484 L138.2813,908.4379 L139.0625,909.4203 L139.8438,940.5333 L140.625,948.2107 L141.4063,914.174 L142.1875,828.3192 L142.9688,905.6561 L143.75,944.9208 L144.5313,946.1513 L145.3125,971.3251 L146.0938,942.6157 L146.875,890.9332 L147.6563,862.5925 L148.4375,905.1046 L149.2188,936.0974 L150,919.8698 L150.7813,914.8491 L151.5625,907.0046 L152.3438,932.1322 L153.125,926.4507 L153.9063,884.2857 L154.6875,863.1683 L155.4688,923.8188 L156.25,857.3702 L157.0313,891.4046 L157.8125,937.6751 L158.5938,889.3033 L159.375,897.0043 L160.1563,915.2784 L160.9375,913.698 L161.7188,945.3683 L162.5,889.0767 L163.2813,925.5352 L164.0625,906.562 L164.8438,898.4191 L165.625,902.7587 L166.4063,930.2816 L167.1875,926.6978 L167.9688,938.3932 L168.75,935.1106 L169.5313,964.5894 L170.3125,918.8824 L171.0938,951.0356 L171.875,957.5433 L172.6563,932.1638 L173.4375,890.7042 L174.2188,878.4963 L175,869.7353 L175.7813,910.6711 L176.5625,822.2147 L177.3438,907.2643 L178.125,959.3508 L178.9063,926.8331 L179.6875,914.1439 L180.4688,887.7805 L181.25,930.8672 L182.0313,877.2898 L182.8125,893.671 L183.5938,930.5212 L184.375,886.6805 L185.1563,938.5836 L185.9375,894.0636 L186.7188,952.555 L187.5,907.2518 L188.2813,936.1279 L189.0625,854.3767 L189.8438,907.3361 L190.625,951.6204 L191.4063,882.6408 L192.1875,954.513 L192.9688,918.8634 L193.75,961.4259 L194.5313,888.753 L195.3125,899.3253 L196.0938,981.3853 L196.875,944.3593 L197.6563,838.7881 L198.4375,971.5073 L199.2188,907.8965 L200,949.6147 L200.7813,943.7875 L201.5625,956.7231 L202.3438,871.7136 L203.125,886.985 L203.9063,947.7685 L204.6875,854.1494 L205.4688,883.2631 L206.25,905.0535 L207.0313,926.1372 L207.8125,874.28 L208.5938,834.004 L209.375,886.9826 L210.1563,951.5828 L210.9375,967.8765 L211.7188,916.2943 L212.5,935.4009 L213.2813,892.6526 L214.0625,958.485 L214.8438,960.0908 L215.625,929.6729 L216.4063,937.4714 L217.1875,969.2871 L217.9688,933.0128 L218.75,962.1853 L219.5313,893.3555 L220.3125,895.983 L221.0938,943.9969 L221.875,927.4543 L222.6563,894.5283 L223.4375,923.9429 L224.2188,934.5083 L225,892.6329 L225.7813,915.3809 L226.5625,929.9615 L227.3438,885.7693 L228.125,949.8264 L228.9063,920.4217 L229.6875,905.8991 L230.4688,928.3337 L231.25,966.8265 L232.0313,900.8247 L232.8125,920.6532 L233.5938,947.6461 L234.375,946.0055 L235.1563,871.5283 L235.9375,930.5353 L236.7188,933.6275 L237.5,869.312 L238.2813,905.9691 L239.0625,935.5677 L239.8438,886.5554 L240.625,918.1298 L241.4063,942.2099 L242.1875,845.2802 L242.9688,921.5831 L243.75,927.6938 L244.5313,852.7026 L245.3125,929.3586 L246.0938,927.9398 L246.875,866.0746 L247.6563,924.446 L248.4375,914.2035 L249.2188,913.6527 L250,949.9177 L250.7813,924.0295 L251.5625,790 L252.3438,876.4242 L253.125,895.5766 L253.9063,880.5947 L254.6875,923.0693 L255.4688,914.4019 L256.25,919.136 L257.0313,872.5974 L257.8125,919.6514 L258.5938,900.4302 L259.375,891.5771 L260.1563,848.6711 L260.9375,904.6567 L261.7188,915.6328 L262.5,909.3029 L263.2813,910.486 L264.0625,927.3718 L264.8438,934.7546 L265.625,891.1278 L266.4063,929.6617 L267.1875,853.1589 L267.9688,928.5726 L268.75,942.0832 L269.5313,914.3986 L270.3125,885.9672 L271.0938,949.0318 L271.875,852.4063 L272.6563,901.7932 L273.4375,959.7968 L274.2188,855.8813 L275,964.1708 L275.7813,971.4705 L276.5625,882.186 L277.3438,919.1169 L278.125,926.5421 L278.9063,915.1583 L279.6875,916.2037 L280.4688,915.6641 L281.25,931.1132 L282.0313,899.8464 L282.8125,919.3161 L283.5938,898.5466 L284.375,915.8094 L285.1563,928.0306 L285.9375,955.0496 L286.7188,970.7552 L287.5,929.8033 L288.2813,970.0261 L289.0625,919.3619 L289.8438,914.5887 L290.625,913.2852 L291.4063,950.3456 L292.1875,878.8022 L292.9688,943.2042 L293.75,879.1169 L294.5313,958.4787 L295.3125,878.722 L296.0938,936.335 L296.875,940.0392 L297.6563,889.3633 L298.4375,901.8105 L299.2188,919.1788 L300,964.651 L300.7813,899.2844 L301.5625,936.662 L302.3438,878.1776 L303.125,933.8699 L303.9063,924.3284 L304.6875,934.1487 L305.4688,895.7047 L306.25,935.1693 L307.0313,946.7535 L307.8125,897.1949 L308.5938,896.7208 L309.375,913.0948 L310.1563,919.4303 L310.9375,922.5266 L311.7188,931.9517 L312.5,926.4803 L313.2813,902.3046 L314.0625,921.0558 L314.8438,944.0241 L315.625,866.7401 L316.4063,954.5829 L317.1875,957.7112 L317.9688,939.1075 L318.75,893.3417 L319.5313,941.1841 L320.3125,895.5259 L321.0938,915.9111 L321.875,921.1976 L322.6563,914.7941 L323.4375,868.8495 L324.2188,852.4574 L325,904.34 L325.7813,949.4881 L326.5625,876.8015 L327.3438,931.9784 L328.125,895.0045 L328.9063,903.4031 L329.6875,919.8156 L330.4688,911.273 L331.25,873.5358 L332.0313,921.7803 L332.8125,902.3156 L333.5938,925.5215 L334.375,872.2842 L335.1563,925.8043 L335.9375,931.9951 L336.7188,915.8014 L337.5,903.756 L338.2813,957.8843 L339.0625,920.379 L339.8438,961.7945 L340.625,819.2615 L341.4063,899.3811 L342.1875,955.4136 L342.9688,934.9145 L343.75,917.8723 L344.5313,896.8677 L345.3125,926.5913 L346.0938,958.5474 L346.875,962.5525 L347.6563,857.2755 L348.4375,895.377 L349.2188,973.1241 L350,938.1106 L350.7813,894.1976 L351.5625,926.8951 L352.3438,896.7503 L353.125,922.2448 L353.9063,918.9069 L354.6875,953.7123 L355.4688,905.3337 L356.25,883.2224 L357.0313,913.3571 L357.8125,922.2189 L358.5938,917.9042 L359.375,951.7035 L360.1563,932.5814 L360.9375,911.3228 L361.7188,912.4363 L362.5,940.5298 L363.2813,928.8911 L364.0625,941.1762 L364.8438,887.2731 L365.625,889.9224 L366.4063,907.4891 L367.1875,947.8278 L367.9688,956.403 L368.75,941.7574 L369.5313,966.8647 L370.3125,929.5694 L371.0938,917.439 L371.875,914.3368 L372.6563,895.5555 L373.4375,880.6457 L374.2188,942.0623 L375,965.1359 L375.7813,866.6769 L376.5625,919.4494 L377.3438,930.6895 L378.125,891.0919 L378.9063,925.7787 L379.6875,908.9377 L380.4688,921.54 L381.25,858.8714 L382.0313,917.9643 L382.8125,925.1535 L383.5938,934.165 L384.375,958.4344 L385.1563,936.2461 L385.9375,945.7535 L386.7188,921.7255 L387.5,913.2605 L388.2813,959.8064 L389.0625,916.0545 L389.8438,903.4838 L390.625,931.4585 L391.4063,943.2459 L392.1875,891.2994 L392.9688,912.7633 L393.75,935.8702 L394.5313,894.5585 L395.3125,937.2541 L396.0938,903.6825 L396.875,853.9948 L397.6563,906.7296 L398.4375,894.7267 L399.2188,887.8268 L400,912.3928 L400.7813,939.3939 L401.5625,898.331 L402.3438,936.6572 L403.125,929.2114 L403.9063,924.5689 L404.6875,907.3478 L405.4688,912.7254 L406.25,939.3575 L407.0313,915.7948 L407.8125,888.4165 L408.5938,898.9277 L409.375,913.186 L410.1563,970.2102 L410.9375,924.9424 L411.7188,925.9363 L412.5,850.7893 L413.2813,947.2308 L414.0625,930.7513 L414.8438,948.7337 L415.625,881.0261 L416.4063,876.0638 L417.1875,919.5576 L417.9688,906.4593 L418.75,899.991 L419.5313,934.3373 L420.3125,948.386 L421.0938,951.5792 L421.875,953.6602 L422.6563,918.7872 L423.4375,893.5886 L424.2188,971.4417 L425,897.3701 L425.7813,929.6505 L426.5625,950.3502 L427.3438,960.4756 L428.125,930.4565 L428.9063,894.8276 L429.6875,974.3113 L430.4688,886.6821 L431.25,912.5999 L432.0313,898.6836 L432.8125,897.4139 L433.5938,900.3416 L434.375,818.6656 L435.1563,939.4402 L435.9375,955.964 L436.7188,990 L437.5,959.843 L438.2813,924.7567 L439.0625,912.8361 L439.8438,976.8095 L440.625,925.1868 L441.4063,924.3942 L442.1875,908.7935 L442.9688,897.8784 L443.75,917.3899 L444.5313,957.3716 L445.3125,908.3624 L446.0938,956.774 L446.875,867.4503 L447.6563,937.7707 L448.4375,913.3912 L449.2188,926.6924 L450,907.0764 L450.7813,956.6993 L451.5625,878.1958 L452.3438,930.0509 L453.125,951.2443 L453.9063,897.2866 L454.6875,877.1378 L455.4688,920.7502 L456.25,947.0499 L457.0313,937.5919 L457.8125,886.6864 L458.5938,952.3781 L459.375,920.6769 L460.1563,910.5991 L460.9375,859.7619 L461.7188,923.3072 L462.5,858.0327 L463.2813,918.3274 L464.0625,885.7147 L464.8438,947.1537 L465.625,953.517 L466.4063,895.9902 L467.1875,940.52 L467.9688,892.9662 L468.75,899.6452 L469.5313,896.1773 L470.3125,900.8395 L471.0938,960.562 L471.875,874.4662 L472.6563,891.4279 L473.4375,924.3123 L474.2188,921.6142 L475,922.1948 L475.7813,864.0878 L476.5625,905.8495 L477.3438,889.6545 L478.125,899.8317 L478.9063,948.3896 L479.6875,921.1522 L480.4688,892.3124 L481.25,941.7961 L482.0313,950.226 L482.8125,916.7487 L483.5938,928.3463 L484.375,961.3951 L485.1563,959.8997 L485.9375,922.9538 L486.7188,924.7654 L487.5,968.6203 L488.2813,923.1055 L489.0625,906.244 L489.8438,853.2261 L490.625,880.1902 L491.4063,927.0427 L492.1875,975.8323 L492.9688,922.381 L493.75,938.9595 L494.5313,958.5895 L495.3125,940.6695 L496.0938,889.9324 L496.875,907.0958 L497.6563,953.0949 L498.4375,910.4875 L499.2188,919.423 L500,898.6818 L500.7813,964.1863 L501.5625,890.3775 L502.3438,959.0327 L503.125,930.415 L503.9063,908.8376 " stroke="blue" fill="none" />
<text x="50" y="1040" font-family="Arial" font-size="12" fill="black">Episode Length (582)</text>
<text x="50" y="1055" font-family="Arial" font-size="10" fill="black">133</text>
<text x="50" y="1270" font-family="Arial" font-size="10" fill="black">31</text>
<path d="M50,1205.098 L50.78125,1197.255 L51.5625,1195.294 L52.34375,1195.294 L53.125,1195.294 L53.90625,1195.294 L54.6875,1195.294 L55.46875,1191.373 L56.25,1189.412 L57.03125,1187.451 L57.8125,1183.529 L58.59375,1179.608 L59.375,1177.647 L60.15625,1173.725 L60.9375,1173.725 L61.71875,1167.843 L62.5,1163.922 L63.28125,1161.961 L64.0625,1160 L64.84375,1158.039 L65.625,1146.275 L66.40625,1144.314 L67.1875,1140.392 L67.96875,1130.588 L68.75,1242.353 L69.53125,1232.549 L70.3125,1212.941 L71.09375,1207.059 L71.875,1226.667 L72.65625,1175.686 L73.4375,1199.216 L74.21875,1193.333 L75,1209.02 L75.78125,1185.49 L76.5625,1161.961 L77.34375,1158.039 L78.125,1163.922 L78.90625,1156.078 L79.6875,1203.137 L80.46875,1171.765 L81.25,1234.51 L82.03125,1173.725 L82.8125,1175.686 L83.59375,1171.765 L84.375,1218.823 L85.15625,1169.804 L85.9375,1181.569 L86.71875,1160 L87.5,1099.216 L88.28125,1112.941 L89.0625,1193.333 L89.84375,1214.902 L90.625,1195.294 L91.40625,1171.765 L92.1875,1212.941 L92.96875,1195.294 L93.75,1201.177 L94.53125,1171.765 L95.3125,1210.98 L96.09375,1189.412 L96.875,1175.686 L97.65625,1144.314 L98.4375,1177.647 L99.21875,1195.294 L100,1216.863 L100.7813,1161.961 L101.5625,1220.784 L102.3438,1173.725 L103.125,1161.961 L103.9063,1183.529 L104.6875,1085.49 L105.4688,1191.373 L106.25,1138.431 L107.0313,1150.196 L107.8125,1234.51 L108.5938,1173.725 L109.375,1175.686 L110.1563,1222.745 L110.9375,1177.647 L111.7188,1199.216 L112.5,1185.49 L113.2813,1158.039 L114.0625,1197.255 L114.8438,1191.373 L115.625,1209.02 L116.4063,1205.098 L117.1875,1132.549 L117.9688,1181.569 L118.75,1124.706 L119.5313,1191.373 L120.3125,1132.549 L121.0938,1167.843 L121.875,1181.569 L122.6563,1158.039 L123.4375,1160 L124.2188,1195.294 L125,1122.745 L125.7813,1085.49 L126.5625,1160 L127.3438,1183.529 L128.125,1195.294 L128.9063,1228.627 L129.6875,1195.294 L130.4688,1185.49 L131.25,1167.843 L132.0313,1185.49 L132.8125,1163.922 L133.5938,1199.216 L134.375,1171.765 L135.1563,1156.078 L135.9375,1201.177 L136.7188,1142.353 L137.5,1234.51 L138.2813,1177.647 L139.0625,1158.039 L139.8438,1173.725 L140.625,1218.823 L141.4063,1140.392 L142.1875,1069.804 L142.9688,1173.725 L143.75,1218.823 L144.5313,1185.49 L145.3125,1209.02 L146.0938,1173.725 L146.875,1171.765 L147.6563,1156.078 L148.4375,1175.686 L149.2188,1173.725 L150,1183.529 L150.7813,1195.294 L151.5625,1165.882 L152.3438,1163.922 L153.125,1193.333 L153.9063,1161.961 L154.6875,1154.118 L155.4688,1169.804 L156.25,1132.549 L157.0313,1167.843 L157.8125,1167.843 L158.5938,1158.039 L159.375,1152.157 L160.1563,1163.922 L160.9375,1189.412 L161.7188,1183.529 L162.5,1171.765 L163.2813,1207.059 L164.0625,1161.961 L164.8438,1165.882 L165.625,1189.412 L166.4063,1197.255 L167.1875,1191.373 L167.9688,1175.686 L168.75,1189.412 L169.5313,1197.255 L170.3125,1185.49 L171.0938,1226.667 L171.875,1195.294 L172.6563,1205.098 L173.4375,1136.471 L174.2188,1136.471 L175,1161.961 L175.7813,1136.471 L176.5625,1060 L177.3438,1185.49 L178.125,1224.706 L178.9063,1195.294 L179.6875,1165.882 L180.4688,1152.157 L181.25,1181.569 L182.0313,1165.882 L182.8125,1177.647 L183.5938,1197.255 L184.375,1175.686 L185.1563,1216.863 L185.9375,1136.471 L186.7188,1195.294 L187.5,1177.647 L188.2813,1209.02 L189.0625,1114.902 L189.8438,1130.588 L190.625,1195.294 L191.4063,1160 L192.1875,1197.255 L192.9688,1175.686 L193.75,1234.51 L194.5313,1163.922 L195.3125,1173.725 L196.0938,1220.784 L196.875,1203.137 L197.6563,1099.216 L198.4375,1232.549 L199.2188,1154.118 L200,1203.137 L200.7813,1214.902 L201.5625,1195.294 L202.3438,1148.235 L203.125,1167.843 L203.9063,1203.137 L204.6875,1140.392 L205.4688,1161.961 L206.25,1179.608 L207.0313,1167.843 L207.8125,1142.353 L208.5938,1124.706 L209.375,1163.922 L210.1563,1216.863 L210.9375,1236.471 L211.7188,1183.529 L212.5,1181.569 L213.2813,1160 L214.0625,1203.137 L214.8438,1234.51 L215.625,1163.922 L216.4063,1201.177 L217.1875,1205.098 L217.9688,1216.863 L218.75,1205.098 L219.5313,1158.039 L220.3125,1179.608 L221.0938,1193.333 L221.875,1158.039 L222.6563,1163.922 L223.4375,1179.608 L224.2188,1179.608 L225,1160 L225.7813,1201.177 L226.5625,1191.373 L227.3438,1144.314 L228.125,1199.216 L228.9063,1171.765 L229.6875,1183.529 L230.4688,1158.039 L231.25,1209.02 L232.0313,1181.569 L232.8125,1183.529 L233.5938,1193.333 L234.375,1199.216 L235.1563,1126.667 L235.9375,1197.255 L236.7188,1167.843 L237.5,1152.157 L238.2813,1144.314 L239.0625,1175.686 L239.8438,1161.961 L240.625,1201.177 L241.4063,1197.255 L242.1875,1120.784 L242.9688,1201.177 L243.75,1199.216 L244.5313,1148.235 L245.3125,1201.177 L246.0938,1185.49 L246.875,1144.314 L247.6563,1203.137 L248.4375,1132.549 L249.2188,1161.961 L250,1191.373 L250.7813,1195.294 L251.5625,1083.529 L252.3438,1128.627 L253.125,1171.765 L253.9063,1118.823 L254.6875,1197.255 L255.4688,1181.569 L256.25,1169.804 L257.0313,1161.961 L257.8125,1189.412 L258.5938,1140.392 L259.375,1165.882 L260.1563,1126.667 L260.9375,1191.373 L261.7188,1191.373 L262.5,1160 L263.2813,1132.549 L264.0625,1154.118 L264.8438,1187.451 L265.625,1163.922 L266.4063,1191.373 L267.1875,1140.392 L267.9688,1167.843 L268.75,1218.823 L269.5313,1195.294 L270.3125,1156.078 L271.0938,1201.177 L271.875,1154.118 L272.6563,1187.451 L273.4375,1195.294 L274.2188,1140.392 L275,1203.137 L275.7813,1212.941 L276.5625,1156.078 L277.3438,1144.314 L278.125,1197.255 L278.9063,1138.431 L279.6875,1193.333 L280.4688,1177.647 L281.25,1207.059 L282.0313,1181.569 L282.8125,1185.49 L283.5938,1181.569 L284.375,1199.216 L285.1563,1212.941 L285.9375,1191.373 L286.7188,1216.863 L287.5,1197.255 L288.2813,1214.902 L289.0625,1193.333 L289.8438,1193.333 L290.625,1144.314 L291.4063,1191.373 L292.1875,1167.843 L292.9688,1183.529 L293.75,1163.922 L294.5313,1201.177 L295.3125,1161.961 L296.0938,1218.823 L296.875,1216.863 L297.6563,1165.882 L298.4375,1181.569 L299.2188,1183.529 L300,1210.98 L300.7813,1173.725 L301.5625,1205.098 L302.3438,1173.725 L303.125,1199.216 L303.9063,1177.647 L304.6875,1203.137 L305.4688,1171.765 L306.25,1201.177 L307.0313,1185.49 L307.8125,1152.157 L308.5938,1175.686 L309.375,1187.451 L310.1563,1205.098 L310.9375,1154.118 L311.7188,1191.373 L312.5,1207.059 L313.2813,1165.882 L314.0625,1197.255 L314.8438,1205.098 L315.625,1160 L316.4063,1197.255 L317.1875,1205.098 L317.9688,1216.863 L318.75,1183.529 L319.5313,1193.333 L320.3125,1185.49 L321.0938,1197.255 L321.875,1154.118 L322.6563,1156.078 L323.4375,1126.667 L324.2188,1105.098 L325,1171.765 L325.7813,1193.333 L326.5625,1148.235 L327.3438,1201.177 L328.125,1177.647 L328.9063,1130.588 L329.6875,1150.196 L330.4688,1179.608 L331.25,1146.275 L332.0313,1195.294 L332.8125,1177.647 L333.5938,1201.177 L334.375,1142.353 L335.1563,1193.333 L335.9375,1214.902 L336.7188,1199.216 L337.5,1173.725 L338.2813,1201.177 L339.0625,1179.608 L339.8438,1203.137 L340.625,1116.863 L341.4063,1163.922 L342.1875,1193.333 L342.9688,1207.059 L343.75,1175.686 L344.5313,1112.941 L345.3125,1203.137 L346.0938,1203.137 L346.875,1209.02 L347.6563,1146.275 L348.4375,1160 L349.2188,1214.902 L350,1181.569 L350.7813,1167.843 L351.5625,1205.098 L352.3438,1173.725 L353.125,1165.882 L353.9063,1195.294 L354.6875,1191.373 L355.4688,1173.725 L356.25,1140.392 L357.0313,1177.647 L357.8125,1199.216 L358.5938,1169.804 L359.375,1191.373 L360.1563,1175.686 L360.9375,1189.412 L361.7188,1167.843 L362.5,1220.784 L363.2813,1158.039 L364.0625,1177.647 L364.8438,1156.078 L365.625,1171.765 L366.4063,1195.294 L367.1875,1183.529 L367.9688,1195.294 L368.75,1175.686 L369.5313,1230.588 L370.3125,1183.529 L371.0938,1183.529 L371.875,1189.412 L372.6563,1173.725 L373.4375,1138.431 L374.2188,1183.529 L375,1210.98 L375.7813,1148.235 L376.5625,1205.098 L377.3438,1156.078 L378.125,1181.569 L378.9063,1197.255 L379.6875,1177.647 L380.4688,1203.137 L381.25,1140.392 L382.0313,1195.294 L382.8125,1191.373 L383.5938,1165.882 L384.375,1203.137 L385.1563,1169.804 L385.9375,1189.412 L386.7188,1152.157 L387.5,1165.882 L388.2813,1203.137 L389.0625,1187.451 L389.8438,1189.412 L390.625,1207.059 L391.4063,1175.686 L392.1875,1148.235 L392.9688,1161.961 L393.75,1191.373 L394.5313,1167.843 L395.3125,1212.941 L396.0938,1169.804 L396.875,1087.451 L397.6563,1132.549 L398.4375,1144.314 L399.2188,1167.843 L400,1195.294 L400.7813,1201.177 L401.5625,1158.039 L402.3438,1210.98 L403.125,1160 L403.9063,1152.157 L404.6875,1181.569 L405.4688,1185.49 L406.25,1210.98 L407.0313,1193.333 L407.8125,1165.882 L408.5938,1177.647 L409.375,1181.569 L410.1563,1209.02 L410.9375,1207.059 L411.7188,1201.177 L412.5,1132.549 L413.2813,1183.529 L414.0625,1209.02 L414.8438,1191.373 L415.625,1175.686 L416.4063,1152.157 L417.1875,1152.157 L417.9688,1189.412 L418.75,1175.686 L419.5313,1197.255 L420.3125,1189.412 L421.0938,1203.137 L421.875,1197.255 L422.6563,1191.373 L423.4375,1173.725 L424.2188,1244.314 L425,1189.412 L425.7813,1160 L426.5625,1193.333 L427.3438,1203.137 L428.125,1167.843 L428.9063,1185.49 L429.6875,1218.823 L430.4688,1134.51 L431.25,1195.294 L432.0313,1175.686 L432.8125,1163.922 L433.5938,1165.882 L434.375,1073.725 L435.1563,1177.647 L435.9375,1197.255 L436.7188,1260 L437.5,1201.177 L438.2813,1156.078 L439.0625,1183.529 L439.8438,1218.823 L440.625,1201.177 L441.4063,1146.275 L442.1875,1191.373 L442.9688,1183.529 L443.75,1167.843 L444.5313,1191.373 L445.3125,1173.725 L446.0938,1195.294 L446.875,1136.471 L447.6563,1169.804 L448.4375,1183.529 L449.2188,1189.412 L450,1138.431 L450.7813,1193.333 L451.5625,1179.608 L452.3438,1173.725 L453.125,1199.216 L453.9063,1177.647 L454.6875,1152.157 L455.4688,1207.059 L456.25,1181.569 L457.0313,1175.686 L457.8125,1171.765 L458.5938,1185.49 L459.375,1191.373 L460.1563,1165.882 L460.9375,1146.275 L461.7188,1181.569 L462.5,1130.588 L463.2813,1156.078 L464.0625,1171.765 L464.8438,1183.529 L465.625,1193.333 L466.4063,1175.686 L467.1875,1195.294 L467.9688,1150.196 L468.75,1144.314 L469.5313,1179.608 L470.3125,1167.843 L471.0938,1210.98 L471.875,1128.627 L472.6563,1167.843 L473.4375,1167.843 L474.2188,1197.255 L475,1193.333 L475.7813,1136.471 L476.5625,1160 L477.3438,1167.843 L478.125,1173.725 L478.9063,1189.412 L479.6875,1158.039 L480.4688,1175.686 L481.25,1177.647 L482.0313,1191.373 L482.8125,1189.412 L483.5938,1216.863 L484.375,1207.059 L485.1563,1197.255 L485.9375,1169.804 L486.7188,1201.177 L487.5,1216.863 L488.2813,1195.294 L489.0625,1177.647 L489.8438,1146.275 L490.625,1165.882 L491.4063,1197.255 L492.1875,1222.745 L492.9688,1167.843 L493.75,1212.941 L494.5313,1205.098 L495.3125,1175.686 L496.0938,1109.02 L496.875,1156.078 L497.6563,1199.216 L498.4375,1142.353 L499.2188,1199.216 L500,1165.882 L500.7813,1203.137 L501.5625,1167.843 L502.3438,1203.137 L503.125,1195.294 L503.9063,1175.686 " stroke="blue" fill="none" />
<text x="50" y="1310" font-family="Arial" font-size="12" fill="black">Policy Loss</text>
<text x="50" y="1325" font-family="Arial" font-size="10" fill="black">0.0004469694</text>
<text x="50" y="1540" font-family="Arial" font-size="10" fill="black">5.247009E-06</text>
<path d="M50,1522.316 L62.5,1454.451 L75,1412.457 L87.5,1386.775 L100,1367.17 L112.5,1351.687 L125,1340.778 L137.5,1330.008 L150,1528.721 L162.5,1463.215 L175,1418.285 L187.5,1389.934 L200,1371.51 L212.5,1355.486 L225,1342.976 L237.5,1330.962 L250,1529.401 L262.5,1463.355 L275,1419.018 L287.5,1389.605 L300,1369.581 L312.5,1354.546 L325,1341.426 L337.5,1330.005 L350,1530 L362.5,1463.53 L375,1420.372 L387.5,1392.749 L400,1372.266 L412.5,1357.09 L425,1343.421 L437.5,1332.788 L450,1528.341 L462.5,1463.616 L475,1419.089 L487.5,1390.224 L500,1371.016 L512.5,1355.93 L525,1342.273 L537.5,1332.284 " stroke="blue" fill="none" />
<text x="50" y="1580" font-family="Arial" font-size="12" fill="black">Value Loss</text>
<text x="50" y="1595" font-family="Arial" font-size="10" fill="black">1.606826E-05</text>
<text x="50" y="1810" font-family="Arial" font-size="10" fill="black">1.180969E-05</text>
<path d="M50,1660.891 L62.5,1722.635 L75,1750.453 L87.5,1761.367 L100,1775.436 L112.5,1783.968 L125,1793.306 L137.5,1800 L150,1617.085 L162.5,1661.554 L175,1691.098 L187.5,1708.566 L200,1716.888 L212.5,1732.375 L225,1742.213 L237.5,1756.02 L250,1600.469 L262.5,1676.937 L275,1723.721 L287.5,1739.826 L300,1752.68 L312.5,1765.344 L325,1773.144 L337.5,1783.194 L350,1660.908 L362.5,1701.002 L375,1721.703 L387.5,1738.299 L400,1750.477 L412.5,1760.94 L425,1771.681 L437.5,1780.801 L450,1661.665 L462.5,1689.939 L475,1716.831 L487.5,1733.642 L500,1746.146 L512.5,1755.603 L525,1765.844 L537.5,1773.536 " stroke="blue" fill="none" />
<text x="50" y="1850" font-family="Arial" font-size="12" fill="black">Learning Rate</text>
<text x="50" y="1865" font-family="Arial" font-size="10" fill="black">0.0003</text>
<text x="50" y="2080" font-family="Arial" font-size="10" fill="black">0.0003</text>
<path d="M50,2070 L62.5,2070 L75,2070 L87.5,2070 L100,2070 L112.5,2070 L125,2070 L137.5,2070 L150,2070 L162.5,2070 L175,2070 L187.5,2070 L200,2070 L212.5,2070 L225,2070 L237.5,2070 L250,2070 L262.5,2070 L275,2070 L287.5,2070 L300,2070 L312.5,2070 L325,2070 L337.5,2070 L350,2070 L362.5,2070 L375,2070 L387.5,2070 L400,2070 L412.5,2070 L425,2070 L437.5,2070 L450,2070 L462.5,2070 L475,2070 L487.5,2070 L500,2070 L512.5,2070 L525,2070 L537.5,2070 " stroke="blue" fill="none" />
<text x="50" y="2120" font-family="Arial" font-size="12" fill="black">Entropy</text>
<text x="50" y="2135" font-family="Arial" font-size="10" fill="black">0.05311317</text>
<text x="50" y="2350" font-family="Arial" font-size="10" fill="black">0.05311317</text>
<path d="M50,2340 L62.5,2340 L75,2340 L87.5,2340 L100,2340 L112.5,2340 L125,2340 L137.5,2340 L150,2340 L162.5,2340 L175,2340 L187.5,2340 L200,2340 L212.5,2340 L225,2340 L237.5,2340 L250,2340 L262.5,2340 L275,2340 L287.5,2340 L300,2340 L312.5,2340 L325,2340 L337.5,2340 L350,2340 L362.5,2340 L375,2340 L387.5,2340 L400,2340 L412.5,2340 L425,2340 L437.5,2340 L450,2340 L462.5,2340 L475,2340 L487.5,2340 L500,2340 L512.5,2340 L525,2340 L537.5,2340 " stroke="blue" fill="none" />
<text x="750" y="770" font-family="Arial" font-size="12" fill="black">Simplified</text>
<text x="750" y="785" font-family="Arial" font-size="10" fill="black">0.2394641</text>
<text x="750" y="1000" font-family="Arial" font-size="10" fill="black">0.1930733</text>
<path d="M764.0625,877.9726 L778.9063,913.0644 L793.75,968.4819 L808.5938,851.3389 L823.4375,839.4566 L838.2813,873.5584 L853.125,908.4433 L867.9688,831.331 L882.8125,865.1627 L897.6563,902.1391 L912.5,880.8128 L927.3438,957.5913 L942.1875,900.6652 L957.0313,790.0001 L971.875,821.3715 L986.7188,945.1509 L1001.563,936.5723 L1016.406,907.6725 L1031.25,842.1944 L1046.094,909.1052 L1060.938,919.6035 L1075.781,939.8483 L1090.625,935.4005 L1105.469,863.0476 L1120.313,898.8116 L1135.156,920.8998 L1150,990 L1164.844,876.2739 L1179.688,855.9391 L1194.531,984.0931 L1203.906,939.498 " stroke="blue" fill="none" />
<text x="750" y="1040" font-family="Arial" font-size="12" fill="black">Simplified</text>
<text x="750" y="1055" font-family="Arial" font-size="10" fill="black">78.31579</text>
<text x="750" y="1270" font-family="Arial" font-size="10" fill="black">66.05264</text>
<path d="M764.0625,1196.481 L778.9063,1176.738 L793.75,1182.747 L808.5938,1138.97 L823.4375,1136.395 L838.2813,1136.395 L853.125,1114.077 L867.9688,1096.91 L882.8125,1104.635 L897.6563,1147.554 L912.5,1165.579 L927.3438,1200.773 L942.1875,1124.378 L957.0313,1060 L971.875,1082.318 L986.7188,1211.073 L1001.563,1231.674 L1016.406,1205.923 L1031.25,1079.742 L1046.094,1182.747 L1060.938,1169.871 L1075.781,1176.738 L1090.625,1193.047 L1105.469,1072.017 L1120.313,1199.056 L1135.156,1163.863 L1150,1194.764 L1164.844,1124.378 L1179.688,1095.193 L1194.531,1260 L1203.906,1119.514 " stroke="blue" fill="none" />
</svg>
