<svg width="2000" height="2500" xmlns="http://www.w3.org/2000/svg">
<text x="10" y="20" font-family="Arial" font-size="26" fill="black"> [<tspan font-weight="bold" fill="blue">BalanceBall</tspan>] Training Session</text>
<text x="10" y="50" font-family="Arial" font-size="16" fill="black">[Statistics]</text>
<text x="50" y="70" font-family="Arial" font-size="12" fill="black">Started at: 4:29:34 PM, Sunday, May 10, 2026</text>
<text x="50" y="90" font-family="Arial" font-size="12" fill="black">Finished at: 4:30:01 PM, Sunday, May 10, 2026</text>
<text x="50" y="110" font-family="Arial" font-size="12" fill="black">Training Session Time: 0 hrs : 0 min : 25.76 sec</text>
<text x="50" y="130" font-family="Arial" font-size="12" fill="black">Inference Time: 0 hrs : 4 min : 14 sec        [Device: CPU]</text>
<text x="50" y="150" font-family="Arial" font-size="12" fill="black">Update Time: 0 hrs : 0 min : 1.00 sec        [Per iteration: 0 hrs : 0 min : 0.14 sec]        [Device: GPU]</text>
<text x="50" y="170" font-family="Arial" font-size="12" fill="black">Episode Count: 182</text>
<text x="50" y="190" font-family="Arial" font-size="12" fill="black">Inference Steps: 12288</text>
<text x="50" y="210" font-family="Arial" font-size="12" fill="black">Iterations: 6</text>
<text x="50" y="230" font-family="Arial" font-size="12" fill="black">Parallel Agents: 1</text>
<text x="50" y="250" font-family="Arial" font-size="12" fill="black">Timescale: 10</text>
<text x="50" y="270" font-family="Arial" font-size="12" fill="black">Trainer: PPOGPU</text>
<text x="10" y="320" font-family="Arial" font-size="16" fill="black">[Hyperparameters]</text>
<text x="50" y="340" font-family="Arial" font-size="12" fill="black">Buffer Size: 2048        [Batch Size: 128       (x16)]</text>
<text x="50" y="360" font-family="Arial" font-size="12" fill="black">Num Epoch: 8</text>
<text x="50" y="380" font-family="Arial" font-size="12" fill="black">Time Horizon: -1</text>
<text x="50" y="400" font-family="Arial" font-size="12" fill="black">Gradient Cliping by Norm: 0.5</text>
<text x="50" y="420" font-family="Arial" font-size="12" fill="black">Learning Rate Schedule: False    </text>
<text x="10" y="470" font-family="Arial" font-size="16" fill="black">[Behaviour]</text>
<text x="50" y="490" font-family="Arial" font-size="12" fill="black">Space Size: 10</text>
<text x="50" y="510" font-family="Arial" font-size="12" fill="black">Continuous Actions: 2 [Standard Deviation: FixedStandardDeviation]     [Value: 2]</text>
<text x="50" y="530" font-family="Arial" font-size="12" fill="black">Discrete Actions: 0</text>
<text x="50" y="550" font-family="Arial" font-size="12" fill="black">TargetFPS: 50 (physics update rate)</text>
<text x="50" y="570" font-family="Arial" font-size="12" fill="black">Observations Normalization: False</text>
<text x="10" y="620" font-family="Arial" font-size="16" fill="black">[Decision Requester]</text>
<text x="50" y="640" font-family="Arial" font-size="12" fill="black">Max Step: 10000</text>
<text x="50" y="660" font-family="Arial" font-size="12" fill="black">Decision Period: 1</text>
<text x="10" y="710" font-family="Arial" font-size="16" fill="black">[Graphs]</text>
<text x="50" y="730" font-family="Arial" font-size="12" fill="black">Episode Reward (182)</text>
<text x="50" y="745" font-family="Arial" font-size="10" fill="black">3.450004</text>
<text x="50" y="960" font-family="Arial" font-size="10" fill="black">1.524999</text>
<path d="M50,750 L51.5625,859.0911 L53.125,773.3766 L54.6875,812.3378 L56.25,833.117 L57.8125,840.9092 L59.375,820.1299 L60.9375,830.5196 L62.5,859.0911 L64.0625,809.7404 L65.625,786.3637 L67.1875,835.7144 L68.75,864.2858 L70.3125,820.1299 L71.875,866.8832 L73.4375,827.9222 L75,840.9092 L76.5625,879.8703 L78.125,874.6755 L79.6875,874.6755 L81.25,939.6104 L82.8125,939.6104 L84.375,937.0131 L85.9375,934.4156 L87.5,939.6104 L89.0625,939.6104 L90.625,939.6104 L92.1875,942.2078 L93.75,939.6104 L95.3125,931.8182 L96.875,939.6104 L98.4375,939.6104 L100,939.6104 L101.5625,939.6104 L103.125,942.2078 L104.6875,937.0131 L106.25,942.2078 L107.8125,939.6104 L109.375,944.8052 L110.9375,931.8182 L112.5,942.2078 L114.0625,944.8052 L115.625,942.2078 L117.1875,939.6104 L118.75,937.0131 L120.3125,937.0131 L121.875,937.0131 L123.4375,942.2078 L125,931.8182 L126.5625,939.6104 L128.125,937.0131 L129.6875,934.4156 L131.25,939.6104 L132.8125,939.6104 L134.375,939.6104 L135.9375,939.6104 L137.5,937.0131 L139.0625,942.2078 L140.625,937.0131 L142.1875,931.8182 L143.75,942.2078 L145.3125,944.8052 L146.875,939.6104 L148.4375,942.2078 L150,939.6104 L151.5625,931.8182 L153.125,944.8052 L154.6875,942.2078 L156.25,944.8052 L157.8125,939.6104 L159.375,937.0131 L160.9375,931.8182 L162.5,937.0131 L164.0625,942.2078 L165.625,934.4156 L167.1875,937.0131 L168.75,939.6104 L170.3125,944.8052 L171.875,939.6104 L173.4375,942.2078 L175,939.6104 L176.5625,937.0131 L178.125,939.6104 L179.6875,939.6104 L181.25,934.4156 L182.8125,942.2078 L184.375,942.2078 L185.9375,939.6104 L187.5,934.4156 L189.0625,937.0131 L190.625,942.2078 L192.1875,939.6104 L193.75,937.0131 L195.3125,939.6104 L196.875,934.4156 L198.4375,937.0131 L200,942.2078 L201.5625,939.6104 L203.125,939.6104 L204.6875,950 L206.25,939.6104 L207.8125,937.0131 L209.375,934.4156 L210.9375,931.8182 L212.5,937.0131 L214.0625,944.8052 L215.625,942.2078 L217.1875,939.6104 L218.75,942.2078 L220.3125,937.0131 L221.875,937.0131 L223.4375,937.0131 L225,939.6104 L226.5625,942.2078 L228.125,939.6104 L229.6875,937.0131 L231.25,944.8052 L232.8125,939.6104 L234.375,937.0131 L235.9375,931.8182 L237.5,934.4156 L239.0625,939.6104 L240.625,939.6104 L242.1875,939.6104 L243.75,939.6104 L245.3125,942.2078 L246.875,942.2078 L248.4375,934.4156 L250,939.6104 L251.5625,944.8052 L253.125,937.0131 L254.6875,937.0131 L256.25,931.8182 L257.8125,937.0131 L259.375,942.2078 L260.9375,934.4156 L262.5,944.8052 L264.0625,942.2078 L265.625,937.0131 L267.1875,942.2078 L268.75,931.8182 L270.3125,942.2078 L271.875,939.6104 L273.4375,937.0131 L275,937.0131 L276.5625,939.6104 L278.125,944.8052 L279.6875,944.8052 L281.25,939.6104 L282.8125,934.4156 L284.375,942.2078 L285.9375,947.4026 L287.5,942.2078 L289.0625,937.0131 L290.625,937.0131 L292.1875,937.0131 L293.75,939.6104 L295.3125,934.4156 L296.875,934.4156 L298.4375,942.2078 L300,939.6104 L301.5625,942.2078 L303.125,937.0131 L304.6875,931.8182 L306.25,944.8052 L307.8125,942.2078 L309.375,939.6104 L310.9375,939.6104 L312.5,942.2078 L314.0625,942.2078 L315.625,937.0131 L317.1875,939.6104 L318.75,934.4156 L320.3125,942.2078 L321.875,937.0131 L323.4375,944.8052 L325,939.6104 L326.5625,937.0131 L328.125,942.2078 L329.6875,939.6104 L331.25,944.8052 L332.8125,939.6104 " stroke="blue" fill="none" />
<text x="50" y="1000" font-family="Arial" font-size="12" fill="black">Episode Length (182)</text>
<text x="50" y="1015" font-family="Arial" font-size="10" fill="black">137</text>
<text x="50" y="1230" font-family="Arial" font-size="10" fill="black">61</text>
<path d="M50,1020 L51.5625,1127.895 L53.125,1041.053 L54.6875,1080.526 L56.25,1101.579 L57.8125,1109.474 L59.375,1088.421 L60.9375,1098.947 L62.5,1127.895 L64.0625,1077.895 L65.625,1054.211 L67.1875,1104.211 L68.75,1133.158 L70.3125,1088.421 L71.875,1135.789 L73.4375,1096.316 L75,1109.474 L76.5625,1148.947 L78.125,1143.684 L79.6875,1143.684 L81.25,1209.474 L82.8125,1209.474 L84.375,1206.842 L85.9375,1204.211 L87.5,1209.474 L89.0625,1209.474 L90.625,1209.474 L92.1875,1212.105 L93.75,1209.474 L95.3125,1201.579 L96.875,1209.474 L98.4375,1209.474 L100,1209.474 L101.5625,1209.474 L103.125,1212.105 L104.6875,1206.842 L106.25,1212.105 L107.8125,1209.474 L109.375,1214.737 L110.9375,1201.579 L112.5,1212.105 L114.0625,1214.737 L115.625,1212.105 L117.1875,1209.474 L118.75,1206.842 L120.3125,1206.842 L121.875,1206.842 L123.4375,1212.105 L125,1201.579 L126.5625,1209.474 L128.125,1206.842 L129.6875,1204.211 L131.25,1209.474 L132.8125,1209.474 L134.375,1209.474 L135.9375,1209.474 L137.5,1206.842 L139.0625,1212.105 L140.625,1206.842 L142.1875,1201.579 L143.75,1212.105 L145.3125,1214.737 L146.875,1209.474 L148.4375,1212.105 L150,1209.474 L151.5625,1201.579 L153.125,1214.737 L154.6875,1212.105 L156.25,1214.737 L157.8125,1209.474 L159.375,1206.842 L160.9375,1201.579 L162.5,1206.842 L164.0625,1212.105 L165.625,1204.211 L167.1875,1206.842 L168.75,1209.474 L170.3125,1214.737 L171.875,1209.474 L173.4375,1212.105 L175,1209.474 L176.5625,1206.842 L178.125,1209.474 L179.6875,1209.474 L181.25,1204.211 L182.8125,1212.105 L184.375,1212.105 L185.9375,1209.474 L187.5,1204.211 L189.0625,1206.842 L190.625,1212.105 L192.1875,1209.474 L193.75,1206.842 L195.3125,1209.474 L196.875,1204.211 L198.4375,1206.842 L200,1212.105 L201.5625,1209.474 L203.125,1209.474 L204.6875,1220 L206.25,1209.474 L207.8125,1206.842 L209.375,1204.211 L210.9375,1201.579 L212.5,1206.842 L214.0625,1214.737 L215.625,1212.105 L217.1875,1209.474 L218.75,1212.105 L220.3125,1206.842 L221.875,1206.842 L223.4375,1206.842 L225,1209.474 L226.5625,1212.105 L228.125,1209.474 L229.6875,1206.842 L231.25,1214.737 L232.8125,1209.474 L234.375,1206.842 L235.9375,1201.579 L237.5,1204.211 L239.0625,1209.474 L240.625,1209.474 L242.1875,1209.474 L243.75,1209.474 L245.3125,1212.105 L246.875,1212.105 L248.4375,1204.211 L250,1209.474 L251.5625,1214.737 L253.125,1206.842 L254.6875,1206.842 L256.25,1201.579 L257.8125,1206.842 L259.375,1212.105 L260.9375,1204.211 L262.5,1214.737 L264.0625,1212.105 L265.625,1206.842 L267.1875,1212.105 L268.75,1201.579 L270.3125,1212.105 L271.875,1209.474 L273.4375,1206.842 L275,1206.842 L276.5625,1209.474 L278.125,1214.737 L279.6875,1214.737 L281.25,1209.474 L282.8125,1204.211 L284.375,1212.105 L285.9375,1217.368 L287.5,1212.105 L289.0625,1206.842 L290.625,1206.842 L292.1875,1206.842 L293.75,1209.474 L295.3125,1204.211 L296.875,1204.211 L298.4375,1212.105 L300,1209.474 L301.5625,1212.105 L303.125,1206.842 L304.6875,1201.579 L306.25,1214.737 L307.8125,1212.105 L309.375,1209.474 L310.9375,1209.474 L312.5,1212.105 L314.0625,1212.105 L315.625,1206.842 L317.1875,1209.474 L318.75,1204.211 L320.3125,1212.105 L321.875,1206.842 L323.4375,1214.737 L325,1209.474 L326.5625,1206.842 L328.125,1212.105 L329.6875,1209.474 L331.25,1214.737 L332.8125,1209.474 " stroke="blue" fill="none" />
<text x="50" y="1270" font-family="Arial" font-size="12" fill="black">Actor Loss</text>
<text x="50" y="1285" font-family="Arial" font-size="10" fill="black">0.8892341</text>
<text x="50" y="1500" font-family="Arial" font-size="10" fill="black">0</text>
<path d="M50,1290 L75,1489.782 L100,1490 L125,1490 L150,1490 L175,1490 " stroke="blue" fill="none" />
<text x="50" y="1540" font-family="Arial" font-size="12" fill="black">Critic Loss</text>
<text x="50" y="1555" font-family="Arial" font-size="10" fill="black">0.01908564</text>
<text x="50" y="1770" font-family="Arial" font-size="10" fill="black">0.0002383084</text>
<path d="M50,1560 L75,1691.692 L100,1744.428 L125,1755.911 L150,1758.38 L175,1760 " stroke="blue" fill="none" />
<text x="50" y="1810" font-family="Arial" font-size="12" fill="black">Entropy</text>
<text x="50" y="1825" font-family="Arial" font-size="10" fill="black">2</text>
<text x="50" y="2040" font-family="Arial" font-size="10" fill="black">2</text>
<path d="M50,2030 L75,2030 L100,2030 L125,2030 L150,2030 L175,2030 " stroke="blue" fill="none" />
<text x="750" y="710" font-family="Arial" font-size="12" fill="black">Simplified</text>
<text x="750" y="725" font-family="Arial" font-size="10" fill="black">2.672369</text>
<text x="750" y="940" font-family="Arial" font-size="10" fill="black">1.620454</text>
<path d="M778.125,730 L807.8125,921.8809 L837.5,927.6347 L867.1875,928.1351 L896.875,928.3853 L926.5625,928.8856 L956.25,927.1344 L985.9375,929.8863 L1015.625,928.1351 L1032.813,930 " stroke="blue" fill="none" />
<text x="750" y="980" font-family="Arial" font-size="12" fill="black">Simplified</text>
<text x="750" y="995" font-family="Arial" font-size="10" fill="black">106.8421</text>
<text x="750" y="1210" font-family="Arial" font-size="10" fill="black">64.81818</text>
<path d="M778.125,1000 L807.8125,1191.871 L837.5,1197.632 L867.1875,1198.133 L896.875,1198.383 L926.5625,1198.884 L956.25,1197.131 L985.9375,1199.886 L1015.625,1198.133 L1032.813,1200 " stroke="blue" fill="none" />
</svg>
