<svg width="2000" height="2500" xmlns="http://www.w3.org/2000/svg">
<text x="10" y="20" font-family="Arial" font-size="26" fill="black"> [<tspan font-weight="bold" fill="blue">BalanceBall</tspan>] Training Session</text>
<text x="10" y="50" font-family="Arial" font-size="16" fill="black">[Statistics]</text>
<text x="50" y="70" font-family="Arial" font-size="12" fill="black">Started at: 4:32:56 PM, Saturday, April 18, 2026</text>
<text x="50" y="90" font-family="Arial" font-size="12" fill="black">Finished at: 4:34:20 PM, Saturday, April 18, 2026</text>
<text x="50" y="110" font-family="Arial" font-size="12" fill="black">Training Session Time: 0 hrs : 1 min : 22.96 sec</text>
<text x="50" y="130" font-family="Arial" font-size="12" fill="black">Inference Time: 0 hrs : 28 min : 2 sec        [Device: CPU]</text>
<text x="50" y="150" font-family="Arial" font-size="12" fill="black">Update Time: 0 hrs : 0 min : 29.00 sec        [Per iteration: 0 hrs : 0 min : 3.56 sec]        [Device: GPU]</text>
<text x="50" y="170" font-family="Arial" font-size="12" fill="black">Episode Count: 716</text>
<text x="50" y="190" font-family="Arial" font-size="12" fill="black">Inference Steps: 81920</text>
<text x="50" y="210" font-family="Arial" font-size="12" fill="black">Iterations: 8</text>
<text x="50" y="230" font-family="Arial" font-size="12" fill="black">Parallel Agents: 1</text>
<text x="50" y="250" font-family="Arial" font-size="12" fill="black">Timescale: 32.21</text>
<text x="50" y="270" font-family="Arial" font-size="12" fill="black">Trainer: PPO</text>
<text x="10" y="320" font-family="Arial" font-size="16" fill="black">[Hyperparameters]</text>
<text x="50" y="340" font-family="Arial" font-size="12" fill="black">Buffer Size: 10240        [Batch Size: 512       (x20)]</text>
<text x="50" y="360" font-family="Arial" font-size="12" fill="black">Num Epoch: 8</text>
<text x="50" y="380" font-family="Arial" font-size="12" fill="black">Time Horizon: -1</text>
<text x="50" y="400" font-family="Arial" font-size="12" fill="black">Gradient Cliping by Norm: 0.5</text>
<text x="50" y="420" font-family="Arial" font-size="12" fill="black">Learning Rate Schedule: False    </text>
<text x="10" y="470" font-family="Arial" font-size="16" fill="black">[Behaviour]</text>
<text x="50" y="490" font-family="Arial" font-size="12" fill="black">Space Size: 10</text>
<text x="50" y="510" font-family="Arial" font-size="12" fill="black">Continuous Actions: 2 [Standard Deviation: FixedStandardDeviation]     [Value: 1]</text>
<text x="50" y="530" font-family="Arial" font-size="12" fill="black">Discrete Actions: 0</text>
<text x="50" y="550" font-family="Arial" font-size="12" fill="black">TargetFPS: 50 (physics update rate)</text>
<text x="50" y="570" font-family="Arial" font-size="12" fill="black">Observations Normalization: False</text>
<text x="10" y="620" font-family="Arial" font-size="16" fill="black">[Decision Requester]</text>
<text x="50" y="640" font-family="Arial" font-size="12" fill="black">Max Step: 10000</text>
<text x="50" y="660" font-family="Arial" font-size="12" fill="black">Decision Period: 1</text>
<text x="10" y="710" font-family="Arial" font-size="16" fill="black">[Graphs]</text>
<text x="50" y="730" font-family="Arial" font-size="12" fill="black">Episode Reward (716)</text>
<text x="50" y="745" font-family="Arial" font-size="10" fill="black">9.250002</text>
<text x="50" y="960" font-family="Arial" font-size="10" fill="black">2.074999</text>
<path d="M50,944.425 L50.39063,933.972 L50.78125,941.6376 L51.17188,940.2439 L51.5625,947.9094 L51.95313,938.8502 L52.34375,945.8188 L52.73438,938.8502 L53.125,931.1846 L53.51563,935.3658 L53.90625,938.8502 L54.29688,935.3658 L54.6875,927.7003 L55.07813,938.1533 L55.46875,939.547 L55.85938,943.0313 L56.25,940.2439 L56.64063,943.0313 L57.03125,936.0627 L57.42188,931.1846 L57.8125,938.1533 L58.20313,931.8815 L58.59375,934.6689 L58.98438,950 L59.375,945.8188 L59.76563,935.3658 L60.15625,931.1846 L60.54688,938.1533 L60.9375,941.6376 L61.32813,934.6689 L61.71875,941.6376 L62.10938,947.2125 L62.5,949.3032 L62.89063,939.547 L63.28125,934.6689 L63.67188,939.547 L64.0625,929.7909 L64.45313,933.972 L64.84375,933.972 L65.23438,945.1219 L65.625,936.0627 L66.01563,933.2752 L66.40625,946.5157 L66.79688,920.0347 L67.1875,936.0627 L67.57813,947.2125 L67.96875,935.3658 L68.35938,945.1219 L68.75,933.972 L69.14063,940.2439 L69.53125,934.6689 L69.92188,933.972 L70.3125,929.7909 L70.70313,933.972 L71.09375,941.6376 L71.48438,926.3065 L71.875,933.972 L72.26563,938.8502 L72.65625,927.7003 L73.04688,943.0313 L73.4375,940.9407 L73.82813,941.6376 L74.21875,945.1219 L74.60938,924.9128 L75,937.4564 L75.39063,936.7595 L75.78125,931.8815 L76.17188,938.8502 L76.5625,935.3658 L76.95313,930.4877 L77.34375,943.0313 L77.73438,924.2159 L78.125,937.4564 L78.51563,941.6376 L78.90625,927.0034 L79.29688,930.4877 L79.6875,940.2439 L80.07813,940.9407 L80.46875,936.7595 L80.85938,938.8502 L81.25,933.972 L81.64063,939.547 L82.03125,944.425 L82.42188,939.547 L82.8125,946.5157 L83.20313,933.2752 L83.59375,921.4285 L83.98438,926.3065 L84.375,923.5191 L84.76563,947.2125 L85.15625,938.8502 L85.54688,936.0627 L85.9375,924.2159 L86.32813,943.0313 L86.71875,940.9407 L87.10938,927.0034 L87.5,927.0034 L87.89063,926.3065 L88.28125,945.1219 L88.67188,943.7282 L89.0625,947.9094 L89.45313,939.547 L89.84375,933.972 L90.23438,934.6689 L90.625,940.9407 L91.01563,940.2439 L91.40625,926.3065 L91.79688,945.1219 L92.1875,927.7003 L92.57813,940.9407 L92.96875,927.0034 L93.35938,939.547 L93.75,926.3065 L94.14063,940.9407 L94.53125,921.4285 L94.92188,929.094 L95.3125,936.7595 L95.70313,934.6689 L96.09375,930.4877 L96.48438,944.425 L96.875,938.8502 L97.26563,944.425 L97.65625,944.425 L98.04688,932.5783 L98.4375,929.7909 L98.82813,933.2752 L99.21875,940.2439 L99.60938,913.0661 L100,925.6097 L100.3906,936.7595 L100.7813,936.0627 L101.1719,940.9407 L101.5625,930.4877 L101.9531,936.7595 L102.3438,933.972 L102.7344,933.2752 L103.125,937.4564 L103.5156,925.6097 L103.9063,936.7595 L104.2969,938.8502 L104.6875,944.425 L105.0781,929.7909 L105.4688,943.0313 L105.8594,933.972 L106.25,937.4564 L106.6406,920.7316 L107.0313,933.2752 L107.4219,936.7595 L107.8125,904.7037 L108.2031,939.547 L108.5938,923.5191 L108.9844,934.6689 L109.375,945.1219 L109.7656,944.425 L110.1563,946.5157 L110.5469,941.6376 L110.9375,933.972 L111.3281,931.1846 L111.7188,935.3658 L112.1094,942.3345 L112.5,935.3658 L112.8906,933.972 L113.2813,922.8222 L113.6719,932.5783 L114.0625,940.2439 L114.4531,935.3658 L114.8438,922.8222 L115.2344,931.1846 L115.625,917.9442 L116.0156,923.5191 L116.4063,938.1533 L116.7969,939.547 L117.1875,935.3658 L117.5781,938.1533 L117.9688,942.3345 L118.3594,936.0627 L118.75,933.972 L119.1406,936.0627 L119.5313,932.5783 L119.9219,930.4877 L120.3125,920.7316 L120.7031,946.5157 L121.0938,920.0347 L121.4844,936.0627 L121.875,931.1846 L122.2656,944.425 L122.6563,947.2125 L123.0469,918.641 L123.4375,938.8502 L123.8281,929.7909 L124.2188,942.3345 L124.6094,922.8222 L125,936.0627 L125.3906,931.1846 L125.7813,915.1567 L126.1719,944.425 L126.5625,932.5783 L126.9531,927.0034 L127.3438,944.425 L127.7344,937.4564 L128.125,947.2125 L128.5156,932.5783 L128.9063,944.425 L129.2969,933.972 L129.6875,934.6689 L130.0781,927.7003 L130.4688,934.6689 L130.8594,924.9128 L131.25,938.8502 L131.6406,947.9094 L132.0313,944.425 L132.4219,929.7909 L132.8125,936.7595 L133.2031,944.425 L133.5938,931.1846 L133.9844,930.4877 L134.375,934.6689 L134.7656,933.2752 L135.1563,915.8535 L135.5469,934.6689 L135.9375,943.7282 L136.3281,937.4564 L136.7188,943.0313 L137.1094,939.547 L137.5,937.4564 L137.8906,927.7003 L138.2813,943.7282 L138.6719,936.7595 L139.0625,936.0627 L139.4531,929.7909 L139.8438,936.7595 L140.2344,945.8188 L140.625,939.547 L141.0156,927.0034 L141.4063,929.7909 L141.7969,936.7595 L142.1875,932.5783 L142.5781,940.2439 L142.9688,924.2159 L143.3594,938.8502 L143.75,938.1533 L144.1406,937.4564 L144.5313,944.425 L144.9219,944.425 L145.3125,929.7909 L145.7031,931.1846 L146.0938,948.6063 L146.4844,906.7943 L146.875,917.2473 L147.2656,940.9407 L147.6563,941.6376 L148.0469,929.094 L148.4375,915.1567 L148.8281,943.0313 L149.2188,929.7909 L149.6094,924.2159 L150,938.1533 L150.3906,944.425 L150.7813,916.5504 L151.1719,938.1533 L151.5625,920.0347 L151.9531,920.7316 L152.3438,919.3379 L152.7344,940.2439 L153.125,933.972 L153.5156,941.6376 L153.9063,913.7629 L154.2969,920.7316 L154.6875,940.2439 L155.0781,926.3065 L155.4688,939.547 L155.8594,937.4564 L156.25,944.425 L156.6406,949.3032 L157.0313,943.0313 L157.4219,935.3658 L157.8125,936.0627 L158.2031,936.0627 L158.5938,930.4877 L158.9844,892.1601 L159.375,938.1533 L159.7656,921.4285 L160.1563,924.2159 L160.5469,904.0068 L160.9375,947.2125 L161.3281,938.1533 L161.7188,943.7282 L162.1094,928.3972 L162.5,935.3658 L162.8906,934.6689 L163.2813,933.2752 L163.6719,936.0627 L164.0625,936.7595 L164.4531,937.4564 L164.8438,928.3972 L165.2344,925.6097 L165.625,908.188 L166.0156,940.2439 L166.4063,915.1567 L166.7969,922.1254 L167.1875,947.9094 L167.5781,933.972 L167.9688,933.2752 L168.3594,942.3345 L168.75,931.1846 L169.1406,940.9407 L169.5313,933.972 L169.9219,942.3345 L170.3125,949.3032 L170.7031,945.8188 L171.0938,943.7282 L171.4844,919.3379 L171.875,940.9407 L172.2656,942.3345 L172.6563,924.9128 L173.0469,940.2439 L173.4375,922.8222 L173.8281,932.5783 L174.2188,933.2752 L174.6094,936.7595 L175,946.5157 L175.3906,948.6063 L175.7813,922.8222 L176.1719,929.094 L176.5625,931.1846 L176.9531,920.0347 L177.3438,930.4877 L177.7344,925.6097 L178.125,936.7595 L178.5156,935.3658 L178.9063,938.8502 L179.2969,930.4877 L179.6875,939.547 L180.0781,937.4564 L180.4688,940.9407 L180.8594,933.972 L181.25,933.2752 L181.6406,936.0627 L182.0313,939.547 L182.4219,921.4285 L182.8125,938.8502 L183.2031,946.5157 L183.5938,938.8502 L183.9844,924.9128 L184.375,936.7595 L184.7656,938.8502 L185.1563,939.547 L185.5469,947.2125 L185.9375,936.0627 L186.3281,936.7595 L186.7188,934.6689 L187.1094,943.7282 L187.5,937.4564 L187.8906,919.3379 L188.2813,933.2752 L188.6719,923.5191 L189.0625,936.7595 L189.4531,922.1254 L189.8438,933.972 L190.2344,931.8815 L190.625,931.1846 L191.0156,944.425 L191.4063,914.4598 L191.7969,925.6097 L192.1875,931.1846 L192.5781,947.2125 L192.9688,940.9407 L193.3594,935.3658 L193.75,940.9407 L194.1406,936.0627 L194.5313,940.2439 L194.9219,941.6376 L195.3125,934.6689 L195.7031,924.2159 L196.0938,938.8502 L196.4844,924.9128 L196.875,935.3658 L197.2656,941.6376 L197.6563,916.5504 L198.0469,939.547 L198.4375,941.6376 L198.8281,917.2473 L199.2188,938.8502 L199.6094,936.7595 L200,945.8188 L200.3906,922.8222 L200.7813,935.3658 L201.1719,931.1846 L201.5625,939.547 L201.9531,938.8502 L202.3438,916.5504 L202.7344,938.8502 L203.125,940.9407 L203.5156,939.547 L203.9063,924.9128 L204.2969,929.094 L204.6875,939.547 L205.0781,917.9442 L205.4688,940.9407 L205.8594,929.7909 L206.25,927.7003 L206.6406,937.4564 L207.0313,939.547 L207.4219,933.2752 L207.8125,933.972 L208.2031,931.8815 L208.5938,930.4877 L208.9844,926.3065 L209.375,924.9128 L209.7656,940.9407 L210.1563,927.7003 L210.5469,932.5783 L210.9375,932.5783 L211.3281,945.1219 L211.7188,940.2439 L212.1094,920.7316 L212.5,938.8502 L212.8906,920.7316 L213.2813,930.4877 L213.6719,913.7629 L214.0625,932.5783 L214.4531,937.4564 L214.8438,928.3972 L215.2344,924.2159 L215.625,937.4564 L216.0156,940.9407 L216.4063,925.6097 L216.7969,925.6097 L217.1875,940.2439 L217.5781,943.0313 L217.9688,942.3345 L218.3594,938.8502 L218.75,933.972 L219.1406,940.2439 L219.5313,936.0627 L219.9219,922.8222 L220.3125,932.5783 L220.7031,933.2752 L221.0938,931.1846 L221.4844,941.6376 L221.875,940.9407 L222.2656,936.0627 L222.6563,939.547 L223.0469,936.0627 L223.4375,943.7282 L223.8281,935.3658 L224.2188,940.9407 L224.6094,908.188 L225,912.3692 L225.3906,940.9407 L225.7813,930.4877 L226.1719,914.4598 L226.5625,933.972 L226.9531,926.3065 L227.3438,928.3972 L227.7344,936.7595 L228.125,930.4877 L228.5156,936.7595 L228.9063,930.4877 L229.2969,910.9755 L229.6875,907.4911 L230.0781,921.4285 L230.4688,942.3345 L230.8594,924.2159 L231.25,930.4877 L231.6406,931.1846 L232.0313,929.7909 L232.4219,917.9442 L232.8125,943.0313 L233.2031,943.0313 L233.5938,919.3379 L233.9844,940.9407 L234.375,934.6689 L234.7656,938.1533 L235.1563,929.7909 L235.5469,938.1533 L235.9375,924.9128 L236.3281,928.3972 L236.7188,939.547 L237.1094,931.8815 L237.5,922.1254 L237.8906,936.7595 L238.2813,911.6724 L238.6719,920.0347 L239.0625,915.1567 L239.4531,931.1846 L239.8438,903.3099 L240.2344,926.3065 L240.625,920.7316 L241.0156,932.5783 L241.4063,927.0034 L241.7969,945.1219 L242.1875,927.7003 L242.5781,923.5191 L242.9688,929.094 L243.3594,920.7316 L243.75,920.0347 L244.1406,900.5225 L244.5313,929.7909 L244.9219,892.1601 L245.3125,910.9755 L245.7031,923.5191 L246.0938,938.8502 L246.4844,919.3379 L246.875,936.7595 L247.2656,924.9128 L247.6563,922.8222 L248.0469,922.1254 L248.4375,923.5191 L248.8281,920.0347 L249.2188,935.3658 L249.6094,938.1533 L250,929.7909 L250.3906,921.4285 L250.7813,922.1254 L251.1719,936.0627 L251.5625,910.2786 L251.9531,914.4598 L252.3438,913.7629 L252.7344,914.4598 L253.125,935.3658 L253.5156,925.6097 L253.9063,932.5783 L254.2969,929.7909 L254.6875,885.1914 L255.0781,921.4285 L255.4688,929.094 L255.8594,917.2473 L256.25,940.9407 L256.6406,914.4598 L257.0313,908.188 L257.4219,924.2159 L257.8125,929.094 L258.2031,912.3692 L258.5938,922.8222 L258.9844,929.7909 L259.375,922.1254 L259.7656,927.7003 L260.1563,924.2159 L260.5469,904.0068 L260.9375,923.5191 L261.3281,927.0034 L261.7188,907.4911 L262.1094,905.4006 L262.5,918.641 L262.8906,918.641 L263.2813,916.5504 L263.6719,898.4319 L264.0625,939.547 L264.4531,923.5191 L264.8438,906.0974 L265.2344,912.3692 L265.625,933.2752 L266.0156,933.972 L266.4063,934.6689 L266.7969,921.4285 L267.1875,925.6097 L267.5781,923.5191 L267.9688,928.3972 L268.3594,918.641 L268.75,906.7943 L269.1406,938.1533 L269.5313,917.2473 L269.9219,939.547 L270.3125,919.3379 L270.7031,924.2159 L271.0938,940.2439 L271.4844,876.1321 L271.875,916.5504 L272.2656,918.641 L272.6563,918.641 L273.0469,903.3099 L273.4375,924.2159 L273.8281,903.3099 L274.2188,910.9755 L274.6094,922.8222 L275,931.1846 L275.3906,909.5817 L275.7813,907.4911 L276.1719,910.9755 L276.5625,913.7629 L276.9531,837.1076 L277.3438,928.3972 L277.7344,911.6724 L278.125,901.2194 L278.5156,933.2752 L278.9063,843.3795 L279.2969,898.4319 L279.6875,930.4877 L280.0781,908.188 L280.4688,924.9128 L280.8594,874.7384 L281.25,902.6131 L281.6406,895.6444 L282.0313,901.9162 L282.4219,902.6131 L282.8125,926.3065 L283.2031,913.0661 L283.5938,910.2786 L283.9844,897.0381 L284.375,918.641 L284.7656,932.5783 L285.1563,922.1254 L285.5469,926.3065 L285.9375,939.547 L286.3281,899.8256 L286.7188,915.1567 L287.1094,926.3065 L287.5,888.6757 L287.8906,882.4039 L288.2813,913.7629 L288.6719,914.4598 L289.0625,917.2473 L289.4531,915.8535 L289.8438,909.5817 L290.2344,909.5817 L290.625,903.3099 L291.0156,907.4911 L291.4063,913.0661 L291.7969,922.8222 L292.1875,887.282 L292.5781,917.2473 L292.9688,919.3379 L293.3594,837.1076 L293.75,921.4285 L294.1406,896.3413 L294.5313,910.2786 L294.9219,927.0034 L295.3125,927.0034 L295.7031,931.1846 L296.0938,923.5191 L296.4844,927.0034 L296.875,915.8535 L297.2656,931.1846 L297.6563,940.9407 L298.0469,886.5851 L298.4375,919.3379 L298.8281,909.5817 L299.2188,939.547 L299.6094,841.2888 L300,926.3065 L300.3906,882.4039 L300.7813,926.3065 L301.1719,920.0347 L301.5625,925.6097 L301.9531,910.9755 L302.3438,884.4946 L302.7344,926.3065 L303.125,891.4632 L303.5156,912.3692 L303.9063,909.5817 L304.2969,879.6165 L304.6875,910.9755 L305.0781,851.045 L305.4688,855.2261 L305.8594,915.1567 L306.25,913.0661 L306.6407,902.6131 L307.0313,851.7418 L307.4219,921.4285 L307.8125,884.4946 L308.2031,910.9755 L308.5938,887.282 L308.9844,902.6131 L309.375,897.0381 L309.7656,902.6131 L310.1563,906.7943 L310.5469,922.1254 L310.9375,930.4877 L311.3281,869.8604 L311.7188,886.5851 L312.1094,844.0763 L312.5,894.9476 L312.8906,773.693 L313.2813,891.4632 L313.6719,915.8535 L314.0625,900.5225 L314.4532,892.8569 L314.8438,906.7943 L315.2344,907.4911 L315.625,922.8222 L316.0156,896.3413 L316.4063,916.5504 L316.7969,913.0661 L317.1875,880.3134 L317.5781,899.1287 L317.9688,886.5851 L318.3594,900.5225 L318.75,846.8638 L319.1406,900.5225 L319.5313,931.8815 L319.9219,907.4911 L320.3125,914.4598 L320.7031,930.4877 L321.0938,916.5504 L321.4844,913.7629 L321.875,927.7003 L322.2657,877.5259 L322.6563,929.7909 L323.0469,898.4319 L323.4375,867.7698 L323.8281,916.5504 L324.2188,878.9196 L324.6094,904.7037 L325,878.2228 L325.3906,913.0661 L325.7813,871.2541 L326.1719,881.0102 L326.5625,889.3726 L326.9531,896.3413 L327.3438,862.1948 L327.7344,880.3134 L328.125,885.8883 L328.5156,894.2507 L328.9063,750 L329.2969,876.1321 " stroke="blue" fill="none" />
<text x="50" y="1000" font-family="Arial" font-size="12" fill="black">Episode Length (716)</text>
<text x="50" y="1015" font-family="Arial" font-size="10" fill="black">370</text>
<text x="50" y="1230" font-family="Arial" font-size="10" fill="black">83</text>
<path d="M50,1215.122 L50.39063,1203.972 L50.78125,1211.638 L51.17188,1210.244 L51.5625,1217.909 L51.95313,1208.85 L52.34375,1215.819 L52.73438,1208.85 L53.125,1201.185 L53.51563,1205.366 L53.90625,1208.85 L54.29688,1205.366 L54.6875,1197.7 L55.07813,1208.153 L55.46875,1209.547 L55.85938,1213.031 L56.25,1210.244 L56.64063,1213.031 L57.03125,1206.063 L57.42188,1201.185 L57.8125,1208.153 L58.20313,1201.882 L58.59375,1204.669 L58.98438,1220 L59.375,1215.819 L59.76563,1205.366 L60.15625,1201.185 L60.54688,1208.153 L60.9375,1211.638 L61.32813,1204.669 L61.71875,1211.638 L62.10938,1217.213 L62.5,1219.303 L62.89063,1209.547 L63.28125,1204.669 L63.67188,1209.547 L64.0625,1199.791 L64.45313,1203.972 L64.84375,1203.972 L65.23438,1215.122 L65.625,1206.063 L66.01563,1203.275 L66.40625,1216.516 L66.79688,1190.035 L67.1875,1206.063 L67.57813,1217.213 L67.96875,1205.366 L68.35938,1215.122 L68.75,1203.972 L69.14063,1210.244 L69.53125,1204.669 L69.92188,1203.972 L70.3125,1199.791 L70.70313,1203.972 L71.09375,1211.638 L71.48438,1196.307 L71.875,1203.972 L72.26563,1208.85 L72.65625,1197.7 L73.04688,1213.031 L73.4375,1210.941 L73.82813,1211.638 L74.21875,1215.122 L74.60938,1194.913 L75,1207.456 L75.39063,1206.76 L75.78125,1201.882 L76.17188,1208.85 L76.5625,1205.366 L76.95313,1200.488 L77.34375,1213.031 L77.73438,1194.216 L78.125,1207.456 L78.51563,1211.638 L78.90625,1197.004 L79.29688,1200.488 L79.6875,1210.244 L80.07813,1210.941 L80.46875,1206.76 L80.85938,1208.85 L81.25,1203.972 L81.64063,1209.547 L82.03125,1214.425 L82.42188,1209.547 L82.8125,1216.516 L83.20313,1203.275 L83.59375,1191.429 L83.98438,1196.307 L84.375,1193.519 L84.76563,1217.213 L85.15625,1208.85 L85.54688,1206.063 L85.9375,1194.216 L86.32813,1213.031 L86.71875,1210.941 L87.10938,1197.004 L87.5,1197.004 L87.89063,1196.307 L88.28125,1215.122 L88.67188,1213.728 L89.0625,1217.909 L89.45313,1209.547 L89.84375,1203.972 L90.23438,1204.669 L90.625,1210.941 L91.01563,1210.244 L91.40625,1196.307 L91.79688,1215.122 L92.1875,1197.7 L92.57813,1210.941 L92.96875,1197.004 L93.35938,1209.547 L93.75,1196.307 L94.14063,1210.941 L94.53125,1191.429 L94.92188,1199.094 L95.3125,1206.76 L95.70313,1204.669 L96.09375,1200.488 L96.48438,1214.425 L96.875,1208.85 L97.26563,1214.425 L97.65625,1214.425 L98.04688,1202.578 L98.4375,1199.791 L98.82813,1203.275 L99.21875,1210.244 L99.60938,1183.066 L100,1195.61 L100.3906,1206.76 L100.7813,1206.063 L101.1719,1210.941 L101.5625,1200.488 L101.9531,1206.76 L102.3438,1203.972 L102.7344,1203.275 L103.125,1207.456 L103.5156,1195.61 L103.9063,1206.76 L104.2969,1208.85 L104.6875,1214.425 L105.0781,1199.791 L105.4688,1213.031 L105.8594,1203.972 L106.25,1207.456 L106.6406,1190.732 L107.0313,1203.275 L107.4219,1206.76 L107.8125,1174.704 L108.2031,1209.547 L108.5938,1193.519 L108.9844,1204.669 L109.375,1215.122 L109.7656,1214.425 L110.1563,1216.516 L110.5469,1211.638 L110.9375,1203.972 L111.3281,1201.185 L111.7188,1205.366 L112.1094,1212.334 L112.5,1205.366 L112.8906,1203.972 L113.2813,1192.822 L113.6719,1202.578 L114.0625,1210.244 L114.4531,1205.366 L114.8438,1192.822 L115.2344,1201.185 L115.625,1187.944 L116.0156,1193.519 L116.4063,1208.153 L116.7969,1209.547 L117.1875,1205.366 L117.5781,1208.153 L117.9688,1212.334 L118.3594,1206.063 L118.75,1203.972 L119.1406,1206.063 L119.5313,1202.578 L119.9219,1200.488 L120.3125,1190.732 L120.7031,1216.516 L121.0938,1190.035 L121.4844,1206.063 L121.875,1201.185 L122.2656,1214.425 L122.6563,1217.213 L123.0469,1188.641 L123.4375,1208.85 L123.8281,1199.791 L124.2188,1212.334 L124.6094,1192.822 L125,1206.063 L125.3906,1201.185 L125.7813,1185.157 L126.1719,1214.425 L126.5625,1202.578 L126.9531,1197.004 L127.3438,1214.425 L127.7344,1207.456 L128.125,1217.213 L128.5156,1202.578 L128.9063,1214.425 L129.2969,1203.972 L129.6875,1204.669 L130.0781,1197.7 L130.4688,1204.669 L130.8594,1194.913 L131.25,1208.85 L131.6406,1217.909 L132.0313,1214.425 L132.4219,1199.791 L132.8125,1206.76 L133.2031,1214.425 L133.5938,1201.185 L133.9844,1200.488 L134.375,1204.669 L134.7656,1203.275 L135.1563,1185.854 L135.5469,1204.669 L135.9375,1213.728 L136.3281,1207.456 L136.7188,1213.031 L137.1094,1209.547 L137.5,1207.456 L137.8906,1197.7 L138.2813,1213.728 L138.6719,1206.76 L139.0625,1206.063 L139.4531,1199.791 L139.8438,1206.76 L140.2344,1215.819 L140.625,1209.547 L141.0156,1197.004 L141.4063,1199.791 L141.7969,1206.76 L142.1875,1202.578 L142.5781,1210.244 L142.9688,1194.216 L143.3594,1208.85 L143.75,1208.153 L144.1406,1207.456 L144.5313,1214.425 L144.9219,1214.425 L145.3125,1199.791 L145.7031,1201.185 L146.0938,1218.606 L146.4844,1176.794 L146.875,1187.247 L147.2656,1210.941 L147.6563,1211.638 L148.0469,1199.094 L148.4375,1185.157 L148.8281,1213.031 L149.2188,1199.791 L149.6094,1194.216 L150,1208.153 L150.3906,1214.425 L150.7813,1186.551 L151.1719,1208.153 L151.5625,1190.035 L151.9531,1190.732 L152.3438,1189.338 L152.7344,1210.244 L153.125,1203.972 L153.5156,1211.638 L153.9063,1183.763 L154.2969,1190.732 L154.6875,1210.244 L155.0781,1196.307 L155.4688,1209.547 L155.8594,1207.456 L156.25,1214.425 L156.6406,1219.303 L157.0313,1213.031 L157.4219,1205.366 L157.8125,1206.063 L158.2031,1206.063 L158.5938,1200.488 L158.9844,1162.16 L159.375,1208.153 L159.7656,1191.429 L160.1563,1194.216 L160.5469,1174.007 L160.9375,1217.213 L161.3281,1208.153 L161.7188,1213.728 L162.1094,1198.397 L162.5,1205.366 L162.8906,1204.669 L163.2813,1203.275 L163.6719,1206.063 L164.0625,1206.76 L164.4531,1207.456 L164.8438,1198.397 L165.2344,1195.61 L165.625,1178.188 L166.0156,1210.244 L166.4063,1185.157 L166.7969,1192.125 L167.1875,1217.909 L167.5781,1203.972 L167.9688,1203.275 L168.3594,1212.334 L168.75,1201.185 L169.1406,1210.941 L169.5313,1203.972 L169.9219,1212.334 L170.3125,1219.303 L170.7031,1215.819 L171.0938,1213.728 L171.4844,1189.338 L171.875,1210.941 L172.2656,1212.334 L172.6563,1194.913 L173.0469,1210.244 L173.4375,1192.822 L173.8281,1202.578 L174.2188,1203.275 L174.6094,1206.76 L175,1216.516 L175.3906,1218.606 L175.7813,1192.822 L176.1719,1199.094 L176.5625,1201.185 L176.9531,1190.035 L177.3438,1200.488 L177.7344,1195.61 L178.125,1206.76 L178.5156,1205.366 L178.9063,1208.85 L179.2969,1200.488 L179.6875,1209.547 L180.0781,1207.456 L180.4688,1210.941 L180.8594,1203.972 L181.25,1203.275 L181.6406,1206.063 L182.0313,1209.547 L182.4219,1191.429 L182.8125,1208.85 L183.2031,1216.516 L183.5938,1208.85 L183.9844,1194.913 L184.375,1206.76 L184.7656,1208.85 L185.1563,1209.547 L185.5469,1217.213 L185.9375,1206.063 L186.3281,1206.76 L186.7188,1204.669 L187.1094,1213.728 L187.5,1207.456 L187.8906,1189.338 L188.2813,1203.275 L188.6719,1193.519 L189.0625,1206.76 L189.4531,1192.125 L189.8438,1203.972 L190.2344,1201.882 L190.625,1201.185 L191.0156,1214.425 L191.4063,1184.46 L191.7969,1195.61 L192.1875,1201.185 L192.5781,1217.213 L192.9688,1210.941 L193.3594,1205.366 L193.75,1210.941 L194.1406,1206.063 L194.5313,1210.244 L194.9219,1211.638 L195.3125,1204.669 L195.7031,1194.216 L196.0938,1208.85 L196.4844,1194.913 L196.875,1205.366 L197.2656,1211.638 L197.6563,1186.551 L198.0469,1209.547 L198.4375,1211.638 L198.8281,1187.247 L199.2188,1208.85 L199.6094,1206.76 L200,1215.819 L200.3906,1192.822 L200.7813,1205.366 L201.1719,1201.185 L201.5625,1209.547 L201.9531,1208.85 L202.3438,1186.551 L202.7344,1208.85 L203.125,1210.941 L203.5156,1209.547 L203.9063,1194.913 L204.2969,1199.094 L204.6875,1209.547 L205.0781,1187.944 L205.4688,1210.941 L205.8594,1199.791 L206.25,1197.7 L206.6406,1207.456 L207.0313,1209.547 L207.4219,1203.275 L207.8125,1203.972 L208.2031,1201.882 L208.5938,1200.488 L208.9844,1196.307 L209.375,1194.913 L209.7656,1210.941 L210.1563,1197.7 L210.5469,1202.578 L210.9375,1202.578 L211.3281,1215.122 L211.7188,1210.244 L212.1094,1190.732 L212.5,1208.85 L212.8906,1190.732 L213.2813,1200.488 L213.6719,1183.763 L214.0625,1202.578 L214.4531,1207.456 L214.8438,1198.397 L215.2344,1194.216 L215.625,1207.456 L216.0156,1210.941 L216.4063,1195.61 L216.7969,1195.61 L217.1875,1210.244 L217.5781,1213.031 L217.9688,1212.334 L218.3594,1208.85 L218.75,1203.972 L219.1406,1210.244 L219.5313,1206.063 L219.9219,1192.822 L220.3125,1202.578 L220.7031,1203.275 L221.0938,1201.185 L221.4844,1211.638 L221.875,1210.941 L222.2656,1206.063 L222.6563,1209.547 L223.0469,1206.063 L223.4375,1213.728 L223.8281,1205.366 L224.2188,1210.941 L224.6094,1178.188 L225,1182.369 L225.3906,1210.941 L225.7813,1200.488 L226.1719,1184.46 L226.5625,1203.972 L226.9531,1196.307 L227.3438,1198.397 L227.7344,1206.76 L228.125,1200.488 L228.5156,1206.76 L228.9063,1200.488 L229.2969,1180.976 L229.6875,1177.491 L230.0781,1191.429 L230.4688,1212.334 L230.8594,1194.216 L231.25,1200.488 L231.6406,1201.185 L232.0313,1199.791 L232.4219,1187.944 L232.8125,1213.031 L233.2031,1213.031 L233.5938,1189.338 L233.9844,1210.941 L234.375,1204.669 L234.7656,1208.153 L235.1563,1199.791 L235.5469,1208.153 L235.9375,1194.913 L236.3281,1198.397 L236.7188,1209.547 L237.1094,1201.882 L237.5,1192.125 L237.8906,1206.76 L238.2813,1181.672 L238.6719,1190.035 L239.0625,1185.157 L239.4531,1201.185 L239.8438,1173.31 L240.2344,1196.307 L240.625,1190.732 L241.0156,1202.578 L241.4063,1197.004 L241.7969,1215.122 L242.1875,1197.7 L242.5781,1193.519 L242.9688,1199.094 L243.3594,1190.732 L243.75,1190.035 L244.1406,1170.523 L244.5313,1199.791 L244.9219,1162.16 L245.3125,1180.976 L245.7031,1193.519 L246.0938,1208.85 L246.4844,1189.338 L246.875,1206.76 L247.2656,1194.913 L247.6563,1192.822 L248.0469,1192.125 L248.4375,1193.519 L248.8281,1190.035 L249.2188,1205.366 L249.6094,1208.153 L250,1199.791 L250.3906,1191.429 L250.7813,1192.125 L251.1719,1206.063 L251.5625,1180.279 L251.9531,1184.46 L252.3438,1183.763 L252.7344,1184.46 L253.125,1205.366 L253.5156,1195.61 L253.9063,1202.578 L254.2969,1199.791 L254.6875,1155.192 L255.0781,1191.429 L255.4688,1199.094 L255.8594,1187.247 L256.25,1210.941 L256.6406,1184.46 L257.0313,1178.188 L257.4219,1194.216 L257.8125,1199.094 L258.2031,1182.369 L258.5938,1192.822 L258.9844,1199.791 L259.375,1192.125 L259.7656,1197.7 L260.1563,1194.216 L260.5469,1174.007 L260.9375,1193.519 L261.3281,1197.004 L261.7188,1177.491 L262.1094,1175.401 L262.5,1188.641 L262.8906,1188.641 L263.2813,1186.551 L263.6719,1168.432 L264.0625,1209.547 L264.4531,1193.519 L264.8438,1176.098 L265.2344,1182.369 L265.625,1203.275 L266.0156,1203.972 L266.4063,1204.669 L266.7969,1191.429 L267.1875,1195.61 L267.5781,1193.519 L267.9688,1198.397 L268.3594,1188.641 L268.75,1176.794 L269.1406,1208.153 L269.5313,1187.247 L269.9219,1209.547 L270.3125,1189.338 L270.7031,1194.216 L271.0938,1210.244 L271.4844,1146.132 L271.875,1186.551 L272.2656,1188.641 L272.6563,1188.641 L273.0469,1173.31 L273.4375,1194.216 L273.8281,1173.31 L274.2188,1180.976 L274.6094,1192.822 L275,1201.185 L275.3906,1179.582 L275.7813,1177.491 L276.1719,1180.976 L276.5625,1183.763 L276.9531,1107.108 L277.3438,1198.397 L277.7344,1181.672 L278.125,1171.219 L278.5156,1203.275 L278.9063,1113.38 L279.2969,1168.432 L279.6875,1200.488 L280.0781,1178.188 L280.4688,1194.913 L280.8594,1144.739 L281.25,1172.613 L281.6406,1165.645 L282.0313,1171.916 L282.4219,1172.613 L282.8125,1196.307 L283.2031,1183.066 L283.5938,1180.279 L283.9844,1167.038 L284.375,1188.641 L284.7656,1202.578 L285.1563,1192.125 L285.5469,1196.307 L285.9375,1209.547 L286.3281,1169.826 L286.7188,1185.157 L287.1094,1196.307 L287.5,1158.676 L287.8906,1152.404 L288.2813,1183.763 L288.6719,1184.46 L289.0625,1187.247 L289.4531,1185.854 L289.8438,1179.582 L290.2344,1179.582 L290.625,1173.31 L291.0156,1177.491 L291.4063,1183.066 L291.7969,1192.822 L292.1875,1157.282 L292.5781,1187.247 L292.9688,1189.338 L293.3594,1107.108 L293.75,1191.429 L294.1406,1166.341 L294.5313,1180.279 L294.9219,1197.004 L295.3125,1197.004 L295.7031,1201.185 L296.0938,1193.519 L296.4844,1197.004 L296.875,1185.854 L297.2656,1201.185 L297.6563,1210.941 L298.0469,1156.585 L298.4375,1189.338 L298.8281,1179.582 L299.2188,1209.547 L299.6094,1111.289 L300,1196.307 L300.3906,1152.404 L300.7813,1196.307 L301.1719,1190.035 L301.5625,1195.61 L301.9531,1180.976 L302.3438,1154.495 L302.7344,1196.307 L303.125,1161.463 L303.5156,1182.369 L303.9063,1179.582 L304.2969,1149.617 L304.6875,1180.976 L305.0781,1121.045 L305.4688,1125.226 L305.8594,1185.157 L306.25,1183.066 L306.6407,1172.613 L307.0313,1121.742 L307.4219,1191.429 L307.8125,1154.495 L308.2031,1180.976 L308.5938,1157.282 L308.9844,1172.613 L309.375,1167.038 L309.7656,1172.613 L310.1563,1176.794 L310.5469,1192.125 L310.9375,1200.488 L311.3281,1139.861 L311.7188,1156.585 L312.1094,1114.077 L312.5,1164.948 L312.8906,1043.693 L313.2813,1161.463 L313.6719,1185.854 L314.0625,1170.523 L314.4532,1162.857 L314.8438,1176.794 L315.2344,1177.491 L315.625,1192.822 L316.0156,1166.341 L316.4063,1186.551 L316.7969,1183.066 L317.1875,1150.314 L317.5781,1169.129 L317.9688,1156.585 L318.3594,1170.523 L318.75,1116.864 L319.1406,1170.523 L319.5313,1201.882 L319.9219,1177.491 L320.3125,1184.46 L320.7031,1200.488 L321.0938,1186.551 L321.4844,1183.763 L321.875,1197.7 L322.2657,1147.526 L322.6563,1199.791 L323.0469,1168.432 L323.4375,1137.77 L323.8281,1186.551 L324.2188,1148.92 L324.6094,1174.704 L325,1148.223 L325.3906,1183.066 L325.7813,1141.254 L326.1719,1151.01 L326.5625,1159.373 L326.9531,1166.341 L327.3438,1132.195 L327.7344,1150.314 L328.125,1155.889 L328.5156,1164.251 L328.9063,1020 L329.2969,1146.132 " stroke="blue" fill="none" />
<text x="50" y="1270" font-family="Arial" font-size="12" fill="black">Actor Loss</text>
<text x="50" y="1285" font-family="Arial" font-size="10" fill="black">0.88153</text>
<text x="50" y="1500" font-family="Arial" font-size="10" fill="black">0.7544093</text>
<path d="M50,1436.572 L75,1442.486 L100,1290 L125,1308.281 L150,1414.59 L175,1421.761 L200,1461.932 L225,1490 " stroke="blue" fill="none" />
<text x="50" y="1540" font-family="Arial" font-size="12" fill="black">Critic Loss</text>
<text x="50" y="1555" font-family="Arial" font-size="10" fill="black">0.02082022</text>
<text x="50" y="1770" font-family="Arial" font-size="10" fill="black">0.001655598</text>
<path d="M50,1560 L75,1681.788 L100,1735.464 L125,1756.789 L150,1760 L175,1757.389 L200,1754.48 L225,1751.738 " stroke="blue" fill="none" />
<text x="50" y="1810" font-family="Arial" font-size="12" fill="black">Entropy</text>
<text x="50" y="1825" font-family="Arial" font-size="10" fill="black">1.006289</text>
<text x="50" y="2040" font-family="Arial" font-size="10" fill="black">1</text>
<path d="M50,2030 L75,1831.248 L100,1830.004 L125,1830 L150,1830 L175,1830 L200,1830 L225,1830 " stroke="blue" fill="none" />
<text x="750" y="710" font-family="Arial" font-size="12" fill="black">Simplified</text>
<text x="750" y="725" font-family="Arial" font-size="10" fill="black">4.744238</text>
<text x="750" y="940" font-family="Arial" font-size="10" fill="black">2.471053</text>
<path d="M757.0313,930 L764.4531,928.032 L771.875,921.2017 L779.2969,919.4652 L786.7188,922.5909 L794.1406,920.0441 L801.5625,913.9084 L808.9844,910.7828 L816.4063,915.7607 L823.8281,916.3395 L831.25,915.4135 L838.6719,922.1279 L846.0938,921.8964 L853.5156,900.248 L860.9375,903.3737 L868.3594,910.2039 L875.7813,923.054 L883.2031,914.2557 L890.625,914.4873 L898.0469,915.645 L905.4688,912.7508 L912.8906,909.162 L920.3125,911.1301 L927.7344,908.4674 L935.1563,900.4795 L942.5781,891.1024 L950,879.873 L957.4219,872.9271 L964.8438,866.3284 L972.2656,878.2523 L979.6875,830.325 L987.1094,846.5323 L994.5313,821.5267 L1001.953,858.8035 L1009.375,791.6589 L1016.797,789.5751 L1024.219,811.2234 L1029.297,730 " stroke="blue" fill="none" />
<text x="750" y="980" font-family="Arial" font-size="12" fill="black">Simplified</text>
<text x="750" y="995" font-family="Arial" font-size="10" fill="black">189.7692</text>
<text x="750" y="1210" font-family="Arial" font-size="10" fill="black">98.78947</text>
<path d="M757.0313,1200 L764.4531,1197.917 L771.875,1191.091 L779.2969,1189.356 L786.7188,1192.479 L794.1406,1189.934 L801.5625,1183.802 L808.9844,1180.678 L816.4063,1185.653 L823.8281,1186.232 L831.25,1185.306 L838.6719,1192.017 L846.0938,1191.785 L853.5156,1170.15 L860.9375,1173.273 L868.3594,1180.1 L875.7813,1192.942 L883.2031,1184.149 L890.625,1184.381 L898.0469,1185.538 L905.4688,1182.645 L912.8906,1179.058 L920.3125,1181.025 L927.7344,1178.364 L935.1563,1170.381 L942.5781,1161.009 L950,1149.786 L957.4219,1142.844 L964.8438,1136.25 L972.2656,1148.167 L979.6875,1100.267 L987.1094,1116.465 L994.5313,1091.474 L1001.953,1128.729 L1009.375,1061.623 L1016.797,1059.541 L1024.219,1081.177 L1029.297,1000 " stroke="blue" fill="none" />
</svg>
