<svg width="2000" height="2500" xmlns="http://www.w3.org/2000/svg">
<text x="10" y="20" font-family="Arial" font-size="26" fill="black"> [<tspan font-weight="bold" fill="blue">BalanceBall</tspan>] Training Session</text>
<text x="10" y="50" font-family="Arial" font-size="16" fill="black">[Statistics]</text>
<text x="50" y="70" font-family="Arial" font-size="12" fill="black">Started at: 12:33:34 PM, Saturday, September 6, 2025</text>
<text x="50" y="90" font-family="Arial" font-size="12" fill="black">Finished at: 12:33:50 PM, Saturday, September 6, 2025</text>
<text x="50" y="110" font-family="Arial" font-size="12" fill="black">Training Session Time: 0 hrs : 0 min : 15.76 sec</text>
<text x="50" y="130" font-family="Arial" font-size="12" fill="black">Inference Time: 0 hrs : 4 min : 14 sec        [Device: CPU]</text>
<text x="50" y="150" font-family="Arial" font-size="12" fill="black">Update Time: 0 hrs : 0 min : 6.00 sec        [Per iteration: 0 hrs : 0 min : 0.90 sec]        [Device: GPU]</text>
<text x="50" y="170" font-family="Arial" font-size="12" fill="black">Episode Count: 18</text>
<text x="50" y="190" font-family="Arial" font-size="12" fill="black">Inference Steps: 12288</text>
<text x="50" y="210" font-family="Arial" font-size="12" fill="black">Iterations: 6</text>
<text x="50" y="230" font-family="Arial" font-size="12" fill="black">Parallel Agents: 1</text>
<text x="50" y="250" font-family="Arial" font-size="12" fill="black">Timescale: 23.93</text>
<text x="50" y="270" font-family="Arial" font-size="12" fill="black">Trainer: PPO</text>
<text x="10" y="320" font-family="Arial" font-size="16" fill="black">[Hyperparameters]</text>
<text x="50" y="340" font-family="Arial" font-size="12" fill="black">Buffer Size: 2048        [Batch Size: 128       (x16)]</text>
<text x="50" y="360" font-family="Arial" font-size="12" fill="black">Num Epoch: 8</text>
<text x="50" y="380" font-family="Arial" font-size="12" fill="black">Time Horizon: -1</text>
<text x="50" y="400" font-family="Arial" font-size="12" fill="black">Gradient Cliping by Norm: 0.5</text>
<text x="50" y="420" font-family="Arial" font-size="12" fill="black">Learning Rate Schedule: False    </text>
<text x="10" y="470" font-family="Arial" font-size="16" fill="black">[Behaviour]</text>
<text x="50" y="490" font-family="Arial" font-size="12" fill="black">Space Size: 10</text>
<text x="50" y="510" font-family="Arial" font-size="12" fill="black">Continuous Actions: 2 [Standard Deviation: FixedStandardDeviation]     [Value: 2]</text>
<text x="50" y="530" font-family="Arial" font-size="12" fill="black">Discrete Actions: 0</text>
<text x="50" y="550" font-family="Arial" font-size="12" fill="black">TargetFPS: 50 (physics update rate)</text>
<text x="50" y="570" font-family="Arial" font-size="12" fill="black">Observations Normalization: False</text>
<text x="10" y="620" font-family="Arial" font-size="16" fill="black">[Decision Requester]</text>
<text x="50" y="640" font-family="Arial" font-size="12" fill="black">Max Step: 10000</text>
<text x="50" y="660" font-family="Arial" font-size="12" fill="black">Decision Period: 1</text>
<text x="10" y="710" font-family="Arial" font-size="16" fill="black">[Graphs]</text>
<text x="50" y="730" font-family="Arial" font-size="12" fill="black">Episode Reward (18)</text>
<text x="50" y="745" font-family="Arial" font-size="10" fill="black">53.82598</text>
<text x="50" y="960" font-family="Arial" font-size="10" fill="black">2.149999</text>
<path d="M50,950 L75,854.0184 L100,920.0054 L125,932.2935 L150,899.6868 L175,824.604 L200,901.9122 L225,750 L250,861.275 L275,922.9081 L300,934.8091 L325,884.4963 L350,895.5264 L375,918.6509 L400,902.8798 L425,917.006 L450,896.7842 L475,859.1464 " stroke="blue" fill="none" />
<text x="50" y="1000" font-family="Arial" font-size="12" fill="black">Episode Length (18)</text>
<text x="50" y="1015" font-family="Arial" font-size="10" fill="black">2153</text>
<text x="50" y="1230" font-family="Arial" font-size="10" fill="black">85</text>
<path d="M50,1220 L75,1123.965 L100,1189.923 L125,1202.205 L150,1169.613 L175,1094.565 L200,1171.838 L225,1020 L250,1131.219 L275,1192.824 L300,1204.719 L325,1154.429 L350,1165.455 L375,1188.569 L400,1172.805 L425,1186.925 L450,1166.712 L475,1129.091 " stroke="blue" fill="none" />
<text x="50" y="1270" font-family="Arial" font-size="12" fill="black">Actor Loss</text>
<text x="50" y="1285" font-family="Arial" font-size="10" fill="black">0.7318582</text>
<text x="50" y="1500" font-family="Arial" font-size="10" fill="black">0.5169972</text>
<path d="M50,1351.053 L75,1290 L100,1346.775 L125,1490 L150,1401.44 L175,1360.837 " stroke="blue" fill="none" />
<text x="50" y="1540" font-family="Arial" font-size="12" fill="black">Critic Loss</text>
<text x="50" y="1555" font-family="Arial" font-size="10" fill="black">0.006659067</text>
<text x="50" y="1770" font-family="Arial" font-size="10" fill="black">0.002015977</text>
<path d="M50,1560 L75,1684.974 L100,1760 L125,1607.284 L150,1701.35 L175,1695.621 " stroke="blue" fill="none" />
<text x="50" y="1810" font-family="Arial" font-size="12" fill="black">Entropy</text>
<text x="50" y="1825" font-family="Arial" font-size="10" fill="black">2.015748</text>
<text x="50" y="2040" font-family="Arial" font-size="10" fill="black">2</text>
<path d="M50,2030 L75,1831.563 L100,1830.012 L125,1830 L150,1830 L175,1830 " stroke="blue" fill="none" />
<text x="750" y="710" font-family="Arial" font-size="12" fill="black">Simplified</text>
<text x="750" y="725" font-family="Arial" font-size="10" fill="black">17.56664</text>
<text x="750" y="940" font-family="Arial" font-size="10" fill="black">17.56664</text>
<path d="M1175,930 " stroke="blue" fill="none" />
<text x="750" y="980" font-family="Arial" font-size="12" fill="black">Simplified</text>
<text x="750" y="995" font-family="Arial" font-size="10" fill="black">702.6111</text>
<text x="750" y="1210" font-family="Arial" font-size="10" fill="black">702.6111</text>
<path d="M1175,1200 " stroke="blue" fill="none" />
</svg>
