<svg width="2000" height="2500" xmlns="http://www.w3.org/2000/svg">
<text x="10" y="20" font-family="Arial" font-size="26" fill="black"> [<tspan font-weight="bold" fill="blue">MarioScript</tspan>] Training Session</text>
<text x="10" y="50" font-family="Arial" font-size="16" fill="black">[Statistics]</text>
<text x="50" y="70" font-family="Arial" font-size="12" fill="black">Started at: 11:24:24 AM, Tuesday, April 2, 2024</text>
<text x="50" y="90" font-family="Arial" font-size="12" fill="black">Finished at: 11:25:15 AM, Tuesday, April 2, 2024</text>
<text x="50" y="110" font-family="Arial" font-size="12" fill="black">Training Session Time: 0 hrs : 0 min : 49 sec</text>
<text x="50" y="130" font-family="Arial" font-size="12" fill="black">Inference Time: 0 hrs : 7 min : 17 sec        [Device: CPU]</text>
<text x="50" y="150" font-family="Arial" font-size="12" fill="black">Update Time: 0 hrs : 0 min : 24 sec        [Per iteration: 0 hrs : 0 min : 11.893 sec]        [Device: GPU]</text>
<text x="50" y="170" font-family="Arial" font-size="12" fill="black">Episode Count: 18</text>
<text x="50" y="190" font-family="Arial" font-size="12" fill="black">Inference Steps: 20480</text>
<text x="50" y="210" font-family="Arial" font-size="12" fill="black">Iterations: 2</text>
<text x="50" y="230" font-family="Arial" font-size="12" fill="black">Parallel Agents: 1</text>
<text x="50" y="250" font-family="Arial" font-size="12" fill="black">Timescale: 16.6</text>
<text x="50" y="270" font-family="Arial" font-size="12" fill="black">Trainer: PPO</text>
<text x="10" y="320" font-family="Arial" font-size="16" fill="black">[Hyperparameters]</text>
<text x="50" y="340" font-family="Arial" font-size="12" fill="black">Buffer Size: 10240        [Batch Size: 512       (x20)]</text>
<text x="50" y="360" font-family="Arial" font-size="12" fill="black">Num Epoch: 8</text>
<text x="50" y="380" font-family="Arial" font-size="12" fill="black">Time Horizon: 512</text>
<text x="50" y="400" font-family="Arial" font-size="12" fill="black">Gradient Cliping by Norm: 0.5</text>
<text x="50" y="420" font-family="Arial" font-size="12" fill="black">Learning Rate Schedule: False    </text>
<text x="10" y="470" font-family="Arial" font-size="16" fill="black">[Behaviour]</text>
<text x="50" y="490" font-family="Arial" font-size="12" fill="black">Space Size: 204</text>
<text x="50" y="510" font-family="Arial" font-size="12" fill="black">Continuous Actions: 0 [Standard Deviation: Trainable]     </text>
<text x="50" y="530" font-family="Arial" font-size="12" fill="black">Discrete Actions: 5</text>
<text x="50" y="550" font-family="Arial" font-size="12" fill="black">TargetFPS: 50 (physics update rate)</text>
<text x="50" y="570" font-family="Arial" font-size="12" fill="black">Observations Normalization: False</text>
<text x="10" y="620" font-family="Arial" font-size="16" fill="black">[Decision Requester]</text>
<text x="50" y="640" font-family="Arial" font-size="12" fill="black">Max Step: 6000</text>
<text x="50" y="660" font-family="Arial" font-size="12" fill="black">Decision Period: 1</text>
<text x="10" y="710" font-family="Arial" font-size="16" fill="black">[Graphs]</text>
<text x="50" y="730" font-family="Arial" font-size="12" fill="black">Episode Reward (18)</text>
<text x="50" y="745" font-family="Arial" font-size="10" fill="black">9</text>
<text x="50" y="960" font-family="Arial" font-size="10" fill="black">6.5</text>
<path d="M50,750 L75,950 L100,790 L125,790 L150,750 L175,790 L200,750 L225,750 L250,870 L275,750 L300,750 L325,750 L350,750 L375,750 L400,830 L425,790 L450,790 L475,750 " stroke="blue" fill="none" />
<text x="50" y="1000" font-family="Arial" font-size="12" fill="black">Episode Length (18)</text>
<text x="50" y="1015" font-family="Arial" font-size="10" fill="black">2209</text>
<text x="50" y="1230" font-family="Arial" font-size="10" fill="black">492</text>
<path d="M50,1023.378 L75,1219.884 L100,1172.708 L125,1186.803 L150,1020 L175,1126.698 L200,1110.856 L225,1171.078 L250,1172.009 L275,1150.227 L300,1065.545 L325,1172.825 L350,1100.373 L375,1178.882 L400,1220 L425,1115.282 L450,1151.392 L475,1136.249 " stroke="blue" fill="none" />
<text x="50" y="1270" font-family="Arial" font-size="12" fill="black">Policy Loss</text>
<text x="50" y="1285" font-family="Arial" font-size="10" fill="black">0.1687789</text>
<text x="50" y="1500" font-family="Arial" font-size="10" fill="black">0.1515157</text>
<path d="M50,1290 L75,1490 " stroke="blue" fill="none" />
<text x="50" y="1540" font-family="Arial" font-size="12" fill="black">Value Loss</text>
<text x="50" y="1555" font-family="Arial" font-size="10" fill="black">0.04109567</text>
<text x="50" y="1770" font-family="Arial" font-size="10" fill="black">0.03791396</text>
<path d="M50,1560.001 L75,1760 " stroke="blue" fill="none" />
<text x="50" y="1810" font-family="Arial" font-size="12" fill="black">Learning Rate</text>
<text x="50" y="1825" font-family="Arial" font-size="10" fill="black">0.0003</text>
<text x="50" y="2040" font-family="Arial" font-size="10" fill="black">0.0003</text>
<path d="M50,2030 L75,2030 " stroke="blue" fill="none" />
<text x="50" y="2080" font-family="Arial" font-size="12" fill="black">Entropy</text>
<text x="50" y="2095" font-family="Arial" font-size="10" fill="black">0.233765</text>
<text x="50" y="2310" font-family="Arial" font-size="10" fill="black">0.2309723</text>
<path d="M50,2300 L75,2100.001 " stroke="blue" fill="none" />
<text x="750" y="730" font-family="Arial" font-size="12" fill="black">Simplified</text>
<text x="750" y="745" font-family="Arial" font-size="10" fill="black">8.583333</text>
<text x="750" y="960" font-family="Arial" font-size="10" fill="black">8.583333</text>
<path d="M1175,950 " stroke="blue" fill="none" />
<text x="750" y="1000" font-family="Arial" font-size="12" fill="black">Simplified</text>
<text x="750" y="1015" font-family="Arial" font-size="10" fill="black">1191.111</text>
<text x="750" y="1230" font-family="Arial" font-size="10" fill="black">1191.111</text>
<path d="M1175,1220 " stroke="blue" fill="none" />
</svg>
