<svg width="2000" height="2500" xmlns="http://www.w3.org/2000/svg">
<text x="10" y="20" font-family="Arial" font-size="26" fill="black"> [MarioScript] Training Session</text>
<text x="10" y="50" font-family="Arial" font-size="16" fill="black">[Statistics]</text>
<text x="50" y="70" font-family="Arial" font-size="12" fill="black">Started at: 11:12:26 PM, Wednesday, March 6, 2024</text>
<text x="50" y="90" font-family="Arial" font-size="12" fill="black">Finished at: 11:25:25 PM, Wednesday, March 6, 2024</text>
<text x="50" y="110" font-family="Arial" font-size="12" fill="black">Training Session Time: 0 hrs : 12 min : 57 sec</text>
<text x="50" y="130" font-family="Arial" font-size="12" fill="black">Inference Time: 2 hrs : 7 min : 7 sec        [Device: CPU]</text>
<text x="50" y="150" font-family="Arial" font-size="12" fill="black">Update Time: 0 hrs : 6 min : 26 sec        [Per iteration: 0 hrs : 0 min : 10.470 sec]        [Device: GPU]</text>
<text x="50" y="170" font-family="Arial" font-size="12" fill="black">Episode Count: 361</text>
<text x="50" y="190" font-family="Arial" font-size="12" fill="black">Inference Steps: 378880</text>
<text x="50" y="210" font-family="Arial" font-size="12" fill="black">Iterations: 37</text>
<text x="50" y="230" font-family="Arial" font-size="12" fill="black">Parallel Agents: 1</text>
<text x="50" y="250" font-family="Arial" font-size="12" fill="black">Timescale: 20</text>
<text x="50" y="270" font-family="Arial" font-size="12" fill="black">Trainer: PPO</text>
<text x="10" y="320" font-family="Arial" font-size="16" fill="black">[Hyperparameters]</text>
<text x="50" y="340" font-family="Arial" font-size="12" fill="black">Buffer Size: 10240        [Batch Size: 512       (x20)]</text>
<text x="50" y="360" font-family="Arial" font-size="12" fill="black">Num Epoch: 8</text>
<text x="50" y="380" font-family="Arial" font-size="12" fill="black">Time Horizon: 512</text>
<text x="50" y="400" font-family="Arial" font-size="12" fill="black">Gradient Cliping by Norm: 0.5</text>
<text x="50" y="420" font-family="Arial" font-size="12" fill="black">Learning Rate Schedule: False    </text>
<text x="10" y="470" font-family="Arial" font-size="16" fill="black">[Behaviour]</text>
<text x="50" y="490" font-family="Arial" font-size="12" fill="black">Space Size: 204</text>
<text x="50" y="510" font-family="Arial" font-size="12" fill="black">Continuous Actions: 0 [Standard Deviation: Trainable]     </text>
<text x="50" y="530" font-family="Arial" font-size="12" fill="black">Discrete Actions: 5</text>
<text x="50" y="550" font-family="Arial" font-size="12" fill="black">TargetFPS: 50 (physics update rate)</text>
<text x="50" y="570" font-family="Arial" font-size="12" fill="black">Observations Normalization: False</text>
<text x="10" y="620" font-family="Arial" font-size="16" fill="black">[Decision Requester]</text>
<text x="50" y="640" font-family="Arial" font-size="12" fill="black">Max Step: 6000</text>
<text x="50" y="660" font-family="Arial" font-size="12" fill="black">Decision Period: 1</text>
<text x="10" y="710" font-family="Arial" font-size="16" fill="black">[Graphs]</text>
<text x="50" y="730" font-family="Arial" font-size="12" fill="black">Episode Reward (361)</text>
<text x="50" y="745" font-family="Arial" font-size="10" fill="black">9</text>
<text x="50" y="960" font-family="Arial" font-size="10" fill="black">2.5</text>
<path d="M50,765.3846 L50.78125,811.5385 L51.5625,796.1539 L52.34375,750 L53.125,765.3846 L53.90625,780.7692 L54.6875,811.5385 L55.46875,750 L56.25,780.7692 L57.03125,780.7692 L57.8125,780.7692 L58.59375,780.7692 L59.375,780.7692 L60.15625,765.3846 L60.9375,765.3846 L61.71875,765.3846 L62.5,796.1539 L63.28125,780.7692 L64.0625,796.1539 L64.84375,780.7692 L65.625,780.7692 L66.40625,811.5385 L67.1875,796.1539 L67.96875,796.1539 L68.75,796.1539 L69.53125,780.7692 L70.3125,796.1539 L71.09375,765.3846 L71.875,765.3846 L72.65625,780.7692 L73.4375,750 L74.21875,750 L75,796.1539 L75.78125,811.5385 L76.5625,796.1539 L77.34375,796.1539 L78.125,780.7692 L78.90625,796.1539 L79.6875,796.1539 L80.46875,796.1539 L81.25,765.3846 L82.03125,750 L82.8125,780.7692 L83.59375,750 L84.375,780.7692 L85.15625,796.1539 L85.9375,811.5385 L86.71875,796.1539 L87.5,796.1539 L88.28125,765.3846 L89.0625,765.3846 L89.84375,750 L90.625,765.3846 L91.40625,796.1539 L92.1875,780.7692 L92.96875,780.7692 L93.75,750 L94.53125,919.2308 L95.3125,796.1539 L96.09375,796.1539 L96.875,780.7692 L97.65625,750 L98.4375,796.1539 L99.21875,796.1539 L100,765.3846 L100.7813,796.1539 L101.5625,811.5385 L102.3438,780.7692 L103.125,796.1539 L103.9063,765.3846 L104.6875,780.7692 L105.4688,796.1539 L106.25,750 L107.0313,765.3846 L107.8125,765.3846 L108.5938,765.3846 L109.375,780.7692 L110.1563,765.3846 L110.9375,780.7692 L111.7188,765.3846 L112.5,780.7692 L113.2813,765.3846 L114.0625,811.5385 L114.8438,796.1539 L115.625,780.7692 L116.4063,796.1539 L117.1875,765.3846 L117.9688,934.6154 L118.75,934.6154 L119.5313,796.1539 L120.3125,765.3846 L121.0938,780.7692 L121.875,950 L122.6563,780.7692 L123.4375,765.3846 L124.2188,903.8461 L125,780.7692 L125.7813,780.7692 L126.5625,780.7692 L127.3438,934.6154 L128.125,780.7692 L128.9063,765.3846 L129.6875,750 L130.4688,780.7692 L131.25,765.3846 L132.0313,780.7692 L132.8125,780.7692 L133.5938,796.1539 L134.375,903.8461 L135.1563,780.7692 L135.9375,796.1539 L136.7188,765.3846 L137.5,765.3846 L138.2813,765.3846 L139.0625,796.1539 L139.8438,780.7692 L140.625,750 L141.4063,780.7692 L142.1875,796.1539 L142.9688,780.7692 L143.75,765.3846 L144.5313,750 L145.3125,796.1539 L146.0938,919.2308 L146.875,811.5385 L147.6563,919.2308 L148.4375,826.9231 L149.2188,765.3846 L150,903.8461 L150.7813,765.3846 L151.5625,934.6154 L152.3438,780.7692 L153.125,765.3846 L153.9063,780.7692 L154.6875,780.7692 L155.4688,780.7692 L156.25,750 L157.0313,765.3846 L157.8125,765.3846 L158.5938,765.3846 L159.375,796.1539 L160.1563,796.1539 L160.9375,765.3846 L161.7188,780.7692 L162.5,796.1539 L163.2813,750 L164.0625,780.7692 L164.8438,780.7692 L165.625,780.7692 L166.4063,750 L167.1875,780.7692 L167.9688,750 L168.75,796.1539 L169.5313,780.7692 L170.3125,765.3846 L171.0938,750 L171.875,780.7692 L172.6563,765.3846 L173.4375,796.1539 L174.2188,796.1539 L175,765.3846 L175.7813,780.7692 L176.5625,903.8461 L177.3438,765.3846 L178.125,750 L178.9063,780.7692 L179.6875,750 L180.4688,780.7692 L181.25,765.3846 L182.0313,780.7692 L182.8125,765.3846 L183.5938,780.7692 L184.375,780.7692 L185.1563,765.3846 L185.9375,765.3846 L186.7188,765.3846 L187.5,780.7692 L188.2813,765.3846 L189.0625,765.3846 L189.8438,796.1539 L190.625,780.7692 L191.4063,765.3846 L192.1875,796.1539 L192.9688,765.3846 L193.75,780.7692 L194.5313,780.7692 L195.3125,765.3846 L196.0938,796.1539 L196.875,765.3846 L197.6563,811.5385 L198.4375,796.1539 L199.2188,780.7692 L200,765.3846 L200.7813,765.3846 L201.5625,750 L202.3438,765.3846 L203.125,765.3846 L203.9063,780.7692 L204.6875,780.7692 L205.4688,765.3846 L206.25,765.3846 L207.0313,780.7692 L207.8125,780.7692 L208.5938,750 L209.375,826.9231 L210.1563,903.8461 L210.9375,796.1539 L211.7188,780.7692 L212.5,934.6154 L213.2813,796.1539 L214.0625,796.1539 L214.8438,750 L215.625,780.7692 L216.4063,780.7692 L217.1875,796.1539 L217.9688,780.7692 L218.75,750 L219.5313,811.5385 L220.3125,796.1539 L221.0938,796.1539 L221.875,903.8461 L222.6563,765.3846 L223.4375,796.1539 L224.2188,811.5385 L225,780.7692 L225.7813,765.3846 L226.5625,826.9231 L227.3438,796.1539 L228.125,750 L228.9063,811.5385 L229.6875,811.5385 L230.4688,796.1539 L231.25,765.3846 L232.0313,765.3846 L232.8125,796.1539 L233.5938,796.1539 L234.375,796.1539 L235.1563,796.1539 L235.9375,765.3846 L236.7188,796.1539 L237.5,826.9231 L238.2813,796.1539 L239.0625,919.2308 L239.8438,780.7692 L240.625,780.7692 L241.4063,903.8461 L242.1875,780.7692 L242.9688,796.1539 L243.75,811.5385 L244.5313,796.1539 L245.3125,919.2308 L246.0938,796.1539 L246.875,796.1539 L247.6563,826.9231 L248.4375,750 L249.2188,811.5385 L250,780.7692 L250.7813,811.5385 L251.5625,765.3846 L252.3438,780.7692 L253.125,796.1539 L253.9063,796.1539 L254.6875,780.7692 L255.4688,780.7692 L256.25,750 L257.0313,780.7692 L257.8125,780.7692 L258.5938,780.7692 L259.375,780.7692 L260.1563,796.1539 L260.9375,780.7692 L261.7188,796.1539 L262.5,780.7692 L263.2813,780.7692 L264.0625,780.7692 L264.8438,750 L265.625,796.1539 L266.4063,796.1539 L267.1875,780.7692 L267.9688,811.5385 L268.75,780.7692 L269.5313,903.8461 L270.3125,780.7692 L271.0938,765.3846 L271.875,796.1539 L272.6563,780.7692 L273.4375,780.7692 L274.2188,796.1539 L275,780.7692 L275.7813,780.7692 L276.5625,765.3846 L277.3438,765.3846 L278.125,811.5385 L278.9063,780.7692 L279.6875,780.7692 L280.4688,780.7692 L281.25,765.3846 L282.0313,780.7692 L282.8125,780.7692 L283.5938,765.3846 L284.375,765.3846 L285.1563,780.7692 L285.9375,765.3846 L286.7188,765.3846 L287.5,750 L288.2813,780.7692 L289.0625,765.3846 L289.8438,780.7692 L290.625,796.1539 L291.4063,780.7692 L292.1875,780.7692 L292.9688,765.3846 L293.75,780.7692 L294.5313,780.7692 L295.3125,796.1539 L296.0938,765.3846 L296.875,780.7692 L297.6563,780.7692 L298.4375,796.1539 L299.2188,796.1539 L300,765.3846 L300.7813,780.7692 L301.5625,765.3846 L302.3438,796.1539 L303.125,780.7692 L303.9063,780.7692 L304.6875,765.3846 L305.4688,750 L306.25,796.1539 L307.0313,780.7692 L307.8125,796.1539 L308.5938,796.1539 L309.375,796.1539 L310.1563,780.7692 L310.9375,765.3846 L311.7188,750 L312.5,780.7692 L313.2813,765.3846 L314.0625,811.5385 L314.8438,780.7692 L315.625,765.3846 L316.4063,780.7692 L317.1875,750 L317.9688,780.7692 L318.75,796.1539 L319.5313,780.7692 L320.3125,780.7692 L321.0938,750 L321.875,780.7692 L322.6563,796.1539 L323.4375,780.7692 L324.2188,796.1539 L325,750 L325.7813,750 L326.5625,780.7692 L327.3438,765.3846 L328.125,811.5385 L328.9063,796.1539 L329.6875,780.7692 L330.4688,796.1539 L331.25,780.7692 " stroke="blue" fill="none" />
<text x="50" y="1000" font-family="Arial" font-size="12" fill="black">Episode Length (361)</text>
<text x="50" y="1015" font-family="Arial" font-size="10" fill="black">3354</text>
<text x="50" y="1230" font-family="Arial" font-size="10" fill="black">353</text>
<path d="M50,1110.303 L50.78125,1189.01 L51.5625,1177.547 L52.34375,1149.29 L53.125,1187.278 L53.90625,1181.28 L54.6875,1215.002 L55.46875,1181.679 L56.25,1175.748 L57.03125,1189.41 L57.8125,1171.35 L58.59375,1179.48 L59.375,1203.139 L60.15625,1187.877 L60.9375,1174.282 L61.71875,1190.343 L62.5,1208.337 L63.28125,1197.407 L64.0625,1177.081 L64.84375,1161.62 L65.625,1185.611 L66.40625,1199.54 L67.1875,1183.412 L67.96875,1175.282 L68.75,1172.349 L69.53125,1186.078 L70.3125,1188.544 L71.09375,1176.081 L71.875,1171.016 L72.65625,1208.271 L73.4375,1151.49 L74.21875,1197.607 L75,1198.074 L75.78125,1143.759 L76.5625,1180.88 L77.34375,1188.61 L78.125,1200.74 L78.90625,1153.289 L79.6875,1191.943 L80.46875,1171.083 L81.25,1135.961 L82.03125,1156.821 L82.8125,1195.941 L83.59375,1050.057 L84.375,1199.673 L85.15625,1193.276 L85.9375,1185.545 L86.71875,1196.408 L87.5,1198.341 L88.28125,1198.407 L89.0625,1072.716 L89.84375,1112.369 L90.625,1202.139 L91.40625,1201.939 L92.1875,1176.681 L92.96875,1082.779 L93.75,1169.617 L94.53125,1212.802 L95.3125,1186.078 L96.09375,1188.477 L96.875,1138.027 L97.65625,1155.222 L98.4375,1198.74 L99.21875,1195.342 L100,1145.558 L100.7813,1147.024 L101.5625,1206.005 L102.3438,1190.01 L103.125,1193.942 L103.9063,1154.622 L104.6875,1169.284 L105.4688,1064.252 L106.25,1091.443 L107.0313,1153.222 L107.8125,1185.012 L108.5938,1181.746 L109.375,1177.614 L110.1563,1166.551 L110.9375,1177.947 L111.7188,1145.625 L112.5,1182.479 L113.2813,1201.406 L114.0625,1182.946 L114.8438,1197.607 L115.625,1187.744 L116.4063,1188.677 L117.1875,1154.489 L117.9688,1218.401 L118.75,1213.002 L119.5313,1179.747 L120.3125,1128.897 L121.0938,1201.006 L121.875,1214.002 L122.6563,1192.143 L123.4375,1167.417 L124.2188,1213.269 L125,1195.542 L125.7813,1162.886 L126.5625,1189.144 L127.3438,1217.201 L128.125,1192.276 L128.9063,1164.085 L129.6875,1176.615 L130.4688,1167.951 L131.25,1145.358 L132.0313,1126.365 L132.8125,1168.084 L133.5938,1114.302 L134.375,1208.604 L135.1563,1166.618 L135.9375,1194.075 L136.7188,1187.211 L137.5,1156.354 L138.2813,1124.165 L139.0625,1194.609 L139.8438,1202.206 L140.625,1184.812 L141.4063,1185.478 L142.1875,1170.017 L142.9688,1213.935 L143.75,1141.693 L144.5313,1123.166 L145.3125,1190.943 L146.0938,1220 L146.875,1182.279 L147.6563,1218.334 L148.4375,1200.073 L149.2188,1120.433 L150,1212.403 L150.7813,1158.354 L151.5625,1214.602 L152.3438,1170.083 L153.125,1158.687 L153.9063,1196.408 L154.6875,1122.299 L155.4688,1177.881 L156.25,1192.209 L157.0313,1188.477 L157.8125,1134.962 L158.5938,1185.745 L159.375,1185.945 L160.1563,1134.962 L160.9375,1168.417 L161.7188,1156.554 L162.5,1169.15 L163.2813,1183.879 L164.0625,1173.216 L164.8438,1174.748 L165.625,1186.744 L166.4063,1179.747 L167.1875,1176.881 L167.9688,1183.812 L168.75,1163.485 L169.5313,1104.905 L170.3125,1186.278 L171.0938,1190.943 L171.875,1164.618 L172.6563,1186.678 L173.4375,1193.742 L174.2188,1127.098 L175,1165.352 L175.7813,1197.874 L176.5625,1213.669 L177.3438,1192.876 L178.125,1208.937 L178.9063,1166.884 L179.6875,1122.899 L180.4688,1198.74 L181.25,1156.155 L182.0313,1065.185 L182.8125,1151.689 L183.5938,1167.018 L184.375,1156.221 L185.1563,1181.813 L185.9375,1145.025 L186.7188,1195.075 L187.5,1198.94 L188.2813,1140.893 L189.0625,1196.941 L189.8438,1160.686 L190.625,1179.68 L191.4063,1176.481 L192.1875,1088.177 L192.9688,1182.879 L193.75,1203.605 L194.5313,1208.67 L195.3125,1025.598 L196.0938,1195.142 L196.875,1208.804 L197.6563,1215.735 L198.4375,1201.073 L199.2188,1161.086 L200,1053.922 L200.7813,1130.63 L201.5625,1123.232 L202.3438,1202.806 L203.125,1206.071 L203.9063,1164.685 L204.6875,1090.51 L205.4688,1161.819 L206.25,1179.813 L207.0313,1180.147 L207.8125,1086.245 L208.5938,1151.29 L209.375,1194.875 L210.1563,1219.733 L210.9375,1190.143 L211.7188,1185.545 L212.5,1219.134 L213.2813,1199.873 L214.0625,1183.279 L214.8438,1172.816 L215.625,1030.13 L216.4063,1178.281 L217.1875,1160.686 L217.9688,1191.01 L218.75,1138.227 L219.5313,1177.148 L220.3125,1190.743 L221.0938,1184.145 L221.875,1216.335 L222.6563,1087.111 L223.4375,1192.276 L224.2188,1188.277 L225,1169.55 L225.7813,1020 L226.5625,1193.609 L227.3438,1211.603 L228.125,1085.445 L228.9063,1196.608 L229.6875,1210.67 L230.4688,1170.683 L231.25,1179.547 L232.0313,1112.769 L232.8125,1185.078 L233.5938,1177.481 L234.375,1183.945 L235.1563,1209.67 L235.9375,1076.714 L236.7188,1205.005 L237.5,1201.14 L238.2813,1208.537 L239.0625,1217.468 L239.8438,1162.552 L240.625,1187.278 L241.4063,1219.6 L242.1875,1174.215 L242.9688,1165.951 L243.75,1128.697 L244.5313,1176.881 L245.3125,1210.803 L246.0938,1198.007 L246.875,1184.412 L247.6563,1140.96 L248.4375,1170.283 L249.2188,1190.343 L250,1179.88 L250.7813,1159.087 L251.5625,1131.63 L252.3438,1125.232 L253.125,1194.209 L253.9063,1196.008 L254.6875,1182.013 L255.4688,1137.094 L256.25,1136.428 L257.0313,1183.546 L257.8125,1206.138 L258.5938,1188.744 L259.375,1193.809 L260.1563,1180.946 L260.9375,1185.745 L261.7188,1198.141 L262.5,1198.207 L263.2813,1178.347 L264.0625,1189.477 L264.8438,1146.824 L265.625,1172.682 L266.4063,1174.482 L267.1875,1177.414 L267.9688,1178.747 L268.75,1193.675 L269.5313,1217.468 L270.3125,1209.604 L271.0938,1173.615 L271.875,1197.474 L272.6563,1179.813 L273.4375,1166.618 L274.2188,1170.55 L275,1196.075 L275.7813,1157.687 L276.5625,1125.098 L277.3438,1094.509 L278.125,1195.475 L278.9063,1181.346 L279.6875,1182.346 L280.4688,1177.947 L281.25,1138.76 L282.0313,1158.62 L282.8125,1202.473 L283.5938,1179.48 L284.375,1134.628 L285.1563,1201.006 L285.9375,1187.078 L286.7188,1179.613 L287.5,1198.141 L288.2813,1205.805 L289.0625,1194.542 L289.8438,1206.471 L290.625,1199.94 L291.4063,1192.609 L292.1875,1188.944 L292.9688,1177.214 L293.75,1173.815 L294.5313,1170.083 L295.3125,1189.677 L296.0938,1206.471 L296.875,1169.617 L297.6563,1120.367 L298.4375,1201.806 L299.2188,1186.145 L300,1034.195 L300.7813,1200.806 L301.5625,1196.808 L302.3438,1200.94 L303.125,1199.673 L303.9063,1180.213 L304.6875,1175.282 L305.4688,1168.551 L306.25,1209.337 L307.0313,1177.881 L307.8125,1192.009 L308.5938,1156.155 L309.375,1198.407 L310.1563,1156.954 L310.9375,1153.622 L311.7188,1163.086 L312.5,1146.491 L313.2813,1163.819 L314.0625,1191.143 L314.8438,1200.073 L315.625,1133.762 L316.4063,1171.083 L317.1875,1099.973 L317.9688,1190.543 L318.75,1186.611 L319.5313,1190.277 L320.3125,1194.808 L321.0938,1159.087 L321.875,1187.211 L322.6563,1215.002 L323.4375,1162.819 L324.2188,1189.144 L325,1188.011 L325.7813,1169.417 L326.5625,1190.676 L327.3438,1134.962 L328.125,1204.272 L328.9063,1164.685 L329.6875,1179.547 L330.4688,1191.609 L331.25,1207.404 " stroke="blue" fill="none" />
<text x="50" y="1270" font-family="Arial" font-size="12" fill="black">Policy Loss</text>
<text x="50" y="1285" font-family="Arial" font-size="10" fill="black">0.138507</text>
<text x="50" y="1500" font-family="Arial" font-size="10" fill="black">0.07730331</text>
<path d="M50,1383.443 L62.5,1290 L75,1341.39 L87.5,1402.137 L100,1424.926 L112.5,1371.115 L125,1422.022 L137.5,1438.355 L150,1351.092 L162.5,1357.074 L175,1457.708 L187.5,1405.056 L200,1398.088 L212.5,1428.425 L225,1490 L237.5,1465.98 L250,1447.612 L262.5,1454.717 L275,1434.929 L287.5,1472.218 L300,1469.502 L312.5,1304.896 L325,1421.543 L337.5,1417.239 L350,1429.099 L362.5,1333.231 L375,1364.974 L387.5,1421.754 L400,1401.304 L412.5,1391.962 L425,1303.324 L437.5,1338.037 L450,1400.285 L462.5,1366.749 L475,1348.104 L487.5,1390.751 L500,1392.614 " stroke="blue" fill="none" />
<text x="50" y="1540" font-family="Arial" font-size="12" fill="black">Value Loss</text>
<text x="50" y="1555" font-family="Arial" font-size="10" fill="black">0.02647012</text>
<text x="50" y="1770" font-family="Arial" font-size="10" fill="black">0.01320903</text>
<path d="M50,1628.528 L62.5,1560 L75,1598.278 L87.5,1670.288 L100,1690.287 L112.5,1622.704 L125,1703.554 L137.5,1722.367 L150,1603.26 L162.5,1600.109 L175,1710.752 L187.5,1676.098 L200,1655.429 L212.5,1670.598 L225,1741.844 L237.5,1685.376 L250,1675.368 L262.5,1704.646 L275,1660.941 L287.5,1725.656 L300,1722.076 L312.5,1641.158 L325,1747.387 L337.5,1760 L350,1743.772 L362.5,1635.799 L375,1685.135 L387.5,1728.84 L400,1671.14 L412.5,1658.541 L425,1643.949 L437.5,1563.919 L450,1684.382 L462.5,1670.245 L475,1692.021 L487.5,1684.455 L500,1655.138 " stroke="blue" fill="none" />
<text x="50" y="1810" font-family="Arial" font-size="12" fill="black">Learning Rate</text>
<text x="50" y="1825" font-family="Arial" font-size="10" fill="black">0.0003</text>
<text x="50" y="2040" font-family="Arial" font-size="10" fill="black">0.0003</text>
<path d="M50,2030 L62.5,2030 L75,2030 L87.5,2030 L100,2030 L112.5,2030 L125,2030 L137.5,2030 L150,2030 L162.5,2030 L175,2030 L187.5,2030 L200,2030 L212.5,2030 L225,2030 L237.5,2030 L250,2030 L262.5,2030 L275,2030 L287.5,2030 L300,2030 L312.5,2030 L325,2030 L337.5,2030 L350,2030 L362.5,2030 L375,2030 L387.5,2030 L400,2030 L412.5,2030 L425,2030 L437.5,2030 L450,2030 L462.5,2030 L475,2030 L487.5,2030 L500,2030 " stroke="blue" fill="none" />
<text x="50" y="2080" font-family="Arial" font-size="12" fill="black">Entropy</text>
<text x="50" y="2095" font-family="Arial" font-size="10" fill="black">0.2529215</text>
<text x="50" y="2310" font-family="Arial" font-size="10" fill="black">0.1967102</text>
<path d="M50,2242.417 L62.5,2248.561 L75,2248.334 L87.5,2246.059 L100,2269.663 L112.5,2252.048 L125,2255.184 L137.5,2245.521 L150,2216.856 L162.5,2216.549 L175,2300 L187.5,2221.887 L200,2228.45 L212.5,2221.348 L225,2236.694 L237.5,2215.773 L250,2200.635 L262.5,2209.452 L275,2183.875 L287.5,2152.749 L300,2158.347 L312.5,2150.728 L325,2142.674 L337.5,2134.656 L350,2132.23 L362.5,2119.123 L375,2100 L387.5,2120.858 L400,2132.455 L412.5,2144.942 L425,2116.82 L437.5,2176.119 L450,2168.292 L462.5,2158.921 L475,2130.596 L487.5,2132.537 L500,2141.18 " stroke="blue" fill="none" />
<text x="750" y="730" font-family="Arial" font-size="12" fill="black">Simplified</text>
<text x="750" y="745" font-family="Arial" font-size="10" fill="black">8.236842</text>
<text x="750" y="960" font-family="Arial" font-size="10" fill="black">7.052631</text>
<path d="M764.0625,781.1111 L778.9063,816.6666 L793.75,772.2223 L808.5938,830 L823.4375,923.3333 L838.2813,883.3333 L853.125,950 L867.9688,750 L882.8125,785.5556 L897.6563,772.2223 L912.5,847.7778 L927.3438,861.1111 L942.1875,905.5555 L957.0313,874.4444 L971.875,843.3334 L986.7188,772.2223 L1001.563,776.6667 L1016.406,785.5556 L1031.25,781.1111 " stroke="blue" fill="none" />
<text x="750" y="1000" font-family="Arial" font-size="12" fill="black">Simplified</text>
<text x="750" y="1015" font-family="Arial" font-size="10" fill="black">1217.684</text>
<text x="750" y="1230" font-family="Arial" font-size="10" fill="black">841.4211</text>
<path d="M764.0625,1171.434 L778.9063,1161.53 L793.75,1022.77 L808.5938,1050.102 L823.4375,1184.806 L838.2813,1097.661 L853.125,1178.26 L867.9688,1098.473 L882.8125,1050.606 L897.6563,1079.729 L912.5,1027.414 L927.3438,1020 L942.1875,1137.247 L957.0313,1064.65 L971.875,1220 L986.7188,1072.063 L1001.563,1157.838 L1016.406,1126.365 L1031.25,1154.732 " stroke="blue" fill="none" />
</svg>
