<svg width="2000" height="2500" xmlns="http://www.w3.org/2000/svg">
<text x="10" y="20" font-family="Arial" font-size="26" fill="black"> [MarioScript] Training Session</text>
<text x="10" y="50" font-family="Arial" font-size="16" fill="black">[Statistics]</text>
<text x="50" y="70" font-family="Arial" font-size="12" fill="black">Started at: 4:48:16 PM, Thursday, March 7, 2024</text>
<text x="50" y="90" font-family="Arial" font-size="12" fill="black">Finished at: 4:59:50 PM, Thursday, March 7, 2024</text>
<text x="50" y="110" font-family="Arial" font-size="12" fill="black">Training Session Time: 0 hrs : 11 min : 32 sec</text>
<text x="50" y="130" font-family="Arial" font-size="12" fill="black">Inference Time: 1 hrs : 49 min : 38 sec        [Device: CPU]</text>
<text x="50" y="150" font-family="Arial" font-size="12" fill="black">Update Time: 0 hrs : 5 min : 54 sec        [Per iteration: 0 hrs : 0 min : 10.439 sec]        [Device: GPU]</text>
<text x="50" y="170" font-family="Arial" font-size="12" fill="black">Episode Count: 288</text>
<text x="50" y="190" font-family="Arial" font-size="12" fill="black">Inference Steps: 327680</text>
<text x="50" y="210" font-family="Arial" font-size="12" fill="black">Iterations: 32</text>
<text x="50" y="230" font-family="Arial" font-size="12" fill="black">Parallel Agents: 1</text>
<text x="50" y="250" font-family="Arial" font-size="12" fill="black">Timescale: 20</text>
<text x="50" y="270" font-family="Arial" font-size="12" fill="black">Trainer: PPO</text>
<text x="10" y="320" font-family="Arial" font-size="16" fill="black">[Hyperparameters]</text>
<text x="50" y="340" font-family="Arial" font-size="12" fill="black">Buffer Size: 10240        [Batch Size: 512       (x20)]</text>
<text x="50" y="360" font-family="Arial" font-size="12" fill="black">Num Epoch: 8</text>
<text x="50" y="380" font-family="Arial" font-size="12" fill="black">Time Horizon: 512</text>
<text x="50" y="400" font-family="Arial" font-size="12" fill="black">Gradient Cliping by Norm: 0.5</text>
<text x="50" y="420" font-family="Arial" font-size="12" fill="black">Learning Rate Schedule: False    </text>
<text x="10" y="470" font-family="Arial" font-size="16" fill="black">[Behaviour]</text>
<text x="50" y="490" font-family="Arial" font-size="12" fill="black">Space Size: 204</text>
<text x="50" y="510" font-family="Arial" font-size="12" fill="black">Continuous Actions: 0 [Standard Deviation: Trainable]     </text>
<text x="50" y="530" font-family="Arial" font-size="12" fill="black">Discrete Actions: 5</text>
<text x="50" y="550" font-family="Arial" font-size="12" fill="black">TargetFPS: 50 (physics update rate)</text>
<text x="50" y="570" font-family="Arial" font-size="12" fill="black">Observations Normalization: False</text>
<text x="10" y="620" font-family="Arial" font-size="16" fill="black">[Decision Requester]</text>
<text x="50" y="640" font-family="Arial" font-size="12" fill="black">Max Step: 6000</text>
<text x="50" y="660" font-family="Arial" font-size="12" fill="black">Decision Period: 1</text>
<text x="10" y="710" font-family="Arial" font-size="16" fill="black">[Graphs]</text>
<text x="50" y="730" font-family="Arial" font-size="12" fill="black">Episode Reward (288)</text>
<text x="50" y="745" font-family="Arial" font-size="10" fill="black">9</text>
<text x="50" y="960" font-family="Arial" font-size="10" fill="black">3.5</text>
<path d="M50,786.3636 L51.5625,804.5455 L53.125,768.1818 L54.6875,786.3636 L56.25,750 L57.8125,768.1818 L59.375,786.3636 L60.9375,750 L62.5,786.3636 L64.0625,768.1818 L65.625,768.1818 L67.1875,804.5455 L68.75,786.3636 L70.3125,768.1818 L71.875,786.3636 L73.4375,768.1818 L75,768.1818 L76.5625,786.3636 L78.125,768.1818 L79.6875,768.1818 L81.25,750 L82.8125,786.3636 L84.375,786.3636 L85.9375,750 L87.5,768.1818 L89.0625,750 L90.625,750 L92.1875,768.1818 L93.75,750 L95.3125,750 L96.875,750 L98.4375,786.3636 L100,768.1818 L101.5625,750 L103.125,786.3636 L104.6875,750 L106.25,768.1818 L107.8125,768.1818 L109.375,786.3636 L110.9375,931.8182 L112.5,786.3636 L114.0625,750 L115.625,750 L117.1875,786.3636 L118.75,786.3636 L120.3125,786.3636 L121.875,786.3636 L123.4375,750 L125,750 L126.5625,804.5455 L128.125,786.3636 L129.6875,786.3636 L131.25,804.5455 L132.8125,786.3636 L134.375,786.3636 L135.9375,786.3636 L137.5,768.1818 L139.0625,786.3636 L140.625,804.5455 L142.1875,768.1818 L143.75,786.3636 L145.3125,750 L146.875,768.1818 L148.4375,804.5455 L150,913.6364 L151.5625,786.3636 L153.125,804.5455 L154.6875,804.5455 L156.25,804.5455 L157.8125,786.3636 L159.375,804.5455 L160.9375,786.3636 L162.5,786.3636 L164.0625,786.3636 L165.625,786.3636 L167.1875,786.3636 L168.75,786.3636 L170.3125,804.5455 L171.875,750 L173.4375,804.5455 L175,786.3636 L176.5625,804.5455 L178.125,750 L179.6875,750 L181.25,768.1818 L182.8125,786.3636 L184.375,786.3636 L185.9375,786.3636 L187.5,768.1818 L189.0625,786.3636 L190.625,768.1818 L192.1875,750 L193.75,786.3636 L195.3125,786.3636 L196.875,786.3636 L198.4375,804.5455 L200,804.5455 L201.5625,786.3636 L203.125,768.1818 L204.6875,804.5455 L206.25,804.5455 L207.8125,786.3636 L209.375,786.3636 L210.9375,786.3636 L212.5,750 L214.0625,750 L215.625,768.1818 L217.1875,786.3636 L218.75,768.1818 L220.3125,931.8182 L221.875,822.7273 L223.4375,786.3636 L225,768.1818 L226.5625,804.5455 L228.125,786.3636 L229.6875,750 L231.25,768.1818 L232.8125,786.3636 L234.375,931.8182 L235.9375,950 L237.5,768.1818 L239.0625,786.3636 L240.625,750 L242.1875,822.7273 L243.75,804.5455 L245.3125,786.3636 L246.875,786.3636 L248.4375,786.3636 L250,768.1818 L251.5625,768.1818 L253.125,750 L254.6875,750 L256.25,750 L257.8125,786.3636 L259.375,768.1818 L260.9375,750 L262.5,750 L264.0625,786.3636 L265.625,804.5455 L267.1875,768.1818 L268.75,804.5455 L270.3125,768.1818 L271.875,786.3636 L273.4375,786.3636 L275,804.5455 L276.5625,786.3636 L278.125,768.1818 L279.6875,750 L281.25,750 L282.8125,750 L284.375,768.1818 L285.9375,750 L287.5,786.3636 L289.0625,786.3636 L290.625,768.1818 L292.1875,750 L293.75,786.3636 L295.3125,931.8182 L296.875,750 L298.4375,750 L300,750 L301.5625,768.1818 L303.125,768.1818 L304.6875,786.3636 L306.25,768.1818 L307.8125,768.1818 L309.375,768.1818 L310.9375,768.1818 L312.5,804.5455 L314.0625,786.3636 L315.625,786.3636 L317.1875,768.1818 L318.75,786.3636 L320.3125,768.1818 L321.875,768.1818 L323.4375,786.3636 L325,786.3636 L326.5625,786.3636 L328.125,786.3636 L329.6875,768.1818 L331.25,786.3636 L332.8125,768.1818 L334.375,786.3636 L335.9375,750 L337.5,768.1818 L339.0625,768.1818 L340.625,786.3636 L342.1875,750 L343.75,786.3636 L345.3125,786.3636 L346.875,750 L348.4375,786.3636 L350,750 L351.5625,786.3636 L353.125,786.3636 L354.6875,786.3636 L356.25,786.3636 L357.8125,786.3636 L359.375,786.3636 L360.9375,804.5455 L362.5,750 L364.0625,786.3636 L365.625,786.3636 L367.1875,786.3636 L368.75,822.7273 L370.3125,786.3636 L371.875,822.7273 L373.4375,786.3636 L375,786.3636 L376.5625,786.3636 L378.125,804.5455 L379.6875,822.7273 L381.25,786.3636 L382.8125,750 L384.375,786.3636 L385.9375,750 L387.5,804.5455 L389.0625,804.5455 L390.625,786.3636 L392.1875,804.5455 L393.75,804.5455 L395.3125,804.5455 L396.875,786.3636 L398.4375,768.1818 L400,786.3636 L401.5625,786.3636 L403.125,786.3636 L404.6875,804.5455 L406.25,804.5455 L407.8125,786.3636 L409.375,931.8182 L410.9375,804.5455 L412.5,931.8182 L414.0625,786.3636 L415.625,786.3636 L417.1875,786.3636 L418.75,822.7273 L420.3125,768.1818 L421.875,786.3636 L423.4375,768.1818 L425,786.3636 L426.5625,804.5455 L428.125,804.5455 L429.6875,804.5455 L431.25,804.5455 L432.8125,786.3636 L434.375,786.3636 L435.9375,786.3636 L437.5,786.3636 L439.0625,786.3636 L440.625,786.3636 L442.1875,786.3636 L443.75,750 L445.3125,786.3636 L446.875,804.5455 L448.4375,804.5455 L450,931.8182 L451.5625,786.3636 L453.125,804.5455 L454.6875,804.5455 L456.25,804.5455 L457.8125,804.5455 L459.375,804.5455 L460.9375,822.7273 L462.5,804.5455 L464.0625,786.3636 L465.625,804.5455 L467.1875,804.5455 L468.75,804.5455 L470.3125,804.5455 L471.875,804.5455 L473.4375,786.3636 L475,786.3636 L476.5625,786.3636 L478.125,768.1818 L479.6875,804.5455 L481.25,786.3636 L482.8125,822.7273 L484.375,804.5455 L485.9375,786.3636 L487.5,786.3636 L489.0625,804.5455 L490.625,786.3636 L492.1875,804.5455 L493.75,786.3636 L495.3125,804.5455 L496.875,840.9091 L498.4375,804.5455 " stroke="blue" fill="none" />
<text x="50" y="1000" font-family="Arial" font-size="12" fill="black">Episode Length (288)</text>
<text x="50" y="1015" font-family="Arial" font-size="10" fill="black">6000</text>
<text x="50" y="1230" font-family="Arial" font-size="10" fill="black">341</text>
<path d="M50,1194.13 L51.5625,1200.915 L53.125,1197.735 L54.6875,1199.714 L56.25,1202.364 L57.8125,1204.45 L59.375,1208.125 L60.9375,1187.839 L62.5,1203 L64.0625,1183.492 L65.625,1185.259 L67.1875,1200.456 L68.75,1182.785 L70.3125,1209.291 L71.875,1193.6 L73.4375,1178.509 L75,1164.902 L76.5625,1197.77 L78.125,1212.013 L79.6875,1196.109 L81.25,1140.94 L82.8125,1211.412 L84.375,1198.017 L85.9375,1191.903 L87.5,1188.687 L89.0625,1174.091 L90.625,1207.383 L92.1875,1192.257 L93.75,1173.278 L95.3125,1202.329 L96.875,1212.083 L98.4375,1195.261 L100,1207.736 L101.5625,1200.35 L103.125,1201.127 L104.6875,1168.012 L106.25,1184.305 L107.8125,1184.658 L109.375,1184.623 L110.9375,1220 L112.5,1191.09 L114.0625,1114.469 L115.625,1201.233 L117.1875,1203.637 L118.75,1196.498 L120.3125,1211.412 L121.875,1197.664 L123.4375,1143.909 L125,1200.067 L126.5625,1195.649 L128.125,1204.061 L129.6875,1211.058 L131.25,1199.961 L132.8125,1190.313 L134.375,1194.801 L135.9375,1187.344 L137.5,1167.765 L139.0625,1204.061 L140.625,1210.917 L142.1875,1187.627 L143.75,1202.895 L145.3125,1189.924 L146.875,1191.09 L148.4375,1212.508 L150,1217.561 L151.5625,1167.623 L153.125,1208.726 L154.6875,1207.206 L156.25,1199.996 L157.8125,1209.044 L159.375,1204.803 L160.9375,1200.208 L162.5,1211.765 L164.0625,1175.257 L165.625,1207.984 L167.1875,1196.003 L168.75,1195.826 L170.3125,1214.522 L171.875,1164.23 L173.4375,1203.637 L175,1196.992 L176.5625,1162.322 L178.125,1180.594 L179.6875,1089.871 L181.25,1191.232 L182.8125,1200.208 L184.375,1208.973 L185.9375,1166.916 L187.5,1202.506 L189.0625,1204.379 L190.625,1200.703 L192.1875,1130.231 L193.75,1207.03 L195.3125,1199.466 L196.875,1198.229 L198.4375,1197.699 L200,1198.3 L201.5625,1210.528 L203.125,1187.167 L204.6875,1201.516 L206.25,1186.779 L207.8125,1187.273 L209.375,1196.003 L210.9375,1189.5 L212.5,1162.11 L214.0625,1159.495 L215.625,1194.094 L217.1875,1199.396 L218.75,1200.173 L220.3125,1215.441 L221.875,1209.539 L223.4375,1210.599 L225,1202.011 L226.5625,1210.069 L228.125,1197.629 L229.6875,1142.318 L231.25,1192.115 L232.8125,1189.571 L234.375,1216.713 L235.9375,1219.823 L237.5,1183.032 L239.0625,1201.87 L240.625,1174.656 L242.1875,1201.481 L243.75,1194.554 L245.3125,1205.192 L246.875,1202.788 L248.4375,1218.127 L250,1199.184 L251.5625,1205.616 L253.125,1197.629 L254.6875,1129.56 L256.25,1201.445 L257.8125,1209.468 L259.375,1201.658 L260.9375,1068.242 L262.5,1192.398 L264.0625,1197.911 L265.625,1210.776 L267.1875,1186.46 L268.75,1212.472 L270.3125,1158.222 L271.875,1205.828 L273.4375,1203.354 L275,1197.982 L276.5625,1209.786 L278.125,1195.614 L279.6875,1164.937 L281.25,1189.041 L282.8125,1199.113 L284.375,1188.086 L285.9375,1181.477 L287.5,1200.421 L289.0625,1207.913 L290.625,1190.171 L292.1875,1162.569 L293.75,1193.069 L295.3125,1219.081 L296.875,1147.726 L298.4375,1169.037 L300,1020 L301.5625,1149.139 L303.125,1184.764 L304.6875,1210.846 L306.25,1205.863 L307.8125,1211.271 L309.375,1194.483 L310.9375,1200.845 L312.5,1184.976 L314.0625,1192.645 L315.625,1200.315 L317.1875,1188.369 L318.75,1211.271 L320.3125,1197.876 L321.875,1204.379 L323.4375,1170.733 L325,1202.258 L326.5625,1213.709 L328.125,1202.435 L329.6875,1187.45 L331.25,1215.83 L332.8125,1197.77 L334.375,1202.188 L335.9375,1192.787 L337.5,1180.735 L339.0625,1188.228 L340.625,1199.431 L342.1875,1178.014 L343.75,1205.757 L345.3125,1198.088 L346.875,1172.112 L348.4375,1205.757 L350,1189.995 L351.5625,1192.716 L353.125,1184.835 L354.6875,1199.396 L356.25,1201.799 L357.8125,1192.681 L359.375,1132.811 L360.9375,1182.608 L362.5,1151.825 L364.0625,1204.803 L365.625,1195.614 L367.1875,1191.126 L368.75,1201.021 L370.3125,1200.315 L371.875,1202.47 L373.4375,1183.456 L375,1166.634 L376.5625,1213.002 L378.125,1201.233 L379.6875,1190.702 L381.25,1195.225 L382.8125,1179.427 L384.375,1197.346 L385.9375,1171.299 L387.5,1213.002 L389.0625,1199.572 L390.625,1186.036 L392.1875,1199.466 L393.75,1205.828 L395.3125,1213.497 L396.875,1196.816 L398.4375,1159.424 L400,1197.346 L401.5625,1195.225 L403.125,1205.439 L404.6875,1206.287 L406.25,1187.521 L407.8125,1154.123 L409.375,1218.374 L410.9375,1184.799 L412.5,1217.809 L414.0625,1173.914 L415.625,1177.13 L417.1875,1206.535 L418.75,1192.893 L420.3125,1131.857 L421.875,1172.253 L423.4375,1147.796 L425,1164.973 L426.5625,1191.691 L428.125,1197.31 L429.6875,1195.579 L431.25,1200.633 L432.8125,1180.064 L434.375,1193.352 L435.9375,1181.937 L437.5,1182.644 L439.0625,1202.824 L440.625,1172.677 L442.1875,1188.652 L443.75,1187.662 L445.3125,1208.443 L446.875,1206.04 L448.4375,1202.4 L450,1214.981 L451.5625,1199.325 L453.125,1182.679 L454.6875,1195.508 L456.25,1205.333 L457.8125,1207.595 L459.375,1182.608 L460.9375,1207.736 L462.5,1191.408 L464.0625,1176.07 L465.625,1199.643 L467.1875,1206.358 L468.75,1206.711 L470.3125,1211.341 L471.875,1197.699 L473.4375,1206.641 L475,1183.28 L476.5625,1202.082 L478.125,1200.032 L479.6875,1205.121 L481.25,1182.043 L482.8125,1199.749 L484.375,1180.028 L485.9375,1176.07 L487.5,1205.368 L489.0625,1201.445 L490.625,1187.874 L492.1875,1189.747 L493.75,1208.514 L495.3125,1199.466 L496.875,1205.545 L498.4375,1206.075 " stroke="blue" fill="none" />
<text x="50" y="1270" font-family="Arial" font-size="12" fill="black">Policy Loss</text>
<text x="50" y="1285" font-family="Arial" font-size="10" fill="black">0.1202267</text>
<text x="50" y="1500" font-family="Arial" font-size="10" fill="black">0.07225494</text>
<path d="M50,1315.06 L62.5,1304.527 L75,1382.553 L87.5,1315.07 L100,1353.781 L112.5,1332.788 L125,1347.506 L137.5,1290 L150,1382.959 L162.5,1409.298 L175,1431.105 L187.5,1463.779 L200,1345.727 L212.5,1370.996 L225,1490 L237.5,1408.988 L250,1442.445 L262.5,1483.77 L275,1466.305 L287.5,1348.115 L300,1430.622 L312.5,1405.825 L325,1368.692 L337.5,1319.2 L350,1394.83 L362.5,1366.622 L375,1415.552 L387.5,1435.876 L400,1402.955 L412.5,1403.792 L425,1415.437 L437.5,1432.417 " stroke="blue" fill="none" />
<text x="50" y="1540" font-family="Arial" font-size="12" fill="black">Value Loss</text>
<text x="50" y="1555" font-family="Arial" font-size="10" fill="black">0.02695174</text>
<text x="50" y="1770" font-family="Arial" font-size="10" fill="black">0.01093129</text>
<path d="M50,1604.335 L62.5,1576.221 L75,1686.024 L87.5,1560 L100,1694.569 L112.5,1661.373 L125,1648.675 L137.5,1659.295 L150,1714.845 L162.5,1691.48 L175,1691.886 L187.5,1710.036 L200,1602.94 L212.5,1646.073 L225,1747.726 L237.5,1670.567 L250,1689.016 L262.5,1760 L275,1736.542 L287.5,1667.757 L300,1687.703 L312.5,1679.989 L325,1733.935 L337.5,1676.445 L350,1677.907 L362.5,1705.974 L375,1725.774 L387.5,1747.288 L400,1656.75 L412.5,1695.019 L425,1687.349 L437.5,1703.674 " stroke="blue" fill="none" />
<text x="50" y="1810" font-family="Arial" font-size="12" fill="black">Learning Rate</text>
<text x="50" y="1825" font-family="Arial" font-size="10" fill="black">0.0003</text>
<text x="50" y="2040" font-family="Arial" font-size="10" fill="black">0.0003</text>
<path d="M50,2030 L62.5,2030 L75,2030 L87.5,2030 L100,2030 L112.5,2030 L125,2030 L137.5,2030 L150,2030 L162.5,2030 L175,2030 L187.5,2030 L200,2030 L212.5,2030 L225,2030 L237.5,2030 L250,2030 L262.5,2030 L275,2030 L287.5,2030 L300,2030 L312.5,2030 L325,2030 L337.5,2030 L350,2030 L362.5,2030 L375,2030 L387.5,2030 L400,2030 L412.5,2030 L425,2030 L437.5,2030 " stroke="blue" fill="none" />
<text x="50" y="2080" font-family="Arial" font-size="12" fill="black">Entropy</text>
<text x="50" y="2095" font-family="Arial" font-size="10" fill="black">0.2727305</text>
<text x="50" y="2310" font-family="Arial" font-size="10" fill="black">0.2335989</text>
<path d="M50,2292.233 L62.5,2237.866 L75,2248.363 L87.5,2295.039 L100,2257.171 L112.5,2281.871 L125,2300 L137.5,2275.492 L150,2230.387 L162.5,2238.929 L175,2231.621 L187.5,2220.158 L200,2260.504 L212.5,2247.847 L225,2200.847 L237.5,2214.941 L250,2226.314 L262.5,2165.664 L275,2184.081 L287.5,2170.25 L300,2162.045 L312.5,2186.447 L325,2122.511 L337.5,2138.015 L350,2163.344 L362.5,2139.669 L375,2100 L387.5,2125.887 L400,2153.446 L412.5,2171.821 L425,2198.943 L437.5,2213.26 " stroke="blue" fill="none" />
<text x="750" y="730" font-family="Arial" font-size="12" fill="black">Simplified</text>
<text x="750" y="745" font-family="Arial" font-size="10" fill="black">8.631579</text>
<text x="750" y="960" font-family="Arial" font-size="10" fill="black">7.166667</text>
<path d="M778.125,800.2994 L807.8125,750 L837.5,839.8204 L867.1875,868.5629 L896.875,807.485 L926.5625,861.3773 L956.25,857.7844 L985.9375,785.9283 L1015.625,814.6707 L1045.313,796.7067 L1075,832.6348 L1104.688,850.5988 L1134.375,915.2695 L1164.063,893.7125 L1193.75,872.1557 L1198.438,950 " stroke="blue" fill="none" />
<text x="750" y="1000" font-family="Arial" font-size="12" fill="black">Simplified</text>
<text x="750" y="1015" font-family="Arial" font-size="10" fill="black">1435.368</text>
<text x="750" y="1230" font-family="Arial" font-size="10" fill="black">802.3333</text>
<path d="M778.125,1142.9 L807.8125,1106.95 L837.5,1100.182 L867.1875,1189.409 L896.875,1054.221 L926.5625,1148.238 L956.25,1127.352 L985.9375,1080.078 L1015.625,1020 L1045.313,1157.466 L1075,1070.267 L1104.688,1152.229 L1134.375,1040.453 L1164.063,1138.277 L1193.75,1163.32 L1198.438,1220 " stroke="blue" fill="none" />
</svg>
