<svg width="1000" height="2500" xmlns="http://www.w3.org/2000/svg">
<text x="10" y="20" font-family="Arial" font-size="26" fill="black"> [DriveLittleCar] Training Session</text>
<text x="10" y="50" font-family="Arial" font-size="16" fill="black">[Statistics]</text>
<text x="50" y="70" font-family="Arial" font-size="12" fill="black">Started at: 2:26:17 PM, Saturday, September 16, 2023</text>
<text x="50" y="90" font-family="Arial" font-size="12" fill="black">Finished at: 2:36:31 PM, Saturday, September 16, 2023</text>
<text x="50" y="110" font-family="Arial" font-size="12" fill="black">Training Session Time: 0 hrs : 10 min : 13 sec</text>
<text x="50" y="130" font-family="Arial" font-size="12" fill="black">Inference Time: 4 hrs : 37 min : 47 sec       [Per agent: 0 hrs : 6 min : 11 sec]        [Device: CPU]</text>
<text x="50" y="150" font-family="Arial" font-size="12" fill="black">Policy Update Time: 0 hrs : 4 min : 7 sec        [Per iteration: 0 hrs : 0 min : 18 sec]        [Device: GPU]</text>
<text x="50" y="170" font-family="Arial" font-size="12" fill="black">Inference Time / Training Session Time: 26.499</text>
<text x="50" y="190" font-family="Arial" font-size="12" fill="black">Policy Update Time / Training Session Time: 0.416</text>
<text x="50" y="210" font-family="Arial" font-size="12" fill="black">Inference Steps: 4680000    [Per agent: 104000]</text>
<text x="50" y="230" font-family="Arial" font-size="12" fill="black">Iterations: 13</text>
<text x="50" y="250" font-family="Arial" font-size="12" fill="black">Parallel Agents: 45</text>
<text x="10" y="300" font-family="Arial" font-size="16" fill="black">[Hyperparameters]</text>
<text x="50" y="320" font-family="Arial" font-size="12" fill="black">Buffer Size: 8000        [Batch Size: 500       (x16)]</text>
<text x="50" y="340" font-family="Arial" font-size="12" fill="black">Num Epoch: 8</text>
<text x="50" y="360" font-family="Arial" font-size="12" fill="black">Time Horizon: 64</text>
<text x="50" y="380" font-family="Arial" font-size="12" fill="black">Gradient Cliping Normalization: 0.5</text>
<text x="50" y="400" font-family="Arial" font-size="12" fill="black">Advantages Normalization: True</text>
<text x="50" y="420" font-family="Arial" font-size="12" fill="black">Training Data Shuffle: True</text>
<text x="50" y="440" font-family="Arial" font-size="12" fill="black">Learning Rate Schedule: False    </text>
<text x="10" y="490" font-family="Arial" font-size="16" fill="black">[Behaviour]</text>
<text x="50" y="510" font-family="Arial" font-size="12" fill="black">Space Size: 13</text>
<text x="50" y="530" font-family="Arial" font-size="12" fill="black">Continuous Dim: 3</text>
<text x="50" y="550" font-family="Arial" font-size="12" fill="black">Discrete Branches: 0</text>
<text x="50" y="570" font-family="Arial" font-size="12" fill="black">TargetFPS: 50 (physics update rate)</text>
<text x="50" y="590" font-family="Arial" font-size="12" fill="black">Observations Normalization: False</text>
<text x="50" y="610" font-family="Arial" font-size="12" fill="black">Standard Deviation: Fixed    [Value: 1]</text>
<text x="10" y="660" font-family="Arial" font-size="16" fill="black">[Decision Requester]</text>
<text x="50" y="680" font-family="Arial" font-size="12" fill="black">Max Step: 200</text>
<text x="50" y="700" font-family="Arial" font-size="12" fill="black">Decision Period: 5</text>
<text x="10" y="750" font-family="Arial" font-size="16" fill="black">[Graphs]</text>
<text x="50" y="770" font-family="Arial" font-size="12" fill="black">Episode Reward</text>
<text x="50" y="785" font-family="Arial" font-size="10" fill="black">4.757496</text>
<text x="50" y="1000" font-family="Arial" font-size="10" fill="black">-1.175</text>
<path d="M50,984.8588 L50.39063,951.7361 L50.78125,986.123 L51.17188,986.8816 L51.5625,954.3489 L51.95313,988.3144 L52.34375,921.142 L52.73438,990 L53.125,956.4559 L53.51563,956.7931 L53.90625,923.0804 L54.29688,957.6359 L54.6875,957.8887 L55.07813,957.973 L55.46875,957.973 L55.85938,958.1415 L56.25,958.7316 L56.64063,960.3329 L57.03125,960.3329 L57.42188,960.5015 L57.8125,960.5015 L58.20313,960.5858 L58.59375,960.5858 L58.98438,961.3442 L59.375,962.1871 L59.76563,962.1871 L60.15625,928.8959 L60.54688,958.9001 L60.9375,957.7202 L61.32813,957.2145 L61.71875,923.5019 L62.10938,931.0873 L62.5,957.5516 L62.89063,965.2212 L63.28125,931.7615 L63.67188,985.1117 L64.0625,951.062 L64.45313,955.866 L64.84375,932.3515 L65.23438,958.3944 L65.625,929.6545 L66.01563,958.0573 L66.40625,932.7728 L66.79688,933.0258 L67.1875,899.8188 L67.57813,933.5314 L67.96875,899.8188 L68.35938,866.1063 L68.75,933.5314 L69.14063,933.5314 L69.53125,899.8188 L69.92188,933.5314 L70.3125,899.8188 L70.70313,899.8188 L71.09375,933.5314 L71.48438,899.8188 L71.875,899.8187 L72.26563,930.076 L72.65625,928.3059 L73.04688,951.8204 L73.4375,985.3645 L73.82813,899.8188 L74.21875,953.6746 L74.60938,958.6473 L75,899.8187 L75.39063,933.11 L75.78125,954.7703 L76.17188,957.7202 L76.5625,955.3603 L76.95313,955.5289 L77.34375,955.866 L77.73438,954.0118 L78.125,988.9886 L78.51563,988.6515 L78.90625,929.7387 L79.29688,899.8188 L79.6875,933.5314 L80.07813,958.563 L80.46875,964.3784 L80.85938,899.8188 L81.25,926.1146 L81.64063,951.3148 L82.03125,924.3447 L82.42188,926.1989 L82.8125,931.0031 L83.20313,921.6476 L83.59375,899.819 L83.98438,933.5314 L84.375,899.8188 L84.76563,894.4247 L85.15625,962.3557 L85.54688,933.0256 L85.9375,927.9688 L86.32813,899.8188 L86.71875,954.686 L87.10938,962.6085 L87.5,896.3633 L87.89063,899.8188 L88.28125,928.9802 L88.67188,953.6746 L89.0625,899.8188 L89.45313,986.123 L89.84375,896.3633 L90.23438,830.2023 L90.625,930.3287 L91.01563,924.5132 L91.40625,924.6819 L91.79688,923.3333 L92.1875,899.8188 L92.57813,896.7004 L92.96875,918.6978 L93.35938,959.9958 L93.75,899.819 L94.14063,866.1062 L94.53125,832.3936 L94.92188,922.9962 L95.3125,886.3337 L95.70313,866.1063 L96.09375,899.8188 L96.48438,899.8188 L96.875,957.2145 L97.26563,827.0839 L97.65625,922.9119 L98.04688,899.566 L98.4375,921.3948 L98.82813,954.9388 L99.21875,925.2718 L99.60938,928.6431 L100,922.2376 L100.3906,892.1492 L100.7813,897.7961 L101.1719,897.3746 L101.5625,895.1834 L101.9531,866.1063 L102.3438,921.6476 L102.7344,923.3333 L103.125,926.4518 L103.5156,866.1062 L103.9063,930.413 L104.2969,924.7661 L104.6875,865.2634 L105.0781,866.1063 L105.4688,959.0687 L105.8594,798.5969 L106.25,930.2444 L106.6406,891.1378 L107.0313,922.5748 L107.4219,926.1989 L107.8125,866.1063 L108.2031,924.8504 L108.5938,861.0494 L108.9844,827.0839 L109.375,832.3938 L109.7656,958.2258 L110.1563,924.7661 L110.5469,922.9962 L110.9375,897.2905 L111.3281,955.9503 L111.7188,866.1063 L112.1094,866.1063 L112.5,861.7236 L112.8906,891.8963 L113.2813,866.1063 L113.6719,956.7088 L114.0625,920.8049 L114.4531,952.6633 L114.8438,862.1451 L115.2344,922.0691 L115.625,898.049 L116.0156,827.2525 L116.4063,866.1063 L116.7969,866.1063 L117.1875,893.6663 L117.5781,866.1063 L117.9688,952.3262 L118.3594,890.9692 L118.75,898.8918 L119.1406,861.3022 L119.5313,866.1064 L119.9219,952.4947 L120.3125,830.118 L120.7031,864.3364 L121.0938,829.191 L121.4844,921.4791 L121.875,831.2138 L122.2656,829.7809 L122.6563,866.1064 L123.0469,866.1063 L123.4375,953.9275 L123.8281,921.2263 L124.2188,888.7779 L124.6094,953.5061 L125,866.1063 L125.3906,922.5748 L125.7813,923.249 L126.1719,865.3478 L126.5625,922.7433 L126.9531,924.2604 L127.3438,923.7548 L127.7344,832.3937 L128.125,866.1063 L128.5156,832.3937 L128.9063,891.6436 L129.2969,890.9692 L129.6875,953.1689 L130.0781,827.6739 L130.4688,923.6705 L130.8594,918.6135 L131.25,890.9693 L131.6406,832.1409 L132.0313,831.4666 L132.4219,830.7081 L132.8125,898.2175 L133.2031,892.2335 L133.5938,865.0106 L133.9844,862.6508 L134.375,895.3519 L134.7656,952.4104 L135.1563,957.8044 L135.5469,921.9005 L135.9375,952.8318 L136.3281,822.4484 L136.7188,953.7589 L137.1094,831.3824 L137.5,952.8318 L137.8906,954.1804 L138.2813,894.2562 L138.6719,896.1105 L139.0625,892.9921 L139.4531,925.2719 L139.8438,925.6089 L140.2344,825.7354 L140.625,922.1534 L141.0156,825.0612 L141.4063,825.6511 L141.7969,798.681 L142.1875,863.325 L142.5781,923.7547 L142.9688,952.2419 L143.3594,829.0224 L143.75,830.2867 L144.1406,830.7081 L144.5313,864.0836 L144.9219,922.7433 L145.3125,899.3975 L145.7031,924.5133 L146.0938,832.3937 L146.4844,826.4095 L146.875,857.0881 L147.2656,821.2684 L147.6563,896.1105 L148.0469,823.9655 L148.4375,890.9692 L148.8281,866.1064 L149.2188,920.0463 L149.6094,921.2263 L150,952.7476 L150.3906,831.7195 L150.7813,919.7092 L151.1719,888.1037 L151.5625,829.5281 L151.9531,827.5896 L152.3438,951.989 L152.7344,858.858 L153.125,953.3375 L153.5156,798.6812 L153.9063,923.5862 L154.2969,957.2988 L154.6875,864.5892 L155.0781,821.437 L155.4688,863.5779 L155.8594,890.0421 L156.25,828.9382 L156.6406,890.6321 L157.0313,921.4791 L157.4219,829.7809 L157.8125,826.3254 L158.2031,831.8038 L158.5938,956.7931 L158.9844,825.6511 L159.375,862.8192 L159.7656,827.9268 L160.1563,855.8239 L160.5469,861.3865 L160.9375,855.2338 L161.3281,826.3254 L161.7188,827.421 L162.1094,828.2639 L162.5,889.7051 L162.8906,954.0118 L163.2813,892.6549 L163.6719,856.2452 L164.0625,861.3022 L164.4531,828.5167 L164.8438,863.4093 L165.2344,831.4667 L165.625,829.6967 L166.0156,830.2024 L166.4063,951.9047 L166.7969,828.1796 L167.1875,826.7467 L167.5781,953.3375 L167.9688,861.1337 L168.3594,864.0836 L168.75,828.6853 L169.1406,830.2024 L169.5313,828.011 L169.9219,890.8007 L170.3125,828.4324 L170.7031,826.7468 L171.0938,832.3937 L171.4844,825.2297 L171.875,829.6124 L172.2656,827.8424 L172.6563,824.134 L173.0469,856.4138 L173.4375,831.2981 L173.8281,830.6238 L174.2188,832.3937 L174.6094,923.4176 L175,952.4104 L175.3906,858.3524 L175.7813,828.6853 L176.1719,827.0839 L176.5625,828.4324 L176.9531,829.6124 L177.3438,830.2866 L177.7344,924.7661 L178.125,798.6812 L178.5156,832.3937 L178.9063,864.4207 L179.2969,953.7589 L179.6875,831.3824 L180.0781,859.9537 L180.4688,825.9039 L180.8594,866.1063 L181.25,831.6353 L181.6406,832.3937 L182.0313,861.2179 L182.4219,827.5896 L182.8125,825.3983 L183.2031,830.371 L183.5938,920.8892 L183.9844,798.6812 L184.375,829.5281 L184.7656,798.6812 L185.1563,862.5665 L185.5469,832.1409 L185.9375,798.6812 L186.3281,798.6811 L186.7188,888.9465 L187.1094,861.7237 L187.5,824.9768 L187.8906,898.8076 L188.2813,860.8809 L188.6719,858.5209 L189.0625,828.011 L189.4531,827.6739 L189.8438,866.1064 L190.2344,830.4553 L190.625,826.9154 L191.0156,829.4438 L191.4063,829.6124 L191.7969,832.3937 L192.1875,923.0805 L192.5781,826.5782 L192.9688,828.9382 L193.3594,798.6812 L193.75,827.8425 L194.1406,829.9495 L194.5313,888.9465 L194.9219,798.6811 L195.3125,824.5554 L195.7031,827.6739 L196.0938,824.8925 L196.4844,829.191 L196.875,829.3596 L197.2656,824.3868 L197.6563,863.2407 L198.0469,826.6625 L198.4375,830.5396 L198.8281,824.6397 L199.2188,827.2524 L199.6094,984.9431 L200,798.6812 L200.3906,829.4438 L200.7813,828.3481 L201.1719,829.5281 L201.5625,951.5676 L201.9531,824.8926 L202.3438,891.6435 L202.7344,892.1492 L203.125,866.1063 L203.5156,829.5281 L203.9063,827.3368 L204.2969,824.4711 L204.6875,827.2525 L205.0781,827.7582 L205.4688,827.1682 L205.8594,826.3254 L206.25,921.9848 L206.6406,858.858 L207.0313,829.0224 L207.4219,795.8156 L207.8125,828.5167 L208.2031,827.421 L208.5938,829.0225 L208.9844,830.1181 L209.375,829.6967 L209.7656,826.9153 L210.1563,852.9583 L210.5469,919.4564 L210.9375,954.9388 L211.3281,864.3364 L211.7188,890.7164 L212.1094,890.4636 L212.5,952.1576 L212.8906,889.6207 L213.2813,826.2411 L213.6719,829.191 L214.0625,856.2453 L214.4531,826.4939 L214.8438,853.5482 L215.2344,830.0338 L215.625,925.1876 L216.0156,860.2065 L216.4063,860.038 L216.7969,896.1948 L217.1875,859.1951 L217.5781,861.1337 L217.9688,822.7855 L218.3594,827.8425 L218.75,828.8539 L219.1406,827.8425 L219.5313,825.9039 L219.9219,828.2639 L220.3125,829.7809 L220.7031,829.6124 L221.0938,859.6166 L221.4844,857.5095 L221.875,832.2251 L222.2656,862.6508 L222.6563,954.686 L223.0469,825.8196 L223.4375,823.4598 L223.8281,826.7468 L224.2188,826.9996 L224.6094,823.1226 L225,855.2339 L225.3906,951.9047 L225.7813,831.2138 L226.1719,827.6739 L226.5625,858.5209 L226.9531,952.6633 L227.3438,798.681 L227.7344,824.5554 L228.125,858.858 L228.5156,825.7354 L228.9063,827.6739 L229.2969,827.3368 L229.6875,824.9769 L230.0781,823.0383 L230.4688,822.1955 L230.8594,825.8197 L231.25,822.1112 L231.6406,823.8812 L232.0313,827.1682 L232.4219,827.0839 L232.8125,828.5167 L233.2031,829.7809 L233.5938,860.2908 L233.9844,831.9724 L234.375,827.5896 L234.7656,826.2411 L235.1563,858.3524 L235.5469,826.5782 L235.9375,953.5061 L236.3281,827.9268 L236.7188,830.2023 L237.1094,827.2525 L237.5,856.9194 L237.8906,828.2639 L238.2813,830.5396 L238.6719,827.6739 L239.0625,825.4825 L239.4531,952.579 L239.8438,826.3254 L240.2344,828.1796 L240.625,855.1495 L241.0156,822.1113 L241.4063,855.0653 L241.7969,855.8238 L242.1875,825.9882 L242.5781,823.2911 L242.9688,951.989 L243.3594,825.4825 L243.75,951.9047 L244.1406,823.544 L244.5313,857.0881 L244.9219,858.0152 L245.3125,952.3262 L245.7031,858.858 L246.0938,829.5281 L246.4844,826.3254 L246.875,828.9381 L247.2656,823.2069 L247.6563,821.9426 L248.0469,825.8196 L248.4375,854.3068 L248.8281,823.9655 L249.2188,829.781 L249.6094,824.3869 L250,829.2753 L250.3906,828.3482 L250.7813,823.4597 L251.1719,832.3937 L251.5625,857.2567 L251.9531,828.4324 L252.3438,829.6967 L252.7344,860.038 L253.125,825.4825 L253.5156,823.5441 L253.9063,826.2411 L254.2969,824.2183 L254.6875,857.8467 L255.0781,824.3868 L255.4688,954.0118 L255.8594,825.6511 L256.25,825.1454 L256.6406,820.5098 L257.0313,859.1951 L257.4219,829.4438 L257.8125,856.8353 L258.2031,853.9696 L258.5938,825.6511 L258.9844,823.7969 L259.375,826.8311 L259.7656,824.9768 L260.1563,827.4211 L260.5469,828.3481 L260.9375,827.9267 L261.3281,829.1068 L261.7188,858.6052 L262.1094,825.3983 L262.5,829.5281 L262.8906,823.3755 L263.2813,827.1682 L263.6719,820.847 L264.0625,952.2419 L264.4531,887.0079 L264.8438,823.0383 L265.2344,860.8809 L265.625,951.5676 L266.0156,921.4791 L266.4063,922.4905 L266.7969,822.4484 L267.1875,860.4594 L267.5781,822.027 L267.9688,855.8239 L268.3594,830.5395 L268.75,824.9769 L269.1406,827.3368 L269.5313,828.1796 L269.9219,824.6397 L270.3125,861.9765 L270.7031,826.6625 L271.0938,828.5167 L271.4844,854.3068 L271.875,824.4711 L272.2656,830.0339 L272.6563,827.9267 L273.0469,827.3368 L273.4375,827.5896 L273.8281,893.6663 L274.2188,829.9496 L274.6094,826.5782 L275,822.954 L275.3906,829.9496 L275.7813,831.8038 L276.1719,827.9267 L276.5625,798.6811 L276.9531,826.7468 L277.3438,822.3641 L277.7344,890.295 L278.125,824.9769 L278.5156,828.7696 L278.9063,821.6898 L279.2969,827.2525 L279.6875,856.9195 L280.0781,823.2069 L280.4688,827.7582 L280.8594,823.7126 L281.25,822.1112 L281.6406,823.2912 L282.0313,824.134 L282.4219,824.2183 L282.8125,889.3679 L283.2031,858.8581 L283.5938,823.7126 L283.9844,830.7924 L284.375,825.3983 L284.7656,923.3333 L285.1563,853.1268 L285.5469,824.8083 L285.9375,826.0725 L286.3281,889.0308 L286.7188,826.1568 L287.1094,824.3868 L287.5,821.6055 L287.8906,826.8311 L288.2813,823.7968 L288.6719,823.7126 L289.0625,828.6853 L289.4531,820.0884 L289.8438,827.2524 L290.2344,826.9154 L290.625,828.601 L291.0156,824.134 L291.4063,830.8766 L291.7969,823.0383 L292.1875,824.134 L292.5781,820.7627 L292.9688,821.7741 L293.3594,824.9769 L293.75,924.0076 L294.1406,920.9734 L294.5313,824.6396 L294.9219,826.6625 L295.3125,829.1067 L295.7031,856.8353 L296.0938,887.1765 L296.4844,858.7737 L296.875,824.5554 L297.2656,823.3754 L297.6563,827.4211 L298.0469,951.3148 L298.4375,857.1724 L298.8281,821.6898 L299.2188,828.0953 L299.6094,823.4597 L300,822.954 L300.3906,825.8197 L300.7813,828.5167 L301.1719,821.6898 L301.5625,827.421 L301.9531,825.4825 L302.3438,822.7855 L302.7344,820.0884 L303.125,825.1454 L303.5156,954.686 L303.9063,920.0463 L304.2969,822.4484 L304.6875,825.8196 L305.0781,887.4294 L305.4688,823.1226 L305.8594,825.4825 L306.25,824.8083 L306.6407,827.5053 L307.0313,825.5668 L307.4219,823.2912 L307.8125,821.1841 L308.2031,822.6169 L308.5938,828.1796 L308.9844,827.0839 L309.375,829.5281 L309.7656,826.3254 L310.1563,823.2068 L310.5469,821.3527 L310.9375,824.9769 L311.3281,821.0156 L311.7188,822.4484 L312.1094,828.9382 L312.5,828.9382 L312.8906,823.5441 L313.2813,823.2069 L313.6719,829.4438 L314.0625,824.0497 L314.4532,828.4325 L314.8438,824.5554 L315.2344,822.1955 L315.625,826.0725 L316.0156,825.314 L316.4063,952.3262 L316.7969,820.5941 L317.1875,825.2297 L317.5781,824.0497 L317.9688,823.2912 L318.3594,824.3026 L318.75,824.134 L319.1406,826.2411 L319.5313,825.6511 L319.9219,824.8083 L320.3125,825.2297 L320.7031,824.724 L321.0938,828.9381 L321.4844,821.3527 L321.875,826.494 L322.2657,825.3983 L322.6563,821.1841 L323.0469,821.5212 L323.4375,824.4712 L323.8281,822.3641 L324.2188,826.9996 L324.6094,922.4905 L325,790 L325.3906,887.598 L325.7813,855.7396 L326.1719,824.8926 L326.5625,887.3451 L326.9531,854.8124 L327.3438,822.8698 L327.7344,823.2912 L328.125,823.5441 L328.5156,951.5676 L328.9063,821.0156 L329.2969,922.9962 L329.6875,820.0042 L330.0782,885.3223 L330.4688,951.2305 L330.8594,824.6397 L331.25,822.6169 L331.6406,855.571 L332.0313,885.6594 L332.4219,918.0236 L332.8125,856.4981 L333.2031,857.3409 L333.5938,858.858 L333.9844,821.6898 L334.375,825.314 L334.7656,918.7821 L335.1563,821.8584 L335.5469,823.3754 L335.9375,887.598 L336.3281,920.7206 L336.7188,824.6397 L337.1094,825.9883 L337.5,828.0953 L337.8907,859.5323 L338.2813,920.552 L338.6719,824.134 L339.0625,826.2411 L339.4531,920.9734 L339.8438,824.134 L340.2344,821.437 L340.625,825.9882 L341.0156,824.2183 L341.4063,828.8539 L341.7969,889.2836 L342.1875,826.9153 L342.5781,823.4597 L342.9688,822.7012 L343.3594,823.7969 L343.75,829.6124 L344.1406,822.9541 L344.5313,828.4324 L344.9219,821.0999 L345.3125,823.4597 L345.7032,887.1765 L346.0938,823.2912 L346.4844,924.1761 L346.875,824.134 L347.2656,825.1453 L347.6563,824.5555 L348.0469,824.6398 L348.4375,918.6978 L348.8281,827.7582 L349.2188,825.2297 L349.6094,822.5326 L350,822.027 L350.3906,824.8926 L350.7813,822.954 L351.1719,821.8584 L351.5625,823.0383 L351.9531,824.5554 L352.3438,825.7354 L352.7344,824.4711 L353.125,888.6093 L353.5157,856.9195 L353.9063,823.4597 L354.2969,825.7354 L354.6875,794.8041 L355.0781,828.9381 L355.4688,919.7935 L355.8594,828.6853 L356.25,826.9996 L356.6406,859.3637 L357.0313,820.3413 L357.4219,826.8311 L357.8125,822.1112 L358.2031,825.0612 L358.5938,825.1454 L358.9844,953.6746 L359.375,951.062 L359.7656,858.0995 L360.1563,825.4825 L360.5469,919.7935 L360.9375,921.2263 L361.3282,889.5364 L361.7188,793.1184 L362.1094,856.5824 L362.5,887.6822 L362.8906,823.7126 L363.2813,826.1567 L363.6719,894.2563 L364.0625,823.7969 L364.4531,824.8083 L364.8438,824.6397 L365.2344,854.8124 L365.625,919.2878 L366.0156,821.7741 L366.4063,821.9427 L366.7969,827.5053 L367.1875,823.2912 L367.5781,825.9882 L367.9688,826.3254 L368.3594,792.3599 L368.75,823.4598 L369.1407,824.0497 L369.5313,824.3026 L369.9219,920.2149 L370.3125,824.134 L370.7031,824.8083 L371.0938,827.2525 L371.4844,952.1576 L371.875,854.6439 L372.2656,827.421 L372.6563,824.5554 L373.0469,825.1454 L373.4375,824.3026 L373.8281,822.5327 L374.2188,889.1151 L374.6094,824.6397 L375,825.5668 L375.3906,823.2069 L375.7813,857.0881 L376.1719,827.0839 L376.5625,922.2377 L376.9532,827.5053 L377.3438,953.2532 L377.7344,824.0497 L378.125,822.7012 L378.5156,824.3026 L378.9063,824.4711 L379.2969,826.4096 L379.6875,825.314 L380.0781,832.1409 L380.4688,824.724 L380.8594,823.2069 L381.25,827.5053 L381.6406,823.6283 L382.0313,825.9883 L382.4219,823.7969 L382.8125,824.3869 L383.2031,826.7468 L383.5938,826.6625 L383.9844,823.7126 L384.375,823.7969 L384.7657,823.2912 L385.1563,821.8584 L385.5469,825.9039 L385.9375,827.1682 L386.3281,953.5904 L386.7188,920.1306 L387.1094,824.3869 L387.5,825.4825 L387.8906,827.8425 L388.2813,828.8538 L388.6719,824.3868 L389.0625,827.0839 L389.4531,823.4598 L389.8438,952.6633 L390.2344,922.322 L390.625,890.5479 L391.0156,830.2024 L391.4063,825.6511 L391.7969,888.0193 L392.1875,824.3868 L392.5782,856.6666 L392.9688,824.2183 L393.3594,887.4294 L393.75,955.0231 L394.1406,823.2069 L394.5313,822.8698 L394.9219,823.9655 L395.3125,824.0497 L395.7031,823.2069 L396.0938,829.4438 L396.4844,823.2912 L396.875,826.9153 L397.2656,891.6436 L397.6563,823.3755 L398.0469,952.0733 L398.4375,825.8196 L398.8281,828.601 L399.2188,860.1223 L399.6094,826.4097 L400,824.134 L400.3907,822.6169 L400.7813,821.6055 L401.1719,822.7855 L401.5625,826.6625 L401.9531,822.1113 L402.3438,825.9039 L402.7344,825.7354 L403.125,824.3869 L403.5156,822.7855 L403.9063,826.7468 L404.2969,825.0612 L404.6875,826.5782 L405.0781,822.9541 L405.4688,826.0725 L405.8594,891.6434 L406.25,821.8584 L406.6406,888.1879 L407.0313,825.7354 L407.4219,823.2069 L407.8125,827.5053 L408.2032,822.7012 L408.5938,826.7468 L408.9844,824.3868 L409.375,825.6511 L409.7656,822.0269 L410.1563,824.8926 L410.5469,824.8925 L410.9375,920.4677 L411.3281,825.0612 L411.7188,888.0193 L412.1094,824.9769 L412.5,826.0725 L412.8906,855.7395 L413.2813,826.4097 L413.6719,827.2524 L414.0625,823.1226 L414.4531,825.3983 " stroke="blue" fill="none" />
<text x="50" y="1040" font-family="Arial" font-size="12" fill="black">Episode Length</text>
<text x="50" y="1055" font-family="Arial" font-size="10" fill="black">200</text>
<text x="50" y="1270" font-family="Arial" font-size="10" fill="black">8</text>
<path d="M50,1258.958 L50.39063,1251.667 L50.78125,1243.333 L51.17188,1233.958 L51.5625,1219.375 L51.95313,1216.25 L52.34375,1213.125 L52.73438,1195.417 L53.125,1193.333 L53.51563,1189.167 L53.90625,1189.167 L54.29688,1178.75 L54.6875,1175.625 L55.07813,1174.583 L55.46875,1174.583 L55.85938,1172.5 L56.25,1165.208 L56.64063,1145.417 L57.03125,1145.417 L57.42188,1143.333 L57.8125,1143.333 L58.20313,1142.292 L58.59375,1142.292 L58.98438,1132.917 L59.375,1122.5 L59.76563,1122.5 L60.15625,1117.292 L60.54688,1163.125 L60.9375,1177.708 L61.32813,1183.958 L61.71875,1183.958 L62.10938,1090.208 L62.5,1179.792 L62.89063,1085 L63.28125,1081.875 L63.67188,1255.833 L64.0625,1260 L64.45313,1200.625 L64.84375,1074.583 L65.23438,1169.375 L65.625,1107.917 L66.01563,1173.542 L66.40625,1069.375 L66.79688,1066.25 L67.1875,1060 L67.57813,1060 L67.96875,1060 L68.35938,1060 L68.75,1060 L69.14063,1060 L69.53125,1060 L69.92188,1060 L70.3125,1060 L70.70313,1060 L71.09375,1060 L71.48438,1060 L71.875,1060 L72.26563,1102.708 L72.65625,1124.583 L73.04688,1250.625 L73.4375,1252.708 L73.82813,1060 L74.21875,1227.708 L74.60938,1166.25 L75,1060 L75.39063,1065.208 L75.78125,1214.167 L76.17188,1177.708 L76.5625,1206.875 L76.95313,1204.792 L77.34375,1200.625 L77.73438,1223.542 L78.125,1207.917 L78.51563,1212.083 L78.90625,1106.875 L79.29688,1060 L79.6875,1060 L80.07813,1167.292 L80.46875,1095.417 L80.85938,1060 L81.25,1151.667 L81.64063,1256.875 L82.03125,1173.542 L82.42188,1150.625 L82.8125,1091.25 L83.20313,1206.875 L83.59375,1060 L83.98438,1060 L84.375,1060 L84.76563,1126.667 L85.15625,1120.417 L85.54688,1066.25 L85.9375,1128.75 L86.32813,1060 L86.71875,1215.208 L87.10938,1117.292 L87.5,1102.708 L87.89063,1060 L88.28125,1116.25 L88.67188,1227.708 L89.0625,1060 L89.45313,1243.333 L89.84375,1102.708 L90.23438,1087.083 L90.625,1099.583 L91.01563,1171.458 L91.40625,1169.375 L91.79688,1186.042 L92.1875,1060 L92.57813,1098.542 L92.96875,1243.333 L93.35938,1149.583 L93.75,1060 L94.14063,1060 L94.53125,1060 L94.92188,1190.208 L95.3125,1226.667 L95.70313,1060 L96.09375,1060 L96.48438,1060 L96.875,1183.958 L97.26563,1125.625 L97.65625,1191.25 L98.04688,1063.125 L98.4375,1210 L98.82813,1212.083 L99.21875,1162.083 L99.60938,1120.417 L100,1199.583 L100.3906,1154.792 L100.7813,1085 L101.1719,1090.208 L101.5625,1117.292 L101.9531,1060 L102.3438,1206.875 L102.7344,1186.042 L103.125,1147.5 L103.5156,1060 L103.9063,1098.542 L104.2969,1168.333 L104.6875,1070.417 L105.0781,1060 L105.4688,1161.042 L105.8594,1061.042 L106.25,1100.625 L106.6406,1167.292 L107.0313,1195.417 L107.4219,1150.625 L107.8125,1060 L108.2031,1167.292 L108.5938,1122.5 L108.9844,1125.625 L109.375,1060 L109.7656,1171.458 L110.1563,1168.333 L110.5469,1190.208 L110.9375,1091.25 L111.3281,1199.583 L111.7188,1060 L112.1094,1060 L112.5,1114.167 L112.8906,1157.917 L113.2813,1060 L113.6719,1190.208 L114.0625,1217.292 L114.4531,1240.208 L114.8438,1108.958 L115.2344,1201.667 L115.625,1081.875 L116.0156,1123.542 L116.4063,1060 L116.7969,1060 L117.1875,1136.042 L117.5781,1060 L117.9688,1244.375 L118.3594,1169.375 L118.75,1071.458 L119.1406,1119.375 L119.5313,1060 L119.9219,1242.292 L120.3125,1088.125 L120.7031,1081.875 L121.0938,1099.583 L121.4844,1208.958 L121.875,1074.583 L122.2656,1092.292 L122.6563,1060 L123.0469,1060 L123.4375,1224.583 L123.8281,1212.083 L124.2188,1196.458 L124.6094,1229.792 L125,1060 L125.3906,1195.417 L125.7813,1187.083 L126.1719,1069.375 L126.5625,1193.333 L126.9531,1174.583 L127.3438,1180.833 L127.7344,1060 L128.125,1060 L128.5156,1060 L128.9063,1161.042 L129.2969,1169.375 L129.6875,1233.958 L130.0781,1118.333 L130.4688,1181.875 L130.8594,1244.375 L131.25,1169.375 L131.6406,1063.125 L132.0313,1071.458 L132.4219,1080.833 L132.8125,1079.792 L133.2031,1153.75 L133.5938,1073.542 L133.9844,1102.708 L134.375,1115.208 L134.7656,1243.333 L135.1563,1176.667 L135.5469,1203.75 L135.9375,1238.125 L136.3281,1182.917 L136.7188,1226.667 L137.1094,1072.5 L137.5,1238.125 L137.8906,1221.458 L138.2813,1128.75 L138.6719,1105.833 L139.0625,1144.375 L139.4531,1162.083 L139.8438,1157.917 L140.2344,1142.292 L140.625,1200.625 L141.0156,1150.625 L141.4063,1143.333 L141.7969,1060 L142.1875,1094.375 L142.5781,1180.833 L142.9688,1245.417 L143.3594,1101.667 L143.75,1086.042 L144.1406,1080.833 L144.5313,1085 L144.9219,1193.333 L145.3125,1065.208 L145.7031,1171.458 L146.0938,1060 L146.4844,1133.958 L146.875,1171.458 L147.2656,1197.5 L147.6563,1105.833 L148.0469,1164.167 L148.4375,1169.375 L148.8281,1060 L149.2188,1226.667 L149.6094,1212.083 L150,1239.167 L150.3906,1068.333 L150.7813,1230.833 L151.1719,1204.792 L151.5625,1095.417 L151.9531,1119.375 L152.3438,1248.542 L152.7344,1149.583 L153.125,1231.875 L153.5156,1060 L153.9063,1182.917 L154.2969,1182.917 L154.6875,1078.75 L155.0781,1195.417 L155.4688,1091.25 L155.8594,1180.833 L156.25,1102.708 L156.6406,1173.542 L157.0313,1208.958 L157.4219,1092.292 L157.8125,1135 L158.2031,1067.292 L158.5938,1189.167 L158.9844,1143.333 L159.375,1100.625 L159.7656,1115.208 L160.1563,1187.083 L160.5469,1118.333 L160.9375,1194.375 L161.3281,1135 L161.7188,1121.458 L162.1094,1111.042 L162.5,1185 L162.8906,1223.542 L163.2813,1148.542 L163.6719,1181.875 L164.0625,1119.375 L164.4531,1107.917 L164.8438,1093.333 L165.2344,1071.458 L165.625,1093.333 L166.0156,1087.083 L166.4063,1249.583 L166.7969,1112.083 L167.1875,1129.792 L167.5781,1231.875 L167.9688,1121.458 L168.3594,1085 L168.75,1105.833 L169.1406,1087.083 L169.5313,1114.167 L169.9219,1171.458 L170.3125,1108.958 L170.7031,1129.792 L171.0938,1060 L171.4844,1148.542 L171.875,1094.375 L172.2656,1116.25 L172.6563,1162.083 L173.0469,1179.792 L173.4375,1073.542 L173.8281,1081.875 L174.2188,1060 L174.6094,1185 L175,1243.333 L175.3906,1155.833 L175.7813,1105.833 L176.1719,1125.625 L176.5625,1108.958 L176.9531,1094.375 L177.3438,1086.042 L177.7344,1168.333 L178.125,1060 L178.5156,1060 L178.9063,1080.833 L179.2969,1226.667 L179.6875,1072.5 L180.0781,1136.042 L180.4688,1140.208 L180.8594,1060 L181.25,1069.375 L181.6406,1060 L182.0313,1120.417 L182.4219,1119.375 L182.8125,1146.458 L183.2031,1085 L183.5938,1216.25 L183.9844,1060 L184.375,1095.417 L184.7656,1060 L185.1563,1103.75 L185.5469,1063.125 L185.9375,1060 L186.3281,1060 L186.7188,1194.375 L187.1094,1114.167 L187.5,1151.667 L187.8906,1072.5 L188.2813,1124.583 L188.6719,1153.75 L189.0625,1114.167 L189.4531,1118.333 L189.8438,1060 L190.2344,1083.958 L190.625,1127.708 L191.0156,1096.458 L191.4063,1094.375 L191.7969,1060 L192.1875,1189.167 L192.5781,1131.875 L192.9688,1102.708 L193.3594,1060 L193.75,1116.25 L194.1406,1090.208 L194.5313,1194.375 L194.9219,1060 L195.3125,1156.875 L195.7031,1118.333 L196.0938,1152.708 L196.4844,1099.583 L196.875,1097.5 L197.2656,1158.958 L197.6563,1095.417 L198.0469,1130.833 L198.4375,1082.917 L198.8281,1155.833 L199.2188,1123.542 L199.6094,1257.917 L200,1060 L200.3906,1096.458 L200.7813,1110 L201.1719,1095.417 L201.5625,1253.75 L201.9531,1152.708 L202.3438,1161.042 L202.7344,1154.792 L203.125,1060 L203.5156,1095.417 L203.9063,1122.5 L204.2969,1157.917 L204.6875,1123.542 L205.0781,1117.292 L205.4688,1124.583 L205.8594,1135 L206.25,1202.708 L206.6406,1149.583 L207.0313,1101.667 L207.4219,1095.417 L207.8125,1107.917 L208.2031,1121.458 L208.5938,1101.667 L208.9844,1088.125 L209.375,1093.333 L209.7656,1127.708 L210.1563,1222.5 L210.5469,1233.958 L210.9375,1212.083 L211.3281,1081.875 L211.7188,1172.5 L212.1094,1175.625 L212.5,1246.458 L212.8906,1186.042 L213.2813,1136.042 L213.6719,1099.583 L214.0625,1181.875 L214.4531,1132.917 L214.8438,1215.208 L215.2344,1089.167 L215.625,1163.125 L216.0156,1132.917 L216.4063,1135 L216.7969,1104.792 L217.1875,1145.417 L217.5781,1121.458 L217.9688,1178.75 L218.3594,1116.25 L218.75,1103.75 L219.1406,1116.25 L219.5313,1140.208 L219.9219,1111.042 L220.3125,1092.292 L220.7031,1094.375 L221.0938,1140.208 L221.4844,1166.25 L221.875,1062.083 L222.2656,1102.708 L222.6563,1215.208 L223.0469,1141.25 L223.4375,1170.417 L223.8281,1129.792 L224.2188,1126.667 L224.6094,1174.583 L225,1194.375 L225.3906,1249.583 L225.7813,1074.583 L226.1719,1118.333 L226.5625,1153.75 L226.9531,1240.208 L227.3438,1060 L227.7344,1156.875 L228.125,1149.583 L228.5156,1142.292 L228.9063,1118.333 L229.2969,1122.5 L229.6875,1151.667 L230.0781,1175.625 L230.4688,1186.042 L230.8594,1141.25 L231.25,1187.083 L231.6406,1165.208 L232.0313,1124.583 L232.4219,1125.625 L232.8125,1107.917 L233.2031,1092.292 L233.5938,1131.875 L233.9844,1065.208 L234.375,1119.375 L234.7656,1136.042 L235.1563,1155.833 L235.5469,1131.875 L235.9375,1229.792 L236.3281,1115.208 L236.7188,1087.083 L237.1094,1123.542 L237.5,1173.542 L237.8906,1111.042 L238.2813,1082.917 L238.6719,1118.333 L239.0625,1145.417 L239.4531,1241.25 L239.8438,1135 L240.2344,1112.083 L240.625,1195.417 L241.0156,1187.083 L241.4063,1196.458 L241.7969,1187.083 L242.1875,1139.167 L242.5781,1172.5 L242.9688,1248.542 L243.3594,1145.417 L243.75,1249.583 L244.1406,1169.375 L244.5313,1171.458 L244.9219,1160 L245.3125,1244.375 L245.7031,1149.583 L246.0938,1095.417 L246.4844,1135 L246.875,1102.708 L247.2656,1173.542 L247.6563,1189.167 L248.0469,1141.25 L248.4375,1205.833 L248.8281,1164.167 L249.2188,1092.292 L249.6094,1158.958 L250,1098.542 L250.3906,1110 L250.7813,1170.417 L251.1719,1060 L251.5625,1169.375 L251.9531,1108.958 L252.3438,1093.333 L252.7344,1135 L253.125,1145.417 L253.5156,1169.375 L253.9063,1136.042 L254.2969,1161.042 L254.6875,1162.083 L255.0781,1158.958 L255.4688,1223.542 L255.8594,1143.333 L256.25,1149.583 L256.6406,1206.875 L257.0313,1145.417 L257.4219,1096.458 L257.8125,1174.583 L258.2031,1210 L258.5938,1143.333 L258.9844,1166.25 L259.375,1128.75 L259.7656,1151.667 L260.1563,1121.458 L260.5469,1110 L260.9375,1115.208 L261.3281,1100.625 L261.7188,1152.708 L262.1094,1146.458 L262.5,1095.417 L262.8906,1171.458 L263.2813,1124.583 L263.6719,1202.708 L264.0625,1245.417 L264.4531,1218.333 L264.8438,1175.625 L265.2344,1124.583 L265.625,1253.75 L266.0156,1208.958 L266.4063,1196.458 L266.7969,1182.917 L267.1875,1129.792 L267.5781,1188.125 L267.9688,1187.083 L268.3594,1082.917 L268.75,1151.667 L269.1406,1122.5 L269.5313,1112.083 L269.9219,1155.833 L270.3125,1111.042 L270.7031,1130.833 L271.0938,1107.917 L271.4844,1205.833 L271.875,1157.917 L272.2656,1089.167 L272.6563,1115.208 L273.0469,1122.5 L273.4375,1119.375 L273.8281,1136.042 L274.2188,1090.208 L274.6094,1131.875 L275,1176.667 L275.3906,1090.208 L275.7813,1067.292 L276.1719,1115.208 L276.5625,1060 L276.9531,1129.792 L277.3438,1183.958 L277.7344,1177.708 L278.125,1151.667 L278.5156,1104.792 L278.9063,1192.292 L279.2969,1123.542 L279.6875,1173.542 L280.0781,1173.542 L280.4688,1117.292 L280.8594,1167.292 L281.25,1187.083 L281.6406,1172.5 L282.0313,1162.083 L282.4219,1161.042 L282.8125,1189.167 L283.2031,1149.583 L283.5938,1167.292 L283.9844,1079.792 L284.375,1146.458 L284.7656,1186.042 L285.1563,1220.417 L285.5469,1153.75 L285.9375,1138.125 L286.3281,1193.333 L286.7188,1137.083 L287.1094,1158.958 L287.5,1193.333 L287.8906,1128.75 L288.2813,1166.25 L288.6719,1167.292 L289.0625,1105.833 L289.4531,1212.083 L289.8438,1123.542 L290.2344,1127.708 L290.625,1106.875 L291.0156,1162.083 L291.4063,1078.75 L291.7969,1175.625 L292.1875,1162.083 L292.5781,1203.75 L292.9688,1191.25 L293.3594,1151.667 L293.75,1177.708 L294.1406,1215.208 L294.5313,1155.833 L294.9219,1130.833 L295.3125,1100.625 L295.7031,1174.583 L296.0938,1216.25 L296.4844,1150.625 L296.875,1156.875 L297.2656,1171.458 L297.6563,1121.458 L298.0469,1256.875 L298.4375,1170.417 L298.8281,1192.292 L299.2188,1113.125 L299.6094,1170.417 L300,1176.667 L300.3906,1141.25 L300.7813,1107.917 L301.1719,1192.292 L301.5625,1121.458 L301.9531,1145.417 L302.3438,1178.75 L302.7344,1212.083 L303.125,1149.583 L303.5156,1215.208 L303.9063,1226.667 L304.2969,1182.917 L304.6875,1141.25 L305.0781,1213.125 L305.4688,1174.583 L305.8594,1145.417 L306.25,1153.75 L306.6407,1120.417 L307.0313,1144.375 L307.4219,1172.5 L307.8125,1198.542 L308.2031,1180.833 L308.5938,1112.083 L308.9844,1125.625 L309.375,1095.417 L309.7656,1135 L310.1563,1173.542 L310.5469,1196.458 L310.9375,1151.667 L311.3281,1200.625 L311.7188,1182.917 L312.1094,1102.708 L312.5,1102.708 L312.8906,1169.375 L313.2813,1173.542 L313.6719,1096.458 L314.0625,1163.125 L314.4532,1108.958 L314.8438,1156.875 L315.2344,1186.042 L315.625,1138.125 L316.0156,1147.5 L316.4063,1244.375 L316.7969,1205.833 L317.1875,1148.542 L317.5781,1163.125 L317.9688,1172.5 L318.3594,1160 L318.75,1162.083 L319.1406,1136.042 L319.5313,1143.333 L319.9219,1153.75 L320.3125,1148.542 L320.7031,1154.792 L321.0938,1102.708 L321.4844,1196.458 L321.875,1132.917 L322.2657,1146.458 L322.6563,1198.542 L323.0469,1194.375 L323.4375,1157.917 L323.8281,1183.958 L324.2188,1126.667 L324.6094,1196.458 L325,1167.292 L325.3906,1211.042 L325.7813,1188.125 L326.1719,1152.708 L326.5625,1214.167 L326.9531,1199.583 L327.3438,1177.708 L327.7344,1172.5 L328.125,1169.375 L328.5156,1253.75 L328.9063,1200.625 L329.2969,1190.208 L329.6875,1213.125 L330.0782,1239.167 L330.4688,1257.917 L330.8594,1155.833 L331.25,1180.833 L331.6406,1190.208 L332.0313,1235 L332.4219,1251.667 L332.8125,1178.75 L333.2031,1168.333 L333.5938,1149.583 L333.9844,1192.292 L334.375,1147.5 L334.7656,1242.292 L335.1563,1190.208 L335.5469,1171.458 L335.9375,1211.042 L336.3281,1218.333 L336.7188,1155.833 L337.1094,1139.167 L337.5,1113.125 L337.8907,1141.25 L338.2813,1220.417 L338.6719,1162.083 L339.0625,1136.042 L339.4531,1215.208 L339.8438,1162.083 L340.2344,1195.417 L340.625,1139.167 L341.0156,1161.042 L341.4063,1103.75 L341.7969,1190.208 L342.1875,1127.708 L342.5781,1170.417 L342.9688,1179.792 L343.3594,1166.25 L343.75,1094.375 L344.1406,1176.667 L344.5313,1108.958 L344.9219,1199.583 L345.3125,1170.417 L345.7032,1216.25 L346.0938,1172.5 L346.4844,1175.625 L346.875,1162.083 L347.2656,1149.583 L347.6563,1156.875 L348.0469,1155.833 L348.4375,1243.333 L348.8281,1117.292 L349.2188,1148.542 L349.6094,1181.875 L350,1188.125 L350.3906,1152.708 L350.7813,1176.667 L351.1719,1190.208 L351.5625,1175.625 L351.9531,1156.875 L352.3438,1142.292 L352.7344,1157.917 L353.125,1198.542 L353.5157,1173.542 L353.9063,1170.417 L354.2969,1142.292 L354.6875,1107.917 L355.0781,1102.708 L355.4688,1229.792 L355.8594,1105.833 L356.25,1126.667 L356.6406,1143.333 L357.0313,1208.958 L357.4219,1128.75 L357.8125,1187.083 L358.2031,1150.625 L358.5938,1149.583 L358.9844,1227.708 L359.375,1260 L359.7656,1158.958 L360.1563,1145.417 L360.5469,1229.792 L360.9375,1212.083 L361.3282,1187.083 L361.7188,1128.75 L362.1094,1177.708 L362.5,1210 L362.8906,1167.292 L363.2813,1137.083 L363.6719,1128.75 L364.0625,1166.25 L364.4531,1153.75 L364.8438,1155.833 L365.2344,1199.583 L365.625,1236.042 L366.0156,1191.25 L366.4063,1189.167 L366.7969,1120.417 L367.1875,1172.5 L367.5781,1139.167 L367.9688,1135 L368.3594,1138.125 L368.75,1170.417 L369.1407,1163.125 L369.5313,1160 L369.9219,1224.583 L370.3125,1162.083 L370.7031,1153.75 L371.0938,1123.542 L371.4844,1246.458 L371.875,1201.667 L372.2656,1121.458 L372.6563,1156.875 L373.0469,1149.583 L373.4375,1160 L373.8281,1181.875 L374.2188,1192.292 L374.6094,1155.833 L375,1144.375 L375.3906,1173.542 L375.7813,1171.458 L376.1719,1125.625 L376.5625,1199.583 L376.9532,1120.417 L377.3438,1232.917 L377.7344,1163.125 L378.125,1179.792 L378.5156,1160 L378.9063,1157.917 L379.2969,1133.958 L379.6875,1147.5 L380.0781,1063.125 L380.4688,1154.792 L380.8594,1173.542 L381.25,1120.417 L381.6406,1168.333 L382.0313,1139.167 L382.4219,1166.25 L382.8125,1158.958 L383.2031,1129.792 L383.5938,1130.833 L383.9844,1167.292 L384.375,1166.25 L384.7657,1172.5 L385.1563,1190.208 L385.5469,1140.208 L385.9375,1124.583 L386.3281,1228.75 L386.7188,1225.625 L387.1094,1158.958 L387.5,1145.417 L387.8906,1116.25 L388.2813,1103.75 L388.6719,1158.958 L389.0625,1125.625 L389.4531,1170.417 L389.8438,1240.208 L390.2344,1198.542 L390.625,1174.583 L391.0156,1087.083 L391.4063,1143.333 L391.7969,1205.833 L392.1875,1158.958 L392.5782,1176.667 L392.9688,1161.042 L393.3594,1213.125 L393.75,1211.042 L394.1406,1173.542 L394.5313,1177.708 L394.9219,1164.167 L395.3125,1163.125 L395.7031,1173.542 L396.0938,1096.458 L396.4844,1172.5 L396.875,1127.708 L397.2656,1161.042 L397.6563,1171.458 L398.0469,1247.5 L398.4375,1141.25 L398.8281,1106.875 L399.2188,1133.958 L399.6094,1133.958 L400,1162.083 L400.3907,1180.833 L400.7813,1193.333 L401.1719,1178.75 L401.5625,1130.833 L401.9531,1187.083 L402.3438,1140.208 L402.7344,1142.292 L403.125,1158.958 L403.5156,1178.75 L403.9063,1129.792 L404.2969,1150.625 L404.6875,1131.875 L405.0781,1176.667 L405.4688,1138.125 L405.8594,1161.042 L406.25,1190.208 L406.6406,1203.75 L407.0313,1142.292 L407.4219,1173.542 L407.8125,1120.417 L408.2032,1179.792 L408.5938,1129.792 L408.9844,1158.958 L409.375,1143.333 L409.7656,1188.125 L410.1563,1152.708 L410.5469,1152.708 L410.9375,1221.458 L411.3281,1150.625 L411.7188,1205.833 L412.1094,1151.667 L412.5,1138.125 L412.8906,1188.125 L413.2813,1133.958 L413.6719,1123.542 L414.0625,1174.583 L414.4531,1146.458 " stroke="blue" fill="none" />
<text x="50" y="1310" font-family="Arial" font-size="12" fill="black">Policy Loss</text>
<text x="50" y="1325" font-family="Arial" font-size="10" fill="black">0.008140804</text>
<text x="50" y="1540" font-family="Arial" font-size="10" fill="black">0.0005437866</text>
<path d="M50,1374.052 L53.125,1514.458 L56.25,1513.424 L59.375,1513.985 L62.5,1518.684 L65.625,1496.217 L68.75,1514.602 L71.875,1509.452 L75,1363.277 L78.125,1498.062 L81.25,1492.762 L84.375,1496.806 L87.5,1502.203 L90.625,1502.506 L93.75,1494.194 L96.875,1503.842 L100,1449.996 L103.125,1512.545 L106.25,1502.179 L109.375,1517.901 L112.5,1508.669 L115.625,1520.058 L118.75,1513.841 L121.875,1515.57 L125,1440.469 L128.125,1521.011 L131.25,1502.026 L134.375,1507.88 L137.5,1511.574 L140.625,1512.506 L143.75,1515.742 L146.875,1515.187 L150,1400.637 L153.125,1521.374 L156.25,1514.297 L159.375,1515.19 L162.5,1522.943 L165.625,1513.055 L168.75,1515.362 L171.875,1517.905 L175,1330 L178.125,1521.73 L181.25,1501.317 L184.375,1509.077 L187.5,1520.89 L190.625,1516.838 L193.75,1521.297 L196.875,1511.623 L200,1380.999 L203.125,1503.308 L206.25,1510.241 L209.375,1507.628 L212.5,1513.64 L215.625,1518.615 L218.75,1513.345 L221.875,1520.767 L225,1413.58 L228.125,1515.335 L231.25,1510.949 L234.375,1511.188 L237.5,1519.561 L240.625,1516.828 L243.75,1515.445 L246.875,1515.139 L250,1365.631 L253.125,1516.821 L256.25,1530 L259.375,1513.732 L262.5,1520.632 L265.625,1515.389 L268.75,1520.119 L271.875,1507.207 L275,1339.568 L278.125,1519.255 L281.25,1513.177 L284.375,1513.73 L287.5,1515.682 L290.625,1515.598 L293.75,1521.681 L296.875,1519.318 L300,1420.965 L303.125,1503.89 L306.25,1521.867 L309.375,1521.163 L312.5,1513.303 L315.625,1511.213 L318.75,1504.912 L321.875,1505.841 L325,1398.592 L328.125,1513.963 L331.25,1519.237 L334.375,1520.191 L337.5,1520.915 L340.625,1515.507 L343.75,1512.44 L346.875,1511.508 L350,1362.928 L353.125,1520.733 L356.25,1522.357 L359.375,1511.097 L362.5,1518.824 L365.625,1514.389 L368.75,1512.025 L371.875,1516.699 " stroke="blue" fill="none" />
<text x="50" y="1580" font-family="Arial" font-size="12" fill="black">Value Loss</text>
<text x="50" y="1595" font-family="Arial" font-size="10" fill="black">0.02106892</text>
<text x="50" y="1810" font-family="Arial" font-size="10" fill="black">0.008577428</text>
<path d="M50,1795.029 L53.125,1797.273 L56.25,1798.077 L59.375,1798.536 L62.5,1799.019 L65.625,1799.369 L68.75,1799.698 L71.875,1800 L75,1769.465 L78.125,1780.865 L81.25,1781.647 L84.375,1782.074 L87.5,1782.348 L90.625,1782.637 L93.75,1782.78 L96.875,1783.021 L100,1714.376 L103.125,1728.91 L106.25,1731.813 L109.375,1733.105 L112.5,1733.976 L115.625,1734.669 L118.75,1735.196 L121.875,1735.675 L125,1677.154 L128.125,1686.276 L131.25,1691.319 L134.375,1695.216 L137.5,1697.998 L140.625,1700.161 L143.75,1701.613 L146.875,1703.051 L150,1633.814 L153.125,1652.331 L156.25,1659.906 L159.375,1663.209 L162.5,1665.422 L165.625,1666.3 L168.75,1667.35 L171.875,1668.067 L175,1757.055 L178.125,1764.413 L181.25,1767.327 L184.375,1769.523 L187.5,1770.423 L190.625,1771.084 L193.75,1771.61 L196.875,1771.81 L200,1708.054 L203.125,1717.38 L206.25,1721.293 L209.375,1722.779 L212.5,1723.807 L215.625,1724.518 L218.75,1724.938 L221.875,1725.345 L225,1641.032 L228.125,1646.112 L231.25,1651.974 L234.375,1655.406 L237.5,1657.066 L240.625,1659.277 L243.75,1661.56 L246.875,1663.076 L250,1709.449 L253.125,1712.47 L256.25,1713.749 L259.375,1714.666 L262.5,1715.454 L265.625,1716.346 L268.75,1716.798 L271.875,1717.521 L275,1660.458 L278.125,1666.393 L281.25,1668.653 L284.375,1670.645 L287.5,1671.535 L290.625,1673.203 L293.75,1674.414 L296.875,1674.955 L300,1675.902 L303.125,1684.354 L306.25,1685.091 L309.375,1687.092 L312.5,1687.572 L315.625,1688.641 L318.75,1689.147 L321.875,1690.25 L325,1600 L328.125,1606.334 L331.25,1609.094 L334.375,1611.124 L337.5,1611.925 L340.625,1613.104 L343.75,1614.245 L346.875,1615.532 L350,1619.037 L353.125,1623.732 L356.25,1626.234 L359.375,1627.983 L362.5,1629.364 L365.625,1629.983 L368.75,1630.605 L371.875,1631.174 " stroke="blue" fill="none" />
<text x="50" y="1850" font-family="Arial" font-size="12" fill="black">Learning Rate</text>
<text x="50" y="1865" font-family="Arial" font-size="10" fill="black">0.0003</text>
<text x="50" y="2080" font-family="Arial" font-size="10" fill="black">0.0003</text>
<path d="M50,2070 L53.125,2070 L56.25,2070 L59.375,2070 L62.5,2070 L65.625,2070 L68.75,2070 L71.875,2070 L75,2070 L78.125,2070 L81.25,2070 L84.375,2070 L87.5,2070 L90.625,2070 L93.75,2070 L96.875,2070 L100,2070 L103.125,2070 L106.25,2070 L109.375,2070 L112.5,2070 L115.625,2070 L118.75,2070 L121.875,2070 L125,2070 L128.125,2070 L131.25,2070 L134.375,2070 L137.5,2070 L140.625,2070 L143.75,2070 L146.875,2070 L150,2070 L153.125,2070 L156.25,2070 L159.375,2070 L162.5,2070 L165.625,2070 L168.75,2070 L171.875,2070 L175,2070 L178.125,2070 L181.25,2070 L184.375,2070 L187.5,2070 L190.625,2070 L193.75,2070 L196.875,2070 L200,2070 L203.125,2070 L206.25,2070 L209.375,2070 L212.5,2070 L215.625,2070 L218.75,2070 L221.875,2070 L225,2070 L228.125,2070 L231.25,2070 L234.375,2070 L237.5,2070 L240.625,2070 L243.75,2070 L246.875,2070 L250,2070 L253.125,2070 L256.25,2070 L259.375,2070 L262.5,2070 L265.625,2070 L268.75,2070 L271.875,2070 L275,2070 L278.125,2070 L281.25,2070 L284.375,2070 L287.5,2070 L290.625,2070 L293.75,2070 L296.875,2070 L300,2070 L303.125,2070 L306.25,2070 L309.375,2070 L312.5,2070 L315.625,2070 L318.75,2070 L321.875,2070 L325,2070 L328.125,2070 L331.25,2070 L334.375,2070 L337.5,2070 L340.625,2070 L343.75,2070 L346.875,2070 L350,2070 L353.125,2070 L356.25,2070 L359.375,2070 L362.5,2070 L365.625,2070 L368.75,2070 L371.875,2070 " stroke="blue" fill="none" />
<text x="50" y="2120" font-family="Arial" font-size="12" fill="black">Epsilon</text>
<text x="50" y="2135" font-family="Arial" font-size="10" fill="black">0.2</text>
<text x="50" y="2350" font-family="Arial" font-size="10" fill="black">0.2</text>
<path d="M50,2340 L53.125,2340 L56.25,2340 L59.375,2340 L62.5,2340 L65.625,2340 L68.75,2340 L71.875,2340 L75,2340 L78.125,2340 L81.25,2340 L84.375,2340 L87.5,2340 L90.625,2340 L93.75,2340 L96.875,2340 L100,2340 L103.125,2340 L106.25,2340 L109.375,2340 L112.5,2340 L115.625,2340 L118.75,2340 L121.875,2340 L125,2340 L128.125,2340 L131.25,2340 L134.375,2340 L137.5,2340 L140.625,2340 L143.75,2340 L146.875,2340 L150,2340 L153.125,2340 L156.25,2340 L159.375,2340 L162.5,2340 L165.625,2340 L168.75,2340 L171.875,2340 L175,2340 L178.125,2340 L181.25,2340 L184.375,2340 L187.5,2340 L190.625,2340 L193.75,2340 L196.875,2340 L200,2340 L203.125,2340 L206.25,2340 L209.375,2340 L212.5,2340 L215.625,2340 L218.75,2340 L221.875,2340 L225,2340 L228.125,2340 L231.25,2340 L234.375,2340 L237.5,2340 L240.625,2340 L243.75,2340 L246.875,2340 L250,2340 L253.125,2340 L256.25,2340 L259.375,2340 L262.5,2340 L265.625,2340 L268.75,2340 L271.875,2340 L275,2340 L278.125,2340 L281.25,2340 L284.375,2340 L287.5,2340 L290.625,2340 L293.75,2340 L296.875,2340 L300,2340 L303.125,2340 L306.25,2340 L309.375,2340 L312.5,2340 L315.625,2340 L318.75,2340 L321.875,2340 L325,2340 L328.125,2340 L331.25,2340 L334.375,2340 L337.5,2340 L340.625,2340 L343.75,2340 L346.875,2340 L350,2340 L353.125,2340 L356.25,2340 L359.375,2340 L362.5,2340 L365.625,2340 L368.75,2340 L371.875,2340 " stroke="blue" fill="none" />
</svg>
