<svg width="2000" height="2500" xmlns="http://www.w3.org/2000/svg">
<text x="10" y="20" font-family="Arial" font-size="26" fill="black"> [HumanWalk] Training Session</text>
<text x="10" y="50" font-family="Arial" font-size="16" fill="black">[Statistics]</text>
<text x="50" y="70" font-family="Arial" font-size="12" fill="black">Started at: 6:36:00 PM, Wednesday, October 25, 2023</text>
<text x="50" y="90" font-family="Arial" font-size="12" fill="black">Finished at: 6:48:33 PM, Wednesday, October 25, 2023</text>
<text x="50" y="110" font-family="Arial" font-size="12" fill="black">Training Session Time: 0 hrs : 12 min : 30 sec</text>
<text x="50" y="130" font-family="Arial" font-size="12" fill="black">Inference Time: 0 hrs : 44 min : 24 sec       [Per agent: 0 hrs : 44 min : 24 sec]        [Device: CPU]</text>
<text x="50" y="150" font-family="Arial" font-size="12" fill="black">Policy Update Time: 0 hrs : 2 min : 20 sec        [Per iteration: 0 hrs : 0 min : 12 sec]        [Device: GPU]</text>
<text x="50" y="170" font-family="Arial" font-size="12" fill="black">Inference Time / Training Session Time: 3.542</text>
<text x="50" y="190" font-family="Arial" font-size="12" fill="black">Policy Update Time / Training Session Time: 0.187</text>
<text x="50" y="210" font-family="Arial" font-size="12" fill="black">Episode Count: 1676</text>
<text x="50" y="230" font-family="Arial" font-size="12" fill="black">Inference Steps: 66593    [Per agent: 66593]     [Per Episode (mean): 39]</text>
<text x="50" y="250" font-family="Arial" font-size="12" fill="black">Iterations: 11</text>
<text x="50" y="270" font-family="Arial" font-size="12" fill="black">Parallel Agents: 1</text>
<text x="50" y="290" font-family="Arial" font-size="12" fill="black">Timescale: 4.37</text>
<text x="10" y="340" font-family="Arial" font-size="16" fill="black">[Hyperparameters]</text>
<text x="50" y="360" font-family="Arial" font-size="12" fill="black">Buffer Size: 6000        [Batch Size: 400       (x15)]</text>
<text x="50" y="380" font-family="Arial" font-size="12" fill="black">Num Epoch: 8</text>
<text x="50" y="400" font-family="Arial" font-size="12" fill="black">Time Horizon: 64</text>
<text x="50" y="420" font-family="Arial" font-size="12" fill="black">Gradient Cliping Normalization: 0.5</text>
<text x="50" y="440" font-family="Arial" font-size="12" fill="black">Advantages Normalization: True</text>
<text x="50" y="460" font-family="Arial" font-size="12" fill="black">Training Data Shuffle: True</text>
<text x="50" y="480" font-family="Arial" font-size="12" fill="black">Learning Rate Schedule: False    </text>
<text x="10" y="530" font-family="Arial" font-size="16" fill="black">[Behaviour]</text>
<text x="50" y="550" font-family="Arial" font-size="12" fill="black">Space Size: 142</text>
<text x="50" y="570" font-family="Arial" font-size="12" fill="black">Continuous Actions: 29 [Standard Deviation: Trainable]     [Scale: 1]</text>
<text x="50" y="590" font-family="Arial" font-size="12" fill="black">Discrete Actions: 0</text>
<text x="50" y="610" font-family="Arial" font-size="12" fill="black">TargetFPS: 50 (physics update rate)</text>
<text x="50" y="630" font-family="Arial" font-size="12" fill="black">Observations Normalization: False</text>
<text x="10" y="680" font-family="Arial" font-size="16" fill="black">[Decision Requester]</text>
<text x="50" y="700" font-family="Arial" font-size="12" fill="black">Max Step: 3000</text>
<text x="50" y="720" font-family="Arial" font-size="12" fill="black">Decision Period: 2      [Actions Between Decisions: True]</text>
<text x="10" y="770" font-family="Arial" font-size="16" fill="black">[Graphs]</text>
<text x="50" y="790" font-family="Arial" font-size="12" fill="black">Episode Reward (1676)</text>
<text x="50" y="805" font-family="Arial" font-size="10" fill="black">5.94127</text>
<text x="50" y="1020" font-family="Arial" font-size="10" fill="black">0.870675</text>
<path d="M50,924.2267 L50.19531,911.8346 L50.39063,924.0162 L50.58594,944.1462 L50.78125,948.7814 L50.97656,898.2908 L51.17188,929.5097 L51.36719,920.3166 L51.5625,950.2396 L51.75781,938.6712 L51.95313,941.8109 L52.14844,936.207 L52.34375,937.5544 L52.53906,960.8123 L52.73438,929.2613 L52.92969,898.3089 L53.125,920.4373 L53.32031,901.6631 L53.51563,896.0198 L53.71094,943.9598 L53.90625,949.7509 L54.10156,938.8951 L54.29688,916.0862 L54.49219,888.4222 L54.6875,927.3066 L54.88281,906.7357 L55.07813,976.2191 L55.27344,932.8641 L55.46875,935.6626 L55.66406,930.2191 L55.85938,941.7273 L56.05469,937.699 L56.25,925.0504 L56.44531,929.9636 L56.64063,933.1962 L56.83594,937.2064 L57.03125,935.3115 L57.22656,934.5609 L57.42188,939.9659 L57.61719,876.8145 L57.8125,919.3712 L58.00781,917.5784 L58.20313,968.7887 L58.39844,920.0758 L58.59375,968.7063 L58.78906,919.8139 L58.98438,947.683 L59.17969,918.0651 L59.375,930.1426 L59.57031,897.4828 L59.76563,903.7089 L59.96094,880.362 L60.15625,957.0349 L60.35156,944.4039 L60.54688,895.5679 L60.74219,892.4287 L60.9375,941.7885 L61.13281,936.0181 L61.32813,933.1054 L61.52344,895.0795 L61.71875,960.5109 L61.91406,935.1622 L62.10938,933.8716 L62.30469,878.3159 L62.5,962.8496 L62.69531,945.3383 L62.89063,964.0272 L63.08594,938.3844 L63.28125,890.2393 L63.47656,953.134 L63.67188,914.1738 L63.86719,909.1608 L64.0625,909.4742 L64.25781,902.5071 L64.45313,901.4155 L64.64844,969.2213 L64.84375,917.1506 L65.03906,900.1722 L65.23438,936.3517 L65.42969,907.7199 L65.625,955.9927 L65.82031,914.0926 L66.01563,933.3619 L66.21094,880.8092 L66.40625,920.3611 L66.60156,937.7824 L66.79688,953.8165 L66.99219,943.5933 L67.1875,873.4127 L67.38281,927.8228 L67.57813,937.915 L67.77344,907.2304 L67.96875,925.7149 L68.16406,950.9625 L68.35938,954.1738 L68.55469,944.0459 L68.75,1010 L68.94531,919.03 L69.14063,930.7184 L69.33594,886.2814 L69.53125,959.1058 L69.72656,918.3793 L69.92188,953.9911 L70.11719,949.6265 L70.3125,875.8022 L70.50781,948.5538 L70.70313,953.7065 L70.89844,924.1748 L71.09375,922.637 L71.28906,875.0562 L71.48438,929.6378 L71.67969,912.226 L71.875,906.2431 L72.07031,937.3829 L72.26563,944.7043 L72.46094,954.9751 L72.65625,929.7152 L72.85156,922.7319 L73.04688,935.1843 L73.24219,944.4349 L73.4375,947.4464 L73.63281,926.8928 L73.82813,909.9593 L74.02344,944.8769 L74.21875,912.9659 L74.41406,917.783 L74.60938,898.8668 L74.80469,934.4089 L75,921.438 L75.19531,938.9324 L75.39063,932.6571 L75.58594,959.2946 L75.78125,903.8163 L75.97656,958.1263 L76.17188,884.2086 L76.36719,918.9406 L76.5625,928.6852 L76.75781,925.8152 L76.95313,935.8171 L77.14844,945.3583 L77.34375,927.3276 L77.53906,944.5046 L77.73438,936.8871 L77.92969,893.1432 L78.125,913.6752 L78.32031,938.8439 L78.51563,926.9424 L78.71094,913.416 L78.90625,942.1756 L79.10156,931.8825 L79.29688,880.6684 L79.49219,888.6056 L79.6875,954.5128 L79.88281,928.1765 L80.07813,926.1617 L80.27344,910.9853 L80.46875,898.5241 L80.66406,915.7725 L80.85938,925.3427 L81.05469,917.5467 L81.25,906.5836 L81.44531,903.9684 L81.64063,948.9728 L81.83594,962.8872 L82.03125,947.9857 L82.22656,914.481 L82.42188,948.2743 L82.61719,923.347 L82.8125,970.4917 L83.00781,957.7572 L83.20313,896.931 L83.39844,927.6767 L83.59375,943.5637 L83.78906,878.8563 L83.98438,921.3685 L84.17969,939.4483 L84.375,919.2352 L84.57031,932.6633 L84.76563,889.7438 L84.96094,946.9171 L85.15625,911.3403 L85.35156,924.5112 L85.54688,931.8382 L85.74219,930.6607 L85.9375,955.7417 L86.13281,915.6408 L86.32813,903.2238 L86.52344,947.4965 L86.71875,922.367 L86.91406,934.4258 L87.10938,923.0085 L87.30469,900.0935 L87.5,924.3243 L87.69531,936.8112 L87.89063,914.3166 L88.08594,939.0601 L88.28125,885.1927 L88.47656,919.1915 L88.67188,867.9333 L88.86719,888.4241 L89.0625,906.9487 L89.25781,887.9659 L89.45313,896.0302 L89.64844,929.379 L89.84375,941.5592 L90.03906,933.4203 L90.23438,908.895 L90.42969,965.3727 L90.625,920.7868 L90.82031,952.3149 L91.01563,911.9701 L91.21094,932.6841 L91.40625,937.6619 L91.60156,844.5969 L91.79688,932.2567 L91.99219,913.5978 L92.1875,889.4625 L92.38281,924.8369 L92.57813,824.8056 L92.77344,928.9569 L92.96875,916.1964 L93.16406,929.0759 L93.35938,968.9086 L93.55469,920.6445 L93.75,976.8875 L93.94531,931.7417 L94.14063,890.3933 L94.33594,900.1818 L94.53125,942.6492 L94.72656,961.9586 L94.92188,919.6095 L95.11719,902.7982 L95.3125,906.6638 L95.50781,917.0795 L95.70313,935.7245 L95.89844,944.1316 L96.09375,810 L96.28906,927.2827 L96.48438,939.4062 L96.67969,926.3412 L96.875,933.9327 L97.07031,926.2866 L97.26563,958.6923 L97.46094,952.693 L97.65625,925.6834 L97.85156,911.5113 L98.04688,904.5101 L98.24219,926.2225 L98.4375,942.1594 L98.63281,898.7661 L98.82813,937.7465 L99.02344,907.7405 L99.21875,933.3431 L99.41406,900.5329 L99.60938,944.1885 L99.80469,920.7427 L100,914.4343 L100.1953,903.6368 L100.3906,917.2316 L100.5859,967.8056 L100.7813,922.9996 L100.9766,947.6002 L101.1719,956.4735 L101.3672,947.7153 L101.5625,928.9307 L101.7578,938.5156 L101.9531,950.7873 L102.1484,936.2192 L102.3438,930.392 L102.5391,859.5735 L102.7344,902.3931 L102.9297,856.5402 L103.125,916.6009 L103.3203,918.2015 L103.5156,955.8101 L103.7109,921.6448 L103.9063,967.4687 L104.1016,847.952 L104.2969,928.8702 L104.4922,936.7674 L104.6875,934.4038 L104.8828,958.7632 L105.0781,931.5818 L105.2734,939.678 L105.4688,917.5124 L105.6641,921.1167 L105.8594,895.1978 L106.0547,873.0698 L106.25,917.3563 L106.4453,919.6237 L106.6406,905.8764 L106.8359,911.1652 L107.0313,922.7041 L107.2266,942.7574 L107.4219,922.1631 L107.6172,960.8184 L107.8125,945.4742 L108.0078,900.8821 L108.2031,925.637 L108.3984,953.3563 L108.5938,957.2116 L108.7891,924.2753 L108.9844,925.2838 L109.1797,947.9274 L109.375,946.2831 L109.5703,912.2289 L109.7656,926.3907 L109.9609,938.8135 L110.1563,938.0242 L110.3516,960.0795 L110.5469,940.6487 L110.7422,916.3179 L110.9375,932.8854 L111.1328,937.7338 L111.3281,910.5304 L111.5234,922.7172 L111.7188,906.5288 L111.9141,955.0121 L112.1094,893.5669 L112.3047,869.6034 L112.5,919.7393 L112.6953,937.3359 L112.8906,919.3693 L113.0859,907.5305 L113.2813,942.354 L113.4766,954.5379 L113.6719,920.4247 L113.8672,924.011 L114.0625,959.8373 L114.2578,923.2178 L114.4531,935.5273 L114.6484,935.7891 L114.8438,917.938 L115.0391,927.3806 L115.2344,910.8577 L115.4297,939.4407 L115.625,925.0333 L115.8203,916.7467 L116.0156,907.4292 L116.2109,944.827 L116.4063,934.2225 L116.6016,915.6084 L116.7969,919.7066 L116.9922,964.9631 L117.1875,906.1787 L117.3828,945.8114 L117.5781,941.7921 L117.7734,945.481 L117.9688,952.5923 L118.1641,928.9837 L118.3594,909.9466 L118.5547,959.3251 L118.75,860.2966 L118.9453,885.687 L119.1406,917.3128 L119.3359,921.4777 L119.5313,937.6197 L119.7266,934.8858 L119.9219,943.0796 L120.1172,891.5469 L120.3125,926.7194 L120.5078,920.4363 L120.7031,948.556 L120.8984,919.215 L121.0938,925.8108 L121.2891,932.8525 L121.4844,911.0981 L121.6797,933.8702 L121.875,946.634 L122.0703,931.237 L122.2656,922.5811 L122.4609,947.04 L122.6563,941.7939 L122.8516,949.1399 L123.0469,941.4617 L123.2422,888.3672 L123.4375,910.9586 L123.6328,940.5459 L123.8281,934.108 L124.0234,910.768 L124.2188,921.9956 L124.4141,866.482 L124.6094,922.5638 L124.8047,900.1978 L125,899.5613 L125.1953,935.7603 L125.3906,928.1024 L125.5859,852.5153 L125.7813,946.7059 L125.9766,934.9738 L126.1719,940.7496 L126.3672,921.7016 L126.5625,891.9529 L126.7578,916.1702 L126.9531,906.3376 L127.1484,922.2435 L127.3438,916.7162 L127.5391,912.0195 L127.7344,942.1793 L127.9297,843.7437 L128.125,950.9807 L128.3203,968.0592 L128.5156,936.4999 L128.7109,922.2164 L128.9063,955.1102 L129.1016,909.3281 L129.2969,932.5727 L129.4922,946.9081 L129.6875,881.0656 L129.8828,893.9301 L130.0781,948.6474 L130.2734,944.4666 L130.4688,918.9443 L130.6641,868.8094 L130.8594,950.7101 L131.0547,904.4255 L131.25,926.3559 L131.4453,930.2509 L131.6406,913.0255 L131.8359,951.1722 L132.0313,926.7573 L132.2266,921.4014 L132.4219,908.3453 L132.6172,941.687 L132.8125,949.7971 L133.0078,934.0626 L133.2031,929.7834 L133.3984,923.2503 L133.5938,950.9504 L133.7891,855.5811 L133.9844,926.7692 L134.1797,954.428 L134.375,914.6288 L134.5703,912.2772 L134.7656,926.9984 L134.9609,910.0731 L135.1563,926.651 L135.3516,947.9828 L135.5469,937.626 L135.7422,925.3717 L135.9375,898.0093 L136.1328,907.9483 L136.3281,883.1707 L136.5234,912.9243 L136.7188,923.3044 L136.9141,949.6266 L137.1094,863.2612 L137.3047,911.395 L137.5,900.8998 L137.6953,921.6139 L137.8906,934.9116 L138.0859,915.8543 L138.2813,942.2838 L138.4766,958.0736 L138.6719,906.1129 L138.8672,922.5908 L139.0625,927.8708 L139.2578,944.5708 L139.4531,967.8372 L139.6484,921.5897 L139.8438,925.6609 L140.0391,931.9624 L140.2344,933.5519 L140.4297,925.8731 L140.625,880.2804 L140.8203,925.8053 L141.0156,890.8312 L141.2109,889.2123 L141.4063,891.3405 L141.6016,911.3886 L141.7969,853.6236 L141.9922,882.7512 L142.1875,919.6595 L142.3828,950.5891 L142.5781,904.1039 L142.7734,916.17 L142.9688,932.617 L143.1641,918.0057 L143.3594,916.1375 L143.5547,926.1591 L143.75,893.1868 L143.9453,950.5331 L144.1406,974.6796 L144.3359,937.8254 L144.5313,910.7809 L144.7266,898.092 L144.9219,953.6839 L145.1172,929.4568 L145.3125,950.7311 L145.5078,911.1877 L145.7031,959.6814 L145.8984,931.5723 L146.0938,904.5714 L146.2891,917.6142 L146.4844,937.6113 L146.6797,925.1577 L146.875,941.6617 L147.0703,907.5986 L147.2656,893.0123 L147.4609,927.4438 L147.6563,918.2908 L147.8516,919.7457 L148.0469,938.7816 L148.2422,918.6171 L148.4375,959.2234 L148.6328,898.1398 L148.8281,906.921 L149.0234,914.7813 L149.2188,909.2958 L149.4141,932.1703 L149.6094,882.7968 L149.8047,934.9264 L150,914.257 L150.1953,908.9285 L150.3906,923.3089 L150.5859,952.5123 L150.7813,930.0545 L150.9766,891.9202 L151.1719,966.1202 L151.3672,940.6188 L151.5625,872.8954 L151.7578,914.2905 L151.9531,945.0156 L152.1484,964.7366 L152.3438,940.7151 L152.5391,941.5551 L152.7344,903.8598 L152.9297,922.906 L153.125,939.7636 L153.3203,927.8467 L153.5156,937.1079 L153.7109,949.9058 L153.9063,935.9213 L154.1016,922.3328 L154.2969,953.9742 L154.4922,940.1724 L154.6875,969.002 L154.8828,920.4636 L155.0781,943.9127 L155.2734,907.6799 L155.4688,954.4113 L155.6641,939.0861 L155.8594,957.4592 L156.0547,927.5592 L156.25,972.5259 L156.4453,892.4365 L156.6406,942.2731 L156.8359,956.6141 L157.0313,901.4577 L157.2266,927.5309 L157.4219,917.5533 L157.6172,923.4495 L157.8125,950.2455 L158.0078,936.3646 L158.2031,911.6056 L158.3984,959.0215 L158.5938,849.7198 L158.7891,930.1268 L158.9844,935.9454 L159.1797,948.3693 L159.375,922.4494 L159.5703,909.3118 L159.7656,952.1638 L159.9609,936.6824 L160.1563,935.3054 L160.3516,942.4594 L160.5469,948.7322 L160.7422,915.8214 L160.9375,961.1443 L161.1328,922.8958 L161.3281,919.8229 L161.5234,943.9712 L161.7188,941.4866 L161.9141,943.8266 L162.1094,917.9016 L162.3047,906.3514 L162.5,932.0322 L162.6953,888.8903 L162.8906,920.0004 L163.0859,928.4225 L163.2813,957.7177 L163.4766,933.6671 L163.6719,932.0247 L163.8672,928.1442 L164.0625,922.4596 L164.2578,919.4279 L164.4531,935.1023 L164.6484,915.3608 L164.8438,915.1924 L165.0391,933.5024 L165.2344,937.899 L165.4297,928.6481 L165.625,938.7707 L165.8203,866.5133 L166.0156,964.0337 L166.2109,930.4438 L166.4063,968.3058 L166.6016,852.6528 L166.7969,919.0238 L166.9922,905.524 L167.1875,963.1733 L167.3828,933.5214 L167.5781,843.0519 L167.7734,948.0693 L167.9688,929.7003 L168.1641,940.0575 L168.3594,910.236 L168.5547,938.3493 L168.75,902.8977 L168.9453,923.6103 L169.1406,930.0021 L169.3359,927.1008 L169.5313,920.4924 L169.7266,938.0656 L169.9219,934.6114 L170.1172,938.8105 L170.3125,959.0469 L170.5078,971.9117 L170.7031,921.5859 L170.8984,906.6916 L171.0938,889.9659 L171.2891,956.4121 L171.4844,888.3446 L171.6797,921.9616 L171.875,956.1062 L172.0703,884.8853 L172.2656,942.8763 L172.4609,929.0446 L172.6563,918.627 L172.8516,918.678 L173.0469,912.7371 L173.2422,880.3495 L173.4375,942.0925 L173.6328,914.0184 L173.8281,900.1273 L174.0234,918.9738 L174.2188,889.8512 L174.4141,870.9877 L174.6094,934.8723 L174.8047,933 L175,871.4005 L175.1953,928.8931 L175.3906,946.6184 L175.5859,957.2531 L175.7813,908.8521 L175.9766,950.8184 L176.1719,960.1608 L176.3672,885.3788 L176.5625,935.802 L176.7578,912.777 L176.9531,926.0726 L177.1484,905.1935 L177.3438,921.9158 L177.5391,933.1347 L177.7344,902.7111 L177.9297,909.8304 L178.125,910.9329 L178.3203,923.2139 L178.5156,962.0226 L178.7109,905.1621 L178.9063,926.1466 L179.1016,949.614 L179.2969,938.3575 L179.4922,931.7255 L179.6875,937.8303 L179.8828,927.1549 L180.0781,932.3126 L180.2735,898.7 L180.4688,948.4939 L180.6641,894.4025 L180.8594,926.0649 L181.0547,947.9677 L181.25,953.8832 L181.4453,976.5797 L181.6406,912.6958 L181.8359,893.8552 L182.0313,964.3013 L182.2266,929.7589 L182.4219,976.6966 L182.6172,913.8685 L182.8125,922.5758 L183.0078,914.8995 L183.2031,913.1095 L183.3984,939.3434 L183.5938,938.4436 L183.7891,893.7365 L183.9844,904.2709 L184.1797,956.4626 L184.375,943.4653 L184.5703,927.9514 L184.7656,934.3357 L184.9609,923.6759 L185.1563,953.8265 L185.3516,915.9086 L185.5469,936.8981 L185.7422,945.5303 L185.9375,925.2513 L186.1328,918.1652 L186.3281,935.9946 L186.5234,956.69 L186.7188,955.9922 L186.9141,904.4737 L187.1094,943.1208 L187.3047,930.6279 L187.5,932.3566 L187.6953,889.1424 L187.8906,920.564 L188.086,906.8637 L188.2813,930.3198 L188.4766,955.1324 L188.6719,917.3442 L188.8672,936.1297 L189.0625,912.1136 L189.2578,940.4033 L189.4531,853.1165 L189.6484,935.7894 L189.8438,913.9014 L190.0391,906.3783 L190.2344,910.2968 L190.4297,920.1161 L190.625,923.5913 L190.8203,908.6976 L191.0156,916.3983 L191.2109,916.6042 L191.4063,942.1809 L191.6016,944.3633 L191.7969,917.2627 L191.9922,933.469 L192.1875,885.73 L192.3828,890.2292 L192.5781,902.0869 L192.7734,939.6752 L192.9688,892.1841 L193.1641,946.2672 L193.3594,964.3631 L193.5547,876.9468 L193.75,944.9069 L193.9453,833.2944 L194.1406,939.3367 L194.3359,932.0387 L194.5313,967.0467 L194.7266,965.9301 L194.9219,937.5283 L195.1172,928.002 L195.3125,914.5313 L195.5078,894.4185 L195.7031,906.2496 L195.8985,917.4755 L196.0938,949.2436 L196.2891,921.0021 L196.4844,919.6472 L196.6797,934.5847 L196.875,933.8875 L197.0703,944.8004 L197.2656,928.3183 L197.4609,939.421 L197.6563,924.8169 L197.8516,899.0504 L198.0469,896.603 L198.2422,943.2598 L198.4375,963.5887 L198.6328,948.9348 L198.8281,934.9978 L199.0234,895.1583 L199.2188,885.5967 L199.4141,939.3035 L199.6094,936.345 L199.8047,941.0451 L200,923.0593 L200.1953,921.7426 L200.3906,907.2255 L200.5859,919.7297 L200.7813,945.1378 L200.9766,917.4711 L201.1719,944.9589 L201.3672,934.429 L201.5625,937.8451 L201.7578,943.0345 L201.9531,966.6633 L202.1484,941.7231 L202.3438,900.8701 L202.5391,943.34 L202.7344,931.4696 L202.9297,920.9554 L203.125,935.7534 L203.3203,913.9583 L203.5156,878.9019 L203.711,963.1885 L203.9063,950.808 L204.1016,939.7103 L204.2969,944.256 L204.4922,936.29 L204.6875,893.5521 L204.8828,867.5925 L205.0781,927.9708 L205.2734,907.0836 L205.4688,915.2065 L205.6641,880.4469 L205.8594,909.3988 L206.0547,935.7711 L206.25,936.6549 L206.4453,942.1121 L206.6406,955.8962 L206.8359,945.986 L207.0313,918.3625 L207.2266,925.6639 L207.4219,969.4957 L207.6172,890.7269 L207.8125,943.0183 L208.0078,926.7932 L208.2031,947.8727 L208.3984,938.7578 L208.5938,930.5018 L208.7891,880.455 L208.9844,931.7322 L209.1797,945.0636 L209.375,916.0871 L209.5703,871.3936 L209.7656,940.8698 L209.9609,880.0422 L210.1563,931.5397 L210.3516,913.9041 L210.5469,943.9707 L210.7422,843.311 L210.9375,923.3561 L211.1328,928.0881 L211.3281,928.3967 L211.5235,941.9185 L211.7188,961.9244 L211.9141,941.1567 L212.1094,898.3875 L212.3047,930.7298 L212.5,891.1049 L212.6953,951.1292 L212.8906,922.0392 L213.0859,936.3239 L213.2813,878.2133 L213.4766,937.2692 L213.6719,955.1143 L213.8672,927.7003 L214.0625,929.7302 L214.2578,968.3987 L214.4531,934.5349 L214.6484,936.9395 L214.8438,908.2814 L215.0391,921.637 L215.2344,878.9393 L215.4297,931.8406 L215.625,946.6885 L215.8203,919.0065 L216.0156,932.501 L216.2109,873.8571 L216.4063,904.5725 L216.6016,926.0112 L216.7969,921.5811 L216.9922,923.1444 L217.1875,931.9307 L217.3828,894.0751 L217.5781,917.0195 L217.7734,928.079 L217.9688,892.4722 L218.1641,892.778 L218.3594,921.7865 L218.5547,890.9851 L218.75,921.6052 L218.9453,863.3942 L219.1406,948.6843 L219.336,931.9813 L219.5313,907.7034 L219.7266,1000.538 L219.9219,911.7416 L220.1172,916.6985 L220.3125,934.1595 L220.5078,921.5452 L220.7031,906.5784 L220.8984,909.4482 L221.0938,932.5001 L221.2891,925.9196 L221.4844,923.4697 L221.6797,943.604 L221.875,952.7017 L222.0703,949.8467 L222.2656,909.9288 L222.4609,906.8665 L222.6563,950.6544 L222.8516,951.1754 L223.0469,953.0806 L223.2422,946.3197 L223.4375,910.6735 L223.6328,911.8906 L223.8281,915.3178 L224.0234,931.05 L224.2188,901.6213 L224.4141,942.4487 L224.6094,919.9125 L224.8047,923.6171 L225,953.6122 L225.1953,903.0742 L225.3906,936.6586 L225.5859,916.8834 L225.7813,931.23 L225.9766,890.1903 L226.1719,942.4605 L226.3672,913.435 L226.5625,966.0151 L226.7578,938.0139 L226.9531,920.3099 L227.1485,940.5967 L227.3438,938.3028 L227.5391,893.4576 L227.7344,946.0463 L227.9297,937.1081 L228.125,920.7862 L228.3203,952.075 L228.5156,929.0249 L228.7109,926.1664 L228.9063,916.7988 L229.1016,919.1495 L229.2969,919.0134 L229.4922,943.7456 L229.6875,901.4684 L229.8828,940.8199 L230.0781,905.3385 L230.2734,907.5912 L230.4688,925.6237 L230.6641,952.4376 L230.8594,945.578 L231.0547,916.8301 L231.25,941.9809 L231.4453,901.1024 L231.6406,896.9742 L231.8359,914.9869 L232.0313,953.3436 L232.2266,930.024 L232.4219,895.9567 L232.6172,960.5952 L232.8125,868.3584 L233.0078,920.067 L233.2031,879.4361 L233.3984,976.9391 L233.5938,882.2259 L233.7891,964.6478 L233.9844,918.7213 L234.1797,961.0287 L234.375,918.6661 L234.5703,927.3805 L234.7656,932.4563 L234.961,901.0067 L235.1563,915.8008 L235.3516,945.4526 L235.5469,913.3333 L235.7422,935.6094 L235.9375,947.0734 L236.1328,947.6854 L236.3281,945.7733 L236.5234,920.5901 L236.7188,871.9344 L236.9141,923.5229 L237.1094,945.5226 L237.3047,913.9249 L237.5,917.3755 L237.6953,922.1139 L237.8906,957.5037 L238.0859,895.934 L238.2813,920.9669 L238.4766,971.6992 L238.6719,933.1415 L238.8672,926.6517 L239.0625,936.1948 L239.2578,960.4405 L239.4531,934.8284 L239.6484,960.9353 L239.8438,897.6533 L240.0391,845.9855 L240.2344,929.5588 L240.4297,946.7191 L240.625,970.3754 L240.8203,921.4238 L241.0156,942.9846 L241.2109,976.2628 L241.4063,908.8729 L241.6016,911.2022 L241.7969,905.8587 L241.9922,943.696 L242.1875,956.7697 L242.3828,936.013 L242.5781,830.917 L242.7735,953.8145 L242.9688,920.4512 L243.1641,884.2177 L243.3594,932.6532 L243.5547,951.446 L243.75,894.0743 L243.9453,910.5335 L244.1406,878.2723 L244.3359,896.5544 L244.5313,926.4804 L244.7266,927.8589 L244.9219,896.2594 L245.1172,914.4844 L245.3125,856.5243 L245.5078,928.6047 L245.7031,924.6113 L245.8984,909.7291 L246.0938,924.0482 L246.2891,941.2021 L246.4844,908.9612 L246.6797,921.1356 L246.875,953.2792 L247.0703,943.1852 L247.2656,971.0254 L247.4609,922.8282 L247.6563,945.1779 L247.8516,916.3816 L248.0469,904.1431 L248.2422,928.8595 L248.4375,949.821 L248.6328,889.1489 L248.8281,967.6193 L249.0234,938.0129 L249.2188,929.3453 L249.4141,929.2226 L249.6094,942.0073 L249.8047,885.1515 L250,917.6611 L250.1953,900.8904 L250.3906,902.3811 L250.586,919.84 L250.7813,942.7866 L250.9766,898.7599 L251.1719,936.856 L251.3672,913.2402 L251.5625,910.1476 L251.7578,947.23 L251.9531,905.0684 L252.1484,944.5002 L252.3438,941.177 L252.5391,945.3905 L252.7344,937.5809 L252.9297,933.8904 L253.125,943.6656 L253.3203,907.1214 L253.5156,899.2455 L253.7109,929.1119 L253.9063,946.0126 L254.1016,914.9349 L254.2969,907.1394 L254.4922,888.758 L254.6875,921.2459 L254.8828,909.2809 L255.0781,924.453 L255.2734,942.4368 L255.4688,825.2622 L255.6641,902.1003 L255.8594,924.6214 L256.0547,912.7246 L256.25,942.4484 L256.4453,926.5115 L256.6406,942.697 L256.8359,952.8715 L257.0313,925.3093 L257.2266,954.4648 L257.4219,951.3586 L257.6172,929.1216 L257.8125,952.9749 L258.0078,916.7499 L258.2031,915.6422 L258.3984,883.4873 L258.5938,948.2361 L258.7891,939.546 L258.9844,978.9778 L259.1797,908.8363 L259.375,945.4849 L259.5703,907.8024 L259.7656,944.1248 L259.9609,915.3454 L260.1563,959.2441 L260.3516,908.9243 L260.5469,931.5652 L260.7422,948.0894 L260.9375,918.4387 L261.1328,947.9369 L261.3281,941.2925 L261.5234,876.858 L261.7188,920.0517 L261.9141,863.0787 L262.1094,910.6871 L262.3047,905.3491 L262.5,969.2273 L262.6953,936.5374 L262.8906,931.2865 L263.0859,910.1588 L263.2813,948.6107 L263.4766,902.8248 L263.6719,951.471 L263.8672,918.2121 L264.0625,946.1996 L264.2578,883.836 L264.4531,901.8571 L264.6484,921.6797 L264.8438,922.9012 L265.0391,921.3472 L265.2344,862.7114 L265.4297,941.6235 L265.625,913.9161 L265.8203,887.3126 L266.0156,911.2789 L266.2109,951.167 L266.4063,929.8362 L266.6016,928.2258 L266.7969,941.674 L266.9922,968.579 L267.1875,908.8932 L267.3828,914.9244 L267.5781,898.0766 L267.7734,910.6732 L267.9688,949.9809 L268.1641,928.3055 L268.3594,907.4194 L268.5547,959.9962 L268.75,887.297 L268.9453,949.3926 L269.1406,910.1797 L269.3359,907.3922 L269.5313,888.0117 L269.7266,938.1866 L269.9219,917.4788 L270.1172,897.8929 L270.3125,906.11 L270.5078,952.3818 L270.7031,884.9161 L270.8984,894.7471 L271.0938,922.0255 L271.2891,935.7266 L271.4844,899.7951 L271.6797,898.2643 L271.875,889.0964 L272.0703,950.9917 L272.2656,934.1789 L272.4609,925.3033 L272.6563,949.9811 L272.8516,954.2618 L273.0469,894.8051 L273.2422,938.1226 L273.4375,896.7513 L273.6328,948.9224 L273.8281,898.8296 L274.0234,928.4522 L274.2188,926.473 L274.4141,896.3137 L274.6094,890.2216 L274.8047,923.6902 L275,919.1719 L275.1953,974.5971 L275.3906,898.6691 L275.5859,933.5941 L275.7813,927.6801 L275.9766,929.8265 L276.1719,913.1337 L276.3672,894.2286 L276.5625,875.1085 L276.7578,934.3956 L276.9531,908.1984 L277.1484,914.415 L277.3438,959.8922 L277.5391,916.9249 L277.7344,919.6663 L277.9297,926.3238 L278.125,947.6442 L278.3203,949.1128 L278.5156,941.2333 L278.7109,904.192 L278.9063,931.9575 L279.1016,936.7696 L279.2969,899.8811 L279.4922,925.2529 L279.6875,937.6812 L279.8828,896.3435 L280.0781,929.0281 L280.2734,899.3361 L280.4688,940.7104 L280.6641,918.9266 L280.8594,927.6709 L281.0547,877.4789 L281.25,951.6686 L281.4453,916.1752 L281.6406,915.1513 L281.8359,901.7369 L282.0313,906.2466 L282.2266,951.3181 L282.4219,928.7795 L282.6172,890.0587 L282.8125,910.2186 L283.0078,910.1162 L283.2031,925.824 L283.3984,947.8056 L283.5938,929.406 L283.7891,945.5143 L283.9844,940.6581 L284.1797,922.4932 L284.375,930.9156 L284.5703,925.347 L284.7656,921.7227 L284.9609,920.3406 L285.1563,935.4402 L285.3516,970.0278 L285.5469,965.2391 L285.7422,940.3281 L285.9375,929.8137 L286.1328,930.7544 L286.3281,924.295 L286.5234,935.0297 L286.7188,918.9165 L286.9141,950.6296 L287.1094,932.7589 L287.3047,942.4332 L287.5,858.2324 L287.6953,954.9818 L287.8906,895.6682 L288.0859,935.673 L288.2813,877.636 L288.4766,902.6247 L288.6719,929.5745 L288.8672,923.6702 L289.0625,921.834 L289.2578,922.5973 L289.4531,872.5586 L289.6484,934.8162 L289.8438,901.2714 L290.0391,885.7583 L290.2344,925.3366 L290.4297,897.1007 L290.625,863.4988 L290.8203,870.4262 L291.0156,919.9251 L291.2109,917.6448 L291.4063,938.8387 L291.6016,934.7592 L291.7969,908.8184 L291.9922,956.8787 L292.1875,901.3905 L292.3828,916.6241 L292.5781,912.674 L292.7734,950.4477 L292.9688,871.7986 L293.1641,906.627 L293.3594,944.9108 L293.5547,922.1073 L293.75,906.7388 L293.9453,932.0441 L294.1406,926.0339 L294.3359,942.9993 L294.5313,869.0693 L294.7266,908.0133 L294.9219,869.4975 L295.1172,939.4338 L295.3125,943.4816 L295.5078,933.8359 L295.7031,916.7898 L295.8984,929.1405 L296.0938,922.011 L296.2891,884.5056 L296.4844,913.691 L296.6797,909.4659 L296.875,928.0128 L297.0703,921.1985 L297.2656,925.7998 L297.4609,881.6252 L297.6563,924.3243 L297.8516,895.9081 L298.0469,920.8893 L298.2422,926.382 L298.4375,925.7806 L298.6328,940.0917 L298.8281,894.131 L299.0234,886.3215 L299.2188,910.3018 L299.4141,920.882 L299.6094,922.281 L299.8047,938.5073 L300,973.675 L300.1953,943.6923 L300.3906,937.2854 L300.5859,929.6898 L300.7813,911.486 L300.9766,959.4612 L301.1719,947.4271 L301.3672,903.0765 L301.5625,948.5302 L301.7578,930.477 L301.9531,936.8983 L302.1484,926.0263 L302.3438,951.0045 L302.5391,891.3759 L302.7344,927.5543 L302.9297,938.884 L303.125,887.7372 L303.3203,945.0074 L303.5156,920.2637 L303.711,967.6477 L303.9063,931.4071 L304.1016,898.0536 L304.2969,931.9476 L304.4922,920.0506 L304.6875,911.2479 L304.8828,955.6955 L305.0781,931.066 L305.2734,893.3927 L305.4688,899.6672 L305.6641,919.9861 L305.8594,924.8859 L306.0547,899.002 L306.25,910.0561 L306.4453,931.5534 L306.6407,950.3378 L306.8359,929.3978 L307.0313,894.2571 L307.2266,939.0819 L307.4219,920.7583 L307.6172,924.9628 L307.8125,922.8471 L308.0078,940.804 L308.2031,930.233 L308.3984,955.2026 L308.5938,913.3549 L308.7891,916.6548 L308.9844,908.1154 L309.1797,916.8173 L309.375,912.52 L309.5703,927.0316 L309.7656,956.7687 L309.9609,855.0966 L310.1563,933.0815 L310.3516,911.7861 L310.5469,934.2584 L310.7422,921.4518 L310.9375,924.0429 L311.1328,921.6545 L311.3281,888.644 L311.5235,910.0018 L311.7188,939.2359 L311.9141,955.6804 L312.1094,974.7534 L312.3047,824.0403 L312.5,857.1891 L312.6953,940.996 L312.8906,932.0704 L313.0859,899.1311 L313.2813,905.8774 L313.4766,919.3248 L313.6719,901.1749 L313.8672,822.3514 L314.0625,867.1344 L314.2578,932.4621 L314.4532,876.2698 L314.6484,902.4641 L314.8438,909.0204 L315.0391,932.3945 L315.2344,926.914 L315.4297,939.98 L315.625,928.6072 L315.8203,924.3276 L316.0156,884.8929 L316.2109,950.7569 L316.4063,925.1918 L316.6016,944.736 L316.7969,896.6442 L316.9922,928.3793 L317.1875,922.5713 L317.3828,988.3916 L317.5781,884.5419 L317.7734,944.7818 L317.9688,920.1628 L318.1641,945.0604 L318.3594,923.2415 L318.5547,914.447 L318.75,908.7509 L318.9453,924.8637 L319.1406,955.5057 L319.336,935.6727 L319.5313,903.9246 L319.7266,926.9315 L319.9219,933.1174 L320.1172,916.3405 L320.3125,918.6021 L320.5078,894.5367 L320.7031,888.3856 L320.8984,922.8143 L321.0938,947.574 L321.2891,963.7904 L321.4844,943.3025 L321.6797,909.938 L321.875,926.9904 L322.0703,916.8207 L322.2657,930.6161 L322.4609,918.3382 L322.6563,925.6244 L322.8516,918.0517 L323.0469,945.6147 L323.2422,918.1908 L323.4375,941.8024 L323.6328,868.0527 L323.8281,923.8128 L324.0234,948.7206 L324.2188,919.6774 L324.4141,906.7925 L324.6094,936.6783 L324.8047,893.2764 L325,937.9669 L325.1953,861.0521 L325.3906,910.0367 L325.5859,866.1406 L325.7813,933.3362 L325.9766,930.1402 L326.1719,927.9236 L326.3672,916.6375 L326.5625,943.8699 L326.7578,919.0295 L326.9531,931.5423 L327.1485,918.9033 L327.3438,920.085 L327.5391,922.9219 L327.7344,903.9551 L327.9297,954.4325 L328.125,935.2186 L328.3203,900.1766 L328.5156,962.4106 L328.7109,941.4457 L328.9063,928.8298 L329.1016,938.9021 L329.2969,935.6937 L329.4922,942.0356 L329.6875,937.6069 L329.8828,930.9637 L330.0782,894.4536 L330.2734,946.7574 L330.4688,935.3019 L330.6641,888.902 L330.8594,904.9286 L331.0547,877.297 L331.25,917.139 L331.4453,940.3583 L331.6406,889.5349 L331.8359,924.9183 L332.0313,910.666 L332.2266,950.3487 L332.4219,962.8405 L332.6172,913.0934 L332.8125,923.701 L333.0078,896.0757 L333.2031,911.0156 L333.3984,943.7307 L333.5938,972.6877 L333.7891,925.1351 L333.9844,938.7576 L334.1797,938.9388 L334.375,859.6043 L334.5703,906.8285 L334.7656,922.2427 L334.961,916.6207 L335.1563,935.7565 L335.3516,915.5773 L335.5469,938.0421 L335.7422,909.1432 L335.9375,957.4719 L336.1328,938.9705 L336.3281,930.7388 L336.5234,940.6212 L336.7188,969.5549 L336.9141,961.0742 L337.1094,932.4786 L337.3047,915.0878 L337.5,928.1071 L337.6953,930.2935 L337.8907,920.585 L338.0859,827.4114 L338.2813,931.2278 L338.4766,933.5005 L338.6719,915.067 L338.8672,870.6591 L339.0625,981.6627 L339.2578,936.2476 L339.4531,934.8143 L339.6484,924.6313 L339.8438,932.4901 L340.0391,935.9278 L340.2344,916.696 L340.4297,914.3325 L340.625,926.8298 L340.8203,963.3514 L341.0156,916.3503 L341.2109,938.8592 L341.4063,873.9776 L341.6016,936.3629 L341.7969,930.7042 L341.9922,932.5098 L342.1875,923.7978 L342.3828,964.0498 L342.5781,940.9902 L342.7735,938.6205 L342.9688,913.2242 L343.1641,949.2166 L343.3594,925.4234 L343.5547,926.5138 L343.75,914.2609 L343.9453,898.081 L344.1406,903.4944 L344.3359,903.261 L344.5313,953.5095 L344.7266,918.2979 L344.9219,907.5559 L345.1172,924.4863 L345.3125,846.9908 L345.5078,871.385 L345.7032,953.7746 L345.8984,863.5396 L346.0938,916.2499 L346.2891,940.5997 L346.4844,876.1626 L346.6797,934.41 L346.875,935.9029 L347.0703,929.531 L347.2656,962.4589 L347.4609,911.2067 L347.6563,929.9863 L347.8516,926.7153 L348.0469,920.5535 L348.2422,905.2866 L348.4375,883.1113 L348.6328,888.2357 L348.8281,906.9354 L349.0234,913.2211 L349.2188,925.0486 L349.4141,938.31 L349.6094,912.7322 L349.8047,939.3429 L350,929.1237 L350.1953,859.3361 L350.3906,925.7478 L350.586,900.6108 L350.7813,942.5019 L350.9766,901.899 L351.1719,947.3898 L351.3672,896.1768 L351.5625,920.9503 L351.7578,919.9587 L351.9531,941.7161 L352.1484,941.0278 L352.3438,936.031 L352.5391,913.2546 L352.7344,933.0886 L352.9297,915.2008 L353.125,918.9498 L353.3203,915.1354 L353.5157,914.5269 L353.7109,935.7076 L353.9063,923.7261 L354.1016,946.222 L354.2969,934.2456 L354.4922,897.9243 L354.6875,925.7747 L354.8828,876.9771 L355.0781,927.1224 L355.2734,901.2059 L355.4688,910.2391 L355.6641,966.762 L355.8594,881.5759 L356.0547,909.3865 L356.25,911.2421 L356.4453,919.9226 L356.6406,933.4186 L356.8359,854.4053 L357.0313,955.4767 L357.2266,904.4651 L357.4219,938.7004 L357.6172,942.689 L357.8125,895.6783 L358.0078,898.6064 L358.2031,904.7257 L358.3985,932.412 L358.5938,954.6989 L358.7891,929.9884 L358.9844,933.4432 L359.1797,904.7941 L359.375,922.6422 L359.5703,937.8166 L359.7656,945.202 L359.9609,904.8584 L360.1563,932.6353 L360.3516,932.2639 L360.5469,935.9437 L360.7422,902.1484 L360.9375,904.2375 L361.1328,894.2286 L361.3282,925.0605 L361.5234,890.0887 L361.7188,972.2807 L361.9141,894.6524 L362.1094,913.3409 L362.3047,905.8676 L362.5,849.1189 L362.6953,950.0856 L362.8906,874.8278 L363.0859,882.8352 L363.2813,957.6848 L363.4766,908.4083 L363.6719,925.5752 L363.8672,937.9551 L364.0625,923.0709 L364.2578,925.5249 L364.4531,958.8266 L364.6484,928.9535 L364.8438,943.7386 L365.0391,928.043 L365.2344,925.4016 L365.4297,931.5143 L365.625,917.101 L365.8203,921.4472 L366.0156,894.0076 L366.211,842.9005 L366.4063,919.5994 L366.6016,853.4915 L366.7969,925.0209 L366.9922,859.2962 L367.1875,905.8831 L367.3828,948.1345 L367.5781,922.3233 L367.7734,893.9347 L367.9688,932.7362 L368.1641,931.7563 L368.3594,929.4515 L368.5547,918.5732 L368.75,898.8972 L368.9453,965.8881 L369.1407,906.1681 L369.3359,914.5486 L369.5313,929.0723 L369.7266,944.0682 L369.9219,967.2001 L370.1172,919.5206 L370.3125,964.5027 L370.5078,902.0833 L370.7031,966.0743 L370.8984,943.2698 L371.0938,904.7661 L371.2891,930.6347 L371.4844,929.9437 L371.6797,946.0995 L371.875,901.6465 L372.0703,938.3995 L372.2656,919.8578 L372.4609,924.9137 L372.6563,944.8545 L372.8516,928.5149 L373.0469,932.5773 L373.2422,942.6929 L373.4375,904.1983 L373.6328,932.3811 L373.8281,891.3557 L374.0235,939.6187 L374.2188,919.6037 L374.4141,939.864 L374.6094,912.1479 L374.8047,937.5463 L375,912.8459 L375.1953,928.0236 L375.3906,905.5957 L375.5859,913.1224 L375.7813,922.2388 L375.9766,928.6573 L376.1719,898.1765 L376.3672,932.3146 L376.5625,930.6173 L376.7578,950.5602 L376.9532,928.048 L377.1484,925.0067 " stroke="blue" fill="none" />
<text x="50" y="1060" font-family="Arial" font-size="12" fill="black">Episode Length (1676)</text>
<text x="50" y="1075" font-family="Arial" font-size="10" fill="black">78</text>
<text x="50" y="1290" font-family="Arial" font-size="10" fill="black">11</text>
<path d="M50,1196.418 L50.19531,1184.478 L50.39063,1193.433 L50.58594,1214.328 L50.78125,1217.313 L50.97656,1166.567 L51.17188,1199.403 L51.36719,1190.448 L51.5625,1220.298 L51.75781,1208.358 L51.95313,1211.343 L52.14844,1205.373 L52.34375,1208.358 L52.53906,1232.239 L52.73438,1199.403 L52.92969,1169.552 L53.125,1190.448 L53.32031,1172.537 L53.51563,1169.552 L53.71094,1214.328 L53.90625,1220.298 L54.10156,1208.358 L54.29688,1184.478 L54.49219,1160.597 L54.6875,1196.418 L54.88281,1178.507 L55.07813,1244.179 L55.27344,1202.388 L55.46875,1205.373 L55.66406,1199.403 L55.85938,1214.328 L56.05469,1208.358 L56.25,1196.418 L56.44531,1199.403 L56.64063,1205.373 L56.83594,1208.358 L57.03125,1208.358 L57.22656,1205.373 L57.42188,1211.343 L57.61719,1148.657 L57.8125,1187.463 L58.00781,1187.463 L58.20313,1238.209 L58.39844,1190.448 L58.59375,1238.209 L58.78906,1190.448 L58.98438,1217.313 L59.17969,1190.448 L59.375,1199.403 L59.57031,1172.537 L59.76563,1175.522 L59.96094,1151.642 L60.15625,1229.254 L60.35156,1214.328 L60.54688,1169.552 L60.74219,1163.582 L60.9375,1211.343 L61.13281,1208.358 L61.32813,1202.388 L61.52344,1166.567 L61.71875,1232.239 L61.91406,1205.373 L62.10938,1205.373 L62.30469,1151.642 L62.5,1232.239 L62.69531,1214.328 L62.89063,1232.239 L63.08594,1208.358 L63.28125,1163.582 L63.47656,1223.284 L63.67188,1184.478 L63.86719,1181.493 L64.0625,1178.507 L64.25781,1175.522 L64.45313,1172.537 L64.64844,1238.209 L64.84375,1187.463 L65.03906,1172.537 L65.23438,1208.358 L65.42969,1178.507 L65.625,1226.269 L65.82031,1184.478 L66.01563,1205.373 L66.21094,1154.627 L66.40625,1193.433 L66.60156,1208.358 L66.79688,1223.284 L66.99219,1214.328 L67.1875,1148.657 L67.38281,1199.403 L67.57813,1208.358 L67.77344,1178.507 L67.96875,1196.418 L68.16406,1220.298 L68.35938,1223.284 L68.55469,1214.328 L68.75,1280 L68.94531,1190.448 L69.14063,1199.403 L69.33594,1160.597 L69.53125,1229.254 L69.72656,1190.448 L69.92188,1223.284 L70.11719,1217.313 L70.3125,1151.642 L70.50781,1217.313 L70.70313,1223.284 L70.89844,1193.433 L71.09375,1193.433 L71.28906,1148.657 L71.48438,1196.418 L71.67969,1181.493 L71.875,1175.522 L72.07031,1208.358 L72.26563,1214.328 L72.46094,1223.284 L72.65625,1202.388 L72.85156,1193.433 L73.04688,1205.373 L73.24219,1214.328 L73.4375,1217.313 L73.63281,1196.418 L73.82813,1181.493 L74.02344,1214.328 L74.21875,1184.478 L74.41406,1187.463 L74.60938,1169.552 L74.80469,1205.373 L75,1193.433 L75.19531,1208.358 L75.39063,1202.388 L75.58594,1229.254 L75.78125,1175.522 L75.97656,1229.254 L76.17188,1157.612 L76.36719,1190.448 L76.5625,1199.403 L76.75781,1196.418 L76.95313,1205.373 L77.14844,1211.343 L77.34375,1196.418 L77.53906,1214.328 L77.73438,1208.358 L77.92969,1163.582 L78.125,1184.478 L78.32031,1208.358 L78.51563,1196.418 L78.71094,1181.493 L78.90625,1211.343 L79.10156,1202.388 L79.29688,1151.642 L79.49219,1160.597 L79.6875,1226.269 L79.88281,1196.418 L80.07813,1196.418 L80.27344,1181.493 L80.46875,1166.567 L80.66406,1187.463 L80.85938,1196.418 L81.05469,1187.463 L81.25,1178.507 L81.44531,1175.522 L81.64063,1217.313 L81.83594,1232.239 L82.03125,1220.298 L82.22656,1184.478 L82.42188,1217.313 L82.61719,1193.433 L82.8125,1238.209 L83.00781,1226.269 L83.20313,1169.552 L83.39844,1196.418 L83.59375,1214.328 L83.78906,1151.642 L83.98438,1193.433 L84.17969,1208.358 L84.375,1190.448 L84.57031,1202.388 L84.76563,1163.582 L84.96094,1217.313 L85.15625,1184.478 L85.35156,1196.418 L85.54688,1202.388 L85.74219,1202.388 L85.9375,1226.269 L86.13281,1187.463 L86.32813,1175.522 L86.52344,1217.313 L86.71875,1193.433 L86.91406,1205.373 L87.10938,1196.418 L87.30469,1172.537 L87.5,1193.433 L87.69531,1208.358 L87.89063,1184.478 L88.08594,1208.358 L88.28125,1157.612 L88.47656,1190.448 L88.67188,1139.702 L88.86719,1157.612 L89.0625,1175.522 L89.25781,1160.597 L89.45313,1166.567 L89.64844,1199.403 L89.84375,1211.343 L90.03906,1202.388 L90.23438,1181.493 L90.42969,1235.224 L90.625,1190.448 L90.82031,1220.298 L91.01563,1184.478 L91.21094,1202.388 L91.40625,1208.358 L91.60156,1121.791 L91.79688,1202.388 L91.99219,1184.478 L92.1875,1160.597 L92.38281,1196.418 L92.57813,1100.896 L92.77344,1199.403 L92.96875,1184.478 L93.16406,1199.403 L93.35938,1238.209 L93.55469,1190.448 L93.75,1247.164 L93.94531,1202.388 L94.14063,1160.597 L94.33594,1172.537 L94.53125,1211.343 L94.72656,1232.239 L94.92188,1190.448 L95.11719,1172.537 L95.3125,1178.507 L95.50781,1187.463 L95.70313,1205.373 L95.89844,1214.328 L96.09375,1080 L96.28906,1196.418 L96.48438,1208.358 L96.67969,1196.418 L96.875,1202.388 L97.07031,1196.418 L97.26563,1226.269 L97.46094,1223.284 L97.65625,1196.418 L97.85156,1181.493 L98.04688,1175.522 L98.24219,1196.418 L98.4375,1208.358 L98.63281,1169.552 L98.82813,1208.358 L99.02344,1178.507 L99.21875,1202.388 L99.41406,1172.537 L99.60938,1214.328 L99.80469,1190.448 L100,1184.478 L100.1953,1175.522 L100.3906,1187.463 L100.5859,1238.209 L100.7813,1193.433 L100.9766,1217.313 L101.1719,1226.269 L101.3672,1217.313 L101.5625,1199.403 L101.7578,1208.358 L101.9531,1220.298 L102.1484,1205.373 L102.3438,1199.403 L102.5391,1130.746 L102.7344,1172.537 L102.9297,1130.746 L103.125,1187.463 L103.3203,1190.448 L103.5156,1223.284 L103.7109,1193.433 L103.9063,1238.209 L104.1016,1121.791 L104.2969,1202.388 L104.4922,1208.358 L104.6875,1205.373 L104.8828,1229.254 L105.0781,1202.388 L105.2734,1208.358 L105.4688,1187.463 L105.6641,1193.433 L105.8594,1166.567 L106.0547,1142.687 L106.25,1187.463 L106.4453,1190.448 L106.6406,1178.507 L106.8359,1184.478 L107.0313,1193.433 L107.2266,1211.343 L107.4219,1190.448 L107.6172,1232.239 L107.8125,1214.328 L108.0078,1172.537 L108.2031,1196.418 L108.3984,1220.298 L108.5938,1226.269 L108.7891,1193.433 L108.9844,1196.418 L109.1797,1217.313 L109.375,1217.313 L109.5703,1184.478 L109.7656,1199.403 L109.9609,1208.358 L110.1563,1208.358 L110.3516,1229.254 L110.5469,1211.343 L110.7422,1187.463 L110.9375,1205.373 L111.1328,1208.358 L111.3281,1181.493 L111.5234,1193.433 L111.7188,1178.507 L111.9141,1223.284 L112.1094,1166.567 L112.3047,1142.687 L112.5,1190.448 L112.6953,1208.358 L112.8906,1190.448 L113.0859,1178.507 L113.2813,1211.343 L113.4766,1223.284 L113.6719,1190.448 L113.8672,1196.418 L114.0625,1229.254 L114.2578,1193.433 L114.4531,1205.373 L114.6484,1205.373 L114.8438,1187.463 L115.0391,1199.403 L115.2344,1181.493 L115.4297,1211.343 L115.625,1196.418 L115.8203,1184.478 L116.0156,1178.507 L116.2109,1214.328 L116.4063,1202.388 L116.6016,1187.463 L116.7969,1190.448 L116.9922,1235.224 L117.1875,1178.507 L117.3828,1214.328 L117.5781,1211.343 L117.7734,1214.328 L117.9688,1223.284 L118.1641,1199.403 L118.3594,1181.493 L118.5547,1229.254 L118.75,1130.746 L118.9453,1157.612 L119.1406,1190.448 L119.3359,1190.448 L119.5313,1205.373 L119.7266,1205.373 L119.9219,1211.343 L120.1172,1163.582 L120.3125,1196.418 L120.5078,1190.448 L120.7031,1217.313 L120.8984,1190.448 L121.0938,1196.418 L121.2891,1202.388 L121.4844,1181.493 L121.6797,1205.373 L121.875,1214.328 L122.0703,1202.388 L122.2656,1193.433 L122.4609,1217.313 L122.6563,1211.343 L122.8516,1217.313 L123.0469,1211.343 L123.2422,1157.612 L123.4375,1181.493 L123.6328,1208.358 L123.8281,1205.373 L124.0234,1181.493 L124.2188,1190.448 L124.4141,1136.716 L124.6094,1193.433 L124.8047,1172.537 L125,1172.537 L125.1953,1205.373 L125.3906,1199.403 L125.5859,1124.776 L125.7813,1217.313 L125.9766,1205.373 L126.1719,1211.343 L126.3672,1193.433 L126.5625,1163.582 L126.7578,1187.463 L126.9531,1178.507 L127.1484,1193.433 L127.3438,1187.463 L127.5391,1178.507 L127.7344,1211.343 L127.9297,1112.836 L128.125,1220.298 L128.3203,1238.209 L128.5156,1208.358 L128.7109,1190.448 L128.9063,1223.284 L129.1016,1181.493 L129.2969,1202.388 L129.4922,1217.313 L129.6875,1151.642 L129.8828,1166.567 L130.0781,1220.298 L130.2734,1214.328 L130.4688,1190.448 L130.6641,1142.687 L130.8594,1220.298 L131.0547,1175.522 L131.25,1196.418 L131.4453,1202.388 L131.6406,1184.478 L131.8359,1220.298 L132.0313,1196.418 L132.2266,1190.448 L132.4219,1178.507 L132.6172,1211.343 L132.8125,1214.328 L133.0078,1202.388 L133.2031,1199.403 L133.3984,1196.418 L133.5938,1220.298 L133.7891,1130.746 L133.9844,1196.418 L134.1797,1223.284 L134.375,1184.478 L134.5703,1184.478 L134.7656,1196.418 L134.9609,1181.493 L135.1563,1193.433 L135.3516,1217.313 L135.5469,1208.358 L135.7422,1196.418 L135.9375,1169.552 L136.1328,1178.507 L136.3281,1154.627 L136.5234,1181.493 L136.7188,1193.433 L136.9141,1220.298 L137.1094,1136.716 L137.3047,1181.493 L137.5,1172.537 L137.6953,1190.448 L137.8906,1205.373 L138.0859,1187.463 L138.2813,1211.343 L138.4766,1226.269 L138.6719,1178.507 L138.8672,1193.433 L139.0625,1196.418 L139.2578,1214.328 L139.4531,1238.209 L139.6484,1193.433 L139.8438,1196.418 L140.0391,1202.388 L140.2344,1202.388 L140.4297,1196.418 L140.625,1151.642 L140.8203,1196.418 L141.0156,1163.582 L141.2109,1157.612 L141.4063,1163.582 L141.6016,1184.478 L141.7969,1124.776 L141.9922,1154.627 L142.1875,1190.448 L142.3828,1220.298 L142.5781,1175.522 L142.7734,1184.478 L142.9688,1202.388 L143.1641,1190.448 L143.3594,1187.463 L143.5547,1196.418 L143.75,1163.582 L143.9453,1220.298 L144.1406,1244.179 L144.3359,1208.358 L144.5313,1181.493 L144.7266,1169.552 L144.9219,1223.284 L145.1172,1199.403 L145.3125,1220.298 L145.5078,1181.493 L145.7031,1229.254 L145.8984,1202.388 L146.0938,1178.507 L146.2891,1187.463 L146.4844,1208.358 L146.6797,1196.418 L146.875,1211.343 L147.0703,1178.507 L147.2656,1166.567 L147.4609,1199.403 L147.6563,1190.448 L147.8516,1190.448 L148.0469,1208.358 L148.2422,1190.448 L148.4375,1229.254 L148.6328,1169.552 L148.8281,1178.507 L149.0234,1184.478 L149.2188,1178.507 L149.4141,1202.388 L149.6094,1154.627 L149.8047,1205.373 L150,1184.478 L150.1953,1181.493 L150.3906,1193.433 L150.5859,1223.284 L150.7813,1199.403 L150.9766,1163.582 L151.1719,1235.224 L151.3672,1211.343 L151.5625,1145.672 L151.7578,1187.463 L151.9531,1214.328 L152.1484,1235.224 L152.3438,1211.343 L152.5391,1211.343 L152.7344,1175.522 L152.9297,1193.433 L153.125,1211.343 L153.3203,1199.403 L153.5156,1205.373 L153.7109,1220.298 L153.9063,1205.373 L154.1016,1193.433 L154.2969,1226.269 L154.4922,1211.343 L154.6875,1238.209 L154.8828,1193.433 L155.0781,1214.328 L155.2734,1178.507 L155.4688,1223.284 L155.6641,1211.343 L155.8594,1226.269 L156.0547,1196.418 L156.25,1244.179 L156.4453,1163.582 L156.6406,1211.343 L156.8359,1226.269 L157.0313,1172.537 L157.2266,1196.418 L157.4219,1187.463 L157.6172,1196.418 L157.8125,1220.298 L158.0078,1208.358 L158.2031,1184.478 L158.3984,1226.269 L158.5938,1124.776 L158.7891,1199.403 L158.9844,1205.373 L159.1797,1220.298 L159.375,1193.433 L159.5703,1181.493 L159.7656,1223.284 L159.9609,1205.373 L160.1563,1202.388 L160.3516,1214.328 L160.5469,1217.313 L160.7422,1187.463 L160.9375,1232.239 L161.1328,1193.433 L161.3281,1190.448 L161.5234,1214.328 L161.7188,1211.343 L161.9141,1214.328 L162.1094,1187.463 L162.3047,1178.507 L162.5,1202.388 L162.6953,1160.597 L162.8906,1190.448 L163.0859,1199.403 L163.2813,1226.269 L163.4766,1202.388 L163.6719,1202.388 L163.8672,1196.418 L164.0625,1193.433 L164.2578,1190.448 L164.4531,1205.373 L164.6484,1187.463 L164.8438,1187.463 L165.0391,1202.388 L165.2344,1208.358 L165.4297,1199.403 L165.625,1208.358 L165.8203,1139.702 L166.0156,1232.239 L166.2109,1199.403 L166.4063,1238.209 L166.6016,1124.776 L166.7969,1190.448 L166.9922,1178.507 L167.1875,1232.239 L167.3828,1205.373 L167.5781,1118.806 L167.7734,1217.313 L167.9688,1199.403 L168.1641,1208.358 L168.3594,1181.493 L168.5547,1211.343 L168.75,1175.522 L168.9453,1193.433 L169.1406,1199.403 L169.3359,1196.418 L169.5313,1190.448 L169.7266,1208.358 L169.9219,1205.373 L170.1172,1208.358 L170.3125,1229.254 L170.5078,1241.194 L170.7031,1193.433 L170.8984,1178.507 L171.0938,1160.597 L171.2891,1223.284 L171.4844,1160.597 L171.6797,1193.433 L171.875,1226.269 L172.0703,1154.627 L172.2656,1211.343 L172.4609,1199.403 L172.6563,1190.448 L172.8516,1190.448 L173.0469,1181.493 L173.2422,1151.642 L173.4375,1211.343 L173.6328,1184.478 L173.8281,1172.537 L174.0234,1187.463 L174.2188,1160.597 L174.4141,1142.687 L174.6094,1205.373 L174.8047,1202.388 L175,1145.672 L175.1953,1196.418 L175.3906,1217.313 L175.5859,1226.269 L175.7813,1178.507 L175.9766,1220.298 L176.1719,1229.254 L176.3672,1157.612 L176.5625,1205.373 L176.7578,1184.478 L176.9531,1193.433 L177.1484,1175.522 L177.3438,1193.433 L177.5391,1199.403 L177.7344,1175.522 L177.9297,1181.493 L178.125,1178.507 L178.3203,1193.433 L178.5156,1232.239 L178.7109,1178.507 L178.9063,1196.418 L179.1016,1220.298 L179.2969,1208.358 L179.4922,1202.388 L179.6875,1208.358 L179.8828,1196.418 L180.0781,1202.388 L180.2735,1172.537 L180.4688,1217.313 L180.6641,1166.567 L180.8594,1196.418 L181.0547,1220.298 L181.25,1226.269 L181.4453,1247.164 L181.6406,1184.478 L181.8359,1166.567 L182.0313,1232.239 L182.2266,1202.388 L182.4219,1247.164 L182.6172,1184.478 L182.8125,1193.433 L183.0078,1184.478 L183.2031,1181.493 L183.3984,1211.343 L183.5938,1205.373 L183.7891,1166.567 L183.9844,1175.522 L184.1797,1223.284 L184.375,1214.328 L184.5703,1199.403 L184.7656,1205.373 L184.9609,1193.433 L185.1563,1223.284 L185.3516,1184.478 L185.5469,1205.373 L185.7422,1217.313 L185.9375,1196.418 L186.1328,1187.463 L186.3281,1205.373 L186.5234,1226.269 L186.7188,1226.269 L186.9141,1175.522 L187.1094,1211.343 L187.3047,1199.403 L187.5,1205.373 L187.6953,1160.597 L187.8906,1187.463 L188.086,1178.507 L188.2813,1202.388 L188.4766,1226.269 L188.6719,1190.448 L188.8672,1205.373 L189.0625,1184.478 L189.2578,1208.358 L189.4531,1124.776 L189.6484,1202.388 L189.8438,1184.478 L190.0391,1175.522 L190.2344,1184.478 L190.4297,1190.448 L190.625,1193.433 L190.8203,1178.507 L191.0156,1187.463 L191.2109,1187.463 L191.4063,1211.343 L191.6016,1214.328 L191.7969,1187.463 L191.9922,1202.388 L192.1875,1160.597 L192.3828,1163.582 L192.5781,1175.522 L192.7734,1211.343 L192.9688,1160.597 L193.1641,1217.313 L193.3594,1235.224 L193.5547,1148.657 L193.75,1214.328 L193.9453,1106.866 L194.1406,1211.343 L194.3359,1199.403 L194.5313,1238.209 L194.7266,1238.209 L194.9219,1208.358 L195.1172,1199.403 L195.3125,1187.463 L195.5078,1166.567 L195.7031,1178.507 L195.8985,1187.463 L196.0938,1220.298 L196.2891,1190.448 L196.4844,1187.463 L196.6797,1205.373 L196.875,1202.388 L197.0703,1214.328 L197.2656,1199.403 L197.4609,1208.358 L197.6563,1196.418 L197.8516,1169.552 L198.0469,1166.567 L198.2422,1214.328 L198.4375,1235.224 L198.6328,1220.298 L198.8281,1202.388 L199.0234,1166.567 L199.2188,1157.612 L199.4141,1208.358 L199.6094,1205.373 L199.8047,1211.343 L200,1193.433 L200.1953,1196.418 L200.3906,1178.507 L200.5859,1190.448 L200.7813,1214.328 L200.9766,1190.448 L201.1719,1214.328 L201.3672,1205.373 L201.5625,1208.358 L201.7578,1214.328 L201.9531,1238.209 L202.1484,1211.343 L202.3438,1172.537 L202.5391,1214.328 L202.7344,1202.388 L202.9297,1190.448 L203.125,1205.373 L203.3203,1184.478 L203.5156,1151.642 L203.711,1232.239 L203.9063,1220.298 L204.1016,1208.358 L204.2969,1214.328 L204.4922,1205.373 L204.6875,1166.567 L204.8828,1136.716 L205.0781,1199.403 L205.2734,1178.507 L205.4688,1184.478 L205.6641,1154.627 L205.8594,1181.493 L206.0547,1208.358 L206.25,1205.373 L206.4453,1214.328 L206.6406,1223.284 L206.8359,1217.313 L207.0313,1190.448 L207.2266,1196.418 L207.4219,1238.209 L207.6172,1163.582 L207.8125,1214.328 L208.0078,1196.418 L208.2031,1217.313 L208.3984,1208.358 L208.5938,1202.388 L208.7891,1154.627 L208.9844,1202.388 L209.1797,1214.328 L209.375,1187.463 L209.5703,1142.687 L209.7656,1211.343 L209.9609,1154.627 L210.1563,1202.388 L210.3516,1184.478 L210.5469,1214.328 L210.7422,1118.806 L210.9375,1193.433 L211.1328,1199.403 L211.3281,1199.403 L211.5235,1211.343 L211.7188,1232.239 L211.9141,1211.343 L212.1094,1166.567 L212.3047,1199.403 L212.5,1163.582 L212.6953,1220.298 L212.8906,1193.433 L213.0859,1208.358 L213.2813,1151.642 L213.4766,1205.373 L213.6719,1223.284 L213.8672,1199.403 L214.0625,1199.403 L214.2578,1238.209 L214.4531,1205.373 L214.6484,1208.358 L214.8438,1175.522 L215.0391,1190.448 L215.2344,1151.642 L215.4297,1202.388 L215.625,1217.313 L215.8203,1190.448 L216.0156,1202.388 L216.2109,1148.657 L216.4063,1175.522 L216.6016,1196.418 L216.7969,1190.448 L216.9922,1193.433 L217.1875,1202.388 L217.3828,1166.567 L217.5781,1187.463 L217.7734,1196.418 L217.9688,1163.582 L218.1641,1163.582 L218.3594,1193.433 L218.5547,1163.582 L218.75,1193.433 L218.9453,1136.716 L219.1406,1217.313 L219.336,1202.388 L219.5313,1181.493 L219.7266,1271.045 L219.9219,1181.493 L220.1172,1187.463 L220.3125,1202.388 L220.5078,1190.448 L220.7031,1178.507 L220.8984,1181.493 L221.0938,1202.388 L221.2891,1196.418 L221.4844,1193.433 L221.6797,1214.328 L221.875,1223.284 L222.0703,1220.298 L222.2656,1181.493 L222.4609,1178.507 L222.6563,1220.298 L222.8516,1223.284 L223.0469,1223.284 L223.2422,1217.313 L223.4375,1181.493 L223.6328,1181.493 L223.8281,1184.478 L224.0234,1199.403 L224.2188,1172.537 L224.4141,1214.328 L224.6094,1190.448 L224.8047,1196.418 L225,1223.284 L225.1953,1175.522 L225.3906,1208.358 L225.5859,1187.463 L225.7813,1202.388 L225.9766,1163.582 L226.1719,1214.328 L226.3672,1184.478 L226.5625,1235.224 L226.7578,1208.358 L226.9531,1187.463 L227.1485,1211.343 L227.3438,1205.373 L227.5391,1163.582 L227.7344,1217.313 L227.9297,1205.373 L228.125,1193.433 L228.3203,1223.284 L228.5156,1199.403 L228.7109,1196.418 L228.9063,1187.463 L229.1016,1190.448 L229.2969,1187.463 L229.4922,1214.328 L229.6875,1172.537 L229.8828,1211.343 L230.0781,1178.507 L230.2734,1178.507 L230.4688,1196.418 L230.6641,1220.298 L230.8594,1214.328 L231.0547,1187.463 L231.25,1211.343 L231.4453,1172.537 L231.6406,1166.567 L231.8359,1187.463 L232.0313,1223.284 L232.2266,1199.403 L232.4219,1169.552 L232.6172,1232.239 L232.8125,1139.702 L233.0078,1190.448 L233.2031,1151.642 L233.3984,1247.164 L233.5938,1154.627 L233.7891,1232.239 L233.9844,1190.448 L234.1797,1232.239 L234.375,1190.448 L234.5703,1199.403 L234.7656,1202.388 L234.961,1172.537 L235.1563,1184.478 L235.3516,1214.328 L235.5469,1184.478 L235.7422,1205.373 L235.9375,1217.313 L236.1328,1217.313 L236.3281,1217.313 L236.5234,1190.448 L236.7188,1139.702 L236.9141,1193.433 L237.1094,1214.328 L237.3047,1184.478 L237.5,1187.463 L237.6953,1193.433 L237.8906,1226.269 L238.0859,1166.567 L238.2813,1193.433 L238.4766,1241.194 L238.6719,1202.388 L238.8672,1196.418 L239.0625,1205.373 L239.2578,1229.254 L239.4531,1205.373 L239.6484,1229.254 L239.8438,1169.552 L240.0391,1118.806 L240.2344,1199.403 L240.4297,1217.313 L240.625,1241.194 L240.8203,1190.448 L241.0156,1211.343 L241.2109,1244.179 L241.4063,1178.507 L241.6016,1181.493 L241.7969,1175.522 L241.9922,1214.328 L242.1875,1226.269 L242.3828,1205.373 L242.5781,1106.866 L242.7735,1223.284 L242.9688,1190.448 L243.1641,1157.612 L243.3594,1202.388 L243.5547,1220.298 L243.75,1166.567 L243.9453,1184.478 L244.1406,1151.642 L244.3359,1166.567 L244.5313,1193.433 L244.7266,1199.403 L244.9219,1169.552 L245.1172,1184.478 L245.3125,1130.746 L245.5078,1199.403 L245.7031,1196.418 L245.8984,1181.493 L246.0938,1193.433 L246.2891,1211.343 L246.4844,1178.507 L246.6797,1190.448 L246.875,1223.284 L247.0703,1214.328 L247.2656,1238.209 L247.4609,1193.433 L247.6563,1214.328 L247.8516,1184.478 L248.0469,1175.522 L248.2422,1199.403 L248.4375,1220.298 L248.6328,1157.612 L248.8281,1238.209 L249.0234,1208.358 L249.2188,1199.403 L249.4141,1199.403 L249.6094,1211.343 L249.8047,1157.612 L250,1190.448 L250.1953,1172.537 L250.3906,1175.522 L250.586,1190.448 L250.7813,1214.328 L250.9766,1166.567 L251.1719,1208.358 L251.3672,1181.493 L251.5625,1181.493 L251.7578,1217.313 L251.9531,1175.522 L252.1484,1214.328 L252.3438,1211.343 L252.5391,1214.328 L252.7344,1205.373 L252.9297,1202.388 L253.125,1214.328 L253.3203,1178.507 L253.5156,1172.537 L253.7109,1199.403 L253.9063,1214.328 L254.1016,1187.463 L254.2969,1178.507 L254.4922,1160.597 L254.6875,1193.433 L254.8828,1181.493 L255.0781,1193.433 L255.2734,1211.343 L255.4688,1097.91 L255.6641,1172.537 L255.8594,1196.418 L256.0547,1184.478 L256.25,1211.343 L256.4453,1196.418 L256.6406,1211.343 L256.8359,1223.284 L257.0313,1196.418 L257.2266,1223.284 L257.4219,1220.298 L257.6172,1199.403 L257.8125,1223.284 L258.0078,1187.463 L258.2031,1184.478 L258.3984,1154.627 L258.5938,1217.313 L258.7891,1208.358 L258.9844,1247.164 L259.1797,1178.507 L259.375,1217.313 L259.5703,1178.507 L259.7656,1214.328 L259.9609,1187.463 L260.1563,1226.269 L260.3516,1181.493 L260.5469,1202.388 L260.7422,1217.313 L260.9375,1190.448 L261.1328,1217.313 L261.3281,1211.343 L261.5234,1151.642 L261.7188,1190.448 L261.9141,1136.716 L262.1094,1181.493 L262.3047,1175.522 L262.5,1241.194 L262.6953,1205.373 L262.8906,1202.388 L263.0859,1181.493 L263.2813,1217.313 L263.4766,1175.522 L263.6719,1220.298 L263.8672,1190.448 L264.0625,1217.313 L264.2578,1154.627 L264.4531,1172.537 L264.6484,1193.433 L264.8438,1193.433 L265.0391,1193.433 L265.2344,1136.716 L265.4297,1211.343 L265.625,1184.478 L265.8203,1160.597 L266.0156,1181.493 L266.2109,1220.298 L266.4063,1199.403 L266.6016,1199.403 L266.7969,1211.343 L266.9922,1238.209 L267.1875,1181.493 L267.3828,1187.463 L267.5781,1169.552 L267.7734,1181.493 L267.9688,1220.298 L268.1641,1199.403 L268.3594,1178.507 L268.5547,1229.254 L268.75,1160.597 L268.9453,1220.298 L269.1406,1181.493 L269.3359,1178.507 L269.5313,1160.597 L269.7266,1208.358 L269.9219,1187.463 L270.1172,1169.552 L270.3125,1178.507 L270.5078,1220.298 L270.7031,1151.642 L270.8984,1166.567 L271.0938,1193.433 L271.2891,1205.373 L271.4844,1169.552 L271.6797,1169.552 L271.875,1160.597 L272.0703,1220.298 L272.2656,1205.373 L272.4609,1196.418 L272.6563,1220.298 L272.8516,1223.284 L273.0469,1166.567 L273.2422,1208.358 L273.4375,1169.552 L273.6328,1220.298 L273.8281,1169.552 L274.0234,1199.403 L274.2188,1196.418 L274.4141,1166.567 L274.6094,1160.597 L274.8047,1193.433 L275,1190.448 L275.1953,1241.194 L275.3906,1169.552 L275.5859,1205.373 L275.7813,1199.403 L275.9766,1199.403 L276.1719,1184.478 L276.3672,1163.582 L276.5625,1145.672 L276.7578,1205.373 L276.9531,1178.507 L277.1484,1187.463 L277.3438,1229.254 L277.5391,1187.463 L277.7344,1190.448 L277.9297,1196.418 L278.125,1217.313 L278.3203,1217.313 L278.5156,1211.343 L278.7109,1175.522 L278.9063,1202.388 L279.1016,1208.358 L279.2969,1172.537 L279.4922,1196.418 L279.6875,1208.358 L279.8828,1169.552 L280.0781,1199.403 L280.2734,1169.552 L280.4688,1211.343 L280.6641,1187.463 L280.8594,1199.403 L281.0547,1148.657 L281.25,1220.298 L281.4453,1187.463 L281.6406,1184.478 L281.8359,1172.537 L282.0313,1178.507 L282.2266,1220.298 L282.4219,1199.403 L282.6172,1160.597 L282.8125,1181.493 L283.0078,1181.493 L283.2031,1196.418 L283.3984,1217.313 L283.5938,1199.403 L283.7891,1214.328 L283.9844,1208.358 L284.1797,1193.433 L284.375,1199.403 L284.5703,1196.418 L284.7656,1193.433 L284.9609,1190.448 L285.1563,1205.373 L285.3516,1238.209 L285.5469,1232.239 L285.7422,1208.358 L285.9375,1202.388 L286.1328,1202.388 L286.3281,1193.433 L286.5234,1205.373 L286.7188,1190.448 L286.9141,1220.298 L287.1094,1202.388 L287.3047,1211.343 L287.5,1133.731 L287.6953,1223.284 L287.8906,1166.567 L288.0859,1205.373 L288.2813,1148.657 L288.4766,1172.537 L288.6719,1199.403 L288.8672,1193.433 L289.0625,1193.433 L289.2578,1193.433 L289.4531,1145.672 L289.6484,1205.373 L289.8438,1172.537 L290.0391,1160.597 L290.2344,1196.418 L290.4297,1172.537 L290.625,1136.716 L290.8203,1142.687 L291.0156,1190.448 L291.2109,1187.463 L291.4063,1211.343 L291.6016,1205.373 L291.7969,1181.493 L291.9922,1226.269 L292.1875,1172.537 L292.3828,1187.463 L292.5781,1184.478 L292.7734,1220.298 L292.9688,1145.672 L293.1641,1178.507 L293.3594,1214.328 L293.5547,1193.433 L293.75,1178.507 L293.9453,1199.403 L294.1406,1196.418 L294.3359,1214.328 L294.5313,1142.687 L294.7266,1175.522 L294.9219,1142.687 L295.1172,1211.343 L295.3125,1214.328 L295.5078,1205.373 L295.7031,1187.463 L295.8984,1199.403 L296.0938,1193.433 L296.2891,1154.627 L296.4844,1184.478 L296.6797,1181.493 L296.875,1199.403 L297.0703,1193.433 L297.2656,1196.418 L297.4609,1154.627 L297.6563,1196.418 L297.8516,1166.567 L298.0469,1190.448 L298.2422,1196.418 L298.4375,1193.433 L298.6328,1208.358 L298.8281,1166.567 L299.0234,1157.612 L299.2188,1181.493 L299.4141,1190.448 L299.6094,1193.433 L299.8047,1208.358 L300,1244.179 L300.1953,1214.328 L300.3906,1208.358 L300.5859,1199.403 L300.7813,1184.478 L300.9766,1229.254 L301.1719,1217.313 L301.3672,1175.522 L301.5625,1220.298 L301.7578,1199.403 L301.9531,1208.358 L302.1484,1196.418 L302.3438,1220.298 L302.5391,1163.582 L302.7344,1199.403 L302.9297,1208.358 L303.125,1160.597 L303.3203,1214.328 L303.5156,1193.433 L303.711,1238.209 L303.9063,1202.388 L304.1016,1169.552 L304.2969,1202.388 L304.4922,1190.448 L304.6875,1184.478 L304.8828,1223.284 L305.0781,1202.388 L305.2734,1163.582 L305.4688,1169.552 L305.6641,1190.448 L305.8594,1196.418 L306.0547,1172.537 L306.25,1181.493 L306.4453,1202.388 L306.6407,1220.298 L306.8359,1199.403 L307.0313,1163.582 L307.2266,1211.343 L307.4219,1190.448 L307.6172,1196.418 L307.8125,1193.433 L308.0078,1211.343 L308.2031,1199.403 L308.3984,1226.269 L308.5938,1187.463 L308.7891,1187.463 L308.9844,1178.507 L309.1797,1190.448 L309.375,1184.478 L309.5703,1199.403 L309.7656,1226.269 L309.9609,1124.776 L310.1563,1202.388 L310.3516,1184.478 L310.5469,1205.373 L310.7422,1190.448 L310.9375,1193.433 L311.1328,1193.433 L311.3281,1160.597 L311.5235,1181.493 L311.7188,1208.358 L311.9141,1226.269 L312.1094,1241.194 L312.3047,1097.91 L312.5,1130.746 L312.6953,1211.343 L312.8906,1202.388 L313.0859,1172.537 L313.2813,1175.522 L313.4766,1190.448 L313.6719,1172.537 L313.8672,1097.91 L314.0625,1136.716 L314.2578,1205.373 L314.4532,1145.672 L314.6484,1172.537 L314.8438,1181.493 L315.0391,1202.388 L315.2344,1196.418 L315.4297,1208.358 L315.625,1199.403 L315.8203,1196.418 L316.0156,1157.612 L316.2109,1220.298 L316.4063,1196.418 L316.6016,1214.328 L316.7969,1163.582 L316.9922,1199.403 L317.1875,1196.418 L317.3828,1256.119 L317.5781,1157.612 L317.7734,1214.328 L317.9688,1190.448 L318.1641,1214.328 L318.3594,1193.433 L318.5547,1184.478 L318.75,1181.493 L318.9453,1196.418 L319.1406,1226.269 L319.336,1205.373 L319.5313,1175.522 L319.7266,1196.418 L319.9219,1202.388 L320.1172,1187.463 L320.3125,1190.448 L320.5078,1166.567 L320.7031,1163.582 L320.8984,1193.433 L321.0938,1217.313 L321.2891,1232.239 L321.4844,1214.328 L321.6797,1181.493 L321.875,1196.418 L322.0703,1187.463 L322.2657,1199.403 L322.4609,1190.448 L322.6563,1196.418 L322.8516,1190.448 L323.0469,1217.313 L323.2422,1187.463 L323.4375,1211.343 L323.6328,1139.702 L323.8281,1193.433 L324.0234,1220.298 L324.2188,1190.448 L324.4141,1175.522 L324.6094,1208.358 L324.8047,1166.567 L325,1211.343 L325.1953,1136.716 L325.3906,1181.493 L325.5859,1139.702 L325.7813,1205.373 L325.9766,1202.388 L326.1719,1199.403 L326.3672,1187.463 L326.5625,1214.328 L326.7578,1190.448 L326.9531,1202.388 L327.1485,1190.448 L327.3438,1190.448 L327.5391,1193.433 L327.7344,1175.522 L327.9297,1223.284 L328.125,1205.373 L328.3203,1169.552 L328.5156,1232.239 L328.7109,1211.343 L328.9063,1199.403 L329.1016,1208.358 L329.2969,1205.373 L329.4922,1214.328 L329.6875,1208.358 L329.8828,1202.388 L330.0782,1166.567 L330.2734,1214.328 L330.4688,1205.373 L330.6641,1160.597 L330.8594,1175.522 L331.0547,1145.672 L331.25,1187.463 L331.4453,1211.343 L331.6406,1163.582 L331.8359,1193.433 L332.0313,1178.507 L332.2266,1220.298 L332.4219,1232.239 L332.6172,1181.493 L332.8125,1193.433 L333.0078,1169.552 L333.2031,1181.493 L333.3984,1214.328 L333.5938,1241.194 L333.7891,1196.418 L333.9844,1208.358 L334.1797,1208.358 L334.375,1133.731 L334.5703,1178.507 L334.7656,1193.433 L334.961,1187.463 L335.1563,1205.373 L335.3516,1187.463 L335.5469,1208.358 L335.7422,1178.507 L335.9375,1226.269 L336.1328,1208.358 L336.3281,1199.403 L336.5234,1211.343 L336.7188,1238.209 L336.9141,1229.254 L337.1094,1202.388 L337.3047,1187.463 L337.5,1196.418 L337.6953,1199.403 L337.8907,1190.448 L338.0859,1103.881 L338.2813,1202.388 L338.4766,1205.373 L338.6719,1187.463 L338.8672,1145.672 L339.0625,1253.134 L339.2578,1205.373 L339.4531,1205.373 L339.6484,1196.418 L339.8438,1202.388 L340.0391,1205.373 L340.2344,1187.463 L340.4297,1184.478 L340.625,1196.418 L340.8203,1232.239 L341.0156,1187.463 L341.2109,1208.358 L341.4063,1145.672 L341.6016,1208.358 L341.7969,1202.388 L341.9922,1202.388 L342.1875,1196.418 L342.3828,1235.224 L342.5781,1208.358 L342.7735,1205.373 L342.9688,1184.478 L343.1641,1220.298 L343.3594,1196.418 L343.5547,1196.418 L343.75,1184.478 L343.9453,1169.552 L344.1406,1172.537 L344.3359,1175.522 L344.5313,1223.284 L344.7266,1190.448 L344.9219,1178.507 L345.1172,1193.433 L345.3125,1118.806 L345.5078,1145.672 L345.7032,1223.284 L345.8984,1133.731 L346.0938,1187.463 L346.2891,1211.343 L346.4844,1148.657 L346.6797,1205.373 L346.875,1208.358 L347.0703,1199.403 L347.2656,1232.239 L347.4609,1181.493 L347.6563,1199.403 L347.8516,1199.403 L348.0469,1193.433 L348.2422,1178.507 L348.4375,1151.642 L348.6328,1160.597 L348.8281,1178.507 L349.0234,1184.478 L349.2188,1193.433 L349.4141,1208.358 L349.6094,1184.478 L349.8047,1208.358 L350,1199.403 L350.1953,1130.746 L350.3906,1196.418 L350.586,1172.537 L350.7813,1211.343 L350.9766,1172.537 L351.1719,1217.313 L351.3672,1169.552 L351.5625,1193.433 L351.7578,1190.448 L351.9531,1208.358 L352.1484,1211.343 L352.3438,1205.373 L352.5391,1181.493 L352.7344,1202.388 L352.9297,1184.478 L353.125,1190.448 L353.3203,1187.463 L353.5157,1184.478 L353.7109,1208.358 L353.9063,1193.433 L354.1016,1214.328 L354.2969,1202.388 L354.4922,1169.552 L354.6875,1196.418 L354.8828,1148.657 L355.0781,1199.403 L355.2734,1175.522 L355.4688,1181.493 L355.6641,1238.209 L355.8594,1151.642 L356.0547,1178.507 L356.25,1184.478 L356.4453,1190.448 L356.6406,1205.373 L356.8359,1127.761 L357.0313,1223.284 L357.2266,1175.522 L357.4219,1208.358 L357.6172,1211.343 L357.8125,1166.567 L358.0078,1169.552 L358.2031,1175.522 L358.3985,1202.388 L358.5938,1223.284 L358.7891,1199.403 L358.9844,1205.373 L359.1797,1175.522 L359.375,1193.433 L359.5703,1208.358 L359.7656,1211.343 L359.9609,1172.537 L360.1563,1202.388 L360.3516,1202.388 L360.5469,1205.373 L360.7422,1172.537 L360.9375,1175.522 L361.1328,1166.567 L361.3282,1196.418 L361.5234,1163.582 L361.7188,1241.194 L361.9141,1166.567 L362.1094,1184.478 L362.3047,1175.522 L362.5,1121.791 L362.6953,1220.298 L362.8906,1145.672 L363.0859,1154.627 L363.2813,1226.269 L363.4766,1181.493 L363.6719,1193.433 L363.8672,1208.358 L364.0625,1193.433 L364.2578,1193.433 L364.4531,1229.254 L364.6484,1199.403 L364.8438,1214.328 L365.0391,1199.403 L365.2344,1196.418 L365.4297,1202.388 L365.625,1187.463 L365.8203,1193.433 L366.0156,1166.567 L366.211,1118.806 L366.4063,1190.448 L366.6016,1127.761 L366.7969,1196.418 L366.9922,1130.746 L367.1875,1178.507 L367.3828,1217.313 L367.5781,1193.433 L367.7734,1163.582 L367.9688,1205.373 L368.1641,1199.403 L368.3594,1199.403 L368.5547,1190.448 L368.75,1169.552 L368.9453,1235.224 L369.1407,1175.522 L369.3359,1184.478 L369.5313,1199.403 L369.7266,1214.328 L369.9219,1238.209 L370.1172,1193.433 L370.3125,1235.224 L370.5078,1172.537 L370.7031,1235.224 L370.8984,1214.328 L371.0938,1175.522 L371.2891,1202.388 L371.4844,1202.388 L371.6797,1214.328 L371.875,1172.537 L372.0703,1208.358 L372.2656,1193.433 L372.4609,1196.418 L372.6563,1217.313 L372.8516,1199.403 L373.0469,1202.388 L373.2422,1214.328 L373.4375,1175.522 L373.6328,1202.388 L373.8281,1163.582 L374.0235,1211.343 L374.2188,1190.448 L374.4141,1208.358 L374.6094,1184.478 L374.8047,1205.373 L375,1181.493 L375.1953,1199.403 L375.3906,1175.522 L375.5859,1184.478 L375.7813,1193.433 L375.9766,1199.403 L376.1719,1169.552 L376.3672,1202.388 L376.5625,1199.403 L376.7578,1220.298 L376.9532,1199.403 L377.1484,1193.433 " stroke="blue" fill="none" />
<text x="50" y="1330" font-family="Arial" font-size="12" fill="black">Policy Loss</text>
<text x="50" y="1345" font-family="Arial" font-size="10" fill="black">0.008181439</text>
<text x="50" y="1560" font-family="Arial" font-size="10" fill="black">0.0007222183</text>
<path d="M50,1468.822 L53.125,1531.451 L56.25,1531.506 L59.375,1532.122 L62.5,1535.623 L65.625,1524.727 L68.75,1527.441 L71.875,1529.046 L75,1402.909 L78.125,1529.653 L81.25,1516.441 L84.375,1529.503 L87.5,1535.836 L90.625,1516.273 L93.75,1535.027 L96.875,1503.616 L100,1410.103 L103.125,1528.898 L106.25,1517.33 L109.375,1531.399 L112.5,1517.208 L115.625,1538.449 L118.75,1513.502 L121.875,1513.205 L125,1413.269 L128.125,1538.273 L131.25,1540.307 L134.375,1532.744 L137.5,1544.984 L140.625,1522.395 L143.75,1529.698 L146.875,1529.411 L150,1446.723 L153.125,1525.987 L156.25,1533.18 L159.375,1526.606 L162.5,1539.037 L165.625,1533.979 L168.75,1529.03 L171.875,1528.94 L175,1350 L178.125,1536.359 L181.25,1527.862 L184.375,1525.259 L187.5,1522.278 L190.625,1535.264 L193.75,1546.571 L196.875,1543.962 L200,1412.147 L203.125,1526.901 L206.25,1515.09 L209.375,1534.768 L212.5,1521.88 L215.625,1519.954 L218.75,1543.451 L221.875,1517.436 L225,1419.504 L228.125,1520.862 L231.25,1531.848 L234.375,1528.705 L237.5,1528.007 L240.625,1529.107 L243.75,1531.393 L246.875,1523.992 L250,1415.372 L253.125,1523.65 L256.25,1538.005 L259.375,1526.158 L262.5,1532.099 L265.625,1521.395 L268.75,1533.465 L271.875,1522.017 L275,1436.239 L278.125,1550 L281.25,1539.754 L284.375,1532.829 L287.5,1532.219 L290.625,1527.954 L293.75,1522.071 L296.875,1526.979 L300,1385.074 L303.125,1535.918 L306.25,1525.385 L309.375,1521.895 L312.5,1527.349 L315.625,1529.294 L318.75,1532.529 L321.875,1538.696 " stroke="blue" fill="none" />
<text x="50" y="1600" font-family="Arial" font-size="12" fill="black">Value Loss</text>
<text x="50" y="1615" font-family="Arial" font-size="10" fill="black">0.003366722</text>
<text x="50" y="1830" font-family="Arial" font-size="10" fill="black">0.001435748</text>
<path d="M50,1756.491 L53.125,1774.807 L56.25,1785.73 L59.375,1792.371 L62.5,1796.896 L65.625,1801.516 L68.75,1804.801 L71.875,1808.302 L75,1620.001 L78.125,1641.165 L81.25,1655.668 L84.375,1666.034 L87.5,1672.613 L90.625,1678.391 L93.75,1685.45 L96.875,1687.799 L100,1767.037 L103.125,1782.439 L106.25,1791.497 L109.375,1797.736 L112.5,1802.103 L115.625,1806.093 L118.75,1809.824 L121.875,1812.871 L125,1733.538 L128.125,1740.27 L131.25,1753.482 L134.375,1761.121 L137.5,1766.843 L140.625,1770.368 L143.75,1774.915 L146.875,1778.505 L150,1727.823 L153.125,1742.623 L156.25,1753.807 L159.375,1761.508 L162.5,1767.972 L165.625,1773.818 L168.75,1776.728 L171.875,1781.495 L175,1681.748 L178.125,1706.375 L181.25,1717.709 L184.375,1726.464 L187.5,1733.166 L190.625,1738.78 L193.75,1744.518 L196.875,1747.517 L200,1711.232 L203.125,1727.333 L206.25,1740.433 L209.375,1750.418 L212.5,1756.892 L215.625,1763.078 L218.75,1768.898 L221.875,1773.17 L225,1769.297 L228.125,1784.491 L231.25,1797.05 L234.375,1804.704 L237.5,1809.179 L240.625,1813.135 L243.75,1817.58 L246.875,1820 L250,1677.175 L253.125,1696.119 L256.25,1709.766 L259.375,1719.705 L262.5,1726.93 L265.625,1732.791 L268.75,1738.216 L271.875,1742.786 L275,1717.055 L278.125,1727.822 L281.25,1740.245 L284.375,1747.413 L287.5,1753.772 L290.625,1758.232 L293.75,1763.411 L296.875,1765.837 L300,1723.717 L303.125,1738.507 L306.25,1753.742 L309.375,1763.744 L312.5,1770.135 L315.625,1774.836 L318.75,1779.213 L321.875,1784.407 " stroke="blue" fill="none" />
<text x="50" y="1870" font-family="Arial" font-size="12" fill="black">Learning Rate</text>
<text x="50" y="1885" font-family="Arial" font-size="10" fill="black">0.0002999991</text>
<text x="50" y="2100" font-family="Arial" font-size="10" fill="black">0.0002999206</text>
<path d="M50,1912.601 L53.125,1914.64 L56.25,1916.679 L59.375,1918.718 L62.5,1920.757 L65.625,1922.796 L68.75,1924.835 L71.875,1926.874 L75,1928.913 L78.125,1930.952 L81.25,1932.991 L84.375,1935.03 L87.5,1937.07 L90.625,1939.109 L93.75,1941.148 L96.875,1943.187 L100,1945.226 L103.125,1947.265 L106.25,1949.304 L109.375,1951.343 L112.5,1953.382 L115.625,1955.421 L118.75,1957.46 L121.875,1959.499 L125,1961.538 L128.125,1963.578 L131.25,1965.617 L134.375,1967.656 L137.5,1969.695 L140.625,1971.734 L143.75,1973.773 L146.875,1975.812 L150,1977.851 L153.125,1979.89 L156.25,1981.929 L159.375,1983.968 L162.5,1986.007 L165.625,1988.046 L168.75,1990.085 L171.875,1992.125 L175,1994.164 L178.125,1996.203 L181.25,1998.242 L184.375,2000.281 L187.5,2002.32 L190.625,2004.359 L193.75,2006.398 L196.875,2008.437 L200,2010.476 L203.125,2012.515 L206.25,2014.554 L209.375,2016.593 L212.5,2018.632 L215.625,2020.672 L218.75,2022.711 L221.875,2024.75 L225,2026.789 L228.125,2028.828 L231.25,2030.867 L234.375,2032.906 L237.5,2034.945 L240.625,2036.984 L243.75,2039.023 L246.875,2041.062 L250,2043.101 L253.125,2045.14 L256.25,2047.179 L259.375,2049.219 L262.5,2051.258 L265.625,2053.297 L268.75,2055.336 L271.875,2057.375 L275,2059.414 L278.125,2061.453 L281.25,2063.492 L284.375,2065.531 L287.5,2067.57 L290.625,2069.609 L293.75,2071.648 L296.875,2073.688 L300,2075.727 L303.125,2077.766 L306.25,2079.805 L309.375,2081.844 L312.5,2083.883 L315.625,2085.922 L318.75,2087.961 L321.875,2090 " stroke="blue" fill="none" />
<text x="50" y="2140" font-family="Arial" font-size="12" fill="black">Entropy</text>
<text x="50" y="2155" font-family="Arial" font-size="10" fill="black">0.01858937</text>
<text x="50" y="2370" font-family="Arial" font-size="10" fill="black">0.01669275</text>
<path d="M50,2315.066 L53.125,2326.772 L56.25,2330.024 L59.375,2343.294 L62.5,2336.43 L65.625,2332.383 L68.75,2351.557 L71.875,2332.076 L75,2346.287 L78.125,2309.566 L81.25,2340.249 L84.375,2340.533 L87.5,2354.384 L90.625,2353.077 L93.75,2348.692 L96.875,2360 L100,2306.511 L103.125,2280.879 L106.25,2302.002 L109.375,2303.066 L112.5,2323.945 L115.625,2303.552 L118.75,2331.405 L121.875,2313.124 L125,2276.983 L128.125,2269.321 L131.25,2275.86 L134.375,2284.726 L137.5,2295.888 L140.625,2288.498 L143.75,2309.067 L146.875,2301.83 L150,2304.906 L153.125,2305.971 L156.25,2316.784 L159.375,2338.988 L162.5,2324.806 L165.625,2338.382 L168.75,2325.954 L171.875,2339.833 L175,2240.345 L178.125,2250.55 L181.25,2272.778 L184.375,2255.97 L187.5,2280.178 L190.625,2280.083 L193.75,2276.474 L196.875,2285.99 L200,2241.976 L203.125,2249.287 L206.25,2268.913 L209.375,2279.295 L212.5,2273.176 L215.625,2271.493 L218.75,2276.888 L221.875,2262.18 L225,2276.56 L228.125,2223 L231.25,2243.791 L234.375,2253.25 L237.5,2233.302 L240.625,2264.738 L243.75,2250.999 L246.875,2245.69 L250,2290.35 L253.125,2267.464 L256.25,2293.086 L259.375,2293.662 L262.5,2308.361 L265.625,2300.879 L268.75,2301.587 L271.875,2312.143 L275,2226.574 L278.125,2243.353 L281.25,2239.457 L284.375,2265.51 L287.5,2256.573 L290.625,2272.022 L293.75,2253.844 L296.875,2276.318 L300,2173.402 L303.125,2160.001 L306.25,2199.632 L309.375,2203.697 L312.5,2210.297 L315.625,2207.894 L318.75,2218.916 L321.875,2218.469 " stroke="blue" fill="none" />
<text x="750" y="790" font-family="Arial" font-size="12" fill="black">Simplified</text>
<text x="750" y="805" font-family="Arial" font-size="10" fill="black">3.535161</text>
<text x="750" y="1020" font-family="Arial" font-size="10" fill="black">2.748586</text>
<path d="M753.5156,952.135 L757.2266,989.025 L760.9375,927.5961 L764.6484,958.8804 L768.3594,940.7108 L772.0703,967.23 L775.7813,975.5376 L779.4922,925.9813 L783.2031,967.9437 L786.9141,940.128 L790.625,876.3404 L794.3359,889.3893 L798.0469,930.0294 L801.7578,967.2935 L805.4688,917.8848 L809.1797,938.4918 L812.8906,942.5336 L816.6016,962.519 L820.3125,945.7897 L824.0234,967.1877 L827.7344,873.0206 L831.4453,925.3031 L835.1563,940.4401 L838.8672,901.5315 L842.5781,872.876 L846.2891,959.1168 L850,907.4595 L853.7109,973.1549 L857.4219,1009.901 L861.1328,979.178 L864.8438,948.6383 L868.5547,931.5636 L872.2656,953.2448 L875.9766,889.3965 L879.6875,940.5566 L883.3984,977.4307 L887.1094,986.7709 L890.8203,894.7201 L894.5313,908.8001 L898.2422,947.6097 L901.9531,984.0817 L905.6641,911.7495 L909.375,978.6812 L913.0859,907.1722 L916.7969,925.2325 L920.5078,897.2432 L924.2188,959.1036 L927.9297,966.1356 L931.6406,935.3052 L935.3516,936.8622 L939.0625,963.821 L942.7734,959.6683 L946.4844,855.3907 L950.1953,966.6523 L953.9063,949.386 L957.6172,913.3317 L961.3281,986.2641 L965.0391,894.4788 L968.75,914.7399 L972.4609,880.8725 L976.1719,928.8563 L979.8828,920.6198 L983.5938,906.5175 L987.3047,1010 L991.0156,810 L994.7266,903.3831 L998.4375,884.1642 L1002.148,968.4659 L1005.859,930.0023 L1009.57,928.6834 L1013.281,875.3383 L1016.992,850.6609 L1020.703,931.0048 L1024.414,946.8478 L1028.125,901.5945 L1031.836,926.8744 L1035.547,941.8052 L1039.258,958.1724 L1042.969,967.8818 L1046.68,855.4741 L1050.391,894.6865 L1054.102,935.8378 L1057.813,875.8308 L1061.523,909.2786 L1065.234,916.1991 L1068.945,850.2979 L1072.656,981.1494 L1076.367,921.3847 L1077.148,994.7136 " stroke="blue" fill="none" />
<text x="750" y="1060" font-family="Arial" font-size="12" fill="black">Simplified</text>
<text x="750" y="1075" font-family="Arial" font-size="10" fill="black">45.68421</text>
<text x="750" y="1290" font-family="Arial" font-size="10" fill="black">35.68421</text>
<path d="M753.5156,1220 L757.2266,1258.947 L760.9375,1197.895 L764.6484,1229.474 L768.3594,1213.684 L772.0703,1235.79 L775.7813,1244.211 L779.4922,1191.579 L783.2031,1234.737 L786.9141,1212.632 L790.625,1143.158 L794.3359,1158.947 L798.0469,1193.684 L801.7578,1233.684 L805.4688,1187.369 L809.1797,1205.263 L812.8906,1214.737 L816.6016,1229.474 L820.3125,1212.632 L824.0234,1232.632 L827.7344,1140 L831.4453,1193.684 L835.1563,1204.211 L838.8672,1168.421 L842.5781,1140 L846.2891,1227.369 L850,1176.842 L853.7109,1244.211 L857.4219,1280 L861.1328,1250.526 L864.8438,1216.842 L868.5547,1201.053 L872.2656,1220 L875.9766,1154.737 L879.6875,1207.369 L883.3984,1249.474 L887.1094,1252.632 L890.8203,1161.053 L894.5313,1178.947 L898.2422,1216.842 L901.9531,1255.79 L905.6641,1178.947 L909.375,1250.526 L913.0859,1176.842 L916.7969,1192.632 L920.5078,1165.263 L924.2188,1228.421 L927.9297,1235.79 L931.6406,1203.158 L935.3516,1207.369 L939.0625,1229.474 L942.7734,1226.316 L946.4844,1124.211 L950.1953,1233.684 L953.9063,1215.79 L957.6172,1181.053 L961.3281,1253.684 L965.0391,1165.263 L968.75,1185.263 L972.4609,1147.369 L976.1719,1196.842 L979.8828,1189.474 L983.5938,1172.632 L987.3047,1275.79 L991.0156,1080 L994.7266,1172.632 L998.4375,1153.684 L1002.148,1238.947 L1005.859,1200 L1009.57,1201.053 L1013.281,1142.105 L1016.992,1116.842 L1020.703,1202.105 L1024.414,1214.737 L1028.125,1175.79 L1031.836,1193.684 L1035.547,1209.474 L1039.258,1227.369 L1042.969,1235.79 L1046.68,1123.158 L1050.391,1163.158 L1054.102,1202.105 L1057.813,1144.211 L1061.523,1174.737 L1065.234,1183.158 L1068.945,1120 L1072.656,1253.684 L1076.367,1189.474 L1077.148,1258.684 " stroke="blue" fill="none" />
</svg>
