<svg width="2000" height="2500" xmlns="http://www.w3.org/2000/svg">
<text x="10" y="20" font-family="Arial" font-size="26" fill="black"> [HumanWalk] Training Session</text>
<text x="10" y="50" font-family="Arial" font-size="16" fill="black">[Statistics]</text>
<text x="50" y="70" font-family="Arial" font-size="12" fill="black">Started at: 6:32:06 PM, Wednesday, October 25, 2023</text>
<text x="50" y="90" font-family="Arial" font-size="12" fill="black">Finished at: 6:34:55 PM, Wednesday, October 25, 2023</text>
<text x="50" y="110" font-family="Arial" font-size="12" fill="black">Training Session Time: 0 hrs : 2 min : 49 sec</text>
<text x="50" y="130" font-family="Arial" font-size="12" fill="black">Inference Time: 0 hrs : 10 min : 7 sec       [Per agent: 0 hrs : 10 min : 7 sec]        [Device: CPU]</text>
<text x="50" y="150" font-family="Arial" font-size="12" fill="black">Policy Update Time: 0 hrs : 0 min : 29 sec        [Per iteration: 0 hrs : 0 min : 13 sec]        [Device: GPU]</text>
<text x="50" y="170" font-family="Arial" font-size="12" fill="black">Inference Time / Training Session Time: 3.421</text>
<text x="50" y="190" font-family="Arial" font-size="12" fill="black">Policy Update Time / Training Session Time: 0.200</text>
<text x="50" y="210" font-family="Arial" font-size="12" fill="black">Episode Count: 379</text>
<text x="50" y="230" font-family="Arial" font-size="12" fill="black">Inference Steps: 15161    [Per agent: 15161]     [Per Episode (mean): 40]</text>
<text x="50" y="250" font-family="Arial" font-size="12" fill="black">Iterations: 2</text>
<text x="50" y="270" font-family="Arial" font-size="12" fill="black">Parallel Agents: 1</text>
<text x="50" y="290" font-family="Arial" font-size="12" fill="black">Timescale: 4.37</text>
<text x="10" y="340" font-family="Arial" font-size="16" fill="black">[Hyperparameters]</text>
<text x="50" y="360" font-family="Arial" font-size="12" fill="black">Buffer Size: 6000        [Batch Size: 400       (x15)]</text>
<text x="50" y="380" font-family="Arial" font-size="12" fill="black">Num Epoch: 8</text>
<text x="50" y="400" font-family="Arial" font-size="12" fill="black">Time Horizon: 64</text>
<text x="50" y="420" font-family="Arial" font-size="12" fill="black">Gradient Cliping Normalization: 0.5</text>
<text x="50" y="440" font-family="Arial" font-size="12" fill="black">Advantages Normalization: True</text>
<text x="50" y="460" font-family="Arial" font-size="12" fill="black">Training Data Shuffle: True</text>
<text x="50" y="480" font-family="Arial" font-size="12" fill="black">Learning Rate Schedule: False    </text>
<text x="10" y="530" font-family="Arial" font-size="16" fill="black">[Behaviour]</text>
<text x="50" y="550" font-family="Arial" font-size="12" fill="black">Space Size: 142</text>
<text x="50" y="570" font-family="Arial" font-size="12" fill="black">Continuous Actions: 29 [Standard Deviation: Trainable]     [Scale: 1]</text>
<text x="50" y="590" font-family="Arial" font-size="12" fill="black">Discrete Actions: 0</text>
<text x="50" y="610" font-family="Arial" font-size="12" fill="black">TargetFPS: 50 (physics update rate)</text>
<text x="50" y="630" font-family="Arial" font-size="12" fill="black">Observations Normalization: False</text>
<text x="10" y="680" font-family="Arial" font-size="16" fill="black">[Decision Requester]</text>
<text x="50" y="700" font-family="Arial" font-size="12" fill="black">Max Step: 3000</text>
<text x="50" y="720" font-family="Arial" font-size="12" fill="black">Decision Period: 2      [Actions Between Decisions: True]</text>
<text x="10" y="770" font-family="Arial" font-size="16" fill="black">[Graphs]</text>
<text x="50" y="790" font-family="Arial" font-size="12" fill="black">Episode Reward (379)</text>
<text x="50" y="805" font-family="Arial" font-size="10" fill="black">6.385014</text>
<text x="50" y="1020" font-family="Arial" font-size="10" fill="black">1.615327</text>
<path d="M50,946.0837 L50.78125,932.1717 L51.5625,960.3264 L52.34375,956.3269 L53.125,967.5231 L53.90625,926.0452 L54.6875,905.1989 L55.46875,916.3417 L56.25,934.4021 L57.03125,977.7213 L57.8125,979.6914 L58.59375,977.2427 L59.375,917.8371 L60.15625,933.3944 L60.9375,930.1436 L61.71875,948.322 L62.5,942.009 L63.28125,928.8802 L64.0625,940.0174 L64.84375,909.8152 L65.625,946.2848 L66.40625,917.9348 L67.1875,982.3849 L67.96875,953.8867 L68.75,944.6842 L69.53125,968.1343 L70.3125,963.2081 L71.09375,982.4407 L71.875,953.1099 L72.65625,961.6109 L73.4375,951.3262 L74.21875,945.6954 L75,953.1271 L75.78125,977.6214 L76.5625,953.1655 L77.34375,935.1769 L78.125,965.3564 L78.90625,962.2701 L79.6875,908.0966 L80.46875,936.6745 L81.25,910.6887 L82.03125,956.1819 L82.8125,985.7245 L83.59375,918.7259 L84.375,955.0269 L85.15625,960.2056 L85.9375,959.1723 L86.71875,945.6437 L87.5,958.8416 L88.28125,963.6666 L89.0625,938.4135 L89.84375,966.4491 L90.625,977.8247 L91.40625,860.6095 L92.1875,979.6496 L92.96875,984.103 L93.75,973.9221 L94.53125,958.5435 L95.3125,919.6362 L96.09375,981.742 L96.875,962.0972 L97.65625,934.5295 L98.4375,982.3651 L99.21875,954.743 L100,985.7014 L100.7813,958.5034 L101.5625,941.8362 L102.3438,949.0504 L103.125,924.4358 L103.9063,925.2353 L104.6875,945.3826 L105.4688,943.0162 L106.25,942.4319 L107.0313,971.6273 L107.8125,941.9516 L108.5938,964.7285 L109.375,1010 L110.1563,957.1334 L110.9375,970.5674 L111.7188,954.7325 L112.5,823.5719 L113.2813,954.0215 L114.0625,955.4138 L114.8438,996.3112 L115.625,964.655 L116.4063,965.655 L117.1875,968.6755 L117.9688,950.4514 L118.75,985.9788 L119.5313,909.7145 L120.3125,985.8403 L121.0938,947.7894 L121.875,868.9697 L122.6563,920.7992 L123.4375,969.4319 L124.2188,931.1114 L125,958.6701 L125.7813,960.2739 L126.5625,956.7666 L127.3438,965.4637 L128.125,961.6254 L128.9063,954.6597 L129.6875,962.5965 L130.4688,976.8347 L131.25,974.4495 L132.0313,967.9559 L132.8125,981.4225 L133.5938,973.3597 L134.375,921.6088 L135.1563,941.2975 L135.9375,951.7943 L136.7188,948.9503 L137.5,941.9988 L138.2813,941.3481 L139.0625,968.9431 L139.8438,946.299 L140.625,921.9688 L141.4063,942.4362 L142.1875,993.7974 L142.9688,929.6805 L143.75,970.7726 L144.5313,932.8616 L145.3125,941.697 L146.0938,966.4406 L146.875,968.4491 L147.6563,810 L148.4375,921.9241 L149.2188,948.5251 L150,966.9092 L150.7813,963.4807 L151.5625,972.0916 L152.3438,894.1308 L153.125,944.1638 L153.9063,971.8166 L154.6875,969.9554 L155.4688,905.7543 L156.25,961.4431 L157.0313,945.631 L157.8125,961.5157 L158.5938,954.2972 L159.375,936.1827 L160.1563,939.0182 L160.9375,968.6206 L161.7188,959.2954 L162.5,960.2798 L163.2813,971.2804 L164.0625,964.1837 L164.8438,934.4263 L165.625,935.0547 L166.4063,969.1535 L167.1875,966.5734 L167.9688,949.5994 L168.75,994.1011 L169.5313,969.0005 L170.3125,945.9935 L171.0938,936.2194 L171.875,957.2349 L172.6563,952.5964 L173.4375,965.7293 L174.2188,963.4145 L175,950.4578 L175.7813,956.0519 L176.5625,904.3925 L177.3438,967.227 L178.125,929.1535 L178.9063,919.1156 L179.6875,963.7484 L180.4688,981.2313 L181.25,929.2505 L182.0313,905.752 L182.8125,901.2994 L183.5938,940.2425 L184.375,933.2712 L185.1563,933.2529 L185.9375,942.7192 L186.7188,943.3389 L187.5,867.8127 L188.2813,903.708 L189.0625,924.7203 L189.8438,989.4048 L190.625,971.3539 L191.4063,941.7383 L192.1875,907.0496 L192.9688,988.0624 L193.75,945.1737 L194.5313,859.6721 L195.3125,968.4376 L196.0938,919.3544 L196.875,930.4415 L197.6563,959.5096 L198.4375,989.3658 L199.2188,897.2057 L200,956.3927 L200.7813,981.6816 L201.5625,934.728 L202.3438,963.6654 L203.125,972.871 L203.9063,934.9442 L204.6875,955.5385 L205.4688,974.1321 L206.25,955.9698 L207.0313,974.7504 L207.8125,968.7844 L208.5938,941.9315 L209.375,952.2574 L210.1563,945.8729 L210.9375,959.9586 L211.7188,968.4193 L212.5,948.5356 L213.2813,932.5261 L214.0625,951.5537 L214.8438,970.7319 L215.625,942.6315 L216.4063,944.0981 L217.1875,963.8073 L217.9688,929.3782 L218.75,930.4957 L219.5313,971.0974 L220.3125,931.6582 L221.0938,899.469 L221.875,885.1577 L222.6563,925.6318 L223.4375,941.3481 L224.2188,946.412 L225,975.58 L225.7813,972.3159 L226.5625,970.0331 L227.3438,998.6134 L228.125,950.8822 L228.9063,957.2446 L229.6875,898.8567 L230.4688,925.915 L231.25,970.8027 L232.0313,936.197 L232.8125,957.396 L233.5938,963.791 L234.375,981.5392 L235.1563,942.5505 L235.9375,971.8956 L236.7188,894.1753 L237.5,980.9361 L238.2813,945.3892 L239.0625,956.519 L239.8438,960.9521 L240.625,960.6398 L241.4063,987.1685 L242.1875,951.5273 L242.9688,955.1542 L243.75,1001.985 L244.5313,966.8888 L245.3125,932.951 L246.0938,947.1048 L246.875,999.0398 L247.6563,938.7005 L248.4375,922.3273 L249.2188,964.2148 L250,967.4355 L250.7813,940.737 L251.5625,936.167 L252.3438,938.9829 L253.125,948.4515 L253.9063,962.7388 L254.6875,962.0128 L255.4688,946.6039 L256.25,931.1787 L257.0313,966.8672 L257.8125,945.8949 L258.5938,993.403 L259.375,968.7867 L260.1563,947.8562 L260.9375,902.8417 L261.7188,936.6016 L262.5,973.3242 L263.2813,963.4511 L264.0625,946.7407 L264.8438,911.873 L265.625,957.2094 L266.4063,954.9978 L267.1875,915.1655 L267.9688,936.3312 L268.75,915.5127 L269.5313,985.0098 L270.3125,931.626 L271.0938,940.5498 L271.875,952.1375 L272.6563,959.6212 L273.4375,958.7077 L274.2188,977.6351 L275,949.9696 L275.7813,977.8569 L276.5625,946.8092 L277.3438,952.8674 L278.125,962.4388 L278.9063,932.4954 L279.6875,963.4243 L280.4688,985.8849 L281.25,959.5844 L282.0313,971.2606 L282.8125,932.5823 L283.5938,905.3859 L284.375,939.5907 L285.1563,895.7634 L285.9375,936.6834 L286.7188,920.9213 L287.5,953.3749 L288.2813,900.3171 L289.0625,957.8574 L289.8438,956.199 L290.625,983.4667 L291.4063,922.2654 L292.1875,932.9706 L292.9688,950.7174 L293.75,962.5045 L294.5313,961.0994 L295.3125,924.7758 L296.0938,950.4094 L296.875,988.7139 L297.6563,896.0958 L298.4375,922.0203 L299.2188,943.4055 L300,875.284 L300.7813,982.2278 L301.5625,937.9915 L302.3438,955.5326 L303.125,899.2689 L303.9063,941.3853 L304.6875,957.9653 L305.4688,970.6697 L306.25,952.4156 L307.0313,956.5166 L307.8125,961.7073 L308.5938,965.7368 L309.375,977.9075 L310.1563,971.672 L310.9375,974.5463 L311.7188,975.3299 L312.5,944.9607 L313.2813,938.9464 L314.0625,956.9886 L314.8438,927.0344 L315.625,969.8841 L316.4063,930.085 L317.1875,943.9489 L317.9688,888.0482 L318.75,949.5002 L319.5313,914.8729 L320.3125,963.7067 L321.0938,988.8969 L321.875,929.2993 L322.6563,972.1384 L323.4375,975.5349 L324.2188,930.1953 L325,963.0126 L325.7813,916.2264 L326.5625,951.1949 L327.3438,943.8887 L328.125,949.7116 L328.9063,955.3821 L329.6875,936.1328 L330.4688,955.5844 L331.25,888.614 L332.0313,946.1674 L332.8125,921.7574 L333.5938,958.5375 L334.375,951.8311 L335.1563,954.6539 L335.9375,935.5712 L336.7188,955.3258 L337.5,948.0908 L338.2813,943.4261 L339.0625,978.992 L339.8438,964.0895 L340.625,952.3508 L341.4063,928.6558 L342.1875,975.5032 L342.9688,902.903 L343.75,936.7625 L344.5313,918.1061 L345.3125,982.8542 " stroke="blue" fill="none" />
<text x="50" y="1060" font-family="Arial" font-size="12" fill="black">Episode Length (379)</text>
<text x="50" y="1075" font-family="Arial" font-size="10" fill="black">82</text>
<text x="50" y="1290" font-family="Arial" font-size="10" fill="black">21</text>
<path d="M50,1217.705 L50.78125,1201.312 L51.5625,1227.541 L52.34375,1224.262 L53.125,1237.377 L53.90625,1191.475 L54.6875,1171.803 L55.46875,1184.918 L56.25,1204.59 L57.03125,1247.213 L57.8125,1250.492 L58.59375,1247.213 L59.375,1188.197 L60.15625,1201.312 L60.9375,1201.312 L61.71875,1217.705 L62.5,1211.148 L63.28125,1198.033 L64.0625,1211.148 L64.84375,1178.361 L65.625,1214.426 L66.40625,1188.197 L67.1875,1250.492 L67.96875,1224.262 L68.75,1214.426 L69.53125,1237.377 L70.3125,1230.82 L71.09375,1250.492 L71.875,1220.984 L72.65625,1230.82 L73.4375,1220.984 L74.21875,1214.426 L75,1220.984 L75.78125,1243.934 L76.5625,1224.262 L77.34375,1207.869 L78.125,1237.377 L78.90625,1230.82 L79.6875,1178.361 L80.46875,1204.59 L81.25,1181.639 L82.03125,1220.984 L82.8125,1253.771 L83.59375,1191.475 L84.375,1224.262 L85.15625,1227.541 L85.9375,1227.541 L86.71875,1214.426 L87.5,1227.541 L88.28125,1234.098 L89.0625,1207.869 L89.84375,1234.098 L90.625,1247.213 L91.40625,1132.459 L92.1875,1250.492 L92.96875,1253.771 L93.75,1243.934 L94.53125,1227.541 L95.3125,1191.475 L96.09375,1250.492 L96.875,1230.82 L97.65625,1204.59 L98.4375,1253.771 L99.21875,1224.262 L100,1253.771 L100.7813,1227.541 L101.5625,1211.148 L102.3438,1217.705 L103.125,1194.754 L103.9063,1194.754 L104.6875,1214.426 L105.4688,1211.148 L106.25,1211.148 L107.0313,1240.656 L107.8125,1214.426 L108.5938,1234.098 L109.375,1280 L110.1563,1227.541 L110.9375,1240.656 L111.7188,1224.262 L112.5,1096.393 L113.2813,1224.262 L114.0625,1220.984 L114.8438,1266.885 L115.625,1234.098 L116.4063,1234.098 L117.1875,1237.377 L117.9688,1220.984 L118.75,1257.049 L119.5313,1178.361 L120.3125,1253.771 L121.0938,1217.705 L121.875,1139.016 L122.6563,1188.197 L123.4375,1240.656 L124.2188,1201.312 L125,1227.541 L125.7813,1230.82 L126.5625,1224.262 L127.3438,1234.098 L128.125,1230.82 L128.9063,1224.262 L129.6875,1234.098 L130.4688,1247.213 L131.25,1243.934 L132.0313,1237.377 L132.8125,1250.492 L133.5938,1243.934 L134.375,1191.475 L135.1563,1211.148 L135.9375,1220.984 L136.7188,1217.705 L137.5,1211.148 L138.2813,1211.148 L139.0625,1237.377 L139.8438,1217.705 L140.625,1191.475 L141.4063,1211.148 L142.1875,1263.607 L142.9688,1194.754 L143.75,1240.656 L144.5313,1204.59 L145.3125,1211.148 L146.0938,1234.098 L146.875,1237.377 L147.6563,1080 L148.4375,1191.475 L149.2188,1217.705 L150,1234.098 L150.7813,1230.82 L151.5625,1243.934 L152.3438,1161.967 L153.125,1207.869 L153.9063,1240.656 L154.6875,1237.377 L155.4688,1175.082 L156.25,1230.82 L157.0313,1214.426 L157.8125,1230.82 L158.5938,1224.262 L159.375,1207.869 L160.1563,1207.869 L160.9375,1237.377 L161.7188,1227.541 L162.5,1230.82 L163.2813,1240.656 L164.0625,1234.098 L164.8438,1204.59 L165.625,1204.59 L166.4063,1237.377 L167.1875,1237.377 L167.9688,1220.984 L168.75,1263.607 L169.5313,1237.377 L170.3125,1214.426 L171.0938,1204.59 L171.875,1224.262 L172.6563,1220.984 L173.4375,1230.82 L174.2188,1234.098 L175,1220.984 L175.7813,1224.262 L176.5625,1175.082 L177.3438,1240.656 L178.125,1201.312 L178.9063,1188.197 L179.6875,1234.098 L180.4688,1250.492 L181.25,1198.033 L182.0313,1175.082 L182.8125,1171.803 L183.5938,1207.869 L184.375,1201.312 L185.1563,1201.312 L185.9375,1211.148 L186.7188,1211.148 L187.5,1139.016 L188.2813,1175.082 L189.0625,1194.754 L189.8438,1260.328 L190.625,1240.656 L191.4063,1211.148 L192.1875,1175.082 L192.9688,1257.049 L193.75,1214.426 L194.5313,1129.18 L195.3125,1237.377 L196.0938,1188.197 L196.875,1201.312 L197.6563,1227.541 L198.4375,1257.049 L199.2188,1168.525 L200,1224.262 L200.7813,1250.492 L201.5625,1204.59 L202.3438,1230.82 L203.125,1243.934 L203.9063,1204.59 L204.6875,1224.262 L205.4688,1243.934 L206.25,1224.262 L207.0313,1240.656 L207.8125,1237.377 L208.5938,1211.148 L209.375,1220.984 L210.1563,1214.426 L210.9375,1230.82 L211.7188,1237.377 L212.5,1217.705 L213.2813,1201.312 L214.0625,1220.984 L214.8438,1237.377 L215.625,1211.148 L216.4063,1214.426 L217.1875,1234.098 L217.9688,1198.033 L218.75,1198.033 L219.5313,1240.656 L220.3125,1201.312 L221.0938,1171.803 L221.875,1152.131 L222.6563,1194.754 L223.4375,1211.148 L224.2188,1214.426 L225,1243.934 L225.7813,1243.934 L226.5625,1237.377 L227.3438,1270.164 L228.125,1220.984 L228.9063,1227.541 L229.6875,1165.246 L230.4688,1194.754 L231.25,1240.656 L232.0313,1204.59 L232.8125,1227.541 L233.5938,1230.82 L234.375,1247.213 L235.1563,1207.869 L235.9375,1240.656 L236.7188,1165.246 L237.5,1250.492 L238.2813,1214.426 L239.0625,1224.262 L239.8438,1227.541 L240.625,1230.82 L241.4063,1257.049 L242.1875,1220.984 L242.9688,1220.984 L243.75,1273.443 L244.5313,1234.098 L245.3125,1204.59 L246.0938,1214.426 L246.875,1266.885 L247.6563,1207.869 L248.4375,1191.475 L249.2188,1234.098 L250,1237.377 L250.7813,1211.148 L251.5625,1204.59 L252.3438,1204.59 L253.125,1214.426 L253.9063,1230.82 L254.6875,1230.82 L255.4688,1214.426 L256.25,1201.312 L257.0313,1237.377 L257.8125,1214.426 L258.5938,1260.328 L259.375,1237.377 L260.1563,1214.426 L260.9375,1171.803 L261.7188,1204.59 L262.5,1240.656 L263.2813,1234.098 L264.0625,1214.426 L264.8438,1181.639 L265.625,1227.541 L266.4063,1220.984 L267.1875,1184.918 L267.9688,1204.59 L268.75,1184.918 L269.5313,1253.771 L270.3125,1201.312 L271.0938,1211.148 L271.875,1220.984 L272.6563,1227.541 L273.4375,1227.541 L274.2188,1243.934 L275,1217.705 L275.7813,1247.213 L276.5625,1217.705 L277.3438,1220.984 L278.125,1230.82 L278.9063,1201.312 L279.6875,1234.098 L280.4688,1253.771 L281.25,1230.82 L282.0313,1240.656 L282.8125,1201.312 L283.5938,1175.082 L284.375,1204.59 L285.1563,1165.246 L285.9375,1201.312 L286.7188,1191.475 L287.5,1220.984 L288.2813,1171.803 L289.0625,1224.262 L289.8438,1224.262 L290.625,1250.492 L291.4063,1191.475 L292.1875,1201.312 L292.9688,1220.984 L293.75,1230.82 L294.5313,1230.82 L295.3125,1191.475 L296.0938,1217.705 L296.875,1257.049 L297.6563,1165.246 L298.4375,1191.475 L299.2188,1211.148 L300,1145.574 L300.7813,1253.771 L301.5625,1207.869 L302.3438,1224.262 L303.125,1168.525 L303.9063,1211.148 L304.6875,1227.541 L305.4688,1237.377 L306.25,1220.984 L307.0313,1224.262 L307.8125,1230.82 L308.5938,1234.098 L309.375,1247.213 L310.1563,1240.656 L310.9375,1243.934 L311.7188,1243.934 L312.5,1214.426 L313.2813,1207.869 L314.0625,1227.541 L314.8438,1194.754 L315.625,1240.656 L316.4063,1198.033 L317.1875,1214.426 L317.9688,1158.688 L318.75,1220.984 L319.5313,1184.918 L320.3125,1230.82 L321.0938,1257.049 L321.875,1194.754 L322.6563,1240.656 L323.4375,1247.213 L324.2188,1198.033 L325,1230.82 L325.7813,1184.918 L326.5625,1220.984 L327.3438,1211.148 L328.125,1217.705 L328.9063,1224.262 L329.6875,1204.59 L330.4688,1224.262 L331.25,1158.688 L332.0313,1214.426 L332.8125,1188.197 L333.5938,1227.541 L334.375,1220.984 L335.1563,1224.262 L335.9375,1204.59 L336.7188,1227.541 L337.5,1217.705 L338.2813,1214.426 L339.0625,1247.213 L339.8438,1234.098 L340.625,1220.984 L341.4063,1198.033 L342.1875,1243.934 L342.9688,1171.803 L343.75,1204.59 L344.5313,1188.197 L345.3125,1250.492 " stroke="blue" fill="none" />
<text x="50" y="1330" font-family="Arial" font-size="12" fill="black">Policy Loss</text>
<text x="50" y="1345" font-family="Arial" font-size="10" fill="black">0.006869528</text>
<text x="50" y="1560" font-family="Arial" font-size="10" fill="black">0.001299825</text>
<path d="M50,1350 L75,1539.775 L100,1534.692 L125,1533.516 L150,1544.932 L175,1545.612 L200,1537.624 L225,1550 L250,1413.262 L275,1540.1 L300,1535.518 L325,1547.973 L350,1533.094 L375,1535.011 L400,1534.386 L425,1538.181 " stroke="blue" fill="none" />
<text x="50" y="1600" font-family="Arial" font-size="12" fill="black">Value Loss</text>
<text x="50" y="1615" font-family="Arial" font-size="10" fill="black">0.00322662</text>
<text x="50" y="1830" font-family="Arial" font-size="10" fill="black">0.001722045</text>
<path d="M50,1620.001 L75,1651.983 L100,1673.324 L125,1686.255 L150,1695.551 L175,1701.507 L200,1708.708 L225,1713.931 L250,1742.099 L275,1759.379 L300,1781.703 L325,1792.852 L350,1801.456 L375,1808.984 L400,1814.484 L425,1820 " stroke="blue" fill="none" />
<text x="50" y="1870" font-family="Arial" font-size="12" fill="black">Learning Rate</text>
<text x="50" y="1885" font-family="Arial" font-size="10" fill="black">0.0002999991</text>
<text x="50" y="2100" font-family="Arial" font-size="10" fill="black">0.0002999856</text>
<path d="M50,1974.986 L75,1982.654 L100,1990.321 L125,1997.989 L150,2005.656 L175,2013.324 L200,2020.992 L225,2028.659 L250,2036.327 L275,2043.994 L300,2051.662 L325,2059.33 L350,2066.997 L375,2074.665 L400,2082.333 L425,2090 " stroke="blue" fill="none" />
<text x="50" y="2140" font-family="Arial" font-size="12" fill="black">Entropy</text>
<text x="50" y="2155" font-family="Arial" font-size="10" fill="black">0.01719548</text>
<text x="50" y="2370" font-family="Arial" font-size="10" fill="black">0.01619319</text>
<path d="M50,2160.002 L75,2261.543 L100,2305.054 L125,2320.122 L150,2318.481 L175,2344.96 L200,2352.665 L225,2360 L250,2184.885 L275,2180.726 L300,2210.034 L325,2228.911 L350,2215.563 L375,2228.274 L400,2241.409 L425,2240.66 " stroke="blue" fill="none" />
<text x="750" y="790" font-family="Arial" font-size="12" fill="black">Simplified</text>
<text x="750" y="805" font-family="Arial" font-size="10" fill="black">3.398608</text>
<text x="750" y="1020" font-family="Arial" font-size="10" fill="black">2.886819</text>
<path d="M764.0625,883.7798 L778.9063,985.5868 L793.75,942.6118 L808.5938,966.1251 L823.4375,952.467 L838.2813,1007.637 L853.125,876.3694 L867.9688,984.0406 L882.8125,919.2388 L897.6563,810 L912.5,1010 L927.3438,914.6132 L942.1875,969.4706 L957.0313,986.7189 L971.875,913.0305 L986.7188,937.6392 L1001.563,874.9592 L1016.406,986.2338 L1031.25,881.9208 L1045.313,924.7034 " stroke="blue" fill="none" />
<text x="750" y="1060" font-family="Arial" font-size="12" fill="black">Simplified</text>
<text x="750" y="1075" font-family="Arial" font-size="10" fill="black">44.05263</text>
<text x="750" y="1290" font-family="Arial" font-size="10" fill="black">37.47368</text>
<path d="M764.0625,1153.6 L778.9063,1254.4 L793.75,1212.8 L808.5938,1238.4 L823.4375,1225.6 L838.2813,1280 L853.125,1142.4 L867.9688,1256 L882.8125,1190.4 L897.6563,1080 L912.5,1276.8 L927.3438,1184 L942.1875,1233.6 L957.0313,1251.2 L971.875,1177.6 L986.7188,1201.6 L1001.563,1140.8 L1016.406,1252.8 L1031.25,1148.8 L1045.313,1193.067 " stroke="blue" fill="none" />
</svg>
