<svg width="800" height="600" xmlns="http://www.w3.org/2000/svg">
<text x="10" y="20" font-family="Arial" font-size="16" fill="black"> [DeepUnity] Training Session</text>
<text x="10" y="40" font-family="Arial" font-size="12" fill="black">Start: 6:16:26 PM, Saturday, August 26, 2023</text>
<text x="10" y="60" font-family="Arial" font-size="12" fill="black">End: 7:21:11 PM, Saturday, August 26, 2023</text>
<text x="10" y="80" font-family="Arial" font-size="12" fill="black">Real Training Time: 1 hrs : 4 min : 39 sec</text>
<text x="10" y="100" font-family="Arial" font-size="12" fill="black">Training Time: 1931.089</text>
<text x="10" y="120" font-family="Arial" font-size="12" fill="black">Iterations: 22</text>
<text x="10" y="140" font-family="Arial" font-size="12" fill="black">Parallel Agents: 5</text>
<text x="10" y="160" font-family="Arial" font-size="12" fill="black">Episode Reward</text>
<path d="M10,210.6376 L210,210.6376" stroke="gray" />
<text x="5" y="215.6376" font-family="Arial" font-size="10" fill="black">0</text>
<text x="5" y="180" font-family="Arial" font-size="10" fill="black">0.8525001</text>
<text x="5" y="380" font-family="Arial" font-size="10" fill="black">-4.712561</text>
<path d="M0.3690037,259.1546 L0.7380074,264.1859 L1.107011,276.9441 L1.476015,315.4889 L1.845018,256.4592 L2.214022,262.7484 L2.583026,185.7502 L2.952029,345.4092 L3.321033,345.4092 L3.690037,345.4092 L4.059041,345.4092 L4.428044,272.0026 L4.797048,194.5551 L5.166051,286.2882 L5.535055,345.4092 L5.904059,345.4092 L6.273063,345.4092 L6.642066,259.7835 L7.01107,345.4092 L7.380074,345.4092 L7.749078,257.3576 L8.118081,345.4092 L8.487084,254.8419 L8.856089,345.4092 L9.225092,260.8616 L9.594096,345.4092 L9.963099,186.3791 L10.3321,190.6917 L10.70111,345.4092 L11.07011,210.9071 L11.43911,224.8336 L11.80812,380 L12.17712,180.5391 L12.54613,345.4092 L12.91513,345.4092 L13.28413,186.8283 L13.65314,345.4092 L14.02214,255.4709 L14.39114,182.5157 L14.76015,309.1097 L15.12915,199.6763 L15.49816,280.3582 L15.86716,345.4092 L16.23616,185.7502 L16.60517,256.9983 L16.97417,254.0333 L17.34317,194.1059 L17.71218,263.0191 L18.08118,343.9716 L18.45018,340.3769 L18.81919,186.8283 L19.18819,345.3194 L19.5572,256.8186 L19.9262,345.4092 L20.2952,304.9767 L20.66421,188.8948 L21.03321,181.8868 L21.40221,345.4092 L21.77122,256.549 L22.14022,294.3745 L22.50922,345.4092 L22.87823,301.5624 L23.24723,344.8701 L23.61624,255.6506 L23.98524,345.4092 L24.35424,345.4092 L24.72325,345.4092 L25.09225,302.7304 L25.46125,345.1397 L25.83026,184.4025 L26.19926,345.4092 L26.56827,185.84 L26.93727,345.3194 L27.30627,181.7071 L27.67528,256.9084 L28.04428,297.8786 L28.41328,342.9833 L28.78229,345.4092 L29.15129,259.4241 L29.52029,258.4358 L29.8893,200.7545 L30.2583,255.6506 L30.62731,276.2253 L30.99631,345.4092 L31.36531,335.6149 L31.73432,345.4092 L32.10332,268.229 L32.47232,199.9459 L32.84133,345.4092 L33.21033,294.7339 L33.57933,181.2578 L33.94834,345.4092 L34.31734,186.7385 L34.68635,254.213 L35.05535,183.3243 L35.42435,320.0712 L35.79336,289.6142 L36.16236,334.986 L36.53136,267.8696 L36.90037,312.3442 L37.26937,287.3664 L37.63837,345.4092 L38.00738,345.4092 L38.37638,256.0099 L38.74539,345.3194 L39.11439,184.4923 L39.48339,345.4092 L39.8524,261.4007 L40.2214,255.7404 L40.5904,187.4572 L40.95941,345.4092 L41.32841,345.3194 L41.69741,277.3035 L42.06642,204.2585 L42.43542,345.4092 L42.80443,188.5354 L43.17343,286.7374 L43.54243,345.3194 L43.91144,270.4752 L44.28044,262.389 L44.64944,203.8991 L45.01845,184.672 L45.38745,345.4092 L45.75645,264.9946 L46.12546,217.2863 L46.49446,335.4352 L46.86347,345.4092 L47.23247,197.7896 L47.60147,182.4258 L47.97048,199.3169 L48.33948,344.5107 L48.70849,345.4092 L49.07749,190.7815 L49.4465,271.6432 L49.8155,355.2019 L50.1845,345.4092 L50.5535,344.2412 L50.92251,188.7151 L51.29151,345.4092 L51.66051,300.035 L52.02952,345.4092 L52.39853,345.4092 L52.76753,188.0862 L53.13653,260.5023 L53.50554,184.4923 L53.87454,345.4092 L54.24354,270.1158 L54.61255,345.4092 L54.98155,345.4092 L55.35056,255.1115 L55.71955,255.7404 L56.08856,261.1312 L56.45757,345.4092 L56.82657,345.3194 L57.19558,181.9766 L57.56458,345.4092 L57.93358,345.4092 L58.30258,189.2542 L58.67159,181.7969 L59.04059,183.9532 L59.4096,204.9772 L59.77859,183.1446 L60.1476,259.8733 L60.51661,257.2678 L60.88561,292.2182 L61.25462,191.68 L61.62362,207.8523 L61.99262,196.9809 L62.36162,199.856 L62.73063,183.0548 L63.09963,187.8166 L63.46864,345.4092 L63.83764,300.1248 L64.20664,197.8794 L64.57565,192.6683 L64.94465,337.8611 L65.31365,276.1355 L65.68266,343.8818 L66.05166,214.5909 L66.42066,255.1115 L66.78967,295.5426 L67.15867,203.7194 L67.52768,345.4092 L67.89668,286.9171 L68.26569,184.4025 L68.63469,321.8681 L69.00369,181.3477 L69.3727,188.176 L69.7417,208.3015 L70.1107,345.4092 L70.47971,190.7815 L70.84871,189.2542 L71.21771,264.0961 L71.58672,203.6295 L71.95572,372.273 L72.32472,181.0782 L72.69373,344.4209 L73.06273,183.504 L73.43174,229.2362 L73.80074,192.7582 L74.16975,325.8215 L74.53874,259.7835 L74.90775,254.5724 L75.27675,188.8948 L75.64576,344.6904 L76.01476,256.7287 L76.38377,181.5274 L76.75277,344.331 L77.12177,345.4092 L77.49078,182.8751 L77.85978,211.8056 L78.22878,344.331 L78.59779,255.381 L78.96679,191.5902 L79.33579,195.8129 L79.7048,345.4092 L80.07381,256.9084 L80.4428,345.0498 L80.81181,345.4092 L81.18081,345.4092 L81.54982,345.4092 L81.91882,193.6566 L82.28783,256.3693 L82.65682,188.7151 L83.02583,345.4092 L83.39483,216.298 L83.76384,344.5107 L84.13284,345.4092 L84.50185,344.6006 L84.87085,257.9866 L85.23985,359.5146 L85.60886,367.3314 L85.97786,345.4092 L86.34686,188.176 L86.71587,345.4092 L87.08487,345.4092 L87.45387,345.4092 L87.82288,186.2892 L88.19189,345.2295 L88.56088,227.7986 L88.92989,345.4092 L89.29889,345.4092 L89.6679,345.4092 L90.0369,333.0992 L90.40591,372.7223 L90.7749,182.6954 L91.14391,345.4092 L91.51291,276.7644 L91.88192,350.979 L92.25092,191.2308 L92.61993,195.5434 L92.98893,276.0457 L93.35793,208.3015 L93.72694,222.0483 L94.09594,241.0961 L94.46494,192.9379 L94.83395,345.4092 L95.20295,278.3817 L95.57195,185.9299 L95.94096,191.2308 L96.30997,230.494 L96.67896,345.4092 L97.04797,333.2789 L97.41698,206.7742 L97.78598,258.0764 L98.15498,345.4092 L98.52399,190.9612 L98.89299,362.4796 L99.26199,264.0961 L99.631,345.3194 L100,185.9299 L100.369,345.3194 L100.738,363.0187 L101.107,345.4092 L101.476,345.4092 L101.845,186.2892 L102.214,192.3089 L102.583,187.1877 L102.952,345.4092 L103.321,345.4092 L103.69,350.5298 L104.059,203.4499 L104.428,254.3029 L104.7971,181.5274 L105.1661,266.1626 L105.5351,250.5302 L105.9041,370.4761 L106.2731,184.9415 L106.6421,345.3194 L107.0111,344.5107 L107.3801,193.7465 L107.7491,302.5508 L108.1181,197.0708 L108.4871,345.4092 L108.8561,274.6979 L109.2251,267.1509 L109.5941,268.4087 L109.9631,305.6954 L110.3321,344.6904 L110.7011,344.0615 L111.0701,206.0554 L111.4391,259.2444 L111.8081,185.3009 L112.1771,354.5729 L112.5461,345.4092 L112.9151,201.7428 L113.2841,345.1397 L113.6531,345.4092 L114.0221,345.4092 L114.3912,215.2198 L114.7601,345.4092 L115.1292,345.4092 L115.4981,345.2295 L115.8672,345.2295 L116.2362,219.1731 L116.6052,345.1397 L116.9742,214.1416 L117.3432,345.4092 L117.7122,344.4209 L118.0812,182.6954 L118.4502,271.0143 L118.8192,256.2795 L119.1882,344.0615 L119.5572,255.4709 L119.9262,226.8103 L120.2952,345.4092 L120.6642,339.748 L121.0332,344.8701 L121.4022,345.4092 L121.7712,344.0615 L122.1402,229.9549 L122.5092,192.7582 L122.8782,184.0431 L123.2472,345.4092 L123.6162,345.4092 L123.9852,319.7118 L124.3542,345.4092 L124.7232,258.7053 L125.0923,268.3202 L125.4613,184.3126 L125.8303,305.965 L126.1993,265.7133 L126.5683,205.8757 L126.9373,345.4092 L127.3063,254.9318 L127.6753,185.1212 L128.0443,182.7852 L128.4133,345.4092 L128.7823,187.0979 L129.1513,345.4092 L129.5203,182.1563 L129.8893,297.5192 L130.2583,285.6609 L130.6273,345.4092 L130.9963,255.2912 L131.3653,345.4092 L131.7343,342.7138 L132.1033,345.4092 L132.4723,195.8129 L132.8413,206.9539 L133.2103,345.4092 L133.5793,189.1643 L133.9483,345.4092 L134.3173,345.4092 L134.6864,343.5224 L135.0554,344.4209 L135.4243,345.4092 L135.7934,327.7083 L136.1624,325.1027 L136.5314,257.2678 L136.9004,328.0677 L137.2694,337.3221 L137.6384,209.9188 L138.0074,254.7521 L138.3764,345.4092 L138.7454,345.4092 L139.1144,196.6216 L139.4834,307.4026 L139.8524,256.8186 L140.2214,344.1505 L140.5904,261.5804 L140.9594,196.4418 L141.3284,254.4826 L141.6974,342.7138 L142.0664,344.96 L142.4354,345.2295 L142.8044,244.6002 L143.1734,189.4339 L143.5424,257.5373 L143.9114,221.2397 L144.2804,345.4092 L144.6494,255.1115 L145.0184,345.4092 L145.3875,206.3249 L145.7565,345.4092 L146.1255,191.0511 L146.4945,195.184 L146.8635,216.8371 L147.2325,345.4092 L147.6015,345.4092 L147.9705,239.0296 L148.3395,345.4092 L148.7085,345.4092 L149.0775,345.4092 L149.4465,187.7268 L149.8155,250.7099 L150.1845,345.4092 L150.5535,344.6006 L150.9225,354.1237 L151.2915,193.0277 L151.6605,202.3717 L152.0295,258.7952 L152.3985,336.0642 L152.7675,325.2824 L153.1365,345.4092 L153.5055,189.6135 L153.8745,335.4352 L154.2435,209.6492 L154.6125,345.4092 L154.9816,345.4092 L155.3506,227.4392 L155.7196,197.2505 L156.0886,192.9379 L156.4576,345.4092 L156.8266,345.3194 L157.1956,183.504 L157.5646,345.3194 L157.9336,224.9234 L158.3026,320.161 L158.6716,296.9818 L159.0406,257.8069 L159.4096,288.8938 L159.7786,258.4358 L160.1476,342.3544 L160.5166,344.96 L160.8856,345.4092 L161.2546,188.5354 L161.6236,345.4092 L161.9926,344.1513 L162.3616,260.2327 L162.7306,231.4824 L163.0996,345.4092 L163.4686,183.7735 L163.8376,256.9084 L164.2066,188.9846 L164.5757,345.4092 L164.9446,279.1903 L165.3136,364.7258 L165.6827,345.4092 L166.0517,188.176 L166.4207,377.7538 L166.7897,256.9983 L167.1587,281.8873 L167.5277,193.9262 L167.8967,345.3194 L168.2657,184.672 L168.6347,284.5827 L169.0037,345.4092 L169.3727,345.4092 L169.7417,206.2351 L170.1107,344.0615 L170.4797,345.4092 L170.8487,188.2659 L171.2177,345.4092 L171.5867,194.7348 L171.9557,345.4092 L172.3247,292.6674 L172.6937,373.2614 L173.0627,341.5457 L173.4317,331.6616 L173.8007,214.1416 L174.1697,183.7735 L174.5387,259.6936 L174.9077,345.3194 L175.2768,343.7021 L175.6458,342.0848 L176.0148,358.9755 L176.3838,213.6924 L176.7528,345.4092 L177.1218,189.344 L177.4908,345.4092 L177.8598,362.1202 L178.2288,304.7071 L178.5978,345.4092 L178.9668,345.4092 L179.3358,345.4092 L179.7048,345.4092 L180.0738,188.5354 L180.4428,183.8634 L180.8118,345.4092 L181.1808,183.8634 L181.5498,345.4092 L181.9188,344.331 L182.2878,343.9716 L182.6568,345.4092 L183.0258,344.331 L183.3948,198.7779 L183.7638,345.4092 L184.1328,256.2795 L184.5018,344.5107 L184.8708,345.4092 L185.2399,224.9234 L185.6089,345.4092 L185.9779,289.343 L186.3469,345.4092 L186.7159,343.163 L187.0849,186.8283 L187.4539,335.3454 L187.8229,345.4092 L188.1919,343.6122 L188.5609,345.4092 L188.9299,345.4092 L189.2989,345.4092 L189.6679,345.4092 L190.0369,345.4092 L190.4059,345.4092 L190.7749,257.8967 L191.1439,342.5341 L191.5129,344.8701 L191.8819,345.4092 L192.2509,345.4092 L192.6199,293.9253 L192.9889,180 L193.3579,248.7332 L193.7269,345.4092 L194.0959,345.4092 L194.465,345.4092 L194.834,345.4092 L195.2029,261.9398 L195.572,213.0635 L195.941,345.4092 L196.31,344.5107 L196.679,345.4092 L197.048,345.4092 L197.417,345.4092 L197.786,185.3009 L198.155,345.4092 L198.524,211.8954 L198.893,345.4092 L199.262,209.2899 L199.631,191.5003 L200,345.4092 " stroke="blue" fill="none" />
<text x="10" y="400" font-family="Arial" font-size="12" fill="black">Episode Length</text>
<path d="M10,628.7621 L210,628.7621" stroke="gray" />
<text x="5" y="633.7621" font-family="Arial" font-size="10" fill="black">0</text>
<text x="5" y="420" font-family="Arial" font-size="10" fill="black">1501</text>
<text x="5" y="620" font-family="Arial" font-size="10" fill="black">63</text>
<path d="M0.3690037,609.1516 L0.7380074,600.5285 L1.107011,580.7789 L1.476015,520.5563 L1.845018,613.185 L2.214022,602.8929 L2.583026,609.7079 L2.952029,420 L3.321033,420 L3.690037,420 L4.059041,420 L4.428044,588.9847 L4.797048,596.9124 L5.166051,566.8707 L5.535055,420 L5.904059,420 L6.273063,420 L6.642066,607.7608 L7.01107,420 L7.380074,420 L7.749078,611.516 L8.118081,420 L8.487084,615.5494 L8.856089,420 L9.225092,606.2309 L9.594096,420 L9.963099,610.2643 L10.3321,603.1711 L10.70111,420 L11.07011,572.0167 L11.43911,549.3463 L11.80812,422.0862 L12.17712,618.331 L12.54613,420 L12.91513,420 L13.28413,609.0125 L13.65314,420 L14.02214,614.8539 L14.39114,615.6885 L14.76015,531.1266 L15.12915,588.7065 L15.49816,575.3547 L15.86716,420 L16.23616,611.2379 L16.60517,612.4896 L16.97417,616.2448 L17.34317,597.4687 L17.71218,490.7928 L18.08118,420 L18.45018,483.1432 L18.81919,608.8734 L19.18819,420 L19.5572,612.3505 L19.9262,420 L20.2952,535.0209 L20.66421,605.8137 L21.03321,617.0793 L21.40221,420 L21.77122,613.185 L22.14022,554.3533 L22.50922,420 L22.87823,541.4186 L23.24723,420 L23.61624,614.5758 L23.98524,420 L24.35424,420 L24.72325,420 L25.09225,538.9152 L25.46125,420 L25.83026,612.9068 L26.19926,420 L26.56827,611.2379 L26.93727,420 L27.30627,616.9402 L27.67528,612.0723 L28.04428,547.2601 L28.41328,420 L28.78229,420 L29.15129,608.3171 L29.52029,610.1252 L29.8893,586.064 L30.2583,613.4631 L30.62731,582.1697 L30.99631,420 L31.36531,487.3157 L31.73432,420 L32.10332,594.9652 L32.47232,588.7065 L32.84133,420 L33.21033,553.936 L33.57933,618.331 L33.94834,420 L34.31734,609.4297 L34.68635,616.662 L35.05535,615.1321 L35.42435,512.6287 L35.79336,450.3199 L36.16236,489.9583 L36.53136,595.1043 L36.90037,526.815 L37.26937,564.7844 L37.63837,420 L38.00738,420 L38.37638,613.324 L38.74539,420 L39.11439,612.4896 L39.48339,420 L39.8524,605.3964 L40.2214,614.0195 L40.5904,608.3171 L40.95941,420 L41.32841,420 L41.69741,579.6662 L42.06642,581.8915 L42.43542,420 L42.80443,606.3699 L43.17343,565.4799 L43.54243,420 L43.91144,590.2365 L44.28044,604.1447 L44.64944,583.1432 L45.01845,612.6287 L45.38745,420 L45.75645,599.8331 L46.12546,562.2809 L46.49446,490.2365 L46.86347,420 L47.23247,592.4617 L47.60147,615.9666 L47.97048,589.2629 L48.33948,420 L48.70849,420 L49.07749,603.032 L49.4465,588.9847 L49.8155,460.4729 L50.1845,420 L50.5535,420 L50.92251,605.5355 L51.29151,420 L51.66051,545.8693 L52.02952,420 L52.39853,420 L52.76753,607.4826 L53.13653,607.0654 L53.50554,612.9068 L53.87454,420 L54.24354,592.1836 L54.61255,420 L54.98155,420 L55.35056,614.4367 L55.71955,614.1586 L56.08856,605.6746 L56.45757,420 L56.82657,420 L57.19558,616.5229 L57.56458,420 L57.93358,420 L58.30258,605.6746 L58.67159,616.9402 L59.04059,613.7413 L59.4096,580.2225 L59.77859,614.2976 L60.1476,607.6217 L60.51661,611.0988 L60.88561,556.9958 L61.25462,601.5021 L61.62362,576.1891 L61.99262,593.4353 L62.36162,588.9847 L62.73063,615.4103 L63.09963,607.7608 L63.46864,420 L63.83764,543.5049 L64.20664,591.9054 L64.57565,600.5285 L64.94465,485.6467 L65.31365,582.3088 L65.68266,420 L66.05166,565.3408 L66.42066,615.4103 L66.78967,552.8234 L67.15867,582.8651 L67.52768,420 L67.89668,564.3672 L68.26569,613.324 L68.63469,510.9597 L69.00369,617.4965 L69.3727,607.2045 L69.7417,574.5201 L70.1107,420 L70.47971,603.1711 L70.84871,604.84 L71.21771,601.363 L71.58672,582.4478 L71.95572,426.9541 L72.32472,618.331 L72.69373,420 L73.06273,614.4367 L73.43174,543.5049 L73.80074,600.3894 L74.16975,505.8136 L74.53874,607.6217 L74.90775,616.1057 L75.27675,606.3699 L75.64576,420 L76.01476,612.6287 L76.38377,617.3574 L76.75277,420 L77.12177,420 L77.49078,615.5494 L77.85978,570.4868 L78.22878,420 L78.59779,614.0195 L78.96679,602.0584 L79.33579,595.2434 L79.7048,420 L80.07381,612.4896 L80.4428,420 L80.81181,420 L81.18081,420 L81.54982,420 L81.91882,598.8595 L82.28783,612.9068 L82.65682,605.8137 L83.02583,420 L83.39483,563.2545 L83.76384,420 L84.13284,420 L84.50185,420 L84.87085,610.2643 L85.23985,450.1808 L85.60886,441.1405 L85.97786,420 L86.34686,607.2045 L86.71587,420 L87.08487,420 L87.45387,420 L87.82288,610.2643 L88.19189,420 L88.56088,544.6176 L88.92989,420 L89.29889,420 L89.6679,420 L90.0369,493.1572 L90.40591,432.7956 L90.7749,615.9666 L91.14391,420 L91.51291,580.3616 L91.88192,466.7316 L92.25092,602.4756 L92.61993,595.9388 L92.98893,582.1697 L93.35793,574.7983 L93.72694,554.6314 L94.09594,524.8679 L94.46494,599.9722 L94.83395,420 L95.20295,578.4145 L95.57195,610.5424 L95.94096,602.4756 L96.30997,541.5577 L96.67896,420 L97.04797,494.4089 L97.41698,578.1363 L97.78598,609.847 L98.15498,420 L98.52399,602.4756 L98.89299,444.2003 L99.26199,601.2239 L99.631,420 L100,610.5424 L100.369,420 L100.738,448.0946 L101.107,420 L101.476,420 L101.845,609.847 L102.214,600.1113 L102.583,608.3171 L102.952,420 L103.321,420 L103.69,464.9235 L104.059,583.2823 L104.428,616.662 L104.7971,617.4965 L105.1661,598.1641 L105.5351,510.2643 L105.9041,432.5174 L106.2731,612.4896 L106.6421,420 L107.0111,420 L107.3801,598.8595 L107.7491,540.4451 L108.1181,593.4353 L108.4871,420 L108.8561,583.1432 L109.2251,596.6342 L109.5941,594.2698 L109.9631,537.1071 L110.3321,420 L110.7011,420 L111.0701,579.249 L111.4391,608.4562 L111.8081,612.0723 L112.1771,460.8901 L112.5461,420 L112.9151,586.064 L113.2841,420 L113.6531,420 L114.0221,420 L114.3912,563.6718 L114.7601,420 L115.1292,420 L115.4981,420 L115.8672,420 L116.2362,558.943 L116.6052,420 L116.9742,565.758 L117.3432,420 L117.7122,420 L118.0812,615.2712 L118.4502,590.5146 L118.8192,612.7678 L119.1882,420 L119.5572,613.6022 L119.9262,545.3129 L120.2952,420 L120.6642,483.6996 L121.0332,420 L121.4022,420 L121.7712,420 L122.1402,541.2795 L122.5092,599.9722 L122.8782,613.8804 L123.2472,420 L123.6162,420 L123.9852,513.6022 L124.3542,420 L124.7232,609.2907 L125.0923,477.9972 L125.4613,613.185 L125.8303,534.7427 L126.1993,598.7205 L126.5683,579.6662 L126.9373,420 L127.3063,615.6885 L127.6753,612.2114 L128.0443,615.8275 L128.4133,420 L128.7823,609.0125 L129.1513,420 L129.5203,616.2448 L129.8893,548.9291 L130.2583,454.4923 L130.6273,420 L130.9963,613.8804 L131.3653,420 L131.7343,420 L132.1033,420 L132.4723,595.3824 L132.8413,576.7455 L133.2103,420 L133.5793,605.2573 L133.9483,420 L134.3173,420 L134.6864,420 L135.0554,420 L135.4243,420 L135.7934,502.1975 L136.1624,504.0056 L136.5314,611.7941 L136.9004,501.363 L137.2694,488.1502 L137.6384,573.5466 L138.0074,615.8275 L138.3764,420 L138.7454,420 L139.1144,593.9916 L139.4834,534.4645 L139.8524,612.4896 L140.2214,477.0237 L140.5904,605.1182 L140.9594,593.8526 L141.3284,615.8275 L141.6974,420 L142.0664,420 L142.4354,420 L142.8044,518.4701 L143.1734,605.2573 L143.5424,610.8206 L143.9114,555.3268 L144.2804,420 L144.6494,614.993 L145.0184,420 L145.3875,578.1363 L145.7565,420 L146.1255,602.8929 L146.4945,596.4951 L146.8635,562.1418 L147.2325,420 L147.6015,420 L147.9705,527.7886 L148.3395,420 L148.7085,420 L149.0775,420 L149.4465,606.7872 L149.8155,510.4034 L150.1845,420 L150.5535,420 L150.9225,460.612 L151.2915,599.8331 L151.6605,584.5341 L152.0295,608.4562 L152.3985,488.5674 L152.7675,505.9527 L153.1365,420 L153.5055,604.701 L153.8745,490.9319 L154.2435,573.2684 L154.6125,420 L154.9816,420 L155.3506,543.3658 L155.7196,593.0181 L156.0886,600.1113 L156.4576,420 L156.8266,420 L157.1956,613.7413 L157.5646,420 L157.9336,549.7635 L158.3026,514.1586 L158.6716,435.299 L159.0406,610.9597 L159.4096,562.9764 L159.7786,610.2643 L160.1476,420 L160.5166,420 L160.8856,420 L161.2546,607.0654 L161.6236,420 L161.9926,420 L162.3616,607.3435 L162.7306,538.4979 L163.0996,420 L163.4686,614.0195 L163.8376,612.6287 L164.2066,606.2309 L164.5757,420 L164.9446,577.9972 L165.3136,442.5313 L165.6827,420 L166.0517,607.4826 L166.4207,425.007 L166.7897,611.2379 L167.1587,460.3338 L167.5277,597.0515 L167.8967,420 L168.2657,612.6287 L168.6347,457.274 L169.0037,420 L169.3727,420 L169.7417,578.6926 L170.1107,420 L170.4797,420 L170.8487,607.3435 L171.2177,420 L171.5867,597.3297 L171.9557,420 L172.3247,555.7441 L172.6937,431.822 L173.0627,420 L173.4317,496.217 L173.8007,566.8707 L174.1697,613.8804 L174.5387,607.7608 L174.9077,420 L175.2768,420 L175.6458,420 L176.0148,452.9624 L176.3838,566.8707 L176.7528,420 L177.1218,605.3964 L177.4908,420 L177.8598,448.0946 L178.2288,538.637 L178.5978,420 L178.9668,420 L179.3358,420 L179.7048,420 L180.0738,606.7872 L180.4428,613.324 L180.8118,420 L181.1808,613.8804 L181.5498,420 L181.9188,420 L182.2878,420 L182.6568,420 L183.0258,420 L183.3948,590.5146 L183.7638,420 L184.1328,613.324 L184.5018,420 L184.8708,420 L185.2399,550.1808 L185.6089,420 L185.9779,562.1418 L186.3469,420 L186.7159,420 L187.0849,609.2907 L187.4539,491.21 L187.8229,420 L188.1919,420 L188.5609,420 L188.9299,420 L189.2989,420 L189.6679,420 L190.0369,420 L190.4059,420 L190.7749,611.0988 L191.1439,420 L191.5129,420 L191.8819,420 L192.2509,420 L192.6199,555.3268 L192.9889,620 L193.3579,509.847 L193.7269,420 L194.0959,420 L194.465,420 L194.834,420 L195.2029,604.84 L195.572,566.7316 L195.941,420 L196.31,420 L196.679,420 L197.048,420 L197.417,420 L197.786,611.7941 L198.155,420 L198.524,570.6259 L198.893,420 L199.262,573.4075 L199.631,602.4756 L200,420 " stroke="blue" fill="none" />
<text x="10" y="640" font-family="Arial" font-size="12" fill="black">Policy Loss</text>
<path d="M10,903.7642 L210,903.7642" stroke="gray" />
<text x="5" y="908.7642" font-family="Arial" font-size="10" fill="black">0</text>
<text x="5" y="660" font-family="Arial" font-size="10" fill="black">0.006089295</text>
<text x="5" y="860" font-family="Arial" font-size="10" fill="black">0.001093241</text>
<path d="M0.2272727,781.2816 L0.4545454,799.8718 L0.6818182,769.008 L0.9090909,785.9879 L1.136364,764.1805 L1.363636,780.1234 L1.590909,787.413 L1.818182,776.5039 L2.045455,772.966 L2.272727,793.9725 L2.5,806.7184 L2.727273,826.9892 L2.954545,754.9076 L3.181818,815.1552 L3.409091,777.0596 L3.636364,773.6821 L3.863636,731.6125 L4.090909,775.0981 L4.318182,806.8793 L4.545455,782.7603 L4.772727,778.9867 L5,850.5511 L5.227273,749.9211 L5.454545,805.8732 L5.681818,783.3909 L5.909091,764.3373 L6.136364,764.2724 L6.363636,778.0428 L6.590909,769.2776 L6.818182,793.3536 L7.045455,801.7801 L7.272727,769.6492 L7.5,778.6959 L7.727273,806.0159 L7.954545,812.1181 L8.181818,818.8105 L8.409091,806.3488 L8.636364,805.3938 L8.863636,761.5688 L9.090909,708.7838 L9.318182,778.4503 L9.545454,776.2919 L9.772728,735.7951 L10,780.3344 L10.22727,756.8455 L10.45455,762.7881 L10.68182,816.8862 L10.90909,771.2654 L11.13636,759.5292 L11.36364,764.1823 L11.59091,801.6332 L11.81818,725.7828 L12.04545,824.8746 L12.27273,805.5104 L12.5,804.8812 L12.72727,768.9299 L12.95455,760.9882 L13.18182,785.0428 L13.40909,788.2299 L13.63636,755.3801 L13.86364,795.1891 L14.09091,660 L14.31818,808.1796 L14.54545,807.0275 L14.77273,782.8181 L15,799.7076 L15.22727,777.3715 L15.45455,760.7832 L15.68182,792.2017 L15.90909,786.7219 L16.13636,772.1771 L16.36364,765.0543 L16.59091,749.7906 L16.81818,801.142 L17.04545,738.3146 L17.27273,807.186 L17.5,773.4584 L17.72727,753.0469 L17.95454,771.7205 L18.18182,780.1512 L18.40909,768.4653 L18.63636,781.6913 L18.86364,771.6404 L19.09091,788.5382 L19.31818,799.361 L19.54546,810.144 L19.77273,789.3147 L20,807.9305 L20.22727,784.4529 L20.45455,782.1418 L20.68182,753.144 L20.90909,789.0588 L21.13636,777.1824 L21.36364,744.188 L21.59091,789.8121 L21.81818,790.094 L22.04545,753.1832 L22.27273,750.649 L22.5,747.1748 L22.72727,774.5115 L22.95455,822.4127 L23.18182,782.9968 L23.40909,749.9685 L23.63636,753.119 L23.86364,827.3369 L24.09091,760.1428 L24.31818,785.7257 L24.54546,752.1036 L24.77273,764.0859 L25,798.1183 L25.22727,795.5547 L25.45454,763.7658 L25.68182,778.0281 L25.90909,771.517 L26.13636,774.1942 L26.36364,802.7519 L26.59091,775.9512 L26.81818,791.3622 L27.04546,761.3173 L27.27273,769.4719 L27.5,789.8452 L27.72727,806.5838 L27.95455,809.9589 L28.18182,794.2265 L28.40909,799.5837 L28.63636,719.1047 L28.86364,780.0505 L29.09091,794.7194 L29.31818,787.8749 L29.54545,753.4872 L29.77273,788.0616 L30,755.1965 L30.22727,768.1913 L30.45455,770.6804 L30.68182,797.1898 L30.90909,784.188 L31.13636,770.3577 L31.36364,752.1388 L31.59091,778.707 L31.81818,783.2682 L32.04545,779.7168 L32.27273,769.7184 L32.5,763.91 L32.72727,781.8409 L32.95455,822.1533 L33.18182,811.5153 L33.40909,778.0055 L33.63636,828.298 L33.86364,798.7522 L34.09091,743.0621 L34.31818,782.7662 L34.54546,799.7553 L34.77273,755.2698 L35,769.1296 L35.22727,787.3633 L35.45454,784.347 L35.68182,788.5052 L35.90909,825.4623 L36.13636,850.0952 L36.36364,798.4268 L36.59091,789.32 L36.81818,772.1578 L37.04546,761.675 L37.27273,787.4808 L37.5,787.0964 L37.72727,770.8011 L37.95454,783.7175 L38.18182,785.4951 L38.40909,800.9011 L38.63636,780.0759 L38.86364,795.713 L39.09091,727.7609 L39.31818,788.7345 L39.54546,760.9424 L39.77273,769.6772 L40,782.0434 L40.22727,773.5532 L40.45454,783.5457 L40.68182,735.5333 L40.90909,762.6603 L41.13636,783.2983 L41.36364,795.8737 L41.59091,830.3826 L41.81818,751.6472 L42.04545,717.0944 L42.27273,808.599 L42.5,796.9268 L42.72727,750.6021 L42.95455,748.3006 L43.18182,792.1843 L43.40909,789.1105 L43.63636,830.084 L43.86364,762.1174 L44.09091,776.0832 L44.31818,782.4012 L44.54545,786.4452 L44.77273,800.6578 L45,776.2191 L45.22727,788.3251 L45.45455,810.6145 L45.68182,766.2614 L45.90909,798.5549 L46.13636,782.6712 L46.36364,791.4532 L46.59091,757.22 L46.81818,783.5782 L47.04546,762.9242 L47.27273,790.328 L47.5,752.7028 L47.72727,798.5368 L47.95454,822.0007 L48.18182,790.647 L48.40909,760.8026 L48.63636,743.8514 L48.86364,789.0657 L49.09091,813.1937 L49.31818,763.5703 L49.54546,794.2972 L49.77273,813.1599 L50,802.7878 L50.22727,761.11 L50.45454,788.3149 L50.68182,744.2855 L50.90909,802.2039 L51.13636,802.7671 L51.36364,806.2715 L51.59091,797.9698 L51.81818,805.0457 L52.04545,793.2791 L52.27272,780.5254 L52.5,799.0613 L52.72727,766.7377 L52.95454,803.6589 L53.18182,783.1674 L53.40909,782.7717 L53.63637,779.1868 L53.86364,728.0412 L54.09091,819.6323 L54.31818,819.6432 L54.54546,772.304 L54.77273,736.5624 L55,774.6017 L55.22727,789.8287 L55.45455,788.9061 L55.68182,793.9927 L55.90909,802.2159 L56.13636,769.21 L56.36364,802.9115 L56.59091,805.853 L56.81818,783.7516 L57.04545,807.1533 L57.27273,805.5439 L57.5,785.432 L57.72727,794.277 L57.95454,740.5621 L58.18182,747.9644 L58.40909,783.5119 L58.63636,764.6924 L58.86363,769.0831 L59.09091,801.8965 L59.31818,829.2034 L59.54546,780.893 L59.77273,745.6444 L60,775.8699 L60.22728,768.1646 L60.45455,769.8661 L60.68182,783.1721 L60.90909,778.788 L61.13636,777.4848 L61.36364,833.1002 L61.59091,813.1102 L61.81818,760.1288 L62.04546,758.8676 L62.27273,759.0324 L62.5,790.2954 L62.72727,780.9264 L62.95454,787.2409 L63.18182,800.9561 L63.40909,802.1086 L63.63636,767.6752 L63.86364,794.1047 L64.0909,793.9073 L64.31818,748.5391 L64.54546,785.5905 L64.77273,774.5328 L65,764.4573 L65.22727,770.8358 L65.45454,786.391 L65.68182,796.3168 L65.9091,798.6353 L66.13637,745.7521 L66.36364,760.5181 L66.59091,805.0345 L66.81818,789.6336 L67.04546,794.6354 L67.27273,818.111 L67.5,734.2926 L67.72727,788.848 L67.95454,795.652 L68.18182,809.0494 L68.40909,796.7837 L68.63636,785.9776 L68.86364,833.936 L69.09091,836.6718 L69.31818,765.3106 L69.54546,751.5094 L69.77273,755.5507 L70,808.4972 L70.22727,796.0523 L70.45454,756.5239 L70.68182,798.1439 L70.90909,798.6436 L71.13636,807.4105 L71.36363,781.7901 L71.5909,759.3152 L71.81818,760.6459 L72.04546,781.8791 L72.27273,784.127 L72.5,784.1972 L72.72727,823.7761 L72.95454,737.9177 L73.18182,817.5976 L73.4091,782.246 L73.63637,753.3119 L73.86364,797.8937 L74.09091,804.2059 L74.31818,786.1833 L74.54546,802.6447 L74.77273,732.631 L75,789.4885 L75.22727,814.1523 L75.45454,781.3907 L75.68182,764.6951 L75.90909,834.4455 L76.13636,767.821 L76.36363,795.6206 L76.5909,770.0545 L76.81818,773.3792 L77.04546,748.1308 L77.27273,757.2935 L77.5,739.5023 L77.72727,789.3368 L77.95454,759.6937 L78.18182,748.1353 L78.4091,799.1245 L78.63637,738.3947 L78.86364,787.6773 L79.09091,821.0191 L79.31818,775.9356 L79.54546,806.6583 L79.77273,797.0898 L80,788.8204 L80.22727,799.6329 L80.45454,760.5359 L80.68182,745.2836 L80.90909,779.3486 L81.13636,811.7175 L81.36364,797.7487 L81.59091,803.8668 L81.81818,753.7582 L82.04546,765.9733 L82.27273,778.5773 L82.5,780.4745 L82.72727,783.3666 L82.95454,799.0146 L83.18182,795.5717 L83.40909,813.1891 L83.63636,767.4063 L83.86363,780.3622 L84.0909,782.9988 L84.31818,811.4163 L84.54546,793.2991 L84.77273,793.2675 L85,813.1414 L85.22727,810.0052 L85.45454,759.9824 L85.68182,767.7673 L85.9091,773.4438 L86.13637,778.2546 L86.36364,806.4866 L86.59091,770.3682 L86.81818,741.1194 L87.04546,781.4204 L87.27273,775.6289 L87.5,781.5703 L87.72727,806.86 L87.95454,745.3467 L88.18182,737.9127 L88.40909,817.2072 L88.63636,752.9941 L88.86363,740.0935 L89.0909,774.3132 L89.31818,771.8795 L89.54546,780.8781 L89.77273,804.3865 L90,768.4467 L90.22727,793.5172 L90.45454,754.5813 L90.68182,772.6845 L90.9091,803.506 L91.13637,815.167 L91.36364,808.7755 L91.59091,776.1306 L91.81818,793.0495 L92.04546,787.3361 L92.27273,783.0476 L92.5,813.2485 L92.72727,825.3542 L92.95454,762.4305 L93.18182,806.1691 L93.40909,726.1198 L93.63636,788.5646 L93.86364,751.6772 L94.09091,754.3007 L94.31818,773.8035 L94.54546,756.7469 L94.77273,761.2047 L95,793.9587 L95.22727,770.8572 L95.45454,793.5168 L95.68182,809.119 L95.90909,815.9545 L96.13636,779.3037 L96.36363,779.1296 L96.5909,754.269 L96.81818,754.0724 L97.04546,794.5189 L97.27273,785.6812 L97.5,813.6461 L97.72727,770.4354 L97.95454,749.6874 L98.18182,839.9528 L98.4091,762.502 L98.63637,763.9177 L98.86364,817.8436 L99.09091,744.5462 L99.31818,771.4102 L99.54546,744.7005 L99.77273,727.4522 L100,771.3254 L100.2273,770.4556 L100.4545,764.9371 L100.6818,797.871 L100.9091,758.4692 L101.1364,750.9814 L101.3636,808.3436 L101.5909,798.9332 L101.8182,816.8228 L102.0455,822.1601 L102.2727,799.8324 L102.5,774.6514 L102.7273,761.635 L102.9545,769.7689 L103.1818,787.0667 L103.4091,793.9309 L103.6364,775.4722 L103.8636,758.274 L104.0909,805.0027 L104.3182,781.1705 L104.5454,826.9332 L104.7727,788.3496 L105,786.1688 L105.2273,819.4217 L105.4545,768.6151 L105.6818,797.2688 L105.9091,803.0997 L106.1364,770.8232 L106.3636,804.6834 L106.5909,781.6518 L106.8182,780.7811 L107.0455,774.7318 L107.2727,783.4721 L107.5,833.1783 L107.7273,754.3652 L107.9546,764.6893 L108.1818,790.044 L108.4091,805.9532 L108.6364,781.2427 L108.8636,747.1452 L109.0909,754.3997 L109.3182,734.5408 L109.5455,810.0656 L109.7727,829.8989 L110,808.0762 L110.2273,772.4543 L110.4545,775.2041 L110.6818,771.6973 L110.9091,757.668 L111.1364,785.9894 L111.3636,818.1542 L111.5909,813.8246 L111.8182,809.6718 L112.0455,790.7924 L112.2727,765.1822 L112.5,813.9261 L112.7273,802.1511 L112.9545,781.3564 L113.1818,734.649 L113.4091,771.4666 L113.6364,813.6563 L113.8636,766.0455 L114.0909,777.7993 L114.3182,783.6005 L114.5455,767.7721 L114.7727,795.0607 L115,760.696 L115.2273,827.3806 L115.4545,748.3472 L115.6818,789.4798 L115.9091,776.8994 L116.1364,789.3442 L116.3636,761.2427 L116.5909,770.9725 L116.8182,797.5535 L117.0454,785.6138 L117.2727,791.4704 L117.5,775.0599 L117.7273,761.099 L117.9545,787.888 L118.1818,792.4832 L118.4091,796.9537 L118.6364,793.0956 L118.8636,794.4053 L119.0909,806.9775 L119.3182,783.2882 L119.5455,788.5067 L119.7727,777.2928 L120,760.2998 L120.2273,795.0013 L120.4546,726.5438 L120.6818,760.8608 L120.9091,802.9011 L121.1364,799.269 L121.3636,803.7379 L121.5909,756.1034 L121.8182,767.6849 L122.0455,776.327 L122.2727,781.908 L122.5,769.9689 L122.7273,779.0038 L122.9545,771.7204 L123.1818,797.6481 L123.4091,779.4092 L123.6364,827.6915 L123.8636,735.3251 L124.0909,764.6844 L124.3182,717.067 L124.5455,774.0623 L124.7727,797.0597 L125,774.1491 L125.2273,786.2476 L125.4545,784.2302 L125.6818,830.1787 L125.9091,802.4705 L126.1364,780.1613 L126.3636,781.0984 L126.5909,803.9584 L126.8182,820.9409 L127.0455,783.1405 L127.2727,762.9659 L127.5,774.6853 L127.7273,787.6972 L127.9545,785.8445 L128.1818,778.9924 L128.4091,818.8691 L128.6364,755.4791 L128.8636,791.7543 L129.0909,776.8244 L129.3182,763.0836 L129.5455,773.3903 L129.7727,774.5237 L130,783.9379 L130.2273,778.4684 L130.4545,788.9567 L130.6818,806.2763 L130.9091,811.7977 L131.1364,760.937 L131.3636,773.9481 L131.5909,787.6548 L131.8182,804.3592 L132.0455,760.0595 L132.2727,799.1995 L132.5,757.5969 L132.7273,806.5693 L132.9545,776.1633 L133.1818,799.8586 L133.4091,809.5349 L133.6364,807.9193 L133.8636,775.591 L134.0909,795.8963 L134.3182,790.3774 L134.5455,800.5837 L134.7727,799.7115 L135,772.4951 L135.2273,789.1526 L135.4545,797.5812 L135.6818,801.3583 L135.9091,795.4777 L136.1364,778.6791 L136.3636,814.9208 L136.5909,801.0228 L136.8182,763.2626 L137.0455,761.2065 L137.2727,786.131 L137.5,771.7479 L137.7273,821.7143 L137.9545,772.1654 L138.1818,816.853 L138.4091,767.9883 L138.6364,760.1941 L138.8636,805.0648 L139.0909,800.281 L139.3182,787.0374 L139.5455,798.5557 L139.7727,776.3222 L140,813.1548 L140.2273,804.2255 L140.4545,835.4882 L140.6818,805.4326 L140.9091,813.6601 L141.1364,768.668 L141.3636,765.5046 L141.5909,783.8595 L141.8182,806.8561 L142.0455,791.4353 L142.2727,762.8779 L142.5,775.3733 L142.7273,775.3613 L142.9545,807.4553 L143.1818,767.7584 L143.4091,808.3172 L143.6364,808.3722 L143.8636,761.0076 L144.0909,780.3694 L144.3182,754.8937 L144.5455,799.0818 L144.7727,765.1663 L145,841.7615 L145.2273,750.9991 L145.4545,802.6218 L145.6818,749.5655 L145.9091,773.3915 L146.1364,783.0229 L146.3636,776.5676 L146.5909,786.1726 L146.8182,753.8684 L147.0455,790.9655 L147.2727,796.3112 L147.5,761.3043 L147.7273,801.4353 L147.9545,779.5809 L148.1818,739.4657 L148.4091,822.3284 L148.6364,813.0504 L148.8636,785.7117 L149.0909,774.5541 L149.3182,793.4362 L149.5455,819.7509 L149.7727,785.8811 L150,860 L150.2273,820.8604 L150.4545,784.9908 L150.6818,799.8856 L150.9091,829.0878 L151.1364,770.7117 L151.3636,775.2813 L151.5909,782.8463 L151.8182,751.3004 L152.0455,794.7373 L152.2727,744.8824 L152.5,799.8504 L152.7273,808.1202 L152.9545,757.0665 L153.1818,807.4696 L153.4091,781.0751 L153.6364,813.1328 L153.8636,773.135 L154.0909,789.851 L154.3182,813.9307 L154.5455,777.4479 L154.7727,757.5524 L155,772.5413 L155.2273,790.4413 L155.4545,788.643 L155.6818,788.5882 L155.9091,785.0061 L156.1364,802.1153 L156.3636,808.9006 L156.5909,802.5261 L156.8182,745.0452 L157.0455,800.7592 L157.2727,816.3937 L157.5,788.9312 L157.7273,808.5593 L157.9545,747.9346 L158.1818,779.1018 L158.4091,807.4415 L158.6364,783.7909 L158.8636,780.9724 L159.0909,788.3229 L159.3182,749.6295 L159.5455,787.704 L159.7727,744.5438 L160,810.1801 L160.2273,722.2185 L160.4545,783.8086 L160.6818,804.4075 L160.9091,770.543 L161.1364,796.8621 L161.3636,782.3965 L161.5909,786.8282 L161.8182,778.6859 L162.0455,781.3384 L162.2727,776.9886 L162.5,757.8793 L162.7273,813.6234 L162.9545,804.9177 L163.1818,806.4573 L163.4091,813.3977 L163.6364,792.0603 L163.8636,779.4396 L164.0909,780.9648 L164.3182,773.2452 L164.5455,815.9369 L164.7727,796.6635 L165,766.6956 L165.2273,746.5292 L165.4545,817.3792 L165.6818,726.072 L165.9091,804.0569 L166.1364,803.4247 L166.3636,781.3627 L166.5909,767.4583 L166.8182,761.6327 L167.0455,761.3268 L167.2727,756.7 L167.5,819.5403 L167.7273,793.6106 L167.9545,790.2871 L168.1818,801.8089 L168.4091,779.3073 L168.6364,790.8032 L168.8636,740.9149 L169.0909,768.6372 L169.3182,761.0289 L169.5455,765.2997 L169.7727,784.2681 L170,763.5558 L170.2273,817.2924 L170.4545,763.5994 L170.6818,796.2806 L170.9091,767.3896 L171.1364,771.4726 L171.3636,804.4038 L171.5909,750.3877 L171.8182,745.7037 L172.0455,793.4866 L172.2727,767.8438 L172.5,819.1767 L172.7273,781.6807 L172.9545,774.3303 L173.1818,793.0866 L173.4091,804.5849 L173.6364,791.3801 L173.8636,831.2218 L174.0909,730.2872 L174.3182,737.7521 L174.5455,773.4422 L174.7727,726.9318 L175,769.2709 L175.2273,745.8007 L175.4545,783.142 L175.6818,796.7089 L175.9091,794.3749 L176.1364,807.0207 L176.3636,778.4166 L176.5909,731.4914 L176.8182,791.5707 L177.0455,784.6624 L177.2727,824.0169 L177.5,752.2397 L177.7273,800.2216 L177.9545,791.8268 L178.1818,822.3002 L178.4091,776.3139 L178.6364,808.8934 L178.8636,831.628 L179.0909,808.5356 L179.3182,765.6948 L179.5455,726.8674 L179.7727,796.9631 L180,775.5881 L180.2273,775.782 L180.4545,791.7321 L180.6818,747.2913 L180.9091,785.059 L181.1364,756.8672 L181.3636,792.6517 L181.5909,759.705 L181.8182,714.1444 L182.0455,785.3812 L182.2727,763.0438 L182.5,793.5397 L182.7273,764.559 L182.9545,757.9495 L183.1818,813.506 L183.4091,773.0424 L183.6364,753.4355 L183.8636,766.3843 L184.0909,814.2122 L184.3182,795.174 L184.5455,774.57 L184.7727,789.7776 L185,793.6478 L185.2273,804.1018 L185.4545,791.3478 L185.6818,746.7316 L185.9091,789.2585 L186.1364,759.017 L186.3636,779.6479 L186.5909,772.4442 L186.8182,787.8844 L187.0455,774.4788 L187.2727,762.5197 L187.5,745.9098 L187.7273,739.6814 L187.9545,792.074 L188.1818,776.1177 L188.4091,792.4949 L188.6364,783.5773 L188.8636,801.3998 L189.0909,800.7169 L189.3182,774.2593 L189.5455,775.3404 L189.7727,777.1672 L190,807.5691 L190.2273,759.2979 L190.4545,775.7382 L190.6818,777.4536 L190.9091,753.7139 L191.1364,719.5492 L191.3636,809.5627 L191.5909,741.8605 L191.8182,805.9834 L192.0455,782.0767 L192.2727,745.7549 L192.5,789.2782 L192.7273,762.3343 L192.9545,795.1362 L193.1818,800.7164 L193.4091,838.1559 L193.6364,786.1455 L193.8636,785.3965 L194.0909,808.3832 L194.3182,774.205 L194.5455,820.2988 L194.7727,811.6935 L195,763.0735 L195.2273,794.4991 L195.4545,792.2671 L195.6818,799.455 L195.9091,790.9792 L196.1364,743.173 L196.3636,812.9483 L196.5909,809.7438 L196.8182,804.5667 L197.0455,788.9222 L197.2727,787.5947 L197.5,770.0305 L197.7273,768.7678 L197.9545,776.121 L198.1818,790.8268 L198.4091,781.8347 L198.6364,804.3644 L198.8636,752.8599 L199.0909,789.9275 L199.3182,779.2361 L199.5455,782.2199 L199.7727,755.2815 L200,808.1536 " stroke="blue" fill="none" />
<text x="10" y="880" font-family="Arial" font-size="12" fill="black">Value Loss</text>
<path d="M10,1100.171 L210,1100.171" stroke="gray" />
<text x="5" y="1105.171" font-family="Arial" font-size="10" fill="black">0</text>
<text x="5" y="900" font-family="Arial" font-size="10" fill="black">0.005590529</text>
<text x="5" y="1100" font-family="Arial" font-size="10" fill="black">4.780294E-06</text>
<path d="M0.2272727,1064.245 L0.4545454,1081.175 L0.6818182,1086.633 L0.9090909,1089.922 L1.136364,1091.421 L1.363636,1092.361 L1.590909,1093.016 L1.818182,1093.678 L2.045455,1095.925 L2.272727,1097.679 L2.5,1098.506 L2.727273,1098.845 L2.954545,1099.044 L3.181818,1099.168 L3.409091,1099.247 L3.636364,1099.308 L3.863636,1045.551 L4.090909,1067.392 L4.318182,1075.36 L4.545455,1079.093 L4.772727,1081.474 L5,1083.012 L5.227273,1084.108 L5.454545,1085.101 L5.681818,1080.143 L5.909091,1095.922 L6.136364,1098.373 L6.363636,1098.906 L6.590909,1099.076 L6.818182,1099.173 L7.045455,1099.247 L7.272727,1099.305 L7.5,1089.8 L7.727273,1092.537 L7.954545,1094.128 L8.181818,1094.94 L8.409091,1095.392 L8.636364,1095.681 L8.863636,1095.911 L9.090909,1096.041 L9.318182,1028.672 L9.545454,1045.654 L9.772728,1054.755 L10,1059.84 L10.22727,1062.374 L10.45455,1066.077 L10.68182,1068.444 L10.90909,1070.761 L11.13636,1023.689 L11.36364,1064.31 L11.59091,1074.675 L11.81818,1078.845 L12.04545,1081.523 L12.27273,1083.222 L12.5,1084.151 L12.72727,1085.29 L12.95455,1011.824 L13.18182,1041.428 L13.40909,1052.042 L13.63636,1057.37 L13.86364,1060.741 L14.09091,1062.794 L14.31818,1064.884 L14.54545,1066.461 L14.77273,1072.312 L15,1083.454 L15.22727,1087.636 L15.45455,1089.38 L15.68182,1090.428 L15.90909,1091.064 L16.13636,1091.538 L16.36364,1091.919 L16.59091,1053.559 L16.81818,1073.213 L17.04545,1078.071 L17.27273,1080.264 L17.5,1081.65 L17.72727,1082.636 L17.95454,1083.426 L18.18182,1084.117 L18.40909,1076.837 L18.63636,1083.061 L18.86364,1086.084 L19.09091,1087.342 L19.31818,1088.077 L19.54546,1088.585 L19.77273,1088.901 L20,1089.182 L20.22727,1024.21 L20.45455,1049.272 L20.68182,1057.968 L20.90909,1063.569 L21.13636,1066.969 L21.36364,1068.943 L21.59091,1070.224 L21.81818,1071.319 L22.04545,1051.607 L22.27273,1068.084 L22.5,1074.679 L22.72727,1077.86 L22.95455,1079.627 L23.18182,1081.051 L23.40909,1082.096 L23.63636,1083.051 L23.86364,1038.411 L24.09091,1063.363 L24.31818,1069.834 L24.54546,1072.441 L24.77273,1073.869 L25,1075.071 L25.22727,1076.067 L25.45454,1076.813 L25.68182,1069.765 L25.90909,1078.997 L26.13636,1082.58 L26.36364,1084.507 L26.59091,1085.748 L26.81818,1086.668 L27.04546,1087.19 L27.27273,1087.88 L27.5,974.1014 L27.72727,1031.626 L27.95455,1051.229 L28.18182,1059.419 L28.40909,1065.235 L28.63636,1068.566 L28.86364,1071.319 L29.09091,1073.129 L29.31818,1022.242 L29.54545,1060.218 L29.77273,1070.74 L30,1073.904 L30.22727,1075.338 L30.45455,1076.615 L30.68182,1077.721 L30.90909,1078.475 L31.13636,1049.318 L31.36364,1077.783 L31.59091,1082.24 L31.81818,1084.596 L32.04545,1086.331 L32.27273,1087.462 L32.5,1088.342 L32.72727,1089.029 L32.95455,1057.681 L33.18182,1079.784 L33.40909,1085.453 L33.63636,1087.099 L33.86364,1088.142 L34.09091,1088.943 L34.31818,1089.66 L34.54546,1090.236 L34.77273,994.2052 L35,1039.153 L35.22727,1050.4 L35.45454,1056.704 L35.68182,1060.869 L35.90909,1064.359 L36.13636,1066.916 L36.36364,1068.585 L36.59091,1075.582 L36.81818,1086.773 L37.04546,1091.758 L37.27273,1093.762 L37.5,1094.871 L37.72727,1095.494 L37.95454,1095.934 L38.18182,1096.247 L38.40909,983.6847 L38.63636,1035.099 L38.86364,1047.946 L39.09091,1056.247 L39.31818,1060.092 L39.54546,1063.423 L39.77273,1066.169 L40,1067.33 L40.22727,1067.045 L40.45454,1078.499 L40.68182,1082.434 L40.90909,1084.62 L41.13636,1086.274 L41.36364,1087.385 L41.59091,1088.278 L41.81818,1089.015 L42.04545,1054.39 L42.27273,1069.762 L42.5,1075.354 L42.72727,1078.5 L42.95455,1080.838 L43.18182,1082.348 L43.40909,1083.789 L43.63636,1084.735 L43.86364,1006.551 L44.09091,1032.707 L44.31818,1046.788 L44.54545,1053.771 L44.77273,1058.652 L45,1061.828 L45.22727,1064.415 L45.45455,1066.301 L45.68182,1059.841 L45.90909,1071.908 L46.13636,1076.625 L46.36364,1079.003 L46.59091,1080.679 L46.81818,1081.958 L47.04546,1082.702 L47.27273,1083.52 L47.5,964.4897 L47.72727,1070.449 L47.95454,1084.688 L48.18182,1088.853 L48.40909,1090.469 L48.63636,1091.438 L48.86364,1092.012 L49.09091,1092.497 L49.31818,1039.325 L49.54546,1067.362 L49.77273,1072.751 L50,1076.253 L50.22727,1078.422 L50.45454,1079.591 L50.68182,1080.509 L50.90909,1081.164 L51.13636,1018.098 L51.36364,1049.724 L51.59091,1069.413 L51.81818,1075.665 L52.04545,1080.641 L52.27272,1083.905 L52.5,1085.84 L52.72727,1087.092 L52.95454,1028.44 L53.18182,1061.134 L53.40909,1070.708 L53.63637,1076.268 L53.86364,1079.372 L54.09091,1081.155 L54.31818,1082.528 L54.54546,1083.453 L54.77273,974.5768 L55,1013.358 L55.22727,1026.667 L55.45455,1032.23 L55.68182,1035.856 L55.90909,1038.371 L56.13636,1040.431 L56.36364,1042.198 L56.59091,952.0644 L56.81818,997.8972 L57.04545,1015.844 L57.27273,1026.614 L57.5,1033.03 L57.72727,1037.026 L57.95454,1039.592 L58.18182,1042.337 L58.40909,1051.198 L58.63636,1061.601 L58.86363,1068.367 L59.09091,1072.27 L59.31818,1074.902 L59.54546,1076.78 L59.77273,1078.433 L60,1079.683 L60.22728,987.3153 L60.45455,1037.3 L60.68182,1051.596 L60.90909,1056.508 L61.13636,1060.196 L61.36364,1062.685 L61.59091,1064.109 L61.81818,1065.563 L62.04546,1077.819 L62.27273,1088.972 L62.5,1092.828 L62.72727,1094.199 L62.95454,1094.869 L63.18182,1095.316 L63.40909,1095.612 L63.63636,1095.862 L63.86364,979.2756 L64.0909,1026.987 L64.31818,1042.775 L64.54546,1051.807 L64.77273,1058.498 L65,1062.415 L65.22727,1065.066 L65.45454,1067.789 L65.68182,1072.481 L65.9091,1077.627 L66.13637,1080.386 L66.36364,1081.834 L66.59091,1082.974 L66.81818,1083.788 L67.04546,1084.514 L67.27273,1085.248 L67.5,1074.854 L67.72727,1081.298 L67.95454,1084.518 L68.18182,1086.046 L68.40909,1087.116 L68.63636,1087.976 L68.86364,1088.745 L69.09091,1089.373 L69.31818,1097.108 L69.54546,1098.378 L69.77273,1098.805 L70,1099.01 L70.22727,1099.146 L70.45454,1099.252 L70.68182,1099.34 L70.90909,1099.408 L71.13636,1092.383 L71.36363,1095.719 L71.5909,1097.235 L71.81818,1097.918 L72.04546,1098.271 L72.27273,1098.513 L72.5,1098.686 L72.72727,1098.826 L72.95454,1062.297 L73.18182,1074.631 L73.4091,1077.863 L73.63637,1079.378 L73.86364,1080.488 L74.09091,1081.411 L74.31818,1082.151 L74.54546,1082.767 L74.77273,1068.733 L75,1077.703 L75.22727,1081.323 L75.45454,1082.665 L75.68182,1083.631 L75.90909,1084.322 L76.13636,1084.738 L76.36363,1085.273 L76.5909,1041.588 L76.81818,1052.942 L77.04546,1058.275 L77.27273,1062.24 L77.5,1064.994 L77.72727,1067.529 L77.95454,1069.875 L78.18182,1071.853 L78.4091,1088.799 L78.63637,1096.443 L78.86364,1098.45 L79.09091,1098.985 L79.31818,1099.219 L79.54546,1099.355 L79.77273,1099.453 L80,1099.528 L80.22727,1045.893 L80.45454,1069.571 L80.68182,1076.407 L80.90909,1080.336 L81.13636,1082.333 L81.36364,1083.843 L81.59091,1084.955 L81.81818,1085.794 L82.04546,1055.194 L82.27273,1081.707 L82.5,1088.745 L82.72727,1091.187 L82.95454,1092.611 L83.18182,1093.633 L83.40909,1094.427 L83.63636,1094.798 L83.86363,950.4725 L84.0909,1031.496 L84.31818,1047.79 L84.54546,1054.349 L84.77273,1058.89 L85,1061.363 L85.22727,1063.299 L85.45454,1064.768 L85.68182,1088.421 L85.9091,1093.414 L86.13637,1095.368 L86.36364,1095.892 L86.59091,1096.17 L86.81818,1096.327 L87.04546,1096.413 L87.27273,1096.538 L87.5,1028.825 L87.72727,1059.542 L87.95454,1066.928 L88.18182,1071.301 L88.40909,1074.082 L88.63636,1076.228 L88.86363,1077.795 L89.0909,1079.301 L89.31818,1023.141 L89.54546,1043.134 L89.77273,1051.083 L90,1057.295 L90.22727,1062.288 L90.45454,1065.59 L90.68182,1068.215 L90.9091,1070.232 L91.13637,1059.532 L91.36364,1075.346 L91.59091,1080.402 L91.81818,1083.831 L92.04546,1085.94 L92.27273,1087.736 L92.5,1088.889 L92.72727,1089.945 L92.95454,1059.243 L93.18182,1086.343 L93.40909,1091.474 L93.63636,1093.209 L93.86364,1094.034 L94.09091,1094.597 L94.31818,1095.02 L94.54546,1095.357 L94.77273,993.1867 L95,1037.063 L95.22727,1048.718 L95.45454,1056.131 L95.68182,1060.51 L95.90909,1063.942 L96.13636,1066.873 L96.36363,1069.611 L96.5909,1062.316 L96.81818,1081.455 L97.04546,1085.893 L97.27273,1087.398 L97.5,1088.54 L97.72727,1089.105 L97.95454,1089.7 L98.18182,1090.174 L98.4091,977.6783 L98.63637,1037.842 L98.86364,1051.045 L99.09091,1056.267 L99.31818,1059.465 L99.54546,1061.521 L99.77273,1063.302 L100,1064.948 L100.2273,1057.882 L100.4545,1068.176 L100.6818,1072.739 L100.9091,1074.603 L101.1364,1076.254 L101.3636,1077.714 L101.5909,1078.909 L101.8182,1079.887 L102.0455,1054.025 L102.2727,1067.854 L102.5,1074.266 L102.7273,1077.53 L102.9545,1079.569 L103.1818,1080.959 L103.4091,1082.167 L103.6364,1083.173 L103.8636,1085.533 L104.0909,1090.781 L104.3182,1093.307 L104.5454,1094.507 L104.7727,1095.208 L105,1095.685 L105.2273,1096.077 L105.4545,1096.377 L105.6818,1058.705 L105.9091,1078.298 L106.1364,1082.112 L106.3636,1084.612 L106.5909,1086.503 L106.8182,1087.86 L107.0455,1089.025 L107.2727,1089.795 L107.5,1090.008 L107.7273,1094.375 L107.9546,1096.176 L108.1818,1096.992 L108.4091,1097.554 L108.6364,1097.897 L108.8636,1098.113 L109.0909,1098.363 L109.3182,956.6323 L109.5455,1019.23 L109.7727,1030.179 L110,1036.011 L110.2273,1040.214 L110.4545,1042.335 L110.6818,1043.712 L110.9091,1045.933 L111.1364,1061.334 L111.3636,1075.209 L111.5909,1080.393 L111.8182,1083.102 L112.0455,1084.79 L112.2727,1086.007 L112.5,1087.04 L112.7273,1087.741 L112.9545,1064.732 L113.1818,1077.16 L113.4091,1081.796 L113.6364,1084.816 L113.8636,1086.075 L114.0909,1086.895 L114.3182,1087.486 L114.5455,1088.022 L114.7727,1020.798 L115,1062.167 L115.2273,1071.944 L115.4545,1076.788 L115.6818,1079.759 L115.9091,1081.531 L116.1364,1082.727 L116.3636,1083.594 L116.5909,1077.346 L116.8182,1087.202 L117.0454,1088.79 L117.2727,1090.346 L117.5,1091.179 L117.7273,1091.739 L117.9545,1092.13 L118.1818,1092.481 L118.4091,1062.384 L118.6364,1072.553 L118.8636,1076.414 L119.0909,1078.279 L119.3182,1079.575 L119.5455,1079.984 L119.7727,1081.038 L120,1081.717 L120.2273,1057.423 L120.4546,1071.017 L120.6818,1076.229 L120.9091,1078.645 L121.1364,1079.727 L121.3636,1081.22 L121.5909,1081.767 L121.8182,1082.906 L122.0455,1085.112 L122.2727,1090.954 L122.5,1093.615 L122.7273,1094.882 L122.9545,1095.544 L123.1818,1095.969 L123.4091,1096.3 L123.6364,1096.546 L123.8636,1071.392 L124.0909,1078.395 L124.3182,1081.603 L124.5455,1083.828 L124.7727,1085.108 L125,1086.123 L125.2273,1086.833 L125.4545,1087.504 L125.6818,1067.448 L125.9091,1087.097 L126.1364,1088.68 L126.3636,1089.599 L126.5909,1090.308 L126.8182,1090.937 L127.0455,1091.422 L127.2727,1091.852 L127.5,1041.977 L127.7273,1076.463 L127.9545,1087.501 L128.1818,1090.443 L128.4091,1091.839 L128.6364,1092.596 L128.8636,1093.085 L129.0909,1093.447 L129.3182,1029.358 L129.5455,1053.372 L129.7727,1060.175 L130,1066.171 L130.2273,1071.095 L130.4545,1075.084 L130.6818,1077.846 L130.9091,1080.067 L131.1364,1070.29 L131.3636,1077.887 L131.5909,1080.467 L131.8182,1081.568 L132.0455,1082.357 L132.2727,1083.008 L132.5,1083.22 L132.7273,1083.825 L132.9545,1057.991 L133.1818,1069.465 L133.4091,1074.734 L133.6364,1078.271 L133.8636,1080.536 L134.0909,1082.041 L134.3182,1083.11 L134.5455,1083.973 L134.7727,984.6802 L135,1016.691 L135.2273,1031.858 L135.4545,1039.267 L135.6818,1043.745 L135.9091,1049.013 L136.1364,1053.623 L136.3636,1057.24 L136.5909,1092.129 L136.8182,1095.706 L137.0455,1096.592 L137.2727,1097.043 L137.5,1097.359 L137.7273,1097.556 L137.9545,1097.72 L138.1818,1097.844 L138.4091,1051.037 L138.6364,1076.534 L138.8636,1084.959 L139.0909,1089.012 L139.3182,1091.165 L139.5455,1092.513 L139.7727,1093.428 L140,1094.066 L140.2273,1078.59 L140.4545,1090.067 L140.6818,1094.251 L140.9091,1096.144 L141.1364,1097.265 L141.3636,1097.832 L141.5909,1098.259 L141.8182,1098.449 L142.0455,989.4374 L142.2727,1043.161 L142.5,1054.853 L142.7273,1059.28 L142.9545,1062.508 L143.1818,1065.263 L143.4091,1067.146 L143.6364,1068.738 L143.8636,1041.515 L144.0909,1062.631 L144.3182,1072.244 L144.5455,1076.608 L144.7727,1079.192 L145,1081.807 L145.2273,1083.34 L145.4545,1084.309 L145.6818,991.6067 L145.9091,1037.401 L146.1364,1049.433 L146.3636,1055.126 L146.5909,1059.255 L146.8182,1062.178 L147.0455,1064.454 L147.2727,1066.307 L147.5,1037.152 L147.7273,1057.689 L147.9545,1063.897 L148.1818,1067.237 L148.4091,1069.402 L148.6364,1071.058 L148.8636,1072.215 L149.0909,1073.243 L149.3182,1094.739 L149.5455,1098.033 L149.7727,1098.678 L150,1099.027 L150.2273,1099.229 L150.4545,1099.358 L150.6818,1099.46 L150.9091,1099.537 L151.1364,929.3092 L151.3636,1045.377 L151.5909,1060.47 L151.8182,1065.922 L152.0455,1068.567 L152.2727,1070.736 L152.5,1072.713 L152.7273,1073.796 L152.9545,1092.2 L153.1818,1097.132 L153.4091,1098.172 L153.6364,1098.605 L153.8636,1098.832 L154.0909,1098.982 L154.3182,1099.106 L154.5455,1099.201 L154.7727,1006.181 L155,1061.085 L155.2273,1077.142 L155.4545,1081.985 L155.6818,1084.088 L155.9091,1085.319 L156.1364,1086.105 L156.3636,1086.831 L156.5909,1068.78 L156.8182,1084.392 L157.0455,1088.554 L157.2727,1090.158 L157.5,1091.139 L157.7273,1091.826 L157.9545,1092.295 L158.1818,1092.64 L158.4091,1020.585 L158.6364,1062.675 L158.8636,1068.464 L159.0909,1071.322 L159.3182,1072.617 L159.5455,1073.922 L159.7727,1074.547 L160,1075.09 L160.2273,1092.574 L160.4545,1094.96 L160.6818,1096.156 L160.9091,1096.781 L161.1364,1097.248 L161.3636,1097.555 L161.5909,1097.798 L161.8182,1097.966 L162.0455,1051.629 L162.2727,1069.452 L162.5,1077.125 L162.7273,1080.787 L162.9545,1082.951 L163.1818,1084.475 L163.4091,1085.576 L163.6364,1086.589 L163.8636,1097.795 L164.0909,1099.02 L164.3182,1099.48 L164.5455,1099.658 L164.7727,1099.757 L165,1099.821 L165.2273,1099.866 L165.4545,1099.901 L165.6818,1070.47 L165.9091,1080.361 L166.1364,1085.445 L166.3636,1088.182 L166.5909,1089.743 L166.8182,1090.704 L167.0455,1091.332 L167.2727,1091.961 L167.5,1018.942 L167.7273,1060.459 L167.9545,1073.91 L168.1818,1079.145 L168.4091,1081.956 L168.6364,1083.669 L168.8636,1084.953 L169.0909,1085.911 L169.3182,900 L169.5455,1059.582 L169.7727,1071.271 L170,1073.466 L170.2273,1074.312 L170.4545,1074.711 L170.6818,1075.072 L170.9091,1075.469 L171.1364,1064.468 L171.3636,1080.65 L171.5909,1086.072 L171.8182,1088.436 L172.0455,1090.197 L172.2727,1091.181 L172.5,1092.016 L172.7273,1092.66 L172.9545,1060.498 L173.1818,1086.999 L173.4091,1091.53 L173.6364,1093.513 L173.8636,1094.157 L174.0909,1094.554 L174.3182,1094.779 L174.5455,1094.964 L174.7727,1070.369 L175,1087.268 L175.2273,1091.359 L175.4545,1092.966 L175.6818,1093.711 L175.9091,1094.149 L176.1364,1094.504 L176.3636,1094.77 L176.5909,1077.454 L176.8182,1086.076 L177.0455,1089.885 L177.2727,1090.998 L177.5,1091.605 L177.7273,1091.95 L177.9545,1092.211 L178.1818,1092.39 L178.4091,1090.424 L178.6364,1093.637 L178.8636,1095.468 L179.0909,1096.426 L179.3182,1096.948 L179.5455,1097.228 L179.7727,1097.438 L180,1097.592 L180.2273,1095.49 L180.4545,1098.261 L180.6818,1099.095 L180.9091,1099.385 L181.1364,1099.493 L181.3636,1099.572 L181.5909,1099.621 L181.8182,1099.662 L182.0455,1097.275 L182.2727,1099.313 L182.5,1099.457 L182.7273,1099.575 L182.9545,1099.636 L183.1818,1099.68 L183.4091,1099.716 L183.6364,1099.746 L183.8636,1099.163 L184.0909,1099.628 L184.3182,1099.771 L184.5455,1099.863 L184.7727,1099.917 L185,1099.951 L185.2273,1099.98 L185.4545,1100 L185.6818,1087.706 L185.9091,1090.369 L186.1364,1092.221 L186.3636,1093.02 L186.5909,1093.669 L186.8182,1094.29 L187.0455,1094.805 L187.2727,1095.239 L187.5,1079.452 L187.7273,1084.722 L187.9545,1086.632 L188.1818,1087.428 L188.4091,1087.832 L188.6364,1088.095 L188.8636,1088.298 L189.0909,1088.527 L189.3182,1062.021 L189.5455,1080.209 L189.7727,1084.753 L190,1086.98 L190.2273,1088.345 L190.4545,1089.229 L190.6818,1089.909 L190.9091,1090.394 L191.1364,1098.217 L191.3636,1099.21 L191.5909,1099.481 L191.8182,1099.623 L192.0455,1099.703 L192.2727,1099.762 L192.5,1099.808 L192.7273,1099.843 L192.9545,1055.298 L193.1818,1069.004 L193.4091,1073.181 L193.6364,1075.289 L193.8636,1077.327 L194.0909,1079.258 L194.3182,1080.706 L194.5455,1081.506 L194.7727,1061.55 L195,1082.584 L195.2273,1089.71 L195.4545,1092.542 L195.6818,1093.603 L195.9091,1094.317 L196.1364,1094.791 L196.3636,1095.189 L196.5909,1071.159 L196.8182,1090.543 L197.0455,1092.807 L197.2727,1094.491 L197.5,1095.309 L197.7273,1095.956 L197.9545,1096.492 L198.1818,1097.092 L198.4091,1077.458 L198.6364,1086.931 L198.8636,1090.766 L199.0909,1092.08 L199.3182,1093.023 L199.5455,1093.63 L199.7727,1094.125 L200,1094.594 " stroke="blue" fill="none" />
<text x="10" y="1120" font-family="Arial" font-size="12" fill="black">Learning Rate</text>
<path d="M10,6001141 L210,6001141" stroke="gray" />
<text x="5" y="6001146" font-family="Arial" font-size="10" fill="black">0</text>
<text x="5" y="1140" font-family="Arial" font-size="10" fill="black">0.0003</text>
<text x="5" y="1340" font-family="Arial" font-size="10" fill="black">0.0003</text>
<path d="M0.2272727,NaN L0.4545454,NaN L0.6818182,NaN L0.9090909,NaN L1.136364,NaN L1.363636,NaN L1.590909,NaN L1.818182,NaN L2.045455,NaN L2.272727,NaN L2.5,NaN L2.727273,NaN L2.954545,NaN L3.181818,NaN L3.409091,NaN L3.636364,NaN L3.863636,NaN L4.090909,NaN L4.318182,NaN L4.545455,NaN L4.772727,NaN L5,NaN L5.227273,NaN L5.454545,NaN L5.681818,NaN L5.909091,NaN L6.136364,NaN L6.363636,NaN L6.590909,NaN L6.818182,NaN L7.045455,NaN L7.272727,NaN L7.5,NaN L7.727273,NaN L7.954545,NaN L8.181818,NaN L8.409091,NaN L8.636364,NaN L8.863636,NaN L9.090909,NaN L9.318182,NaN L9.545454,NaN L9.772728,NaN L10,NaN L10.22727,NaN L10.45455,NaN L10.68182,NaN L10.90909,NaN L11.13636,NaN L11.36364,NaN L11.59091,NaN L11.81818,NaN L12.04545,NaN L12.27273,NaN L12.5,NaN L12.72727,NaN L12.95455,NaN L13.18182,NaN L13.40909,NaN L13.63636,NaN L13.86364,NaN L14.09091,NaN L14.31818,NaN L14.54545,NaN L14.77273,NaN L15,NaN L15.22727,NaN L15.45455,NaN L15.68182,NaN L15.90909,NaN L16.13636,NaN L16.36364,NaN L16.59091,NaN L16.81818,NaN L17.04545,NaN L17.27273,NaN L17.5,NaN L17.72727,NaN L17.95454,NaN L18.18182,NaN L18.40909,NaN L18.63636,NaN L18.86364,NaN L19.09091,NaN L19.31818,NaN L19.54546,NaN L19.77273,NaN L20,NaN L20.22727,NaN L20.45455,NaN L20.68182,NaN L20.90909,NaN L21.13636,NaN L21.36364,NaN L21.59091,NaN L21.81818,NaN L22.04545,NaN L22.27273,NaN L22.5,NaN L22.72727,NaN L22.95455,NaN L23.18182,NaN L23.40909,NaN L23.63636,NaN L23.86364,NaN L24.09091,NaN L24.31818,NaN L24.54546,NaN L24.77273,NaN L25,NaN L25.22727,NaN L25.45454,NaN L25.68182,NaN L25.90909,NaN L26.13636,NaN L26.36364,NaN L26.59091,NaN L26.81818,NaN L27.04546,NaN L27.27273,NaN L27.5,NaN L27.72727,NaN L27.95455,NaN L28.18182,NaN L28.40909,NaN L28.63636,NaN L28.86364,NaN L29.09091,NaN L29.31818,NaN L29.54545,NaN L29.77273,NaN L30,NaN L30.22727,NaN L30.45455,NaN L30.68182,NaN L30.90909,NaN L31.13636,NaN L31.36364,NaN L31.59091,NaN L31.81818,NaN L32.04545,NaN L32.27273,NaN L32.5,NaN L32.72727,NaN L32.95455,NaN L33.18182,NaN L33.40909,NaN L33.63636,NaN L33.86364,NaN L34.09091,NaN L34.31818,NaN L34.54546,NaN L34.77273,NaN L35,NaN L35.22727,NaN L35.45454,NaN L35.68182,NaN L35.90909,NaN L36.13636,NaN L36.36364,NaN L36.59091,NaN L36.81818,NaN L37.04546,NaN L37.27273,NaN L37.5,NaN L37.72727,NaN L37.95454,NaN L38.18182,NaN L38.40909,NaN L38.63636,NaN L38.86364,NaN L39.09091,NaN L39.31818,NaN L39.54546,NaN L39.77273,NaN L40,NaN L40.22727,NaN L40.45454,NaN L40.68182,NaN L40.90909,NaN L41.13636,NaN L41.36364,NaN L41.59091,NaN L41.81818,NaN L42.04545,NaN L42.27273,NaN L42.5,NaN L42.72727,NaN L42.95455,NaN L43.18182,NaN L43.40909,NaN L43.63636,NaN L43.86364,NaN L44.09091,NaN L44.31818,NaN L44.54545,NaN L44.77273,NaN L45,NaN L45.22727,NaN L45.45455,NaN L45.68182,NaN L45.90909,NaN L46.13636,NaN L46.36364,NaN L46.59091,NaN L46.81818,NaN L47.04546,NaN L47.27273,NaN L47.5,NaN L47.72727,NaN L47.95454,NaN L48.18182,NaN L48.40909,NaN L48.63636,NaN L48.86364,NaN L49.09091,NaN L49.31818,NaN L49.54546,NaN L49.77273,NaN L50,NaN L50.22727,NaN L50.45454,NaN L50.68182,NaN L50.90909,NaN L51.13636,NaN L51.36364,NaN L51.59091,NaN L51.81818,NaN L52.04545,NaN L52.27272,NaN L52.5,NaN L52.72727,NaN L52.95454,NaN L53.18182,NaN L53.40909,NaN L53.63637,NaN L53.86364,NaN L54.09091,NaN L54.31818,NaN L54.54546,NaN L54.77273,NaN L55,NaN L55.22727,NaN L55.45455,NaN L55.68182,NaN L55.90909,NaN L56.13636,NaN L56.36364,NaN L56.59091,NaN L56.81818,NaN L57.04545,NaN L57.27273,NaN L57.5,NaN L57.72727,NaN L57.95454,NaN L58.18182,NaN L58.40909,NaN L58.63636,NaN L58.86363,NaN L59.09091,NaN L59.31818,NaN L59.54546,NaN L59.77273,NaN L60,NaN L60.22728,NaN L60.45455,NaN L60.68182,NaN L60.90909,NaN L61.13636,NaN L61.36364,NaN L61.59091,NaN L61.81818,NaN L62.04546,NaN L62.27273,NaN L62.5,NaN L62.72727,NaN L62.95454,NaN L63.18182,NaN L63.40909,NaN L63.63636,NaN L63.86364,NaN L64.0909,NaN L64.31818,NaN L64.54546,NaN L64.77273,NaN L65,NaN L65.22727,NaN L65.45454,NaN L65.68182,NaN L65.9091,NaN L66.13637,NaN L66.36364,NaN L66.59091,NaN L66.81818,NaN L67.04546,NaN L67.27273,NaN L67.5,NaN L67.72727,NaN L67.95454,NaN L68.18182,NaN L68.40909,NaN L68.63636,NaN L68.86364,NaN L69.09091,NaN L69.31818,NaN L69.54546,NaN L69.77273,NaN L70,NaN L70.22727,NaN L70.45454,NaN L70.68182,NaN L70.90909,NaN L71.13636,NaN L71.36363,NaN L71.5909,NaN L71.81818,NaN L72.04546,NaN L72.27273,NaN L72.5,NaN L72.72727,NaN L72.95454,NaN L73.18182,NaN L73.4091,NaN L73.63637,NaN L73.86364,NaN L74.09091,NaN L74.31818,NaN L74.54546,NaN L74.77273,NaN L75,NaN L75.22727,NaN L75.45454,NaN L75.68182,NaN L75.90909,NaN L76.13636,NaN L76.36363,NaN L76.5909,NaN L76.81818,NaN L77.04546,NaN L77.27273,NaN L77.5,NaN L77.72727,NaN L77.95454,NaN L78.18182,NaN L78.4091,NaN L78.63637,NaN L78.86364,NaN L79.09091,NaN L79.31818,NaN L79.54546,NaN L79.77273,NaN L80,NaN L80.22727,NaN L80.45454,NaN L80.68182,NaN L80.90909,NaN L81.13636,NaN L81.36364,NaN L81.59091,NaN L81.81818,NaN L82.04546,NaN L82.27273,NaN L82.5,NaN L82.72727,NaN L82.95454,NaN L83.18182,NaN L83.40909,NaN L83.63636,NaN L83.86363,NaN L84.0909,NaN L84.31818,NaN L84.54546,NaN L84.77273,NaN L85,NaN L85.22727,NaN L85.45454,NaN L85.68182,NaN L85.9091,NaN L86.13637,NaN L86.36364,NaN L86.59091,NaN L86.81818,NaN L87.04546,NaN L87.27273,NaN L87.5,NaN L87.72727,NaN L87.95454,NaN L88.18182,NaN L88.40909,NaN L88.63636,NaN L88.86363,NaN L89.0909,NaN L89.31818,NaN L89.54546,NaN L89.77273,NaN L90,NaN L90.22727,NaN L90.45454,NaN L90.68182,NaN L90.9091,NaN L91.13637,NaN L91.36364,NaN L91.59091,NaN L91.81818,NaN L92.04546,NaN L92.27273,NaN L92.5,NaN L92.72727,NaN L92.95454,NaN L93.18182,NaN L93.40909,NaN L93.63636,NaN L93.86364,NaN L94.09091,NaN L94.31818,NaN L94.54546,NaN L94.77273,NaN L95,NaN L95.22727,NaN L95.45454,NaN L95.68182,NaN L95.90909,NaN L96.13636,NaN L96.36363,NaN L96.5909,NaN L96.81818,NaN L97.04546,NaN L97.27273,NaN L97.5,NaN L97.72727,NaN L97.95454,NaN L98.18182,NaN L98.4091,NaN L98.63637,NaN L98.86364,NaN L99.09091,NaN L99.31818,NaN L99.54546,NaN L99.77273,NaN L100,NaN L100.2273,NaN L100.4545,NaN L100.6818,NaN L100.9091,NaN L101.1364,NaN L101.3636,NaN L101.5909,NaN L101.8182,NaN L102.0455,NaN L102.2727,NaN L102.5,NaN L102.7273,NaN L102.9545,NaN L103.1818,NaN L103.4091,NaN L103.6364,NaN L103.8636,NaN L104.0909,NaN L104.3182,NaN L104.5454,NaN L104.7727,NaN L105,NaN L105.2273,NaN L105.4545,NaN L105.6818,NaN L105.9091,NaN L106.1364,NaN L106.3636,NaN L106.5909,NaN L106.8182,NaN L107.0455,NaN L107.2727,NaN L107.5,NaN L107.7273,NaN L107.9546,NaN L108.1818,NaN L108.4091,NaN L108.6364,NaN L108.8636,NaN L109.0909,NaN L109.3182,NaN L109.5455,NaN L109.7727,NaN L110,NaN L110.2273,NaN L110.4545,NaN L110.6818,NaN L110.9091,NaN L111.1364,NaN L111.3636,NaN L111.5909,NaN L111.8182,NaN L112.0455,NaN L112.2727,NaN L112.5,NaN L112.7273,NaN L112.9545,NaN L113.1818,NaN L113.4091,NaN L113.6364,NaN L113.8636,NaN L114.0909,NaN L114.3182,NaN L114.5455,NaN L114.7727,NaN L115,NaN L115.2273,NaN L115.4545,NaN L115.6818,NaN L115.9091,NaN L116.1364,NaN L116.3636,NaN L116.5909,NaN L116.8182,NaN L117.0454,NaN L117.2727,NaN L117.5,NaN L117.7273,NaN L117.9545,NaN L118.1818,NaN L118.4091,NaN L118.6364,NaN L118.8636,NaN L119.0909,NaN L119.3182,NaN L119.5455,NaN L119.7727,NaN L120,NaN L120.2273,NaN L120.4546,NaN L120.6818,NaN L120.9091,NaN L121.1364,NaN L121.3636,NaN L121.5909,NaN L121.8182,NaN L122.0455,NaN L122.2727,NaN L122.5,NaN L122.7273,NaN L122.9545,NaN L123.1818,NaN L123.4091,NaN L123.6364,NaN L123.8636,NaN L124.0909,NaN L124.3182,NaN L124.5455,NaN L124.7727,NaN L125,NaN L125.2273,NaN L125.4545,NaN L125.6818,NaN L125.9091,NaN L126.1364,NaN L126.3636,NaN L126.5909,NaN L126.8182,NaN L127.0455,NaN L127.2727,NaN L127.5,NaN L127.7273,NaN L127.9545,NaN L128.1818,NaN L128.4091,NaN L128.6364,NaN L128.8636,NaN L129.0909,NaN L129.3182,NaN L129.5455,NaN L129.7727,NaN L130,NaN L130.2273,NaN L130.4545,NaN L130.6818,NaN L130.9091,NaN L131.1364,NaN L131.3636,NaN L131.5909,NaN L131.8182,NaN L132.0455,NaN L132.2727,NaN L132.5,NaN L132.7273,NaN L132.9545,NaN L133.1818,NaN L133.4091,NaN L133.6364,NaN L133.8636,NaN L134.0909,NaN L134.3182,NaN L134.5455,NaN L134.7727,NaN L135,NaN L135.2273,NaN L135.4545,NaN L135.6818,NaN L135.9091,NaN L136.1364,NaN L136.3636,NaN L136.5909,NaN L136.8182,NaN L137.0455,NaN L137.2727,NaN L137.5,NaN L137.7273,NaN L137.9545,NaN L138.1818,NaN L138.4091,NaN L138.6364,NaN L138.8636,NaN L139.0909,NaN L139.3182,NaN L139.5455,NaN L139.7727,NaN L140,NaN L140.2273,NaN L140.4545,NaN L140.6818,NaN L140.9091,NaN L141.1364,NaN L141.3636,NaN L141.5909,NaN L141.8182,NaN L142.0455,NaN L142.2727,NaN L142.5,NaN L142.7273,NaN L142.9545,NaN L143.1818,NaN L143.4091,NaN L143.6364,NaN L143.8636,NaN L144.0909,NaN L144.3182,NaN L144.5455,NaN L144.7727,NaN L145,NaN L145.2273,NaN L145.4545,NaN L145.6818,NaN L145.9091,NaN L146.1364,NaN L146.3636,NaN L146.5909,NaN L146.8182,NaN L147.0455,NaN L147.2727,NaN L147.5,NaN L147.7273,NaN L147.9545,NaN L148.1818,NaN L148.4091,NaN L148.6364,NaN L148.8636,NaN L149.0909,NaN L149.3182,NaN L149.5455,NaN L149.7727,NaN L150,NaN L150.2273,NaN L150.4545,NaN L150.6818,NaN L150.9091,NaN L151.1364,NaN L151.3636,NaN L151.5909,NaN L151.8182,NaN L152.0455,NaN L152.2727,NaN L152.5,NaN L152.7273,NaN L152.9545,NaN L153.1818,NaN L153.4091,NaN L153.6364,NaN L153.8636,NaN L154.0909,NaN L154.3182,NaN L154.5455,NaN L154.7727,NaN L155,NaN L155.2273,NaN L155.4545,NaN L155.6818,NaN L155.9091,NaN L156.1364,NaN L156.3636,NaN L156.5909,NaN L156.8182,NaN L157.0455,NaN L157.2727,NaN L157.5,NaN L157.7273,NaN L157.9545,NaN L158.1818,NaN L158.4091,NaN L158.6364,NaN L158.8636,NaN L159.0909,NaN L159.3182,NaN L159.5455,NaN L159.7727,NaN L160,NaN L160.2273,NaN L160.4545,NaN L160.6818,NaN L160.9091,NaN L161.1364,NaN L161.3636,NaN L161.5909,NaN L161.8182,NaN L162.0455,NaN L162.2727,NaN L162.5,NaN L162.7273,NaN L162.9545,NaN L163.1818,NaN L163.4091,NaN L163.6364,NaN L163.8636,NaN L164.0909,NaN L164.3182,NaN L164.5455,NaN L164.7727,NaN L165,NaN L165.2273,NaN L165.4545,NaN L165.6818,NaN L165.9091,NaN L166.1364,NaN L166.3636,NaN L166.5909,NaN L166.8182,NaN L167.0455,NaN L167.2727,NaN L167.5,NaN L167.7273,NaN L167.9545,NaN L168.1818,NaN L168.4091,NaN L168.6364,NaN L168.8636,NaN L169.0909,NaN L169.3182,NaN L169.5455,NaN L169.7727,NaN L170,NaN L170.2273,NaN L170.4545,NaN L170.6818,NaN L170.9091,NaN L171.1364,NaN L171.3636,NaN L171.5909,NaN L171.8182,NaN L172.0455,NaN L172.2727,NaN L172.5,NaN L172.7273,NaN L172.9545,NaN L173.1818,NaN L173.4091,NaN L173.6364,NaN L173.8636,NaN L174.0909,NaN L174.3182,NaN L174.5455,NaN L174.7727,NaN L175,NaN L175.2273,NaN L175.4545,NaN L175.6818,NaN L175.9091,NaN L176.1364,NaN L176.3636,NaN L176.5909,NaN L176.8182,NaN L177.0455,NaN L177.2727,NaN L177.5,NaN L177.7273,NaN L177.9545,NaN L178.1818,NaN L178.4091,NaN L178.6364,NaN L178.8636,NaN L179.0909,NaN L179.3182,NaN L179.5455,NaN L179.7727,NaN L180,NaN L180.2273,NaN L180.4545,NaN L180.6818,NaN L180.9091,NaN L181.1364,NaN L181.3636,NaN L181.5909,NaN L181.8182,NaN L182.0455,NaN L182.2727,NaN L182.5,NaN L182.7273,NaN L182.9545,NaN L183.1818,NaN L183.4091,NaN L183.6364,NaN L183.8636,NaN L184.0909,NaN L184.3182,NaN L184.5455,NaN L184.7727,NaN L185,NaN L185.2273,NaN L185.4545,NaN L185.6818,NaN L185.9091,NaN L186.1364,NaN L186.3636,NaN L186.5909,NaN L186.8182,NaN L187.0455,NaN L187.2727,NaN L187.5,NaN L187.7273,NaN L187.9545,NaN L188.1818,NaN L188.4091,NaN L188.6364,NaN L188.8636,NaN L189.0909,NaN L189.3182,NaN L189.5455,NaN L189.7727,NaN L190,NaN L190.2273,NaN L190.4545,NaN L190.6818,NaN L190.9091,NaN L191.1364,NaN L191.3636,NaN L191.5909,NaN L191.8182,NaN L192.0455,NaN L192.2727,NaN L192.5,NaN L192.7273,NaN L192.9545,NaN L193.1818,NaN L193.4091,NaN L193.6364,NaN L193.8636,NaN L194.0909,NaN L194.3182,NaN L194.5455,NaN L194.7727,NaN L195,NaN L195.2273,NaN L195.4545,NaN L195.6818,NaN L195.9091,NaN L196.1364,NaN L196.3636,NaN L196.5909,NaN L196.8182,NaN L197.0455,NaN L197.2727,NaN L197.5,NaN L197.7273,NaN L197.9545,NaN L198.1818,NaN L198.4091,NaN L198.6364,NaN L198.8636,NaN L199.0909,NaN L199.3182,NaN L199.5455,NaN L199.7727,NaN L200,NaN " stroke="blue" fill="none" />
<text x="10" y="1360" font-family="Arial" font-size="12" fill="black">Epsilon</text>
<path d="M10,4.000002E+09 L210,4.000002E+09" stroke="gray" />
<text x="5" y="4.000002E+09" font-family="Arial" font-size="10" fill="black">0</text>
<text x="5" y="1380" font-family="Arial" font-size="10" fill="black">0.2</text>
<text x="5" y="1580" font-family="Arial" font-size="10" fill="black">0.2</text>
<path d="M0.2272727,NaN L0.4545454,NaN L0.6818182,NaN L0.9090909,NaN L1.136364,NaN L1.363636,NaN L1.590909,NaN L1.818182,NaN L2.045455,NaN L2.272727,NaN L2.5,NaN L2.727273,NaN L2.954545,NaN L3.181818,NaN L3.409091,NaN L3.636364,NaN L3.863636,NaN L4.090909,NaN L4.318182,NaN L4.545455,NaN L4.772727,NaN L5,NaN L5.227273,NaN L5.454545,NaN L5.681818,NaN L5.909091,NaN L6.136364,NaN L6.363636,NaN L6.590909,NaN L6.818182,NaN L7.045455,NaN L7.272727,NaN L7.5,NaN L7.727273,NaN L7.954545,NaN L8.181818,NaN L8.409091,NaN L8.636364,NaN L8.863636,NaN L9.090909,NaN L9.318182,NaN L9.545454,NaN L9.772728,NaN L10,NaN L10.22727,NaN L10.45455,NaN L10.68182,NaN L10.90909,NaN L11.13636,NaN L11.36364,NaN L11.59091,NaN L11.81818,NaN L12.04545,NaN L12.27273,NaN L12.5,NaN L12.72727,NaN L12.95455,NaN L13.18182,NaN L13.40909,NaN L13.63636,NaN L13.86364,NaN L14.09091,NaN L14.31818,NaN L14.54545,NaN L14.77273,NaN L15,NaN L15.22727,NaN L15.45455,NaN L15.68182,NaN L15.90909,NaN L16.13636,NaN L16.36364,NaN L16.59091,NaN L16.81818,NaN L17.04545,NaN L17.27273,NaN L17.5,NaN L17.72727,NaN L17.95454,NaN L18.18182,NaN L18.40909,NaN L18.63636,NaN L18.86364,NaN L19.09091,NaN L19.31818,NaN L19.54546,NaN L19.77273,NaN L20,NaN L20.22727,NaN L20.45455,NaN L20.68182,NaN L20.90909,NaN L21.13636,NaN L21.36364,NaN L21.59091,NaN L21.81818,NaN L22.04545,NaN L22.27273,NaN L22.5,NaN L22.72727,NaN L22.95455,NaN L23.18182,NaN L23.40909,NaN L23.63636,NaN L23.86364,NaN L24.09091,NaN L24.31818,NaN L24.54546,NaN L24.77273,NaN L25,NaN L25.22727,NaN L25.45454,NaN L25.68182,NaN L25.90909,NaN L26.13636,NaN L26.36364,NaN L26.59091,NaN L26.81818,NaN L27.04546,NaN L27.27273,NaN L27.5,NaN L27.72727,NaN L27.95455,NaN L28.18182,NaN L28.40909,NaN L28.63636,NaN L28.86364,NaN L29.09091,NaN L29.31818,NaN L29.54545,NaN L29.77273,NaN L30,NaN L30.22727,NaN L30.45455,NaN L30.68182,NaN L30.90909,NaN L31.13636,NaN L31.36364,NaN L31.59091,NaN L31.81818,NaN L32.04545,NaN L32.27273,NaN L32.5,NaN L32.72727,NaN L32.95455,NaN L33.18182,NaN L33.40909,NaN L33.63636,NaN L33.86364,NaN L34.09091,NaN L34.31818,NaN L34.54546,NaN L34.77273,NaN L35,NaN L35.22727,NaN L35.45454,NaN L35.68182,NaN L35.90909,NaN L36.13636,NaN L36.36364,NaN L36.59091,NaN L36.81818,NaN L37.04546,NaN L37.27273,NaN L37.5,NaN L37.72727,NaN L37.95454,NaN L38.18182,NaN L38.40909,NaN L38.63636,NaN L38.86364,NaN L39.09091,NaN L39.31818,NaN L39.54546,NaN L39.77273,NaN L40,NaN L40.22727,NaN L40.45454,NaN L40.68182,NaN L40.90909,NaN L41.13636,NaN L41.36364,NaN L41.59091,NaN L41.81818,NaN L42.04545,NaN L42.27273,NaN L42.5,NaN L42.72727,NaN L42.95455,NaN L43.18182,NaN L43.40909,NaN L43.63636,NaN L43.86364,NaN L44.09091,NaN L44.31818,NaN L44.54545,NaN L44.77273,NaN L45,NaN L45.22727,NaN L45.45455,NaN L45.68182,NaN L45.90909,NaN L46.13636,NaN L46.36364,NaN L46.59091,NaN L46.81818,NaN L47.04546,NaN L47.27273,NaN L47.5,NaN L47.72727,NaN L47.95454,NaN L48.18182,NaN L48.40909,NaN L48.63636,NaN L48.86364,NaN L49.09091,NaN L49.31818,NaN L49.54546,NaN L49.77273,NaN L50,NaN L50.22727,NaN L50.45454,NaN L50.68182,NaN L50.90909,NaN L51.13636,NaN L51.36364,NaN L51.59091,NaN L51.81818,NaN L52.04545,NaN L52.27272,NaN L52.5,NaN L52.72727,NaN L52.95454,NaN L53.18182,NaN L53.40909,NaN L53.63637,NaN L53.86364,NaN L54.09091,NaN L54.31818,NaN L54.54546,NaN L54.77273,NaN L55,NaN L55.22727,NaN L55.45455,NaN L55.68182,NaN L55.90909,NaN L56.13636,NaN L56.36364,NaN L56.59091,NaN L56.81818,NaN L57.04545,NaN L57.27273,NaN L57.5,NaN L57.72727,NaN L57.95454,NaN L58.18182,NaN L58.40909,NaN L58.63636,NaN L58.86363,NaN L59.09091,NaN L59.31818,NaN L59.54546,NaN L59.77273,NaN L60,NaN L60.22728,NaN L60.45455,NaN L60.68182,NaN L60.90909,NaN L61.13636,NaN L61.36364,NaN L61.59091,NaN L61.81818,NaN L62.04546,NaN L62.27273,NaN L62.5,NaN L62.72727,NaN L62.95454,NaN L63.18182,NaN L63.40909,NaN L63.63636,NaN L63.86364,NaN L64.0909,NaN L64.31818,NaN L64.54546,NaN L64.77273,NaN L65,NaN L65.22727,NaN L65.45454,NaN L65.68182,NaN L65.9091,NaN L66.13637,NaN L66.36364,NaN L66.59091,NaN L66.81818,NaN L67.04546,NaN L67.27273,NaN L67.5,NaN L67.72727,NaN L67.95454,NaN L68.18182,NaN L68.40909,NaN L68.63636,NaN L68.86364,NaN L69.09091,NaN L69.31818,NaN L69.54546,NaN L69.77273,NaN L70,NaN L70.22727,NaN L70.45454,NaN L70.68182,NaN L70.90909,NaN L71.13636,NaN L71.36363,NaN L71.5909,NaN L71.81818,NaN L72.04546,NaN L72.27273,NaN L72.5,NaN L72.72727,NaN L72.95454,NaN L73.18182,NaN L73.4091,NaN L73.63637,NaN L73.86364,NaN L74.09091,NaN L74.31818,NaN L74.54546,NaN L74.77273,NaN L75,NaN L75.22727,NaN L75.45454,NaN L75.68182,NaN L75.90909,NaN L76.13636,NaN L76.36363,NaN L76.5909,NaN L76.81818,NaN L77.04546,NaN L77.27273,NaN L77.5,NaN L77.72727,NaN L77.95454,NaN L78.18182,NaN L78.4091,NaN L78.63637,NaN L78.86364,NaN L79.09091,NaN L79.31818,NaN L79.54546,NaN L79.77273,NaN L80,NaN L80.22727,NaN L80.45454,NaN L80.68182,NaN L80.90909,NaN L81.13636,NaN L81.36364,NaN L81.59091,NaN L81.81818,NaN L82.04546,NaN L82.27273,NaN L82.5,NaN L82.72727,NaN L82.95454,NaN L83.18182,NaN L83.40909,NaN L83.63636,NaN L83.86363,NaN L84.0909,NaN L84.31818,NaN L84.54546,NaN L84.77273,NaN L85,NaN L85.22727,NaN L85.45454,NaN L85.68182,NaN L85.9091,NaN L86.13637,NaN L86.36364,NaN L86.59091,NaN L86.81818,NaN L87.04546,NaN L87.27273,NaN L87.5,NaN L87.72727,NaN L87.95454,NaN L88.18182,NaN L88.40909,NaN L88.63636,NaN L88.86363,NaN L89.0909,NaN L89.31818,NaN L89.54546,NaN L89.77273,NaN L90,NaN L90.22727,NaN L90.45454,NaN L90.68182,NaN L90.9091,NaN L91.13637,NaN L91.36364,NaN L91.59091,NaN L91.81818,NaN L92.04546,NaN L92.27273,NaN L92.5,NaN L92.72727,NaN L92.95454,NaN L93.18182,NaN L93.40909,NaN L93.63636,NaN L93.86364,NaN L94.09091,NaN L94.31818,NaN L94.54546,NaN L94.77273,NaN L95,NaN L95.22727,NaN L95.45454,NaN L95.68182,NaN L95.90909,NaN L96.13636,NaN L96.36363,NaN L96.5909,NaN L96.81818,NaN L97.04546,NaN L97.27273,NaN L97.5,NaN L97.72727,NaN L97.95454,NaN L98.18182,NaN L98.4091,NaN L98.63637,NaN L98.86364,NaN L99.09091,NaN L99.31818,NaN L99.54546,NaN L99.77273,NaN L100,NaN L100.2273,NaN L100.4545,NaN L100.6818,NaN L100.9091,NaN L101.1364,NaN L101.3636,NaN L101.5909,NaN L101.8182,NaN L102.0455,NaN L102.2727,NaN L102.5,NaN L102.7273,NaN L102.9545,NaN L103.1818,NaN L103.4091,NaN L103.6364,NaN L103.8636,NaN L104.0909,NaN L104.3182,NaN L104.5454,NaN L104.7727,NaN L105,NaN L105.2273,NaN L105.4545,NaN L105.6818,NaN L105.9091,NaN L106.1364,NaN L106.3636,NaN L106.5909,NaN L106.8182,NaN L107.0455,NaN L107.2727,NaN L107.5,NaN L107.7273,NaN L107.9546,NaN L108.1818,NaN L108.4091,NaN L108.6364,NaN L108.8636,NaN L109.0909,NaN L109.3182,NaN L109.5455,NaN L109.7727,NaN L110,NaN L110.2273,NaN L110.4545,NaN L110.6818,NaN L110.9091,NaN L111.1364,NaN L111.3636,NaN L111.5909,NaN L111.8182,NaN L112.0455,NaN L112.2727,NaN L112.5,NaN L112.7273,NaN L112.9545,NaN L113.1818,NaN L113.4091,NaN L113.6364,NaN L113.8636,NaN L114.0909,NaN L114.3182,NaN L114.5455,NaN L114.7727,NaN L115,NaN L115.2273,NaN L115.4545,NaN L115.6818,NaN L115.9091,NaN L116.1364,NaN L116.3636,NaN L116.5909,NaN L116.8182,NaN L117.0454,NaN L117.2727,NaN L117.5,NaN L117.7273,NaN L117.9545,NaN L118.1818,NaN L118.4091,NaN L118.6364,NaN L118.8636,NaN L119.0909,NaN L119.3182,NaN L119.5455,NaN L119.7727,NaN L120,NaN L120.2273,NaN L120.4546,NaN L120.6818,NaN L120.9091,NaN L121.1364,NaN L121.3636,NaN L121.5909,NaN L121.8182,NaN L122.0455,NaN L122.2727,NaN L122.5,NaN L122.7273,NaN L122.9545,NaN L123.1818,NaN L123.4091,NaN L123.6364,NaN L123.8636,NaN L124.0909,NaN L124.3182,NaN L124.5455,NaN L124.7727,NaN L125,NaN L125.2273,NaN L125.4545,NaN L125.6818,NaN L125.9091,NaN L126.1364,NaN L126.3636,NaN L126.5909,NaN L126.8182,NaN L127.0455,NaN L127.2727,NaN L127.5,NaN L127.7273,NaN L127.9545,NaN L128.1818,NaN L128.4091,NaN L128.6364,NaN L128.8636,NaN L129.0909,NaN L129.3182,NaN L129.5455,NaN L129.7727,NaN L130,NaN L130.2273,NaN L130.4545,NaN L130.6818,NaN L130.9091,NaN L131.1364,NaN L131.3636,NaN L131.5909,NaN L131.8182,NaN L132.0455,NaN L132.2727,NaN L132.5,NaN L132.7273,NaN L132.9545,NaN L133.1818,NaN L133.4091,NaN L133.6364,NaN L133.8636,NaN L134.0909,NaN L134.3182,NaN L134.5455,NaN L134.7727,NaN L135,NaN L135.2273,NaN L135.4545,NaN L135.6818,NaN L135.9091,NaN L136.1364,NaN L136.3636,NaN L136.5909,NaN L136.8182,NaN L137.0455,NaN L137.2727,NaN L137.5,NaN L137.7273,NaN L137.9545,NaN L138.1818,NaN L138.4091,NaN L138.6364,NaN L138.8636,NaN L139.0909,NaN L139.3182,NaN L139.5455,NaN L139.7727,NaN L140,NaN L140.2273,NaN L140.4545,NaN L140.6818,NaN L140.9091,NaN L141.1364,NaN L141.3636,NaN L141.5909,NaN L141.8182,NaN L142.0455,NaN L142.2727,NaN L142.5,NaN L142.7273,NaN L142.9545,NaN L143.1818,NaN L143.4091,NaN L143.6364,NaN L143.8636,NaN L144.0909,NaN L144.3182,NaN L144.5455,NaN L144.7727,NaN L145,NaN L145.2273,NaN L145.4545,NaN L145.6818,NaN L145.9091,NaN L146.1364,NaN L146.3636,NaN L146.5909,NaN L146.8182,NaN L147.0455,NaN L147.2727,NaN L147.5,NaN L147.7273,NaN L147.9545,NaN L148.1818,NaN L148.4091,NaN L148.6364,NaN L148.8636,NaN L149.0909,NaN L149.3182,NaN L149.5455,NaN L149.7727,NaN L150,NaN L150.2273,NaN L150.4545,NaN L150.6818,NaN L150.9091,NaN L151.1364,NaN L151.3636,NaN L151.5909,NaN L151.8182,NaN L152.0455,NaN L152.2727,NaN L152.5,NaN L152.7273,NaN L152.9545,NaN L153.1818,NaN L153.4091,NaN L153.6364,NaN L153.8636,NaN L154.0909,NaN L154.3182,NaN L154.5455,NaN L154.7727,NaN L155,NaN L155.2273,NaN L155.4545,NaN L155.6818,NaN L155.9091,NaN L156.1364,NaN L156.3636,NaN L156.5909,NaN L156.8182,NaN L157.0455,NaN L157.2727,NaN L157.5,NaN L157.7273,NaN L157.9545,NaN L158.1818,NaN L158.4091,NaN L158.6364,NaN L158.8636,NaN L159.0909,NaN L159.3182,NaN L159.5455,NaN L159.7727,NaN L160,NaN L160.2273,NaN L160.4545,NaN L160.6818,NaN L160.9091,NaN L161.1364,NaN L161.3636,NaN L161.5909,NaN L161.8182,NaN L162.0455,NaN L162.2727,NaN L162.5,NaN L162.7273,NaN L162.9545,NaN L163.1818,NaN L163.4091,NaN L163.6364,NaN L163.8636,NaN L164.0909,NaN L164.3182,NaN L164.5455,NaN L164.7727,NaN L165,NaN L165.2273,NaN L165.4545,NaN L165.6818,NaN L165.9091,NaN L166.1364,NaN L166.3636,NaN L166.5909,NaN L166.8182,NaN L167.0455,NaN L167.2727,NaN L167.5,NaN L167.7273,NaN L167.9545,NaN L168.1818,NaN L168.4091,NaN L168.6364,NaN L168.8636,NaN L169.0909,NaN L169.3182,NaN L169.5455,NaN L169.7727,NaN L170,NaN L170.2273,NaN L170.4545,NaN L170.6818,NaN L170.9091,NaN L171.1364,NaN L171.3636,NaN L171.5909,NaN L171.8182,NaN L172.0455,NaN L172.2727,NaN L172.5,NaN L172.7273,NaN L172.9545,NaN L173.1818,NaN L173.4091,NaN L173.6364,NaN L173.8636,NaN L174.0909,NaN L174.3182,NaN L174.5455,NaN L174.7727,NaN L175,NaN L175.2273,NaN L175.4545,NaN L175.6818,NaN L175.9091,NaN L176.1364,NaN L176.3636,NaN L176.5909,NaN L176.8182,NaN L177.0455,NaN L177.2727,NaN L177.5,NaN L177.7273,NaN L177.9545,NaN L178.1818,NaN L178.4091,NaN L178.6364,NaN L178.8636,NaN L179.0909,NaN L179.3182,NaN L179.5455,NaN L179.7727,NaN L180,NaN L180.2273,NaN L180.4545,NaN L180.6818,NaN L180.9091,NaN L181.1364,NaN L181.3636,NaN L181.5909,NaN L181.8182,NaN L182.0455,NaN L182.2727,NaN L182.5,NaN L182.7273,NaN L182.9545,NaN L183.1818,NaN L183.4091,NaN L183.6364,NaN L183.8636,NaN L184.0909,NaN L184.3182,NaN L184.5455,NaN L184.7727,NaN L185,NaN L185.2273,NaN L185.4545,NaN L185.6818,NaN L185.9091,NaN L186.1364,NaN L186.3636,NaN L186.5909,NaN L186.8182,NaN L187.0455,NaN L187.2727,NaN L187.5,NaN L187.7273,NaN L187.9545,NaN L188.1818,NaN L188.4091,NaN L188.6364,NaN L188.8636,NaN L189.0909,NaN L189.3182,NaN L189.5455,NaN L189.7727,NaN L190,NaN L190.2273,NaN L190.4545,NaN L190.6818,NaN L190.9091,NaN L191.1364,NaN L191.3636,NaN L191.5909,NaN L191.8182,NaN L192.0455,NaN L192.2727,NaN L192.5,NaN L192.7273,NaN L192.9545,NaN L193.1818,NaN L193.4091,NaN L193.6364,NaN L193.8636,NaN L194.0909,NaN L194.3182,NaN L194.5455,NaN L194.7727,NaN L195,NaN L195.2273,NaN L195.4545,NaN L195.6818,NaN L195.9091,NaN L196.1364,NaN L196.3636,NaN L196.5909,NaN L196.8182,NaN L197.0455,NaN L197.2727,NaN L197.5,NaN L197.7273,NaN L197.9545,NaN L198.1818,NaN L198.4091,NaN L198.6364,NaN L198.8636,NaN L199.0909,NaN L199.3182,NaN L199.5455,NaN L199.7727,NaN L200,NaN " stroke="blue" fill="none" />
</svg>
