<svg width="800" height="600" xmlns="http://www.w3.org/2000/svg">
<text x="10" y="20" font-family="Arial" font-size="16" fill="black"> [DeepUnity] Training Session</text>
<text x="10" y="40" font-family="Arial" font-size="12" fill="black">Start: 3:02:46 PM, Saturday, August 26, 2023</text>
<text x="10" y="60" font-family="Arial" font-size="12" fill="black">End: 3:03:17 PM, Saturday, August 26, 2023</text>
<text x="10" y="80" font-family="Arial" font-size="12" fill="black">Real Training Time: 0 hrs : 0 min : 15 sec</text>
<text x="10" y="100" font-family="Arial" font-size="12" fill="black">Training Time: 13.59625</text>
<text x="10" y="120" font-family="Arial" font-size="12" fill="black">Iterations: 0</text>
<text x="10" y="140" font-family="Arial" font-size="12" fill="black">Parallel Agents: 0</text>
<text x="10" y="160" font-family="Arial" font-size="12" fill="black">Episode Reward</text>
<path d="M10,-1782.794 L210,-1782.794" stroke="gray" />
<text x="5" y="-1777.794" font-family="Arial" font-size="10" fill="black">0</text>
<text x="5" y="180" font-family="Arial" font-size="10" fill="black">-1.055</text>
<text x="5" y="380" font-family="Arial" font-size="10" fill="black">-1.1625</text>
<path d="M3.278688,180 L6.557377,184.6511 L9.836065,235.814 L13.11475,249.7674 L16.39344,221.8604 L19.67213,263.721 L22.95082,217.2093 L26.22951,226.5117 L29.5082,189.3023 L32.78688,193.9534 L36.06557,277.6743 L39.34426,310.2326 L42.62295,319.535 L45.90164,217.2093 L49.18033,240.465 L52.45901,203.2557 L55.73771,231.1627 L59.0164,212.558 L62.29508,254.4186 L65.57377,259.0697 L68.85246,310.2326 L72.13114,217.2093 L75.40984,240.465 L78.68852,366.0466 L81.96721,263.721 L85.2459,268.372 L88.52459,268.372 L91.80328,221.8604 L95.08197,240.465 L98.36066,226.5117 L101.6393,273.0233 L104.918,226.5117 L108.1967,380 L111.4754,296.279 L114.7541,217.2093 L118.0328,193.9534 L121.3115,249.7674 L124.5902,212.558 L127.8689,203.2557 L131.1475,235.814 L134.4262,235.814 L137.7049,221.8604 L140.9836,226.5117 L144.2623,277.6743 L147.541,221.8604 L150.8197,217.2093 L154.0984,240.465 L157.377,245.1163 L160.6557,240.465 L163.9344,198.6047 L167.2131,198.6047 L170.4918,198.6047 L173.7705,226.5117 L177.0492,245.1163 L180.3279,268.372 L183.6066,193.9534 L186.8853,268.372 L190.1639,286.9767 L193.4426,263.721 L196.7213,217.2093 L200,254.4186 " stroke="blue" fill="none" />
<text x="10" y="400" font-family="Arial" font-size="12" fill="black">Episode Length</text>
<path d="M10,726.9767 L210,726.9767" stroke="gray" />
<text x="5" y="731.9767" font-family="Arial" font-size="10" fill="black">0</text>
<text x="5" y="420" font-family="Arial" font-size="10" fill="black">66</text>
<text x="5" y="620" font-family="Arial" font-size="10" fill="black">23</text>
<path d="M3.278688,620 L6.557377,615.3488 L9.836065,564.186 L13.11475,550.2325 L16.39344,578.1395 L19.67213,536.2791 L22.95082,582.7907 L26.22951,573.4883 L29.5082,610.6977 L32.78688,606.0465 L36.06557,522.3256 L39.34426,489.7675 L42.62295,480.4651 L45.90164,582.7907 L49.18033,559.5349 L52.45901,596.7442 L55.73771,568.8372 L59.0164,587.4418 L62.29508,545.5814 L65.57377,540.9302 L68.85246,489.7675 L72.13114,582.7907 L75.40984,559.5349 L78.68852,433.9535 L81.96721,536.2791 L85.2459,531.6279 L88.52459,531.6279 L91.80328,578.1395 L95.08197,559.5349 L98.36066,573.4883 L101.6393,526.9767 L104.918,573.4883 L108.1967,420 L111.4754,503.7209 L114.7541,582.7907 L118.0328,606.0465 L121.3115,550.2325 L124.5902,587.4418 L127.8689,596.7442 L131.1475,564.186 L134.4262,564.186 L137.7049,578.1395 L140.9836,573.4883 L144.2623,522.3256 L147.541,578.1395 L150.8197,582.7907 L154.0984,559.5349 L157.377,554.8837 L160.6557,559.5349 L163.9344,601.3953 L167.2131,601.3953 L170.4918,601.3953 L173.7705,573.4883 L177.0492,554.8837 L180.3279,531.6279 L183.6066,606.0465 L186.8853,531.6279 L190.1639,513.0233 L193.4426,536.2791 L196.7213,582.7907 L200,545.5814 " stroke="blue" fill="none" />
</svg>
