<svg width="800" height="600" xmlns="http://www.w3.org/2000/svg">
<text x="10" y="20" font-family="Arial" font-size="16" fill="black"> [DeepUnity] Training Session</text>
<text x="10" y="40" font-family="Arial" font-size="12" fill="black">Start: 3:05:38 PM, Saturday, August 26, 2023</text>
<text x="10" y="60" font-family="Arial" font-size="12" fill="black">End: 3:22:27 PM, Saturday, August 26, 2023</text>
<text x="10" y="80" font-family="Arial" font-size="12" fill="black">Real Training Time: 0 hrs : 17 min : 1009 sec</text>
<text x="10" y="100" font-family="Arial" font-size="12" fill="black">Training Time: 523.1819</text>
<text x="10" y="120" font-family="Arial" font-size="12" fill="black">Iterations: 6</text>
<text x="10" y="140" font-family="Arial" font-size="12" fill="black">Parallel Agents: 5</text>
<text x="10" y="160" font-family="Arial" font-size="12" fill="black">Episode Reward</text>
<path d="M10,234.9474 L210,234.9474" stroke="gray" />
<text x="5" y="239.9474" font-family="Arial" font-size="10" fill="black">0</text>
<text x="5" y="180" font-family="Arial" font-size="10" fill="black">0.8850001</text>
<text x="5" y="380" font-family="Arial" font-size="10" fill="black">-2.336265</text>
<path d="M0.3350084,301.769 L0.6700168,303.7092 L1.005025,301.2257 L1.340034,303.3987 L1.675042,306.9688 L2.01005,306.1151 L2.345059,305.1837 L2.680067,309.8403 L3.015075,305.6494 L3.350084,304.0196 L3.685092,304.4077 L4.020101,308.5986 L4.355109,307.3568 L4.690117,306.1151 L5.025126,310.8492 L5.360134,304.0972 L5.695142,303.0107 L6.030151,308.4433 L6.365159,307.2792 L6.700168,305.6494 L7.035176,305.8822 L7.370184,305.339 L7.705192,306.0374 L8.040201,303.554 L8.37521,308.7538 L8.710217,305.9598 L9.045226,304.2524 L9.380235,304.4077 L9.715242,304.4853 L10.05025,303.3211 L10.38526,304.0972 L10.72027,308.8314 L11.05528,302.7003 L11.39028,306.7359 L11.72529,302.9331 L12.0603,308.7538 L12.39531,303.7092 L12.73032,303.6316 L13.06533,304.1748 L13.40034,304.1748 L13.73534,303.554 L14.07035,306.2703 L14.40536,304.7957 L14.74037,308.8314 L15.07538,304.7957 L15.41038,306.8135 L15.74539,303.7868 L16.0804,303.7092 L16.41541,304.7957 L16.75042,303.2435 L17.08543,303.0107 L17.42043,304.7181 L17.75544,307.9001 L18.09045,306.4255 L18.42546,306.2703 L18.76047,310.8492 L19.09548,303.7868 L19.43048,304.7957 L19.7655,303.1659 L20.1005,303.554 L20.43551,307.4344 L20.77052,305.8046 L21.10553,302.6227 L21.44054,303.3211 L21.77554,304.5629 L22.11055,308.2881 L22.44556,306.1927 L22.78057,305.1061 L23.11558,308.521 L23.45059,306.3479 L23.78559,307.3568 L24.1206,303.4763 L24.45561,307.2016 L24.79062,307.512 L25.12563,305.8046 L25.46064,303.1659 L25.79564,303.554 L26.13065,305.5718 L26.46566,314.0312 L26.80067,307.3568 L27.13568,308.2105 L27.47069,302.4674 L27.80569,302.6227 L28.1407,304.8733 L28.47571,313.0999 L28.81072,303.2435 L29.14573,306.1927 L29.48074,304.6405 L29.81575,307.2792 L30.15075,303.554 L30.48576,302.3898 L30.82077,307.124 L31.15578,303.8644 L31.49079,306.1927 L31.8258,303.0883 L32.1608,305.727 L32.49581,309.2971 L32.83082,309.2194 L33.16583,306.5031 L33.50084,319.3086 L33.83585,303.4763 L34.17085,310.2284 L34.50586,302.0794 L34.84087,311.1597 L35.17588,311.0045 L35.51089,308.3657 L35.8459,311.4701 L36.1809,313.1775 L36.51591,302.545 L36.85092,311.1597 L37.18593,303.554 L37.52094,305.4942 L37.85595,309.4522 L38.19096,305.4166 L38.52596,305.8046 L38.86097,304.9509 L39.19598,302.4674 L39.53099,303.2435 L39.866,244.4933 L40.201,304.4853 L40.53601,305.4166 L40.87102,306.4255 L41.20603,306.5031 L41.54104,311.4701 L41.87605,304.0972 L42.21106,302.0794 L42.54606,303.4763 L42.88107,307.2792 L43.21608,310.7716 L43.55109,309.6075 L43.8861,303.8644 L44.22111,303.554 L44.55611,307.8225 L44.89112,307.8225 L45.22613,306.8135 L45.56114,328.0009 L45.89615,305.727 L46.23116,302.157 L46.56617,303.554 L46.90117,305.6494 L47.23618,307.9001 L47.57119,312.0134 L47.9062,302.9331 L48.24121,305.8046 L48.57621,306.4255 L48.91122,305.1837 L49.24623,303.942 L49.58124,310.694 L49.91625,302.2346 L50.25126,302.3122 L50.58627,305.8822 L50.92127,302.545 L51.25628,304.7181 L51.59129,309.7627 L51.9263,306.7359 L52.26131,302.7003 L52.59631,311.7029 L52.93132,310.4612 L53.26633,305.5718 L53.60134,306.5807 L53.93635,305.4166 L54.27136,307.6672 L54.60637,303.7868 L54.94138,306.8135 L55.27638,307.0464 L55.61139,309.0642 L55.9464,302.3898 L56.28141,305.5718 L56.61641,306.0374 L56.95142,305.0285 L57.28643,306.7359 L57.62144,302.6227 L57.95645,303.3211 L58.29146,306.2703 L58.62647,309.2194 L58.96148,309.2971 L59.29648,315.4282 L59.63149,306.3479 L59.9665,306.8911 L60.30151,312.091 L60.63651,310.694 L60.97152,313.0999 L61.30653,315.661 L61.64154,248.2962 L61.97655,307.0464 L62.31156,252.099 L62.64657,310.9268 L62.98158,307.4344 L63.31658,316.049 L63.65159,310.694 L63.9866,312.091 L64.32161,306.1927 L64.65662,313.5656 L64.99162,313.4879 L65.32663,307.512 L65.66164,312.6342 L65.99665,309.3747 L66.33166,311.1597 L66.66667,306.5807 L67.00168,317.058 L67.33669,316.1266 L67.67169,311.6253 L68.0067,307.8225 L68.34171,253.2631 L68.67672,316.8251 L69.01173,185.1222 L69.34673,303.6316 L69.68174,312.5566 L70.01675,307.2792 L70.35176,312.479 L70.68677,261.7225 L71.02177,312.7119 L71.35679,327.0695 L71.6918,307.2016 L72.0268,311.0821 L72.36181,304.4077 L72.69682,304.2524 L73.03182,317.1356 L73.36684,310.306 L73.70184,305.1061 L74.03685,246.8992 L74.37186,259.8599 L74.70687,303.2435 L75.04188,310.7716 L75.37688,313.6432 L75.71189,312.5566 L76.04691,316.2043 L76.38191,313.6432 L76.71692,318.2997 L77.05193,316.7475 L77.38693,310.4612 L77.72194,306.3479 L78.05695,245.5022 L78.39196,325.595 L78.72697,311.1597 L79.06198,263.43 L79.39699,311.2373 L79.73199,317.5236 L80.067,310.5388 L80.40201,342.3586 L80.73701,302.9331 L81.07203,311.0045 L81.40704,314.264 L81.74204,311.0821 L82.07705,316.4371 L82.41206,307.9001 L82.74706,327.6904 L83.08208,248.2962 L83.41709,308.2881 L83.7521,317.7564 L84.0871,254.8929 L84.42211,305.1061 L84.75712,308.2105 L85.09212,307.2016 L85.42713,247.2096 L85.76215,305.339 L86.09715,250.7796 L86.43216,246.8216 L86.76717,309.8403 L87.10217,310.7716 L87.43719,309.9179 L87.77219,315.2729 L88.10721,314.8849 L88.44221,307.9001 L88.77722,313.6432 L89.11223,312.479 L89.44724,306.3479 L89.78224,315.1953 L90.11725,305.0285 L90.45226,186.5968 L90.78727,315.3506 L91.12228,311.7805 L91.45728,307.0464 L91.7923,316.2819 L92.1273,305.5718 L92.46231,337.2364 L92.79732,310.1507 L93.13233,305.1837 L93.46734,324.6637 L93.80235,308.6762 L94.13735,304.6405 L94.47236,306.3479 L94.80737,306.8911 L95.14238,314.8849 L95.47739,258.3077 L95.8124,314.7297 L96.14741,252.1766 L96.48241,313.876 L96.81742,245.8903 L97.15243,313.2551 L97.48743,315.5058 L97.82245,346.1617 L98.15746,316.8251 L98.49246,280.7369 L98.82747,324.7413 L99.16248,316.2819 L99.49748,253.2631 L99.8325,317.2908 L100.1675,331.5709 L100.5025,339.6424 L100.8375,327.9232 L101.1725,212.4407 L101.5075,313.4103 L101.8425,320.7832 L102.1776,265.8358 L102.5126,328.0009 L102.8476,364.7101 L103.1826,330.95 L103.5176,252.0214 L103.8526,311.3149 L104.1876,252.8751 L104.5226,256.6779 L104.8576,254.2721 L105.1926,261.1017 L105.5276,255.669 L105.8626,255.2034 L106.1977,245.4246 L106.5327,306.3479 L106.8677,248.0633 L107.2027,200.4112 L107.5377,251.5557 L107.8727,261.1017 L108.2077,322.4906 L108.5427,307.0464 L108.8777,280.9697 L109.2127,324.2756 L109.5477,328.0785 L109.8828,272.1222 L110.2178,341.272 L110.5528,327.0695 L110.8878,258.1525 L111.2228,252.487 L111.5578,336.6931 L111.8928,331.5709 L112.2278,330.6396 L112.5628,329.553 L112.8978,252.4094 L113.2328,322.2578 L113.5678,248.7618 L113.9028,249.2275 L114.2379,306.8911 L114.5729,324.7413 L114.9079,305.5719 L115.2429,313.876 L115.5779,318.0669 L115.9129,255.0482 L116.2479,333.7439 L116.5829,261.9554 L116.9179,191.719 L117.2529,267.0776 L117.5879,327.6128 L117.923,309.5299 L118.2579,241.8546 L118.593,204.2917 L118.928,257.7645 L119.263,269.4059 L119.598,252.9527 L119.933,186.8296 L120.268,324.7413 L120.603,185.7431 L120.938,255.1258 L121.273,261.8778 L121.608,243.4844 L121.943,259.0838 L122.2781,256.9884 L122.6131,260.7912 L122.9481,196.1427 L123.2831,332.9678 L123.6181,321.7921 L123.9531,250.5468 L124.2881,329.9411 L124.6231,332.8902 L124.9581,351.2061 L125.2931,199.7903 L125.6281,255.669 L125.9632,252.9527 L126.2982,259.3167 L126.6332,262.3434 L126.9682,272.5878 L127.3032,251.9438 L127.6382,264.5941 L127.9732,288.8085 L128.3082,249.8483 L128.6432,326.7591 L128.9782,315.1953 L129.3132,255.5138 L129.6482,247.2096 L129.9832,242.01 L130.3183,380 L130.6533,271.8893 L130.9883,270.8028 L131.3233,250.702 L131.6583,265.9135 L131.9933,262.9643 L132.3283,312.9447 L132.6633,199.7127 L132.9983,256.6003 L133.3333,312.5566 L133.6683,252.8751 L134.0034,291.7576 L134.3383,190.0116 L134.6734,198.0053 L135.0084,250.8573 L135.3434,273.2087 L135.6784,190.9429 L136.0134,287.1786 L136.3484,263.8956 L136.6834,263.2747 L137.0184,265.5254 L137.3534,200.4888 L137.6884,189.934 L138.0235,186.364 L138.3585,273.0535 L138.6935,209.2587 L139.0285,313.6432 L139.3635,345.0749 L139.6985,248.3738 L140.0335,191.4862 L140.3685,254.9705 L140.7035,279.0295 L141.0385,297.4234 L141.3735,183.3372 L141.7085,189.934 L142.0435,245.4246 L142.3786,247.2096 L142.7136,263.5852 L143.0486,307.6672 L143.3836,189.5459 L143.7186,186.8296 L144.0536,263.7404 L144.3886,265.2926 L144.7236,242.8635 L145.0586,252.0214 L145.3936,253.1079 L145.7287,193.9697 L146.0636,185.1222 L146.3987,265.1374 L146.7337,190.6325 L147.0687,190.1668 L147.4037,186.8296 L147.7387,193.3488 L148.0737,254.1168 L148.4087,201.8082 L148.7437,185.1222 L149.0787,184.8894 L149.4137,270.4924 L149.7487,186.0535 L150.0838,191.0205 L150.4188,251.3229 L150.7538,246.6664 L151.0888,245.1142 L151.4238,188.9251 L151.7588,185.7431 L152.0938,259.7047 L152.4288,194.9786 L152.7638,279.7279 L153.0988,195.289 L153.4338,193.4264 L153.7688,190.7101 L154.1039,218.3389 L154.4389,190.8653 L154.7739,205.0678 L155.1089,186.5968 L155.4439,218.1063 L155.7789,260.5584 L156.1139,249.2275 L156.4489,181.8626 L156.7839,190.1668 L157.1189,189.4683 L157.4539,269.173 L157.7889,258.0749 L158.124,267.6985 L158.459,186.5192 L158.794,207.3184 L159.129,282.4443 L159.464,250.314 L159.799,261.7225 L160.134,191.9518 L160.469,278.1759 L160.804,196.6084 L161.139,186.8296 L161.474,196.2979 L161.8091,255.9795 L162.1441,260.8688 L162.4791,184.3461 L162.8141,252.1766 L163.1491,250.1588 L163.4841,183.9581 L163.8191,183.4148 L164.1541,247.2872 L164.4891,248.1409 L164.8241,246.3559 L165.1591,188.0714 L165.4941,196.5308 L165.8291,188.4594 L166.1642,184.5789 L166.4992,271.0356 L166.8342,185.5879 L167.1692,191.4086 L167.5042,188.0714 L167.8392,180.4657 L168.1742,319.231 L168.5092,308.9866 L168.8442,194.5905 L169.1792,186.5192 L169.5142,318.2997 L169.8492,334.4424 L170.1842,184.0357 L170.5193,180.6209 L170.8543,186.6744 L171.1893,181.5522 L171.5243,189.7788 L171.8593,183.7252 L172.1943,180.6209 L172.5293,201.4201 L172.8643,181.2417 L173.1993,182.6387 L173.5343,307.7448 L173.8694,182.3283 L174.2043,180 L174.5394,185.1222 L174.8744,308.521 L175.2094,184.1909 L175.5444,184.6566 L175.8794,200.4888 L176.2144,312.091 L176.5494,314.264 L176.8844,184.5013 L177.2194,184.967 L177.5544,182.3283 L177.8894,186.2087 L178.2245,201.2649 L178.5595,243.3293 L178.8945,182.173 L179.2295,314.7297 L179.5645,184.1909 L179.8995,189.4683 L180.2345,185.5879 L180.5695,320.9384 L180.9045,185.2774 L181.2395,180.7761 L181.5745,347.3256 L181.9095,317.6788 L182.2446,318.6101 L182.5796,192.2623 L182.9146,182.6387 L183.2496,312.8671 L183.5846,188.6922 L183.9196,184.1909 L184.2546,308.9866 L184.5896,342.8242 L184.9246,213.5272 L185.2596,317.5236 L185.5946,185.4326 L185.9296,185.2774 L186.2647,186.2087 L186.5997,207.7841 L186.9347,313.6432 L187.2697,223.7716 L187.6047,187.6057 L187.9397,202.9723 L188.2747,224.5477 L188.6097,189.0027 L188.9447,190.0892 L189.2797,186.9848 L189.6147,320.628 L189.9498,336.3051 L190.2848,190.0892 L190.6198,192.4175 L190.9548,188.0714 L191.2898,349.9643 L191.6248,189.6236 L191.9598,184.1909 L192.2948,185.8983 L192.6298,211.0437 L192.9648,183.2596 L193.2998,190.2444 L193.6348,189.3131 L193.9698,181.5522 L194.3049,197.074 L194.6399,186.8296 L194.9749,367.6594 L195.3099,190.7101 L195.6449,190.5549 L195.9799,185.5879 L196.3149,188.0714 L196.6499,188.8474 L196.9849,304.7957 L197.3199,180.9313 L197.6549,368.2802 L197.99,374.1787 L198.325,321.4041 L198.66,321.7145 L198.995,182.6387 L199.33,188.3818 L199.665,183.1044 L200,183.8805 " stroke="blue" fill="none" />
<text x="10" y="400" font-family="Arial" font-size="12" fill="black">Episode Length</text>
<path d="M10,631.0128 L210,631.0128" stroke="gray" />
<text x="5" y="636.0128" font-family="Arial" font-size="10" fill="black">0</text>
<text x="5" y="420" font-family="Arial" font-size="10" fill="black">536.5</text>
<text x="5" y="620" font-family="Arial" font-size="10" fill="black">28</text>
<path d="M0.3350084,618.6234 L0.6700168,613.707 L1.005025,620 L1.340034,614.4936 L1.675042,605.4474 L2.01005,607.6106 L2.345059,609.9705 L2.680067,598.1711 L3.015075,608.7906 L3.350084,612.9203 L3.685092,611.9371 L4.020101,601.3176 L4.355109,604.4641 L4.690117,607.2173 L5.025126,595.6146 L5.360134,612.7237 L5.695142,615.4769 L6.030151,601.7109 L6.365159,604.6608 L6.700168,608.7906 L7.035176,608.2006 L7.370184,609.5772 L7.705192,607.8073 L8.040201,614.1003 L8.37521,600.9243 L8.710217,608.0039 L9.045226,612.3304 L9.380235,611.9371 L9.715242,611.7404 L10.05025,614.6902 L10.38526,612.7237 L10.72027,600.7276 L11.05528,616.2635 L11.39028,606.0374 L11.72529,615.6735 L12.0603,600.9243 L12.39531,613.707 L12.73032,613.9036 L13.06533,612.527 L13.40034,612.527 L13.73534,614.1003 L14.07035,607.2173 L14.40536,610.9538 L14.74037,600.7276 L15.07538,610.9538 L15.41038,605.8407 L15.74539,613.5103 L16.0804,613.707 L16.41541,610.9538 L16.75042,614.8869 L17.08543,615.4769 L17.42043,611.1505 L17.75544,603.0875 L18.09045,606.824 L18.42546,607.2173 L18.76047,595.6146 L19.09548,613.5103 L19.43048,610.9538 L19.7655,615.0836 L20.1005,614.1003 L20.43551,604.2675 L20.77052,608.3972 L21.10553,616.4602 L21.44054,614.6902 L21.77554,611.5438 L22.11055,602.1042 L22.44556,607.4139 L22.78057,610.1672 L23.11558,601.5143 L23.45059,607.0206 L23.78559,604.4641 L24.1206,614.2969 L24.45561,604.8574 L24.79062,604.0708 L25.12563,608.3972 L25.46064,615.0836 L25.79564,614.1003 L26.13065,608.9872 L26.46566,587.5516 L26.80067,604.4641 L27.13568,602.3009 L27.47069,616.8535 L27.80569,616.4602 L28.1407,610.7571 L28.47571,589.9115 L28.81072,614.8869 L29.14573,607.4139 L29.48074,611.3471 L29.81575,604.6608 L30.15075,614.1003 L30.48576,617.0502 L30.82077,605.0541 L31.15578,613.3137 L31.49079,607.4139 L31.8258,615.2802 L32.1608,608.5939 L32.49581,599.5477 L32.83082,599.7443 L33.16583,606.6273 L33.50084,574.179 L33.83585,614.2969 L34.17085,597.1878 L34.50586,617.8368 L34.84087,594.4346 L35.17588,595.2213 L35.51089,601.9076 L35.8459,594.0413 L36.1809,589.7148 L36.51591,616.6569 L36.85092,594.8279 L37.18593,614.1003 L37.52094,609.1839 L37.85595,599.1544 L38.19096,609.3806 L38.52596,608.3972 L38.86097,610.5605 L39.19598,616.8535 L39.53099,614.8869 L39.866,606.234 L40.201,611.7404 L40.53601,609.3806 L40.87102,606.824 L41.20603,606.6273 L41.54104,594.0413 L41.87605,612.7237 L42.21106,617.8368 L42.54606,614.2969 L42.88107,604.4641 L43.21608,595.8112 L43.55109,598.761 L43.8861,613.3137 L44.22111,614.1003 L44.55611,603.2842 L44.89112,603.2842 L45.22613,605.8407 L45.56114,552.1534 L45.89615,608.5939 L46.23116,617.6401 L46.56617,614.1003 L46.90117,608.7906 L47.23618,603.0875 L47.57119,592.6647 L47.9062,615.6735 L48.24121,608.3972 L48.57621,606.824 L48.91122,609.9705 L49.24623,613.117 L49.58124,596.0079 L49.91625,617.4435 L50.25126,617.2468 L50.58627,608.2006 L50.92127,616.6569 L51.25628,611.1505 L51.59129,598.3677 L51.9263,606.0374 L52.26131,616.2635 L52.59631,593.4514 L52.93132,596.5978 L53.26633,608.9872 L53.60134,606.4307 L53.93635,609.3806 L54.27136,603.6775 L54.60637,613.5103 L54.94138,605.8407 L55.27638,605.2507 L55.61139,600.1376 L55.9464,617.0502 L56.28141,608.9872 L56.61641,607.8073 L56.95142,610.3638 L57.28643,606.0374 L57.62144,616.4602 L57.95645,614.6902 L58.29146,607.2173 L58.62647,599.7443 L58.96148,599.5477 L59.29648,584.0118 L59.63149,607.0206 L59.9665,605.644 L60.30151,592.468 L60.63651,596.0079 L60.97152,589.9115 L61.30653,583.4218 L61.64154,596.5978 L61.97655,605.2507 L62.31156,586.5684 L62.64657,595.4179 L62.98158,604.2675 L63.31658,582.4385 L63.65159,596.0079 L63.9866,592.468 L64.32161,607.4139 L64.65662,588.1416 L64.99162,588.9282 L65.32663,604.0708 L65.66164,591.0914 L65.99665,599.351 L66.33166,594.8279 L66.66667,606.4307 L67.00168,579.882 L67.33669,582.2419 L67.67169,593.648 L68.0067,603.2842 L68.34171,584.0118 L68.67672,580.472 L69.01173,598.3677 L69.34673,613.9036 L69.68174,591.2881 L70.01675,604.6608 L70.35176,591.4847 L70.68677,561.7896 L71.02177,590.8948 L71.35679,553.9233 L71.6918,604.8574 L72.0268,595.0246 L72.36181,611.9371 L72.69682,612.3304 L73.03182,579.2921 L73.36684,596.9911 L73.70184,610.1672 L74.03685,599.351 L74.37186,566.5093 L74.70687,614.8869 L75.04188,595.8112 L75.37688,588.5349 L75.71189,591.2881 L76.04691,581.6519 L76.38191,588.3383 L76.71692,576.7355 L77.05193,580.6686 L77.38693,596.5978 L77.72194,607.0206 L78.05695,603.0875 L78.39196,557.4631 L78.72697,594.8279 L79.06198,557.2665 L79.39699,594.6313 L79.73199,578.7021 L80.067,596.4012 L80.40201,594.4346 L80.73701,615.6735 L81.07203,595.2213 L81.40704,586.5684 L81.74204,595.0246 L82.07705,581.4553 L82.41206,603.0875 L82.74706,552.1534 L83.08208,596.5978 L83.41709,602.1042 L83.7521,578.1121 L84.0871,579.2921 L84.42211,610.1672 L84.75712,602.3009 L85.09212,604.6608 L85.42713,598.761 L85.76215,609.5772 L86.09715,590.1082 L86.43216,600.3343 L86.76717,597.7778 L87.10217,595.8112 L87.43719,597.9744 L87.77219,584.2084 L88.10721,585.3884 L88.44221,603.0875 L88.77722,588.5349 L89.11223,591.2881 L89.44724,607.0206 L89.78224,584.4051 L90.11725,610.3638 L90.45226,595.2213 L90.78727,584.2084 L91.12228,593.2547 L91.45728,605.2507 L91.7923,581.4553 L92.1273,608.9872 L92.46231,607.4139 L92.79732,597.3845 L93.13233,609.9705 L93.46734,560.6096 L93.80235,600.9243 L94.13735,611.3471 L94.47236,607.0206 L94.80737,605.644 L95.14238,585.3884 L95.47739,571.0325 L95.8124,585.7817 L96.14741,586.765 L96.48241,587.9449 L96.81742,602.4976 L97.15243,589.5182 L97.48743,583.8151 L97.82245,504.3658 L98.15746,580.472 L98.49246,513.2153 L98.82747,560.0197 L99.16248,581.8486 L99.49748,584.0118 L99.8325,579.2921 L100.1675,543.1072 L100.5025,522.6548 L100.8375,551.5634 L101.1725,528.1613 L101.5075,588.9282 L101.8425,570.4425 L102.1776,551.9567 L102.5126,552.1534 L102.8476,537.6008 L103.1826,544.0905 L103.5176,586.9617 L103.8526,594.4346 L104.1876,584.7984 L104.5226,574.3756 L104.8576,580.8653 L105.1926,563.9528 L105.5276,576.5388 L105.8626,578.5054 L106.1977,603.6775 L106.5327,607.0206 L106.8677,596.9911 L107.2027,559.823 L107.5377,587.7483 L107.8727,563.5595 L108.2077,565.9194 L108.5427,605.2507 L108.8777,510.6588 L109.2127,561.5929 L109.5477,551.5634 L109.8828,536.0275 L110.2178,517.9351 L110.5528,554.5132 L110.8878,571.4258 L111.2228,584.7984 L111.5578,528.9479 L111.8928,542.1239 L112.2278,544.8771 L112.5628,548.2203 L112.8978,585.9784 L113.2328,566.706 L113.5678,595.2213 L113.9028,594.0413 L114.2379,605.644 L114.5729,559.4297 L114.9079,449.4985 L115.2429,587.9449 L115.5779,576.1455 L115.9129,578.7021 L116.2479,537.4041 L116.5829,561.3962 L116.9179,581.4553 L117.2529,548.6136 L117.5879,552.7433 L117.923,598.9577 L118.2579,612.527 L118.593,549.0069 L118.928,572.2124 L119.263,542.1239 L119.598,584.6017 L119.933,594.4346 L120.268,560.413 L120.603,596.9911 L120.938,578.7021 L121.273,559.6263 L121.608,608.3972 L121.943,569.0659 L122.2781,574.179 L122.6131,563.3629 L122.9481,569.8525 L123.2831,537.2075 L123.6181,567.8859 L123.9531,590.5015 L124.2881,545.467 L124.6231,539.5674 L124.9581,491.9764 L125.2931,561.1996 L125.6281,577.3254 L125.9632,584.7984 L126.2982,567.6893 L126.6332,560.2163 L126.9682,533.6677 L127.3032,586.175 L127.6382,554.71 L127.9732,492.5664 L128.3082,591.6814 L128.6432,555.1033 L128.9782,584.6017 L129.3132,577.7188 L129.6482,599.1544 L129.9832,451.8584 L130.3183,420 L130.6533,536.0275 L130.9883,537.7974 L131.3233,589.9115 L131.6583,551.7601 L131.9933,558.8397 L132.3283,589.9115 L132.6633,560.8063 L132.9983,574.179 L133.3333,590.6981 L133.6683,584.9951 L134.0034,484.3068 L134.3383,585.7817 L134.6734,566.3127 L135.0084,589.9115 L135.3434,531.8978 L135.6784,584.0118 L136.0134,496.8928 L136.3484,556.6765 L136.6834,557.6598 L137.0184,551.3668 L137.3534,558.8397 L137.6884,585.7817 L138.0235,594.8279 L138.3585,533.0777 L138.6935,537.0108 L139.0285,587.9449 L139.3635,508.1023 L139.6985,595.6146 L140.0335,582.8318 L140.3685,578.7021 L140.7035,517.9351 L141.0385,471.3274 L141.3735,603.4808 L141.7085,585.9784 L142.0435,603.6775 L142.3786,598.9577 L142.7136,557.0698 L143.0486,603.6775 L143.3836,587.5516 L143.7186,594.4346 L144.0536,555.8899 L144.3886,553.1367 L144.7236,610.3638 L145.0586,586.3717 L145.3936,584.0118 L145.7287,575.5555 L146.0636,598.3677 L146.3987,552.5467 L146.7337,584.2084 L147.0687,585.1917 L147.4037,594.4346 L147.7387,577.3254 L148.0737,581.062 L148.4087,554.5132 L148.7437,598.1711 L149.0787,599.1544 L149.4137,540.1573 L149.7487,596.5978 L150.0838,584.0118 L150.4188,588.1416 L150.7538,600.3343 L151.0888,603.8741 L151.4238,588.9282 L151.7588,597.1878 L152.0938,567.4926 L152.4288,573.7856 L152.7638,514.9852 L153.0988,572.8024 L153.4338,576.9321 L153.7688,584.2084 L154.1039,512.822 L154.4389,584.2084 L154.7739,546.2537 L155.1089,594.4346 L155.4439,514.9852 L155.7789,565.3294 L156.1139,594.0413 L156.4489,607.0206 L156.7839,586.175 L157.1189,587.5516 L157.4539,543.1072 L157.7889,571.0325 L158.124,545.0737 L158.459,595.2213 L158.794,541.5339 L159.129,508.1023 L159.464,591.0914 L159.799,562.1829 L160.134,580.472 L160.469,520.6883 L160.804,568.8692 L161.139,594.0413 L161.474,568.6725 L161.8091,577.1288 L162.1441,563.9528 L162.4791,600.7276 L162.8141,586.3717 L163.1491,591.8781 L163.4841,601.121 L163.8191,602.8909 L164.1541,598.1711 L164.4891,596.7945 L164.8241,601.121 L165.1591,591.2881 L165.4941,568.8692 L165.8291,590.3048 L166.1642,599.941 L166.4992,538.1907 L166.8342,597.3845 L167.1692,582.8318 L167.5042,591.6814 L167.8392,610.5605 L168.1742,573.1957 L168.5092,599.1544 L168.8442,573.9823 L169.1792,594.4346 L169.5142,575.5555 L169.8492,535.0443 L170.1842,601.5143 L170.5193,610.1672 L170.8543,595.2213 L171.1893,608.2006 L171.5243,586.9617 L171.8593,601.121 L172.1943,610.5605 L172.5293,557.4631 L172.8643,608.9872 L173.1993,605.4474 L173.5343,603.4808 L173.8694,605.4474 L174.2043,611.7404 L174.5394,598.761 L174.8744,601.5143 L175.2094,601.121 L175.5444,599.941 L175.8794,559.0364 L176.2144,591.6814 L176.5494,586.175 L176.8844,599.5477 L177.2194,599.1544 L177.5544,605.8407 L177.8894,596.0079 L178.2245,557.4631 L178.5595,450.4818 L178.8945,606.234 L179.2295,585.7817 L179.5645,600.7276 L179.8995,587.355 L180.2345,596.7945 L180.5695,568.4759 L180.9045,597.9744 L181.2395,610.1672 L181.5745,502.0059 L181.9095,576.7355 L182.2446,575.5555 L182.5796,580.6686 L182.9146,604.6608 L183.2496,590.1082 L183.5846,590.1082 L183.9196,601.121 L184.2546,600.3343 L184.5896,511.0521 L184.9246,526.3914 L185.2596,577.9155 L185.5946,597.5811 L185.9296,597.5811 L186.2647,596.0079 L186.5997,540.1573 L186.9347,586.175 L187.2697,499.2527 L187.6047,592.0747 L187.9397,553.53 L188.2747,498.4661 L188.6097,588.5349 L188.9447,586.175 L189.2797,594.4346 L189.6147,570.8358 L189.9498,529.9312 L190.2848,585.7817 L190.6198,579.882 L190.9548,591.2881 L191.2898,493.353 L191.6248,587.355 L191.9598,600.3343 L192.2948,594.8279 L192.6298,533.0777 L192.9648,603.4808 L193.2998,586.175 L193.6348,586.9617 L193.9698,607.8073 L194.3049,568.8692 L194.6399,594.0413 L194.9749,448.9086 L195.3099,583.8151 L195.6449,584.6017 L195.9799,597.9744 L196.3149,590.5015 L196.6499,589.7148 L196.9849,610.9538 L197.3199,609.7739 L197.6549,450.0885 L197.99,433.5693 L198.325,565.7227 L198.66,568.0826 L198.995,604.2675 L199.33,590.8948 L199.665,603.8741 L200,601.121 " stroke="blue" fill="none" />
<text x="10" y="640" font-family="Arial" font-size="12" fill="black">Policy Loss</text>
<path d="M10,949.1381 L210,949.1381" stroke="gray" />
<text x="5" y="954.1381" font-family="Arial" font-size="10" fill="black">0</text>
<text x="5" y="660" font-family="Arial" font-size="10" fill="black">0.004553057</text>
<text x="5" y="860" font-family="Arial" font-size="10" fill="black">0.001403657</text>
<path d="M0.8333334,707.1574 L1.666667,806.8088 L2.5,685.1332 L3.333333,712.3961 L4.166667,755.3437 L5,712.2474 L5.833333,776.6661 L6.666667,827.3515 L7.5,767.7993 L8.333334,726.798 L9.166667,759.1277 L10,707.111 L10.83333,804.0551 L11.66667,759.9899 L12.5,730.2505 L13.33333,744.6578 L14.16667,750.6727 L15,695.7728 L15.83333,762.1639 L16.66667,761.7721 L17.5,794.0751 L18.33333,776.8524 L19.16667,788.3178 L20,714.4835 L20.83333,804.9592 L21.66667,739.0213 L22.5,721.3452 L23.33333,712.6762 L24.16667,785.019 L25,721.0883 L25.83333,765.3172 L26.66667,761.262 L27.5,738.661 L28.33333,660 L29.16667,733.288 L30,804.7329 L30.83333,805.2761 L31.66667,769.0304 L32.5,735.155 L33.33334,756.6058 L34.16667,825.4868 L35,736.054 L35.83333,731.2574 L36.66667,691.2137 L37.5,805.7968 L38.33333,798.0822 L39.16667,846.3347 L40,761.3274 L40.83333,715.7048 L41.66666,773.9478 L42.5,774.2561 L43.33333,738.2604 L44.16667,673.6892 L45,724.5866 L45.83334,707.3592 L46.66667,745.8395 L47.5,763.3914 L48.33333,791.5887 L49.16667,756.5872 L50,826.2744 L50.83333,735.4948 L51.66666,825.8203 L52.5,740.2627 L53.33334,797.5035 L54.16667,700.5831 L55,711.4023 L55.83333,779.4531 L56.66667,751.0581 L57.5,789.442 L58.33333,812.4025 L59.16666,787.0906 L60,761.8256 L60.83334,740.2924 L61.66667,822.7509 L62.5,759.9866 L63.33333,695.7966 L64.16666,799.9487 L65,790.2604 L65.83334,701.2477 L66.66667,765.7413 L67.5,700.8283 L68.33334,775.4147 L69.16666,767.576 L70,768.0352 L70.83333,712.5002 L71.66666,731.3423 L72.5,749.1993 L73.33334,746.6022 L74.16666,741.7465 L75,737.9622 L75.83334,794.264 L76.66666,801.3069 L77.5,789.8422 L78.33334,734.3176 L79.16667,791.2872 L80,745.5892 L80.83334,768.6397 L81.66666,775.4255 L82.5,742.155 L83.33333,734.8057 L84.16666,732.876 L85,810.9322 L85.83334,753.2524 L86.66666,732.892 L87.5,782.8483 L88.33334,697.4854 L89.16666,776.342 L90,718.6389 L90.83334,740.062 L91.66667,753.868 L92.5,705.5271 L93.33334,682.7999 L94.16666,766.6898 L95,719.2426 L95.83333,720.1337 L96.66666,756.4886 L97.5,817.714 L98.33334,787.1281 L99.16666,760.554 L100,747.0325 L100.8333,753.6935 L101.6667,707.834 L102.5,753.1118 L103.3333,679.4146 L104.1667,691.2507 L105,772.0282 L105.8333,790.9577 L106.6667,762.4604 L107.5,766.3826 L108.3333,743.3009 L109.1667,737.73 L110,767.6344 L110.8333,759.0204 L111.6667,758.0891 L112.5,743.6778 L113.3333,727.8244 L114.1667,780.3738 L115,801.147 L115.8333,772.4229 L116.6667,794.5786 L117.5,700.1675 L118.3333,707.7089 L119.1667,700.9033 L120,807.8684 L120.8333,769.9465 L121.6667,762.9963 L122.5,772.1352 L123.3333,790.4702 L124.1667,816.9637 L125,841.1472 L125.8333,796.1346 L126.6667,860 L127.5,743.994 L128.3333,747.8823 L129.1667,803.6144 L130,762.7105 L130.8333,663.3793 L131.6667,731.0049 L132.5,679.4899 L133.3333,732.759 L134.1667,739.6005 L135,743.416 L135.8333,782.8087 L136.6667,746.6221 L137.5,753.0126 L138.3333,803.4678 L139.1667,802.584 L140,708.1954 L140.8333,686.8482 L141.6667,727.9797 L142.5,747.4174 L143.3333,782.2198 L144.1667,810.4626 L145,782.1089 L145.8333,761.5058 L146.6667,699.5566 L147.5,760.7407 L148.3333,793.8769 L149.1667,778.8165 L150,797.5442 L150.8333,792.9423 L151.6667,761.6174 L152.5,709.8152 L153.3333,711.1685 L154.1667,767.6267 L155,745.4493 L155.8333,788.4807 L156.6667,793.6044 L157.5,738.7386 L158.3333,802.0611 L159.1667,683.6958 L160,686.4296 L160.8333,783.4963 L161.6667,729.2122 L162.5,749.8511 L163.3333,751.912 L164.1667,701.4724 L165,772.4684 L165.8333,778.8238 L166.6667,821.0903 L167.5,726.178 L168.3333,709.7671 L169.1667,772.0898 L170,755.5783 L170.8333,783.9857 L171.6667,752.9118 L172.5,745.7548 L173.3333,785.6914 L174.1667,742.1124 L175,708.0276 L175.8333,776.9348 L176.6667,786.9886 L177.5,766.9482 L178.3333,698.7691 L179.1667,700.8025 L180,747.0956 L180.8333,747.8196 L181.6667,762.3338 L182.5,844.9071 L183.3333,842.41 L184.1667,815.6992 L185,804.0933 L185.8333,750.1154 L186.6667,804.9248 L187.5,680.6211 L188.3333,762.9241 L189.1667,789.0678 L190,796.3357 L190.8333,733.8364 L191.6667,802.6469 L192.5,799.6112 L193.3333,749.239 L194.1667,749.694 L195,741.9571 L195.8333,794.9808 L196.6667,767.5538 L197.5,766.6925 L198.3333,758.8093 L199.1667,765.4946 L200,747.6049 " stroke="blue" fill="none" />
<text x="10" y="880" font-family="Arial" font-size="12" fill="black">Value Loss</text>
<path d="M10,1104.367 L210,1104.367" stroke="gray" />
<text x="5" y="1109.367" font-family="Arial" font-size="10" fill="black">0</text>
<text x="5" y="900" font-family="Arial" font-size="10" fill="black">0.0242536</text>
<text x="5" y="1100" font-family="Arial" font-size="10" fill="black">0.0005182807</text>
<path d="M0.8333334,900 L1.666667,1035.218 L2.5,1085.798 L3.333333,1090.961 L4.166667,1092.521 L5,1093.184 L5.833333,1093.547 L6.666667,1093.806 L7.5,1094.591 L8.333334,1095.31 L9.166667,1095.754 L10,1096.078 L10.83333,1096.328 L11.66667,1096.546 L12.5,1096.753 L13.33333,1096.962 L14.16667,1098.846 L15,1099.191 L15.83333,1099.428 L16.66667,1099.595 L17.5,1099.721 L18.33333,1099.839 L19.16667,1099.938 L20,1100 L20.83333,1081.295 L21.66667,1083.554 L22.5,1084.74 L23.33333,1085.397 L24.16667,1086.198 L25,1086.792 L25.83333,1087.376 L26.66667,1087.861 L27.5,1097.954 L28.33333,1098.624 L29.16667,1099.072 L30,1099.336 L30.83333,1099.505 L31.66667,1099.636 L32.5,1099.742 L33.33334,1099.838 L34.16667,1074.02 L35,1077.386 L35.83333,1078.846 L36.66667,1079.714 L37.5,1080.366 L38.33333,1080.813 L39.16667,1081.242 L40,1081.573 L40.83333,1037.926 L41.66666,1044.066 L42.5,1046.695 L43.33333,1048.532 L44.16667,1050.349 L45,1051.73 L45.83334,1053.276 L46.66667,1053.804 L47.5,1047.206 L48.33333,1055.337 L49.16667,1059.16 L50,1061.25 L50.83333,1062.821 L51.66666,1064.279 L52.5,1065.488 L53.33334,1066.323 L54.16667,1059.729 L55,1063.38 L55.83333,1064.839 L56.66667,1066.297 L57.5,1067.314 L58.33333,1067.951 L59.16666,1068.491 L60,1069.128 L60.83334,1049.778 L61.66667,1055.845 L62.5,1058.156 L63.33333,1059.399 L64.16666,1060.761 L65,1061.855 L65.83334,1062.642 L66.66667,1063.366 L67.5,1014.811 L68.33334,1038.338 L69.16666,1044.541 L70,1047.161 L70.83333,1049.001 L71.66666,1050.332 L72.5,1051.426 L73.33334,1052.308 L74.16666,1015.509 L75,1028.24 L75.83334,1034.293 L76.66666,1037.253 L77.5,1039.217 L78.33334,1040.206 L79.16667,1041.474 L80,1043.082 L80.83334,1061.408 L81.66666,1065.093 L82.5,1067.08 L83.33333,1068.609 L84.16666,1069.65 L85,1070.572 L85.83334,1071.166 L86.66666,1071.713 L87.5,1058.046 L88.33334,1064.832 L89.16666,1067.411 L90,1069.188 L90.83334,1070.305 L91.66667,1071.227 L92.5,1071.891 L93.33334,1072.339 L94.16666,1043.33 L95,1054.354 L95.83333,1058.578 L96.66666,1061.087 L97.5,1062.624 L98.33334,1063.961 L99.16666,1065.038 L100,1065.873 L100.8333,1026.564 L101.6667,1036.578 L102.5,1041.021 L103.3333,1043.968 L104.1667,1045.943 L105,1047.696 L105.8333,1049.368 L106.6667,1050.58 L107.5,1022.033 L108.3333,1029.746 L109.1667,1035.697 L110,1039.417 L110.8333,1042.008 L111.6667,1044.063 L112.5,1045.578 L113.3333,1047.389 L114.1667,1016.839 L115,1023.65 L115.8333,1027.025 L116.6667,1029.193 L117.5,1031.009 L118.3333,1032.373 L119.1667,1033.412 L120,1034.544 L120.8333,1015.908 L121.6667,1031.486 L122.5,1037.346 L123.3333,1041.101 L124.1667,1043.651 L125,1045.621 L125.8333,1047.104 L126.6667,1048.562 L127.5,1025.564 L128.3333,1042.525 L129.1667,1047.644 L130,1050.896 L130.8333,1052.818 L131.6667,1054.799 L132.5,1056.16 L133.3333,1057.381 L134.1667,1001.789 L135,1024.004 L135.8333,1031.25 L136.6667,1036.075 L137.5,1039.101 L138.3333,1041.497 L139.1667,1043.308 L140,1044.512 L140.8333,1020.032 L141.6667,1028.946 L142.5,1034.302 L143.3333,1037.964 L144.1667,1040.573 L145,1042.758 L145.8333,1044.438 L146.6667,1045.752 L147.5,1013.244 L148.3333,1030.373 L149.1667,1036.062 L150,1038.725 L150.8333,1040.734 L151.6667,1041.797 L152.5,1042.758 L153.3333,1043.798 L154.1667,1025.256 L155,1040.523 L155.8333,1045.395 L156.6667,1048.695 L157.5,1050.79 L158.3333,1052.525 L159.1667,1053.718 L160,1054.816 L160.8333,1033.3 L161.6667,1042.657 L162.5,1047.573 L163.3333,1050.107 L164.1667,1051.894 L165,1053.268 L165.8333,1054.394 L166.6667,1055.347 L167.5,998.3057 L168.3333,1008.606 L169.1667,1013.816 L170,1017.102 L170.8333,1020.424 L171.6667,1022.731 L172.5,1024.812 L173.3333,1026.456 L174.1667,1004.673 L175,1020.996 L175.8333,1029.491 L176.6667,1034.23 L177.5,1037.436 L178.3333,1039.958 L179.1667,1041.726 L180,1043.04 L180.8333,997.3357 L181.6667,1012.939 L182.5,1020.645 L183.3333,1025.179 L184.1667,1028.181 L185,1030.147 L185.8333,1031.962 L186.6667,1033.673 L187.5,1000.951 L188.3333,1019.518 L189.1667,1025.471 L190,1029.519 L190.8333,1031.584 L191.6667,1033.938 L192.5,1036.081 L193.3333,1037.536 L194.1667,1012.443 L195,1023.692 L195.8333,1028.609 L196.6667,1031.958 L197.5,1034.029 L198.3333,1035.783 L199.1667,1036.967 L200,1038.335 " stroke="blue" fill="none" />
<text x="10" y="1120" font-family="Arial" font-size="12" fill="black">Learning Rate</text>
<path d="M10,6001141 L210,6001141" stroke="gray" />
<text x="5" y="6001146" font-family="Arial" font-size="10" fill="black">0</text>
<text x="5" y="1140" font-family="Arial" font-size="10" fill="black">0.0003</text>
<text x="5" y="1340" font-family="Arial" font-size="10" fill="black">0.0003</text>
<path d="M0.8333334,NaN L1.666667,NaN L2.5,NaN L3.333333,NaN L4.166667,NaN L5,NaN L5.833333,NaN L6.666667,NaN L7.5,NaN L8.333334,NaN L9.166667,NaN L10,NaN L10.83333,NaN L11.66667,NaN L12.5,NaN L13.33333,NaN L14.16667,NaN L15,NaN L15.83333,NaN L16.66667,NaN L17.5,NaN L18.33333,NaN L19.16667,NaN L20,NaN L20.83333,NaN L21.66667,NaN L22.5,NaN L23.33333,NaN L24.16667,NaN L25,NaN L25.83333,NaN L26.66667,NaN L27.5,NaN L28.33333,NaN L29.16667,NaN L30,NaN L30.83333,NaN L31.66667,NaN L32.5,NaN L33.33334,NaN L34.16667,NaN L35,NaN L35.83333,NaN L36.66667,NaN L37.5,NaN L38.33333,NaN L39.16667,NaN L40,NaN L40.83333,NaN L41.66666,NaN L42.5,NaN L43.33333,NaN L44.16667,NaN L45,NaN L45.83334,NaN L46.66667,NaN L47.5,NaN L48.33333,NaN L49.16667,NaN L50,NaN L50.83333,NaN L51.66666,NaN L52.5,NaN L53.33334,NaN L54.16667,NaN L55,NaN L55.83333,NaN L56.66667,NaN L57.5,NaN L58.33333,NaN L59.16666,NaN L60,NaN L60.83334,NaN L61.66667,NaN L62.5,NaN L63.33333,NaN L64.16666,NaN L65,NaN L65.83334,NaN L66.66667,NaN L67.5,NaN L68.33334,NaN L69.16666,NaN L70,NaN L70.83333,NaN L71.66666,NaN L72.5,NaN L73.33334,NaN L74.16666,NaN L75,NaN L75.83334,NaN L76.66666,NaN L77.5,NaN L78.33334,NaN L79.16667,NaN L80,NaN L80.83334,NaN L81.66666,NaN L82.5,NaN L83.33333,NaN L84.16666,NaN L85,NaN L85.83334,NaN L86.66666,NaN L87.5,NaN L88.33334,NaN L89.16666,NaN L90,NaN L90.83334,NaN L91.66667,NaN L92.5,NaN L93.33334,NaN L94.16666,NaN L95,NaN L95.83333,NaN L96.66666,NaN L97.5,NaN L98.33334,NaN L99.16666,NaN L100,NaN L100.8333,NaN L101.6667,NaN L102.5,NaN L103.3333,NaN L104.1667,NaN L105,NaN L105.8333,NaN L106.6667,NaN L107.5,NaN L108.3333,NaN L109.1667,NaN L110,NaN L110.8333,NaN L111.6667,NaN L112.5,NaN L113.3333,NaN L114.1667,NaN L115,NaN L115.8333,NaN L116.6667,NaN L117.5,NaN L118.3333,NaN L119.1667,NaN L120,NaN L120.8333,NaN L121.6667,NaN L122.5,NaN L123.3333,NaN L124.1667,NaN L125,NaN L125.8333,NaN L126.6667,NaN L127.5,NaN L128.3333,NaN L129.1667,NaN L130,NaN L130.8333,NaN L131.6667,NaN L132.5,NaN L133.3333,NaN L134.1667,NaN L135,NaN L135.8333,NaN L136.6667,NaN L137.5,NaN L138.3333,NaN L139.1667,NaN L140,NaN L140.8333,NaN L141.6667,NaN L142.5,NaN L143.3333,NaN L144.1667,NaN L145,NaN L145.8333,NaN L146.6667,NaN L147.5,NaN L148.3333,NaN L149.1667,NaN L150,NaN L150.8333,NaN L151.6667,NaN L152.5,NaN L153.3333,NaN L154.1667,NaN L155,NaN L155.8333,NaN L156.6667,NaN L157.5,NaN L158.3333,NaN L159.1667,NaN L160,NaN L160.8333,NaN L161.6667,NaN L162.5,NaN L163.3333,NaN L164.1667,NaN L165,NaN L165.8333,NaN L166.6667,NaN L167.5,NaN L168.3333,NaN L169.1667,NaN L170,NaN L170.8333,NaN L171.6667,NaN L172.5,NaN L173.3333,NaN L174.1667,NaN L175,NaN L175.8333,NaN L176.6667,NaN L177.5,NaN L178.3333,NaN L179.1667,NaN L180,NaN L180.8333,NaN L181.6667,NaN L182.5,NaN L183.3333,NaN L184.1667,NaN L185,NaN L185.8333,NaN L186.6667,NaN L187.5,NaN L188.3333,NaN L189.1667,NaN L190,NaN L190.8333,NaN L191.6667,NaN L192.5,NaN L193.3333,NaN L194.1667,NaN L195,NaN L195.8333,NaN L196.6667,NaN L197.5,NaN L198.3333,NaN L199.1667,NaN L200,NaN " stroke="blue" fill="none" />
<text x="10" y="1360" font-family="Arial" font-size="12" fill="black">Epsilon</text>
<path d="M10,4.000002E+09 L210,4.000002E+09" stroke="gray" />
<text x="5" y="4.000002E+09" font-family="Arial" font-size="10" fill="black">0</text>
<text x="5" y="1380" font-family="Arial" font-size="10" fill="black">0.2</text>
<text x="5" y="1580" font-family="Arial" font-size="10" fill="black">0.2</text>
<path d="M0.8333334,NaN L1.666667,NaN L2.5,NaN L3.333333,NaN L4.166667,NaN L5,NaN L5.833333,NaN L6.666667,NaN L7.5,NaN L8.333334,NaN L9.166667,NaN L10,NaN L10.83333,NaN L11.66667,NaN L12.5,NaN L13.33333,NaN L14.16667,NaN L15,NaN L15.83333,NaN L16.66667,NaN L17.5,NaN L18.33333,NaN L19.16667,NaN L20,NaN L20.83333,NaN L21.66667,NaN L22.5,NaN L23.33333,NaN L24.16667,NaN L25,NaN L25.83333,NaN L26.66667,NaN L27.5,NaN L28.33333,NaN L29.16667,NaN L30,NaN L30.83333,NaN L31.66667,NaN L32.5,NaN L33.33334,NaN L34.16667,NaN L35,NaN L35.83333,NaN L36.66667,NaN L37.5,NaN L38.33333,NaN L39.16667,NaN L40,NaN L40.83333,NaN L41.66666,NaN L42.5,NaN L43.33333,NaN L44.16667,NaN L45,NaN L45.83334,NaN L46.66667,NaN L47.5,NaN L48.33333,NaN L49.16667,NaN L50,NaN L50.83333,NaN L51.66666,NaN L52.5,NaN L53.33334,NaN L54.16667,NaN L55,NaN L55.83333,NaN L56.66667,NaN L57.5,NaN L58.33333,NaN L59.16666,NaN L60,NaN L60.83334,NaN L61.66667,NaN L62.5,NaN L63.33333,NaN L64.16666,NaN L65,NaN L65.83334,NaN L66.66667,NaN L67.5,NaN L68.33334,NaN L69.16666,NaN L70,NaN L70.83333,NaN L71.66666,NaN L72.5,NaN L73.33334,NaN L74.16666,NaN L75,NaN L75.83334,NaN L76.66666,NaN L77.5,NaN L78.33334,NaN L79.16667,NaN L80,NaN L80.83334,NaN L81.66666,NaN L82.5,NaN L83.33333,NaN L84.16666,NaN L85,NaN L85.83334,NaN L86.66666,NaN L87.5,NaN L88.33334,NaN L89.16666,NaN L90,NaN L90.83334,NaN L91.66667,NaN L92.5,NaN L93.33334,NaN L94.16666,NaN L95,NaN L95.83333,NaN L96.66666,NaN L97.5,NaN L98.33334,NaN L99.16666,NaN L100,NaN L100.8333,NaN L101.6667,NaN L102.5,NaN L103.3333,NaN L104.1667,NaN L105,NaN L105.8333,NaN L106.6667,NaN L107.5,NaN L108.3333,NaN L109.1667,NaN L110,NaN L110.8333,NaN L111.6667,NaN L112.5,NaN L113.3333,NaN L114.1667,NaN L115,NaN L115.8333,NaN L116.6667,NaN L117.5,NaN L118.3333,NaN L119.1667,NaN L120,NaN L120.8333,NaN L121.6667,NaN L122.5,NaN L123.3333,NaN L124.1667,NaN L125,NaN L125.8333,NaN L126.6667,NaN L127.5,NaN L128.3333,NaN L129.1667,NaN L130,NaN L130.8333,NaN L131.6667,NaN L132.5,NaN L133.3333,NaN L134.1667,NaN L135,NaN L135.8333,NaN L136.6667,NaN L137.5,NaN L138.3333,NaN L139.1667,NaN L140,NaN L140.8333,NaN L141.6667,NaN L142.5,NaN L143.3333,NaN L144.1667,NaN L145,NaN L145.8333,NaN L146.6667,NaN L147.5,NaN L148.3333,NaN L149.1667,NaN L150,NaN L150.8333,NaN L151.6667,NaN L152.5,NaN L153.3333,NaN L154.1667,NaN L155,NaN L155.8333,NaN L156.6667,NaN L157.5,NaN L158.3333,NaN L159.1667,NaN L160,NaN L160.8333,NaN L161.6667,NaN L162.5,NaN L163.3333,NaN L164.1667,NaN L165,NaN L165.8333,NaN L166.6667,NaN L167.5,NaN L168.3333,NaN L169.1667,NaN L170,NaN L170.8333,NaN L171.6667,NaN L172.5,NaN L173.3333,NaN L174.1667,NaN L175,NaN L175.8333,NaN L176.6667,NaN L177.5,NaN L178.3333,NaN L179.1667,NaN L180,NaN L180.8333,NaN L181.6667,NaN L182.5,NaN L183.3333,NaN L184.1667,NaN L185,NaN L185.8333,NaN L186.6667,NaN L187.5,NaN L188.3333,NaN L189.1667,NaN L190,NaN L190.8333,NaN L191.6667,NaN L192.5,NaN L193.3333,NaN L194.1667,NaN L195,NaN L195.8333,NaN L196.6667,NaN L197.5,NaN L198.3333,NaN L199.1667,NaN L200,NaN " stroke="blue" fill="none" />
</svg>
