<svg width="800" height="600" xmlns="http://www.w3.org/2000/svg">
<text x="10" y="20" font-family="Arial" font-size="16" fill="black"> [DeepUnity] Training Session</text>
<text x="10" y="40" font-family="Arial" font-size="12" fill="black">Start: 1:52:57 PM, Saturday, August 26, 2023</text>
<text x="10" y="60" font-family="Arial" font-size="12" fill="black">End: 2:11:05 PM, Saturday, August 26, 2023</text>
<text x="10" y="80" font-family="Arial" font-size="12" fill="black">Real Training Time: 0 hrs : 18 min : 1088 sec</text>
<text x="10" y="100" font-family="Arial" font-size="12" fill="black">Training Time: 587.8615</text>
<text x="10" y="120" font-family="Arial" font-size="12" fill="black">Iterations: 6</text>
<text x="10" y="140" font-family="Arial" font-size="12" fill="black">Parallel Agents: 5</text>
<text x="10" y="160" font-family="Arial" font-size="12" fill="black">Episode Reward</text>
<path d="M10,178.4206 L210,178.4206" stroke="gray" />
<text x="5" y="183.4206" font-family="Arial" font-size="10" fill="black">0</text>
<text x="5" y="180" font-family="Arial" font-size="10" fill="black">-0.1025015</text>
<text x="5" y="380" font-family="Arial" font-size="10" fill="black">-13.08197</text>
<path d="M4,210.5875 L8,282.0474 L12,314.7536 L16,208.8539 L20,214.3627 L24,380 L28,370.6766 L32,254.7729 L36,371.0232 L40,272.1854 L44,273.3796 L48,317.0265 L52,281.9318 L56,370.1759 L60,348.6866 L64,298.8803 L68,244.3331 L72,256.9302 L76,344.2572 L80,302.195 L84,283.5498 L88,186.6645 L92,305.7392 L96,255.6975 L100,282.8949 L104,180 L108,297.3411 L112,225.0715 L116,307.0875 L120,287.0554 L124,275.5755 L128,237.3989 L132,322.2647 L136,288.1726 L140,249.4952 L144,266.0988 L148,342.1003 L152,362.0131 L156,370.1373 L160,319.2219 L164,280.3909 L168,347.377 L172,279.5819 L176,370.9847 L180,244.0635 L184,279.6204 L188,370.8306 L192,235.935 L196,348.494 L200,216.4808 " stroke="blue" fill="none" />
<text x="10" y="400" font-family="Arial" font-size="12" fill="black">Episode Length</text>
<path d="M10,640.4055 L210,640.4055" stroke="gray" />
<text x="5" y="645.4055" font-family="Arial" font-size="10" fill="black">0</text>
<text x="5" y="420" font-family="Arial" font-size="10" fill="black">5001</text>
<text x="5" y="620" font-family="Arial" font-size="10" fill="black">463</text>
<path d="M4,585.0066 L8,539.3477 L12,502.0185 L16,587.4306 L20,580.8638 L24,426.8312 L28,420 L32,570.639 L36,420 L40,550.1895 L44,549.3521 L48,499.4182 L52,538.9952 L56,420 L60,463.1908 L64,484.5659 L68,582.23 L72,567.6422 L76,467.5981 L80,515.4165 L84,537.4086 L88,613.1247 L92,512.1111 L96,569.0965 L100,538.29 L104,620 L108,521.9392 L112,604.6188 L116,510.5245 L120,533.4861 L124,546.84 L128,590.5156 L132,493.0718 L136,532.4284 L140,576.6769 L144,557.6818 L148,470.639 L152,447.9418 L156,420 L160,496.9061 L164,541.331 L168,464.6893 L172,542.2565 L176,420 L180,582.8911 L184,542.2124 L188,420 L192,592.1904 L196,463.1908 L200,614.4469 " stroke="blue" fill="none" />
<text x="10" y="640" font-family="Arial" font-size="12" fill="black">Policy Loss</text>
<path d="M10,962.6227 L210,962.6227" stroke="gray" />
<text x="5" y="967.6227" font-family="Arial" font-size="10" fill="black">0</text>
<text x="5" y="660" font-family="Arial" font-size="10" fill="black">0.004612945</text>
<text x="5" y="860" font-family="Arial" font-size="10" fill="black">0.001564301</text>
<path d="M0.8333334,828.3922 L1.666667,759.6133 L2.5,767.6824 L3.333333,767.1451 L4.166667,788.8008 L5,766.5198 L5.833333,820.6648 L6.666667,719.923 L7.5,754.6957 L8.333334,806.5785 L9.166667,745.4175 L10,847.16 L10.83333,750.1635 L11.66667,762.7449 L12.5,763.6524 L13.33333,826.3663 L14.16667,743.153 L15,750.1195 L15.83333,765.8295 L16.66667,820.2496 L17.5,792.9367 L18.33333,762.9547 L19.16667,839.5335 L20,782.2498 L20.83333,818.4844 L21.66667,815.2268 L22.5,752.0403 L23.33333,704.5191 L24.16667,819.147 L25,800.6548 L25.83333,726.686 L26.66667,771.5096 L27.5,686.2159 L28.33333,750.5686 L29.16667,790.1756 L30,799.4569 L30.83333,806.7353 L31.66667,774.7578 L32.5,807.8657 L33.33334,754.9484 L34.16667,702.6917 L35,776.4269 L35.83333,860 L36.66667,750.2997 L37.5,790.7246 L38.33333,757.1087 L39.16667,754.7358 L40,749.9203 L40.83333,772.2509 L41.66666,799.5885 L42.5,721.9835 L43.33333,806.6482 L44.16667,709.6335 L45,762.6336 L45.83334,777.4131 L46.66667,719.613 L47.5,687.3161 L48.33333,806.1811 L49.16667,729.3549 L50,773.5495 L50.83333,701.8903 L51.66666,764.7323 L52.5,807.1063 L53.33334,738.267 L54.16667,753.8188 L55,706.9467 L55.83333,776.8816 L56.66667,713.5997 L57.5,772.8716 L58.33333,813.4827 L59.16666,771.0038 L60,744.5255 L60.83334,794.0839 L61.66667,750.4937 L62.5,744.5333 L63.33333,761.5568 L64.16666,723.4887 L65,822.8459 L65.83334,759.744 L66.66667,787.9911 L67.5,781.0076 L68.33334,718.4858 L69.16666,763.1202 L70,756.5693 L70.83333,797.3063 L71.66666,779.8007 L72.5,794.4995 L73.33334,801.3179 L74.16666,733.3386 L75,752.9799 L75.83334,718.3954 L76.66666,751.2482 L77.5,739.2476 L78.33334,738.616 L79.16667,735.8619 L80,732.0959 L80.83334,743.7319 L81.66666,836.9807 L82.5,707.8045 L83.33333,810.015 L84.16666,748.0794 L85,722.537 L85.83334,737.5242 L86.66666,817.2883 L87.5,743.054 L88.33334,747.6549 L89.16666,838.0757 L90,762.7687 L90.83334,754.1859 L91.66667,738.1781 L92.5,757.6548 L93.33334,730.8127 L94.16666,706.7454 L95,771.8935 L95.83333,736.6344 L96.66666,743.7526 L97.5,747.1971 L98.33334,757.3254 L99.16666,799.2496 L100,765.3975 L100.8333,730.2977 L101.6667,801.9058 L102.5,729.6641 L103.3333,825.8685 L104.1667,790.9453 L105,822.282 L105.8333,774.4466 L106.6667,745.6491 L107.5,793.1838 L108.3333,753.1909 L109.1667,763.6802 L110,694.6528 L110.8333,757.3557 L111.6667,759.4839 L112.5,729.7361 L113.3333,772.0515 L114.1667,764.5226 L115,811.9592 L115.8333,772.2408 L116.6667,780.8444 L117.5,712.795 L118.3333,755.1017 L119.1667,841.9945 L120,797.6253 L120.8333,809.98 L121.6667,845.9548 L122.5,778.7922 L123.3333,748.9361 L124.1667,803.6444 L125,739.5927 L125.8333,794.5532 L126.6667,779.2849 L127.5,768.84 L128.3333,814.9034 L129.1667,850.6923 L130,756.487 L130.8333,754.2115 L131.6667,742.4367 L132.5,778.3729 L133.3333,763.9167 L134.1667,761.0218 L135,673.9777 L135.8333,761.7292 L136.6667,796.8269 L137.5,704.873 L138.3333,836.6354 L139.1667,770.8127 L140,839.1429 L140.8333,729.7903 L141.6667,748.0343 L142.5,787.859 L143.3333,824.9647 L144.1667,785.7507 L145,788.736 L145.8333,795.7695 L146.6667,803.3062 L147.5,764.7072 L148.3333,768.5713 L149.1667,745.8094 L150,779.5434 L150.8333,802.9517 L151.6667,786.3684 L152.5,706.3475 L153.3333,753.9662 L154.1667,784.0051 L155,710.4628 L155.8333,766.6293 L156.6667,741.3286 L157.5,780.4152 L158.3333,739.0941 L159.1667,832.5562 L160,801.6973 L160.8333,765.6343 L161.6667,755.1688 L162.5,808.7431 L163.3333,744.5796 L164.1667,750.8442 L165,723.824 L165.8333,780.2537 L166.6667,755.9822 L167.5,725.8458 L168.3333,788.7164 L169.1667,786.3105 L170,747.2748 L170.8333,660 L171.6667,796.9847 L172.5,823.3965 L173.3333,747.9865 L174.1667,773.787 L175,845.924 L175.8333,691.1557 L176.6667,788.4204 L177.5,756.7788 L178.3333,731.0192 L179.1667,746.4573 L180,776.8565 L180.8333,793.3676 L181.6667,788.0803 L182.5,837.7028 L183.3333,795.0121 L184.1667,818.1373 L185,810.1132 L185.8333,794.467 L186.6667,763.5928 L187.5,762.6413 L188.3333,792.8343 L189.1667,773.9595 L190,785.1028 L190.8333,737.1572 L191.6667,725.373 L192.5,737.0802 L193.3333,823.0558 L194.1667,732.6085 L195,723.2286 L195.8333,852.8582 L196.6667,809.1888 L197.5,741.5692 L198.3333,786.6503 L199.1667,757.1672 L200,750.9136 " stroke="blue" fill="none" />
<text x="10" y="880" font-family="Arial" font-size="12" fill="black">Value Loss</text>
<path d="M10,1100.391 L210,1100.391" stroke="gray" />
<text x="5" y="1105.391" font-family="Arial" font-size="10" fill="black">0</text>
<text x="5" y="900" font-family="Arial" font-size="10" fill="black">0.002034985</text>
<text x="5" y="1100" font-family="Arial" font-size="10" fill="black">3.967147E-06</text>
<path d="M0.8333334,1070.228 L1.666667,1082.264 L2.5,1086.863 L3.333333,1089.363 L4.166667,1091.074 L5,1092.279 L5.833333,1093.302 L6.666667,1094.027 L7.5,984.6722 L8.333334,1002.691 L9.166667,1014.35 L10,1022.835 L10.83333,1029.581 L11.66667,1034.807 L12.5,1039.61 L13.33333,1044.465 L14.16667,1062.601 L15,1087.846 L15.83333,1091.766 L16.66667,1094.071 L17.5,1095.73 L18.33333,1096.6 L19.16667,1097.125 L20,1097.489 L20.83333,968.0035 L21.66667,998.7501 L22.5,1013.808 L23.33333,1026.716 L24.16667,1034.952 L25,1042.854 L25.83333,1049.355 L26.66667,1054.538 L27.5,1067.209 L28.33333,1093.911 L29.16667,1097.556 L30,1098.401 L30.83333,1098.756 L31.66667,1098.973 L32.5,1099.116 L33.33334,1099.232 L34.16667,997.8602 L35,1018.318 L35.83333,1039.648 L36.66667,1057.973 L37.5,1066.55 L38.33333,1073.012 L39.16667,1078.089 L40,1081.716 L40.83333,993.0241 L41.66666,1063.958 L42.5,1071.655 L43.33333,1075.151 L44.16667,1077.406 L45,1078.867 L45.83334,1080.067 L46.66667,1081.365 L47.5,1078.983 L48.33333,1097.137 L49.16667,1098.655 L50,1098.929 L50.83333,1099.076 L51.66666,1099.163 L52.5,1099.229 L53.33334,1099.283 L54.16667,1098.253 L55,1099.574 L55.83333,1099.79 L56.66667,1099.884 L57.5,1099.925 L58.33333,1099.954 L59.16666,1099.973 L60,1099.99 L60.83334,1030.211 L61.66667,1036.803 L62.5,1042.656 L63.33333,1048.2 L64.16666,1052.528 L65,1056.004 L65.83334,1058.428 L66.66667,1060.679 L67.5,1070.055 L68.33334,1075.966 L69.16666,1078.031 L70,1079.267 L70.83333,1080.359 L71.66666,1081.363 L72.5,1082.243 L73.33334,1083.226 L74.16666,1067.019 L75,1070.893 L75.83334,1074.207 L76.66666,1076.992 L77.5,1079.405 L78.33334,1081.668 L79.16667,1084.725 L80,1087.216 L80.83334,1090.151 L81.66666,1092.04 L82.5,1093.641 L83.33333,1094.3 L84.16666,1094.652 L85,1094.999 L85.83334,1095.236 L86.66666,1095.422 L87.5,1084.489 L88.33334,1090.344 L89.16666,1092.974 L90,1093.895 L90.83334,1094.456 L91.66667,1094.901 L92.5,1095.211 L93.33334,1095.375 L94.16666,970.8238 L95,990.9428 L95.83333,1003.685 L96.66666,1013.326 L97.5,1021.611 L98.33334,1028.572 L99.16666,1035.309 L100,1040.734 L100.8333,1063.501 L101.6667,1078.404 L102.5,1083.997 L103.3333,1086.076 L104.1667,1087.715 L105,1089.067 L105.8333,1090.276 L106.6667,1091.245 L107.5,989.5087 L108.3333,1014.03 L109.1667,1025.295 L110,1032.377 L110.8333,1036.794 L111.6667,1040.933 L112.5,1043.971 L113.3333,1046.582 L114.1667,1028.305 L115,1059.2 L115.8333,1069.13 L116.6667,1075.589 L117.5,1079.332 L118.3333,1082.062 L119.1667,1084.41 L120,1086.404 L120.8333,900 L121.6667,984.2584 L122.5,1008.277 L123.3333,1018.2 L124.1667,1024.283 L125,1028.312 L125.8333,1031.586 L126.6667,1033.458 L127.5,1075.511 L128.3333,1090.774 L129.1667,1093.875 L130,1095.002 L130.8333,1095.66 L131.6667,1096.081 L132.5,1096.378 L133.3333,1096.629 L134.1667,1065.67 L135,1070.539 L135.8333,1077.446 L136.6667,1081.985 L137.5,1084.58 L138.3333,1086.924 L139.1667,1088.799 L140,1090.248 L140.8333,1074.072 L141.6667,1082.402 L142.5,1086.018 L143.3333,1087.636 L144.1667,1088.431 L145,1089.11 L145.8333,1089.551 L146.6667,1089.837 L147.5,1028.09 L148.3333,1052.32 L149.1667,1060.585 L150,1064.411 L150.8333,1067.006 L151.6667,1068.545 L152.5,1069.49 L153.3333,1070.445 L154.1667,1079.007 L155,1089.886 L155.8333,1093.487 L156.6667,1095.005 L157.5,1095.627 L158.3333,1096.072 L159.1667,1096.361 L160,1096.55 L160.8333,1049.099 L161.6667,1057.254 L162.5,1065.288 L163.3333,1069.406 L164.1667,1071.953 L165,1074.505 L165.8333,1076.167 L166.6667,1078.188 L167.5,1097.8 L168.3333,1099.2 L169.1667,1099.562 L170,1099.738 L170.8333,1099.836 L171.6667,1099.903 L172.5,1099.957 L173.3333,1100 L174.1667,1098.034 L175,1098.851 L175.8333,1099.291 L176.6667,1099.513 L177.5,1099.659 L178.3333,1099.765 L179.1667,1099.842 L180,1099.902 L180.8333,1068.449 L181.6667,1077.102 L182.5,1087.86 L183.3333,1091.152 L184.1667,1092.652 L185,1093.459 L185.8333,1094.025 L186.6667,1094.462 L187.5,1047.076 L188.3333,1062.404 L189.1667,1067.82 L190,1070.396 L190.8333,1072.027 L191.6667,1072.686 L192.5,1074.049 L193.3333,1075.063 L194.1667,1082.398 L195,1089.556 L195.8333,1092.012 L196.6667,1093.123 L197.5,1093.662 L198.3333,1094.255 L199.1667,1094.716 L200,1095.08 " stroke="blue" fill="none" />
<text x="10" y="1120" font-family="Arial" font-size="12" fill="black">Learning Rate</text>
<path d="M10,6001141 L210,6001141" stroke="gray" />
<text x="5" y="6001146" font-family="Arial" font-size="10" fill="black">0</text>
<text x="5" y="1140" font-family="Arial" font-size="10" fill="black">0.0003</text>
<text x="5" y="1340" font-family="Arial" font-size="10" fill="black">0.0003</text>
<path d="M0.8333334,NaN L1.666667,NaN L2.5,NaN L3.333333,NaN L4.166667,NaN L5,NaN L5.833333,NaN L6.666667,NaN L7.5,NaN L8.333334,NaN L9.166667,NaN L10,NaN L10.83333,NaN L11.66667,NaN L12.5,NaN L13.33333,NaN L14.16667,NaN L15,NaN L15.83333,NaN L16.66667,NaN L17.5,NaN L18.33333,NaN L19.16667,NaN L20,NaN L20.83333,NaN L21.66667,NaN L22.5,NaN L23.33333,NaN L24.16667,NaN L25,NaN L25.83333,NaN L26.66667,NaN L27.5,NaN L28.33333,NaN L29.16667,NaN L30,NaN L30.83333,NaN L31.66667,NaN L32.5,NaN L33.33334,NaN L34.16667,NaN L35,NaN L35.83333,NaN L36.66667,NaN L37.5,NaN L38.33333,NaN L39.16667,NaN L40,NaN L40.83333,NaN L41.66666,NaN L42.5,NaN L43.33333,NaN L44.16667,NaN L45,NaN L45.83334,NaN L46.66667,NaN L47.5,NaN L48.33333,NaN L49.16667,NaN L50,NaN L50.83333,NaN L51.66666,NaN L52.5,NaN L53.33334,NaN L54.16667,NaN L55,NaN L55.83333,NaN L56.66667,NaN L57.5,NaN L58.33333,NaN L59.16666,NaN L60,NaN L60.83334,NaN L61.66667,NaN L62.5,NaN L63.33333,NaN L64.16666,NaN L65,NaN L65.83334,NaN L66.66667,NaN L67.5,NaN L68.33334,NaN L69.16666,NaN L70,NaN L70.83333,NaN L71.66666,NaN L72.5,NaN L73.33334,NaN L74.16666,NaN L75,NaN L75.83334,NaN L76.66666,NaN L77.5,NaN L78.33334,NaN L79.16667,NaN L80,NaN L80.83334,NaN L81.66666,NaN L82.5,NaN L83.33333,NaN L84.16666,NaN L85,NaN L85.83334,NaN L86.66666,NaN L87.5,NaN L88.33334,NaN L89.16666,NaN L90,NaN L90.83334,NaN L91.66667,NaN L92.5,NaN L93.33334,NaN L94.16666,NaN L95,NaN L95.83333,NaN L96.66666,NaN L97.5,NaN L98.33334,NaN L99.16666,NaN L100,NaN L100.8333,NaN L101.6667,NaN L102.5,NaN L103.3333,NaN L104.1667,NaN L105,NaN L105.8333,NaN L106.6667,NaN L107.5,NaN L108.3333,NaN L109.1667,NaN L110,NaN L110.8333,NaN L111.6667,NaN L112.5,NaN L113.3333,NaN L114.1667,NaN L115,NaN L115.8333,NaN L116.6667,NaN L117.5,NaN L118.3333,NaN L119.1667,NaN L120,NaN L120.8333,NaN L121.6667,NaN L122.5,NaN L123.3333,NaN L124.1667,NaN L125,NaN L125.8333,NaN L126.6667,NaN L127.5,NaN L128.3333,NaN L129.1667,NaN L130,NaN L130.8333,NaN L131.6667,NaN L132.5,NaN L133.3333,NaN L134.1667,NaN L135,NaN L135.8333,NaN L136.6667,NaN L137.5,NaN L138.3333,NaN L139.1667,NaN L140,NaN L140.8333,NaN L141.6667,NaN L142.5,NaN L143.3333,NaN L144.1667,NaN L145,NaN L145.8333,NaN L146.6667,NaN L147.5,NaN L148.3333,NaN L149.1667,NaN L150,NaN L150.8333,NaN L151.6667,NaN L152.5,NaN L153.3333,NaN L154.1667,NaN L155,NaN L155.8333,NaN L156.6667,NaN L157.5,NaN L158.3333,NaN L159.1667,NaN L160,NaN L160.8333,NaN L161.6667,NaN L162.5,NaN L163.3333,NaN L164.1667,NaN L165,NaN L165.8333,NaN L166.6667,NaN L167.5,NaN L168.3333,NaN L169.1667,NaN L170,NaN L170.8333,NaN L171.6667,NaN L172.5,NaN L173.3333,NaN L174.1667,NaN L175,NaN L175.8333,NaN L176.6667,NaN L177.5,NaN L178.3333,NaN L179.1667,NaN L180,NaN L180.8333,NaN L181.6667,NaN L182.5,NaN L183.3333,NaN L184.1667,NaN L185,NaN L185.8333,NaN L186.6667,NaN L187.5,NaN L188.3333,NaN L189.1667,NaN L190,NaN L190.8333,NaN L191.6667,NaN L192.5,NaN L193.3333,NaN L194.1667,NaN L195,NaN L195.8333,NaN L196.6667,NaN L197.5,NaN L198.3333,NaN L199.1667,NaN L200,NaN " stroke="blue" fill="none" />
<text x="10" y="1360" font-family="Arial" font-size="12" fill="black">Epsilon</text>
<path d="M10,4.000002E+09 L210,4.000002E+09" stroke="gray" />
<text x="5" y="4.000002E+09" font-family="Arial" font-size="10" fill="black">0</text>
<text x="5" y="1380" font-family="Arial" font-size="10" fill="black">0.2</text>
<text x="5" y="1580" font-family="Arial" font-size="10" fill="black">0.2</text>
<path d="M0.8333334,NaN L1.666667,NaN L2.5,NaN L3.333333,NaN L4.166667,NaN L5,NaN L5.833333,NaN L6.666667,NaN L7.5,NaN L8.333334,NaN L9.166667,NaN L10,NaN L10.83333,NaN L11.66667,NaN L12.5,NaN L13.33333,NaN L14.16667,NaN L15,NaN L15.83333,NaN L16.66667,NaN L17.5,NaN L18.33333,NaN L19.16667,NaN L20,NaN L20.83333,NaN L21.66667,NaN L22.5,NaN L23.33333,NaN L24.16667,NaN L25,NaN L25.83333,NaN L26.66667,NaN L27.5,NaN L28.33333,NaN L29.16667,NaN L30,NaN L30.83333,NaN L31.66667,NaN L32.5,NaN L33.33334,NaN L34.16667,NaN L35,NaN L35.83333,NaN L36.66667,NaN L37.5,NaN L38.33333,NaN L39.16667,NaN L40,NaN L40.83333,NaN L41.66666,NaN L42.5,NaN L43.33333,NaN L44.16667,NaN L45,NaN L45.83334,NaN L46.66667,NaN L47.5,NaN L48.33333,NaN L49.16667,NaN L50,NaN L50.83333,NaN L51.66666,NaN L52.5,NaN L53.33334,NaN L54.16667,NaN L55,NaN L55.83333,NaN L56.66667,NaN L57.5,NaN L58.33333,NaN L59.16666,NaN L60,NaN L60.83334,NaN L61.66667,NaN L62.5,NaN L63.33333,NaN L64.16666,NaN L65,NaN L65.83334,NaN L66.66667,NaN L67.5,NaN L68.33334,NaN L69.16666,NaN L70,NaN L70.83333,NaN L71.66666,NaN L72.5,NaN L73.33334,NaN L74.16666,NaN L75,NaN L75.83334,NaN L76.66666,NaN L77.5,NaN L78.33334,NaN L79.16667,NaN L80,NaN L80.83334,NaN L81.66666,NaN L82.5,NaN L83.33333,NaN L84.16666,NaN L85,NaN L85.83334,NaN L86.66666,NaN L87.5,NaN L88.33334,NaN L89.16666,NaN L90,NaN L90.83334,NaN L91.66667,NaN L92.5,NaN L93.33334,NaN L94.16666,NaN L95,NaN L95.83333,NaN L96.66666,NaN L97.5,NaN L98.33334,NaN L99.16666,NaN L100,NaN L100.8333,NaN L101.6667,NaN L102.5,NaN L103.3333,NaN L104.1667,NaN L105,NaN L105.8333,NaN L106.6667,NaN L107.5,NaN L108.3333,NaN L109.1667,NaN L110,NaN L110.8333,NaN L111.6667,NaN L112.5,NaN L113.3333,NaN L114.1667,NaN L115,NaN L115.8333,NaN L116.6667,NaN L117.5,NaN L118.3333,NaN L119.1667,NaN L120,NaN L120.8333,NaN L121.6667,NaN L122.5,NaN L123.3333,NaN L124.1667,NaN L125,NaN L125.8333,NaN L126.6667,NaN L127.5,NaN L128.3333,NaN L129.1667,NaN L130,NaN L130.8333,NaN L131.6667,NaN L132.5,NaN L133.3333,NaN L134.1667,NaN L135,NaN L135.8333,NaN L136.6667,NaN L137.5,NaN L138.3333,NaN L139.1667,NaN L140,NaN L140.8333,NaN L141.6667,NaN L142.5,NaN L143.3333,NaN L144.1667,NaN L145,NaN L145.8333,NaN L146.6667,NaN L147.5,NaN L148.3333,NaN L149.1667,NaN L150,NaN L150.8333,NaN L151.6667,NaN L152.5,NaN L153.3333,NaN L154.1667,NaN L155,NaN L155.8333,NaN L156.6667,NaN L157.5,NaN L158.3333,NaN L159.1667,NaN L160,NaN L160.8333,NaN L161.6667,NaN L162.5,NaN L163.3333,NaN L164.1667,NaN L165,NaN L165.8333,NaN L166.6667,NaN L167.5,NaN L168.3333,NaN L169.1667,NaN L170,NaN L170.8333,NaN L171.6667,NaN L172.5,NaN L173.3333,NaN L174.1667,NaN L175,NaN L175.8333,NaN L176.6667,NaN L177.5,NaN L178.3333,NaN L179.1667,NaN L180,NaN L180.8333,NaN L181.6667,NaN L182.5,NaN L183.3333,NaN L184.1667,NaN L185,NaN L185.8333,NaN L186.6667,NaN L187.5,NaN L188.3333,NaN L189.1667,NaN L190,NaN L190.8333,NaN L191.6667,NaN L192.5,NaN L193.3333,NaN L194.1667,NaN L195,NaN L195.8333,NaN L196.6667,NaN L197.5,NaN L198.3333,NaN L199.1667,NaN L200,NaN " stroke="blue" fill="none" />
</svg>
