<svg width="800" height="600" xmlns="http://www.w3.org/2000/svg">
<text x="10" y="20" font-family="Arial" font-size="16" fill="black"> [DeepUnity] Training Session</text>
<text x="10" y="40" font-family="Arial" font-size="12" fill="black">Start: 4:34:24 PM, Saturday, August 26, 2023</text>
<text x="10" y="60" font-family="Arial" font-size="12" fill="black">End: 5:29:30 PM, Saturday, August 26, 2023</text>
<text x="10" y="80" font-family="Arial" font-size="12" fill="black">Real Training Time: 0 hrs : 55 min : 6 sec</text>
<text x="10" y="100" font-family="Arial" font-size="12" fill="black">Training Time: 1705.669</text>
<text x="10" y="120" font-family="Arial" font-size="12" fill="black">Iterations: 19</text>
<text x="10" y="140" font-family="Arial" font-size="12" fill="black">Parallel Agents: 5</text>
<text x="10" y="160" font-family="Arial" font-size="12" fill="black">Episode Reward</text>
<path d="M10,201.9531 L210,201.9531" stroke="gray" />
<text x="5" y="206.9531" font-family="Arial" font-size="10" fill="black">0</text>
<text x="5" y="180" font-family="Arial" font-size="10" fill="black">0.8925</text>
<text x="5" y="380" font-family="Arial" font-size="10" fill="black">-7.238467</text>
<path d="M0.3189793,207.5288 L0.6379585,209.2641 L0.9569378,208.5223 L1.275917,205.2689 L1.594896,210.1721 L1.913876,202.5354 L2.232855,204.8222 L2.551834,203.9276 L2.870813,207.7008 L3.189792,199.4424 L3.508772,205.7974 L3.827751,203.8537 L4.14673,202.5988 L4.46571,205.8445 L4.784689,198.6382 L5.103668,205.366 L5.422647,207.4145 L5.741627,201.9377 L6.060606,202.4931 L6.379585,201.4054 L6.698565,200.8212 L7.017544,206.2826 L7.336524,209.1075 L7.655502,209.6393 L7.974482,201.0019 L8.293461,204.4897 L8.61244,201.8205 L8.931419,207.4241 L9.250399,205.0777 L9.569378,198.2135 L9.888357,202.0511 L10.20734,204.9336 L10.52632,206.9994 L10.84529,210.0856 L11.16427,202.6218 L11.48325,194.5316 L11.80223,203.8171 L12.12121,222.7341 L12.44019,216.5385 L12.75917,197.4026 L13.07815,191.261 L13.39713,199.1705 L13.71611,206.6766 L14.03509,204.5666 L14.35407,203.9747 L14.67305,197.7869 L14.99203,197.2719 L15.311,198.1444 L15.62998,205.6428 L15.94896,190.9689 L16.26794,198.6209 L16.58692,194.72 L16.9059,199.7932 L17.22488,195.8768 L17.54386,194.3894 L17.86284,201.1076 L18.18182,194.3395 L18.5008,197.8945 L18.81978,207.3953 L19.13876,191.5338 L19.45774,200.4734 L19.77671,203.9017 L20.09569,186.4184 L20.41467,213.5369 L20.73365,194.3126 L21.05263,182.0754 L21.37161,207.0186 L21.69059,197.4257 L22.00957,206.5267 L22.32855,198.1099 L22.64753,206.5728 L22.96651,194.9967 L23.28549,196.0959 L23.60447,242.3908 L23.92344,202.4374 L24.24242,187.1102 L24.5614,207.3722 L24.88038,195.1735 L25.19936,201.5534 L25.51834,186.6182 L25.83732,209.2401 L26.1563,200.3158 L26.47528,194.205 L26.79426,208.0102 L27.11324,201.515 L27.43222,188.1402 L27.7512,231.4933 L28.07018,206.7496 L28.38916,194.3971 L28.70813,203.698 L29.02711,201.3997 L29.34609,188.1402 L29.66507,201.3382 L29.98405,220.6855 L30.30303,201.3689 L30.62201,207.3645 L30.94099,235.542 L31.25997,195.4886 L31.57895,220.3165 L31.89793,207.0109 L32.21691,214.6207 L32.53588,194.4048 L32.85486,199.4627 L33.17384,207.2338 L33.49282,194.0358 L33.8118,206.9725 L34.13078,207.1954 L34.44976,197.664 L34.76874,200.6233 L35.08772,189.2932 L35.4067,200.6003 L35.72568,207.4568 L36.04466,194.8353 L36.36364,195.6808 L36.68261,202.5373 L37.00159,200.7924 L37.32058,242.975 L37.63955,188.2247 L37.95853,236.1492 L38.27751,196.1804 L38.59649,194.6815 L38.91547,207.7796 L39.23445,188.0326 L39.55343,188.8704 L39.87241,201.8532 L40.19139,194.4817 L40.51036,182.6596 L40.82935,207.8411 L41.14833,201.9685 L41.4673,208.5636 L41.78628,208.3792 L42.10526,195.6962 L42.42424,194.5893 L42.74322,196.803 L43.0622,181.2299 L43.38118,181.7372 L43.70016,181.3682 L44.01914,194.1127 L44.33812,220.0783 L44.6571,193.1903 L44.97608,213.56 L45.29506,181.2299 L45.61403,216.8042 L45.93301,196.8184 L46.252,246.8895 L46.57097,182.7979 L46.88995,220.2012 L47.20893,240.5869 L47.52791,194.0666 L47.84689,196.9414 L48.16587,194.8506 L48.48485,252.1323 L48.80383,194.5585 L49.12281,195.7115 L49.44179,182.5366 L49.76077,193.5285 L50.07975,195.3733 L50.39872,194.6508 L50.7177,183.5205 L51.03668,196.1266 L51.35566,210.101 L51.67464,194.205 L51.99362,194.9429 L52.3126,208.9941 L52.63158,219.7402 L52.95056,209.0863 L53.26954,218.5563 L53.58852,188.0403 L53.9075,208.5944 L54.22647,205.7811 L54.54546,206.6112 L54.86444,182.1984 L55.18341,182.2906 L55.50239,207.426 L55.82137,183.6896 L56.14035,194.6354 L56.45933,181.6603 L56.77831,207.3492 L57.09729,181.3221 L57.41627,182.2291 L57.73524,220.1551 L58.05423,210.1778 L58.37321,195.6347 L58.69219,206.519 L59.01116,194.6047 L59.33014,194.082 L59.64912,182.1676 L59.9681,221.4157 L60.28708,183.5974 L60.60606,194.1896 L60.92504,193.9129 L61.24402,207.5029 L61.563,194.0973 L61.88198,206.8726 L62.20096,195.7423 L62.51994,182.06 L62.83892,195.112 L63.15789,208.4253 L63.47687,182.1523 L63.79585,195.9268 L64.11483,201.8455 L64.43382,182.6596 L64.75279,206.9956 L65.07177,202.03 L65.39075,194.4663 L65.70972,205.8579 L66.02871,184.9348 L66.34769,218.6179 L66.66667,208.5636 L66.98565,278.1858 L67.30463,251.8708 L67.6236,194.5739 L67.94258,195.4194 L68.26157,195.5117 L68.58054,193.9897 L68.89952,182.7365 L69.2185,194.0973 L69.53748,197.0798 L69.85646,245.4606 L70.17544,184.1508 L70.49442,206.6573 L70.8134,196.388 L71.13237,180.9224 L71.45135,197.7562 L71.77033,248.7654 L72.08932,206.8418 L72.40829,195.358 L72.72727,198.9861 L73.04625,197.0951 L73.36523,193.6669 L73.68421,215.6047 L74.00319,207.5182 L74.32217,182.5058 L74.64115,181.8755 L74.96013,236.9736 L75.27911,183.9509 L75.59808,208.4868 L75.91707,212.438 L76.23605,194.2357 L76.55502,195.7115 L76.87401,211.0387 L77.19298,213.2682 L77.51196,181.4143 L77.83094,181.9678 L78.14992,196.2342 L78.4689,183.4897 L78.78788,222.8455 L79.10686,208.7789 L79.42583,210.4853 L79.74481,195.65 L80.0638,221.3542 L80.38277,182.2753 L80.70176,211.8843 L81.02073,184.8887 L81.33971,205.9809 L81.65869,211.915 L81.97767,182.5827 L82.29665,181.8448 L82.61563,181.2914 L82.93461,182.3367 L83.25359,181.5066 L83.57256,207.303 L83.89155,180.7994 L84.21053,182.9824 L84.52951,207.426 L84.84849,207.2723 L85.16747,207.18 L85.48644,183.9971 L85.80542,182.2753 L86.1244,182.6442 L86.44338,181.5066 L86.76236,182.552 L87.08134,205.7657 L87.40031,181.7526 L87.7193,181.3836 L88.03828,207.7027 L88.35725,182.675 L88.67624,182.5212 L88.99522,181.5373 L89.31419,208.3177 L89.63317,183.9048 L89.95216,183.7511 L90.27113,207.7027 L90.59011,213.3909 L90.9091,206.6266 L91.22807,185.7804 L91.54705,231.5314 L91.86603,180.9839 L92.18501,207.5182 L92.50399,182.7365 L92.82297,180.8609 L93.14194,184.3045 L93.46092,205.7657 L93.77991,208.9019 L94.09888,232.1156 L94.41786,207.1185 L94.73685,182.7979 L95.05582,231.9618 L95.3748,206.8726 L95.69378,208.4406 L96.01276,207.6105 L96.33174,182.5212 L96.65072,183.1362 L96.9697,184.7657 L97.28867,183.6281 L97.60765,181.4758 L97.92664,181.6296 L98.24561,182.2138 L98.5646,187.3177 L98.88358,181.6296 L99.20255,206.3499 L99.52153,206.8726 L99.84051,182.1215 L100.1595,215.9428 L100.4785,182.7057 L100.7974,232.669 L101.1164,232.546 L101.4354,181.7833 L101.7544,182.1215 L102.0734,181.7833 L102.3923,207.4568 L102.7113,207.303 L103.0303,183.0439 L103.3493,208.0409 L103.6683,206.9033 L103.9872,234.1449 L104.3062,205.6734 L104.6252,206.4114 L104.9442,208.4099 L105.2632,181.5066 L105.5821,246.6287 L105.9011,182.0293 L106.2201,181.7526 L106.5391,309.5064 L106.858,207.549 L107.177,207.303 L107.496,206.3806 L107.815,380 L108.134,233.2224 L108.4529,206.3191 L108.7719,232.3923 L109.0909,208.6559 L109.4099,181.7526 L109.7289,182.7365 L110.0478,208.1639 L110.3668,181.937 L110.6858,182.0293 L111.0048,180.3997 L111.3238,232.3308 L111.6427,181.5066 L111.9617,209.5168 L112.2807,207.7642 L112.5997,184.9195 L112.9187,182.1523 L113.2376,208.9941 L113.5566,207.1185 L113.8756,181.0454 L114.1946,182.5827 L114.5135,181.7833 L114.8325,181.3528 L115.1515,181.3836 L115.4705,184.243 L115.7895,183.4744 L116.1085,317.2834 L116.4274,182.0293 L116.7464,194.4202 L117.0654,232.6075 L117.3844,207.3953 L117.7034,182.306 L118.0223,183.6588 L118.3413,185.5959 L118.6603,181.3836 L118.9793,225.536 L119.2982,185.0424 L119.6172,186.3031 L119.9362,206.4421 L120.2552,206.3499 L120.5742,181.1991 L120.8931,186.8872 L121.2121,181.0454 L121.5311,182.429 L121.8501,234.0219 L122.1691,206.6266 L122.488,224.0294 L122.807,181.937 L123.126,225.3208 L123.445,181.0761 L123.764,183.1669 L124.0829,206.9341 L124.4019,209.9472 L124.7209,182.3675 L125.0399,207.6412 L125.3589,181.4758 L125.6778,205.9194 L125.9968,205.4582 L126.3158,224.0601 L126.6348,181.6296 L126.9537,204.9663 L127.2727,206.2269 L127.5917,231.5314 L127.9107,182.7672 L128.2297,229.7791 L128.5486,182.3982 L128.8676,207.9487 L129.1866,182.9824 L129.5056,210.1625 L129.8246,183.4129 L130.1435,181.5373 L130.4625,206.8726 L130.7815,182.183 L131.1005,221.4157 L131.4194,184.0278 L131.7384,206.6573 L132.0574,180.9224 L132.3764,181.2606 L132.6954,183.0747 L133.0144,182.306 L133.3333,230.9165 L133.6523,183.2591 L133.9713,183.4744 L134.2903,182.8594 L134.6093,234.2678 L134.9282,183.3821 L135.2472,230.4245 L135.5662,206.1039 L135.8852,206.1962 L136.2041,181.6296 L136.5231,205.6734 L136.8421,181.3836 L137.1611,206.9033 L137.4801,237.3118 L137.799,182.1523 L138.118,231.2854 L138.437,207.3953 L138.756,232.2386 L139.075,182.2445 L139.3939,182.06 L139.7129,205.7042 L140.0319,181.4758 L140.3509,207.8257 L140.6699,209.1786 L140.9888,208.7174 L141.3078,183.4436 L141.6268,184.0893 L141.9458,182.2445 L142.2647,230.117 L142.5837,183.3206 L142.9027,182.675 L143.2217,184.7965 L143.5407,182.3982 L143.8596,206.5651 L144.1786,205.6734 L144.4976,184.2738 L144.8166,184.1815 L145.1356,184.4275 L145.4545,231.3777 L145.7735,206.6573 L146.0925,182.1523 L146.4115,206.5344 L146.7305,183.9048 L147.0494,207.5797 L147.3684,182.7979 L147.6874,207.7027 L148.0064,206.8726 L148.3254,205.7042 L148.6443,206.6573 L148.9633,181.1069 L149.2823,182.7979 L149.6013,206.2269 L149.9203,209.3323 L150.2392,241.1243 L150.5582,181.0146 L150.8772,234.2678 L151.1962,181.0761 L151.5152,230.8242 L151.8341,183.6281 L152.1531,211.1463 L152.4721,206.4114 L152.7911,207.18 L153.11,181.937 L153.429,182.1523 L153.748,181.2299 L154.067,206.5651 L154.386,206.9648 L154.7049,210.2854 L155.0239,181.5373 L155.3429,181.4451 L155.6619,182.06 L155.9809,183.3514 L156.2998,207.6412 L156.6188,205.9502 L156.9378,180.8916 L157.2568,209.0863 L157.5758,182.2138 L157.8947,206.0117 L158.2137,205.2122 L158.5327,209.5475 L158.8517,206.8111 L159.1707,181.4758 L159.4896,205.5505 L159.8086,180.4305 L160.1276,230.7935 L160.4466,181.7218 L160.7655,231.6544 L161.0845,252.4391 L161.4035,189.9004 L161.7225,187.4407 L162.0415,232.2693 L162.3604,180.6764 L162.6794,180 L162.9984,232.5153 L163.3174,231.2854 L163.6364,230.24 L163.9553,181.4143 L164.2743,185.9648 L164.5933,184.4275 L164.9123,181.4758 L165.2313,181.2914 L165.5502,232.2693 L165.8692,183.6896 L166.1882,180.3075 L166.5072,181.2914 L166.8262,182.9517 L167.1451,235.8974 L167.4641,232.7612 L167.7831,232.5153 L168.1021,182.3982 L168.4211,180.9839 L168.74,250.8403 L169.059,181.0454 L169.378,182.6442 L169.697,232.0233 L170.0159,180.6764 L170.3349,228.5182 L170.6539,180.6149 L170.9729,184.4275 L171.2919,181.7218 L171.6108,180.7994 L171.9298,234.852 L172.2488,185.1654 L172.5678,182.8287 L172.8868,231.9618 L173.2057,182.3367 L173.5247,181.4143 L173.8437,233.6222 L174.1627,182.8287 L174.4817,232.5768 L174.8006,181.8448 L175.1196,181.4758 L175.4386,181.5373 L175.7576,181.3528 L176.0766,181.7218 L176.3955,230.486 L176.7145,230.486 L177.0335,181.7833 L177.3525,230.978 L177.6715,232.0848 L177.9904,181.7833 L178.3094,183.5051 L178.6284,181.1069 L178.9474,229.8096 L179.2663,182.3982 L179.5853,230.6705 L179.9043,181.6603 L180.2233,181.1069 L180.5423,182.9517 L180.8613,238.6646 L181.1802,232.0233 L181.4992,232.2078 L181.8182,230.732 L182.1372,180.9839 L182.4561,233.6837 L182.7751,182.0293 L183.0941,190.0849 L183.4131,180.1845 L183.7321,181.8448 L184.051,181.9063 L184.37,230.978 L184.689,181.1069 L185.008,233.4992 L185.327,181.2914 L185.6459,183.1976 L185.9649,233.8066 L186.2839,182.3367 L186.6029,195.4348 L186.9218,183.8741 L187.2408,229.3791 L187.5598,231.6544 L187.8788,232.1463 L188.1978,183.6281 L188.5168,235.5284 L188.8357,181.1069 L189.1547,183.1976 L189.4737,182.7057 L189.7927,181.1684 L190.1116,232.5153 L190.4306,182.3982 L190.7496,184.243 L191.0686,182.6442 L191.3876,180.9224 L191.7065,183.6896 L192.0255,189.101 L192.3445,182.7672 L192.6635,181.4143 L192.9825,182.3982 L193.3014,183.0132 L193.6204,238.8491 L193.9394,231.1624 L194.2584,232.6383 L194.5773,180.7994 L194.8963,181.2914 L195.2153,182.2753 L195.5343,182.6442 L195.8533,181.3528 L196.1723,182.0293 L196.4912,182.7672 L196.8102,183.2591 L197.1292,182.0293 L197.4482,235.221 L197.7672,229.5636 L198.0861,182.3982 L198.4051,181.9678 L198.7241,180.8609 L199.0431,182.7672 L199.362,181.1684 L199.681,231.1624 L200,181.8448 " stroke="blue" fill="none" />
<text x="10" y="400" font-family="Arial" font-size="12" fill="black">Episode Length</text>
<path d="M10,622.6791 L210,622.6791" stroke="gray" />
<text x="5" y="627.6791" font-family="Arial" font-size="10" fill="black">0</text>
<text x="5" y="420" font-family="Arial" font-size="10" fill="black">2496.5</text>
<text x="5" y="620" font-family="Arial" font-size="10" fill="black">33</text>
<path d="M0.3189793,616.2515 L0.6379585,615.4828 L0.9569378,614.9399 L1.275917,615.6832 L1.594896,614.7914 L1.913876,616.2477 L2.232855,615.2583 L2.551834,615.4244 L2.870813,616.0245 L3.189792,615.257 L3.508772,614.9855 L3.827751,613.4925 L4.14673,615.6566 L4.46571,615.4308 L4.784689,616.3187 L5.103668,615.0477 L5.422647,615.3876 L5.741627,614.4997 L6.060606,615.7961 L6.379585,615.2025 L6.698565,615.9737 L7.017544,615.8672 L7.336524,615.1822 L7.655502,604.3312 L7.974482,613.7056 L8.293461,615.1898 L8.61244,615.6693 L8.931419,615.375 L9.250399,616.4431 L9.569378,615.3572 L9.888357,614.35 L10.20734,614.6037 L10.52632,615.9357 L10.84529,613.8908 L11.16427,613.5965 L11.48325,616.1589 L11.80223,616.0778 L12.12121,599.2216 L12.44019,615.5196 L12.75917,616.4279 L13.07815,616.4177 L13.39713,614.0938 L13.71611,616.3619 L14.03509,615.0883 L14.35407,615.8697 L14.67305,615.9204 L14.99203,616.6003 L15.311,615.4485 L15.62998,609.6083 L15.94896,616.8033 L16.26794,614.8193 L16.58692,615.9103 L16.9059,613.2718 L17.22488,616.4126 L17.54386,616.3467 L17.86284,615.5957 L18.18182,616.4126 L18.5008,615.7784 L18.81978,615.413 L19.13876,616.0574 L19.45774,616.4329 L19.77671,615.9661 L20.09569,614.6925 L20.41467,615.4232 L20.73365,616.4481 L21.05263,616.3669 L21.37161,615.9103 L21.69059,612.3381 L22.00957,616.5598 L22.32855,603.3164 L22.64753,616.4989 L22.96651,615.545 L23.28549,614.0938 L23.60447,565.1492 L23.92344,613.8401 L24.24242,617.8384 L24.5614,615.4435 L24.88038,615.3115 L25.19936,615.0071 L25.51834,614.4286 L25.83732,612.9775 L26.1563,616.6409 L26.47528,616.5902 L26.79426,614.6012 L27.11324,615.0579 L27.43222,616.4786 L27.7512,583.5985 L28.07018,616.2655 L28.38916,616.3365 L28.70813,616.235 L29.02711,615.2101 L29.34609,616.4786 L29.66507,615.2913 L29.98405,614.1039 L30.30303,615.2507 L30.62201,615.4536 L30.94099,566.0726 L31.25997,614.8954 L31.57895,614.591 L31.89793,615.9204 L32.21691,613.9923 L32.53588,616.3264 L32.85486,609.6489 L33.17384,615.6262 L33.49282,616.8135 L33.8118,615.9712 L34.13078,615.6769 L34.44976,616.0828 L34.76874,616.235 L35.08772,614.9564 L35.4067,616.2655 L35.72568,615.3318 L36.04466,615.7581 L36.36364,614.6418 L36.68261,613.7081 L37.00159,616.0118 L37.32058,564.3779 L37.63955,616.3669 L37.95853,565.2709 L38.27751,613.9821 L38.59649,615.9611 L38.91547,614.9056 L39.23445,616.6207 L39.55343,615.5145 L39.87241,614.6113 L40.19139,616.2249 L40.51036,615.5957 L40.82935,614.8245 L41.14833,614.4591 L41.4673,613.8705 L41.78628,614.1141 L42.10526,614.6215 L42.42424,616.0828 L42.74322,613.1602 L43.0622,617.4833 L43.38118,616.8135 L43.70016,617.3006 L44.01914,616.712 L44.33812,614.9056 L44.6571,617.9297 L44.97608,607.2742 L45.29506,617.4833 L45.61403,586.7546 L45.93301,613.1398 L46.252,595.7459 L46.57097,615.413 L46.88995,614.7432 L47.20893,571.5933 L47.52791,616.7729 L47.84689,612.9775 L48.16587,615.7378 L48.48485,572.5878 L48.80383,616.1234 L49.12281,614.6012 L49.44179,615.7581 L49.76077,617.4833 L50.07975,615.0477 L50.39872,616.0016 L50.7177,614.4591 L51.03668,614.0532 L51.35566,611.8409 L51.67464,616.5902 L51.99362,615.616 L52.3126,613.3022 L52.63158,599.1151 L52.95056,613.1804 L53.26954,616.915 L53.58852,616.6105 L53.9075,613.8299 L54.22647,617.5441 L54.54546,616.4481 L54.86444,616.2046 L55.18341,616.0828 L55.50239,615.3724 L55.82137,614.2358 L56.14035,616.0219 L56.45933,616.915 L56.77831,615.4739 L57.09729,617.3615 L57.41627,616.164 L57.73524,614.8041 L58.05423,611.7394 L58.37321,614.7026 L58.69219,616.5699 L59.01116,616.0625 L59.33014,616.7526 L59.64912,616.2452 L59.9681,613.1398 L60.28708,614.3576 L60.60606,616.6105 L60.92504,616.9758 L61.24402,615.2709 L61.563,616.7323 L61.88198,616.1031 L62.20096,614.5606 L62.51994,616.3873 L62.83892,615.3928 L63.15789,614.0532 L63.47687,616.2655 L63.79585,614.317 L64.11483,614.6215 L64.43382,615.5957 L64.75279,615.9407 L65.07177,614.3779 L65.39075,616.2452 L65.70972,617.4427 L66.02871,612.5919 L66.34769,600.5967 L66.66667,613.8705 L66.98565,513.8299 L67.30463,581.0513 L67.6236,616.1031 L67.94258,614.9868 L68.26157,614.8651 L68.58054,616.8744 L68.89952,615.4942 L69.2185,616.7323 L69.53748,612.7948 L69.85646,548.9222 L70.17544,613.627 L70.49442,616.3873 L70.8134,613.7081 L71.13237,617.8892 L71.45135,611.9018 L71.77033,577.0327 L72.08932,616.1437 L72.40829,615.068 L72.72727,610.2781 L73.04625,612.7745 L73.36523,617.3006 L73.68421,604.5748 L74.00319,615.2507 L74.32217,615.7986 L74.64115,616.6308 L74.96013,608.837 L75.27911,613.8908 L75.59808,613.972 L75.91707,592.5188 L76.23605,616.5496 L76.55502,614.6012 L76.87401,610.6028 L77.19298,591.4228 L77.51196,617.2397 L77.83094,616.509 L78.14992,613.9111 L78.4689,614.4997 L78.78788,611.2523 L79.10686,613.5864 L79.42583,611.3335 L79.74481,614.6824 L80.0638,613.221 L80.38277,616.1031 L80.70176,609.4865 L81.02073,612.6527 L81.33971,617.2803 L81.65869,609.4459 L81.97767,615.6972 L82.29665,616.6714 L82.61563,617.4021 L82.93461,616.0219 L83.25359,617.1179 L83.57256,615.5348 L83.89155,618.0516 L84.21053,615.1695 L84.52951,615.3724 L84.84849,615.5754 L85.16747,615.6972 L85.48644,613.8299 L85.80542,616.1031 L86.1244,615.616 L86.44338,617.1179 L86.76236,615.7378 L87.08134,617.5645 L87.40031,616.7932 L87.7193,617.2803 L88.03828,615.0071 L88.35725,615.5754 L88.67624,615.7784 L88.99522,617.0773 L89.31419,614.1953 L89.63317,613.9517 L89.95216,614.1547 L90.27113,615.0071 L90.59011,607.4974 L90.9091,616.4279 L91.22807,611.4755 L91.54705,616.0219 L91.86603,617.808 L92.18501,615.2507 L92.50399,615.4942 L92.82297,617.9703 L93.14194,613.424 L93.46092,617.5645 L93.77991,613.424 L94.09888,615.2507 L94.41786,615.7784 L94.73685,615.413 L95.05582,615.4536 L95.3748,616.1031 L95.69378,614.0329 L96.01276,615.1289 L96.33174,615.7784 L96.65072,614.9665 L96.9697,612.8151 L97.28867,614.317 L97.60765,617.1585 L97.92664,616.9556 L98.24561,616.1843 L98.5646,609.4459 L98.88358,616.9556 L99.20255,616.7932 L99.52153,616.1031 L99.84051,616.3061 L100.1595,604.1283 L100.4785,615.5348 L100.7974,614.52 L101.1164,614.6824 L101.4354,616.7526 L101.7544,616.3061 L102.0734,616.7526 L102.3923,615.3318 L102.7113,615.5348 L103.0303,615.0883 L103.3493,614.5606 L103.6683,616.0625 L103.9872,612.5715 L104.3062,617.6862 L104.6252,616.712 L104.9442,614.0735 L105.2632,617.1179 L105.5821,563.6168 L105.9011,616.4279 L106.2201,616.7932 L106.5391,513.079 L106.858,615.2101 L107.177,615.5348 L107.496,616.7526 L107.815,420 L108.134,613.7893 L108.4529,616.8338 L108.7719,614.8853 L109.0909,613.7487 L109.4099,616.7932 L109.7289,615.4942 L110.0478,614.3982 L110.3668,616.5496 L110.6858,616.4279 L111.0048,618.5793 L111.3238,614.9665 L111.6427,617.1179 L111.9617,612.6121 L112.2807,614.9259 L112.5997,612.6121 L112.9187,616.2655 L113.2376,613.3022 L113.5566,615.7784 L113.8756,617.7268 L114.1946,615.6972 L114.5135,616.7526 L114.8325,617.3209 L115.1515,617.2803 L115.4705,613.5052 L115.7895,614.52 L116.1085,470.3349 L116.4274,616.4279 L116.7464,616.3061 L117.0654,614.6012 L117.3844,615.413 L117.7034,616.0625 L118.0223,614.2764 L118.3413,611.7191 L118.6603,617.2803 L118.9793,591.4634 L119.2982,612.4498 L119.6172,610.7855 L119.9362,616.6714 L120.2552,616.7932 L120.5742,617.5239 L120.8931,610.0142 L121.2121,617.7268 L121.5311,615.9001 L121.8501,612.7339 L122.1691,616.4279 L122.488,593.4524 L122.807,616.5496 L123.126,591.7475 L123.445,617.6862 L123.764,614.9259 L124.0829,616.0219 L124.4019,612.0438 L124.7209,615.9813 L125.0399,615.0883 L125.3589,617.1585 L125.6778,617.3615 L125.9968,617.9703 L126.3158,593.4118 L126.6348,616.9556 L126.9537,618.6199 L127.2727,616.9556 L127.5917,616.0219 L127.9107,615.4536 L128.2297,585.8616 L128.5486,615.9407 L128.8676,614.6824 L129.1866,615.1695 L129.5056,611.7597 L129.8246,614.6012 L130.1435,617.0773 L130.4625,616.1031 L130.7815,616.2249 L131.1005,613.1398 L131.4194,613.7893 L131.7384,616.3873 L132.0574,617.8892 L132.3764,617.4427 L132.6954,615.0477 L133.0144,616.0625 L133.3333,616.8338 L133.6523,614.8041 L133.9713,614.52 L134.2903,615.3318 L134.6093,612.4092 L134.9282,614.6418 L135.2472,617.4833 L135.5662,617.1179 L135.8852,616.9962 L136.2041,616.9556 L136.5231,617.6862 L136.8421,617.2803 L137.1611,616.0625 L137.4801,608.3905 L137.799,616.2655 L138.118,616.3467 L138.437,615.413 L138.756,615.0883 L139.075,616.1437 L139.3939,616.3873 L139.7129,617.6456 L140.0319,617.1585 L140.3509,614.8447 L140.6699,613.0587 L140.9888,613.6675 L141.3078,614.5606 L141.6268,613.7081 L141.9458,616.1437 L142.2647,617.8892 L142.5837,614.723 L142.9027,615.5754 L143.2217,612.7745 L143.5407,615.9407 L143.8596,616.509 L144.1786,617.6862 L144.4976,613.4646 L144.8166,613.5864 L145.1356,613.2616 L145.4545,616.2249 L145.7735,616.3873 L146.0925,616.2655 L146.4115,616.5496 L146.7305,613.9517 L147.0494,615.1695 L147.3684,615.413 L147.6874,615.0071 L148.0064,616.1031 L148.3254,617.6456 L148.6443,616.3873 L148.9633,617.6456 L149.2823,615.413 L149.6013,616.9556 L149.9203,612.8557 L150.2392,603.357 L150.5582,617.7674 L150.8772,612.4092 L151.1962,617.6862 L151.5152,616.9556 L151.8341,614.317 L152.1531,610.4608 L152.4721,616.712 L152.7911,615.6972 L153.11,616.5496 L153.429,616.2655 L153.748,617.4833 L154.067,616.509 L154.386,615.9813 L154.7049,611.5974 L155.0239,617.0773 L155.3429,617.1991 L155.6619,616.3873 L155.9809,614.6824 L156.2998,615.0883 L156.6188,617.3209 L156.9378,617.9297 L157.2568,613.1804 L157.5758,616.1843 L157.8947,617.2397 L158.2137,618.2951 L158.5327,612.5715 L158.8517,616.1843 L159.1707,617.1585 L159.4896,617.8486 L159.8086,618.5386 L160.1276,616.9962 L160.4466,616.8338 L160.7655,615.8596 L161.0845,588.4189 L161.4035,606.0361 L161.7225,609.2836 L162.0415,615.0477 L162.3604,618.2139 L162.6794,619.1069 L162.9984,614.723 L163.3174,616.3467 L163.6364,617.7268 L163.9553,617.2397 L164.2743,611.232 L164.5933,613.2616 L164.9123,617.1585 L165.2313,617.4021 L165.5502,615.0477 L165.8692,614.2358 L166.1882,618.701 L166.5072,617.4021 L166.8262,615.2101 L167.1451,610.2578 L167.4641,614.3982 L167.7831,614.723 L168.1021,615.9407 L168.4211,617.808 L168.74,590.5297 L169.059,617.7268 L169.378,615.616 L169.697,615.3724 L170.0159,618.2139 L170.3349,620 L170.6539,618.2951 L170.9729,613.2616 L171.2919,616.8338 L171.6108,618.0516 L171.9298,611.6379 L172.2488,612.2874 L172.5678,615.3724 L172.8868,615.4536 L173.2057,616.0219 L173.5247,617.2397 L173.8437,613.2616 L174.1627,615.3724 L174.4817,614.6418 L174.8006,616.6714 L175.1196,617.1585 L175.4386,617.0773 L175.7576,617.3209 L176.0766,616.8338 L176.3955,617.4021 L176.7145,617.4021 L177.0335,616.7526 L177.3525,616.7526 L177.6715,615.2913 L177.9904,616.7526 L178.3094,614.4794 L178.6284,617.6456 L178.9474,618.2951 L179.2663,615.9407 L179.5853,617.1585 L179.9043,616.915 L180.2233,617.6456 L180.5423,615.2101 L180.8613,606.6044 L181.1802,615.3724 L181.4992,615.1289 L181.8182,617.0773 L182.1372,617.808 L182.4561,613.1804 L182.7751,616.4279 L183.0941,605.7925 L183.4131,618.8634 L183.7321,616.6714 L184.051,616.5902 L184.37,616.7526 L184.689,617.6456 L185.008,613.424 L185.327,617.4021 L185.6459,614.8853 L185.9649,613.0181 L186.2839,616.0219 L186.6029,598.7294 L186.9218,613.9923 L187.2408,618.8634 L187.5598,615.8596 L187.8788,615.2101 L188.1978,614.317 L188.5168,610.7449 L188.8357,617.6456 L189.1547,614.8853 L189.4737,615.5348 L189.7927,617.5645 L190.1116,614.723 L190.4306,615.9407 L190.7496,613.5052 L191.0686,615.616 L191.3876,617.8892 L191.7065,614.2358 L192.0255,607.0916 L192.3445,615.4536 L192.6635,617.2397 L192.9825,615.9407 L193.3014,615.1289 L193.6204,606.3608 L193.9394,616.509 L194.2584,614.5606 L194.5773,618.0516 L194.8963,617.4021 L195.2153,616.1031 L195.5343,615.616 L195.8533,617.3209 L196.1723,616.4279 L196.4912,615.4536 L196.8102,614.8041 L197.1292,616.4279 L197.4482,611.1508 L197.7672,618.6199 L198.0861,615.9407 L198.4051,616.509 L198.7241,617.9703 L199.0431,615.4536 L199.362,617.5645 L199.681,616.509 L200,616.6714 " stroke="blue" fill="none" />
<text x="10" y="640" font-family="Arial" font-size="12" fill="black">Policy Loss</text>
<path d="M10,922.1826 L210,922.1826" stroke="gray" />
<text x="5" y="927.1826" font-family="Arial" font-size="10" fill="black">0</text>
<text x="5" y="660" font-family="Arial" font-size="10" fill="black">0.005402178</text>
<text x="5" y="860" font-family="Arial" font-size="10" fill="black">0.001281249</text>
<path d="M0.2631579,684.4674 L0.5263158,745.8605 L0.7894737,762.4028 L1.052632,786.3484 L1.315789,751.551 L1.578947,722.4061 L1.842105,806.332 L2.105263,786.4167 L2.368421,789.4851 L2.631579,778.2141 L2.894737,777.782 L3.157895,791.7745 L3.421052,798.6776 L3.68421,759.6934 L3.947368,810.9087 L4.210526,773.3117 L4.473684,780.0657 L4.736842,784.6533 L5,808.4914 L5.263158,771.906 L5.526316,775.1095 L5.789474,743.6157 L6.052631,760.9911 L6.315789,714.1246 L6.578948,809.4648 L6.842105,784.9198 L7.105263,741.7917 L7.368421,781.4287 L7.631579,766.53 L7.894736,761.4732 L8.157895,758.6938 L8.421053,743.3796 L8.684211,745.4731 L8.947369,806.094 L9.210526,834.2004 L9.473684,762.6945 L9.736842,762.0187 L10,751.7282 L10.26316,800.1752 L10.52632,811.0469 L10.78947,794.3642 L11.05263,775.2535 L11.31579,766.1704 L11.57895,798.0905 L11.84211,800.5207 L12.10526,719.5648 L12.36842,802.308 L12.63158,775.4594 L12.89474,763.2902 L13.1579,807.0911 L13.42105,746.6439 L13.68421,796.3298 L13.94737,790.0928 L14.21053,785.7532 L14.47368,766.312 L14.73684,782.4185 L15,827.8718 L15.26316,810.6219 L15.52632,814.9933 L15.78947,796.0607 L16.05263,770.3444 L16.31579,800.8715 L16.57895,748.9252 L16.84211,734.0214 L17.10526,767.6648 L17.36842,771.3744 L17.63158,835.011 L17.89474,780.6198 L18.15789,729.0039 L18.42105,781.3726 L18.68421,731.6053 L18.94737,791.0087 L19.21053,773.8049 L19.47368,771.062 L19.73684,781.1945 L20,741.898 L20.26316,750.6883 L20.52632,759.4149 L20.78947,768.236 L21.05263,776.9599 L21.31579,780.1739 L21.57895,775.0223 L21.84211,796.8596 L22.10526,756.4451 L22.36842,753.7734 L22.63158,759.866 L22.89474,747.5054 L23.15789,757.0627 L23.42105,758.0089 L23.68421,781.766 L23.94737,754.3177 L24.21053,780.5657 L24.47368,818.5671 L24.73684,734.4817 L25,760.4941 L25.26316,802.8122 L25.52632,817.5548 L25.78947,723.8506 L26.05263,794.0202 L26.31579,787.5911 L26.57895,771.1483 L26.84211,762.4212 L27.10526,751.6412 L27.36842,794.291 L27.63158,759.3956 L27.89474,805.0692 L28.1579,799.7031 L28.42105,753.1907 L28.68421,777.7126 L28.94737,747.3221 L29.21053,805.3875 L29.47368,769.6415 L29.73684,755.5942 L30,745.2991 L30.26316,725.5059 L30.52632,831.9787 L30.78947,749.0085 L31.05263,811.6008 L31.31579,776.1029 L31.57895,774.7987 L31.84211,783.9255 L32.10526,787.5825 L32.36842,759.7466 L32.63158,767.6158 L32.89474,741.2237 L33.15789,769.9129 L33.42105,741.4976 L33.68421,776.0621 L33.94737,749.324 L34.21053,766.7946 L34.47369,794.7446 L34.73684,781.9683 L35,779.2498 L35.26316,782.4739 L35.52631,774.4875 L35.78947,810.2507 L36.05263,771.5899 L36.31579,807.8493 L36.57895,804.3693 L36.84211,807.671 L37.10526,789.1617 L37.36842,733.9069 L37.63158,809.778 L37.89474,777.556 L38.15789,799.046 L38.42105,827.2027 L38.68421,752.9312 L38.94737,772.5064 L39.21053,805.6915 L39.47369,762.6321 L39.73684,775.6069 L40,790.5923 L40.26316,781.834 L40.52631,777.4149 L40.78947,834.1833 L41.05263,737.6283 L41.31579,741.1945 L41.57895,818.305 L41.84211,773.3737 L42.10526,761.9142 L42.36842,777.8458 L42.63158,789.004 L42.89474,795.1922 L43.15789,817.9943 L43.42105,812.9873 L43.68421,769.9716 L43.94737,754.7897 L44.21053,778.5941 L44.47368,778.0948 L44.73684,783.143 L45,764.7637 L45.26316,783.011 L45.52632,782.9746 L45.78947,728.8835 L46.05263,779.0002 L46.31579,829.0222 L46.57895,793.4313 L46.84211,806.1323 L47.10526,759.7247 L47.36842,782.4776 L47.63158,724.8625 L47.89474,755.0057 L48.15789,790.7736 L48.42105,793.9001 L48.68421,771.8652 L48.94737,807.0317 L49.21053,770.295 L49.47369,801.9014 L49.73684,836.2407 L50,779.2767 L50.26316,777.1311 L50.52631,770.0544 L50.78947,796.9094 L51.05263,746.2081 L51.31579,790.8152 L51.57895,761.339 L51.84211,829.8145 L52.10527,822.4006 L52.36842,778.1481 L52.63158,780.2003 L52.89474,776.1601 L53.15789,765.0215 L53.42105,778.0455 L53.68421,780.0876 L53.94737,753.1509 L54.21053,764.7949 L54.47369,753.5455 L54.73684,759.874 L55,740.0866 L55.26316,760.5131 L55.52632,806.502 L55.78948,803.6995 L56.05263,784.4603 L56.31579,763.3006 L56.57895,779.7062 L56.84211,777.4689 L57.10526,776.8349 L57.36842,781.9789 L57.63158,778.9033 L57.89474,737.5753 L58.1579,773.6349 L58.42105,827.1719 L58.68421,743.1134 L58.94736,773.9919 L59.21053,731.8665 L59.47368,763.8836 L59.73684,797.1467 L60,790.9393 L60.26316,787.0668 L60.52632,804.7534 L60.78947,758.4373 L61.05263,781.261 L61.31579,773.81 L61.57895,771.6025 L61.84211,730.1452 L62.10526,773.8995 L62.36842,754.2997 L62.63158,753.688 L62.89474,763.6959 L63.15789,759.7001 L63.42105,734.5649 L63.68421,794.252 L63.94737,832.8633 L64.21053,755.1334 L64.47369,759.533 L64.73685,772.348 L65,739.1689 L65.26316,769.3804 L65.52632,768.9627 L65.78947,809.8279 L66.05264,797.8004 L66.31579,777.5652 L66.57895,788.8923 L66.8421,752.1555 L67.10526,840.3174 L67.36842,759.3895 L67.63158,789.8517 L67.89474,766.5388 L68.15789,791.0977 L68.42105,787.2585 L68.68421,768.408 L68.94737,777.299 L69.21053,782.4682 L69.47369,789.4402 L69.73685,799.4625 L70,776.8005 L70.26316,809.8409 L70.52631,782.54 L70.78947,807.1703 L71.05263,808.8778 L71.31579,834.4173 L71.57895,838.0753 L71.8421,681.1208 L72.10526,805.8771 L72.36842,749.2235 L72.63158,765.0132 L72.89474,811.3952 L73.1579,798.8314 L73.42106,810.7706 L73.68421,743.7584 L73.94737,808.2317 L74.21053,794.4205 L74.47369,721.3107 L74.73684,764.6933 L75,758.1982 L75.26316,745.7281 L75.52631,776.89 L75.78947,768.5723 L76.05263,750.7261 L76.31579,773.6622 L76.57894,779.0272 L76.8421,744.3809 L77.10526,777.8616 L77.36842,801.3867 L77.63158,774.2413 L77.89474,804.8573 L78.1579,774.9172 L78.42105,788.6901 L78.68421,782.2166 L78.94737,706.6995 L79.21053,830.6945 L79.47369,781.9146 L79.73684,804.1099 L80,803.7471 L80.26315,707.0566 L80.52631,805.2838 L80.78947,821.9285 L81.05263,803.7264 L81.31579,790.2011 L81.57895,745.2619 L81.84211,756.1522 L82.10526,774.1004 L82.36842,771.2135 L82.63158,774.3777 L82.89474,803.5169 L83.1579,793.9299 L83.42105,837.4605 L83.68421,745.9827 L83.94736,766.8736 L84.21053,812.1553 L84.47368,779.5933 L84.73684,736.4448 L85,768.4595 L85.26315,801.5215 L85.52631,752.4942 L85.78947,774.3211 L86.05264,808.5372 L86.31579,765.3765 L86.57895,806.8817 L86.84211,795.3831 L87.10526,812.0318 L87.36842,837.6944 L87.63158,780.5952 L87.89474,860 L88.15789,789.1171 L88.42105,800.4919 L88.68421,776.814 L88.94736,738.1351 L89.21053,798.3516 L89.47369,773.4979 L89.73685,788.7986 L90,720.7936 L90.26316,827.0685 L90.52632,768.7543 L90.78947,773.8718 L91.05264,799.9664 L91.31579,780.6645 L91.57895,757.4283 L91.8421,789.1302 L92.10526,806.5986 L92.36842,824.0466 L92.63158,772.4293 L92.89474,738.171 L93.15789,766.5208 L93.42105,799.3926 L93.68421,793.9624 L93.94737,745.4412 L94.21053,786.0334 L94.47369,830.0115 L94.73685,750.1395 L95,745.0669 L95.26316,755.2675 L95.52631,798.3432 L95.78947,736.0807 L96.05263,776.6386 L96.31579,800.4862 L96.57895,820.1907 L96.8421,726.5538 L97.10526,827.1843 L97.36842,805.8752 L97.63158,796.572 L97.89474,757.1077 L98.1579,800.0618 L98.42106,740.2499 L98.68421,798.6699 L98.94737,706.7468 L99.21053,826.4178 L99.47369,755.1624 L99.73684,789.8782 L100,715.4495 L100.2632,767.032 L100.5263,781.1208 L100.7895,784.0531 L101.0526,797.7109 L101.3158,767.4286 L101.5789,775.4966 L101.8421,711.8678 L102.1053,752.586 L102.3684,691.1854 L102.6316,795.183 L102.8947,765.3342 L103.1579,750.5596 L103.4211,738.3579 L103.6842,783.0722 L103.9474,770.2376 L104.2105,812.9221 L104.4737,764.4603 L104.7368,795.6301 L105,798.9548 L105.2632,755.7717 L105.5263,780.0195 L105.7895,756.1656 L106.0526,814.0322 L106.3158,801.9114 L106.5789,765.618 L106.8421,771.7325 L107.1053,788.296 L107.3684,759.3864 L107.6316,764.6952 L107.8947,781.5454 L108.1579,810.0776 L108.4211,770.8683 L108.6842,788.6332 L108.9474,833.6264 L109.2105,768.2831 L109.4737,814.0645 L109.7368,786.5369 L110,783.1058 L110.2632,741.4837 L110.5263,821.4701 L110.7895,798.3248 L111.0526,806.1316 L111.3158,773.9482 L111.579,843.9091 L111.8421,713.2295 L112.1053,791.3347 L112.3684,794.7471 L112.6316,781.1394 L112.8947,819.2692 L113.1579,800.228 L113.421,804.2065 L113.6842,703.7322 L113.9474,781.5161 L114.2105,766.7932 L114.4737,736.6793 L114.7368,795.8378 L115,772.5495 L115.2632,804.0352 L115.5263,813.2526 L115.7895,785.7856 L116.0526,799.743 L116.3158,786.549 L116.5789,760.4528 L116.8421,806.6266 L117.1053,791.0399 L117.3684,774.4628 L117.6316,796.0988 L117.8947,762.5224 L118.1579,660 L118.4211,788.5026 L118.6842,771.9925 L118.9474,784.8655 L119.2105,758.1263 L119.4737,766.7136 L119.7368,720.7429 L120,714.5789 L120.2632,759.2404 L120.5263,765.2801 L120.7895,694.1319 L121.0526,795.4893 L121.3158,775.2118 L121.5789,772.2888 L121.8421,775.4818 L122.1053,817.4011 L122.3684,831.1921 L122.6316,746.9774 L122.8947,762.2974 L123.1579,741.6257 L123.4211,791.6841 L123.6842,753.9967 L123.9474,791.7474 L124.2105,765.2024 L124.4737,728.5367 L124.7368,761.0844 L125,815.7254 L125.2632,713.0466 L125.5263,809.2505 L125.7895,788.444 L126.0526,743.6233 L126.3158,773.3087 L126.5789,750.131 L126.8421,800.6449 L127.1053,806.2585 L127.3684,792.8636 L127.6316,780.2172 L127.8947,795.1439 L128.1579,799.8209 L128.4211,781.9553 L128.6842,730.8141 L128.9474,809.6402 L129.2105,787.1398 L129.4737,825.9194 L129.7368,770.6652 L130,779.707 L130.2632,758.6683 L130.5263,763.7181 L130.7895,725.6391 L131.0526,778.066 L131.3158,739.4663 L131.5789,784.0496 L131.8421,780.1588 L132.1053,812.3705 L132.3684,752.696 L132.6316,808.0493 L132.8947,733.7441 L133.1579,752.6637 L133.4211,799.739 L133.6842,798.8011 L133.9474,762.9813 L134.2105,735.9979 L134.4737,763.6982 L134.7368,752.1529 L135,725.7023 L135.2632,794.019 L135.5263,771.6863 L135.7895,820.9264 L136.0526,807.5684 L136.3158,810.0558 L136.5789,759.089 L136.8421,793.9085 L137.1053,775.9039 L137.3684,792.3447 L137.6316,771.6084 L137.8947,777.4293 L138.1579,811.4731 L138.4211,787.7594 L138.6842,793.8839 L138.9474,806.3233 L139.2105,818.0224 L139.4737,806.6063 L139.7368,727.91 L140,775.6647 L140.2632,740.8163 L140.5263,816.5222 L140.7895,803.4698 L141.0526,798.4854 L141.3158,719.2648 L141.5789,777.0378 L141.8421,733.2523 L142.1053,801.5345 L142.3684,762.1022 L142.6316,796.0634 L142.8947,779.5968 L143.1579,765.5903 L143.4211,770.4643 L143.6842,755.8942 L143.9474,741.0031 L144.2105,730.842 L144.4737,750.7272 L144.7368,768.4894 L145,746.4199 L145.2632,768.0701 L145.5263,824.045 L145.7895,747.7979 L146.0526,763.6094 L146.3158,763.3812 L146.5789,767.9984 L146.8421,784.6006 L147.1053,736.3347 L147.3684,749.7054 L147.6316,752.3079 L147.8947,757.5252 L148.1579,772.3038 L148.4211,786.2075 L148.6842,769.421 L148.9474,751.9676 L149.2105,742.267 L149.4737,829.605 L149.7368,781.7922 L150,816.4403 L150.2632,772.9622 L150.5263,782.7667 L150.7895,805.6436 L151.0526,808.4765 L151.3158,754.917 L151.5789,738.1406 L151.8421,774.7996 L152.1053,768.6935 L152.3684,815.8591 L152.6316,767.0444 L152.8947,767.936 L153.1579,816.2582 L153.4211,799.8911 L153.6842,710.6666 L153.9474,805.3074 L154.2105,812.2921 L154.4737,766.1094 L154.7368,768.9429 L155,815.0818 L155.2632,822.2772 L155.5263,748.973 L155.7895,754.8594 L156.0526,774.6737 L156.3158,728.9034 L156.5789,786.8015 L156.8421,768.111 L157.1053,826.8408 L157.3684,787.2645 L157.6316,787.618 L157.8947,761.6889 L158.1579,808.7461 L158.4211,813.8422 L158.6842,813.2849 L158.9474,754.5713 L159.2105,720.9324 L159.4737,777.6146 L159.7368,819.0485 L160,734.4918 L160.2632,752.9492 L160.5263,797.3881 L160.7895,752.6028 L161.0526,804.7872 L161.3158,773.981 L161.5789,778.6542 L161.8421,797.291 L162.1053,806.1293 L162.3684,806.7543 L162.6316,765.6639 L162.8947,756.042 L163.1579,748.7595 L163.4211,766.8575 L163.6842,778.5096 L163.9474,758.8881 L164.2105,760.8771 L164.4737,828.6262 L164.7368,801.7237 L165,816.8142 L165.2632,780.6487 L165.5263,825.6549 L165.7895,796.8185 L166.0526,801.8693 L166.3158,774.0384 L166.5789,762.4984 L166.8421,832.3042 L167.1053,796.5619 L167.3684,772.062 L167.6316,781.8009 L167.8947,710.3845 L168.1579,778.4912 L168.4211,791.4537 L168.6842,745.9534 L168.9474,793.0314 L169.2105,798.159 L169.4737,776.2076 L169.7368,769.2999 L170,802.5728 L170.2632,791.8343 L170.5263,800.35 L170.7895,764.6723 L171.0526,779.9022 L171.3158,721.4235 L171.5789,732.1678 L171.8421,730.4943 L172.1053,805.8476 L172.3684,761.0164 L172.6316,737.9978 L172.8947,791.0488 L173.1579,824.3506 L173.4211,764.0022 L173.6842,789.4059 L173.9474,786.8732 L174.2105,803.6146 L174.4737,778.6207 L174.7368,735.65 L175,780.8 L175.2632,806.4077 L175.5263,816.5364 L175.7895,789.8551 L176.0526,784.0941 L176.3158,786.3016 L176.5789,787.1945 L176.8421,731.6441 L177.1053,798.5683 L177.3684,741.8956 L177.6316,795.7378 L177.8947,789.7913 L178.1579,760.2093 L178.4211,757.0888 L178.6842,754.0458 L178.9474,800.3564 L179.2105,792.2444 L179.4737,744.6049 L179.7368,800.6972 L180,719.7703 L180.2632,791.1871 L180.5263,743.6568 L180.7895,770.6721 L181.0526,733.3397 L181.3158,781.8276 L181.5789,847.5204 L181.8421,782.1854 L182.1053,792.6174 L182.3684,792.8958 L182.6316,773.3942 L182.8947,808.9434 L183.1579,756.2886 L183.4211,779.5299 L183.6842,776.9964 L183.9474,752.8804 L184.2105,824.3173 L184.4737,794.2768 L184.7368,796.9965 L185,785.3405 L185.2632,833.9736 L185.5263,792.5905 L185.7895,804.9297 L186.0526,751.9103 L186.3158,758.6592 L186.5789,818.8229 L186.8421,799.0625 L187.1053,761.1161 L187.3684,752.5092 L187.6316,778.4582 L187.8947,761.7608 L188.1579,779.4195 L188.4211,783.1618 L188.6842,749.403 L188.9474,782.8884 L189.2105,820.8314 L189.4737,769.7141 L189.7368,749.0132 L190,819.4642 L190.2632,795.3854 L190.5263,805.2917 L190.7895,789.1714 L191.0526,803.414 L191.3158,779.7537 L191.5789,774.0423 L191.8421,778.0709 L192.1053,767.5482 L192.3684,772.162 L192.6316,811.0614 L192.8947,734.9354 L193.1579,777.84 L193.4211,760.1098 L193.6842,770.1964 L193.9474,752.5074 L194.2105,777.463 L194.4737,799.9086 L194.7368,769.1315 L195,728.0911 L195.2632,794.194 L195.5263,820.5599 L195.7895,758.91 L196.0526,785.2885 L196.3158,760.399 L196.5789,837.0578 L196.8421,755.1248 L197.1053,790.1372 L197.3684,777.5562 L197.6316,774.4552 L197.8947,818.7162 L198.1579,757.1652 L198.4211,724.0688 L198.6842,765.5163 L198.9474,751.4454 L199.2105,793.1688 L199.4737,767.3206 L199.7368,789.6877 L200,770.264 " stroke="blue" fill="none" />
<text x="10" y="880" font-family="Arial" font-size="12" fill="black">Value Loss</text>
<path d="M10,1100.179 L210,1100.179" stroke="gray" />
<text x="5" y="1105.179" font-family="Arial" font-size="10" fill="black">0</text>
<text x="5" y="900" font-family="Arial" font-size="10" fill="black">0.03569495</text>
<text x="5" y="1100" font-family="Arial" font-size="10" fill="black">3.200868E-05</text>
<path d="M0.2631579,900 L0.5263158,965.7009 L0.7894737,985.6316 L1.052632,998.5324 L1.315789,1005.705 L1.578947,1011.332 L1.842105,1015.457 L2.105263,1018.564 L2.368421,1001.913 L2.631579,1009.48 L2.894737,1014.887 L3.157895,1018.703 L3.421052,1021.482 L3.68421,1023.517 L3.947368,1025.314 L4.210526,1026.772 L4.473684,1016.075 L4.736842,1023.224 L5,1027.232 L5.263158,1030.252 L5.526316,1032.667 L5.789474,1034.598 L6.052631,1036.443 L6.315789,1038.004 L6.578948,1001.807 L6.842105,1010.331 L7.105263,1015.589 L7.368421,1019.166 L7.631579,1022.066 L7.894736,1024.427 L8.157895,1026.189 L8.421053,1028.007 L8.684211,1016.192 L8.947369,1024.761 L9.210526,1028.856 L9.473684,1031.521 L9.736842,1033.764 L10,1035.625 L10.26316,1037.131 L10.52632,1038.598 L10.78947,1026.766 L11.05263,1036.599 L11.31579,1041.836 L11.57895,1044.831 L11.84211,1046.943 L12.10526,1048.461 L12.36842,1049.615 L12.63158,1050.593 L12.89474,1025.044 L13.1579,1030.269 L13.42105,1033.866 L13.68421,1036.711 L13.94737,1038.799 L14.21053,1040.5 L14.47368,1041.983 L14.73684,1043.247 L15,1017.872 L15.26316,1028.414 L15.52632,1035.117 L15.78947,1038.991 L16.05263,1041.657 L16.31579,1043.839 L16.57895,1045.544 L16.84211,1046.874 L17.10526,1003.523 L17.36842,1018.343 L17.63158,1024.796 L17.89474,1028.128 L18.15789,1030.49 L18.42105,1032.216 L18.68421,1033.617 L18.94737,1034.687 L19.21053,1019.524 L19.47368,1033.102 L19.73684,1039.096 L20,1042.636 L20.26316,1044.932 L20.52632,1046.76 L20.78947,1048.502 L21.05263,1049.682 L21.31579,1021.271 L21.57895,1037.692 L21.84211,1044.434 L22.10526,1048.472 L22.36842,1051.136 L22.63158,1053.198 L22.89474,1054.638 L23.15789,1055.873 L23.42105,1029.901 L23.68421,1047.351 L23.94737,1055.137 L24.21053,1058.108 L24.47368,1060.403 L24.73684,1061.791 L25,1062.81 L25.26316,1063.876 L25.52632,1019.76 L25.78947,1038.162 L26.05263,1047.026 L26.31579,1051.592 L26.57895,1054.649 L26.84211,1056.537 L27.10526,1057.835 L27.36842,1058.905 L27.63158,1035.035 L27.89474,1040.353 L28.1579,1043.96 L28.42105,1046.07 L28.68421,1047.918 L28.94737,1049.322 L29.21053,1050.583 L29.47368,1051.685 L29.73684,1013.851 L30,1020.45 L30.26316,1024.936 L30.52632,1028.117 L30.78947,1030.486 L31.05263,1032.336 L31.31579,1033.724 L31.57895,1034.866 L31.84211,1023.854 L32.10526,1034.943 L32.36842,1040.529 L32.63158,1043.691 L32.89474,1046.243 L33.15789,1047.72 L33.42105,1049.117 L33.68421,1050.375 L33.94737,1049.473 L34.21053,1060.617 L34.47369,1064.958 L34.73684,1066.947 L35,1068.422 L35.26316,1069.661 L35.52631,1070.58 L35.78947,1071.398 L36.05263,999.1393 L36.31579,1009.345 L36.57895,1015.232 L36.84211,1018.519 L37.10526,1021.338 L37.36842,1023.349 L37.63158,1025.054 L37.89474,1026.579 L38.15789,1035.47 L38.42105,1042.989 L38.68421,1047.319 L38.94737,1049.87 L39.21053,1052.091 L39.47369,1054.159 L39.73684,1055.28 L40,1056.636 L40.26316,1016.537 L40.52631,1026.504 L40.78947,1032 L41.05263,1035.236 L41.31579,1037.529 L41.57895,1039.377 L41.84211,1040.885 L42.10526,1042.075 L42.36842,997.2134 L42.63158,1009.451 L42.89474,1017.296 L43.15789,1022.875 L43.42105,1027.064 L43.68421,1029.936 L43.94737,1032.259 L44.21053,1034.026 L44.47368,1029.411 L44.73684,1036.372 L45,1040.698 L45.26316,1043.198 L45.52632,1044.968 L45.78947,1046.577 L46.05263,1047.614 L46.31579,1048.569 L46.57895,1029.875 L46.84211,1039.545 L47.10526,1044.383 L47.36842,1047.984 L47.63158,1050.276 L47.89474,1052.051 L48.15789,1053.654 L48.42105,1055.088 L48.68421,1027.227 L48.94737,1047.209 L49.21053,1053.174 L49.47369,1056.072 L49.73684,1057.961 L50,1059.203 L50.26316,1060.436 L50.52631,1061.285 L50.78947,1016.862 L51.05263,1026.887 L51.31579,1033.257 L51.57895,1037.668 L51.84211,1040.771 L52.10527,1043.415 L52.36842,1045.265 L52.63158,1047.215 L52.89474,1030.452 L53.15789,1037.732 L53.42105,1042.449 L53.68421,1045.365 L53.94737,1047.416 L54.21053,1049.071 L54.47369,1050.553 L54.73684,1051.773 L55,1021.776 L55.26316,1030.797 L55.52632,1035.907 L55.78948,1038.983 L56.05263,1040.935 L56.31579,1042.715 L56.57895,1044.174 L56.84211,1045.467 L57.10526,1010.449 L57.36842,1025.816 L57.63158,1034.181 L57.89474,1038.873 L58.1579,1041.612 L58.42105,1043.413 L58.68421,1044.871 L58.94736,1045.76 L59.21053,1068.625 L59.47368,1077.921 L59.73684,1081.432 L60,1083.037 L60.26316,1084.018 L60.52632,1084.669 L60.78947,1085.26 L61.05263,1085.731 L61.31579,988.0813 L61.57895,1014.014 L61.84211,1025.119 L62.10526,1030.728 L62.36842,1034.606 L62.63158,1037.241 L62.89474,1038.664 L63.15789,1040.372 L63.42105,1020.703 L63.68421,1032.633 L63.94737,1038.688 L64.21053,1042.101 L64.47369,1044.533 L64.73685,1046.476 L65,1048.137 L65.26316,1049.573 L65.52632,1054.279 L65.78947,1062.007 L66.05264,1066.261 L66.31579,1068.881 L66.57895,1070.586 L66.8421,1072.025 L67.10526,1073.092 L67.36842,1074.078 L67.63158,1018.401 L67.89474,1032.529 L68.15789,1039.44 L68.42105,1043.419 L68.68421,1045.601 L68.94737,1047.33 L69.21053,1048.733 L69.47369,1049.932 L69.73685,1017.53 L70,1025.628 L70.26316,1030.585 L70.52631,1033.957 L70.78947,1036.754 L71.05263,1038.839 L71.31579,1040.675 L71.57895,1042.066 L71.8421,1026.087 L72.10526,1033.417 L72.36842,1038.692 L72.63158,1042.048 L72.89474,1044.654 L73.1579,1046.612 L73.42106,1048.075 L73.68421,1048.836 L73.94737,1018.535 L74.21053,1026.324 L74.47369,1030.309 L74.73684,1033.231 L75,1035.133 L75.26316,1037.028 L75.52631,1038.52 L75.78947,1040.011 L76.05263,1050.385 L76.31579,1060.305 L76.57894,1064.588 L76.8421,1067.004 L77.10526,1068.679 L77.36842,1069.987 L77.63158,1070.667 L77.89474,1071.707 L78.1579,1015.82 L78.42105,1032.018 L78.68421,1039.031 L78.94737,1042.528 L79.21053,1044.994 L79.47369,1046.761 L79.73684,1048.263 L80,1049.304 L80.26315,1015.714 L80.52631,1024.306 L80.78947,1030.341 L81.05263,1034.266 L81.31579,1037.066 L81.57895,1039.145 L81.84211,1040.628 L82.10526,1041.871 L82.36842,1026.269 L82.63158,1034.376 L82.89474,1038.405 L83.1579,1041.254 L83.42105,1043.685 L83.68421,1045.658 L83.94736,1047.447 L84.21053,1048.906 L84.47368,1066.911 L84.73684,1075.035 L85,1077.592 L85.26315,1079.24 L85.52631,1080.253 L85.78947,1081.042 L86.05264,1081.754 L86.31579,1082.439 L86.57895,1032.832 L86.84211,1042.698 L87.10526,1047.29 L87.36842,1050.156 L87.63158,1052.076 L87.89474,1053.335 L88.15789,1054.463 L88.42105,1055.417 L88.68421,1014.491 L88.94736,1023.5 L89.21053,1028.698 L89.47369,1031.768 L89.73685,1033.86 L90,1035.507 L90.26316,1037.042 L90.52632,1038.154 L90.78947,1038.337 L91.05264,1046.654 L91.31579,1051.173 L91.57895,1053.545 L91.8421,1054.749 L92.10526,1056.295 L92.36842,1057.27 L92.63158,1058.112 L92.89474,1022.404 L93.15789,1028.63 L93.42105,1033.075 L93.68421,1036.084 L93.94737,1038.52 L94.21053,1040.062 L94.47369,1041.261 L94.73685,1042.524 L95,1029.877 L95.26316,1076.847 L95.52631,1083.769 L95.78947,1086.419 L96.05263,1087.823 L96.31579,1088.826 L96.57895,1089.527 L96.8421,1090.047 L97.10526,1024.212 L97.36842,1035.22 L97.63158,1040.955 L97.89474,1043.793 L98.1579,1045.821 L98.42106,1047.527 L98.68421,1049.009 L98.94737,1050.188 L99.21053,1047.209 L99.47369,1056.019 L99.73684,1060.713 L100,1063.413 L100.2632,1065.415 L100.5263,1067.089 L100.7895,1068.456 L101.0526,1069.687 L101.3158,1054.084 L101.5789,1062.906 L101.8421,1067.459 L102.1053,1069.73 L102.3684,1071.317 L102.6316,1072.473 L102.8947,1073.357 L103.1579,1074.103 L103.4211,1055.612 L103.6842,1059.989 L103.9474,1062.782 L104.2105,1064.631 L104.4737,1065.946 L104.7368,1067.092 L105,1068.01 L105.2632,1068.733 L105.5263,1033.211 L105.7895,1043.563 L106.0526,1048.103 L106.3158,1050.849 L106.5789,1052.631 L106.8421,1053.893 L107.1053,1055.058 L107.3684,1055.553 L107.6316,1026.9 L107.8947,1033.822 L108.1579,1038.615 L108.4211,1041.868 L108.6842,1043.829 L108.9474,1045.438 L109.2105,1047.009 L109.4737,1048.185 L109.7368,1092.906 L110,1096.104 L110.2632,1096.979 L110.5263,1097.521 L110.7895,1097.84 L111.0526,1098.081 L111.3158,1098.255 L111.579,1098.409 L111.8421,1011.928 L112.1053,1034.57 L112.3684,1042.212 L112.6316,1047.057 L112.8947,1050.049 L113.1579,1052.216 L113.421,1053.839 L113.6842,1055.128 L113.9474,1063.116 L114.2105,1073.915 L114.4737,1077.665 L114.7368,1079.337 L115,1080.804 L115.2632,1082.094 L115.5263,1082.957 L115.7895,1083.739 L116.0526,1044.696 L116.3158,1054.917 L116.5789,1060.326 L116.8421,1062.867 L117.1053,1064.934 L117.3684,1066.152 L117.6316,1067.137 L117.8947,1068.089 L118.1579,1016.414 L118.4211,1029.903 L118.6842,1036.167 L118.9474,1039.673 L119.2105,1042.481 L119.4737,1044.463 L119.7368,1046.173 L120,1047.359 L120.2632,1096.992 L120.5263,1098.274 L120.7895,1098.896 L121.0526,1099.248 L121.3158,1099.44 L121.5789,1099.562 L121.8421,1099.643 L122.1053,1099.706 L122.3684,1032.504 L122.6316,1042.488 L122.8947,1047.77 L123.1579,1050.863 L123.4211,1052.928 L123.6842,1055.027 L123.9474,1056.812 L124.2105,1058.263 L124.4737,1094.442 L124.7368,1098.563 L125,1099.302 L125.2632,1099.519 L125.5263,1099.622 L125.7895,1099.689 L126.0526,1099.732 L126.3158,1099.767 L126.5789,1037.621 L126.8421,1050.173 L127.1053,1055.023 L127.3684,1058.027 L127.6316,1059.87 L127.8947,1061.621 L128.1579,1062.915 L128.4211,1063.993 L128.6842,1055.095 L128.9474,1061.568 L129.2105,1065.639 L129.4737,1068.091 L129.7368,1069.835 L130,1071.031 L130.2632,1072.005 L130.5263,1072.791 L130.7895,1075.549 L131.0526,1080.802 L131.3158,1082.859 L131.5789,1084.052 L131.8421,1084.813 L132.1053,1085.521 L132.3684,1086.024 L132.6316,1086.485 L132.8947,1034.904 L133.1579,1046.427 L133.4211,1052.363 L133.6842,1055.546 L133.9474,1057.402 L134.2105,1058.894 L134.4737,1059.746 L134.7368,1060.845 L135,1038.681 L135.2632,1046.368 L135.5263,1049.713 L135.7895,1051.954 L136.0526,1053.721 L136.3158,1054.977 L136.5789,1056.22 L136.8421,1057.098 L137.1053,1034.881 L137.3684,1048.169 L137.6316,1053.503 L137.8947,1056.485 L138.1579,1058.516 L138.4211,1059.897 L138.6842,1060.901 L138.9474,1061.884 L139.2105,1016.954 L139.4737,1027.104 L139.7368,1033.123 L140,1037.179 L140.2632,1039.923 L140.5263,1042.081 L140.7895,1044.077 L141.0526,1045.853 L141.3158,1074.96 L141.5789,1079.485 L141.8421,1081.38 L142.1053,1082.547 L142.3684,1083.327 L142.6316,1084.013 L142.8947,1084.49 L143.1579,1084.96 L143.4211,1028.861 L143.6842,1036.656 L143.9474,1041.769 L144.2105,1044.641 L144.4737,1046.699 L144.7368,1048.129 L145,1049.572 L145.2632,1050.78 L145.5263,1039.835 L145.7895,1050.439 L146.0526,1056.315 L146.3158,1059.917 L146.5789,1062.136 L146.8421,1063.554 L147.1053,1064.593 L147.3684,1065.477 L147.6316,1013.961 L147.8947,1032.998 L148.1579,1038.554 L148.4211,1042.005 L148.6842,1044.35 L148.9474,1045.751 L149.2105,1047.34 L149.4737,1048.751 L149.7368,1060.172 L150,1073.093 L150.2632,1077.242 L150.5263,1079.089 L150.7895,1080.29 L151.0526,1081.187 L151.3158,1081.752 L151.5789,1082.304 L151.8421,1072.865 L152.1053,1096.163 L152.3684,1098.651 L152.6316,1099.094 L152.8947,1099.32 L153.1579,1099.444 L153.4211,1099.53 L153.6842,1099.592 L153.9474,1059.07 L154.2105,1074.702 L154.4737,1079.566 L154.7368,1082.199 L155,1083.914 L155.2632,1085.138 L155.5263,1086.064 L155.7895,1086.796 L156.0526,1041.958 L156.3158,1053.261 L156.5789,1058.76 L156.8421,1061.973 L157.1053,1064.46 L157.3684,1066.132 L157.6316,1067.281 L157.8947,1068.187 L158.1579,1048.952 L158.4211,1058.79 L158.6842,1062.974 L158.9474,1064.671 L159.2105,1065.707 L159.4737,1066.73 L159.7368,1067.511 L160,1068.288 L160.2632,1047.044 L160.5263,1059.969 L160.7895,1066.174 L161.0526,1068.927 L161.3158,1071.107 L161.5789,1072.267 L161.8421,1073.511 L162.1053,1074.574 L162.3684,1030.073 L162.6316,1040.084 L162.8947,1045.785 L163.1579,1049.474 L163.4211,1051.998 L163.6842,1053.681 L163.9474,1055.302 L164.2105,1056.324 L164.4737,1037.644 L164.7368,1043.975 L165,1047.926 L165.2632,1050.585 L165.5263,1052.509 L165.7895,1054.185 L166.0526,1055.447 L166.3158,1056.578 L166.5789,1045.357 L166.8421,1055.883 L167.1053,1061.426 L167.3684,1064.508 L167.6316,1066.341 L167.8947,1067.699 L168.1579,1068.822 L168.4211,1069.702 L168.6842,1048.486 L168.9474,1059.282 L169.2105,1063.982 L169.4737,1066.774 L169.7368,1068.486 L170,1069.654 L170.2632,1070.719 L170.5263,1071.515 L170.7895,1078.555 L171.0526,1084.676 L171.3158,1087.499 L171.5789,1089.043 L171.8421,1090.01 L172.1053,1090.664 L172.3684,1091.16 L172.6316,1091.612 L172.8947,996.4835 L173.1579,1023.591 L173.4211,1032.547 L173.6842,1036.694 L173.9474,1039.466 L174.2105,1041.598 L174.4737,1043.173 L174.7368,1044.29 L175,1070.155 L175.2632,1075.214 L175.5263,1078.362 L175.7895,1080.193 L176.0526,1081.475 L176.3158,1082.444 L176.5789,1083.194 L176.8421,1083.784 L177.1053,1099.188 L177.3684,1099.669 L177.6316,1099.845 L177.8947,1099.911 L178.1579,1099.95 L178.4211,1099.974 L178.6842,1099.989 L178.9474,1100 L179.2105,1037.402 L179.4737,1046.589 L179.7368,1051.03 L180,1054.075 L180.2632,1056.116 L180.5263,1057.825 L180.7895,1059.368 L181.0526,1060.431 L181.3158,1046.77 L181.5789,1057.309 L181.8421,1061.757 L182.1053,1064.062 L182.3684,1065.429 L182.6316,1066.705 L182.8947,1067.551 L183.1579,1068.262 L183.4211,1041.878 L183.6842,1049.093 L183.9474,1052.791 L184.2105,1055.272 L184.4737,1056.918 L184.7368,1058.42 L185,1059.812 L185.2632,1060.808 L185.5263,1051.658 L185.7895,1058.385 L186.0526,1062.762 L186.3158,1065.466 L186.5789,1067.015 L186.8421,1068.405 L187.1053,1069.544 L187.3684,1070.395 L187.6316,1039.485 L187.8947,1047.35 L188.1579,1052.492 L188.4211,1055.545 L188.6842,1057.815 L188.9474,1059.32 L189.2105,1060.691 L189.4737,1061.538 L189.7368,1017.155 L190,1032.96 L190.2632,1039.668 L190.5263,1043.041 L190.7895,1045.153 L191.0526,1047.045 L191.3158,1048.337 L191.5789,1049.437 L191.8421,1036.416 L192.1053,1046.892 L192.3684,1051.716 L192.6316,1054.383 L192.8947,1056.024 L193.1579,1057.491 L193.4211,1058.732 L193.6842,1059.644 L193.9474,1026.991 L194.2105,1047.449 L194.4737,1054.992 L194.7368,1059.15 L195,1061.728 L195.2632,1063.404 L195.5263,1065.098 L195.7895,1066.217 L196.0526,1048.255 L196.3158,1061.017 L196.5789,1066.612 L196.8421,1069.231 L197.1053,1070.987 L197.3684,1072.24 L197.6316,1073.252 L197.8947,1073.983 L198.1579,1016.356 L198.4211,1030.39 L198.6842,1038.594 L198.9474,1042.706 L199.2105,1045.464 L199.4737,1047.369 L199.7368,1048.899 L200,1050.311 " stroke="blue" fill="none" />
<text x="10" y="1120" font-family="Arial" font-size="12" fill="black">Learning Rate</text>
<path d="M10,6001141 L210,6001141" stroke="gray" />
<text x="5" y="6001146" font-family="Arial" font-size="10" fill="black">0</text>
<text x="5" y="1140" font-family="Arial" font-size="10" fill="black">0.0003</text>
<text x="5" y="1340" font-family="Arial" font-size="10" fill="black">0.0003</text>
<path d="M0.2631579,NaN L0.5263158,NaN L0.7894737,NaN L1.052632,NaN L1.315789,NaN L1.578947,NaN L1.842105,NaN L2.105263,NaN L2.368421,NaN L2.631579,NaN L2.894737,NaN L3.157895,NaN L3.421052,NaN L3.68421,NaN L3.947368,NaN L4.210526,NaN L4.473684,NaN L4.736842,NaN L5,NaN L5.263158,NaN L5.526316,NaN L5.789474,NaN L6.052631,NaN L6.315789,NaN L6.578948,NaN L6.842105,NaN L7.105263,NaN L7.368421,NaN L7.631579,NaN L7.894736,NaN L8.157895,NaN L8.421053,NaN L8.684211,NaN L8.947369,NaN L9.210526,NaN L9.473684,NaN L9.736842,NaN L10,NaN L10.26316,NaN L10.52632,NaN L10.78947,NaN L11.05263,NaN L11.31579,NaN L11.57895,NaN L11.84211,NaN L12.10526,NaN L12.36842,NaN L12.63158,NaN L12.89474,NaN L13.1579,NaN L13.42105,NaN L13.68421,NaN L13.94737,NaN L14.21053,NaN L14.47368,NaN L14.73684,NaN L15,NaN L15.26316,NaN L15.52632,NaN L15.78947,NaN L16.05263,NaN L16.31579,NaN L16.57895,NaN L16.84211,NaN L17.10526,NaN L17.36842,NaN L17.63158,NaN L17.89474,NaN L18.15789,NaN L18.42105,NaN L18.68421,NaN L18.94737,NaN L19.21053,NaN L19.47368,NaN L19.73684,NaN L20,NaN L20.26316,NaN L20.52632,NaN L20.78947,NaN L21.05263,NaN L21.31579,NaN L21.57895,NaN L21.84211,NaN L22.10526,NaN L22.36842,NaN L22.63158,NaN L22.89474,NaN L23.15789,NaN L23.42105,NaN L23.68421,NaN L23.94737,NaN L24.21053,NaN L24.47368,NaN L24.73684,NaN L25,NaN L25.26316,NaN L25.52632,NaN L25.78947,NaN L26.05263,NaN L26.31579,NaN L26.57895,NaN L26.84211,NaN L27.10526,NaN L27.36842,NaN L27.63158,NaN L27.89474,NaN L28.1579,NaN L28.42105,NaN L28.68421,NaN L28.94737,NaN L29.21053,NaN L29.47368,NaN L29.73684,NaN L30,NaN L30.26316,NaN L30.52632,NaN L30.78947,NaN L31.05263,NaN L31.31579,NaN L31.57895,NaN L31.84211,NaN L32.10526,NaN L32.36842,NaN L32.63158,NaN L32.89474,NaN L33.15789,NaN L33.42105,NaN L33.68421,NaN L33.94737,NaN L34.21053,NaN L34.47369,NaN L34.73684,NaN L35,NaN L35.26316,NaN L35.52631,NaN L35.78947,NaN L36.05263,NaN L36.31579,NaN L36.57895,NaN L36.84211,NaN L37.10526,NaN L37.36842,NaN L37.63158,NaN L37.89474,NaN L38.15789,NaN L38.42105,NaN L38.68421,NaN L38.94737,NaN L39.21053,NaN L39.47369,NaN L39.73684,NaN L40,NaN L40.26316,NaN L40.52631,NaN L40.78947,NaN L41.05263,NaN L41.31579,NaN L41.57895,NaN L41.84211,NaN L42.10526,NaN L42.36842,NaN L42.63158,NaN L42.89474,NaN L43.15789,NaN L43.42105,NaN L43.68421,NaN L43.94737,NaN L44.21053,NaN L44.47368,NaN L44.73684,NaN L45,NaN L45.26316,NaN L45.52632,NaN L45.78947,NaN L46.05263,NaN L46.31579,NaN L46.57895,NaN L46.84211,NaN L47.10526,NaN L47.36842,NaN L47.63158,NaN L47.89474,NaN L48.15789,NaN L48.42105,NaN L48.68421,NaN L48.94737,NaN L49.21053,NaN L49.47369,NaN L49.73684,NaN L50,NaN L50.26316,NaN L50.52631,NaN L50.78947,NaN L51.05263,NaN L51.31579,NaN L51.57895,NaN L51.84211,NaN L52.10527,NaN L52.36842,NaN L52.63158,NaN L52.89474,NaN L53.15789,NaN L53.42105,NaN L53.68421,NaN L53.94737,NaN L54.21053,NaN L54.47369,NaN L54.73684,NaN L55,NaN L55.26316,NaN L55.52632,NaN L55.78948,NaN L56.05263,NaN L56.31579,NaN L56.57895,NaN L56.84211,NaN L57.10526,NaN L57.36842,NaN L57.63158,NaN L57.89474,NaN L58.1579,NaN L58.42105,NaN L58.68421,NaN L58.94736,NaN L59.21053,NaN L59.47368,NaN L59.73684,NaN L60,NaN L60.26316,NaN L60.52632,NaN L60.78947,NaN L61.05263,NaN L61.31579,NaN L61.57895,NaN L61.84211,NaN L62.10526,NaN L62.36842,NaN L62.63158,NaN L62.89474,NaN L63.15789,NaN L63.42105,NaN L63.68421,NaN L63.94737,NaN L64.21053,NaN L64.47369,NaN L64.73685,NaN L65,NaN L65.26316,NaN L65.52632,NaN L65.78947,NaN L66.05264,NaN L66.31579,NaN L66.57895,NaN L66.8421,NaN L67.10526,NaN L67.36842,NaN L67.63158,NaN L67.89474,NaN L68.15789,NaN L68.42105,NaN L68.68421,NaN L68.94737,NaN L69.21053,NaN L69.47369,NaN L69.73685,NaN L70,NaN L70.26316,NaN L70.52631,NaN L70.78947,NaN L71.05263,NaN L71.31579,NaN L71.57895,NaN L71.8421,NaN L72.10526,NaN L72.36842,NaN L72.63158,NaN L72.89474,NaN L73.1579,NaN L73.42106,NaN L73.68421,NaN L73.94737,NaN L74.21053,NaN L74.47369,NaN L74.73684,NaN L75,NaN L75.26316,NaN L75.52631,NaN L75.78947,NaN L76.05263,NaN L76.31579,NaN L76.57894,NaN L76.8421,NaN L77.10526,NaN L77.36842,NaN L77.63158,NaN L77.89474,NaN L78.1579,NaN L78.42105,NaN L78.68421,NaN L78.94737,NaN L79.21053,NaN L79.47369,NaN L79.73684,NaN L80,NaN L80.26315,NaN L80.52631,NaN L80.78947,NaN L81.05263,NaN L81.31579,NaN L81.57895,NaN L81.84211,NaN L82.10526,NaN L82.36842,NaN L82.63158,NaN L82.89474,NaN L83.1579,NaN L83.42105,NaN L83.68421,NaN L83.94736,NaN L84.21053,NaN L84.47368,NaN L84.73684,NaN L85,NaN L85.26315,NaN L85.52631,NaN L85.78947,NaN L86.05264,NaN L86.31579,NaN L86.57895,NaN L86.84211,NaN L87.10526,NaN L87.36842,NaN L87.63158,NaN L87.89474,NaN L88.15789,NaN L88.42105,NaN L88.68421,NaN L88.94736,NaN L89.21053,NaN L89.47369,NaN L89.73685,NaN L90,NaN L90.26316,NaN L90.52632,NaN L90.78947,NaN L91.05264,NaN L91.31579,NaN L91.57895,NaN L91.8421,NaN L92.10526,NaN L92.36842,NaN L92.63158,NaN L92.89474,NaN L93.15789,NaN L93.42105,NaN L93.68421,NaN L93.94737,NaN L94.21053,NaN L94.47369,NaN L94.73685,NaN L95,NaN L95.26316,NaN L95.52631,NaN L95.78947,NaN L96.05263,NaN L96.31579,NaN L96.57895,NaN L96.8421,NaN L97.10526,NaN L97.36842,NaN L97.63158,NaN L97.89474,NaN L98.1579,NaN L98.42106,NaN L98.68421,NaN L98.94737,NaN L99.21053,NaN L99.47369,NaN L99.73684,NaN L100,NaN L100.2632,NaN L100.5263,NaN L100.7895,NaN L101.0526,NaN L101.3158,NaN L101.5789,NaN L101.8421,NaN L102.1053,NaN L102.3684,NaN L102.6316,NaN L102.8947,NaN L103.1579,NaN L103.4211,NaN L103.6842,NaN L103.9474,NaN L104.2105,NaN L104.4737,NaN L104.7368,NaN L105,NaN L105.2632,NaN L105.5263,NaN L105.7895,NaN L106.0526,NaN L106.3158,NaN L106.5789,NaN L106.8421,NaN L107.1053,NaN L107.3684,NaN L107.6316,NaN L107.8947,NaN L108.1579,NaN L108.4211,NaN L108.6842,NaN L108.9474,NaN L109.2105,NaN L109.4737,NaN L109.7368,NaN L110,NaN L110.2632,NaN L110.5263,NaN L110.7895,NaN L111.0526,NaN L111.3158,NaN L111.579,NaN L111.8421,NaN L112.1053,NaN L112.3684,NaN L112.6316,NaN L112.8947,NaN L113.1579,NaN L113.421,NaN L113.6842,NaN L113.9474,NaN L114.2105,NaN L114.4737,NaN L114.7368,NaN L115,NaN L115.2632,NaN L115.5263,NaN L115.7895,NaN L116.0526,NaN L116.3158,NaN L116.5789,NaN L116.8421,NaN L117.1053,NaN L117.3684,NaN L117.6316,NaN L117.8947,NaN L118.1579,NaN L118.4211,NaN L118.6842,NaN L118.9474,NaN L119.2105,NaN L119.4737,NaN L119.7368,NaN L120,NaN L120.2632,NaN L120.5263,NaN L120.7895,NaN L121.0526,NaN L121.3158,NaN L121.5789,NaN L121.8421,NaN L122.1053,NaN L122.3684,NaN L122.6316,NaN L122.8947,NaN L123.1579,NaN L123.4211,NaN L123.6842,NaN L123.9474,NaN L124.2105,NaN L124.4737,NaN L124.7368,NaN L125,NaN L125.2632,NaN L125.5263,NaN L125.7895,NaN L126.0526,NaN L126.3158,NaN L126.5789,NaN L126.8421,NaN L127.1053,NaN L127.3684,NaN L127.6316,NaN L127.8947,NaN L128.1579,NaN L128.4211,NaN L128.6842,NaN L128.9474,NaN L129.2105,NaN L129.4737,NaN L129.7368,NaN L130,NaN L130.2632,NaN L130.5263,NaN L130.7895,NaN L131.0526,NaN L131.3158,NaN L131.5789,NaN L131.8421,NaN L132.1053,NaN L132.3684,NaN L132.6316,NaN L132.8947,NaN L133.1579,NaN L133.4211,NaN L133.6842,NaN L133.9474,NaN L134.2105,NaN L134.4737,NaN L134.7368,NaN L135,NaN L135.2632,NaN L135.5263,NaN L135.7895,NaN L136.0526,NaN L136.3158,NaN L136.5789,NaN L136.8421,NaN L137.1053,NaN L137.3684,NaN L137.6316,NaN L137.8947,NaN L138.1579,NaN L138.4211,NaN L138.6842,NaN L138.9474,NaN L139.2105,NaN L139.4737,NaN L139.7368,NaN L140,NaN L140.2632,NaN L140.5263,NaN L140.7895,NaN L141.0526,NaN L141.3158,NaN L141.5789,NaN L141.8421,NaN L142.1053,NaN L142.3684,NaN L142.6316,NaN L142.8947,NaN L143.1579,NaN L143.4211,NaN L143.6842,NaN L143.9474,NaN L144.2105,NaN L144.4737,NaN L144.7368,NaN L145,NaN L145.2632,NaN L145.5263,NaN L145.7895,NaN L146.0526,NaN L146.3158,NaN L146.5789,NaN L146.8421,NaN L147.1053,NaN L147.3684,NaN L147.6316,NaN L147.8947,NaN L148.1579,NaN L148.4211,NaN L148.6842,NaN L148.9474,NaN L149.2105,NaN L149.4737,NaN L149.7368,NaN L150,NaN L150.2632,NaN L150.5263,NaN L150.7895,NaN L151.0526,NaN L151.3158,NaN L151.5789,NaN L151.8421,NaN L152.1053,NaN L152.3684,NaN L152.6316,NaN L152.8947,NaN L153.1579,NaN L153.4211,NaN L153.6842,NaN L153.9474,NaN L154.2105,NaN L154.4737,NaN L154.7368,NaN L155,NaN L155.2632,NaN L155.5263,NaN L155.7895,NaN L156.0526,NaN L156.3158,NaN L156.5789,NaN L156.8421,NaN L157.1053,NaN L157.3684,NaN L157.6316,NaN L157.8947,NaN L158.1579,NaN L158.4211,NaN L158.6842,NaN L158.9474,NaN L159.2105,NaN L159.4737,NaN L159.7368,NaN L160,NaN L160.2632,NaN L160.5263,NaN L160.7895,NaN L161.0526,NaN L161.3158,NaN L161.5789,NaN L161.8421,NaN L162.1053,NaN L162.3684,NaN L162.6316,NaN L162.8947,NaN L163.1579,NaN L163.4211,NaN L163.6842,NaN L163.9474,NaN L164.2105,NaN L164.4737,NaN L164.7368,NaN L165,NaN L165.2632,NaN L165.5263,NaN L165.7895,NaN L166.0526,NaN L166.3158,NaN L166.5789,NaN L166.8421,NaN L167.1053,NaN L167.3684,NaN L167.6316,NaN L167.8947,NaN L168.1579,NaN L168.4211,NaN L168.6842,NaN L168.9474,NaN L169.2105,NaN L169.4737,NaN L169.7368,NaN L170,NaN L170.2632,NaN L170.5263,NaN L170.7895,NaN L171.0526,NaN L171.3158,NaN L171.5789,NaN L171.8421,NaN L172.1053,NaN L172.3684,NaN L172.6316,NaN L172.8947,NaN L173.1579,NaN L173.4211,NaN L173.6842,NaN L173.9474,NaN L174.2105,NaN L174.4737,NaN L174.7368,NaN L175,NaN L175.2632,NaN L175.5263,NaN L175.7895,NaN L176.0526,NaN L176.3158,NaN L176.5789,NaN L176.8421,NaN L177.1053,NaN L177.3684,NaN L177.6316,NaN L177.8947,NaN L178.1579,NaN L178.4211,NaN L178.6842,NaN L178.9474,NaN L179.2105,NaN L179.4737,NaN L179.7368,NaN L180,NaN L180.2632,NaN L180.5263,NaN L180.7895,NaN L181.0526,NaN L181.3158,NaN L181.5789,NaN L181.8421,NaN L182.1053,NaN L182.3684,NaN L182.6316,NaN L182.8947,NaN L183.1579,NaN L183.4211,NaN L183.6842,NaN L183.9474,NaN L184.2105,NaN L184.4737,NaN L184.7368,NaN L185,NaN L185.2632,NaN L185.5263,NaN L185.7895,NaN L186.0526,NaN L186.3158,NaN L186.5789,NaN L186.8421,NaN L187.1053,NaN L187.3684,NaN L187.6316,NaN L187.8947,NaN L188.1579,NaN L188.4211,NaN L188.6842,NaN L188.9474,NaN L189.2105,NaN L189.4737,NaN L189.7368,NaN L190,NaN L190.2632,NaN L190.5263,NaN L190.7895,NaN L191.0526,NaN L191.3158,NaN L191.5789,NaN L191.8421,NaN L192.1053,NaN L192.3684,NaN L192.6316,NaN L192.8947,NaN L193.1579,NaN L193.4211,NaN L193.6842,NaN L193.9474,NaN L194.2105,NaN L194.4737,NaN L194.7368,NaN L195,NaN L195.2632,NaN L195.5263,NaN L195.7895,NaN L196.0526,NaN L196.3158,NaN L196.5789,NaN L196.8421,NaN L197.1053,NaN L197.3684,NaN L197.6316,NaN L197.8947,NaN L198.1579,NaN L198.4211,NaN L198.6842,NaN L198.9474,NaN L199.2105,NaN L199.4737,NaN L199.7368,NaN L200,NaN " stroke="blue" fill="none" />
<text x="10" y="1360" font-family="Arial" font-size="12" fill="black">Epsilon</text>
<path d="M10,4.000002E+09 L210,4.000002E+09" stroke="gray" />
<text x="5" y="4.000002E+09" font-family="Arial" font-size="10" fill="black">0</text>
<text x="5" y="1380" font-family="Arial" font-size="10" fill="black">0.2</text>
<text x="5" y="1580" font-family="Arial" font-size="10" fill="black">0.2</text>
<path d="M0.2631579,NaN L0.5263158,NaN L0.7894737,NaN L1.052632,NaN L1.315789,NaN L1.578947,NaN L1.842105,NaN L2.105263,NaN L2.368421,NaN L2.631579,NaN L2.894737,NaN L3.157895,NaN L3.421052,NaN L3.68421,NaN L3.947368,NaN L4.210526,NaN L4.473684,NaN L4.736842,NaN L5,NaN L5.263158,NaN L5.526316,NaN L5.789474,NaN L6.052631,NaN L6.315789,NaN L6.578948,NaN L6.842105,NaN L7.105263,NaN L7.368421,NaN L7.631579,NaN L7.894736,NaN L8.157895,NaN L8.421053,NaN L8.684211,NaN L8.947369,NaN L9.210526,NaN L9.473684,NaN L9.736842,NaN L10,NaN L10.26316,NaN L10.52632,NaN L10.78947,NaN L11.05263,NaN L11.31579,NaN L11.57895,NaN L11.84211,NaN L12.10526,NaN L12.36842,NaN L12.63158,NaN L12.89474,NaN L13.1579,NaN L13.42105,NaN L13.68421,NaN L13.94737,NaN L14.21053,NaN L14.47368,NaN L14.73684,NaN L15,NaN L15.26316,NaN L15.52632,NaN L15.78947,NaN L16.05263,NaN L16.31579,NaN L16.57895,NaN L16.84211,NaN L17.10526,NaN L17.36842,NaN L17.63158,NaN L17.89474,NaN L18.15789,NaN L18.42105,NaN L18.68421,NaN L18.94737,NaN L19.21053,NaN L19.47368,NaN L19.73684,NaN L20,NaN L20.26316,NaN L20.52632,NaN L20.78947,NaN L21.05263,NaN L21.31579,NaN L21.57895,NaN L21.84211,NaN L22.10526,NaN L22.36842,NaN L22.63158,NaN L22.89474,NaN L23.15789,NaN L23.42105,NaN L23.68421,NaN L23.94737,NaN L24.21053,NaN L24.47368,NaN L24.73684,NaN L25,NaN L25.26316,NaN L25.52632,NaN L25.78947,NaN L26.05263,NaN L26.31579,NaN L26.57895,NaN L26.84211,NaN L27.10526,NaN L27.36842,NaN L27.63158,NaN L27.89474,NaN L28.1579,NaN L28.42105,NaN L28.68421,NaN L28.94737,NaN L29.21053,NaN L29.47368,NaN L29.73684,NaN L30,NaN L30.26316,NaN L30.52632,NaN L30.78947,NaN L31.05263,NaN L31.31579,NaN L31.57895,NaN L31.84211,NaN L32.10526,NaN L32.36842,NaN L32.63158,NaN L32.89474,NaN L33.15789,NaN L33.42105,NaN L33.68421,NaN L33.94737,NaN L34.21053,NaN L34.47369,NaN L34.73684,NaN L35,NaN L35.26316,NaN L35.52631,NaN L35.78947,NaN L36.05263,NaN L36.31579,NaN L36.57895,NaN L36.84211,NaN L37.10526,NaN L37.36842,NaN L37.63158,NaN L37.89474,NaN L38.15789,NaN L38.42105,NaN L38.68421,NaN L38.94737,NaN L39.21053,NaN L39.47369,NaN L39.73684,NaN L40,NaN L40.26316,NaN L40.52631,NaN L40.78947,NaN L41.05263,NaN L41.31579,NaN L41.57895,NaN L41.84211,NaN L42.10526,NaN L42.36842,NaN L42.63158,NaN L42.89474,NaN L43.15789,NaN L43.42105,NaN L43.68421,NaN L43.94737,NaN L44.21053,NaN L44.47368,NaN L44.73684,NaN L45,NaN L45.26316,NaN L45.52632,NaN L45.78947,NaN L46.05263,NaN L46.31579,NaN L46.57895,NaN L46.84211,NaN L47.10526,NaN L47.36842,NaN L47.63158,NaN L47.89474,NaN L48.15789,NaN L48.42105,NaN L48.68421,NaN L48.94737,NaN L49.21053,NaN L49.47369,NaN L49.73684,NaN L50,NaN L50.26316,NaN L50.52631,NaN L50.78947,NaN L51.05263,NaN L51.31579,NaN L51.57895,NaN L51.84211,NaN L52.10527,NaN L52.36842,NaN L52.63158,NaN L52.89474,NaN L53.15789,NaN L53.42105,NaN L53.68421,NaN L53.94737,NaN L54.21053,NaN L54.47369,NaN L54.73684,NaN L55,NaN L55.26316,NaN L55.52632,NaN L55.78948,NaN L56.05263,NaN L56.31579,NaN L56.57895,NaN L56.84211,NaN L57.10526,NaN L57.36842,NaN L57.63158,NaN L57.89474,NaN L58.1579,NaN L58.42105,NaN L58.68421,NaN L58.94736,NaN L59.21053,NaN L59.47368,NaN L59.73684,NaN L60,NaN L60.26316,NaN L60.52632,NaN L60.78947,NaN L61.05263,NaN L61.31579,NaN L61.57895,NaN L61.84211,NaN L62.10526,NaN L62.36842,NaN L62.63158,NaN L62.89474,NaN L63.15789,NaN L63.42105,NaN L63.68421,NaN L63.94737,NaN L64.21053,NaN L64.47369,NaN L64.73685,NaN L65,NaN L65.26316,NaN L65.52632,NaN L65.78947,NaN L66.05264,NaN L66.31579,NaN L66.57895,NaN L66.8421,NaN L67.10526,NaN L67.36842,NaN L67.63158,NaN L67.89474,NaN L68.15789,NaN L68.42105,NaN L68.68421,NaN L68.94737,NaN L69.21053,NaN L69.47369,NaN L69.73685,NaN L70,NaN L70.26316,NaN L70.52631,NaN L70.78947,NaN L71.05263,NaN L71.31579,NaN L71.57895,NaN L71.8421,NaN L72.10526,NaN L72.36842,NaN L72.63158,NaN L72.89474,NaN L73.1579,NaN L73.42106,NaN L73.68421,NaN L73.94737,NaN L74.21053,NaN L74.47369,NaN L74.73684,NaN L75,NaN L75.26316,NaN L75.52631,NaN L75.78947,NaN L76.05263,NaN L76.31579,NaN L76.57894,NaN L76.8421,NaN L77.10526,NaN L77.36842,NaN L77.63158,NaN L77.89474,NaN L78.1579,NaN L78.42105,NaN L78.68421,NaN L78.94737,NaN L79.21053,NaN L79.47369,NaN L79.73684,NaN L80,NaN L80.26315,NaN L80.52631,NaN L80.78947,NaN L81.05263,NaN L81.31579,NaN L81.57895,NaN L81.84211,NaN L82.10526,NaN L82.36842,NaN L82.63158,NaN L82.89474,NaN L83.1579,NaN L83.42105,NaN L83.68421,NaN L83.94736,NaN L84.21053,NaN L84.47368,NaN L84.73684,NaN L85,NaN L85.26315,NaN L85.52631,NaN L85.78947,NaN L86.05264,NaN L86.31579,NaN L86.57895,NaN L86.84211,NaN L87.10526,NaN L87.36842,NaN L87.63158,NaN L87.89474,NaN L88.15789,NaN L88.42105,NaN L88.68421,NaN L88.94736,NaN L89.21053,NaN L89.47369,NaN L89.73685,NaN L90,NaN L90.26316,NaN L90.52632,NaN L90.78947,NaN L91.05264,NaN L91.31579,NaN L91.57895,NaN L91.8421,NaN L92.10526,NaN L92.36842,NaN L92.63158,NaN L92.89474,NaN L93.15789,NaN L93.42105,NaN L93.68421,NaN L93.94737,NaN L94.21053,NaN L94.47369,NaN L94.73685,NaN L95,NaN L95.26316,NaN L95.52631,NaN L95.78947,NaN L96.05263,NaN L96.31579,NaN L96.57895,NaN L96.8421,NaN L97.10526,NaN L97.36842,NaN L97.63158,NaN L97.89474,NaN L98.1579,NaN L98.42106,NaN L98.68421,NaN L98.94737,NaN L99.21053,NaN L99.47369,NaN L99.73684,NaN L100,NaN L100.2632,NaN L100.5263,NaN L100.7895,NaN L101.0526,NaN L101.3158,NaN L101.5789,NaN L101.8421,NaN L102.1053,NaN L102.3684,NaN L102.6316,NaN L102.8947,NaN L103.1579,NaN L103.4211,NaN L103.6842,NaN L103.9474,NaN L104.2105,NaN L104.4737,NaN L104.7368,NaN L105,NaN L105.2632,NaN L105.5263,NaN L105.7895,NaN L106.0526,NaN L106.3158,NaN L106.5789,NaN L106.8421,NaN L107.1053,NaN L107.3684,NaN L107.6316,NaN L107.8947,NaN L108.1579,NaN L108.4211,NaN L108.6842,NaN L108.9474,NaN L109.2105,NaN L109.4737,NaN L109.7368,NaN L110,NaN L110.2632,NaN L110.5263,NaN L110.7895,NaN L111.0526,NaN L111.3158,NaN L111.579,NaN L111.8421,NaN L112.1053,NaN L112.3684,NaN L112.6316,NaN L112.8947,NaN L113.1579,NaN L113.421,NaN L113.6842,NaN L113.9474,NaN L114.2105,NaN L114.4737,NaN L114.7368,NaN L115,NaN L115.2632,NaN L115.5263,NaN L115.7895,NaN L116.0526,NaN L116.3158,NaN L116.5789,NaN L116.8421,NaN L117.1053,NaN L117.3684,NaN L117.6316,NaN L117.8947,NaN L118.1579,NaN L118.4211,NaN L118.6842,NaN L118.9474,NaN L119.2105,NaN L119.4737,NaN L119.7368,NaN L120,NaN L120.2632,NaN L120.5263,NaN L120.7895,NaN L121.0526,NaN L121.3158,NaN L121.5789,NaN L121.8421,NaN L122.1053,NaN L122.3684,NaN L122.6316,NaN L122.8947,NaN L123.1579,NaN L123.4211,NaN L123.6842,NaN L123.9474,NaN L124.2105,NaN L124.4737,NaN L124.7368,NaN L125,NaN L125.2632,NaN L125.5263,NaN L125.7895,NaN L126.0526,NaN L126.3158,NaN L126.5789,NaN L126.8421,NaN L127.1053,NaN L127.3684,NaN L127.6316,NaN L127.8947,NaN L128.1579,NaN L128.4211,NaN L128.6842,NaN L128.9474,NaN L129.2105,NaN L129.4737,NaN L129.7368,NaN L130,NaN L130.2632,NaN L130.5263,NaN L130.7895,NaN L131.0526,NaN L131.3158,NaN L131.5789,NaN L131.8421,NaN L132.1053,NaN L132.3684,NaN L132.6316,NaN L132.8947,NaN L133.1579,NaN L133.4211,NaN L133.6842,NaN L133.9474,NaN L134.2105,NaN L134.4737,NaN L134.7368,NaN L135,NaN L135.2632,NaN L135.5263,NaN L135.7895,NaN L136.0526,NaN L136.3158,NaN L136.5789,NaN L136.8421,NaN L137.1053,NaN L137.3684,NaN L137.6316,NaN L137.8947,NaN L138.1579,NaN L138.4211,NaN L138.6842,NaN L138.9474,NaN L139.2105,NaN L139.4737,NaN L139.7368,NaN L140,NaN L140.2632,NaN L140.5263,NaN L140.7895,NaN L141.0526,NaN L141.3158,NaN L141.5789,NaN L141.8421,NaN L142.1053,NaN L142.3684,NaN L142.6316,NaN L142.8947,NaN L143.1579,NaN L143.4211,NaN L143.6842,NaN L143.9474,NaN L144.2105,NaN L144.4737,NaN L144.7368,NaN L145,NaN L145.2632,NaN L145.5263,NaN L145.7895,NaN L146.0526,NaN L146.3158,NaN L146.5789,NaN L146.8421,NaN L147.1053,NaN L147.3684,NaN L147.6316,NaN L147.8947,NaN L148.1579,NaN L148.4211,NaN L148.6842,NaN L148.9474,NaN L149.2105,NaN L149.4737,NaN L149.7368,NaN L150,NaN L150.2632,NaN L150.5263,NaN L150.7895,NaN L151.0526,NaN L151.3158,NaN L151.5789,NaN L151.8421,NaN L152.1053,NaN L152.3684,NaN L152.6316,NaN L152.8947,NaN L153.1579,NaN L153.4211,NaN L153.6842,NaN L153.9474,NaN L154.2105,NaN L154.4737,NaN L154.7368,NaN L155,NaN L155.2632,NaN L155.5263,NaN L155.7895,NaN L156.0526,NaN L156.3158,NaN L156.5789,NaN L156.8421,NaN L157.1053,NaN L157.3684,NaN L157.6316,NaN L157.8947,NaN L158.1579,NaN L158.4211,NaN L158.6842,NaN L158.9474,NaN L159.2105,NaN L159.4737,NaN L159.7368,NaN L160,NaN L160.2632,NaN L160.5263,NaN L160.7895,NaN L161.0526,NaN L161.3158,NaN L161.5789,NaN L161.8421,NaN L162.1053,NaN L162.3684,NaN L162.6316,NaN L162.8947,NaN L163.1579,NaN L163.4211,NaN L163.6842,NaN L163.9474,NaN L164.2105,NaN L164.4737,NaN L164.7368,NaN L165,NaN L165.2632,NaN L165.5263,NaN L165.7895,NaN L166.0526,NaN L166.3158,NaN L166.5789,NaN L166.8421,NaN L167.1053,NaN L167.3684,NaN L167.6316,NaN L167.8947,NaN L168.1579,NaN L168.4211,NaN L168.6842,NaN L168.9474,NaN L169.2105,NaN L169.4737,NaN L169.7368,NaN L170,NaN L170.2632,NaN L170.5263,NaN L170.7895,NaN L171.0526,NaN L171.3158,NaN L171.5789,NaN L171.8421,NaN L172.1053,NaN L172.3684,NaN L172.6316,NaN L172.8947,NaN L173.1579,NaN L173.4211,NaN L173.6842,NaN L173.9474,NaN L174.2105,NaN L174.4737,NaN L174.7368,NaN L175,NaN L175.2632,NaN L175.5263,NaN L175.7895,NaN L176.0526,NaN L176.3158,NaN L176.5789,NaN L176.8421,NaN L177.1053,NaN L177.3684,NaN L177.6316,NaN L177.8947,NaN L178.1579,NaN L178.4211,NaN L178.6842,NaN L178.9474,NaN L179.2105,NaN L179.4737,NaN L179.7368,NaN L180,NaN L180.2632,NaN L180.5263,NaN L180.7895,NaN L181.0526,NaN L181.3158,NaN L181.5789,NaN L181.8421,NaN L182.1053,NaN L182.3684,NaN L182.6316,NaN L182.8947,NaN L183.1579,NaN L183.4211,NaN L183.6842,NaN L183.9474,NaN L184.2105,NaN L184.4737,NaN L184.7368,NaN L185,NaN L185.2632,NaN L185.5263,NaN L185.7895,NaN L186.0526,NaN L186.3158,NaN L186.5789,NaN L186.8421,NaN L187.1053,NaN L187.3684,NaN L187.6316,NaN L187.8947,NaN L188.1579,NaN L188.4211,NaN L188.6842,NaN L188.9474,NaN L189.2105,NaN L189.4737,NaN L189.7368,NaN L190,NaN L190.2632,NaN L190.5263,NaN L190.7895,NaN L191.0526,NaN L191.3158,NaN L191.5789,NaN L191.8421,NaN L192.1053,NaN L192.3684,NaN L192.6316,NaN L192.8947,NaN L193.1579,NaN L193.4211,NaN L193.6842,NaN L193.9474,NaN L194.2105,NaN L194.4737,NaN L194.7368,NaN L195,NaN L195.2632,NaN L195.5263,NaN L195.7895,NaN L196.0526,NaN L196.3158,NaN L196.5789,NaN L196.8421,NaN L197.1053,NaN L197.3684,NaN L197.6316,NaN L197.8947,NaN L198.1579,NaN L198.4211,NaN L198.6842,NaN L198.9474,NaN L199.2105,NaN L199.4737,NaN L199.7368,NaN L200,NaN " stroke="blue" fill="none" />
</svg>
