<svg width="800" height="600" xmlns="http://www.w3.org/2000/svg">
<text x="10" y="20" font-family="Arial" font-size="16" fill="black"> [DeepUnity] Training Session</text>
<text x="10" y="40" font-family="Arial" font-size="12" fill="black">Start: 1:50:02 PM, Wednesday, August 30, 2023</text>
<text x="10" y="60" font-family="Arial" font-size="12" fill="black">End: 1:56:18 PM, Wednesday, August 30, 2023</text>
<text x="10" y="80" font-family="Arial" font-size="12" fill="black">Real Training Time: 0 hrs : 6 min : 15 sec</text>
<text x="10" y="100" font-family="Arial" font-size="12" fill="black">Training Time: 184.012</text>
<text x="10" y="120" font-family="Arial" font-size="12" fill="black">Iterations: 4</text>
<text x="10" y="140" font-family="Arial" font-size="12" fill="black">Parallel Agents: 7</text>
<text x="10" y="160" font-family="Arial" font-size="12" fill="black">Episode Reward</text>
<path d="M10,355.0215 L210,355.0215" stroke="gray" />
<text x="5" y="360.0215" font-family="Arial" font-size="10" fill="black">0</text>
<text x="5" y="180" font-family="Arial" font-size="10" fill="black">144.7906</text>
<text x="5" y="380" font-family="Arial" font-size="10" fill="black">-20.66405</text>
<path d="M0.2610966,354.9813 L0.5221932,354.9813 L0.7832898,354.9813 L1.044386,354.9813 L1.305483,354.9813 L1.56658,354.9813 L1.827676,354.9813 L2.088773,354.8508 L2.349869,354.86 L2.610966,354.7254 L2.872063,354.9813 L3.133159,354.8407 L3.394256,354.7995 L3.655352,354.8799 L3.916449,354.5124 L4.177546,354.8044 L4.438643,354.725 L4.699739,354.7554 L4.960835,354.2436 L5.221932,353.1667 L5.483029,354.9087 L5.744125,354.6741 L6.005222,353.5185 L6.266318,354.8062 L6.527415,353.0959 L6.788512,354.0389 L7.049608,355.1649 L7.310705,354.4868 L7.571802,353.2477 L7.832898,350.2602 L8.093995,354.7202 L8.355091,354.027 L8.616188,354.9813 L8.877285,354.0848 L9.138382,354.3314 L9.399478,354.4519 L9.660574,354.5103 L9.921671,354.1993 L10.18277,353.0053 L10.44386,353.9371 L10.70496,354.7734 L10.96606,354.722 L11.22715,350.2484 L11.48825,355.092 L11.74935,354.7968 L12.01044,354.4337 L12.27154,348.9284 L12.53264,354.3625 L12.79373,353.5721 L13.05483,355.4177 L13.31593,353.8104 L13.57702,354.2841 L13.83812,352.8801 L14.09922,354.7357 L14.36031,354.7764 L14.62141,354.7913 L14.88251,354.9813 L15.1436,353.1025 L15.4047,351.739 L15.6658,354.7364 L15.92689,353.4207 L16.18799,353.5176 L16.44909,354.5325 L16.71018,354.3369 L16.97128,354.6383 L17.23238,354.4611 L17.49347,342.7153 L17.75457,354.7882 L18.01567,353.435 L18.27676,354.5097 L18.53786,354.0911 L18.79896,354.1953 L19.06005,336.6062 L19.32115,354.4828 L19.58224,353.1783 L19.84334,354.0478 L20.10444,353.9502 L20.36553,353.3838 L20.62663,354.4667 L20.88773,354.5484 L21.14882,354.1493 L21.40992,354.4706 L21.67102,353.8627 L21.93212,354.2669 L22.19321,353.6447 L22.45431,353.9986 L22.7154,341.5875 L22.9765,348.2967 L23.2376,353.8006 L23.4987,354.7064 L23.75979,348.9579 L24.02089,354.861 L24.28198,348.2993 L24.54308,353.2191 L24.80418,341.9832 L25.06527,352.7806 L25.32637,351.3171 L25.58747,354.4005 L25.84856,354.6739 L26.10966,354.1433 L26.37076,342.7496 L26.63185,340.2372 L26.89295,354.8825 L27.15405,354.3694 L27.41514,353.7565 L27.67624,354.9813 L27.93734,353.8756 L28.19843,354.2892 L28.45953,353.4877 L28.72063,349.9771 L28.98172,353.9059 L29.24282,354.5504 L29.50392,353.2385 L29.76501,353.1808 L30.02611,352.6354 L30.28721,354.5978 L30.5483,349.4505 L30.8094,354.3933 L31.0705,354.6233 L31.33159,353.9962 L31.59269,353.7892 L31.85379,354.7726 L32.11488,354.7096 L32.37598,354.562 L32.63707,354.3414 L32.89817,353.651 L33.15927,354.4075 L33.42036,353.8707 L33.68146,354.1128 L33.94256,354.4639 L34.20366,354.4576 L34.46475,354.0698 L34.72585,354.1761 L34.98695,354.5643 L35.24804,353.2483 L35.50914,351.4347 L35.77023,353.0689 L36.03133,354.8817 L36.29243,353.8858 L36.55353,354.8753 L36.81462,347.1213 L37.07572,354.5048 L37.33681,354.5581 L37.59791,354.4347 L37.85901,348.7145 L38.12011,354.4466 L38.3812,354.1641 L38.6423,353.9145 L38.90339,353.4136 L39.16449,349.9057 L39.42559,354.3742 L39.68668,354.1407 L39.94778,353.8744 L40.20888,355.5175 L40.46997,354.0971 L40.73107,352.9122 L40.99217,354.3304 L41.25326,354.6427 L41.51436,352.8491 L41.77546,354.5975 L42.03655,354.6282 L42.29765,343.8858 L42.55875,343.8575 L42.81984,354.5439 L43.08094,344.479 L43.34204,354.6478 L43.60313,353.5927 L43.86423,369.4894 L44.12533,354.2055 L44.38642,354.394 L44.64752,345.485 L44.90862,354.1509 L45.16972,354.4773 L45.43081,353.3602 L45.69191,354.4288 L45.953,354.9813 L46.2141,354.5682 L46.4752,353.7901 L46.73629,353.7084 L46.99739,351.9609 L47.25848,354.4838 L47.51958,349.5525 L47.78068,354.5265 L48.04177,338.6361 L48.30287,354.7169 L48.56397,352.3434 L48.82507,354.6092 L49.08616,354.6634 L49.34726,354.482 L49.60836,353.5773 L49.86945,346.362 L50.13055,352.7018 L50.39164,354.3414 L50.65274,352.8781 L50.91384,350.215 L51.17493,344.4471 L51.43603,354.6472 L51.69713,351.8826 L51.95823,352.6029 L52.21932,354.5374 L52.48042,354.6631 L52.74152,353.9587 L53.00261,351.8704 L53.26371,354.9012 L53.5248,354.5177 L53.7859,351.9895 L54.04699,354.3875 L54.30809,354.6443 L54.56919,354.7301 L54.83029,354.2382 L55.09138,353.0231 L55.35248,353.7072 L55.61358,353.7559 L55.87468,354.2308 L56.13577,354.9813 L56.39687,353.3836 L56.65796,354.9328 L56.91906,354.2539 L57.18015,350.4367 L57.44125,354.6553 L57.70235,315.0961 L57.96345,354.5357 L58.22454,354.6855 L58.48564,352.3612 L58.74674,353.1317 L59.00784,353.9739 L59.26893,354.7394 L59.53003,352.9566 L59.79112,354.6334 L60.05222,354.4657 L60.31331,350.6631 L60.57441,354.4879 L60.83551,353.3937 L61.09661,354.7655 L61.3577,353.7412 L61.6188,354.3019 L61.8799,354.0807 L62.14099,338.8857 L62.40209,353.0151 L62.66319,351.7694 L62.92428,354.5398 L63.18538,334.8475 L63.44647,347.5662 L63.70757,354.6262 L63.96867,354.6781 L64.22976,354.3488 L64.49086,353.8105 L64.75196,353.1306 L65.01305,354.651 L65.27415,352.0191 L65.53525,354.8561 L65.79635,353.6097 L66.05744,347.8524 L66.31853,356.0207 L66.57964,354.7857 L66.84073,354.7549 L67.10183,354.2802 L67.36292,354.2533 L67.62402,354.7578 L67.88512,355.7359 L68.14622,354.0581 L68.40731,353.133 L68.6684,354.6092 L68.9295,346.6977 L69.19061,354.7237 L69.4517,354.6045 L69.71279,354.4867 L69.97389,351.7825 L70.23499,354.4941 L70.49608,352.8397 L70.75718,354.6482 L71.01828,354.7268 L71.27937,353.3018 L71.54047,354.1477 L71.80157,352.3626 L72.06267,354.9813 L72.32376,353.9525 L72.58485,354.4011 L72.84595,354.5915 L73.10706,352.2579 L73.36814,344.4285 L73.62924,354.5958 L73.89034,354.5638 L74.15144,298.5316 L74.41253,354.5562 L74.67363,353.5015 L74.93473,351.6258 L75.19582,342.8946 L75.45692,332.5316 L75.71802,354.4326 L75.97911,355.0197 L76.24021,353.1797 L76.5013,353.6499 L76.76241,354.3974 L77.0235,353.7322 L77.28459,354.4061 L77.54569,304.2355 L77.80679,353.7308 L78.06789,339.7457 L78.32898,354.653 L78.59008,352.9299 L78.85117,346.0843 L79.11227,353.3441 L79.37337,354.0591 L79.63446,354.2182 L79.89556,353.6526 L80.15666,347.8214 L80.41776,354.7286 L80.67885,349.8152 L80.93995,353.5506 L81.20105,354.3496 L81.46214,350.2502 L81.72324,353.7481 L81.98434,352.4218 L82.24543,354.2342 L82.50652,354.5945 L82.76762,354.5936 L83.02872,336.9279 L83.28982,354.1233 L83.55091,354.5035 L83.81201,354.9813 L84.0731,354.4424 L84.33421,354.6568 L84.5953,337.1476 L84.8564,354.7664 L85.11749,354.7578 L85.37859,354.7334 L85.63969,331.0172 L85.90079,353.825 L86.16188,352.2123 L86.42297,352.6314 L86.68407,335.8511 L86.94517,353.0659 L87.20627,354.3602 L87.46736,349.2959 L87.72846,354.826 L87.98956,354.4998 L88.25066,354.5694 L88.51175,354.5894 L88.77284,347.744 L89.03394,351.9906 L89.29504,354.4419 L89.55614,354.2122 L89.81723,354.3946 L90.07833,354.3076 L90.33943,321.4922 L90.60052,353.974 L90.86162,353.7512 L91.12272,354.5944 L91.38381,343.3265 L91.64491,353.8015 L91.90601,352.1498 L92.16711,324.8176 L92.42819,354.1174 L92.68929,354.4584 L92.95039,354.3969 L93.21149,352.3682 L93.47258,329.9747 L93.73368,352.4364 L93.99478,354.6193 L94.25587,354.4576 L94.51697,306.8288 L94.77807,351.3367 L95.03916,353.5953 L95.30026,353.8558 L95.56136,347.0782 L95.82246,344.4557 L96.08355,353.4882 L96.34465,354.5465 L96.60574,350.5573 L96.86684,354.5263 L97.12794,353.4957 L97.38904,348.6308 L97.65013,354.6673 L97.91122,354.4854 L98.17233,354.595 L98.43343,329.5268 L98.69452,353.1078 L98.95561,352.6483 L99.21671,352.0549 L99.47781,354.0561 L99.7389,354.3802 L100,306.0388 L100.2611,349.5094 L100.5222,354.0321 L100.7833,351.9292 L101.0444,353.4609 L101.3055,354.5866 L101.5666,354.4108 L101.8277,354.8372 L102.0888,355.7846 L102.3499,352.3941 L102.611,353.9751 L102.8721,353.6136 L103.1332,354.2408 L103.3943,354.5842 L103.6553,352.2688 L103.9165,324.2003 L104.1775,351.2757 L104.4386,354.6698 L104.6997,354.4745 L104.9608,353.1696 L105.2219,352.5096 L105.483,352.036 L105.7441,354.3739 L106.0052,353.3517 L106.2663,351.8999 L106.5274,354.033 L106.7885,354.5129 L107.0496,354.2284 L107.3107,353.5771 L107.5718,347.897 L107.8329,354.0442 L108.094,352.6334 L108.3551,349.5182 L108.6162,353.3929 L108.8773,352.7422 L109.1384,353.8163 L109.3995,354.6986 L109.6606,352.0051 L109.9217,345.5194 L110.1828,354.759 L110.4439,354.8103 L110.705,354.9813 L110.9661,350.5796 L111.2272,354.6147 L111.4883,354.4747 L111.7494,350.9678 L112.0104,354.7257 L112.2715,352.4679 L112.5326,354.9813 L112.7937,354.333 L113.0548,365.6249 L113.3159,354.946 L113.577,354.536 L113.8381,349.0236 L114.0992,353.5118 L114.3603,354.7173 L114.6214,354.7459 L114.8825,354.1132 L115.1436,354.9813 L115.4047,353.6126 L115.6658,354.5396 L115.9269,353.9138 L116.188,354.1251 L116.4491,354.5663 L116.7102,354.1846 L116.9713,353.824 L117.2324,354.067 L117.4935,354.5596 L117.7546,354.6535 L118.0157,353.3976 L118.2768,354.6649 L118.5379,354.3221 L118.799,336.6576 L119.0601,355.0024 L119.3211,192.1214 L119.5822,355.9415 L119.8433,353.447 L120.1044,353.089 L120.3655,354.5359 L120.6266,353.185 L120.8877,354.3936 L121.1488,353.7519 L121.4099,354.6505 L121.671,354.1347 L121.9321,354.2188 L122.1932,354.0361 L122.4543,354.5309 L122.7154,354.482 L122.9765,353.0659 L123.2376,354.584 L123.4987,354.1131 L123.7598,354.7615 L124.0209,350.8328 L124.282,349.1318 L124.5431,354.612 L124.8042,346.1426 L125.0653,345.8346 L125.3264,354.3661 L125.5875,354.9813 L125.8486,354.4802 L126.1097,345.0522 L126.3708,354.5025 L126.6319,351.7593 L126.8929,354.4935 L127.1541,353.089 L127.4151,354.658 L127.6762,350.7843 L127.9373,353.3642 L128.1984,354.6266 L128.4595,354.6279 L128.7206,354.4486 L128.9817,353.9546 L129.2428,354.2487 L129.5039,316.1462 L129.765,354.5984 L130.0261,351.6189 L130.2872,354.5848 L130.5483,354.231 L130.8094,354.2082 L131.0705,353.871 L131.3316,354.4434 L131.5927,335.5801 L131.8538,354.7379 L132.1149,354.6769 L132.376,353.7471 L132.6371,348.1674 L132.8982,353.9602 L133.1593,354.5568 L133.4204,343.8925 L133.6815,354.3291 L133.9426,318.59 L134.2037,338.1994 L134.4648,354.6841 L134.7258,355.6955 L134.987,353.5352 L135.248,353.12 L135.5091,354.9813 L135.7702,352.6231 L136.0313,351.121 L136.2924,315.3706 L136.5535,353.4663 L136.8146,354.1837 L137.0757,353.3591 L137.3368,354.6804 L137.5979,353.6463 L137.859,354.5594 L138.1201,353.6683 L138.3812,350.2514 L138.6423,352.2806 L138.9034,332.6943 L139.1645,352.7108 L139.4256,354.4098 L139.6867,353.1278 L139.9478,353.0427 L140.2089,354.4075 L140.47,354.208 L140.7311,353.5807 L140.9922,354.474 L141.2533,352.0305 L141.5144,354.622 L141.7755,354.0225 L142.0366,354.6371 L142.2977,352.5391 L142.5587,354.157 L142.8198,354.5732 L143.0809,353.8653 L143.342,353.7737 L143.6031,353.6447 L143.8642,353.6974 L144.1253,342.1658 L144.3864,351.6807 L144.6475,354.6611 L144.9086,350.1493 L145.1697,354.7053 L145.4308,354.9813 L145.6919,350.5324 L145.953,353.6189 L146.2141,354.4328 L146.4752,354.5397 L146.7363,349.8049 L146.9974,349.5397 L147.2585,353.5131 L147.5196,354.3929 L147.7807,354.7282 L148.0418,354.5016 L148.3029,353.4822 L148.564,354.9813 L148.8251,355.1145 L149.0862,352.9741 L149.3473,354.5759 L149.6084,349.6715 L149.8695,354.2434 L150.1305,354.2784 L150.3916,354.3732 L150.6527,354.6827 L150.9138,339.9723 L151.1749,313.6772 L151.436,354.5327 L151.6971,354.5188 L151.9582,357.7431 L152.2193,354.4586 L152.4804,353.1157 L152.7415,346.5482 L153.0026,354.2262 L153.2637,354.5645 L153.5248,352.8087 L153.7859,352.3748 L154.047,288.3316 L154.3081,352.6549 L154.5692,354.3645 L154.8303,353.861 L155.0914,354.5659 L155.3525,336.0876 L155.6136,341.9864 L155.8747,354.8336 L156.1358,354.6652 L156.3969,354.512 L156.658,353.6633 L156.9191,353.5761 L157.1802,354.6104 L157.4413,353.458 L157.7023,354.4042 L157.9634,354.6472 L158.2245,352.9853 L158.4856,353.1295 L158.7467,333.8219 L159.0078,362.7668 L159.2689,354.4122 L159.53,180 L159.7911,354.6143 L160.0522,354.1769 L160.3133,356.9581 L160.5744,354.2112 L160.8355,354.9813 L161.0966,351.5251 L161.3577,353.8096 L161.6188,354.7665 L161.8799,353.2587 L162.141,354.27 L162.4021,278.1344 L162.6632,354.85 L162.9243,354.3357 L163.1854,352.0478 L163.4465,351.7481 L163.7076,354.4331 L163.9687,354.1802 L164.2298,354.5457 L164.4909,354.6544 L164.752,315.6376 L165.013,305.3232 L165.2742,354.7142 L165.5352,355.5269 L165.7963,337.9111 L166.0574,256.8967 L166.3185,355.2015 L166.5796,354.7685 L166.8407,354.2603 L167.1018,354.5021 L167.3629,353.3704 L167.624,305.1643 L167.8851,354.2258 L168.1462,354.8538 L168.4073,334.894 L168.6684,302.0079 L168.9295,354.8076 L169.1906,354.4817 L169.4517,352.9236 L169.7128,355.3622 L169.9739,353.9357 L170.235,354.597 L170.4961,348.0553 L170.7572,261.6967 L171.0183,354.0508 L171.2794,351.3906 L171.5405,297.8043 L171.8016,349.1414 L172.0627,354.6951 L172.3238,352.927 L172.5849,335.4351 L172.8459,354.3742 L173.1071,354.6159 L173.3681,355.7767 L173.6292,352.8688 L173.8903,354.9813 L174.1514,353.274 L174.4125,352.4959 L174.6736,288.2296 L174.9347,354.9813 L175.1958,354.9813 L175.4569,354.5705 L175.718,350.4486 L175.9791,327.7734 L176.2402,353.7286 L176.5013,350.1584 L176.7624,354.5615 L177.0235,351.1706 L177.2846,354.3431 L177.5457,354.2846 L177.8068,188.0741 L178.0679,352.7115 L178.329,340.5269 L178.5901,353.6245 L178.8512,342.6023 L179.1123,354.5103 L179.3734,354.3986 L179.6345,341.7434 L179.8956,354.7497 L180.1567,280.9345 L180.4178,354.4068 L180.6789,353.4226 L180.9399,344.5333 L181.201,343.862 L181.4621,354.5615 L181.7232,319.9803 L181.9843,354.42 L182.2454,350.9365 L182.5065,353.6469 L182.7676,353.3912 L183.0287,354.0843 L183.2898,276.4261 L183.5509,354.1541 L183.812,354.9463 L184.0731,344.0985 L184.3342,354.207 L184.5953,355.318 L184.8564,351.0846 L185.1175,353.0201 L185.3786,313.749 L185.6397,267.011 L185.9008,354.4088 L186.1619,354.9813 L186.423,354.4554 L186.6841,354.9813 L186.9452,364.9518 L187.2063,351.714 L187.4674,282.8356 L187.7285,354.5491 L187.9896,343.1883 L188.2507,345.5991 L188.5117,354.4501 L188.7728,354.3794 L189.0339,354.9813 L189.295,354.0004 L189.5561,354.4854 L189.8172,343.6028 L190.0783,354.4606 L190.3394,354.6537 L190.6005,354.0989 L190.8616,354.9813 L191.1227,346.9427 L191.3838,354.6482 L191.6449,353.6873 L191.906,352.6267 L192.1671,347.4399 L192.4282,353.814 L192.6893,333.8179 L192.9504,346.2897 L193.2115,354.7184 L193.4726,337.6132 L193.7337,358.8137 L193.9948,354.5485 L194.2559,354.5071 L194.517,308.8814 L194.7781,380 L195.0392,354.8145 L195.3003,352.6877 L195.5614,351.7136 L195.8224,353.5511 L196.0835,351.8179 L196.3447,354.6852 L196.6057,354.9813 L196.8669,353.7231 L197.1279,308.5425 L197.389,343.9815 L197.6501,313.3395 L197.9112,353.9744 L198.1723,354.9813 L198.4334,354.9813 L198.6945,354.8498 L198.9556,353.8025 L199.2167,337.1975 L199.4778,352.9158 L199.7389,354.3007 L200,328.9341 " stroke="blue" fill="none" />
<text x="10" y="400" font-family="Arial" font-size="12" fill="black">Episode Length</text>
<path d="M10,620.4004 L210,620.4004" stroke="gray" />
<text x="5" y="625.4004" font-family="Arial" font-size="10" fill="black">0</text>
<text x="5" y="420" font-family="Arial" font-size="10" fill="black">1001</text>
<text x="5" y="620" font-family="Arial" font-size="10" fill="black">2</text>
<path d="M0.2610966,620 L0.5221932,620 L0.7832898,620 L1.044386,620 L1.305483,620 L1.56658,620 L1.827676,620 L2.088773,619.3994 L2.349869,619.3994 L2.610966,618.999 L2.872063,620 L3.133159,618.5986 L3.394256,618.999 L3.655352,618.1982 L3.916449,617.7978 L4.177546,619.1992 L4.438643,618.3984 L4.699739,618.7988 L4.960835,616.3964 L5.221932,614.995 L5.483029,619.5996 L5.744125,615.5956 L6.005222,615.7958 L6.266318,619.1992 L6.527415,609.5896 L6.788512,614.3944 L7.049608,612.3924 L7.310705,617.7978 L7.571802,611.992 L7.832898,608.7888 L8.093995,618.7988 L8.355091,614.5946 L8.616188,620 L8.877285,607.1872 L9.138382,617.1972 L9.399478,616.7968 L9.660574,617.7978 L9.921671,615.7958 L10.18277,607.1872 L10.44386,615.996 L10.70496,618.999 L10.96606,618.7988 L11.22715,607.7878 L11.48825,609.1892 L11.74935,613.994 L12.01044,617.5976 L12.27154,587.3674 L12.53264,616.3964 L12.79373,614.5946 L13.05483,614.3944 L13.31593,612.1922 L13.57702,614.3944 L13.83812,613.994 L14.09922,616.5966 L14.36031,618.999 L14.62141,619.1992 L14.88251,620 L15.1436,608.989 L15.4047,608.5886 L15.6658,618.7988 L15.92689,609.3894 L16.18799,608.989 L16.44909,610.5906 L16.71018,616.997 L16.97128,604.1842 L17.23238,615.996 L17.49347,594.7748 L17.75457,618.999 L18.01567,610.991 L18.27676,618.1982 L18.53786,614.5946 L18.79896,615.7958 L19.06005,567.7477 L19.32115,610.991 L19.58224,609.7898 L19.84334,616.7968 L20.10444,612.993 L20.36553,605.3854 L20.62663,616.7968 L20.88773,616.997 L21.14882,616.1962 L21.40992,616.7968 L21.67102,616.1962 L21.93212,616.5966 L22.19321,613.1932 L22.45431,616.5966 L22.7154,594.7748 L22.9765,598.3784 L23.2376,615.5956 L23.4987,618.5986 L23.75979,600.981 L24.02089,612.993 L24.28198,591.1711 L24.54308,606.3864 L24.80418,594.3744 L25.06527,611.992 L25.32637,591.7718 L25.58747,615.1952 L25.84856,618.3984 L26.10966,615.5956 L26.37076,564.7448 L26.63185,584.7648 L26.89295,615.1952 L27.15405,616.5966 L27.41514,612.1922 L27.67624,620 L27.93734,610.7908 L28.19843,611.3914 L28.45953,615.5956 L28.72063,600.7808 L28.98172,613.994 L29.24282,617.3974 L29.50392,594.3744 L29.76501,610.1902 L30.02611,596.977 L30.28721,617.998 L30.5483,591.7718 L30.8094,617.3974 L31.0705,615.996 L31.33159,614.3944 L31.59269,606.1862 L31.85379,618.999 L32.11488,618.7988 L32.37598,617.998 L32.63707,616.5966 L32.89817,610.3904 L33.15927,613.7938 L33.42036,615.3954 L33.68146,611.992 L33.94256,613.5936 L34.20366,613.3934 L34.46475,606.987 L34.72585,615.996 L34.98695,617.7978 L35.24804,611.5916 L35.50914,604.3844 L35.77023,607.7878 L36.03133,619.5996 L36.29243,615.1952 L36.55353,617.998 L36.81462,598.7788 L37.07572,616.1962 L37.33681,617.998 L37.59791,614.5946 L37.85901,605.7858 L38.12011,617.5976 L38.3812,611.3914 L38.6423,611.7918 L38.90339,615.1952 L39.16449,608.1882 L39.42559,614.1942 L39.68668,616.7968 L39.94778,614.1942 L40.20888,610.3904 L40.46997,616.7968 L40.73107,611.5916 L40.99217,615.7958 L41.25326,618.3984 L41.51436,610.991 L41.77546,617.7978 L42.03655,618.3984 L42.29765,593.7738 L42.55875,586.3664 L42.81984,617.998 L43.08094,596.977 L43.34204,618.3984 L43.60313,607.1872 L43.86423,584.965 L44.12533,615.996 L44.38642,610.5906 L44.64752,587.1672 L44.90862,610.7908 L45.16972,616.7968 L45.43081,609.7898 L45.69191,617.5976 L45.953,620 L46.2141,618.1982 L46.4752,609.99 L46.73629,607.3874 L46.99739,579.7598 L47.25848,615.7958 L47.51958,602.1822 L47.78068,616.7968 L48.04177,593.7738 L48.30287,618.7988 L48.56397,599.7798 L48.82507,614.1942 L49.08616,618.5986 L49.34726,610.1902 L49.60836,611.992 L49.86945,609.3894 L50.13055,611.3914 L50.39164,614.3944 L50.65274,614.1942 L50.91384,596.3764 L51.17493,598.5786 L51.43603,618.1982 L51.69713,600.981 L51.95823,603.5836 L52.21932,617.3974 L52.48042,613.3934 L52.74152,614.1942 L53.00261,605.5856 L53.26371,612.3924 L53.5248,614.995 L53.7859,610.991 L54.04699,615.5956 L54.30809,614.5946 L54.56919,618.7988 L54.83029,614.1942 L55.09138,608.989 L55.35248,613.7938 L55.61358,614.7948 L55.87468,616.997 L56.13577,620 L56.39687,609.99 L56.65796,613.5936 L56.91906,615.996 L57.18015,601.982 L57.44125,618.3984 L57.70235,523.7037 L57.96345,616.997 L58.22454,618.5986 L58.48564,609.3894 L58.74674,608.3884 L59.00784,613.1932 L59.26893,618.7988 L59.53003,607.3874 L59.79112,618.1982 L60.05222,612.7928 L60.31331,609.99 L60.57441,616.5966 L60.83551,612.7928 L61.09661,618.999 L61.3577,615.5956 L61.6188,616.997 L61.8799,614.7948 L62.14099,593.974 L62.40209,607.1872 L62.66319,610.1902 L62.92428,617.7978 L63.18538,582.7628 L63.44647,603.984 L63.70757,618.3984 L63.96867,618.5986 L64.22976,611.992 L64.49086,613.5936 L64.75196,613.3934 L65.01305,618.3984 L65.27415,606.987 L65.53525,619.3994 L65.79635,613.3934 L66.05744,600.981 L66.31853,565.3453 L66.57964,617.998 L66.84073,618.1982 L67.10183,617.3974 L67.36292,616.3964 L67.62402,615.996 L67.88512,607.988 L68.14622,616.5966 L68.40731,612.1922 L68.6684,618.3984 L68.9295,590.9709 L69.19061,616.1962 L69.4517,606.1862 L69.71279,617.1972 L69.97389,608.989 L70.23499,617.7978 L70.49608,612.5926 L70.75718,618.3984 L71.01828,614.1942 L71.27937,609.5896 L71.54047,616.3964 L71.80157,608.989 L72.06267,620 L72.32376,611.7918 L72.58485,609.99 L72.84595,616.997 L73.10706,609.7898 L73.36814,596.3764 L73.62924,618.1982 L73.89034,616.997 L74.15144,567.3474 L74.41253,617.998 L74.67363,612.3924 L74.93473,601.5816 L75.19582,573.5535 L75.45692,566.7468 L75.71802,615.5956 L75.97911,601.7818 L76.24021,613.7938 L76.5013,609.3894 L76.76241,616.997 L77.0235,614.995 L77.28459,617.1972 L77.54569,567.3474 L77.80679,612.1922 L78.06789,570.9509 L78.32898,613.3934 L78.59008,603.7838 L78.85117,586.7668 L79.11227,612.993 L79.37337,613.5936 L79.63446,613.5936 L79.89556,614.995 L80.15666,606.5866 L80.41776,618.7988 L80.67885,601.5816 L80.93995,610.7908 L81.20105,614.3944 L81.46214,606.5866 L81.72324,609.3894 L81.98434,611.7918 L82.24543,616.7968 L82.50652,617.998 L82.76762,617.5976 L83.02872,584.965 L83.28982,614.1942 L83.55091,617.7978 L83.81201,620 L84.0731,617.7978 L84.33421,616.7968 L84.5953,599.1792 L84.8564,618.999 L85.11749,618.999 L85.37859,614.995 L85.63969,588.3683 L85.90079,613.7938 L86.16188,611.7918 L86.42297,610.991 L86.68407,571.3514 L86.94517,611.5916 L87.20627,611.5916 L87.46736,603.3834 L87.72846,615.7958 L87.98956,617.998 L88.25066,617.998 L88.51175,617.1972 L88.77284,596.7768 L89.03394,608.7888 L89.29504,617.7978 L89.55614,615.7958 L89.81723,616.7968 L90.07833,614.995 L90.33943,567.7477 L90.60052,590.7708 L90.86162,613.3934 L91.12272,618.1982 L91.38381,604.1842 L91.64491,611.7918 L91.90601,606.5866 L92.16711,559.1392 L92.42819,615.996 L92.68929,598.7788 L92.95039,616.1962 L93.21149,613.3934 L93.47258,578.3583 L93.73368,604.1842 L93.99478,616.5966 L94.25587,615.7958 L94.51697,536.5165 L94.77807,594.3744 L95.03916,612.7928 L95.30026,612.1922 L95.56136,586.3664 L95.82246,598.5786 L96.08355,615.7958 L96.34465,617.5976 L96.60574,567.9479 L96.86684,617.1972 L97.12794,615.996 L97.38904,598.979 L97.65013,617.998 L97.91122,617.7978 L98.17233,616.3964 L98.43343,575.5555 L98.69452,609.5896 L98.95561,594.3744 L99.21671,607.3874 L99.47781,614.1942 L99.7389,617.1972 L100,508.0881 L100.2611,601.3814 L100.5222,616.5966 L100.7833,608.1882 L101.0444,608.5886 L101.3055,618.1982 L101.5666,617.1972 L101.8277,611.7918 L102.0888,612.3924 L102.3499,611.5916 L102.611,615.996 L102.8721,608.7888 L103.1332,609.99 L103.3943,617.5976 L103.6553,609.99 L103.9165,579.1592 L104.1775,606.5866 L104.4386,618.3984 L104.6997,617.7978 L104.9608,612.5926 L105.2219,612.7928 L105.483,608.1882 L105.7441,616.5966 L106.0052,610.7908 L106.2663,608.989 L106.5274,613.1932 L106.7885,616.997 L107.0496,614.7948 L107.3107,615.5956 L107.5718,599.98 L107.8329,611.3914 L108.094,614.7948 L108.3551,603.3834 L108.6162,609.3894 L108.8773,609.3894 L109.1384,613.994 L109.3995,618.5986 L109.6606,604.1842 L109.9217,594.1742 L110.1828,618.999 L110.4439,619.1992 L110.705,620 L110.9661,611.992 L111.2272,618.1982 L111.4883,616.5966 L111.7494,610.5906 L112.0104,618.7988 L112.2715,603.5836 L112.5326,620 L112.7937,617.1972 L113.0548,605.3854 L113.3159,611.1912 L113.577,617.998 L113.8381,602.983 L114.0992,609.99 L114.3603,615.996 L114.6214,618.7988 L114.8825,617.1972 L115.1436,620 L115.4047,594.3744 L115.6658,616.5966 L115.9269,612.3924 L116.188,615.996 L116.4491,617.3974 L116.7102,616.1962 L116.9713,614.3944 L117.2324,612.5926 L117.4935,614.995 L117.7546,618.3984 L118.0157,611.5916 L118.2768,618.1982 L118.5379,614.7948 L118.799,579.7598 L119.0601,612.993 L119.3211,486.8669 L119.5822,605.5856 L119.8433,600.981 L120.1044,612.5926 L120.3655,617.1972 L120.6266,599.7798 L120.8877,617.1972 L121.1488,611.3914 L121.4099,613.5936 L121.671,615.5956 L121.9321,616.7968 L122.1932,612.7928 L122.4543,616.997 L122.7154,617.3974 L122.9765,601.7818 L123.2376,615.3954 L123.4987,616.7968 L123.7598,618.999 L124.0209,607.1872 L124.282,606.5866 L124.5431,618.3984 L124.8042,599.3794 L125.0653,602.7828 L125.3264,617.1972 L125.5875,620 L125.8486,616.5966 L126.1097,592.7728 L126.3708,616.997 L126.6319,608.989 L126.8929,616.7968 L127.1541,612.1922 L127.4151,618.3984 L127.6762,591.972 L127.9373,613.994 L128.1984,612.1922 L128.4595,618.1982 L128.7206,611.7918 L128.9817,613.1932 L129.2428,614.3944 L129.5039,578.7588 L129.765,614.995 L130.0261,603.3834 L130.2872,618.1982 L130.5483,614.1942 L130.8094,611.7918 L131.0705,610.7908 L131.3316,612.993 L131.5927,590.7708 L131.8538,611.1912 L132.1149,618.5986 L132.376,609.7898 L132.6371,600.3804 L132.8982,611.992 L133.1593,617.998 L133.4204,590.1702 L133.6815,612.993 L133.9426,578.7588 L134.2037,581.1611 L134.4648,618.5986 L134.7258,611.7918 L134.987,609.1892 L135.248,612.7928 L135.5091,620 L135.7702,612.1922 L136.0313,599.7798 L136.2924,554.9349 L136.5535,609.1892 L136.8146,611.1912 L137.0757,608.3884 L137.3368,618.5986 L137.5979,614.7948 L137.859,614.1942 L138.1201,611.5916 L138.3812,596.977 L138.6423,604.985 L138.9034,559.1392 L139.1645,614.5946 L139.4256,617.3974 L139.6867,603.1832 L139.9478,611.7918 L140.2089,615.1952 L140.47,611.3914 L140.7311,614.1942 L140.9922,617.998 L141.2533,574.955 L141.5144,618.1982 L141.7755,616.3964 L142.0366,618.3984 L142.2977,609.99 L142.5587,612.5926 L142.8198,614.7948 L143.0809,614.7948 L143.342,613.7938 L143.6031,613.5936 L143.8642,612.7928 L144.1253,592.973 L144.3864,606.1862 L144.6475,615.5956 L144.9086,605.1852 L145.1697,618.7988 L145.4308,620 L145.6919,590.5706 L145.953,611.1912 L146.2141,617.3974 L146.4752,617.5976 L146.7363,600.981 L146.9974,610.3904 L147.2585,613.3934 L147.5196,609.5896 L147.7807,616.3964 L148.0418,611.992 L148.3029,613.7938 L148.564,620 L148.8251,605.7858 L149.0862,604.3844 L149.3473,614.5946 L149.6084,607.1872 L149.8695,617.1972 L150.1305,615.996 L150.3916,617.1972 L150.6527,618.5986 L150.9138,596.7768 L151.1749,556.7368 L151.436,617.998 L151.6971,613.3934 L151.9582,601.7818 L152.2193,617.1972 L152.4804,613.5936 L152.7415,595.1752 L153.0026,615.3954 L153.2637,617.7978 L153.5248,607.1872 L153.7859,610.1902 L154.047,532.7127 L154.3081,606.1862 L154.5692,611.3914 L154.8303,611.992 L155.0914,616.997 L155.3525,570.3503 L155.6136,587.5676 L155.8747,611.5916 L156.1358,616.3964 L156.3969,617.1972 L156.658,615.1952 L156.9191,614.5946 L157.1802,618.1982 L157.4413,613.7938 L157.7023,613.994 L157.9634,612.1922 L158.2245,605.986 L158.4856,613.1932 L158.7467,576.5566 L159.0078,587.968 L159.2689,617.1972 L159.53,447.2272 L159.7911,618.1982 L160.0522,613.1932 L160.3133,608.3884 L160.5744,616.7968 L160.8355,620 L161.0966,606.987 L161.3577,612.5926 L161.6188,614.7948 L161.8799,611.3914 L162.141,615.7958 L162.4021,515.6957 L162.6632,619.3994 L162.9243,614.5946 L163.1854,607.1872 L163.4465,610.991 L163.7076,614.5946 L163.9687,612.7928 L164.2298,616.7968 L164.4909,617.998 L164.752,497.4775 L165.013,454.8348 L165.2742,615.3954 L165.5352,613.5936 L165.7963,524.7047 L166.0574,474.8549 L166.3185,609.5896 L166.5796,618.999 L166.8407,616.1962 L167.1018,616.3964 L167.3629,614.995 L167.624,546.3264 L167.8851,613.994 L168.1462,615.5956 L168.4073,561.1411 L168.6684,488.0681 L168.9295,619.1992 L169.1906,616.997 L169.4517,611.1912 L169.7128,612.3924 L169.9739,614.1942 L170.235,617.3974 L170.4961,606.5866 L170.7572,493.4735 L171.0183,613.5936 L171.2794,597.3774 L171.5405,562.7427 L171.8016,606.987 L172.0627,618.7988 L172.3238,613.5936 L172.5849,577.5576 L172.8459,612.7928 L173.1071,612.3924 L173.3681,607.5876 L173.6292,612.993 L173.8903,620 L174.1514,606.987 L174.4125,609.5896 L174.6736,535.9159 L174.9347,620 L175.1958,620 L175.4569,617.7978 L175.718,607.988 L175.9791,435.6156 L176.2402,615.5956 L176.5013,604.985 L176.7624,617.5976 L177.0235,585.7657 L177.2846,617.3974 L177.5457,615.7958 L177.8068,449.8298 L178.0679,611.992 L178.329,538.9189 L178.5901,613.7938 L178.8512,595.3754 L179.1123,617.7978 L179.3734,617.5976 L179.6345,458.2383 L179.8956,615.3954 L180.1567,454.2342 L180.4178,617.7978 L180.6789,612.5926 L180.9399,445.4254 L181.201,593.5735 L181.4621,615.996 L181.7232,488.2683 L181.9843,613.1932 L182.2454,608.3884 L182.5065,614.1942 L182.7676,611.992 L183.0287,614.995 L183.2898,430.6106 L183.5509,613.5936 L183.812,613.3934 L184.0731,602.3824 L184.3342,617.1972 L184.5953,612.5926 L184.8564,603.5836 L185.1175,612.7928 L185.3786,556.937 L185.6397,420 L185.9008,617.5976 L186.1619,620 L186.423,617.3974 L186.6841,620 L186.9452,532.5125 L187.2063,611.1912 L187.4674,538.5185 L187.7285,616.997 L187.9896,532.7127 L188.2507,585.5656 L188.5117,617.1972 L188.7728,617.5976 L189.0339,620 L189.295,615.7958 L189.5561,617.5976 L189.8172,586.3664 L190.0783,617.5976 L190.3394,618.3984 L190.6005,616.5966 L190.8616,620 L191.1227,607.988 L191.3838,603.7838 L191.6449,612.7928 L191.906,613.1932 L192.1671,604.7848 L192.4282,614.995 L192.6893,567.9479 L192.9504,605.3854 L193.2115,618.7988 L193.4726,581.7618 L193.7337,462.4424 L193.9948,617.998 L194.2559,617.5976 L194.517,534.5145 L194.7781,420 L195.0392,619.1992 L195.3003,607.988 L195.5614,606.987 L195.8224,615.3954 L196.0835,613.7938 L196.3447,613.7938 L196.6057,620 L196.8669,613.994 L197.1279,541.9219 L197.389,572.9529 L197.6501,523.3033 L197.9112,616.5966 L198.1723,620 L198.4334,620 L198.6945,619.3994 L198.9556,612.993 L199.2167,583.7638 L199.4778,608.989 L199.7389,616.1962 L200,535.5155 " stroke="blue" fill="none" />
<text x="10" y="640" font-family="Arial" font-size="12" fill="black">Policy Loss</text>
<path d="M10,917.0967 L210,917.0967" stroke="gray" />
<text x="5" y="922.0967" font-family="Arial" font-size="10" fill="black">0</text>
<text x="5" y="660" font-family="Arial" font-size="10" fill="black">0.002755177</text>
<text x="5" y="860" font-family="Arial" font-size="10" fill="black">0.0006118771</text>
<path d="M0.8928572,794.7903 L1.785714,800.8161 L2.678571,766.7316 L3.571429,731.9845 L4.464286,776.4656 L5.357143,829.4936 L6.25,758.9188 L7.142858,831.3003 L8.035714,802.1193 L8.928572,829.7836 L9.821428,816.3317 L10.71429,786.1879 L11.60714,730.4794 L12.5,756.1528 L13.39286,791.3123 L14.28572,770.9583 L15.17857,731.0488 L16.07143,787.705 L16.96428,746.2385 L17.85714,792.3456 L18.75,746.2906 L19.64286,787.3557 L20.53572,750.0999 L21.42857,728.4283 L22.32143,723.6261 L23.21428,823.9971 L24.10714,787.2833 L25,764.2162 L25.89286,826.1786 L26.78571,738.6819 L27.67857,749.1442 L28.57143,785.0347 L29.46429,816.3243 L30.35714,753.084 L31.25,690.0202 L32.14286,721.3206 L33.03571,792.4246 L33.92857,819.4437 L34.82143,743.0861 L35.71429,735.7493 L36.60714,708.1259 L37.5,768.8561 L38.39286,749.2267 L39.28571,710.0561 L40.17857,825.6328 L41.07143,833.5623 L41.96429,764.5971 L42.85714,825.3914 L43.75,796.4813 L44.64286,796.3002 L45.53571,739.4918 L46.42857,822.3823 L47.32143,788.9814 L48.21429,753.9751 L49.10714,785.4404 L50,772.0308 L50.89286,830.0366 L51.78571,771.5201 L52.67857,792.1602 L53.57143,775.3473 L54.46429,794.1288 L55.35714,840.17 L56.25,808.4096 L57.14286,812.0565 L58.03571,739.9916 L58.92857,849.1371 L59.82143,812.2779 L60.71429,834.6917 L61.60714,800.4536 L62.5,734.3868 L63.39286,758.4635 L64.28571,775.7309 L65.17857,744.3294 L66.07143,794.6695 L66.96429,783.4781 L67.85714,772.7848 L68.75,804.5771 L69.64286,782.5713 L70.53571,766.0402 L71.42857,822.6707 L72.32143,758.7639 L73.21429,808.8073 L74.10714,808.3046 L75,843.9483 L75.89286,759.9641 L76.78571,760.1695 L77.67857,770.9799 L78.57143,860 L79.46429,704.9948 L80.35714,717.1417 L81.25,765.6744 L82.14286,749.2363 L83.03571,824.8944 L83.92857,830.0953 L84.82143,760.2232 L85.71429,831.631 L86.60714,819.1152 L87.5,832.4352 L88.39286,727.0963 L89.28571,740.3669 L90.17857,706.4556 L91.07143,746.8904 L91.96429,830.1525 L92.85714,660 L93.75,751.6815 L94.64286,732.2935 L95.53571,794.5483 L96.42857,765.0944 L97.32143,792.9479 L98.21429,805.8239 L99.10714,775.7565 L100,820.0529 L100.8929,703.9392 L101.7857,788.538 L102.6786,795.0034 L103.5714,742.3662 L104.4643,758.0947 L105.3571,810.2737 L106.25,804.4745 L107.1429,778.9476 L108.0357,785.5296 L108.9286,793.5175 L109.8214,813.4595 L110.7143,795.3525 L111.6071,825.3315 L112.5,769.6097 L113.3929,774.6465 L114.2857,757.5177 L115.1786,805.3174 L116.0714,760.006 L116.9643,782.9012 L117.8571,781.1715 L118.75,795.2667 L119.6429,813.4346 L120.5357,803.3869 L121.4286,745.829 L122.3214,711.8315 L123.2143,765.0372 L124.1071,711.0226 L125,801.551 L125.8929,807.4988 L126.7857,760.1057 L127.6786,770.7279 L128.5714,717.2735 L129.4643,725.2672 L130.3571,799.9392 L131.25,731.5609 L132.1429,790.1437 L133.0357,812.0308 L133.9286,771.9229 L134.8214,820.5692 L135.7143,722.8527 L136.6071,779.3987 L137.5,795.8122 L138.3929,771.4201 L139.2857,759.344 L140.1786,720.5086 L141.0714,800.0051 L141.9643,790.1208 L142.8571,779.4705 L143.75,803.6761 L144.6429,714.6137 L145.5357,723.5872 L146.4286,797.362 L147.3214,822.4063 L148.2143,772.1409 L149.1071,691.1926 L150,810.8396 L150.8929,795.0231 L151.7857,748.689 L152.6786,748.1075 L153.5714,749.046 L154.4643,757.49 L155.3571,732.9449 L156.25,805.5586 L157.1429,768.8182 L158.0357,763.0653 L158.9286,770.7497 L159.8214,802.0731 L160.7143,769.3032 L161.6071,785.3698 L162.5,802.7125 L163.3929,724.381 L164.2857,780.7706 L165.1786,775.5189 L166.0714,795.45 L166.9643,780.1472 L167.8571,736.5066 L168.75,809.4804 L169.6429,791.9805 L170.5357,846.0939 L171.4286,816.348 L172.3214,779.1912 L173.2143,798.1672 L174.1071,766.5228 L175,786.0838 L175.8929,759.9969 L176.7857,747.4679 L177.6786,733.7258 L178.5714,842.0952 L179.4643,756.2142 L180.3571,745.4747 L181.25,764.0663 L182.1429,832.4767 L183.0357,770.5907 L183.9286,816.0037 L184.8214,783.2922 L185.7143,776.1122 L186.6071,727.7064 L187.5,707.2325 L188.3929,827.1904 L189.2857,788.5328 L190.1786,764.4553 L191.0714,692.0619 L191.9643,780.616 L192.8571,727.6036 L193.75,768.1548 L194.6429,756.3217 L195.5357,742.7263 L196.4286,765.9395 L197.3214,778.8879 L198.2143,686.2215 L199.1071,752.2062 L200,758.6199 " stroke="blue" fill="none" />
<text x="10" y="880" font-family="Arial" font-size="12" fill="black">Value Loss</text>
<path d="M10,1111.094 L210,1111.094" stroke="gray" />
<text x="5" y="1116.094" font-family="Arial" font-size="10" fill="black">0</text>
<text x="5" y="900" font-family="Arial" font-size="10" fill="black">1.147953</text>
<text x="5" y="1100" font-family="Arial" font-size="10" fill="black">0.06033124</text>
<path d="M0.8928572,1092.194 L1.785714,1093.143 L2.678571,1094.081 L3.571429,1095.078 L4.464286,1096.098 L5.357143,1097.248 L6.25,1098.46 L7.142858,1099.624 L8.035714,1061.387 L8.928572,1063.043 L9.821428,1064.877 L10.71429,1066.916 L11.60714,1068.835 L12.5,1070.913 L13.39286,1072.841 L14.28572,1074.493 L15.17857,1055.29 L16.07143,1057.501 L16.96428,1059.83 L17.85714,1061.41 L18.75,1062.389 L19.64286,1063.282 L20.53572,1064.069 L21.42857,1064.781 L22.32143,1087.044 L23.21428,1089.708 L24.10714,1092.343 L25,1094.268 L25.89286,1095.197 L26.78571,1095.653 L27.67857,1096.03 L28.57143,1096.345 L29.46429,1085.804 L30.35714,1087.378 L31.25,1088.896 L32.14286,1089.593 L33.03571,1089.97 L33.92857,1090.433 L34.82143,1090.843 L35.71429,1091.174 L36.60714,1093.015 L37.5,1094.003 L38.39286,1094.896 L39.28571,1095.443 L40.17857,1095.993 L41.07143,1096.572 L41.96429,1096.989 L42.85714,1097.346 L43.75,1093.699 L44.64286,1095.952 L45.53571,1098.03 L46.42857,1098.714 L47.32143,1099.047 L48.21429,1099.335 L49.10714,1099.516 L50,1099.704 L50.89286,1092.334 L51.78571,1093.208 L52.67857,1094.087 L53.57143,1094.727 L54.46429,1095.326 L55.35714,1095.821 L56.25,1096.252 L57.14286,1096.654 L58.03571,1067.458 L58.92857,1070.856 L59.82143,1074.819 L60.71429,1078.011 L61.60714,1079.673 L62.5,1080.35 L63.39286,1081.08 L64.28571,1081.889 L65.17857,1088.319 L66.07143,1090.019 L66.96429,1091.33 L67.85714,1091.913 L68.75,1092.336 L69.64286,1092.822 L70.53571,1093.249 L71.42857,1093.567 L72.32143,1058.34 L73.21429,1059.736 L74.10714,1061.262 L75,1062.574 L75.89286,1063.787 L76.78571,1064.832 L77.67857,1065.755 L78.57143,1066.637 L79.46429,900 L80.35714,910.5342 L81.25,924.8898 L82.14286,939.0726 L83.03571,951.2239 L83.92857,961.4334 L84.82143,969.6466 L85.71429,976.216 L86.60714,1066.241 L87.5,1067.457 L88.39286,1070.471 L89.28571,1072.953 L90.17857,1074.419 L91.07143,1075.26 L91.96429,1076.078 L92.85714,1076.526 L93.75,1074.185 L94.64286,1075.027 L95.53571,1075.939 L96.42857,1076.607 L97.32143,1077.301 L98.21429,1077.944 L99.10714,1078.579 L100,1079.16 L100.8929,1041.162 L101.7857,1050.881 L102.6786,1063.142 L103.5714,1073.668 L104.4643,1079.518 L105.3571,1081.444 L106.25,1081.841 L107.1429,1082.571 L108.0357,1008.449 L108.9286,1017.672 L109.8214,1027.974 L110.7143,1035.727 L111.6071,1039.851 L112.5,1040.736 L113.3929,1041.261 L114.2857,1042.029 L115.1786,1059.808 L116.0714,1067.908 L116.9643,1076.942 L117.8571,1084.074 L118.75,1088.866 L119.6429,1090.935 L120.5357,1091.227 L121.4286,1091.526 L122.3214,1040.718 L123.2143,1047.215 L124.1071,1054.19 L125,1059.531 L125.8929,1062.771 L126.7857,1063.386 L127.6786,1063.531 L128.5714,1063.949 L129.4643,1058.361 L130.3571,1061.632 L131.25,1065.55 L132.1429,1068.339 L133.0357,1069.42 L133.9286,1070.492 L134.8214,1071.448 L135.7143,1072.114 L136.6071,1044.018 L137.5,1046.54 L138.3929,1049.603 L139.2857,1052.157 L140.1786,1053.856 L141.0714,1054.92 L141.9643,1055.675 L142.8571,1056.329 L143.75,1043.616 L144.6429,1045.508 L145.5357,1047.092 L146.4286,1048.525 L147.3214,1049.775 L148.2143,1050.672 L149.1071,1051.221 L150,1051.746 L150.8929,1062.151 L151.7857,1063.919 L152.6786,1065.26 L153.5714,1066.686 L154.4643,1067.972 L155.3571,1069.105 L156.25,1069.997 L157.1429,1070.786 L158.0357,1046.635 L158.9286,1057.078 L159.8214,1067.694 L160.7143,1073.077 L161.6071,1073.958 L162.5,1074.276 L163.3929,1074.592 L164.2857,1074.833 L165.1786,1056.821 L166.0714,1069.1 L166.9643,1080.15 L167.8571,1085.299 L168.75,1085.814 L169.6429,1086.873 L170.5357,1087.659 L171.4286,1088.431 L172.3214,1042.325 L173.2143,1056.504 L174.1071,1070.211 L175,1076.028 L175.8929,1075.815 L176.7857,1076.642 L177.6786,1077.287 L178.5714,1077.456 L179.4643,1061.177 L180.3571,1068.636 L181.25,1077.663 L182.1429,1082.641 L183.0357,1083.277 L183.9286,1083.944 L184.8214,1084.335 L185.7143,1084.613 L186.6071,1088.646 L187.5,1088.952 L188.3929,1089.295 L189.2857,1089.675 L190.1786,1090.018 L191.0714,1090.268 L191.9643,1090.509 L192.8571,1090.665 L193.75,1096.255 L194.6429,1097.132 L195.5357,1097.626 L196.4286,1098.19 L197.3214,1098.745 L198.2143,1099.212 L199.1071,1099.645 L200,1100 " stroke="blue" fill="none" />
<text x="10" y="1120" font-family="Arial" font-size="12" fill="black">Learning Rate</text>
<path d="M10,6001141 L210,6001141" stroke="gray" />
<text x="5" y="6001146" font-family="Arial" font-size="10" fill="black">0</text>
<text x="5" y="1140" font-family="Arial" font-size="10" fill="black">0.0003</text>
<text x="5" y="1340" font-family="Arial" font-size="10" fill="black">0.0003</text>
<path d="M0.8928572,NaN L1.785714,NaN L2.678571,NaN L3.571429,NaN L4.464286,NaN L5.357143,NaN L6.25,NaN L7.142858,NaN L8.035714,NaN L8.928572,NaN L9.821428,NaN L10.71429,NaN L11.60714,NaN L12.5,NaN L13.39286,NaN L14.28572,NaN L15.17857,NaN L16.07143,NaN L16.96428,NaN L17.85714,NaN L18.75,NaN L19.64286,NaN L20.53572,NaN L21.42857,NaN L22.32143,NaN L23.21428,NaN L24.10714,NaN L25,NaN L25.89286,NaN L26.78571,NaN L27.67857,NaN L28.57143,NaN L29.46429,NaN L30.35714,NaN L31.25,NaN L32.14286,NaN L33.03571,NaN L33.92857,NaN L34.82143,NaN L35.71429,NaN L36.60714,NaN L37.5,NaN L38.39286,NaN L39.28571,NaN L40.17857,NaN L41.07143,NaN L41.96429,NaN L42.85714,NaN L43.75,NaN L44.64286,NaN L45.53571,NaN L46.42857,NaN L47.32143,NaN L48.21429,NaN L49.10714,NaN L50,NaN L50.89286,NaN L51.78571,NaN L52.67857,NaN L53.57143,NaN L54.46429,NaN L55.35714,NaN L56.25,NaN L57.14286,NaN L58.03571,NaN L58.92857,NaN L59.82143,NaN L60.71429,NaN L61.60714,NaN L62.5,NaN L63.39286,NaN L64.28571,NaN L65.17857,NaN L66.07143,NaN L66.96429,NaN L67.85714,NaN L68.75,NaN L69.64286,NaN L70.53571,NaN L71.42857,NaN L72.32143,NaN L73.21429,NaN L74.10714,NaN L75,NaN L75.89286,NaN L76.78571,NaN L77.67857,NaN L78.57143,NaN L79.46429,NaN L80.35714,NaN L81.25,NaN L82.14286,NaN L83.03571,NaN L83.92857,NaN L84.82143,NaN L85.71429,NaN L86.60714,NaN L87.5,NaN L88.39286,NaN L89.28571,NaN L90.17857,NaN L91.07143,NaN L91.96429,NaN L92.85714,NaN L93.75,NaN L94.64286,NaN L95.53571,NaN L96.42857,NaN L97.32143,NaN L98.21429,NaN L99.10714,NaN L100,NaN L100.8929,NaN L101.7857,NaN L102.6786,NaN L103.5714,NaN L104.4643,NaN L105.3571,NaN L106.25,NaN L107.1429,NaN L108.0357,NaN L108.9286,NaN L109.8214,NaN L110.7143,NaN L111.6071,NaN L112.5,NaN L113.3929,NaN L114.2857,NaN L115.1786,NaN L116.0714,NaN L116.9643,NaN L117.8571,NaN L118.75,NaN L119.6429,NaN L120.5357,NaN L121.4286,NaN L122.3214,NaN L123.2143,NaN L124.1071,NaN L125,NaN L125.8929,NaN L126.7857,NaN L127.6786,NaN L128.5714,NaN L129.4643,NaN L130.3571,NaN L131.25,NaN L132.1429,NaN L133.0357,NaN L133.9286,NaN L134.8214,NaN L135.7143,NaN L136.6071,NaN L137.5,NaN L138.3929,NaN L139.2857,NaN L140.1786,NaN L141.0714,NaN L141.9643,NaN L142.8571,NaN L143.75,NaN L144.6429,NaN L145.5357,NaN L146.4286,NaN L147.3214,NaN L148.2143,NaN L149.1071,NaN L150,NaN L150.8929,NaN L151.7857,NaN L152.6786,NaN L153.5714,NaN L154.4643,NaN L155.3571,NaN L156.25,NaN L157.1429,NaN L158.0357,NaN L158.9286,NaN L159.8214,NaN L160.7143,NaN L161.6071,NaN L162.5,NaN L163.3929,NaN L164.2857,NaN L165.1786,NaN L166.0714,NaN L166.9643,NaN L167.8571,NaN L168.75,NaN L169.6429,NaN L170.5357,NaN L171.4286,NaN L172.3214,NaN L173.2143,NaN L174.1071,NaN L175,NaN L175.8929,NaN L176.7857,NaN L177.6786,NaN L178.5714,NaN L179.4643,NaN L180.3571,NaN L181.25,NaN L182.1429,NaN L183.0357,NaN L183.9286,NaN L184.8214,NaN L185.7143,NaN L186.6071,NaN L187.5,NaN L188.3929,NaN L189.2857,NaN L190.1786,NaN L191.0714,NaN L191.9643,NaN L192.8571,NaN L193.75,NaN L194.6429,NaN L195.5357,NaN L196.4286,NaN L197.3214,NaN L198.2143,NaN L199.1071,NaN L200,NaN " stroke="blue" fill="none" />
<text x="10" y="1360" font-family="Arial" font-size="12" fill="black">Epsilon</text>
<path d="M10,4.000002E+09 L210,4.000002E+09" stroke="gray" />
<text x="5" y="4.000002E+09" font-family="Arial" font-size="10" fill="black">0</text>
<text x="5" y="1380" font-family="Arial" font-size="10" fill="black">0.2</text>
<text x="5" y="1580" font-family="Arial" font-size="10" fill="black">0.2</text>
<path d="M0.8928572,NaN L1.785714,NaN L2.678571,NaN L3.571429,NaN L4.464286,NaN L5.357143,NaN L6.25,NaN L7.142858,NaN L8.035714,NaN L8.928572,NaN L9.821428,NaN L10.71429,NaN L11.60714,NaN L12.5,NaN L13.39286,NaN L14.28572,NaN L15.17857,NaN L16.07143,NaN L16.96428,NaN L17.85714,NaN L18.75,NaN L19.64286,NaN L20.53572,NaN L21.42857,NaN L22.32143,NaN L23.21428,NaN L24.10714,NaN L25,NaN L25.89286,NaN L26.78571,NaN L27.67857,NaN L28.57143,NaN L29.46429,NaN L30.35714,NaN L31.25,NaN L32.14286,NaN L33.03571,NaN L33.92857,NaN L34.82143,NaN L35.71429,NaN L36.60714,NaN L37.5,NaN L38.39286,NaN L39.28571,NaN L40.17857,NaN L41.07143,NaN L41.96429,NaN L42.85714,NaN L43.75,NaN L44.64286,NaN L45.53571,NaN L46.42857,NaN L47.32143,NaN L48.21429,NaN L49.10714,NaN L50,NaN L50.89286,NaN L51.78571,NaN L52.67857,NaN L53.57143,NaN L54.46429,NaN L55.35714,NaN L56.25,NaN L57.14286,NaN L58.03571,NaN L58.92857,NaN L59.82143,NaN L60.71429,NaN L61.60714,NaN L62.5,NaN L63.39286,NaN L64.28571,NaN L65.17857,NaN L66.07143,NaN L66.96429,NaN L67.85714,NaN L68.75,NaN L69.64286,NaN L70.53571,NaN L71.42857,NaN L72.32143,NaN L73.21429,NaN L74.10714,NaN L75,NaN L75.89286,NaN L76.78571,NaN L77.67857,NaN L78.57143,NaN L79.46429,NaN L80.35714,NaN L81.25,NaN L82.14286,NaN L83.03571,NaN L83.92857,NaN L84.82143,NaN L85.71429,NaN L86.60714,NaN L87.5,NaN L88.39286,NaN L89.28571,NaN L90.17857,NaN L91.07143,NaN L91.96429,NaN L92.85714,NaN L93.75,NaN L94.64286,NaN L95.53571,NaN L96.42857,NaN L97.32143,NaN L98.21429,NaN L99.10714,NaN L100,NaN L100.8929,NaN L101.7857,NaN L102.6786,NaN L103.5714,NaN L104.4643,NaN L105.3571,NaN L106.25,NaN L107.1429,NaN L108.0357,NaN L108.9286,NaN L109.8214,NaN L110.7143,NaN L111.6071,NaN L112.5,NaN L113.3929,NaN L114.2857,NaN L115.1786,NaN L116.0714,NaN L116.9643,NaN L117.8571,NaN L118.75,NaN L119.6429,NaN L120.5357,NaN L121.4286,NaN L122.3214,NaN L123.2143,NaN L124.1071,NaN L125,NaN L125.8929,NaN L126.7857,NaN L127.6786,NaN L128.5714,NaN L129.4643,NaN L130.3571,NaN L131.25,NaN L132.1429,NaN L133.0357,NaN L133.9286,NaN L134.8214,NaN L135.7143,NaN L136.6071,NaN L137.5,NaN L138.3929,NaN L139.2857,NaN L140.1786,NaN L141.0714,NaN L141.9643,NaN L142.8571,NaN L143.75,NaN L144.6429,NaN L145.5357,NaN L146.4286,NaN L147.3214,NaN L148.2143,NaN L149.1071,NaN L150,NaN L150.8929,NaN L151.7857,NaN L152.6786,NaN L153.5714,NaN L154.4643,NaN L155.3571,NaN L156.25,NaN L157.1429,NaN L158.0357,NaN L158.9286,NaN L159.8214,NaN L160.7143,NaN L161.6071,NaN L162.5,NaN L163.3929,NaN L164.2857,NaN L165.1786,NaN L166.0714,NaN L166.9643,NaN L167.8571,NaN L168.75,NaN L169.6429,NaN L170.5357,NaN L171.4286,NaN L172.3214,NaN L173.2143,NaN L174.1071,NaN L175,NaN L175.8929,NaN L176.7857,NaN L177.6786,NaN L178.5714,NaN L179.4643,NaN L180.3571,NaN L181.25,NaN L182.1429,NaN L183.0357,NaN L183.9286,NaN L184.8214,NaN L185.7143,NaN L186.6071,NaN L187.5,NaN L188.3929,NaN L189.2857,NaN L190.1786,NaN L191.0714,NaN L191.9643,NaN L192.8571,NaN L193.75,NaN L194.6429,NaN L195.5357,NaN L196.4286,NaN L197.3214,NaN L198.2143,NaN L199.1071,NaN L200,NaN " stroke="blue" fill="none" />
</svg>
