<svg width="800" height="600" xmlns="http://www.w3.org/2000/svg">
<text x="10" y="20" font-family="Arial" font-size="16" fill="black"> [DeepUnity] Training Session</text>
<text x="10" y="40" font-family="Arial" font-size="12" fill="black">Start: 2:30:21 PM, Wednesday, August 30, 2023</text>
<text x="10" y="60" font-family="Arial" font-size="12" fill="black">End: 3:09:40 PM, Wednesday, August 30, 2023</text>
<text x="10" y="80" font-family="Arial" font-size="12" fill="black">Real Training Time: 0 hrs : 39 min : 19 sec</text>
<text x="10" y="100" font-family="Arial" font-size="12" fill="black">Training Time: 882.441</text>
<text x="10" y="120" font-family="Arial" font-size="12" fill="black">Iterations: 36</text>
<text x="10" y="140" font-family="Arial" font-size="12" fill="black">Parallel Agents: 9</text>
<text x="10" y="160" font-family="Arial" font-size="12" fill="black">Episode Reward</text>
<path d="M10,389.2347 L210,389.2347" stroke="gray" />
<text x="5" y="394.2347" font-family="Arial" font-size="10" fill="black">0</text>
<text x="5" y="180" font-family="Arial" font-size="10" fill="black">162.0007</text>
<text x="5" y="380" font-family="Arial" font-size="10" fill="black">7.149997</text>
<path d="M0.3656307,378.4501 L0.7312614,376.4482 L1.096892,375.4795 L1.462523,369.28 L1.828154,376.8357 L2.193784,372.9609 L2.559415,373.3484 L2.925046,374.5108 L3.290676,374.64 L3.656307,367.1489 L4.021938,374.5754 L4.387568,375.8024 L4.753199,353.6521 L5.11883,377.4169 L5.484461,377.6752 L5.850091,375.8024 L6.215722,376.2545 L6.581353,377.7397 L6.946983,371.9277 L7.312614,378.8376 L7.678245,375.4795 L8.043876,371.8631 L8.409506,365.8573 L8.775137,376.7711 L9.140768,376.319 L9.506398,374.8983 L9.872029,372.4443 L10.23766,375.6087 L10.60329,365.1469 L10.96892,375.2212 L11.33455,375.2212 L11.70018,376.2545 L12.06581,374.8337 L12.43144,378.6439 L12.79708,377.9335 L13.16271,375.5441 L13.52834,377.2877 L13.89397,376.6419 L14.2596,376.3836 L14.62523,375.867 L14.99086,377.3523 L15.35649,372.3797 L15.72212,376.3836 L16.08775,373.0901 L16.45338,374.9629 L16.81901,371.8631 L17.18464,377.0294 L17.55027,375.7378 L17.9159,372.8964 L18.28154,375.9961 L18.64717,376.7711 L19.0128,372.8318 L19.37843,375.0275 L19.74406,375.9315 L20.10969,374.7046 L20.47532,372.7672 L20.84095,380 L21.20658,378.5147 L21.57221,378.9022 L21.93784,379.2896 L22.30347,375.9961 L22.6691,374.7691 L23.03473,374.7046 L23.40037,377.4169 L23.766,367.7301 L24.13163,375.2212 L24.49726,373.6713 L24.86289,375.7378 L25.22852,374.8983 L25.59415,376.7065 L25.95978,375.1566 L26.32541,376.1253 L26.69104,374.64 L27.05667,368.9571 L27.4223,370.7653 L27.78793,374.2525 L28.15357,372.9609 L28.5192,370.1841 L28.88482,372.186 L29.25046,372.4443 L29.61609,372.8964 L29.98172,363.9845 L30.34735,374.4463 L30.71298,372.7026 L31.07861,371.2819 L31.44424,369.4091 L31.80987,374.2525 L32.1755,374.3817 L32.54113,362.4992 L32.90676,369.3445 L33.2724,371.3465 L33.63802,373.9942 L34.00366,371.9922 L34.36929,375.6087 L34.73492,366.051 L35.10055,362.3701 L35.46618,370.4424 L35.83181,373.3484 L36.19744,369.3445 L36.56307,362.693 L36.9287,371.0236 L37.29433,373.5421 L37.65997,377.094 L38.02559,373.6713 L38.39122,371.4756 L38.75686,368.6988 L39.12249,373.9296 L39.48812,369.7966 L39.85375,371.0882 L40.21938,376.5128 L40.58501,372.8318 L40.95064,374.8983 L41.31627,369.732 L41.6819,376.1253 L42.04753,366.2448 L42.41316,368.3113 L42.77879,370.3778 L43.14442,369.1508 L43.51006,370.6361 L43.87569,364.5012 L44.24131,364.7595 L44.60695,370.1841 L44.97258,369.0862 L45.33821,375.0275 L45.70384,370.3778 L46.06947,370.2486 L46.4351,373.1547 L46.80073,373.2838 L47.16636,366.7614 L47.53199,375.4795 L47.89762,365.7281 L48.26326,370.0549 L48.62888,376.1899 L48.99451,369.9258 L49.36015,369.8612 L49.72578,377.0294 L50.09141,370.5715 L50.45704,370.0549 L50.82267,370.4424 L51.1883,369.3445 L51.55393,369.1508 L51.91956,373.5421 L52.28519,364.372 L52.65082,366.826 L53.01645,371.7339 L53.38209,371.9277 L53.74771,363.0804 L54.11335,374.3817 L54.47898,367.6009 L54.8446,373.7359 L55.21024,372.3797 L55.57587,370.5715 L55.9415,363.9845 L56.30713,371.5402 L56.67276,371.9922 L57.03839,369.6028 L57.40402,367.4718 L57.76965,359.2057 L58.13528,369.9258 L58.50092,356.8164 L58.86654,356.4288 L59.23217,371.9277 L59.59781,370.8298 L59.96344,366.5031 L60.32907,362.9513 L60.6947,361.6597 L61.06033,365.2761 L61.42596,373.0255 L61.79159,359.012 L62.15722,365.1469 L62.52285,371.9277 L62.88848,365.9219 L63.25411,369.4091 L63.61974,359.4641 L63.98538,355.4603 L64.35101,361.918 L64.71664,366.6322 L65.08226,373.2838 L65.4479,369.8612 L65.81353,345.5799 L66.17915,372.186 L66.54479,367.278 L66.91042,362.4992 L67.27605,362.3701 L67.64168,362.2409 L68.00732,357.5267 L68.37294,366.5031 L68.73857,358.8182 L69.10421,355.9768 L69.46983,352.6833 L69.83546,372.9609 L70.2011,365.3407 L70.56673,367.9884 L70.93236,359.5286 L71.29799,372.8964 L71.66362,360.8202 L72.02925,368.8279 L72.39488,362.0471 L72.76051,371.1527 L73.12614,371.6048 L73.49178,354.4915 L73.85741,360.6264 L74.22304,356.558 L74.58867,358.6245 L74.95429,346.936 L75.31993,369.1508 L75.68555,364.1783 L76.05119,355.9123 L76.41682,367.3426 L76.78245,359.3994 L77.14808,354.1686 L77.51371,358.3662 L77.87934,357.9141 L78.24497,363.9845 L78.6106,363.145 L78.97623,371.2819 L79.34187,366.6322 L79.7075,367.9238 L80.07313,366.3094 L80.43876,356.0414 L80.80439,355.4601 L81.17001,360.691 L81.53565,366.1802 L81.90128,368.2467 L82.26691,360.8202 L82.63254,361.918 L82.99818,373.413 L83.3638,366.051 L83.72943,371.8631 L84.09507,370.7653 L84.46069,364.824 L84.82632,372.3152 L85.19196,367.9884 L85.55759,366.5677 L85.92322,362.0471 L86.28885,367.6655 L86.65448,366.7614 L87.02011,364.8886 L87.38573,369.9258 L87.75137,373.0255 L88.117,374.9629 L88.48263,364.372 L88.84827,376.4482 L89.2139,361.5951 L89.57952,360.8848 L89.94515,364.1783 L90.31079,353.5229 L90.67641,341.1239 L91.04205,369.6028 L91.40768,368.053 L91.77331,349.1961 L92.13894,348.292 L92.50457,348.4857 L92.8702,357.7204 L93.23583,357.2684 L93.60146,354.7498 L93.96709,359.6577 L94.33273,344.2237 L94.69836,362.693 L95.06399,367.6655 L95.42962,346.5484 L95.79524,358.6891 L96.16087,363.5325 L96.52651,365.0178 L96.89214,356.6871 L97.25777,348.4211 L97.62341,359.3349 L97.98903,363.3387 L98.35466,359.464 L98.72029,354.8144 L99.08592,362.1118 L99.45155,348.2274 L99.81718,360.3035 L100.1828,334.2787 L100.5484,349.3899 L100.9141,341.7697 L101.2797,351.3917 L101.6453,333.31 L102.011,363.0158 L102.3766,359.3994 L102.7422,358.9474 L103.1079,344.9985 L103.4735,355.3956 L103.8391,364.9532 L104.2048,361.4659 L104.5704,354.5561 L104.936,345.5797 L105.3016,332.9871 L105.6673,334.6661 L106.0329,342.8029 L106.3985,344.6111 L106.7642,353.2645 L107.1298,328.725 L107.4954,362.9513 L107.8611,352.6833 L108.2267,333.6975 L108.5923,359.9807 L108.958,345.5152 L109.3236,349.971 L109.6892,332.4705 L110.0548,343.4487 L110.4205,344.6111 L110.7861,342.803 L111.1517,336.3452 L111.5174,354.8144 L111.883,347.7754 L112.2486,343.2549 L112.6143,351.8438 L112.9799,362.4346 L113.3455,358.4308 L113.7112,349.7773 L114.0768,352.9416 L114.4424,359.3349 L114.808,352.2958 L115.1737,350.8751 L115.5393,331.0498 L115.9049,344.5466 L116.2706,349.196 L116.6362,341.2531 L117.0018,343.0612 L117.3675,346.1609 L117.7331,349.8419 L118.0987,342.7383 L118.4643,336.3453 L118.83,342.2217 L119.1956,311.2892 L119.5612,297.5988 L119.9269,337.9596 L120.2925,309.8684 L120.6581,346.9358 L121.0238,335.4411 L121.3894,344.4173 L121.755,348.0337 L122.1207,351.2626 L122.4863,341.7697 L122.8519,345.6443 L123.2175,358.6245 L123.5832,358.0433 L123.9488,325.2379 L124.3144,360.3035 L124.6801,346.8713 L125.0457,325.9482 L125.4113,349.1316 L125.777,340.0906 L126.1426,342.932 L126.5082,336.7972 L126.8739,325.1733 L127.2395,342.351 L127.6051,327.9502 L127.9708,329.2416 L128.3364,318.0052 L128.702,341.8988 L129.0676,339.8969 L129.4333,324.6566 L129.7989,309.3518 L130.1645,342.2217 L130.5302,340.0906 L130.8958,345.6443 L131.2614,328.6604 L131.6271,355.331 L131.9927,329.3062 L132.3583,333.633 L132.724,294.1761 L133.0896,324.5275 L133.4552,351.1334 L133.8208,339.0574 L134.1865,355.3956 L134.5521,337.5723 L134.9177,329.1125 L135.2834,332.083 L135.649,335.5702 L136.0146,354.3623 L136.3802,320.8466 L136.7459,326.2711 L137.1115,349.9064 L137.4771,324.1402 L137.8428,351.9084 L138.2084,328.5313 L138.574,350.4876 L138.9397,338.5408 L139.3053,333.2454 L139.6709,327.1752 L140.0366,347.1942 L140.4022,324.3983 L140.7678,330.9207 L141.1335,344.2236 L141.4991,336.668 L141.8647,328.5313 L142.2303,340.5428 L142.596,338.9283 L142.9616,347.1296 L143.3272,348.2274 L143.6929,325.6253 L144.0585,324.7858 L144.4241,322.8485 L144.7898,335.8285 L145.1554,350.0356 L145.521,334.1495 L145.8867,327.5626 L146.2523,332.7288 L146.6179,340.9301 L146.9836,336.5389 L147.3492,326.2065 L147.7148,327.4335 L148.0804,346.5485 L148.4461,319.8779 L148.8117,351.2625 L149.1773,326.7877 L149.543,325.6253 L149.9086,330.9852 L150.2742,348.2921 L150.6399,318.9093 L151.0055,349.5835 L151.3711,331.9539 L151.7368,333.8912 L152.1024,338.2179 L152.468,335.2473 L152.8336,345.386 L153.1993,340.3489 L153.5649,328.725 L153.9305,340.0261 L154.2962,342.1571 L154.6618,312.1932 L155.0274,320.0717 L155.3931,315.1638 L155.7587,317.5531 L156.1243,328.5959 L156.4899,310.4496 L156.8556,341.4468 L157.2212,335.0536 L157.5868,347.3233 L157.9525,339.122 L158.3181,343.0612 L158.6837,341.5113 L159.0494,332.4705 L159.415,336.0222 L159.7806,347.1942 L160.1463,323.236 L160.5119,335.3119 L160.8775,341.0593 L161.2431,355.2664 L161.6088,349.1317 L161.9744,344.6756 L162.34,344.2883 L162.7057,351.0042 L163.0713,322.461 L163.4369,303.9919 L163.8026,320.0717 L164.1682,328.8542 L164.5338,329.5645 L164.8995,274.9967 L165.2651,319.878 L165.6307,282.6814 L165.9964,304.1856 L166.362,344.5465 L166.7276,292.4326 L167.0932,330.4686 L167.4589,331.3081 L167.8245,315.4867 L168.1901,304.1856 L168.5558,290.3661 L168.9214,305.348 L169.287,302.0546 L169.6526,281.519 L170.0183,324.6566 L170.3839,300.0527 L170.7495,303.5399 L171.1152,315.0992 L171.4808,324.3338 L171.8464,280.5503 L172.2121,299.6006 L172.5777,328.0147 L172.9433,320.2008 L173.309,286.4269 L173.6746,313.2265 L174.0402,332.0831 L174.4059,308.6415 L174.7715,317.0365 L175.1371,307.8666 L175.5027,330.2749 L175.8684,339.1221 L176.234,329.4999 L176.5996,315.9387 L176.9653,321.1695 L177.3309,304.1856 L177.6965,320.9112 L178.0621,330.9852 L178.4278,296.953 L178.7934,330.0166 L179.159,347.3233 L179.5247,315.4867 L179.8903,334.2787 L180.2559,309.6101 L180.6216,342.7384 L180.9872,337.2492 L181.3528,303.0878 L181.7185,325.1087 L182.0841,305.6709 L182.4497,315.4221 L182.8154,308.5123 L183.181,328.4021 L183.5466,281.7773 L183.9122,303.9919 L184.2779,312.2578 L184.6435,310.3205 L185.0091,278.5484 L185.3748,220.6868 L185.7404,337.0555 L186.106,235.4108 L186.4717,333.31 L186.8373,329.5645 L187.2029,180 L187.5686,270.4117 L187.9342,326.7231 L188.2998,283.4563 L188.6655,273.6406 L189.0311,278.4193 L189.3967,331.1144 L189.7623,333.6975 L190.128,276.2237 L190.4936,281.9065 L190.8592,271.4449 L191.2249,302.0546 L191.5905,354.104 L191.9561,322.461 L192.3217,320.0071 L192.6874,280.3566 L193.053,316.7782 L193.4186,299.9881 L193.7843,259.1752 L194.1499,335.1182 L194.5155,343.5132 L194.8812,289.6557 L195.2468,251.0385 L195.6124,327.1106 L195.9781,309.933 L196.3437,340.0261 L196.7093,334.989 L197.075,309.8039 L197.4406,210.4828 L197.8062,251.0385 L198.1718,303.217 L198.5375,295.3385 L198.9031,294.4344 L199.2687,341.9634 L199.6344,331.8893 L200,271.9615 " stroke="blue" fill="none" />
<text x="10" y="400" font-family="Arial" font-size="12" fill="black">Episode Length</text>
<path d="M10,630.7846 L210,630.7846" stroke="gray" />
<text x="5" y="635.7846" font-family="Arial" font-size="10" fill="black">0</text>
<text x="5" y="420" font-family="Arial" font-size="10" fill="black">1632</text>
<text x="5" y="620" font-family="Arial" font-size="10" fill="black">83.5</text>
<path d="M0.3656307,618.4501 L0.7312614,616.4482 L1.096892,615.4795 L1.462523,609.28 L1.828154,616.8356 L2.193784,612.9609 L2.559415,613.3484 L2.925046,614.5108 L3.290676,614.64 L3.656307,607.1489 L4.021938,614.5754 L4.387568,615.8024 L4.753199,593.6519 L5.11883,617.4169 L5.484461,617.6752 L5.850091,615.8024 L6.215722,616.2545 L6.581353,617.7397 L6.946983,611.9277 L7.312614,618.8376 L7.678245,615.4795 L8.043876,611.8631 L8.409506,605.8573 L8.775137,616.7711 L9.140768,616.319 L9.506398,614.8983 L9.872029,612.4443 L10.23766,615.6086 L10.60329,605.1469 L10.96892,615.2212 L11.33455,615.2212 L11.70018,616.2545 L12.06581,614.8337 L12.43144,618.6439 L12.79708,617.9335 L13.16271,615.5441 L13.52834,617.2877 L13.89397,616.6419 L14.2596,616.3836 L14.62523,615.8669 L14.99086,617.3523 L15.35649,612.3797 L15.72212,616.3836 L16.08775,613.0901 L16.45338,614.9629 L16.81901,611.8631 L17.18464,617.0294 L17.55027,615.7378 L17.9159,612.8964 L18.28154,615.9962 L18.64717,616.7711 L19.0128,612.8318 L19.37843,615.0275 L19.74406,615.9315 L20.10969,614.7045 L20.47532,612.7672 L20.84095,620 L21.20658,618.5147 L21.57221,618.9022 L21.93784,619.2896 L22.30347,615.9962 L22.6691,614.7691 L23.03473,614.7045 L23.40037,617.4169 L23.766,607.73 L24.13163,615.2212 L24.49726,613.6713 L24.86289,615.7378 L25.22852,614.8983 L25.59415,616.7065 L25.95978,615.1566 L26.32541,616.1253 L26.69104,614.64 L27.05667,608.957 L27.4223,610.7653 L27.78793,614.2525 L28.15357,612.9609 L28.5192,610.184 L28.88482,612.186 L29.25046,612.4443 L29.61609,612.8964 L29.98172,603.9845 L30.34735,614.4462 L30.71298,612.7026 L31.07861,611.2819 L31.44424,609.4091 L31.80987,614.2525 L32.1755,614.3817 L32.54113,602.4992 L32.90676,609.3445 L33.2724,611.3464 L33.63802,613.9942 L34.00366,611.9922 L34.36929,615.6086 L34.73492,606.051 L35.10055,602.3701 L35.46618,610.4424 L35.83181,613.3484 L36.19744,609.3445 L36.56307,602.6929 L36.9287,611.0236 L37.29433,613.5421 L37.65997,617.0939 L38.02559,613.6713 L38.39122,611.4756 L38.75686,608.6987 L39.12249,613.9296 L39.48812,609.7966 L39.85375,611.0881 L40.21938,616.5128 L40.58501,612.8318 L40.95064,614.8983 L41.31627,609.732 L41.6819,616.1253 L42.04753,606.2448 L42.41316,608.3113 L42.77879,610.3778 L43.14442,609.1508 L43.51006,610.6361 L43.87569,604.5012 L44.24131,604.7595 L44.60695,610.184 L44.97258,609.0862 L45.33821,615.0275 L45.70384,610.3778 L46.06947,610.2487 L46.4351,613.1547 L46.80073,613.2838 L47.16636,606.7614 L47.53199,615.4795 L47.89762,605.7281 L48.26326,610.0549 L48.62888,616.1899 L48.99451,609.9257 L49.36015,609.8611 L49.72578,617.0294 L50.09141,610.5715 L50.45704,610.0549 L50.82267,610.4424 L51.1883,609.3445 L51.55393,609.1508 L51.91956,613.5421 L52.28519,604.3719 L52.65082,606.826 L53.01645,611.7339 L53.38209,611.9277 L53.74771,603.0804 L54.11335,614.3817 L54.47898,607.6009 L54.8446,613.7359 L55.21024,612.3797 L55.57587,610.5715 L55.9415,603.9845 L56.30713,611.5402 L56.67276,611.9922 L57.03839,609.6028 L57.40402,607.4717 L57.76965,599.2057 L58.13528,609.9257 L58.50092,596.8163 L58.86654,596.4288 L59.23217,611.9277 L59.59781,610.8298 L59.96344,606.5031 L60.32907,602.9512 L60.6947,601.6597 L61.06033,605.2761 L61.42596,613.0255 L61.79159,599.012 L62.15722,605.1469 L62.52285,611.9277 L62.88848,605.9219 L63.25411,609.4091 L63.61974,599.464 L63.98538,595.4601 L64.35101,601.918 L64.71664,606.6322 L65.08226,613.2838 L65.4479,609.8611 L65.81353,585.5796 L66.17915,612.186 L66.54479,607.278 L66.91042,602.4992 L67.27605,602.3701 L67.64168,602.2409 L68.00732,597.5266 L68.37294,606.5031 L68.73857,598.8182 L69.10421,595.9767 L69.46983,592.6832 L69.83546,612.9609 L70.2011,605.3406 L70.56673,607.9884 L70.93236,599.5286 L71.29799,612.8964 L71.66362,600.8201 L72.02925,608.8279 L72.39488,602.0471 L72.76051,611.1527 L73.12614,611.6048 L73.49178,594.4915 L73.85741,600.6264 L74.22304,596.558 L74.58867,598.6245 L74.95429,586.9357 L75.31993,609.1508 L75.68555,604.1782 L76.05119,595.9122 L76.41682,607.3426 L76.78245,599.3994 L77.14808,594.1686 L77.51371,598.3661 L77.87934,597.9141 L78.24497,603.9845 L78.6106,603.145 L78.97623,611.2819 L79.34187,606.6322 L79.7075,607.9238 L80.07313,606.3093 L80.43876,596.0413 L80.80439,595.4601 L81.17001,600.691 L81.53565,606.1802 L81.90128,608.2467 L82.26691,600.8201 L82.63254,601.918 L82.99818,613.413 L83.3638,606.051 L83.72943,611.8631 L84.09507,610.7653 L84.46069,604.824 L84.82632,612.3151 L85.19196,607.9884 L85.55759,606.5676 L85.92322,602.0471 L86.28885,607.6655 L86.65448,606.7614 L87.02011,604.8886 L87.38573,609.9257 L87.75137,613.0255 L88.117,614.9629 L88.48263,604.3719 L88.84827,616.4482 L89.2139,601.5951 L89.57952,600.8847 L89.94515,604.1782 L90.31079,593.5228 L90.67641,581.1237 L91.04205,609.6028 L91.40768,608.053 L91.77331,589.196 L92.13894,588.2919 L92.50457,588.4857 L92.8702,597.7204 L93.23583,597.2683 L93.60146,594.7498 L93.96709,599.6577 L94.33273,584.2234 L94.69836,602.6929 L95.06399,607.6655 L95.42962,586.5483 L95.79524,598.689 L96.16087,603.5325 L96.52651,605.0178 L96.89214,596.6871 L97.25777,588.4211 L97.62341,599.3348 L97.98903,603.3387 L98.35466,599.464 L98.72029,594.8143 L99.08592,602.1117 L99.45155,588.2273 L99.81718,600.3035 L100.1828,574.2783 L100.5484,589.3897 L100.9141,581.7695 L101.2797,591.3917 L101.6453,573.3096 L102.011,603.0158 L102.3766,599.3994 L102.7422,598.9474 L103.1079,584.9984 L103.4735,595.3956 L103.8391,604.9532 L104.2048,601.4659 L104.5704,594.556 L104.936,585.5796 L105.3016,572.9868 L105.6673,574.6658 L106.0329,582.8027 L106.3985,584.6109 L106.7642,593.2645 L107.1298,568.7245 L107.4954,602.9512 L107.8611,592.6832 L108.2267,573.6971 L108.5923,599.9807 L108.958,585.515 L109.3236,589.9709 L109.6892,572.4702 L110.0548,583.4485 L110.4205,584.6109 L110.7861,582.8027 L111.1517,576.3448 L111.5174,594.8143 L111.883,587.7753 L112.2486,583.2548 L112.6143,591.8438 L112.9799,602.4346 L113.3455,598.4307 L113.7112,589.7772 L114.0768,592.9415 L114.4424,599.3348 L114.808,592.2958 L115.1737,590.8751 L115.5393,571.0494 L115.9049,584.5463 L116.2706,589.196 L116.6362,581.2528 L117.0018,583.061 L117.3675,586.1608 L117.7331,589.8418 L118.0987,582.7382 L118.4643,576.3448 L118.83,582.2215 L119.1956,551.2883 L119.5612,537.5977 L119.9269,577.9593 L120.2925,549.8676 L120.6581,586.9357 L121.0238,575.4407 L121.3894,584.4172 L121.755,588.0336 L122.1207,591.2625 L122.4863,581.7695 L122.8519,585.6442 L123.2175,598.6245 L123.5832,598.0433 L123.9488,565.2373 L124.3144,600.3035 L124.6801,586.8712 L125.0457,565.9477 L125.4113,589.1314 L125.777,580.0904 L126.1426,582.9319 L126.5082,576.7969 L126.8739,565.1727 L127.2395,582.3506 L127.6051,567.9496 L127.9708,569.2412 L128.3364,558.0045 L128.702,581.8986 L129.0676,579.8967 L129.4333,564.6561 L129.7989,549.351 L130.1645,582.2215 L130.5302,580.0904 L130.8958,585.6442 L131.2614,568.66 L131.6271,595.331 L131.9927,569.3058 L132.3583,573.6326 L132.724,534.175 L133.0896,564.527 L133.4552,591.1334 L133.8208,579.0571 L134.1865,595.3956 L134.5521,577.5718 L134.9177,569.1121 L135.2834,572.0826 L135.649,575.5699 L136.0146,594.3623 L136.3802,560.846 L136.7459,566.2706 L137.1115,589.9064 L137.4771,564.1395 L137.8428,591.9083 L138.2084,568.5308 L138.574,590.4875 L138.9397,578.5405 L139.3053,573.2451 L139.6709,567.1747 L140.0366,587.194 L140.4022,564.3978 L140.7678,570.9202 L141.1335,584.2234 L141.4991,576.6677 L141.8647,568.5308 L142.2303,580.5425 L142.596,578.928 L142.9616,587.1295 L143.3272,588.2273 L143.6929,565.6248 L144.0585,564.7853 L144.4241,562.8479 L144.7898,575.8282 L145.1554,590.0355 L145.521,574.1492 L145.8867,567.5621 L146.2523,572.7285 L146.6179,580.9299 L146.9836,576.5386 L147.3492,566.206 L147.7148,567.433 L148.0804,586.5483 L148.4461,559.8773 L148.8117,591.2625 L149.1773,566.7872 L149.543,565.6248 L149.9086,570.9848 L150.2742,588.2919 L150.6399,558.9086 L151.0055,589.5835 L151.3711,571.9535 L151.7368,573.8909 L152.1024,578.2177 L152.468,575.247 L152.8336,585.3859 L153.1993,580.3488 L153.5649,568.7245 L153.9305,580.0258 L154.2962,582.1569 L154.6618,552.1924 L155.0274,560.071 L155.3931,555.1631 L155.7587,557.5525 L156.1243,568.5954 L156.4899,550.4488 L156.8556,581.4465 L157.2212,575.0533 L157.5868,587.3232 L157.9525,579.1217 L158.3181,583.061 L158.6837,581.5112 L159.0494,572.4702 L159.415,576.022 L159.7806,587.194 L160.1463,563.2354 L160.5119,575.3116 L160.8775,581.0591 L161.2431,595.2664 L161.6088,589.1314 L161.9744,584.6755 L162.34,584.288 L162.7057,591.0042 L163.0713,562.4604 L163.4369,543.991 L163.8026,560.071 L164.1682,568.8538 L164.5338,569.5641 L164.8995,514.9952 L165.2651,559.8773 L165.6307,522.68 L165.9964,544.1847 L166.362,584.5463 L166.7276,532.4314 L167.0932,570.4682 L167.4589,571.3077 L167.8245,555.486 L168.1901,544.1847 L168.5558,530.3649 L168.9214,545.3471 L169.287,542.0536 L169.6526,521.5176 L170.0183,564.6561 L170.3839,540.0516 L170.7495,543.5389 L171.1152,555.0985 L171.4808,564.3333 L171.8464,520.5489 L172.2121,539.5996 L172.5777,568.0142 L172.9433,560.2002 L173.309,526.4256 L173.6746,553.2257 L174.0402,572.0826 L174.4059,548.6406 L174.7715,557.0358 L175.1371,547.8657 L175.5027,570.2745 L175.8684,579.1217 L176.234,569.4995 L176.5996,555.938 L176.9653,561.1689 L177.3309,544.1847 L177.6965,560.9106 L178.0621,570.9848 L178.4278,536.9519 L178.7934,570.0162 L179.159,587.3232 L179.5247,555.486 L179.8903,574.2783 L180.2559,549.6093 L180.6216,582.7382 L180.9872,577.249 L181.3528,543.0869 L181.7185,565.1082 L182.0841,545.67 L182.4497,555.4214 L182.8154,548.5115 L183.181,568.4017 L183.5466,521.7759 L183.9122,543.991 L184.2779,552.257 L184.6435,550.3196 L185.0091,518.547 L185.3748,460.6845 L185.7404,577.0552 L186.106,475.4084 L186.4717,573.3096 L186.8373,569.5641 L187.2029,420 L187.5686,510.4101 L187.9342,566.7227 L188.2998,523.455 L188.6655,513.639 L189.0311,518.4178 L189.3967,571.114 L189.7623,573.6971 L190.128,516.2222 L190.4936,521.9051 L190.8592,511.4433 L191.2249,542.0536 L191.5905,594.1039 L191.9561,562.4604 L192.3217,560.0065 L192.6874,520.3552 L193.053,556.7775 L193.4186,539.9871 L193.7843,499.1734 L194.1499,575.1179 L194.5155,583.5131 L194.8812,529.6545 L195.2468,491.0365 L195.6124,567.1101 L195.9781,549.9322 L196.3437,580.0258 L196.7093,574.9887 L197.075,549.803 L197.4406,450.4811 L197.8062,491.0365 L198.1718,543.216 L198.5375,535.3374 L198.9031,534.4333 L199.2687,581.9632 L199.6344,571.8889 L200,511.96 " stroke="blue" fill="none" />
<text x="10" y="640" font-family="Arial" font-size="12" fill="black">Policy Loss</text>
<path d="M10,985.2458 L210,985.2458" stroke="gray" />
<text x="5" y="990.2458" font-family="Arial" font-size="10" fill="black">0</text>
<text x="5" y="660" font-family="Arial" font-size="10" fill="black">0.03522079</text>
<text x="5" y="860" font-family="Arial" font-size="10" fill="black">0.01356284</text>
<path d="M0.3378378,778.3559 L0.6756757,758.5238 L1.013513,746.2032 L1.351351,765.0842 L1.689189,756.3046 L2.027027,773.0073 L2.364865,755.5383 L2.702703,771.5942 L3.040541,766.181 L3.378378,755.4037 L3.716216,758.6853 L4.054054,764.4672 L4.391892,765.4757 L4.72973,744.6707 L5.067567,749.9357 L5.405406,771.6905 L5.743243,760.126 L6.081081,774.2182 L6.418919,766.4432 L6.756756,759.2501 L7.094595,763.9891 L7.432433,768.631 L7.77027,764.0049 L8.108108,767.4756 L8.445946,752.8313 L8.783784,779.6354 L9.121621,761.5582 L9.459459,758.1656 L9.797297,759.4964 L10.13513,766.5382 L10.47297,759.8203 L10.81081,780.4364 L11.14865,775.1672 L11.48649,774.2166 L11.82432,752.0025 L12.16216,774.5093 L12.5,774.6245 L12.83784,763.1034 L13.17568,751.5187 L13.51351,762.0814 L13.85135,756.6343 L14.18919,751.7368 L14.52703,756.6276 L14.86487,771.6407 L15.2027,778.9167 L15.54054,764.8251 L15.87838,768.7331 L16.21622,766.8164 L16.55405,769.101 L16.89189,745.2967 L17.22973,767.0445 L17.56757,777.9841 L17.90541,749.5046 L18.24324,760.3473 L18.58108,759.2045 L18.91892,765.9209 L19.25676,776.0352 L19.59459,764.004 L19.93243,769.668 L20.27027,769.3022 L20.60811,750.1806 L20.94595,757.3065 L21.28378,766.2827 L21.62162,744.1752 L21.95946,763.134 L22.2973,768.3365 L22.63514,760.7253 L22.97297,781.1672 L23.31081,750.2369 L23.64865,786.3928 L23.98649,772.6276 L24.32433,747.3533 L24.66216,764.6902 L25,757.3631 L25.33784,732.7999 L25.67567,767.5258 L26.01351,774.7797 L26.35135,763.0775 L26.68919,778.7114 L27.02703,749.6129 L27.36486,774.1014 L27.7027,759.9144 L28.04054,750.2435 L28.37838,744.9257 L28.71622,739.6608 L29.05405,785.1646 L29.39189,750.2149 L29.72973,771.2272 L30.06757,742.9279 L30.40541,798.4434 L30.74324,752.1648 L31.08108,787.0172 L31.41892,746.7057 L31.75676,743.3076 L32.09459,804.0303 L32.43243,774.3204 L32.77027,749.5063 L33.10811,768.5436 L33.44595,765.6182 L33.78378,743.3058 L34.12162,717.6426 L34.45946,789.074 L34.79729,775.3298 L35.13514,745.2109 L35.47297,781.0029 L35.81081,758.8866 L36.14865,756.9012 L36.48648,751.4633 L36.82433,778.3582 L37.16216,753.7392 L37.5,739.022 L37.83784,755.8083 L38.17567,792.1512 L38.51352,777.764 L38.85135,755.7412 L39.18919,772.526 L39.52703,786.0181 L39.86486,764.5782 L40.20271,767.0655 L40.54054,755.9001 L40.87838,747.801 L41.21622,753.2505 L41.55405,780.375 L41.89189,757.9688 L42.22973,759.2698 L42.56757,775.1292 L42.90541,715.6816 L43.24324,761.4293 L43.58108,753.2591 L43.91892,761.7882 L44.25676,728.4464 L44.59459,748.1881 L44.93243,750.0891 L45.27027,709.9617 L45.60811,746.894 L45.94595,782.3049 L46.28378,807.0126 L46.62162,747.7245 L46.95946,755.7379 L47.29729,762.4968 L47.63514,760.449 L47.97297,782.4896 L48.31081,757.6818 L48.64865,787.3041 L48.98648,778.1852 L49.32433,739.0363 L49.66216,821.4661 L50,772.0785 L50.33784,770.0594 L50.67568,772.1706 L51.01351,760.9781 L51.35135,772.7696 L51.68919,784.0313 L52.02703,766.064 L52.36486,748.4309 L52.7027,763.0803 L53.04054,742.3138 L53.37838,772.0861 L53.71622,779.9283 L54.05405,731.6121 L54.39189,751.6741 L54.72973,750.9884 L55.06757,778.0797 L55.40541,716.4651 L55.74324,747.6436 L56.08108,762.6119 L56.41892,793.7284 L56.75676,767.2321 L57.09459,777.1194 L57.43243,805.4965 L57.77027,752.2835 L58.10811,780.5168 L58.44595,707.9252 L58.78378,761.9103 L59.12162,773.6395 L59.45946,765.0242 L59.7973,764.8583 L60.13514,799.2483 L60.47297,759.7173 L60.81081,737.6334 L61.14865,793.494 L61.48649,754.1477 L61.82432,777.2241 L62.16216,757.2577 L62.5,713.5215 L62.83784,780.9791 L63.17568,762.3801 L63.51351,776.1978 L63.85135,753.1638 L64.18919,729.6336 L64.52703,733.7966 L64.86486,752.9281 L65.2027,748.5036 L65.54054,773.6862 L65.87838,785.4387 L66.21622,745.1055 L66.55405,737.6678 L66.89189,756.0624 L67.22973,722.2122 L67.56757,759.9159 L67.90541,778.1751 L68.24324,735.3285 L68.58108,781.729 L68.91892,799.0984 L69.25676,772.1132 L69.59459,760.1981 L69.93243,770.6884 L70.27027,771.7477 L70.60811,783.5123 L70.94595,777.9368 L71.28378,731.5807 L71.62162,800.2069 L71.95946,757.9005 L72.2973,754.5499 L72.63514,771.8494 L72.97297,781.0795 L73.31081,760.6577 L73.64865,751.3355 L73.98649,779.009 L74.32433,773.0407 L74.66216,746.1928 L75,772.7635 L75.33784,768.9268 L75.67567,762.3558 L76.01351,773.9335 L76.35135,800.1108 L76.68919,796.1862 L77.02703,737.5546 L77.36486,778.5199 L77.7027,722.6129 L78.04054,758.9773 L78.37838,736.0846 L78.71622,752.8912 L79.05405,733.4628 L79.39189,748.8754 L79.72973,767.4021 L80.06757,769.0168 L80.40541,728.3746 L80.74324,716.2682 L81.08108,738.936 L81.41892,761.9703 L81.75676,733.5082 L82.09459,790.4946 L82.43243,782.8197 L82.77027,784.061 L83.10811,769.8367 L83.44595,759.5336 L83.78378,778.4507 L84.12162,779.5311 L84.45946,753.4045 L84.7973,726.0893 L85.13514,763.5076 L85.47297,752.8679 L85.81081,763.2321 L86.14865,753.9891 L86.48649,829.5026 L86.82433,802.1225 L87.16216,798.9133 L87.5,780.6077 L87.83784,804.6282 L88.17567,770.6019 L88.51351,772.8485 L88.85135,707.1548 L89.18919,793.2886 L89.52703,747.8557 L89.86486,705.2012 L90.2027,760.567 L90.54054,743.2697 L90.87838,739.2015 L91.21622,761.546 L91.55405,775.0635 L91.89189,779.0826 L92.22973,823.6388 L92.56757,771.55 L92.90541,780.6439 L93.24324,775.0623 L93.58108,758.8214 L93.91892,751.7826 L94.25676,762.9037 L94.59459,757.9301 L94.93243,742.3138 L95.27027,782.0073 L95.60811,772.5585 L95.94595,718.7389 L96.28378,694.0031 L96.62162,733.9388 L96.95946,756.2924 L97.2973,720.8138 L97.63514,761.4644 L97.97297,771.7911 L98.31081,705.5805 L98.64865,804.636 L98.98649,782.9073 L99.32433,759.9648 L99.66216,849.9696 L100,742.9142 L100.3378,751.7787 L100.6757,836.2095 L101.0135,780.8354 L101.3514,788.5557 L101.6892,736.9319 L102.027,778.0731 L102.3649,760.1789 L102.7027,764.562 L103.0405,793.6588 L103.3784,706.3354 L103.7162,793.719 L104.0541,768.3294 L104.3919,753.8217 L104.7297,816.5844 L105.0676,744.6974 L105.4054,728.533 L105.7432,785.942 L106.0811,763.648 L106.4189,758.8361 L106.7568,838.48 L107.0946,676.0136 L107.4324,808.1569 L107.7703,734.2842 L108.1081,806.9353 L108.4459,797.1546 L108.7838,717.7527 L109.1216,710.9896 L109.4595,780.1359 L109.7973,780.1821 L110.1351,753.1762 L110.473,742.3719 L110.8108,712.865 L111.1486,752.0809 L111.4865,756.006 L111.8243,780.4893 L112.1622,756.3452 L112.5,764.527 L112.8378,786.795 L113.1757,798.5991 L113.5135,730.7806 L113.8514,817.1505 L114.1892,738.2863 L114.527,788.6564 L114.8649,789.675 L115.2027,763.9411 L115.5405,793.0545 L115.8784,676.7259 L116.2162,693.7015 L116.5541,732.3846 L116.8919,803.1071 L117.2297,785.8088 L117.5676,722.7028 L117.9054,719.2798 L118.2432,804.5908 L118.5811,805.6619 L118.9189,830.4146 L119.2568,749.5385 L119.5946,759.1478 L119.9324,766.6764 L120.2703,788.1407 L120.6081,751.3777 L120.9459,784.1432 L121.2838,769.6456 L121.6216,792.6876 L121.9595,777.5638 L122.2973,748.4814 L122.6351,747.881 L122.973,767.331 L123.3108,742.4105 L123.6486,757.9084 L123.9865,779.757 L124.3243,719.0664 L124.6622,761.5436 L125,728.5494 L125.3378,741.6363 L125.6757,824.6536 L126.0135,760.1683 L126.3514,840.692 L126.6892,768.9479 L127.027,761.5143 L127.3649,729.8282 L127.7027,811.9056 L128.0405,780.8051 L128.3784,791.4307 L128.7162,770.9479 L129.0541,773.9235 L129.3919,815.5471 L129.7297,660.2382 L130.0676,817.8067 L130.4054,768.3433 L130.7432,775.2277 L131.0811,831.9614 L131.4189,701.8557 L131.7568,764.336 L132.0946,713.1777 L132.4324,800.3762 L132.7703,753.7954 L133.1081,751.7373 L133.4459,746.2191 L133.7838,734.728 L134.1216,771.2033 L134.4595,762.0554 L134.7973,754.7935 L135.1351,756.6033 L135.473,753.3917 L135.8108,760.9583 L136.1487,785.2275 L136.4865,716.9991 L136.8243,748.2032 L137.1622,749.1277 L137.5,756.11 L137.8378,731.0063 L138.1757,702.9346 L138.5135,796.2922 L138.8513,767.7313 L139.1892,781.9366 L139.527,762.0736 L139.8649,735.0598 L140.2027,709.2924 L140.5405,721.1044 L140.8784,778.505 L141.2162,791.6876 L141.5541,714.0178 L141.8919,808.2878 L142.2297,770.0959 L142.5676,661.8695 L142.9054,742.5858 L143.2432,800.4966 L143.5811,733.7878 L143.9189,772.1268 L144.2568,735.7883 L144.5946,760.3705 L144.9324,767.1807 L145.2703,725.8994 L145.6081,823.453 L145.9459,792.9324 L146.2838,818.6829 L146.6216,787.2748 L146.9595,771.1908 L147.2973,748.8843 L147.6351,840.9785 L147.973,786.8889 L148.3108,767.391 L148.6487,757.1418 L148.9865,684.7614 L149.3243,708.1517 L149.6622,772.0982 L150,684.3559 L150.3378,772.8873 L150.6757,744.6391 L151.0135,730.3754 L151.3513,744.2855 L151.6892,764.5264 L152.027,790.3528 L152.3649,729.3181 L152.7027,796.2689 L153.0405,746.0062 L153.3784,772.4152 L153.7162,779.8469 L154.0541,745.859 L154.3919,749.7592 L154.7297,712.3275 L155.0676,742.4834 L155.4054,780.6384 L155.7432,717.933 L156.0811,788.7289 L156.4189,768.7979 L156.7568,779.7888 L157.0946,784.0469 L157.4324,835.6356 L157.7703,700.4677 L158.1081,810.7482 L158.4459,776.3064 L158.7838,785.1857 L159.1216,780.6181 L159.4595,735.473 L159.7973,798.931 L160.1351,773.2706 L160.473,802.3502 L160.8108,824.9678 L161.1487,770.2031 L161.4865,777.3907 L161.8243,772.2115 L162.1622,763.6476 L162.5,781.9226 L162.8378,674.3992 L163.1757,802.2237 L163.5135,761.9163 L163.8513,761.4569 L164.1892,777.3228 L164.527,761.479 L164.8649,792.5121 L165.2027,788.2161 L165.5405,762.5456 L165.8784,790.4538 L166.2162,798.1096 L166.5541,678.8177 L166.8919,810.954 L167.2297,709.8464 L167.5676,783.8905 L167.9054,821.0785 L168.2432,765.9555 L168.5811,740.5714 L168.9189,768.6887 L169.2568,793.6729 L169.5946,831.3341 L169.9324,738.2269 L170.2703,817.2474 L170.6081,785.3179 L170.9459,813.8801 L171.2838,740.5485 L171.6216,727.7802 L171.9595,849.4356 L172.2973,760.749 L172.6351,715.0187 L172.973,794.6947 L173.3108,782.6911 L173.6487,799.8874 L173.9865,660 L174.3243,772.6001 L174.6622,737.161 L175,733.3777 L175.3378,718.8831 L175.6757,721.7012 L176.0135,792.4466 L176.3513,794.5151 L176.6892,748.0661 L177.027,762.8434 L177.3649,735.8417 L177.7027,792.3492 L178.0405,811.537 L178.3784,856.3711 L178.7162,742.6357 L179.0541,700.3921 L179.3919,740.3727 L179.7297,817.8679 L180.0676,750.3302 L180.4054,814.1453 L180.7432,762.7454 L181.0811,732.4186 L181.4189,834.0669 L181.7568,777.8616 L182.0946,736.8193 L182.4324,729.4716 L182.7703,758.3994 L183.1081,790.1265 L183.4459,774.77 L183.7838,836.9352 L184.1216,773.349 L184.4595,736.3687 L184.7973,761.0812 L185.1351,739.5606 L185.473,768.3149 L185.8108,792.8022 L186.1487,810.7986 L186.4865,754.97 L186.8243,782.2156 L187.1622,725.8981 L187.5,777.6201 L187.8378,810.4426 L188.1757,753.9741 L188.5135,736.1118 L188.8513,754.3386 L189.1892,730.8923 L189.527,788.8422 L189.8649,701.1072 L190.2027,829.462 L190.5405,801.4992 L190.8784,782.2406 L191.2162,847.2355 L191.5541,754.345 L191.8919,797.6432 L192.2297,705.1314 L192.5676,787.4759 L192.9054,765.9642 L193.2432,713.6774 L193.5811,744.3596 L193.9189,740.7046 L194.2568,726.4406 L194.5946,783.8604 L194.9324,780.926 L195.2703,749.0803 L195.6081,821.8088 L195.9459,756.7556 L196.2838,726.6672 L196.6216,799.9861 L196.9595,774.3326 L197.2973,671.2338 L197.6351,859.0956 L197.973,705.1343 L198.3108,815.3713 L198.6487,778.2684 L198.9865,753.3712 L199.3243,860 L199.6622,778.3776 L200,760.6477 " stroke="blue" fill="none" />
<text x="10" y="880" font-family="Arial" font-size="12" fill="black">Value Loss</text>
<path d="M10,1100.097 L210,1100.097" stroke="gray" />
<text x="5" y="1105.097" font-family="Arial" font-size="10" fill="black">0</text>
<text x="5" y="900" font-family="Arial" font-size="10" fill="black">2.19395</text>
<text x="5" y="1100" font-family="Arial" font-size="10" fill="black">0.001063674</text>
<path d="M0.3378378,1077.781 L0.6756757,1079.007 L1.013513,1081.926 L1.351351,1077.588 L1.689189,1079.474 L2.027027,1082.334 L2.364865,1066.758 L2.702703,1071.927 L3.040541,1072.487 L3.378378,1066.781 L3.716216,1095.254 L4.054054,1086.906 L4.391892,1080.269 L4.72973,1064.845 L5.067567,1070.402 L5.405406,1086.162 L5.743243,1066.386 L6.081081,1083.272 L6.418919,1078.81 L6.756756,1095.201 L7.094595,1089.978 L7.432433,1075.717 L7.77027,1085.673 L8.108108,1082.028 L8.445946,1059.013 L8.783784,1087.455 L9.121621,1078.327 L9.459459,1084.898 L9.797297,1076.145 L10.13513,1075.357 L10.47297,1063.116 L10.81081,1079.692 L11.14865,1071.736 L11.48649,1082.405 L11.82432,1086.05 L12.16216,1069.742 L12.5,1064.374 L12.83784,1072.982 L13.17568,1064.258 L13.51351,1055.068 L13.85135,1061.495 L14.18919,1079.457 L14.52703,1073.19 L14.86487,1060.723 L15.2027,1069.096 L15.54054,1089.459 L15.87838,1083.779 L16.21622,1081.943 L16.55405,1083.701 L16.89189,1064.054 L17.22973,1046.741 L17.56757,1080.323 L17.90541,1056.592 L18.24324,1084.442 L18.58108,1070.399 L18.91892,1030.756 L19.25676,1066.593 L19.59459,1078.403 L19.93243,1063.379 L20.27027,1050.731 L20.60811,1075.26 L20.94595,1083.992 L21.28378,1089.2 L21.62162,1072.708 L21.95946,1069.766 L22.2973,1083.243 L22.63514,1091.326 L22.97297,1078.983 L23.31081,1073.255 L23.64865,1085.941 L23.98649,1089.097 L24.32433,1070.257 L24.66216,1061.493 L25,1047.005 L25.33784,1091.791 L25.67567,1091.568 L26.01351,1086.634 L26.35135,1083.153 L26.68919,1084.18 L27.02703,1080.167 L27.36486,1074.468 L27.7027,1074.929 L28.04054,977.5366 L28.37838,1054.97 L28.71622,1069.104 L29.05405,1082.729 L29.39189,1081.473 L29.72973,1087.889 L30.06757,1083.089 L30.40541,1088.438 L30.74324,1092.989 L31.08108,1092.272 L31.41892,1078.037 L31.75676,1070.162 L32.09459,1052.309 L32.43243,1079.267 L32.77027,1069.886 L33.10811,1094.11 L33.44595,1088.289 L33.78378,1085.397 L34.12162,1084.423 L34.45946,1087.184 L34.79729,1076.092 L35.13514,1078.188 L35.47297,1082.199 L35.81081,1089.921 L36.14865,1012.477 L36.48648,1082.307 L36.82433,1085.529 L37.16216,1089.306 L37.5,1072.625 L37.83784,1082.956 L38.17567,1083.416 L38.51352,1068.515 L38.85135,1065.149 L39.18919,1084.311 L39.52703,1084.014 L39.86486,1082.181 L40.20271,1087.258 L40.54054,1056.314 L40.87838,1058.913 L41.21622,1060.641 L41.55405,1066.654 L41.89189,1051.446 L42.22973,1051.409 L42.56757,1072.8 L42.90541,1087.024 L43.24324,1091.956 L43.58108,1053.011 L43.91892,1061.752 L44.25676,1074.733 L44.59459,1088.385 L44.93243,1051.735 L45.27027,1091.154 L45.60811,1066.994 L45.94595,1090.859 L46.28378,1093.651 L46.62162,1098.541 L46.95946,1066.808 L47.29729,1082.487 L47.63514,1057.583 L47.97297,1098.172 L48.31081,1071.189 L48.64865,1085.745 L48.98648,1072.853 L49.32433,1087.96 L49.66216,1074.339 L50,1084.833 L50.33784,1085.643 L50.67568,1091.081 L51.01351,1070.541 L51.35135,1083.415 L51.68919,1074.703 L52.02703,1087.475 L52.36486,1074.358 L52.7027,1089.269 L53.04054,1074.398 L53.37838,1086.395 L53.71622,1040.351 L54.05405,1063.17 L54.39189,1071.11 L54.72973,1085.045 L55.06757,1047.958 L55.40541,1054.409 L55.74324,1057.229 L56.08108,1083.595 L56.41892,1074.501 L56.75676,1089.953 L57.09459,1036.567 L57.43243,1087.131 L57.77027,1080.656 L58.10811,1094.726 L58.44595,1063.719 L58.78378,1074.236 L59.12162,1084.183 L59.45946,1092.192 L59.7973,1059.373 L60.13514,1073.275 L60.47297,1078.227 L60.81081,1090.796 L61.14865,1087.93 L61.48649,1095.11 L61.82432,1042.698 L62.16216,1058.035 L62.5,1071.022 L62.83784,1090.009 L63.17568,1054.954 L63.51351,1079.056 L63.85135,1035.102 L64.18919,1094.385 L64.52703,1086.475 L64.86486,1096.486 L65.2027,1081.692 L65.54054,1090.163 L65.87838,1085.165 L66.21622,1095.097 L66.55405,1066.052 L66.89189,1086.475 L67.22973,903.431 L67.56757,1094.334 L67.90541,1058.029 L68.24324,1095.597 L68.58108,1062.231 L68.91892,1082.926 L69.25676,1080.66 L69.59459,1093.64 L69.93243,1080.027 L70.27027,1094.898 L70.60811,1054.972 L70.94595,1072.337 L71.28378,1092.056 L71.62162,1096.067 L71.95946,1089.74 L72.2973,1096.711 L72.63514,1069.691 L72.97297,1089.735 L73.31081,1056.2 L73.64865,1074.137 L73.98649,1071.715 L74.32433,1090.076 L74.66216,1083.073 L75,1088.061 L75.33784,1085.579 L75.67567,1092.054 L76.01351,1074.212 L76.35135,1083.18 L76.68919,1078.937 L77.02703,1093.407 L77.36486,1070.685 L77.7027,1081.008 L78.04054,1084.565 L78.37838,1094.412 L78.71622,1086.285 L79.05405,1097.418 L79.39189,1087.124 L79.72973,1092.703 L80.06757,1087.616 L80.40541,1095.793 L80.74324,1079.897 L81.08108,1089.616 L81.41892,1086.869 L81.75676,1092.355 L82.09459,1095.244 L82.43243,1098.456 L82.77027,1093.834 L83.10811,1096.621 L83.44595,1049.48 L83.78378,1079.269 L84.12162,1083.571 L84.45946,1095.934 L84.7973,1084.382 L85.13514,1095.475 L85.47297,1097.317 L85.81081,1097.847 L86.14865,1092.122 L86.48649,1095.641 L86.82433,1096.65 L87.16216,1096.981 L87.5,1079.256 L87.83784,1087.938 L88.17567,1091.797 L88.51351,1093.893 L88.85135,1079.171 L89.18919,1093.109 L89.52703,1096.037 L89.86486,1096.934 L90.2027,1083.613 L90.54054,1091.695 L90.87838,1093.93 L91.21622,1094.8 L91.55405,1036.728 L91.89189,1065.452 L92.22973,1080.6 L92.56757,1087.041 L92.90541,1068.433 L93.24324,1089.033 L93.58108,1092.269 L93.91892,1093.625 L94.25676,1091.327 L94.59459,1093.512 L94.93243,1094.476 L95.27027,1095.036 L95.60811,1089.682 L95.94595,1095.148 L96.28378,1096.365 L96.62162,1097.248 L96.95946,1084.123 L97.2973,1092.948 L97.63514,1094.909 L97.97297,1095.681 L98.31081,1038.111 L98.64865,1073.671 L98.98649,1083.528 L99.32433,1087.561 L99.66216,1066.469 L100,1081.641 L100.3378,1088.714 L100.6757,1091.345 L101.0135,1073.792 L101.3514,1085.657 L101.6892,1091.058 L102.027,1093.207 L102.3649,1040.24 L102.7027,1090.406 L103.0405,1095.882 L103.3784,1097.065 L103.7162,1080.494 L104.0541,1093.434 L104.3919,1096.333 L104.7297,1097.065 L105.0676,1077.691 L105.4054,1093.475 L105.7432,1096.755 L106.0811,1097.595 L106.4189,1057.347 L106.7568,1075.254 L107.0946,1083.937 L107.4324,1090.679 L107.7703,1039.722 L108.1081,1070.41 L108.4459,1082.501 L108.7838,1087.477 L109.1216,1071.06 L109.4595,1083.513 L109.7973,1086.832 L110.1351,1088.464 L110.473,1073.052 L110.8108,1083.92 L111.1486,1089.287 L111.4865,1091.963 L111.8243,1053.968 L112.1622,1078.963 L112.5,1086.872 L112.8378,1089.855 L113.1757,990.0449 L113.5135,1034.691 L113.8514,1050.632 L114.1892,1060.21 L114.527,1053.856 L114.8649,1082.673 L115.2027,1090.072 L115.5405,1092.746 L115.8784,1065.163 L116.2162,1077.854 L116.5541,1082.246 L116.8919,1084.358 L117.2297,1051.613 L117.5676,1071.468 L117.9054,1077.194 L118.2432,1081.047 L118.5811,1063.106 L118.9189,1078.208 L119.2568,1086.196 L119.5946,1090.275 L119.9324,1069.405 L120.2703,1084.486 L120.6081,1089.47 L120.9459,1091.62 L121.2838,1034.437 L121.6216,1075.717 L121.9595,1083.368 L122.2973,1087.222 L122.6351,1069.611 L122.973,1085.074 L123.3108,1092.335 L123.6486,1093.778 L123.9865,1055.745 L124.3243,1071.976 L124.6622,1082.794 L125,1089.377 L125.3378,1056.68 L125.6757,1086.819 L126.0135,1089.85 L126.3514,1090.84 L126.6892,1090.08 L127.027,1092.339 L127.3649,1093.505 L127.7027,1093.973 L128.0405,1079.08 L128.3784,1089.745 L128.7162,1093.283 L129.0541,1095.708 L129.3919,1048.115 L129.7297,1080.551 L130.0676,1085.532 L130.4054,1088.051 L130.7432,1020.819 L131.0811,1087.208 L131.4189,1095.705 L131.7568,1097.169 L132.0946,1074.541 L132.4324,1091.273 L132.7703,1095.309 L133.1081,1096.763 L133.4459,940.5474 L133.7838,1088.787 L134.1216,1096.594 L134.4595,1098.615 L134.7973,1015.828 L135.1351,1082.316 L135.473,1091.446 L135.8108,1093.293 L136.1487,1050.428 L136.4865,1088.463 L136.8243,1094.394 L137.1622,1096.54 L137.5,1081.811 L137.8378,1090.004 L138.1757,1091.775 L138.5135,1092.745 L138.8513,1078.42 L139.1892,1083.206 L139.527,1085.518 L139.8649,1087.12 L140.2027,1094.888 L140.5405,1099.728 L140.8784,1099.945 L141.2162,1099.988 L141.5541,1070.201 L141.8919,1087.891 L142.2297,1090.435 L142.5676,1091.474 L142.9054,1066.932 L143.2432,1074.533 L143.5811,1076.514 L143.9189,1077.535 L144.2568,1035.184 L144.5946,1091.022 L144.9324,1098.273 L145.2703,1098.825 L145.6081,1099.147 L145.9459,1099.629 L146.2838,1099.925 L146.6216,1100 L146.9595,1068.399 L147.2973,1078.961 L147.6351,1087.379 L147.973,1092.438 L148.3108,1070.022 L148.6487,1083.182 L148.9865,1087.351 L149.3243,1089.42 L149.6622,1091.98 L150,1094.995 L150.3378,1095.881 L150.6757,1096.321 L151.0135,1074.772 L151.3513,1095.354 L151.6892,1098.228 L152.027,1098.676 L152.3649,1065.426 L152.7027,1071.365 L153.0405,1075.37 L153.3784,1077.27 L153.7162,1086.729 L154.0541,1095.9 L154.3919,1097.952 L154.7297,1098.604 L155.0676,1068.116 L155.4054,1076.22 L155.7432,1080.021 L156.0811,1082.584 L156.4189,1082.116 L156.7568,1094.942 L157.0946,1096.094 L157.4324,1096.415 L157.7703,1076.731 L158.1081,1079.814 L158.4459,1081.627 L158.7838,1083.072 L159.1216,1071.855 L159.4595,1088.73 L159.7973,1093.87 L160.1351,1096.01 L160.473,1074.42 L160.8108,1092.027 L161.1487,1094.501 L161.4865,1095.57 L161.8243,1084.207 L162.1622,1095.645 L162.5,1096.854 L162.8378,1097.494 L163.1757,1077.511 L163.5135,1084.601 L163.8513,1087.278 L164.1892,1088.712 L164.527,1083.155 L164.8649,1088.413 L165.2027,1089.813 L165.5405,1090.52 L165.8784,1081.096 L166.2162,1089.56 L166.5541,1094.693 L166.8919,1096.676 L167.2297,1051.659 L167.5676,1073.889 L167.9054,1085.053 L168.2432,1090.212 L168.5811,1076.574 L168.9189,1095.35 L169.2568,1097.245 L169.5946,1097.623 L169.9324,1097.857 L170.2703,1098.053 L170.6081,1091.023 L170.9459,1096.624 L171.2838,1098.407 L171.6216,1099.04 L171.9595,1099.259 L172.2973,1099.388 L172.6351,1099.466 L172.973,1099.514 L173.3108,1064.867 L173.6487,1089.33 L173.9865,1093.532 L174.3243,1094.735 L174.6622,1095.581 L175,1095.88 L175.3378,1096.206 L175.6757,1096.157 L176.0135,1073.827 L176.3513,1080.218 L176.6892,1085.841 L177.027,1089.155 L177.3649,1091.375 L177.7027,1092.542 L178.0405,1093.569 L178.3784,1094.371 L178.7162,1078.415 L179.0541,1083.291 L179.3919,1087.127 L179.7297,1089.038 L180.0676,1090.356 L180.4054,1091.418 L180.7432,1092.06 L181.0811,1092.603 L181.4189,900 L181.7568,1027.403 L182.0946,1073.566 L182.4324,1091.637 L182.7703,1096.363 L183.1081,1097.988 L183.4459,1098.429 L183.7838,1098.629 L184.1216,1063.44 L184.4595,1093.097 L184.7973,1095.406 L185.1351,1096.456 L185.473,1097.302 L185.8108,1097.723 L186.1487,1097.919 L186.4865,1098.066 L186.8243,1055.997 L187.1622,1073.201 L187.5,1077.81 L187.8378,1080.175 L188.1757,1081.901 L188.5135,1083.325 L188.8513,1084.288 L189.1892,1085.399 L189.527,1084.578 L189.8649,1091.482 L190.2027,1093.288 L190.5405,1094.052 L190.8784,1094.545 L191.2162,1094.841 L191.5541,1095.106 L191.8919,1095.282 L192.2297,1058.435 L192.5676,1084.547 L192.9054,1090.325 L193.2432,1093.846 L193.5811,1096.03 L193.9189,1097.223 L194.2568,1098.043 L194.5946,1098.513 L194.9324,1081.412 L195.2703,1087.572 L195.6081,1090.515 L195.9459,1093.013 L196.2838,1094.906 L196.6216,1096.257 L196.9595,1096.953 L197.2973,1097.318 L197.6351,1079.542 L197.973,1093.796 L198.3108,1096.758 L198.6487,1098.337 L198.9865,1098.809 L199.3243,1099.047 L199.6622,1099.241 L200,1099.318 " stroke="blue" fill="none" />
<text x="10" y="1120" font-family="Arial" font-size="12" fill="black">Learning Rate</text>
<path d="M10,6001141 L210,6001141" stroke="gray" />
<text x="5" y="6001146" font-family="Arial" font-size="10" fill="black">0</text>
<text x="5" y="1140" font-family="Arial" font-size="10" fill="black">0.0003</text>
<text x="5" y="1340" font-family="Arial" font-size="10" fill="black">0.0003</text>
<path d="M0.3378378,NaN L0.6756757,NaN L1.013513,NaN L1.351351,NaN L1.689189,NaN L2.027027,NaN L2.364865,NaN L2.702703,NaN L3.040541,NaN L3.378378,NaN L3.716216,NaN L4.054054,NaN L4.391892,NaN L4.72973,NaN L5.067567,NaN L5.405406,NaN L5.743243,NaN L6.081081,NaN L6.418919,NaN L6.756756,NaN L7.094595,NaN L7.432433,NaN L7.77027,NaN L8.108108,NaN L8.445946,NaN L8.783784,NaN L9.121621,NaN L9.459459,NaN L9.797297,NaN L10.13513,NaN L10.47297,NaN L10.81081,NaN L11.14865,NaN L11.48649,NaN L11.82432,NaN L12.16216,NaN L12.5,NaN L12.83784,NaN L13.17568,NaN L13.51351,NaN L13.85135,NaN L14.18919,NaN L14.52703,NaN L14.86487,NaN L15.2027,NaN L15.54054,NaN L15.87838,NaN L16.21622,NaN L16.55405,NaN L16.89189,NaN L17.22973,NaN L17.56757,NaN L17.90541,NaN L18.24324,NaN L18.58108,NaN L18.91892,NaN L19.25676,NaN L19.59459,NaN L19.93243,NaN L20.27027,NaN L20.60811,NaN L20.94595,NaN L21.28378,NaN L21.62162,NaN L21.95946,NaN L22.2973,NaN L22.63514,NaN L22.97297,NaN L23.31081,NaN L23.64865,NaN L23.98649,NaN L24.32433,NaN L24.66216,NaN L25,NaN L25.33784,NaN L25.67567,NaN L26.01351,NaN L26.35135,NaN L26.68919,NaN L27.02703,NaN L27.36486,NaN L27.7027,NaN L28.04054,NaN L28.37838,NaN L28.71622,NaN L29.05405,NaN L29.39189,NaN L29.72973,NaN L30.06757,NaN L30.40541,NaN L30.74324,NaN L31.08108,NaN L31.41892,NaN L31.75676,NaN L32.09459,NaN L32.43243,NaN L32.77027,NaN L33.10811,NaN L33.44595,NaN L33.78378,NaN L34.12162,NaN L34.45946,NaN L34.79729,NaN L35.13514,NaN L35.47297,NaN L35.81081,NaN L36.14865,NaN L36.48648,NaN L36.82433,NaN L37.16216,NaN L37.5,NaN L37.83784,NaN L38.17567,NaN L38.51352,NaN L38.85135,NaN L39.18919,NaN L39.52703,NaN L39.86486,NaN L40.20271,NaN L40.54054,NaN L40.87838,NaN L41.21622,NaN L41.55405,NaN L41.89189,NaN L42.22973,NaN L42.56757,NaN L42.90541,NaN L43.24324,NaN L43.58108,NaN L43.91892,NaN L44.25676,NaN L44.59459,NaN L44.93243,NaN L45.27027,NaN L45.60811,NaN L45.94595,NaN L46.28378,NaN L46.62162,NaN L46.95946,NaN L47.29729,NaN L47.63514,NaN L47.97297,NaN L48.31081,NaN L48.64865,NaN L48.98648,NaN L49.32433,NaN L49.66216,NaN L50,NaN L50.33784,NaN L50.67568,NaN L51.01351,NaN L51.35135,NaN L51.68919,NaN L52.02703,NaN L52.36486,NaN L52.7027,NaN L53.04054,NaN L53.37838,NaN L53.71622,NaN L54.05405,NaN L54.39189,NaN L54.72973,NaN L55.06757,NaN L55.40541,NaN L55.74324,NaN L56.08108,NaN L56.41892,NaN L56.75676,NaN L57.09459,NaN L57.43243,NaN L57.77027,NaN L58.10811,NaN L58.44595,NaN L58.78378,NaN L59.12162,NaN L59.45946,NaN L59.7973,NaN L60.13514,NaN L60.47297,NaN L60.81081,NaN L61.14865,NaN L61.48649,NaN L61.82432,NaN L62.16216,NaN L62.5,NaN L62.83784,NaN L63.17568,NaN L63.51351,NaN L63.85135,NaN L64.18919,NaN L64.52703,NaN L64.86486,NaN L65.2027,NaN L65.54054,NaN L65.87838,NaN L66.21622,NaN L66.55405,NaN L66.89189,NaN L67.22973,NaN L67.56757,NaN L67.90541,NaN L68.24324,NaN L68.58108,NaN L68.91892,NaN L69.25676,NaN L69.59459,NaN L69.93243,NaN L70.27027,NaN L70.60811,NaN L70.94595,NaN L71.28378,NaN L71.62162,NaN L71.95946,NaN L72.2973,NaN L72.63514,NaN L72.97297,NaN L73.31081,NaN L73.64865,NaN L73.98649,NaN L74.32433,NaN L74.66216,NaN L75,NaN L75.33784,NaN L75.67567,NaN L76.01351,NaN L76.35135,NaN L76.68919,NaN L77.02703,NaN L77.36486,NaN L77.7027,NaN L78.04054,NaN L78.37838,NaN L78.71622,NaN L79.05405,NaN L79.39189,NaN L79.72973,NaN L80.06757,NaN L80.40541,NaN L80.74324,NaN L81.08108,NaN L81.41892,NaN L81.75676,NaN L82.09459,NaN L82.43243,NaN L82.77027,NaN L83.10811,NaN L83.44595,NaN L83.78378,NaN L84.12162,NaN L84.45946,NaN L84.7973,NaN L85.13514,NaN L85.47297,NaN L85.81081,NaN L86.14865,NaN L86.48649,NaN L86.82433,NaN L87.16216,NaN L87.5,NaN L87.83784,NaN L88.17567,NaN L88.51351,NaN L88.85135,NaN L89.18919,NaN L89.52703,NaN L89.86486,NaN L90.2027,NaN L90.54054,NaN L90.87838,NaN L91.21622,NaN L91.55405,NaN L91.89189,NaN L92.22973,NaN L92.56757,NaN L92.90541,NaN L93.24324,NaN L93.58108,NaN L93.91892,NaN L94.25676,NaN L94.59459,NaN L94.93243,NaN L95.27027,NaN L95.60811,NaN L95.94595,NaN L96.28378,NaN L96.62162,NaN L96.95946,NaN L97.2973,NaN L97.63514,NaN L97.97297,NaN L98.31081,NaN L98.64865,NaN L98.98649,NaN L99.32433,NaN L99.66216,NaN L100,NaN L100.3378,NaN L100.6757,NaN L101.0135,NaN L101.3514,NaN L101.6892,NaN L102.027,NaN L102.3649,NaN L102.7027,NaN L103.0405,NaN L103.3784,NaN L103.7162,NaN L104.0541,NaN L104.3919,NaN L104.7297,NaN L105.0676,NaN L105.4054,NaN L105.7432,NaN L106.0811,NaN L106.4189,NaN L106.7568,NaN L107.0946,NaN L107.4324,NaN L107.7703,NaN L108.1081,NaN L108.4459,NaN L108.7838,NaN L109.1216,NaN L109.4595,NaN L109.7973,NaN L110.1351,NaN L110.473,NaN L110.8108,NaN L111.1486,NaN L111.4865,NaN L111.8243,NaN L112.1622,NaN L112.5,NaN L112.8378,NaN L113.1757,NaN L113.5135,NaN L113.8514,NaN L114.1892,NaN L114.527,NaN L114.8649,NaN L115.2027,NaN L115.5405,NaN L115.8784,NaN L116.2162,NaN L116.5541,NaN L116.8919,NaN L117.2297,NaN L117.5676,NaN L117.9054,NaN L118.2432,NaN L118.5811,NaN L118.9189,NaN L119.2568,NaN L119.5946,NaN L119.9324,NaN L120.2703,NaN L120.6081,NaN L120.9459,NaN L121.2838,NaN L121.6216,NaN L121.9595,NaN L122.2973,NaN L122.6351,NaN L122.973,NaN L123.3108,NaN L123.6486,NaN L123.9865,NaN L124.3243,NaN L124.6622,NaN L125,NaN L125.3378,NaN L125.6757,NaN L126.0135,NaN L126.3514,NaN L126.6892,NaN L127.027,NaN L127.3649,NaN L127.7027,NaN L128.0405,NaN L128.3784,NaN L128.7162,NaN L129.0541,NaN L129.3919,NaN L129.7297,NaN L130.0676,NaN L130.4054,NaN L130.7432,NaN L131.0811,NaN L131.4189,NaN L131.7568,NaN L132.0946,NaN L132.4324,NaN L132.7703,NaN L133.1081,NaN L133.4459,NaN L133.7838,NaN L134.1216,NaN L134.4595,NaN L134.7973,NaN L135.1351,NaN L135.473,NaN L135.8108,NaN L136.1487,NaN L136.4865,NaN L136.8243,NaN L137.1622,NaN L137.5,NaN L137.8378,NaN L138.1757,NaN L138.5135,NaN L138.8513,NaN L139.1892,NaN L139.527,NaN L139.8649,NaN L140.2027,NaN L140.5405,NaN L140.8784,NaN L141.2162,NaN L141.5541,NaN L141.8919,NaN L142.2297,NaN L142.5676,NaN L142.9054,NaN L143.2432,NaN L143.5811,NaN L143.9189,NaN L144.2568,NaN L144.5946,NaN L144.9324,NaN L145.2703,NaN L145.6081,NaN L145.9459,NaN L146.2838,NaN L146.6216,NaN L146.9595,NaN L147.2973,NaN L147.6351,NaN L147.973,NaN L148.3108,NaN L148.6487,NaN L148.9865,NaN L149.3243,NaN L149.6622,NaN L150,NaN L150.3378,NaN L150.6757,NaN L151.0135,NaN L151.3513,NaN L151.6892,NaN L152.027,NaN L152.3649,NaN L152.7027,NaN L153.0405,NaN L153.3784,NaN L153.7162,NaN L154.0541,NaN L154.3919,NaN L154.7297,NaN L155.0676,NaN L155.4054,NaN L155.7432,NaN L156.0811,NaN L156.4189,NaN L156.7568,NaN L157.0946,NaN L157.4324,NaN L157.7703,NaN L158.1081,NaN L158.4459,NaN L158.7838,NaN L159.1216,NaN L159.4595,NaN L159.7973,NaN L160.1351,NaN L160.473,NaN L160.8108,NaN L161.1487,NaN L161.4865,NaN L161.8243,NaN L162.1622,NaN L162.5,NaN L162.8378,NaN L163.1757,NaN L163.5135,NaN L163.8513,NaN L164.1892,NaN L164.527,NaN L164.8649,NaN L165.2027,NaN L165.5405,NaN L165.8784,NaN L166.2162,NaN L166.5541,NaN L166.8919,NaN L167.2297,NaN L167.5676,NaN L167.9054,NaN L168.2432,NaN L168.5811,NaN L168.9189,NaN L169.2568,NaN L169.5946,NaN L169.9324,NaN L170.2703,NaN L170.6081,NaN L170.9459,NaN L171.2838,NaN L171.6216,NaN L171.9595,NaN L172.2973,NaN L172.6351,NaN L172.973,NaN L173.3108,NaN L173.6487,NaN L173.9865,NaN L174.3243,NaN L174.6622,NaN L175,NaN L175.3378,NaN L175.6757,NaN L176.0135,NaN L176.3513,NaN L176.6892,NaN L177.027,NaN L177.3649,NaN L177.7027,NaN L178.0405,NaN L178.3784,NaN L178.7162,NaN L179.0541,NaN L179.3919,NaN L179.7297,NaN L180.0676,NaN L180.4054,NaN L180.7432,NaN L181.0811,NaN L181.4189,NaN L181.7568,NaN L182.0946,NaN L182.4324,NaN L182.7703,NaN L183.1081,NaN L183.4459,NaN L183.7838,NaN L184.1216,NaN L184.4595,NaN L184.7973,NaN L185.1351,NaN L185.473,NaN L185.8108,NaN L186.1487,NaN L186.4865,NaN L186.8243,NaN L187.1622,NaN L187.5,NaN L187.8378,NaN L188.1757,NaN L188.5135,NaN L188.8513,NaN L189.1892,NaN L189.527,NaN L189.8649,NaN L190.2027,NaN L190.5405,NaN L190.8784,NaN L191.2162,NaN L191.5541,NaN L191.8919,NaN L192.2297,NaN L192.5676,NaN L192.9054,NaN L193.2432,NaN L193.5811,NaN L193.9189,NaN L194.2568,NaN L194.5946,NaN L194.9324,NaN L195.2703,NaN L195.6081,NaN L195.9459,NaN L196.2838,NaN L196.6216,NaN L196.9595,NaN L197.2973,NaN L197.6351,NaN L197.973,NaN L198.3108,NaN L198.6487,NaN L198.9865,NaN L199.3243,NaN L199.6622,NaN L200,NaN " stroke="blue" fill="none" />
<text x="10" y="1360" font-family="Arial" font-size="12" fill="black">Epsilon</text>
<path d="M10,4.000002E+09 L210,4.000002E+09" stroke="gray" />
<text x="5" y="4.000002E+09" font-family="Arial" font-size="10" fill="black">0</text>
<text x="5" y="1380" font-family="Arial" font-size="10" fill="black">0.2</text>
<text x="5" y="1580" font-family="Arial" font-size="10" fill="black">0.2</text>
<path d="M0.3378378,NaN L0.6756757,NaN L1.013513,NaN L1.351351,NaN L1.689189,NaN L2.027027,NaN L2.364865,NaN L2.702703,NaN L3.040541,NaN L3.378378,NaN L3.716216,NaN L4.054054,NaN L4.391892,NaN L4.72973,NaN L5.067567,NaN L5.405406,NaN L5.743243,NaN L6.081081,NaN L6.418919,NaN L6.756756,NaN L7.094595,NaN L7.432433,NaN L7.77027,NaN L8.108108,NaN L8.445946,NaN L8.783784,NaN L9.121621,NaN L9.459459,NaN L9.797297,NaN L10.13513,NaN L10.47297,NaN L10.81081,NaN L11.14865,NaN L11.48649,NaN L11.82432,NaN L12.16216,NaN L12.5,NaN L12.83784,NaN L13.17568,NaN L13.51351,NaN L13.85135,NaN L14.18919,NaN L14.52703,NaN L14.86487,NaN L15.2027,NaN L15.54054,NaN L15.87838,NaN L16.21622,NaN L16.55405,NaN L16.89189,NaN L17.22973,NaN L17.56757,NaN L17.90541,NaN L18.24324,NaN L18.58108,NaN L18.91892,NaN L19.25676,NaN L19.59459,NaN L19.93243,NaN L20.27027,NaN L20.60811,NaN L20.94595,NaN L21.28378,NaN L21.62162,NaN L21.95946,NaN L22.2973,NaN L22.63514,NaN L22.97297,NaN L23.31081,NaN L23.64865,NaN L23.98649,NaN L24.32433,NaN L24.66216,NaN L25,NaN L25.33784,NaN L25.67567,NaN L26.01351,NaN L26.35135,NaN L26.68919,NaN L27.02703,NaN L27.36486,NaN L27.7027,NaN L28.04054,NaN L28.37838,NaN L28.71622,NaN L29.05405,NaN L29.39189,NaN L29.72973,NaN L30.06757,NaN L30.40541,NaN L30.74324,NaN L31.08108,NaN L31.41892,NaN L31.75676,NaN L32.09459,NaN L32.43243,NaN L32.77027,NaN L33.10811,NaN L33.44595,NaN L33.78378,NaN L34.12162,NaN L34.45946,NaN L34.79729,NaN L35.13514,NaN L35.47297,NaN L35.81081,NaN L36.14865,NaN L36.48648,NaN L36.82433,NaN L37.16216,NaN L37.5,NaN L37.83784,NaN L38.17567,NaN L38.51352,NaN L38.85135,NaN L39.18919,NaN L39.52703,NaN L39.86486,NaN L40.20271,NaN L40.54054,NaN L40.87838,NaN L41.21622,NaN L41.55405,NaN L41.89189,NaN L42.22973,NaN L42.56757,NaN L42.90541,NaN L43.24324,NaN L43.58108,NaN L43.91892,NaN L44.25676,NaN L44.59459,NaN L44.93243,NaN L45.27027,NaN L45.60811,NaN L45.94595,NaN L46.28378,NaN L46.62162,NaN L46.95946,NaN L47.29729,NaN L47.63514,NaN L47.97297,NaN L48.31081,NaN L48.64865,NaN L48.98648,NaN L49.32433,NaN L49.66216,NaN L50,NaN L50.33784,NaN L50.67568,NaN L51.01351,NaN L51.35135,NaN L51.68919,NaN L52.02703,NaN L52.36486,NaN L52.7027,NaN L53.04054,NaN L53.37838,NaN L53.71622,NaN L54.05405,NaN L54.39189,NaN L54.72973,NaN L55.06757,NaN L55.40541,NaN L55.74324,NaN L56.08108,NaN L56.41892,NaN L56.75676,NaN L57.09459,NaN L57.43243,NaN L57.77027,NaN L58.10811,NaN L58.44595,NaN L58.78378,NaN L59.12162,NaN L59.45946,NaN L59.7973,NaN L60.13514,NaN L60.47297,NaN L60.81081,NaN L61.14865,NaN L61.48649,NaN L61.82432,NaN L62.16216,NaN L62.5,NaN L62.83784,NaN L63.17568,NaN L63.51351,NaN L63.85135,NaN L64.18919,NaN L64.52703,NaN L64.86486,NaN L65.2027,NaN L65.54054,NaN L65.87838,NaN L66.21622,NaN L66.55405,NaN L66.89189,NaN L67.22973,NaN L67.56757,NaN L67.90541,NaN L68.24324,NaN L68.58108,NaN L68.91892,NaN L69.25676,NaN L69.59459,NaN L69.93243,NaN L70.27027,NaN L70.60811,NaN L70.94595,NaN L71.28378,NaN L71.62162,NaN L71.95946,NaN L72.2973,NaN L72.63514,NaN L72.97297,NaN L73.31081,NaN L73.64865,NaN L73.98649,NaN L74.32433,NaN L74.66216,NaN L75,NaN L75.33784,NaN L75.67567,NaN L76.01351,NaN L76.35135,NaN L76.68919,NaN L77.02703,NaN L77.36486,NaN L77.7027,NaN L78.04054,NaN L78.37838,NaN L78.71622,NaN L79.05405,NaN L79.39189,NaN L79.72973,NaN L80.06757,NaN L80.40541,NaN L80.74324,NaN L81.08108,NaN L81.41892,NaN L81.75676,NaN L82.09459,NaN L82.43243,NaN L82.77027,NaN L83.10811,NaN L83.44595,NaN L83.78378,NaN L84.12162,NaN L84.45946,NaN L84.7973,NaN L85.13514,NaN L85.47297,NaN L85.81081,NaN L86.14865,NaN L86.48649,NaN L86.82433,NaN L87.16216,NaN L87.5,NaN L87.83784,NaN L88.17567,NaN L88.51351,NaN L88.85135,NaN L89.18919,NaN L89.52703,NaN L89.86486,NaN L90.2027,NaN L90.54054,NaN L90.87838,NaN L91.21622,NaN L91.55405,NaN L91.89189,NaN L92.22973,NaN L92.56757,NaN L92.90541,NaN L93.24324,NaN L93.58108,NaN L93.91892,NaN L94.25676,NaN L94.59459,NaN L94.93243,NaN L95.27027,NaN L95.60811,NaN L95.94595,NaN L96.28378,NaN L96.62162,NaN L96.95946,NaN L97.2973,NaN L97.63514,NaN L97.97297,NaN L98.31081,NaN L98.64865,NaN L98.98649,NaN L99.32433,NaN L99.66216,NaN L100,NaN L100.3378,NaN L100.6757,NaN L101.0135,NaN L101.3514,NaN L101.6892,NaN L102.027,NaN L102.3649,NaN L102.7027,NaN L103.0405,NaN L103.3784,NaN L103.7162,NaN L104.0541,NaN L104.3919,NaN L104.7297,NaN L105.0676,NaN L105.4054,NaN L105.7432,NaN L106.0811,NaN L106.4189,NaN L106.7568,NaN L107.0946,NaN L107.4324,NaN L107.7703,NaN L108.1081,NaN L108.4459,NaN L108.7838,NaN L109.1216,NaN L109.4595,NaN L109.7973,NaN L110.1351,NaN L110.473,NaN L110.8108,NaN L111.1486,NaN L111.4865,NaN L111.8243,NaN L112.1622,NaN L112.5,NaN L112.8378,NaN L113.1757,NaN L113.5135,NaN L113.8514,NaN L114.1892,NaN L114.527,NaN L114.8649,NaN L115.2027,NaN L115.5405,NaN L115.8784,NaN L116.2162,NaN L116.5541,NaN L116.8919,NaN L117.2297,NaN L117.5676,NaN L117.9054,NaN L118.2432,NaN L118.5811,NaN L118.9189,NaN L119.2568,NaN L119.5946,NaN L119.9324,NaN L120.2703,NaN L120.6081,NaN L120.9459,NaN L121.2838,NaN L121.6216,NaN L121.9595,NaN L122.2973,NaN L122.6351,NaN L122.973,NaN L123.3108,NaN L123.6486,NaN L123.9865,NaN L124.3243,NaN L124.6622,NaN L125,NaN L125.3378,NaN L125.6757,NaN L126.0135,NaN L126.3514,NaN L126.6892,NaN L127.027,NaN L127.3649,NaN L127.7027,NaN L128.0405,NaN L128.3784,NaN L128.7162,NaN L129.0541,NaN L129.3919,NaN L129.7297,NaN L130.0676,NaN L130.4054,NaN L130.7432,NaN L131.0811,NaN L131.4189,NaN L131.7568,NaN L132.0946,NaN L132.4324,NaN L132.7703,NaN L133.1081,NaN L133.4459,NaN L133.7838,NaN L134.1216,NaN L134.4595,NaN L134.7973,NaN L135.1351,NaN L135.473,NaN L135.8108,NaN L136.1487,NaN L136.4865,NaN L136.8243,NaN L137.1622,NaN L137.5,NaN L137.8378,NaN L138.1757,NaN L138.5135,NaN L138.8513,NaN L139.1892,NaN L139.527,NaN L139.8649,NaN L140.2027,NaN L140.5405,NaN L140.8784,NaN L141.2162,NaN L141.5541,NaN L141.8919,NaN L142.2297,NaN L142.5676,NaN L142.9054,NaN L143.2432,NaN L143.5811,NaN L143.9189,NaN L144.2568,NaN L144.5946,NaN L144.9324,NaN L145.2703,NaN L145.6081,NaN L145.9459,NaN L146.2838,NaN L146.6216,NaN L146.9595,NaN L147.2973,NaN L147.6351,NaN L147.973,NaN L148.3108,NaN L148.6487,NaN L148.9865,NaN L149.3243,NaN L149.6622,NaN L150,NaN L150.3378,NaN L150.6757,NaN L151.0135,NaN L151.3513,NaN L151.6892,NaN L152.027,NaN L152.3649,NaN L152.7027,NaN L153.0405,NaN L153.3784,NaN L153.7162,NaN L154.0541,NaN L154.3919,NaN L154.7297,NaN L155.0676,NaN L155.4054,NaN L155.7432,NaN L156.0811,NaN L156.4189,NaN L156.7568,NaN L157.0946,NaN L157.4324,NaN L157.7703,NaN L158.1081,NaN L158.4459,NaN L158.7838,NaN L159.1216,NaN L159.4595,NaN L159.7973,NaN L160.1351,NaN L160.473,NaN L160.8108,NaN L161.1487,NaN L161.4865,NaN L161.8243,NaN L162.1622,NaN L162.5,NaN L162.8378,NaN L163.1757,NaN L163.5135,NaN L163.8513,NaN L164.1892,NaN L164.527,NaN L164.8649,NaN L165.2027,NaN L165.5405,NaN L165.8784,NaN L166.2162,NaN L166.5541,NaN L166.8919,NaN L167.2297,NaN L167.5676,NaN L167.9054,NaN L168.2432,NaN L168.5811,NaN L168.9189,NaN L169.2568,NaN L169.5946,NaN L169.9324,NaN L170.2703,NaN L170.6081,NaN L170.9459,NaN L171.2838,NaN L171.6216,NaN L171.9595,NaN L172.2973,NaN L172.6351,NaN L172.973,NaN L173.3108,NaN L173.6487,NaN L173.9865,NaN L174.3243,NaN L174.6622,NaN L175,NaN L175.3378,NaN L175.6757,NaN L176.0135,NaN L176.3513,NaN L176.6892,NaN L177.027,NaN L177.3649,NaN L177.7027,NaN L178.0405,NaN L178.3784,NaN L178.7162,NaN L179.0541,NaN L179.3919,NaN L179.7297,NaN L180.0676,NaN L180.4054,NaN L180.7432,NaN L181.0811,NaN L181.4189,NaN L181.7568,NaN L182.0946,NaN L182.4324,NaN L182.7703,NaN L183.1081,NaN L183.4459,NaN L183.7838,NaN L184.1216,NaN L184.4595,NaN L184.7973,NaN L185.1351,NaN L185.473,NaN L185.8108,NaN L186.1487,NaN L186.4865,NaN L186.8243,NaN L187.1622,NaN L187.5,NaN L187.8378,NaN L188.1757,NaN L188.5135,NaN L188.8513,NaN L189.1892,NaN L189.527,NaN L189.8649,NaN L190.2027,NaN L190.5405,NaN L190.8784,NaN L191.2162,NaN L191.5541,NaN L191.8919,NaN L192.2297,NaN L192.5676,NaN L192.9054,NaN L193.2432,NaN L193.5811,NaN L193.9189,NaN L194.2568,NaN L194.5946,NaN L194.9324,NaN L195.2703,NaN L195.6081,NaN L195.9459,NaN L196.2838,NaN L196.6216,NaN L196.9595,NaN L197.2973,NaN L197.6351,NaN L197.973,NaN L198.3108,NaN L198.6487,NaN L198.9865,NaN L199.3243,NaN L199.6622,NaN L200,NaN " stroke="blue" fill="none" />
</svg>
