<svg width="800" height="600" xmlns="http://www.w3.org/2000/svg">
<text x="10" y="20" font-family="Arial" font-size="16" fill="black"> [DeepUnity] Training Session</text>
<text x="10" y="40" font-family="Arial" font-size="12" fill="black">Start: 3:36:44 PM, Wednesday, August 30, 2023</text>
<text x="10" y="60" font-family="Arial" font-size="12" fill="black">End: 3:36:57 PM, Wednesday, August 30, 2023</text>
<text x="10" y="80" font-family="Arial" font-size="12" fill="black">Real Training Time: 0 hrs : 0 min : 13 sec</text>
<text x="10" y="100" font-family="Arial" font-size="12" fill="black">Training Time: 0 hrs : 0 min : 12 sec</text>
<text x="10" y="120" font-family="Arial" font-size="12" fill="black">Iterations: 0</text>
<text x="10" y="140" font-family="Arial" font-size="12" fill="black">Parallel Agents: 0</text>
<text x="10" y="160" font-family="Arial" font-size="12" fill="black">Episode Reward</text>
<path d="M10,479.1598 L210,479.1598" stroke="gray" />
<text x="5" y="484.1598" font-family="Arial" font-size="10" fill="black">0</text>
<text x="5" y="180" font-family="Arial" font-size="10" fill="black">35.60001</text>
<text x="5" y="380" font-family="Arial" font-size="10" fill="black">11.80001</text>
<path d="M22.22222,380 L44.44445,372.437 L66.66667,369.9159 L88.88889,368.2353 L111.1111,359.8318 L133.3333,333.7813 L155.5556,316.1342 L177.7778,302.6888 L200,180 " stroke="blue" fill="none" />
<text x="10" y="400" font-family="Arial" font-size="12" fill="black">Episode Length</text>
<path d="M10,729.2437 L210,729.2437" stroke="gray" />
<text x="5" y="734.2437" font-family="Arial" font-size="10" fill="black">0</text>
<text x="5" y="420" font-family="Arial" font-size="10" fill="black">368</text>
<text x="5" y="620" font-family="Arial" font-size="10" fill="black">130</text>
<path d="M22.22222,620 L44.44445,612.437 L66.66667,609.916 L88.88889,608.2353 L111.1111,599.8319 L133.3333,573.7815 L155.5556,556.1345 L177.7778,542.6891 L200,420 " stroke="blue" fill="none" />
</svg>
