<svg width="800" height="600" xmlns="http://www.w3.org/2000/svg">
<text x="10" y="20" font-family="Arial" font-size="16" fill="black"> [DeepUnity] Training Session</text>
<text x="10" y="40" font-family="Arial" font-size="12" fill="black">Started at: 4:12:49 PM, Wednesday, August 30, 2023</text>
<text x="10" y="60" font-family="Arial" font-size="12" fill="black">Finished at: 4:39:42 PM, Wednesday, August 30, 2023</text>
<text x="10" y="80" font-family="Arial" font-size="12" fill="black">Real Training Time: 0 hrs : 26 min : 53 sec</text>
<text x="10" y="100" font-family="Arial" font-size="12" fill="black">Training Time: 0.2125 hrs : 12.75 min : 45 sec</text>
<text x="10" y="120" font-family="Arial" font-size="12" fill="black">Iterations: 9</text>
<text x="10" y="140" font-family="Arial" font-size="12" fill="black">Parallel Agents: 7</text>
<text x="10" y="160" font-family="Arial" font-size="12" fill="black">Episode Reward</text>
<path d="M10,389.3407 L210,389.3407" stroke="gray" />
<text x="5" y="394.3407" font-family="Arial" font-size="10" fill="black">0</text>
<text x="5" y="180" font-family="Arial" font-size="10" fill="black">239.8055</text>
<text x="5" y="380" font-family="Arial" font-size="10" fill="black">10.70001</text>
<path d="M0,380 L50,377.3811 L100,376.0717 L100.3906,289.9115 L100.7813,311.5606 L101.1719,300.9107 L101.5625,337.3998 L101.9531,322.9089 L102.3438,334.9556 L102.7344,326.0515 L103.125,272.8886 L103.5156,350.9305 L103.9063,292.0066 L104.2969,311.386 L104.6875,342.6375 L105.0781,300.8234 L105.4688,326.4007 L105.8594,332.3368 L106.25,338.0109 L106.6406,277.0791 L107.0313,339.8441 L107.4219,294.0144 L107.8125,354.2477 L108.2031,339.4949 L108.5938,334.9556 L108.9844,308.3307 L109.375,316.3618 L109.7656,306.0611 L110.1563,334.6064 L110.5469,259.3569 L110.9375,326.4007 L111.3281,292.8795 L111.7188,310.4258 L112.1094,328.9323 L112.5,311.8225 L112.8906,290.7845 L113.2813,317.8458 L113.6719,338.7966 L114.0625,346.3039 L114.4531,356.692 L114.8438,314.8778 L115.2344,244.9522 L115.625,290.4353 L116.0156,321.163 L116.4063,321.4249 L116.7969,313.4811 L117.1875,349.2719 L117.5781,323.52 L117.9688,331.3765 L118.3594,295.5857 L118.75,322.9962 L119.1406,327.1864 L119.5313,344.4707 L119.9219,299.4267 L120.3125,338.7093 L120.7031,306.1483 L121.0938,331.813 L121.4844,324.0438 L121.875,342.1138 L122.2656,332.5114 L122.6563,334.6937 L123.0469,342.463 L123.4375,354.2477 L123.8281,305.0135 L124.2188,318.5442 L124.6094,305.45 L125,371.4449 L125.3906,321.7741 L125.7813,307.1959 L126.1719,313.0446 L126.5625,350.8432 L126.9531,327.2737 L127.3438,329.456 L127.7344,332.424 L128.125,340.6298 L128.9063,309.0291 L129.6875,316.2745 L130.4688,224.9602 L131.25,320.3774 L132.0313,279.9599 L132.8125,311.5606 L133.5938,180 L134.375,332.2495 L135.1563,263.0236 L135.9375,334.2572 L136.7188,316.6237 L137.5,296.7205 L138.2813,318.5442 L139.0625,275.1585 L139.8438,292.1812 L140.625,313.5684 L141.4063,338.8839 L142.1875,314.354 L142.9688,345.7802 L143.75,346.7404 L144.5313,334.5191 L145.3125,308.8545 L146.0938,318.8061 L146.875,326.6626 L147.6563,356.1682 L148.4375,332.2495 L149.2188,320.2028 L150,375.8971 L150.7813,324.3929 L151.5625,320.9012 L152.3438,313.2192 L153.125,320.8138 L153.9063,282.4042 L154.6875,307.3705 L155.4688,343.2486 L156.25,320.2901 L157.0313,356.2555 L157.8125,336.4396 L158.5938,340.8916 L159.375,316.3618 L160.1563,314.354 L160.9375,319.4171 L161.7188,346.7404 L162.5,353.3748 L163.2813,338.7093 L164.0625,321.0757 L164.8438,345.7802 L165.625,333.9081 L166.4063,327.972 L167.1875,290.5226 L167.9688,343.5978 L168.75,341.5027 L169.5313,326.0515 L170.3125,342.463 L171.0938,331.813 L171.875,347.0896 L172.6563,336.0904 L173.4375,293.4033 L174.2188,321.5995 L175,343.1613 L175.7813,335.2175 L176.5625,330.5036 L177.3438,342.6375 L178.125,309.5528 L178.9063,333.6462 L179.6875,343.5105 L180.4688,308.8545 L181.25,336.1777 L182.0313,317.0602 L182.8125,295.4111 L183.5938,310.5131 L184.375,348.8354 L185.1563,310.1639 L185.9375,345.9547 L186.7188,304.0533 L187.5,324.7421 L188.2813,341.59 L189.0625,329.7179 L189.8438,336.265 L190.625,333.2097 L191.4063,322.647 L192.1875,314.7032 L192.9688,305.1881 L193.75,297.4189 L194.5313,353.4621 L195.3125,319.1552 L196.0938,332.3368 L196.875,309.3783 L197.6563,327.0991 L198.4375,292.1812 L199.2188,347.0896 L200,373.1036 " stroke="blue" fill="none" />
<text x="10" y="400" font-family="Arial" font-size="12" fill="black">Episode Length</text>
<path d="M10,630.3885 L210,630.3885" stroke="gray" />
<text x="5" y="635.3885" font-family="Arial" font-size="10" fill="black">0</text>
<text x="5" y="420" font-family="Arial" font-size="10" fill="black">2410</text>
<text x="5" y="620" font-family="Arial" font-size="10" fill="black">119</text>
<path d="M0,620 L50,617.381 L100,616.0716 L100.3906,529.9083 L100.7813,551.5583 L101.1719,540.9079 L101.5625,577.3985 L101.9531,562.907 L102.3438,574.9542 L102.7344,566.0497 L103.125,512.8852 L103.5156,590.9297 L103.9063,532.0035 L104.2969,551.3837 L104.6875,582.6364 L105.0781,540.8206 L105.4688,566.3989 L105.8594,572.3352 L106.25,578.0096 L106.6406,517.0755 L107.0313,579.8428 L107.4219,534.0114 L107.8125,594.2471 L108.2031,579.4937 L108.5938,574.9542 L108.9844,548.3282 L109.375,556.3597 L109.7656,546.0585 L110.1563,574.605 L110.5469,499.354 L110.9375,566.3989 L111.3281,532.8765 L111.7188,550.4234 L112.1094,568.9306 L112.5,551.8202 L112.8906,530.7813 L113.2813,557.8438 L113.6719,578.7953 L114.0625,586.3029 L114.4531,596.6914 L114.8438,554.8756 L115.2344,484.9498 L115.625,530.4321 L116.0156,561.1611 L116.4063,561.423 L116.7969,553.4788 L117.1875,589.2711 L117.5781,563.5181 L117.9688,571.3749 L118.3594,535.5827 L118.75,562.9943 L119.1406,567.1846 L119.5313,584.4697 L119.9219,539.4238 L120.3125,578.708 L120.7031,546.1458 L121.0938,571.8115 L121.4844,564.0419 L121.875,582.1126 L122.2656,572.5098 L122.6563,574.6923 L123.0469,582.4618 L123.4375,594.2471 L123.8281,545.0109 L124.2188,558.5421 L124.6094,545.4474 L125,611.4448 L125.3906,561.7722 L125.7813,547.1934 L126.1719,553.0424 L126.5625,590.8424 L126.9531,567.2719 L127.3438,569.4544 L127.7344,572.4225 L128.125,580.6285 L128.9063,549.0266 L129.6875,556.2724 L130.4688,464.9585 L131.25,560.3754 L132.0313,519.9564 L132.8125,551.5583 L133.5938,420 L134.375,572.2479 L135.1563,503.0205 L135.9375,574.2558 L136.7188,556.6216 L137.5,536.7176 L138.2813,558.5421 L139.0625,515.155 L139.8438,532.1781 L140.625,553.5661 L141.4063,578.8826 L142.1875,554.3518 L142.9688,585.7791 L143.75,586.7394 L144.5313,574.5177 L145.3125,548.8521 L146.0938,558.804 L146.875,566.6608 L147.6563,596.1676 L148.4375,572.2479 L149.2188,560.2008 L150,615.897 L150.7813,564.3911 L151.5625,560.8992 L152.3438,553.2169 L153.125,560.8119 L153.9063,522.4007 L154.6875,547.368 L155.4688,583.2475 L156.25,560.2881 L157.0313,596.2549 L157.8125,576.4382 L158.5938,580.8904 L159.375,556.3597 L160.1563,554.3518 L160.9375,559.4151 L161.7188,586.7394 L162.5,593.3741 L163.2813,578.708 L164.0625,561.0738 L164.8438,585.7791 L165.625,573.9066 L166.4063,567.9703 L167.1875,530.5194 L167.9688,583.5967 L168.75,581.5015 L169.5313,566.0497 L170.3125,582.4618 L171.0938,571.8115 L171.875,587.0886 L172.6563,576.0891 L173.4375,533.4003 L174.2188,561.5975 L175,583.1602 L175.7813,575.2161 L176.5625,570.502 L177.3438,582.6364 L178.125,549.5504 L178.9063,573.6447 L179.6875,583.5094 L180.4688,548.8521 L181.25,576.1763 L182.0313,557.058 L182.8125,535.4081 L183.5938,550.5107 L184.375,588.8346 L185.1563,550.1615 L185.9375,585.9537 L186.7188,544.0507 L187.5,564.7403 L188.2813,581.5888 L189.0625,569.7163 L189.8438,576.2636 L190.625,573.2082 L191.4063,562.6451 L192.1875,554.701 L192.9688,545.1855 L193.75,537.416 L194.5313,593.4614 L195.3125,559.1532 L196.0938,572.3352 L196.875,549.3758 L197.6563,567.0974 L198.4375,532.1781 L199.2188,587.0886 L200,613.1035 " stroke="blue" fill="none" />
<text x="10" y="640" font-family="Arial" font-size="12" fill="black">Policy Loss</text>
<path d="M10,944.5099 L210,944.5099" stroke="gray" />
<text x="5" y="949.5099" font-family="Arial" font-size="10" fill="black">0</text>
<text x="5" y="660" font-family="Arial" font-size="10" fill="black">0.005294051</text>
<text x="5" y="860" font-family="Arial" font-size="10" fill="black">0.001572529</text>
<path d="M0,774.2172 L50,778.3687 L100,742.0029 L100.3906,775.2221 L100.7813,777.8195 L101.1719,754.5845 L101.5625,735.9325 L101.9531,794.7693 L102.3438,762.9998 L102.7344,732.6319 L103.125,782.1216 L103.5156,791.1017 L103.9063,728.2823 L104.2969,830.4664 L104.6875,839.47 L105.0781,769.0016 L105.4688,815.0914 L105.8594,806.8821 L106.25,823.1761 L106.6406,758.6948 L107.0313,763.3697 L107.4219,816.5897 L107.8125,792.11 L108.2031,739.6357 L108.5938,797.8943 L108.9844,805.6118 L109.375,796.9854 L109.7656,721.2671 L110.1563,762.8118 L110.5469,749.3854 L110.9375,792.2669 L111.3281,818.1193 L111.7188,774.739 L112.1094,772.5801 L112.5,821.7801 L112.8906,784.0912 L113.2813,744.5013 L113.6719,801.6352 L114.0625,747.6113 L114.4531,818.3542 L114.8438,775.6697 L115.2344,780.5566 L115.625,744.1928 L116.0156,724.4167 L116.4063,801.539 L116.7969,791.812 L117.1875,839.9878 L117.5781,809.6201 L117.9688,803.672 L118.3594,789.3732 L118.75,791.3099 L119.1406,758.5889 L119.5313,840.7108 L119.9219,791.3768 L120.3125,777.5904 L120.7031,779.8933 L121.0938,733.8924 L121.4844,782.783 L121.875,767.8569 L122.2656,810.8613 L122.6563,798.8385 L123.0469,810.374 L123.4375,730.1843 L123.8281,767.5547 L124.2188,760.3685 L124.6094,795.5003 L125,812.3315 L125.3906,860 L125.7813,775.151 L126.1719,805.1655 L126.5625,791.3599 L126.9531,774.8226 L127.3438,739.2722 L127.7344,722.5124 L128.125,717.0566 L128.5156,799.5818 L128.9063,805.4364 L129.2969,803.5073 L129.6875,840.6216 L130.0781,795.2567 L130.4688,800.9276 L130.8594,763.1572 L131.25,784.9714 L131.6406,660 L132.0313,769.0806 L132.4219,777.8331 L132.8125,794.0655 L133.2031,764.7441 L133.5938,724.3884 L133.9844,767.0118 L134.375,799.7003 L134.7656,810.4255 L135.1563,751.6049 L135.5469,775.5629 L135.9375,774.5412 L136.3281,826.5216 L136.7188,788.6309 L137.1094,838.631 L137.5,692.0751 L137.8906,793.9309 L138.2813,816.1852 L138.6719,792.8471 L139.0625,769.256 L139.4531,785.8248 L139.8438,815.4936 L140.2344,770.3087 L140.625,780.9716 L141.0156,705.3124 L141.4063,746.0591 L141.7969,743.7313 L142.1875,791.3644 L142.5781,831.9297 L142.9688,790.4052 L143.3594,787.995 L143.75,810.3491 L144.1406,742.0629 L144.5313,765.0443 L144.9219,776.4543 L145.3125,801.5325 L145.7031,790.0974 L146.0938,836.972 L146.4844,817.0597 L146.875,804.9476 L147.2656,778.9584 L147.6563,820.2924 L148.0469,757.8539 L148.4375,729.3564 L148.8281,789.8102 L149.2188,778.2676 L149.6094,811.2164 L150,780.7177 L150.3906,782.4775 L150.7813,671.4095 L151.1719,819.1575 L151.5625,786.4727 L151.9531,751.3015 L152.3438,804.0994 L152.7344,820.751 L153.125,816.2491 L153.5156,788.9781 L153.9063,783.1304 L154.2969,751.6274 L154.6875,783.0481 L155.0781,772.0751 L155.4688,763.7068 L155.8594,782.6752 L156.25,781.9934 L156.6406,769.5527 L157.0313,788.699 L157.4219,748.2907 L157.8125,769.9619 L158.2031,823.8069 L158.5938,771.2338 L158.9844,801.7563 L159.375,779.7377 L159.7656,790.7148 L160.1563,781.827 L160.5469,812.1923 L160.9375,839.6908 L161.3281,810.5568 L161.7188,771.848 L162.1094,813.7969 L162.5,772.8616 L162.8906,763.7599 L163.2813,806.1791 L163.6719,789.3658 L164.0625,785.138 L164.4531,786.9176 L164.8438,756.4671 L165.2344,790.881 L165.625,785.6934 L166.0156,767.014 L166.4063,788.2651 L166.7969,800.0382 L167.1875,816.8248 L167.5781,821.2231 L167.9688,779.6123 L168.3594,718.9296 L168.75,822.7228 L169.1406,802.8292 L169.5313,807.1157 L169.9219,737.0026 L170.3125,836.0057 L170.7031,823.6149 L171.0938,805.5963 L171.4844,783.7958 L171.875,787.1804 L172.2656,735.5452 L172.6563,754.7145 L173.0469,794.6528 L173.4375,823.3469 L173.8281,821.3024 L174.2188,809.096 L174.6094,801.4911 L175,803.62 L175.3906,784.7025 L175.7813,824.0866 L176.1719,752.4996 L176.5625,775.7566 L176.9531,769.5698 L177.3438,774.8904 L177.7344,787.4053 L178.125,743.4968 L178.5156,756.3121 L178.9063,843.4738 L179.2969,802.6807 L179.6875,789.9661 L180.0781,750.9397 L180.4688,811.0748 L180.8594,786.8302 L181.25,755.596 L181.6406,805.4716 L182.0313,780.6448 L182.4219,798.2581 L182.8125,792.8763 L183.2031,774.0011 L183.5938,768.6765 L183.9844,805.6429 L184.375,822.7562 L184.7656,784.5833 L185.1563,775.9178 L185.5469,776.2173 L185.9375,744.915 L186.3281,835.6202 L186.7188,787.5201 L187.1094,835.116 L187.5,766.2971 L187.8906,783.5582 L188.2813,794.6777 L188.6719,794.9142 L189.0625,807.6473 L189.4531,764.52 L189.8438,791.561 L190.2344,756.7213 L190.625,708.1411 L191.0156,789.3957 L191.4063,724.7085 L191.7969,753.4343 L192.1875,723.2575 L192.5781,822.5033 L192.9688,783.0674 L193.3594,774.1059 L193.75,800.6724 L194.1406,799.4272 L194.5313,791.403 L194.9219,766.9842 L195.3125,794.9673 L195.7031,776.2903 L196.0938,784.2012 L196.4844,760.6359 L196.875,801.8998 L197.6563,823.4228 L198.4375,821.9035 L199.2188,765.4534 L200,799.6589 " stroke="blue" fill="none" />
<text x="10" y="880" font-family="Arial" font-size="12" fill="black">Value Loss</text>
<path d="M10,1101.191 L210,1101.191" stroke="gray" />
<text x="5" y="1106.191" font-family="Arial" font-size="10" fill="black">0</text>
<text x="5" y="900" font-family="Arial" font-size="10" fill="black">0.3594272</text>
<text x="5" y="1100" font-family="Arial" font-size="10" fill="black">0.002128381</text>
<path d="M0,1083.625 L50,1087.489 L100,1089.537 L100.3906,1082.753 L100.7813,1073.209 L101.1719,1094.067 L101.5625,1066.198 L101.9531,1096.222 L102.3438,1077.386 L102.7344,1096.865 L103.125,1088.287 L103.5156,1057.987 L103.9063,1079.028 L104.2969,1079.022 L104.6875,1075.373 L105.0781,1088.342 L105.4688,1080.245 L105.8594,1094.186 L106.25,1069.657 L106.6406,1083.599 L107.0313,1077.625 L107.4219,1087.25 L107.8125,1079.309 L108.2031,1088.801 L108.5938,1080.558 L108.9844,1089.831 L109.375,1096.434 L109.7656,1061.501 L110.1563,1083.07 L110.5469,1093.426 L110.9375,1081.75 L111.3281,1097.212 L111.7188,1084.431 L112.1094,1098.325 L112.5,1088.462 L112.8906,1079.29 L113.2813,1079.545 L113.6719,1089.05 L114.0625,1074.549 L114.4531,1091.052 L114.8438,1088.413 L115.2344,1091.822 L115.625,1097.374 L116.0156,1094.605 L116.4063,1091.849 L116.7969,1097.536 L117.1875,1082.766 L117.5781,1098.381 L117.9688,1093.492 L118.3594,1098.726 L118.75,1079.15 L119.1406,1082.091 L119.5313,920.679 L119.9219,1089.106 L120.3125,1086.436 L120.7031,1091.831 L121.0938,1090.21 L121.4844,1092.827 L121.875,1097.768 L122.2656,1034.879 L122.6563,1096.686 L123.0469,1095.239 L123.4375,1088.349 L123.8281,1097.987 L124.2188,1097.837 L124.6094,1099.017 L125,1092.172 L125.3906,1092.103 L125.7813,1075.729 L126.1719,1094.97 L126.5625,1070.708 L126.9531,1095.998 L127.3438,1092.033 L127.7344,1096.454 L128.125,1091.575 L128.5156,1083.666 L128.9063,1095.341 L129.2969,1092.272 L129.6875,1075.187 L130.0781,1094.464 L130.4688,1096.187 L130.8594,1095.294 L131.25,1083.08 L131.6406,1092.791 L132.0313,1081.382 L132.4219,1096.039 L132.8125,1077.442 L133.2031,1097.113 L133.5938,1091.684 L133.9844,1097.526 L134.375,1095.87 L134.7656,1079.867 L135.1563,1094.659 L135.5469,1091.896 L135.9375,1078.863 L136.3281,1094.315 L136.7188,1095.461 L137.1094,1095.272 L137.5,1094.048 L137.8906,1083.637 L138.2813,1088.332 L138.6719,1091.095 L139.0625,1064.332 L139.4531,1092.792 L139.8438,1090.884 L140.2344,1093.553 L140.625,1097.006 L141.0156,1087.809 L141.4063,1092.063 L141.7969,1089.651 L142.1875,1074.151 L142.5781,1090.305 L142.9688,1092.749 L143.3594,1090.729 L143.75,1084.573 L144.1406,1091.521 L144.5313,1077.504 L144.9219,1093.113 L145.3125,1079.248 L145.7031,1093.821 L146.0938,1086.85 L146.4844,1094.19 L146.875,1097.613 L147.2656,1080.169 L147.6563,1090.343 L148.0469,1086.344 L148.4375,1082.353 L148.8281,1088.203 L149.2188,1091.792 L149.6094,1088.992 L150,1090.828 L150.3906,1082.277 L150.7813,999.7674 L151.1719,1088.306 L151.5625,1076.07 L151.9531,1090.248 L152.3438,1096.793 L152.7344,1091.254 L153.125,1095.25 L153.5156,1083.364 L153.9063,1099.066 L154.2969,1085.266 L154.6875,1081.007 L155.0781,1086.435 L155.4688,1099.647 L155.8594,1086.949 L156.25,1011.108 L156.6406,1088.893 L157.0313,1080.662 L157.4219,1092.913 L157.8125,1082.756 L158.2031,1094.317 L158.5938,1089.031 L158.9844,1095.153 L159.375,1097.721 L159.7656,1085.818 L160.1563,1092.127 L160.5469,1087.759 L160.9375,1083.999 L161.3281,1088.904 L161.7188,1093.969 L162.1094,1089.602 L162.5,1095.883 L162.8906,1083.558 L163.2813,1082.185 L163.6719,1090.201 L164.0625,1072.79 L164.4531,1093.042 L164.8438,1088.136 L165.2344,1094.662 L165.625,1098.524 L166.0156,1081.813 L166.4063,1090.961 L166.7969,1087.196 L167.1875,1076.61 L167.5781,1089.44 L167.9688,1092.185 L168.3594,1090.593 L168.75,1093.16 L169.1406,1073.61 L169.5313,1085.476 L169.9219,1084.243 L170.3125,1078.543 L170.7031,1088.117 L171.0938,1089.548 L171.4844,1090.359 L171.875,1098.961 L172.2656,1090.495 L172.6563,1091.39 L173.0469,1096.507 L173.4375,1079.976 L173.8281,1097.979 L174.2188,1092.442 L174.6094,1098.632 L175,1092.918 L175.3906,1051.56 L175.7813,1094.169 L176.1719,1063.595 L176.5625,1074.899 L176.9531,1069.64 L177.3438,1095.695 L177.7344,1073.233 L178.125,1075.556 L178.5156,1078.328 L178.9063,1096.48 L179.2969,1082.058 L179.6875,1079.948 L180.0781,1084.367 L180.4688,1096.844 L180.8594,1085.738 L181.25,1097.729 L181.6406,1084.973 L182.0313,1071.26 L182.4219,1089.784 L182.8125,1082.115 L183.2031,1091.349 L183.5938,1076.252 L183.9844,1092.198 L184.375,1087.887 L184.7656,1073.803 L185.1563,1079.118 L185.5469,1081.257 L185.9375,1083.352 L186.3281,1083.048 L186.7188,1081.034 L187.1094,1083.817 L187.5,1096.787 L187.8906,1071.362 L188.2813,900 L188.6719,1077.447 L189.0625,1066.325 L189.4531,1079.601 L189.8438,1094.72 L190.2344,1081.014 L190.625,1091.268 L191.0156,1066.864 L191.4063,1099.306 L191.7969,1078.983 L192.1875,1074.342 L192.5781,1086.756 L192.9688,1100 L193.3594,1089.518 L193.75,1098.928 L194.1406,1078.919 L194.5313,1073.9 L194.9219,1086.237 L195.3125,1078.353 L195.7031,1088.609 L196.0938,1093.134 L196.4844,1089.803 L196.875,1092.16 L197.6563,1095.768 L198.4375,1080.302 L199.2188,1096.877 L200,1091.611 " stroke="blue" fill="none" />
<text x="10" y="1120" font-family="Arial" font-size="12" fill="black">Learning Rate</text>
<path d="M10,6001141 L210,6001141" stroke="gray" />
<text x="5" y="6001146" font-family="Arial" font-size="10" fill="black">0</text>
<text x="5" y="1140" font-family="Arial" font-size="10" fill="black">0.0003</text>
<text x="5" y="1340" font-family="Arial" font-size="10" fill="black">0.0003</text>
<path d="M0,NaN L50,NaN L100,NaN L100.3906,NaN L100.7813,NaN L101.1719,NaN L101.5625,NaN L101.9531,NaN L102.3438,NaN L102.7344,NaN L103.125,NaN L103.5156,NaN L103.9063,NaN L104.2969,NaN L104.6875,NaN L105.0781,NaN L105.4688,NaN L105.8594,NaN L106.25,NaN L106.6406,NaN L107.0313,NaN L107.4219,NaN L107.8125,NaN L108.2031,NaN L108.5938,NaN L108.9844,NaN L109.375,NaN L109.7656,NaN L110.1563,NaN L110.5469,NaN L110.9375,NaN L111.3281,NaN L111.7188,NaN L112.1094,NaN L112.5,NaN L112.8906,NaN L113.2813,NaN L113.6719,NaN L114.0625,NaN L114.4531,NaN L114.8438,NaN L115.2344,NaN L115.625,NaN L116.0156,NaN L116.4063,NaN L116.7969,NaN L117.1875,NaN L117.5781,NaN L117.9688,NaN L118.3594,NaN L118.75,NaN L119.1406,NaN L119.5313,NaN L119.9219,NaN L120.3125,NaN L120.7031,NaN L121.0938,NaN L121.4844,NaN L121.875,NaN L122.2656,NaN L122.6563,NaN L123.0469,NaN L123.4375,NaN L123.8281,NaN L124.2188,NaN L124.6094,NaN L125,NaN L125.3906,NaN L125.7813,NaN L126.1719,NaN L126.5625,NaN L126.9531,NaN L127.3438,NaN L127.7344,NaN L128.125,NaN L128.5156,NaN L128.9063,NaN L129.2969,NaN L129.6875,NaN L130.0781,NaN L130.4688,NaN L130.8594,NaN L131.25,NaN L131.6406,NaN L132.0313,NaN L132.4219,NaN L132.8125,NaN L133.2031,NaN L133.5938,NaN L133.9844,NaN L134.375,NaN L134.7656,NaN L135.1563,NaN L135.5469,NaN L135.9375,NaN L136.3281,NaN L136.7188,NaN L137.1094,NaN L137.5,NaN L137.8906,NaN L138.2813,NaN L138.6719,NaN L139.0625,NaN L139.4531,NaN L139.8438,NaN L140.2344,NaN L140.625,NaN L141.0156,NaN L141.4063,NaN L141.7969,NaN L142.1875,NaN L142.5781,NaN L142.9688,NaN L143.3594,NaN L143.75,NaN L144.1406,NaN L144.5313,NaN L144.9219,NaN L145.3125,NaN L145.7031,NaN L146.0938,NaN L146.4844,NaN L146.875,NaN L147.2656,NaN L147.6563,NaN L148.0469,NaN L148.4375,NaN L148.8281,NaN L149.2188,NaN L149.6094,NaN L150,NaN L150.3906,NaN L150.7813,NaN L151.1719,NaN L151.5625,NaN L151.9531,NaN L152.3438,NaN L152.7344,NaN L153.125,NaN L153.5156,NaN L153.9063,NaN L154.2969,NaN L154.6875,NaN L155.0781,NaN L155.4688,NaN L155.8594,NaN L156.25,NaN L156.6406,NaN L157.0313,NaN L157.4219,NaN L157.8125,NaN L158.2031,NaN L158.5938,NaN L158.9844,NaN L159.375,NaN L159.7656,NaN L160.1563,NaN L160.5469,NaN L160.9375,NaN L161.3281,NaN L161.7188,NaN L162.1094,NaN L162.5,NaN L162.8906,NaN L163.2813,NaN L163.6719,NaN L164.0625,NaN L164.4531,NaN L164.8438,NaN L165.2344,NaN L165.625,NaN L166.0156,NaN L166.4063,NaN L166.7969,NaN L167.1875,NaN L167.5781,NaN L167.9688,NaN L168.3594,NaN L168.75,NaN L169.1406,NaN L169.5313,NaN L169.9219,NaN L170.3125,NaN L170.7031,NaN L171.0938,NaN L171.4844,NaN L171.875,NaN L172.2656,NaN L172.6563,NaN L173.0469,NaN L173.4375,NaN L173.8281,NaN L174.2188,NaN L174.6094,NaN L175,NaN L175.3906,NaN L175.7813,NaN L176.1719,NaN L176.5625,NaN L176.9531,NaN L177.3438,NaN L177.7344,NaN L178.125,NaN L178.5156,NaN L178.9063,NaN L179.2969,NaN L179.6875,NaN L180.0781,NaN L180.4688,NaN L180.8594,NaN L181.25,NaN L181.6406,NaN L182.0313,NaN L182.4219,NaN L182.8125,NaN L183.2031,NaN L183.5938,NaN L183.9844,NaN L184.375,NaN L184.7656,NaN L185.1563,NaN L185.5469,NaN L185.9375,NaN L186.3281,NaN L186.7188,NaN L187.1094,NaN L187.5,NaN L187.8906,NaN L188.2813,NaN L188.6719,NaN L189.0625,NaN L189.4531,NaN L189.8438,NaN L190.2344,NaN L190.625,NaN L191.0156,NaN L191.4063,NaN L191.7969,NaN L192.1875,NaN L192.5781,NaN L192.9688,NaN L193.3594,NaN L193.75,NaN L194.1406,NaN L194.5313,NaN L194.9219,NaN L195.3125,NaN L195.7031,NaN L196.0938,NaN L196.4844,NaN L196.875,NaN L197.6563,NaN L198.4375,NaN L199.2188,NaN L200,NaN " stroke="blue" fill="none" />
<text x="10" y="1360" font-family="Arial" font-size="12" fill="black">Epsilon</text>
<path d="M10,4.000002E+09 L210,4.000002E+09" stroke="gray" />
<text x="5" y="4.000002E+09" font-family="Arial" font-size="10" fill="black">0</text>
<text x="5" y="1380" font-family="Arial" font-size="10" fill="black">0.2</text>
<text x="5" y="1580" font-family="Arial" font-size="10" fill="black">0.2</text>
<path d="M0,NaN L50,NaN L100,NaN L100.3906,NaN L100.7813,NaN L101.1719,NaN L101.5625,NaN L101.9531,NaN L102.3438,NaN L102.7344,NaN L103.125,NaN L103.5156,NaN L103.9063,NaN L104.2969,NaN L104.6875,NaN L105.0781,NaN L105.4688,NaN L105.8594,NaN L106.25,NaN L106.6406,NaN L107.0313,NaN L107.4219,NaN L107.8125,NaN L108.2031,NaN L108.5938,NaN L108.9844,NaN L109.375,NaN L109.7656,NaN L110.1563,NaN L110.5469,NaN L110.9375,NaN L111.3281,NaN L111.7188,NaN L112.1094,NaN L112.5,NaN L112.8906,NaN L113.2813,NaN L113.6719,NaN L114.0625,NaN L114.4531,NaN L114.8438,NaN L115.2344,NaN L115.625,NaN L116.0156,NaN L116.4063,NaN L116.7969,NaN L117.1875,NaN L117.5781,NaN L117.9688,NaN L118.3594,NaN L118.75,NaN L119.1406,NaN L119.5313,NaN L119.9219,NaN L120.3125,NaN L120.7031,NaN L121.0938,NaN L121.4844,NaN L121.875,NaN L122.2656,NaN L122.6563,NaN L123.0469,NaN L123.4375,NaN L123.8281,NaN L124.2188,NaN L124.6094,NaN L125,NaN L125.3906,NaN L125.7813,NaN L126.1719,NaN L126.5625,NaN L126.9531,NaN L127.3438,NaN L127.7344,NaN L128.125,NaN L128.5156,NaN L128.9063,NaN L129.2969,NaN L129.6875,NaN L130.0781,NaN L130.4688,NaN L130.8594,NaN L131.25,NaN L131.6406,NaN L132.0313,NaN L132.4219,NaN L132.8125,NaN L133.2031,NaN L133.5938,NaN L133.9844,NaN L134.375,NaN L134.7656,NaN L135.1563,NaN L135.5469,NaN L135.9375,NaN L136.3281,NaN L136.7188,NaN L137.1094,NaN L137.5,NaN L137.8906,NaN L138.2813,NaN L138.6719,NaN L139.0625,NaN L139.4531,NaN L139.8438,NaN L140.2344,NaN L140.625,NaN L141.0156,NaN L141.4063,NaN L141.7969,NaN L142.1875,NaN L142.5781,NaN L142.9688,NaN L143.3594,NaN L143.75,NaN L144.1406,NaN L144.5313,NaN L144.9219,NaN L145.3125,NaN L145.7031,NaN L146.0938,NaN L146.4844,NaN L146.875,NaN L147.2656,NaN L147.6563,NaN L148.0469,NaN L148.4375,NaN L148.8281,NaN L149.2188,NaN L149.6094,NaN L150,NaN L150.3906,NaN L150.7813,NaN L151.1719,NaN L151.5625,NaN L151.9531,NaN L152.3438,NaN L152.7344,NaN L153.125,NaN L153.5156,NaN L153.9063,NaN L154.2969,NaN L154.6875,NaN L155.0781,NaN L155.4688,NaN L155.8594,NaN L156.25,NaN L156.6406,NaN L157.0313,NaN L157.4219,NaN L157.8125,NaN L158.2031,NaN L158.5938,NaN L158.9844,NaN L159.375,NaN L159.7656,NaN L160.1563,NaN L160.5469,NaN L160.9375,NaN L161.3281,NaN L161.7188,NaN L162.1094,NaN L162.5,NaN L162.8906,NaN L163.2813,NaN L163.6719,NaN L164.0625,NaN L164.4531,NaN L164.8438,NaN L165.2344,NaN L165.625,NaN L166.0156,NaN L166.4063,NaN L166.7969,NaN L167.1875,NaN L167.5781,NaN L167.9688,NaN L168.3594,NaN L168.75,NaN L169.1406,NaN L169.5313,NaN L169.9219,NaN L170.3125,NaN L170.7031,NaN L171.0938,NaN L171.4844,NaN L171.875,NaN L172.2656,NaN L172.6563,NaN L173.0469,NaN L173.4375,NaN L173.8281,NaN L174.2188,NaN L174.6094,NaN L175,NaN L175.3906,NaN L175.7813,NaN L176.1719,NaN L176.5625,NaN L176.9531,NaN L177.3438,NaN L177.7344,NaN L178.125,NaN L178.5156,NaN L178.9063,NaN L179.2969,NaN L179.6875,NaN L180.0781,NaN L180.4688,NaN L180.8594,NaN L181.25,NaN L181.6406,NaN L182.0313,NaN L182.4219,NaN L182.8125,NaN L183.2031,NaN L183.5938,NaN L183.9844,NaN L184.375,NaN L184.7656,NaN L185.1563,NaN L185.5469,NaN L185.9375,NaN L186.3281,NaN L186.7188,NaN L187.1094,NaN L187.5,NaN L187.8906,NaN L188.2813,NaN L188.6719,NaN L189.0625,NaN L189.4531,NaN L189.8438,NaN L190.2344,NaN L190.625,NaN L191.0156,NaN L191.4063,NaN L191.7969,NaN L192.1875,NaN L192.5781,NaN L192.9688,NaN L193.3594,NaN L193.75,NaN L194.1406,NaN L194.5313,NaN L194.9219,NaN L195.3125,NaN L195.7031,NaN L196.0938,NaN L196.4844,NaN L196.875,NaN L197.6563,NaN L198.4375,NaN L199.2188,NaN L200,NaN " stroke="blue" fill="none" />
</svg>
