<svg width="800" height="600" xmlns="http://www.w3.org/2000/svg">
<text x="10" y="20" font-family="Arial" font-size="16" fill="black"> [DeepUnity] Training Session</text>
<text x="10" y="40" font-family="Arial" font-size="12" fill="black">Start: 2:24:08 PM, Wednesday, August 30, 2023</text>
<text x="10" y="60" font-family="Arial" font-size="12" fill="black">End: 2:30:11 PM, Wednesday, August 30, 2023</text>
<text x="10" y="80" font-family="Arial" font-size="12" fill="black">Real Training Time: 0 hrs : 6 min : 1 sec</text>
<text x="10" y="100" font-family="Arial" font-size="12" fill="black">Training Time: 110.4579</text>
<text x="10" y="120" font-family="Arial" font-size="12" fill="black">Iterations: 5</text>
<text x="10" y="140" font-family="Arial" font-size="12" fill="black">Parallel Agents: 9</text>
<text x="10" y="160" font-family="Arial" font-size="12" fill="black">Episode Reward</text>
<path d="M10,425.7563 L210,425.7563" stroke="gray" />
<text x="5" y="430.7563" font-family="Arial" font-size="10" fill="black">0</text>
<text x="5" y="180" font-family="Arial" font-size="10" fill="black">33.30005</text>
<text x="5" y="380" font-family="Arial" font-size="10" fill="black">6.199996</text>
<path d="M0.6430868,380 L1.286174,365.9779 L1.92926,365.2399 L2.572347,364.5019 L3.215434,362.2878 L3.858521,357.1218 L4.501607,354.9077 L5.144694,348.2657 L5.787781,346.0516 L6.430868,354.1697 L7.073955,337.1955 L7.717041,361.5498 L8.360128,328.3394 L9.003215,334.2435 L9.646302,342.3616 L10.28939,336.4575 L10.93248,291.439 L11.57556,350.4797 L12.21865,334.9815 L12.86174,246.4205 L13.50482,320.9593 L14.14791,339.4095 L14.791,347.5276 L15.43408,332.0294 L16.07717,358.5978 L16.72026,287.0109 L17.36334,339.4095 L18.00643,315.0553 L18.64952,353.4317 L19.2926,327.6014 L19.93569,329.0774 L20.57878,320.2213 L21.22186,317.2693 L21.86495,347.5276 L22.50804,345.3136 L23.15112,344.5756 L23.79421,329.8154 L24.4373,321.6973 L25.08039,346.7896 L25.72347,348.2657 L26.36656,359.3358 L27.00965,332.0294 L27.65273,347.5276 L28.29582,351.9557 L28.93891,357.8598 L29.58199,333.5055 L30.22508,360.0738 L30.86817,347.5276 L31.51125,346.7896 L32.15434,309.1512 L32.79743,328.3394 L33.44051,338.6715 L34.0836,334.9815 L34.72669,343.0996 L35.36977,356.3838 L36.01286,349.7417 L36.65595,342.3616 L37.29903,347.5276 L37.94212,332.0294 L38.58521,298.8191 L39.22829,334.2435 L39.87138,339.4095 L40.51447,327.6014 L41.15755,340.1476 L41.80064,350.4797 L42.44373,345.3136 L43.08682,343.8376 L43.7299,340.8856 L44.37299,313.5793 L45.01608,347.5276 L45.65916,365.9779 L46.30225,328.3394 L46.94534,320.2213 L47.58842,360.8118 L48.23151,355.6458 L48.8746,318.7453 L49.51768,337.9335 L50.16077,364.5019 L50.80386,334.2435 L51.44695,341.6236 L52.09003,299.5571 L52.73312,338.6715 L53.37621,333.5055 L54.01929,343.0996 L54.66238,266.3467 L55.30547,340.8856 L55.94855,301.7711 L56.59164,340.8856 L57.23473,343.8376 L57.87782,343.0996 L58.5209,328.3394 L59.16399,330.5534 L59.80708,319.4833 L60.45016,324.6494 L61.09325,311.3652 L61.73633,247.8965 L62.37942,337.9335 L63.02251,292.915 L63.66559,309.1512 L64.30868,253.0625 L64.95177,315.7933 L65.59486,254.5385 L66.23795,330.5534 L66.88103,315.0553 L67.52412,327.6014 L68.16721,337.9335 L68.81029,302.5091 L69.45338,267.8227 L70.09647,314.3173 L70.73955,325.3874 L71.38264,323.1734 L72.02572,332.7675 L72.66881,222.8042 L73.3119,349.7417 L73.95498,360.8118 L74.59807,346.0516 L75.24116,331.2914 L75.88425,349.0037 L76.52734,345.3136 L77.17042,342.3616 L77.81351,333.5055 L78.45659,312.8412 L79.09968,315.7933 L79.74277,318.0073 L80.38585,328.3394 L81.02894,337.1955 L81.67203,258.9666 L82.31511,326.1254 L82.9582,296.605 L83.60129,360.0738 L84.24437,287.7489 L84.88746,357.8598 L85.53055,287.0109 L86.17364,250.1105 L86.81672,316.5313 L87.45981,332.7675 L88.1029,325.3874 L88.74598,309.8892 L89.38907,329.8154 L90.03216,284.0589 L90.67524,321.6973 L91.31833,308.4132 L91.96141,300.2951 L92.6045,324.6494 L93.24759,266.3467 L93.89067,303.9851 L94.53376,308.4132 L95.17685,340.8856 L95.81994,320.2213 L96.46303,346.0516 L97.10611,315.7933 L97.7492,279.6308 L98.39228,315.0553 L99.03537,343.8376 L99.67846,274.4648 L100.3215,352.6937 L100.9646,326.8634 L101.6077,326.8634 L102.2508,345.3136 L102.8939,289.2249 L103.537,345.3136 L104.1801,322.4354 L104.8232,268.5607 L105.4662,343.8376 L106.1093,328.3394 L106.7524,318.0073 L107.3955,329.0774 L108.0386,339.4095 L108.6817,323.9114 L109.3248,312.8412 L109.9678,300.2951 L110.6109,315.7933 L111.254,338.6715 L111.8971,344.5756 L112.5402,306.1992 L113.1833,341.6236 L113.8264,240.5164 L114.4695,333.5055 L115.1125,283.3209 L115.7556,320.9593 L116.3987,335.7195 L117.0418,325.3874 L117.6849,338.6715 L118.328,323.9114 L118.9711,300.2951 L119.6142,291.439 L120.2572,300.2951 L120.9003,338.6715 L121.5434,237.5643 L122.1865,329.8154 L122.8296,302.5091 L123.4727,319.4833 L124.1158,299.5571 L124.7588,279.6308 L125.4019,327.6014 L126.045,321.6973 L126.6881,331.2914 L127.3312,296.605 L127.9743,329.8154 L128.6174,311.3652 L129.2604,312.1032 L129.9035,317.2693 L130.5466,329.8154 L131.1897,330.5534 L131.8328,312.8412 L132.4759,360.0738 L133.119,281.1069 L133.7621,260.4426 L134.4052,301.7711 L135.0482,340.1476 L135.6913,318.0073 L136.3344,333.5055 L136.9775,347.5276 L137.6206,315.7933 L138.2637,333.5055 L138.9068,279.6308 L139.5498,326.8634 L140.1929,301.0331 L140.836,243.4684 L141.4791,343.0996 L142.1222,355.6458 L142.7653,308.4132 L143.4084,337.1955 L144.0514,326.1254 L144.6945,246.4205 L145.3376,345.3136 L145.9807,346.0516 L146.6238,357.1218 L147.2669,261.1806 L147.91,301.7711 L148.5531,299.5571 L149.1961,294.391 L149.8392,354.1697 L150.4823,351.9557 L151.1254,347.5276 L151.7685,343.0996 L152.4116,279.6308 L153.0547,278.1548 L153.6978,264.1327 L154.3408,318.0073 L154.9839,307.6752 L155.627,322.4354 L156.2701,327.6014 L156.9132,344.5756 L157.5563,302.5091 L158.1994,297.343 L158.8424,347.5276 L159.4855,268.5607 L160.1286,331.2914 L160.7717,309.1512 L161.4148,300.2951 L162.0579,336.4575 L162.701,321.6973 L163.3441,293.653 L163.9871,337.9335 L164.6302,334.2435 L165.2733,318.0073 L165.9164,283.3209 L166.5595,323.9114 L167.2026,350.4797 L167.8457,232.3983 L168.4887,263.3947 L169.1318,347.5276 L169.7749,354.1697 L170.418,253.0625 L171.0611,316.5313 L171.7042,334.9815 L172.3473,321.6973 L172.9904,297.343 L173.6334,266.3467 L174.2765,336.4575 L174.9196,346.0516 L175.5627,325.3874 L176.2058,333.5055 L176.8489,329.8154 L177.492,345.3136 L178.1351,325.3874 L178.7781,236.0883 L179.4212,315.0553 L180.0643,293.653 L180.7074,347.5276 L181.3505,340.1476 L181.9936,337.1955 L182.6367,312.8412 L183.2797,296.605 L183.9228,338.6715 L184.5659,319.4833 L185.209,328.3394 L185.8521,343.0996 L186.4952,180 L187.1383,357.1218 L187.7813,327.6014 L188.4244,318.7453 L189.0675,343.0996 L189.7106,301.7711 L190.3537,332.7675 L190.9968,313.5793 L191.6399,305.4612 L192.283,231.6603 L192.9261,279.6308 L193.5691,328.3394 L194.2122,333.5055 L194.8553,305.4612 L195.4984,318.0073 L196.1415,349.0037 L196.7846,355.6458 L197.4277,322.4354 L198.0707,326.8634 L198.7138,331.2914 L199.3569,323.9114 L200,335.7195 " stroke="blue" fill="none" />
<text x="10" y="400" font-family="Arial" font-size="12" fill="black">Episode Length</text>
<path d="M10,674.6125 L210,674.6125" stroke="gray" />
<text x="5" y="679.6125" font-family="Arial" font-size="10" fill="black">0</text>
<text x="5" y="420" font-family="Arial" font-size="10" fill="black">345</text>
<text x="5" y="620" font-family="Arial" font-size="10" fill="black">74</text>
<path d="M0.6430868,620 L1.286174,605.9778 L1.92926,605.2399 L2.572347,604.5018 L3.215434,602.2878 L3.858521,597.1218 L4.501607,594.9078 L5.144694,588.2657 L5.787781,586.0516 L6.430868,594.1697 L7.073955,577.1956 L7.717041,601.5498 L8.360128,568.3395 L9.003215,574.2435 L9.646302,582.3616 L10.28939,576.4576 L10.93248,531.4391 L11.57556,590.4797 L12.21865,574.9816 L12.86174,486.4207 L13.50482,560.9594 L14.14791,579.4096 L14.791,587.5276 L15.43408,572.0295 L16.07717,598.5978 L16.72026,527.011 L17.36334,579.4096 L18.00643,555.0554 L18.64952,593.4318 L19.2926,567.6015 L19.93569,569.0775 L20.57878,560.2214 L21.22186,557.2693 L21.86495,587.5276 L22.50804,585.3137 L23.15112,584.5756 L23.79421,569.8155 L24.4373,561.6974 L25.08039,586.7897 L25.72347,588.2657 L26.36656,599.3358 L27.00965,572.0295 L27.65273,587.5276 L28.29582,591.9557 L28.93891,597.8598 L29.58199,573.5056 L30.22508,600.0738 L30.86817,587.5276 L31.51125,586.7897 L32.15434,549.1513 L32.79743,568.3395 L33.44051,578.6716 L34.0836,574.9816 L34.72669,583.0996 L35.36977,596.3838 L36.01286,589.7417 L36.65595,582.3616 L37.29903,587.5276 L37.94212,572.0295 L38.58521,538.8192 L39.22829,574.2435 L39.87138,579.4096 L40.51447,567.6015 L41.15755,580.1476 L41.80064,590.4797 L42.44373,585.3137 L43.08682,583.8376 L43.7299,580.8856 L44.37299,553.5793 L45.01608,587.5276 L45.65916,605.9778 L46.30225,568.3395 L46.94534,560.2214 L47.58842,600.8118 L48.23151,595.6458 L48.8746,558.7454 L49.51768,577.9336 L50.16077,604.5018 L50.80386,574.2435 L51.44695,581.6236 L52.09003,539.5572 L52.73312,578.6716 L53.37621,573.5056 L54.01929,583.0996 L54.66238,506.3469 L55.30547,580.8856 L55.94855,541.7712 L56.59164,580.8856 L57.23473,583.8376 L57.87782,583.0996 L58.5209,568.3395 L59.16399,570.5535 L59.80708,559.4834 L60.45016,564.6495 L61.09325,551.3653 L61.73633,487.8967 L62.37942,577.9336 L63.02251,532.9151 L63.66559,549.1513 L64.30868,493.0627 L64.95177,555.7933 L65.59486,494.5388 L66.23795,570.5535 L66.88103,555.0554 L67.52412,567.6015 L68.16721,577.9336 L68.81029,542.5092 L69.45338,507.8229 L70.09647,554.3173 L70.73955,565.3875 L71.38264,563.1735 L72.02572,572.7675 L72.66881,462.8044 L73.3119,589.7417 L73.95498,600.8118 L74.59807,586.0516 L75.24116,571.2915 L75.88425,589.0037 L76.52734,585.3137 L77.17042,582.3616 L77.81351,573.5056 L78.45659,552.8413 L79.09968,555.7933 L79.74277,558.0074 L80.38585,568.3395 L81.02894,577.1956 L81.67203,498.9668 L82.31511,566.1255 L82.9582,536.6052 L83.60129,600.0738 L84.24437,527.7491 L84.88746,597.8598 L85.53055,527.011 L86.17364,490.1107 L86.81672,556.5314 L87.45981,572.7675 L88.1029,565.3875 L88.74598,549.8893 L89.38907,569.8155 L90.03216,524.059 L90.67524,561.6974 L91.31833,548.4133 L91.96141,540.2952 L92.6045,564.6495 L93.24759,506.3469 L93.89067,543.9852 L94.53376,548.4133 L95.17685,580.8856 L95.81994,560.2214 L96.46303,586.0516 L97.10611,555.7933 L97.7492,519.631 L98.39228,555.0554 L99.03537,583.8376 L99.67846,514.465 L100.3215,592.6937 L100.9646,566.8635 L101.6077,566.8635 L102.2508,585.3137 L102.8939,529.2251 L103.537,585.3137 L104.1801,562.4354 L104.8232,508.5609 L105.4662,583.8376 L106.1093,568.3395 L106.7524,558.0074 L107.3955,569.0775 L108.0386,579.4096 L108.6817,563.9114 L109.3248,552.8413 L109.9678,540.2952 L110.6109,555.7933 L111.254,578.6716 L111.8971,584.5756 L112.5402,546.1993 L113.1833,581.6236 L113.8264,480.5166 L114.4695,573.5056 L115.1125,523.321 L115.7556,560.9594 L116.3987,575.7195 L117.0418,565.3875 L117.6849,578.6716 L118.328,563.9114 L118.9711,540.2952 L119.6142,531.4391 L120.2572,540.2952 L120.9003,578.6716 L121.5434,477.5646 L122.1865,569.8155 L122.8296,542.5092 L123.4727,559.4834 L124.1158,539.5572 L124.7588,519.631 L125.4019,567.6015 L126.045,561.6974 L126.6881,571.2915 L127.3312,536.6052 L127.9743,569.8155 L128.6174,551.3653 L129.2604,552.1033 L129.9035,557.2693 L130.5466,569.8155 L131.1897,570.5535 L131.8328,552.8413 L132.4759,600.0738 L133.119,521.107 L133.7621,500.4428 L134.4052,541.7712 L135.0482,580.1476 L135.6913,558.0074 L136.3344,573.5056 L136.9775,587.5276 L137.6206,555.7933 L138.2637,573.5056 L138.9068,519.631 L139.5498,566.8635 L140.1929,541.0332 L140.836,483.4686 L141.4791,583.0996 L142.1222,595.6458 L142.7653,548.4133 L143.4084,577.1956 L144.0514,566.1255 L144.6945,486.4207 L145.3376,585.3137 L145.9807,586.0516 L146.6238,597.1218 L147.2669,501.1808 L147.91,541.7712 L148.5531,539.5572 L149.1961,534.3912 L149.8392,594.1697 L150.4823,591.9557 L151.1254,587.5276 L151.7685,583.0996 L152.4116,519.631 L153.0547,518.155 L153.6978,504.1328 L154.3408,558.0074 L154.9839,547.6753 L155.627,562.4354 L156.2701,567.6015 L156.9132,584.5756 L157.5563,542.5092 L158.1994,537.3432 L158.8424,587.5276 L159.4855,508.5609 L160.1286,571.2915 L160.7717,549.1513 L161.4148,540.2952 L162.0579,576.4576 L162.701,561.6974 L163.3441,533.6531 L163.9871,577.9336 L164.6302,574.2435 L165.2733,558.0074 L165.9164,523.321 L166.5595,563.9114 L167.2026,590.4797 L167.8457,472.3985 L168.4887,503.3948 L169.1318,587.5276 L169.7749,594.1697 L170.418,493.0627 L171.0611,556.5314 L171.7042,574.9816 L172.3473,561.6974 L172.9904,537.3432 L173.6334,506.3469 L174.2765,576.4576 L174.9196,586.0516 L175.5627,565.3875 L176.2058,573.5056 L176.8489,569.8155 L177.492,585.3137 L178.1351,565.3875 L178.7781,476.0886 L179.4212,555.0554 L180.0643,533.6531 L180.7074,587.5276 L181.3505,580.1476 L181.9936,577.1956 L182.6367,552.8413 L183.2797,536.6052 L183.9228,578.6716 L184.5659,559.4834 L185.209,568.3395 L185.8521,583.0996 L186.4952,420 L187.1383,597.1218 L187.7813,567.6015 L188.4244,558.7454 L189.0675,583.0996 L189.7106,541.7712 L190.3537,572.7675 L190.9968,553.5793 L191.6399,545.4612 L192.283,471.6605 L192.9261,519.631 L193.5691,568.3395 L194.2122,573.5056 L194.8553,545.4612 L195.4984,558.0074 L196.1415,589.0037 L196.7846,595.6458 L197.4277,562.4354 L198.0707,566.8635 L198.7138,571.2915 L199.3569,563.9114 L200,575.7195 " stroke="blue" fill="none" />
<text x="10" y="640" font-family="Arial" font-size="12" fill="black">Policy Loss</text>
<path d="M10,948.356 L210,948.356" stroke="gray" />
<text x="5" y="953.356" font-family="Arial" font-size="10" fill="black">0</text>
<text x="5" y="660" font-family="Arial" font-size="10" fill="black">0.04029469</text>
<text x="5" y="860" font-family="Arial" font-size="10" fill="black">0.01234682</text>
<path d="M0.5555556,773.4416 L1.111111,808.483 L1.666667,769.0814 L2.222222,780.0557 L2.777778,728.3676 L3.333333,730.0856 L3.888889,811.975 L4.444445,769.525 L5,761.8779 L5.555556,762.1933 L6.111111,772.8182 L6.666667,769.8727 L7.222222,781.2958 L7.777778,764.0989 L8.333334,780.4163 L8.888889,788.4498 L9.444445,827.4976 L10,706.9594 L10.55556,768.4416 L11.11111,745.0039 L11.66667,801.7513 L12.22222,766.4491 L12.77778,758.1602 L13.33333,793.0751 L13.88889,749.9368 L14.44444,776.3298 L15,833.2165 L15.55556,785.2787 L16.11111,771.8235 L16.66667,819.7942 L17.22222,763.4021 L17.77778,793.351 L18.33333,773.9803 L18.88889,727.8292 L19.44444,757.7711 L20,751.0156 L20.55556,725.8553 L21.11111,753.4564 L21.66667,794.86 L22.22222,836.4789 L22.77778,764.311 L23.33333,768.4349 L23.88889,788.4479 L24.44444,780.0723 L25,727.3987 L25.55556,768.2584 L26.11111,777.2338 L26.66667,793.915 L27.22222,807.3527 L27.77778,695.595 L28.33333,793.8707 L28.88889,813.1553 L29.44444,805.3477 L30,729.9629 L30.55556,719.4095 L31.11111,704.9277 L31.66667,809.3763 L32.22222,776.3646 L32.77778,805.0131 L33.33334,750.0347 L33.88889,818.2971 L34.44445,745.7406 L35,779.7219 L35.55556,814.1008 L36.11111,719.3424 L36.66667,809.3337 L37.22222,725.2634 L37.77778,740.1251 L38.33333,738.4714 L38.88889,810.0956 L39.44444,674.1479 L40,802.0258 L40.55555,805.0886 L41.11111,764.4721 L41.66666,822.4962 L42.22222,773.235 L42.77778,756.0691 L43.33333,770.1625 L43.88889,761.7518 L44.44445,802.7543 L45,768.6732 L45.55556,833.3307 L46.11111,802.5191 L46.66667,799.0637 L47.22222,801.2003 L47.77778,762.5863 L48.33333,742.798 L48.88889,797.4322 L49.44444,742.1812 L50,726.7114 L50.55556,787.2895 L51.11111,801.4402 L51.66666,820.134 L52.22222,706.0961 L52.77778,750.8727 L53.33334,777.0161 L53.88889,768.862 L54.44444,747.3915 L55,764.2927 L55.55556,753.0753 L56.11111,755.3257 L56.66667,778.4131 L57.22222,812.8428 L57.77778,730.6864 L58.33333,766.5558 L58.88889,777.0578 L59.44445,782.2748 L60,780.5312 L60.55555,760.8138 L61.11111,739.9058 L61.66667,791.4232 L62.22223,731.7352 L62.77777,713.4756 L63.33333,776.8746 L63.88889,756.7478 L64.44444,808.1866 L65,706.4135 L65.55556,763.3122 L66.11111,750.9905 L66.66667,801.6998 L67.22222,747.283 L67.77778,794.8697 L68.33334,765.4211 L68.88889,727.2057 L69.44444,814.1987 L70,829.8067 L70.55556,767.553 L71.11111,777.7804 L71.66666,794.118 L72.22222,809.8006 L72.77778,772.295 L73.33334,798.528 L73.88889,711.6323 L74.44444,801.4564 L75,779.1795 L75.55556,822.4555 L76.11111,802.9192 L76.66666,743.378 L77.22222,752.3596 L77.77778,795.3182 L78.33334,772.1978 L78.88889,718.7677 L79.44444,770.101 L80,804.3149 L80.55556,797.4376 L81.11111,750.0707 L81.66666,823.2296 L82.22222,811.0461 L82.77778,794.4343 L83.33333,778.2316 L83.88889,770.2274 L84.44444,752.243 L85,762.9671 L85.55556,761.3321 L86.11111,755.6979 L86.66666,783.8081 L87.22222,786.944 L87.77778,753.5616 L88.33334,810.7811 L88.88889,782.5931 L89.44444,771.8267 L90,732.0892 L90.55556,740.5814 L91.11111,749.1453 L91.66667,742.0287 L92.22222,784.4532 L92.77778,742.0229 L93.33334,774.5175 L93.88889,735.2882 L94.44444,795.0572 L95,785.3931 L95.55556,805.7462 L96.11111,735.0898 L96.66666,760.9689 L97.22222,772.2235 L97.77778,818.408 L98.33334,763.5693 L98.88889,787.1368 L99.44444,774.6005 L100,755.9672 L100.5555,790.7608 L101.1111,759.0517 L101.6667,767.439 L102.2222,787.7058 L102.7778,779.9557 L103.3333,792.4186 L103.8889,773.058 L104.4444,732.9329 L105,793.0142 L105.5556,750.1166 L106.1111,793.0901 L106.6667,747.8442 L107.2222,805.0671 L107.7778,761.8263 L108.3333,810.1797 L108.8889,834.5375 L109.4444,750.1214 L110,761.2343 L110.5556,728.7294 L111.1111,732.9915 L111.6667,755.7217 L112.2222,720.6481 L112.7778,796.3735 L113.3333,758.7401 L113.8889,773.7353 L114.4444,760.35 L115,824.9724 L115.5556,754.4426 L116.1111,781.155 L116.6667,786.7612 L117.2222,750.1057 L117.7778,782.3098 L118.3333,756.4503 L118.8889,790.8734 L119.4444,767.3862 L120,698.8278 L120.5556,795.7124 L121.1111,808.3224 L121.6667,787.1228 L122.2222,790.5721 L122.7778,781.3006 L123.3333,781.5685 L123.8889,775.5944 L124.4445,769.8864 L125,705.0776 L125.5555,717.254 L126.1111,784.4455 L126.6667,770.366 L127.2222,827.367 L127.7778,778.0775 L128.3333,748.3067 L128.8889,796.1685 L129.4444,792.3974 L130,748.4853 L130.5556,734.9357 L131.1111,860 L131.6667,698.2669 L132.2222,765.9495 L132.7778,775.8246 L133.3333,714.7278 L133.8889,827.7553 L134.4444,821.2462 L135,763.1044 L135.5556,763.6043 L136.1111,805.3613 L136.6667,827.4554 L137.2222,795.1875 L137.7778,841.1539 L138.3333,790.1432 L138.8889,798.6057 L139.4444,789.1031 L140,731.5804 L140.5556,771.1553 L141.1111,780.6752 L141.6667,805.8286 L142.2222,772.0458 L142.7778,765.9769 L143.3333,822.1633 L143.8889,756.01 L144.4444,792.2934 L145,826.4076 L145.5556,749.8596 L146.1111,763.5586 L146.6667,820.441 L147.2222,778.5432 L147.7778,741.4499 L148.3333,837.0634 L148.8889,787.249 L149.4444,810.4037 L150,759.3899 L150.5556,769.7132 L151.1111,817.1161 L151.6667,786.1169 L152.2222,774.9902 L152.7778,778.9628 L153.3333,766.4522 L153.8889,820.4799 L154.4444,772.5414 L155,788.0084 L155.5556,788.2084 L156.1111,834.3706 L156.6667,760.0697 L157.2222,766.7025 L157.7778,783.7453 L158.3333,825.5868 L158.8889,853.4489 L159.4444,789.1846 L160,672.2783 L160.5556,756.944 L161.1111,796.9927 L161.6667,803.1257 L162.2222,803.797 L162.7778,784.6152 L163.3333,825.2912 L163.8889,821.0801 L164.4444,787.8762 L165,799.6094 L165.5556,756.0057 L166.1111,809.4659 L166.6667,770.1109 L167.2222,765.3831 L167.7778,765.3458 L168.3333,812.4196 L168.8889,798.3402 L169.4444,764.3 L170,811.4689 L170.5556,775.493 L171.1111,785.3736 L171.6667,744.6048 L172.2222,724.7673 L172.7778,801.1487 L173.3333,767.5989 L173.8889,786.602 L174.4444,746.2557 L175,813.3278 L175.5556,697.976 L176.1111,793.294 L176.6667,799.9464 L177.2222,760.259 L177.7778,795.5374 L178.3333,741.9903 L178.8889,829.8329 L179.4444,807.8035 L180,777.0328 L180.5556,762.7466 L181.1111,818.7129 L181.6667,729.0214 L182.2222,825.6694 L182.7778,755.3328 L183.3333,785.933 L183.8889,794.5084 L184.4444,815.9142 L185,744.6578 L185.5556,740.0165 L186.1111,751.4463 L186.6667,743.9639 L187.2222,805.5131 L187.7778,766.575 L188.3333,802.3404 L188.8889,707.3055 L189.4444,796.0099 L190,805.5846 L190.5556,749.9459 L191.1111,797.136 L191.6667,787.0538 L192.2222,748.9756 L192.7778,769.228 L193.3333,790.75 L193.8889,787.2242 L194.4444,811.0482 L195,702.5756 L195.5556,766.7429 L196.1111,736.3724 L196.6667,731.7751 L197.2222,829.2482 L197.7778,796.6457 L198.3333,749.5128 L198.8889,809.4561 L199.4444,660 L200,779.2756 " stroke="blue" fill="none" />
<text x="10" y="880" font-family="Arial" font-size="12" fill="black">Value Loss</text>
<path d="M10,1100.329 L210,1100.329" stroke="gray" />
<text x="5" y="1105.329" font-family="Arial" font-size="10" fill="black">0</text>
<text x="5" y="900" font-family="Arial" font-size="10" fill="black">3.338065</text>
<text x="5" y="1100" font-family="Arial" font-size="10" fill="black">0.005484994</text>
<path d="M0.5555556,900 L1.111111,916.5126 L1.666667,933.3021 L2.222222,950.4394 L2.777778,968.4384 L3.333333,986.8379 L3.888889,1005.548 L4.444445,1023.329 L5,986.4719 L5.555556,1009.746 L6.111111,1027.94 L6.666667,1040.944 L7.222222,1050.096 L7.777778,1057.578 L8.333334,1064.056 L8.888889,1069.736 L9.444445,1051.613 L10,1057.973 L10.55556,1063.606 L11.11111,1068.086 L11.66667,1071.617 L12.22222,1074.719 L12.77778,1077.3 L13.33333,1079.366 L13.88889,1045.01 L14.44444,1057.633 L15,1066.486 L15.55556,1072.223 L16.11111,1075.839 L16.66667,1078.803 L17.22222,1081.134 L17.77778,1082.813 L18.33333,1063.913 L18.88889,1068.826 L19.44444,1071.407 L20,1073.454 L20.55556,1075.447 L21.11111,1077.111 L21.66667,1078.66 L22.22222,1080.083 L22.77778,1070.371 L23.33333,1075.305 L23.88889,1078.78 L24.44444,1081.033 L25,1082.466 L25.55556,1083.771 L26.11111,1084.936 L26.66667,1085.966 L27.22222,1065.31 L27.77778,1070.508 L28.33333,1073.648 L28.88889,1075.771 L29.44444,1077.492 L30,1079.033 L30.55556,1079.81 L31.11111,1081.012 L31.66667,1066.216 L32.22222,1072.629 L32.77778,1075.481 L33.33334,1077.323 L33.88889,1078.647 L34.44445,1079.785 L35,1080.632 L35.55556,1081.269 L36.11111,1078.039 L36.66667,1083.087 L37.22222,1084.821 L37.77778,1085.683 L38.33333,1086.493 L38.88889,1086.876 L39.44444,1087.409 L40,1087.788 L40.55555,1081.197 L41.11111,1085.36 L41.66666,1087.324 L42.22222,1088.489 L42.77778,1089.062 L43.33333,1089.513 L43.88889,1089.785 L44.44445,1090.025 L45,1081.233 L45.55556,1083.064 L46.11111,1084.542 L46.66667,1085.722 L47.22222,1086.728 L47.77778,1087.595 L48.33333,1088.123 L48.88889,1088.701 L49.44444,1083.991 L50,1086.669 L50.55556,1088.734 L51.11111,1090.137 L51.66666,1090.944 L52.22222,1091.679 L52.77778,1092.113 L53.33334,1092.455 L53.88889,1084.139 L54.44444,1086.666 L55,1087.81 L55.55556,1088.669 L56.11111,1089.375 L56.66667,1090.059 L57.22222,1090.536 L57.77778,1090.991 L58.33333,1074.923 L58.88889,1080.413 L59.44445,1083.302 L60,1084.958 L60.55555,1086.083 L61.11111,1086.755 L61.66667,1087.529 L62.22223,1087.957 L62.77777,1055.894 L63.33333,1075.352 L63.88889,1083.238 L64.44444,1086.595 L65,1087.979 L65.55556,1088.793 L66.11111,1089.375 L66.66667,1089.87 L67.22222,1075.472 L67.77778,1091.502 L68.33334,1096.26 L68.88889,1097.778 L69.44444,1098.43 L70,1098.76 L70.55556,1098.914 L71.11111,1098.989 L71.66666,1050.506 L72.22222,1073.63 L72.77778,1085.166 L73.33334,1089.635 L73.88889,1090.575 L74.44444,1091.138 L75,1091.627 L75.55556,1091.844 L76.11111,1072.723 L76.66666,1088.296 L77.22222,1094.758 L77.77778,1096.241 L78.33334,1097.003 L78.88889,1097.379 L79.44444,1097.654 L80,1097.845 L80.55556,1077.319 L81.11111,1090.206 L81.66666,1093.371 L82.22222,1094.346 L82.77778,1094.76 L83.33333,1095.025 L83.88889,1095.188 L84.44444,1095.306 L85,1094.352 L85.55556,1096.53 L86.11111,1096.936 L86.66666,1097.139 L87.22222,1097.358 L87.77778,1097.43 L88.33334,1097.557 L88.88889,1097.614 L89.44444,1068.768 L90,1080.979 L90.55556,1085.755 L91.11111,1087.135 L91.66667,1087.559 L92.22222,1088.107 L92.77778,1088.34 L93.33334,1088.631 L93.88889,1073.629 L94.44444,1079.528 L95,1083.121 L95.55556,1085.05 L96.11111,1086.225 L96.66666,1086.974 L97.22222,1087.417 L97.77778,1088.04 L98.33334,1079.032 L98.88889,1084.251 L99.44444,1086.708 L100,1088.266 L100.5555,1089.228 L101.1111,1090.06 L101.6667,1090.65 L102.2222,1091.131 L102.7778,1079.386 L103.3333,1083.53 L103.8889,1084.779 L104.4444,1085.57 L105,1086.035 L105.5556,1086.408 L106.1111,1086.853 L106.6667,1087.239 L107.2222,1073.274 L107.7778,1085.357 L108.3333,1091.043 L108.8889,1094.649 L109.4444,1095.969 L110,1096.493 L110.5556,1096.751 L111.1111,1096.949 L111.6667,1080.395 L112.2222,1088.356 L112.7778,1090.183 L113.3333,1091.075 L113.8889,1091.457 L114.4444,1091.918 L115,1092.149 L115.5556,1092.348 L116.1111,1078.191 L116.6667,1083.577 L117.2222,1086.527 L117.7778,1087.973 L118.3333,1088.753 L118.8889,1089.153 L119.4444,1089.47 L120,1089.681 L120.5556,1074.777 L121.1111,1081.986 L121.6667,1084.987 L122.2222,1086.288 L122.7778,1087.226 L123.3333,1087.779 L123.8889,1088.362 L124.4445,1088.771 L125,1028.933 L125.5555,1064.186 L126.1111,1085.894 L126.6667,1092.203 L127.2222,1094.839 L127.7778,1095.823 L128.3333,1096.409 L128.8889,1096.789 L129.4444,1071.848 L130,1084.253 L130.5556,1087.454 L131.1111,1088.582 L131.6667,1089.286 L132.2222,1089.835 L132.7778,1090.373 L133.3333,1090.812 L133.8889,1077.182 L134.4444,1083.077 L135,1085.058 L135.5556,1085.923 L136.1111,1086.649 L136.6667,1087.321 L137.2222,1087.757 L137.7778,1088.134 L138.3333,1073.327 L138.8889,1081.42 L139.4444,1084.944 L140,1085.718 L140.5556,1086.187 L141.1111,1086.701 L141.6667,1086.934 L142.2222,1087.214 L142.7778,944.901 L143.3333,1030.121 L143.8889,1076.076 L144.4444,1092.247 L145,1095.847 L145.5556,1097.867 L146.1111,1098.723 L146.6667,1099.106 L147.2222,1052.668 L147.7778,1078.139 L148.3333,1086.965 L148.8889,1090.101 L149.4444,1091.494 L150,1092.051 L150.5556,1092.414 L151.1111,1092.841 L151.6667,1048.276 L152.2222,1081.615 L152.7778,1094.702 L153.3333,1098.259 L153.8889,1098.797 L154.4444,1099.142 L155,1099.312 L155.5556,1099.426 L156.1111,1082.058 L156.6667,1092.736 L157.2222,1095.266 L157.7778,1096.351 L158.3333,1096.852 L158.8889,1097.323 L159.4444,1097.679 L160,1097.922 L160.5556,1059.323 L161.1111,1081.463 L161.6667,1088.63 L162.2222,1090.682 L162.7778,1091.571 L163.3333,1092.031 L163.8889,1092.387 L164.4444,1092.574 L165,1073.182 L165.5556,1089.715 L166.1111,1096.217 L166.6667,1097.265 L167.2222,1097.747 L167.7778,1097.907 L168.3333,1098.023 L168.8889,1098.147 L169.4444,1087.062 L170,1095.283 L170.5556,1097.195 L171.1111,1098.039 L171.6667,1098.478 L172.2222,1098.642 L172.7778,1098.797 L173.3333,1098.912 L173.8889,1054.813 L174.4444,1076.561 L175,1083.628 L175.5556,1086.867 L176.1111,1088.309 L176.6667,1089.524 L177.2222,1090.486 L177.7778,1091.11 L178.3333,1054.939 L178.8889,1082.71 L179.4444,1094.101 L180,1096.55 L180.5556,1097.332 L181.1111,1097.799 L181.6667,1098.047 L182.2222,1098.296 L182.7778,1097.147 L183.3333,1098.165 L183.8889,1098.885 L184.4444,1099.219 L185,1099.406 L185.5556,1099.51 L186.1111,1099.582 L186.6667,1099.64 L187.2222,1096.244 L187.7778,1098.004 L188.3333,1098.77 L188.8889,1099.058 L189.4444,1099.234 L190,1099.353 L190.5556,1099.429 L191.1111,1099.494 L191.6667,1087.384 L192.2222,1093.415 L192.7778,1094.812 L193.3333,1095.251 L193.8889,1095.404 L194.4444,1095.633 L195,1095.746 L195.5556,1095.864 L196.1111,1088.7 L196.6667,1097.313 L197.2222,1099.392 L197.7778,1099.81 L198.3333,1099.909 L198.8889,1099.94 L199.4444,1099.952 L200,1100 " stroke="blue" fill="none" />
<text x="10" y="1120" font-family="Arial" font-size="12" fill="black">Learning Rate</text>
<path d="M10,6001141 L210,6001141" stroke="gray" />
<text x="5" y="6001146" font-family="Arial" font-size="10" fill="black">0</text>
<text x="5" y="1140" font-family="Arial" font-size="10" fill="black">0.0003</text>
<text x="5" y="1340" font-family="Arial" font-size="10" fill="black">0.0003</text>
<path d="M0.5555556,NaN L1.111111,NaN L1.666667,NaN L2.222222,NaN L2.777778,NaN L3.333333,NaN L3.888889,NaN L4.444445,NaN L5,NaN L5.555556,NaN L6.111111,NaN L6.666667,NaN L7.222222,NaN L7.777778,NaN L8.333334,NaN L8.888889,NaN L9.444445,NaN L10,NaN L10.55556,NaN L11.11111,NaN L11.66667,NaN L12.22222,NaN L12.77778,NaN L13.33333,NaN L13.88889,NaN L14.44444,NaN L15,NaN L15.55556,NaN L16.11111,NaN L16.66667,NaN L17.22222,NaN L17.77778,NaN L18.33333,NaN L18.88889,NaN L19.44444,NaN L20,NaN L20.55556,NaN L21.11111,NaN L21.66667,NaN L22.22222,NaN L22.77778,NaN L23.33333,NaN L23.88889,NaN L24.44444,NaN L25,NaN L25.55556,NaN L26.11111,NaN L26.66667,NaN L27.22222,NaN L27.77778,NaN L28.33333,NaN L28.88889,NaN L29.44444,NaN L30,NaN L30.55556,NaN L31.11111,NaN L31.66667,NaN L32.22222,NaN L32.77778,NaN L33.33334,NaN L33.88889,NaN L34.44445,NaN L35,NaN L35.55556,NaN L36.11111,NaN L36.66667,NaN L37.22222,NaN L37.77778,NaN L38.33333,NaN L38.88889,NaN L39.44444,NaN L40,NaN L40.55555,NaN L41.11111,NaN L41.66666,NaN L42.22222,NaN L42.77778,NaN L43.33333,NaN L43.88889,NaN L44.44445,NaN L45,NaN L45.55556,NaN L46.11111,NaN L46.66667,NaN L47.22222,NaN L47.77778,NaN L48.33333,NaN L48.88889,NaN L49.44444,NaN L50,NaN L50.55556,NaN L51.11111,NaN L51.66666,NaN L52.22222,NaN L52.77778,NaN L53.33334,NaN L53.88889,NaN L54.44444,NaN L55,NaN L55.55556,NaN L56.11111,NaN L56.66667,NaN L57.22222,NaN L57.77778,NaN L58.33333,NaN L58.88889,NaN L59.44445,NaN L60,NaN L60.55555,NaN L61.11111,NaN L61.66667,NaN L62.22223,NaN L62.77777,NaN L63.33333,NaN L63.88889,NaN L64.44444,NaN L65,NaN L65.55556,NaN L66.11111,NaN L66.66667,NaN L67.22222,NaN L67.77778,NaN L68.33334,NaN L68.88889,NaN L69.44444,NaN L70,NaN L70.55556,NaN L71.11111,NaN L71.66666,NaN L72.22222,NaN L72.77778,NaN L73.33334,NaN L73.88889,NaN L74.44444,NaN L75,NaN L75.55556,NaN L76.11111,NaN L76.66666,NaN L77.22222,NaN L77.77778,NaN L78.33334,NaN L78.88889,NaN L79.44444,NaN L80,NaN L80.55556,NaN L81.11111,NaN L81.66666,NaN L82.22222,NaN L82.77778,NaN L83.33333,NaN L83.88889,NaN L84.44444,NaN L85,NaN L85.55556,NaN L86.11111,NaN L86.66666,NaN L87.22222,NaN L87.77778,NaN L88.33334,NaN L88.88889,NaN L89.44444,NaN L90,NaN L90.55556,NaN L91.11111,NaN L91.66667,NaN L92.22222,NaN L92.77778,NaN L93.33334,NaN L93.88889,NaN L94.44444,NaN L95,NaN L95.55556,NaN L96.11111,NaN L96.66666,NaN L97.22222,NaN L97.77778,NaN L98.33334,NaN L98.88889,NaN L99.44444,NaN L100,NaN L100.5555,NaN L101.1111,NaN L101.6667,NaN L102.2222,NaN L102.7778,NaN L103.3333,NaN L103.8889,NaN L104.4444,NaN L105,NaN L105.5556,NaN L106.1111,NaN L106.6667,NaN L107.2222,NaN L107.7778,NaN L108.3333,NaN L108.8889,NaN L109.4444,NaN L110,NaN L110.5556,NaN L111.1111,NaN L111.6667,NaN L112.2222,NaN L112.7778,NaN L113.3333,NaN L113.8889,NaN L114.4444,NaN L115,NaN L115.5556,NaN L116.1111,NaN L116.6667,NaN L117.2222,NaN L117.7778,NaN L118.3333,NaN L118.8889,NaN L119.4444,NaN L120,NaN L120.5556,NaN L121.1111,NaN L121.6667,NaN L122.2222,NaN L122.7778,NaN L123.3333,NaN L123.8889,NaN L124.4445,NaN L125,NaN L125.5555,NaN L126.1111,NaN L126.6667,NaN L127.2222,NaN L127.7778,NaN L128.3333,NaN L128.8889,NaN L129.4444,NaN L130,NaN L130.5556,NaN L131.1111,NaN L131.6667,NaN L132.2222,NaN L132.7778,NaN L133.3333,NaN L133.8889,NaN L134.4444,NaN L135,NaN L135.5556,NaN L136.1111,NaN L136.6667,NaN L137.2222,NaN L137.7778,NaN L138.3333,NaN L138.8889,NaN L139.4444,NaN L140,NaN L140.5556,NaN L141.1111,NaN L141.6667,NaN L142.2222,NaN L142.7778,NaN L143.3333,NaN L143.8889,NaN L144.4444,NaN L145,NaN L145.5556,NaN L146.1111,NaN L146.6667,NaN L147.2222,NaN L147.7778,NaN L148.3333,NaN L148.8889,NaN L149.4444,NaN L150,NaN L150.5556,NaN L151.1111,NaN L151.6667,NaN L152.2222,NaN L152.7778,NaN L153.3333,NaN L153.8889,NaN L154.4444,NaN L155,NaN L155.5556,NaN L156.1111,NaN L156.6667,NaN L157.2222,NaN L157.7778,NaN L158.3333,NaN L158.8889,NaN L159.4444,NaN L160,NaN L160.5556,NaN L161.1111,NaN L161.6667,NaN L162.2222,NaN L162.7778,NaN L163.3333,NaN L163.8889,NaN L164.4444,NaN L165,NaN L165.5556,NaN L166.1111,NaN L166.6667,NaN L167.2222,NaN L167.7778,NaN L168.3333,NaN L168.8889,NaN L169.4444,NaN L170,NaN L170.5556,NaN L171.1111,NaN L171.6667,NaN L172.2222,NaN L172.7778,NaN L173.3333,NaN L173.8889,NaN L174.4444,NaN L175,NaN L175.5556,NaN L176.1111,NaN L176.6667,NaN L177.2222,NaN L177.7778,NaN L178.3333,NaN L178.8889,NaN L179.4444,NaN L180,NaN L180.5556,NaN L181.1111,NaN L181.6667,NaN L182.2222,NaN L182.7778,NaN L183.3333,NaN L183.8889,NaN L184.4444,NaN L185,NaN L185.5556,NaN L186.1111,NaN L186.6667,NaN L187.2222,NaN L187.7778,NaN L188.3333,NaN L188.8889,NaN L189.4444,NaN L190,NaN L190.5556,NaN L191.1111,NaN L191.6667,NaN L192.2222,NaN L192.7778,NaN L193.3333,NaN L193.8889,NaN L194.4444,NaN L195,NaN L195.5556,NaN L196.1111,NaN L196.6667,NaN L197.2222,NaN L197.7778,NaN L198.3333,NaN L198.8889,NaN L199.4444,NaN L200,NaN " stroke="blue" fill="none" />
<text x="10" y="1360" font-family="Arial" font-size="12" fill="black">Epsilon</text>
<path d="M10,4.000002E+09 L210,4.000002E+09" stroke="gray" />
<text x="5" y="4.000002E+09" font-family="Arial" font-size="10" fill="black">0</text>
<text x="5" y="1380" font-family="Arial" font-size="10" fill="black">0.2</text>
<text x="5" y="1580" font-family="Arial" font-size="10" fill="black">0.2</text>
<path d="M0.5555556,NaN L1.111111,NaN L1.666667,NaN L2.222222,NaN L2.777778,NaN L3.333333,NaN L3.888889,NaN L4.444445,NaN L5,NaN L5.555556,NaN L6.111111,NaN L6.666667,NaN L7.222222,NaN L7.777778,NaN L8.333334,NaN L8.888889,NaN L9.444445,NaN L10,NaN L10.55556,NaN L11.11111,NaN L11.66667,NaN L12.22222,NaN L12.77778,NaN L13.33333,NaN L13.88889,NaN L14.44444,NaN L15,NaN L15.55556,NaN L16.11111,NaN L16.66667,NaN L17.22222,NaN L17.77778,NaN L18.33333,NaN L18.88889,NaN L19.44444,NaN L20,NaN L20.55556,NaN L21.11111,NaN L21.66667,NaN L22.22222,NaN L22.77778,NaN L23.33333,NaN L23.88889,NaN L24.44444,NaN L25,NaN L25.55556,NaN L26.11111,NaN L26.66667,NaN L27.22222,NaN L27.77778,NaN L28.33333,NaN L28.88889,NaN L29.44444,NaN L30,NaN L30.55556,NaN L31.11111,NaN L31.66667,NaN L32.22222,NaN L32.77778,NaN L33.33334,NaN L33.88889,NaN L34.44445,NaN L35,NaN L35.55556,NaN L36.11111,NaN L36.66667,NaN L37.22222,NaN L37.77778,NaN L38.33333,NaN L38.88889,NaN L39.44444,NaN L40,NaN L40.55555,NaN L41.11111,NaN L41.66666,NaN L42.22222,NaN L42.77778,NaN L43.33333,NaN L43.88889,NaN L44.44445,NaN L45,NaN L45.55556,NaN L46.11111,NaN L46.66667,NaN L47.22222,NaN L47.77778,NaN L48.33333,NaN L48.88889,NaN L49.44444,NaN L50,NaN L50.55556,NaN L51.11111,NaN L51.66666,NaN L52.22222,NaN L52.77778,NaN L53.33334,NaN L53.88889,NaN L54.44444,NaN L55,NaN L55.55556,NaN L56.11111,NaN L56.66667,NaN L57.22222,NaN L57.77778,NaN L58.33333,NaN L58.88889,NaN L59.44445,NaN L60,NaN L60.55555,NaN L61.11111,NaN L61.66667,NaN L62.22223,NaN L62.77777,NaN L63.33333,NaN L63.88889,NaN L64.44444,NaN L65,NaN L65.55556,NaN L66.11111,NaN L66.66667,NaN L67.22222,NaN L67.77778,NaN L68.33334,NaN L68.88889,NaN L69.44444,NaN L70,NaN L70.55556,NaN L71.11111,NaN L71.66666,NaN L72.22222,NaN L72.77778,NaN L73.33334,NaN L73.88889,NaN L74.44444,NaN L75,NaN L75.55556,NaN L76.11111,NaN L76.66666,NaN L77.22222,NaN L77.77778,NaN L78.33334,NaN L78.88889,NaN L79.44444,NaN L80,NaN L80.55556,NaN L81.11111,NaN L81.66666,NaN L82.22222,NaN L82.77778,NaN L83.33333,NaN L83.88889,NaN L84.44444,NaN L85,NaN L85.55556,NaN L86.11111,NaN L86.66666,NaN L87.22222,NaN L87.77778,NaN L88.33334,NaN L88.88889,NaN L89.44444,NaN L90,NaN L90.55556,NaN L91.11111,NaN L91.66667,NaN L92.22222,NaN L92.77778,NaN L93.33334,NaN L93.88889,NaN L94.44444,NaN L95,NaN L95.55556,NaN L96.11111,NaN L96.66666,NaN L97.22222,NaN L97.77778,NaN L98.33334,NaN L98.88889,NaN L99.44444,NaN L100,NaN L100.5555,NaN L101.1111,NaN L101.6667,NaN L102.2222,NaN L102.7778,NaN L103.3333,NaN L103.8889,NaN L104.4444,NaN L105,NaN L105.5556,NaN L106.1111,NaN L106.6667,NaN L107.2222,NaN L107.7778,NaN L108.3333,NaN L108.8889,NaN L109.4444,NaN L110,NaN L110.5556,NaN L111.1111,NaN L111.6667,NaN L112.2222,NaN L112.7778,NaN L113.3333,NaN L113.8889,NaN L114.4444,NaN L115,NaN L115.5556,NaN L116.1111,NaN L116.6667,NaN L117.2222,NaN L117.7778,NaN L118.3333,NaN L118.8889,NaN L119.4444,NaN L120,NaN L120.5556,NaN L121.1111,NaN L121.6667,NaN L122.2222,NaN L122.7778,NaN L123.3333,NaN L123.8889,NaN L124.4445,NaN L125,NaN L125.5555,NaN L126.1111,NaN L126.6667,NaN L127.2222,NaN L127.7778,NaN L128.3333,NaN L128.8889,NaN L129.4444,NaN L130,NaN L130.5556,NaN L131.1111,NaN L131.6667,NaN L132.2222,NaN L132.7778,NaN L133.3333,NaN L133.8889,NaN L134.4444,NaN L135,NaN L135.5556,NaN L136.1111,NaN L136.6667,NaN L137.2222,NaN L137.7778,NaN L138.3333,NaN L138.8889,NaN L139.4444,NaN L140,NaN L140.5556,NaN L141.1111,NaN L141.6667,NaN L142.2222,NaN L142.7778,NaN L143.3333,NaN L143.8889,NaN L144.4444,NaN L145,NaN L145.5556,NaN L146.1111,NaN L146.6667,NaN L147.2222,NaN L147.7778,NaN L148.3333,NaN L148.8889,NaN L149.4444,NaN L150,NaN L150.5556,NaN L151.1111,NaN L151.6667,NaN L152.2222,NaN L152.7778,NaN L153.3333,NaN L153.8889,NaN L154.4444,NaN L155,NaN L155.5556,NaN L156.1111,NaN L156.6667,NaN L157.2222,NaN L157.7778,NaN L158.3333,NaN L158.8889,NaN L159.4444,NaN L160,NaN L160.5556,NaN L161.1111,NaN L161.6667,NaN L162.2222,NaN L162.7778,NaN L163.3333,NaN L163.8889,NaN L164.4444,NaN L165,NaN L165.5556,NaN L166.1111,NaN L166.6667,NaN L167.2222,NaN L167.7778,NaN L168.3333,NaN L168.8889,NaN L169.4444,NaN L170,NaN L170.5556,NaN L171.1111,NaN L171.6667,NaN L172.2222,NaN L172.7778,NaN L173.3333,NaN L173.8889,NaN L174.4444,NaN L175,NaN L175.5556,NaN L176.1111,NaN L176.6667,NaN L177.2222,NaN L177.7778,NaN L178.3333,NaN L178.8889,NaN L179.4444,NaN L180,NaN L180.5556,NaN L181.1111,NaN L181.6667,NaN L182.2222,NaN L182.7778,NaN L183.3333,NaN L183.8889,NaN L184.4444,NaN L185,NaN L185.5556,NaN L186.1111,NaN L186.6667,NaN L187.2222,NaN L187.7778,NaN L188.3333,NaN L188.8889,NaN L189.4444,NaN L190,NaN L190.5556,NaN L191.1111,NaN L191.6667,NaN L192.2222,NaN L192.7778,NaN L193.3333,NaN L193.8889,NaN L194.4444,NaN L195,NaN L195.5556,NaN L196.1111,NaN L196.6667,NaN L197.2222,NaN L197.7778,NaN L198.3333,NaN L198.8889,NaN L199.4444,NaN L200,NaN " stroke="blue" fill="none" />
</svg>
