<svg width="2000" height="2500" xmlns="http://www.w3.org/2000/svg">
<text x="10" y="20" font-family="Arial" font-size="26" fill="black"> [HumanWalk] Training Session</text>
<text x="10" y="50" font-family="Arial" font-size="16" fill="black">[Statistics]</text>
<text x="50" y="70" font-family="Arial" font-size="12" fill="black">Started at: 8:58:25 PM, Thursday, October 12, 2023</text>
<text x="50" y="90" font-family="Arial" font-size="12" fill="black">Finished at: 9:01:42 PM, Thursday, October 12, 2023</text>
<text x="50" y="110" font-family="Arial" font-size="12" fill="black">Training Session Time: 0 hrs : 3 min : 16 sec</text>
<text x="50" y="130" font-family="Arial" font-size="12" fill="black">Inference Time: 0 hrs : 5 min : 36 sec       [Per agent: 0 hrs : 5 min : 36 sec]        [Device: CPU]</text>
<text x="50" y="150" font-family="Arial" font-size="12" fill="black">Policy Update Time: 0 hrs : 0 min : 20 sec        [Per iteration: 0 hrs : 0 min : 19 sec]        [Device: GPU]</text>
<text x="50" y="170" font-family="Arial" font-size="12" fill="black">Inference Time / Training Session Time: 1.688</text>
<text x="50" y="190" font-family="Arial" font-size="12" fill="black">Policy Update Time / Training Session Time: 0.099</text>
<text x="50" y="210" font-family="Arial" font-size="12" fill="black">Episode Count: 251</text>
<text x="50" y="230" font-family="Arial" font-size="12" fill="black">Inference Steps: 8192    [Per agent: 8192]     [Per Episode (mean): 32]</text>
<text x="50" y="250" font-family="Arial" font-size="12" fill="black">Iterations: 1</text>
<text x="50" y="270" font-family="Arial" font-size="12" fill="black">Parallel Agents: 1</text>
<text x="50" y="290" font-family="Arial" font-size="12" fill="black">Timescale: 4</text>
<text x="10" y="340" font-family="Arial" font-size="16" fill="black">[Hyperparameters]</text>
<text x="50" y="360" font-family="Arial" font-size="12" fill="black">Buffer Size: 8192        [Batch Size: 512       (x16)]</text>
<text x="50" y="380" font-family="Arial" font-size="12" fill="black">Num Epoch: 8</text>
<text x="50" y="400" font-family="Arial" font-size="12" fill="black">Time Horizon: 64</text>
<text x="50" y="420" font-family="Arial" font-size="12" fill="black">Gradient Cliping Normalization: 0.5</text>
<text x="50" y="440" font-family="Arial" font-size="12" fill="black">Advantages Normalization: True</text>
<text x="50" y="460" font-family="Arial" font-size="12" fill="black">Training Data Shuffle: True</text>
<text x="50" y="480" font-family="Arial" font-size="12" fill="black">Learning Rate Schedule: False    </text>
<text x="10" y="530" font-family="Arial" font-size="16" fill="black">[Behaviour]</text>
<text x="50" y="550" font-family="Arial" font-size="12" fill="black">Space Size: 142</text>
<text x="50" y="570" font-family="Arial" font-size="12" fill="black">Continuous Actions: 29 [Standard Deviation: Fixed]     [Value: 1.5]</text>
<text x="50" y="590" font-family="Arial" font-size="12" fill="black">Discrete Actions: 0</text>
<text x="50" y="610" font-family="Arial" font-size="12" fill="black">TargetFPS: 50 (physics update rate)</text>
<text x="50" y="630" font-family="Arial" font-size="12" fill="black">Observations Normalization: False</text>
<text x="10" y="680" font-family="Arial" font-size="16" fill="black">[Decision Requester]</text>
<text x="50" y="700" font-family="Arial" font-size="12" fill="black">Max Step: 3000</text>
<text x="50" y="720" font-family="Arial" font-size="12" fill="black">Decision Period: 2      [Actions Between Decisions: True]</text>
<text x="10" y="770" font-family="Arial" font-size="16" fill="black">[Graphs]</text>
<text x="50" y="790" font-family="Arial" font-size="12" fill="black">Episode Reward (251)</text>
<text x="50" y="805" font-family="Arial" font-size="10" fill="black">1.552213</text>
<text x="50" y="1020" font-family="Arial" font-size="10" fill="black">0.4590355</text>
<path d="M50,964.2347 L51.5625,924.0649 L53.125,1004.014 L54.6875,896.5221 L56.25,934.6738 L57.8125,959.4885 L59.375,868.4978 L60.9375,922.4484 L62.5,977.2141 L64.0625,985.2562 L65.625,922.2284 L67.1875,959.0758 L68.75,982.158 L70.3125,998.4394 L71.875,938.7468 L73.4375,975.4375 L75,986.013 L76.5625,914.355 L78.125,987.3186 L79.6875,939.924 L81.25,916.8134 L82.8125,973.6341 L84.375,964.4754 L85.9375,923.5483 L87.5,985.8 L89.0625,896.4866 L90.625,963.0328 L92.1875,967.1904 L93.75,1003.509 L95.3125,977.7755 L96.875,886.4933 L98.4375,979.4221 L100,958.3822 L101.5625,973.3434 L103.125,980.9111 L104.6875,953.6395 L106.25,926.8668 L107.8125,992.6302 L109.375,957.2089 L110.9375,906.0914 L112.5,990.5754 L114.0625,928.897 L115.625,936.1826 L117.1875,969.211 L118.75,978.4423 L120.3125,1000.236 L121.875,939.817 L123.4375,973.6531 L125,981.584 L126.5625,944.3223 L128.125,958.6933 L129.6875,962.8329 L131.25,1003.129 L132.8125,975.0212 L134.375,970.0865 L135.9375,950.3666 L137.5,989.9092 L139.0625,984.1803 L140.625,968.5193 L142.1875,909.6427 L143.75,925.233 L145.3125,895.6082 L146.875,967.554 L148.4375,908.4559 L150,949.9901 L151.5625,960.2186 L153.125,947.0234 L154.6875,966.0496 L156.25,956.5659 L157.8125,978.4995 L159.375,957.3005 L160.9375,939.6132 L162.5,916.0344 L164.0625,1003.064 L165.625,861.5686 L167.1875,962.237 L168.75,992.0023 L170.3125,919.095 L171.875,996.1104 L173.4375,990.42 L175,930.7483 L176.5625,995.2001 L178.125,980.2825 L179.6875,936.9907 L181.25,928.0795 L182.8125,940.6813 L184.375,946.6338 L185.9375,945.4405 L187.5,953.6652 L189.0625,957.2359 L190.625,957.7764 L192.1875,930.2293 L193.75,947.6223 L195.3125,968.8507 L196.875,967.9893 L198.4375,989.3022 L200,943.0428 L201.5625,986.7599 L203.125,969.2908 L204.6875,937.7711 L206.25,931.0626 L207.8125,975.16 L209.375,997.2828 L210.9375,960.9365 L212.5,864.0953 L214.0625,887.4952 L215.625,890.5566 L217.1875,961.2837 L218.75,972.6686 L220.3125,950.3622 L221.875,975.7842 L223.4375,944.9865 L225,973.8997 L226.5625,912.6187 L228.125,1006.979 L229.6875,936.0361 L231.25,994.1232 L232.8125,971.4111 L234.375,984.8124 L235.9375,925.5987 L237.5,985.7661 L239.0625,965.4129 L240.625,926.459 L242.1875,968.2775 L243.75,989.7679 L245.3125,932.0822 L246.875,842.9477 L248.4375,907.7902 L250,988.8221 L251.5625,948.8149 L253.125,978.4357 L254.6875,989.9175 L256.25,935.561 L257.8125,913.1118 L259.375,955.4395 L260.9375,955.2269 L262.5,923.1017 L264.0625,953.754 L265.625,952.8751 L267.1875,967.7089 L268.75,965.9979 L270.3125,959.6923 L271.875,984.567 L273.4375,947.0477 L275,932.4667 L276.5625,951.2367 L278.125,988.7855 L279.6875,933.6216 L281.25,1010 L282.8125,977.9116 L284.375,982.2851 L285.9375,956.0795 L287.5,936.6694 L289.0625,912.4055 L290.625,996.2864 L292.1875,972.2715 L293.75,835.9109 L295.3125,880.9501 L296.875,963.5931 L298.4375,964.7178 L300,981.8032 L301.5625,979.078 L303.125,989.6393 L304.6875,982.1047 L306.25,1003.779 L307.8125,810 L309.375,975.251 L310.9375,922.3886 L312.5,995.2228 L314.0625,928.3954 L315.625,982.1903 L317.1875,878.8206 L318.75,980.3395 L320.3125,861.3746 L321.875,958.0327 L323.4375,996.564 L325,946.7569 L326.5625,963.1479 L328.125,922.1067 L329.6875,980.7931 L331.25,970.8123 L332.8125,985.3911 L334.375,981.807 L335.9375,954.5144 L337.5,990.9435 L339.0625,923.3679 L340.625,987.069 L342.1875,941.1645 L343.75,968.1798 L345.3125,966.7803 L346.875,932.6427 L348.4375,960.307 L350,975.9563 L351.5625,968.2822 L353.125,973.3541 L354.6875,933.0447 L356.25,953.2261 L357.8125,938.0332 L359.375,978.2156 L360.9375,999.6348 L362.5,970.2991 L364.0625,941.7043 L365.625,963.6246 L367.1875,971.333 L368.75,857.1461 L370.3125,984.6331 L371.875,951.1569 L373.4375,974.5348 L375,977.4759 L376.5625,959.7355 L378.125,953.7606 L379.6875,1000.58 L381.25,943.7257 L382.8125,902.4732 L384.375,967.813 L385.9375,979.5231 L387.5,952.5865 L389.0625,944.6536 L390.625,970.444 L392.1875,954.3047 L393.75,976.3146 L395.3125,950.4952 L396.875,972.6406 L398.4375,973.8158 L400,977.8375 L401.5625,919.322 L403.125,978.4382 L404.6875,915.734 L406.25,983.5414 L407.8125,914.0009 L409.375,934.0854 L410.9375,966.2878 L412.5,966.216 L414.0625,904.92 L415.625,941.5069 L417.1875,980.7761 L418.75,953.9227 L420.3125,939.999 L421.875,989.9903 L423.4375,989.7603 L425,929.3201 L426.5625,983.3475 L428.125,1001.936 L429.6875,957.0658 L431.25,973.0363 L432.8125,927.8271 L434.375,943.3096 L435.9375,901.8205 L437.5,916.2121 L439.0625,984.0294 L440.625,939.7813 " stroke="blue" fill="none" />
<text x="50" y="1060" font-family="Arial" font-size="12" fill="black">Episode Length (251)</text>
<text x="50" y="1075" font-family="Arial" font-size="10" fill="black">68</text>
<text x="50" y="1290" font-family="Arial" font-size="10" fill="black">19</text>
<path d="M50,1226.939 L51.5625,1173.878 L53.125,1275.918 L54.6875,1165.714 L56.25,1206.531 L57.8125,1214.694 L59.375,1120.816 L60.9375,1190.204 L62.5,1243.265 L64.0625,1259.592 L65.625,1186.122 L67.1875,1206.531 L68.75,1251.429 L70.3125,1271.837 L71.875,1206.531 L73.4375,1231.02 L75,1255.51 L76.5625,1182.041 L78.125,1259.592 L79.6875,1214.694 L81.25,1177.959 L82.8125,1226.939 L84.375,1226.939 L85.9375,1202.449 L87.5,1259.592 L89.0625,1141.224 L90.625,1226.939 L92.1875,1239.184 L93.75,1271.837 L95.3125,1239.184 L96.875,1153.469 L98.4375,1239.184 L100,1206.531 L101.5625,1247.347 L103.125,1251.429 L104.6875,1214.694 L106.25,1190.204 L107.8125,1263.673 L109.375,1222.857 L110.9375,1186.122 L112.5,1263.673 L114.0625,1177.959 L115.625,1202.449 L117.1875,1239.184 L118.75,1247.347 L120.3125,1271.837 L121.875,1214.694 L123.4375,1239.184 L125,1255.51 L126.5625,1206.531 L128.125,1222.857 L129.6875,1226.939 L131.25,1275.918 L132.8125,1231.02 L134.375,1239.184 L135.9375,1218.776 L137.5,1263.673 L139.0625,1259.592 L140.625,1243.265 L142.1875,1173.878 L143.75,1202.449 L145.3125,1153.469 L146.875,1247.347 L148.4375,1182.041 L150,1214.694 L151.5625,1226.939 L153.125,1206.531 L154.6875,1231.02 L156.25,1226.939 L157.8125,1251.429 L159.375,1218.776 L160.9375,1202.449 L162.5,1182.041 L164.0625,1275.918 L165.625,1116.735 L167.1875,1239.184 L168.75,1263.673 L170.3125,1182.041 L171.875,1267.755 L173.4375,1263.673 L175,1190.204 L176.5625,1267.755 L178.125,1251.429 L179.6875,1206.531 L181.25,1186.122 L182.8125,1173.878 L184.375,1210.612 L185.9375,1202.449 L187.5,1218.776 L189.0625,1231.02 L190.625,1214.694 L192.1875,1202.449 L193.75,1214.694 L195.3125,1243.265 L196.875,1226.939 L198.4375,1263.673 L200,1198.367 L201.5625,1255.51 L203.125,1226.939 L204.6875,1214.694 L206.25,1202.449 L207.8125,1243.265 L209.375,1267.755 L210.9375,1239.184 L212.5,1133.061 L214.0625,1161.633 L215.625,1173.878 L217.1875,1218.776 L218.75,1243.265 L220.3125,1206.531 L221.875,1243.265 L223.4375,1210.612 L225,1247.347 L226.5625,1177.959 L228.125,1280 L229.6875,1214.694 L231.25,1263.673 L232.8125,1243.265 L234.375,1259.592 L235.9375,1182.041 L237.5,1255.51 L239.0625,1231.02 L240.625,1186.122 L242.1875,1218.776 L243.75,1263.673 L245.3125,1198.367 L246.875,1088.163 L248.4375,1165.714 L250,1259.592 L251.5625,1218.776 L253.125,1251.429 L254.6875,1259.592 L256.25,1186.122 L257.8125,1182.041 L259.375,1210.612 L260.9375,1222.857 L262.5,1190.204 L264.0625,1218.776 L265.625,1206.531 L267.1875,1231.02 L268.75,1239.184 L270.3125,1235.102 L271.875,1255.51 L273.4375,1210.612 L275,1194.286 L276.5625,1222.857 L278.125,1259.592 L279.6875,1198.367 L281.25,1280 L282.8125,1243.265 L284.375,1255.51 L285.9375,1231.02 L287.5,1194.286 L289.0625,1165.714 L290.625,1267.755 L292.1875,1243.265 L293.75,1112.653 L295.3125,1141.224 L296.875,1235.102 L298.4375,1235.102 L300,1251.429 L301.5625,1255.51 L303.125,1263.673 L304.6875,1239.184 L306.25,1275.918 L307.8125,1080 L309.375,1247.347 L310.9375,1194.286 L312.5,1267.755 L314.0625,1198.367 L315.625,1255.51 L317.1875,1149.388 L318.75,1251.429 L320.3125,1096.327 L321.875,1231.02 L323.4375,1267.755 L325,1210.612 L326.5625,1226.939 L328.125,1190.204 L329.6875,1243.265 L331.25,1231.02 L332.8125,1259.592 L334.375,1251.429 L335.9375,1214.694 L337.5,1263.673 L339.0625,1198.367 L340.625,1259.592 L342.1875,1218.776 L343.75,1231.02 L345.3125,1235.102 L346.875,1198.367 L348.4375,1222.857 L350,1251.429 L351.5625,1235.102 L353.125,1239.184 L354.6875,1210.612 L356.25,1206.531 L357.8125,1186.122 L359.375,1251.429 L360.9375,1271.837 L362.5,1239.184 L364.0625,1190.204 L365.625,1235.102 L367.1875,1226.939 L368.75,1128.98 L370.3125,1259.592 L371.875,1210.612 L373.4375,1247.347 L375,1231.02 L376.5625,1226.939 L378.125,1218.776 L379.6875,1271.837 L381.25,1218.776 L382.8125,1161.633 L384.375,1243.265 L385.9375,1247.347 L387.5,1206.531 L389.0625,1198.367 L390.625,1239.184 L392.1875,1222.857 L393.75,1247.347 L395.3125,1222.857 L396.875,1235.102 L398.4375,1226.939 L400,1243.265 L401.5625,1182.041 L403.125,1247.347 L404.6875,1182.041 L406.25,1231.02 L407.8125,1182.041 L409.375,1198.367 L410.9375,1239.184 L412.5,1243.265 L414.0625,1173.878 L415.625,1190.204 L417.1875,1255.51 L418.75,1210.612 L420.3125,1214.694 L421.875,1259.592 L423.4375,1259.592 L425,1190.204 L426.5625,1255.51 L428.125,1275.918 L429.6875,1222.857 L431.25,1247.347 L432.8125,1206.531 L434.375,1218.776 L435.9375,1173.878 L437.5,1165.714 L439.0625,1255.51 L440.625,1194.286 " stroke="blue" fill="none" />
<text x="50" y="1330" font-family="Arial" font-size="12" fill="black">Policy Loss</text>
<text x="50" y="1345" font-family="Arial" font-size="10" fill="black">0.001644429</text>
<text x="50" y="1560" font-family="Arial" font-size="10" fill="black">0.0009505308</text>
<path d="M50,1516.459 L75,1545.008 L100,1493.819 L125,1550 L150,1350.003 L175,1532.138 L200,1545.624 L225,1494.609 " stroke="blue" fill="none" />
<text x="50" y="1600" font-family="Arial" font-size="12" fill="black">Value Loss</text>
<text x="50" y="1615" font-family="Arial" font-size="10" fill="black">0.008483191</text>
<text x="50" y="1830" font-family="Arial" font-size="10" fill="black">0.000790942</text>
<path d="M50,1620 L75,1759.246 L100,1794.372 L125,1805.688 L150,1811.629 L175,1815.355 L200,1817.958 L225,1820 " stroke="blue" fill="none" />
<text x="50" y="1870" font-family="Arial" font-size="12" fill="black">Learning Rate</text>
<text x="50" y="1885" font-family="Arial" font-size="10" fill="black">0.0003</text>
<text x="50" y="2100" font-family="Arial" font-size="10" fill="black">0.0003</text>
<path d="M50,2090 L75,2090 L100,2090 L125,2090 L150,2090 L175,2090 L200,2090 L225,2090 " stroke="blue" fill="none" />
<text x="50" y="2140" font-family="Arial" font-size="12" fill="black">Epsilon</text>
<text x="50" y="2155" font-family="Arial" font-size="10" fill="black">0.2</text>
<text x="50" y="2370" font-family="Arial" font-size="10" fill="black">0.2</text>
<path d="M50,2360 L75,2360 L100,2360 L125,2360 L150,2360 L175,2360 L200,2360 L225,2360 " stroke="blue" fill="none" />
<text x="750" y="790" font-family="Arial" font-size="12" fill="black">Simplified</text>
<text x="750" y="805" font-family="Arial" font-size="10" fill="black">0.8664582</text>
<text x="750" y="1020" font-family="Arial" font-size="10" fill="black">0.7103918</text>
<path d="M778.125,930.3428 L807.8125,953.8231 L837.5,1010 L867.1875,877.6871 L896.875,961.6297 L926.5625,902.388 L956.25,959.4037 L985.9375,971.1617 L1015.625,898.0736 L1045.313,951.6435 L1075,968.8375 L1104.688,965.0008 L1134.375,960.0799 L1140.625,810 " stroke="blue" fill="none" />
<text x="750" y="1060" font-family="Arial" font-size="12" fill="black">Simplified</text>
<text x="750" y="1075" font-family="Arial" font-size="10" fill="black">39.25</text>
<text x="750" y="1290" font-family="Arial" font-size="10" fill="black">30.78947</text>
<path d="M778.125,1195.397 L807.8125,1215.303 L837.5,1280 L867.1875,1173.002 L896.875,1222.768 L926.5625,1195.397 L956.25,1225.257 L985.9375,1243.919 L1015.625,1194.152 L1045.313,1226.501 L1075,1230.233 L1104.688,1230.233 L1134.375,1240.187 L1140.625,1080 " stroke="blue" fill="none" />
</svg>
