<svg width="2000" height="2500" xmlns="http://www.w3.org/2000/svg">
<text x="10" y="20" font-family="Arial" font-size="26" fill="black"> [HumanWalk] Training Session</text>
<text x="10" y="50" font-family="Arial" font-size="16" fill="black">[Statistics]</text>
<text x="50" y="70" font-family="Arial" font-size="12" fill="black">Started at: 2:46:18 PM, Saturday, December 23, 2023</text>
<text x="50" y="90" font-family="Arial" font-size="12" fill="black">Finished at: 2:48:30 PM, Saturday, December 23, 2023</text>
<text x="50" y="110" font-family="Arial" font-size="12" fill="black">Training Session Time: 0 hrs : 2 min : 11 sec</text>
<text x="50" y="130" font-family="Arial" font-size="12" fill="black">Inference Time: 0 hrs : 26 min : 4 sec       [Per agent: 0 hrs : 0 min : 44 sec]        [Device: CPU]</text>
<text x="50" y="150" font-family="Arial" font-size="12" fill="black">Policy Update Time: 0 hrs : 1 min : 12 sec        [Per iteration: 0 hrs : 0 min : 15 sec]        [Device: GPU]</text>
<text x="50" y="170" font-family="Arial" font-size="12" fill="black">Inference Time / Training Session Time: 11.611</text>
<text x="50" y="190" font-family="Arial" font-size="12" fill="black">Policy Update Time / Training Session Time: 0.547</text>
<text x="50" y="210" font-family="Arial" font-size="12" fill="black">Episode Count: 644</text>
<text x="50" y="230" font-family="Arial" font-size="12" fill="black">Inference Steps: 52331    [Per agent: 1453]     [Per Episode (mean): 81]</text>
<text x="50" y="250" font-family="Arial" font-size="12" fill="black">Iterations: 4</text>
<text x="50" y="270" font-family="Arial" font-size="12" fill="black">Parallel Agents: 36</text>
<text x="50" y="290" font-family="Arial" font-size="12" fill="black">Timescale: 1</text>
<text x="50" y="310" font-family="Arial" font-size="12" fill="black">Trainer: PPO</text>
<text x="10" y="360" font-family="Arial" font-size="16" fill="black">[Hyperparameters]</text>
<text x="50" y="380" font-family="Arial" font-size="12" fill="black">Buffer Size: 10240        [Batch Size: 512       (x20)]</text>
<text x="50" y="400" font-family="Arial" font-size="12" fill="black">Num Epoch: 10</text>
<text x="50" y="420" font-family="Arial" font-size="12" fill="black">Time Horizon: 64</text>
<text x="50" y="440" font-family="Arial" font-size="12" fill="black">Gradient Cliping Normalization: 0.5</text>
<text x="50" y="460" font-family="Arial" font-size="12" fill="black">Learning Rate Schedule: False    </text>
<text x="10" y="510" font-family="Arial" font-size="16" fill="black">[Behaviour]</text>
<text x="50" y="530" font-family="Arial" font-size="12" fill="black">Space Size: 130</text>
<text x="50" y="550" font-family="Arial" font-size="12" fill="black">Continuous Actions: 44 [Standard Deviation: Fixed]     [Value: 0.61]</text>
<text x="50" y="570" font-family="Arial" font-size="12" fill="black">Discrete Actions: 0</text>
<text x="50" y="590" font-family="Arial" font-size="12" fill="black">TargetFPS: 100 (physics update rate)</text>
<text x="50" y="610" font-family="Arial" font-size="12" fill="black">Observations Normalization: False</text>
<text x="10" y="660" font-family="Arial" font-size="16" fill="black">[Decision Requester]</text>
<text x="50" y="680" font-family="Arial" font-size="12" fill="black">Max Step: 6000</text>
<text x="50" y="700" font-family="Arial" font-size="12" fill="black">Decision Period: 3      [Actions Between Decisions: True]</text>
<text x="10" y="750" font-family="Arial" font-size="16" fill="black">[Graphs]</text>
<text x="50" y="770" font-family="Arial" font-size="12" fill="black">Episode Reward (644)</text>
<text x="50" y="785" font-family="Arial" font-size="10" fill="black">0.9018409</text>
<text x="50" y="1000" font-family="Arial" font-size="10" fill="black">0.1296005</text>
<path d="M50,974.9543 L50.39063,974.7694 L50.78125,970.0587 L51.17188,964.0889 L51.5625,963.513 L51.95313,963.4083 L52.34375,962.0771 L52.73438,958.1791 L53.125,960.8956 L53.51563,958.8282 L53.90625,958.338 L54.29688,960.8746 L54.6875,951.605 L55.07813,951.0645 L55.46875,948.624 L55.85938,947.6223 L56.25,946.2521 L56.64063,943.0134 L57.03125,945.7294 L57.42188,947.0036 L57.8125,941.9606 L58.20313,938.2921 L58.59375,933.1943 L58.98438,932.1329 L59.375,935.5416 L59.76563,932.1323 L60.15625,936.5584 L60.54688,929.8866 L60.9375,922.7438 L61.32813,924.2415 L61.71875,915.3362 L62.10938,973.8553 L62.5,913.2086 L62.89063,917.8395 L63.28125,909.2287 L63.67188,973.2568 L64.0625,963.287 L64.45313,962.0187 L64.84375,944.6484 L65.23438,936.3344 L65.625,887.2402 L66.01563,948.4411 L66.40625,964.7423 L66.79688,974.3669 L67.1875,971.7053 L67.57813,964.3652 L67.96875,939.3998 L68.35938,950.5948 L68.75,945.7587 L69.14063,969.4976 L69.53125,925.7311 L69.92188,974.5789 L70.3125,977.1479 L70.70313,910.3888 L71.09375,949.9867 L71.48438,925.9733 L71.875,932.7906 L72.26563,929.9197 L72.65625,937.5871 L73.04688,942.1921 L73.4375,921.7548 L73.82813,932.1464 L74.21875,948.5266 L74.60938,968.8484 L75,967.9853 L75.39063,939.6958 L75.78125,961.3971 L76.17188,919.5267 L76.5625,893.4993 L76.95313,960.6984 L77.34375,966.2689 L77.73438,931.6101 L78.125,884.1653 L78.51563,945.7449 L78.90625,915.7544 L79.29688,946.3248 L79.6875,867.9821 L80.07813,790 L80.46875,942.3876 L80.85938,926.4438 L81.25,951.7468 L81.64063,947.5998 L82.03125,952.2529 L82.42188,960.6931 L82.8125,939.5993 L83.20313,935.4412 L83.59375,845.3465 L83.98438,939.3672 L84.375,944.2783 L84.76563,922.3598 L85.15625,954.2286 L85.54688,929.6901 L85.9375,956.3994 L86.32813,950.1336 L86.71875,936.1224 L87.10938,880.3137 L87.5,890.7415 L87.89063,946.597 L88.28125,959.0995 L88.67188,933.2039 L89.0625,973.7463 L89.45313,899.2409 L89.84375,929.5348 L90.23438,935.9235 L90.625,960.7077 L91.01563,955.2366 L91.40625,950.4183 L91.79688,968.7908 L92.1875,942.7634 L92.57813,956.4637 L92.96875,924.5681 L93.35938,916.9894 L93.75,954.329 L94.14063,982.9279 L94.53125,947.152 L94.92188,891.0848 L95.3125,921.7026 L95.70313,957.0865 L96.09375,968.4186 L96.48438,883.7145 L96.875,946.1732 L97.26563,968.7307 L97.65625,972.3013 L98.04688,882.6088 L98.4375,975.4636 L98.82813,960.6191 L99.21875,930.4396 L99.60938,978.5682 L100,963.1342 L100.3906,947.8558 L100.7813,903.1248 L101.1719,951.123 L101.5625,946.1114 L101.9531,946.8607 L102.3438,962.3846 L102.7344,968.3306 L103.125,903.4747 L103.5156,956.5852 L103.9063,957.982 L104.2969,958.2589 L104.6875,971.2395 L105.0781,970.4585 L105.4688,872.822 L105.8594,977.8822 L106.25,933.4437 L106.6406,966.3939 L107.0313,975.6437 L107.4219,974.7281 L107.8125,936.1767 L108.2031,954.6058 L108.5938,931.5286 L108.9844,960.5674 L109.375,927.728 L109.7656,881.8092 L110.1563,947.4822 L110.5469,953.274 L110.9375,935.2675 L111.3281,964.4254 L111.7188,923.1296 L112.1094,941.4448 L112.5,918.8683 L112.8906,902.459 L113.2813,846.8729 L113.6719,933.9418 L114.0625,977.8442 L114.4531,963.3819 L114.8438,902.6307 L115.2344,947.6871 L115.625,940.0361 L116.0156,959.0886 L116.4063,920.8472 L116.7969,884.1243 L117.1875,893.0333 L117.5781,940.6226 L117.9688,938.1949 L118.3594,937.3047 L118.75,961.9006 L119.1406,915.9004 L119.5313,906.5045 L119.9219,965.5392 L120.3125,932.5947 L120.7031,887.928 L121.0938,923.4839 L121.4844,938.7984 L121.875,937.9796 L122.2656,930.2726 L122.6563,946.257 L123.0469,928.0242 L123.4375,930.6662 L123.8281,965.8511 L124.2188,962.1371 L124.6094,940.5154 L125,914.4253 L125.3906,941.0938 L125.7813,957.0728 L126.1719,927.5732 L126.5625,894.485 L126.9531,966.3257 L127.3438,937.1528 L127.7344,913.6735 L128.125,926.646 L128.5156,938.761 L128.9063,956.2833 L129.2969,944.1957 L129.6875,961.6063 L130.0781,933.1889 L130.4688,946.2512 L130.8594,939.7518 L131.25,919.3928 L131.6406,955.0236 L132.0313,879.4386 L132.4219,987.4026 L132.8125,963.3997 L133.2031,941.5619 L133.5938,962.8208 L133.9844,944.7164 L134.375,945.6293 L134.7656,928.1678 L135.1563,974.7427 L135.5469,948.7855 L135.9375,943.5061 L136.3281,946.7485 L136.7188,892.6354 L137.1094,897.7357 L137.5,957.4624 L137.8906,942.4333 L138.2813,936.75 L138.6719,879.8669 L139.0625,942.6043 L139.4531,953.1552 L139.8438,906.9839 L140.2344,891.6803 L140.625,941.1502 L141.0156,889.6865 L141.4063,930.0289 L141.7969,922.6148 L142.1875,981.9155 L142.5781,885.3755 L142.9688,978.2159 L143.3594,958.6168 L143.75,936.0051 L144.1406,918.3654 L144.5313,968.6332 L144.9219,926.9318 L145.3125,950.1166 L145.7031,939.6514 L146.0938,970.9995 L146.4844,964.8685 L146.875,933.532 L147.2656,928.5242 L147.6563,941.647 L148.0469,940.9633 L148.4375,977.2953 L148.8281,869.0031 L149.2188,943.6845 L149.6094,962.4626 L150,899.0007 L150.3906,933.2641 L150.7813,864.1271 L151.1719,913.8476 L151.5625,861.0529 L151.9531,964.2939 L152.3438,971.1955 L152.7344,911.4515 L153.125,931.1356 L153.5156,966.4454 L153.9063,942.7214 L154.2969,913.8853 L154.6875,958.9952 L155.0781,912.9077 L155.4688,943.3671 L155.8594,949.5466 L156.25,894.4959 L156.6406,972.1484 L157.0313,846.2924 L157.4219,895.7938 L157.8125,937.2089 L158.2031,953.5194 L158.5938,894.003 L158.9844,925.3931 L159.375,927.0137 L159.7656,929.7094 L160.1563,928.2617 L160.5469,858.2798 L160.9375,900.9123 L161.3281,968.2907 L161.7188,925.4618 L162.1094,898.1628 L162.5,943.4484 L162.8906,911.6675 L163.2813,913.9243 L163.6719,903.5757 L164.0625,797.9252 L164.4531,960.3206 L164.8438,961.8353 L165.2344,958.9846 L165.625,965.6285 L166.0156,943.5343 L166.4063,958.4507 L166.7969,913.4171 L167.1875,956.084 L167.5781,908.9296 L167.9688,917.3961 L168.3594,952.403 L168.75,946.7927 L169.1406,953.9887 L169.5313,940.7276 L169.9219,918.8083 L170.3125,923.6979 L170.7031,962.7097 L171.0938,934.3555 L171.4844,949.9236 L171.875,914.4816 L172.2656,962.725 L172.6563,930.4228 L173.0469,965.5491 L173.4375,963.2314 L173.8281,949.1745 L174.2188,897.2819 L174.6094,887.3856 L175,978.0175 L175.3906,873.8617 L175.7813,901.9415 L176.1719,942.7083 L176.5625,975.5714 L176.9531,955.3823 L177.3438,952.6525 L177.7344,938.0196 L178.125,924.8486 L178.5156,870.0153 L178.9063,967.7453 L179.2969,957.6661 L179.6875,961.3369 L180.0781,955.2784 L180.4688,977.0767 L180.8594,969.6962 L181.25,923.994 L181.6406,941.8128 L182.0313,967.118 L182.4219,934.3182 L182.8125,936.3635 L183.2031,933.923 L183.5938,926.7138 L183.9844,960.3854 L184.375,962.6301 L184.7656,934.7906 L185.1563,955.8745 L185.5469,961.7308 L185.9375,943.3779 L186.3281,951.9706 L186.7188,942.5014 L187.1094,949.8651 L187.5,924.283 L187.8906,978.7385 L188.2813,935.1279 L188.6719,948.5046 L189.0625,843.8922 L189.4531,925.5533 L189.8438,936.4824 L190.2344,939.796 L190.625,960.2689 L191.0156,977.2241 L191.4063,971.8876 L191.7969,951.4127 L192.1875,952.8497 L192.5781,932.3644 L192.9688,962.1669 L193.3594,931.1219 L193.75,955.4276 L194.1406,967.5763 L194.5313,907.6958 L194.9219,925.3132 L195.3125,972.8613 L195.7031,934.1389 L196.0938,943.8716 L196.4844,965.4617 L196.875,931.3975 L197.2656,929.2607 L197.6563,937.6892 L198.0469,950.0679 L198.4375,969.028 L198.8281,873.3829 L199.2188,973.0092 L199.6094,941.0773 L200,967.6686 L200.3906,955.8793 L200.7813,970.2167 L201.1719,979.1039 L201.5625,941.257 L201.9531,962.7788 L202.3438,870.1238 L202.7344,943.2233 L203.125,884.9136 L203.5156,939.9996 L203.9063,973.5684 L204.2969,957.8079 L204.6875,960.2252 L205.0781,889.7781 L205.4688,894.244 L205.8594,952.2122 L206.25,933.3885 L206.6406,935.8848 L207.0313,918.6045 L207.4219,927.6693 L207.8125,965.3704 L208.2031,980.8159 L208.5938,941.5168 L208.9844,950.3679 L209.375,930.1994 L209.7656,941.3468 L210.1563,962.2679 L210.5469,977.3269 L210.9375,948.9429 L211.3281,911.6081 L211.7188,873.4366 L212.1094,803.0931 L212.5,953.4653 L212.8906,959.1335 L213.2813,922.5796 L213.6719,903.0511 L214.0625,962.2059 L214.4531,946.8396 L214.8438,956.2849 L215.2344,942.5364 L215.625,896.0327 L216.0156,948.1155 L216.4063,953.6021 L216.7969,963.4489 L217.1875,969.2195 L217.5781,934.5128 L217.9688,962.5034 L218.3594,925.0808 L218.75,961.1517 L219.1406,936.8405 L219.5313,949.3611 L219.9219,933.9117 L220.3125,937.7126 L220.7031,948.0918 L221.0938,901.457 L221.4844,961.0033 L221.875,978.612 L222.2656,930.2848 L222.6563,947.8331 L223.0469,958.32 L223.4375,916.2039 L223.8281,958.9744 L224.2188,976.7269 L224.6094,924.5112 L225,970.4532 L225.3906,944.8816 L225.7813,964.086 L226.1719,921.6198 L226.5625,959.1215 L226.9531,925.2067 L227.3438,941.4823 L227.7344,906.3562 L228.125,921.7349 L228.5156,940.9005 L228.9063,942.3108 L229.2969,954.6089 L229.6875,918.1858 L230.0781,962.5002 L230.4688,938.3345 L230.8594,946.4247 L231.25,958.2629 L231.6406,963.3476 L232.0313,925.4719 L232.4219,904.6222 L232.8125,951.9628 L233.2031,960.5754 L233.5938,949.356 L233.9844,931.5756 L234.375,951.8901 L234.7656,943.8988 L235.1563,946.7336 L235.5469,948.166 L235.9375,977.918 L236.3281,917.0383 L236.7188,971.9515 L237.1094,960.6059 L237.5,949.4897 L237.8906,961.1284 L238.2813,990 L238.6719,921.244 L239.0625,984.6071 L239.4531,926.6519 L239.8438,976.6344 L240.2344,923.8993 L240.625,959.1987 L241.0156,953.1066 L241.4063,942.9946 L241.7969,969.9432 L242.1875,934.6907 L242.5781,928.0187 L242.9688,921.102 L243.3594,928.5099 L243.75,937.1135 L244.1406,831.1987 L244.5313,926.3367 L244.9219,966.9895 L245.3125,971.1938 L245.7031,930.9 L246.0938,914.7804 L246.4844,945.8961 L246.875,930.3273 L247.2656,962.6321 L247.6563,943.0623 L248.0469,950.0633 L248.4375,956.9015 L248.8281,934.9539 L249.2188,964.6538 L249.6094,950.9647 L250,962.6865 L250.3906,931.5211 L250.7813,868.5787 L251.1719,923.1461 L251.5625,969.2328 L251.9531,934.4936 L252.3438,968.7356 L252.7344,934.4976 L253.125,980.8546 L253.5156,900.0296 L253.9063,912.4792 L254.2969,961.4178 L254.6875,930.8645 L255.0781,957.7533 L255.4688,964.2105 L255.8594,940.8436 L256.25,927.4524 L256.6406,978.7964 L257.0313,975.1909 L257.4219,928.7456 L257.8125,941.4184 L258.2031,956.3972 L258.5938,944.699 L258.9844,872.002 L259.375,909.5422 L259.7656,974.9246 L260.1563,956.5737 L260.5469,877.4832 L260.9375,921.6075 L261.3281,895.3864 L261.7188,871.4058 L262.1094,983.6655 L262.5,937.0923 L262.8906,969.1432 L263.2813,870.3132 L263.6719,885.8229 L264.0625,985.5113 L264.4531,917.5989 L264.8438,982.8049 L265.2344,922.5117 L265.625,946.4926 L266.0156,961.066 L266.4063,957.0239 L266.7969,988.1689 L267.1875,940.6938 L267.5781,969.8925 L267.9688,974.6055 L268.3594,935.1453 L268.75,960.1654 L269.1406,963.9271 L269.5313,957.6475 L269.9219,944.4496 L270.3125,942.4957 L270.7031,938.0892 L271.0938,920.2428 L271.4844,974.4267 L271.875,917.6371 L272.2656,961.8813 L272.6563,964.2902 L273.0469,956.8865 L273.4375,937.7227 L273.8281,887.3973 L274.2188,953.2953 L274.6094,941.0114 L275,942.2758 L275.3906,953.0714 L275.7813,909.0176 L276.1719,961.757 L276.5625,943.3477 L276.9531,977.9575 L277.3438,935.9023 L277.7344,906.707 L278.125,942.6263 L278.5156,957.8262 L278.9063,897.2456 L279.2969,862.6353 L279.6875,960.3096 L280.0781,942.6007 L280.4688,945.2976 L280.8594,861.9645 L281.25,972.5475 L281.6406,926.3387 L282.0313,951.4474 L282.4219,970.0054 L282.8125,926.0363 L283.2031,925.3778 L283.5938,934.2992 L283.9844,962.1389 L284.375,860.9157 L284.7656,935.6926 L285.1563,931.2203 L285.5469,970.8112 L285.9375,958.6571 L286.3281,920.6909 L286.7188,913.5819 L287.1094,955.2983 L287.5,915.3295 L287.8906,799.7784 L288.2813,962.7631 L288.6719,943.4569 L289.0625,921.6005 L289.4531,946.5391 L289.8438,928.0811 L290.2344,928.8336 L290.625,946.9466 L291.0156,851.7654 L291.4063,927.8256 L291.7969,930.1168 L292.1875,960.1238 L292.5781,955.113 L292.9688,925.3081 L293.3594,940.1384 L293.75,972.6719 L294.1406,960.316 L294.5313,945.7814 L294.9219,946.9426 L295.3125,959.1245 L295.7031,977.3099 L296.0938,959.8011 L296.4844,936.3667 L296.875,877.7836 L297.2656,889.7072 L297.6563,963.2973 L298.0469,972.692 L298.4375,964.3815 L298.8281,909.5127 L299.2188,969.6832 L299.6094,950.0069 L300,960.3448 L300.3906,891.6027 L300.7813,877.7589 L301.1719,971.9517 " stroke="blue" fill="none" />
<text x="50" y="1040" font-family="Arial" font-size="12" fill="black">Episode Length (644)</text>
<text x="50" y="1055" font-family="Arial" font-size="10" fill="black">210</text>
<text x="50" y="1270" font-family="Arial" font-size="10" fill="black">34</text>
<path d="M50,1248.636 L50.39063,1246.364 L50.78125,1244.091 L51.17188,1236.136 L51.5625,1236.136 L51.95313,1235 L52.34375,1233.864 L52.73438,1233.864 L53.125,1232.727 L53.51563,1230.455 L53.90625,1229.318 L54.29688,1229.318 L54.6875,1224.773 L55.07813,1223.636 L55.46875,1220.227 L55.85938,1217.955 L56.25,1217.955 L56.64063,1216.818 L57.03125,1215.682 L57.42188,1215.682 L57.8125,1214.545 L58.20313,1207.727 L58.59375,1207.727 L58.98438,1205.455 L59.375,1205.455 L59.76563,1204.318 L60.15625,1203.182 L60.54688,1202.045 L60.9375,1195.227 L61.32813,1194.091 L61.71875,1185 L62.10938,1247.5 L62.5,1182.727 L62.89063,1181.591 L63.28125,1180.455 L63.67188,1239.545 L64.0625,1233.864 L64.45313,1232.727 L64.84375,1216.818 L65.23438,1207.727 L65.625,1156.591 L66.01563,1217.955 L66.40625,1235 L66.79688,1247.5 L67.1875,1239.545 L67.57813,1235 L67.96875,1205.455 L68.35938,1220.227 L68.75,1216.818 L69.14063,1238.409 L69.53125,1197.5 L69.92188,1248.636 L70.3125,1250.909 L70.70313,1181.591 L71.09375,1219.091 L71.48438,1197.5 L71.875,1199.773 L72.26563,1197.5 L72.65625,1205.455 L73.04688,1212.273 L73.4375,1190.682 L73.82813,1203.182 L74.21875,1217.955 L74.60938,1237.273 L75,1240.682 L75.39063,1210 L75.78125,1231.591 L76.17188,1190.682 L76.5625,1161.136 L76.95313,1235 L77.34375,1238.409 L77.73438,1198.636 L78.125,1156.591 L78.51563,1214.545 L78.90625,1186.136 L79.29688,1219.091 L79.6875,1136.136 L80.07813,1060 L80.46875,1215.682 L80.85938,1196.364 L81.25,1222.5 L81.64063,1216.818 L82.03125,1222.5 L82.42188,1232.727 L82.8125,1211.136 L83.20313,1205.455 L83.59375,1112.273 L83.98438,1210 L84.375,1214.545 L84.76563,1192.955 L85.15625,1222.5 L85.54688,1200.909 L85.9375,1228.182 L86.32813,1221.364 L86.71875,1208.864 L87.10938,1152.045 L87.5,1163.409 L87.89063,1215.682 L88.28125,1231.591 L88.67188,1204.318 L89.0625,1246.364 L89.45313,1171.364 L89.84375,1199.773 L90.23438,1203.182 L90.625,1229.318 L91.01563,1225.909 L91.40625,1220.227 L91.79688,1235 L92.1875,1212.273 L92.57813,1227.045 L92.96875,1191.818 L93.35938,1187.273 L93.75,1229.318 L94.14063,1254.318 L94.53125,1221.364 L94.92188,1164.545 L95.3125,1189.545 L95.70313,1227.045 L96.09375,1239.545 L96.48438,1152.045 L96.875,1214.545 L97.26563,1242.955 L97.65625,1245.227 L98.04688,1149.773 L98.4375,1248.636 L98.82813,1231.591 L99.21875,1199.773 L99.60938,1250.909 L100,1236.136 L100.3906,1217.955 L100.7813,1173.636 L101.1719,1215.682 L101.5625,1219.091 L101.9531,1215.682 L102.3438,1231.591 L102.7344,1239.545 L103.125,1174.773 L103.5156,1228.182 L103.9063,1227.045 L104.2969,1227.045 L104.6875,1240.682 L105.0781,1241.818 L105.4688,1144.091 L105.8594,1252.045 L106.25,1202.045 L106.6406,1233.864 L107.0313,1248.636 L107.4219,1246.364 L107.8125,1204.318 L108.2031,1227.045 L108.5938,1200.909 L108.9844,1231.591 L109.375,1197.5 L109.7656,1152.045 L110.1563,1219.091 L110.5469,1224.773 L110.9375,1205.455 L111.3281,1235 L111.7188,1189.545 L112.1094,1210 L112.5,1188.409 L112.8906,1170.227 L113.2813,1119.091 L113.6719,1204.318 L114.0625,1248.636 L114.4531,1236.136 L114.8438,1174.773 L115.2344,1217.955 L115.625,1208.864 L116.0156,1228.182 L116.4063,1192.955 L116.7969,1150.909 L117.1875,1154.318 L117.5781,1211.136 L117.9688,1208.864 L118.3594,1207.727 L118.75,1230.455 L119.1406,1186.136 L119.5313,1175.909 L119.9219,1238.409 L120.3125,1203.182 L120.7031,1157.727 L121.0938,1195.227 L121.4844,1211.136 L121.875,1208.864 L122.2656,1200.909 L122.6563,1220.227 L123.0469,1199.773 L123.4375,1200.909 L123.8281,1236.136 L124.2188,1232.727 L124.6094,1210 L125,1187.273 L125.3906,1211.136 L125.7813,1223.636 L126.1719,1199.773 L126.5625,1164.545 L126.9531,1239.545 L127.3438,1208.864 L127.7344,1185 L128.125,1197.5 L128.5156,1208.864 L128.9063,1228.182 L129.2969,1215.682 L129.6875,1233.864 L130.0781,1205.455 L130.4688,1216.818 L130.8594,1213.409 L131.25,1188.409 L131.6406,1227.045 L132.0313,1150.909 L132.4219,1257.727 L132.8125,1231.591 L133.2031,1212.273 L133.5938,1235 L133.9844,1216.818 L134.375,1214.545 L134.7656,1198.636 L135.1563,1245.227 L135.5469,1219.091 L135.9375,1217.955 L136.3281,1216.818 L136.7188,1162.273 L137.1094,1171.364 L137.5,1225.909 L137.8906,1208.864 L138.2813,1206.591 L138.6719,1146.364 L139.0625,1212.273 L139.4531,1223.636 L139.8438,1181.591 L140.2344,1163.409 L140.625,1210 L141.0156,1157.727 L141.4063,1199.773 L141.7969,1194.091 L142.1875,1252.045 L142.5781,1158.864 L142.9688,1247.5 L143.3594,1229.318 L143.75,1204.318 L144.1406,1188.409 L144.5313,1239.545 L144.9219,1198.636 L145.3125,1223.636 L145.7031,1210 L146.0938,1240.682 L146.4844,1236.136 L146.875,1205.455 L147.2656,1192.955 L147.6563,1213.409 L148.0469,1212.273 L148.4375,1249.773 L148.8281,1139.545 L149.2188,1213.409 L149.6094,1230.455 L150,1167.955 L150.3906,1204.318 L150.7813,1133.864 L151.1719,1181.591 L151.5625,1135 L151.9531,1235 L152.3438,1245.227 L152.7344,1181.591 L153.125,1203.182 L153.5156,1239.545 L153.9063,1212.273 L154.2969,1183.864 L154.6875,1229.318 L155.0781,1183.864 L155.4688,1214.545 L155.8594,1223.636 L156.25,1169.091 L156.6406,1244.091 L157.0313,1111.136 L157.4219,1167.955 L157.8125,1207.727 L158.2031,1223.636 L158.5938,1164.545 L158.9844,1194.091 L159.375,1198.636 L159.7656,1198.636 L160.1563,1197.5 L160.5469,1129.318 L160.9375,1171.364 L161.3281,1237.273 L161.7188,1197.5 L162.1094,1165.682 L162.5,1214.545 L162.8906,1181.591 L163.2813,1185 L163.6719,1172.5 L164.0625,1069.091 L164.4531,1233.864 L164.8438,1233.864 L165.2344,1229.318 L165.625,1235 L166.0156,1214.545 L166.4063,1228.182 L166.7969,1182.727 L167.1875,1224.773 L167.5781,1181.591 L167.9688,1185 L168.3594,1224.773 L168.75,1222.5 L169.1406,1225.909 L169.5313,1216.818 L169.9219,1188.409 L170.3125,1191.818 L170.7031,1231.591 L171.0938,1204.318 L171.4844,1215.682 L171.875,1186.136 L172.2656,1231.591 L172.6563,1204.318 L173.0469,1236.136 L173.4375,1232.727 L173.8281,1221.364 L174.2188,1166.818 L174.6094,1161.136 L175,1252.045 L175.3906,1142.955 L175.7813,1172.5 L176.1719,1215.682 L176.5625,1242.955 L176.9531,1224.773 L177.3438,1221.364 L177.7344,1208.864 L178.125,1192.955 L178.5156,1142.955 L178.9063,1239.545 L179.2969,1228.182 L179.6875,1231.591 L180.0781,1224.773 L180.4688,1241.818 L180.8594,1240.682 L181.25,1192.955 L181.6406,1213.409 L182.0313,1237.273 L182.4219,1204.318 L182.8125,1203.182 L183.2031,1204.318 L183.5938,1196.364 L183.9844,1230.455 L184.375,1236.136 L184.7656,1205.455 L185.1563,1225.909 L185.5469,1233.864 L185.9375,1215.682 L186.3281,1223.636 L186.7188,1214.545 L187.1094,1220.227 L187.5,1191.818 L187.8906,1249.773 L188.2813,1206.591 L188.6719,1219.091 L189.0625,1114.545 L189.4531,1196.364 L189.8438,1206.591 L190.2344,1205.455 L190.625,1227.045 L191.0156,1246.364 L191.4063,1239.545 L191.7969,1222.5 L192.1875,1224.773 L192.5781,1202.045 L192.9688,1236.136 L193.3594,1200.909 L193.75,1224.773 L194.1406,1239.545 L194.5313,1180.455 L194.9219,1194.091 L195.3125,1241.818 L195.7031,1204.318 L196.0938,1213.409 L196.4844,1236.136 L196.875,1204.318 L197.2656,1200.909 L197.6563,1211.136 L198.0469,1220.227 L198.4375,1235 L198.8281,1147.5 L199.2188,1245.227 L199.6094,1211.136 L200,1236.136 L200.3906,1217.955 L200.7813,1242.955 L201.1719,1246.364 L201.5625,1206.591 L201.9531,1235 L202.3438,1139.545 L202.7344,1215.682 L203.125,1155.455 L203.5156,1211.136 L203.9063,1244.091 L204.2969,1228.182 L204.6875,1230.455 L205.0781,1162.273 L205.4688,1164.545 L205.8594,1223.636 L206.25,1202.045 L206.6406,1203.182 L207.0313,1188.409 L207.4219,1198.636 L207.8125,1236.136 L208.2031,1249.773 L208.5938,1210 L208.9844,1221.364 L209.375,1199.773 L209.7656,1208.864 L210.1563,1231.591 L210.5469,1248.636 L210.9375,1220.227 L211.3281,1180.455 L211.7188,1142.955 L212.1094,1073.636 L212.5,1227.045 L212.8906,1229.318 L213.2813,1194.091 L213.6719,1172.5 L214.0625,1233.864 L214.4531,1216.818 L214.8438,1227.045 L215.2344,1211.136 L215.625,1163.409 L216.0156,1206.591 L216.4063,1225.909 L216.7969,1232.727 L217.1875,1238.409 L217.5781,1204.318 L217.9688,1236.136 L218.3594,1194.091 L218.75,1232.727 L219.1406,1205.455 L219.5313,1221.364 L219.9219,1200.909 L220.3125,1199.773 L220.7031,1219.091 L221.0938,1174.773 L221.4844,1233.864 L221.875,1250.909 L222.2656,1196.364 L222.6563,1216.818 L223.0469,1229.318 L223.4375,1187.273 L223.8281,1231.591 L224.2188,1248.636 L224.6094,1195.227 L225,1237.273 L225.3906,1217.955 L225.7813,1238.409 L226.1719,1190.682 L226.5625,1228.182 L226.9531,1200.909 L227.3438,1211.136 L227.7344,1183.864 L228.125,1189.545 L228.5156,1208.864 L228.9063,1212.273 L229.2969,1225.909 L229.6875,1182.727 L230.0781,1236.136 L230.4688,1206.591 L230.8594,1219.091 L231.25,1229.318 L231.6406,1238.409 L232.0313,1192.955 L232.4219,1169.091 L232.8125,1222.5 L233.2031,1228.182 L233.5938,1214.545 L233.9844,1199.773 L234.375,1224.773 L234.7656,1214.545 L235.1563,1216.818 L235.5469,1217.955 L235.9375,1249.773 L236.3281,1186.136 L236.7188,1245.227 L237.1094,1230.455 L237.5,1214.545 L237.8906,1232.727 L238.2813,1260 L238.6719,1190.682 L239.0625,1255.455 L239.4531,1194.091 L239.8438,1248.636 L240.2344,1194.091 L240.625,1225.909 L241.0156,1222.5 L241.4063,1215.682 L241.7969,1242.955 L242.1875,1206.591 L242.5781,1198.636 L242.9688,1189.545 L243.3594,1198.636 L243.75,1206.591 L244.1406,1100.909 L244.5313,1195.227 L244.9219,1238.409 L245.3125,1241.818 L245.7031,1202.045 L246.0938,1180.455 L246.4844,1215.682 L246.875,1198.636 L247.2656,1231.591 L247.6563,1205.455 L248.0469,1219.091 L248.4375,1227.045 L248.8281,1202.045 L249.2188,1239.545 L249.6094,1219.091 L250,1231.591 L250.3906,1198.636 L250.7813,1135 L251.1719,1194.091 L251.5625,1239.545 L251.9531,1203.182 L252.3438,1239.545 L252.7344,1205.455 L253.125,1250.909 L253.5156,1170.227 L253.9063,1187.273 L254.2969,1231.591 L254.6875,1198.636 L255.0781,1228.182 L255.4688,1235 L255.8594,1210 L256.25,1195.227 L256.6406,1252.045 L257.0313,1246.364 L257.4219,1199.773 L257.8125,1210 L258.2031,1225.909 L258.5938,1215.682 L258.9844,1141.818 L259.375,1179.318 L259.7656,1246.364 L260.1563,1228.182 L260.5469,1142.955 L260.9375,1194.091 L261.3281,1166.818 L261.7188,1140.682 L262.1094,1255.455 L262.5,1207.727 L262.8906,1239.545 L263.2813,1141.818 L263.6719,1154.318 L264.0625,1256.591 L264.4531,1187.273 L264.8438,1252.045 L265.2344,1194.091 L265.625,1216.818 L266.0156,1229.318 L266.4063,1227.045 L266.7969,1260 L267.1875,1211.136 L267.5781,1241.818 L267.9688,1238.409 L268.3594,1205.455 L268.75,1229.318 L269.1406,1232.727 L269.5313,1224.773 L269.9219,1215.682 L270.3125,1212.273 L270.7031,1208.864 L271.0938,1188.409 L271.4844,1247.5 L271.875,1190.682 L272.2656,1235 L272.6563,1235 L273.0469,1225.909 L273.4375,1205.455 L273.8281,1157.727 L274.2188,1223.636 L274.6094,1205.455 L275,1210 L275.3906,1224.773 L275.7813,1174.773 L276.1719,1227.045 L276.5625,1214.545 L276.9531,1248.636 L277.3438,1205.455 L277.7344,1178.182 L278.125,1212.273 L278.5156,1228.182 L278.9063,1161.136 L279.2969,1130.455 L279.6875,1230.455 L280.0781,1212.273 L280.4688,1216.818 L280.8594,1135 L281.25,1246.364 L281.6406,1196.364 L282.0313,1216.818 L282.4219,1242.955 L282.8125,1197.5 L283.2031,1195.227 L283.5938,1204.318 L283.9844,1232.727 L284.375,1129.318 L284.7656,1207.727 L285.1563,1203.182 L285.5469,1240.682 L285.9375,1231.591 L286.3281,1195.227 L286.7188,1180.455 L287.1094,1229.318 L287.5,1185 L287.8906,1075.909 L288.2813,1233.864 L288.6719,1208.864 L289.0625,1191.818 L289.4531,1219.091 L289.8438,1199.773 L290.2344,1199.773 L290.625,1217.955 L291.0156,1121.364 L291.4063,1194.091 L291.7969,1195.227 L292.1875,1231.591 L292.5781,1221.364 L292.9688,1189.545 L293.3594,1213.409 L293.75,1246.364 L294.1406,1231.591 L294.5313,1220.227 L294.9219,1217.955 L295.3125,1229.318 L295.7031,1250.909 L296.0938,1230.455 L296.4844,1206.591 L296.875,1144.091 L297.2656,1158.864 L297.6563,1233.864 L298.0469,1245.227 L298.4375,1236.136 L298.8281,1180.455 L299.2188,1242.955 L299.6094,1220.227 L300,1230.455 L300.3906,1161.136 L300.7813,1147.5 L301.1719,1242.955 " stroke="blue" fill="none" />
<text x="50" y="1310" font-family="Arial" font-size="12" fill="black">Policy Loss</text>
<text x="50" y="1325" font-family="Arial" font-size="10" fill="black">0.000181345</text>
<text x="50" y="1540" font-family="Arial" font-size="10" fill="black">3.537365E-06</text>
<path d="M50,1530 L62.5,1512.824 L75,1499.661 L87.5,1491.086 L100,1484.324 L112.5,1478.937 L125,1474.233 L137.5,1470.082 L150,1465.824 L162.5,1462.933 L175,1529.528 L187.5,1489.369 L200,1453.313 L212.5,1426.851 L225,1407.599 L237.5,1393.083 L250,1378.328 L262.5,1363.221 L275,1352.407 L287.5,1342.017 L300,1528.411 L312.5,1488.366 L325,1450.745 L337.5,1421.441 L350,1399.931 L362.5,1381.233 L375,1365.889 L387.5,1353.797 L400,1341.234 L412.5,1330.011 L425,1529.672 L437.5,1488.307 L450,1451.588 L462.5,1427.271 L475,1406.747 L487.5,1389.662 L500,1375.257 L512.5,1360.538 L525,1348.286 L537.5,1337.938 " stroke="blue" fill="none" />
<text x="50" y="1580" font-family="Arial" font-size="12" fill="black">Value Loss</text>
<text x="50" y="1595" font-family="Arial" font-size="10" fill="black">2.948307E-05</text>
<text x="50" y="1810" font-family="Arial" font-size="10" fill="black">1.264683E-05</text>
<path d="M50,1783.708 L62.5,1793.068 L75,1796.905 L87.5,1797.794 L100,1798.479 L112.5,1798.661 L125,1799.173 L137.5,1798.943 L150,1800 L162.5,1799.744 L175,1615.359 L187.5,1615.73 L200,1631.595 L212.5,1637.487 L225,1640.07 L237.5,1642.427 L250,1643.226 L262.5,1643.284 L275,1643.426 L287.5,1645.155 L300,1633.036 L312.5,1662.606 L325,1673.443 L337.5,1676.32 L350,1678.313 L362.5,1679.064 L375,1680.035 L387.5,1682.175 L400,1683.067 L412.5,1684.069 L425,1607.741 L437.5,1600.119 L450,1632.055 L462.5,1634.093 L475,1636.388 L487.5,1639.128 L500,1640.163 L512.5,1641.884 L525,1642.563 L537.5,1643.663 " stroke="blue" fill="none" />
<text x="50" y="1850" font-family="Arial" font-size="12" fill="black">Learning Rate</text>
<text x="50" y="1865" font-family="Arial" font-size="10" fill="black">0.00025</text>
<text x="50" y="2080" font-family="Arial" font-size="10" fill="black">0.00025</text>
<path d="M50,2070 L62.5,2070 L75,2070 L87.5,2070 L100,2070 L112.5,2070 L125,2070 L137.5,2070 L150,2070 L162.5,2070 L175,2070 L187.5,2070 L200,2070 L212.5,2070 L225,2070 L237.5,2070 L250,2070 L262.5,2070 L275,2070 L287.5,2070 L300,2070 L312.5,2070 L325,2070 L337.5,2070 L350,2070 L362.5,2070 L375,2070 L387.5,2070 L400,2070 L412.5,2070 L425,2070 L437.5,2070 L450,2070 L462.5,2070 L475,2070 L487.5,2070 L500,2070 L512.5,2070 L525,2070 L537.5,2070 " stroke="blue" fill="none" />
<text x="50" y="2120" font-family="Arial" font-size="12" fill="black">Entropy</text>
<text x="50" y="2135" font-family="Arial" font-size="10" fill="black">0.03611897</text>
<text x="50" y="2350" font-family="Arial" font-size="10" fill="black">0.0184927</text>
<path d="M50,2340 L62.5,2340 L75,2340 L87.5,2340 L100,2340 L112.5,2340 L125,2340 L137.5,2340 L150,2340 L162.5,2340 L175,2140 L187.5,2140 L200,2140 L212.5,2140 L225,2140 L237.5,2140 L250,2140 L262.5,2140 L275,2140 L287.5,2140 L300,2140 L312.5,2140 L325,2140 L337.5,2140 L350,2140 L362.5,2140 L375,2140 L387.5,2140 L400,2140 L412.5,2140 L425,2140 L437.5,2140 L450,2140 L462.5,2140 L475,2140 L487.5,2140 L500,2140 L512.5,2140 L525,2140 L537.5,2140 " stroke="blue" fill="none" />
<text x="750" y="770" font-family="Arial" font-size="12" fill="black">Simplified</text>
<text x="750" y="785" font-family="Arial" font-size="10" fill="black">0.3989792</text>
<text x="750" y="1000" font-family="Arial" font-size="10" fill="black">0.2527737</text>
<path d="M757.0313,990 L764.4531,878.1973 L771.875,931.5646 L779.2969,881.5131 L786.7188,819.9169 L794.1406,894.8428 L801.5625,904.2437 L808.9844,955.3817 L816.4063,846.645 L823.8281,840.1849 L831.25,883.4272 L838.6719,885.7333 L846.0938,875.6987 L853.5156,843.7473 L860.9375,790 L868.3594,838.6448 L875.7813,865.2311 L883.2031,929.2949 L890.625,900.6503 L898.0469,933.2596 L905.4688,890.8646 L912.8906,868.4486 L920.3125,906.9064 L927.7344,915.3113 L935.1563,909.0486 L942.5781,960.3635 L950,886.1333 L957.4219,902.4175 L964.8438,836.9635 L972.2656,954.6023 L979.6875,875.2961 L987.1094,867.9681 L994.5313,839.4922 L1001.172,893.8608 " stroke="blue" fill="none" />
<text x="750" y="1040" font-family="Arial" font-size="12" fill="black">Simplified</text>
<text x="750" y="1055" font-family="Arial" font-size="10" fill="black">94.89474</text>
<text x="750" y="1270" font-family="Arial" font-size="10" fill="black">60.26316</text>
<path d="M757.0313,1260 L764.4531,1143.891 L771.875,1195.562 L779.2969,1146.018 L786.7188,1088.267 L794.1406,1160.304 L801.5625,1170.942 L808.9844,1218.359 L816.4063,1112.888 L823.8281,1106.201 L831.25,1152.401 L838.6719,1150.881 L846.0938,1142.979 L853.5156,1112.28 L860.9375,1060 L868.3594,1105.897 L875.7813,1134.772 L883.2031,1190.091 L890.625,1165.471 L898.0469,1198.602 L905.4688,1153.617 L912.8906,1132.34 L920.3125,1164.863 L927.7344,1184.924 L935.1563,1168.815 L942.5781,1222.31 L950,1145.106 L957.4219,1165.775 L964.8438,1103.161 L972.2656,1216.231 L979.6875,1133.252 L987.1094,1137.204 L994.5313,1105.897 L1001.172,1160.286 " stroke="blue" fill="none" />
</svg>
