<svg width="2000" height="2500" xmlns="http://www.w3.org/2000/svg">
<text x="10" y="20" font-family="Arial" font-size="26" fill="black"> [HumanWalk] Training Session</text>
<text x="10" y="50" font-family="Arial" font-size="16" fill="black">[Statistics]</text>
<text x="50" y="70" font-family="Arial" font-size="12" fill="black">Started at: 2:48:49 PM, Saturday, December 23, 2023</text>
<text x="50" y="90" font-family="Arial" font-size="12" fill="black">Finished at: 2:53:05 PM, Saturday, December 23, 2023</text>
<text x="50" y="110" font-family="Arial" font-size="12" fill="black">Training Session Time: 0 hrs : 4 min : 15 sec</text>
<text x="50" y="130" font-family="Arial" font-size="12" fill="black">Inference Time: 0 hrs : 53 min : 12 sec       [Per agent: 0 hrs : 1 min : 8 sec]        [Device: CPU]</text>
<text x="50" y="150" font-family="Arial" font-size="12" fill="black">Policy Update Time: 0 hrs : 2 min : 54 sec        [Per iteration: 0 hrs : 0 min : 22 sec]        [Device: GPU]</text>
<text x="50" y="170" font-family="Arial" font-size="12" fill="black">Inference Time / Training Session Time: 12.221</text>
<text x="50" y="190" font-family="Arial" font-size="12" fill="black">Policy Update Time / Training Session Time: 0.693</text>
<text x="50" y="210" font-family="Arial" font-size="12" fill="black">Episode Count: 1289</text>
<text x="50" y="230" font-family="Arial" font-size="12" fill="black">Inference Steps: 106791    [Per agent: 2272]     [Per Episode (mean): 82]</text>
<text x="50" y="250" font-family="Arial" font-size="12" fill="black">Iterations: 10</text>
<text x="50" y="270" font-family="Arial" font-size="12" fill="black">Parallel Agents: 47</text>
<text x="50" y="290" font-family="Arial" font-size="12" fill="black">Timescale: 1</text>
<text x="50" y="310" font-family="Arial" font-size="12" fill="black">Trainer: PPO</text>
<text x="10" y="360" font-family="Arial" font-size="16" fill="black">[Hyperparameters]</text>
<text x="50" y="380" font-family="Arial" font-size="12" fill="black">Buffer Size: 10240        [Batch Size: 512       (x20)]</text>
<text x="50" y="400" font-family="Arial" font-size="12" fill="black">Num Epoch: 10</text>
<text x="50" y="420" font-family="Arial" font-size="12" fill="black">Time Horizon: 64</text>
<text x="50" y="440" font-family="Arial" font-size="12" fill="black">Gradient Cliping Normalization: 0.5</text>
<text x="50" y="460" font-family="Arial" font-size="12" fill="black">Learning Rate Schedule: False    </text>
<text x="10" y="510" font-family="Arial" font-size="16" fill="black">[Behaviour]</text>
<text x="50" y="530" font-family="Arial" font-size="12" fill="black">Space Size: 130</text>
<text x="50" y="550" font-family="Arial" font-size="12" fill="black">Continuous Actions: 44 [Standard Deviation: Fixed]     [Value: 0.61]</text>
<text x="50" y="570" font-family="Arial" font-size="12" fill="black">Discrete Actions: 0</text>
<text x="50" y="590" font-family="Arial" font-size="12" fill="black">TargetFPS: 100 (physics update rate)</text>
<text x="50" y="610" font-family="Arial" font-size="12" fill="black">Observations Normalization: False</text>
<text x="10" y="660" font-family="Arial" font-size="16" fill="black">[Decision Requester]</text>
<text x="50" y="680" font-family="Arial" font-size="12" fill="black">Max Step: 6000</text>
<text x="50" y="700" font-family="Arial" font-size="12" fill="black">Decision Period: 3      [Actions Between Decisions: True]</text>
<text x="10" y="750" font-family="Arial" font-size="16" fill="black">[Graphs]</text>
<text x="50" y="770" font-family="Arial" font-size="12" fill="black">Episode Reward (1289)</text>
<text x="50" y="785" font-family="Arial" font-size="10" fill="black">0.9849779</text>
<text x="50" y="1000" font-family="Arial" font-size="10" fill="black">0.1069302</text>
<path d="M50,982.7339 L50.19531,981.9745 L50.39063,970.0679 L50.58594,969.2614 L50.78125,967.2788 L50.97656,966.6689 L51.17188,966.2014 L51.36719,966.4565 L51.5625,962.4725 L51.75781,961.7175 L51.95313,956.1267 L52.14844,955.4824 L52.34375,954.6318 L52.53906,955.0793 L52.73438,951.9595 L52.92969,951.1957 L53.125,949.6022 L53.32031,946.1107 L53.51563,946.7794 L53.71094,942.9684 L53.90625,942.0935 L54.10156,942.4705 L54.29688,940.3375 L54.49219,938.5333 L54.6875,936.2119 L54.88281,929.9615 L55.07813,931.6215 L55.27344,931.6785 L55.46875,927.4479 L55.66406,927.088 L55.85938,930.8539 L56.05469,980.688 L56.25,926.4242 L56.44531,923.0588 L56.64063,923.7628 L56.83594,926.3617 L57.03125,918.1027 L57.22656,969.8939 L57.42188,917.97 L57.61719,920.1003 L57.8125,916.6539 L58.00781,911.8282 L58.20313,915.0605 L58.39844,913.1213 L58.59375,974.2708 L58.78906,977.986 L58.98438,966.1613 L59.17969,956.9254 L59.375,902.94 L59.57031,953.5367 L59.76563,928.6427 L59.96094,897.403 L60.15625,972.4935 L60.35156,945.9843 L60.54688,960.3837 L60.74219,919.8601 L60.9375,966.7811 L61.13281,951.4323 L61.32813,957.761 L61.52344,930.9202 L61.71875,915.0217 L61.91406,909.7292 L62.10938,937.3958 L62.30469,862.9977 L62.5,933.3754 L62.69531,929.0815 L62.89063,985.646 L63.08594,968.4914 L63.28125,924.7167 L63.47656,947.8165 L63.67188,956.4181 L63.86719,958.6385 L64.0625,970.1871 L64.25781,965.9037 L64.45313,918.183 L64.64844,855.5438 L64.84375,931.8524 L65.03906,929.2603 L65.23438,923.248 L65.42969,933.7943 L65.625,915.3344 L65.82031,885.3083 L66.01563,928.2462 L66.21094,928.9039 L66.40625,958.3208 L66.60156,957.9589 L66.79688,951.4006 L66.99219,936.0954 L67.1875,913.653 L67.38281,822.8056 L67.57813,910.0282 L67.77344,932.9905 L67.96875,964.091 L68.16406,970.3364 L68.35938,968.6133 L68.55469,971.919 L68.75,911.7862 L68.94531,957.105 L69.14063,905.4362 L69.33594,914.7972 L69.53125,900.6284 L69.72656,958.5906 L69.92188,875.5044 L70.11719,944.5375 L70.3125,932.3539 L70.50781,911.3309 L70.70313,915.1869 L70.89844,899.8411 L71.09375,955.0344 L71.28906,947.3378 L71.48438,937.7437 L71.67969,971.61 L71.875,935.0505 L72.07031,951.9995 L72.26563,886.9899 L72.46094,948.842 L72.65625,964.7174 L72.85156,957.5916 L73.04688,958.5156 L73.24219,941.2265 L73.4375,938.1881 L73.63281,943.6849 L73.82813,959.7535 L74.02344,878.9459 L74.21875,927.6583 L74.41406,965.8818 L74.60938,931.3928 L74.80469,920.4046 L75,923.438 L75.19531,941.2601 L75.39063,878.5577 L75.58594,950.9051 L75.78125,938.5156 L75.97656,918.9098 L76.17188,975.5456 L76.36719,940.1967 L76.5625,940.1186 L76.75781,940.9941 L76.95313,961.1599 L77.14844,947.0722 L77.34375,958.3143 L77.53906,934.7209 L77.73438,970.3644 L77.92969,933.1326 L78.125,924.8726 L78.32031,934.1175 L78.51563,941.364 L78.71094,964.065 L78.90625,961.3125 L79.10156,924.6266 L79.29688,961.2597 L79.49219,947.8936 L79.6875,952.2132 L79.88281,936.0276 L80.07813,960.4414 L80.27344,962.6482 L80.46875,931.8416 L80.66406,959.2344 L80.85938,931.8983 L81.05469,947.1451 L81.25,939.4211 L81.44531,951.2139 L81.64063,956.5419 L81.83594,934.6018 L82.03125,901.607 L82.22656,925.0152 L82.42188,957.295 L82.61719,943.149 L82.8125,926.2253 L83.00781,933.7966 L83.20313,947.5668 L83.39844,856.6799 L83.59375,932.3056 L83.78906,968.4507 L83.98438,960.9002 L84.17969,954.9686 L84.375,925.7987 L84.57031,848.1768 L84.76563,955.5746 L84.96094,942.0736 L85.15625,904.6169 L85.35156,973.2056 L85.54688,932.8325 L85.74219,924.8857 L85.9375,858.5648 L86.13281,824.9374 L86.32813,958.5139 L86.52344,957.7642 L86.71875,967.3076 L86.91406,942.7025 L87.10938,881.7073 L87.30469,951.5797 L87.5,944.5353 L87.69531,943.5971 L87.89063,936.7382 L88.08594,881.2697 L88.28125,935.412 L88.47656,935.1911 L88.67188,930.132 L88.86719,952.0257 L89.0625,971.4579 L89.25781,977.2828 L89.45313,932.2598 L89.64844,964.2098 L89.84375,940.4091 L90.03906,905.7627 L90.23438,928.3098 L90.42969,904.3235 L90.625,896.3076 L90.82031,943.6283 L91.01563,899.6907 L91.21094,902.9705 L91.40625,982.0038 L91.60156,895.1556 L91.79688,942.4844 L91.99219,901.0253 L92.1875,894.9798 L92.38281,956.7254 L92.57813,916.398 L92.77344,913.2697 L92.96875,896.6271 L93.16406,946.7536 L93.35938,968.088 L93.55469,945.8184 L93.75,937.6014 L93.94531,944.4318 L94.14063,924.8876 L94.33594,964.4265 L94.53125,934.2688 L94.72656,968.1165 L94.92188,927.1437 L95.11719,955.8075 L95.3125,969.5787 L95.50781,962.1923 L95.70313,953.597 L95.89844,928.2944 L96.09375,866.9055 L96.28906,954.3862 L96.48438,927.0962 L96.67969,931.9106 L96.875,965.1496 L97.07031,876.0706 L97.26563,910.1928 L97.46094,939.4672 L97.65625,946.6971 L97.85156,930.1985 L98.04688,921.0213 L98.24219,969.6019 L98.4375,940.6513 L98.63281,959.6923 L98.82813,956.8154 L99.02344,936.3121 L99.21875,904.9295 L99.41406,961.1327 L99.60938,941.1387 L99.80469,880.7565 L100,929.4396 L100.1953,940.5225 L100.3906,948.0574 L100.5859,949.7495 L100.7813,956.5317 L100.9766,979.2778 L101.1719,905.0692 L101.3672,942.9936 L101.5625,968.688 L101.7578,945.3248 L101.9531,882.6392 L102.1484,953.5461 L102.3438,888.962 L102.5391,881.889 L102.7344,938.0361 L102.9297,944.8341 L103.125,969.5921 L103.3203,939.6551 L103.5156,952.5978 L103.7109,936.0342 L103.9063,966.1948 L104.1016,912.0341 L104.2969,959.3968 L104.4922,961.7793 L104.6875,952.5091 L104.8828,903.637 L105.0781,957.353 L105.2734,961.686 L105.4688,909.7336 L105.6641,940.0235 L105.8594,960.3802 L106.0547,965.2471 L106.25,922.1122 L106.4453,918.0851 L106.6406,953.691 L106.8359,902.8487 L107.0313,905.9159 L107.2266,946.5294 L107.4219,954.1567 L107.6172,913.5911 L107.8125,929.4106 L108.0078,918.4131 L108.2031,949.2142 L108.3984,952.915 L108.5938,966.6731 L108.7891,928.3497 L108.9844,927.474 L109.1797,891.5036 L109.375,979.6029 L109.5703,963.5659 L109.7656,932.0659 L109.9609,904.5708 L110.1563,923.8249 L110.3516,945.5438 L110.5469,936.06 L110.7422,980.2676 L110.9375,945.9881 L111.1328,950.3106 L111.3281,965.045 L111.5234,871.1058 L111.7188,964.3002 L111.9141,921.9736 L112.1094,949.674 L112.3047,930.142 L112.5,960.1257 L112.6953,939.7546 L112.8906,954.86 L113.0859,927.3469 L113.2813,930.3954 L113.4766,957.2311 L113.6719,941.0531 L113.8672,954.2795 L114.0625,926.2914 L114.2578,936.2313 L114.4531,957.8215 L114.6484,932.8254 L114.8438,967.7104 L115.0391,965.0023 L115.2344,930.8267 L115.4297,934.1647 L115.625,967.1622 L115.8203,929.63 L116.0156,917.7964 L116.2109,893.1012 L116.4063,948.3218 L116.6016,928.9344 L116.7969,893.6575 L116.9922,945.8344 L117.1875,903.6019 L117.3828,952.3018 L117.5781,927.5992 L117.7734,954.2014 L117.9688,899.1259 L118.1641,862.0972 L118.3594,909.0782 L118.5547,879.1569 L118.75,907.8675 L118.9453,941.115 L119.1406,932.4713 L119.3359,957.3447 L119.5313,896.3979 L119.7266,934.8193 L119.9219,945.1315 L120.1172,933.8323 L120.3125,942.4675 L120.5078,956.2428 L120.7031,879.5101 L120.8984,955.1838 L121.0938,965.9153 L121.2891,938.4577 L121.4844,945.8293 L121.6797,928.7838 L121.875,940.9107 L122.0703,957.3244 L122.2656,913.6892 L122.4609,888.698 L122.6563,968.2079 L122.8516,941.3296 L123.0469,936.3854 L123.2422,932.0936 L123.4375,903.9923 L123.6328,951.9963 L123.8281,958.1008 L124.0234,930.3602 L124.2188,932.8675 L124.4141,946.237 L124.6094,962.3663 L124.8047,930.6004 L125,946.4608 L125.1953,919.4676 L125.3906,919.6647 L125.5859,901.2886 L125.7813,931.4109 L125.9766,970.2646 L126.1719,905.8585 L126.3672,928.7045 L126.5625,957.5146 L126.7578,904.9979 L126.9531,912.9379 L127.1484,948.9943 L127.3438,874.2634 L127.5391,928.4985 L127.7344,970.8409 L127.9297,916.9866 L128.125,948.3477 L128.3203,963.092 L128.5156,955.4932 L128.7109,931.6406 L128.9063,911.9354 L129.1016,944.7509 L129.2969,959.0275 L129.4922,952.2136 L129.6875,914.6032 L129.8828,924.4571 L130.0781,912.1107 L130.2734,924.5256 L130.4688,953.9351 L130.6641,869.1756 L130.8594,889.8601 L131.0547,899.4176 L131.25,970.3994 L131.4453,945.8595 L131.6406,946.8585 L131.8359,930.6041 L132.0313,937.0569 L132.2266,958.6008 L132.4219,970.1968 L132.6172,924.3302 L132.8125,983.9083 L133.0078,945.3576 L133.2031,942.9548 L133.3984,955.788 L133.5938,934.8147 L133.7891,968.686 L133.9844,963.656 L134.1797,957.3463 L134.375,940.5544 L134.5703,947.1426 L134.7656,938.9019 L134.9609,935.8453 L135.1563,965.0487 L135.3516,969.2413 L135.5469,890.2292 L135.7422,962.8996 L135.9375,929.0677 L136.1328,942.5286 L136.3281,946.7778 L136.5234,962.0388 L136.7188,952.4749 L136.9141,943.4484 L137.1094,949.9618 L137.3047,934.6594 L137.5,923.6299 L137.6953,930.5562 L137.8906,935.7349 L138.0859,902.962 L138.2813,926.034 L138.4766,799.6701 L138.6719,960.899 L138.8672,943.7352 L139.0625,913.576 L139.2578,965.201 L139.4531,869.1928 L139.6484,961.2745 L139.8438,939.5648 L140.0391,940.5364 L140.2344,915.0643 L140.4297,920.075 L140.625,898.1697 L140.8203,917.3776 L141.0156,890.3434 L141.2109,911.2996 L141.4063,950.5086 L141.6016,895.8865 L141.7969,944.292 L141.9922,948.6136 L142.1875,951.842 L142.3828,927.0701 L142.5781,966.4308 L142.7734,904.8845 L142.9688,918.1968 L143.1641,964.095 L143.3594,949.2961 L143.5547,954.3392 L143.75,968.3425 L143.9453,865.6349 L144.1406,942.2216 L144.3359,896.1898 L144.5313,962.0323 L144.7266,931.093 L144.9219,959.8182 L145.1172,956.9429 L145.3125,942.5396 L145.5078,940.5202 L145.7031,962.5083 L145.8984,939.2993 L146.0938,928.6659 L146.2891,931.7526 L146.4844,930.3594 L146.6797,960.2903 L146.875,959.4582 L147.0703,968.897 L147.2656,967.4116 L147.4609,942.0087 L147.6563,949.5194 L147.8516,939.0725 L148.0469,880.8846 L148.2422,914.8386 L148.4375,914.5609 L148.6328,946.4019 L148.8281,962.0879 L149.0234,924.4322 L149.2188,939.3361 L149.4141,922.6923 L149.6094,940.5926 L149.8047,963.8763 L150,885.1595 L150.1953,952.4482 L150.3906,954.8381 L150.5859,905.8848 L150.7813,955.169 L150.9766,930.3865 L151.1719,948.1763 L151.3672,948.486 L151.5625,950.3074 L151.7578,972.7427 L151.9531,908.3583 L152.1484,956.7817 L152.3438,932.6472 L152.5391,949.3936 L152.7344,928.1662 L152.9297,976.2821 L153.125,939.0684 L153.3203,969.6923 L153.5156,911.1306 L153.7109,962.3334 L153.9063,938.4053 L154.1016,944.3176 L154.2969,971.3673 L154.4922,969.7364 L154.6875,956.1292 L154.8828,923.9531 L155.0781,957.1244 L155.2734,923.8994 L155.4688,967.3978 L155.6641,951.4357 L155.8594,959.4424 L156.0547,912.728 L156.25,952.9877 L156.4453,927.3204 L156.6406,956.6747 L156.8359,896.1072 L157.0313,940.0853 L157.2266,907.1439 L157.4219,941.514 L157.6172,915.1839 L157.8125,920.1851 L158.0078,957.1215 L158.2031,956.3772 L158.3984,923.2272 L158.5938,965.232 L158.7891,898.9929 L158.9844,979.4901 L159.1797,954.4256 L159.375,979.5021 L159.5703,962.1817 L159.7656,937.4495 L159.9609,933.2893 L160.1563,941.0713 L160.3516,942.8568 L160.5469,954.3448 L160.7422,974.8045 L160.9375,899.0216 L161.1328,941.3587 L161.3281,973.0099 L161.5234,967.0975 L161.7188,947.4244 L161.9141,930.0734 L162.1094,972.014 L162.3047,898.9382 L162.5,940.1752 L162.6953,823.52 L162.8906,926.0561 L163.0859,940.6592 L163.2813,886.3041 L163.4766,950.5471 L163.6719,924.3473 L163.8672,958.8796 L164.0625,928.2619 L164.2578,946.7385 L164.4531,970.9672 L164.6484,947.9507 L164.8438,883.4119 L165.0391,843.5627 L165.2344,962.1486 L165.4297,920.537 L165.625,950.8843 L165.8203,916.4555 L166.0156,955.455 L166.2109,895.139 L166.4063,931.4919 L166.6016,967.5007 L166.7969,960.0189 L166.9922,916.4319 L167.1875,940.0245 L167.3828,977.9778 L167.5781,940.0887 L167.7734,942.4532 L167.9688,973.4272 L168.1641,901.2957 L168.3594,966.6115 L168.5547,971.6995 L168.75,952.4291 L168.9453,896.2363 L169.1406,907.2311 L169.3359,946.943 L169.5313,931.5597 L169.7266,901.1019 L169.9219,924.4027 L170.1172,937.2786 L170.3125,941.2075 L170.5078,935.4109 L170.7031,928.2018 L170.8984,963.8245 L171.0938,905.5165 L171.2891,894.9126 L171.4844,962.5976 L171.6797,955.9385 L171.875,945.214 L172.0703,943.9457 L172.2656,958.8237 L172.4609,943.2021 L172.6563,946.5948 L172.8516,950.0777 L173.0469,960.1975 L173.2422,883.4404 L173.4375,961.5856 L173.6328,903.3211 L173.8281,961.7731 L174.0234,931.7706 L174.2188,940.9075 L174.4141,955.4618 L174.6094,924.7084 L174.8047,979.3083 L175,961.4035 L175.1953,917.1988 L175.3906,949.535 L175.5859,944.905 L175.7813,945.948 L175.9766,975.7908 L176.1719,963.8043 L176.3672,938.4557 L176.5625,956.7933 L176.7578,930.191 L176.9531,958.0037 L177.1484,937.4438 L177.3438,958.5134 L177.5391,898.123 L177.7344,947.9302 L177.9297,961.3331 L178.125,920.1428 L178.3203,938.0961 L178.5156,950.8374 L178.7109,879.3171 L178.9063,971.7263 L179.1016,937.5397 L179.2969,930.6688 L179.4922,952.2073 L179.6875,936.408 L179.8828,947.4877 L180.0781,936.356 L180.2735,975.5649 L180.4688,954.4266 L180.6641,944.9817 L180.8594,933.3624 L181.0547,968.8344 L181.25,980.2916 L181.4453,933.2738 L181.6406,953.7232 L181.8359,900.2464 L182.0313,918.9019 L182.2266,925.3987 L182.4219,957.5718 L182.6172,877.7567 L182.8125,983.083 L183.0078,967.1168 L183.2031,950.5577 L183.3984,849.9286 L183.5938,936.0356 L183.7891,915.8621 L183.9844,911.8307 L184.1797,946.422 L184.375,932.8517 L184.5703,877.8032 L184.7656,942.2004 L184.9609,947.9687 L185.1563,883.9094 L185.3516,931.0903 L185.5469,942.577 L185.7422,960.6599 L185.9375,956.274 L186.1328,916.6265 L186.3281,946.9338 L186.5234,952.1115 L186.7188,853.1304 L186.9141,952.4979 L187.1094,926.4351 L187.3047,873.5572 L187.5,898.9783 L187.6953,930.2114 L187.8906,953.3834 L188.086,929.4549 L188.2813,955.3586 L188.4766,955.8444 L188.6719,920.1457 L188.8672,896.924 L189.0625,904.3882 L189.2578,967.3565 L189.4531,969.8954 L189.6484,951.0622 L189.8438,957.6816 L190.0391,910.5358 L190.2344,952.6864 L190.4297,877.1501 L190.625,950.2493 L190.8203,877.4615 L191.0156,907.6224 L191.2109,960.2968 L191.4063,909.8331 L191.6016,958.6744 L191.7969,946.4952 L191.9922,938.4142 L192.1875,931.1143 L192.3828,956.4096 L192.5781,942.344 L192.7734,954.2283 L192.9688,918.7598 L193.1641,939.8988 L193.3594,913.5947 L193.5547,949.197 L193.75,962.7856 L193.9453,952.143 L194.1406,964.6759 L194.3359,946.0549 L194.5313,943.9424 L194.7266,933.2413 L194.9219,937.6827 L195.1172,948.4435 L195.3125,950.0626 L195.5078,917.8304 L195.7031,935.6672 L195.8985,957.4079 L196.0938,952.0744 L196.2891,948.2853 L196.4844,919.3854 L196.6797,941.1793 L196.875,923.7632 L197.0703,857.0793 L197.2656,926.756 L197.4609,926.7816 L197.6563,940.7677 L197.8516,861.5909 L198.0469,919.9645 L198.2422,919.2406 L198.4375,918.1523 L198.6328,957.1519 L198.8281,915.4182 L199.0234,918.5703 L199.2188,919.8968 L199.4141,937.7207 L199.6094,954.8588 L199.8047,933.4724 L200,932.0353 L200.1953,925.5443 L200.3906,903.4479 L200.5859,958.7814 L200.7813,916.0182 L200.9766,979.8802 L201.1719,889.2524 L201.3672,981.1501 L201.5625,903.7753 L201.7578,895.9583 L201.9531,880.7691 L202.1484,962.9901 L202.3438,957.9383 L202.5391,921.5108 L202.7344,963.5118 L202.9297,944.3008 L203.125,952.424 L203.3203,952.7841 L203.5156,961.2901 L203.711,953.0977 L203.9063,872.8329 L204.1016,981.7285 L204.2969,851.3686 L204.4922,940.0762 L204.6875,933.6705 L204.8828,958.9967 L205.0781,947.2332 L205.2734,926.7027 L205.4688,952.3951 L205.6641,951.4393 L205.8594,949.1025 L206.0547,966.7396 L206.25,926.749 L206.4453,900.5361 L206.6406,932.9998 L206.8359,967.7402 L207.0313,908.7275 L207.2266,965.2279 L207.4219,942.5016 L207.6172,790 L207.8125,937.6525 L208.0078,920.8356 L208.2031,937.6893 L208.3984,969.1503 L208.5938,977.188 L208.7891,949.1561 L208.9844,909.7795 L209.1797,957.689 L209.375,922.2607 L209.5703,958.1052 L209.7656,880.9229 L209.9609,916.9683 L210.1563,918.217 L210.3516,957.8661 L210.5469,950.2211 L210.7422,859.9309 L210.9375,954.6871 L211.1328,937.556 L211.3281,913.8591 L211.5235,957.647 L211.7188,942.0161 L211.9141,968.9789 L212.1094,939.4224 L212.3047,961.3834 L212.5,962.312 L212.6953,923.3796 L212.8906,982.9236 L213.0859,977.0602 L213.2813,951.9265 L213.4766,943.9105 L213.6719,955.9549 L213.8672,946.229 L214.0625,956.4934 L214.2578,958.5599 L214.4531,899.8736 L214.6484,921.2468 L214.8438,921.4753 L215.0391,939.439 L215.2344,975.5154 L215.4297,957.1407 L215.625,948.2829 L215.8203,890.4301 L216.0156,956.5403 L216.2109,953.814 L216.4063,952.5836 L216.6016,940.0074 L216.7969,964.92 L216.9922,893.1682 L217.1875,942.0053 L217.3828,907.4777 L217.5781,972.2322 L217.7734,892.2437 L217.9688,942.0231 L218.1641,968.7139 L218.3594,961.7813 L218.5547,956.0999 L218.75,898.7078 L218.9453,855.9796 L219.1406,953.5037 L219.336,959.2252 L219.5313,949.8105 L219.7266,961.1464 L219.9219,963.5405 L220.1172,930.3224 L220.3125,936.4282 L220.5078,917.6316 L220.7031,941.4286 L220.8984,928.1259 L221.0938,934.8291 L221.2891,918.6193 L221.4844,964.9988 L221.6797,961.1017 L221.875,880.9538 L222.0703,941.545 L222.2656,934.3726 L222.4609,927.1626 L222.6563,949.8813 L222.8516,924.2529 L223.0469,967.231 L223.2422,931.5797 L223.4375,965.8937 L223.6328,913.5493 L223.8281,866.4788 L224.0234,966.3638 L224.2188,962.9253 L224.4141,952.8457 L224.6094,939.659 L224.8047,974.1959 L225,943.8175 L225.1953,965.4658 L225.3906,920.8384 L225.5859,922.5703 L225.7813,941.3749 L225.9766,935.1309 L226.1719,970.7844 L226.3672,964.5128 L226.5625,938.5841 L226.7578,957.7009 L226.9531,941.3094 L227.1485,940.4471 L227.3438,927.919 L227.5391,945.0164 L227.7344,922.5589 L227.9297,903.5024 L228.125,963.499 L228.3203,933.3494 L228.5156,950.8863 L228.7109,945.8412 L228.9063,976.5474 L229.1016,912.047 L229.2969,921.1655 L229.4922,936.5275 L229.6875,917.528 L229.8828,926.8604 L230.0781,839.3763 L230.2734,963.4817 L230.4688,967.9763 L230.6641,948.7163 L230.8594,973.8389 L231.0547,916.6277 L231.25,958.6105 L231.4453,954.1467 L231.6406,943.2297 L231.8359,912.8958 L232.0313,975.2155 L232.2266,921.8735 L232.4219,939.869 L232.6172,966.6282 L232.8125,973.902 L233.0078,957.991 L233.2031,944.7151 L233.3984,913.4489 L233.5938,948.3015 L233.7891,965.9339 L233.9844,891.8687 L234.1797,922.4423 L234.375,950.458 L234.5703,956.1025 L234.7656,971.3007 L234.961,935.6 L235.1563,977.5263 L235.3516,943.0878 L235.5469,959.2873 L235.7422,920.3976 L235.9375,957.3846 L236.1328,965.1849 L236.3281,965.8006 L236.5234,985.1414 L236.7188,972.598 L236.9141,933.5998 L237.1094,968.9053 L237.3047,944.4402 L237.5,915.6745 L237.6953,922.1362 L237.8906,942.2054 L238.0859,948.1013 L238.2813,948.9972 L238.4766,962.4011 L238.6719,925.08 L238.8672,969.3877 L239.0625,956.4406 L239.2578,891.0565 L239.4531,912.822 L239.6484,961.2488 L239.8438,931.0077 L240.0391,931.2867 L240.2344,851.4526 L240.4297,890.9849 L240.625,959.7825 L240.8203,927.7706 L241.0156,969.4738 L241.2109,964.4103 L241.4063,966.5693 L241.6016,966.9318 L241.7969,963.7145 L241.9922,949.7871 L242.1875,923.6461 L242.3828,876.7862 L242.5781,980.0314 L242.7735,897.9597 L242.9688,938.9338 L243.1641,974.299 L243.3594,963.7449 L243.5547,928.7282 L243.75,959.9091 L243.9453,867.2521 L244.1406,909.7687 L244.3359,954.8987 L244.5313,943.3312 L244.7266,961.1423 L244.9219,953.4338 L245.1172,956.5963 L245.3125,956.2021 L245.5078,839.314 L245.7031,949.6227 L245.8984,934.6913 L246.0938,963.2139 L246.2891,929.9562 L246.4844,954.4846 L246.6797,964.583 L246.875,963.4356 L247.0703,914.746 L247.2656,983.3238 L247.4609,959.6545 L247.6563,930.064 L247.8516,972.4814 L248.0469,976.5391 L248.2422,927.9894 L248.4375,925.8007 L248.6328,938.1252 L248.8281,949.097 L249.0234,913.7534 L249.2188,944.6615 L249.4141,968.7236 L249.6094,952.725 L249.8047,976.8302 L250,942.2808 L250.1953,934.3344 L250.3906,843.2206 L250.586,919.006 L250.7813,929.8414 L250.9766,943.2267 L251.1719,944.9736 L251.3672,948.2612 L251.5625,873.3536 L251.7578,957.0368 L251.9531,943.7695 L252.1484,907.8777 L252.3438,954.2877 L252.5391,959.2913 L252.7344,948.7648 L252.9297,961.0334 L253.125,945.5047 L253.3203,939.7503 L253.5156,944.6851 L253.7109,947.8828 L253.9063,877.2744 L254.1016,888.4938 L254.2969,915.5066 L254.4922,954.879 L254.6875,910.366 L254.8828,958.1581 L255.0781,981.7632 L255.2734,960.5392 L255.4688,939.5643 L255.6641,917.8412 L255.8594,890.6216 L256.0547,936.3175 L256.25,938.1465 L256.4453,972.2426 L256.6406,967.0497 L256.8359,903.1022 L257.0313,981.8379 L257.2266,959.0717 L257.4219,964.8967 L257.6172,911.0585 L257.8125,958.3578 L258.0078,939.6273 L258.2031,960.1926 L258.3984,970.0761 L258.5938,952.5809 L258.7891,934.1851 L258.9844,960.9971 L259.1797,953.1196 L259.375,921.9495 L259.5703,939.0865 L259.7656,947.4046 L259.9609,949.3936 L260.1563,891.1469 L260.3516,926.3408 L260.5469,873.9746 L260.7422,913.351 L260.9375,960.8409 L261.1328,946.1948 L261.3281,891.9572 L261.5234,930.2672 L261.7188,892.0037 L261.9141,893.5725 L262.1094,958.2454 L262.3047,953.7612 L262.5,947.0455 L262.6953,895.4376 L262.8906,873.0533 L263.0859,926.1974 L263.2813,942.7586 L263.4766,960.1763 L263.6719,908.7745 L263.8672,895.0201 L264.0625,923.2833 L264.2578,934.0151 L264.4531,950.467 L264.6484,956.2721 L264.8438,947.0765 L265.0391,918.8762 L265.2344,941.8914 L265.4297,977.061 L265.625,945.1755 L265.8203,915.8232 L266.0156,900.5839 L266.2109,938.7043 L266.4063,963.5985 L266.6016,920.5417 L266.7969,962.9327 L266.9922,931.4664 L267.1875,907.4475 L267.3828,912.5518 L267.5781,905.5343 L267.7734,941.5481 L267.9688,899.5505 L268.1641,917.5248 L268.3594,955.8466 L268.5547,960.8493 L268.75,954.7224 L268.9453,929.9581 L269.1406,947.9175 L269.3359,960.9597 L269.5313,940.6678 L269.7266,938.7117 L269.9219,955.5825 L270.1172,959.5515 L270.3125,939.9122 L270.5078,959.2266 L270.7031,932.9235 L270.8984,944.2508 L271.0938,969.8269 L271.2891,980.2955 L271.4844,962.9177 L271.6797,950.4218 L271.875,959.451 L272.0703,984.5759 L272.2656,936.7967 L272.4609,946.8751 L272.6563,978.8448 L272.8516,974.1702 L273.0469,960.3157 L273.2422,928.7007 L273.4375,942.712 L273.6328,944.1522 L273.8281,953.0154 L274.0234,926.3135 L274.2188,919.1003 L274.4141,939.2667 L274.6094,989.5491 L274.8047,958.9725 L275,967.9516 L275.1953,945.7943 L275.3906,961.8721 L275.5859,955.0673 L275.7813,915.7498 L275.9766,929.7202 L276.1719,919.7254 L276.3672,835.8135 L276.5625,959.0111 L276.7578,960.6617 L276.9531,967.5894 L277.1484,849.2696 L277.3438,938.9233 L277.5391,942.8359 L277.7344,968.4018 L277.9297,935.7358 L278.125,901.1691 L278.3203,924.7112 L278.5156,883.9683 L278.7109,873.374 L278.9063,956.9468 L279.1016,949.1392 L279.2969,948.332 L279.4922,944.2037 L279.6875,905.6732 L279.8828,976.7172 L280.0781,912.6558 L280.2734,916.0262 L280.4688,959.6395 L280.6641,937.8251 L280.8594,940.2004 L281.0547,858.2739 L281.25,934.801 L281.4453,910.0179 L281.6406,945.9236 L281.8359,932.8885 L282.0313,885.9052 L282.2266,882.7767 L282.4219,947.1647 L282.6172,940.7263 L282.8125,955.6852 L283.0078,940.0082 L283.2031,952.1227 L283.3984,938.2149 L283.5938,951.1508 L283.7891,914.118 L283.9844,961.1473 L284.1797,964.1261 L284.375,916.3045 L284.5703,868.6612 L284.7656,958.2951 L284.9609,922.3408 L285.1563,953.0444 L285.3516,959.8783 L285.5469,931.9291 L285.7422,952.9564 L285.9375,957.7192 L286.1328,917.1406 L286.3281,937.5817 L286.5234,952.5587 L286.7188,960.9191 L286.9141,940.0607 L287.1094,955.0526 L287.3047,921.9084 L287.5,874.2045 L287.6953,958.4157 L287.8906,920.8952 L288.0859,920.5293 L288.2813,900.066 L288.4766,925.9258 L288.6719,918.1646 L288.8672,946.6676 L289.0625,896.9368 L289.2578,875.0471 L289.4531,953.3151 L289.6484,928.5046 L289.8438,966.4251 L290.0391,932.2546 L290.2344,912.5756 L290.4297,954.3465 L290.625,942.5032 L290.8203,944.7761 L291.0156,943.9717 L291.2109,952.252 L291.4063,952.8653 L291.6016,942.6538 L291.7969,983.8196 L291.9922,954.5085 L292.1875,949.2069 L292.3828,951.0977 L292.5781,950.0532 L292.7734,933.3781 L292.9688,959.708 L293.1641,936.4783 L293.3594,929.5966 L293.5547,955.2152 L293.75,957.0487 L293.9453,981.6643 L294.1406,960.4522 L294.3359,952.0673 L294.5313,898.9877 L294.7266,955.2414 L294.9219,928.5208 L295.1172,965.2498 L295.3125,990 L295.5078,877.6688 L295.7031,944.8347 L295.8984,934.751 L296.0938,915.8043 L296.2891,972.3881 L296.4844,913.2975 L296.6797,944.3303 L296.875,951.8728 L297.0703,937.5922 L297.2656,950.8189 L297.4609,919.9055 L297.6563,963.3824 L297.8516,977.0146 L298.0469,934.7215 L298.2422,931.2354 L298.4375,947.0672 L298.6328,949.0256 L298.8281,975.4736 L299.0234,912.0488 L299.2188,928.9573 L299.4141,938.7951 L299.6094,913.839 L299.8047,905.554 L300,880.2092 L300.1953,952.4796 L300.3906,902.7894 L300.5859,952.2591 L300.7813,952.2659 L300.9766,946.6046 L301.1719,961.8525 L301.3672,948.0375 L301.5625,937.9445 " stroke="blue" fill="none" />
<text x="50" y="1040" font-family="Arial" font-size="12" fill="black">Episode Length (1289)</text>
<text x="50" y="1055" font-family="Arial" font-size="10" fill="black">226</text>
<text x="50" y="1270" font-family="Arial" font-size="10" fill="black">27</text>
<path d="M50,1253.97 L50.19531,1253.97 L50.39063,1241.91 L50.58594,1239.9 L50.78125,1239.9 L50.97656,1237.889 L51.17188,1236.884 L51.36719,1235.879 L51.5625,1231.859 L51.75781,1230.854 L51.95313,1224.824 L52.14844,1223.819 L52.34375,1223.819 L52.53906,1222.814 L52.73438,1221.809 L52.92969,1218.794 L53.125,1217.789 L53.32031,1215.779 L53.51563,1214.774 L53.71094,1213.769 L53.90625,1211.759 L54.10156,1211.759 L54.29688,1208.744 L54.49219,1208.744 L54.6875,1205.729 L54.88281,1202.714 L55.07813,1201.708 L55.27344,1201.708 L55.46875,1197.688 L55.66406,1197.688 L55.85938,1196.683 L56.05469,1251.96 L56.25,1194.673 L56.44531,1192.663 L56.64063,1190.653 L56.83594,1190.653 L57.03125,1189.648 L57.22656,1237.889 L57.42188,1184.623 L57.61719,1182.613 L57.8125,1181.608 L58.00781,1181.608 L58.20313,1179.598 L58.39844,1178.593 L58.59375,1244.925 L58.78906,1246.935 L58.98438,1235.879 L59.17969,1221.809 L59.375,1169.548 L59.57031,1219.799 L59.76563,1199.698 L59.96094,1165.528 L60.15625,1240.905 L60.35156,1216.784 L60.54688,1231.859 L60.74219,1189.648 L60.9375,1238.895 L61.13281,1221.809 L61.32813,1223.819 L61.52344,1201.708 L61.71875,1184.623 L61.91406,1183.618 L62.10938,1205.729 L62.30469,1133.367 L62.5,1200.703 L62.69531,1195.678 L62.89063,1254.975 L63.08594,1239.9 L63.28125,1190.653 L63.47656,1214.774 L63.67188,1222.814 L63.86719,1227.839 L64.0625,1238.895 L64.25781,1233.869 L64.45313,1183.618 L64.64844,1119.297 L64.84375,1200.703 L65.03906,1199.698 L65.23438,1189.648 L65.42969,1200.703 L65.625,1181.608 L65.82031,1151.457 L66.01563,1192.663 L66.21094,1196.683 L66.40625,1225.829 L66.60156,1227.839 L66.79688,1217.789 L66.99219,1203.719 L67.1875,1184.623 L67.38281,1087.136 L67.57813,1176.583 L67.77344,1199.698 L67.96875,1233.869 L68.16406,1238.895 L68.35938,1235.879 L68.55469,1242.915 L68.75,1180.603 L68.94531,1223.819 L69.14063,1169.548 L69.33594,1183.618 L69.53125,1168.543 L69.72656,1225.829 L69.92188,1144.422 L70.11719,1211.759 L70.3125,1202.714 L70.50781,1179.598 L70.70313,1181.608 L70.89844,1163.518 L71.09375,1222.814 L71.28906,1215.779 L71.48438,1203.719 L71.67969,1242.915 L71.875,1203.719 L72.07031,1216.784 L72.26563,1153.467 L72.46094,1217.789 L72.65625,1235.879 L72.85156,1225.829 L73.04688,1230.854 L73.24219,1208.744 L73.4375,1204.724 L73.63281,1215.779 L73.82813,1227.839 L74.02344,1146.432 L74.21875,1194.673 L74.41406,1233.869 L74.60938,1198.693 L74.80469,1188.643 L75,1189.648 L75.19531,1209.749 L75.39063,1147.437 L75.58594,1222.814 L75.78125,1205.729 L75.97656,1185.628 L76.17188,1241.91 L76.36719,1209.749 L76.5625,1207.739 L76.75781,1209.749 L76.95313,1228.844 L77.14844,1212.764 L77.34375,1226.834 L77.53906,1205.729 L77.73438,1238.895 L77.92969,1203.719 L78.125,1190.653 L78.32031,1202.714 L78.51563,1208.744 L78.71094,1235.879 L78.90625,1227.839 L79.10156,1196.683 L79.29688,1228.844 L79.49219,1209.749 L79.6875,1218.794 L79.88281,1200.703 L80.07813,1229.849 L80.27344,1229.849 L80.46875,1196.683 L80.66406,1229.849 L80.85938,1198.693 L81.05469,1216.784 L81.25,1205.729 L81.44531,1213.769 L81.64063,1228.844 L81.83594,1201.708 L82.03125,1168.543 L82.22656,1190.653 L82.42188,1227.839 L82.61719,1209.749 L82.8125,1194.673 L83.00781,1200.703 L83.20313,1217.789 L83.39844,1121.307 L83.59375,1199.698 L83.78906,1233.869 L83.98438,1230.854 L84.17969,1222.814 L84.375,1194.673 L84.57031,1114.271 L84.76563,1225.829 L84.96094,1210.754 L85.15625,1169.548 L85.35156,1242.915 L85.54688,1200.703 L85.74219,1196.683 L85.9375,1124.322 L86.13281,1086.131 L86.32813,1228.844 L86.52344,1226.834 L86.71875,1237.889 L86.91406,1209.749 L87.10938,1146.432 L87.30469,1219.799 L87.5,1214.774 L87.69531,1211.759 L87.89063,1204.724 L88.08594,1149.447 L88.28125,1203.719 L88.47656,1200.703 L88.67188,1198.693 L88.86719,1218.794 L89.0625,1240.905 L89.25781,1248.945 L89.45313,1201.708 L89.64844,1231.859 L89.84375,1208.744 L90.03906,1174.573 L90.23438,1192.663 L90.42969,1168.543 L90.625,1161.508 L90.82031,1209.749 L91.01563,1168.543 L91.21094,1172.563 L91.40625,1248.945 L91.60156,1163.518 L91.79688,1209.749 L91.99219,1168.543 L92.1875,1163.518 L92.38281,1222.814 L92.57813,1180.603 L92.77344,1181.608 L92.96875,1159.497 L93.16406,1214.774 L93.35938,1236.884 L93.55469,1213.769 L93.75,1206.734 L93.94531,1211.759 L94.14063,1193.668 L94.33594,1231.859 L94.53125,1200.703 L94.72656,1237.889 L94.92188,1199.698 L95.11719,1220.804 L95.3125,1238.895 L95.50781,1229.849 L95.70313,1222.814 L95.89844,1196.683 L96.09375,1134.372 L96.28906,1220.804 L96.48438,1196.683 L96.67969,1198.693 L96.875,1235.879 L97.07031,1145.427 L97.26563,1177.588 L97.46094,1207.739 L97.65625,1211.759 L97.85156,1197.688 L98.04688,1186.633 L98.24219,1239.9 L98.4375,1203.719 L98.63281,1229.849 L98.82813,1224.824 L99.02344,1203.719 L99.21875,1172.563 L99.41406,1229.849 L99.60938,1209.749 L99.80469,1145.427 L100,1195.678 L100.1953,1210.754 L100.3906,1216.784 L100.5859,1217.789 L100.7813,1224.824 L100.9766,1249.95 L101.1719,1174.573 L101.3672,1211.759 L101.5625,1239.9 L101.7578,1215.779 L101.9531,1148.442 L102.1484,1218.794 L102.3438,1153.467 L102.5391,1143.417 L102.7344,1205.729 L102.9297,1211.759 L103.125,1239.9 L103.3203,1206.734 L103.5156,1224.824 L103.7109,1201.708 L103.9063,1236.884 L104.1016,1175.578 L104.2969,1227.839 L104.4922,1230.854 L104.6875,1220.804 L104.8828,1169.548 L105.0781,1224.824 L105.2734,1230.854 L105.4688,1174.573 L105.6641,1209.749 L105.8594,1230.854 L106.0547,1235.879 L106.25,1188.643 L106.4453,1185.628 L106.6406,1222.814 L106.8359,1166.533 L107.0313,1171.558 L107.2266,1215.779 L107.4219,1222.814 L107.6172,1181.608 L107.8125,1196.683 L108.0078,1187.638 L108.2031,1218.794 L108.3984,1222.814 L108.5938,1232.864 L108.7891,1197.688 L108.9844,1192.663 L109.1797,1157.487 L109.375,1249.95 L109.5703,1234.874 L109.7656,1199.698 L109.9609,1175.578 L110.1563,1191.658 L110.3516,1211.759 L110.5469,1205.729 L110.7422,1250.955 L110.9375,1215.779 L111.1328,1219.799 L111.3281,1232.864 L111.5234,1137.387 L111.7188,1232.864 L111.9141,1187.638 L112.1094,1218.794 L112.3047,1198.693 L112.5,1228.844 L112.6953,1211.759 L112.8906,1225.829 L113.0859,1195.678 L113.2813,1196.683 L113.4766,1224.824 L113.6719,1207.739 L113.8672,1222.814 L114.0625,1198.693 L114.2578,1203.719 L114.4531,1225.829 L114.6484,1196.683 L114.8438,1237.889 L115.0391,1233.869 L115.2344,1197.688 L115.4297,1201.708 L115.625,1236.884 L115.8203,1197.688 L116.0156,1186.633 L116.2109,1158.492 L116.4063,1216.784 L116.6016,1194.673 L116.7969,1158.492 L116.9922,1213.769 L117.1875,1170.553 L117.3828,1218.794 L117.5781,1195.678 L117.7734,1224.824 L117.9688,1169.548 L118.1641,1130.352 L118.3594,1176.583 L118.5547,1142.412 L118.75,1177.588 L118.9453,1209.749 L119.1406,1202.714 L119.3359,1223.819 L119.5313,1163.518 L119.7266,1202.714 L119.9219,1211.759 L120.1172,1203.719 L120.3125,1210.754 L120.5078,1223.819 L120.7031,1145.427 L120.8984,1223.819 L121.0938,1233.869 L121.2891,1210.754 L121.4844,1212.764 L121.6797,1197.688 L121.875,1208.744 L122.0703,1225.829 L122.2656,1181.608 L122.4609,1155.477 L122.6563,1235.879 L122.8516,1210.754 L123.0469,1205.729 L123.2422,1199.698 L123.4375,1170.553 L123.6328,1222.814 L123.8281,1225.829 L124.0234,1201.708 L124.2188,1201.708 L124.4141,1215.779 L124.6094,1230.854 L124.8047,1198.693 L125,1213.769 L125.1953,1189.648 L125.3906,1188.643 L125.5859,1170.553 L125.7813,1199.698 L125.9766,1241.91 L126.1719,1174.573 L126.3672,1198.693 L126.5625,1225.829 L126.7578,1170.553 L126.9531,1179.598 L127.1484,1217.789 L127.3438,1143.417 L127.5391,1196.683 L127.7344,1237.889 L127.9297,1183.618 L128.125,1219.799 L128.3203,1229.849 L128.5156,1223.819 L128.7109,1200.703 L128.9063,1178.593 L129.1016,1212.764 L129.2969,1229.849 L129.4922,1221.809 L129.6875,1180.603 L129.8828,1190.653 L130.0781,1179.598 L130.2734,1194.673 L130.4688,1224.824 L130.6641,1134.372 L130.8594,1156.482 L131.0547,1170.553 L131.25,1238.895 L131.4453,1213.769 L131.6406,1216.784 L131.8359,1197.688 L132.0313,1203.719 L132.2266,1225.829 L132.4219,1237.889 L132.6172,1189.648 L132.8125,1251.96 L133.0078,1212.764 L133.2031,1208.744 L133.3984,1224.824 L133.5938,1202.714 L133.7891,1234.874 L133.9844,1234.874 L134.1797,1227.839 L134.375,1208.744 L134.5703,1214.774 L134.7656,1203.719 L134.9609,1203.719 L135.1563,1236.884 L135.3516,1238.895 L135.5469,1157.487 L135.7422,1229.849 L135.9375,1197.688 L136.1328,1209.749 L136.3281,1214.774 L136.5234,1228.844 L136.7188,1222.814 L136.9141,1212.764 L137.1094,1216.784 L137.3047,1199.698 L137.5,1192.663 L137.6953,1196.683 L137.8906,1204.724 L138.0859,1167.538 L138.2813,1191.658 L138.4766,1065.025 L138.6719,1229.849 L138.8672,1211.759 L139.0625,1179.598 L139.2578,1234.874 L139.4531,1136.382 L139.6484,1230.854 L139.8438,1207.739 L140.0391,1207.739 L140.2344,1185.628 L140.4297,1186.633 L140.625,1164.523 L140.8203,1185.628 L141.0156,1155.477 L141.2109,1182.613 L141.4063,1217.789 L141.6016,1165.528 L141.7969,1211.759 L141.9922,1215.779 L142.1875,1222.814 L142.3828,1193.668 L142.5781,1234.874 L142.7734,1174.573 L142.9688,1184.623 L143.1641,1236.884 L143.3594,1218.794 L143.5547,1222.814 L143.75,1238.895 L143.9453,1132.362 L144.1406,1212.764 L144.3359,1163.518 L144.5313,1229.849 L144.7266,1196.683 L144.9219,1228.844 L145.1172,1223.819 L145.3125,1211.759 L145.5078,1209.749 L145.7031,1233.869 L145.8984,1207.739 L146.0938,1195.678 L146.2891,1199.698 L146.4844,1197.688 L146.6797,1229.849 L146.875,1227.839 L147.0703,1233.869 L147.2656,1235.879 L147.4609,1206.734 L147.6563,1217.789 L147.8516,1207.739 L148.0469,1150.452 L148.2422,1183.618 L148.4375,1180.603 L148.6328,1214.774 L148.8281,1230.854 L149.0234,1191.658 L149.2188,1208.744 L149.4141,1191.658 L149.6094,1208.744 L149.8047,1231.859 L150,1150.452 L150.1953,1219.799 L150.3906,1223.819 L150.5859,1173.568 L150.7813,1223.819 L150.9766,1199.698 L151.1719,1216.784 L151.3672,1220.804 L151.5625,1215.779 L151.7578,1240.905 L151.9531,1175.578 L152.1484,1224.824 L152.3438,1200.703 L152.5391,1219.799 L152.7344,1198.693 L152.9297,1244.925 L153.125,1199.698 L153.3203,1238.895 L153.5156,1179.598 L153.7109,1229.849 L153.9063,1205.729 L154.1016,1211.759 L154.2969,1243.92 L154.4922,1237.889 L154.6875,1227.839 L154.8828,1190.653 L155.0781,1228.844 L155.2734,1193.668 L155.4688,1236.884 L155.6641,1219.799 L155.8594,1227.839 L156.0547,1177.588 L156.25,1220.804 L156.4453,1196.683 L156.6406,1225.829 L156.8359,1162.513 L157.0313,1206.734 L157.2266,1176.583 L157.4219,1208.744 L157.6172,1180.603 L157.8125,1188.643 L158.0078,1222.814 L158.2031,1224.824 L158.3984,1193.668 L158.5938,1236.884 L158.7891,1165.528 L158.9844,1249.95 L159.1797,1222.814 L159.375,1250.955 L159.5703,1229.849 L159.7656,1204.724 L159.9609,1201.708 L160.1563,1207.739 L160.3516,1212.764 L160.5469,1223.819 L160.7422,1243.92 L160.9375,1163.518 L161.1328,1210.754 L161.3281,1243.92 L161.5234,1234.874 L161.7188,1217.789 L161.9141,1197.688 L162.1094,1241.91 L162.3047,1165.528 L162.5,1206.734 L162.6953,1090.151 L162.8906,1195.678 L163.0859,1210.754 L163.2813,1150.452 L163.4766,1220.804 L163.6719,1187.638 L163.8672,1228.844 L164.0625,1195.678 L164.2578,1214.774 L164.4531,1240.905 L164.6484,1219.799 L164.8438,1142.412 L165.0391,1109.246 L165.2344,1229.849 L165.4297,1186.633 L165.625,1218.794 L165.8203,1184.623 L166.0156,1221.809 L166.2109,1164.523 L166.4063,1199.698 L166.6016,1238.895 L166.7969,1226.834 L166.9922,1185.628 L167.1875,1209.749 L167.3828,1245.93 L167.5781,1209.749 L167.7734,1212.764 L167.9688,1240.905 L168.1641,1172.563 L168.3594,1232.864 L168.5547,1240.905 L168.75,1222.814 L168.9453,1161.508 L169.1406,1177.588 L169.3359,1215.779 L169.5313,1199.698 L169.7266,1167.538 L169.9219,1193.668 L170.1172,1206.734 L170.3125,1209.749 L170.5078,1203.719 L170.7031,1192.663 L170.8984,1230.854 L171.0938,1171.558 L171.2891,1161.508 L171.4844,1229.849 L171.6797,1223.819 L171.875,1214.774 L172.0703,1214.774 L172.2656,1221.809 L172.4609,1211.759 L172.6563,1212.764 L172.8516,1218.794 L173.0469,1224.824 L173.2422,1150.452 L173.4375,1231.859 L173.6328,1168.543 L173.8281,1227.839 L174.0234,1198.693 L174.2188,1212.764 L174.4141,1225.829 L174.6094,1190.653 L174.8047,1247.94 L175,1231.859 L175.1953,1186.633 L175.3906,1217.789 L175.5859,1213.769 L175.7813,1212.764 L175.9766,1246.935 L176.1719,1231.859 L176.3672,1208.744 L176.5625,1225.829 L176.7578,1197.688 L176.9531,1225.829 L177.1484,1204.724 L177.3438,1229.849 L177.5391,1169.548 L177.7344,1217.789 L177.9297,1232.864 L178.125,1186.633 L178.3203,1202.714 L178.5156,1220.804 L178.7109,1147.437 L178.9063,1240.905 L179.1016,1206.734 L179.2969,1201.708 L179.4922,1219.799 L179.6875,1204.724 L179.8828,1218.794 L180.0781,1205.729 L180.2735,1242.915 L180.4688,1221.809 L180.6641,1212.764 L180.8594,1201.708 L181.0547,1236.884 L181.25,1249.95 L181.4453,1199.698 L181.6406,1221.809 L181.8359,1168.543 L182.0313,1185.628 L182.2266,1193.668 L182.4219,1226.834 L182.6172,1142.412 L182.8125,1250.955 L183.0078,1236.884 L183.2031,1218.794 L183.3984,1118.292 L183.5938,1203.719 L183.7891,1184.623 L183.9844,1179.598 L184.1797,1215.779 L184.375,1200.703 L184.5703,1140.402 L184.7656,1209.749 L184.9609,1218.794 L185.1563,1146.432 L185.3516,1201.708 L185.5469,1210.754 L185.7422,1232.864 L185.9375,1224.824 L186.1328,1185.628 L186.3281,1215.779 L186.5234,1219.799 L186.7188,1119.297 L186.9141,1221.809 L187.1094,1194.673 L187.3047,1140.402 L187.5,1165.528 L187.6953,1197.688 L187.8906,1222.814 L188.086,1195.678 L188.2813,1222.814 L188.4766,1222.814 L188.6719,1187.638 L188.8672,1164.523 L189.0625,1171.558 L189.2578,1234.874 L189.4531,1237.889 L189.6484,1215.779 L189.8438,1226.834 L190.0391,1178.593 L190.2344,1219.799 L190.4297,1144.422 L190.625,1218.794 L190.8203,1141.407 L191.0156,1179.598 L191.2109,1228.844 L191.4063,1178.593 L191.6016,1228.844 L191.7969,1214.774 L191.9922,1206.734 L192.1875,1199.698 L192.3828,1223.819 L192.5781,1211.759 L192.7734,1218.794 L192.9688,1187.638 L193.1641,1207.739 L193.3594,1184.623 L193.5547,1217.789 L193.75,1231.859 L193.9453,1216.784 L194.1406,1233.869 L194.3359,1213.769 L194.5313,1209.749 L194.7266,1201.708 L194.9219,1203.719 L195.1172,1211.759 L195.3125,1218.794 L195.5078,1185.628 L195.7031,1205.729 L195.8985,1225.829 L196.0938,1218.794 L196.2891,1215.779 L196.4844,1189.648 L196.6797,1208.744 L196.875,1194.673 L197.0703,1123.317 L197.2656,1193.668 L197.4609,1195.678 L197.6563,1206.734 L197.8516,1125.327 L198.0469,1184.623 L198.2422,1186.633 L198.4375,1188.643 L198.6328,1228.844 L198.8281,1182.613 L199.0234,1185.628 L199.2188,1189.648 L199.4141,1201.708 L199.6094,1222.814 L199.8047,1202.714 L200,1200.703 L200.1953,1194.673 L200.3906,1169.548 L200.5859,1224.824 L200.7813,1185.628 L200.9766,1250.955 L201.1719,1153.467 L201.3672,1250.955 L201.5625,1169.548 L201.7578,1162.513 L201.9531,1148.442 L202.1484,1230.854 L202.3438,1225.829 L202.5391,1189.648 L202.7344,1227.839 L202.9297,1213.769 L203.125,1224.824 L203.3203,1221.809 L203.5156,1230.854 L203.711,1223.819 L203.9063,1139.397 L204.1016,1249.95 L204.2969,1118.292 L204.4922,1209.749 L204.6875,1201.708 L204.8828,1227.839 L205.0781,1214.774 L205.2734,1189.648 L205.4688,1220.804 L205.6641,1217.789 L205.8594,1211.759 L206.0547,1238.895 L206.25,1197.688 L206.4453,1169.548 L206.6406,1203.719 L206.8359,1233.869 L207.0313,1178.593 L207.2266,1236.884 L207.4219,1212.764 L207.6172,1060 L207.8125,1206.734 L208.0078,1186.633 L208.2031,1205.729 L208.3984,1236.884 L208.5938,1245.93 L208.7891,1216.784 L208.9844,1178.593 L209.1797,1225.829 L209.375,1189.648 L209.5703,1224.824 L209.7656,1148.442 L209.9609,1184.623 L210.1563,1184.623 L210.3516,1227.839 L210.5469,1218.794 L210.7422,1131.357 L210.9375,1222.814 L211.1328,1205.729 L211.3281,1183.618 L211.5235,1224.824 L211.7188,1210.754 L211.9141,1235.879 L212.1094,1206.734 L212.3047,1229.849 L212.5,1230.854 L212.6953,1187.638 L212.8906,1250.955 L213.0859,1247.94 L213.2813,1221.809 L213.4766,1210.754 L213.6719,1224.824 L213.8672,1215.779 L214.0625,1223.819 L214.2578,1224.824 L214.4531,1164.523 L214.6484,1188.643 L214.8438,1190.653 L215.0391,1208.744 L215.2344,1247.94 L215.4297,1226.834 L215.625,1216.784 L215.8203,1156.482 L216.0156,1225.829 L216.2109,1220.804 L216.4063,1221.809 L216.6016,1208.744 L216.7969,1230.854 L216.9922,1164.523 L217.1875,1208.744 L217.3828,1176.583 L217.5781,1241.91 L217.7734,1161.508 L217.9688,1209.749 L218.1641,1236.884 L218.3594,1228.844 L218.5547,1225.829 L218.75,1162.513 L218.9453,1125.327 L219.1406,1220.804 L219.336,1224.824 L219.5313,1218.794 L219.7266,1228.844 L219.9219,1229.849 L220.1172,1196.683 L220.3125,1205.729 L220.5078,1182.613 L220.7031,1210.754 L220.8984,1195.678 L221.0938,1203.719 L221.2891,1182.613 L221.4844,1233.869 L221.6797,1228.844 L221.875,1148.442 L222.0703,1210.754 L222.2656,1203.719 L222.4609,1193.668 L222.6563,1218.794 L222.8516,1192.663 L223.0469,1234.874 L223.2422,1198.693 L223.4375,1233.869 L223.6328,1181.608 L223.8281,1133.367 L224.0234,1235.879 L224.2188,1229.849 L224.4141,1221.809 L224.6094,1207.739 L224.8047,1242.915 L225,1212.764 L225.1953,1233.869 L225.3906,1188.643 L225.5859,1190.653 L225.7813,1209.749 L225.9766,1202.714 L226.1719,1241.91 L226.3672,1232.864 L226.5625,1209.749 L226.7578,1226.834 L226.9531,1209.749 L227.1485,1208.744 L227.3438,1197.688 L227.5391,1213.769 L227.7344,1193.668 L227.9297,1174.573 L228.125,1231.859 L228.3203,1203.719 L228.5156,1219.799 L228.7109,1217.789 L228.9063,1247.94 L229.1016,1178.593 L229.2969,1190.653 L229.4922,1203.719 L229.6875,1185.628 L229.8828,1196.683 L230.0781,1106.231 L230.2734,1231.859 L230.4688,1234.874 L230.6641,1217.789 L230.8594,1240.905 L231.0547,1186.633 L231.25,1227.839 L231.4453,1225.829 L231.6406,1210.754 L231.8359,1181.608 L232.0313,1244.925 L232.2266,1187.638 L232.4219,1206.734 L232.6172,1236.884 L232.8125,1241.91 L233.0078,1229.849 L233.2031,1213.769 L233.3984,1181.608 L233.5938,1215.779 L233.7891,1235.879 L233.9844,1158.492 L234.1797,1190.653 L234.375,1214.774 L234.5703,1223.819 L234.7656,1240.905 L234.961,1203.719 L235.1563,1247.94 L235.3516,1212.764 L235.5469,1227.839 L235.7422,1190.653 L235.9375,1226.834 L236.1328,1233.869 L236.3281,1235.879 L236.5234,1253.97 L236.7188,1244.925 L236.9141,1201.708 L237.1094,1233.869 L237.3047,1212.764 L237.5,1183.618 L237.6953,1191.658 L237.8906,1206.734 L238.0859,1218.794 L238.2813,1220.804 L238.4766,1231.859 L238.6719,1194.673 L238.8672,1236.884 L239.0625,1224.824 L239.2578,1161.508 L239.4531,1179.598 L239.6484,1227.839 L239.8438,1193.668 L240.0391,1195.678 L240.2344,1123.317 L240.4297,1154.472 L240.625,1228.844 L240.8203,1193.668 L241.0156,1234.874 L241.2109,1234.874 L241.4063,1234.874 L241.6016,1234.874 L241.7969,1235.879 L241.9922,1217.789 L242.1875,1190.653 L242.3828,1147.437 L242.5781,1244.925 L242.7735,1166.533 L242.9688,1206.734 L243.1641,1244.925 L243.3594,1231.859 L243.5547,1195.678 L243.75,1227.839 L243.9453,1137.387 L244.1406,1175.578 L244.3359,1226.834 L244.5313,1211.759 L244.7266,1229.849 L244.9219,1221.809 L245.1172,1226.834 L245.3125,1227.839 L245.5078,1103.216 L245.7031,1219.799 L245.8984,1204.724 L246.0938,1231.859 L246.2891,1198.693 L246.4844,1222.814 L246.6797,1234.874 L246.875,1232.864 L247.0703,1183.618 L247.2656,1252.965 L247.4609,1227.839 L247.6563,1197.688 L247.8516,1243.92 L248.0469,1246.935 L248.2422,1196.683 L248.4375,1195.678 L248.6328,1206.734 L248.8281,1216.784 L249.0234,1182.613 L249.2188,1216.784 L249.4141,1238.895 L249.6094,1221.809 L249.8047,1246.935 L250,1210.754 L250.1953,1201.708 L250.3906,1112.261 L250.586,1185.628 L250.7813,1193.668 L250.9766,1211.759 L251.1719,1214.774 L251.3672,1215.779 L251.5625,1144.422 L251.7578,1225.829 L251.9531,1210.754 L252.1484,1174.573 L252.3438,1222.814 L252.5391,1226.834 L252.7344,1217.789 L252.9297,1228.844 L253.125,1211.759 L253.3203,1207.739 L253.5156,1213.769 L253.7109,1215.779 L253.9063,1141.407 L254.1016,1156.482 L254.2969,1183.618 L254.4922,1219.799 L254.6875,1178.593 L254.8828,1230.854 L255.0781,1247.94 L255.2734,1227.839 L255.4688,1208.744 L255.6641,1189.648 L255.8594,1157.487 L256.0547,1205.729 L256.25,1206.734 L256.4453,1239.9 L256.6406,1238.895 L256.8359,1170.553 L257.0313,1249.95 L257.2266,1225.829 L257.4219,1233.869 L257.6172,1176.583 L257.8125,1227.839 L258.0078,1207.739 L258.2031,1227.839 L258.3984,1237.889 L258.5938,1219.799 L258.7891,1197.688 L258.9844,1227.839 L259.1797,1220.804 L259.375,1191.658 L259.5703,1204.724 L259.7656,1214.774 L259.9609,1216.784 L260.1563,1161.508 L260.3516,1193.668 L260.5469,1141.407 L260.7422,1180.603 L260.9375,1228.844 L261.1328,1212.764 L261.3281,1160.503 L261.5234,1196.683 L261.7188,1161.508 L261.9141,1161.508 L262.1094,1225.829 L262.3047,1223.819 L262.5,1217.789 L262.6953,1166.533 L262.8906,1141.407 L263.0859,1195.678 L263.2813,1210.754 L263.4766,1229.849 L263.6719,1171.558 L263.8672,1164.523 L264.0625,1191.658 L264.2578,1200.703 L264.4531,1220.804 L264.6484,1222.814 L264.8438,1215.779 L265.0391,1186.633 L265.2344,1209.749 L265.4297,1247.94 L265.625,1210.754 L265.8203,1183.618 L266.0156,1166.533 L266.2109,1205.729 L266.4063,1232.864 L266.6016,1190.653 L266.7969,1231.859 L266.9922,1198.693 L267.1875,1174.573 L267.3828,1177.588 L267.5781,1170.553 L267.7734,1211.759 L267.9688,1166.533 L268.1641,1182.613 L268.3594,1222.814 L268.5547,1227.839 L268.75,1220.804 L268.9453,1195.678 L269.1406,1216.784 L269.3359,1227.839 L269.5313,1208.744 L269.7266,1202.714 L269.9219,1224.824 L270.1172,1228.844 L270.3125,1207.739 L270.5078,1229.849 L270.7031,1198.693 L270.8984,1213.769 L271.0938,1240.905 L271.2891,1247.94 L271.4844,1230.854 L271.6797,1217.789 L271.875,1227.839 L272.0703,1252.965 L272.2656,1205.729 L272.4609,1212.764 L272.6563,1244.925 L272.8516,1243.92 L273.0469,1228.844 L273.2422,1199.698 L273.4375,1211.759 L273.6328,1215.779 L273.8281,1221.809 L274.0234,1192.663 L274.2188,1187.638 L274.4141,1207.739 L274.6094,1260 L274.8047,1226.834 L275,1234.874 L275.1953,1214.774 L275.3906,1229.849 L275.5859,1223.819 L275.7813,1184.623 L275.9766,1197.688 L276.1719,1187.638 L276.3672,1101.206 L276.5625,1227.839 L276.7578,1227.839 L276.9531,1239.9 L277.1484,1112.261 L277.3438,1206.734 L277.5391,1209.749 L277.7344,1238.895 L277.9297,1202.714 L278.125,1167.538 L278.3203,1192.663 L278.5156,1149.447 L278.7109,1143.417 L278.9063,1225.829 L279.1016,1217.789 L279.2969,1215.779 L279.4922,1211.759 L279.6875,1174.573 L279.8828,1246.935 L280.0781,1179.598 L280.2734,1185.628 L280.4688,1227.839 L280.6641,1207.739 L280.8594,1207.739 L281.0547,1124.322 L281.25,1203.719 L281.4453,1178.593 L281.6406,1213.769 L281.8359,1196.683 L282.0313,1156.482 L282.2266,1150.452 L282.4219,1213.769 L282.6172,1210.754 L282.8125,1224.824 L283.0078,1208.744 L283.2031,1223.819 L283.3984,1205.729 L283.5938,1223.819 L283.7891,1182.613 L283.9844,1231.859 L284.1797,1231.859 L284.375,1181.608 L284.5703,1137.387 L284.7656,1226.834 L284.9609,1189.648 L285.1563,1219.799 L285.3516,1228.844 L285.5469,1201.708 L285.7422,1219.799 L285.9375,1226.834 L286.1328,1185.628 L286.3281,1205.729 L286.5234,1220.804 L286.7188,1228.844 L286.9141,1208.744 L287.1094,1223.819 L287.3047,1191.658 L287.5,1141.407 L287.6953,1222.814 L287.8906,1187.638 L288.0859,1188.643 L288.2813,1166.533 L288.4766,1193.668 L288.6719,1187.638 L288.8672,1212.764 L289.0625,1165.528 L289.2578,1144.422 L289.4531,1220.804 L289.6484,1190.653 L289.8438,1235.879 L290.0391,1199.698 L290.2344,1180.603 L290.4297,1223.819 L290.625,1210.754 L290.8203,1212.764 L291.0156,1211.759 L291.2109,1219.799 L291.4063,1217.789 L291.6016,1211.759 L291.7969,1251.96 L291.9922,1222.814 L292.1875,1216.784 L292.3828,1220.804 L292.5781,1218.794 L292.7734,1201.708 L292.9688,1231.859 L293.1641,1205.729 L293.3594,1200.703 L293.5547,1222.814 L293.75,1224.824 L293.9453,1249.95 L294.1406,1229.849 L294.3359,1218.794 L294.5313,1166.533 L294.7266,1223.819 L294.9219,1198.693 L295.1172,1231.859 L295.3125,1258.995 L295.5078,1146.432 L295.7031,1211.759 L295.8984,1203.719 L296.0938,1185.628 L296.2891,1243.92 L296.4844,1180.603 L296.6797,1213.769 L296.875,1219.799 L297.0703,1206.734 L297.2656,1214.774 L297.4609,1190.653 L297.6563,1232.864 L297.8516,1247.94 L298.0469,1202.714 L298.2422,1198.693 L298.4375,1215.779 L298.6328,1217.789 L298.8281,1243.92 L299.0234,1181.608 L299.2188,1196.683 L299.4141,1205.729 L299.6094,1184.623 L299.8047,1171.558 L300,1147.437 L300.1953,1221.809 L300.3906,1171.558 L300.5859,1219.799 L300.7813,1220.804 L300.9766,1215.779 L301.1719,1230.854 L301.3672,1216.784 L301.5625,1208.744 " stroke="blue" fill="none" />
<text x="50" y="1310" font-family="Arial" font-size="12" fill="black">Policy Loss</text>
<text x="50" y="1325" font-family="Arial" font-size="10" fill="black">0.0001860174</text>
<text x="50" y="1540" font-family="Arial" font-size="10" fill="black">4.060333E-06</text>
<path d="M50,1525.884 L53.125,1476.3 L56.25,1443.9 L59.375,1420.272 L62.5,1400.552 L65.625,1385.051 L68.75,1370.696 L71.875,1358.921 L75,1347.575 L78.125,1336.85 L81.25,1529.251 L84.375,1488.108 L87.5,1453.795 L90.625,1429.141 L93.75,1409.503 L96.875,1391.473 L100,1376.276 L103.125,1363.095 L106.25,1351.252 L109.375,1341.333 L112.5,1529.641 L115.625,1486.078 L118.75,1447.745 L121.875,1419.992 L125,1397.785 L128.125,1381.403 L131.25,1364.546 L134.375,1352.653 L137.5,1341.411 L140.625,1330.011 L143.75,1528.882 L146.875,1489.996 L150,1451.4 L153.125,1426.275 L156.25,1404.912 L159.375,1387.683 L162.5,1374.559 L165.625,1360.746 L168.75,1348.566 L171.875,1339.459 L175,1527.334 L178.125,1491.664 L181.25,1455.531 L184.375,1430.382 L187.5,1408.977 L190.625,1390.9 L193.75,1375.496 L196.875,1362.594 L200,1351.897 L203.125,1340.858 L206.25,1528.317 L209.375,1488.628 L212.5,1451.518 L215.625,1425.54 L218.75,1405.432 L221.875,1388.857 L225,1375.65 L228.125,1363.295 L231.25,1350.257 L234.375,1339.714 L237.5,1526.016 L240.625,1490.021 L243.75,1452.638 L246.875,1428.53 L250,1405.508 L253.125,1391.065 L256.25,1377.408 L259.375,1364.747 L262.5,1352.422 L265.625,1341.958 L268.75,1527.651 L271.875,1491.739 L275,1453.584 L278.125,1427.883 L281.25,1408.783 L284.375,1391.902 L287.5,1375.994 L290.625,1363.527 L293.75,1353.577 L296.875,1344.024 L300,1528.329 L303.125,1489.682 L306.25,1452.979 L309.375,1427.66 L312.5,1407.541 L315.625,1389.146 L318.75,1375.358 L321.875,1363.16 L325,1351.453 L328.125,1341.592 L331.25,1530 L334.375,1487.167 L337.5,1449.507 L340.625,1424.834 L343.75,1403.867 L346.875,1388.595 L350,1374.239 L353.125,1362.603 L356.25,1351.168 L359.375,1341.032 " stroke="blue" fill="none" />
<text x="50" y="1580" font-family="Arial" font-size="12" fill="black">Value Loss</text>
<text x="50" y="1595" font-family="Arial" font-size="10" fill="black">3.019703E-05</text>
<text x="50" y="1810" font-family="Arial" font-size="10" fill="black">2.296831E-05</text>
<path d="M50,1627.647 L53.125,1694.349 L56.25,1719.494 L59.375,1729.589 L62.5,1735.483 L65.625,1740.061 L68.75,1742.591 L71.875,1746.135 L75,1748.109 L78.125,1751.96 L81.25,1671.695 L84.375,1704.047 L87.5,1720.278 L90.625,1726.701 L93.75,1732.368 L96.875,1734.29 L100,1738.563 L103.125,1742.841 L106.25,1745.052 L109.375,1748.473 L112.5,1664.289 L115.625,1665.554 L118.75,1689.968 L121.875,1706.873 L125,1710.04 L128.125,1718.588 L131.25,1722.346 L134.375,1727.121 L137.5,1728.754 L140.625,1731.874 L143.75,1720.458 L146.875,1725.488 L150,1746.635 L153.125,1747.084 L156.25,1755.743 L159.375,1759.039 L162.5,1763.178 L165.625,1766.722 L168.75,1768.074 L171.875,1768.632 L175,1649.463 L178.125,1638.164 L181.25,1685.567 L184.375,1701.977 L187.5,1708.136 L190.625,1710.219 L193.75,1713.689 L196.875,1716.697 L200,1719.281 L203.125,1720.199 L206.25,1712.055 L209.375,1709.623 L212.5,1772.335 L215.625,1784.536 L218.75,1788.967 L221.875,1791.081 L225,1794.729 L228.125,1796.451 L231.25,1799.526 L234.375,1800 L237.5,1625.83 L240.625,1634.713 L243.75,1656.049 L246.875,1664.73 L250,1668.984 L253.125,1671.679 L256.25,1673.647 L259.375,1678.29 L262.5,1679.341 L265.625,1683.679 L268.75,1600.276 L271.875,1652.653 L275,1671.953 L278.125,1683.533 L281.25,1690.551 L284.375,1694.402 L287.5,1699.209 L290.625,1702.735 L293.75,1703.051 L296.875,1704.092 L300,1654.4 L303.125,1691.347 L306.25,1700.061 L309.375,1703.346 L312.5,1710.369 L315.625,1711.645 L318.75,1718.874 L321.875,1722.501 L325,1721.645 L328.125,1722.71 L331.25,1607.742 L334.375,1660.254 L337.5,1687.015 L340.625,1690.469 L343.75,1694.54 L346.875,1699.007 L350,1708.828 L353.125,1712.262 L356.25,1714.903 L359.375,1712.235 " stroke="blue" fill="none" />
<text x="50" y="1850" font-family="Arial" font-size="12" fill="black">Learning Rate</text>
<text x="50" y="1865" font-family="Arial" font-size="10" fill="black">0.00025</text>
<text x="50" y="2080" font-family="Arial" font-size="10" fill="black">0.00025</text>
<path d="M50,2070 L53.125,2070 L56.25,2070 L59.375,2070 L62.5,2070 L65.625,2070 L68.75,2070 L71.875,2070 L75,2070 L78.125,2070 L81.25,2070 L84.375,2070 L87.5,2070 L90.625,2070 L93.75,2070 L96.875,2070 L100,2070 L103.125,2070 L106.25,2070 L109.375,2070 L112.5,2070 L115.625,2070 L118.75,2070 L121.875,2070 L125,2070 L128.125,2070 L131.25,2070 L134.375,2070 L137.5,2070 L140.625,2070 L143.75,2070 L146.875,2070 L150,2070 L153.125,2070 L156.25,2070 L159.375,2070 L162.5,2070 L165.625,2070 L168.75,2070 L171.875,2070 L175,2070 L178.125,2070 L181.25,2070 L184.375,2070 L187.5,2070 L190.625,2070 L193.75,2070 L196.875,2070 L200,2070 L203.125,2070 L206.25,2070 L209.375,2070 L212.5,2070 L215.625,2070 L218.75,2070 L221.875,2070 L225,2070 L228.125,2070 L231.25,2070 L234.375,2070 L237.5,2070 L240.625,2070 L243.75,2070 L246.875,2070 L250,2070 L253.125,2070 L256.25,2070 L259.375,2070 L262.5,2070 L265.625,2070 L268.75,2070 L271.875,2070 L275,2070 L278.125,2070 L281.25,2070 L284.375,2070 L287.5,2070 L290.625,2070 L293.75,2070 L296.875,2070 L300,2070 L303.125,2070 L306.25,2070 L309.375,2070 L312.5,2070 L315.625,2070 L318.75,2070 L321.875,2070 L325,2070 L328.125,2070 L331.25,2070 L334.375,2070 L337.5,2070 L340.625,2070 L343.75,2070 L346.875,2070 L350,2070 L353.125,2070 L356.25,2070 L359.375,2070 " stroke="blue" fill="none" />
<text x="50" y="2120" font-family="Arial" font-size="12" fill="black">Entropy</text>
<text x="50" y="2135" font-family="Arial" font-size="10" fill="black">0.03611897</text>
<text x="50" y="2350" font-family="Arial" font-size="10" fill="black">0.03611897</text>
<path d="M50,2340 L53.125,2340 L56.25,2340 L59.375,2340 L62.5,2340 L65.625,2340 L68.75,2340 L71.875,2340 L75,2340 L78.125,2340 L81.25,2340 L84.375,2340 L87.5,2340 L90.625,2340 L93.75,2340 L96.875,2340 L100,2340 L103.125,2340 L106.25,2340 L109.375,2340 L112.5,2340 L115.625,2340 L118.75,2340 L121.875,2340 L125,2340 L128.125,2340 L131.25,2340 L134.375,2340 L137.5,2340 L140.625,2340 L143.75,2340 L146.875,2340 L150,2340 L153.125,2340 L156.25,2340 L159.375,2340 L162.5,2340 L165.625,2340 L168.75,2340 L171.875,2340 L175,2340 L178.125,2340 L181.25,2340 L184.375,2340 L187.5,2340 L190.625,2340 L193.75,2340 L196.875,2340 L200,2340 L203.125,2340 L206.25,2340 L209.375,2340 L212.5,2340 L215.625,2340 L218.75,2340 L221.875,2340 L225,2340 L228.125,2340 L231.25,2340 L234.375,2340 L237.5,2340 L240.625,2340 L243.75,2340 L246.875,2340 L250,2340 L253.125,2340 L256.25,2340 L259.375,2340 L262.5,2340 L265.625,2340 L268.75,2340 L271.875,2340 L275,2340 L278.125,2340 L281.25,2340 L284.375,2340 L287.5,2340 L290.625,2340 L293.75,2340 L296.875,2340 L300,2340 L303.125,2340 L306.25,2340 L309.375,2340 L312.5,2340 L315.625,2340 L318.75,2340 L321.875,2340 L325,2340 L328.125,2340 L331.25,2340 L334.375,2340 L337.5,2340 L340.625,2340 L343.75,2340 L346.875,2340 L350,2340 L353.125,2340 L356.25,2340 L359.375,2340 " stroke="blue" fill="none" />
<text x="750" y="770" font-family="Arial" font-size="12" fill="black">Simplified</text>
<text x="750" y="785" font-family="Arial" font-size="10" fill="black">0.405443</text>
<text x="750" y="1000" font-family="Arial" font-size="10" fill="black">0.2335999</text>
<path d="M753.5156,990 L757.2266,863.0018 L760.9375,870.678 L764.6484,860.2322 L768.3594,828.7629 L772.0703,838.3237 L775.7813,854.1033 L779.4922,914.2273 L783.2031,892.1332 L786.9141,809.4052 L790.625,842.2817 L794.3359,832.7228 L798.0469,857.2296 L801.7578,897.1892 L805.4688,858.3092 L809.1797,851.4316 L812.8906,897.7531 L816.6016,878.2142 L820.3125,790 L824.0234,863.9304 L827.7344,837.0991 L831.4453,835.6448 L835.1563,932.4098 L838.8672,840.6783 L842.5781,819.1025 L846.2891,870.7507 L850,869.0046 L853.7109,906.7653 L857.4219,892.1026 L861.1328,902.4149 L864.8438,843.3212 L868.5547,874.7392 L872.2656,847.7314 L875.9766,902.6876 L879.6875,883.9717 L883.3984,881.6398 L887.1094,820.9584 L890.8203,820.7177 L894.5313,891.7569 L898.2422,816.6512 L901.9531,817.9017 L905.6641,889.0157 L909.375,847.449 L913.0859,882.8751 L916.7969,901.9382 L920.5078,855.6016 L924.2188,860.7792 L927.9297,894.9167 L931.6406,879.3249 L935.3516,911.3015 L939.0625,936.5813 L942.7734,843.4143 L946.4844,876.4385 L950.1953,930.123 L953.9063,835.9702 L957.6172,879.6477 L961.3281,863.3295 L965.0391,813.7199 L968.75,853.2655 L972.4609,946.7087 L976.1719,922.5515 L979.8828,818.0693 L983.5938,823.3213 L987.3047,878.1111 L991.0156,816.1998 L994.7266,934.7341 L998.4375,892.825 L1001.563,855.8019 " stroke="blue" fill="none" />
<text x="750" y="1040" font-family="Arial" font-size="12" fill="black">Simplified</text>
<text x="750" y="1055" font-family="Arial" font-size="10" fill="black">96.78947</text>
<text x="750" y="1270" font-family="Arial" font-size="10" fill="black">55.94737</text>
<path d="M753.5156,1260 L757.2266,1136.804 L760.9375,1137.835 L764.6484,1129.33 L768.3594,1095.309 L772.0703,1105.361 L775.7813,1124.433 L779.4922,1179.33 L783.2031,1155.876 L786.9141,1078.041 L790.625,1108.969 L794.3359,1098.918 L798.0469,1124.948 L801.7578,1165.155 L805.4688,1121.34 L809.1797,1119.278 L812.8906,1168.505 L816.6016,1144.021 L820.3125,1060 L824.0234,1133.196 L827.7344,1108.454 L831.4453,1105.619 L835.1563,1196.083 L838.8672,1106.649 L842.5781,1088.866 L846.2891,1140.928 L850,1135.258 L853.7109,1172.887 L857.4219,1160.773 L861.1328,1169.794 L864.8438,1111.031 L868.5547,1143.247 L872.2656,1114.639 L875.9766,1169.021 L879.6875,1154.588 L883.3984,1148.917 L887.1094,1090.67 L890.8203,1086.289 L894.5313,1159.484 L898.2422,1082.938 L901.9531,1087.32 L905.6641,1155.361 L909.375,1118.763 L913.0859,1149.948 L916.7969,1168.505 L920.5078,1122.371 L924.2188,1127.784 L927.9297,1165.928 L931.6406,1150.206 L935.3516,1178.557 L939.0625,1204.845 L942.7734,1109.742 L946.4844,1146.856 L950.1953,1200.722 L953.9063,1103.299 L957.6172,1147.629 L961.3281,1128.557 L965.0391,1085.258 L968.75,1117.99 L972.4609,1210 L976.1719,1190.155 L979.8828,1087.062 L983.5938,1095.052 L987.3047,1146.34 L991.0156,1083.196 L994.7266,1200.979 L998.4375,1162.062 L1001.563,1126.302 " stroke="blue" fill="none" />
</svg>
