<svg width="800" height="600" xmlns="http://www.w3.org/2000/svg">
<text x="10" y="20" font-family="Arial" font-size="16" fill="black"> [DeepUnity] Training Session</text>
<text x="10" y="40" font-family="Arial" font-size="12" fill="black">Start: 1:13:24 PM, Monday, August 28, 2023</text>
<text x="10" y="60" font-family="Arial" font-size="12" fill="black">End: 1:40:44 PM, Monday, August 28, 2023</text>
<text x="10" y="80" font-family="Arial" font-size="12" fill="black">Real Training Time: 0 hrs : 27 min : 19 sec</text>
<text x="10" y="100" font-family="Arial" font-size="12" fill="black">Training Time: 843.4498</text>
<text x="10" y="120" font-family="Arial" font-size="12" fill="black">Iterations: 10</text>
<text x="10" y="140" font-family="Arial" font-size="12" fill="black">Parallel Agents: 4</text>
<text x="10" y="160" font-family="Arial" font-size="12" fill="black">Episode Reward</text>
<path d="M10,381.2847 L210,381.2847" stroke="gray" />
<text x="5" y="386.2847" font-family="Arial" font-size="10" fill="black">0</text>
<text x="5" y="180" font-family="Arial" font-size="10" fill="black">56.58564</text>
<text x="5" y="380" font-family="Arial" font-size="10" fill="black">0.3611491</text>
<path d="M0.7662835,380 L1.532567,379.7826 L2.298851,378.6401 L3.065134,377.4613 L3.831418,376.0026 L4.597701,374.2418 L5.363985,376.1738 L6.130268,373.1619 L6.896552,378.0018 L7.662835,374.2578 L8.429119,378.2103 L9.195402,371.9784 L9.961685,374.1863 L10.72797,374.4921 L11.49425,362.4157 L12.26054,377.6379 L13.02682,374.9198 L13.7931,376.1395 L14.55939,370.6325 L15.32567,377.6431 L16.09196,372.5175 L16.85824,375.3948 L17.62452,203.5491 L18.3908,217.7139 L19.15709,371.4846 L19.92337,376.705 L20.68966,375.1366 L21.45594,372.2856 L22.22222,217.5757 L22.98851,374.7611 L23.75479,365.7552 L24.52107,376.5866 L25.28736,368.5631 L26.05364,375.8319 L26.81992,368.9902 L27.58621,376.7865 L28.35249,217.0873 L29.11877,371.2 L29.88506,376.4202 L30.65134,372.661 L31.41762,373.809 L32.18391,375.1266 L32.95019,370.9714 L33.71648,361.1984 L34.48276,367.7498 L35.24904,255.3489 L36.01533,284.1877 L36.78161,375.9089 L37.54789,372.8305 L38.31417,363.7457 L39.08046,374.3645 L39.84674,372.4651 L40.61303,209.1105 L41.37931,374.942 L42.1456,375.0266 L42.91188,376.8142 L43.67816,377.3871 L44.44445,376.7695 L45.21073,216.698 L45.97701,214.4284 L46.74329,375.6603 L47.50958,374.6448 L48.27586,366.974 L49.04214,367.4849 L49.80843,375.8513 L50.57471,215.1568 L51.341,216.1479 L52.10728,374.3744 L52.87357,372.5372 L53.63985,355.7806 L54.40613,373.9227 L55.17241,373.0672 L55.9387,376.1282 L56.70498,364.3307 L57.47126,215.1937 L58.23755,377.6 L59.00383,369.1025 L59.77011,375.0819 L60.5364,375.7073 L61.30268,371.0667 L62.06896,376.8059 L62.83525,367.1465 L63.60153,372.6279 L64.36782,371.8293 L65.1341,373.0279 L65.90038,374.7064 L66.66667,322.3698 L67.43295,375.2521 L68.19923,346.4072 L68.96552,367.7742 L69.7318,210.5186 L70.49809,371.85 L71.26437,375.2701 L72.03065,214.2977 L72.79694,367.9906 L73.56322,197.8725 L74.3295,207.3257 L75.09579,376.3305 L75.86207,213.5876 L76.62835,355.4963 L77.39464,375.4887 L78.16092,366.6938 L78.9272,375.8885 L79.69348,210.3762 L80.45977,289.2338 L81.22605,376.7817 L81.99234,357.7575 L82.75862,372.6028 L83.52491,376.7525 L84.29119,375.1153 L85.05747,375.4147 L85.82375,374.7975 L86.59004,361.0913 L87.35632,213.0933 L88.1226,372.9197 L88.88889,349.4616 L89.65517,372.778 L90.42146,374.7664 L91.18774,374.7787 L91.95403,348.7423 L92.72031,214.4025 L93.48659,211.7407 L94.25287,373.8335 L95.01916,375.7887 L95.78544,370.4617 L96.55172,373.4848 L97.31801,212.2659 L98.08429,375.5316 L98.85057,372.3715 L99.61685,374.6105 L100.3831,375.2777 L101.1494,210.7331 L101.9157,371.615 L102.682,365.5647 L103.4483,209.8383 L104.2146,372.1272 L104.9808,374.9736 L105.7471,209.4879 L106.5134,375.4298 L107.2797,371.0502 L108.046,210.0098 L108.8123,363.1065 L109.5786,202.5883 L110.3448,373.3325 L111.1111,373.9543 L111.8774,376.6408 L112.6437,219.8822 L113.41,373.4196 L114.1762,372.4689 L114.9425,375.0521 L115.7088,197.0758 L116.4751,355.9645 L117.2414,374.1384 L118.0077,356.7965 L118.7739,377.5365 L119.5402,375.216 L120.3065,375.1314 L121.0728,374.6781 L121.8391,377.8536 L122.6054,370.3331 L123.3717,377.7545 L124.1379,367.5349 L124.9042,348.906 L125.6705,373.4074 L126.4368,368.9308 L127.2031,326.8125 L127.9693,359.8202 L128.7356,372.8472 L129.5019,366.2784 L130.2682,369.4095 L131.0345,372.5692 L131.8008,376.2308 L132.567,205.3538 L133.3333,270.7424 L134.0996,372.5254 L134.8659,375.5253 L135.6322,330.068 L136.3985,212.6771 L137.1647,368.0839 L137.931,372.9784 L138.6973,293.9737 L139.4636,210.7364 L140.2299,352.6178 L140.9962,205.3365 L141.7625,204.8828 L142.5287,189.8441 L143.295,214.3896 L144.0613,334.7296 L144.8276,376.3613 L145.5939,306.7765 L146.3602,330.6327 L147.1264,206.7122 L147.8927,202.0842 L148.659,195.6116 L149.4253,316.3513 L150.1916,206.3179 L150.9579,286.6496 L151.7241,210.6656 L152.4904,211.2299 L153.2567,361.0354 L154.023,372.851 L154.7893,300.349 L155.5556,374.8722 L156.3218,345.9366 L157.0881,206.5997 L157.8544,183.8614 L158.6207,366.6042 L159.387,365.939 L160.1533,200.7643 L160.9195,367.2825 L161.6858,293.6688 L162.4521,367.8999 L163.2184,205.5298 L163.9847,374.4015 L164.751,202.043 L165.5172,201.7459 L166.2835,371.9213 L167.0498,364.2258 L167.8161,203.7561 L168.5824,204.9917 L169.3487,371.7469 L170.1149,365.384 L170.8812,191.3453 L171.6475,202.5924 L172.4138,364.5912 L173.1801,347.1016 L173.9464,365.7312 L174.7126,198.0995 L175.4789,194.2159 L176.2452,368.5696 L177.0115,293.5767 L177.7778,373.9982 L178.5441,204.9482 L179.3103,373.2908 L180.0766,206.5738 L180.8429,364.3378 L181.6092,345.3941 L182.3755,338.1754 L183.1418,369.6443 L183.9081,198.253 L184.6743,337.5387 L185.4406,373.8033 L186.2069,238.7206 L186.9732,203.5361 L187.7395,321.3797 L188.5057,292.1956 L189.272,353.0655 L190.0383,305.0793 L190.8046,345.0445 L191.5709,209.0994 L192.3372,375.5539 L193.1034,197.5897 L193.8697,206.5407 L194.636,346.2776 L195.4023,180 L196.1686,364.12 L196.9349,310.9367 L197.7011,301.9161 L198.4674,375.1486 L199.2337,203.4584 L200,299.9146 " stroke="blue" fill="none" />
<text x="10" y="400" font-family="Arial" font-size="12" fill="black">Episode Length</text>
<path d="M10,623.7678 L210,623.7678" stroke="gray" />
<text x="5" y="628.7678" font-family="Arial" font-size="10" fill="black">0</text>
<text x="5" y="420" font-family="Arial" font-size="10" fill="black">2001</text>
<text x="5" y="620" font-family="Arial" font-size="10" fill="black">37</text>
<path d="M0.7662835,620 L1.532567,619.6945 L2.298851,619.1854 L3.065134,616.7413 L3.831418,617.2505 L4.597701,616.5377 L5.363985,617.3524 L6.130268,613.1772 L6.896552,618.6761 L7.662835,616.0285 L8.429119,618.8798 L9.195402,614.9083 L9.961685,616.334 L10.72797,616.5377 L11.49425,599.6334 L12.26054,618.2689 L13.02682,616.6395 L13.7931,617.3524 L14.55939,609.8167 L15.32567,618.4725 L16.09196,613.0754 L16.85824,616.945 L17.62452,420 L18.3908,420 L19.15709,612.9735 L19.92337,617.6578 L20.68966,616.945 L21.45594,610.7332 L22.22222,420 L22.98851,616.4359 L23.75479,608.4929 L24.52107,617.556 L25.28736,607.2709 L26.05364,617.1487 L26.81992,607.1691 L27.58621,617.8615 L28.35249,420 L29.11877,614.3992 L29.88506,617.7597 L30.65134,615.4175 L31.41762,615.3157 L32.18391,616.8432 L32.95019,614.8065 L33.71648,603.4012 L34.48276,608.1874 L35.24904,465.112 L36.01533,511.6497 L36.78161,617.2505 L37.54789,614.8065 L38.31417,603.5031 L39.08046,616.1304 L39.84674,614.501 L40.61303,420 L41.37931,616.6395 L42.1456,616.5377 L42.91188,617.7597 L43.67816,618.2689 L44.44445,617.6578 L45.21073,420 L45.97701,420 L46.74329,616.8432 L47.50958,616.5377 L48.27586,611.8533 L49.04214,606.9654 L49.80843,617.2505 L50.57471,420 L51.341,420 L52.10728,616.2322 L52.87357,614.7047 L53.63985,591.0794 L54.40613,615.5193 L55.17241,614.501 L55.9387,617.1487 L56.70498,603.1976 L57.47126,420 L58.23755,618.3707 L59.00383,612.3625 L59.77011,615.9267 L60.5364,617.0468 L61.30268,611.3442 L62.06896,617.8615 L62.83525,608.5947 L63.60153,614.9083 L64.36782,612.3625 L65.1341,615.6212 L65.90038,616.1304 L66.66667,549.2261 L67.43295,616.6395 L68.19923,583.2383 L68.96552,608.7984 L69.7318,420 L70.49809,612.7698 L71.26437,616.5377 L72.03065,420 L72.79694,612.057 L73.56322,420 L74.3295,420 L75.09579,617.556 L75.86207,420 L76.62835,599.7352 L77.39464,617.0468 L78.16092,604.0122 L78.9272,616.945 L79.69348,420 L80.45977,508.0855 L81.22605,617.6578 L81.99234,598.8187 L82.75862,615.3157 L83.52491,617.7597 L84.29119,616.6395 L85.05747,616.8432 L85.82375,616.334 L86.59004,598.9206 L87.35632,420 L88.1226,615.0102 L88.88889,583.442 L89.65517,614.9083 L90.42146,616.334 L91.18774,616.6395 L91.95403,585.7841 L92.72031,420 L93.48659,420 L94.25287,615.723 L95.01916,617.0468 L95.78544,611.1405 L96.55172,615.4175 L97.31801,420 L98.08429,616.8432 L98.85057,615.3157 L99.61685,616.945 L100.3831,616.4359 L101.1494,420 L101.9157,611.6497 L102.682,604.0122 L103.4483,420 L104.2146,611.446 L104.9808,616.4359 L105.7471,420 L106.5134,616.334 L107.2797,610.2241 L108.046,420 L108.8123,604.725 L109.5786,420 L110.3448,615.6212 L111.1111,616.0285 L111.8774,617.6578 L112.6437,443.4216 L113.41,615.8248 L114.1762,615.5193 L114.9425,614.8065 L115.7088,420 L116.4751,601.9756 L117.2414,616.334 L118.0077,597.8004 L118.7739,617.4542 L119.5402,616.5377 L120.3065,616.945 L121.0728,616.4359 L121.8391,618.4725 L122.6054,609.3076 L123.3717,618.3707 L124.1379,606.6599 L124.9042,586.8024 L125.6705,615.5193 L126.4368,613.1772 L127.2031,569.389 L127.9693,596.9857 L128.7356,615.0102 L129.5019,611.1405 L130.2682,608.6965 L131.0345,613.1772 L131.8008,616.1304 L132.567,420 L133.3333,510.4277 L134.0996,614.9083 L134.8659,616.6395 L135.6322,567.7597 L136.3985,420 L137.1647,608.1874 L137.931,615.5193 L138.6973,524.6843 L139.4636,420 L140.2299,585.1731 L140.9962,420 L141.7625,420 L142.5287,420 L143.295,420 L144.0613,585.0713 L144.8276,617.4542 L145.5939,544.0326 L146.3602,580.8961 L147.1264,420 L147.8927,420 L148.659,420 L149.4253,560.9369 L150.1916,420 L150.9579,521.3239 L151.7241,420 L152.4904,420 L153.2567,605.8452 L154.023,614.8065 L154.7893,533.6456 L155.5556,616.2322 L156.3218,586.4969 L157.0881,420 L157.8544,420 L158.6207,610.6313 L159.387,609.3076 L160.1533,420 L160.9195,611.8533 L161.6858,540.4684 L162.4521,611.5479 L163.2184,420 L163.9847,616.0285 L164.751,420 L165.5172,420 L166.2835,614.6028 L167.0498,604.725 L167.8161,420 L168.5824,420 L169.3487,614.2974 L170.1149,610.2241 L170.8812,420 L171.6475,420 L172.4138,605.2342 L173.1801,596.7821 L173.9464,610.0204 L174.7126,420 L175.4789,420 L176.2452,609.1039 L177.0115,538.6354 L177.7778,615.2139 L178.5441,420 L179.3103,615.5193 L180.0766,420 L180.8429,607.3727 L181.6092,587.0061 L182.3755,579.4705 L183.1418,612.668 L183.9081,420 L184.6743,588.8391 L185.4406,615.2139 L186.2069,461.5479 L186.9732,420 L187.7395,569.0835 L188.5057,525.499 L189.272,600.6517 L190.0383,545.5601 L190.8046,595.1528 L191.5709,420 L192.3372,617.2505 L193.1034,420 L193.8697,420 L194.636,585.9878 L195.4023,420 L196.1686,608.1874 L196.9349,554.5214 L197.7011,536.1915 L198.4674,616.334 L199.2337,420 L200,547.6985 " stroke="blue" fill="none" />
<text x="10" y="640" font-family="Arial" font-size="12" fill="black">Policy Loss</text>
<path d="M10,948.0171 L210,948.0171" stroke="gray" />
<text x="5" y="953.0171" font-family="Arial" font-size="10" fill="black">0</text>
<text x="5" y="660" font-family="Arial" font-size="10" fill="black">0.004802851</text>
<text x="5" y="860" font-family="Arial" font-size="10" fill="black">0.001467736</text>
<path d="M0.625,777.3873 L1.25,810.1753 L1.875,735.2119 L2.5,772.9673 L3.125,712.2784 L3.75,716.7519 L4.375,784.4821 L5,756.0154 L5.625,732.509 L6.25,765.6505 L6.875,727.8406 L7.5,843.5047 L8.125,731.7549 L8.75,716.4033 L9.375,720.1578 L10,802.6842 L10.625,728.8398 L11.25,769.9998 L11.875,722.0727 L12.5,777.1817 L13.125,821.7188 L13.75,799.3052 L14.375,733.2686 L15,742.6513 L15.625,815.1777 L16.25,786.509 L16.875,795.1903 L17.5,805.611 L18.125,728.6113 L18.75,822.8338 L19.375,763.0631 L20,696.5139 L20.625,753.67 L21.25,774.4641 L21.875,745.0045 L22.5,791.2604 L23.125,788.921 L23.75,782.4297 L24.375,803.2742 L25,802.6962 L25.625,733.2462 L26.25,715.1765 L26.875,818.0488 L27.5,758.6116 L28.125,744.1483 L28.75,732.9477 L29.375,773.2758 L30,774.6461 L30.625,785.7814 L31.25,768.117 L31.875,811.9957 L32.5,784.978 L33.125,776.9286 L33.75,760.2635 L34.375,766.6078 L35,800.2209 L35.625,792.7652 L36.25,694.0408 L36.875,772.7283 L37.5,798.1793 L38.125,757.7703 L38.75,711.6993 L39.375,772.6535 L40,775.7404 L40.625,757.0623 L41.25,760.6451 L41.875,808.939 L42.5,743.3735 L43.125,792.4445 L43.75,722.4363 L44.375,718.2237 L45,728.1876 L45.625,743.9289 L46.25,785.9432 L46.875,739.9348 L47.5,747.7752 L48.125,696.7957 L48.75,723.3012 L49.375,762.8031 L50,707.2543 L50.625,789.3079 L51.25,797.2935 L51.875,701.2639 L52.5,808.9153 L53.125,763.2208 L53.75,771.7759 L54.375,815.0938 L55,737.1907 L55.625,796.9965 L56.25,799.3081 L56.875,826.7167 L57.5,728.7305 L58.125,817.8533 L58.75,795.1619 L59.375,764.8812 L60,763.6022 L60.625,727.7274 L61.25,786.7393 L61.875,759.7353 L62.5,754.9479 L63.125,715.5221 L63.75,777.9082 L64.375,749.062 L65,749.4376 L65.625,738.3026 L66.25,724.7537 L66.875,775.6365 L67.5,774.314 L68.125,765.7682 L68.75,738.3371 L69.375,832.6995 L70,789.86 L70.625,703.5145 L71.25,860 L71.875,802.2079 L72.5,744.6374 L73.125,773.4662 L73.75,804.842 L74.375,765.4001 L75,767.2477 L75.625,788.2886 L76.25,815.1965 L76.875,778.1759 L77.5,782.1182 L78.125,731.2795 L78.75,726.9406 L79.375,774.5256 L80,732.2675 L80.625,783.9285 L81.25,786.4318 L81.875,732.2092 L82.5,739.455 L83.125,754.3664 L83.75,798.0898 L84.375,776.7614 L85,771.2957 L85.625,724.8218 L86.25,713.9467 L86.875,840.1266 L87.5,755.5005 L88.125,829.1933 L88.75,772.8765 L89.375,732.5145 L90,763.7075 L90.625,724.6134 L91.25,758.4023 L91.875,777.2706 L92.5,772.5724 L93.125,768.6012 L93.75,789.1362 L94.375,753.9656 L95,765.8836 L95.625,785.4086 L96.25,795.1722 L96.875,806.2372 L97.5,836.5051 L98.125,771.9985 L98.75,794.8565 L99.375,763.0056 L100,757.1557 L100.625,699.5845 L101.25,695.3161 L101.875,807.7938 L102.5,807.6711 L103.125,769.2338 L103.75,785.7619 L104.375,809.7869 L105,764.3943 L105.625,740.8002 L106.25,812.2709 L106.875,801.2527 L107.5,706.5433 L108.125,751.4832 L108.75,776.2252 L109.375,785.6276 L110,817.8831 L110.625,743.6984 L111.25,795.8039 L111.875,772.0837 L112.5,741.207 L113.125,772.2603 L113.75,747.5264 L114.375,707.2731 L115,794.8811 L115.625,776.1769 L116.25,731.5565 L116.875,710.7214 L117.5,755.8102 L118.125,804.4099 L118.75,714.8106 L119.375,773.9861 L120,771.0862 L120.625,816.529 L121.25,800.1665 L121.875,771.8436 L122.5,784.0818 L123.125,758.2216 L123.75,745.7414 L124.375,770.3499 L125,818.5762 L125.625,777.4224 L126.25,784.2463 L126.875,717.9042 L127.5,803.4265 L128.125,767.3301 L128.75,758.3657 L129.375,827.111 L130,855.5143 L130.625,727.4988 L131.25,795.5812 L131.875,789.1604 L132.5,782.3256 L133.125,747.7806 L133.75,722.9788 L134.375,737.2304 L135,809.1257 L135.625,748.9382 L136.25,827.9507 L136.875,769.388 L137.5,781.8582 L138.125,713.4576 L138.75,758.9326 L139.375,755.1113 L140,803.1231 L140.625,710.5463 L141.25,779.4766 L141.875,760.5208 L142.5,763.4179 L143.125,748.2714 L143.75,803.2466 L144.375,817.9399 L145,802.2949 L145.625,771.6633 L146.25,800.2412 L146.875,686.7886 L147.5,796.3336 L148.125,742.41 L148.75,725.3493 L149.375,783.3466 L150,766.7528 L150.625,792.899 L151.25,778.438 L151.875,804.0066 L152.5,774.0331 L153.125,760.7676 L153.75,767.8782 L154.375,802.4977 L155,739.3004 L155.625,749.8818 L156.25,811.1714 L156.875,792.1748 L157.5,763.5461 L158.125,760.7347 L158.75,836.6417 L159.375,784.1243 L160,801.2211 L160.625,724.1135 L161.25,761.0875 L161.875,832.0526 L162.5,788.0372 L163.125,820.1085 L163.75,768.9874 L164.375,824.1659 L165,788.907 L165.625,813.4813 L166.25,730.2523 L166.875,755.8604 L167.5,795.7291 L168.125,746.2379 L168.75,746.9254 L169.375,760.0119 L170,779.9406 L170.625,660 L171.25,779.967 L171.875,802.9785 L172.5,780.906 L173.125,750.7897 L173.75,761.5416 L174.375,740.9512 L175,758.9028 L175.625,748.5018 L176.25,750.7629 L176.875,800.9613 L177.5,815.6721 L178.125,758.5345 L178.75,795.1241 L179.375,733.7591 L180,754.1414 L180.625,774.4654 L181.25,705.4891 L181.875,769.3875 L182.5,748.3006 L183.125,792.9878 L183.75,747.7224 L184.375,760.8159 L185,699.0848 L185.625,699.309 L186.25,794.3968 L186.875,750.2447 L187.5,776.9901 L188.125,726.7449 L188.75,803.0159 L189.375,789.9385 L190,753.8385 L190.625,723.8624 L191.25,723.7828 L191.875,757.43 L192.5,674.4056 L193.125,800.0959 L193.75,796.5636 L194.375,723.619 L195,749.5379 L195.625,831.3143 L196.25,804.4517 L196.875,795.772 L197.5,761.5534 L198.125,786.1487 L198.75,727.9984 L199.375,796.7131 L200,786.5128 " stroke="blue" fill="none" />
<text x="10" y="880" font-family="Arial" font-size="12" fill="black">Value Loss</text>
<path d="M10,1101.647 L210,1101.647" stroke="gray" />
<text x="5" y="1106.647" font-family="Arial" font-size="10" fill="black">0</text>
<text x="5" y="900" font-family="Arial" font-size="10" fill="black">0.08532371</text>
<text x="5" y="1100" font-family="Arial" font-size="10" fill="black">0.0006970772</text>
<path d="M0.625,1071.526 L1.25,1078.204 L1.875,1081.358 L2.5,1083.214 L3.125,1084.774 L3.75,1086.113 L4.375,1086.932 L5,1087.963 L5.625,1064.1 L6.25,1069.488 L6.875,1073.414 L7.5,1076.137 L8.125,1078.232 L8.75,1079.861 L9.375,1081.215 L10,1082.514 L10.625,1036.58 L11.25,1044.703 L11.875,1050.157 L12.5,1053.382 L13.125,1055.937 L13.75,1057.991 L14.375,1059.547 L15,1061.147 L15.625,1053.291 L16.25,1063.606 L16.875,1067.267 L17.5,1069.664 L18.125,1071.224 L18.75,1072.929 L19.375,1073.871 L20,1075.053 L20.625,1066.139 L21.25,1070.862 L21.875,1074.433 L22.5,1076.456 L23.125,1078.283 L23.75,1079.747 L24.375,1080.859 L25,1081.95 L25.625,1034.292 L26.25,1055.621 L26.875,1065.108 L27.5,1069.742 L28.125,1072.493 L28.75,1074.793 L29.375,1076.32 L30,1077.522 L30.625,1095.666 L31.25,1098.312 L31.875,1099.126 L32.5,1099.406 L33.125,1099.547 L33.75,1099.647 L34.375,1099.72 L35,1099.785 L35.625,900 L36.25,997.6204 L36.875,1025.49 L37.5,1036.814 L38.125,1043.663 L38.75,1048.216 L39.375,1051.631 L40,1054.711 L40.625,1065.57 L41.25,1080.165 L41.875,1084.687 L42.5,1086.894 L43.125,1088.304 L43.75,1089.828 L44.375,1091.003 L45,1091.869 L45.625,1068.43 L46.25,1078.094 L46.875,1082.828 L47.5,1085.786 L48.125,1087.677 L48.75,1088.774 L49.375,1089.817 L50,1090.532 L50.625,1079.601 L51.25,1093.278 L51.875,1095.98 L52.5,1097.312 L53.125,1097.872 L53.75,1098.161 L54.375,1098.39 L55,1098.532 L55.625,1073.857 L56.25,1081.26 L56.875,1084.399 L57.5,1086.358 L58.125,1087.711 L58.75,1088.728 L59.375,1089.593 L60,1090.298 L60.625,1067.46 L61.25,1077.666 L61.875,1082.163 L62.5,1084.79 L63.125,1086.816 L63.75,1088.531 L64.375,1089.826 L65,1090.946 L65.625,1067.887 L66.25,1076.685 L66.875,1081.43 L67.5,1084.011 L68.125,1085.662 L68.75,1087.027 L69.375,1088.078 L70,1089.004 L70.625,1043.791 L71.25,1070.197 L71.875,1081.59 L72.5,1085.358 L73.125,1088.246 L73.75,1089.956 L74.375,1090.911 L75,1091.638 L75.625,1061.322 L76.25,1070.543 L76.875,1074.664 L77.5,1077.868 L78.125,1080.013 L78.75,1081.861 L79.375,1083.379 L80,1084.418 L80.625,1064.648 L81.25,1075.981 L81.875,1081.876 L82.5,1087.116 L83.125,1089.718 L83.75,1091.577 L84.375,1092.858 L85,1094.09 L85.625,959.6551 L86.25,1046.944 L86.875,1058.322 L87.5,1064.113 L88.125,1068.523 L88.75,1072.307 L89.375,1075.112 L90,1077.701 L90.625,1069.688 L91.25,1079.26 L91.875,1084.628 L92.5,1087.686 L93.125,1089.441 L93.75,1090.801 L94.375,1091.817 L95,1092.642 L95.625,1024.176 L96.25,1041.461 L96.875,1050.111 L97.5,1055.199 L98.125,1059.384 L98.75,1062.232 L99.375,1064.861 L100,1067.061 L100.625,1081.577 L101.25,1091.344 L101.875,1094.508 L102.5,1095.62 L103.125,1096.353 L103.75,1096.849 L104.375,1097.238 L105,1097.541 L105.625,1083.043 L106.25,1088.223 L106.875,1090.594 L107.5,1091.906 L108.125,1092.827 L108.75,1093.333 L109.375,1094.028 L110,1094.549 L110.625,1086.217 L111.25,1093.083 L111.875,1096.337 L112.5,1097.876 L113.125,1098.436 L113.75,1098.749 L114.375,1099.042 L115,1099.276 L115.625,945.5724 L116.25,1068.985 L116.875,1090.378 L117.5,1093.969 L118.125,1095.679 L118.75,1096.617 L119.375,1097.221 L120,1097.573 L120.625,1062.957 L121.25,1084.171 L121.875,1089.028 L122.5,1092.323 L123.125,1094.105 L123.75,1094.987 L124.375,1095.658 L125,1096.173 L125.625,1088.943 L126.25,1092.577 L126.875,1094.529 L127.5,1095.681 L128.125,1096.383 L128.75,1096.908 L129.375,1097.321 L130,1097.648 L130.625,1081.302 L131.25,1093.992 L131.875,1096.437 L132.5,1097.312 L133.125,1097.862 L133.75,1098.27 L134.375,1098.519 L135,1098.711 L135.625,1083.652 L136.25,1092.328 L136.875,1094.8 L137.5,1096.168 L138.125,1096.833 L138.75,1097.225 L139.375,1097.546 L140,1097.782 L140.625,1093.002 L141.25,1098.866 L141.875,1099.606 L142.5,1099.759 L143.125,1099.841 L143.75,1099.901 L144.375,1099.948 L145,1100 L145.625,1084.379 L146.25,1093.9 L146.875,1096.499 L147.5,1097.598 L148.125,1098.116 L148.75,1098.418 L149.375,1098.573 L150,1098.853 L150.625,1063.403 L151.25,1072.37 L151.875,1076.392 L152.5,1079.684 L153.125,1081.953 L153.75,1084.019 L154.375,1085.341 L155,1086.788 L155.625,1092.215 L156.25,1097.406 L156.875,1098.823 L157.5,1099.277 L158.125,1099.53 L158.75,1099.698 L159.375,1099.798 L160,1099.902 L160.625,1076.868 L161.25,1086.438 L161.875,1090.662 L162.5,1093.012 L163.125,1094.782 L163.75,1095.873 L164.375,1096.633 L165,1097.253 L165.625,1009.292 L166.25,1040.232 L166.875,1060.703 L167.5,1069.804 L168.125,1075.467 L168.75,1079.284 L169.375,1082.321 L170,1084.641 L170.625,1080.853 L171.25,1092.999 L171.875,1096.449 L172.5,1097.649 L173.125,1098.142 L173.75,1098.521 L174.375,1098.705 L175,1098.923 L175.625,1074.454 L176.25,1085.597 L176.875,1089.594 L177.5,1091.733 L178.125,1093.204 L178.75,1094.199 L179.375,1094.752 L180,1095.384 L180.625,1080.346 L181.25,1088.513 L181.875,1092.078 L182.5,1094.023 L183.125,1095.114 L183.75,1095.96 L184.375,1096.534 L185,1096.96 L185.625,1074.065 L186.25,1084.824 L186.875,1088.273 L187.5,1090.544 L188.125,1091.545 L188.75,1092.289 L189.375,1092.858 L190,1093.502 L190.625,1000.644 L191.25,1070.272 L191.875,1082.023 L192.5,1086.615 L193.125,1089.688 L193.75,1091.53 L194.375,1092.836 L195,1093.678 L195.625,1072.311 L196.25,1081.654 L196.875,1087.017 L197.5,1089.545 L198.125,1090.998 L198.75,1092.052 L199.375,1092.807 L200,1093.616 " stroke="blue" fill="none" />
<text x="10" y="1120" font-family="Arial" font-size="12" fill="black">Learning Rate</text>
<path d="M10,6001141 L210,6001141" stroke="gray" />
<text x="5" y="6001146" font-family="Arial" font-size="10" fill="black">0</text>
<text x="5" y="1140" font-family="Arial" font-size="10" fill="black">0.0003</text>
<text x="5" y="1340" font-family="Arial" font-size="10" fill="black">0.0003</text>
<path d="M0.625,NaN L1.25,NaN L1.875,NaN L2.5,NaN L3.125,NaN L3.75,NaN L4.375,NaN L5,NaN L5.625,NaN L6.25,NaN L6.875,NaN L7.5,NaN L8.125,NaN L8.75,NaN L9.375,NaN L10,NaN L10.625,NaN L11.25,NaN L11.875,NaN L12.5,NaN L13.125,NaN L13.75,NaN L14.375,NaN L15,NaN L15.625,NaN L16.25,NaN L16.875,NaN L17.5,NaN L18.125,NaN L18.75,NaN L19.375,NaN L20,NaN L20.625,NaN L21.25,NaN L21.875,NaN L22.5,NaN L23.125,NaN L23.75,NaN L24.375,NaN L25,NaN L25.625,NaN L26.25,NaN L26.875,NaN L27.5,NaN L28.125,NaN L28.75,NaN L29.375,NaN L30,NaN L30.625,NaN L31.25,NaN L31.875,NaN L32.5,NaN L33.125,NaN L33.75,NaN L34.375,NaN L35,NaN L35.625,NaN L36.25,NaN L36.875,NaN L37.5,NaN L38.125,NaN L38.75,NaN L39.375,NaN L40,NaN L40.625,NaN L41.25,NaN L41.875,NaN L42.5,NaN L43.125,NaN L43.75,NaN L44.375,NaN L45,NaN L45.625,NaN L46.25,NaN L46.875,NaN L47.5,NaN L48.125,NaN L48.75,NaN L49.375,NaN L50,NaN L50.625,NaN L51.25,NaN L51.875,NaN L52.5,NaN L53.125,NaN L53.75,NaN L54.375,NaN L55,NaN L55.625,NaN L56.25,NaN L56.875,NaN L57.5,NaN L58.125,NaN L58.75,NaN L59.375,NaN L60,NaN L60.625,NaN L61.25,NaN L61.875,NaN L62.5,NaN L63.125,NaN L63.75,NaN L64.375,NaN L65,NaN L65.625,NaN L66.25,NaN L66.875,NaN L67.5,NaN L68.125,NaN L68.75,NaN L69.375,NaN L70,NaN L70.625,NaN L71.25,NaN L71.875,NaN L72.5,NaN L73.125,NaN L73.75,NaN L74.375,NaN L75,NaN L75.625,NaN L76.25,NaN L76.875,NaN L77.5,NaN L78.125,NaN L78.75,NaN L79.375,NaN L80,NaN L80.625,NaN L81.25,NaN L81.875,NaN L82.5,NaN L83.125,NaN L83.75,NaN L84.375,NaN L85,NaN L85.625,NaN L86.25,NaN L86.875,NaN L87.5,NaN L88.125,NaN L88.75,NaN L89.375,NaN L90,NaN L90.625,NaN L91.25,NaN L91.875,NaN L92.5,NaN L93.125,NaN L93.75,NaN L94.375,NaN L95,NaN L95.625,NaN L96.25,NaN L96.875,NaN L97.5,NaN L98.125,NaN L98.75,NaN L99.375,NaN L100,NaN L100.625,NaN L101.25,NaN L101.875,NaN L102.5,NaN L103.125,NaN L103.75,NaN L104.375,NaN L105,NaN L105.625,NaN L106.25,NaN L106.875,NaN L107.5,NaN L108.125,NaN L108.75,NaN L109.375,NaN L110,NaN L110.625,NaN L111.25,NaN L111.875,NaN L112.5,NaN L113.125,NaN L113.75,NaN L114.375,NaN L115,NaN L115.625,NaN L116.25,NaN L116.875,NaN L117.5,NaN L118.125,NaN L118.75,NaN L119.375,NaN L120,NaN L120.625,NaN L121.25,NaN L121.875,NaN L122.5,NaN L123.125,NaN L123.75,NaN L124.375,NaN L125,NaN L125.625,NaN L126.25,NaN L126.875,NaN L127.5,NaN L128.125,NaN L128.75,NaN L129.375,NaN L130,NaN L130.625,NaN L131.25,NaN L131.875,NaN L132.5,NaN L133.125,NaN L133.75,NaN L134.375,NaN L135,NaN L135.625,NaN L136.25,NaN L136.875,NaN L137.5,NaN L138.125,NaN L138.75,NaN L139.375,NaN L140,NaN L140.625,NaN L141.25,NaN L141.875,NaN L142.5,NaN L143.125,NaN L143.75,NaN L144.375,NaN L145,NaN L145.625,NaN L146.25,NaN L146.875,NaN L147.5,NaN L148.125,NaN L148.75,NaN L149.375,NaN L150,NaN L150.625,NaN L151.25,NaN L151.875,NaN L152.5,NaN L153.125,NaN L153.75,NaN L154.375,NaN L155,NaN L155.625,NaN L156.25,NaN L156.875,NaN L157.5,NaN L158.125,NaN L158.75,NaN L159.375,NaN L160,NaN L160.625,NaN L161.25,NaN L161.875,NaN L162.5,NaN L163.125,NaN L163.75,NaN L164.375,NaN L165,NaN L165.625,NaN L166.25,NaN L166.875,NaN L167.5,NaN L168.125,NaN L168.75,NaN L169.375,NaN L170,NaN L170.625,NaN L171.25,NaN L171.875,NaN L172.5,NaN L173.125,NaN L173.75,NaN L174.375,NaN L175,NaN L175.625,NaN L176.25,NaN L176.875,NaN L177.5,NaN L178.125,NaN L178.75,NaN L179.375,NaN L180,NaN L180.625,NaN L181.25,NaN L181.875,NaN L182.5,NaN L183.125,NaN L183.75,NaN L184.375,NaN L185,NaN L185.625,NaN L186.25,NaN L186.875,NaN L187.5,NaN L188.125,NaN L188.75,NaN L189.375,NaN L190,NaN L190.625,NaN L191.25,NaN L191.875,NaN L192.5,NaN L193.125,NaN L193.75,NaN L194.375,NaN L195,NaN L195.625,NaN L196.25,NaN L196.875,NaN L197.5,NaN L198.125,NaN L198.75,NaN L199.375,NaN L200,NaN " stroke="blue" fill="none" />
<text x="10" y="1360" font-family="Arial" font-size="12" fill="black">Epsilon</text>
<path d="M10,4.000002E+09 L210,4.000002E+09" stroke="gray" />
<text x="5" y="4.000002E+09" font-family="Arial" font-size="10" fill="black">0</text>
<text x="5" y="1380" font-family="Arial" font-size="10" fill="black">0.2</text>
<text x="5" y="1580" font-family="Arial" font-size="10" fill="black">0.2</text>
<path d="M0.625,NaN L1.25,NaN L1.875,NaN L2.5,NaN L3.125,NaN L3.75,NaN L4.375,NaN L5,NaN L5.625,NaN L6.25,NaN L6.875,NaN L7.5,NaN L8.125,NaN L8.75,NaN L9.375,NaN L10,NaN L10.625,NaN L11.25,NaN L11.875,NaN L12.5,NaN L13.125,NaN L13.75,NaN L14.375,NaN L15,NaN L15.625,NaN L16.25,NaN L16.875,NaN L17.5,NaN L18.125,NaN L18.75,NaN L19.375,NaN L20,NaN L20.625,NaN L21.25,NaN L21.875,NaN L22.5,NaN L23.125,NaN L23.75,NaN L24.375,NaN L25,NaN L25.625,NaN L26.25,NaN L26.875,NaN L27.5,NaN L28.125,NaN L28.75,NaN L29.375,NaN L30,NaN L30.625,NaN L31.25,NaN L31.875,NaN L32.5,NaN L33.125,NaN L33.75,NaN L34.375,NaN L35,NaN L35.625,NaN L36.25,NaN L36.875,NaN L37.5,NaN L38.125,NaN L38.75,NaN L39.375,NaN L40,NaN L40.625,NaN L41.25,NaN L41.875,NaN L42.5,NaN L43.125,NaN L43.75,NaN L44.375,NaN L45,NaN L45.625,NaN L46.25,NaN L46.875,NaN L47.5,NaN L48.125,NaN L48.75,NaN L49.375,NaN L50,NaN L50.625,NaN L51.25,NaN L51.875,NaN L52.5,NaN L53.125,NaN L53.75,NaN L54.375,NaN L55,NaN L55.625,NaN L56.25,NaN L56.875,NaN L57.5,NaN L58.125,NaN L58.75,NaN L59.375,NaN L60,NaN L60.625,NaN L61.25,NaN L61.875,NaN L62.5,NaN L63.125,NaN L63.75,NaN L64.375,NaN L65,NaN L65.625,NaN L66.25,NaN L66.875,NaN L67.5,NaN L68.125,NaN L68.75,NaN L69.375,NaN L70,NaN L70.625,NaN L71.25,NaN L71.875,NaN L72.5,NaN L73.125,NaN L73.75,NaN L74.375,NaN L75,NaN L75.625,NaN L76.25,NaN L76.875,NaN L77.5,NaN L78.125,NaN L78.75,NaN L79.375,NaN L80,NaN L80.625,NaN L81.25,NaN L81.875,NaN L82.5,NaN L83.125,NaN L83.75,NaN L84.375,NaN L85,NaN L85.625,NaN L86.25,NaN L86.875,NaN L87.5,NaN L88.125,NaN L88.75,NaN L89.375,NaN L90,NaN L90.625,NaN L91.25,NaN L91.875,NaN L92.5,NaN L93.125,NaN L93.75,NaN L94.375,NaN L95,NaN L95.625,NaN L96.25,NaN L96.875,NaN L97.5,NaN L98.125,NaN L98.75,NaN L99.375,NaN L100,NaN L100.625,NaN L101.25,NaN L101.875,NaN L102.5,NaN L103.125,NaN L103.75,NaN L104.375,NaN L105,NaN L105.625,NaN L106.25,NaN L106.875,NaN L107.5,NaN L108.125,NaN L108.75,NaN L109.375,NaN L110,NaN L110.625,NaN L111.25,NaN L111.875,NaN L112.5,NaN L113.125,NaN L113.75,NaN L114.375,NaN L115,NaN L115.625,NaN L116.25,NaN L116.875,NaN L117.5,NaN L118.125,NaN L118.75,NaN L119.375,NaN L120,NaN L120.625,NaN L121.25,NaN L121.875,NaN L122.5,NaN L123.125,NaN L123.75,NaN L124.375,NaN L125,NaN L125.625,NaN L126.25,NaN L126.875,NaN L127.5,NaN L128.125,NaN L128.75,NaN L129.375,NaN L130,NaN L130.625,NaN L131.25,NaN L131.875,NaN L132.5,NaN L133.125,NaN L133.75,NaN L134.375,NaN L135,NaN L135.625,NaN L136.25,NaN L136.875,NaN L137.5,NaN L138.125,NaN L138.75,NaN L139.375,NaN L140,NaN L140.625,NaN L141.25,NaN L141.875,NaN L142.5,NaN L143.125,NaN L143.75,NaN L144.375,NaN L145,NaN L145.625,NaN L146.25,NaN L146.875,NaN L147.5,NaN L148.125,NaN L148.75,NaN L149.375,NaN L150,NaN L150.625,NaN L151.25,NaN L151.875,NaN L152.5,NaN L153.125,NaN L153.75,NaN L154.375,NaN L155,NaN L155.625,NaN L156.25,NaN L156.875,NaN L157.5,NaN L158.125,NaN L158.75,NaN L159.375,NaN L160,NaN L160.625,NaN L161.25,NaN L161.875,NaN L162.5,NaN L163.125,NaN L163.75,NaN L164.375,NaN L165,NaN L165.625,NaN L166.25,NaN L166.875,NaN L167.5,NaN L168.125,NaN L168.75,NaN L169.375,NaN L170,NaN L170.625,NaN L171.25,NaN L171.875,NaN L172.5,NaN L173.125,NaN L173.75,NaN L174.375,NaN L175,NaN L175.625,NaN L176.25,NaN L176.875,NaN L177.5,NaN L178.125,NaN L178.75,NaN L179.375,NaN L180,NaN L180.625,NaN L181.25,NaN L181.875,NaN L182.5,NaN L183.125,NaN L183.75,NaN L184.375,NaN L185,NaN L185.625,NaN L186.25,NaN L186.875,NaN L187.5,NaN L188.125,NaN L188.75,NaN L189.375,NaN L190,NaN L190.625,NaN L191.25,NaN L191.875,NaN L192.5,NaN L193.125,NaN L193.75,NaN L194.375,NaN L195,NaN L195.625,NaN L196.25,NaN L196.875,NaN L197.5,NaN L198.125,NaN L198.75,NaN L199.375,NaN L200,NaN " stroke="blue" fill="none" />
</svg>
