<svg width="800" height="600" xmlns="http://www.w3.org/2000/svg">
<text x="10" y="20" font-family="Arial" font-size="16" fill="black"> [DeepUnity] Training Session</text>
<text x="10" y="40" font-family="Arial" font-size="12" fill="black">Start: 10:52:57 PM, Sunday, August 27, 2023</text>
<text x="10" y="60" font-family="Arial" font-size="12" fill="black">End: 11:09:21 PM, Sunday, August 27, 2023</text>
<text x="10" y="80" font-family="Arial" font-size="12" fill="black">Real Training Time: 0 hrs : 16 min : 23 sec</text>
<text x="10" y="100" font-family="Arial" font-size="12" fill="black">Training Time: 524.892</text>
<text x="10" y="120" font-family="Arial" font-size="12" fill="black">Iterations: 6</text>
<text x="10" y="140" font-family="Arial" font-size="12" fill="black">Parallel Agents: 4</text>
<text x="10" y="160" font-family="Arial" font-size="12" fill="black">Episode Reward</text>
<path d="M10,380.3971 L210,380.3971" stroke="gray" />
<text x="5" y="385.3971" font-family="Arial" font-size="10" fill="black">0</text>
<text x="5" y="180" font-family="Arial" font-size="10" fill="black">48.42528</text>
<text x="5" y="380" font-family="Arial" font-size="10" fill="black">0.09594689</text>
<path d="M0.3120125,380 L0.624025,378.6313 L0.9360374,378.2899 L1.24805,378.1779 L1.560062,378.5113 L1.872075,379.1039 L2.184088,379.7272 L2.4961,378.6128 L2.808112,378.8822 L3.120125,378.3961 L3.432137,378.1954 L3.74415,378.409 L4.056162,378.0462 L4.368175,378.5445 L4.680187,378.6629 L4.9922,378.1919 L5.304212,378.2828 L5.616225,378.1217 L5.928237,378.5937 L6.24025,378.7165 L6.552262,378.7852 L6.864275,378.2712 L7.176287,378.5097 L7.488299,378.201 L7.800313,378.267 L8.112325,377.8472 L8.424337,378.5309 L8.73635,378.6163 L9.048362,378.9813 L9.360374,378.5021 L9.672387,378.6022 L9.9844,378.3735 L10.29641,378.5728 L10.60842,378.2286 L10.92044,378.4 L11.23245,378.1533 L11.54446,378.3722 L11.85647,378.1775 L12.16849,378.1198 L12.4805,378.1844 L12.79251,378.41 L13.10452,378.4527 L13.41654,378.3217 L13.72855,378.5414 L14.04056,378.5846 L14.35257,378.1083 L14.66459,378.137 L14.9766,378.3878 L15.28861,378.5014 L15.60063,378.8349 L15.91264,378.421 L16.22465,379.3904 L16.53666,378.8405 L16.84867,378.4969 L17.16069,378.5004 L17.4727,378.3159 L17.78471,377.9494 L18.09672,377.9236 L18.40874,378.1384 L18.72075,378.4165 L19.03276,378.6914 L19.34477,378.5035 L19.65679,378.2424 L19.9688,378.1166 L20.28081,378.0489 L20.59282,378.3364 L20.90484,378.431 L21.21685,377.2395 L21.52886,378.5918 L21.84087,378.1085 L22.15289,378.5197 L22.4649,378.2876 L22.77691,378.418 L23.08892,378.9596 L23.40094,379.1526 L23.71295,377.6762 L24.02496,378.5128 L24.33697,378.0232 L24.64898,378.5053 L24.961,378.4742 L25.27301,378.4173 L25.58502,378.1885 L25.89704,378.7364 L26.20905,378.6201 L26.52106,378.4601 L26.83307,378.042 L27.14508,377.9557 L27.4571,377.6337 L27.76911,378.0508 L28.08112,378.5349 L28.39314,378.7752 L28.70515,378.3832 L29.01716,378.5887 L29.32917,378.4622 L29.64118,378.5677 L29.9532,378.4689 L30.26521,379.0381 L30.57722,378.5314 L30.88924,377.4998 L31.20125,378.0872 L31.51326,378.562 L31.82527,378.2655 L32.13729,378.3539 L32.4493,377.8446 L32.76131,378.7348 L33.07332,379.9187 L33.38534,378.1774 L33.69735,377.8486 L34.00936,378.4271 L34.32137,378.1387 L34.63338,377.6829 L34.9454,377.9609 L35.25741,378.4569 L35.56942,377.5755 L35.88144,377.987 L36.19345,378.2921 L36.50546,378.1822 L36.81747,377.9814 L37.12949,378.594 L37.4415,378.9237 L37.75351,378.4574 L38.06552,377.9799 L38.37754,377.9123 L38.68955,377.8524 L39.00156,377.6137 L39.31357,378.3466 L39.62558,377.8442 L39.9376,378.0326 L40.24961,378.0508 L40.56162,378.3924 L40.87363,378.2559 L41.18565,377.5481 L41.49766,377.9492 L41.80967,377.9272 L42.12169,378.2393 L42.4337,377.9006 L42.74571,377.9532 L43.05772,377.1477 L43.36974,377.6306 L43.68175,378.6649 L43.99376,379.6708 L44.30577,377.577 L44.61778,378.8562 L44.9298,378.3761 L45.24181,378.2892 L45.55382,377.703 L45.86583,377.9599 L46.17785,378.449 L46.48986,377.8762 L46.80187,378.3943 L47.11388,378.2538 L47.4259,378.8237 L47.73791,377.179 L48.04992,377.7466 L48.36193,377.3557 L48.67395,377.9031 L48.98596,377.5947 L49.29797,378.0924 L49.60998,377.7253 L49.922,378.9574 L50.23401,377.8318 L50.54602,377.7416 L50.85803,378.537 L51.17004,378.1335 L51.48206,378.2178 L51.79407,378.2522 L52.10608,378.1469 L52.41809,378.1963 L52.73011,377.6524 L53.04212,377.7797 L53.35413,377.9464 L53.66615,377.3976 L53.97816,377.7233 L54.29017,377.9134 L54.60218,378.1906 L54.9142,378.3956 L55.22621,378.9695 L55.53822,378.3283 L55.85023,377.8408 L56.16224,378.1005 L56.47426,377.3893 L56.78627,378.0734 L57.09828,378.3118 L57.41029,378.1589 L57.72231,378.5031 L58.03432,378.0347 L58.34633,378.32 L58.65834,377.9998 L58.97036,331.9816 L59.28237,378.3355 L59.59438,378.2628 L59.90639,377.5258 L60.21841,378.329 L60.53043,378.3993 L60.84244,379.325 L61.15445,377.3741 L61.46646,376.7717 L61.77847,377.3105 L62.09048,377.0916 L62.4025,376.5262 L62.71451,377.1585 L63.02652,377.6307 L63.33854,377.4589 L63.65055,378.2715 L63.96256,377.4172 L64.27457,376.777 L64.58659,376.544 L64.8986,377.6121 L65.21061,377.108 L65.52262,378.0508 L65.83463,377.187 L66.14664,377.3585 L66.45866,376.9537 L66.77068,377.6265 L67.08269,378.1976 L67.3947,376.8768 L67.70671,377.6802 L68.01872,377.3832 L68.33073,377.2513 L68.64275,377.167 L68.95476,376.9637 L69.26677,376.9129 L69.57878,377.2968 L69.8908,378.0457 L70.20281,377.931 L70.51482,376.9011 L70.82684,377.6339 L71.13885,377.0103 L71.45086,377.0624 L71.76287,376.7185 L72.07488,376.7042 L72.38689,376.9875 L72.69891,377.331 L73.01093,379.0885 L73.32294,377.6305 L73.63495,375.7672 L73.94696,377.8145 L74.25897,377.3446 L74.57098,377.5296 L74.883,377.0762 L75.19501,377.4852 L75.50702,376.5839 L75.81903,376.7253 L76.13104,377.8064 L76.44306,377.4225 L76.75507,377.9186 L77.06709,376.4831 L77.3791,377.4433 L77.69111,377.9859 L78.00312,377.0552 L78.31513,376.7629 L78.62714,376.9874 L78.93916,377.354 L79.25117,377.9171 L79.56318,377.6304 L79.8752,379.1023 L80.18721,378.6943 L80.49922,379.1276 L80.81123,377.3861 L81.12325,377.8239 L81.43526,377.7325 L81.74727,377.261 L82.05928,378.1013 L82.37129,377.3207 L82.6833,378.1671 L82.99532,378.0298 L83.30733,377.3331 L83.61935,377.6848 L83.93136,375.5022 L84.24337,377.281 L84.55538,376.6117 L84.86739,377.3072 L85.17941,376.9648 L85.49142,377.8062 L85.80343,377.9845 L86.11544,377.594 L86.42746,376.935 L86.73947,377.4048 L87.05148,377.3584 L87.36349,375.8914 L87.67551,377.6243 L87.98752,377.5852 L88.29953,377.0186 L88.61154,376.0816 L88.92355,377.9045 L89.23557,376.9743 L89.54758,377.4811 L89.8596,377.2073 L90.17161,377.1033 L90.48362,377.3205 L90.79563,377.3285 L91.10764,376.3194 L91.41965,377.4305 L91.73167,377.5612 L92.04368,372.8739 L92.35569,376.7267 L92.6677,377.461 L92.97972,378.0093 L93.29173,377.3868 L93.60374,377.3011 L93.91576,376.5936 L94.22777,377.3051 L94.53978,377.5493 L94.85179,378.149 L95.1638,376.8038 L95.47581,377.8244 L95.78783,377.6935 L96.09984,377.0978 L96.41186,377.5544 L96.72387,377.9138 L97.03588,377.1685 L97.34789,375.9592 L97.6599,376.799 L97.97192,377.7082 L98.28393,377.6028 L98.59594,376.0251 L98.90795,376.7177 L99.21996,377.6448 L99.53197,377.3785 L99.84399,377.4362 L100.156,379.817 L100.468,376.3782 L100.78,378.2022 L101.092,376.5317 L101.4041,377.2675 L101.7161,375.6356 L102.0281,375.5231 L102.3401,376.669 L102.6521,377.4274 L102.9641,377.5391 L103.2761,376.7308 L103.5881,376.215 L103.9002,376.4199 L104.2122,376.4524 L104.5242,376.6648 L104.8362,375.7502 L105.1482,377.142 L105.4602,375.8162 L105.7722,375.2651 L106.0842,375.8552 L106.3963,377.8608 L106.7083,377.0695 L107.0203,373.3921 L107.3323,186.8327 L107.6443,377.0785 L107.9563,377.3351 L108.2683,377.9767 L108.5803,376.41 L108.8924,378.0478 L109.2044,376.9142 L109.5164,376.1527 L109.8284,281.6927 L110.1404,377.436 L110.4524,376.5267 L110.7644,376.4698 L111.0764,376.9159 L111.3885,377.4275 L111.7005,376.787 L112.0125,376.6233 L112.3245,376.4002 L112.6365,377.3956 L112.9485,376.2834 L113.2605,375.2553 L113.5725,375.818 L113.8846,376.0901 L114.1966,376.7074 L114.5086,377.0747 L114.8206,374.4601 L115.1326,377.0443 L115.4446,375.9408 L115.7566,377.1477 L116.0686,376.8344 L116.3807,376.0463 L116.6927,374.0704 L117.0047,373.8418 L117.3167,369.9192 L117.6287,377.7412 L117.9407,376.6537 L118.2527,377.6713 L118.5647,377.2777 L118.8768,375.4276 L119.1888,377.3359 L119.5008,376.1877 L119.8128,377.1153 L120.1248,376.5741 L120.4368,374.6344 L120.7488,376.6566 L121.0609,377.9162 L121.3729,376.0389 L121.6849,377.1969 L121.9969,377.1981 L122.3089,374.9693 L122.6209,375.1753 L122.9329,376.6051 L123.2449,372.1067 L123.5569,375.0327 L123.869,378.0676 L124.181,376.5537 L124.493,377.2608 L124.805,377.9601 L125.117,374.9398 L125.429,273.6368 L125.741,378.4043 L126.053,376.3843 L126.3651,377.5429 L126.6771,376.4306 L126.9891,377.2034 L127.3011,376.4146 L127.6131,375.4925 L127.9251,375.3153 L128.2371,376.6344 L128.5491,376.5183 L128.8612,376.3006 L129.1732,375.9453 L129.4852,377.7012 L129.7972,375.8165 L130.1092,377.0224 L130.4212,361.4497 L130.7332,376.0248 L131.0452,372.1801 L131.3573,354.6502 L131.6693,376.0631 L131.9813,373.6381 L132.2933,375.3115 L132.6053,375.9483 L132.9173,375.1138 L133.2293,376.9437 L133.5414,377.5429 L133.8533,374.4683 L134.1654,374.6899 L134.4774,372.6918 L134.7894,376.422 L135.1014,376.5573 L135.4134,375.8915 L135.7254,375.9409 L136.0374,377.7253 L136.3495,377.4303 L136.6615,377.446 L136.9735,367.4221 L137.2855,375.6617 L137.5975,373.0025 L137.9095,373.2967 L138.2215,369.9026 L138.5335,376.9006 L138.8456,376.5657 L139.1576,375.43 L139.4696,372.9871 L139.7816,358.313 L140.0936,374.4263 L140.4056,374.9305 L140.7176,375.3944 L141.0296,377.1635 L141.3416,376.0085 L141.6537,372.348 L141.9657,368.6847 L142.2777,376.478 L142.5897,375.7842 L142.9017,375.6341 L143.2137,372.729 L143.5257,376.8464 L143.8378,376.1523 L144.1498,374.096 L144.4618,376.2478 L144.7738,375.0709 L145.0858,374.7205 L145.3978,372.8568 L145.7098,375.7023 L146.0219,375.4915 L146.3338,375.7101 L146.6459,279.2571 L146.9579,376.4305 L147.2699,366.4538 L147.5819,376.9712 L147.8939,281.8122 L148.2059,367.5036 L148.5179,372.9896 L148.83,375.8911 L149.142,376.0218 L149.454,376.6465 L149.766,376.5116 L150.078,375.1694 L150.39,372.1573 L150.702,377.8065 L151.014,376.9679 L151.326,375.6023 L151.6381,373.306 L151.9501,373.436 L152.2621,375.9497 L152.5741,375.8892 L152.8861,376.1442 L153.1981,375.6717 L153.5101,376.4192 L153.8221,377.3889 L154.1342,376.8261 L154.4462,375.3917 L154.7582,371.4622 L155.0702,375.7373 L155.3822,374.7488 L155.6942,372.4277 L156.0062,376.1967 L156.3183,357.9317 L156.6303,368.8882 L156.9423,377.1046 L157.2543,180 L157.5663,374.9636 L157.8783,274.4802 L158.1903,374.6672 L158.5023,376.1658 L158.8143,373.9767 L159.1264,373.3531 L159.4384,375.3091 L159.7504,372.3024 L160.0624,375.4025 L160.3744,377.5359 L160.6864,375.7216 L160.9984,376.3209 L161.3105,377.4706 L161.6225,371.3158 L161.9345,375.6017 L162.2465,376.1069 L162.5585,361.0591 L162.8705,372.5817 L163.1825,376.586 L163.4945,375.9411 L163.8066,376.4941 L164.1186,374.3026 L164.4306,373.9773 L164.7426,374.2926 L165.0546,376.029 L165.3666,370.7617 L165.6786,372.3698 L165.9906,370.0804 L166.3027,369.7511 L166.6147,376.275 L166.9267,376.5678 L167.2387,375.7165 L167.5507,377.6642 L167.8627,378.2143 L168.1747,376.4667 L168.4867,374.1584 L168.7988,376.6857 L169.1108,376.3588 L169.4228,373.1868 L169.7348,365.151 L170.0468,371.3455 L170.3588,375.0371 L170.6708,376.5096 L170.9828,374.5021 L171.2949,371.8896 L171.6069,374.8572 L171.9189,375.5166 L172.2309,372.3603 L172.5429,374.4646 L172.8549,373.9176 L173.1669,190.5397 L173.4789,375.6403 L173.791,375.2615 L174.103,375.725 L174.415,373.112 L174.727,376.7094 L175.039,343.5444 L175.351,375.0308 L175.663,377.0693 L175.975,373.5108 L176.287,376.0558 L176.5991,376.0402 L176.9111,376.4953 L177.2231,374.8517 L177.5351,376.052 L177.8471,375.6423 L178.1591,376.2593 L178.4711,376.2103 L178.7832,374.8143 L179.0952,375.3799 L179.4072,376.0529 L179.7192,374.759 L180.0312,374.7467 L180.3432,368.7177 L180.6552,377.543 L180.9672,373.0262 L181.2793,370.634 L181.5913,374.8075 L181.9033,375.3807 L182.2153,376.2877 L182.5273,377.034 L182.8393,372.0137 L183.1513,376.5946 L183.4633,333.4156 L183.7754,376.2326 L184.0874,376.9292 L184.3994,373.5186 L184.7114,376.8577 L185.0234,371.6908 L185.3354,363.6198 L185.6474,373.5019 L185.9594,376.6372 L186.2715,374.6816 L186.5835,371.7837 L186.8955,377.7279 L187.2075,376.8647 L187.5195,372.6919 L187.8315,371.7468 L188.1435,376.3078 L188.4555,377.0567 L188.7675,377.5298 L189.0796,370.9627 L189.3916,375.7319 L189.7036,376.9444 L190.0156,374.4678 L190.3276,373.869 L190.6396,376.854 L190.9516,374.9932 L191.2637,378.2319 L191.5757,372.9511 L191.8877,374.0988 L192.1997,373.0628 L192.5117,375.5465 L192.8237,374.5487 L193.1357,376.0465 L193.4477,375.907 L193.7598,372.0755 L194.0718,337.8481 L194.3838,373.3939 L194.6958,360.5148 L195.0078,375.5132 L195.3198,377.2671 L195.6318,360.0239 L195.9438,375.9793 L196.2558,372.3836 L196.5679,374.0305 L196.8799,374.5214 L197.1919,374.0844 L197.5039,376.3882 L197.8159,378.6799 L198.1279,372.2701 L198.4399,371.0621 L198.752,375.4023 L199.0639,356.5595 L199.376,369.5728 L199.688,374.5628 L200,365.8791 " stroke="blue" fill="none" />
<text x="10" y="400" font-family="Arial" font-size="12" fill="black">Episode Length</text>
<path d="M10,622.8126 L210,622.8126" stroke="gray" />
<text x="5" y="627.8126" font-family="Arial" font-size="10" fill="black">0</text>
<text x="5" y="420" font-family="Arial" font-size="10" fill="black">2001</text>
<text x="5" y="620" font-family="Arial" font-size="10" fill="black">27.75</text>
<path d="M0.3120125,619.5946 L0.624025,618.9611 L0.9360374,618.7077 L1.24805,618.6317 L1.560062,618.8344 L1.872075,619.3159 L2.184088,619.4426 L2.4961,618.8851 L2.808112,618.9865 L3.120125,618.7077 L3.432137,618.6824 L3.74415,618.7838 L4.056162,618.6064 L4.368175,618.8851 L4.680187,618.9104 L4.9922,618.6824 L5.304212,618.6824 L5.616225,618.6317 L5.928237,618.9104 L6.24025,619.0118 L6.552262,618.9611 L6.864275,618.657 L7.176287,618.8091 L7.488299,618.6824 L7.800313,618.7077 L8.112325,618.5303 L8.424337,618.8597 L8.73635,618.8851 L9.048362,619.1891 L9.360374,618.7838 L9.672387,618.8851 L9.9844,618.733 L10.29641,618.9358 L10.60842,618.7077 L10.92044,618.733 L11.23245,618.6824 L11.54446,618.733 L11.85647,618.6317 L12.16849,618.657 L12.4805,618.657 L12.79251,618.7838 L13.10452,618.7838 L13.41654,618.7584 L13.72855,618.8597 L14.04056,618.8597 L14.35257,618.581 L14.66459,618.657 L14.9766,618.7838 L15.28861,618.8344 L15.60063,618.9865 L15.91264,618.8091 L16.22465,619.3918 L16.53666,619.0118 L16.84867,618.8344 L17.16069,618.8597 L17.4727,618.7584 L17.78471,618.5303 L18.09672,618.581 L18.40874,618.6064 L18.72075,618.7838 L19.03276,618.9358 L19.34477,618.8091 L19.65679,618.6824 L19.9688,618.657 L20.28081,618.581 L20.59282,618.7077 L20.90484,618.7838 L21.21685,617.5168 L21.52886,618.8851 L21.84087,618.581 L22.15289,618.8344 L22.4649,618.7077 L22.77691,618.7838 L23.08892,619.2905 L23.40094,619.2145 L23.71295,618.3783 L24.02496,618.8851 L24.33697,618.581 L24.64898,618.8091 L24.961,618.8344 L25.27301,618.733 L25.58502,618.6824 L25.89704,618.9611 L26.20905,618.9104 L26.52106,618.8344 L26.83307,618.5557 L27.14508,618.505 L27.4571,617.9729 L27.76911,618.6064 L28.08112,618.8344 L28.39314,619.0118 L28.70515,618.7838 L29.01716,618.8597 L29.32917,618.7838 L29.64118,618.8597 L29.9532,618.8091 L30.26521,619.2652 L30.57722,618.8091 L30.88924,617.5168 L31.20125,618.6317 L31.51326,618.9104 L31.82527,618.7077 L32.13729,618.8091 L32.4493,618.5303 L32.76131,618.9358 L33.07332,620 L33.38534,618.657 L33.69735,618.4543 L34.00936,618.8091 L34.32137,618.657 L34.63338,618.3783 L34.9454,618.5557 L35.25741,618.8344 L35.56942,618.3023 L35.88144,618.581 L36.19345,618.733 L36.50546,618.6064 L36.81747,618.581 L37.12949,618.9611 L37.4415,619.2398 L37.75351,618.8344 L38.06552,618.5557 L38.37754,618.505 L38.68955,618.429 L39.00156,618.3276 L39.31357,618.7584 L39.62558,618.4797 L39.9376,618.5557 L40.24961,618.581 L40.56162,618.733 L40.87363,618.7077 L41.18565,618.2516 L41.49766,618.4797 L41.80967,618.581 L42.12169,618.657 L42.4337,618.5557 L42.74571,618.5303 L43.05772,618.0996 L43.36974,618.3276 L43.68175,619.0371 L43.99376,619.2145 L44.30577,617.4915 L44.61778,619.0624 L44.9298,618.7838 L45.24181,618.7077 L45.55382,618.4036 L45.86583,618.6064 L46.17785,618.8091 L46.48986,618.5303 L46.80187,618.9358 L47.11388,618.733 L47.4259,619.2145 L47.73791,617.6942 L48.04992,618.4036 L48.36193,618.2516 L48.67395,618.4797 L48.98596,618.3276 L49.29797,618.657 L49.60998,618.429 L49.922,619.2652 L50.23401,618.4797 L50.54602,618.4036 L50.85803,618.8597 L51.17004,618.6064 L51.48206,618.657 L51.79407,618.6824 L52.10608,618.6824 L52.41809,618.657 L52.73011,618.353 L53.04212,618.4036 L53.35413,618.581 L53.66615,618.277 L53.97816,618.4036 L54.29017,618.5303 L54.60218,618.7077 L54.9142,618.8091 L55.22621,618.9865 L55.53822,618.7838 L55.85023,618.4543 L56.16224,618.6064 L56.47426,618.2516 L56.78627,618.6064 L57.09828,618.7077 L57.41029,618.657 L57.72231,618.8851 L58.03432,618.6064 L58.34633,618.7584 L58.65834,618.581 L58.97036,569.0181 L59.28237,618.7077 L59.59438,618.6824 L59.90639,618.3276 L60.21841,618.7838 L60.53043,618.9104 L60.84244,619.4426 L61.15445,617.4408 L61.46646,617.4915 L61.77847,618.1756 L62.09048,618.0489 L62.4025,617.7195 L62.71451,618.0742 L63.02652,618.3783 L63.33854,618.277 L63.65055,618.657 L63.96256,618.2263 L64.27457,617.9222 L64.58659,617.7702 L64.8986,618.353 L65.21061,618.0489 L65.52262,618.5557 L65.83463,618.1249 L66.14664,618.2009 L66.45866,617.7195 L66.77068,618.4036 L67.08269,618.277 L67.3947,617.5674 L67.70671,618.353 L68.01872,618.2516 L68.33073,618.1249 L68.64275,618.0742 L68.95476,618.0742 L69.26677,617.9222 L69.57878,618.1756 L69.8908,618.5557 L70.20281,618.505 L70.51482,617.8969 L70.82684,618.3783 L71.13885,617.9729 L71.45086,618.0236 L71.76287,617.9222 L72.07488,617.7448 L72.38689,617.9729 L72.69891,618.1756 L73.01093,619.2145 L73.32294,618.3023 L73.63495,616.2245 L73.94696,618.4797 L74.25897,618.2009 L74.57098,618.3023 L74.883,617.9982 L75.19501,618.2516 L75.50702,617.7195 L75.81903,617.8969 L76.13104,618.4543 L76.44306,618.2263 L76.75507,618.505 L77.06709,617.6688 L77.3791,618.2516 L77.69111,618.5303 L78.00312,618.0236 L78.31513,617.8969 L78.62714,617.9982 L78.93916,618.1503 L79.25117,618.505 L79.56318,618.6064 L79.8752,619.3159 L80.18721,618.8091 L80.49922,619.0624 L80.81123,618.2516 L81.12325,618.4543 L81.43526,618.4036 L81.74727,618.1503 L82.05928,618.6064 L82.37129,618.0996 L82.6833,618.6064 L82.99532,618.6064 L83.30733,618.0996 L83.61935,618.4036 L83.93136,617.086 L84.24337,618.1503 L84.55538,617.7448 L84.86739,618.1503 L85.17941,617.9476 L85.49142,618.4036 L85.80343,618.4543 L86.11544,618.353 L86.42746,617.9476 L86.73947,618.2009 L87.05148,618.0996 L87.36349,617.4915 L87.67551,618.353 L87.98752,618.3023 L88.29953,617.9982 L88.61154,617.4408 L88.92355,618.505 L89.23557,617.9982 L89.54758,618.3023 L89.8596,617.9982 L90.17161,617.9982 L90.48362,618.1503 L90.79563,618.2516 L91.10764,617.6435 L91.41965,618.3023 L91.73167,618.4543 L92.04368,612.373 L92.35569,617.7448 L92.6677,618.2009 L92.97972,618.6064 L93.29173,618.2009 L93.60374,618.1503 L93.91576,617.7448 L94.22777,618.1503 L94.53978,618.353 L94.85179,618.657 L95.1638,617.9476 L95.47581,618.4036 L95.78783,618.353 L96.09984,618.0996 L96.41186,618.353 L96.72387,618.5557 L97.03588,618.0489 L97.34789,617.4408 L97.6599,617.6942 L97.97192,618.4543 L98.28393,618.3023 L98.59594,617.4915 L98.90795,617.8969 L99.21996,618.353 L99.53197,618.3023 L99.84399,618.2516 L100.156,619.8733 L100.468,616.934 L100.78,618.7584 L101.092,617.5421 L101.4041,618.1503 L101.7161,617.1367 L102.0281,617.1367 L102.3401,617.3394 L102.6521,618.2516 L102.9641,618.2516 L103.2761,617.8969 L103.5881,617.4915 L103.9002,617.6942 L104.2122,617.5928 L104.5242,617.6942 L104.8362,617.4408 L105.1482,618.0996 L105.4602,616.5286 L105.7722,616.8833 L106.0842,617.4915 L106.3963,618.4036 L106.7083,617.9982 L107.0203,614.2988 L107.3323,420 L107.6443,618.0489 L107.9563,618.0489 L108.2683,618.9104 L108.5803,617.6942 L108.8924,618.505 L109.2044,617.8462 L109.5164,617.4408 L109.8284,519.2778 L110.1404,618.0996 L110.4524,617.6942 L110.7644,617.6942 L111.0764,617.8969 L111.3885,618.2516 L111.7005,617.9476 L112.0125,617.7448 L112.3245,617.5421 L112.6365,618.0996 L112.9485,617.5928 L113.2605,616.782 L113.5725,617.3394 L113.8846,617.4408 L114.1966,617.7955 L114.5086,618.0489 L114.8206,616.5792 L115.1326,617.8969 L115.4446,617.1874 L115.7566,617.8969 L116.0686,618.0489 L116.3807,616.3259 L116.6927,615.3123 L117.0047,614.8562 L117.3167,610.1938 L117.6287,618.2516 L117.9407,617.6942 L118.2527,618.353 L118.5647,618.1503 L118.8768,616.9847 L119.1888,618.1503 L119.5008,617.3394 L119.8128,617.9476 L120.1248,617.7955 L120.4368,616.5792 L120.7488,617.8462 L121.0609,618.5557 L121.3729,617.4408 L121.6849,618.1503 L121.9969,618.0489 L122.3089,616.8833 L122.6209,616.934 L122.9329,617.6942 L123.2449,613.944 L123.5569,617.1367 L123.869,618.505 L124.181,617.6435 L124.493,618.2009 L124.805,618.4543 L125.117,616.782 L125.429,519.2778 L125.741,618.9611 L126.053,617.7448 L126.3651,618.6064 L126.6771,617.5928 L126.9891,618.0489 L127.3011,617.6435 L127.6131,617.2888 L127.9251,617.0353 L128.2371,617.6942 L128.5491,617.6942 L128.8612,617.5928 L129.1732,617.4408 L129.4852,618.4543 L129.7972,617.2888 L130.1092,617.9476 L130.4212,600.8184 L130.7332,617.4915 L131.0452,613.5892 L131.3573,593.1661 L131.6693,617.3901 L131.9813,615.9204 L132.2933,617.086 L132.6053,617.4408 L132.9173,616.8833 L133.2293,617.9476 L133.5414,618.2009 L133.8533,616.5792 L134.1654,616.4779 L134.4774,613.3359 L134.7894,617.4915 L135.1014,617.7955 L135.4134,617.238 L135.7254,617.3901 L136.0374,618.353 L136.3495,618.2516 L136.6615,618.1503 L136.9735,607.5079 L137.2855,617.0353 L137.5975,615.8191 L137.9095,615.9711 L138.2215,611.0047 L138.5335,617.8462 L138.8456,617.5928 L139.1576,617.238 L139.4696,613.1838 L139.7816,597.8284 L140.0936,615.8698 L140.4056,616.6299 L140.7176,617.086 L141.0296,618.0996 L141.3416,617.2888 L141.6537,613.5386 L141.9657,608.7242 L142.2777,617.4915 L142.5897,616.6299 L142.9017,617.1874 L143.2137,613.4879 L143.5257,617.7448 L143.8378,617.3394 L144.1498,616.3765 L144.4618,617.4915 L144.7738,616.6299 L145.0858,616.6806 L145.3978,615.7177 L145.7098,617.0353 L146.0219,617.2888 L146.3338,617.2888 L146.6459,518.467 L146.9579,617.7448 L147.2699,606.6464 L147.5819,617.8969 L147.8939,518.5177 L148.2059,607.8627 L148.5179,613.3865 L148.83,617.238 L149.142,617.1874 L149.454,617.6942 L149.766,617.7448 L150.078,617.0353 L150.39,612.1703 L150.702,618.4036 L151.014,617.8969 L151.326,617.1874 L151.6381,615.9204 L151.9501,615.0082 L152.2621,617.4408 L152.5741,617.7448 L152.8861,617.4915 L153.1981,617.3394 L153.5101,617.8462 L153.8221,618.1503 L154.1342,617.9476 L154.4462,616.5286 L154.7582,614.5015 L155.0702,617.238 L155.3822,616.6299 L155.6942,615.4136 L156.0062,617.5421 L156.3183,596.3588 L156.6303,611.1567 L156.9423,617.9476 L157.2543,420 L157.5663,616.7313 L157.8783,507.8753 L158.1903,615.9204 L158.5023,617.4408 L158.8143,616.1232 L159.1264,616.1232 L159.4384,616.6299 L159.7504,615.2109 L160.0624,616.934 L160.3744,618.2516 L160.6864,617.3394 L160.9984,617.5421 L161.3105,618.2516 L161.6225,615.0082 L161.9345,616.934 L162.2465,617.4408 L162.5585,604.67 L162.8705,615.2109 L163.1825,617.7448 L163.4945,617.238 L163.8066,617.5421 L164.1186,616.3259 L164.4306,616.3259 L164.7426,616.4272 L165.0546,617.5421 L165.3666,614.8055 L165.6786,615.515 L165.9906,611.8662 L166.3027,613.5892 L166.6147,617.4408 L166.9267,617.8462 L167.2387,617.238 L167.5507,618.4543 L167.8627,618.4543 L168.1747,617.6435 L168.4867,616.4272 L168.7988,617.7448 L169.1108,617.6435 L169.4228,615.6164 L169.7348,606.1903 L170.0468,614.4001 L170.3588,616.6299 L170.6708,617.6435 L170.9828,616.4272 L171.2949,614.8055 L171.6069,616.7313 L171.9189,617.1367 L172.2309,615.3123 L172.5429,616.7313 L172.8549,616.1232 L173.1669,420 L173.4789,616.934 L173.791,617.238 L174.103,617.0353 L174.415,614.4001 L174.727,617.8462 L175.039,581.2568 L175.351,616.7313 L175.663,617.9476 L175.975,615.2109 L176.287,617.5421 L176.5991,617.3394 L176.9111,617.3394 L177.2231,616.6299 L177.5351,617.4408 L177.8471,617.3394 L178.1591,617.4408 L178.4711,617.5421 L178.7832,616.4272 L179.0952,617.1367 L179.4072,617.4408 L179.7192,616.4272 L180.0312,616.8326 L180.3432,611.1567 L180.6552,618.2516 L180.9672,615.515 L181.2793,609.8391 L181.5913,616.934 L181.9033,616.934 L182.2153,617.4408 L182.5273,618.0489 L182.8393,615.2109 L183.1513,617.7448 L183.4633,569.1955 L183.7754,617.5421 L184.0874,617.9476 L184.3994,615.515 L184.7114,617.7448 L185.0234,614.6028 L185.3354,604.0618 L185.6474,615.8191 L185.9594,617.6435 L186.2715,616.7313 L186.5835,614.9069 L186.8955,618.353 L187.2075,617.9476 L187.5195,615.7177 L187.8315,615.0082 L188.1435,617.7448 L188.4555,618.0489 L188.7675,618.1503 L189.0796,611.7648 L189.3916,617.1367 L189.7036,617.9476 L190.0156,616.6299 L190.3276,616.1232 L190.6396,617.7448 L190.9516,616.8326 L191.2637,618.5557 L191.5757,615.9204 L191.8877,616.1232 L192.1997,615.8191 L192.5117,617.238 L192.8237,616.6299 L193.1357,617.3394 L193.4477,617.1367 L193.7598,615.4136 L194.0718,574.77 L194.3838,615.8191 L194.6958,599.6022 L195.0078,617.238 L195.3198,618.2516 L195.6318,598.7913 L195.9438,617.0353 L196.2558,615.2109 L196.5679,614.6028 L196.8799,616.4272 L197.1919,616.2245 L197.5039,617.3394 L197.8159,618.8597 L198.1279,611.7648 L198.4399,614.8055 L198.752,617.0353 L199.0639,602.4401 L199.376,614.2988 L199.688,616.7313 L200,609.4337 " stroke="blue" fill="none" />
<text x="10" y="640" font-family="Arial" font-size="12" fill="black">Policy Loss</text>
<path d="M10,929.8826 L210,929.8826" stroke="gray" />
<text x="5" y="934.8826" font-family="Arial" font-size="10" fill="black">0</text>
<text x="5" y="660" font-family="Arial" font-size="10" fill="black">0.005363365</text>
<text x="5" y="860" font-family="Arial" font-size="10" fill="black">0.001388773</text>
<path d="M1.041667,793.5018 L2.083333,761.8442 L3.125,780.2606 L4.166667,790.0361 L5.208333,737.244 L6.25,743.9487 L7.291667,784.452 L8.333334,759.9267 L9.375,762.3641 L10.41667,787.2192 L11.45833,780.3673 L12.5,761.6329 L13.54167,800.0775 L14.58333,767.7812 L15.625,740.449 L16.66667,780.427 L17.70833,764.9281 L18.75,792.6103 L19.79167,758.6687 L20.83333,759.8701 L21.875,775.92 L22.91667,779.1364 L23.95833,762.8873 L25,785.2035 L26.04167,723.9848 L27.08333,763.6672 L28.125,777.5679 L29.16667,809.7988 L30.20833,730.1104 L31.25,811.9635 L32.29166,730.7105 L33.33334,810.124 L34.375,797.4295 L35.41666,796.3175 L36.45834,795.8483 L37.5,741.0676 L38.54166,780.766 L39.58334,835.3784 L40.625,739.2098 L41.66666,722.8544 L42.70834,660 L43.75,778.5928 L44.79166,809.4691 L45.83334,738.1709 L46.875,816.7762 L47.91666,768.8802 L48.95834,860 L50,749.2569 L51.04167,783.8938 L52.08333,788.1544 L53.125,755.8143 L54.16667,807.6987 L55.20833,790.1006 L56.25,818.9963 L57.29167,791.8006 L58.33333,777.869 L59.375,794.0565 L60.41667,824.8443 L61.45833,787.2857 L62.5,758.0961 L63.54167,766.5588 L64.58333,775.0392 L65.625,773.759 L66.66667,771.7993 L67.70833,805.9308 L68.75,791.6849 L69.79167,784.4489 L70.83333,808.913 L71.875,739.1771 L72.91667,709.2431 L73.95833,808.6563 L75,761.6094 L76.04167,739.7715 L77.08333,742.0454 L78.125,703.8508 L79.16667,765.542 L80.20833,805.324 L81.25,762.2056 L82.29167,775.1617 L83.33333,741.8352 L84.375,768.0489 L85.41667,753.6992 L86.45833,739.5305 L87.5,747.9183 L88.54167,740.2311 L89.58333,744.5542 L90.625,808.6808 L91.66667,739.0595 L92.70833,763.1168 L93.75,759.5424 L94.79167,753.3806 L95.83333,779.9223 L96.875,771.775 L97.91667,813.2998 L98.95833,794.7058 L100,754.8153 L101.0417,804.0898 L102.0833,759.809 L103.125,710.6954 L104.1667,810.4457 L105.2083,768.5209 L106.25,785.6384 L107.2917,819.3062 L108.3333,765.1649 L109.375,702.5222 L110.4167,725.9609 L111.4583,747.8611 L112.5,778.9379 L113.5417,764.1014 L114.5833,786.4329 L115.625,799.3197 L116.6667,823.1187 L117.7083,760.5244 L118.75,742.7531 L119.7917,802.1527 L120.8333,783.4702 L121.875,719.7758 L122.9167,799.765 L123.9583,804.7406 L125,794.9579 L126.0417,681.2509 L127.0833,713.5858 L128.125,763.0714 L129.1667,730.4606 L130.2083,775.2761 L131.25,740.5075 L132.2917,791.2234 L133.3333,759.1621 L134.375,767.3303 L135.4167,787.7858 L136.4583,791.388 L137.5,726.9854 L138.5417,766.0685 L139.5833,707.5182 L140.625,777.062 L141.6667,752.1787 L142.7083,782.609 L143.75,770.2295 L144.7917,742.4265 L145.8333,746.4622 L146.875,770.4638 L147.9167,770.6611 L148.9583,801.46 L150,749.4716 L151.0417,757.8978 L152.0833,767.0526 L153.125,829.1153 L154.1667,765.6182 L155.2083,828.9167 L156.25,780.7262 L157.2917,780.8853 L158.3333,770.4971 L159.375,771.9482 L160.4167,790.1457 L161.4583,742.0253 L162.5,774.1741 L163.5417,797.5081 L164.5833,790.6414 L165.625,756.2648 L166.6667,766.5935 L167.7083,816.0537 L168.75,782.6404 L169.7917,761.5978 L170.8333,715.1317 L171.875,766.5994 L172.9167,795.7991 L173.9583,834.0159 L175,760.2055 L176.0417,795.7616 L177.0833,772.3907 L178.125,769.2223 L179.1667,754.6117 L180.2083,822.4142 L181.25,811.959 L182.2917,797.0891 L183.3333,813.5115 L184.375,757.9572 L185.4167,817.8665 L186.4583,750.8513 L187.5,706.0931 L188.5417,769.238 L189.5833,823.8677 L190.625,784.4272 L191.6667,787.6382 L192.7083,782.1179 L193.75,707.9363 L194.7917,775.8611 L195.8333,770.2858 L196.875,809.2021 L197.9167,824.5538 L198.9583,713.712 L200,776.6105 " stroke="blue" fill="none" />
<text x="10" y="880" font-family="Arial" font-size="12" fill="black">Value Loss</text>
<path d="M10,1104.739 L210,1104.739" stroke="gray" />
<text x="5" y="1109.739" font-family="Arial" font-size="10" fill="black">0</text>
<text x="5" y="900" font-family="Arial" font-size="10" fill="black">0.03824455</text>
<text x="5" y="1100" font-family="Arial" font-size="10" fill="black">0.0008853036</text>
<path d="M1.041667,1022.758 L2.083333,1036.692 L3.125,1046.105 L4.166667,1059.739 L5.208333,1075.246 L6.25,1085.49 L7.291667,1089.596 L8.333334,1091.548 L9.375,1086.726 L10.41667,1088.397 L11.45833,1089.537 L12.5,1090.366 L13.54167,1091.164 L14.58333,1091.874 L15.625,1092.409 L16.66667,1093.059 L17.70833,1087.418 L18.75,1088.69 L19.79167,1089.682 L20.83333,1090.372 L21.875,1091.108 L22.91667,1091.821 L23.95833,1092.31 L25,1092.876 L26.04167,1097.462 L27.08333,1098.239 L28.125,1098.744 L29.16667,1099.116 L30.20833,1099.409 L31.25,1099.645 L32.29166,1099.81 L33.33334,1100 L34.375,1086.483 L35.41666,1088.83 L36.45834,1090.079 L37.5,1091.024 L38.54166,1091.442 L39.58334,1091.948 L40.625,1092.602 L41.66666,1093.116 L42.70834,1062.15 L43.75,1093.51 L44.79166,1096.561 L45.83334,1097.739 L46.875,1098.352 L47.91666,1098.769 L48.95834,1099.139 L50,1099.422 L51.04167,1096.056 L52.08333,1097.098 L53.125,1097.72 L54.16667,1098.185 L55.20833,1098.439 L56.25,1098.664 L57.29167,1098.84 L58.33333,1099.023 L59.375,1093.874 L60.41667,1094.752 L61.45833,1095.296 L62.5,1095.675 L63.54167,1095.958 L64.58333,1096.201 L65.625,1096.425 L66.66667,1096.709 L67.70833,1091.445 L68.75,1093.081 L69.79167,1094.081 L70.83333,1094.493 L71.875,1095.09 L72.91667,1095.568 L73.95833,1095.794 L75,1096.18 L76.04167,1096.212 L77.08333,1096.756 L78.125,1097.202 L79.16667,1097.591 L80.20833,1097.837 L81.25,1097.929 L82.29167,1098.036 L83.33333,1098.201 L84.375,1088.417 L85.41667,1089.664 L86.45833,1091.029 L87.5,1091.496 L88.54167,1092.12 L89.58333,1092.365 L90.625,1092.721 L91.66667,1093.12 L92.70833,1086.07 L93.75,1090.998 L94.79167,1093.011 L95.83333,1094.196 L96.875,1094.852 L97.91667,1095.388 L98.95833,1095.808 L100,1096.152 L101.0417,1059.498 L102.0833,1082.042 L103.125,1086.467 L104.1667,1087.949 L105.2083,1089.032 L106.25,1089.835 L107.2917,1090.429 L108.3333,1090.962 L109.375,1080.37 L110.4167,1088.543 L111.4583,1091.053 L112.5,1092.426 L113.5417,1093.275 L114.5833,1093.891 L115.625,1094.453 L116.6667,1094.995 L117.7083,1084.823 L118.75,1088.156 L119.7917,1089.769 L120.8333,1090.933 L121.875,1091.615 L122.9167,1092.478 L123.9583,1093.027 L125,1093.505 L126.0417,959.3515 L127.0833,1065.306 L128.125,1076.886 L129.1667,1080.717 L130.2083,1082.947 L131.25,1084.453 L132.2917,1085.44 L133.3333,1086.422 L134.375,1061.006 L135.4167,1067.495 L136.4583,1070.575 L137.5,1072.86 L138.5417,1074.214 L139.5833,1075.387 L140.625,1076.571 L141.6667,1076.987 L142.7083,1040.028 L143.75,1050.763 L144.7917,1056.036 L145.8333,1059.343 L146.875,1061.826 L147.9167,1064.149 L148.9583,1066.034 L150,1067.988 L151.0417,965.0118 L152.0833,1025.934 L153.125,1039.376 L154.1667,1046.919 L155.2083,1051.628 L156.25,1055.744 L157.2917,1058.728 L158.3333,1061.096 L159.375,937.5767 L160.4167,1062.18 L161.4583,1078.268 L162.5,1082.741 L163.5417,1084.867 L164.5833,1086.246 L165.625,1087.23 L166.6667,1088.038 L167.7083,1018.888 L168.75,1051.144 L169.7917,1058.697 L170.8333,1062.9 L171.875,1066.302 L172.9167,1068.662 L173.9583,1070.959 L175,1072.768 L176.0417,991.3176 L177.0833,1011.793 L178.125,1019.272 L179.1667,1023.518 L180.2083,1027.495 L181.25,1030.366 L182.2917,1033.616 L183.3333,1036.049 L184.375,900 L185.4167,989.1241 L186.4583,1001.332 L187.5,1008.785 L188.5417,1013.115 L189.5833,1016.875 L190.625,1019.303 L191.6667,1020.441 L192.7083,906.1497 L193.75,925.956 L194.7917,936.5612 L195.8333,943.936 L196.875,950.5212 L197.9167,955.6099 L198.9583,959.7971 L200,964.6459 " stroke="blue" fill="none" />
<text x="10" y="1120" font-family="Arial" font-size="12" fill="black">Learning Rate</text>
<path d="M10,6001141 L210,6001141" stroke="gray" />
<text x="5" y="6001146" font-family="Arial" font-size="10" fill="black">0</text>
<text x="5" y="1140" font-family="Arial" font-size="10" fill="black">0.0003</text>
<text x="5" y="1340" font-family="Arial" font-size="10" fill="black">0.0003</text>
<path d="M1.041667,NaN L2.083333,NaN L3.125,NaN L4.166667,NaN L5.208333,NaN L6.25,NaN L7.291667,NaN L8.333334,NaN L9.375,NaN L10.41667,NaN L11.45833,NaN L12.5,NaN L13.54167,NaN L14.58333,NaN L15.625,NaN L16.66667,NaN L17.70833,NaN L18.75,NaN L19.79167,NaN L20.83333,NaN L21.875,NaN L22.91667,NaN L23.95833,NaN L25,NaN L26.04167,NaN L27.08333,NaN L28.125,NaN L29.16667,NaN L30.20833,NaN L31.25,NaN L32.29166,NaN L33.33334,NaN L34.375,NaN L35.41666,NaN L36.45834,NaN L37.5,NaN L38.54166,NaN L39.58334,NaN L40.625,NaN L41.66666,NaN L42.70834,NaN L43.75,NaN L44.79166,NaN L45.83334,NaN L46.875,NaN L47.91666,NaN L48.95834,NaN L50,NaN L51.04167,NaN L52.08333,NaN L53.125,NaN L54.16667,NaN L55.20833,NaN L56.25,NaN L57.29167,NaN L58.33333,NaN L59.375,NaN L60.41667,NaN L61.45833,NaN L62.5,NaN L63.54167,NaN L64.58333,NaN L65.625,NaN L66.66667,NaN L67.70833,NaN L68.75,NaN L69.79167,NaN L70.83333,NaN L71.875,NaN L72.91667,NaN L73.95833,NaN L75,NaN L76.04167,NaN L77.08333,NaN L78.125,NaN L79.16667,NaN L80.20833,NaN L81.25,NaN L82.29167,NaN L83.33333,NaN L84.375,NaN L85.41667,NaN L86.45833,NaN L87.5,NaN L88.54167,NaN L89.58333,NaN L90.625,NaN L91.66667,NaN L92.70833,NaN L93.75,NaN L94.79167,NaN L95.83333,NaN L96.875,NaN L97.91667,NaN L98.95833,NaN L100,NaN L101.0417,NaN L102.0833,NaN L103.125,NaN L104.1667,NaN L105.2083,NaN L106.25,NaN L107.2917,NaN L108.3333,NaN L109.375,NaN L110.4167,NaN L111.4583,NaN L112.5,NaN L113.5417,NaN L114.5833,NaN L115.625,NaN L116.6667,NaN L117.7083,NaN L118.75,NaN L119.7917,NaN L120.8333,NaN L121.875,NaN L122.9167,NaN L123.9583,NaN L125,NaN L126.0417,NaN L127.0833,NaN L128.125,NaN L129.1667,NaN L130.2083,NaN L131.25,NaN L132.2917,NaN L133.3333,NaN L134.375,NaN L135.4167,NaN L136.4583,NaN L137.5,NaN L138.5417,NaN L139.5833,NaN L140.625,NaN L141.6667,NaN L142.7083,NaN L143.75,NaN L144.7917,NaN L145.8333,NaN L146.875,NaN L147.9167,NaN L148.9583,NaN L150,NaN L151.0417,NaN L152.0833,NaN L153.125,NaN L154.1667,NaN L155.2083,NaN L156.25,NaN L157.2917,NaN L158.3333,NaN L159.375,NaN L160.4167,NaN L161.4583,NaN L162.5,NaN L163.5417,NaN L164.5833,NaN L165.625,NaN L166.6667,NaN L167.7083,NaN L168.75,NaN L169.7917,NaN L170.8333,NaN L171.875,NaN L172.9167,NaN L173.9583,NaN L175,NaN L176.0417,NaN L177.0833,NaN L178.125,NaN L179.1667,NaN L180.2083,NaN L181.25,NaN L182.2917,NaN L183.3333,NaN L184.375,NaN L185.4167,NaN L186.4583,NaN L187.5,NaN L188.5417,NaN L189.5833,NaN L190.625,NaN L191.6667,NaN L192.7083,NaN L193.75,NaN L194.7917,NaN L195.8333,NaN L196.875,NaN L197.9167,NaN L198.9583,NaN L200,NaN " stroke="blue" fill="none" />
<text x="10" y="1360" font-family="Arial" font-size="12" fill="black">Epsilon</text>
<path d="M10,4.000002E+09 L210,4.000002E+09" stroke="gray" />
<text x="5" y="4.000002E+09" font-family="Arial" font-size="10" fill="black">0</text>
<text x="5" y="1380" font-family="Arial" font-size="10" fill="black">0.2</text>
<text x="5" y="1580" font-family="Arial" font-size="10" fill="black">0.2</text>
<path d="M1.041667,NaN L2.083333,NaN L3.125,NaN L4.166667,NaN L5.208333,NaN L6.25,NaN L7.291667,NaN L8.333334,NaN L9.375,NaN L10.41667,NaN L11.45833,NaN L12.5,NaN L13.54167,NaN L14.58333,NaN L15.625,NaN L16.66667,NaN L17.70833,NaN L18.75,NaN L19.79167,NaN L20.83333,NaN L21.875,NaN L22.91667,NaN L23.95833,NaN L25,NaN L26.04167,NaN L27.08333,NaN L28.125,NaN L29.16667,NaN L30.20833,NaN L31.25,NaN L32.29166,NaN L33.33334,NaN L34.375,NaN L35.41666,NaN L36.45834,NaN L37.5,NaN L38.54166,NaN L39.58334,NaN L40.625,NaN L41.66666,NaN L42.70834,NaN L43.75,NaN L44.79166,NaN L45.83334,NaN L46.875,NaN L47.91666,NaN L48.95834,NaN L50,NaN L51.04167,NaN L52.08333,NaN L53.125,NaN L54.16667,NaN L55.20833,NaN L56.25,NaN L57.29167,NaN L58.33333,NaN L59.375,NaN L60.41667,NaN L61.45833,NaN L62.5,NaN L63.54167,NaN L64.58333,NaN L65.625,NaN L66.66667,NaN L67.70833,NaN L68.75,NaN L69.79167,NaN L70.83333,NaN L71.875,NaN L72.91667,NaN L73.95833,NaN L75,NaN L76.04167,NaN L77.08333,NaN L78.125,NaN L79.16667,NaN L80.20833,NaN L81.25,NaN L82.29167,NaN L83.33333,NaN L84.375,NaN L85.41667,NaN L86.45833,NaN L87.5,NaN L88.54167,NaN L89.58333,NaN L90.625,NaN L91.66667,NaN L92.70833,NaN L93.75,NaN L94.79167,NaN L95.83333,NaN L96.875,NaN L97.91667,NaN L98.95833,NaN L100,NaN L101.0417,NaN L102.0833,NaN L103.125,NaN L104.1667,NaN L105.2083,NaN L106.25,NaN L107.2917,NaN L108.3333,NaN L109.375,NaN L110.4167,NaN L111.4583,NaN L112.5,NaN L113.5417,NaN L114.5833,NaN L115.625,NaN L116.6667,NaN L117.7083,NaN L118.75,NaN L119.7917,NaN L120.8333,NaN L121.875,NaN L122.9167,NaN L123.9583,NaN L125,NaN L126.0417,NaN L127.0833,NaN L128.125,NaN L129.1667,NaN L130.2083,NaN L131.25,NaN L132.2917,NaN L133.3333,NaN L134.375,NaN L135.4167,NaN L136.4583,NaN L137.5,NaN L138.5417,NaN L139.5833,NaN L140.625,NaN L141.6667,NaN L142.7083,NaN L143.75,NaN L144.7917,NaN L145.8333,NaN L146.875,NaN L147.9167,NaN L148.9583,NaN L150,NaN L151.0417,NaN L152.0833,NaN L153.125,NaN L154.1667,NaN L155.2083,NaN L156.25,NaN L157.2917,NaN L158.3333,NaN L159.375,NaN L160.4167,NaN L161.4583,NaN L162.5,NaN L163.5417,NaN L164.5833,NaN L165.625,NaN L166.6667,NaN L167.7083,NaN L168.75,NaN L169.7917,NaN L170.8333,NaN L171.875,NaN L172.9167,NaN L173.9583,NaN L175,NaN L176.0417,NaN L177.0833,NaN L178.125,NaN L179.1667,NaN L180.2083,NaN L181.25,NaN L182.2917,NaN L183.3333,NaN L184.375,NaN L185.4167,NaN L186.4583,NaN L187.5,NaN L188.5417,NaN L189.5833,NaN L190.625,NaN L191.6667,NaN L192.7083,NaN L193.75,NaN L194.7917,NaN L195.8333,NaN L196.875,NaN L197.9167,NaN L198.9583,NaN L200,NaN " stroke="blue" fill="none" />
</svg>
