<svg width="2000" height="2500" xmlns="http://www.w3.org/2000/svg">
<text x="10" y="20" font-family="Arial" font-size="26" fill="black"> [<tspan font-weight="bold" fill="blue">Walker</tspan>] Training Session</text>
<text x="10" y="50" font-family="Arial" font-size="16" fill="black">[Statistics]</text>
<text x="50" y="70" font-family="Arial" font-size="12" fill="black">Started at: 8:55:25 PM, Tuesday, April 23, 2024</text>
<text x="50" y="90" font-family="Arial" font-size="12" fill="black">Finished at: 8:58:23 PM, Tuesday, April 23, 2024</text>
<text x="50" y="110" font-family="Arial" font-size="12" fill="black">Training Session Time: 0 hrs : 2 min : 52 sec</text>
<text x="50" y="130" font-family="Arial" font-size="12" fill="black">Inference Time: 2 hrs : 54 min : 59 sec        [Device: CPU]</text>
<text x="50" y="150" font-family="Arial" font-size="12" fill="black">Update Time: 0 hrs : 0 min : 49 sec        [Per iteration: 0 hrs : 0 min : 9.753 sec]        [Device: GPU]</text>
<text x="50" y="170" font-family="Arial" font-size="12" fill="black">Episode Count: 975</text>
<text x="50" y="190" font-family="Arial" font-size="12" fill="black">Inference Steps: 100000</text>
<text x="50" y="210" font-family="Arial" font-size="12" fill="black">Iterations: 5</text>
<text x="50" y="230" font-family="Arial" font-size="12" fill="black">Parallel Agents: 82</text>
<text x="50" y="250" font-family="Arial" font-size="12" fill="black">Timescale: 1</text>
<text x="50" y="270" font-family="Arial" font-size="12" fill="black">Trainer: PPO</text>
<text x="10" y="320" font-family="Arial" font-size="16" fill="black">[Hyperparameters]</text>
<text x="50" y="340" font-family="Arial" font-size="12" fill="black">Buffer Size: 20000        [Batch Size: 1000       (x20)]</text>
<text x="50" y="360" font-family="Arial" font-size="12" fill="black">Num Epoch: 8</text>
<text x="50" y="380" font-family="Arial" font-size="12" fill="black">Time Horizon: 256</text>
<text x="50" y="400" font-family="Arial" font-size="12" fill="black">Gradient Cliping by Norm: 0.5</text>
<text x="50" y="420" font-family="Arial" font-size="12" fill="black">Learning Rate Schedule: True    </text>
<text x="10" y="470" font-family="Arial" font-size="16" fill="black">[Behaviour]</text>
<text x="50" y="490" font-family="Arial" font-size="12" fill="black">Space Size: 120</text>
<text x="50" y="510" font-family="Arial" font-size="12" fill="black">Continuous Actions: 36 [Standard Deviation: Fixed]     [Value: 3.02]</text>
<text x="50" y="530" font-family="Arial" font-size="12" fill="black">Discrete Actions: 0</text>
<text x="50" y="550" font-family="Arial" font-size="12" fill="black">TargetFPS: 100 (physics update rate)</text>
<text x="50" y="570" font-family="Arial" font-size="12" fill="black">Observations Normalization: True</text>
<text x="10" y="620" font-family="Arial" font-size="16" fill="black">[Decision Requester]</text>
<text x="50" y="640" font-family="Arial" font-size="12" fill="black">Max Step: 2000</text>
<text x="50" y="660" font-family="Arial" font-size="12" fill="black">Decision Period: 10      [Actions Between Decisions: True]</text>
<text x="10" y="710" font-family="Arial" font-size="16" fill="black">[Graphs]</text>
<text x="50" y="730" font-family="Arial" font-size="12" fill="black">Episode Reward (975)</text>
<text x="50" y="745" font-family="Arial" font-size="10" fill="black">11.978</text>
<text x="50" y="960" font-family="Arial" font-size="10" fill="black">-0.01377296</text>
<path d="M50,949.2813 L50.39063,948.877 L50.78125,948.8898 L51.17188,948.5763 L51.5625,947.7975 L51.95313,946.5742 L52.34375,947.9816 L52.73438,946.7625 L53.125,947.1033 L53.51563,946.7937 L53.90625,948.3069 L54.29688,945.8577 L54.6875,945.442 L55.07813,947.1261 L55.46875,945.986 L55.85938,945.621 L56.25,946.4827 L56.64063,945.3085 L57.03125,944.9172 L57.42188,945.1932 L57.8125,944.9562 L58.20313,944.2455 L58.59375,944.1685 L58.98438,944.1378 L59.375,943.3405 L59.76563,946.7891 L60.15625,943.0198 L60.54688,943.3005 L60.9375,946.0709 L61.32813,941.6914 L61.71875,942.5147 L62.10938,942.4338 L62.5,945.6979 L62.89063,947.6845 L63.28125,943.6008 L63.67188,941.4685 L64.0625,942.4737 L64.45313,941.1823 L64.84375,937.9147 L65.23438,946.9418 L65.625,948.2134 L66.01563,940.0457 L66.40625,948.7709 L66.79688,948.3649 L67.1875,941.7755 L67.57813,936.9525 L67.96875,939.4845 L68.35938,935.9881 L68.75,946.6199 L69.14063,943.8374 L69.53125,945.3603 L69.92188,949.2986 L70.3125,946.2384 L70.70313,948.1118 L71.09375,934.0122 L71.48438,949.322 L71.875,941.3529 L72.26563,933.9033 L72.65625,937.0545 L73.04688,934.4608 L73.4375,947.1367 L73.82813,935.1406 L74.21875,929.019 L74.60938,944.5424 L75,927.9974 L75.39063,932.319 L75.78125,945.3925 L76.17188,928.9122 L76.5625,929.2867 L76.95313,925.931 L77.34375,927.8115 L77.73438,943.8857 L78.125,929.4083 L78.51563,932.6277 L78.90625,925.7686 L79.29688,925.7795 L79.6875,944.4316 L80.07813,939.2164 L80.46875,945.6133 L80.85938,941.3934 L81.25,941.0386 L81.64063,927.5755 L82.03125,948.5032 L82.42188,944.7023 L82.8125,943.9218 L83.20313,929.8376 L83.59375,947.1979 L83.98438,939.2592 L84.375,922.0729 L84.76563,919.6276 L85.15625,920.157 L85.54688,945.5013 L85.9375,927.1455 L86.32813,942.9623 L86.71875,945.5295 L87.10938,936.0677 L87.5,921.975 L87.89063,924.2309 L88.28125,948.285 L88.67188,915.4141 L89.0625,914.9937 L89.45313,922.9129 L89.84375,943.8401 L90.23438,935.5493 L90.625,916.1714 L91.01563,916.0885 L91.40625,923.7481 L91.79688,915.5746 L92.1875,944.4771 L92.57813,920.8482 L92.96875,940.1639 L93.35938,939.4674 L93.75,931.4584 L94.14063,947.0018 L94.53125,933.5355 L94.92188,946.8801 L95.3125,939.1287 L95.70313,946.7881 L96.09375,910.7877 L96.48438,934.2806 L96.875,939.9377 L97.26563,908.7038 L97.65625,941.1103 L98.04688,931.1344 L98.4375,944.8944 L98.82813,944.037 L99.21875,945.3393 L99.60938,941.7802 L100,907.854 L100.3906,945.9255 L100.7813,943.0814 L101.1719,921.5207 L101.5625,927.2668 L101.9531,914.0493 L102.3438,919.3702 L102.7344,939.0558 L103.125,947.7974 L103.5156,946.1434 L103.9063,948.5934 L104.2969,944.0773 L104.6875,944.8924 L105.0781,910.7609 L105.4688,923.1705 L105.8594,936.3337 L106.25,905.6923 L106.6406,949.0103 L107.0313,919.6068 L107.4219,907.0035 L107.8125,938.1806 L108.2031,898.275 L108.5938,933.5336 L108.9844,947.7078 L109.375,948.4478 L109.7656,939.3823 L110.1563,904.6158 L110.5469,900.1996 L110.9375,932.3663 L111.3281,947.6373 L111.7188,947.6655 L112.1094,929.4129 L112.5,893.4898 L112.8906,908.3484 L113.2813,939.0553 L113.6719,903.6392 L114.0625,930.0804 L114.4531,933.2305 L114.8438,920.7845 L115.2344,897.4531 L115.625,935.3676 L116.0156,934.6927 L116.4063,946.6278 L116.7969,938.9395 L117.1875,895.6315 L117.5781,943.9517 L117.9688,916.4805 L118.3594,945.8107 L118.75,948.9235 L119.1406,927.8519 L119.5313,948.3839 L119.9219,948.7012 L120.3125,946.194 L120.7031,946.7731 L121.0938,933.0928 L121.4844,947.0798 L121.875,947.3004 L122.2656,945.7546 L122.6563,885.4199 L123.0469,920.4556 L123.4375,948.1547 L123.8281,888.8463 L124.2188,933.1608 L124.6094,889.3346 L125,909.5731 L125.3906,883.854 L125.7813,941.9778 L126.1719,882.5329 L126.5625,948.9934 L126.9531,948.6315 L127.3438,940.6864 L127.7344,935.8542 L128.125,945.1423 L128.5156,915.6339 L128.9063,947.2228 L129.2969,941.8277 L129.6875,910.6016 L130.0781,942.9544 L130.4688,924.7454 L130.8594,943.5197 L131.25,933.9468 L131.6406,943.7618 L132.0313,937.5074 L132.4219,920.6526 L132.8125,930.0499 L133.2031,929.1339 L133.5938,924.5189 L133.9844,903.2439 L134.375,945.4337 L134.7656,948.0363 L135.1563,932.9748 L135.5469,904.3836 L135.9375,881.2106 L136.3281,949.1165 L136.7188,941.8921 L137.1094,911.9354 L137.5,930.9161 L137.8906,939.7587 L138.2813,937.2785 L138.6719,942.4045 L139.0625,946.3075 L139.4531,945.2122 L139.8438,947.6647 L140.2344,948.6785 L140.625,917.7498 L141.0156,901.9802 L141.4063,875.3636 L141.7969,949.0599 L142.1875,871.8559 L142.5781,905.5767 L142.9688,900.6248 L143.3594,940.3442 L143.75,905.0532 L144.1406,927.1128 L144.5313,931.2411 L144.9219,942.0984 L145.3125,880.117 L145.7031,942.588 L146.0938,906.1133 L146.4844,897.3522 L146.875,948.2771 L147.2656,942.0291 L147.6563,944.3689 L148.0469,937.0522 L148.4375,915.3712 L148.8281,900.1566 L149.2188,945.2681 L149.6094,863.2654 L150,882.0798 L150.3906,947.7839 L150.7813,923.4412 L151.1719,921.8082 L151.5625,871.6686 L151.9531,915.0965 L152.3438,921.6699 L152.7344,923.5901 L153.125,852.9893 L153.5156,948.3 L153.9063,945.9566 L154.2969,908.8605 L154.6875,922.8981 L155.0781,928.6046 L155.4688,914.9705 L155.8594,923.0793 L156.25,948.2482 L156.6406,944.6737 L157.0313,945.1128 L157.4219,895.4235 L157.8125,943.9324 L158.2031,932.4109 L158.5938,935.464 L158.9844,881.0214 L159.375,942.6267 L159.7656,937.84 L160.1563,902.1346 L160.5469,944.4795 L160.9375,899.0792 L161.3281,940.776 L161.7188,845.9719 L162.1094,936.5894 L162.5,943.141 L162.8906,880.2896 L163.2813,840.2914 L163.6719,874.825 L164.0625,944.1494 L164.4531,897.1541 L164.8438,933.3398 L165.2344,923.2999 L165.625,883.5236 L166.0156,891.74 L166.4063,944.7483 L166.7969,915.912 L167.1875,912.9219 L167.5781,908.241 L167.9688,945.3323 L168.3594,836.8317 L168.75,925.0933 L169.1406,886.8207 L169.5313,916.4335 L169.9219,944.0019 L170.3125,927.538 L170.7031,875.399 L171.0938,940.1318 L171.4844,937.3173 L171.875,833.3673 L172.2656,944.2634 L172.6563,939.8249 L173.0469,945.9075 L173.4375,933.8312 L173.8281,949.7504 L174.2188,942.0125 L174.6094,945.2927 L175,947.8398 L175.3906,946.121 L175.7813,948.8723 L176.1719,941.8441 L176.5625,841.4094 L176.9531,941.2968 L177.3438,847.5297 L177.7344,915.9771 L178.125,946.045 L178.5156,928.4138 L178.9063,929.1768 L179.2969,943.9233 L179.6875,900.6772 L180.0781,941.0071 L180.4688,947.5339 L180.8594,947.3393 L181.25,947.1212 L181.6406,893.1931 L182.0313,883.2215 L182.4219,934.9724 L182.8125,947.9064 L183.2031,888.7977 L183.5938,938.2366 L183.9844,926.4441 L184.375,918.3677 L184.7656,926.2323 L185.1563,917.7231 L185.5469,911.5816 L185.9375,888.305 L186.3281,925.8772 L186.7188,896.9824 L187.1094,919.307 L187.5,929.8539 L187.8906,912.3199 L188.2813,936.5294 L188.6719,890.16 L189.0625,872.6285 L189.4531,942.9037 L189.8438,948.8977 L190.2344,886.187 L190.625,904.1948 L191.0156,932.3628 L191.4063,943.6988 L191.7969,948.9648 L192.1875,894.7606 L192.5781,896.3366 L192.9688,904.3641 L193.3594,906.2045 L193.75,915.87 L194.1406,941.0549 L194.5313,841.8183 L194.9219,930.1434 L195.3125,905.0436 L195.7031,924.3168 L196.0938,937.8988 L196.4844,943.5324 L196.875,932.3184 L197.2656,860.2128 L197.6563,935.8711 L198.0469,947.9243 L198.4375,929.0619 L198.8281,903.462 L199.2188,942.2542 L199.6094,798.925 L200,942.6517 L200.3906,799.4485 L200.7813,947.4559 L201.1719,876.6487 L201.5625,937.8313 L201.9531,907.829 L202.3438,948.1815 L202.7344,945.1292 L203.125,948.6545 L203.5156,915.5131 L203.9063,912.5291 L204.2969,948.0198 L204.6875,943.2734 L205.0781,949.0729 L205.4688,882.2813 L205.8594,934.7213 L206.25,949.0688 L206.6406,877.8069 L207.0313,890.5276 L207.4219,945.1754 L207.8125,946.4662 L208.2031,945.3867 L208.5938,942.8566 L208.9844,945.001 L209.375,946.8669 L209.7656,870.7324 L210.1563,905.8737 L210.5469,909.2767 L210.9375,932.5214 L211.3281,940.3066 L211.7188,901.0341 L212.1094,906.6443 L212.5,792.4896 L212.8906,921.9913 L213.2813,937.2242 L213.6719,925.6521 L214.0625,851.7454 L214.4531,946.8558 L214.8438,946.4463 L215.2344,919.5322 L215.625,804.8915 L216.0156,945.0139 L216.4063,948.6031 L216.7969,928.0488 L217.1875,889.0067 L217.5781,932.0352 L217.9688,939.2312 L218.3594,946.1602 L218.75,862.4022 L219.1406,937.1238 L219.5313,937.9688 L219.9219,943.2833 L220.3125,914.0942 L220.7031,945.2875 L221.0938,931.3562 L221.4844,882.33 L221.875,916.0262 L222.2656,943.1283 L222.6563,945.2859 L223.0469,938.9329 L223.4375,840.657 L223.8281,943.2234 L224.2188,943.2325 L224.6094,882.7739 L225,923.3799 L225.3906,936.9042 L225.7813,911.7349 L226.1719,947.0648 L226.5625,876.3117 L226.9531,948.364 L227.3438,922.0834 L227.7344,911.7814 L228.125,924.2659 L228.5156,948.3616 L228.9063,914.7679 L229.2969,939.2264 L229.6875,936.6194 L230.0781,945.1074 L230.4688,940.997 L230.8594,933.5945 L231.25,941.9906 L231.6406,869.7908 L232.0313,948.0352 L232.4219,949.2156 L232.8125,931.7175 L233.2031,836.1404 L233.5938,853.8949 L233.9844,940.9561 L234.375,873.7009 L234.7656,930.1317 L235.1563,942.4161 L235.5469,925.1049 L235.9375,930.256 L236.3281,943.7787 L236.7188,940.1804 L237.1094,833.6459 L237.5,888.9467 L237.8906,943.8508 L238.2813,947.3205 L238.6719,917.8573 L239.0625,831.5795 L239.4531,904.4609 L239.8438,948.285 L240.2344,943.6153 L240.625,911.1365 L241.0156,946.508 L241.4063,945.7905 L241.7969,843.0947 L242.1875,923.4316 L242.5781,933.5647 L242.9688,894.9431 L243.3594,927.4655 L243.75,913.9652 L244.1406,942.3885 L244.5313,910.6857 L244.9219,946.8402 L245.3125,937.7803 L245.7031,923.8003 L246.0938,815.0696 L246.4844,882.0423 L246.875,889.3057 L247.2656,887.3925 L247.6563,945.1739 L248.0469,943.7699 L248.4375,879.933 L248.8281,910.8116 L249.2188,884.1024 L249.6094,946.4994 L250,910.3353 L250.3906,934.5794 L250.7813,941.04 L251.1719,857.3448 L251.5625,943.1319 L251.9531,906.0658 L252.3438,816.5696 L252.7344,941.1717 L253.125,947.3068 L253.5156,949.0462 L253.9063,897.6666 L254.2969,943.3619 L254.6875,947.9437 L255.0781,948.2126 L255.4688,908.2512 L255.8594,920.0048 L256.25,889.5082 L256.6406,942.4986 L257.0313,945.817 L257.4219,922.9329 L257.8125,928.6611 L258.2031,948.7369 L258.5938,945.4653 L258.9844,948.2637 L259.375,868.5569 L259.7656,877.5236 L260.1563,947.7148 L260.5469,934.9116 L260.9375,891.1816 L261.3281,930.348 L261.7188,799.2849 L262.1094,943.985 L262.5,947.0168 L262.8906,890.6462 L263.2813,929.2526 L263.6719,943.2225 L264.0625,905.3487 L264.4531,898.1988 L264.8438,912.5085 L265.2344,925.9361 L265.625,909.827 L266.0156,938.2206 L266.4063,943.7924 L266.7969,929.3242 L267.1875,821.5157 L267.5781,925.0135 L267.9688,940.3294 L268.3594,929.8569 L268.75,822.4401 L269.1406,929.7379 L269.5313,930.474 L269.9219,946.4659 L270.3125,948.7481 L270.7031,940.0567 L271.0938,945.5341 L271.4844,797.6549 L271.875,895.4734 L272.2656,944.1014 L272.6563,939.1573 L273.0469,941.5709 L273.4375,849.1833 L273.8281,948.4401 L274.2188,835.333 L274.6094,831.1831 L275,892.5939 L275.3906,902.9033 L275.7813,890.2527 L276.1719,946.5372 L276.5625,936.6614 L276.9531,933.5547 L277.3438,862.6611 L277.7344,890.9562 L278.125,944.0647 L278.5156,921.5482 L278.9063,943.2543 L279.2969,892.1209 L279.6875,913.6807 L280.0781,947.7458 L280.4688,942.8868 L280.8594,899.2144 L281.25,922.2667 L281.6406,922.1222 L282.0313,894.5372 L282.4219,899.9128 L282.8125,911.0674 L283.2031,935.0566 L283.5938,917.4717 L283.9844,901.514 L284.375,941.7196 L284.7656,904.5711 L285.1563,944.9856 L285.5469,940.5335 L285.9375,947.1956 L286.3281,944.4553 L286.7188,872.3642 L287.1094,909.6168 L287.5,929.8929 L287.8906,942.2027 L288.2813,937.1456 L288.6719,902.5029 L289.0625,948.2086 L289.4531,949.1441 L289.8438,949.3125 L290.2344,927.9633 L290.625,891.4394 L291.0156,925.0182 L291.4063,934.3104 L291.7969,899.5781 L292.1875,945.3623 L292.5781,932.7686 L292.9688,906.2977 L293.3594,913.0415 L293.75,847.7417 L294.1406,930.877 L294.5313,878.1953 L294.9219,859.7437 L295.3125,947.8204 L295.7031,946.425 L296.0938,880.3156 L296.4844,899.6559 L296.875,877.8779 L297.2656,848.7794 L297.6563,934.2216 L298.0469,927.7047 L298.4375,890.7402 L298.8281,930.7506 L299.2188,948.312 L299.6094,926.9905 L300,916.1697 L300.3906,942.648 L300.7813,906.3207 L301.1719,915.6578 L301.5625,929.9653 L301.9531,948.6516 L302.3438,946.0573 L302.7344,942.5786 L303.125,940.8854 L303.5156,894.5287 L303.9063,921.2407 L304.2969,947.9484 L304.6875,891.0004 L305.0781,932.1696 L305.4688,945.0679 L305.8594,927.4085 L306.25,862.4864 L306.6407,930.7493 L307.0313,947.6649 L307.4219,933.6662 L307.8125,926.8879 L308.2031,939.8196 L308.5938,879.3801 L308.9844,944.6414 L309.375,936.1172 L309.7656,910.2778 L310.1563,942.1085 L310.5469,902.3323 L310.9375,948.7097 L311.3281,838.9118 L311.7188,920.3629 L312.1094,950 L312.5,944.7861 L312.8906,924.3564 L313.2813,945.9577 L313.6719,937.4965 L314.0625,948.9913 L314.4532,879.337 L314.8438,945.8072 L315.2344,818.7131 L315.625,876.7553 L316.0156,936.7191 L316.4063,944.3531 L316.7969,922.1309 L317.1875,893.6176 L317.5781,946.1785 L317.9688,940.0621 L318.3594,935.4792 L318.75,851.8045 L319.1406,948.0651 L319.5313,926.2077 L319.9219,921.5078 L320.3125,948.8488 L320.7031,916.342 L321.0938,943.9422 L321.4844,892.7939 L321.875,944.0585 L322.2657,906.2602 L322.6563,928.8857 L323.0469,946.9657 L323.4375,938.3445 L323.8281,906.5044 L324.2188,945.6622 L324.6094,939.1507 L325,919.8364 L325.3906,942.9429 L325.7813,920.6593 L326.1719,931.3698 L326.5625,918.9657 L326.9531,945.9874 L327.3438,941.3696 L327.7344,941.8226 L328.125,862.2189 L328.5156,945.6806 L328.9063,885.5966 L329.2969,922.6625 L329.6875,941.2975 L330.0782,919.778 L330.4688,948.1183 L330.8594,948.4094 L331.25,947.1512 L331.6406,901.2358 L332.0313,947.3303 L332.4219,828.2507 L332.8125,944.3411 L333.2031,946.9276 L333.5938,904.2942 L333.9844,900.5502 L334.375,939.6385 L334.7656,882.3317 L335.1563,912.7504 L335.5469,941.4961 L335.9375,882.7527 L336.3281,945.354 L336.7188,816.0895 L337.1094,917.9721 L337.5,946.3271 L337.8907,910.2846 L338.2813,908.2354 L338.6719,842.8616 L339.0625,928.0527 L339.4531,887.2238 L339.8438,899.1214 L340.2344,920.071 L340.625,906.6905 L341.0156,947.8348 L341.4063,883.56 L341.7969,948.7109 L342.1875,927.3704 L342.5781,907.8121 L342.9688,902.9943 L343.3594,948.9034 L343.75,945.2502 L344.1406,922.7546 L344.5313,914.0844 L344.9219,926.2144 L345.3125,934.4724 L345.7032,834.4985 L346.0938,932.4228 L346.4844,948.1775 L346.875,946.3068 L347.2656,885.1366 L347.6563,948.666 L348.0469,820.6416 L348.4375,925.1761 L348.8281,945.9074 L349.2188,902.2185 L349.6094,925.6769 L350,872.6573 L350.3906,926.7984 L350.7813,932.1249 L351.1719,919.6638 L351.5625,944.2653 L351.9531,937.8948 L352.3438,934.5931 L352.7344,944.5137 L353.125,945.8575 L353.5157,815.4695 L353.9063,948.6868 L354.2969,945.105 L354.6875,945.3218 L355.0781,919.9183 L355.4688,933.5837 L355.8594,848.8924 L356.25,886.86 L356.6406,947.0353 L357.0313,946.7697 L357.4219,852.0715 L357.8125,895.7397 L358.2031,897.8605 L358.5938,931.2731 L358.9844,845.3838 L359.375,931.4914 L359.7656,944.4572 L360.1563,799.7573 L360.5469,820.8148 L360.9375,946.2915 L361.3282,936.57 L361.7188,945.4087 L362.1094,945.1437 L362.5,838.3573 L362.8906,887.3434 L363.2813,944.8899 L363.6719,925.8553 L364.0625,755.5767 L364.4531,943.21 L364.8438,920.9047 L365.2344,927.9642 L365.625,936.4171 L366.0156,919.0026 L366.4063,947.3951 L366.7969,931.3723 L367.1875,947.0933 L367.5781,945.314 L367.9688,947.4154 L368.3594,935.3571 L368.75,926.3101 L369.1407,922.0914 L369.5313,948.2133 L369.9219,941.3398 L370.3125,943.2386 L370.7031,892.1646 L371.0938,750 L371.4844,946.2272 L371.875,948.7785 L372.2656,932.121 L372.6563,931.7576 L373.0469,948.4766 L373.4375,879.2544 L373.8281,936.9229 L374.2188,924.6058 L374.6094,941.5788 L375,846.6178 L375.3906,836.4704 L375.7813,943.4647 L376.1719,948.4937 L376.5625,879.4047 L376.9532,857.5345 L377.3438,874.3613 L377.7344,897.9979 L378.125,886.2922 L378.5156,884.5281 L378.9063,861.7502 L379.2969,946.4485 L379.6875,907.6064 L380.0781,911.9263 L380.4688,923.5366 L380.8594,891.3248 L381.25,946.1151 L381.6406,933.3704 L382.0313,894.5319 L382.4219,933.848 L382.8125,838.5131 L383.2031,877.0541 L383.5938,931.2795 L383.9844,900.2712 L384.375,949.0294 L384.7657,943.8219 L385.1563,928.972 L385.5469,918.7846 L385.9375,936.6099 L386.3281,949.004 L386.7188,939.188 L387.1094,945.3838 L387.5,946.5755 L387.8906,840.028 L388.2813,936.1747 L388.6719,947.5616 L389.0625,946.3289 L389.4531,919.9028 L389.8438,945.8809 L390.2344,905.5593 L390.625,922.0531 L391.0156,938.5499 L391.4063,941.3964 L391.7969,941.3895 L392.1875,943.462 L392.5782,939.7811 L392.9688,940.2961 L393.3594,941.0886 L393.75,946.4233 L394.1406,936.7209 L394.5313,941.8788 L394.9219,934.5034 L395.3125,938.0251 L395.7031,944.9631 L396.0938,922.0666 L396.4844,830.1235 L396.875,893.6957 L397.2656,939.4055 L397.6563,949.1254 L398.0469,885.9352 L398.4375,945.3813 L398.8281,835.5704 L399.2188,943.9811 L399.6094,864.137 L400,887.8087 L400.3907,820.9277 L400.7813,924.5845 L401.1719,928.3723 L401.5625,946.9784 L401.9531,939.364 L402.3438,946.6015 L402.7344,944.0338 L403.125,946.157 L403.5156,939.2556 L403.9063,889.045 L404.2969,946.7818 L404.6875,848.1295 L405.0781,916.2708 L405.4688,946.3778 L405.8594,948.6166 L406.25,846.7894 L406.6406,915.2934 L407.0313,947.033 L407.4219,946.1296 L407.8125,891.1159 L408.2032,938.4202 L408.5938,944.907 L408.9844,947.8496 L409.375,930.4045 L409.7656,948.1957 L410.1563,931.7937 L410.5469,919.4403 L410.9375,925.5939 L411.3281,859.1766 L411.7188,874.4457 L412.1094,880.4266 L412.5,896.9346 L412.8906,949.2803 L413.2813,937.0347 L413.6719,927.619 L414.0625,947.9042 L414.4531,891.6611 L414.8438,938.1904 L415.2344,945.9847 L415.625,948.7288 L416.0157,857.974 L416.4063,865.2787 L416.7969,945.9175 L417.1875,928.9099 L417.5781,849.8151 L417.9688,945.5449 L418.3594,933.6984 L418.75,943.2423 L419.1406,819.0729 L419.5313,882.8808 L419.9219,935.9794 L420.3125,942.7945 L420.7031,876.6516 L421.0938,895.5999 L421.4844,900.2249 L421.875,934.6638 L422.2656,922.976 L422.6563,927.5347 L423.0469,946.7538 L423.4375,912.2645 L423.8282,948.6918 L424.2188,918.1556 L424.6094,863.243 L425,945.6047 L425.3906,863.5318 L425.7813,940.8381 L426.1719,927.6892 L426.5625,941.6777 L426.9531,905.8882 L427.3438,820.9819 L427.7344,922.1573 L428.125,941.7698 L428.5156,919.4357 L428.9063,849.4178 L429.2969,932.9651 L429.6875,944.1947 L430.0781,835.524 L430.4688,857.9057 " stroke="blue" fill="none" />
<text x="50" y="1000" font-family="Arial" font-size="12" fill="black">Episode Length (975)</text>
<text x="50" y="1015" font-family="Arial" font-size="10" fill="black">644</text>
<text x="50" y="1230" font-family="Arial" font-size="10" fill="black">7</text>
<path d="M50,1219.686 L50.39063,1218.744 L50.78125,1218.744 L51.17188,1218.43 L51.5625,1218.116 L51.95313,1217.488 L52.34375,1217.488 L52.73438,1217.174 L53.125,1216.86 L53.51563,1216.86 L53.90625,1216.546 L54.29688,1216.232 L54.6875,1216.232 L55.07813,1216.232 L55.46875,1216.232 L55.85938,1216.232 L56.25,1215.918 L56.64063,1215.604 L57.03125,1215.604 L57.42188,1215.29 L57.8125,1215.29 L58.20313,1214.976 L58.59375,1214.349 L58.98438,1214.349 L59.375,1214.349 L59.76563,1214.035 L60.15625,1214.035 L60.54688,1213.721 L60.9375,1215.918 L61.32813,1212.465 L61.71875,1212.465 L62.10938,1212.151 L62.5,1212.151 L62.89063,1217.174 L63.28125,1211.523 L63.67188,1211.209 L64.0625,1210.267 L64.45313,1209.953 L64.84375,1209.011 L65.23438,1208.697 L65.625,1217.802 L66.01563,1208.069 L66.40625,1217.802 L66.79688,1217.174 L67.1875,1209.639 L67.57813,1207.127 L67.96875,1210.267 L68.35938,1206.499 L68.75,1214.035 L69.14063,1213.721 L69.53125,1213.721 L69.92188,1218.744 L70.3125,1215.918 L70.70313,1215.918 L71.09375,1204.615 L71.48438,1217.488 L71.875,1208.697 L72.26563,1201.79 L72.65625,1209.325 L73.04688,1206.185 L73.4375,1215.918 L73.82813,1200.848 L74.21875,1200.848 L74.60938,1214.035 L75,1199.906 L75.39063,1199.278 L75.78125,1215.29 L76.17188,1198.964 L76.5625,1197.708 L76.95313,1197.08 L77.34375,1197.08 L77.73438,1213.721 L78.125,1196.766 L78.51563,1202.104 L78.90625,1196.138 L79.29688,1195.824 L79.6875,1214.976 L80.07813,1210.581 L80.46875,1215.604 L80.85938,1210.895 L81.25,1208.383 L81.64063,1193.312 L82.03125,1217.802 L82.42188,1214.976 L82.8125,1213.721 L83.20313,1201.476 L83.59375,1216.86 L83.98438,1208.697 L84.375,1189.859 L84.76563,1189.859 L85.15625,1189.545 L85.54688,1215.604 L85.9375,1194.882 L86.32813,1213.407 L86.71875,1214.662 L87.10938,1206.185 L87.5,1192.057 L87.89063,1194.254 L88.28125,1218.116 L88.67188,1187.347 L89.0625,1187.033 L89.45313,1192.057 L89.84375,1211.837 L90.23438,1202.104 L90.625,1186.091 L91.01563,1185.777 L91.40625,1191.429 L91.79688,1185.463 L92.1875,1214.349 L92.57813,1189.859 L92.96875,1208.069 L93.35938,1210.267 L93.75,1194.568 L94.14063,1217.174 L94.53125,1204.301 L94.92188,1218.116 L95.3125,1209.953 L95.70313,1215.604 L96.09375,1181.381 L96.48438,1202.732 L96.875,1209.325 L97.26563,1180.126 L97.65625,1212.151 L98.04688,1200.534 L98.4375,1214.662 L98.82813,1213.721 L99.21875,1215.29 L99.60938,1211.523 L100,1177.928 L100.3906,1215.918 L100.7813,1213.721 L101.1719,1192.998 L101.5625,1198.022 L101.9531,1183.893 L102.3438,1189.231 L102.7344,1208.697 L103.125,1217.488 L103.5156,1215.604 L103.9063,1217.802 L104.2969,1214.662 L104.6875,1214.976 L105.0781,1181.695 L105.4688,1187.661 L105.8594,1206.185 L106.25,1175.416 L106.6406,1218.43 L107.0313,1189.545 L107.4219,1176.358 L107.8125,1209.011 L108.2031,1168.509 L108.5938,1202.732 L108.9844,1215.604 L109.375,1219.372 L109.7656,1210.267 L110.1563,1174.16 L110.5469,1170.078 L110.9375,1203.046 L111.3281,1216.546 L111.7188,1217.488 L112.1094,1197.394 L112.5,1164.741 L112.8906,1180.754 L113.2813,1210.581 L113.6719,1171.02 L114.0625,1198.964 L114.4531,1202.732 L114.8438,1188.603 L115.2344,1169.451 L115.625,1205.871 L116.0156,1205.243 L116.4063,1217.802 L116.7969,1208.383 L117.1875,1167.881 L117.5781,1214.349 L117.9688,1188.289 L118.3594,1215.918 L118.75,1218.116 L119.1406,1196.452 L119.5313,1217.174 L119.9219,1219.058 L120.3125,1214.976 L120.7031,1215.604 L121.0938,1202.418 L121.4844,1217.488 L121.875,1215.604 L122.2656,1215.604 L122.6563,1157.52 L123.0469,1189.545 L123.4375,1216.86 L123.8281,1156.264 L124.2188,1203.046 L124.6094,1155.322 L125,1180.126 L125.3906,1154.694 L125.7813,1212.151 L126.1719,1153.752 L126.5625,1217.174 L126.9531,1218.116 L127.3438,1206.499 L127.7344,1204.615 L128.125,1215.604 L128.5156,1184.521 L128.9063,1214.662 L129.2969,1212.779 L129.6875,1181.068 L130.0781,1212.465 L130.4688,1194.568 L130.8594,1213.721 L131.25,1204.301 L131.6406,1214.035 L132.0313,1208.069 L132.4219,1187.347 L132.8125,1200.848 L133.2031,1201.162 L133.5938,1193.626 L133.9844,1171.962 L134.375,1215.604 L134.7656,1217.802 L135.1563,1203.987 L135.5469,1172.904 L135.9375,1149.67 L136.3281,1218.43 L136.7188,1212.465 L137.1094,1182.323 L137.5,1196.452 L137.8906,1208.697 L138.2813,1208.383 L138.6719,1213.407 L139.0625,1215.29 L139.4531,1215.604 L139.8438,1217.488 L140.2344,1218.116 L140.625,1184.835 L141.0156,1171.648 L141.4063,1138.053 L141.7969,1219.058 L142.1875,1143.705 L142.5781,1173.218 L142.9688,1167.253 L143.3594,1209.953 L143.75,1175.102 L144.1406,1197.08 L144.5313,1202.732 L144.9219,1213.093 L145.3125,1146.531 L145.7031,1212.779 L146.0938,1175.102 L146.4844,1168.509 L146.875,1216.232 L147.2656,1212.779 L147.6563,1211.837 L148.0469,1208.069 L148.4375,1186.091 L148.8281,1171.02 L149.2188,1213.407 L149.6094,1133.658 L150,1151.868 L150.3906,1218.116 L150.7813,1192.684 L151.1719,1191.743 L151.5625,1142.763 L151.9531,1186.405 L152.3438,1187.347 L152.7344,1192.057 L153.125,1124.553 L153.5156,1216.232 L153.9063,1216.232 L154.2969,1180.44 L154.6875,1191.115 L155.0781,1198.964 L155.4688,1184.207 L155.8594,1193.626 L156.25,1215.918 L156.6406,1214.035 L157.0313,1215.604 L157.4219,1166.311 L157.8125,1214.035 L158.2031,1202.418 L158.5938,1205.557 L158.9844,1150.926 L159.375,1211.523 L159.7656,1209.011 L160.1563,1172.59 L160.5469,1213.721 L160.9375,1163.485 L161.3281,1210.581 L161.7188,1116.075 L162.1094,1208.069 L162.5,1212.465 L162.8906,1148.414 L163.2813,1114.505 L163.6719,1146.531 L164.0625,1214.035 L164.4531,1168.509 L164.8438,1204.301 L165.2344,1193.626 L165.625,1156.264 L166.0156,1161.601 L166.4063,1214.662 L166.7969,1185.149 L167.1875,1184.207 L167.5781,1179.498 L167.9688,1214.349 L168.3594,1108.226 L168.75,1194.882 L169.1406,1155.636 L169.5313,1187.033 L169.9219,1214.035 L170.3125,1198.022 L170.7031,1146.531 L171.0938,1210.895 L171.4844,1206.499 L171.875,1104.458 L172.2656,1213.721 L172.6563,1209.325 L173.0469,1213.721 L173.4375,1202.732 L173.8281,1217.802 L174.2188,1212.465 L174.6094,1215.604 L175,1216.86 L175.3906,1214.976 L175.7813,1218.116 L176.1719,1211.837 L176.5625,1109.482 L176.9531,1211.523 L177.3438,1117.331 L177.7344,1186.719 L178.125,1215.29 L178.5156,1199.906 L178.9063,1196.452 L179.2969,1214.662 L179.6875,1171.334 L180.0781,1210.581 L180.4688,1217.488 L180.8594,1217.174 L181.25,1215.29 L181.6406,1165.369 L182.0313,1153.124 L182.4219,1201.162 L182.8125,1216.86 L183.2031,1159.089 L183.5938,1206.813 L183.9844,1197.708 L184.375,1188.289 L184.7656,1198.022 L185.1563,1188.603 L185.5469,1183.893 L185.9375,1155.95 L186.3281,1196.766 L186.7188,1169.451 L187.1094,1191.115 L187.5,1200.534 L187.8906,1182.637 L188.2813,1206.499 L188.6719,1160.973 L189.0625,1144.961 L189.4531,1213.093 L189.8438,1218.43 L190.2344,1156.892 L190.625,1174.16 L191.0156,1202.732 L191.4063,1210.581 L191.7969,1219.372 L192.1875,1163.799 L192.5781,1163.799 L192.9688,1175.102 L193.3594,1177.3 L193.75,1186.091 L194.1406,1211.523 L194.5313,1111.994 L194.9219,1200.848 L195.3125,1174.474 L195.7031,1194.568 L196.0938,1205.871 L196.4844,1213.721 L196.875,1202.732 L197.2656,1133.03 L197.6563,1206.499 L198.0469,1216.546 L198.4375,1198.65 L198.8281,1171.962 L199.2188,1213.721 L199.6094,1070.863 L200,1212.151 L200.3906,1070.549 L200.7813,1216.232 L201.1719,1147.473 L201.5625,1207.755 L201.9531,1179.498 L202.3438,1217.488 L202.7344,1215.604 L203.125,1218.116 L203.5156,1184.521 L203.9063,1182.951 L204.2969,1217.488 L204.6875,1213.721 L205.0781,1218.744 L205.4688,1153.124 L205.8594,1204.929 L206.25,1218.116 L206.6406,1149.042 L207.0313,1161.601 L207.4219,1215.29 L207.8125,1215.604 L208.2031,1215.29 L208.5938,1214.035 L208.9844,1213.721 L209.375,1218.116 L209.7656,1138.995 L210.1563,1177.928 L210.5469,1182.009 L210.9375,1202.418 L211.3281,1208.383 L211.7188,1172.904 L212.1094,1176.672 L212.5,1059.874 L212.8906,1190.487 L213.2813,1205.557 L213.6719,1198.022 L214.0625,1125.808 L214.4531,1216.86 L214.8438,1216.232 L215.2344,1188.603 L215.625,1071.491 L216.0156,1214.662 L216.4063,1218.43 L216.7969,1198.964 L217.1875,1154.38 L217.5781,1200.22 L217.9688,1209.953 L218.3594,1215.918 L218.75,1133.344 L219.1406,1207.441 L219.5313,1209.325 L219.9219,1212.465 L220.3125,1184.207 L220.7031,1215.29 L221.0938,1201.162 L221.4844,1149.042 L221.875,1187.033 L222.2656,1208.069 L222.6563,1215.29 L223.0469,1210.267 L223.4375,1112.308 L223.8281,1213.407 L224.2188,1213.721 L224.6094,1151.554 L225,1192.37 L225.3906,1206.185 L225.7813,1182.323 L226.1719,1215.918 L226.5625,1150.298 L226.9531,1217.488 L227.3438,1192.057 L227.7344,1178.87 L228.125,1193.626 L228.5156,1217.488 L228.9063,1183.265 L229.2969,1210.895 L229.6875,1203.359 L230.0781,1215.604 L230.4688,1212.151 L230.8594,1203.987 L231.25,1212.465 L231.6406,1143.077 L232.0313,1217.488 L232.4219,1218.43 L232.8125,1198.964 L233.2031,1105.714 L233.5938,1124.553 L233.9844,1211.209 L234.375,1144.019 L234.7656,1200.848 L235.1563,1212.151 L235.5469,1196.766 L235.9375,1201.162 L236.3281,1210.895 L236.7188,1209.953 L237.1094,1104.458 L237.5,1159.403 L237.8906,1214.349 L238.2813,1216.232 L238.6719,1189.859 L239.0625,1104.772 L239.4531,1174.788 L239.8438,1217.488 L240.2344,1213.721 L240.625,1180.754 L241.0156,1216.232 L241.4063,1215.604 L241.7969,1115.447 L242.1875,1189.545 L242.5781,1203.046 L242.9688,1163.799 L243.3594,1198.65 L243.75,1184.207 L244.1406,1213.407 L244.5313,1180.126 L244.9219,1218.116 L245.3125,1209.639 L245.7031,1193.94 L246.0938,1084.364 L246.4844,1154.694 L246.875,1159.717 L247.2656,1158.148 L247.6563,1214.976 L248.0469,1213.721 L248.4375,1152.496 L248.8281,1178.242 L249.2188,1154.38 L249.6094,1217.488 L250,1179.812 L250.3906,1204.615 L250.7813,1211.209 L251.1719,1122.355 L251.5625,1212.151 L251.9531,1173.218 L252.3438,1088.76 L252.7344,1210.581 L253.125,1216.86 L253.5156,1218.744 L253.9063,1168.823 L254.2969,1212.465 L254.6875,1218.116 L255.0781,1217.174 L255.4688,1180.126 L255.8594,1190.801 L256.25,1155.322 L256.6406,1212.151 L257.0313,1216.232 L257.4219,1193.312 L257.8125,1199.906 L258.2031,1216.86 L258.5938,1215.604 L258.9844,1217.802 L259.375,1139.937 L259.7656,1149.984 L260.1563,1217.488 L260.5469,1203.987 L260.9375,1159.403 L261.3281,1200.848 L261.7188,1069.922 L262.1094,1213.093 L262.5,1217.488 L262.8906,1160.345 L263.2813,1198.65 L263.6719,1213.721 L264.0625,1178.556 L264.4531,1168.823 L264.8438,1181.381 L265.2344,1196.452 L265.625,1179.498 L266.0156,1208.383 L266.4063,1214.349 L266.7969,1200.848 L267.1875,1088.446 L267.5781,1188.603 L267.9688,1209.011 L268.3594,1196.766 L268.75,1096.923 L269.1406,1200.848 L269.5313,1201.476 L269.9219,1218.116 L270.3125,1218.744 L270.7031,1207.441 L271.0938,1215.918 L271.4844,1069.608 L271.875,1165.997 L272.2656,1212.779 L272.6563,1208.697 L273.0469,1211.523 L273.4375,1121.727 L273.8281,1217.802 L274.2188,1109.796 L274.6094,1099.121 L275,1162.857 L275.3906,1174.16 L275.7813,1156.892 L276.1719,1218.116 L276.5625,1206.813 L276.9531,1203.673 L277.3438,1133.972 L277.7344,1161.915 L278.125,1214.035 L278.5156,1191.115 L278.9063,1214.349 L279.2969,1162.543 L279.6875,1182.951 L280.0781,1219.058 L280.4688,1213.093 L280.8594,1168.823 L281.25,1193.312 L281.6406,1192.998 L282.0313,1162.857 L282.4219,1167.881 L282.8125,1180.126 L283.2031,1205.557 L283.5938,1187.661 L283.9844,1172.904 L284.375,1211.523 L284.7656,1173.846 L285.1563,1215.918 L285.5469,1210.895 L285.9375,1216.546 L286.3281,1215.29 L286.7188,1142.135 L287.1094,1176.986 L287.5,1202.104 L287.8906,1213.407 L288.2813,1206.185 L288.6719,1171.648 L289.0625,1217.174 L289.4531,1219.058 L289.8438,1217.802 L290.2344,1197.394 L290.625,1155.008 L291.0156,1197.08 L291.4063,1204.615 L291.7969,1168.509 L292.1875,1215.29 L292.5781,1204.929 L292.9688,1177.3 L293.3594,1182.637 L293.75,1121.727 L294.1406,1198.336 L294.5313,1147.473 L294.9219,1128.32 L295.3125,1217.174 L295.7031,1214.662 L296.0938,1149.356 L296.4844,1171.02 L296.875,1147.159 L297.2656,1116.389 L297.6563,1204.301 L298.0469,1196.452 L298.4375,1160.659 L298.8281,1199.592 L299.2188,1217.802 L299.6094,1195.196 L300,1186.719 L300.3906,1212.465 L300.7813,1176.358 L301.1719,1184.835 L301.5625,1201.476 L301.9531,1218.116 L302.3438,1216.546 L302.7344,1213.721 L303.125,1210.895 L303.5156,1156.892 L303.9063,1191.429 L304.2969,1217.802 L304.6875,1161.915 L305.0781,1203.046 L305.4688,1216.546 L305.8594,1198.022 L306.25,1133.972 L306.6407,1201.162 L307.0313,1217.488 L307.4219,1203.987 L307.8125,1198.964 L308.2031,1209.325 L308.5938,1145.275 L308.9844,1214.035 L309.375,1205.871 L309.7656,1179.184 L310.1563,1211.837 L310.5469,1174.16 L310.9375,1218.43 L311.3281,1106.97 L311.7188,1190.801 L312.1094,1220 L312.5,1214.662 L312.8906,1194.254 L313.2813,1212.779 L313.6719,1207.441 L314.0625,1217.488 L314.4532,1152.182 L314.8438,1216.546 L315.2344,1089.702 L315.625,1145.275 L316.0156,1206.813 L316.4063,1214.349 L316.7969,1192.057 L317.1875,1161.601 L317.5781,1216.232 L317.9688,1208.697 L318.3594,1204.301 L318.75,1118.901 L319.1406,1218.116 L319.5313,1196.766 L319.9219,1191.743 L320.3125,1216.546 L320.7031,1184.521 L321.0938,1214.035 L321.4844,1163.485 L321.875,1213.721 L322.2657,1176.986 L322.6563,1195.824 L323.0469,1216.232 L323.4375,1208.383 L323.8281,1171.962 L324.2188,1216.232 L324.6094,1207.127 L325,1192.057 L325.3906,1209.639 L325.7813,1190.173 L326.1719,1203.359 L326.5625,1186.091 L326.9531,1216.232 L327.3438,1212.151 L327.7344,1212.465 L328.125,1133.344 L328.5156,1216.232 L328.9063,1156.578 L329.2969,1193.94 L329.6875,1211.837 L330.0782,1190.487 L330.4688,1216.232 L330.8594,1217.802 L331.25,1217.488 L331.6406,1172.59 L332.0313,1217.488 L332.4219,1098.493 L332.8125,1213.721 L333.2031,1216.546 L333.5938,1172.904 L333.9844,1171.648 L334.375,1205.243 L334.7656,1150.612 L335.1563,1181.068 L335.5469,1212.151 L335.9375,1150.298 L336.3281,1215.604 L336.7188,1082.166 L337.1094,1187.347 L337.5,1215.604 L337.8907,1180.126 L338.2813,1179.498 L338.6719,1104.772 L339.0625,1199.906 L339.4531,1156.892 L339.8438,1167.253 L340.2344,1190.173 L340.625,1176.672 L341.0156,1216.232 L341.4063,1152.182 L341.7969,1217.488 L342.1875,1196.138 L342.5781,1179.812 L342.9688,1175.73 L343.3594,1218.116 L343.75,1215.918 L344.1406,1189.231 L344.5313,1187.661 L344.9219,1196.766 L345.3125,1203.046 L345.7032,1104.458 L346.0938,1200.848 L346.4844,1216.86 L346.875,1213.721 L347.2656,1155.322 L347.6563,1217.802 L348.0469,1085.62 L348.4375,1197.08 L348.8281,1216.232 L349.2188,1172.904 L349.6094,1196.138 L350,1143.705 L350.3906,1198.022 L350.7813,1203.359 L351.1719,1190.487 L351.5625,1214.349 L351.9531,1208.383 L352.3438,1203.987 L352.7344,1214.662 L353.125,1215.604 L353.5157,1090.016 L353.9063,1217.488 L354.2969,1214.349 L354.6875,1214.035 L355.0781,1190.487 L355.4688,1202.104 L355.8594,1116.703 L356.25,1157.52 L356.6406,1216.232 L357.0313,1215.604 L357.4219,1122.041 L357.8125,1165.055 L358.2031,1167.567 L358.5938,1202.732 L358.9844,1117.959 L359.375,1199.278 L359.7656,1213.721 L360.1563,1069.608 L360.5469,1094.097 L360.9375,1215.604 L361.3282,1202.418 L361.7188,1213.407 L362.1094,1215.918 L362.5,1110.11 L362.8906,1158.462 L363.2813,1214.035 L363.6719,1194.254 L364.0625,1027.221 L364.4531,1212.779 L364.8438,1193.312 L365.2344,1196.766 L365.625,1204.929 L366.0156,1187.975 L366.4063,1218.116 L366.7969,1201.476 L367.1875,1217.174 L367.5781,1215.604 L367.9688,1216.86 L368.3594,1206.185 L368.75,1195.196 L369.1407,1191.115 L369.5313,1217.488 L369.9219,1211.209 L370.3125,1212.779 L370.7031,1160.973 L371.0938,1020 L371.4844,1215.918 L371.875,1219.372 L372.2656,1202.418 L372.6563,1201.476 L373.0469,1217.488 L373.4375,1149.984 L373.8281,1207.441 L374.2188,1193.94 L374.6094,1211.209 L375,1115.447 L375.3906,1110.424 L375.7813,1213.407 L376.1719,1217.488 L376.5625,1150.298 L376.9532,1127.378 L377.3438,1141.193 L377.7344,1166.625 L378.125,1155.322 L378.5156,1153.752 L378.9063,1127.378 L379.2969,1216.546 L379.6875,1178.556 L380.0781,1183.579 L380.4688,1195.196 L380.8594,1160.031 L381.25,1215.29 L381.6406,1204.615 L382.0313,1164.113 L382.4219,1203.987 L382.8125,1111.68 L383.2031,1148.728 L383.5938,1200.534 L383.9844,1172.276 L384.375,1219.372 L384.7657,1213.407 L385.1563,1194.254 L385.5469,1188.917 L385.9375,1206.813 L386.3281,1214.976 L386.7188,1209.325 L387.1094,1215.29 L387.5,1214.976 L387.8906,1112.622 L388.2813,1206.813 L388.6719,1218.116 L389.0625,1215.29 L389.4531,1191.115 L389.8438,1216.232 L390.2344,1177.928 L390.625,1193.312 L391.0156,1209.325 L391.4063,1211.209 L391.7969,1212.151 L392.1875,1214.035 L392.5782,1210.267 L392.9688,1208.383 L393.3594,1212.151 L393.75,1216.546 L394.1406,1207.755 L394.5313,1212.151 L394.9219,1204.615 L395.3125,1208.069 L395.7031,1214.035 L396.0938,1184.207 L396.4844,1098.179 L396.875,1160.659 L397.2656,1209.011 L397.6563,1217.802 L398.0469,1153.438 L398.4375,1215.918 L398.8281,1105.4 L399.2188,1214.035 L399.6094,1133.344 L400,1154.694 L400.3907,1091.9 L400.7813,1194.882 L401.1719,1195.196 L401.5625,1213.407 L401.9531,1209.639 L402.3438,1215.29 L402.7344,1214.035 L403.125,1215.604 L403.5156,1209.953 L403.9063,1161.601 L404.2969,1216.86 L404.6875,1118.273 L405.0781,1185.149 L405.4688,1212.151 L405.8594,1217.802 L406.25,1117.331 L406.6406,1187.347 L407.0313,1217.488 L407.4219,1215.604 L407.8125,1160.973 L408.2032,1207.441 L408.5938,1214.035 L408.9844,1217.488 L409.375,1201.79 L409.7656,1217.488 L410.1563,1203.359 L410.5469,1187.975 L410.9375,1195.196 L411.3281,1128.634 L411.7188,1144.961 L412.1094,1148.414 L412.5,1168.823 L412.8906,1218.744 L413.2813,1207.441 L413.6719,1198.022 L414.0625,1217.488 L414.4531,1162.543 L414.8438,1208.069 L415.2344,1217.488 L415.625,1217.802 L416.0157,1132.402 L416.4063,1136.797 L416.7969,1216.232 L417.1875,1199.906 L417.5781,1119.215 L417.9688,1216.546 L418.3594,1203.673 L418.75,1213.407 L419.1406,1090.644 L419.5313,1157.206 L419.9219,1205.871 L420.3125,1213.721 L420.7031,1147.786 L421.0938,1162.543 L421.4844,1171.334 L421.875,1204.301 L422.2656,1194.568 L422.6563,1197.394 L423.0469,1215.604 L423.4375,1179.812 L423.8282,1217.174 L424.2188,1188.289 L424.6094,1136.17 L425,1217.174 L425.3906,1133.03 L425.7813,1211.209 L426.1719,1197.08 L426.5625,1210.895 L426.9531,1175.102 L427.3438,1092.841 L427.7344,1193.312 L428.125,1212.151 L428.5156,1189.859 L428.9063,1118.901 L429.2969,1202.418 L429.6875,1214.035 L430.0781,1111.052 L430.4688,1126.436 " stroke="blue" fill="none" />
<text x="50" y="1270" font-family="Arial" font-size="12" fill="black">Policy Loss</text>
<text x="50" y="1285" font-family="Arial" font-size="10" fill="black">0.7403511</text>
<text x="50" y="1500" font-family="Arial" font-size="10" fill="black">0.7093511</text>
<path d="M50,1290 L75,1436.825 L100,1450.085 L125,1490 L150,1452.936 " stroke="blue" fill="none" />
<text x="50" y="1540" font-family="Arial" font-size="12" fill="black">Value Loss</text>
<text x="50" y="1555" font-family="Arial" font-size="10" fill="black">0.01992787</text>
<text x="50" y="1770" font-family="Arial" font-size="10" fill="black">0.01713233</text>
<path d="M50,1560.001 L75,1759.313 L100,1725.991 L125,1760 L150,1746.433 " stroke="blue" fill="none" />
<text x="50" y="1810" font-family="Arial" font-size="12" fill="black">Learning Rate</text>
<text x="50" y="1825" font-family="Arial" font-size="10" fill="black">9.9999E-05</text>
<text x="50" y="2040" font-family="Arial" font-size="10" fill="black">9.9995E-05</text>
<path d="M50,1972.839 L75,1987.181 L100,2001.42 L125,2015.762 L150,2030 " stroke="blue" fill="none" />
<text x="50" y="2080" font-family="Arial" font-size="12" fill="black">Entropy</text>
<text x="50" y="2095" font-family="Arial" font-size="10" fill="black">3.038989</text>
<text x="50" y="2310" font-family="Arial" font-size="10" fill="black">3.019995</text>
<path d="M50,2300 L75,2101.25 L100,2100.005 L125,2100 L150,2100 " stroke="blue" fill="none" />
<text x="750" y="730" font-family="Arial" font-size="12" fill="black">Simplified</text>
<text x="750" y="745" font-family="Arial" font-size="10" fill="black">3.589326</text>
<text x="750" y="960" font-family="Arial" font-size="10" fill="black">0.1639416</text>
<path d="M757.0313,950 L764.4531,938.9971 L771.875,938.0087 L779.2969,902.5897 L786.7188,917.2029 L794.1406,888.1976 L801.5625,905.8342 L808.9844,890.9588 L816.4063,876.0789 L823.8281,900.2621 L831.25,881.1821 L838.6719,887.4497 L846.0938,856.2244 L853.5156,840.8992 L860.9375,876.8748 L868.3594,803.5893 L875.7813,882.9556 L883.2031,853.0264 L890.625,839.2711 L898.0469,848.4774 L905.4688,836.5977 L912.8906,841.485 L920.3125,850.803 L927.7344,857.1671 L935.1563,859.2071 L942.5781,841.0539 L950,820.7667 L957.4219,859.4879 L964.8438,838.9202 L972.2656,834.0696 L979.6875,806.644 L987.1094,858.8952 L994.5313,857.3779 L1001.953,836.6949 L1009.375,875.6738 L1016.797,847.6316 L1024.219,874.0583 L1031.641,881.9301 L1039.063,812.2054 L1046.484,847.6427 L1053.906,844.7108 L1061.328,799.189 L1068.75,853.5691 L1076.172,833.5748 L1083.594,781.1737 L1091.016,888.4576 L1098.438,887.7173 L1105.859,833.7915 L1113.281,846.1866 L1120.703,827.3159 L1128.125,836.9706 L1130.469,750 " stroke="blue" fill="none" />
<text x="750" y="1000" font-family="Arial" font-size="12" fill="black">Simplified</text>
<text x="750" y="1015" font-family="Arial" font-size="10" fill="black">196.6667</text>
<text x="750" y="1230" font-family="Arial" font-size="10" fill="black">16.31579</text>
<path d="M757.0313,1220 L764.4531,1207.218 L771.875,1203.366 L779.2969,1170.623 L786.7188,1184.805 L794.1406,1154.864 L801.5625,1176.051 L808.9844,1158.483 L816.4063,1145.584 L823.8281,1168.521 L831.25,1148.385 L838.6719,1155.448 L846.0938,1121.887 L853.5156,1108.638 L860.9375,1144.766 L868.3594,1074.377 L875.7813,1151.012 L883.2031,1120.778 L890.625,1110.389 L898.0469,1117.043 L905.4688,1105.895 L912.8906,1110.506 L920.3125,1119.144 L927.7344,1124.864 L935.1563,1127.957 L942.5781,1110.331 L950,1090.895 L957.4219,1126.79 L964.8438,1108.346 L972.2656,1102.101 L979.6875,1076.42 L987.1094,1127.607 L994.5313,1125.798 L1001.953,1103.56 L1009.375,1144.241 L1016.797,1115.992 L1024.219,1140.039 L1031.641,1151.479 L1039.063,1077.004 L1046.484,1115.35 L1053.906,1114.125 L1061.328,1066.206 L1068.75,1122.471 L1076.172,1101.984 L1083.594,1049.047 L1091.016,1157.899 L1098.438,1154.222 L1105.859,1100.058 L1113.281,1115.175 L1120.703,1099.241 L1128.125,1105.778 L1130.469,1020 " stroke="blue" fill="none" />
</svg>
