<svg width="2000" height="2500" xmlns="http://www.w3.org/2000/svg">
<text x="10" y="20" font-family="Arial" font-size="26" fill="black"> [<tspan font-weight="bold" fill="blue">Walker</tspan>] Training Session</text>
<text x="10" y="50" font-family="Arial" font-size="16" fill="black">[Statistics]</text>
<text x="50" y="70" font-family="Arial" font-size="12" fill="black">Started at: 10:59:49 AM, Saturday, April 27, 2024</text>
<text x="50" y="90" font-family="Arial" font-size="12" fill="black">Finished at: 11:05:53 AM, Saturday, April 27, 2024</text>
<text x="50" y="110" font-family="Arial" font-size="12" fill="black">Training Session Time: 0 hrs : 6 min : 1 sec</text>
<text x="50" y="130" font-family="Arial" font-size="12" fill="black">Inference Time: 4 hrs : 28 min : 25 sec        [Device: CPU]</text>
<text x="50" y="150" font-family="Arial" font-size="12" fill="black">Update Time: 0 hrs : 1 min : 51 sec        [Per iteration: 0 hrs : 0 min : 11.586 sec]        [Device: GPU]</text>
<text x="50" y="170" font-family="Arial" font-size="12" fill="black">Episode Count: 1346</text>
<text x="50" y="190" font-family="Arial" font-size="12" fill="black">Inference Steps: 160000</text>
<text x="50" y="210" font-family="Arial" font-size="12" fill="black">Iterations: 8</text>
<text x="50" y="230" font-family="Arial" font-size="12" fill="black">Parallel Agents: 82</text>
<text x="50" y="250" font-family="Arial" font-size="12" fill="black">Timescale: 1</text>
<text x="50" y="270" font-family="Arial" font-size="12" fill="black">Trainer: PPO</text>
<text x="10" y="320" font-family="Arial" font-size="16" fill="black">[Hyperparameters]</text>
<text x="50" y="340" font-family="Arial" font-size="12" fill="black">Buffer Size: 20000        [Batch Size: 1000       (x20)]</text>
<text x="50" y="360" font-family="Arial" font-size="12" fill="black">Num Epoch: 8</text>
<text x="50" y="380" font-family="Arial" font-size="12" fill="black">Time Horizon: 256</text>
<text x="50" y="400" font-family="Arial" font-size="12" fill="black">Gradient Cliping by Norm: 0.5</text>
<text x="50" y="420" font-family="Arial" font-size="12" fill="black">Learning Rate Schedule: True    </text>
<text x="10" y="470" font-family="Arial" font-size="16" fill="black">[Behaviour]</text>
<text x="50" y="490" font-family="Arial" font-size="12" fill="black">Space Size: 120</text>
<text x="50" y="510" font-family="Arial" font-size="12" fill="black">Continuous Actions: 36 [Standard Deviation: Fixed]     [Value: 3]</text>
<text x="50" y="530" font-family="Arial" font-size="12" fill="black">Discrete Actions: 0</text>
<text x="50" y="550" font-family="Arial" font-size="12" fill="black">TargetFPS: 100 (physics update rate)</text>
<text x="50" y="570" font-family="Arial" font-size="12" fill="black">Observations Normalization: True</text>
<text x="10" y="620" font-family="Arial" font-size="16" fill="black">[Decision Requester]</text>
<text x="50" y="640" font-family="Arial" font-size="12" fill="black">Max Step: 2000</text>
<text x="50" y="660" font-family="Arial" font-size="12" fill="black">Decision Period: 10      [Actions Between Decisions: True]</text>
<text x="10" y="710" font-family="Arial" font-size="16" fill="black">[Graphs]</text>
<text x="50" y="730" font-family="Arial" font-size="12" fill="black">Episode Reward (1346)</text>
<text x="50" y="745" font-family="Arial" font-size="10" fill="black">20.74914</text>
<text x="50" y="960" font-family="Arial" font-size="10" fill="black">0.0119424</text>
<path d="M50,949.5042 L50.19531,949.8358 L50.39063,949.1974 L50.58594,949.444 L50.78125,948.5155 L50.97656,949.22 L51.17188,949.3361 L51.36719,949.4482 L51.5625,949.2264 L51.75781,949.2698 L51.95313,948.3472 L52.14844,948.1836 L52.34375,948.176 L52.53906,947.7822 L52.73438,947.3808 L52.92969,947.3602 L53.125,947.0646 L53.32031,947.5823 L53.51563,946.5181 L53.71094,946.2632 L53.90625,946.3374 L54.10156,947.5518 L54.29688,944.9824 L54.49219,948.6778 L54.6875,945.6213 L54.88281,948.5444 L55.07813,945.3151 L55.27344,945.6211 L55.46875,946.9228 L55.66406,943.9648 L55.85938,946.9723 L56.05469,948.0549 L56.25,949.2519 L56.44531,943.6397 L56.64063,943.5841 L56.83594,947.9289 L57.03125,943.5104 L57.22656,944.5696 L57.42188,942.6595 L57.61719,949.6081 L57.8125,941.8801 L58.00781,947.6304 L58.20313,942.4225 L58.39844,942.134 L58.59375,941.3923 L58.78906,940.7512 L58.98438,940.5576 L59.17969,946.8159 L59.375,948.4529 L59.57031,944.6911 L59.76563,939.1423 L59.96094,938.8407 L60.15625,945.5334 L60.35156,948.3287 L60.54688,941.715 L60.74219,938.9863 L60.9375,943.2923 L61.13281,949.5532 L61.32813,939.7921 L61.52344,936.0658 L61.71875,936.1273 L61.91406,935.9771 L62.10938,946.5089 L62.30469,935.5572 L62.5,934.5646 L62.69531,938.191 L62.89063,935.4872 L63.08594,936.7381 L63.28125,934.7332 L63.47656,949.9097 L63.67188,941.8326 L63.86719,932.9708 L64.0625,948.6293 L64.25781,938.6978 L64.45313,932.1125 L64.64844,948.8079 L64.84375,944.3216 L65.03906,931.7467 L65.23438,936.7363 L65.42969,931.5946 L65.625,931.1506 L65.82031,946.1228 L66.01563,947.4063 L66.21094,946.5938 L66.40625,928.8861 L66.60156,949.567 L66.79688,949.263 L66.99219,931.9465 L67.1875,947.4422 L67.38281,949.2922 L67.57813,930.0282 L67.77344,945.2315 L67.96875,929.5932 L68.16406,934.6488 L68.35938,948.825 L68.55469,933.5848 L68.75,925.3687 L68.94531,947.2841 L69.14063,941.2306 L69.33594,933.3141 L69.53125,938.933 L69.72656,926.0516 L69.92188,934.3395 L70.11719,923.7613 L70.3125,948.944 L70.50781,924.852 L70.70313,947.2841 L70.89844,928.0908 L71.09375,928.1542 L71.28906,937.2556 L71.48438,923.9734 L71.67969,947.272 L71.875,949.6748 L72.07031,930.2834 L72.26563,933.0258 L72.46094,921.9402 L72.65625,945.8782 L72.85156,931.6942 L73.04688,948.8651 L73.24219,947.2913 L73.4375,939.8697 L73.63281,946.126 L73.82813,947.6985 L74.02344,920.5329 L74.21875,933.3837 L74.41406,946.175 L74.60938,919.2567 L74.80469,945.5833 L75,939.1979 L75.19531,949.3102 L75.39063,946.5372 L75.58594,946.7696 L75.78125,945.4423 L75.97656,933.2576 L76.17188,948.8062 L76.36719,925.053 L76.5625,927.6979 L76.75781,925.3008 L76.95313,916.8715 L77.14844,949.7548 L77.34375,918.9626 L77.53906,936.8386 L77.73438,942.7346 L77.92969,947.7952 L78.125,913.9642 L78.32031,917.3506 L78.51563,934.072 L78.71094,932.22 L78.90625,913.2709 L79.10156,926.0837 L79.29688,945.4072 L79.49219,944.1833 L79.6875,914.4891 L79.88281,943.8347 L80.07813,930.3863 L80.27344,945.4334 L80.46875,938.2195 L80.66406,949.1896 L80.85938,948.7667 L81.05469,938.6584 L81.25,943.98 L81.44531,946.6021 L81.64063,949.3864 L81.83594,947.1738 L82.03125,944.4601 L82.22656,946.4105 L82.42188,918.4655 L82.61719,928.763 L82.8125,948.1009 L83.00781,945.0978 L83.20313,924.0582 L83.39844,947.3215 L83.59375,939.5797 L83.78906,949.6551 L83.98438,949.1511 L84.17969,909.942 L84.375,936.9543 L84.57031,944.227 L84.76563,907.392 L84.96094,948.7327 L85.15625,909.4534 L85.35156,915.7607 L85.54688,945.6851 L85.74219,945.4114 L85.9375,944.134 L86.13281,947.2162 L86.32813,918.9172 L86.52344,930.8376 L86.71875,915.2228 L86.91406,944.4841 L87.10938,947.8727 L87.30469,942.0078 L87.5,948.2154 L87.69531,949.4589 L87.89063,921.9347 L88.08594,907.7647 L88.28125,946.9099 L88.47656,899.9092 L88.67188,944.1528 L88.86719,938.7884 L89.0625,934.5179 L89.25781,947.6377 L89.45313,946.3041 L89.64844,923.9789 L89.84375,946.9136 L90.03906,942.1119 L90.23438,902.0448 L90.42969,937.4833 L90.625,906.799 L90.82031,937.9438 L91.01563,948.9487 L91.21094,941.8464 L91.40625,948.2415 L91.60156,938.843 L91.79688,948.4161 L91.99219,943.9756 L92.1875,905.7795 L92.38281,940.7798 L92.57813,949.5943 L92.77344,931.7424 L92.96875,893.3967 L93.16406,947.3104 L93.35938,929.7083 L93.55469,893.5992 L93.75,948.7881 L93.94531,903.5135 L94.14063,945.7671 L94.33594,944.1314 L94.53125,937.6596 L94.72656,930.0558 L94.92188,895.5555 L95.11719,917.013 L95.3125,948.692 L95.50781,912.1395 L95.70313,917.5927 L95.89844,934.876 L96.09375,938.8256 L96.28906,949.0222 L96.48438,943.3564 L96.67969,932.967 L96.875,939.786 L97.07031,889.7097 L97.26563,949.4599 L97.46094,946.909 L97.65625,948.2288 L97.85156,934.7112 L98.04688,946.1195 L98.24219,942.3685 L98.4375,949.0091 L98.63281,903.5277 L98.82813,930.8768 L99.02344,908.773 L99.21875,943.7126 L99.41406,948.7082 L99.60938,921.2313 L99.80469,922.6834 L100,901.754 L100.1953,946.9128 L100.3906,947.2522 L100.5859,919.0386 L100.7813,947.8932 L100.9766,945.8701 L101.1719,932.1096 L101.3672,947.4511 L101.5625,948.002 L101.7578,941.9753 L101.9531,889.5243 L102.1484,944.1591 L102.3438,942.9079 L102.5391,946.363 L102.7344,931.1133 L102.9297,903.0978 L103.125,882.6983 L103.3203,927.3807 L103.5156,890.9296 L103.7109,907.4182 L103.9063,947.0308 L104.1016,945.3135 L104.2969,944.337 L104.4922,914.8373 L104.6875,907.2682 L104.8828,882.2781 L105.0781,932.5213 L105.2734,914.1274 L105.4688,936.9305 L105.6641,880.1293 L105.8594,887.9629 L106.0547,934.0887 L106.25,943.9463 L106.4453,930.0704 L106.6406,932.7057 L106.8359,929.1813 L107.0313,903.5204 L107.2266,947.1896 L107.4219,943.9492 L107.6172,924.1152 L107.8125,925.7368 L108.0078,947.456 L108.2031,903.7869 L108.3984,941.9128 L108.5938,943.2219 L108.7891,946.9987 L108.9844,949.623 L109.1797,949.309 L109.375,919.2219 L109.5703,947.2577 L109.7656,945.3858 L109.9609,919.3392 L110.1563,896.5585 L110.3516,931.0877 L110.5469,938.1305 L110.7422,919.3978 L110.9375,897.9674 L111.1328,875.7137 L111.3281,905.7649 L111.5234,948.92 L111.7188,947.5596 L111.9141,941.3864 L112.1094,931.2338 L112.3047,945.8392 L112.5,946.7422 L112.6953,945.5928 L112.8906,917.4193 L113.0859,949.1177 L113.2813,947.4978 L113.4766,935.6501 L113.6719,946.6993 L113.8672,948.9648 L114.0625,935.4329 L114.2578,945.462 L114.4531,948.5749 L114.6484,937.8898 L114.8438,948.5526 L115.0391,946.3561 L115.2344,941.9802 L115.4297,948.0542 L115.625,920.2259 L115.8203,940.8909 L116.0156,944.3695 L116.2109,947.4996 L116.4063,945.0266 L116.6016,902.701 L116.7969,865.9755 L116.9922,922.0746 L117.1875,935.7216 L117.3828,919.0595 L117.5781,949.7778 L117.7734,938.9455 L117.9688,942.0944 L118.1641,947.6757 L118.3594,948.3568 L118.5547,941.4955 L118.75,933.6564 L118.9453,947.2784 L119.1406,913.0838 L119.3359,943.3298 L119.5313,944.6617 L119.7266,930.3412 L119.9219,904.7921 L120.1172,899.7762 L120.3125,931.0563 L120.5078,943.4263 L120.7031,932.6776 L120.8984,945.5745 L121.0938,948.0978 L121.2891,944.2343 L121.4844,905.2517 L121.6797,937.9962 L121.875,948.9063 L122.0703,932.0961 L122.2656,927.5031 L122.4609,948.1536 L122.6563,919.3662 L122.8516,922.2006 L123.0469,880.0067 L123.2422,946.8958 L123.4375,947.3461 L123.6328,942.877 L123.8281,941.9546 L124.0234,948.7824 L124.2188,938.1915 L124.4141,942.7394 L124.6094,932.108 L124.8047,948.5884 L125,914.457 L125.1953,887.5428 L125.3906,947.155 L125.5859,920.1215 L125.7813,890.8944 L125.9766,928.5698 L126.1719,946.2863 L126.3672,949.051 L126.5625,940.8754 L126.7578,947.56 L126.9531,943.4739 L127.1484,947.8962 L127.3438,911.0421 L127.5391,949.4126 L127.7344,934.7083 L127.9297,904.8347 L128.125,933.3383 L128.3203,943.1017 L128.5156,946.6635 L128.7109,941.9352 L128.9063,948.4939 L129.1016,947.9044 L129.2969,939.2181 L129.4922,935.6188 L129.6875,923.4394 L129.8828,946.7057 L130.0781,918.3227 L130.2734,944.4587 L130.4688,949.3142 L130.6641,913.3058 L130.8594,949.4639 L131.0547,915.254 L131.25,946.2642 L131.4453,926.619 L131.6406,934.8427 L131.8359,883.8751 L132.0313,939.1968 L132.2266,927.4397 L132.4219,947.595 L132.6172,941.2931 L132.8125,885.3827 L133.0078,932.5957 L133.2031,947.2928 L133.3984,930.8035 L133.5938,912.5115 L133.7891,902.2108 L133.9844,948.5056 L134.1797,917.4983 L134.375,905.5628 L134.5703,922.6702 L134.7656,915.2443 L134.9609,928.371 L135.1563,943.5237 L135.3516,946.9135 L135.5469,939.1876 L135.7422,942.3533 L135.9375,913.6469 L136.1328,948.3912 L136.3281,934.3329 L136.5234,949.0998 L136.7188,903.9009 L136.9141,948.0363 L137.1094,932.3423 L137.3047,934.5446 L137.5,863.0457 L137.6953,904.8348 L137.8906,934.8136 L138.0859,947.9163 L138.2813,939.4372 L138.4766,936.5305 L138.6719,944.2963 L138.8672,916.0472 L139.0625,903.1246 L139.2578,918.5488 L139.4531,932.8056 L139.6484,946.1186 L139.8438,898.7229 L140.0391,927.5433 L140.2344,932.7241 L140.4297,903.6736 L140.625,899.2205 L140.8203,942.0703 L141.0156,944.1035 L141.2109,945.6097 L141.4063,948.3047 L141.6016,948.7407 L141.7969,940.0706 L141.9922,944.759 L142.1875,943.3756 L142.3828,947.0805 L142.5781,941.8908 L142.7734,879.816 L142.9688,897.2345 L143.1641,936.4632 L143.3594,938.1832 L143.5547,948.8422 L143.75,920.4033 L143.9453,925.2851 L144.1406,947.7937 L144.3359,920.1976 L144.5313,899.1422 L144.7266,949.3652 L144.9219,941.0399 L145.1172,928.8856 L145.3125,947.1909 L145.5078,937.4406 L145.7031,886.7285 L145.8984,868.9535 L146.0938,920.9437 L146.2891,946.5696 L146.4844,919.1857 L146.6797,944.3064 L146.875,895.7388 L147.0703,947.6102 L147.2656,945.6603 L147.4609,946.8658 L147.6563,949.1657 L147.8516,894.0869 L148.0469,940.715 L148.2422,947.5509 L148.4375,893.6899 L148.6328,939.477 L148.8281,946.1614 L149.0234,940.0223 L149.2188,901.3708 L149.4141,900.6471 L149.6094,948.5024 L149.8047,936.9229 L150,911.6688 L150.1953,949.5165 L150.3906,927.115 L150.5859,947.363 L150.7813,930.3126 L150.9766,938.1566 L151.1719,948.7244 L151.3672,922.5197 L151.5625,948.9449 L151.7578,932.9815 L151.9531,948.8775 L152.1484,941.4215 L152.3438,931.6712 L152.5391,923.507 L152.7344,944.9996 L152.9297,947.6642 L153.125,947.8708 L153.3203,885.5398 L153.5156,938.75 L153.7109,937.1312 L153.9063,922.0553 L154.1016,948.4608 L154.2969,949.8282 L154.4922,912.744 L154.6875,949.0599 L154.8828,947.8762 L155.0781,932.3636 L155.2734,929.0548 L155.4688,949.4294 L155.6641,934.5549 L155.8594,931.8747 L156.0547,947.7136 L156.25,926.4304 L156.4453,947.6556 L156.6406,944.6791 L156.8359,946.6036 L157.0313,940.3342 L157.2266,925.8602 L157.4219,945.9935 L157.6172,917.1213 L157.8125,922.9946 L158.0078,948.4254 L158.2031,935.6492 L158.3984,947.5953 L158.5938,942.3876 L158.7891,949.0167 L158.9844,941.4974 L159.1797,887.1861 L159.375,927.3453 L159.5703,909.5167 L159.7656,948.8593 L159.9609,926.7372 L160.1563,944.0037 L160.3516,911.8075 L160.5469,928.7488 L160.7422,949.1455 L160.9375,949.1838 L161.1328,919.8674 L161.3281,949.5652 L161.5234,946.8023 L161.7188,899.1369 L161.9141,898.237 L162.1094,949.0909 L162.3047,945.3743 L162.5,921.2276 L162.6953,949.591 L162.8906,943.7534 L163.0859,947.5761 L163.2813,944.5686 L163.4766,944.9099 L163.6719,948.1387 L163.8672,942.7768 L164.0625,949.2314 L164.2578,908.4883 L164.4531,894.5609 L164.6484,932.2726 L164.8438,949.357 L165.0391,926.0919 L165.2344,894.5946 L165.4297,936.0597 L165.625,944.8009 L165.8203,949.3277 L166.0156,947.7855 L166.2109,879.7633 L166.4063,948.443 L166.6016,944.7171 L166.7969,942.7403 L166.9922,944.7134 L167.1875,942.4065 L167.3828,928.2117 L167.5781,923.2679 L167.7734,947.4591 L167.9688,928.9892 L168.1641,913.2689 L168.3594,946.1152 L168.5547,949.3708 L168.75,938.7163 L168.9453,949.3027 L169.1406,945.4136 L169.3359,922.1914 L169.5313,949.0886 L169.7266,903.3618 L169.9219,947.8657 L170.1172,854.3123 L170.3125,948.0544 L170.5078,935.6927 L170.7031,948.7824 L170.8984,934.9799 L171.0938,899.6434 L171.2891,910.2553 L171.4844,896.1807 L171.6797,933.296 L171.875,937.5319 L172.0703,941.8342 L172.2656,931.2783 L172.4609,917.6879 L172.6563,894.2974 L172.8516,938.8641 L173.0469,918.7837 L173.2422,946.5653 L173.4375,897.1208 L173.6328,870.6365 L173.8281,944.2462 L174.0234,946.0688 L174.2188,925.0144 L174.4141,936.4224 L174.6094,898.0815 L174.8047,947.3811 L175,947.9829 L175.1953,931.1566 L175.3906,905.1453 L175.5859,948.4512 L175.7813,949.6603 L175.9766,897.1236 L176.1719,946.3328 L176.3672,944.2083 L176.5625,945.8362 L176.7578,930.9745 L176.9531,948.1489 L177.1484,927.6563 L177.3438,923.9658 L177.5391,949.1328 L177.7344,928.8933 L177.9297,933.1685 L178.125,914.1495 L178.3203,949.7876 L178.5156,947.793 L178.7109,948.372 L178.9063,933.8469 L179.1016,932.3781 L179.2969,928.0494 L179.4922,863.1103 L179.6875,946.6351 L179.8828,872.6508 L180.0781,884.033 L180.2735,925.7319 L180.4688,949.2842 L180.6641,918.2213 L180.8594,897.8265 L181.0547,948.1349 L181.25,948.3433 L181.4453,940.544 L181.6406,942.0602 L181.8359,946.0224 L182.0313,946.5075 L182.2266,924.8002 L182.4219,817.1494 L182.6172,935.3386 L182.8125,913.7108 L183.0078,949.7224 L183.2031,948.1316 L183.3984,939.5167 L183.5938,906.1808 L183.7891,899.6052 L183.9844,946.9337 L184.1797,949.2402 L184.375,930.9858 L184.5703,947.6085 L184.7656,948.4943 L184.9609,934.3397 L185.1563,942.1527 L185.3516,944.5053 L185.5469,944.9667 L185.7422,910.596 L185.9375,929.8543 L186.1328,947.5621 L186.3281,943.3672 L186.5234,946.0227 L186.7188,949.4651 L186.9141,944.6078 L187.1094,948.5759 L187.3047,846.5817 L187.5,948.9625 L187.6953,918.7217 L187.8906,889.5275 L188.086,948.7379 L188.2813,939.6108 L188.4766,888.9455 L188.6719,947.2902 L188.8672,945.1444 L189.0625,948.2154 L189.2578,944.9447 L189.4531,921.7458 L189.6484,931.9205 L189.8438,938.4614 L190.0391,948.4969 L190.2344,949.593 L190.4297,924.5736 L190.625,942.8934 L190.8203,884.4874 L191.0156,948.3003 L191.2109,940.9529 L191.4063,945.2097 L191.6016,933.5618 L191.7969,943.2221 L191.9922,923.2733 L192.1875,896.7859 L192.3828,925.2612 L192.5781,904.5857 L192.7734,949.3701 L192.9688,933.0609 L193.1641,932.1242 L193.3594,936.7391 L193.5547,913.8588 L193.75,934.7822 L193.9453,925.4963 L194.1406,949.1602 L194.3359,873.7489 L194.5313,925.6812 L194.7266,926.0249 L194.9219,929.9413 L195.1172,942.1951 L195.3125,927.6535 L195.5078,948.8835 L195.7031,949.3974 L195.8985,945.053 L196.0938,936.3151 L196.2891,949.6968 L196.4844,947.7932 L196.6797,945.818 L196.875,949.5583 L197.0703,903.6234 L197.2656,944.7355 L197.4609,947.6087 L197.6563,933.4606 L197.8516,918.0349 L198.0469,904.3796 L198.2422,932.1387 L198.4375,914.6979 L198.6328,948.8088 L198.8281,948.7694 L199.0234,941.8384 L199.2188,941.6572 L199.4141,946.6353 L199.6094,918.6763 L199.8047,937.6144 L200,913.6554 L200.1953,948.7242 L200.3906,939.7185 L200.5859,948.1227 L200.7813,921.9794 L200.9766,927.4028 L201.1719,917.3091 L201.3672,946.4016 L201.5625,944.6788 L201.7578,885.1088 L201.9531,947.8046 L202.1484,909.3536 L202.3438,927.9252 L202.5391,946.8893 L202.7344,913.2891 L202.9297,931.0566 L203.125,949.766 L203.3203,889.618 L203.5156,942.8054 L203.711,931.7202 L203.9063,932.9183 L204.1016,899.7665 L204.2969,948.2256 L204.4922,936.3502 L204.6875,941.684 L204.8828,846.9393 L205.0781,947.7513 L205.2734,949.2583 L205.4688,947.2916 L205.6641,915.1443 L205.8594,900.5081 L206.0547,947.0313 L206.25,947.1763 L206.4453,919.8555 L206.6406,949.5708 L206.8359,944.7865 L207.0313,944.465 L207.2266,928.0168 L207.4219,939.5544 L207.6172,895.3815 L207.8125,931.8062 L208.0078,926.991 L208.2031,933.9164 L208.3984,947.8369 L208.5938,911.272 L208.7891,936.3568 L208.9844,948.6583 L209.1797,859.7137 L209.375,912.8621 L209.5703,949.9016 L209.7656,946.2587 L209.9609,946.7284 L210.1563,945.8812 L210.3516,938.833 L210.5469,933.0676 L210.7422,946.2997 L210.9375,940.5706 L211.1328,947.1893 L211.3281,928.2148 L211.5235,944.0831 L211.7188,920.575 L211.9141,913.8718 L212.1094,937.5765 L212.3047,916.2861 L212.5,946.3552 L212.6953,869.1169 L212.8906,946.4912 L213.0859,948.9877 L213.2813,946.4138 L213.4766,935.8329 L213.6719,946.8441 L213.8672,915.9811 L214.0625,908.0269 L214.2578,928.5797 L214.4531,921.4334 L214.6484,945.4964 L214.8438,892.4871 L215.0391,945.023 L215.2344,910.5807 L215.4297,915.306 L215.625,913.9534 L215.8203,948.715 L216.0156,909.7588 L216.2109,903.7082 L216.4063,941.196 L216.6016,930.1132 L216.7969,941.9152 L216.9922,944.3861 L217.1875,798.9813 L217.3828,948.189 L217.5781,948.9742 L217.7734,920.1044 L217.9688,932.2313 L218.1641,926.8141 L218.3594,948.3261 L218.5547,874.9297 L218.75,945.6458 L218.9453,925.4555 L219.1406,806.528 L219.336,930.1452 L219.5313,917.1265 L219.7266,929.1561 L219.9219,897.91 L220.1172,941.1501 L220.3125,941.2009 L220.5078,947.961 L220.7031,948.6235 L220.8984,948.5268 L221.0938,929.8418 L221.2891,914.1391 L221.4844,925.4807 L221.6797,925.2109 L221.875,947.4078 L222.0703,946.4844 L222.2656,919.6216 L222.4609,944.9273 L222.6563,947.1716 L222.8516,896.5876 L223.0469,947.3765 L223.2422,921.6005 L223.4375,945.6703 L223.6328,945.4235 L223.8281,947.7446 L224.0234,941.6448 L224.2188,949.0848 L224.4141,936.9684 L224.6094,946.7828 L224.8047,932.0854 L225,946.0948 L225.1953,933.7819 L225.3906,944.1495 L225.5859,949.3011 L225.7813,934.5732 L225.9766,949.2315 L226.1719,913.3187 L226.3672,938.7704 L226.5625,932.8254 L226.7578,944.5816 L226.9531,911.0746 L227.1485,918.2609 L227.3438,928.0945 L227.5391,946.1161 L227.7344,930.9438 L227.9297,922.5185 L228.125,891.8463 L228.3203,924.9379 L228.5156,948.6304 L228.7109,905.7284 L228.9063,948.9453 L229.1016,939.056 L229.2969,913.9812 L229.4922,947.3826 L229.6875,948.9862 L229.8828,947.3502 L230.0781,931.0694 L230.2734,949.2797 L230.4688,923.8438 L230.6641,919.0615 L230.8594,854.9173 L231.0547,947.4836 L231.25,947.721 L231.4453,942.6074 L231.6406,920.7618 L231.8359,938.1707 L232.0313,943.0405 L232.2266,936.5454 L232.4219,933.0065 L232.6172,936.3469 L232.8125,924.2241 L233.0078,949.7971 L233.2031,898.1159 L233.3984,906.0557 L233.5938,944.2436 L233.7891,939.7554 L233.9844,928.0953 L234.1797,948.3683 L234.375,927.9072 L234.5703,949.7736 L234.7656,843.9246 L234.961,921.8585 L235.1563,943.0198 L235.3516,928.1701 L235.5469,923.4088 L235.7422,903.7828 L235.9375,930.3611 L236.1328,949.327 L236.3281,853.079 L236.5234,942.6508 L236.7188,899.7392 L236.9141,937.4145 L237.1094,892.3182 L237.3047,917.8754 L237.5,930.3678 L237.6953,945.0599 L237.8906,945.7462 L238.0859,945.7878 L238.2813,901.1507 L238.4766,949.3182 L238.6719,938.4176 L238.8672,949.3275 L239.0625,946.6641 L239.2578,948.7994 L239.4531,914.621 L239.6484,950 L239.8438,939.9226 L240.0391,909.8719 L240.2344,943.0339 L240.4297,896.8373 L240.625,935.9896 L240.8203,908.8919 L241.0156,939.0923 L241.2109,949.9927 L241.4063,879.2661 L241.6016,946.2349 L241.7969,917.3029 L241.9922,938.2957 L242.1875,913.2036 L242.3828,941.296 L242.5781,925.7155 L242.7735,930.7926 L242.9688,948.0079 L243.1641,944.2297 L243.3594,849.2875 L243.5547,947.5259 L243.75,936.3673 L243.9453,909.5147 L244.1406,948.4139 L244.3359,945.9894 L244.5313,904.7237 L244.7266,931.8418 L244.9219,925.8954 L245.1172,935.632 L245.3125,897.9839 L245.5078,915.3526 L245.7031,934.4164 L245.8984,914.671 L246.0938,948.2202 L246.2891,932.8149 L246.4844,949.6082 L246.6797,909.0641 L246.875,948.908 L247.0703,923.7747 L247.2656,897.8772 L247.4609,947.5304 L247.6563,858.2143 L247.8516,945.9805 L248.0469,949.3085 L248.2422,889.1441 L248.4375,910.9062 L248.6328,949.1313 L248.8281,948.5126 L249.0234,910.8253 L249.2188,913.6636 L249.4141,945.7933 L249.6094,949.3857 L249.8047,912.8711 L250,932.9884 L250.1953,931.2016 L250.3906,947.3105 L250.586,946.4252 L250.7813,926.621 L250.9766,876.9023 L251.1719,895.6956 L251.3672,943.8184 L251.5625,934.1467 L251.7578,944.9129 L251.9531,946.4173 L252.1484,947.1639 L252.3438,937.1609 L252.5391,931.0877 L252.7344,940.8772 L252.9297,915.9276 L253.125,949.2048 L253.3203,945.2513 L253.5156,935.3099 L253.7109,944.1318 L253.9063,946.7501 L254.1016,944.5446 L254.2969,940.3659 L254.4922,948.3246 L254.6875,948.9235 L254.8828,947.9963 L255.0781,902.7886 L255.2734,943.7928 L255.4688,932.0441 L255.6641,949.768 L255.8594,948.269 L256.0547,948.5313 L256.25,936.2192 L256.4453,943.4417 L256.6406,935.5886 L256.8359,930.191 L257.0313,750 L257.2266,939.0013 L257.4219,940.4145 L257.6172,873.5016 L257.8125,923.3217 L258.0078,940.7371 L258.2031,948.0278 L258.3984,947.3431 L258.5938,930.9546 L258.7891,947.2662 L258.9844,943.7159 L259.1797,943.6187 L259.375,936.1251 L259.5703,930.6842 L259.7656,939.8892 L259.9609,938.3591 L260.1563,885.7657 L260.3516,909.9921 L260.5469,890.2132 L260.7422,879.6094 L260.9375,947.8534 L261.1328,895.757 L261.3281,946.5533 L261.5234,920.4836 L261.7188,912.4117 L261.9141,912.4178 L262.1094,949.434 L262.3047,949.3549 L262.5,947.6841 L262.6953,941.4243 L262.8906,946.9246 L263.0859,943.5833 L263.2813,911.101 L263.4766,925.1263 L263.6719,908.0476 L263.8672,931.9978 L264.0625,946.6485 L264.2578,949.6906 L264.4531,947.0266 L264.6484,933.7425 L264.8438,935.6116 L265.0391,948.1354 L265.2344,904.6416 L265.4297,949.3328 L265.625,947.6014 L265.8203,921.3604 L266.0156,947.8304 L266.2109,947.26 L266.4063,948.0975 L266.6016,939.9896 L266.7969,940.6855 L266.9922,902.9724 L267.1875,941.2322 L267.3828,948.7545 L267.5781,865.1484 L267.7734,916.7808 L267.9688,937.1376 L268.1641,935.7119 L268.3594,946.361 L268.5547,948.4084 L268.75,894.5064 L268.9453,947.926 L269.1406,924.8214 L269.3359,947.9334 L269.5313,938.9431 L269.7266,946.082 L269.9219,915.6958 L270.1172,927.8475 L270.3125,938.3816 L270.5078,872.8928 L270.7031,938.1354 L270.8984,949.3991 L271.0938,923.4355 L271.2891,932.8528 L271.4844,934.2944 L271.6797,930.7297 L271.875,865.1129 L272.0703,892.3969 L272.2656,947.6187 L272.4609,911.4202 L272.6563,940.4121 L272.8516,947.7988 L273.0469,931.2231 L273.2422,938.8817 L273.4375,947.3351 L273.6328,936.4946 L273.8281,888.8331 L274.0234,934.2817 L274.2188,928.0759 L274.4141,914.1154 L274.6094,931.1144 L274.8047,904.8442 L275,927.2236 L275.1953,944.4997 L275.3906,920.0224 L275.5859,927.7287 L275.7813,888.5073 L275.9766,918.9205 L276.1719,892.5952 L276.3672,880.5173 L276.5625,947.2552 L276.7578,944.1484 L276.9531,948.5336 L277.1484,948.9521 L277.3438,892.9396 L277.5391,943.6704 L277.7344,934.3025 L277.9297,925.7303 L278.125,947.882 L278.3203,921.1387 L278.5156,918.5975 L278.7109,924.3897 L278.9063,947.8922 L279.1016,908.8679 L279.2969,916.9968 L279.4922,913.3114 L279.6875,947.1592 L279.8828,949.7147 L280.0781,940.4543 L280.2734,872.9095 L280.4688,858.4532 L280.6641,947.3054 L280.8594,865.4606 L281.0547,947.4172 L281.25,948.0964 L281.4453,945.9272 L281.6406,942.8341 L281.8359,927.3273 L282.0313,930.902 L282.2266,923.4944 L282.4219,879.4153 L282.6172,947.681 L282.8125,939.3781 L283.0078,918.6941 L283.2031,940.0449 L283.3984,946.1404 L283.5938,908.4573 L283.7891,947.5728 L283.9844,949.6401 L284.1797,935.815 L284.375,946.942 L284.5703,948.3087 L284.7656,905.7654 L284.9609,945.3998 L285.1563,947.5878 L285.3516,938.5683 L285.5469,852.0001 L285.7422,948.0012 L285.9375,943.9167 L286.1328,948.4266 L286.3281,948.8179 L286.5234,914.8644 L286.7188,918.3384 L286.9141,939.3329 L287.1094,934.7204 L287.3047,947.566 L287.5,937.0061 L287.6953,907.5715 L287.8906,933.8983 L288.0859,935.2501 L288.2813,949.5543 L288.4766,946.3141 L288.6719,949.0166 L288.8672,945.4438 L289.0625,928.7915 L289.2578,909.2147 L289.4531,925.0959 L289.6484,930.2869 L289.8438,949.4521 L290.0391,865.039 L290.2344,941.7458 L290.4297,945.0937 L290.625,906.5172 L290.8203,949.3918 L291.0156,931.5743 L291.2109,930.7878 L291.4063,855.1166 L291.6016,906.8761 L291.7969,928.3557 L291.9922,871.412 L292.1875,946.8235 L292.3828,948.8247 L292.5781,941.1526 L292.7734,946.0029 L292.9688,916.0643 L293.1641,936.0841 L293.3594,880.4473 L293.5547,946.8192 L293.75,947.2334 L293.9453,922.2811 L294.1406,947.3622 L294.3359,949.7408 L294.5313,897.309 L294.7266,949.3628 L294.9219,949.2535 L295.1172,928.9442 L295.3125,914.8549 L295.5078,915.4766 L295.7031,906.1123 L295.8984,937.4291 L296.0938,936.823 L296.2891,932.3788 L296.4844,948.9426 L296.6797,947.176 L296.875,906.8843 L297.0703,905.1487 L297.2656,944.8173 L297.4609,935.5239 L297.6563,930.3844 L297.8516,946.7066 L298.0469,931.8047 L298.2422,932.304 L298.4375,891.3682 L298.6328,936.0513 L298.8281,943.9553 L299.0234,903.8342 L299.2188,946.4805 L299.4141,885.5792 L299.6094,903.9286 L299.8047,946.9919 L300,944.6312 L300.1953,927.5706 L300.3906,919.6236 L300.5859,930.9993 L300.7813,896.9335 L300.9766,919.8138 L301.1719,938.7734 L301.3672,946.5909 L301.5625,949.0018 L301.7578,947.4111 L301.9531,944.0671 L302.1484,881.1437 L302.3438,942.8322 L302.5391,946.9065 L302.7344,949.0153 L302.9297,934.9126 L303.125,948.7944 L303.3203,944.4762 L303.5156,924.567 L303.711,947.9308 L303.9063,931.2177 L304.1016,946.3912 L304.2969,865.7946 L304.4922,949.3265 L304.6875,932.3325 L304.8828,944.8745 L305.0781,948.717 L305.2734,910.2056 L305.4688,852.5293 L305.6641,949.0123 L305.8594,924.0726 L306.0547,936.2126 L306.25,936.1783 L306.4453,872.7295 L306.6407,926.8067 L306.8359,947.2283 L307.0313,947.1341 L307.2266,916.8792 L307.4219,886.7409 L307.6172,946.6712 L307.8125,933.9343 L308.0078,938.652 L308.2031,938.5191 L308.3984,948.4828 L308.5938,946.1862 L308.7891,938.4532 L308.9844,921.0886 L309.1797,949.6976 L309.375,903.7339 L309.5703,930.2443 L309.7656,941.389 L309.9609,940.7148 L310.1563,922.8742 L310.3516,948.8373 L310.5469,899.8147 L310.7422,947.8509 L310.9375,930.1707 L311.1328,943.431 L311.3281,946.6101 L311.5235,919.145 L311.7188,932.1752 L311.9141,938.7164 L312.1094,943.7878 L312.3047,949.4899 L312.5,877.8892 L312.6953,923.8165 " stroke="blue" fill="none" />
<text x="50" y="1000" font-family="Arial" font-size="12" fill="black">Episode Length (1346)</text>
<text x="50" y="1015" font-family="Arial" font-size="10" fill="black">1098</text>
<text x="50" y="1230" font-family="Arial" font-size="10" fill="black">9</text>
<path d="M50,1219.449 L50.19531,1219.449 L50.39063,1219.449 L50.58594,1219.449 L50.78125,1219.265 L50.97656,1219.265 L51.17188,1219.265 L51.36719,1219.265 L51.5625,1218.898 L51.75781,1218.714 L51.95313,1218.714 L52.14844,1218.531 L52.34375,1218.347 L52.53906,1218.163 L52.73438,1217.613 L52.92969,1217.429 L53.125,1217.245 L53.32031,1217.245 L53.51563,1217.062 L53.71094,1216.878 L53.90625,1216.694 L54.10156,1216.511 L54.29688,1216.143 L54.49219,1218.163 L54.6875,1215.776 L54.88281,1217.98 L55.07813,1215.592 L55.27344,1215.409 L55.46875,1217.062 L55.66406,1214.858 L55.85938,1216.694 L56.05469,1217.429 L56.25,1218.714 L56.44531,1213.939 L56.64063,1213.572 L56.83594,1217.98 L57.03125,1213.021 L57.22656,1213.021 L57.42188,1212.838 L57.61719,1219.816 L57.8125,1212.654 L58.00781,1218.347 L58.20313,1212.103 L58.39844,1212.103 L58.59375,1211.001 L58.78906,1211.001 L58.98438,1210.817 L59.17969,1215.96 L59.375,1217.429 L59.57031,1212.286 L59.76563,1209.348 L59.96094,1209.348 L60.15625,1213.021 L60.35156,1217.98 L60.54688,1208.43 L60.74219,1208.43 L60.9375,1213.939 L61.13281,1218.898 L61.32813,1207.695 L61.52344,1206.777 L61.71875,1206.41 L61.91406,1206.226 L62.10938,1216.511 L62.30469,1205.859 L62.5,1205.859 L62.69531,1208.613 L62.89063,1205.124 L63.08594,1206.961 L63.28125,1204.573 L63.47656,1218.898 L63.67188,1211.919 L63.86719,1202.92 L64.0625,1218.531 L64.25781,1209.348 L64.45313,1202.553 L64.64844,1217.98 L64.84375,1214.307 L65.03906,1202.002 L65.23438,1206.777 L65.42969,1201.267 L65.625,1201.084 L65.82031,1216.143 L66.01563,1217.796 L66.21094,1216.143 L66.40625,1199.982 L66.60156,1218.898 L66.79688,1218.898 L66.99219,1202.553 L67.1875,1217.613 L67.38281,1219.449 L67.57813,1200.9 L67.77344,1215.225 L67.96875,1198.145 L68.16406,1202.736 L68.35938,1217.429 L68.55469,1203.287 L68.75,1196.309 L68.94531,1217.429 L69.14063,1211.552 L69.33594,1202.002 L69.53125,1208.613 L69.72656,1195.39 L69.92188,1204.757 L70.11719,1194.839 L70.3125,1217.98 L70.50781,1194.472 L70.70313,1217.429 L70.89844,1198.88 L71.09375,1197.411 L71.28906,1206.41 L71.48438,1193.37 L71.67969,1217.062 L71.875,1219.265 L72.07031,1196.492 L72.26563,1201.267 L72.46094,1191.717 L72.65625,1216.327 L72.85156,1201.451 L73.04688,1218.898 L73.24219,1217.429 L73.4375,1206.593 L73.63281,1216.327 L73.82813,1217.98 L74.02344,1191.534 L74.21875,1202.736 L74.41406,1216.694 L74.60938,1189.146 L74.80469,1213.205 L75,1208.063 L75.19531,1219.082 L75.39063,1216.694 L75.58594,1217.613 L75.78125,1215.041 L75.97656,1201.451 L76.17188,1218.898 L76.36719,1194.472 L76.5625,1198.145 L76.75781,1197.043 L76.95313,1185.84 L77.14844,1219.816 L77.34375,1188.411 L77.53906,1207.328 L77.73438,1212.286 L77.92969,1217.98 L78.125,1184.738 L78.32031,1184.555 L78.51563,1203.287 L78.71094,1203.287 L78.90625,1183.636 L79.10156,1195.023 L79.29688,1215.776 L79.49219,1214.674 L79.6875,1183.085 L79.88281,1214.49 L80.07813,1201.451 L80.27344,1215.409 L80.46875,1206.226 L80.66406,1217.796 L80.85938,1216.878 L81.05469,1208.43 L81.25,1213.572 L81.44531,1216.878 L81.64063,1219.265 L81.83594,1217.613 L82.03125,1214.307 L82.22656,1215.592 L82.42188,1188.595 L82.61719,1200.349 L82.8125,1218.163 L83.00781,1214.858 L83.20313,1192.635 L83.39844,1217.429 L83.59375,1209.532 L83.78906,1219.449 L83.98438,1219.082 L84.17969,1178.494 L84.375,1206.226 L84.57031,1214.307 L84.76563,1178.127 L84.96094,1218.898 L85.15625,1177.392 L85.35156,1186.024 L85.54688,1215.225 L85.74219,1215.776 L85.9375,1213.756 L86.13281,1217.062 L86.32813,1188.779 L86.52344,1201.451 L86.71875,1184.371 L86.91406,1212.47 L87.10938,1217.796 L87.30469,1211.185 L87.5,1217.796 L87.69531,1219.082 L87.89063,1187.493 L88.08594,1178.31 L88.28125,1217.613 L88.47656,1171.699 L88.67188,1214.49 L88.86719,1209.899 L89.0625,1203.287 L89.25781,1217.613 L89.45313,1216.878 L89.64844,1193.921 L89.84375,1217.062 L90.03906,1212.47 L90.23438,1170.046 L90.42969,1208.063 L90.625,1176.657 L90.82031,1208.063 L91.01563,1218.898 L91.21094,1212.654 L91.40625,1215.96 L91.60156,1209.532 L91.79688,1218.347 L91.99219,1211.185 L92.1875,1174.637 L92.38281,1211.001 L92.57813,1219.265 L92.77344,1202.186 L92.96875,1165.271 L93.16406,1217.429 L93.35938,1198.512 L93.55469,1164.536 L93.75,1217.796 L93.94531,1172.433 L94.14063,1215.409 L94.33594,1214.49 L94.53125,1208.797 L94.72656,1200.533 L94.92188,1168.209 L95.11719,1186.575 L95.3125,1218.347 L95.50781,1180.331 L95.70313,1186.942 L95.89844,1204.94 L96.09375,1208.981 L96.28906,1218.898 L96.48438,1213.939 L96.67969,1203.287 L96.875,1209.164 L97.07031,1160.312 L97.26563,1218.347 L97.46094,1217.429 L97.65625,1219.082 L97.85156,1205.491 L98.04688,1215.041 L98.24219,1213.388 L98.4375,1219.082 L98.63281,1170.964 L98.82813,1200.716 L99.02344,1179.596 L99.21875,1213.939 L99.41406,1217.796 L99.60938,1189.513 L99.80469,1191.166 L100,1172.066 L100.1953,1216.878 L100.3906,1217.613 L100.5859,1190.432 L100.7813,1217.796 L100.9766,1216.327 L101.1719,1202.369 L101.3672,1217.613 L101.5625,1218.163 L101.7578,1211.736 L101.9531,1157.741 L102.1484,1214.123 L102.3438,1213.388 L102.5391,1216.143 L102.7344,1198.696 L102.9297,1174.086 L103.125,1153.15 L103.3203,1198.88 L103.5156,1159.578 L103.7109,1177.759 L103.9063,1217.062 L104.1016,1215.776 L104.2969,1214.858 L104.4922,1184.371 L104.6875,1178.861 L104.8828,1151.68 L105.0781,1201.451 L105.2734,1181.984 L105.4688,1207.328 L105.6641,1150.578 L105.8594,1158.659 L106.0547,1205.308 L106.25,1214.49 L106.4453,1200.533 L106.6406,1202.736 L106.8359,1199.982 L107.0313,1172.25 L107.2266,1217.245 L107.4219,1215.041 L107.6172,1193.921 L107.8125,1193.921 L108.0078,1217.796 L108.2031,1174.637 L108.3984,1211.736 L108.5938,1212.103 L108.7891,1217.429 L108.9844,1218.898 L109.1797,1218.898 L109.375,1190.248 L109.5703,1217.062 L109.7656,1211.368 L109.9609,1190.248 L110.1563,1166.373 L110.3516,1200.349 L110.5469,1208.43 L110.7422,1187.309 L110.9375,1166.373 L111.1328,1145.987 L111.3281,1174.821 L111.5234,1218.163 L111.7188,1217.613 L111.9141,1212.286 L112.1094,1201.084 L112.3047,1216.511 L112.5,1217.062 L112.6953,1215.592 L112.8906,1185.106 L113.0859,1218.898 L113.2813,1217.613 L113.4766,1204.573 L113.6719,1217.062 L113.8672,1219.082 L114.0625,1205.491 L114.2578,1215.776 L114.4531,1218.163 L114.6484,1207.695 L114.8438,1218.898 L115.0391,1217.062 L115.2344,1212.286 L115.4297,1217.98 L115.625,1190.615 L115.8203,1211.185 L116.0156,1215.409 L116.2109,1217.796 L116.4063,1214.49 L116.6016,1173.168 L116.7969,1138.274 L116.9922,1189.513 L117.1875,1206.226 L117.3828,1189.513 L117.5781,1219.265 L117.7734,1208.613 L117.9688,1211.919 L118.1641,1217.98 L118.3594,1218.531 L118.5547,1210.266 L118.75,1203.838 L118.9453,1215.96 L119.1406,1184.738 L119.3359,1213.756 L119.5313,1213.388 L119.7266,1200.716 L119.9219,1175.188 L120.1172,1170.597 L120.3125,1201.818 L120.5078,1213.021 L120.7031,1201.818 L120.8984,1215.776 L121.0938,1217.796 L121.2891,1214.49 L121.4844,1172.25 L121.6797,1207.879 L121.875,1218.898 L122.0703,1203.287 L122.2656,1197.411 L122.4609,1217.796 L122.6563,1189.697 L122.8516,1193.003 L123.0469,1150.578 L123.2422,1217.613 L123.4375,1217.429 L123.6328,1213.388 L123.8281,1210.634 L124.0234,1218.347 L124.2188,1207.695 L124.4141,1213.572 L124.6094,1200.9 L124.8047,1219.449 L125,1183.453 L125.1953,1155.537 L125.3906,1217.613 L125.5859,1190.799 L125.7813,1161.414 L125.9766,1199.063 L126.1719,1216.694 L126.3672,1218.531 L126.5625,1210.45 L126.7578,1217.796 L126.9531,1212.654 L127.1484,1218.714 L127.3438,1182.534 L127.5391,1218.898 L127.7344,1206.042 L127.9297,1175.556 L128.125,1203.471 L128.3203,1213.205 L128.5156,1216.511 L128.7109,1211.736 L128.9063,1218.347 L129.1016,1218.163 L129.2969,1210.634 L129.4922,1202.92 L129.6875,1191.534 L129.8828,1216.694 L130.0781,1187.677 L130.2734,1214.123 L130.4688,1218.898 L130.6641,1182.351 L130.8594,1219.449 L131.0547,1184.922 L131.25,1216.694 L131.4453,1197.227 L131.6406,1201.635 L131.8359,1153.884 L132.0313,1207.695 L132.2266,1197.961 L132.4219,1217.796 L132.6172,1212.47 L132.8125,1155.905 L133.0078,1202.553 L133.2031,1216.694 L133.3984,1200.165 L133.5938,1183.269 L133.7891,1171.699 L133.9844,1218.531 L134.1797,1187.126 L134.375,1175.923 L134.5703,1193.37 L134.7656,1186.024 L134.9609,1198.145 L135.1563,1213.205 L135.3516,1216.694 L135.5469,1207.879 L135.7422,1212.838 L135.9375,1182.534 L136.1328,1217.98 L136.3281,1202.369 L136.5234,1219.082 L136.7188,1173.535 L136.9141,1215.96 L137.1094,1201.818 L137.3047,1205.308 L137.5,1129.275 L137.6953,1174.086 L137.8906,1204.94 L138.0859,1217.796 L138.2813,1209.348 L138.4766,1204.206 L138.6719,1214.49 L138.8672,1184.187 L139.0625,1172.801 L139.2578,1187.309 L139.4531,1201.818 L139.6484,1215.592 L139.8438,1167.291 L140.0391,1197.778 L140.2344,1203.471 L140.4297,1174.454 L140.625,1168.026 L140.8203,1211.919 L141.0156,1212.838 L141.2109,1216.327 L141.4063,1219.082 L141.6016,1219.082 L141.7969,1210.45 L141.9922,1214.307 L142.1875,1213.939 L142.3828,1217.796 L142.5781,1212.838 L142.7734,1151.313 L142.9688,1169.311 L143.1641,1207.144 L143.3594,1209.348 L143.5547,1219.265 L143.75,1191.35 L143.9453,1196.125 L144.1406,1217.796 L144.3359,1188.779 L144.5313,1165.822 L144.7266,1219.082 L144.9219,1211.185 L145.1172,1199.247 L145.3125,1218.163 L145.5078,1206.41 L145.7031,1156.455 L145.8984,1140.661 L146.0938,1190.248 L146.2891,1216.694 L146.4844,1189.697 L146.6797,1215.592 L146.875,1165.087 L147.0703,1217.245 L147.2656,1215.592 L147.4609,1216.694 L147.6563,1219.082 L147.8516,1161.414 L148.0469,1211.185 L148.2422,1217.98 L148.4375,1165.087 L148.6328,1209.532 L148.8281,1216.511 L149.0234,1210.634 L149.2188,1170.597 L149.4141,1169.128 L149.6094,1218.714 L149.8047,1206.41 L150,1178.678 L150.1953,1219.265 L150.3906,1196.676 L150.5859,1217.062 L150.7813,1197.227 L150.9766,1207.328 L151.1719,1217.98 L151.3672,1193.554 L151.5625,1218.714 L151.7578,1200.533 L151.9531,1218.898 L152.1484,1211.368 L152.3438,1200.9 L152.5391,1193.003 L152.7344,1215.96 L152.9297,1217.613 L153.125,1217.062 L153.3203,1155.354 L153.5156,1210.266 L153.7109,1205.491 L153.9063,1191.35 L154.1016,1217.429 L154.2969,1218.898 L154.4922,1183.085 L154.6875,1218.898 L154.8828,1217.613 L155.0781,1202.002 L155.2734,1200.533 L155.4688,1218.898 L155.6641,1204.573 L155.8594,1200.165 L156.0547,1217.613 L156.25,1197.227 L156.4453,1217.429 L156.6406,1214.858 L156.8359,1215.592 L157.0313,1210.083 L157.2266,1196.492 L157.4219,1216.694 L157.6172,1188.044 L157.8125,1194.105 L158.0078,1218.163 L158.2031,1205.491 L158.3984,1217.613 L158.5938,1212.286 L158.7891,1218.163 L158.9844,1211.552 L159.1797,1151.497 L159.375,1197.411 L159.5703,1180.882 L159.7656,1218.347 L159.9609,1197.043 L160.1563,1214.307 L160.3516,1181.065 L160.5469,1198.88 L160.7422,1218.714 L160.9375,1218.531 L161.1328,1190.248 L161.3281,1219.816 L161.5234,1215.96 L161.7188,1165.638 L161.9141,1169.862 L162.1094,1219.082 L162.3047,1215.96 L162.5,1191.717 L162.6953,1219.449 L162.8906,1212.286 L163.0859,1217.796 L163.2813,1214.858 L163.4766,1214.307 L163.6719,1217.796 L163.8672,1213.756 L164.0625,1219.082 L164.2578,1177.025 L164.4531,1163.802 L164.6484,1201.635 L164.8438,1219.082 L165.0391,1195.39 L165.2344,1166.557 L165.4297,1205.675 L165.625,1214.674 L165.8203,1220 L166.0156,1218.163 L166.2109,1150.028 L166.4063,1219.265 L166.6016,1214.858 L166.7969,1210.45 L166.9922,1213.388 L167.1875,1212.654 L167.3828,1198.329 L167.5781,1193.554 L167.7734,1217.429 L167.9688,1199.431 L168.1641,1182.351 L168.3594,1216.327 L168.5547,1218.898 L168.75,1209.164 L168.9453,1218.898 L169.1406,1215.96 L169.3359,1193.921 L169.5313,1218.531 L169.7266,1171.332 L169.9219,1217.98 L170.1172,1121.928 L170.3125,1217.796 L170.5078,1205.859 L170.7031,1218.347 L170.8984,1204.94 L171.0938,1169.679 L171.2891,1181.432 L171.4844,1163.434 L171.6797,1203.655 L171.875,1207.879 L172.0703,1211.368 L172.2656,1202.002 L172.4609,1187.677 L172.6563,1163.618 L172.8516,1209.899 L173.0469,1189.146 L173.2422,1217.062 L173.4375,1167.291 L173.6328,1140.294 L173.8281,1214.307 L174.0234,1213.756 L174.2188,1195.39 L174.4141,1206.226 L174.6094,1166.373 L174.8047,1217.98 L175,1217.245 L175.1953,1201.084 L175.3906,1175.556 L175.5859,1218.898 L175.7813,1219.082 L175.9766,1168.76 L176.1719,1216.511 L176.3672,1214.307 L176.5625,1215.592 L176.7578,1199.982 L176.9531,1218.163 L177.1484,1198.329 L177.3438,1191.901 L177.5391,1218.163 L177.7344,1197.594 L177.9297,1204.022 L178.125,1184.555 L178.3203,1218.898 L178.5156,1218.163 L178.7109,1218.898 L178.9063,1204.022 L179.1016,1201.818 L179.2969,1197.961 L179.4922,1132.948 L179.6875,1216.694 L179.8828,1141.947 L180.0781,1154.619 L180.2735,1194.839 L180.4688,1219.082 L180.6641,1188.228 L180.8594,1170.781 L181.0547,1217.98 L181.25,1218.898 L181.4453,1211.001 L181.6406,1213.205 L181.8359,1216.143 L182.0313,1216.511 L182.2266,1194.656 L182.4219,1087.034 L182.6172,1205.859 L182.8125,1184.738 L183.0078,1219.265 L183.2031,1217.796 L183.3984,1209.164 L183.5938,1174.821 L183.7891,1171.332 L183.9844,1217.062 L184.1797,1219.082 L184.375,1201.635 L184.5703,1217.062 L184.7656,1218.898 L184.9609,1205.675 L185.1563,1211.736 L185.3516,1215.041 L185.5469,1214.858 L185.7422,1181.432 L185.9375,1198.696 L186.1328,1217.613 L186.3281,1213.756 L186.5234,1215.409 L186.7188,1218.714 L186.9141,1214.674 L187.1094,1218.714 L187.3047,1114.766 L187.5,1218.531 L187.6953,1188.595 L187.8906,1159.578 L188.086,1216.878 L188.2813,1208.797 L188.4766,1158.108 L188.6719,1217.429 L188.8672,1214.858 L189.0625,1217.98 L189.2578,1215.041 L189.4531,1192.268 L189.6484,1200.165 L189.8438,1207.879 L190.0391,1217.062 L190.2344,1220 L190.4297,1194.105 L190.625,1213.021 L190.8203,1153.701 L191.0156,1218.347 L191.2109,1211.368 L191.4063,1214.674 L191.6016,1203.838 L191.7969,1213.756 L191.9922,1190.248 L192.1875,1168.209 L192.3828,1196.492 L192.5781,1172.984 L192.7734,1218.347 L192.9688,1201.084 L193.1641,1202.553 L193.3594,1206.961 L193.5547,1183.82 L193.75,1203.287 L193.9453,1196.676 L194.1406,1219.265 L194.3359,1143.967 L194.5313,1196.309 L194.7266,1196.676 L194.9219,1199.798 L195.1172,1212.47 L195.3125,1198.329 L195.5078,1217.98 L195.7031,1218.898 L195.8985,1214.49 L196.0938,1205.859 L196.2891,1219.082 L196.4844,1217.98 L196.6797,1216.327 L196.875,1219.265 L197.0703,1173.719 L197.2656,1215.041 L197.4609,1216.327 L197.6563,1202.369 L197.8516,1185.84 L198.0469,1177.025 L198.2422,1202.186 L198.4375,1183.82 L198.6328,1218.898 L198.8281,1218.898 L199.0234,1211.368 L199.2188,1211.368 L199.4141,1216.694 L199.6094,1186.759 L199.8047,1208.246 L200,1183.269 L200.1953,1218.347 L200.3906,1210.083 L200.5859,1218.898 L200.7813,1192.635 L200.9766,1197.411 L201.1719,1188.044 L201.3672,1216.694 L201.5625,1215.225 L201.7578,1154.068 L201.9531,1218.347 L202.1484,1180.882 L202.3438,1197.778 L202.5391,1216.878 L202.7344,1184.004 L202.9297,1201.818 L203.125,1220 L203.3203,1159.027 L203.5156,1209.899 L203.711,1201.635 L203.9063,1204.389 L204.1016,1168.026 L204.2969,1219.265 L204.4922,1206.593 L204.6875,1211.736 L204.8828,1117.153 L205.0781,1217.062 L205.2734,1218.898 L205.4688,1217.062 L205.6641,1184.738 L205.8594,1172.433 L206.0547,1216.878 L206.25,1217.429 L206.4453,1188.411 L206.6406,1219.082 L206.8359,1214.674 L207.0313,1213.756 L207.2266,1194.472 L207.4219,1208.613 L207.6172,1163.802 L207.8125,1201.267 L208.0078,1196.676 L208.2031,1204.022 L208.3984,1217.98 L208.5938,1181.432 L208.7891,1206.961 L208.9844,1218.898 L209.1797,1132.029 L209.375,1182.167 L209.5703,1219.449 L209.7656,1216.143 L209.9609,1214.307 L210.1563,1215.592 L210.3516,1208.613 L210.5469,1202.92 L210.7422,1216.511 L210.9375,1209.532 L211.1328,1217.062 L211.3281,1198.145 L211.5235,1213.756 L211.7188,1190.983 L211.9141,1184.922 L212.1094,1207.879 L212.3047,1187.493 L212.5,1216.143 L212.6953,1139.192 L212.8906,1216.878 L213.0859,1219.082 L213.2813,1215.776 L213.4766,1204.573 L213.6719,1216.878 L213.8672,1184.922 L214.0625,1176.841 L214.2578,1200.533 L214.4531,1193.003 L214.6484,1215.96 L214.8438,1161.781 L215.0391,1214.858 L215.2344,1180.331 L215.4297,1186.391 L215.625,1180.331 L215.8203,1218.714 L216.0156,1181.432 L216.2109,1170.964 L216.4063,1211.368 L216.6016,1200.533 L216.7969,1211.919 L216.9922,1214.307 L217.1875,1072.158 L217.3828,1216.327 L217.5781,1218.898 L217.7734,1190.064 L217.9688,1202.369 L218.1641,1196.676 L218.3594,1218.531 L218.5547,1145.253 L218.75,1215.96 L218.9453,1195.574 L219.1406,1074.729 L219.336,1198.512 L219.5313,1186.208 L219.7266,1199.614 L219.9219,1167.842 L220.1172,1211.552 L220.3125,1209.899 L220.5078,1217.796 L220.7031,1218.163 L220.8984,1218.531 L221.0938,1199.431 L221.2891,1182.534 L221.4844,1196.125 L221.6797,1195.207 L221.875,1217.98 L222.0703,1217.062 L222.2656,1189.146 L222.4609,1214.674 L222.6563,1217.062 L222.8516,1165.455 L223.0469,1217.613 L223.2422,1192.084 L223.4375,1215.776 L223.6328,1215.776 L223.8281,1217.613 L224.0234,1211.552 L224.2188,1217.98 L224.4141,1206.226 L224.6094,1217.796 L224.8047,1201.818 L225,1213.205 L225.1953,1205.124 L225.3906,1214.49 L225.5859,1219.082 L225.7813,1205.675 L225.9766,1218.898 L226.1719,1181.432 L226.3672,1208.246 L226.5625,1201.818 L226.7578,1213.756 L226.9531,1182.167 L227.1485,1188.228 L227.3438,1199.431 L227.5391,1215.96 L227.7344,1200.9 L227.9297,1190.432 L228.125,1163.067 L228.3203,1194.288 L228.5156,1219.265 L228.7109,1176.29 L228.9063,1218.898 L229.1016,1208.43 L229.2969,1180.882 L229.4922,1217.796 L229.6875,1218.714 L229.8828,1217.98 L230.0781,1201.818 L230.2734,1218.347 L230.4688,1194.839 L230.6641,1188.411 L230.8594,1123.214 L231.0547,1216.878 L231.25,1217.245 L231.4453,1212.286 L231.6406,1191.35 L231.8359,1208.063 L232.0313,1213.572 L232.2266,1206.593 L232.4219,1202.92 L232.6172,1206.961 L232.8125,1193.737 L233.0078,1219.816 L233.2031,1168.76 L233.3984,1175.005 L233.5938,1212.103 L233.7891,1210.266 L233.9844,1198.512 L234.1797,1218.714 L234.375,1197.778 L234.5703,1219.082 L234.7656,1113.297 L234.961,1191.166 L235.1563,1213.205 L235.3516,1198.145 L235.5469,1193.554 L235.7422,1173.719 L235.9375,1200.716 L236.1328,1218.898 L236.3281,1123.398 L236.5234,1209.899 L236.7188,1165.822 L236.9141,1206.593 L237.1094,1162.7 L237.3047,1186.759 L237.5,1200.9 L237.6953,1214.307 L237.8906,1215.592 L238.0859,1215.96 L238.2813,1170.781 L238.4766,1219.082 L238.6719,1209.164 L238.8672,1218.714 L239.0625,1215.592 L239.2578,1218.531 L239.4531,1184.187 L239.6484,1219.449 L239.8438,1210.083 L240.0391,1180.147 L240.2344,1213.572 L240.4297,1167.107 L240.625,1206.41 L240.8203,1178.678 L241.0156,1207.695 L241.2109,1218.898 L241.4063,1148.926 L241.6016,1216.327 L241.7969,1187.126 L241.9922,1207.695 L242.1875,1185.106 L242.3828,1211.736 L242.5781,1192.819 L242.7735,1200.716 L242.9688,1218.163 L243.1641,1213.756 L243.3594,1120.459 L243.5547,1218.347 L243.75,1205.308 L243.9453,1178.678 L244.1406,1218.898 L244.3359,1214.49 L244.5313,1174.454 L244.7266,1200.9 L244.9219,1195.758 L245.1172,1206.593 L245.3125,1168.026 L245.5078,1186.208 L245.7031,1204.94 L245.8984,1183.82 L246.0938,1216.878 L246.2891,1202.553 L246.4844,1218.714 L246.6797,1178.31 L246.875,1218.347 L247.0703,1193.186 L247.2656,1169.128 L247.4609,1216.694 L247.6563,1126.52 L247.8516,1217.062 L248.0469,1219.082 L248.2422,1159.027 L248.4375,1180.882 L248.6328,1219.082 L248.8281,1218.163 L249.0234,1180.331 L249.2188,1184.371 L249.4141,1215.96 L249.6094,1218.898 L249.8047,1182.902 L250,1203.655 L250.1953,1201.818 L250.3906,1217.429 L250.586,1216.143 L250.7813,1195.941 L250.9766,1145.436 L251.1719,1164.536 L251.3672,1214.858 L251.5625,1202.186 L251.7578,1215.225 L251.9531,1217.429 L252.1484,1216.878 L252.3438,1206.777 L252.5391,1199.614 L252.7344,1210.266 L252.9297,1187.493 L253.125,1218.898 L253.3203,1214.674 L253.5156,1202.553 L253.7109,1214.49 L253.9063,1217.245 L254.1016,1212.286 L254.2969,1211.185 L254.4922,1218.714 L254.6875,1218.898 L254.8828,1218.898 L255.0781,1173.168 L255.2734,1214.307 L255.4688,1201.818 L255.6641,1219.082 L255.8594,1219.082 L256.0547,1217.98 L256.25,1204.94 L256.4453,1213.756 L256.6406,1205.491 L256.8359,1201.267 L257.0313,1020 L257.2266,1208.43 L257.4219,1210.634 L257.6172,1142.681 L257.8125,1192.635 L258.0078,1211.185 L258.2031,1217.98 L258.3984,1217.429 L258.5938,1202.369 L258.7891,1217.245 L258.9844,1212.286 L259.1797,1214.307 L259.375,1206.41 L259.5703,1201.818 L259.7656,1209.899 L259.9609,1208.981 L260.1563,1156.272 L260.3516,1180.147 L260.5469,1159.578 L260.7422,1149.109 L260.9375,1218.531 L261.1328,1165.271 L261.3281,1216.878 L261.5234,1189.697 L261.7188,1183.269 L261.9141,1181.984 L262.1094,1216.694 L262.3047,1218.898 L262.5,1217.613 L262.6953,1209.348 L262.8906,1217.245 L263.0859,1213.756 L263.2813,1182.351 L263.4766,1195.207 L263.6719,1178.861 L263.8672,1201.451 L264.0625,1217.062 L264.2578,1218.898 L264.4531,1217.98 L264.6484,1204.573 L264.8438,1205.859 L265.0391,1217.613 L265.2344,1176.29 L265.4297,1218.898 L265.625,1218.163 L265.8203,1192.452 L266.0156,1217.613 L266.2109,1217.613 L266.4063,1217.245 L266.6016,1210.266 L266.7969,1211.368 L266.9922,1169.862 L267.1875,1211.736 L267.3828,1218.347 L267.5781,1136.804 L267.7734,1187.86 L267.9688,1207.511 L268.1641,1204.94 L268.3594,1214.858 L268.5547,1218.898 L268.75,1165.087 L268.9453,1217.98 L269.1406,1194.656 L269.3359,1217.429 L269.5313,1209.348 L269.7266,1216.511 L269.9219,1186.208 L270.1172,1197.961 L270.3125,1208.43 L270.5078,1139.008 L270.7031,1206.777 L270.8984,1219.082 L271.0938,1194.288 L271.2891,1202.92 L271.4844,1205.308 L271.6797,1201.451 L271.875,1135.151 L272.0703,1163.251 L272.2656,1217.796 L272.4609,1182.351 L272.6563,1211.185 L272.8516,1218.163 L273.0469,1200.165 L273.2422,1208.797 L273.4375,1217.613 L273.6328,1206.41 L273.8281,1157.374 L274.0234,1204.389 L274.2188,1198.329 L274.4141,1185.289 L274.6094,1198.696 L274.8047,1172.617 L275,1198.329 L275.1953,1214.674 L275.3906,1191.717 L275.5859,1194.472 L275.7813,1157.006 L275.9766,1188.962 L276.1719,1163.618 L276.3672,1149.66 L276.5625,1217.613 L276.7578,1214.674 L276.9531,1218.163 L277.1484,1218.531 L277.3438,1163.251 L277.5391,1213.756 L277.7344,1204.573 L277.9297,1197.411 L278.125,1217.98 L278.3203,1192.084 L278.5156,1186.208 L278.7109,1195.023 L278.9063,1216.694 L279.1016,1179.045 L279.2969,1186.759 L279.4922,1182.902 L279.6875,1217.429 L279.8828,1219.816 L280.0781,1207.511 L280.2734,1144.702 L280.4688,1127.989 L280.6641,1217.98 L280.8594,1132.764 L281.0547,1217.613 L281.25,1218.714 L281.4453,1216.511 L281.6406,1213.388 L281.8359,1197.594 L282.0313,1200.716 L282.2266,1194.472 L282.4219,1151.497 L282.6172,1217.613 L282.8125,1209.164 L283.0078,1190.248 L283.2031,1210.083 L283.3984,1216.327 L283.5938,1176.29 L283.7891,1217.98 L283.9844,1219.265 L284.1797,1206.777 L284.375,1216.511 L284.5703,1217.796 L284.7656,1175.188 L284.9609,1215.592 L285.1563,1217.796 L285.3516,1209.164 L285.5469,1121.561 L285.7422,1217.613 L285.9375,1212.838 L286.1328,1217.613 L286.3281,1218.898 L286.5234,1185.289 L286.7188,1187.86 L286.9141,1209.899 L287.1094,1205.308 L287.3047,1217.98 L287.5,1208.063 L287.6953,1173.903 L287.8906,1204.022 L288.0859,1206.226 L288.2813,1219.265 L288.4766,1216.694 L288.6719,1218.531 L288.8672,1214.49 L289.0625,1198.88 L289.2578,1177.759 L289.4531,1195.023 L289.6484,1200.349 L289.8438,1219.449 L290.0391,1134.05 L290.2344,1210.45 L290.4297,1215.776 L290.625,1176.841 L290.8203,1219.449 L291.0156,1201.635 L291.2109,1200.716 L291.4063,1124.316 L291.6016,1175.556 L291.7969,1199.063 L291.9922,1144.885 L292.1875,1217.796 L292.3828,1217.613 L292.5781,1211.552 L292.7734,1215.776 L292.9688,1187.493 L293.1641,1205.859 L293.3594,1151.13 L293.5547,1216.511 L293.75,1217.613 L293.9453,1191.166 L294.1406,1217.245 L294.3359,1218.347 L294.5313,1167.107 L294.7266,1218.898 L294.9219,1218.898 L295.1172,1200.533 L295.3125,1185.289 L295.5078,1185.473 L295.7031,1177.208 L295.8984,1207.879 L296.0938,1205.675 L296.2891,1201.084 L296.4844,1219.265 L296.6797,1217.98 L296.875,1178.127 L297.0703,1176.657 L297.2656,1215.041 L297.4609,1205.859 L297.6563,1198.88 L297.8516,1215.96 L298.0469,1202.92 L298.2422,1202.369 L298.4375,1160.863 L298.6328,1205.859 L298.8281,1214.307 L299.0234,1175.556 L299.2188,1216.694 L299.4141,1151.68 L299.6094,1173.535 L299.8047,1216.327 L300,1214.307 L300.1953,1197.594 L300.3906,1190.248 L300.5859,1201.635 L300.7813,1164.169 L300.9766,1189.881 L301.1719,1208.981 L301.3672,1216.511 L301.5625,1218.898 L301.7578,1217.613 L301.9531,1214.307 L302.1484,1152.231 L302.3438,1212.47 L302.5391,1216.694 L302.7344,1218.898 L302.9297,1204.206 L303.125,1217.98 L303.3203,1214.49 L303.5156,1194.656 L303.711,1217.613 L303.9063,1202.369 L304.1016,1216.511 L304.2969,1137.539 L304.4922,1218.898 L304.6875,1202.186 L304.8828,1214.674 L305.0781,1218.714 L305.2734,1179.045 L305.4688,1121.745 L305.6641,1219.082 L305.8594,1195.758 L306.0547,1204.94 L306.25,1205.859 L306.4453,1140.478 L306.6407,1197.594 L306.8359,1214.674 L307.0313,1217.245 L307.2266,1185.473 L307.4219,1155.354 L307.6172,1216.511 L307.8125,1203.471 L308.0078,1209.532 L308.2031,1208.797 L308.3984,1218.714 L308.5938,1216.878 L308.7891,1208.246 L308.9844,1190.799 L309.1797,1218.898 L309.375,1173.903 L309.5703,1200.165 L309.7656,1211.001 L309.9609,1210.634 L310.1563,1192.819 L310.3516,1218.898 L310.5469,1169.862 L310.7422,1217.245 L310.9375,1199.798 L311.1328,1213.939 L311.3281,1217.062 L311.5235,1189.146 L311.7188,1202.002 L311.9141,1208.43 L312.1094,1213.939 L312.3047,1219.082 L312.5,1147.089 L312.6953,1195.207 " stroke="blue" fill="none" />
<text x="50" y="1270" font-family="Arial" font-size="12" fill="black">Policy Loss</text>
<text x="50" y="1285" font-family="Arial" font-size="10" fill="black">0.7137924</text>
<text x="50" y="1500" font-family="Arial" font-size="10" fill="black">0.6885294</text>
<path d="M50,1304.719 L75,1290 L100,1364.363 L125,1291.855 L150,1293.936 L175,1422.065 L200,1490 L225,1423.297 " stroke="blue" fill="none" />
<text x="50" y="1540" font-family="Arial" font-size="12" fill="black">Value Loss</text>
<text x="50" y="1555" font-family="Arial" font-size="10" fill="black">0.01833257</text>
<text x="50" y="1770" font-family="Arial" font-size="10" fill="black">0.01618772</text>
<path d="M50,1576.349 L75,1630.636 L100,1709.184 L125,1590.937 L150,1560.001 L175,1760 L200,1673.418 L225,1672.015 " stroke="blue" fill="none" />
<text x="50" y="1810" font-family="Arial" font-size="12" fill="black">Learning Rate</text>
<text x="50" y="1825" font-family="Arial" font-size="10" fill="black">9.9999E-05</text>
<text x="50" y="2040" font-family="Arial" font-size="10" fill="black">9.999199E-05</text>
<path d="M50,1947.6 L75,1959.408 L100,1971.131 L125,1982.939 L150,1994.661 L175,2006.469 L200,2018.192 L225,2030 " stroke="blue" fill="none" />
<text x="50" y="2080" font-family="Arial" font-size="12" fill="black">Entropy</text>
<text x="50" y="2095" font-family="Arial" font-size="10" fill="black">3.018868</text>
<text x="50" y="2310" font-family="Arial" font-size="10" fill="black">3</text>
<path d="M50,2300 L75,2101.251 L100,2100.01 L125,2100 L150,2100 L175,2100 L200,2100 L225,2100 " stroke="blue" fill="none" />
<text x="750" y="730" font-family="Arial" font-size="12" fill="black">Simplified</text>
<text x="750" y="745" font-family="Arial" font-size="10" fill="black">3.421492</text>
<text x="750" y="960" font-family="Arial" font-size="10" fill="black">0.1680587</text>
<path d="M753.5156,950 L757.2266,935.213 L760.9375,917.6077 L764.6484,893.2598 L768.3594,895.9905 L772.0703,865.5485 L775.7813,894.0385 L779.4922,842.0564 L783.2031,892.998 L786.9141,858.9819 L790.625,853.8585 L794.3359,856.3814 L798.0469,846.4358 L801.7578,858.6705 L805.4688,771.8127 L809.1797,830.4086 L812.8906,815.5186 L816.6016,902.8843 L820.3125,828.4793 L824.0234,863.4332 L827.7344,849.1177 L831.4453,867.093 L835.1563,797.3685 L838.8672,835.3625 L842.5781,845.0295 L846.2891,788.6675 L850,825.1901 L853.7109,873.4035 L857.4219,886.6563 L861.1328,844.5604 L864.8438,863.8735 L868.5547,854.9727 L872.2656,817.9551 L875.9766,795.4479 L879.6875,856.4195 L883.3984,791.1 L887.1094,880.7829 L890.8203,811.6057 L894.5313,820.4352 L898.2422,869.7954 L901.9531,855.4682 L905.6641,811.236 L909.375,817.2769 L913.0859,864.42 L916.7969,809.0931 L920.5078,750 L924.2188,873.2362 L927.9297,862.1339 L931.6406,826.613 L935.3516,822.1946 L939.0625,809.2379 L942.7734,818.4175 L946.4844,815.5112 L950.1953,800.2756 L953.9063,860.6718 L957.6172,809.8787 L961.3281,817.2858 L965.0391,862.5944 L968.75,836.7519 L972.4609,803.9115 L976.1719,796.1918 L979.8828,829.4343 L983.5938,785.284 L987.3047,862.842 L991.0156,837.5722 L994.7266,797.9189 L998.4375,822.8368 L1002.148,813.1242 L1005.859,840.1387 L1009.57,830.633 L1012.695,842.7598 " stroke="blue" fill="none" />
<text x="750" y="1000" font-family="Arial" font-size="12" fill="black">Simplified</text>
<text x="750" y="1015" font-family="Arial" font-size="10" fill="black">188.8947</text>
<text x="750" y="1230" font-family="Arial" font-size="10" fill="black">16.78947</text>
<path d="M753.5156,1220 L757.2266,1204.22 L760.9375,1184.709 L764.6484,1162.997 L768.3594,1164.893 L772.0703,1133.456 L775.7813,1161.713 L779.4922,1111.376 L783.2031,1160.979 L786.9141,1127.095 L790.625,1122.936 L794.3359,1125.015 L798.0469,1117.37 L801.7578,1128.196 L805.4688,1041.529 L809.1797,1101.223 L812.8906,1083.18 L816.6016,1173.517 L820.3125,1099.205 L824.0234,1132.844 L827.7344,1119.755 L831.4453,1135.841 L835.1563,1067.217 L838.8672,1100.612 L842.5781,1114.862 L846.2891,1060.673 L850,1094.128 L853.7109,1140.55 L857.4219,1155.596 L861.1328,1113.272 L864.8438,1132.11 L868.5547,1124.954 L872.2656,1087.217 L875.9766,1065.749 L879.6875,1125.321 L883.3984,1063.119 L887.1094,1151.193 L890.8203,1078.777 L894.5313,1089.908 L898.2422,1139.021 L901.9531,1125.505 L905.6641,1081.468 L909.375,1086.177 L913.0859,1134.006 L916.7969,1078.226 L920.5078,1020 L924.2188,1142.385 L927.9297,1130.703 L931.6406,1095.841 L935.3516,1091.743 L939.0625,1076.575 L942.7734,1087.584 L946.4844,1084.832 L950.1953,1070.336 L953.9063,1128.502 L957.6172,1080.061 L961.3281,1088.624 L965.0391,1131.927 L968.75,1107.768 L972.4609,1074.495 L976.1719,1065.138 L979.8828,1099.694 L983.5938,1056.269 L987.3047,1132.783 L991.0156,1106.116 L994.7266,1068.746 L998.4375,1094.495 L1002.148,1082.63 L1005.859,1110.336 L1009.57,1098.349 L1012.695,1112.844 " stroke="blue" fill="none" />
</svg>
