<svg width="2000" height="2500" xmlns="http://www.w3.org/2000/svg">
<text x="10" y="20" font-family="Arial" font-size="26" fill="black"> [Walker] Training Session</text>
<text x="10" y="50" font-family="Arial" font-size="16" fill="black">[Statistics]</text>
<text x="50" y="70" font-family="Arial" font-size="12" fill="black">Started at: 2:28:58 PM, Thursday, February 29, 2024</text>
<text x="50" y="90" font-family="Arial" font-size="12" fill="black">Finished at: 2:32:18 PM, Thursday, February 29, 2024</text>
<text x="50" y="110" font-family="Arial" font-size="12" fill="black">Training Session Time: 0 hrs : 3 min : 13 sec</text>
<text x="50" y="130" font-family="Arial" font-size="12" fill="black">Inference Time: 0 hrs : 31 min : 50 sec        [Device: CPU]</text>
<text x="50" y="150" font-family="Arial" font-size="12" fill="black">Update Time: 0 hrs : 1 min : 45 sec        [Per iteration: 0 hrs : 0 min : 20.363 sec]        [Device: GPU]</text>
<text x="50" y="170" font-family="Arial" font-size="12" fill="black">Episode Count: 978</text>
<text x="50" y="190" font-family="Arial" font-size="12" fill="black">Inference Steps: 36000</text>
<text x="50" y="210" font-family="Arial" font-size="12" fill="black">Iterations: 6</text>
<text x="50" y="230" font-family="Arial" font-size="12" fill="black">Parallel Agents: 32</text>
<text x="50" y="250" font-family="Arial" font-size="12" fill="black">Timescale: 1</text>
<text x="50" y="270" font-family="Arial" font-size="12" fill="black">Trainer: PPO</text>
<text x="10" y="320" font-family="Arial" font-size="16" fill="black">[Hyperparameters]</text>
<text x="50" y="340" font-family="Arial" font-size="12" fill="black">Buffer Size: 6000        [Batch Size: 300       (x20)]</text>
<text x="50" y="360" font-family="Arial" font-size="12" fill="black">Num Epoch: 8</text>
<text x="50" y="380" font-family="Arial" font-size="12" fill="black">Time Horizon: 512</text>
<text x="50" y="400" font-family="Arial" font-size="12" fill="black">Gradient Cliping by Norm: 0.5</text>
<text x="50" y="420" font-family="Arial" font-size="12" fill="black">Learning Rate Schedule: False    </text>
<text x="10" y="470" font-family="Arial" font-size="16" fill="black">[Behaviour]</text>
<text x="50" y="490" font-family="Arial" font-size="12" fill="black">Space Size: 120</text>
<text x="50" y="510" font-family="Arial" font-size="12" fill="black">Continuous Actions: 36 [Standard Deviation: Fixed]     [Value: 0.24]</text>
<text x="50" y="530" font-family="Arial" font-size="12" fill="black">Discrete Actions: 0</text>
<text x="50" y="550" font-family="Arial" font-size="12" fill="black">TargetFPS: 100 (physics update rate)</text>
<text x="50" y="570" font-family="Arial" font-size="12" fill="black">Observations Normalization: True</text>
<text x="10" y="620" font-family="Arial" font-size="16" fill="black">[Decision Requester]</text>
<text x="50" y="640" font-family="Arial" font-size="12" fill="black">Max Step: 10000</text>
<text x="50" y="660" font-family="Arial" font-size="12" fill="black">Decision Period: 5      [Actions Between Decisions: True]</text>
<text x="10" y="710" font-family="Arial" font-size="16" fill="black">[Graphs]</text>
<text x="50" y="730" font-family="Arial" font-size="12" fill="black">Episode Reward (978)</text>
<text x="50" y="745" font-family="Arial" font-size="10" fill="black">0.9739999</text>
<text x="50" y="960" font-family="Arial" font-size="10" fill="black">0.254</text>
<path d="M50,870.8333 L50.39063,869.4445 L50.78125,869.4445 L51.17188,869.4445 L51.5625,847.2222 L51.95313,847.2222 L52.34375,868.0555 L52.73438,843.0555 L53.125,843.0555 L53.51563,843.0555 L53.90625,819.4445 L54.29688,819.4445 L54.6875,818.0555 L55.07813,816.6667 L55.46875,816.6667 L55.85938,816.6666 L56.25,816.6667 L56.64063,794.4445 L57.03125,815.2778 L57.42188,794.4445 L57.8125,794.4445 L58.20313,813.8889 L58.59375,813.8889 L58.98438,793.0555 L59.375,813.8889 L59.76563,813.8889 L60.15625,811.1111 L60.54688,788.8889 L60.9375,787.5 L61.32813,787.5 L61.71875,786.1111 L62.10938,780.5555 L62.5,926.3889 L62.89063,875 L63.28125,872.2222 L63.67188,870.8333 L64.0625,866.6667 L64.45313,844.4445 L64.84375,822.2222 L65.23438,847.2222 L65.625,870.8333 L66.01563,870.8333 L66.40625,872.2222 L66.79688,870.8333 L67.1875,869.4445 L67.57813,833.3333 L67.96875,840.2778 L68.35938,822.2222 L68.75,815.2778 L69.14063,843.0555 L69.53125,795.8333 L69.92188,818.0555 L70.3125,790.2778 L70.70313,791.6666 L71.09375,855.5555 L71.48438,848.6111 L71.875,791.6666 L72.26563,813.8889 L72.65625,841.6667 L73.04688,816.6666 L73.4375,813.8889 L73.82813,897.2222 L74.21875,790.2778 L74.60938,779.1667 L75,777.7778 L75.39063,870.8333 L75.78125,841.6667 L76.17188,875 L76.5625,847.2222 L76.95313,872.2222 L77.34375,845.8333 L77.73438,897.2222 L78.125,791.6666 L78.51563,847.2222 L78.90625,844.4445 L79.29688,898.6111 L79.6875,805.5555 L80.07813,866.6667 L80.46875,870.8333 L80.85938,833.3333 L81.25,868.0555 L81.64063,794.4445 L82.03125,762.5 L82.42188,836.1111 L82.8125,813.8889 L83.20313,848.6111 L83.59375,794.4445 L83.98438,845.8333 L84.375,787.5 L84.76563,948.6111 L85.15625,793.0555 L85.54688,836.1111 L85.9375,872.2222 L86.32813,791.6667 L86.71875,759.7222 L87.10938,812.5 L87.5,875 L87.89063,894.4445 L88.28125,890.2778 L88.67188,755.5555 L89.0625,870.8333 L89.45313,815.2778 L89.84375,840.2778 L90.23438,843.0555 L90.625,923.6111 L91.01563,875 L91.40625,926.3889 L91.79688,873.6111 L92.1875,816.6667 L92.57813,872.2222 L92.96875,815.2778 L93.35938,819.4445 L93.75,787.5 L94.14063,818.0555 L94.53125,869.4445 L94.92188,870.8333 L95.3125,816.6667 L95.70313,869.4445 L96.09375,759.7222 L96.48438,815.2778 L96.875,816.6667 L97.26563,869.4445 L97.65625,891.6667 L98.04688,847.2222 L98.4375,786.1111 L98.82813,816.6667 L99.21875,791.6667 L99.60938,868.0555 L100,813.8889 L100.3906,787.5 L100.7813,793.0555 L101.1719,791.6666 L101.5625,793.0555 L101.9531,815.2778 L102.3438,875 L102.7344,813.8889 L103.125,870.8333 L103.5156,816.6666 L103.9063,779.1667 L104.2969,841.6667 L104.6875,819.4445 L105.0781,812.5 L105.4688,870.8333 L105.8594,813.8889 L106.25,869.4445 L106.6406,812.5 L107.0313,919.4445 L107.4219,893.0555 L107.8125,847.2222 L108.2031,844.4445 L108.5938,895.8333 L108.9844,790.2778 L109.375,809.7222 L109.7656,818.0555 L110.1563,776.3889 L110.5469,818.0555 L110.9375,815.2778 L111.3281,848.6111 L111.7188,869.4445 L112.1094,816.6667 L112.5,850 L112.8906,754.1667 L113.2813,872.2222 L113.6719,816.6666 L114.0625,812.5 L114.4531,841.6667 L114.8438,875 L115.2344,872.2222 L115.625,816.6667 L116.0156,870.8333 L116.4063,791.6666 L116.7969,869.4445 L117.1875,872.2222 L117.5781,948.6111 L117.9688,897.2222 L118.3594,818.0555 L118.75,794.4445 L119.1406,812.5 L119.5313,784.7222 L119.9219,816.6667 L120.3125,875 L120.7031,793.0555 L121.0938,833.3333 L121.4844,895.8333 L121.875,840.2778 L122.2656,793.0555 L122.6563,754.1667 L123.0469,875 L123.4375,868.0555 L123.8281,890.2778 L124.2188,813.8889 L124.6094,818.0555 L125,876.3889 L125.3906,841.6667 L125.7813,819.4445 L126.1719,873.6111 L126.5625,875 L126.9531,870.8333 L127.3438,765.2778 L127.7344,873.6111 L128.125,816.6667 L128.5156,788.8889 L128.9063,898.6111 L129.2969,837.5 L129.6875,869.4445 L130.0781,868.0555 L130.4688,844.4445 L130.8594,869.4445 L131.25,870.8333 L131.6406,793.0555 L132.0313,870.8333 L132.4219,873.6111 L132.8125,926.3889 L133.2031,873.6111 L133.5938,869.4445 L133.9844,925 L134.375,869.4445 L134.7656,829.1667 L135.1563,870.8333 L135.5469,816.6667 L135.9375,875 L136.3281,815.2778 L136.7188,791.6667 L137.1094,869.4445 L137.5,873.6111 L137.8906,894.4445 L138.2813,897.2222 L138.6719,844.4445 L139.0625,869.4445 L139.4531,872.2222 L139.8438,815.2778 L140.2344,758.3334 L140.625,812.5 L141.0156,754.1667 L141.4063,790.2778 L141.7969,791.6666 L142.1875,818.0555 L142.5781,898.6111 L142.9688,873.6111 L143.3594,786.1111 L143.75,869.4445 L144.1406,872.2222 L144.5313,837.5 L144.9219,868.0555 L145.3125,788.8889 L145.7031,870.8333 L146.0938,790.2778 L146.4844,873.6111 L146.875,847.2222 L147.2656,873.6111 L147.6563,872.2222 L148.0469,844.4445 L148.4375,845.8333 L148.8281,841.6667 L149.2188,894.4445 L149.6094,925 L150,786.1111 L150.3906,872.2222 L150.7813,788.8889 L151.1719,873.6111 L151.5625,795.8333 L151.9531,869.4445 L152.3438,870.8333 L152.7344,873.6111 L153.125,898.6111 L153.5156,818.0555 L153.9063,848.6111 L154.2969,897.2222 L154.6875,870.8333 L155.0781,869.4445 L155.4688,870.8333 L155.8594,923.6111 L156.25,812.5 L156.6406,845.8333 L157.0313,919.4445 L157.4219,812.5 L157.8125,820.8333 L158.2031,859.7222 L158.5938,816.6667 L158.9844,815.2778 L159.375,784.7222 L159.7656,791.6667 L160.1563,870.8333 L160.5469,869.4445 L160.9375,837.5 L161.3281,870.8333 L161.7188,793.0555 L162.1094,815.2778 L162.5,812.5 L162.8906,794.4445 L163.2813,797.2222 L163.6719,869.4445 L164.0625,816.6667 L164.4531,868.0555 L164.8438,818.0555 L165.2344,818.0555 L165.625,872.2222 L166.0156,813.8889 L166.4063,759.7222 L166.7969,836.1111 L167.1875,818.0555 L167.5781,868.0555 L167.9688,815.2778 L168.3594,811.1111 L168.75,848.6111 L169.1406,793.0555 L169.5313,831.9445 L169.9219,816.6666 L170.3125,819.4445 L170.7031,894.4445 L171.0938,895.8333 L171.4844,815.2778 L171.875,900 L172.2656,866.6667 L172.6563,791.6667 L173.0469,793.0555 L173.4375,776.3889 L173.8281,779.1667 L174.2188,870.8333 L174.6094,872.2222 L175,833.3333 L175.3906,891.6667 L175.7813,816.6667 L176.1719,847.2222 L176.5625,869.4445 L176.9531,790.2778 L177.3438,793.0555 L177.7344,872.2222 L178.125,870.8333 L178.5156,812.5 L178.9063,847.2222 L179.2969,844.4445 L179.6875,869.4445 L180.0781,873.6111 L180.4688,779.1666 L180.8594,816.6667 L181.25,815.2778 L181.6406,895.8333 L182.0313,755.5555 L182.4219,870.8333 L182.8125,818.0555 L183.2031,818.0555 L183.5938,876.3889 L183.9844,808.3333 L184.375,898.6111 L184.7656,869.4445 L185.1563,752.7778 L185.5469,793.0555 L185.9375,918.0555 L186.3281,793.0555 L186.7188,873.6111 L187.1094,806.9445 L187.5,854.1667 L187.8906,898.6111 L188.2813,816.6666 L188.6719,816.6667 L189.0625,868.0555 L189.4531,813.8889 L189.8438,844.4445 L190.2344,843.0555 L190.625,872.2222 L191.0156,780.5555 L191.4063,813.8889 L191.7969,859.7222 L192.1875,813.8889 L192.5781,813.8889 L192.9688,870.8333 L193.3594,790.2778 L193.75,812.5 L194.1406,870.8333 L194.5313,873.6111 L194.9219,869.4445 L195.3125,870.8333 L195.7031,819.4445 L196.0938,870.8333 L196.4844,847.2222 L196.875,888.8889 L197.2656,818.0555 L197.6563,897.2222 L198.0469,847.2222 L198.4375,815.2778 L198.8281,847.2222 L199.2188,791.6667 L199.6094,811.1111 L200,811.1111 L200.3906,791.6667 L200.7813,815.2778 L201.1719,818.0555 L201.5625,848.6111 L201.9531,872.2222 L202.3438,784.7222 L202.7344,813.8889 L203.125,870.8333 L203.5156,894.4445 L203.9063,818.0555 L204.2969,843.0555 L204.6875,868.0555 L205.0781,793.0555 L205.4688,791.6667 L205.8594,873.6111 L206.25,869.4445 L206.6406,815.2778 L207.0313,875 L207.4219,815.2778 L207.8125,873.6111 L208.2031,818.0555 L208.5938,794.4445 L208.9844,870.8333 L209.375,845.8333 L209.7656,884.7222 L210.1563,787.5 L210.5469,873.6111 L210.9375,759.7222 L211.3281,809.7222 L211.7188,813.8889 L212.1094,820.8333 L212.5,870.8333 L212.8906,815.2778 L213.2813,818.0555 L213.6719,870.8333 L214.0625,818.0555 L214.4531,872.2222 L214.8438,887.5 L215.2344,869.4445 L215.625,815.2778 L216.0156,790.2778 L216.4063,813.8889 L216.7969,873.6111 L217.1875,872.2222 L217.5781,795.8333 L217.9688,816.6666 L218.3594,843.0555 L218.75,786.1111 L219.1406,922.2222 L219.5313,868.0555 L219.9219,840.2778 L220.3125,872.2222 L220.7031,813.8889 L221.0938,815.2778 L221.4844,816.6667 L221.875,841.6667 L222.2656,818.0555 L222.6563,868.0555 L223.0469,811.1111 L223.4375,869.4445 L223.8281,870.8333 L224.2188,815.2778 L224.6094,812.5 L225,851.3889 L225.3906,838.8889 L225.7813,815.2778 L226.1719,872.2222 L226.5625,895.8333 L226.9531,866.6667 L227.3438,872.2222 L227.7344,813.8889 L228.125,794.4445 L228.5156,870.8333 L228.9063,755.5556 L229.2969,784.7222 L229.6875,813.8889 L230.0781,869.4445 L230.4688,815.2778 L230.8594,816.6667 L231.25,890.2778 L231.6406,816.6667 L232.0313,876.3889 L232.4219,790.2778 L232.8125,876.3889 L233.2031,869.4445 L233.5938,816.6666 L233.9844,873.6111 L234.375,869.4445 L234.7656,750 L235.1563,816.6667 L235.5469,815.2778 L235.9375,866.6667 L236.3281,836.1111 L236.7188,816.6667 L237.1094,873.6111 L237.5,816.6667 L237.8906,900 L238.2813,870.8333 L238.6719,787.5 L239.0625,872.2222 L239.4531,926.3889 L239.8438,869.4445 L240.2344,869.4445 L240.625,850 L241.0156,865.2778 L241.4063,818.0555 L241.7969,819.4445 L242.1875,868.0555 L242.5781,870.8333 L242.9688,873.6111 L243.3594,816.6667 L243.75,793.0555 L244.1406,870.8333 L244.5313,869.4445 L244.9219,870.8333 L245.3125,870.8333 L245.7031,873.6111 L246.0938,876.3889 L246.4844,875 L246.875,843.0555 L247.2656,786.1111 L247.6563,816.6666 L248.0469,837.5 L248.4375,872.2222 L248.8281,870.8333 L249.2188,783.3333 L249.6094,911.1111 L250,816.6667 L250.3906,808.3333 L250.7813,787.5 L251.1719,872.2222 L251.5625,811.1111 L251.9531,923.6111 L252.3438,813.8889 L252.7344,813.8889 L253.125,790.2778 L253.5156,870.8333 L253.9063,779.1667 L254.2969,868.0555 L254.6875,870.8333 L255.0781,875 L255.4688,833.3333 L255.8594,790.2778 L256.25,873.6111 L256.6406,873.6111 L257.0313,815.2778 L257.4219,890.2778 L257.8125,848.6111 L258.2031,872.2222 L258.5938,812.5 L258.9844,873.6111 L259.375,873.6111 L259.7656,873.6111 L260.1563,816.6667 L260.5469,836.1111 L260.9375,813.8889 L261.3281,787.5 L261.7188,869.4445 L262.1094,816.6666 L262.5,816.6667 L262.8906,791.6667 L263.2813,793.0555 L263.6719,873.6111 L264.0625,812.5 L264.4531,926.3889 L264.8438,818.0555 L265.2344,790.2778 L265.625,786.1111 L266.0156,822.2222 L266.4063,875 L266.7969,848.6111 L267.1875,870.8333 L267.5781,891.6667 L267.9688,831.9445 L268.3594,868.0555 L268.75,869.4445 L269.1406,793.0555 L269.5313,818.0555 L269.9219,870.8333 L270.3125,793.0555 L270.7031,791.6667 L271.0938,791.6667 L271.4844,869.4445 L271.875,845.8333 L272.2656,897.2222 L272.6563,840.2778 L273.0469,894.4445 L273.4375,870.8333 L273.8281,872.2222 L274.2188,818.0555 L274.6094,850 L275,786.1111 L275.3906,811.1111 L275.7813,845.8333 L276.1719,843.0555 L276.5625,816.6666 L276.9531,870.8333 L277.3438,761.1111 L277.7344,848.6111 L278.125,838.8889 L278.5156,818.0555 L278.9063,875 L279.2969,820.8333 L279.6875,870.8333 L280.0781,793.0555 L280.4688,848.6111 L280.8594,809.7222 L281.25,809.7222 L281.6406,791.6667 L282.0313,870.8333 L282.4219,869.4445 L282.8125,812.5 L283.2031,816.6667 L283.5938,793.0555 L283.9844,870.8333 L284.375,868.0555 L284.7656,811.1111 L285.1563,869.4445 L285.5469,875 L285.9375,866.6667 L286.3281,838.8889 L286.7188,811.1111 L287.1094,852.7778 L287.5,873.6111 L287.8906,818.0555 L288.2813,790.2778 L288.6719,873.6111 L289.0625,819.4444 L289.4531,813.8889 L289.8438,870.8333 L290.2344,841.6667 L290.625,791.6667 L291.0156,843.0555 L291.4063,847.2222 L291.7969,820.8333 L292.1875,895.8333 L292.5781,815.2778 L292.9688,926.3889 L293.3594,872.2222 L293.75,870.8333 L294.1406,847.2222 L294.5313,850 L294.9219,869.4445 L295.3125,897.2222 L295.7031,790.2778 L296.0938,833.3333 L296.4844,870.8333 L296.875,845.8333 L297.2656,819.4445 L297.6563,875 L298.0469,815.2778 L298.4375,869.4445 L298.8281,811.1111 L299.2188,876.3889 L299.6094,795.8333 L300,844.4445 L300.3906,836.1111 L300.7813,845.8333 L301.1719,811.1111 L301.5625,841.6667 L301.9531,870.8333 L302.3438,844.4445 L302.7344,927.7778 L303.125,813.8889 L303.5156,812.5 L303.9063,848.6111 L304.2969,816.6667 L304.6875,813.8889 L305.0781,872.2222 L305.4688,843.0555 L305.8594,812.5 L306.25,815.2778 L306.6407,816.6667 L307.0313,948.6111 L307.4219,815.2778 L307.8125,869.4445 L308.2031,848.6111 L308.5938,869.4445 L308.9844,811.1111 L309.375,812.5 L309.7656,872.2222 L310.1563,869.4445 L310.5469,787.5 L310.9375,868.0555 L311.3281,791.6667 L311.7188,815.2778 L312.1094,816.6667 L312.5,815.2778 L312.8906,870.8333 L313.2813,790.2778 L313.6719,873.6111 L314.0625,872.2222 L314.4532,863.8889 L314.8438,818.0555 L315.2344,873.6111 L315.625,873.6111 L316.0156,793.0555 L316.4063,841.6667 L316.7969,845.8333 L317.1875,875 L317.5781,793.0555 L317.9688,790.2778 L318.3594,898.6111 L318.75,818.0555 L319.1406,855.5555 L319.5313,870.8333 L319.9219,872.2222 L320.3125,869.4445 L320.7031,870.8333 L321.0938,870.8333 L321.4844,793.0555 L321.875,793.0555 L322.2657,813.8889 L322.6563,872.2222 L323.0469,845.8333 L323.4375,838.8889 L323.8281,794.4445 L324.2188,844.4445 L324.6094,844.4445 L325,870.8333 L325.3906,815.2778 L325.7813,950 L326.1719,812.5 L326.5625,873.6111 L326.9531,818.0555 L327.3438,925 L327.7344,925 L328.125,868.0555 L328.5156,813.8889 L328.9063,869.4445 L329.2969,787.5 L329.6875,795.8333 L330.0782,818.0555 L330.4688,845.8333 L330.8594,818.0555 L331.25,818.0555 L331.6406,815.2778 L332.0313,897.2222 L332.4219,779.1667 L332.8125,793.0555 L333.2031,819.4445 L333.5938,869.4445 L333.9844,815.2778 L334.375,813.8889 L334.7656,847.2222 L335.1563,870.8333 L335.5469,791.6667 L335.9375,870.8333 L336.3281,841.6667 L336.7188,815.2778 L337.1094,818.0555 L337.5,872.2222 L337.8907,813.8889 L338.2813,819.4445 L338.6719,847.2222 L339.0625,787.5 L339.4531,790.2778 L339.8438,816.6667 L340.2344,950 L340.625,815.2778 L341.0156,868.0555 L341.4063,833.3333 L341.7969,870.8333 L342.1875,819.4445 L342.5781,794.4445 L342.9688,872.2222 L343.3594,838.8889 L343.75,875 L344.1406,869.4445 L344.5313,895.8333 L344.9219,791.6667 L345.3125,816.6667 L345.7032,788.8889 L346.0938,870.8333 L346.4844,869.4445 L346.875,870.8333 L347.2656,895.8333 L347.6563,793.0555 L348.0469,793.0555 L348.4375,891.6667 L348.8281,841.6667 L349.2188,923.6111 L349.6094,887.5 L350,787.5 L350.3906,876.3889 L350.7813,869.4445 L351.1719,843.0555 L351.5625,815.2778 L351.9531,872.2222 L352.3438,838.8889 L352.7344,816.6667 L353.125,790.2778 L353.5157,815.2778 L353.9063,809.7222 L354.2969,815.2778 L354.6875,813.8889 L355.0781,875 L355.4688,790.2778 L355.8594,816.6667 L356.25,843.0555 L356.6406,870.8333 L357.0313,870.8333 L357.4219,816.6666 L357.8125,837.5 L358.2031,809.7222 L358.5938,793.0555 L358.9844,926.3889 L359.375,816.6667 L359.7656,869.4445 L360.1563,838.8889 L360.5469,786.1111 L360.9375,833.3333 L361.3282,794.4445 L361.7188,870.8333 L362.1094,811.1111 L362.5,872.2222 L362.8906,819.4445 L363.2813,869.4445 L363.6719,809.7222 L364.0625,815.2778 L364.4531,819.4445 L364.8438,870.8333 L365.2344,791.6667 L365.625,794.4445 L366.0156,873.6111 L366.4063,816.6667 L366.7969,815.2778 L367.1875,815.2778 L367.5781,875 L367.9688,870.8333 L368.3594,895.8333 L368.75,816.6667 L369.1407,815.2778 L369.5313,819.4445 L369.9219,786.1111 L370.3125,812.5 L370.7031,820.8333 L371.0938,813.8889 L371.4844,816.6667 L371.875,816.6667 L372.2656,812.5 L372.6563,866.6667 L373.0469,841.6667 L373.4375,794.4445 L373.8281,869.4445 L374.2188,895.8333 L374.6094,816.6667 L375,844.4445 L375.3906,818.0555 L375.7813,784.7222 L376.1719,847.2222 L376.5625,820.8333 L376.9532,869.4445 L377.3438,793.0555 L377.7344,818.0555 L378.125,843.0555 L378.5156,843.0555 L378.9063,872.2222 L379.2969,869.4445 L379.6875,813.8889 L380.0781,868.0555 L380.4688,818.0555 L380.8594,811.1111 L381.25,818.0555 L381.6406,872.2222 L382.0313,870.8333 L382.4219,869.4445 L382.8125,813.8889 L383.2031,868.0555 L383.5938,950 L383.9844,866.6667 L384.375,816.6667 L384.7657,850 L385.1563,818.0555 L385.5469,819.4445 L385.9375,793.0555 L386.3281,815.2778 L386.7188,816.6667 L387.1094,816.6667 L387.5,816.6667 L387.8906,844.4445 L388.2813,872.2222 L388.6719,925 L389.0625,777.7778 L389.4531,837.5 L389.8438,815.2778 L390.2344,813.8889 L390.625,891.6667 L391.0156,868.0555 L391.4063,837.5 L391.7969,837.5 L392.1875,791.6667 L392.5782,844.4445 L392.9688,812.5 L393.3594,948.6111 L393.75,834.7222 L394.1406,869.4445 L394.5313,868.0555 L394.9219,870.8333 L395.3125,866.6667 L395.7031,870.8333 L396.0938,873.6111 L396.4844,815.2778 L396.875,834.7222 L397.2656,833.3333 L397.6563,819.4445 L398.0469,866.6667 L398.4375,870.8333 L398.8281,787.5 L399.2188,927.7778 L399.6094,812.5 L400,868.0555 L400.3907,815.2778 L400.7813,872.2222 L401.1719,816.6667 L401.5625,815.2778 L401.9531,840.2778 L402.3438,783.3333 L402.7344,844.4445 L403.125,812.5 L403.5156,870.8333 L403.9063,818.0555 L404.2969,795.8333 L404.6875,822.2222 L405.0781,841.6667 L405.4688,840.2778 L405.8594,812.5 L406.25,813.8889 L406.6406,887.5 L407.0313,816.6667 L407.4219,815.2778 L407.8125,870.8333 L408.2032,872.2222 L408.5938,843.0555 L408.9844,766.6667 L409.375,815.2778 L409.7656,813.8889 L410.1563,812.5 L410.5469,875 L410.9375,781.9445 L411.3281,869.4445 L411.7188,866.6667 L412.1094,870.8333 L412.5,808.3333 L412.8906,866.6667 L413.2813,820.8333 L413.6719,813.8889 L414.0625,818.0555 L414.4531,869.4445 L414.8438,813.8889 L415.2344,818.0555 L415.625,875 L416.0157,866.6667 L416.4063,873.6111 L416.7969,872.2222 L417.1875,813.8889 L417.5781,843.0555 L417.9688,838.8889 L418.3594,847.2222 L418.75,925 L419.1406,794.4445 L419.5313,847.2222 L419.9219,791.6667 L420.3125,813.8889 L420.7031,872.2222 L421.0938,838.8889 L421.4844,872.2222 L421.875,870.8333 L422.2656,893.0555 L422.6563,795.8333 L423.0469,840.2778 L423.4375,870.8333 L423.8282,793.0555 L424.2188,790.2778 L424.6094,788.8889 L425,868.0555 L425.3906,870.8333 L425.7813,816.6666 L426.1719,816.6666 L426.5625,869.4445 L426.9531,950 L427.3438,816.6666 L427.7344,850 L428.125,926.3889 L428.5156,802.7778 L428.9063,847.2222 L429.2969,815.2778 L429.6875,843.0555 L430.0781,838.8889 L430.4688,870.8333 L430.8594,845.8333 L431.25,866.6667 L431.6407,805.5555 " stroke="blue" fill="none" />
<text x="50" y="1000" font-family="Arial" font-size="12" fill="black">Episode Length (978)</text>
<text x="50" y="1015" font-family="Arial" font-size="10" fill="black">71</text>
<text x="50" y="1230" font-family="Arial" font-size="10" fill="black">21</text>
<path d="M50,1176 L50.39063,1172 L50.78125,1172 L51.17188,1172 L51.5625,1168 L51.95313,1168 L52.34375,1168 L52.73438,1156 L53.125,1156 L53.51563,1156 L53.90625,1148 L54.29688,1148 L54.6875,1144 L55.07813,1140 L55.46875,1140 L55.85938,1140 L56.25,1140 L56.64063,1136 L57.03125,1136 L57.42188,1136 L57.8125,1136 L58.20313,1132 L58.59375,1132 L58.98438,1132 L59.375,1132 L59.76563,1132 L60.15625,1124 L60.54688,1120 L60.9375,1116 L61.32813,1116 L61.71875,1112 L62.10938,1096 L62.5,1212 L62.89063,1184 L63.28125,1176 L63.67188,1172 L64.0625,1160 L64.45313,1156 L64.84375,1152 L65.23438,1164 L65.625,1172 L66.01563,1172 L66.40625,1176 L66.79688,1172 L67.1875,1168 L67.57813,1124 L67.96875,1144 L68.35938,1152 L68.75,1132 L69.14063,1152 L69.53125,1136 L69.92188,1140 L70.3125,1120 L70.70313,1124 L71.09375,1128 L71.48438,1168 L71.875,1124 L72.26563,1128 L72.65625,1148 L73.04688,1136 L73.4375,1128 L73.82813,1188 L74.21875,1120 L74.60938,1088 L75,1084 L75.39063,1172 L75.78125,1148 L76.17188,1184 L76.5625,1164 L76.95313,1176 L77.34375,1160 L77.73438,1188 L78.125,1124 L78.51563,1164 L78.90625,1156 L79.29688,1192 L79.6875,1104 L80.07813,1160 L80.46875,1172 L80.85938,1124 L81.25,1164 L81.64063,1132 L82.03125,1100 L82.42188,1132 L82.8125,1128 L83.20313,1168 L83.59375,1132 L83.98438,1160 L84.375,1112 L84.76563,1216 L85.15625,1128 L85.54688,1132 L85.9375,1176 L86.32813,1124 L86.71875,1092 L87.10938,1124 L87.5,1184 L87.89063,1180 L88.28125,1168 L88.67188,1080 L89.0625,1172 L89.45313,1132 L89.84375,1144 L90.23438,1152 L90.625,1204 L91.01563,1184 L91.40625,1212 L91.79688,1180 L92.1875,1136 L92.57813,1176 L92.96875,1132 L93.35938,1144 L93.75,1112 L94.14063,1140 L94.53125,1168 L94.92188,1172 L95.3125,1136 L95.70313,1168 L96.09375,1092 L96.48438,1132 L96.875,1136 L97.26563,1168 L97.65625,1172 L98.04688,1164 L98.4375,1108 L98.82813,1136 L99.21875,1124 L99.60938,1164 L100,1128 L100.3906,1112 L100.7813,1128 L101.1719,1124 L101.5625,1128 L101.9531,1132 L102.3438,1184 L102.7344,1128 L103.125,1172 L103.5156,1136 L103.9063,1088 L104.2969,1148 L104.6875,1144 L105.0781,1124 L105.4688,1172 L105.8594,1128 L106.25,1168 L106.6406,1124 L107.0313,1192 L107.4219,1176 L107.8125,1164 L108.2031,1156 L108.5938,1184 L108.9844,1120 L109.375,1116 L109.7656,1140 L110.1563,1080 L110.5469,1140 L110.9375,1132 L111.3281,1168 L111.7188,1168 L112.1094,1136 L112.5,1172 L112.8906,1076 L113.2813,1176 L113.6719,1136 L114.0625,1124 L114.4531,1148 L114.8438,1184 L115.2344,1176 L115.625,1136 L116.0156,1172 L116.4063,1124 L116.7969,1168 L117.1875,1176 L117.5781,1216 L117.9688,1188 L118.3594,1140 L118.75,1132 L119.1406,1124 L119.5313,1104 L119.9219,1136 L120.3125,1184 L120.7031,1128 L121.0938,1124 L121.4844,1184 L121.875,1144 L122.2656,1128 L122.6563,1076 L123.0469,1184 L123.4375,1164 L123.8281,1168 L124.2188,1128 L124.6094,1140 L125,1188 L125.3906,1148 L125.7813,1144 L126.1719,1180 L126.5625,1184 L126.9531,1172 L127.3438,1108 L127.7344,1180 L128.125,1136 L128.5156,1116 L128.9063,1192 L129.2969,1136 L129.6875,1168 L130.0781,1164 L130.4688,1156 L130.8594,1168 L131.25,1172 L131.6406,1128 L132.0313,1172 L132.4219,1180 L132.8125,1212 L133.2031,1180 L133.5938,1168 L133.9844,1208 L134.375,1168 L134.7656,1112 L135.1563,1172 L135.5469,1136 L135.9375,1184 L136.3281,1132 L136.7188,1124 L137.1094,1168 L137.5,1180 L137.8906,1180 L138.2813,1188 L138.6719,1156 L139.0625,1168 L139.4531,1176 L139.8438,1132 L140.2344,1088 L140.625,1124 L141.0156,1076 L141.4063,1120 L141.7969,1124 L142.1875,1140 L142.5781,1192 L142.9688,1180 L143.3594,1108 L143.75,1168 L144.1406,1176 L144.5313,1136 L144.9219,1164 L145.3125,1116 L145.7031,1172 L146.0938,1120 L146.4844,1180 L146.875,1164 L147.2656,1180 L147.6563,1176 L148.0469,1156 L148.4375,1160 L148.8281,1148 L149.2188,1180 L149.6094,1208 L150,1108 L150.3906,1176 L150.7813,1116 L151.1719,1180 L151.5625,1136 L151.9531,1168 L152.3438,1172 L152.7344,1180 L153.125,1192 L153.5156,1140 L153.9063,1168 L154.2969,1188 L154.6875,1172 L155.0781,1168 L155.4688,1172 L155.8594,1204 L156.25,1124 L156.6406,1160 L157.0313,1192 L157.4219,1124 L157.8125,1148 L158.2031,1140 L158.5938,1136 L158.9844,1132 L159.375,1104 L159.7656,1124 L160.1563,1172 L160.5469,1168 L160.9375,1136 L161.3281,1172 L161.7188,1128 L162.1094,1132 L162.5,1124 L162.8906,1132 L163.2813,1140 L163.6719,1168 L164.0625,1136 L164.4531,1164 L164.8438,1140 L165.2344,1140 L165.625,1176 L166.0156,1128 L166.4063,1092 L166.7969,1132 L167.1875,1140 L167.5781,1164 L167.9688,1132 L168.3594,1120 L168.75,1168 L169.1406,1128 L169.5313,1120 L169.9219,1136 L170.3125,1144 L170.7031,1180 L171.0938,1184 L171.4844,1132 L171.875,1196 L172.2656,1160 L172.6563,1124 L173.0469,1128 L173.4375,1080 L173.8281,1088 L174.2188,1172 L174.6094,1176 L175,1124 L175.3906,1172 L175.7813,1136 L176.1719,1164 L176.5625,1168 L176.9531,1120 L177.3438,1128 L177.7344,1176 L178.125,1172 L178.5156,1124 L178.9063,1164 L179.2969,1156 L179.6875,1168 L180.0781,1180 L180.4688,1088 L180.8594,1136 L181.25,1132 L181.6406,1184 L182.0313,1080 L182.4219,1172 L182.8125,1140 L183.2031,1140 L183.5938,1188 L183.9844,1112 L184.375,1192 L184.7656,1168 L185.1563,1072 L185.5469,1128 L185.9375,1188 L186.3281,1128 L186.7188,1180 L187.1094,1108 L187.5,1124 L187.8906,1192 L188.2813,1136 L188.6719,1136 L189.0625,1164 L189.4531,1128 L189.8438,1156 L190.2344,1152 L190.625,1176 L191.0156,1092 L191.4063,1128 L191.7969,1140 L192.1875,1128 L192.5781,1128 L192.9688,1172 L193.3594,1120 L193.75,1124 L194.1406,1172 L194.5313,1180 L194.9219,1168 L195.3125,1172 L195.7031,1144 L196.0938,1172 L196.4844,1164 L196.875,1164 L197.2656,1140 L197.6563,1188 L198.0469,1164 L198.4375,1132 L198.8281,1164 L199.2188,1124 L199.6094,1120 L200,1120 L200.3906,1124 L200.7813,1132 L201.1719,1140 L201.5625,1168 L201.9531,1176 L202.3438,1104 L202.7344,1128 L203.125,1172 L203.5156,1180 L203.9063,1140 L204.2969,1152 L204.6875,1164 L205.0781,1128 L205.4688,1124 L205.8594,1180 L206.25,1168 L206.6406,1132 L207.0313,1184 L207.4219,1132 L207.8125,1180 L208.2031,1140 L208.5938,1132 L208.9844,1172 L209.375,1160 L209.7656,1152 L210.1563,1112 L210.5469,1180 L210.9375,1092 L211.3281,1116 L211.7188,1128 L212.1094,1148 L212.5,1172 L212.8906,1132 L213.2813,1140 L213.6719,1172 L214.0625,1140 L214.4531,1176 L214.8438,1160 L215.2344,1168 L215.625,1132 L216.0156,1120 L216.4063,1128 L216.7969,1180 L217.1875,1176 L217.5781,1136 L217.9688,1136 L218.3594,1152 L218.75,1108 L219.1406,1200 L219.5313,1164 L219.9219,1144 L220.3125,1176 L220.7031,1128 L221.0938,1132 L221.4844,1136 L221.875,1148 L222.2656,1140 L222.6563,1164 L223.0469,1120 L223.4375,1168 L223.8281,1172 L224.2188,1132 L224.6094,1124 L225,1176 L225.3906,1140 L225.7813,1132 L226.1719,1176 L226.5625,1184 L226.9531,1160 L227.3438,1176 L227.7344,1128 L228.125,1132 L228.5156,1172 L228.9063,1020 L229.2969,1104 L229.6875,1128 L230.0781,1168 L230.4688,1132 L230.8594,1136 L231.25,1168 L231.6406,1136 L232.0313,1188 L232.4219,1120 L232.8125,1188 L233.2031,1168 L233.5938,1136 L233.9844,1180 L234.375,1168 L234.7656,1064 L235.1563,1136 L235.5469,1132 L235.9375,1160 L236.3281,1132 L236.7188,1136 L237.1094,1180 L237.5,1136 L237.8906,1196 L238.2813,1172 L238.6719,1112 L239.0625,1176 L239.4531,1212 L239.8438,1168 L240.2344,1168 L240.625,1172 L241.0156,1156 L241.4063,1140 L241.7969,1144 L242.1875,1164 L242.5781,1172 L242.9688,1180 L243.3594,1136 L243.75,1128 L244.1406,1172 L244.5313,1168 L244.9219,1172 L245.3125,1172 L245.7031,1180 L246.0938,1188 L246.4844,1184 L246.875,1152 L247.2656,1108 L247.6563,1136 L248.0469,1136 L248.4375,1176 L248.8281,1172 L249.2188,1100 L249.6094,1168 L250,1136 L250.3906,1112 L250.7813,1112 L251.1719,1176 L251.5625,1120 L251.9531,1204 L252.3438,1128 L252.7344,1128 L253.125,1120 L253.5156,1172 L253.9063,1088 L254.2969,1164 L254.6875,1172 L255.0781,1184 L255.4688,1124 L255.8594,1120 L256.25,1180 L256.6406,1180 L257.0313,1132 L257.4219,1168 L257.8125,1168 L258.2031,1176 L258.5938,1124 L258.9844,1180 L259.375,1180 L259.7656,1180 L260.1563,1136 L260.5469,1132 L260.9375,1128 L261.3281,1112 L261.7188,1168 L262.1094,1136 L262.5,1136 L262.8906,1124 L263.2813,1128 L263.6719,1180 L264.0625,1124 L264.4531,1212 L264.8438,1140 L265.2344,1120 L265.625,1108 L266.0156,1152 L266.4063,1184 L266.7969,1168 L267.1875,1172 L267.5781,1172 L267.9688,1120 L268.3594,1164 L268.75,1168 L269.1406,1128 L269.5313,1140 L269.9219,1172 L270.3125,1128 L270.7031,1124 L271.0938,1124 L271.4844,1168 L271.875,1160 L272.2656,1188 L272.6563,1144 L273.0469,1180 L273.4375,1172 L273.8281,1176 L274.2188,1140 L274.6094,1172 L275,1108 L275.3906,1120 L275.7813,1160 L276.1719,1152 L276.5625,1136 L276.9531,1172 L277.3438,1096 L277.7344,1168 L278.125,1140 L278.5156,1140 L278.9063,1184 L279.2969,1148 L279.6875,1172 L280.0781,1128 L280.4688,1168 L280.8594,1116 L281.25,1116 L281.6406,1124 L282.0313,1172 L282.4219,1168 L282.8125,1124 L283.2031,1136 L283.5938,1128 L283.9844,1172 L284.375,1164 L284.7656,1120 L285.1563,1168 L285.5469,1184 L285.9375,1160 L286.3281,1140 L286.7188,1120 L287.1094,1180 L287.5,1180 L287.8906,1140 L288.2813,1120 L288.6719,1180 L289.0625,1144 L289.4531,1128 L289.8438,1172 L290.2344,1148 L290.625,1124 L291.0156,1152 L291.4063,1164 L291.7969,1148 L292.1875,1184 L292.5781,1132 L292.9688,1212 L293.3594,1176 L293.75,1172 L294.1406,1164 L294.5313,1172 L294.9219,1168 L295.3125,1188 L295.7031,1120 L296.0938,1124 L296.4844,1172 L296.875,1160 L297.2656,1144 L297.6563,1184 L298.0469,1132 L298.4375,1168 L298.8281,1120 L299.2188,1188 L299.6094,1136 L300,1156 L300.3906,1132 L300.7813,1160 L301.1719,1120 L301.5625,1148 L301.9531,1172 L302.3438,1156 L302.7344,1216 L303.125,1128 L303.5156,1124 L303.9063,1168 L304.2969,1136 L304.6875,1128 L305.0781,1176 L305.4688,1152 L305.8594,1124 L306.25,1132 L306.6407,1136 L307.0313,1216 L307.4219,1132 L307.8125,1168 L308.2031,1168 L308.5938,1168 L308.9844,1120 L309.375,1124 L309.7656,1176 L310.1563,1168 L310.5469,1112 L310.9375,1164 L311.3281,1124 L311.7188,1132 L312.1094,1136 L312.5,1132 L312.8906,1172 L313.2813,1120 L313.6719,1180 L314.0625,1176 L314.4532,1152 L314.8438,1140 L315.2344,1180 L315.625,1180 L316.0156,1128 L316.4063,1148 L316.7969,1160 L317.1875,1184 L317.5781,1128 L317.9688,1120 L318.3594,1192 L318.75,1140 L319.1406,1128 L319.5313,1172 L319.9219,1176 L320.3125,1168 L320.7031,1172 L321.0938,1172 L321.4844,1128 L321.875,1128 L322.2657,1128 L322.6563,1176 L323.0469,1160 L323.4375,1140 L323.8281,1132 L324.2188,1156 L324.6094,1156 L325,1172 L325.3906,1132 L325.7813,1220 L326.1719,1124 L326.5625,1180 L326.9531,1140 L327.3438,1208 L327.7344,1208 L328.125,1164 L328.5156,1128 L328.9063,1168 L329.2969,1112 L329.6875,1136 L330.0782,1140 L330.4688,1160 L330.8594,1140 L331.25,1140 L331.6406,1132 L332.0313,1188 L332.4219,1088 L332.8125,1128 L333.2031,1144 L333.5938,1168 L333.9844,1132 L334.375,1128 L334.7656,1164 L335.1563,1172 L335.5469,1124 L335.9375,1172 L336.3281,1148 L336.7188,1132 L337.1094,1140 L337.5,1176 L337.8907,1128 L338.2813,1144 L338.6719,1164 L339.0625,1112 L339.4531,1120 L339.8438,1136 L340.2344,1220 L340.625,1132 L341.0156,1164 L341.4063,1124 L341.7969,1172 L342.1875,1144 L342.5781,1132 L342.9688,1176 L343.3594,1140 L343.75,1184 L344.1406,1168 L344.5313,1184 L344.9219,1124 L345.3125,1136 L345.7032,1116 L346.0938,1172 L346.4844,1168 L346.875,1172 L347.2656,1184 L347.6563,1128 L348.0469,1128 L348.4375,1172 L348.8281,1148 L349.2188,1204 L349.6094,1160 L350,1112 L350.3906,1188 L350.7813,1168 L351.1719,1152 L351.5625,1132 L351.9531,1176 L352.3438,1140 L352.7344,1136 L353.125,1120 L353.5157,1132 L353.9063,1116 L354.2969,1132 L354.6875,1128 L355.0781,1184 L355.4688,1120 L355.8594,1136 L356.25,1152 L356.6406,1172 L357.0313,1172 L357.4219,1136 L357.8125,1136 L358.2031,1116 L358.5938,1128 L358.9844,1212 L359.375,1136 L359.7656,1168 L360.1563,1140 L360.5469,1108 L360.9375,1124 L361.3282,1132 L361.7188,1172 L362.1094,1120 L362.5,1176 L362.8906,1144 L363.2813,1168 L363.6719,1116 L364.0625,1132 L364.4531,1144 L364.8438,1172 L365.2344,1124 L365.625,1132 L366.0156,1180 L366.4063,1136 L366.7969,1132 L367.1875,1132 L367.5781,1184 L367.9688,1172 L368.3594,1184 L368.75,1136 L369.1407,1132 L369.5313,1144 L369.9219,1108 L370.3125,1124 L370.7031,1148 L371.0938,1128 L371.4844,1136 L371.875,1136 L372.2656,1124 L372.6563,1160 L373.0469,1148 L373.4375,1132 L373.8281,1168 L374.2188,1184 L374.6094,1136 L375,1156 L375.3906,1140 L375.7813,1104 L376.1719,1164 L376.5625,1148 L376.9532,1168 L377.3438,1128 L377.7344,1140 L378.125,1152 L378.5156,1152 L378.9063,1176 L379.2969,1168 L379.6875,1128 L380.0781,1164 L380.4688,1140 L380.8594,1120 L381.25,1140 L381.6406,1176 L382.0313,1172 L382.4219,1168 L382.8125,1128 L383.2031,1164 L383.5938,1220 L383.9844,1160 L384.375,1136 L384.7657,1172 L385.1563,1140 L385.5469,1144 L385.9375,1128 L386.3281,1132 L386.7188,1136 L387.1094,1136 L387.5,1136 L387.8906,1156 L388.2813,1176 L388.6719,1208 L389.0625,1084 L389.4531,1136 L389.8438,1132 L390.2344,1128 L390.625,1172 L391.0156,1164 L391.4063,1136 L391.7969,1136 L392.1875,1124 L392.5782,1156 L392.9688,1124 L393.3594,1216 L393.75,1128 L394.1406,1168 L394.5313,1164 L394.9219,1172 L395.3125,1160 L395.7031,1172 L396.0938,1180 L396.4844,1132 L396.875,1128 L397.2656,1124 L397.6563,1144 L398.0469,1160 L398.4375,1172 L398.8281,1112 L399.2188,1216 L399.6094,1124 L400,1164 L400.3907,1132 L400.7813,1176 L401.1719,1136 L401.5625,1132 L401.9531,1144 L402.3438,1100 L402.7344,1156 L403.125,1124 L403.5156,1172 L403.9063,1140 L404.2969,1136 L404.6875,1152 L405.0781,1148 L405.4688,1144 L405.8594,1124 L406.25,1128 L406.6406,1160 L407.0313,1136 L407.4219,1132 L407.8125,1172 L408.2032,1176 L408.5938,1152 L408.9844,1112 L409.375,1132 L409.7656,1128 L410.1563,1124 L410.5469,1184 L410.9375,1096 L411.3281,1168 L411.7188,1160 L412.1094,1172 L412.5,1112 L412.8906,1160 L413.2813,1148 L413.6719,1128 L414.0625,1140 L414.4531,1168 L414.8438,1128 L415.2344,1140 L415.625,1184 L416.0157,1160 L416.4063,1180 L416.7969,1176 L417.1875,1128 L417.5781,1152 L417.9688,1140 L418.3594,1164 L418.75,1208 L419.1406,1132 L419.5313,1164 L419.9219,1124 L420.3125,1128 L420.7031,1176 L421.0938,1140 L421.4844,1176 L421.875,1172 L422.2656,1176 L422.6563,1136 L423.0469,1144 L423.4375,1172 L423.8282,1128 L424.2188,1120 L424.6094,1116 L425,1164 L425.3906,1172 L425.7813,1136 L426.1719,1136 L426.5625,1168 L426.9531,1220 L427.3438,1136 L427.7344,1172 L428.125,1212 L428.5156,1096 L428.9063,1164 L429.2969,1132 L429.6875,1152 L430.0781,1140 L430.4688,1172 L430.8594,1160 L431.25,1160 L431.6407,1104 " stroke="blue" fill="none" />
<text x="50" y="1270" font-family="Arial" font-size="12" fill="black">Policy Loss</text>
<text x="50" y="1285" font-family="Arial" font-size="10" fill="black">0.03249418</text>
<text x="50" y="1500" font-family="Arial" font-size="10" fill="black">0.02804635</text>
<path d="M50,1290 L75,1339.461 L100,1490 L125,1468.953 L150,1346.277 L175,1465.157 " stroke="blue" fill="none" />
<text x="50" y="1540" font-family="Arial" font-size="12" fill="black">Value Loss</text>
<text x="50" y="1555" font-family="Arial" font-size="10" fill="black">0.001914954</text>
<text x="50" y="1770" font-family="Arial" font-size="10" fill="black">0.001354084</text>
<path d="M50,1586.911 L75,1604.984 L100,1760 L125,1653.263 L150,1560.004 L175,1669.593 " stroke="blue" fill="none" />
<text x="50" y="1810" font-family="Arial" font-size="12" fill="black">Learning Rate</text>
<text x="50" y="1825" font-family="Arial" font-size="10" fill="black">0.0002</text>
<text x="50" y="2040" font-family="Arial" font-size="10" fill="black">0.0002</text>
<path d="M50,2030 L75,2030 L100,2030 L125,2030 L150,2030 L175,2030 " stroke="blue" fill="none" />
<text x="50" y="2080" font-family="Arial" font-size="12" fill="black">Entropy</text>
<text x="50" y="2095" font-family="Arial" font-size="10" fill="black">0.2415095</text>
<text x="50" y="2310" font-family="Arial" font-size="10" fill="black">0.2295095</text>
<path d="M50,2125.157 L75,2100.157 L100,2100 L125,2300 L150,2101.25 L175,2100.007 " stroke="blue" fill="none" />
<text x="750" y="730" font-family="Arial" font-size="12" fill="black">Simplified</text>
<text x="750" y="745" font-family="Arial" font-size="10" fill="black">0.7116314</text>
<text x="750" y="960" font-family="Arial" font-size="10" fill="black">0.5705789</text>
<path d="M757.0313,822.3879 L764.4531,750 L771.875,813.0595 L779.2969,838.0596 L786.7188,775.373 L794.1406,881.7163 L801.5625,758.955 L808.9844,848.5074 L816.4063,779.8506 L823.8281,856.7164 L831.25,872.7611 L838.6719,950 L846.0938,777.6119 L853.5156,919.403 L860.9375,885.0746 L868.3594,758.955 L875.7813,823.1344 L883.2031,810.4476 L890.625,852.985 L898.0469,855.97 L905.4688,767.5373 L912.8906,817.9104 L920.3125,860.4477 L927.7344,842.5371 L935.1563,785.4477 L942.5781,905.2238 L950,882.4625 L957.4219,837.6865 L964.8438,828.358 L972.2656,827.985 L979.6875,835.4478 L987.1094,815.6715 L994.5313,870.149 L1001.953,853.3582 L1009.375,851.4926 L1016.797,835.4476 L1024.219,842.9102 L1031.641,870.8955 L1039.063,789.9252 L1046.484,860.8209 L1053.906,856.7163 L1061.328,799.2537 L1068.75,827.6117 L1076.172,765.6716 L1083.594,875.7463 L1091.016,814.5523 L1098.438,892.9105 L1105.859,793.6567 L1113.281,817.9104 L1120.703,850.3731 L1128.125,885.4477 L1131.641,823.8391 " stroke="blue" fill="none" />
<text x="750" y="1000" font-family="Arial" font-size="12" fill="black">Simplified</text>
<text x="750" y="1015" font-family="Arial" font-size="10" fill="black">41.21053</text>
<text x="750" y="1230" font-family="Arial" font-size="10" fill="black">34.57895</text>
<path d="M757.0313,1135.873 L764.4531,1032.698 L771.875,1089.841 L779.2969,1100.952 L786.7188,1024.762 L794.1406,1143.81 L801.5625,1026.349 L808.9844,1097.778 L816.4063,1043.81 L823.8281,1108.889 L831.25,1153.333 L838.6719,1220 L846.0938,1034.286 L853.5156,1208.889 L860.9375,1134.286 L868.3594,1026.349 L875.7813,1061.27 L883.2031,1078.73 L890.625,1093.016 L898.0469,1105.714 L905.4688,1039.048 L912.8906,1086.667 L920.3125,1124.762 L927.7344,1096.19 L935.1563,1020 L942.5781,1172.381 L950,1146.984 L957.4219,1075.556 L964.8438,1107.302 L972.2656,1105.714 L979.6875,1113.651 L987.1094,1077.143 L994.5313,1166.032 L1001.953,1118.413 L1009.375,1110.476 L1016.797,1113.651 L1024.219,1121.587 L1031.641,1145.397 L1039.063,1062.857 L1046.484,1126.349 L1053.906,1108.889 L1061.328,1054.921 L1068.75,1104.127 L1076.172,1031.111 L1083.594,1142.222 L1091.016,1072.381 L1098.438,1120 L1105.859,1054.921 L1113.281,1062.857 L1120.703,1129.524 L1128.125,1159.682 L1131.641,1043.104 " stroke="blue" fill="none" />
</svg>
