<svg width="2000" height="2500" xmlns="http://www.w3.org/2000/svg">
<text x="10" y="20" font-family="Arial" font-size="26" fill="black"> [<tspan font-weight="bold" fill="blue">Walker</tspan>] Training Session</text>
<text x="10" y="50" font-family="Arial" font-size="16" fill="black">[Statistics]</text>
<text x="50" y="70" font-family="Arial" font-size="12" fill="black">Started at: 3:02:43 PM, Monday, April 22, 2024</text>
<text x="50" y="90" font-family="Arial" font-size="12" fill="black">Finished at: 3:04:26 PM, Monday, April 22, 2024</text>
<text x="50" y="110" font-family="Arial" font-size="12" fill="black">Training Session Time: 0 hrs : 1 min : 32 sec</text>
<text x="50" y="130" font-family="Arial" font-size="12" fill="black">Inference Time: 1 hrs : 13 min : 44 sec        [Device: GPU]</text>
<text x="50" y="150" font-family="Arial" font-size="12" fill="black">Update Time: 0 hrs : 0 min : 22 sec        [Per iteration: 0 hrs : 0 min : 12.66 sec]        [Device: GPU]</text>
<text x="50" y="170" font-family="Arial" font-size="12" fill="black">Episode Count: 1810</text>
<text x="50" y="190" font-family="Arial" font-size="12" fill="black">Inference Steps: 40000</text>
<text x="50" y="210" font-family="Arial" font-size="12" fill="black">Iterations: 2</text>
<text x="50" y="230" font-family="Arial" font-size="12" fill="black">Parallel Agents: 60</text>
<text x="50" y="250" font-family="Arial" font-size="12" fill="black">Timescale: 1</text>
<text x="50" y="270" font-family="Arial" font-size="12" fill="black">Trainer: PPO</text>
<text x="10" y="320" font-family="Arial" font-size="16" fill="black">[Hyperparameters]</text>
<text x="50" y="340" font-family="Arial" font-size="12" fill="black">Buffer Size: 20000        [Batch Size: 1000       (x20)]</text>
<text x="50" y="360" font-family="Arial" font-size="12" fill="black">Num Epoch: 8</text>
<text x="50" y="380" font-family="Arial" font-size="12" fill="black">Time Horizon: 256</text>
<text x="50" y="400" font-family="Arial" font-size="12" fill="black">Gradient Cliping by Norm: 0.5</text>
<text x="50" y="420" font-family="Arial" font-size="12" fill="black">Learning Rate Schedule: True    </text>
<text x="10" y="470" font-family="Arial" font-size="16" fill="black">[Behaviour]</text>
<text x="50" y="490" font-family="Arial" font-size="12" fill="black">Space Size: 120</text>
<text x="50" y="510" font-family="Arial" font-size="12" fill="black">Continuous Actions: 36 [Standard Deviation: Fixed]     [Value: 3.45]</text>
<text x="50" y="530" font-family="Arial" font-size="12" fill="black">Discrete Actions: 0</text>
<text x="50" y="550" font-family="Arial" font-size="12" fill="black">TargetFPS: 100 (physics update rate)</text>
<text x="50" y="570" font-family="Arial" font-size="12" fill="black">Observations Normalization: True</text>
<text x="10" y="620" font-family="Arial" font-size="16" fill="black">[Decision Requester]</text>
<text x="50" y="640" font-family="Arial" font-size="12" fill="black">Max Step: 2000</text>
<text x="50" y="660" font-family="Arial" font-size="12" fill="black">Decision Period: 10      [Actions Between Decisions: True]</text>
<text x="10" y="710" font-family="Arial" font-size="16" fill="black">[Graphs]</text>
<text x="50" y="730" font-family="Arial" font-size="12" fill="black">Episode Reward (1810)</text>
<text x="50" y="745" font-family="Arial" font-size="10" fill="black">1.636437</text>
<text x="50" y="960" font-family="Arial" font-size="10" fill="black">-0.0120354</text>
<path d="M50,942.7963 L50.19531,938.2644 L50.39063,936.0578 L50.58594,935.513 L50.78125,935.9957 L50.97656,935.3486 L51.17188,928.6265 L51.36719,933.4696 L51.5625,933.6328 L51.75781,935.1659 L51.95313,934.9401 L52.14844,933.7783 L52.34375,933.0018 L52.53906,929.9189 L52.73438,933.464 L52.92969,932.2302 L53.125,932.0735 L53.32031,933.2054 L53.51563,928.0628 L53.71094,929.2045 L53.90625,933.1275 L54.10156,932.4892 L54.29688,934.0439 L54.49219,928.9672 L54.6875,925.2208 L54.88281,932.6896 L55.07813,924.416 L55.27344,933.632 L55.46875,921.2292 L55.66406,924.1819 L55.85938,926.3395 L56.05469,924.2468 L56.25,923.3766 L56.44531,925.3029 L56.64063,921.5979 L56.83594,924.681 L57.03125,923.9741 L57.22656,930.9586 L57.42188,916.2299 L57.61719,913.2821 L57.8125,915.3143 L58.00781,927.4487 L58.20313,916.6856 L58.39844,917.3727 L58.59375,945.5117 L58.78906,943.3949 L58.98438,916.5286 L59.17969,911.9981 L59.375,905.2003 L59.57031,945.886 L59.76563,911.589 L59.96094,910.7786 L60.15625,911.5424 L60.35156,915.4037 L60.54688,936.9418 L60.74219,936.1932 L60.9375,933.2524 L61.13281,917.7643 L61.32813,901.8339 L61.52344,941.4504 L61.71875,899.7299 L61.91406,942.5554 L62.10938,932.7606 L62.30469,908.4195 L62.5,938.5455 L62.69531,930.5074 L62.89063,941.3675 L63.08594,932.8218 L63.28125,934.5726 L63.47656,924.7969 L63.67188,921.9727 L63.86719,919.9468 L64.0625,921.7502 L64.25781,932.7914 L64.45313,896.799 L64.64844,921.8926 L64.84375,924.7493 L65.03906,928.8323 L65.23438,926.4479 L65.42969,927.7254 L65.625,925.2786 L65.82031,932.6136 L66.01563,932.5652 L66.21094,938.6498 L66.40625,882.68 L66.60156,931.6874 L66.79688,928.5173 L66.99219,933.694 L67.1875,918.3477 L67.38281,907.8923 L67.57813,901.9908 L67.77344,934.3406 L67.96875,925.61 L68.16406,922.1688 L68.35938,919.0834 L68.55469,887.2623 L68.75,888.9988 L68.94531,934.7536 L69.14063,920.4676 L69.33594,911.4117 L69.53125,938.3303 L69.72656,937.5244 L69.92188,902.0847 L70.11719,908.8857 L70.3125,929.8644 L70.50781,941.5449 L70.70313,927.0276 L70.89844,921.5671 L71.09375,881.8115 L71.28906,929.5984 L71.48438,932.7021 L71.67969,933.5467 L71.875,935.5737 L72.07031,909.3109 L72.26563,904.7433 L72.46094,927.5954 L72.65625,905.5629 L72.85156,923.0186 L73.04688,931.0237 L73.24219,887.0966 L73.4375,935.9187 L73.63281,925.4003 L73.82813,938.496 L74.02344,928.6819 L74.21875,913.8957 L74.41406,921.437 L74.60938,925.5394 L74.80469,926.0392 L75,930.5225 L75.19531,944.5303 L75.39063,883.7134 L75.58594,864.5406 L75.78125,929.3406 L75.97656,919.3991 L76.17188,926.676 L76.36719,925.1732 L76.5625,927.1671 L76.75781,936.9903 L76.95313,939.8101 L77.14844,924.9128 L77.34375,932.7675 L77.53906,933.4316 L77.73438,937.0759 L77.92969,939.8584 L78.125,919.2856 L78.32031,932.5909 L78.51563,933.3297 L78.71094,864.5195 L78.90625,928.5599 L79.10156,923.6273 L79.29688,908.3047 L79.49219,927.3423 L79.6875,922.6694 L79.88281,937.6586 L80.07813,911.8515 L80.27344,907.4918 L80.46875,926.2225 L80.66406,917.6175 L80.85938,940.3546 L81.05469,917.2642 L81.25,924.0995 L81.44531,911.9883 L81.64063,929.741 L81.83594,924.7603 L82.03125,880.1278 L82.22656,851.7807 L82.42188,939.1468 L82.61719,886.0883 L82.8125,927.7557 L83.00781,920.851 L83.20313,925.3012 L83.39844,934.6555 L83.59375,947.1454 L83.78906,916.4555 L83.98438,846.7751 L84.17969,937.1523 L84.375,934.5503 L84.57031,934.3198 L84.76563,883.6807 L84.96094,921.7617 L85.15625,918.6058 L85.35156,940.7242 L85.54688,920.9728 L85.74219,923.2911 L85.9375,934.1112 L86.13281,936.5919 L86.32813,924.5338 L86.52344,910.637 L86.71875,911.8126 L86.91406,889.2017 L87.10938,938.6223 L87.30469,937.1391 L87.5,905.6839 L87.69531,918.5233 L87.89063,886.7081 L88.08594,932.1913 L88.28125,917.1505 L88.47656,901.1974 L88.67188,845.1069 L88.86719,921.6636 L89.0625,900.5693 L89.25781,924.9215 L89.45313,912.4726 L89.64844,929.3274 L89.84375,916.7284 L90.03906,934.8218 L90.23438,921.1806 L90.42969,870.0663 L90.625,911.9609 L90.82031,935.2281 L91.01563,922.8961 L91.21094,931.0049 L91.40625,939.9711 L91.60156,904.2281 L91.79688,932.2242 L91.99219,928.2882 L92.1875,899.6727 L92.38281,902.3433 L92.57813,897.8527 L92.77344,916.2343 L92.96875,933.0034 L93.16406,922.9391 L93.35938,918.7853 L93.55469,935.0802 L93.75,917.0629 L93.94531,942.8859 L94.14063,935.4641 L94.33594,865.4058 L94.53125,899.8968 L94.72656,929.3207 L94.92188,925.1948 L95.11719,934.4125 L95.3125,901.1329 L95.50781,911.8733 L95.70313,874.7888 L95.89844,910.954 L96.09375,836.5779 L96.28906,924.691 L96.48438,904.5719 L96.67969,937.2126 L96.875,887.7609 L97.07031,930.4693 L97.26563,936.2681 L97.46094,924.5757 L97.65625,933.5582 L97.85156,930.9261 L98.04688,897.1808 L98.24219,948.7572 L98.4375,921.5064 L98.63281,912.0579 L98.82813,923.2098 L99.02344,927.3813 L99.21875,925.0456 L99.41406,915.6865 L99.60938,911.8546 L99.80469,930.7686 L100,913.3491 L100.1953,933.827 L100.3906,936.8083 L100.5859,928.824 L100.7813,935.8584 L100.9766,927.477 L101.1719,922.855 L101.3672,934.6679 L101.5625,934.5079 L101.7578,932.9949 L101.9531,922.6075 L102.1484,857.9366 L102.3438,930.1484 L102.5391,938.399 L102.7344,939.9268 L102.9297,934.8337 L103.125,930.4031 L103.3203,825.9488 L103.5156,935.1282 L103.7109,934.8528 L103.9063,867.1738 L104.1016,850.5236 L104.2969,935.5841 L104.4922,916.49 L104.6875,935.3366 L104.8828,928.4582 L105.0781,919.3167 L105.2734,934.9673 L105.4688,936.3157 L105.6641,921.0601 L105.8594,916.2903 L106.0547,931.1944 L106.25,944.7245 L106.4453,868.3217 L106.6406,931.7409 L106.8359,928.5001 L107.0313,923.3976 L107.2266,924.2516 L107.4219,892.8676 L107.6172,930.6013 L107.8125,934.351 L108.0078,842.4035 L108.2031,899.1495 L108.3984,938.7997 L108.5938,936.5998 L108.7891,925.0574 L108.9844,925.4855 L109.1797,921.9153 L109.375,919.1227 L109.5703,902.6866 L109.7656,928.1733 L109.9609,930.7861 L110.1563,904.2614 L110.3516,903.2992 L110.5469,929.6911 L110.7422,932.4367 L110.9375,931.8995 L111.1328,940.1385 L111.3281,943.4529 L111.5234,870.6309 L111.7188,894.0793 L111.9141,932.066 L112.1094,924.43 L112.3047,929.8964 L112.5,938.2396 L112.6953,861.3973 L112.8906,918.2205 L113.0859,928.7134 L113.2813,917.7007 L113.4766,897.5167 L113.6719,933.3704 L113.8672,930.4346 L114.0625,932.3849 L114.2578,921.0936 L114.4531,919.3685 L114.6484,921.8708 L114.8438,938.6741 L115.0391,927.1547 L115.2344,938.2427 L115.4297,925.5107 L115.625,905.6403 L115.8203,934.3488 L116.0156,942.605 L116.2109,940.048 L116.4063,828.4743 L116.6016,919.5084 L116.7969,934.3848 L116.9922,921.4192 L117.1875,907.3639 L117.3828,932.2554 L117.5781,932.2365 L117.7734,936.9799 L117.9688,917.0316 L118.1641,938.1088 L118.3594,935.6002 L118.5547,913.3916 L118.75,933.7852 L118.9453,933.353 L119.1406,935.5267 L119.3359,945.8055 L119.5313,935.3333 L119.7266,925.5958 L119.9219,892.6682 L120.1172,931.415 L120.3125,919.9374 L120.5078,924.1801 L120.7031,943.9292 L120.8984,917.3829 L121.0938,889.5325 L121.2891,915.5601 L121.4844,906.3782 L121.6797,905.2881 L121.875,921.3099 L122.0703,891.7153 L122.2656,847.5381 L122.4609,914.8942 L122.6563,886.1154 L122.8516,932.5428 L123.0469,913.9766 L123.2422,934.0162 L123.4375,930.6335 L123.6328,924.6833 L123.8281,911.2159 L124.0234,922.9547 L124.2188,923.2293 L124.4141,893.6191 L124.6094,926.8162 L124.8047,909.6352 L125,932.7582 L125.1953,938.15 L125.3906,934.9806 L125.5859,925.8776 L125.7813,929.3096 L125.9766,934.4246 L126.1719,895.9656 L126.3672,913.3404 L126.5625,880.5089 L126.7578,907.6715 L126.9531,925.9248 L127.1484,913.609 L127.3438,923.5613 L127.5391,935.4684 L127.7344,884.0763 L127.9297,933.1917 L128.125,925.1069 L128.3203,875.1549 L128.5156,930.5602 L128.7109,918.6409 L128.9063,924.014 L129.1016,921.8801 L129.2969,923.0432 L129.4922,930.0353 L129.6875,950 L129.8828,921.8517 L130.0781,933.3945 L130.2734,856.8878 L130.4688,875.9542 L130.6641,881.3104 L130.8594,919.8552 L131.0547,924.8734 L131.25,925.3771 L131.4453,856.8184 L131.6406,938.9166 L131.8359,926.4395 L132.0313,938.5312 L132.2266,898.5607 L132.4219,917.7519 L132.6172,910.062 L132.8125,926.9909 L133.0078,874.3622 L133.2031,886.7664 L133.3984,936.5034 L133.5938,933.2935 L133.7891,924.3486 L133.9844,929.6177 L134.1797,924.5458 L134.375,929.2639 L134.5703,930.9349 L134.7656,912.2626 L134.9609,924.8193 L135.1563,924.341 L135.3516,924.426 L135.5469,931.8425 L135.7422,886.9001 L135.9375,939.6832 L136.1328,838.0742 L136.3281,930.5372 L136.5234,941.6925 L136.7188,850.0284 L136.9141,934.8977 L137.1094,939.2856 L137.3047,925.3466 L137.5,880.8321 L137.6953,922.6924 L137.8906,927.071 L138.0859,925.0605 L138.2813,929.6912 L138.4766,933.2173 L138.6719,908.636 L138.8672,922.7368 L139.0625,929.4067 L139.2578,924.4071 L139.4531,887.5245 L139.6484,915.3593 L139.8438,921.6899 L140.0391,910.7217 L140.2344,933.4299 L140.4297,897.8432 L140.625,929.09 L140.8203,916.6652 L141.0156,915.8537 L141.2109,937.1123 L141.4063,878.231 L141.6016,929.4099 L141.7969,907.3484 L141.9922,881.0644 L142.1875,861.3647 L142.3828,928.3364 L142.5781,914.9462 L142.7734,932.9286 L142.9688,936.6006 L143.1641,930.6879 L143.3594,924.4655 L143.5547,905.7596 L143.75,937.3784 L143.9453,929.793 L144.1406,922.3181 L144.3359,916.554 L144.5313,934.8704 L144.7266,933.5052 L144.9219,875.2665 L145.1172,922.4565 L145.3125,921.7579 L145.5078,937.1135 L145.7031,939.0077 L145.8984,932.9897 L146.0938,914.4415 L146.2891,931.8193 L146.4844,908.1934 L146.6797,895.8635 L146.875,931.6418 L147.0703,918.3683 L147.2656,883.687 L147.4609,917.1437 L147.6563,938.6725 L147.8516,891.6049 L148.0469,900.1566 L148.2422,926.5508 L148.4375,869.8524 L148.6328,927.5112 L148.8281,878.3813 L149.0234,894.7571 L149.2188,897.1681 L149.4141,857.8502 L149.6094,924.342 L149.8047,930.9933 L150,873.999 L150.1953,885.8718 L150.3906,932.5717 L150.5859,920.9943 L150.7813,918.646 L150.9766,923.17 L151.1719,886.1614 L151.3672,927.7056 L151.5625,933.5101 L151.7578,934.984 L151.9531,925.0147 L152.1484,934.9814 L152.3438,924.5621 L152.5391,923.0211 L152.7344,850.8528 L152.9297,925.48 L153.125,898.3154 L153.3203,921.3879 L153.5156,898.9171 L153.7109,922.9886 L153.9063,931.3185 L154.1016,930.8421 L154.2969,936.4992 L154.4922,897.7737 L154.6875,921.9448 L154.8828,932.0858 L155.0781,930.3157 L155.2734,936.0851 L155.4688,933.9607 L155.6641,918.9065 L155.8594,934.3322 L156.0547,932.7742 L156.25,940.3284 L156.4453,904.075 L156.6406,931.5391 L156.8359,875.6642 L157.0313,916.9393 L157.2266,933.4024 L157.4219,929.5255 L157.6172,875.9647 L157.8125,921.3867 L158.0078,917.4935 L158.2031,928.2905 L158.3984,942.7747 L158.5938,908.7019 L158.7891,893.028 L158.9844,898.2625 L159.1797,927.3859 L159.375,938.3442 L159.5703,902.7984 L159.7656,926.6429 L159.9609,931.1127 L160.1563,940.4945 L160.3516,870.5201 L160.5469,886.6085 L160.7422,919.3987 L160.9375,925.6179 L161.1328,937.0742 L161.3281,931.1588 L161.5234,924.3091 L161.7188,925.7169 L161.9141,884.1625 L162.1094,926.553 L162.3047,929.3596 L162.5,934.1342 L162.6953,934.5201 L162.8906,915.9626 L163.0859,911.2146 L163.2813,921.0345 L163.4766,934.4328 L163.6719,908.9608 L163.8672,923.563 L164.0625,937.3672 L164.2578,927.5458 L164.4531,932.3801 L164.6484,928.5441 L164.8438,927.7924 L165.0391,918.264 L165.2344,932.7072 L165.4297,929.618 L165.625,934.425 L165.8203,934.8049 L166.0156,910.4529 L166.2109,930.3584 L166.4063,937.4113 L166.6016,905.2907 L166.7969,916.0829 L166.9922,907.0521 L167.1875,929.712 L167.3828,913.9602 L167.5781,893.6793 L167.7734,935.9834 L167.9688,933.5596 L168.1641,927.8069 L168.3594,946.9201 L168.5547,925.8206 L168.75,935.9837 L168.9453,937.7137 L169.1406,927.3245 L169.3359,934.4147 L169.5313,875.137 L169.7266,929.9844 L169.9219,935.1389 L170.1172,913.7817 L170.3125,939.3576 L170.5078,896.0819 L170.7031,904.9069 L170.8984,924.1602 L171.0938,930.6184 L171.2891,932.0404 L171.4844,932.3784 L171.6797,927.4504 L171.875,906.7521 L172.0703,937.7476 L172.2656,924.8229 L172.4609,924.8628 L172.6563,863.3763 L172.8516,930.6447 L173.0469,906.3692 L173.2422,922.5803 L173.4375,920.8906 L173.6328,934.3284 L173.8281,923.5311 L174.0234,927.7918 L174.2188,927.9501 L174.4141,923.4625 L174.6094,924.05 L174.8047,912.9806 L175,924.4809 L175.1953,941.7225 L175.3906,927.8996 L175.5859,929.0378 L175.7813,943.7114 L175.9766,916.5751 L176.1719,930.8159 L176.3672,935.0829 L176.5625,924.4629 L176.7578,945.5273 L176.9531,920.5605 L177.1484,923.191 L177.3438,887.2837 L177.5391,883.5989 L177.7344,947.7398 L177.9297,941.2779 L178.125,908.8547 L178.3203,922.7569 L178.5156,947.1657 L178.7109,941.8358 L178.9063,913.7767 L179.1016,925.2373 L179.2969,925.3241 L179.4922,936.9215 L179.6875,931.4688 L179.8828,924.165 L180.0781,882.6456 L180.2735,925.6016 L180.4688,931.5853 L180.6641,939.2989 L180.8594,930.8693 L181.0547,916.3929 L181.25,929.7682 L181.4453,912.9354 L181.6406,911.947 L181.8359,901.9605 L182.0313,882.7077 L182.2266,906.2327 L182.4219,936.611 L182.6172,911.4648 L182.8125,926.0236 L183.0078,933.1316 L183.2031,869.8933 L183.3984,866.7534 L183.5938,925.5964 L183.7891,926.7897 L183.9844,931.6693 L184.1797,932.1347 L184.375,931.8741 L184.5703,940.9583 L184.7656,934.8781 L184.9609,929.9063 L185.1563,931.2934 L185.3516,923.1829 L185.5469,858.32 L185.7422,825.3995 L185.9375,933.624 L186.1328,866.9333 L186.3281,939.5103 L186.5234,937.4741 L186.7188,881.3736 L186.9141,942.7915 L187.1094,923.9471 L187.3047,921.339 L187.5,927.0243 L187.6953,928.5751 L187.8906,926.1552 L188.086,927.7034 L188.2813,927.1619 L188.4766,907.3579 L188.6719,927.6074 L188.8672,937.9951 L189.0625,925.7542 L189.2578,932.022 L189.4531,938.6046 L189.6484,931.7095 L189.8438,943.0726 L190.0391,938.3821 L190.2344,929.7761 L190.4297,838.4905 L190.625,933.387 L190.8203,917.2293 L191.0156,909.6118 L191.2109,932.8463 L191.4063,922.2532 L191.6016,918.9926 L191.7969,896.9308 L191.9922,933.1597 L192.1875,936.0514 L192.3828,891.7611 L192.5781,872.2918 L192.7734,890.3232 L192.9688,932.7893 L193.1641,908.0479 L193.3594,929.324 L193.5547,909.1755 L193.75,874.1714 L193.9453,933.6083 L194.1406,919.6104 L194.3359,932.6766 L194.5313,932.622 L194.7266,932.1792 L194.9219,946.8403 L195.1172,865.8999 L195.3125,937.4094 L195.5078,920.8582 L195.7031,938.5861 L195.8985,896.5425 L196.0938,928.8318 L196.2891,937.7318 L196.4844,929.3751 L196.6797,927.1765 L196.875,931.6397 L197.0703,926.7661 L197.2656,918.9597 L197.4609,933.7022 L197.6563,934.4018 L197.8516,908.4054 L198.0469,915.1824 L198.2422,922.0564 L198.4375,933.0358 L198.6328,943.4784 L198.8281,918.376 L199.0234,935.3961 L199.2188,939.325 L199.4141,930.3055 L199.6094,899.0464 L199.8047,877.1725 L200,863.2465 L200.1953,919.529 L200.3906,930.959 L200.5859,920.2856 L200.7813,931.7517 L200.9766,931.5483 L201.1719,925.4755 L201.3672,899.9433 L201.5625,932.879 L201.7578,911.9727 L201.9531,919.672 L202.1484,901.9467 L202.3438,878.6622 L202.5391,939.124 L202.7344,845.3861 L202.9297,923.2535 L203.125,930.4662 L203.3203,886.9839 L203.5156,909.46 L203.711,923.5016 L203.9063,830.9147 L204.1016,929.8113 L204.2969,940.6819 L204.4922,919.869 L204.6875,938.6263 L204.8828,928.1754 L205.0781,895.5961 L205.2734,932.8915 L205.4688,925.0193 L205.6641,920.0823 L205.8594,932.5916 L206.0547,935.0322 L206.25,870.6387 L206.4453,923.1166 L206.6406,939.7911 L206.8359,941.2941 L207.0313,911.284 L207.2266,889.868 L207.4219,906.5162 L207.6172,921.8192 L207.8125,910.5384 L208.0078,931.551 L208.2031,931.8131 L208.3984,910.4576 L208.5938,928.0572 L208.7891,869.6382 L208.9844,931.9767 L209.1797,938.2469 L209.375,933.1223 L209.5703,931.6366 L209.7656,911.5195 L209.9609,934.6636 L210.1563,935.1113 L210.3516,931.6745 L210.5469,929.343 L210.7422,921.83 L210.9375,928.6544 L211.1328,935.9335 L211.3281,931.6968 L211.5235,896.0195 L211.7188,909.7157 L211.9141,927.0335 L212.1094,893.8171 L212.3047,928.383 L212.5,930.8642 L212.6953,886.5966 L212.8906,930.5906 L213.0859,937.3273 L213.2813,862.626 L213.4766,927.5105 L213.6719,879.4072 L213.8672,852.2578 L214.0625,930.1097 L214.2578,923.5739 L214.4531,893.7817 L214.6484,924.0262 L214.8438,870.8224 L215.0391,862.649 L215.2344,937.6942 L215.4297,908.5968 L215.625,927.4753 L215.8203,917.5278 L216.0156,888.259 L216.2109,915.7093 L216.4063,919.733 L216.6016,934.9851 L216.7969,939.5619 L216.9922,913.7052 L217.1875,904.9544 L217.3828,909.5894 L217.5781,905.1519 L217.7734,889.7793 L217.9688,928.0353 L218.1641,933.5167 L218.3594,935.2184 L218.5547,932.5848 L218.75,927.7855 L218.9453,907.8875 L219.1406,904.9498 L219.336,922.2451 L219.5313,912.5727 L219.7266,930.7633 L219.9219,937.8022 L220.1172,906.8586 L220.3125,916.1788 L220.5078,925.5071 L220.7031,928.8635 L220.8984,929.308 L221.0938,923.3892 L221.2891,931.7032 L221.4844,908.1677 L221.6797,928.8635 L221.875,920.5266 L222.0703,941.5567 L222.2656,917.4091 L222.4609,941.7884 L222.6563,920.13 L222.8516,924.8134 L223.0469,936.2498 L223.2422,908.5939 L223.4375,908.0298 L223.6328,936.2599 L223.8281,923.8137 L224.0234,909.8197 L224.2188,930.2515 L224.4141,855.7916 L224.6094,929.8427 L224.8047,884.0331 L225,887.3838 L225.1953,915.1511 L225.3906,927.8561 L225.5859,927.3303 L225.7813,899.4688 L225.9766,921.5881 L226.1719,817.3461 L226.3672,935.8719 L226.5625,858.5629 L226.7578,937.1293 L226.9531,910.2446 L227.1485,930.6158 L227.3438,921.0275 L227.5391,915.485 L227.7344,926.7363 L227.9297,929.7192 L228.125,942.7861 L228.3203,898.876 L228.5156,921.7311 L228.7109,929.5176 L228.9063,934.1964 L229.1016,938.403 L229.2969,936.8007 L229.4922,930.7048 L229.6875,916.9205 L229.8828,933.1239 L230.0781,898.4535 L230.2734,899.8749 L230.4688,898.2441 L230.6641,920.9187 L230.8594,927.5851 L231.0547,933.9753 L231.25,881.8324 L231.4453,932.4298 L231.6406,931.5497 L231.8359,937.0607 L232.0313,875.5428 L232.2266,922.8971 L232.4219,903.3383 L232.6172,925.4943 L232.8125,934.5692 L233.0078,935.3721 L233.2031,936.4425 L233.3984,935.1974 L233.5938,939.4309 L233.7891,924.0068 L233.9844,903.1648 L234.1797,772.7179 L234.375,868.2307 L234.5703,922.6547 L234.7656,924.3976 L234.961,940.2342 L235.1563,939.6417 L235.3516,934.5143 L235.5469,858.601 L235.7422,915.5891 L235.9375,932.6149 L236.1328,883.0037 L236.3281,904.1022 L236.5234,901.1893 L236.7188,928.0507 L236.9141,919.9806 L237.1094,932.5413 L237.3047,916.8499 L237.5,921.5869 L237.6953,940.5041 L237.8906,936.1109 L238.0859,921.2126 L238.2813,917.3054 L238.4766,879.3584 L238.6719,927.4875 L238.8672,925.6934 L239.0625,926.8177 L239.2578,891.8742 L239.4531,921.1774 L239.6484,874.2101 L239.8438,927.5031 L240.0391,929.6086 L240.2344,894.2242 L240.4297,929.0944 L240.625,840.195 L240.8203,928.0344 L241.0156,895.4893 L241.2109,926.9885 L241.4063,928.1098 L241.6016,883.9586 L241.7969,934.4343 L241.9922,904.5261 L242.1875,907.4596 L242.3828,906.1203 L242.5781,919.8477 L242.7735,931.9852 L242.9688,885.7564 L243.1641,909.2601 L243.3594,939.7797 L243.5547,932.8524 L243.75,886.6458 L243.9453,939.6105 L244.1406,920.3609 L244.3359,925.9754 L244.5313,914.2852 L244.7266,935.4377 L244.9219,926.8837 L245.1172,902.4826 L245.3125,935.4376 L245.5078,924.6116 L245.7031,931.2498 L245.8984,930.9268 L246.0938,918.9312 L246.2891,926.616 L246.4844,913.1279 L246.6797,937.6486 L246.875,903.6689 L247.0703,857.3553 L247.2656,927.5874 L247.4609,907.2957 L247.6563,932.0796 L247.8516,927.5422 L248.0469,930.4758 L248.2422,886.8166 L248.4375,927.8786 L248.6328,925.727 L248.8281,902.2059 L249.0234,935.6318 L249.2188,917.1598 L249.4141,932.7602 L249.6094,937.7698 L249.8047,929.0462 L250,927.5543 L250.1953,920.0505 L250.3906,932.3406 L250.586,907.9403 L250.7813,899.2761 L250.9766,931.5279 L251.1719,926.9973 L251.3672,926.6075 L251.5625,928.2306 L251.7578,929.7213 L251.9531,916.7675 L252.1484,910.7405 L252.3438,934.8488 L252.5391,929.9772 L252.7344,916.4692 L252.9297,931.9697 L253.125,932.2535 L253.3203,750 L253.5156,918.2949 L253.7109,863.0748 L253.9063,941.4059 L254.1016,894.9079 L254.2969,921.4613 L254.4922,931.4348 L254.6875,893.1401 L254.8828,854.304 L255.0781,919.3657 L255.2734,913.4574 L255.4688,926.8372 L255.6641,935.093 L255.8594,930.3181 L256.0547,904.1849 L256.25,934.0081 L256.4453,904.5927 L256.6406,914.7382 L256.8359,924.1379 L257.0313,888.2286 L257.2266,902.6351 L257.4219,929.1467 L257.6172,928.6008 L257.8125,872.5825 L258.0078,931.2465 L258.2031,919.6562 L258.3984,928.0428 L258.5938,933.4905 L258.7891,893.6904 L258.9844,930.4768 L259.1797,927.383 L259.375,919.3292 L259.5703,922.8822 L259.7656,916.5517 L259.9609,945.6578 L260.1563,905.7449 L260.3516,938.7751 L260.5469,924.5844 L260.7422,933.5424 L260.9375,932.4993 L261.1328,918.8361 L261.3281,911.0026 L261.5234,787.4349 L261.7188,938.5861 L261.9141,936.4832 L262.1094,929.4648 L262.3047,805.6361 L262.5,923.1263 L262.6953,892.4773 L262.8906,908.0334 L263.0859,932.0324 L263.2813,936.5251 L263.4766,901.8538 L263.6719,909.843 L263.8672,902.6321 L264.0625,929.3108 L264.2578,918.072 L264.4531,928.2028 L264.6484,912.6633 L264.8438,932.3247 L265.0391,921.2119 L265.2344,887.1231 L265.4297,918.0717 L265.625,933.3854 L265.8203,931.0851 L266.0156,943.5709 L266.2109,881.0156 L266.4063,865.2556 L266.6016,903.2553 L266.7969,918.3643 L266.9922,909.3577 L267.1875,928.5627 L267.3828,924.4683 L267.5781,927.1879 L267.7734,856.8901 L267.9688,928.8206 L268.1641,900.8323 L268.3594,916.1977 L268.5547,924.2747 L268.75,922.2441 L268.9453,924.6481 L269.1406,940.2682 L269.3359,915.8178 L269.5313,902.3324 L269.7266,930.2257 L269.9219,920.9834 L270.1172,859.4625 L270.3125,924.8212 L270.5078,935.2693 L270.7031,935.9922 L270.8984,923.4725 L271.0938,919.6219 L271.2891,858.1129 L271.4844,920.4452 L271.6797,940.4257 L271.875,932.9149 L272.0703,922.1915 L272.2656,932.4368 L272.4609,904.2556 L272.6563,937.609 L272.8516,936.3387 L273.0469,917.1644 L273.2422,933.4494 L273.4375,919.3895 L273.6328,925.2186 L273.8281,918.0394 L274.0234,931.443 L274.2188,930.8498 L274.4141,932.0967 L274.6094,937.3359 L274.8047,935.385 L275,854.4197 L275.1953,914.2874 L275.3906,927.0825 L275.5859,927.1881 L275.7813,920.0087 L275.9766,900.9008 L276.1719,934.0309 L276.3672,934.3248 L276.5625,836.9447 L276.7578,935.7977 L276.9531,911.8234 L277.1484,932.8217 L277.3438,933.6048 L277.5391,934.3582 L277.7344,927.6487 L277.9297,902.6631 L278.125,931.641 L278.3203,929.9471 L278.5156,914.2668 L278.7109,929.3089 L278.9063,906.6677 L279.1016,878.7101 L279.2969,914.8664 L279.4922,943.815 L279.6875,900.1814 L279.8828,935.4177 L280.0781,937.4163 L280.2734,934.2493 L280.4688,890.4886 L280.6641,925.5649 L280.8594,921.6169 L281.0547,921.3715 L281.25,890.4904 L281.4453,921.5265 L281.6406,943.6649 L281.8359,896.9209 L282.0313,907.936 L282.2266,879.8586 L282.4219,916.7617 L282.6172,927.4382 L282.8125,923.1954 L283.0078,906.4882 L283.2031,859.8549 L283.3984,938.4476 L283.5938,940.8646 L283.7891,937.5452 L283.9844,931.9534 L284.1797,942.5209 L284.375,858.8522 L284.5703,931.0209 L284.7656,909.7587 L284.9609,908.5674 L285.1563,941.6556 L285.3516,929.4094 L285.5469,922.7889 L285.7422,931.905 L285.9375,917.1072 L286.1328,934.5765 L286.3281,925.2423 L286.5234,879.4894 L286.7188,923.1484 L286.9141,936.5269 L287.1094,933.3724 L287.3047,923.1449 L287.5,935.193 L287.6953,917.5228 L287.8906,937.6577 L288.0859,934.9816 L288.2813,940.6013 L288.4766,930.4203 L288.6719,918.4537 L288.8672,944.3967 L289.0625,906.1491 L289.2578,912.1467 L289.4531,926.4277 L289.6484,932.6273 L289.8438,929.0417 L290.0391,928.655 L290.2344,913.7142 L290.4297,927.2145 L290.625,916.9473 L290.8203,944.9387 L291.0156,899.4103 L291.2109,895.2918 L291.4063,927.859 L291.6016,924.3291 L291.7969,928.3773 L291.9922,914.8569 L292.1875,922.8857 L292.3828,912.7306 L292.5781,946.8558 L292.7734,929.2632 L292.9688,924.5842 L293.1641,923.8713 L293.3594,937.7649 L293.5547,943.8317 L293.75,831.378 L293.9453,924.6093 L294.1406,916.3417 L294.3359,930.7617 L294.5313,814.9835 L294.7266,925.621 L294.9219,935.8176 L295.1172,933.2032 L295.3125,929.0027 L295.5078,912.0179 L295.7031,933.1674 L295.8984,909.5339 L296.0938,905.2363 L296.2891,937.9818 L296.4844,919.4203 L296.6797,937.9258 L296.875,926.2873 L297.0703,925.4672 L297.2656,932.5822 L297.4609,920.8998 L297.6563,930.8367 L297.8516,933.1548 L298.0469,923.9532 L298.2422,922.4652 L298.4375,896.8823 L298.6328,936.5698 L298.8281,913.0283 L299.0234,930.45 L299.2188,936.3652 L299.4141,918.0314 L299.6094,934.5919 L299.8047,845.5582 L300,888.7093 L300.1953,926.5282 L300.3906,861.4818 L300.5859,940.5777 L300.7813,932.529 L300.9766,914.426 L301.1719,930.5252 L301.3672,932.6884 L301.5625,913.5703 L301.7578,930.1774 L301.9531,933.6169 L302.1484,928.3719 L302.3438,932.2866 L302.5391,924.3801 L302.7344,884.0154 L302.9297,934.9581 L303.125,925.3258 L303.3203,904.4647 L303.5156,892.6191 L303.711,949.3666 L303.9063,928.4037 L304.1016,904.9918 L304.2969,938.6686 L304.4922,933.6409 L304.6875,918.5949 L304.8828,919.2913 L305.0781,915.7961 L305.2734,816.9562 L305.4688,914.4537 L305.6641,922.4099 L305.8594,918.8783 L306.0547,922.9719 L306.25,920.4267 L306.4453,918.9375 L306.6407,932.9625 L306.8359,933.1639 L307.0313,925.9199 L307.2266,937.8401 L307.4219,910.0417 L307.6172,879.216 L307.8125,932.8293 L308.0078,934.4591 L308.2031,908.8032 L308.3984,918.3148 L308.5938,880.8107 L308.7891,910.4324 L308.9844,932.6287 L309.1797,925.914 L309.375,921.6474 L309.5703,929.8896 L309.7656,926.5771 L309.9609,880.6396 L310.1563,930.0767 L310.3516,928.9469 L310.5469,919.9815 L310.7422,924.4822 L310.9375,933.2568 L311.1328,935.0936 L311.3281,872.6447 L311.5235,909.4391 L311.7188,943.472 L311.9141,924.1572 L312.1094,934.5616 L312.3047,913.205 L312.5,913.7432 L312.6953,930.1489 L312.8906,943.3212 L313.0859,932.6465 L313.2813,935.5392 L313.4766,929.546 L313.6719,928.2241 L313.8672,937.6564 L314.0625,919.4254 L314.2578,924.0815 L314.4532,926.7101 L314.6484,930.0313 L314.8438,924.9117 L315.0391,934.1492 L315.2344,890.6534 L315.4297,944.6878 L315.625,937.025 L315.8203,929.3613 L316.0156,933.8102 L316.2109,920.6823 L316.4063,881.4489 L316.6016,925.2283 L316.7969,933.6365 L316.9922,916.5789 L317.1875,932.4964 L317.3828,908.8703 L317.5781,930.2123 L317.7734,877.2286 L317.9688,921.362 L318.1641,920.8856 L318.3594,920.4631 L318.5547,924.0977 L318.75,932.507 L318.9453,933.2885 L319.1406,936.1924 L319.336,941.2774 L319.5313,935.8757 L319.7266,938.7565 L319.9219,928.5142 L320.1172,887.1116 L320.3125,923.4446 L320.5078,906.9076 L320.7031,927.6008 L320.8984,923.584 L321.0938,928.4144 L321.2891,915.655 L321.4844,915.8018 L321.6797,925.4556 L321.875,922.5949 L322.0703,924.6008 L322.2657,925.6113 L322.4609,873.2603 L322.6563,937.608 L322.8516,937.1488 L323.0469,911.264 L323.2422,924.1312 L323.4375,922.7379 L323.6328,936.2212 L323.8281,926.1667 L324.0234,919.3521 L324.2188,928.9693 L324.4141,927.7922 L324.6094,920.9922 L324.8047,937.4413 L325,930.0688 L325.1953,929.1704 L325.3906,940.5554 L325.5859,933.6181 L325.7813,894.3428 L325.9766,937.1517 L326.1719,922.6533 L326.3672,890.4991 L326.5625,922.9419 L326.7578,841.6052 L326.9531,932.7631 L327.1485,929.7418 L327.3438,913.3912 L327.5391,917.837 L327.7344,867.036 L327.9297,879.95 L328.125,878.1587 L328.3203,926.8854 L328.5156,936.9688 L328.7109,929.8322 L328.9063,923.4031 L329.1016,934.5939 L329.2969,932.1426 L329.4922,912.8456 L329.6875,932.0473 L329.8828,902.7167 L330.0782,931.8228 L330.2734,935.6093 L330.4688,938.6675 L330.6641,918.5782 L330.8594,934.5566 L331.0547,921.2054 L331.25,930.2819 L331.4453,927.5991 L331.6406,900.8422 L331.8359,905.7349 L332.0313,920.6554 L332.2266,914.4561 L332.4219,929.1069 L332.6172,928.1738 L332.8125,921.316 L333.0078,927.5261 L333.2031,937.3161 L333.3984,937.2196 L333.5938,938.829 L333.7891,900.2173 L333.9844,900.5853 L334.1797,929.7122 L334.375,926.0004 L334.5703,926.6079 L334.7656,943.5083 L334.961,946.5389 L335.1563,893.6473 L335.3516,942.4041 L335.5469,934.9388 L335.7422,941.3059 L335.9375,938.134 L336.1328,931.0813 L336.3281,908.609 L336.5234,925.0834 L336.7188,942.6672 L336.9141,921.9967 L337.1094,913.1819 L337.3047,859.9107 L337.5,832.0978 L337.6953,910.3651 L337.8907,861.8503 L338.0859,920.4265 L338.2813,922.2709 L338.4766,907.2972 L338.6719,913.8599 L338.8672,931.6357 L339.0625,921.0479 L339.2578,937.1005 L339.4531,928.0811 L339.6484,923.7338 L339.8438,915.4099 L340.0391,925.0446 L340.2344,927.4615 L340.4297,926.5253 L340.625,929.7806 L340.8203,941.0009 L341.0156,939.1526 L341.2109,934.7597 L341.4063,924.2383 L341.6016,920.9952 L341.7969,939.6266 L341.9922,871.4223 L342.1875,911.9955 L342.3828,935.4551 L342.5781,932.5566 L342.7735,922.0551 L342.9688,916.4651 L343.1641,937.6375 L343.3594,857.7805 L343.5547,927.4667 L343.75,915.144 L343.9453,930.1429 L344.1406,930.3483 L344.3359,924.6106 L344.5313,930.9736 L344.7266,935.8713 L344.9219,922.8477 L345.1172,871.6651 L345.3125,932.3348 L345.5078,942.0283 L345.7032,933.854 L345.8984,925.8564 L346.0938,914.3607 L346.2891,929.4515 L346.4844,879.3927 L346.6797,927.0871 L346.875,878.3206 L347.0703,920.6907 L347.2656,931.4153 L347.4609,898.9856 L347.6563,934.8681 L347.8516,876.4378 L348.0469,919.0206 L348.2422,934.1528 L348.4375,864.928 L348.6328,942.9534 L348.8281,924.4913 L349.0234,921.165 L349.2188,933.2703 L349.4141,875.9043 L349.6094,934.3858 L349.8047,897.0101 L350,918.1856 L350.1953,937.7814 L350.3906,908.296 L350.586,931.2548 L350.7813,919.8343 L350.9766,853.0779 L351.1719,928.7925 L351.3672,937.3025 L351.5625,893.4979 L351.7578,932.2361 L351.9531,901.3195 L352.1484,934.7475 L352.3438,927.5355 L352.5391,910.7373 L352.7344,931.1094 L352.9297,936.3719 L353.125,933.7916 L353.3203,935.1171 L353.5157,926.0477 L353.7109,929.6664 L353.9063,925.7723 L354.1016,930.3512 L354.2969,939.8291 L354.4922,930.0577 L354.6875,932.058 L354.8828,917.4014 L355.0781,929.1392 L355.2734,887.4134 L355.4688,947.6352 L355.6641,943.2011 L355.8594,924.0723 L356.0547,923.5021 L356.25,939.1983 L356.4453,929.3702 L356.6406,818.2582 L356.8359,923.8883 L357.0313,936.9381 L357.2266,932.8318 L357.4219,924.5359 L357.6172,929.4114 L357.8125,931.1774 L358.0078,921.4161 L358.2031,907.6018 L358.3985,919.4099 L358.5938,924.8159 L358.7891,933.3945 L358.9844,878.0583 L359.1797,935.5103 L359.375,922.51 L359.5703,930.8795 L359.7656,924.3205 L359.9609,916.9578 L360.1563,913.1264 L360.3516,941.2103 L360.5469,922.0624 L360.7422,927.5508 L360.9375,903.3026 L361.1328,937.6971 L361.3282,925.4563 L361.5234,925.339 L361.7188,930.8926 L361.9141,923.7972 L362.1094,928.7614 L362.3047,926.3824 L362.5,922.8912 L362.6953,922.7498 L362.8906,886.0928 L363.0859,895.7425 L363.2813,933.1503 L363.4766,926.7587 L363.6719,930.0342 L363.8672,940.2562 L364.0625,814.3364 L364.2578,840.6612 L364.4531,897.6736 L364.6484,906.6856 L364.8438,939.1674 L365.0391,927.7932 L365.2344,935.9468 L365.4297,925.7275 L365.625,936.1376 L365.8203,908.418 L366.0156,917.9092 L366.211,920.2341 L366.4063,942.8047 L366.6016,929.0295 L366.7969,932.2741 L366.9922,940.9544 L367.1875,919.607 L367.3828,922.9333 L367.5781,923.7811 L367.7734,933.0912 L367.9688,934.6828 L368.1641,936.4146 L368.3594,922.5139 L368.5547,922.4327 L368.75,934.4344 L368.9453,941.8835 L369.1407,943.3019 L369.3359,931.9534 L369.5313,933.025 L369.7266,919.5052 L369.9219,934.6863 L370.1172,882.6807 L370.3125,923.8522 L370.5078,902.5119 L370.7031,917.0667 L370.8984,901.8036 L371.0938,936.8979 L371.2891,924.4382 L371.4844,933.329 L371.6797,929.8347 L371.875,893.0321 L372.0703,932.5894 L372.2656,931.5938 L372.4609,923.0932 L372.6563,944.4541 L372.8516,872.2147 L373.0469,887.2425 L373.2422,943.0157 L373.4375,911.3299 L373.6328,928.9626 L373.8281,857.8735 L374.0235,777.3929 L374.2188,930.6975 L374.4141,910.8697 L374.6094,909.6628 L374.8047,932.2789 L375,926.3418 L375.1953,923.0682 L375.3906,905.1854 L375.5859,921.0499 L375.7813,912.6594 L375.9766,933.0607 L376.1719,924.3982 L376.3672,857.2014 L376.5625,926.7741 L376.7578,924.7372 L376.9532,925.8209 L377.1484,930.9372 L377.3438,912.856 L377.5391,921.4194 L377.7344,892.7776 L377.9297,919.5063 L378.125,925.4849 L378.3203,930.1173 L378.5156,908.9467 L378.7109,916.8707 L378.9063,917.0224 L379.1016,909.5869 L379.2969,932.7056 L379.4922,910.0162 L379.6875,915.9982 L379.8828,941.6696 L380.0781,914.0098 L380.2734,931.5252 L380.4688,915.6152 L380.6641,924.1808 L380.8594,925.1788 L381.0547,891.2978 L381.25,898.3809 L381.4453,941.5136 L381.6406,930.6969 L381.836,887.5018 L382.0313,926.5087 L382.2266,918.637 L382.4219,918.7562 L382.6172,947.4771 L382.8125,934.9485 L383.0078,932.5225 L383.2031,935.5804 L383.3984,932.1571 L383.5938,930.6467 L383.7891,931.2795 L383.9844,924.4645 L384.1797,928.7782 L384.375,908.3511 L384.5703,921.9908 L384.7657,929.7158 L384.9609,919.1219 L385.1563,925.5914 L385.3516,930.9811 L385.5469,910.9409 L385.7422,923.6242 L385.9375,928.1123 L386.1328,927.3944 L386.3281,926.8356 L386.5234,843.4342 L386.7188,907.5292 L386.9141,921.6856 L387.1094,927.9615 L387.3047,898.1151 L387.5,947.0443 L387.6953,931.9108 L387.8906,933.1074 L388.0859,917.5665 L388.2813,934.8064 L388.4766,923.957 L388.6719,928.9575 L388.8672,930.3456 L389.0625,926.7914 L389.2578,923.5358 L389.4531,927.5466 L389.6485,934.3629 L389.8438,916.8768 L390.0391,914.3766 L390.2344,941.1199 L390.4297,881.6661 L390.625,922.0942 L390.8203,933.34 L391.0156,934.2347 L391.2109,888.0916 L391.4063,925.1404 L391.6016,880.4349 L391.7969,929.3752 L391.9922,920.2816 L392.1875,918.7206 L392.3828,923.8142 L392.5782,911.1718 L392.7734,858.2476 L392.9688,932.9919 L393.1641,932.3643 L393.3594,877.0126 L393.5547,810.7948 L393.75,921.7809 L393.9453,923.5083 L394.1406,934.3796 L394.3359,917.3618 L394.5313,875.33 L394.7266,914.1988 L394.9219,923.4559 L395.1172,905.0862 L395.3125,917.2061 L395.5078,921.8502 L395.7031,929.2928 L395.8984,930.1852 L396.0938,932.1555 L396.2891,899.7826 L396.4844,885.4572 L396.6797,925.8119 L396.875,904.4082 L397.0703,926.7306 L397.2656,861.8423 L397.461,869.3744 L397.6563,934.4139 L397.8516,907.5005 L398.0469,932.2602 L398.2422,933.4366 L398.4375,906.733 L398.6328,931.8223 L398.8281,941.1593 L399.0234,902.2048 L399.2188,860.8061 L399.4141,908.2437 L399.6094,916.3905 L399.8047,921.4985 L400,935.9077 L400.1953,934.4486 L400.3907,929.2009 L400.5859,932.5378 L400.7813,926.5268 L400.9766,930.8388 L401.1719,916.8521 L401.3672,922.6028 L401.5625,924.6288 L401.7578,913.8536 L401.9531,918.6584 L402.1484,884.7546 L402.3438,893.7982 L402.5391,909.6136 L402.7344,929.3585 L402.9297,904.6805 L403.125,901.2339 L403.3203,922.3986 " stroke="blue" fill="none" />
<text x="50" y="1000" font-family="Arial" font-size="12" fill="black">Episode Length (1810)</text>
<text x="50" y="1015" font-family="Arial" font-size="10" fill="black">103</text>
<text x="50" y="1230" font-family="Arial" font-size="10" fill="black">8</text>
<path d="M50,1220 L50.19531,1213.684 L50.39063,1211.579 L50.58594,1209.474 L50.78125,1209.474 L50.97656,1209.474 L51.17188,1207.368 L51.36719,1207.368 L51.5625,1207.368 L51.75781,1207.368 L51.95313,1207.368 L52.14844,1207.368 L52.34375,1205.263 L52.53906,1205.263 L52.73438,1205.263 L52.92969,1205.263 L53.125,1205.263 L53.32031,1205.263 L53.51563,1203.158 L53.71094,1203.158 L53.90625,1203.158 L54.10156,1201.053 L54.29688,1201.053 L54.49219,1198.947 L54.6875,1198.947 L54.88281,1198.947 L55.07813,1198.947 L55.27344,1196.842 L55.46875,1196.842 L55.66406,1196.842 L55.85938,1196.842 L56.05469,1196.842 L56.25,1196.842 L56.44531,1194.737 L56.64063,1194.737 L56.83594,1192.632 L57.03125,1192.632 L57.22656,1190.526 L57.42188,1190.526 L57.61719,1190.526 L57.8125,1188.421 L58.00781,1188.421 L58.20313,1188.421 L58.39844,1188.421 L58.59375,1213.684 L58.78906,1217.895 L58.98438,1184.211 L59.17969,1184.211 L59.375,1182.105 L59.57031,1211.579 L59.76563,1180 L59.96094,1180 L60.15625,1180 L60.35156,1177.895 L60.54688,1198.947 L60.74219,1203.158 L60.9375,1205.263 L61.13281,1173.684 L61.32813,1173.684 L61.52344,1217.895 L61.71875,1171.579 L61.91406,1207.368 L62.10938,1203.158 L62.30469,1169.474 L62.5,1209.474 L62.69531,1201.053 L62.89063,1215.789 L63.08594,1203.158 L63.28125,1201.053 L63.47656,1194.737 L63.67188,1190.526 L63.86719,1188.421 L64.0625,1192.632 L64.25781,1201.053 L64.45313,1161.053 L64.64844,1190.526 L64.84375,1188.421 L65.03906,1198.947 L65.23438,1201.053 L65.42969,1194.737 L65.625,1194.737 L65.82031,1201.053 L66.01563,1203.158 L66.21094,1209.474 L66.40625,1152.632 L66.60156,1205.263 L66.79688,1198.947 L66.99219,1203.158 L67.1875,1188.421 L67.38281,1180 L67.57813,1175.789 L67.77344,1205.263 L67.96875,1192.632 L68.16406,1190.526 L68.35938,1192.632 L68.55469,1144.211 L68.75,1158.947 L68.94531,1205.263 L69.14063,1192.632 L69.33594,1177.895 L69.53125,1207.368 L69.72656,1203.158 L69.92188,1167.368 L70.11719,1173.684 L70.3125,1201.053 L70.50781,1205.263 L70.70313,1196.842 L70.89844,1192.632 L71.09375,1135.789 L71.28906,1198.947 L71.48438,1201.053 L71.67969,1201.053 L71.875,1209.474 L72.07031,1180 L72.26563,1169.474 L72.46094,1192.632 L72.65625,1163.158 L72.85156,1198.947 L73.04688,1201.053 L73.24219,1152.632 L73.4375,1207.368 L73.63281,1192.632 L73.82813,1213.684 L74.02344,1196.842 L74.21875,1177.895 L74.41406,1184.211 L74.60938,1194.737 L74.80469,1198.947 L75,1198.947 L75.19531,1211.579 L75.39063,1154.737 L75.58594,1114.737 L75.78125,1201.053 L75.97656,1188.421 L76.17188,1194.737 L76.36719,1194.737 L76.5625,1194.737 L76.75781,1207.368 L76.95313,1198.947 L77.14844,1196.842 L77.34375,1198.947 L77.53906,1205.263 L77.73438,1209.474 L77.92969,1205.263 L78.125,1190.526 L78.32031,1203.158 L78.51563,1203.158 L78.71094,1129.474 L78.90625,1196.842 L79.10156,1190.526 L79.29688,1177.895 L79.49219,1194.737 L79.6875,1190.526 L79.88281,1205.263 L80.07813,1167.368 L80.27344,1161.053 L80.46875,1201.053 L80.66406,1161.053 L80.85938,1215.789 L81.05469,1188.421 L81.25,1196.842 L81.44531,1184.211 L81.64063,1198.947 L81.83594,1194.737 L82.03125,1156.842 L82.22656,1112.632 L82.42188,1207.368 L82.61719,1156.842 L82.8125,1198.947 L83.00781,1192.632 L83.20313,1194.737 L83.39844,1207.368 L83.59375,1217.895 L83.78906,1184.211 L83.98438,1121.053 L84.17969,1196.842 L84.375,1207.368 L84.57031,1201.053 L84.76563,1131.579 L84.96094,1196.842 L85.15625,1186.316 L85.35156,1198.947 L85.54688,1192.632 L85.74219,1184.211 L85.9375,1203.158 L86.13281,1205.263 L86.32813,1196.842 L86.52344,1180 L86.71875,1186.316 L86.91406,1154.737 L87.10938,1207.368 L87.30469,1207.368 L87.5,1167.368 L87.69531,1188.421 L87.89063,1150.526 L88.08594,1201.053 L88.28125,1171.579 L88.47656,1167.368 L88.67188,1112.632 L88.86719,1188.421 L89.0625,1169.474 L89.25781,1198.947 L89.45313,1186.316 L89.64844,1203.158 L89.84375,1169.474 L90.03906,1205.263 L90.23438,1186.316 L90.42969,1108.421 L90.625,1180 L90.82031,1205.263 L91.01563,1196.842 L91.21094,1194.737 L91.40625,1198.947 L91.60156,1169.474 L91.79688,1205.263 L91.99219,1196.842 L92.1875,1167.368 L92.38281,1150.526 L92.57813,1167.368 L92.77344,1188.421 L92.96875,1205.263 L93.16406,1194.737 L93.35938,1192.632 L93.55469,1207.368 L93.75,1184.211 L93.94531,1209.474 L94.14063,1207.368 L94.33594,1112.632 L94.53125,1173.684 L94.72656,1207.368 L94.92188,1192.632 L95.11719,1205.263 L95.3125,1167.368 L95.50781,1173.684 L95.70313,1137.895 L95.89844,1180 L96.09375,1112.632 L96.28906,1194.737 L96.48438,1177.895 L96.67969,1205.263 L96.875,1158.947 L97.07031,1201.053 L97.26563,1205.263 L97.46094,1194.737 L97.65625,1205.263 L97.85156,1198.947 L98.04688,1171.579 L98.24219,1213.684 L98.4375,1192.632 L98.63281,1177.895 L98.82813,1175.789 L99.02344,1198.947 L99.21875,1196.842 L99.41406,1184.211 L99.60938,1182.105 L99.80469,1196.842 L100,1184.211 L100.1953,1203.158 L100.3906,1205.263 L100.5859,1203.158 L100.7813,1209.474 L100.9766,1190.526 L101.1719,1190.526 L101.3672,1205.263 L101.5625,1205.263 L101.7578,1203.158 L101.9531,1190.526 L102.1484,1116.842 L102.3438,1201.053 L102.5391,1201.053 L102.7344,1213.684 L102.9297,1205.263 L103.125,1194.737 L103.3203,1089.474 L103.5156,1201.053 L103.7109,1205.263 L103.9063,1146.316 L104.1016,1116.842 L104.2969,1194.737 L104.4922,1192.632 L104.6875,1203.158 L104.8828,1198.947 L105.0781,1180 L105.2734,1205.263 L105.4688,1203.158 L105.6641,1182.105 L105.8594,1194.737 L106.0547,1203.158 L106.25,1213.684 L106.4453,1131.579 L106.6406,1201.053 L106.8359,1194.737 L107.0313,1188.421 L107.2266,1194.737 L107.4219,1171.579 L107.6172,1203.158 L107.8125,1205.263 L108.0078,1108.421 L108.2031,1175.789 L108.3984,1209.474 L108.5938,1203.158 L108.7891,1192.632 L108.9844,1196.842 L109.1797,1190.526 L109.375,1188.421 L109.5703,1171.579 L109.7656,1196.842 L109.9609,1198.947 L110.1563,1165.263 L110.3516,1175.789 L110.5469,1201.053 L110.7422,1203.158 L110.9375,1203.158 L111.1328,1205.263 L111.3281,1215.789 L111.5234,1142.105 L111.7188,1154.737 L111.9141,1205.263 L112.1094,1186.316 L112.3047,1203.158 L112.5,1207.368 L112.6953,1112.632 L112.8906,1192.632 L113.0859,1198.947 L113.2813,1188.421 L113.4766,1171.579 L113.6719,1207.368 L113.8672,1198.947 L114.0625,1205.263 L114.2578,1192.632 L114.4531,1184.211 L114.6484,1194.737 L114.8438,1203.158 L115.0391,1201.053 L115.2344,1203.158 L115.4297,1192.632 L115.625,1177.895 L115.8203,1190.526 L116.0156,1203.158 L116.2109,1215.789 L116.4063,1102.105 L116.6016,1192.632 L116.7969,1198.947 L116.9922,1190.526 L117.1875,1173.684 L117.3828,1203.158 L117.5781,1201.053 L117.7734,1207.368 L117.9688,1190.526 L118.1641,1207.368 L118.3594,1205.263 L118.5547,1180 L118.75,1196.842 L118.9453,1203.158 L119.1406,1201.053 L119.3359,1215.789 L119.5313,1205.263 L119.7266,1198.947 L119.9219,1161.053 L120.1172,1201.053 L120.3125,1192.632 L120.5078,1194.737 L120.7031,1207.368 L120.8984,1186.316 L121.0938,1137.895 L121.2891,1182.105 L121.4844,1180 L121.6797,1167.368 L121.875,1192.632 L122.0703,1154.737 L122.2656,1112.632 L122.4609,1186.316 L122.6563,1163.158 L122.8516,1201.053 L123.0469,1167.368 L123.2422,1205.263 L123.4375,1203.158 L123.6328,1196.842 L123.8281,1163.158 L124.0234,1188.421 L124.2188,1194.737 L124.4141,1167.368 L124.6094,1192.632 L124.8047,1180 L125,1205.263 L125.1953,1209.474 L125.3906,1205.263 L125.5859,1194.737 L125.7813,1201.053 L125.9766,1205.263 L126.1719,1158.947 L126.3672,1180 L126.5625,1137.895 L126.7578,1175.789 L126.9531,1190.526 L127.1484,1182.105 L127.3438,1184.211 L127.5391,1207.368 L127.7344,1156.842 L127.9297,1205.263 L128.125,1190.526 L128.3203,1142.105 L128.5156,1205.263 L128.7109,1171.579 L128.9063,1194.737 L129.1016,1190.526 L129.2969,1190.526 L129.4922,1201.053 L129.6875,1213.684 L129.8828,1198.947 L130.0781,1203.158 L130.2734,1112.632 L130.4688,1135.789 L130.6641,1135.789 L130.8594,1180 L131.0547,1192.632 L131.25,1192.632 L131.4453,1108.421 L131.6406,1207.368 L131.8359,1198.947 L132.0313,1201.053 L132.2266,1169.474 L132.4219,1186.316 L132.6172,1171.579 L132.8125,1192.632 L133.0078,1152.632 L133.2031,1158.947 L133.3984,1205.263 L133.5938,1203.158 L133.7891,1190.526 L133.9844,1201.053 L134.1797,1194.737 L134.375,1201.053 L134.5703,1198.947 L134.7656,1165.263 L134.9609,1182.105 L135.1563,1190.526 L135.3516,1196.842 L135.5469,1203.158 L135.7422,1148.421 L135.9375,1203.158 L136.1328,1102.105 L136.3281,1203.158 L136.5234,1203.158 L136.7188,1123.158 L136.9141,1205.263 L137.1094,1201.053 L137.3047,1190.526 L137.5,1148.421 L137.6953,1190.526 L137.8906,1201.053 L138.0859,1192.632 L138.2813,1194.737 L138.4766,1203.158 L138.6719,1175.789 L138.8672,1186.316 L139.0625,1203.158 L139.2578,1194.737 L139.4531,1142.105 L139.6484,1182.105 L139.8438,1190.526 L140.0391,1173.684 L140.2344,1203.158 L140.4297,1171.579 L140.625,1198.947 L140.8203,1186.316 L141.0156,1186.316 L141.2109,1205.263 L141.4063,1156.842 L141.6016,1192.632 L141.7969,1180 L141.9922,1133.684 L142.1875,1114.737 L142.3828,1201.053 L142.5781,1175.789 L142.7734,1205.263 L142.9688,1198.947 L143.1641,1196.842 L143.3594,1194.737 L143.5547,1177.895 L143.75,1182.105 L143.9453,1201.053 L144.1406,1192.632 L144.3359,1184.211 L144.5313,1205.263 L144.7266,1201.053 L144.9219,1142.105 L145.1172,1194.737 L145.3125,1190.526 L145.5078,1209.474 L145.7031,1209.474 L145.8984,1203.158 L146.0938,1165.263 L146.2891,1203.158 L146.4844,1180 L146.6797,1169.474 L146.875,1205.263 L147.0703,1182.105 L147.2656,1144.211 L147.4609,1184.211 L147.6563,1209.474 L147.8516,1152.632 L148.0469,1169.474 L148.2422,1194.737 L148.4375,1110.526 L148.6328,1196.842 L148.8281,1140 L149.0234,1167.368 L149.2188,1140 L149.4141,1118.947 L149.6094,1192.632 L149.8047,1194.737 L150,1127.368 L150.1953,1152.632 L150.3906,1203.158 L150.5859,1192.632 L150.7813,1188.421 L150.9766,1196.842 L151.1719,1158.947 L151.3672,1198.947 L151.5625,1203.158 L151.7578,1205.263 L151.9531,1192.632 L152.1484,1207.368 L152.3438,1196.842 L152.5391,1192.632 L152.7344,1104.211 L152.9297,1196.842 L153.125,1154.737 L153.3203,1194.737 L153.5156,1173.684 L153.7109,1192.632 L153.9063,1196.842 L154.1016,1198.947 L154.2969,1205.263 L154.4922,1146.316 L154.6875,1190.526 L154.8828,1201.053 L155.0781,1201.053 L155.2734,1205.263 L155.4688,1203.158 L155.6641,1190.526 L155.8594,1203.158 L156.0547,1194.737 L156.25,1209.474 L156.4453,1171.579 L156.6406,1192.632 L156.8359,1131.579 L157.0313,1194.737 L157.2266,1203.158 L157.4219,1196.842 L157.6172,1142.105 L157.8125,1194.737 L158.0078,1186.316 L158.2031,1194.737 L158.3984,1209.474 L158.5938,1169.474 L158.7891,1158.947 L158.9844,1163.158 L159.1797,1196.842 L159.375,1207.368 L159.5703,1175.789 L159.7656,1188.421 L159.9609,1196.842 L160.1563,1209.474 L160.3516,1131.579 L160.5469,1144.211 L160.7422,1192.632 L160.9375,1201.053 L161.1328,1205.263 L161.3281,1201.053 L161.5234,1184.211 L161.7188,1192.632 L161.9141,1156.842 L162.1094,1194.737 L162.3047,1192.632 L162.5,1207.368 L162.6953,1201.053 L162.8906,1165.263 L163.0859,1175.789 L163.2813,1190.526 L163.4766,1203.158 L163.6719,1156.842 L163.8672,1190.526 L164.0625,1207.368 L164.2578,1196.842 L164.4531,1203.158 L164.6484,1196.842 L164.8438,1203.158 L165.0391,1188.421 L165.2344,1203.158 L165.4297,1203.158 L165.625,1205.263 L165.8203,1205.263 L166.0156,1180 L166.2109,1203.158 L166.4063,1205.263 L166.6016,1158.947 L166.7969,1175.789 L166.9922,1171.579 L167.1875,1203.158 L167.3828,1182.105 L167.5781,1156.842 L167.7734,1203.158 L167.9688,1207.368 L168.1641,1194.737 L168.3594,1209.474 L168.5547,1194.737 L168.75,1201.053 L168.9453,1207.368 L169.1406,1201.053 L169.3359,1205.263 L169.5313,1144.211 L169.7266,1196.842 L169.9219,1205.263 L170.1172,1184.211 L170.3125,1209.474 L170.5078,1163.158 L170.7031,1163.158 L170.8984,1188.421 L171.0938,1201.053 L171.2891,1203.158 L171.4844,1203.158 L171.6797,1196.842 L171.875,1173.684 L172.0703,1201.053 L172.2656,1194.737 L172.4609,1188.421 L172.6563,1129.474 L172.8516,1203.158 L173.0469,1175.789 L173.2422,1182.105 L173.4375,1190.526 L173.6328,1203.158 L173.8281,1196.842 L174.0234,1194.737 L174.2188,1194.737 L174.4141,1182.105 L174.6094,1198.947 L174.8047,1180 L175,1198.947 L175.1953,1211.579 L175.3906,1192.632 L175.5859,1198.947 L175.7813,1217.895 L175.9766,1190.526 L176.1719,1203.158 L176.3672,1205.263 L176.5625,1173.684 L176.7578,1217.895 L176.9531,1190.526 L177.1484,1192.632 L177.3438,1148.421 L177.5391,1144.211 L177.7344,1217.895 L177.9297,1194.737 L178.125,1180 L178.3203,1192.632 L178.5156,1207.368 L178.7109,1207.368 L178.9063,1165.263 L179.1016,1196.842 L179.2969,1194.737 L179.4922,1207.368 L179.6875,1192.632 L179.8828,1194.737 L180.0781,1127.368 L180.2735,1196.842 L180.4688,1196.842 L180.6641,1205.263 L180.8594,1201.053 L181.0547,1192.632 L181.25,1196.842 L181.4453,1175.789 L181.6406,1182.105 L181.8359,1171.579 L182.0313,1146.316 L182.2266,1180 L182.4219,1201.053 L182.6172,1177.895 L182.8125,1201.053 L183.0078,1194.737 L183.2031,1137.895 L183.3984,1123.158 L183.5938,1194.737 L183.7891,1196.842 L183.9844,1205.263 L184.1797,1198.947 L184.375,1203.158 L184.5703,1215.789 L184.7656,1203.158 L184.9609,1196.842 L185.1563,1198.947 L185.3516,1192.632 L185.5469,1131.579 L185.7422,1074.737 L185.9375,1203.158 L186.1328,1100 L186.3281,1215.789 L186.5234,1209.474 L186.7188,1152.632 L186.9141,1190.526 L187.1094,1182.105 L187.3047,1192.632 L187.5,1196.842 L187.6953,1194.737 L187.8906,1192.632 L188.086,1194.737 L188.2813,1186.316 L188.4766,1182.105 L188.6719,1201.053 L188.8672,1207.368 L189.0625,1194.737 L189.2578,1205.263 L189.4531,1207.368 L189.6484,1203.158 L189.8438,1215.789 L190.0391,1211.579 L190.2344,1201.053 L190.4297,1095.789 L190.625,1203.158 L190.8203,1182.105 L191.0156,1180 L191.2109,1203.158 L191.4063,1188.421 L191.6016,1175.789 L191.7969,1167.368 L191.9922,1203.158 L192.1875,1207.368 L192.3828,1161.053 L192.5781,1144.211 L192.7734,1154.737 L192.9688,1203.158 L193.1641,1182.105 L193.3594,1194.737 L193.5547,1180 L193.75,1129.474 L193.9453,1203.158 L194.1406,1192.632 L194.3359,1205.263 L194.5313,1203.158 L194.7266,1203.158 L194.9219,1213.684 L195.1172,1133.684 L195.3125,1207.368 L195.5078,1190.526 L195.7031,1207.368 L195.8985,1163.158 L196.0938,1201.053 L196.2891,1207.368 L196.4844,1198.947 L196.6797,1194.737 L196.875,1203.158 L197.0703,1198.947 L197.2656,1171.579 L197.4609,1201.053 L197.6563,1205.263 L197.8516,1180 L198.0469,1169.474 L198.2422,1190.526 L198.4375,1198.947 L198.6328,1203.158 L198.8281,1188.421 L199.0234,1205.263 L199.2188,1207.368 L199.4141,1194.737 L199.6094,1167.368 L199.8047,1140 L200,1114.737 L200.1953,1194.737 L200.3906,1201.053 L200.5859,1190.526 L200.7813,1205.263 L200.9766,1201.053 L201.1719,1192.632 L201.3672,1173.684 L201.5625,1203.158 L201.7578,1184.211 L201.9531,1192.632 L202.1484,1175.789 L202.3438,1154.737 L202.5391,1209.474 L202.7344,1110.526 L202.9297,1196.842 L203.125,1203.158 L203.3203,1156.842 L203.5156,1167.368 L203.711,1196.842 L203.9063,1097.895 L204.1016,1201.053 L204.2969,1209.474 L204.4922,1190.526 L204.6875,1209.474 L204.8828,1196.842 L205.0781,1154.737 L205.2734,1201.053 L205.4688,1194.737 L205.6641,1192.632 L205.8594,1203.158 L206.0547,1198.947 L206.25,1121.053 L206.4453,1196.842 L206.6406,1215.789 L206.8359,1207.368 L207.0313,1177.895 L207.2266,1152.632 L207.4219,1177.895 L207.6172,1192.632 L207.8125,1182.105 L208.0078,1203.158 L208.2031,1203.158 L208.3984,1171.579 L208.5938,1192.632 L208.7891,1140 L208.9844,1198.947 L209.1797,1205.263 L209.375,1201.053 L209.5703,1186.316 L209.7656,1175.789 L209.9609,1203.158 L210.1563,1203.158 L210.3516,1203.158 L210.5469,1203.158 L210.7422,1190.526 L210.9375,1198.947 L211.1328,1207.368 L211.3281,1201.053 L211.5235,1169.474 L211.7188,1163.158 L211.9141,1194.737 L212.1094,1142.105 L212.3047,1196.842 L212.5,1196.842 L212.6953,1154.737 L212.8906,1201.053 L213.0859,1207.368 L213.2813,1137.895 L213.4766,1194.737 L213.6719,1152.632 L213.8672,1102.105 L214.0625,1201.053 L214.2578,1194.737 L214.4531,1156.842 L214.6484,1194.737 L214.8438,1123.158 L215.0391,1121.053 L215.2344,1211.579 L215.4297,1167.368 L215.625,1196.842 L215.8203,1192.632 L216.0156,1144.211 L216.2109,1188.421 L216.4063,1182.105 L216.6016,1203.158 L216.7969,1205.263 L216.9922,1184.211 L217.1875,1154.737 L217.3828,1177.895 L217.5781,1177.895 L217.7734,1148.421 L217.9688,1194.737 L218.1641,1203.158 L218.3594,1207.368 L218.5547,1203.158 L218.75,1203.158 L218.9453,1169.474 L219.1406,1156.842 L219.336,1196.842 L219.5313,1182.105 L219.7266,1205.263 L219.9219,1205.263 L220.1172,1182.105 L220.3125,1182.105 L220.5078,1196.842 L220.7031,1192.632 L220.8984,1198.947 L221.0938,1194.737 L221.2891,1205.263 L221.4844,1173.684 L221.6797,1198.947 L221.875,1190.526 L222.0703,1209.474 L222.2656,1190.526 L222.4609,1217.895 L222.6563,1192.632 L222.8516,1190.526 L223.0469,1205.263 L223.2422,1184.211 L223.4375,1182.105 L223.6328,1209.474 L223.8281,1192.632 L224.0234,1186.316 L224.2188,1201.053 L224.4141,1129.474 L224.6094,1203.158 L224.8047,1150.526 L225,1135.789 L225.1953,1180 L225.3906,1190.526 L225.5859,1194.737 L225.7813,1171.579 L225.9766,1190.526 L226.1719,1091.579 L226.3672,1203.158 L226.5625,1116.842 L226.7578,1205.263 L226.9531,1177.895 L227.1485,1201.053 L227.3438,1190.526 L227.5391,1190.526 L227.7344,1192.632 L227.9297,1203.158 L228.125,1209.474 L228.3203,1169.474 L228.5156,1192.632 L228.7109,1201.053 L228.9063,1192.632 L229.1016,1209.474 L229.2969,1209.474 L229.4922,1203.158 L229.6875,1192.632 L229.8828,1201.053 L230.0781,1169.474 L230.2734,1173.684 L230.4688,1167.368 L230.6641,1192.632 L230.8594,1188.421 L231.0547,1201.053 L231.25,1148.421 L231.4453,1201.053 L231.6406,1203.158 L231.8359,1201.053 L232.0313,1131.579 L232.2266,1188.421 L232.4219,1167.368 L232.6172,1201.053 L232.8125,1205.263 L233.0078,1205.263 L233.2031,1205.263 L233.3984,1205.263 L233.5938,1209.474 L233.7891,1194.737 L233.9844,1177.895 L234.1797,1028.421 L234.375,1135.789 L234.5703,1192.632 L234.7656,1196.842 L234.961,1209.474 L235.1563,1215.789 L235.3516,1192.632 L235.5469,1135.789 L235.7422,1163.158 L235.9375,1203.158 L236.1328,1146.316 L236.3281,1158.947 L236.5234,1163.158 L236.7188,1203.158 L236.9141,1192.632 L237.1094,1205.263 L237.3047,1184.211 L237.5,1194.737 L237.6953,1207.368 L237.8906,1205.263 L238.0859,1190.526 L238.2813,1192.632 L238.4766,1133.684 L238.6719,1203.158 L238.8672,1196.842 L239.0625,1192.632 L239.2578,1144.211 L239.4531,1194.737 L239.6484,1129.474 L239.8438,1203.158 L240.0391,1205.263 L240.2344,1169.474 L240.4297,1198.947 L240.625,1093.684 L240.8203,1198.947 L241.0156,1150.526 L241.2109,1194.737 L241.4063,1194.737 L241.6016,1154.737 L241.7969,1203.158 L241.9922,1171.579 L242.1875,1167.368 L242.3828,1171.579 L242.5781,1190.526 L242.7735,1203.158 L242.9688,1154.737 L243.1641,1167.368 L243.3594,1209.474 L243.5547,1205.263 L243.75,1144.211 L243.9453,1209.474 L244.1406,1184.211 L244.3359,1201.053 L244.5313,1184.211 L244.7266,1203.158 L244.9219,1201.053 L245.1172,1171.579 L245.3125,1207.368 L245.5078,1198.947 L245.7031,1203.158 L245.8984,1196.842 L246.0938,1188.421 L246.2891,1198.947 L246.4844,1180 L246.6797,1209.474 L246.875,1180 L247.0703,1118.947 L247.2656,1203.158 L247.4609,1182.105 L247.6563,1203.158 L247.8516,1201.053 L248.0469,1203.158 L248.2422,1156.842 L248.4375,1196.842 L248.6328,1194.737 L248.8281,1169.474 L249.0234,1205.263 L249.2188,1175.789 L249.4141,1203.158 L249.6094,1209.474 L249.8047,1198.947 L250,1201.053 L250.1953,1192.632 L250.3906,1203.158 L250.586,1177.895 L250.7813,1169.474 L250.9766,1203.158 L251.1719,1201.053 L251.3672,1201.053 L251.5625,1201.053 L251.7578,1203.158 L251.9531,1190.526 L252.1484,1182.105 L252.3438,1205.263 L252.5391,1201.053 L252.7344,1190.526 L252.9297,1201.053 L253.125,1201.053 L253.3203,1020 L253.5156,1182.105 L253.7109,1129.474 L253.9063,1217.895 L254.1016,1156.842 L254.2969,1186.316 L254.4922,1184.211 L254.6875,1169.474 L254.8828,1106.316 L255.0781,1188.421 L255.2734,1177.895 L255.4688,1198.947 L255.6641,1205.263 L255.8594,1203.158 L256.0547,1175.789 L256.25,1203.158 L256.4453,1150.526 L256.6406,1177.895 L256.8359,1188.421 L257.0313,1144.211 L257.2266,1165.263 L257.4219,1198.947 L257.6172,1192.632 L257.8125,1116.842 L258.0078,1201.053 L258.2031,1196.842 L258.3984,1198.947 L258.5938,1207.368 L258.7891,1169.474 L258.9844,1201.053 L259.1797,1190.526 L259.375,1173.684 L259.5703,1194.737 L259.7656,1184.211 L259.9609,1211.579 L260.1563,1177.895 L260.3516,1198.947 L260.5469,1198.947 L260.7422,1203.158 L260.9375,1196.842 L261.1328,1186.316 L261.3281,1180 L261.5234,1030.526 L261.7188,1201.053 L261.9141,1209.474 L262.1094,1184.211 L262.3047,1074.737 L262.5,1190.526 L262.6953,1165.263 L262.8906,1177.895 L263.0859,1201.053 L263.2813,1205.263 L263.4766,1156.842 L263.6719,1163.158 L263.8672,1177.895 L264.0625,1194.737 L264.2578,1188.421 L264.4531,1196.842 L264.6484,1188.421 L264.8438,1203.158 L265.0391,1194.737 L265.2344,1158.947 L265.4297,1182.105 L265.625,1205.263 L265.8203,1205.263 L266.0156,1211.579 L266.2109,1129.474 L266.4063,1135.789 L266.6016,1173.684 L266.7969,1186.316 L266.9922,1184.211 L267.1875,1203.158 L267.3828,1194.737 L267.5781,1194.737 L267.7734,1118.947 L267.9688,1194.737 L268.1641,1169.474 L268.3594,1180 L268.5547,1192.632 L268.75,1192.632 L268.9453,1192.632 L269.1406,1196.842 L269.3359,1184.211 L269.5313,1171.579 L269.7266,1196.842 L269.9219,1188.421 L270.1172,1133.684 L270.3125,1196.842 L270.5078,1198.947 L270.7031,1203.158 L270.8984,1194.737 L271.0938,1196.842 L271.2891,1104.211 L271.4844,1192.632 L271.6797,1215.789 L271.875,1205.263 L272.0703,1188.421 L272.2656,1201.053 L272.4609,1163.158 L272.6563,1209.474 L272.8516,1205.263 L273.0469,1188.421 L273.2422,1203.158 L273.4375,1182.105 L273.6328,1198.947 L273.8281,1188.421 L274.0234,1201.053 L274.2188,1201.053 L274.4141,1201.053 L274.6094,1201.053 L274.8047,1205.263 L275,1118.947 L275.1953,1186.316 L275.3906,1190.526 L275.5859,1196.842 L275.7813,1186.316 L275.9766,1171.579 L276.1719,1194.737 L276.3672,1205.263 L276.5625,1104.211 L276.7578,1207.368 L276.9531,1163.158 L277.1484,1205.263 L277.3438,1201.053 L277.5391,1203.158 L277.7344,1201.053 L277.9297,1165.263 L278.125,1205.263 L278.3203,1201.053 L278.5156,1186.316 L278.7109,1201.053 L278.9063,1175.789 L279.1016,1140 L279.2969,1173.684 L279.4922,1217.895 L279.6875,1154.737 L279.8828,1198.947 L280.0781,1207.368 L280.2734,1203.158 L280.4688,1154.737 L280.6641,1194.737 L280.8594,1192.632 L281.0547,1188.421 L281.25,1154.737 L281.4453,1186.316 L281.6406,1201.053 L281.8359,1169.474 L282.0313,1182.105 L282.2266,1156.842 L282.4219,1177.895 L282.6172,1192.632 L282.8125,1188.421 L283.0078,1156.842 L283.2031,1121.053 L283.3984,1211.579 L283.5938,1207.368 L283.7891,1209.474 L283.9844,1198.947 L284.1797,1196.842 L284.375,1131.579 L284.5703,1201.053 L284.7656,1169.474 L284.9609,1180 L285.1563,1209.474 L285.3516,1194.737 L285.5469,1184.211 L285.7422,1203.158 L285.9375,1186.316 L286.1328,1198.947 L286.3281,1196.842 L286.5234,1146.316 L286.7188,1192.632 L286.9141,1209.474 L287.1094,1177.895 L287.3047,1188.421 L287.5,1203.158 L287.6953,1192.632 L287.8906,1207.368 L288.0859,1201.053 L288.2813,1209.474 L288.4766,1203.158 L288.6719,1184.211 L288.8672,1207.368 L289.0625,1175.789 L289.2578,1171.579 L289.4531,1192.632 L289.6484,1201.053 L289.8438,1201.053 L290.0391,1198.947 L290.2344,1173.684 L290.4297,1196.842 L290.625,1186.316 L290.8203,1215.789 L291.0156,1173.684 L291.2109,1150.526 L291.4063,1192.632 L291.6016,1194.737 L291.7969,1198.947 L291.9922,1177.895 L292.1875,1198.947 L292.3828,1184.211 L292.5781,1217.895 L292.7734,1198.947 L292.9688,1198.947 L293.1641,1184.211 L293.3594,1209.474 L293.5547,1213.684 L293.75,1104.211 L293.9453,1192.632 L294.1406,1184.211 L294.3359,1194.737 L294.5313,1070.526 L294.7266,1194.737 L294.9219,1203.158 L295.1172,1207.368 L295.3125,1198.947 L295.5078,1182.105 L295.7031,1203.158 L295.8984,1184.211 L296.0938,1182.105 L296.2891,1211.579 L296.4844,1188.421 L296.6797,1205.263 L296.875,1190.526 L297.0703,1192.632 L297.2656,1205.263 L297.4609,1184.211 L297.6563,1203.158 L297.8516,1203.158 L298.0469,1192.632 L298.2422,1194.737 L298.4375,1169.474 L298.6328,1188.421 L298.8281,1175.789 L299.0234,1201.053 L299.2188,1205.263 L299.4141,1186.316 L299.6094,1207.368 L299.8047,1093.684 L300,1123.158 L300.1953,1194.737 L300.3906,1114.737 L300.5859,1211.579 L300.7813,1205.263 L300.9766,1180 L301.1719,1198.947 L301.3672,1205.263 L301.5625,1186.316 L301.7578,1203.158 L301.9531,1205.263 L302.1484,1194.737 L302.3438,1205.263 L302.5391,1173.684 L302.7344,1131.579 L302.9297,1201.053 L303.125,1196.842 L303.3203,1169.474 L303.5156,1154.737 L303.711,1213.684 L303.9063,1184.211 L304.1016,1171.579 L304.2969,1205.263 L304.4922,1201.053 L304.6875,1192.632 L304.8828,1177.895 L305.0781,1173.684 L305.2734,1081.053 L305.4688,1190.526 L305.6641,1190.526 L305.8594,1192.632 L306.0547,1192.632 L306.25,1192.632 L306.4453,1192.632 L306.6407,1205.263 L306.8359,1203.158 L307.0313,1194.737 L307.2266,1209.474 L307.4219,1180 L307.6172,1150.526 L307.8125,1196.842 L308.0078,1203.158 L308.2031,1177.895 L308.3984,1180 L308.5938,1131.579 L308.7891,1171.579 L308.9844,1205.263 L309.1797,1196.842 L309.375,1190.526 L309.5703,1203.158 L309.7656,1201.053 L309.9609,1131.579 L310.1563,1201.053 L310.3516,1205.263 L310.5469,1188.421 L310.7422,1196.842 L310.9375,1205.263 L311.1328,1203.158 L311.3281,1133.684 L311.5235,1188.421 L311.7188,1217.895 L311.9141,1196.842 L312.1094,1203.158 L312.3047,1188.421 L312.5,1182.105 L312.6953,1203.158 L312.8906,1209.474 L313.0859,1205.263 L313.2813,1205.263 L313.4766,1194.737 L313.6719,1196.842 L313.8672,1207.368 L314.0625,1188.421 L314.2578,1192.632 L314.4532,1198.947 L314.6484,1203.158 L314.8438,1188.421 L315.0391,1198.947 L315.2344,1148.421 L315.4297,1203.158 L315.625,1209.474 L315.8203,1203.158 L316.0156,1203.158 L316.2109,1194.737 L316.4063,1146.316 L316.6016,1194.737 L316.7969,1203.158 L316.9922,1182.105 L317.1875,1205.263 L317.3828,1180 L317.5781,1203.158 L317.7734,1131.579 L317.9688,1186.316 L318.1641,1190.526 L318.3594,1186.316 L318.5547,1190.526 L318.75,1201.053 L318.9453,1201.053 L319.1406,1205.263 L319.336,1209.474 L319.5313,1203.158 L319.7266,1209.474 L319.9219,1203.158 L320.1172,1156.842 L320.3125,1182.105 L320.5078,1171.579 L320.7031,1188.421 L320.8984,1192.632 L321.0938,1201.053 L321.2891,1184.211 L321.4844,1182.105 L321.6797,1192.632 L321.875,1196.842 L322.0703,1192.632 L322.2657,1196.842 L322.4609,1150.526 L322.6563,1209.474 L322.8516,1207.368 L323.0469,1182.105 L323.2422,1188.421 L323.4375,1190.526 L323.6328,1203.158 L323.8281,1194.737 L324.0234,1184.211 L324.2188,1196.842 L324.4141,1198.947 L324.6094,1192.632 L324.8047,1205.263 L325,1196.842 L325.1953,1196.842 L325.3906,1211.579 L325.5859,1205.263 L325.7813,1156.842 L325.9766,1211.579 L326.1719,1194.737 L326.3672,1158.947 L326.5625,1194.737 L326.7578,1085.263 L326.9531,1201.053 L327.1485,1201.053 L327.3438,1186.316 L327.5391,1192.632 L327.7344,1127.368 L327.9297,1142.105 L328.125,1131.579 L328.3203,1198.947 L328.5156,1207.368 L328.7109,1198.947 L328.9063,1192.632 L329.1016,1207.368 L329.2969,1196.842 L329.4922,1184.211 L329.6875,1205.263 L329.8828,1173.684 L330.0782,1196.842 L330.2734,1203.158 L330.4688,1211.579 L330.6641,1190.526 L330.8594,1203.158 L331.0547,1190.526 L331.25,1194.737 L331.4453,1198.947 L331.6406,1154.737 L331.8359,1161.053 L332.0313,1186.316 L332.2266,1186.316 L332.4219,1196.842 L332.6172,1203.158 L332.8125,1190.526 L333.0078,1198.947 L333.2031,1207.368 L333.3984,1207.368 L333.5938,1207.368 L333.7891,1169.474 L333.9844,1161.053 L334.1797,1198.947 L334.375,1196.842 L334.5703,1194.737 L334.7656,1213.684 L334.961,1215.789 L335.1563,1142.105 L335.3516,1203.158 L335.5469,1205.263 L335.7422,1211.579 L335.9375,1203.158 L336.1328,1196.842 L336.3281,1182.105 L336.5234,1192.632 L336.7188,1217.895 L336.9141,1184.211 L337.1094,1184.211 L337.3047,1129.474 L337.5,1087.368 L337.6953,1180 L337.8907,1129.474 L338.0859,1190.526 L338.2813,1190.526 L338.4766,1173.684 L338.6719,1184.211 L338.8672,1205.263 L339.0625,1188.421 L339.2578,1205.263 L339.4531,1186.316 L339.6484,1182.105 L339.8438,1182.105 L340.0391,1194.737 L340.2344,1198.947 L340.4297,1194.737 L340.625,1201.053 L340.8203,1215.789 L341.0156,1211.579 L341.2109,1205.263 L341.4063,1198.947 L341.6016,1190.526 L341.7969,1201.053 L341.9922,1142.105 L342.1875,1184.211 L342.3828,1205.263 L342.5781,1198.947 L342.7735,1192.632 L342.9688,1173.684 L343.1641,1203.158 L343.3594,1121.053 L343.5547,1194.737 L343.75,1182.105 L343.9453,1198.947 L344.1406,1201.053 L344.3359,1196.842 L344.5313,1201.053 L344.7266,1203.158 L344.9219,1192.632 L345.1172,1146.316 L345.3125,1201.053 L345.5078,1205.263 L345.7032,1203.158 L345.8984,1194.737 L346.0938,1184.211 L346.2891,1203.158 L346.4844,1137.895 L346.6797,1201.053 L346.875,1144.211 L347.0703,1188.421 L347.2656,1201.053 L347.4609,1165.263 L347.6563,1203.158 L347.8516,1142.105 L348.0469,1177.895 L348.2422,1198.947 L348.4375,1125.263 L348.6328,1203.158 L348.8281,1194.737 L349.0234,1196.842 L349.2188,1203.158 L349.4141,1142.105 L349.6094,1201.053 L349.8047,1161.053 L350,1192.632 L350.1953,1207.368 L350.3906,1184.211 L350.586,1205.263 L350.7813,1182.105 L350.9766,1116.842 L351.1719,1201.053 L351.3672,1209.474 L351.5625,1163.158 L351.7578,1205.263 L351.9531,1169.474 L352.1484,1203.158 L352.3438,1192.632 L352.5391,1182.105 L352.7344,1203.158 L352.9297,1207.368 L353.125,1203.158 L353.3203,1203.158 L353.5157,1198.947 L353.7109,1201.053 L353.9063,1186.316 L354.1016,1203.158 L354.2969,1203.158 L354.4922,1203.158 L354.6875,1198.947 L354.8828,1190.526 L355.0781,1198.947 L355.2734,1154.737 L355.4688,1217.895 L355.6641,1207.368 L355.8594,1192.632 L356.0547,1182.105 L356.25,1209.474 L356.4453,1201.053 L356.6406,1091.579 L356.8359,1192.632 L357.0313,1207.368 L357.2266,1205.263 L357.4219,1190.526 L357.6172,1194.737 L357.8125,1203.158 L358.0078,1184.211 L358.2031,1180 L358.3985,1186.316 L358.5938,1194.737 L358.7891,1205.263 L358.9844,1137.895 L359.1797,1209.474 L359.375,1194.737 L359.5703,1198.947 L359.7656,1192.632 L359.9609,1190.526 L360.1563,1180 L360.3516,1215.789 L360.5469,1188.421 L360.7422,1194.737 L360.9375,1167.368 L361.1328,1207.368 L361.3282,1194.737 L361.5234,1192.632 L361.7188,1198.947 L361.9141,1196.842 L362.1094,1192.632 L362.3047,1194.737 L362.5,1192.632 L362.6953,1192.632 L362.8906,1142.105 L363.0859,1163.158 L363.2813,1205.263 L363.4766,1194.737 L363.6719,1203.158 L363.8672,1209.474 L364.0625,1083.158 L364.2578,1100 L364.4531,1167.368 L364.6484,1180 L364.8438,1209.474 L365.0391,1196.842 L365.2344,1198.947 L365.4297,1198.947 L365.625,1205.263 L365.8203,1171.579 L366.0156,1182.105 L366.211,1182.105 L366.4063,1215.789 L366.6016,1198.947 L366.7969,1203.158 L366.9922,1211.579 L367.1875,1194.737 L367.3828,1186.316 L367.5781,1184.211 L367.7734,1198.947 L367.9688,1201.053 L368.1641,1205.263 L368.3594,1190.526 L368.5547,1186.316 L368.75,1203.158 L368.9453,1217.895 L369.1407,1211.579 L369.3359,1192.632 L369.5313,1198.947 L369.7266,1192.632 L369.9219,1205.263 L370.1172,1152.632 L370.3125,1184.211 L370.5078,1167.368 L370.7031,1190.526 L370.8984,1175.789 L371.0938,1203.158 L371.2891,1194.737 L371.4844,1198.947 L371.6797,1196.842 L371.875,1167.368 L372.0703,1201.053 L372.2656,1203.158 L372.4609,1192.632 L372.6563,1215.789 L372.8516,1142.105 L373.0469,1152.632 L373.2422,1217.895 L373.4375,1177.895 L373.6328,1190.526 L373.8281,1133.684 L374.0235,1032.632 L374.2188,1205.263 L374.4141,1177.895 L374.6094,1177.895 L374.8047,1203.158 L375,1201.053 L375.1953,1190.526 L375.3906,1182.105 L375.5859,1188.421 L375.7813,1186.316 L375.9766,1205.263 L376.1719,1192.632 L376.3672,1121.053 L376.5625,1192.632 L376.7578,1198.947 L376.9532,1201.053 L377.1484,1196.842 L377.3438,1182.105 L377.5391,1192.632 L377.7344,1169.474 L377.9297,1194.737 L378.125,1194.737 L378.3203,1203.158 L378.5156,1169.474 L378.7109,1175.789 L378.9063,1184.211 L379.1016,1182.105 L379.2969,1203.158 L379.4922,1171.579 L379.6875,1184.211 L379.8828,1213.684 L380.0781,1177.895 L380.2734,1201.053 L380.4688,1184.211 L380.6641,1190.526 L380.8594,1194.737 L381.0547,1148.421 L381.25,1150.526 L381.4453,1209.474 L381.6406,1203.158 L381.836,1150.526 L382.0313,1194.737 L382.2266,1192.632 L382.4219,1188.421 L382.6172,1203.158 L382.8125,1198.947 L383.0078,1198.947 L383.2031,1207.368 L383.3984,1201.053 L383.5938,1205.263 L383.7891,1205.263 L383.9844,1194.737 L384.1797,1201.053 L384.375,1177.895 L384.5703,1194.737 L384.7657,1201.053 L384.9609,1188.421 L385.1563,1194.737 L385.3516,1203.158 L385.5469,1180 L385.7422,1192.632 L385.9375,1196.842 L386.1328,1201.053 L386.3281,1198.947 L386.5234,1095.789 L386.7188,1167.368 L386.9141,1188.421 L387.1094,1196.842 L387.3047,1165.263 L387.5,1217.895 L387.6953,1201.053 L387.8906,1203.158 L388.0859,1182.105 L388.2813,1207.368 L388.4766,1194.737 L388.6719,1203.158 L388.8672,1198.947 L389.0625,1198.947 L389.2578,1194.737 L389.4531,1194.737 L389.6485,1205.263 L389.8438,1188.421 L390.0391,1184.211 L390.2344,1215.789 L390.4297,1144.211 L390.625,1194.737 L390.8203,1205.263 L391.0156,1205.263 L391.2109,1158.947 L391.4063,1182.105 L391.6016,1150.526 L391.7969,1186.316 L391.9922,1175.789 L392.1875,1194.737 L392.3828,1194.737 L392.5782,1177.895 L392.7734,1116.842 L392.9688,1203.158 L393.1641,1203.158 L393.3594,1152.632 L393.5547,1070.526 L393.75,1192.632 L393.9453,1184.211 L394.1406,1203.158 L394.3359,1190.526 L394.5313,1148.421 L394.7266,1169.474 L394.9219,1190.526 L395.1172,1167.368 L395.3125,1180 L395.5078,1175.789 L395.7031,1198.947 L395.8984,1201.053 L396.0938,1205.263 L396.2891,1144.211 L396.4844,1142.105 L396.6797,1194.737 L396.875,1165.263 L397.0703,1188.421 L397.2656,1112.632 L397.461,1137.895 L397.6563,1196.842 L397.8516,1180 L398.0469,1205.263 L398.2422,1198.947 L398.4375,1177.895 L398.6328,1203.158 L398.8281,1198.947 L399.0234,1165.263 L399.2188,1135.789 L399.4141,1180 L399.6094,1188.421 L399.8047,1190.526 L400,1207.368 L400.1953,1201.053 L400.3907,1192.632 L400.5859,1198.947 L400.7813,1194.737 L400.9766,1198.947 L401.1719,1184.211 L401.3672,1196.842 L401.5625,1184.211 L401.7578,1182.105 L401.9531,1190.526 L402.1484,1154.737 L402.3438,1169.474 L402.5391,1182.105 L402.7344,1203.158 L402.9297,1169.474 L403.125,1158.947 L403.3203,1188.421 " stroke="blue" fill="none" />
<text x="50" y="1270" font-family="Arial" font-size="12" fill="black">Policy Loss</text>
<text x="50" y="1285" font-family="Arial" font-size="10" fill="black">0.7641767</text>
<text x="50" y="1500" font-family="Arial" font-size="10" fill="black">0.7589663</text>
<path d="M50,1290 L75,1490 " stroke="blue" fill="none" />
<text x="50" y="1540" font-family="Arial" font-size="12" fill="black">Value Loss</text>
<text x="50" y="1555" font-family="Arial" font-size="10" fill="black">0.005420725</text>
<text x="50" y="1770" font-family="Arial" font-size="10" fill="black">0.005047197</text>
<path d="M50,1760 L75,1560.005 " stroke="blue" fill="none" />
<text x="50" y="1810" font-family="Arial" font-size="12" fill="black">Learning Rate</text>
<text x="50" y="1825" font-family="Arial" font-size="10" fill="black">9.9999E-05</text>
<text x="50" y="2040" font-family="Arial" font-size="10" fill="black">9.9998E-05</text>
<path d="M50,2011.751 L75,2030 " stroke="blue" fill="none" />
<text x="50" y="2080" font-family="Arial" font-size="12" fill="black">Entropy</text>
<text x="50" y="2095" font-family="Arial" font-size="10" fill="black">3.471568</text>
<text x="50" y="2310" font-family="Arial" font-size="10" fill="black">3.450005</text>
<path d="M50,2300 L75,2100 " stroke="blue" fill="none" />
<text x="750" y="730" font-family="Arial" font-size="12" fill="black">Simplified</text>
<text x="750" y="745" font-family="Arial" font-size="10" fill="black">0.3720995</text>
<text x="750" y="960" font-family="Arial" font-size="10" fill="black">0.1200396</text>
<path d="M753.5156,950 L757.2266,906.6755 L760.9375,875.9976 L764.6484,886.9175 L768.3594,880.2386 L772.0703,855.9344 L775.7813,847.2706 L779.4922,893.3004 L783.2031,832.0133 L786.9141,854.1143 L790.625,805.6002 L794.3359,858.7928 L798.0469,807.4353 L801.7578,905.9038 L805.4688,822.231 L809.1797,843.6962 L812.8906,843.0754 L816.6016,866.3965 L820.3125,907.5404 L824.0234,808.2891 L827.7344,841.0165 L831.4453,806.2592 L835.1563,861.4575 L838.8672,828.5302 L842.5781,803.4554 L846.2891,892.9191 L850,750.7681 L853.7109,827.3201 L857.4219,888.9945 L861.1328,828.2717 L864.8438,885.69 L868.5547,887.4791 L872.2656,881.244 L875.9766,874.5147 L879.6875,897.4517 L883.3984,810.4028 L887.1094,837.1371 L890.8203,885.9086 L894.5313,822.8837 L898.2422,883.567 L901.9531,852.882 L905.6641,796.7942 L909.375,850.8012 L913.0859,876.6368 L916.7969,767.8304 L920.5078,846.5787 L924.2188,889.4163 L927.9297,772.9514 L931.6406,868.2081 L935.3516,822.4227 L939.0625,827.1356 L942.7734,787.9785 L946.4844,865.5602 L950.1953,853.8651 L953.9063,806.4292 L957.6172,814.053 L961.3281,867.5371 L965.0391,778.0215 L968.75,803.5101 L972.4609,846.1009 L976.1719,876.5771 L979.8828,843.0413 L983.5938,825.6057 L987.3047,871.8779 L991.0156,898.6969 L994.7266,822.8662 L998.4375,888.142 L1002.148,847.5118 L1005.859,824.0039 L1009.57,857.6359 L1013.281,876.4725 L1016.992,888.8348 L1020.703,874.8062 L1024.414,874.5574 L1028.125,803.4945 L1031.836,891.7554 L1035.547,899.4747 L1039.258,810.3801 L1042.969,888.1159 L1046.68,854.7598 L1050.391,814.6279 L1054.102,871.8704 L1057.813,879.2213 L1061.523,869.1361 L1065.234,806.887 L1068.945,915.4821 L1072.656,879.1284 L1076.367,750 L1080.078,857.6523 L1083.789,884.2073 L1087.5,848.8456 L1091.211,880.8626 L1094.922,772.6696 L1098.633,815.6906 L1102.344,836.1925 L1103.32,815.8055 " stroke="blue" fill="none" />
<text x="750" y="1000" font-family="Arial" font-size="12" fill="black">Simplified</text>
<text x="750" y="1015" font-family="Arial" font-size="10" fill="black">33</text>
<text x="750" y="1230" font-family="Arial" font-size="10" fill="black">13.68421</text>
<path d="M753.5156,1220 L757.2266,1167.684 L760.9375,1142.616 L764.6484,1145.885 L768.3594,1148.61 L772.0703,1116.458 L775.7813,1109.373 L779.4922,1149.7 L783.2031,1099.019 L786.9141,1116.458 L790.625,1069.046 L794.3359,1117.003 L798.0469,1093.569 L801.7578,1159.51 L805.4688,1092.48 L809.1797,1118.638 L812.8906,1110.463 L816.6016,1134.986 L820.3125,1163.324 L824.0234,1074.496 L827.7344,1110.463 L831.4453,1067.956 L835.1563,1121.362 L838.8672,1095.749 L842.5781,1075.041 L846.2891,1143.706 L850,1020 L853.7109,1104.469 L857.4219,1138.256 L861.1328,1094.659 L864.8438,1133.896 L868.5547,1142.071 L872.2656,1139.891 L875.9766,1136.621 L879.6875,1137.166 L883.3984,1077.766 L887.1094,1094.114 L890.8203,1146.431 L894.5313,1097.384 L898.2422,1139.346 L901.9531,1118.093 L905.6641,1082.125 L909.375,1113.733 L913.0859,1128.447 L916.7969,1043.433 L920.5078,1111.008 L924.2188,1158.965 L927.9297,1055.967 L931.6406,1135.531 L935.3516,1093.569 L939.0625,1095.749 L942.7734,1061.417 L946.4844,1131.172 L950.1953,1130.082 L953.9063,1097.929 L957.6172,1070.136 L961.3281,1125.722 L965.0391,1052.153 L968.75,1080.49 L972.4609,1109.373 L976.1719,1136.621 L979.8828,1105.559 L983.5938,1089.21 L987.3047,1122.452 L991.0156,1153.515 L994.7266,1093.025 L998.4375,1155.15 L1002.148,1097.929 L1005.859,1078.856 L1009.57,1122.997 L1013.281,1145.885 L1016.992,1143.706 L1020.703,1130.082 L1024.414,1140.436 L1028.125,1075.041 L1031.836,1146.975 L1035.547,1150.79 L1039.258,1086.485 L1042.969,1144.251 L1046.68,1121.362 L1050.391,1085.395 L1054.102,1138.256 L1057.813,1140.436 L1061.523,1132.807 L1065.234,1082.67 L1068.945,1164.414 L1072.656,1140.436 L1076.367,1045.613 L1080.078,1125.722 L1083.789,1136.076 L1087.5,1117.548 L1091.211,1149.7 L1094.922,1047.793 L1098.633,1070.681 L1102.344,1106.649 L1103.32,1084.196 " stroke="blue" fill="none" />
</svg>
