<svg width="2000" height="2500" xmlns="http://www.w3.org/2000/svg">
<text x="10" y="20" font-family="Arial" font-size="26" fill="black"> [Walker] Training Session</text>
<text x="10" y="50" font-family="Arial" font-size="16" fill="black">[Statistics]</text>
<text x="50" y="70" font-family="Arial" font-size="12" fill="black">Started at: 1:57:54 AM, Wednesday, February 21, 2024</text>
<text x="50" y="90" font-family="Arial" font-size="12" fill="black">Finished at: 1:58:31 AM, Wednesday, February 21, 2024</text>
<text x="50" y="110" font-family="Arial" font-size="12" fill="black">Training Session Time: 0 hrs : 0 min : 19 sec</text>
<text x="50" y="130" font-family="Arial" font-size="12" fill="black">Inference Time: 0 hrs : 3 min : 21 sec        [Device: CPU]</text>
<text x="50" y="150" font-family="Arial" font-size="12" fill="black">Update Time: 0 hrs : 0 min : 13 sec        [Per iteration: 0 hrs : 0 min : 12.308 sec]        [Device: GPU]</text>
<text x="50" y="170" font-family="Arial" font-size="12" fill="black">Episode Count: 90</text>
<text x="50" y="190" font-family="Arial" font-size="12" fill="black">Inference Steps: 4000</text>
<text x="50" y="210" font-family="Arial" font-size="12" fill="black">Iterations: 1</text>
<text x="50" y="230" font-family="Arial" font-size="12" fill="black">Parallel Agents: 32</text>
<text x="50" y="250" font-family="Arial" font-size="12" fill="black">Timescale: 1</text>
<text x="50" y="270" font-family="Arial" font-size="12" fill="black">Trainer: PPO</text>
<text x="10" y="320" font-family="Arial" font-size="16" fill="black">[Hyperparameters]</text>
<text x="50" y="340" font-family="Arial" font-size="12" fill="black">Buffer Size: 4000        [Batch Size: 250       (x16)]</text>
<text x="50" y="360" font-family="Arial" font-size="12" fill="black">Num Epoch: 8</text>
<text x="50" y="380" font-family="Arial" font-size="12" fill="black">Time Horizon: 512</text>
<text x="50" y="400" font-family="Arial" font-size="12" fill="black">Gradient Cliping by Norm: 0.5</text>
<text x="50" y="420" font-family="Arial" font-size="12" fill="black">Learning Rate Schedule: False    </text>
<text x="10" y="470" font-family="Arial" font-size="16" fill="black">[Behaviour]</text>
<text x="50" y="490" font-family="Arial" font-size="12" fill="black">Space Size: 120</text>
<text x="50" y="510" font-family="Arial" font-size="12" fill="black">Continuous Actions: 36 [Standard Deviation: Fixed]     [Value: 0.28]</text>
<text x="50" y="530" font-family="Arial" font-size="12" fill="black">Discrete Actions: 0</text>
<text x="50" y="550" font-family="Arial" font-size="12" fill="black">TargetFPS: 100 (physics update rate)</text>
<text x="50" y="570" font-family="Arial" font-size="12" fill="black">Observations Normalization: True</text>
<text x="10" y="620" font-family="Arial" font-size="16" fill="black">[Decision Requester]</text>
<text x="50" y="640" font-family="Arial" font-size="12" fill="black">Max Step: 10000</text>
<text x="50" y="660" font-family="Arial" font-size="12" fill="black">Decision Period: 5      [Actions Between Decisions: True]</text>
<text x="10" y="710" font-family="Arial" font-size="16" fill="black">[Graphs]</text>
<text x="50" y="730" font-family="Arial" font-size="12" fill="black">Episode Reward (90)</text>
<text x="50" y="745" font-family="Arial" font-size="10" fill="black">0.8739999</text>
<text x="50" y="960" font-family="Arial" font-size="10" fill="black">0.339</text>
<path d="M50,878.9719 L53.125,875.2336 L56.25,843.4579 L59.375,843.4579 L62.5,841.5888 L65.625,841.5888 L68.75,837.8505 L71.875,837.8505 L75,807.9439 L78.125,807.9439 L81.25,835.9813 L84.375,834.1122 L87.5,806.0748 L90.625,806.0748 L93.75,832.243 L96.875,804.2056 L100,804.2056 L103.125,802.3364 L106.25,802.3364 L109.375,802.3364 L112.5,800.4673 L115.625,800.4673 L118.75,800.4673 L121.875,798.5981 L125,798.5981 L128.125,798.5981 L131.25,770.5607 L134.375,796.729 L137.5,766.8224 L140.625,764.9532 L143.75,763.0841 L146.875,755.6075 L150,948.1309 L153.125,882.7103 L156.25,841.5888 L159.375,880.8411 L162.5,873.3645 L165.625,841.5888 L168.75,880.8411 L171.875,877.1028 L175,873.3645 L178.125,841.5888 L181.25,806.0748 L184.375,800.4673 L187.5,875.2336 L190.625,877.1028 L193.75,837.8505 L196.875,875.2336 L200,792.9907 L203.125,798.5981 L206.25,862.1495 L209.375,837.8505 L212.5,802.3364 L215.625,875.2336 L218.75,877.1028 L221.875,804.2056 L225,862.1495 L228.125,796.7289 L231.25,800.4673 L234.375,772.4299 L237.5,832.243 L240.625,802.3364 L243.75,837.8505 L246.875,750 L250,940.6542 L253.125,950 L256.25,907.0093 L259.375,841.5888 L262.5,875.2336 L265.625,804.2056 L268.75,897.6636 L271.875,873.3645 L275,875.2336 L278.125,875.2336 L281.25,834.1122 L284.375,899.5327 L287.5,834.1122 L290.625,860.2804 L293.75,878.9719 L296.875,832.243 L300,766.8224 L303.125,804.2056 L306.25,806.0748 L309.375,843.4579 L312.5,807.9439 L315.625,806.0748 L318.75,766.8224 L321.875,759.3458 L325,802.3364 L328.125,807.9439 " stroke="blue" fill="none" />
<text x="50" y="1000" font-family="Arial" font-size="12" fill="black">Episode Length (90)</text>
<text x="50" y="1015" font-family="Arial" font-size="10" fill="black">55</text>
<text x="50" y="1230" font-family="Arial" font-size="10" fill="black">23</text>
<path d="M50,1176.25 L53.125,1163.75 L56.25,1151.25 L59.375,1151.25 L62.5,1145 L65.625,1145 L68.75,1132.5 L71.875,1132.5 L75,1126.25 L78.125,1126.25 L81.25,1126.25 L84.375,1120 L87.5,1120 L90.625,1120 L93.75,1113.75 L96.875,1113.75 L100,1113.75 L103.125,1107.5 L106.25,1107.5 L109.375,1107.5 L112.5,1101.25 L115.625,1101.25 L118.75,1101.25 L121.875,1095 L125,1095 L128.125,1095 L131.25,1095 L134.375,1088.75 L137.5,1082.5 L140.625,1076.25 L143.75,1070 L146.875,1045 L150,1213.75 L153.125,1182.5 L156.25,1138.75 L159.375,1176.25 L162.5,1151.25 L165.625,1138.75 L168.75,1176.25 L171.875,1163.75 L175,1151.25 L178.125,1138.75 L181.25,1113.75 L184.375,1095 L187.5,1157.5 L190.625,1163.75 L193.75,1126.25 L196.875,1157.5 L200,1070 L203.125,1088.75 L206.25,1113.75 L209.375,1126.25 L212.5,1101.25 L215.625,1157.5 L218.75,1163.75 L221.875,1107.5 L225,1113.75 L228.125,1082.5 L231.25,1095 L234.375,1095 L237.5,1107.5 L240.625,1101.25 L243.75,1126.25 L246.875,1020 L250,1188.75 L253.125,1220 L256.25,1170 L259.375,1138.75 L262.5,1157.5 L265.625,1107.5 L268.75,1138.75 L271.875,1151.25 L275,1157.5 L278.125,1157.5 L281.25,1113.75 L284.375,1145 L287.5,1113.75 L290.625,1107.5 L293.75,1170 L296.875,1107.5 L300,1076.25 L303.125,1107.5 L306.25,1113.75 L309.375,1145 L312.5,1120 L315.625,1113.75 L318.75,1076.25 L321.875,1051.25 L325,1101.25 L328.125,1120 " stroke="blue" fill="none" />
<text x="50" y="1270" font-family="Arial" font-size="12" fill="black">Policy Loss</text>
<text x="50" y="1285" font-family="Arial" font-size="10" fill="black">0.02836656</text>
<text x="50" y="1500" font-family="Arial" font-size="10" fill="black">0.02836656</text>
<path d="M50,1490 " stroke="blue" fill="none" />
<text x="50" y="1540" font-family="Arial" font-size="12" fill="black">Value Loss</text>
<text x="50" y="1555" font-family="Arial" font-size="10" fill="black">0.001516098</text>
<text x="50" y="1770" font-family="Arial" font-size="10" fill="black">0.001516098</text>
<path d="M50,1760 " stroke="blue" fill="none" />
<text x="50" y="1810" font-family="Arial" font-size="12" fill="black">Learning Rate</text>
<text x="50" y="1825" font-family="Arial" font-size="10" fill="black">0.0001</text>
<text x="50" y="2040" font-family="Arial" font-size="10" fill="black">0.0001</text>
<path d="M50,2030 " stroke="blue" fill="none" />
<text x="50" y="2080" font-family="Arial" font-size="12" fill="black">Entropy</text>
<text x="50" y="2095" font-family="Arial" font-size="10" fill="black">0.2800002</text>
<text x="50" y="2310" font-family="Arial" font-size="10" fill="black">0.2800002</text>
<path d="M50,2300 " stroke="blue" fill="none" />
<text x="750" y="730" font-family="Arial" font-size="12" fill="black">Simplified</text>
<text x="750" y="745" font-family="Arial" font-size="10" fill="black">0.7065</text>
<text x="750" y="960" font-family="Arial" font-size="10" fill="black">0.6042631</text>
<path d="M806.25,833.655 L865.625,762.6127 L925,920.1414 L984.375,950 L1028.125,750 " stroke="blue" fill="none" />
<text x="750" y="1000" font-family="Arial" font-size="12" fill="black">Simplified</text>
<text x="750" y="1015" font-family="Arial" font-size="10" fill="black">40.78571</text>
<text x="750" y="1230" font-family="Arial" font-size="10" fill="black">37.21053</text>
<path d="M806.25,1220 L865.625,1061.009 L925,1217.056 L984.375,1211.167 L1028.125,1020 " stroke="blue" fill="none" />
</svg>
