<svg width="2000" height="2500" xmlns="http://www.w3.org/2000/svg">
<text x="10" y="20" font-family="Arial" font-size="26" fill="black"> [<tspan font-weight="bold" fill="blue">Walker</tspan>] Training Session</text>
<text x="10" y="50" font-family="Arial" font-size="16" fill="black">[Statistics]</text>
<text x="50" y="70" font-family="Arial" font-size="12" fill="black">Started at: 4:08:18 PM, Monday, April 22, 2024</text>
<text x="50" y="90" font-family="Arial" font-size="12" fill="black">Finished at: 4:09:06 PM, Monday, April 22, 2024</text>
<text x="50" y="110" font-family="Arial" font-size="12" fill="black">Training Session Time: 0 hrs : 0 min : 44 sec</text>
<text x="50" y="130" font-family="Arial" font-size="12" fill="black">Inference Time: 0 hrs : 34 min : 7 sec        [Device: CPU]</text>
<text x="50" y="150" font-family="Arial" font-size="12" fill="black">Update Time: 0 hrs : 0 min : 10 sec        [Per iteration: 0 hrs : 0 min : 9.714 sec]        [Device: GPU]</text>
<text x="50" y="170" font-family="Arial" font-size="12" fill="black">Episode Count: 814</text>
<text x="50" y="190" font-family="Arial" font-size="12" fill="black">Inference Steps: 20000</text>
<text x="50" y="210" font-family="Arial" font-size="12" fill="black">Iterations: 1</text>
<text x="50" y="230" font-family="Arial" font-size="12" fill="black">Parallel Agents: 60</text>
<text x="50" y="250" font-family="Arial" font-size="12" fill="black">Timescale: 1</text>
<text x="50" y="270" font-family="Arial" font-size="12" fill="black">Trainer: PPO</text>
<text x="10" y="320" font-family="Arial" font-size="16" fill="black">[Hyperparameters]</text>
<text x="50" y="340" font-family="Arial" font-size="12" fill="black">Buffer Size: 20000        [Batch Size: 1000       (x20)]</text>
<text x="50" y="360" font-family="Arial" font-size="12" fill="black">Num Epoch: 8</text>
<text x="50" y="380" font-family="Arial" font-size="12" fill="black">Time Horizon: 256</text>
<text x="50" y="400" font-family="Arial" font-size="12" fill="black">Gradient Cliping by Norm: 0.5</text>
<text x="50" y="420" font-family="Arial" font-size="12" fill="black">Learning Rate Schedule: True    </text>
<text x="10" y="470" font-family="Arial" font-size="16" fill="black">[Behaviour]</text>
<text x="50" y="490" font-family="Arial" font-size="12" fill="black">Space Size: 120</text>
<text x="50" y="510" font-family="Arial" font-size="12" fill="black">Continuous Actions: 36 [Standard Deviation: Fixed]     [Value: 3.45]</text>
<text x="50" y="530" font-family="Arial" font-size="12" fill="black">Discrete Actions: 0</text>
<text x="50" y="550" font-family="Arial" font-size="12" fill="black">TargetFPS: 100 (physics update rate)</text>
<text x="50" y="570" font-family="Arial" font-size="12" fill="black">Observations Normalization: True</text>
<text x="10" y="620" font-family="Arial" font-size="16" fill="black">[Decision Requester]</text>
<text x="50" y="640" font-family="Arial" font-size="12" fill="black">Max Step: 2000</text>
<text x="50" y="660" font-family="Arial" font-size="12" fill="black">Decision Period: 10      [Actions Between Decisions: True]</text>
<text x="10" y="710" font-family="Arial" font-size="16" fill="black">[Graphs]</text>
<text x="50" y="730" font-family="Arial" font-size="12" fill="black">Episode Reward (814)</text>
<text x="50" y="745" font-family="Arial" font-size="10" fill="black">1.39758</text>
<text x="50" y="960" font-family="Arial" font-size="10" fill="black">-0.0139537</text>
<path d="M50,941.2968 L50.39063,936.4421 L50.78125,929.963 L51.17188,930.0556 L51.5625,931.2107 L51.95313,927.1387 L52.34375,928.8344 L52.73438,924.5125 L53.125,925.0646 L53.51563,925.1868 L53.90625,925.7308 L54.29688,925.6785 L54.6875,926.0474 L55.07813,930.8141 L55.46875,927.1481 L55.85938,924.8312 L56.25,920.0764 L56.64063,929.2291 L57.03125,920.1778 L57.42188,932.1825 L57.8125,917.7656 L58.20313,925.4832 L58.59375,920.6778 L58.98438,923.3192 L59.375,922.516 L59.76563,920.4503 L60.15625,916.097 L60.54688,920.4343 L60.9375,926.094 L61.32813,918.9244 L61.71875,908.89 L62.10938,918.0784 L62.5,911.1303 L62.89063,912.1217 L63.28125,920.921 L63.67188,917.252 L64.0625,915.8828 L64.45313,931.7752 L64.84375,915.3376 L65.23438,921.8569 L65.625,917.134 L66.01563,907.7761 L66.40625,899.8171 L66.79688,915.275 L67.1875,906.9501 L67.57813,899.7921 L67.96875,898.9508 L68.35938,900.6279 L68.75,936.1288 L69.14063,888.4713 L69.53125,928.408 L69.92188,891.6069 L70.3125,899.3751 L70.70313,901.7433 L71.09375,933.5718 L71.48438,935.8479 L71.875,928.1851 L72.26563,921.2586 L72.65625,920.5899 L73.04688,922.7299 L73.4375,930.9268 L73.82813,930.231 L74.21875,931.2792 L74.60938,930.6703 L75,932.3451 L75.39063,873.4856 L75.78125,925.5451 L76.17188,922.1832 L76.5625,914.6389 L76.95313,876.7166 L77.34375,898.7126 L77.73438,938.5219 L78.125,917.9725 L78.51563,921.7883 L78.90625,920.2113 L79.29688,917.6664 L79.6875,880.1035 L80.07813,932.2797 L80.46875,917.0563 L80.85938,918.1769 L81.25,923.8615 L81.64063,887.1093 L82.03125,874.1525 L82.42188,923.2766 L82.8125,919.5587 L83.20313,920.2786 L83.59375,907.7493 L83.98438,922.0221 L84.375,920.207 L84.76563,915.9142 L85.15625,898.561 L85.54688,938.6149 L85.9375,904.8019 L86.32813,873.1097 L86.71875,921.5411 L87.10938,915.3679 L87.5,938.1323 L87.89063,912.7926 L88.28125,932.7551 L88.67188,924.0546 L89.0625,930.0967 L89.45313,900.8683 L89.84375,915.0497 L90.23438,916.6241 L90.625,937.6986 L91.01563,941.9607 L91.40625,921.9234 L91.79688,896.1824 L92.1875,914.6957 L92.57813,928.9467 L92.96875,894.4084 L93.35938,889.2651 L93.75,927.5427 L94.14063,928.3336 L94.53125,927.2969 L94.92188,940.2496 L95.3125,915.293 L95.70313,918.9331 L96.09375,894.327 L96.48438,882.8412 L96.875,833.5608 L97.26563,918.6005 L97.65625,865.4774 L98.04688,914.9631 L98.4375,904.7036 L98.82813,901.4771 L99.21875,830.1697 L99.60938,850.9323 L100,900.032 L100.3906,927.5447 L100.7813,890.4068 L101.1719,906.5265 L101.5625,917.6595 L101.9531,919.0474 L102.3438,928.2591 L102.7344,929.375 L103.125,868.5536 L103.5156,923.3472 L103.9063,915.7006 L104.2969,879.6163 L104.6875,894.7573 L105.0781,889.5123 L105.4688,865.1832 L105.8594,925.9648 L106.25,920.6246 L106.6406,917.8047 L107.0313,905.8685 L107.4219,918.0057 L107.8125,938.5731 L108.2031,895.3647 L108.5938,899.7852 L108.9844,930.6866 L109.375,922.0382 L109.7656,924.3595 L110.1563,905.4465 L110.5469,927.7159 L110.9375,891.207 L111.3281,915.327 L111.7188,920.9633 L112.1094,934.9902 L112.5,917.5242 L112.8906,850.2979 L113.2813,920.1288 L113.6719,910.3245 L114.0625,928.9204 L114.4531,913.9196 L114.8438,932.3198 L115.2344,918.4047 L115.625,927.3459 L116.0156,900.4393 L116.4063,943.1851 L116.7969,910.7332 L117.1875,924.1697 L117.5781,915.1625 L117.9688,940.8291 L118.3594,918.1085 L118.75,867.2276 L119.1406,926.6933 L119.5313,935.6755 L119.9219,865.5515 L120.3125,932.4291 L120.7031,928.4172 L121.0938,856.3887 L121.4844,877.7344 L121.875,911.8883 L122.2656,924.4351 L122.6563,883.271 L123.0469,901.17 L123.4375,902.9267 L123.8281,926.425 L124.2188,939.817 L124.6094,902.9982 L125,909.7737 L125.3906,922.6503 L125.7813,920.3129 L126.1719,928.9691 L126.5625,879.4234 L126.9531,874.6671 L127.3438,876.9923 L127.7344,916.0005 L128.125,919.8315 L128.5156,844.8672 L128.9063,937.0774 L129.2969,926.8544 L129.6875,922.4896 L130.0781,916.0802 L130.4688,900.7122 L130.8594,915.215 L131.25,928.7742 L131.6406,915.8853 L132.0313,928.5385 L132.4219,921.6791 L132.8125,930.7085 L133.2031,907.7723 L133.5938,874.2247 L133.9844,914.3867 L134.375,916.0895 L134.7656,885.544 L135.1563,871.0779 L135.5469,924.9539 L135.9375,915.7783 L136.3281,925.7043 L136.7188,909.0287 L137.1094,923.8903 L137.5,931.4699 L137.8906,910.7226 L138.2813,920.7864 L138.6719,926.3545 L139.0625,897.9288 L139.4531,930.5851 L139.8438,928.8023 L140.2344,861.0847 L140.625,850.159 L141.0156,937.3544 L141.4063,938.4467 L141.7969,912.4404 L142.1875,912.6476 L142.5781,921.6774 L142.9688,931.3194 L143.3594,917.9988 L143.75,925.4814 L144.1406,926.0208 L144.5313,929.1484 L144.9219,928.2384 L145.3125,940.4578 L145.7031,897.4476 L146.0938,934.1726 L146.4844,904.7005 L146.875,889.0336 L147.2656,927.1478 L147.6563,921.7503 L148.0469,911.4086 L148.4375,911.5024 L148.8281,913.8103 L149.2188,939.5701 L149.6094,921.5999 L150,914.7686 L150.3906,926.3062 L150.7813,810.7272 L151.1719,908.6319 L151.5625,933.0335 L151.9531,900.5954 L152.3438,933.4519 L152.7344,929.027 L153.125,883.7108 L153.5156,928.4784 L153.9063,917.5723 L154.2969,923.0124 L154.6875,865.1353 L155.0781,931.9716 L155.4688,902.1416 L155.8594,926.7092 L156.25,927.4729 L156.6406,929.2196 L157.0313,929.0615 L157.4219,930.4158 L157.8125,916.8413 L158.2031,917.7708 L158.5938,930.1458 L158.9844,931.3824 L159.375,932.9523 L159.7656,938.7118 L160.1563,936.6301 L160.5469,902.1329 L160.9375,902.6141 L161.3281,939.8671 L161.7188,941.6247 L162.1094,918.7728 L162.5,917.8215 L162.8906,909.5072 L163.2813,925.201 L163.6719,907.0991 L164.0625,931.4356 L164.4531,927.2264 L164.8438,928.4473 L165.2344,900.2489 L165.625,912.9757 L166.0156,920.6404 L166.4063,932.5122 L166.7969,945.4957 L167.1875,919.6586 L167.5781,931.2192 L167.9688,889.245 L168.3594,932.2472 L168.75,923.2445 L169.1406,941.811 L169.5313,886.1042 L169.9219,907.7519 L170.3125,912.2247 L170.7031,919.3414 L171.0938,930.9689 L171.4844,889.5101 L171.875,931.2715 L172.2656,910.004 L172.6563,909.9254 L173.0469,895.6711 L173.4375,935.734 L173.8281,924.6501 L174.2188,841.7372 L174.6094,920.5634 L175,930.5435 L175.3906,930.1108 L175.7813,924.8943 L176.1719,873.1498 L176.5625,915.6069 L176.9531,928.6252 L177.3438,916.8615 L177.7344,917.6375 L178.125,924.8239 L178.5156,884.775 L178.9063,934.0168 L179.2969,922.0927 L179.6875,914.8765 L180.0781,917.6028 L180.4688,907.3882 L180.8594,914.3401 L181.25,898.3969 L181.6406,912.3466 L182.0313,911.9828 L182.4219,928.061 L182.8125,923.6948 L183.2031,901.5608 L183.5938,910.122 L183.9844,914.1267 L184.375,924.7729 L184.7656,904.6542 L185.1563,909.7672 L185.5469,913.0094 L185.9375,897.2109 L186.3281,924.0231 L186.7188,923.4814 L187.1094,907.2648 L187.5,910.7066 L187.8906,934.9628 L188.2813,880.6955 L188.6719,918.1179 L189.0625,932.8421 L189.4531,903.4501 L189.8438,877.0498 L190.2344,914.9506 L190.625,929.4387 L191.0156,915.9873 L191.4063,930.6546 L191.7969,801.2815 L192.1875,925.9329 L192.5781,937.1136 L192.9688,882.248 L193.3594,927.2175 L193.75,835.6104 L194.1406,904.1699 L194.5313,926.9792 L194.9219,919.6559 L195.3125,913.4613 L195.7031,924.1348 L196.0938,921.3774 L196.4844,941.9385 L196.875,925.8228 L197.2656,912.7906 L197.6563,906.4674 L198.0469,896.1368 L198.4375,910.0444 L198.8281,914.8942 L199.2188,929.9883 L199.6094,927.704 L200,916.2025 L200.3906,920.8257 L200.7813,829.3724 L201.1719,932.4341 L201.5625,929.5222 L201.9531,897.7132 L202.3438,924.1489 L202.7344,876.0598 L203.125,941.7036 L203.5156,927.538 L203.9063,907.0552 L204.2969,941.8671 L204.6875,913.2759 L205.0781,921.3561 L205.4688,853.3862 L205.8594,912.1018 L206.25,887.6688 L206.6406,912.9795 L207.0313,926.1671 L207.4219,943.6295 L207.8125,873.1333 L208.2031,861.4223 L208.5938,932.1563 L208.9844,901.54 L209.375,918.5887 L209.7656,938.8746 L210.1563,807.3371 L210.5469,928.5418 L210.9375,907.864 L211.3281,916.111 L211.7188,933.1437 L212.1094,892.7035 L212.5,922.0627 L212.8906,926.9818 L213.2813,916.7574 L213.6719,916.7081 L214.0625,920.8975 L214.4531,924.2333 L214.8438,913.3845 L215.2344,928.6666 L215.625,930.1427 L216.0156,911.8337 L216.4063,916.0186 L216.7969,921.9498 L217.1875,941.9686 L217.5781,920.91 L217.9688,915.238 L218.3594,930.9783 L218.75,902.1686 L219.1406,926.9172 L219.5313,928.171 L219.9219,933.1597 L220.3125,917.9071 L220.7031,918.9566 L221.0938,879.6006 L221.4844,917.3246 L221.875,917.4215 L222.2656,915.2982 L222.6563,918.6981 L223.0469,935.4239 L223.4375,923.2397 L223.8281,931.1313 L224.2188,914.1587 L224.6094,822.627 L225,911.2729 L225.3906,939.1801 L225.7813,896.691 L226.1719,921.1204 L226.5625,914.4888 L226.9531,909.5124 L227.3438,910.7388 L227.7344,918.5496 L228.125,901.7892 L228.5156,927.5873 L228.9063,939.816 L229.2969,931.0507 L229.6875,935.048 L230.0781,923.8918 L230.4688,882.9451 L230.8594,915.2013 L231.25,919.5673 L231.6406,903.706 L232.0313,924.5259 L232.4219,929.0502 L232.8125,926.4607 L233.2031,917.2792 L233.5938,918.6609 L233.9844,909.9438 L234.375,928.3273 L234.7656,926.1335 L235.1563,918.2794 L235.5469,788.6496 L235.9375,873.6906 L236.3281,827.0008 L236.7188,917.1377 L237.1094,916.3977 L237.5,939.2481 L237.8906,893.2169 L238.2813,929.3416 L238.6719,910.5684 L239.0625,872.4434 L239.4531,894.5394 L239.8438,923.6459 L240.2344,919.2783 L240.625,938.5212 L241.0156,910.8545 L241.4063,922.9285 L241.7969,922.3348 L242.1875,930.8886 L242.5781,907.0679 L242.9688,932.9106 L243.3594,928.3546 L243.75,893.0644 L244.1406,937.8461 L244.5313,913.2189 L244.9219,888.2178 L245.3125,930.3764 L245.7031,916.5023 L246.0938,928.4657 L246.4844,938.4735 L246.875,918.985 L247.2656,927.6211 L247.6563,908.245 L248.0469,891.3372 L248.4375,928.6178 L248.8281,931.0043 L249.2188,918.3772 L249.6094,918.5362 L250,939.9719 L250.3906,911.9776 L250.7813,931.7483 L251.1719,924.3969 L251.5625,908.798 L251.9531,851.2258 L252.3438,909.7153 L252.7344,929.8615 L253.125,909.2789 L253.5156,916.2049 L253.9063,871.9117 L254.2969,902.246 L254.6875,898.4745 L255.0781,903.5952 L255.4688,928.2229 L255.8594,921.5778 L256.25,915.1035 L256.6406,915.1667 L257.0313,920.8969 L257.4219,907.6846 L257.8125,929.6533 L258.2031,927.39 L258.5938,844.1577 L258.9844,890.8487 L259.375,925.0894 L259.7656,923.262 L260.1563,925.5946 L260.5469,852.2711 L260.9375,925.3711 L261.3281,880.8898 L261.7188,892.9128 L262.1094,930.6213 L262.5,904.9035 L262.8906,908.3657 L263.2813,883.4113 L263.6719,902.0909 L264.0625,924.8676 L264.4531,898.312 L264.8438,805.6208 L265.2344,911.8687 L265.625,854.2342 L266.0156,894.012 L266.4063,891.8685 L266.7969,868.0726 L267.1875,926.6703 L267.5781,904.6528 L267.9688,932.3106 L268.3594,904.3235 L268.75,917.5091 L269.1406,896.6348 L269.5313,897.667 L269.9219,909.206 L270.3125,929.1417 L270.7031,924.7711 L271.0938,882.1599 L271.4844,895.2997 L271.875,917.4921 L272.2656,867.6008 L272.6563,909.1533 L273.0469,930.0967 L273.4375,860.1201 L273.8281,916.1561 L274.2188,933.0761 L274.6094,903.5656 L275,904.8248 L275.3906,908.1694 L275.7813,929.7367 L276.1719,927.3567 L276.5625,932.6891 L276.9531,910.4868 L277.3438,877.2281 L277.7344,889.7362 L278.125,917.6088 L278.5156,924.3444 L278.9063,897.6329 L279.2969,918.8912 L279.6875,935.1127 L280.0781,930.0957 L280.4688,917.2823 L280.8594,928.9885 L281.25,918.1548 L281.6406,882.2884 L282.0313,933.7962 L282.4219,914.6766 L282.8125,925.7964 L283.2031,913.2147 L283.5938,907.2891 L283.9844,907.2187 L284.375,925.8832 L284.7656,873.8958 L285.1563,919.0826 L285.5469,933.1389 L285.9375,872.6524 L286.3281,930.7623 L286.7188,869.7892 L287.1094,911.6732 L287.5,926.8842 L287.8906,923.524 L288.2813,924.1292 L288.6719,899.2166 L289.0625,923.2565 L289.4531,922.2685 L289.8438,901.8599 L290.2344,931.3116 L290.625,937.884 L291.0156,908.095 L291.4063,902.1565 L291.7969,928.2975 L292.1875,885.0089 L292.5781,896.4595 L292.9688,919.6481 L293.3594,932.4541 L293.75,930.8504 L294.1406,920.6449 L294.5313,927.2529 L294.9219,918.0815 L295.3125,912.3937 L295.7031,932.0449 L296.0938,941.0334 L296.4844,870.8537 L296.875,918.6177 L297.2656,906.2886 L297.6563,909.5319 L298.0469,908.222 L298.4375,860.4163 L298.8281,929.1281 L299.2188,913.8046 L299.6094,939.3506 L300,936.4399 L300.3906,899.7891 L300.7813,930.811 L301.1719,922.7951 L301.5625,932.7366 L301.9531,940.8445 L302.3438,929.6169 L302.7344,929.6731 L303.125,924.9742 L303.5156,881.866 L303.9063,914.0378 L304.2969,923.7984 L304.6875,894.9635 L305.0781,870.0422 L305.4688,929.4922 L305.8594,923.2003 L306.25,862.6456 L306.6407,918.7429 L307.0313,922.7691 L307.4219,930.3845 L307.8125,913.132 L308.2031,909.549 L308.5938,917.1848 L308.9844,904.7976 L309.375,929.4221 L309.7656,941.2538 L310.1563,929.6127 L310.5469,821.0234 L310.9375,930.5182 L311.3281,841.1665 L311.7188,909.3743 L312.1094,876.0054 L312.5,932.5933 L312.8906,920.0555 L313.2813,904.1498 L313.6719,860.1962 L314.0625,884.8116 L314.4532,902.7856 L314.8438,908.9808 L315.2344,934.3571 L315.625,893.5223 L316.0156,894.1373 L316.4063,920.5711 L316.7969,916.7078 L317.1875,886.9823 L317.5781,887.4027 L317.9688,928.0927 L318.3594,922.0156 L318.75,906.3461 L319.1406,918.9655 L319.5313,917.2159 L319.9219,924.8022 L320.3125,926.9431 L320.7031,850.8403 L321.0938,924.258 L321.4844,923.6763 L321.875,912.996 L322.2657,863.416 L322.6563,894.2847 L323.0469,921.8978 L323.4375,894.7232 L323.8281,875.8926 L324.2188,852.9984 L324.6094,910.8261 L325,930.0029 L325.3906,924.0389 L325.7813,942.5539 L326.1719,842.3941 L326.5625,928.6427 L326.9531,835.0975 L327.3438,920.298 L327.7344,931.7712 L328.125,927.3569 L328.5156,924.5957 L328.9063,933.3347 L329.2969,891.6476 L329.6875,912.7164 L330.0782,925.0674 L330.4688,939.5003 L330.8594,898.0214 L331.25,944.222 L331.6406,872.0238 L332.0313,892.3083 L332.4219,878.4908 L332.8125,861.4018 L333.2031,928.9512 L333.5938,914.944 L333.9844,864.4084 L334.375,897.6597 L334.7656,929.9609 L335.1563,908.9036 L335.5469,917.8613 L335.9375,925.5558 L336.3281,929.1613 L336.7188,906.9569 L337.1094,932.9544 L337.5,914.9996 L337.8907,932.9572 L338.2813,893.6359 L338.6719,896.3915 L339.0625,916.7106 L339.4531,907.4819 L339.8438,911.9732 L340.2344,914.1442 L340.625,912.0134 L341.0156,918.4166 L341.4063,916.7602 L341.7969,829.7155 L342.1875,906.9135 L342.5781,938.7115 L342.9688,918.5006 L343.3594,818.5395 L343.75,817.614 L344.1406,914.7337 L344.5313,906.1237 L344.9219,928.7821 L345.3125,924.6454 L345.7032,925.741 L346.0938,923.7172 L346.4844,936.5875 L346.875,895.9824 L347.2656,882.2244 L347.6563,880.2008 L348.0469,933.6064 L348.4375,923.0042 L348.8281,904.4469 L349.2188,933.9554 L349.6094,929.4678 L350,928.0276 L350.3906,933.5007 L350.7813,924.0881 L351.1719,889.2916 L351.5625,915.1057 L351.9531,915.8057 L352.3438,912.9874 L352.7344,930.5235 L353.125,881.6674 L353.5157,750 L353.9063,905.2227 L354.2969,928.5315 L354.6875,950 L355.0781,899.4786 L355.4688,918.7538 L355.8594,919.2278 L356.25,929.4799 L356.6406,924.3998 L357.0313,890.7603 L357.4219,838.861 L357.8125,880.5859 L358.2031,864.9899 L358.5938,925.9183 L358.9844,921.3961 L359.375,907.4293 L359.7656,929.9407 L360.1563,924.0898 L360.5469,880.7363 L360.9375,912.1749 L361.3282,930.4111 L361.7188,918.2465 L362.1094,919.6866 L362.5,919.5966 L362.8906,915.4045 L363.2813,926.9482 L363.6719,934.2802 L364.0625,908.6638 L364.4531,891.356 L364.8438,914.7509 L365.2344,919.6483 L365.625,894.6011 L366.0156,880.3398 L366.4063,810.9446 L366.7969,911.3351 L367.1875,910.2587 L367.5781,947.4164 " stroke="blue" fill="none" />
<text x="50" y="1000" font-family="Arial" font-size="12" fill="black">Episode Length (814)</text>
<text x="50" y="1015" font-family="Arial" font-size="10" fill="black">99</text>
<text x="50" y="1230" font-family="Arial" font-size="10" fill="black">8</text>
<path d="M50,1220 L50.39063,1213.407 L50.78125,1206.813 L51.17188,1206.813 L51.5625,1204.615 L51.95313,1204.615 L52.34375,1204.615 L52.73438,1202.418 L53.125,1202.418 L53.51563,1202.418 L53.90625,1202.418 L54.29688,1200.22 L54.6875,1200.22 L55.07813,1200.22 L55.46875,1200.22 L55.85938,1200.22 L56.25,1198.022 L56.64063,1198.022 L57.03125,1198.022 L57.42188,1198.022 L57.8125,1198.022 L58.20313,1198.022 L58.59375,1195.824 L58.98438,1195.824 L59.375,1195.824 L59.76563,1195.824 L60.15625,1193.626 L60.54688,1193.626 L60.9375,1193.626 L61.32813,1193.626 L61.71875,1191.429 L62.10938,1191.429 L62.5,1191.429 L62.89063,1191.429 L63.28125,1191.429 L63.67188,1189.231 L64.0625,1189.231 L64.45313,1204.615 L64.84375,1187.033 L65.23438,1187.033 L65.625,1187.033 L66.01563,1187.033 L66.40625,1184.835 L66.79688,1180.44 L67.1875,1180.44 L67.57813,1178.242 L67.96875,1178.242 L68.35938,1178.242 L68.75,1206.813 L69.14063,1173.846 L69.53125,1202.418 L69.92188,1169.451 L70.3125,1169.451 L70.70313,1169.451 L71.09375,1206.813 L71.48438,1206.813 L71.875,1200.22 L72.26563,1198.022 L72.65625,1198.022 L73.04688,1200.22 L73.4375,1195.824 L73.82813,1202.418 L74.21875,1202.418 L74.60938,1195.824 L75,1200.22 L75.39063,1158.462 L75.78125,1202.418 L76.17188,1193.626 L76.5625,1193.626 L76.95313,1156.264 L77.34375,1156.264 L77.73438,1204.615 L78.125,1189.231 L78.51563,1193.626 L78.90625,1193.626 L79.29688,1193.626 L79.6875,1154.066 L80.07813,1195.824 L80.46875,1193.626 L80.85938,1191.429 L81.25,1195.824 L81.64063,1149.67 L82.03125,1149.67 L82.42188,1198.022 L82.8125,1191.429 L83.20313,1193.626 L83.59375,1180.44 L83.98438,1193.626 L84.375,1191.429 L84.76563,1191.429 L85.15625,1178.242 L85.54688,1215.604 L85.9375,1182.637 L86.32813,1134.286 L86.71875,1198.022 L87.10938,1191.429 L87.5,1215.604 L87.89063,1191.429 L88.28125,1206.813 L88.67188,1200.22 L89.0625,1204.615 L89.45313,1180.44 L89.84375,1189.231 L90.23438,1193.626 L90.625,1204.615 L91.01563,1215.604 L91.40625,1191.429 L91.79688,1171.648 L92.1875,1189.231 L92.57813,1202.418 L92.96875,1176.044 L93.35938,1165.055 L93.75,1204.615 L94.14063,1200.22 L94.53125,1198.022 L94.92188,1217.802 L95.3125,1193.626 L95.70313,1189.231 L96.09375,1171.648 L96.48438,1158.462 L96.875,1112.308 L97.26563,1193.626 L97.65625,1149.67 L98.04688,1189.231 L98.4375,1176.044 L98.82813,1176.044 L99.21875,1105.714 L99.60938,1127.692 L100,1171.648 L100.3906,1198.022 L100.7813,1171.648 L101.1719,1180.44 L101.5625,1187.033 L101.9531,1191.429 L102.3438,1189.231 L102.7344,1200.22 L103.125,1149.67 L103.5156,1200.22 L103.9063,1180.44 L104.2969,1154.066 L104.6875,1178.242 L105.0781,1162.857 L105.4688,1132.088 L105.8594,1202.418 L106.25,1193.626 L106.6406,1195.824 L107.0313,1167.253 L107.4219,1193.626 L107.8125,1209.011 L108.2031,1173.846 L108.5938,1171.648 L108.9844,1202.418 L109.375,1195.824 L109.7656,1195.824 L110.1563,1184.835 L110.5469,1195.824 L110.9375,1162.857 L111.3281,1187.033 L111.7188,1193.626 L112.1094,1209.011 L112.5,1189.231 L112.8906,1107.912 L113.2813,1193.626 L113.6719,1171.648 L114.0625,1202.418 L114.4531,1189.231 L114.8438,1204.615 L115.2344,1195.824 L115.625,1200.22 L116.0156,1160.659 L116.4063,1217.802 L116.7969,1187.033 L117.1875,1198.022 L117.5781,1191.429 L117.9688,1211.209 L118.3594,1182.637 L118.75,1147.473 L119.1406,1204.615 L119.5313,1209.011 L119.9219,1138.681 L120.3125,1202.418 L120.7031,1200.22 L121.0938,1134.286 L121.4844,1156.264 L121.875,1184.835 L122.2656,1193.626 L122.6563,1165.055 L123.0469,1171.648 L123.4375,1176.044 L123.8281,1202.418 L124.2188,1195.824 L124.6094,1165.055 L125,1191.429 L125.3906,1195.824 L125.7813,1193.626 L126.1719,1202.418 L126.5625,1147.473 L126.9531,1158.462 L127.3438,1129.89 L127.7344,1189.231 L128.125,1193.626 L128.5156,1116.703 L128.9063,1213.407 L129.2969,1198.022 L129.6875,1191.429 L130.0781,1187.033 L130.4688,1173.846 L130.8594,1189.231 L131.25,1198.022 L131.6406,1191.429 L132.0313,1198.022 L132.4219,1191.429 L132.8125,1202.418 L133.2031,1182.637 L133.5938,1158.462 L133.9844,1193.626 L134.375,1189.231 L134.7656,1149.67 L135.1563,1151.868 L135.5469,1191.429 L135.9375,1193.626 L136.3281,1200.22 L136.7188,1178.242 L137.1094,1200.22 L137.5,1206.813 L137.8906,1191.429 L138.2813,1198.022 L138.6719,1202.418 L139.0625,1165.055 L139.4531,1202.418 L139.8438,1200.22 L140.2344,1140.879 L140.625,1138.681 L141.0156,1213.407 L141.4063,1209.011 L141.7969,1187.033 L142.1875,1187.033 L142.5781,1193.626 L142.9688,1206.813 L143.3594,1191.429 L143.75,1193.626 L144.1406,1200.22 L144.5313,1202.418 L144.9219,1202.418 L145.3125,1215.604 L145.7031,1167.253 L146.0938,1204.615 L146.4844,1176.044 L146.875,1167.253 L147.2656,1202.418 L147.6563,1191.429 L148.0469,1187.033 L148.4375,1184.835 L148.8281,1189.231 L149.2188,1215.604 L149.6094,1195.824 L150,1195.824 L150.3906,1202.418 L150.7813,1101.319 L151.1719,1187.033 L151.5625,1204.615 L151.9531,1176.044 L152.3438,1206.813 L152.7344,1195.824 L153.125,1149.67 L153.5156,1200.22 L153.9063,1191.429 L154.2969,1200.22 L154.6875,1125.495 L155.0781,1204.615 L155.4688,1184.835 L155.8594,1202.418 L156.25,1202.418 L156.6406,1195.824 L157.0313,1200.22 L157.4219,1202.418 L157.8125,1193.626 L158.2031,1191.429 L158.5938,1204.615 L158.9844,1204.615 L159.375,1204.615 L159.7656,1209.011 L160.1563,1209.011 L160.5469,1156.264 L160.9375,1162.857 L161.3281,1211.209 L161.7188,1209.011 L162.1094,1195.824 L162.5,1189.231 L162.8906,1189.231 L163.2813,1193.626 L163.6719,1189.231 L164.0625,1200.22 L164.4531,1202.418 L164.8438,1200.22 L165.2344,1173.846 L165.625,1189.231 L166.0156,1193.626 L166.4063,1204.615 L166.7969,1220 L167.1875,1189.231 L167.5781,1189.231 L167.9688,1147.473 L168.3594,1204.615 L168.75,1193.626 L169.1406,1217.802 L169.5313,1151.868 L169.9219,1182.637 L170.3125,1189.231 L170.7031,1193.626 L171.0938,1206.813 L171.4844,1165.055 L171.875,1202.418 L172.2656,1191.429 L172.6563,1184.835 L173.0469,1160.659 L173.4375,1209.011 L173.8281,1195.824 L174.2188,1116.703 L174.6094,1184.835 L175,1195.824 L175.3906,1202.418 L175.7813,1200.22 L176.1719,1149.67 L176.5625,1162.857 L176.9531,1202.418 L177.3438,1195.824 L177.7344,1191.429 L178.125,1200.22 L178.5156,1147.473 L178.9063,1204.615 L179.2969,1189.231 L179.6875,1182.637 L180.0781,1193.626 L180.4688,1176.044 L180.8594,1191.429 L181.25,1178.242 L181.6406,1189.231 L182.0313,1189.231 L182.4219,1195.824 L182.8125,1193.626 L183.2031,1176.044 L183.5938,1178.242 L183.9844,1189.231 L184.375,1200.22 L184.7656,1176.044 L185.1563,1182.637 L185.5469,1184.835 L185.9375,1178.242 L186.3281,1200.22 L186.7188,1193.626 L187.1094,1173.846 L187.5,1187.033 L187.8906,1211.209 L188.2813,1154.066 L188.6719,1191.429 L189.0625,1206.813 L189.4531,1180.44 L189.8438,1149.67 L190.2344,1193.626 L190.625,1204.615 L191.0156,1191.429 L191.4063,1204.615 L191.7969,1092.527 L192.1875,1200.22 L192.5781,1209.011 L192.9688,1160.659 L193.3594,1202.418 L193.75,1099.121 L194.1406,1176.044 L194.5313,1195.824 L194.9219,1191.429 L195.3125,1182.637 L195.7031,1198.022 L196.0938,1193.626 L196.4844,1217.802 L196.875,1202.418 L197.2656,1191.429 L197.6563,1160.659 L198.0469,1178.242 L198.4375,1189.231 L198.8281,1191.429 L199.2188,1200.22 L199.6094,1200.22 L200,1189.231 L200.3906,1193.626 L200.7813,1118.901 L201.1719,1195.824 L201.5625,1202.418 L201.9531,1156.264 L202.3438,1202.418 L202.7344,1154.066 L203.125,1204.615 L203.5156,1193.626 L203.9063,1160.659 L204.2969,1217.802 L204.6875,1191.429 L205.0781,1193.626 L205.4688,1143.077 L205.8594,1191.429 L206.25,1165.055 L206.6406,1189.231 L207.0313,1198.022 L207.4219,1198.022 L207.8125,1138.681 L208.2031,1136.484 L208.5938,1202.418 L208.9844,1173.846 L209.375,1195.824 L209.7656,1206.813 L210.1563,1085.934 L210.5469,1202.418 L210.9375,1176.044 L211.3281,1182.637 L211.7188,1209.011 L212.1094,1154.066 L212.5,1195.824 L212.8906,1202.418 L213.2813,1191.429 L213.6719,1191.429 L214.0625,1173.846 L214.4531,1193.626 L214.8438,1193.626 L215.2344,1191.429 L215.625,1198.022 L216.0156,1182.637 L216.4063,1178.242 L216.7969,1193.626 L217.1875,1211.209 L217.5781,1193.626 L217.9688,1189.231 L218.3594,1202.418 L218.75,1169.451 L219.1406,1193.626 L219.5313,1202.418 L219.9219,1206.813 L220.3125,1189.231 L220.7031,1189.231 L221.0938,1154.066 L221.4844,1187.033 L221.875,1191.429 L222.2656,1184.835 L222.6563,1198.022 L223.0469,1182.637 L223.4375,1195.824 L223.8281,1202.418 L224.2188,1184.835 L224.6094,1105.714 L225,1182.637 L225.3906,1209.011 L225.7813,1178.242 L226.1719,1198.022 L226.5625,1173.846 L226.9531,1180.44 L227.3438,1189.231 L227.7344,1191.429 L228.125,1165.055 L228.5156,1202.418 L228.9063,1204.615 L229.2969,1202.418 L229.6875,1206.813 L230.0781,1193.626 L230.4688,1162.857 L230.8594,1195.824 L231.25,1193.626 L231.6406,1176.044 L232.0313,1198.022 L232.4219,1202.418 L232.8125,1204.615 L233.2031,1182.637 L233.5938,1191.429 L233.9844,1187.033 L234.375,1202.418 L234.7656,1202.418 L235.1563,1184.835 L235.5469,1072.747 L235.9375,1136.484 L236.3281,1118.901 L236.7188,1193.626 L237.1094,1189.231 L237.5,1215.604 L237.8906,1178.242 L238.2813,1200.22 L238.6719,1191.429 L239.0625,1149.67 L239.4531,1167.253 L239.8438,1200.22 L240.2344,1182.637 L240.625,1209.011 L241.0156,1184.835 L241.4063,1187.033 L241.7969,1191.429 L242.1875,1202.418 L242.5781,1184.835 L242.9688,1206.813 L243.3594,1202.418 L243.75,1162.857 L244.1406,1209.011 L244.5313,1191.429 L244.9219,1138.681 L245.3125,1200.22 L245.7031,1191.429 L246.0938,1202.418 L246.4844,1202.418 L246.875,1195.824 L247.2656,1198.022 L247.6563,1176.044 L248.0469,1156.264 L248.4375,1189.231 L248.8281,1200.22 L249.2188,1191.429 L249.6094,1193.626 L250,1200.22 L250.3906,1189.231 L250.7813,1202.418 L251.1719,1200.22 L251.5625,1184.835 L251.9531,1125.495 L252.3438,1178.242 L252.7344,1202.418 L253.125,1187.033 L253.5156,1191.429 L253.9063,1147.473 L254.2969,1182.637 L254.6875,1173.846 L255.0781,1167.253 L255.4688,1200.22 L255.8594,1191.429 L256.25,1178.242 L256.6406,1187.033 L257.0313,1193.626 L257.4219,1182.637 L257.8125,1184.835 L258.2031,1200.22 L258.5938,1118.901 L258.9844,1140.879 L259.375,1191.429 L259.7656,1195.824 L260.1563,1202.418 L260.5469,1127.692 L260.9375,1198.022 L261.3281,1143.077 L261.7188,1165.055 L262.1094,1202.418 L262.5,1189.231 L262.8906,1187.033 L263.2813,1167.253 L263.6719,1176.044 L264.0625,1198.022 L264.4531,1176.044 L264.8438,1081.538 L265.2344,1189.231 L265.625,1138.681 L266.0156,1167.253 L266.4063,1167.253 L266.7969,1151.868 L267.1875,1200.22 L267.5781,1178.242 L267.9688,1195.824 L268.3594,1176.044 L268.75,1193.626 L269.1406,1178.242 L269.5313,1176.044 L269.9219,1182.637 L270.3125,1200.22 L270.7031,1198.022 L271.0938,1156.264 L271.4844,1158.462 L271.875,1189.231 L272.2656,1132.088 L272.6563,1178.242 L273.0469,1204.615 L273.4375,1136.484 L273.8281,1171.648 L274.2188,1211.209 L274.6094,1178.242 L275,1171.648 L275.3906,1187.033 L275.7813,1202.418 L276.1719,1195.824 L276.5625,1204.615 L276.9531,1169.451 L277.3438,1158.462 L277.7344,1169.451 L278.125,1193.626 L278.5156,1198.022 L278.9063,1176.044 L279.2969,1193.626 L279.6875,1206.813 L280.0781,1200.22 L280.4688,1193.626 L280.8594,1204.615 L281.25,1193.626 L281.6406,1149.67 L282.0313,1202.418 L282.4219,1193.626 L282.8125,1202.418 L283.2031,1187.033 L283.5938,1182.637 L283.9844,1160.659 L284.375,1200.22 L284.7656,1151.868 L285.1563,1189.231 L285.5469,1202.418 L285.9375,1136.484 L286.3281,1200.22 L286.7188,1140.879 L287.1094,1182.637 L287.5,1202.418 L287.8906,1195.824 L288.2813,1189.231 L288.6719,1176.044 L289.0625,1191.429 L289.4531,1193.626 L289.8438,1176.044 L290.2344,1202.418 L290.625,1213.407 L291.0156,1180.44 L291.4063,1180.44 L291.7969,1198.022 L292.1875,1173.846 L292.5781,1162.857 L292.9688,1195.824 L293.3594,1193.626 L293.75,1202.418 L294.1406,1189.231 L294.5313,1195.824 L294.9219,1198.022 L295.3125,1189.231 L295.7031,1204.615 L296.0938,1217.802 L296.4844,1147.473 L296.875,1191.429 L297.2656,1178.242 L297.6563,1182.637 L298.0469,1182.637 L298.4375,1138.681 L298.8281,1204.615 L299.2188,1189.231 L299.6094,1202.418 L300,1204.615 L300.3906,1169.451 L300.7813,1202.418 L301.1719,1195.824 L301.5625,1206.813 L301.9531,1204.615 L302.3438,1204.615 L302.7344,1204.615 L303.125,1195.824 L303.5156,1151.868 L303.9063,1189.231 L304.2969,1195.824 L304.6875,1145.275 L305.0781,1147.473 L305.4688,1204.615 L305.8594,1193.626 L306.25,1147.473 L306.6407,1193.626 L307.0313,1189.231 L307.4219,1204.615 L307.8125,1191.429 L308.2031,1187.033 L308.5938,1195.824 L308.9844,1176.044 L309.375,1204.615 L309.7656,1202.418 L310.1563,1204.615 L310.5469,1090.33 L310.9375,1202.418 L311.3281,1127.692 L311.7188,1178.242 L312.1094,1140.879 L312.5,1204.615 L312.8906,1195.824 L313.2813,1171.648 L313.6719,1138.681 L314.0625,1151.868 L314.4532,1178.242 L314.8438,1187.033 L315.2344,1200.22 L315.625,1158.462 L316.0156,1167.253 L316.4063,1189.231 L316.7969,1191.429 L317.1875,1156.264 L317.5781,1156.264 L317.9688,1202.418 L318.3594,1195.824 L318.75,1178.242 L319.1406,1189.231 L319.5313,1187.033 L319.9219,1198.022 L320.3125,1206.813 L320.7031,1123.297 L321.0938,1195.824 L321.4844,1195.824 L321.875,1180.44 L322.2657,1143.077 L322.6563,1178.242 L323.0469,1200.22 L323.4375,1176.044 L323.8281,1154.066 L324.2188,1105.714 L324.6094,1182.637 L325,1206.813 L325.3906,1191.429 L325.7813,1217.802 L326.1719,1125.495 L326.5625,1198.022 L326.9531,1116.703 L327.3438,1182.637 L327.7344,1206.813 L328.125,1200.22 L328.5156,1200.22 L328.9063,1209.011 L329.2969,1165.055 L329.6875,1187.033 L330.0782,1200.22 L330.4688,1204.615 L330.8594,1173.846 L331.25,1209.011 L331.6406,1138.681 L332.0313,1169.451 L332.4219,1127.692 L332.8125,1129.89 L333.2031,1187.033 L333.5938,1189.231 L333.9844,1138.681 L334.375,1178.242 L334.7656,1202.418 L335.1563,1184.835 L335.5469,1191.429 L335.9375,1202.418 L336.3281,1202.418 L336.7188,1182.637 L337.1094,1206.813 L337.5,1189.231 L337.8907,1200.22 L338.2813,1167.253 L338.6719,1169.451 L339.0625,1184.835 L339.4531,1184.835 L339.8438,1189.231 L340.2344,1184.835 L340.625,1187.033 L341.0156,1193.626 L341.4063,1187.033 L341.7969,1099.121 L342.1875,1178.242 L342.5781,1211.209 L342.9688,1184.835 L343.3594,1081.538 L343.75,1090.33 L344.1406,1178.242 L344.5313,1178.242 L344.9219,1202.418 L345.3125,1200.22 L345.7032,1204.615 L346.0938,1191.429 L346.4844,1204.615 L346.875,1165.055 L347.2656,1138.681 L347.6563,1156.264 L348.0469,1204.615 L348.4375,1189.231 L348.8281,1178.242 L349.2188,1204.615 L349.6094,1198.022 L350,1204.615 L350.3906,1209.011 L350.7813,1198.022 L351.1719,1167.253 L351.5625,1180.44 L351.9531,1187.033 L352.3438,1191.429 L352.7344,1202.418 L353.125,1132.088 L353.5157,1020 L353.9063,1178.242 L354.2969,1202.418 L354.6875,1209.011 L355.0781,1176.044 L355.4688,1191.429 L355.8594,1195.824 L356.25,1202.418 L356.6406,1195.824 L357.0313,1162.857 L357.4219,1096.923 L357.8125,1147.473 L358.2031,1143.077 L358.5938,1200.22 L358.9844,1193.626 L359.375,1176.044 L359.7656,1206.813 L360.1563,1202.418 L360.5469,1162.857 L360.9375,1187.033 L361.3282,1202.418 L361.7188,1191.429 L362.1094,1191.429 L362.5,1198.022 L362.8906,1191.429 L363.2813,1204.615 L363.6719,1209.011 L364.0625,1178.242 L364.4531,1167.253 L364.8438,1189.231 L365.2344,1189.231 L365.625,1167.253 L366.0156,1162.857 L366.4063,1101.319 L366.7969,1187.033 L367.1875,1171.648 L367.5781,1215.604 " stroke="blue" fill="none" />
<text x="50" y="1270" font-family="Arial" font-size="12" fill="black">Policy Loss</text>
<text x="50" y="1285" font-family="Arial" font-size="10" fill="black">0.7587442</text>
<text x="50" y="1500" font-family="Arial" font-size="10" fill="black">0.7587442</text>
<path d="M50,1490 " stroke="blue" fill="none" />
<text x="50" y="1540" font-family="Arial" font-size="12" fill="black">Value Loss</text>
<text x="50" y="1555" font-family="Arial" font-size="10" fill="black">0.005311268</text>
<text x="50" y="1770" font-family="Arial" font-size="10" fill="black">0.005311268</text>
<path d="M50,1760 " stroke="blue" fill="none" />
<text x="50" y="1810" font-family="Arial" font-size="12" fill="black">Learning Rate</text>
<text x="50" y="1825" font-family="Arial" font-size="10" fill="black">9.9999E-05</text>
<text x="50" y="2040" font-family="Arial" font-size="10" fill="black">9.9999E-05</text>
<path d="M50,2030 " stroke="blue" fill="none" />
<text x="50" y="2080" font-family="Arial" font-size="12" fill="black">Entropy</text>
<text x="50" y="2095" font-family="Arial" font-size="10" fill="black">3.450005</text>
<text x="50" y="2310" font-family="Arial" font-size="10" fill="black">3.450005</text>
<path d="M50,2300 " stroke="blue" fill="none" />
<text x="750" y="730" font-family="Arial" font-size="12" fill="black">Simplified</text>
<text x="750" y="745" font-family="Arial" font-size="10" fill="black">0.3608477</text>
<text x="750" y="960" font-family="Arial" font-size="10" fill="black">0.1422665</text>
<path d="M757.0313,950 L764.4531,899.2074 L771.875,847.1584 L779.2969,888.1537 L786.7188,837.4783 L794.1406,894.6881 L801.5625,750 L808.9844,826.4849 L816.4063,873.6697 L823.8281,820.7772 L831.25,832.4247 L838.6719,856.5865 L846.0938,879.296 L853.5156,841.176 L860.9375,903.2513 L868.3594,916.6263 L875.7813,860.4838 L883.2031,854.2905 L890.625,848.4468 L898.0469,820.6902 L905.4688,843.16 L912.8906,818.66 L920.3125,912.1281 L927.7344,843.2764 L935.1563,898.9587 L942.5781,782.8865 L950,902.6506 L957.4219,830.5828 L964.8438,761.7731 L972.2656,778.7201 L979.6875,846.8625 L987.1094,843.3596 L994.5313,886.0223 L1001.953,879.8982 L1009.375,848.3264 L1016.797,777.4718 L1024.219,781.5255 L1031.641,849.6244 L1039.063,819.0698 L1046.484,794.2252 L1053.906,793.5433 L1061.328,830.2695 L1067.578,819.8911 " stroke="blue" fill="none" />
<text x="750" y="1000" font-family="Arial" font-size="12" fill="black">Simplified</text>
<text x="750" y="1015" font-family="Arial" font-size="10" fill="black">30.36842</text>
<text x="750" y="1230" font-family="Arial" font-size="10" fill="black">15.52632</text>
<path d="M757.0313,1220 L764.4531,1163.972 L771.875,1112.908 L779.2969,1143.404 L786.7188,1095.177 L794.1406,1164.681 L801.5625,1027.092 L808.9844,1085.248 L816.4063,1120.709 L823.8281,1088.085 L831.25,1079.574 L838.6719,1124.965 L846.0938,1141.277 L853.5156,1111.489 L860.9375,1149.078 L868.3594,1163.972 L875.7813,1116.454 L883.2031,1105.106 L890.625,1113.617 L898.0469,1085.248 L905.4688,1101.56 L912.8906,1071.064 L920.3125,1149.078 L927.7344,1095.177 L935.1563,1153.333 L942.5781,1055.461 L950,1137.021 L957.4219,1090.922 L964.8438,1020 L972.2656,1046.95 L979.6875,1104.397 L987.1094,1093.759 L994.5313,1138.44 L1001.953,1137.73 L1009.375,1109.362 L1016.797,1031.348 L1024.219,1044.823 L1031.641,1107.234 L1039.063,1071.064 L1046.484,1047.66 L1053.906,1039.149 L1061.328,1087.376 L1067.578,1089.814 " stroke="blue" fill="none" />
</svg>
