<svg width="2000" height="2500" xmlns="http://www.w3.org/2000/svg">
<text x="10" y="20" font-family="Arial" font-size="26" fill="black"> [Walker] Training Session</text>
<text x="10" y="50" font-family="Arial" font-size="16" fill="black">[Statistics]</text>
<text x="50" y="70" font-family="Arial" font-size="12" fill="black">Started at: 1:44:01 PM, Tuesday, February 6, 2024</text>
<text x="50" y="90" font-family="Arial" font-size="12" fill="black">Finished at: 1:44:37 PM, Tuesday, February 6, 2024</text>
<text x="50" y="110" font-family="Arial" font-size="12" fill="black">Training Session Time: 0 hrs : 0 min : 28 sec</text>
<text x="50" y="130" font-family="Arial" font-size="12" fill="black">Inference Time: 0 hrs : 11 min : 1 sec        [Device: CPU]</text>
<text x="50" y="150" font-family="Arial" font-size="12" fill="black">Update Time: 0 hrs : 0 min : 14 sec        [Per iteration: 0 hrs : 0 min : 13.162 sec]        [Device: GPU]</text>
<text x="50" y="170" font-family="Arial" font-size="12" fill="black">Episode Count: 889</text>
<text x="50" y="190" font-family="Arial" font-size="12" fill="black">Inference Steps: 4096</text>
<text x="50" y="210" font-family="Arial" font-size="12" fill="black">Iterations: 1</text>
<text x="50" y="230" font-family="Arial" font-size="12" fill="black">Parallel Agents: 1</text>
<text x="50" y="250" font-family="Arial" font-size="12" fill="black">Timescale: 30</text>
<text x="50" y="270" font-family="Arial" font-size="12" fill="black">Trainer: PPO</text>
<text x="10" y="320" font-family="Arial" font-size="16" fill="black">[Hyperparameters]</text>
<text x="50" y="340" font-family="Arial" font-size="12" fill="black">Buffer Size: 4096        [Batch Size: 256       (x16)]</text>
<text x="50" y="360" font-family="Arial" font-size="12" fill="black">Num Epoch: 8</text>
<text x="50" y="380" font-family="Arial" font-size="12" fill="black">Time Horizon: 2040</text>
<text x="50" y="400" font-family="Arial" font-size="12" fill="black">Gradient Cliping by Norm: 0.5</text>
<text x="50" y="420" font-family="Arial" font-size="12" fill="black">Learning Rate Schedule: False    </text>
<text x="10" y="470" font-family="Arial" font-size="16" fill="black">[Behaviour]</text>
<text x="50" y="490" font-family="Arial" font-size="12" fill="black">Space Size: 120</text>
<text x="50" y="510" font-family="Arial" font-size="12" fill="black">Continuous Actions: 36 [Standard Deviation: Fixed]     [Value: 2.04]</text>
<text x="50" y="530" font-family="Arial" font-size="12" fill="black">Discrete Actions: 0</text>
<text x="50" y="550" font-family="Arial" font-size="12" fill="black">TargetFPS: 50 (physics update rate)</text>
<text x="50" y="570" font-family="Arial" font-size="12" fill="black">Observations Normalization: True</text>
<text x="10" y="620" font-family="Arial" font-size="16" fill="black">[Decision Requester]</text>
<text x="50" y="640" font-family="Arial" font-size="12" fill="black">Max Step: 10000</text>
<text x="50" y="660" font-family="Arial" font-size="12" fill="black">Decision Period: 5      [Actions Between Decisions: True]</text>
<text x="10" y="710" font-family="Arial" font-size="16" fill="black">[Graphs]</text>
<text x="50" y="730" font-family="Arial" font-size="12" fill="black">Episode Reward (889)</text>
<text x="50" y="745" font-family="Arial" font-size="10" fill="black">0.064</text>
<text x="50" y="960" font-family="Arial" font-size="10" fill="black">0.014</text>
<path d="M50,850 L50.39063,830 L50.78125,870 L51.17188,870 L51.5625,870 L51.95313,850 L52.34375,830 L52.73438,870 L53.125,890 L53.51563,870 L53.90625,850 L54.29688,890 L54.6875,870 L55.07813,850 L55.46875,870 L55.85938,830 L56.25,870 L56.64063,850 L57.03125,850 L57.42188,850 L57.8125,910 L58.20313,830 L58.59375,790 L58.98438,870 L59.375,870 L59.76563,870 L60.15625,870 L60.54688,890 L60.9375,850 L61.32813,850 L61.71875,870 L62.10938,870 L62.5,870 L62.89063,870 L63.28125,890 L63.67188,830 L64.0625,850 L64.45313,870 L64.84375,870 L65.23438,870 L65.625,830 L66.01563,850 L66.40625,850 L66.79688,850 L67.1875,870 L67.57813,890 L67.96875,850 L68.35938,870 L68.75,870 L69.14063,850 L69.53125,870 L69.92188,870 L70.3125,810 L70.70313,830 L71.09375,870 L71.48438,830 L71.875,870 L72.26563,870 L72.65625,870 L73.04688,870 L73.4375,870 L73.82813,890 L74.21875,830 L74.60938,910 L75,850 L75.39063,890 L75.78125,850 L76.17188,850 L76.5625,850 L76.95313,850 L77.34375,830 L77.73438,870 L78.125,870 L78.51563,910 L78.90625,850 L79.29688,870 L79.6875,890 L80.07813,870 L80.46875,830 L80.85938,870 L81.25,870 L81.64063,870 L82.03125,890 L82.42188,890 L82.8125,850 L83.20313,870 L83.59375,830 L83.98438,870 L84.375,850 L84.76563,850 L85.15625,850 L85.54688,870 L85.9375,870 L86.32813,870 L86.71875,870 L87.10938,790 L87.5,850 L87.89063,830 L88.28125,870 L88.67188,850 L89.0625,850 L89.45313,870 L89.84375,870 L90.23438,910 L90.625,870 L91.01563,850 L91.40625,870 L91.79688,850 L92.1875,890 L92.57813,870 L92.96875,870 L93.35938,850 L93.75,830 L94.14063,830 L94.53125,870 L94.92188,850 L95.3125,850 L95.70313,850 L96.09375,870 L96.48438,830 L96.875,850 L97.26563,850 L97.65625,870 L98.04688,850 L98.4375,890 L98.82813,910 L99.21875,850 L99.60938,850 L100,850 L100.3906,850 L100.7813,850 L101.1719,870 L101.5625,870 L101.9531,890 L102.3438,850 L102.7344,830 L103.125,890 L103.5156,850 L103.9063,890 L104.2969,870 L104.6875,890 L105.0781,870 L105.4688,850 L105.8594,830 L106.25,850 L106.6406,850 L107.0313,870 L107.4219,870 L107.8125,910 L108.2031,830 L108.5938,850 L108.9844,870 L109.375,850 L109.7656,850 L110.1563,850 L110.5469,870 L110.9375,870 L111.3281,850 L111.7188,850 L112.1094,850 L112.5,850 L112.8906,830 L113.2813,830 L113.6719,870 L114.0625,870 L114.4531,830 L114.8438,850 L115.2344,830 L115.625,870 L116.0156,850 L116.4063,870 L116.7969,870 L117.1875,870 L117.5781,850 L117.9688,850 L118.3594,830 L118.75,850 L119.1406,830 L119.5313,850 L119.9219,870 L120.3125,850 L120.7031,870 L121.0938,910 L121.4844,890 L121.875,870 L122.2656,830 L122.6563,870 L123.0469,890 L123.4375,850 L123.8281,890 L124.2188,850 L124.6094,830 L125,850 L125.3906,850 L125.7813,830 L126.1719,850 L126.5625,850 L126.9531,870 L127.3438,870 L127.7344,870 L128.125,870 L128.5156,850 L128.9063,870 L129.2969,870 L129.6875,770.0001 L130.0781,850 L130.4688,870 L130.8594,850 L131.25,850 L131.6406,830 L132.0313,870 L132.4219,850 L132.8125,850 L133.2031,870 L133.5938,830 L133.9844,870 L134.375,870 L134.7656,890 L135.1563,870 L135.5469,870 L135.9375,890 L136.3281,850 L136.7188,870 L137.1094,850 L137.5,850 L137.8906,850 L138.2813,890 L138.6719,830 L139.0625,870 L139.4531,850 L139.8438,830 L140.2344,850 L140.625,830 L141.0156,870 L141.4063,870 L141.7969,870 L142.1875,870 L142.5781,850 L142.9688,890 L143.3594,870 L143.75,870 L144.1406,810 L144.5313,870 L144.9219,850 L145.3125,830 L145.7031,850 L146.0938,850 L146.4844,830 L146.875,870 L147.2656,850 L147.6563,850 L148.0469,850 L148.4375,870 L148.8281,870 L149.2188,850 L149.6094,890 L150,850 L150.3906,870 L150.7813,850 L151.1719,830 L151.5625,850 L151.9531,830 L152.3438,870 L152.7344,950 L153.125,830 L153.5156,890 L153.9063,830 L154.2969,870 L154.6875,830 L155.0781,890 L155.4688,830 L155.8594,850 L156.25,890 L156.6406,790 L157.0313,850 L157.4219,850 L157.8125,850 L158.2031,750.0001 L158.5938,830 L158.9844,870 L159.375,850 L159.7656,870 L160.1563,870 L160.5469,870 L160.9375,850 L161.3281,870 L161.7188,870 L162.1094,870 L162.5,870 L162.8906,890 L163.2813,870 L163.6719,850 L164.0625,850 L164.4531,870 L164.8438,850 L165.2344,890 L165.625,870 L166.0156,830 L166.4063,890 L166.7969,890 L167.1875,850 L167.5781,830 L167.9688,890 L168.3594,870 L168.75,850 L169.1406,850 L169.5313,850 L169.9219,930 L170.3125,850 L170.7031,850 L171.0938,850 L171.4844,930 L171.875,850 L172.2656,850 L172.6563,870 L173.0469,890 L173.4375,850 L173.8281,850 L174.2188,850 L174.6094,850 L175,890 L175.3906,850 L175.7813,850 L176.1719,890 L176.5625,870 L176.9531,850 L177.3438,790 L177.7344,870 L178.125,830 L178.5156,850 L178.9063,850 L179.2969,850 L179.6875,870 L180.0781,870 L180.4688,830 L180.8594,870 L181.25,830 L181.6406,910 L182.0313,850 L182.4219,850 L182.8125,830 L183.2031,850 L183.5938,850 L183.9844,830 L184.375,830 L184.7656,910 L185.1563,830 L185.5469,870 L185.9375,850 L186.3281,850 L186.7188,870 L187.1094,850 L187.5,870 L187.8906,850 L188.2813,850 L188.6719,870 L189.0625,850 L189.4531,870 L189.8438,850 L190.2344,850 L190.625,870 L191.0156,830 L191.4063,890 L191.7969,850 L192.1875,910 L192.5781,870 L192.9688,870 L193.3594,870 L193.75,850 L194.1406,830 L194.5313,870 L194.9219,870 L195.3125,850 L195.7031,850 L196.0938,890 L196.4844,830 L196.875,870 L197.2656,870 L197.6563,850 L198.0469,850 L198.4375,850 L198.8281,850 L199.2188,850 L199.6094,850 L200,850 L200.3906,850 L200.7813,850 L201.1719,850 L201.5625,870 L201.9531,870 L202.3438,870 L202.7344,850 L203.125,890 L203.5156,850 L203.9063,850 L204.2969,870 L204.6875,850 L205.0781,850 L205.4688,810 L205.8594,830 L206.25,810 L206.6406,850 L207.0313,830 L207.4219,870 L207.8125,890 L208.2031,870 L208.5938,870 L208.9844,830 L209.375,850 L209.7656,870 L210.1563,850 L210.5469,890 L210.9375,890 L211.3281,910 L211.7188,870 L212.1094,850 L212.5,850 L212.8906,870 L213.2813,850 L213.6719,930 L214.0625,870 L214.4531,830 L214.8438,870 L215.2344,870 L215.625,850 L216.0156,890 L216.4063,870 L216.7969,850 L217.1875,890 L217.5781,850 L217.9688,830 L218.3594,830 L218.75,850 L219.1406,830 L219.5313,850 L219.9219,850 L220.3125,850 L220.7031,850 L221.0938,870 L221.4844,870 L221.875,870 L222.2656,850 L222.6563,850 L223.0469,850 L223.4375,830 L223.8281,870 L224.2188,830 L224.6094,850 L225,830 L225.3906,830 L225.7813,810 L226.1719,850 L226.5625,850 L226.9531,810 L227.3438,850 L227.7344,830 L228.125,850 L228.5156,850 L228.9063,870 L229.2969,870 L229.6875,850 L230.0781,870 L230.4688,850 L230.8594,830 L231.25,810 L231.6406,810 L232.0313,870 L232.4219,850 L232.8125,870 L233.2031,870 L233.5938,850 L233.9844,850 L234.375,870 L234.7656,870 L235.1563,850 L235.5469,870 L235.9375,850 L236.3281,910 L236.7188,850 L237.1094,830 L237.5,850 L237.8906,890 L238.2813,850 L238.6719,830 L239.0625,850 L239.4531,850 L239.8438,850 L240.2344,870 L240.625,870 L241.0156,850 L241.4063,850 L241.7969,850 L242.1875,830 L242.5781,830 L242.9688,870 L243.3594,850 L243.75,850 L244.1406,850 L244.5313,870 L244.9219,870 L245.3125,850 L245.7031,870 L246.0938,850 L246.4844,870 L246.875,850 L247.2656,870 L247.6563,870 L248.0469,850 L248.4375,850 L248.8281,850 L249.2188,850 L249.6094,850 L250,870 L250.3906,830 L250.7813,870 L251.1719,850 L251.5625,870 L251.9531,830 L252.3438,850 L252.7344,890 L253.125,850 L253.5156,850 L253.9063,870 L254.2969,830 L254.6875,870 L255.0781,870 L255.4688,830 L255.8594,870 L256.25,870 L256.6406,850 L257.0313,850 L257.4219,870 L257.8125,850 L258.2031,850 L258.5938,870 L258.9844,850 L259.375,870 L259.7656,830 L260.1563,890 L260.5469,870 L260.9375,870 L261.3281,830 L261.7188,870 L262.1094,850 L262.5,850 L262.8906,850 L263.2813,850 L263.6719,870 L264.0625,870 L264.4531,850 L264.8438,850 L265.2344,850 L265.625,870 L266.0156,850 L266.4063,870 L266.7969,870 L267.1875,850 L267.5781,830 L267.9688,870 L268.3594,850 L268.75,850 L269.1406,890 L269.5313,830 L269.9219,850 L270.3125,850 L270.7031,910 L271.0938,850 L271.4844,870 L271.875,870 L272.2656,850 L272.6563,870 L273.0469,850 L273.4375,850 L273.8281,830 L274.2188,850 L274.6094,850 L275,850 L275.3906,850 L275.7813,870 L276.1719,830 L276.5625,850 L276.9531,850 L277.3438,830 L277.7344,850 L278.125,850 L278.5156,850 L278.9063,870 L279.2969,850 L279.6875,850 L280.0781,870 L280.4688,850 L280.8594,870 L281.25,830 L281.6406,790 L282.0313,830 L282.4219,870 L282.8125,850 L283.2031,870 L283.5938,850 L283.9844,890 L284.375,830 L284.7656,890 L285.1563,850 L285.5469,830 L285.9375,850 L286.3281,890 L286.7188,850 L287.1094,830 L287.5,930 L287.8906,870 L288.2813,850 L288.6719,870 L289.0625,850 L289.4531,850 L289.8438,870 L290.2344,870 L290.625,850 L291.0156,850 L291.4063,850 L291.7969,870 L292.1875,850 L292.5781,870 L292.9688,830 L293.3594,830 L293.75,810 L294.1406,910 L294.5313,890 L294.9219,850 L295.3125,870 L295.7031,850 L296.0938,870 L296.4844,890 L296.875,870 L297.2656,870 L297.6563,850 L298.0469,870 L298.4375,890 L298.8281,870 L299.2188,850 L299.6094,850 L300,870 L300.3906,870 L300.7813,830 L301.1719,850 L301.5625,870 L301.9531,870 L302.3438,830 L302.7344,850 L303.125,870 L303.5156,870 L303.9063,830 L304.2969,830 L304.6875,850 L305.0781,850 L305.4688,850 L305.8594,870 L306.25,830 L306.6407,830 L307.0313,850 L307.4219,850 L307.8125,830 L308.2031,830 L308.5938,850 L308.9844,850 L309.375,830 L309.7656,870 L310.1563,870 L310.5469,850 L310.9375,850 L311.3281,890 L311.7188,890 L312.1094,850 L312.5,830 L312.8906,870 L313.2813,850 L313.6719,870 L314.0625,870 L314.4532,870 L314.8438,890 L315.2344,870 L315.625,850 L316.0156,850 L316.4063,870 L316.7969,850 L317.1875,870 L317.5781,870 L317.9688,930 L318.3594,870 L318.75,870 L319.1406,870 L319.5313,850 L319.9219,870 L320.3125,850 L320.7031,850 L321.0938,850 L321.4844,850 L321.875,870 L322.2657,850 L322.6563,870 L323.0469,850 L323.4375,850 L323.8281,850 L324.2188,850 L324.6094,850 L325,850 L325.3906,890 L325.7813,870 L326.1719,850 L326.5625,850 L326.9531,870 L327.3438,850 L327.7344,870 L328.125,870 L328.5156,850 L328.9063,850 L329.2969,830 L329.6875,850 L330.0782,870 L330.4688,850 L330.8594,830 L331.25,830 L331.6406,850 L332.0313,910 L332.4219,850 L332.8125,870 L333.2031,870 L333.5938,850 L333.9844,850 L334.375,870 L334.7656,830 L335.1563,850 L335.5469,850 L335.9375,830 L336.3281,870 L336.7188,870 L337.1094,850 L337.5,850 L337.8907,830 L338.2813,890 L338.6719,850 L339.0625,870 L339.4531,830 L339.8438,870 L340.2344,870 L340.625,850 L341.0156,850 L341.4063,850 L341.7969,850 L342.1875,870 L342.5781,810 L342.9688,890 L343.3594,910 L343.75,870 L344.1406,870 L344.5313,870 L344.9219,870 L345.3125,870 L345.7032,850 L346.0938,870 L346.4844,870 L346.875,890 L347.2656,850 L347.6563,870 L348.0469,830 L348.4375,830 L348.8281,830 L349.2188,870 L349.6094,870 L350,890 L350.3906,890 L350.7813,870 L351.1719,870 L351.5625,850 L351.9531,870 L352.3438,810 L352.7344,850 L353.125,850 L353.5157,850 L353.9063,910 L354.2969,850 L354.6875,850 L355.0781,870 L355.4688,870 L355.8594,830 L356.25,850 L356.6406,850 L357.0313,850 L357.4219,870 L357.8125,850 L358.2031,850 L358.5938,830 L358.9844,870 L359.375,850 L359.7656,830 L360.1563,870 L360.5469,850 L360.9375,870 L361.3282,870 L361.7188,870 L362.1094,850 L362.5,850 L362.8906,850 L363.2813,810 L363.6719,850 L364.0625,870 L364.4531,850 L364.8438,890 L365.2344,870 L365.625,850 L366.0156,850 L366.4063,870 L366.7969,870 L367.1875,870 L367.5781,850 L367.9688,830 L368.3594,830 L368.75,870 L369.1407,870 L369.5313,890 L369.9219,830 L370.3125,850 L370.7031,850 L371.0938,870 L371.4844,850 L371.875,850 L372.2656,850 L372.6563,890 L373.0469,830 L373.4375,850 L373.8281,850 L374.2188,830 L374.6094,850 L375,850 L375.3906,850 L375.7813,850 L376.1719,850 L376.5625,890 L376.9532,870 L377.3438,830 L377.7344,870 L378.125,870 L378.5156,850 L378.9063,830 L379.2969,850 L379.6875,810 L380.0781,870 L380.4688,910 L380.8594,850 L381.25,870 L381.6406,850 L382.0313,850 L382.4219,830 L382.8125,850 L383.2031,870 L383.5938,850 L383.9844,850 L384.375,850 L384.7657,850 L385.1563,850 L385.5469,850 L385.9375,850 L386.3281,830 L386.7188,830 L387.1094,870 L387.5,850 L387.8906,870 L388.2813,870 L388.6719,850 L389.0625,870 L389.4531,870 L389.8438,850 L390.2344,890 L390.625,890 L391.0156,850 L391.4063,870 L391.7969,850 L392.1875,850 L392.5782,890 L392.9688,870 L393.3594,870 L393.75,870 L394.1406,870 L394.5313,870 L394.9219,850 L395.3125,890 L395.7031,890 L396.0938,830 L396.4844,870 L396.875,850 " stroke="blue" fill="none" />
<text x="50" y="1000" font-family="Arial" font-size="12" fill="black">Episode Length (889)</text>
<text x="50" y="1015" font-family="Arial" font-size="10" fill="black">13</text>
<text x="50" y="1230" font-family="Arial" font-size="10" fill="black">3</text>
<path d="M50,1140 L50.39063,1100 L50.78125,1140 L51.17188,1140 L51.5625,1140 L51.95313,1120 L52.34375,1100 L52.73438,1140 L53.125,1160 L53.51563,1140 L53.90625,1120 L54.29688,1160 L54.6875,1140 L55.07813,1120 L55.46875,1140 L55.85938,1100 L56.25,1140 L56.64063,1120 L57.03125,1120 L57.42188,1120 L57.8125,1180 L58.20313,1100 L58.59375,1060 L58.98438,1140 L59.375,1140 L59.76563,1140 L60.15625,1140 L60.54688,1160 L60.9375,1120 L61.32813,1120 L61.71875,1140 L62.10938,1140 L62.5,1140 L62.89063,1140 L63.28125,1160 L63.67188,1100 L64.0625,1120 L64.45313,1140 L64.84375,1140 L65.23438,1140 L65.625,1100 L66.01563,1120 L66.40625,1120 L66.79688,1120 L67.1875,1140 L67.57813,1160 L67.96875,1120 L68.35938,1140 L68.75,1140 L69.14063,1120 L69.53125,1140 L69.92188,1140 L70.3125,1080 L70.70313,1100 L71.09375,1140 L71.48438,1100 L71.875,1140 L72.26563,1140 L72.65625,1140 L73.04688,1140 L73.4375,1140 L73.82813,1160 L74.21875,1100 L74.60938,1180 L75,1120 L75.39063,1160 L75.78125,1120 L76.17188,1120 L76.5625,1120 L76.95313,1120 L77.34375,1100 L77.73438,1140 L78.125,1140 L78.51563,1180 L78.90625,1120 L79.29688,1140 L79.6875,1160 L80.07813,1140 L80.46875,1100 L80.85938,1140 L81.25,1140 L81.64063,1140 L82.03125,1160 L82.42188,1160 L82.8125,1120 L83.20313,1140 L83.59375,1100 L83.98438,1140 L84.375,1120 L84.76563,1120 L85.15625,1120 L85.54688,1140 L85.9375,1140 L86.32813,1140 L86.71875,1140 L87.10938,1060 L87.5,1120 L87.89063,1100 L88.28125,1140 L88.67188,1120 L89.0625,1120 L89.45313,1140 L89.84375,1140 L90.23438,1180 L90.625,1140 L91.01563,1120 L91.40625,1140 L91.79688,1120 L92.1875,1160 L92.57813,1140 L92.96875,1140 L93.35938,1120 L93.75,1100 L94.14063,1100 L94.53125,1140 L94.92188,1120 L95.3125,1120 L95.70313,1120 L96.09375,1140 L96.48438,1100 L96.875,1120 L97.26563,1120 L97.65625,1140 L98.04688,1120 L98.4375,1160 L98.82813,1180 L99.21875,1120 L99.60938,1120 L100,1120 L100.3906,1120 L100.7813,1120 L101.1719,1140 L101.5625,1140 L101.9531,1160 L102.3438,1120 L102.7344,1100 L103.125,1160 L103.5156,1120 L103.9063,1160 L104.2969,1140 L104.6875,1160 L105.0781,1140 L105.4688,1120 L105.8594,1100 L106.25,1120 L106.6406,1120 L107.0313,1140 L107.4219,1140 L107.8125,1180 L108.2031,1100 L108.5938,1120 L108.9844,1140 L109.375,1120 L109.7656,1120 L110.1563,1120 L110.5469,1140 L110.9375,1140 L111.3281,1120 L111.7188,1120 L112.1094,1120 L112.5,1120 L112.8906,1100 L113.2813,1100 L113.6719,1140 L114.0625,1140 L114.4531,1100 L114.8438,1120 L115.2344,1100 L115.625,1140 L116.0156,1120 L116.4063,1140 L116.7969,1140 L117.1875,1140 L117.5781,1120 L117.9688,1120 L118.3594,1100 L118.75,1120 L119.1406,1100 L119.5313,1120 L119.9219,1140 L120.3125,1120 L120.7031,1140 L121.0938,1180 L121.4844,1160 L121.875,1140 L122.2656,1100 L122.6563,1140 L123.0469,1160 L123.4375,1120 L123.8281,1160 L124.2188,1120 L124.6094,1100 L125,1120 L125.3906,1120 L125.7813,1100 L126.1719,1120 L126.5625,1120 L126.9531,1140 L127.3438,1140 L127.7344,1140 L128.125,1140 L128.5156,1120 L128.9063,1140 L129.2969,1140 L129.6875,1040 L130.0781,1120 L130.4688,1140 L130.8594,1120 L131.25,1120 L131.6406,1100 L132.0313,1140 L132.4219,1120 L132.8125,1120 L133.2031,1140 L133.5938,1100 L133.9844,1140 L134.375,1140 L134.7656,1160 L135.1563,1140 L135.5469,1140 L135.9375,1160 L136.3281,1120 L136.7188,1140 L137.1094,1120 L137.5,1120 L137.8906,1120 L138.2813,1160 L138.6719,1100 L139.0625,1140 L139.4531,1120 L139.8438,1100 L140.2344,1120 L140.625,1100 L141.0156,1140 L141.4063,1140 L141.7969,1140 L142.1875,1140 L142.5781,1120 L142.9688,1160 L143.3594,1140 L143.75,1140 L144.1406,1080 L144.5313,1140 L144.9219,1120 L145.3125,1100 L145.7031,1120 L146.0938,1120 L146.4844,1100 L146.875,1140 L147.2656,1120 L147.6563,1120 L148.0469,1120 L148.4375,1140 L148.8281,1140 L149.2188,1120 L149.6094,1160 L150,1120 L150.3906,1140 L150.7813,1120 L151.1719,1100 L151.5625,1120 L151.9531,1100 L152.3438,1140 L152.7344,1220 L153.125,1100 L153.5156,1160 L153.9063,1100 L154.2969,1140 L154.6875,1100 L155.0781,1160 L155.4688,1100 L155.8594,1120 L156.25,1160 L156.6406,1060 L157.0313,1120 L157.4219,1120 L157.8125,1120 L158.2031,1020 L158.5938,1100 L158.9844,1140 L159.375,1120 L159.7656,1140 L160.1563,1140 L160.5469,1140 L160.9375,1120 L161.3281,1140 L161.7188,1140 L162.1094,1140 L162.5,1140 L162.8906,1160 L163.2813,1140 L163.6719,1120 L164.0625,1120 L164.4531,1140 L164.8438,1120 L165.2344,1160 L165.625,1140 L166.0156,1100 L166.4063,1160 L166.7969,1160 L167.1875,1120 L167.5781,1100 L167.9688,1160 L168.3594,1140 L168.75,1120 L169.1406,1120 L169.5313,1120 L169.9219,1200 L170.3125,1120 L170.7031,1120 L171.0938,1120 L171.4844,1200 L171.875,1120 L172.2656,1120 L172.6563,1140 L173.0469,1160 L173.4375,1120 L173.8281,1120 L174.2188,1120 L174.6094,1120 L175,1160 L175.3906,1120 L175.7813,1120 L176.1719,1160 L176.5625,1140 L176.9531,1120 L177.3438,1060 L177.7344,1140 L178.125,1100 L178.5156,1120 L178.9063,1120 L179.2969,1120 L179.6875,1140 L180.0781,1140 L180.4688,1100 L180.8594,1140 L181.25,1100 L181.6406,1180 L182.0313,1120 L182.4219,1120 L182.8125,1100 L183.2031,1120 L183.5938,1120 L183.9844,1100 L184.375,1100 L184.7656,1180 L185.1563,1100 L185.5469,1140 L185.9375,1120 L186.3281,1120 L186.7188,1140 L187.1094,1120 L187.5,1140 L187.8906,1120 L188.2813,1120 L188.6719,1140 L189.0625,1120 L189.4531,1140 L189.8438,1120 L190.2344,1120 L190.625,1140 L191.0156,1100 L191.4063,1160 L191.7969,1120 L192.1875,1180 L192.5781,1140 L192.9688,1140 L193.3594,1140 L193.75,1120 L194.1406,1100 L194.5313,1140 L194.9219,1140 L195.3125,1120 L195.7031,1120 L196.0938,1160 L196.4844,1100 L196.875,1140 L197.2656,1140 L197.6563,1120 L198.0469,1120 L198.4375,1120 L198.8281,1120 L199.2188,1120 L199.6094,1120 L200,1120 L200.3906,1120 L200.7813,1120 L201.1719,1120 L201.5625,1140 L201.9531,1140 L202.3438,1140 L202.7344,1120 L203.125,1160 L203.5156,1120 L203.9063,1120 L204.2969,1140 L204.6875,1120 L205.0781,1120 L205.4688,1080 L205.8594,1100 L206.25,1080 L206.6406,1120 L207.0313,1100 L207.4219,1140 L207.8125,1160 L208.2031,1140 L208.5938,1140 L208.9844,1100 L209.375,1120 L209.7656,1140 L210.1563,1120 L210.5469,1160 L210.9375,1160 L211.3281,1180 L211.7188,1140 L212.1094,1120 L212.5,1120 L212.8906,1140 L213.2813,1120 L213.6719,1200 L214.0625,1140 L214.4531,1100 L214.8438,1140 L215.2344,1140 L215.625,1120 L216.0156,1160 L216.4063,1140 L216.7969,1120 L217.1875,1160 L217.5781,1120 L217.9688,1100 L218.3594,1100 L218.75,1120 L219.1406,1100 L219.5313,1120 L219.9219,1120 L220.3125,1120 L220.7031,1120 L221.0938,1140 L221.4844,1140 L221.875,1140 L222.2656,1120 L222.6563,1120 L223.0469,1120 L223.4375,1100 L223.8281,1140 L224.2188,1100 L224.6094,1120 L225,1100 L225.3906,1100 L225.7813,1080 L226.1719,1120 L226.5625,1120 L226.9531,1080 L227.3438,1120 L227.7344,1100 L228.125,1120 L228.5156,1120 L228.9063,1140 L229.2969,1140 L229.6875,1120 L230.0781,1140 L230.4688,1120 L230.8594,1100 L231.25,1080 L231.6406,1080 L232.0313,1140 L232.4219,1120 L232.8125,1140 L233.2031,1140 L233.5938,1120 L233.9844,1120 L234.375,1140 L234.7656,1140 L235.1563,1120 L235.5469,1140 L235.9375,1120 L236.3281,1180 L236.7188,1120 L237.1094,1100 L237.5,1120 L237.8906,1160 L238.2813,1120 L238.6719,1100 L239.0625,1120 L239.4531,1120 L239.8438,1120 L240.2344,1140 L240.625,1140 L241.0156,1120 L241.4063,1120 L241.7969,1120 L242.1875,1100 L242.5781,1100 L242.9688,1140 L243.3594,1120 L243.75,1120 L244.1406,1120 L244.5313,1140 L244.9219,1140 L245.3125,1120 L245.7031,1140 L246.0938,1120 L246.4844,1140 L246.875,1120 L247.2656,1140 L247.6563,1140 L248.0469,1120 L248.4375,1120 L248.8281,1120 L249.2188,1120 L249.6094,1120 L250,1140 L250.3906,1100 L250.7813,1140 L251.1719,1120 L251.5625,1140 L251.9531,1100 L252.3438,1120 L252.7344,1160 L253.125,1120 L253.5156,1120 L253.9063,1140 L254.2969,1100 L254.6875,1140 L255.0781,1140 L255.4688,1100 L255.8594,1140 L256.25,1140 L256.6406,1120 L257.0313,1120 L257.4219,1140 L257.8125,1120 L258.2031,1120 L258.5938,1140 L258.9844,1120 L259.375,1140 L259.7656,1100 L260.1563,1160 L260.5469,1140 L260.9375,1140 L261.3281,1100 L261.7188,1140 L262.1094,1120 L262.5,1120 L262.8906,1120 L263.2813,1120 L263.6719,1140 L264.0625,1140 L264.4531,1120 L264.8438,1120 L265.2344,1120 L265.625,1140 L266.0156,1120 L266.4063,1140 L266.7969,1140 L267.1875,1120 L267.5781,1100 L267.9688,1140 L268.3594,1120 L268.75,1120 L269.1406,1160 L269.5313,1100 L269.9219,1120 L270.3125,1120 L270.7031,1180 L271.0938,1120 L271.4844,1140 L271.875,1140 L272.2656,1120 L272.6563,1140 L273.0469,1120 L273.4375,1120 L273.8281,1100 L274.2188,1120 L274.6094,1120 L275,1120 L275.3906,1120 L275.7813,1140 L276.1719,1100 L276.5625,1120 L276.9531,1120 L277.3438,1100 L277.7344,1120 L278.125,1120 L278.5156,1120 L278.9063,1140 L279.2969,1120 L279.6875,1120 L280.0781,1140 L280.4688,1120 L280.8594,1140 L281.25,1100 L281.6406,1060 L282.0313,1100 L282.4219,1140 L282.8125,1120 L283.2031,1140 L283.5938,1120 L283.9844,1160 L284.375,1100 L284.7656,1160 L285.1563,1120 L285.5469,1100 L285.9375,1120 L286.3281,1160 L286.7188,1120 L287.1094,1100 L287.5,1200 L287.8906,1140 L288.2813,1120 L288.6719,1140 L289.0625,1120 L289.4531,1120 L289.8438,1140 L290.2344,1140 L290.625,1120 L291.0156,1120 L291.4063,1120 L291.7969,1140 L292.1875,1120 L292.5781,1140 L292.9688,1100 L293.3594,1100 L293.75,1080 L294.1406,1180 L294.5313,1160 L294.9219,1120 L295.3125,1140 L295.7031,1120 L296.0938,1140 L296.4844,1160 L296.875,1140 L297.2656,1140 L297.6563,1120 L298.0469,1140 L298.4375,1160 L298.8281,1140 L299.2188,1120 L299.6094,1120 L300,1140 L300.3906,1140 L300.7813,1100 L301.1719,1120 L301.5625,1140 L301.9531,1140 L302.3438,1100 L302.7344,1120 L303.125,1140 L303.5156,1140 L303.9063,1100 L304.2969,1100 L304.6875,1120 L305.0781,1120 L305.4688,1120 L305.8594,1140 L306.25,1100 L306.6407,1100 L307.0313,1120 L307.4219,1120 L307.8125,1100 L308.2031,1100 L308.5938,1120 L308.9844,1120 L309.375,1100 L309.7656,1140 L310.1563,1140 L310.5469,1120 L310.9375,1120 L311.3281,1160 L311.7188,1160 L312.1094,1120 L312.5,1100 L312.8906,1140 L313.2813,1120 L313.6719,1140 L314.0625,1140 L314.4532,1140 L314.8438,1160 L315.2344,1140 L315.625,1120 L316.0156,1120 L316.4063,1140 L316.7969,1120 L317.1875,1140 L317.5781,1140 L317.9688,1200 L318.3594,1140 L318.75,1140 L319.1406,1140 L319.5313,1120 L319.9219,1140 L320.3125,1120 L320.7031,1120 L321.0938,1120 L321.4844,1120 L321.875,1140 L322.2657,1120 L322.6563,1140 L323.0469,1120 L323.4375,1120 L323.8281,1120 L324.2188,1120 L324.6094,1120 L325,1120 L325.3906,1160 L325.7813,1140 L326.1719,1120 L326.5625,1120 L326.9531,1140 L327.3438,1120 L327.7344,1140 L328.125,1140 L328.5156,1120 L328.9063,1120 L329.2969,1100 L329.6875,1120 L330.0782,1140 L330.4688,1120 L330.8594,1100 L331.25,1100 L331.6406,1120 L332.0313,1180 L332.4219,1120 L332.8125,1140 L333.2031,1140 L333.5938,1120 L333.9844,1120 L334.375,1140 L334.7656,1100 L335.1563,1120 L335.5469,1120 L335.9375,1100 L336.3281,1140 L336.7188,1140 L337.1094,1120 L337.5,1120 L337.8907,1100 L338.2813,1160 L338.6719,1120 L339.0625,1140 L339.4531,1100 L339.8438,1140 L340.2344,1140 L340.625,1120 L341.0156,1120 L341.4063,1120 L341.7969,1120 L342.1875,1140 L342.5781,1080 L342.9688,1160 L343.3594,1180 L343.75,1140 L344.1406,1140 L344.5313,1140 L344.9219,1140 L345.3125,1140 L345.7032,1120 L346.0938,1140 L346.4844,1140 L346.875,1160 L347.2656,1120 L347.6563,1140 L348.0469,1100 L348.4375,1100 L348.8281,1100 L349.2188,1140 L349.6094,1140 L350,1160 L350.3906,1160 L350.7813,1140 L351.1719,1140 L351.5625,1120 L351.9531,1140 L352.3438,1080 L352.7344,1120 L353.125,1120 L353.5157,1120 L353.9063,1180 L354.2969,1120 L354.6875,1120 L355.0781,1140 L355.4688,1140 L355.8594,1100 L356.25,1120 L356.6406,1120 L357.0313,1120 L357.4219,1140 L357.8125,1120 L358.2031,1120 L358.5938,1100 L358.9844,1140 L359.375,1120 L359.7656,1100 L360.1563,1140 L360.5469,1120 L360.9375,1140 L361.3282,1140 L361.7188,1140 L362.1094,1120 L362.5,1120 L362.8906,1120 L363.2813,1080 L363.6719,1120 L364.0625,1140 L364.4531,1120 L364.8438,1160 L365.2344,1140 L365.625,1120 L366.0156,1120 L366.4063,1140 L366.7969,1140 L367.1875,1140 L367.5781,1120 L367.9688,1100 L368.3594,1100 L368.75,1140 L369.1407,1140 L369.5313,1160 L369.9219,1100 L370.3125,1120 L370.7031,1120 L371.0938,1140 L371.4844,1120 L371.875,1120 L372.2656,1120 L372.6563,1160 L373.0469,1100 L373.4375,1120 L373.8281,1120 L374.2188,1100 L374.6094,1120 L375,1120 L375.3906,1120 L375.7813,1120 L376.1719,1120 L376.5625,1160 L376.9532,1140 L377.3438,1100 L377.7344,1140 L378.125,1140 L378.5156,1120 L378.9063,1100 L379.2969,1120 L379.6875,1080 L380.0781,1140 L380.4688,1180 L380.8594,1120 L381.25,1140 L381.6406,1120 L382.0313,1120 L382.4219,1100 L382.8125,1120 L383.2031,1140 L383.5938,1120 L383.9844,1120 L384.375,1120 L384.7657,1120 L385.1563,1120 L385.5469,1120 L385.9375,1120 L386.3281,1100 L386.7188,1100 L387.1094,1140 L387.5,1120 L387.8906,1140 L388.2813,1140 L388.6719,1120 L389.0625,1140 L389.4531,1140 L389.8438,1120 L390.2344,1160 L390.625,1160 L391.0156,1120 L391.4063,1140 L391.7969,1120 L392.1875,1120 L392.5782,1160 L392.9688,1140 L393.3594,1140 L393.75,1140 L394.1406,1140 L394.5313,1140 L394.9219,1120 L395.3125,1160 L395.7031,1160 L396.0938,1100 L396.4844,1140 L396.875,1120 " stroke="blue" fill="none" />
<text x="50" y="1270" font-family="Arial" font-size="12" fill="black">Policy Loss</text>
<text x="50" y="1285" font-family="Arial" font-size="10" fill="black">0.7727326</text>
<text x="50" y="1500" font-family="Arial" font-size="10" fill="black">0.7727326</text>
<path d="M50,1490 " stroke="blue" fill="none" />
<text x="50" y="1540" font-family="Arial" font-size="12" fill="black">Value Loss</text>
<text x="50" y="1555" font-family="Arial" font-size="10" fill="black">0.0007817533</text>
<text x="50" y="1770" font-family="Arial" font-size="10" fill="black">0.0007817533</text>
<path d="M50,1760 " stroke="blue" fill="none" />
<text x="50" y="1810" font-family="Arial" font-size="12" fill="black">Learning Rate</text>
<text x="50" y="1825" font-family="Arial" font-size="10" fill="black">0.0003</text>
<text x="50" y="2040" font-family="Arial" font-size="10" fill="black">0.0003</text>
<path d="M50,2030 " stroke="blue" fill="none" />
<text x="50" y="2080" font-family="Arial" font-size="12" fill="black">Entropy</text>
<text x="50" y="2095" font-family="Arial" font-size="10" fill="black">2.039997</text>
<text x="50" y="2310" font-family="Arial" font-size="10" fill="black">2.039997</text>
<path d="M50,2300 " stroke="blue" fill="none" />
<text x="750" y="730" font-family="Arial" font-size="12" fill="black">Simplified</text>
<text x="750" y="745" font-family="Arial" font-size="10" fill="black">0.04031579</text>
<text x="750" y="960" font-family="Arial" font-size="10" fill="black">0.03478947</text>
<path d="M757.0313,883.3337 L764.4531,902.381 L771.875,854.762 L779.2969,940.4763 L786.7188,930.9525 L794.1406,854.7621 L801.5625,883.3337 L808.9844,921.4286 L816.4063,816.6672 L823.8281,911.9048 L831.25,807.1431 L838.6719,892.8574 L846.0938,845.2383 L853.5156,892.8572 L860.9375,769.0482 L868.3594,950 L875.7813,921.4287 L883.2031,826.1907 L890.625,854.7623 L898.0469,902.381 L905.4688,835.7145 L912.8906,892.8574 L920.3125,873.8099 L927.7344,750.0004 L935.1563,826.1909 L942.5781,835.7145 L950,873.8099 L957.4219,854.7623 L964.8438,864.2861 L972.2656,883.3337 L979.6875,797.6196 L987.1094,816.6671 L994.5313,902.3809 L1001.953,921.4287 L1009.375,750.0004 L1016.797,921.4287 L1024.219,911.905 L1031.641,835.7145 L1039.063,873.8099 L1046.484,911.905 L1053.906,892.8574 L1061.328,835.7145 L1068.75,845.2382 L1076.172,826.1909 L1083.594,854.7623 L1091.016,864.2861 L1096.875,942.3807 " stroke="blue" fill="none" />
<text x="750" y="1000" font-family="Arial" font-size="12" fill="black">Simplified</text>
<text x="750" y="1015" font-family="Arial" font-size="10" fill="black">8.263158</text>
<text x="750" y="1230" font-family="Arial" font-size="10" fill="black">7.157895</text>
<path d="M757.0313,1162.857 L764.4531,1172.381 L771.875,1124.762 L779.2969,1210.476 L786.7188,1200.952 L794.1406,1124.762 L801.5625,1153.333 L808.9844,1191.428 L816.4063,1086.667 L823.8281,1181.905 L831.25,1077.143 L838.6719,1162.857 L846.0938,1115.238 L853.5156,1162.857 L860.9375,1039.048 L868.3594,1220 L875.7813,1191.428 L883.2031,1096.19 L890.625,1124.762 L898.0469,1172.381 L905.4688,1105.714 L912.8906,1162.857 L920.3125,1143.809 L927.7344,1020 L935.1563,1096.19 L942.5781,1105.714 L950,1143.809 L957.4219,1124.762 L964.8438,1134.286 L972.2656,1153.333 L979.6875,1067.619 L987.1094,1086.667 L994.5313,1172.381 L1001.953,1191.428 L1009.375,1020 L1016.797,1191.428 L1024.219,1181.905 L1031.641,1105.714 L1039.063,1143.809 L1046.484,1181.905 L1053.906,1162.857 L1061.328,1105.714 L1068.75,1115.238 L1076.172,1096.19 L1083.594,1124.762 L1091.016,1134.286 L1096.875,1212.381 " stroke="blue" fill="none" />
</svg>
