<svg width="2000" height="2500" xmlns="http://www.w3.org/2000/svg">
<text x="10" y="20" font-family="Arial" font-size="26" fill="black"> [Walker] Training Session</text>
<text x="10" y="50" font-family="Arial" font-size="16" fill="black">[Statistics]</text>
<text x="50" y="70" font-family="Arial" font-size="12" fill="black">Started at: 12:16:37 AM, Friday, March 1, 2024</text>
<text x="50" y="90" font-family="Arial" font-size="12" fill="black">Finished at: 12:18:57 AM, Friday, March 1, 2024</text>
<text x="50" y="110" font-family="Arial" font-size="12" fill="black">Training Session Time: 0 hrs : 2 min : 18 sec</text>
<text x="50" y="130" font-family="Arial" font-size="12" fill="black">Inference Time: 0 hrs : 35 min : 2 sec        [Device: CPU]</text>
<text x="50" y="150" font-family="Arial" font-size="12" fill="black">Update Time: 0 hrs : 1 min : 12 sec        [Per iteration: 0 hrs : 0 min : 17.907 sec]        [Device: GPU]</text>
<text x="50" y="170" font-family="Arial" font-size="12" fill="black">Episode Count: 1068</text>
<text x="50" y="190" font-family="Arial" font-size="12" fill="black">Inference Steps: 40960</text>
<text x="50" y="210" font-family="Arial" font-size="12" fill="black">Iterations: 4</text>
<text x="50" y="230" font-family="Arial" font-size="12" fill="black">Parallel Agents: 32</text>
<text x="50" y="250" font-family="Arial" font-size="12" fill="black">Timescale: 1</text>
<text x="50" y="270" font-family="Arial" font-size="12" fill="black">Trainer: PPO</text>
<text x="10" y="320" font-family="Arial" font-size="16" fill="black">[Hyperparameters]</text>
<text x="50" y="340" font-family="Arial" font-size="12" fill="black">Buffer Size: 10240        [Batch Size: 512       (x20)]</text>
<text x="50" y="360" font-family="Arial" font-size="12" fill="black">Num Epoch: 8</text>
<text x="50" y="380" font-family="Arial" font-size="12" fill="black">Time Horizon: 256</text>
<text x="50" y="400" font-family="Arial" font-size="12" fill="black">Gradient Cliping by Norm: 0.5</text>
<text x="50" y="420" font-family="Arial" font-size="12" fill="black">Learning Rate Schedule: False    </text>
<text x="10" y="470" font-family="Arial" font-size="16" fill="black">[Behaviour]</text>
<text x="50" y="490" font-family="Arial" font-size="12" fill="black">Space Size: 120</text>
<text x="50" y="510" font-family="Arial" font-size="12" fill="black">Continuous Actions: 36 [Standard Deviation: Fixed]     [Value: 0.3]</text>
<text x="50" y="530" font-family="Arial" font-size="12" fill="black">Discrete Actions: 0</text>
<text x="50" y="550" font-family="Arial" font-size="12" fill="black">TargetFPS: 100 (physics update rate)</text>
<text x="50" y="570" font-family="Arial" font-size="12" fill="black">Observations Normalization: True</text>
<text x="10" y="620" font-family="Arial" font-size="16" fill="black">[Decision Requester]</text>
<text x="50" y="640" font-family="Arial" font-size="12" fill="black">Max Step: 10000</text>
<text x="50" y="660" font-family="Arial" font-size="12" fill="black">Decision Period: 5      [Actions Between Decisions: True]</text>
<text x="10" y="710" font-family="Arial" font-size="16" fill="black">[Graphs]</text>
<text x="50" y="730" font-family="Arial" font-size="12" fill="black">Episode Reward (1068)</text>
<text x="50" y="745" font-family="Arial" font-size="10" fill="black">0.9689999</text>
<text x="50" y="960" font-family="Arial" font-size="10" fill="black">0.254</text>
<path d="M50,870.2797 L50.39063,849.3007 L50.78125,867.4825 L51.17188,843.7063 L51.5625,842.3077 L51.95313,821.3287 L52.34375,839.5105 L52.73438,817.1329 L53.125,817.1329 L53.51563,817.1329 L53.90625,817.1329 L54.29688,838.1119 L54.6875,794.7552 L55.07813,815.7343 L55.46875,815.7343 L55.85938,815.7343 L56.25,794.7552 L56.64063,815.7343 L57.03125,815.7343 L57.42188,814.3356 L57.8125,812.9371 L58.20313,812.9371 L58.59375,812.9371 L58.98438,811.5385 L59.375,790.5594 L59.76563,790.5594 L60.15625,811.5385 L60.54688,810.1399 L60.9375,787.7623 L61.32813,786.3636 L61.71875,761.1888 L62.10938,776.5734 L62.5,924.8252 L62.89063,870.2797 L63.28125,871.6783 L63.67188,926.2238 L64.0625,867.4825 L64.45313,873.0769 L64.84375,867.4825 L65.23438,875.8741 L65.625,874.4755 L66.01563,873.0769 L66.40625,892.6573 L66.79688,843.7063 L67.1875,838.1119 L67.57813,845.1049 L67.96875,814.3357 L68.35938,840.9091 L68.75,815.7343 L69.14063,817.1329 L69.53125,814.3357 L69.92188,793.3566 L70.3125,818.5315 L70.70313,817.1329 L71.09375,793.3566 L71.48438,833.9161 L71.875,790.5594 L72.26563,790.5594 L72.65625,790.5594 L73.04688,790.5594 L73.4375,812.9371 L73.82813,789.1608 L74.21875,840.9091 L74.60938,892.6573 L75,849.3007 L75.39063,874.4755 L75.78125,779.3707 L76.17188,870.2797 L76.5625,870.2797 L76.95313,791.9581 L77.34375,815.7343 L77.73438,789.1608 L78.125,815.7343 L78.51563,870.2797 L78.90625,846.5035 L79.29688,892.6573 L79.6875,817.1329 L80.07813,892.6573 L80.46875,815.7343 L80.85938,790.5594 L81.25,873.0769 L81.64063,814.3356 L82.03125,817.1329 L82.42188,811.5385 L82.8125,815.7343 L83.20313,817.1329 L83.59375,815.7343 L83.98438,814.3357 L84.375,812.9371 L84.76563,787.7623 L85.15625,843.7063 L85.54688,790.5594 L85.9375,783.5665 L86.32813,814.3357 L86.71875,867.4825 L87.10938,815.7343 L87.5,894.056 L87.89063,870.2797 L88.28125,815.7343 L88.67188,843.7063 L89.0625,866.0839 L89.45313,791.9581 L89.84375,818.5315 L90.23438,843.7063 L90.625,845.1049 L91.01563,867.4825 L91.40625,891.2587 L91.79688,863.2867 L92.1875,842.3077 L92.57813,843.7063 L92.96875,790.5594 L93.35938,870.2797 L93.75,815.7343 L94.14063,818.5314 L94.53125,814.3357 L94.92188,871.6783 L95.3125,793.3566 L95.70313,786.3636 L96.09375,873.0769 L96.48438,873.0769 L96.875,814.3357 L97.26563,845.1049 L97.65625,867.4825 L98.04688,787.7623 L98.4375,814.3357 L98.82813,817.1329 L99.21875,814.3357 L99.60938,791.9581 L100,779.3707 L100.3906,866.0839 L100.7813,812.9371 L101.1719,870.2797 L101.5625,812.9371 L101.9531,838.1119 L102.3438,810.1399 L102.7344,817.1329 L103.125,898.2518 L103.5156,924.8252 L103.9063,845.1049 L104.2969,867.4825 L104.6875,787.7622 L105.0781,898.2518 L105.4688,789.1608 L105.8594,870.2797 L106.25,814.3357 L106.6406,808.7413 L107.0313,871.6783 L107.4219,840.9091 L107.8125,845.1049 L108.2031,868.8811 L108.5938,814.3356 L108.9844,871.6783 L109.375,874.4755 L109.7656,790.5594 L110.1563,759.7902 L110.5469,843.7063 L110.9375,790.5594 L111.3281,815.7343 L111.7188,842.3077 L112.1094,836.7133 L112.5,790.5594 L112.8906,793.3566 L113.2813,870.2797 L113.6719,755.5944 L114.0625,871.6783 L114.4531,808.7413 L114.8438,846.5035 L115.2344,843.7063 L115.625,868.8811 L116.0156,873.0769 L116.4063,817.1329 L116.7969,840.9091 L117.1875,843.7063 L117.5781,868.8811 L117.9688,819.9301 L118.3594,815.7343 L118.75,815.7343 L119.1406,817.1329 L119.5313,811.5385 L119.9219,839.5105 L120.3125,786.3636 L120.7031,815.7343 L121.0938,790.5594 L121.4844,846.5035 L121.875,894.056 L122.2656,842.3077 L122.6563,845.1049 L123.0469,814.3357 L123.4375,786.3636 L123.8281,873.0769 L124.2188,811.5385 L124.6094,812.9371 L125,845.1049 L125.3906,923.4266 L125.7813,793.3566 L126.1719,867.4825 L126.5625,849.3007 L126.9531,846.5035 L127.3438,892.6573 L127.7344,794.7552 L128.125,777.972 L128.5156,818.5315 L128.9063,889.8602 L129.2969,926.2238 L129.6875,840.9091 L130.0781,815.7343 L130.4688,898.2518 L130.8594,815.7343 L131.25,870.2797 L131.6406,840.9091 L132.0313,817.1329 L132.4219,868.8811 L132.8125,871.6783 L133.2031,814.3357 L133.5938,843.7063 L133.9844,793.3566 L134.375,814.3357 L134.7656,867.4825 L135.1563,812.9371 L135.5469,787.7623 L135.9375,784.965 L136.3281,791.9581 L136.7188,817.1329 L137.1094,790.5594 L137.5,814.3357 L137.8906,870.2797 L138.2813,812.9371 L138.6719,791.9581 L139.0625,812.9371 L139.4531,787.7623 L139.8438,867.4825 L140.2344,838.1119 L140.625,870.2797 L141.0156,866.0839 L141.4063,867.4825 L141.7969,845.1049 L142.1875,787.7623 L142.5781,889.8602 L142.9688,866.0839 L143.3594,815.7343 L143.75,811.5385 L144.1406,791.9581 L144.5313,817.1329 L144.9219,811.5385 L145.3125,842.3077 L145.7031,868.8811 L146.0938,867.4825 L146.4844,810.1399 L146.875,812.9371 L147.2656,868.8811 L147.6563,814.3357 L148.0469,840.9091 L148.4375,814.3357 L148.8281,815.7343 L149.2188,804.5455 L149.6094,812.9371 L150,786.3636 L150.3906,818.5315 L150.7813,814.3357 L151.1719,898.2518 L151.5625,868.8811 L151.9531,814.3357 L152.3438,819.9301 L152.7344,817.1329 L153.125,815.7343 L153.5156,919.2308 L153.9063,889.8602 L154.2969,812.9371 L154.6875,845.1049 L155.0781,846.5035 L155.4688,870.2797 L155.8594,867.4825 L156.25,814.3357 L156.6406,810.1399 L157.0313,864.6853 L157.4219,815.7343 L157.8125,846.5035 L158.2031,846.5035 L158.5938,871.6783 L158.9844,815.7343 L159.375,868.8811 L159.7656,922.028 L160.1563,811.5385 L160.5469,812.9371 L160.9375,794.7552 L161.3281,846.5035 L161.7188,847.9021 L162.1094,787.7623 L162.5,923.4266 L162.8906,845.1049 L163.2813,817.1329 L163.6719,815.7343 L164.0625,811.5385 L164.4531,815.7343 L164.8438,821.3287 L165.2344,814.3357 L165.625,871.6783 L166.0156,810.1399 L166.4063,871.6783 L166.7969,810.1399 L167.1875,791.958 L167.5781,873.0769 L167.9688,874.4755 L168.3594,871.6783 L168.75,870.2797 L169.1406,840.9091 L169.5313,860.4895 L169.9219,814.3357 L170.3125,817.1329 L170.7031,758.3916 L171.0938,817.1329 L171.4844,843.7063 L171.875,817.1329 L172.2656,846.5035 L172.6563,789.1608 L173.0469,772.3776 L173.4375,818.5315 L173.8281,924.8252 L174.2188,847.9021 L174.6094,877.2727 L175,832.5175 L175.3906,818.5315 L175.7813,810.1399 L176.1719,843.7063 L176.5625,868.8811 L176.9531,889.8602 L177.3438,812.9371 L177.7344,814.3356 L178.125,819.9301 L178.5156,840.9091 L178.9063,846.5035 L179.2969,870.2797 L179.6875,846.5035 L180.0781,871.6783 L180.4688,815.7343 L180.8594,870.2797 L181.25,791.9581 L181.6406,867.4825 L182.0313,875.8741 L182.4219,791.958 L182.8125,791.9581 L183.2031,895.4545 L183.5938,814.3357 L183.9844,790.5594 L184.375,871.6783 L184.7656,789.1608 L185.1563,868.8811 L185.5469,819.9301 L185.9375,870.2797 L186.3281,817.1329 L186.7188,814.3357 L187.1094,846.5035 L187.5,868.8811 L187.8906,870.2797 L188.2813,870.2797 L188.6719,919.2308 L189.0625,847.9021 L189.4531,811.5385 L189.8438,789.1608 L190.2344,843.7063 L190.625,843.7063 L191.0156,814.3357 L191.4063,926.2238 L191.7969,840.9091 L192.1875,812.9371 L192.5781,831.1189 L192.9688,870.2797 L193.3594,839.5105 L193.75,896.8531 L194.1406,782.1678 L194.5313,866.0839 L194.9219,817.1329 L195.3125,849.3007 L195.7031,845.1049 L196.0938,842.3077 L196.4844,927.6224 L196.875,849.3007 L197.2656,831.1189 L197.6563,814.3357 L198.0469,871.6783 L198.4375,789.1608 L198.8281,836.7133 L199.2188,814.3357 L199.6094,868.8811 L200,790.5594 L200.3906,790.5594 L200.7813,873.0769 L201.1719,867.4825 L201.5625,818.5314 L201.9531,811.5385 L202.3438,814.3357 L202.7344,839.5105 L203.125,924.8252 L203.5156,838.1119 L203.9063,870.2797 L204.2969,868.8811 L204.6875,867.4825 L205.0781,808.7413 L205.4688,868.8811 L205.8594,777.972 L206.25,818.5315 L206.6406,846.5035 L207.0313,870.2797 L207.4219,870.2797 L207.8125,789.1608 L208.2031,846.5035 L208.5938,849.3007 L208.9844,810.1399 L209.375,814.3356 L209.7656,790.5594 L210.1563,868.8811 L210.5469,870.2797 L210.9375,812.9371 L211.3281,868.8811 L211.7188,782.1678 L212.1094,873.0769 L212.5,845.1049 L212.8906,870.2797 L213.2813,812.9371 L213.6719,811.5385 L214.0625,870.2797 L214.4531,870.2797 L214.8438,870.2797 L215.2344,807.3427 L215.625,846.5035 L216.0156,846.5035 L216.4063,867.4825 L216.7969,790.5594 L217.1875,779.3707 L217.5781,868.8811 L217.9688,812.9371 L218.3594,839.5105 L218.75,840.9091 L219.1406,867.4825 L219.5313,863.2867 L219.9219,812.9371 L220.3125,868.8811 L220.7031,786.3636 L221.0938,812.9371 L221.4844,819.9301 L221.875,787.7622 L222.2656,814.3357 L222.6563,780.7692 L223.0469,791.9581 L223.4375,815.7343 L223.8281,811.5385 L224.2188,842.3077 L224.6094,779.3707 L225,843.7063 L225.3906,867.4825 L225.7813,870.2797 L226.1719,815.7343 L226.5625,822.7273 L226.9531,814.3357 L227.3438,817.1329 L227.7344,870.2797 L228.125,868.8811 L228.5156,892.6573 L228.9063,873.0769 L229.2969,810.1399 L229.6875,812.9371 L230.0781,811.5385 L230.4688,790.5594 L230.8594,868.8811 L231.25,888.4615 L231.6406,846.5035 L232.0313,791.9581 L232.4219,817.1329 L232.8125,818.5315 L233.2031,812.9371 L233.5938,846.5035 L233.9844,840.9091 L234.375,874.4755 L234.7656,814.3357 L235.1563,868.8811 L235.5469,871.6783 L235.9375,871.6783 L236.3281,859.0909 L236.7188,790.5594 L237.1094,871.6783 L237.5,789.1608 L237.8906,818.5315 L238.2813,868.8811 L238.6719,818.5314 L239.0625,790.5594 L239.4531,849.3007 L239.8438,847.9021 L240.2344,814.3357 L240.625,789.1608 L241.0156,821.3287 L241.4063,817.1329 L241.7969,779.3707 L242.1875,761.1888 L242.5781,791.9581 L242.9688,870.2797 L243.3594,814.3357 L243.75,868.8811 L244.1406,790.5594 L244.5313,815.7343 L244.9219,870.2797 L245.3125,874.4755 L245.7031,896.8531 L246.0938,817.1329 L246.4844,868.8811 L246.875,812.9371 L247.2656,793.3566 L247.6563,787.7622 L248.0469,819.9301 L248.4375,842.3077 L248.8281,817.1329 L249.2188,793.3566 L249.6094,812.9371 L250,783.5664 L250.3906,810.1399 L250.7813,871.6783 L251.1719,810.1399 L251.5625,817.1329 L251.9531,754.1958 L252.3438,779.3707 L252.7344,808.7413 L253.125,926.2238 L253.5156,817.1329 L253.9063,833.9161 L254.2969,818.5314 L254.6875,870.2797 L255.0781,896.8531 L255.4688,801.7483 L255.8594,873.0769 L256.25,789.1608 L256.6406,870.2797 L257.0313,868.8811 L257.4219,818.5315 L257.8125,849.3007 L258.2031,873.0769 L258.5938,845.1049 L258.9844,833.9161 L259.375,870.2797 L259.7656,790.5594 L260.1563,870.2797 L260.5469,787.7623 L260.9375,868.8811 L261.3281,868.8811 L261.7188,873.0769 L262.1094,817.1329 L262.5,863.2867 L262.8906,811.5385 L263.2813,842.3077 L263.6719,763.986 L264.0625,871.6783 L264.4531,791.9581 L264.8438,791.9581 L265.2344,843.7063 L265.625,870.2797 L266.0156,812.9371 L266.4063,791.9581 L266.7969,868.8811 L267.1875,782.1678 L267.5781,867.4825 L267.9688,789.1608 L268.3594,793.3566 L268.75,867.4825 L269.1406,789.1608 L269.5313,783.5664 L269.9219,868.8811 L270.3125,839.5105 L270.7031,791.9581 L271.0938,790.5594 L271.4844,863.2867 L271.875,853.4965 L272.2656,793.3566 L272.6563,889.8602 L273.0469,812.9371 L273.4375,817.1329 L273.8281,815.7343 L274.2188,847.9021 L274.6094,815.7343 L275,874.4755 L275.3906,793.3566 L275.7813,831.1189 L276.1719,811.5385 L276.5625,786.3636 L276.9531,896.8531 L277.3438,845.1049 L277.7344,786.3636 L278.125,871.6783 L278.5156,868.8811 L278.9063,866.0839 L279.2969,811.5385 L279.6875,870.2797 L280.0781,812.9371 L280.4688,871.6783 L280.8594,868.8811 L281.25,867.4825 L281.6406,791.958 L282.0313,790.5594 L282.4219,817.1329 L282.8125,790.5594 L283.2031,810.1398 L283.5938,871.6783 L283.9844,842.3077 L284.375,863.2867 L284.7656,867.4825 L285.1563,814.3357 L285.5469,791.958 L285.9375,811.5385 L286.3281,870.2797 L286.7188,868.8811 L287.1094,845.1049 L287.5,845.1049 L287.8906,818.5315 L288.2813,871.6783 L288.6719,870.2797 L289.0625,870.2797 L289.4531,870.2797 L289.8438,817.1329 L290.2344,845.1049 L290.625,812.9371 L291.0156,871.6783 L291.4063,871.6783 L291.7969,871.6783 L292.1875,793.3566 L292.5781,920.6294 L292.9688,896.8531 L293.3594,927.6224 L293.75,873.0769 L294.1406,887.0629 L294.5313,850.6993 L294.9219,873.0769 L295.3125,870.2797 L295.7031,793.3566 L296.0938,842.3077 L296.4844,791.9581 L296.875,839.5105 L297.2656,868.8811 L297.6563,873.0769 L298.0469,870.2797 L298.4375,898.2518 L298.8281,815.7343 L299.2188,847.9021 L299.6094,812.9371 L300,866.0839 L300.3906,868.8811 L300.7813,815.7343 L301.1719,846.5035 L301.5625,896.8531 L301.9531,840.9091 L302.3438,790.5594 L302.7344,790.5594 L303.125,845.1049 L303.5156,811.5385 L303.9063,814.3357 L304.2969,870.2797 L304.6875,789.1608 L305.0781,894.056 L305.4688,891.2587 L305.8594,867.4825 L306.25,870.2797 L306.6407,814.3356 L307.0313,811.5385 L307.4219,871.6783 L307.8125,814.3357 L308.2031,787.7623 L308.5938,846.5035 L308.9844,845.1049 L309.375,812.9371 L309.7656,864.6853 L310.1563,927.6224 L310.5469,790.5594 L310.9375,815.7343 L311.3281,791.958 L311.7188,868.8811 L312.1094,812.9371 L312.5,870.2797 L312.8906,840.9091 L313.2813,870.2797 L313.6719,873.0769 L314.0625,868.8811 L314.4532,815.7343 L314.8438,791.9581 L315.2344,850.6993 L315.625,818.5315 L316.0156,812.9371 L316.4063,793.3566 L316.7969,815.7343 L317.1875,780.7692 L317.5781,815.7343 L317.9688,891.2587 L318.3594,870.2797 L318.75,784.965 L319.1406,790.5594 L319.5313,783.5665 L319.9219,814.3357 L320.3125,815.7343 L320.7031,783.5664 L321.0938,871.6783 L321.4844,894.056 L321.875,833.9161 L322.2657,888.4615 L322.6563,812.9371 L323.0469,761.1888 L323.4375,863.2867 L323.8281,871.6783 L324.2188,793.3566 L324.6094,812.9371 L325,864.6853 L325.3906,868.8811 L325.7813,845.1049 L326.1719,784.965 L326.5625,808.7413 L326.9531,843.7063 L327.3438,870.2797 L327.7344,793.3566 L328.125,817.1329 L328.5156,870.2797 L328.9063,864.6853 L329.2969,811.5385 L329.6875,868.8811 L330.0782,846.5035 L330.4688,815.7343 L330.8594,815.7343 L331.25,790.5594 L331.6406,842.3077 L332.0313,811.5385 L332.4219,750 L332.8125,817.1329 L333.2031,896.8531 L333.5938,923.4266 L333.9844,873.0769 L334.375,874.4755 L334.7656,817.1329 L335.1563,812.9371 L335.5469,840.9091 L335.9375,870.2797 L336.3281,926.2238 L336.7188,873.0769 L337.1094,868.8811 L337.5,846.5035 L337.8907,815.7343 L338.2813,786.3636 L338.6719,783.5664 L339.0625,818.5315 L339.4531,870.2797 L339.8438,868.8811 L340.2344,836.7133 L340.625,870.2797 L341.0156,870.2797 L341.4063,812.9371 L341.7969,840.9091 L342.1875,815.7343 L342.5781,791.9581 L342.9688,868.8811 L343.3594,811.5385 L343.75,871.6783 L344.1406,793.3566 L344.5313,843.7063 L344.9219,926.2238 L345.3125,868.8811 L345.7032,807.3427 L346.0938,784.965 L346.4844,815.7343 L346.875,870.2797 L347.2656,814.3357 L347.6563,818.5315 L348.0469,870.2797 L348.4375,843.7063 L348.8281,843.7063 L349.2188,812.9371 L349.6094,787.7622 L350,868.8811 L350.3906,790.5594 L350.7813,814.3357 L351.1719,817.1329 L351.5625,817.1329 L351.9531,817.1329 L352.3438,817.1329 L352.7344,867.4825 L353.125,793.3566 L353.5157,817.1329 L353.9063,808.7413 L354.2969,842.3077 L354.6875,873.0769 L355.0781,873.0769 L355.4688,789.1608 L355.8594,892.6573 L356.25,786.3636 L356.6406,870.2797 L357.0313,815.7343 L357.4219,868.8811 L357.8125,864.6853 L358.2031,870.2797 L358.5938,847.9021 L358.9844,793.3566 L359.375,811.5385 L359.7656,856.2937 L360.1563,791.9581 L360.5469,847.9021 L360.9375,811.5385 L361.3282,840.9091 L361.7188,815.7343 L362.1094,812.9371 L362.5,898.2518 L362.8906,873.0769 L363.2813,840.9091 L363.6719,871.6783 L364.0625,868.8811 L364.4531,791.9581 L364.8438,812.9371 L365.2344,871.6783 L365.625,868.8811 L366.0156,815.7343 L366.4063,836.7133 L366.7969,843.7063 L367.1875,814.3356 L367.5781,791.9581 L367.9688,870.2797 L368.3594,838.1119 L368.75,815.7343 L369.1407,817.1329 L369.5313,791.9581 L369.9219,871.6783 L370.3125,926.2238 L370.7031,873.0769 L371.0938,818.5315 L371.4844,750 L371.875,864.6853 L372.2656,861.8881 L372.6563,873.0769 L373.0469,812.9371 L373.4375,867.4825 L373.8281,846.5035 L374.2188,791.958 L374.6094,867.4825 L375,814.3357 L375.3906,874.4755 L375.7813,874.4755 L376.1719,870.2797 L376.5625,814.3357 L376.9532,812.9371 L377.3438,871.6783 L377.7344,927.6224 L378.125,790.5594 L378.5156,815.7343 L378.9063,787.7622 L379.2969,779.3707 L379.6875,870.2797 L380.0781,842.3077 L380.4688,868.8811 L380.8594,868.8811 L381.25,842.3077 L381.6406,845.1049 L382.0313,870.2797 L382.4219,866.0839 L382.8125,812.9371 L383.2031,846.5035 L383.5938,839.5105 L383.9844,892.6573 L384.375,783.5665 L384.7657,845.1049 L385.1563,840.9091 L385.5469,789.1608 L385.9375,811.5385 L386.3281,864.6853 L386.7188,814.3357 L387.1094,871.6783 L387.5,871.6783 L387.8906,839.5105 L388.2813,843.7063 L388.6719,874.4755 L389.0625,810.1398 L389.4531,812.9371 L389.8438,866.0839 L390.2344,871.6783 L390.625,867.4825 L391.0156,815.7343 L391.4063,818.5315 L391.7969,870.2797 L392.1875,849.3007 L392.5782,786.3636 L392.9688,814.3357 L393.3594,814.3356 L393.75,814.3357 L394.1406,790.5594 L394.5313,924.8252 L394.9219,868.8811 L395.3125,847.9021 L395.7031,819.9301 L396.0938,789.1608 L396.4844,871.6783 L396.875,871.6783 L397.2656,814.3357 L397.6563,815.7343 L398.0469,819.9301 L398.4375,815.7343 L398.8281,755.5944 L399.2188,812.9371 L399.6094,849.3007 L400,812.9371 L400.3907,840.9091 L400.7813,790.5594 L401.1719,815.7343 L401.5625,814.3356 L401.9531,868.8811 L402.3438,814.3356 L402.7344,871.6783 L403.125,843.7063 L403.5156,870.2797 L403.9063,873.0769 L404.2969,812.9371 L404.6875,845.1049 L405.0781,793.3566 L405.4688,868.8811 L405.8594,873.0769 L406.25,847.9021 L406.6406,842.3077 L407.0313,846.5035 L407.4219,871.6783 L407.8125,814.3356 L408.2032,840.9091 L408.5938,815.7343 L408.9844,755.5944 L409.375,815.7343 L409.7656,815.7343 L410.1563,845.1049 L410.5469,791.958 L410.9375,926.2238 L411.3281,817.1329 L411.7188,843.7063 L412.1094,868.8811 L412.5,843.7063 L412.8906,846.5035 L413.2813,817.1329 L413.6719,842.3077 L414.0625,868.8811 L414.4531,814.3357 L414.8438,814.3357 L415.2344,843.7063 L415.625,787.7623 L416.0157,927.6224 L416.4063,871.6783 L416.7969,845.1049 L417.1875,867.4825 L417.5781,846.5035 L417.9688,811.5385 L418.3594,902.4476 L418.75,794.7552 L419.1406,870.2797 L419.5313,871.6783 L419.9219,870.2797 L420.3125,838.1119 L420.7031,819.9301 L421.0938,888.4615 L421.4844,818.5315 L421.875,864.6853 L422.2656,870.2797 L422.6563,814.3357 L423.0469,811.5385 L423.4375,775.1749 L423.8282,789.1608 L424.2188,791.9581 L424.6094,814.3357 L425,818.5314 L425.3906,850.6993 L425.7813,817.1329 L426.1719,814.3356 L426.5625,791.9581 L426.9531,871.6783 L427.3438,790.5594 L427.7344,814.3357 L428.125,870.2797 L428.5156,812.9371 L428.9063,870.2797 L429.2969,867.4825 L429.6875,814.3356 L430.0781,812.9371 L430.4688,814.3357 L430.8594,810.1399 L431.25,871.6783 L431.6407,840.9091 L432.0313,891.2587 L432.4219,791.9581 L432.8125,943.007 L433.2031,814.3356 L433.5938,926.2238 L433.9844,814.3357 L434.375,868.8811 L434.7656,894.056 L435.1563,791.9581 L435.5469,815.7343 L435.9375,791.9581 L436.3281,790.5594 L436.7188,871.6783 L437.1094,782.1678 L437.5,868.8811 L437.8906,815.7343 L438.2813,812.9371 L438.6719,818.5315 L439.0625,847.9021 L439.4532,817.1329 L439.8438,789.1608 L440.2344,847.9021 L440.625,864.6853 L441.0156,817.1329 L441.4063,866.0839 L441.7969,843.7063 L442.1875,898.2518 L442.5781,870.2797 L442.9688,871.6783 L443.3594,817.1329 L443.75,891.2587 L444.1406,758.3916 L444.5313,871.6783 L444.9219,843.7063 L445.3125,791.958 L445.7031,815.7343 L446.0938,814.3357 L446.4844,817.1329 L446.875,873.0769 L447.2657,787.7623 L447.6563,866.0839 L448.0469,793.3566 L448.4375,847.9021 L448.8281,791.958 L449.2188,895.4545 L449.6094,864.6853 L450,793.3566 L450.3906,870.2797 L450.7813,812.9371 L451.1719,868.8811 L451.5625,812.9371 L451.9531,868.8811 L452.3438,871.6783 L452.7344,871.6783 L453.125,950 L453.5156,790.5594 L453.9063,814.3356 L454.2969,793.3566 L454.6875,815.7343 L455.0782,870.2797 L455.4688,811.5385 L455.8594,868.8811 L456.25,849.3007 L456.6406,790.5594 L457.0313,819.9301 L457.4219,790.5594 L457.8125,871.6783 L458.2031,868.8811 L458.5938,815.7343 L458.9844,812.9371 L459.375,817.1329 L459.7656,839.5105 L460.1563,811.5385 L460.5469,814.3357 L460.9375,895.4545 L461.3281,811.5385 L461.7188,815.7343 L462.1094,839.5105 L462.5,892.6573 L462.8907,871.6783 L463.2813,791.958 L463.6719,871.6783 L464.0625,846.5035 L464.4531,873.0769 L464.8438,870.2797 L465.2344,793.3566 L465.625,868.8811 L466.0156,810.1399 L466.4063,891.2587 L466.7969,870.2797 " stroke="blue" fill="none" />
<text x="50" y="1000" font-family="Arial" font-size="12" fill="black">Episode Length (1068)</text>
<text x="50" y="1015" font-family="Arial" font-size="10" fill="black">60</text>
<text x="50" y="1230" font-family="Arial" font-size="10" fill="black">21</text>
<path d="M50,1163.59 L50.39063,1163.59 L50.78125,1153.333 L51.17188,1143.077 L51.5625,1137.949 L51.95313,1137.949 L52.34375,1127.692 L52.73438,1122.564 L53.125,1122.564 L53.51563,1122.564 L53.90625,1122.564 L54.29688,1122.564 L54.6875,1117.436 L55.07813,1117.436 L55.46875,1117.436 L55.85938,1117.436 L56.25,1117.436 L56.64063,1117.436 L57.03125,1117.436 L57.42188,1112.308 L57.8125,1107.179 L58.20313,1107.179 L58.59375,1107.179 L58.98438,1102.051 L59.375,1102.051 L59.76563,1102.051 L60.15625,1102.051 L60.54688,1096.923 L60.9375,1091.795 L61.32813,1086.667 L61.71875,1071.282 L62.10938,1050.769 L62.5,1204.615 L62.89063,1158.462 L63.28125,1163.59 L63.67188,1209.744 L64.0625,1148.205 L64.45313,1168.718 L64.84375,1148.205 L65.23438,1178.974 L65.625,1173.846 L66.01563,1168.718 L66.40625,1163.59 L66.79688,1137.949 L67.1875,1117.436 L67.57813,1143.077 L67.96875,1107.179 L68.35938,1127.692 L68.75,1112.308 L69.14063,1117.436 L69.53125,1107.179 L69.92188,1107.179 L70.3125,1122.564 L70.70313,1117.436 L71.09375,1107.179 L71.48438,1102.051 L71.875,1096.923 L72.26563,1096.923 L72.65625,1096.923 L73.04688,1096.923 L73.4375,1102.051 L73.82813,1091.795 L74.21875,1127.692 L74.60938,1163.59 L75,1158.462 L75.39063,1173.846 L75.78125,1055.897 L76.17188,1158.462 L76.5625,1158.462 L76.95313,1102.051 L77.34375,1112.308 L77.73438,1091.795 L78.125,1112.308 L78.51563,1158.462 L78.90625,1148.205 L79.29688,1163.59 L79.6875,1117.436 L80.07813,1163.59 L80.46875,1112.308 L80.85938,1096.923 L81.25,1168.718 L81.64063,1107.179 L82.03125,1117.436 L82.42188,1096.923 L82.8125,1112.308 L83.20313,1117.436 L83.59375,1112.308 L83.98438,1107.179 L84.375,1102.051 L84.76563,1086.667 L85.15625,1137.949 L85.54688,1096.923 L85.9375,1071.282 L86.32813,1107.179 L86.71875,1148.205 L87.10938,1112.308 L87.5,1168.718 L87.89063,1158.462 L88.28125,1112.308 L88.67188,1137.949 L89.0625,1143.077 L89.45313,1102.051 L89.84375,1122.564 L90.23438,1137.949 L90.625,1143.077 L91.01563,1148.205 L91.40625,1158.462 L91.79688,1132.821 L92.1875,1132.821 L92.57813,1137.949 L92.96875,1096.923 L93.35938,1158.462 L93.75,1112.308 L94.14063,1122.564 L94.53125,1107.179 L94.92188,1163.59 L95.3125,1107.179 L95.70313,1081.538 L96.09375,1168.718 L96.48438,1168.718 L96.875,1107.179 L97.26563,1143.077 L97.65625,1148.205 L98.04688,1086.667 L98.4375,1107.179 L98.82813,1117.436 L99.21875,1107.179 L99.60938,1102.051 L100,1055.897 L100.3906,1143.077 L100.7813,1102.051 L101.1719,1158.462 L101.5625,1102.051 L101.9531,1117.436 L102.3438,1091.795 L102.7344,1117.436 L103.125,1184.103 L103.5156,1204.615 L103.9063,1143.077 L104.2969,1148.205 L104.6875,1086.667 L105.0781,1184.103 L105.4688,1091.795 L105.8594,1158.462 L106.25,1107.179 L106.6406,1086.667 L107.0313,1163.59 L107.4219,1127.692 L107.8125,1143.077 L108.2031,1153.333 L108.5938,1107.179 L108.9844,1163.59 L109.375,1173.846 L109.7656,1096.923 L110.1563,1061.026 L110.5469,1137.949 L110.9375,1096.923 L111.3281,1112.308 L111.7188,1132.821 L112.1094,1112.308 L112.5,1020 L112.8906,1107.179 L113.2813,1158.462 L113.6719,1045.641 L114.0625,1163.59 L114.4531,1086.667 L114.8438,1148.205 L115.2344,1137.949 L115.625,1153.333 L116.0156,1168.718 L116.4063,1117.436 L116.7969,1127.692 L117.1875,1137.949 L117.5781,1153.333 L117.9688,1127.692 L118.3594,1112.308 L118.75,1112.308 L119.1406,1117.436 L119.5313,1096.923 L119.9219,1122.564 L120.3125,1081.538 L120.7031,1112.308 L121.0938,1096.923 L121.4844,1148.205 L121.875,1168.718 L122.2656,1132.821 L122.6563,1143.077 L123.0469,1107.179 L123.4375,1081.538 L123.8281,1168.718 L124.2188,1096.923 L124.6094,1102.051 L125,1143.077 L125.3906,1199.487 L125.7813,1107.179 L126.1719,1148.205 L126.5625,1158.462 L126.9531,1148.205 L127.3438,1163.59 L127.7344,1112.308 L128.125,1050.769 L128.5156,1122.564 L128.9063,1153.333 L129.2969,1209.744 L129.6875,1127.692 L130.0781,1112.308 L130.4688,1184.103 L130.8594,1112.308 L131.25,1158.462 L131.6406,1127.692 L132.0313,1040.513 L132.4219,1153.333 L132.8125,1163.59 L133.2031,1107.179 L133.5938,1137.949 L133.9844,1107.179 L134.375,1107.179 L134.7656,1148.205 L135.1563,1102.051 L135.5469,1086.667 L135.9375,1076.41 L136.3281,1102.051 L136.7188,1117.436 L137.1094,1096.923 L137.5,1107.179 L137.8906,1158.462 L138.2813,1102.051 L138.6719,1102.051 L139.0625,1102.051 L139.4531,1086.667 L139.8438,1148.205 L140.2344,1117.436 L140.625,1158.462 L141.0156,1143.077 L141.4063,1148.205 L141.7969,1143.077 L142.1875,1086.667 L142.5781,1153.333 L142.9688,1143.077 L143.3594,1112.308 L143.75,1096.923 L144.1406,1102.051 L144.5313,1117.436 L144.9219,1096.923 L145.3125,1132.821 L145.7031,1153.333 L146.0938,1148.205 L146.4844,1091.795 L146.875,1102.051 L147.2656,1153.333 L147.6563,1107.179 L148.0469,1127.692 L148.4375,1107.179 L148.8281,1112.308 L149.2188,1071.282 L149.6094,1102.051 L150,1081.538 L150.3906,1122.564 L150.7813,1107.179 L151.1719,1184.103 L151.5625,1153.333 L151.9531,1107.179 L152.3438,1127.692 L152.7344,1117.436 L153.125,1112.308 L153.5156,1184.103 L153.9063,1153.333 L154.2969,1102.051 L154.6875,1143.077 L155.0781,1148.205 L155.4688,1158.462 L155.8594,1148.205 L156.25,1107.179 L156.6406,1091.795 L157.0313,1137.949 L157.4219,1112.308 L157.8125,1148.205 L158.2031,1148.205 L158.5938,1163.59 L158.9844,1112.308 L159.375,1153.333 L159.7656,1194.359 L160.1563,1096.923 L160.5469,1102.051 L160.9375,1112.308 L161.3281,1148.205 L161.7188,1153.333 L162.1094,1086.667 L162.5,1199.487 L162.8906,1143.077 L163.2813,1117.436 L163.6719,1112.308 L164.0625,1096.923 L164.4531,1112.308 L164.8438,1132.821 L165.2344,1107.179 L165.625,1163.59 L166.0156,1091.795 L166.4063,1163.59 L166.7969,1091.795 L167.1875,1102.051 L167.5781,1168.718 L167.9688,1173.846 L168.3594,1163.59 L168.75,1158.462 L169.1406,1127.692 L169.5313,1122.564 L169.9219,1107.179 L170.3125,1117.436 L170.7031,1055.897 L171.0938,1117.436 L171.4844,1137.949 L171.875,1117.436 L172.2656,1148.205 L172.6563,1091.795 L173.0469,1030.256 L173.4375,1122.564 L173.8281,1204.615 L174.2188,1153.333 L174.6094,1184.103 L175,1096.923 L175.3906,1122.564 L175.7813,1091.795 L176.1719,1137.949 L176.5625,1153.333 L176.9531,1153.333 L177.3438,1102.051 L177.7344,1107.179 L178.125,1127.692 L178.5156,1127.692 L178.9063,1148.205 L179.2969,1158.462 L179.6875,1148.205 L180.0781,1163.59 L180.4688,1112.308 L180.8594,1158.462 L181.25,1102.051 L181.6406,1148.205 L182.0313,1178.974 L182.4219,1102.051 L182.8125,1102.051 L183.2031,1173.846 L183.5938,1107.179 L183.9844,1096.923 L184.375,1163.59 L184.7656,1091.795 L185.1563,1153.333 L185.5469,1127.692 L185.9375,1158.462 L186.3281,1117.436 L186.7188,1107.179 L187.1094,1148.205 L187.5,1153.333 L187.8906,1158.462 L188.2813,1158.462 L188.6719,1184.103 L189.0625,1153.333 L189.4531,1096.923 L189.8438,1091.795 L190.2344,1137.949 L190.625,1137.949 L191.0156,1107.179 L191.4063,1209.744 L191.7969,1127.692 L192.1875,1102.051 L192.5781,1091.795 L192.9688,1158.462 L193.3594,1122.564 L193.75,1178.974 L194.1406,1066.154 L194.5313,1143.077 L194.9219,1117.436 L195.3125,1158.462 L195.7031,1143.077 L196.0938,1132.821 L196.4844,1214.872 L196.875,1158.462 L197.2656,1091.795 L197.6563,1107.179 L198.0469,1163.59 L198.4375,1091.795 L198.8281,1112.308 L199.2188,1107.179 L199.6094,1153.333 L200,1096.923 L200.3906,1096.923 L200.7813,1168.718 L201.1719,1148.205 L201.5625,1122.564 L201.9531,1096.923 L202.3438,1107.179 L202.7344,1122.564 L203.125,1204.615 L203.5156,1117.436 L203.9063,1158.462 L204.2969,1153.333 L204.6875,1148.205 L205.0781,1086.667 L205.4688,1153.333 L205.8594,1050.769 L206.25,1122.564 L206.6406,1148.205 L207.0313,1158.462 L207.4219,1158.462 L207.8125,1091.795 L208.2031,1148.205 L208.5938,1158.462 L208.9844,1091.795 L209.375,1107.179 L209.7656,1096.923 L210.1563,1153.333 L210.5469,1158.462 L210.9375,1102.051 L211.3281,1153.333 L211.7188,1066.154 L212.1094,1168.718 L212.5,1143.077 L212.8906,1158.462 L213.2813,1102.051 L213.6719,1096.923 L214.0625,1158.462 L214.4531,1158.462 L214.8438,1158.462 L215.2344,1081.538 L215.625,1148.205 L216.0156,1148.205 L216.4063,1148.205 L216.7969,1096.923 L217.1875,1055.897 L217.5781,1153.333 L217.9688,1102.051 L218.3594,1122.564 L218.75,1127.692 L219.1406,1148.205 L219.5313,1132.821 L219.9219,1102.051 L220.3125,1153.333 L220.7031,1081.538 L221.0938,1102.051 L221.4844,1127.692 L221.875,1086.667 L222.2656,1107.179 L222.6563,1061.026 L223.0469,1102.051 L223.4375,1112.308 L223.8281,1096.923 L224.2188,1132.821 L224.6094,1055.897 L225,1137.949 L225.3906,1148.205 L225.7813,1158.462 L226.1719,1112.308 L226.5625,1137.949 L226.9531,1107.179 L227.3438,1117.436 L227.7344,1158.462 L228.125,1153.333 L228.5156,1163.59 L228.9063,1168.718 L229.2969,1091.795 L229.6875,1102.051 L230.0781,1096.923 L230.4688,1096.923 L230.8594,1153.333 L231.25,1148.205 L231.6406,1148.205 L232.0313,1102.051 L232.4219,1117.436 L232.8125,1122.564 L233.2031,1102.051 L233.5938,1148.205 L233.9844,1127.692 L234.375,1173.846 L234.7656,1107.179 L235.1563,1153.333 L235.5469,1163.59 L235.9375,1163.59 L236.3281,1117.436 L236.7188,1096.923 L237.1094,1163.59 L237.5,1091.795 L237.8906,1122.564 L238.2813,1153.333 L238.6719,1122.564 L239.0625,1096.923 L239.4531,1158.462 L239.8438,1153.333 L240.2344,1107.179 L240.625,1091.795 L241.0156,1132.821 L241.4063,1117.436 L241.7969,1055.897 L242.1875,1066.154 L242.5781,1102.051 L242.9688,1158.462 L243.3594,1107.179 L243.75,1153.333 L244.1406,1096.923 L244.5313,1112.308 L244.9219,1158.462 L245.3125,1173.846 L245.7031,1178.974 L246.0938,1117.436 L246.4844,1153.333 L246.875,1102.051 L247.2656,1107.179 L247.6563,1086.667 L248.0469,1127.692 L248.4375,1132.821 L248.8281,1117.436 L249.2188,1107.179 L249.6094,1102.051 L250,1071.282 L250.3906,1091.795 L250.7813,1163.59 L251.1719,1091.795 L251.5625,1117.436 L251.9531,1040.513 L252.3438,1055.897 L252.7344,1086.667 L253.125,1209.744 L253.5156,1117.436 L253.9063,1102.051 L254.2969,1122.564 L254.6875,1158.462 L255.0781,1178.974 L255.4688,1061.026 L255.8594,1168.718 L256.25,1091.795 L256.6406,1158.462 L257.0313,1153.333 L257.4219,1122.564 L257.8125,1158.462 L258.2031,1168.718 L258.5938,1143.077 L258.9844,1102.051 L259.375,1158.462 L259.7656,1096.923 L260.1563,1158.462 L260.5469,1086.667 L260.9375,1153.333 L261.3281,1153.333 L261.7188,1168.718 L262.1094,1117.436 L262.5,1132.821 L262.8906,1096.923 L263.2813,1132.821 L263.6719,1076.41 L264.0625,1163.59 L264.4531,1102.051 L264.8438,1102.051 L265.2344,1137.949 L265.625,1158.462 L266.0156,1102.051 L266.4063,1102.051 L266.7969,1153.333 L267.1875,1066.154 L267.5781,1148.205 L267.9688,1091.795 L268.3594,1030.256 L268.75,1148.205 L269.1406,1091.795 L269.5313,1071.282 L269.9219,1153.333 L270.3125,1122.564 L270.7031,1102.051 L271.0938,1096.923 L271.4844,1132.821 L271.875,1096.923 L272.2656,1107.179 L272.6563,1153.333 L273.0469,1102.051 L273.4375,1117.436 L273.8281,1112.308 L274.2188,1153.333 L274.6094,1112.308 L275,1173.846 L275.3906,1107.179 L275.7813,1091.795 L276.1719,1096.923 L276.5625,1081.538 L276.9531,1178.974 L277.3438,1143.077 L277.7344,1081.538 L278.125,1163.59 L278.5156,1153.333 L278.9063,1143.077 L279.2969,1096.923 L279.6875,1158.462 L280.0781,1102.051 L280.4688,1163.59 L280.8594,1153.333 L281.25,1148.205 L281.6406,1102.051 L282.0313,1096.923 L282.4219,1117.436 L282.8125,1096.923 L283.2031,1091.795 L283.5938,1163.59 L283.9844,1132.821 L284.375,1132.821 L284.7656,1148.205 L285.1563,1107.179 L285.5469,1102.051 L285.9375,1096.923 L286.3281,1158.462 L286.7188,1153.333 L287.1094,1143.077 L287.5,1143.077 L287.8906,1122.564 L288.2813,1163.59 L288.6719,1158.462 L289.0625,1158.462 L289.4531,1158.462 L289.8438,1117.436 L290.2344,1143.077 L290.625,1102.051 L291.0156,1163.59 L291.4063,1163.59 L291.7969,1163.59 L292.1875,1107.179 L292.5781,1189.231 L292.9688,1178.974 L293.3594,1214.872 L293.75,1168.718 L294.1406,1143.077 L294.5313,1163.59 L294.9219,1168.718 L295.3125,1158.462 L295.7031,1107.179 L296.0938,1132.821 L296.4844,1102.051 L296.875,1122.564 L297.2656,1153.333 L297.6563,1168.718 L298.0469,1158.462 L298.4375,1184.103 L298.8281,1112.308 L299.2188,1153.333 L299.6094,1102.051 L300,1143.077 L300.3906,1153.333 L300.7813,1112.308 L301.1719,1148.205 L301.5625,1178.974 L301.9531,1127.692 L302.3438,1096.923 L302.7344,1096.923 L303.125,1143.077 L303.5156,1096.923 L303.9063,1107.179 L304.2969,1158.462 L304.6875,1091.795 L305.0781,1168.718 L305.4688,1158.462 L305.8594,1148.205 L306.25,1158.462 L306.6407,1107.179 L307.0313,1096.923 L307.4219,1163.59 L307.8125,1107.179 L308.2031,1086.667 L308.5938,1148.205 L308.9844,1143.077 L309.375,1102.051 L309.7656,1137.949 L310.1563,1214.872 L310.5469,1096.923 L310.9375,1112.308 L311.3281,1102.051 L311.7188,1153.333 L312.1094,1102.051 L312.5,1158.462 L312.8906,1127.692 L313.2813,1158.462 L313.6719,1168.718 L314.0625,1153.333 L314.4532,1112.308 L314.8438,1102.051 L315.2344,1163.59 L315.625,1122.564 L316.0156,1102.051 L316.4063,1107.179 L316.7969,1112.308 L317.1875,1061.026 L317.5781,1112.308 L317.9688,1158.462 L318.3594,1158.462 L318.75,1076.41 L319.1406,1096.923 L319.5313,1071.282 L319.9219,1107.179 L320.3125,1112.308 L320.7031,1071.282 L321.0938,1163.59 L321.4844,1168.718 L321.875,1102.051 L322.2657,1148.205 L322.6563,1102.051 L323.0469,1066.154 L323.4375,1132.821 L323.8281,1163.59 L324.2188,1107.179 L324.6094,1102.051 L325,1137.949 L325.3906,1153.333 L325.7813,1143.077 L326.1719,1076.41 L326.5625,1086.667 L326.9531,1137.949 L327.3438,1158.462 L327.7344,1107.179 L328.125,1117.436 L328.5156,1158.462 L328.9063,1137.949 L329.2969,1096.923 L329.6875,1153.333 L330.0782,1148.205 L330.4688,1112.308 L330.8594,1112.308 L331.25,1096.923 L331.6406,1132.821 L332.0313,1096.923 L332.4219,1025.128 L332.8125,1117.436 L333.2031,1178.974 L333.5938,1199.487 L333.9844,1168.718 L334.375,1173.846 L334.7656,1117.436 L335.1563,1102.051 L335.5469,1127.692 L335.9375,1158.462 L336.3281,1209.744 L336.7188,1168.718 L337.1094,1153.333 L337.5,1148.205 L337.8907,1112.308 L338.2813,1081.538 L338.6719,1071.282 L339.0625,1122.564 L339.4531,1158.462 L339.8438,1153.333 L340.2344,1112.308 L340.625,1158.462 L341.0156,1158.462 L341.4063,1102.051 L341.7969,1127.692 L342.1875,1112.308 L342.5781,1102.051 L342.9688,1153.333 L343.3594,1096.923 L343.75,1163.59 L344.1406,1107.179 L344.5313,1137.949 L344.9219,1209.744 L345.3125,1153.333 L345.7032,1081.538 L346.0938,1076.41 L346.4844,1112.308 L346.875,1158.462 L347.2656,1107.179 L347.6563,1122.564 L348.0469,1158.462 L348.4375,1137.949 L348.8281,1137.949 L349.2188,1102.051 L349.6094,1086.667 L350,1153.333 L350.3906,1096.923 L350.7813,1107.179 L351.1719,1117.436 L351.5625,1117.436 L351.9531,1117.436 L352.3438,1117.436 L352.7344,1148.205 L353.125,1107.179 L353.5157,1117.436 L353.9063,1086.667 L354.2969,1132.821 L354.6875,1168.718 L355.0781,1168.718 L355.4688,1091.795 L355.8594,1163.59 L356.25,1081.538 L356.6406,1158.462 L357.0313,1112.308 L357.4219,1153.333 L357.8125,1137.949 L358.2031,1158.462 L358.5938,1153.333 L358.9844,1107.179 L359.375,1096.923 L359.7656,1107.179 L360.1563,1102.051 L360.5469,1153.333 L360.9375,1096.923 L361.3282,1127.692 L361.7188,1112.308 L362.1094,1102.051 L362.5,1184.103 L362.8906,1168.718 L363.2813,1127.692 L363.6719,1163.59 L364.0625,1153.333 L364.4531,1102.051 L364.8438,1102.051 L365.2344,1163.59 L365.625,1153.333 L366.0156,1112.308 L366.4063,1112.308 L366.7969,1137.949 L367.1875,1107.179 L367.5781,1102.051 L367.9688,1158.462 L368.3594,1117.436 L368.75,1112.308 L369.1407,1117.436 L369.5313,1102.051 L369.9219,1163.59 L370.3125,1209.744 L370.7031,1168.718 L371.0938,1122.564 L371.4844,1025.128 L371.875,1137.949 L372.2656,1127.692 L372.6563,1168.718 L373.0469,1102.051 L373.4375,1148.205 L373.8281,1148.205 L374.2188,1102.051 L374.6094,1148.205 L375,1107.179 L375.3906,1173.846 L375.7813,1173.846 L376.1719,1158.462 L376.5625,1107.179 L376.9532,1102.051 L377.3438,1163.59 L377.7344,1214.872 L378.125,1096.923 L378.5156,1112.308 L378.9063,1086.667 L379.2969,1055.897 L379.6875,1158.462 L380.0781,1132.821 L380.4688,1153.333 L380.8594,1153.333 L381.25,1132.821 L381.6406,1143.077 L382.0313,1158.462 L382.4219,1143.077 L382.8125,1102.051 L383.2031,1148.205 L383.5938,1122.564 L383.9844,1163.59 L384.375,1071.282 L384.7657,1143.077 L385.1563,1127.692 L385.5469,1091.795 L385.9375,1096.923 L386.3281,1137.949 L386.7188,1107.179 L387.1094,1163.59 L387.5,1163.59 L387.8906,1122.564 L388.2813,1137.949 L388.6719,1173.846 L389.0625,1091.795 L389.4531,1102.051 L389.8438,1143.077 L390.2344,1163.59 L390.625,1148.205 L391.0156,1112.308 L391.4063,1122.564 L391.7969,1158.462 L392.1875,1158.462 L392.5782,1081.538 L392.9688,1107.179 L393.3594,1107.179 L393.75,1107.179 L394.1406,1096.923 L394.5313,1204.615 L394.9219,1153.333 L395.3125,1153.333 L395.7031,1127.692 L396.0938,1091.795 L396.4844,1163.59 L396.875,1163.59 L397.2656,1107.179 L397.6563,1112.308 L398.0469,1127.692 L398.4375,1112.308 L398.8281,1045.641 L399.2188,1102.051 L399.6094,1158.462 L400,1102.051 L400.3907,1127.692 L400.7813,1096.923 L401.1719,1112.308 L401.5625,1107.179 L401.9531,1153.333 L402.3438,1107.179 L402.7344,1163.59 L403.125,1137.949 L403.5156,1158.462 L403.9063,1168.718 L404.2969,1102.051 L404.6875,1143.077 L405.0781,1107.179 L405.4688,1153.333 L405.8594,1168.718 L406.25,1153.333 L406.6406,1132.821 L407.0313,1148.205 L407.4219,1163.59 L407.8125,1107.179 L408.2032,1127.692 L408.5938,1112.308 L408.9844,1045.641 L409.375,1112.308 L409.7656,1112.308 L410.1563,1143.077 L410.5469,1102.051 L410.9375,1209.744 L411.3281,1117.436 L411.7188,1137.949 L412.1094,1153.333 L412.5,1137.949 L412.8906,1148.205 L413.2813,1117.436 L413.6719,1132.821 L414.0625,1153.333 L414.4531,1107.179 L414.8438,1107.179 L415.2344,1137.949 L415.625,1086.667 L416.0157,1214.872 L416.4063,1163.59 L416.7969,1143.077 L417.1875,1148.205 L417.5781,1148.205 L417.9688,1096.923 L418.3594,1199.487 L418.75,1112.308 L419.1406,1158.462 L419.5313,1163.59 L419.9219,1158.462 L420.3125,1117.436 L420.7031,1127.692 L421.0938,1148.205 L421.4844,1122.564 L421.875,1137.949 L422.2656,1158.462 L422.6563,1107.179 L423.0469,1096.923 L423.4375,1040.513 L423.8282,1091.795 L424.2188,1102.051 L424.6094,1107.179 L425,1122.564 L425.3906,1163.59 L425.7813,1117.436 L426.1719,1107.179 L426.5625,1102.051 L426.9531,1163.59 L427.3438,1096.923 L427.7344,1107.179 L428.125,1158.462 L428.5156,1102.051 L428.9063,1158.462 L429.2969,1148.205 L429.6875,1107.179 L430.0781,1102.051 L430.4688,1107.179 L430.8594,1091.795 L431.25,1163.59 L431.6407,1127.692 L432.0313,1158.462 L432.4219,1102.051 L432.8125,1194.359 L433.2031,1107.179 L433.5938,1209.744 L433.9844,1107.179 L434.375,1153.333 L434.7656,1168.718 L435.1563,1102.051 L435.5469,1112.308 L435.9375,1102.051 L436.3281,1096.923 L436.7188,1163.59 L437.1094,1066.154 L437.5,1153.333 L437.8906,1112.308 L438.2813,1102.051 L438.6719,1122.564 L439.0625,1153.333 L439.4532,1117.436 L439.8438,1091.795 L440.2344,1153.333 L440.625,1137.949 L441.0156,1117.436 L441.4063,1143.077 L441.7969,1137.949 L442.1875,1184.103 L442.5781,1158.462 L442.9688,1163.59 L443.3594,1117.436 L443.75,1158.462 L444.1406,1055.897 L444.5313,1163.59 L444.9219,1137.949 L445.3125,1102.051 L445.7031,1112.308 L446.0938,1107.179 L446.4844,1117.436 L446.875,1168.718 L447.2657,1086.667 L447.6563,1143.077 L448.0469,1107.179 L448.4375,1153.333 L448.8281,1102.051 L449.2188,1173.846 L449.6094,1137.949 L450,1107.179 L450.3906,1158.462 L450.7813,1102.051 L451.1719,1153.333 L451.5625,1102.051 L451.9531,1153.333 L452.3438,1163.59 L452.7344,1163.59 L453.125,1220 L453.5156,1096.923 L453.9063,1107.179 L454.2969,1107.179 L454.6875,1112.308 L455.0782,1158.462 L455.4688,1096.923 L455.8594,1153.333 L456.25,1158.462 L456.6406,1096.923 L457.0313,1127.692 L457.4219,1096.923 L457.8125,1163.59 L458.2031,1153.333 L458.5938,1112.308 L458.9844,1102.051 L459.375,1117.436 L459.7656,1122.564 L460.1563,1096.923 L460.5469,1107.179 L460.9375,1173.846 L461.3281,1096.923 L461.7188,1112.308 L462.1094,1122.564 L462.5,1163.59 L462.8907,1163.59 L463.2813,1102.051 L463.6719,1163.59 L464.0625,1148.205 L464.4531,1168.718 L464.8438,1158.462 L465.2344,1107.179 L465.625,1153.333 L466.0156,1091.795 L466.4063,1158.462 L466.7969,1158.462 " stroke="blue" fill="none" />
<text x="50" y="1270" font-family="Arial" font-size="12" fill="black">Policy Loss</text>
<text x="50" y="1285" font-family="Arial" font-size="10" fill="black">0.0311888</text>
<text x="50" y="1500" font-family="Arial" font-size="10" fill="black">0.02772606</text>
<path d="M50,1290.001 L75,1402.173 L100,1369.494 L125,1490 " stroke="blue" fill="none" />
<text x="50" y="1540" font-family="Arial" font-size="12" fill="black">Value Loss</text>
<text x="50" y="1555" font-family="Arial" font-size="10" fill="black">0.001653651</text>
<text x="50" y="1770" font-family="Arial" font-size="10" fill="black">0.001590873</text>
<path d="M50,1560.032 L75,1682.929 L100,1760 L125,1698.351 " stroke="blue" fill="none" />
<text x="50" y="1810" font-family="Arial" font-size="12" fill="black">Learning Rate</text>
<text x="50" y="1825" font-family="Arial" font-size="10" fill="black">0.0003</text>
<text x="50" y="2040" font-family="Arial" font-size="10" fill="black">0.0003</text>
<path d="M50,2030 L75,2030 L100,2030 L125,2030 " stroke="blue" fill="none" />
<text x="50" y="2080" font-family="Arial" font-size="12" fill="black">Entropy</text>
<text x="50" y="2095" font-family="Arial" font-size="10" fill="black">0.3017925</text>
<text x="50" y="2310" font-family="Arial" font-size="10" fill="black">0.2868746</text>
<path d="M50,2124.038 L75,2300 L100,2100 L125,2299.85 " stroke="blue" fill="none" />
<text x="750" y="730" font-family="Arial" font-size="12" fill="black">Simplified</text>
<text x="750" y="745" font-family="Arial" font-size="10" fill="black">0.7216315</text>
<text x="750" y="960" font-family="Arial" font-size="10" fill="black">0.5671579</text>
<path d="M757.0313,785.0935 L764.4531,786.1159 L771.875,821.8909 L779.2969,800.7666 L786.7188,757.4957 L794.1406,858.0068 L801.5625,784.4124 L808.9844,876.0647 L816.4063,781.3458 L823.8281,799.4038 L831.25,878.1091 L838.6719,760.2214 L846.0938,837.9047 L853.5156,799.4037 L860.9375,862.7768 L868.3594,836.8824 L875.7813,801.7887 L883.2031,862.4361 L890.625,848.1262 L898.0469,887.3084 L905.4688,846.7633 L912.8906,825.639 L920.3125,843.3561 L927.7344,750 L935.1563,843.6967 L942.5781,763.9692 L950,795.3152 L957.4219,816.0989 L964.8438,828.0239 L972.2656,773.5093 L979.6875,834.8383 L987.1094,823.9353 L994.5313,950 L1001.953,888.3306 L1009.375,816.7803 L1016.797,830.4088 L1024.219,788.16 L1031.641,816.0988 L1039.063,857.6661 L1046.484,848.8076 L1053.906,780.6644 L1061.328,843.356 L1068.75,844.7189 L1076.172,872.6576 L1083.594,849.4891 L1091.016,852.8961 L1098.438,811.6694 L1105.859,814.0546 L1113.281,823.5946 L1120.703,882.5384 L1128.125,777.5978 L1135.547,872.317 L1142.969,828.3645 L1150.391,808.603 L1157.813,842.334 L1165.234,844.7189 L1166.797,939.5231 " stroke="blue" fill="none" />
<text x="750" y="1000" font-family="Arial" font-size="12" fill="black">Simplified</text>
<text x="750" y="1015" font-family="Arial" font-size="10" fill="black">42.21053</text>
<text x="750" y="1230" font-family="Arial" font-size="10" fill="black">33.89474</text>
<path d="M757.0313,1106.076 L764.4531,1064.304 L771.875,1104.81 L779.2969,1083.291 L786.7188,1036.456 L794.1406,1125.063 L801.5625,1060.506 L808.9844,1135.19 L816.4063,1049.114 L823.8281,1078.228 L831.25,1142.785 L838.6719,1027.595 L846.0938,1088.354 L853.5156,1059.24 L860.9375,1123.797 L868.3594,1122.532 L875.7813,1068.101 L883.2031,1141.519 L890.625,1126.329 L898.0469,1138.987 L905.4688,1102.278 L912.8906,1099.747 L920.3125,1089.62 L927.7344,1027.595 L935.1563,1109.873 L942.5781,1060.506 L950,1082.025 L957.4219,1064.304 L964.8438,1108.608 L972.2656,1020 L979.6875,1095.949 L987.1094,1093.418 L994.5313,1220 L1001.953,1161.772 L1009.375,1085.823 L1016.797,1117.468 L1024.219,1036.456 L1031.641,1083.291 L1039.063,1123.797 L1046.484,1109.873 L1053.906,1065.57 L1061.328,1108.608 L1068.75,1113.671 L1076.172,1141.519 L1083.594,1112.405 L1091.016,1106.076 L1098.438,1104.81 L1105.859,1094.684 L1113.281,1111.139 L1120.703,1159.241 L1128.125,1054.177 L1135.547,1121.266 L1142.969,1109.873 L1150.391,1093.418 L1157.813,1123.797 L1165.234,1113.671 L1166.797,1157.342 " stroke="blue" fill="none" />
</svg>
