<svg width="800" height="600" xmlns="http://www.w3.org/2000/svg">
<text x="10" y="20" font-family="Arial" font-size="16" fill="black"> [DeepUnity] Training Session</text>
<text x="10" y="40" font-family="Arial" font-size="12" fill="black">Start: 2:04:50 PM, Wednesday, August 30, 2023</text>
<text x="10" y="60" font-family="Arial" font-size="12" fill="black">End: 2:21:58 PM, Wednesday, August 30, 2023</text>
<text x="10" y="80" font-family="Arial" font-size="12" fill="black">Real Training Time: 0 hrs : 17 min : 7 sec</text>
<text x="10" y="100" font-family="Arial" font-size="12" fill="black">Training Time: 492.4837</text>
<text x="10" y="120" font-family="Arial" font-size="12" fill="black">Iterations: 11</text>
<text x="10" y="140" font-family="Arial" font-size="12" fill="black">Parallel Agents: 7</text>
<text x="10" y="160" font-family="Arial" font-size="12" fill="black">Episode Reward</text>
<path d="M10,327.695 L210,327.695" stroke="gray" />
<text x="5" y="332.695" font-family="Arial" font-size="10" fill="black">0</text>
<text x="5" y="180" font-family="Arial" font-size="10" fill="black">291.1671</text>
<text x="5" y="380" font-family="Arial" font-size="10" fill="black">-103.1144</text>
<path d="M0.6451613,328.1854 L1.290323,328.1854 L1.935484,328.1854 L2.580645,328.1854 L3.225806,328.1854 L3.870968,328.1854 L4.516129,328.1854 L5.16129,328.1684 L5.806452,327.9738 L6.451612,327.2634 L7.096774,328.0036 L7.741936,315.2272 L8.387097,316.3572 L9.032258,277.2939 L9.677419,358.4523 L10.32258,312.9229 L10.96774,312.561 L11.6129,322.6568 L12.25806,319.9792 L12.90322,326.48 L13.54839,320.6741 L14.19355,359.7784 L14.83871,351.1038 L15.48387,316.3119 L16.12903,367.3438 L16.77419,328.1309 L17.41936,329.0283 L18.06452,328.6126 L18.70968,292.7313 L19.35484,328.1854 L20,326.7129 L20.64516,328.0361 L21.29032,326.6451 L21.93548,315.8948 L22.58064,308.9829 L23.22581,324.9739 L23.87097,342.1161 L24.51613,283.0805 L25.16129,291.5051 L25.80645,298.0877 L26.45161,325.8423 L27.09678,342.5716 L27.74194,317.9155 L28.3871,330.0365 L29.03226,327.9719 L29.67742,333.6707 L30.32258,317.0079 L30.96774,328.5913 L31.6129,322.5274 L32.25806,328.1854 L32.90323,328.4169 L33.54839,324.8164 L34.19355,275.8278 L34.83871,318.206 L35.48387,285.7442 L36.12903,311.5238 L36.77419,328.1084 L37.41935,293.7121 L38.06451,305.3058 L38.70967,328.4102 L39.35484,328.2917 L40,290.8416 L40.64516,342.325 L41.29032,328.0933 L41.93548,256.2252 L42.58065,328.9163 L43.22581,328.1854 L43.87097,314.3034 L44.51613,299.0098 L45.16129,327.9254 L45.80645,334.5453 L46.45161,375.3513 L47.09678,324.7907 L47.74194,322.9277 L48.3871,324.5599 L49.03226,319.233 L49.67742,327.0874 L50.32258,328.1854 L50.96774,328.1854 L51.6129,304.3296 L52.25806,300.6909 L52.90322,336.0977 L53.54839,321.601 L54.19355,303.9667 L54.83871,268.7876 L55.48387,344.406 L56.12903,329.4884 L56.77419,328.1854 L57.41935,334.5367 L58.06451,322.7168 L58.70967,369.4977 L59.35484,329.0527 L60,327.9102 L60.64516,323.1449 L61.29033,322.1418 L61.93549,328.1076 L62.58065,327.7549 L63.22581,327.6618 L63.87097,325.7634 L64.51613,328.1854 L65.16129,328.1854 L65.80646,332.3858 L66.45161,286.6575 L67.09678,294.2743 L67.74194,328.088 L68.3871,313.8189 L69.03226,320.9351 L69.67742,289.9704 L70.32258,240.5182 L70.96774,308.199 L71.6129,294.2408 L72.25806,327.638 L72.90323,320.9038 L73.54839,327.2466 L74.19355,306.2171 L74.83871,304.1796 L75.48387,300.4629 L76.12903,328.1131 L76.77419,356.2939 L77.41935,309.3151 L78.06451,180 L78.70968,328.9109 L79.35484,309.4299 L80,328.1854 L80.64516,327.6877 L81.29032,317.1904 L81.93549,306.003 L82.58064,315.1957 L83.22581,311.6283 L83.87096,277.9972 L84.51613,289.8303 L85.16129,323.2656 L85.80645,333.1092 L86.45161,237.5954 L87.09677,310.5316 L87.74194,322.2049 L88.38709,314.2849 L89.03226,344.8695 L89.67741,328.0298 L90.32258,318.8601 L90.96774,306.0599 L91.61291,292.9237 L92.25806,327.9446 L92.90323,295.1802 L93.54839,324.1849 L94.19355,328.1854 L94.83871,334.974 L95.48387,327.4002 L96.12903,312.3802 L96.77419,299.6327 L97.41936,328.0701 L98.06451,266.482 L98.70968,348.2316 L99.35484,292.4475 L100,371.881 L100.6452,318.4255 L101.2903,327.8945 L101.9355,299.55 L102.5806,323.2546 L103.2258,306.6932 L103.871,318.1683 L104.5161,306.3194 L105.1613,314.811 L105.8064,310.3055 L106.4516,328.1854 L107.0968,286.8204 L107.7419,328.0167 L108.3871,327.2804 L109.0323,306.2899 L109.6774,316.9498 L110.3226,319.5919 L110.9677,321.0775 L111.6129,327.1994 L112.2581,327.9633 L112.9032,328.1854 L113.5484,328.1854 L114.1936,311.3034 L114.8387,333.7605 L115.4839,321.2436 L116.129,287.0797 L116.7742,302.5643 L117.4193,313.4241 L118.0645,264.9171 L118.7097,328.1359 L119.3548,305.0994 L120,310.3821 L120.6452,318.3884 L121.2903,318.7828 L121.9355,338.9278 L122.5807,333.7589 L123.2258,334.1367 L123.871,328.0844 L124.5161,327.2061 L125.1613,312.0397 L125.8064,328.9987 L126.4516,359.7021 L127.0968,339.7735 L127.7419,380 L128.3871,283.8684 L129.0323,265.9359 L129.6774,322.3609 L130.3226,328.1081 L130.9677,302.8805 L131.6129,328.0685 L132.2581,322.0238 L132.9032,330.2863 L133.5484,330.5255 L134.1936,280.7991 L134.8387,304.8689 L135.4839,341.2022 L136.129,230.0291 L136.7742,324.5258 L137.4194,328.1854 L138.0645,324.3029 L138.7097,328.092 L139.3548,338.0623 L140,319.6312 L140.6452,268.9394 L141.2903,323.9351 L141.9355,328.1854 L142.5806,263.8181 L143.2258,297.0065 L143.871,294.6573 L144.5161,287.7296 L145.1613,361.8431 L145.8065,306.654 L146.4516,296.4719 L147.0968,343.8579 L147.7419,247.5521 L148.3871,309.9276 L149.0323,331.3661 L149.6774,328.1854 L150.3226,322.8591 L150.9677,326.2112 L151.6129,328.0658 L152.2581,315.1668 L152.9032,336.4158 L153.5484,317.1424 L154.1935,328.1172 L154.8387,285.0218 L155.4839,308.8751 L156.129,229.3927 L156.7742,358.3587 L157.4194,331.9396 L158.0645,333.367 L158.7097,331.1738 L159.3548,241.2465 L160,303.5265 L160.6452,342.4432 L161.2903,328.1854 L161.9355,326.8679 L162.5806,328.1763 L163.2258,328.1854 L163.871,328.1651 L164.5161,285.8338 L165.1613,329.1999 L165.8064,332.6841 L166.4516,328.6927 L167.0968,328.0656 L167.7419,328.128 L168.3871,326.6539 L169.0323,328.8069 L169.6774,328.1665 L170.3226,328.2994 L170.9677,328.1854 L171.6129,304.9299 L172.2581,327.6462 L172.9032,328.1274 L173.5484,330.9912 L174.1935,328.6927 L174.8387,328.1854 L175.4839,326.7365 L176.129,328.1854 L176.7742,329.5398 L177.4194,327.8763 L178.0645,327.6249 L178.7097,328.1854 L179.3548,328.1654 L180,328.1854 L180.6452,328.1854 L181.2903,327.816 L181.9355,328.1526 L182.5806,328.6322 L183.2258,328.5876 L183.871,328.1854 L184.5161,328.6519 L185.1613,328.1854 L185.8065,328.0358 L186.4516,328.1854 L187.0968,327.8033 L187.7419,328.0819 L188.3871,329.1154 L189.0323,328.1678 L189.6774,328.1854 L190.3226,328.1442 L190.9677,328.7538 L191.6129,329.1754 L192.2581,329.1267 L192.9032,326.9731 L193.5484,323.0844 L194.1936,325.4025 L194.8387,323.1885 L195.4839,323.3181 L196.129,328.074 L196.7742,328.341 L197.4194,306.8128 L198.0645,328.1854 L198.7097,335.4213 L199.3548,327.3171 L200,327.483 " stroke="blue" fill="none" />
<text x="10" y="400" font-family="Arial" font-size="12" fill="black">Episode Length</text>
<path d="M10,620.4004 L210,620.4004" stroke="gray" />
<text x="5" y="625.4004" font-family="Arial" font-size="10" fill="black">0</text>
<text x="5" y="420" font-family="Arial" font-size="10" fill="black">1001</text>
<text x="5" y="620" font-family="Arial" font-size="10" fill="black">2</text>
<path d="M0.6451613,620 L1.290323,620 L1.935484,620 L2.580645,620 L3.225806,620 L3.870968,620 L4.516129,620 L5.16129,619.7998 L5.806452,617.998 L6.451612,612.5926 L7.096774,609.1892 L7.741936,545.3253 L8.387097,425.8058 L9.032258,420 L9.677419,420 L10.32258,420 L10.96774,420 L11.6129,420 L12.25806,420 L12.90322,534.9149 L13.54839,420 L14.19355,420 L14.83871,420 L15.48387,420 L16.12903,420 L16.77419,619.3994 L17.41936,507.0871 L18.06452,618.999 L18.70968,485.2653 L19.35484,620 L20,609.7898 L20.64516,618.5986 L21.29032,598.7788 L21.93548,444.6246 L22.58064,420 L23.22581,420 L23.87097,420 L24.51613,420 L25.16129,420 L25.80645,420 L26.45161,542.1221 L27.09678,420 L27.74194,420 L28.3871,420 L29.03226,614.1942 L29.67742,420 L30.32258,420 L30.96774,432.6126 L31.6129,587.3674 L32.25806,620 L32.90323,597.7778 L33.54839,610.1902 L34.19355,420 L34.83871,420 L35.48387,420 L36.12903,420 L36.77419,619.1992 L37.41935,420 L38.06451,420 L38.70967,611.1912 L39.35484,608.3884 L40,420 L40.64516,420 L41.29032,618.999 L41.93548,476.8568 L42.58065,448.028 L43.22581,620 L43.87097,465.4454 L44.51613,468.048 L45.16129,615.996 L45.80645,420 L46.45161,420 L47.09678,573.1531 L47.74194,578.7588 L48.3871,573.1531 L49.03226,587.7678 L49.67742,601.982 L50.32258,620 L50.96774,620 L51.6129,420 L52.25806,420 L52.90322,420 L53.54839,420 L54.19355,420 L54.83871,420 L55.48387,420 L56.12903,583.964 L56.77419,620 L57.41935,420 L58.06451,585.3654 L58.70967,420 L59.35484,420 L60,420 L60.64516,420 L61.29033,420 L61.93549,619.1992 L62.58065,614.995 L63.22581,611.5916 L63.87097,610.3904 L64.51613,620 L65.16129,620 L65.80646,588.969 L66.45161,420 L67.09678,420 L67.74194,618.999 L68.3871,554.9349 L69.03226,584.5646 L69.67742,420 L70.32258,420 L70.96774,420 L71.6129,420 L72.25806,612.1922 L72.90323,421.6016 L73.54839,604.985 L74.19355,430.2102 L74.83871,420 L75.48387,420 L76.12903,619.1992 L76.77419,420 L77.41935,420 L78.06451,420 L78.70968,610.7908 L79.35484,555.7357 L80,620 L80.64516,617.3974 L81.29032,485.8659 L81.93549,420 L82.58064,449.4294 L83.22581,552.5325 L83.87096,462.0421 L84.51613,425.005 L85.16129,606.5866 L85.80645,420 L86.45161,420 L87.09677,420 L87.74194,576.1561 L88.38709,420 L89.03226,420 L89.67741,618.3984 L90.32258,511.0911 L90.96774,420 L91.61291,420 L92.25806,617.1972 L92.90323,469.8499 L93.54839,568.1481 L94.19355,620 L94.83871,420 L95.48387,420 L96.12903,420 L96.77419,420 L97.41936,618.7988 L98.06451,420 L98.70968,420 L99.35484,420 L100,420 L100.6452,420 L101.2903,616.997 L101.9355,420 L102.5806,584.3644 L103.2258,420 L103.871,546.5266 L104.5161,462.6426 L105.1613,522.3023 L105.8064,552.1321 L106.4516,620 L107.0968,497.4775 L107.7419,618.3984 L108.3871,611.3914 L109.0323,420 L109.6774,420 L110.3226,569.1492 L110.9677,577.7578 L111.6129,610.5906 L112.2581,610.5906 L112.9032,620 L113.5484,620 L114.1936,420 L114.8387,420 L115.4839,420 L116.129,450.2302 L116.7742,420 L117.4193,420 L118.0645,420 L118.7097,619.3994 L119.3548,420 L120,420 L120.6452,420 L121.2903,420 L121.9355,420 L122.5807,420 L123.2258,420 L123.871,611.992 L124.5161,611.5916 L125.1613,564.9449 L125.8064,546.3264 L126.4516,435.015 L127.0968,420 L127.7419,420 L128.3871,420 L129.0323,420 L129.6774,420 L130.3226,619.1992 L130.9677,420 L131.6129,618.7988 L132.2581,420 L132.9032,420 L133.5484,420 L134.1936,420 L134.8387,496.6767 L135.4839,420 L136.129,465.2452 L136.7742,524.1041 L137.4194,620 L138.0645,420 L138.7097,618.999 L139.3548,420 L140,458.038 L140.6452,420 L141.2903,577.3574 L141.9355,620 L142.5806,420 L143.2258,420 L143.871,420 L144.5161,420 L145.1613,420 L145.8065,476.4565 L146.4516,420 L147.0968,420 L147.7419,420 L148.3871,420 L149.0323,594.975 L149.6774,620 L150.3226,560.5405 L150.9677,594.975 L151.6129,618.7988 L152.2581,579.3594 L152.9032,420 L153.5484,420 L154.1935,619.1992 L154.8387,420 L155.4839,452.032 L156.129,420 L156.7742,420 L157.4194,587.5676 L158.0645,420 L158.7097,545.9259 L159.3548,426.4064 L160,472.2523 L160.6452,425.4054 L161.2903,620 L161.9355,609.5896 L162.5806,609.1892 L163.2258,620 L163.871,619.7998 L164.5161,425.4054 L165.1613,620 L165.8064,531.1111 L166.4516,620 L167.0968,618.5986 L167.7419,619.3994 L168.3871,605.986 L169.0323,606.1862 L169.6774,619.7998 L170.3226,617.5976 L170.9677,620 L171.6129,477.2573 L172.2581,615.7958 L172.9032,618.999 L173.5484,616.7968 L174.1935,620 L174.8387,620 L175.4839,612.3924 L176.129,620 L176.7742,618.3984 L177.4194,614.7948 L178.0645,614.7948 L178.7097,620 L179.3548,619.7998 L180,620 L180.6452,620 L181.2903,616.997 L181.9355,619.5996 L182.5806,616.997 L183.2258,618.999 L183.871,620 L184.5161,619.5996 L185.1613,620 L185.8065,618.3984 L186.4516,620 L187.0968,616.3964 L187.7419,619.1992 L188.3871,619.1992 L189.0323,619.7998 L189.6774,620 L190.3226,619.5996 L190.9677,615.996 L191.6129,619.7998 L192.2581,619.1992 L192.9032,611.7918 L193.5484,606.3864 L194.1936,588.969 L194.8387,572.5526 L195.4839,600.981 L196.129,580.3604 L196.7742,615.996 L197.4194,548.929 L198.0645,620 L198.7097,547.3273 L199.3548,609.7898 L200,603.5836 " stroke="blue" fill="none" />
<text x="10" y="640" font-family="Arial" font-size="12" fill="black">Policy Loss</text>
<path d="M10,885.3793 L210,885.3793" stroke="gray" />
<text x="5" y="890.3793" font-family="Arial" font-size="10" fill="black">0</text>
<text x="5" y="660" font-family="Arial" font-size="10" fill="black">0.003250238</text>
<text x="5" y="860" font-family="Arial" font-size="10" fill="black">0.0003660003</text>
<path d="M0.3246753,783.2081 L0.6493506,837.9283 L0.974026,711.1794 L1.298701,756.8369 L1.623377,792.2766 L1.948052,787.002 L2.272727,804.4815 L2.597403,767.724 L2.922078,714.3401 L3.246753,767.1791 L3.571429,782.0182 L3.896104,790.2266 L4.220779,776.9273 L4.545455,760.9559 L4.87013,796.2905 L5.194805,778.5427 L5.519481,775.1932 L5.844156,754.2184 L6.168831,802.8824 L6.493506,814.1105 L6.818182,781.3206 L7.142858,801.5207 L7.467532,819.4716 L7.792208,791.2856 L8.116883,714.4271 L8.441559,678.8763 L8.766233,789.2374 L9.090909,784.1428 L9.415584,803.2008 L9.740259,779.1777 L10.06493,724.1881 L10.38961,769.0075 L10.71429,706.4429 L11.03896,770.438 L11.36364,786.2722 L11.68831,788.0622 L12.01299,799.4853 L12.33766,785.7763 L12.66234,762.8715 L12.98701,790.364 L13.31169,831.9233 L13.63636,801.7595 L13.96104,781.992 L14.28572,779.481 L14.61039,784.6245 L14.93506,782.359 L15.25974,795.8146 L15.58442,742.0098 L15.90909,716.4481 L16.23377,755.1104 L16.55844,726.6701 L16.88312,752.1627 L17.20779,808.9319 L17.53247,794.0353 L17.85714,738.9979 L18.18182,854.7116 L18.50649,746.2649 L18.83117,783.91 L19.15584,820.8741 L19.48052,785.6583 L19.80519,797.4179 L20.12987,814.4635 L20.45455,809.3427 L20.77922,820.7977 L21.1039,754.235 L21.42857,781.1483 L21.75325,805.0447 L22.07792,717.9746 L22.4026,767.9281 L22.72727,791.5738 L23.05195,797.0757 L23.37662,820.7538 L23.7013,773.5426 L24.02597,732.0892 L24.35065,771.3508 L24.67533,736.8248 L25,790.7128 L25.32467,799.1168 L25.64935,808.5056 L25.97403,809.4482 L26.2987,734.801 L26.62338,736.0362 L26.94805,732.7347 L27.27273,807.5454 L27.5974,785.3889 L27.92208,766.1609 L28.24675,761.7379 L28.57143,787.9744 L28.8961,735.0078 L29.22078,811.2421 L29.54545,759.113 L29.87013,795.3835 L30.1948,764.8165 L30.51948,753.239 L30.84415,808.1271 L31.16883,797.9476 L31.49351,743.4444 L31.81818,776.696 L32.14286,761.4604 L32.46753,760.3013 L32.79221,806.9243 L33.11688,726.3277 L33.44156,739.4957 L33.76624,831.1392 L34.09091,661.0947 L34.41558,768.8229 L34.74026,798.7976 L35.06493,828.6382 L35.38961,811.6808 L35.71429,803.5856 L36.03896,762.0182 L36.36364,814.6819 L36.68831,761.3952 L37.01299,798.9372 L37.33767,789.2195 L37.66233,791.7512 L37.98701,730.6249 L38.31169,776.9277 L38.63636,798.515 L38.96104,705.6223 L39.28571,792.9536 L39.61039,819.9884 L39.93507,777.7845 L40.25974,730.038 L40.58442,743.3794 L40.90909,779.7408 L41.23376,820.2591 L41.55844,799.099 L41.88312,723.5261 L42.20779,776.3814 L42.53247,787.7017 L42.85714,803.4355 L43.18182,765.5071 L43.50649,791.643 L43.83117,729.3177 L44.15585,791.8281 L44.48052,758.2749 L44.80519,770.3239 L45.12987,766.7003 L45.45455,797.2239 L45.77922,763.7512 L46.10389,813.1794 L46.42857,812.9504 L46.75325,767.0862 L47.07792,726.4875 L47.4026,799.8594 L47.72727,756.2227 L48.05195,838.5324 L48.37662,772.8199 L48.7013,786.8521 L49.02597,721.825 L49.35065,794.5587 L49.67532,761.4052 L50,826.571 L50.32467,772.5715 L50.64935,770.8781 L50.97402,758.9228 L51.2987,744.8491 L51.62337,805.0523 L51.94805,764.7652 L52.27272,715.6855 L52.5974,779.3177 L52.92208,715.9781 L53.24675,799.2228 L53.57143,801.3471 L53.89611,782.4656 L54.22078,809.988 L54.54546,749.6276 L54.87013,798.4147 L55.19481,800.7523 L55.51948,778.983 L55.84416,760.1115 L56.16883,767.3806 L56.49351,812.1608 L56.81818,848.1907 L57.14286,832.6312 L57.46753,711.555 L57.79221,777.3022 L58.11688,785.7045 L58.44156,780.197 L58.76624,815.5137 L59.09091,772.3814 L59.41558,797.4056 L59.74026,787.5498 L60.06493,755.1295 L60.38961,795.3316 L60.71429,830.1157 L61.03896,804.2996 L61.36364,749.2709 L61.68831,757.0041 L62.01299,748.636 L62.33766,799.5713 L62.66234,735.0179 L62.98701,803.5056 L63.31169,811.9194 L63.63636,815.1973 L63.96104,824.6924 L64.28571,764.684 L64.61039,779.0605 L64.93507,771.1519 L65.25974,762.2382 L65.58441,815.166 L65.9091,802.3145 L66.23376,808.556 L66.55844,771.4529 L66.88312,745.8596 L67.20779,737.3313 L67.53247,776.4796 L67.85714,785.0745 L68.18182,749.0548 L68.50649,792.54 L68.83117,775.1632 L69.15585,738.413 L69.48052,770.3619 L69.80519,818.1277 L70.12987,790.6827 L70.45454,815.4944 L70.77922,818.389 L71.1039,795.3373 L71.42857,744.3207 L71.75324,845.7502 L72.07793,766.1266 L72.4026,732.3141 L72.72727,766.3417 L73.05195,754.2548 L73.37663,756.6188 L73.7013,774.94 L74.02598,776.186 L74.35065,723.4412 L74.67533,795.5463 L75,786.2244 L75.32467,801.5349 L75.64935,763.845 L75.97402,784.2463 L76.2987,807.376 L76.62337,807.9738 L76.94805,779.9764 L77.27273,783.3631 L77.5974,743.5776 L77.92207,713.075 L78.24676,794.4236 L78.57143,813.0497 L78.8961,781.5002 L79.22078,791.2598 L79.54546,813.5614 L79.87013,732.4955 L80.19481,766.5538 L80.51948,813.9941 L80.84415,774.7252 L81.16883,767.4505 L81.49351,777.5484 L81.81818,839.0176 L82.14286,777.8261 L82.46753,793.4099 L82.79221,788.706 L83.11688,801.8456 L83.44156,739.441 L83.76624,782.1359 L84.0909,764.374 L84.41559,751.3836 L84.74026,787.0894 L85.06493,767.9623 L85.38961,709.8563 L85.71429,797.4123 L86.03896,758.1043 L86.36364,763.8037 L86.68831,772.9135 L87.01299,784.9752 L87.33766,754.0145 L87.66234,821.9717 L87.98701,756.3183 L88.31169,793.3333 L88.63636,830.4376 L88.96104,801.533 L89.28571,803.4796 L89.61039,797.0504 L89.93507,789.4325 L90.25974,765.6537 L90.58441,745.5529 L90.9091,784.7991 L91.23376,772.0655 L91.55844,735.2342 L91.88312,821.0056 L92.20779,812.449 L92.53247,791.4509 L92.85714,790.5228 L93.18182,768.1392 L93.50649,831.2208 L93.83117,755.3853 L94.15585,728.1611 L94.48052,791.3763 L94.80519,782.7068 L95.12987,807.5079 L95.45454,786.7573 L95.77922,772.268 L96.1039,770.3758 L96.42857,781.215 L96.75324,776.8337 L97.07793,756.3107 L97.4026,793.5271 L97.72727,769.8729 L98.05195,751.642 L98.37663,710.8113 L98.7013,800.629 L99.02598,689.4324 L99.35065,799.1044 L99.67533,779.0983 L100,781.4059 L100.3247,800.762 L100.6493,827.761 L100.974,781.944 L101.2987,712.6105 L101.6234,738.6761 L101.948,797.3726 L102.2727,727.6693 L102.5974,795.0563 L102.9221,774.2737 L103.2467,827.5659 L103.5714,797.69 L103.8961,799.7265 L104.2208,775.3203 L104.5454,766.1962 L104.8701,814.9972 L105.1948,747.5559 L105.5195,765.5101 L105.8442,786.765 L106.1688,812.733 L106.4935,767.8886 L106.8182,813.257 L107.1429,781.3456 L107.4675,782.5788 L107.7922,777.3634 L108.1169,796.2335 L108.4416,772.2866 L108.7662,750.7166 L109.0909,809.8699 L109.4156,750.243 L109.7403,807.3602 L110.0649,812.8889 L110.3896,711.6139 L110.7143,768.3936 L111.039,740.7925 L111.3636,776.5524 L111.6883,776.396 L112.013,791.8579 L112.3377,736.6691 L112.6623,757.1714 L112.987,770.3997 L113.3117,812.0941 L113.6364,733.4902 L113.961,810.2523 L114.2857,820.9111 L114.6104,767.5581 L114.9351,771.6793 L115.2597,806.0309 L115.5844,800.396 L115.9091,750.4137 L116.2338,811.5108 L116.5584,805.6456 L116.8831,777.2888 L117.2078,764.8428 L117.5325,776.2769 L117.8571,805.2717 L118.1818,808.5251 L118.5065,748.3433 L118.8312,728.9868 L119.1558,786.2487 L119.4805,780.8565 L119.8052,742.5125 L120.1299,802.1343 L120.4546,814.4657 L120.7792,763.7003 L121.1039,720.0807 L121.4286,751.7635 L121.7533,794.8877 L122.0779,802.6401 L122.4026,765.2411 L122.7273,765.7179 L123.052,725.7239 L123.3766,787.8832 L123.7013,790.9667 L124.026,807.6267 L124.3507,813.9044 L124.6753,823.3723 L125,807.1381 L125.3247,760.4219 L125.6493,772.5095 L125.974,797.3499 L126.2987,806.4366 L126.6234,751.4377 L126.948,761.6691 L127.2727,835.1697 L127.5974,742.6115 L127.9221,762.0075 L128.2467,794.379 L128.5714,821.4671 L128.8961,772.7001 L129.2208,775.364 L129.5455,782.3377 L129.8701,777.8138 L130.1948,710.5438 L130.5195,811.1918 L130.8441,725.602 L131.1688,778.4069 L131.4935,777.6748 L131.8182,761.4571 L132.1429,781.6265 L132.4675,841.2692 L132.7922,687.049 L133.1169,807.8699 L133.4416,748.0396 L133.7662,726.6583 L134.0909,805.9905 L134.4156,827.3944 L134.7403,836.0352 L135.0649,766.7656 L135.3896,806.7756 L135.7143,811.9899 L136.039,741.8604 L136.3636,742.5112 L136.6883,738.6913 L137.013,825.3403 L137.3377,795.8835 L137.6623,815.356 L137.987,738.8515 L138.3117,765.4514 L138.6364,764.3848 L138.961,819.248 L139.2857,778.6913 L139.6104,773.1845 L139.9351,771.3387 L140.2597,814.7069 L140.5844,748.9706 L140.9091,808.9126 L141.2338,797.6719 L141.5584,804.2855 L141.8831,784.1255 L142.2078,762.3848 L142.5325,817.7843 L142.8571,727.9285 L143.1818,798.1894 L143.5065,826.9918 L143.8312,815.9978 L144.1559,777.634 L144.4805,759.7599 L144.8052,745.153 L145.1299,831.4625 L145.4545,785.8563 L145.7792,761.4033 L146.1039,782.5074 L146.4286,778.9784 L146.7533,790.4648 L147.0779,802.3693 L147.4026,809.2413 L147.7273,775.8131 L148.052,786.4357 L148.3766,797.7305 L148.7013,804.8123 L149.026,819.0275 L149.3507,776.3123 L149.6753,733.837 L150,802.4135 L150.3247,779.8828 L150.6493,763.9162 L150.974,725.253 L151.2987,827.4955 L151.6234,814.3218 L151.948,828.6284 L152.2727,805.692 L152.5974,770.0126 L152.9221,783.7958 L153.2467,790.6714 L153.5714,732.6925 L153.8961,778.7051 L154.2208,769.3008 L154.5455,784.6266 L154.8701,763.6453 L155.1948,781.3236 L155.5195,801.3155 L155.8441,816.975 L156.1688,772.0317 L156.4935,765.1125 L156.8182,813.7758 L157.1429,745.028 L157.4675,827.1834 L157.7922,807.3958 L158.1169,789.5294 L158.4416,830.2471 L158.7662,699.257 L159.0909,771.7684 L159.4156,786.0093 L159.7403,756.5811 L160.0649,755.7647 L160.3896,821.7858 L160.7143,797.1737 L161.039,763.3821 L161.3636,768.0034 L161.6883,777.9312 L162.013,766.437 L162.3377,762.0002 L162.6623,752.8289 L162.987,800.5067 L163.3117,772.5096 L163.6364,824.7462 L163.961,771.1014 L164.2857,770.5871 L164.6104,804.9354 L164.9351,778.6854 L165.2597,749.5026 L165.5844,830.8036 L165.9091,825.9758 L166.2338,782.3661 L166.5584,785.5355 L166.8831,796.4498 L167.2078,827.0698 L167.5325,766.1517 L167.8571,754.1516 L168.1818,792.7651 L168.5065,767.9517 L168.8312,746.4933 L169.1559,690.5741 L169.4805,820.9459 L169.8052,786.4678 L170.1299,755.3419 L170.4545,825.6873 L170.7792,809.9514 L171.1039,769.6033 L171.4286,814.8841 L171.7533,733.1066 L172.0779,814.2654 L172.4026,796.7025 L172.7273,761.9249 L173.052,757.6021 L173.3766,771.1112 L173.7013,795.801 L174.026,799.1224 L174.3507,798.7799 L174.6753,813.3661 L175,832.165 L175.3247,812.5242 L175.6493,771.5947 L175.974,772.2385 L176.2987,825.6331 L176.6234,791.9161 L176.948,797.3651 L177.2727,779.815 L177.5974,812.7525 L177.9221,785.7761 L178.2467,791.1292 L178.5714,860 L178.8961,758.718 L179.2208,773.1041 L179.5455,763.9391 L179.8701,716.485 L180.1948,784.3277 L180.5195,819.4424 L180.8441,795.8348 L181.1688,758.4914 L181.4935,757.6246 L181.8182,694.2393 L182.1429,788.6154 L182.4675,786.8956 L182.7922,784.5659 L183.1169,728.2325 L183.4416,782.9064 L183.7662,737.6346 L184.0909,762.2631 L184.4156,810.7568 L184.7403,811.1171 L185.0649,810.2316 L185.3896,784.0844 L185.7143,794.3981 L186.039,765.8763 L186.3636,747.7968 L186.6883,768.1346 L187.013,802.1127 L187.3377,737.3232 L187.6623,660 L187.987,798.194 L188.3117,828.0983 L188.6364,756.739 L188.961,810.9288 L189.2857,753.2609 L189.6104,764.9249 L189.9351,744.3598 L190.2597,780.7079 L190.5844,741.8408 L190.9091,780.8636 L191.2338,755.1266 L191.5584,760.8766 L191.8831,795.9852 L192.2078,781.6221 L192.5325,825.0775 L192.8571,766.0074 L193.1818,749.0861 L193.5065,793.1301 L193.8312,773.5551 L194.1559,777.7856 L194.4805,751.2375 L194.8052,695.8531 L195.1299,760.8179 L195.4545,787.2139 L195.7792,787.6386 L196.1039,785.3843 L196.4286,768.8328 L196.7533,761.8671 L197.0779,795.2864 L197.4026,759.9035 L197.7273,802.8123 L198.052,807.6313 L198.3766,822.3752 L198.7013,777.4619 L199.026,818.1471 L199.3507,767.8104 L199.6753,790.9 L200,809.1556 " stroke="blue" fill="none" />
<text x="10" y="880" font-family="Arial" font-size="12" fill="black">Value Loss</text>
<path d="M10,1100.552 L210,1100.552" stroke="gray" />
<text x="5" y="1105.552" font-family="Arial" font-size="10" fill="black">0</text>
<text x="5" y="900" font-family="Arial" font-size="10" fill="black">2.721147</text>
<text x="5" y="1100" font-family="Arial" font-size="10" fill="black">0.007486094</text>
<path d="M0.3246753,1062.052 L0.6493506,1075.438 L0.974026,1084.941 L1.298701,1091.247 L1.623377,1094.355 L1.948052,1094.751 L2.272727,1094.975 L2.597403,1095.123 L2.922078,1050.985 L3.246753,1058.776 L3.571429,1067.423 L3.896104,1074.45 L4.220779,1078.848 L4.545455,1080.271 L4.87013,1080.421 L5.194805,1080.625 L5.519481,1060.453 L5.844156,1062.339 L6.168831,1063.806 L6.493506,1064.901 L6.818182,1065.79 L7.142858,1066.382 L7.467532,1066.834 L7.792208,1067.213 L8.116883,1073.783 L8.441559,1078.415 L8.766233,1085.079 L9.090909,1091.036 L9.415584,1094.985 L9.740259,1096.634 L10.06493,1097.081 L10.38961,1097.562 L10.71429,1085.979 L11.03896,1089.093 L11.36364,1091.812 L11.68831,1092.849 L12.01299,1093.02 L12.33766,1093.305 L12.66234,1093.493 L12.98701,1093.717 L13.31169,1094.505 L13.63636,1096.036 L13.96104,1097.234 L14.28572,1097.591 L14.61039,1097.65 L14.93506,1097.786 L15.25974,1097.901 L15.58442,1098.001 L15.90909,1085.46 L16.23377,1087.759 L16.55844,1089.874 L16.88312,1090.78 L17.20779,1090.943 L17.53247,1091.273 L17.85714,1091.485 L18.18182,1091.725 L18.50649,1092.607 L18.83117,1094.63 L19.15584,1096.14 L19.48052,1096.214 L19.80519,1096.391 L20.12987,1096.47 L20.45455,1096.559 L20.77922,1096.623 L21.1039,1083.544 L21.42857,1087.068 L21.75325,1090.619 L22.07792,1092.883 L22.4026,1093.551 L22.72727,1093.79 L23.05195,1094.123 L23.37662,1094.355 L23.7013,1097.74 L24.02597,1098.019 L24.35065,1098.028 L24.67533,1098.074 L25,1098.121 L25.32467,1098.161 L25.64935,1098.199 L25.97403,1098.228 L26.2987,1083.963 L26.62338,1084.143 L26.94805,1084.342 L27.27273,1084.538 L27.5974,1084.735 L27.92208,1084.896 L28.24675,1085.04 L28.57143,1085.167 L28.8961,1094.059 L29.22078,1094.441 L29.54545,1094.955 L29.87013,1095.375 L30.1948,1095.646 L30.51948,1095.774 L30.84415,1095.845 L31.16883,1095.885 L31.49351,1098.891 L31.81818,1099.523 L32.14286,1099.661 L32.46753,1099.781 L32.79221,1099.849 L33.11688,1099.912 L33.44156,1099.963 L33.76624,1100 L34.09091,1085.991 L34.41558,1086.974 L34.74026,1087.428 L35.06493,1087.768 L35.38961,1088.16 L35.71429,1088.516 L36.03896,1088.813 L36.36364,1089.095 L36.68831,1096.936 L37.01299,1097.043 L37.33767,1097.229 L37.66233,1097.387 L37.98701,1097.491 L38.31169,1097.544 L38.63636,1097.586 L38.96104,1097.592 L39.28571,1091.272 L39.61039,1092.92 L39.93507,1094.564 L40.25974,1095.038 L40.58442,1095.281 L40.90909,1095.527 L41.23376,1095.705 L41.55844,1095.863 L41.88312,1055.583 L42.20779,1059.831 L42.53247,1065.865 L42.85714,1071.051 L43.18182,1074.463 L43.50649,1075.451 L43.83117,1075.528 L44.15585,1075.9 L44.48052,1067.339 L44.80519,1073.703 L45.12987,1078.97 L45.45455,1081.952 L45.77922,1082.935 L46.10389,1082.823 L46.42857,1083.036 L46.75325,1083.133 L47.07792,1093.778 L47.4026,1094.418 L47.72727,1094.742 L48.05195,1095.153 L48.37662,1095.589 L48.7013,1095.952 L49.02597,1096.272 L49.35065,1096.537 L49.67532,1081.98 L50,1084.533 L50.32467,1087.713 L50.64935,1089.973 L50.97402,1090.727 L51.2987,1091.233 L51.62337,1091.723 L51.94805,1092.145 L52.27272,1054.53 L52.5974,1056.475 L52.92208,1058.818 L53.24675,1060.593 L53.57143,1061.853 L53.89611,1063.158 L54.22078,1064.418 L54.54546,1065.606 L54.87013,1087.22 L55.19481,1089.578 L55.51948,1092.4 L55.84416,1094.248 L56.16883,1095.279 L56.49351,1096.033 L56.81818,1096.58 L57.14286,1096.987 L57.46753,1059.385 L57.79221,1064.116 L58.11688,1069.923 L58.44156,1074.618 L58.76624,1077.974 L59.09091,1079.916 L59.41558,1080.624 L59.74026,1081.118 L60.06493,1086.05 L60.38961,1089.28 L60.71429,1092.511 L61.03896,1094.751 L61.36364,1095.622 L61.68831,1095.828 L62.01299,1096.157 L62.33766,1096.444 L62.66234,1088.344 L62.98701,1089.693 L63.31169,1090.898 L63.63636,1091.385 L63.96104,1091.648 L64.28571,1091.967 L64.61039,1092.175 L64.93507,1092.316 L65.25974,1064.58 L65.58441,1066.208 L65.9091,1068.351 L66.23376,1069.668 L66.55844,1070.37 L66.88312,1071.052 L67.20779,1071.647 L67.53247,1072.121 L67.85714,1095.071 L68.18182,1095.434 L68.50649,1095.684 L68.83117,1095.922 L69.15585,1096.112 L69.48052,1096.28 L69.80519,1096.404 L70.12987,1096.505 L70.45454,1094.69 L70.77922,1095.368 L71.1039,1095.737 L71.42857,1095.747 L71.75324,1095.816 L72.07793,1095.854 L72.4026,1095.883 L72.72727,1095.903 L73.05195,900 L73.37663,908.6932 L73.7013,921.9308 L74.02598,935.8475 L74.35065,949.7555 L74.67533,962.5988 L75,974.8005 L75.32467,986.0626 L75.64935,1009.27 L75.97402,1009.563 L76.2987,1010.788 L76.62337,1011.631 L76.94805,1012.136 L77.27273,1012.612 L77.5974,1013.042 L77.92207,1013.429 L78.24676,1089.158 L78.57143,1090.021 L78.8961,1091.061 L79.22078,1091.921 L79.54546,1092.786 L79.87013,1093.524 L80.19481,1094.074 L80.51948,1094.527 L80.84415,1093.956 L81.16883,1094.661 L81.49351,1095.55 L81.81818,1096.314 L82.14286,1096.933 L82.46753,1097.319 L82.79221,1097.5 L83.11688,1097.606 L83.44156,1041.662 L83.76624,1051.113 L84.0909,1061.747 L84.41559,1070.955 L84.74026,1078.638 L85.06493,1084.134 L85.38961,1088.039 L85.71429,1090.229 L86.03896,1095.609 L86.36364,1095.841 L86.68831,1096.462 L87.01299,1096.921 L87.33766,1097.213 L87.66234,1097.348 L87.98701,1097.409 L88.31169,1097.444 L88.63636,1099.163 L88.96104,1099.406 L89.28571,1099.488 L89.61039,1099.549 L89.93507,1099.588 L90.25974,1099.617 L90.58441,1099.639 L90.9091,1099.651 L91.23376,1086.228 L91.55844,1088.971 L91.88312,1092.24 L92.20779,1094.888 L92.53247,1096.649 L92.85714,1097.536 L93.18182,1097.854 L93.50649,1098.015 L93.83117,1089.914 L94.15585,1091.512 L94.48052,1093.311 L94.80519,1094.846 L95.12987,1095.849 L95.45454,1096.458 L95.77922,1096.786 L96.1039,1096.963 L96.42857,1037.842 L96.75324,1041.569 L97.07793,1046.779 L97.4026,1052.214 L97.72727,1056.751 L98.05195,1060.29 L98.37663,1062.597 L98.7013,1063.438 L99.02598,1069.322 L99.35065,1073.943 L99.67533,1080.656 L100,1086.777 L100.3247,1091.422 L100.6493,1094.481 L100.974,1096.129 L101.2987,1096.569 L101.6234,1081.351 L101.948,1085.016 L102.2727,1086.945 L102.5974,1087.61 L102.9221,1088.334 L103.2467,1088.748 L103.5714,1089.059 L103.8961,1089.197 L104.2208,1091.999 L104.5454,1092.688 L104.8701,1093.23 L105.1948,1093.308 L105.5195,1093.437 L105.8442,1093.56 L106.1688,1093.627 L106.4935,1093.711 L106.8182,1086.787 L107.1429,1087.971 L107.4675,1089.132 L107.7922,1089.667 L108.1169,1089.918 L108.4416,1090.195 L108.7662,1090.384 L109.0909,1090.595 L109.4156,1089.063 L109.7403,1089.777 L110.0649,1090.456 L110.3896,1090.923 L110.7143,1091.196 L111.039,1091.433 L111.3636,1091.623 L111.6883,1091.766 L112.013,1074.313 L112.3377,1077.509 L112.6623,1081.121 L112.987,1083.892 L113.3117,1085.639 L113.6364,1086.574 L113.961,1087.355 L114.2857,1088.165 L114.6104,1076.841 L114.9351,1079.886 L115.2597,1082.709 L115.5844,1084.682 L115.9091,1085.956 L116.2338,1086.874 L116.5584,1087.847 L116.8831,1088.697 L117.2078,1024.027 L117.5325,1031.228 L117.8571,1039.937 L118.1818,1048.258 L118.5065,1055.347 L118.8312,1061.118 L119.1558,1065.907 L119.4805,1069.262 L119.8052,1093.465 L120.1299,1093.918 L120.4546,1094.905 L120.7792,1095.631 L121.1039,1095.988 L121.4286,1096.193 L121.7533,1096.284 L122.0779,1096.332 L122.4026,1074.278 L122.7273,1076.743 L123.052,1079.726 L123.3766,1082.524 L123.7013,1084.835 L124.026,1086.54 L124.3507,1087.799 L124.6753,1088.726 L125,1092.931 L125.3247,1094.393 L125.6493,1096.15 L125.974,1097.551 L126.2987,1098.442 L126.6234,1098.922 L126.948,1099.098 L127.2727,1099.14 L127.5974,1062.12 L127.9221,1063.333 L128.2467,1064.914 L128.5714,1066.413 L128.8961,1067.335 L129.2208,1067.984 L129.5455,1068.583 L129.8701,1069.186 L130.1948,1090.709 L130.5195,1090.779 L130.8441,1091.013 L131.1688,1091.239 L131.4935,1091.434 L131.8182,1091.551 L132.1429,1091.658 L132.4675,1091.735 L132.7922,1075.117 L133.1169,1077.786 L133.4416,1081.47 L133.7662,1084.735 L134.0909,1087.339 L134.4156,1089.177 L134.7403,1090.259 L135.0649,1090.679 L135.3896,1091.871 L135.7143,1092.383 L136.039,1093.038 L136.3636,1093.531 L136.6883,1093.943 L137.013,1094.342 L137.3377,1094.69 L137.6623,1094.982 L137.987,1090.739 L138.3117,1090.961 L138.6364,1091.195 L138.961,1091.332 L139.2857,1091.486 L139.6104,1091.618 L139.9351,1091.728 L140.2597,1091.81 L140.5844,1097.841 L140.9091,1097.954 L141.2338,1098.031 L141.5584,1098.125 L141.8831,1098.229 L142.2078,1098.307 L142.5325,1098.364 L142.8571,1098.392 L143.1818,1094.758 L143.5065,1095.171 L143.8312,1095.544 L144.1559,1095.595 L144.4805,1095.655 L144.8052,1095.724 L145.1299,1095.761 L145.4545,1095.791 L145.7792,1061.868 L146.1039,1063.253 L146.4286,1064.944 L146.7533,1066.406 L147.0779,1067.572 L147.4026,1068.523 L147.7273,1069.504 L148.052,1070.428 L148.3766,1072.048 L148.7013,1075.073 L149.026,1079.717 L149.3507,1084.551 L149.6753,1088.959 L150,1092.601 L150.3247,1095.24 L150.6493,1096.757 L150.974,1025.685 L151.2987,1032.197 L151.6234,1041.159 L151.948,1049.829 L152.2727,1056.801 L152.5974,1061.938 L152.9221,1065.135 L153.2467,1067.285 L153.5714,1020.115 L153.8961,1031.035 L154.2208,1042.005 L154.5455,1051.892 L154.8701,1060.181 L155.1948,1066.737 L155.5195,1071.973 L155.8441,1076.118 L156.1688,1075.483 L156.4935,1080.101 L156.8182,1083.886 L157.1429,1086.913 L157.4675,1089.315 L157.7922,1091.089 L158.1169,1092.459 L158.4416,1093.389 L158.7662,1087.573 L159.0909,1088.374 L159.4156,1089.76 L159.7403,1091.254 L160.0649,1092.573 L160.3896,1093.677 L160.7143,1094.503 L161.039,1095.012 L161.3636,1054.449 L161.6883,1055.455 L162.013,1058.354 L162.3377,1061.758 L162.6623,1064.988 L162.987,1067.953 L163.3117,1070.495 L163.6364,1072.747 L163.961,1016.98 L164.2857,1019.711 L164.6104,1026.178 L164.9351,1033.971 L165.2597,1042.035 L165.5844,1049.909 L165.9091,1057.377 L166.2338,1064.136 L166.5584,1083.354 L166.8831,1086.028 L167.2078,1088.466 L167.5325,1090.578 L167.8571,1092.258 L168.1818,1093.527 L168.5065,1094.296 L168.8312,1094.819 L169.1559,1091.124 L169.4805,1093.559 L169.8052,1094.307 L170.1299,1094.492 L170.4545,1094.889 L170.7792,1095.223 L171.1039,1095.508 L171.4286,1095.729 L171.7533,1095.426 L172.0779,1095.885 L172.4026,1096.198 L172.7273,1096.268 L173.052,1096.351 L173.3766,1096.431 L173.7013,1096.474 L174.026,1096.515 L174.3507,1086.961 L174.6753,1088.012 L175,1089.345 L175.3247,1090.472 L175.6493,1091.393 L175.974,1092.031 L176.2987,1092.386 L176.6234,1092.646 L176.948,1068.181 L177.2727,1071.651 L177.5974,1076.146 L177.9221,1080.493 L178.2467,1084.3 L178.5714,1087.703 L178.8961,1090.391 L179.2208,1092.317 L179.5455,1078.691 L179.8701,1083.316 L180.1948,1087.001 L180.5195,1089.88 L180.8441,1091.972 L181.1688,1093.089 L181.4935,1093.647 L181.8182,1094.055 L182.1429,1080.692 L182.4675,1082.472 L182.7922,1085.309 L183.1169,1088.118 L183.4416,1090.308 L183.7662,1091.58 L184.0909,1092.282 L184.4156,1092.542 L184.7403,1081.01 L185.0649,1083.765 L185.3896,1086.649 L185.7143,1088.756 L186.039,1090.019 L186.3636,1090.785 L186.6883,1091.375 L187.013,1091.957 L187.3377,1013.65 L187.6623,1036.167 L187.987,1054.658 L188.3117,1066.215 L188.6364,1071.381 L188.961,1074.736 L189.2857,1078.54 L189.6104,1081.589 L189.9351,1040.491 L190.2597,1048.135 L190.5844,1055.106 L190.9091,1061.453 L191.2338,1067.294 L191.5584,1072.652 L191.8831,1077.53 L192.2078,1081.794 L192.5325,1040.898 L192.8571,1048.142 L193.1818,1055.662 L193.5065,1062.328 L193.8312,1065.737 L194.1559,1066.767 L194.4805,1068.001 L194.8052,1069.038 L195.1299,1054.656 L195.4545,1056.603 L195.7792,1060.563 L196.1039,1065.02 L196.4286,1069.025 L196.7533,1072.24 L197.0779,1074.551 L197.4026,1076.03 L197.7273,1048.433 L198.052,1052.938 L198.3766,1059.08 L198.7013,1064.78 L199.026,1069.315 L199.3507,1072.52 L199.6753,1074.778 L200,1075.99 " stroke="blue" fill="none" />
<text x="10" y="1120" font-family="Arial" font-size="12" fill="black">Learning Rate</text>
<path d="M10,6001141 L210,6001141" stroke="gray" />
<text x="5" y="6001146" font-family="Arial" font-size="10" fill="black">0</text>
<text x="5" y="1140" font-family="Arial" font-size="10" fill="black">0.0003</text>
<text x="5" y="1340" font-family="Arial" font-size="10" fill="black">0.0003</text>
<path d="M0.3246753,NaN L0.6493506,NaN L0.974026,NaN L1.298701,NaN L1.623377,NaN L1.948052,NaN L2.272727,NaN L2.597403,NaN L2.922078,NaN L3.246753,NaN L3.571429,NaN L3.896104,NaN L4.220779,NaN L4.545455,NaN L4.87013,NaN L5.194805,NaN L5.519481,NaN L5.844156,NaN L6.168831,NaN L6.493506,NaN L6.818182,NaN L7.142858,NaN L7.467532,NaN L7.792208,NaN L8.116883,NaN L8.441559,NaN L8.766233,NaN L9.090909,NaN L9.415584,NaN L9.740259,NaN L10.06493,NaN L10.38961,NaN L10.71429,NaN L11.03896,NaN L11.36364,NaN L11.68831,NaN L12.01299,NaN L12.33766,NaN L12.66234,NaN L12.98701,NaN L13.31169,NaN L13.63636,NaN L13.96104,NaN L14.28572,NaN L14.61039,NaN L14.93506,NaN L15.25974,NaN L15.58442,NaN L15.90909,NaN L16.23377,NaN L16.55844,NaN L16.88312,NaN L17.20779,NaN L17.53247,NaN L17.85714,NaN L18.18182,NaN L18.50649,NaN L18.83117,NaN L19.15584,NaN L19.48052,NaN L19.80519,NaN L20.12987,NaN L20.45455,NaN L20.77922,NaN L21.1039,NaN L21.42857,NaN L21.75325,NaN L22.07792,NaN L22.4026,NaN L22.72727,NaN L23.05195,NaN L23.37662,NaN L23.7013,NaN L24.02597,NaN L24.35065,NaN L24.67533,NaN L25,NaN L25.32467,NaN L25.64935,NaN L25.97403,NaN L26.2987,NaN L26.62338,NaN L26.94805,NaN L27.27273,NaN L27.5974,NaN L27.92208,NaN L28.24675,NaN L28.57143,NaN L28.8961,NaN L29.22078,NaN L29.54545,NaN L29.87013,NaN L30.1948,NaN L30.51948,NaN L30.84415,NaN L31.16883,NaN L31.49351,NaN L31.81818,NaN L32.14286,NaN L32.46753,NaN L32.79221,NaN L33.11688,NaN L33.44156,NaN L33.76624,NaN L34.09091,NaN L34.41558,NaN L34.74026,NaN L35.06493,NaN L35.38961,NaN L35.71429,NaN L36.03896,NaN L36.36364,NaN L36.68831,NaN L37.01299,NaN L37.33767,NaN L37.66233,NaN L37.98701,NaN L38.31169,NaN L38.63636,NaN L38.96104,NaN L39.28571,NaN L39.61039,NaN L39.93507,NaN L40.25974,NaN L40.58442,NaN L40.90909,NaN L41.23376,NaN L41.55844,NaN L41.88312,NaN L42.20779,NaN L42.53247,NaN L42.85714,NaN L43.18182,NaN L43.50649,NaN L43.83117,NaN L44.15585,NaN L44.48052,NaN L44.80519,NaN L45.12987,NaN L45.45455,NaN L45.77922,NaN L46.10389,NaN L46.42857,NaN L46.75325,NaN L47.07792,NaN L47.4026,NaN L47.72727,NaN L48.05195,NaN L48.37662,NaN L48.7013,NaN L49.02597,NaN L49.35065,NaN L49.67532,NaN L50,NaN L50.32467,NaN L50.64935,NaN L50.97402,NaN L51.2987,NaN L51.62337,NaN L51.94805,NaN L52.27272,NaN L52.5974,NaN L52.92208,NaN L53.24675,NaN L53.57143,NaN L53.89611,NaN L54.22078,NaN L54.54546,NaN L54.87013,NaN L55.19481,NaN L55.51948,NaN L55.84416,NaN L56.16883,NaN L56.49351,NaN L56.81818,NaN L57.14286,NaN L57.46753,NaN L57.79221,NaN L58.11688,NaN L58.44156,NaN L58.76624,NaN L59.09091,NaN L59.41558,NaN L59.74026,NaN L60.06493,NaN L60.38961,NaN L60.71429,NaN L61.03896,NaN L61.36364,NaN L61.68831,NaN L62.01299,NaN L62.33766,NaN L62.66234,NaN L62.98701,NaN L63.31169,NaN L63.63636,NaN L63.96104,NaN L64.28571,NaN L64.61039,NaN L64.93507,NaN L65.25974,NaN L65.58441,NaN L65.9091,NaN L66.23376,NaN L66.55844,NaN L66.88312,NaN L67.20779,NaN L67.53247,NaN L67.85714,NaN L68.18182,NaN L68.50649,NaN L68.83117,NaN L69.15585,NaN L69.48052,NaN L69.80519,NaN L70.12987,NaN L70.45454,NaN L70.77922,NaN L71.1039,NaN L71.42857,NaN L71.75324,NaN L72.07793,NaN L72.4026,NaN L72.72727,NaN L73.05195,NaN L73.37663,NaN L73.7013,NaN L74.02598,NaN L74.35065,NaN L74.67533,NaN L75,NaN L75.32467,NaN L75.64935,NaN L75.97402,NaN L76.2987,NaN L76.62337,NaN L76.94805,NaN L77.27273,NaN L77.5974,NaN L77.92207,NaN L78.24676,NaN L78.57143,NaN L78.8961,NaN L79.22078,NaN L79.54546,NaN L79.87013,NaN L80.19481,NaN L80.51948,NaN L80.84415,NaN L81.16883,NaN L81.49351,NaN L81.81818,NaN L82.14286,NaN L82.46753,NaN L82.79221,NaN L83.11688,NaN L83.44156,NaN L83.76624,NaN L84.0909,NaN L84.41559,NaN L84.74026,NaN L85.06493,NaN L85.38961,NaN L85.71429,NaN L86.03896,NaN L86.36364,NaN L86.68831,NaN L87.01299,NaN L87.33766,NaN L87.66234,NaN L87.98701,NaN L88.31169,NaN L88.63636,NaN L88.96104,NaN L89.28571,NaN L89.61039,NaN L89.93507,NaN L90.25974,NaN L90.58441,NaN L90.9091,NaN L91.23376,NaN L91.55844,NaN L91.88312,NaN L92.20779,NaN L92.53247,NaN L92.85714,NaN L93.18182,NaN L93.50649,NaN L93.83117,NaN L94.15585,NaN L94.48052,NaN L94.80519,NaN L95.12987,NaN L95.45454,NaN L95.77922,NaN L96.1039,NaN L96.42857,NaN L96.75324,NaN L97.07793,NaN L97.4026,NaN L97.72727,NaN L98.05195,NaN L98.37663,NaN L98.7013,NaN L99.02598,NaN L99.35065,NaN L99.67533,NaN L100,NaN L100.3247,NaN L100.6493,NaN L100.974,NaN L101.2987,NaN L101.6234,NaN L101.948,NaN L102.2727,NaN L102.5974,NaN L102.9221,NaN L103.2467,NaN L103.5714,NaN L103.8961,NaN L104.2208,NaN L104.5454,NaN L104.8701,NaN L105.1948,NaN L105.5195,NaN L105.8442,NaN L106.1688,NaN L106.4935,NaN L106.8182,NaN L107.1429,NaN L107.4675,NaN L107.7922,NaN L108.1169,NaN L108.4416,NaN L108.7662,NaN L109.0909,NaN L109.4156,NaN L109.7403,NaN L110.0649,NaN L110.3896,NaN L110.7143,NaN L111.039,NaN L111.3636,NaN L111.6883,NaN L112.013,NaN L112.3377,NaN L112.6623,NaN L112.987,NaN L113.3117,NaN L113.6364,NaN L113.961,NaN L114.2857,NaN L114.6104,NaN L114.9351,NaN L115.2597,NaN L115.5844,NaN L115.9091,NaN L116.2338,NaN L116.5584,NaN L116.8831,NaN L117.2078,NaN L117.5325,NaN L117.8571,NaN L118.1818,NaN L118.5065,NaN L118.8312,NaN L119.1558,NaN L119.4805,NaN L119.8052,NaN L120.1299,NaN L120.4546,NaN L120.7792,NaN L121.1039,NaN L121.4286,NaN L121.7533,NaN L122.0779,NaN L122.4026,NaN L122.7273,NaN L123.052,NaN L123.3766,NaN L123.7013,NaN L124.026,NaN L124.3507,NaN L124.6753,NaN L125,NaN L125.3247,NaN L125.6493,NaN L125.974,NaN L126.2987,NaN L126.6234,NaN L126.948,NaN L127.2727,NaN L127.5974,NaN L127.9221,NaN L128.2467,NaN L128.5714,NaN L128.8961,NaN L129.2208,NaN L129.5455,NaN L129.8701,NaN L130.1948,NaN L130.5195,NaN L130.8441,NaN L131.1688,NaN L131.4935,NaN L131.8182,NaN L132.1429,NaN L132.4675,NaN L132.7922,NaN L133.1169,NaN L133.4416,NaN L133.7662,NaN L134.0909,NaN L134.4156,NaN L134.7403,NaN L135.0649,NaN L135.3896,NaN L135.7143,NaN L136.039,NaN L136.3636,NaN L136.6883,NaN L137.013,NaN L137.3377,NaN L137.6623,NaN L137.987,NaN L138.3117,NaN L138.6364,NaN L138.961,NaN L139.2857,NaN L139.6104,NaN L139.9351,NaN L140.2597,NaN L140.5844,NaN L140.9091,NaN L141.2338,NaN L141.5584,NaN L141.8831,NaN L142.2078,NaN L142.5325,NaN L142.8571,NaN L143.1818,NaN L143.5065,NaN L143.8312,NaN L144.1559,NaN L144.4805,NaN L144.8052,NaN L145.1299,NaN L145.4545,NaN L145.7792,NaN L146.1039,NaN L146.4286,NaN L146.7533,NaN L147.0779,NaN L147.4026,NaN L147.7273,NaN L148.052,NaN L148.3766,NaN L148.7013,NaN L149.026,NaN L149.3507,NaN L149.6753,NaN L150,NaN L150.3247,NaN L150.6493,NaN L150.974,NaN L151.2987,NaN L151.6234,NaN L151.948,NaN L152.2727,NaN L152.5974,NaN L152.9221,NaN L153.2467,NaN L153.5714,NaN L153.8961,NaN L154.2208,NaN L154.5455,NaN L154.8701,NaN L155.1948,NaN L155.5195,NaN L155.8441,NaN L156.1688,NaN L156.4935,NaN L156.8182,NaN L157.1429,NaN L157.4675,NaN L157.7922,NaN L158.1169,NaN L158.4416,NaN L158.7662,NaN L159.0909,NaN L159.4156,NaN L159.7403,NaN L160.0649,NaN L160.3896,NaN L160.7143,NaN L161.039,NaN L161.3636,NaN L161.6883,NaN L162.013,NaN L162.3377,NaN L162.6623,NaN L162.987,NaN L163.3117,NaN L163.6364,NaN L163.961,NaN L164.2857,NaN L164.6104,NaN L164.9351,NaN L165.2597,NaN L165.5844,NaN L165.9091,NaN L166.2338,NaN L166.5584,NaN L166.8831,NaN L167.2078,NaN L167.5325,NaN L167.8571,NaN L168.1818,NaN L168.5065,NaN L168.8312,NaN L169.1559,NaN L169.4805,NaN L169.8052,NaN L170.1299,NaN L170.4545,NaN L170.7792,NaN L171.1039,NaN L171.4286,NaN L171.7533,NaN L172.0779,NaN L172.4026,NaN L172.7273,NaN L173.052,NaN L173.3766,NaN L173.7013,NaN L174.026,NaN L174.3507,NaN L174.6753,NaN L175,NaN L175.3247,NaN L175.6493,NaN L175.974,NaN L176.2987,NaN L176.6234,NaN L176.948,NaN L177.2727,NaN L177.5974,NaN L177.9221,NaN L178.2467,NaN L178.5714,NaN L178.8961,NaN L179.2208,NaN L179.5455,NaN L179.8701,NaN L180.1948,NaN L180.5195,NaN L180.8441,NaN L181.1688,NaN L181.4935,NaN L181.8182,NaN L182.1429,NaN L182.4675,NaN L182.7922,NaN L183.1169,NaN L183.4416,NaN L183.7662,NaN L184.0909,NaN L184.4156,NaN L184.7403,NaN L185.0649,NaN L185.3896,NaN L185.7143,NaN L186.039,NaN L186.3636,NaN L186.6883,NaN L187.013,NaN L187.3377,NaN L187.6623,NaN L187.987,NaN L188.3117,NaN L188.6364,NaN L188.961,NaN L189.2857,NaN L189.6104,NaN L189.9351,NaN L190.2597,NaN L190.5844,NaN L190.9091,NaN L191.2338,NaN L191.5584,NaN L191.8831,NaN L192.2078,NaN L192.5325,NaN L192.8571,NaN L193.1818,NaN L193.5065,NaN L193.8312,NaN L194.1559,NaN L194.4805,NaN L194.8052,NaN L195.1299,NaN L195.4545,NaN L195.7792,NaN L196.1039,NaN L196.4286,NaN L196.7533,NaN L197.0779,NaN L197.4026,NaN L197.7273,NaN L198.052,NaN L198.3766,NaN L198.7013,NaN L199.026,NaN L199.3507,NaN L199.6753,NaN L200,NaN " stroke="blue" fill="none" />
<text x="10" y="1360" font-family="Arial" font-size="12" fill="black">Epsilon</text>
<path d="M10,4.000002E+09 L210,4.000002E+09" stroke="gray" />
<text x="5" y="4.000002E+09" font-family="Arial" font-size="10" fill="black">0</text>
<text x="5" y="1380" font-family="Arial" font-size="10" fill="black">0.2</text>
<text x="5" y="1580" font-family="Arial" font-size="10" fill="black">0.2</text>
<path d="M0.3246753,NaN L0.6493506,NaN L0.974026,NaN L1.298701,NaN L1.623377,NaN L1.948052,NaN L2.272727,NaN L2.597403,NaN L2.922078,NaN L3.246753,NaN L3.571429,NaN L3.896104,NaN L4.220779,NaN L4.545455,NaN L4.87013,NaN L5.194805,NaN L5.519481,NaN L5.844156,NaN L6.168831,NaN L6.493506,NaN L6.818182,NaN L7.142858,NaN L7.467532,NaN L7.792208,NaN L8.116883,NaN L8.441559,NaN L8.766233,NaN L9.090909,NaN L9.415584,NaN L9.740259,NaN L10.06493,NaN L10.38961,NaN L10.71429,NaN L11.03896,NaN L11.36364,NaN L11.68831,NaN L12.01299,NaN L12.33766,NaN L12.66234,NaN L12.98701,NaN L13.31169,NaN L13.63636,NaN L13.96104,NaN L14.28572,NaN L14.61039,NaN L14.93506,NaN L15.25974,NaN L15.58442,NaN L15.90909,NaN L16.23377,NaN L16.55844,NaN L16.88312,NaN L17.20779,NaN L17.53247,NaN L17.85714,NaN L18.18182,NaN L18.50649,NaN L18.83117,NaN L19.15584,NaN L19.48052,NaN L19.80519,NaN L20.12987,NaN L20.45455,NaN L20.77922,NaN L21.1039,NaN L21.42857,NaN L21.75325,NaN L22.07792,NaN L22.4026,NaN L22.72727,NaN L23.05195,NaN L23.37662,NaN L23.7013,NaN L24.02597,NaN L24.35065,NaN L24.67533,NaN L25,NaN L25.32467,NaN L25.64935,NaN L25.97403,NaN L26.2987,NaN L26.62338,NaN L26.94805,NaN L27.27273,NaN L27.5974,NaN L27.92208,NaN L28.24675,NaN L28.57143,NaN L28.8961,NaN L29.22078,NaN L29.54545,NaN L29.87013,NaN L30.1948,NaN L30.51948,NaN L30.84415,NaN L31.16883,NaN L31.49351,NaN L31.81818,NaN L32.14286,NaN L32.46753,NaN L32.79221,NaN L33.11688,NaN L33.44156,NaN L33.76624,NaN L34.09091,NaN L34.41558,NaN L34.74026,NaN L35.06493,NaN L35.38961,NaN L35.71429,NaN L36.03896,NaN L36.36364,NaN L36.68831,NaN L37.01299,NaN L37.33767,NaN L37.66233,NaN L37.98701,NaN L38.31169,NaN L38.63636,NaN L38.96104,NaN L39.28571,NaN L39.61039,NaN L39.93507,NaN L40.25974,NaN L40.58442,NaN L40.90909,NaN L41.23376,NaN L41.55844,NaN L41.88312,NaN L42.20779,NaN L42.53247,NaN L42.85714,NaN L43.18182,NaN L43.50649,NaN L43.83117,NaN L44.15585,NaN L44.48052,NaN L44.80519,NaN L45.12987,NaN L45.45455,NaN L45.77922,NaN L46.10389,NaN L46.42857,NaN L46.75325,NaN L47.07792,NaN L47.4026,NaN L47.72727,NaN L48.05195,NaN L48.37662,NaN L48.7013,NaN L49.02597,NaN L49.35065,NaN L49.67532,NaN L50,NaN L50.32467,NaN L50.64935,NaN L50.97402,NaN L51.2987,NaN L51.62337,NaN L51.94805,NaN L52.27272,NaN L52.5974,NaN L52.92208,NaN L53.24675,NaN L53.57143,NaN L53.89611,NaN L54.22078,NaN L54.54546,NaN L54.87013,NaN L55.19481,NaN L55.51948,NaN L55.84416,NaN L56.16883,NaN L56.49351,NaN L56.81818,NaN L57.14286,NaN L57.46753,NaN L57.79221,NaN L58.11688,NaN L58.44156,NaN L58.76624,NaN L59.09091,NaN L59.41558,NaN L59.74026,NaN L60.06493,NaN L60.38961,NaN L60.71429,NaN L61.03896,NaN L61.36364,NaN L61.68831,NaN L62.01299,NaN L62.33766,NaN L62.66234,NaN L62.98701,NaN L63.31169,NaN L63.63636,NaN L63.96104,NaN L64.28571,NaN L64.61039,NaN L64.93507,NaN L65.25974,NaN L65.58441,NaN L65.9091,NaN L66.23376,NaN L66.55844,NaN L66.88312,NaN L67.20779,NaN L67.53247,NaN L67.85714,NaN L68.18182,NaN L68.50649,NaN L68.83117,NaN L69.15585,NaN L69.48052,NaN L69.80519,NaN L70.12987,NaN L70.45454,NaN L70.77922,NaN L71.1039,NaN L71.42857,NaN L71.75324,NaN L72.07793,NaN L72.4026,NaN L72.72727,NaN L73.05195,NaN L73.37663,NaN L73.7013,NaN L74.02598,NaN L74.35065,NaN L74.67533,NaN L75,NaN L75.32467,NaN L75.64935,NaN L75.97402,NaN L76.2987,NaN L76.62337,NaN L76.94805,NaN L77.27273,NaN L77.5974,NaN L77.92207,NaN L78.24676,NaN L78.57143,NaN L78.8961,NaN L79.22078,NaN L79.54546,NaN L79.87013,NaN L80.19481,NaN L80.51948,NaN L80.84415,NaN L81.16883,NaN L81.49351,NaN L81.81818,NaN L82.14286,NaN L82.46753,NaN L82.79221,NaN L83.11688,NaN L83.44156,NaN L83.76624,NaN L84.0909,NaN L84.41559,NaN L84.74026,NaN L85.06493,NaN L85.38961,NaN L85.71429,NaN L86.03896,NaN L86.36364,NaN L86.68831,NaN L87.01299,NaN L87.33766,NaN L87.66234,NaN L87.98701,NaN L88.31169,NaN L88.63636,NaN L88.96104,NaN L89.28571,NaN L89.61039,NaN L89.93507,NaN L90.25974,NaN L90.58441,NaN L90.9091,NaN L91.23376,NaN L91.55844,NaN L91.88312,NaN L92.20779,NaN L92.53247,NaN L92.85714,NaN L93.18182,NaN L93.50649,NaN L93.83117,NaN L94.15585,NaN L94.48052,NaN L94.80519,NaN L95.12987,NaN L95.45454,NaN L95.77922,NaN L96.1039,NaN L96.42857,NaN L96.75324,NaN L97.07793,NaN L97.4026,NaN L97.72727,NaN L98.05195,NaN L98.37663,NaN L98.7013,NaN L99.02598,NaN L99.35065,NaN L99.67533,NaN L100,NaN L100.3247,NaN L100.6493,NaN L100.974,NaN L101.2987,NaN L101.6234,NaN L101.948,NaN L102.2727,NaN L102.5974,NaN L102.9221,NaN L103.2467,NaN L103.5714,NaN L103.8961,NaN L104.2208,NaN L104.5454,NaN L104.8701,NaN L105.1948,NaN L105.5195,NaN L105.8442,NaN L106.1688,NaN L106.4935,NaN L106.8182,NaN L107.1429,NaN L107.4675,NaN L107.7922,NaN L108.1169,NaN L108.4416,NaN L108.7662,NaN L109.0909,NaN L109.4156,NaN L109.7403,NaN L110.0649,NaN L110.3896,NaN L110.7143,NaN L111.039,NaN L111.3636,NaN L111.6883,NaN L112.013,NaN L112.3377,NaN L112.6623,NaN L112.987,NaN L113.3117,NaN L113.6364,NaN L113.961,NaN L114.2857,NaN L114.6104,NaN L114.9351,NaN L115.2597,NaN L115.5844,NaN L115.9091,NaN L116.2338,NaN L116.5584,NaN L116.8831,NaN L117.2078,NaN L117.5325,NaN L117.8571,NaN L118.1818,NaN L118.5065,NaN L118.8312,NaN L119.1558,NaN L119.4805,NaN L119.8052,NaN L120.1299,NaN L120.4546,NaN L120.7792,NaN L121.1039,NaN L121.4286,NaN L121.7533,NaN L122.0779,NaN L122.4026,NaN L122.7273,NaN L123.052,NaN L123.3766,NaN L123.7013,NaN L124.026,NaN L124.3507,NaN L124.6753,NaN L125,NaN L125.3247,NaN L125.6493,NaN L125.974,NaN L126.2987,NaN L126.6234,NaN L126.948,NaN L127.2727,NaN L127.5974,NaN L127.9221,NaN L128.2467,NaN L128.5714,NaN L128.8961,NaN L129.2208,NaN L129.5455,NaN L129.8701,NaN L130.1948,NaN L130.5195,NaN L130.8441,NaN L131.1688,NaN L131.4935,NaN L131.8182,NaN L132.1429,NaN L132.4675,NaN L132.7922,NaN L133.1169,NaN L133.4416,NaN L133.7662,NaN L134.0909,NaN L134.4156,NaN L134.7403,NaN L135.0649,NaN L135.3896,NaN L135.7143,NaN L136.039,NaN L136.3636,NaN L136.6883,NaN L137.013,NaN L137.3377,NaN L137.6623,NaN L137.987,NaN L138.3117,NaN L138.6364,NaN L138.961,NaN L139.2857,NaN L139.6104,NaN L139.9351,NaN L140.2597,NaN L140.5844,NaN L140.9091,NaN L141.2338,NaN L141.5584,NaN L141.8831,NaN L142.2078,NaN L142.5325,NaN L142.8571,NaN L143.1818,NaN L143.5065,NaN L143.8312,NaN L144.1559,NaN L144.4805,NaN L144.8052,NaN L145.1299,NaN L145.4545,NaN L145.7792,NaN L146.1039,NaN L146.4286,NaN L146.7533,NaN L147.0779,NaN L147.4026,NaN L147.7273,NaN L148.052,NaN L148.3766,NaN L148.7013,NaN L149.026,NaN L149.3507,NaN L149.6753,NaN L150,NaN L150.3247,NaN L150.6493,NaN L150.974,NaN L151.2987,NaN L151.6234,NaN L151.948,NaN L152.2727,NaN L152.5974,NaN L152.9221,NaN L153.2467,NaN L153.5714,NaN L153.8961,NaN L154.2208,NaN L154.5455,NaN L154.8701,NaN L155.1948,NaN L155.5195,NaN L155.8441,NaN L156.1688,NaN L156.4935,NaN L156.8182,NaN L157.1429,NaN L157.4675,NaN L157.7922,NaN L158.1169,NaN L158.4416,NaN L158.7662,NaN L159.0909,NaN L159.4156,NaN L159.7403,NaN L160.0649,NaN L160.3896,NaN L160.7143,NaN L161.039,NaN L161.3636,NaN L161.6883,NaN L162.013,NaN L162.3377,NaN L162.6623,NaN L162.987,NaN L163.3117,NaN L163.6364,NaN L163.961,NaN L164.2857,NaN L164.6104,NaN L164.9351,NaN L165.2597,NaN L165.5844,NaN L165.9091,NaN L166.2338,NaN L166.5584,NaN L166.8831,NaN L167.2078,NaN L167.5325,NaN L167.8571,NaN L168.1818,NaN L168.5065,NaN L168.8312,NaN L169.1559,NaN L169.4805,NaN L169.8052,NaN L170.1299,NaN L170.4545,NaN L170.7792,NaN L171.1039,NaN L171.4286,NaN L171.7533,NaN L172.0779,NaN L172.4026,NaN L172.7273,NaN L173.052,NaN L173.3766,NaN L173.7013,NaN L174.026,NaN L174.3507,NaN L174.6753,NaN L175,NaN L175.3247,NaN L175.6493,NaN L175.974,NaN L176.2987,NaN L176.6234,NaN L176.948,NaN L177.2727,NaN L177.5974,NaN L177.9221,NaN L178.2467,NaN L178.5714,NaN L178.8961,NaN L179.2208,NaN L179.5455,NaN L179.8701,NaN L180.1948,NaN L180.5195,NaN L180.8441,NaN L181.1688,NaN L181.4935,NaN L181.8182,NaN L182.1429,NaN L182.4675,NaN L182.7922,NaN L183.1169,NaN L183.4416,NaN L183.7662,NaN L184.0909,NaN L184.4156,NaN L184.7403,NaN L185.0649,NaN L185.3896,NaN L185.7143,NaN L186.039,NaN L186.3636,NaN L186.6883,NaN L187.013,NaN L187.3377,NaN L187.6623,NaN L187.987,NaN L188.3117,NaN L188.6364,NaN L188.961,NaN L189.2857,NaN L189.6104,NaN L189.9351,NaN L190.2597,NaN L190.5844,NaN L190.9091,NaN L191.2338,NaN L191.5584,NaN L191.8831,NaN L192.2078,NaN L192.5325,NaN L192.8571,NaN L193.1818,NaN L193.5065,NaN L193.8312,NaN L194.1559,NaN L194.4805,NaN L194.8052,NaN L195.1299,NaN L195.4545,NaN L195.7792,NaN L196.1039,NaN L196.4286,NaN L196.7533,NaN L197.0779,NaN L197.4026,NaN L197.7273,NaN L198.052,NaN L198.3766,NaN L198.7013,NaN L199.026,NaN L199.3507,NaN L199.6753,NaN L200,NaN " stroke="blue" fill="none" />
</svg>
