<svg width="2000" height="2500" xmlns="http://www.w3.org/2000/svg">
<text x="10" y="20" font-family="Arial" font-size="26" fill="black"> [<tspan font-weight="bold" fill="blue">Spot</tspan>] Training Session</text>
<text x="10" y="50" font-family="Arial" font-size="16" fill="black">[Statistics]</text>
<text x="50" y="70" font-family="Arial" font-size="12" fill="black">Started at: 8:18:02 PM, Tuesday, April 9, 2024</text>
<text x="50" y="90" font-family="Arial" font-size="12" fill="black">Finished at: 8:18:15 PM, Tuesday, April 9, 2024</text>
<text x="50" y="110" font-family="Arial" font-size="12" fill="black">Training Session Time: 0 hrs : 0 min : 10 sec</text>
<text x="50" y="130" font-family="Arial" font-size="12" fill="black">Inference Time: 0 hrs : 2 min : 19 sec        [Device: CPU]</text>
<text x="50" y="150" font-family="Arial" font-size="12" fill="black">Update Time: 0 hrs : 0 min : 6 sec        [Per iteration: 0 hrs : 0 min : 5.178 sec]        [Device: GPU]</text>
<text x="50" y="170" font-family="Arial" font-size="12" fill="black">Episode Count: 989</text>
<text x="50" y="190" font-family="Arial" font-size="12" fill="black">Inference Steps: 10240</text>
<text x="50" y="210" font-family="Arial" font-size="12" fill="black">Iterations: 1</text>
<text x="50" y="230" font-family="Arial" font-size="12" fill="black">Parallel Agents: 26</text>
<text x="50" y="250" font-family="Arial" font-size="12" fill="black">Timescale: 1</text>
<text x="50" y="270" font-family="Arial" font-size="12" fill="black">Trainer: PPO</text>
<text x="10" y="320" font-family="Arial" font-size="16" fill="black">[Hyperparameters]</text>
<text x="50" y="340" font-family="Arial" font-size="12" fill="black">Buffer Size: 10240        [Batch Size: 512       (x20)]</text>
<text x="50" y="360" font-family="Arial" font-size="12" fill="black">Num Epoch: 8</text>
<text x="50" y="380" font-family="Arial" font-size="12" fill="black">Time Horizon: 4096</text>
<text x="50" y="400" font-family="Arial" font-size="12" fill="black">Gradient Cliping by Norm: 0.5</text>
<text x="50" y="420" font-family="Arial" font-size="12" fill="black">Learning Rate Schedule: False    </text>
<text x="10" y="470" font-family="Arial" font-size="16" fill="black">[Behaviour]</text>
<text x="50" y="490" font-family="Arial" font-size="12" fill="black">Space Size: 110</text>
<text x="50" y="510" font-family="Arial" font-size="12" fill="black">Continuous Actions: 24 [Standard Deviation: Fixed]     [Value: 2.13]</text>
<text x="50" y="530" font-family="Arial" font-size="12" fill="black">Discrete Actions: 0</text>
<text x="50" y="550" font-family="Arial" font-size="12" fill="black">TargetFPS: 100 (physics update rate)</text>
<text x="50" y="570" font-family="Arial" font-size="12" fill="black">Observations Normalization: True</text>
<text x="10" y="620" font-family="Arial" font-size="16" fill="black">[Decision Requester]</text>
<text x="50" y="640" font-family="Arial" font-size="12" fill="black">Max Step: 1000</text>
<text x="50" y="660" font-family="Arial" font-size="12" fill="black">Decision Period: 1</text>
<text x="10" y="710" font-family="Arial" font-size="16" fill="black">[Graphs]</text>
<text x="50" y="730" font-family="Arial" font-size="12" fill="black">Episode Reward (989)</text>
<text x="50" y="745" font-family="Arial" font-size="10" fill="black">0</text>
<text x="50" y="960" font-family="Arial" font-size="10" fill="black">-0.05294922</text>
<path d="M50,750.0001 L50.39063,750.0001 L50.78125,757.5547 L51.17188,753.7772 L51.5625,753.7772 L51.95313,750.0001 L52.34375,772.6669 L52.73438,753.7772 L53.125,750.0001 L53.51563,753.7772 L53.90625,753.7772 L54.29688,750.0001 L54.6875,753.7772 L55.07813,810.4498 L55.46875,750.0001 L55.85938,814.2374 L56.25,814.2487 L56.64063,814.2801 L57.03125,818.0746 L57.42188,753.7772 L57.8125,821.7974 L58.20313,825.5815 L58.59375,753.7772 L58.98438,825.5772 L59.375,750.0001 L59.76563,829.4188 L60.15625,821.8079 L60.54688,833.1727 L60.9375,753.7772 L61.32813,836.9833 L61.71875,840.7272 L62.10938,750.0001 L62.5,840.6567 L62.89063,750.0001 L63.28125,844.5186 L63.67188,821.7834 L64.0625,753.7772 L64.45313,852.0571 L64.84375,852.1463 L65.23438,855.8776 L65.625,753.7772 L66.01563,855.8077 L66.40625,859.6029 L66.79688,750.0001 L67.1875,768.8876 L67.57813,761.3328 L67.96875,867.1809 L68.35938,753.7772 L68.75,799.1417 L69.14063,750.0001 L69.53125,753.7772 L69.92188,750.0001 L70.3125,882.3873 L70.70313,768.8909 L71.09375,821.8056 L71.48438,750.0001 L71.875,753.7772 L72.26563,750.0001 L72.65625,829.4066 L73.04688,810.4815 L73.4375,753.7772 L73.82813,901.2858 L74.21875,836.998 L74.60938,905.0752 L75,750.0001 L75.39063,814.2692 L75.78125,753.7772 L76.17188,753.7772 L76.5625,829.3589 L76.95313,844.4856 L77.34375,750.0001 L77.73438,840.7371 L78.125,784.0095 L78.51563,855.8127 L78.90625,750.0001 L79.29688,753.7772 L79.6875,852.0519 L80.07813,814.2812 L80.46875,750.0001 L80.85938,825.5828 L81.25,836.9698 L81.64063,821.8582 L82.03125,753.7772 L82.42188,840.7548 L82.8125,750.0001 L83.20313,885.9285 L83.59375,753.7772 L83.98438,750.0001 L84.375,852.0504 L84.76563,821.8278 L85.15625,852.1307 L85.54688,780.2322 L85.9375,753.7772 L86.32813,818.0557 L86.71875,863.5018 L87.10938,750.0001 L87.5,750.0001 L87.89063,882.3461 L88.28125,825.5969 L88.67188,753.7772 L89.0625,757.5549 L89.45313,787.7776 L89.84375,750.0001 L90.23438,848.3263 L90.625,753.7772 L91.01563,871.1002 L91.40625,761.3315 L91.79688,761.3327 L92.1875,753.7772 L92.57813,750.0001 L92.96875,750.0001 L93.35938,810.4713 L93.75,848.3027 L94.14063,753.7772 L94.53125,753.7772 L94.92188,840.777 L95.3125,829.3824 L95.70313,750.0001 L96.09375,772.6619 L96.48438,768.8902 L96.875,750.0001 L97.26563,753.7772 L97.65625,852.0272 L98.04688,750.0001 L98.4375,855.8907 L98.82813,852.0936 L99.21875,753.7772 L99.60938,852.0917 L100,848.2967 L100.3906,761.3331 L100.7813,836.944 L101.1719,878.5262 L101.5625,750.0001 L101.9531,886.1414 L102.3438,825.6185 L102.7344,753.7772 L103.125,833.1473 L103.5156,893.743 L103.9063,750.0001 L104.2969,825.5384 L104.6875,859.6433 L105.0781,753.7772 L105.4688,833.2062 L105.8594,750.0001 L106.25,855.8605 L106.6406,848.3044 L107.0313,852.0722 L107.4219,799.1533 L107.8125,753.7772 L108.2031,750.0001 L108.5938,829.3806 L108.9844,753.7772 L109.375,791.5618 L109.7656,750.0001 L110.1563,750.0001 L110.5469,757.5544 L110.9375,836.9343 L111.3281,753.7772 L111.7188,750.0001 L112.1094,753.7772 L112.5,765.1109 L112.8906,750.0001 L113.2813,818.0499 L113.6719,753.7772 L114.0625,859.7618 L114.4531,750.0001 L114.8438,882.3256 L115.2344,818.0369 L115.625,761.3326 L116.0156,836.9846 L116.4063,753.7772 L116.7969,836.9619 L117.1875,787.7829 L117.5781,848.2718 L117.9688,840.7052 L118.3594,844.4686 L118.75,833.184 L119.1406,753.7772 L119.5313,867.167 L119.9219,863.3459 L120.3125,761.3318 L120.7031,750.0001 L121.0938,750.0001 L121.4844,833.0853 L121.875,821.8234 L122.2656,753.7772 L122.6563,753.7772 L123.0469,844.4899 L123.4375,840.7535 L123.8281,761.333 L124.2188,750.0001 L124.6094,836.9635 L125,753.7772 L125.3906,874.6541 L125.7813,750.0001 L126.1719,753.7772 L126.5625,855.8793 L126.9531,795.347 L127.3438,859.7441 L127.7344,787.8013 L128.125,753.7772 L128.5156,750.0001 L128.9063,886.1055 L129.2969,753.7772 L129.6875,897.3985 L130.0781,818.0477 L130.4688,750.0001 L130.8594,753.7772 L131.25,821.8266 L131.6406,768.8894 L132.0313,753.7772 L132.4219,825.5986 L132.8125,750.0001 L133.2031,802.9345 L133.5938,829.3677 L133.9844,750.0001 L134.375,833.1885 L134.7656,833.1798 L135.1563,829.3885 L135.5469,753.7772 L135.9375,844.4937 L136.3281,750.0001 L136.7188,882.3342 L137.1094,855.9514 L137.5,814.2975 L137.8906,753.7772 L138.2813,859.6192 L138.6719,768.892 L139.0625,750.0001 L139.4531,829.4048 L139.8438,750.0001 L140.2344,806.6588 L140.625,852.1003 L141.0156,753.7772 L141.4063,750.0001 L141.7969,840.7463 L142.1875,757.5545 L142.5781,829.369 L142.9688,889.9637 L143.3594,753.7772 L143.75,750.0001 L144.1406,867.2818 L144.5313,818.0353 L144.9219,753.7772 L145.3125,776.4474 L145.7031,750.0001 L146.0938,750.0001 L146.4844,806.6865 L146.875,753.7772 L147.2656,806.6884 L147.6563,844.4855 L148.0469,776.4429 L148.4375,753.7772 L148.8281,825.634 L149.2188,855.8784 L149.6094,761.3336 L150,753.7772 L150.3906,814.2855 L150.7813,750.0001 L151.1719,753.7772 L151.5625,844.5294 L151.9531,768.8894 L152.3438,753.7772 L152.7344,844.4572 L153.125,750.0001 L153.5156,874.7586 L153.9063,844.5062 L154.2969,753.7772 L154.6875,859.553 L155.0781,750.0001 L155.4688,855.8322 L155.8594,851.9777 L156.25,768.894 L156.6406,825.5948 L157.0313,753.7772 L157.4219,802.9171 L157.8125,750.0001 L158.2031,855.8242 L158.5938,844.4668 L158.9844,848.2639 L159.375,753.7772 L159.7656,810.4749 L160.1563,901.2667 L160.5469,844.563 L160.9375,768.8924 L161.3281,753.7772 L161.7188,750.0001 L162.1094,840.7538 L162.5,761.332 L162.8906,753.7772 L163.2813,874.8048 L163.6719,821.8141 L164.0625,750.0001 L164.4531,780.2324 L164.8438,753.7772 L165.2344,750.0001 L165.625,750.0001 L166.0156,753.7772 L166.4063,852.1146 L166.7969,772.6724 L167.1875,750.0001 L167.5781,852.0865 L167.9688,874.9364 L168.3594,753.7772 L168.75,825.6082 L169.1406,772.6735 L169.5313,761.3323 L169.9219,753.7772 L170.3125,750.0001 L170.7031,750.0001 L171.0938,859.6515 L171.4844,818.0575 L171.875,848.2626 L172.2656,753.7772 L172.6563,848.3104 L173.0469,836.9554 L173.4375,761.3328 L173.8281,765.1097 L174.2188,833.1302 L174.6094,753.7772 L175,750.0001 L175.3906,821.8159 L175.7813,750.0001 L176.1719,900.944 L176.5625,818.0496 L176.9531,753.7772 L177.3438,750.0001 L177.7344,852.0226 L178.125,825.5956 L178.5156,765.1089 L178.9063,753.7772 L179.2969,750.0001 L179.6875,855.8536 L180.0781,753.7772 L180.4688,863.3245 L180.8594,950 L181.25,791.5826 L181.6406,750.0001 L182.0313,863.3433 L182.4219,753.7772 L182.8125,750.0001 L183.2031,901.3253 L183.5938,753.7772 L183.9844,750.0001 L184.375,814.2331 L184.7656,882.3104 L185.1563,810.4479 L185.5469,753.7772 L185.9375,750.0001 L186.3281,818.0721 L186.7188,893.6237 L187.1094,795.382 L187.5,753.7772 L187.8906,882.3671 L188.2813,852.0861 L188.6719,859.6889 L189.0625,750.0001 L189.4531,750.0001 L189.8438,757.5541 L190.2344,852.047 L190.625,859.7595 L191.0156,753.7772 L191.4063,829.3199 L191.7969,750.0001 L192.1875,848.2648 L192.5781,806.694 L192.9688,821.8343 L193.3594,855.9289 L193.75,753.7772 L194.1406,837.0136 L194.5313,844.5115 L194.9219,750.0001 L195.3125,852.0244 L195.7031,776.4359 L196.0938,753.7772 L196.4844,750.0001 L196.875,829.3938 L197.2656,753.7772 L197.6563,836.9505 L198.0469,833.0931 L198.4375,750.0001 L198.8281,833.1959 L199.2188,753.7772 L199.6094,859.5712 L200,765.1097 L200.3906,814.2369 L200.7813,750.0001 L201.1719,818.0406 L201.5625,750.0001 L201.9531,791.5646 L202.3438,753.7772 L202.7344,750.0001 L203.125,753.7772 L203.5156,818.006 L203.9063,750.0001 L204.2969,783.9938 L204.6875,768.8878 L205.0781,844.5173 L205.4688,806.6784 L205.8594,753.7772 L206.25,753.7772 L206.6406,750.0001 L207.0313,818.0513 L207.4219,833.2128 L207.8125,753.7772 L208.2031,825.631 L208.5938,750.0001 L208.9844,829.3752 L209.375,753.7772 L209.7656,848.275 L210.1563,882.3562 L210.5469,750.0001 L210.9375,844.5353 L211.3281,818.038 L211.7188,859.669 L212.1094,772.6656 L212.5,863.4464 L212.8906,806.7626 L213.2813,753.7772 L213.6719,810.4564 L214.0625,840.6832 L214.4531,750.0001 L214.8438,852.0524 L215.2344,750.0001 L215.625,870.962 L216.0156,761.3315 L216.4063,753.7772 L216.7969,750.0001 L217.1875,761.3325 L217.5781,844.4772 L217.9688,829.3905 L218.3594,750.0001 L218.75,753.7772 L219.1406,750.0001 L219.5313,848.3074 L219.9219,840.7159 L220.3125,901.2294 L220.7031,818.0408 L221.0938,821.8237 L221.4844,753.7772 L221.875,750.0001 L222.2656,825.5624 L222.6563,753.7772 L223.0469,787.7808 L223.4375,753.7772 L223.8281,825.6295 L224.2188,810.4462 L224.6094,772.6718 L225,753.7772 L225.3906,753.7772 L225.7813,844.5014 L226.1719,753.7772 L226.5625,814.2529 L226.9531,750.0001 L227.3438,833.1634 L227.7344,799.1224 L228.125,852.0886 L228.5156,750.0001 L228.9063,753.7772 L229.2969,768.8905 L229.6875,750.0001 L230.0781,840.7242 L230.4688,836.9257 L230.8594,753.7772 L231.25,836.9568 L231.6406,836.9315 L232.0313,863.447 L232.4219,757.5545 L232.8125,750.0001 L233.2031,753.7772 L233.5938,750.0001 L233.9844,776.45 L234.375,795.3342 L234.7656,810.4684 L235.1563,825.5933 L235.5469,750.0001 L235.9375,753.7772 L236.3281,750.0001 L236.7188,836.9005 L237.1094,874.7781 L237.5,753.7772 L237.8906,780.2184 L238.2813,855.804 L238.6719,814.2637 L239.0625,878.4776 L239.4531,753.7772 L239.8438,874.7731 L240.2344,889.8412 L240.625,855.8525 L241.0156,753.7772 L241.4063,829.3908 L241.7969,871.0167 L242.1875,750.0001 L242.5781,836.9613 L242.9688,783.9978 L243.3594,825.6658 L243.75,753.7772 L244.1406,750.0001 L244.5313,750.0001 L244.9219,829.3893 L245.3125,753.7772 L245.7031,818.0661 L246.0938,750.0001 L246.4844,836.9559 L246.875,787.8 L247.2656,806.6777 L247.6563,753.7772 L248.0469,750.0001 L248.4375,897.4362 L248.8281,753.7772 L249.2188,848.2976 L249.6094,753.7772 L250,750.0001 L250.3906,852.0873 L250.7813,833.157 L251.1719,840.7225 L251.5625,753.7772 L251.9531,799.1504 L252.3438,750.0001 L252.7344,863.4998 L253.125,750.0001 L253.5156,829.3907 L253.9063,753.7772 L254.2969,821.8295 L254.6875,825.6002 L255.0781,818.0599 L255.4688,753.7772 L255.8594,848.2713 L256.25,886.0082 L256.6406,750.0001 L257.0313,848.3174 L257.4219,840.6031 L257.8125,859.6259 L258.2031,821.8378 L258.5938,768.8881 L258.9844,810.4523 L259.375,753.7772 L259.7656,750.0001 L260.1563,859.6578 L260.5469,753.7772 L260.9375,825.5781 L261.3281,753.7772 L261.7188,768.8859 L262.1094,750.0001 L262.5,870.9965 L262.8906,836.995 L263.2813,870.9832 L263.6719,855.8818 L264.0625,753.7772 L264.4531,768.8884 L264.8438,753.7772 L265.2344,750.0001 L265.625,859.6511 L266.0156,825.5411 L266.4063,753.7772 L266.7969,844.4932 L267.1875,814.2581 L267.5781,821.8519 L267.9688,750.0001 L268.3594,833.1173 L268.75,784.0092 L269.1406,753.7772 L269.5313,810.4803 L269.9219,753.7772 L270.3125,852.0519 L270.7031,780.2233 L271.0938,750.0001 L271.4844,765.1084 L271.875,829.3462 L272.2656,753.7772 L272.6563,836.9556 L273.0469,848.3068 L273.4375,750.0001 L273.8281,750.0001 L274.2188,810.4996 L274.6094,836.9144 L275,753.7772 L275.3906,848.3002 L275.7813,750.0001 L276.1719,772.6655 L276.5625,855.8743 L276.9531,753.7772 L277.3438,901.1849 L277.7344,768.8895 L278.125,750.0001 L278.5156,855.8558 L278.9063,750.0001 L279.2969,753.7772 L279.6875,863.341 L280.0781,874.7796 L280.4688,750.0001 L280.8594,855.8523 L281.25,768.8824 L281.6406,806.6962 L282.0313,753.7772 L282.4219,821.8474 L282.8125,765.1135 L283.2031,750.0001 L283.5938,757.5546 L283.9844,836.9163 L284.375,855.869 L284.7656,757.5552 L285.1563,753.7772 L285.5469,757.5544 L285.9375,753.7772 L286.3281,750.0001 L286.7188,855.7889 L287.1094,844.5051 L287.5,753.7772 L287.8906,878.538 L288.2813,833.1703 L288.6719,855.7826 L289.0625,882.2947 L289.4531,753.7772 L289.8438,783.9973 L290.2344,750.0001 L290.625,863.462 L291.0156,836.9363 L291.4063,753.7772 L291.7969,829.3873 L292.1875,750.0001 L292.5781,836.9619 L292.9688,753.7772 L293.3594,825.5731 L293.75,810.4643 L294.1406,753.7772 L294.5313,776.449 L294.9219,863.2698 L295.3125,825.6324 L295.7031,750.0001 L296.0938,750.0001 L296.4844,810.4509 L296.875,848.2689 L297.2656,867.1831 L297.6563,859.6711 L298.0469,753.7772 L298.4375,836.9635 L298.8281,753.7772 L299.2188,750.0001 L299.6094,765.1105 L300,810.508 L300.3906,750.0001 L300.7813,753.7772 L301.1719,750.0001 L301.5625,855.8817 L301.9531,799.1239 L302.3438,844.5132 L302.7344,753.7772 L303.125,750.0001 L303.5156,836.9552 L303.9063,768.8935 L304.2969,848.221 L304.6875,753.7772 L305.0781,750.0001 L305.4688,753.7772 L305.8594,901.3085 L306.25,761.3322 L306.6407,836.9979 L307.0313,814.2361 L307.4219,753.7772 L307.8125,821.8538 L308.2031,750.0001 L308.5938,829.3703 L308.9844,818.0503 L309.375,825.62 L309.7656,753.7772 L310.1563,750.0001 L310.5469,870.9766 L310.9375,870.9216 L311.3281,852.1036 L311.7188,867.223 L312.1094,863.5503 L312.5,772.6691 L312.8906,833.1768 L313.2813,753.7772 L313.6719,750.0001 L314.0625,878.6165 L314.4532,836.9221 L314.8438,753.7772 L315.2344,844.5007 L315.625,814.2717 L316.0156,761.3319 L316.4063,916.5278 L316.7969,806.6806 L317.1875,753.7772 L317.5781,750.0001 L317.9688,750.0001 L318.3594,855.8373 L318.75,753.7772 L319.1406,750.0001 L319.5313,753.7772 L319.9219,833.1531 L320.3125,750.0001 L320.7031,810.451 L321.0938,810.478 L321.4844,753.7772 L321.875,821.8072 L322.2657,859.6445 L322.6563,780.2292 L323.0469,750.0001 L323.4375,863.4708 L323.8281,810.4841 L324.2188,753.7772 L324.6094,765.1095 L325,882.3955 L325.3906,761.3313 L325.7813,753.7772 L326.1719,750.0001 L326.5625,844.5413 L326.9531,836.9632 L327.3438,753.7772 L327.7344,814.2464 L328.125,750.0001 L328.5156,836.937 L328.9063,753.7772 L329.2969,814.281 L329.6875,829.4053 L330.0782,844.4858 L330.4688,821.7523 L330.8594,825.5897 L331.25,750.0001 L331.6406,768.8942 L332.0313,750.0001 L332.4219,753.7772 L332.8125,750.0001 L333.2031,855.9188 L333.5938,852.0914 L333.9844,765.1121 L334.375,753.7772 L334.7656,799.1083 L335.1563,753.7772 L335.5469,897.4907 L335.9375,768.8898 L336.3281,750.0001 L336.7188,878.5479 L337.1094,901.3359 L337.5,882.3674 L337.8907,765.1091 L338.2813,757.5546 L338.6719,753.7772 L339.0625,750.0001 L339.4531,840.7145 L339.8438,829.3875 L340.2344,761.3322 L340.625,821.8448 L341.0156,757.5551 L341.4063,753.7772 L341.7969,750.0001 L342.1875,765.1125 L342.5781,753.7772 L342.9688,855.8401 L343.3594,852.0455 L343.75,753.7772 L344.1406,833.1223 L344.5313,750.0001 L344.9219,852.0995 L345.3125,776.4543 L345.7032,905.3962 L346.0938,750.0001 L346.4844,753.7772 L346.875,840.7149 L347.2656,750.0001 L347.6563,852.059 L348.0469,844.5104 L348.4375,780.219 L348.8281,753.7772 L349.2188,840.7073 L349.6094,750.0001 L350,844.5093 L350.3906,765.1105 L350.7813,753.7772 L351.1719,806.6948 L351.5625,852.0446 L351.9531,761.3326 L352.3438,802.9236 L352.7344,750.0001 L353.125,855.7687 L353.5157,885.9365 L353.9063,753.7772 L354.2969,757.5547 L354.6875,757.5544 L355.0781,750.0001 L355.4688,772.6714 L355.8594,825.6375 L356.25,753.7772 L356.6406,750.0001 L357.0313,757.5546 L357.4219,750.0001 L357.8125,867.3334 L358.2031,802.9163 L358.5938,753.7772 L358.9844,840.7008 L359.375,750.0001 L359.7656,852.081 L360.1563,874.7678 L360.5469,765.1111 L360.9375,753.7772 L361.3282,750.0001 L361.7188,867.2088 L362.1094,821.8472 L362.5,776.4458 L362.8906,787.7822 L363.2813,753.7772 L363.6719,750.0001 L364.0625,821.8231 L364.4531,836.9921 L364.8438,750.0001 L365.2344,765.1107 L365.625,780.2187 L366.0156,753.7772 L366.4063,855.8071 L366.7969,814.2635 L367.1875,844.517 L367.5781,750.0001 L367.9688,757.5545 L368.3594,810.5009 L368.75,821.8084 L369.1407,889.9384 L369.5313,765.1135 L369.9219,753.7772 L370.3125,901.2715 L370.7031,836.9581 L371.0938,863.4167 L371.4844,750.0001 L371.875,750.0001 L372.2656,802.9182 L372.6563,753.7772 L373.0469,750.0001 L373.4375,836.9491 L373.8281,852.0977 L374.2188,753.7772 L374.6094,795.363 L375,750.0001 L375.3906,833.1406 L375.7813,870.9567 L376.1719,799.1318 L376.5625,753.7772 L376.9532,750.0001 L377.3438,784.0065 L377.7344,829.4244 L378.125,750.0001 L378.5156,753.7772 L378.9063,750.0001 L379.2969,840.6575 L379.6875,825.631 L380.0781,753.7772 L380.4688,840.7122 L380.8594,761.3313 L381.25,825.575 L381.6406,750.0001 L382.0313,818.0256 L382.4219,750.0001 L382.8125,753.7772 L383.2031,825.5995 L383.5938,750.0001 L383.9844,825.5912 L384.375,836.9625 L384.7657,761.3317 L385.1563,799.1359 L385.5469,753.7772 L385.9375,836.9269 L386.3281,750.0001 L386.7188,753.7772 L387.1094,750.0001 L387.5,848.2776 L387.8906,765.1081 L388.2813,829.3658 L388.6719,844.5331 L389.0625,753.7772 L389.4531,878.5556 L389.8438,750.0001 L390.2344,776.4506 L390.625,750.0001 L391.0156,761.3317 L391.4063,825.5965 L391.7969,753.7772 L392.1875,833.2097 L392.5782,750.0001 L392.9688,863.3686 L393.3594,848.3033 L393.75,859.654 L394.1406,810.4539 L394.5313,753.7772 L394.9219,874.7876 L395.3125,761.3334 L395.7031,761.3317 L396.0938,753.7772 L396.4844,836.9517 L396.875,885.8401 L397.2656,750.0001 L397.6563,852.0244 L398.0469,886.1451 L398.4375,833.1495 L398.8281,753.7772 L399.2188,840.749 L399.6094,765.1107 L400,765.1099 L400.3907,750.0001 L400.7813,840.7261 L401.1719,802.897 L401.5625,753.7772 L401.9531,825.6208 L402.3438,840.7395 L402.7344,750.0001 L403.125,836.9651 L403.5156,753.7772 L403.9063,833.1254 L404.2969,750.0001 L404.6875,772.6671 L405.0781,750.0001 L405.4688,806.6896 L405.8594,753.7772 L406.25,750.0001 L406.6406,753.7772 L407.0313,814.2728 L407.4219,863.5846 L407.8125,753.7772 L408.2032,810.4801 L408.5938,750.0001 L408.9844,836.9351 L409.375,753.7772 L409.7656,799.1352 L410.1563,780.2266 L410.5469,810.4465 L410.9375,750.0001 L411.3281,750.0001 L411.7188,821.8067 L412.1094,753.7772 L412.5,848.283 L412.8906,750.0001 L413.2813,848.2891 L413.6719,870.9462 L414.0625,818.0347 L414.4531,818.0156 L414.8438,753.7772 L415.2344,844.4868 L415.625,750.0001 L416.0157,836.9212 L416.4063,844.5197 L416.7969,772.6714 L417.1875,753.7772 L417.5781,867.3167 L417.9688,750.0001 L418.3594,840.7258 L418.75,753.7772 L419.1406,787.7988 L419.5313,821.8517 L419.9219,840.7671 L420.3125,753.7772 L420.7031,806.6959 L421.0938,750.0001 L421.4844,817.9892 L421.875,795.3796 L422.2656,768.8915 L422.6563,761.3331 L423.0469,753.7772 L423.4375,889.917 L423.8282,750.0001 L424.2188,814.2516 L424.6094,750.0001 L425,916.4228 L425.3906,833.176 L425.7813,753.7772 L426.1719,750.0001 L426.5625,889.8623 L426.9531,825.6036 L427.3438,810.4629 L427.7344,753.7772 L428.125,768.8882 L428.5156,753.7772 L428.9063,780.2216 L429.2969,787.7838 L429.6875,750.0001 L430.0781,753.7772 L430.4688,750.0001 L430.8594,893.7006 L431.25,761.3328 L431.6407,799.1243 L432.0313,753.7772 L432.4219,814.2714 L432.8125,836.9339 L433.2031,750.0001 L433.5938,848.2928 L433.9844,836.962 L434.375,840.7793 L434.7656,829.332 L435.1563,855.8649 L435.5469,753.7772 L435.9375,855.8521 " stroke="blue" fill="none" />
<text x="50" y="1000" font-family="Arial" font-size="12" fill="black">Episode Length (989)</text>
<text x="50" y="1015" font-family="Arial" font-size="10" fill="black">54</text>
<text x="50" y="1230" font-family="Arial" font-size="10" fill="black">0</text>
<path d="M50,1220 L50.39063,1220 L50.78125,1212.593 L51.17188,1212.593 L51.5625,1212.593 L51.95313,1216.296 L52.34375,1197.778 L52.73438,1212.593 L53.125,1216.296 L53.51563,1212.593 L53.90625,1212.593 L54.29688,1216.296 L54.6875,1212.593 L55.07813,1160.741 L55.46875,1216.296 L55.85938,1157.037 L56.25,1157.037 L56.64063,1157.037 L57.03125,1153.333 L57.42188,1212.593 L57.8125,1149.63 L58.20313,1145.926 L58.59375,1212.593 L58.98438,1145.926 L59.375,1216.296 L59.76563,1142.222 L60.15625,1145.926 L60.54688,1134.815 L60.9375,1212.593 L61.32813,1134.815 L61.71875,1131.111 L62.10938,1216.296 L62.5,1131.111 L62.89063,1216.296 L63.28125,1127.407 L63.67188,1145.926 L64.0625,1212.593 L64.45313,1120 L64.84375,1120 L65.23438,1116.296 L65.625,1212.593 L66.01563,1116.296 L66.40625,1112.593 L66.79688,1216.296 L67.1875,1197.778 L67.57813,1205.185 L67.96875,1105.185 L68.35938,1212.593 L68.75,1168.148 L69.14063,1216.296 L69.53125,1212.593 L69.92188,1216.296 L70.3125,1090.37 L70.70313,1197.778 L71.09375,1145.926 L71.48438,1216.296 L71.875,1212.593 L72.26563,1216.296 L72.65625,1138.519 L73.04688,1157.037 L73.4375,1212.593 L73.82813,1071.852 L74.21875,1131.111 L74.60938,1068.148 L75,1216.296 L75.39063,1153.333 L75.78125,1212.593 L76.17188,1212.593 L76.5625,1138.519 L76.95313,1123.704 L77.34375,1216.296 L77.73438,1127.407 L78.125,1182.963 L78.51563,1112.593 L78.90625,1216.296 L79.29688,1212.593 L79.6875,1116.296 L80.07813,1153.333 L80.46875,1216.296 L80.85938,1142.222 L81.25,1131.111 L81.64063,1145.926 L82.03125,1212.593 L82.42188,1127.407 L82.8125,1216.296 L83.20313,1082.963 L83.59375,1212.593 L83.98438,1216.296 L84.375,1116.296 L84.76563,1145.926 L85.15625,1116.296 L85.54688,1186.667 L85.9375,1212.593 L86.32813,1149.63 L86.71875,1105.185 L87.10938,1216.296 L87.5,1216.296 L87.89063,1086.667 L88.28125,1142.222 L88.67188,1212.593 L89.0625,1208.889 L89.45313,1179.259 L89.84375,1216.296 L90.23438,1120 L90.625,1212.593 L91.01563,1097.778 L91.40625,1205.185 L91.79688,1205.185 L92.1875,1212.593 L92.57813,1216.296 L92.96875,1216.296 L93.35938,1157.037 L93.75,1120 L94.14063,1212.593 L94.53125,1212.593 L94.92188,1127.407 L95.3125,1138.519 L95.70313,1216.296 L96.09375,1194.074 L96.48438,1197.778 L96.875,1216.296 L97.26563,1212.593 L97.65625,1116.296 L98.04688,1216.296 L98.4375,1112.593 L98.82813,1116.296 L99.21875,1212.593 L99.60938,1116.296 L100,1120 L100.3906,1205.185 L100.7813,1131.111 L101.1719,1090.37 L101.5625,1216.296 L101.9531,1082.963 L102.3438,1142.222 L102.7344,1212.593 L103.125,1134.815 L103.5156,1075.556 L103.9063,1216.296 L104.2969,1142.222 L104.6875,1108.889 L105.0781,1212.593 L105.4688,1134.815 L105.8594,1216.296 L106.25,1112.593 L106.6406,1120 L107.0313,1116.296 L107.4219,1168.148 L107.8125,1212.593 L108.2031,1216.296 L108.5938,1138.519 L108.9844,1212.593 L109.375,1175.556 L109.7656,1216.296 L110.1563,1216.296 L110.5469,1208.889 L110.9375,1131.111 L111.3281,1212.593 L111.7188,1216.296 L112.1094,1212.593 L112.5,1201.481 L112.8906,1216.296 L113.2813,1149.63 L113.6719,1212.593 L114.0625,1108.889 L114.4531,1216.296 L114.8438,1086.667 L115.2344,1149.63 L115.625,1205.185 L116.0156,1131.111 L116.4063,1212.593 L116.7969,1131.111 L117.1875,1179.259 L117.5781,1120 L117.9688,1127.407 L118.3594,1123.704 L118.75,1134.815 L119.1406,1212.593 L119.5313,1101.481 L119.9219,1105.185 L120.3125,1205.185 L120.7031,1216.296 L121.0938,1216.296 L121.4844,1134.815 L121.875,1145.926 L122.2656,1212.593 L122.6563,1212.593 L123.0469,1123.704 L123.4375,1127.407 L123.8281,1205.185 L124.2188,1216.296 L124.6094,1131.111 L125,1212.593 L125.3906,1094.074 L125.7813,1216.296 L126.1719,1212.593 L126.5625,1112.593 L126.9531,1171.852 L127.3438,1108.889 L127.7344,1179.259 L128.125,1212.593 L128.5156,1216.296 L128.9063,1082.963 L129.2969,1212.593 L129.6875,1071.852 L130.0781,1149.63 L130.4688,1216.296 L130.8594,1212.593 L131.25,1145.926 L131.6406,1197.778 L132.0313,1212.593 L132.4219,1142.222 L132.8125,1216.296 L133.2031,1164.444 L133.5938,1138.519 L133.9844,1216.296 L134.375,1134.815 L134.7656,1134.815 L135.1563,1138.519 L135.5469,1212.593 L135.9375,1123.704 L136.3281,1216.296 L136.7188,1086.667 L137.1094,1112.593 L137.5,1153.333 L137.8906,1212.593 L138.2813,1108.889 L138.6719,1197.778 L139.0625,1216.296 L139.4531,1138.519 L139.8438,1216.296 L140.2344,1160.741 L140.625,1116.296 L141.0156,1212.593 L141.4063,1216.296 L141.7969,1127.407 L142.1875,1208.889 L142.5781,1138.519 L142.9688,1079.259 L143.3594,1212.593 L143.75,1216.296 L144.1406,1101.481 L144.5313,1149.63 L144.9219,1212.593 L145.3125,1190.37 L145.7031,1216.296 L146.0938,1216.296 L146.4844,1160.741 L146.875,1212.593 L147.2656,1160.741 L147.6563,1123.704 L148.0469,1190.37 L148.4375,1212.593 L148.8281,1142.222 L149.2188,1112.593 L149.6094,1205.185 L150,1212.593 L150.3906,1153.333 L150.7813,1216.296 L151.1719,1212.593 L151.5625,1123.704 L151.9531,1197.778 L152.3438,1212.593 L152.7344,1123.704 L153.125,1216.296 L153.5156,1094.074 L153.9063,1123.704 L154.2969,1212.593 L154.6875,1108.889 L155.0781,1216.296 L155.4688,1112.593 L155.8594,1116.296 L156.25,1197.778 L156.6406,1142.222 L157.0313,1212.593 L157.4219,1164.444 L157.8125,1216.296 L158.2031,1112.593 L158.5938,1123.704 L158.9844,1120 L159.375,1212.593 L159.7656,1157.037 L160.1563,1068.148 L160.5469,1123.704 L160.9375,1197.778 L161.3281,1212.593 L161.7188,1216.296 L162.1094,1127.407 L162.5,1205.185 L162.8906,1212.593 L163.2813,1094.074 L163.6719,1145.926 L164.0625,1216.296 L164.4531,1186.667 L164.8438,1212.593 L165.2344,1216.296 L165.625,1216.296 L166.0156,1212.593 L166.4063,1116.296 L166.7969,1194.074 L167.1875,1216.296 L167.5781,1116.296 L167.9688,1094.074 L168.3594,1212.593 L168.75,1142.222 L169.1406,1194.074 L169.5313,1205.185 L169.9219,1212.593 L170.3125,1216.296 L170.7031,1216.296 L171.0938,1108.889 L171.4844,1149.63 L171.875,1120 L172.2656,1212.593 L172.6563,1120 L173.0469,1131.111 L173.4375,1205.185 L173.8281,1201.481 L174.2188,1134.815 L174.6094,1212.593 L175,1216.296 L175.3906,1145.926 L175.7813,1216.296 L176.1719,1068.148 L176.5625,1149.63 L176.9531,1212.593 L177.3438,1216.296 L177.7344,1116.296 L178.125,1142.222 L178.5156,1201.481 L178.9063,1212.593 L179.2969,1216.296 L179.6875,1112.593 L180.0781,1212.593 L180.4688,1105.185 L180.8594,1020 L181.25,1175.556 L181.6406,1216.296 L182.0313,1105.185 L182.4219,1212.593 L182.8125,1216.296 L183.2031,1068.148 L183.5938,1212.593 L183.9844,1216.296 L184.375,1153.333 L184.7656,1086.667 L185.1563,1157.037 L185.5469,1212.593 L185.9375,1216.296 L186.3281,1149.63 L186.7188,1075.556 L187.1094,1171.852 L187.5,1212.593 L187.8906,1086.667 L188.2813,1116.296 L188.6719,1108.889 L189.0625,1216.296 L189.4531,1216.296 L189.8438,1208.889 L190.2344,1116.296 L190.625,1108.889 L191.0156,1212.593 L191.4063,1138.519 L191.7969,1216.296 L192.1875,1120 L192.5781,1160.741 L192.9688,1145.926 L193.3594,1112.593 L193.75,1212.593 L194.1406,1131.111 L194.5313,1123.704 L194.9219,1216.296 L195.3125,1116.296 L195.7031,1190.37 L196.0938,1212.593 L196.4844,1216.296 L196.875,1138.519 L197.2656,1212.593 L197.6563,1131.111 L198.0469,1134.815 L198.4375,1216.296 L198.8281,1134.815 L199.2188,1212.593 L199.6094,1108.889 L200,1201.481 L200.3906,1153.333 L200.7813,1216.296 L201.1719,1149.63 L201.5625,1216.296 L201.9531,1175.556 L202.3438,1212.593 L202.7344,1216.296 L203.125,1212.593 L203.5156,1149.63 L203.9063,1216.296 L204.2969,1182.963 L204.6875,1197.778 L205.0781,1123.704 L205.4688,1160.741 L205.8594,1212.593 L206.25,1212.593 L206.6406,1216.296 L207.0313,1149.63 L207.4219,1134.815 L207.8125,1212.593 L208.2031,1142.222 L208.5938,1216.296 L208.9844,1138.519 L209.375,1212.593 L209.7656,1120 L210.1563,1086.667 L210.5469,1216.296 L210.9375,1123.704 L211.3281,1149.63 L211.7188,1108.889 L212.1094,1194.074 L212.5,1105.185 L212.8906,1160.741 L213.2813,1212.593 L213.6719,1157.037 L214.0625,1127.407 L214.4531,1216.296 L214.8438,1116.296 L215.2344,1216.296 L215.625,1097.778 L216.0156,1205.185 L216.4063,1212.593 L216.7969,1216.296 L217.1875,1205.185 L217.5781,1123.704 L217.9688,1138.519 L218.3594,1216.296 L218.75,1212.593 L219.1406,1216.296 L219.5313,1120 L219.9219,1127.407 L220.3125,1068.148 L220.7031,1149.63 L221.0938,1145.926 L221.4844,1212.593 L221.875,1216.296 L222.2656,1142.222 L222.6563,1212.593 L223.0469,1179.259 L223.4375,1212.593 L223.8281,1142.222 L224.2188,1157.037 L224.6094,1194.074 L225,1212.593 L225.3906,1212.593 L225.7813,1123.704 L226.1719,1212.593 L226.5625,1153.333 L226.9531,1216.296 L227.3438,1134.815 L227.7344,1168.148 L228.125,1116.296 L228.5156,1216.296 L228.9063,1212.593 L229.2969,1197.778 L229.6875,1216.296 L230.0781,1127.407 L230.4688,1131.111 L230.8594,1212.593 L231.25,1131.111 L231.6406,1131.111 L232.0313,1105.185 L232.4219,1208.889 L232.8125,1216.296 L233.2031,1212.593 L233.5938,1216.296 L233.9844,1190.37 L234.375,1171.852 L234.7656,1157.037 L235.1563,1142.222 L235.5469,1216.296 L235.9375,1212.593 L236.3281,1216.296 L236.7188,1131.111 L237.1094,1094.074 L237.5,1212.593 L237.8906,1186.667 L238.2813,1112.593 L238.6719,1153.333 L239.0625,1090.37 L239.4531,1212.593 L239.8438,1094.074 L240.2344,1079.259 L240.625,1112.593 L241.0156,1212.593 L241.4063,1138.519 L241.7969,1097.778 L242.1875,1216.296 L242.5781,1131.111 L242.9688,1182.963 L243.3594,1142.222 L243.75,1212.593 L244.1406,1216.296 L244.5313,1216.296 L244.9219,1138.519 L245.3125,1212.593 L245.7031,1149.63 L246.0938,1216.296 L246.4844,1131.111 L246.875,1179.259 L247.2656,1160.741 L247.6563,1212.593 L248.0469,1216.296 L248.4375,1071.852 L248.8281,1212.593 L249.2188,1120 L249.6094,1212.593 L250,1216.296 L250.3906,1116.296 L250.7813,1134.815 L251.1719,1127.407 L251.5625,1212.593 L251.9531,1168.148 L252.3438,1216.296 L252.7344,1105.185 L253.125,1216.296 L253.5156,1138.519 L253.9063,1212.593 L254.2969,1145.926 L254.6875,1142.222 L255.0781,1149.63 L255.4688,1212.593 L255.8594,1120 L256.25,1082.963 L256.6406,1216.296 L257.0313,1120 L257.4219,1127.407 L257.8125,1108.889 L258.2031,1145.926 L258.5938,1197.778 L258.9844,1157.037 L259.375,1212.593 L259.7656,1216.296 L260.1563,1108.889 L260.5469,1212.593 L260.9375,1142.222 L261.3281,1212.593 L261.7188,1197.778 L262.1094,1216.296 L262.5,1097.778 L262.8906,1131.111 L263.2813,1097.778 L263.6719,1112.593 L264.0625,1212.593 L264.4531,1197.778 L264.8438,1212.593 L265.2344,1216.296 L265.625,1108.889 L266.0156,1142.222 L266.4063,1212.593 L266.7969,1123.704 L267.1875,1153.333 L267.5781,1145.926 L267.9688,1216.296 L268.3594,1134.815 L268.75,1182.963 L269.1406,1212.593 L269.5313,1157.037 L269.9219,1212.593 L270.3125,1116.296 L270.7031,1186.667 L271.0938,1216.296 L271.4844,1201.481 L271.875,1138.519 L272.2656,1212.593 L272.6563,1131.111 L273.0469,1120 L273.4375,1216.296 L273.8281,1216.296 L274.2188,1157.037 L274.6094,1131.111 L275,1212.593 L275.3906,1120 L275.7813,1216.296 L276.1719,1194.074 L276.5625,1112.593 L276.9531,1212.593 L277.3438,1068.148 L277.7344,1197.778 L278.125,1216.296 L278.5156,1112.593 L278.9063,1216.296 L279.2969,1212.593 L279.6875,1105.185 L280.0781,1094.074 L280.4688,1216.296 L280.8594,1112.593 L281.25,1197.778 L281.6406,1160.741 L282.0313,1212.593 L282.4219,1145.926 L282.8125,1201.481 L283.2031,1216.296 L283.5938,1208.889 L283.9844,1131.111 L284.375,1112.593 L284.7656,1208.889 L285.1563,1212.593 L285.5469,1208.889 L285.9375,1212.593 L286.3281,1216.296 L286.7188,1112.593 L287.1094,1123.704 L287.5,1212.593 L287.8906,1090.37 L288.2813,1134.815 L288.6719,1112.593 L289.0625,1086.667 L289.4531,1212.593 L289.8438,1182.963 L290.2344,1216.296 L290.625,1105.185 L291.0156,1131.111 L291.4063,1212.593 L291.7969,1138.519 L292.1875,1216.296 L292.5781,1131.111 L292.9688,1212.593 L293.3594,1142.222 L293.75,1157.037 L294.1406,1212.593 L294.5313,1190.37 L294.9219,1105.185 L295.3125,1142.222 L295.7031,1216.296 L296.0938,1216.296 L296.4844,1157.037 L296.875,1120 L297.2656,1101.481 L297.6563,1108.889 L298.0469,1212.593 L298.4375,1131.111 L298.8281,1212.593 L299.2188,1216.296 L299.6094,1201.481 L300,1157.037 L300.3906,1216.296 L300.7813,1212.593 L301.1719,1216.296 L301.5625,1112.593 L301.9531,1168.148 L302.3438,1123.704 L302.7344,1212.593 L303.125,1216.296 L303.5156,1131.111 L303.9063,1197.778 L304.2969,1120 L304.6875,1212.593 L305.0781,1216.296 L305.4688,1212.593 L305.8594,1068.148 L306.25,1205.185 L306.6407,1131.111 L307.0313,1153.333 L307.4219,1212.593 L307.8125,1145.926 L308.2031,1216.296 L308.5938,1138.519 L308.9844,1149.63 L309.375,1142.222 L309.7656,1212.593 L310.1563,1216.296 L310.5469,1097.778 L310.9375,1097.778 L311.3281,1116.296 L311.7188,1101.481 L312.1094,1105.185 L312.5,1194.074 L312.8906,1134.815 L313.2813,1212.593 L313.6719,1216.296 L314.0625,1090.37 L314.4532,1131.111 L314.8438,1212.593 L315.2344,1123.704 L315.625,1153.333 L316.0156,1205.185 L316.4063,1053.333 L316.7969,1160.741 L317.1875,1212.593 L317.5781,1216.296 L317.9688,1216.296 L318.3594,1112.593 L318.75,1212.593 L319.1406,1216.296 L319.5313,1212.593 L319.9219,1134.815 L320.3125,1216.296 L320.7031,1157.037 L321.0938,1157.037 L321.4844,1212.593 L321.875,1145.926 L322.2657,1108.889 L322.6563,1186.667 L323.0469,1216.296 L323.4375,1105.185 L323.8281,1157.037 L324.2188,1212.593 L324.6094,1201.481 L325,1086.667 L325.3906,1205.185 L325.7813,1212.593 L326.1719,1216.296 L326.5625,1123.704 L326.9531,1131.111 L327.3438,1212.593 L327.7344,1153.333 L328.125,1216.296 L328.5156,1131.111 L328.9063,1212.593 L329.2969,1153.333 L329.6875,1138.519 L330.0782,1123.704 L330.4688,1145.926 L330.8594,1142.222 L331.25,1216.296 L331.6406,1197.778 L332.0313,1216.296 L332.4219,1212.593 L332.8125,1216.296 L333.2031,1112.593 L333.5938,1116.296 L333.9844,1201.481 L334.375,1212.593 L334.7656,1168.148 L335.1563,1212.593 L335.5469,1071.852 L335.9375,1197.778 L336.3281,1216.296 L336.7188,1090.37 L337.1094,1068.148 L337.5,1086.667 L337.8907,1201.481 L338.2813,1208.889 L338.6719,1212.593 L339.0625,1216.296 L339.4531,1127.407 L339.8438,1138.519 L340.2344,1205.185 L340.625,1145.926 L341.0156,1208.889 L341.4063,1212.593 L341.7969,1216.296 L342.1875,1201.481 L342.5781,1212.593 L342.9688,1112.593 L343.3594,1116.296 L343.75,1212.593 L344.1406,1134.815 L344.5313,1216.296 L344.9219,1116.296 L345.3125,1190.37 L345.7032,1064.444 L346.0938,1216.296 L346.4844,1212.593 L346.875,1127.407 L347.2656,1216.296 L347.6563,1116.296 L348.0469,1123.704 L348.4375,1186.667 L348.8281,1212.593 L349.2188,1127.407 L349.6094,1216.296 L350,1123.704 L350.3906,1201.481 L350.7813,1212.593 L351.1719,1160.741 L351.5625,1116.296 L351.9531,1205.185 L352.3438,1164.444 L352.7344,1216.296 L353.125,1112.593 L353.5157,1082.963 L353.9063,1212.593 L354.2969,1208.889 L354.6875,1208.889 L355.0781,1216.296 L355.4688,1194.074 L355.8594,1142.222 L356.25,1212.593 L356.6406,1216.296 L357.0313,1208.889 L357.4219,1216.296 L357.8125,1101.481 L358.2031,1164.444 L358.5938,1212.593 L358.9844,1127.407 L359.375,1216.296 L359.7656,1116.296 L360.1563,1094.074 L360.5469,1201.481 L360.9375,1212.593 L361.3282,1216.296 L361.7188,1101.481 L362.1094,1145.926 L362.5,1190.37 L362.8906,1179.259 L363.2813,1212.593 L363.6719,1216.296 L364.0625,1145.926 L364.4531,1131.111 L364.8438,1216.296 L365.2344,1201.481 L365.625,1186.667 L366.0156,1212.593 L366.4063,1112.593 L366.7969,1153.333 L367.1875,1123.704 L367.5781,1216.296 L367.9688,1208.889 L368.3594,1157.037 L368.75,1145.926 L369.1407,1079.259 L369.5313,1201.481 L369.9219,1212.593 L370.3125,1068.148 L370.7031,1131.111 L371.0938,1105.185 L371.4844,1216.296 L371.875,1216.296 L372.2656,1164.444 L372.6563,1212.593 L373.0469,1216.296 L373.4375,1131.111 L373.8281,1116.296 L374.2188,1212.593 L374.6094,1171.852 L375,1216.296 L375.3906,1134.815 L375.7813,1097.778 L376.1719,1168.148 L376.5625,1212.593 L376.9532,1216.296 L377.3438,1182.963 L377.7344,1138.519 L378.125,1216.296 L378.5156,1212.593 L378.9063,1216.296 L379.2969,1127.407 L379.6875,1142.222 L380.0781,1212.593 L380.4688,1127.407 L380.8594,1205.185 L381.25,1142.222 L381.6406,1216.296 L382.0313,1149.63 L382.4219,1216.296 L382.8125,1212.593 L383.2031,1142.222 L383.5938,1216.296 L383.9844,1142.222 L384.375,1131.111 L384.7657,1205.185 L385.1563,1168.148 L385.5469,1212.593 L385.9375,1131.111 L386.3281,1216.296 L386.7188,1212.593 L387.1094,1216.296 L387.5,1120 L387.8906,1201.481 L388.2813,1138.519 L388.6719,1123.704 L389.0625,1212.593 L389.4531,1090.37 L389.8438,1216.296 L390.2344,1190.37 L390.625,1216.296 L391.0156,1205.185 L391.4063,1142.222 L391.7969,1212.593 L392.1875,1134.815 L392.5782,1216.296 L392.9688,1105.185 L393.3594,1120 L393.75,1108.889 L394.1406,1157.037 L394.5313,1212.593 L394.9219,1094.074 L395.3125,1205.185 L395.7031,1205.185 L396.0938,1212.593 L396.4844,1131.111 L396.875,1082.963 L397.2656,1216.296 L397.6563,1116.296 L398.0469,1082.963 L398.4375,1134.815 L398.8281,1212.593 L399.2188,1127.407 L399.6094,1201.481 L400,1201.481 L400.3907,1216.296 L400.7813,1127.407 L401.1719,1164.444 L401.5625,1212.593 L401.9531,1142.222 L402.3438,1127.407 L402.7344,1216.296 L403.125,1131.111 L403.5156,1212.593 L403.9063,1134.815 L404.2969,1216.296 L404.6875,1194.074 L405.0781,1216.296 L405.4688,1160.741 L405.8594,1212.593 L406.25,1216.296 L406.6406,1212.593 L407.0313,1153.333 L407.4219,1105.185 L407.8125,1212.593 L408.2032,1157.037 L408.5938,1216.296 L408.9844,1131.111 L409.375,1212.593 L409.7656,1168.148 L410.1563,1186.667 L410.5469,1157.037 L410.9375,1216.296 L411.3281,1216.296 L411.7188,1145.926 L412.1094,1212.593 L412.5,1120 L412.8906,1216.296 L413.2813,1120 L413.6719,1097.778 L414.0625,1149.63 L414.4531,1149.63 L414.8438,1212.593 L415.2344,1123.704 L415.625,1216.296 L416.0157,1131.111 L416.4063,1123.704 L416.7969,1194.074 L417.1875,1212.593 L417.5781,1101.481 L417.9688,1216.296 L418.3594,1127.407 L418.75,1212.593 L419.1406,1179.259 L419.5313,1145.926 L419.9219,1127.407 L420.3125,1212.593 L420.7031,1160.741 L421.0938,1216.296 L421.4844,1149.63 L421.875,1171.852 L422.2656,1197.778 L422.6563,1205.185 L423.0469,1212.593 L423.4375,1079.259 L423.8282,1216.296 L424.2188,1153.333 L424.6094,1216.296 L425,1053.333 L425.3906,1134.815 L425.7813,1212.593 L426.1719,1216.296 L426.5625,1079.259 L426.9531,1142.222 L427.3438,1157.037 L427.7344,1212.593 L428.125,1197.778 L428.5156,1212.593 L428.9063,1186.667 L429.2969,1179.259 L429.6875,1216.296 L430.0781,1212.593 L430.4688,1216.296 L430.8594,1075.556 L431.25,1205.185 L431.6407,1168.148 L432.0313,1212.593 L432.4219,1153.333 L432.8125,1131.111 L433.2031,1216.296 L433.5938,1120 L433.9844,1131.111 L434.375,1127.407 L434.7656,1138.519 L435.1563,1112.593 L435.5469,1212.593 L435.9375,1112.593 " stroke="blue" fill="none" />
<text x="50" y="1270" font-family="Arial" font-size="12" fill="black">Policy Loss</text>
<text x="50" y="1285" font-family="Arial" font-size="10" fill="black">0.416486</text>
<text x="50" y="1500" font-family="Arial" font-size="10" fill="black">0.416486</text>
<path d="M50,1490 " stroke="blue" fill="none" />
<text x="50" y="1540" font-family="Arial" font-size="12" fill="black">Value Loss</text>
<text x="50" y="1555" font-family="Arial" font-size="10" fill="black">689.5439</text>
<text x="50" y="1770" font-family="Arial" font-size="10" fill="black">689.5439</text>
<path d="M50,1760 " stroke="blue" fill="none" />
<text x="50" y="1810" font-family="Arial" font-size="12" fill="black">Learning Rate</text>
<text x="50" y="1825" font-family="Arial" font-size="10" fill="black">0.0003</text>
<text x="50" y="2040" font-family="Arial" font-size="10" fill="black">0.0003</text>
<path d="M50,2030 " stroke="blue" fill="none" />
<text x="50" y="2080" font-family="Arial" font-size="12" fill="black">Entropy</text>
<text x="50" y="2095" font-family="Arial" font-size="10" fill="black">2.130002</text>
<text x="50" y="2310" font-family="Arial" font-size="10" fill="black">2.130002</text>
<path d="M50,2300 " stroke="blue" fill="none" />
<text x="750" y="730" font-family="Arial" font-size="12" fill="black">Simplified</text>
<text x="750" y="745" font-family="Arial" font-size="10" fill="black">-0.00521376</text>
<text x="750" y="960" font-family="Arial" font-size="10" fill="black">-0.02802391</text>
<path d="M757.0313,750.0001 L764.4531,827.5822 L771.875,809.1315 L779.2969,828.5399 L786.7188,841.9213 L794.1406,786.0503 L801.5625,821.6025 L808.9844,845.6306 L816.4063,782.8143 L823.8281,838.1924 L831.25,820.6749 L838.6719,827.6159 L846.0938,799.446 L853.5156,807.2726 L860.9375,850.2048 L868.3594,789.7625 L875.7813,797.574 L883.2031,845.0614 L890.625,837.321 L898.0469,824.819 L905.4688,785.5475 L912.8906,828.5518 L920.3125,816.9628 L927.7344,792.9421 L935.1563,803.5757 L942.5781,852.5296 L950,790.1949 L957.4219,846.988 L964.8438,818.8304 L972.2656,806.3301 L979.6875,821.587 L987.1094,804.4982 L994.5313,830.357 L1001.953,814.6568 L1009.375,816.9861 L1016.797,863.2097 L1024.219,791.5716 L1031.641,815.1295 L1039.063,812.8535 L1046.484,810.0897 L1053.906,825.7095 L1061.328,781.8922 L1068.75,810.5077 L1076.172,833.6171 L1083.594,779.5534 L1091.016,798.9583 L1098.438,856.2063 L1105.859,789.2585 L1113.281,795.741 L1120.703,830.8406 L1128.125,814.6708 L1135.547,814.2064 L1135.938,950 " stroke="blue" fill="none" />
<text x="750" y="1000" font-family="Arial" font-size="12" fill="black">Simplified</text>
<text x="750" y="1015" font-family="Arial" font-size="10" fill="black">29</text>
<text x="750" y="1230" font-family="Arial" font-size="10" fill="black">5.736842</text>
<path d="M757.0313,1220 L764.4531,1143.982 L771.875,1160.724 L779.2969,1139.91 L786.7188,1125.882 L794.1406,1180.634 L801.5625,1145.792 L808.9844,1122.262 L816.4063,1183.801 L823.8281,1129.502 L831.25,1146.697 L838.6719,1139.91 L846.0938,1167.511 L853.5156,1159.819 L860.9375,1117.738 L868.3594,1177.014 L875.7813,1169.321 L883.2031,1122.715 L890.625,1130.407 L898.0469,1142.624 L905.4688,1181.086 L912.8906,1139.005 L920.3125,1150.317 L927.7344,1173.846 L935.1563,1163.439 L942.5781,1115.475 L950,1176.561 L957.4219,1120.905 L964.8438,1148.507 L972.2656,1160.724 L979.6875,1145.792 L987.1094,1162.534 L994.5313,1137.195 L1001.953,1152.579 L1009.375,1150.317 L1016.797,1105.068 L1024.219,1175.204 L1031.641,1152.127 L1039.063,1154.389 L1046.484,1157.104 L1053.906,1141.719 L1061.328,1184.706 L1068.75,1156.652 L1076.172,1134.027 L1083.594,1186.968 L1091.016,1167.964 L1098.438,1111.855 L1105.859,1177.466 L1113.281,1171.131 L1120.703,1136.742 L1128.125,1152.579 L1135.547,1153.032 L1135.938,1020 " stroke="blue" fill="none" />
</svg>
