<svg width="2000" height="2500" xmlns="http://www.w3.org/2000/svg">
<text x="10" y="20" font-family="Arial" font-size="26" fill="black"> [<tspan font-weight="bold" fill="blue">BalanceBall</tspan>] Training Session</text>
<text x="10" y="50" font-family="Arial" font-size="16" fill="black">[Statistics]</text>
<text x="50" y="70" font-family="Arial" font-size="12" fill="black">Started at: 12:54:15 PM, Sunday, May 10, 2026</text>
<text x="50" y="90" font-family="Arial" font-size="12" fill="black">Finished at: 12:54:51 PM, Sunday, May 10, 2026</text>
<text x="50" y="110" font-family="Arial" font-size="12" fill="black">Training Session Time: 0 hrs : 0 min : 5.18 sec</text>
<text x="50" y="130" font-family="Arial" font-size="12" fill="black">Inference Time: 0 hrs : 1 min : 40 sec        [Device: CPU]</text>
<text x="50" y="150" font-family="Arial" font-size="12" fill="black">Update Time: 0 hrs : 0 min : 1.00 sec        [Per iteration: 0 hrs : 0 min : 0.10 sec]        [Device: GPU]</text>
<text x="50" y="170" font-family="Arial" font-size="12" fill="black">Episode Count: 11</text>
<text x="50" y="190" font-family="Arial" font-size="12" fill="black">Inference Steps: 4096</text>
<text x="50" y="210" font-family="Arial" font-size="12" fill="black">Iterations: 2</text>
<text x="50" y="230" font-family="Arial" font-size="12" fill="black">Parallel Agents: 1</text>
<text x="50" y="250" font-family="Arial" font-size="12" fill="black">Timescale: 32.21</text>
<text x="50" y="270" font-family="Arial" font-size="12" fill="black">Trainer: PPOGPU</text>
<text x="10" y="320" font-family="Arial" font-size="16" fill="black">[Hyperparameters]</text>
<text x="50" y="340" font-family="Arial" font-size="12" fill="black">Buffer Size: 2048        [Batch Size: 512       (x4)]</text>
<text x="50" y="360" font-family="Arial" font-size="12" fill="black">Num Epoch: 8</text>
<text x="50" y="380" font-family="Arial" font-size="12" fill="black">Time Horizon: -1</text>
<text x="50" y="400" font-family="Arial" font-size="12" fill="black">Gradient Cliping by Norm: 0.5</text>
<text x="50" y="420" font-family="Arial" font-size="12" fill="black">Learning Rate Schedule: False    </text>
<text x="10" y="470" font-family="Arial" font-size="16" fill="black">[Behaviour]</text>
<text x="50" y="490" font-family="Arial" font-size="12" fill="black">Space Size: 10</text>
<text x="50" y="510" font-family="Arial" font-size="12" fill="black">Continuous Actions: 2 [Standard Deviation: FixedStandardDeviation]     [Value: 1]</text>
<text x="50" y="530" font-family="Arial" font-size="12" fill="black">Discrete Actions: 0</text>
<text x="50" y="550" font-family="Arial" font-size="12" fill="black">TargetFPS: 50 (physics update rate)</text>
<text x="50" y="570" font-family="Arial" font-size="12" fill="black">Observations Normalization: False</text>
<text x="10" y="620" font-family="Arial" font-size="16" fill="black">[Decision Requester]</text>
<text x="50" y="640" font-family="Arial" font-size="12" fill="black">Max Step: 10000</text>
<text x="50" y="660" font-family="Arial" font-size="12" fill="black">Decision Period: 1</text>
<text x="10" y="710" font-family="Arial" font-size="16" fill="black">[Graphs]</text>
<text x="50" y="730" font-family="Arial" font-size="12" fill="black">Episode Reward (11)</text>
<text x="50" y="745" font-family="Arial" font-size="10" fill="black">18.19987</text>
<text x="50" y="960" font-family="Arial" font-size="10" fill="black">5.07501</text>
<path d="M50,938.5713 L75,905.0469 L100,931.3331 L125,876.8566 L150,750 L175,950 L200,796.095 L225,798.7617 L250,836.4758 L275,862.3805 L300,802.9521 " stroke="blue" fill="none" />
<text x="50" y="1000" font-family="Arial" font-size="12" fill="black">Episode Length (11)</text>
<text x="50" y="1015" font-family="Arial" font-size="10" fill="black">728</text>
<text x="50" y="1230" font-family="Arial" font-size="10" fill="black">203</text>
<path d="M50,1208.952 L75,1175.048 L100,1201.333 L125,1146.857 L150,1020 L175,1220 L200,1066.095 L225,1068.762 L250,1106.476 L275,1132.381 L300,1072.952 " stroke="blue" fill="none" />
<text x="50" y="1270" font-family="Arial" font-size="12" fill="black">Actor Loss</text>
<text x="50" y="1285" font-family="Arial" font-size="10" fill="black">0</text>
<text x="50" y="1500" font-family="Arial" font-size="10" fill="black">0</text>
<path d="M50,1490 L75,1490 " stroke="blue" fill="none" />
<text x="50" y="1540" font-family="Arial" font-size="12" fill="black">Critic Loss</text>
<text x="50" y="1555" font-family="Arial" font-size="10" fill="black">0</text>
<text x="50" y="1770" font-family="Arial" font-size="10" fill="black">0</text>
<path d="M50,1760 L75,1760 " stroke="blue" fill="none" />
<text x="50" y="1810" font-family="Arial" font-size="12" fill="black">Entropy</text>
<text x="50" y="1825" font-family="Arial" font-size="10" fill="black">0</text>
<text x="50" y="2040" font-family="Arial" font-size="10" fill="black">0</text>
<path d="M50,2030 L75,2030 " stroke="blue" fill="none" />
<text x="750" y="710" font-family="Arial" font-size="12" fill="black">Simplified</text>
<text x="750" y="725" font-family="Arial" font-size="10" fill="black">11.04996</text>
<text x="750" y="940" font-family="Arial" font-size="10" fill="black">11.04996</text>
<path d="M1000,930 " stroke="blue" fill="none" />
<text x="750" y="980" font-family="Arial" font-size="12" fill="black">Simplified</text>
<text x="750" y="995" font-family="Arial" font-size="10" fill="black">441.9091</text>
<text x="750" y="1210" font-family="Arial" font-size="10" fill="black">441.9091</text>
<path d="M1000,1200 " stroke="blue" fill="none" />
</svg>
