<svg width="2000" height="2500" xmlns="http://www.w3.org/2000/svg">
<text x="10" y="20" font-family="Arial" font-size="26" fill="black"> [<tspan font-weight="bold" fill="blue">BalanceBall</tspan>] Training Session</text>
<text x="10" y="50" font-family="Arial" font-size="16" fill="black">[Statistics]</text>
<text x="50" y="70" font-family="Arial" font-size="12" fill="black">Started at: 1:01:03 PM, Sunday, May 10, 2026</text>
<text x="50" y="90" font-family="Arial" font-size="12" fill="black">Finished at: 1:02:03 PM, Sunday, May 10, 2026</text>
<text x="50" y="110" font-family="Arial" font-size="12" fill="black">Training Session Time: 0 hrs : 0 min : 57.99 sec</text>
<text x="50" y="130" font-family="Arial" font-size="12" fill="black">Inference Time: 0 hrs : 16 min : 8 sec        [Device: CPU]</text>
<text x="50" y="150" font-family="Arial" font-size="12" fill="black">Update Time: 0 hrs : 0 min : 2.00 sec        [Per iteration: 0 hrs : 0 min : 0.07 sec]        [Device: GPU]</text>
<text x="50" y="170" font-family="Arial" font-size="12" fill="black">Episode Count: 106</text>
<text x="50" y="190" font-family="Arial" font-size="12" fill="black">Inference Steps: 47104</text>
<text x="50" y="210" font-family="Arial" font-size="12" fill="black">Iterations: 23</text>
<text x="50" y="230" font-family="Arial" font-size="12" fill="black">Parallel Agents: 1</text>
<text x="50" y="250" font-family="Arial" font-size="12" fill="black">Timescale: 10.1</text>
<text x="50" y="270" font-family="Arial" font-size="12" fill="black">Trainer: PPOGPU</text>
<text x="10" y="320" font-family="Arial" font-size="16" fill="black">[Hyperparameters]</text>
<text x="50" y="340" font-family="Arial" font-size="12" fill="black">Buffer Size: 2048        [Batch Size: 512       (x4)]</text>
<text x="50" y="360" font-family="Arial" font-size="12" fill="black">Num Epoch: 8</text>
<text x="50" y="380" font-family="Arial" font-size="12" fill="black">Time Horizon: -1</text>
<text x="50" y="400" font-family="Arial" font-size="12" fill="black">Gradient Cliping by Norm: 0.5</text>
<text x="50" y="420" font-family="Arial" font-size="12" fill="black">Learning Rate Schedule: False    </text>
<text x="10" y="470" font-family="Arial" font-size="16" fill="black">[Behaviour]</text>
<text x="50" y="490" font-family="Arial" font-size="12" fill="black">Space Size: 10</text>
<text x="50" y="510" font-family="Arial" font-size="12" fill="black">Continuous Actions: 2 [Standard Deviation: FixedStandardDeviation]     [Value: 1]</text>
<text x="50" y="530" font-family="Arial" font-size="12" fill="black">Discrete Actions: 0</text>
<text x="50" y="550" font-family="Arial" font-size="12" fill="black">TargetFPS: 50 (physics update rate)</text>
<text x="50" y="570" font-family="Arial" font-size="12" fill="black">Observations Normalization: False</text>
<text x="10" y="620" font-family="Arial" font-size="16" fill="black">[Decision Requester]</text>
<text x="50" y="640" font-family="Arial" font-size="12" fill="black">Max Step: 10000</text>
<text x="50" y="660" font-family="Arial" font-size="12" fill="black">Decision Period: 1</text>
<text x="10" y="710" font-family="Arial" font-size="16" fill="black">[Graphs]</text>
<text x="50" y="730" font-family="Arial" font-size="12" fill="black">Episode Reward (106)</text>
<text x="50" y="745" font-family="Arial" font-size="10" fill="black">28.22471</text>
<text x="50" y="960" font-family="Arial" font-size="10" fill="black">4.95001</text>
<path d="M50,892.4271 L53.125,932.3842 L56.25,864.7151 L59.375,891.1382 L62.5,925.0801 L65.625,861.7076 L68.75,859.989 L71.875,914.339 L75,871.8042 L78.125,784.3716 L81.25,925.5098 L84.375,796.4016 L87.5,896.2939 L90.625,934.9622 L93.75,934.1028 L96.875,936.6808 L100,924.2208 L103.125,926.1543 L106.25,929.5915 L109.375,914.9835 L112.5,826.0471 L115.625,922.0726 L118.75,916.7021 L121.875,941.4069 L125,907.8943 L128.125,919.4948 L131.25,942.6959 L134.375,901.8793 L137.5,848.3886 L140.625,903.1683 L143.75,907.6795 L146.875,920.5688 L150,899.3015 L153.125,781.1492 L156.25,924.6505 L159.375,942.6959 L162.5,919.4948 L165.625,917.991 L168.75,896.5088 L171.875,923.1467 L175,899.7311 L178.125,948.7111 L181.25,832.2769 L184.375,921.6429 L187.5,916.7021 L190.625,923.5764 L193.75,896.7236 L196.875,925.5098 L200,881.686 L203.125,750 L206.25,888.7751 L209.375,932.8139 L212.5,887.701 L215.625,846.67 L218.75,910.9019 L221.875,919.7096 L225,906.8203 L228.125,930.236 L231.25,818.7431 L234.375,927.4432 L237.5,861.0631 L240.625,945.7035 L243.75,906.3906 L246.875,856.5518 L250,933.0287 L253.125,917.991 L256.25,904.2424 L259.375,910.0425 L262.5,891.7827 L265.625,912.6204 L268.75,950 L271.875,889.2048 L275,933.888 L278.125,931.7397 L281.25,899.5163 L284.375,943.9849 L287.5,884.2639 L290.625,835.9289 L293.75,925.0801 L296.875,898.4421 L300,940.3328 L303.125,827.336 L306.25,829.4843 L309.375,882.3305 L312.5,855.2629 L315.625,912.1908 L318.75,890.2789 L321.875,906.1758 L325,880.3971 L328.125,886.627 L331.25,948.9258 L334.375,932.5991 L337.5,863.641 L340.625,892.642 L343.75,947.6369 L346.875,880.6119 L350,779.4307 L353.125,895.8643 L356.25,777.2824 L359.375,890.9234 L362.5,877.8192 L365.625,869.8708 L368.75,814.8763 L371.875,874.5969 L375,938.6142 L378.125,888.5604 " stroke="blue" fill="none" />
<text x="50" y="1000" font-family="Arial" font-size="12" fill="black">Episode Length (106)</text>
<text x="50" y="1015" font-family="Arial" font-size="10" fill="black">1129</text>
<text x="50" y="1230" font-family="Arial" font-size="10" fill="black">198</text>
<path d="M50,1162.642 L53.125,1202.385 L56.25,1134.715 L59.375,1161.139 L62.5,1195.081 L65.625,1131.708 L68.75,1129.989 L71.875,1184.339 L75,1141.805 L78.125,1054.372 L81.25,1195.51 L84.375,1066.402 L87.5,1166.294 L90.625,1204.962 L93.75,1204.103 L96.875,1206.681 L100,1194.221 L103.125,1196.155 L106.25,1199.592 L109.375,1184.984 L112.5,1096.047 L115.625,1192.073 L118.75,1186.703 L121.875,1211.407 L125,1177.895 L128.125,1189.495 L131.25,1212.696 L134.375,1171.88 L137.5,1118.389 L140.625,1173.169 L143.75,1177.68 L146.875,1190.569 L150,1169.302 L153.125,1051.149 L156.25,1194.651 L159.375,1212.696 L162.5,1189.495 L165.625,1187.991 L168.75,1166.509 L171.875,1193.147 L175,1169.731 L178.125,1218.711 L181.25,1102.277 L184.375,1191.643 L187.5,1186.703 L190.625,1193.577 L193.75,1166.724 L196.875,1195.51 L200,1151.686 L203.125,1020 L206.25,1158.776 L209.375,1202.814 L212.5,1157.701 L215.625,1116.67 L218.75,1180.902 L221.875,1189.71 L225,1176.821 L228.125,1200.236 L231.25,1088.743 L234.375,1197.444 L237.5,1131.063 L240.625,1215.703 L243.75,1176.391 L246.875,1126.552 L250,1203.029 L253.125,1187.991 L256.25,1174.243 L259.375,1180.043 L262.5,1161.783 L265.625,1182.621 L268.75,1220 L271.875,1159.205 L275,1203.888 L278.125,1201.74 L281.25,1169.517 L284.375,1213.985 L287.5,1154.264 L290.625,1105.929 L293.75,1195.081 L296.875,1168.443 L300,1210.333 L303.125,1097.336 L306.25,1099.484 L309.375,1152.331 L312.5,1125.263 L315.625,1182.191 L318.75,1160.279 L321.875,1176.176 L325,1150.397 L328.125,1156.627 L331.25,1218.926 L334.375,1202.599 L337.5,1133.641 L340.625,1162.642 L343.75,1217.637 L346.875,1150.612 L350,1049.431 L353.125,1165.865 L356.25,1047.282 L359.375,1160.924 L362.5,1147.82 L365.625,1139.871 L368.75,1084.876 L371.875,1144.597 L375,1208.614 L378.125,1158.561 " stroke="blue" fill="none" />
<text x="50" y="1270" font-family="Arial" font-size="12" fill="black">Actor Loss</text>
<text x="50" y="1285" font-family="Arial" font-size="10" fill="black">0</text>
<text x="50" y="1500" font-family="Arial" font-size="10" fill="black">0</text>
<path d="M50,1490 L62.5,1490 L75,1490 L87.5,1490 L100,1490 L112.5,1490 L125,1490 L137.5,1490 L150,1490 L162.5,1490 L175,1490 L187.5,1490 L200,1490 L212.5,1490 L225,1490 L237.5,1490 L250,1490 L262.5,1490 L275,1490 L287.5,1490 L300,1490 L312.5,1490 L325,1490 " stroke="blue" fill="none" />
<text x="50" y="1540" font-family="Arial" font-size="12" fill="black">Critic Loss</text>
<text x="50" y="1555" font-family="Arial" font-size="10" fill="black">0</text>
<text x="50" y="1770" font-family="Arial" font-size="10" fill="black">0</text>
<path d="M50,1760 L62.5,1760 L75,1760 L87.5,1760 L100,1760 L112.5,1760 L125,1760 L137.5,1760 L150,1760 L162.5,1760 L175,1760 L187.5,1760 L200,1760 L212.5,1760 L225,1760 L237.5,1760 L250,1760 L262.5,1760 L275,1760 L287.5,1760 L300,1760 L312.5,1760 L325,1760 " stroke="blue" fill="none" />
<text x="50" y="1810" font-family="Arial" font-size="12" fill="black">Entropy</text>
<text x="50" y="1825" font-family="Arial" font-size="10" fill="black">0</text>
<text x="50" y="2040" font-family="Arial" font-size="10" fill="black">0</text>
<path d="M50,2030 L62.5,2030 L75,2030 L87.5,2030 L100,2030 L112.5,2030 L125,2030 L137.5,2030 L150,2030 L162.5,2030 L175,2030 L187.5,2030 L200,2030 L212.5,2030 L225,2030 L237.5,2030 L250,2030 L262.5,2030 L275,2030 L287.5,2030 L300,2030 L312.5,2030 L325,2030 " stroke="blue" fill="none" />
<text x="750" y="710" font-family="Arial" font-size="12" fill="black">Simplified</text>
<text x="750" y="725" font-family="Arial" font-size="10" fill="black">15.12263</text>
<text x="750" y="940" font-family="Arial" font-size="10" fill="black">9.763141</text>
<path d="M806.25,870.0481 L865.625,905.7933 L925,871.8157 L984.375,930 L1043.75,855.8091 L1078.125,730 " stroke="blue" fill="none" />
<text x="750" y="980" font-family="Arial" font-size="12" fill="black">Simplified</text>
<text x="750" y="995" font-family="Arial" font-size="10" fill="black">604.9091</text>
<text x="750" y="1210" font-family="Arial" font-size="10" fill="black">390.5263</text>
<path d="M806.25,1140.097 L865.625,1175.793 L925,1141.816 L984.375,1200 L1043.75,1125.809 L1078.125,1000 " stroke="blue" fill="none" />
</svg>
