<svg width="2000" height="2500" xmlns="http://www.w3.org/2000/svg">
<text x="10" y="20" font-family="Arial" font-size="26" fill="black"> [SoccerPlayer] Training Session</text>
<text x="10" y="50" font-family="Arial" font-size="16" fill="black">[Statistics]</text>
<text x="50" y="70" font-family="Arial" font-size="12" fill="black">Started at: 12:08:54 PM, Monday, March 11, 2024</text>
<text x="50" y="90" font-family="Arial" font-size="12" fill="black">Finished at: 12:13:37 PM, Monday, March 11, 2024</text>
<text x="50" y="110" font-family="Arial" font-size="12" fill="black">Training Session Time: 0 hrs : 4 min : 41 sec</text>
<text x="50" y="130" font-family="Arial" font-size="12" fill="black">Inference Time: 1 hrs : 50 min : 56 sec        [Device: CPU]</text>
<text x="50" y="150" font-family="Arial" font-size="12" fill="black">Update Time: 0 hrs : 3 min : 39 sec        [Per iteration: 0 hrs : 0 min : 54.651 sec]        [Device: GPU]</text>
<text x="50" y="170" font-family="Arial" font-size="12" fill="black">Episode Count: 204</text>
<text x="50" y="190" font-family="Arial" font-size="12" fill="black">Inference Steps: 160000</text>
<text x="50" y="210" font-family="Arial" font-size="12" fill="black">Iterations: 4</text>
<text x="50" y="230" font-family="Arial" font-size="12" fill="black">Parallel Agents: 24</text>
<text x="50" y="250" font-family="Arial" font-size="12" fill="black">Timescale: 4.73</text>
<text x="50" y="270" font-family="Arial" font-size="12" fill="black">Trainer: PPO</text>
<text x="10" y="320" font-family="Arial" font-size="16" fill="black">[Hyperparameters]</text>
<text x="50" y="340" font-family="Arial" font-size="12" fill="black">Buffer Size: 40000        [Batch Size: 1000       (x40)]</text>
<text x="50" y="360" font-family="Arial" font-size="12" fill="black">Num Epoch: 4</text>
<text x="50" y="380" font-family="Arial" font-size="12" fill="black">Time Horizon: 1024</text>
<text x="50" y="400" font-family="Arial" font-size="12" fill="black">Gradient Cliping by Norm: 0.5</text>
<text x="50" y="420" font-family="Arial" font-size="12" fill="black">Learning Rate Schedule: False    </text>
<text x="10" y="470" font-family="Arial" font-size="16" fill="black">[Behaviour]</text>
<text x="50" y="490" font-family="Arial" font-size="12" fill="black">Space Size: 129</text>
<text x="50" y="510" font-family="Arial" font-size="12" fill="black">Continuous Actions: 0 [Standard Deviation: Trainable]     </text>
<text x="50" y="530" font-family="Arial" font-size="12" fill="black">Discrete Actions: 7</text>
<text x="50" y="550" font-family="Arial" font-size="12" fill="black">TargetFPS: 50 (physics update rate)</text>
<text x="50" y="570" font-family="Arial" font-size="12" fill="black">Observations Normalization: False</text>
<text x="10" y="620" font-family="Arial" font-size="16" fill="black">[Decision Requester]</text>
<text x="50" y="640" font-family="Arial" font-size="12" fill="black">Max Step: 0</text>
<text x="50" y="660" font-family="Arial" font-size="12" fill="black">Decision Period: 2      [Actions Between Decisions: True]</text>
<text x="10" y="710" font-family="Arial" font-size="16" fill="black">[Graphs]</text>
<text x="50" y="730" font-family="Arial" font-size="12" fill="black">Episode Reward (204)</text>
<text x="50" y="745" font-family="Arial" font-size="10" fill="black">2.282995</text>
<text x="50" y="960" font-family="Arial" font-size="10" fill="black">-1</text>
<path d="M50,950 L51.5625,950 L53.125,838.0922 L54.6875,923.7435 L56.25,862.8235 L57.8125,838.0922 L59.375,839.6243 L60.9375,839.6243 L62.5,950 L64.0625,866.6005 L65.625,927.5205 L67.1875,950 L68.75,854.1863 L70.3125,830.1707 L71.875,891.0907 L73.4375,854.1863 L75,950 L76.5625,950 L78.125,841.1851 L79.6875,841.1851 L81.25,950 L82.8125,860.143 L84.375,921.063 L85.9375,950 L87.5,863.0345 L89.0625,810.4329 L90.625,871.3528 L92.1875,863.0345 L93.75,950 L95.3125,950 L96.875,950 L98.4375,950 L100,882.8439 L101.5625,826.7599 L103.125,765.84 L104.6875,882.8439 L106.25,950 L107.8125,752.3151 L109.375,752.3151 L110.9375,950 L112.5,950 L114.0625,950 L115.625,950 L117.1875,750.9748 L118.75,750.9748 L120.3125,950 L121.875,950 L123.4375,950 L125,950 L126.5625,950 L128.125,950 L129.6875,750 L131.25,750 L132.8125,950 L134.375,950 L135.9375,950 L137.5,950 L139.0625,751.9495 L140.625,751.9495 L142.1875,950 L143.75,840.2691 L145.3125,840.2691 L146.875,950 L148.4375,861.605 L150,922.525 L151.5625,950 L153.125,873.2972 L154.6875,787.0399 L156.25,847.9599 L157.8125,873.2972 L159.375,950 L160.9375,950 L162.5,950 L164.0625,751.9495 L165.625,751.9495 L167.1875,950 L168.75,950 L170.3125,950 L171.875,950 L173.4375,950 L175,950 L176.5625,751.9495 L178.125,751.9495 L179.6875,950 L181.25,950 L182.8125,950 L184.375,950 L185.9375,750 L187.5,750 L189.0625,950 L190.625,950 L192.1875,752.3151 L193.75,752.3151 L195.3125,950 L196.875,950 L198.4375,950 L200,878.0642 L201.5625,775.0997 L203.125,836.0197 L204.6875,878.0642 L206.25,950 L207.8125,950 L209.375,851.9674 L210.9375,851.9674 L212.5,950 L214.0625,834.6787 L215.625,895.5987 L217.1875,950 L218.75,950 L220.3125,950 L221.875,950 L223.4375,751.8277 L225,751.8277 L226.5625,950 L228.125,950 L229.6875,950 L231.25,950 L232.8125,872.2051 L234.375,872.2051 L235.9375,950 L237.5,950 L239.0625,950 L240.625,853.4191 L242.1875,891.8217 L243.75,830.9017 L245.3125,853.4191 L246.875,950 L248.4375,751.2184 L250,751.2184 L251.5625,950 L253.125,950 L254.6875,950 L256.25,950 L257.8125,753.5335 L259.375,753.5335 L260.9375,950 L262.5,950 L264.0625,950 L265.625,950 L267.1875,900.4722 L268.75,839.5522 L270.3125,950 L271.875,848.6539 L273.4375,848.6539 L275,950 L276.5625,950 L278.125,950 L279.6875,753.5335 L281.25,753.5335 L282.8125,950 L284.375,888.6605 L285.9375,888.6605 L287.5,950 L289.0625,754.3865 L290.625,815.3065 L292.1875,950 L293.75,851.4689 L295.3125,851.4689 L296.875,950 L298.4375,836.0189 L300,896.939 L301.5625,950 L303.125,950 L304.6875,751.8277 L306.25,751.8277 L307.8125,950 L309.375,950 L310.9375,950 L312.5,864.0596 L314.0625,864.0596 L315.625,950 L317.1875,808.9708 L318.75,869.8908 L320.3125,950 L321.875,950 L323.4375,755.2394 L325,755.2394 L326.5625,950 L328.125,950 L329.6875,950 L331.25,950 L332.8125,871.8397 L334.375,871.8397 L335.9375,950 L337.5,950 L339.0625,950 L340.625,950 L342.1875,914.3618 L343.75,853.4418 L345.3125,950 L346.875,843.7014 L348.4375,843.7014 L350,853.2484 L351.5625,830.2925 L353.125,891.2125 L354.6875,853.2484 L356.25,950 L357.8125,950 L359.375,950 L360.9375,950 L362.5,950 L364.0625,751.4622 L365.625,751.4622 L367.1875,950 " stroke="blue" fill="none" />
<text x="50" y="1000" font-family="Arial" font-size="12" fill="black">Episode Length (204)</text>
<text x="50" y="1015" font-family="Arial" font-size="10" fill="black">1142</text>
<text x="50" y="1230" font-family="Arial" font-size="10" fill="black">139</text>
<path d="M50,1204.845 L51.5625,1204.845 L53.125,1204.845 L54.6875,1204.845 L56.25,1204.845 L57.8125,1204.845 L59.375,1210.828 L60.9375,1210.828 L62.5,1210.828 L64.0625,1210.828 L65.625,1210.828 L67.1875,1210.828 L68.75,1151.406 L70.3125,1151.406 L71.875,1151.406 L73.4375,1151.406 L75,1151.406 L76.5625,1151.406 L78.125,1200.259 L79.6875,1200.259 L81.25,1200.259 L82.8125,1200.259 L84.375,1200.259 L85.9375,1200.259 L87.5,1119.103 L89.0625,1119.103 L90.625,1119.103 L92.1875,1119.103 L93.75,1119.103 L95.3125,1119.103 L96.875,1046.122 L98.4375,1046.122 L100,1046.122 L101.5625,1046.122 L103.125,1046.122 L104.6875,1046.122 L106.25,1023.789 L107.8125,1023.789 L109.375,1023.789 L110.9375,1023.789 L112.5,1023.789 L114.0625,1023.789 L115.625,1021.595 L117.1875,1021.595 L118.75,1021.595 L120.3125,1021.595 L121.875,1021.595 L123.4375,1021.595 L125,1020 L126.5625,1020 L128.125,1020 L129.6875,1020 L131.25,1020 L132.8125,1020 L134.375,1023.19 L135.9375,1023.19 L137.5,1023.19 L139.0625,1023.19 L140.625,1023.19 L142.1875,1023.19 L143.75,1202.652 L145.3125,1202.652 L146.875,1202.652 L148.4375,1202.652 L150,1202.652 L151.5625,1202.652 L153.125,1080.618 L154.6875,1080.618 L156.25,1080.618 L157.8125,1080.618 L159.375,1080.618 L160.9375,1080.618 L162.5,1023.19 L164.0625,1023.19 L165.625,1023.19 L167.1875,1023.19 L168.75,1023.19 L170.3125,1023.19 L171.875,1023.19 L173.4375,1023.19 L175,1023.19 L176.5625,1023.19 L178.125,1023.19 L179.6875,1023.19 L181.25,1020 L182.8125,1020 L184.375,1020 L185.9375,1020 L187.5,1020 L189.0625,1020 L190.625,1023.789 L192.1875,1023.789 L193.75,1023.789 L195.3125,1023.789 L196.875,1023.789 L198.4375,1023.789 L200,1061.077 L201.5625,1061.077 L203.125,1061.077 L204.6875,1061.077 L206.25,1061.077 L207.8125,1061.077 L209.375,1158.584 L210.9375,1158.584 L212.5,1158.584 L214.0625,1158.584 L215.625,1158.584 L217.1875,1158.584 L218.75,1022.991 L220.3125,1022.991 L221.875,1022.991 L223.4375,1022.991 L225,1022.991 L226.5625,1022.991 L228.125,1220 L229.6875,1220 L231.25,1220 L232.8125,1220 L234.375,1220 L235.9375,1220 L237.5,1152.403 L239.0625,1152.403 L240.625,1152.403 L242.1875,1152.403 L243.75,1152.403 L245.3125,1152.403 L246.875,1021.994 L248.4375,1021.994 L250,1021.994 L251.5625,1021.994 L253.125,1021.994 L254.6875,1021.994 L256.25,1025.783 L257.8125,1025.783 L259.375,1025.783 L260.9375,1025.783 L262.5,1025.783 L264.0625,1025.783 L265.625,1166.56 L267.1875,1166.56 L268.75,1166.56 L270.3125,1166.56 L271.875,1166.56 L273.4375,1166.56 L275,1025.783 L276.5625,1025.783 L278.125,1025.783 L279.6875,1025.783 L281.25,1025.783 L282.8125,1025.783 L284.375,1027.178 L285.9375,1027.178 L287.5,1027.178 L289.0625,1027.178 L290.625,1027.178 L292.1875,1027.178 L293.75,1160.778 L295.3125,1160.778 L296.875,1160.778 L298.4375,1160.778 L300,1160.778 L301.5625,1160.778 L303.125,1022.991 L304.6875,1022.991 L306.25,1022.991 L307.8125,1022.991 L309.375,1022.991 L310.9375,1022.991 L312.5,1116.51 L314.0625,1116.51 L315.625,1116.51 L317.1875,1116.51 L318.75,1116.51 L320.3125,1116.51 L321.875,1028.574 L323.4375,1028.574 L325,1028.574 L326.5625,1028.574 L328.125,1028.574 L329.6875,1028.574 L331.25,1219.402 L332.8125,1219.402 L334.375,1219.402 L335.9375,1219.402 L337.5,1219.402 L339.0625,1219.402 L340.625,1189.292 L342.1875,1189.292 L343.75,1189.292 L345.3125,1189.292 L346.875,1189.292 L348.4375,1189.292 L350,1151.406 L351.5625,1151.406 L353.125,1151.406 L354.6875,1151.406 L356.25,1151.406 L357.8125,1151.406 L359.375,1022.393 L360.9375,1022.393 L362.5,1022.393 L364.0625,1022.393 L365.625,1022.393 L367.1875,1022.393 " stroke="blue" fill="none" />
<text x="50" y="1270" font-family="Arial" font-size="12" fill="black">Policy Loss</text>
<text x="50" y="1285" font-family="Arial" font-size="10" fill="black">0.4301916</text>
<text x="50" y="1500" font-family="Arial" font-size="10" fill="black">0.4036206</text>
<path d="M50,1490 L75,1290 L100,1342.914 L125,1346.074 " stroke="blue" fill="none" />
<text x="50" y="1540" font-family="Arial" font-size="12" fill="black">Value Loss</text>
<text x="50" y="1555" font-family="Arial" font-size="10" fill="black">0.009933757</text>
<text x="50" y="1770" font-family="Arial" font-size="10" fill="black">0.008112385</text>
<path d="M50,1756.356 L75,1760 L100,1560.001 L125,1627.839 " stroke="blue" fill="none" />
<text x="50" y="1810" font-family="Arial" font-size="12" fill="black">Learning Rate</text>
<text x="50" y="1825" font-family="Arial" font-size="10" fill="black">0.0003</text>
<text x="50" y="2040" font-family="Arial" font-size="10" fill="black">0.0003</text>
<path d="M50,2030 L75,2030 L100,2030 L125,2030 " stroke="blue" fill="none" />
<text x="50" y="2080" font-family="Arial" font-size="12" fill="black">Entropy</text>
<text x="50" y="2095" font-family="Arial" font-size="10" fill="black">0.2577778</text>
<text x="50" y="2310" font-family="Arial" font-size="10" fill="black">0.256914</text>
<path d="M50,2300 L75,2100.002 L100,2219.697 L125,2153.084 " stroke="blue" fill="none" />
<text x="750" y="730" font-family="Arial" font-size="12" fill="black">Simplified</text>
<text x="750" y="745" font-family="Arial" font-size="10" fill="black">0.335608</text>
<text x="750" y="960" font-family="Arial" font-size="10" fill="black">-0.22316</text>
<path d="M778.125,874.5834 L807.8125,838.6841 L837.5,920.1409 L867.1875,750 L896.875,859.6132 L926.5625,858.5576 L956.25,942.4503 L985.9375,834.9545 L1015.625,837.6063 L1045.313,950 L1067.188,816.0741 " stroke="blue" fill="none" />
<text x="750" y="1000" font-family="Arial" font-size="12" fill="black">Simplified</text>
<text x="750" y="1015" font-family="Arial" font-size="10" fill="black">1132.947</text>
<text x="750" y="1230" font-family="Arial" font-size="10" fill="black">291.3684</text>
<path d="M778.125,1220 L807.8125,1121.989 L837.5,1020 L867.1875,1110.807 L896.875,1020.638 L926.5625,1086.829 L956.25,1144.065 L985.9375,1077.899 L1015.625,1091.92 L1045.313,1156.76 L1067.188,1115.013 " stroke="blue" fill="none" />
</svg>
