<svg width="2000" height="2500" xmlns="http://www.w3.org/2000/svg">
<text x="10" y="20" font-family="Arial" font-size="26" fill="black"> [Driver] Training Session</text>
<text x="10" y="50" font-family="Arial" font-size="16" fill="black">[Statistics]</text>
<text x="50" y="70" font-family="Arial" font-size="12" fill="black">Started at: 3:54:11 PM, Saturday, February 24, 2024</text>
<text x="50" y="90" font-family="Arial" font-size="12" fill="black">Finished at: 3:58:22 PM, Saturday, February 24, 2024</text>
<text x="50" y="110" font-family="Arial" font-size="12" fill="black">Training Session Time: 0 hrs : 4 min : 10 sec</text>
<text x="50" y="130" font-family="Arial" font-size="12" fill="black">Inference Time: 2 hrs : 40 min : 12 sec        [Device: CPU]</text>
<text x="50" y="150" font-family="Arial" font-size="12" fill="black">Update Time: 0 hrs : 1 min : 4 sec        [Per iteration: 0 hrs : 0 min : 3.980 sec]        [Device: GPU]</text>
<text x="50" y="170" font-family="Arial" font-size="12" fill="black">Episode Count: 731</text>
<text x="50" y="190" font-family="Arial" font-size="12" fill="black">Inference Steps: 96000</text>
<text x="50" y="210" font-family="Arial" font-size="12" fill="black">Iterations: 16</text>
<text x="50" y="230" font-family="Arial" font-size="12" fill="black">Parallel Agents: 1</text>
<text x="50" y="250" font-family="Arial" font-size="12" fill="black">Timescale: 62.4</text>
<text x="50" y="270" font-family="Arial" font-size="12" fill="black">Trainer: PPO</text>
<text x="10" y="320" font-family="Arial" font-size="16" fill="black">[Hyperparameters]</text>
<text x="50" y="340" font-family="Arial" font-size="12" fill="black">Buffer Size: 6000        [Batch Size: 300       (x20)]</text>
<text x="50" y="360" font-family="Arial" font-size="12" fill="black">Num Epoch: 8</text>
<text x="50" y="380" font-family="Arial" font-size="12" fill="black">Time Horizon: 1024</text>
<text x="50" y="400" font-family="Arial" font-size="12" fill="black">Gradient Cliping by Norm: 0.5</text>
<text x="50" y="420" font-family="Arial" font-size="12" fill="black">Learning Rate Schedule: False    </text>
<text x="10" y="470" font-family="Arial" font-size="16" fill="black">[Behaviour]</text>
<text x="50" y="490" font-family="Arial" font-size="12" fill="black">Space Size: 72</text>
<text x="50" y="510" font-family="Arial" font-size="12" fill="black">Continuous Actions: 3 [Standard Deviation: Fixed]     [Value: 1.07]</text>
<text x="50" y="530" font-family="Arial" font-size="12" fill="black">Discrete Actions: 0</text>
<text x="50" y="550" font-family="Arial" font-size="12" fill="black">TargetFPS: 50 (physics update rate)</text>
<text x="50" y="570" font-family="Arial" font-size="12" fill="black">Observations Normalization: False</text>
<text x="10" y="620" font-family="Arial" font-size="16" fill="black">[Decision Requester]</text>
<text x="50" y="640" font-family="Arial" font-size="12" fill="black">Max Step: 6000</text>
<text x="50" y="660" font-family="Arial" font-size="12" fill="black">Decision Period: 5      [Actions Between Decisions: True]</text>
<text x="10" y="710" font-family="Arial" font-size="16" fill="black">[Graphs]</text>
<text x="50" y="730" font-family="Arial" font-size="12" fill="black">Episode Reward (731)</text>
<text x="50" y="745" font-family="Arial" font-size="10" fill="black">3.201001</text>
<text x="50" y="960" font-family="Arial" font-size="10" fill="black">-0.937664</text>
<path d="M50,896.3765 L50.39063,810.5364 L50.78125,896.9646 L51.17188,779.2528 L51.5625,897.8941 L51.95313,897.339 L52.34375,897.7314 L52.73438,805.5163 L53.125,922.7578 L53.51563,945.4125 L53.90625,892.726 L54.29688,896.8062 L54.6875,896.4644 L55.07813,893.6514 L55.46875,897.3506 L55.85938,810.9041 L56.25,923.4106 L56.64063,896.5266 L57.03125,921.8786 L57.42188,864.1969 L57.8125,836.4014 L58.20313,813.2418 L58.59375,896.6443 L58.98438,894.1929 L59.375,897.0322 L59.76563,896.5384 L60.15625,896.5085 L60.54688,896.8719 L60.9375,811.6501 L61.32813,816.3205 L61.71875,950 L62.10938,896.9922 L62.5,807.85 L62.89063,863.7419 L63.28125,896.9332 L63.67188,897.3043 L64.0625,897.3733 L64.45313,897.0725 L64.84375,896.8007 L65.23438,897.2774 L65.625,896.1556 L66.01563,898.3204 L66.40625,893.8581 L66.79688,890.4697 L67.1875,897.4567 L67.57813,893.0275 L67.96875,811.2156 L68.35938,892.4816 L68.75,897.6511 L69.14063,897.3689 L69.53125,897.3215 L69.92188,897.129 L70.3125,897.0624 L70.70313,896.4124 L71.09375,945.7263 L71.48438,945.1217 L71.875,897.1505 L72.26563,898.1061 L72.65625,806.4844 L73.04688,898.0825 L73.4375,880.7407 L73.82813,896.9998 L74.21875,897.3969 L74.60938,897.0435 L75,896.998 L75.39063,896.4982 L75.78125,897.8706 L76.17188,864.204 L76.5625,886.3206 L76.95313,897.5431 L77.34375,896.83 L77.73438,896.8461 L78.125,897.4163 L78.51563,944.6542 L78.90625,891.3499 L79.29688,897.6116 L79.6875,885.1705 L80.07813,894.1278 L80.46875,897.6917 L80.85938,890.1533 L81.25,761.0624 L81.64063,897.2817 L82.03125,757.6334 L82.42188,890.1492 L82.8125,896.8028 L83.20313,897.3702 L83.59375,896.9414 L83.98438,891.1931 L84.375,895.6174 L84.76563,892.4823 L85.15625,807.8597 L85.54688,896.9282 L85.9375,897.3228 L86.32813,819.9279 L86.71875,896.5333 L87.10938,813.6377 L87.5,945.3039 L87.89063,896.5267 L88.28125,897.0403 L88.67188,801.0337 L89.0625,868.0812 L89.45313,896.6417 L89.84375,897.8278 L90.23438,896.8364 L90.625,799.9274 L91.01563,922.6177 L91.40625,868.0038 L91.79688,810.4433 L92.1875,811.5619 L92.57813,783.8588 L92.96875,896.5629 L93.35938,810.5151 L93.75,896.7583 L94.14063,929.3531 L94.53125,890.2254 L94.92188,859.8452 L95.3125,897.9174 L95.70313,896.5991 L96.09375,893.3625 L96.48438,897.5347 L96.875,766.8939 L97.26563,872.1077 L97.65625,883.2208 L98.04688,840.6169 L98.4375,897.4941 L98.82813,804.5816 L99.21875,898.4987 L99.60938,921.0526 L100,920.7128 L100.3906,859.0302 L100.7813,766.1927 L101.1719,917.64 L101.5625,812.7911 L101.9531,860.7805 L102.3438,897.0135 L102.7344,895.6483 L103.125,773.7856 L103.5156,923.5417 L103.9063,879.3842 L104.2969,769.7338 L104.6875,922.515 L105.0781,813.5176 L105.4688,897.9644 L105.8594,897.2511 L106.25,896.9947 L106.6406,896.5958 L107.0313,915.1974 L107.4219,897.5008 L107.8125,812.5629 L108.2031,895.5932 L108.5938,897.5004 L108.9844,837.6045 L109.375,889.1863 L109.7656,886.9614 L110.1563,800.9847 L110.5469,811.4591 L110.9375,878.4604 L111.3281,808.3866 L111.7188,805.5531 L112.1094,893.54 L112.5,897.3831 L112.8906,863.3524 L113.2813,897.0175 L113.6719,890.9432 L114.0625,825.5758 L114.4531,896.8002 L114.8438,896.438 L115.2344,810.9346 L115.625,896.1851 L116.0156,896.4685 L116.4063,861.4451 L116.7969,896.3042 L117.1875,897.0438 L117.5781,894.7979 L117.9688,805.99 L118.3594,775.1178 L118.75,898.066 L119.1406,891.2924 L119.5313,886.6702 L119.9219,918.4868 L120.3125,944.4534 L120.7031,923.3107 L121.0938,887.3565 L121.4844,886.267 L121.875,775.1783 L122.2656,799.4061 L122.6563,897.9936 L123.0469,858.0673 L123.4375,897.7039 L123.8281,896.4874 L124.2188,889.9938 L124.6094,944.5437 L125,897.9866 L125.3906,877.9706 L125.7813,897.3027 L126.1719,896.6738 L126.5625,897.1929 L126.9531,890.5409 L127.3438,845.6951 L127.7344,922.1118 L128.125,897.5068 L128.5156,896.1412 L128.9063,887.7653 L129.2969,776.9988 L129.6875,790.3678 L130.0781,897.4302 L130.4688,809.0585 L130.8594,898.9893 L131.25,897.0734 L131.6406,867.4774 L132.0313,802.7859 L132.4219,893.7733 L132.8125,896.9711 L133.2031,897.8011 L133.5938,877.1777 L133.9844,896.4391 L134.375,839.1055 L134.7656,808.6851 L135.1563,896.7104 L135.5469,891.4934 L135.9375,891.0453 L136.3281,778.3524 L136.7188,802.0098 L137.1094,896.1655 L137.5,896.2628 L137.8906,893.4189 L138.2813,897.0493 L138.6719,897.511 L139.0625,895.9848 L139.4531,800.4907 L139.8438,896.9675 L140.2344,897.5422 L140.625,805.0509 L141.0156,898.0457 L141.4063,894.4139 L141.7969,833.9791 L142.1875,920.3737 L142.5781,893.3797 L142.9688,889.6357 L143.3594,936.7255 L143.75,862.0689 L144.1406,898.4777 L144.5313,896.9307 L144.9219,897.845 L145.3125,897.1895 L145.7031,896.0836 L146.0938,810.8059 L146.4844,853.0509 L146.875,894.1216 L147.2656,880.208 L147.6563,896.9625 L148.0469,808.0423 L148.4375,813.5334 L148.8281,860.3201 L149.2188,805.7336 L149.6094,896.5347 L150,895.801 L150.3906,895.5106 L150.7813,895.3737 L151.1719,896.3713 L151.5625,895.653 L151.9531,944.2841 L152.3438,835.3209 L152.7344,830.0781 L153.125,896.9202 L153.5156,897.0913 L153.9063,814.8715 L154.2969,893.6591 L154.6875,896.2802 L155.0781,811.6785 L155.4688,892.4403 L155.8594,896.8873 L156.25,896.8976 L156.6406,896.9706 L157.0313,896.4347 L157.4219,895.4175 L157.8125,896.3368 L158.2031,812.4897 L158.5938,813.6519 L158.9844,896.539 L159.375,870.7834 L159.7656,887.4348 L160.1563,897.5474 L160.5469,895.6104 L160.9375,921.9095 L161.3281,813.7278 L161.7188,896.5155 L162.1094,896.8257 L162.5,809.6654 L162.8906,813.7387 L163.2813,884.8292 L163.6719,809.918 L164.0625,886.4328 L164.4531,806.2307 L164.8438,897.8582 L165.2344,897.5612 L165.625,893.0592 L166.0156,896.9411 L166.4063,945.8213 L166.7969,890.0118 L167.1875,890.6987 L167.5781,814.6329 L167.9688,813.445 L168.3594,915.8195 L168.75,893.9888 L169.1406,896.7057 L169.5313,897.848 L169.9219,879.2571 L170.3125,889.3082 L170.7031,897.4379 L171.0938,862.4087 L171.4844,896.3625 L171.875,893.5688 L172.2656,812.8918 L172.6563,896.1931 L173.0469,896.9256 L173.4375,803.3816 L173.8281,888.1896 L174.2188,895.949 L174.6094,888.0959 L175,886.1401 L175.3906,897.5658 L175.7813,897.2473 L176.1719,864.633 L176.5625,896.0182 L176.9531,898.105 L177.3438,922.6208 L177.7344,886.5396 L178.125,892.0994 L178.5156,802.7626 L178.9063,945.0615 L179.2969,896.8707 L179.6875,811.8356 L180.0781,864.7457 L180.4688,896.0642 L180.8594,895.3694 L181.25,895.8669 L181.6406,896.5383 L182.0313,886.6591 L182.4219,897.6711 L182.8125,808.6678 L183.2031,808.8719 L183.5938,839.8781 L183.9844,893.9709 L184.375,805.6786 L184.7656,896.4761 L185.1563,892.645 L185.5469,836.5013 L185.9375,896.1754 L186.3281,898.1915 L186.7188,896.8901 L187.1094,812.5175 L187.5,809.6199 L187.8906,895.5994 L188.2813,840.0638 L188.6719,897.0089 L189.0625,922.3143 L189.4531,802.9343 L189.8438,897.2969 L190.2344,799.2687 L190.625,810.5105 L191.0156,890.218 L191.4063,805.027 L191.7969,887.9847 L192.1875,870.3113 L192.5781,805.0097 L192.9688,897.2458 L193.3594,887.455 L193.75,945.994 L194.1406,893.0461 L194.5313,895.6398 L194.9219,886.3984 L195.3125,896.5488 L195.7031,918.8589 L196.0938,896.621 L196.4844,897.0468 L196.875,895.7825 L197.2656,750.9499 L197.6563,889.9243 L198.0469,895.714 L198.4375,897.8098 L198.8281,895.3599 L199.2188,921.8873 L199.6094,896.7151 L200,896.4858 L200.3906,896.5297 L200.7813,948.6376 L201.1719,841.1175 L201.5625,897.5524 L201.9531,807.4714 L202.3438,808.4004 L202.7344,864.137 L203.125,850.6945 L203.5156,896.2721 L203.9063,898.1667 L204.2969,772.343 L204.6875,895.2006 L205.0781,921.7371 L205.4688,803.0519 L205.8594,836.0258 L206.25,813.7328 L206.6406,896.4327 L207.0313,897.0846 L207.4219,896.6042 L207.8125,923.2162 L208.2031,896.7971 L208.5938,889.2971 L208.9844,892.7007 L209.375,821.6666 L209.7656,898.185 L210.1563,897.6458 L210.5469,771.7924 L210.9375,886.2747 L211.3281,897.1271 L211.7188,897.1794 L212.1094,861.1681 L212.5,802.9046 L212.8906,919.0717 L213.2813,812.9504 L213.6719,882.2117 L214.0625,894.7499 L214.4531,750.3176 L214.8438,894.8882 L215.2344,808.5848 L215.625,816.5676 L216.0156,896.3455 L216.4063,761.6546 L216.7969,893.1014 L217.1875,893.7005 L217.5781,796.7676 L217.9688,896.8911 L218.3594,803.9799 L218.75,935.6375 L219.1406,896.4006 L219.5313,891.7173 L219.9219,803.3713 L220.3125,897.3301 L220.7031,894.5008 L221.0938,896.9084 L221.4844,888.1672 L221.875,897.8097 L222.2656,896.7707 L222.6563,893.3784 L223.0469,891.2029 L223.4375,922.7797 L223.8281,896.888 L224.2188,924.2405 L224.6094,893.4585 L225,774.5323 L225.3906,893.2362 L225.7813,897.2241 L226.1719,812.7724 L226.5625,945.1509 L226.9531,917.1902 L227.3438,893.3561 L227.7344,896.7728 L228.125,766.0963 L228.5156,898.4423 L228.9063,814.1284 L229.2969,892.6832 L229.6875,898.2053 L230.0781,800.1069 L230.4688,880.8145 L230.8594,803.6698 L231.25,897.7455 L231.6406,896.1378 L232.0313,857.3326 L232.4219,887.7018 L232.8125,896.2761 L233.2031,803.4525 L233.5938,811.592 L233.9844,815.6525 L234.375,894.0914 L234.7656,890.5695 L235.1563,896.756 L235.5469,895.9056 L235.9375,885.8701 L236.3281,864.5504 L236.7188,896.7756 L237.1094,897.7266 L237.5,830.1561 L237.8906,806.9287 L238.2813,922.4022 L238.6719,854.4069 L239.0625,767.2168 L239.4531,772.7664 L239.8438,810.4438 L240.2344,822.0571 L240.625,896.1402 L241.0156,811.0984 L241.4063,884.8466 L241.7969,804.321 L242.1875,774.9442 L242.5781,882.8986 L242.9688,809.5115 L243.3594,895.7932 L243.75,897.0102 L244.1406,895.7955 L244.5313,897.0493 L244.9219,898.1182 L245.3125,808.8955 L245.7031,897.0057 L246.0938,845.1887 L246.4844,896.5855 L246.875,889.3519 L247.2656,888.8419 L247.6563,894.0342 L248.0469,799.7983 L248.4375,767.2584 L248.8281,897.5431 L249.2188,810.5329 L249.6094,810.2776 L250,793.2637 L250.3906,897.1519 L250.7813,807.1384 L251.1719,800.8362 L251.5625,923.1808 L251.9531,859.7633 L252.3438,896.1481 L252.7344,805.9272 L253.125,886.7988 L253.5156,921.7237 L253.9063,910.7724 L254.2969,799.9526 L254.6875,894.1891 L255.0781,944.2966 L255.4688,921.2858 L255.8594,830.6437 L256.25,775.5917 L256.6406,895.0867 L257.0313,893.6556 L257.4219,881.1485 L257.8125,896.1001 L258.2031,897.1759 L258.5938,894.6105 L258.9844,918.3821 L259.375,918.3647 L259.7656,895.6534 L260.1563,889.3777 L260.5469,798.3038 L260.9375,897.0732 L261.3281,769.7654 L261.7188,816.2919 L262.1094,898.3871 L262.5,805.6097 L262.8906,890.1018 L263.2813,814.3168 L263.6719,846.4783 L264.0625,810.7784 L264.4531,827.0239 L264.8438,898.6906 L265.2344,883.2732 L265.625,796.3645 L266.0156,895.7503 L266.4063,809.9464 L266.7969,803.9456 L267.1875,897.1946 L267.5781,919.2482 L267.9688,889.1706 L268.3594,891.3003 L268.75,770.3188 L269.1406,822.8676 L269.5313,893.4227 L269.9219,821.354 L270.3125,898.0602 L270.7031,802.8234 L271.0938,943.9565 L271.4844,810.8964 L271.875,777.7127 L272.2656,778.4877 L272.6563,897.7144 L273.0469,795.434 L273.4375,798.6108 L273.8281,948.9958 L274.2188,814.9626 L274.6094,804.6874 L275,798.671 L275.3906,776.2627 L275.7813,896.8438 L276.1719,812.5982 L276.5625,885.3201 L276.9531,895.3434 L277.3438,892.2655 L277.7344,894.1351 L278.125,861.4379 L278.5156,808.4053 L278.9063,897.3788 L279.2969,894.6439 L279.6875,766.0779 L280.0781,919.4612 L280.4688,897.1558 L280.8594,892.1719 L281.25,898.4645 L281.6406,914.5579 L282.0313,897.2667 L282.4219,856.675 L282.8125,896.4111 L283.2031,894.6892 L283.5938,797.2112 L283.9844,836.3451 L284.375,823.0297 L284.7656,894.415 L285.1563,804.5016 L285.5469,868.9482 L285.9375,862.7327 L286.3281,920.9095 L286.7188,773.1661 L287.1094,826.3169 L287.5,815.2347 L287.8906,897.5128 L288.2813,896.3318 L288.6719,891.5647 L289.0625,896.291 L289.4531,896.7816 L289.8438,895.8715 L290.2344,890.6321 L290.625,794.1913 L291.0156,853.3323 L291.4063,816.2156 L291.7969,816.1264 L292.1875,888.7747 L292.5781,762.3019 L292.9688,806.0704 L293.3594,896.5677 L293.75,897.2929 L294.1406,888.4044 L294.5313,897.5475 L294.9219,833.0995 L295.3125,810.5131 L295.7031,888.6534 L296.0938,836.6631 L296.4844,892.1308 L296.875,895.3994 L297.2656,864.8661 L297.6563,945.2904 L298.0469,896.0474 L298.4375,861.4657 L298.8281,810.5902 L299.2188,824.4485 L299.6094,893.604 L300,777.3611 L300.3906,920.0615 L300.7813,837.1045 L301.1719,878.0153 L301.5625,766.211 L301.9531,882.8985 L302.3438,896.8643 L302.7344,922.9587 L303.125,811.3857 L303.5156,767.9862 L303.9063,868.8632 L304.2969,816.5283 L304.6875,896.8965 L305.0781,895.2909 L305.4688,898.5389 L305.8594,897.9966 L306.25,896.3937 L306.6407,945.7676 L307.0313,896.5779 L307.4219,811.6923 L307.8125,897.3358 L308.2031,824.5875 L308.5938,897.2902 L308.9844,897.0777 L309.375,812.7231 L309.7656,894.7147 L310.1563,769.4659 L310.5469,804.8682 L310.9375,888.0358 L311.3281,858.194 L311.7188,897.7117 L312.1094,812.0153 L312.5,895.335 L312.8906,892.7475 L313.2813,807.7632 L313.6719,889.5157 L314.0625,896.7862 L314.4532,896.7123 L314.8438,757.779 L315.2344,802.3499 L315.625,751.2386 L316.0156,896.9229 L316.4063,896.9568 L316.7969,894.513 L317.1875,897.9184 L317.5781,897.3907 L317.9688,821.7151 L318.3594,888.8975 L318.75,890.7992 L319.1406,799.1588 L319.5313,896.3528 L319.9219,890.8091 L320.3125,804.4065 L320.7031,922.5378 L321.0938,915.8223 L321.4844,880.5385 L321.875,808.6853 L322.2657,892.0798 L322.6563,750 L323.0469,921.7446 L323.4375,811.4948 L323.8281,897.2812 L324.2188,765.1126 L324.6094,807.8484 L325,812.3296 L325.3906,857.1339 L325.7813,897.0677 L326.1719,810.9239 L326.5625,762.0864 L326.9531,897.5048 L327.3438,808.3574 L327.7344,892.6539 L328.125,776.4636 L328.5156,807.0155 L328.9063,895.624 L329.2969,796.8214 L329.6875,897.575 L330.0782,918.4337 L330.4688,895.0833 L330.8594,882.2124 L331.25,896.6904 L331.6406,896.701 L332.0313,771.8548 L332.4219,897.116 L332.8125,924.4252 L333.2031,793.3847 L333.5938,855.7293 L333.9844,800.6644 L334.375,945.6497 L334.7656,897.8554 L335.1563,897.093 " stroke="blue" fill="none" />
<text x="50" y="1000" font-family="Arial" font-size="12" fill="black">Episode Length (731)</text>
<text x="50" y="1015" font-family="Arial" font-size="10" fill="black">593</text>
<text x="50" y="1230" font-family="Arial" font-size="10" fill="black">15</text>
<path d="M50,1211.003 L50.39063,1163.945 L50.78125,1209.273 L51.17188,1164.637 L51.5625,1213.426 L51.95313,1209.273 L52.34375,1210.657 L52.73438,1143.529 L53.125,1212.042 L53.51563,1199.931 L53.90625,1194.74 L54.29688,1208.927 L54.6875,1200.277 L55.07813,1196.817 L55.46875,1203.045 L55.85938,1173.979 L56.25,1214.81 L56.64063,1207.543 L57.03125,1202.353 L57.42188,1187.82 L57.8125,1176.055 L58.20313,1180.9 L58.59375,1208.581 L58.98438,1192.318 L59.375,1209.619 L59.76563,1206.505 L60.15625,1196.125 L60.54688,1200.623 L60.9375,1175.017 L61.32813,1191.28 L61.71875,1220 L62.10938,1209.273 L62.5,1161.177 L62.89063,1180.554 L63.28125,1209.619 L63.67188,1210.657 L64.0625,1199.585 L64.45313,1208.581 L64.84375,1202.353 L65.23438,1203.737 L65.625,1207.543 L66.01563,1204.083 L66.40625,1192.664 L66.79688,1184.36 L67.1875,1203.391 L67.57813,1196.125 L67.96875,1170.519 L68.35938,1182.976 L68.75,1210.311 L69.14063,1208.581 L69.53125,1208.927 L69.92188,1204.083 L70.3125,1201.661 L70.70313,1210.657 L71.09375,1203.045 L71.48438,1200.969 L71.875,1209.273 L72.26563,1210.657 L72.65625,1151.834 L73.04688,1210.657 L73.4375,1148.72 L73.82813,1199.239 L74.21875,1209.965 L74.60938,1206.851 L75,1208.581 L75.39063,1201.661 L75.78125,1208.927 L76.17188,1184.706 L76.5625,1169.135 L76.95313,1203.391 L77.34375,1203.737 L77.73438,1210.311 L78.125,1203.737 L78.51563,1200.277 L78.90625,1191.28 L79.29688,1202.699 L79.6875,1148.72 L80.07813,1188.858 L80.46875,1202.353 L80.85938,1189.896 L81.25,1093.702 L81.64063,1210.311 L82.03125,1090.242 L82.42188,1171.557 L82.8125,1202.353 L83.20313,1202.353 L83.59375,1200.277 L83.98438,1188.166 L84.375,1207.197 L84.76563,1191.28 L85.15625,1167.059 L85.54688,1206.851 L85.9375,1204.775 L86.32813,1138.339 L86.71875,1207.543 L87.10938,1181.246 L87.5,1200.277 L87.89063,1209.273 L88.28125,1208.235 L88.67188,1144.568 L89.0625,1098.547 L89.45313,1207.197 L89.84375,1204.775 L90.23438,1208.235 L90.625,1141.453 L91.01563,1211.696 L91.40625,1079.862 L91.79688,1169.827 L92.1875,1175.017 L92.57813,1058.408 L92.96875,1205.467 L93.35938,1169.135 L93.75,1208.581 L94.14063,1146.99 L94.53125,1186.09 L94.92188,1173.633 L95.3125,1202.007 L95.70313,1200.277 L96.09375,1197.509 L96.48438,1203.391 L96.875,1115.848 L97.26563,1106.505 L97.65625,1142.145 L98.04688,1190.242 L98.4375,1204.775 L98.82813,1155.294 L99.21875,1206.505 L99.60938,1200.969 L100,1200.277 L100.3906,1169.135 L100.7813,1122.768 L101.1719,1188.166 L101.5625,1167.059 L101.9531,1178.823 L102.3438,1207.889 L102.7344,1205.121 L103.125,1143.529 L103.5156,1213.772 L103.9063,1136.955 L104.2969,1134.879 L104.6875,1212.388 L105.0781,1181.938 L105.4688,1204.775 L105.8594,1202.699 L106.25,1207.889 L106.6406,1199.931 L107.0313,1174.325 L107.4219,1202.699 L107.8125,1178.823 L108.2031,1195.779 L108.5938,1203.045 L108.9844,1182.63 L109.375,1161.522 L109.7656,1168.443 L110.1563,1121.73 L110.5469,1174.325 L110.9375,1120.692 L111.3281,1163.945 L111.7188,1155.64 L112.1094,1187.82 L112.5,1208.927 L112.8906,1180.9 L113.2813,1201.661 L113.6719,1173.633 L114.0625,1020 L114.4531,1197.855 L114.8438,1205.813 L115.2344,1174.671 L115.625,1198.893 L116.0156,1207.197 L116.4063,1176.401 L116.7969,1201.315 L117.1875,1203.045 L117.5781,1194.048 L117.9688,1159.792 L118.3594,1144.913 L118.75,1204.775 L119.1406,1191.28 L119.5313,1163.599 L119.9219,1188.166 L120.3125,1199.585 L120.7031,1215.156 L121.0938,1148.028 L121.4844,1162.561 L121.875,1150.45 L122.2656,1134.533 L122.6563,1202.007 L123.0469,1154.256 L123.4375,1203.737 L123.8281,1199.931 L124.2188,1185.744 L124.6094,1202.007 L125,1204.083 L125.3906,1129.689 L125.7813,1204.083 L126.1719,1205.467 L126.5625,1203.045 L126.9531,1177.786 L127.3438,1116.194 L127.7344,1211.003 L128.125,1210.311 L128.5156,1205.121 L128.9063,1162.907 L129.2969,1158.062 L129.6875,1097.163 L130.0781,1203.391 L130.4688,1158.754 L130.8594,1206.505 L131.25,1208.581 L131.6406,1059.792 L132.0313,1153.564 L132.4219,1188.512 L132.8125,1207.889 L133.2031,1206.159 L133.5938,1133.841 L133.9844,1200.969 L134.375,1185.398 L134.7656,1151.142 L135.1563,1197.163 L135.5469,1193.356 L135.9375,1170.519 L136.3281,1163.599 L136.7188,1142.837 L137.1094,1200.277 L137.5,1203.391 L137.8906,1184.014 L138.2813,1209.619 L138.6719,1203.045 L139.0625,1207.889 L139.4531,1122.422 L139.8438,1209.619 L140.2344,1208.581 L140.625,1150.796 L141.0156,1203.045 L141.4063,1194.394 L141.7969,1168.097 L142.1875,1195.432 L142.5781,1185.744 L142.9688,1173.633 L143.3594,1170.173 L143.75,1179.862 L144.1406,1203.391 L144.5313,1208.581 L144.9219,1208.927 L145.3125,1201.661 L145.7031,1195.779 L146.0938,1164.637 L146.4844,1139.031 L146.875,1198.547 L147.2656,1156.678 L147.6563,1201.315 L148.0469,1159.1 L148.4375,1180.554 L148.8281,1175.709 L149.2188,1156.332 L149.6094,1200.623 L150,1198.201 L150.3906,1205.121 L150.7813,1203.737 L151.1719,1199.585 L151.5625,1196.471 L151.9531,1198.201 L152.3438,1172.595 L152.7344,1148.028 L153.125,1206.159 L153.5156,1199.931 L153.9063,1184.706 L154.2969,1189.204 L154.6875,1208.927 L155.0781,1175.363 L155.4688,1194.74 L155.8594,1207.889 L156.25,1202.699 L156.6406,1203.045 L157.0313,1206.851 L157.4219,1200.277 L157.8125,1199.931 L158.2031,1165.329 L158.5938,1184.36 L158.9844,1206.159 L159.375,1101.315 L159.7656,1174.671 L160.1563,1204.083 L160.5469,1196.817 L160.9375,1211.349 L161.3281,1184.014 L161.7188,1198.201 L162.1094,1209.619 L162.5,1172.941 L162.8906,1180.9 L163.2813,1152.526 L163.6719,1168.097 L164.0625,1169.481 L164.4531,1160.83 L164.8438,1201.661 L165.2344,1205.121 L165.625,1195.779 L166.0156,1202.699 L166.4063,1200.969 L166.7969,1177.093 L167.1875,1188.166 L167.5781,1174.671 L167.9688,1182.63 L168.3594,1176.055 L168.75,1199.585 L169.1406,1208.235 L169.5313,1203.391 L169.9219,1136.609 L170.3125,1180.9 L170.7031,1202.699 L171.0938,1180.9 L171.4844,1198.893 L171.875,1189.204 L172.2656,1178.478 L172.6563,1207.197 L173.0469,1201.315 L173.4375,1144.221 L173.8281,1176.401 L174.2188,1201.315 L174.6094,1169.481 L175,1157.024 L175.3906,1207.889 L175.7813,1207.889 L176.1719,1185.398 L176.5625,1206.505 L176.9531,1209.619 L177.3438,1211.349 L177.7344,1149.412 L178.125,1189.896 L178.5156,1152.526 L178.9063,1202.699 L179.2969,1208.581 L179.6875,1176.055 L180.0781,1188.166 L180.4688,1199.239 L180.8594,1194.048 L181.25,1208.235 L181.6406,1197.509 L182.0313,1169.481 L182.4219,1205.467 L182.8125,1157.37 L183.2031,1167.751 L183.5938,1187.128 L183.9844,1195.432 L184.375,1145.26 L184.7656,1207.889 L185.1563,1193.702 L185.5469,1178.131 L185.9375,1206.505 L186.3281,1204.775 L186.7188,1209.965 L187.1094,1178.478 L187.5,1165.329 L187.8906,1205.813 L188.2813,1185.744 L188.6719,1210.657 L189.0625,1211.003 L189.4531,1144.568 L189.8438,1199.585 L190.2344,1133.149 L190.625,1175.363 L191.0156,1185.052 L191.4063,1148.374 L191.7969,1167.405 L192.1875,1079.516 L192.5781,1162.214 L192.9688,1204.775 L193.3594,1176.055 L193.75,1207.543 L194.1406,1194.74 L194.5313,1200.277 L194.9219,1165.675 L195.3125,1199.931 L195.7031,1196.471 L196.0938,1209.273 L196.4844,1207.197 L196.875,1204.429 L197.2656,1040.761 L197.6563,1174.671 L198.0469,1207.197 L198.4375,1203.737 L198.8281,1204.429 L199.2188,1200.969 L199.6094,1207.889 L200,1209.619 L200.3906,1199.931 L200.7813,1216.886 L201.1719,1190.242 L201.5625,1203.737 L201.9531,1158.754 L202.3438,1164.637 L202.7344,1186.782 L203.125,1150.796 L203.5156,1206.851 L203.9063,1207.543 L204.2969,1145.26 L204.6875,1203.045 L205.0781,1208.927 L205.4688,1145.26 L205.8594,1170.865 L206.25,1182.976 L206.6406,1209.619 L207.0313,1201.661 L207.4219,1208.581 L207.8125,1213.426 L208.2031,1200.623 L208.5938,1180.9 L208.9844,1185.052 L209.375,1142.491 L209.7656,1208.235 L210.1563,1204.429 L210.5469,1143.183 L210.9375,1164.291 L211.3281,1201.661 L211.7188,1203.045 L212.1094,1175.017 L212.5,1137.993 L212.8906,1197.509 L213.2813,1177.439 L213.6719,1135.571 L214.0625,1196.125 L214.4531,1060.138 L214.8438,1196.125 L215.2344,1155.64 L215.625,1188.512 L216.0156,1197.163 L216.4063,1084.014 L216.7969,1188.858 L217.1875,1188.166 L217.5781,1108.927 L217.9688,1199.585 L218.3594,1152.18 L218.75,1167.751 L219.1406,1207.889 L219.5313,1180.9 L219.9219,1138.685 L220.3125,1200.969 L220.7031,1191.28 L221.0938,1202.007 L221.4844,1175.709 L221.875,1201.315 L222.2656,1207.543 L222.6563,1195.779 L223.0469,1178.131 L223.4375,1211.003 L223.8281,1202.007 L224.2188,1216.194 L224.6094,1197.163 L225,1142.491 L225.3906,1198.201 L225.7813,1207.889 L226.1719,1175.017 L226.5625,1200.969 L226.9531,1189.55 L227.3438,1194.74 L227.7344,1207.197 L228.125,1116.194 L228.5156,1204.429 L228.9063,1181.246 L229.2969,1193.356 L229.6875,1205.467 L230.0781,1109.619 L230.4688,1136.609 L230.8594,1144.913 L231.25,1206.505 L231.6406,1199.585 L232.0313,1164.291 L232.4219,1171.903 L232.8125,1198.893 L233.2031,1151.488 L233.5938,1173.287 L233.9844,1185.052 L234.375,1198.201 L234.7656,1179.862 L235.1563,1204.775 L235.5469,1205.813 L235.9375,1170.865 L236.3281,1188.858 L236.7188,1202.007 L237.1094,1203.737 L237.5,1150.796 L237.8906,1154.948 L238.2813,1212.734 L238.6719,1150.104 L239.0625,1108.235 L239.4531,1143.875 L239.8438,1169.135 L240.2344,1147.336 L240.625,1198.893 L241.0156,1160.138 L241.4063,1145.606 L241.7969,1154.256 L242.1875,1148.374 L242.5781,1144.568 L242.9688,1167.405 L243.3594,1204.429 L243.75,1207.889 L244.1406,1197.855 L244.5313,1203.737 L244.9219,1208.927 L245.3125,1152.872 L245.7031,1208.581 L246.0938,1117.924 L246.4844,1202.699 L246.875,1179.17 L247.2656,1171.211 L247.6563,1189.55 L248.0469,1139.377 L248.4375,1120.346 L248.8281,1199.931 L249.2188,1060.83 L249.6094,1159.792 L250,1098.201 L250.3906,1211.349 L250.7813,1164.637 L251.1719,1147.336 L251.5625,1212.042 L251.9531,1165.675 L252.3438,1205.813 L252.7344,1155.294 L253.125,1152.872 L253.5156,1199.585 L253.9063,1159.446 L254.2969,1133.495 L254.6875,1187.474 L255.0781,1199.931 L255.4688,1201.661 L255.8594,1156.332 L256.25,1145.952 L256.6406,1195.779 L257.0313,1191.972 L257.4219,1143.875 L257.8125,1207.889 L258.2031,1206.159 L258.5938,1188.858 L258.9844,1186.09 L259.375,1189.204 L259.7656,1205.467 L260.1563,1164.637 L260.5469,1130.035 L260.9375,1210.657 L261.3281,1124.152 L261.7188,1118.27 L262.1094,1211.696 L262.5,1140.415 L262.8906,1179.862 L263.2813,1089.55 L263.6719,1112.734 L264.0625,1171.211 L264.4531,1161.177 L264.8438,1208.581 L265.2344,1146.298 L265.625,1133.841 L266.0156,1199.239 L266.4063,1100.969 L266.7969,1152.872 L267.1875,1202.699 L267.5781,1190.934 L267.9688,1183.668 L268.3594,1191.28 L268.75,1128.997 L269.1406,1146.99 L269.5313,1187.128 L269.9219,1141.453 L270.3125,1205.121 L270.7031,1133.149 L271.0938,1195.087 L271.4844,1163.253 L271.875,1022.768 L272.2656,1160.484 L272.6563,1203.045 L273.0469,1112.734 L273.4375,1129.343 L273.8281,1217.924 L274.2188,1173.287 L274.6094,1161.869 L275,1123.806 L275.3906,1153.91 L275.7813,1203.391 L276.1719,1180.554 L276.5625,1164.983 L276.9531,1197.509 L277.3438,1184.36 L277.7344,1190.934 L278.125,1175.017 L278.5156,1160.83 L278.9063,1201.315 L279.2969,1191.626 L279.6875,1117.578 L280.0781,1194.048 L280.4688,1203.391 L280.8594,1193.356 L281.25,1202.007 L281.6406,1175.363 L282.0313,1209.965 L282.4219,1160.83 L282.8125,1197.509 L283.2031,1199.239 L283.5938,1105.813 L283.9844,1174.325 L284.375,1145.606 L284.7656,1197.509 L285.1563,1141.799 L285.5469,1072.941 L285.9375,1179.17 L286.3281,1200.969 L286.7188,1143.875 L287.1094,1140.415 L287.5,1185.398 L287.8906,1203.391 L288.2813,1200.277 L288.6719,1181.592 L289.0625,1199.239 L289.4531,1209.619 L289.8438,1193.01 L290.2344,1177.093 L290.625,1102.353 L291.0156,1141.799 L291.4063,1179.516 L291.7969,1178.478 L292.1875,1169.481 L292.5781,1107.889 L292.9688,1154.948 L293.3594,1201.661 L293.75,1200.277 L294.1406,1168.443 L294.5313,1208.581 L294.9219,1163.253 L295.3125,1157.37 L295.7031,1179.516 L296.0938,1176.747 L296.4844,1182.976 L296.875,1199.931 L297.2656,1185.744 L297.6563,1199.239 L298.0469,1207.889 L298.4375,1179.862 L298.8281,1170.519 L299.2188,1154.256 L299.6094,1197.509 L300,1154.602 L300.3906,1198.201 L300.7813,1179.516 L301.1719,1127.266 L301.5625,1116.886 L301.9531,1138.339 L302.3438,1202.007 L302.7344,1212.388 L303.125,1169.135 L303.5156,1124.498 L303.9063,1197.163 L304.2969,1185.744 L304.6875,1201.315 L305.0781,1202.353 L305.4688,1205.121 L305.8594,1204.083 L306.25,1200.969 L306.6407,1209.965 L307.0313,1204.775 L307.4219,1177.439 L307.8125,1200.623 L308.2031,1153.218 L308.5938,1208.581 L308.9844,1207.889 L309.375,1175.017 L309.7656,1190.242 L310.1563,1132.457 L310.5469,1155.64 L310.9375,1168.443 L311.3281,1159.792 L311.7188,1202.353 L312.1094,1173.633 L312.5,1194.74 L312.8906,1186.782 L313.2813,1157.37 L313.6719,1175.363 L314.0625,1199.239 L314.4532,1210.657 L314.8438,1083.322 L315.2344,1132.803 L315.625,1076.747 L316.0156,1200.623 L316.4063,1207.889 L316.7969,1198.201 L317.1875,1202.007 L317.5781,1203.737 L317.9688,1142.837 L318.3594,1167.059 L318.75,1181.246 L319.1406,1132.457 L319.5313,1197.163 L319.9219,1180.208 L320.3125,1149.066 L320.7031,1211.696 L321.0938,1176.055 L321.4844,1131.073 L321.875,1149.066 L322.2657,1194.394 L322.6563,1053.218 L323.0469,1208.581 L323.4375,1163.599 L323.8281,1202.353 L324.2188,1116.54 L324.6094,1155.986 L325,1179.17 L325.3906,1162.907 L325.7813,1203.737 L326.1719,1173.633 L326.5625,1116.194 L326.9531,1210.657 L327.3438,1164.983 L327.7344,1189.204 L328.125,1154.256 L328.5156,1150.45 L328.9063,1199.585 L329.2969,1095.087 L329.6875,1209.273 L330.0782,1188.512 L330.4688,1192.318 L330.8594,1140.069 L331.25,1199.239 L331.6406,1201.315 L332.0313,1140.069 L332.4219,1210.311 L332.8125,1217.232 L333.2031,1111.349 L333.5938,1151.834 L333.9844,1075.017 L334.375,1209.965 L334.7656,1201.661 L335.1563,1202.699 " stroke="blue" fill="none" />
<text x="50" y="1270" font-family="Arial" font-size="12" fill="black">Policy Loss</text>
<text x="50" y="1285" font-family="Arial" font-size="10" fill="black">1.047818</text>
<text x="50" y="1500" font-family="Arial" font-size="10" fill="black">0.2229569</text>
<path d="M50,1290 L75,1406.056 L100,1440.112 L125,1457.652 L150,1472.153 L175,1474.716 L200,1480.975 L225,1482.267 L250,1488.502 L275,1488.252 L300,1489.672 L325,1489.677 L350,1489.101 L375,1486.943 L400,1490 L425,1489.584 " stroke="blue" fill="none" />
<text x="50" y="1540" font-family="Arial" font-size="12" fill="black">Value Loss</text>
<text x="50" y="1555" font-family="Arial" font-size="10" fill="black">0.5857605</text>
<text x="50" y="1770" font-family="Arial" font-size="10" fill="black">0.0900272</text>
<path d="M50,1560 L75,1671.115 L100,1702.863 L125,1722.278 L150,1740.505 L175,1744.187 L200,1747.806 L225,1747.411 L250,1755.409 L275,1759.556 L300,1757.319 L325,1758.1 L350,1757.429 L375,1755.231 L400,1755.819 L425,1760 " stroke="blue" fill="none" />
<text x="50" y="1810" font-family="Arial" font-size="12" fill="black">Learning Rate</text>
<text x="50" y="1825" font-family="Arial" font-size="10" fill="black">0.0003</text>
<text x="50" y="2040" font-family="Arial" font-size="10" fill="black">0.0003</text>
<path d="M50,2030 L75,2030 L100,2030 L125,2030 L150,2030 L175,2030 L200,2030 L225,2030 L250,2030 L275,2030 L300,2030 L325,2030 L350,2030 L375,2030 L400,2030 L425,2030 " stroke="blue" fill="none" />
<text x="50" y="2080" font-family="Arial" font-size="12" fill="black">Entropy</text>
<text x="50" y="2095" font-family="Arial" font-size="10" fill="black">1.106876</text>
<text x="50" y="2310" font-family="Arial" font-size="10" fill="black">1.076731</text>
<path d="M50,2145.614 L75,2100 L100,2298.75 L125,2299.993 L150,2300 L175,2300 L200,2300 L225,2300 L250,2300 L275,2300 L300,2300 L325,2300 L350,2300 L375,2300 L400,2300 L425,2300 " stroke="blue" fill="none" />
<text x="750" y="730" font-family="Arial" font-size="12" fill="black">Simplified</text>
<text x="750" y="745" font-family="Arial" font-size="10" fill="black">1.206322</text>
<text x="750" y="960" font-family="Arial" font-size="10" fill="black">0.1645199</text>
<path d="M757.0313,895.9501 L764.4531,864.0369 L771.875,950 L779.2969,929.2984 L786.7188,850.5265 L794.1406,825.4954 L801.5625,836.7411 L808.9844,854.3812 L816.4063,818.082 L823.8281,864.6907 L831.25,881.6997 L838.6719,841.7419 L846.0938,883.926 L853.5156,856.5193 L860.9375,875.9492 L868.3594,832.0191 L875.7813,893.8522 L883.2031,872.4285 L890.625,804.798 L898.0469,880.5356 L905.4688,860.4205 L912.8906,857.3546 L920.3125,780.4662 L927.7344,926.6522 L935.1563,795.9984 L942.5781,750 L950,793.9914 L957.4219,846.9808 L964.8438,812.9407 L972.2656,755.1515 L979.6875,762.1967 L987.1094,832.1647 L994.5313,815.985 L1001.953,798.71 L1009.375,848.5414 L1016.797,775.5439 L1024.219,806.7224 L1031.641,776.5686 L1035.156,823.3789 " stroke="blue" fill="none" />
<text x="750" y="1000" font-family="Arial" font-size="12" fill="black">Simplified</text>
<text x="750" y="1015" font-family="Arial" font-size="10" fill="black">196.5789</text>
<text x="750" y="1230" font-family="Arial" font-size="10" fill="black">72</text>
<path d="M757.0313,1204.115 L764.4531,1200.228 L771.875,1220 L779.2969,1200.735 L786.7188,1123.929 L794.1406,1079.231 L801.5625,1104.58 L808.9844,1162.036 L816.4063,1072.218 L823.8281,1126.21 L831.25,1133.224 L838.6719,1110.072 L846.0938,1158.319 L853.5156,1144.461 L860.9375,1174.204 L868.3594,1145.813 L875.7813,1158.065 L883.2031,1164.825 L890.625,1154.854 L898.0469,1104.326 L905.4688,1173.612 L912.8906,1153.164 L920.3125,1053.798 L927.7344,1192.877 L935.1563,1102.89 L942.5781,1062.501 L950,1069.937 L957.4219,1104.073 L964.8438,1073.823 L972.2656,1020 L979.6875,1082.949 L987.1094,1081.512 L994.5313,1112.015 L1001.953,1089.202 L1009.375,1180.203 L1016.797,1073.739 L1024.219,1063.008 L1031.641,1093.342 L1035.156,1074.443 " stroke="blue" fill="none" />
</svg>
