<svg width="2000" height="2500" xmlns="http://www.w3.org/2000/svg">
<text x="10" y="20" font-family="Arial" font-size="26" fill="black"> [Driver] Training Session</text>
<text x="10" y="50" font-family="Arial" font-size="16" fill="black">[Statistics]</text>
<text x="50" y="70" font-family="Arial" font-size="12" fill="black">Started at: 7:36:28 PM, Monday, February 26, 2024</text>
<text x="50" y="90" font-family="Arial" font-size="12" fill="black">Finished at: 7:39:55 PM, Monday, February 26, 2024</text>
<text x="50" y="110" font-family="Arial" font-size="12" fill="black">Training Session Time: 0 hrs : 3 min : 27 sec</text>
<text x="50" y="130" font-family="Arial" font-size="12" fill="black">Inference Time: 1 hrs : 15 min : 21 sec        [Device: CPU]</text>
<text x="50" y="150" font-family="Arial" font-size="12" fill="black">Update Time: 0 hrs : 0 min : 59 sec        [Per iteration: 0 hrs : 0 min : 0.314 sec]        [Device: GPU]</text>
<text x="50" y="170" font-family="Arial" font-size="12" fill="black">Episode Count: 66</text>
<text x="50" y="190" font-family="Arial" font-size="12" fill="black">Inference Steps: 101280</text>
<text x="50" y="210" font-family="Arial" font-size="12" fill="black">Iterations: 44</text>
<text x="50" y="230" font-family="Arial" font-size="12" fill="black">Parallel Agents: 1</text>
<text x="50" y="250" font-family="Arial" font-size="12" fill="black">Timescale: 17</text>
<text x="50" y="270" font-family="Arial" font-size="12" fill="black">Trainer: PPO</text>
<text x="10" y="320" font-family="Arial" font-size="16" fill="black">[Hyperparameters]</text>
<text x="50" y="340" font-family="Arial" font-size="12" fill="black">Buffer Size: 800        [Batch Size: 1000       (x0)]</text>
<text x="50" y="360" font-family="Arial" font-size="12" fill="black">Num Epoch: 8</text>
<text x="50" y="380" font-family="Arial" font-size="12" fill="black">Time Horizon: 1024</text>
<text x="50" y="400" font-family="Arial" font-size="12" fill="black">Gradient Cliping by Norm: 0.5</text>
<text x="50" y="420" font-family="Arial" font-size="12" fill="black">Learning Rate Schedule: False    </text>
<text x="10" y="470" font-family="Arial" font-size="16" fill="black">[Behaviour]</text>
<text x="50" y="490" font-family="Arial" font-size="12" fill="black">Space Size: 72</text>
<text x="50" y="510" font-family="Arial" font-size="12" fill="black">Continuous Actions: 3 [Standard Deviation: Fixed]     [Value: 2.25]</text>
<text x="50" y="530" font-family="Arial" font-size="12" fill="black">Discrete Actions: 0</text>
<text x="50" y="550" font-family="Arial" font-size="12" fill="black">TargetFPS: 50 (physics update rate)</text>
<text x="50" y="570" font-family="Arial" font-size="12" fill="black">Observations Normalization: False</text>
<text x="10" y="620" font-family="Arial" font-size="16" fill="black">[Decision Requester]</text>
<text x="50" y="640" font-family="Arial" font-size="12" fill="black">Max Step: 6000</text>
<text x="50" y="660" font-family="Arial" font-size="12" fill="black">Decision Period: 2      [Actions Between Decisions: True]</text>
<text x="10" y="710" font-family="Arial" font-size="16" fill="black">[Graphs]</text>
<text x="50" y="730" font-family="Arial" font-size="12" fill="black">Episode Reward (66)</text>
<text x="50" y="745" font-family="Arial" font-size="10" fill="black">9</text>
<text x="50" y="960" font-family="Arial" font-size="10" fill="black">0.5</text>
<path d="M50,820.5883 L56.25,926.4706 L62.5,808.8235 L68.75,750 L75,832.353 L81.25,832.353 L87.5,926.4706 L93.75,902.9412 L100,926.4706 L106.25,926.4706 L112.5,832.353 L118.75,891.1765 L125,926.4706 L131.25,773.5294 L137.5,926.4706 L143.75,926.4706 L150,926.4706 L156.25,773.5294 L162.5,926.4706 L168.75,867.647 L175,926.4706 L181.25,926.4706 L187.5,773.5294 L193.75,808.8235 L200,832.353 L206.25,820.5883 L212.5,926.4706 L218.75,832.353 L225,832.353 L231.25,926.4706 L237.5,926.4706 L243.75,832.353 L250,773.5294 L256.25,832.353 L262.5,773.5294 L268.75,926.4706 L275,750 L281.25,891.1765 L287.5,926.4706 L293.75,750 L300,773.5294 L306.25,867.647 L312.5,926.4706 L318.75,867.647 L325,785.2941 L331.25,867.647 L337.5,832.353 L343.75,867.647 L350,926.4706 L356.25,926.4706 L362.5,879.4117 L368.75,926.4706 L375,879.4117 L381.25,867.647 L387.5,926.4706 L393.75,832.353 L400,926.4706 L406.25,902.9412 L412.5,832.353 L418.75,879.4117 L425,891.1765 L431.25,785.2941 L437.5,950 L443.75,950 L450,938.2353 L456.25,950 " stroke="blue" fill="none" />
<text x="50" y="1000" font-family="Arial" font-size="12" fill="black">Episode Length (66)</text>
<text x="50" y="1015" font-family="Arial" font-size="10" fill="black">6000</text>
<text x="50" y="1230" font-family="Arial" font-size="10" fill="black">197</text>
<path d="M50,1192.221 L56.25,1218.587 L62.5,1020 L68.75,1020 L75,1196.15 L81.25,1201.94 L87.5,1217.76 L93.75,1212.556 L100,1219.897 L106.25,1219.793 L112.5,1195.909 L118.75,1210.177 L125,1219.207 L131.25,1100.717 L137.5,1218.621 L143.75,1217.622 L150,1219.311 L156.25,1142.764 L162.5,1218.725 L168.75,1197.15 L175,1218.449 L181.25,1219.69 L187.5,1099.959 L193.75,1189.395 L200,1200.838 L206.25,1195.116 L212.5,1219.552 L218.75,1203.147 L225,1165.821 L231.25,1220 L237.5,1219.724 L243.75,1197.081 L250,1041.058 L256.25,1196.495 L262.5,1146.624 L268.75,1220 L275,1020 L281.25,1177.608 L287.5,1217.277 L293.75,1020 L300,1035.578 L306.25,1169.061 L312.5,1219.966 L318.75,1209.454 L325,1168.578 L331.25,1185.673 L337.5,1197.322 L343.75,1198.632 L350,1219.242 L356.25,1219.552 L362.5,1196.426 L368.75,1207.661 L375,1177.436 L381.25,1208.006 L387.5,1218.587 L393.75,1197.908 L400,1219.828 L406.25,1209.592 L412.5,1197.563 L418.75,1195.668 L425,1203.87 L431.25,1020 L437.5,1020 L443.75,1020 L450,1020 L456.25,1020 " stroke="blue" fill="none" />
<text x="50" y="1270" font-family="Arial" font-size="12" fill="black">Policy Loss</text>
<text x="50" y="1285" font-family="Arial" font-size="10" fill="black">Infinity</text>
<text x="50" y="1500" font-family="Arial" font-size="10" fill="black">0.08960125</text>
<path d="M50,1490 L56.25,1490 L62.5,1490 L68.75,1490 L75,1490 L81.25,1490 L87.5,1490 L306.25,NaN L312.5,NaN L318.75,NaN " stroke="blue" fill="none" />
<text x="50" y="1540" font-family="Arial" font-size="12" fill="black">Value Loss</text>
<text x="50" y="1555" font-family="Arial" font-size="10" fill="black">Infinity</text>
<text x="50" y="1770" font-family="Arial" font-size="10" fill="black">0.01050569</text>
<path d="M50,1760 L56.25,1760 L62.5,1760 L68.75,1760 L75,1760 L81.25,1760 L87.5,1760 L306.25,NaN L312.5,NaN L318.75,NaN " stroke="blue" fill="none" />
<text x="50" y="1810" font-family="Arial" font-size="12" fill="black">Learning Rate</text>
<text x="50" y="1825" font-family="Arial" font-size="10" fill="black">0.0003</text>
<text x="50" y="2040" font-family="Arial" font-size="10" fill="black">0.0003</text>
<path d="M50,2030 L56.25,2030 L62.5,2030 L68.75,2030 L75,2030 L81.25,2030 L87.5,2030 L93.75,2030 L100,2030 L106.25,2030 L112.5,2030 L118.75,2030 L125,2030 L131.25,2030 L137.5,2030 L143.75,2030 L150,2030 L156.25,2030 L162.5,2030 L168.75,2030 L175,2030 L181.25,2030 L187.5,2030 L193.75,2030 L200,2030 L206.25,2030 L212.5,2030 L218.75,2030 L225,2030 L231.25,2030 L237.5,2030 L243.75,2030 L250,2030 L256.25,2030 L262.5,2030 L268.75,2030 L275,2030 L281.25,2030 L287.5,2030 L293.75,2030 L300,2030 L306.25,2030 L312.5,2030 L318.75,2030 " stroke="blue" fill="none" />
<text x="50" y="2080" font-family="Arial" font-size="12" fill="black">Entropy</text>
<text x="50" y="2095" font-family="Arial" font-size="10" fill="black">Infinity</text>
<text x="50" y="2310" font-family="Arial" font-size="10" fill="black">2.25</text>
<path d="M50,2300 L56.25,2300 L62.5,2300 L68.75,2300 L75,2300 L81.25,2300 L87.5,2300 L306.25,NaN L312.5,NaN L318.75,NaN " stroke="blue" fill="none" />
<text x="750" y="730" font-family="Arial" font-size="12" fill="black">Simplified</text>
<text x="750" y="745" font-family="Arial" font-size="10" fill="black">4.68421</text>
<text x="750" y="960" font-family="Arial" font-size="10" fill="black">2.722222</text>
<path d="M862.5,835.842 L981.25,750 L1100,835.842 L1156.25,950 " stroke="blue" fill="none" />
<text x="750" y="1000" font-family="Arial" font-size="12" fill="black">Simplified</text>
<text x="750" y="1015" font-family="Arial" font-size="10" fill="black">3657.222</text>
<text x="750" y="1230" font-family="Arial" font-size="10" fill="black">1256.526</text>
<path d="M862.5,1216.918 L981.25,1202.382 L1100,1220 L1156.25,1020 " stroke="blue" fill="none" />
</svg>
