<svg width="800" height="600" xmlns="http://www.w3.org/2000/svg">
<text x="10" y="20" font-family="Arial" font-size="16" fill="black"> [DeepUnity] Training Session</text>
<text x="10" y="40" font-family="Arial" font-size="12" fill="black">Start: 4:30:35 PM, Saturday, August 26, 2023</text>
<text x="10" y="60" font-family="Arial" font-size="12" fill="black">End: 4:31:16 PM, Saturday, August 26, 2023</text>
<text x="10" y="80" font-family="Arial" font-size="12" fill="black">Real Training Time: 0 hrs : 0 min : 31 sec</text>
<text x="10" y="100" font-family="Arial" font-size="12" fill="black">Training Time: 30.32159</text>
<text x="10" y="120" font-family="Arial" font-size="12" fill="black">Iterations: 0</text>
<text x="10" y="140" font-family="Arial" font-size="12" fill="black">Parallel Agents: 0</text>
<text x="10" y="160" font-family="Arial" font-size="12" fill="black">Episode Reward</text>
<path d="M10,265.4762 L210,265.4762" stroke="gray" />
<text x="5" y="270.4762" font-family="Arial" font-size="10" fill="black">0</text>
<text x="5" y="180" font-family="Arial" font-size="10" fill="black">0.8975</text>
<text x="5" y="380" font-family="Arial" font-size="10" fill="black">-1.2025</text>
<path d="M2.439024,181.9048 L4.878048,184.5238 L7.317073,185.9524 L9.756097,189.2857 L12.19512,191.4286 L14.63415,180 L17.07317,184.0476 L19.51219,185.4762 L21.95122,185.2381 L24.39024,192.3809 L26.82927,190 L29.26829,192.3809 L31.70732,184.7619 L34.14634,184.2857 L36.58537,200 L39.02439,186.1905 L41.46341,188.0952 L43.90244,183.8095 L46.34146,197.3809 L48.78049,208.3333 L51.21951,197.1428 L53.65854,180.4762 L56.09756,190.2381 L58.53658,196.6667 L60.97561,187.381 L63.41463,184.0476 L65.85366,193.8095 L68.29269,202.1428 L70.7317,183.5714 L73.17073,194.7619 L75.60976,188.5714 L78.04877,186.1905 L80.48781,190.9524 L82.92683,190 L85.36585,180.4762 L87.80488,188.3333 L90.2439,183.3333 L92.68293,194.7619 L95.12195,181.1905 L97.56097,185.4762 L100,185.9524 L102.439,191.4286 L104.878,185.9524 L107.3171,182.8571 L109.7561,194.2857 L112.1951,205.2381 L114.6341,192.8571 L117.0732,186.6667 L119.5122,186.4286 L121.9512,205.4762 L124.3902,189.7619 L126.8293,185.4762 L129.2683,379.7619 L131.7073,188.3333 L134.1463,190.7143 L136.5854,194.5238 L139.0244,180.2381 L141.4634,198.0952 L143.9025,198.0952 L146.3415,195.9524 L148.7805,190.9524 L151.2195,194.5238 L153.6585,182.619 L156.0975,182.381 L158.5366,196.4286 L160.9756,192.1429 L163.4146,189.0476 L165.8537,197.619 L168.2927,184.2857 L170.7317,192.619 L173.1707,380 L175.6098,185.9524 L178.0488,188.8095 L180.4878,188.0952 L182.9268,185 L185.3659,187.381 L187.8049,186.4286 L190.2439,190 L192.6829,187.8571 L195.1219,180.4762 L197.561,188.3333 L200,188.3333 " stroke="blue" fill="none" />
<text x="10" y="400" font-family="Arial" font-size="12" fill="black">Episode Length</text>
<path d="M10,690.9677 L210,690.9677" stroke="gray" />
<text x="5" y="695.9677" font-family="Arial" font-size="10" fill="black">0</text>
<text x="5" y="420" font-family="Arial" font-size="10" fill="black">168</text>
<text x="5" y="620" font-family="Arial" font-size="10" fill="black">44</text>
<path d="M2.439024,605.4839 L4.878048,587.7419 L7.317073,579.6774 L9.756097,558.7097 L12.19512,532.9032 L14.63415,620 L17.07317,590.9677 L19.51219,582.9032 L21.95122,584.5161 L24.39024,536.129 L26.82927,553.871 L29.26829,536.129 L31.70732,586.129 L34.14634,589.3549 L36.58537,482.9032 L39.02439,578.0645 L41.46341,561.9355 L43.90244,594.1935 L46.34146,497.4193 L48.78049,420 L51.21951,500.6452 L53.65854,616.7742 L56.09756,550.6451 L58.53658,507.0968 L60.97561,568.3871 L63.41463,592.5806 L65.85366,526.4516 L68.29269,471.6129 L70.7317,597.4194 L73.17073,516.7742 L75.60976,561.9355 L78.04877,578.0645 L80.48781,540.9677 L82.92683,552.2581 L85.36585,616.7742 L87.80488,560.3226 L90.2439,599.0323 L92.68293,521.6129 L95.12195,610.3226 L97.56097,582.9032 L100,579.6774 L102.439,542.5806 L104.878,579.6774 L107.3171,600.6451 L109.7561,520 L112.1951,444.1935 L114.6341,529.6774 L117.0732,568.3871 L119.5122,578.0645 L121.9512,440.9677 L124.3902,552.2581 L126.8293,582.9032 L129.2683,558.7097 L131.7073,565.1613 L134.1463,547.4194 L136.5854,521.6129 L139.0244,620 L141.4634,494.1935 L143.9025,486.129 L146.3415,513.5484 L148.7805,537.7419 L151.2195,523.2258 L153.6585,597.4194 L156.0975,603.871 L158.5366,495.8065 L160.9756,537.7419 L163.4146,560.3226 L165.8537,489.3548 L168.2927,587.7419 L170.7317,534.5161 L173.1707,558.7097 L175.6098,579.6774 L178.0488,557.0968 L180.4878,565.1613 L182.9268,586.129 L185.3659,570 L187.8049,576.4516 L190.2439,552.2581 L192.6829,566.7742 L195.1219,615.1613 L197.561,561.9355 L200,561.9355 " stroke="blue" fill="none" />
</svg>
