<svg width="800" height="600" xmlns="http://www.w3.org/2000/svg">
<text x="10" y="20" font-family="Arial" font-size="16" fill="black"> [DeepUnity] Training Session</text>
<text x="10" y="40" font-family="Arial" font-size="12" fill="black">Start: 5:47:45 PM, Saturday, August 26, 2023</text>
<text x="10" y="60" font-family="Arial" font-size="12" fill="black">End: 6:13:47 PM, Saturday, August 26, 2023</text>
<text x="10" y="80" font-family="Arial" font-size="12" fill="black">Real Training Time: 0 hrs : 26 min : 2 sec</text>
<text x="10" y="100" font-family="Arial" font-size="12" fill="black">Training Time: 902.8233</text>
<text x="10" y="120" font-family="Arial" font-size="12" fill="black">Iterations: 10</text>
<text x="10" y="140" font-family="Arial" font-size="12" fill="black">Parallel Agents: 4</text>
<text x="10" y="160" font-family="Arial" font-size="12" fill="black">Episode Reward</text>
<path d="M10,209.9951 L210,209.9951" stroke="gray" />
<text x="5" y="214.9951" font-family="Arial" font-size="10" fill="black">0</text>
<text x="5" y="180" font-family="Arial" font-size="10" fill="black">0.8125001</text>
<text x="5" y="380" font-family="Arial" font-size="10" fill="black">-4.605059</text>
<path d="M0.990099,253.9263 L1.980198,189.6907 L2.970297,183.5994 L3.960396,285.0288 L4.950495,212.2101 L5.940594,198.5508 L6.930693,268.6008 L7.920792,195.5051 L8.910892,269.3391 L9.90099,195.2283 L10.89109,257.2499 L11.88119,187.1065 L12.87129,186.7374 L13.86139,199.6583 L14.85149,348.4361 L15.84158,188.4909 L16.83168,348.4361 L17.82178,348.4361 L18.81188,187.6603 L19.80198,348.4361 L20.79208,348.4361 L21.78218,348.4361 L22.77228,348.4361 L23.76238,348.4361 L24.75248,201.6887 L25.74257,348.4361 L26.73267,348.4361 L27.72277,191.8134 L28.71287,257.8949 L29.70297,186.6451 L30.69307,348.4361 L31.68317,348.4361 L32.67327,348.4361 L33.66336,348.4361 L34.65347,348.4361 L35.64357,348.4361 L36.63366,348.4361 L37.62376,348.4361 L38.61386,185.999 L39.60396,348.4361 L40.59406,348.4361 L41.58416,195.2283 L42.57426,189.783 L43.56435,258.4486 L44.55445,348.4361 L45.54456,298.5978 L46.53465,348.4361 L47.52475,366.3404 L48.51485,186.4605 L49.50495,185.0761 L50.49505,186.7374 L51.48515,251.4353 L52.47525,188.9524 L53.46535,348.4361 L54.45545,264.3553 L55.44555,348.4361 L56.43565,306.1643 L57.42574,348.4361 L58.41584,189.6907 L59.40594,348.4361 L60.39604,348.4361 L61.38614,184.7069 L62.37624,348.4361 L63.36634,348.4361 L64.35644,348.4361 L65.34653,221.1627 L66.33663,204.7344 L67.32673,289.5513 L68.31683,348.4361 L69.30693,180 L70.29704,355.0804 L71.28713,348.4361 L72.27723,195.5974 L73.26733,184.43 L74.25743,348.4361 L75.24753,348.4361 L76.23763,348.4361 L77.22772,190.9828 L78.21782,278.9375 L79.20792,348.4361 L80.19802,264.4476 L81.18812,193.4747 L82.17822,348.4361 L83.16832,190.0599 L84.15842,191.7211 L85.14851,188.6755 L86.13861,348.4361 L87.12871,348.4361 L88.11881,272.2925 L89.10891,348.4361 L90.09901,184.43 L91.08911,348.4361 L92.07921,200.0275 L93.06931,348.4361 L94.05941,274.6921 L95.04951,272.0156 L96.0396,348.4361 L97.0297,261.9557 L98.01981,189.9676 L99.0099,348.4361 L100,348.4361 L100.9901,192.5518 L101.9802,203.996 L102.9703,348.4361 L103.9604,348.4361 L104.9505,260.8482 L105.9406,220.5166 L106.9307,218.6707 L107.9208,298.873 L108.9109,290.6588 L109.901,348.4361 L110.8911,190.1522 L111.8812,184.0609 L112.8713,380 L113.8614,355.1728 L114.8515,201.135 L115.8416,262.6941 L116.8317,348.4361 L117.8218,348.4361 L118.8119,348.4361 L119.802,348.4361 L120.7921,182.3073 L121.7822,348.4361 L122.7723,348.4361 L123.7624,185.999 L124.7525,265.5551 L125.7426,221.255 L126.7327,348.4361 L127.7228,348.4361 L128.7129,348.4361 L129.703,348.4361 L130.6931,259.7407 L131.6832,185.8144 L132.6733,188.3063 L133.6634,348.4361 L134.6535,348.4361 L135.6436,348.4361 L136.6337,265.5551 L137.6238,348.4361 L138.6139,193.1055 L139.604,277.5531 L140.5941,185.353 L141.5842,348.4361 L142.5743,348.4361 L143.5644,348.4361 L144.5545,348.4361 L145.5446,340.221 L146.5347,348.4361 L147.5247,348.4361 L148.5149,373.0779 L149.5049,201.781 L150.4951,348.4361 L151.4851,256.8796 L152.4753,257.8026 L153.4653,348.4361 L154.4554,348.4361 L155.4455,348.4361 L156.4356,348.4361 L157.4257,298.5039 L158.4158,212.9485 L159.4059,181.1998 L160.396,348.4361 L161.3861,348.4361 L162.3762,192.4595 L163.3663,275.155 L164.3564,348.4361 L165.3465,186.1836 L166.3366,285.4903 L167.3267,348.4361 L168.3168,348.4361 L169.3069,294.166 L170.297,357.757 L171.2871,180.3692 L172.2772,200.3966 L173.2673,348.4361 L174.2574,348.4361 L175.2475,348.4361 L176.2376,183.6917 L177.2277,348.4361 L178.2178,188.7678 L179.2079,230.4844 L180.198,348.4361 L181.1881,220.5166 L182.1782,348.4361 L183.1683,255.8644 L184.1584,275.5227 L185.1485,198.0893 L186.1386,379.6308 L187.1287,289.553 L188.1188,274.969 L189.1089,348.4361 L190.099,348.4361 L191.0891,201.6887 L192.0792,257.5257 L193.0693,274.3229 L194.0594,348.4361 L195.0495,348.4361 L196.0396,271.2773 L197.0297,348.4361 L198.0198,348.4361 L199.0099,348.4361 L200,191.7211 " stroke="blue" fill="none" />
<text x="10" y="400" font-family="Arial" font-size="12" fill="black">Episode Length</text>
<path d="M10,630.6667 L210,630.6667" stroke="gray" />
<text x="5" y="635.6667" font-family="Arial" font-size="10" fill="black">0</text>
<text x="5" y="420" font-family="Arial" font-size="10" fill="black">1501</text>
<text x="5" y="620" font-family="Arial" font-size="10" fill="black">76</text>
<path d="M0.990099,619.8596 L1.980198,605.2632 L2.970297,614.5263 L3.960396,572.5614 L4.950495,571.0175 L5.940594,591.7895 L6.930693,597.5439 L7.920792,596.4211 L8.910892,596.4211 L9.90099,596.8421 L10.89109,502.5263 L11.88119,609.193 L12.87129,609.7544 L13.86139,590.1053 L14.85149,420 L15.84158,607.0877 L16.83168,420 L17.82178,420 L18.81188,608.3509 L19.80198,420 L20.79208,420 L21.78218,420 L22.77228,420 L23.76238,420 L24.75248,587.0175 L25.74257,420 L26.73267,420 L27.72277,602.0351 L28.71287,613.8246 L29.70297,609.8947 L30.69307,420 L31.68317,420 L32.67327,420 L33.66336,420 L34.65347,420 L35.64357,420 L36.63366,420 L37.62376,420 L38.61386,610.8772 L39.60396,420 L40.59406,420 L41.58416,596.8421 L42.57426,605.1228 L43.56435,612.9825 L44.55445,420 L45.54456,439.6491 L46.53465,420 L47.52475,448.9123 L48.51485,610.1754 L49.50495,612.2807 L50.49505,609.7544 L51.48515,511.3684 L52.47525,606.386 L53.46535,420 L54.45545,604 L55.44555,420 L56.43565,540.4211 L57.42574,420 L58.41584,605.2632 L59.40594,420 L60.39604,420 L61.38614,612.8421 L62.37624,420 L63.36634,420 L64.35644,420 L65.34653,557.4035 L66.33663,582.386 L67.32673,565.6842 L68.31683,420 L69.30693,620 L70.29704,466.0351 L71.28713,420 L72.27723,596.2807 L73.26733,613.2632 L74.25743,420 L75.24753,420 L76.23763,420 L77.22772,603.2982 L78.21782,581.8246 L79.20792,420 L80.19802,603.8596 L81.18812,599.5088 L82.17822,420 L83.16832,604.7018 L84.15842,602.1754 L85.14851,606.807 L86.13861,420 L87.12871,420 L88.11881,591.9298 L89.10891,420 L90.09901,613.2632 L91.08911,420 L92.07921,589.5439 L93.06931,420 L94.05941,588.2807 L95.04951,592.3509 L96.0396,420 L97.0297,607.6491 L98.01981,604.8421 L99.0099,420 L100,420 L100.9901,600.9123 L101.9802,583.5088 L102.9703,420 L103.9604,420 L104.9505,609.3333 L105.9406,558.386 L106.9307,561.193 L107.9208,551.5088 L108.9109,564 L109.901,420 L110.8911,604.5614 L111.8812,613.8246 L112.8713,428.1404 L113.8614,465.8947 L114.8515,587.8596 L115.8416,606.5263 L116.8317,420 L117.8218,420 L118.8119,420 L119.802,420 L120.7921,616.4912 L121.7822,420 L122.7723,420 L123.7624,610.8772 L124.7525,602.1754 L125.7426,557.2632 L126.7327,420 L127.7228,420 L128.7129,420 L129.703,420 L130.6931,611.0175 L131.6832,611.1579 L132.6733,607.3684 L133.6634,420 L134.6535,420 L135.6436,420 L136.6337,602.1754 L137.6238,420 L138.6139,600.0702 L139.604,583.9298 L140.5941,611.8596 L141.5842,420 L142.5743,420 L143.5644,420 L144.5545,420 L145.5446,488.6316 L146.5347,420 L147.5247,420 L148.5149,438.6667 L149.5049,586.8772 L150.4951,420 L151.4851,615.3684 L152.4753,613.9649 L153.4653,420 L154.4554,420 L155.4455,420 L156.4356,420 L157.4257,552.0702 L158.4158,569.8947 L159.4059,618.1754 L160.396,420 L161.3861,420 L162.3762,601.0526 L163.3663,475.2982 L164.3564,420 L165.3465,610.5965 L166.3366,571.8596 L167.3267,420 L168.3168,420 L169.3069,558.6667 L170.297,461.9649 L171.2871,619.4386 L172.2772,588.9825 L173.2673,420 L174.2574,420 L175.2475,420 L176.2376,614.386 L177.2277,420 L178.2178,606.6667 L179.2079,543.2281 L180.198,420 L181.1881,558.386 L182.1782,420 L183.1683,616.9123 L184.1584,587.0175 L185.1485,592.4912 L186.1386,428.7018 L187.1287,453.4035 L188.1188,587.8596 L189.1089,420 L190.099,420 L191.0891,587.0175 L192.0792,614.386 L193.0693,588.8421 L194.0594,420 L195.0495,420 L196.0396,593.4737 L197.0297,420 L198.0198,420 L199.0099,420 L200,602.1754 " stroke="blue" fill="none" />
<text x="10" y="640" font-family="Arial" font-size="12" fill="black">Policy Loss</text>
<path d="M10,944.1295 L210,944.1295" stroke="gray" />
<text x="5" y="949.1295" font-family="Arial" font-size="10" fill="black">0</text>
<text x="5" y="660" font-family="Arial" font-size="10" fill="black">0.005275251</text>
<text x="5" y="860" font-family="Arial" font-size="10" fill="black">0.001561978</text>
<path d="M0.625,827.7586 L1.25,764.7543 L1.875,733.7715 L2.5,780.9202 L3.125,769.1321 L3.75,708.2195 L4.375,782.4714 L5,735.6254 L5.625,797.4664 L6.25,761.3438 L6.875,807.3862 L7.5,794.4611 L8.125,790.6319 L8.75,739.2357 L9.375,813.8083 L10,782.4042 L10.625,782.6823 L11.25,770.0756 L11.875,797.4146 L12.5,781.0775 L13.125,765.4633 L13.75,776.4634 L14.375,799.3186 L15,797.614 L15.625,773.2338 L16.25,783.2661 L16.875,740.9997 L17.5,783.6096 L18.125,768.8811 L18.75,770.7809 L19.375,796.5474 L20,712.3452 L20.625,775.3068 L21.25,738.4884 L21.875,752.7651 L22.5,799.0552 L23.125,809.6938 L23.75,804.1512 L24.375,765.9569 L25,771.8002 L25.625,794.3115 L26.25,728.7213 L26.875,799.4473 L27.5,773.0665 L28.125,764.6708 L28.75,801.9154 L29.375,725.8019 L30,845.3645 L30.625,754.9498 L31.25,787.1676 L31.875,739.1284 L32.5,726.3913 L33.125,764.7018 L33.75,804.9913 L34.375,717.3457 L35,786.7916 L35.625,788.0126 L36.25,824.1047 L36.875,804.4166 L37.5,769.428 L38.125,763.9385 L38.75,756.4941 L39.375,792.845 L40,783.1814 L40.625,771.1318 L41.25,789.103 L41.875,662.6917 L42.5,841.7384 L43.125,762.923 L43.75,802.4058 L44.375,754.5925 L45,752.0004 L45.625,732.4462 L46.25,803.1389 L46.875,781.0471 L47.5,756.1622 L48.125,778.7745 L48.75,778.8257 L49.375,719.9274 L50,804.0347 L50.625,788.0626 L51.25,770.873 L51.875,752.91 L52.5,785.1072 L53.125,776.983 L53.75,785.5369 L54.375,801.7278 L55,776.9018 L55.625,773.515 L56.25,785.678 L56.875,754.7042 L57.5,732.4542 L58.125,814.8713 L58.75,759.8552 L59.375,776.7836 L60,765.4153 L60.625,795.0768 L61.25,775.3976 L61.875,766.0325 L62.5,744.4644 L63.125,848.6452 L63.75,817.4111 L64.375,802.2373 L65,839.2256 L65.625,770.8777 L66.25,745.5711 L66.875,789.4904 L67.5,767.5027 L68.125,773.4671 L68.75,764.0022 L69.375,751.1018 L70,858.7944 L70.625,697.8396 L71.25,798.2013 L71.875,765.4286 L72.5,782.0805 L73.125,778.9838 L73.75,735.2351 L74.375,799.2172 L75,811.2202 L75.625,776.9061 L76.25,771.6075 L76.875,787.7437 L77.5,801.2036 L78.125,860 L78.75,771.5499 L79.375,776.8565 L80,834.1857 L80.625,761.713 L81.25,824.0106 L81.875,829.6751 L82.5,777.6085 L83.125,752.2599 L83.75,780.4622 L84.375,835.5747 L85,803.4582 L85.625,786.6456 L86.25,786.9141 L86.875,782.6111 L87.5,797.7919 L88.125,829.7921 L88.75,775.6629 L89.375,796.6199 L90,752.6632 L90.625,758.6116 L91.25,784.5552 L91.875,826.4625 L92.5,703.5085 L93.125,747.5501 L93.75,828.3872 L94.375,749.335 L95,757.3978 L95.625,774.1845 L96.25,761.0096 L96.875,789.5466 L97.5,765.6382 L98.125,759.8335 L98.75,779.604 L99.375,771.6423 L100,770.304 L100.625,763.3621 L101.25,792.1197 L101.875,761.2098 L102.5,752.8177 L103.125,794.0959 L103.75,779.327 L104.375,740.3701 L105,813.1759 L105.625,805.1147 L106.25,778.2835 L106.875,775.45 L107.5,788.8557 L108.125,778.6437 L108.75,772.1261 L109.375,753.3987 L110,733.7531 L110.625,763.7526 L111.25,842.5787 L111.875,704.0529 L112.5,783.7845 L113.125,749.3103 L113.75,769.4501 L114.375,781.9861 L115,726.9651 L115.625,786.5143 L116.25,811.0198 L116.875,735.8754 L117.5,789.9362 L118.125,813.5605 L118.75,799.456 L119.375,736.0367 L120,803.5311 L120.625,761.141 L121.25,795.9252 L121.875,792.5303 L122.5,797.3079 L123.125,825.3593 L123.75,793.3181 L124.375,783.346 L125,800.5237 L125.625,779.3839 L126.25,803.1134 L126.875,743.5439 L127.5,821.9155 L128.125,734.311 L128.75,796.788 L129.375,744.351 L130,768.7098 L130.625,744.6597 L131.25,822.5738 L131.875,745.6266 L132.5,769.0944 L133.125,780.166 L133.75,774.5162 L134.375,715.489 L135,799.538 L135.625,807.5038 L136.25,791.3311 L136.875,805.3616 L137.5,793.652 L138.125,761.9386 L138.75,754.4886 L139.375,835.9633 L140,799.7129 L140.625,772.8882 L141.25,763.3992 L141.875,813.9532 L142.5,758.168 L143.125,727.1457 L143.75,801.619 L144.375,741.3986 L145,788.198 L145.625,660 L146.25,793.5824 L146.875,801.3845 L147.5,741.4783 L148.125,710.7567 L148.75,760.6118 L149.375,739.0336 L150,770.8752 L150.625,773.2053 L151.25,792.334 L151.875,777.8852 L152.5,782.2378 L153.125,785.4103 L153.75,798.8281 L154.375,760.5495 L155,791.1193 L155.625,773.2737 L156.25,748.5983 L156.875,767.8232 L157.5,745.9958 L158.125,793.1691 L158.75,780.2686 L159.375,779.4193 L160,813.5427 L160.625,803.4122 L161.25,826.5076 L161.875,803.1684 L162.5,763.3538 L163.125,820.9251 L163.75,755.1987 L164.375,743.5294 L165,775.7775 L165.625,775.1892 L166.25,759.1229 L166.875,770.7534 L167.5,752.6376 L168.125,747.7282 L168.75,763.4847 L169.375,775.1622 L170,831.7551 L170.625,751.0125 L171.25,728.0498 L171.875,772.1501 L172.5,838.7247 L173.125,764.5175 L173.75,808.181 L174.375,806.9623 L175,788.8181 L175.625,804.483 L176.25,823.8222 L176.875,762.6387 L177.5,788.7776 L178.125,814.7278 L178.75,714.7899 L179.375,826.6402 L180,817.7209 L180.625,816.7598 L181.25,778.3401 L181.875,801.4634 L182.5,773.5284 L183.125,769.4657 L183.75,746.6982 L184.375,785.6786 L185,754.1604 L185.625,773.2212 L186.25,743.3392 L186.875,778.6064 L187.5,763.2781 L188.125,799.1549 L188.75,738.8622 L189.375,733.4433 L190,762.3885 L190.625,763.3961 L191.25,783.8243 L191.875,827.0882 L192.5,787.1663 L193.125,792.6978 L193.75,740.0396 L194.375,794.9023 L195,780.3337 L195.625,755.0213 L196.25,814.9748 L196.875,782.5601 L197.5,791.0149 L198.125,832.6603 L198.75,782.9193 L199.375,802.2083 L200,738.1177 " stroke="blue" fill="none" />
<text x="10" y="880" font-family="Arial" font-size="12" fill="black">Value Loss</text>
<path d="M10,1100.708 L210,1100.708" stroke="gray" />
<text x="5" y="1105.708" font-family="Arial" font-size="10" fill="black">0</text>
<text x="5" y="900" font-family="Arial" font-size="10" fill="black">0.002736597</text>
<text x="5" y="1100" font-family="Arial" font-size="10" fill="black">9.647288E-06</text>
<path d="M0.625,919.7087 L1.25,1021.103 L1.875,1048.785 L2.5,1060.757 L3.125,1068.236 L3.75,1073.045 L4.375,1076.274 L5,1078.738 L5.625,960.1082 L6.25,1001.978 L6.875,1016.81 L7.5,1028.9 L8.125,1036.117 L8.75,1041.268 L9.375,1046.23 L10,1050.164 L10.625,1065.766 L11.25,1083.715 L11.875,1089.215 L12.5,1091.592 L13.125,1093.057 L13.75,1094.034 L14.375,1094.802 L15,1095.374 L15.625,998.9866 L16.25,1030.118 L16.875,1041.824 L17.5,1047.334 L18.125,1051.779 L18.75,1054.589 L19.375,1057.15 L20,1058.956 L20.625,1084.104 L21.25,1089.828 L21.875,1091.414 L22.5,1092.267 L23.125,1092.848 L23.75,1093.297 L24.375,1093.579 L25,1093.905 L25.625,1098.442 L26.25,1098.972 L26.875,1099.298 L27.5,1099.493 L28.125,1099.611 L28.75,1099.704 L29.375,1099.778 L30,1099.845 L30.625,1058.264 L31.25,1092.544 L31.875,1095.597 L32.5,1097.263 L33.125,1097.886 L33.75,1098.218 L34.375,1098.429 L35,1098.58 L35.625,1060.954 L36.25,1087.283 L36.875,1091.64 L37.5,1093.096 L38.125,1094.041 L38.75,1094.605 L39.375,1095.009 L40,1095.296 L40.625,1014.088 L41.25,1050.485 L41.875,1061.931 L42.5,1067.969 L43.125,1071.723 L43.75,1074.438 L44.375,1076.228 L45,1077.959 L45.625,1041.377 L46.25,1055.268 L46.875,1062.971 L47.5,1067.678 L48.125,1070.824 L48.75,1072.956 L49.375,1074.491 L50,1075.75 L50.625,1069.079 L51.25,1074.257 L51.875,1077.572 L52.5,1079.342 L53.125,1081.025 L53.75,1082.746 L54.375,1084.412 L55,1085.482 L55.625,1030.958 L56.25,1067.212 L56.875,1078.843 L57.5,1085.294 L58.125,1088.496 L58.75,1090.39 L59.375,1091.868 L60,1092.797 L60.625,1017.774 L61.25,1063.038 L61.875,1075.593 L62.5,1081.182 L63.125,1084.127 L63.75,1085.898 L64.375,1087.058 L65,1088.136 L65.625,1026.247 L66.25,1041.154 L66.875,1047.886 L67.5,1051.465 L68.125,1054.039 L68.75,1055.501 L69.375,1056.951 L70,1058.216 L70.625,1057.064 L71.25,1072.676 L71.875,1078.51 L72.5,1081.243 L73.125,1082.681 L73.75,1083.561 L74.375,1084.305 L75,1084.617 L75.625,1050.596 L76.25,1064.779 L76.875,1070.355 L77.5,1072.785 L78.125,1074.456 L78.75,1075.765 L79.375,1076.701 L80,1077.468 L80.625,900 L81.25,975.1059 L81.875,1006.842 L82.5,1023.949 L83.125,1037.326 L83.75,1045.931 L84.375,1054.192 L85,1059.711 L85.625,959.3652 L86.25,1024.165 L86.875,1049.784 L87.5,1062.061 L88.125,1068.037 L88.75,1072.297 L89.375,1075.612 L90,1077.843 L90.625,1043.749 L91.25,1066.371 L91.875,1071.558 L92.5,1074.642 L93.125,1076.688 L93.75,1078.354 L94.375,1079.527 L95,1080.518 L95.625,1068.345 L96.25,1081.658 L96.875,1086.662 L97.5,1089.041 L98.125,1090.588 L98.75,1091.516 L99.375,1092.218 L100,1092.764 L100.625,957.7293 L101.25,1024.016 L101.875,1038.045 L102.5,1043.974 L103.125,1047.433 L103.75,1050.561 L104.375,1052.495 L105,1054.186 L105.625,1029.97 L106.25,1057.404 L106.875,1065.162 L107.5,1069.072 L108.125,1071.665 L108.75,1073.822 L109.375,1075.318 L110,1076.332 L110.625,946.8027 L111.25,1014.269 L111.875,1036.466 L112.5,1045.646 L113.125,1051.617 L113.75,1055.696 L114.375,1059.296 L115,1061.653 L115.625,1094.34 L116.25,1096.577 L116.875,1097.908 L117.5,1098.568 L118.125,1098.957 L118.75,1099.23 L119.375,1099.431 L120,1099.568 L120.625,1052.382 L121.25,1078.685 L121.875,1085.979 L122.5,1089.345 L123.125,1091.192 L123.75,1092.382 L124.375,1093.381 L125,1093.983 L125.625,1051.454 L126.25,1070.478 L126.875,1076.291 L127.5,1078.96 L128.125,1081.065 L128.75,1082.369 L129.375,1083.598 L130,1084.72 L130.625,1090.227 L131.25,1091.615 L131.875,1092.448 L132.5,1093.181 L133.125,1093.657 L133.75,1093.996 L134.375,1094.255 L135,1094.447 L135.625,1059.422 L136.25,1080.301 L136.875,1085.57 L137.5,1089.015 L138.125,1091.266 L138.75,1092.869 L139.375,1093.96 L140,1094.797 L140.625,1033.075 L141.25,1075.957 L141.875,1085.687 L142.5,1088.635 L143.125,1090.034 L143.75,1091.057 L144.375,1091.821 L145,1092.378 L145.625,1027.349 L146.25,1092.606 L146.875,1098.041 L147.5,1099.337 L148.125,1099.67 L148.75,1099.833 L149.375,1099.934 L150,1100 L150.625,1076.968 L151.25,1086.665 L151.875,1090.376 L152.5,1091.801 L153.125,1092.727 L153.75,1093.383 L154.375,1093.986 L155,1094.35 L155.625,1001.682 L156.25,1019.171 L156.875,1029.285 L157.5,1039.062 L158.125,1044.092 L158.75,1048.032 L159.375,1051.223 L160,1055.028 L160.625,1086.34 L161.25,1096.022 L161.875,1097.891 L162.5,1098.417 L163.125,1098.745 L163.75,1098.938 L164.375,1099.096 L165,1099.211 L165.625,1039.3 L166.25,1066.86 L166.875,1080.62 L167.5,1086.582 L168.125,1089.04 L168.75,1090.479 L169.375,1091.396 L170,1092.084 L170.625,945.594 L171.25,1013.609 L171.875,1027.561 L172.5,1037.746 L173.125,1042.651 L173.75,1045.482 L174.375,1049.027 L175,1050.299 L175.625,1083.216 L176.25,1093.773 L176.875,1096.269 L177.5,1097.276 L178.125,1097.566 L178.75,1097.957 L179.375,1098.292 L180,1098.444 L180.625,1066.594 L181.25,1085.986 L181.875,1093.167 L182.5,1096.33 L183.125,1097.653 L183.75,1098.315 L184.375,1098.722 L185,1098.975 L185.625,951.1939 L186.25,995.5489 L186.875,1007.914 L187.5,1017.421 L188.125,1022.646 L188.75,1027.328 L189.375,1030.362 L190,1033.621 L190.625,1000.48 L191.25,1029.799 L191.875,1042.156 L192.5,1050.475 L193.125,1055.227 L193.75,1058.502 L194.375,1061.485 L195,1063.786 L195.625,997.0837 L196.25,1058.639 L196.875,1076.556 L197.5,1082.571 L198.125,1086.02 L198.75,1088.872 L199.375,1091.083 L200,1092.857 " stroke="blue" fill="none" />
<text x="10" y="1120" font-family="Arial" font-size="12" fill="black">Learning Rate</text>
<path d="M10,6001141 L210,6001141" stroke="gray" />
<text x="5" y="6001146" font-family="Arial" font-size="10" fill="black">0</text>
<text x="5" y="1140" font-family="Arial" font-size="10" fill="black">0.0003</text>
<text x="5" y="1340" font-family="Arial" font-size="10" fill="black">0.0003</text>
<path d="M0.625,NaN L1.25,NaN L1.875,NaN L2.5,NaN L3.125,NaN L3.75,NaN L4.375,NaN L5,NaN L5.625,NaN L6.25,NaN L6.875,NaN L7.5,NaN L8.125,NaN L8.75,NaN L9.375,NaN L10,NaN L10.625,NaN L11.25,NaN L11.875,NaN L12.5,NaN L13.125,NaN L13.75,NaN L14.375,NaN L15,NaN L15.625,NaN L16.25,NaN L16.875,NaN L17.5,NaN L18.125,NaN L18.75,NaN L19.375,NaN L20,NaN L20.625,NaN L21.25,NaN L21.875,NaN L22.5,NaN L23.125,NaN L23.75,NaN L24.375,NaN L25,NaN L25.625,NaN L26.25,NaN L26.875,NaN L27.5,NaN L28.125,NaN L28.75,NaN L29.375,NaN L30,NaN L30.625,NaN L31.25,NaN L31.875,NaN L32.5,NaN L33.125,NaN L33.75,NaN L34.375,NaN L35,NaN L35.625,NaN L36.25,NaN L36.875,NaN L37.5,NaN L38.125,NaN L38.75,NaN L39.375,NaN L40,NaN L40.625,NaN L41.25,NaN L41.875,NaN L42.5,NaN L43.125,NaN L43.75,NaN L44.375,NaN L45,NaN L45.625,NaN L46.25,NaN L46.875,NaN L47.5,NaN L48.125,NaN L48.75,NaN L49.375,NaN L50,NaN L50.625,NaN L51.25,NaN L51.875,NaN L52.5,NaN L53.125,NaN L53.75,NaN L54.375,NaN L55,NaN L55.625,NaN L56.25,NaN L56.875,NaN L57.5,NaN L58.125,NaN L58.75,NaN L59.375,NaN L60,NaN L60.625,NaN L61.25,NaN L61.875,NaN L62.5,NaN L63.125,NaN L63.75,NaN L64.375,NaN L65,NaN L65.625,NaN L66.25,NaN L66.875,NaN L67.5,NaN L68.125,NaN L68.75,NaN L69.375,NaN L70,NaN L70.625,NaN L71.25,NaN L71.875,NaN L72.5,NaN L73.125,NaN L73.75,NaN L74.375,NaN L75,NaN L75.625,NaN L76.25,NaN L76.875,NaN L77.5,NaN L78.125,NaN L78.75,NaN L79.375,NaN L80,NaN L80.625,NaN L81.25,NaN L81.875,NaN L82.5,NaN L83.125,NaN L83.75,NaN L84.375,NaN L85,NaN L85.625,NaN L86.25,NaN L86.875,NaN L87.5,NaN L88.125,NaN L88.75,NaN L89.375,NaN L90,NaN L90.625,NaN L91.25,NaN L91.875,NaN L92.5,NaN L93.125,NaN L93.75,NaN L94.375,NaN L95,NaN L95.625,NaN L96.25,NaN L96.875,NaN L97.5,NaN L98.125,NaN L98.75,NaN L99.375,NaN L100,NaN L100.625,NaN L101.25,NaN L101.875,NaN L102.5,NaN L103.125,NaN L103.75,NaN L104.375,NaN L105,NaN L105.625,NaN L106.25,NaN L106.875,NaN L107.5,NaN L108.125,NaN L108.75,NaN L109.375,NaN L110,NaN L110.625,NaN L111.25,NaN L111.875,NaN L112.5,NaN L113.125,NaN L113.75,NaN L114.375,NaN L115,NaN L115.625,NaN L116.25,NaN L116.875,NaN L117.5,NaN L118.125,NaN L118.75,NaN L119.375,NaN L120,NaN L120.625,NaN L121.25,NaN L121.875,NaN L122.5,NaN L123.125,NaN L123.75,NaN L124.375,NaN L125,NaN L125.625,NaN L126.25,NaN L126.875,NaN L127.5,NaN L128.125,NaN L128.75,NaN L129.375,NaN L130,NaN L130.625,NaN L131.25,NaN L131.875,NaN L132.5,NaN L133.125,NaN L133.75,NaN L134.375,NaN L135,NaN L135.625,NaN L136.25,NaN L136.875,NaN L137.5,NaN L138.125,NaN L138.75,NaN L139.375,NaN L140,NaN L140.625,NaN L141.25,NaN L141.875,NaN L142.5,NaN L143.125,NaN L143.75,NaN L144.375,NaN L145,NaN L145.625,NaN L146.25,NaN L146.875,NaN L147.5,NaN L148.125,NaN L148.75,NaN L149.375,NaN L150,NaN L150.625,NaN L151.25,NaN L151.875,NaN L152.5,NaN L153.125,NaN L153.75,NaN L154.375,NaN L155,NaN L155.625,NaN L156.25,NaN L156.875,NaN L157.5,NaN L158.125,NaN L158.75,NaN L159.375,NaN L160,NaN L160.625,NaN L161.25,NaN L161.875,NaN L162.5,NaN L163.125,NaN L163.75,NaN L164.375,NaN L165,NaN L165.625,NaN L166.25,NaN L166.875,NaN L167.5,NaN L168.125,NaN L168.75,NaN L169.375,NaN L170,NaN L170.625,NaN L171.25,NaN L171.875,NaN L172.5,NaN L173.125,NaN L173.75,NaN L174.375,NaN L175,NaN L175.625,NaN L176.25,NaN L176.875,NaN L177.5,NaN L178.125,NaN L178.75,NaN L179.375,NaN L180,NaN L180.625,NaN L181.25,NaN L181.875,NaN L182.5,NaN L183.125,NaN L183.75,NaN L184.375,NaN L185,NaN L185.625,NaN L186.25,NaN L186.875,NaN L187.5,NaN L188.125,NaN L188.75,NaN L189.375,NaN L190,NaN L190.625,NaN L191.25,NaN L191.875,NaN L192.5,NaN L193.125,NaN L193.75,NaN L194.375,NaN L195,NaN L195.625,NaN L196.25,NaN L196.875,NaN L197.5,NaN L198.125,NaN L198.75,NaN L199.375,NaN L200,NaN " stroke="blue" fill="none" />
<text x="10" y="1360" font-family="Arial" font-size="12" fill="black">Epsilon</text>
<path d="M10,4.000002E+09 L210,4.000002E+09" stroke="gray" />
<text x="5" y="4.000002E+09" font-family="Arial" font-size="10" fill="black">0</text>
<text x="5" y="1380" font-family="Arial" font-size="10" fill="black">0.2</text>
<text x="5" y="1580" font-family="Arial" font-size="10" fill="black">0.2</text>
<path d="M0.625,NaN L1.25,NaN L1.875,NaN L2.5,NaN L3.125,NaN L3.75,NaN L4.375,NaN L5,NaN L5.625,NaN L6.25,NaN L6.875,NaN L7.5,NaN L8.125,NaN L8.75,NaN L9.375,NaN L10,NaN L10.625,NaN L11.25,NaN L11.875,NaN L12.5,NaN L13.125,NaN L13.75,NaN L14.375,NaN L15,NaN L15.625,NaN L16.25,NaN L16.875,NaN L17.5,NaN L18.125,NaN L18.75,NaN L19.375,NaN L20,NaN L20.625,NaN L21.25,NaN L21.875,NaN L22.5,NaN L23.125,NaN L23.75,NaN L24.375,NaN L25,NaN L25.625,NaN L26.25,NaN L26.875,NaN L27.5,NaN L28.125,NaN L28.75,NaN L29.375,NaN L30,NaN L30.625,NaN L31.25,NaN L31.875,NaN L32.5,NaN L33.125,NaN L33.75,NaN L34.375,NaN L35,NaN L35.625,NaN L36.25,NaN L36.875,NaN L37.5,NaN L38.125,NaN L38.75,NaN L39.375,NaN L40,NaN L40.625,NaN L41.25,NaN L41.875,NaN L42.5,NaN L43.125,NaN L43.75,NaN L44.375,NaN L45,NaN L45.625,NaN L46.25,NaN L46.875,NaN L47.5,NaN L48.125,NaN L48.75,NaN L49.375,NaN L50,NaN L50.625,NaN L51.25,NaN L51.875,NaN L52.5,NaN L53.125,NaN L53.75,NaN L54.375,NaN L55,NaN L55.625,NaN L56.25,NaN L56.875,NaN L57.5,NaN L58.125,NaN L58.75,NaN L59.375,NaN L60,NaN L60.625,NaN L61.25,NaN L61.875,NaN L62.5,NaN L63.125,NaN L63.75,NaN L64.375,NaN L65,NaN L65.625,NaN L66.25,NaN L66.875,NaN L67.5,NaN L68.125,NaN L68.75,NaN L69.375,NaN L70,NaN L70.625,NaN L71.25,NaN L71.875,NaN L72.5,NaN L73.125,NaN L73.75,NaN L74.375,NaN L75,NaN L75.625,NaN L76.25,NaN L76.875,NaN L77.5,NaN L78.125,NaN L78.75,NaN L79.375,NaN L80,NaN L80.625,NaN L81.25,NaN L81.875,NaN L82.5,NaN L83.125,NaN L83.75,NaN L84.375,NaN L85,NaN L85.625,NaN L86.25,NaN L86.875,NaN L87.5,NaN L88.125,NaN L88.75,NaN L89.375,NaN L90,NaN L90.625,NaN L91.25,NaN L91.875,NaN L92.5,NaN L93.125,NaN L93.75,NaN L94.375,NaN L95,NaN L95.625,NaN L96.25,NaN L96.875,NaN L97.5,NaN L98.125,NaN L98.75,NaN L99.375,NaN L100,NaN L100.625,NaN L101.25,NaN L101.875,NaN L102.5,NaN L103.125,NaN L103.75,NaN L104.375,NaN L105,NaN L105.625,NaN L106.25,NaN L106.875,NaN L107.5,NaN L108.125,NaN L108.75,NaN L109.375,NaN L110,NaN L110.625,NaN L111.25,NaN L111.875,NaN L112.5,NaN L113.125,NaN L113.75,NaN L114.375,NaN L115,NaN L115.625,NaN L116.25,NaN L116.875,NaN L117.5,NaN L118.125,NaN L118.75,NaN L119.375,NaN L120,NaN L120.625,NaN L121.25,NaN L121.875,NaN L122.5,NaN L123.125,NaN L123.75,NaN L124.375,NaN L125,NaN L125.625,NaN L126.25,NaN L126.875,NaN L127.5,NaN L128.125,NaN L128.75,NaN L129.375,NaN L130,NaN L130.625,NaN L131.25,NaN L131.875,NaN L132.5,NaN L133.125,NaN L133.75,NaN L134.375,NaN L135,NaN L135.625,NaN L136.25,NaN L136.875,NaN L137.5,NaN L138.125,NaN L138.75,NaN L139.375,NaN L140,NaN L140.625,NaN L141.25,NaN L141.875,NaN L142.5,NaN L143.125,NaN L143.75,NaN L144.375,NaN L145,NaN L145.625,NaN L146.25,NaN L146.875,NaN L147.5,NaN L148.125,NaN L148.75,NaN L149.375,NaN L150,NaN L150.625,NaN L151.25,NaN L151.875,NaN L152.5,NaN L153.125,NaN L153.75,NaN L154.375,NaN L155,NaN L155.625,NaN L156.25,NaN L156.875,NaN L157.5,NaN L158.125,NaN L158.75,NaN L159.375,NaN L160,NaN L160.625,NaN L161.25,NaN L161.875,NaN L162.5,NaN L163.125,NaN L163.75,NaN L164.375,NaN L165,NaN L165.625,NaN L166.25,NaN L166.875,NaN L167.5,NaN L168.125,NaN L168.75,NaN L169.375,NaN L170,NaN L170.625,NaN L171.25,NaN L171.875,NaN L172.5,NaN L173.125,NaN L173.75,NaN L174.375,NaN L175,NaN L175.625,NaN L176.25,NaN L176.875,NaN L177.5,NaN L178.125,NaN L178.75,NaN L179.375,NaN L180,NaN L180.625,NaN L181.25,NaN L181.875,NaN L182.5,NaN L183.125,NaN L183.75,NaN L184.375,NaN L185,NaN L185.625,NaN L186.25,NaN L186.875,NaN L187.5,NaN L188.125,NaN L188.75,NaN L189.375,NaN L190,NaN L190.625,NaN L191.25,NaN L191.875,NaN L192.5,NaN L193.125,NaN L193.75,NaN L194.375,NaN L195,NaN L195.625,NaN L196.25,NaN L196.875,NaN L197.5,NaN L198.125,NaN L198.75,NaN L199.375,NaN L200,NaN " stroke="blue" fill="none" />
</svg>
