<svg width="2000" height="2500" xmlns="http://www.w3.org/2000/svg">
<text x="10" y="20" font-family="Arial" font-size="26" fill="black"> [HumanWalk] Training Session</text>
<text x="10" y="50" font-family="Arial" font-size="16" fill="black">[Statistics]</text>
<text x="50" y="70" font-family="Arial" font-size="12" fill="black">Started at: 8:23:51 PM, Sunday, November 26, 2023</text>
<text x="50" y="90" font-family="Arial" font-size="12" fill="black">Finished at: 8:27:24 PM, Sunday, November 26, 2023</text>
<text x="50" y="110" font-family="Arial" font-size="12" fill="black">Training Session Time: 0 hrs : 3 min : 32 sec</text>
<text x="50" y="130" font-family="Arial" font-size="12" fill="black">Inference Time: 0 hrs : 7 min : 33 sec       [Per agent: 0 hrs : 7 min : 33 sec]        [Device: CPU]</text>
<text x="50" y="150" font-family="Arial" font-size="12" fill="black">Policy Update Time: 0 hrs : 0 min : 23 sec        [Per iteration: 0 hrs : 0 min : 4 sec]        [Device: GPU]</text>
<text x="50" y="170" font-family="Arial" font-size="12" fill="black">Inference Time / Training Session Time: 2.089</text>
<text x="50" y="190" font-family="Arial" font-size="12" fill="black">Policy Update Time / Training Session Time: 0.115</text>
<text x="50" y="210" font-family="Arial" font-size="12" fill="black">Episode Count: 286</text>
<text x="50" y="230" font-family="Arial" font-size="12" fill="black">Inference Steps: 22779    [Per agent: 22779]     [Per Episode (mean): 79]</text>
<text x="50" y="250" font-family="Arial" font-size="12" fill="black">Iterations: 5</text>
<text x="50" y="270" font-family="Arial" font-size="12" fill="black">Parallel Agents: 1</text>
<text x="50" y="290" font-family="Arial" font-size="12" fill="black">Timescale: 2.688248</text>
<text x="50" y="310" font-family="Arial" font-size="12" fill="black">Trainer: PPO</text>
<text x="10" y="360" font-family="Arial" font-size="16" fill="black">[Hyperparameters]</text>
<text x="50" y="380" font-family="Arial" font-size="12" fill="black">Buffer Size: 4096        [Batch Size: 256       (x16)]</text>
<text x="50" y="400" font-family="Arial" font-size="12" fill="black">Num Epoch: 7</text>
<text x="50" y="420" font-family="Arial" font-size="12" fill="black">Time Horizon: 256</text>
<text x="50" y="440" font-family="Arial" font-size="12" fill="black">Gradient Cliping Normalization: 0.5</text>
<text x="50" y="460" font-family="Arial" font-size="12" fill="black">Learning Rate Schedule: False    </text>
<text x="10" y="510" font-family="Arial" font-size="16" fill="black">[Behaviour]</text>
<text x="50" y="530" font-family="Arial" font-size="12" fill="black">Space Size: 189</text>
<text x="50" y="550" font-family="Arial" font-size="12" fill="black">Continuous Actions: 40 [Standard Deviation: Fixed]     [Value: 0.75]</text>
<text x="50" y="570" font-family="Arial" font-size="12" fill="black">Discrete Actions: 0</text>
<text x="50" y="590" font-family="Arial" font-size="12" fill="black">TargetFPS: 100 (physics update rate)</text>
<text x="50" y="610" font-family="Arial" font-size="12" fill="black">Observations Normalization: True</text>
<text x="10" y="660" font-family="Arial" font-size="16" fill="black">[Decision Requester]</text>
<text x="50" y="680" font-family="Arial" font-size="12" fill="black">Max Step: 5000</text>
<text x="50" y="700" font-family="Arial" font-size="12" fill="black">Decision Period: 2      [Actions Between Decisions: True]</text>
<text x="10" y="750" font-family="Arial" font-size="16" fill="black">[Graphs]</text>
<text x="50" y="770" font-family="Arial" font-size="12" fill="black">Episode Reward (286)</text>
<text x="50" y="785" font-family="Arial" font-size="10" fill="black">9.080696</text>
<text x="50" y="1000" font-family="Arial" font-size="10" fill="black">1.356517</text>
<path d="M50,961.2455 L51.5625,966.5528 L53.125,790 L54.6875,971.451 L56.25,913.7032 L57.8125,966.9482 L59.375,922.2624 L60.9375,984.1819 L62.5,910.9853 L64.0625,948.8717 L65.625,976.8999 L67.1875,976.1921 L68.75,977.8555 L70.3125,975.5122 L71.875,967.2236 L73.4375,948.0267 L75,940.2556 L76.5625,975.48 L78.125,972.4092 L79.6875,949.0555 L81.25,964.5554 L82.8125,940.9656 L84.375,961.5036 L85.9375,960.7468 L87.5,974.732 L89.0625,974.7116 L90.625,832.009 L92.1875,963.7939 L93.75,954.0654 L95.3125,935.0239 L96.875,928.6442 L98.4375,971.1771 L100,968.4129 L101.5625,967.666 L103.125,970.6127 L104.6875,964.8136 L106.25,973.8623 L107.8125,947.6117 L109.375,970.8409 L110.9375,832.1991 L112.5,974.2432 L114.0625,980.4376 L115.625,952.4194 L117.1875,938.2532 L118.75,938.6841 L120.3125,946.2106 L121.875,956.2803 L123.4375,947.2201 L125,956.8447 L126.5625,981.9174 L128.125,936.5847 L129.6875,968.1215 L131.25,970.3073 L132.8125,950.7211 L134.375,937.1307 L135.9375,981.5945 L137.5,946.8897 L139.0625,888.5439 L140.625,974.3951 L142.1875,977.0113 L143.75,948.7515 L145.3125,975.452 L146.875,962.2659 L148.4375,967.3309 L150,921.8972 L151.5625,969.4482 L153.125,974.4238 L154.6875,948.4438 L156.25,925.602 L157.8125,966.7894 L159.375,969.2891 L160.9375,933.2149 L162.5,969.1882 L164.0625,964.034 L165.625,973.1392 L167.1875,902.9105 L168.75,969.6112 L170.3125,974.2552 L171.875,958.3592 L173.4375,953.563 L175,953.2234 L176.5625,975.9147 L178.125,925.3257 L179.6875,974.0039 L181.25,970.3967 L182.8125,936.5436 L184.375,970.2316 L185.9375,940.0033 L187.5,938.546 L189.0625,956.9036 L190.625,971.5555 L192.1875,936.0384 L193.75,957.2315 L195.3125,973.4986 L196.875,961.4934 L198.4375,924.8541 L200,954.6084 L201.5625,979.788 L203.125,977.8812 L204.6875,969.9438 L206.25,952.1813 L207.8125,973.6844 L209.375,971.4684 L210.9375,955.9528 L212.5,968.9585 L214.0625,977.793 L215.625,940.113 L217.1875,948.6698 L218.75,935.8402 L220.3125,944.7431 L221.875,966.5236 L223.4375,927.1557 L225,980.2366 L226.5625,924.3188 L228.125,947.1882 L229.6875,919.9494 L231.25,944.9775 L232.8125,846.1299 L234.375,959.6389 L235.9375,977.8522 L237.5,964.2605 L239.0625,921.8168 L240.625,944.1125 L242.1875,956.7673 L243.75,912.8876 L245.3125,981.3121 L246.875,871.8311 L248.4375,919.4178 L250,903.1016 L251.5625,955.4915 L253.125,945.6667 L254.6875,938.6459 L256.25,953.0939 L257.8125,930.2216 L259.375,949.8704 L260.9375,976.0132 L262.5,968.9992 L264.0625,930.1833 L265.625,973.2393 L267.1875,926.0756 L268.75,976.086 L270.3125,958.1816 L271.875,977.7856 L273.4375,976.465 L275,967.3718 L276.5625,976.5627 L278.125,965.7371 L279.6875,959.6435 L281.25,969.3531 L282.8125,978.4594 L284.375,932.3818 L285.9375,952.0706 L287.5,976.5401 L289.0625,968.1851 L290.625,950.5775 L292.1875,970.8813 L293.75,940.6276 L295.3125,968.6259 L296.875,913.6703 L298.4375,962.8968 L300,970.1348 L301.5625,912.3131 L303.125,974.4213 L304.6875,956.9423 L306.25,931.8623 L307.8125,940.6713 L309.375,974.8387 L310.9375,957.9482 L312.5,964.0572 L314.0625,915.7244 L315.625,938.2014 L317.1875,927.3633 L318.75,968.6686 L320.3125,968.8062 L321.875,953.2578 L323.4375,959.8597 L325,973.7136 L326.5625,882.6194 L328.125,976.1774 L329.6875,941.6648 L331.25,962.6218 L332.8125,955.4053 L334.375,990 L335.9375,962.8096 L337.5,939.7493 L339.0625,956.2336 L340.625,968.4127 L342.1875,969.2928 L343.75,950.701 L345.3125,968.9445 L346.875,915.3821 L348.4375,978.8394 L350,974.2596 L351.5625,944.9984 L353.125,973.2709 L354.6875,981.5887 L356.25,929.9071 L357.8125,969.3305 L359.375,953.8302 L360.9375,965.0317 L362.5,975.4691 L364.0625,976.843 L365.625,951.0242 L367.1875,950.3192 L368.75,906.1684 L370.3125,950.3757 L371.875,915.6613 L373.4375,967.0268 L375,968.3919 L376.5625,967.0369 L378.125,950.3141 L379.6875,951.1103 L381.25,944.0333 L382.8125,962.3545 L384.375,976.5808 L385.9375,972.1187 L387.5,926.2458 L389.0625,965.9098 L390.625,967.5945 L392.1875,959.3568 L393.75,925.836 L395.3125,966.3171 L396.875,963.0171 L398.4375,968.2531 L400,979.0675 L401.5625,962.6257 L403.125,924.9069 L404.6875,980.883 L406.25,945.243 L407.8125,984.2469 L409.375,965.9446 L410.9375,959.196 L412.5,893.8616 L414.0625,951.2128 L415.625,965.8719 L417.1875,895.0627 L418.75,945.535 L420.3125,967.0146 L421.875,963.7974 L423.4375,935.8082 L425,969.9012 L426.5625,920.6171 L428.125,964.107 L429.6875,910.667 L431.25,951.2096 L432.8125,988.433 L434.375,965.5963 L435.9375,977.7145 L437.5,956.6323 L439.0625,949.8267 L440.625,975.6248 L442.1875,933.512 L443.75,931.232 L445.3125,933.6575 L446.875,967.5567 L448.4375,966.0548 L450,961.0331 L451.5625,969.7972 L453.125,966.9921 L454.6875,906.5203 L456.25,917.0593 L457.8125,966.3027 L459.375,962.5377 L460.9375,975.4206 L462.5,920.6255 L464.0625,958.2288 L465.625,944.4433 L467.1875,961.5471 L468.75,954.0927 L470.3125,902.7078 L471.875,966.9543 L473.4375,952.7167 L475,963.3175 L476.5625,953.9183 L478.125,904.7463 L479.6875,912.9508 L481.25,942.0453 L482.8125,939.5626 L484.375,964.2158 L485.9375,986.126 L487.5,933.6837 L489.0625,969.757 L490.625,889.8655 L492.1875,975.158 L493.75,969.849 L495.3125,966.7399 " stroke="blue" fill="none" />
<text x="50" y="1040" font-family="Arial" font-size="12" fill="black">Episode Length (286)</text>
<text x="50" y="1055" font-family="Arial" font-size="10" fill="black">155</text>
<text x="50" y="1270" font-family="Arial" font-size="10" fill="black">54</text>
<path d="M50,1218.416 L51.5625,1236.238 L53.125,1060 L54.6875,1232.277 L56.25,1160.99 L57.8125,1226.337 L59.375,1172.871 L60.9375,1252.079 L62.5,1162.97 L64.0625,1202.574 L65.625,1240.198 L67.1875,1238.218 L68.75,1248.119 L70.3125,1238.218 L71.875,1226.337 L73.4375,1198.614 L75,1192.673 L76.5625,1238.218 L78.125,1234.257 L79.6875,1200.594 L81.25,1224.356 L82.8125,1192.673 L84.375,1214.455 L85.9375,1216.436 L87.5,1236.238 L89.0625,1238.218 L90.625,1089.703 L92.1875,1220.396 L93.75,1212.475 L95.3125,1184.752 L96.875,1180.792 L98.4375,1234.257 L100,1228.317 L101.5625,1228.317 L103.125,1230.297 L104.6875,1220.396 L106.25,1236.238 L107.8125,1200.594 L109.375,1234.257 L110.9375,1091.683 L112.5,1238.218 L114.0625,1248.119 L115.625,1204.554 L117.1875,1190.693 L118.75,1186.733 L120.3125,1196.634 L121.875,1214.455 L123.4375,1200.594 L125,1212.475 L126.5625,1246.139 L128.125,1188.713 L129.6875,1226.337 L131.25,1230.297 L132.8125,1202.574 L134.375,1188.713 L135.9375,1248.119 L137.5,1198.614 L139.0625,1137.228 L140.625,1236.238 L142.1875,1242.178 L143.75,1200.594 L145.3125,1238.218 L146.875,1220.396 L148.4375,1234.257 L150,1168.911 L151.5625,1230.297 L153.125,1234.257 L154.6875,1198.614 L156.25,1176.832 L157.8125,1226.337 L159.375,1228.317 L160.9375,1182.772 L162.5,1228.317 L164.0625,1218.416 L165.625,1234.257 L167.1875,1155.05 L168.75,1228.317 L170.3125,1236.238 L171.875,1212.475 L173.4375,1208.515 L175,1206.535 L176.5625,1240.198 L178.125,1174.851 L179.6875,1232.277 L181.25,1228.317 L182.8125,1188.713 L184.375,1228.317 L185.9375,1188.713 L187.5,1190.693 L189.0625,1218.416 L190.625,1232.277 L192.1875,1188.713 L193.75,1214.455 L195.3125,1234.257 L196.875,1220.396 L198.4375,1174.851 L200,1208.515 L201.5625,1242.178 L203.125,1244.158 L204.6875,1228.317 L206.25,1204.554 L207.8125,1236.238 L209.375,1232.277 L210.9375,1208.515 L212.5,1226.337 L214.0625,1244.158 L215.625,1190.693 L217.1875,1202.574 L218.75,1180.792 L220.3125,1192.673 L221.875,1226.337 L223.4375,1176.832 L225,1246.139 L226.5625,1174.851 L228.125,1200.594 L229.6875,1168.911 L231.25,1194.653 L232.8125,1101.584 L234.375,1216.436 L235.9375,1240.198 L237.5,1222.376 L239.0625,1166.931 L240.625,1198.614 L242.1875,1210.495 L243.75,1168.911 L245.3125,1246.139 L246.875,1127.327 L248.4375,1164.95 L250,1151.089 L251.5625,1220.396 L253.125,1200.594 L254.6875,1188.713 L256.25,1208.515 L257.8125,1180.792 L259.375,1202.574 L260.9375,1242.178 L262.5,1226.337 L264.0625,1178.812 L265.625,1234.257 L267.1875,1182.772 L268.75,1240.198 L270.3125,1214.455 L271.875,1248.119 L273.4375,1242.178 L275,1226.337 L276.5625,1244.158 L278.125,1224.356 L279.6875,1212.475 L281.25,1238.218 L282.8125,1246.139 L284.375,1182.772 L285.9375,1206.535 L287.5,1240.198 L289.0625,1228.317 L290.625,1202.574 L292.1875,1232.277 L293.75,1192.673 L295.3125,1226.337 L296.875,1172.871 L298.4375,1218.416 L300,1234.257 L301.5625,1160.99 L303.125,1236.238 L304.6875,1210.495 L306.25,1184.752 L307.8125,1192.673 L309.375,1242.178 L310.9375,1216.436 L312.5,1224.356 L314.0625,1166.931 L315.625,1198.614 L317.1875,1176.832 L318.75,1232.277 L320.3125,1234.257 L321.875,1206.535 L323.4375,1214.455 L325,1236.238 L326.5625,1141.188 L328.125,1240.198 L329.6875,1196.634 L331.25,1220.396 L332.8125,1214.455 L334.375,1260 L335.9375,1216.436 L337.5,1190.693 L339.0625,1212.475 L340.625,1226.337 L342.1875,1226.337 L343.75,1210.495 L345.3125,1226.337 L346.875,1166.931 L348.4375,1244.158 L350,1238.218 L351.5625,1198.614 L353.125,1230.297 L354.6875,1250.099 L356.25,1178.812 L357.8125,1232.277 L359.375,1210.495 L360.9375,1224.356 L362.5,1240.198 L364.0625,1240.198 L365.625,1212.475 L367.1875,1204.554 L368.75,1155.05 L370.3125,1202.574 L371.875,1168.911 L373.4375,1226.337 L375,1226.337 L376.5625,1226.337 L378.125,1208.515 L379.6875,1206.535 L381.25,1204.554 L382.8125,1218.416 L384.375,1242.178 L385.9375,1238.218 L387.5,1176.832 L389.0625,1226.337 L390.625,1224.356 L392.1875,1214.455 L393.75,1182.772 L395.3125,1226.337 L396.875,1222.376 L398.4375,1228.317 L400,1246.139 L401.5625,1216.436 L403.125,1174.851 L404.6875,1248.119 L406.25,1204.554 L407.8125,1256.04 L409.375,1232.277 L410.9375,1214.455 L412.5,1143.168 L414.0625,1206.535 L415.625,1222.376 L417.1875,1147.129 L418.75,1198.614 L420.3125,1222.376 L421.875,1220.396 L423.4375,1186.733 L425,1230.297 L426.5625,1168.911 L428.125,1222.376 L429.6875,1159.01 L431.25,1214.455 L432.8125,1260 L434.375,1222.376 L435.9375,1242.178 L437.5,1210.495 L439.0625,1202.574 L440.625,1236.238 L442.1875,1182.772 L443.75,1182.772 L445.3125,1186.733 L446.875,1228.317 L448.4375,1226.337 L450,1216.436 L451.5625,1230.297 L453.125,1228.317 L454.6875,1160.99 L456.25,1168.911 L457.8125,1226.337 L459.375,1222.376 L460.9375,1238.218 L462.5,1166.931 L464.0625,1216.436 L465.625,1194.653 L467.1875,1216.436 L468.75,1218.416 L470.3125,1155.05 L471.875,1226.337 L473.4375,1204.554 L475,1220.396 L476.5625,1208.515 L478.125,1151.089 L479.6875,1160.99 L481.25,1192.673 L482.8125,1198.614 L484.375,1220.396 L485.9375,1256.04 L487.5,1186.733 L489.0625,1230.297 L490.625,1139.208 L492.1875,1234.257 L493.75,1228.317 L495.3125,1226.337 " stroke="blue" fill="none" />
<text x="50" y="1310" font-family="Arial" font-size="12" fill="black">Policy Loss</text>
<text x="50" y="1325" font-family="Arial" font-size="10" fill="black">0</text>
<text x="50" y="1540" font-family="Arial" font-size="10" fill="black">0</text>
<path d="M50,1530 L62.5,1530 L75,1530 L87.5,1530 L100,1530 L112.5,1530 L125,1530 L137.5,1530 L150,1530 L162.5,1530 L175,1530 L187.5,1530 L200,1530 L212.5,1530 L225,1530 L237.5,1530 L250,1530 L262.5,1530 L275,1530 L287.5,1530 L300,1530 L312.5,1530 L325,1530 L337.5,1530 L350,1530 L362.5,1530 L375,1530 L387.5,1530 L400,1530 L412.5,1530 L425,1530 L437.5,1530 L450,1530 L462.5,1530 L475,1530 " stroke="blue" fill="none" />
<text x="50" y="1580" font-family="Arial" font-size="12" fill="black">Value Loss</text>
<text x="50" y="1595" font-family="Arial" font-size="10" fill="black">0.007577269</text>
<text x="50" y="1810" font-family="Arial" font-size="10" fill="black">0.00200611</text>
<path d="M50,1652.386 L62.5,1600.766 L75,1672.627 L87.5,1656.351 L100,1696.106 L112.5,1600 L125,1689.044 L137.5,1648.879 L150,1650.118 L162.5,1668.779 L175,1735.122 L187.5,1699.61 L200,1641.615 L212.5,1754.796 L225,1732.294 L237.5,1704.834 L250,1682.807 L262.5,1721.586 L275,1734.959 L287.5,1759.433 L300,1746.925 L312.5,1718.766 L325,1721.959 L337.5,1741.262 L350,1734.387 L362.5,1731.915 L375,1744.384 L387.5,1775.333 L400,1786.073 L412.5,1758.297 L425,1792.89 L437.5,1740.764 L450,1789.04 L462.5,1800 L475,1752.435 " stroke="blue" fill="none" />
<text x="50" y="1850" font-family="Arial" font-size="12" fill="black">Learning Rate</text>
<text x="50" y="1865" font-family="Arial" font-size="10" fill="black">8E-05</text>
<text x="50" y="2080" font-family="Arial" font-size="10" fill="black">8E-05</text>
<path d="M50,2070 L62.5,2070 L75,2070 L87.5,2070 L100,2070 L112.5,2070 L125,2070 L137.5,2070 L150,2070 L162.5,2070 L175,2070 L187.5,2070 L200,2070 L212.5,2070 L225,2070 L237.5,2070 L250,2070 L262.5,2070 L275,2070 L287.5,2070 L300,2070 L312.5,2070 L325,2070 L337.5,2070 L350,2070 L362.5,2070 L375,2070 L387.5,2070 L400,2070 L412.5,2070 L425,2070 L437.5,2070 L450,2070 L462.5,2070 L475,2070 " stroke="blue" fill="none" />
<text x="50" y="2120" font-family="Arial" font-size="12" fill="black">Entropy</text>
<text x="50" y="2135" font-family="Arial" font-size="10" fill="black">0</text>
<text x="50" y="2350" font-family="Arial" font-size="10" fill="black">0</text>
<path d="M50,2340 L62.5,2340 L75,2340 L87.5,2340 L100,2340 L112.5,2340 L125,2340 L137.5,2340 L150,2340 L162.5,2340 L175,2340 L187.5,2340 L200,2340 L212.5,2340 L225,2340 L237.5,2340 L250,2340 L262.5,2340 L275,2340 L287.5,2340 L300,2340 L312.5,2340 L325,2340 L337.5,2340 L350,2340 L362.5,2340 L375,2340 L387.5,2340 L400,2340 L412.5,2340 L425,2340 L437.5,2340 L450,2340 L462.5,2340 L475,2340 " stroke="blue" fill="none" />
<text x="750" y="770" font-family="Arial" font-size="12" fill="black">Simplified</text>
<text x="750" y="785" font-family="Arial" font-size="10" fill="black">3.482412</text>
<text x="750" y="1000" font-family="Arial" font-size="10" fill="black">2.254843</text>
<path d="M778.125,883.3625 L807.8125,902.5393 L837.5,890.2651 L867.1875,905.2441 L896.875,933.2505 L926.5625,925.9701 L956.25,790 L985.9375,949.1475 L1015.625,897.6235 L1045.313,926.4957 L1075,917.0299 L1104.688,938.8353 L1134.375,882.4579 L1164.063,900.011 L1193.75,864.0223 L1195.313,990 " stroke="blue" fill="none" />
<text x="750" y="1040" font-family="Arial" font-size="12" fill="black">Simplified</text>
<text x="750" y="1055" font-family="Arial" font-size="10" fill="black">89.68421</text>
<text x="750" y="1270" font-family="Arial" font-size="10" fill="black">71</text>
<path d="M778.125,1168.732 L807.8125,1171.549 L837.5,1159.718 L867.1875,1172.113 L896.875,1195.211 L926.5625,1186.197 L956.25,1060 L985.9375,1223.944 L1015.625,1169.296 L1045.313,1198.028 L1075,1189.014 L1104.688,1212.113 L1134.375,1155.211 L1164.063,1167.042 L1193.75,1129.859 L1195.313,1260 " stroke="blue" fill="none" />
</svg>
