<svg width="2000" height="2500" xmlns="http://www.w3.org/2000/svg">
<text x="10" y="20" font-family="Arial" font-size="26" fill="black"> [HumanWalk] Training Session</text>
<text x="10" y="50" font-family="Arial" font-size="16" fill="black">[Statistics]</text>
<text x="50" y="70" font-family="Arial" font-size="12" fill="black">Started at: 3:29:05 PM, Wednesday, January 24, 2024</text>
<text x="50" y="90" font-family="Arial" font-size="12" fill="black">Finished at: 3:31:07 PM, Wednesday, January 24, 2024</text>
<text x="50" y="110" font-family="Arial" font-size="12" fill="black">Training Session Time: 0 hrs : 1 min : 58 sec</text>
<text x="50" y="130" font-family="Arial" font-size="12" fill="black">Inference Time: 0 hrs : 21 min : 56 sec        [Device: CPU]</text>
<text x="50" y="150" font-family="Arial" font-size="12" fill="black">Update Time: 0 hrs : 1 min : 6 sec        [Per iteration: 0 hrs : 0 min : 11.165 sec]        [Device: GPU]</text>
<text x="50" y="170" font-family="Arial" font-size="12" fill="black">Episode Count: 542</text>
<text x="50" y="190" font-family="Arial" font-size="12" fill="black">Inference Steps: 24576</text>
<text x="50" y="210" font-family="Arial" font-size="12" fill="black">Iterations: 6</text>
<text x="50" y="230" font-family="Arial" font-size="12" fill="black">Parallel Agents: 24</text>
<text x="50" y="250" font-family="Arial" font-size="12" fill="black">Timescale: 1</text>
<text x="50" y="270" font-family="Arial" font-size="12" fill="black">Trainer: PPO</text>
<text x="10" y="320" font-family="Arial" font-size="16" fill="black">[Hyperparameters]</text>
<text x="50" y="340" font-family="Arial" font-size="12" fill="black">Buffer Size: 4096        [Batch Size: 256       (x16)]</text>
<text x="50" y="360" font-family="Arial" font-size="12" fill="black">Num Epoch: 8</text>
<text x="50" y="380" font-family="Arial" font-size="12" fill="black">Time Horizon: 512</text>
<text x="50" y="400" font-family="Arial" font-size="12" fill="black">Gradient Cliping by Norm: 0.5</text>
<text x="50" y="420" font-family="Arial" font-size="12" fill="black">Learning Rate Schedule: False    </text>
<text x="10" y="470" font-family="Arial" font-size="16" fill="black">[Behaviour]</text>
<text x="50" y="490" font-family="Arial" font-size="12" fill="black">Space Size: 130</text>
<text x="50" y="510" font-family="Arial" font-size="12" fill="black">Continuous Actions: 44 [Standard Deviation: Trainable]     </text>
<text x="50" y="530" font-family="Arial" font-size="12" fill="black">Discrete Actions: 0</text>
<text x="50" y="550" font-family="Arial" font-size="12" fill="black">TargetFPS: 100 (physics update rate)</text>
<text x="50" y="570" font-family="Arial" font-size="12" fill="black">Observations Normalization: False</text>
<text x="10" y="620" font-family="Arial" font-size="16" fill="black">[Decision Requester]</text>
<text x="50" y="640" font-family="Arial" font-size="12" fill="black">Max Step: 0</text>
<text x="50" y="660" font-family="Arial" font-size="12" fill="black">Decision Period: 5      [Actions Between Decisions: True]</text>
<text x="10" y="710" font-family="Arial" font-size="16" fill="black">[Graphs]</text>
<text x="50" y="730" font-family="Arial" font-size="12" fill="black">Episode Reward (542)</text>
<text x="50" y="745" font-family="Arial" font-size="10" fill="black">0.3936398</text>
<text x="50" y="960" font-family="Arial" font-size="10" fill="black">0.1172604</text>
<path d="M50,939.9988 L50.78125,938.4189 L51.5625,939.528 L52.34375,922.623 L53.125,923.2536 L53.90625,922.6811 L54.6875,915.1132 L55.46875,946.3412 L56.25,908.0428 L57.03125,904.1621 L57.8125,909.4324 L58.59375,935.7929 L59.375,935.7889 L60.15625,905.9786 L60.9375,937.6994 L61.71875,913.5289 L62.5,923.0467 L63.28125,893.6865 L64.0625,900.4298 L64.84375,926.1752 L65.625,915.8217 L66.40625,918.59 L67.1875,901.1624 L67.96875,871.3675 L68.75,939.5562 L69.53125,922.9974 L70.3125,931.4468 L71.09375,927.1271 L71.875,935.5909 L72.65625,905.1263 L73.4375,935.8776 L74.21875,931.2606 L75,927.7435 L75.78125,922.6195 L76.5625,908.1367 L77.34375,931.5013 L78.125,941.059 L78.90625,918.2984 L79.6875,912.8678 L80.46875,908.5029 L81.25,935.5903 L82.03125,907.6155 L82.8125,869.7713 L83.59375,928.0287 L84.375,886.5511 L85.15625,869.5143 L85.9375,927.2534 L86.71875,891.7997 L87.5,927.2652 L88.28125,924.3557 L89.0625,937.4434 L89.84375,936.1075 L90.625,936.1001 L91.40625,937.8013 L92.1875,910.2341 L92.96875,905.0222 L93.75,919.4955 L94.53125,907.9295 L95.3125,935.5679 L96.09375,913.9344 L96.875,884.1425 L97.65625,891.1741 L98.4375,922.1888 L99.21875,910.9999 L100,921.8964 L100.7813,939.9172 L101.5625,881.0685 L102.3438,932.7342 L103.125,815.5319 L103.9063,923.7337 L104.6875,871.8715 L105.4688,847.8265 L106.25,878.6856 L107.0313,943.768 L107.8125,910.8529 L108.5938,930.2993 L109.375,895.7281 L110.1563,937.0894 L110.9375,930.1108 L111.7188,908.8599 L112.5,872.1837 L113.2813,917.0682 L114.0625,927.8611 L114.8438,848.9092 L115.625,893.3024 L116.4063,907.8203 L117.1875,922.7831 L117.9688,929.2198 L118.75,917.2484 L119.5313,822.437 L120.3125,911.738 L121.0938,866.4292 L121.875,926.8853 L122.6563,926.0878 L123.4375,936.7127 L124.2188,908.4898 L125,943.3038 L125.7813,927.364 L126.5625,913.8382 L127.3438,901.5077 L128.125,907.04 L128.9063,934.9461 L129.6875,913.6391 L130.4688,920.0173 L131.25,940.6765 L132.0313,939.8351 L132.8125,925.1553 L133.5938,915.9051 L134.375,932.0984 L135.1563,890.1681 L135.9375,937.7379 L136.7188,873.2876 L137.5,933.6521 L138.2813,920.0319 L139.0625,889.8499 L139.8438,903.8679 L140.625,897.8787 L141.4063,908.4171 L142.1875,919.9199 L142.9688,909.8648 L143.75,914.5505 L144.5313,903.8129 L145.3125,932.3721 L146.0938,926.164 L146.875,897.77 L147.6563,916.2565 L148.4375,934.4509 L149.2188,918.9398 L150,931.3141 L150.7813,916.9437 L151.5625,849.1542 L152.3438,934.1812 L153.125,913.3597 L153.9063,917.3886 L154.6875,924.5139 L155.4688,949.3481 L156.25,914.6802 L157.0313,918.5571 L157.8125,915.6284 L158.5938,900.5388 L159.375,906.7145 L160.1563,923.8875 L160.9375,927.7891 L161.7188,878.4506 L162.5,927.8418 L163.2813,909.59 L164.0625,933.4315 L164.8438,918.4156 L165.625,939.3295 L166.4063,910.1899 L167.1875,910.953 L167.9688,905.1664 L168.75,906.8931 L169.5313,885.501 L170.3125,891.3424 L171.0938,911.8124 L171.875,897.4216 L172.6563,875.8862 L173.4375,912.2851 L174.2188,944.5021 L175,924.6171 L175.7813,943.2739 L176.5625,924.9277 L177.3438,908.5657 L178.125,873.2883 L178.9063,901.5038 L179.6875,870.8276 L180.4688,923.956 L181.25,903.3099 L182.0313,890.2617 L182.8125,881.8969 L183.5938,917.8177 L184.375,905.9335 L185.1563,925.9391 L185.9375,926.1332 L186.7188,923.4847 L187.5,940.0551 L188.2813,899.3928 L189.0625,929.4258 L189.8438,927.6049 L190.625,914.5879 L191.4063,916.7098 L192.1875,893.9188 L192.9688,926.4241 L193.75,931.2513 L194.5313,931.5725 L195.3125,916.4193 L196.0938,911.8102 L196.875,920.8762 L197.6563,899.9391 L198.4375,923.3931 L199.2188,918.5264 L200,935.3987 L200.7813,830.5259 L201.5625,900.7911 L202.3438,916.0069 L203.125,909.6666 L203.9063,894.2106 L204.6875,926.7716 L205.4688,917.2844 L206.25,925.2993 L207.0313,915.4766 L207.8125,923.7737 L208.5938,910.7444 L209.375,908.9631 L210.1563,896.0121 L210.9375,921.6879 L211.7188,902.451 L212.5,901.0604 L213.2813,882.9224 L214.0625,924.4231 L214.8438,919.0491 L215.625,836.9298 L216.4063,943.8969 L217.1875,901.2066 L217.9688,891.4507 L218.75,940.0966 L219.5313,883.9438 L220.3125,906.4166 L221.0938,921.4348 L221.875,936.5659 L222.6563,885.6844 L223.4375,909.4227 L224.2188,890.5522 L225,891.7209 L225.7813,943.9053 L226.5625,891.3443 L227.3438,889.5507 L228.125,921.9111 L228.9063,903.6959 L229.6875,913.2844 L230.4688,926.0092 L231.25,900.6067 L232.0313,925.5157 L232.8125,884.6481 L233.5938,911.7868 L234.375,887.3815 L235.1563,899.3802 L235.9375,891.7919 L236.7188,903.8407 L237.5,926.0095 L238.2813,879.3624 L239.0625,911.3653 L239.8438,884.8933 L240.625,911.9921 L241.4063,850.4915 L242.1875,929.4121 L242.9688,901.2886 L243.75,873.1335 L244.5313,914.3627 L245.3125,915.8299 L246.0938,929.6801 L246.875,889.6425 L247.6563,933.5906 L248.4375,931.0999 L249.2188,919.128 L250,925.4786 L250.7813,915.3725 L251.5625,927.7975 L252.3438,907.3722 L253.125,906.6499 L253.9063,859.2795 L254.6875,853.311 L255.4688,933.7557 L256.25,908.5377 L257.0313,924.8353 L257.8125,919.2946 L258.5938,900.3809 L259.375,851.8994 L260.1563,921.2422 L260.9375,911.7708 L261.7188,916.0374 L262.5,920.8981 L263.2813,920.3273 L264.0625,929.7644 L264.8438,900.0043 L265.625,909.5871 L266.4063,919.0145 L267.1875,934.5326 L267.9688,896.1057 L268.75,915.5245 L269.5313,925.4037 L270.3125,928.4682 L271.0938,919.4185 L271.875,918.5919 L272.6563,797.4032 L273.4375,928.1895 L274.2188,905.2811 L275,870.2208 L275.7813,858.0414 L276.5625,929.6487 L277.3438,827.1361 L278.125,931.1839 L278.9063,942.652 L279.6875,937.2315 L280.4688,909.3142 L281.25,918.7546 L282.0313,928.5359 L282.8125,910.5825 L283.5938,939.4901 L284.375,926.31 L285.1563,871.8719 L285.9375,823.7838 L286.7188,875.1448 L287.5,929.6936 L288.2813,918.7407 L289.0625,919.6108 L289.8438,903.8303 L290.625,924.8531 L291.4063,914.8983 L292.1875,931.9549 L292.9688,935.338 L293.75,905.048 L294.5313,927.2487 L295.3125,933.8315 L296.0938,883.9051 L296.875,863.2944 L297.6563,943.8215 L298.4375,947.2776 L299.2188,929.9413 L300,934.9369 L300.7813,905.979 L301.5625,932.3028 L302.3438,933.0641 L303.125,945.1501 L303.9063,931.9536 L304.6875,900.4811 L305.4688,937.6646 L306.25,919.9039 L307.0313,894.1099 L307.8125,912.6625 L308.5938,887.9976 L309.375,906.7485 L310.1563,904.4886 L310.9375,921.3702 L311.7188,913.0648 L312.5,915.6288 L313.2813,915.2112 L314.0625,878.3905 L314.8438,925.0546 L315.625,865.5625 L316.4063,926.0451 L317.1875,920.1723 L317.9688,925.1633 L318.75,908.239 L319.5313,833.7471 L320.3125,923.3049 L321.0938,879.0205 L321.875,894.5549 L322.6563,917.6467 L323.4375,926.5245 L324.2188,941.0897 L325,909.4695 L325.7813,911.0812 L326.5625,750 L327.3438,912.977 L328.125,920.18 L328.9063,898.5871 L329.6875,919.6563 L330.4688,931.5777 L331.25,936.4648 L332.0313,937.3592 L332.8125,922.6241 L333.5938,883.0228 L334.375,902.6047 L335.1563,885.5494 L335.9375,921.8915 L336.7188,902.2175 L337.5,912.6431 L338.2813,916.6451 L339.0625,932.3482 L339.8438,930.5029 L340.625,902.8604 L341.4063,804.4366 L342.1875,910.9116 L342.9688,853.4963 L343.75,894.8382 L344.5313,925.894 L345.3125,930.3002 L346.0938,900.0657 L346.875,888.1929 L347.6563,878.9194 L348.4375,902.7225 L349.2188,908.6786 L350,910.3048 L350.7813,863.1973 L351.5625,924.5821 L352.3438,912.7953 L353.125,920.2478 L353.9063,887.3181 L354.6875,845.9975 L355.4688,901.4527 L356.25,904.0953 L357.0313,934.634 L357.8125,916.3861 L358.5938,923.1974 L359.375,935.5835 L360.1563,880.3094 L360.9375,916.8021 L361.7188,929.8267 L362.5,913.8608 L363.2813,913.0639 L364.0625,894.0726 L364.8438,902.1559 L365.625,901.6711 L366.4063,926.6965 L367.1875,916.913 L367.9688,917.0474 L368.75,905.861 L369.5313,932.9429 L370.3125,887.0842 L371.0938,913.4359 L371.875,910.1923 L372.6563,924.9243 L373.4375,907.0416 L374.2188,901.156 L375,893.6494 L375.7813,894.6208 L376.5625,869.2986 L377.3438,932.5201 L378.125,927.4023 L378.9063,891.3618 L379.6875,877.9818 L380.4688,932.752 L381.25,912.8135 L382.0313,881.4083 L382.8125,900.5649 L383.5938,891.5993 L384.375,918.4358 L385.1563,950 L385.9375,935.0736 L386.7188,919.017 L387.5,935.8774 L388.2813,922.4842 L389.0625,907.2817 L389.8438,917.5842 L390.625,837.0172 L391.4063,916.0883 L392.1875,920.2245 L392.9688,918.6564 L393.75,874.9528 L394.5313,910.1306 L395.3125,923.5851 L396.0938,914.077 L396.875,913.4652 L397.6563,912.9909 L398.4375,898.5789 L399.2188,910.5982 L400,933.3753 L400.7813,818.6778 L401.5625,935.3311 L402.3438,899.4813 L403.125,902.6132 L403.9063,895.3202 L404.6875,921.2218 L405.4688,894.5717 L406.25,891.2584 L407.0313,912.5121 L407.8125,905.6885 L408.5938,898.5043 L409.375,852.6 L410.1563,911.4654 L410.9375,906.3056 L411.7188,908.4229 L412.5,881.5651 L413.2813,892.7379 L414.0625,923.5883 L414.8438,941.6413 L415.625,897.2185 L416.4063,884.3372 L417.1875,884.548 L417.9688,889.7965 L418.75,909.8326 L419.5313,920.9465 L420.3125,910.6945 L421.0938,922.0731 L421.875,930.065 L422.6563,948.803 L423.4375,900.8387 L424.2188,936.1275 L425,928.6288 L425.7813,859.7142 L426.5625,913.4116 L427.3438,894.099 L428.125,882.5208 L428.9063,906.2548 L429.6875,894.7671 L430.4688,911.315 L431.25,928.6144 L432.0313,919.2479 L432.8125,928.238 L433.5938,924.2378 L434.375,941.3817 L435.1563,890.743 L435.9375,869.3527 L436.7188,905.7741 L437.5,903.1396 L438.2813,917.1533 L439.0625,921.3229 L439.8438,918.0941 L440.625,924.5407 L441.4063,921.4219 L442.1875,926.7825 L442.9688,928.1546 L443.75,899.8264 L444.5313,905.0616 L445.3125,922.6094 L446.0938,905.8544 L446.875,942.144 L447.6563,889.7648 L448.4375,938.4307 L449.2188,886.8561 L450,921.6199 L450.7813,927.837 L451.5625,887.2822 L452.3438,919.7901 L453.125,916.9268 L453.9063,926.4107 L454.6875,887.6267 L455.4688,897.9659 L456.25,842.8304 L457.0313,931.1559 L457.8125,913.02 L458.5938,904.6098 L459.375,938.6986 L460.1563,917.4221 L460.9375,900.5275 L461.7188,912.6024 L462.5,923.8191 L463.2813,872.0586 L464.0625,906.2578 L464.8438,915.4781 L465.625,925.2127 L466.4063,892.2665 L467.1875,899.2748 L467.9688,900.4415 L468.75,912.5963 L469.5313,855.7654 L470.3125,909.0503 L471.0938,871.2518 L471.875,906.4568 L472.6563,908.8203 " stroke="blue" fill="none" />
<text x="50" y="1000" font-family="Arial" font-size="12" fill="black">Episode Length (542)</text>
<text x="50" y="1015" font-family="Arial" font-size="10" fill="black">104</text>
<text x="50" y="1230" font-family="Arial" font-size="10" fill="black">30</text>
<path d="M50,1220 L50.78125,1214.595 L51.5625,1206.486 L52.34375,1203.784 L53.125,1198.378 L53.90625,1198.378 L54.6875,1195.676 L55.46875,1195.676 L56.25,1192.973 L57.03125,1190.27 L57.8125,1190.27 L58.59375,1187.568 L59.375,1184.865 L60.15625,1182.162 L60.9375,1179.459 L61.71875,1179.459 L62.5,1176.757 L63.28125,1174.054 L64.0625,1171.351 L64.84375,1171.351 L65.625,1168.649 L66.40625,1168.649 L67.1875,1149.73 L67.96875,1138.919 L68.75,1211.892 L69.53125,1203.784 L70.3125,1179.459 L71.09375,1198.378 L71.875,1182.162 L72.65625,1157.838 L73.4375,1179.459 L74.21875,1179.459 L75,1198.378 L75.78125,1168.649 L76.5625,1187.568 L77.34375,1195.676 L78.125,1184.865 L78.90625,1160.541 L79.6875,1187.568 L80.46875,1160.541 L81.25,1182.162 L82.03125,1160.541 L82.8125,1152.432 L83.59375,1171.351 L84.375,1138.919 L85.15625,1147.027 L85.9375,1176.757 L86.71875,1165.946 L87.5,1198.378 L88.28125,1187.568 L89.0625,1184.865 L89.84375,1203.784 L90.625,1214.595 L91.40625,1187.568 L92.1875,1192.973 L92.96875,1182.162 L93.75,1198.378 L94.53125,1174.054 L95.3125,1179.459 L96.09375,1190.27 L96.875,1160.541 L97.65625,1155.135 L98.4375,1168.649 L99.21875,1190.27 L100,1165.946 L100.7813,1201.081 L101.5625,1149.73 L102.3438,1176.757 L103.125,1090.27 L103.9063,1192.973 L104.6875,1152.432 L105.4688,1128.108 L106.25,1144.324 L107.0313,1209.189 L107.8125,1190.27 L108.5938,1184.865 L109.375,1152.432 L110.1563,1184.865 L110.9375,1182.162 L111.7188,1176.757 L112.5,1133.514 L113.2813,1198.378 L114.0625,1174.054 L114.8438,1125.405 L115.625,1160.541 L116.4063,1149.73 L117.1875,1168.649 L117.9688,1174.054 L118.75,1160.541 L119.5313,1092.973 L120.3125,1190.27 L121.0938,1130.811 L121.875,1174.054 L122.6563,1203.784 L123.4375,1174.054 L124.2188,1179.459 L125,1192.973 L125.7813,1168.649 L126.5625,1157.838 L127.3438,1174.054 L128.125,1176.757 L128.9063,1187.568 L129.6875,1192.973 L130.4688,1190.27 L131.25,1187.568 L132.0313,1187.568 L132.8125,1168.649 L133.5938,1176.757 L134.375,1176.757 L135.1563,1168.649 L135.9375,1182.162 L136.7188,1152.432 L137.5,1179.459 L138.2813,1184.865 L139.0625,1163.243 L139.8438,1168.649 L140.625,1136.216 L141.4063,1190.27 L142.1875,1198.378 L142.9688,1182.162 L143.75,1195.676 L144.5313,1149.73 L145.3125,1179.459 L146.0938,1203.784 L146.875,1179.459 L147.6563,1160.541 L148.4375,1184.865 L149.2188,1190.27 L150,1179.459 L150.7813,1165.946 L151.5625,1111.892 L152.3438,1209.189 L153.125,1163.243 L153.9063,1163.243 L154.6875,1174.054 L155.4688,1209.189 L156.25,1187.568 L157.0313,1198.378 L157.8125,1168.649 L158.5938,1174.054 L159.375,1184.865 L160.1563,1171.351 L160.9375,1168.649 L161.7188,1109.189 L162.5,1198.378 L163.2813,1182.162 L164.0625,1174.054 L164.8438,1187.568 L165.625,1190.27 L166.4063,1147.027 L167.1875,1190.27 L167.9688,1184.865 L168.75,1179.459 L169.5313,1155.135 L170.3125,1165.946 L171.0938,1192.973 L171.875,1171.351 L172.6563,1125.405 L173.4375,1190.27 L174.2188,1190.27 L175,1198.378 L175.7813,1190.27 L176.5625,1203.784 L177.3438,1179.459 L178.125,1114.595 L178.9063,1182.162 L179.6875,1147.027 L180.4688,1174.054 L181.25,1165.946 L182.0313,1160.541 L182.8125,1152.432 L183.5938,1192.973 L184.375,1147.027 L185.1563,1195.676 L185.9375,1206.486 L186.7188,1168.649 L187.5,1190.27 L188.2813,1179.459 L189.0625,1203.784 L189.8438,1174.054 L190.625,1190.27 L191.4063,1192.973 L192.1875,1174.054 L192.9688,1198.378 L193.75,1176.757 L194.5313,1174.054 L195.3125,1165.946 L196.0938,1184.865 L196.875,1165.946 L197.6563,1179.459 L198.4375,1195.676 L199.2188,1174.054 L200,1184.865 L200.7813,1068.649 L201.5625,1182.162 L202.3438,1160.541 L203.125,1179.459 L203.9063,1141.622 L204.6875,1174.054 L205.4688,1192.973 L206.25,1171.351 L207.0313,1198.378 L207.8125,1198.378 L208.5938,1187.568 L209.375,1182.162 L210.1563,1168.649 L210.9375,1192.973 L211.7188,1179.459 L212.5,1168.649 L213.2813,1165.946 L214.0625,1176.757 L214.8438,1165.946 L215.625,1114.595 L216.4063,1187.568 L217.1875,1182.162 L217.9688,1168.649 L218.75,1192.973 L219.5313,1165.946 L220.3125,1176.757 L221.0938,1165.946 L221.875,1184.865 L222.6563,1160.541 L223.4375,1174.054 L224.2188,1165.946 L225,1144.324 L225.7813,1192.973 L226.5625,1157.838 L227.3438,1165.946 L228.125,1190.27 L228.9063,1184.865 L229.6875,1190.27 L230.4688,1168.649 L231.25,1179.459 L232.0313,1174.054 L232.8125,1130.811 L233.5938,1174.054 L234.375,1163.243 L235.1563,1144.324 L235.9375,1171.351 L236.7188,1179.459 L237.5,1195.676 L238.2813,1125.405 L239.0625,1190.27 L239.8438,1163.243 L240.625,1163.243 L241.4063,1122.703 L242.1875,1179.459 L242.9688,1176.757 L243.75,1144.324 L244.5313,1192.973 L245.3125,1165.946 L246.0938,1176.757 L246.875,1168.649 L247.6563,1179.459 L248.4375,1206.486 L249.2188,1168.649 L250,1203.784 L250.7813,1182.162 L251.5625,1174.054 L252.3438,1182.162 L253.125,1182.162 L253.9063,1138.919 L254.6875,1128.108 L255.4688,1179.459 L256.25,1152.432 L257.0313,1203.784 L257.8125,1195.676 L258.5938,1149.73 L259.375,1076.757 L260.1563,1190.27 L260.9375,1192.973 L261.7188,1192.973 L262.5,1165.946 L263.2813,1187.568 L264.0625,1179.459 L264.8438,1176.757 L265.625,1157.838 L266.4063,1163.243 L267.1875,1171.351 L267.9688,1138.919 L268.75,1192.973 L269.5313,1198.378 L270.3125,1171.351 L271.0938,1198.378 L271.875,1192.973 L272.6563,1044.324 L273.4375,1176.757 L274.2188,1136.216 L275,1114.595 L275.7813,1128.108 L276.5625,1206.486 L277.3438,1095.676 L278.125,1174.054 L278.9063,1192.973 L279.6875,1209.189 L280.4688,1184.865 L281.25,1163.243 L282.0313,1209.189 L282.8125,1152.432 L283.5938,1179.459 L284.375,1176.757 L285.1563,1149.73 L285.9375,1101.081 L286.7188,1144.324 L287.5,1209.189 L288.2813,1160.541 L289.0625,1168.649 L289.8438,1176.757 L290.625,1201.081 L291.4063,1192.973 L292.1875,1187.568 L292.9688,1214.595 L293.75,1184.865 L294.5313,1174.054 L295.3125,1182.162 L296.0938,1160.541 L296.875,1128.108 L297.6563,1190.27 L298.4375,1198.378 L299.2188,1174.054 L300,1187.568 L300.7813,1144.324 L301.5625,1201.081 L302.3438,1182.162 L303.125,1206.486 L303.9063,1176.757 L304.6875,1182.162 L305.4688,1190.27 L306.25,1165.946 L307.0313,1171.351 L307.8125,1190.27 L308.5938,1165.946 L309.375,1155.135 L310.1563,1182.162 L310.9375,1195.676 L311.7188,1192.973 L312.5,1192.973 L313.2813,1165.946 L314.0625,1149.73 L314.8438,1192.973 L315.625,1147.027 L316.4063,1192.973 L317.1875,1168.649 L317.9688,1198.378 L318.75,1155.135 L319.5313,1079.459 L320.3125,1171.351 L321.0938,1160.541 L321.875,1174.054 L322.6563,1190.27 L323.4375,1206.486 L324.2188,1192.973 L325,1187.568 L325.7813,1130.811 L326.5625,1020 L327.3438,1182.162 L328.125,1160.541 L328.9063,1141.622 L329.6875,1163.243 L330.4688,1179.459 L331.25,1184.865 L332.0313,1190.27 L332.8125,1201.081 L333.5938,1160.541 L334.375,1157.838 L335.1563,1168.649 L335.9375,1179.459 L336.7188,1157.838 L337.5,1157.838 L338.2813,1165.946 L339.0625,1182.162 L339.8438,1176.757 L340.625,1176.757 L341.4063,1065.946 L342.1875,1176.757 L342.9688,1111.892 L343.75,1160.541 L344.5313,1179.459 L345.3125,1174.054 L346.0938,1141.622 L346.875,1168.649 L347.6563,1152.432 L348.4375,1182.162 L349.2188,1182.162 L350,1190.27 L350.7813,1120 L351.5625,1176.757 L352.3438,1184.865 L353.125,1165.946 L353.9063,1147.027 L354.6875,1084.865 L355.4688,1182.162 L356.25,1176.757 L357.0313,1209.189 L357.8125,1163.243 L358.5938,1203.784 L359.375,1176.757 L360.1563,1157.838 L360.9375,1192.973 L361.7188,1176.757 L362.5,1152.432 L363.2813,1174.054 L364.0625,1168.649 L364.8438,1179.459 L365.625,1138.919 L366.4063,1176.757 L367.1875,1187.568 L367.9688,1195.676 L368.75,1179.459 L369.5313,1209.189 L370.3125,1160.541 L371.0938,1157.838 L371.875,1152.432 L372.6563,1171.351 L373.4375,1176.757 L374.2188,1168.649 L375,1171.351 L375.7813,1176.757 L376.5625,1147.027 L377.3438,1179.459 L378.125,1176.757 L378.9063,1125.405 L379.6875,1155.135 L380.4688,1190.27 L381.25,1157.838 L382.0313,1163.243 L382.8125,1176.757 L383.5938,1165.946 L384.375,1198.378 L385.1563,1220 L385.9375,1179.459 L386.7188,1201.081 L387.5,1184.865 L388.2813,1163.243 L389.0625,1157.838 L389.8438,1168.649 L390.625,1120 L391.4063,1160.541 L392.1875,1171.351 L392.9688,1198.378 L393.75,1149.73 L394.5313,1155.135 L395.3125,1171.351 L396.0938,1195.676 L396.875,1155.135 L397.6563,1182.162 L398.4375,1147.027 L399.2188,1179.459 L400,1179.459 L400.7813,1057.838 L401.5625,1182.162 L402.3438,1165.946 L403.125,1149.73 L403.9063,1141.622 L404.6875,1165.946 L405.4688,1174.054 L406.25,1168.649 L407.0313,1184.865 L407.8125,1182.162 L408.5938,1179.459 L409.375,1130.811 L410.1563,1179.459 L410.9375,1176.757 L411.7188,1163.243 L412.5,1160.541 L413.2813,1174.054 L414.0625,1171.351 L414.8438,1195.676 L415.625,1141.622 L416.4063,1157.838 L417.1875,1163.243 L417.9688,1165.946 L418.75,1190.27 L419.5313,1198.378 L420.3125,1160.541 L421.0938,1165.946 L421.875,1179.459 L422.6563,1203.784 L423.4375,1168.649 L424.2188,1209.189 L425,1201.081 L425.7813,1106.486 L426.5625,1192.973 L427.3438,1176.757 L428.125,1138.919 L428.9063,1182.162 L429.6875,1141.622 L430.4688,1184.865 L431.25,1182.162 L432.0313,1165.946 L432.8125,1174.054 L433.5938,1195.676 L434.375,1179.459 L435.1563,1171.351 L435.9375,1130.811 L436.7188,1152.432 L437.5,1152.432 L438.2813,1192.973 L439.0625,1201.081 L439.8438,1198.378 L440.625,1168.649 L441.4063,1174.054 L442.1875,1203.784 L442.9688,1174.054 L443.75,1171.351 L444.5313,1182.162 L445.3125,1160.541 L446.0938,1182.162 L446.875,1192.973 L447.6563,1160.541 L448.4375,1187.568 L449.2188,1168.649 L450,1184.865 L450.7813,1206.486 L451.5625,1157.838 L452.3438,1168.649 L453.125,1160.541 L453.9063,1174.054 L454.6875,1160.541 L455.4688,1174.054 L456.25,1087.568 L457.0313,1171.351 L457.8125,1187.568 L458.5938,1179.459 L459.375,1184.865 L460.1563,1198.378 L460.9375,1179.459 L461.7188,1190.27 L462.5,1168.649 L463.2813,1141.622 L464.0625,1176.757 L464.8438,1195.676 L465.625,1171.351 L466.4063,1160.541 L467.1875,1149.73 L467.9688,1176.757 L468.75,1192.973 L469.5313,1136.216 L470.3125,1160.541 L471.0938,1136.216 L471.875,1152.432 L472.6563,1155.135 " stroke="blue" fill="none" />
<text x="50" y="1270" font-family="Arial" font-size="12" fill="black">Policy Loss</text>
<text x="50" y="1285" font-family="Arial" font-size="10" fill="black">0.013152</text>
<text x="50" y="1500" font-family="Arial" font-size="10" fill="black">0.01157259</text>
<path d="M50,1290.001 L75,1490 L100,1434.627 L125,1296.835 L150,1325.717 L175,1405.083 " stroke="blue" fill="none" />
<text x="50" y="1540" font-family="Arial" font-size="12" fill="black">Value Loss</text>
<text x="50" y="1555" font-family="Arial" font-size="10" fill="black">0.0003104016</text>
<text x="50" y="1770" font-family="Arial" font-size="10" fill="black">0.0002216249</text>
<path d="M50,1572.005 L75,1760 L100,1678.443 L125,1560.023 L150,1613.633 L175,1665.134 " stroke="blue" fill="none" />
<text x="50" y="1810" font-family="Arial" font-size="12" fill="black">Learning Rate</text>
<text x="50" y="1825" font-family="Arial" font-size="10" fill="black">0.0003</text>
<text x="50" y="2040" font-family="Arial" font-size="10" fill="black">0.0003</text>
<path d="M50,2030 L75,2030 L100,2030 L125,2030 L150,2030 L175,2030 " stroke="blue" fill="none" />
<text x="50" y="2080" font-family="Arial" font-size="12" fill="black">Entropy</text>
<text x="50" y="2095" font-family="Arial" font-size="10" fill="black">11.39707</text>
<text x="50" y="2310" font-family="Arial" font-size="10" fill="black">11.13684</text>
<path d="M50,2256.099 L75,2116.847 L100,2100 L125,2145.513 L150,2176.041 L175,2300 " stroke="blue" fill="none" />
<text x="750" y="730" font-family="Arial" font-size="12" fill="black">Simplified</text>
<text x="750" y="745" font-family="Arial" font-size="10" fill="black">0.19139</text>
<text x="750" y="960" font-family="Arial" font-size="10" fill="black">0.1561319</text>
<path d="M764.0625,950 L778.9063,948.3132 L793.75,890.4969 L808.5938,805.0145 L823.4375,819.1868 L838.2813,934.7958 L853.125,868.9393 L867.9688,915.7024 L882.8125,808.2941 L897.6563,926.7928 L912.5,852.0143 L927.3438,815.9036 L942.1875,804.7072 L957.0313,848.7559 L971.875,885.1113 L986.7188,750.0001 L1001.563,938.019 L1016.406,875.3278 L1031.25,803.0892 L1046.094,807.5265 L1060.938,801.4226 L1075.781,855.3859 L1090.625,844.7654 L1105.469,825.5675 L1120.313,788.3223 L1135.156,886.2727 L1150,880.8364 L1164.844,837.2756 L1172.656,763.7728 " stroke="blue" fill="none" />
<text x="750" y="1000" font-family="Arial" font-size="12" fill="black">Simplified</text>
<text x="750" y="1015" font-family="Arial" font-size="10" fill="black">54.15789</text>
<text x="750" y="1230" font-family="Arial" font-size="10" fill="black">40.47368</text>
<path d="M764.0625,1220 L778.9063,1146.923 L793.75,1149.231 L808.5938,1095.385 L823.4375,1067.692 L838.2813,1146.923 L853.125,1126.154 L867.9688,1140.769 L882.8125,1105.385 L897.6563,1168.462 L912.5,1123.077 L927.3438,1096.923 L942.1875,1091.538 L957.0313,1124.615 L971.875,1120.769 L986.7188,1020 L1001.563,1161.538 L1016.406,1150.769 L1031.25,1050.769 L1046.094,1061.538 L1060.938,1099.231 L1075.781,1115.385 L1090.625,1103.077 L1105.469,1060.769 L1120.313,1106.923 L1135.156,1128.462 L1150,1133.846 L1164.844,1112.308 L1172.656,1044.231 " stroke="blue" fill="none" />
</svg>
