<svg width="2000" height="2500" xmlns="http://www.w3.org/2000/svg">
<text x="10" y="20" font-family="Arial" font-size="26" fill="black"> [HumanWalk] Training Session</text>
<text x="10" y="50" font-family="Arial" font-size="16" fill="black">[Statistics]</text>
<text x="50" y="70" font-family="Arial" font-size="12" fill="black">Started at: 2:21:44 PM, Friday, November 24, 2023</text>
<text x="50" y="90" font-family="Arial" font-size="12" fill="black">Finished at: 2:23:41 PM, Friday, November 24, 2023</text>
<text x="50" y="110" font-family="Arial" font-size="12" fill="black">Training Session Time: 0 hrs : 1 min : 56 sec</text>
<text x="50" y="130" font-family="Arial" font-size="12" fill="black">Inference Time: 0 hrs : 4 min : 8 sec       [Per agent: 0 hrs : 4 min : 8 sec]        [Device: CPU]</text>
<text x="50" y="150" font-family="Arial" font-size="12" fill="black">Policy Update Time: 0 hrs : 0 min : 22 sec        [Per iteration: 0 hrs : 0 min : 5 sec]        [Device: GPU]</text>
<text x="50" y="170" font-family="Arial" font-size="12" fill="black">Inference Time / Training Session Time: 2.106</text>
<text x="50" y="190" font-family="Arial" font-size="12" fill="black">Policy Update Time / Training Session Time: 0.190</text>
<text x="50" y="210" font-family="Arial" font-size="12" fill="black">Episode Count: 187</text>
<text x="50" y="230" font-family="Arial" font-size="12" fill="black">Inference Steps: 12491    [Per agent: 12491]     [Per Episode (mean): 66]</text>
<text x="50" y="250" font-family="Arial" font-size="12" fill="black">Iterations: 4</text>
<text x="50" y="270" font-family="Arial" font-size="12" fill="black">Parallel Agents: 1</text>
<text x="50" y="290" font-family="Arial" font-size="12" fill="black">Timescale: 2.379078</text>
<text x="50" y="310" font-family="Arial" font-size="12" fill="black">Trainer: PPO</text>
<text x="10" y="360" font-family="Arial" font-size="16" fill="black">[Hyperparameters]</text>
<text x="50" y="380" font-family="Arial" font-size="12" fill="black">Buffer Size: 3000        [Batch Size: 150       (x20)]</text>
<text x="50" y="400" font-family="Arial" font-size="12" fill="black">Num Epoch: 5</text>
<text x="50" y="420" font-family="Arial" font-size="12" fill="black">Time Horizon: 256</text>
<text x="50" y="440" font-family="Arial" font-size="12" fill="black">Gradient Cliping Normalization: 0.5</text>
<text x="50" y="460" font-family="Arial" font-size="12" fill="black">Learning Rate Schedule: False    </text>
<text x="10" y="510" font-family="Arial" font-size="16" fill="black">[Behaviour]</text>
<text x="50" y="530" font-family="Arial" font-size="12" fill="black">Space Size: 189</text>
<text x="50" y="550" font-family="Arial" font-size="12" fill="black">Continuous Actions: 40 [Standard Deviation: Fixed]     [Value: 1.75]</text>
<text x="50" y="570" font-family="Arial" font-size="12" fill="black">Discrete Actions: 0</text>
<text x="50" y="590" font-family="Arial" font-size="12" fill="black">TargetFPS: 100 (physics update rate)</text>
<text x="50" y="610" font-family="Arial" font-size="12" fill="black">Observations Normalization: True</text>
<text x="10" y="660" font-family="Arial" font-size="16" fill="black">[Decision Requester]</text>
<text x="50" y="680" font-family="Arial" font-size="12" fill="black">Max Step: 5000</text>
<text x="50" y="700" font-family="Arial" font-size="12" fill="black">Decision Period: 2      [Actions Between Decisions: True]</text>
<text x="10" y="750" font-family="Arial" font-size="16" fill="black">[Graphs]</text>
<text x="50" y="770" font-family="Arial" font-size="12" fill="black">Episode Reward (187)</text>
<text x="50" y="785" font-family="Arial" font-size="10" fill="black">5.283887</text>
<text x="50" y="1000" font-family="Arial" font-size="10" fill="black">0.8443384</text>
<path d="M50,922.0052 L51.5625,947.7634 L53.125,930.7625 L54.6875,907.126 L56.25,917.8078 L57.8125,902.6609 L59.375,951.1279 L60.9375,894.2125 L62.5,821.7834 L64.0625,934.5462 L65.625,949.9039 L67.1875,947.3694 L68.75,920.8383 L70.3125,917.6428 L71.875,951.9744 L73.4375,907.4262 L75,974.6234 L76.5625,948.1978 L78.125,886.5304 L79.6875,938.4592 L81.25,959.9067 L82.8125,914.824 L84.375,867.8536 L85.9375,966.084 L87.5,951.0854 L89.0625,981.5969 L90.625,832.5534 L92.1875,914.4188 L93.75,977.4647 L95.3125,957.2541 L96.875,876.4681 L98.4375,896.5876 L100,971.6075 L101.5625,938.2791 L103.125,948.824 L104.6875,980.3655 L106.25,859.2012 L107.8125,931.1274 L109.375,970.3398 L110.9375,922.7632 L112.5,934.369 L114.0625,939.4364 L115.625,926.3304 L117.1875,978.413 L118.75,905.623 L120.3125,943.9749 L121.875,944.4547 L123.4375,833.9266 L125,927.7789 L126.5625,974.5438 L128.125,902.4794 L129.6875,967.2694 L131.25,972.3154 L132.8125,957.6958 L134.375,957.3948 L135.9375,922.1208 L137.5,917.3483 L139.0625,942.6 L140.625,896.4571 L142.1875,964.5627 L143.75,887.6553 L145.3125,954.7411 L146.875,944.5453 L148.4375,953.0984 L150,943.1553 L151.5625,971.463 L153.125,914.8267 L154.6875,903.455 L156.25,948.6208 L157.8125,927.5569 L159.375,983.399 L160.9375,866.4738 L162.5,939.4432 L164.0625,952.4152 L165.625,958.7375 L167.1875,916.6138 L168.75,955.6393 L170.3125,977.2649 L171.875,985.7618 L173.4375,939.7401 L175,949.7982 L176.5625,958.2597 L178.125,966.1665 L179.6875,947.7536 L181.25,957.5486 L182.8125,958.4628 L184.375,910.6997 L185.9375,946.8847 L187.5,900.2567 L189.0625,950.8419 L190.625,950.6143 L192.1875,934.5082 L193.75,862.2993 L195.3125,945.8367 L196.875,956.0743 L198.4375,932.5343 L200,980.8912 L201.5625,917.8437 L203.125,970.5342 L204.6875,910.2932 L206.25,923.841 L207.8125,901.4205 L209.375,790 L210.9375,911.1511 L212.5,941.9979 L214.0625,946.1378 L215.625,913.0489 L217.1875,923.2496 L218.75,968.1389 L220.3125,924.5997 L221.875,977.2838 L223.4375,925.2358 L225,917.4258 L226.5625,929.9082 L228.125,954.827 L229.6875,956.8137 L231.25,909.666 L232.8125,939.9792 L234.375,855.291 L235.9375,961.5283 L237.5,914.5684 L239.0625,955.0866 L240.625,907.3715 L242.1875,883.2259 L243.75,857.038 L245.3125,937.5649 L246.875,923.6775 L248.4375,920.1597 L250,948.4069 L251.5625,943.3109 L253.125,956.9399 L254.6875,895.8072 L256.25,947.918 L257.8125,896.9004 L259.375,931.3444 L260.9375,943.5566 L262.5,915.3497 L264.0625,941.6583 L265.625,926.9851 L267.1875,869.0414 L268.75,937.9804 L270.3125,943.0413 L271.875,940.4026 L273.4375,933.9186 L275,968.7698 L276.5625,957.6994 L278.125,962.1332 L279.6875,929.5966 L281.25,976.7585 L282.8125,962.6827 L284.375,931.5377 L285.9375,928.6208 L287.5,854.645 L289.0625,964.6336 L290.625,975.6392 L292.1875,920.6995 L293.75,952.7512 L295.3125,939.7985 L296.875,866.1147 L298.4375,970.3766 L300,954.5068 L301.5625,960.2996 L303.125,922.2418 L304.6875,940.6287 L306.25,874.9502 L307.8125,962.7031 L309.375,890.4949 L310.9375,968.9967 L312.5,957.2764 L314.0625,879.4265 L315.625,934.6561 L317.1875,943.9705 L318.75,990 L320.3125,886.0781 L321.875,890.2395 L323.4375,877.97 L325,954.5125 L326.5625,947.922 L328.125,954.6998 L329.6875,963.1052 L331.25,963.5051 L332.8125,941.9122 L334.375,918.5402 L335.9375,905.4948 L337.5,964.0133 L339.0625,926.2029 L340.625,884.4739 " stroke="blue" fill="none" />
<text x="50" y="1040" font-family="Arial" font-size="12" fill="black">Episode Length (187)</text>
<text x="50" y="1055" font-family="Arial" font-size="10" fill="black">111</text>
<text x="50" y="1270" font-family="Arial" font-size="10" fill="black">39</text>
<path d="M50,1168.333 L51.5625,1193.333 L53.125,1182.222 L54.6875,1143.333 L56.25,1162.778 L57.8125,1157.222 L59.375,1204.444 L60.9375,1137.778 L62.5,1073.889 L64.0625,1190.556 L65.625,1204.444 L67.1875,1196.111 L68.75,1165.556 L70.3125,1168.333 L71.875,1218.333 L73.4375,1148.889 L75,1243.333 L76.5625,1196.111 L78.125,1126.667 L79.6875,1190.556 L81.25,1212.778 L82.8125,1162.778 L84.375,1115.556 L85.9375,1218.333 L87.5,1201.667 L89.0625,1240.556 L90.625,1079.444 L92.1875,1154.444 L93.75,1237.778 L95.3125,1215.556 L96.875,1107.222 L98.4375,1146.111 L100,1223.889 L101.5625,1193.333 L103.125,1204.444 L104.6875,1237.778 L106.25,1101.667 L107.8125,1182.222 L109.375,1240.556 L110.9375,1160 L112.5,1190.556 L114.0625,1187.778 L115.625,1168.333 L117.1875,1240.556 L118.75,1146.111 L120.3125,1193.333 L121.875,1196.111 L123.4375,1087.778 L125,1171.111 L126.5625,1232.222 L128.125,1151.667 L129.6875,1223.889 L131.25,1240.556 L132.8125,1212.778 L134.375,1204.444 L135.9375,1179.444 L137.5,1160 L139.0625,1182.222 L140.625,1140.556 L142.1875,1218.333 L143.75,1137.778 L145.3125,1207.222 L146.875,1185 L148.4375,1210 L150,1201.667 L151.5625,1232.222 L153.125,1157.222 L154.6875,1146.111 L156.25,1207.222 L157.8125,1179.444 L159.375,1248.889 L160.9375,1110 L162.5,1185 L164.0625,1198.889 L165.625,1207.222 L167.1875,1168.333 L168.75,1207.222 L170.3125,1237.778 L171.875,1251.667 L173.4375,1198.889 L175,1201.667 L176.5625,1210 L178.125,1221.111 L179.6875,1190.556 L181.25,1215.556 L182.8125,1210 L184.375,1148.889 L185.9375,1201.667 L187.5,1148.889 L189.0625,1198.889 L190.625,1215.556 L192.1875,1176.667 L193.75,1121.111 L195.3125,1187.778 L196.875,1212.778 L198.4375,1182.222 L200,1246.111 L201.5625,1160 L203.125,1226.667 L204.6875,1160 L206.25,1171.111 L207.8125,1140.556 L209.375,1060 L210.9375,1157.222 L212.5,1196.111 L214.0625,1201.667 L215.625,1165.556 L217.1875,1168.333 L218.75,1237.778 L220.3125,1165.556 L221.875,1237.778 L223.4375,1168.333 L225,1168.333 L226.5625,1171.111 L228.125,1212.778 L229.6875,1218.333 L231.25,1162.778 L232.8125,1187.778 L234.375,1098.889 L235.9375,1215.556 L237.5,1160 L239.0625,1212.778 L240.625,1151.667 L242.1875,1132.222 L243.75,1107.222 L245.3125,1187.778 L246.875,1168.333 L248.4375,1171.111 L250,1207.222 L251.5625,1196.111 L253.125,1212.778 L254.6875,1146.111 L256.25,1193.333 L257.8125,1137.778 L259.375,1179.444 L260.9375,1190.556 L262.5,1160 L264.0625,1193.333 L265.625,1173.889 L267.1875,1115.556 L268.75,1193.333 L270.3125,1198.889 L271.875,1187.778 L273.4375,1179.444 L275,1223.889 L276.5625,1212.778 L278.125,1223.889 L279.6875,1176.667 L281.25,1237.778 L282.8125,1215.556 L284.375,1187.778 L285.9375,1173.889 L287.5,1104.444 L289.0625,1221.111 L290.625,1240.556 L292.1875,1171.111 L293.75,1210 L295.3125,1193.333 L296.875,1096.111 L298.4375,1226.667 L300,1210 L301.5625,1210 L303.125,1160 L304.6875,1190.556 L306.25,1123.889 L307.8125,1229.444 L309.375,1148.889 L310.9375,1237.778 L312.5,1212.778 L314.0625,1132.222 L315.625,1171.111 L317.1875,1187.778 L318.75,1260 L320.3125,1129.444 L321.875,1140.556 L323.4375,1129.444 L325,1204.444 L326.5625,1198.889 L328.125,1210 L329.6875,1215.556 L331.25,1212.778 L332.8125,1196.111 L334.375,1173.889 L335.9375,1148.889 L337.5,1232.222 L339.0625,1173.889 L340.625,1129.444 " stroke="blue" fill="none" />
<text x="50" y="1310" font-family="Arial" font-size="12" fill="black">Policy Loss</text>
<text x="50" y="1325" font-family="Arial" font-size="10" fill="black">0.04817755</text>
<text x="50" y="1540" font-family="Arial" font-size="10" fill="black">0.006666161</text>
<path d="M50,1366.815 L75,1507.931 L100,1521.984 L125,1513.832 L150,1506.037 L175,1387.195 L200,1522.679 L225,1516.351 L250,1527.667 L275,1525.966 L300,1330 L325,1510.932 L350,1530 L375,1520.149 L400,1527.713 L425,1357.843 L450,1519.046 L475,1523.264 L500,1522.697 L525,1523.586 " stroke="blue" fill="none" />
<text x="50" y="1580" font-family="Arial" font-size="12" fill="black">Value Loss</text>
<text x="50" y="1595" font-family="Arial" font-size="10" fill="black">0.006191869</text>
<text x="50" y="1810" font-family="Arial" font-size="10" fill="black">0.003498616</text>
<path d="M50,1600.001 L75,1648.584 L100,1676.01 L125,1700.368 L150,1720.97 L175,1728.37 L200,1751.852 L225,1773.329 L250,1787.572 L275,1800 L300,1664.201 L325,1707.107 L350,1734.563 L375,1758.83 L400,1776.905 L425,1681.425 L450,1720.14 L475,1744.083 L500,1762.539 L525,1778.091 " stroke="blue" fill="none" />
<text x="50" y="1850" font-family="Arial" font-size="12" fill="black">Learning Rate</text>
<text x="50" y="1865" font-family="Arial" font-size="10" fill="black">0.0001</text>
<text x="50" y="2080" font-family="Arial" font-size="10" fill="black">0.0001</text>
<path d="M50,2070 L75,2070 L100,2070 L125,2070 L150,2070 L175,2070 L200,2070 L225,2070 L250,2070 L275,2070 L300,2070 L325,2070 L350,2070 L375,2070 L400,2070 L425,2070 L450,2070 L475,2070 L500,2070 L525,2070 " stroke="blue" fill="none" />
<text x="50" y="2120" font-family="Arial" font-size="12" fill="black">Entropy</text>
<text x="50" y="2135" font-family="Arial" font-size="10" fill="black">0.2638075</text>
<text x="50" y="2350" font-family="Arial" font-size="10" fill="black">0.2638075</text>
<path d="M50,2340 L75,2340 L100,2340 L125,2340 L150,2340 L175,2340 L200,2340 L225,2340 L250,2340 L275,2340 L300,2340 L325,2340 L350,2340 L375,2340 L400,2340 L425,2340 L450,2340 L475,2340 L500,2340 L525,2340 " stroke="blue" fill="none" />
<text x="750" y="770" font-family="Arial" font-size="12" fill="black">Simplified</text>
<text x="750" y="785" font-family="Arial" font-size="10" fill="black">2.334738</text>
<text x="750" y="1000" font-family="Arial" font-size="10" fill="black">1.843925</text>
<path d="M778.125,790 L807.8125,851.7261 L837.5,915.8129 L867.1875,902.1219 L896.875,990 L926.5625,823.9116 L956.25,806.6042 L985.9375,915.527 L1015.625,864.5217 L1040.625,873.0535 " stroke="blue" fill="none" />
<text x="750" y="1040" font-family="Arial" font-size="12" fill="black">Simplified</text>
<text x="750" y="1055" font-family="Arial" font-size="10" fill="black">70.42105</text>
<text x="750" y="1270" font-family="Arial" font-size="10" fill="black">61.42105</text>
<path d="M778.125,1060 L807.8125,1120.819 L837.5,1188.655 L867.1875,1161.754 L896.875,1260 L926.5625,1103.275 L956.25,1085.731 L985.9375,1178.129 L1015.625,1147.719 L1040.625,1149.912 " stroke="blue" fill="none" />
</svg>
