<svg width="2000" height="2500" xmlns="http://www.w3.org/2000/svg">
<text x="10" y="20" font-family="Arial" font-size="26" fill="black"> [HumanWalk] Training Session</text>
<text x="10" y="50" font-family="Arial" font-size="16" fill="black">[Statistics]</text>
<text x="50" y="70" font-family="Arial" font-size="12" fill="black">Started at: 4:45:55 PM, Monday, December 11, 2023</text>
<text x="50" y="90" font-family="Arial" font-size="12" fill="black">Finished at: 4:47:36 PM, Monday, December 11, 2023</text>
<text x="50" y="110" font-family="Arial" font-size="12" fill="black">Training Session Time: 0 hrs : 1 min : 40 sec</text>
<text x="50" y="130" font-family="Arial" font-size="12" fill="black">Inference Time: 0 hrs : 2 min : 47 sec       [Per agent: 0 hrs : 2 min : 47 sec]        [Device: CPU]</text>
<text x="50" y="150" font-family="Arial" font-size="12" fill="black">Policy Update Time: 0 hrs : 0 min : 54 sec        [Per iteration: 0 hrs : 0 min : 7 sec]        [Device: GPU]</text>
<text x="50" y="170" font-family="Arial" font-size="12" fill="black">Inference Time / Training Session Time: 1.640</text>
<text x="50" y="190" font-family="Arial" font-size="12" fill="black">Policy Update Time / Training Session Time: 0.535</text>
<text x="50" y="210" font-family="Arial" font-size="12" fill="black">Episode Count: 100</text>
<text x="50" y="230" font-family="Arial" font-size="12" fill="black">Inference Steps: 16700    [Per agent: 16700]     [Per Episode (mean): 167]</text>
<text x="50" y="250" font-family="Arial" font-size="12" fill="black">Iterations: 8</text>
<text x="50" y="270" font-family="Arial" font-size="12" fill="black">Parallel Agents: 1</text>
<text x="50" y="290" font-family="Arial" font-size="12" fill="black">Timescale: 2.367219</text>
<text x="50" y="310" font-family="Arial" font-size="12" fill="black">Trainer: PPO</text>
<text x="10" y="360" font-family="Arial" font-size="16" fill="black">[Hyperparameters]</text>
<text x="50" y="380" font-family="Arial" font-size="12" fill="black">Buffer Size: 2048        [Batch Size: 128       (x16)]</text>
<text x="50" y="400" font-family="Arial" font-size="12" fill="black">Num Epoch: 8</text>
<text x="50" y="420" font-family="Arial" font-size="12" fill="black">Time Horizon: 64</text>
<text x="50" y="440" font-family="Arial" font-size="12" fill="black">Gradient Cliping Normalization: 0.5</text>
<text x="50" y="460" font-family="Arial" font-size="12" fill="black">Learning Rate Schedule: False    </text>
<text x="10" y="510" font-family="Arial" font-size="16" fill="black">[Behaviour]</text>
<text x="50" y="530" font-family="Arial" font-size="12" fill="black">Space Size: 189</text>
<text x="50" y="550" font-family="Arial" font-size="12" fill="black">Continuous Actions: 40 [Standard Deviation: Fixed]     [Value: 0.7]</text>
<text x="50" y="570" font-family="Arial" font-size="12" fill="black">Discrete Actions: 0</text>
<text x="50" y="590" font-family="Arial" font-size="12" fill="black">TargetFPS: 100 (physics update rate)</text>
<text x="50" y="610" font-family="Arial" font-size="12" fill="black">Observations Normalization: True</text>
<text x="10" y="660" font-family="Arial" font-size="16" fill="black">[Decision Requester]</text>
<text x="50" y="680" font-family="Arial" font-size="12" fill="black">Max Step: 0</text>
<text x="50" y="700" font-family="Arial" font-size="12" fill="black">Decision Period: 1</text>
<text x="10" y="750" font-family="Arial" font-size="16" fill="black">[Graphs]</text>
<text x="50" y="770" font-family="Arial" font-size="12" fill="black">Episode Reward (100)</text>
<text x="50" y="785" font-family="Arial" font-size="10" fill="black">7.238954</text>
<text x="50" y="1000" font-family="Arial" font-size="10" fill="black">0.8789595</text>
<path d="M50,943.9763 L53.125,953.3847 L56.25,921.2017 L59.375,944.7128 L62.5,888.9277 L65.625,964.6231 L68.75,953.7358 L71.875,942.2278 L75,971.6931 L78.125,986.9405 L81.25,970.5428 L84.375,979.4854 L87.5,894.9169 L90.625,960.142 L93.75,950.8748 L96.875,979.103 L100,968.3519 L103.125,882.243 L106.25,955.3204 L109.375,955.8127 L112.5,949.4595 L115.625,959.2461 L118.75,952.3837 L121.875,975.5244 L125,941.6726 L128.125,944.7176 L131.25,990 L134.375,891.4337 L137.5,977.4781 L140.625,913.2576 L143.75,937.0347 L146.875,969.4156 L150,955.7351 L153.125,977.7076 L156.25,976.1415 L159.375,924.911 L162.5,899.12 L165.625,946.5071 L168.75,915.7709 L171.875,943.0371 L175,927.4196 L178.125,981.6057 L181.25,987.7689 L184.375,833.3016 L187.5,980.6786 L190.625,914.1683 L193.75,959.6998 L196.875,982.7382 L200,934.317 L203.125,943.6182 L206.25,985.5206 L209.375,974.8842 L212.5,929.2693 L215.625,913.0947 L218.75,950.2325 L221.875,953.8013 L225,964.5826 L228.125,790 L231.25,955.0604 L234.375,981.3568 L237.5,928.5196 L240.625,901.5685 L243.75,958.0847 L246.875,986.24 L250,958.2067 L253.125,928.9537 L256.25,967.8843 L259.375,967.2692 L262.5,979.5359 L265.625,979.4845 L268.75,940.1454 L271.875,964.8683 L275,920.5427 L278.125,927.3955 L281.25,945.2395 L284.375,937.0021 L287.5,975.2715 L290.625,905.2004 L293.75,931.0128 L296.875,961.017 L300,964.1762 L303.125,883.4703 L306.25,970.0527 L309.375,964.8771 L312.5,972.7506 L315.625,960.4318 L318.75,859.2296 L321.875,975.5571 L325,863.0532 L328.125,986.826 L331.25,930.6837 L334.375,951.8721 L337.5,981.7596 L340.625,966.2446 L343.75,925.72 L346.875,964.3348 L350,826.3019 L353.125,976.3209 L356.25,976.0161 L359.375,959.4686 " stroke="blue" fill="none" />
<text x="50" y="1040" font-family="Arial" font-size="12" fill="black">Episode Length (100)</text>
<text x="50" y="1055" font-family="Arial" font-size="10" fill="black">305</text>
<text x="50" y="1270" font-family="Arial" font-size="10" fill="black">106</text>
<path d="M50,1196.683 L53.125,1200.703 L56.25,1170.553 L59.375,1188.643 L62.5,1135.377 L65.625,1221.809 L68.75,1202.714 L71.875,1186.633 L75,1231.859 L78.125,1251.96 L81.25,1229.849 L84.375,1238.895 L87.5,1144.422 L90.625,1210.754 L93.75,1201.708 L96.875,1243.92 L100,1221.809 L103.125,1134.372 L106.25,1206.734 L109.375,1209.749 L112.5,1198.693 L115.625,1209.749 L118.75,1201.708 L121.875,1231.859 L125,1190.653 L128.125,1200.703 L131.25,1260 L134.375,1140.402 L137.5,1239.9 L140.625,1163.518 L143.75,1184.623 L146.875,1224.824 L150,1207.739 L153.125,1234.874 L156.25,1234.874 L159.375,1171.558 L162.5,1143.417 L165.625,1192.663 L168.75,1162.513 L171.875,1192.663 L175,1175.578 L178.125,1245.93 L181.25,1256.985 L184.375,1097.186 L187.5,1242.915 L190.625,1158.492 L193.75,1210.754 L196.875,1245.93 L200,1180.603 L203.125,1193.668 L206.25,1249.95 L209.375,1231.859 L212.5,1175.578 L215.625,1159.497 L218.75,1198.693 L221.875,1204.724 L225,1220.804 L228.125,1060 L231.25,1203.719 L234.375,1245.93 L237.5,1170.553 L240.625,1144.422 L243.75,1208.744 L246.875,1255.98 L250,1207.739 L253.125,1174.573 L256.25,1219.799 L259.375,1226.834 L262.5,1244.925 L265.625,1244.925 L268.75,1188.643 L271.875,1216.784 L275,1163.518 L278.125,1177.588 L281.25,1192.663 L284.375,1187.638 L287.5,1233.869 L290.625,1148.442 L293.75,1178.593 L296.875,1213.769 L300,1220.804 L303.125,1134.372 L306.25,1230.854 L309.375,1223.819 L312.5,1228.844 L315.625,1216.784 L318.75,1117.286 L321.875,1233.869 L325,1111.256 L328.125,1257.99 L331.25,1184.623 L334.375,1205.729 L337.5,1247.94 L340.625,1219.799 L343.75,1175.578 L346.875,1221.809 L350,1088.141 L353.125,1230.854 L356.25,1235.879 L359.375,1209.749 " stroke="blue" fill="none" />
<text x="50" y="1310" font-family="Arial" font-size="12" fill="black">Policy Loss</text>
<text x="50" y="1325" font-family="Arial" font-size="10" fill="black">0.07707815</text>
<text x="50" y="1540" font-family="Arial" font-size="10" fill="black">0.005560368</text>
<path d="M50,1404.038 L56.25,1517.562 L62.5,1520.57 L68.75,1527.87 L75,1527.951 L81.25,1513.058 L87.5,1523.113 L93.75,1514.285 L100,1402.954 L106.25,1520.036 L112.5,1520.626 L118.75,1524.662 L125,1527.973 L131.25,1526.021 L137.5,1513.812 L143.75,1517.651 L150,1369.195 L156.25,1508.74 L162.5,1517.497 L168.75,1524.091 L175,1530 L181.25,1525.083 L187.5,1518.967 L193.75,1525.852 L200,1392.283 L206.25,1523.433 L212.5,1527.551 L218.75,1521.964 L225,1524.317 L231.25,1528.19 L237.5,1517.473 L243.75,1524.649 L250,1365.365 L256.25,1524.254 L262.5,1516.895 L268.75,1521.81 L275,1525.619 L281.25,1522.012 L287.5,1520.043 L293.75,1522.122 L300,1376.421 L306.25,1525.205 L312.5,1519.326 L318.75,1519.151 L325,1528.597 L331.25,1522.609 L337.5,1516.587 L343.75,1523.453 L350,1402.703 L356.25,1524.264 L362.5,1520.24 L368.75,1521.401 L375,1523.014 L381.25,1525.494 L387.5,1526.703 L393.75,1524.33 L400,1330 L406.25,1523.302 L412.5,1512.541 L418.75,1524.55 L425,1528.564 L431.25,1521.499 L437.5,1527.134 L443.75,1526.031 " stroke="blue" fill="none" />
<text x="50" y="1580" font-family="Arial" font-size="12" fill="black">Value Loss</text>
<text x="50" y="1595" font-family="Arial" font-size="10" fill="black">0.001994169</text>
<text x="50" y="1810" font-family="Arial" font-size="10" fill="black">0.000207808</text>
<path d="M50,1714.79 L56.25,1756.804 L62.5,1768.157 L68.75,1773.836 L75,1777.375 L81.25,1779.981 L87.5,1782.715 L93.75,1784.589 L100,1751.041 L106.25,1779.057 L112.5,1787.559 L118.75,1792.341 L125,1795.322 L131.25,1797.13 L137.5,1798.77 L143.75,1800 L150,1745.127 L156.25,1767.635 L162.5,1783.847 L168.75,1789.992 L175,1793.047 L181.25,1795.087 L187.5,1796.888 L193.75,1798.244 L200,1707.74 L206.25,1740.858 L212.5,1772.634 L218.75,1781.659 L225,1786.338 L231.25,1789.124 L237.5,1791.306 L243.75,1793.309 L250,1690.468 L256.25,1708.658 L262.5,1755.632 L268.75,1771.264 L275,1778.17 L281.25,1782.238 L287.5,1784.806 L293.75,1787.072 L300,1722.349 L306.25,1728.671 L312.5,1772.796 L318.75,1784.981 L325,1790.117 L331.25,1792.811 L337.5,1794.362 L343.75,1796.028 L350,1745.871 L356.25,1770.498 L362.5,1780.749 L368.75,1786.773 L375,1789.495 L381.25,1791.547 L387.5,1793.211 L393.75,1794.588 L400,1600.001 L406.25,1697.529 L412.5,1730.242 L418.75,1745.437 L425,1753.062 L431.25,1758.607 L437.5,1762.198 L443.75,1764.892 " stroke="blue" fill="none" />
<text x="50" y="1850" font-family="Arial" font-size="12" fill="black">Learning Rate</text>
<text x="50" y="1865" font-family="Arial" font-size="10" fill="black">0.0003</text>
<text x="50" y="2080" font-family="Arial" font-size="10" fill="black">0.0003</text>
<path d="M50,2070 L56.25,2070 L62.5,2070 L68.75,2070 L75,2070 L81.25,2070 L87.5,2070 L93.75,2070 L100,2070 L106.25,2070 L112.5,2070 L118.75,2070 L125,2070 L131.25,2070 L137.5,2070 L143.75,2070 L150,2070 L156.25,2070 L162.5,2070 L168.75,2070 L175,2070 L181.25,2070 L187.5,2070 L193.75,2070 L200,2070 L206.25,2070 L212.5,2070 L218.75,2070 L225,2070 L231.25,2070 L237.5,2070 L243.75,2070 L250,2070 L256.25,2070 L262.5,2070 L268.75,2070 L275,2070 L281.25,2070 L287.5,2070 L293.75,2070 L300,2070 L306.25,2070 L312.5,2070 L318.75,2070 L325,2070 L331.25,2070 L337.5,2070 L343.75,2070 L350,2070 L356.25,2070 L362.5,2070 L368.75,2070 L375,2070 L381.25,2070 L387.5,2070 L393.75,2070 L400,2070 L406.25,2070 L412.5,2070 L418.75,2070 L425,2070 L431.25,2070 L437.5,2070 L443.75,2070 " stroke="blue" fill="none" />
<text x="50" y="2120" font-family="Arial" font-size="12" fill="black">Entropy</text>
<text x="50" y="2135" font-family="Arial" font-size="10" fill="black">0.132783</text>
<text x="50" y="2350" font-family="Arial" font-size="10" fill="black">0.113514</text>
<path d="M50,2340 L56.25,2340 L62.5,2340 L68.75,2340 L75,2340 L81.25,2340 L87.5,2340 L93.75,2340 L100,2340 L106.25,2340 L112.5,2340 L118.75,2340 L125,2340 L131.25,2340 L137.5,2340 L143.75,2340 L150,2340 L156.25,2340 L162.5,2340 L168.75,2340 L175,2340 L181.25,2340 L187.5,2340 L193.75,2340 L200,2340 L206.25,2340 L212.5,2340 L218.75,2340 L225,2340 L231.25,2340 L237.5,2340 L243.75,2340 L250,2340 L256.25,2340 L262.5,2340 L268.75,2340 L275,2340 L281.25,2340 L287.5,2340 L293.75,2340 L300,2340 L306.25,2340 L312.5,2340 L318.75,2340 L325,2340 L331.25,2340 L337.5,2340 L343.75,2340 L350,2340 L356.25,2340 L362.5,2340 L368.75,2340 L375,2340 L381.25,2340 L387.5,2340 L393.75,2340 L400,2140 L406.25,2140 L412.5,2140 L418.75,2140 L425,2140 L431.25,2140 L437.5,2140 L443.75,2140 " stroke="blue" fill="none" />
<text x="750" y="770" font-family="Arial" font-size="12" fill="black">Simplified</text>
<text x="750" y="785" font-family="Arial" font-size="10" fill="black">2.453426</text>
<text x="750" y="1000" font-family="Arial" font-size="10" fill="black">2.171781</text>
<path d="M806.25,960.1028 L865.625,990 L925,916.2537 L984.375,847.1401 L1043.75,861.2229 L1059.375,790 " stroke="blue" fill="none" />
<text x="750" y="1040" font-family="Arial" font-size="12" fill="black">Simplified</text>
<text x="750" y="1055" font-family="Arial" font-size="10" fill="black">169.1053</text>
<text x="750" y="1270" font-family="Arial" font-size="10" fill="black">163.5263</text>
<path d="M806.25,1218.491 L865.625,1260 L925,1190.189 L984.375,1060 L1043.75,1152.453 L1059.375,1085.283 " stroke="blue" fill="none" />
</svg>
