<svg width="2000" height="2500" xmlns="http://www.w3.org/2000/svg">
<text x="10" y="20" font-family="Arial" font-size="26" fill="black"> [HumanWalk] Training Session</text>
<text x="10" y="50" font-family="Arial" font-size="16" fill="black">[Statistics]</text>
<text x="50" y="70" font-family="Arial" font-size="12" fill="black">Started at: 3:17:28 PM, Saturday, January 20, 2024</text>
<text x="50" y="90" font-family="Arial" font-size="12" fill="black">Finished at: 3:19:52 PM, Saturday, January 20, 2024</text>
<text x="50" y="110" font-family="Arial" font-size="12" fill="black">Training Session Time: 0 hrs : 2 min : 8 sec</text>
<text x="50" y="130" font-family="Arial" font-size="12" fill="black">Inference Time: 0 hrs : 52 min : 46 sec        [Device: CPU]</text>
<text x="50" y="150" font-family="Arial" font-size="12" fill="black">Update Time: 0 hrs : 0 min : 33 sec        [Per iteration: 0 hrs : 0 min : 8.83 sec]        [Device: GPU]</text>
<text x="50" y="170" font-family="Arial" font-size="12" fill="black">Episode Count: 1489</text>
<text x="50" y="190" font-family="Arial" font-size="12" fill="black">Inference Steps: 40960</text>
<text x="50" y="210" font-family="Arial" font-size="12" fill="black">Iterations: 4</text>
<text x="50" y="230" font-family="Arial" font-size="12" fill="black">Parallel Agents: 29</text>
<text x="50" y="250" font-family="Arial" font-size="12" fill="black">Timescale: 1</text>
<text x="50" y="270" font-family="Arial" font-size="12" fill="black">Trainer: PPO</text>
<text x="10" y="320" font-family="Arial" font-size="16" fill="black">[Hyperparameters]</text>
<text x="50" y="340" font-family="Arial" font-size="12" fill="black">Buffer Size: 10240        [Batch Size: 512       (x20)]</text>
<text x="50" y="360" font-family="Arial" font-size="12" fill="black">Num Epoch: 3</text>
<text x="50" y="380" font-family="Arial" font-size="12" fill="black">Time Horizon: 64</text>
<text x="50" y="400" font-family="Arial" font-size="12" fill="black">Gradient Cliping by Norm: 0.5</text>
<text x="50" y="420" font-family="Arial" font-size="12" fill="black">Learning Rate Schedule: False    </text>
<text x="10" y="470" font-family="Arial" font-size="16" fill="black">[Behaviour]</text>
<text x="50" y="490" font-family="Arial" font-size="12" fill="black">Space Size: 130</text>
<text x="50" y="510" font-family="Arial" font-size="12" fill="black">Continuous Actions: 44 [Standard Deviation: Trainable]     </text>
<text x="50" y="530" font-family="Arial" font-size="12" fill="black">Discrete Actions: 0</text>
<text x="50" y="550" font-family="Arial" font-size="12" fill="black">TargetFPS: 100 (physics update rate)</text>
<text x="50" y="570" font-family="Arial" font-size="12" fill="black">Observations Normalization: False</text>
<text x="10" y="620" font-family="Arial" font-size="16" fill="black">[Decision Requester]</text>
<text x="50" y="640" font-family="Arial" font-size="12" fill="black">Max Step: 0</text>
<text x="50" y="660" font-family="Arial" font-size="12" fill="black">Decision Period: 5      [Actions Between Decisions: True]</text>
<text x="10" y="710" font-family="Arial" font-size="16" fill="black">[Graphs]</text>
<text x="50" y="730" font-family="Arial" font-size="12" fill="black">Episode Reward (1489)</text>
<text x="50" y="745" font-family="Arial" font-size="10" fill="black">7.113032</text>
<text x="50" y="960" font-family="Arial" font-size="10" fill="black">0.06266305</text>
<path d="M50,944.2084 L50.19531,935.1002 L50.39063,937.4377 L50.58594,930.6275 L50.78125,934.1325 L50.97656,931.077 L51.17188,924.6993 L51.36719,929.1138 L51.5625,928.4786 L51.75781,918.6384 L51.95313,926.7847 L52.14844,915.8994 L52.34375,920.2139 L52.53906,926.2871 L52.73438,923.8553 L52.92969,911.3209 L53.125,916.0283 L53.32031,914.39 L53.51563,883.6254 L53.71094,889.1534 L53.90625,950 L54.10156,894.7287 L54.29688,928.9122 L54.49219,918.157 L54.6875,916.8054 L54.88281,919.6265 L55.07813,927.9731 L55.27344,933.0833 L55.46875,917.7483 L55.66406,929.9449 L55.85938,924.0884 L56.05469,924.3729 L56.25,906.4697 L56.44531,905.6654 L56.64063,911.4482 L56.83594,940.8182 L57.03125,930.751 L57.22656,908.8232 L57.42188,926.3419 L57.61719,925.2576 L57.8125,933.1285 L58.00781,830.3891 L58.20313,919.0596 L58.39844,931.3345 L58.59375,935.1647 L58.78906,931.507 L58.98438,920.135 L59.17969,897.5274 L59.375,917.1478 L59.57031,922.9602 L59.76563,921.725 L59.96094,905.1709 L60.15625,919.8169 L60.35156,904.001 L60.54688,928.1514 L60.74219,914.9417 L60.9375,904.9341 L61.13281,922.199 L61.32813,925.4481 L61.52344,903.8704 L61.71875,920.5847 L61.91406,926.8182 L62.10938,924.5466 L62.30469,922.9667 L62.5,924.0632 L62.69531,923.1213 L62.89063,929.085 L63.08594,929.5974 L63.28125,860.58 L63.47656,902.5825 L63.67188,925.2209 L63.86719,900.4375 L64.0625,925.3272 L64.25781,925.6955 L64.45313,915.1363 L64.64844,925.1824 L64.84375,916.994 L65.03906,878.6721 L65.23438,931.3951 L65.42969,917.1944 L65.625,921.8391 L65.82031,925.4151 L66.01563,905.5562 L66.21094,924.9405 L66.40625,928.3024 L66.60156,922.6994 L66.79688,921.6733 L66.99219,886.691 L67.1875,928.4533 L67.38281,918.7798 L67.57813,913.5553 L67.77344,947.1028 L67.96875,929.1928 L68.16406,927.4308 L68.35938,867.599 L68.55469,926.5966 L68.75,916.4901 L68.94531,917.8279 L69.14063,926.9506 L69.33594,910.1033 L69.53125,931.7415 L69.72656,928.0996 L69.92188,922.1563 L70.11719,920.9165 L70.3125,941.3125 L70.50781,919.2994 L70.70313,913.8842 L70.89844,918.3134 L71.09375,925.0166 L71.28906,923.5466 L71.48438,926.0381 L71.67969,913.7902 L71.875,913.7673 L72.07031,930.14 L72.26563,934.7377 L72.46094,856.8885 L72.65625,929.4818 L72.85156,931.8555 L73.04688,926.8914 L73.24219,913.6434 L73.4375,925.93 L73.63281,803.2474 L73.82813,898.6326 L74.02344,935.6967 L74.21875,926.5234 L74.41406,918.1769 L74.60938,919.6719 L74.80469,919.3777 L75,925.4772 L75.19531,912.4699 L75.39063,926.5038 L75.58594,918.0573 L75.78125,917.5198 L75.97656,934.8378 L76.17188,926.1027 L76.36719,936.0287 L76.5625,909.3431 L76.75781,934.5696 L76.95313,929.0155 L77.14844,935.5834 L77.34375,933.2168 L77.53906,884.2088 L77.73438,920.4996 L77.92969,898.5945 L78.125,922.6889 L78.32031,936.0084 L78.51563,923.2188 L78.71094,921.1629 L78.90625,927.8227 L79.10156,830.7133 L79.29688,930.132 L79.49219,917.1944 L79.6875,873.2294 L79.88281,928.4071 L80.07813,938.688 L80.27344,939.1335 L80.46875,937.777 L80.66406,928.1666 L80.85938,927.7852 L81.05469,927.0586 L81.25,925.5432 L81.44531,926.9239 L81.64063,907.4019 L81.83594,916.5864 L82.03125,940.2143 L82.22656,923.389 L82.42188,869.8436 L82.61719,946.3868 L82.8125,930.856 L83.00781,938.5832 L83.20313,919.8091 L83.39844,914.4406 L83.59375,899.2829 L83.78906,945.3134 L83.98438,869.2222 L84.17969,931.4524 L84.375,923.2406 L84.57031,941.7489 L84.76563,919.3008 L84.96094,925.1343 L85.15625,935.9403 L85.35156,939.2936 L85.54688,905.9238 L85.74219,927.4097 L85.9375,923.9833 L86.13281,929.858 L86.32813,912.1264 L86.52344,927.9321 L86.71875,920.3074 L86.91406,922.8179 L87.10938,921.868 L87.30469,897.8104 L87.5,920.9009 L87.69531,919.9844 L87.89063,937.9933 L88.08594,898.5909 L88.28125,925.2733 L88.47656,911.1748 L88.67188,937.278 L88.86719,928.2792 L89.0625,919.8765 L89.25781,917.9765 L89.45313,908.7079 L89.64844,923.9252 L89.84375,892.016 L90.03906,911.976 L90.23438,928.7739 L90.42969,910.9847 L90.625,941.9741 L90.82031,937.6897 L91.01563,851.1268 L91.21094,916.0017 L91.40625,904.1539 L91.60156,935.6157 L91.79688,916.9184 L91.99219,903.3545 L92.1875,925.2922 L92.38281,922.1972 L92.57813,898.7 L92.77344,930.1086 L92.96875,919.3493 L93.16406,944.4699 L93.35938,921.5937 L93.55469,919.4662 L93.75,899.1576 L93.94531,934.6786 L94.14063,938.2286 L94.33594,942.8038 L94.53125,927.5412 L94.72656,933.3226 L94.92188,923.0553 L95.11719,937.0192 L95.3125,913.8344 L95.50781,907.3382 L95.70313,923.4639 L95.89844,889.2993 L96.09375,883.3509 L96.28906,887.9418 L96.48438,896.1251 L96.67969,929.4536 L96.875,891.3592 L97.07031,924.7014 L97.26563,921.2927 L97.46094,901.9314 L97.65625,927.0668 L97.85156,864.6229 L98.04688,914.436 L98.24219,934.4144 L98.4375,918.9476 L98.63281,922.8157 L98.82813,931.2983 L99.02344,922.1325 L99.21875,922.1189 L99.41406,865.326 L99.60938,920.3245 L99.80469,937.3533 L100,940.2685 L100.1953,922.5209 L100.3906,921.2638 L100.5859,935.2192 L100.7813,896.2149 L100.9766,923.9056 L101.1719,933.9464 L101.3672,922.1973 L101.5625,919.5016 L101.7578,931.7283 L101.9531,912.8517 L102.1484,909.8923 L102.3438,910.4327 L102.5391,916.5637 L102.7344,924.2899 L102.9297,921.2122 L103.125,922.8929 L103.3203,927.1868 L103.5156,925.9575 L103.7109,924.6948 L103.9063,931.9859 L104.1016,922.121 L104.2969,917.9144 L104.4922,932.7144 L104.6875,919.2671 L104.8828,925.5798 L105.0781,929.8967 L105.2734,902.4506 L105.4688,885.6287 L105.6641,916.6944 L105.8594,925.6854 L106.0547,927.2535 L106.25,890.538 L106.4453,936.8436 L106.6406,931.9399 L106.8359,935.2006 L107.0313,925.4887 L107.2266,926.4753 L107.4219,932.9946 L107.6172,917.2486 L107.8125,923.7961 L108.0078,889.438 L108.2031,927.8247 L108.3984,925.5374 L108.5938,933.1923 L108.7891,909.6761 L108.9844,936.4922 L109.1797,889.2575 L109.375,918.9744 L109.5703,911.1126 L109.7656,932.0825 L109.9609,925.157 L110.1563,913.8663 L110.3516,926.2017 L110.5469,908.4027 L110.7422,911.1375 L110.9375,925.4341 L111.1328,920.8502 L111.3281,920.5386 L111.5234,933.7299 L111.7188,909.8616 L111.9141,911.6688 L112.1094,916.0229 L112.3047,917.1613 L112.5,944.6767 L112.6953,916.8984 L112.8906,936.9022 L113.0859,915.9917 L113.2813,924.9839 L113.4766,924.3216 L113.6719,911.1739 L113.8672,930.499 L114.0625,927.3936 L114.2578,916.8087 L114.4531,923.8367 L114.6484,925.166 L114.8438,920.6385 L115.0391,918.5325 L115.2344,915.6726 L115.4297,935.0486 L115.625,929.8815 L115.8203,916.7799 L116.0156,906.1144 L116.2109,932.2728 L116.4063,919.7795 L116.6016,924.1343 L116.7969,935.0319 L116.9922,920.0145 L117.1875,943.0726 L117.3828,931.1028 L117.5781,908.7181 L117.7734,917.7757 L117.9688,928.059 L118.1641,930.9713 L118.3594,941.5248 L118.5547,929.0505 L118.75,923.0302 L118.9453,929.8795 L119.1406,914.17 L119.3359,903.1622 L119.5313,923.1013 L119.7266,924.8566 L119.9219,928.0778 L120.1172,925.1684 L120.3125,932.0447 L120.5078,933.0865 L120.7031,915.0224 L120.8984,944.83 L121.0938,903.876 L121.2891,915.1497 L121.4844,944.1837 L121.6797,905.4246 L121.875,915.6259 L122.0703,942.5597 L122.2656,911.2274 L122.4609,927.9091 L122.6563,930.7755 L122.8516,913.366 L123.0469,908.5061 L123.2422,909.1904 L123.4375,944.7877 L123.6328,922.5712 L123.8281,934.6447 L124.0234,930.6207 L124.2188,917.981 L124.4141,924.3637 L124.6094,879.8407 L124.8047,930.6666 L125,913.0328 L125.1953,887.6642 L125.3906,915.1185 L125.5859,854.0154 L125.7813,915.5975 L125.9766,927.9176 L126.1719,909.4904 L126.3672,922.683 L126.5625,930.7379 L126.7578,927.6066 L126.9531,927.3539 L127.1484,925.0543 L127.3438,933.5486 L127.5391,870.2488 L127.7344,939.4618 L127.9297,940.7275 L128.125,924.1363 L128.3203,888.653 L128.5156,915.3187 L128.7109,924.688 L128.9063,924.4952 L129.1016,918.179 L129.2969,923.333 L129.4922,922.8119 L129.6875,883.8693 L129.8828,925.0591 L130.0781,925.1255 L130.2734,912.2642 L130.4688,933.4321 L130.6641,923.6432 L130.8594,940.5388 L131.0547,924.219 L131.25,920.9816 L131.4453,921.6422 L131.6406,923.6073 L131.8359,913.581 L132.0313,935.4375 L132.2266,923.263 L132.4219,877.4986 L132.6172,918.5754 L132.8125,930.3701 L133.0078,936.8881 L133.2031,913.3071 L133.3984,928.0275 L133.5938,926.7642 L133.7891,909.8553 L133.9844,917.9728 L134.1797,926.5696 L134.375,927.9106 L134.5703,933.731 L134.7656,937.8409 L134.9609,925.0203 L135.1563,925.868 L135.3516,925.1186 L135.5469,925.5975 L135.7422,920.1646 L135.9375,931.2692 L136.1328,916.3849 L136.3281,943.4566 L136.5234,889.3108 L136.7188,932.7943 L136.9141,921.696 L137.1094,911.8144 L137.3047,913.346 L137.5,929.1374 L137.6953,928.4271 L137.8906,897.2123 L138.0859,934.537 L138.2813,931.8131 L138.4766,903.8239 L138.6719,940.7713 L138.8672,860.5173 L139.0625,928.5519 L139.2578,918.002 L139.4531,919.1943 L139.6484,913.2638 L139.8438,932.5099 L140.0391,922.2328 L140.2344,927.5573 L140.4297,893.5139 L140.625,937.8572 L140.8203,934.6821 L141.0156,930.1545 L141.2109,923.7031 L141.4063,871.4531 L141.6016,939.4856 L141.7969,924.858 L141.9922,932.0888 L142.1875,924.8391 L142.3828,933.0717 L142.5781,898.9741 L142.7734,934.504 L142.9688,912.9995 L143.1641,916.3835 L143.3594,915.2991 L143.5547,920.5612 L143.75,922.1265 L143.9453,912.9598 L144.1406,925.7915 L144.3359,925.2089 L144.5313,886.3176 L144.7266,908.4523 L144.9219,933.4169 L145.1172,918.3751 L145.3125,913.5977 L145.5078,863.4963 L145.7031,931.3201 L145.8984,897.3604 L146.0938,921.2493 L146.2891,865.9709 L146.4844,919.1804 L146.6797,924.0668 L146.875,905.3822 L147.0703,930.5961 L147.2656,913.2432 L147.4609,921.1007 L147.6563,924.6519 L147.8516,927.6835 L148.0469,936.7857 L148.2422,930.7336 L148.4375,927.6238 L148.6328,941.0811 L148.8281,918.2642 L149.0234,928.5721 L149.2188,934.0918 L149.4141,921.1042 L149.6094,930.8529 L149.8047,928.0294 L150,929.0368 L150.1953,923.8704 L150.3906,926.0948 L150.5859,863.4805 L150.7813,946.9456 L150.9766,922.5362 L151.1719,905.3763 L151.3672,914.5673 L151.5625,929.8258 L151.7578,915.58 L151.9531,936.1955 L152.1484,918.1957 L152.3438,905.9186 L152.5391,921.6961 L152.7344,792.5386 L152.9297,913.4749 L153.125,936.5865 L153.3203,926.6143 L153.5156,929.5425 L153.7109,918.9609 L153.9063,922.9934 L154.1016,938.5487 L154.2969,928.574 L154.4922,865.1591 L154.6875,913.8855 L154.8828,929.1528 L155.0781,924.7648 L155.2734,927.6204 L155.4688,926.4114 L155.6641,900.5285 L155.8594,923.6003 L156.0547,932.7551 L156.25,929.48 L156.4453,914.7281 L156.6406,908.3918 L156.8359,919.8632 L157.0313,908.6369 L157.2266,916.1599 L157.4219,923.6452 L157.6172,930.3058 L157.8125,899.4755 L158.0078,921.4381 L158.2031,932.3371 L158.3984,929.5249 L158.5938,926.1114 L158.7891,914.9297 L158.9844,919.4243 L159.1797,928.7977 L159.375,920.4992 L159.5703,939.3179 L159.7656,922.3906 L159.9609,893.4667 L160.1563,911.1909 L160.3516,933.2374 L160.5469,915.9251 L160.7422,928.6157 L160.9375,909.6931 L161.1328,917.1796 L161.3281,852.5551 L161.5234,929.3404 L161.7188,913.0195 L161.9141,918.7932 L162.1094,937.714 L162.3047,922.2736 L162.5,934.0812 L162.6953,924.8025 L162.8906,890.9998 L163.0859,925.7045 L163.2813,935.1462 L163.4766,900.4567 L163.6719,929.0672 L163.8672,935.5562 L164.0625,919.0798 L164.2578,903.3589 L164.4531,929.4802 L164.6484,917.6745 L164.8438,911.735 L165.0391,906.7747 L165.2344,913.9053 L165.4297,923.7824 L165.625,898.4795 L165.8203,939.4535 L166.0156,938.5538 L166.2109,919.0726 L166.4063,926.4777 L166.6016,908.3217 L166.7969,924.0171 L166.9922,872.0114 L167.1875,917.6085 L167.3828,935.3413 L167.5781,805.5797 L167.7734,913.6792 L167.9688,913.4142 L168.1641,918.4368 L168.3594,922.8339 L168.5547,932.7399 L168.75,930.6375 L168.9453,932.9068 L169.1406,915.0829 L169.3359,928.4935 L169.5313,918.1797 L169.7266,869.6763 L169.9219,930.4903 L170.1172,930.4572 L170.3125,928.09 L170.5078,891.3937 L170.7031,916.7092 L170.8984,917.3015 L171.0938,893.8154 L171.2891,920.0316 L171.4844,919.4309 L171.6797,919.3384 L171.875,928.9512 L172.0703,924.8934 L172.2656,925.4611 L172.4609,943.4283 L172.6563,880.4813 L172.8516,926.8692 L173.0469,935.2886 L173.2422,943.6626 L173.4375,918.0829 L173.6328,930.6567 L173.8281,933.0544 L174.0234,923.7184 L174.2188,901.3865 L174.4141,922.6776 L174.6094,919.4076 L174.8047,937.1696 L175,878.2119 L175.1953,918.0621 L175.3906,924.9886 L175.5859,894.7803 L175.7813,926.2963 L175.9766,922.3001 L176.1719,933.5541 L176.3672,913.7928 L176.5625,932.6218 L176.7578,925.5775 L176.9531,891.7676 L177.1484,922.4747 L177.3438,915.7528 L177.5391,868.5924 L177.7344,932.3546 L177.9297,918.8246 L178.125,926.2852 L178.3203,797.1033 L178.5156,914.8182 L178.7109,926.7429 L178.9063,913.7726 L179.1016,920.2955 L179.2969,884.1268 L179.4922,937.099 L179.6875,914.6348 L179.8828,884.0943 L180.0781,926.9767 L180.2735,920.8596 L180.4688,922.3199 L180.6641,914.264 L180.8594,884.0318 L181.0547,913.2984 L181.25,863.366 L181.4453,936.0916 L181.6406,930.7726 L181.8359,908.4312 L182.0313,934.5803 L182.2266,841.374 L182.4219,923.131 L182.6172,920.755 L182.8125,914.8944 L183.0078,926.8328 L183.2031,904.9234 L183.3984,922.1242 L183.5938,933.6467 L183.7891,930.6843 L183.9844,916.5248 L184.1797,924.0065 L184.375,928.9473 L184.5703,903.0814 L184.7656,924.5028 L184.9609,907.1267 L185.1563,892.0718 L185.3516,913.8647 L185.5469,935.2181 L185.7422,932.9454 L185.9375,922.0332 L186.1328,921.9388 L186.3281,928.1021 L186.5234,913.6125 L186.7188,930.1974 L186.9141,924.4568 L187.1094,914.5009 L187.3047,927.1058 L187.5,920.6982 L187.6953,916.1439 L187.8906,908.2196 L188.086,918.8708 L188.2813,927.3909 L188.4766,926.2012 L188.6719,924.3853 L188.8672,907.5736 L189.0625,911.0122 L189.2578,928.3665 L189.4531,907.2175 L189.6484,915.1638 L189.8438,914.1102 L190.0391,927.0723 L190.2344,916.1423 L190.4297,927.355 L190.625,931.5873 L190.8203,918.9249 L191.0156,940.8005 L191.2109,933.4673 L191.4063,933.6132 L191.6016,928.5166 L191.7969,898.1927 L191.9922,920.0334 L192.1875,923.0135 L192.3828,930.2276 L192.5781,930.4838 L192.7734,926.9472 L192.9688,937.5921 L193.1641,922.8341 L193.3594,915.595 L193.5547,931.5009 L193.75,918.5804 L193.9453,923.7708 L194.1406,922.9603 L194.3359,922.3223 L194.5313,932.7858 L194.7266,926.8296 L194.9219,932.2023 L195.1172,937.1067 L195.3125,931.955 L195.5078,935.9308 L195.7031,917.8157 L195.8985,912.5695 L196.0938,907.4794 L196.2891,917.2441 L196.4844,924.1947 L196.6797,878.097 L196.875,914.4399 L197.0703,918.7924 L197.2656,926.0196 L197.4609,900.4603 L197.6563,924.8723 L197.8516,873.0082 L198.0469,934.2663 L198.2422,937.1454 L198.4375,922.7306 L198.6328,930.2852 L198.8281,935.6589 L199.0234,906.3685 L199.2188,942.757 L199.4141,917.8446 L199.6094,925.6352 L199.8047,932.8771 L200,940.2106 L200.1953,903.0903 L200.3906,931.5161 L200.5859,923.0726 L200.7813,937.7669 L200.9766,921.7719 L201.1719,942.1755 L201.3672,918.4508 L201.5625,913.6675 L201.7578,890.4497 L201.9531,922.1175 L202.1484,932.6392 L202.3438,932.2994 L202.5391,905.1887 L202.7344,889.3577 L202.9297,854.0486 L203.125,943.402 L203.3203,882.8486 L203.5156,923.0244 L203.711,926.7554 L203.9063,935.3096 L204.1016,941.0811 L204.2969,921.0917 L204.4922,920.5253 L204.6875,879.6556 L204.8828,932.4412 L205.0781,930.5818 L205.2734,917.8137 L205.4688,918.5486 L205.6641,931.85 L205.8594,934.9781 L206.0547,933.5469 L206.25,926.3561 L206.4453,861.8486 L206.6406,837.2707 L206.8359,928.8752 L207.0313,924.2946 L207.2266,919.9232 L207.4219,906.724 L207.6172,924.6399 L207.8125,934.7267 L208.0078,931.3594 L208.2031,909.1572 L208.3984,932.7535 L208.5938,864.272 L208.7891,921.2043 L208.9844,873.4183 L209.1797,933.999 L209.375,911.8752 L209.5703,915.3309 L209.7656,908.5264 L209.9609,917.5393 L210.1563,942.093 L210.3516,942.627 L210.5469,922.062 L210.7422,935.6428 L210.9375,928.4493 L211.1328,933.6837 L211.3281,897.0707 L211.5235,907.9056 L211.7188,935.076 L211.9141,932.5082 L212.1094,933.2916 L212.3047,929.6061 L212.5,936.2636 L212.6953,915.9335 L212.8906,915.9296 L213.0859,912.0653 L213.2813,925.4418 L213.4766,928.4762 L213.6719,942.8901 L213.8672,931.7737 L214.0625,920.103 L214.2578,929.6521 L214.4531,932.3506 L214.6484,930.2513 L214.8438,930.5389 L215.0391,925.981 L215.2344,870.6511 L215.4297,921.7075 L215.625,923.9707 L215.8203,922.4265 L216.0156,916.7523 L216.2109,927.138 L216.4063,874.636 L216.6016,924.4139 L216.7969,929.8286 L216.9922,883.9778 L217.1875,936.0789 L217.3828,922.9472 L217.5781,919.7013 L217.7734,917.6691 L217.9688,915.1909 L218.1641,926.0916 L218.3594,930.8407 L218.5547,917.905 L218.75,915.9975 L218.9453,920.4506 L219.1406,933.343 L219.336,917.0364 L219.5313,930.1788 L219.7266,939.2864 L219.9219,905.4928 L220.1172,929.8896 L220.3125,930.4113 L220.5078,925.298 L220.7031,916.9404 L220.8984,906.536 L221.0938,910.0958 L221.2891,933.6222 L221.4844,880.6732 L221.6797,924.9273 L221.875,937.7785 L222.0703,930.8717 L222.2656,919.588 L222.4609,912.1267 L222.6563,915.9979 L222.8516,913.1506 L223.0469,910.8824 L223.2422,929.0571 L223.4375,925.8278 L223.6328,927.6868 L223.8281,928.0452 L224.0234,916.8875 L224.2188,931.1075 L224.4141,909.7184 L224.6094,925.867 L224.8047,933.3333 L225,922.8445 L225.1953,920.4896 L225.3906,917.9825 L225.5859,937.393 L225.7813,915.1659 L225.9766,909.8197 L226.1719,910.9583 L226.3672,920.243 L226.5625,917.0901 L226.7578,902.7147 L226.9531,914.7157 L227.1485,936.9528 L227.3438,938.6614 L227.5391,926.2622 L227.7344,899.7687 L227.9297,908.9409 L228.125,932.2734 L228.3203,909.9831 L228.5156,919.284 L228.7109,920.4049 L228.9063,932.7883 L229.1016,894.5676 L229.2969,927.4592 L229.4922,905.4683 L229.6875,920.2184 L229.8828,925.7979 L230.0781,940.8635 L230.2734,912.1814 L230.4688,936.8185 L230.6641,920.333 L230.8594,920.3025 L231.0547,899.4529 L231.25,935.1389 L231.4453,925.2484 L231.6406,923.5361 L231.8359,917.0043 L232.0313,926.0162 L232.2266,876.0742 L232.4219,924.8059 L232.6172,915.5411 L232.8125,907.3151 L233.0078,901.2531 L233.2031,929.8062 L233.3984,909.686 L233.5938,926.9925 L233.7891,918.8757 L233.9844,918.7624 L234.1797,931.7593 L234.375,925.631 L234.5703,896.1804 L234.7656,921.0986 L234.961,925.2974 L235.1563,920.0383 L235.3516,925.9823 L235.5469,922.1194 L235.7422,921.1311 L235.9375,883.2482 L236.1328,923.8495 L236.3281,924.9818 L236.5234,923.7108 L236.7188,932.2286 L236.9141,933.9872 L237.1094,930.9536 L237.3047,924.3076 L237.5,932.7239 L237.6953,930.6872 L237.8906,895.4537 L238.0859,925.4525 L238.2813,929.743 L238.4766,940.7428 L238.6719,876.2375 L238.8672,926.8443 L239.0625,930.1821 L239.2578,917.8206 L239.4531,914.4988 L239.6484,917.9424 L239.8438,936.5653 L240.0391,917.5742 L240.2344,920.7012 L240.4297,934.723 L240.625,917.3495 L240.8203,933.1171 L241.0156,934.7826 L241.2109,917.8151 L241.4063,943.3069 L241.6016,927.0258 L241.7969,885.293 L241.9922,918.9671 L242.1875,889.7581 L242.3828,938.3848 L242.5781,920.6298 L242.7735,932.0875 L242.9688,933.8334 L243.1641,924.1819 L243.3594,938.49 L243.5547,927.5482 L243.75,930.2708 L243.9453,906.1336 L244.1406,925.539 L244.3359,905.9038 L244.5313,913.7337 L244.7266,932.3793 L244.9219,924.9326 L245.1172,920.6744 L245.3125,923.7143 L245.5078,932.4661 L245.7031,932.5704 L245.8984,918.4742 L246.0938,934.936 L246.2891,926.5701 L246.4844,924.6934 L246.6797,923.6241 L246.875,905.4907 L247.0703,906.4958 L247.2656,928.3046 L247.4609,750 L247.6563,922.9346 L247.8516,942.6707 L248.0469,919.1899 L248.2422,922.7179 L248.4375,926.4125 L248.6328,923.1385 L248.8281,941.9356 L249.0234,925.4571 L249.2188,921.4957 L249.4141,915.8317 L249.6094,910.9065 L249.8047,926.68 L250,920.2547 L250.1953,921.4876 L250.3906,919.9368 L250.586,937.366 L250.7813,936.1041 L250.9766,855.7161 L251.1719,867.0092 L251.3672,849.4093 L251.5625,924.6617 L251.7578,929.4492 L251.9531,918.3829 L252.1484,909.4416 L252.3438,915.2966 L252.5391,923.1395 L252.7344,932.0898 L252.9297,922.4307 L253.125,925.6497 L253.3203,920.0546 L253.5156,892.9605 L253.7109,915.9783 L253.9063,919.1962 L254.1016,927.4343 L254.2969,928.2272 L254.4922,915.697 L254.6875,929.0502 L254.8828,928.9355 L255.0781,917.7609 L255.2734,924.091 L255.4688,916.0028 L255.6641,925.5008 L255.8594,923.149 L256.0547,919.2729 L256.25,929.1732 L256.4453,931.8766 L256.6406,930.6772 L256.8359,925.698 L257.0313,929.1279 L257.2266,935.0017 L257.4219,928.136 L257.6172,921.1653 L257.8125,914.4927 L258.0078,924.0953 L258.2031,937.3987 L258.3984,938.8458 L258.5938,933.0465 L258.7891,923.3733 L258.9844,927.4493 L259.1797,923.0964 L259.375,859.2573 L259.5703,928.4247 L259.7656,931.3785 L259.9609,931.1318 L260.1563,929.4476 L260.3516,923.0068 L260.5469,922.5284 L260.7422,912.5304 L260.9375,886.4838 L261.1328,922.5596 L261.3281,916.1731 L261.5234,927.299 L261.7188,902.6215 L261.9141,900.9429 L262.1094,931.225 L262.3047,934.7668 L262.5,912.5021 L262.6953,940.3386 L262.8906,880.7734 L263.0859,901.3354 L263.2813,921.5885 L263.4766,919.6735 L263.6719,932.9526 L263.8672,907.1093 L264.0625,932.3295 L264.2578,903.2274 L264.4531,926.7514 L264.6484,944.6572 L264.8438,907.5388 L265.0391,934.8765 L265.2344,918.6672 L265.4297,931.9627 L265.625,929.8979 L265.8203,896.9156 L266.0156,903.322 L266.2109,910.2191 L266.4063,929.9565 L266.6016,915.1915 L266.7969,904.0861 L266.9922,928.0523 L267.1875,923.3771 L267.3828,926.6564 L267.5781,927.2303 L267.7734,912.5 L267.9688,937.4451 L268.1641,921.3438 L268.3594,927.9437 L268.5547,884.626 L268.75,916.5388 L268.9453,898.0169 L269.1406,876.8369 L269.3359,933.4494 L269.5313,911.3497 L269.7266,932.9982 L269.9219,920.2224 L270.1172,923.8163 L270.3125,914.2955 L270.5078,924.073 L270.7031,945.7296 L270.8984,924.3617 L271.0938,922.0359 L271.2891,938.8621 L271.4844,867.4484 L271.6797,925.8541 L271.875,933.9152 L272.0703,930.0611 L272.2656,920.0972 L272.4609,850.2032 L272.6563,918.9802 L272.8516,922.5367 L273.0469,928.563 L273.2422,917.5612 L273.4375,932.1772 L273.6328,939.5956 L273.8281,924.3605 L274.0234,870.0655 L274.2188,929.5201 L274.4141,918.975 L274.6094,934.5144 L274.8047,922.8708 L275,922.5219 L275.1953,924.2452 L275.3906,921.7905 L275.5859,922.1569 L275.7813,921.2122 L275.9766,920.9968 L276.1719,923.0567 L276.3672,935.3616 L276.5625,813.6712 L276.7578,940.8583 L276.9531,929.9368 L277.1484,934.9451 L277.3438,890.6246 L277.5391,921.4888 L277.7344,912.0641 L277.9297,884.7223 L278.125,926.6679 L278.3203,909.924 L278.5156,845.856 L278.7109,933.8629 L278.9063,925.7246 L279.1016,924.3004 L279.2969,917.3895 L279.4922,932.0166 L279.6875,930.722 L279.8828,902.0469 L280.0781,923.5014 L280.2734,930.8133 L280.4688,887.2571 L280.6641,917.4563 L280.8594,928.0674 L281.0547,925.347 L281.25,921.9183 L281.4453,913.4224 L281.6406,925.2477 L281.8359,909.3174 L282.0313,916.7406 L282.2266,923.9439 L282.4219,904.0153 L282.6172,923.981 L282.8125,928.1556 L283.0078,922.4963 L283.2031,927.1145 L283.3984,916.2852 L283.5938,929.6076 L283.7891,895.2091 L283.9844,921.5768 L284.1797,927.8511 L284.375,920.379 L284.5703,936.6821 L284.7656,931.6858 L284.9609,931.6552 L285.1563,924.9272 L285.3516,853.1981 L285.5469,920.0414 L285.7422,917.6727 L285.9375,906.2283 L286.1328,933.7799 L286.3281,844.4325 L286.5234,928.5402 L286.7188,925.3685 L286.9141,925.5298 L287.1094,933.208 L287.3047,926.1124 L287.5,939.7333 L287.6953,934.9074 L287.8906,933.1508 L288.0859,921.2843 L288.2813,924.5622 L288.4766,922.2756 L288.6719,935.7551 L288.8672,932.4733 L289.0625,928.1008 L289.2578,923.4664 L289.4531,918.2241 L289.6484,930.4865 L289.8438,904.3935 L290.0391,898.9059 L290.2344,919.1969 L290.4297,917.4795 L290.625,909.6376 L290.8203,931.6593 L291.0156,904.4156 L291.2109,919.2323 L291.4063,928.6459 L291.6016,944.0456 L291.7969,930.0446 L291.9922,924.5897 L292.1875,901.0646 L292.3828,881.8467 L292.5781,922.9891 L292.7734,918.2801 L292.9688,892.8357 L293.1641,915.0016 L293.3594,933.1007 L293.5547,922.5536 L293.75,914.9816 L293.9453,927.2662 L294.1406,924.18 L294.3359,915.5911 L294.5313,880.203 L294.7266,932.884 L294.9219,918.137 L295.1172,891.1193 L295.3125,929.8004 L295.5078,919.5081 L295.7031,936.6694 L295.8984,877.0575 L296.0938,916.5486 L296.2891,933.0945 L296.4844,917.3367 L296.6797,921.4483 L296.875,901.7342 L297.0703,909.615 L297.2656,928.9691 L297.4609,918.9829 L297.6563,919.0524 L297.8516,905.4156 L298.0469,920.0989 L298.2422,932.8064 L298.4375,918.5886 L298.6328,911.4238 L298.8281,922.563 L299.0234,913.083 L299.2188,917.7635 L299.4141,924.6152 L299.6094,937.2231 L299.8047,923.0688 L300,930.2164 L300.1953,929.8346 L300.3906,928.1673 L300.5859,940.23 L300.7813,919.9714 L300.9766,931.624 L301.1719,925.0773 L301.3672,929.3703 L301.5625,928.0947 L301.7578,873.5769 L301.9531,874.3776 L302.1484,913.6986 L302.3438,920.5665 L302.5391,886.0313 L302.7344,930.0601 L302.9297,928.5423 L303.125,936.7189 L303.3203,928.2581 L303.5156,913.3807 L303.711,912.909 L303.9063,918.8043 L304.1016,930.12 L304.2969,922.6851 L304.4922,929.6736 L304.6875,876.2786 L304.8828,863.129 L305.0781,925.4337 L305.2734,923.8464 L305.4688,928.6676 L305.6641,910.8923 L305.8594,923.7885 L306.0547,919.9122 L306.25,938.2466 L306.4453,899.3102 L306.6407,915.811 L306.8359,918.2347 L307.0313,918.1525 L307.2266,934.9391 L307.4219,914.7928 L307.6172,911.5873 L307.8125,930.4269 L308.0078,924.4827 L308.2031,933.8046 L308.3984,931.353 L308.5938,923.7104 L308.7891,903.375 L308.9844,917.9181 L309.1797,926.0999 L309.375,926.6845 L309.5703,891.9918 L309.7656,917.7162 L309.9609,881.0929 L310.1563,917.8794 L310.3516,884.6252 L310.5469,915.0225 L310.7422,930.3249 L310.9375,917.7438 L311.1328,925.3917 L311.3281,912.8843 L311.5235,923.0357 L311.7188,878.1856 L311.9141,922.3919 L312.1094,916.6702 L312.3047,928.1624 L312.5,916.5433 L312.6953,912.8839 L312.8906,936.6127 L313.0859,927.683 L313.2813,932.8171 L313.4766,911.1041 L313.6719,921.277 L313.8672,926.5937 L314.0625,927.9224 L314.2578,928.0397 L314.4532,921.8043 L314.6484,931.3143 L314.8438,927.3477 L315.0391,931.7437 L315.2344,938.523 L315.4297,938.3992 L315.625,925.405 L315.8203,924.8041 L316.0156,927.5746 L316.2109,923.0711 L316.4063,927.5201 L316.6016,927.0229 L316.7969,940.7178 L316.9922,926.7293 L317.1875,913.5209 L317.3828,917.8012 L317.5781,874.6785 L317.7734,921.6215 L317.9688,932.4644 L318.1641,918.957 L318.3594,934.5835 L318.5547,921.7693 L318.75,925.8783 L318.9453,916.7621 L319.1406,901.3395 L319.336,923.718 L319.5313,907.59 L319.7266,932.6346 L319.9219,843.4418 L320.1172,917.0598 L320.3125,855.628 L320.5078,923.2795 L320.7031,927.8801 L320.8984,922.3484 L321.0938,935.4341 L321.2891,926.2944 L321.4844,919.6648 L321.6797,913.0078 L321.875,921.0453 L322.0703,918.8738 L322.2657,917.0613 L322.4609,916.2278 L322.6563,919.2016 L322.8516,936.2507 L323.0469,926.1641 L323.2422,932.7952 L323.4375,931.4913 L323.6328,924.3404 L323.8281,909.4352 L324.0234,928.8019 L324.2188,909.1283 L324.4141,914.3406 L324.6094,920.7432 L324.8047,931.5414 L325,915.2776 L325.1953,926.6842 L325.3906,928.0845 L325.5859,927.1246 L325.7813,930.7091 L325.9766,906.2286 L326.1719,909.4788 L326.3672,930.0317 L326.5625,922.866 L326.7578,948.1633 L326.9531,932.5222 L327.1485,917.2771 L327.3438,918.9378 L327.5391,919.5535 L327.7344,928.9159 L327.9297,928.4802 L328.125,901.4373 L328.3203,930.441 L328.5156,931.2538 L328.7109,919.8767 L328.9063,915.7055 L329.1016,940.7927 L329.2969,934.0915 L329.4922,919.6426 L329.6875,922.0605 L329.8828,934.1129 L330.0782,916.7062 L330.2734,905.7089 L330.4688,922.4967 L330.6641,914.7668 L330.8594,917.0848 L331.0547,921.7559 L331.25,902.0354 L331.4453,927.5404 L331.6406,925.9229 L331.8359,925.9566 L332.0313,919.1512 L332.2266,923.4078 L332.4219,915.9311 L332.6172,925.9515 L332.8125,930.7635 L333.0078,858.2133 L333.2031,922.4847 L333.3984,927.8618 L333.5938,915.6577 L333.7891,899.2639 L333.9844,932.8045 L334.1797,919.3796 L334.375,917.2971 L334.5703,853.2682 L334.7656,920.0903 L334.961,928.11 L335.1563,924.8564 L335.3516,871.8983 L335.5469,914.9342 L335.7422,913.8292 L335.9375,915.293 L336.1328,918.1559 L336.3281,934.2504 L336.5234,922.5392 L336.7188,905.3303 L336.9141,922.1095 L337.1094,920.2365 L337.3047,921.3638 L337.5,914.3747 L337.6953,941.4878 L337.8907,907.2593 L338.0859,927.8935 L338.2813,925.1063 L338.4766,926.6976 L338.6719,925.6744 L338.8672,919.5973 L339.0625,933.6652 L339.2578,941.7707 L339.4531,910.4877 L339.6484,935.4927 L339.8438,915.9423 L340.0391,922.1274 L340.2344,920.367 L340.4297,919.1245 L340.625,926.1964 " stroke="blue" fill="none" />
<text x="50" y="1000" font-family="Arial" font-size="12" fill="black">Episode Length (1489)</text>
<text x="50" y="1015" font-family="Arial" font-size="10" fill="black">78</text>
<text x="50" y="1230" font-family="Arial" font-size="10" fill="black">16</text>
<path d="M50,1213.548 L50.19531,1203.871 L50.39063,1200.645 L50.58594,1194.194 L50.78125,1190.968 L50.97656,1190.968 L51.17188,1190.968 L51.36719,1187.742 L51.5625,1184.516 L51.75781,1181.29 L51.95313,1181.29 L52.14844,1178.065 L52.34375,1178.065 L52.53906,1178.065 L52.73438,1174.839 L52.92969,1171.613 L53.125,1142.581 L53.32031,1136.129 L53.51563,1136.129 L53.71094,1136.129 L53.90625,1213.548 L54.10156,1132.903 L54.29688,1174.839 L54.49219,1168.387 L54.6875,1174.839 L54.88281,1181.29 L55.07813,1187.742 L55.27344,1190.968 L55.46875,1174.839 L55.66406,1184.516 L55.85938,1181.29 L56.05469,1184.516 L56.25,1152.258 L56.44531,1152.258 L56.64063,1161.935 L56.83594,1197.419 L57.03125,1194.194 L57.22656,1145.806 L57.42188,1187.742 L57.61719,1174.839 L57.8125,1190.968 L58.00781,1090.968 L58.20313,1158.71 L58.39844,1194.194 L58.59375,1190.968 L58.78906,1184.516 L58.98438,1181.29 L59.17969,1132.903 L59.375,1178.065 L59.57031,1178.065 L59.76563,1171.613 L59.96094,1149.032 L60.15625,1178.065 L60.35156,1145.806 L60.54688,1178.065 L60.74219,1178.065 L60.9375,1158.71 L61.13281,1181.29 L61.32813,1184.516 L61.52344,1142.581 L61.71875,1168.387 L61.91406,1184.516 L62.10938,1187.742 L62.30469,1174.839 L62.5,1174.839 L62.69531,1178.065 L62.89063,1184.516 L63.08594,1184.516 L63.28125,1100.645 L63.47656,1145.806 L63.67188,1190.968 L63.86719,1136.129 L64.0625,1181.29 L64.25781,1178.065 L64.45313,1165.161 L64.64844,1168.387 L64.84375,1174.839 L65.03906,1126.452 L65.23438,1190.968 L65.42969,1171.613 L65.625,1174.839 L65.82031,1178.065 L66.01563,1136.129 L66.21094,1181.29 L66.40625,1184.516 L66.60156,1181.29 L66.79688,1181.29 L66.99219,1123.226 L67.1875,1184.516 L67.38281,1181.29 L67.57813,1171.613 L67.77344,1213.548 L67.96875,1187.742 L68.16406,1187.742 L68.35938,1129.677 L68.55469,1184.516 L68.75,1168.387 L68.94531,1174.839 L69.14063,1184.516 L69.33594,1168.387 L69.53125,1190.968 L69.72656,1187.742 L69.92188,1181.29 L70.11719,1184.516 L70.3125,1194.194 L70.50781,1174.839 L70.70313,1181.29 L70.89844,1181.29 L71.09375,1187.742 L71.28906,1181.29 L71.48438,1181.29 L71.67969,1174.839 L71.875,1165.161 L72.07031,1190.968 L72.26563,1190.968 L72.46094,1129.677 L72.65625,1187.742 L72.85156,1178.065 L73.04688,1174.839 L73.24219,1178.065 L73.4375,1184.516 L73.63281,1081.29 L73.82813,1126.452 L74.02344,1187.742 L74.21875,1187.742 L74.41406,1168.387 L74.60938,1181.29 L74.80469,1178.065 L75,1178.065 L75.19531,1145.806 L75.39063,1181.29 L75.58594,1155.484 L75.78125,1178.065 L75.97656,1194.194 L76.17188,1178.065 L76.36719,1190.968 L76.5625,1152.258 L76.75781,1187.742 L76.95313,1178.065 L77.14844,1190.968 L77.34375,1178.065 L77.53906,1126.452 L77.73438,1174.839 L77.92969,1136.129 L78.125,1174.839 L78.32031,1187.742 L78.51563,1181.29 L78.71094,1178.065 L78.90625,1187.742 L79.10156,1100.645 L79.29688,1171.613 L79.49219,1171.613 L79.6875,1139.355 L79.88281,1178.065 L80.07813,1194.194 L80.27344,1194.194 L80.46875,1197.419 L80.66406,1181.29 L80.85938,1184.516 L81.05469,1181.29 L81.25,1171.613 L81.44531,1178.065 L81.64063,1152.258 L81.83594,1145.806 L82.03125,1200.645 L82.22656,1168.387 L82.42188,1136.129 L82.61719,1213.548 L82.8125,1190.968 L83.00781,1197.419 L83.20313,1178.065 L83.39844,1174.839 L83.59375,1155.484 L83.78906,1197.419 L83.98438,1113.548 L84.17969,1187.742 L84.375,1171.613 L84.57031,1187.742 L84.76563,1178.065 L84.96094,1181.29 L85.15625,1190.968 L85.35156,1194.194 L85.54688,1171.613 L85.74219,1165.161 L85.9375,1178.065 L86.13281,1187.742 L86.32813,1158.71 L86.52344,1178.065 L86.71875,1174.839 L86.91406,1178.065 L87.10938,1161.935 L87.30469,1132.903 L87.5,1181.29 L87.69531,1178.065 L87.89063,1187.742 L88.08594,1139.355 L88.28125,1181.29 L88.47656,1168.387 L88.67188,1197.419 L88.86719,1184.516 L89.0625,1171.613 L89.25781,1178.065 L89.45313,1168.387 L89.64844,1181.29 L89.84375,1132.903 L90.03906,1168.387 L90.23438,1178.065 L90.42969,1161.935 L90.625,1194.194 L90.82031,1194.194 L91.01563,1103.871 L91.21094,1178.065 L91.40625,1149.032 L91.60156,1190.968 L91.79688,1168.387 L91.99219,1145.806 L92.1875,1181.29 L92.38281,1178.065 L92.57813,1152.258 L92.77344,1184.516 L92.96875,1174.839 L93.16406,1207.097 L93.35938,1178.065 L93.55469,1171.613 L93.75,1139.355 L93.94531,1194.194 L94.14063,1190.968 L94.33594,1203.871 L94.53125,1187.742 L94.72656,1187.742 L94.92188,1181.29 L95.11719,1190.968 L95.3125,1168.387 L95.50781,1174.839 L95.70313,1178.065 L95.89844,1152.258 L96.09375,1132.903 L96.28906,1129.677 L96.48438,1129.677 L96.67969,1184.516 L96.875,1136.129 L97.07031,1181.29 L97.26563,1178.065 L97.46094,1168.387 L97.65625,1184.516 L97.85156,1126.452 L98.04688,1155.484 L98.24219,1187.742 L98.4375,1168.387 L98.63281,1181.29 L98.82813,1178.065 L99.02344,1178.065 L99.21875,1178.065 L99.41406,1116.774 L99.60938,1184.516 L99.80469,1197.419 L100,1197.419 L100.1953,1178.065 L100.3906,1178.065 L100.5859,1181.29 L100.7813,1145.806 L100.9766,1174.839 L101.1719,1184.516 L101.3672,1181.29 L101.5625,1174.839 L101.7578,1187.742 L101.9531,1171.613 L102.1484,1168.387 L102.3438,1174.839 L102.5391,1181.29 L102.7344,1178.065 L102.9297,1161.935 L103.125,1158.71 L103.3203,1174.839 L103.5156,1184.516 L103.7109,1181.29 L103.9063,1187.742 L104.1016,1181.29 L104.2969,1178.065 L104.4922,1187.742 L104.6875,1181.29 L104.8828,1187.742 L105.0781,1187.742 L105.2734,1149.032 L105.4688,1129.677 L105.6641,1178.065 L105.8594,1178.065 L106.0547,1178.065 L106.25,1123.226 L106.4453,1187.742 L106.6406,1187.742 L106.8359,1190.968 L107.0313,1181.29 L107.2266,1181.29 L107.4219,1184.516 L107.6172,1178.065 L107.8125,1178.065 L108.0078,1126.452 L108.2031,1181.29 L108.3984,1181.29 L108.5938,1194.194 L108.7891,1174.839 L108.9844,1187.742 L109.1797,1139.355 L109.375,1168.387 L109.5703,1168.387 L109.7656,1187.742 L109.9609,1181.29 L110.1563,1165.161 L110.3516,1181.29 L110.5469,1142.581 L110.7422,1174.839 L110.9375,1181.29 L111.1328,1174.839 L111.3281,1171.613 L111.5234,1187.742 L111.7188,1152.258 L111.9141,1165.161 L112.1094,1168.387 L112.3047,1178.065 L112.5,1210.323 L112.6953,1171.613 L112.8906,1190.968 L113.0859,1178.065 L113.2813,1184.516 L113.4766,1187.742 L113.6719,1168.387 L113.8672,1184.516 L114.0625,1181.29 L114.2578,1174.839 L114.4531,1168.387 L114.6484,1178.065 L114.8438,1178.065 L115.0391,1168.387 L115.2344,1161.935 L115.4297,1187.742 L115.625,1178.065 L115.8203,1181.29 L116.0156,1168.387 L116.2109,1181.29 L116.4063,1171.613 L116.6016,1181.29 L116.7969,1178.065 L116.9922,1155.484 L117.1875,1200.645 L117.3828,1178.065 L117.5781,1129.677 L117.7734,1178.065 L117.9688,1184.516 L118.1641,1187.742 L118.3594,1174.839 L118.5547,1184.516 L118.75,1178.065 L118.9453,1187.742 L119.1406,1174.839 L119.3359,1145.806 L119.5313,1184.516 L119.7266,1171.613 L119.9219,1171.613 L120.1172,1181.29 L120.3125,1194.194 L120.5078,1184.516 L120.7031,1174.839 L120.8984,1213.548 L121.0938,1139.355 L121.2891,1152.258 L121.4844,1207.097 L121.6797,1171.613 L121.875,1168.387 L122.0703,1203.871 L122.2656,1171.613 L122.4609,1174.839 L122.6563,1181.29 L122.8516,1171.613 L123.0469,1152.258 L123.2422,1174.839 L123.4375,1210.323 L123.6328,1174.839 L123.8281,1181.29 L124.0234,1184.516 L124.2188,1171.613 L124.4141,1184.516 L124.6094,1120 L124.8047,1187.742 L125,1174.839 L125.1953,1132.903 L125.3906,1174.839 L125.5859,1120 L125.7813,1155.484 L125.9766,1178.065 L126.1719,1178.065 L126.3672,1178.065 L126.5625,1184.516 L126.7578,1184.516 L126.9531,1181.29 L127.1484,1187.742 L127.3438,1184.516 L127.5391,1132.903 L127.7344,1194.194 L127.9297,1181.29 L128.125,1181.29 L128.3203,1145.806 L128.5156,1165.161 L128.7109,1187.742 L128.9063,1181.29 L129.1016,1171.613 L129.2969,1178.065 L129.4922,1181.29 L129.6875,1126.452 L129.8828,1184.516 L130.0781,1178.065 L130.2734,1171.613 L130.4688,1171.613 L130.6641,1184.516 L130.8594,1197.419 L131.0547,1181.29 L131.25,1168.387 L131.4453,1168.387 L131.6406,1171.613 L131.8359,1168.387 L132.0313,1187.742 L132.2266,1174.839 L132.4219,1116.774 L132.6172,1174.839 L132.8125,1181.29 L133.0078,1190.968 L133.2031,1132.903 L133.3984,1171.613 L133.5938,1181.29 L133.7891,1168.387 L133.9844,1181.29 L134.1797,1168.387 L134.375,1184.516 L134.5703,1181.29 L134.7656,1194.194 L134.9609,1171.613 L135.1563,1178.065 L135.3516,1171.613 L135.5469,1184.516 L135.7422,1184.516 L135.9375,1184.516 L136.1328,1168.387 L136.3281,1203.871 L136.5234,1120 L136.7188,1187.742 L136.9141,1174.839 L137.1094,1145.806 L137.3047,1152.258 L137.5,1187.742 L137.6953,1181.29 L137.8906,1126.452 L138.0859,1187.742 L138.2813,1181.29 L138.4766,1139.355 L138.6719,1203.871 L138.8672,1100.645 L139.0625,1181.29 L139.2578,1171.613 L139.4531,1168.387 L139.6484,1168.387 L139.8438,1178.065 L140.0391,1165.161 L140.2344,1165.161 L140.4297,1145.806 L140.625,1203.871 L140.8203,1190.968 L141.0156,1184.516 L141.2109,1174.839 L141.4063,1120 L141.6016,1194.194 L141.7969,1181.29 L141.9922,1190.968 L142.1875,1181.29 L142.3828,1187.742 L142.5781,1142.581 L142.7734,1171.613 L142.9688,1168.387 L143.1641,1178.065 L143.3594,1171.613 L143.5547,1174.839 L143.75,1174.839 L143.9453,1168.387 L144.1406,1165.161 L144.3359,1184.516 L144.5313,1142.581 L144.7266,1174.839 L144.9219,1184.516 L145.1172,1174.839 L145.3125,1171.613 L145.5078,1078.065 L145.7031,1190.968 L145.8984,1145.806 L146.0938,1178.065 L146.2891,1120 L146.4844,1178.065 L146.6797,1178.065 L146.875,1126.452 L147.0703,1181.29 L147.2656,1161.935 L147.4609,1171.613 L147.6563,1184.516 L147.8516,1184.516 L148.0469,1190.968 L148.2422,1184.516 L148.4375,1178.065 L148.6328,1210.323 L148.8281,1181.29 L149.0234,1178.065 L149.2188,1187.742 L149.4141,1181.29 L149.6094,1184.516 L149.8047,1184.516 L150,1184.516 L150.1953,1174.839 L150.3906,1171.613 L150.5859,1126.452 L150.7813,1216.774 L150.9766,1181.29 L151.1719,1155.484 L151.3672,1171.613 L151.5625,1187.742 L151.7578,1174.839 L151.9531,1190.968 L152.1484,1181.29 L152.3438,1165.161 L152.5391,1174.839 L152.7344,1061.935 L152.9297,1171.613 L153.125,1194.194 L153.3203,1181.29 L153.5156,1184.516 L153.7109,1181.29 L153.9063,1171.613 L154.1016,1194.194 L154.2969,1181.29 L154.4922,1120 L154.6875,1178.065 L154.8828,1171.613 L155.0781,1181.29 L155.2734,1171.613 L155.4688,1187.742 L155.6641,1139.355 L155.8594,1181.29 L156.0547,1187.742 L156.25,1184.516 L156.4453,1171.613 L156.6406,1142.581 L156.8359,1171.613 L157.0313,1158.71 L157.2266,1174.839 L157.4219,1174.839 L157.6172,1178.065 L157.8125,1139.355 L158.0078,1178.065 L158.2031,1174.839 L158.3984,1187.742 L158.5938,1181.29 L158.7891,1168.387 L158.9844,1181.29 L159.1797,1181.29 L159.375,1165.161 L159.5703,1197.419 L159.7656,1181.29 L159.9609,1126.452 L160.1563,1174.839 L160.3516,1190.968 L160.5469,1155.484 L160.7422,1174.839 L160.9375,1158.71 L161.1328,1174.839 L161.3281,1129.677 L161.5234,1184.516 L161.7188,1174.839 L161.9141,1171.613 L162.1094,1197.419 L162.3047,1174.839 L162.5,1187.742 L162.6953,1181.29 L162.8906,1132.903 L163.0859,1178.065 L163.2813,1187.742 L163.4766,1136.129 L163.6719,1178.065 L163.8672,1187.742 L164.0625,1165.161 L164.2578,1152.258 L164.4531,1181.29 L164.6484,1174.839 L164.8438,1168.387 L165.0391,1171.613 L165.2344,1171.613 L165.4297,1184.516 L165.625,1132.903 L165.8203,1197.419 L166.0156,1187.742 L166.2109,1165.161 L166.4063,1181.29 L166.6016,1168.387 L166.7969,1171.613 L166.9922,1120 L167.1875,1165.161 L167.3828,1187.742 L167.5781,1068.387 L167.7734,1178.065 L167.9688,1161.935 L168.1641,1174.839 L168.3594,1184.516 L168.5547,1174.839 L168.75,1184.516 L168.9453,1187.742 L169.1406,1171.613 L169.3359,1187.742 L169.5313,1149.032 L169.7266,1129.677 L169.9219,1181.29 L170.1172,1190.968 L170.3125,1184.516 L170.5078,1129.677 L170.7031,1171.613 L170.8984,1155.484 L171.0938,1142.581 L171.2891,1174.839 L171.4844,1168.387 L171.6797,1171.613 L171.875,1187.742 L172.0703,1178.065 L172.2656,1181.29 L172.4609,1203.871 L172.6563,1132.903 L172.8516,1178.065 L173.0469,1190.968 L173.2422,1207.097 L173.4375,1149.032 L173.6328,1184.516 L173.8281,1187.742 L174.0234,1178.065 L174.2188,1155.484 L174.4141,1181.29 L174.6094,1174.839 L174.8047,1194.194 L175,1120 L175.1953,1168.387 L175.3906,1174.839 L175.5859,1149.032 L175.7813,1181.29 L175.9766,1184.516 L176.1719,1187.742 L176.3672,1152.258 L176.5625,1187.742 L176.7578,1171.613 L176.9531,1129.677 L177.1484,1181.29 L177.3438,1174.839 L177.5391,1123.226 L177.7344,1187.742 L177.9297,1168.387 L178.125,1178.065 L178.3203,1074.839 L178.5156,1168.387 L178.7109,1181.29 L178.9063,1178.065 L179.1016,1181.29 L179.2969,1126.452 L179.4922,1200.645 L179.6875,1165.161 L179.8828,1132.903 L180.0781,1178.065 L180.2735,1181.29 L180.4688,1181.29 L180.6641,1168.387 L180.8594,1132.903 L181.0547,1152.258 L181.25,1113.548 L181.4453,1194.194 L181.6406,1178.065 L181.8359,1158.71 L182.0313,1190.968 L182.2266,1113.548 L182.4219,1161.935 L182.6172,1171.613 L182.8125,1178.065 L183.0078,1184.516 L183.2031,1155.484 L183.3984,1174.839 L183.5938,1178.065 L183.7891,1194.194 L183.9844,1165.161 L184.1797,1184.516 L184.375,1181.29 L184.5703,1145.806 L184.7656,1184.516 L184.9609,1168.387 L185.1563,1132.903 L185.3516,1171.613 L185.5469,1190.968 L185.7422,1190.968 L185.9375,1181.29 L186.1328,1181.29 L186.3281,1184.516 L186.5234,1142.581 L186.7188,1184.516 L186.9141,1181.29 L187.1094,1165.161 L187.3047,1181.29 L187.5,1168.387 L187.6953,1178.065 L187.8906,1168.387 L188.086,1174.839 L188.2813,1187.742 L188.4766,1178.065 L188.6719,1184.516 L188.8672,1178.065 L189.0625,1168.387 L189.2578,1181.29 L189.4531,1158.71 L189.6484,1178.065 L189.8438,1168.387 L190.0391,1187.742 L190.2344,1181.29 L190.4297,1181.29 L190.625,1158.71 L190.8203,1142.581 L191.0156,1194.194 L191.2109,1194.194 L191.4063,1190.968 L191.6016,1181.29 L191.7969,1149.032 L191.9922,1178.065 L192.1875,1181.29 L192.3828,1184.516 L192.5781,1181.29 L192.7734,1178.065 L192.9688,1194.194 L193.1641,1181.29 L193.3594,1161.935 L193.5547,1184.516 L193.75,1174.839 L193.9453,1181.29 L194.1406,1178.065 L194.3359,1168.387 L194.5313,1178.065 L194.7266,1181.29 L194.9219,1187.742 L195.1172,1187.742 L195.3125,1194.194 L195.5078,1194.194 L195.7031,1178.065 L195.8985,1165.161 L196.0938,1158.71 L196.2891,1155.484 L196.4844,1178.065 L196.6797,1132.903 L196.875,1178.065 L197.0703,1178.065 L197.2656,1171.613 L197.4609,1152.258 L197.6563,1184.516 L197.8516,1129.677 L198.0469,1190.968 L198.2422,1187.742 L198.4375,1178.065 L198.6328,1178.065 L198.8281,1190.968 L199.0234,1149.032 L199.2188,1203.871 L199.4141,1149.032 L199.6094,1181.29 L199.8047,1181.29 L200,1190.968 L200.1953,1123.226 L200.3906,1184.516 L200.5859,1178.065 L200.7813,1197.419 L200.9766,1181.29 L201.1719,1197.419 L201.3672,1165.161 L201.5625,1171.613 L201.7578,1116.774 L201.9531,1174.839 L202.1484,1190.968 L202.3438,1190.968 L202.5391,1145.806 L202.7344,1142.581 L202.9297,1087.742 L203.125,1207.097 L203.3203,1123.226 L203.5156,1181.29 L203.711,1184.516 L203.9063,1197.419 L204.1016,1203.871 L204.2969,1181.29 L204.4922,1181.29 L204.6875,1129.677 L204.8828,1187.742 L205.0781,1181.29 L205.2734,1168.387 L205.4688,1171.613 L205.6641,1178.065 L205.8594,1190.968 L206.0547,1174.839 L206.25,1181.29 L206.4453,1129.677 L206.6406,1078.065 L206.8359,1184.516 L207.0313,1184.516 L207.2266,1165.161 L207.4219,1142.581 L207.6172,1178.065 L207.8125,1187.742 L208.0078,1187.742 L208.2031,1165.161 L208.3984,1187.742 L208.5938,1129.677 L208.7891,1187.742 L208.9844,1126.452 L209.1797,1178.065 L209.375,1178.065 L209.5703,1171.613 L209.7656,1136.129 L209.9609,1178.065 L210.1563,1203.871 L210.3516,1197.419 L210.5469,1181.29 L210.7422,1187.742 L210.9375,1190.968 L211.1328,1184.516 L211.3281,1149.032 L211.5235,1165.161 L211.7188,1194.194 L211.9141,1187.742 L212.1094,1190.968 L212.3047,1187.742 L212.5,1181.29 L212.6953,1181.29 L212.8906,1178.065 L213.0859,1165.161 L213.2813,1181.29 L213.4766,1174.839 L213.6719,1203.871 L213.8672,1187.742 L214.0625,1174.839 L214.2578,1184.516 L214.4531,1190.968 L214.6484,1181.29 L214.8438,1187.742 L215.0391,1174.839 L215.2344,1116.774 L215.4297,1171.613 L215.625,1178.065 L215.8203,1174.839 L216.0156,1178.065 L216.2109,1181.29 L216.4063,1123.226 L216.6016,1174.839 L216.7969,1181.29 L216.9922,1129.677 L217.1875,1194.194 L217.3828,1178.065 L217.5781,1174.839 L217.7734,1178.065 L217.9688,1174.839 L218.1641,1187.742 L218.3594,1187.742 L218.5547,1178.065 L218.75,1145.806 L218.9453,1174.839 L219.1406,1168.387 L219.336,1174.839 L219.5313,1181.29 L219.7266,1194.194 L219.9219,1168.387 L220.1172,1190.968 L220.3125,1184.516 L220.5078,1178.065 L220.7031,1171.613 L220.8984,1168.387 L221.0938,1152.258 L221.2891,1187.742 L221.4844,1139.355 L221.6797,1184.516 L221.875,1200.645 L222.0703,1181.29 L222.2656,1187.742 L222.4609,1158.71 L222.6563,1181.29 L222.8516,1174.839 L223.0469,1136.129 L223.2422,1181.29 L223.4375,1181.29 L223.6328,1184.516 L223.8281,1181.29 L224.0234,1171.613 L224.2188,1174.839 L224.4141,1161.935 L224.6094,1184.516 L224.8047,1190.968 L225,1181.29 L225.1953,1178.065 L225.3906,1178.065 L225.5859,1187.742 L225.7813,1168.387 L225.9766,1165.161 L226.1719,1142.581 L226.3672,1178.065 L226.5625,1165.161 L226.7578,1149.032 L226.9531,1168.387 L227.1485,1187.742 L227.3438,1190.968 L227.5391,1171.613 L227.7344,1132.903 L227.9297,1165.161 L228.125,1178.065 L228.3203,1168.387 L228.5156,1181.29 L228.7109,1187.742 L228.9063,1187.742 L229.1016,1149.032 L229.2969,1184.516 L229.4922,1165.161 L229.6875,1178.065 L229.8828,1178.065 L230.0781,1197.419 L230.2734,1174.839 L230.4688,1194.194 L230.6641,1171.613 L230.8594,1178.065 L231.0547,1113.548 L231.25,1190.968 L231.4453,1178.065 L231.6406,1178.065 L231.8359,1178.065 L232.0313,1184.516 L232.2266,1126.452 L232.4219,1178.065 L232.6172,1171.613 L232.8125,1168.387 L233.0078,1142.581 L233.2031,1190.968 L233.3984,1168.387 L233.5938,1171.613 L233.7891,1158.71 L233.9844,1178.065 L234.1797,1187.742 L234.375,1184.516 L234.5703,1113.548 L234.7656,1174.839 L234.961,1171.613 L235.1563,1178.065 L235.3516,1178.065 L235.5469,1181.29 L235.7422,1174.839 L235.9375,1120 L236.1328,1181.29 L236.3281,1181.29 L236.5234,1132.903 L236.7188,1178.065 L236.9141,1187.742 L237.1094,1184.516 L237.3047,1187.742 L237.5,1184.516 L237.6953,1178.065 L237.8906,1132.903 L238.0859,1181.29 L238.2813,1187.742 L238.4766,1203.871 L238.6719,1116.774 L238.8672,1181.29 L239.0625,1174.839 L239.2578,1161.935 L239.4531,1178.065 L239.6484,1178.065 L239.8438,1187.742 L240.0391,1168.387 L240.2344,1171.613 L240.4297,1187.742 L240.625,1149.032 L240.8203,1184.516 L241.0156,1187.742 L241.2109,1178.065 L241.4063,1203.871 L241.6016,1174.839 L241.7969,1129.677 L241.9922,1171.613 L242.1875,1123.226 L242.3828,1187.742 L242.5781,1181.29 L242.7735,1194.194 L242.9688,1165.161 L243.1641,1171.613 L243.3594,1187.742 L243.5547,1184.516 L243.75,1187.742 L243.9453,1168.387 L244.1406,1178.065 L244.3359,1168.387 L244.5313,1168.387 L244.7266,1174.839 L244.9219,1184.516 L245.1172,1178.065 L245.3125,1178.065 L245.5078,1178.065 L245.7031,1174.839 L245.8984,1149.032 L246.0938,1187.742 L246.2891,1190.968 L246.4844,1181.29 L246.6797,1171.613 L246.875,1171.613 L247.0703,1155.484 L247.2656,1174.839 L247.4609,1020 L247.6563,1171.613 L247.8516,1207.097 L248.0469,1171.613 L248.2422,1174.839 L248.4375,1174.839 L248.6328,1184.516 L248.8281,1203.871 L249.0234,1187.742 L249.2188,1184.516 L249.4141,1174.839 L249.6094,1155.484 L249.8047,1184.516 L250,1181.29 L250.1953,1161.935 L250.3906,1171.613 L250.586,1194.194 L250.7813,1197.419 L250.9766,1123.226 L251.1719,1110.323 L251.3672,1113.548 L251.5625,1184.516 L251.7578,1184.516 L251.9531,1171.613 L252.1484,1165.161 L252.3438,1158.71 L252.5391,1181.29 L252.7344,1171.613 L252.9297,1171.613 L253.125,1184.516 L253.3203,1181.29 L253.5156,1142.581 L253.7109,1171.613 L253.9063,1178.065 L254.1016,1190.968 L254.2969,1184.516 L254.4922,1181.29 L254.6875,1174.839 L254.8828,1174.839 L255.0781,1168.387 L255.2734,1174.839 L255.4688,1181.29 L255.6641,1178.065 L255.8594,1155.484 L256.0547,1161.935 L256.25,1174.839 L256.4453,1190.968 L256.6406,1187.742 L256.8359,1181.29 L257.0313,1184.516 L257.2266,1184.516 L257.4219,1174.839 L257.6172,1171.613 L257.8125,1161.935 L258.0078,1178.065 L258.2031,1194.194 L258.3984,1197.419 L258.5938,1187.742 L258.7891,1145.806 L258.9844,1178.065 L259.1797,1181.29 L259.375,1116.774 L259.5703,1181.29 L259.7656,1187.742 L259.9609,1171.613 L260.1563,1168.387 L260.3516,1171.613 L260.5469,1181.29 L260.7422,1178.065 L260.9375,1120 L261.1328,1181.29 L261.3281,1155.484 L261.5234,1184.516 L261.7188,1139.355 L261.9141,1145.806 L262.1094,1184.516 L262.3047,1181.29 L262.5,1174.839 L262.6953,1200.645 L262.8906,1132.903 L263.0859,1158.71 L263.2813,1178.065 L263.4766,1181.29 L263.6719,1184.516 L263.8672,1168.387 L264.0625,1194.194 L264.2578,1152.258 L264.4531,1187.742 L264.6484,1210.323 L264.8438,1174.839 L265.0391,1194.194 L265.2344,1178.065 L265.4297,1194.194 L265.625,1178.065 L265.8203,1145.806 L266.0156,1132.903 L266.2109,1171.613 L266.4063,1178.065 L266.6016,1171.613 L266.7969,1142.581 L266.9922,1184.516 L267.1875,1181.29 L267.3828,1181.29 L267.5781,1184.516 L267.7734,1161.935 L267.9688,1194.194 L268.1641,1168.387 L268.3594,1184.516 L268.5547,1136.129 L268.75,1178.065 L268.9453,1113.548 L269.1406,1120 L269.3359,1190.968 L269.5313,1168.387 L269.7266,1187.742 L269.9219,1174.839 L270.1172,1178.065 L270.3125,1161.935 L270.5078,1184.516 L270.7031,1213.548 L270.8984,1178.065 L271.0938,1181.29 L271.2891,1190.968 L271.4844,1126.452 L271.6797,1168.387 L271.875,1187.742 L272.0703,1181.29 L272.2656,1168.387 L272.4609,1110.323 L272.6563,1174.839 L272.8516,1168.387 L273.0469,1181.29 L273.2422,1171.613 L273.4375,1187.742 L273.6328,1197.419 L273.8281,1184.516 L274.0234,1126.452 L274.2188,1184.516 L274.4141,1178.065 L274.6094,1174.839 L274.8047,1174.839 L275,1187.742 L275.1953,1174.839 L275.3906,1178.065 L275.5859,1168.387 L275.7813,1171.613 L275.9766,1178.065 L276.1719,1184.516 L276.3672,1187.742 L276.5625,1103.871 L276.7578,1200.645 L276.9531,1187.742 L277.1484,1190.968 L277.3438,1120 L277.5391,1178.065 L277.7344,1155.484 L277.9297,1132.903 L278.125,1178.065 L278.3203,1171.613 L278.5156,1113.548 L278.7109,1181.29 L278.9063,1178.065 L279.1016,1174.839 L279.2969,1165.161 L279.4922,1184.516 L279.6875,1184.516 L279.8828,1149.032 L280.0781,1174.839 L280.2734,1178.065 L280.4688,1139.355 L280.6641,1178.065 L280.8594,1174.839 L281.0547,1181.29 L281.25,1168.387 L281.4453,1171.613 L281.6406,1174.839 L281.8359,1165.161 L282.0313,1178.065 L282.2266,1181.29 L282.4219,1145.806 L282.6172,1178.065 L282.8125,1181.29 L283.0078,1171.613 L283.2031,1181.29 L283.3984,1152.258 L283.5938,1187.742 L283.7891,1132.903 L283.9844,1181.29 L284.1797,1181.29 L284.375,1171.613 L284.5703,1187.742 L284.7656,1187.742 L284.9609,1190.968 L285.1563,1174.839 L285.3516,1113.548 L285.5469,1152.258 L285.7422,1171.613 L285.9375,1120 L286.1328,1190.968 L286.3281,1116.774 L286.5234,1187.742 L286.7188,1181.29 L286.9141,1178.065 L287.1094,1171.613 L287.3047,1184.516 L287.5,1197.419 L287.6953,1181.29 L287.8906,1184.516 L288.0859,1174.839 L288.2813,1184.516 L288.4766,1178.065 L288.6719,1194.194 L288.8672,1190.968 L289.0625,1171.613 L289.2578,1171.613 L289.4531,1168.387 L289.6484,1184.516 L289.8438,1145.806 L290.0391,1132.903 L290.2344,1174.839 L290.4297,1174.839 L290.625,1168.387 L290.8203,1187.742 L291.0156,1171.613 L291.2109,1142.581 L291.4063,1184.516 L291.6016,1203.871 L291.7969,1181.29 L291.9922,1174.839 L292.1875,1145.806 L292.3828,1116.774 L292.5781,1184.516 L292.7734,1184.516 L292.9688,1145.806 L293.1641,1171.613 L293.3594,1187.742 L293.5547,1178.065 L293.75,1165.161 L293.9453,1174.839 L294.1406,1171.613 L294.3359,1174.839 L294.5313,1123.226 L294.7266,1178.065 L294.9219,1165.161 L295.1172,1132.903 L295.3125,1178.065 L295.5078,1171.613 L295.7031,1197.419 L295.8984,1129.677 L296.0938,1174.839 L296.2891,1190.968 L296.4844,1174.839 L296.6797,1171.613 L296.875,1132.903 L297.0703,1171.613 L297.2656,1184.516 L297.4609,1174.839 L297.6563,1171.613 L297.8516,1120 L298.0469,1171.613 L298.2422,1184.516 L298.4375,1171.613 L298.6328,1178.065 L298.8281,1174.839 L299.0234,1152.258 L299.2188,1171.613 L299.4141,1174.839 L299.6094,1181.29 L299.8047,1174.839 L300,1187.742 L300.1953,1187.742 L300.3906,1187.742 L300.5859,1200.645 L300.7813,1174.839 L300.9766,1187.742 L301.1719,1184.516 L301.3672,1178.065 L301.5625,1187.742 L301.7578,1123.226 L301.9531,1123.226 L302.1484,1174.839 L302.3438,1181.29 L302.5391,1116.774 L302.7344,1178.065 L302.9297,1187.742 L303.125,1190.968 L303.3203,1161.935 L303.5156,1165.161 L303.711,1168.387 L303.9063,1165.161 L304.1016,1190.968 L304.2969,1174.839 L304.4922,1187.742 L304.6875,1120 L304.8828,1116.774 L305.0781,1181.29 L305.2734,1161.935 L305.4688,1187.742 L305.6641,1171.613 L305.8594,1171.613 L306.0547,1149.032 L306.25,1200.645 L306.4453,1155.484 L306.6407,1174.839 L306.8359,1174.839 L307.0313,1145.806 L307.2266,1190.968 L307.4219,1171.613 L307.6172,1174.839 L307.8125,1190.968 L308.0078,1174.839 L308.2031,1190.968 L308.3984,1190.968 L308.5938,1181.29 L308.7891,1158.71 L308.9844,1171.613 L309.1797,1178.065 L309.375,1181.29 L309.5703,1123.226 L309.7656,1174.839 L309.9609,1113.548 L310.1563,1171.613 L310.3516,1110.323 L310.5469,1171.613 L310.7422,1190.968 L310.9375,1178.065 L311.1328,1171.613 L311.3281,1174.839 L311.5235,1181.29 L311.7188,1120 L311.9141,1181.29 L312.1094,1181.29 L312.3047,1184.516 L312.5,1174.839 L312.6953,1171.613 L312.8906,1197.419 L313.0859,1178.065 L313.2813,1158.71 L313.4766,1152.258 L313.6719,1178.065 L313.8672,1184.516 L314.0625,1190.968 L314.2578,1184.516 L314.4532,1178.065 L314.6484,1181.29 L314.8438,1190.968 L315.0391,1184.516 L315.2344,1197.419 L315.4297,1190.968 L315.625,1158.71 L315.8203,1174.839 L316.0156,1181.29 L316.2109,1174.839 L316.4063,1181.29 L316.6016,1187.742 L316.7969,1203.871 L316.9922,1181.29 L317.1875,1165.161 L317.3828,1142.581 L317.5781,1090.968 L317.7734,1181.29 L317.9688,1187.742 L318.1641,1171.613 L318.3594,1197.419 L318.5547,1181.29 L318.75,1178.065 L318.9453,1174.839 L319.1406,1155.484 L319.336,1178.065 L319.5313,1174.839 L319.7266,1181.29 L319.9219,1110.323 L320.1172,1174.839 L320.3125,1126.452 L320.5078,1187.742 L320.7031,1174.839 L320.8984,1184.516 L321.0938,1194.194 L321.2891,1178.065 L321.4844,1161.935 L321.6797,1152.258 L321.875,1184.516 L322.0703,1174.839 L322.2657,1174.839 L322.4609,1171.613 L322.6563,1171.613 L322.8516,1190.968 L323.0469,1181.29 L323.2422,1190.968 L323.4375,1187.742 L323.6328,1181.29 L323.8281,1161.935 L324.0234,1181.29 L324.2188,1168.387 L324.4141,1174.839 L324.6094,1168.387 L324.8047,1194.194 L325,1171.613 L325.1953,1190.968 L325.3906,1184.516 L325.5859,1178.065 L325.7813,1190.968 L325.9766,1129.677 L326.1719,1152.258 L326.3672,1181.29 L326.5625,1178.065 L326.7578,1220 L326.9531,1187.742 L327.1485,1178.065 L327.3438,1178.065 L327.5391,1178.065 L327.7344,1178.065 L327.9297,1187.742 L328.125,1161.935 L328.3203,1178.065 L328.5156,1187.742 L328.7109,1178.065 L328.9063,1161.935 L329.1016,1197.419 L329.2969,1174.839 L329.4922,1184.516 L329.6875,1181.29 L329.8828,1184.516 L330.0782,1165.161 L330.2734,1168.387 L330.4688,1178.065 L330.6641,1174.839 L330.8594,1178.065 L331.0547,1181.29 L331.25,1152.258 L331.4453,1184.516 L331.6406,1178.065 L331.8359,1178.065 L332.0313,1174.839 L332.2266,1178.065 L332.4219,1168.387 L332.6172,1178.065 L332.8125,1184.516 L333.0078,1123.226 L333.2031,1184.516 L333.3984,1178.065 L333.5938,1161.935 L333.7891,1152.258 L333.9844,1187.742 L334.1797,1178.065 L334.375,1174.839 L334.5703,1116.774 L334.7656,1181.29 L334.961,1184.516 L335.1563,1178.065 L335.3516,1113.548 L335.5469,1168.387 L335.7422,1171.613 L335.9375,1161.935 L336.1328,1184.516 L336.3281,1194.194 L336.5234,1181.29 L336.7188,1107.097 L336.9141,1171.613 L337.1094,1178.065 L337.3047,1168.387 L337.5,1168.387 L337.6953,1187.742 L337.8907,1161.935 L338.0859,1184.516 L338.2813,1184.516 L338.4766,1184.516 L338.6719,1165.161 L338.8672,1168.387 L339.0625,1178.065 L339.2578,1207.097 L339.4531,1174.839 L339.6484,1194.194 L339.8438,1168.387 L340.0391,1171.613 L340.2344,1171.613 L340.4297,1168.387 L340.625,1181.29 " stroke="blue" fill="none" />
<text x="50" y="1270" font-family="Arial" font-size="12" fill="black">Policy Loss</text>
<text x="50" y="1285" font-family="Arial" font-size="10" fill="black">0.7437868</text>
<text x="50" y="1500" font-family="Arial" font-size="10" fill="black">0.7062576</text>
<path d="M50,1379.678 L75,1425.608 L100,1290 L125,1490 " stroke="blue" fill="none" />
<text x="50" y="1540" font-family="Arial" font-size="12" fill="black">Value Loss</text>
<text x="50" y="1555" font-family="Arial" font-size="10" fill="black">0.09001036</text>
<text x="50" y="1770" font-family="Arial" font-size="10" fill="black">0.06996286</text>
<path d="M50,1599.057 L75,1560 L100,1760 L125,1608.699 " stroke="blue" fill="none" />
<text x="50" y="1810" font-family="Arial" font-size="12" fill="black">Learning Rate</text>
<text x="50" y="1825" font-family="Arial" font-size="10" fill="black">0.0003</text>
<text x="50" y="2040" font-family="Arial" font-size="10" fill="black">0.0003</text>
<path d="M50,2030 L75,2030 L100,2030 L125,2030 " stroke="blue" fill="none" />
<text x="50" y="2080" font-family="Arial" font-size="12" fill="black">Entropy</text>
<text x="50" y="2095" font-family="Arial" font-size="10" fill="black">0.9943247</text>
<text x="50" y="2310" font-family="Arial" font-size="10" fill="black">0.9668454</text>
<path d="M50,2300 L75,2126.002 L100,2100 L125,2208.415 " stroke="blue" fill="none" />
<text x="750" y="730" font-family="Arial" font-size="12" fill="black">Simplified</text>
<text x="750" y="745" font-family="Arial" font-size="10" fill="black">1.472383</text>
<text x="750" y="960" font-family="Arial" font-size="10" fill="black">0.8476395</text>
<path d="M753.5156,905.4556 L757.2266,861.8894 L760.9375,808.5071 L764.6484,834.5038 L768.3594,823.2324 L772.0703,890.0555 L775.7813,780.0496 L779.4922,845.4796 L783.2031,901.8112 L786.9141,883.3663 L790.625,848.1061 L794.3359,851.3981 L798.0469,754.1368 L801.7578,887.387 L805.4688,852.9582 L809.1797,875.5547 L812.8906,875.0217 L816.6016,885.921 L820.3125,927.3687 L824.0234,906.3101 L827.7344,786.9398 L831.4453,870.5303 L835.1563,893.6775 L838.8672,849.192 L842.5781,878.1777 L846.2891,770.907 L850,929.3101 L853.7109,784.3364 L857.4219,847.8299 L861.1328,870.9715 L864.8438,833.5388 L868.5547,773.932 L872.2656,839.7767 L875.9766,863.0494 L879.6875,750 L883.3984,751.7404 L887.1094,873.1107 L890.8203,858.9026 L894.5313,929.9974 L898.2422,845.175 L901.9531,909.3329 L905.6641,826.1882 L909.375,762.4921 L913.0859,911.2084 L916.7969,879.9537 L920.5078,885.1827 L924.2188,857.8699 L927.9297,856.1588 L931.6406,875.8774 L935.3516,825.9846 L939.0625,879.7171 L942.7734,885.5129 L946.4844,920.3798 L950.1953,788.5108 L953.9063,764.3036 L957.6172,925.6852 L961.3281,865.5425 L965.0391,852.3501 L968.75,842.5039 L972.4609,811.4367 L976.1719,883.9434 L979.8828,763.0624 L983.5938,859.584 L987.3047,817.6444 L991.0156,892.5012 L994.7266,832.6467 L998.4375,824.7155 L1002.148,859.163 L1005.859,821.0345 L1009.57,863.234 L1013.281,813.8361 L1016.992,950 L1020.703,762.127 L1024.414,887.6298 L1028.125,900.7861 L1031.836,891.2203 L1035.547,768.4924 L1039.258,896.3777 L1040.625,878.4381 " stroke="blue" fill="none" />
<text x="750" y="1000" font-family="Arial" font-size="12" fill="black">Simplified</text>
<text x="750" y="1015" font-family="Arial" font-size="10" fill="black">33.57895</text>
<text x="750" y="1230" font-family="Arial" font-size="10" fill="black">27.78947</text>
<path d="M753.5156,1196.364 L757.2266,1125.455 L760.9375,1076.364 L764.6484,1081.818 L768.3594,1109.091 L772.0703,1209.091 L775.7813,1060 L779.4922,1098.182 L783.2031,1178.182 L786.9141,1145.455 L790.625,1101.818 L794.3359,1123.636 L798.0469,1034.546 L801.7578,1161.818 L805.4688,1134.545 L809.1797,1138.182 L812.8906,1143.636 L816.6016,1167.273 L820.3125,1154.546 L824.0234,1183.636 L827.7344,1078.182 L831.4453,1134.545 L835.1563,1120 L838.8672,1067.273 L842.5781,1129.091 L846.2891,1029.091 L850,1194.546 L853.7109,1101.818 L857.4219,1100 L861.1328,1114.546 L864.8438,1100 L868.5547,1045.455 L872.2656,1090.909 L875.9766,1129.091 L879.6875,1029.091 L883.3984,1020 L887.1094,1136.364 L890.8203,1134.545 L894.5313,1196.364 L898.2422,1123.636 L901.9531,1127.273 L905.6641,1094.546 L909.375,1040 L913.0859,1194.546 L916.7969,1143.636 L920.5078,1156.364 L924.2188,1130.909 L927.9297,1101.818 L931.6406,1150.909 L935.3516,1078.182 L939.0625,1103.636 L942.7734,1130.909 L946.4844,1163.636 L950.1953,1081.818 L953.9063,1050.909 L957.6172,1174.546 L961.3281,1096.364 L965.0391,1147.273 L968.75,1101.818 L972.4609,1067.273 L976.1719,1158.182 L979.8828,1040 L983.5938,1110.909 L987.3047,1061.818 L991.0156,1152.727 L994.7266,1069.091 L998.4375,1058.182 L1002.148,1134.545 L1005.859,1063.636 L1009.57,1120 L1013.281,1067.273 L1016.992,1220 L1020.703,1038.182 L1024.414,1169.091 L1028.125,1181.818 L1031.836,1169.091 L1035.547,1056.364 L1039.258,1136.364 L1040.625,1153.507 " stroke="blue" fill="none" />
</svg>
