<svg width="2000" height="2500" xmlns="http://www.w3.org/2000/svg">
<text x="10" y="20" font-family="Arial" font-size="26" fill="black"> [HumanWalk] Training Session</text>
<text x="10" y="50" font-family="Arial" font-size="16" fill="black">[Statistics]</text>
<text x="50" y="70" font-family="Arial" font-size="12" fill="black">Started at: 3:53:28 PM, Monday, December 11, 2023</text>
<text x="50" y="90" font-family="Arial" font-size="12" fill="black">Finished at: 3:58:29 PM, Monday, December 11, 2023</text>
<text x="50" y="110" font-family="Arial" font-size="12" fill="black">Training Session Time: 0 hrs : 5 min : 0 sec</text>
<text x="50" y="130" font-family="Arial" font-size="12" fill="black">Inference Time: 0 hrs : 7 min : 15 sec       [Per agent: 0 hrs : 7 min : 15 sec]        [Device: CPU]</text>
<text x="50" y="150" font-family="Arial" font-size="12" fill="black">Policy Update Time: 0 hrs : 2 min : 15 sec        [Per iteration: 0 hrs : 0 min : 7 sec]        [Device: GPU]</text>
<text x="50" y="170" font-family="Arial" font-size="12" fill="black">Inference Time / Training Session Time: 1.433</text>
<text x="50" y="190" font-family="Arial" font-size="12" fill="black">Policy Update Time / Training Session Time: 0.447</text>
<text x="50" y="210" font-family="Arial" font-size="12" fill="black">Episode Count: 285</text>
<text x="50" y="230" font-family="Arial" font-size="12" fill="black">Inference Steps: 43390    [Per agent: 43390]     [Per Episode (mean): 152]</text>
<text x="50" y="250" font-family="Arial" font-size="12" fill="black">Iterations: 21</text>
<text x="50" y="270" font-family="Arial" font-size="12" fill="black">Parallel Agents: 1</text>
<text x="50" y="290" font-family="Arial" font-size="12" fill="black">Timescale: 10</text>
<text x="50" y="310" font-family="Arial" font-size="12" fill="black">Trainer: PPO</text>
<text x="10" y="360" font-family="Arial" font-size="16" fill="black">[Hyperparameters]</text>
<text x="50" y="380" font-family="Arial" font-size="12" fill="black">Buffer Size: 2048        [Batch Size: 128       (x16)]</text>
<text x="50" y="400" font-family="Arial" font-size="12" fill="black">Num Epoch: 8</text>
<text x="50" y="420" font-family="Arial" font-size="12" fill="black">Time Horizon: 64</text>
<text x="50" y="440" font-family="Arial" font-size="12" fill="black">Gradient Cliping Normalization: 0.5</text>
<text x="50" y="460" font-family="Arial" font-size="12" fill="black">Learning Rate Schedule: False    </text>
<text x="10" y="510" font-family="Arial" font-size="16" fill="black">[Behaviour]</text>
<text x="50" y="530" font-family="Arial" font-size="12" fill="black">Space Size: 189</text>
<text x="50" y="550" font-family="Arial" font-size="12" fill="black">Continuous Actions: 40 [Standard Deviation: Fixed]     [Value: 0.6]</text>
<text x="50" y="570" font-family="Arial" font-size="12" fill="black">Discrete Actions: 0</text>
<text x="50" y="590" font-family="Arial" font-size="12" fill="black">TargetFPS: 100 (physics update rate)</text>
<text x="50" y="610" font-family="Arial" font-size="12" fill="black">Observations Normalization: True</text>
<text x="10" y="660" font-family="Arial" font-size="16" fill="black">[Decision Requester]</text>
<text x="50" y="680" font-family="Arial" font-size="12" fill="black">Max Step: 0</text>
<text x="50" y="700" font-family="Arial" font-size="12" fill="black">Decision Period: 1</text>
<text x="10" y="750" font-family="Arial" font-size="16" fill="black">[Graphs]</text>
<text x="50" y="770" font-family="Arial" font-size="12" fill="black">Episode Reward (285)</text>
<text x="50" y="785" font-family="Arial" font-size="10" fill="black">8.811024</text>
<text x="50" y="1000" font-family="Arial" font-size="10" fill="black">0.6006431</text>
<path d="M50,967.6188 L51.5625,968.3748 L53.125,954.0625 L54.6875,956.5776 L56.25,853.6155 L57.8125,936.2297 L59.375,968.1343 L60.9375,868.7066 L62.5,975.2767 L64.0625,966.0995 L65.625,969.703 L67.1875,893.3314 L68.75,963.4012 L70.3125,923.9304 L71.875,940.2399 L73.4375,973.9327 L75,975.7809 L76.5625,949.0769 L78.125,962.2501 L79.6875,971.6757 L81.25,957.6609 L82.8125,953.7448 L84.375,975.9693 L85.9375,966.2839 L87.5,984.5743 L89.0625,934.1013 L90.625,909.9944 L92.1875,978.7667 L93.75,968.5825 L95.3125,973.5476 L96.875,955.156 L98.4375,905.5302 L100,975.7888 L101.5625,955.1449 L103.125,954.5237 L104.6875,973.1376 L106.25,982.8677 L107.8125,959.8177 L109.375,960.8257 L110.9375,964.982 L112.5,926.0019 L114.0625,941.861 L115.625,969.4651 L117.1875,982.575 L118.75,970.809 L120.3125,959.2445 L121.875,942.6292 L123.4375,950.7035 L125,974.7071 L126.5625,964.4993 L128.125,955.2175 L129.6875,960.4763 L131.25,960.1786 L132.8125,971.1479 L134.375,971.3246 L135.9375,957.3675 L137.5,977.1965 L139.0625,953.0659 L140.625,965.0282 L142.1875,967.0311 L143.75,968.4454 L145.3125,950.5146 L146.875,948.9152 L148.4375,944.5063 L150,917.5996 L151.5625,978.7439 L153.125,972.981 L154.6875,959.2662 L156.25,954.538 L157.8125,922.6551 L159.375,976.59 L160.9375,967.4706 L162.5,968.6564 L164.0625,965.4102 L165.625,973.8171 L167.1875,920.8143 L168.75,969.1083 L170.3125,969.0085 L171.875,940.4465 L173.4375,962.3041 L175,983.3329 L176.5625,954.0815 L178.125,938.6956 L179.6875,951.1049 L181.25,974.0438 L182.8125,933.5209 L184.375,981.4493 L185.9375,968.8491 L187.5,944.8485 L189.0625,930.7048 L190.625,974.2799 L192.1875,936.9365 L193.75,953.8744 L195.3125,960.1241 L196.875,947.1893 L198.4375,941.6821 L200,974.5865 L201.5625,971.4973 L203.125,964.9827 L204.6875,970.7592 L206.25,941.923 L207.8125,855.4993 L209.375,977.7346 L210.9375,790 L212.5,960.6683 L214.0625,972.9005 L215.625,960.9592 L217.1875,910.8477 L218.75,973.7803 L220.3125,967.5515 L221.875,967.6702 L223.4375,964.9374 L225,967.7639 L226.5625,949.3538 L228.125,972.8652 L229.6875,937.3008 L231.25,974.4041 L232.8125,971.6445 L234.375,963.0205 L235.9375,933.1316 L237.5,959.2275 L239.0625,977.4004 L240.625,974.6634 L242.1875,970.0542 L243.75,974.248 L245.3125,938.687 L246.875,920.2909 L248.4375,940.2264 L250,976.1157 L251.5625,975.7852 L253.125,948.3917 L254.6875,978.9993 L256.25,969.1988 L257.8125,950.5904 L259.375,976.7127 L260.9375,967.1845 L262.5,965.7515 L264.0625,945.8187 L265.625,971.8361 L267.1875,958.4203 L268.75,972.7745 L270.3125,927.9787 L271.875,967.3084 L273.4375,928.1465 L275,938.8754 L276.5625,940.8648 L278.125,956.5704 L279.6875,956.1965 L281.25,956.384 L282.8125,919.2468 L284.375,969.4581 L285.9375,936.4437 L287.5,951.2245 L289.0625,974.4638 L290.625,967.2465 L292.1875,977.3962 L293.75,981.6396 L295.3125,954.5764 L296.875,980.3702 L298.4375,955.504 L300,946.2194 L301.5625,971.4244 L303.125,963.7537 L304.6875,982.6411 L306.25,962.9902 L307.8125,895.5212 L309.375,942.324 L310.9375,945.1113 L312.5,944.5704 L314.0625,969.1733 L315.625,971.8519 L317.1875,946.6166 L318.75,948.4517 L320.3125,977.6517 L321.875,977.5018 L323.4375,970.6852 L325,950.9297 L326.5625,981.126 L328.125,969.4793 L329.6875,962.077 L331.25,967.0849 L332.8125,968.6464 L334.375,963.4424 L335.9375,968.2167 L337.5,957.0871 L339.0625,977.5679 L340.625,926.8239 L342.1875,977.8773 L343.75,974.0695 L345.3125,977.6353 L346.875,916.3783 L348.4375,976.4192 L350,973.4646 L351.5625,951.4279 L353.125,931.148 L354.6875,957.0759 L356.25,965.174 L357.8125,943.2094 L359.375,935.7351 L360.9375,982.6806 L362.5,940.9153 L364.0625,968.024 L365.625,964.9965 L367.1875,973.997 L368.75,986.2348 L370.3125,948.0408 L371.875,990 L373.4375,976.3838 L375,973.6378 L376.5625,921.9986 L378.125,962.5336 L379.6875,981.1671 L381.25,952.2447 L382.8125,974.3629 L384.375,974.6294 L385.9375,932.9718 L387.5,973.9335 L389.0625,981.1428 L390.625,971.197 L392.1875,981.9352 L393.75,972.7075 L395.3125,937.07 L396.875,963.9858 L398.4375,903.4044 L400,981.6 L401.5625,978.1011 L403.125,961.5542 L404.6875,981.1721 L406.25,974.9478 L407.8125,988.7277 L409.375,930.8128 L410.9375,969.2155 L412.5,971.6365 L414.0625,976.5997 L415.625,968.4916 L417.1875,976.7878 L418.75,972.0206 L420.3125,962.0347 L421.875,967.9012 L423.4375,970.464 L425,985.8804 L426.5625,979.7784 L428.125,956.008 L429.6875,964.6746 L431.25,984.2246 L432.8125,978.1976 L434.375,970.9503 L435.9375,953.6398 L437.5,964.8685 L439.0625,961.2494 L440.625,972.0067 L442.1875,935.3707 L443.75,961.9547 L445.3125,982.4937 L446.875,962.6281 L448.4375,967.0401 L450,977.6821 L451.5625,976.6388 L453.125,978.6492 L454.6875,979.8082 L456.25,979.3336 L457.8125,985.5782 L459.375,967.0407 L460.9375,987.5507 L462.5,942.6299 L464.0625,986.0023 L465.625,919.231 L467.1875,970.1816 L468.75,973.8906 L470.3125,954.9647 L471.875,967.3651 L473.4375,964.3957 L475,961.6417 L476.5625,951.7231 L478.125,973.0841 L479.6875,965.2623 L481.25,977.9989 L482.8125,943.0696 L484.375,976.4589 L485.9375,970.046 L487.5,975.1292 L489.0625,975.3771 L490.625,892.3076 L492.1875,970.7205 L493.75,973.2368 " stroke="blue" fill="none" />
<text x="50" y="1040" font-family="Arial" font-size="12" fill="black">Episode Length (285)</text>
<text x="50" y="1055" font-family="Arial" font-size="10" fill="black">336</text>
<text x="50" y="1270" font-family="Arial" font-size="10" fill="black">87</text>
<path d="M50,1219.839 L51.5625,1221.446 L53.125,1194.94 L54.6875,1198.153 L56.25,1099.357 L57.8125,1181.285 L59.375,1215.823 L60.9375,1113.012 L62.5,1230.281 L64.0625,1218.233 L65.625,1223.052 L67.1875,1136.305 L68.75,1206.185 L70.3125,1168.434 L71.875,1184.498 L73.4375,1222.249 L75,1225.462 L76.5625,1191.727 L78.125,1206.988 L79.6875,1227.068 L81.25,1202.972 L82.8125,1194.94 L84.375,1232.691 L85.9375,1210.201 L87.5,1244.739 L89.0625,1173.253 L90.625,1145.141 L92.1875,1234.297 L93.75,1215.823 L95.3125,1223.855 L96.875,1198.153 L98.4375,1137.912 L100,1233.494 L101.5625,1203.775 L103.125,1205.381 L104.6875,1223.052 L106.25,1247.952 L107.8125,1207.791 L109.375,1202.972 L110.9375,1211.004 L112.5,1169.237 L114.0625,1187.711 L115.625,1217.43 L117.1875,1240.723 L118.75,1222.249 L120.3125,1199.759 L121.875,1179.679 L123.4375,1193.333 L125,1228.675 L126.5625,1209.398 L128.125,1196.546 L129.6875,1205.381 L131.25,1199.759 L132.8125,1221.446 L134.375,1219.839 L135.9375,1205.381 L137.5,1228.675 L139.0625,1198.956 L140.625,1213.414 L142.1875,1215.02 L143.75,1223.052 L145.3125,1190.924 L146.875,1190.924 L148.4375,1184.498 L150,1153.173 L151.5625,1232.691 L153.125,1228.675 L154.6875,1210.201 L156.25,1198.153 L157.8125,1161.205 L159.375,1229.478 L160.9375,1216.626 L162.5,1219.036 L164.0625,1214.217 L165.625,1224.659 L167.1875,1153.976 L168.75,1223.855 L170.3125,1217.43 L171.875,1174.859 L173.4375,1215.02 L175,1241.526 L176.5625,1197.349 L178.125,1175.663 L179.6875,1192.53 L181.25,1230.281 L182.8125,1178.072 L184.375,1243.936 L185.9375,1220.643 L187.5,1185.301 L189.0625,1169.237 L190.625,1227.068 L192.1875,1178.875 L193.75,1191.727 L195.3125,1204.578 L196.875,1190.924 L198.4375,1183.695 L200,1225.462 L201.5625,1225.462 L203.125,1213.414 L204.6875,1220.643 L206.25,1184.498 L207.8125,1103.374 L209.375,1232.691 L210.9375,1060 L212.5,1206.988 L214.0625,1223.855 L215.625,1210.201 L217.1875,1150.763 L218.75,1227.068 L220.3125,1213.414 L221.875,1216.626 L223.4375,1211.807 L225,1215.823 L226.5625,1189.317 L228.125,1229.478 L229.6875,1179.679 L231.25,1225.462 L232.8125,1222.249 L234.375,1211.807 L235.9375,1176.466 L237.5,1202.972 L239.0625,1225.462 L240.625,1231.084 L242.1875,1219.839 L243.75,1227.871 L245.3125,1175.663 L246.875,1156.385 L248.4375,1181.285 L250,1233.494 L251.5625,1231.888 L253.125,1190.924 L254.6875,1239.92 L256.25,1218.233 L257.8125,1186.104 L259.375,1227.871 L260.9375,1215.823 L262.5,1211.004 L264.0625,1192.53 L265.625,1222.249 L267.1875,1203.775 L268.75,1221.446 L270.3125,1166.827 L271.875,1218.233 L273.4375,1166.024 L275,1182.088 L276.5625,1179.679 L278.125,1204.578 L279.6875,1198.956 L281.25,1200.562 L282.8125,1154.779 L284.375,1220.643 L285.9375,1172.45 L287.5,1198.956 L289.0625,1227.068 L290.625,1214.217 L292.1875,1227.068 L293.75,1238.313 L295.3125,1199.759 L296.875,1235.904 L298.4375,1200.562 L300,1188.514 L301.5625,1223.052 L303.125,1212.61 L304.6875,1242.329 L306.25,1209.398 L307.8125,1136.305 L309.375,1181.285 L310.9375,1187.711 L312.5,1186.908 L314.0625,1217.43 L315.625,1225.462 L317.1875,1187.711 L318.75,1190.12 L320.3125,1231.084 L321.875,1236.707 L323.4375,1226.265 L325,1194.137 L326.5625,1237.51 L328.125,1215.823 L329.6875,1206.988 L331.25,1217.43 L332.8125,1215.823 L334.375,1214.217 L335.9375,1221.446 L337.5,1202.972 L339.0625,1235.1 L340.625,1163.615 L342.1875,1238.313 L343.75,1227.068 L345.3125,1231.084 L346.875,1154.779 L348.4375,1230.281 L350,1225.462 L351.5625,1191.727 L353.125,1177.269 L354.6875,1198.956 L356.25,1213.414 L357.8125,1181.285 L359.375,1177.269 L360.9375,1239.116 L362.5,1177.269 L364.0625,1215.02 L365.625,1215.02 L367.1875,1230.281 L368.75,1248.755 L370.3125,1190.924 L371.875,1260 L373.4375,1231.084 L375,1225.462 L376.5625,1156.385 L378.125,1211.004 L379.6875,1237.51 L381.25,1187.711 L382.8125,1226.265 L384.375,1227.871 L385.9375,1166.827 L387.5,1230.281 L389.0625,1234.297 L390.625,1225.462 L392.1875,1239.116 L393.75,1221.446 L395.3125,1174.056 L396.875,1208.594 L398.4375,1149.157 L400,1240.723 L401.5625,1232.691 L403.125,1206.185 L404.6875,1240.723 L406.25,1231.084 L407.8125,1251.968 L409.375,1170.843 L410.9375,1220.643 L412.5,1218.233 L414.0625,1233.494 L415.625,1217.43 L417.1875,1228.675 L418.75,1222.249 L420.3125,1207.791 L421.875,1220.643 L423.4375,1219.839 L425,1249.558 L426.5625,1233.494 L428.125,1198.956 L429.6875,1215.02 L431.25,1241.526 L432.8125,1233.494 L434.375,1221.446 L435.9375,1191.727 L437.5,1216.626 L439.0625,1206.185 L440.625,1224.659 L442.1875,1179.679 L443.75,1205.381 L445.3125,1240.723 L446.875,1211.807 L448.4375,1214.217 L450,1230.281 L451.5625,1232.691 L453.125,1233.494 L454.6875,1238.313 L456.25,1236.707 L457.8125,1246.345 L459.375,1215.823 L460.9375,1254.378 L462.5,1182.088 L464.0625,1248.755 L465.625,1156.385 L467.1875,1222.249 L468.75,1226.265 L470.3125,1198.153 L471.875,1212.61 L473.4375,1209.398 L475,1205.381 L476.5625,1195.743 L478.125,1227.068 L479.6875,1212.61 L481.25,1231.084 L482.8125,1182.892 L484.375,1231.888 L485.9375,1223.052 L487.5,1229.478 L489.0625,1231.888 L490.625,1137.108 L492.1875,1224.659 L493.75,1225.462 " stroke="blue" fill="none" />
<text x="50" y="1310" font-family="Arial" font-size="12" fill="black">Policy Loss</text>
<text x="50" y="1325" font-family="Arial" font-size="10" fill="black">0.07469638</text>
<text x="50" y="1540" font-family="Arial" font-size="10" fill="black">0.004625171</text>
<path d="M50,1355.471 L51.5625,1515.066 L53.125,1510.185 L54.6875,1515.938 L56.25,1518.239 L57.8125,1525.782 L59.375,1519.033 L60.9375,1512.581 L62.5,1434.935 L64.0625,1511.817 L65.625,1515.727 L67.1875,1518.969 L68.75,1514.535 L70.3125,1517.987 L71.875,1512.763 L73.4375,1522.031 L75,1376.113 L76.5625,1524.492 L78.125,1517.248 L79.6875,1526.687 L81.25,1518.617 L82.8125,1517.443 L84.375,1517.712 L85.9375,1521.959 L87.5,1398.116 L89.0625,1520.068 L90.625,1516.139 L92.1875,1519.9 L93.75,1524.143 L95.3125,1526.125 L96.875,1523.631 L98.4375,1521.678 L100,1413.414 L101.5625,1521.027 L103.125,1518.408 L104.6875,1503.167 L106.25,1516.768 L107.8125,1525.499 L109.375,1520.116 L110.9375,1511.074 L112.5,1363.797 L114.0625,1521.694 L115.625,1514.304 L117.1875,1518.968 L118.75,1517.262 L120.3125,1517.369 L121.875,1518.22 L123.4375,1530 L125,1394.822 L126.5625,1516.599 L128.125,1510.613 L129.6875,1521.319 L131.25,1521.807 L132.8125,1523.666 L134.375,1513.006 L135.9375,1520.858 L137.5,1384.563 L139.0625,1511.319 L140.625,1514.9 L142.1875,1517.72 L143.75,1522.793 L145.3125,1511.223 L146.875,1512.118 L148.4375,1520.288 L150,1330 L151.5625,1514.068 L153.125,1519.498 L154.6875,1517.278 L156.25,1520.417 L157.8125,1515.453 L159.375,1520.947 L160.9375,1524.229 L162.5,1385.649 L164.0625,1510.575 L165.625,1521.911 L167.1875,1516.931 L168.75,1517.13 L170.3125,1519.997 L171.875,1523.531 L173.4375,1509.955 L175,1421.891 L176.5625,1516.558 L178.125,1520.447 L179.6875,1510.804 L181.25,1519.067 L182.8125,1518.212 L184.375,1516.747 L185.9375,1519.615 L187.5,1387.263 L189.0625,1512.623 L190.625,1503.492 L192.1875,1524.96 L193.75,1522.036 L195.3125,1515.623 L196.875,1521.305 L198.4375,1515.108 L200,1353.973 L201.5625,1505.998 L203.125,1523.052 L204.6875,1517.272 L206.25,1529.339 L207.8125,1510.702 L209.375,1520.601 L210.9375,1522.992 L212.5,1446.094 L214.0625,1517.012 L215.625,1516.444 L217.1875,1517.889 L218.75,1509.546 L220.3125,1522.308 L221.875,1504.843 L223.4375,1515.612 L225,1371.72 L226.5625,1515.168 L228.125,1527.326 L229.6875,1527.165 L231.25,1515.028 L232.8125,1516.785 L234.375,1517.505 L235.9375,1510.438 L237.5,1381.178 L239.0625,1522.476 L240.625,1521.584 L242.1875,1524.497 L243.75,1523.825 L245.3125,1511.373 L246.875,1513.572 L248.4375,1524.689 L250,1402.382 L251.5625,1517.635 L253.125,1515.312 L254.6875,1521.904 L256.25,1517.65 L257.8125,1512 L259.375,1521.038 L260.9375,1518.227 L262.5,1434.331 L264.0625,1519.011 L265.625,1515.744 L267.1875,1525.702 L268.75,1520.299 L270.3125,1513.072 L271.875,1517.869 L273.4375,1522.395 L275,1425.766 L276.5625,1517.339 L278.125,1520.603 L279.6875,1521.706 L281.25,1510.664 L282.8125,1519.743 L284.375,1516.546 L285.9375,1526.913 L287.5,1405.674 L289.0625,1522.245 L290.625,1518.844 L292.1875,1516.613 L293.75,1524.115 L295.3125,1521.919 L296.875,1520.38 L298.4375,1511.927 L300,1392.09 L301.5625,1517.584 L303.125,1513.433 L304.6875,1520.159 L306.25,1518.299 L307.8125,1518.103 L309.375,1518.945 L310.9375,1517.619 " stroke="blue" fill="none" />
<text x="50" y="1580" font-family="Arial" font-size="12" fill="black">Value Loss</text>
<text x="50" y="1595" font-family="Arial" font-size="10" fill="black">0.002675223</text>
<text x="50" y="1810" font-family="Arial" font-size="10" fill="black">0.0001715282</text>
<path d="M50,1665.755 L51.5625,1734.717 L53.125,1752.904 L54.6875,1763.298 L56.25,1769.874 L57.8125,1774.46 L59.375,1777.789 L60.9375,1780.022 L62.5,1704.274 L64.0625,1748.414 L65.625,1766.336 L67.1875,1773.266 L68.75,1777.211 L70.3125,1779.807 L71.875,1781.666 L73.4375,1783.104 L75,1716.087 L76.5625,1748.039 L78.125,1767.474 L79.6875,1775.439 L81.25,1780.22 L82.8125,1783.371 L84.375,1785.421 L85.9375,1787.494 L87.5,1750.706 L89.0625,1780.636 L90.625,1788.057 L92.1875,1791.588 L93.75,1793.298 L95.3125,1794.721 L96.875,1795.62 L98.4375,1796.414 L100,1748.754 L101.5625,1766.867 L103.125,1784.091 L104.6875,1789.896 L106.25,1792.778 L107.8125,1794.277 L109.375,1795.264 L110.9375,1795.968 L112.5,1757.416 L114.0625,1783.574 L115.625,1789.096 L117.1875,1791.92 L118.75,1793.487 L120.3125,1794.774 L121.875,1795.607 L123.4375,1796.26 L125,1740.965 L126.5625,1763.983 L128.125,1771.01 L129.6875,1775.911 L131.25,1778.884 L132.8125,1781.24 L134.375,1783.066 L135.9375,1784.619 L137.5,1704.56 L139.0625,1744.412 L140.625,1764.868 L142.1875,1772.848 L143.75,1778.075 L145.3125,1781.572 L146.875,1783.743 L148.4375,1785.479 L150,1600.001 L151.5625,1688.438 L153.125,1723.656 L154.6875,1735.388 L156.25,1741.309 L157.8125,1745.698 L159.375,1749.883 L160.9375,1752.544 L162.5,1751.636 L164.0625,1771.812 L165.625,1782.278 L167.1875,1786.173 L168.75,1788.695 L170.3125,1790.387 L171.875,1791.695 L173.4375,1792.843 L175,1757.832 L176.5625,1778.125 L178.125,1786.899 L179.6875,1790.736 L181.25,1792.905 L182.8125,1794.614 L184.375,1795.89 L185.9375,1796.755 L187.5,1758.307 L189.0625,1774.398 L190.625,1785.933 L192.1875,1790.131 L193.75,1792.257 L195.3125,1793.818 L196.875,1794.963 L198.4375,1795.976 L200,1740.736 L201.5625,1760.397 L203.125,1775.729 L204.6875,1781.738 L206.25,1784.928 L207.8125,1786.576 L209.375,1788.172 L210.9375,1789.12 L212.5,1782.601 L214.0625,1789.788 L215.625,1794.651 L217.1875,1797.043 L218.75,1798.239 L220.3125,1799.123 L221.875,1799.6 L223.4375,1800 L225,1744.881 L226.5625,1766.746 L228.125,1776.334 L229.6875,1781.131 L231.25,1784.232 L232.8125,1786.162 L234.375,1787.731 L235.9375,1788.719 L237.5,1743.898 L239.0625,1766.733 L240.625,1779.375 L242.1875,1784.743 L243.75,1787.104 L245.3125,1788.638 L246.875,1789.516 L248.4375,1790.763 L250,1743.387 L251.5625,1770.702 L253.125,1779.199 L254.6875,1782.708 L256.25,1784.964 L257.8125,1786.473 L259.375,1787.842 L260.9375,1788.851 L262.5,1722.262 L264.0625,1766.357 L265.625,1778.727 L267.1875,1783.992 L268.75,1786.44 L270.3125,1788.253 L271.875,1789.799 L273.4375,1791.032 L275,1767.975 L276.5625,1783.444 L278.125,1791.49 L279.6875,1794.25 L281.25,1795.899 L282.8125,1796.968 L284.375,1797.73 L285.9375,1798.4 L287.5,1758.41 L289.0625,1778.22 L290.625,1789.057 L292.1875,1792.92 L293.75,1795.03 L295.3125,1796.292 L296.875,1797.279 L298.4375,1798.021 L300,1757.888 L301.5625,1776.434 L303.125,1788.38 L304.6875,1792.377 L306.25,1794.241 L307.8125,1795.771 L309.375,1796.599 L310.9375,1797.327 " stroke="blue" fill="none" />
<text x="50" y="1850" font-family="Arial" font-size="12" fill="black">Learning Rate</text>
<text x="50" y="1865" font-family="Arial" font-size="10" fill="black">0.0003</text>
<text x="50" y="2080" font-family="Arial" font-size="10" fill="black">0.0003</text>
<path d="M50,2070 L51.5625,2070 L53.125,2070 L54.6875,2070 L56.25,2070 L57.8125,2070 L59.375,2070 L60.9375,2070 L62.5,2070 L64.0625,2070 L65.625,2070 L67.1875,2070 L68.75,2070 L70.3125,2070 L71.875,2070 L73.4375,2070 L75,2070 L76.5625,2070 L78.125,2070 L79.6875,2070 L81.25,2070 L82.8125,2070 L84.375,2070 L85.9375,2070 L87.5,2070 L89.0625,2070 L90.625,2070 L92.1875,2070 L93.75,2070 L95.3125,2070 L96.875,2070 L98.4375,2070 L100,2070 L101.5625,2070 L103.125,2070 L104.6875,2070 L106.25,2070 L107.8125,2070 L109.375,2070 L110.9375,2070 L112.5,2070 L114.0625,2070 L115.625,2070 L117.1875,2070 L118.75,2070 L120.3125,2070 L121.875,2070 L123.4375,2070 L125,2070 L126.5625,2070 L128.125,2070 L129.6875,2070 L131.25,2070 L132.8125,2070 L134.375,2070 L135.9375,2070 L137.5,2070 L139.0625,2070 L140.625,2070 L142.1875,2070 L143.75,2070 L145.3125,2070 L146.875,2070 L148.4375,2070 L150,2070 L151.5625,2070 L153.125,2070 L154.6875,2070 L156.25,2070 L157.8125,2070 L159.375,2070 L160.9375,2070 L162.5,2070 L164.0625,2070 L165.625,2070 L167.1875,2070 L168.75,2070 L170.3125,2070 L171.875,2070 L173.4375,2070 L175,2070 L176.5625,2070 L178.125,2070 L179.6875,2070 L181.25,2070 L182.8125,2070 L184.375,2070 L185.9375,2070 L187.5,2070 L189.0625,2070 L190.625,2070 L192.1875,2070 L193.75,2070 L195.3125,2070 L196.875,2070 L198.4375,2070 L200,2070 L201.5625,2070 L203.125,2070 L204.6875,2070 L206.25,2070 L207.8125,2070 L209.375,2070 L210.9375,2070 L212.5,2070 L214.0625,2070 L215.625,2070 L217.1875,2070 L218.75,2070 L220.3125,2070 L221.875,2070 L223.4375,2070 L225,2070 L226.5625,2070 L228.125,2070 L229.6875,2070 L231.25,2070 L232.8125,2070 L234.375,2070 L235.9375,2070 L237.5,2070 L239.0625,2070 L240.625,2070 L242.1875,2070 L243.75,2070 L245.3125,2070 L246.875,2070 L248.4375,2070 L250,2070 L251.5625,2070 L253.125,2070 L254.6875,2070 L256.25,2070 L257.8125,2070 L259.375,2070 L260.9375,2070 L262.5,2070 L264.0625,2070 L265.625,2070 L267.1875,2070 L268.75,2070 L270.3125,2070 L271.875,2070 L273.4375,2070 L275,2070 L276.5625,2070 L278.125,2070 L279.6875,2070 L281.25,2070 L282.8125,2070 L284.375,2070 L285.9375,2070 L287.5,2070 L289.0625,2070 L290.625,2070 L292.1875,2070 L293.75,2070 L295.3125,2070 L296.875,2070 L298.4375,2070 L300,2070 L301.5625,2070 L303.125,2070 L304.6875,2070 L306.25,2070 L307.8125,2070 L309.375,2070 L310.9375,2070 " stroke="blue" fill="none" />
<text x="50" y="2120" font-family="Arial" font-size="12" fill="black">Entropy</text>
<text x="50" y="2135" font-family="Arial" font-size="10" fill="black">0.1773676</text>
<text x="50" y="2350" font-family="Arial" font-size="10" fill="black">0.113514</text>
<path d="M50,2279.646 L51.5625,2279.646 L53.125,2279.646 L54.6875,2279.646 L56.25,2279.646 L57.8125,2279.646 L59.375,2279.646 L60.9375,2279.646 L62.5,2227.366 L64.0625,2227.366 L65.625,2227.366 L67.1875,2227.366 L68.75,2227.366 L70.3125,2227.366 L71.875,2227.366 L73.4375,2227.366 L75,2227.366 L76.5625,2227.366 L78.125,2227.366 L79.6875,2227.366 L81.25,2227.366 L82.8125,2227.366 L84.375,2227.366 L85.9375,2227.366 L87.5,2227.366 L89.0625,2227.366 L90.625,2227.366 L92.1875,2227.366 L93.75,2227.366 L95.3125,2227.366 L96.875,2227.366 L98.4375,2227.366 L100,2227.366 L101.5625,2227.366 L103.125,2227.366 L104.6875,2227.366 L106.25,2227.366 L107.8125,2227.366 L109.375,2227.366 L110.9375,2227.366 L112.5,2227.366 L114.0625,2227.366 L115.625,2227.366 L117.1875,2227.366 L118.75,2227.366 L120.3125,2227.366 L121.875,2227.366 L123.4375,2227.366 L125,2227.366 L126.5625,2227.366 L128.125,2227.366 L129.6875,2227.366 L131.25,2227.366 L132.8125,2227.366 L134.375,2227.366 L135.9375,2227.366 L137.5,2227.366 L139.0625,2227.366 L140.625,2227.366 L142.1875,2227.366 L143.75,2227.366 L145.3125,2227.366 L146.875,2227.366 L148.4375,2227.366 L150,2227.366 L151.5625,2227.366 L153.125,2227.366 L154.6875,2227.366 L156.25,2227.366 L157.8125,2227.366 L159.375,2227.366 L160.9375,2227.366 L162.5,2227.366 L164.0625,2227.366 L165.625,2227.366 L167.1875,2227.366 L168.75,2227.366 L170.3125,2227.366 L171.875,2227.366 L173.4375,2227.366 L175,2227.366 L176.5625,2227.366 L178.125,2227.366 L179.6875,2227.366 L181.25,2227.366 L182.8125,2227.366 L184.375,2227.366 L185.9375,2227.366 L187.5,2227.366 L189.0625,2227.366 L190.625,2227.366 L192.1875,2227.366 L193.75,2227.366 L195.3125,2227.366 L196.875,2227.366 L198.4375,2227.366 L200,2227.366 L201.5625,2227.366 L203.125,2227.366 L204.6875,2227.366 L206.25,2227.366 L207.8125,2227.366 L209.375,2227.366 L210.9375,2227.366 L212.5,2140 L214.0625,2140 L215.625,2140 L217.1875,2140 L218.75,2140 L220.3125,2140 L221.875,2140 L223.4375,2140 L225,2140 L226.5625,2140 L228.125,2140 L229.6875,2140 L231.25,2140 L232.8125,2140 L234.375,2140 L235.9375,2140 L237.5,2140 L239.0625,2140 L240.625,2140 L242.1875,2140 L243.75,2140 L245.3125,2140 L246.875,2140 L248.4375,2140 L250,2140 L251.5625,2140 L253.125,2140 L254.6875,2140 L256.25,2140 L257.8125,2140 L259.375,2140 L260.9375,2140 L262.5,2140 L264.0625,2140 L265.625,2140 L267.1875,2140 L268.75,2140 L270.3125,2140 L271.875,2140 L273.4375,2140 L275,2140 L276.5625,2140 L278.125,2140 L279.6875,2140 L281.25,2140 L282.8125,2140 L284.375,2140 L285.9375,2140 L287.5,2140 L289.0625,2140 L290.625,2140 L292.1875,2140 L293.75,2140 L295.3125,2140 L296.875,2140 L298.4375,2140 L300,2340 L301.5625,2340 L303.125,2340 L304.6875,2340 L306.25,2340 L307.8125,2340 L309.375,2340 L310.9375,2340 " stroke="blue" fill="none" />
<text x="750" y="770" font-family="Arial" font-size="12" fill="black">Simplified</text>
<text x="750" y="785" font-family="Arial" font-size="10" fill="black">2.423472</text>
<text x="750" y="1000" font-family="Arial" font-size="10" fill="black">1.379864</text>
<path d="M778.125,790 L807.8125,902.0161 L837.5,912.0963 L867.1875,876.8329 L896.875,875.9443 L926.5625,797.7657 L956.25,909.7952 L985.9375,848.0606 L1015.625,902.4858 L1045.313,945.9498 L1075,909.5004 L1104.688,923.0689 L1134.375,990 L1164.063,978.7419 L1193.75,909.973 " stroke="blue" fill="none" />
<text x="750" y="1040" font-family="Arial" font-size="12" fill="black">Simplified</text>
<text x="750" y="1055" font-family="Arial" font-size="10" fill="black">171.0526</text>
<text x="750" y="1270" font-family="Arial" font-size="10" fill="black">133.1053</text>
<path d="M778.125,1060 L807.8125,1165.409 L837.5,1157.365 L867.1875,1129.625 L896.875,1129.625 L926.5625,1079.972 L956.25,1171.512 L985.9375,1090.513 L1015.625,1162.08 L1045.313,1210.624 L1075,1172.621 L1104.688,1183.994 L1134.375,1260 L1164.063,1250.846 L1193.75,1172.621 " stroke="blue" fill="none" />
</svg>
