<svg width="2000" height="2500" xmlns="http://www.w3.org/2000/svg">
<text x="10" y="20" font-family="Arial" font-size="26" fill="black"> [HumanWalk] Training Session</text>
<text x="10" y="50" font-family="Arial" font-size="16" fill="black">[Statistics]</text>
<text x="50" y="70" font-family="Arial" font-size="12" fill="black">Started at: 10:01:49 AM, Sunday, November 26, 2023</text>
<text x="50" y="90" font-family="Arial" font-size="12" fill="black">Finished at: 10:05:13 AM, Sunday, November 26, 2023</text>
<text x="50" y="110" font-family="Arial" font-size="12" fill="black">Training Session Time: 0 hrs : 3 min : 23 sec</text>
<text x="50" y="130" font-family="Arial" font-size="12" fill="black">Inference Time: 0 hrs : 7 min : 0 sec       [Per agent: 0 hrs : 7 min : 0 sec]        [Device: CPU]</text>
<text x="50" y="150" font-family="Arial" font-size="12" fill="black">Policy Update Time: 0 hrs : 0 min : 43 sec        [Per iteration: 0 hrs : 0 min : 8 sec]        [Device: GPU]</text>
<text x="50" y="170" font-family="Arial" font-size="12" fill="black">Inference Time / Training Session Time: 2.047</text>
<text x="50" y="190" font-family="Arial" font-size="12" fill="black">Policy Update Time / Training Session Time: 0.215</text>
<text x="50" y="210" font-family="Arial" font-size="12" fill="black">Episode Count: 193</text>
<text x="50" y="230" font-family="Arial" font-size="12" fill="black">Inference Steps: 21045    [Per agent: 21045]     [Per Episode (mean): 109]</text>
<text x="50" y="250" font-family="Arial" font-size="12" fill="black">Iterations: 5</text>
<text x="50" y="270" font-family="Arial" font-size="12" fill="black">Parallel Agents: 1</text>
<text x="50" y="290" font-family="Arial" font-size="12" fill="black">Timescale: 2.475527</text>
<text x="50" y="310" font-family="Arial" font-size="12" fill="black">Trainer: PPO</text>
<text x="10" y="360" font-family="Arial" font-size="16" fill="black">[Hyperparameters]</text>
<text x="50" y="380" font-family="Arial" font-size="12" fill="black">Buffer Size: 4096        [Batch Size: 256       (x16)]</text>
<text x="50" y="400" font-family="Arial" font-size="12" fill="black">Num Epoch: 7</text>
<text x="50" y="420" font-family="Arial" font-size="12" fill="black">Time Horizon: 256</text>
<text x="50" y="440" font-family="Arial" font-size="12" fill="black">Gradient Cliping Normalization: 0.5</text>
<text x="50" y="460" font-family="Arial" font-size="12" fill="black">Learning Rate Schedule: False    </text>
<text x="10" y="510" font-family="Arial" font-size="16" fill="black">[Behaviour]</text>
<text x="50" y="530" font-family="Arial" font-size="12" fill="black">Space Size: 189</text>
<text x="50" y="550" font-family="Arial" font-size="12" fill="black">Continuous Actions: 40 [Standard Deviation: Fixed]     [Value: 0.65]</text>
<text x="50" y="570" font-family="Arial" font-size="12" fill="black">Discrete Actions: 0</text>
<text x="50" y="590" font-family="Arial" font-size="12" fill="black">TargetFPS: 100 (physics update rate)</text>
<text x="50" y="610" font-family="Arial" font-size="12" fill="black">Observations Normalization: True</text>
<text x="10" y="660" font-family="Arial" font-size="16" fill="black">[Decision Requester]</text>
<text x="50" y="680" font-family="Arial" font-size="12" fill="black">Max Step: 5000</text>
<text x="50" y="700" font-family="Arial" font-size="12" fill="black">Decision Period: 2      [Actions Between Decisions: True]</text>
<text x="10" y="750" font-family="Arial" font-size="16" fill="black">[Graphs]</text>
<text x="50" y="770" font-family="Arial" font-size="12" fill="black">Episode Reward (193)</text>
<text x="50" y="785" font-family="Arial" font-size="10" fill="black">19.48072</text>
<text x="50" y="1000" font-family="Arial" font-size="10" fill="black">1.984376</text>
<path d="M50,911.5768 L51.5625,950.0311 L53.125,979.6185 L54.6875,946.7084 L56.25,975.6602 L57.8125,987.1664 L59.375,790 L60.9375,979.2525 L62.5,972.1571 L64.0625,964.1612 L65.625,988.6552 L67.1875,981.1403 L68.75,964.7095 L70.3125,942.7953 L71.875,974.7145 L73.4375,946.9652 L75,961.3841 L76.5625,947.9274 L78.125,987.88 L79.6875,963.7224 L81.25,920.6206 L82.8125,961.5822 L84.375,968.7421 L85.9375,981.602 L87.5,882.591 L89.0625,969.1613 L90.625,967.0486 L92.1875,948.3255 L93.75,938.3471 L95.3125,982.687 L96.875,966.8976 L98.4375,963.6632 L100,959.076 L101.5625,980.4854 L103.125,965.2514 L104.6875,923.4958 L106.25,936.2794 L107.8125,952.2161 L109.375,950.3694 L110.9375,868.642 L112.5,827.2579 L114.0625,962.4591 L115.625,951.1545 L117.1875,905.5957 L118.75,968.2197 L120.3125,931.9809 L121.875,948.0811 L123.4375,866.9252 L125,963.8413 L126.5625,935.5145 L128.125,935.4458 L129.6875,881.4183 L131.25,903.3578 L132.8125,974.5377 L134.375,972.7163 L135.9375,953.4728 L137.5,941.392 L139.0625,914.7698 L140.625,958.1509 L142.1875,952.8111 L143.75,968.6688 L145.3125,961.6254 L146.875,972.0065 L148.4375,960.7933 L150,958.3938 L151.5625,969.3699 L153.125,957.3519 L154.6875,968.3516 L156.25,980.2514 L157.8125,964.9177 L159.375,942.9272 L160.9375,986.9349 L162.5,950.5986 L164.0625,948.7928 L165.625,973.7957 L167.1875,982.5971 L168.75,941.5917 L170.3125,967.6611 L171.875,959.4076 L173.4375,907.5851 L175,911.0305 L176.5625,942.5667 L178.125,946.1533 L179.6875,962.3226 L181.25,971.708 L182.8125,963.1469 L184.375,934.6146 L185.9375,972.0992 L187.5,984.5679 L189.0625,971.9174 L190.625,954.4494 L192.1875,971.9082 L193.75,984.981 L195.3125,967.6868 L196.875,979.8373 L198.4375,981.8478 L200,935.3016 L201.5625,935.3937 L203.125,943.0898 L204.6875,970.2214 L206.25,908.1406 L207.8125,956.8162 L209.375,977.1839 L210.9375,963.6058 L212.5,950.5587 L214.0625,953.4744 L215.625,974.5121 L217.1875,918.059 L218.75,963.0292 L220.3125,941.3226 L221.875,963.2192 L223.4375,983.6972 L225,956.5446 L226.5625,897.5706 L228.125,959.7082 L229.6875,943.1055 L231.25,989.4308 L232.8125,936.634 L234.375,972.0599 L235.9375,982.519 L237.5,976.8861 L239.0625,944.937 L240.625,836.6741 L242.1875,972.1927 L243.75,922.2224 L245.3125,978.9069 L246.875,963.539 L248.4375,955.0974 L250,960.3912 L251.5625,965.1942 L253.125,956.3388 L254.6875,982.2933 L256.25,968.418 L257.8125,892.1906 L259.375,960.4382 L260.9375,942.3289 L262.5,913.0836 L264.0625,990 L265.625,970.2078 L267.1875,948.7779 L268.75,980.7141 L270.3125,977.1507 L271.875,948.8607 L273.4375,976.3468 L275,946.6508 L276.5625,960.2347 L278.125,940.4974 L279.6875,917.9385 L281.25,944.7051 L282.8125,974.0607 L284.375,977.8111 L285.9375,915.473 L287.5,940.3129 L289.0625,972.9986 L290.625,966.3914 L292.1875,953.7026 L293.75,956.0368 L295.3125,960.6281 L296.875,951.5466 L298.4375,963.085 L300,975.8204 L301.5625,971.7709 L303.125,950.061 L304.6875,975.7585 L306.25,950.1226 L307.8125,983.3776 L309.375,954.9601 L310.9375,955.2877 L312.5,976.9792 L314.0625,958.832 L315.625,966.3531 L317.1875,962.9635 L318.75,904.4128 L320.3125,928.5859 L321.875,970.2276 L323.4375,977.025 L325,944.7653 L326.5625,968.3355 L328.125,973.9257 L329.6875,977.0058 L331.25,914.4012 L332.8125,981.8903 L334.375,982.7501 L335.9375,972.5671 L337.5,964.4097 L339.0625,974.4545 L340.625,948.8439 L342.1875,957.187 L343.75,979.9096 L345.3125,923.7225 L346.875,933.9441 L348.4375,927.7568 L350,960.5443 " stroke="blue" fill="none" />
<text x="50" y="1040" font-family="Arial" font-size="12" fill="black">Episode Length (193)</text>
<text x="50" y="1055" font-family="Arial" font-size="10" fill="black">232</text>
<text x="50" y="1270" font-family="Arial" font-size="10" fill="black">63</text>
<path d="M50,1155.858 L51.5625,1197.278 L53.125,1237.515 L54.6875,1191.361 L56.25,1235.148 L57.8125,1250.533 L59.375,1060 L60.9375,1237.515 L62.5,1226.864 L64.0625,1215.03 L65.625,1251.716 L67.1875,1242.249 L68.75,1220.947 L70.3125,1191.361 L71.875,1232.781 L73.4375,1193.728 L75,1210.296 L76.5625,1199.645 L78.125,1255.266 L79.6875,1217.396 L81.25,1165.325 L82.8125,1210.296 L84.375,1224.497 L85.9375,1239.882 L87.5,1129.823 L89.0625,1220.947 L90.625,1225.68 L92.1875,1193.728 L93.75,1185.444 L95.3125,1246.982 L96.875,1218.58 L98.4375,1218.58 L100,1207.929 L101.5625,1239.882 L103.125,1219.763 L104.6875,1165.325 L106.25,1184.26 L107.8125,1197.278 L109.375,1197.278 L110.9375,1120.355 L112.5,1084.852 L114.0625,1211.479 L115.625,1199.645 L117.1875,1146.391 L118.75,1222.13 L120.3125,1179.527 L121.875,1191.361 L123.4375,1120.355 L125,1217.396 L126.5625,1180.71 L128.125,1179.527 L129.6875,1131.006 L131.25,1146.391 L132.8125,1230.414 L134.375,1226.864 L135.9375,1200.828 L137.5,1186.627 L139.0625,1154.675 L140.625,1209.112 L142.1875,1203.195 L143.75,1224.497 L145.3125,1212.663 L146.875,1229.231 L148.4375,1210.296 L150,1206.746 L151.5625,1225.68 L153.125,1204.379 L154.6875,1222.13 L156.25,1238.698 L157.8125,1220.947 L159.375,1188.994 L160.9375,1250.533 L162.5,1198.462 L164.0625,1198.462 L165.625,1226.864 L167.1875,1246.982 L168.75,1190.177 L170.3125,1224.497 L171.875,1212.663 L173.4375,1149.941 L175,1152.308 L176.5625,1191.361 L178.125,1196.095 L179.6875,1211.479 L181.25,1223.314 L182.8125,1213.846 L184.375,1178.343 L185.9375,1229.231 L187.5,1245.799 L189.0625,1228.047 L190.625,1202.012 L192.1875,1225.68 L193.75,1246.982 L195.3125,1220.947 L196.875,1239.882 L198.4375,1246.982 L200,1184.26 L201.5625,1183.077 L203.125,1188.994 L204.6875,1224.497 L206.25,1155.858 L207.8125,1204.379 L209.375,1236.331 L210.9375,1213.846 L212.5,1202.012 L214.0625,1204.379 L215.625,1235.148 L217.1875,1164.142 L218.75,1217.396 L220.3125,1186.627 L221.875,1218.58 L223.4375,1244.615 L225,1205.562 L226.5625,1144.024 L228.125,1209.112 L229.6875,1186.627 L231.25,1260 L232.8125,1180.71 L234.375,1228.047 L235.9375,1242.249 L237.5,1233.964 L239.0625,1193.728 L240.625,1090.769 L242.1875,1229.231 L243.75,1171.243 L245.3125,1237.515 L246.875,1215.03 L248.4375,1202.012 L250,1211.479 L251.5625,1220.947 L253.125,1205.562 L254.6875,1243.432 L256.25,1223.314 L257.8125,1133.373 L259.375,1209.112 L260.9375,1191.361 L262.5,1158.225 L264.0625,1258.817 L265.625,1225.68 L267.1875,1200.828 L268.75,1238.698 L270.3125,1233.964 L271.875,1193.728 L273.4375,1233.964 L275,1191.361 L276.5625,1213.846 L278.125,1188.994 L279.6875,1162.959 L281.25,1188.994 L282.8125,1226.864 L284.375,1241.065 L285.9375,1159.408 L287.5,1190.177 L289.0625,1230.414 L290.625,1219.763 L292.1875,1200.828 L293.75,1207.929 L295.3125,1207.929 L296.875,1203.195 L298.4375,1219.763 L300,1236.331 L301.5625,1228.047 L303.125,1194.911 L304.6875,1230.414 L306.25,1200.828 L307.8125,1249.349 L309.375,1202.012 L310.9375,1203.195 L312.5,1237.515 L314.0625,1206.746 L315.625,1218.58 L317.1875,1213.846 L318.75,1147.574 L320.3125,1173.609 L321.875,1222.13 L323.4375,1236.331 L325,1190.177 L326.5625,1220.947 L328.125,1226.864 L329.6875,1232.781 L331.25,1160.592 L332.8125,1246.982 L334.375,1244.615 L335.9375,1225.68 L337.5,1219.763 L339.0625,1231.598 L340.625,1202.012 L342.1875,1210.296 L343.75,1239.882 L345.3125,1171.243 L346.875,1181.893 L348.4375,1175.976 L350,1212.663 " stroke="blue" fill="none" />
<text x="50" y="1310" font-family="Arial" font-size="12" fill="black">Policy Loss</text>
<text x="50" y="1325" font-family="Arial" font-size="10" fill="black">0.02500008</text>
<text x="50" y="1540" font-family="Arial" font-size="10" fill="black">0.001932456</text>
<path d="M50,1400.183 L62.5,1522.089 L75,1521.035 L87.5,1521.218 L100,1513.714 L112.5,1522.021 L125,1521.841 L137.5,1330 L150,1518.37 L162.5,1515.176 L175,1515.282 L187.5,1519.653 L200,1524.451 L212.5,1524.941 L225,1386.052 L237.5,1514.597 L250,1528.148 L262.5,1514.252 L275,1518.65 L287.5,1513.338 L300,1525.192 L312.5,1346.017 L325,1527.407 L337.5,1517.848 L350,1530 L362.5,1528.139 L375,1529.436 L387.5,1529.462 L400,1448.511 L412.5,1521.519 L425,1524.827 L437.5,1520.756 L450,1523.756 L462.5,1522.615 L475,1523.909 " stroke="blue" fill="none" />
<text x="50" y="1580" font-family="Arial" font-size="12" fill="black">Value Loss</text>
<text x="50" y="1595" font-family="Arial" font-size="10" fill="black">0.01216254</text>
<text x="50" y="1810" font-family="Arial" font-size="10" fill="black">0.004752971</text>
<path d="M50,1629.547 L62.5,1667.199 L75,1699.245 L87.5,1719.921 L100,1733.677 L112.5,1744.728 L125,1753.844 L137.5,1600 L150,1645.27 L162.5,1675.893 L175,1696.529 L187.5,1711.003 L200,1722.244 L212.5,1731.634 L225,1651.314 L237.5,1681.502 L250,1713.18 L262.5,1732.556 L275,1743.29 L287.5,1752.595 L300,1760.294 L312.5,1659.292 L325,1672.428 L337.5,1689.051 L350,1704.308 L362.5,1715.922 L375,1725.735 L387.5,1734.208 L400,1748.124 L412.5,1763.021 L425,1775.485 L437.5,1783.767 L450,1790.192 L462.5,1795.325 L475,1800 " stroke="blue" fill="none" />
<text x="50" y="1850" font-family="Arial" font-size="12" fill="black">Learning Rate</text>
<text x="50" y="1865" font-family="Arial" font-size="10" fill="black">0.0001</text>
<text x="50" y="2080" font-family="Arial" font-size="10" fill="black">0.0001</text>
<path d="M50,2070 L62.5,2070 L75,2070 L87.5,2070 L100,2070 L112.5,2070 L125,2070 L137.5,2070 L150,2070 L162.5,2070 L175,2070 L187.5,2070 L200,2070 L212.5,2070 L225,2070 L237.5,2070 L250,2070 L262.5,2070 L275,2070 L287.5,2070 L300,2070 L312.5,2070 L325,2070 L337.5,2070 L350,2070 L362.5,2070 L375,2070 L387.5,2070 L400,2070 L412.5,2070 L425,2070 L437.5,2070 L450,2070 L462.5,2070 L475,2070 " stroke="blue" fill="none" />
<text x="50" y="2120" font-family="Arial" font-size="12" fill="black">Entropy</text>
<text x="50" y="2135" font-family="Arial" font-size="10" fill="black">0.06175993</text>
<text x="50" y="2350" font-family="Arial" font-size="10" fill="black">0.06175993</text>
<path d="M50,2340 L62.5,2340 L75,2340 L87.5,2340 L100,2340 L112.5,2340 L125,2340 L137.5,2340 L150,2340 L162.5,2340 L175,2340 L187.5,2340 L200,2340 L212.5,2340 L225,2340 L237.5,2340 L250,2340 L262.5,2340 L275,2340 L287.5,2340 L300,2340 L312.5,2340 L325,2340 L337.5,2340 L350,2340 L362.5,2340 L375,2340 L387.5,2340 L400,2340 L412.5,2340 L425,2340 L437.5,2340 L450,2340 L462.5,2340 L475,2340 " stroke="blue" fill="none" />
<text x="750" y="770" font-family="Arial" font-size="12" fill="black">Simplified</text>
<text x="750" y="785" font-family="Arial" font-size="10" fill="black">7.36044</text>
<text x="750" y="1000" font-family="Arial" font-size="10" fill="black">4.406123</text>
<path d="M778.125,949.0048 L807.8125,942.5497 L837.5,790 L867.1875,986.5974 L896.875,962.3243 L926.5625,924.407 L956.25,953.3826 L985.9375,925.6169 L1015.625,990 L1045.313,966.1108 L1050,862.2636 " stroke="blue" fill="none" />
<text x="750" y="1040" font-family="Arial" font-size="12" fill="black">Simplified</text>
<text x="750" y="1055" font-family="Arial" font-size="10" fill="black">132.6842</text>
<text x="750" y="1270" font-family="Arial" font-size="10" fill="black">100.8947</text>
<path d="M778.125,1236.821 L807.8125,1210.662 L837.5,1060 L867.1875,1255.695 L896.875,1230.53 L926.5625,1196.424 L956.25,1231.192 L985.9375,1193.775 L1015.625,1260 L1045.313,1240.132 L1050,1127.219 " stroke="blue" fill="none" />
</svg>
