<svg width="2000" height="2500" xmlns="http://www.w3.org/2000/svg">
<text x="10" y="20" font-family="Arial" font-size="26" fill="black"> [HumanWalk] Training Session</text>
<text x="10" y="50" font-family="Arial" font-size="16" fill="black">[Statistics]</text>
<text x="50" y="70" font-family="Arial" font-size="12" fill="black">Started at: 11:20:57 AM, Tuesday, November 28, 2023</text>
<text x="50" y="90" font-family="Arial" font-size="12" fill="black">Finished at: 11:28:46 AM, Tuesday, November 28, 2023</text>
<text x="50" y="110" font-family="Arial" font-size="12" fill="black">Training Session Time: 0 hrs : 7 min : 48 sec</text>
<text x="50" y="130" font-family="Arial" font-size="12" fill="black">Inference Time: 0 hrs : 20 min : 27 sec       [Per agent: 0 hrs : 20 min : 27 sec]        [Device: CPU]</text>
<text x="50" y="150" font-family="Arial" font-size="12" fill="black">Policy Update Time: 0 hrs : 1 min : 37 sec        [Per iteration: 0 hrs : 0 min : 23 sec]        [Device: GPU]</text>
<text x="50" y="170" font-family="Arial" font-size="12" fill="black">Inference Time / Training Session Time: 2.619</text>
<text x="50" y="190" font-family="Arial" font-size="12" fill="black">Policy Update Time / Training Session Time: 0.207</text>
<text x="50" y="210" font-family="Arial" font-size="12" fill="black">Episode Count: 635</text>
<text x="50" y="230" font-family="Arial" font-size="12" fill="black">Inference Steps: 41073    [Per agent: 41073]     [Per Episode (mean): 64]</text>
<text x="50" y="250" font-family="Arial" font-size="12" fill="black">Iterations: 4</text>
<text x="50" y="270" font-family="Arial" font-size="12" fill="black">Parallel Agents: 1</text>
<text x="50" y="290" font-family="Arial" font-size="12" fill="black">Timescale: 2.592009</text>
<text x="50" y="310" font-family="Arial" font-size="12" fill="black">Trainer: PPO</text>
<text x="10" y="360" font-family="Arial" font-size="16" fill="black">[Hyperparameters]</text>
<text x="50" y="380" font-family="Arial" font-size="12" fill="black">Buffer Size: 10240        [Batch Size: 512       (x20)]</text>
<text x="50" y="400" font-family="Arial" font-size="12" fill="black">Num Epoch: 8</text>
<text x="50" y="420" font-family="Arial" font-size="12" fill="black">Time Horizon: 256</text>
<text x="50" y="440" font-family="Arial" font-size="12" fill="black">Gradient Cliping Normalization: 0.5</text>
<text x="50" y="460" font-family="Arial" font-size="12" fill="black">Learning Rate Schedule: False    </text>
<text x="10" y="510" font-family="Arial" font-size="16" fill="black">[Behaviour]</text>
<text x="50" y="530" font-family="Arial" font-size="12" fill="black">Space Size: 189</text>
<text x="50" y="550" font-family="Arial" font-size="12" fill="black">Continuous Actions: 40 [Standard Deviation: Fixed]     [Value: 0.3]</text>
<text x="50" y="570" font-family="Arial" font-size="12" fill="black">Discrete Actions: 0</text>
<text x="50" y="590" font-family="Arial" font-size="12" fill="black">TargetFPS: 100 (physics update rate)</text>
<text x="50" y="610" font-family="Arial" font-size="12" fill="black">Observations Normalization: True</text>
<text x="10" y="660" font-family="Arial" font-size="16" fill="black">[Decision Requester]</text>
<text x="50" y="680" font-family="Arial" font-size="12" fill="black">Max Step: 0</text>
<text x="50" y="700" font-family="Arial" font-size="12" fill="black">Decision Period: 3      [Actions Between Decisions: True]</text>
<text x="10" y="750" font-family="Arial" font-size="16" fill="black">[Graphs]</text>
<text x="50" y="770" font-family="Arial" font-size="12" fill="black">Episode Reward (635)</text>
<text x="50" y="785" font-family="Arial" font-size="10" fill="black">12.75811</text>
<text x="50" y="1000" font-family="Arial" font-size="10" fill="black">0.8443376</text>
<path d="M50,990 L50.78125,916.0244 L51.5625,943.8812 L52.34375,905.691 L53.125,910.7079 L53.90625,929.3932 L54.6875,948.8596 L55.46875,927.7789 L56.25,940.3895 L57.03125,941.6389 L57.8125,886.0491 L58.59375,906.4932 L59.375,956.8998 L60.15625,946.5349 L60.9375,813.9559 L61.71875,955.9357 L62.5,924.349 L63.28125,940.8442 L64.0625,931.8391 L64.84375,947.6235 L65.625,979.9901 L66.40625,929.6812 L67.1875,971.0107 L67.96875,925.7997 L68.75,949.6909 L69.53125,938.612 L70.3125,922.5657 L71.09375,939.8946 L71.875,954.7459 L72.65625,957.7376 L73.4375,937.6394 L74.21875,905.1285 L75,926.7549 L75.78125,934.3508 L76.5625,972.3184 L77.34375,890.702 L78.125,947.1649 L78.90625,962.5373 L79.6875,896.3019 L80.46875,939.3152 L81.25,944.2498 L82.03125,873.6945 L82.8125,921.191 L83.59375,950.5227 L84.375,955.6216 L85.15625,847.0085 L85.9375,911.1852 L86.71875,935.4446 L87.5,961.0251 L88.28125,916.7191 L89.0625,884.5657 L89.84375,956.1396 L90.625,884.4595 L91.40625,958.0214 L92.1875,932.2652 L92.96875,886.1112 L93.75,942.3786 L94.53125,979.8829 L95.3125,956.8428 L96.09375,952.5916 L96.875,954.4123 L97.65625,890.1668 L98.4375,959.2021 L99.21875,920.2178 L100,911.9854 L100.7813,900.3361 L101.5625,962.1368 L102.3438,889.2326 L103.125,938.645 L103.9063,887.4221 L104.6875,943.7782 L105.4688,920.2009 L106.25,926.7205 L107.0313,961.5135 L107.8125,910.8127 L108.5938,935.6208 L109.375,887.3884 L110.1563,909.8991 L110.9375,967.1129 L111.7188,937.3507 L112.5,944.74 L113.2813,923.6983 L114.0625,911.8177 L114.8438,946.2548 L115.625,956.6752 L116.4063,949.1582 L117.1875,912.6834 L117.9688,861.0728 L118.75,956.5406 L119.5313,959.6873 L120.3125,948.6457 L121.0938,960.3749 L121.875,963.4098 L122.6563,953.1438 L123.4375,885.0095 L124.2188,960.6792 L125,920.6259 L125.7813,958.1514 L126.5625,913.1516 L127.3438,968.476 L128.125,836.3723 L128.9063,942.2833 L129.6875,817.3911 L130.4688,956.7583 L131.25,970.9552 L132.0313,943.3002 L132.8125,964.7238 L133.5938,964.7657 L134.375,962.1068 L135.1563,969.2778 L135.9375,912.7275 L136.7188,953.6488 L137.5,926.5015 L138.2813,968.9892 L139.0625,949.1913 L139.8438,966.5095 L140.625,940.6599 L141.4063,845.301 L142.1875,965.5745 L142.9688,959.7379 L143.75,790 L144.5313,936.2484 L145.3125,948.1064 L146.0938,923.9559 L146.875,948.5397 L147.6563,942.9233 L148.4375,872.829 L149.2188,963.6808 L150,924.9346 L150.7813,945.2941 L151.5625,952.7537 L152.3438,917.0905 L153.125,970.8962 L153.9063,869.9979 L154.6875,959.5284 L155.4688,915.116 L156.25,913.3008 L157.0313,912.0791 L157.8125,959.377 L158.5938,947.6479 L159.375,959.7361 L160.1563,945.3298 L160.9375,965.2989 L161.7188,966.5375 L162.5,941.2802 L163.2813,941.4379 L164.0625,899.7337 L164.8438,960.0593 L165.625,969.3229 L166.4063,964.015 L167.1875,944.8513 L167.9688,958.8467 L168.75,966.5082 L169.5313,951.946 L170.3125,922.7103 L171.0938,941.3913 L171.875,966.2811 L172.6563,945.0027 L173.4375,946.6026 L174.2188,906.6726 L175,942.6962 L175.7813,944.8779 L176.5625,939.4291 L177.3438,933.3062 L178.125,880.6864 L178.9063,963.8276 L179.6875,940.205 L180.4688,944.2623 L181.25,922.1488 L182.0313,959.4464 L182.8125,937.056 L183.5938,865.2385 L184.375,961.0367 L185.1563,959.9361 L185.9375,950.6386 L186.7188,960.6164 L187.5,909.3486 L188.2813,937.1599 L189.0625,956.0438 L189.8438,928.6131 L190.625,923.85 L191.4063,941.2733 L192.1875,829.8458 L192.9688,962.3506 L193.75,956.796 L194.5313,961.2014 L195.3125,944.3621 L196.0938,969.5911 L196.875,942.4194 L197.6563,931.7487 L198.4375,886.1581 L199.2188,939.6964 L200,929.2685 L200.7813,900.9049 L201.5625,941.3917 L202.3438,958.2303 L203.125,949.8927 L203.9063,967.3407 L204.6875,921.703 L205.4688,940.2968 L206.25,937.0204 L207.0313,941.4228 L207.8125,916.9245 L208.5938,935.2017 L209.375,935.9269 L210.1563,960.3032 L210.9375,939.6169 L211.7188,977.6548 L212.5,962.4001 L213.2813,887.8 L214.0625,947.3267 L214.8438,947.7836 L215.625,956.4767 L216.4063,929.0936 L217.1875,929.9244 L217.9688,950.3521 L218.75,909.9155 L219.5313,971.1995 L220.3125,936.7736 L221.0938,954.3282 L221.875,947.8735 L222.6563,943.2005 L223.4375,921.4042 L224.2188,940.7438 L225,933.6268 L225.7813,939.489 L226.5625,946.4911 L227.3438,853.6198 L228.125,968.9952 L228.9063,965.3107 L229.6875,897.6467 L230.4688,929.6576 L231.25,945.7692 L232.0313,800.4421 L232.8125,910.8099 L233.5938,957.2299 L234.375,951.6677 L235.1563,901.4608 L235.9375,962.3318 L236.7188,877.3495 L237.5,900.1437 L238.2813,952.6201 L239.0625,953.5558 L239.8438,932.3839 L240.625,888.3076 L241.4063,962.6633 L242.1875,944.1688 L242.9688,968.459 L243.75,939.202 L244.5313,957.0127 L245.3125,903.5206 L246.0938,945.7321 L246.875,970.1874 L247.6563,945.9876 L248.4375,962.9846 L249.2188,880.8621 L250,968.2085 L250.7813,888.897 L251.5625,954.4419 L252.3438,951.9526 L253.125,816.2565 L253.9063,964.0937 L254.6875,973.2762 L255.4688,954.1888 L256.25,976.5646 L257.0313,945.0115 L257.8125,883.9775 L258.5938,944.7875 L259.375,949.0369 L260.1563,939.7954 L260.9375,962.1014 L261.7188,957.7172 L262.5,868.6771 L263.2813,910.8303 L264.0625,917.4563 L264.8438,966.463 L265.625,967.1655 L266.4063,942.7726 L267.1875,930.103 L267.9688,920.632 L268.75,933.7416 L269.5313,956.7924 L270.3125,926.2791 L271.0938,937.3908 L271.875,928.7742 L272.6563,930.4628 L273.4375,902.2667 L274.2188,924.495 L275,975.177 L275.7813,892.1102 L276.5625,955.7272 L277.3438,799.6995 L278.125,955.2214 L278.9063,919.2442 L279.6875,970.8298 L280.4688,956.764 L281.25,970.7432 L282.0313,953.7945 L282.8125,959.0483 L283.5938,953.8174 L284.375,963.5355 L285.1563,849.676 L285.9375,888.0652 L286.7188,958.7507 L287.5,921.8901 L288.2813,947.9202 L289.0625,952.511 L289.8438,969.4562 L290.625,964.7994 L291.4063,949.5262 L292.1875,943.6586 L292.9688,926.7318 L293.75,927.3547 L294.5313,845.1226 L295.3125,940.9042 L296.0938,933.4876 L296.875,950.0886 L297.6563,913.4127 L298.4375,943.4694 L299.2188,950.8774 L300,924.6135 L300.7813,879.9669 L301.5625,924.3899 L302.3438,892.5204 L303.125,916.3672 L303.9063,948.7516 L304.6875,955.8641 L305.4688,958.3486 L306.25,967.7701 L307.0313,922.0861 L307.8125,957.0134 L308.5938,958.5047 L309.375,965.3254 L310.1563,932.9569 L310.9375,965.6871 L311.7188,966.9827 L312.5,866.979 L313.2813,926.9583 L314.0625,956.3558 L314.8438,965.106 L315.625,976.5962 L316.4063,945.3019 L317.1875,955.0302 L317.9688,937.9335 L318.75,910.2329 L319.5313,898.543 L320.3125,939.2191 L321.0938,914.0463 L321.875,974.4004 L322.6563,922.6898 L323.4375,900.3317 L324.2188,934.651 L325,950.7576 L325.7813,970.644 L326.5625,937.8491 L327.3438,941.0161 L328.125,916.2877 L328.9063,924.0428 L329.6875,895.1813 L330.4688,942.9572 L331.25,959.5533 L332.0313,809.9523 L332.8125,923.3141 L333.5938,971.1304 L334.375,962.9359 L335.1563,908.2952 L335.9375,966.6492 L336.7188,885.9592 L337.5,957.1431 L338.2813,931.1384 L339.0625,931.1301 L339.8438,932.368 L340.625,910.4125 L341.4063,950.2528 L342.1875,922.2197 L342.9688,957.3361 L343.75,967.0447 L344.5313,949.3842 L345.3125,876.0775 L346.0938,952.6313 L346.875,943.9628 L347.6563,978.0408 L348.4375,957.7664 L349.2188,925.5325 L350,965.9788 L350.7813,874.4884 L351.5625,950.1704 L352.3438,933.4585 L353.125,941.5924 L353.9063,947.3525 L354.6875,927.1415 L355.4688,943.381 L356.25,947.0292 L357.0313,972.574 L357.8125,841.5153 L358.5938,919.045 L359.375,931.6285 L360.1563,969.4374 L360.9375,966.8231 L361.7188,933.465 L362.5,937.0536 L363.2813,955.7969 L364.0625,863.8966 L364.8438,957.5629 L365.625,969.5342 L366.4063,800.0378 L367.1875,948.3893 L367.9688,892.2956 L368.75,937.6329 L369.5313,962.4201 L370.3125,954.2767 L371.0938,947.6711 L371.875,940.3896 L372.6563,894.6461 L373.4375,938.4912 L374.2188,928.2281 L375,966.647 L375.7813,970.8492 L376.5625,867.3161 L377.3438,959.8264 L378.125,932.5753 L378.9063,941.7521 L379.6875,943.4643 L380.4688,942.139 L381.25,933.252 L382.0313,942.2676 L382.8125,891.2037 L383.5938,916.7908 L384.375,966.6929 L385.1563,835.7294 L385.9375,952.2624 L386.7188,900.5551 L387.5,949.5233 L388.2813,910.0793 L389.0625,899.031 L389.8438,948.3774 L390.625,940.8705 L391.4063,941.0503 L392.1875,933.8608 L392.9688,942.2559 L393.75,975.8921 L394.5313,917.4964 L395.3125,963.283 L396.0938,872.7977 L396.875,972.1268 L397.6563,970.2007 L398.4375,853.9135 L399.2188,950.5414 L400,912.496 L400.7813,941.3304 L401.5625,875.8973 L402.3438,824.8044 L403.125,970.4188 L403.9063,944.0471 L404.6875,947.2028 L405.4688,924.8544 L406.25,927.3378 L407.0313,965.1281 L407.8125,947.9645 L408.5938,880.4224 L409.375,901.6398 L410.1563,913.8268 L410.9375,939.5987 L411.7188,930.7792 L412.5,926.5715 L413.2813,920.5079 L414.0625,888.7121 L414.8438,947.8527 L415.625,928.7401 L416.4063,892.5577 L417.1875,933.645 L417.9688,973.6908 L418.75,974.5198 L419.5313,829.4418 L420.3125,890.8033 L421.0938,956.5037 L421.875,950.0029 L422.6563,936.2624 L423.4375,936.3666 L424.2188,942.3394 L425,945.6153 L425.7813,943.2309 L426.5625,901.493 L427.3438,949.7693 L428.125,950.2836 L428.9063,947.8076 L429.6875,952.6735 L430.4688,952.5284 L431.25,947.4008 L432.0313,901.7036 L432.8125,963.5429 L433.5938,947.2006 L434.375,898.9088 L435.1563,962.3744 L435.9375,931.6448 L436.7188,954.8171 L437.5,954.2135 L438.2813,892.3657 L439.0625,892.8642 L439.8438,887.1456 L440.625,959.8083 L441.4063,956.0369 L442.1875,971.2472 L442.9688,902.6981 L443.75,919.7974 L444.5313,925.0734 L445.3125,911.5289 L446.0938,963.595 L446.875,877.3417 L447.6563,800.623 L448.4375,954.1597 L449.2188,936.44 L450,956.6681 L450.7813,917.6998 L451.5625,939.7329 L452.3438,924.2228 L453.125,873.2359 L453.9063,966.3071 L454.6875,866.7318 L455.4688,940.0706 L456.25,908.7199 L457.0313,878.4865 L457.8125,950.2341 L458.5938,854.4822 L459.375,912.3292 L460.1563,939.3942 L460.9375,946.0727 L461.7188,857.6395 L462.5,913.4318 L463.2813,938.2151 L464.0625,958.6077 L464.8438,947.8564 L465.625,875.7972 L466.4063,886.532 L467.1875,948.4803 L467.9688,843.4496 L468.75,951.9053 L469.5313,848.0068 L470.3125,937.5393 L471.0938,945.8385 L471.875,968.4288 L472.6563,959.0099 L473.4375,969.1262 L474.2188,958.2275 L475,968.6219 L475.7813,954.2911 L476.5625,912.9091 L477.3438,966.9485 L478.125,942.9225 L478.9063,888.7151 L479.6875,941.4049 L480.4688,941.3082 L481.25,944.3635 L482.0313,952.961 L482.8125,957.0219 L483.5938,900.0133 L484.375,964.5963 L485.1563,909.5468 L485.9375,892.658 L486.7188,899.6835 L487.5,905.4132 L488.2813,887.6453 L489.0625,908.9744 L489.8438,972.0629 L490.625,945.7275 L491.4063,950.2092 L492.1875,949.8632 L492.9688,945.2796 L493.75,904.9866 L494.5313,970.8973 L495.3125,953.4297 L496.0938,940.1171 L496.875,966.4656 L497.6563,961.7929 L498.4375,961.6895 L499.2188,915.7648 L500,957.7302 L500.7813,926.2676 L501.5625,907.641 L502.3438,945.6519 L503.125,942.3695 L503.9063,960.8854 L504.6875,903.3098 L505.4688,870.4775 L506.25,802.2627 L507.0313,947.0381 L507.8125,956.5012 L508.5938,949.3472 L509.375,968.2786 L510.1563,958.6245 L510.9375,925.3684 L511.7188,814.2367 L512.5,935.8274 L513.2813,929.7692 L514.0625,963.1556 L514.8438,937.7131 L515.625,941.735 L516.4063,911.1274 L517.1875,924.1761 L517.9688,950.8936 L518.75,925.3639 L519.5313,931.8436 L520.3125,940.7739 L521.0938,920.3693 L521.875,957.321 L522.6563,927.854 L523.4375,935.7526 L524.2188,930.7816 L525,924.1286 L525.7813,864.8227 L526.5625,935.54 L527.3438,945.2363 L528.125,925.8559 L528.9063,946.254 L529.6875,944.2206 L530.4688,903.572 L531.25,909.7009 L532.0313,955.4175 L532.8125,944.4687 L533.5938,923.7106 L534.375,952.4167 L535.1563,960.82 L535.9375,914.0246 L536.7188,927.7032 L537.5,932.9374 L538.2813,917.2896 L539.0625,964.8574 L539.8438,938.152 L540.625,928.6298 L541.4063,933.6042 L542.1875,955.1491 L542.9688,926.6495 L543.75,953.483 L544.5313,964.5515 L545.3125,940.246 " stroke="blue" fill="none" />
<text x="50" y="1040" font-family="Arial" font-size="12" fill="black">Episode Length (635)</text>
<text x="50" y="1055" font-family="Arial" font-size="10" fill="black">123</text>
<text x="50" y="1270" font-family="Arial" font-size="10" fill="black">23</text>
<path d="M50,1260 L50.78125,1154 L51.5625,1182 L52.34375,1148 L53.125,1154 L53.90625,1170 L54.6875,1194 L55.46875,1164 L56.25,1182 L57.03125,1186 L57.8125,1128 L58.59375,1150 L59.375,1198 L60.15625,1192 L60.9375,1080 L61.71875,1198 L62.5,1166 L63.28125,1182 L64.0625,1174 L64.84375,1190 L65.625,1238 L66.40625,1170 L67.1875,1218 L67.96875,1170 L68.75,1194 L69.53125,1182 L70.3125,1158 L71.09375,1176 L71.875,1196 L72.65625,1198 L73.4375,1178 L74.21875,1144 L75,1168 L75.78125,1176 L76.5625,1224 L77.34375,1138 L78.125,1190 L78.90625,1210 L79.6875,1140 L80.46875,1180 L81.25,1184 L82.03125,1118 L82.8125,1162 L83.59375,1190 L84.375,1202 L85.15625,1092 L85.9375,1150 L86.71875,1178 L87.5,1202 L88.28125,1154 L89.0625,1124 L89.84375,1202 L90.625,1130 L91.40625,1200 L92.1875,1170 L92.96875,1132 L93.75,1186 L94.53125,1238 L95.3125,1202 L96.09375,1198 L96.875,1198 L97.65625,1134 L98.4375,1206 L99.21875,1164 L100,1152 L100.7813,1142 L101.5625,1210 L102.3438,1128 L103.125,1172 L103.9063,1124 L104.6875,1188 L105.4688,1162 L106.25,1168 L107.0313,1210 L107.8125,1152 L108.5938,1176 L109.375,1128 L110.1563,1154 L110.9375,1216 L111.7188,1174 L112.5,1186 L113.2813,1166 L114.0625,1148 L114.8438,1180 L115.625,1204 L116.4063,1188 L117.1875,1148 L117.9688,1110 L118.75,1198 L119.5313,1208 L120.3125,1194 L121.0938,1206 L121.875,1212 L122.6563,1200 L123.4375,1130 L124.2188,1206 L125,1162 L125.7813,1206 L126.5625,1146 L127.3438,1218 L128.125,1094 L128.9063,1186 L129.6875,1082 L130.4688,1204 L131.25,1222 L132.0313,1182 L132.8125,1210 L133.5938,1212 L134.375,1210 L135.1563,1220 L135.9375,1152 L136.7188,1198 L137.5,1168 L138.2813,1220 L139.0625,1194 L139.8438,1214 L140.625,1180 L141.4063,1096 L142.1875,1214 L142.9688,1204 L143.75,1064 L144.5313,1180 L145.3125,1186 L146.0938,1166 L146.875,1194 L147.6563,1186 L148.4375,1118 L149.2188,1208 L150,1166 L150.7813,1190 L151.5625,1192 L152.3438,1158 L153.125,1222 L153.9063,1120 L154.6875,1206 L155.4688,1152 L156.25,1158 L157.0313,1154 L157.8125,1204 L158.5938,1192 L159.375,1206 L160.1563,1190 L160.9375,1214 L161.7188,1212 L162.5,1184 L163.2813,1184 L164.0625,1142 L164.8438,1208 L165.625,1218 L166.4063,1212 L167.1875,1184 L167.9688,1206 L168.75,1216 L169.5313,1198 L170.3125,1166 L171.0938,1186 L171.875,1216 L172.6563,1188 L173.4375,1190 L174.2188,1144 L175,1180 L175.7813,1184 L176.5625,1182 L177.3438,1170 L178.125,1128 L178.9063,1212 L179.6875,1178 L180.4688,1188 L181.25,1162 L182.0313,1206 L182.8125,1178 L183.5938,1116 L184.375,1210 L185.1563,1206 L185.9375,1194 L186.7188,1208 L187.5,1152 L188.2813,1180 L189.0625,1202 L189.8438,1172 L190.625,1168 L191.4063,1184 L192.1875,1090 L192.9688,1210 L193.75,1202 L194.5313,1208 L195.3125,1188 L196.0938,1216 L196.875,1186 L197.6563,1174 L198.4375,1130 L199.2188,1180 L200,1172 L200.7813,1140 L201.5625,1182 L202.3438,1202 L203.125,1192 L203.9063,1212 L204.6875,1162 L205.4688,1184 L206.25,1176 L207.0313,1184 L207.8125,1160 L208.5938,1180 L209.375,1178 L210.1563,1208 L210.9375,1182 L211.7188,1234 L212.5,1208 L213.2813,1132 L214.0625,1192 L214.8438,1192 L215.625,1202 L216.4063,1164 L217.1875,1172 L217.9688,1196 L218.75,1154 L219.5313,1220 L220.3125,1180 L221.0938,1198 L221.875,1194 L222.6563,1188 L223.4375,1166 L224.2188,1182 L225,1178 L225.7813,1180 L226.5625,1190 L227.3438,1106 L228.125,1220 L228.9063,1216 L229.6875,1140 L230.4688,1172 L231.25,1188 L232.0313,1064 L232.8125,1152 L233.5938,1204 L234.375,1188 L235.1563,1144 L235.9375,1210 L236.7188,1124 L237.5,1140 L238.2813,1196 L239.0625,1190 L239.8438,1174 L240.625,1132 L241.4063,1210 L242.1875,1188 L242.9688,1220 L243.75,1182 L244.5313,1202 L245.3125,1146 L246.0938,1190 L246.875,1222 L247.6563,1190 L248.4375,1212 L249.2188,1118 L250,1216 L250.7813,1134 L251.5625,1198 L252.3438,1198 L253.125,1080 L253.9063,1212 L254.6875,1226 L255.4688,1200 L256.25,1232 L257.0313,1190 L257.8125,1126 L258.5938,1186 L259.375,1194 L260.1563,1182 L260.9375,1208 L261.7188,1206 L262.5,1118 L263.2813,1156 L264.0625,1154 L264.8438,1212 L265.625,1216 L266.4063,1188 L267.1875,1170 L267.9688,1164 L268.75,1176 L269.5313,1204 L270.3125,1164 L271.0938,1176 L271.875,1164 L272.6563,1172 L273.4375,1146 L274.2188,1166 L275,1228 L275.7813,1136 L276.5625,1202 L277.3438,1060 L278.125,1200 L278.9063,1162 L279.6875,1220 L280.4688,1204 L281.25,1222 L282.0313,1196 L282.8125,1206 L283.5938,1196 L284.375,1212 L285.1563,1106 L285.9375,1134 L286.7188,1206 L287.5,1162 L288.2813,1184 L289.0625,1198 L289.8438,1222 L290.625,1208 L291.4063,1192 L292.1875,1188 L292.9688,1168 L293.75,1170 L294.5313,1098 L295.3125,1178 L296.0938,1176 L296.875,1194 L297.6563,1152 L298.4375,1184 L299.2188,1196 L300,1166 L300.7813,1124 L301.5625,1160 L302.3438,1136 L303.125,1160 L303.9063,1194 L304.6875,1202 L305.4688,1206 L306.25,1218 L307.0313,1164 L307.8125,1202 L308.5938,1206 L309.375,1210 L310.1563,1176 L310.9375,1216 L311.7188,1218 L312.5,1116 L313.2813,1164 L314.0625,1204 L314.8438,1214 L315.625,1232 L316.4063,1188 L317.1875,1194 L317.9688,1182 L318.75,1154 L319.5313,1142 L320.3125,1182 L321.0938,1156 L321.875,1228 L322.6563,1158 L323.4375,1140 L324.2188,1176 L325,1196 L325.7813,1218 L326.5625,1180 L327.3438,1178 L328.125,1154 L328.9063,1168 L329.6875,1140 L330.4688,1178 L331.25,1206 L332.0313,1068 L332.8125,1164 L333.5938,1224 L334.375,1212 L335.1563,1152 L335.9375,1218 L336.7188,1132 L337.5,1202 L338.2813,1174 L339.0625,1174 L339.8438,1176 L340.625,1148 L341.4063,1196 L342.1875,1154 L342.9688,1202 L343.75,1216 L344.5313,1192 L345.3125,1124 L346.0938,1198 L346.875,1188 L347.6563,1232 L348.4375,1204 L349.2188,1164 L350,1216 L350.7813,1118 L351.5625,1192 L352.3438,1176 L353.125,1182 L353.9063,1192 L354.6875,1166 L355.4688,1182 L356.25,1190 L357.0313,1224 L357.8125,1096 L358.5938,1162 L359.375,1174 L360.1563,1218 L360.9375,1218 L361.7188,1170 L362.5,1178 L363.2813,1200 L364.0625,1108 L364.8438,1198 L365.625,1220 L366.4063,1066 L367.1875,1194 L367.9688,1138 L368.75,1180 L369.5313,1208 L370.3125,1200 L371.0938,1190 L371.875,1182 L372.6563,1136 L373.4375,1182 L374.2188,1170 L375,1216 L375.7813,1224 L376.5625,1112 L377.3438,1208 L378.125,1172 L378.9063,1186 L379.6875,1184 L380.4688,1186 L381.25,1176 L382.0313,1186 L382.8125,1138 L383.5938,1154 L384.375,1216 L385.1563,1088 L385.9375,1196 L386.7188,1144 L387.5,1194 L388.2813,1146 L389.0625,1138 L389.8438,1194 L390.625,1184 L391.4063,1184 L392.1875,1174 L392.9688,1186 L393.75,1230 L394.5313,1160 L395.3125,1212 L396.0938,1116 L396.875,1224 L397.6563,1222 L398.4375,1106 L399.2188,1188 L400,1154 L400.7813,1178 L401.5625,1116 L402.3438,1078 L403.125,1222 L403.9063,1188 L404.6875,1186 L405.4688,1162 L406.25,1170 L407.0313,1212 L407.8125,1188 L408.5938,1122 L409.375,1144 L410.1563,1156 L410.9375,1182 L411.7188,1172 L412.5,1164 L413.2813,1162 L414.0625,1132 L414.8438,1190 L415.625,1172 L416.4063,1132 L417.1875,1172 L417.9688,1226 L418.75,1228 L419.5313,1086 L420.3125,1136 L421.0938,1200 L421.875,1194 L422.6563,1178 L423.4375,1180 L424.2188,1186 L425,1188 L425.7813,1186 L426.5625,1140 L427.3438,1194 L428.125,1186 L428.9063,1192 L429.6875,1196 L430.4688,1198 L431.25,1190 L432.0313,1144 L432.8125,1206 L433.5938,1192 L434.375,1142 L435.1563,1212 L435.9375,1170 L436.7188,1200 L437.5,1198 L438.2813,1136 L439.0625,1138 L439.8438,1134 L440.625,1200 L441.4063,1202 L442.1875,1224 L442.9688,1146 L443.75,1160 L444.5313,1168 L445.3125,1154 L446.0938,1212 L446.875,1120 L447.6563,1064 L448.4375,1194 L449.2188,1178 L450,1200 L450.7813,1160 L451.5625,1182 L452.3438,1160 L453.125,1116 L453.9063,1216 L454.6875,1118 L455.4688,1184 L456.25,1148 L457.0313,1120 L457.8125,1188 L458.5938,1106 L459.375,1154 L460.1563,1180 L460.9375,1188 L461.7188,1112 L462.5,1156 L463.2813,1176 L464.0625,1206 L464.8438,1194 L465.625,1120 L466.4063,1132 L467.1875,1192 L467.9688,1092 L468.75,1196 L469.5313,1104 L470.3125,1178 L471.0938,1190 L471.875,1218 L472.6563,1206 L473.4375,1214 L474.2188,1196 L475,1220 L475.7813,1200 L476.5625,1152 L477.3438,1216 L478.125,1184 L478.9063,1132 L479.6875,1186 L480.4688,1184 L481.25,1182 L482.0313,1192 L482.8125,1202 L483.5938,1146 L484.375,1214 L485.1563,1152 L485.9375,1130 L486.7188,1136 L487.5,1142 L488.2813,1130 L489.0625,1150 L489.8438,1224 L490.625,1190 L491.4063,1194 L492.1875,1192 L492.9688,1190 L493.75,1150 L494.5313,1222 L495.3125,1198 L496.0938,1184 L496.875,1212 L497.6563,1208 L498.4375,1210 L499.2188,1156 L500,1200 L500.7813,1168 L501.5625,1150 L502.3438,1190 L503.125,1186 L503.9063,1206 L504.6875,1142 L505.4688,1120 L506.25,1070 L507.0313,1190 L507.8125,1204 L508.5938,1194 L509.375,1220 L510.1563,1204 L510.9375,1166 L511.7188,1066 L512.5,1180 L513.2813,1170 L514.0625,1204 L514.8438,1174 L515.625,1182 L516.4063,1154 L517.1875,1166 L517.9688,1190 L518.75,1166 L519.5313,1170 L520.3125,1180 L521.0938,1158 L521.875,1198 L522.6563,1166 L523.4375,1174 L524.2188,1172 L525,1162 L525.7813,1114 L526.5625,1180 L527.3438,1188 L528.125,1168 L528.9063,1186 L529.6875,1188 L530.4688,1146 L531.25,1152 L532.0313,1202 L532.8125,1184 L533.5938,1162 L534.375,1198 L535.1563,1210 L535.9375,1156 L536.7188,1166 L537.5,1176 L538.2813,1160 L539.0625,1214 L539.8438,1182 L540.625,1168 L541.4063,1172 L542.1875,1202 L542.9688,1170 L543.75,1194 L544.5313,1210 L545.3125,1182 " stroke="blue" fill="none" />
<text x="50" y="1310" font-family="Arial" font-size="12" fill="black">Policy Loss</text>
<text x="50" y="1325" font-family="Arial" font-size="10" fill="black">0.01008972</text>
<text x="50" y="1540" font-family="Arial" font-size="10" fill="black">0.0009907633</text>
<path d="M50,1411.286 L62.5,1521.091 L75,1511.521 L87.5,1510.75 L100,1517.852 L112.5,1516.905 L125,1520.313 L137.5,1529.684 L150,1382.436 L162.5,1525.451 L175,1521.048 L187.5,1522.745 L200,1524.146 L212.5,1527.156 L225,1518.982 L237.5,1521.047 L250,1430.171 L262.5,1530 L275,1517.318 L287.5,1528.285 L300,1525.42 L312.5,1521.874 L325,1521.487 L337.5,1517.75 L350,1330 L362.5,1519.288 L375,1513.655 L387.5,1515.82 L400,1521.474 L412.5,1520.957 L425,1527.158 L437.5,1524.679 " stroke="blue" fill="none" />
<text x="50" y="1580" font-family="Arial" font-size="12" fill="black">Value Loss</text>
<text x="50" y="1595" font-family="Arial" font-size="10" fill="black">0.009750188</text>
<text x="50" y="1810" font-family="Arial" font-size="10" fill="black">0.006183164</text>
<path d="M50,1600.001 L62.5,1644.772 L75,1667.753 L87.5,1685.867 L100,1700.451 L112.5,1713.548 L125,1724.815 L137.5,1735.497 L150,1677.961 L162.5,1714.658 L175,1738.307 L187.5,1757.885 L200,1771.299 L212.5,1782.198 L225,1792.168 L237.5,1800 L250,1622.427 L262.5,1654.851 L275,1682.109 L287.5,1701.288 L300,1716.609 L312.5,1728.479 L325,1739.272 L337.5,1748.863 L350,1626.642 L362.5,1658.676 L375,1688.056 L387.5,1709.12 L400,1725.304 L412.5,1737.9 L425,1749.082 L437.5,1758.813 " stroke="blue" fill="none" />
<text x="50" y="1850" font-family="Arial" font-size="12" fill="black">Learning Rate</text>
<text x="50" y="1865" font-family="Arial" font-size="10" fill="black">0.0002</text>
<text x="50" y="2080" font-family="Arial" font-size="10" fill="black">0.0002</text>
<path d="M50,2070 L62.5,2070 L75,2070 L87.5,2070 L100,2070 L112.5,2070 L125,2070 L137.5,2070 L150,2070 L162.5,2070 L175,2070 L187.5,2070 L200,2070 L212.5,2070 L225,2070 L237.5,2070 L250,2070 L262.5,2070 L275,2070 L287.5,2070 L300,2070 L312.5,2070 L325,2070 L337.5,2070 L350,2070 L362.5,2070 L375,2070 L387.5,2070 L400,2070 L412.5,2070 L425,2070 L437.5,2070 " stroke="blue" fill="none" />
<text x="50" y="2120" font-family="Arial" font-size="12" fill="black">Entropy</text>
<text x="50" y="2135" font-family="Arial" font-size="10" fill="black">-0.008397101</text>
<text x="50" y="2350" font-family="Arial" font-size="10" fill="black">-0.008397101</text>
<path d="M50,2340 L62.5,2340 L75,2340 L87.5,2340 L100,2340 L112.5,2340 L125,2340 L137.5,2340 L150,2340 L162.5,2340 L175,2340 L187.5,2340 L200,2340 L212.5,2340 L225,2340 L237.5,2340 L250,2340 L262.5,2340 L275,2340 L287.5,2340 L300,2340 L312.5,2340 L325,2340 L337.5,2340 L350,2340 L362.5,2340 L375,2340 L387.5,2340 L400,2340 L412.5,2340 L425,2340 L437.5,2340 " stroke="blue" fill="none" />
<text x="750" y="770" font-family="Arial" font-size="12" fill="black">Simplified</text>
<text x="750" y="785" font-family="Arial" font-size="10" fill="black">5.160037</text>
<text x="750" y="1000" font-family="Arial" font-size="10" fill="black">3.554796</text>
<path d="M764.0625,861.7942 L778.9063,969.8722 L793.75,814.5115 L808.5938,894.7842 L823.4375,907.6521 L838.2813,937.4263 L853.125,880.1383 L867.9688,969.6958 L882.8125,954.6805 L897.6563,930.0766 L912.5,949.3281 L927.3438,912.6364 L942.1875,856.0323 L957.0313,959.283 L971.875,911.4922 L986.7188,886.0765 L1001.563,898.0891 L1016.406,990 L1031.25,904.021 L1046.094,880.5865 L1060.938,947.5953 L1075.781,893.8323 L1090.625,844.78 L1105.469,868.5146 L1120.313,821.3551 L1135.156,966.7705 L1150,834.7646 L1164.844,790 L1179.688,881.6726 L1194.531,895.3666 L1209.375,908.5729 L1224.219,879.5368 L1239.063,891.3687 L1245.313,975.5974 " stroke="blue" fill="none" />
<text x="750" y="1040" font-family="Arial" font-size="12" fill="black">Simplified</text>
<text x="750" y="1055" font-family="Arial" font-size="10" fill="black">72.36842</text>
<text x="750" y="1270" font-family="Arial" font-size="10" fill="black">57.57895</text>
<path d="M764.0625,1130.463 L778.9063,1221.566 L793.75,1071.388 L808.5938,1152.527 L823.4375,1161.779 L838.2813,1214.448 L853.125,1155.374 L867.9688,1231.53 L882.8125,1205.196 L897.6563,1203.061 L912.5,1203.061 L927.3438,1174.591 L942.1875,1126.904 L957.0313,1239.359 L971.875,1166.762 L986.7188,1170.32 L1001.563,1151.103 L1016.406,1260 L1031.25,1154.662 L1046.094,1153.238 L1060.938,1213.025 L1075.781,1165.338 L1090.625,1109.11 L1105.469,1139.004 L1120.313,1089.182 L1135.156,1216.584 L1150,1107.687 L1164.844,1060 L1179.688,1153.95 L1194.531,1151.815 L1209.375,1182.42 L1224.219,1122.634 L1239.063,1148.256 L1245.313,1220.498 " stroke="blue" fill="none" />
</svg>
