<svg width="2000" height="2500" xmlns="http://www.w3.org/2000/svg">
<text x="10" y="20" font-family="Arial" font-size="26" fill="black"> [HumanWalk] Training Session</text>
<text x="10" y="50" font-family="Arial" font-size="16" fill="black">[Statistics]</text>
<text x="50" y="70" font-family="Arial" font-size="12" fill="black">Started at: 9:12:28 PM, Sunday, November 19, 2023</text>
<text x="50" y="90" font-family="Arial" font-size="12" fill="black">Finished at: 9:19:43 PM, Sunday, November 19, 2023</text>
<text x="50" y="110" font-family="Arial" font-size="12" fill="black">Training Session Time: 0 hrs : 6 min : 42 sec</text>
<text x="50" y="130" font-family="Arial" font-size="12" fill="black">Inference Time: 0 hrs : 16 min : 44 sec       [Per agent: 0 hrs : 16 min : 44 sec]        [Device: CPU]</text>
<text x="50" y="150" font-family="Arial" font-size="12" fill="black">Policy Update Time: 0 hrs : 1 min : 42 sec        [Per iteration: 0 hrs : 0 min : 13 sec]        [Device: GPU]</text>
<text x="50" y="170" font-family="Arial" font-size="12" fill="black">Inference Time / Training Session Time: 2.396</text>
<text x="50" y="190" font-family="Arial" font-size="12" fill="black">Policy Update Time / Training Session Time: 0.277</text>
<text x="50" y="210" font-family="Arial" font-size="12" fill="black">Episode Count: 873</text>
<text x="50" y="230" font-family="Arial" font-size="12" fill="black">Inference Steps: 10208    [Per agent: 10208]     [Per Episode (mean): 11]</text>
<text x="50" y="250" font-family="Arial" font-size="12" fill="black">Iterations: 7</text>
<text x="50" y="270" font-family="Arial" font-size="12" fill="black">Parallel Agents: 1</text>
<text x="50" y="290" font-family="Arial" font-size="12" fill="black">Timescale: 3.47</text>
<text x="50" y="310" font-family="Arial" font-size="12" fill="black">Trainer: PPO</text>
<text x="10" y="360" font-family="Arial" font-size="16" fill="black">[Hyperparameters]</text>
<text x="50" y="380" font-family="Arial" font-size="12" fill="black">Buffer Size: 1280        [Batch Size: 80       (x16)]</text>
<text x="50" y="400" font-family="Arial" font-size="12" fill="black">Num Epoch: 8</text>
<text x="50" y="420" font-family="Arial" font-size="12" fill="black">Time Horizon: 64</text>
<text x="50" y="440" font-family="Arial" font-size="12" fill="black">Gradient Cliping Normalization: 0.5</text>
<text x="50" y="460" font-family="Arial" font-size="12" fill="black">Learning Rate Schedule: False    </text>
<text x="10" y="510" font-family="Arial" font-size="16" fill="black">[Behaviour]</text>
<text x="50" y="530" font-family="Arial" font-size="12" fill="black">Space Size: 189</text>
<text x="50" y="550" font-family="Arial" font-size="12" fill="black">Continuous Actions: 40 [Standard Deviation: Fixed]     [Value: 0.96]</text>
<text x="50" y="570" font-family="Arial" font-size="12" fill="black">Discrete Actions: 0</text>
<text x="50" y="590" font-family="Arial" font-size="12" fill="black">TargetFPS: 50 (physics update rate)</text>
<text x="50" y="610" font-family="Arial" font-size="12" fill="black">Observations Normalization: True</text>
<text x="10" y="660" font-family="Arial" font-size="16" fill="black">[Decision Requester]</text>
<text x="50" y="680" font-family="Arial" font-size="12" fill="black">Max Step: 5000</text>
<text x="50" y="700" font-family="Arial" font-size="12" fill="black">Decision Period: 5      [Actions Between Decisions: True]</text>
<text x="10" y="750" font-family="Arial" font-size="16" fill="black">[Graphs]</text>
<text x="50" y="770" font-family="Arial" font-size="12" fill="black">Episode Reward (873)</text>
<text x="50" y="785" font-family="Arial" font-size="10" fill="black">1.453689</text>
<text x="50" y="1000" font-family="Arial" font-size="10" fill="black">0.2102142</text>
<path d="M50,887.522 L50.39063,880.15 L50.78125,915.5424 L51.17188,934.5008 L51.5625,919.3482 L51.95313,891.0048 L52.34375,917.1736 L52.73438,880.321 L53.125,906.041 L53.51563,923.7167 L53.90625,980.0499 L54.29688,928.1813 L54.6875,883.8276 L55.07813,929.2397 L55.46875,911.4874 L55.85938,876.5856 L56.25,887.7578 L56.64063,910.295 L57.03125,896.3339 L57.42188,888.1716 L57.8125,927.0691 L58.20313,909.3178 L58.59375,980.2239 L58.98438,917.4672 L59.375,874.8094 L59.76563,931.1431 L60.15625,904.1265 L60.54688,899.721 L60.9375,895.8566 L61.32813,910.1409 L61.71875,898.9128 L62.10938,905.5244 L62.5,894.4351 L62.89063,867.5576 L63.28125,867.3931 L63.67188,865.681 L64.0625,943.1196 L64.45313,846.8437 L64.84375,879.5734 L65.23438,862.6937 L65.625,934.5883 L66.01563,894.2867 L66.40625,917.4656 L66.79688,937.3843 L67.1875,937.3497 L67.57813,892.9487 L67.96875,923.6233 L68.35938,922.7098 L68.75,898.7852 L69.14063,906.2408 L69.53125,911.6122 L69.92188,905.546 L70.3125,924.2766 L70.70313,902.0212 L71.09375,890.8885 L71.48438,859.9492 L71.875,910.8441 L72.26563,890.8724 L72.65625,903.6716 L73.04688,930.2518 L73.4375,902.9171 L73.82813,940.2776 L74.21875,902.4225 L74.60938,958.5403 L75,875.3989 L75.39063,968.9915 L75.78125,896.4961 L76.17188,929.3854 L76.5625,917.0322 L76.95313,899.5889 L77.34375,844.7015 L77.73438,872.4199 L78.125,862.781 L78.51563,961.6506 L78.90625,894.6761 L79.29688,826.2736 L79.6875,906.6897 L80.07813,918.681 L80.46875,914.1285 L80.85938,922.6327 L81.25,882.9222 L81.64063,919.6918 L82.03125,893.1285 L82.42188,913.835 L82.8125,903.2547 L83.20313,903.9686 L83.59375,955.3785 L83.98438,900.0335 L84.375,889.309 L84.76563,879.3222 L85.15625,907.1119 L85.54688,913.8784 L85.9375,882.5134 L86.32813,910.8027 L86.71875,951.6592 L87.10938,894.8233 L87.5,903.1182 L87.89063,903.6569 L88.28125,882.5561 L88.67188,890.5499 L89.0625,915.2406 L89.45313,880.1738 L89.84375,927.0959 L90.23438,830.1786 L90.625,908.1546 L91.01563,922.9008 L91.40625,901.6297 L91.79688,895.4597 L92.1875,883.946 L92.57813,916.9062 L92.96875,876.3585 L93.35938,922.3167 L93.75,898.5674 L94.14063,900.0927 L94.53125,878.5218 L94.92188,932.5085 L95.3125,922.4064 L95.70313,938.5345 L96.09375,908.3699 L96.48438,906.9565 L96.875,882.4016 L97.26563,910.1076 L97.65625,887.9786 L98.04688,932.5552 L98.4375,828.931 L98.82813,826.5212 L99.21875,911.2485 L99.60938,907.2234 L100,873.8464 L100.3906,900.9456 L100.7813,931.575 L101.1719,926.8008 L101.5625,895.2868 L101.9531,937.177 L102.3438,923.1782 L102.7344,919.7925 L103.125,957.0355 L103.5156,888.4648 L103.9063,921.7911 L104.2969,867.6035 L104.6875,895.4082 L105.0781,898.5386 L105.4688,896.7443 L105.8594,954.6572 L106.25,913.973 L106.6406,879.279 L107.0313,911.141 L107.4219,910.0031 L107.8125,927.3439 L108.2031,910.1652 L108.5938,912.4993 L108.9844,902.9971 L109.375,914.9434 L109.7656,892.1416 L110.1563,856.1661 L110.5469,864.7835 L110.9375,924.537 L111.3281,899.9117 L111.7188,909.4073 L112.1094,881.1106 L112.5,957.5755 L112.8906,833.7131 L113.2813,861.3602 L113.6719,860.4055 L114.0625,920.9575 L114.4531,865.802 L114.8438,904.8995 L115.2344,906.1439 L115.625,932.7526 L116.0156,944.7771 L116.4063,877.8743 L116.7969,922.223 L117.1875,903.8691 L117.5781,954.4066 L117.9688,891.6576 L118.3594,904.0023 L118.75,871.2828 L119.1406,907.5544 L119.5313,863.7822 L119.9219,945.4923 L120.3125,880.4819 L120.7031,947.976 L121.0938,895.6646 L121.4844,923.977 L121.875,879.9746 L122.2656,923.5488 L122.6563,918.5752 L123.0469,861.189 L123.4375,912.2269 L123.8281,926.538 L124.2188,897.0045 L124.6094,902.1357 L125,952.2505 L125.3906,859.6064 L125.7813,908.7628 L126.1719,945.1959 L126.5625,890.5998 L126.9531,954.1223 L127.3438,906.1333 L127.7344,859.9384 L128.125,934.5821 L128.5156,921.1708 L128.9063,935.3325 L129.2969,828.8038 L129.6875,886.2235 L130.0781,896.3132 L130.4688,870.5012 L130.8594,916.4291 L131.25,939.1649 L131.6406,927.9542 L132.0313,859.2488 L132.4219,912.4228 L132.8125,894.1473 L133.2031,933.205 L133.5938,828.6606 L133.9844,889.2737 L134.375,949.6008 L134.7656,923.2188 L135.1563,923.5129 L135.5469,840.1323 L135.9375,949.7752 L136.3281,915.4269 L136.7188,942.4118 L137.1094,957.1135 L137.5,899.3998 L137.8906,872.6681 L138.2813,914.2643 L138.6719,916.5655 L139.0625,905.4645 L139.4531,899.7198 L139.8438,885.7349 L140.2344,825.9529 L140.625,951.2422 L141.0156,882.2134 L141.4063,900.8959 L141.7969,870.5032 L142.1875,898.0808 L142.5781,929.9708 L142.9688,893.733 L143.3594,953.6733 L143.75,940.4731 L144.1406,923.0416 L144.5313,905.1956 L144.9219,915.0427 L145.3125,894.3151 L145.7031,940.5365 L146.0938,913.1735 L146.4844,894.6559 L146.875,877.8337 L147.2656,900.087 L147.6563,859.9518 L148.0469,889.9989 L148.4375,933.8528 L148.8281,938.7197 L149.2188,927.1378 L149.6094,896.6893 L150,979.6073 L150.3906,884.0804 L150.7813,896.468 L151.1719,895.2137 L151.5625,878.3055 L151.9531,909.0978 L152.3438,877.9013 L152.7344,925.2475 L153.125,931.5366 L153.5156,841.8386 L153.9063,917.758 L154.2969,932.7658 L154.6875,935.7673 L155.0781,946.6187 L155.4688,888.0255 L155.8594,901.5483 L156.25,908.3834 L156.6406,939.9669 L157.0313,937.94 L157.4219,913.6236 L157.8125,873.9153 L158.2031,891.0047 L158.5938,944.8325 L158.9844,910.1549 L159.375,853.218 L159.7656,863.2714 L160.1563,913.4512 L160.5469,913.5558 L160.9375,871.8031 L161.3281,915.9957 L161.7188,861.6446 L162.1094,889.5469 L162.5,957.9641 L162.8906,890.7043 L163.2813,891.6815 L163.6719,790 L164.0625,908.1475 L164.4531,916.3698 L164.8438,918.7161 L165.2344,889.8369 L165.625,910.7682 L166.0156,896.7277 L166.4063,905.0717 L166.7969,913.304 L167.1875,923.4645 L167.5781,924.7925 L167.9688,913.1339 L168.3594,947.2251 L168.75,915.8049 L169.1406,873.9781 L169.5313,914.2545 L169.9219,892.1627 L170.3125,890.5585 L170.7031,880.8161 L171.0938,920.257 L171.4844,905.7593 L171.875,912.0176 L172.2656,894.3564 L172.6563,912.3724 L173.0469,919.8052 L173.4375,898.7594 L173.8281,905.9525 L174.2188,888.6124 L174.6094,897.6924 L175,875.0272 L175.3906,905.2219 L175.7813,901.8602 L176.1719,916.4799 L176.5625,903.5569 L176.9531,930.3947 L177.3438,888.5021 L177.7344,895.0895 L178.125,912.8046 L178.5156,858.8242 L178.9063,923.6435 L179.2969,941.8463 L179.6875,890.051 L180.0781,878.496 L180.4688,872.5167 L180.8594,881.8965 L181.25,902.2397 L181.6406,881.8707 L182.0313,901.3484 L182.4219,911.2793 L182.8125,926.3493 L183.2031,937.105 L183.5938,888.3552 L183.9844,969.3951 L184.375,956.366 L184.7656,914.1886 L185.1563,899.8381 L185.5469,903.5773 L185.9375,958.6973 L186.3281,923.5005 L186.7188,912.9816 L187.1094,909.0308 L187.5,904.393 L187.8906,852.0861 L188.2813,889.1125 L188.6719,880.7003 L189.0625,899.3638 L189.4531,879.886 L189.8438,900.1295 L190.2344,907.5924 L190.625,902.6894 L191.0156,918.2584 L191.4063,872.0021 L191.7969,906.6281 L192.1875,899.983 L192.5781,890.0554 L192.9688,886.0447 L193.3594,870.4141 L193.75,928.9399 L194.1406,836.3755 L194.5313,863.7307 L194.9219,880.4764 L195.3125,875.7067 L195.7031,959.4938 L196.0938,908.7753 L196.4844,908.4009 L196.875,915.6829 L197.2656,942.2502 L197.6563,904.4437 L198.0469,885.6909 L198.4375,885.7884 L198.8281,929.9797 L199.2188,888.0978 L199.6094,869.2072 L200,925.4031 L200.3906,900.3786 L200.7813,882.3477 L201.1719,903.6426 L201.5625,913.6119 L201.9531,928.9 L202.3438,945.1573 L202.7344,898.3887 L203.125,927.9919 L203.5156,911.0167 L203.9063,926.328 L204.2969,901.1972 L204.6875,792.9401 L205.0781,878.1315 L205.4688,915.6826 L205.8594,911.6505 L206.25,928.0233 L206.6406,915.4088 L207.0313,897.1845 L207.4219,920.1501 L207.8125,928.3735 L208.2031,942.2092 L208.5938,927.8163 L208.9844,917.3888 L209.375,887.4651 L209.7656,955.0612 L210.1563,902.7262 L210.5469,920.2716 L210.9375,909.975 L211.3281,924.1392 L211.7188,929.1957 L212.1094,901.8533 L212.5,911.8052 L212.8906,934.6896 L213.2813,918.1875 L213.6719,894.1451 L214.0625,871.7489 L214.4531,849.6146 L214.8438,962.4806 L215.2344,932.3792 L215.625,955.7869 L216.0156,922.3591 L216.4063,897.9916 L216.7969,894.8337 L217.1875,879.8095 L217.5781,854.1535 L217.9688,933.6935 L218.3594,871.037 L218.75,888.3088 L219.1406,891.3146 L219.5313,904.2349 L219.9219,853.937 L220.3125,858.9458 L220.7031,913.7764 L221.0938,901.2379 L221.4844,916.3301 L221.875,913.6757 L222.2656,920.0582 L222.6563,895.0136 L223.0469,940.9808 L223.4375,907.361 L223.8281,928.0497 L224.2188,893.314 L224.6094,883.8452 L225,940.6265 L225.3906,870.2053 L225.7813,920.9913 L226.1719,892.9932 L226.5625,882.5806 L226.9531,870.7665 L227.3438,908.1003 L227.7344,963.0478 L228.125,925.5315 L228.5156,902.0256 L228.9063,870.0632 L229.2969,849.7584 L229.6875,912.4748 L230.0781,941.83 L230.4688,898.0137 L230.8594,904.8383 L231.25,892.0594 L231.6406,906.0096 L232.0313,902.1889 L232.4219,932.2787 L232.8125,872.8011 L233.2031,843.1176 L233.5938,911.6198 L233.9844,925.4711 L234.375,927.563 L234.7656,859.9496 L235.1563,905.6254 L235.5469,930.0563 L235.9375,920.9551 L236.3281,911.7608 L236.7188,902.6316 L237.1094,913.8257 L237.5,877.3887 L237.8906,900.5479 L238.2813,887.1854 L238.6719,905.3058 L239.0625,883.9306 L239.4531,934.4968 L239.8438,899.7432 L240.2344,893.0609 L240.625,915.2297 L241.0156,908.8287 L241.4063,899.6064 L241.7969,902.4471 L242.1875,885.0723 L242.5781,956.364 L242.9688,970.3135 L243.3594,932.0753 L243.75,869.1149 L244.1406,894.5272 L244.5313,879.9554 L244.9219,886.351 L245.3125,922.7173 L245.7031,884.2041 L246.0938,951.4918 L246.4844,926.2125 L246.875,871.7691 L247.2656,921.6855 L247.6563,852.4888 L248.0469,904.7462 L248.4375,919.0087 L248.8281,920.965 L249.2188,920.2391 L249.6094,912.4291 L250,909.9009 L250.3906,900.5329 L250.7813,917.2092 L251.1719,921.0074 L251.5625,921.5189 L251.9531,896.9401 L252.3438,900.0118 L252.7344,896.2369 L253.125,893.1784 L253.5156,953.9575 L253.9063,945.8354 L254.2969,891.2591 L254.6875,918.497 L255.0781,908.7845 L255.4688,882.9916 L255.8594,926.6008 L256.25,879.5457 L256.6406,907.1684 L257.0313,836.6505 L257.4219,903.9328 L257.8125,918.7004 L258.2031,907.4186 L258.5938,885.0002 L258.9844,898.7617 L259.375,922.6368 L259.7656,885.6854 L260.1563,932.2645 L260.5469,922.1696 L260.9375,921.7753 L261.3281,926.6522 L261.7188,916.2944 L262.1094,902.2814 L262.5,910.047 L262.8906,871.5911 L263.2813,927.1337 L263.6719,847.8528 L264.0625,898.0533 L264.4531,881.9456 L264.8438,902.6037 L265.2344,974.4004 L265.625,893 L266.0156,907.7368 L266.4063,920.1166 L266.7969,922.2806 L267.1875,946.6177 L267.5781,933.831 L267.9688,893.5529 L268.3594,927.7217 L268.75,899.4524 L269.1406,913.7596 L269.5313,930.028 L269.9219,865.4519 L270.3125,905.4851 L270.7031,864.0716 L271.0938,921.6729 L271.4844,894.8369 L271.875,893.2039 L272.2656,893.4223 L272.6563,891.0109 L273.0469,927.5839 L273.4375,892.4357 L273.8281,937.338 L274.2188,908.2823 L274.6094,935.5323 L275,909.0134 L275.3906,873.5054 L275.7813,911.7545 L276.1719,884.4576 L276.5625,898.4672 L276.9531,875.6703 L277.3438,912.6357 L277.7344,900.0701 L278.125,902.674 L278.5156,954.4988 L278.9063,903.9443 L279.2969,902.6075 L279.6875,891.5052 L280.0781,939.0258 L280.4688,962.2147 L280.8594,907.0511 L281.25,915.4047 L281.6406,904.7962 L282.0313,958.5634 L282.4219,941.2813 L282.8125,891.8579 L283.2031,868.9825 L283.5938,968.5001 L283.9844,913.5128 L284.375,964.7182 L284.7656,891.2913 L285.1563,972.269 L285.5469,894.3551 L285.9375,878.8803 L286.3281,938.5073 L286.7188,904.4916 L287.1094,911.8693 L287.5,885.1023 L287.8906,896.6767 L288.2813,901.7237 L288.6719,938.8312 L289.0625,871.072 L289.4531,968.7994 L289.8438,936.5428 L290.2344,900.33 L290.625,967.5338 L291.0156,885.1228 L291.4063,971.7639 L291.7969,927.7444 L292.1875,892.0992 L292.5781,895.2977 L292.9688,883.3085 L293.3594,893.826 L293.75,878.0555 L294.1406,911.8755 L294.5313,901.9284 L294.9219,895.8583 L295.3125,942.5298 L295.7031,905.2271 L296.0938,951.1023 L296.4844,897.736 L296.875,942.6447 L297.2656,920.5149 L297.6563,937.1642 L298.0469,907.0535 L298.4375,880.1653 L298.8281,936.563 L299.2188,905.6702 L299.6094,979.3776 L300,875.4871 L300.3906,929.0691 L300.7813,958.5289 L301.1719,917.6299 L301.5625,905.8138 L301.9531,957.4152 L302.3438,906.573 L302.7344,963.3364 L303.125,932.8937 L303.5156,870.2246 L303.9063,930.4274 L304.2969,990 L304.6875,884.7885 L305.0781,919.3666 L305.4688,851.3383 L305.8594,893.3572 L306.25,888.5517 L306.6407,906.6622 L307.0313,874.5844 L307.4219,900.7886 L307.8125,887.4802 L308.2031,900.2298 L308.5938,954.114 L308.9844,941.6213 L309.375,900.3021 L309.7656,912.3789 L310.1563,890.4321 L310.5469,861.0592 L310.9375,887.4403 L311.3281,916.3604 L311.7188,905.9619 L312.1094,885.9001 L312.5,906.2397 L312.8906,929.9086 L313.2813,838.6417 L313.6719,888.2166 L314.0625,908.1207 L314.4532,876.6204 L314.8438,971.821 L315.2344,919.0441 L315.625,932.9515 L316.0156,978.8514 L316.4063,929.9187 L316.7969,920.39 L317.1875,935.9098 L317.5781,901.811 L317.9688,846.106 L318.3594,890.5168 L318.75,877.6431 L319.1406,896.3088 L319.5313,867.5854 L319.9219,888.5379 L320.3125,935.9449 L320.7031,883.4077 L321.0938,934.8875 L321.4844,917.0427 L321.875,963.7755 L322.2657,922.5282 L322.6563,895.3944 L323.0469,939.3167 L323.4375,924.4516 L323.8281,909.0391 L324.2188,891.6788 L324.6094,902.3224 L325,930.6199 L325.3906,914.2166 L325.7813,916.8533 L326.1719,890.4629 L326.5625,931.6577 L326.9531,980.1884 L327.3438,903.3979 L327.7344,909.2187 L328.125,929.1295 L328.5156,907.2373 L328.9063,916.0862 L329.2969,922.7867 L329.6875,891.2916 L330.0782,945.1666 L330.4688,924.7208 L330.8594,913.1364 L331.25,955.9365 L331.6406,817.2252 L332.0313,886.5574 L332.4219,890.7402 L332.8125,903.9351 L333.2031,915.0958 L333.5938,938.9547 L333.9844,874.1704 L334.375,936.3651 L334.7656,875.6194 L335.1563,948.4423 L335.5469,898.4932 L335.9375,944.4889 L336.3281,963.6339 L336.7188,900.2714 L337.1094,924.3809 L337.5,854.5942 L337.8907,880.8482 L338.2813,870.074 L338.6719,864.9239 L339.0625,916.2517 L339.4531,902.0333 L339.8438,900.9879 L340.2344,920.2809 L340.625,928.9417 L341.0156,960.5806 L341.4063,897.008 L341.7969,904.7612 L342.1875,935.496 L342.5781,891.1973 L342.9688,900.757 L343.3594,913.3184 L343.75,911.3695 L344.1406,926.4717 L344.5313,886.7947 L344.9219,949.6635 L345.3125,901.2397 L345.7032,901.2486 L346.0938,964.2219 L346.4844,932.1916 L346.875,897.181 L347.2656,926.8505 L347.6563,901.7148 L348.0469,920.4487 L348.4375,936.363 L348.8281,930.9139 L349.2188,889.0727 L349.6094,868.2571 L350,954.7933 L350.3906,870.567 L350.7813,901.6161 L351.1719,981.7708 L351.5625,881.6956 L351.9531,892.5852 L352.3438,951.5559 L352.7344,951.5573 L353.125,902.6194 L353.5157,901.0248 L353.9063,875.2072 L354.2969,936.7026 L354.6875,954.2401 L355.0781,891.6866 L355.4688,887.8912 L355.8594,942.4646 L356.25,949.1646 L356.6406,927.2064 L357.0313,903.1169 L357.4219,914.2931 L357.8125,892.2191 L358.2031,894.2839 L358.5938,868.1993 L358.9844,898.7098 L359.375,952.7733 L359.7656,954.9027 L360.1563,906.0514 L360.5469,952.1728 L360.9375,923.991 L361.3282,974.6234 L361.7188,914.9539 L362.1094,901.641 L362.5,921.4539 L362.8906,887.7011 L363.2813,935.0027 L363.6719,844.1086 L364.0625,922.5524 L364.4531,874.8567 L364.8438,927.9559 L365.2344,864.2474 L365.625,899.8459 L366.0156,883.4517 L366.4063,901.5045 L366.7969,934.1886 L367.1875,900.784 L367.5781,910.3571 L367.9688,960.7191 L368.3594,932.5626 L368.75,866.178 L369.1407,892.6223 L369.5313,955.9543 L369.9219,862.0186 L370.3125,901.2504 L370.7031,867.8687 L371.0938,870.9347 L371.4844,858.338 L371.875,884.1679 L372.2656,829.3946 L372.6563,898.6898 L373.0469,914.5797 L373.4375,899.0939 L373.8281,897.7675 L374.2188,903.7628 L374.6094,906.4543 L375,892.6521 L375.3906,941.0076 L375.7813,913.6641 L376.1719,881.2809 L376.5625,889.4769 L376.9532,910.6833 L377.3438,899.116 L377.7344,911.4545 L378.125,910.6529 L378.5156,905.2903 L378.9063,910.9322 L379.2969,889.9056 L379.6875,849.7427 L380.0781,930.8605 L380.4688,904.3854 L380.8594,856.5688 L381.25,917.6791 L381.6406,911.4259 L382.0313,970.8779 L382.4219,922.0266 L382.8125,873.2717 L383.2031,905.2946 L383.5938,840.3396 L383.9844,907.1951 L384.375,902.2703 L384.7657,931.4366 L385.1563,928.0054 L385.5469,922.5091 L385.9375,913.5192 L386.3281,899.2115 L386.7188,900.1893 L387.1094,847.7293 L387.5,875.6902 L387.8906,901.3929 L388.2813,896.1392 L388.6719,910.637 L389.0625,928.7906 L389.4531,934.9627 L389.8438,846.6158 L390.2344,918.2018 L390.625,861.8228 " stroke="blue" fill="none" />
<text x="50" y="1040" font-family="Arial" font-size="12" fill="black">Episode Length (873)</text>
<text x="50" y="1055" font-family="Arial" font-size="10" fill="black">23</text>
<text x="50" y="1270" font-family="Arial" font-size="10" fill="black">3</text>
<path d="M50,1170 L50.39063,1150 L50.78125,1190 L51.17188,1190 L51.5625,1180 L51.95313,1160 L52.34375,1180 L52.73438,1160 L53.125,1170 L53.51563,1190 L53.90625,1250 L54.29688,1190 L54.6875,1160 L55.07813,1190 L55.46875,1180 L55.85938,1150 L56.25,1150 L56.64063,1180 L57.03125,1170 L57.42188,1160 L57.8125,1180 L58.20313,1180 L58.59375,1250 L58.98438,1180 L59.375,1150 L59.76563,1180 L60.15625,1170 L60.54688,1170 L60.9375,1160 L61.32813,1150 L61.71875,1170 L62.10938,1180 L62.5,1160 L62.89063,1140 L63.28125,1140 L63.67188,1130 L64.0625,1200 L64.45313,1120 L64.84375,1160 L65.23438,1130 L65.625,1190 L66.01563,1160 L66.40625,1180 L66.79688,1200 L67.1875,1190 L67.57813,1160 L67.96875,1190 L68.35938,1180 L68.75,1170 L69.14063,1180 L69.53125,1180 L69.92188,1170 L70.3125,1190 L70.70313,1170 L71.09375,1160 L71.48438,1130 L71.875,1170 L72.26563,1160 L72.65625,1170 L73.04688,1190 L73.4375,1170 L73.82813,1200 L74.21875,1170 L74.60938,1210 L75,1150 L75.39063,1240 L75.78125,1160 L76.17188,1190 L76.5625,1180 L76.95313,1170 L77.34375,1120 L77.73438,1140 L78.125,1130 L78.51563,1220 L78.90625,1160 L79.29688,1110 L79.6875,1170 L80.07813,1180 L80.46875,1180 L80.85938,1190 L81.25,1160 L81.64063,1180 L82.03125,1160 L82.42188,1180 L82.8125,1170 L83.20313,1180 L83.59375,1200 L83.98438,1170 L84.375,1160 L84.76563,1150 L85.15625,1170 L85.54688,1180 L85.9375,1150 L86.32813,1170 L86.71875,1210 L87.10938,1170 L87.5,1180 L87.89063,1180 L88.28125,1150 L88.67188,1160 L89.0625,1170 L89.45313,1150 L89.84375,1190 L90.23438,1110 L90.625,1180 L91.01563,1190 L91.40625,1180 L91.79688,1160 L92.1875,1160 L92.57813,1190 L92.96875,1140 L93.35938,1190 L93.75,1170 L94.14063,1170 L94.53125,1150 L94.92188,1200 L95.3125,1180 L95.70313,1190 L96.09375,1170 L96.48438,1180 L96.875,1160 L97.26563,1180 L97.65625,1160 L98.04688,1200 L98.4375,1110 L98.82813,1110 L99.21875,1180 L99.60938,1180 L100,1150 L100.3906,1170 L100.7813,1200 L101.1719,1200 L101.5625,1170 L101.9531,1200 L102.3438,1190 L102.7344,1190 L103.125,1210 L103.5156,1160 L103.9063,1190 L104.2969,1140 L104.6875,1170 L105.0781,1170 L105.4688,1170 L105.8594,1210 L106.25,1170 L106.6406,1160 L107.0313,1180 L107.4219,1180 L107.8125,1190 L108.2031,1170 L108.5938,1180 L108.9844,1180 L109.375,1180 L109.7656,1160 L110.1563,1130 L110.5469,1140 L110.9375,1190 L111.3281,1150 L111.7188,1180 L112.1094,1150 L112.5,1210 L112.8906,1090 L113.2813,1130 L113.6719,1130 L114.0625,1190 L114.4531,1130 L114.8438,1180 L115.2344,1180 L115.625,1200 L116.0156,1200 L116.4063,1150 L116.7969,1190 L117.1875,1180 L117.5781,1210 L117.9688,1160 L118.3594,1170 L118.75,1130 L119.1406,1180 L119.5313,1140 L119.9219,1210 L120.3125,1150 L120.7031,1210 L121.0938,1170 L121.4844,1190 L121.875,1150 L122.2656,1200 L122.6563,1190 L123.0469,1130 L123.4375,1180 L123.8281,1190 L124.2188,1160 L124.6094,1170 L125,1200 L125.3906,1130 L125.7813,1180 L126.1719,1200 L126.5625,1170 L126.9531,1210 L127.3438,1180 L127.7344,1130 L128.125,1200 L128.5156,1190 L128.9063,1200 L129.2969,1120 L129.6875,1160 L130.0781,1170 L130.4688,1140 L130.8594,1170 L131.25,1200 L131.6406,1190 L132.0313,1130 L132.4219,1180 L132.8125,1160 L133.2031,1190 L133.5938,1120 L133.9844,1150 L134.375,1220 L134.7656,1180 L135.1563,1190 L135.5469,1120 L135.9375,1200 L136.3281,1180 L136.7188,1190 L137.1094,1220 L137.5,1180 L137.8906,1140 L138.2813,1180 L138.6719,1180 L139.0625,1170 L139.4531,1180 L139.8438,1160 L140.2344,1110 L140.625,1210 L141.0156,1150 L141.4063,1170 L141.7969,1150 L142.1875,1170 L142.5781,1200 L142.9688,1160 L143.3594,1210 L143.75,1200 L144.1406,1190 L144.5313,1170 L144.9219,1180 L145.3125,1160 L145.7031,1190 L146.0938,1180 L146.4844,1170 L146.875,1150 L147.2656,1150 L147.6563,1140 L148.0469,1160 L148.4375,1200 L148.8281,1200 L149.2188,1190 L149.6094,1160 L150,1250 L150.3906,1160 L150.7813,1170 L151.1719,1170 L151.5625,1150 L151.9531,1180 L152.3438,1160 L152.7344,1190 L153.125,1200 L153.5156,1120 L153.9063,1170 L154.2969,1200 L154.6875,1210 L155.0781,1200 L155.4688,1170 L155.8594,1160 L156.25,1180 L156.6406,1210 L157.0313,1200 L157.4219,1170 L157.8125,1160 L158.2031,1160 L158.5938,1210 L158.9844,1180 L159.375,1130 L159.7656,1140 L160.1563,1180 L160.5469,1180 L160.9375,1150 L161.3281,1180 L161.7188,1140 L162.1094,1170 L162.5,1210 L162.8906,1170 L163.2813,1160 L163.6719,1080 L164.0625,1170 L164.4531,1190 L164.8438,1180 L165.2344,1160 L165.625,1160 L166.0156,1170 L166.4063,1180 L166.7969,1180 L167.1875,1190 L167.5781,1190 L167.9688,1180 L168.3594,1210 L168.75,1180 L169.1406,1150 L169.5313,1180 L169.9219,1160 L170.3125,1170 L170.7031,1150 L171.0938,1190 L171.4844,1180 L171.875,1180 L172.2656,1170 L172.6563,1180 L173.0469,1190 L173.4375,1170 L173.8281,1180 L174.2188,1160 L174.6094,1170 L175,1150 L175.3906,1170 L175.7813,1180 L176.1719,1190 L176.5625,1170 L176.9531,1190 L177.3438,1140 L177.7344,1170 L178.125,1180 L178.5156,1120 L178.9063,1200 L179.2969,1190 L179.6875,1160 L180.0781,1150 L180.4688,1150 L180.8594,1160 L181.25,1160 L181.6406,1150 L182.0313,1170 L182.4219,1180 L182.8125,1190 L183.2031,1200 L183.5938,1160 L183.9844,1240 L184.375,1220 L184.7656,1190 L185.1563,1170 L185.5469,1170 L185.9375,1210 L186.3281,1190 L186.7188,1180 L187.1094,1180 L187.5,1170 L187.8906,1110 L188.2813,1160 L188.6719,1150 L189.0625,1170 L189.4531,1150 L189.8438,1160 L190.2344,1180 L190.625,1170 L191.0156,1170 L191.4063,1140 L191.7969,1170 L192.1875,1170 L192.5781,1160 L192.9688,1160 L193.3594,1130 L193.75,1190 L194.1406,1120 L194.5313,1130 L194.9219,1140 L195.3125,1150 L195.7031,1220 L196.0938,1180 L196.4844,1180 L196.875,1190 L197.2656,1200 L197.6563,1160 L198.0469,1160 L198.4375,1160 L198.8281,1200 L199.2188,1160 L199.6094,1140 L200,1190 L200.3906,1170 L200.7813,1160 L201.1719,1160 L201.5625,1180 L201.9531,1200 L202.3438,1200 L202.7344,1160 L203.125,1180 L203.5156,1180 L203.9063,1190 L204.2969,1170 L204.6875,1060 L205.0781,1160 L205.4688,1180 L205.8594,1170 L206.25,1190 L206.6406,1180 L207.0313,1170 L207.4219,1190 L207.8125,1190 L208.2031,1200 L208.5938,1190 L208.9844,1180 L209.375,1150 L209.7656,1210 L210.1563,1160 L210.5469,1190 L210.9375,1170 L211.3281,1190 L211.7188,1190 L212.1094,1170 L212.5,1190 L212.8906,1200 L213.2813,1180 L213.6719,1160 L214.0625,1140 L214.4531,1120 L214.8438,1230 L215.2344,1190 L215.625,1220 L216.0156,1180 L216.4063,1180 L216.7969,1170 L217.1875,1150 L217.5781,1140 L217.9688,1200 L218.3594,1140 L218.75,1160 L219.1406,1160 L219.5313,1170 L219.9219,1130 L220.3125,1140 L220.7031,1180 L221.0938,1170 L221.4844,1180 L221.875,1180 L222.2656,1180 L222.6563,1170 L223.0469,1210 L223.4375,1180 L223.8281,1180 L224.2188,1160 L224.6094,1150 L225,1200 L225.3906,1150 L225.7813,1180 L226.1719,1160 L226.5625,1150 L226.9531,1140 L227.3438,1180 L227.7344,1220 L228.125,1180 L228.5156,1170 L228.9063,1150 L229.2969,1120 L229.6875,1180 L230.0781,1210 L230.4688,1170 L230.8594,1170 L231.25,1170 L231.6406,1170 L232.0313,1170 L232.4219,1190 L232.8125,1150 L233.2031,1120 L233.5938,1170 L233.9844,1190 L234.375,1190 L234.7656,1130 L235.1563,1180 L235.5469,1200 L235.9375,1200 L236.3281,1180 L236.7188,1170 L237.1094,1180 L237.5,1150 L237.8906,1170 L238.2813,1160 L238.6719,1180 L239.0625,1160 L239.4531,1180 L239.8438,1160 L240.2344,1160 L240.625,1180 L241.0156,1190 L241.4063,1170 L241.7969,1180 L242.1875,1170 L242.5781,1220 L242.9688,1240 L243.3594,1200 L243.75,1150 L244.1406,1150 L244.5313,1160 L244.9219,1160 L245.3125,1190 L245.7031,1160 L246.0938,1210 L246.4844,1200 L246.875,1150 L247.2656,1180 L247.6563,1120 L248.0469,1170 L248.4375,1190 L248.8281,1180 L249.2188,1180 L249.6094,1180 L250,1180 L250.3906,1160 L250.7813,1190 L251.1719,1190 L251.5625,1180 L251.9531,1160 L252.3438,1160 L252.7344,1170 L253.125,1160 L253.5156,1220 L253.9063,1200 L254.2969,1170 L254.6875,1180 L255.0781,1180 L255.4688,1150 L255.8594,1200 L256.25,1160 L256.6406,1180 L257.0313,1100 L257.4219,1180 L257.8125,1170 L258.2031,1180 L258.5938,1160 L258.9844,1170 L259.375,1180 L259.7656,1160 L260.1563,1200 L260.5469,1190 L260.9375,1190 L261.3281,1190 L261.7188,1180 L262.1094,1180 L262.5,1180 L262.8906,1140 L263.2813,1180 L263.6719,1120 L264.0625,1170 L264.4531,1150 L264.8438,1180 L265.2344,1240 L265.625,1170 L266.0156,1180 L266.4063,1180 L266.7969,1180 L267.1875,1200 L267.5781,1200 L267.9688,1160 L268.3594,1200 L268.75,1180 L269.1406,1180 L269.5313,1190 L269.9219,1130 L270.3125,1150 L270.7031,1150 L271.0938,1170 L271.4844,1160 L271.875,1170 L272.2656,1160 L272.6563,1160 L273.0469,1190 L273.4375,1160 L273.8281,1200 L274.2188,1170 L274.6094,1190 L275,1170 L275.3906,1140 L275.7813,1180 L276.1719,1160 L276.5625,1160 L276.9531,1150 L277.3438,1180 L277.7344,1170 L278.125,1170 L278.5156,1210 L278.9063,1170 L279.2969,1170 L279.6875,1170 L280.0781,1200 L280.4688,1220 L280.8594,1170 L281.25,1190 L281.6406,1170 L282.0313,1220 L282.4219,1200 L282.8125,1160 L283.2031,1140 L283.5938,1230 L283.9844,1180 L284.375,1220 L284.7656,1160 L285.1563,1240 L285.5469,1160 L285.9375,1140 L286.3281,1200 L286.7188,1160 L287.1094,1180 L287.5,1150 L287.8906,1170 L288.2813,1180 L288.6719,1200 L289.0625,1140 L289.4531,1230 L289.8438,1190 L290.2344,1170 L290.625,1230 L291.0156,1160 L291.4063,1240 L291.7969,1190 L292.1875,1160 L292.5781,1170 L292.9688,1160 L293.3594,1160 L293.75,1140 L294.1406,1170 L294.5313,1170 L294.9219,1170 L295.3125,1200 L295.7031,1180 L296.0938,1210 L296.4844,1160 L296.875,1200 L297.2656,1200 L297.6563,1200 L298.0469,1170 L298.4375,1150 L298.8281,1200 L299.2188,1180 L299.6094,1250 L300,1150 L300.3906,1190 L300.7813,1210 L301.1719,1190 L301.5625,1180 L301.9531,1210 L302.3438,1180 L302.7344,1220 L303.125,1190 L303.5156,1150 L303.9063,1190 L304.2969,1260 L304.6875,1150 L305.0781,1190 L305.4688,1130 L305.8594,1160 L306.25,1150 L306.6407,1180 L307.0313,1140 L307.4219,1170 L307.8125,1160 L308.2031,1170 L308.5938,1210 L308.9844,1200 L309.375,1170 L309.7656,1180 L310.1563,1150 L310.5469,1140 L310.9375,1160 L311.3281,1190 L311.7188,1180 L312.1094,1150 L312.5,1180 L312.8906,1190 L313.2813,1130 L313.6719,1170 L314.0625,1170 L314.4532,1150 L314.8438,1240 L315.2344,1190 L315.625,1180 L316.0156,1250 L316.4063,1190 L316.7969,1180 L317.1875,1180 L317.5781,1160 L317.9688,1130 L318.3594,1160 L318.75,1150 L319.1406,1160 L319.5313,1150 L319.9219,1160 L320.3125,1210 L320.7031,1160 L321.0938,1200 L321.4844,1190 L321.875,1220 L322.2657,1190 L322.6563,1170 L323.0469,1210 L323.4375,1180 L323.8281,1180 L324.2188,1160 L324.6094,1170 L325,1200 L325.3906,1180 L325.7813,1170 L326.1719,1160 L326.5625,1200 L326.9531,1250 L327.3438,1170 L327.7344,1180 L328.125,1190 L328.5156,1170 L328.9063,1180 L329.2969,1190 L329.6875,1160 L330.0782,1220 L330.4688,1190 L330.8594,1180 L331.25,1220 L331.6406,1080 L332.0313,1160 L332.4219,1160 L332.8125,1170 L333.2031,1180 L333.5938,1200 L333.9844,1150 L334.375,1210 L334.7656,1140 L335.1563,1200 L335.5469,1170 L335.9375,1210 L336.3281,1220 L336.7188,1160 L337.1094,1190 L337.5,1110 L337.8907,1150 L338.2813,1140 L338.6719,1140 L339.0625,1180 L339.4531,1170 L339.8438,1170 L340.2344,1180 L340.625,1200 L341.0156,1220 L341.4063,1170 L341.7969,1170 L342.1875,1210 L342.5781,1160 L342.9688,1170 L343.3594,1180 L343.75,1180 L344.1406,1200 L344.5313,1160 L344.9219,1210 L345.3125,1160 L345.7032,1180 L346.0938,1230 L346.4844,1190 L346.875,1170 L347.2656,1200 L347.6563,1160 L348.0469,1190 L348.4375,1200 L348.8281,1190 L349.2188,1150 L349.6094,1140 L350,1210 L350.3906,1140 L350.7813,1180 L351.1719,1250 L351.5625,1150 L351.9531,1170 L352.3438,1210 L352.7344,1220 L353.125,1160 L353.5157,1170 L353.9063,1140 L354.2969,1200 L354.6875,1210 L355.0781,1160 L355.4688,1160 L355.8594,1200 L356.25,1220 L356.6406,1190 L357.0313,1170 L357.4219,1180 L357.8125,1160 L358.2031,1160 L358.5938,1140 L358.9844,1160 L359.375,1210 L359.7656,1210 L360.1563,1180 L360.5469,1210 L360.9375,1190 L361.3282,1240 L361.7188,1180 L362.1094,1180 L362.5,1200 L362.8906,1170 L363.2813,1190 L363.6719,1120 L364.0625,1180 L364.4531,1140 L364.8438,1190 L365.2344,1140 L365.625,1170 L366.0156,1150 L366.4063,1180 L366.7969,1190 L367.1875,1170 L367.5781,1180 L367.9688,1230 L368.3594,1200 L368.75,1140 L369.1407,1160 L369.5313,1220 L369.9219,1130 L370.3125,1170 L370.7031,1150 L371.0938,1140 L371.4844,1130 L371.875,1160 L372.2656,1110 L372.6563,1170 L373.0469,1180 L373.4375,1170 L373.8281,1170 L374.2188,1180 L374.6094,1180 L375,1160 L375.3906,1190 L375.7813,1190 L376.1719,1150 L376.5625,1150 L376.9532,1180 L377.3438,1170 L377.7344,1180 L378.125,1180 L378.5156,1180 L378.9063,1180 L379.2969,1160 L379.6875,1130 L380.0781,1200 L380.4688,1180 L380.8594,1140 L381.25,1180 L381.6406,1180 L382.0313,1230 L382.4219,1190 L382.8125,1150 L383.2031,1170 L383.5938,1130 L383.9844,1170 L384.375,1180 L384.7657,1200 L385.1563,1190 L385.5469,1190 L385.9375,1180 L386.3281,1180 L386.7188,1160 L387.1094,1120 L387.5,1150 L387.8906,1170 L388.2813,1170 L388.6719,1170 L389.0625,1200 L389.4531,1190 L389.8438,1120 L390.2344,1180 L390.625,1140 " stroke="blue" fill="none" />
<text x="50" y="1310" font-family="Arial" font-size="12" fill="black">Policy Loss</text>
<text x="50" y="1325" font-family="Arial" font-size="10" fill="black">0.03971611</text>
<text x="50" y="1540" font-family="Arial" font-size="10" fill="black">0.0104468</text>
<path d="M50,1330 L56.25,1515.21 L62.5,1515.933 L68.75,1475.052 L75,1478.471 L81.25,1447.864 L87.5,1490.25 L93.75,1494.931 L100,1358.993 L106.25,1497.602 L112.5,1467.961 L118.75,1486.776 L125,1484.945 L131.25,1513.343 L137.5,1450.972 L143.75,1493.012 L150,1376.922 L156.25,1469.737 L162.5,1510.279 L168.75,1509.576 L175,1454.007 L181.25,1530 L187.5,1488.662 L193.75,1499.463 L200,1342.422 L206.25,1519.029 L212.5,1478.921 L218.75,1507.946 L225,1489.131 L231.25,1470.783 L237.5,1487.324 L243.75,1495.139 L250,1339.234 L256.25,1475.042 L262.5,1441.81 L268.75,1519.048 L275,1503.584 L281.25,1498.814 L287.5,1447.988 L293.75,1507.259 L300,1350.371 L306.25,1458.246 L312.5,1447.549 L318.75,1449.689 L325,1498.881 L331.25,1484.962 L337.5,1460.911 L343.75,1467.268 L350,1408.769 L356.25,1453.959 L362.5,1498.406 L368.75,1490.982 L375,1458.869 L381.25,1498.177 L387.5,1468.281 L393.75,1491.652 " stroke="blue" fill="none" />
<text x="50" y="1580" font-family="Arial" font-size="12" fill="black">Value Loss</text>
<text x="50" y="1595" font-family="Arial" font-size="10" fill="black">0.004347672</text>
<text x="50" y="1810" font-family="Arial" font-size="10" fill="black">0.0004393939</text>
<path d="M50,1605.676 L56.25,1693.585 L62.5,1732.023 L68.75,1753.381 L75,1768.047 L81.25,1783.362 L87.5,1790.964 L93.75,1796.155 L100,1617.155 L106.25,1686.807 L112.5,1728.13 L118.75,1754.781 L125,1767.245 L131.25,1779.516 L137.5,1788.227 L143.75,1792.911 L150,1600 L156.25,1681.313 L162.5,1728.74 L168.75,1752.306 L175,1767.651 L181.25,1773.754 L187.5,1785.435 L193.75,1795.136 L200,1618.07 L206.25,1691.198 L212.5,1740.011 L218.75,1759.396 L225,1773.362 L231.25,1786.994 L237.5,1790.278 L243.75,1797.67 L250,1634.62 L256.25,1715.774 L262.5,1750.78 L268.75,1770.654 L275,1785.533 L281.25,1793.313 L287.5,1797.039 L293.75,1800 L300,1641.372 L306.25,1708.541 L312.5,1742.73 L318.75,1757.142 L325,1772.874 L331.25,1779.883 L337.5,1788.464 L343.75,1790.226 L350,1637.328 L356.25,1706.413 L362.5,1745.768 L368.75,1759.141 L375,1777.519 L381.25,1785.917 L387.5,1782.703 L393.75,1792.313 " stroke="blue" fill="none" />
<text x="50" y="1850" font-family="Arial" font-size="12" fill="black">Learning Rate</text>
<text x="50" y="1865" font-family="Arial" font-size="10" fill="black">0.0002</text>
<text x="50" y="2080" font-family="Arial" font-size="10" fill="black">0.0002</text>
<path d="M50,2070 L56.25,2070 L62.5,2070 L68.75,2070 L75,2070 L81.25,2070 L87.5,2070 L93.75,2070 L100,2070 L106.25,2070 L112.5,2070 L118.75,2070 L125,2070 L131.25,2070 L137.5,2070 L143.75,2070 L150,2070 L156.25,2070 L162.5,2070 L168.75,2070 L175,2070 L181.25,2070 L187.5,2070 L193.75,2070 L200,2070 L206.25,2070 L212.5,2070 L218.75,2070 L225,2070 L231.25,2070 L237.5,2070 L243.75,2070 L250,2070 L256.25,2070 L262.5,2070 L268.75,2070 L275,2070 L281.25,2070 L287.5,2070 L293.75,2070 L300,2070 L306.25,2070 L312.5,2070 L318.75,2070 L325,2070 L331.25,2070 L337.5,2070 L343.75,2070 L350,2070 L356.25,2070 L362.5,2070 L368.75,2070 L375,2070 L381.25,2070 L387.5,2070 L393.75,2070 " stroke="blue" fill="none" />
<text x="50" y="2120" font-family="Arial" font-size="12" fill="black">Entropy</text>
<text x="50" y="2135" font-family="Arial" font-size="10" fill="black">0.2756231</text>
<text x="50" y="2350" font-family="Arial" font-size="10" fill="black">0.2756231</text>
<path d="M50,2340 L56.25,2340 L62.5,2340 L68.75,2340 L75,2340 L81.25,2340 L87.5,2340 L93.75,2340 L100,2340 L106.25,2340 L112.5,2340 L118.75,2340 L125,2340 L131.25,2340 L137.5,2340 L143.75,2340 L150,2340 L156.25,2340 L162.5,2340 L168.75,2340 L175,2340 L181.25,2340 L187.5,2340 L193.75,2340 L200,2340 L206.25,2340 L212.5,2340 L218.75,2340 L225,2340 L231.25,2340 L237.5,2340 L243.75,2340 L250,2340 L256.25,2340 L262.5,2340 L268.75,2340 L275,2340 L281.25,2340 L287.5,2340 L293.75,2340 L300,2340 L306.25,2340 L312.5,2340 L318.75,2340 L325,2340 L331.25,2340 L337.5,2340 L343.75,2340 L350,2340 L356.25,2340 L362.5,2340 L368.75,2340 L375,2340 L381.25,2340 L387.5,2340 L393.75,2340 " stroke="blue" fill="none" />
<text x="750" y="770" font-family="Arial" font-size="12" fill="black">Simplified</text>
<text x="750" y="785" font-family="Arial" font-size="10" fill="black">0.8118261</text>
<text x="750" y="1000" font-family="Arial" font-size="10" fill="black">0.62398</text>
<path d="M757.0313,890.1925 L764.4531,844.355 L771.875,874.0643 L779.2969,862.066 L786.7188,893.6287 L794.1406,818.6467 L801.5625,835.7166 L808.9844,914.1324 L816.4063,803.1558 L823.8281,881.6021 L831.25,871.0972 L838.6719,886.6818 L846.0938,879.7001 L853.5156,848.0862 L860.9375,889.6788 L868.3594,857.4484 L875.7813,836.6047 L883.2031,853.6852 L890.625,887.6857 L898.0469,818.517 L905.4688,843.1972 L912.8906,962.0707 L920.3125,812.1095 L927.7344,891.5427 L935.1563,828.9227 L942.5781,879.5168 L950,887.0975 L957.4219,870.2568 L964.8438,862.2466 L972.2656,904.6732 L979.6875,874.134 L987.1094,983.7363 L994.5313,907.1093 L1001.953,990 L1009.375,903.2789 L1016.797,890.603 L1024.219,877.2344 L1031.641,939.8662 L1039.063,865.3729 L1046.484,949.2413 L1053.906,916.9203 L1061.328,982.7328 L1068.75,864.0574 L1076.172,790 L1083.594,838.2476 L1090.625,844.448 " stroke="blue" fill="none" />
<text x="750" y="1040" font-family="Arial" font-size="12" fill="black">Simplified</text>
<text x="750" y="1055" font-family="Arial" font-size="10" fill="black">12.8421</text>
<text x="750" y="1270" font-family="Arial" font-size="10" fill="black">10.05263</text>
<path d="M757.0313,1169.434 L764.4531,1097.736 L771.875,1131.698 L779.2969,1124.151 L786.7188,1150.566 L794.1406,1105.283 L801.5625,1124.151 L808.9844,1188.302 L816.4063,1060 L823.8281,1158.113 L831.25,1139.245 L838.6719,1146.792 L846.0938,1150.566 L853.5156,1135.472 L860.9375,1169.434 L868.3594,1135.472 L875.7813,1131.698 L883.2031,1116.604 L890.625,1158.113 L898.0469,1078.868 L905.4688,1109.057 L912.8906,1214.717 L920.3125,1093.962 L927.7344,1154.34 L935.1563,1101.509 L942.5781,1169.434 L950,1165.66 L957.4219,1143.019 L964.8438,1135.472 L972.2656,1165.66 L979.6875,1135.472 L987.1094,1237.359 L994.5313,1176.981 L1001.953,1260 L1009.375,1173.208 L1016.797,1173.208 L1024.219,1154.34 L1031.641,1207.17 L1039.063,1124.151 L1046.484,1226.038 L1053.906,1184.528 L1061.328,1241.132 L1068.75,1146.792 L1076.172,1075.094 L1083.594,1131.698 L1090.625,1120.377 " stroke="blue" fill="none" />
</svg>
