<svg width="2000" height="2500" xmlns="http://www.w3.org/2000/svg">
<text x="10" y="20" font-family="Arial" font-size="26" fill="black"> [HumanWalk] Training Session</text>
<text x="10" y="50" font-family="Arial" font-size="16" fill="black">[Statistics]</text>
<text x="50" y="70" font-family="Arial" font-size="12" fill="black">Started at: 2:57:33 AM, Wednesday, January 24, 2024</text>
<text x="50" y="90" font-family="Arial" font-size="12" fill="black">Finished at: 2:58:46 AM, Wednesday, January 24, 2024</text>
<text x="50" y="110" font-family="Arial" font-size="12" fill="black">Training Session Time: 0 hrs : 1 min : 12 sec</text>
<text x="50" y="130" font-family="Arial" font-size="12" fill="black">Inference Time: 0 hrs : 13 min : 57 sec        [Device: CPU]</text>
<text x="50" y="150" font-family="Arial" font-size="12" fill="black">Update Time: 0 hrs : 0 min : 32 sec        [Per iteration: 0 hrs : 0 min : 7.746 sec]        [Device: GPU]</text>
<text x="50" y="170" font-family="Arial" font-size="12" fill="black">Episode Count: 374</text>
<text x="50" y="190" font-family="Arial" font-size="12" fill="black">Inference Steps: 16384</text>
<text x="50" y="210" font-family="Arial" font-size="12" fill="black">Iterations: 4</text>
<text x="50" y="230" font-family="Arial" font-size="12" fill="black">Parallel Agents: 1</text>
<text x="50" y="250" font-family="Arial" font-size="12" fill="black">Timescale: 21</text>
<text x="50" y="270" font-family="Arial" font-size="12" fill="black">Trainer: PPO</text>
<text x="10" y="320" font-family="Arial" font-size="16" fill="black">[Hyperparameters]</text>
<text x="50" y="340" font-family="Arial" font-size="12" fill="black">Buffer Size: 4096        [Batch Size: 256       (x16)]</text>
<text x="50" y="360" font-family="Arial" font-size="12" fill="black">Num Epoch: 8</text>
<text x="50" y="380" font-family="Arial" font-size="12" fill="black">Time Horizon: 512</text>
<text x="50" y="400" font-family="Arial" font-size="12" fill="black">Gradient Cliping by Norm: 0.5</text>
<text x="50" y="420" font-family="Arial" font-size="12" fill="black">Learning Rate Schedule: False    </text>
<text x="10" y="470" font-family="Arial" font-size="16" fill="black">[Behaviour]</text>
<text x="50" y="490" font-family="Arial" font-size="12" fill="black">Space Size: 130</text>
<text x="50" y="510" font-family="Arial" font-size="12" fill="black">Continuous Actions: 44 [Standard Deviation: Fixed]     [Value: 3]</text>
<text x="50" y="530" font-family="Arial" font-size="12" fill="black">Discrete Actions: 0</text>
<text x="50" y="550" font-family="Arial" font-size="12" fill="black">TargetFPS: 100 (physics update rate)</text>
<text x="50" y="570" font-family="Arial" font-size="12" fill="black">Observations Normalization: False</text>
<text x="10" y="620" font-family="Arial" font-size="16" fill="black">[Decision Requester]</text>
<text x="50" y="640" font-family="Arial" font-size="12" fill="black">Max Step: 0</text>
<text x="50" y="660" font-family="Arial" font-size="12" fill="black">Decision Period: 5      [Actions Between Decisions: True]</text>
<text x="10" y="710" font-family="Arial" font-size="16" fill="black">[Graphs]</text>
<text x="50" y="730" font-family="Arial" font-size="12" fill="black">Episode Reward (374)</text>
<text x="50" y="745" font-family="Arial" font-size="10" fill="black">0.3098652</text>
<text x="50" y="960" font-family="Arial" font-size="10" fill="black">0.07432578</text>
<path d="M50,862.6844 L50.78125,883.0149 L51.5625,904.2474 L52.34375,899.4362 L53.125,839.4311 L53.90625,871.084 L54.6875,888.7909 L55.46875,855.9277 L56.25,860.6256 L57.03125,884.5012 L57.8125,898.7944 L58.59375,874.3783 L59.375,797.1096 L60.15625,859.7002 L60.9375,869.6268 L61.71875,854.7607 L62.5,873.9453 L63.28125,858.0328 L64.0625,841.0068 L64.84375,870.7158 L65.625,880.4542 L66.40625,870.9532 L67.1875,893.0657 L67.96875,803.6011 L68.75,845.0667 L69.53125,867.9911 L70.3125,858.4131 L71.09375,885.955 L71.875,847.4078 L72.65625,855.3107 L73.4375,862.6797 L74.21875,913.3199 L75,880.4424 L75.78125,886.8148 L76.5625,824.7782 L77.34375,873.1782 L78.125,886.2037 L78.90625,885.5776 L79.6875,872.2598 L80.46875,864.4807 L81.25,868.2101 L82.03125,868.3235 L82.8125,883.7281 L83.59375,884.0179 L84.375,843.2632 L85.15625,889.0852 L85.9375,875.1776 L86.71875,861.618 L87.5,835.1712 L88.28125,861.5964 L89.0625,876.06 L89.84375,832.7858 L90.625,903.2655 L91.40625,862.2654 L92.1875,868.7395 L92.96875,882.3784 L93.75,841.0203 L94.53125,850.5408 L95.3125,881.2693 L96.09375,909.8015 L96.875,888.6707 L97.65625,867.3357 L98.4375,895.2122 L99.21875,885.4814 L100,847.4185 L100.7813,854.9937 L101.5625,871.8362 L102.3438,868.4138 L103.125,867.2529 L103.9063,849.7476 L104.6875,814.4511 L105.4688,895.5806 L106.25,873.1512 L107.0313,877.1039 L107.8125,872.9876 L108.5938,881.7542 L109.375,847.9254 L110.1563,877.2316 L110.9375,842.3347 L111.7188,850.9192 L112.5,844.2559 L113.2813,845.3799 L114.0625,906.9869 L114.8438,875.5989 L115.625,875.1273 L116.4063,815.3194 L117.1875,855.9999 L117.9688,869.1822 L118.75,882.4213 L119.5313,828.0047 L120.3125,901.8817 L121.0938,837.6973 L121.875,888.545 L122.6563,844.5236 L123.4375,867.2769 L124.2188,875.673 L125,840.6865 L125.7813,850.2936 L126.5625,853.7277 L127.3438,882.9263 L128.125,851.7102 L128.9063,849.3964 L129.6875,870.69 L130.4688,894.7609 L131.25,836.6577 L132.0313,857.2245 L132.8125,895.0146 L133.5938,865.1783 L134.375,856.2151 L135.1563,852.0129 L135.9375,882.9073 L136.7188,882.0756 L137.5,880.9551 L138.2813,859.3386 L139.0625,841.0295 L139.8438,895.4127 L140.625,883.5659 L141.4063,869.4382 L142.1875,856.1005 L142.9688,897.6775 L143.75,876.3399 L144.5313,873.6636 L145.3125,863.7341 L146.0938,782.9759 L146.875,826.2086 L147.6563,866.7858 L148.4375,833.4446 L149.2188,870.0224 L150,811.0917 L150.7813,834.6537 L151.5625,808.9202 L152.3438,881.5808 L153.125,854.1356 L153.9063,883.434 L154.6875,857.8258 L155.4688,867.2043 L156.25,880.0006 L157.0313,853.6088 L157.8125,886.9916 L158.5938,843.9321 L159.375,886.6239 L160.1563,849.2392 L160.9375,892.3444 L161.7188,832.6748 L162.5,830.046 L163.2813,900.0719 L164.0625,868.1193 L164.8438,862.0492 L165.625,785.4088 L166.4063,908.4225 L167.1875,839.4699 L167.9688,835.07 L168.75,866.215 L169.5313,877.4569 L170.3125,851.6412 L171.0938,861.1989 L171.875,873.8207 L172.6563,876.3679 L173.4375,890.7164 L174.2188,828.0662 L175,856.473 L175.7813,889.2758 L176.5625,802.1505 L177.3438,853.4249 L178.125,837.1187 L178.9063,851.8796 L179.6875,770.3869 L180.4688,880.1551 L181.25,903.8084 L182.0313,861.7207 L182.8125,866.2141 L183.5938,886.4358 L184.375,857.706 L185.1563,861.2211 L185.9375,825.4828 L186.7188,838.881 L187.5,870.772 L188.2813,877.1825 L189.0625,875.6333 L189.8438,852.3461 L190.625,838.3425 L191.4063,891.0569 L192.1875,826.9754 L192.9688,875.1044 L193.75,827.9461 L194.5313,840.3066 L195.3125,884.0317 L196.0938,832.0375 L196.875,879.6483 L197.6563,816.6104 L198.4375,860.1824 L199.2188,851.2897 L200,846.3951 L200.7813,906.761 L201.5625,933.122 L202.3438,873.142 L203.125,881.9557 L203.9063,850.2327 L204.6875,823.8971 L205.4688,833.9011 L206.25,859.5547 L207.0313,855.4142 L207.8125,815.6007 L208.5938,854.5545 L209.375,834.0818 L210.1563,851.941 L210.9375,834.3377 L211.7188,796.9586 L212.5,882.0169 L213.2813,863.9808 L214.0625,847.5037 L214.8438,819.6454 L215.625,891.8221 L216.4063,827.9901 L217.1875,855.7639 L217.9688,885.0505 L218.75,838.0605 L219.5313,819.1501 L220.3125,750 L221.0938,869.6028 L221.875,861.4097 L222.6563,861.457 L223.4375,864.0151 L224.2188,870.731 L225,876.9617 L225.7813,860.0457 L226.5625,868.4863 L227.3438,822.4496 L228.125,850.9629 L228.9063,827.4643 L229.6875,820.5798 L230.4688,852.9407 L231.25,836.8898 L232.0313,884.9758 L232.8125,844.4339 L233.5938,854.9385 L234.375,872.4032 L235.1563,843.6246 L235.9375,901.8041 L236.7188,874.0797 L237.5,870.9598 L238.2813,856.4661 L239.0625,872.2968 L239.8438,834.0311 L240.625,919.46 L241.4063,852.3602 L242.1875,872.2206 L242.9688,805.2965 L243.75,814.6952 L244.5313,842.2081 L245.3125,893.9558 L246.0938,887.3763 L246.875,775.3971 L247.6563,877.421 L248.4375,810.4296 L249.2188,875.9821 L250,845.6414 L250.7813,919.4332 L251.5625,875.8058 L252.3438,833.6776 L253.125,816.739 L253.9063,875.7377 L254.6875,885.0148 L255.4688,875.5276 L256.25,883.4576 L257.0313,885.007 L257.8125,872.2345 L258.5938,869.8105 L259.375,858.4627 L260.1563,858.1648 L260.9375,861.977 L261.7188,867.0061 L262.5,848.7678 L263.2813,844.8248 L264.0625,851.5534 L264.8438,848.0449 L265.625,880.0487 L266.4063,836.9087 L267.1875,887.1246 L267.9688,857.266 L268.75,865.3568 L269.5313,860.1252 L270.3125,917.3615 L271.0938,828.2672 L271.875,851.751 L272.6563,841.5807 L273.4375,847.3385 L274.2188,845.3664 L275,833.0308 L275.7813,950 L276.5625,824.6262 L277.3438,817.7621 L278.125,882.0923 L278.9063,824.9919 L279.6875,840.0948 L280.4688,754.1987 L281.25,793.2515 L282.0313,846.9717 L282.8125,883.1268 L283.5938,836.8438 L284.375,827.2707 L285.1563,852.2443 L285.9375,852.8626 L286.7188,844.9576 L287.5,827.6414 L288.2813,816.4961 L289.0625,836.204 L289.8438,843.6732 L290.625,878.4451 L291.4063,870.9387 L292.1875,893.4197 L292.9688,809.4103 L293.75,896.8647 L294.5313,875.9664 L295.3125,830.7989 L296.0938,893.5055 L296.875,813.0086 L297.6563,859.8304 L298.4375,873.4464 L299.2188,873.2526 L300,907.1435 L300.7813,844.8458 L301.5625,861.8619 L302.3438,834.8204 L303.125,831.8762 L303.9063,818.7701 L304.6875,849.395 L305.4688,878.0431 L306.25,882.0465 L307.0313,841.4111 L307.8125,884.8734 L308.5938,900.5012 L309.375,862.9285 L310.1563,851.9481 L310.9375,772.2322 L311.7188,886.093 L312.5,846.3285 L313.2813,873.5 L314.0625,884.1287 L314.8438,880.5447 L315.625,826.0585 L316.4063,915.3754 L317.1875,895.1363 L317.9688,872.025 L318.75,877.6683 L319.5313,858.1625 L320.3125,857.6914 L321.0938,846.5172 L321.875,865.4611 L322.6563,864.8081 L323.4375,795.8453 L324.2188,895.9636 L325,846.818 L325.7813,891.489 L326.5625,804.9897 L327.3438,864.2464 L328.125,886.9647 L328.9063,864.6057 L329.6875,874.363 L330.4688,858.1753 L331.25,860.2002 L332.0313,814.2225 L332.8125,854.762 L333.5938,864.8458 L334.375,883.3464 L335.1563,888.235 L335.9375,863.0118 L336.7188,835.931 L337.5,830.9515 L338.2813,895.1599 L339.0625,863.7055 L339.8438,880.9145 L340.625,876.9871 L341.4063,848.6752 " stroke="blue" fill="none" />
<text x="50" y="1000" font-family="Arial" font-size="12" fill="black">Episode Length (374)</text>
<text x="50" y="1015" font-family="Arial" font-size="10" fill="black">83</text>
<text x="50" y="1230" font-family="Arial" font-size="10" fill="black">21</text>
<path d="M50,1145.806 L50.78125,1149.032 L51.5625,1184.516 L52.34375,1187.742 L53.125,1132.903 L53.90625,1161.935 L54.6875,1165.161 L55.46875,1145.806 L56.25,1145.806 L57.03125,1168.387 L57.8125,1181.29 L58.59375,1158.71 L59.375,1087.742 L60.15625,1149.032 L60.9375,1158.71 L61.71875,1142.581 L62.5,1165.161 L63.28125,1139.355 L64.0625,1129.677 L64.84375,1158.71 L65.625,1168.387 L66.40625,1158.71 L67.1875,1171.613 L67.96875,1084.516 L68.75,1136.129 L69.53125,1152.258 L70.3125,1149.032 L71.09375,1171.613 L71.875,1136.129 L72.65625,1145.806 L73.4375,1145.806 L74.21875,1165.161 L75,1168.387 L75.78125,1171.613 L76.5625,1110.323 L77.34375,1155.484 L78.125,1174.839 L78.90625,1168.387 L79.6875,1158.71 L80.46875,1152.258 L81.25,1155.484 L82.03125,1158.71 L82.8125,1168.387 L83.59375,1168.387 L84.375,1129.677 L85.15625,1174.839 L85.9375,1161.935 L86.71875,1145.806 L87.5,1123.226 L88.28125,1116.774 L89.0625,1165.161 L89.84375,1113.548 L90.625,1187.742 L91.40625,1152.258 L92.1875,1158.71 L92.96875,1171.613 L93.75,1132.903 L94.53125,1097.419 L95.3125,1165.161 L96.09375,1184.516 L96.875,1168.387 L97.65625,1152.258 L98.4375,1174.839 L99.21875,1168.387 L100,1100.645 L100.7813,1149.032 L101.5625,1158.71 L102.3438,1152.258 L103.125,1155.484 L103.9063,1136.129 L104.6875,1100.645 L105.4688,1181.29 L106.25,1113.548 L107.0313,1152.258 L107.8125,1161.935 L108.5938,1165.161 L109.375,1129.677 L110.1563,1165.161 L110.9375,1113.548 L111.7188,1139.355 L112.5,1136.129 L113.2813,1136.129 L114.0625,1187.742 L114.8438,1161.935 L115.625,1165.161 L116.4063,1107.097 L117.1875,1139.355 L117.9688,1158.71 L118.75,1165.161 L119.5313,1116.774 L120.3125,1178.065 L121.0938,1129.677 L121.875,1149.032 L122.6563,1126.452 L123.4375,1152.258 L124.2188,1168.387 L125,1123.226 L125.7813,1136.129 L126.5625,1103.871 L127.3438,1171.613 L128.125,1142.581 L128.9063,1136.129 L129.6875,1155.484 L130.4688,1174.839 L131.25,1129.677 L132.0313,1149.032 L132.8125,1174.839 L133.5938,1145.806 L134.375,1149.032 L135.1563,1145.806 L135.9375,1142.581 L136.7188,1168.387 L137.5,1165.161 L138.2813,1142.581 L139.0625,1120 L139.8438,1155.484 L140.625,1165.161 L141.4063,1152.258 L142.1875,1142.581 L142.9688,1178.065 L143.75,1165.161 L144.5313,1161.935 L145.3125,1149.032 L146.0938,1071.613 L146.875,1113.548 L147.6563,1152.258 L148.4375,1120 L149.2188,1158.71 L150,1097.419 L150.7813,1126.452 L151.5625,1071.613 L152.3438,1168.387 L153.125,1145.806 L153.9063,1158.71 L154.6875,1149.032 L155.4688,1155.484 L156.25,1161.935 L157.0313,1139.355 L157.8125,1165.161 L158.5938,1136.129 L159.375,1158.71 L160.1563,1136.129 L160.9375,1171.613 L161.7188,1120 L162.5,1116.774 L163.2813,1184.516 L164.0625,1158.71 L164.8438,1149.032 L165.625,1023.226 L166.4063,1190.968 L167.1875,1132.903 L167.9688,1126.452 L168.75,1155.484 L169.5313,1165.161 L170.3125,1139.355 L171.0938,1152.258 L171.875,1155.484 L172.6563,1158.71 L173.4375,1174.839 L174.2188,1113.548 L175,1145.806 L175.7813,1171.613 L176.5625,1065.161 L177.3438,1139.355 L178.125,1126.452 L178.9063,1136.129 L179.6875,1042.581 L180.4688,1165.161 L181.25,1171.613 L182.0313,1145.806 L182.8125,1152.258 L183.5938,1171.613 L184.375,1149.032 L185.1563,1149.032 L185.9375,1116.774 L186.7188,1123.226 L187.5,1139.355 L188.2813,1158.71 L189.0625,1165.161 L189.8438,1142.581 L190.625,1123.226 L191.4063,1171.613 L192.1875,1110.323 L192.9688,1165.161 L193.75,1120 L194.5313,1132.903 L195.3125,1168.387 L196.0938,1113.548 L196.875,1165.161 L197.6563,1103.871 L198.4375,1145.806 L199.2188,1142.581 L200,1142.581 L200.7813,1181.29 L201.5625,1210.323 L202.3438,1155.484 L203.125,1165.161 L203.9063,1139.355 L204.6875,1113.548 L205.4688,1120 L206.25,1145.806 L207.0313,1145.806 L207.8125,1107.097 L208.5938,1142.581 L209.375,1123.226 L210.1563,1139.355 L210.9375,1116.774 L211.7188,1071.613 L212.5,1161.935 L213.2813,1152.258 L214.0625,1136.129 L214.8438,1068.387 L215.625,1174.839 L216.4063,1116.774 L217.1875,1100.645 L217.9688,1168.387 L218.75,1132.903 L219.5313,1110.323 L220.3125,1039.355 L221.0938,1158.71 L221.875,1136.129 L222.6563,1149.032 L223.4375,1145.806 L224.2188,1145.806 L225,1165.161 L225.7813,1145.806 L226.5625,1155.484 L227.3438,1113.548 L228.125,1139.355 L228.9063,1116.774 L229.6875,1113.548 L230.4688,1145.806 L231.25,1126.452 L232.0313,1158.71 L232.8125,1129.677 L233.5938,1142.581 L234.375,1161.935 L235.1563,1132.903 L235.9375,1184.516 L236.7188,1158.71 L237.5,1152.258 L238.2813,1149.032 L239.0625,1158.71 L239.8438,1123.226 L240.625,1200.645 L241.4063,1136.129 L242.1875,1152.258 L242.9688,1087.742 L243.75,1107.097 L244.5313,1087.742 L245.3125,1178.065 L246.0938,1171.613 L246.875,1061.935 L247.6563,1165.161 L248.4375,1049.032 L249.2188,1165.161 L250,1110.323 L250.7813,1194.194 L251.5625,1165.161 L252.3438,1116.774 L253.125,1110.323 L253.9063,1161.935 L254.6875,1168.387 L255.4688,1161.935 L256.25,1165.161 L257.0313,1174.839 L257.8125,1158.71 L258.5938,1158.71 L259.375,1149.032 L260.1563,1145.806 L260.9375,1145.806 L261.7188,1149.032 L262.5,1129.677 L263.2813,1132.903 L264.0625,1139.355 L264.8438,1136.129 L265.625,1165.161 L266.4063,1129.677 L267.1875,1149.032 L267.9688,1145.806 L268.75,1152.258 L269.5313,1149.032 L270.3125,1200.645 L271.0938,1120 L271.875,1139.355 L272.6563,1129.677 L273.4375,1129.677 L274.2188,1136.129 L275,1116.774 L275.7813,1220 L276.5625,1110.323 L277.3438,1107.097 L278.125,1155.484 L278.9063,1113.548 L279.6875,1126.452 L280.4688,1020 L281.25,1074.839 L282.0313,1139.355 L282.8125,1132.903 L283.5938,1123.226 L284.375,1110.323 L285.1563,1142.581 L285.9375,1126.452 L286.7188,1132.903 L287.5,1116.774 L288.2813,1103.871 L289.0625,1129.677 L289.8438,1126.452 L290.625,1139.355 L291.4063,1155.484 L292.1875,1171.613 L292.9688,1100.645 L293.75,1178.065 L294.5313,1161.935 L295.3125,1113.548 L296.0938,1174.839 L296.875,1100.645 L297.6563,1145.806 L298.4375,1158.71 L299.2188,1165.161 L300,1187.742 L300.7813,1132.903 L301.5625,1145.806 L302.3438,1126.452 L303.125,1071.613 L303.9063,1103.871 L304.6875,1142.581 L305.4688,1165.161 L306.25,1165.161 L307.0313,1132.903 L307.8125,1145.806 L308.5938,1187.742 L309.375,1149.032 L310.1563,1142.581 L310.9375,1039.355 L311.7188,1174.839 L312.5,1090.968 L313.2813,1158.71 L314.0625,1165.161 L314.8438,1136.129 L315.625,1116.774 L316.4063,1187.742 L317.1875,1181.29 L317.9688,1116.774 L318.75,1165.161 L319.5313,1145.806 L320.3125,1149.032 L321.0938,1139.355 L321.875,1152.258 L322.6563,1155.484 L323.4375,1078.065 L324.2188,1181.29 L325,1123.226 L325.7813,1174.839 L326.5625,1081.29 L327.3438,1145.806 L328.125,1168.387 L328.9063,1155.484 L329.6875,1158.71 L330.4688,1149.032 L331.25,1142.581 L332.0313,1097.419 L332.8125,1139.355 L333.5938,1155.484 L334.375,1171.613 L335.1563,1171.613 L335.9375,1152.258 L336.7188,1081.29 L337.5,1123.226 L338.2813,1178.065 L339.0625,1145.806 L339.8438,1161.935 L340.625,1161.935 L341.4063,1139.355 " stroke="blue" fill="none" />
<text x="50" y="1270" font-family="Arial" font-size="12" fill="black">Policy Loss</text>
<text x="50" y="1285" font-family="Arial" font-size="10" fill="black">0.02603863</text>
<text x="50" y="1500" font-family="Arial" font-size="10" fill="black">0.01198661</text>
<path d="M50,1290 L75,1446.768 L100,1490 L125,1488.5 " stroke="blue" fill="none" />
<text x="50" y="1540" font-family="Arial" font-size="12" fill="black">Value Loss</text>
<text x="50" y="1555" font-family="Arial" font-size="10" fill="black">0.0002469497</text>
<text x="50" y="1770" font-family="Arial" font-size="10" fill="black">9.580981E-05</text>
<path d="M50,1760 L75,1673.844 L100,1605.604 L125,1560.013 " stroke="blue" fill="none" />
<text x="50" y="1810" font-family="Arial" font-size="12" fill="black">Learning Rate</text>
<text x="50" y="1825" font-family="Arial" font-size="10" fill="black">0.0003</text>
<text x="50" y="2040" font-family="Arial" font-size="10" fill="black">0.0003</text>
<path d="M50,2030 L75,2030 L100,2030 L125,2030 " stroke="blue" fill="none" />
<text x="50" y="2080" font-family="Arial" font-size="12" fill="black">Entropy</text>
<text x="50" y="2095" font-family="Arial" font-size="10" fill="black">3.023622</text>
<text x="50" y="2310" font-family="Arial" font-size="10" fill="black">3</text>
<path d="M50,2300 L75,2101.563 L100,2100.012 L125,2100 " stroke="blue" fill="none" />
<text x="750" y="730" font-family="Arial" font-size="12" fill="black">Simplified</text>
<text x="750" y="745" font-family="Arial" font-size="10" fill="black">0.2014792</text>
<text x="750" y="960" font-family="Arial" font-size="10" fill="black">0.1671157</text>
<path d="M764.0625,922.6169 L778.9063,927.9672 L793.75,921.2997 L808.5938,950 L823.4375,879.1506 L838.2813,908.3115 L853.125,832.3134 L867.9688,881.2883 L882.8125,858.0389 L897.6563,843.4752 L912.5,839.0083 L927.3438,806.1028 L942.1875,874.2012 L957.0313,851.0809 L971.875,882.197 L986.7188,750.0001 L1001.563,861.1639 L1016.406,866.2583 L1031.25,887.9962 L1041.406,884.0977 " stroke="blue" fill="none" />
<text x="750" y="1000" font-family="Arial" font-size="12" fill="black">Simplified</text>
<text x="750" y="1015" font-family="Arial" font-size="10" fill="black">50.89474</text>
<text x="750" y="1230" font-family="Arial" font-size="10" fill="black">41.89474</text>
<path d="M764.0625,1220 L778.9063,1217.661 L793.75,1218.83 L808.5938,1197.778 L823.4375,1168.538 L838.2813,1193.099 L853.125,1117.076 L867.9688,1160.351 L882.8125,1139.298 L897.6563,1143.977 L912.5,1136.959 L927.3438,1080.819 L942.1875,1177.895 L957.0313,1112.398 L971.875,1182.573 L986.7188,1020 L1001.563,1150.994 L1016.406,1112.398 L1031.25,1170.877 L1041.406,1164.669 " stroke="blue" fill="none" />
</svg>
