<svg width="2000" height="2500" xmlns="http://www.w3.org/2000/svg">
<text x="10" y="20" font-family="Arial" font-size="26" fill="black"> [HumanWalk] Training Session</text>
<text x="10" y="50" font-family="Arial" font-size="16" fill="black">[Statistics]</text>
<text x="50" y="70" font-family="Arial" font-size="12" fill="black">Started at: 9:54:25 PM, Tuesday, January 23, 2024</text>
<text x="50" y="90" font-family="Arial" font-size="12" fill="black">Finished at: 9:56:27 PM, Tuesday, January 23, 2024</text>
<text x="50" y="110" font-family="Arial" font-size="12" fill="black">Training Session Time: 0 hrs : 1 min : 42 sec</text>
<text x="50" y="130" font-family="Arial" font-size="12" fill="black">Inference Time: 0 hrs : 14 min : 56 sec        [Device: CPU]</text>
<text x="50" y="150" font-family="Arial" font-size="12" fill="black">Update Time: 0 hrs : 0 min : 47 sec        [Per iteration: 0 hrs : 0 min : 10.489 sec]        [Device: GPU]</text>
<text x="50" y="170" font-family="Arial" font-size="12" fill="black">Episode Count: 1225</text>
<text x="50" y="190" font-family="Arial" font-size="12" fill="black">Inference Steps: 16384</text>
<text x="50" y="210" font-family="Arial" font-size="12" fill="black">Iterations: 4</text>
<text x="50" y="230" font-family="Arial" font-size="12" fill="black">Parallel Agents: 1</text>
<text x="50" y="250" font-family="Arial" font-size="12" fill="black">Timescale: 0.98</text>
<text x="50" y="270" font-family="Arial" font-size="12" fill="black">Trainer: PPO</text>
<text x="10" y="320" font-family="Arial" font-size="16" fill="black">[Hyperparameters]</text>
<text x="50" y="340" font-family="Arial" font-size="12" fill="black">Buffer Size: 4096        [Batch Size: 128       (x32)]</text>
<text x="50" y="360" font-family="Arial" font-size="12" fill="black">Num Epoch: 8</text>
<text x="50" y="380" font-family="Arial" font-size="12" fill="black">Time Horizon: 64</text>
<text x="50" y="400" font-family="Arial" font-size="12" fill="black">Gradient Cliping by Norm: 0.5</text>
<text x="50" y="420" font-family="Arial" font-size="12" fill="black">Learning Rate Schedule: False    </text>
<text x="10" y="470" font-family="Arial" font-size="16" fill="black">[Behaviour]</text>
<text x="50" y="490" font-family="Arial" font-size="12" fill="black">Space Size: 130</text>
<text x="50" y="510" font-family="Arial" font-size="12" fill="black">Continuous Actions: 44 [Standard Deviation: Fixed]     [Value: 1.51]</text>
<text x="50" y="530" font-family="Arial" font-size="12" fill="black">Discrete Actions: 0</text>
<text x="50" y="550" font-family="Arial" font-size="12" fill="black">TargetFPS: 100 (physics update rate)</text>
<text x="50" y="570" font-family="Arial" font-size="12" fill="black">Observations Normalization: False</text>
<text x="10" y="620" font-family="Arial" font-size="16" fill="black">[Decision Requester]</text>
<text x="50" y="640" font-family="Arial" font-size="12" fill="black">Max Step: 0</text>
<text x="50" y="660" font-family="Arial" font-size="12" fill="black">Decision Period: 5      [Actions Between Decisions: True]</text>
<text x="10" y="710" font-family="Arial" font-size="16" fill="black">[Graphs]</text>
<text x="50" y="730" font-family="Arial" font-size="12" fill="black">Episode Reward (1225)</text>
<text x="50" y="745" font-family="Arial" font-size="10" fill="black">1.218837</text>
<text x="50" y="960" font-family="Arial" font-size="10" fill="black">0.2342439</text>
<path d="M50,926.1224 L50.39063,917.8211 L50.78125,861.4793 L51.17188,912.4866 L51.5625,913.2828 L51.95313,907.5723 L52.34375,887.4421 L52.73438,839.4855 L53.125,896.7805 L53.51563,919.0177 L53.90625,865.7899 L54.29688,870.0326 L54.6875,903.0881 L55.07813,879.09 L55.46875,917.1913 L55.85938,889.2656 L56.25,875.1213 L56.64063,933.4306 L57.03125,867.6011 L57.42188,859.1916 L57.8125,829.9204 L58.20313,902.694 L58.59375,874.1177 L58.98438,897.9963 L59.375,899.1635 L59.76563,852.6611 L60.15625,932.0733 L60.54688,832.7302 L60.9375,850.8658 L61.32813,930.2151 L61.71875,836.4291 L62.10938,824.229 L62.5,864.1754 L62.89063,931.9855 L63.28125,918.5436 L63.67188,779.2424 L64.0625,920.9092 L64.45313,907.5038 L64.84375,918.6591 L65.23438,832.9216 L65.625,885.8499 L66.01563,833.6462 L66.40625,903.8672 L66.79688,915.0826 L67.1875,892.7693 L67.57813,882.1875 L67.96875,826.2271 L68.35938,940.1932 L68.75,841.5529 L69.14063,843.2015 L69.53125,902.6133 L69.92188,896.7372 L70.3125,880.6809 L70.70313,891.2795 L71.09375,902.2945 L71.48438,912.1382 L71.875,913.7466 L72.26563,892.1016 L72.65625,882.9458 L73.04688,886.2127 L73.4375,907.8704 L73.82813,919.3768 L74.21875,893.4786 L74.60938,886.0037 L75,924.841 L75.39063,875.2315 L75.78125,851.1013 L76.17188,886.4896 L76.5625,925.1122 L76.95313,856.9542 L77.34375,879.6976 L77.73438,885.5888 L78.125,905.114 L78.51563,867.1815 L78.90625,860.545 L79.29688,880.3589 L79.6875,894.3618 L80.07813,888.5573 L80.46875,897.0394 L80.85938,910.0223 L81.25,868.1229 L81.64063,911.2332 L82.03125,855.511 L82.42188,852.2746 L82.8125,870.0565 L83.20313,877.2592 L83.59375,792.4875 L83.98438,897.7581 L84.375,871.938 L84.76563,897.4174 L85.15625,907.5748 L85.54688,876.3952 L85.9375,897.7797 L86.32813,928.607 L86.71875,919.2339 L87.10938,904.7405 L87.5,873.8323 L87.89063,886.9344 L88.28125,861.9776 L88.67188,943.3401 L89.0625,923.382 L89.45313,900.39 L89.84375,898.231 L90.23438,882.0096 L90.625,906.1715 L91.01563,919.6028 L91.40625,885.0419 L91.79688,884.9074 L92.1875,807.1564 L92.57813,867.5226 L92.96875,920.637 L93.35938,877.4388 L93.75,893.1151 L94.14063,891.121 L94.53125,912.7038 L94.92188,858.6516 L95.3125,831.1635 L95.70313,883.4421 L96.09375,906.8035 L96.48438,895.76 L96.875,927.434 L97.26563,853.0342 L97.65625,898.6049 L98.04688,867.4273 L98.4375,906.3772 L98.82813,879.2508 L99.21875,910.2802 L99.60938,838.1607 L100,923.2551 L100.3906,918.9457 L100.7813,913.7211 L101.1719,882.9337 L101.5625,910.3593 L101.9531,869.6307 L102.3438,938.0818 L102.7344,866.09 L103.125,914.5654 L103.5156,842.4284 L103.9063,890.9578 L104.2969,880.7621 L104.6875,871.7553 L105.0781,917.1018 L105.4688,926.2151 L105.8594,899.0266 L106.25,921.1746 L106.6406,931.8356 L107.0313,891.714 L107.4219,865.3378 L107.8125,904.5729 L108.2031,886.7298 L108.5938,915.9736 L108.9844,884.291 L109.375,899.449 L109.7656,824.114 L110.1563,922.9836 L110.5469,915.9742 L110.9375,881.7664 L111.3281,883.9561 L111.7188,899.0853 L112.1094,900.8517 L112.5,882.4695 L112.8906,856.9371 L113.2813,926.95 L113.6719,899.8928 L114.0625,898.2125 L114.4531,840.9285 L114.8438,861.3647 L115.2344,909.7992 L115.625,898.8303 L116.0156,785.7133 L116.4063,902.4502 L116.7969,884.9459 L117.1875,813.6904 L117.5781,928.0408 L117.9688,907.4699 L118.3594,910.4827 L118.75,855.2248 L119.1406,918.834 L119.5313,850.009 L119.9219,846.4489 L120.3125,879.8715 L120.7031,835.0236 L121.0938,891.7603 L121.4844,909.7219 L121.875,899.3306 L122.2656,828.6846 L122.6563,913.2705 L123.0469,905.4836 L123.4375,887.618 L123.8281,815.9635 L124.2188,882.6085 L124.6094,897.3488 L125,855.9999 L125.3906,906.4005 L125.7813,912.0344 L126.1719,882.0347 L126.5625,893.5844 L126.9531,862.6736 L127.3438,910.793 L127.7344,904.368 L128.125,865.0872 L128.5156,905.1512 L128.9063,888.9755 L129.2969,837.5371 L129.6875,899.8149 L130.0781,833.1547 L130.4688,908.4234 L130.8594,888.453 L131.25,883.2028 L131.6406,893.5378 L132.0313,885.5025 L132.4219,921.2197 L132.8125,823.2168 L133.2031,874.4381 L133.5938,919.2657 L133.9844,889.6202 L134.375,819.6239 L134.7656,878.9186 L135.1563,890.7435 L135.5469,895.0519 L135.9375,872.9971 L136.3281,922.8484 L136.7188,867.1842 L137.1094,916.7625 L137.5,898.6635 L137.8906,923.8318 L138.2813,920.2377 L138.6719,894.6143 L139.0625,909.9976 L139.4531,918.9863 L139.8438,875.517 L140.2344,900.7916 L140.625,890.3432 L141.0156,894.3807 L141.4063,884.144 L141.7969,869.8869 L142.1875,926.0912 L142.5781,916.9203 L142.9688,915.597 L143.3594,875.3082 L143.75,854.269 L144.1406,898.6051 L144.5313,915.5441 L144.9219,856.3679 L145.3125,812.1052 L145.7031,889.6818 L146.0938,944.0266 L146.4844,897.7023 L146.875,898.1987 L147.2656,864.8374 L147.6563,825.9086 L148.0469,859.272 L148.4375,849.2996 L148.8281,901.9104 L149.2188,900.2362 L149.6094,935.5196 L150,869.6701 L150.3906,902.6098 L150.7813,896.0829 L151.1719,910.483 L151.5625,901.3995 L151.9531,882.7602 L152.3438,876.6761 L152.7344,931.773 L153.125,872.767 L153.5156,892.1459 L153.9063,916.7456 L154.2969,882.5241 L154.6875,863.8629 L155.0781,829.2516 L155.4688,927.8204 L155.8594,865.7964 L156.25,858.4356 L156.6406,930.5201 L157.0313,825.4501 L157.4219,897.6632 L157.8125,874.7858 L158.2031,885.6885 L158.5938,900.6208 L158.9844,887.3062 L159.375,866.0934 L159.7656,939.922 L160.1563,920.1677 L160.5469,886.444 L160.9375,928.7467 L161.3281,931.7255 L161.7188,920.24 L162.1094,906.8522 L162.5,887.3074 L162.8906,889.2657 L163.2813,850.5494 L163.6719,863.4249 L164.0625,910.0947 L164.4531,888.0488 L164.8438,891.4271 L165.2344,916.9189 L165.625,916.5636 L166.0156,931.7908 L166.4063,891.8077 L166.7969,920.7396 L167.1875,898.3181 L167.5781,923.4523 L167.9688,890.5878 L168.3594,881.663 L168.75,906.6332 L169.1406,887.1463 L169.5313,908.9048 L169.9219,828.7681 L170.3125,897.2001 L170.7031,933.8344 L171.0938,904.3191 L171.4844,885.1019 L171.875,901.487 L172.2656,892.0368 L172.6563,884.2332 L173.0469,882.9025 L173.4375,904.2104 L173.8281,827.2207 L174.2188,873.8263 L174.6094,909.601 L175,896.6847 L175.3906,898.3646 L175.7813,898.3044 L176.1719,886.8066 L176.5625,906.9927 L176.9531,849.225 L177.3438,889.037 L177.7344,841.7313 L178.125,885.6975 L178.5156,893.4858 L178.9063,920.0233 L179.2969,897.7402 L179.6875,864.0698 L180.0781,895.8481 L180.4688,914.5101 L180.8594,895.8864 L181.25,909.0283 L181.6406,823.7523 L182.0313,900.1826 L182.4219,889.3725 L182.8125,913.5418 L183.2031,888.0136 L183.5938,926.6693 L183.9844,899.6309 L184.375,895.166 L184.7656,924.0768 L185.1563,939.0825 L185.5469,883.7764 L185.9375,882.9503 L186.3281,890.3384 L186.7188,849.1298 L187.1094,906.5946 L187.5,880.6649 L187.8906,885.1096 L188.2813,876.3999 L188.6719,891.8674 L189.0625,924.507 L189.4531,920.4268 L189.8438,906.72 L190.2344,939.693 L190.625,875.1008 L191.0156,848.9815 L191.4063,854.4405 L191.7969,882.5709 L192.1875,870.7546 L192.5781,908.8452 L192.9688,847.5904 L193.3594,865.3998 L193.75,896.5856 L194.1406,881.0628 L194.5313,804.039 L194.9219,882.9188 L195.3125,860.3501 L195.7031,892.9827 L196.0938,901.0497 L196.4844,906.0836 L196.875,885.1464 L197.2656,886.8763 L197.6563,922.9296 L198.0469,874.3925 L198.4375,856.7033 L198.8281,890.7473 L199.2188,856.1867 L199.6094,874.2268 L200,913.7726 L200.3906,901.0756 L200.7813,827.4486 L201.1719,925.8587 L201.5625,854.5631 L201.9531,901.7726 L202.3438,891.9152 L202.7344,899.556 L203.125,882.1182 L203.5156,918.269 L203.9063,868.2376 L204.2969,839.2321 L204.6875,902.4142 L205.0781,899.9897 L205.4688,863.5375 L205.8594,889.9154 L206.25,905.1339 L206.6406,932.4992 L207.0313,885.1954 L207.4219,906.9435 L207.8125,887.6747 L208.2031,905.0629 L208.5938,873.3353 L208.9844,905.8068 L209.375,831.7116 L209.7656,884.2293 L210.1563,881.0054 L210.5469,890.2001 L210.9375,902.9759 L211.3281,903.2607 L211.7188,874.4325 L212.1094,853.934 L212.5,870.606 L212.8906,913.4642 L213.2813,876.3472 L213.6719,910.7274 L214.0625,910.5071 L214.4531,907.9713 L214.8438,882.6929 L215.2344,890.3825 L215.625,901.1628 L216.0156,846.6182 L216.4063,898.054 L216.7969,886.6804 L217.1875,906.092 L217.5781,905.7672 L217.9688,878.2638 L218.3594,901.9704 L218.75,909.7307 L219.1406,936.584 L219.5313,884.1909 L219.9219,906.4197 L220.3125,893.6343 L220.7031,855.0813 L221.0938,874.5872 L221.4844,917.4833 L221.875,893.1068 L222.2656,882.6852 L222.6563,871.5117 L223.0469,885.2519 L223.4375,868.5184 L223.8281,905.851 L224.2188,880.5695 L224.6094,851.3251 L225,887.7616 L225.3906,895.0412 L225.7813,925.3079 L226.1719,896.7289 L226.5625,884.8714 L226.9531,892.1578 L227.3438,899.7578 L227.7344,844.4579 L228.125,853.9131 L228.5156,843.8111 L228.9063,883.8428 L229.2969,894.132 L229.6875,779.463 L230.0781,880.2403 L230.4688,919.3033 L230.8594,873.017 L231.25,907.0211 L231.6406,884.7375 L232.0313,861.1511 L232.4219,935.7416 L232.8125,900.632 L233.2031,869.9215 L233.5938,882.3137 L233.9844,836.3815 L234.375,885.2018 L234.7656,838.9844 L235.1563,907.9818 L235.5469,895.8851 L235.9375,903.9225 L236.3281,922.7904 L236.7188,882.8265 L237.1094,836.957 L237.5,909.5356 L237.8906,910.7586 L238.2813,904.329 L238.6719,893.4227 L239.0625,837.014 L239.4531,950 L239.8438,922.6729 L240.2344,908.7501 L240.625,888.5289 L241.0156,899.2345 L241.4063,890.6312 L241.7969,923.9952 L242.1875,891.9813 L242.5781,883.308 L242.9688,867.6194 L243.3594,918.8681 L243.75,893.1519 L244.1406,897.7786 L244.5313,863.4911 L244.9219,824.9808 L245.3125,855.6807 L245.7031,816.3271 L246.0938,856.4164 L246.4844,885.4523 L246.875,835.5665 L247.2656,847.3255 L247.6563,894.6864 L248.0469,844.9133 L248.4375,888.9597 L248.8281,916.1789 L249.2188,862.433 L249.6094,910.1739 L250,885.4461 L250.3906,885.2178 L250.7813,873.7035 L251.1719,921.1629 L251.5625,890.3921 L251.9531,907.6722 L252.3438,886.9019 L252.7344,882.158 L253.125,949.6589 L253.5156,917.2809 L253.9063,912.6452 L254.2969,897.7252 L254.6875,898.2484 L255.0781,854.5989 L255.4688,821.731 L255.8594,824.0507 L256.25,888.0038 L256.6406,850.1616 L257.0313,911.7527 L257.4219,899.3724 L257.8125,917.9973 L258.2031,925.6647 L258.5938,884.4154 L258.9844,935.2595 L259.375,850.5226 L259.7656,859.4306 L260.1563,907.5953 L260.5469,919.3582 L260.9375,911.9838 L261.3281,912.8284 L261.7188,895.9063 L262.1094,882.9594 L262.5,888.4168 L262.8906,892.2767 L263.2813,884.4427 L263.6719,878.1899 L264.0625,764.2228 L264.4531,889.1461 L264.8438,909.972 L265.2344,887.2871 L265.625,911.473 L266.0156,902.2579 L266.4063,876.3885 L266.7969,926.9813 L267.1875,925.654 L267.5781,870.0493 L267.9688,919.4794 L268.3594,919.4434 L268.75,881.0121 L269.1406,933.9349 L269.5313,911.9228 L269.9219,888.9429 L270.3125,887.4035 L270.7031,918.4984 L271.0938,897.5124 L271.4844,862.568 L271.875,888.6755 L272.2656,897.8802 L272.6563,927.925 L273.0469,857.4651 L273.4375,885.8361 L273.8281,936.4703 L274.2188,899.4277 L274.6094,890.0714 L275,932.7252 L275.3906,910.1279 L275.7813,909.5254 L276.1719,859.268 L276.5625,925.2872 L276.9531,834.3845 L277.3438,915.3475 L277.7344,906.7385 L278.125,880.8613 L278.5156,839.9307 L278.9063,922.0747 L279.2969,892.5883 L279.6875,822.257 L280.0781,831.9589 L280.4688,897.3799 L280.8594,900.7219 L281.25,916.3326 L281.6406,928.9474 L282.0313,849.3278 L282.4219,910.5213 L282.8125,869.0855 L283.2031,904.4824 L283.5938,818.9081 L283.9844,891.0229 L284.375,928.1246 L284.7656,932.2716 L285.1563,883.1987 L285.5469,933.2186 L285.9375,880.8821 L286.3281,881.4183 L286.7188,918.4386 L287.1094,858.7934 L287.5,842.428 L287.8906,859.846 L288.2813,828.9343 L288.6719,894.3587 L289.0625,929.524 L289.4531,832.1956 L289.8438,885.4025 L290.2344,871.948 L290.625,891.9838 L291.0156,893.4614 L291.4063,904.6136 L291.7969,842.8494 L292.1875,867.7759 L292.5781,903.7689 L292.9688,875.4814 L293.3594,912.0054 L293.75,897.9108 L294.1406,872.1081 L294.5313,845.6361 L294.9219,843.3225 L295.3125,850.6979 L295.7031,912.0128 L296.0938,904.6047 L296.4844,891.173 L296.875,939.8511 L297.2656,865.3057 L297.6563,908.4409 L298.0469,834.9341 L298.4375,917.9781 L298.8281,858.4968 L299.2188,924.1389 L299.6094,885.0211 L300,894.5338 L300.3906,873.6179 L300.7813,926.7735 L301.1719,939.7343 L301.5625,832.1472 L301.9531,930.967 L302.3438,911.8144 L302.7344,920.3192 L303.125,873.1915 L303.5156,875.001 L303.9063,913.5542 L304.2969,906.4102 L304.6875,905.4794 L305.0781,875.7185 L305.4688,924.4329 L305.8594,905.3459 L306.25,923.9868 L306.6407,835.1821 L307.0313,885.3578 L307.4219,871.0795 L307.8125,884.2778 L308.2031,909.553 L308.5938,854.8899 L308.9844,913.05 L309.375,891.3442 L309.7656,909.0942 L310.1563,886.5057 L310.5469,846.5013 L310.9375,898.9395 L311.3281,920.037 L311.7188,835.5294 L312.1094,904.7662 L312.5,847.0284 L312.8906,882.2106 L313.2813,884.8319 L313.6719,890.1899 L314.0625,877.0079 L314.4532,934.4482 L314.8438,888.9634 L315.2344,918.3549 L315.625,876.429 L316.0156,908.124 L316.4063,798.063 L316.7969,864.1348 L317.1875,799.6974 L317.5781,892.6621 L317.9688,819.7682 L318.3594,750 L318.75,916.6533 L319.1406,924.8271 L319.5313,934.3072 L319.9219,853.5889 L320.3125,930.5126 L320.7031,847.8644 L321.0938,916.7368 L321.4844,871.9941 L321.875,829.0601 L322.2657,927.3218 L322.6563,891.7201 L323.0469,903.1862 L323.4375,871.3234 L323.8281,892.0518 L324.2188,860.3477 L324.6094,917.9822 L325,930.2059 L325.3906,790.2182 L325.7813,821.9223 L326.1719,828.5604 L326.5625,898.4229 L326.9531,912.875 L327.3438,890.6903 L327.7344,902.1707 L328.125,890.1244 L328.5156,849.8635 L328.9063,859.0917 L329.2969,851.3517 L329.6875,864.313 L330.0782,906.9091 L330.4688,888.7527 L330.8594,939.725 L331.25,903.2307 L331.6406,901.0308 L332.0313,861.4537 L332.4219,868.2239 L332.8125,838.8258 L333.2031,922.2542 L333.5938,877.4587 L333.9844,932.5217 L334.375,873.9364 L334.7656,903.6373 L335.1563,938.5868 L335.5469,904.8374 L335.9375,892.8986 L336.3281,892.0546 L336.7188,930.7846 L337.1094,898.4023 L337.5,851.8025 L337.8907,881.8576 L338.2813,856.2311 L338.6719,877.1526 L339.0625,820.4459 L339.4531,899.2301 L339.8438,910.7789 L340.2344,932.3691 L340.625,873.9086 L341.0156,882.4655 L341.4063,833.4893 L341.7969,846.2543 L342.1875,883.6408 L342.5781,910.3618 L342.9688,898.6918 L343.3594,889.7574 L343.75,870.4378 L344.1406,851.7646 L344.5313,886.5704 L344.9219,904.037 L345.3125,879.7296 L345.7032,861.6922 L346.0938,886.2817 L346.4844,885.5746 L346.875,868.3962 L347.2656,830.011 L347.6563,883.0928 L348.0469,904.3439 L348.4375,880.55 L348.8281,890.3518 L349.2188,900.2023 L349.6094,913.1313 L350,856.3967 L350.3906,926.6048 L350.7813,870.5849 L351.1719,909.8483 L351.5625,866.2505 L351.9531,897.4301 L352.3438,901.4709 L352.7344,896.7134 L353.125,832.2906 L353.5157,852.5822 L353.9063,873.684 L354.2969,865.8035 L354.6875,899.2349 L355.0781,837.0674 L355.4688,900.5662 L355.8594,879.5825 L356.25,911.5473 L356.6406,894.4341 L357.0313,881.2717 L357.4219,912.6089 L357.8125,848.5498 L358.2031,860.3909 L358.5938,924.2948 L358.9844,923.6878 L359.375,926.2651 L359.7656,869.3781 L360.1563,875.01 L360.5469,871.2106 L360.9375,889.4463 L361.3282,863.3847 L361.7188,819.6553 L362.1094,872.9006 L362.5,808.6453 L362.8906,866.0605 L363.2813,909.437 L363.6719,920.688 L364.0625,844.7309 L364.4531,883.1863 L364.8438,879.6319 L365.2344,908.7321 L365.625,890.9994 L366.0156,888.8966 L366.4063,763.0291 L366.7969,906.9218 L367.1875,927.3242 L367.5781,900.2809 L367.9688,807.9519 L368.3594,886.3571 L368.75,853.2542 L369.1407,876.0051 L369.5313,902.3315 L369.9219,891.0269 L370.3125,883.1446 L370.7031,866.2808 L371.0938,893.5294 L371.4844,910.2104 L371.875,912.064 L372.2656,908.3984 L372.6563,930.4995 L373.0469,910.311 L373.4375,851.9235 L373.8281,914.5685 L374.2188,784.2679 L374.6094,909.1881 L375,889.2345 L375.3906,874.0673 L375.7813,863.8358 L376.1719,909.262 L376.5625,894.6314 L376.9532,876.006 L377.3438,850.678 L377.7344,911.7902 L378.125,883.3791 L378.5156,895.7057 L378.9063,909.6547 L379.2969,897.0922 L379.6875,853.9285 L380.0781,933.3041 L380.4688,882.0856 L380.8594,916.8798 L381.25,941.8311 L381.6406,907.9991 L382.0313,878.8989 L382.4219,903.7111 L382.8125,908.2211 L383.2031,877.4307 L383.5938,899.3901 L383.9844,917.7443 L384.375,880.5502 L384.7657,833.2324 L385.1563,836.2855 L385.5469,903.6783 L385.9375,856.4898 L386.3281,858.1744 L386.7188,887.3632 L387.1094,866.037 L387.5,790.8929 L387.8906,876.6562 L388.2813,863.84 L388.6719,884.141 L389.0625,873.9478 L389.4531,875.9388 L389.8438,859.8337 L390.2344,787.2289 L390.625,910.4705 L391.0156,891.1096 L391.4063,837.3079 L391.7969,860.079 L392.1875,902.3099 L392.5782,889.5513 L392.9688,840.6922 L393.3594,846.6522 L393.75,882.4858 L394.1406,886.6246 L394.5313,904.8337 L394.9219,915.5787 L395.3125,894.6282 L395.7031,877.962 L396.0938,918.6277 L396.4844,915.5671 L396.875,865.7282 L397.2656,843.0408 L397.6563,895.9188 L398.0469,902.0894 L398.4375,898.1481 L398.8281,904.4669 L399.2188,896.4725 L399.6094,903.1272 L400,844.1254 L400.3907,862.5092 L400.7813,906.5464 L401.1719,897.9144 L401.5625,877.4495 L401.9531,839.0296 L402.3438,916.153 L402.7344,898.5714 L403.125,914.6817 L403.5156,868.76 L403.9063,904.7522 L404.2969,883.6516 L404.6875,867.2096 L405.0781,882.2861 L405.4688,874.8176 L405.8594,876.1738 L406.25,885.3276 L406.6406,933.7661 L407.0313,890.5972 L407.4219,871.0041 L407.8125,916.455 L408.2032,850.9691 L408.5938,818.4314 L408.9844,876.6097 L409.375,842.3116 L409.7656,865.6833 L410.1563,872.9114 L410.5469,849.6687 L410.9375,885.9122 L411.3281,867.9464 L411.7188,914.3192 L412.1094,897.1814 L412.5,864.2409 L412.8906,789.3857 L413.2813,819.6319 L413.6719,878.3411 L414.0625,856.0607 L414.4531,901.2715 L414.8438,852.8915 L415.2344,896.9194 L415.625,837.836 L416.0157,851.5892 L416.4063,832.5295 L416.7969,883.3146 L417.1875,860.7998 L417.5781,908.5293 L417.9688,891.1049 L418.3594,878.6545 L418.75,890.7655 L419.1406,905.7441 L419.5313,871.6 L419.9219,896.2366 L420.3125,859.0765 L420.7031,886.142 L421.0938,919.2883 L421.4844,928.6299 L421.875,864.8669 L422.2656,878.5284 L422.6563,923.3007 L423.0469,907.7197 L423.4375,878.5161 L423.8282,850.0362 L424.2188,903.0274 L424.6094,866.4548 L425,872.8679 L425.3906,877.0847 L425.7813,765.54 L426.1719,894.8578 L426.5625,904.7735 L426.9531,905.0222 L427.3438,882.8397 L427.7344,877.0358 L428.125,935.0838 L428.5156,910.8636 L428.9063,759.9274 L429.2969,792.5621 L429.6875,917.2028 L430.0781,888.6886 L430.4688,833.4704 L430.8594,893.7807 L431.25,826.7918 L431.6407,881.113 L432.0313,916.2506 L432.4219,812.2096 L432.8125,857.6882 L433.2031,878.3964 L433.5938,900.5963 L433.9844,862.3117 L434.375,904.9566 L434.7656,884.368 L435.1563,889.5461 L435.5469,833.8603 L435.9375,890.6783 L436.3281,913.6799 L436.7188,893.347 L437.1094,908.3354 L437.5,842.0096 L437.8906,894.1943 L438.2813,893.8774 L438.6719,867.6185 L439.0625,914.0721 L439.4532,891.8244 L439.8438,848.244 L440.2344,871.6386 L440.625,870.0526 L441.0156,897.3403 L441.4063,883.7372 L441.7969,922.6765 L442.1875,874.9359 L442.5781,890.7589 L442.9688,913.3516 L443.3594,892.7835 L443.75,890.7038 L444.1406,921.8398 L444.5313,925.3696 L444.9219,841.9482 L445.3125,922.1528 L445.7031,862.0388 L446.0938,871.5667 L446.4844,899.0039 L446.875,914.7285 L447.2657,829.9969 L447.6563,893.463 L448.0469,915.8457 L448.4375,923.3917 L448.8281,918.3135 L449.2188,875.5728 L449.6094,940.0071 L450,882.0908 L450.3906,896.705 L450.7813,853.1812 L451.1719,881.6725 L451.5625,926.6583 L451.9531,860.8731 L452.3438,919.6841 L452.7344,926.5223 L453.125,868.7075 L453.5156,902.2067 L453.9063,904.3122 L454.2969,892.4141 L454.6875,856.0498 L455.0782,846.7726 L455.4688,864.0405 L455.8594,914.5758 L456.25,860.1797 L456.6406,864.4572 L457.0313,911.4078 L457.4219,886.3337 L457.8125,835.3663 L458.2031,912.4519 L458.5938,919.343 L458.9844,859.7561 L459.375,886.012 L459.7656,905.2059 L460.1563,912.3945 L460.5469,884.2114 L460.9375,894.2112 L461.3281,867.0985 L461.7188,857.101 L462.1094,924.3118 L462.5,884.1098 L462.8907,861.9847 L463.2813,920.8953 L463.6719,916.5112 L464.0625,852.5041 L464.4531,830.7469 L464.8438,830.477 L465.2344,879.6325 L465.625,839.0523 L466.0156,857.6118 L466.4063,843.212 L466.7969,884.1663 L467.1875,926.3569 L467.5781,879.6229 L467.9688,846.9957 L468.3594,942.6614 L468.75,911.0329 L469.1406,841.5875 L469.5313,885.7071 L469.9219,855.573 L470.3125,907.1074 L470.7032,884.9183 L471.0938,884.1367 L471.4844,904.1224 L471.875,854.7165 L472.2656,865.8469 L472.6563,931.3587 L473.0469,855.14 L473.4375,927.9091 L473.8281,869.306 L474.2188,879.3455 L474.6094,895.3726 L475,865.3851 L475.3906,843.994 L475.7813,910.5893 L476.1719,910.3464 L476.5625,932.4417 L476.9531,912.7657 L477.3438,888.8038 L477.7344,871.4566 L478.125,871.2645 L478.5157,924.2424 L478.9063,906.0174 L479.2969,811.9288 L479.6875,858.655 L480.0781,878.858 L480.4688,886.2684 L480.8594,841.9438 L481.25,900.4254 L481.6406,924.6118 L482.0313,885.9141 L482.4219,898.4328 L482.8125,861.6169 L483.2031,922.2679 L483.5938,877.2414 L483.9844,877.6575 L484.375,881.814 L484.7656,909.3179 L485.1563,868.3055 L485.5469,904.9623 L485.9375,916.7248 L486.3282,893.2354 L486.7188,895.9211 L487.1094,784.1633 L487.5,922.6874 L487.8906,905.6964 L488.2813,771.021 L488.6719,900.439 L489.0625,870.7113 L489.4531,889.0743 L489.8438,911.7748 L490.2344,913.34 L490.625,897.2663 L491.0156,914.0372 L491.4063,932.5249 L491.7969,884.103 L492.1875,886.5372 L492.5781,851.0837 L492.9688,871.2119 L493.3594,857.9534 L493.75,859.1282 L494.1407,878.9252 L494.5313,938.5988 L494.9219,916.5922 L495.3125,865.9006 L495.7031,816.8271 L496.0938,882.0898 L496.4844,938.3071 L496.875,901.1083 L497.2656,919.3143 L497.6563,877.6794 L498.0469,921.3339 L498.4375,854.7735 L498.8281,866.582 L499.2188,906.7336 L499.6094,892.972 L500,873.3655 L500.3906,836.1475 L500.7813,896.3625 L501.1719,885.3115 L501.5625,846.0701 L501.9532,925.8302 L502.3438,880.7942 L502.7344,796.155 L503.125,862.4308 L503.5156,816.3774 L503.9063,896.3647 L504.2969,896.0422 L504.6875,848.8745 L505.0781,894.5865 L505.4688,919.1929 L505.8594,885.5211 L506.25,895.7691 L506.6406,862.4745 L507.0313,874.9954 L507.4219,869.0746 L507.8125,865.6849 L508.2031,784.4325 L508.5938,876.2987 L508.9844,924.0189 L509.375,841.7288 L509.7657,886.6365 L510.1563,867.7349 L510.5469,840.9464 L510.9375,926.9879 L511.3281,921.5439 L511.7188,922.826 L512.1094,857.1539 L512.5,906.7225 L512.8906,864.1663 L513.2813,877.2431 L513.6719,883.6506 L514.0625,839.7656 L514.4531,832.1056 L514.8438,864.4241 L515.2344,873.91 L515.625,899.0802 L516.0156,888.4134 L516.4063,919.2315 L516.7969,897.0093 L517.1875,907.1401 L517.5781,855.2647 L517.9688,929.2358 L518.3594,838.9486 L518.75,882.1213 L519.1406,880.3322 L519.5313,919.3396 L519.9219,879.5894 L520.3125,859.3627 L520.7031,895.6235 L521.0938,838.0485 L521.4844,811.977 L521.875,872.2225 L522.2656,864.2784 L522.6563,883.3546 L523.0469,908.1278 L523.4375,885.4654 L523.8281,821.7725 L524.2188,855.1163 L524.6094,859.148 L525,890.9401 L525.3906,893.371 L525.7813,938.4469 L526.1719,874.1572 L526.5625,851.0738 L526.9531,909.4036 L527.3438,856.007 L527.7344,901.9222 L528.125,880.2791 " stroke="blue" fill="none" />
<text x="50" y="1000" font-family="Arial" font-size="12" fill="black">Episode Length (1225)</text>
<text x="50" y="1015" font-family="Arial" font-size="10" fill="black">32</text>
<text x="50" y="1230" font-family="Arial" font-size="10" fill="black">6</text>
<path d="M50,1204.615 L50.39063,1189.231 L50.78125,1143.077 L51.17188,1181.538 L51.5625,1181.538 L51.95313,1173.846 L52.34375,1150.769 L52.73438,1112.308 L53.125,1158.462 L53.51563,1189.231 L53.90625,1127.692 L54.29688,1143.077 L54.6875,1166.154 L55.07813,1150.769 L55.46875,1189.231 L55.85938,1150.769 L56.25,1143.077 L56.64063,1204.615 L57.03125,1127.692 L57.42188,1127.692 L57.8125,1104.615 L58.20313,1166.154 L58.59375,1135.385 L58.98438,1166.154 L59.375,1158.462 L59.76563,1127.692 L60.15625,1204.615 L60.54688,1081.538 L60.9375,1135.385 L61.32813,1204.615 L61.71875,1120 L62.10938,1096.923 L62.5,1135.385 L62.89063,1204.615 L63.28125,1189.231 L63.67188,1050.769 L64.0625,1189.231 L64.45313,1181.538 L64.84375,1189.231 L65.23438,1096.923 L65.625,1150.769 L66.01563,1096.923 L66.40625,1173.846 L66.79688,1189.231 L67.1875,1158.462 L67.57813,1150.769 L67.96875,1081.538 L68.35938,1212.308 L68.75,1104.615 L69.14063,1104.615 L69.53125,1173.846 L69.92188,1166.154 L70.3125,1143.077 L70.70313,1158.462 L71.09375,1173.846 L71.48438,1181.538 L71.875,1181.538 L72.26563,1158.462 L72.65625,1150.769 L73.04688,1150.769 L73.4375,1181.538 L73.82813,1189.231 L74.21875,1158.462 L74.60938,1158.462 L75,1196.923 L75.39063,1135.385 L75.78125,1104.615 L76.17188,1158.462 L76.5625,1196.923 L76.95313,1127.692 L77.34375,1143.077 L77.73438,1150.769 L78.125,1173.846 L78.51563,1135.385 L78.90625,1127.692 L79.29688,1143.077 L79.6875,1158.462 L80.07813,1150.769 L80.46875,1166.154 L80.85938,1173.846 L81.25,1127.692 L81.64063,1181.538 L82.03125,1127.692 L82.42188,1112.308 L82.8125,1135.385 L83.20313,1143.077 L83.59375,1073.846 L83.98438,1166.154 L84.375,1135.385 L84.76563,1166.154 L85.15625,1181.538 L85.54688,1143.077 L85.9375,1166.154 L86.32813,1196.923 L86.71875,1189.231 L87.10938,1173.846 L87.5,1135.385 L87.89063,1158.462 L88.28125,1135.385 L88.67188,1212.308 L89.0625,1196.923 L89.45313,1166.154 L89.84375,1166.154 L90.23438,1150.769 L90.625,1173.846 L91.01563,1189.231 L91.40625,1158.462 L91.79688,1158.462 L92.1875,1073.846 L92.57813,1135.385 L92.96875,1189.231 L93.35938,1143.077 L93.75,1166.154 L94.14063,1158.462 L94.53125,1181.538 L94.92188,1112.308 L95.3125,1104.615 L95.70313,1150.769 L96.09375,1173.846 L96.48438,1166.154 L96.875,1196.923 L97.26563,1104.615 L97.65625,1158.462 L98.04688,1127.692 L98.4375,1173.846 L98.82813,1143.077 L99.21875,1181.538 L99.60938,1112.308 L100,1196.923 L100.3906,1189.231 L100.7813,1181.538 L101.1719,1143.077 L101.5625,1181.538 L101.9531,1127.692 L102.3438,1212.308 L102.7344,1127.692 L103.125,1181.538 L103.5156,1096.923 L103.9063,1143.077 L104.2969,1143.077 L104.6875,1135.385 L105.0781,1189.231 L105.4688,1196.923 L105.8594,1173.846 L106.25,1189.231 L106.6406,1204.615 L107.0313,1158.462 L107.4219,1127.692 L107.8125,1173.846 L108.2031,1150.769 L108.5938,1189.231 L108.9844,1158.462 L109.375,1166.154 L109.7656,1096.923 L110.1563,1189.231 L110.5469,1189.231 L110.9375,1150.769 L111.3281,1150.769 L111.7188,1166.154 L112.1094,1166.154 L112.5,1150.769 L112.8906,1120 L113.2813,1196.923 L113.6719,1173.846 L114.0625,1158.462 L114.4531,1120 L114.8438,1127.692 L115.2344,1181.538 L115.625,1166.154 L116.0156,1043.077 L116.4063,1173.846 L116.7969,1150.769 L117.1875,1073.846 L117.5781,1196.923 L117.9688,1173.846 L118.3594,1181.538 L118.75,1120 L119.1406,1189.231 L119.5313,1120 L119.9219,1096.923 L120.3125,1135.385 L120.7031,1089.231 L121.0938,1166.154 L121.4844,1181.538 L121.875,1173.846 L122.2656,1089.231 L122.6563,1181.538 L123.0469,1173.846 L123.4375,1158.462 L123.8281,1073.846 L124.2188,1150.769 L124.6094,1166.154 L125,1112.308 L125.3906,1173.846 L125.7813,1181.538 L126.1719,1158.462 L126.5625,1166.154 L126.9531,1120 L127.3438,1181.538 L127.7344,1173.846 L128.125,1127.692 L128.5156,1173.846 L128.9063,1158.462 L129.2969,1104.615 L129.6875,1166.154 L130.0781,1096.923 L130.4688,1166.154 L130.8594,1158.462 L131.25,1150.769 L131.6406,1158.462 L132.0313,1150.769 L132.4219,1189.231 L132.8125,1089.231 L133.2031,1143.077 L133.5938,1189.231 L133.9844,1158.462 L134.375,1058.462 L134.7656,1143.077 L135.1563,1166.154 L135.5469,1166.154 L135.9375,1150.769 L136.3281,1189.231 L136.7188,1135.385 L137.1094,1189.231 L137.5,1166.154 L137.8906,1196.923 L138.2813,1181.538 L138.6719,1158.462 L139.0625,1181.538 L139.4531,1189.231 L139.8438,1135.385 L140.2344,1173.846 L140.625,1158.462 L141.0156,1166.154 L141.4063,1150.769 L141.7969,1135.385 L142.1875,1196.923 L142.5781,1189.231 L142.9688,1181.538 L143.3594,1143.077 L143.75,1127.692 L144.1406,1158.462 L144.5313,1189.231 L144.9219,1127.692 L145.3125,1081.538 L145.7031,1158.462 L146.0938,1212.308 L146.4844,1166.154 L146.875,1166.154 L147.2656,1127.692 L147.6563,1081.538 L148.0469,1120 L148.4375,1120 L148.8281,1173.846 L149.2188,1166.154 L149.6094,1204.615 L150,1143.077 L150.3906,1166.154 L150.7813,1166.154 L151.1719,1181.538 L151.5625,1166.154 L151.9531,1150.769 L152.3438,1143.077 L152.7344,1204.615 L153.125,1127.692 L153.5156,1150.769 L153.9063,1189.231 L154.2969,1158.462 L154.6875,1127.692 L155.0781,1104.615 L155.4688,1196.923 L155.8594,1127.692 L156.25,1127.692 L156.6406,1196.923 L157.0313,1089.231 L157.4219,1158.462 L157.8125,1143.077 L158.2031,1150.769 L158.5938,1173.846 L158.9844,1150.769 L159.375,1127.692 L159.7656,1212.308 L160.1563,1189.231 L160.5469,1150.769 L160.9375,1196.923 L161.3281,1204.615 L161.7188,1189.231 L162.1094,1173.846 L162.5,1150.769 L162.8906,1143.077 L163.2813,1096.923 L163.6719,1127.692 L164.0625,1181.538 L164.4531,1150.769 L164.8438,1150.769 L165.2344,1189.231 L165.625,1189.231 L166.0156,1204.615 L166.4063,1150.769 L166.7969,1189.231 L167.1875,1166.154 L167.5781,1196.923 L167.9688,1158.462 L168.3594,1150.769 L168.75,1173.846 L169.1406,1158.462 L169.5313,1173.846 L169.9219,1081.538 L170.3125,1166.154 L170.7031,1204.615 L171.0938,1173.846 L171.4844,1158.462 L171.875,1173.846 L172.2656,1166.154 L172.6563,1150.769 L173.0469,1135.385 L173.4375,1173.846 L173.8281,1081.538 L174.2188,1143.077 L174.6094,1181.538 L175,1166.154 L175.3906,1158.462 L175.7813,1166.154 L176.1719,1150.769 L176.5625,1181.538 L176.9531,1120 L177.3438,1150.769 L177.7344,1112.308 L178.125,1158.462 L178.5156,1158.462 L178.9063,1189.231 L179.2969,1166.154 L179.6875,1143.077 L180.0781,1166.154 L180.4688,1181.538 L180.8594,1166.154 L181.25,1173.846 L181.6406,1104.615 L182.0313,1166.154 L182.4219,1158.462 L182.8125,1181.538 L183.2031,1150.769 L183.5938,1196.923 L183.9844,1166.154 L184.375,1158.462 L184.7656,1196.923 L185.1563,1212.308 L185.5469,1150.769 L185.9375,1143.077 L186.3281,1158.462 L186.7188,1096.923 L187.1094,1166.154 L187.5,1150.769 L187.8906,1143.077 L188.2813,1143.077 L188.6719,1158.462 L189.0625,1196.923 L189.4531,1189.231 L189.8438,1181.538 L190.2344,1212.308 L190.625,1143.077 L191.0156,1112.308 L191.4063,1120 L191.7969,1150.769 L192.1875,1135.385 L192.5781,1181.538 L192.9688,1112.308 L193.3594,1127.692 L193.75,1166.154 L194.1406,1143.077 L194.5313,1066.154 L194.9219,1143.077 L195.3125,1120 L195.7031,1158.462 L196.0938,1173.846 L196.4844,1173.846 L196.875,1158.462 L197.2656,1158.462 L197.6563,1196.923 L198.0469,1143.077 L198.4375,1127.692 L198.8281,1158.462 L199.2188,1127.692 L199.6094,1135.385 L200,1181.538 L200.3906,1166.154 L200.7813,1081.538 L201.1719,1196.923 L201.5625,1112.308 L201.9531,1166.154 L202.3438,1158.462 L202.7344,1166.154 L203.125,1150.769 L203.5156,1189.231 L203.9063,1143.077 L204.2969,1104.615 L204.6875,1166.154 L205.0781,1166.154 L205.4688,1127.692 L205.8594,1158.462 L206.25,1173.846 L206.6406,1196.923 L207.0313,1150.769 L207.4219,1173.846 L207.8125,1158.462 L208.2031,1173.846 L208.5938,1150.769 L208.9844,1173.846 L209.375,1096.923 L209.7656,1150.769 L210.1563,1150.769 L210.5469,1158.462 L210.9375,1173.846 L211.3281,1173.846 L211.7188,1143.077 L212.1094,1120 L212.5,1127.692 L212.8906,1181.538 L213.2813,1143.077 L213.6719,1181.538 L214.0625,1181.538 L214.4531,1173.846 L214.8438,1150.769 L215.2344,1166.154 L215.625,1173.846 L216.0156,1112.308 L216.4063,1166.154 L216.7969,1150.769 L217.1875,1173.846 L217.5781,1181.538 L217.9688,1143.077 L218.3594,1173.846 L218.75,1173.846 L219.1406,1204.615 L219.5313,1150.769 L219.9219,1173.846 L220.3125,1158.462 L220.7031,1112.308 L221.0938,1135.385 L221.4844,1189.231 L221.875,1158.462 L222.2656,1150.769 L222.6563,1135.385 L223.0469,1158.462 L223.4375,1135.385 L223.8281,1173.846 L224.2188,1150.769 L224.6094,1120 L225,1150.769 L225.3906,1150.769 L225.7813,1196.923 L226.1719,1166.154 L226.5625,1150.769 L226.9531,1158.462 L227.3438,1166.154 L227.7344,1104.615 L228.125,1120 L228.5156,1104.615 L228.9063,1150.769 L229.2969,1158.462 L229.6875,1058.462 L230.0781,1143.077 L230.4688,1189.231 L230.8594,1143.077 L231.25,1173.846 L231.6406,1143.077 L232.0313,1127.692 L232.4219,1204.615 L232.8125,1166.154 L233.2031,1135.385 L233.5938,1150.769 L233.9844,1112.308 L234.375,1150.769 L234.7656,1089.231 L235.1563,1181.538 L235.5469,1166.154 L235.9375,1173.846 L236.3281,1189.231 L236.7188,1150.769 L237.1094,1104.615 L237.5,1181.538 L237.8906,1181.538 L238.2813,1173.846 L238.6719,1166.154 L239.0625,1096.923 L239.4531,1220 L239.8438,1196.923 L240.2344,1181.538 L240.625,1158.462 L241.0156,1166.154 L241.4063,1158.462 L241.7969,1196.923 L242.1875,1166.154 L242.5781,1150.769 L242.9688,1135.385 L243.3594,1189.231 L243.75,1166.154 L244.1406,1166.154 L244.5313,1127.692 L244.9219,1081.538 L245.3125,1120 L245.7031,1081.538 L246.0938,1120 L246.4844,1158.462 L246.875,1096.923 L247.2656,1120 L247.6563,1158.462 L248.0469,1120 L248.4375,1158.462 L248.8281,1189.231 L249.2188,1135.385 L249.6094,1181.538 L250,1158.462 L250.3906,1158.462 L250.7813,1143.077 L251.1719,1189.231 L251.5625,1158.462 L251.9531,1181.538 L252.3438,1158.462 L252.7344,1150.769 L253.125,1220 L253.5156,1189.231 L253.9063,1181.538 L254.2969,1166.154 L254.6875,1166.154 L255.0781,1096.923 L255.4688,1081.538 L255.8594,1089.231 L256.25,1158.462 L256.6406,1127.692 L257.0313,1181.538 L257.4219,1166.154 L257.8125,1189.231 L258.2031,1196.923 L258.5938,1150.769 L258.9844,1204.615 L259.375,1127.692 L259.7656,1135.385 L260.1563,1173.846 L260.5469,1189.231 L260.9375,1181.538 L261.3281,1181.538 L261.7188,1158.462 L262.1094,1143.077 L262.5,1143.077 L262.8906,1158.462 L263.2813,1150.769 L263.6719,1143.077 L264.0625,1043.077 L264.4531,1158.462 L264.8438,1181.538 L265.2344,1158.462 L265.625,1181.538 L266.0156,1173.846 L266.4063,1135.385 L266.7969,1196.923 L267.1875,1196.923 L267.5781,1135.385 L267.9688,1189.231 L268.3594,1189.231 L268.75,1150.769 L269.1406,1204.615 L269.5313,1181.538 L269.9219,1158.462 L270.3125,1150.769 L270.7031,1189.231 L271.0938,1166.154 L271.4844,1127.692 L271.875,1158.462 L272.2656,1166.154 L272.6563,1196.923 L273.0469,1104.615 L273.4375,1143.077 L273.8281,1204.615 L274.2188,1166.154 L274.6094,1143.077 L275,1204.615 L275.3906,1181.538 L275.7813,1181.538 L276.1719,1112.308 L276.5625,1196.923 L276.9531,1104.615 L277.3438,1181.538 L277.7344,1173.846 L278.125,1143.077 L278.5156,1104.615 L278.9063,1196.923 L279.2969,1158.462 L279.6875,1089.231 L280.0781,1104.615 L280.4688,1166.154 L280.8594,1166.154 L281.25,1189.231 L281.6406,1196.923 L282.0313,1104.615 L282.4219,1181.538 L282.8125,1135.385 L283.2031,1173.846 L283.5938,1104.615 L283.9844,1158.462 L284.375,1196.923 L284.7656,1204.615 L285.1563,1143.077 L285.5469,1204.615 L285.9375,1143.077 L286.3281,1143.077 L286.7188,1189.231 L287.1094,1120 L287.5,1104.615 L287.8906,1127.692 L288.2813,1081.538 L288.6719,1158.462 L289.0625,1196.923 L289.4531,1089.231 L289.8438,1150.769 L290.2344,1135.385 L290.625,1158.462 L291.0156,1166.154 L291.4063,1181.538 L291.7969,1112.308 L292.1875,1143.077 L292.5781,1173.846 L292.9688,1143.077 L293.3594,1181.538 L293.75,1166.154 L294.1406,1135.385 L294.5313,1104.615 L294.9219,1112.308 L295.3125,1112.308 L295.7031,1181.538 L296.0938,1173.846 L296.4844,1158.462 L296.875,1212.308 L297.2656,1120 L297.6563,1173.846 L298.0469,1089.231 L298.4375,1189.231 L298.8281,1112.308 L299.2188,1196.923 L299.6094,1150.769 L300,1158.462 L300.3906,1143.077 L300.7813,1196.923 L301.1719,1212.308 L301.5625,1096.923 L301.9531,1204.615 L302.3438,1181.538 L302.7344,1189.231 L303.125,1143.077 L303.5156,1143.077 L303.9063,1181.538 L304.2969,1173.846 L304.6875,1166.154 L305.0781,1143.077 L305.4688,1196.923 L305.8594,1173.846 L306.25,1196.923 L306.6407,1104.615 L307.0313,1158.462 L307.4219,1143.077 L307.8125,1158.462 L308.2031,1181.538 L308.5938,1120 L308.9844,1181.538 L309.375,1158.462 L309.7656,1173.846 L310.1563,1150.769 L310.5469,1104.615 L310.9375,1166.154 L311.3281,1189.231 L311.7188,1096.923 L312.1094,1173.846 L312.5,1096.923 L312.8906,1150.769 L313.2813,1158.462 L313.6719,1158.462 L314.0625,1135.385 L314.4532,1204.615 L314.8438,1158.462 L315.2344,1189.231 L315.625,1150.769 L316.0156,1181.538 L316.4063,1043.077 L316.7969,1120 L317.1875,1073.846 L317.5781,1158.462 L317.9688,1096.923 L318.3594,1058.462 L318.75,1189.231 L319.1406,1196.923 L319.5313,1204.615 L319.9219,1104.615 L320.3125,1204.615 L320.7031,1104.615 L321.0938,1189.231 L321.4844,1143.077 L321.875,1081.538 L322.2657,1196.923 L322.6563,1158.462 L323.0469,1166.154 L323.4375,1135.385 L323.8281,1158.462 L324.2188,1127.692 L324.6094,1181.538 L325,1204.615 L325.3906,1073.846 L325.7813,1081.538 L326.1719,1096.923 L326.5625,1166.154 L326.9531,1181.538 L327.3438,1166.154 L327.7344,1166.154 L328.125,1150.769 L328.5156,1112.308 L328.9063,1127.692 L329.2969,1112.308 L329.6875,1120 L330.0782,1173.846 L330.4688,1158.462 L330.8594,1212.308 L331.25,1173.846 L331.6406,1173.846 L332.0313,1120 L332.4219,1143.077 L332.8125,1089.231 L333.2031,1181.538 L333.5938,1143.077 L333.9844,1196.923 L334.375,1135.385 L334.7656,1173.846 L335.1563,1212.308 L335.5469,1173.846 L335.9375,1158.462 L336.3281,1158.462 L336.7188,1196.923 L337.1094,1173.846 L337.5,1127.692 L337.8907,1150.769 L338.2813,1112.308 L338.6719,1143.077 L339.0625,1066.154 L339.4531,1166.154 L339.8438,1181.538 L340.2344,1204.615 L340.625,1143.077 L341.0156,1135.385 L341.4063,1089.231 L341.7969,1112.308 L342.1875,1150.769 L342.5781,1181.538 L342.9688,1166.154 L343.3594,1158.462 L343.75,1127.692 L344.1406,1112.308 L344.5313,1150.769 L344.9219,1173.846 L345.3125,1150.769 L345.7032,1127.692 L346.0938,1150.769 L346.4844,1150.769 L346.875,1127.692 L347.2656,1104.615 L347.6563,1158.462 L348.0469,1173.846 L348.4375,1150.769 L348.8281,1150.769 L349.2188,1166.154 L349.6094,1181.538 L350,1120 L350.3906,1196.923 L350.7813,1143.077 L351.1719,1181.538 L351.5625,1120 L351.9531,1166.154 L352.3438,1173.846 L352.7344,1166.154 L353.125,1112.308 L353.5157,1127.692 L353.9063,1135.385 L354.2969,1135.385 L354.6875,1166.154 L355.0781,1104.615 L355.4688,1166.154 L355.8594,1150.769 L356.25,1181.538 L356.6406,1158.462 L357.0313,1143.077 L357.4219,1181.538 L357.8125,1120 L358.2031,1127.692 L358.5938,1196.923 L358.9844,1196.923 L359.375,1196.923 L359.7656,1143.077 L360.1563,1143.077 L360.5469,1143.077 L360.9375,1158.462 L361.3282,1127.692 L361.7188,1096.923 L362.1094,1143.077 L362.5,1066.154 L362.8906,1143.077 L363.2813,1181.538 L363.6719,1189.231 L364.0625,1112.308 L364.4531,1150.769 L364.8438,1143.077 L365.2344,1181.538 L365.625,1166.154 L366.0156,1150.769 L366.4063,1043.077 L366.7969,1181.538 L367.1875,1196.923 L367.5781,1166.154 L367.9688,1089.231 L368.3594,1150.769 L368.75,1120 L369.1407,1135.385 L369.5313,1173.846 L369.9219,1158.462 L370.3125,1143.077 L370.7031,1120 L371.0938,1158.462 L371.4844,1181.538 L371.875,1181.538 L372.2656,1181.538 L372.6563,1204.615 L373.0469,1181.538 L373.4375,1120 L373.8281,1181.538 L374.2188,1035.385 L374.6094,1181.538 L375,1158.462 L375.3906,1120 L375.7813,1143.077 L376.1719,1181.538 L376.5625,1158.462 L376.9532,1135.385 L377.3438,1104.615 L377.7344,1181.538 L378.125,1150.769 L378.5156,1166.154 L378.9063,1181.538 L379.2969,1166.154 L379.6875,1127.692 L380.0781,1204.615 L380.4688,1150.769 L380.8594,1189.231 L381.25,1212.308 L381.6406,1181.538 L382.0313,1143.077 L382.4219,1173.846 L382.8125,1181.538 L383.2031,1143.077 L383.5938,1166.154 L383.9844,1189.231 L384.375,1143.077 L384.7657,1112.308 L385.1563,1089.231 L385.5469,1173.846 L385.9375,1127.692 L386.3281,1135.385 L386.7188,1158.462 L387.1094,1135.385 L387.5,1058.462 L387.8906,1143.077 L388.2813,1127.692 L388.6719,1150.769 L389.0625,1135.385 L389.4531,1143.077 L389.8438,1120 L390.2344,1058.462 L390.625,1173.846 L391.0156,1158.462 L391.4063,1104.615 L391.7969,1127.692 L392.1875,1166.154 L392.5782,1143.077 L392.9688,1089.231 L393.3594,1104.615 L393.75,1150.769 L394.1406,1150.769 L394.5313,1173.846 L394.9219,1173.846 L395.3125,1166.154 L395.7031,1143.077 L396.0938,1189.231 L396.4844,1189.231 L396.875,1135.385 L397.2656,1112.308 L397.6563,1166.154 L398.0469,1173.846 L398.4375,1166.154 L398.8281,1173.846 L399.2188,1166.154 L399.6094,1173.846 L400,1104.615 L400.3907,1127.692 L400.7813,1181.538 L401.1719,1166.154 L401.5625,1143.077 L401.9531,1112.308 L402.3438,1189.231 L402.7344,1166.154 L403.125,1189.231 L403.5156,1127.692 L403.9063,1173.846 L404.2969,1150.769 L404.6875,1135.385 L405.0781,1150.769 L405.4688,1143.077 L405.8594,1150.769 L406.25,1150.769 L406.6406,1204.615 L407.0313,1150.769 L407.4219,1143.077 L407.8125,1189.231 L408.2032,1112.308 L408.5938,1096.923 L408.9844,1143.077 L409.375,1112.308 L409.7656,1135.385 L410.1563,1143.077 L410.5469,1112.308 L410.9375,1150.769 L411.3281,1127.692 L411.7188,1181.538 L412.1094,1158.462 L412.5,1127.692 L412.8906,1020 L413.2813,1089.231 L413.6719,1143.077 L414.0625,1120 L414.4531,1166.154 L414.8438,1120 L415.2344,1166.154 L415.625,1112.308 L416.0157,1120 L416.4063,1104.615 L416.7969,1150.769 L417.1875,1127.692 L417.5781,1173.846 L417.9688,1158.462 L418.3594,1143.077 L418.75,1158.462 L419.1406,1166.154 L419.5313,1135.385 L419.9219,1166.154 L420.3125,1120 L420.7031,1158.462 L421.0938,1189.231 L421.4844,1196.923 L421.875,1135.385 L422.2656,1143.077 L422.6563,1196.923 L423.0469,1173.846 L423.4375,1150.769 L423.8282,1120 L424.2188,1173.846 L424.6094,1135.385 L425,1143.077 L425.3906,1143.077 L425.7813,1027.692 L426.1719,1166.154 L426.5625,1173.846 L426.9531,1166.154 L427.3438,1150.769 L427.7344,1143.077 L428.125,1204.615 L428.5156,1181.538 L428.9063,1027.692 L429.2969,1066.154 L429.6875,1189.231 L430.0781,1158.462 L430.4688,1096.923 L430.8594,1158.462 L431.25,1081.538 L431.6407,1135.385 L432.0313,1189.231 L432.4219,1073.846 L432.8125,1120 L433.2031,1143.077 L433.5938,1158.462 L433.9844,1104.615 L434.375,1173.846 L434.7656,1135.385 L435.1563,1158.462 L435.5469,1096.923 L435.9375,1158.462 L436.3281,1181.538 L436.7188,1158.462 L437.1094,1173.846 L437.5,1120 L437.8906,1166.154 L438.2813,1158.462 L438.6719,1135.385 L439.0625,1181.538 L439.4532,1158.462 L439.8438,1127.692 L440.2344,1143.077 L440.625,1143.077 L441.0156,1166.154 L441.4063,1150.769 L441.7969,1189.231 L442.1875,1150.769 L442.5781,1158.462 L442.9688,1181.538 L443.3594,1166.154 L443.75,1158.462 L444.1406,1189.231 L444.5313,1196.923 L444.9219,1104.615 L445.3125,1196.923 L445.7031,1104.615 L446.0938,1127.692 L446.4844,1173.846 L446.875,1181.538 L447.2657,1081.538 L447.6563,1166.154 L448.0469,1189.231 L448.4375,1196.923 L448.8281,1181.538 L449.2188,1143.077 L449.6094,1204.615 L450,1150.769 L450.3906,1166.154 L450.7813,1120 L451.1719,1150.769 L451.5625,1196.923 L451.9531,1127.692 L452.3438,1189.231 L452.7344,1196.923 L453.125,1135.385 L453.5156,1173.846 L453.9063,1181.538 L454.2969,1158.462 L454.6875,1127.692 L455.0782,1104.615 L455.4688,1135.385 L455.8594,1181.538 L456.25,1127.692 L456.6406,1127.692 L457.0313,1181.538 L457.4219,1158.462 L457.8125,1112.308 L458.2031,1181.538 L458.5938,1189.231 L458.9844,1096.923 L459.375,1158.462 L459.7656,1173.846 L460.1563,1181.538 L460.5469,1150.769 L460.9375,1166.154 L461.3281,1135.385 L461.7188,1127.692 L462.1094,1196.923 L462.5,1135.385 L462.8907,1127.692 L463.2813,1189.231 L463.6719,1181.538 L464.0625,1112.308 L464.4531,1089.231 L464.8438,1089.231 L465.2344,1150.769 L465.625,1096.923 L466.0156,1120 L466.4063,1096.923 L466.7969,1150.769 L467.1875,1196.923 L467.5781,1143.077 L467.9688,1127.692 L468.3594,1212.308 L468.75,1181.538 L469.1406,1096.923 L469.5313,1150.769 L469.9219,1120 L470.3125,1181.538 L470.7032,1158.462 L471.0938,1143.077 L471.4844,1173.846 L471.875,1112.308 L472.2656,1135.385 L472.6563,1204.615 L473.0469,1120 L473.4375,1196.923 L473.8281,1135.385 L474.2188,1150.769 L474.6094,1158.462 L475,1135.385 L475.3906,1089.231 L475.7813,1181.538 L476.1719,1181.538 L476.5625,1204.615 L476.9531,1181.538 L477.3438,1150.769 L477.7344,1135.385 L478.125,1143.077 L478.5157,1196.923 L478.9063,1173.846 L479.2969,1066.154 L479.6875,1120 L480.0781,1143.077 L480.4688,1150.769 L480.8594,1112.308 L481.25,1166.154 L481.6406,1196.923 L482.0313,1158.462 L482.4219,1166.154 L482.8125,1120 L483.2031,1196.923 L483.5938,1143.077 L483.9844,1135.385 L484.375,1150.769 L484.7656,1181.538 L485.1563,1120 L485.5469,1173.846 L485.9375,1189.231 L486.3282,1158.462 L486.7188,1158.462 L487.1094,1043.077 L487.5,1189.231 L487.8906,1173.846 L488.2813,1035.385 L488.6719,1166.154 L489.0625,1143.077 L489.4531,1158.462 L489.8438,1181.538 L490.2344,1181.538 L490.625,1166.154 L491.0156,1181.538 L491.4063,1204.615 L491.7969,1150.769 L492.1875,1150.769 L492.5781,1104.615 L492.9688,1127.692 L493.3594,1120 L493.75,1127.692 L494.1407,1150.769 L494.5313,1212.308 L494.9219,1189.231 L495.3125,1120 L495.7031,1081.538 L496.0938,1150.769 L496.4844,1212.308 L496.875,1173.846 L497.2656,1189.231 L497.6563,1143.077 L498.0469,1189.231 L498.4375,1112.308 L498.8281,1143.077 L499.2188,1173.846 L499.6094,1158.462 L500,1143.077 L500.3906,1112.308 L500.7813,1166.154 L501.1719,1158.462 L501.5625,1112.308 L501.9532,1196.923 L502.3438,1143.077 L502.7344,1050.769 L503.125,1120 L503.5156,1089.231 L503.9063,1158.462 L504.2969,1158.462 L504.6875,1112.308 L505.0781,1166.154 L505.4688,1189.231 L505.8594,1158.462 L506.25,1166.154 L506.6406,1127.692 L507.0313,1150.769 L507.4219,1135.385 L507.8125,1135.385 L508.2031,1050.769 L508.5938,1135.385 L508.9844,1196.923 L509.375,1112.308 L509.7657,1150.769 L510.1563,1120 L510.5469,1104.615 L510.9375,1196.923 L511.3281,1189.231 L511.7188,1196.923 L512.1094,1112.308 L512.5,1166.154 L512.8906,1135.385 L513.2813,1135.385 L513.6719,1150.769 L514.0625,1104.615 L514.4531,1096.923 L514.8438,1135.385 L515.2344,1135.385 L515.625,1173.846 L516.0156,1158.462 L516.4063,1189.231 L516.7969,1166.154 L517.1875,1173.846 L517.5781,1120 L517.9688,1196.923 L518.3594,1096.923 L518.75,1150.769 L519.1406,1150.769 L519.5313,1189.231 L519.9219,1150.769 L520.3125,1127.692 L520.7031,1166.154 L521.0938,1081.538 L521.4844,1066.154 L521.875,1143.077 L522.2656,1127.692 L522.6563,1143.077 L523.0469,1173.846 L523.4375,1150.769 L523.8281,1096.923 L524.2188,1127.692 L524.6094,1127.692 L525,1158.462 L525.3906,1150.769 L525.7813,1212.308 L526.1719,1143.077 L526.5625,1104.615 L526.9531,1181.538 L527.3438,1127.692 L527.7344,1173.846 L528.125,1150.769 " stroke="blue" fill="none" />
<text x="50" y="1270" font-family="Arial" font-size="12" fill="black">Policy Loss</text>
<text x="50" y="1285" font-family="Arial" font-size="10" fill="black">0.7953477</text>
<text x="50" y="1500" font-family="Arial" font-size="10" fill="black">0.7867537</text>
<path d="M50,1290 L75,1370.628 L100,1290.343 L125,1490 " stroke="blue" fill="none" />
<text x="50" y="1540" font-family="Arial" font-size="12" fill="black">Value Loss</text>
<text x="50" y="1555" font-family="Arial" font-size="10" fill="black">0.01846893</text>
<text x="50" y="1770" font-family="Arial" font-size="10" fill="black">0.01518184</text>
<path d="M50,1665.358 L75,1745.968 L100,1560.001 L125,1760 " stroke="blue" fill="none" />
<text x="50" y="1810" font-family="Arial" font-size="12" fill="black">Learning Rate</text>
<text x="50" y="1825" font-family="Arial" font-size="10" fill="black">0.0003</text>
<text x="50" y="2040" font-family="Arial" font-size="10" fill="black">0.0003</text>
<path d="M50,2030 L75,2030 L100,2030 L125,2030 " stroke="blue" fill="none" />
<text x="50" y="2080" font-family="Arial" font-size="12" fill="black">Entropy</text>
<text x="50" y="2095" font-family="Arial" font-size="10" fill="black">1.515923</text>
<text x="50" y="2310" font-family="Arial" font-size="10" fill="black">1.510002</text>
<path d="M50,2300 L75,2100.781 L100,2100 L125,2100 " stroke="blue" fill="none" />
<text x="750" y="730" font-family="Arial" font-size="12" fill="black">Simplified</text>
<text x="750" y="745" font-family="Arial" font-size="10" fill="black">0.6502128</text>
<text x="750" y="960" font-family="Arial" font-size="10" fill="black">0.4775999</text>
<path d="M757.0313,911.3697 L764.4531,810.0614 L771.875,861.3984 L779.2969,876.5762 L786.7188,860.7923 L794.1406,894.9934 L801.5625,892.2184 L808.9844,922.2203 L816.4063,854.2172 L823.8281,821.2377 L831.25,861.9979 L838.6719,889.2072 L846.0938,901.3013 L853.5156,877.4912 L860.9375,883.0729 L868.3594,950 L875.7813,892.9602 L883.2031,876.1979 L890.625,946.1354 L898.0469,818.5733 L905.4688,846.9811 L912.8906,885.9374 L920.3125,926.8894 L927.7344,860.3198 L935.1563,808.0031 L942.5781,933.7184 L950,786.2854 L957.4219,878.4475 L964.8438,889.9006 L972.2656,948.9755 L979.6875,901.2257 L987.1094,897.2397 L994.5313,812.3385 L1001.953,896.8546 L1009.375,910.7355 L1016.797,848.0422 L1024.219,806.7519 L1031.641,840.9214 L1039.063,863.7152 L1046.484,852.8084 L1053.906,842.8713 L1061.328,866.8281 L1068.75,778.2495 L1076.172,880.7623 L1083.594,923.5334 L1091.016,752.711 L1098.438,850.0435 L1105.859,862.314 L1113.281,770.345 L1120.703,808.4884 L1128.125,867.3502 L1135.547,750 L1142.969,881.4298 L1150.391,922.0035 L1157.813,849.3199 L1165.234,856.3879 L1172.656,840.425 L1180.078,860.8501 L1187.5,872.7655 L1194.922,871.7169 L1202.344,852.9489 L1209.766,765.6334 L1217.188,853.715 L1224.609,778.4435 L1228.125,880.5981 " stroke="blue" fill="none" />
<text x="750" y="1000" font-family="Arial" font-size="12" fill="black">Simplified</text>
<text x="750" y="1015" font-family="Arial" font-size="10" fill="black">17.84211</text>
<text x="750" y="1230" font-family="Arial" font-size="10" fill="black">12.63158</text>
<path d="M757.0313,1187.677 L764.4531,1106.869 L771.875,1135.151 L779.2969,1149.293 L786.7188,1137.172 L794.1406,1175.556 L801.5625,1159.394 L808.9844,1185.657 L816.4063,1135.151 L823.8281,1092.727 L831.25,1135.151 L838.6719,1159.394 L846.0938,1179.596 L853.5156,1145.253 L860.9375,1157.374 L868.3594,1207.879 L875.7813,1161.414 L883.2031,1159.394 L890.625,1207.879 L898.0469,1096.768 L905.4688,1118.99 L912.8906,1161.414 L920.3125,1199.798 L927.7344,1129.091 L935.1563,1086.667 L942.5781,1211.919 L950,1076.566 L957.4219,1155.354 L964.8438,1167.475 L972.2656,1220 L979.6875,1161.414 L987.1094,1171.515 L994.5313,1088.687 L1001.953,1163.434 L1009.375,1189.697 L1016.797,1112.929 L1024.219,1098.788 L1031.641,1121.01 L1039.063,1127.071 L1046.484,1121.01 L1053.906,1127.071 L1061.328,1149.293 L1068.75,1078.586 L1076.172,1149.293 L1083.594,1195.758 L1091.016,1042.222 L1098.438,1118.99 L1105.859,1145.253 L1113.281,1046.263 L1120.703,1088.687 L1128.125,1147.273 L1135.547,1020 L1142.969,1165.455 L1150.391,1185.657 L1157.813,1135.151 L1165.234,1121.01 L1172.656,1112.929 L1180.078,1129.091 L1187.5,1141.212 L1194.922,1145.253 L1202.344,1133.131 L1209.766,1050.303 L1217.188,1123.03 L1224.609,1056.364 L1228.125,1154.68 " stroke="blue" fill="none" />
</svg>
