<svg width="2000" height="2500" xmlns="http://www.w3.org/2000/svg">
<text x="10" y="20" font-family="Arial" font-size="26" fill="black"> [HumanWalk] Training Session</text>
<text x="10" y="50" font-family="Arial" font-size="16" fill="black">[Statistics]</text>
<text x="50" y="70" font-family="Arial" font-size="12" fill="black">Started at: 10:28:45 PM, Saturday, December 9, 2023</text>
<text x="50" y="90" font-family="Arial" font-size="12" fill="black">Finished at: 10:35:28 PM, Saturday, December 9, 2023</text>
<text x="50" y="110" font-family="Arial" font-size="12" fill="black">Training Session Time: 0 hrs : 6 min : 42 sec</text>
<text x="50" y="130" font-family="Arial" font-size="12" fill="black">Inference Time: 0 hrs : 20 min : 4 sec       [Per agent: 0 hrs : 20 min : 4 sec]        [Device: CPU]</text>
<text x="50" y="150" font-family="Arial" font-size="12" fill="black">Policy Update Time: 0 hrs : 3 min : 41 sec        [Per iteration: 0 hrs : 0 min : 10 sec]        [Device: GPU]</text>
<text x="50" y="170" font-family="Arial" font-size="12" fill="black">Inference Time / Training Session Time: 2.974</text>
<text x="50" y="190" font-family="Arial" font-size="12" fill="black">Policy Update Time / Training Session Time: 0.549</text>
<text x="50" y="210" font-family="Arial" font-size="12" fill="black">Episode Count: 984</text>
<text x="50" y="230" font-family="Arial" font-size="12" fill="black">Inference Steps: 60621    [Per agent: 60621]     [Per Episode (mean): 61]</text>
<text x="50" y="250" font-family="Arial" font-size="12" fill="black">Iterations: 20</text>
<text x="50" y="270" font-family="Arial" font-size="12" fill="black">Parallel Agents: 1</text>
<text x="50" y="290" font-family="Arial" font-size="12" fill="black">Timescale: 6.7</text>
<text x="50" y="310" font-family="Arial" font-size="12" fill="black">Trainer: PPO</text>
<text x="10" y="360" font-family="Arial" font-size="16" fill="black">[Hyperparameters]</text>
<text x="50" y="380" font-family="Arial" font-size="12" fill="black">Buffer Size: 3000        [Batch Size: 150       (x20)]</text>
<text x="50" y="400" font-family="Arial" font-size="12" fill="black">Num Epoch: 10</text>
<text x="50" y="420" font-family="Arial" font-size="12" fill="black">Time Horizon: 64</text>
<text x="50" y="440" font-family="Arial" font-size="12" fill="black">Gradient Cliping Normalization: 0.5</text>
<text x="50" y="460" font-family="Arial" font-size="12" fill="black">Learning Rate Schedule: False    </text>
<text x="10" y="510" font-family="Arial" font-size="16" fill="black">[Behaviour]</text>
<text x="50" y="530" font-family="Arial" font-size="12" fill="black">Space Size: 189</text>
<text x="50" y="550" font-family="Arial" font-size="12" fill="black">Continuous Actions: 40 [Standard Deviation: Fixed]     [Value: 1.15]</text>
<text x="50" y="570" font-family="Arial" font-size="12" fill="black">Discrete Actions: 0</text>
<text x="50" y="590" font-family="Arial" font-size="12" fill="black">TargetFPS: 100 (physics update rate)</text>
<text x="50" y="610" font-family="Arial" font-size="12" fill="black">Observations Normalization: True</text>
<text x="10" y="660" font-family="Arial" font-size="16" fill="black">[Decision Requester]</text>
<text x="50" y="680" font-family="Arial" font-size="12" fill="black">Max Step: 0</text>
<text x="50" y="700" font-family="Arial" font-size="12" fill="black">Decision Period: 2      [Actions Between Decisions: True]</text>
<text x="10" y="750" font-family="Arial" font-size="16" fill="black">[Graphs]</text>
<text x="50" y="770" font-family="Arial" font-size="12" fill="black">Episode Reward (984)</text>
<text x="50" y="785" font-family="Arial" font-size="10" fill="black">11.90799</text>
<text x="50" y="1000" font-family="Arial" font-size="10" fill="black">0.3406224</text>
<path d="M50,961.6765 L50.39063,963.3326 L50.78125,964.0698 L51.17188,957.9465 L51.5625,952.912 L51.95313,959.5872 L52.34375,964.2482 L52.73438,918.8759 L53.125,961.6716 L53.51563,958.448 L53.90625,881.6918 L54.29688,963.9767 L54.6875,947.423 L55.07813,961.0323 L55.46875,952.8848 L55.85938,939.8697 L56.25,963.4641 L56.64063,936.9592 L57.03125,963.9045 L57.42188,921.4165 L57.8125,956.4454 L58.20313,947.9401 L58.59375,967.563 L58.98438,958.6465 L59.375,932.1417 L59.76563,878.1819 L60.15625,821.8911 L60.54688,954.102 L60.9375,957.3063 L61.32813,952.7019 L61.71875,963.9267 L62.10938,945.6533 L62.5,968.3281 L62.89063,956.4687 L63.28125,959.9073 L63.67188,969.5391 L64.0625,965.3862 L64.45313,946.2098 L64.84375,977.1236 L65.23438,929.8797 L65.625,940.1641 L66.01563,932.051 L66.40625,952.6048 L66.79688,951.321 L67.1875,942.7453 L67.57813,901.6321 L67.96875,920.5818 L68.35938,951.3113 L68.75,955.1022 L69.14063,938.9406 L69.53125,983.2558 L69.92188,947.3927 L70.3125,953.7885 L70.70313,941.8856 L71.09375,959.2642 L71.48438,950.7692 L71.875,960.9507 L72.26563,954.0795 L72.65625,964.1448 L73.04688,969.5928 L73.4375,940.315 L73.82813,958.0095 L74.21875,964.2518 L74.60938,960.3066 L75,964.4114 L75.39063,956.8522 L75.78125,971.1911 L76.17188,971.7341 L76.5625,955.1144 L76.95313,972.6381 L77.34375,965.8286 L77.73438,968.7399 L78.125,951.953 L78.51563,936.8007 L78.90625,947.8387 L79.29688,935.6495 L79.6875,966.6281 L80.07813,940.7531 L80.46875,975.9876 L80.85938,938.4639 L81.25,955.9796 L81.64063,959.0598 L82.03125,969.0094 L82.42188,948.4221 L82.8125,922.6461 L83.20313,960.9847 L83.59375,932.9767 L83.98438,949.0482 L84.375,943.224 L84.76563,939.7392 L85.15625,935.3723 L85.54688,901.1045 L85.9375,964.5869 L86.32813,967.688 L86.71875,964.1003 L87.10938,934.9121 L87.5,950.8096 L87.89063,948.6599 L88.28125,969.0881 L88.67188,958.8069 L89.0625,954.9062 L89.45313,935.3871 L89.84375,956.7756 L90.23438,913.1036 L90.625,963.428 L91.01563,928.5396 L91.40625,941.4946 L91.79688,949.3412 L92.1875,951.2262 L92.57813,908.527 L92.96875,939.9506 L93.35938,956.1407 L93.75,963.5046 L94.14063,903.6788 L94.53125,954.7882 L94.92188,952.7615 L95.3125,959.197 L95.70313,939.067 L96.09375,971.2813 L96.48438,956.8335 L96.875,959.4792 L97.26563,875.476 L97.65625,961.8615 L98.04688,946.3484 L98.4375,943.5457 L98.82813,950.8687 L99.21875,966.6109 L99.60938,949.3658 L100,973.9688 L100.3906,965.1353 L100.7813,952.0646 L101.1719,962.7953 L101.5625,959.5739 L101.9531,938.4663 L102.3438,950.2383 L102.7344,934.0628 L103.125,955.2908 L103.5156,956.8306 L103.9063,945.6019 L104.2969,942.8564 L104.6875,958.8834 L105.0781,964.2963 L105.4688,957.3991 L105.8594,960.6411 L106.25,938.5815 L106.6406,948.7689 L107.0313,971.8113 L107.4219,846.1605 L107.8125,968.3254 L108.2031,925.2589 L108.5938,959.4431 L108.9844,933.7949 L109.375,960.6961 L109.7656,950.4327 L110.1563,955.5048 L110.5469,939.9777 L110.9375,971.9979 L111.3281,929.8148 L111.7188,942.3698 L112.1094,955.8138 L112.5,941.5234 L112.8906,966.9047 L113.2813,971.6111 L113.6719,880.1056 L114.0625,932.1823 L114.4531,939.783 L114.8438,952.5705 L115.2344,967.8357 L115.625,960.4981 L116.0156,958.6941 L116.4063,970.593 L116.7969,966.3663 L117.1875,928.4178 L117.5781,952.5292 L117.9688,959.753 L118.3594,927.6591 L118.75,936.288 L119.1406,960.9912 L119.5313,955.7483 L119.9219,949.5561 L120.3125,963.5201 L120.7031,936.1255 L121.0938,955.6494 L121.4844,969.3533 L121.875,964.6965 L122.2656,944.5732 L122.6563,940.2437 L123.0469,959.0067 L123.4375,957.7033 L123.8281,936.7838 L124.2188,948.3334 L124.6094,955.629 L125,955.4493 L125.3906,971.9336 L125.7813,927.9809 L126.1719,960.7275 L126.5625,931.8306 L126.9531,956.8745 L127.3438,959.7873 L127.7344,946.5809 L128.125,929.4142 L128.5156,956.4372 L128.9063,922.7304 L129.2969,939.1596 L129.6875,962.291 L130.0781,948.9516 L130.4688,954.5079 L130.8594,957.7527 L131.25,952.9133 L131.6406,918.1187 L132.0313,949.0611 L132.4219,835.7315 L132.8125,943.7685 L133.2031,956.9727 L133.5938,965.0663 L133.9844,965.0406 L134.375,966.8044 L134.7656,959.9387 L135.1563,961.597 L135.5469,961.0923 L135.9375,879.1844 L136.3281,963.0697 L136.7188,967.1173 L137.1094,950.2385 L137.5,964.2039 L137.8906,959.7955 L138.2813,953.05 L138.6719,973.0753 L139.0625,971.0719 L139.4531,967.8688 L139.8438,898.7119 L140.2344,974.9958 L140.625,953.8881 L141.0156,911.4456 L141.4063,893.4661 L141.7969,932.4839 L142.1875,954.0477 L142.5781,943.5774 L142.9688,974.5572 L143.3594,963.1811 L143.75,943.4866 L144.1406,918.9735 L144.5313,934.6517 L144.9219,856.6046 L145.3125,938.1683 L145.7031,946.6165 L146.0938,853.9868 L146.4844,951.9012 L146.875,969.8009 L147.2656,931.9958 L147.6563,951.0835 L148.0469,952.02 L148.4375,944.6329 L148.8281,910.7832 L149.2188,940.5371 L149.6094,945.4573 L150,950.8089 L150.3906,925.8569 L150.7813,962.2955 L151.1719,953.977 L151.5625,942.791 L151.9531,914.7988 L152.3438,876.9263 L152.7344,942.3012 L153.125,958.7542 L153.5156,950.1456 L153.9063,950.7381 L154.2969,942.7007 L154.6875,939.5434 L155.0781,919.6611 L155.4688,939.5557 L155.8594,952.8761 L156.25,960.3987 L156.6406,966.0969 L157.0313,954.0831 L157.4219,962.7709 L157.8125,905.104 L158.2031,970.7586 L158.5938,970.1296 L158.9844,973.7924 L159.375,935.6446 L159.7656,933.7809 L160.1563,964.3015 L160.5469,906.404 L160.9375,963.772 L161.3281,961.8643 L161.7188,949.105 L162.1094,970.619 L162.5,974.9427 L162.8906,946.2135 L163.2813,956.3467 L163.6719,956.3126 L164.0625,955.7108 L164.4531,955.5263 L164.8438,961.1025 L165.2344,956.3439 L165.625,856.9631 L166.0156,960.5245 L166.4063,938.0073 L166.7969,972.3647 L167.1875,940.264 L167.5781,952.9587 L167.9688,962.0089 L168.3594,927.8859 L168.75,936.228 L169.1406,966.6857 L169.5313,979.2868 L169.9219,953.7457 L170.3125,967.0416 L170.7031,931.1807 L171.0938,969.3577 L171.4844,866.0322 L171.875,910.0488 L172.2656,951.8828 L172.6563,917.1326 L173.0469,957.23 L173.4375,974.7168 L173.8281,932.2513 L174.2188,949.2944 L174.6094,960.9156 L175,957.9084 L175.3906,951.7886 L175.7813,926.6714 L176.1719,957.043 L176.5625,961.8817 L176.9531,969.2308 L177.3438,963.3067 L177.7344,940.2625 L178.125,926.4167 L178.5156,941.538 L178.9063,903.1654 L179.2969,959.3824 L179.6875,969.6386 L180.0781,959.0922 L180.4688,943.1335 L180.8594,970.2314 L181.25,937.9048 L181.6406,971.7865 L182.0313,966.4967 L182.4219,951.2226 L182.8125,960.6802 L183.2031,951.2387 L183.5938,948.5557 L183.9844,942.7659 L184.375,923.8972 L184.7656,951.2919 L185.1563,949.0447 L185.5469,969.5797 L185.9375,924.2242 L186.3281,796.4384 L186.7188,964.1794 L187.1094,949.7755 L187.5,961.821 L187.8906,941.3221 L188.2813,945.1094 L188.6719,959.606 L189.0625,963.0801 L189.4531,967.1581 L189.8438,968.3752 L190.2344,934.6239 L190.625,874.3248 L191.0156,975.5198 L191.4063,937.1411 L191.7969,954.3112 L192.1875,955.9652 L192.5781,945.4268 L192.9688,921.3921 L193.3594,965.8094 L193.75,952.4528 L194.1406,966.5506 L194.5313,960.782 L194.9219,940.2492 L195.3125,960.5426 L195.7031,960.9725 L196.0938,945.967 L196.4844,969.4854 L196.875,924.7998 L197.2656,919.3281 L197.6563,924.7437 L198.0469,962.109 L198.4375,907.761 L198.8281,930.7135 L199.2188,940.5718 L199.6094,957.2188 L200,936.3918 L200.3906,949.5146 L200.7813,891.1522 L201.1719,855.9534 L201.5625,976.2995 L201.9531,944.8524 L202.3438,954.2536 L202.7344,954.3329 L203.125,919.9156 L203.5156,966.8422 L203.9063,963.3361 L204.2969,955.1108 L204.6875,951.7374 L205.0781,923.0411 L205.4688,964.5586 L205.8594,956.4658 L206.25,967.3159 L206.6406,923.4512 L207.0313,927.9387 L207.4219,974.7633 L207.8125,955.8917 L208.2031,821.7856 L208.5938,951.6008 L208.9844,948.8859 L209.375,944.8622 L209.7656,957.5747 L210.1563,920.3242 L210.5469,925.8463 L210.9375,941.8023 L211.3281,945.9098 L211.7188,964.0567 L212.1094,954.2703 L212.5,938.4364 L212.8906,963.2051 L213.2813,905.0139 L213.6719,926.2106 L214.0625,879.8275 L214.4531,964.7102 L214.8438,964.5491 L215.2344,920.0462 L215.625,935.7619 L216.0156,949.8557 L216.4063,928.7744 L216.7969,950.5273 L217.1875,942.0293 L217.5781,940.1492 L217.9688,930.3819 L218.3594,934.368 L218.75,949.3554 L219.1406,938.778 L219.5313,975.549 L219.9219,941.322 L220.3125,946.5754 L220.7031,948.5157 L221.0938,950.3116 L221.4844,960.9249 L221.875,961.1797 L222.2656,945.4455 L222.6563,973.3638 L223.0469,960.3273 L223.4375,941.4647 L223.8281,945.4614 L224.2188,968.7748 L224.6094,910.5316 L225,943.1456 L225.3906,932.3739 L225.7813,953.5069 L226.1719,950.2607 L226.5625,950.1365 L226.9531,971.8642 L227.3438,945.6239 L227.7344,950.9909 L228.125,941.8741 L228.5156,949.5822 L228.9063,978.1587 L229.2969,971.8762 L229.6875,938.2959 L230.0781,905.1583 L230.4688,972.5129 L230.8594,964.6758 L231.25,957.0143 L231.6406,964.4617 L232.0313,912.8322 L232.4219,948.6768 L232.8125,952.358 L233.2031,961.4673 L233.5938,936.9541 L233.9844,958.1974 L234.375,976.227 L234.7656,889.3632 L235.1563,958.2362 L235.5469,937.7085 L235.9375,963.4783 L236.3281,971.3748 L236.7188,841.1851 L237.1094,958.7633 L237.5,834.3124 L237.8906,903.9281 L238.2813,977.4955 L238.6719,901.3973 L239.0625,969.5908 L239.4531,890.0452 L239.8438,951.4838 L240.2344,965.3011 L240.625,941.3875 L241.0156,954.5526 L241.4063,967.1014 L241.7969,952.6977 L242.1875,933.4238 L242.5781,959.6471 L242.9688,953.543 L243.3594,945.5326 L243.75,971.5831 L244.1406,946.8953 L244.5313,970.5851 L244.9219,968.6302 L245.3125,963.5784 L245.7031,946.5801 L246.0938,947.4828 L246.4844,946.4782 L246.875,930.7902 L247.2656,969.2009 L247.6563,964.345 L248.0469,966.3442 L248.4375,961.3315 L248.8281,955.0527 L249.2188,956.9491 L249.6094,953.4962 L250,982.5676 L250.3906,963.0422 L250.7813,967.443 L251.1719,948.3511 L251.5625,943.14 L251.9531,939.2476 L252.3438,961.1058 L252.7344,963.9905 L253.125,952.6481 L253.5156,961.9446 L253.9063,953.9631 L254.2969,945.7266 L254.6875,938.8835 L255.0781,963.2467 L255.4688,882.5396 L255.8594,947.2301 L256.25,954.3113 L256.6406,974.8235 L257.0313,944.9384 L257.4219,944.6072 L257.8125,938.6707 L258.2031,925.7863 L258.5938,962.5178 L258.9844,963.3977 L259.375,961.387 L259.7656,893.1792 L260.1563,962.3819 L260.5469,931.0215 L260.9375,954.8995 L261.3281,975.1003 L261.7188,941.7043 L262.1094,919.2168 L262.5,957.6717 L262.8906,958.311 L263.2813,947.8342 L263.6719,963.9454 L264.0625,967.3926 L264.4531,959.5226 L264.8438,966.5118 L265.2344,962.8452 L265.625,959.3116 L266.0156,942.0353 L266.4063,924.7194 L266.7969,943.1341 L267.1875,913.5059 L267.5781,921.8951 L267.9688,956.3557 L268.3594,950.5735 L268.75,924.3601 L269.1406,938.7394 L269.5313,973.5331 L269.9219,956.9515 L270.3125,960.3921 L270.7031,956.0129 L271.0938,963.2118 L271.4844,902.4983 L271.875,937.6335 L272.2656,967.556 L272.6563,937.6545 L273.0469,892.0054 L273.4375,924.4372 L273.8281,962.1183 L274.2188,961.6779 L274.6094,946.5989 L275,854.6382 L275.3906,950.7279 L275.7813,952.3969 L276.1719,960.493 L276.5625,935.1998 L276.9531,947.4535 L277.3438,850.9238 L277.7344,955.8269 L278.125,964.0151 L278.5156,957.213 L278.9063,977.0742 L279.2969,912.3713 L279.6875,963.3468 L280.0781,962.0881 L280.4688,921.7921 L280.8594,947.9936 L281.25,960.0753 L281.6406,961.9949 L282.0313,972.1699 L282.4219,915.2244 L282.8125,964.2668 L283.2031,961.5512 L283.5938,945.9488 L283.9844,964.7915 L284.375,934.0096 L284.7656,959.2603 L285.1563,963.4812 L285.5469,916.3842 L285.9375,890.5175 L286.3281,974.8589 L286.7188,970.8453 L287.1094,949.8062 L287.5,915.5894 L287.8906,964.2885 L288.2813,990 L288.6719,967.278 L289.0625,963.7861 L289.4531,963.0894 L289.8438,950.249 L290.2344,911.0104 L290.625,929.8441 L291.0156,956.8987 L291.4063,790 L291.7969,967.4173 L292.1875,943.895 L292.5781,958.7081 L292.9688,930.2843 L293.3594,967.1779 L293.75,941.0842 L294.1406,975.1263 L294.5313,949.8654 L294.9219,964.6821 L295.3125,958.5175 L295.7031,961.6802 L296.0938,945.368 L296.4844,975.4636 L296.875,896.0062 L297.2656,966.1118 L297.6563,967.9393 L298.0469,956.942 L298.4375,971.8155 L298.8281,964.7562 L299.2188,948.4089 L299.6094,960.7394 L300,942.2106 L300.3906,957.1222 L300.7813,893.1393 L301.1719,959.7973 L301.5625,954.035 L301.9531,946.4728 L302.3438,945.3985 L302.7344,962.632 L303.125,968.8309 L303.5156,948.7801 L303.9063,968.2702 L304.2969,969.2789 L304.6875,957.117 L305.0781,938.4075 L305.4688,907.7756 L305.8594,963.1036 L306.25,953.1179 L306.6407,947.8047 L307.0313,964.2885 L307.4219,962.6977 L307.8125,950.7775 L308.2031,937.465 L308.5938,937.9383 L308.9844,913.0089 L309.375,964.004 L309.7656,958.4134 L310.1563,962.5472 L310.5469,955.8901 L310.9375,967.6295 L311.3281,959.3478 L311.7188,940.104 L312.1094,941.5739 L312.5,928.2722 L312.8906,972.1622 L313.2813,926.5894 L313.6719,917.3121 L314.0625,968.8453 L314.4532,972.1476 L314.8438,969.1819 L315.2344,954.0259 L315.625,929.2448 L316.0156,954.2203 L316.4063,929.9877 L316.7969,959.2399 L317.1875,964.9601 L317.5781,974.7128 L317.9688,913.733 L318.3594,949.316 L318.75,933.7045 L319.1406,935.7488 L319.5313,861.8481 L319.9219,956.7739 L320.3125,962.9577 L320.7031,953.0701 L321.0938,949.8311 L321.4844,964.1343 L321.875,961.4706 L322.2657,958.0231 L322.6563,964.5255 L323.0469,970.0176 L323.4375,935.2714 L323.8281,966.0679 L324.2188,944.7711 L324.6094,959.2186 L325,951.0195 L325.3906,960.5412 L325.7813,941.1108 L326.1719,952.5712 L326.5625,965.6144 L326.9531,963.0605 L327.3438,956.3585 L327.7344,931.1769 L328.125,956.5006 L328.5156,908.9603 L328.9063,964.8793 L329.2969,939.5209 L329.6875,962.2447 L330.0782,926.1558 L330.4688,950.2827 L330.8594,944.4443 L331.25,896.4503 L331.6406,937.3609 L332.0313,935.3175 L332.4219,932.2976 L332.8125,950.4817 L333.2031,961.7167 L333.5938,921.8343 L333.9844,953.0441 L334.375,962.1018 L334.7656,960.9075 L335.1563,954.4243 L335.5469,967.571 L335.9375,966.7505 L336.3281,936.7328 L336.7188,953.7479 L337.1094,948.4783 L337.5,950.9234 L337.8907,941.3046 L338.2813,875.2145 L338.6719,957.1654 L339.0625,949.2783 L339.4531,899.4917 L339.8438,939.8535 L340.2344,954.7938 L340.625,948.8666 L341.0156,959.156 L341.4063,945.8268 L341.7969,958.3043 L342.1875,955.223 L342.5781,941.218 L342.9688,951.4717 L343.3594,973.4706 L343.75,938.8173 L344.1406,945.1877 L344.5313,949.8904 L344.9219,966.8862 L345.3125,948.5546 L345.7032,943.8017 L346.0938,971.0966 L346.4844,941.3187 L346.875,960.0623 L347.2656,953.6168 L347.6563,946.4023 L348.0469,960.9666 L348.4375,882.6994 L348.8281,899.7622 L349.2188,951.1609 L349.6094,924.9213 L350,930.4611 L350.3906,963.0646 L350.7813,965.0199 L351.1719,955.1008 L351.5625,969.3343 L351.9531,974.3063 L352.3438,923.4567 L352.7344,936.1355 L353.125,964.5748 L353.5157,952.4663 L353.9063,887.1305 L354.2969,936.6784 L354.6875,958.5283 L355.0781,919.4532 L355.4688,944.3112 L355.8594,953.7408 L356.25,944.5665 L356.6406,952.0916 L357.0313,963.4747 L357.4219,939.4241 L357.8125,965.4922 L358.2031,968.0861 L358.5938,940.5414 L358.9844,959.981 L359.375,932.4491 L359.7656,903.2187 L360.1563,971.2454 L360.5469,960.8668 L360.9375,966.3187 L361.3282,933.6237 L361.7188,969.4139 L362.1094,964.3906 L362.5,895.9088 L362.8906,917.3477 L363.2813,949.8396 L363.6719,965.6152 L364.0625,949.1125 L364.4531,965.5486 L364.8438,955.8226 L365.2344,942.0012 L365.625,961.6716 L366.0156,962.824 L366.4063,974.1409 L366.7969,919.2296 L367.1875,926.7325 L367.5781,942.9165 L367.9688,953.7262 L368.3594,935.6125 L368.75,963.3975 L369.1407,939.8249 L369.5313,925.7978 L369.9219,940.7091 L370.3125,911.7463 L370.7031,952.1887 L371.0938,974.5043 L371.4844,969.0829 L371.875,957.7032 L372.2656,961.6447 L372.6563,930.9595 L373.0469,922.4846 L373.4375,919.1091 L373.8281,928.3015 L374.2188,883.22 L374.6094,931.0504 L375,951.6644 L375.3906,966.1539 L375.7813,967.5241 L376.1719,932.9402 L376.5625,923.9279 L376.9532,959.9883 L377.3438,937.274 L377.7344,968.6821 L378.125,901.4999 L378.5156,869.1591 L378.9063,966.7101 L379.2969,861.199 L379.6875,971.7603 L380.0781,873.9298 L380.4688,941.5333 L380.8594,929.3864 L381.25,912.6817 L381.6406,943.4278 L382.0313,938.3591 L382.4219,912.9036 L382.8125,957.3098 L383.2031,945.5695 L383.5938,962.6362 L383.9844,950.1611 L384.375,896.561 L384.7657,955.3068 L385.1563,929.7764 L385.5469,817.3135 L385.9375,938.0529 L386.3281,955.6476 L386.7188,908.48 L387.1094,911.606 L387.5,915.5077 L387.8906,962.8188 L388.2813,965.0773 L388.6719,911.8182 L389.0625,960.6334 L389.4531,950.4633 L389.8438,948.8574 L390.2344,954.3668 L390.625,942.8248 L391.0156,944.8106 L391.4063,962.4772 L391.7969,908.8256 L392.1875,907.5259 L392.5782,947.9832 L392.9688,907.0849 L393.3594,921.3898 L393.75,950.2037 L394.1406,961.0927 L394.5313,925.8901 L394.9219,950.9942 L395.3125,955.0723 L395.7031,946.7133 L396.0938,946.64 L396.4844,903.3693 L396.875,911.6743 L397.2656,972.4234 L397.6563,897.8724 L398.0469,912.2124 L398.4375,953.953 L398.8281,950.1631 L399.2188,953.4056 L399.6094,944.7485 L400,966.1914 L400.3907,887.8811 L400.7813,919.7454 L401.1719,954.4034 L401.5625,951.8759 L401.9531,933.0089 L402.3438,935.2736 L402.7344,934.3019 L403.125,943.1725 L403.5156,959.9704 L403.9063,888.673 L404.2969,945.7104 L404.6875,928.6282 L405.0781,950.2543 L405.4688,962.6758 L405.8594,943.8755 L406.25,959.2725 L406.6406,920.5156 L407.0313,926.5932 L407.4219,962.4746 L407.8125,935.0596 L408.2032,959.9264 L408.5938,966.5683 L408.9844,916.7977 L409.375,919.6655 L409.7656,906.2385 L410.1563,953.9169 L410.5469,955.6876 L410.9375,967.385 L411.3281,942.5619 L411.7188,957.4985 L412.1094,946.0732 L412.5,910.4825 L412.8906,965.0206 L413.2813,946.0927 L413.6719,938.2881 L414.0625,933.9373 L414.4531,969.2109 L414.8438,919.3762 L415.2344,956.7071 L415.625,955.6116 L416.0157,929.3331 L416.4063,956.3421 L416.7969,933.287 L417.1875,908.304 L417.5781,862.1664 L417.9688,956.7699 L418.3594,964.0153 L418.75,959.2436 L419.1406,948.4478 L419.5313,948.9678 L419.9219,952.6788 L420.3125,943.5017 L420.7031,932.661 L421.0938,959.488 L421.4844,947.4315 L421.875,798.0983 L422.2656,890.4272 L422.6563,923.8001 L423.0469,967.6936 L423.4375,964.6173 L423.8282,911.1241 L424.2188,936.7666 L424.6094,945.855 L425,908.9977 L425.3906,970.3445 L425.7813,950.3232 L426.1719,936.5215 L426.5625,836.5944 L426.9531,911.9322 L427.3438,938.302 L427.7344,970.242 L428.125,925.7663 L428.5156,970.4802 L428.9063,940.1679 L429.2969,904.731 L429.6875,933.3641 L430.0781,956.8661 L430.4688,932.1017 L430.8594,948.0274 L431.25,955.411 L431.6407,851.2096 L432.0313,947.2242 L432.4219,938.1076 L432.8125,951.5246 L433.2031,956.3368 L433.5938,941.5596 L433.9844,951.8354 " stroke="blue" fill="none" />
<text x="50" y="1040" font-family="Arial" font-size="12" fill="black">Episode Length (984)</text>
<text x="50" y="1055" font-family="Arial" font-size="10" fill="black">135</text>
<text x="50" y="1270" font-family="Arial" font-size="10" fill="black">15</text>
<path d="M50,1200 L50.39063,1198.333 L50.78125,1198.333 L51.17188,1195 L51.5625,1191.667 L51.95313,1196.667 L52.34375,1205 L52.73438,1151.667 L53.125,1200 L53.51563,1196.667 L53.90625,1125 L54.29688,1201.667 L54.6875,1188.333 L55.07813,1200 L55.46875,1188.333 L55.85938,1173.333 L56.25,1195 L56.64063,1171.667 L57.03125,1205 L57.42188,1153.333 L57.8125,1193.333 L58.20313,1183.333 L58.59375,1205 L58.98438,1196.667 L59.375,1168.333 L59.76563,1116.667 L60.15625,1083.333 L60.54688,1191.667 L60.9375,1195 L61.32813,1191.667 L61.71875,1210 L62.10938,1180 L62.5,1208.333 L62.89063,1191.667 L63.28125,1191.667 L63.67188,1208.333 L64.0625,1198.333 L64.45313,1180 L64.84375,1220 L65.23438,1163.333 L65.625,1173.333 L66.01563,1163.333 L66.40625,1191.667 L66.79688,1186.667 L67.1875,1176.667 L67.57813,1128.333 L67.96875,1151.667 L68.35938,1186.667 L68.75,1190 L69.14063,1171.667 L69.53125,1236.667 L69.92188,1185 L70.3125,1191.667 L70.70313,1180 L71.09375,1200 L71.48438,1185 L71.875,1198.333 L72.26563,1191.667 L72.65625,1208.333 L73.04688,1206.667 L73.4375,1175 L73.82813,1195 L74.21875,1201.667 L74.60938,1200 L75,1203.333 L75.39063,1196.667 L75.78125,1216.667 L76.17188,1213.333 L76.5625,1196.667 L76.95313,1215 L77.34375,1210 L77.73438,1211.667 L78.125,1185 L78.51563,1173.333 L78.90625,1188.333 L79.29688,1168.333 L79.6875,1208.333 L80.07813,1181.667 L80.46875,1221.667 L80.85938,1173.333 L81.25,1195 L81.64063,1196.667 L82.03125,1210 L82.42188,1183.333 L82.8125,1155 L83.20313,1196.667 L83.59375,1166.667 L83.98438,1181.667 L84.375,1175 L84.76563,1171.667 L85.15625,1170 L85.54688,1138.333 L85.9375,1201.667 L86.32813,1210 L86.71875,1206.667 L87.10938,1170 L87.5,1190 L87.89063,1185 L88.28125,1213.333 L88.67188,1198.333 L89.0625,1190 L89.45313,1170 L89.84375,1186.667 L90.23438,1151.667 L90.625,1203.333 L91.01563,1156.667 L91.40625,1173.333 L91.79688,1186.667 L92.1875,1188.333 L92.57813,1148.333 L92.96875,1175 L93.35938,1195 L93.75,1201.667 L94.14063,1140 L94.53125,1190 L94.92188,1188.333 L95.3125,1200 L95.70313,1173.333 L96.09375,1218.333 L96.48438,1190 L96.875,1198.333 L97.26563,1120 L97.65625,1200 L98.04688,1180 L98.4375,1176.667 L98.82813,1190 L99.21875,1206.667 L99.60938,1188.333 L100,1220 L100.3906,1206.667 L100.7813,1191.667 L101.1719,1203.333 L101.5625,1195 L101.9531,1166.667 L102.3438,1186.667 L102.7344,1166.667 L103.125,1193.333 L103.5156,1195 L103.9063,1185 L104.2969,1175 L104.6875,1195 L105.0781,1200 L105.4688,1193.333 L105.8594,1193.333 L106.25,1170 L106.6406,1181.667 L107.0313,1211.667 L107.4219,1100 L107.8125,1211.667 L108.2031,1163.333 L108.5938,1195 L108.9844,1168.333 L109.375,1195 L109.7656,1183.333 L110.1563,1190 L110.5469,1173.333 L110.9375,1220 L111.3281,1160 L111.7188,1173.333 L112.1094,1193.333 L112.5,1175 L112.8906,1210 L113.2813,1218.333 L113.6719,1125 L114.0625,1161.667 L114.4531,1175 L114.8438,1191.667 L115.2344,1210 L115.625,1196.667 L116.0156,1196.667 L116.4063,1211.667 L116.7969,1208.333 L117.1875,1160 L117.5781,1190 L117.9688,1196.667 L118.3594,1158.333 L118.75,1166.667 L119.1406,1205 L119.5313,1193.333 L119.9219,1181.667 L120.3125,1205 L120.7031,1171.667 L121.0938,1195 L121.4844,1206.667 L121.875,1210 L122.2656,1180 L122.6563,1171.667 L123.0469,1200 L123.4375,1195 L123.8281,1165 L124.2188,1186.667 L124.6094,1190 L125,1195 L125.3906,1221.667 L125.7813,1161.667 L126.1719,1198.333 L126.5625,1161.667 L126.9531,1191.667 L127.3438,1195 L127.7344,1180 L128.125,1161.667 L128.5156,1195 L128.9063,1160 L129.2969,1175 L129.6875,1196.667 L130.0781,1188.333 L130.4688,1190 L130.8594,1198.333 L131.25,1188.333 L131.6406,1150 L132.0313,1180 L132.4219,1093.333 L132.8125,1175 L133.2031,1195 L133.5938,1201.667 L133.9844,1201.667 L134.375,1205 L134.7656,1195 L135.1563,1201.667 L135.5469,1203.333 L135.9375,1125 L136.3281,1203.333 L136.7188,1208.333 L137.1094,1186.667 L137.5,1203.333 L137.8906,1203.333 L138.2813,1191.667 L138.6719,1215 L139.0625,1211.667 L139.4531,1210 L139.8438,1136.667 L140.2344,1215 L140.625,1186.667 L141.0156,1141.667 L141.4063,1133.333 L141.7969,1166.667 L142.1875,1191.667 L142.5781,1180 L142.9688,1223.333 L143.3594,1200 L143.75,1175 L144.1406,1150 L144.5313,1165 L144.9219,1105 L145.3125,1173.333 L145.7031,1178.333 L146.0938,1100 L146.4844,1188.333 L146.875,1210 L147.2656,1166.667 L147.6563,1186.667 L148.0469,1190 L148.4375,1180 L148.8281,1140 L149.2188,1175 L149.6094,1183.333 L150,1183.333 L150.3906,1163.333 L150.7813,1201.667 L151.1719,1186.667 L151.5625,1175 L151.9531,1151.667 L152.3438,1115 L152.7344,1173.333 L153.125,1195 L153.5156,1188.333 L153.9063,1181.667 L154.2969,1175 L154.6875,1175 L155.0781,1155 L155.4688,1175 L155.8594,1190 L156.25,1195 L156.6406,1210 L157.0313,1188.333 L157.4219,1200 L157.8125,1133.333 L158.2031,1213.333 L158.5938,1215 L158.9844,1213.333 L159.375,1165 L159.7656,1165 L160.1563,1208.333 L160.5469,1136.667 L160.9375,1200 L161.3281,1198.333 L161.7188,1185 L162.1094,1218.333 L162.5,1220 L162.8906,1178.333 L163.2813,1193.333 L163.6719,1188.333 L164.0625,1190 L164.4531,1191.667 L164.8438,1198.333 L165.2344,1195 L165.625,1106.667 L166.0156,1198.333 L166.4063,1173.333 L166.7969,1221.667 L167.1875,1173.333 L167.5781,1188.333 L167.9688,1203.333 L168.3594,1156.667 L168.75,1168.333 L169.1406,1205 L169.5313,1233.333 L169.9219,1191.667 L170.3125,1208.333 L170.7031,1161.667 L171.0938,1215 L171.4844,1108.333 L171.875,1145 L172.2656,1185 L172.6563,1150 L173.0469,1190 L173.4375,1218.333 L173.8281,1161.667 L174.2188,1188.333 L174.6094,1205 L175,1200 L175.3906,1190 L175.7813,1158.333 L176.1719,1196.667 L176.5625,1198.333 L176.9531,1215 L177.3438,1201.667 L177.7344,1170 L178.125,1160 L178.5156,1175 L178.9063,1133.333 L179.2969,1188.333 L179.6875,1208.333 L180.0781,1193.333 L180.4688,1173.333 L180.8594,1215 L181.25,1170 L181.6406,1215 L182.0313,1206.667 L182.4219,1186.667 L182.8125,1200 L183.2031,1185 L183.5938,1181.667 L183.9844,1176.667 L184.375,1153.333 L184.7656,1181.667 L185.1563,1180 L185.5469,1211.667 L185.9375,1161.667 L186.3281,1060 L186.7188,1208.333 L187.1094,1185 L187.5,1203.333 L187.8906,1173.333 L188.2813,1173.333 L188.6719,1198.333 L189.0625,1206.667 L189.4531,1201.667 L189.8438,1210 L190.2344,1166.667 L190.625,1116.667 L191.0156,1210 L191.4063,1170 L191.7969,1185 L192.1875,1195 L192.5781,1181.667 L192.9688,1151.667 L193.3594,1211.667 L193.75,1188.333 L194.1406,1210 L194.5313,1200 L194.9219,1175 L195.3125,1196.667 L195.7031,1196.667 L196.0938,1178.333 L196.4844,1213.333 L196.875,1161.667 L197.2656,1155 L197.6563,1158.333 L198.0469,1201.667 L198.4375,1141.667 L198.8281,1166.667 L199.2188,1173.333 L199.6094,1190 L200,1173.333 L200.3906,1181.667 L200.7813,1135 L201.1719,1101.667 L201.5625,1218.333 L201.9531,1180 L202.3438,1186.667 L202.7344,1190 L203.125,1150 L203.5156,1205 L203.9063,1203.333 L204.2969,1190 L204.6875,1185 L205.0781,1155 L205.4688,1201.667 L205.8594,1193.333 L206.25,1213.333 L206.6406,1158.333 L207.0313,1163.333 L207.4219,1225 L207.8125,1191.667 L208.2031,1080 L208.5938,1188.333 L208.9844,1186.667 L209.375,1181.667 L209.7656,1200 L210.1563,1155 L210.5469,1160 L210.9375,1173.333 L211.3281,1180 L211.7188,1203.333 L212.1094,1190 L212.5,1178.333 L212.8906,1198.333 L213.2813,1141.667 L213.6719,1161.667 L214.0625,1120 L214.4531,1205 L214.8438,1203.333 L215.2344,1148.333 L215.625,1168.333 L216.0156,1183.333 L216.4063,1160 L216.7969,1185 L217.1875,1180 L217.5781,1173.333 L217.9688,1166.667 L218.3594,1165 L218.75,1188.333 L219.1406,1171.667 L219.5313,1218.333 L219.9219,1173.333 L220.3125,1180 L220.7031,1185 L221.0938,1188.333 L221.4844,1200 L221.875,1201.667 L222.2656,1183.333 L222.6563,1213.333 L223.0469,1200 L223.4375,1173.333 L223.8281,1178.333 L224.2188,1208.333 L224.6094,1143.333 L225,1175 L225.3906,1168.333 L225.7813,1188.333 L226.1719,1186.667 L226.5625,1188.333 L226.9531,1213.333 L227.3438,1176.667 L227.7344,1185 L228.125,1175 L228.5156,1186.667 L228.9063,1225 L229.2969,1215 L229.6875,1173.333 L230.0781,1140 L230.4688,1216.667 L230.8594,1210 L231.25,1190 L231.6406,1205 L232.0313,1146.667 L232.4219,1181.667 L232.8125,1196.667 L233.2031,1198.333 L233.5938,1168.333 L233.9844,1198.333 L234.375,1225 L234.7656,1128.333 L235.1563,1195 L235.5469,1173.333 L235.9375,1203.333 L236.3281,1213.333 L236.7188,1090 L237.1094,1196.667 L237.5,1093.333 L237.8906,1136.667 L238.2813,1223.333 L238.6719,1136.667 L239.0625,1211.667 L239.4531,1118.333 L239.8438,1190 L240.2344,1205 L240.625,1176.667 L241.0156,1188.333 L241.4063,1206.667 L241.7969,1188.333 L242.1875,1163.333 L242.5781,1196.667 L242.9688,1191.667 L243.3594,1180 L243.75,1213.333 L244.1406,1181.667 L244.5313,1218.333 L244.9219,1211.667 L245.3125,1203.333 L245.7031,1175 L246.0938,1190 L246.4844,1180 L246.875,1170 L247.2656,1211.667 L247.6563,1203.333 L248.0469,1203.333 L248.4375,1203.333 L248.8281,1190 L249.2188,1193.333 L249.6094,1190 L250,1236.667 L250.3906,1200 L250.7813,1205 L251.1719,1185 L251.5625,1175 L251.9531,1173.333 L252.3438,1200 L252.7344,1206.667 L253.125,1190 L253.5156,1198.333 L253.9063,1186.667 L254.2969,1183.333 L254.6875,1175 L255.0781,1206.667 L255.4688,1125 L255.8594,1180 L256.25,1191.667 L256.6406,1221.667 L257.0313,1178.333 L257.4219,1175 L257.8125,1170 L258.2031,1161.667 L258.5938,1203.333 L258.9844,1203.333 L259.375,1200 L259.7656,1133.333 L260.1563,1203.333 L260.5469,1163.333 L260.9375,1195 L261.3281,1220 L261.7188,1176.667 L262.1094,1148.333 L262.5,1193.333 L262.8906,1196.667 L263.2813,1186.667 L263.6719,1201.667 L264.0625,1206.667 L264.4531,1196.667 L264.8438,1211.667 L265.2344,1205 L265.625,1191.667 L266.0156,1175 L266.4063,1156.667 L266.7969,1176.667 L267.1875,1146.667 L267.5781,1151.667 L267.9688,1188.333 L268.3594,1186.667 L268.75,1158.333 L269.1406,1170 L269.5313,1213.333 L269.9219,1193.333 L270.3125,1198.333 L270.7031,1188.333 L271.0938,1201.667 L271.4844,1135 L271.875,1170 L272.2656,1200 L272.6563,1170 L273.0469,1133.333 L273.4375,1156.667 L273.8281,1203.333 L274.2188,1203.333 L274.6094,1183.333 L275,1096.667 L275.3906,1188.333 L275.7813,1191.667 L276.1719,1200 L276.5625,1168.333 L276.9531,1181.667 L277.3438,1098.333 L277.7344,1191.667 L278.125,1200 L278.5156,1198.333 L278.9063,1223.333 L279.2969,1145 L279.6875,1205 L280.0781,1200 L280.4688,1151.667 L280.8594,1181.667 L281.25,1201.667 L281.6406,1200 L282.0313,1221.667 L282.4219,1151.667 L282.8125,1201.667 L283.2031,1196.667 L283.5938,1183.333 L283.9844,1200 L284.375,1170 L284.7656,1196.667 L285.1563,1200 L285.5469,1151.667 L285.9375,1133.333 L286.3281,1216.667 L286.7188,1213.333 L287.1094,1188.333 L287.5,1141.667 L287.8906,1201.667 L288.2813,1260 L288.6719,1206.667 L289.0625,1201.667 L289.4531,1200 L289.8438,1188.333 L290.2344,1150 L290.625,1161.667 L291.0156,1191.667 L291.4063,1063.333 L291.7969,1210 L292.1875,1180 L292.5781,1198.333 L292.9688,1163.333 L293.3594,1205 L293.75,1176.667 L294.1406,1220 L294.5313,1185 L294.9219,1200 L295.3125,1193.333 L295.7031,1201.667 L296.0938,1183.333 L296.4844,1216.667 L296.875,1133.333 L297.2656,1196.667 L297.6563,1213.333 L298.0469,1190 L298.4375,1206.667 L298.8281,1208.333 L299.2188,1183.333 L299.6094,1198.333 L300,1178.333 L300.3906,1191.667 L300.7813,1133.333 L301.1719,1196.667 L301.5625,1193.333 L301.9531,1176.667 L302.3438,1181.667 L302.7344,1198.333 L303.125,1211.667 L303.5156,1185 L303.9063,1210 L304.2969,1206.667 L304.6875,1195 L305.0781,1173.333 L305.4688,1146.667 L305.8594,1206.667 L306.25,1191.667 L306.6407,1180 L307.0313,1206.667 L307.4219,1203.333 L307.8125,1183.333 L308.2031,1173.333 L308.5938,1170 L308.9844,1148.333 L309.375,1203.333 L309.7656,1195 L310.1563,1205 L310.5469,1188.333 L310.9375,1213.333 L311.3281,1198.333 L311.7188,1173.333 L312.1094,1176.667 L312.5,1165 L312.8906,1213.333 L313.2813,1161.667 L313.6719,1156.667 L314.0625,1210 L314.4532,1215 L314.8438,1210 L315.2344,1196.667 L315.625,1163.333 L316.0156,1190 L316.4063,1165 L316.7969,1200 L317.1875,1203.333 L317.5781,1220 L317.9688,1148.333 L318.3594,1186.667 L318.75,1170 L319.1406,1170 L319.5313,1101.667 L319.9219,1195 L320.3125,1200 L320.7031,1186.667 L321.0938,1183.333 L321.4844,1205 L321.875,1196.667 L322.2657,1195 L322.6563,1203.333 L323.0469,1210 L323.4375,1170 L323.8281,1211.667 L324.2188,1176.667 L324.6094,1201.667 L325,1186.667 L325.3906,1200 L325.7813,1171.667 L326.1719,1188.333 L326.5625,1200 L326.9531,1198.333 L327.3438,1190 L327.7344,1160 L328.125,1195 L328.5156,1148.333 L328.9063,1201.667 L329.2969,1175 L329.6875,1205 L330.0782,1156.667 L330.4688,1183.333 L330.8594,1178.333 L331.25,1136.667 L331.6406,1171.667 L332.0313,1173.333 L332.4219,1166.667 L332.8125,1185 L333.2031,1201.667 L333.5938,1155 L333.9844,1186.667 L334.375,1201.667 L334.7656,1200 L335.1563,1188.333 L335.5469,1211.667 L335.9375,1206.667 L336.3281,1171.667 L336.7188,1183.333 L337.1094,1186.667 L337.5,1183.333 L337.8907,1173.333 L338.2813,1116.667 L338.6719,1191.667 L339.0625,1186.667 L339.4531,1133.333 L339.8438,1170 L340.2344,1195 L340.625,1180 L341.0156,1200 L341.4063,1176.667 L341.7969,1196.667 L342.1875,1190 L342.5781,1180 L342.9688,1190 L343.3594,1213.333 L343.75,1173.333 L344.1406,1181.667 L344.5313,1185 L344.9219,1206.667 L345.3125,1181.667 L345.7032,1178.333 L346.0938,1210 L346.4844,1178.333 L346.875,1200 L347.2656,1188.333 L347.6563,1176.667 L348.0469,1198.333 L348.4375,1121.667 L348.8281,1136.667 L349.2188,1185 L349.6094,1150 L350,1165 L350.3906,1201.667 L350.7813,1205 L351.1719,1196.667 L351.5625,1215 L351.9531,1218.333 L352.3438,1156.667 L352.7344,1173.333 L353.125,1206.667 L353.5157,1188.333 L353.9063,1128.333 L354.2969,1173.333 L354.6875,1200 L355.0781,1150 L355.4688,1183.333 L355.8594,1190 L356.25,1176.667 L356.6406,1185 L357.0313,1208.333 L357.4219,1171.667 L357.8125,1210 L358.2031,1205 L358.5938,1170 L358.9844,1195 L359.375,1165 L359.7656,1136.667 L360.1563,1210 L360.5469,1196.667 L360.9375,1206.667 L361.3282,1165 L361.7188,1213.333 L362.1094,1201.667 L362.5,1133.333 L362.8906,1150 L363.2813,1181.667 L363.6719,1211.667 L364.0625,1181.667 L364.4531,1201.667 L364.8438,1191.667 L365.2344,1176.667 L365.625,1198.333 L366.0156,1206.667 L366.4063,1220 L366.7969,1153.333 L367.1875,1163.333 L367.5781,1171.667 L367.9688,1190 L368.3594,1163.333 L368.75,1205 L369.1407,1170 L369.5313,1155 L369.9219,1168.333 L370.3125,1148.333 L370.7031,1186.667 L371.0938,1205 L371.4844,1211.667 L371.875,1190 L372.2656,1203.333 L372.6563,1165 L373.0469,1151.667 L373.4375,1153.333 L373.8281,1160 L374.2188,1120 L374.6094,1161.667 L375,1191.667 L375.3906,1210 L375.7813,1210 L376.1719,1168.333 L376.5625,1151.667 L376.9532,1200 L377.3438,1171.667 L377.7344,1210 L378.125,1140 L378.5156,1111.667 L378.9063,1208.333 L379.2969,1106.667 L379.6875,1216.667 L380.0781,1120 L380.4688,1180 L380.8594,1166.667 L381.25,1148.333 L381.6406,1178.333 L382.0313,1173.333 L382.4219,1150 L382.8125,1193.333 L383.2031,1181.667 L383.5938,1205 L383.9844,1188.333 L384.375,1131.667 L384.7657,1193.333 L385.1563,1161.667 L385.5469,1085 L385.9375,1173.333 L386.3281,1193.333 L386.7188,1141.667 L387.1094,1146.667 L387.5,1153.333 L387.8906,1200 L388.2813,1210 L388.6719,1146.667 L389.0625,1201.667 L389.4531,1185 L389.8438,1181.667 L390.2344,1186.667 L390.625,1176.667 L391.0156,1175 L391.4063,1203.333 L391.7969,1148.333 L392.1875,1141.667 L392.5782,1183.333 L392.9688,1140 L393.3594,1160 L393.75,1190 L394.1406,1196.667 L394.5313,1165 L394.9219,1190 L395.3125,1193.333 L395.7031,1183.333 L396.0938,1181.667 L396.4844,1145 L396.875,1146.667 L397.2656,1215 L397.6563,1138.333 L398.0469,1151.667 L398.4375,1188.333 L398.8281,1190 L399.2188,1188.333 L399.6094,1176.667 L400,1205 L400.3907,1133.333 L400.7813,1153.333 L401.1719,1191.667 L401.5625,1185 L401.9531,1170 L402.3438,1171.667 L402.7344,1166.667 L403.125,1180 L403.5156,1201.667 L403.9063,1125 L404.2969,1181.667 L404.6875,1158.333 L405.0781,1185 L405.4688,1203.333 L405.8594,1183.333 L406.25,1200 L406.6406,1158.333 L407.0313,1160 L407.4219,1205 L407.8125,1166.667 L408.2032,1201.667 L408.5938,1206.667 L408.9844,1153.333 L409.375,1156.667 L409.7656,1146.667 L410.1563,1190 L410.5469,1195 L410.9375,1211.667 L411.3281,1173.333 L411.7188,1193.333 L412.1094,1183.333 L412.5,1146.667 L412.8906,1205 L413.2813,1185 L413.6719,1168.333 L414.0625,1168.333 L414.4531,1211.667 L414.8438,1153.333 L415.2344,1191.667 L415.625,1195 L416.0157,1165 L416.4063,1195 L416.7969,1168.333 L417.1875,1146.667 L417.5781,1113.333 L417.9688,1196.667 L418.3594,1201.667 L418.75,1196.667 L419.1406,1181.667 L419.5313,1183.333 L419.9219,1191.667 L420.3125,1178.333 L420.7031,1166.667 L421.0938,1198.333 L421.4844,1181.667 L421.875,1066.667 L422.2656,1128.333 L422.6563,1156.667 L423.0469,1210 L423.4375,1205 L423.8282,1145 L424.2188,1168.333 L424.6094,1176.667 L425,1143.333 L425.3906,1211.667 L425.7813,1186.667 L426.1719,1170 L426.5625,1090 L426.9531,1143.333 L427.3438,1170 L427.7344,1211.667 L428.125,1155 L428.5156,1215 L428.9063,1176.667 L429.2969,1141.667 L429.6875,1170 L430.0781,1195 L430.4688,1163.333 L430.8594,1180 L431.25,1195 L431.6407,1098.333 L432.0313,1181.667 L432.4219,1168.333 L432.8125,1188.333 L433.2031,1200 L433.5938,1173.333 L433.9844,1186.667 " stroke="blue" fill="none" />
<text x="50" y="1310" font-family="Arial" font-size="12" fill="black">Policy Loss</text>
<text x="50" y="1325" font-family="Arial" font-size="10" fill="black">0.06263763</text>
<text x="50" y="1540" font-family="Arial" font-size="10" fill="black">0.00513418</text>
<path d="M50,1367.746 L51.5625,1518.42 L53.125,1516.361 L54.6875,1515.48 L56.25,1523.962 L57.8125,1526.868 L59.375,1517.221 L60.9375,1519.571 L62.5,1517.229 L64.0625,1518.153 L65.625,1381.435 L67.1875,1522.219 L68.75,1518.735 L70.3125,1520.914 L71.875,1507.084 L73.4375,1510.304 L75,1517.897 L76.5625,1519.827 L78.125,1520.392 L79.6875,1517.364 L81.25,1397.057 L82.8125,1525.033 L84.375,1518.782 L85.9375,1517.407 L87.5,1511.785 L89.0625,1520.541 L90.625,1514.292 L92.1875,1520.234 L93.75,1524.941 L95.3125,1510.457 L96.875,1394.916 L98.4375,1512.029 L100,1521.944 L101.5625,1516.101 L103.125,1518.925 L104.6875,1509.655 L106.25,1522.073 L107.8125,1508.329 L109.375,1516.015 L110.9375,1519.645 L112.5,1334.542 L114.0625,1505.178 L115.625,1511.52 L117.1875,1522.34 L118.75,1519.721 L120.3125,1504.74 L121.875,1516.664 L123.4375,1518.555 L125,1512.47 L126.5625,1516.344 L128.125,1380.138 L129.6875,1516.11 L131.25,1507.331 L132.8125,1511.677 L134.375,1523.726 L135.9375,1513.033 L137.5,1514.831 L139.0625,1514.712 L140.625,1519.763 L142.1875,1528.066 L143.75,1409.728 L145.3125,1515.7 L146.875,1524.857 L148.4375,1529.282 L150,1517.993 L151.5625,1517.144 L153.125,1523.176 L154.6875,1507.81 L156.25,1515.235 L157.8125,1523.224 L159.375,1331.532 L160.9375,1518.548 L162.5,1521.944 L164.0625,1518.119 L165.625,1515.663 L167.1875,1521.407 L168.75,1509.017 L170.3125,1517.828 L171.875,1521.655 L173.4375,1517.969 L175,1390.355 L176.5625,1518.389 L178.125,1515.913 L179.6875,1525.017 L181.25,1523.858 L182.8125,1524.486 L184.375,1509.265 L185.9375,1519.485 L187.5,1525.295 L189.0625,1520.686 L190.625,1374.325 L192.1875,1514.982 L193.75,1515.47 L195.3125,1527.477 L196.875,1525.731 L198.4375,1514.7 L200,1521.973 L201.5625,1515.115 L203.125,1518.537 L204.6875,1518.695 L206.25,1428.598 L207.8125,1523.083 L209.375,1512.708 L210.9375,1517.046 L212.5,1522.04 L214.0625,1522.282 L215.625,1507.538 L217.1875,1518.677 L218.75,1524.842 L220.3125,1522.689 L221.875,1410.631 L223.4375,1518.429 L225,1519.26 L226.5625,1520.437 L228.125,1521.116 L229.6875,1518.485 L231.25,1515.631 L232.8125,1516.098 L234.375,1520.308 L235.9375,1530 L237.5,1391.517 L239.0625,1517.038 L240.625,1525.615 L242.1875,1519.479 L243.75,1520.855 L245.3125,1518.662 L246.875,1513.348 L248.4375,1519.539 L250,1517.767 L251.5625,1505.223 L253.125,1382.944 L254.6875,1516.514 L256.25,1517.96 L257.8125,1522.979 L259.375,1513.862 L260.9375,1507.109 L262.5,1512.313 L264.0625,1516.345 L265.625,1517.473 L267.1875,1508.026 L268.75,1409.366 L270.3125,1515.865 L271.875,1525.757 L273.4375,1518.489 L275,1520.151 L276.5625,1520.522 L278.125,1521.064 L279.6875,1521.882 L281.25,1525.363 L282.8125,1507.471 L284.375,1399.899 L285.9375,1521.372 L287.5,1519.635 L289.0625,1514.849 L290.625,1515.012 L292.1875,1519.392 L293.75,1519.928 L295.3125,1520.993 L296.875,1518.704 L298.4375,1515.879 L300,1398.414 L301.5625,1512.981 L303.125,1521.384 L304.6875,1522.683 L306.25,1518.099 L307.8125,1527.848 L309.375,1511.003 L310.9375,1523.907 L312.5,1515.309 L314.0625,1528.029 L315.625,1384.911 L317.1875,1519.464 L318.75,1516.265 L320.3125,1528.305 L321.875,1528.594 L323.4375,1515.224 L325,1519.143 L326.5625,1517.027 L328.125,1519.906 L329.6875,1526.628 L331.25,1422.193 L332.8125,1519.696 L334.375,1523.346 L335.9375,1529.001 L337.5,1520.89 L339.0625,1516.479 L340.625,1527.837 L342.1875,1524.959 L343.75,1518.88 L345.3125,1520.914 L346.875,1330 L348.4375,1508.534 L350,1513.715 L351.5625,1523.902 L353.125,1527.177 L354.6875,1522.442 L356.25,1519.57 L357.8125,1514.415 L359.375,1512.256 L360.9375,1527.109 " stroke="blue" fill="none" />
<text x="50" y="1580" font-family="Arial" font-size="12" fill="black">Value Loss</text>
<text x="50" y="1595" font-family="Arial" font-size="10" fill="black">0.02154289</text>
<text x="50" y="1810" font-family="Arial" font-size="10" fill="black">0.004070257</text>
<path d="M50,1667.184 L51.5625,1724.674 L53.125,1742.314 L54.6875,1751.173 L56.25,1757.386 L57.8125,1761.479 L59.375,1764.462 L60.9375,1767.444 L62.5,1769.637 L64.0625,1771.625 L65.625,1760.915 L67.1875,1779.461 L68.75,1786.394 L70.3125,1790.508 L71.875,1792.815 L73.4375,1794.784 L75,1796.464 L76.5625,1797.815 L78.125,1798.794 L79.6875,1800 L81.25,1705.508 L82.8125,1739.824 L84.375,1750.956 L85.9375,1758.297 L87.5,1762.366 L89.0625,1765.32 L90.625,1767.569 L92.1875,1768.889 L93.75,1770.957 L95.3125,1772.135 L96.875,1740.57 L98.4375,1762.633 L100,1771.983 L101.5625,1776.797 L103.125,1779.622 L104.6875,1781.732 L106.25,1783.383 L107.8125,1785.011 L109.375,1786.187 L110.9375,1786.687 L112.5,1641.699 L114.0625,1683.022 L115.625,1711.825 L117.1875,1724.388 L118.75,1732.882 L120.3125,1737.198 L121.875,1740.805 L123.4375,1743.448 L125,1747.369 L126.5625,1750.227 L128.125,1681.994 L129.6875,1715.765 L131.25,1738.464 L132.8125,1744.775 L134.375,1750.295 L135.9375,1754.681 L137.5,1757.304 L139.0625,1759.59 L140.625,1762.238 L142.1875,1765.057 L143.75,1702.964 L145.3125,1738.131 L146.875,1752.18 L148.4375,1758.577 L150,1761.894 L151.5625,1764.857 L153.125,1767.088 L154.6875,1769.302 L156.25,1771.174 L157.8125,1772.41 L159.375,1652.805 L160.9375,1692.531 L162.5,1717.551 L164.0625,1728.135 L165.625,1734.144 L167.1875,1738.887 L168.75,1742.466 L170.3125,1745.216 L171.875,1748.023 L173.4375,1749.398 L175,1672.127 L176.5625,1708.705 L178.125,1726.94 L179.6875,1735.622 L181.25,1740.725 L182.8125,1744.872 L184.375,1747.529 L185.9375,1750.825 L187.5,1752.821 L189.0625,1754.433 L190.625,1600 L192.1875,1645.956 L193.75,1666.87 L195.3125,1675.307 L196.875,1683.451 L198.4375,1687.845 L200,1692.15 L201.5625,1696.668 L203.125,1699.372 L204.6875,1701.838 L206.25,1671.758 L207.8125,1723.902 L209.375,1740.827 L210.9375,1747.746 L212.5,1752.813 L214.0625,1756.39 L215.625,1758.587 L217.1875,1760.304 L218.75,1761.15 L220.3125,1763.614 L221.875,1665.073 L223.4375,1700.88 L225,1720.313 L226.5625,1730.724 L228.125,1737.867 L229.6875,1742.11 L231.25,1746.583 L232.8125,1749.548 L234.375,1753.452 L235.9375,1755.795 L237.5,1633.079 L239.0625,1680.896 L240.625,1700.839 L242.1875,1710.929 L243.75,1718.432 L245.3125,1723.302 L246.875,1727.309 L248.4375,1730.482 L250,1734.299 L251.5625,1736.374 L253.125,1677.955 L254.6875,1728.851 L256.25,1744.428 L257.8125,1751.792 L259.375,1756.536 L260.9375,1759.654 L262.5,1762.563 L264.0625,1765.198 L265.625,1766.995 L267.1875,1768.503 L268.75,1685.744 L270.3125,1729.391 L271.875,1747.425 L273.4375,1756.526 L275,1761.478 L276.5625,1765.66 L278.125,1768.116 L279.6875,1770.283 L281.25,1772.233 L282.8125,1774.082 L284.375,1695.475 L285.9375,1735.055 L287.5,1751.603 L289.0625,1759.136 L290.625,1764.105 L292.1875,1767.575 L293.75,1770.32 L295.3125,1772.169 L296.875,1774.096 L298.4375,1775.802 L300,1691.043 L301.5625,1723.199 L303.125,1739.721 L304.6875,1749.162 L306.25,1754.122 L307.8125,1757.997 L309.375,1761.428 L310.9375,1763.151 L312.5,1765.806 L314.0625,1767.668 L315.625,1638.651 L317.1875,1692.816 L318.75,1712.248 L320.3125,1721.133 L321.875,1726.746 L323.4375,1731.447 L325,1734.364 L326.5625,1737.911 L328.125,1740.268 L329.6875,1742.187 L331.25,1695.189 L332.8125,1720.819 L334.375,1734.998 L335.9375,1742.063 L337.5,1747.299 L339.0625,1750.443 L340.625,1753.433 L342.1875,1755.814 L343.75,1757.746 L345.3125,1758.824 L346.875,1624.76 L348.4375,1676.998 L350,1702.636 L351.5625,1713.373 L353.125,1720.36 L354.6875,1724.968 L356.25,1728.383 L357.8125,1731.979 L359.375,1735.1 L360.9375,1737.351 " stroke="blue" fill="none" />
<text x="50" y="1850" font-family="Arial" font-size="12" fill="black">Learning Rate</text>
<text x="50" y="1865" font-family="Arial" font-size="10" fill="black">0.0003</text>
<text x="50" y="2080" font-family="Arial" font-size="10" fill="black">0.0003</text>
<path d="M50,2070 L51.5625,2070 L53.125,2070 L54.6875,2070 L56.25,2070 L57.8125,2070 L59.375,2070 L60.9375,2070 L62.5,2070 L64.0625,2070 L65.625,2070 L67.1875,2070 L68.75,2070 L70.3125,2070 L71.875,2070 L73.4375,2070 L75,2070 L76.5625,2070 L78.125,2070 L79.6875,2070 L81.25,2070 L82.8125,2070 L84.375,2070 L85.9375,2070 L87.5,2070 L89.0625,2070 L90.625,2070 L92.1875,2070 L93.75,2070 L95.3125,2070 L96.875,2070 L98.4375,2070 L100,2070 L101.5625,2070 L103.125,2070 L104.6875,2070 L106.25,2070 L107.8125,2070 L109.375,2070 L110.9375,2070 L112.5,2070 L114.0625,2070 L115.625,2070 L117.1875,2070 L118.75,2070 L120.3125,2070 L121.875,2070 L123.4375,2070 L125,2070 L126.5625,2070 L128.125,2070 L129.6875,2070 L131.25,2070 L132.8125,2070 L134.375,2070 L135.9375,2070 L137.5,2070 L139.0625,2070 L140.625,2070 L142.1875,2070 L143.75,2070 L145.3125,2070 L146.875,2070 L148.4375,2070 L150,2070 L151.5625,2070 L153.125,2070 L154.6875,2070 L156.25,2070 L157.8125,2070 L159.375,2070 L160.9375,2070 L162.5,2070 L164.0625,2070 L165.625,2070 L167.1875,2070 L168.75,2070 L170.3125,2070 L171.875,2070 L173.4375,2070 L175,2070 L176.5625,2070 L178.125,2070 L179.6875,2070 L181.25,2070 L182.8125,2070 L184.375,2070 L185.9375,2070 L187.5,2070 L189.0625,2070 L190.625,2070 L192.1875,2070 L193.75,2070 L195.3125,2070 L196.875,2070 L198.4375,2070 L200,2070 L201.5625,2070 L203.125,2070 L204.6875,2070 L206.25,2070 L207.8125,2070 L209.375,2070 L210.9375,2070 L212.5,2070 L214.0625,2070 L215.625,2070 L217.1875,2070 L218.75,2070 L220.3125,2070 L221.875,2070 L223.4375,2070 L225,2070 L226.5625,2070 L228.125,2070 L229.6875,2070 L231.25,2070 L232.8125,2070 L234.375,2070 L235.9375,2070 L237.5,2070 L239.0625,2070 L240.625,2070 L242.1875,2070 L243.75,2070 L245.3125,2070 L246.875,2070 L248.4375,2070 L250,2070 L251.5625,2070 L253.125,2070 L254.6875,2070 L256.25,2070 L257.8125,2070 L259.375,2070 L260.9375,2070 L262.5,2070 L264.0625,2070 L265.625,2070 L267.1875,2070 L268.75,2070 L270.3125,2070 L271.875,2070 L273.4375,2070 L275,2070 L276.5625,2070 L278.125,2070 L279.6875,2070 L281.25,2070 L282.8125,2070 L284.375,2070 L285.9375,2070 L287.5,2070 L289.0625,2070 L290.625,2070 L292.1875,2070 L293.75,2070 L295.3125,2070 L296.875,2070 L298.4375,2070 L300,2070 L301.5625,2070 L303.125,2070 L304.6875,2070 L306.25,2070 L307.8125,2070 L309.375,2070 L310.9375,2070 L312.5,2070 L314.0625,2070 L315.625,2070 L317.1875,2070 L318.75,2070 L320.3125,2070 L321.875,2070 L323.4375,2070 L325,2070 L326.5625,2070 L328.125,2070 L329.6875,2070 L331.25,2070 L332.8125,2070 L334.375,2070 L335.9375,2070 L337.5,2070 L339.0625,2070 L340.625,2070 L342.1875,2070 L343.75,2070 L345.3125,2070 L346.875,2070 L348.4375,2070 L350,2070 L351.5625,2070 L353.125,2070 L354.6875,2070 L356.25,2070 L357.8125,2070 L359.375,2070 L360.9375,2070 " stroke="blue" fill="none" />
<text x="50" y="2120" font-family="Arial" font-size="12" fill="black">Entropy</text>
<text x="50" y="2135" font-family="Arial" font-size="10" fill="black">0.2340551</text>
<text x="50" y="2350" font-family="Arial" font-size="10" fill="black">0.1969609</text>
<path d="M50,2140 L51.5625,2140 L53.125,2140 L54.6875,2140 L56.25,2140 L57.8125,2140 L59.375,2140 L60.9375,2140 L62.5,2140 L64.0625,2140 L65.625,2140 L67.1875,2140 L68.75,2140 L70.3125,2140 L71.875,2140 L73.4375,2140 L75,2140 L76.5625,2140 L78.125,2140 L79.6875,2140 L81.25,2140 L82.8125,2140 L84.375,2140 L85.9375,2140 L87.5,2140 L89.0625,2140 L90.625,2140 L92.1875,2140 L93.75,2140 L95.3125,2140 L96.875,2140 L98.4375,2140 L100,2140 L101.5625,2140 L103.125,2140 L104.6875,2140 L106.25,2140 L107.8125,2140 L109.375,2140 L110.9375,2140 L112.5,2140 L114.0625,2140 L115.625,2140 L117.1875,2140 L118.75,2140 L120.3125,2140 L121.875,2140 L123.4375,2140 L125,2140 L126.5625,2140 L128.125,2140 L129.6875,2140 L131.25,2140 L132.8125,2140 L134.375,2140 L135.9375,2140 L137.5,2140 L139.0625,2140 L140.625,2140 L142.1875,2140 L143.75,2140 L145.3125,2140 L146.875,2140 L148.4375,2140 L150,2140 L151.5625,2140 L153.125,2140 L154.6875,2140 L156.25,2140 L157.8125,2140 L159.375,2140 L160.9375,2140 L162.5,2140 L164.0625,2140 L165.625,2140 L167.1875,2140 L168.75,2140 L170.3125,2140 L171.875,2140 L173.4375,2140 L175,2140 L176.5625,2140 L178.125,2140 L179.6875,2140 L181.25,2140 L182.8125,2140 L184.375,2140 L185.9375,2140 L187.5,2140 L189.0625,2140 L190.625,2140 L192.1875,2140 L193.75,2140 L195.3125,2140 L196.875,2140 L198.4375,2140 L200,2140 L201.5625,2140 L203.125,2140 L204.6875,2140 L206.25,2140 L207.8125,2140 L209.375,2140 L210.9375,2140 L212.5,2140 L214.0625,2140 L215.625,2140 L217.1875,2140 L218.75,2140 L220.3125,2140 L221.875,2140 L223.4375,2140 L225,2140 L226.5625,2140 L228.125,2140 L229.6875,2140 L231.25,2140 L232.8125,2140 L234.375,2140 L235.9375,2140 L237.5,2140 L239.0625,2140 L240.625,2140 L242.1875,2140 L243.75,2140 L245.3125,2140 L246.875,2140 L248.4375,2140 L250,2140 L251.5625,2140 L253.125,2140 L254.6875,2140 L256.25,2140 L257.8125,2140 L259.375,2140 L260.9375,2140 L262.5,2140 L264.0625,2140 L265.625,2140 L267.1875,2140 L268.75,2140 L270.3125,2140 L271.875,2140 L273.4375,2140 L275,2140 L276.5625,2140 L278.125,2140 L279.6875,2140 L281.25,2140 L282.8125,2140 L284.375,2140 L285.9375,2140 L287.5,2140 L289.0625,2140 L290.625,2140 L292.1875,2140 L293.75,2140 L295.3125,2140 L296.875,2140 L298.4375,2140 L300,2140 L301.5625,2140 L303.125,2140 L304.6875,2140 L306.25,2140 L307.8125,2140 L309.375,2140 L310.9375,2140 L312.5,2140 L314.0625,2140 L315.625,2340 L317.1875,2340 L318.75,2340 L320.3125,2340 L321.875,2340 L323.4375,2340 L325,2340 L326.5625,2340 L328.125,2340 L329.6875,2340 L331.25,2281.415 L332.8125,2281.415 L334.375,2281.415 L335.9375,2281.415 L337.5,2281.415 L339.0625,2281.415 L340.625,2281.415 L342.1875,2281.415 L343.75,2281.415 L345.3125,2281.415 L346.875,2281.415 L348.4375,2281.415 L350,2281.415 L351.5625,2281.415 L353.125,2281.415 L354.6875,2281.415 L356.25,2281.415 L357.8125,2281.415 L359.375,2281.415 L360.9375,2281.415 " stroke="blue" fill="none" />
<text x="750" y="770" font-family="Arial" font-size="12" fill="black">Simplified</text>
<text x="750" y="785" font-family="Arial" font-size="10" fill="black">4.041189</text>
<text x="750" y="1000" font-family="Arial" font-size="10" fill="black">2.168718</text>
<path d="M757.0313,945.9513 L764.4531,897.1097 L771.875,918.8965 L779.2969,990 L786.7188,933.531 L794.1406,898.5808 L801.5625,954.7457 L808.9844,907.8248 L816.4063,937.8017 L823.8281,943.0217 L831.25,934.6725 L838.6719,919.5997 L846.0938,834.6924 L853.5156,881.8645 L860.9375,925.8376 L868.3594,939.803 L875.7813,908.6986 L883.2031,955.6007 L890.625,868.3082 L898.0469,936.0587 L905.4688,871.0344 L912.8906,884.3094 L920.3125,864.6055 L927.7344,942.7745 L935.1563,934.2294 L942.5781,848.7028 L950,987.241 L957.4219,938.541 L964.8438,938.3035 L972.2656,907.3543 L979.6875,858.879 L987.1094,933.949 L994.5313,900.9579 L1001.953,951.5546 L1009.375,941.6343 L1016.797,943.5975 L1024.219,928.7072 L1031.641,911.3232 L1039.063,915.1667 L1046.484,932.7035 L1053.906,889.5948 L1061.328,926.4813 L1068.75,926.8585 L1076.172,878.5295 L1083.594,817.1852 L1091.016,830.8884 L1098.438,838.4687 L1105.859,874.4163 L1113.281,895.1832 L1120.703,879.2578 L1128.125,790 L1133.984,867.71 " stroke="blue" fill="none" />
<text x="750" y="1040" font-family="Arial" font-size="12" fill="black">Simplified</text>
<text x="750" y="1055" font-family="Arial" font-size="10" fill="black">72.52631</text>
<text x="750" y="1270" font-family="Arial" font-size="10" fill="black">52.36842</text>
<path d="M757.0313,1205.17 L764.4531,1162.872 L771.875,1173.316 L779.2969,1260 L786.7188,1193.159 L794.1406,1155.561 L801.5625,1222.402 L808.9844,1164.439 L816.4063,1198.381 L823.8281,1198.381 L831.25,1190.548 L838.6719,1191.593 L846.0938,1099.164 L853.5156,1133.629 L860.9375,1178.016 L868.3594,1204.125 L875.7813,1174.36 L883.2031,1208.303 L890.625,1132.585 L898.0469,1192.115 L905.4688,1125.796 L912.8906,1154.517 L920.3125,1114.83 L927.7344,1197.337 L935.1563,1203.081 L942.5781,1120.574 L950,1256.867 L957.4219,1197.337 L964.8438,1202.036 L972.2656,1150.339 L979.6875,1128.929 L987.1094,1198.381 L994.5313,1181.149 L1001.953,1209.347 L1009.375,1203.081 L1016.797,1209.87 L1024.219,1190.026 L1031.641,1163.394 L1039.063,1170.183 L1046.484,1185.849 L1053.906,1151.906 L1061.328,1179.06 L1068.75,1184.282 L1076.172,1126.319 L1083.594,1089.765 L1091.016,1095.509 L1098.438,1104.909 L1105.859,1132.585 L1113.281,1160.261 L1120.703,1139.896 L1128.125,1060 L1133.984,1128.059 " stroke="blue" fill="none" />
</svg>
