<svg width="2000" height="2500" xmlns="http://www.w3.org/2000/svg">
<text x="10" y="20" font-family="Arial" font-size="26" fill="black"> [HumanWalk] Training Session</text>
<text x="10" y="50" font-family="Arial" font-size="16" fill="black">[Statistics]</text>
<text x="50" y="70" font-family="Arial" font-size="12" fill="black">Started at: 9:20:46 AM, Saturday, November 25, 2023</text>
<text x="50" y="90" font-family="Arial" font-size="12" fill="black">Finished at: 9:26:54 AM, Saturday, November 25, 2023</text>
<text x="50" y="110" font-family="Arial" font-size="12" fill="black">Training Session Time: 0 hrs : 6 min : 8 sec</text>
<text x="50" y="130" font-family="Arial" font-size="12" fill="black">Inference Time: 0 hrs : 13 min : 43 sec       [Per agent: 0 hrs : 13 min : 43 sec]        [Device: CPU]</text>
<text x="50" y="150" font-family="Arial" font-size="12" fill="black">Policy Update Time: 0 hrs : 1 min : 23 sec        [Per iteration: 0 hrs : 0 min : 8 sec]        [Device: GPU]</text>
<text x="50" y="170" font-family="Arial" font-size="12" fill="black">Inference Time / Training Session Time: 2.231</text>
<text x="50" y="190" font-family="Arial" font-size="12" fill="black">Policy Update Time / Training Session Time: 0.225</text>
<text x="50" y="210" font-family="Arial" font-size="12" fill="black">Episode Count: 509</text>
<text x="50" y="230" font-family="Arial" font-size="12" fill="black">Inference Steps: 41366    [Per agent: 41366]     [Per Episode (mean): 81]</text>
<text x="50" y="250" font-family="Arial" font-size="12" fill="black">Iterations: 10</text>
<text x="50" y="270" font-family="Arial" font-size="12" fill="black">Parallel Agents: 1</text>
<text x="50" y="290" font-family="Arial" font-size="12" fill="black">Timescale: 2.336123</text>
<text x="50" y="310" font-family="Arial" font-size="12" fill="black">Trainer: PPO</text>
<text x="10" y="360" font-family="Arial" font-size="16" fill="black">[Hyperparameters]</text>
<text x="50" y="380" font-family="Arial" font-size="12" fill="black">Buffer Size: 4096        [Batch Size: 256       (x16)]</text>
<text x="50" y="400" font-family="Arial" font-size="12" fill="black">Num Epoch: 7</text>
<text x="50" y="420" font-family="Arial" font-size="12" fill="black">Time Horizon: 256</text>
<text x="50" y="440" font-family="Arial" font-size="12" fill="black">Gradient Cliping Normalization: 0.5</text>
<text x="50" y="460" font-family="Arial" font-size="12" fill="black">Learning Rate Schedule: False    </text>
<text x="10" y="510" font-family="Arial" font-size="16" fill="black">[Behaviour]</text>
<text x="50" y="530" font-family="Arial" font-size="12" fill="black">Space Size: 189</text>
<text x="50" y="550" font-family="Arial" font-size="12" fill="black">Continuous Actions: 40 [Standard Deviation: Fixed]     [Value: 1.15]</text>
<text x="50" y="570" font-family="Arial" font-size="12" fill="black">Discrete Actions: 0</text>
<text x="50" y="590" font-family="Arial" font-size="12" fill="black">TargetFPS: 100 (physics update rate)</text>
<text x="50" y="610" font-family="Arial" font-size="12" fill="black">Observations Normalization: True</text>
<text x="10" y="660" font-family="Arial" font-size="16" fill="black">[Decision Requester]</text>
<text x="50" y="680" font-family="Arial" font-size="12" fill="black">Max Step: 5000</text>
<text x="50" y="700" font-family="Arial" font-size="12" fill="black">Decision Period: 2      [Actions Between Decisions: True]</text>
<text x="10" y="750" font-family="Arial" font-size="16" fill="black">[Graphs]</text>
<text x="50" y="770" font-family="Arial" font-size="12" fill="black">Episode Reward (509)</text>
<text x="50" y="785" font-family="Arial" font-size="10" fill="black">10.12242</text>
<text x="50" y="1000" font-family="Arial" font-size="10" fill="black">1.012839</text>
<path d="M50,961.3087 L50.78125,958.6621 L51.5625,947.1747 L52.34375,970.9388 L53.125,955.9656 L53.90625,960.9379 L54.6875,971.4812 L55.46875,908.2568 L56.25,976.6345 L57.03125,916.631 L57.8125,942.6688 L58.59375,889.0355 L59.375,928.2357 L60.15625,948.6841 L60.9375,962.748 L61.71875,939.7385 L62.5,950.9839 L63.28125,974.1915 L64.0625,969.3442 L64.84375,972.0733 L65.625,964.3148 L66.40625,972.1078 L67.1875,969.3708 L67.96875,909.5159 L68.75,976.1857 L69.53125,925.9385 L70.3125,947.4075 L71.09375,956.1588 L71.875,847.1581 L72.65625,969.5389 L73.4375,888.424 L74.21875,916.6217 L75,953.2836 L75.78125,924.5293 L76.5625,867.8367 L77.34375,917.4724 L78.125,888.9429 L78.90625,889.2901 L79.6875,955.5726 L80.46875,912.6967 L81.25,945.3163 L82.03125,969.8437 L82.8125,965.9898 L83.59375,953.2521 L84.375,901.119 L85.15625,948.0441 L85.9375,954.7868 L86.71875,952.3191 L87.5,962.3143 L88.28125,934.6525 L89.0625,935.2148 L89.84375,919.7925 L90.625,960.1503 L91.40625,969.9553 L92.1875,959.3591 L92.96875,958.6752 L93.75,944.5309 L94.53125,956.4336 L95.3125,954.1069 L96.09375,928.4539 L96.875,967.6671 L97.65625,930.4269 L98.4375,966.4008 L99.21875,940.2199 L100,913.0696 L100.7813,965.6479 L101.5625,957.9194 L102.3438,980.2319 L103.125,919.8209 L103.9063,954.645 L104.6875,933.3343 L105.4688,976.3715 L106.25,965.7743 L107.0313,944.3076 L107.8125,910.1591 L108.5938,949.7951 L109.375,939.6966 L110.1563,885.147 L110.9375,904.1009 L111.7188,975.1566 L112.5,938.067 L113.2813,927.2886 L114.0625,961.4186 L114.8438,953.0085 L115.625,962.5151 L116.4063,929.4431 L117.1875,920.1115 L117.9688,934.936 L118.75,973.2679 L119.5313,961.7658 L120.3125,904.907 L121.0938,867.6703 L121.875,921.2675 L122.6563,925.9363 L123.4375,931.6592 L124.2188,972.9105 L125,973.6647 L125.7813,948.684 L126.5625,960.8591 L127.3438,974.5567 L128.125,967.2746 L128.9063,957.5862 L129.6875,951.9692 L130.4688,936.1985 L131.25,971.5224 L132.0313,933.9714 L132.8125,945.4564 L133.5938,941.0343 L134.375,970.7924 L135.1563,954.5405 L135.9375,924.3384 L136.7188,931.548 L137.5,960.6454 L138.2813,890.0966 L139.0625,948.101 L139.8438,923.3712 L140.625,973.7011 L141.4063,973.1641 L142.1875,951.2857 L142.9688,915.9802 L143.75,956.6151 L144.5313,909.9509 L145.3125,925.8604 L146.0938,855.0333 L146.875,873.0595 L147.6563,968.5212 L148.4375,966.2104 L149.2188,977.7111 L150,950.4506 L150.7813,968.0833 L151.5625,953.1476 L152.3438,936.5636 L153.125,882.8604 L153.9063,933.091 L154.6875,963.9179 L155.4688,980.5909 L156.25,976.6317 L157.0313,931.9424 L157.8125,956.9736 L158.5938,966.2004 L159.375,918.2009 L160.1563,964.6978 L160.9375,924.4772 L161.7188,942.7286 L162.5,946.7753 L163.2813,953.5413 L164.0625,955.8365 L164.8438,962.9566 L165.625,963.1786 L166.4063,979.8721 L167.1875,971.5858 L167.9688,959.5609 L168.75,891.814 L169.5313,957.9008 L170.3125,970.3953 L171.0938,936.3085 L171.875,884.8912 L172.6563,966.9443 L173.4375,940.8458 L174.2188,947.4478 L175,949.4341 L175.7813,933.4974 L176.5625,958.4321 L177.3438,926.187 L178.125,900.6624 L178.9063,973.5491 L179.6875,958.6571 L180.4688,931.4518 L181.25,962.4874 L182.0313,940.9915 L182.8125,947.2418 L183.5938,962.9957 L184.375,918.9797 L185.1563,974.2249 L185.9375,938.4565 L186.7188,932.3058 L187.5,943.0114 L188.2813,930.2916 L189.0625,980.9153 L189.8438,976.1769 L190.625,952.42 L191.4063,928.2961 L192.1875,945.14 L192.9688,935.4148 L193.75,882.9885 L194.5313,918.6761 L195.3125,967.9542 L196.0938,929.7205 L196.875,937.865 L197.6563,956.5269 L198.4375,970.4487 L199.2188,931.9028 L200,952.6827 L200.7813,968.7131 L201.5625,965.6411 L202.3438,961.8433 L203.125,923.8392 L203.9063,982.9993 L204.6875,951.9552 L205.4688,873.8154 L206.25,961.7052 L207.0313,921.7748 L207.8125,874.1888 L208.5938,971.2965 L209.375,967.2632 L210.1563,894.9654 L210.9375,946.7657 L211.7188,963.7687 L212.5,917.7108 L213.2813,952.6462 L214.0625,890.9763 L214.8438,941.7919 L215.625,968.572 L216.4063,952.5174 L217.1875,868.3826 L217.9688,964.611 L218.75,964.9808 L219.5313,973.9769 L220.3125,990 L221.0938,965.7825 L221.875,968.4103 L222.6563,964.5151 L223.4375,967.6436 L224.2188,957.1777 L225,943.9507 L225.7813,972.0494 L226.5625,974.3995 L227.3438,959.9546 L228.125,930.9421 L228.9063,970.0264 L229.6875,930.3852 L230.4688,846.0584 L231.25,911.5481 L232.0313,969.7808 L232.8125,947.3023 L233.5938,966.5786 L234.375,945.5414 L235.1563,842.6269 L235.9375,943.3499 L236.7188,957.3392 L237.5,958.7186 L238.2813,956.1185 L239.0625,915.3859 L239.8438,963.2984 L240.625,970.4974 L241.4063,959.4739 L242.1875,947.6033 L242.9688,954.6724 L243.75,939.9481 L244.5313,938.5846 L245.3125,971.8763 L246.0938,924.3331 L246.875,952.841 L247.6563,875.5752 L248.4375,966.9855 L249.2188,962.7548 L250,962.6021 L250.7813,964.2126 L251.5625,966.632 L252.3438,936.2952 L253.125,964.2009 L253.9063,958.6758 L254.6875,958.6525 L255.4688,989.3256 L256.25,906.5497 L257.0313,938.5185 L257.8125,956.8906 L258.5938,963.5908 L259.375,843.4788 L260.1563,949.1877 L260.9375,939.3556 L261.7188,975.1321 L262.5,960.0253 L263.2813,928.9191 L264.0625,962.195 L264.8438,976.8682 L265.625,957.1182 L266.4063,976.4424 L267.1875,962.2731 L267.9688,948.8401 L268.75,981.3857 L269.5313,968.7438 L270.3125,925.6166 L271.0938,926.6791 L271.875,961.4973 L272.6563,949.7056 L273.4375,920.9173 L274.2188,928.3644 L275,944.9479 L275.7813,955.8436 L276.5625,987.7743 L277.3438,982.8361 L278.125,979.6303 L278.9063,961.3503 L279.6875,911.9373 L280.4688,958.6638 L281.25,937.5715 L282.0313,914.7671 L282.8125,970.3753 L283.5938,920.8926 L284.375,943.2706 L285.1563,939.8812 L285.9375,970.9323 L286.7188,974.3286 L287.5,949.1984 L288.2813,944.4413 L289.0625,892.2042 L289.8438,939.9182 L290.625,938.715 L291.4063,962.8891 L292.1875,959.3842 L292.9688,934.9514 L293.75,958.3086 L294.5313,941.4513 L295.3125,940.8823 L296.0938,964.866 L296.875,976.3424 L297.6563,968.3564 L298.4375,951.9045 L299.2188,961.08 L300,951.4749 L300.7813,943.0711 L301.5625,925.5867 L302.3438,959.3311 L303.125,911.6504 L303.9063,975.1981 L304.6875,985.3426 L305.4688,970.4155 L306.25,954.28 L307.0313,968.2531 L307.8125,904.2394 L308.5938,986.662 L309.375,969.7387 L310.1563,970.052 L310.9375,960.397 L311.7188,932.1768 L312.5,938.708 L313.2813,950.4349 L314.0625,959.7543 L314.8438,932.1711 L315.625,965.8876 L316.4063,891.8531 L317.1875,947.9395 L317.9688,979.8355 L318.75,962.3609 L319.5313,960.9415 L320.3125,960.9721 L321.0938,955.8663 L321.875,962.9919 L322.6563,988.7869 L323.4375,970.0547 L324.2188,927.0893 L325,971.4244 L325.7813,950.1454 L326.5625,947.4929 L327.3438,927.6284 L328.125,949.6726 L328.9063,928.3625 L329.6875,979.3744 L330.4688,955.7766 L331.25,968.9597 L332.0313,977.7944 L332.8125,954.4332 L333.5938,911.7434 L334.375,952.8159 L335.1563,965.5775 L335.9375,955.3091 L336.7188,927.3398 L337.5,931.5555 L338.2813,955.0233 L339.0625,967.3055 L339.8438,968.9955 L340.625,956.065 L341.4063,929.9479 L342.1875,923.0437 L342.9688,892.494 L343.75,943.8379 L344.5313,956.1003 L345.3125,960.4031 L346.0938,944.9758 L346.875,954.0636 L347.6563,924.8577 L348.4375,961.5253 L349.2188,936.7383 L350,960.3903 L350.7813,966.2395 L351.5625,947.2921 L352.3438,931.435 L353.125,940.4428 L353.9063,919.6823 L354.6875,969.3257 L355.4688,972.3934 L356.25,939.6171 L357.0313,960.2356 L357.8125,947.9747 L358.5938,960.0252 L359.375,976.2975 L360.1563,939.0216 L360.9375,881.5649 L361.7188,890.5147 L362.5,970.5483 L363.2813,954.5414 L364.0625,944.9929 L364.8438,941.8145 L365.625,960.8688 L366.4063,937.8679 L367.1875,966.5173 L367.9688,871.5947 L368.75,955.0763 L369.5313,982.8787 L370.3125,959.8981 L371.0938,949.8772 L371.875,963.5936 L372.6563,967.3217 L373.4375,966.5234 L374.2188,953.0319 L375,944.3015 L375.7813,962.6876 L376.5625,887.683 L377.3438,967.9525 L378.125,963.8529 L378.9063,959.277 L379.6875,964.6957 L380.4688,899.2177 L381.25,790 L382.0313,976.8944 L382.8125,982.4741 L383.5938,958.1632 L384.375,963.9146 L385.1563,869.619 L385.9375,926.8181 L386.7188,954.5221 L387.5,956.3706 L388.2813,870.2054 L389.0625,958.395 L389.8438,938.6186 L390.625,930.7165 L391.4063,928.4995 L392.1875,918.9837 L392.9688,925.7784 L393.75,957.8137 L394.5313,950.8376 L395.3125,954.2674 L396.0938,953.6183 L396.875,941.7614 L397.6563,962.7148 L398.4375,962.2563 L399.2188,947.4371 L400,934.1638 L400.7813,951.116 L401.5625,976.5731 L402.3438,943.3482 L403.125,958.6185 L403.9063,952.4932 L404.6875,916.7172 L405.4688,958.7455 L406.25,967.3314 L407.0313,950.0871 L407.8125,947.2292 L408.5938,943.6842 L409.375,961.6023 L410.1563,899.7687 L410.9375,948.8713 L411.7188,945.4237 L412.5,961.1473 L413.2813,885.4579 L414.0625,960.0501 L414.8438,922.4778 L415.625,923.6974 L416.4063,942.4393 L417.1875,938.8045 L417.9688,934.333 L418.75,893.475 L419.5313,884.4573 L420.3125,960.2589 L421.0938,968.7311 L421.875,912.637 L422.6563,971.3223 L423.4375,971.7853 L424.2188,978.5871 L425,974.942 L425.7813,963.0838 L426.5625,967.6456 L427.3438,973.0513 L428.125,936.6964 L428.9063,970.3729 L429.6875,979.4725 L430.4688,927.7207 L431.25,964.5875 L432.0313,959.8176 L432.8125,944.9644 L433.5938,961.1746 L434.375,908.309 L435.1563,961.6623 L435.9375,955.9837 L436.7188,941.279 L437.5,877.6425 L438.2813,947.397 L439.0625,922.419 L439.8438,934.4335 L440.625,944.8845 L441.4063,975.6262 L442.1875,964.6624 L442.9688,968.639 L443.75,920.7801 L444.5313,907.0378 L445.3125,962.9417 L446.0938,969.4077 L446.875,935.7363 " stroke="blue" fill="none" />
<text x="50" y="1040" font-family="Arial" font-size="12" fill="black">Episode Length (509)</text>
<text x="50" y="1055" font-family="Arial" font-size="10" fill="black">163</text>
<text x="50" y="1270" font-family="Arial" font-size="10" fill="black">41</text>
<path d="M50,1215.738 L50.78125,1207.541 L51.5625,1191.148 L52.34375,1227.213 L53.125,1205.902 L53.90625,1209.18 L54.6875,1222.295 L55.46875,1148.525 L56.25,1235.41 L57.03125,1158.361 L57.8125,1182.951 L58.59375,1137.049 L59.375,1176.393 L60.15625,1192.787 L60.9375,1212.459 L61.71875,1184.59 L62.5,1200.984 L63.28125,1225.574 L64.0625,1222.295 L64.84375,1225.574 L65.625,1214.098 L66.40625,1225.574 L67.1875,1215.738 L67.96875,1153.443 L68.75,1232.131 L69.53125,1166.557 L70.3125,1194.426 L71.09375,1202.623 L71.875,1104.262 L72.65625,1228.852 L73.4375,1133.771 L74.21875,1161.639 L75,1199.344 L75.78125,1151.803 L76.5625,1115.738 L77.34375,1168.197 L78.125,1135.41 L78.90625,1135.41 L79.6875,1200.984 L80.46875,1153.443 L81.25,1192.787 L82.03125,1227.213 L82.8125,1214.098 L83.59375,1202.623 L84.375,1143.607 L85.15625,1191.148 L85.9375,1202.623 L86.71875,1199.344 L87.5,1210.82 L88.28125,1178.033 L89.0625,1178.033 L89.84375,1164.918 L90.625,1209.18 L91.40625,1223.934 L92.1875,1205.902 L92.96875,1209.18 L93.75,1187.869 L94.53125,1205.902 L95.3125,1200.984 L96.09375,1168.197 L96.875,1219.016 L97.65625,1173.115 L98.4375,1219.016 L99.21875,1184.59 L100,1155.082 L100.7813,1217.377 L101.5625,1207.541 L102.3438,1237.049 L103.125,1161.639 L103.9063,1202.623 L104.6875,1178.033 L105.4688,1228.852 L106.25,1215.738 L107.0313,1187.869 L107.8125,1151.803 L108.5938,1196.066 L109.375,1182.951 L110.1563,1132.131 L110.9375,1146.885 L111.7188,1235.41 L112.5,1182.951 L113.2813,1168.197 L114.0625,1214.098 L114.8438,1205.902 L115.625,1210.82 L116.4063,1168.197 L117.1875,1166.557 L117.9688,1184.59 L118.75,1225.574 L119.5313,1209.18 L120.3125,1153.443 L121.0938,1112.459 L121.875,1166.557 L122.6563,1168.197 L123.4375,1176.393 L124.2188,1227.213 L125,1233.771 L125.7813,1196.066 L126.5625,1209.18 L127.3438,1230.492 L128.125,1220.656 L128.9063,1212.459 L129.6875,1202.623 L130.4688,1182.951 L131.25,1230.492 L132.0313,1171.475 L132.8125,1191.148 L133.5938,1184.59 L134.375,1228.852 L135.1563,1200.984 L135.9375,1168.197 L136.7188,1171.475 L137.5,1209.18 L138.2813,1138.688 L139.0625,1196.066 L139.8438,1166.557 L140.625,1227.213 L141.4063,1227.213 L142.1875,1200.984 L142.9688,1158.361 L143.75,1200.984 L144.5313,1151.803 L145.3125,1173.115 L146.0938,1107.541 L146.875,1117.377 L147.6563,1223.934 L148.4375,1214.098 L149.2188,1232.131 L150,1200.984 L150.7813,1222.295 L151.5625,1196.066 L152.3438,1178.033 L153.125,1125.574 L153.9063,1178.033 L154.6875,1212.459 L155.4688,1241.967 L156.25,1235.41 L157.0313,1174.754 L157.8125,1202.623 L158.5938,1217.377 L159.375,1160 L160.1563,1220.656 L160.9375,1166.557 L161.7188,1192.787 L162.5,1191.148 L163.2813,1204.262 L164.0625,1202.623 L164.8438,1210.82 L165.625,1210.82 L166.4063,1237.049 L167.1875,1227.213 L167.9688,1210.82 L168.75,1140.328 L169.5313,1202.623 L170.3125,1230.492 L171.0938,1182.951 L171.875,1132.131 L172.6563,1220.656 L173.4375,1182.951 L174.2188,1196.066 L175,1196.066 L175.7813,1176.393 L176.5625,1210.82 L177.3438,1169.836 L178.125,1148.525 L178.9063,1225.574 L179.6875,1210.82 L180.4688,1174.754 L181.25,1207.541 L182.0313,1186.229 L182.8125,1191.148 L183.5938,1210.82 L184.375,1160 L185.1563,1235.41 L185.9375,1181.312 L186.7188,1171.475 L187.5,1189.508 L188.2813,1176.393 L189.0625,1237.049 L189.8438,1232.131 L190.625,1194.426 L191.4063,1171.475 L192.1875,1189.508 L192.9688,1174.754 L193.75,1128.852 L194.5313,1160 L195.3125,1223.934 L196.0938,1171.475 L196.875,1179.672 L197.6563,1207.541 L198.4375,1220.656 L199.2188,1181.312 L200,1197.705 L200.7813,1223.934 L201.5625,1215.738 L202.3438,1209.18 L203.125,1166.557 L203.9063,1245.246 L204.6875,1196.066 L205.4688,1123.934 L206.25,1212.459 L207.0313,1163.279 L207.8125,1123.934 L208.5938,1220.656 L209.375,1217.377 L210.1563,1141.967 L210.9375,1191.148 L211.7188,1214.098 L212.5,1163.279 L213.2813,1197.705 L214.0625,1132.131 L214.8438,1182.951 L215.625,1219.016 L216.4063,1204.262 L217.1875,1117.377 L217.9688,1217.377 L218.75,1215.738 L219.5313,1225.574 L220.3125,1260 L221.0938,1220.656 L221.875,1219.016 L222.6563,1212.459 L223.4375,1223.934 L224.2188,1202.623 L225,1186.229 L225.7813,1232.131 L226.5625,1233.771 L227.3438,1207.541 L228.125,1171.475 L228.9063,1225.574 L229.6875,1173.115 L230.4688,1102.623 L231.25,1151.803 L232.0313,1222.295 L232.8125,1197.705 L233.5938,1219.016 L234.375,1192.787 L235.1563,1099.344 L235.9375,1194.426 L236.7188,1209.18 L237.5,1209.18 L238.2813,1200.984 L239.0625,1163.279 L239.8438,1212.459 L240.625,1219.016 L241.4063,1204.262 L242.1875,1196.066 L242.9688,1200.984 L243.75,1182.951 L244.5313,1181.312 L245.3125,1230.492 L246.0938,1169.836 L246.875,1200.984 L247.6563,1123.934 L248.4375,1214.098 L249.2188,1210.82 L250,1209.18 L250.7813,1214.098 L251.5625,1217.377 L252.3438,1178.033 L253.125,1219.016 L253.9063,1209.18 L254.6875,1207.541 L255.4688,1260 L256.25,1150.164 L257.0313,1181.312 L257.8125,1207.541 L258.5938,1217.377 L259.375,1094.426 L260.1563,1196.066 L260.9375,1187.869 L261.7188,1233.771 L262.5,1210.82 L263.2813,1174.754 L264.0625,1209.18 L264.8438,1227.213 L265.625,1204.262 L266.4063,1232.131 L267.1875,1207.541 L267.9688,1197.705 L268.75,1237.049 L269.5313,1219.016 L270.3125,1173.115 L271.0938,1173.115 L271.875,1212.459 L272.6563,1191.148 L273.4375,1168.197 L274.2188,1178.033 L275,1187.869 L275.7813,1202.623 L276.5625,1260 L277.3438,1238.688 L278.125,1237.049 L278.9063,1212.459 L279.6875,1158.361 L280.4688,1202.623 L281.25,1179.672 L282.0313,1156.721 L282.8125,1222.295 L283.5938,1169.836 L284.375,1186.229 L285.1563,1182.951 L285.9375,1225.574 L286.7188,1237.049 L287.5,1194.426 L288.2813,1187.869 L289.0625,1132.131 L289.8438,1184.59 L290.625,1181.312 L291.4063,1212.459 L292.1875,1205.902 L292.9688,1173.115 L293.75,1202.623 L294.5313,1187.869 L295.3125,1191.148 L296.0938,1217.377 L296.875,1233.771 L297.6563,1217.377 L298.4375,1197.705 L299.2188,1210.82 L300,1196.066 L300.7813,1187.869 L301.5625,1169.836 L302.3438,1205.902 L303.125,1153.443 L303.9063,1233.771 L304.6875,1253.443 L305.4688,1228.852 L306.25,1204.262 L307.0313,1222.295 L307.8125,1146.885 L308.5938,1251.803 L309.375,1220.656 L310.1563,1225.574 L310.9375,1212.459 L311.7188,1174.754 L312.5,1184.59 L313.2813,1200.984 L314.0625,1210.82 L314.8438,1174.754 L315.625,1212.459 L316.4063,1132.131 L317.1875,1192.787 L317.9688,1233.771 L318.75,1207.541 L319.5313,1207.541 L320.3125,1207.541 L321.0938,1202.623 L321.875,1210.82 L322.6563,1251.803 L323.4375,1219.016 L324.2188,1171.475 L325,1222.295 L325.7813,1200.984 L326.5625,1199.344 L327.3438,1168.197 L328.125,1194.426 L328.9063,1171.475 L329.6875,1241.967 L330.4688,1202.623 L331.25,1219.016 L332.0313,1238.688 L332.8125,1200.984 L333.5938,1161.639 L334.375,1200.984 L335.1563,1214.098 L335.9375,1205.902 L336.7188,1169.836 L337.5,1176.393 L338.2813,1202.623 L339.0625,1215.738 L339.8438,1220.656 L340.625,1202.623 L341.4063,1171.475 L342.1875,1161.639 L342.9688,1138.688 L343.75,1189.508 L344.5313,1205.902 L345.3125,1209.18 L346.0938,1189.508 L346.875,1197.705 L347.6563,1171.475 L348.4375,1212.459 L349.2188,1184.59 L350,1212.459 L350.7813,1217.377 L351.5625,1187.869 L352.3438,1171.475 L353.125,1184.59 L353.9063,1168.197 L354.6875,1222.295 L355.4688,1222.295 L356.25,1179.672 L357.0313,1212.459 L357.8125,1191.148 L358.5938,1205.902 L359.375,1228.852 L360.1563,1187.869 L360.9375,1127.213 L361.7188,1132.131 L362.5,1223.934 L363.2813,1200.984 L364.0625,1196.066 L364.8438,1184.59 L365.625,1210.82 L366.4063,1181.312 L367.1875,1214.098 L367.9688,1120.656 L368.75,1199.344 L369.5313,1240.328 L370.3125,1214.098 L371.0938,1192.787 L371.875,1209.18 L372.6563,1220.656 L373.4375,1220.656 L374.2188,1204.262 L375,1191.148 L375.7813,1210.82 L376.5625,1137.049 L377.3438,1222.295 L378.125,1215.738 L378.9063,1210.82 L379.6875,1210.82 L380.4688,1148.525 L381.25,1060 L382.0313,1233.771 L382.8125,1243.607 L383.5938,1205.902 L384.375,1219.016 L385.1563,1117.377 L385.9375,1169.836 L386.7188,1202.623 L387.5,1209.18 L388.2813,1119.016 L389.0625,1202.623 L389.8438,1179.672 L390.625,1178.033 L391.4063,1173.115 L392.1875,1163.279 L392.9688,1169.836 L393.75,1204.262 L394.5313,1199.344 L395.3125,1199.344 L396.0938,1197.705 L396.875,1186.229 L397.6563,1217.377 L398.4375,1215.738 L399.2188,1196.066 L400,1179.672 L400.7813,1197.705 L401.5625,1232.131 L402.3438,1186.229 L403.125,1205.902 L403.9063,1204.262 L404.6875,1163.279 L405.4688,1204.262 L406.25,1217.377 L407.0313,1199.344 L407.8125,1192.787 L408.5938,1194.426 L409.375,1204.262 L410.1563,1145.246 L410.9375,1194.426 L411.7188,1187.869 L412.5,1209.18 L413.2813,1130.492 L414.0625,1205.902 L414.8438,1171.475 L415.625,1169.836 L416.4063,1191.148 L417.1875,1181.312 L417.9688,1178.033 L418.75,1135.41 L419.5313,1132.131 L420.3125,1207.541 L421.0938,1219.016 L421.875,1155.082 L422.6563,1223.934 L423.4375,1222.295 L424.2188,1235.41 L425,1228.852 L425.7813,1209.18 L426.5625,1220.656 L427.3438,1228.852 L428.125,1186.229 L428.9063,1227.213 L429.6875,1233.771 L430.4688,1168.197 L431.25,1217.377 L432.0313,1212.459 L432.8125,1189.508 L433.5938,1212.459 L434.375,1148.525 L435.1563,1210.82 L435.9375,1200.984 L436.7188,1184.59 L437.5,1122.295 L438.2813,1192.787 L439.0625,1161.639 L439.8438,1178.033 L440.625,1191.148 L441.4063,1233.771 L442.1875,1217.377 L442.9688,1217.377 L443.75,1161.639 L444.5313,1153.443 L445.3125,1217.377 L446.0938,1222.295 L446.875,1178.033 " stroke="blue" fill="none" />
<text x="50" y="1310" font-family="Arial" font-size="12" fill="black">Policy Loss</text>
<text x="50" y="1325" font-family="Arial" font-size="10" fill="black">0.02328641</text>
<text x="50" y="1540" font-family="Arial" font-size="10" fill="black">0.001489776</text>
<path d="M50,1353.036 L56.25,1519.066 L62.5,1518.883 L68.75,1514.313 L75,1516.884 L81.25,1517.348 L87.5,1506.763 L93.75,1393.479 L100,1510.881 L106.25,1509.851 L112.5,1512.88 L118.75,1517.209 L125,1510.74 L131.25,1528.177 L137.5,1344.042 L143.75,1505.937 L150,1521.715 L156.25,1513.649 L162.5,1511.98 L168.75,1509.118 L175,1514.021 L181.25,1421.21 L187.5,1517.044 L193.75,1513.522 L200,1517.466 L206.25,1530 L212.5,1520.792 L218.75,1518.477 L225,1330 L231.25,1519.355 L237.5,1519.504 L243.75,1517.228 L250,1512.095 L256.25,1519.212 L262.5,1512.933 L268.75,1388.493 L275,1517.824 L281.25,1509.515 L287.5,1510.418 L293.75,1515.972 L300,1519.434 L306.25,1509.721 L312.5,1420.159 L318.75,1518.38 L325,1513.285 L331.25,1511.298 L337.5,1507.009 L343.75,1505.152 L350,1508.262 L356.25,1428.757 L362.5,1512.472 L368.75,1511.992 L375,1514.945 L381.25,1523.822 L387.5,1520.634 L393.75,1518.313 L400,1382.891 L406.25,1519.995 L412.5,1513.63 L418.75,1507.656 L425,1519.591 L431.25,1514.858 L437.5,1516.518 L443.75,1388.402 L450,1518.918 L456.25,1513.208 L462.5,1519.608 L468.75,1521.859 L475,1527.278 L481.25,1513.274 " stroke="blue" fill="none" />
<text x="50" y="1580" font-family="Arial" font-size="12" fill="black">Value Loss</text>
<text x="50" y="1595" font-family="Arial" font-size="10" fill="black">0.005640047</text>
<text x="50" y="1810" font-family="Arial" font-size="10" fill="black">0.002063332</text>
<path d="M50,1600.001 L56.25,1639.577 L62.5,1653.513 L68.75,1666.626 L75,1677.547 L81.25,1687.063 L87.5,1695.475 L93.75,1659.571 L100,1682.745 L106.25,1698.038 L112.5,1710.096 L118.75,1720.245 L125,1728.093 L131.25,1735.138 L137.5,1668.368 L143.75,1684.597 L150,1699.913 L156.25,1712.117 L162.5,1722.202 L168.75,1730.398 L175,1737.443 L181.25,1739.735 L187.5,1755.479 L193.75,1765.432 L200,1772.931 L206.25,1778.937 L212.5,1784.035 L218.75,1788.683 L225,1603.637 L231.25,1638.675 L237.5,1661.858 L243.75,1678.115 L250,1691.632 L256.25,1701.511 L262.5,1710.829 L268.75,1643.983 L275,1663.362 L281.25,1677.915 L287.5,1690.535 L293.75,1701.651 L300,1710.64 L306.25,1718.884 L312.5,1711.954 L318.75,1743.207 L325,1763.848 L331.25,1775.293 L337.5,1783.361 L343.75,1789.58 L350,1794.664 L356.25,1760.18 L362.5,1771.974 L368.75,1780.396 L375,1786.378 L381.25,1791.498 L387.5,1796.083 L393.75,1800 L400,1665.936 L406.25,1704.479 L412.5,1727.154 L418.75,1741.849 L425,1752.219 L431.25,1760.448 L437.5,1767.672 L443.75,1671.038 L450,1699.689 L456.25,1715.913 L462.5,1728.821 L468.75,1737.948 L475,1745.761 L481.25,1752.14 " stroke="blue" fill="none" />
<text x="50" y="1850" font-family="Arial" font-size="12" fill="black">Learning Rate</text>
<text x="50" y="1865" font-family="Arial" font-size="10" fill="black">0.0001</text>
<text x="50" y="2080" font-family="Arial" font-size="10" fill="black">0.0001</text>
<path d="M50,2070 L56.25,2070 L62.5,2070 L68.75,2070 L75,2070 L81.25,2070 L87.5,2070 L93.75,2070 L100,2070 L106.25,2070 L112.5,2070 L118.75,2070 L125,2070 L131.25,2070 L137.5,2070 L143.75,2070 L150,2070 L156.25,2070 L162.5,2070 L168.75,2070 L175,2070 L181.25,2070 L187.5,2070 L193.75,2070 L200,2070 L206.25,2070 L212.5,2070 L218.75,2070 L225,2070 L231.25,2070 L237.5,2070 L243.75,2070 L250,2070 L256.25,2070 L262.5,2070 L268.75,2070 L275,2070 L281.25,2070 L287.5,2070 L293.75,2070 L300,2070 L306.25,2070 L312.5,2070 L318.75,2070 L325,2070 L331.25,2070 L337.5,2070 L343.75,2070 L350,2070 L356.25,2070 L362.5,2070 L368.75,2070 L375,2070 L381.25,2070 L387.5,2070 L393.75,2070 L400,2070 L406.25,2070 L412.5,2070 L418.75,2070 L425,2070 L431.25,2070 L437.5,2070 L443.75,2070 L450,2070 L456.25,2070 L462.5,2070 L468.75,2070 L475,2070 L481.25,2070 " stroke="blue" fill="none" />
<text x="50" y="2120" font-family="Arial" font-size="12" fill="black">Entropy</text>
<text x="50" y="2135" font-family="Arial" font-size="10" fill="black">0.09741907</text>
<text x="50" y="2350" font-family="Arial" font-size="10" fill="black">0.08805536</text>
<path d="M50,2140 L56.25,2140 L62.5,2140 L68.75,2140 L75,2140 L81.25,2140 L87.5,2140 L93.75,2140 L100,2140 L106.25,2140 L112.5,2140 L118.75,2140 L125,2140 L131.25,2140 L137.5,2140 L143.75,2140 L150,2140 L156.25,2140 L162.5,2140 L168.75,2140 L175,2140 L181.25,2140 L187.5,2140 L193.75,2140 L200,2140 L206.25,2140 L212.5,2140 L218.75,2140 L225,2140 L231.25,2140 L237.5,2140 L243.75,2140 L250,2140 L256.25,2140 L262.5,2140 L268.75,2140 L275,2140 L281.25,2140 L287.5,2140 L293.75,2140 L300,2140 L306.25,2140 L312.5,2140 L318.75,2140 L325,2140 L331.25,2140 L337.5,2140 L343.75,2140 L350,2140 L356.25,2140 L362.5,2140 L368.75,2140 L375,2140 L381.25,2140 L387.5,2140 L393.75,2140 L400,2340 L406.25,2340 L412.5,2340 L418.75,2340 L425,2340 L431.25,2340 L437.5,2340 L443.75,2140 L450,2140 L456.25,2140 L462.5,2140 L468.75,2140 L475,2140 L481.25,2140 " stroke="blue" fill="none" />
<text x="750" y="770" font-family="Arial" font-size="12" fill="black">Simplified</text>
<text x="750" y="785" font-family="Arial" font-size="10" fill="black">3.778864</text>
<text x="750" y="1000" font-family="Arial" font-size="10" fill="black">2.483404</text>
<path d="M764.0625,929.695 L778.9063,790 L793.75,918.5784 L808.5938,922.7237 L823.4375,812.6475 L838.2813,942.2886 L853.125,846.8104 L867.9688,973.7882 L882.8125,872.5208 L897.6563,884.8159 L912.5,881.4554 L927.3438,969.9312 L942.1875,855.2874 L957.0313,929.5522 L971.875,941.0267 L986.7188,937.2335 L1001.563,919.1117 L1016.406,949.2823 L1031.25,989.6713 L1046.094,907.9105 L1060.938,913.2259 L1075.781,933.7026 L1090.625,813.3975 L1105.469,915.6763 L1120.313,832.3492 L1135.156,990 L1146.875,878.9717 " stroke="blue" fill="none" />
<text x="750" y="1040" font-family="Arial" font-size="12" fill="black">Simplified</text>
<text x="750" y="1055" font-family="Arial" font-size="10" fill="black">91.57895</text>
<text x="750" y="1270" font-family="Arial" font-size="10" fill="black">72.78947</text>
<path d="M764.0625,1193.894 L778.9063,1060 L793.75,1173.165 L808.5938,1178.207 L823.4375,1075.686 L838.2813,1212.381 L853.125,1113.221 L867.9688,1242.073 L882.8125,1135.63 L897.6563,1138.992 L912.5,1150.196 L927.3438,1246.555 L942.1875,1128.347 L957.0313,1195.574 L971.875,1214.062 L986.7188,1207.899 L1001.563,1169.244 L1016.406,1225.826 L1031.25,1251.597 L1046.094,1166.443 L1060.938,1169.804 L1075.781,1197.815 L1090.625,1101.457 L1105.469,1173.165 L1120.313,1088.571 L1135.156,1260 L1146.875,1136.415 " stroke="blue" fill="none" />
</svg>
