<svg width="2000" height="2500" xmlns="http://www.w3.org/2000/svg">
<text x="10" y="20" font-family="Arial" font-size="26" fill="black"> [HumanWalk] Training Session</text>
<text x="10" y="50" font-family="Arial" font-size="16" fill="black">[Statistics]</text>
<text x="50" y="70" font-family="Arial" font-size="12" fill="black">Started at: 11:08:11 PM, Thursday, November 23, 2023</text>
<text x="50" y="90" font-family="Arial" font-size="12" fill="black">Finished at: 11:08:58 PM, Thursday, November 23, 2023</text>
<text x="50" y="110" font-family="Arial" font-size="12" fill="black">Training Session Time: 0 hrs : 0 min : 46 sec</text>
<text x="50" y="130" font-family="Arial" font-size="12" fill="black">Inference Time: 0 hrs : 1 min : 31 sec       [Per agent: 0 hrs : 1 min : 31 sec]        [Device: CPU]</text>
<text x="50" y="150" font-family="Arial" font-size="12" fill="black">Policy Update Time: 0 hrs : 0 min : 14 sec        [Per iteration: 0 hrs : 0 min : 6 sec]        [Device: GPU]</text>
<text x="50" y="170" font-family="Arial" font-size="12" fill="black">Inference Time / Training Session Time: 1.867</text>
<text x="50" y="190" font-family="Arial" font-size="12" fill="black">Policy Update Time / Training Session Time: 0.301</text>
<text x="50" y="210" font-family="Arial" font-size="12" fill="black">Episode Count: 69</text>
<text x="50" y="230" font-family="Arial" font-size="12" fill="black">Inference Steps: 4535    [Per agent: 4535]     [Per Episode (mean): 65]</text>
<text x="50" y="250" font-family="Arial" font-size="12" fill="black">Iterations: 2</text>
<text x="50" y="270" font-family="Arial" font-size="12" fill="black">Parallel Agents: 1</text>
<text x="50" y="290" font-family="Arial" font-size="12" fill="black">Timescale: 2.558856</text>
<text x="50" y="310" font-family="Arial" font-size="12" fill="black">Trainer: PPO</text>
<text x="10" y="360" font-family="Arial" font-size="16" fill="black">[Hyperparameters]</text>
<text x="50" y="380" font-family="Arial" font-size="12" fill="black">Buffer Size: 2048        [Batch Size: 128       (x16)]</text>
<text x="50" y="400" font-family="Arial" font-size="12" fill="black">Num Epoch: 8</text>
<text x="50" y="420" font-family="Arial" font-size="12" fill="black">Time Horizon: 64</text>
<text x="50" y="440" font-family="Arial" font-size="12" fill="black">Gradient Cliping Normalization: 0.5</text>
<text x="50" y="460" font-family="Arial" font-size="12" fill="black">Learning Rate Schedule: False    </text>
<text x="10" y="510" font-family="Arial" font-size="16" fill="black">[Behaviour]</text>
<text x="50" y="530" font-family="Arial" font-size="12" fill="black">Space Size: 189</text>
<text x="50" y="550" font-family="Arial" font-size="12" fill="black">Continuous Actions: 40 [Standard Deviation: Fixed]     [Value: 1.62]</text>
<text x="50" y="570" font-family="Arial" font-size="12" fill="black">Discrete Actions: 0</text>
<text x="50" y="590" font-family="Arial" font-size="12" fill="black">TargetFPS: 100 (physics update rate)</text>
<text x="50" y="610" font-family="Arial" font-size="12" fill="black">Observations Normalization: True</text>
<text x="10" y="660" font-family="Arial" font-size="16" fill="black">[Decision Requester]</text>
<text x="50" y="680" font-family="Arial" font-size="12" fill="black">Max Step: 5000</text>
<text x="50" y="700" font-family="Arial" font-size="12" fill="black">Decision Period: 2      [Actions Between Decisions: True]</text>
<text x="10" y="750" font-family="Arial" font-size="16" fill="black">[Graphs]</text>
<text x="50" y="770" font-family="Arial" font-size="12" fill="black">Episode Reward (69)</text>
<text x="50" y="785" font-family="Arial" font-size="10" fill="black">6.8209</text>
<text x="50" y="1000" font-family="Arial" font-size="10" fill="black">1.022828</text>
<path d="M50,973.499 L56.25,956.3038 L62.5,955.0587 L68.75,948.9734 L75,926.2566 L81.25,977.0518 L87.5,963.5198 L93.75,956.2704 L100,964.9253 L106.25,933.9777 L112.5,957.6335 L118.75,913.4152 L125,966.0546 L131.25,941.9901 L137.5,981.5157 L143.75,982.8477 L150,951.6456 L156.25,938.5992 L162.5,967.1741 L168.75,952.4782 L175,925.9584 L181.25,979.4003 L187.5,973.0918 L193.75,989.8054 L200,971.3859 L206.25,931.8378 L212.5,920.8864 L218.75,938.6082 L225,951.7214 L231.25,981.8999 L237.5,972.0543 L243.75,977.5031 L250,914.7653 L256.25,936.2736 L262.5,938.2033 L268.75,963.631 L275,988.0297 L281.25,950.0192 L287.5,934.8314 L293.75,969.6876 L300,957.3439 L306.25,980.6439 L312.5,949.9016 L318.75,934.1215 L325,978.1513 L331.25,951.8369 L337.5,930.0344 L343.75,927.4166 L350,931.2208 L356.25,969.1705 L362.5,990 L368.75,985.0381 L375,967.9459 L381.25,935.3773 L387.5,968.8786 L393.75,946.222 L400,978.1008 L406.25,981.2974 L412.5,946.1972 L418.75,915.8995 L425,962.4165 L431.25,980.1694 L437.5,967.6599 L443.75,965.2006 L450,965.0613 L456.25,790 L462.5,976.4752 L468.75,934.3612 L475,952.5306 " stroke="blue" fill="none" />
<text x="50" y="1040" font-family="Arial" font-size="12" fill="black">Episode Length (69)</text>
<text x="50" y="1055" font-family="Arial" font-size="10" fill="black">127</text>
<text x="50" y="1270" font-family="Arial" font-size="10" fill="black">43</text>
<path d="M50,1233.81 L56.25,1207.619 L62.5,1202.857 L68.75,1200.476 L75,1174.286 L81.25,1236.19 L87.5,1217.143 L93.75,1202.857 L100,1217.143 L106.25,1186.19 L112.5,1210 L118.75,1160 L125,1214.762 L131.25,1183.81 L137.5,1248.095 L143.75,1243.333 L150,1202.857 L156.25,1183.81 L162.5,1221.905 L168.75,1205.238 L175,1167.143 L181.25,1238.571 L187.5,1236.19 L193.75,1260 L200,1226.667 L206.25,1183.81 L212.5,1167.143 L218.75,1188.571 L225,1205.238 L231.25,1245.714 L237.5,1231.429 L243.75,1236.19 L250,1155.238 L256.25,1176.667 L262.5,1176.667 L268.75,1221.905 L275,1252.857 L281.25,1200.476 L287.5,1174.286 L293.75,1224.286 L300,1205.238 L306.25,1240.952 L312.5,1193.333 L318.75,1179.048 L325,1238.571 L331.25,1200.476 L337.5,1181.429 L343.75,1171.905 L350,1179.048 L356.25,1224.286 L362.5,1257.619 L368.75,1248.095 L375,1219.524 L381.25,1181.429 L387.5,1219.524 L393.75,1195.714 L400,1233.81 L406.25,1245.714 L412.5,1195.714 L418.75,1155.238 L425,1214.762 L431.25,1240.952 L437.5,1226.667 L443.75,1217.143 L450,1224.286 L456.25,1060 L462.5,1233.81 L468.75,1171.905 L475,1200.476 " stroke="blue" fill="none" />
<text x="50" y="1310" font-family="Arial" font-size="12" fill="black">Policy Loss</text>
<text x="50" y="1325" font-family="Arial" font-size="10" fill="black">0.04857737</text>
<text x="50" y="1540" font-family="Arial" font-size="10" fill="black">0.005603018</text>
<path d="M50,1381.567 L75,1519.675 L100,1519.148 L125,1516.277 L150,1523.404 L175,1523.604 L200,1530 L225,1526.378 L250,1330 L275,1519.219 L300,1520.035 L325,1509.132 L350,1525.584 L375,1508.778 L400,1516.607 L425,1494.219 " stroke="blue" fill="none" />
<text x="50" y="1580" font-family="Arial" font-size="12" fill="black">Value Loss</text>
<text x="50" y="1595" font-family="Arial" font-size="10" fill="black">0.003035084</text>
<text x="50" y="1810" font-family="Arial" font-size="10" fill="black">0.001837995</text>
<path d="M50,1600.002 L75,1641.413 L100,1668.998 L125,1693.851 L150,1716.468 L175,1736.844 L200,1755.385 L225,1771.541 L250,1623.535 L275,1674.35 L300,1706.748 L325,1731.549 L350,1753.368 L375,1770.471 L400,1786.086 L425,1800 " stroke="blue" fill="none" />
<text x="50" y="1850" font-family="Arial" font-size="12" fill="black">Learning Rate</text>
<text x="50" y="1865" font-family="Arial" font-size="10" fill="black">0.0001</text>
<text x="50" y="2080" font-family="Arial" font-size="10" fill="black">0.0001</text>
<path d="M50,2070 L75,2070 L100,2070 L125,2070 L150,2070 L175,2070 L200,2070 L225,2070 L250,2070 L275,2070 L300,2070 L325,2070 L350,2070 L375,2070 L400,2070 L425,2070 " stroke="blue" fill="none" />
<text x="50" y="2120" font-family="Arial" font-size="12" fill="black">Entropy</text>
<text x="50" y="2135" font-family="Arial" font-size="10" fill="black">0.2376709</text>
<text x="50" y="2350" font-family="Arial" font-size="10" fill="black">0.2376709</text>
<path d="M50,2340 L75,2340 L100,2340 L125,2340 L150,2340 L175,2340 L200,2340 L225,2340 L250,2340 L275,2340 L300,2340 L325,2340 L350,2340 L375,2340 L400,2340 L425,2340 " stroke="blue" fill="none" />
<text x="750" y="770" font-family="Arial" font-size="12" fill="black">Simplified</text>
<text x="750" y="785" font-family="Arial" font-size="10" fill="black">2.333993</text>
<text x="750" y="1000" font-family="Arial" font-size="10" fill="black">1.97505</text>
<path d="M862.5,965.1661 L981.25,965.881 L1100,990 L1175,790 " stroke="blue" fill="none" />
<text x="750" y="1040" font-family="Arial" font-size="12" fill="black">Simplified</text>
<text x="750" y="1055" font-family="Arial" font-size="10" fill="black">68.66666</text>
<text x="750" y="1270" font-family="Arial" font-size="10" fill="black">64.31579</text>
<path d="M862.5,1230.968 L981.25,1260 L1100,1252.742 L1175,1060 " stroke="blue" fill="none" />
</svg>
