<svg width="2000" height="2500" xmlns="http://www.w3.org/2000/svg">
<text x="10" y="20" font-family="Arial" font-size="26" fill="black"> [HumanWalk] Training Session</text>
<text x="10" y="50" font-family="Arial" font-size="16" fill="black">[Statistics]</text>
<text x="50" y="70" font-family="Arial" font-size="12" fill="black">Started at: 4:27:42 PM, Monday, December 11, 2023</text>
<text x="50" y="90" font-family="Arial" font-size="12" fill="black">Finished at: 4:41:34 PM, Monday, December 11, 2023</text>
<text x="50" y="110" font-family="Arial" font-size="12" fill="black">Training Session Time: 0 hrs : 13 min : 45 sec</text>
<text x="50" y="130" font-family="Arial" font-size="12" fill="black">Inference Time: 0 hrs : 25 min : 0 sec       [Per agent: 0 hrs : 25 min : 0 sec]        [Device: CPU]</text>
<text x="50" y="150" font-family="Arial" font-size="12" fill="black">Policy Update Time: 0 hrs : 8 min : 19 sec        [Per iteration: 0 hrs : 0 min : 7 sec]        [Device: GPU]</text>
<text x="50" y="170" font-family="Arial" font-size="12" fill="black">Inference Time / Training Session Time: 1.813</text>
<text x="50" y="190" font-family="Arial" font-size="12" fill="black">Policy Update Time / Training Session Time: 0.604</text>
<text x="50" y="210" font-family="Arial" font-size="12" fill="black">Episode Count: 899</text>
<text x="50" y="230" font-family="Arial" font-size="12" fill="black">Inference Steps: 149788    [Per agent: 149788]     [Per Episode (mean): 166]</text>
<text x="50" y="250" font-family="Arial" font-size="12" fill="black">Iterations: 73</text>
<text x="50" y="270" font-family="Arial" font-size="12" fill="black">Parallel Agents: 1</text>
<text x="50" y="290" font-family="Arial" font-size="12" fill="black">Timescale: 2.849757</text>
<text x="50" y="310" font-family="Arial" font-size="12" fill="black">Trainer: PPO</text>
<text x="10" y="360" font-family="Arial" font-size="16" fill="black">[Hyperparameters]</text>
<text x="50" y="380" font-family="Arial" font-size="12" fill="black">Buffer Size: 2048        [Batch Size: 128       (x16)]</text>
<text x="50" y="400" font-family="Arial" font-size="12" fill="black">Num Epoch: 8</text>
<text x="50" y="420" font-family="Arial" font-size="12" fill="black">Time Horizon: 64</text>
<text x="50" y="440" font-family="Arial" font-size="12" fill="black">Gradient Cliping Normalization: 0.5</text>
<text x="50" y="460" font-family="Arial" font-size="12" fill="black">Learning Rate Schedule: False    </text>
<text x="10" y="510" font-family="Arial" font-size="16" fill="black">[Behaviour]</text>
<text x="50" y="530" font-family="Arial" font-size="12" fill="black">Space Size: 189</text>
<text x="50" y="550" font-family="Arial" font-size="12" fill="black">Continuous Actions: 40 [Standard Deviation: Fixed]     [Value: 0.6]</text>
<text x="50" y="570" font-family="Arial" font-size="12" fill="black">Discrete Actions: 0</text>
<text x="50" y="590" font-family="Arial" font-size="12" fill="black">TargetFPS: 100 (physics update rate)</text>
<text x="50" y="610" font-family="Arial" font-size="12" fill="black">Observations Normalization: True</text>
<text x="10" y="660" font-family="Arial" font-size="16" fill="black">[Decision Requester]</text>
<text x="50" y="680" font-family="Arial" font-size="12" fill="black">Max Step: 0</text>
<text x="50" y="700" font-family="Arial" font-size="12" fill="black">Decision Period: 1</text>
<text x="10" y="750" font-family="Arial" font-size="16" fill="black">[Graphs]</text>
<text x="50" y="770" font-family="Arial" font-size="12" fill="black">Episode Reward (899)</text>
<text x="50" y="785" font-family="Arial" font-size="10" fill="black">10.45265</text>
<text x="50" y="1000" font-family="Arial" font-size="10" fill="black">0.7070448</text>
<path d="M50,972.9519 L50.39063,937.7817 L50.78125,975.1199 L51.17188,959.5226 L51.5625,965.3458 L51.95313,938.5583 L52.34375,904.5652 L52.73438,986.5367 L53.125,976.3002 L53.51563,964.0212 L53.90625,958.7391 L54.29688,947.4003 L54.6875,925.287 L55.07813,975.4321 L55.46875,976.3469 L55.85938,984.91 L56.25,891.9775 L56.64063,930.4062 L57.03125,973.2905 L57.42188,963.4072 L57.8125,930.8365 L58.20313,958.9839 L58.59375,926.4892 L58.98438,910.8862 L59.375,959.3644 L59.76563,970.3918 L60.15625,975.3148 L60.54688,905.4515 L60.9375,943.9822 L61.32813,965.5616 L61.71875,941.3381 L62.10938,954.5231 L62.5,965.0952 L62.89063,962.097 L63.28125,942.9392 L63.67188,962.4415 L64.0625,974.2874 L64.45313,944.5771 L64.84375,972.0829 L65.23438,985.176 L65.625,969.3844 L66.01563,963.3453 L66.40625,936.7287 L66.79688,981.041 L67.1875,970.791 L67.57813,921.923 L67.96875,978.5339 L68.35938,885.6599 L68.75,911.1331 L69.14063,955.296 L69.53125,981.8267 L69.92188,973.1957 L70.3125,931.6318 L70.70313,977.5513 L71.09375,980.4361 L71.48438,956.4617 L71.875,967.9781 L72.26563,969.9766 L72.65625,986.9601 L73.04688,983.8762 L73.4375,956.954 L73.82813,962.1879 L74.21875,973.9456 L74.60938,947.0063 L75,975.0282 L75.39063,935.7755 L75.78125,967.8615 L76.17188,974.2751 L76.5625,919.9626 L76.95313,972.6382 L77.34375,961.283 L77.73438,977.1057 L78.125,979.963 L78.51563,898.2358 L78.90625,973.9611 L79.29688,979.4524 L79.6875,939.3063 L80.07813,959.3423 L80.46875,981.4472 L80.85938,924.8447 L81.25,965.3698 L81.64063,975.2862 L82.03125,970.9727 L82.42188,950.1639 L82.8125,969.8585 L83.20313,970.5602 L83.59375,954.7665 L83.98438,831.3228 L84.375,850.5142 L84.76563,970.242 L85.15625,969.0134 L85.54688,937.0678 L85.9375,904.6274 L86.32813,984.3976 L86.71875,953.3644 L87.10938,968.1614 L87.5,945.4808 L87.89063,986.6073 L88.28125,977.0754 L88.67188,910.3433 L89.0625,972.8018 L89.45313,977.7682 L89.84375,966.0253 L90.23438,959.1924 L90.625,959.6853 L91.01563,947.8195 L91.40625,953.1589 L91.79688,935.4843 L92.1875,958.928 L92.57813,971.1999 L92.96875,975.7273 L93.35938,981.2268 L93.75,969.735 L94.14063,963.1552 L94.53125,926.4278 L94.92188,968.3804 L95.3125,983.7094 L95.70313,981.2971 L96.09375,985.7639 L96.48438,966.6447 L96.875,908.8627 L97.26563,919.2563 L97.65625,987.2237 L98.04688,981.0194 L98.4375,952.2604 L98.82813,969.565 L99.21875,980.3112 L99.60938,958.8193 L100,967.1069 L100.3906,962.3831 L100.7813,931.6631 L101.1719,965.5547 L101.5625,958.6498 L101.9531,922.0775 L102.3438,959.4724 L102.7344,981.3244 L103.125,974.7433 L103.5156,958.5436 L103.9063,973.7603 L104.2969,975.8408 L104.6875,969.658 L105.0781,917.3552 L105.4688,979.9007 L105.8594,975.1651 L106.25,976.9963 L106.6406,965.3834 L107.0313,979.5839 L107.4219,965.6277 L107.8125,928.7133 L108.2031,978.0336 L108.5938,960.7234 L108.9844,965.016 L109.375,985.2936 L109.7656,965.8089 L110.1563,963.9804 L110.5469,973.937 L110.9375,977.2196 L111.3281,965.6014 L111.7188,967.3906 L112.1094,972.311 L112.5,975.6579 L112.8906,973.9061 L113.2813,969.8276 L113.6719,970.196 L114.0625,974.3267 L114.4531,968.0834 L114.8438,970.4818 L115.2344,978.8385 L115.625,976.6741 L116.0156,969.6321 L116.4063,947.0661 L116.7969,968.9892 L117.1875,925.693 L117.5781,971.264 L117.9688,971.4335 L118.3594,965.8892 L118.75,919.8331 L119.1406,932.2891 L119.5313,967.7117 L119.9219,951.6356 L120.3125,929.254 L120.7031,975.8866 L121.0938,966.2126 L121.4844,963.6429 L121.875,940.8553 L122.2656,972.071 L122.6563,982.2131 L123.0469,974.7911 L123.4375,975.4531 L123.8281,966.0796 L124.2188,962.4439 L124.6094,972.1941 L125,968.3205 L125.3906,964.5831 L125.7813,921.5308 L126.1719,952.1042 L126.5625,984.0775 L126.9531,941.1503 L127.3438,965.4343 L127.7344,950.6302 L128.125,961.5722 L128.5156,986.0292 L128.9063,969.1107 L129.2969,961.0184 L129.6875,965.1799 L130.0781,973.5282 L130.4688,988.2086 L130.8594,936.2004 L131.25,947.3256 L131.6406,952.4052 L132.0313,948.2598 L132.4219,953.8972 L132.8125,986.1382 L133.2031,966.3268 L133.5938,978.7789 L133.9844,961.5612 L134.375,972.0331 L134.7656,915.2844 L135.1563,963.8505 L135.5469,945.2399 L135.9375,982.3128 L136.3281,973.2095 L136.7188,978.3281 L137.1094,971.1828 L137.5,915.4417 L137.8906,981.447 L138.2813,960.83 L138.6719,969.9512 L139.0625,973.8058 L139.4531,947.8538 L139.8438,955.6072 L140.2344,982.7266 L140.625,953.2099 L141.0156,968.8596 L141.4063,974.8663 L141.7969,961.7904 L142.1875,934.4027 L142.5781,970.1211 L142.9688,931.4333 L143.3594,965.1799 L143.75,897.1768 L144.1406,947.6085 L144.5313,952.3378 L144.9219,965.9008 L145.3125,974.4526 L145.7031,965.6455 L146.0938,980.2979 L146.4844,977.4847 L146.875,973.7639 L147.2656,949.8547 L147.6563,982.3234 L148.0469,975.1351 L148.4375,951.0781 L148.8281,975.4946 L149.2188,973.4462 L149.6094,966.5803 L150,977.0927 L150.3906,974.4982 L150.7813,966.248 L151.1719,950.9844 L151.5625,957.2876 L151.9531,947.4692 L152.3438,974.3733 L152.7344,941.8651 L153.125,926.1671 L153.5156,961.1718 L153.9063,964.6362 L154.2969,970.5161 L154.6875,966.5556 L155.0781,970.7324 L155.4688,973.1429 L155.8594,976.1223 L156.25,946.7526 L156.6406,973.6279 L157.0313,984.2401 L157.4219,971.8083 L157.8125,935.6732 L158.2031,967.9326 L158.5938,979.8467 L158.9844,932.0804 L159.375,849.6615 L159.7656,975.8453 L160.1563,977.0049 L160.5469,974.5777 L160.9375,983.0296 L161.3281,959.1632 L161.7188,969.9996 L162.1094,943.2687 L162.5,972.842 L162.8906,928.5457 L163.2813,961.0543 L163.6719,963.8602 L164.0625,957.3907 L164.4531,977.6649 L164.8438,980.9073 L165.2344,959.9573 L165.625,960.0763 L166.0156,963.1746 L166.4063,935.562 L166.7969,934.9011 L167.1875,945.0855 L167.5781,964.6975 L167.9688,951.572 L168.3594,960.2285 L168.75,954.3093 L169.1406,980.5217 L169.5313,982.2415 L169.9219,966.2337 L170.3125,961.6894 L170.7031,963.8417 L171.0938,960.4879 L171.4844,957.8412 L171.875,963.6116 L172.2656,946.7625 L172.6563,967.437 L173.0469,962.5791 L173.4375,961.6264 L173.8281,880.1603 L174.2188,975.5983 L174.6094,959.2289 L175,972.2341 L175.3906,955.8496 L175.7813,959.8581 L176.1719,919.4703 L176.5625,964.4111 L176.9531,957.79 L177.3438,910.4642 L177.7344,938.9634 L178.125,972.8898 L178.5156,964.7819 L178.9063,971.0226 L179.2969,941.1756 L179.6875,934.7286 L180.0781,938.7428 L180.4688,967.0732 L180.8594,966.6353 L181.25,960.3012 L181.6406,951.9895 L182.0313,918.1072 L182.4219,965.278 L182.8125,947.8073 L183.2031,950.1468 L183.5938,966.696 L183.9844,950.3929 L184.375,923.9617 L184.7656,963.5895 L185.1563,940.1644 L185.5469,971.3842 L185.9375,962.0751 L186.3281,976.0663 L186.7188,946.9526 L187.1094,951.7238 L187.5,975.6437 L187.8906,969.2545 L188.2813,972.5713 L188.6719,929.7542 L189.0625,966.1877 L189.4531,961.3274 L189.8438,940.2192 L190.2344,969.2635 L190.625,970.0406 L191.0156,952.8459 L191.4063,984.3027 L191.7969,927.369 L192.1875,901.8531 L192.5781,950.1865 L192.9688,902.4484 L193.3594,957.7328 L193.75,972.7931 L194.1406,980.9239 L194.5313,975.46 L194.9219,926.2402 L195.3125,965.5272 L195.7031,960.3796 L196.0938,984.5523 L196.4844,955.1302 L196.875,833.4722 L197.2656,988.7606 L197.6563,948.3503 L198.0469,943.7966 L198.4375,982.4752 L198.8281,960.9051 L199.2188,973.3541 L199.6094,970.4326 L200,966.9143 L200.3906,979.4545 L200.7813,960.7954 L201.1719,973.6815 L201.5625,980.1297 L201.9531,959.4231 L202.3438,905.1808 L202.7344,980.1923 L203.125,921.6277 L203.5156,974.6768 L203.9063,980.5317 L204.2969,969.7808 L204.6875,956.7578 L205.0781,982.355 L205.4688,960.5629 L205.8594,941.7682 L206.25,964.7359 L206.6406,965.3757 L207.0313,972.4307 L207.4219,944.6732 L207.8125,929.0587 L208.2031,934.2974 L208.5938,957.2141 L208.9844,926.2849 L209.375,968.2465 L209.7656,967.4342 L210.1563,944.8998 L210.5469,954.7769 L210.9375,969.1042 L211.3281,957.1618 L211.7188,947.8742 L212.1094,970.7864 L212.5,959.0562 L212.8906,959.5278 L213.2813,956.8107 L213.6719,947.6974 L214.0625,968.5437 L214.4531,888.2021 L214.8438,965.3641 L215.2344,942.821 L215.625,962.6022 L216.0156,973.4435 L216.4063,975.3141 L216.7969,955.0255 L217.1875,970.4573 L217.5781,981.7458 L217.9688,944.7528 L218.3594,941.4924 L218.75,951.7073 L219.1406,984.7692 L219.5313,949.4471 L219.9219,976.3376 L220.3125,959.1941 L220.7031,963.1884 L221.0938,968.6479 L221.4844,981.0204 L221.875,962.9529 L222.2656,961.2334 L222.6563,959.2856 L223.0469,976.4054 L223.4375,910.882 L223.8281,961.9023 L224.2188,955.66 L224.6094,967.0199 L225,954.0755 L225.3906,928.7645 L225.7813,978.6578 L226.1719,965.1514 L226.5625,954.8914 L226.9531,965.6517 L227.3438,974.8014 L227.7344,942.5386 L228.125,952.9603 L228.5156,975.1096 L228.9063,913.8001 L229.2969,972.7819 L229.6875,978.9227 L230.0781,958.4218 L230.4688,923.4088 L230.8594,980.5558 L231.25,921.0178 L231.6406,970.2936 L232.0313,822.8196 L232.4219,951.0172 L232.8125,963.7649 L233.2031,934.028 L233.5938,946.3173 L233.9844,962.9993 L234.375,922.3314 L234.7656,969.5532 L235.1563,910.2937 L235.5469,959.1268 L235.9375,933.0184 L236.3281,916.3032 L236.7188,976.988 L237.1094,963.8469 L237.5,955.6765 L237.8906,976.6809 L238.2813,972.9197 L238.6719,915.7738 L239.0625,978.3019 L239.4531,980.145 L239.8438,958.53 L240.2344,969.1794 L240.625,826.0308 L241.0156,918.7822 L241.4063,970.5046 L241.7969,962.3813 L242.1875,974.739 L242.5781,973.8873 L242.9688,934.0313 L243.3594,971.3751 L243.75,957.5813 L244.1406,939.2725 L244.5313,948.8038 L244.9219,971.6971 L245.3125,960.8918 L245.7031,940.351 L246.0938,970.7774 L246.4844,949.818 L246.875,954.9877 L247.2656,956.6668 L247.6563,922.3557 L248.0469,924.184 L248.4375,950.6053 L248.8281,982.9223 L249.2188,964.2778 L249.6094,958.6136 L250,984.0148 L250.3906,966.4357 L250.7813,950.2448 L251.1719,960.5504 L251.5625,933.942 L251.9531,974.9485 L252.3438,975.5502 L252.7344,959.4723 L253.125,911.3245 L253.5156,980.1504 L253.9063,973.314 L254.2969,970.9004 L254.6875,940.7043 L255.0781,976.4974 L255.4688,967.6128 L255.8594,948.9139 L256.25,976.9349 L256.6406,955.5989 L257.0313,977.6989 L257.4219,914.1885 L257.8125,960.2213 L258.2031,979.9367 L258.5938,962.3257 L258.9844,944.3533 L259.375,924.5192 L259.7656,933.2816 L260.1563,978.3575 L260.5469,979.934 L260.9375,941.6832 L261.3281,902.6706 L261.7188,953.2204 L262.1094,985.0052 L262.5,978.8311 L262.8906,966.7726 L263.2813,915.6332 L263.6719,968.4042 L264.0625,922.152 L264.4531,972.1364 L264.8438,969.8558 L265.2344,894.7288 L265.625,960.2192 L266.0156,953.5983 L266.4063,981.0246 L266.7969,937.006 L267.1875,958.7489 L267.5781,979.1943 L267.9688,956.0301 L268.3594,966.1573 L268.75,962.7396 L269.1406,973.3396 L269.5313,980.5054 L269.9219,971.6386 L270.3125,965.4366 L270.7031,956.6609 L271.0938,969.8798 L271.4844,953.24 L271.875,981.9659 L272.2656,959.0219 L272.6563,942.8856 L273.0469,950.4404 L273.4375,938.2858 L273.8281,977.7075 L274.2188,963.5697 L274.6094,967.2984 L275,979.9974 L275.3906,960.598 L275.7813,953.7097 L276.1719,954.1275 L276.5625,981.2583 L276.9531,930.9099 L277.3438,954.8668 L277.7344,842.2418 L278.125,976.8752 L278.5156,959.6812 L278.9063,935.5191 L279.2969,979.8401 L279.6875,967.0184 L280.0781,983.822 L280.4688,970.9171 L280.8594,948.4651 L281.25,956.8585 L281.6406,958.0284 L282.0313,927.08 L282.4219,948.2195 L282.8125,954.3987 L283.2031,965.4502 L283.5938,969.6197 L283.9844,959.3735 L284.375,963.2747 L284.7656,948.2053 L285.1563,975.3505 L285.5469,959.1282 L285.9375,950.3155 L286.3281,905.9722 L286.7188,876.6882 L287.1094,920.6461 L287.5,966.6461 L287.8906,967.6474 L288.2813,945.8803 L288.6719,959.7424 L289.0625,947.7208 L289.4531,954.3604 L289.8438,980.868 L290.2344,937.4213 L290.625,922.2662 L291.0156,977.1772 L291.4063,963.688 L291.7969,975.407 L292.1875,977.0612 L292.5781,963.9584 L292.9688,972.9094 L293.3594,986.7753 L293.75,972.0103 L294.1406,974.5218 L294.5313,952.54 L294.9219,962.3548 L295.3125,967.8745 L295.7031,970.1541 L296.0938,977.9618 L296.4844,976.8401 L296.875,957.842 L297.2656,953.2328 L297.6563,975.3294 L298.0469,977.3913 L298.4375,954.5504 L298.8281,986.6732 L299.2188,966.7635 L299.6094,971.7236 L300,975.0081 L300.3906,949.3118 L300.7813,974.4896 L301.1719,969.0897 L301.5625,954.8207 L301.9531,973.8984 L302.3438,963.6692 L302.7344,958.7241 L303.125,982.4805 L303.5156,974.9106 L303.9063,958.2596 L304.2969,975.0367 L304.6875,964.562 L305.0781,953.9111 L305.4688,970.1837 L305.8594,980.5806 L306.25,987.2663 L306.6407,947.0748 L307.0313,967.481 L307.4219,954.734 L307.8125,970.2024 L308.2031,978.3541 L308.5938,928.5969 L308.9844,962.9559 L309.375,979.3578 L309.7656,944.4871 L310.1563,959.1744 L310.5469,931.4727 L310.9375,966.9738 L311.3281,963.4404 L311.7188,945.6636 L312.1094,966.3608 L312.5,929.5131 L312.8906,965.8337 L313.2813,970.4572 L313.6719,881.8318 L314.0625,830.2015 L314.4532,970.7777 L314.8438,970.9468 L315.2344,942.6934 L315.625,981.2481 L316.0156,981.821 L316.4063,887.5297 L316.7969,981.3658 L317.1875,963.554 L317.5781,950.1075 L317.9688,962.8737 L318.3594,968.6138 L318.75,938.9553 L319.1406,968.324 L319.5313,970.7286 L319.9219,937.9191 L320.3125,915.5737 L320.7031,989.0851 L321.0938,967.4837 L321.4844,976.862 L321.875,952.0382 L322.2657,950.2692 L322.6563,918.7624 L323.0469,927.4677 L323.4375,962.3986 L323.8281,951.4319 L324.2188,946.9808 L324.6094,944.3259 L325,952.3985 L325.3906,984.0388 L325.7813,940.2846 L326.1719,952.9877 L326.5625,981.8239 L326.9531,977.365 L327.3438,941.997 L327.7344,968.7172 L328.125,956.0077 L328.5156,979.5634 L328.9063,948.1678 L329.2969,902.6691 L329.6875,935.1772 L330.0782,960.7479 L330.4688,960.9603 L330.8594,974.7444 L331.25,948.7258 L331.6406,969.9558 L332.0313,977.5137 L332.4219,943.7717 L332.8125,984.6301 L333.2031,941.3195 L333.5938,951.2105 L333.9844,980.8719 L334.375,901.0906 L334.7656,982.4064 L335.1563,953.5021 L335.5469,973.2081 L335.9375,961.0535 L336.3281,965.1812 L336.7188,974.9976 L337.1094,953.9518 L337.5,790 L337.8907,973.6417 L338.2813,964.1642 L338.6719,990 L339.0625,820.9229 L339.4531,952.2592 L339.8438,976.5071 L340.2344,967.7921 L340.625,960.9927 L341.0156,936.0674 L341.4063,951.1275 L341.7969,986.5046 L342.1875,977.6403 L342.5781,984.0413 L342.9688,976.7681 L343.3594,982.0236 L343.75,923.2272 L344.1406,958.6454 L344.5313,972.1369 L344.9219,973.5991 L345.3125,982.8091 L345.7032,931.2812 L346.0938,936.2874 L346.4844,962.3499 L346.875,973.4082 L347.2656,959.7419 L347.6563,942.2982 L348.0469,981.0458 L348.4375,957.655 L348.8281,979.9667 L349.2188,975.2039 L349.6094,955.2011 L350,967.6326 L350.3906,901.3487 L350.7813,975.9113 L351.1719,974.5956 L351.5625,970.4719 L351.9531,962.6198 L352.3438,953.1079 L352.7344,963.7491 L353.125,988.3294 L353.5157,982.7089 L353.9063,937.1672 L354.2969,893.14 L354.6875,973.489 L355.0781,964.0446 L355.4688,941.3166 L355.8594,962.3104 L356.25,973.5703 L356.6406,972.5496 L357.0313,976.0713 L357.4219,965.6061 L357.8125,986.1835 L358.2031,899.2583 L358.5938,824.236 L358.9844,964.747 L359.375,962.4504 L359.7656,951.6811 L360.1563,966.3668 L360.5469,967.7977 L360.9375,906.67 L361.3282,956.289 L361.7188,979.9196 L362.1094,964.2835 L362.5,969.6191 L362.8906,962.7488 L363.2813,961.385 L363.6719,957.3346 L364.0625,970.6092 L364.4531,968.5808 L364.8438,947.9604 L365.2344,934.5413 L365.625,914.6863 L366.0156,961.1874 L366.4063,954.8878 L366.7969,939.282 L367.1875,916.4816 L367.5781,985.9697 L367.9688,979.4242 L368.3594,965.1755 L368.75,858.5701 L369.1407,936.1393 L369.5313,940.0601 L369.9219,984.6943 L370.3125,972.6282 L370.7031,956.1369 L371.0938,967.142 L371.4844,954.9027 L371.875,971.8141 L372.2656,950.1375 L372.6563,944.6232 L373.0469,952.9832 L373.4375,945.136 L373.8281,973.33 L374.2188,982.7258 L374.6094,941.5365 L375,954.959 L375.3906,961.9484 L375.7813,945.8376 L376.1719,975.9424 L376.5625,973.5074 L376.9532,941.5715 L377.3438,960.8042 L377.7344,970.6365 L378.125,981.1762 L378.5156,959.1201 L378.9063,982.1698 L379.2969,940.9274 L379.6875,910.7395 L380.0781,975.438 L380.4688,912.0813 L380.8594,966.3897 L381.25,948.4211 L381.6406,965.0793 L382.0313,958.9765 L382.4219,908.8134 L382.8125,982.0549 L383.2031,976.6453 L383.5938,982.2416 L383.9844,963.0671 L384.375,956.2646 L384.7657,989.2574 L385.1563,979.3841 L385.5469,940.7659 L385.9375,959.2875 L386.3281,973.5449 L386.7188,948.3472 L387.1094,953.0096 L387.5,974.8829 L387.8906,965.9644 L388.2813,975.7751 L388.6719,978.1572 L389.0625,964.1401 L389.4531,973.5408 L389.8438,937.0587 L390.2344,976.9656 L390.625,966.579 L391.0156,969.3636 L391.4063,937.8931 L391.7969,937.5627 L392.1875,931.275 L392.5782,973.3511 L392.9688,950.3796 L393.3594,985.5648 L393.75,980.4266 L394.1406,958.2008 L394.5313,982.2302 L394.9219,932.7863 L395.3125,953.4664 L395.7031,947.8011 L396.0938,973.4033 L396.4844,974.3667 L396.875,965.0848 L397.2656,982.7993 L397.6563,960.9773 L398.0469,942.0363 L398.4375,942.7946 L398.8281,955.9541 L399.2188,929.8245 L399.6094,979.0521 L400,905.0241 L400.3907,981.5314 L400.7813,869.7919 " stroke="blue" fill="none" />
<text x="50" y="1040" font-family="Arial" font-size="12" fill="black">Episode Length (899)</text>
<text x="50" y="1055" font-family="Arial" font-size="10" fill="black">366</text>
<text x="50" y="1270" font-family="Arial" font-size="10" fill="black">97</text>
<path d="M50,1227.286 L50.39063,1184.164 L50.78125,1233.978 L51.17188,1210.929 L51.5625,1218.364 L51.95313,1181.19 L52.34375,1144.758 L52.73438,1253.309 L53.125,1233.978 L53.51563,1215.39 L53.90625,1207.212 L54.29688,1189.368 L54.6875,1164.089 L55.07813,1233.978 L55.46875,1236.208 L55.85938,1253.309 L56.25,1141.041 L56.64063,1175.242 L57.03125,1225.056 L57.42188,1210.186 L57.8125,1175.242 L58.20313,1204.238 L58.59375,1166.32 L58.98438,1151.45 L59.375,1203.494 L59.76563,1225.056 L60.15625,1233.978 L60.54688,1147.732 L60.9375,1189.368 L61.32813,1219.108 L61.71875,1182.677 L62.10938,1201.264 L62.5,1218.364 L62.89063,1212.416 L63.28125,1184.907 L63.67188,1215.39 L64.0625,1228.03 L64.45313,1187.881 L64.84375,1224.312 L65.23438,1249.591 L65.625,1223.569 L66.01563,1213.903 L66.40625,1180.446 L66.79688,1240.669 L67.1875,1224.312 L67.57813,1161.859 L67.96875,1238.439 L68.35938,1131.375 L68.75,1153.68 L69.14063,1204.238 L69.53125,1242.9 L69.92188,1224.312 L70.3125,1173.755 L70.70313,1233.234 L71.09375,1238.439 L71.48438,1202.751 L71.875,1222.082 L72.26563,1225.799 L72.65625,1254.796 L73.04688,1250.335 L73.4375,1206.468 L73.82813,1210.186 L74.21875,1227.286 L74.60938,1190.112 L75,1233.978 L75.39063,1176.729 L75.78125,1219.851 L76.17188,1231.747 L76.5625,1158.885 L76.95313,1227.286 L77.34375,1213.16 L77.73438,1234.721 L78.125,1241.413 L78.51563,1138.81 L78.90625,1231.004 L79.29688,1236.952 L79.6875,1183.42 L80.07813,1208.699 L80.46875,1242.9 L80.85938,1167.807 L81.25,1215.39 L81.64063,1232.491 L82.03125,1226.543 L82.42188,1196.059 L82.8125,1221.338 L83.20313,1225.799 L83.59375,1202.751 L83.98438,1086.766 L84.375,1097.918 L84.76563,1223.569 L85.15625,1224.312 L85.54688,1178.959 L85.9375,1150.706 L86.32813,1251.078 L86.71875,1201.264 L87.10938,1222.825 L87.5,1186.394 L87.89063,1257.026 L88.28125,1234.721 L88.67188,1148.476 L89.0625,1229.517 L89.45313,1240.669 L89.84375,1216.877 L90.23438,1209.442 L90.625,1206.468 L91.01563,1190.112 L91.40625,1199.777 L91.79688,1178.959 L92.1875,1210.186 L92.57813,1224.312 L92.96875,1235.465 L93.35938,1241.413 L93.75,1225.799 L94.14063,1212.416 L94.53125,1167.807 L94.92188,1222.825 L95.3125,1247.361 L95.70313,1244.387 L96.09375,1252.565 L96.48438,1216.877 L96.875,1149.219 L97.26563,1157.398 L97.65625,1257.026 L98.04688,1242.156 L98.4375,1195.316 L98.82813,1222.082 L99.21875,1245.874 L99.60938,1205.725 L100,1219.108 L100.3906,1211.673 L100.7813,1174.498 L101.1719,1219.851 L101.5625,1206.468 L101.9531,1167.063 L102.3438,1205.725 L102.7344,1245.874 L103.125,1233.234 L103.5156,1207.955 L103.9063,1229.517 L104.2969,1233.978 L104.6875,1222.825 L105.0781,1157.398 L105.4688,1239.926 L105.8594,1233.978 L106.25,1234.721 L106.6406,1217.621 L107.0313,1239.182 L107.4219,1217.621 L107.8125,1172.268 L108.2031,1239.926 L108.5938,1209.442 L108.9844,1215.39 L109.375,1251.078 L109.7656,1217.621 L110.1563,1216.134 L110.5469,1227.286 L110.9375,1235.465 L111.3281,1218.364 L111.7188,1220.595 L112.1094,1228.03 L112.5,1231.004 L112.8906,1231.004 L113.2813,1224.312 L113.6719,1221.338 L114.0625,1231.747 L114.4531,1222.825 L114.8438,1225.799 L115.2344,1236.208 L115.625,1235.465 L116.0156,1225.799 L116.4063,1190.112 L116.7969,1221.338 L117.1875,1167.063 L117.5781,1225.056 L117.9688,1228.03 L118.3594,1216.134 L118.75,1159.628 L119.1406,1174.498 L119.5313,1223.569 L119.9219,1196.803 L120.3125,1174.498 L120.7031,1233.234 L121.0938,1216.134 L121.4844,1214.647 L121.875,1184.164 L122.2656,1226.543 L122.6563,1243.643 L123.0469,1233.234 L123.4375,1233.234 L123.8281,1219.851 L124.2188,1214.647 L124.6094,1226.543 L125,1221.338 L125.3906,1217.621 L125.7813,1159.628 L126.1719,1199.777 L126.5625,1247.361 L126.9531,1182.677 L127.3438,1219.108 L127.7344,1197.547 L128.125,1214.647 L128.5156,1252.565 L128.9063,1224.312 L129.2969,1210.929 L129.6875,1216.134 L130.0781,1231.747 L130.4688,1256.282 L130.8594,1181.19 L131.25,1196.059 L131.6406,1200.52 L132.0313,1191.599 L132.4219,1195.316 L132.8125,1251.822 L133.2031,1219.108 L133.5938,1239.182 L133.9844,1210.929 L134.375,1225.799 L134.7656,1158.141 L135.1563,1214.647 L135.5469,1190.112 L135.9375,1243.643 L136.3281,1230.26 L136.7188,1235.465 L137.1094,1228.03 L137.5,1154.424 L137.8906,1245.13 L138.2813,1208.699 L138.6719,1225.056 L139.0625,1228.03 L139.4531,1192.342 L139.8438,1200.52 L140.2344,1245.13 L140.625,1197.547 L141.0156,1222.825 L141.4063,1234.721 L141.7969,1208.699 L142.1875,1179.703 L142.5781,1221.338 L142.9688,1175.242 L143.3594,1218.364 L143.75,1137.323 L144.1406,1193.085 L144.5313,1198.29 L144.9219,1218.364 L145.3125,1232.491 L145.7031,1219.851 L146.0938,1242.156 L146.4844,1238.439 L146.875,1227.286 L147.2656,1196.059 L147.6563,1245.13 L148.0469,1235.465 L148.4375,1196.059 L148.8281,1232.491 L149.2188,1227.286 L149.6094,1215.39 L150,1233.978 L150.3906,1229.517 L150.7813,1220.595 L151.1719,1195.316 L151.5625,1203.494 L151.9531,1190.855 L152.3438,1232.491 L152.7344,1185.651 L153.125,1163.346 L153.5156,1213.903 L153.9063,1213.903 L154.2969,1225.056 L154.6875,1222.082 L155.0781,1226.543 L155.4688,1228.03 L155.8594,1233.234 L156.25,1191.599 L156.6406,1230.26 L157.0313,1248.848 L157.4219,1227.286 L157.8125,1178.216 L158.2031,1222.825 L158.5938,1240.669 L158.9844,1175.985 L159.375,1096.431 L159.7656,1230.26 L160.1563,1236.208 L160.5469,1233.234 L160.9375,1245.874 L161.3281,1204.238 L161.7188,1225.056 L162.1094,1186.394 L162.5,1231.004 L162.8906,1172.268 L163.2813,1211.673 L163.6719,1213.903 L164.0625,1205.725 L164.4531,1238.439 L164.8438,1241.413 L165.2344,1207.212 L165.625,1209.442 L166.0156,1214.647 L166.4063,1180.446 L166.7969,1177.472 L167.1875,1187.881 L167.5781,1216.134 L167.9688,1196.803 L168.3594,1211.673 L168.75,1199.033 L169.1406,1239.926 L169.5313,1243.643 L169.9219,1213.903 L170.3125,1207.212 L170.7031,1212.416 L171.0938,1209.442 L171.4844,1207.955 L171.875,1212.416 L172.2656,1190.112 L172.6563,1217.621 L173.0469,1210.929 L173.4375,1212.416 L173.8281,1121.71 L174.2188,1233.978 L174.6094,1208.699 L175,1225.056 L175.3906,1199.033 L175.7813,1211.673 L176.1719,1161.115 L176.5625,1211.673 L176.9531,1207.955 L177.3438,1150.706 L177.7344,1184.907 L178.125,1228.03 L178.5156,1215.39 L178.9063,1225.056 L179.2969,1183.42 L179.6875,1175.985 L180.0781,1181.933 L180.4688,1222.082 L180.8594,1221.338 L181.25,1208.699 L181.6406,1199.777 L182.0313,1155.911 L182.4219,1216.134 L182.8125,1192.342 L183.2031,1196.059 L183.5938,1220.595 L183.9844,1194.573 L184.375,1164.833 L184.7656,1213.903 L185.1563,1180.446 L185.5469,1225.056 L185.9375,1211.673 L186.3281,1233.978 L186.7188,1193.085 L187.1094,1196.803 L187.5,1235.465 L187.8906,1223.569 L188.2813,1231.004 L188.6719,1173.011 L189.0625,1219.108 L189.4531,1210.186 L189.8438,1182.677 L190.2344,1223.569 L190.625,1221.338 L191.0156,1197.547 L191.4063,1250.335 L191.7969,1168.55 L192.1875,1146.989 L192.5781,1194.573 L192.9688,1141.784 L193.3594,1204.238 L193.75,1225.056 L194.1406,1241.413 L194.5313,1233.234 L194.9219,1172.268 L195.3125,1216.134 L195.7031,1209.442 L196.0938,1250.335 L196.4844,1198.29 L196.875,1091.227 L197.2656,1260 L197.6563,1190.112 L198.0469,1190.112 L198.4375,1247.361 L198.8281,1212.416 L199.2188,1231.004 L199.6094,1225.799 L200,1219.851 L200.3906,1241.413 L200.7813,1209.442 L201.1719,1228.03 L201.5625,1239.926 L201.9531,1204.981 L202.3438,1148.476 L202.7344,1243.643 L203.125,1162.602 L203.5156,1233.978 L203.9063,1241.413 L204.2969,1222.082 L204.6875,1207.212 L205.0781,1246.617 L205.4688,1211.673 L205.8594,1187.138 L206.25,1213.16 L206.6406,1214.647 L207.0313,1226.543 L207.4219,1185.651 L207.8125,1173.755 L208.2031,1177.472 L208.5938,1201.264 L208.9844,1170.781 L209.375,1216.134 L209.7656,1220.595 L210.1563,1187.881 L210.5469,1203.494 L210.9375,1219.851 L211.3281,1205.725 L211.7188,1193.829 L212.1094,1222.825 L212.5,1207.955 L212.8906,1207.212 L213.2813,1193.829 L213.6719,1191.599 L214.0625,1220.595 L214.4531,1131.375 L214.8438,1214.647 L215.2344,1186.394 L215.625,1210.929 L216.0156,1231.747 L216.4063,1228.773 L216.7969,1198.29 L217.1875,1223.569 L217.5781,1242.9 L217.9688,1189.368 L218.3594,1184.164 L218.75,1194.573 L219.1406,1251.078 L219.5313,1193.085 L219.9219,1233.978 L220.3125,1210.186 L220.7031,1211.673 L221.0938,1222.825 L221.4844,1245.13 L221.875,1216.134 L222.2656,1213.16 L222.6563,1209.442 L223.0469,1231.004 L223.4375,1152.193 L223.8281,1211.673 L224.2188,1204.981 L224.6094,1217.621 L225,1203.494 L225.3906,1167.063 L225.7813,1236.208 L226.1719,1212.416 L226.5625,1202.751 L226.9531,1219.108 L227.3438,1233.978 L227.7344,1187.881 L228.125,1196.803 L228.5156,1233.978 L228.9063,1155.911 L229.2969,1228.03 L229.6875,1241.413 L230.0781,1206.468 L230.4688,1163.346 L230.8594,1240.669 L231.25,1159.628 L231.6406,1226.543 L232.0313,1083.792 L232.4219,1199.033 L232.8125,1216.134 L233.2031,1175.242 L233.5938,1190.112 L233.9844,1210.186 L234.375,1163.346 L234.7656,1222.825 L235.1563,1151.45 L235.5469,1205.725 L235.9375,1177.472 L236.3281,1155.911 L236.7188,1233.978 L237.1094,1215.39 L237.5,1204.981 L237.8906,1236.952 L238.2813,1229.517 L238.6719,1160.372 L239.0625,1236.952 L239.4531,1242.9 L239.8438,1207.212 L240.2344,1220.595 L240.625,1085.279 L241.0156,1157.398 L241.4063,1224.312 L241.7969,1213.903 L242.1875,1232.491 L242.5781,1228.773 L242.9688,1175.242 L243.3594,1222.825 L243.75,1202.751 L244.1406,1183.42 L244.5313,1196.059 L244.9219,1225.056 L245.3125,1213.16 L245.7031,1178.959 L246.0938,1226.543 L246.4844,1195.316 L246.875,1204.238 L247.2656,1201.264 L247.6563,1161.115 L248.0469,1167.063 L248.4375,1195.316 L248.8281,1242.9 L249.2188,1211.673 L249.6094,1207.955 L250,1247.361 L250.3906,1218.364 L250.7813,1192.342 L251.1719,1207.212 L251.5625,1175.242 L251.9531,1231.004 L252.3438,1235.465 L252.7344,1205.725 L253.125,1155.911 L253.5156,1239.182 L253.9063,1231.004 L254.2969,1222.082 L254.6875,1184.907 L255.0781,1232.491 L255.4688,1219.851 L255.8594,1193.829 L256.25,1237.695 L256.6406,1199.777 L257.0313,1238.439 L257.4219,1153.68 L257.8125,1210.186 L258.2031,1242.9 L258.5938,1210.186 L258.9844,1184.907 L259.375,1164.833 L259.7656,1174.498 L260.1563,1236.952 L260.5469,1242.9 L260.9375,1187.881 L261.3281,1144.015 L261.7188,1198.29 L262.1094,1248.848 L262.5,1241.413 L262.8906,1221.338 L263.2813,1155.911 L263.6719,1225.056 L264.0625,1165.576 L264.4531,1230.26 L264.8438,1225.056 L265.2344,1138.81 L265.625,1210.929 L266.0156,1197.547 L266.4063,1240.669 L266.7969,1181.933 L267.1875,1204.981 L267.5781,1240.669 L267.9688,1207.212 L268.3594,1219.108 L268.75,1210.929 L269.1406,1230.26 L269.5313,1240.669 L269.9219,1222.825 L270.3125,1213.903 L270.7031,1206.468 L271.0938,1219.851 L271.4844,1202.007 L271.875,1246.617 L272.2656,1210.186 L272.6563,1186.394 L273.0469,1193.085 L273.4375,1184.164 L273.8281,1238.439 L274.2188,1211.673 L274.6094,1222.082 L275,1238.439 L275.3906,1210.186 L275.7813,1201.264 L276.1719,1196.803 L276.5625,1239.926 L276.9531,1173.755 L277.3438,1199.777 L277.7344,1093.457 L278.125,1231.004 L278.5156,1209.442 L278.9063,1178.959 L279.2969,1242.9 L279.6875,1215.39 L280.0781,1248.848 L280.4688,1223.569 L280.8594,1196.059 L281.25,1205.725 L281.6406,1204.981 L282.0313,1170.781 L282.4219,1195.316 L282.8125,1201.264 L283.2031,1218.364 L283.5938,1221.338 L283.9844,1210.186 L284.375,1215.39 L284.7656,1190.855 L285.1563,1231.747 L285.5469,1210.929 L285.9375,1193.085 L286.3281,1147.732 L286.7188,1120.967 L287.1094,1162.602 L287.5,1221.338 L287.8906,1216.877 L288.2813,1192.342 L288.6719,1209.442 L289.0625,1191.599 L289.4531,1199.033 L289.8438,1245.874 L290.2344,1181.19 L290.625,1159.628 L291.0156,1234.721 L291.4063,1213.903 L291.7969,1233.234 L292.1875,1236.208 L292.5781,1210.929 L292.9688,1231.004 L293.3594,1254.796 L293.75,1229.517 L294.1406,1228.03 L294.5313,1198.29 L294.9219,1210.186 L295.3125,1222.082 L295.7031,1225.056 L296.0938,1236.952 L296.4844,1231.747 L296.875,1203.494 L297.2656,1197.547 L297.6563,1230.26 L298.0469,1237.695 L298.4375,1203.494 L298.8281,1250.335 L299.2188,1220.595 L299.6094,1224.312 L300,1234.721 L300.3906,1193.085 L300.7813,1229.517 L301.1719,1220.595 L301.5625,1200.52 L301.9531,1228.773 L302.3438,1212.416 L302.7344,1206.468 L303.125,1248.104 L303.5156,1232.491 L303.9063,1202.751 L304.2969,1231.747 L304.6875,1213.16 L305.0781,1200.52 L305.4688,1222.082 L305.8594,1238.439 L306.25,1254.796 L306.6407,1190.855 L307.0313,1217.621 L307.4219,1197.547 L307.8125,1227.286 L308.2031,1233.978 L308.5938,1169.294 L308.9844,1214.647 L309.375,1236.952 L309.7656,1187.138 L310.1563,1204.981 L310.5469,1172.268 L310.9375,1216.134 L311.3281,1213.16 L311.7188,1192.342 L312.1094,1219.851 L312.5,1174.498 L312.8906,1213.903 L313.2813,1222.082 L313.6719,1125.427 L314.0625,1089.74 L314.4532,1223.569 L314.8438,1221.338 L315.2344,1185.651 L315.625,1242.9 L316.0156,1246.617 L316.4063,1127.658 L316.7969,1240.669 L317.1875,1215.39 L317.5781,1193.085 L317.9688,1213.903 L318.3594,1218.364 L318.75,1178.959 L319.1406,1224.312 L319.5313,1222.825 L319.9219,1178.216 L320.3125,1155.167 L320.7031,1257.026 L321.0938,1216.877 L321.4844,1231.747 L321.875,1200.52 L322.2657,1196.059 L322.6563,1158.885 L323.0469,1167.807 L323.4375,1208.699 L323.8281,1199.033 L324.2188,1196.059 L324.6094,1189.368 L325,1196.803 L325.3906,1245.13 L325.7813,1181.19 L326.1719,1194.573 L326.5625,1242.156 L326.9531,1233.978 L327.3438,1187.881 L327.7344,1220.595 L328.125,1202.751 L328.5156,1242.156 L328.9063,1191.599 L329.2969,1144.758 L329.6875,1181.19 L330.0782,1211.673 L330.4688,1209.442 L330.8594,1231.004 L331.25,1194.573 L331.6406,1222.825 L332.0313,1233.978 L332.4219,1190.855 L332.8125,1248.848 L333.2031,1184.164 L333.5938,1196.059 L333.9844,1243.643 L334.375,1141.784 L334.7656,1244.387 L335.1563,1201.264 L335.5469,1225.799 L335.9375,1211.673 L336.3281,1215.39 L336.7188,1231.747 L337.1094,1199.033 L337.5,1060 L337.8907,1224.312 L338.2813,1212.416 L338.6719,1260 L339.0625,1079.331 L339.4531,1196.059 L339.8438,1233.234 L340.2344,1217.621 L340.625,1210.929 L341.0156,1178.959 L341.4063,1199.033 L341.7969,1251.078 L342.1875,1238.439 L342.5781,1247.361 L342.9688,1233.978 L343.3594,1242.156 L343.75,1164.833 L344.1406,1204.981 L344.5313,1223.569 L344.9219,1233.234 L345.3125,1245.13 L345.7032,1177.472 L346.0938,1177.472 L346.4844,1212.416 L346.875,1230.26 L347.2656,1207.955 L347.6563,1184.164 L348.0469,1242.9 L348.4375,1202.007 L348.8281,1239.926 L349.2188,1229.517 L349.6094,1198.29 L350,1219.851 L350.3906,1143.271 L350.7813,1232.491 L351.1719,1228.773 L351.5625,1222.825 L351.9531,1211.673 L352.3438,1202.751 L352.7344,1216.877 L353.125,1256.282 L353.5157,1242.9 L353.9063,1177.472 L354.2969,1140.297 L354.6875,1228.03 L355.0781,1216.877 L355.4688,1184.907 L355.8594,1210.929 L356.25,1233.978 L356.6406,1225.799 L357.0313,1236.208 L357.4219,1219.108 L357.8125,1250.335 L358.2031,1145.502 L358.5938,1080.818 L358.9844,1212.416 L359.375,1213.903 L359.7656,1196.803 L360.1563,1215.39 L360.5469,1216.877 L360.9375,1148.476 L361.3282,1201.264 L361.7188,1241.413 L362.1094,1214.647 L362.5,1220.595 L362.8906,1211.673 L363.2813,1207.955 L363.6719,1202.007 L364.0625,1222.082 L364.4531,1219.851 L364.8438,1191.599 L365.2344,1173.011 L365.625,1156.654 L366.0156,1208.699 L366.4063,1199.777 L366.7969,1179.703 L367.1875,1158.141 L367.5781,1252.565 L367.9688,1237.695 L368.3594,1219.108 L368.75,1109.814 L369.1407,1178.959 L369.5313,1183.42 L369.9219,1247.361 L370.3125,1226.543 L370.7031,1202.007 L371.0938,1218.364 L371.4844,1204.238 L371.875,1225.056 L372.2656,1194.573 L372.6563,1185.651 L373.0469,1197.547 L373.4375,1187.138 L373.8281,1227.286 L374.2188,1244.387 L374.6094,1183.42 L375,1199.777 L375.3906,1209.442 L375.7813,1189.368 L376.1719,1235.465 L376.5625,1227.286 L376.9532,1182.677 L377.3438,1211.673 L377.7344,1220.595 L378.125,1242.156 L378.5156,1209.442 L378.9063,1242.156 L379.2969,1184.164 L379.6875,1153.68 L380.0781,1231.004 L380.4688,1152.193 L380.8594,1220.595 L381.25,1193.085 L381.6406,1215.39 L382.0313,1209.442 L382.4219,1152.937 L382.8125,1243.643 L383.2031,1235.465 L383.5938,1242.9 L383.9844,1211.673 L384.375,1202.007 L384.7657,1258.513 L385.1563,1238.439 L385.5469,1186.394 L385.9375,1204.981 L386.3281,1231.004 L386.7188,1191.599 L387.1094,1197.547 L387.5,1233.234 L387.8906,1216.134 L388.2813,1231.004 L388.6719,1239.182 L389.0625,1212.416 L389.4531,1227.286 L389.8438,1177.472 L390.2344,1236.952 L390.625,1219.108 L391.0156,1221.338 L391.4063,1176.729 L391.7969,1180.446 L392.1875,1170.037 L392.5782,1228.773 L392.9688,1196.803 L393.3594,1250.335 L393.75,1241.413 L394.1406,1210.186 L394.5313,1244.387 L394.9219,1173.755 L395.3125,1202.007 L395.7031,1192.342 L396.0938,1230.26 L396.4844,1227.286 L396.875,1214.647 L397.2656,1248.848 L397.6563,1207.955 L398.0469,1187.138 L398.4375,1187.138 L398.8281,1200.52 L399.2188,1172.268 L399.6094,1240.669 L400,1146.989 L400.3907,1242.9 L400.7813,1117.993 " stroke="blue" fill="none" />
<text x="50" y="1310" font-family="Arial" font-size="12" fill="black">Policy Loss</text>
<text x="50" y="1325" font-family="Arial" font-size="10" fill="black">0.08174767</text>
<text x="50" y="1540" font-family="Arial" font-size="10" fill="black">0.004617384</text>
<path d="M50,1401.362 L50.78125,1525.202 L51.5625,1523.31 L52.34375,1515.139 L53.125,1523.613 L53.90625,1526.354 L54.6875,1516.534 L55.46875,1516.448 L56.25,1345.846 L57.03125,1520.154 L57.8125,1521.356 L58.59375,1511.802 L59.375,1518.088 L60.15625,1521.999 L60.9375,1518.558 L61.71875,1518.49 L62.5,1378.812 L63.28125,1523.99 L64.0625,1518.752 L64.84375,1516.288 L65.625,1523.257 L66.40625,1521.31 L67.1875,1513.907 L67.96875,1523.23 L68.75,1393.425 L69.53125,1512.655 L70.3125,1523.845 L71.09375,1517.25 L71.875,1515.83 L72.65625,1510.337 L73.4375,1518.93 L74.21875,1520.476 L75,1345.171 L75.78125,1516.73 L76.5625,1523.691 L77.34375,1509.583 L78.125,1515.803 L78.90625,1523.033 L79.6875,1523.539 L80.46875,1525.838 L81.25,1410.798 L82.03125,1520.746 L82.8125,1518.667 L83.59375,1523.534 L84.375,1521.773 L85.15625,1517.709 L85.9375,1514.595 L86.71875,1515.831 L87.5,1365.999 L88.28125,1521.344 L89.0625,1521.395 L89.84375,1521.302 L90.625,1526.842 L91.40625,1523.204 L92.1875,1516.551 L92.96875,1522.643 L93.75,1330 L94.53125,1518.243 L95.3125,1519.387 L96.09375,1522.518 L96.875,1519.342 L97.65625,1515.148 L98.4375,1520.517 L99.21875,1518.369 L100,1384.168 L100.7813,1519.529 L101.5625,1517.915 L102.3438,1523.231 L103.125,1523.701 L103.9063,1522.285 L104.6875,1514.638 L105.4688,1522.637 L106.25,1354.505 L107.0313,1518.433 L107.8125,1516.44 L108.5938,1518.455 L109.375,1517.784 L110.1563,1518.581 L110.9375,1527.062 L111.7188,1519.848 L112.5,1420.995 L113.2813,1516.778 L114.0625,1517.88 L114.8438,1517.178 L115.625,1521.409 L116.4063,1516.073 L117.1875,1521.635 L117.9688,1518.35 L118.75,1412.739 L119.5313,1518.753 L120.3125,1520.521 L121.0938,1511.88 L121.875,1522.333 L122.6563,1519.236 L123.4375,1515.637 L124.2188,1519.767 L125,1458.479 L125.7813,1528.363 L126.5625,1518.733 L127.3438,1523.889 L128.125,1512.563 L128.9063,1519.196 L129.6875,1525.908 L130.4688,1523.662 L131.25,1415.752 L132.0313,1525.283 L132.8125,1521.135 L133.5938,1524.031 L134.375,1513.255 L135.1563,1514.087 L135.9375,1518.03 L136.7188,1515.408 L137.5,1368.501 L138.2813,1520.288 L139.0625,1521.838 L139.8438,1527.038 L140.625,1519.959 L141.4063,1518.181 L142.1875,1514.42 L142.9688,1514.372 L143.75,1387.028 L144.5313,1513.813 L145.3125,1523.113 L146.0938,1515.231 L146.875,1518.259 L147.6563,1520.688 L148.4375,1525.36 L149.2188,1516.27 L150,1357.049 L150.7813,1519.444 L151.5625,1518.651 L152.3438,1510.916 L153.125,1520.325 L153.9063,1517.117 L154.6875,1521.798 L155.4688,1525.572 L156.25,1370.349 L157.0313,1525.402 L157.8125,1514.472 L158.5938,1518.62 L159.375,1526.471 L160.1563,1522.416 L160.9375,1526.419 L161.7188,1524.007 L162.5,1382.991 L163.2813,1522.86 L164.0625,1513.042 L164.8438,1528.603 L165.625,1516.317 L166.4063,1522.885 L167.1875,1524.57 L167.9688,1517.539 L168.75,1383.757 L169.5313,1519.208 L170.3125,1522.936 L171.0938,1513.558 L171.875,1523.89 L172.6563,1522.279 L173.4375,1522.059 L174.2188,1514.795 L175,1386.375 L175.7813,1521.871 L176.5625,1525.194 L177.3438,1521.557 L178.125,1521.989 L178.9063,1515.266 L179.6875,1520.644 L180.4688,1518.015 L181.25,1383.707 L182.0313,1519.727 L182.8125,1524.857 L183.5938,1519.083 L184.375,1517.093 L185.1563,1522.72 L185.9375,1517.777 L186.7188,1527.743 L187.5,1344.149 L188.2813,1519.983 L189.0625,1511.511 L189.8438,1514.978 L190.625,1518.023 L191.4063,1519.139 L192.1875,1517.521 L192.9688,1520.097 L193.75,1437.473 L194.5313,1521.203 L195.3125,1520.837 L196.0938,1518.96 L196.875,1520.505 L197.6563,1514.896 L198.4375,1522.467 L199.2188,1520.9 L200,1416.224 L200.7813,1525.151 L201.5625,1517.538 L202.3438,1526.517 L203.125,1512.099 L203.9063,1516.462 L204.6875,1512.518 L205.4688,1520.094 L206.25,1367.641 L207.0313,1515.521 L207.8125,1518.481 L208.5938,1521.408 L209.375,1510.805 L210.1563,1519.311 L210.9375,1515.143 L211.7188,1511.25 L212.5,1387.896 L213.2813,1512.933 L214.0625,1520.651 L214.8438,1524.217 L215.625,1519.262 L216.4063,1519.308 L217.1875,1526.251 L217.9688,1520.824 L218.75,1389.541 L219.5313,1520.869 L220.3125,1524.765 L221.0938,1523.657 L221.875,1517.572 L222.6563,1520.238 L223.4375,1528.448 L224.2188,1518.339 L225,1401.757 L225.7813,1521.26 L226.5625,1515.21 L227.3438,1518.512 L228.125,1519.485 L228.9063,1523.732 L229.6875,1522.88 L230.4688,1516.053 L231.25,1348.931 L232.0313,1526.404 L232.8125,1521.144 L233.5938,1521.209 L234.375,1519.736 L235.1563,1515.687 L235.9375,1521.619 L236.7188,1522.245 L237.5,1374.53 L238.2813,1512.217 L239.0625,1526.514 L239.8438,1526.864 L240.625,1522.781 L241.4063,1518.201 L242.1875,1523.637 L242.9688,1525.054 L243.75,1414.693 L244.5313,1523.947 L245.3125,1523.853 L246.0938,1527.858 L246.875,1514.027 L247.6563,1515.22 L248.4375,1516.2 L249.2188,1517.537 L250,1399.623 L250.7813,1520.314 L251.5625,1509.055 L252.3438,1521.84 L253.125,1522.698 L253.9063,1519.544 L254.6875,1525.374 L255.4688,1516.656 L256.25,1408.932 L257.0313,1511.999 L257.8125,1511.084 L258.5938,1518.373 L259.375,1523.581 L260.1563,1515.425 L260.9375,1521.953 L261.7188,1527.987 L262.5,1414.679 L263.2813,1515.436 L264.0625,1514.979 L264.8438,1522.595 L265.625,1521.233 L266.4063,1517.431 L267.1875,1519.338 L267.9688,1515.927 L268.75,1405.977 L269.5313,1517.613 L270.3125,1525.443 L271.0938,1513.381 L271.875,1521.854 L272.6563,1522.404 L273.4375,1519.552 L274.2188,1515.002 L275,1396.038 L275.7813,1517.939 L276.5625,1518.995 L277.3438,1519.265 L278.125,1527.959 L278.9063,1515.25 L279.6875,1521.171 L280.4688,1527.275 L281.25,1381.145 L282.0313,1517.201 L282.8125,1518.896 L283.5938,1517.521 L284.375,1520.052 L285.1563,1519.937 L285.9375,1522.865 L286.7188,1519.259 L287.5,1358.196 L288.2813,1520.871 L289.0625,1525.053 L289.8438,1521.664 L290.625,1523.49 L291.4063,1522.599 L292.1875,1525.697 L292.9688,1515.588 L293.75,1345.678 L294.5313,1519.129 L295.3125,1527.632 L296.0938,1527.351 L296.875,1520.11 L297.6563,1519.945 L298.4375,1513.673 L299.2188,1521.049 L300,1395.724 L300.7813,1512.168 L301.5625,1516.065 L302.3438,1518.272 L303.125,1526.875 L303.9063,1522.965 L304.6875,1520.939 L305.4688,1516.347 L306.25,1396.754 L307.0313,1515.881 L307.8125,1515.095 L308.5938,1523.75 L309.375,1524.428 L310.1563,1517.197 L310.9375,1521.388 L311.7188,1514.971 L312.5,1389.84 L313.2813,1523.881 L314.0625,1514.735 L314.8438,1521.764 L315.625,1518.405 L316.4063,1520.138 L317.1875,1515.098 L317.9688,1513.328 L318.75,1361.906 L319.5313,1521.539 L320.3125,1520.043 L321.0938,1522.849 L321.875,1520.635 L322.6563,1521.646 L323.4375,1516.92 L324.2188,1519.749 L325,1354.636 L325.7813,1518.436 L326.5625,1525.745 L327.3438,1512.662 L328.125,1518.005 L328.9063,1513.879 L329.6875,1517.158 L330.4688,1519.732 L331.25,1440.115 L332.0313,1524.276 L332.8125,1528.828 L333.5938,1518.341 L334.375,1524.37 L335.1563,1518.473 L335.9375,1519.574 L336.7188,1529.81 L337.5,1449.926 L338.2813,1516.201 L339.0625,1519.464 L339.8438,1520.262 L340.625,1518.008 L341.4063,1518.726 L342.1875,1518.884 L342.9688,1517.356 L343.75,1364.048 L344.5313,1521.07 L345.3125,1519.686 L346.0938,1520.238 L346.875,1517.058 L347.6563,1520.967 L348.4375,1520.558 L349.2188,1515.667 L350,1420.913 L350.7813,1518.776 L351.5625,1515.133 L352.3438,1527.409 L353.125,1525.586 L353.9063,1523.871 L354.6875,1516.678 L355.4688,1523.941 L356.25,1359.496 L357.0313,1525.408 L357.8125,1524.672 L358.5938,1510.698 L359.375,1516.865 L360.1563,1519.376 L360.9375,1513.966 L361.7188,1519.686 L362.5,1407.465 L363.2813,1518.925 L364.0625,1526.256 L364.8438,1514.085 L365.625,1524.588 L366.4063,1518.788 L367.1875,1515.041 L367.9688,1519.765 L368.75,1401.115 L369.5313,1522.539 L370.3125,1524.047 L371.0938,1520.854 L371.875,1516.152 L372.6563,1520.588 L373.4375,1520.247 L374.2188,1516.076 L375,1442.908 L375.7813,1521.712 L376.5625,1518.151 L377.3438,1528.005 L378.125,1514.883 L378.9063,1522.263 L379.6875,1515.379 L380.4688,1519.044 L381.25,1411.193 L382.0313,1516.472 L382.8125,1525.787 L383.5938,1520.944 L384.375,1524.302 L385.1563,1517.913 L385.9375,1522.625 L386.7188,1516.472 L387.5,1345.422 L388.2813,1518.278 L389.0625,1523.77 L389.8438,1520.509 L390.625,1518.8 L391.4063,1523.388 L392.1875,1521.611 L392.9688,1516.696 L393.75,1398.006 L394.5313,1523.375 L395.3125,1517.141 L396.0938,1519.365 L396.875,1513.731 L397.6563,1524.852 L398.4375,1519.934 L399.2188,1527.354 L400,1399.592 L400.7813,1522.869 L401.5625,1520.737 L402.3438,1522.084 L403.125,1522.066 L403.9063,1527.93 L404.6875,1526.512 L405.4688,1516.185 L406.25,1431.367 L407.0313,1514.96 L407.8125,1519.784 L408.5938,1525.545 L409.375,1521.123 L410.1563,1523.404 L410.9375,1517.411 L411.7188,1525.447 L412.5,1421.772 L413.2813,1517.208 L414.0625,1516.374 L414.8438,1527.671 L415.625,1522.14 L416.4063,1521.302 L417.1875,1513.402 L417.9688,1513.04 L418.75,1350.425 L419.5313,1517.605 L420.3125,1526.248 L421.0938,1519.114 L421.875,1513.39 L422.6563,1519.438 L423.4375,1521.545 L424.2188,1528.248 L425,1366.875 L425.7813,1521.237 L426.5625,1520.109 L427.3438,1514.842 L428.125,1517.243 L428.9063,1526.921 L429.6875,1523.008 L430.4688,1524.315 L431.25,1424.942 L432.0313,1514.81 L432.8125,1519.148 L433.5938,1520.128 L434.375,1523.158 L435.1563,1522.56 L435.9375,1521.826 L436.7188,1519.616 L437.5,1441.462 L438.2813,1521.582 L439.0625,1515.03 L439.8438,1522.484 L440.625,1516.816 L441.4063,1525.35 L442.1875,1523.47 L442.9688,1518.302 L443.75,1376.089 L444.5313,1512.444 L445.3125,1505.628 L446.0938,1525.159 L446.875,1522.155 L447.6563,1519.503 L448.4375,1524.976 L449.2188,1518.775 L450,1361.185 L450.7813,1521.189 L451.5625,1520.69 L452.3438,1513.465 L453.125,1523.122 L453.9063,1517.386 L454.6875,1519.652 L455.4688,1521.366 L456.25,1457.897 L457.0313,1519.575 L457.8125,1525.848 L458.5938,1521.522 L459.375,1517.501 L460.1563,1517.484 L460.9375,1509.314 L461.7188,1520.24 L462.5,1368.357 L463.2813,1518.244 L464.0625,1517.814 L464.8438,1525.438 L465.625,1519.931 L466.4063,1522.065 L467.1875,1524.235 L467.9688,1524.199 L468.75,1424.643 L469.5313,1516.423 L470.3125,1526.628 L471.0938,1517.69 L471.875,1521.059 L472.6563,1516.022 L473.4375,1515.939 L474.2188,1520.24 L475,1398.527 L475.7813,1517.909 L476.5625,1524.194 L477.3438,1524.206 L478.125,1520.779 L478.9063,1519.463 L479.6875,1513.533 L480.4688,1516.401 L481.25,1384.677 L482.0313,1518.846 L482.8125,1524.466 L483.5938,1527.06 L484.375,1513.099 L485.1563,1518.461 L485.9375,1522.562 L486.7188,1521.542 L487.5,1432.534 L488.2813,1522.12 L489.0625,1517.745 L489.8438,1513.684 L490.625,1513.84 L491.4063,1525.773 L492.1875,1530 L492.9688,1519.182 L493.75,1420.622 L494.5313,1516.126 L495.3125,1521.49 L496.0938,1524.876 L496.875,1525.614 L497.6563,1520.961 L498.4375,1522.718 L499.2188,1513.198 L500,1405.635 L500.7813,1518.007 L501.5625,1523.561 L502.3438,1522.202 L503.125,1518.926 L503.9063,1525.52 L504.6875,1521.336 L505.4688,1527.827 " stroke="blue" fill="none" />
<text x="50" y="1580" font-family="Arial" font-size="12" fill="black">Value Loss</text>
<text x="50" y="1595" font-family="Arial" font-size="10" fill="black">0.002958144</text>
<text x="50" y="1810" font-family="Arial" font-size="10" fill="black">0.00016028</text>
<path d="M50,1743.837 L50.78125,1773.739 L51.5625,1782.324 L52.34375,1787.519 L53.125,1790.69 L53.90625,1792.932 L54.6875,1794.419 L55.46875,1795.68 L56.25,1708.909 L57.03125,1754.555 L57.8125,1774.961 L58.59375,1780.467 L59.375,1783.747 L60.15625,1785.92 L60.9375,1787.324 L61.71875,1788.191 L62.5,1716.943 L63.28125,1759.583 L64.0625,1770.107 L64.84375,1774.917 L65.625,1778.392 L66.40625,1780.617 L67.1875,1782.46 L67.96875,1783.881 L68.75,1743.178 L69.53125,1763.765 L70.3125,1774.23 L71.09375,1778.872 L71.875,1781.59 L72.65625,1783.828 L73.4375,1785.577 L74.21875,1786.849 L75,1711.789 L75.78125,1762.18 L76.5625,1777.484 L77.34375,1783.008 L78.125,1785.377 L78.90625,1787.51 L79.6875,1789.004 L80.46875,1790.225 L81.25,1745.069 L82.03125,1773.915 L82.8125,1783.721 L83.59375,1787.971 L84.375,1790.411 L85.15625,1792.087 L85.9375,1793.424 L86.71875,1794.33 L87.5,1716.248 L88.28125,1762.514 L89.0625,1775.994 L89.84375,1780.762 L90.625,1782.975 L91.40625,1784.443 L92.1875,1785.861 L92.96875,1786.831 L93.75,1600.001 L94.53125,1715.7 L95.3125,1743.403 L96.09375,1756.404 L96.875,1762.752 L97.65625,1766.508 L98.4375,1770.051 L99.21875,1772.593 L100,1716.804 L100.7813,1755.396 L101.5625,1773.132 L102.3438,1779.366 L103.125,1782.335 L103.9063,1784.542 L104.6875,1786.402 L105.4688,1787.618 L106.25,1735.546 L107.0313,1757.604 L107.8125,1771.443 L108.5938,1776.842 L109.375,1779.891 L110.1563,1782.38 L110.9375,1784.276 L111.7188,1785.784 L112.5,1754.789 L113.2813,1766.089 L114.0625,1777.866 L114.8438,1781.462 L115.625,1783.891 L116.4063,1785.57 L117.1875,1786.882 L117.9688,1787.944 L118.75,1755.419 L119.5313,1775.672 L120.3125,1782.003 L121.0938,1785.312 L121.875,1787.189 L122.6563,1788.75 L123.4375,1789.807 L124.2188,1790.763 L125,1776.803 L125.7813,1782.346 L126.5625,1788.703 L127.3438,1790.374 L128.125,1791.594 L128.9063,1792.269 L129.6875,1793.099 L130.4688,1793.452 L131.25,1780.493 L132.0313,1790.854 L132.8125,1795.251 L133.5938,1797.4 L134.375,1798.348 L135.1563,1798.964 L135.9375,1799.582 L136.7188,1800 L137.5,1763.449 L138.2813,1775.91 L139.0625,1788.137 L139.8438,1791.337 L140.625,1793.002 L141.4063,1794.389 L142.1875,1795.198 L142.9688,1795.895 L143.75,1779.368 L144.5313,1785.526 L145.3125,1791.425 L146.0938,1793.846 L146.875,1795.475 L147.6563,1796.602 L148.4375,1797.525 L149.2188,1798.373 L150,1746.373 L150.7813,1765.531 L151.5625,1777.103 L152.3438,1781.691 L153.125,1784.23 L153.9063,1786.037 L154.6875,1787.36 L155.4688,1788.542 L156.25,1739.768 L157.0313,1773.412 L157.8125,1784.854 L158.5938,1789.216 L159.375,1791.481 L160.1563,1792.988 L160.9375,1794.056 L161.7188,1794.882 L162.5,1756.69 L163.2813,1763.514 L164.0625,1780.664 L164.8438,1786.521 L165.625,1788.953 L166.4063,1790.535 L167.1875,1791.825 L167.9688,1792.777 L168.75,1730.296 L169.5313,1745.995 L170.3125,1775.541 L171.0938,1782.178 L171.875,1785.128 L172.6563,1787.252 L173.4375,1788.635 L174.2188,1789.745 L175,1744.969 L175.7813,1718.269 L176.5625,1775.06 L177.3438,1785.416 L178.125,1789.004 L178.9063,1790.966 L179.6875,1792.261 L180.4688,1793.112 L181.25,1773.563 L182.0313,1785.334 L182.8125,1792.047 L183.5938,1794.712 L184.375,1796.685 L185.1563,1797.866 L185.9375,1798.808 L186.7188,1799.607 L187.5,1684.1 L188.2813,1768.42 L189.0625,1780.197 L189.8438,1785.485 L190.625,1788.597 L191.4063,1790.64 L192.1875,1792.092 L192.9688,1793.136 L193.75,1763.346 L194.5313,1775.176 L195.3125,1784.13 L196.0938,1787.724 L196.875,1789.684 L197.6563,1790.769 L198.4375,1791.726 L199.2188,1792.706 L200,1764.134 L200.7813,1786.86 L201.5625,1793.372 L202.3438,1796.151 L203.125,1797.366 L203.9063,1798.207 L204.6875,1798.883 L205.4688,1799.329 L206.25,1718.952 L207.0313,1760.582 L207.8125,1772.321 L208.5938,1777.29 L209.375,1780.435 L210.1563,1782.849 L210.9375,1784.702 L211.7188,1786.32 L212.5,1761.19 L213.2813,1777.758 L214.0625,1784.612 L214.8438,1787.596 L215.625,1789.475 L216.4063,1791.01 L217.1875,1792.175 L217.9688,1793.134 L218.75,1759.092 L219.5313,1767.4 L220.3125,1782.584 L221.0938,1788.28 L221.875,1790.704 L222.6563,1792.476 L223.4375,1793.651 L224.2188,1794.589 L225,1768.396 L225.7813,1781.173 L226.5625,1787.858 L227.3438,1790.351 L228.125,1791.997 L228.9063,1792.951 L229.6875,1793.966 L230.4688,1794.688 L231.25,1716.123 L232.0313,1746.957 L232.8125,1774.147 L233.5938,1781.271 L234.375,1785.186 L235.1563,1787.113 L235.9375,1788.714 L236.7188,1789.979 L237.5,1662.078 L238.2813,1683.919 L239.0625,1738.137 L239.8438,1751.528 L240.625,1759.178 L241.4063,1762.878 L242.1875,1765.076 L242.9688,1767.218 L243.75,1710.417 L244.5313,1760.249 L245.3125,1771.864 L246.0938,1778.188 L246.875,1781.323 L247.6563,1783.767 L248.4375,1785.549 L249.2188,1787.17 L250,1729.433 L250.7813,1765.298 L251.5625,1780.107 L252.3438,1785.364 L253.125,1787.796 L253.9063,1789.544 L254.6875,1791.033 L255.4688,1792.233 L256.25,1736.115 L257.0313,1759.368 L257.8125,1774.564 L258.5938,1779.748 L259.375,1783.506 L260.1563,1785.609 L260.9375,1786.932 L261.7188,1788.462 L262.5,1768.69 L263.2813,1783.236 L264.0625,1788.823 L264.8438,1791.11 L265.625,1792.566 L266.4063,1793.672 L267.1875,1794.573 L267.9688,1795.378 L268.75,1761.825 L269.5313,1781.626 L270.3125,1789.463 L271.0938,1792.917 L271.875,1794.608 L272.6563,1795.793 L273.4375,1796.666 L274.2188,1797.456 L275,1746.116 L275.7813,1776.637 L276.5625,1783.694 L277.3438,1787.654 L278.125,1789.409 L278.9063,1790.672 L279.6875,1791.807 L280.4688,1792.786 L281.25,1682.33 L282.0313,1733.029 L282.8125,1750.408 L283.5938,1758.616 L284.375,1763.897 L285.1563,1766.784 L285.9375,1768.373 L286.7188,1770.982 L287.5,1719.278 L288.2813,1743.692 L289.0625,1765.468 L289.8438,1774.727 L290.625,1777.692 L291.4063,1779.973 L292.1875,1781.779 L292.9688,1782.996 L293.75,1666.038 L294.5313,1739.134 L295.3125,1761.979 L296.0938,1770.889 L296.875,1775.382 L297.6563,1778.707 L298.4375,1781.511 L299.2188,1783.411 L300,1757.761 L300.7813,1774.873 L301.5625,1782.961 L302.3438,1787.431 L303.125,1789.286 L303.9063,1790.838 L304.6875,1791.734 L305.4688,1792.804 L306.25,1738.373 L307.0313,1767.226 L307.8125,1781.394 L308.5938,1786.043 L309.375,1788.226 L310.1563,1789.891 L310.9375,1790.846 L311.7188,1791.688 L312.5,1744.939 L313.2813,1758.219 L314.0625,1776.845 L314.8438,1783.764 L315.625,1787.024 L316.4063,1788.242 L317.1875,1789.072 L317.9688,1790.546 L318.75,1720.129 L319.5313,1751.512 L320.3125,1772.12 L321.0938,1781.796 L321.875,1785.093 L322.6563,1787.81 L323.4375,1789.392 L324.2188,1790.554 L325,1695.316 L325.7813,1731.206 L326.5625,1763.961 L327.3438,1773.278 L328.125,1778.503 L328.9063,1781.421 L329.6875,1783.97 L330.4688,1785.636 L331.25,1757.158 L332.0313,1773.967 L332.8125,1783.465 L333.5938,1787.797 L334.375,1790.118 L335.1563,1791.921 L335.9375,1792.926 L336.7188,1793.918 L337.5,1771.202 L338.2813,1781.755 L339.0625,1787.047 L339.8438,1789.518 L340.625,1791.151 L341.4063,1792.517 L342.1875,1793.423 L342.9688,1794.199 L343.75,1688.516 L344.5313,1743.511 L345.3125,1762.528 L346.0938,1770.157 L346.875,1773.987 L347.6563,1776.481 L348.4375,1777.96 L349.2188,1779.416 L350,1756.352 L350.7813,1777.012 L351.5625,1788.206 L352.3438,1793.085 L353.125,1795.059 L353.9063,1796.391 L354.6875,1797.424 L355.4688,1798.226 L356.25,1685.457 L357.0313,1749.206 L357.8125,1771.685 L358.5938,1779.108 L359.375,1782.444 L360.1563,1785.022 L360.9375,1786.615 L361.7188,1788.019 L362.5,1751.639 L363.2813,1778.174 L364.0625,1786.846 L364.8438,1789.802 L365.625,1791.408 L366.4063,1792.52 L367.1875,1793.366 L367.9688,1794.129 L368.75,1743.755 L369.5313,1774.49 L370.3125,1785.917 L371.0938,1789.269 L371.875,1791.851 L372.6563,1793.135 L373.4375,1794.15 L374.2188,1794.8 L375,1777.37 L375.7813,1786.028 L376.5625,1790.795 L377.3438,1792.579 L378.125,1793.848 L378.9063,1794.697 L379.6875,1795.416 L380.4688,1796.021 L381.25,1768.201 L382.0313,1781.797 L382.8125,1786.423 L383.5938,1789.084 L384.375,1790.571 L385.1563,1791.652 L385.9375,1792.549 L386.7188,1793.246 L387.5,1653.851 L388.2813,1688.728 L389.0625,1732.204 L389.8438,1746.595 L390.625,1755.859 L391.4063,1761.272 L392.1875,1764.572 L392.9688,1767.544 L393.75,1733.505 L394.5313,1766.829 L395.3125,1776.97 L396.0938,1782.19 L396.875,1785.101 L397.6563,1787.126 L398.4375,1788.584 L399.2188,1790.282 L400,1730.713 L400.7813,1759.43 L401.5625,1770.979 L402.3438,1775.391 L403.125,1778.392 L403.9063,1780.064 L404.6875,1781.962 L405.4688,1783.339 L406.25,1744.104 L407.0313,1767.561 L407.8125,1778.009 L408.5938,1782.416 L409.375,1784.685 L410.1563,1786.615 L410.9375,1787.816 L411.7188,1788.876 L412.5,1728.794 L413.2813,1760.927 L414.0625,1772.134 L414.8438,1778.286 L415.625,1780.911 L416.4063,1782.701 L417.1875,1784.253 L417.9688,1785.536 L418.75,1601.767 L419.5313,1675.944 L420.3125,1706.889 L421.0938,1719.777 L421.875,1729.528 L422.6563,1735.151 L423.4375,1740.346 L424.2188,1744.307 L425,1666.762 L425.7813,1727.465 L426.5625,1755.207 L427.3438,1764.481 L428.125,1769.467 L428.9063,1772.739 L429.6875,1775.516 L430.4688,1777.745 L431.25,1741.609 L432.0313,1767.832 L432.8125,1775.552 L433.5938,1779.411 L434.375,1782.109 L435.1563,1783.51 L435.9375,1784.706 L436.7188,1785.608 L437.5,1719.724 L438.2813,1757.188 L439.0625,1767 L439.8438,1772.333 L440.625,1774.948 L441.4063,1777.018 L442.1875,1778.703 L442.9688,1779.976 L443.75,1709.949 L444.5313,1747.363 L445.3125,1764.601 L446.0938,1770.56 L446.875,1774.261 L447.6563,1776.483 L448.4375,1778.113 L449.2188,1779.996 L450,1637.498 L450.7813,1702.28 L451.5625,1748.126 L452.3438,1758.883 L453.125,1764.881 L453.9063,1767.873 L454.6875,1770.404 L455.4688,1772.418 L456.25,1738.866 L457.0313,1760.671 L457.8125,1772.885 L458.5938,1777.287 L459.375,1780 L460.1563,1781.904 L460.9375,1783.283 L461.7188,1784.664 L462.5,1719.09 L463.2813,1752.891 L464.0625,1765.948 L464.8438,1771.961 L465.625,1776.165 L466.4063,1778.456 L467.1875,1780 L467.9688,1781.043 L468.75,1742.483 L469.5313,1765.955 L470.3125,1773.782 L471.0938,1777.097 L471.875,1779.26 L472.6563,1780.596 L473.4375,1781.796 L474.2188,1782.731 L475,1740.094 L475.7813,1758.179 L476.5625,1770.628 L477.3438,1775.796 L478.125,1778.506 L478.9063,1780.352 L479.6875,1781.879 L480.4688,1783.112 L481.25,1751.053 L482.0313,1769.252 L482.8125,1778.825 L483.5938,1782.732 L484.375,1785.244 L485.1563,1787.186 L485.9375,1788.327 L486.7188,1789.547 L487.5,1756.239 L488.2813,1774.718 L489.0625,1782.524 L489.8438,1786.607 L490.625,1788.534 L491.4063,1789.878 L492.1875,1790.946 L492.9688,1791.801 L493.75,1761.922 L494.5313,1778.612 L495.3125,1784.11 L496.0938,1786.724 L496.875,1788.121 L497.6563,1789.262 L498.4375,1790.419 L499.2188,1791.053 L500,1744.229 L500.7813,1768 L501.5625,1781.452 L502.3438,1786.31 L503.125,1789.035 L503.9063,1790.466 L504.6875,1791.622 L505.4688,1792.563 " stroke="blue" fill="none" />
<text x="50" y="1850" font-family="Arial" font-size="12" fill="black">Learning Rate</text>
<text x="50" y="1865" font-family="Arial" font-size="10" fill="black">0.0003</text>
<text x="50" y="2080" font-family="Arial" font-size="10" fill="black">0.0003</text>
<path d="M50,2070 L50.78125,2070 L51.5625,2070 L52.34375,2070 L53.125,2070 L53.90625,2070 L54.6875,2070 L55.46875,2070 L56.25,2070 L57.03125,2070 L57.8125,2070 L58.59375,2070 L59.375,2070 L60.15625,2070 L60.9375,2070 L61.71875,2070 L62.5,2070 L63.28125,2070 L64.0625,2070 L64.84375,2070 L65.625,2070 L66.40625,2070 L67.1875,2070 L67.96875,2070 L68.75,2070 L69.53125,2070 L70.3125,2070 L71.09375,2070 L71.875,2070 L72.65625,2070 L73.4375,2070 L74.21875,2070 L75,2070 L75.78125,2070 L76.5625,2070 L77.34375,2070 L78.125,2070 L78.90625,2070 L79.6875,2070 L80.46875,2070 L81.25,2070 L82.03125,2070 L82.8125,2070 L83.59375,2070 L84.375,2070 L85.15625,2070 L85.9375,2070 L86.71875,2070 L87.5,2070 L88.28125,2070 L89.0625,2070 L89.84375,2070 L90.625,2070 L91.40625,2070 L92.1875,2070 L92.96875,2070 L93.75,2070 L94.53125,2070 L95.3125,2070 L96.09375,2070 L96.875,2070 L97.65625,2070 L98.4375,2070 L99.21875,2070 L100,2070 L100.7813,2070 L101.5625,2070 L102.3438,2070 L103.125,2070 L103.9063,2070 L104.6875,2070 L105.4688,2070 L106.25,2070 L107.0313,2070 L107.8125,2070 L108.5938,2070 L109.375,2070 L110.1563,2070 L110.9375,2070 L111.7188,2070 L112.5,2070 L113.2813,2070 L114.0625,2070 L114.8438,2070 L115.625,2070 L116.4063,2070 L117.1875,2070 L117.9688,2070 L118.75,2070 L119.5313,2070 L120.3125,2070 L121.0938,2070 L121.875,2070 L122.6563,2070 L123.4375,2070 L124.2188,2070 L125,2070 L125.7813,2070 L126.5625,2070 L127.3438,2070 L128.125,2070 L128.9063,2070 L129.6875,2070 L130.4688,2070 L131.25,2070 L132.0313,2070 L132.8125,2070 L133.5938,2070 L134.375,2070 L135.1563,2070 L135.9375,2070 L136.7188,2070 L137.5,2070 L138.2813,2070 L139.0625,2070 L139.8438,2070 L140.625,2070 L141.4063,2070 L142.1875,2070 L142.9688,2070 L143.75,2070 L144.5313,2070 L145.3125,2070 L146.0938,2070 L146.875,2070 L147.6563,2070 L148.4375,2070 L149.2188,2070 L150,2070 L150.7813,2070 L151.5625,2070 L152.3438,2070 L153.125,2070 L153.9063,2070 L154.6875,2070 L155.4688,2070 L156.25,2070 L157.0313,2070 L157.8125,2070 L158.5938,2070 L159.375,2070 L160.1563,2070 L160.9375,2070 L161.7188,2070 L162.5,2070 L163.2813,2070 L164.0625,2070 L164.8438,2070 L165.625,2070 L166.4063,2070 L167.1875,2070 L167.9688,2070 L168.75,2070 L169.5313,2070 L170.3125,2070 L171.0938,2070 L171.875,2070 L172.6563,2070 L173.4375,2070 L174.2188,2070 L175,2070 L175.7813,2070 L176.5625,2070 L177.3438,2070 L178.125,2070 L178.9063,2070 L179.6875,2070 L180.4688,2070 L181.25,2070 L182.0313,2070 L182.8125,2070 L183.5938,2070 L184.375,2070 L185.1563,2070 L185.9375,2070 L186.7188,2070 L187.5,2070 L188.2813,2070 L189.0625,2070 L189.8438,2070 L190.625,2070 L191.4063,2070 L192.1875,2070 L192.9688,2070 L193.75,2070 L194.5313,2070 L195.3125,2070 L196.0938,2070 L196.875,2070 L197.6563,2070 L198.4375,2070 L199.2188,2070 L200,2070 L200.7813,2070 L201.5625,2070 L202.3438,2070 L203.125,2070 L203.9063,2070 L204.6875,2070 L205.4688,2070 L206.25,2070 L207.0313,2070 L207.8125,2070 L208.5938,2070 L209.375,2070 L210.1563,2070 L210.9375,2070 L211.7188,2070 L212.5,2070 L213.2813,2070 L214.0625,2070 L214.8438,2070 L215.625,2070 L216.4063,2070 L217.1875,2070 L217.9688,2070 L218.75,2070 L219.5313,2070 L220.3125,2070 L221.0938,2070 L221.875,2070 L222.6563,2070 L223.4375,2070 L224.2188,2070 L225,2070 L225.7813,2070 L226.5625,2070 L227.3438,2070 L228.125,2070 L228.9063,2070 L229.6875,2070 L230.4688,2070 L231.25,2070 L232.0313,2070 L232.8125,2070 L233.5938,2070 L234.375,2070 L235.1563,2070 L235.9375,2070 L236.7188,2070 L237.5,2070 L238.2813,2070 L239.0625,2070 L239.8438,2070 L240.625,2070 L241.4063,2070 L242.1875,2070 L242.9688,2070 L243.75,2070 L244.5313,2070 L245.3125,2070 L246.0938,2070 L246.875,2070 L247.6563,2070 L248.4375,2070 L249.2188,2070 L250,2070 L250.7813,2070 L251.5625,2070 L252.3438,2070 L253.125,2070 L253.9063,2070 L254.6875,2070 L255.4688,2070 L256.25,2070 L257.0313,2070 L257.8125,2070 L258.5938,2070 L259.375,2070 L260.1563,2070 L260.9375,2070 L261.7188,2070 L262.5,2070 L263.2813,2070 L264.0625,2070 L264.8438,2070 L265.625,2070 L266.4063,2070 L267.1875,2070 L267.9688,2070 L268.75,2070 L269.5313,2070 L270.3125,2070 L271.0938,2070 L271.875,2070 L272.6563,2070 L273.4375,2070 L274.2188,2070 L275,2070 L275.7813,2070 L276.5625,2070 L277.3438,2070 L278.125,2070 L278.9063,2070 L279.6875,2070 L280.4688,2070 L281.25,2070 L282.0313,2070 L282.8125,2070 L283.5938,2070 L284.375,2070 L285.1563,2070 L285.9375,2070 L286.7188,2070 L287.5,2070 L288.2813,2070 L289.0625,2070 L289.8438,2070 L290.625,2070 L291.4063,2070 L292.1875,2070 L292.9688,2070 L293.75,2070 L294.5313,2070 L295.3125,2070 L296.0938,2070 L296.875,2070 L297.6563,2070 L298.4375,2070 L299.2188,2070 L300,2070 L300.7813,2070 L301.5625,2070 L302.3438,2070 L303.125,2070 L303.9063,2070 L304.6875,2070 L305.4688,2070 L306.25,2070 L307.0313,2070 L307.8125,2070 L308.5938,2070 L309.375,2070 L310.1563,2070 L310.9375,2070 L311.7188,2070 L312.5,2070 L313.2813,2070 L314.0625,2070 L314.8438,2070 L315.625,2070 L316.4063,2070 L317.1875,2070 L317.9688,2070 L318.75,2070 L319.5313,2070 L320.3125,2070 L321.0938,2070 L321.875,2070 L322.6563,2070 L323.4375,2070 L324.2188,2070 L325,2070 L325.7813,2070 L326.5625,2070 L327.3438,2070 L328.125,2070 L328.9063,2070 L329.6875,2070 L330.4688,2070 L331.25,2070 L332.0313,2070 L332.8125,2070 L333.5938,2070 L334.375,2070 L335.1563,2070 L335.9375,2070 L336.7188,2070 L337.5,2070 L338.2813,2070 L339.0625,2070 L339.8438,2070 L340.625,2070 L341.4063,2070 L342.1875,2070 L342.9688,2070 L343.75,2070 L344.5313,2070 L345.3125,2070 L346.0938,2070 L346.875,2070 L347.6563,2070 L348.4375,2070 L349.2188,2070 L350,2070 L350.7813,2070 L351.5625,2070 L352.3438,2070 L353.125,2070 L353.9063,2070 L354.6875,2070 L355.4688,2070 L356.25,2070 L357.0313,2070 L357.8125,2070 L358.5938,2070 L359.375,2070 L360.1563,2070 L360.9375,2070 L361.7188,2070 L362.5,2070 L363.2813,2070 L364.0625,2070 L364.8438,2070 L365.625,2070 L366.4063,2070 L367.1875,2070 L367.9688,2070 L368.75,2070 L369.5313,2070 L370.3125,2070 L371.0938,2070 L371.875,2070 L372.6563,2070 L373.4375,2070 L374.2188,2070 L375,2070 L375.7813,2070 L376.5625,2070 L377.3438,2070 L378.125,2070 L378.9063,2070 L379.6875,2070 L380.4688,2070 L381.25,2070 L382.0313,2070 L382.8125,2070 L383.5938,2070 L384.375,2070 L385.1563,2070 L385.9375,2070 L386.7188,2070 L387.5,2070 L388.2813,2070 L389.0625,2070 L389.8438,2070 L390.625,2070 L391.4063,2070 L392.1875,2070 L392.9688,2070 L393.75,2070 L394.5313,2070 L395.3125,2070 L396.0938,2070 L396.875,2070 L397.6563,2070 L398.4375,2070 L399.2188,2070 L400,2070 L400.7813,2070 L401.5625,2070 L402.3438,2070 L403.125,2070 L403.9063,2070 L404.6875,2070 L405.4688,2070 L406.25,2070 L407.0313,2070 L407.8125,2070 L408.5938,2070 L409.375,2070 L410.1563,2070 L410.9375,2070 L411.7188,2070 L412.5,2070 L413.2813,2070 L414.0625,2070 L414.8438,2070 L415.625,2070 L416.4063,2070 L417.1875,2070 L417.9688,2070 L418.75,2070 L419.5313,2070 L420.3125,2070 L421.0938,2070 L421.875,2070 L422.6563,2070 L423.4375,2070 L424.2188,2070 L425,2070 L425.7813,2070 L426.5625,2070 L427.3438,2070 L428.125,2070 L428.9063,2070 L429.6875,2070 L430.4688,2070 L431.25,2070 L432.0313,2070 L432.8125,2070 L433.5938,2070 L434.375,2070 L435.1563,2070 L435.9375,2070 L436.7188,2070 L437.5,2070 L438.2813,2070 L439.0625,2070 L439.8438,2070 L440.625,2070 L441.4063,2070 L442.1875,2070 L442.9688,2070 L443.75,2070 L444.5313,2070 L445.3125,2070 L446.0938,2070 L446.875,2070 L447.6563,2070 L448.4375,2070 L449.2188,2070 L450,2070 L450.7813,2070 L451.5625,2070 L452.3438,2070 L453.125,2070 L453.9063,2070 L454.6875,2070 L455.4688,2070 L456.25,2070 L457.0313,2070 L457.8125,2070 L458.5938,2070 L459.375,2070 L460.1563,2070 L460.9375,2070 L461.7188,2070 L462.5,2070 L463.2813,2070 L464.0625,2070 L464.8438,2070 L465.625,2070 L466.4063,2070 L467.1875,2070 L467.9688,2070 L468.75,2070 L469.5313,2070 L470.3125,2070 L471.0938,2070 L471.875,2070 L472.6563,2070 L473.4375,2070 L474.2188,2070 L475,2070 L475.7813,2070 L476.5625,2070 L477.3438,2070 L478.125,2070 L478.9063,2070 L479.6875,2070 L480.4688,2070 L481.25,2070 L482.0313,2070 L482.8125,2070 L483.5938,2070 L484.375,2070 L485.1563,2070 L485.9375,2070 L486.7188,2070 L487.5,2070 L488.2813,2070 L489.0625,2070 L489.8438,2070 L490.625,2070 L491.4063,2070 L492.1875,2070 L492.9688,2070 L493.75,2070 L494.5313,2070 L495.3125,2070 L496.0938,2070 L496.875,2070 L497.6563,2070 L498.4375,2070 L499.2188,2070 L500,2070 L500.7813,2070 L501.5625,2070 L502.3438,2070 L503.125,2070 L503.9063,2070 L504.6875,2070 L505.4688,2070 " stroke="blue" fill="none" />
<text x="50" y="2120" font-family="Arial" font-size="12" fill="black">Entropy</text>
<text x="50" y="2135" font-family="Arial" font-size="10" fill="black">0.113514</text>
<text x="50" y="2350" font-family="Arial" font-size="10" fill="black">0.113514</text>
<path d="M50,2340 L50.78125,2340 L51.5625,2340 L52.34375,2340 L53.125,2340 L53.90625,2340 L54.6875,2340 L55.46875,2340 L56.25,2340 L57.03125,2340 L57.8125,2340 L58.59375,2340 L59.375,2340 L60.15625,2340 L60.9375,2340 L61.71875,2340 L62.5,2340 L63.28125,2340 L64.0625,2340 L64.84375,2340 L65.625,2340 L66.40625,2340 L67.1875,2340 L67.96875,2340 L68.75,2340 L69.53125,2340 L70.3125,2340 L71.09375,2340 L71.875,2340 L72.65625,2340 L73.4375,2340 L74.21875,2340 L75,2340 L75.78125,2340 L76.5625,2340 L77.34375,2340 L78.125,2340 L78.90625,2340 L79.6875,2340 L80.46875,2340 L81.25,2340 L82.03125,2340 L82.8125,2340 L83.59375,2340 L84.375,2340 L85.15625,2340 L85.9375,2340 L86.71875,2340 L87.5,2340 L88.28125,2340 L89.0625,2340 L89.84375,2340 L90.625,2340 L91.40625,2340 L92.1875,2340 L92.96875,2340 L93.75,2340 L94.53125,2340 L95.3125,2340 L96.09375,2340 L96.875,2340 L97.65625,2340 L98.4375,2340 L99.21875,2340 L100,2340 L100.7813,2340 L101.5625,2340 L102.3438,2340 L103.125,2340 L103.9063,2340 L104.6875,2340 L105.4688,2340 L106.25,2340 L107.0313,2340 L107.8125,2340 L108.5938,2340 L109.375,2340 L110.1563,2340 L110.9375,2340 L111.7188,2340 L112.5,2340 L113.2813,2340 L114.0625,2340 L114.8438,2340 L115.625,2340 L116.4063,2340 L117.1875,2340 L117.9688,2340 L118.75,2340 L119.5313,2340 L120.3125,2340 L121.0938,2340 L121.875,2340 L122.6563,2340 L123.4375,2340 L124.2188,2340 L125,2340 L125.7813,2340 L126.5625,2340 L127.3438,2340 L128.125,2340 L128.9063,2340 L129.6875,2340 L130.4688,2340 L131.25,2340 L132.0313,2340 L132.8125,2340 L133.5938,2340 L134.375,2340 L135.1563,2340 L135.9375,2340 L136.7188,2340 L137.5,2340 L138.2813,2340 L139.0625,2340 L139.8438,2340 L140.625,2340 L141.4063,2340 L142.1875,2340 L142.9688,2340 L143.75,2340 L144.5313,2340 L145.3125,2340 L146.0938,2340 L146.875,2340 L147.6563,2340 L148.4375,2340 L149.2188,2340 L150,2340 L150.7813,2340 L151.5625,2340 L152.3438,2340 L153.125,2340 L153.9063,2340 L154.6875,2340 L155.4688,2340 L156.25,2340 L157.0313,2340 L157.8125,2340 L158.5938,2340 L159.375,2340 L160.1563,2340 L160.9375,2340 L161.7188,2340 L162.5,2340 L163.2813,2340 L164.0625,2340 L164.8438,2340 L165.625,2340 L166.4063,2340 L167.1875,2340 L167.9688,2340 L168.75,2340 L169.5313,2340 L170.3125,2340 L171.0938,2340 L171.875,2340 L172.6563,2340 L173.4375,2340 L174.2188,2340 L175,2340 L175.7813,2340 L176.5625,2340 L177.3438,2340 L178.125,2340 L178.9063,2340 L179.6875,2340 L180.4688,2340 L181.25,2340 L182.0313,2340 L182.8125,2340 L183.5938,2340 L184.375,2340 L185.1563,2340 L185.9375,2340 L186.7188,2340 L187.5,2340 L188.2813,2340 L189.0625,2340 L189.8438,2340 L190.625,2340 L191.4063,2340 L192.1875,2340 L192.9688,2340 L193.75,2340 L194.5313,2340 L195.3125,2340 L196.0938,2340 L196.875,2340 L197.6563,2340 L198.4375,2340 L199.2188,2340 L200,2340 L200.7813,2340 L201.5625,2340 L202.3438,2340 L203.125,2340 L203.9063,2340 L204.6875,2340 L205.4688,2340 L206.25,2340 L207.0313,2340 L207.8125,2340 L208.5938,2340 L209.375,2340 L210.1563,2340 L210.9375,2340 L211.7188,2340 L212.5,2340 L213.2813,2340 L214.0625,2340 L214.8438,2340 L215.625,2340 L216.4063,2340 L217.1875,2340 L217.9688,2340 L218.75,2340 L219.5313,2340 L220.3125,2340 L221.0938,2340 L221.875,2340 L222.6563,2340 L223.4375,2340 L224.2188,2340 L225,2340 L225.7813,2340 L226.5625,2340 L227.3438,2340 L228.125,2340 L228.9063,2340 L229.6875,2340 L230.4688,2340 L231.25,2340 L232.0313,2340 L232.8125,2340 L233.5938,2340 L234.375,2340 L235.1563,2340 L235.9375,2340 L236.7188,2340 L237.5,2340 L238.2813,2340 L239.0625,2340 L239.8438,2340 L240.625,2340 L241.4063,2340 L242.1875,2340 L242.9688,2340 L243.75,2340 L244.5313,2340 L245.3125,2340 L246.0938,2340 L246.875,2340 L247.6563,2340 L248.4375,2340 L249.2188,2340 L250,2340 L250.7813,2340 L251.5625,2340 L252.3438,2340 L253.125,2340 L253.9063,2340 L254.6875,2340 L255.4688,2340 L256.25,2340 L257.0313,2340 L257.8125,2340 L258.5938,2340 L259.375,2340 L260.1563,2340 L260.9375,2340 L261.7188,2340 L262.5,2340 L263.2813,2340 L264.0625,2340 L264.8438,2340 L265.625,2340 L266.4063,2340 L267.1875,2340 L267.9688,2340 L268.75,2340 L269.5313,2340 L270.3125,2340 L271.0938,2340 L271.875,2340 L272.6563,2340 L273.4375,2340 L274.2188,2340 L275,2340 L275.7813,2340 L276.5625,2340 L277.3438,2340 L278.125,2340 L278.9063,2340 L279.6875,2340 L280.4688,2340 L281.25,2340 L282.0313,2340 L282.8125,2340 L283.5938,2340 L284.375,2340 L285.1563,2340 L285.9375,2340 L286.7188,2340 L287.5,2340 L288.2813,2340 L289.0625,2340 L289.8438,2340 L290.625,2340 L291.4063,2340 L292.1875,2340 L292.9688,2340 L293.75,2340 L294.5313,2340 L295.3125,2340 L296.0938,2340 L296.875,2340 L297.6563,2340 L298.4375,2340 L299.2188,2340 L300,2340 L300.7813,2340 L301.5625,2340 L302.3438,2340 L303.125,2340 L303.9063,2340 L304.6875,2340 L305.4688,2340 L306.25,2340 L307.0313,2340 L307.8125,2340 L308.5938,2340 L309.375,2340 L310.1563,2340 L310.9375,2340 L311.7188,2340 L312.5,2340 L313.2813,2340 L314.0625,2340 L314.8438,2340 L315.625,2340 L316.4063,2340 L317.1875,2340 L317.9688,2340 L318.75,2340 L319.5313,2340 L320.3125,2340 L321.0938,2340 L321.875,2340 L322.6563,2340 L323.4375,2340 L324.2188,2340 L325,2340 L325.7813,2340 L326.5625,2340 L327.3438,2340 L328.125,2340 L328.9063,2340 L329.6875,2340 L330.4688,2340 L331.25,2340 L332.0313,2340 L332.8125,2340 L333.5938,2340 L334.375,2340 L335.1563,2340 L335.9375,2340 L336.7188,2340 L337.5,2340 L338.2813,2340 L339.0625,2340 L339.8438,2340 L340.625,2340 L341.4063,2340 L342.1875,2340 L342.9688,2340 L343.75,2340 L344.5313,2340 L345.3125,2340 L346.0938,2340 L346.875,2340 L347.6563,2340 L348.4375,2340 L349.2188,2340 L350,2340 L350.7813,2340 L351.5625,2340 L352.3438,2340 L353.125,2340 L353.9063,2340 L354.6875,2340 L355.4688,2340 L356.25,2340 L357.0313,2340 L357.8125,2340 L358.5938,2340 L359.375,2340 L360.1563,2340 L360.9375,2340 L361.7188,2340 L362.5,2340 L363.2813,2340 L364.0625,2340 L364.8438,2340 L365.625,2340 L366.4063,2340 L367.1875,2340 L367.9688,2340 L368.75,2340 L369.5313,2340 L370.3125,2340 L371.0938,2340 L371.875,2340 L372.6563,2340 L373.4375,2340 L374.2188,2340 L375,2340 L375.7813,2340 L376.5625,2340 L377.3438,2340 L378.125,2340 L378.9063,2340 L379.6875,2340 L380.4688,2340 L381.25,2340 L382.0313,2340 L382.8125,2340 L383.5938,2340 L384.375,2340 L385.1563,2340 L385.9375,2340 L386.7188,2340 L387.5,2340 L388.2813,2340 L389.0625,2340 L389.8438,2340 L390.625,2340 L391.4063,2340 L392.1875,2340 L392.9688,2340 L393.75,2340 L394.5313,2340 L395.3125,2340 L396.0938,2340 L396.875,2340 L397.6563,2340 L398.4375,2340 L399.2188,2340 L400,2340 L400.7813,2340 L401.5625,2340 L402.3438,2340 L403.125,2340 L403.9063,2340 L404.6875,2340 L405.4688,2340 L406.25,2340 L407.0313,2340 L407.8125,2340 L408.5938,2340 L409.375,2340 L410.1563,2340 L410.9375,2340 L411.7188,2340 L412.5,2340 L413.2813,2340 L414.0625,2340 L414.8438,2340 L415.625,2340 L416.4063,2340 L417.1875,2340 L417.9688,2340 L418.75,2340 L419.5313,2340 L420.3125,2340 L421.0938,2340 L421.875,2340 L422.6563,2340 L423.4375,2340 L424.2188,2340 L425,2340 L425.7813,2340 L426.5625,2340 L427.3438,2340 L428.125,2340 L428.9063,2340 L429.6875,2340 L430.4688,2340 L431.25,2340 L432.0313,2340 L432.8125,2340 L433.5938,2340 L434.375,2340 L435.1563,2340 L435.9375,2340 L436.7188,2340 L437.5,2340 L438.2813,2340 L439.0625,2340 L439.8438,2340 L440.625,2340 L441.4063,2340 L442.1875,2340 L442.9688,2340 L443.75,2340 L444.5313,2340 L445.3125,2340 L446.0938,2340 L446.875,2340 L447.6563,2340 L448.4375,2340 L449.2188,2340 L450,2340 L450.7813,2340 L451.5625,2340 L452.3438,2340 L453.125,2340 L453.9063,2340 L454.6875,2340 L455.4688,2340 L456.25,2340 L457.0313,2340 L457.8125,2340 L458.5938,2340 L459.375,2340 L460.1563,2340 L460.9375,2340 L461.7188,2340 L462.5,2340 L463.2813,2340 L464.0625,2340 L464.8438,2340 L465.625,2340 L466.4063,2340 L467.1875,2340 L467.9688,2340 L468.75,2340 L469.5313,2340 L470.3125,2340 L471.0938,2340 L471.875,2340 L472.6563,2340 L473.4375,2340 L474.2188,2340 L475,2340 L475.7813,2340 L476.5625,2340 L477.3438,2340 L478.125,2340 L478.9063,2340 L479.6875,2340 L480.4688,2340 L481.25,2340 L482.0313,2340 L482.8125,2340 L483.5938,2340 L484.375,2340 L485.1563,2340 L485.9375,2340 L486.7188,2340 L487.5,2340 L488.2813,2340 L489.0625,2340 L489.8438,2340 L490.625,2340 L491.4063,2340 L492.1875,2340 L492.9688,2340 L493.75,2340 L494.5313,2340 L495.3125,2340 L496.0938,2340 L496.875,2340 L497.6563,2340 L498.4375,2340 L499.2188,2340 L500,2340 L500.7813,2340 L501.5625,2340 L502.3438,2340 L503.125,2340 L503.9063,2340 L504.6875,2340 L505.4688,2340 " stroke="blue" fill="none" />
<text x="750" y="770" font-family="Arial" font-size="12" fill="black">Simplified</text>
<text x="750" y="785" font-family="Arial" font-size="10" fill="black">3.296304</text>
<text x="750" y="1000" font-family="Arial" font-size="10" fill="black">1.639974</text>
<path d="M757.0313,896.5583 L764.4531,869.7634 L771.875,913.8021 L779.2969,943.6153 L786.7188,840.1894 L794.1406,938.3903 L801.5625,930.7484 L808.9844,947.1674 L816.4063,990 L823.8281,920.3119 L831.25,935.6237 L838.6719,937.431 L846.0938,914.7621 L853.5156,945.433 L860.9375,936.5974 L868.3594,910.6356 L875.7813,923.692 L883.2031,864.75 L890.625,915.9984 L898.0469,855.5668 L905.4688,956.8641 L912.8906,893.5276 L920.3125,912.4244 L927.7344,923.8832 L935.1563,830.2577 L942.5781,877.4583 L950,896.1662 L957.4219,918.3873 L964.8438,894.9482 L972.2656,932.6798 L979.6875,887.9919 L987.1094,864.7607 L994.5313,944.282 L1001.953,974.2304 L1009.375,962.782 L1016.797,843.077 L1024.219,888.7966 L1031.641,907.7576 L1039.063,846.6832 L1046.484,942.2563 L1053.906,945.385 L1061.328,854.2206 L1068.75,880.5026 L1076.172,917.6733 L1083.594,912.7545 L1091.016,958.7607 L1098.438,917.5875 L1100.781,790 " stroke="blue" fill="none" />
<text x="750" y="1040" font-family="Arial" font-size="12" fill="black">Simplified</text>
<text x="750" y="1055" font-family="Arial" font-size="10" fill="black">195.3333</text>
<text x="750" y="1270" font-family="Arial" font-size="10" fill="black">143</text>
<path d="M757.0313,1162.246 L764.4531,1115.783 L771.875,1177.13 L779.2969,1211.123 L786.7188,1110.553 L794.1406,1200.664 L801.5625,1197.244 L808.9844,1214.945 L816.4063,1260 L823.8281,1179.142 L831.25,1200.463 L838.6719,1199.859 L846.0938,1172.303 L853.5156,1203.882 L860.9375,1210.318 L868.3594,1163.051 L875.7813,1175.32 L883.2031,1110.754 L890.625,1169.286 L898.0469,1122.42 L905.4688,1229.628 L912.8906,1137.104 L920.3125,1162.849 L927.7344,1181.153 L935.1563,1090.841 L942.5781,1146.356 L950,1143.138 L957.4219,1174.516 L964.8438,1157.419 L972.2656,1193.825 L979.6875,1145.551 L987.1094,1119.202 L994.5313,1205.29 L1001.953,1235.863 L1009.375,1222.387 L1016.797,1105.726 L1024.219,1136.299 L1031.641,1160.838 L1039.063,1128.656 L1046.484,1205.29 L1053.906,1205.893 L1061.328,1121.415 L1068.75,1134.69 L1076.172,1165.263 L1083.594,1173.51 L1091.016,1218.364 L1098.438,1173.51 L1100.781,1060 " stroke="blue" fill="none" />
</svg>
