<svg width="2000" height="2500" xmlns="http://www.w3.org/2000/svg">
<text x="10" y="20" font-family="Arial" font-size="26" fill="black"> [HumanWalk] Training Session</text>
<text x="10" y="50" font-family="Arial" font-size="16" fill="black">[Statistics]</text>
<text x="50" y="70" font-family="Arial" font-size="12" fill="black">Started at: 9:56:48 PM, Tuesday, January 23, 2024</text>
<text x="50" y="90" font-family="Arial" font-size="12" fill="black">Finished at: 9:58:29 PM, Tuesday, January 23, 2024</text>
<text x="50" y="110" font-family="Arial" font-size="12" fill="black">Training Session Time: 0 hrs : 1 min : 34 sec</text>
<text x="50" y="130" font-family="Arial" font-size="12" fill="black">Inference Time: 0 hrs : 13 min : 52 sec        [Device: CPU]</text>
<text x="50" y="150" font-family="Arial" font-size="12" fill="black">Update Time: 0 hrs : 0 min : 40 sec        [Per iteration: 0 hrs : 0 min : 10.149 sec]        [Device: GPU]</text>
<text x="50" y="170" font-family="Arial" font-size="12" fill="black">Episode Count: 1057</text>
<text x="50" y="190" font-family="Arial" font-size="12" fill="black">Inference Steps: 16384</text>
<text x="50" y="210" font-family="Arial" font-size="12" fill="black">Iterations: 4</text>
<text x="50" y="230" font-family="Arial" font-size="12" fill="black">Parallel Agents: 1</text>
<text x="50" y="250" font-family="Arial" font-size="12" fill="black">Timescale: 15</text>
<text x="50" y="270" font-family="Arial" font-size="12" fill="black">Trainer: PPO</text>
<text x="10" y="320" font-family="Arial" font-size="16" fill="black">[Hyperparameters]</text>
<text x="50" y="340" font-family="Arial" font-size="12" fill="black">Buffer Size: 4096        [Batch Size: 128       (x32)]</text>
<text x="50" y="360" font-family="Arial" font-size="12" fill="black">Num Epoch: 8</text>
<text x="50" y="380" font-family="Arial" font-size="12" fill="black">Time Horizon: 128</text>
<text x="50" y="400" font-family="Arial" font-size="12" fill="black">Gradient Cliping by Norm: 0.5</text>
<text x="50" y="420" font-family="Arial" font-size="12" fill="black">Learning Rate Schedule: False    </text>
<text x="10" y="470" font-family="Arial" font-size="16" fill="black">[Behaviour]</text>
<text x="50" y="490" font-family="Arial" font-size="12" fill="black">Space Size: 130</text>
<text x="50" y="510" font-family="Arial" font-size="12" fill="black">Continuous Actions: 44 [Standard Deviation: Fixed]     [Value: 1.51]</text>
<text x="50" y="530" font-family="Arial" font-size="12" fill="black">Discrete Actions: 0</text>
<text x="50" y="550" font-family="Arial" font-size="12" fill="black">TargetFPS: 100 (physics update rate)</text>
<text x="50" y="570" font-family="Arial" font-size="12" fill="black">Observations Normalization: False</text>
<text x="10" y="620" font-family="Arial" font-size="16" fill="black">[Decision Requester]</text>
<text x="50" y="640" font-family="Arial" font-size="12" fill="black">Max Step: 0</text>
<text x="50" y="660" font-family="Arial" font-size="12" fill="black">Decision Period: 5      [Actions Between Decisions: True]</text>
<text x="10" y="710" font-family="Arial" font-size="16" fill="black">[Graphs]</text>
<text x="50" y="730" font-family="Arial" font-size="12" fill="black">Episode Reward (1057)</text>
<text x="50" y="745" font-family="Arial" font-size="10" fill="black">1.769355</text>
<text x="50" y="960" font-family="Arial" font-size="10" fill="black">0.2402735</text>
<path d="M50,903.8785 L50.39063,916.8182 L50.78125,905.2597 L51.17188,924.9424 L51.5625,892.8013 L51.95313,899.9457 L52.34375,890.3143 L52.73438,897.509 L53.125,896.3195 L53.51563,913.2054 L53.90625,888.1801 L54.29688,884.5821 L54.6875,903.7864 L55.07813,914.2438 L55.46875,929.395 L55.85938,904.2106 L56.25,906.3353 L56.64063,835.5047 L57.03125,910.8596 L57.42188,912.7895 L57.8125,894.8823 L58.20313,925.432 L58.59375,900.2971 L58.98438,914.2773 L59.375,921.9837 L59.76563,922.0673 L60.15625,918.9251 L60.54688,917.384 L60.9375,920.983 L61.32813,927.5316 L61.71875,874.1536 L62.10938,915.4901 L62.5,910.3521 L62.89063,902.2945 L63.28125,863.0667 L63.67188,905.1014 L64.0625,939.2546 L64.45313,880.5417 L64.84375,907.3951 L65.23438,906.3933 L65.625,916.7161 L66.01563,907.1115 L66.40625,917.8687 L66.79688,923.8156 L67.1875,864.1845 L67.57813,916.9413 L67.96875,913.7333 L68.35938,914.6069 L68.75,897.4987 L69.14063,911.559 L69.53125,911.5343 L69.92188,922.1016 L70.3125,906.537 L70.70313,887.5929 L71.09375,878.981 L71.48438,893.9284 L71.875,937.9361 L72.26563,908.7085 L72.65625,910.5728 L73.04688,931.3146 L73.4375,908.8237 L73.82813,911.8445 L74.21875,880.6617 L74.60938,917.5316 L75,904.2318 L75.39063,899.6877 L75.78125,879.9597 L76.17188,868.729 L76.5625,911.6008 L76.95313,919.8275 L77.34375,922.8052 L77.73438,924.6548 L78.125,941.246 L78.51563,926.6541 L78.90625,901.1989 L79.29688,930.7075 L79.6875,892.6154 L80.07813,876.1985 L80.46875,927.5212 L80.85938,921.3616 L81.25,912.7106 L81.64063,864.7328 L82.03125,904.351 L82.42188,910.6281 L82.8125,904.6142 L83.20313,853.2036 L83.59375,909.0544 L83.98438,927.5691 L84.375,868.4913 L84.76563,928.0507 L85.15625,912.6695 L85.54688,896.8674 L85.9375,907.6594 L86.32813,910.8449 L86.71875,894.7164 L87.10938,891.3976 L87.5,891.0164 L87.89063,898.9563 L88.28125,930.5652 L88.67188,908.786 L89.0625,893.0372 L89.45313,929.8087 L89.84375,909.1641 L90.23438,939.2159 L90.625,883.0547 L91.01563,913.766 L91.40625,904.5216 L91.79688,903.0949 L92.1875,909.3636 L92.57813,914.3604 L92.96875,888.2247 L93.35938,902.3575 L93.75,925.9418 L94.14063,910.4457 L94.53125,907.5837 L94.92188,919.4062 L95.3125,921.3036 L95.70313,894.3049 L96.09375,905.5374 L96.48438,897.8793 L96.875,867.1074 L97.26563,912.8907 L97.65625,883.0607 L98.04688,926.1837 L98.4375,906.4516 L98.82813,888.3019 L99.21875,861.9862 L99.60938,885.3691 L100,912.3741 L100.3906,904.1298 L100.7813,904.7336 L101.1719,864.2 L101.5625,890.1918 L101.9531,859.0089 L102.3438,929.4988 L102.7344,884.2563 L103.125,911.6474 L103.5156,910.3678 L103.9063,928.116 L104.2969,915.2959 L104.6875,891.8541 L105.0781,897.6555 L105.4688,896.8353 L105.8594,897.6361 L106.25,930.5732 L106.6406,924.8345 L107.0313,905.4284 L107.4219,918.8557 L107.8125,893.0105 L108.2031,895.3363 L108.5938,908.7868 L108.9844,934.7314 L109.375,889.4615 L109.7656,841.2221 L110.1563,892.631 L110.5469,911.2325 L110.9375,907.4706 L111.3281,915.7841 L111.7188,886.5706 L112.1094,888.814 L112.5,897.4369 L112.8906,927.6893 L113.2813,883.1609 L113.6719,901.1818 L114.0625,884.7363 L114.4531,909.353 L114.8438,894.041 L115.2344,913.0682 L115.625,898.6152 L116.0156,924.4275 L116.4063,914.9985 L116.7969,925.4167 L117.1875,930.1709 L117.5781,889.7463 L117.9688,932.514 L118.3594,896.8068 L118.75,925.8042 L119.1406,887.4711 L119.5313,905.6767 L119.9219,937.3912 L120.3125,897.3209 L120.7031,932.9261 L121.0938,922.4659 L121.4844,916.8047 L121.875,914.2162 L122.2656,925.8882 L122.6563,913.2241 L123.0469,913.6061 L123.4375,900.271 L123.8281,949.5561 L124.2188,931.3506 L124.6094,886.8304 L125,921.4734 L125.3906,926.5488 L125.7813,921.1132 L126.1719,898.1491 L126.5625,902.2367 L126.9531,909.8756 L127.3438,914.2095 L127.7344,917.8109 L128.125,908.3 L128.5156,931.192 L128.9063,929.2399 L129.2969,918.0185 L129.6875,913.7149 L130.0781,898.8534 L130.4688,882.9825 L130.8594,944.2232 L131.25,894.1458 L131.6406,901.5562 L132.0313,902.7281 L132.4219,894.1265 L132.8125,932.6551 L133.2031,876.3027 L133.5938,928.9354 L133.9844,908.6345 L134.375,914.8932 L134.7656,871.1693 L135.1563,898.1683 L135.5469,874.9235 L135.9375,878.8721 L136.3281,910.0586 L136.7188,923.1692 L137.1094,874.5416 L137.5,866.7664 L137.8906,894.9678 L138.2813,939.8362 L138.6719,897.4648 L139.0625,922.3321 L139.4531,889.6052 L139.8438,886.1319 L140.2344,907.7186 L140.625,900.0909 L141.0156,913.1229 L141.4063,920.9547 L141.7969,891.6187 L142.1875,902.6378 L142.5781,913.0319 L142.9688,929.9883 L143.3594,928.2704 L143.75,892.5611 L144.1406,897.4064 L144.5313,874.5077 L144.9219,915.2087 L145.3125,830.7212 L145.7031,916.185 L146.0938,923.9384 L146.4844,938.5891 L146.875,889.8126 L147.2656,945.5281 L147.6563,932.0917 L148.0469,896.1215 L148.4375,903.7209 L148.8281,890.4381 L149.2188,869.3674 L149.6094,912.6614 L150,915.1575 L150.3906,899.9424 L150.7813,895.622 L151.1719,901.8951 L151.5625,906.0773 L151.9531,869.4007 L152.3438,923.5136 L152.7344,905.0676 L153.125,891.3917 L153.5156,884.842 L153.9063,828.6441 L154.2969,908.6349 L154.6875,907.9678 L155.0781,887.6557 L155.4688,906.4809 L155.8594,920.1549 L156.25,925.415 L156.6406,904.8976 L157.0313,877.3491 L157.4219,897.1905 L157.8125,912.7574 L158.2031,912.198 L158.5938,886.5837 L158.9844,915.4659 L159.375,939.3571 L159.7656,923.0942 L160.1563,909.2269 L160.5469,926.5279 L160.9375,913.4913 L161.3281,886.7054 L161.7188,903.9194 L162.1094,870.0206 L162.5,903.6245 L162.8906,921.8371 L163.2813,872.2689 L163.6719,882.3185 L164.0625,886.5659 L164.4531,898.5238 L164.8438,919.1163 L165.2344,898.9283 L165.625,943.612 L166.0156,896.5795 L166.4063,909.9913 L166.7969,899.6946 L167.1875,894.8156 L167.5781,911.0911 L167.9688,881.4835 L168.3594,894.9911 L168.75,921.6913 L169.1406,891.1479 L169.5313,903.4003 L169.9219,911.2712 L170.3125,909.951 L170.7031,868.3261 L171.0938,899.1581 L171.4844,872.8278 L171.875,906.3997 L172.2656,904.5574 L172.6563,884.1894 L173.0469,852.7345 L173.4375,884.0106 L173.8281,880.8768 L174.2188,881.354 L174.6094,899.0239 L175,876.0247 L175.3906,896.7813 L175.7813,903.348 L176.1719,935.0069 L176.5625,902.6881 L176.9531,907.0262 L177.3438,899.4145 L177.7344,914.9111 L178.125,901.243 L178.5156,877.511 L178.9063,913.1567 L179.2969,931.4753 L179.6875,881.1893 L180.0781,907.3674 L180.4688,907.7912 L180.8594,903.0495 L181.25,871.3738 L181.6406,900.3376 L182.0313,937.6991 L182.4219,909.6332 L182.8125,888.7372 L183.2031,878.562 L183.5938,896.3353 L183.9844,854.17 L184.375,907.8342 L184.7656,883.6193 L185.1563,901.8497 L185.5469,912.8759 L185.9375,903.678 L186.3281,890.606 L186.7188,918.3914 L187.1094,913.9442 L187.5,895.6954 L187.8906,906.4887 L188.2813,926.6558 L188.6719,904.7965 L189.0625,899.1311 L189.4531,921.2332 L189.8438,919.27 L190.2344,908.5934 L190.625,884.5331 L191.0156,904.3527 L191.4063,896.0977 L191.7969,933.0497 L192.1875,941.5675 L192.5781,893.4867 L192.9688,865.7315 L193.3594,909.8062 L193.75,919.8906 L194.1406,871.4344 L194.5313,945.4406 L194.9219,905.165 L195.3125,904.545 L195.7031,906.7852 L196.0938,897.377 L196.4844,896.2456 L196.875,927.4785 L197.2656,915.2562 L197.6563,913.8278 L198.0469,901.2309 L198.4375,885.8965 L198.8281,886.2015 L199.2188,879.4168 L199.6094,910.8564 L200,880.9665 L200.3906,891.1762 L200.7813,890.5692 L201.1719,888.5879 L201.5625,897.0906 L201.9531,897.4807 L202.3438,893.7332 L202.7344,907.6712 L203.125,919.6411 L203.5156,915.3835 L203.9063,895.4221 L204.2969,904.3216 L204.6875,899.6467 L205.0781,910.3483 L205.4688,882.2162 L205.8594,918.2205 L206.25,910.2383 L206.6406,880.6788 L207.0313,933.9963 L207.4219,929.2526 L207.8125,905.7141 L208.2031,901.4086 L208.5938,944.1934 L208.9844,883.173 L209.375,884.7205 L209.7656,905.1401 L210.1563,880.8574 L210.5469,921.7029 L210.9375,922.5649 L211.3281,912.8415 L211.7188,874.308 L212.1094,891.4747 L212.5,927.5296 L212.8906,897.48 L213.2813,894.6896 L213.6719,920.216 L214.0625,904.7736 L214.4531,750 L214.8438,908.264 L215.2344,914.5909 L215.625,894.3853 L216.0156,908.2162 L216.4063,910.7255 L216.7969,912.3537 L217.1875,937.2953 L217.5781,883.4827 L217.9688,792.8257 L218.3594,928.4526 L218.75,836.7276 L219.1406,907.5064 L219.5313,903.3741 L219.9219,871.0905 L220.3125,887.8254 L220.7031,932.1558 L221.0938,926.2759 L221.4844,921.1428 L221.875,927.7179 L222.2656,911.2092 L222.6563,892.5547 L223.0469,901.0581 L223.4375,919.5774 L223.8281,892.7672 L224.2188,887.3225 L224.6094,917.253 L225,906.3386 L225.3906,915.4126 L225.7813,848.2627 L226.1719,907.8345 L226.5625,907.6153 L226.9531,928.705 L227.3438,908.4978 L227.7344,938.1407 L228.125,900.0819 L228.5156,920.097 L228.9063,914.2031 L229.2969,919.17 L229.6875,915.1343 L230.0781,905.206 L230.4688,921.2658 L230.8594,881.0546 L231.25,884.4025 L231.6406,896.0869 L232.0313,877.9158 L232.4219,892.9266 L232.8125,912.2004 L233.2031,903.8022 L233.5938,888.7689 L233.9844,911.0017 L234.375,910.7171 L234.7656,864.0353 L235.1563,911.4551 L235.5469,906.4785 L235.9375,918.1612 L236.3281,930.1735 L236.7188,890.8179 L237.1094,901.8579 L237.5,936.2802 L237.8906,894.5967 L238.2813,894.858 L238.6719,898.9388 L239.0625,911.5144 L239.4531,902.6219 L239.8438,899.311 L240.2344,922.768 L240.625,898.5665 L241.0156,937.25 L241.4063,838.3741 L241.7969,930.2203 L242.1875,897.4526 L242.5781,925.0023 L242.9688,938.4735 L243.3594,941.5674 L243.75,923.899 L244.1406,910.608 L244.5313,895.2438 L244.9219,902.4393 L245.3125,861.5437 L245.7031,903.4835 L246.0938,904.3945 L246.4844,912.3783 L246.875,906.6563 L247.2656,929.1213 L247.6563,909.9999 L248.0469,910.1375 L248.4375,915.9387 L248.8281,925.0941 L249.2188,894.1281 L249.6094,877.6314 L250,908.8901 L250.3906,900.0852 L250.7813,885.7167 L251.1719,886.3225 L251.5625,912.3571 L251.9531,898.482 L252.3438,877.1588 L252.7344,919.3973 L253.125,928.0812 L253.5156,915.4429 L253.9063,940.1113 L254.2969,900.0302 L254.6875,906.577 L255.0781,904.0891 L255.4688,899.1661 L255.8594,878.4442 L256.25,935.8773 L256.6406,919.1268 L257.0313,906.9777 L257.4219,925.427 L257.8125,911.7431 L258.2031,917.7269 L258.5938,904.1296 L258.9844,900.0472 L259.375,895.7037 L259.7656,913.9196 L260.1563,874.5793 L260.5469,860.9964 L260.9375,897.4355 L261.3281,913.3666 L261.7188,940.0278 L262.1094,948.3638 L262.5,906.1048 L262.8906,884.3466 L263.2813,936.5868 L263.6719,911.2335 L264.0625,934.2148 L264.4531,873.9844 L264.8438,926.4887 L265.2344,899.2667 L265.625,934.4161 L266.0156,893.939 L266.4063,909.506 L266.7969,901.8427 L267.1875,886.9614 L267.5781,921.9015 L267.9688,874.6741 L268.3594,910.3176 L268.75,888.3787 L269.1406,912.7828 L269.5313,866.8209 L269.9219,892.5156 L270.3125,897.6224 L270.7031,915.6302 L271.0938,920.9771 L271.4844,835.5239 L271.875,862.3954 L272.2656,889.8478 L272.6563,872.9309 L273.0469,911.9472 L273.4375,903.0247 L273.8281,910.1295 L274.2188,888.6939 L274.6094,899.9315 L275,896.2574 L275.3906,935.337 L275.7813,896.4274 L276.1719,922.4297 L276.5625,916.3929 L276.9531,918.9354 L277.3438,900.5142 L277.7344,944.4868 L278.125,926.0049 L278.5156,916.1397 L278.9063,911.6599 L279.2969,906.2504 L279.6875,870.9988 L280.0781,877.9897 L280.4688,881.3231 L280.8594,907.4918 L281.25,900.3845 L281.6406,884.8592 L282.0313,876.9977 L282.4219,914.4043 L282.8125,909.8729 L283.2031,873.2336 L283.5938,911.8766 L283.9844,926.2666 L284.375,913.4119 L284.7656,941.1169 L285.1563,916.3229 L285.5469,915.5726 L285.9375,935.3063 L286.3281,874.6764 L286.7188,898.5973 L287.1094,888.3266 L287.5,909.2364 L287.8906,892.4019 L288.2813,909.1942 L288.6719,943.8789 L289.0625,915.3405 L289.4531,887.5315 L289.8438,922.5317 L290.2344,920.6299 L290.625,920.2013 L291.0156,939.7042 L291.4063,861.5259 L291.7969,892.2587 L292.1875,902.1704 L292.5781,933.7868 L292.9688,921.4976 L293.3594,907.9831 L293.75,913.5248 L294.1406,924.8684 L294.5313,905.3392 L294.9219,898.3999 L295.3125,883.9949 L295.7031,880.7267 L296.0938,937.0624 L296.4844,921.5579 L296.875,899.6938 L297.2656,942.8378 L297.6563,915.4197 L298.0469,913.6268 L298.4375,890.3173 L298.8281,908.4601 L299.2188,929.7021 L299.6094,914.4351 L300,912.8411 L300.3906,913.6182 L300.7813,896.3635 L301.1719,937.4341 L301.5625,867.6784 L301.9531,935.3041 L302.3438,873.0093 L302.7344,930.2355 L303.125,916.3873 L303.5156,842.8746 L303.9063,891.7663 L304.2969,882.6785 L304.6875,921.7758 L305.0781,925.7256 L305.4688,903.9213 L305.8594,895.1226 L306.25,902.3499 L306.6407,899.3697 L307.0313,903.0921 L307.4219,928.6484 L307.8125,896.313 L308.2031,926.4428 L308.5938,913.3441 L308.9844,882.421 L309.375,904.0369 L309.7656,898.3854 L310.1563,858.6947 L310.5469,919.5827 L310.9375,925.6672 L311.3281,918.767 L311.7188,901.3863 L312.1094,889.2409 L312.5,917.253 L312.8906,915.0475 L313.2813,914.8949 L313.6719,907.7745 L314.0625,906.2095 L314.4532,918.6053 L314.8438,899.3824 L315.2344,922.6277 L315.625,925.3992 L316.0156,896.1328 L316.4063,888.7914 L316.7969,900.8753 L317.1875,871.9366 L317.5781,929.4789 L317.9688,902.9692 L318.3594,919.0362 L318.75,887.7015 L319.1406,909.9383 L319.5313,896.7855 L319.9219,921.1132 L320.3125,910.8635 L320.7031,866.4697 L321.0938,897.9397 L321.4844,908.4983 L321.875,942.3687 L322.2657,872.3802 L322.6563,894.5347 L323.0469,908.7524 L323.4375,893.9518 L323.8281,876.9128 L324.2188,889.2219 L324.6094,944.3125 L325,881.449 L325.3906,939.5914 L325.7813,845.6242 L326.1719,907.1719 L326.5625,888.827 L326.9531,848.3885 L327.3438,925.671 L327.7344,917.5358 L328.125,881.3922 L328.5156,911.6976 L328.9063,944.2373 L329.2969,896.4974 L329.6875,904.3782 L330.0782,881.3982 L330.4688,914.7538 L330.8594,917.6932 L331.25,904.6948 L331.6406,876.7407 L332.0313,881.1698 L332.4219,909.0211 L332.8125,925.9986 L333.2031,904.4728 L333.5938,928.9595 L333.9844,898.131 L334.375,934.4394 L334.7656,927.0591 L335.1563,871.7196 L335.5469,892.8879 L335.9375,910.9412 L336.3281,908.0434 L336.7188,875.8113 L337.1094,906.0508 L337.5,895.4134 L337.8907,834.2952 L338.2813,944.5538 L338.6719,920.9473 L339.0625,906.3407 L339.4531,926.1467 L339.8438,922.1331 L340.2344,910.6916 L340.625,892.895 L341.0156,909.9847 L341.4063,936.222 L341.7969,911.08 L342.1875,934.6807 L342.5781,895.6196 L342.9688,944.5679 L343.3594,884.8495 L343.75,919.1927 L344.1406,899.2188 L344.5313,897.7692 L344.9219,928.9339 L345.3125,887.8817 L345.7032,950 L346.0938,905.1268 L346.4844,897.0945 L346.875,894.2006 L347.2656,857.3536 L347.6563,919.9193 L348.0469,877.247 L348.4375,916.9542 L348.8281,931.8382 L349.2188,887.4139 L349.6094,928.858 L350,925.0425 L350.3906,920.1132 L350.7813,917.883 L351.1719,897.1708 L351.5625,887.971 L351.9531,910.7658 L352.3438,861.9308 L352.7344,903.0205 L353.125,907.2243 L353.5157,901.5964 L353.9063,921.1592 L354.2969,899.8186 L354.6875,910.2169 L355.0781,887.8787 L355.4688,888.5724 L355.8594,896.7048 L356.25,894.9269 L356.6406,905.0011 L357.0313,915.3265 L357.4219,872.742 L357.8125,933.6495 L358.2031,848.5565 L358.5938,870.7842 L358.9844,900.0558 L359.375,921.4101 L359.7656,905.8235 L360.1563,911.1783 L360.5469,868.9897 L360.9375,894.2679 L361.3282,912.6948 L361.7188,880.1693 L362.1094,909.4327 L362.5,934.8427 L362.8906,889.1153 L363.2813,889.374 L363.6719,933.8394 L364.0625,906.3691 L364.4531,856.5848 L364.8438,927.6011 L365.2344,883.6744 L365.625,916.0091 L366.0156,892.2972 L366.4063,934.652 L366.7969,904.67 L367.1875,918.0717 L367.5781,907.5529 L367.9688,899.1533 L368.3594,893.0291 L368.75,904.2611 L369.1407,843.8989 L369.5313,944.9688 L369.9219,909.0365 L370.3125,897.7409 L370.7031,917.0366 L371.0938,908.6266 L371.4844,880.9882 L371.875,907.8945 L372.2656,900.6937 L372.6563,883.2151 L373.0469,925.6288 L373.4375,910.8734 L373.8281,924.8734 L374.2188,917.9662 L374.6094,875.123 L375,907.4327 L375.3906,914.8191 L375.7813,928.4683 L376.1719,901.8628 L376.5625,865.2579 L376.9532,912.356 L377.3438,888.3397 L377.7344,860.5851 L378.125,883.5665 L378.5156,929.9639 L378.9063,929.6528 L379.2969,917.825 L379.6875,921.5079 L380.0781,900.0244 L380.4688,904.692 L380.8594,885.598 L381.25,909.7452 L381.6406,896.4249 L382.0313,917.075 L382.4219,926.1525 L382.8125,879.5348 L383.2031,897.8256 L383.5938,896.3267 L383.9844,913.3108 L384.375,926.151 L384.7657,920.6037 L385.1563,949.5991 L385.5469,870.5424 L385.9375,867.7358 L386.3281,892.8309 L386.7188,930.5616 L387.1094,914.2368 L387.5,877.2812 L387.8906,887.6674 L388.2813,907.6628 L388.6719,889.226 L389.0625,929.7116 L389.4531,897.2693 L389.8438,860.3453 L390.2344,905.5956 L390.625,916.5647 L391.0156,893.2422 L391.4063,875.5246 L391.7969,907.0155 L392.1875,909.3005 L392.5782,907.3374 L392.9688,908.4796 L393.3594,949.4987 L393.75,899.3879 L394.1406,910.838 L394.5313,917.8138 L394.9219,905.6329 L395.3125,917.7273 L395.7031,928.6727 L396.0938,930.453 L396.4844,892.5729 L396.875,877.5134 L397.2656,900.8055 L397.6563,922.0472 L398.0469,901.7554 L398.4375,893.7768 L398.8281,931.4645 L399.2188,894.8339 L399.6094,900.745 L400,909.4224 L400.3907,869.3087 L400.7813,910.8718 L401.1719,896.9083 L401.5625,909.3925 L401.9531,907.358 L402.3438,907.9136 L402.7344,919.3674 L403.125,864.7657 L403.5156,898.8591 L403.9063,902.975 L404.2969,895.141 L404.6875,919.8851 L405.0781,904.1465 L405.4688,922.3019 L405.8594,877.3768 L406.25,900.9296 L406.6406,903.149 L407.0313,902.8445 L407.4219,877.5555 L407.8125,905.1824 L408.2032,925.4755 L408.5938,907.3779 L408.9844,885.8777 L409.375,906.5558 L409.7656,894.7413 L410.1563,898.91 L410.5469,902.6572 L410.9375,898.7141 L411.3281,888.7701 L411.7188,891.5613 L412.1094,925.5492 L412.5,912.2493 L412.8906,877.6624 L413.2813,930.5713 L413.6719,920.8853 L414.0625,900.6326 L414.4531,894.1019 L414.8438,879.1099 L415.2344,909.3259 L415.625,910.3257 L416.0157,925.4937 L416.4063,917.6829 L416.7969,924.2059 L417.1875,905.0106 L417.5781,928.1548 L417.9688,917.5577 L418.3594,907.3945 L418.75,918.4326 L419.1406,921.5162 L419.5313,936.6464 L419.9219,817.9034 L420.3125,939.3096 L420.7031,935.9278 L421.0938,934.2279 L421.4844,901.5203 L421.875,919.7508 L422.2656,861.2607 L422.6563,917.1952 L423.0469,924.0991 L423.4375,865.205 L423.8282,884.1218 L424.2188,904.9885 L424.6094,902.162 L425,891.6918 L425.3906,911.7551 L425.7813,926.0266 L426.1719,892.7919 L426.5625,860.2953 L426.9531,882.1757 L427.3438,898.1069 L427.7344,894.0059 L428.125,931.0532 L428.5156,913.9136 L428.9063,931.9891 L429.2969,909.0827 L429.6875,899.4282 L430.0781,906.9485 L430.4688,928.5363 L430.8594,900.8017 L431.25,911.5518 L431.6407,919.5601 L432.0313,926.1917 L432.4219,894.8868 L432.8125,851.559 L433.2031,892.7072 L433.5938,895.1877 L433.9844,895.7793 L434.375,902.7322 L434.7656,921.1051 L435.1563,875.0401 L435.5469,903.0203 L435.9375,914.3514 L436.3281,922.3282 L436.7188,891.9518 L437.1094,886.3145 L437.5,914.0133 L437.8906,898.1318 L438.2813,931.5198 L438.6719,926.0064 L439.0625,861.6898 L439.4532,914.8425 L439.8438,931.6879 L440.2344,891.0818 L440.625,884.897 L441.0156,888.0975 L441.4063,881.6323 L441.7969,928.7579 L442.1875,891.1136 L442.5781,839.0145 L442.9688,831.6947 L443.3594,878.1949 L443.75,898.7352 L444.1406,886.9042 L444.5313,927.3507 L444.9219,874.1072 L445.3125,873.1118 L445.7031,894.9896 L446.0938,898.7833 L446.4844,913.1423 L446.875,919.3015 L447.2657,896.1257 L447.6563,944.9706 L448.0469,898.7905 L448.4375,878.3566 L448.8281,902.4451 L449.2188,898.8463 L449.6094,871.4143 L450,914.4363 L450.3906,920.992 L450.7813,903.527 L451.1719,924.056 L451.5625,893.6049 L451.9531,908.3902 L452.3438,884.1984 L452.7344,902.3403 L453.125,892.575 L453.5156,895.6723 L453.9063,881.5599 L454.2969,907.7646 L454.6875,873.0485 L455.0782,897.8678 L455.4688,916.9683 L455.8594,898.0628 L456.25,847.6726 L456.6406,909.362 L457.0313,867.2146 L457.4219,914.2573 L457.8125,861.9125 L458.2031,905.5342 L458.5938,880.0106 L458.9844,898.3928 L459.375,893.8668 L459.7656,917.2915 L460.1563,863.4684 L460.5469,927.0127 L460.9375,898.291 L461.3281,887.4102 L461.7188,943.9743 L462.1094,902.8524 L462.5,922.7694 " stroke="blue" fill="none" />
<text x="50" y="1000" font-family="Arial" font-size="12" fill="black">Episode Length (1057)</text>
<text x="50" y="1015" font-family="Arial" font-size="10" fill="black">47</text>
<text x="50" y="1230" font-family="Arial" font-size="10" fill="black">6</text>
<path d="M50,1176.098 L50.39063,1185.854 L50.78125,1176.098 L51.17188,1195.61 L51.5625,1156.585 L51.95313,1166.341 L52.34375,1151.707 L52.73438,1166.341 L53.125,1171.219 L53.51563,1180.976 L53.90625,1161.463 L54.29688,1151.707 L54.6875,1171.219 L55.07813,1180.976 L55.46875,1200.488 L55.85938,1171.219 L56.25,1176.098 L56.64063,1098.049 L57.03125,1180.976 L57.42188,1180.976 L57.8125,1166.341 L58.20313,1195.61 L58.59375,1171.219 L58.98438,1180.976 L59.375,1190.732 L59.76563,1190.732 L60.15625,1185.854 L60.54688,1185.854 L60.9375,1190.732 L61.32813,1195.61 L61.71875,1141.951 L62.10938,1180.976 L62.5,1180.976 L62.89063,1166.341 L63.28125,1132.195 L63.67188,1171.219 L64.0625,1210.244 L64.45313,1156.585 L64.84375,1180.976 L65.23438,1176.098 L65.625,1180.976 L66.01563,1171.219 L66.40625,1185.854 L66.79688,1190.732 L67.1875,1137.073 L67.57813,1185.854 L67.96875,1180.976 L68.35938,1185.854 L68.75,1161.463 L69.14063,1176.098 L69.53125,1180.976 L69.92188,1190.732 L70.3125,1176.098 L70.70313,1156.585 L71.09375,1137.073 L71.48438,1161.463 L71.875,1210.244 L72.26563,1176.098 L72.65625,1180.976 L73.04688,1200.488 L73.4375,1176.098 L73.82813,1176.098 L74.21875,1146.829 L74.60938,1185.854 L75,1171.219 L75.39063,1166.341 L75.78125,1146.829 L76.17188,1132.195 L76.5625,1180.976 L76.95313,1185.854 L77.34375,1190.732 L77.73438,1195.61 L78.125,1210.244 L78.51563,1195.61 L78.90625,1161.463 L79.29688,1200.488 L79.6875,1156.585 L80.07813,1146.829 L80.46875,1195.61 L80.85938,1190.732 L81.25,1180.976 L81.64063,1132.195 L82.03125,1171.219 L82.42188,1176.098 L82.8125,1171.219 L83.20313,1112.683 L83.59375,1171.219 L83.98438,1195.61 L84.375,1137.073 L84.76563,1195.61 L85.15625,1180.976 L85.54688,1166.341 L85.9375,1171.219 L86.32813,1180.976 L86.71875,1166.341 L87.10938,1156.585 L87.5,1156.585 L87.89063,1171.219 L88.28125,1200.488 L88.67188,1176.098 L89.0625,1161.463 L89.45313,1200.488 L89.84375,1176.098 L90.23438,1210.244 L90.625,1141.951 L91.01563,1180.976 L91.40625,1166.341 L91.79688,1171.219 L92.1875,1171.219 L92.57813,1180.976 L92.96875,1161.463 L93.35938,1171.219 L93.75,1195.61 L94.14063,1180.976 L94.53125,1176.098 L94.92188,1185.854 L95.3125,1190.732 L95.70313,1161.463 L96.09375,1176.098 L96.48438,1166.341 L96.875,1132.195 L97.26563,1180.976 L97.65625,1151.707 L98.04688,1195.61 L98.4375,1176.098 L98.82813,1161.463 L99.21875,1132.195 L99.60938,1151.707 L100,1185.854 L100.3906,1171.219 L100.7813,1171.219 L101.1719,1137.073 L101.5625,1156.585 L101.9531,1132.195 L102.3438,1200.488 L102.7344,1151.707 L103.125,1176.098 L103.5156,1176.098 L103.9063,1195.61 L104.2969,1185.854 L104.6875,1156.585 L105.0781,1166.341 L105.4688,1156.585 L105.8594,1161.463 L106.25,1200.488 L106.6406,1190.732 L107.0313,1171.219 L107.4219,1185.854 L107.8125,1161.463 L108.2031,1161.463 L108.5938,1176.098 L108.9844,1205.366 L109.375,1156.585 L109.7656,1117.561 L110.1563,1161.463 L110.5469,1176.098 L110.9375,1176.098 L111.3281,1180.976 L111.7188,1137.073 L112.1094,1151.707 L112.5,1166.341 L112.8906,1195.61 L113.2813,1146.829 L113.6719,1171.219 L114.0625,1146.829 L114.4531,1176.098 L114.8438,1161.463 L115.2344,1180.976 L115.625,1166.341 L116.0156,1195.61 L116.4063,1185.854 L116.7969,1195.61 L117.1875,1200.488 L117.5781,1156.585 L117.9688,1200.488 L118.3594,1151.707 L118.75,1195.61 L119.1406,1151.707 L119.5313,1176.098 L119.9219,1205.366 L120.3125,1161.463 L120.7031,1205.366 L121.0938,1190.732 L121.4844,1180.976 L121.875,1185.854 L122.2656,1195.61 L122.6563,1180.976 L123.0469,1185.854 L123.4375,1171.219 L123.8281,1220 L124.2188,1200.488 L124.6094,1146.829 L125,1190.732 L125.3906,1195.61 L125.7813,1190.732 L126.1719,1171.219 L126.5625,1171.219 L126.9531,1176.098 L127.3438,1185.854 L127.7344,1180.976 L128.125,1176.098 L128.5156,1200.488 L128.9063,1200.488 L129.2969,1190.732 L129.6875,1180.976 L130.0781,1166.341 L130.4688,1151.707 L130.8594,1215.122 L131.25,1156.585 L131.6406,1171.219 L132.0313,1171.219 L132.4219,1161.463 L132.8125,1200.488 L133.2031,1137.073 L133.5938,1200.488 L133.9844,1171.219 L134.375,1185.854 L134.7656,1141.951 L135.1563,1166.341 L135.5469,1137.073 L135.9375,1137.073 L136.3281,1176.098 L136.7188,1190.732 L137.1094,1137.073 L137.5,1127.317 L137.8906,1166.341 L138.2813,1210.244 L138.6719,1161.463 L139.0625,1190.732 L139.4531,1151.707 L139.8438,1151.707 L140.2344,1176.098 L140.625,1171.219 L141.0156,1180.976 L141.4063,1190.732 L141.7969,1151.707 L142.1875,1171.219 L142.5781,1180.976 L142.9688,1200.488 L143.3594,1200.488 L143.75,1161.463 L144.1406,1161.463 L144.5313,1146.829 L144.9219,1180.976 L145.3125,1102.927 L145.7031,1185.854 L146.0938,1190.732 L146.4844,1210.244 L146.875,1156.585 L147.2656,1215.122 L147.6563,1200.488 L148.0469,1166.341 L148.4375,1171.219 L148.8281,1161.463 L149.2188,1127.317 L149.6094,1180.976 L150,1180.976 L150.3906,1166.341 L150.7813,1161.463 L151.1719,1171.219 L151.5625,1176.098 L151.9531,1137.073 L152.3438,1190.732 L152.7344,1171.219 L153.125,1151.707 L153.5156,1161.463 L153.9063,1102.927 L154.2969,1176.098 L154.6875,1180.976 L155.0781,1146.829 L155.4688,1176.098 L155.8594,1190.732 L156.25,1195.61 L156.6406,1176.098 L157.0313,1146.829 L157.4219,1166.341 L157.8125,1176.098 L158.2031,1180.976 L158.5938,1166.341 L158.9844,1185.854 L159.375,1210.244 L159.7656,1190.732 L160.1563,1176.098 L160.5469,1195.61 L160.9375,1180.976 L161.3281,1151.707 L161.7188,1171.219 L162.1094,1141.951 L162.5,1171.219 L162.8906,1190.732 L163.2813,1141.951 L163.6719,1156.585 L164.0625,1146.829 L164.4531,1161.463 L164.8438,1185.854 L165.2344,1166.341 L165.625,1215.122 L166.0156,1151.707 L166.4063,1180.976 L166.7969,1166.341 L167.1875,1166.341 L167.5781,1180.976 L167.9688,1151.707 L168.3594,1161.463 L168.75,1190.732 L169.1406,1146.829 L169.5313,1166.341 L169.9219,1180.976 L170.3125,1176.098 L170.7031,1127.317 L171.0938,1161.463 L171.4844,1146.829 L171.875,1176.098 L172.2656,1171.219 L172.6563,1151.707 L173.0469,1127.317 L173.4375,1156.585 L173.8281,1146.829 L174.2188,1141.951 L174.6094,1166.341 L175,1141.951 L175.3906,1161.463 L175.7813,1171.219 L176.1719,1205.366 L176.5625,1171.219 L176.9531,1171.219 L177.3438,1156.585 L177.7344,1185.854 L178.125,1171.219 L178.5156,1146.829 L178.9063,1180.976 L179.2969,1200.488 L179.6875,1151.707 L180.0781,1171.219 L180.4688,1171.219 L180.8594,1171.219 L181.25,1132.195 L181.6406,1166.341 L182.0313,1205.366 L182.4219,1176.098 L182.8125,1151.707 L183.2031,1146.829 L183.5938,1161.463 L183.9844,1117.561 L184.375,1171.219 L184.7656,1146.829 L185.1563,1166.341 L185.5469,1180.976 L185.9375,1171.219 L186.3281,1161.463 L186.7188,1185.854 L187.1094,1176.098 L187.5,1166.341 L187.8906,1176.098 L188.2813,1195.61 L188.6719,1171.219 L189.0625,1161.463 L189.4531,1190.732 L189.8438,1185.854 L190.2344,1176.098 L190.625,1146.829 L191.0156,1166.341 L191.4063,1166.341 L191.7969,1200.488 L192.1875,1210.244 L192.5781,1161.463 L192.9688,1137.073 L193.3594,1176.098 L193.75,1190.732 L194.1406,1141.951 L194.5313,1215.122 L194.9219,1171.219 L195.3125,1176.098 L195.7031,1176.098 L196.0938,1166.341 L196.4844,1166.341 L196.875,1195.61 L197.2656,1180.976 L197.6563,1185.854 L198.0469,1171.219 L198.4375,1156.585 L198.8281,1146.829 L199.2188,1151.707 L199.6094,1180.976 L200,1141.951 L200.3906,1151.707 L200.7813,1161.463 L201.1719,1161.463 L201.5625,1166.341 L201.9531,1161.463 L202.3438,1161.463 L202.7344,1171.219 L203.125,1185.854 L203.5156,1185.854 L203.9063,1166.341 L204.2969,1171.219 L204.6875,1171.219 L205.0781,1176.098 L205.4688,1151.707 L205.8594,1185.854 L206.25,1180.976 L206.6406,1146.829 L207.0313,1205.366 L207.4219,1200.488 L207.8125,1176.098 L208.2031,1176.098 L208.5938,1215.122 L208.9844,1156.585 L209.375,1151.707 L209.7656,1161.463 L210.1563,1151.707 L210.5469,1190.732 L210.9375,1190.732 L211.3281,1180.976 L211.7188,1137.073 L212.1094,1161.463 L212.5,1195.61 L212.8906,1171.219 L213.2813,1156.585 L213.6719,1190.732 L214.0625,1171.219 L214.4531,1020 L214.8438,1171.219 L215.2344,1180.976 L215.625,1161.463 L216.0156,1176.098 L216.4063,1180.976 L216.7969,1180.976 L217.1875,1205.366 L217.5781,1151.707 L217.9688,1078.537 L218.3594,1200.488 L218.75,1112.683 L219.1406,1180.976 L219.5313,1171.219 L219.9219,1127.317 L220.3125,1156.585 L220.7031,1200.488 L221.0938,1195.61 L221.4844,1190.732 L221.875,1195.61 L222.2656,1180.976 L222.6563,1156.585 L223.0469,1171.219 L223.4375,1185.854 L223.8281,1161.463 L224.2188,1156.585 L224.6094,1185.854 L225,1176.098 L225.3906,1180.976 L225.7813,1112.683 L226.1719,1171.219 L226.5625,1176.098 L226.9531,1200.488 L227.3438,1180.976 L227.7344,1205.366 L228.125,1171.219 L228.5156,1190.732 L228.9063,1185.854 L229.2969,1190.732 L229.6875,1185.854 L230.0781,1171.219 L230.4688,1190.732 L230.8594,1151.707 L231.25,1156.585 L231.6406,1161.463 L232.0313,1146.829 L232.4219,1161.463 L232.8125,1176.098 L233.2031,1171.219 L233.5938,1151.707 L233.9844,1180.976 L234.375,1176.098 L234.7656,1137.073 L235.1563,1180.976 L235.5469,1166.341 L235.9375,1185.854 L236.3281,1200.488 L236.7188,1146.829 L237.1094,1166.341 L237.5,1205.366 L237.8906,1156.585 L238.2813,1166.341 L238.6719,1166.341 L239.0625,1185.854 L239.4531,1176.098 L239.8438,1166.341 L240.2344,1190.732 L240.625,1166.341 L241.0156,1205.366 L241.4063,1107.805 L241.7969,1200.488 L242.1875,1166.341 L242.5781,1195.61 L242.9688,1210.244 L243.3594,1210.244 L243.75,1195.61 L244.1406,1176.098 L244.5313,1151.707 L244.9219,1166.341 L245.3125,1127.317 L245.7031,1176.098 L246.0938,1171.219 L246.4844,1180.976 L246.875,1171.219 L247.2656,1200.488 L247.6563,1180.976 L248.0469,1171.219 L248.4375,1185.854 L248.8281,1195.61 L249.2188,1156.585 L249.6094,1146.829 L250,1180.976 L250.3906,1166.341 L250.7813,1156.585 L251.1719,1151.707 L251.5625,1180.976 L251.9531,1166.341 L252.3438,1151.707 L252.7344,1185.854 L253.125,1195.61 L253.5156,1180.976 L253.9063,1210.244 L254.2969,1171.219 L254.6875,1176.098 L255.0781,1171.219 L255.4688,1161.463 L255.8594,1141.951 L256.25,1205.366 L256.6406,1185.854 L257.0313,1176.098 L257.4219,1195.61 L257.8125,1180.976 L258.2031,1185.854 L258.5938,1176.098 L258.9844,1166.341 L259.375,1161.463 L259.7656,1180.976 L260.1563,1137.073 L260.5469,1122.439 L260.9375,1166.341 L261.3281,1180.976 L261.7188,1210.244 L262.1094,1220 L262.5,1171.219 L262.8906,1146.829 L263.2813,1205.366 L263.6719,1176.098 L264.0625,1205.366 L264.4531,1151.707 L264.8438,1195.61 L265.2344,1166.341 L265.625,1205.366 L266.0156,1161.463 L266.4063,1176.098 L266.7969,1176.098 L267.1875,1151.707 L267.5781,1190.732 L267.9688,1141.951 L268.3594,1180.976 L268.75,1146.829 L269.1406,1180.976 L269.5313,1146.829 L269.9219,1161.463 L270.3125,1166.341 L270.7031,1180.976 L271.0938,1190.732 L271.4844,1093.171 L271.875,1127.317 L272.2656,1161.463 L272.6563,1132.195 L273.0469,1176.098 L273.4375,1166.341 L273.8281,1176.098 L274.2188,1161.463 L274.6094,1166.341 L275,1166.341 L275.3906,1205.366 L275.7813,1166.341 L276.1719,1190.732 L276.5625,1185.854 L276.9531,1185.854 L277.3438,1166.341 L277.7344,1215.122 L278.125,1195.61 L278.5156,1185.854 L278.9063,1180.976 L279.2969,1171.219 L279.6875,1141.951 L280.0781,1141.951 L280.4688,1156.585 L280.8594,1176.098 L281.25,1166.341 L281.6406,1156.585 L282.0313,1132.195 L282.4219,1180.976 L282.8125,1176.098 L283.2031,1146.829 L283.5938,1176.098 L283.9844,1195.61 L284.375,1185.854 L284.7656,1210.244 L285.1563,1180.976 L285.5469,1185.854 L285.9375,1205.366 L286.3281,1137.073 L286.7188,1166.341 L287.1094,1156.585 L287.5,1176.098 L287.8906,1156.585 L288.2813,1176.098 L288.6719,1215.122 L289.0625,1185.854 L289.4531,1156.585 L289.8438,1190.732 L290.2344,1190.732 L290.625,1190.732 L291.0156,1210.244 L291.4063,1137.073 L291.7969,1161.463 L292.1875,1171.219 L292.5781,1205.366 L292.9688,1190.732 L293.3594,1176.098 L293.75,1185.854 L294.1406,1195.61 L294.5313,1171.219 L294.9219,1166.341 L295.3125,1146.829 L295.7031,1146.829 L296.0938,1205.366 L296.4844,1190.732 L296.875,1166.341 L297.2656,1210.244 L297.6563,1185.854 L298.0469,1185.854 L298.4375,1156.585 L298.8281,1180.976 L299.2188,1200.488 L299.6094,1180.976 L300,1180.976 L300.3906,1180.976 L300.7813,1166.341 L301.1719,1205.366 L301.5625,1132.195 L301.9531,1205.366 L302.3438,1137.073 L302.7344,1200.488 L303.125,1185.854 L303.5156,1102.927 L303.9063,1161.463 L304.2969,1151.707 L304.6875,1190.732 L305.0781,1195.61 L305.4688,1166.341 L305.8594,1161.463 L306.25,1171.219 L306.6407,1171.219 L307.0313,1171.219 L307.4219,1200.488 L307.8125,1166.341 L308.2031,1195.61 L308.5938,1180.976 L308.9844,1156.585 L309.375,1166.341 L309.7656,1166.341 L310.1563,1127.317 L310.5469,1190.732 L310.9375,1195.61 L311.3281,1185.854 L311.7188,1171.219 L312.1094,1156.585 L312.5,1180.976 L312.8906,1185.854 L313.2813,1176.098 L313.6719,1176.098 L314.0625,1176.098 L314.4532,1185.854 L314.8438,1156.585 L315.2344,1190.732 L315.625,1190.732 L316.0156,1161.463 L316.4063,1161.463 L316.7969,1176.098 L317.1875,1127.317 L317.5781,1200.488 L317.9688,1166.341 L318.3594,1180.976 L318.75,1156.585 L319.1406,1176.098 L319.5313,1161.463 L319.9219,1190.732 L320.3125,1176.098 L320.7031,1137.073 L321.0938,1166.341 L321.4844,1176.098 L321.875,1210.244 L322.2657,1146.829 L322.6563,1166.341 L323.0469,1171.219 L323.4375,1166.341 L323.8281,1146.829 L324.2188,1161.463 L324.6094,1215.122 L325,1146.829 L325.3906,1210.244 L325.7813,1122.439 L326.1719,1176.098 L326.5625,1156.585 L326.9531,1127.317 L327.3438,1195.61 L327.7344,1185.854 L328.125,1151.707 L328.5156,1176.098 L328.9063,1215.122 L329.2969,1161.463 L329.6875,1171.219 L330.0782,1146.829 L330.4688,1180.976 L330.8594,1185.854 L331.25,1171.219 L331.6406,1141.951 L332.0313,1151.707 L332.4219,1176.098 L332.8125,1195.61 L333.2031,1171.219 L333.5938,1195.61 L333.9844,1156.585 L334.375,1205.366 L334.7656,1195.61 L335.1563,1137.073 L335.5469,1161.463 L335.9375,1176.098 L336.3281,1176.098 L336.7188,1132.195 L337.1094,1176.098 L337.5,1161.463 L337.8907,1107.805 L338.2813,1215.122 L338.6719,1190.732 L339.0625,1176.098 L339.4531,1195.61 L339.8438,1185.854 L340.2344,1180.976 L340.625,1161.463 L341.0156,1176.098 L341.4063,1205.366 L341.7969,1176.098 L342.1875,1205.366 L342.5781,1166.341 L342.9688,1210.244 L343.3594,1146.829 L343.75,1190.732 L344.1406,1166.341 L344.5313,1161.463 L344.9219,1200.488 L345.3125,1156.585 L345.7032,1220 L346.0938,1161.463 L346.4844,1161.463 L346.875,1166.341 L347.2656,1132.195 L347.6563,1185.854 L348.0469,1151.707 L348.4375,1185.854 L348.8281,1200.488 L349.2188,1146.829 L349.6094,1200.488 L350,1195.61 L350.3906,1185.854 L350.7813,1185.854 L351.1719,1166.341 L351.5625,1146.829 L351.9531,1176.098 L352.3438,1127.317 L352.7344,1171.219 L353.125,1176.098 L353.5157,1166.341 L353.9063,1190.732 L354.2969,1166.341 L354.6875,1176.098 L355.0781,1156.585 L355.4688,1151.707 L355.8594,1161.463 L356.25,1156.585 L356.6406,1171.219 L357.0313,1185.854 L357.4219,1141.951 L357.8125,1205.366 L358.2031,1122.439 L358.5938,1132.195 L358.9844,1166.341 L359.375,1190.732 L359.7656,1166.341 L360.1563,1171.219 L360.5469,1137.073 L360.9375,1161.463 L361.3282,1180.976 L361.7188,1141.951 L362.1094,1176.098 L362.5,1200.488 L362.8906,1156.585 L363.2813,1151.707 L363.6719,1205.366 L364.0625,1171.219 L364.4531,1127.317 L364.8438,1195.61 L365.2344,1146.829 L365.625,1185.854 L366.0156,1151.707 L366.4063,1205.366 L366.7969,1171.219 L367.1875,1185.854 L367.5781,1171.219 L367.9688,1166.341 L368.3594,1156.585 L368.75,1171.219 L369.1407,1122.439 L369.5313,1215.122 L369.9219,1171.219 L370.3125,1166.341 L370.7031,1180.976 L371.0938,1171.219 L371.4844,1146.829 L371.875,1176.098 L372.2656,1171.219 L372.6563,1151.707 L373.0469,1195.61 L373.4375,1180.976 L373.8281,1190.732 L374.2188,1185.854 L374.6094,1156.585 L375,1176.098 L375.3906,1180.976 L375.7813,1195.61 L376.1719,1161.463 L376.5625,1127.317 L376.9532,1180.976 L377.3438,1156.585 L377.7344,1137.073 L378.125,1151.707 L378.5156,1200.488 L378.9063,1195.61 L379.2969,1185.854 L379.6875,1190.732 L380.0781,1166.341 L380.4688,1171.219 L380.8594,1156.585 L381.25,1176.098 L381.6406,1166.341 L382.0313,1185.854 L382.4219,1195.61 L382.8125,1151.707 L383.2031,1166.341 L383.5938,1166.341 L383.9844,1180.976 L384.375,1195.61 L384.7657,1190.732 L385.1563,1220 L385.5469,1137.073 L385.9375,1132.195 L386.3281,1166.341 L386.7188,1200.488 L387.1094,1180.976 L387.5,1141.951 L387.8906,1151.707 L388.2813,1176.098 L388.6719,1161.463 L389.0625,1200.488 L389.4531,1166.341 L389.8438,1132.195 L390.2344,1171.219 L390.625,1180.976 L391.0156,1161.463 L391.4063,1141.951 L391.7969,1171.219 L392.1875,1171.219 L392.5782,1176.098 L392.9688,1176.098 L393.3594,1220 L393.75,1166.341 L394.1406,1180.976 L394.5313,1180.976 L394.9219,1171.219 L395.3125,1185.854 L395.7031,1195.61 L396.0938,1200.488 L396.4844,1156.585 L396.875,1146.829 L397.2656,1166.341 L397.6563,1190.732 L398.0469,1171.219 L398.4375,1161.463 L398.8281,1200.488 L399.2188,1166.341 L399.6094,1171.219 L400,1176.098 L400.3907,1132.195 L400.7813,1180.976 L401.1719,1161.463 L401.5625,1176.098 L401.9531,1171.219 L402.3438,1171.219 L402.7344,1185.854 L403.125,1127.317 L403.5156,1166.341 L403.9063,1171.219 L404.2969,1156.585 L404.6875,1190.732 L405.0781,1180.976 L405.4688,1190.732 L405.8594,1151.707 L406.25,1176.098 L406.6406,1171.219 L407.0313,1161.463 L407.4219,1141.951 L407.8125,1171.219 L408.2032,1195.61 L408.5938,1176.098 L408.9844,1151.707 L409.375,1176.098 L409.7656,1166.341 L410.1563,1166.341 L410.5469,1176.098 L410.9375,1166.341 L411.3281,1151.707 L411.7188,1161.463 L412.1094,1195.61 L412.5,1180.976 L412.8906,1146.829 L413.2813,1200.488 L413.6719,1185.854 L414.0625,1166.341 L414.4531,1156.585 L414.8438,1141.951 L415.2344,1176.098 L415.625,1176.098 L416.0157,1195.61 L416.4063,1185.854 L416.7969,1195.61 L417.1875,1176.098 L417.5781,1200.488 L417.9688,1185.854 L418.3594,1176.098 L418.75,1190.732 L419.1406,1185.854 L419.5313,1205.366 L419.9219,1088.293 L420.3125,1210.244 L420.7031,1205.366 L421.0938,1200.488 L421.4844,1166.341 L421.875,1190.732 L422.2656,1127.317 L422.6563,1185.854 L423.0469,1195.61 L423.4375,1122.439 L423.8282,1146.829 L424.2188,1171.219 L424.6094,1171.219 L425,1156.585 L425.3906,1180.976 L425.7813,1195.61 L426.1719,1156.585 L426.5625,1137.073 L426.9531,1146.829 L427.3438,1161.463 L427.7344,1166.341 L428.125,1200.488 L428.5156,1180.976 L428.9063,1200.488 L429.2969,1176.098 L429.6875,1171.219 L430.0781,1176.098 L430.4688,1200.488 L430.8594,1161.463 L431.25,1180.976 L431.6407,1190.732 L432.0313,1195.61 L432.4219,1161.463 L432.8125,1137.073 L433.2031,1156.585 L433.5938,1161.463 L433.9844,1171.219 L434.375,1171.219 L434.7656,1190.732 L435.1563,1146.829 L435.5469,1161.463 L435.9375,1180.976 L436.3281,1190.732 L436.7188,1166.341 L437.1094,1151.707 L437.5,1180.976 L437.8906,1161.463 L438.2813,1200.488 L438.6719,1195.61 L439.0625,1137.073 L439.4532,1180.976 L439.8438,1200.488 L440.2344,1151.707 L440.625,1151.707 L441.0156,1161.463 L441.4063,1151.707 L441.7969,1195.61 L442.1875,1151.707 L442.5781,1098.049 L442.9688,1107.805 L443.3594,1141.951 L443.75,1161.463 L444.1406,1166.341 L444.5313,1195.61 L444.9219,1146.829 L445.3125,1137.073 L445.7031,1151.707 L446.0938,1161.463 L446.4844,1180.976 L446.875,1190.732 L447.2657,1171.219 L447.6563,1215.122 L448.0469,1161.463 L448.4375,1141.951 L448.8281,1171.219 L449.2188,1166.341 L449.6094,1141.951 L450,1180.976 L450.3906,1190.732 L450.7813,1161.463 L451.1719,1195.61 L451.5625,1166.341 L451.9531,1176.098 L452.3438,1156.585 L452.7344,1171.219 L453.125,1156.585 L453.5156,1166.341 L453.9063,1141.951 L454.2969,1171.219 L454.6875,1137.073 L455.0782,1166.341 L455.4688,1185.854 L455.8594,1161.463 L456.25,1102.927 L456.6406,1176.098 L457.0313,1137.073 L457.4219,1185.854 L457.8125,1132.195 L458.2031,1171.219 L458.5938,1141.951 L458.9844,1166.341 L459.375,1156.585 L459.7656,1190.732 L460.1563,1132.195 L460.5469,1195.61 L460.9375,1166.341 L461.3281,1151.707 L461.7188,1215.122 L462.1094,1166.341 L462.5,1195.61 " stroke="blue" fill="none" />
<text x="50" y="1270" font-family="Arial" font-size="12" fill="black">Policy Loss</text>
<text x="50" y="1285" font-family="Arial" font-size="10" fill="black">0.7889731</text>
<text x="50" y="1500" font-family="Arial" font-size="10" fill="black">0.7815249</text>
<path d="M50,1290 L75,1490 L100,1380.147 L125,1360.33 " stroke="blue" fill="none" />
<text x="50" y="1540" font-family="Arial" font-size="12" fill="black">Value Loss</text>
<text x="50" y="1555" font-family="Arial" font-size="10" fill="black">0.0172497</text>
<text x="50" y="1770" font-family="Arial" font-size="10" fill="black">0.01550469</text>
<path d="M50,1760 L75,1560.001 L100,1729.425 L125,1706.808 " stroke="blue" fill="none" />
<text x="50" y="1810" font-family="Arial" font-size="12" fill="black">Learning Rate</text>
<text x="50" y="1825" font-family="Arial" font-size="10" fill="black">0.0003</text>
<text x="50" y="2040" font-family="Arial" font-size="10" fill="black">0.0003</text>
<path d="M50,2030 L75,2030 L100,2030 L125,2030 " stroke="blue" fill="none" />
<text x="50" y="2080" font-family="Arial" font-size="12" fill="black">Entropy</text>
<text x="50" y="2095" font-family="Arial" font-size="10" fill="black">1.515923</text>
<text x="50" y="2310" font-family="Arial" font-size="10" fill="black">1.510002</text>
<path d="M50,2300 L75,2100.781 L100,2100 L125,2100 " stroke="blue" fill="none" />
<text x="750" y="730" font-family="Arial" font-size="12" fill="black">Simplified</text>
<text x="750" y="745" font-family="Arial" font-size="10" fill="black">0.7163832</text>
<text x="750" y="960" font-family="Arial" font-size="10" fill="black">0.4948747</text>
<path d="M757.0313,841.3005 L764.4531,895.3316 L771.875,884.2969 L779.2969,907.6674 L786.7188,843.3962 L794.1406,888.1637 L801.5625,817.65 L808.9844,883.3136 L816.4063,828.1497 L823.8281,950 L831.25,925.6544 L838.6719,831.0106 L846.0938,855.0848 L853.5156,860.6105 L860.9375,872.1831 L868.3594,826.0397 L875.7813,779.1668 L883.2031,859.4961 L890.625,852.7848 L898.0469,888.7779 L905.4688,811.7026 L912.8906,880.3221 L920.3125,750 L927.7344,903.7003 L935.1563,845.4545 L942.5781,883.8638 L950,897.0833 L957.4219,885.1816 L964.8438,889.5882 L972.2656,803.9617 L979.6875,888.6774 L987.1094,852.178 L994.5313,915.9673 L1001.953,907.2 L1009.375,849.0838 L1016.797,880.0398 L1024.219,835.0373 L1031.641,846.3735 L1039.063,862.4327 L1046.484,927.0423 L1053.906,859.3104 L1061.328,812.4191 L1068.75,864.0469 L1076.172,871.4762 L1083.594,842.8854 L1091.016,852.9436 L1098.438,891.4606 L1105.859,850.3638 L1113.281,847.9285 L1120.703,910.8852 L1128.125,835.6116 L1135.547,863.8007 L1142.969,808.9779 L1150.391,831.457 L1157.813,791.1492 L1162.5,858.2405 " stroke="blue" fill="none" />
<text x="750" y="1000" font-family="Arial" font-size="12" fill="black">Simplified</text>
<text x="750" y="1015" font-family="Arial" font-size="10" fill="black">19</text>
<text x="750" y="1230" font-family="Arial" font-size="10" fill="black">13.21053</text>
<path d="M757.0313,1110.909 L764.4531,1169.091 L771.875,1150.909 L779.2969,1170.909 L786.7188,1103.636 L794.1406,1152.727 L801.5625,1089.091 L808.9844,1145.455 L816.4063,1085.455 L823.8281,1220 L831.25,1196.364 L838.6719,1085.455 L846.0938,1121.818 L853.5156,1125.455 L860.9375,1149.091 L868.3594,1089.091 L875.7813,1032.727 L883.2031,1116.364 L890.625,1107.273 L898.0469,1161.818 L905.4688,1074.545 L912.8906,1154.546 L920.3125,1020 L927.7344,1172.727 L935.1563,1118.182 L942.5781,1149.091 L950,1161.818 L957.4219,1152.727 L964.8438,1156.364 L972.2656,1069.091 L979.6875,1154.546 L987.1094,1116.364 L994.5313,1194.545 L1001.953,1176.364 L1009.375,1116.364 L1016.797,1145.455 L1024.219,1098.182 L1031.641,1118.182 L1039.063,1125.455 L1046.484,1189.091 L1053.906,1125.455 L1061.328,1067.273 L1068.75,1118.182 L1076.172,1140 L1083.594,1114.545 L1091.016,1121.818 L1098.438,1152.727 L1105.859,1114.545 L1113.281,1116.364 L1120.703,1180 L1128.125,1096.364 L1135.547,1138.182 L1142.969,1072.727 L1150.391,1094.545 L1157.813,1047.273 L1162.5,1120.758 " stroke="blue" fill="none" />
</svg>
