<svg width="1000" height="2500" xmlns="http://www.w3.org/2000/svg">
<text x="10" y="20" font-family="Arial" font-size="26" fill="black"> [DriveLittleCar] Training Session</text>
<text x="10" y="50" font-family="Arial" font-size="16" fill="black">[Statistics]</text>
<text x="50" y="70" font-family="Arial" font-size="12" fill="black">Started at: 8:41:43 PM, Friday, September 15, 2023</text>
<text x="50" y="90" font-family="Arial" font-size="12" fill="black">Finished at: 8:51:02 PM, Friday, September 15, 2023</text>
<text x="50" y="110" font-family="Arial" font-size="12" fill="black">Training Session Time: 0 hrs : 9 min : 7 sec</text>
<text x="50" y="130" font-family="Arial" font-size="12" fill="black">Inference Time: 3 hrs : 5 min : 17 sec       [Per agent: 0 hrs : 5 min : 48 sec]        [Device: CPU]</text>
<text x="50" y="150" font-family="Arial" font-size="12" fill="black">Policy Update Time: 0 hrs : 3 min : 24 sec        [Per iteration: 0 hrs : 0 min : 14 sec]        [Device: GPU]</text>
<text x="50" y="170" font-family="Arial" font-size="12" fill="black">Inference Time / Training Session Time: 20.188</text>
<text x="50" y="190" font-family="Arial" font-size="12" fill="black">Policy Update Time / Training Session Time: 0.375</text>
<text x="50" y="210" font-family="Arial" font-size="12" fill="black">Inference Steps: 2688000    [Per agent: 84000]</text>
<text x="50" y="230" font-family="Arial" font-size="12" fill="black">Iterations: 14</text>
<text x="50" y="250" font-family="Arial" font-size="12" fill="black">Parallel Agents: 32</text>
<text x="10" y="300" font-family="Arial" font-size="16" fill="black">[Hyperparameters]</text>
<text x="50" y="320" font-family="Arial" font-size="12" fill="black">Buffer Size: 6000        [Batch Size: 300       (x20)]</text>
<text x="50" y="340" font-family="Arial" font-size="12" fill="black">Num Epoch: 8</text>
<text x="50" y="360" font-family="Arial" font-size="12" fill="black">Time Horizon: 128</text>
<text x="50" y="380" font-family="Arial" font-size="12" fill="black">Gradient Cliping Normalization: 0.5</text>
<text x="50" y="400" font-family="Arial" font-size="12" fill="black">Advantages Normalization: True</text>
<text x="50" y="420" font-family="Arial" font-size="12" fill="black">Training Data Shuffle: True</text>
<text x="50" y="440" font-family="Arial" font-size="12" fill="black">Learning Rate Schedule: False    </text>
<text x="10" y="490" font-family="Arial" font-size="16" fill="black">[Behaviour]</text>
<text x="50" y="510" font-family="Arial" font-size="12" fill="black">Space Size: 13</text>
<text x="50" y="530" font-family="Arial" font-size="12" fill="black">Continuous Dim: 3</text>
<text x="50" y="550" font-family="Arial" font-size="12" fill="black">Discrete Branches: 0</text>
<text x="50" y="570" font-family="Arial" font-size="12" fill="black">TargetFPS: 50 (physics update rate)</text>
<text x="50" y="590" font-family="Arial" font-size="12" fill="black">Observations Normalization: False</text>
<text x="50" y="610" font-family="Arial" font-size="12" fill="black">Standard Deviation: Fixed    [Value: 1.25]</text>
<text x="10" y="660" font-family="Arial" font-size="16" fill="black">[Decision Requester]</text>
<text x="50" y="680" font-family="Arial" font-size="12" fill="black">Max Step: 2000</text>
<text x="50" y="700" font-family="Arial" font-size="12" fill="black">Decision Period: 5</text>
<text x="10" y="750" font-family="Arial" font-size="16" fill="black">[Graphs]</text>
<text x="50" y="770" font-family="Arial" font-size="12" fill="black">Episode Reward</text>
<text x="50" y="785" font-family="Arial" font-size="10" fill="black">2.904999</text>
<text x="50" y="1000" font-family="Arial" font-size="10" fill="black">-1.1025</text>
<path d="M50,937.723 L50.39063,938.8459 L50.78125,939.0955 L51.17188,939.5945 L51.5625,890.9357 L51.95313,792.4954 L52.34375,792.7449 L52.73438,793.3687 L53.125,843.3999 L53.51563,793.8679 L53.90625,939.345 L54.29688,894.1797 L54.6875,844.3981 L55.07813,794.9907 L55.46875,794.9907 L55.85938,937.5983 L56.25,895.053 L56.64063,795.6146 L57.03125,796.1136 L57.42188,797.6109 L57.8125,797.7357 L58.20313,797.8604 L58.59375,937.9725 L58.98438,798.1099 L59.375,939.7192 L59.76563,798.7338 L60.15625,798.8585 L60.54688,798.9833 L60.9375,799.2328 L61.32813,938.5964 L61.71875,891.0605 L62.10938,792.9944 L62.5,794.8659 L62.89063,800.8547 L63.28125,801.7281 L63.67188,888.1909 L64.0625,797.8604 L64.45313,802.352 L64.84375,800.231 L65.23438,802.9759 L65.625,889.4385 L66.01563,803.9741 L66.40625,795.6146 L66.79688,804.2235 L67.1875,841.0294 L67.57813,801.1044 L67.96875,797.2365 L68.35938,790.8734 L68.75,791.4973 L69.14063,792.7449 L69.53125,795.4897 L69.92188,794.6163 L70.3125,799.4824 L70.70313,985.5084 L71.09375,939.5945 L71.48438,889.0642 L71.875,939.9688 L72.26563,794.8659 L72.65625,839.4073 L73.04688,849.2639 L73.4375,942.4641 L73.82813,891.3101 L74.21875,799.3575 L74.60938,799.3575 L75,891.4348 L75.39063,799.7319 L75.78125,794.3669 L76.17188,937.4734 L76.5625,838.534 L76.95313,811.7097 L77.34375,846.8934 L77.73438,798.7338 L78.125,800.8548 L78.51563,842.7761 L78.90625,801.7281 L79.29688,801.7281 L79.6875,795.7393 L80.07813,802.7264 L80.46875,937.0992 L80.85938,793.244 L81.25,943.088 L81.64063,808.341 L82.03125,804.8475 L82.42188,795.2403 L82.8125,845.521 L83.20313,796.6127 L83.59375,802.1025 L83.98438,795.1154 L84.375,846.3943 L84.76563,894.3044 L85.15625,803.8492 L85.54688,799.8568 L85.9375,936.6001 L86.32813,895.3026 L86.71875,793.4935 L87.10938,898.0474 L87.5,941.466 L87.89063,798.3594 L88.28125,939.5945 L88.67188,790.4991 L89.0625,798.9833 L89.45313,796.8622 L89.84375,799.1081 L90.23438,847.1429 L90.625,799.9814 L91.01563,800.6052 L91.40625,795.4898 L91.79688,800.8549 L92.1875,797.9851 L92.57813,793.8678 L92.96875,938.4716 L93.35938,794.6164 L93.75,840.2808 L94.14063,841.1541 L94.53125,799.6071 L94.92188,803.974 L95.3125,794.3668 L95.70313,940.8422 L96.09375,793.3687 L96.48438,988.0037 L96.875,800.8547 L97.26563,798.3595 L97.65625,796.1136 L98.04688,986.1323 L98.4375,793.1192 L98.82813,792.3706 L99.21875,889.189 L99.60938,796.7374 L100,937.5983 L100.3906,846.8934 L100.7813,844.7723 L101.1719,893.1816 L101.5625,846.1448 L101.9531,936.3506 L102.3438,793.3687 L102.7344,895.5521 L103.125,842.776 L103.5156,940.8422 L103.9063,891.3101 L104.2969,844.7723 L104.6875,794.2421 L105.0781,937.9725 L105.4688,804.7227 L105.8594,939.4697 L106.25,799.6072 L106.6406,938.222 L107.0313,799.7319 L107.4219,792.9944 L107.8125,795.1155 L108.2031,936.8497 L108.5938,939.0955 L108.9844,794.9907 L109.375,892.0587 L109.7656,801.4786 L110.1563,801.6034 L110.5469,987.5047 L110.9375,846.519 L111.3281,800.6053 L111.7188,793.743 L112.1094,794.1173 L112.5,791.7468 L112.8906,799.1081 L113.2813,845.521 L113.6719,797.9852 L114.0625,945.708 L114.4531,796.1136 L114.8438,806.9685 L115.2344,792.9944 L115.625,796.987 L116.0156,797.3613 L116.4063,802.9758 L116.7969,798.7337 L117.1875,799.9814 L117.5781,798.6089 L117.9688,796.1136 L118.3594,800.4805 L118.75,988.5028 L119.1406,795.7393 L119.5313,801.4786 L119.9219,798.8585 L120.3125,800.4805 L120.7031,804.5979 L121.0938,796.2383 L121.4844,890.1871 L121.875,801.6034 L122.2656,801.1044 L122.6563,794.6164 L123.0469,804.5978 L123.4375,794.6165 L123.8281,793.3687 L124.2188,794.3669 L124.6094,805.7208 L125,800.4805 L125.3906,799.2329 L125.7813,792.4954 L126.1719,798.3595 L126.5625,794.1174 L126.9531,803.1007 L127.3438,795.9889 L127.7344,889.3138 L128.125,887.9413 L128.5156,937.723 L128.9063,893.0568 L129.2969,940.5927 L129.6875,844.0237 L130.0781,986.257 L130.4688,888.5652 L130.8594,846.6439 L131.25,936.9744 L131.6406,938.4716 L132.0313,891.3101 L132.4219,937.723 L132.8125,802.3521 L133.2031,990 L133.5938,799.3577 L133.9844,802.3521 L134.375,802.8511 L134.7656,888.4404 L135.1563,798.609 L135.5469,803.1006 L135.9375,840.5303 L136.3281,937.4734 L136.7188,848.765 L137.1094,792.7449 L137.5,892.5577 L137.8906,792.8697 L138.2813,797.1118 L138.6719,796.6127 L139.0625,843.899 L139.4531,850.886 L139.8438,846.02 L140.2344,796.6127 L140.625,796.2383 L141.0156,796.3631 L141.4063,796.7375 L141.7969,838.6588 L142.1875,805.0969 L142.5781,800.8548 L142.9688,797.6109 L143.3594,798.2347 L143.75,803.8492 L144.1406,799.3577 L144.5313,798.7336 L144.9219,807.2179 L145.3125,888.4404 L145.7031,889.9376 L146.0938,894.4293 L146.4844,840.9045 L146.875,845.0219 L147.2656,800.231 L147.6563,798.9833 L148.0469,798.3595 L148.4375,838.9083 L148.8281,793.9926 L149.2188,798.9833 L149.6094,809.3391 L150,796.7374 L150.3906,844.398 L150.7813,791.6219 L151.1719,803.1006 L151.5625,795.7393 L151.9531,889.8128 L152.3438,794.7411 L152.7344,790.7486 L153.125,793.3687 L153.5156,795.2402 L153.9063,803.7245 L154.2969,888.5652 L154.6875,798.8585 L155.0781,790.8734 L155.4688,937.9725 L155.8594,795.6146 L156.25,894.4292 L156.6406,938.8459 L157.0313,938.222 L157.4219,891.5596 L157.8125,853.2567 L158.2031,795.365 L158.5938,895.053 L158.9844,840.9045 L159.375,843.6495 L159.7656,839.7816 L160.1563,797.7356 L160.5469,937.4734 L160.9375,797.9852 L161.3281,796.1136 L161.7188,936.1011 L162.1094,986.1323 L162.5,939.4697 L162.8906,796.1136 L163.2813,794.8659 L163.6719,845.5211 L164.0625,796.2384 L164.4531,792.3705 L164.8438,793.6182 L165.2344,801.4786 L165.625,798.9833 L166.0156,795.2402 L166.4063,890.6862 L166.7969,799.108 L167.1875,891.1853 L167.5781,939.5945 L167.9688,939.9688 L168.3594,801.3539 L168.75,792.9944 L169.1406,842.9008 L169.5313,796.9869 L169.9219,798.1099 L170.3125,797.9851 L170.7031,793.9926 L171.0938,797.2366 L171.4844,794.6165 L171.875,889.9376 L172.2656,940.9669 L172.6563,800.231 L173.0469,986.7561 L173.4375,800.8548 L173.8281,795.9888 L174.2188,940.3431 L174.6094,800.1061 L175,797.4861 L175.3906,790.9982 L175.7813,798.609 L176.1719,799.3575 L176.5625,845.3962 L176.9531,791.2477 L177.3438,802.4768 L177.7344,800.3557 L178.125,800.1063 L178.5156,799.6072 L178.9063,810.3372 L179.2969,802.1025 L179.6875,799.2328 L180.0781,940.0936 L180.4688,796.488 L180.8594,940.0936 L181.25,793.743 L181.6406,796.2383 L182.0313,792.3706 L182.4219,805.0969 L182.8125,801.2291 L183.2031,798.7338 L183.5938,792.6201 L183.9844,800.231 L184.375,800.3558 L184.7656,844.6476 L185.1563,803.9739 L185.5469,799.3576 L185.9375,806.7189 L186.3281,887.6918 L186.7188,801.2292 L187.1094,801.1044 L187.5,893.5558 L187.8906,936.2258 L188.2813,937.4734 L188.6719,889.0642 L189.0625,937.2239 L189.4531,802.6016 L189.8438,842.0275 L190.2344,801.2291 L190.625,840.655 L191.0156,839.1578 L191.4063,803.3501 L191.7969,844.8972 L192.1875,840.0312 L192.5781,937.0992 L192.9688,987.1304 L193.3594,796.2384 L193.75,790.9982 L194.1406,795.9889 L194.5313,796.2385 L194.9219,844.1486 L195.3125,794.4916 L195.7031,794.1174 L196.0938,790.4991 L196.4844,791.2477 L196.875,792.7449 L197.2656,791.7468 L197.6563,794.7412 L198.0469,793.9926 L198.4375,792.2458 L198.8281,791.9963 L199.2188,792.9944 L199.6094,798.6089 L200,793.1192 L200.3906,793.244 L200.7813,791.9963 L201.1719,793.6183 L201.5625,793.6183 L201.9531,792.3706 L202.3438,793.8679 L202.7344,793.4935 L203.125,839.4073 L203.5156,792.9944 L203.9063,795.4898 L204.2969,794.4916 L204.6875,793.1192 L205.0781,793.6183 L205.4688,939.5945 L205.8594,888.1909 L206.25,839.6569 L206.6406,795.3651 L207.0313,838.534 L207.4219,791.1229 L207.8125,793.743 L208.2031,844.5228 L208.5938,796.2384 L208.9844,794.2421 L209.375,793.4935 L209.7656,792.9944 L210.1563,792.2458 L210.5469,790.8734 L210.9375,793.1193 L211.3281,791.7468 L211.7188,793.1192 L212.1094,791.622 L212.5,792.3706 L212.8906,791.4972 L213.2813,790.9982 L213.6719,792.9944 L214.0625,793.8678 L214.4531,792.2458 L214.8438,793.244 L215.2344,790.9982 L215.625,792.6201 L216.0156,842.277 L216.4063,791.7468 L216.7969,793.743 L217.1875,791.2477 L217.5781,792.4954 L217.9688,791.1229 L218.3594,790.3743 L218.75,791.3724 L219.1406,794.4917 L219.5313,792.2458 L219.9219,794.6164 L220.3125,793.3688 L220.7031,791.6219 L221.0938,790 L221.4844,791.4972 L221.875,792.7449 L222.2656,792.3706 L222.6563,792.6201 L223.0469,792.7449 L223.4375,792.121 L223.8281,791.8715 L224.2188,793.743 L224.6094,791.7467 L225,792.2458 L225.3906,791.2477 L225.7813,792.8697 L226.1719,792.3706 L226.5625,794.7412 L226.9531,797.2365 L227.3438,939.0955 L227.7344,935.7267 L228.125,888.6899 L228.5156,891.1852 L228.9063,936.4753 L229.2969,840.9046 L229.6875,888.3156 L230.0781,793.244 L230.4688,794.4916 L230.8594,936.9744 L231.25,791.9963 L231.6406,794.2421 L232.0313,794.9907 L232.4219,791.3724 L232.8125,792.3706 L233.2031,792.8697 L233.5938,794.4916 L233.9844,791.8715 L234.375,793.6183 L234.7656,790.2496 L235.1563,794.2421 L235.5469,796.3632 L235.9375,795.1155 L236.3281,790.4991 L236.7188,795.365 L237.1094,791.2477 L237.5,790.6238 L237.8906,792.6202 L238.2813,793.244 L238.6719,791.1229 L239.0625,792.3705 L239.4531,790.4991 L239.8438,794.3669 L240.2344,842.7761 L240.625,888.3156 L241.0156,793.1191 L241.4063,793.244 L241.7969,793.3687 L242.1875,793.6183 L242.5781,791.7468 L242.9688,793.8678 L243.3594,793.9926 L243.75,793.1192 L244.1406,842.6514 L244.5313,790.8734 L244.9219,794.7411 L245.3125,795.2402 L245.7031,790.6238 L246.0938,794.2421 L246.4844,792.4954 L246.875,795.6146 L247.2656,796.1136 L247.6563,790.8734 L248.0469,794.6165 L248.4375,791.3724 L248.8281,841.4037 L249.2188,791.4972 L249.6094,888.9395 L250,792.9944 L250.3906,841.6532 L250.7813,793.743 L251.1719,793.244 L251.5625,791.1229 L251.9531,840.7798 L252.3438,794.3669 L252.7344,793.1192 L253.125,793.8678 L253.5156,793.6183 L253.9063,791.9963 L254.2969,792.2458 L254.6875,791.9963 L255.0781,792.121 L255.4688,793.4935 L255.8594,791.3724 L256.25,790.6238 L256.6406,790.8734 L257.0313,792.8696 L257.4219,840.0312 L257.8125,793.743 L258.2031,792.6201 L258.5938,791.4972 L258.9844,790.9982 L259.375,792.7449 L259.7656,790.4991 L260.1563,794.6164 L260.5469,795.6146 L260.9375,938.222 L261.3281,792.9944 L261.7188,793.6183 L262.1094,791.9963 L262.5,797.6108 L262.8906,790.7486 L263.2813,889.5633 L263.6719,794.6164 L264.0625,845.7705 L264.4531,843.5247 L264.8438,887.6918 L265.2344,891.0605 L265.625,791.9963 L266.0156,794.6164 L266.4063,795.3651 L266.7969,794.4917 L267.1875,793.3688 L267.5781,791.8715 L267.9688,839.1578 L268.3594,937.2239 L268.75,790.8734 L269.1406,888.6899 L269.5313,936.3506 L269.9219,939.4697 L270.3125,798.4843 L270.7031,791.9963 L271.0938,793.244 L271.4844,791.7467 L271.875,797.4861 L272.2656,938.7211 L272.6563,793.8678 L273.0469,793.3687 L273.4375,795.9889 L273.8281,937.723 L274.2188,794.866 L274.6094,794.9907 L275,939.9688 L275.3906,792.6201 L275.7813,798.7338 L276.1719,939.0955 L276.5625,939.8441 L276.9531,794.9907 L277.3438,790.8734 L277.7344,839.033 L278.125,938.3469 L278.5156,797.1118 L278.9063,791.4972 L279.2969,791.8715 L279.6875,790.2495 L280.0781,841.9026 L280.4688,841.9027 L280.8594,791.9963 L281.25,845.2714 L281.6406,792.8697 L282.0313,790.8734 L282.4219,840.2807 L282.8125,937.723 L283.2031,843.5247 L283.5938,890.9357 L283.9844,791.6219 L284.375,795.3651 L284.7656,842.1522 L285.1563,986.8809 L285.5469,939.2202 L285.9375,795.7393 L286.3281,843.1504 L286.7188,792.4954 L287.1094,937.2239 L287.5,792.7449 L287.8906,838.534 L288.2813,794.866 L288.6719,792.7449 L289.0625,939.9688 L289.4531,846.8935 L289.8438,794.1173 L290.2344,795.6146 L290.625,798.6089 L291.0156,792.9944 L291.4063,792.121 L291.7969,792.4954 L292.1875,793.6183 L292.5781,936.9744 L292.9688,790.8734 L293.3594,793.244 L293.75,791.7467 L294.1406,791.2477 L294.5313,793.244 L294.9219,791.7468 L295.3125,793.6183 L295.7031,792.2458 L296.0938,796.7375 L296.4844,791.8715 L296.875,842.4018 L297.2656,794.2421 L297.6563,841.2789 L298.0469,838.9083 L298.4375,795.7393 L298.8281,795.9889 L299.2188,842.4018 L299.6094,793.743 L300,794.1174 L300.3906,797.6108 L300.7813,796.1136 L301.1719,795.6146 L301.5625,795.9888 L301.9531,892.3082 L302.3438,890.0624 L302.7344,792.8696 L303.125,794.3669 L303.5156,792.4954 L303.9063,795.2403 L304.2969,845.8953 L304.6875,791.3724 L305.0781,792.4954 L305.4688,889.4385 L305.8594,791.622 L306.25,841.2788 L306.6407,793.6183 L307.0313,791.622 L307.4219,798.4842 L307.8125,840.655 L308.2031,795.9889 L308.5938,937.0992 L308.9844,798.7338 L309.375,796.1137 L309.7656,798.1099 L310.1563,793.743 L310.5469,794.1173 L310.9375,795.1155 L311.3281,846.0201 L311.7188,797.8604 L312.1094,794.1174 L312.5,796.6127 L312.8906,792.4954 L313.2813,797.7356 L313.6719,793.8678 L314.0625,798.6089 L314.4532,792.3706 L314.8438,988.0037 L315.2344,790.9982 L315.625,792.3705 L316.0156,795.9888 L316.4063,796.9871 L316.7969,796.2385 L317.1875,792.9944 L317.5781,890.9357 L317.9688,793.1192 L318.3594,795.4897 L318.75,792.4954 L319.1406,795.1155 L319.5313,795.6145 L319.9219,795.1155 L320.3125,938.0973 L320.7031,795.9888 L321.0938,795.1155 L321.4844,794.2421 L321.875,799.8567 L322.2657,793.743 L322.6563,794.2421 L323.0469,793.8678 L323.4375,797.6108 L323.8281,792.6201 L324.2188,839.4073 L324.6094,791.3724 L325,797.9852 L325.3906,794.7412 L325.7813,892.6825 L326.1719,798.1099 L326.5625,793.3688 L326.9531,796.8622 L327.3438,798.2347 L327.7344,793.244 L328.125,938.222 L328.5156,795.8641 L328.9063,941.5908 L329.2969,791.8715 L329.6875,840.5303 L330.0782,792.6201 L330.4688,794.3669 L330.8594,798.2347 L331.25,792.4954 L331.6406,793.6182 L332.0313,797.3613 L332.4219,795.8641 L332.8125,793.1192 L333.2031,791.9963 L333.5938,793.8679 L333.9844,798.4843 L334.375,796.3632 L334.7656,794.9907 L335.1563,795.4897 L335.5469,792.9944 L335.9375,793.3687 L336.3281,936.6001 L336.7188,796.1136 L337.1094,793.244 L337.5,797.1118 L337.8907,791.9963 L338.2813,795.365 L338.6719,839.2826 L339.0625,841.0293 L339.4531,839.1578 L339.8438,891.5596 L340.2344,841.778 L340.625,840.2808 L341.0156,839.4073 L341.4063,888.8147 L341.7969,796.3632 L342.1875,795.6146 L342.5781,795.1155 L342.9688,792.3705 L343.3594,793.4935 L343.75,794.1174 L344.1406,796.488 L344.5313,937.8478 L344.9219,794.7411 L345.3125,800.1062 L345.7032,792.9944 L346.0938,792.4954 L346.4844,791.622 L346.875,937.8478 L347.2656,795.4897 L347.6563,797.7356 L348.0469,891.9338 L348.4375,792.4954 L348.8281,937.2239 L349.2188,793.6183 L349.6094,791.7467 L350,791.8715 L350.3906,793.6182 L350.7813,793.8678 L351.1719,791.4972 L351.5625,793.3687 L351.9531,793.4935 L352.3438,791.4972 L352.7344,795.3651 L353.125,790.9982 L353.5157,790.6238 L353.9063,794.3669 L354.2969,790.9982 L354.6875,793.4935 L355.0781,799.4824 L355.4688,794.866 L355.8594,794.8659 L356.25,798.2347 L356.6406,795.1155 L357.0313,794.6164 L357.4219,802.1025 L357.8125,796.1136 L358.2031,794.6164 L358.5938,841.2789 L358.9844,797.6108 L359.375,796.2384 L359.7656,796.987 L360.1563,797.4861 L360.5469,791.1229 L360.9375,795.1155 L361.3282,793.6183 L361.7188,937.3487 L362.1094,793.6182 L362.5,792.4954 L362.8906,791.2477 L363.2813,839.6569 L363.6719,794.1173 L364.0625,839.7817 L364.4531,792.121 L364.8438,793.4935 L365.2344,798.2347 L365.625,793.4935 L366.0156,839.7817 L366.4063,792.8696 L366.7969,938.9706 L367.1875,793.8678 L367.5781,803.475 L367.9688,940.7174 L368.3594,793.6183 L368.75,795.3651 L369.1407,795.2403 L369.5313,798.2347 L369.9219,798.1099 L370.3125,796.4879 L370.7031,797.9852 L371.0938,795.1155 L371.4844,794.866 L371.875,793.743 L372.2656,794.1173 L372.6563,793.244 L373.0469,791.622 L373.4375,792.2458 L373.8281,798.1099 L374.2188,841.9027 L374.6094,791.1229 L375,938.3469 L375.3906,841.2789 L375.7813,797.9852 L376.1719,794.7411 L376.5625,939.9688 L376.9532,839.7817 L377.3438,842.5266 L377.7344,792.9944 L378.125,940.8422 L378.5156,794.9907 L378.9063,792.8696 L379.2969,795.6146 L379.6875,793.244 L380.0781,889.4385 L380.4688,794.7411 L380.8594,938.9706 L381.25,792.7449 L381.6406,840.655 L382.0313,888.6899 L382.4219,795.6145 L382.8125,791.1229 L383.2031,791.8715 L383.5938,790.8734 L383.9844,794.7412 L384.375,800.231 L384.7657,795.6145 L385.1563,797.9852 L385.5469,792.6201 L385.9375,793.8678 L386.3281,792.3705 L386.7188,791.8715 L387.1094,792.7449 L387.5,797.7356 L387.8906,792.4954 L388.2813,793.6182 L388.6719,793.4935 L389.0625,793.743 L389.4531,791.8715 L389.8438,793.6182 L390.2344,794.9907 L390.625,792.8697 L391.0156,790.8734 L391.4063,793.6183 L391.7969,796.8622 L392.1875,796.2384 L392.5782,791.9963 L392.9688,793.743 L393.3594,795.3651 L393.75,794.4916 L394.1406,795.9889 L394.5313,790.1248 L394.9219,790.9982 L395.3125,795.365 L395.7031,840.7798 L396.0938,793.4935 L396.4844,793.4935 L396.875,797.4861 L397.2656,794.3669 L397.6563,795.9888 L398.0469,795.9888 L398.4375,797.8604 L398.8281,791.1229 L399.2188,792.6201 L399.6094,794.6165 L400,793.1192 L400.3907,795.2402 L400.7813,795.7393 L401.1719,791.4972 L401.5625,797.2366 L401.9531,797.7356 L402.3438,800.8548 L402.7344,843.2751 L403.125,841.9027 L403.5156,796.6127 L403.9063,793.9926 L404.2969,892.1834 L404.6875,796.7374 L405.0781,938.5964 L405.4688,790.2495 L405.8594,839.6569 L406.25,889.9376 L406.6406,793.244 L407.0313,799.7319 L407.4219,792.4954 L407.8125,793.6182 L408.2032,840.9045 L408.5938,795.7393 L408.9844,793.8678 L409.375,795.1155 L409.7656,796.2384 L410.1563,794.2421 L410.5469,891.6843 L410.9375,790.9982 L411.3281,890.9357 L411.7188,790.7486 L412.1094,791.622 L412.5,793.9926 L412.8906,798.7338 L413.2813,800.73 L413.6719,793.3687 L414.0625,796.2383 L414.4531,799.3577 L414.8438,794.9907 L415.2344,795.8641 L415.625,790.3743 L416.0157,791.1229 L416.4063,791.4972 L416.7969,805.8455 L417.1875,794.3669 L417.5781,791.3724 L417.9688,793.6183 L418.3594,796.7375 L418.75,792.9944 L419.1406,797.6109 L419.5313,841.6532 L419.9219,792.6201 L420.3125,842.0275 L420.7031,793.743 L421.0938,794.3669 L421.4844,794.7412 L421.875,937.8478 L422.2656,794.4916 L422.6563,988.7523 L423.0469,795.1154 L423.4375,795.864 L423.8282,791.7468 L424.2188,794.7412 L424.6094,796.7374 L425,803.2253 L425.3906,936.7249 L425.7813,937.723 L426.1719,798.1099 L426.5625,795.3651 L426.9531,796.2383 L427.3438,792.9944 L427.7344,792.2458 L428.125,801.3539 L428.5156,797.2365 L428.9063,795.2402 L429.2969,791.2477 L429.6875,797.6108 L430.0781,795.7393 L430.4688,795.365 L430.8594,792.9944 L431.25,938.4716 L431.6407,794.9907 L432.0313,797.7357 L432.4219,796.8622 L432.8125,937.5983 L433.2031,794.7411 L433.5938,797.8604 L433.9844,843.4 L434.375,795.9889 L434.7656,791.1229 L435.1563,795.2402 L435.5469,795.2402 L435.9375,798.4843 L436.3281,793.3687 L436.7188,795.6146 L437.1094,793.3687 L437.5,797.2365 L437.8906,793.743 L438.2813,794.9907 L438.6719,803.3501 L439.0625,986.257 L439.4532,798.7338 L439.8438,794.6165 L440.2344,797.8604 L440.625,938.7211 L441.0156,792.121 L441.4063,792.8696 L441.7969,842.4017 L442.1875,792.3705 L442.5781,889.9376 L442.9688,791.3724 L443.3594,791.7467 L443.75,795.1155 L444.1406,792.6201 L444.5313,796.1136 L444.9219,891.3101 L445.3125,793.6183 L445.7031,794.7411 L446.0938,799.2328 L446.4844,799.9815 L446.875,791.9963 L447.2657,794.7411 L447.6563,795.2402 L448.0469,790.9982 L448.4375,888.9395 L448.8281,792.9944 L449.2188,841.5284 L449.6094,937.723 L450,841.2789 L450.3906,795.6145 L450.7813,801.1044 L451.1719,799.9814 L451.5625,790.8734 L451.9531,791.3724 L452.3438,792.9944 L452.7344,840.1559 L453.125,888.1909 L453.5156,796.4879 L453.9063,792.7449 L454.2969,793.3687 L454.6875,795.8641 L455.0782,791.3724 L455.4688,793.6182 L455.8594,839.6569 L456.25,849.1391 L456.6406,792.121 L457.0313,790.6238 L457.4219,799.9814 L457.8125,796.2383 L458.2031,791.9963 L458.5938,797.8604 L458.9844,793.9926 L459.375,792.3705 L459.7656,791.7468 L460.1563,793.6182 L460.5469,839.033 L460.9375,793.6183 L461.3281,940.5927 L461.7188,797.7356 L462.1094,793.8677 L462.5,796.7375 L462.8907,794.4916 L463.2813,793.8678 L463.6719,794.1173 L464.0625,795.1155 L464.4531,792.2458 L464.8438,794.9907 L465.2344,936.3506 L465.625,841.6532 L466.0156,793.9926 L466.4063,938.0973 L466.7969,791.1229 L467.1875,794.7411 L467.5781,795.6145 L467.9688,796.7375 L468.3594,796.6127 L468.75,842.7761 L469.1406,790.6238 L469.5313,792.1211 L469.9219,794.866 L470.3125,795.2403 L470.7032,849.8879 L471.0938,793.8678 L471.4844,797.3613 L471.875,797.9852 L472.2656,793.6182 L472.6563,938.9706 L473.0469,795.7393 L473.4375,795.8641 L473.8281,798.7338 L474.2188,797.2365 L474.6094,795.2402 L475,890.0624 L475.3906,843.5247 L475.7813,792.6202 L476.1719,890.3119 L476.5625,792.2458 L476.9531,793.9926 L477.3438,840.9045 L477.7344,889.688 L478.125,794.9907 L478.5157,798.4842 L478.9063,937.5983 L479.2969,792.3706 L479.6875,799.2328 L480.0781,797.9852 L480.4688,840.2808 L480.8594,790.3743 L481.25,844.5229 L481.6406,800.231 L482.0313,797.6109 L482.4219,796.1136 L482.8125,889.4385 L483.2031,799.9814 L483.5938,799.7319 L483.9844,791.9963 L484.375,795.9889 L484.7656,792.121 L485.1563,792.121 L485.5469,792.9944 L485.9375,792.3706 L486.3282,840.9045 L486.7188,793.244 L487.1094,797.3613 L487.5,840.4055 L487.8906,842.5266 L488.2813,987.879 L488.6719,792.7449 L489.0625,800.9796 L489.4531,796.2384 L489.8438,795.365 L490.2344,792.6201 L490.625,800.1062 L491.0156,795.8641 L491.4063,797.2365 L491.7969,792.3706 L492.1875,796.488 L492.5781,796.6127 L492.9688,796.6126 L493.3594,796.488 L493.75,840.0312 L494.1407,790.8734 L494.5313,937.3487 L494.9219,794.1173 L495.3125,792.3705 L495.7031,791.8715 L496.0938,791.9963 L496.4844,796.6127 L496.875,795.365 L497.2656,791.4972 L497.6563,792.6201 L498.0469,792.3706 L498.4375,796.3632 L498.8281,794.4916 L499.2188,793.8678 L499.6094,801.3539 L500,795.7394 L500.3906,791.622 L500.7813,796.987 L501.1719,793.6183 L501.5625,791.1229 L501.9532,792.3705 L502.3438,793.244 L502.7344,796.3632 L503.125,795.2402 L503.5156,839.1578 L503.9063,795.4897 L504.2969,793.8679 L504.6875,797.9852 L505.0781,796.9871 L505.4688,791.7468 L505.8594,796.6127 L506.25,843.5247 L506.6406,794.2421 L507.0313,892.8073 L507.4219,796.1136 L507.8125,795.2402 L508.2031,795.8641 L508.5938,796.6127 L508.9844,795.1155 L509.375,842.6513 L509.7657,936.7249 L510.1563,841.2789 L510.5469,840.1559 L510.9375,795.6145 L511.3281,795.8641 L511.7188,891.1853 L512.1094,795.2402 L512.5,936.7249 L512.8906,791.4973 L513.2813,887.1927 L513.6719,890.4366 L514.0625,799.7319 L514.4531,844.6475 L514.8438,888.3156 L515.2344,793.244 L515.625,840.2808 L516.0156,796.2384 " stroke="blue" fill="none" />
<text x="50" y="1040" font-family="Arial" font-size="12" fill="black">Episode Length</text>
<text x="50" y="1055" font-family="Arial" font-size="10" fill="black">213</text>
<text x="50" y="1270" font-family="Arial" font-size="10" fill="black">6</text>
<path d="M50,1243.575 L50.39063,1234.879 L50.78125,1232.947 L51.17188,1229.082 L51.5625,1219.42 L51.95313,1208.792 L52.34375,1206.86 L52.73438,1202.029 L53.125,1201.063 L53.51563,1198.164 L53.90625,1231.015 L54.29688,1194.3 L54.6875,1193.333 L55.07813,1189.469 L55.46875,1189.469 L55.85938,1244.541 L56.25,1187.536 L56.64063,1184.638 L57.03125,1180.773 L57.42188,1169.179 L57.8125,1168.213 L58.20313,1167.246 L58.59375,1241.642 L58.98438,1165.314 L59.375,1228.116 L59.76563,1160.483 L60.15625,1159.517 L60.54688,1158.551 L60.9375,1156.618 L61.32813,1236.812 L61.71875,1218.454 L62.10938,1204.927 L62.5,1190.435 L62.89063,1144.058 L63.28125,1137.295 L63.67188,1240.676 L64.0625,1167.246 L64.45313,1132.464 L64.84375,1148.889 L65.23438,1127.633 L65.625,1231.015 L66.01563,1119.903 L66.40625,1184.638 L66.79688,1117.971 L67.1875,1219.42 L67.57813,1142.126 L67.96875,1172.077 L68.35938,1221.353 L68.75,1216.522 L69.14063,1206.86 L69.53125,1185.604 L69.92188,1192.367 L70.3125,1154.686 L70.70313,1260 L71.09375,1229.082 L71.48438,1233.913 L71.875,1226.184 L72.26563,1190.435 L72.65625,1231.981 L73.04688,1155.652 L73.4375,1206.86 L73.82813,1216.522 L74.21875,1155.652 L74.60938,1155.652 L75,1215.556 L75.39063,1152.754 L75.78125,1194.3 L76.17188,1245.507 L76.5625,1238.744 L76.95313,1060 L77.34375,1174.01 L77.73438,1160.483 L78.125,1144.058 L78.51563,1205.894 L78.90625,1137.295 L79.29688,1137.295 L79.6875,1183.672 L80.07813,1129.565 L80.46875,1248.406 L80.85938,1202.995 L81.25,1202.029 L81.64063,1086.087 L82.03125,1113.14 L82.42188,1187.536 L82.8125,1184.638 L83.20313,1176.908 L83.59375,1134.396 L83.98438,1188.502 L84.375,1177.874 L84.76563,1193.333 L85.15625,1120.87 L85.54688,1151.787 L85.9375,1252.271 L86.32813,1185.604 L86.71875,1201.063 L87.10938,1164.348 L87.5,1214.589 L87.89063,1163.382 L88.28125,1229.082 L88.67188,1224.251 L89.0625,1158.551 L89.45313,1174.976 L89.84375,1157.585 L90.23438,1172.077 L90.625,1150.821 L91.01563,1145.99 L91.40625,1185.604 L91.79688,1144.058 L92.1875,1166.28 L92.57813,1198.164 L92.96875,1237.778 L93.35938,1192.367 L93.75,1225.217 L94.14063,1218.454 L94.53125,1153.72 L94.92188,1119.903 L95.3125,1194.3 L95.70313,1219.42 L96.09375,1202.029 L96.48438,1240.676 L96.875,1144.058 L97.26563,1163.382 L97.65625,1180.773 L98.04688,1255.169 L98.4375,1203.961 L98.82813,1209.758 L99.21875,1232.947 L99.60938,1175.942 L100,1244.541 L100.3906,1174.01 L100.7813,1190.435 L101.1719,1202.029 L101.5625,1179.807 L101.9531,1254.203 L102.3438,1202.029 L102.7344,1183.672 L103.125,1205.894 L103.5156,1219.42 L103.9063,1216.522 L104.2969,1190.435 L104.6875,1195.266 L105.0781,1241.642 L105.4688,1114.106 L105.8594,1230.048 L106.25,1153.72 L106.6406,1239.71 L107.0313,1152.754 L107.4219,1204.927 L107.8125,1188.502 L108.2031,1250.338 L108.5938,1232.947 L108.9844,1189.469 L109.375,1210.725 L109.7656,1139.227 L110.1563,1138.261 L110.5469,1244.541 L110.9375,1176.908 L111.3281,1145.99 L111.7188,1199.13 L112.1094,1196.232 L112.5,1214.589 L112.8906,1157.585 L113.2813,1184.638 L113.6719,1166.28 L114.0625,1181.739 L114.4531,1180.773 L114.8438,1096.715 L115.2344,1204.927 L115.625,1174.01 L116.0156,1171.111 L116.4063,1127.633 L116.7969,1160.483 L117.1875,1150.821 L117.5781,1161.449 L117.9688,1180.773 L118.3594,1146.957 L118.75,1236.812 L119.1406,1183.672 L119.5313,1139.227 L119.9219,1159.517 L120.3125,1146.957 L120.7031,1115.073 L121.0938,1179.807 L121.4844,1225.217 L121.875,1138.261 L122.2656,1142.126 L122.6563,1192.367 L123.0469,1115.073 L123.4375,1192.367 L123.8281,1202.029 L124.2188,1194.3 L124.6094,1106.377 L125,1146.957 L125.3906,1156.618 L125.7813,1208.792 L126.1719,1163.382 L126.5625,1196.232 L126.9531,1126.667 L127.3438,1181.739 L127.7344,1231.981 L128.125,1242.609 L128.5156,1243.575 L128.9063,1202.995 L129.2969,1221.353 L129.6875,1196.232 L130.0781,1254.203 L130.4688,1237.778 L130.8594,1175.942 L131.25,1249.372 L131.6406,1237.778 L132.0313,1216.522 L132.4219,1243.575 L132.8125,1132.464 L133.2031,1225.217 L133.5938,1155.652 L133.9844,1132.464 L134.375,1128.599 L134.7656,1238.744 L135.1563,1161.449 L135.5469,1126.667 L135.9375,1223.285 L136.3281,1245.507 L136.7188,1159.517 L137.1094,1206.86 L137.5,1206.86 L137.8906,1205.894 L138.2813,1173.043 L138.6719,1176.908 L139.0625,1197.198 L139.4531,1143.092 L139.8438,1180.773 L140.2344,1176.908 L140.625,1179.807 L141.0156,1178.841 L141.4063,1175.942 L141.7969,1237.778 L142.1875,1111.208 L142.5781,1144.058 L142.9688,1169.179 L143.3594,1164.348 L143.75,1120.87 L144.1406,1155.652 L144.5313,1160.483 L144.9219,1094.783 L145.3125,1238.744 L145.7031,1227.15 L146.0938,1192.367 L146.4844,1220.386 L146.875,1188.502 L147.2656,1148.889 L147.6563,1158.551 L148.0469,1163.382 L148.4375,1235.845 L148.8281,1197.198 L149.2188,1158.551 L149.6094,1078.358 L150,1175.942 L150.3906,1193.333 L150.7813,1215.556 L151.1719,1126.667 L151.5625,1183.672 L151.9531,1228.116 L152.3438,1191.401 L152.7344,1222.319 L153.125,1202.029 L153.5156,1187.536 L153.9063,1121.836 L154.2969,1237.778 L154.6875,1159.517 L155.0781,1221.353 L155.4688,1241.642 L155.8594,1184.638 L156.25,1192.367 L156.6406,1234.879 L157.0313,1239.71 L157.4219,1214.589 L157.8125,1124.734 L158.2031,1186.57 L158.5938,1187.536 L158.9844,1220.386 L159.375,1199.13 L159.7656,1229.082 L160.1563,1168.213 L160.5469,1245.507 L160.9375,1166.28 L161.3281,1180.773 L161.7188,1256.135 L162.1094,1255.169 L162.5,1230.048 L162.8906,1180.773 L163.2813,1190.435 L163.6719,1184.638 L164.0625,1179.807 L164.4531,1209.758 L164.8438,1200.097 L165.2344,1139.227 L165.625,1158.551 L166.0156,1187.536 L166.4063,1221.353 L166.7969,1157.585 L167.1875,1217.488 L167.5781,1229.082 L167.9688,1226.184 L168.3594,1140.193 L168.75,1204.927 L169.1406,1204.927 L169.5313,1174.01 L169.9219,1165.314 L170.3125,1166.28 L170.7031,1197.198 L171.0938,1172.077 L171.4844,1192.367 L171.875,1227.15 L172.2656,1218.454 L172.6563,1148.889 L173.0469,1250.338 L173.4375,1144.058 L173.8281,1181.739 L174.2188,1223.285 L174.6094,1149.855 L175,1170.145 L175.3906,1220.386 L175.7813,1161.449 L176.1719,1155.652 L176.5625,1185.604 L176.9531,1218.454 L177.3438,1131.498 L177.7344,1147.923 L178.125,1149.855 L178.5156,1153.72 L178.9063,1070.628 L179.2969,1134.396 L179.6875,1156.618 L180.0781,1225.217 L180.4688,1177.874 L180.8594,1225.217 L181.25,1199.13 L181.6406,1179.807 L182.0313,1209.758 L182.4219,1111.208 L182.8125,1141.159 L183.2031,1160.483 L183.5938,1207.826 L183.9844,1148.889 L184.375,1147.923 L184.7656,1191.401 L185.1563,1119.903 L185.5469,1155.652 L185.9375,1098.647 L186.3281,1244.541 L186.7188,1141.159 L187.1094,1142.126 L187.5,1199.13 L187.8906,1255.169 L188.2813,1245.507 L188.6719,1233.913 L189.0625,1247.44 L189.4531,1130.531 L189.8438,1211.691 L190.2344,1141.159 L190.625,1222.319 L191.0156,1233.913 L191.4063,1124.734 L191.7969,1189.469 L192.1875,1227.15 L192.5781,1248.406 L192.9688,1247.44 L193.3594,1179.807 L193.75,1220.386 L194.1406,1181.739 L194.5313,1179.807 L194.9219,1195.266 L195.3125,1193.333 L195.7031,1196.232 L196.0938,1224.251 L196.4844,1218.454 L196.875,1206.86 L197.2656,1214.589 L197.6563,1191.401 L198.0469,1197.198 L198.4375,1210.725 L198.8281,1212.657 L199.2188,1204.927 L199.6094,1161.449 L200,1203.961 L200.3906,1202.995 L200.7813,1212.657 L201.1719,1200.097 L201.5625,1200.097 L201.9531,1209.758 L202.3438,1198.164 L202.7344,1201.063 L203.125,1231.981 L203.5156,1204.927 L203.9063,1185.604 L204.2969,1193.333 L204.6875,1203.961 L205.0781,1200.097 L205.4688,1229.082 L205.8594,1240.676 L206.25,1230.048 L206.6406,1186.57 L207.0313,1238.744 L207.4219,1219.42 L207.8125,1199.13 L208.2031,1192.367 L208.5938,1179.807 L208.9844,1195.266 L209.375,1201.063 L209.7656,1204.927 L210.1563,1210.725 L210.5469,1221.353 L210.9375,1203.961 L211.3281,1214.589 L211.7188,1203.961 L212.1094,1215.556 L212.5,1209.758 L212.8906,1216.522 L213.2813,1220.386 L213.6719,1204.927 L214.0625,1198.164 L214.4531,1210.725 L214.8438,1202.995 L215.2344,1220.386 L215.625,1207.826 L216.0156,1209.758 L216.4063,1214.589 L216.7969,1199.13 L217.1875,1218.454 L217.5781,1208.792 L217.9688,1219.42 L218.3594,1225.217 L218.75,1217.488 L219.1406,1193.333 L219.5313,1210.725 L219.9219,1192.367 L220.3125,1202.029 L220.7031,1215.556 L221.0938,1228.116 L221.4844,1216.522 L221.875,1206.86 L222.2656,1209.758 L222.6563,1207.826 L223.0469,1206.86 L223.4375,1211.691 L223.8281,1213.623 L224.2188,1199.13 L224.6094,1214.589 L225,1210.725 L225.3906,1218.454 L225.7813,1205.894 L226.1719,1209.758 L226.5625,1191.401 L226.9531,1172.077 L227.3438,1232.947 L227.7344,1259.034 L228.125,1236.812 L228.5156,1217.488 L228.9063,1253.237 L229.2969,1220.386 L229.6875,1239.71 L230.0781,1202.995 L230.4688,1193.333 L230.8594,1249.372 L231.25,1212.657 L231.6406,1195.266 L232.0313,1189.469 L232.4219,1217.488 L232.8125,1209.758 L233.2031,1205.894 L233.5938,1193.333 L233.9844,1213.623 L234.375,1200.097 L234.7656,1226.184 L235.1563,1195.266 L235.5469,1178.841 L235.9375,1188.502 L236.3281,1224.251 L236.7188,1186.57 L237.1094,1218.454 L237.5,1223.285 L237.8906,1207.826 L238.2813,1202.995 L238.6719,1219.42 L239.0625,1209.758 L239.4531,1224.251 L239.8438,1194.3 L240.2344,1205.894 L240.625,1239.71 L241.0156,1203.961 L241.4063,1202.995 L241.7969,1202.029 L242.1875,1200.097 L242.5781,1214.589 L242.9688,1198.164 L243.3594,1197.198 L243.75,1203.961 L244.1406,1206.86 L244.5313,1221.353 L244.9219,1191.401 L245.3125,1187.536 L245.7031,1223.285 L246.0938,1195.266 L246.4844,1208.792 L246.875,1184.638 L247.2656,1180.773 L247.6563,1221.353 L248.0469,1192.367 L248.4375,1217.488 L248.8281,1216.522 L249.2188,1216.522 L249.6094,1234.879 L250,1204.927 L250.3906,1214.589 L250.7813,1199.13 L251.1719,1202.995 L251.5625,1219.42 L251.9531,1221.353 L252.3438,1194.3 L252.7344,1203.961 L253.125,1198.164 L253.5156,1200.097 L253.9063,1212.657 L254.2969,1210.725 L254.6875,1212.657 L255.0781,1211.691 L255.4688,1201.063 L255.8594,1217.488 L256.25,1223.285 L256.6406,1221.353 L257.0313,1205.894 L257.4219,1227.15 L257.8125,1199.13 L258.2031,1207.826 L258.5938,1216.522 L258.9844,1220.386 L259.375,1206.86 L259.7656,1224.251 L260.1563,1192.367 L260.5469,1184.638 L260.9375,1239.71 L261.3281,1204.927 L261.7188,1200.097 L262.1094,1212.657 L262.5,1169.179 L262.8906,1222.319 L263.2813,1230.048 L263.6719,1192.367 L264.0625,1182.705 L264.4531,1200.097 L264.8438,1244.541 L265.2344,1218.454 L265.625,1212.657 L266.0156,1192.367 L266.4063,1186.57 L266.7969,1193.333 L267.1875,1202.029 L267.5781,1213.623 L267.9688,1233.913 L268.3594,1247.44 L268.75,1221.353 L269.1406,1236.812 L269.5313,1254.203 L269.9219,1230.048 L270.3125,1162.415 L270.7031,1212.657 L271.0938,1202.995 L271.4844,1214.589 L271.875,1170.145 L272.2656,1235.845 L272.6563,1198.164 L273.0469,1202.029 L273.4375,1181.739 L273.8281,1243.575 L274.2188,1190.435 L274.6094,1189.469 L275,1226.184 L275.3906,1207.826 L275.7813,1160.483 L276.1719,1232.947 L276.5625,1227.15 L276.9531,1189.469 L277.3438,1221.353 L277.7344,1234.879 L278.125,1238.744 L278.5156,1173.043 L278.9063,1216.522 L279.2969,1213.623 L279.6875,1226.184 L280.0781,1212.657 L280.4688,1212.657 L280.8594,1212.657 L281.25,1186.57 L281.6406,1205.894 L282.0313,1221.353 L282.4219,1225.217 L282.8125,1243.575 L283.2031,1200.097 L283.5938,1219.42 L283.9844,1215.556 L284.375,1186.57 L284.7656,1210.725 L285.1563,1249.372 L285.5469,1231.981 L285.9375,1183.672 L286.3281,1202.995 L286.7188,1208.792 L287.1094,1247.44 L287.5,1206.86 L287.8906,1238.744 L288.2813,1190.435 L288.6719,1206.86 L289.0625,1226.184 L289.4531,1174.01 L289.8438,1196.232 L290.2344,1184.638 L290.625,1161.449 L291.0156,1204.927 L291.4063,1211.691 L291.7969,1208.792 L292.1875,1200.097 L292.5781,1249.372 L292.9688,1221.353 L293.3594,1202.995 L293.75,1214.589 L294.1406,1218.454 L294.5313,1202.995 L294.9219,1214.589 L295.3125,1200.097 L295.7031,1210.725 L296.0938,1175.942 L296.4844,1213.623 L296.875,1208.792 L297.2656,1195.266 L297.6563,1217.488 L298.0469,1235.845 L298.4375,1183.672 L298.8281,1181.739 L299.2188,1208.792 L299.6094,1199.13 L300,1196.232 L300.3906,1169.179 L300.7813,1180.773 L301.1719,1184.638 L301.5625,1181.739 L301.9531,1208.792 L302.3438,1226.184 L302.7344,1205.894 L303.125,1194.3 L303.5156,1208.792 L303.9063,1187.536 L304.2969,1181.739 L304.6875,1217.488 L305.0781,1208.792 L305.4688,1231.015 L305.8594,1215.556 L306.25,1217.488 L306.6407,1200.097 L307.0313,1215.556 L307.4219,1162.415 L307.8125,1222.319 L308.2031,1181.739 L308.5938,1248.406 L308.9844,1160.483 L309.375,1180.773 L309.7656,1165.314 L310.1563,1199.13 L310.5469,1196.232 L310.9375,1188.502 L311.3281,1180.773 L311.7188,1167.246 L312.1094,1196.232 L312.5,1176.908 L312.8906,1208.792 L313.2813,1168.213 L313.6719,1198.164 L314.0625,1161.449 L314.4532,1209.758 L314.8438,1240.676 L315.2344,1220.386 L315.625,1209.758 L316.0156,1181.739 L316.4063,1174.01 L316.7969,1179.807 L317.1875,1204.927 L317.5781,1219.42 L317.9688,1203.961 L318.3594,1185.604 L318.75,1208.792 L319.1406,1188.502 L319.5313,1184.638 L319.9219,1188.502 L320.3125,1240.676 L320.7031,1181.739 L321.0938,1188.502 L321.4844,1195.266 L321.875,1151.787 L322.2657,1199.13 L322.6563,1195.266 L323.0469,1198.164 L323.4375,1169.179 L323.8281,1207.826 L324.2188,1231.981 L324.6094,1217.488 L325,1166.28 L325.3906,1191.401 L325.7813,1205.894 L326.1719,1165.314 L326.5625,1202.029 L326.9531,1174.976 L327.3438,1164.348 L327.7344,1202.995 L328.125,1239.71 L328.5156,1182.705 L328.9063,1213.623 L329.2969,1213.623 L329.6875,1223.285 L330.0782,1207.826 L330.4688,1194.3 L330.8594,1164.348 L331.25,1208.792 L331.6406,1200.097 L332.0313,1171.111 L332.4219,1182.705 L332.8125,1203.961 L333.2031,1212.657 L333.5938,1198.164 L333.9844,1162.415 L334.375,1178.841 L334.7656,1189.469 L335.1563,1185.604 L335.5469,1204.927 L335.9375,1202.029 L336.3281,1252.271 L336.7188,1180.773 L337.1094,1202.995 L337.5,1173.043 L337.8907,1212.657 L338.2813,1186.57 L338.6719,1232.947 L339.0625,1219.42 L339.4531,1233.913 L339.8438,1214.589 L340.2344,1213.623 L340.625,1225.217 L341.0156,1231.981 L341.4063,1235.845 L341.7969,1178.841 L342.1875,1184.638 L342.5781,1188.502 L342.9688,1209.758 L343.3594,1201.063 L343.75,1196.232 L344.1406,1177.874 L344.5313,1242.609 L344.9219,1191.401 L345.3125,1149.855 L345.7032,1204.927 L346.0938,1208.792 L346.4844,1215.556 L346.875,1242.609 L347.2656,1185.604 L347.6563,1168.213 L348.0469,1211.691 L348.4375,1208.792 L348.8281,1247.44 L349.2188,1200.097 L349.6094,1214.589 L350,1213.623 L350.3906,1200.097 L350.7813,1198.164 L351.1719,1216.522 L351.5625,1202.029 L351.9531,1201.063 L352.3438,1216.522 L352.7344,1186.57 L353.125,1220.386 L353.5157,1223.285 L353.9063,1194.3 L354.2969,1220.386 L354.6875,1201.063 L355.0781,1154.686 L355.4688,1190.435 L355.8594,1190.435 L356.25,1164.348 L356.6406,1188.502 L357.0313,1192.367 L357.4219,1134.396 L357.8125,1180.773 L358.2031,1192.367 L358.5938,1217.488 L358.9844,1169.179 L359.375,1179.807 L359.7656,1174.01 L360.1563,1170.145 L360.5469,1219.42 L360.9375,1188.502 L361.3282,1200.097 L361.7188,1246.473 L362.1094,1200.097 L362.5,1208.792 L362.8906,1218.454 L363.2813,1230.048 L363.6719,1196.232 L364.0625,1229.082 L364.4531,1211.691 L364.8438,1201.063 L365.2344,1164.348 L365.625,1201.063 L366.0156,1229.082 L366.4063,1205.894 L366.7969,1233.913 L367.1875,1198.164 L367.5781,1123.768 L367.9688,1220.386 L368.3594,1200.097 L368.75,1186.57 L369.1407,1187.536 L369.5313,1164.348 L369.9219,1165.314 L370.3125,1177.874 L370.7031,1166.28 L371.0938,1188.502 L371.4844,1190.435 L371.875,1199.13 L372.2656,1196.232 L372.6563,1202.995 L373.0469,1215.556 L373.4375,1210.725 L373.8281,1165.314 L374.2188,1212.657 L374.6094,1219.42 L375,1238.744 L375.3906,1217.488 L375.7813,1166.28 L376.1719,1191.401 L376.5625,1226.184 L376.9532,1229.082 L377.3438,1207.826 L377.7344,1204.927 L378.125,1219.42 L378.5156,1189.469 L378.9063,1205.894 L379.2969,1184.638 L379.6875,1202.995 L380.0781,1231.015 L380.4688,1191.401 L380.8594,1233.913 L381.25,1206.86 L381.6406,1222.319 L382.0313,1236.812 L382.4219,1184.638 L382.8125,1219.42 L383.2031,1213.623 L383.5938,1221.353 L383.9844,1191.401 L384.375,1148.889 L384.7657,1184.638 L385.1563,1166.28 L385.5469,1207.826 L385.9375,1198.164 L386.3281,1209.758 L386.7188,1213.623 L387.1094,1206.86 L387.5,1168.213 L387.8906,1208.792 L388.2813,1200.097 L388.6719,1201.063 L389.0625,1199.13 L389.4531,1213.623 L389.8438,1200.097 L390.2344,1189.469 L390.625,1205.894 L391.0156,1221.353 L391.4063,1200.097 L391.7969,1174.976 L392.1875,1179.807 L392.5782,1212.657 L392.9688,1199.13 L393.3594,1186.57 L393.75,1193.333 L394.1406,1181.739 L394.5313,1227.15 L394.9219,1220.386 L395.3125,1186.57 L395.7031,1221.353 L396.0938,1201.063 L396.4844,1201.063 L396.875,1170.145 L397.2656,1194.3 L397.6563,1181.739 L398.0469,1181.739 L398.4375,1167.246 L398.8281,1219.42 L399.2188,1207.826 L399.6094,1192.367 L400,1203.961 L400.3907,1187.536 L400.7813,1183.672 L401.1719,1216.522 L401.5625,1172.077 L401.9531,1168.213 L402.3438,1144.058 L402.7344,1202.029 L403.125,1212.657 L403.5156,1176.908 L403.9063,1197.198 L404.2969,1209.758 L404.6875,1175.942 L405.0781,1236.812 L405.4688,1226.184 L405.8594,1230.048 L406.25,1227.15 L406.6406,1202.995 L407.0313,1152.754 L407.4219,1208.792 L407.8125,1200.097 L408.2032,1220.386 L408.5938,1183.672 L408.9844,1198.164 L409.375,1188.502 L409.7656,1179.807 L410.1563,1195.266 L410.5469,1213.623 L410.9375,1220.386 L411.3281,1219.42 L411.7188,1222.319 L412.1094,1215.556 L412.5,1197.198 L412.8906,1160.483 L413.2813,1145.024 L413.6719,1202.029 L414.0625,1179.807 L414.4531,1155.652 L414.8438,1189.469 L415.2344,1182.705 L415.625,1225.217 L416.0157,1219.42 L416.4063,1216.522 L416.7969,1105.411 L417.1875,1194.3 L417.5781,1217.488 L417.9688,1200.097 L418.3594,1175.942 L418.75,1204.927 L419.1406,1169.179 L419.5313,1214.589 L419.9219,1207.826 L420.3125,1211.691 L420.7031,1199.13 L421.0938,1194.3 L421.4844,1191.401 L421.875,1242.609 L422.2656,1193.333 L422.6563,1234.879 L423.0469,1188.502 L423.4375,1182.705 L423.8282,1214.589 L424.2188,1191.401 L424.6094,1175.942 L425,1125.7 L425.3906,1251.304 L425.7813,1243.575 L426.1719,1165.314 L426.5625,1186.57 L426.9531,1179.807 L427.3438,1204.927 L427.7344,1210.725 L428.125,1140.193 L428.5156,1172.077 L428.9063,1187.536 L429.2969,1218.454 L429.6875,1169.179 L430.0781,1183.672 L430.4688,1186.57 L430.8594,1204.927 L431.25,1237.778 L431.6407,1189.469 L432.0313,1168.213 L432.4219,1174.976 L432.8125,1244.541 L433.2031,1191.401 L433.5938,1167.246 L433.9844,1201.063 L434.375,1181.739 L434.7656,1219.42 L435.1563,1187.536 L435.5469,1187.536 L435.9375,1162.415 L436.3281,1202.029 L436.7188,1184.638 L437.1094,1202.029 L437.5,1172.077 L437.8906,1199.13 L438.2813,1189.469 L438.6719,1124.734 L439.0625,1254.203 L439.4532,1160.483 L439.8438,1192.367 L440.2344,1167.246 L440.625,1235.845 L441.0156,1211.691 L441.4063,1205.894 L441.7969,1208.792 L442.1875,1209.758 L442.5781,1227.15 L442.9688,1217.488 L443.3594,1214.589 L443.75,1188.502 L444.1406,1207.826 L444.5313,1180.773 L444.9219,1216.522 L445.3125,1200.097 L445.7031,1191.401 L446.0938,1156.618 L446.4844,1150.821 L446.875,1212.657 L447.2657,1191.401 L447.6563,1187.536 L448.0469,1220.386 L448.4375,1234.879 L448.8281,1204.927 L449.2188,1215.556 L449.6094,1243.575 L450,1217.488 L450.3906,1184.638 L450.7813,1142.126 L451.1719,1150.821 L451.5625,1221.353 L451.9531,1217.488 L452.3438,1204.927 L452.7344,1226.184 L453.125,1240.676 L453.5156,1177.874 L453.9063,1206.86 L454.2969,1202.029 L454.6875,1182.705 L455.0782,1217.488 L455.4688,1200.097 L455.8594,1230.048 L456.25,1156.618 L456.6406,1211.691 L457.0313,1223.285 L457.4219,1150.821 L457.8125,1179.807 L458.2031,1212.657 L458.5938,1167.246 L458.9844,1197.198 L459.375,1209.758 L459.7656,1214.589 L460.1563,1200.097 L460.5469,1234.879 L460.9375,1200.097 L461.3281,1221.353 L461.7188,1168.213 L462.1094,1198.164 L462.5,1175.942 L462.8907,1193.333 L463.2813,1198.164 L463.6719,1196.232 L464.0625,1188.502 L464.4531,1210.725 L464.8438,1189.469 L465.2344,1254.203 L465.625,1214.589 L466.0156,1197.198 L466.4063,1240.676 L466.7969,1219.42 L467.1875,1191.401 L467.5781,1184.638 L467.9688,1175.942 L468.3594,1176.908 L468.75,1205.894 L469.1406,1223.285 L469.5313,1211.691 L469.9219,1190.435 L470.3125,1187.536 L470.7032,1150.821 L471.0938,1198.164 L471.4844,1171.111 L471.875,1166.28 L472.2656,1200.097 L472.6563,1233.913 L473.0469,1183.672 L473.4375,1182.705 L473.8281,1160.483 L474.2188,1172.077 L474.6094,1187.536 L475,1226.184 L475.3906,1200.097 L475.7813,1207.826 L476.1719,1224.251 L476.5625,1210.725 L476.9531,1197.198 L477.3438,1220.386 L477.7344,1229.082 L478.125,1189.469 L478.5157,1162.415 L478.9063,1244.541 L479.2969,1209.758 L479.6875,1156.618 L480.0781,1166.28 L480.4688,1225.217 L480.8594,1225.217 L481.25,1192.367 L481.6406,1148.889 L482.0313,1169.179 L482.4219,1180.773 L482.8125,1231.015 L483.2031,1150.821 L483.5938,1152.754 L483.9844,1212.657 L484.375,1181.739 L484.7656,1211.691 L485.1563,1211.691 L485.5469,1204.927 L485.9375,1209.758 L486.3282,1220.386 L486.7188,1202.995 L487.1094,1171.111 L487.5,1224.251 L487.8906,1207.826 L488.2813,1241.642 L488.6719,1206.86 L489.0625,1143.092 L489.4531,1179.807 L489.8438,1186.57 L490.2344,1207.826 L490.625,1149.855 L491.0156,1182.705 L491.4063,1172.077 L491.7969,1209.758 L492.1875,1177.874 L492.5781,1176.908 L492.9688,1176.908 L493.3594,1177.874 L493.75,1227.15 L494.1407,1221.353 L494.5313,1246.473 L494.9219,1196.232 L495.3125,1209.758 L495.7031,1213.623 L496.0938,1212.657 L496.4844,1176.908 L496.875,1186.57 L497.2656,1216.522 L497.6563,1207.826 L498.0469,1209.758 L498.4375,1178.841 L498.8281,1193.333 L499.2188,1198.164 L499.6094,1140.193 L500,1183.672 L500.3906,1215.556 L500.7813,1174.01 L501.1719,1200.097 L501.5625,1219.42 L501.9532,1209.758 L502.3438,1202.995 L502.7344,1178.841 L503.125,1187.536 L503.5156,1233.913 L503.9063,1185.604 L504.2969,1198.164 L504.6875,1166.28 L505.0781,1174.01 L505.4688,1214.589 L505.8594,1176.908 L506.25,1200.097 L506.6406,1195.266 L507.0313,1204.927 L507.4219,1180.773 L507.8125,1187.536 L508.2031,1182.705 L508.5938,1176.908 L508.9844,1188.502 L509.375,1206.86 L509.7657,1251.304 L510.1563,1217.488 L510.5469,1226.184 L510.9375,1184.638 L511.3281,1182.705 L511.7188,1217.488 L512.1094,1187.536 L512.5,1251.304 L512.8906,1216.522 L513.2813,1248.406 L513.6719,1223.285 L514.0625,1152.754 L514.4531,1191.401 L514.8438,1239.71 L515.2344,1202.995 L515.625,1225.217 L516.0156,1179.807 " stroke="blue" fill="none" />
<text x="50" y="1310" font-family="Arial" font-size="12" fill="black">Policy Loss</text>
<text x="50" y="1325" font-family="Arial" font-size="10" fill="black">0.01452442</text>
<text x="50" y="1540" font-family="Arial" font-size="10" fill="black">0</text>
<path d="M50,1387.531 L53.125,1494.539 L56.25,1500.295 L59.375,1495.071 L62.5,1499.923 L65.625,1500.26 L68.75,1492.211 L71.875,1506.549 L75,1330 L78.125,1501.928 L81.25,1496.4 L84.375,1492.178 L87.5,1499.137 L90.625,1486.205 L93.75,1495.813 L96.875,1498.251 L100,1358.844 L103.125,1499.911 L106.25,1497.421 L109.375,1506.175 L112.5,1501.607 L115.625,1491.332 L118.75,1495.212 L121.875,1508.942 L125,1395.471 L128.125,1504.905 L131.25,1488.993 L134.375,1488.957 L137.5,1494.891 L140.625,1501.005 L143.75,1498.513 L146.875,1499.472 L150,1365.46 L153.125,1475.535 L156.25,1495.318 L159.375,1483.71 L162.5,1464.7 L165.625,1480.906 L168.75,1493.221 L171.875,1486.729 L175,1530 L178.125,1526.533 L181.25,1530 L184.375,1529.252 L187.5,1530 L190.625,1530 L193.75,1530 L196.875,1528.162 L200,1527.415 L203.125,1529.562 L206.25,1525.274 L209.375,1530 L212.5,1525.547 L215.625,1519.462 L218.75,1527.452 L221.875,1526.076 L225,1522.181 L228.125,1525.24 L231.25,1526.534 L234.375,1525.321 L237.5,1528.37 L240.625,1523.612 L243.75,1530 L246.875,1528.22 L250,1505.89 L253.125,1519.141 L256.25,1519.938 L259.375,1522.972 L262.5,1520.267 L265.625,1515.668 L268.75,1525.45 L271.875,1524.265 L275,1488.614 L278.125,1512.482 L281.25,1522.304 L284.375,1525.531 L287.5,1521.361 L290.625,1519.384 L293.75,1522.354 L296.875,1522.984 L300,1463.906 L303.125,1520.363 L306.25,1520.076 L309.375,1516.389 L312.5,1516.509 L315.625,1523.23 L318.75,1524.24 L321.875,1512.965 L325,1475.073 L328.125,1520.163 L331.25,1526.758 L334.375,1515.872 L337.5,1523.227 L340.625,1520.688 L343.75,1515.426 L346.875,1519.332 L350,1515.161 L353.125,1515.336 L356.25,1516.272 L359.375,1521.626 L362.5,1524.104 L365.625,1517.569 L368.75,1512.433 L371.875,1511.053 L375,1468.273 L378.125,1518.144 L381.25,1515.019 L384.375,1515.981 L387.5,1513.647 L390.625,1511.742 L393.75,1516.591 L396.875,1514.076 " stroke="blue" fill="none" />
<text x="50" y="1580" font-family="Arial" font-size="12" fill="black">Value Loss</text>
<text x="50" y="1595" font-family="Arial" font-size="10" fill="black">0.0414528</text>
<text x="50" y="1810" font-family="Arial" font-size="10" fill="black">0.0180901</text>
<path d="M50,1600 L53.125,1645.422 L56.25,1653.164 L59.375,1656.437 L62.5,1659.178 L65.625,1660.096 L68.75,1660.662 L71.875,1662.208 L75,1642.435 L78.125,1658.566 L81.25,1663.847 L84.375,1665.454 L87.5,1666.83 L90.625,1667.874 L93.75,1668.372 L96.875,1669.033 L100,1739.606 L103.125,1744.148 L106.25,1746.394 L109.375,1748.1 L112.5,1749.28 L115.625,1749.55 L118.75,1750.766 L121.875,1751.384 L125,1711.651 L128.125,1719.314 L131.25,1723.252 L134.375,1725.57 L137.5,1726.187 L140.625,1727.425 L143.75,1728.19 L146.875,1727.781 L150,1706.126 L153.125,1714.273 L156.25,1719.372 L159.375,1721.454 L162.5,1722.875 L165.625,1724.322 L168.75,1725.225 L171.875,1725.555 L175,1702.165 L178.125,1739.519 L181.25,1748.918 L184.375,1751.728 L187.5,1753.51 L190.625,1755.736 L193.75,1757.235 L196.875,1758.292 L200,1750.815 L203.125,1753.782 L206.25,1755.273 L209.375,1756.25 L212.5,1756.814 L215.625,1757.733 L218.75,1758.207 L221.875,1759.349 L225,1635.943 L228.125,1653.867 L231.25,1662.114 L234.375,1664.055 L237.5,1663.173 L240.625,1666.627 L243.75,1667.341 L246.875,1668.319 L250,1741.161 L253.125,1751.87 L256.25,1756.729 L259.375,1758.781 L262.5,1759.888 L265.625,1761.224 L268.75,1762.315 L271.875,1762.978 L275,1778.104 L278.125,1778.534 L281.25,1779.994 L284.375,1780.587 L287.5,1780.869 L290.625,1780.779 L293.75,1781.234 L296.875,1781.959 L300,1773.364 L303.125,1777.937 L306.25,1781.118 L309.375,1782.436 L312.5,1783.35 L315.625,1784.18 L318.75,1784.937 L321.875,1784.886 L325,1788.198 L328.125,1791.345 L331.25,1793.98 L334.375,1796.265 L337.5,1797.444 L340.625,1798.242 L343.75,1799.436 L346.875,1800 L350,1763.666 L353.125,1766.683 L356.25,1767.772 L359.375,1769.27 L362.5,1770.019 L365.625,1770.453 L368.75,1771.313 L371.875,1771.995 L375,1789.723 L378.125,1794.754 L381.25,1796.366 L384.375,1796.627 L387.5,1797.759 L390.625,1798.221 L393.75,1798.41 L396.875,1799.01 " stroke="blue" fill="none" />
<text x="50" y="1850" font-family="Arial" font-size="12" fill="black">Learning Rate</text>
<text x="50" y="1865" font-family="Arial" font-size="10" fill="black">0.0003</text>
<text x="50" y="2080" font-family="Arial" font-size="10" fill="black">0.0003</text>
<path d="M50,2070 L53.125,2070 L56.25,2070 L59.375,2070 L62.5,2070 L65.625,2070 L68.75,2070 L71.875,2070 L75,2070 L78.125,2070 L81.25,2070 L84.375,2070 L87.5,2070 L90.625,2070 L93.75,2070 L96.875,2070 L100,2070 L103.125,2070 L106.25,2070 L109.375,2070 L112.5,2070 L115.625,2070 L118.75,2070 L121.875,2070 L125,2070 L128.125,2070 L131.25,2070 L134.375,2070 L137.5,2070 L140.625,2070 L143.75,2070 L146.875,2070 L150,2070 L153.125,2070 L156.25,2070 L159.375,2070 L162.5,2070 L165.625,2070 L168.75,2070 L171.875,2070 L175,2070 L178.125,2070 L181.25,2070 L184.375,2070 L187.5,2070 L190.625,2070 L193.75,2070 L196.875,2070 L200,2070 L203.125,2070 L206.25,2070 L209.375,2070 L212.5,2070 L215.625,2070 L218.75,2070 L221.875,2070 L225,2070 L228.125,2070 L231.25,2070 L234.375,2070 L237.5,2070 L240.625,2070 L243.75,2070 L246.875,2070 L250,2070 L253.125,2070 L256.25,2070 L259.375,2070 L262.5,2070 L265.625,2070 L268.75,2070 L271.875,2070 L275,2070 L278.125,2070 L281.25,2070 L284.375,2070 L287.5,2070 L290.625,2070 L293.75,2070 L296.875,2070 L300,2070 L303.125,2070 L306.25,2070 L309.375,2070 L312.5,2070 L315.625,2070 L318.75,2070 L321.875,2070 L325,2070 L328.125,2070 L331.25,2070 L334.375,2070 L337.5,2070 L340.625,2070 L343.75,2070 L346.875,2070 L350,2070 L353.125,2070 L356.25,2070 L359.375,2070 L362.5,2070 L365.625,2070 L368.75,2070 L371.875,2070 L375,2070 L378.125,2070 L381.25,2070 L384.375,2070 L387.5,2070 L390.625,2070 L393.75,2070 L396.875,2070 " stroke="blue" fill="none" />
<text x="50" y="2120" font-family="Arial" font-size="12" fill="black">Epsilon</text>
<text x="50" y="2135" font-family="Arial" font-size="10" fill="black">0.2</text>
<text x="50" y="2350" font-family="Arial" font-size="10" fill="black">0.2</text>
<path d="M50,2340 L53.125,2340 L56.25,2340 L59.375,2340 L62.5,2340 L65.625,2340 L68.75,2340 L71.875,2340 L75,2340 L78.125,2340 L81.25,2340 L84.375,2340 L87.5,2340 L90.625,2340 L93.75,2340 L96.875,2340 L100,2340 L103.125,2340 L106.25,2340 L109.375,2340 L112.5,2340 L115.625,2340 L118.75,2340 L121.875,2340 L125,2340 L128.125,2340 L131.25,2340 L134.375,2340 L137.5,2340 L140.625,2340 L143.75,2340 L146.875,2340 L150,2340 L153.125,2340 L156.25,2340 L159.375,2340 L162.5,2340 L165.625,2340 L168.75,2340 L171.875,2340 L175,2340 L178.125,2340 L181.25,2340 L184.375,2340 L187.5,2340 L190.625,2340 L193.75,2340 L196.875,2340 L200,2340 L203.125,2340 L206.25,2340 L209.375,2340 L212.5,2340 L215.625,2340 L218.75,2340 L221.875,2340 L225,2340 L228.125,2340 L231.25,2340 L234.375,2340 L237.5,2340 L240.625,2340 L243.75,2340 L246.875,2340 L250,2340 L253.125,2340 L256.25,2340 L259.375,2340 L262.5,2340 L265.625,2340 L268.75,2340 L271.875,2340 L275,2340 L278.125,2340 L281.25,2340 L284.375,2340 L287.5,2340 L290.625,2340 L293.75,2340 L296.875,2340 L300,2340 L303.125,2340 L306.25,2340 L309.375,2340 L312.5,2340 L315.625,2340 L318.75,2340 L321.875,2340 L325,2340 L328.125,2340 L331.25,2340 L334.375,2340 L337.5,2340 L340.625,2340 L343.75,2340 L346.875,2340 L350,2340 L353.125,2340 L356.25,2340 L359.375,2340 L362.5,2340 L365.625,2340 L368.75,2340 L371.875,2340 L375,2340 L378.125,2340 L381.25,2340 L384.375,2340 L387.5,2340 L390.625,2340 L393.75,2340 L396.875,2340 " stroke="blue" fill="none" />
</svg>
