<svg width="1000" height="2500" xmlns="http://www.w3.org/2000/svg">
<text x="10" y="20" font-family="Arial" font-size="26" fill="black"> [DriveLittleCar] Training Session</text>
<text x="10" y="50" font-family="Arial" font-size="16" fill="black">[Statistics]</text>
<text x="50" y="70" font-family="Arial" font-size="12" fill="black">Started at: 7:06:53 PM, Friday, September 15, 2023</text>
<text x="50" y="90" font-family="Arial" font-size="12" fill="black">Finished at: 7:08:34 PM, Friday, September 15, 2023</text>
<text x="50" y="110" font-family="Arial" font-size="12" fill="black">Training Session Time: 0 hrs : 1 min : 41 sec</text>
<text x="50" y="130" font-family="Arial" font-size="12" fill="black">Inference Time: 0 hrs : 35 min : 32 sec       [Per agent: 0 hrs : 1 min : 17 sec]        [Device: CPU]</text>
<text x="50" y="150" font-family="Arial" font-size="12" fill="black">Policy Update Time: 0 hrs : 0 min : 25 sec        [Per iteration: 0 hrs : 0 min : 12 sec]        [Device: GPU]</text>
<text x="50" y="170" font-family="Arial" font-size="12" fill="black">Inference Time / Training Session Time: 20.382</text>
<text x="50" y="190" font-family="Arial" font-size="12" fill="black">Policy Update Time / Training Session Time: 0.264</text>
<text x="50" y="210" font-family="Arial" font-size="12" fill="black">Inference Steps: 229376    [Per agent: 8192]</text>
<text x="50" y="230" font-family="Arial" font-size="12" fill="black">Iterations: 2</text>
<text x="50" y="250" font-family="Arial" font-size="12" fill="black">Parallel Agents: 28</text>
<text x="10" y="300" font-family="Arial" font-size="16" fill="black">[Hyperparameters]</text>
<text x="50" y="320" font-family="Arial" font-size="12" fill="black">Buffer Size: 4096        [Batch Size: 128       (x32)]</text>
<text x="50" y="340" font-family="Arial" font-size="12" fill="black">Num Epoch: 8</text>
<text x="50" y="360" font-family="Arial" font-size="12" fill="black">Time Horizon: 128</text>
<text x="50" y="380" font-family="Arial" font-size="12" fill="black">Gradient Cliping Normalization: 0.5</text>
<text x="50" y="400" font-family="Arial" font-size="12" fill="black">Advantages Normalization: True</text>
<text x="50" y="420" font-family="Arial" font-size="12" fill="black">Training Data Shuffle: True</text>
<text x="50" y="440" font-family="Arial" font-size="12" fill="black">Learning Rate Schedule: False    </text>
<text x="10" y="490" font-family="Arial" font-size="16" fill="black">[Behaviour]</text>
<text x="50" y="510" font-family="Arial" font-size="12" fill="black">Space Size: 13</text>
<text x="50" y="530" font-family="Arial" font-size="12" fill="black">Continuous Dim: 3</text>
<text x="50" y="550" font-family="Arial" font-size="12" fill="black">Discrete Branches: 0</text>
<text x="50" y="570" font-family="Arial" font-size="12" fill="black">TargetFPS: 50 (physics update rate)</text>
<text x="50" y="590" font-family="Arial" font-size="12" fill="black">Observations Normalization: False</text>
<text x="50" y="610" font-family="Arial" font-size="12" fill="black">Standard Deviation: Fixed    [Value: 1.5]</text>
<text x="10" y="710" font-family="Arial" font-size="16" fill="black">[Graphs]</text>
<text x="50" y="730" font-family="Arial" font-size="12" fill="black">Episode Reward</text>
<text x="50" y="745" font-family="Arial" font-size="10" fill="black">5</text>
<text x="50" y="960" font-family="Arial" font-size="10" fill="black">0</text>
<path d="M50,910 L51.5625,910 L53.125,950 L54.6875,910 L56.25,910 L57.8125,870 L59.375,910 L60.9375,910 L62.5,910 L64.0625,910 L65.625,870 L67.1875,910 L68.75,910 L70.3125,910 L71.875,910 L73.4375,910 L75,870 L76.5625,950 L78.125,910 L79.6875,870 L81.25,790 L82.8125,910 L84.375,950 L85.9375,830 L87.5,790 L89.0625,870 L90.625,910 L92.1875,910 L93.75,870 L95.3125,910 L96.875,870 L98.4375,910 L100,910 L101.5625,870 L103.125,790 L104.6875,950 L106.25,830 L107.8125,790 L109.375,870 L110.9375,910 L112.5,830 L114.0625,910 L115.625,870 L117.1875,790 L118.75,870 L120.3125,790 L121.875,910 L123.4375,910 L125,910 L126.5625,790 L128.125,950 L129.6875,830 L131.25,910 L132.8125,830 L134.375,830 L135.9375,870 L137.5,910 L139.0625,910 L140.625,790 L142.1875,790 L143.75,870 L145.3125,790 L146.875,910 L148.4375,910 L150,910 L151.5625,870 L153.125,830 L154.6875,910 L156.25,910 L157.8125,830 L159.375,830 L160.9375,910 L162.5,910 L164.0625,870 L165.625,870 L167.1875,790 L168.75,790 L170.3125,790 L171.875,790 L173.4375,830 L175,870 L176.5625,790 L178.125,910 L179.6875,870 L181.25,910 L182.8125,910 L184.375,910 L185.9375,870 L187.5,910 L189.0625,870 L190.625,910 L192.1875,790 L193.75,790 L195.3125,910 L196.875,870 L198.4375,790 L200,910 L201.5625,830 L203.125,950 L204.6875,870 L206.25,910 L207.8125,790 L209.375,870 L210.9375,870 L212.5,910 L214.0625,910 L215.625,870 L217.1875,910 L218.75,870 L220.3125,790 L221.875,870 L223.4375,910 L225,870 L226.5625,950 L228.125,950 L229.6875,910 L231.25,870 L232.8125,870 L234.375,870 L235.9375,790 L237.5,910 L239.0625,830 L240.625,910 L242.1875,790 L243.75,870 L245.3125,910 L246.875,910 L248.4375,870 L250,910 L251.5625,870 L253.125,910 L254.6875,870 L256.25,870 L257.8125,790 L259.375,910 L260.9375,790 L262.5,830 L264.0625,910 L265.625,910 L267.1875,870 L268.75,830 L270.3125,870 L271.875,870 L273.4375,790 L275,910 L276.5625,790 L278.125,910 L279.6875,910 L281.25,790 L282.8125,830 L284.375,870 L285.9375,790 L287.5,830 L289.0625,790 L290.625,910 L292.1875,790 L293.75,830 L295.3125,910 L296.875,790 L298.4375,790 L300,830 L301.5625,790 L303.125,910 L304.6875,790 L306.25,910 L307.8125,830 L309.375,870 L310.9375,910 L312.5,830 L314.0625,910 L315.625,910 L317.1875,910 L318.75,910 L320.3125,790 L321.875,910 L323.4375,830 L325,870 L326.5625,910 L328.125,790 L329.6875,790 L331.25,910 L332.8125,870 L334.375,830 L335.9375,830 L337.5,910 L339.0625,910 L340.625,910 L342.1875,790 L343.75,790 L345.3125,790 L346.875,870 L348.4375,790 L350,830 L351.5625,870 L353.125,830 L354.6875,870 L356.25,830 L357.8125,910 L359.375,870 L360.9375,870 L362.5,830 L364.0625,830 L365.625,790 L367.1875,910 L368.75,910 L370.3125,910 L371.875,910 L373.4375,870 L375,910 L376.5625,910 L378.125,910 L379.6875,950 L381.25,910 L382.8125,910 L384.375,950 L385.9375,910 L387.5,790 L389.0625,830 L390.625,870 L392.1875,910 L393.75,910 L395.3125,910 L396.875,910 L398.4375,830 L400,910 L401.5625,830 L403.125,910 L404.6875,910 L406.25,830 L407.8125,870 L409.375,870 L410.9375,790 L412.5,870 L414.0625,910 L415.625,910 L417.1875,790 L418.75,950 L420.3125,790 L421.875,910 L423.4375,950 L425,830 L426.5625,870 L428.125,950 L429.6875,910 L431.25,950 L432.8125,870 L434.375,910 L435.9375,870 L437.5,950 L439.0625,790 L440.625,910 L442.1875,870 L443.75,790 L445.3125,870 L446.875,910 L448.4375,750 L450,790 L451.5625,910 L453.125,910 " stroke="blue" fill="none" />
<text x="50" y="1000" font-family="Arial" font-size="12" fill="black">Episode Length</text>
<text x="50" y="1015" font-family="Arial" font-size="10" fill="black">137</text>
<text x="50" y="1230" font-family="Arial" font-size="10" fill="black">6</text>
<path d="M50,1213.893 L51.5625,1212.366 L53.125,1210.84 L54.6875,1206.26 L56.25,1204.733 L57.8125,1203.206 L59.375,1201.679 L60.9375,1200.153 L62.5,1200.153 L64.0625,1200.153 L65.625,1194.046 L67.1875,1207.786 L68.75,1187.939 L70.3125,1187.939 L71.875,1186.412 L73.4375,1181.832 L75,1180.305 L76.5625,1216.947 L78.125,1206.26 L79.6875,1187.939 L81.25,1171.145 L82.8125,1194.046 L84.375,1220 L85.9375,1163.511 L87.5,1177.252 L89.0625,1186.412 L90.625,1181.832 L92.1875,1186.412 L93.75,1197.099 L95.3125,1200.153 L96.875,1148.244 L98.4375,1171.145 L100,1210.84 L101.5625,1146.718 L103.125,1145.191 L104.6875,1209.313 L106.25,1140.611 L107.8125,1137.557 L109.375,1197.099 L110.9375,1203.206 L112.5,1132.977 L114.0625,1210.84 L115.625,1154.351 L117.1875,1128.397 L118.75,1177.252 L120.3125,1189.466 L121.875,1209.313 L123.4375,1218.473 L125,1215.42 L126.5625,1157.405 L128.125,1206.26 L129.6875,1197.099 L131.25,1165.038 L132.8125,1116.183 L134.375,1166.565 L135.9375,1181.832 L137.5,1218.473 L139.0625,1210.84 L140.625,1184.885 L142.1875,1128.397 L143.75,1198.626 L145.3125,1169.618 L146.875,1212.366 L148.4375,1210.84 L150,1189.466 L151.5625,1201.679 L153.125,1184.885 L154.6875,1200.153 L156.25,1204.733 L157.8125,1184.885 L159.375,1143.664 L160.9375,1175.725 L162.5,1198.626 L164.0625,1174.198 L165.625,1145.191 L167.1875,1172.672 L168.75,1062.748 L170.3125,1111.603 L171.875,1187.939 L173.4375,1143.664 L175,1129.924 L176.5625,1157.405 L178.125,1186.412 L179.6875,1192.519 L181.25,1186.412 L182.8125,1213.893 L184.375,1198.626 L185.9375,1172.672 L187.5,1169.618 L189.0625,1161.985 L190.625,1198.626 L192.1875,1073.435 L193.75,1166.565 L195.3125,1161.985 L196.875,1168.092 L198.4375,1143.664 L200,1206.26 L201.5625,1206.26 L203.125,1194.046 L204.6875,1177.252 L206.25,1126.87 L207.8125,1020 L209.375,1203.206 L210.9375,1154.351 L212.5,1201.679 L214.0625,1209.313 L215.625,1149.771 L217.1875,1215.42 L218.75,1200.153 L220.3125,1076.489 L221.875,1212.366 L223.4375,1181.832 L225,1163.511 L226.5625,1212.366 L228.125,1195.573 L229.6875,1218.473 L231.25,1203.206 L232.8125,1190.992 L234.375,1183.359 L235.9375,1171.145 L237.5,1174.198 L239.0625,1087.176 L240.625,1181.832 L242.1875,1187.939 L243.75,1180.305 L245.3125,1207.786 L246.875,1187.939 L248.4375,1206.26 L250,1163.511 L251.5625,1177.252 L253.125,1194.046 L254.6875,1181.832 L256.25,1187.939 L257.8125,1171.145 L259.375,1216.947 L260.9375,1174.198 L262.5,1180.305 L264.0625,1181.832 L265.625,1190.992 L267.1875,1166.565 L268.75,1111.603 L270.3125,1163.511 L271.875,1152.824 L273.4375,1189.466 L275,1220 L276.5625,1088.702 L278.125,1200.153 L279.6875,1197.099 L281.25,1194.046 L282.8125,1168.092 L284.375,1160.458 L285.9375,1142.137 L287.5,1111.603 L289.0625,1105.496 L290.625,1206.26 L292.1875,1177.252 L293.75,1134.504 L295.3125,1198.626 L296.875,1175.725 L298.4375,1096.336 L300,1151.298 L301.5625,1148.244 L303.125,1192.519 L304.6875,1146.718 L306.25,1186.412 L307.8125,1145.191 L309.375,1206.26 L310.9375,1216.947 L312.5,1190.992 L314.0625,1213.893 L315.625,1166.565 L317.1875,1177.252 L318.75,1203.206 L320.3125,1102.443 L321.875,1212.366 L323.4375,1203.206 L325,1192.519 L326.5625,1192.519 L328.125,1126.87 L329.6875,1136.031 L331.25,1192.519 L332.8125,1190.992 L334.375,1180.305 L335.9375,1126.87 L337.5,1218.473 L339.0625,1189.466 L340.625,1216.947 L342.1875,1128.397 L343.75,1117.71 L345.3125,1117.71 L346.875,1189.466 L348.4375,1097.863 L350,1161.985 L351.5625,1152.824 L353.125,1154.351 L354.6875,1151.298 L356.25,1132.977 L357.8125,1210.84 L359.375,1178.779 L360.9375,1160.458 L362.5,1189.466 L364.0625,1146.718 L365.625,1186.412 L367.1875,1183.359 L368.75,1209.313 L370.3125,1192.519 L371.875,1183.359 L373.4375,1189.466 L375,1212.366 L376.5625,1198.626 L378.125,1195.573 L379.6875,1198.626 L381.25,1136.031 L382.8125,1180.305 L384.375,1212.366 L385.9375,1169.618 L387.5,1178.779 L389.0625,1113.13 L390.625,1207.786 L392.1875,1154.351 L393.75,1197.099 L395.3125,1180.305 L396.875,1207.786 L398.4375,1128.397 L400,1200.153 L401.5625,1168.092 L403.125,1183.359 L404.6875,1209.313 L406.25,1165.038 L407.8125,1175.725 L409.375,1197.099 L410.9375,1047.481 L412.5,1206.26 L414.0625,1216.947 L415.625,1172.672 L417.1875,1096.336 L418.75,1218.473 L420.3125,1107.023 L421.875,1203.206 L423.4375,1149.771 L425,1192.519 L426.5625,1206.26 L428.125,1201.679 L429.6875,1206.26 L431.25,1203.206 L432.8125,1209.313 L434.375,1200.153 L435.9375,1200.153 L437.5,1212.366 L439.0625,1136.031 L440.625,1189.466 L442.1875,1181.832 L443.75,1142.137 L445.3125,1209.313 L446.875,1194.046 L448.4375,1165.038 L450,1158.931 L451.5625,1200.153 L453.125,1206.26 " stroke="blue" fill="none" />
<text x="50" y="1270" font-family="Arial" font-size="12" fill="black">Policy Loss</text>
<text x="50" y="1285" font-family="Arial" font-size="10" fill="black">0.09244101</text>
<text x="50" y="1500" font-family="Arial" font-size="10" fill="black">0.01404334</text>
<path d="M50,1290 L75,1481.431 L100,1473.969 L125,1476.289 L150,1480.059 L175,1490 L200,1486.738 L225,1475.801 L250,1324.283 L275,1483.432 L300,1482.899 L325,1487.941 L350,1485.811 L375,1489.22 L400,1478.129 L425,1483.54 " stroke="blue" fill="none" />
<text x="50" y="1540" font-family="Arial" font-size="12" fill="black">Value Loss</text>
<text x="50" y="1555" font-family="Arial" font-size="10" fill="black">0.1948952</text>
<text x="50" y="1770" font-family="Arial" font-size="10" fill="black">0.1741021</text>
<path d="M50,1646.24 L75,1705.479 L100,1729.536 L125,1740.849 L150,1746.914 L175,1751.369 L200,1759.72 L225,1760 L250,1560 L275,1589.226 L300,1592.365 L325,1596.758 L350,1599.165 L375,1601.187 L400,1597.491 L425,1605.322 " stroke="blue" fill="none" />
<text x="50" y="1810" font-family="Arial" font-size="12" fill="black">Learning Rate</text>
<text x="50" y="1825" font-family="Arial" font-size="10" fill="black">0.0003</text>
<text x="50" y="2040" font-family="Arial" font-size="10" fill="black">0.0003</text>
<path d="M50,2030 L75,2030 L100,2030 L125,2030 L150,2030 L175,2030 L200,2030 L225,2030 L250,2030 L275,2030 L300,2030 L325,2030 L350,2030 L375,2030 L400,2030 L425,2030 " stroke="blue" fill="none" />
<text x="50" y="2080" font-family="Arial" font-size="12" fill="black">Epsilon</text>
<text x="50" y="2095" font-family="Arial" font-size="10" fill="black">0.2</text>
<text x="50" y="2310" font-family="Arial" font-size="10" fill="black">0.2</text>
<path d="M50,2300 L75,2300 L100,2300 L125,2300 L150,2300 L175,2300 L200,2300 L225,2300 L250,2300 L275,2300 L300,2300 L325,2300 L350,2300 L375,2300 L400,2300 L425,2300 " stroke="blue" fill="none" />
</svg>
