<svg width="1000" height="2500" xmlns="http://www.w3.org/2000/svg">
<text x="10" y="20" font-family="Arial" font-size="26" fill="black"> [DriveLittleCar] Training Session</text>
<text x="10" y="50" font-family="Arial" font-size="16" fill="black">[Statistics]</text>
<text x="50" y="70" font-family="Arial" font-size="12" fill="black">Started at: 6:50:27 PM, Friday, September 15, 2023</text>
<text x="50" y="90" font-family="Arial" font-size="12" fill="black">Finished at: 6:54:53 PM, Friday, September 15, 2023</text>
<text x="50" y="110" font-family="Arial" font-size="12" fill="black">Training Session Time: 0 hrs : 4 min : 26 sec</text>
<text x="50" y="130" font-family="Arial" font-size="12" fill="black">Inference Time: 0 hrs : 40 min : 9 sec       [Per agent: 0 hrs : 3 min : 21 sec]        [Device: CPU]</text>
<text x="50" y="150" font-family="Arial" font-size="12" fill="black">Policy Update Time: 0 hrs : 0 min : 40 sec        [Per iteration: 0 hrs : 0 min : 3 sec]        [Device: GPU]</text>
<text x="50" y="170" font-family="Arial" font-size="12" fill="black">Inference Time / Training Session Time: 8.969</text>
<text x="50" y="190" font-family="Arial" font-size="12" fill="black">Policy Update Time / Training Session Time: 0.149</text>
<text x="50" y="210" font-family="Arial" font-size="12" fill="black">Inference Steps: 135168    [Per agent: 11264]</text>
<text x="50" y="230" font-family="Arial" font-size="12" fill="black">Iterations: 11</text>
<text x="50" y="250" font-family="Arial" font-size="12" fill="black">Parallel Agents: 12</text>
<text x="10" y="300" font-family="Arial" font-size="16" fill="black">[Hyperparameters]</text>
<text x="50" y="320" font-family="Arial" font-size="12" fill="black">Buffer Size: 1024        [Batch Size: 64       (x16)]</text>
<text x="50" y="340" font-family="Arial" font-size="12" fill="black">Num Epoch: 8</text>
<text x="50" y="360" font-family="Arial" font-size="12" fill="black">Time Horizon: 128</text>
<text x="50" y="380" font-family="Arial" font-size="12" fill="black">Gradient Cliping Normalization: 0.5</text>
<text x="50" y="400" font-family="Arial" font-size="12" fill="black">Advantages Normalization: True</text>
<text x="50" y="420" font-family="Arial" font-size="12" fill="black">Training Data Shuffle: True</text>
<text x="50" y="440" font-family="Arial" font-size="12" fill="black">Learning Rate Schedule: False    </text>
<text x="10" y="490" font-family="Arial" font-size="16" fill="black">[Behaviour]</text>
<text x="50" y="510" font-family="Arial" font-size="12" fill="black">Space Size: 13</text>
<text x="50" y="530" font-family="Arial" font-size="12" fill="black">Continuous Dim: 3</text>
<text x="50" y="550" font-family="Arial" font-size="12" fill="black">Discrete Branches: 0</text>
<text x="50" y="570" font-family="Arial" font-size="12" fill="black">TargetFPS: 50 (physics update rate)</text>
<text x="50" y="590" font-family="Arial" font-size="12" fill="black">Observations Normalization: False</text>
<text x="50" y="610" font-family="Arial" font-size="12" fill="black">Standard Deviation: Fixed    [Value: 1.5]</text>
<text x="10" y="710" font-family="Arial" font-size="16" fill="black">[Graphs]</text>
<text x="50" y="730" font-family="Arial" font-size="12" fill="black">Episode Reward</text>
<text x="50" y="745" font-family="Arial" font-size="10" fill="black">4</text>
<text x="50" y="960" font-family="Arial" font-size="10" fill="black">0</text>
<path d="M50,900 L51.5625,900 L53.125,900 L54.6875,900 L56.25,900 L57.8125,900 L59.375,900 L60.9375,900 L62.5,850 L64.0625,900 L65.625,900 L67.1875,950 L68.75,900 L70.3125,950 L71.875,850 L73.4375,900 L75,900 L76.5625,950 L78.125,900 L79.6875,900 L81.25,900 L82.8125,850 L84.375,850 L85.9375,900 L87.5,950 L89.0625,900 L90.625,850 L92.1875,850 L93.75,950 L95.3125,900 L96.875,900 L98.4375,900 L100,900 L101.5625,900 L103.125,900 L104.6875,900 L106.25,900 L107.8125,900 L109.375,900 L110.9375,900 L112.5,850 L114.0625,950 L115.625,800 L117.1875,900 L118.75,850 L120.3125,800 L121.875,950 L123.4375,900 L125,850 L126.5625,800 L128.125,800 L129.6875,900 L131.25,900 L132.8125,900 L134.375,800 L135.9375,850 L137.5,900 L139.0625,900 L140.625,850 L142.1875,900 L143.75,900 L145.3125,850 L146.875,900 L148.4375,800 L150,900 L151.5625,900 L153.125,850 L154.6875,900 L156.25,800 L157.8125,750 L159.375,850 L160.9375,900 L162.5,850 L164.0625,850 L165.625,950 L167.1875,950 L168.75,900 L170.3125,750 L171.875,800 L173.4375,900 L175,900 L176.5625,900 L178.125,900 L179.6875,850 L181.25,900 L182.8125,900 L184.375,900 L185.9375,900 L187.5,900 L189.0625,900 L190.625,900 L192.1875,850 L193.75,950 L195.3125,750 L196.875,900 L198.4375,900 L200,900 L201.5625,800 L203.125,850 L204.6875,750 L206.25,800 L207.8125,900 L209.375,850 L210.9375,850 L212.5,850 L214.0625,750 L215.625,800 L217.1875,900 L218.75,850 L220.3125,850 L221.875,900 L223.4375,800 L225,900 L226.5625,750 L228.125,950 L229.6875,750 L231.25,900 L232.8125,800 L234.375,750 L235.9375,750 L237.5,800 L239.0625,900 L240.625,900 L242.1875,900 L243.75,750 L245.3125,750 L246.875,850 L248.4375,900 L250,850 L251.5625,850 L253.125,750 L254.6875,750 L256.25,750 L257.8125,800 L259.375,900 L260.9375,900 L262.5,900 L264.0625,900 L265.625,850 L267.1875,900 L268.75,900 L270.3125,900 L271.875,750 L273.4375,900 L275,900 L276.5625,900 L278.125,900 L279.6875,850 L281.25,900 L282.8125,900 L284.375,750 L285.9375,900 L287.5,900 L289.0625,850 L290.625,900 L292.1875,750 L293.75,800 L295.3125,900 L296.875,750 L298.4375,800 L300,900 L301.5625,900 L303.125,900 L304.6875,900 L306.25,750 L307.8125,850 L309.375,750 L310.9375,900 L312.5,850 L314.0625,750 L315.625,800 L317.1875,900 L318.75,900 L320.3125,900 L321.875,850 L323.4375,750 L325,900 L326.5625,750 L328.125,850 L329.6875,900 L331.25,750 L332.8125,900 L334.375,900 L335.9375,750 L337.5,750 L339.0625,800 L340.625,900 L342.1875,750 L343.75,900 L345.3125,900 L346.875,800 L348.4375,900 L350,900 L351.5625,900 L353.125,900 L354.6875,900 L356.25,800 L357.8125,750 L359.375,850 L360.9375,750 L362.5,900 L364.0625,750 L365.625,800 L367.1875,950 L368.75,900 L370.3125,850 L371.875,750 L373.4375,800 L375,800 L376.5625,950 L378.125,900 L379.6875,800 L381.25,900 " stroke="blue" fill="none" />
<text x="50" y="1000" font-family="Arial" font-size="12" fill="black">Episode Length</text>
<text x="50" y="1015" font-family="Arial" font-size="10" fill="black">224</text>
<text x="50" y="1230" font-family="Arial" font-size="10" fill="black">7</text>
<path d="M50,1212.627 L51.5625,1208.018 L53.125,1207.097 L54.6875,1201.567 L56.25,1199.724 L57.8125,1197.88 L59.375,1193.272 L60.9375,1213.548 L62.5,1183.134 L64.0625,1192.35 L65.625,1176.682 L67.1875,1210.783 L68.75,1170.23 L70.3125,1220 L71.875,1166.544 L73.4375,1208.018 L75,1210.783 L76.5625,1214.47 L78.125,1207.097 L79.6875,1206.175 L81.25,1210.783 L82.8125,1146.267 L84.375,1163.779 L85.9375,1190.507 L87.5,1164.7 L89.0625,1168.387 L90.625,1161.935 L92.1875,1137.972 L93.75,1191.429 L95.3125,1186.82 L96.875,1189.585 L98.4375,1174.839 L100,1162.857 L101.5625,1159.171 L103.125,1204.332 L104.6875,1169.309 L106.25,1173.917 L107.8125,1197.88 L109.375,1187.742 L110.9375,1177.604 L112.5,1120.461 L114.0625,1207.097 L115.625,1116.774 L117.1875,1187.742 L118.75,1159.171 L120.3125,1092.811 L121.875,1204.332 L123.4375,1218.157 L125,1149.954 L126.5625,1048.571 L128.125,1135.207 L129.6875,1184.977 L131.25,1159.171 L132.8125,1159.171 L134.375,1130.599 L135.9375,1189.585 L137.5,1215.392 L139.0625,1210.783 L140.625,1176.682 L142.1875,1198.802 L143.75,1180.369 L145.3125,1173.917 L146.875,1219.078 L148.4375,1086.359 L150,1214.47 L151.5625,1170.23 L153.125,1158.249 L154.6875,1204.332 L156.25,1057.788 L157.8125,1142.581 L159.375,1157.327 L160.9375,1211.705 L162.5,1149.954 L164.0625,1149.032 L165.625,1215.392 L167.1875,1218.157 L168.75,1198.802 L170.3125,1115.853 L171.875,1178.525 L173.4375,1208.94 L175,1205.253 L176.5625,1194.194 L178.125,1208.94 L179.6875,1197.88 L181.25,1197.88 L182.8125,1189.585 L184.375,1216.313 L185.9375,1177.604 L187.5,1196.958 L189.0625,1220 L190.625,1200.645 L192.1875,1167.465 L193.75,1205.253 L195.3125,1165.622 L196.875,1185.899 L198.4375,1203.41 L200,1186.82 L201.5625,1119.539 L203.125,1184.055 L204.6875,1143.502 L206.25,1186.82 L207.8125,1215.392 L209.375,1177.604 L210.9375,1149.954 L212.5,1132.442 L214.0625,1090.968 L215.625,1126.912 L217.1875,1194.194 L218.75,1182.212 L220.3125,1181.29 L221.875,1176.682 L223.4375,1150.876 L225,1210.783 L226.5625,1055.023 L228.125,1205.253 L229.6875,1065.161 L231.25,1159.171 L232.8125,1125.069 L234.375,1130.599 L235.9375,1144.424 L237.5,1149.032 L239.0625,1184.055 L240.625,1162.857 L242.1875,1195.115 L243.75,1140.737 L245.3125,1133.364 L246.875,1139.816 L248.4375,1194.194 L250,1103.871 L251.5625,1183.134 L253.125,1174.839 L254.6875,1125.991 L256.25,1118.618 L257.8125,1173.917 L259.375,1180.369 L260.9375,1189.585 L262.5,1197.88 L264.0625,1204.332 L265.625,1203.41 L267.1875,1195.115 L268.75,1197.88 L270.3125,1195.115 L271.875,1129.677 L273.4375,1182.212 L275,1208.018 L276.5625,1218.157 L278.125,1183.134 L279.6875,1212.627 L281.25,1210.783 L282.8125,1203.41 L284.375,1120.461 L285.9375,1213.548 L287.5,1199.724 L289.0625,1188.664 L290.625,1183.134 L292.1875,1198.802 L293.75,1169.309 L295.3125,1191.429 L296.875,1155.484 L298.4375,1137.972 L300,1218.157 L301.5625,1189.585 L303.125,1214.47 L304.6875,1198.802 L306.25,1143.502 L307.8125,1196.037 L309.375,1137.051 L310.9375,1200.645 L312.5,1193.272 L314.0625,1187.742 L315.625,1182.212 L317.1875,1204.332 L318.75,1209.862 L320.3125,1179.447 L321.875,1201.567 L323.4375,1127.834 L325,1208.94 L326.5625,1174.839 L328.125,1182.212 L329.6875,1208.94 L331.25,1178.525 L332.8125,1207.097 L334.375,1204.332 L335.9375,1150.876 L337.5,1020 L339.0625,1167.465 L340.625,1209.862 L342.1875,1155.484 L343.75,1205.253 L345.3125,1186.82 L346.875,1173.917 L348.4375,1216.313 L350,1193.272 L351.5625,1214.47 L353.125,1206.175 L354.6875,1200.645 L356.25,1193.272 L357.8125,1180.369 L359.375,1183.134 L360.9375,1103.871 L362.5,1212.627 L364.0625,1158.249 L365.625,1168.387 L367.1875,1209.862 L368.75,1205.253 L370.3125,1182.212 L371.875,1176.682 L373.4375,1134.286 L375,1146.267 L376.5625,1217.235 L378.125,1199.724 L379.6875,1202.489 L381.25,1204.332 " stroke="blue" fill="none" />
<text x="50" y="1270" font-family="Arial" font-size="12" fill="black">Policy Loss</text>
<text x="50" y="1285" font-family="Arial" font-size="10" fill="black">0.1551461</text>
<text x="50" y="1500" font-family="Arial" font-size="10" fill="black">0.01319964</text>
<path d="M50,1356.228 L53.125,1465.44 L56.25,1472.452 L59.375,1478.447 L62.5,1471.555 L65.625,1479.874 L68.75,1470.897 L71.875,1484.48 L75,1315.65 L78.125,1458.211 L81.25,1478.692 L84.375,1476.51 L87.5,1468.709 L90.625,1480.126 L93.75,1470.4 L96.875,1478.416 L100,1315.687 L103.125,1479.025 L106.25,1468.88 L109.375,1485.215 L112.5,1480.538 L115.625,1471.827 L118.75,1466.233 L121.875,1477.31 L125,1290 L128.125,1480.988 L131.25,1473.14 L134.375,1475.086 L137.5,1484.352 L140.625,1470.641 L143.75,1472.196 L146.875,1474.084 L150,1314.688 L153.125,1480.978 L156.25,1474.937 L159.375,1477.411 L162.5,1480.492 L165.625,1477.137 L168.75,1476.547 L171.875,1483.86 L175,1375.898 L178.125,1464.7 L181.25,1475 L184.375,1473.059 L187.5,1461.241 L190.625,1469.786 L193.75,1487.674 L196.875,1489.432 L200,1336.659 L203.125,1470.692 L206.25,1480.298 L209.375,1480.918 L212.5,1478.492 L215.625,1471.335 L218.75,1481.399 L221.875,1480.676 L225,1338.047 L228.125,1479.646 L231.25,1480.789 L234.375,1475.947 L237.5,1482.432 L240.625,1475.895 L243.75,1480.3 L246.875,1469.953 L250,1337.721 L253.125,1470.768 L256.25,1474.719 L259.375,1475.766 L262.5,1472.435 L265.625,1476.46 L268.75,1485.452 L271.875,1474.894 L275,1322.079 L278.125,1481.086 L281.25,1469.677 L284.375,1490 L287.5,1467.796 L290.625,1462.689 L293.75,1474.862 L296.875,1465.892 L300,1353.85 L303.125,1474.023 L306.25,1479.397 L309.375,1466.404 L312.5,1472.183 L315.625,1475.045 L318.75,1479.279 L321.875,1477.998 " stroke="blue" fill="none" />
<text x="50" y="1540" font-family="Arial" font-size="12" fill="black">Value Loss</text>
<text x="50" y="1555" font-family="Arial" font-size="10" fill="black">0.2054644</text>
<text x="50" y="1770" font-family="Arial" font-size="10" fill="black">0.06021356</text>
<path d="M50,1746.243 L53.125,1752.412 L56.25,1755.061 L59.375,1756.688 L62.5,1757.869 L65.625,1758.714 L68.75,1759.541 L71.875,1760 L75,1700.521 L78.125,1703.569 L81.25,1705.551 L84.375,1706.451 L87.5,1707.243 L90.625,1707.771 L93.75,1708.32 L96.875,1708.509 L100,1682.973 L103.125,1690.231 L106.25,1693.449 L109.375,1696.147 L112.5,1698.275 L115.625,1699.74 L118.75,1701.211 L121.875,1702.255 L125,1605.789 L128.125,1612.408 L131.25,1613.972 L134.375,1615.215 L137.5,1616.313 L140.625,1616.833 L143.75,1617.948 L146.875,1618.501 L150,1652.33 L153.125,1654.688 L156.25,1660.545 L159.375,1661.874 L162.5,1664.71 L165.625,1666.012 L168.75,1667.174 L171.875,1668.45 L175,1718.8 L178.125,1720.74 L181.25,1723.631 L184.375,1725.46 L187.5,1726.882 L190.625,1728.569 L193.75,1729.655 L196.875,1731.072 L200,1647.371 L203.125,1654.928 L206.25,1656.68 L209.375,1659.671 L212.5,1660.113 L215.625,1661.476 L218.75,1662.653 L221.875,1663.357 L225,1671.291 L228.125,1673.789 L231.25,1675.432 L234.375,1676.703 L237.5,1677.442 L240.625,1678.601 L243.75,1679.103 L246.875,1679.827 L250,1654.474 L253.125,1658.957 L256.25,1661.259 L259.375,1662.867 L262.5,1663.858 L265.625,1664.348 L268.75,1666.409 L271.875,1667.054 L275,1560 L278.125,1583.027 L281.25,1607.17 L284.375,1615.559 L287.5,1618.223 L290.625,1620.023 L293.75,1621.345 L296.875,1623.07 L300,1646.537 L303.125,1665.615 L306.25,1672.897 L309.375,1674.825 L312.5,1676.066 L315.625,1677.426 L318.75,1678.564 L321.875,1678.866 " stroke="blue" fill="none" />
<text x="50" y="1810" font-family="Arial" font-size="12" fill="black">Learning Rate</text>
<text x="50" y="1825" font-family="Arial" font-size="10" fill="black">0.0003</text>
<text x="50" y="2040" font-family="Arial" font-size="10" fill="black">0.0003</text>
<path d="M50,2030 L53.125,2030 L56.25,2030 L59.375,2030 L62.5,2030 L65.625,2030 L68.75,2030 L71.875,2030 L75,2030 L78.125,2030 L81.25,2030 L84.375,2030 L87.5,2030 L90.625,2030 L93.75,2030 L96.875,2030 L100,2030 L103.125,2030 L106.25,2030 L109.375,2030 L112.5,2030 L115.625,2030 L118.75,2030 L121.875,2030 L125,2030 L128.125,2030 L131.25,2030 L134.375,2030 L137.5,2030 L140.625,2030 L143.75,2030 L146.875,2030 L150,2030 L153.125,2030 L156.25,2030 L159.375,2030 L162.5,2030 L165.625,2030 L168.75,2030 L171.875,2030 L175,2030 L178.125,2030 L181.25,2030 L184.375,2030 L187.5,2030 L190.625,2030 L193.75,2030 L196.875,2030 L200,2030 L203.125,2030 L206.25,2030 L209.375,2030 L212.5,2030 L215.625,2030 L218.75,2030 L221.875,2030 L225,2030 L228.125,2030 L231.25,2030 L234.375,2030 L237.5,2030 L240.625,2030 L243.75,2030 L246.875,2030 L250,2030 L253.125,2030 L256.25,2030 L259.375,2030 L262.5,2030 L265.625,2030 L268.75,2030 L271.875,2030 L275,2030 L278.125,2030 L281.25,2030 L284.375,2030 L287.5,2030 L290.625,2030 L293.75,2030 L296.875,2030 L300,2030 L303.125,2030 L306.25,2030 L309.375,2030 L312.5,2030 L315.625,2030 L318.75,2030 L321.875,2030 " stroke="blue" fill="none" />
<text x="50" y="2080" font-family="Arial" font-size="12" fill="black">Epsilon</text>
<text x="50" y="2095" font-family="Arial" font-size="10" fill="black">0.2</text>
<text x="50" y="2310" font-family="Arial" font-size="10" fill="black">0.2</text>
<path d="M50,2300 L53.125,2300 L56.25,2300 L59.375,2300 L62.5,2300 L65.625,2300 L68.75,2300 L71.875,2300 L75,2300 L78.125,2300 L81.25,2300 L84.375,2300 L87.5,2300 L90.625,2300 L93.75,2300 L96.875,2300 L100,2300 L103.125,2300 L106.25,2300 L109.375,2300 L112.5,2300 L115.625,2300 L118.75,2300 L121.875,2300 L125,2300 L128.125,2300 L131.25,2300 L134.375,2300 L137.5,2300 L140.625,2300 L143.75,2300 L146.875,2300 L150,2300 L153.125,2300 L156.25,2300 L159.375,2300 L162.5,2300 L165.625,2300 L168.75,2300 L171.875,2300 L175,2300 L178.125,2300 L181.25,2300 L184.375,2300 L187.5,2300 L190.625,2300 L193.75,2300 L196.875,2300 L200,2300 L203.125,2300 L206.25,2300 L209.375,2300 L212.5,2300 L215.625,2300 L218.75,2300 L221.875,2300 L225,2300 L228.125,2300 L231.25,2300 L234.375,2300 L237.5,2300 L240.625,2300 L243.75,2300 L246.875,2300 L250,2300 L253.125,2300 L256.25,2300 L259.375,2300 L262.5,2300 L265.625,2300 L268.75,2300 L271.875,2300 L275,2300 L278.125,2300 L281.25,2300 L284.375,2300 L287.5,2300 L290.625,2300 L293.75,2300 L296.875,2300 L300,2300 L303.125,2300 L306.25,2300 L309.375,2300 L312.5,2300 L315.625,2300 L318.75,2300 L321.875,2300 " stroke="blue" fill="none" />
</svg>
