<svg width="1000" height="2500" xmlns="http://www.w3.org/2000/svg">
<text x="10" y="20" font-family="Arial" font-size="26" fill="black"> [DriveLittleCar] Training Session</text>
<text x="10" y="50" font-family="Arial" font-size="16" fill="black">[Statistics]</text>
<text x="50" y="70" font-family="Arial" font-size="12" fill="black">Started at: 8:53:16 PM, Friday, September 15, 2023</text>
<text x="50" y="90" font-family="Arial" font-size="12" fill="black">Finished at: 9:00:27 PM, Friday, September 15, 2023</text>
<text x="50" y="110" font-family="Arial" font-size="12" fill="black">Training Session Time: 0 hrs : 7 min : 10 sec</text>
<text x="50" y="130" font-family="Arial" font-size="12" fill="black">Inference Time: 2 hrs : 22 min : 27 sec       [Per agent: 0 hrs : 4 min : 28 sec]        [Device: CPU]</text>
<text x="50" y="150" font-family="Arial" font-size="12" fill="black">Policy Update Time: 0 hrs : 2 min : 16 sec        [Per iteration: 0 hrs : 0 min : 13 sec]        [Device: GPU]</text>
<text x="50" y="170" font-family="Arial" font-size="12" fill="black">Inference Time / Training Session Time: 19.603</text>
<text x="50" y="190" font-family="Arial" font-size="12" fill="black">Policy Update Time / Training Session Time: 0.320</text>
<text x="50" y="210" font-family="Arial" font-size="12" fill="black">Inference Steps: 1920000    [Per agent: 60000]</text>
<text x="50" y="230" font-family="Arial" font-size="12" fill="black">Iterations: 10</text>
<text x="50" y="250" font-family="Arial" font-size="12" fill="black">Parallel Agents: 32</text>
<text x="10" y="300" font-family="Arial" font-size="16" fill="black">[Hyperparameters]</text>
<text x="50" y="320" font-family="Arial" font-size="12" fill="black">Buffer Size: 6000        [Batch Size: 300       (x20)]</text>
<text x="50" y="340" font-family="Arial" font-size="12" fill="black">Num Epoch: 8</text>
<text x="50" y="360" font-family="Arial" font-size="12" fill="black">Time Horizon: 50</text>
<text x="50" y="380" font-family="Arial" font-size="12" fill="black">Gradient Cliping Normalization: 0.5</text>
<text x="50" y="400" font-family="Arial" font-size="12" fill="black">Advantages Normalization: True</text>
<text x="50" y="420" font-family="Arial" font-size="12" fill="black">Training Data Shuffle: True</text>
<text x="50" y="440" font-family="Arial" font-size="12" fill="black">Learning Rate Schedule: False    </text>
<text x="10" y="490" font-family="Arial" font-size="16" fill="black">[Behaviour]</text>
<text x="50" y="510" font-family="Arial" font-size="12" fill="black">Space Size: 13</text>
<text x="50" y="530" font-family="Arial" font-size="12" fill="black">Continuous Dim: 3</text>
<text x="50" y="550" font-family="Arial" font-size="12" fill="black">Discrete Branches: 0</text>
<text x="50" y="570" font-family="Arial" font-size="12" fill="black">TargetFPS: 50 (physics update rate)</text>
<text x="50" y="590" font-family="Arial" font-size="12" fill="black">Observations Normalization: False</text>
<text x="50" y="610" font-family="Arial" font-size="12" fill="black">Standard Deviation: Fixed    [Value: 1.25]</text>
<text x="10" y="660" font-family="Arial" font-size="16" fill="black">[Decision Requester]</text>
<text x="50" y="680" font-family="Arial" font-size="12" fill="black">Max Step: 2000</text>
<text x="50" y="700" font-family="Arial" font-size="12" fill="black">Decision Period: 5</text>
<text x="10" y="750" font-family="Arial" font-size="16" fill="black">[Graphs]</text>
<text x="50" y="770" font-family="Arial" font-size="12" fill="black">Episode Reward</text>
<text x="50" y="785" font-family="Arial" font-size="10" fill="black">4.847498</text>
<text x="50" y="1000" font-family="Arial" font-size="10" fill="black">-1.09</text>
<path d="M50,955.0526 L50.39063,955.1368 L50.78125,921.621 L51.17188,921.621 L51.5625,921.621 L51.95313,887.9368 L52.34375,887.9368 L52.73438,888.0211 L53.125,955.3895 L53.51563,955.3895 L53.90625,921.7053 L54.29688,955.3895 L54.6875,888.0211 L55.07813,955.4737 L55.46875,921.7894 L55.85938,888.1052 L56.25,987.4737 L56.64063,955.8947 L57.03125,889.2 L57.42188,821.8316 L57.8125,822.2526 L58.20313,856.1053 L58.59375,921.9579 L58.98438,823.0105 L59.375,922.0421 L59.76563,888.4421 L60.15625,821.5789 L60.54688,987.3052 L60.9375,924.4842 L61.32813,823.4316 L61.71875,954.9684 L62.10938,987.4737 L62.5,890.9684 L62.89063,890.9684 L63.28125,924.821 L63.67188,857.7053 L64.0625,822 L64.45313,824.1053 L64.84375,858.379 L65.23438,822.7579 L65.625,822.8421 L66.01563,856.7789 L66.40625,890.5474 L66.79688,955.2211 L67.1875,857.3685 L67.57813,823.5158 L67.96875,921.9579 L68.35938,824.4421 L68.75,892.1474 L69.14063,824.779 L69.53125,823.4316 L69.92188,827.137 L70.3125,822.5052 L70.70313,922.2105 L71.09375,822.5052 L71.48438,823.3474 L71.875,826.2106 L72.26563,825.7053 L72.65625,858.1263 L73.04688,857.4527 L73.4375,823.0947 L73.82813,891.1368 L74.21875,856.7789 L74.60938,824.9474 L75,824.4421 L75.39063,827.3895 L75.78125,889.1158 L76.17188,889.4526 L76.5625,823.0947 L76.95313,824.3579 L77.34375,892.4 L77.73438,822.5895 L78.125,829.9158 L78.51563,857.3685 L78.90625,824.0211 L79.29688,824.4421 L79.6875,827.3895 L80.07813,825.8737 L80.46875,822.421 L80.85938,888.6948 L81.25,954.7158 L81.64063,822.9263 L82.03125,824.5263 L82.42188,823.6843 L82.8125,821.6631 L83.20313,857.2 L83.59375,824.0211 L83.98438,890.2947 L84.375,822.6737 L84.76563,855.5158 L85.15625,827.8106 L85.54688,855.8526 L85.9375,987.6421 L86.32813,823.9368 L86.71875,824.1895 L87.10938,856.1053 L87.5,824.3579 L87.89063,822.0842 L88.28125,855.6842 L88.67188,890.7158 L89.0625,923.1368 L89.45313,823.3474 L89.84375,923.3895 L90.23438,924.8211 L90.625,955.1368 L91.01563,824.1895 L91.40625,824.1053 L91.79688,955.6421 L92.1875,825.7053 L92.57813,824.1053 L92.96875,857.6211 L93.35938,825.5369 L93.75,822.8421 L94.14063,956.0632 L94.53125,823.2632 L94.92188,923.7263 L95.3125,858.0422 L95.70313,893.0737 L96.09375,922.5474 L96.48438,824.9474 L96.875,823.6842 L97.26563,956.2316 L97.65625,889.1158 L98.04688,856.1895 L98.4375,857.3685 L98.82813,824.4421 L99.21875,954.3789 L99.60938,954.2947 L100,822.5895 L100.3906,822.5895 L100.7813,824.4421 L101.1719,828.6527 L101.5625,824.1895 L101.9531,954.7158 L102.3438,829.5791 L102.7344,858.7158 L103.125,921.1158 L103.5156,823.0947 L103.9063,824.1052 L104.2969,987.6421 L104.6875,823.6842 L105.0781,827.6422 L105.4688,823.7684 L105.8594,823.5158 L106.25,889.3684 L106.6406,922.2105 L107.0313,824.4421 L107.4219,822.9263 L107.8125,824.6106 L108.2031,822.5052 L108.5938,823.179 L108.9844,856.9474 L109.375,823.3474 L109.7656,857.1158 L110.1563,890.7158 L110.5469,856.0211 L110.9375,826.379 L111.3281,922.5474 L111.7188,824.1053 L112.1094,858.2947 L112.5,922.9684 L112.8906,826.0422 L113.2813,857.4526 L113.6719,822.2526 L114.0625,892.8211 L114.4531,889.0316 L114.8438,824.2737 L115.2344,824.0211 L115.625,858.8843 L116.0156,825.7053 L116.4063,822.8421 L116.7969,954.9684 L117.1875,821.5789 L117.5781,825.0316 L117.9688,826.8 L118.3594,823.9368 L118.75,821.7474 L119.1406,889.2 L119.5313,890.1263 L119.9219,825.9579 L120.3125,888.3579 L120.7031,823.5158 L121.0938,823.0106 L121.4844,823.0948 L121.875,823.4316 L122.2656,825.4527 L122.6563,824.2737 L123.0469,828.4843 L123.4375,922.9684 L123.8281,859.0527 L124.2188,822.5895 L124.6094,921.8737 L125,855.8526 L125.3906,890.1263 L125.7813,828.1475 L126.1719,821.9158 L126.5625,826.2106 L126.9531,891.0526 L127.3438,922.8 L127.7344,857.8737 L128.125,924.2316 L128.5156,825.4527 L128.9063,921.4526 L129.2969,860.3159 L129.6875,955.7263 L130.0781,955.1368 L130.4688,825.8737 L130.8594,955.4737 L131.25,856.8632 L131.6406,894.6737 L132.0313,890.8842 L132.4219,921.2842 L132.8125,823.0106 L133.2031,826.4633 L133.5938,824.779 L133.9844,826.4632 L134.375,828.2317 L134.7656,857.0316 L135.1563,858.379 L135.5469,823.5158 L135.9375,922.379 L136.3281,890.0421 L136.7188,889.2 L137.1094,822 L137.5,958.3369 L137.8906,823.9369 L138.2813,892.3159 L138.6719,824.5264 L139.0625,828.9896 L139.4531,823.2632 L139.8438,859.6422 L140.2344,823.7684 L140.625,822.5052 L141.0156,891.8948 L141.4063,824.6948 L141.7969,825.7895 L142.1875,823.6843 L142.5781,824.2737 L142.9688,822.0842 L143.3594,822.7579 L143.75,825.4527 L144.1406,826.6317 L144.5313,825.6211 L144.9219,823.0947 L145.3125,987.4737 L145.7031,825.6211 L146.0938,954.2947 L146.4844,825.8737 L146.875,825.9579 L147.2656,790 L147.6563,826.1263 L148.0469,823.6843 L148.4375,826.2106 L148.8281,825.9579 L149.2188,824.9474 L149.6094,824.0211 L150,825.7053 L150.3906,889.7053 L150.7813,824.2737 L151.1719,824.4421 L151.5625,822.6737 L151.9531,822.3369 L152.3438,922.7158 L152.7344,889.621 L153.125,859.6422 L153.5156,825.4527 L153.9063,824.1053 L154.2969,823.3474 L154.6875,889.621 L155.0781,825.7895 L155.4688,825.1158 L155.8594,824.1895 L156.25,858.9684 L156.6406,824.4421 L157.0313,823.0106 L157.4219,856.1053 L157.8125,827.8106 L158.2031,824.779 L158.5938,857.9579 L158.9844,826.1264 L159.375,824.9474 L159.7656,855.9368 L160.1563,828.7369 L160.5469,821.7474 L160.9375,827.7264 L161.3281,823.7684 L161.7188,822.6737 L162.1094,825.1158 L162.5,824.1053 L162.8906,825.9579 L163.2813,826.379 L163.6719,826.2948 L164.0625,822.6737 L164.4531,891.5579 L164.8438,823.2632 L165.2344,826.6317 L165.625,922.2947 L166.0156,821.8315 L166.4063,954.7158 L166.7969,954.5474 L167.1875,889.2842 L167.5781,923.2211 L167.9688,856.1053 L168.3594,956.1473 L168.75,826.2106 L169.1406,822.421 L169.5313,921.2 L169.9219,889.9579 L170.3125,824.5263 L170.7031,822.7579 L171.0938,823.9368 L171.4844,823.0947 L171.875,892.4842 L172.2656,855.6 L172.6563,823.6 L173.0469,825.3685 L173.4375,825.9579 L173.8281,890.0421 L174.2188,891.7263 L174.6094,924.1473 L175,823.9369 L175.3906,823.0105 L175.7813,824.9474 L176.1719,823.9369 L176.5625,826.379 L176.9531,857.8737 L177.3438,858.1263 L177.7344,856.4421 L178.125,829.8318 L178.5156,826.6317 L178.9063,955.0526 L179.2969,857.2842 L179.6875,825.4526 L180.0781,823.179 L180.4688,827.6422 L180.8594,824.6105 L181.25,955.6421 L181.6406,955.5579 L182.0313,828.5685 L182.4219,823.5158 L182.8125,823.7684 L183.2031,921.7053 L183.5938,823.7684 L183.9844,825.3685 L184.375,922.2105 L184.7656,824.1053 L185.1563,829.2422 L185.5469,825.2842 L185.9375,825.8737 L186.3281,823.3474 L186.7188,921.5368 L187.1094,956.5684 L187.5,823.2632 L187.8906,890.8 L188.2813,954.9684 L188.6719,823.6843 L189.0625,858.2948 L189.4531,922.0421 L189.8438,822.9263 L190.2344,922.7158 L190.625,822.9263 L191.0156,827.558 L191.4063,829.158 L191.7969,822.8421 L192.1875,822.4211 L192.5781,825.2843 L192.9688,824.4421 L193.3594,822.9263 L193.75,823.8526 L194.1406,823.4316 L194.5313,857.8737 L194.9219,856.2737 L195.3125,821.7474 L195.7031,791.6 L196.0938,921.8737 L196.4844,823.179 L196.875,956.4842 L197.2656,823.8526 L197.6563,824.0211 L198.0469,924.4 L198.4375,824.779 L198.8281,824.0211 L199.2188,824.358 L199.6094,824.0211 L200,824.3579 L200.3906,955.0526 L200.7813,823.2632 L201.1719,826.4633 L201.5625,824.5264 L201.9531,922.2105 L202.3438,823.3474 L202.7344,857.2842 L203.125,891.6422 L203.5156,954.3789 L203.9063,954.8842 L204.2969,858.0421 L204.6875,921.7894 L205.0781,922.5474 L205.4688,825.4527 L205.8594,889.7053 L206.25,826.379 L206.6406,889.7895 L207.0313,824.6948 L207.4219,826.2948 L207.8125,826.379 L208.2031,825.0316 L208.5938,825.4527 L208.9844,954.5474 L209.375,955.2211 L209.7656,923.6421 L210.1563,954.5474 L210.5469,825.2 L210.9375,822.8421 L211.3281,823.179 L211.7188,890.379 L212.1094,823.7684 L212.5,822.8421 L212.8906,822.6737 L213.2813,825.0316 L213.6719,954.4631 L214.0625,822.6737 L214.4531,822.8421 L214.8438,823.6842 L215.2344,826.0422 L215.625,856.9474 L216.0156,857.7053 L216.4063,825.2843 L216.7969,857.1158 L217.1875,890.9684 L217.5781,824.4421 L217.9688,889.4526 L218.3594,857.3684 L218.75,824.2737 L219.1406,856.2737 L219.5313,823.0105 L219.9219,822 L220.3125,825.3685 L220.7031,823.5158 L221.0938,856.1053 L221.4844,825.2 L221.875,824.0211 L222.2656,955.8947 L222.6563,824.6105 L223.0469,921.621 L223.4375,921.9579 L223.8281,823.0106 L224.2188,828.6527 L224.6094,824.9474 L225,823.0948 L225.3906,827.0527 L225.7813,889.0316 L226.1719,825.9579 L226.5625,824.3579 L226.9531,824.3579 L227.3438,823.179 L227.7344,825.3685 L228.125,823.6843 L228.5156,825.9579 L228.9063,889.9579 L229.2969,822.7579 L229.6875,859.558 L230.0781,823.6842 L230.4688,825.4526 L230.8594,825.6211 L231.25,824.6948 L231.6406,857.1158 L232.0313,824.779 L232.4219,825.9579 L232.8125,828.3159 L233.2031,892.4843 L233.5938,823.5158 L233.9844,825.1158 L234.375,892.4 L234.7656,828.7369 L235.1563,822.8421 L235.5469,857.4527 L235.9375,827.4738 L236.3281,825.2842 L236.7188,954.7158 L237.1094,954.6316 L237.5,891.5579 L237.8906,825.2 L238.2813,824.1053 L238.6719,923.5579 L239.0625,888.1895 L239.4531,822.6737 L239.8438,890.8 L240.2344,923.0526 L240.625,923.3052 L241.0156,859.4738 L241.4063,889.0316 L241.7969,921.4526 L242.1875,888.8632 L242.5781,957.3263 L242.9688,957.3263 L243.3594,921.4526 L243.75,857.7895 L244.1406,825.7895 L244.5313,857.2 L244.9219,855.5158 L245.3125,987.7263 L245.7031,855.6842 L246.0938,824.3579 L246.4844,828.1475 L246.875,822 L247.2656,827.0527 L247.6563,827.7264 L248.0469,826.4632 L248.4375,822.3369 L248.8281,824.6948 L249.2188,823.6843 L249.6094,922.0421 L250,827.4738 L250.3906,823.4316 L250.7813,823.4316 L251.1719,825.8737 L251.5625,829.4106 L251.9531,859.3053 L252.3438,823.8527 L252.7344,823.3474 L253.125,826.0422 L253.5156,823.9368 L253.9063,828.4 L254.2969,857.3684 L254.6875,823.9368 L255.0781,891.3895 L255.4688,824.1053 L255.8594,827.2211 L256.25,826.5475 L256.6406,824.3579 L257.0313,825.7053 L257.4219,823.9369 L257.8125,922.8 L258.2031,857.9579 L258.5938,922.5474 L258.9844,924.4 L259.375,826.4632 L259.7656,823.2632 L260.1563,857.5369 L260.5469,856.6948 L260.9375,822.8421 L261.3281,828.0632 L261.7188,822.9263 L262.1094,827.558 L262.5,824.9474 L262.8906,827.558 L263.2813,824.1895 L263.6719,823.6 L264.0625,823.8527 L264.4531,822.5895 L264.8438,823.0947 L265.2344,824.8632 L265.625,826.2948 L266.0156,824.6106 L266.4063,825.2001 L266.7969,826.2106 L267.1875,826.2948 L267.5781,888.8632 L267.9688,823.8527 L268.3594,823.2632 L268.75,862.2527 L269.1406,890.1263 L269.5313,826.6316 L269.9219,824.1895 L270.3125,825.2001 L270.7031,822.4211 L271.0938,828.6526 L271.4844,823.3474 L271.875,822.7579 L272.2656,825.3685 L272.6563,794.9685 L273.0469,823.7684 L273.4375,893.6632 L273.8281,824.6105 L274.2188,921.9579 L274.6094,829.158 L275,828.8212 L275.3906,954.4631 L275.7813,825.0316 L276.1719,824.3579 L276.5625,857.4526 L276.9531,824.1895 L277.3438,859.3895 L277.7344,826.8 L278.125,823.179 L278.5156,890.1263 L278.9063,921.2 L279.2969,856.6948 L279.6875,824.4421 L280.0781,858.2106 L280.4688,824.9474 L280.8594,922.1263 L281.25,855.8527 L281.6406,889.2842 L282.0313,828.0632 L282.4219,823.6 L282.8125,823.9369 L283.2031,823.3474 L283.5938,856.3579 L283.9844,822.9263 L284.375,825.7053 L284.7656,954.1263 L285.1563,826.379 L285.5469,823.4316 L285.9375,956.4 L286.3281,825.5369 L286.7188,822.0842 L287.1094,922.0421 L287.5,856.4421 L287.8906,922.0421 L288.2813,856.2737 L288.6719,954.2105 L289.0625,921.4526 L289.4531,954.4631 L289.8438,824.1053 L290.2344,823.9368 L290.625,824.2737 L291.0156,890.2106 L291.4063,824.6948 L291.7969,857.7053 L292.1875,921.7895 L292.5781,824.6948 L292.9688,824.5264 L293.3594,828.4001 L293.75,954.5474 L294.1406,888.8632 L294.5313,828.1475 L294.9219,891.1368 L295.3125,926.0842 L295.7031,856.0211 L296.0938,823.4316 L296.4844,893.0737 L296.875,954.1263 L297.2656,987.8947 L297.6563,955.8105 L298.0469,825.4526 L298.4375,955.0526 L298.8281,825.8737 L299.2188,889.2 L299.6094,887.9368 L300,822 L300.3906,821.8316 L300.7813,922.2947 L301.1719,822.2526 L301.5625,956.2316 L301.9531,988.0632 L302.3438,922.2105 L302.7344,824.1895 L303.125,823.7684 L303.5156,823.0948 L303.9063,823.4316 L304.2969,823.8527 L304.6875,824.779 L305.0781,857.2842 L305.4688,859.8106 L305.8594,823.4316 L306.25,823.6842 L306.6407,858.6317 L307.0313,856.8632 L307.4219,859.3054 L307.8125,922.6316 L308.2031,822.8421 L308.5938,826.379 L308.9844,824.8632 L309.375,858.6316 L309.7656,856.779 L310.1563,823.6 L310.5469,856.6105 L310.9375,824.779 L311.3281,860.3159 L311.7188,823.9368 L312.1094,823.6842 L312.5,859.4737 L312.8906,857.7895 L313.2813,825.5369 L313.6719,826.7159 L314.0625,954.3789 L314.4532,826.9685 L314.8438,824.2737 L315.2344,790.7579 L315.625,857.2842 L316.0156,889.2842 L316.4063,922.2947 L316.7969,924.3158 L317.1875,920.9473 L317.5781,888.9473 L317.9688,922.2947 L318.3594,824.5263 L318.75,921.1158 L319.1406,822.9263 L319.5313,824.5264 L319.9219,891.1368 L320.3125,825.2 L320.7031,922.3789 L321.0938,856.6105 L321.4844,859.0527 L321.875,824.6105 L322.2657,889.621 L322.6563,825.7895 L323.0469,822.2526 L323.4375,825.1158 L323.8281,856.4421 L324.2188,826.5475 L324.6094,856.1053 L325,889.621 L325.3906,859.4738 L325.7813,855.9368 L326.1719,824.0211 L326.5625,822.3369 L326.9531,921.4526 L327.3438,956.821 L327.7344,889.3684 L328.125,823.179 L328.5156,859.2211 L328.9063,922.0421 L329.2969,823.179 L329.6875,921.4526 L330.0782,922.5474 L330.4688,823.2632 L330.8594,954.8842 L331.25,895.0106 L331.6406,823.3474 L332.0313,955.2211 L332.4219,889.7053 L332.8125,855.5158 L333.2031,824.3579 L333.5938,822.6737 L333.9844,888.5263 L334.375,955.0526 L334.7656,822.2526 L335.1563,824.8632 L335.5469,889.2 L335.9375,822.8421 L336.3281,888.7789 L336.7188,888.9474 L337.1094,990 L337.5,822.9263 L337.8907,857.7895 L338.2813,921.2842 L338.6719,824.779 L339.0625,822.0842 L339.4531,921.1158 L339.8438,859.3054 L340.2344,827.3896 L340.625,824.1895 L341.0156,955.0526 L341.4063,826.379 L341.7969,823.9368 L342.1875,893.579 L342.5781,855.6842 L342.9688,858.8 L343.3594,825.7896 L343.75,824.3579 L344.1406,822.3369 L344.5313,824.779 L344.9219,826.2106 L345.3125,859.6422 L345.7032,824.779 L346.0938,921.8737 L346.4844,823.8527 L346.875,824.8632 L347.2656,858.2106 L347.6563,824.1895 L348.0469,858.0421 L348.4375,822.5895 L348.8281,826.2106 L349.2188,858.6317 L349.6094,922.2105 L350,827.0527 L350.3906,825.2843 L350.7813,823.3474 L351.1719,923.1368 L351.5625,823.3474 L351.9531,955.0526 L352.3438,823.2632 L352.7344,825.3684 L353.125,957.1579 L353.5157,922.4631 L353.9063,889.9579 L354.2969,955.3895 L354.6875,923.7263 L355.0781,921.4526 L355.4688,790.4211 L355.8594,824.1053 L356.25,857.7895 L356.6406,825.958 L357.0313,890.1263 L357.4219,987.4737 L357.8125,827.558 L358.2031,859.0527 L358.5938,825.8738 L358.9844,859.6422 L359.375,888.5263 L359.7656,954.4631 L360.1563,922.2105 L360.5469,888.4421 L360.9375,987.7263 L361.3282,922.2947 L361.7188,923.9789 L362.1094,824.0211 L362.5,988.0632 L362.8906,955.1368 L363.2813,893.2421 L363.6719,953.9579 L364.0625,824.5263 L364.4531,889.9579 L364.8438,823.3474 L365.2344,923.1368 L365.625,888.1895 L366.0156,856.6105 L366.4063,822.2526 L366.7969,822.2526 L367.1875,855.0947 L367.5781,822.2526 L367.9688,824.6948 L368.3594,922.0421 L368.75,821.6631 L369.1407,889.1158 L369.5313,824.3579 L369.9219,822.2526 L370.3125,856.6105 L370.7031,823.3474 L371.0938,826.7158 L371.4844,822.5895 L371.875,824.2737 L372.2656,856.6948 L372.6563,823.6 L373.0469,823.6843 L373.4375,954.9684 L373.8281,824.9474 L374.2188,823.3474 L374.6094,824.4421 L375,823.0106 L375.3906,822.7579 L375.7813,824.2737 L376.1719,889.3684 L376.5625,824.779 L376.9532,922.6316 L377.3438,825.2843 L377.7344,892.2316 L378.125,821.6631 L378.5156,856.3579 L378.9063,859.3053 L379.2969,857.0316 L379.6875,922.8 L380.0781,924.0632 L380.4688,824.6105 L380.8594,824.4421 L381.25,857.2 L381.6406,826.2106 L382.0313,824.1895 L382.4219,826.2948 L382.8125,822.5052 L383.2031,856.8632 L383.5938,922.379 L383.9844,857.0316 L384.375,857.0316 L384.7657,825.1158 L385.1563,822 L385.5469,858.4632 L385.9375,824.8632 L386.3281,858.9684 L386.7188,824.1895 L387.1094,822.3369 L387.5,824.9474 L387.8906,924.5684 L388.2813,887.8526 L388.6719,857.8737 L389.0625,822.5895 L389.4531,823.4316 L389.8438,856.5263 L390.2344,825.2843 L390.625,855.8526 L391.0156,825.4527 L391.4063,857.0316 L391.7969,824.3579 L392.1875,825.1158 L392.5782,822.6737 L392.9688,922.2947 L393.3594,888.3579 L393.75,823.3474 L394.1406,824.6106 L394.5313,954.7158 L394.9219,954.8 L395.3125,856.2737 L395.7031,828.3159 L396.0938,823.2632 L396.4844,823.5158 L396.875,825.6211 L397.2656,827.1368 L397.6563,828.4001 L398.0469,922.7158 L398.4375,859.2211 L398.8281,824.779 L399.2188,922.2947 L399.6094,955.5579 L400,922.2947 L400.3907,889.2842 L400.7813,825.3685 L401.1719,855.5158 L401.5625,892.1474 L401.9531,954.9684 L402.3438,922.8 L402.7344,894.9264 L403.125,856.5263 L403.5156,824.6948 L403.9063,856.1895 L404.2969,824.0211 L404.6875,890.379 L405.0781,923.0526 L405.4688,857.0316 L405.8594,855.6842 L406.25,858.2106 L406.6406,822.2526 L407.0313,822.3369 L407.4219,825.6211 L407.8125,824.3579 L408.2032,823.8527 L408.5938,955.1368 L408.9844,822.421 L409.375,827.3896 L409.7656,825.4527 L410.1563,856.6948 L410.5469,823.0106 L410.9375,823.2632 L411.3281,825.4527 L411.7188,825.1158 L412.1094,954.5474 L412.5,825.1158 L412.8906,824.2737 L413.2813,823.5158 L413.6719,954.7158 L414.0625,823.6 L414.4531,828.0632 L414.8438,823.7684 L415.2344,856.0211 L415.625,824.2737 L416.0157,824.2737 L416.4063,826.5475 L416.7969,824.4421 L417.1875,825.2 L417.5781,825.0316 L417.9688,822.421 L418.3594,825.2842 L418.75,888.6947 L419.1406,824.3579 L419.5313,822.4211 L419.9219,889.1158 L420.3125,889.621 L420.7031,822.5052 L421.0938,827.6422 L421.4844,823.5158 L421.875,823.9368 L422.2656,860.7369 L422.6563,825.7053 L423.0469,956.1473 L423.4375,822.0842 L423.8282,825.7053 L424.2188,856.2737 L424.6094,921.8737 L425,857.7895 L425.3906,824.6106 L425.7813,824.358 L426.1719,824.9474 L426.5625,825.2001 L426.9531,924.4842 L427.3438,825.4527 L427.7344,825.2 L428.125,824.3579 L428.5156,826.6316 L428.9063,823.7684 L429.2969,823.3474 L429.6875,827.0527 L430.0781,827.558 L430.4688,824.0211 L430.8594,826.9685 L431.25,924.3158 L431.6407,824.3579 L432.0313,858.9685 L432.4219,829.4949 L432.8125,856.0211 L433.2031,828.1474 L433.5938,954.2105 L433.9844,859.2211 L434.375,825.2 L434.7656,858.6317 L435.1563,924.5684 L435.5469,954.1263 L435.9375,891.3052 L436.3281,923.1368 L436.7188,888.6948 L437.1094,955.4737 L437.5,825.5369 L437.8906,857.3684 L438.2813,790.5895 L438.6719,859.2211 L439.0625,823.6842 L439.4532,825.9579 L439.8438,826.1264 L440.2344,823.9368 L440.625,821.7474 L441.0156,825.8737 L441.4063,823.0106 L441.7969,828.5685 L442.1875,825.5369 L442.5781,824.3579 L442.9688,888.6105 L443.3594,858.379 L443.75,821.8316 L444.1406,824.6948 L444.5313,826.2948 L444.9219,858.2948 L445.3125,858.5474 L445.7031,822.8421 " stroke="blue" fill="none" />
<text x="50" y="1040" font-family="Arial" font-size="12" fill="black">Episode Length</text>
<text x="50" y="1055" font-family="Arial" font-size="10" fill="black">136</text>
<text x="50" y="1270" font-family="Arial" font-size="10" fill="black">5</text>
<path d="M50,1234.046 L50.39063,1232.519 L50.78125,1229.466 L51.17188,1229.466 L51.5625,1229.466 L51.95313,1229.466 L52.34375,1229.466 L52.73438,1227.939 L53.125,1227.939 L53.51563,1227.939 L53.90625,1227.939 L54.29688,1227.939 L54.6875,1227.939 L55.07813,1226.412 L55.46875,1226.412 L55.85938,1226.412 L56.25,1256.947 L56.64063,1218.779 L57.03125,1206.565 L57.42188,1206.565 L57.8125,1198.931 L58.20313,1195.878 L58.59375,1223.359 L58.98438,1185.191 L59.375,1221.832 L59.76563,1220.305 L60.15625,1211.145 L60.54688,1260 L60.9375,1177.557 L61.32813,1177.557 L61.71875,1235.573 L62.10938,1256.947 L62.5,1174.504 L62.89063,1174.504 L63.28125,1171.45 L63.67188,1166.87 L64.0625,1203.511 L64.45313,1165.344 L64.84375,1154.656 L65.23438,1189.771 L65.625,1188.244 L66.01563,1183.664 L66.40625,1182.137 L66.79688,1230.992 L67.1875,1172.977 L67.57813,1176.031 L67.96875,1223.359 L68.35938,1159.237 L68.75,1153.13 L69.14063,1153.13 L69.53125,1177.557 L69.92188,1110.382 L70.3125,1194.351 L70.70313,1218.779 L71.09375,1194.351 L71.48438,1179.084 L71.875,1127.176 L72.26563,1136.336 L72.65625,1159.237 L73.04688,1171.45 L73.4375,1183.664 L73.82813,1171.45 L74.21875,1183.664 L74.60938,1150.076 L75,1159.237 L75.39063,1105.802 L75.78125,1208.092 L76.17188,1201.985 L76.5625,1183.664 L76.95313,1160.763 L77.34375,1148.55 L77.73438,1192.824 L78.125,1060 L78.51563,1172.977 L78.90625,1166.87 L79.29688,1159.237 L79.6875,1105.802 L80.07813,1133.282 L80.46875,1195.878 L80.85938,1215.725 L81.25,1240.153 L81.64063,1186.718 L82.03125,1157.71 L82.42188,1172.977 L82.8125,1209.618 L83.20313,1176.031 L83.59375,1166.87 L83.98438,1186.718 L84.375,1191.298 L84.76563,1206.565 L85.15625,1098.168 L85.54688,1200.458 L85.9375,1253.893 L86.32813,1168.397 L86.71875,1163.817 L87.10938,1195.878 L87.5,1160.763 L87.89063,1201.985 L88.28125,1203.511 L88.67188,1179.084 L89.0625,1201.985 L89.45313,1179.084 L89.84375,1197.405 L90.23438,1171.45 L90.625,1232.519 L91.01563,1163.817 L91.40625,1165.344 L91.79688,1223.359 L92.1875,1136.336 L92.57813,1165.344 L92.96875,1168.397 L93.35938,1139.389 L93.75,1188.244 L94.14063,1215.725 L94.53125,1180.611 L94.92188,1191.298 L95.3125,1160.763 L95.70313,1136.336 L96.09375,1212.672 L96.48438,1150.076 L96.875,1172.977 L97.26563,1212.672 L97.65625,1208.092 L98.04688,1194.351 L98.4375,1172.977 L98.82813,1159.237 L99.21875,1246.26 L99.60938,1247.786 L100,1192.824 L100.3906,1192.824 L100.7813,1159.237 L101.1719,1082.901 L101.5625,1163.817 L101.9531,1240.153 L102.3438,1066.107 L102.7344,1148.55 L103.125,1238.626 L103.5156,1183.664 L103.9063,1165.344 L104.2969,1253.893 L104.6875,1172.977 L105.0781,1101.221 L105.4688,1171.45 L105.8594,1176.031 L106.25,1203.511 L106.6406,1218.779 L107.0313,1159.237 L107.4219,1186.718 L107.8125,1156.183 L108.2031,1194.351 L108.5938,1182.137 L108.9844,1180.611 L109.375,1179.084 L109.7656,1177.557 L110.1563,1179.084 L110.5469,1197.405 L110.9375,1124.122 L111.3281,1212.672 L111.7188,1165.344 L112.1094,1156.183 L112.5,1205.038 L112.8906,1130.229 L113.2813,1171.45 L113.6719,1198.931 L114.0625,1140.916 L114.4531,1209.618 L114.8438,1162.29 L115.2344,1166.87 L115.625,1145.496 L116.0156,1136.336 L116.4063,1188.244 L116.7969,1235.573 L117.1875,1211.145 L117.5781,1148.55 L117.9688,1116.489 L118.3594,1168.397 L118.75,1208.092 L119.1406,1206.565 L119.5313,1189.771 L119.9219,1131.756 L120.3125,1221.832 L120.7031,1176.031 L121.0938,1185.191 L121.4844,1183.664 L121.875,1177.557 L122.2656,1140.916 L122.6563,1162.29 L123.0469,1085.954 L123.4375,1205.038 L123.8281,1142.443 L124.2188,1192.824 L124.6094,1224.885 L125,1200.458 L125.3906,1189.771 L125.7813,1092.061 L126.1719,1205.038 L126.5625,1127.176 L126.9531,1172.977 L127.3438,1208.092 L127.7344,1163.817 L128.125,1182.137 L128.5156,1140.916 L128.9063,1232.519 L129.2969,1119.542 L129.6875,1221.832 L130.0781,1232.519 L130.4688,1133.282 L130.8594,1226.412 L131.25,1182.137 L131.6406,1107.328 L132.0313,1176.031 L132.4219,1235.573 L132.8125,1185.191 L133.2031,1122.595 L133.5938,1153.13 L133.9844,1122.595 L134.375,1090.534 L134.7656,1179.084 L135.1563,1154.656 L135.5469,1176.031 L135.9375,1215.725 L136.3281,1191.298 L136.7188,1206.565 L137.1094,1203.511 L137.5,1174.504 L137.8906,1168.397 L138.2813,1150.076 L138.6719,1157.71 L139.0625,1076.794 L139.4531,1180.611 L139.8438,1131.756 L140.2344,1171.45 L140.625,1194.351 L141.0156,1157.71 L141.4063,1154.656 L141.7969,1134.809 L142.1875,1172.977 L142.5781,1162.29 L142.9688,1201.985 L143.3594,1189.771 L143.75,1140.916 L144.1406,1119.542 L144.5313,1137.863 L144.9219,1183.664 L145.3125,1256.947 L145.7031,1137.863 L146.0938,1247.786 L146.4844,1133.282 L146.875,1131.756 L147.2656,1172.977 L147.6563,1128.702 L148.0469,1172.977 L148.4375,1127.176 L148.8281,1131.756 L149.2188,1150.076 L149.6094,1166.87 L150,1136.336 L150.3906,1197.405 L150.7813,1162.29 L151.1719,1159.237 L151.5625,1191.298 L151.9531,1197.405 L152.3438,1209.618 L152.7344,1198.931 L153.125,1131.756 L153.5156,1140.916 L153.9063,1165.344 L154.2969,1179.084 L154.6875,1198.931 L155.0781,1134.809 L155.4688,1147.023 L155.8594,1163.817 L156.25,1143.969 L156.6406,1159.237 L157.0313,1185.191 L157.4219,1195.878 L157.8125,1098.168 L158.2031,1153.13 L158.5938,1162.29 L158.9844,1128.702 L159.375,1150.076 L159.7656,1198.931 L160.1563,1081.374 L160.5469,1208.092 L160.9375,1099.695 L161.3281,1171.45 L161.7188,1191.298 L162.1094,1147.023 L162.5,1165.344 L162.8906,1131.756 L163.2813,1124.122 L163.6719,1125.649 L164.0625,1191.298 L164.4531,1163.817 L164.8438,1180.611 L165.2344,1119.542 L165.625,1217.252 L166.0156,1206.565 L166.4063,1240.153 L166.7969,1243.206 L167.1875,1205.038 L167.5781,1200.458 L167.9688,1195.878 L168.3594,1214.198 L168.75,1127.176 L169.1406,1195.878 L169.5313,1237.099 L169.9219,1192.824 L170.3125,1157.71 L170.7031,1189.771 L171.0938,1168.397 L171.4844,1183.664 L171.875,1147.023 L172.2656,1205.038 L172.6563,1174.504 L173.0469,1142.443 L173.4375,1131.756 L173.8281,1191.298 L174.2188,1160.763 L174.6094,1183.664 L175,1168.397 L175.3906,1185.191 L175.7813,1150.076 L176.1719,1168.397 L176.5625,1124.122 L176.9531,1163.817 L177.3438,1159.237 L177.7344,1189.771 L178.125,1061.527 L178.5156,1119.542 L178.9063,1234.046 L179.2969,1174.504 L179.6875,1140.916 L180.0781,1182.137 L180.4688,1101.221 L180.8594,1156.183 L181.25,1223.359 L181.6406,1224.885 L182.0313,1084.427 L182.4219,1176.031 L182.8125,1171.45 L183.2031,1227.939 L183.5938,1171.45 L183.9844,1142.443 L184.375,1218.779 L184.7656,1165.344 L185.1563,1072.214 L185.5469,1143.969 L185.9375,1133.282 L186.3281,1179.084 L186.7188,1230.992 L187.1094,1206.565 L187.5,1180.611 L187.8906,1177.557 L188.2813,1235.573 L188.6719,1172.977 L189.0625,1156.183 L189.4531,1221.832 L189.8438,1186.718 L190.2344,1209.618 L190.625,1186.718 L191.0156,1102.748 L191.4063,1073.74 L191.7969,1188.244 L192.1875,1195.878 L192.5781,1143.969 L192.9688,1159.237 L193.3594,1186.718 L193.75,1169.924 L194.1406,1177.557 L194.5313,1163.817 L194.9219,1192.824 L195.3125,1208.092 L195.7031,1143.969 L196.0938,1224.885 L196.4844,1182.137 L196.875,1208.092 L197.2656,1169.924 L197.6563,1166.87 L198.0469,1179.084 L198.4375,1153.13 L198.8281,1166.87 L199.2188,1160.763 L199.6094,1166.87 L200,1160.763 L200.3906,1234.046 L200.7813,1180.611 L201.1719,1122.595 L201.5625,1157.71 L201.9531,1218.779 L202.3438,1179.084 L202.7344,1174.504 L203.125,1162.29 L203.5156,1246.26 L203.9063,1237.099 L204.2969,1160.763 L204.6875,1226.412 L205.0781,1212.672 L205.4688,1140.916 L205.8594,1197.405 L206.25,1124.122 L206.6406,1195.878 L207.0313,1154.656 L207.4219,1125.649 L207.8125,1124.122 L208.2031,1148.55 L208.5938,1140.916 L208.9844,1243.206 L209.375,1230.992 L209.7656,1192.824 L210.1563,1243.206 L210.5469,1145.496 L210.9375,1188.244 L211.3281,1182.137 L211.7188,1185.191 L212.1094,1171.45 L212.5,1188.244 L212.8906,1191.298 L213.2813,1148.55 L213.6719,1244.733 L214.0625,1191.298 L214.4531,1188.244 L214.8438,1172.977 L215.2344,1130.229 L215.625,1180.611 L216.0156,1166.87 L216.4063,1143.969 L216.7969,1177.557 L217.1875,1174.504 L217.5781,1159.237 L217.9688,1201.985 L218.3594,1172.977 L218.75,1162.29 L219.1406,1192.824 L219.5313,1185.191 L219.9219,1203.511 L220.3125,1142.443 L220.7031,1176.031 L221.0938,1195.878 L221.4844,1145.496 L221.875,1166.87 L222.2656,1218.779 L222.6563,1156.183 L223.0469,1229.466 L223.4375,1223.359 L223.8281,1185.191 L224.2188,1082.901 L224.6094,1150.076 L225,1183.664 L225.3906,1111.908 L225.7813,1209.618 L226.1719,1131.756 L226.5625,1160.763 L226.9531,1160.763 L227.3438,1182.137 L227.7344,1142.443 L228.125,1172.977 L228.5156,1131.756 L228.9063,1192.824 L229.2969,1189.771 L229.6875,1133.282 L230.0781,1172.977 L230.4688,1140.916 L230.8594,1137.863 L231.25,1154.656 L231.6406,1177.557 L232.0313,1153.13 L232.4219,1131.756 L232.8125,1089.008 L233.2031,1147.023 L233.5938,1176.031 L233.9844,1147.023 L234.375,1148.55 L234.7656,1081.374 L235.1563,1188.244 L235.5469,1171.45 L235.9375,1104.275 L236.3281,1143.969 L236.7188,1240.153 L237.1094,1241.679 L237.5,1163.817 L237.8906,1145.496 L238.2813,1165.344 L238.6719,1194.351 L239.0625,1224.885 L239.4531,1191.298 L239.8438,1177.557 L240.2344,1203.511 L240.625,1198.931 L241.0156,1134.809 L241.4063,1209.618 L241.7969,1232.519 L242.1875,1212.672 L242.5781,1192.824 L242.9688,1192.824 L243.3594,1232.519 L243.75,1165.344 L244.1406,1134.809 L244.5313,1176.031 L244.9219,1206.565 L245.3125,1252.366 L245.7031,1203.511 L246.0938,1160.763 L246.4844,1092.061 L246.875,1203.511 L247.2656,1111.908 L247.6563,1099.695 L248.0469,1122.595 L248.4375,1197.405 L248.8281,1154.656 L249.2188,1172.977 L249.6094,1221.832 L250,1104.275 L250.3906,1177.557 L250.7813,1177.557 L251.1719,1133.282 L251.5625,1069.16 L251.9531,1137.863 L252.3438,1169.924 L252.7344,1179.084 L253.125,1130.229 L253.5156,1168.397 L253.9063,1087.481 L254.2969,1172.977 L254.6875,1168.397 L255.0781,1166.87 L255.4688,1165.344 L255.8594,1108.855 L256.25,1121.069 L256.6406,1160.763 L257.0313,1136.336 L257.4219,1168.397 L257.8125,1208.092 L258.2031,1162.29 L258.5938,1212.672 L258.9844,1179.084 L259.375,1122.595 L259.7656,1180.611 L260.1563,1169.924 L260.5469,1185.191 L260.9375,1188.244 L261.3281,1093.588 L261.7188,1186.718 L262.1094,1102.748 L262.5,1150.076 L262.8906,1102.748 L263.2813,1163.817 L263.6719,1174.504 L264.0625,1169.924 L264.4531,1192.824 L264.8438,1183.664 L265.2344,1151.603 L265.625,1125.649 L266.0156,1156.183 L266.4063,1145.496 L266.7969,1127.176 L267.1875,1125.649 L267.5781,1212.672 L267.9688,1169.924 L268.3594,1180.611 L268.75,1084.427 L269.1406,1189.771 L269.5313,1119.542 L269.9219,1163.817 L270.3125,1145.496 L270.7031,1195.878 L271.0938,1082.901 L271.4844,1179.084 L271.875,1189.771 L272.2656,1142.443 L272.6563,1082.901 L273.0469,1171.45 L273.4375,1125.649 L273.8281,1156.183 L274.2188,1223.359 L274.6094,1073.74 L275,1079.847 L275.3906,1244.733 L275.7813,1148.55 L276.1719,1160.763 L276.5625,1171.45 L276.9531,1163.817 L277.3438,1136.336 L277.7344,1116.489 L278.125,1182.137 L278.5156,1189.771 L278.9063,1237.099 L279.2969,1185.191 L279.6875,1159.237 L280.0781,1157.71 L280.4688,1150.076 L280.8594,1220.305 L281.25,1200.458 L281.6406,1205.038 L282.0313,1093.588 L282.4219,1174.504 L282.8125,1168.397 L283.2031,1179.084 L283.5938,1191.298 L283.9844,1186.718 L284.375,1136.336 L284.7656,1250.84 L285.1563,1124.122 L285.5469,1177.557 L285.9375,1209.618 L286.3281,1139.389 L286.7188,1201.985 L287.1094,1221.832 L287.5,1189.771 L287.8906,1221.832 L288.2813,1192.824 L288.6719,1249.313 L289.0625,1232.519 L289.4531,1244.733 L289.8438,1165.344 L290.2344,1168.397 L290.625,1162.29 L291.0156,1188.244 L291.4063,1154.656 L291.7969,1166.87 L292.1875,1226.412 L292.5781,1154.656 L292.9688,1157.71 L293.3594,1087.481 L293.75,1243.206 L294.1406,1212.672 L294.5313,1092.061 L294.9219,1171.45 L295.3125,1148.55 L295.7031,1197.405 L296.0938,1177.557 L296.4844,1136.336 L296.875,1250.84 L297.2656,1249.313 L297.6563,1220.305 L298.0469,1140.916 L298.4375,1234.046 L298.8281,1133.282 L299.2188,1206.565 L299.6094,1229.466 L300,1203.511 L300.3906,1206.565 L300.7813,1217.252 L301.1719,1198.931 L301.5625,1212.672 L301.9531,1246.26 L302.3438,1218.779 L302.7344,1163.817 L303.125,1171.45 L303.5156,1183.664 L303.9063,1177.557 L304.2969,1169.924 L304.6875,1153.13 L305.0781,1174.504 L305.4688,1128.702 L305.8594,1177.557 L306.25,1172.977 L306.6407,1150.076 L307.0313,1182.137 L307.4219,1137.863 L307.8125,1211.145 L308.2031,1188.244 L308.5938,1124.122 L308.9844,1151.603 L309.375,1150.076 L309.7656,1183.664 L310.1563,1174.504 L310.5469,1186.718 L310.9375,1153.13 L311.3281,1119.542 L311.7188,1168.397 L312.1094,1172.977 L312.5,1134.809 L312.8906,1165.344 L313.2813,1139.389 L313.6719,1118.015 L314.0625,1246.26 L314.4532,1113.435 L314.8438,1162.29 L315.2344,1159.237 L315.625,1174.504 L316.0156,1205.038 L316.4063,1217.252 L316.7969,1180.611 L317.1875,1241.679 L317.5781,1211.145 L317.9688,1217.252 L318.3594,1157.71 L318.75,1238.626 L319.1406,1186.718 L319.5313,1157.71 L319.9219,1171.45 L320.3125,1145.496 L320.7031,1215.725 L321.0938,1186.718 L321.4844,1142.443 L321.875,1156.183 L322.2657,1198.931 L322.6563,1134.809 L323.0469,1198.931 L323.4375,1147.023 L323.8281,1189.771 L324.2188,1121.069 L324.6094,1195.878 L325,1198.931 L325.3906,1134.809 L325.7813,1198.931 L326.1719,1166.87 L326.5625,1197.405 L326.9531,1232.519 L327.3438,1201.985 L327.7344,1203.511 L328.125,1182.137 L328.5156,1139.389 L328.9063,1221.832 L329.2969,1182.137 L329.6875,1232.519 L330.0782,1212.672 L330.4688,1180.611 L330.8594,1237.099 L331.25,1101.221 L331.6406,1179.084 L332.0313,1230.992 L332.4219,1197.405 L332.8125,1206.565 L333.2031,1160.763 L333.5938,1191.298 L333.9844,1218.779 L334.375,1234.046 L334.7656,1198.931 L335.1563,1151.603 L335.5469,1206.565 L335.9375,1188.244 L336.3281,1214.198 L336.7188,1211.145 L337.1094,1211.145 L337.5,1186.718 L337.8907,1165.344 L338.2813,1235.573 L338.6719,1153.13 L339.0625,1201.985 L339.4531,1238.626 L339.8438,1137.863 L340.2344,1105.802 L340.625,1163.817 L341.0156,1234.046 L341.4063,1124.122 L341.7969,1168.397 L342.1875,1127.176 L342.5781,1203.511 L342.9688,1147.023 L343.3594,1134.809 L343.75,1160.763 L344.1406,1197.405 L344.5313,1153.13 L344.9219,1127.176 L345.3125,1131.756 L345.7032,1153.13 L346.0938,1224.885 L346.4844,1169.924 L346.875,1151.603 L347.2656,1157.71 L347.6563,1163.817 L348.0469,1160.763 L348.4375,1192.824 L348.8281,1127.176 L349.2188,1150.076 L349.6094,1218.779 L350,1111.908 L350.3906,1143.969 L350.7813,1179.084 L351.1719,1201.985 L351.5625,1179.084 L351.9531,1234.046 L352.3438,1180.611 L352.7344,1142.443 L353.125,1195.878 L353.5157,1214.198 L353.9063,1192.824 L354.2969,1227.939 L354.6875,1191.298 L355.0781,1232.519 L355.4688,1165.344 L355.8594,1165.344 L356.25,1165.344 L356.6406,1131.756 L357.0313,1189.771 L357.4219,1256.947 L357.8125,1102.748 L358.2031,1142.443 L358.5938,1133.282 L358.9844,1131.756 L359.375,1218.779 L359.7656,1244.733 L360.1563,1218.779 L360.5469,1220.305 L360.9375,1252.366 L361.3282,1217.252 L361.7188,1186.718 L362.1094,1166.87 L362.5,1246.26 L362.8906,1232.519 L363.2813,1133.282 L363.6719,1253.893 L364.0625,1157.71 L364.4531,1192.824 L364.8438,1179.084 L365.2344,1201.985 L365.625,1224.885 L366.0156,1186.718 L366.4063,1198.931 L366.7969,1198.931 L367.1875,1214.198 L367.5781,1198.931 L367.9688,1154.656 L368.3594,1221.832 L368.75,1209.618 L369.1407,1208.092 L369.5313,1160.763 L369.9219,1198.931 L370.3125,1186.718 L370.7031,1179.084 L371.0938,1118.015 L371.4844,1192.824 L371.875,1162.29 L372.2656,1185.191 L372.6563,1174.504 L373.0469,1172.977 L373.4375,1235.573 L373.8281,1150.076 L374.2188,1179.084 L374.6094,1159.237 L375,1185.191 L375.3906,1189.771 L375.7813,1162.29 L376.1719,1203.511 L376.5625,1153.13 L376.9532,1211.145 L377.3438,1143.969 L377.7344,1151.603 L378.125,1209.618 L378.5156,1191.298 L378.9063,1137.863 L379.2969,1179.084 L379.6875,1208.092 L380.0781,1185.191 L380.4688,1156.183 L380.8594,1159.237 L381.25,1176.031 L381.6406,1127.176 L382.0313,1163.817 L382.4219,1125.649 L382.8125,1194.351 L383.2031,1182.137 L383.5938,1215.725 L383.9844,1179.084 L384.375,1179.084 L384.7657,1147.023 L385.1563,1203.511 L385.5469,1153.13 L385.9375,1151.603 L386.3281,1143.969 L386.7188,1163.817 L387.1094,1197.405 L387.5,1150.076 L387.8906,1176.031 L388.2813,1230.992 L388.6719,1163.817 L389.0625,1192.824 L389.4531,1177.557 L389.8438,1188.244 L390.2344,1143.969 L390.625,1200.458 L391.0156,1140.916 L391.4063,1179.084 L391.7969,1160.763 L392.1875,1147.023 L392.5782,1191.298 L392.9688,1217.252 L393.3594,1221.832 L393.75,1179.084 L394.1406,1156.183 L394.5313,1240.153 L394.9219,1238.626 L395.3125,1192.824 L395.7031,1089.008 L396.0938,1180.611 L396.4844,1176.031 L396.875,1137.863 L397.2656,1110.382 L397.6563,1087.481 L398.0469,1209.618 L398.4375,1139.389 L398.8281,1153.13 L399.2188,1217.252 L399.6094,1224.885 L400,1217.252 L400.3907,1205.038 L400.7813,1142.443 L401.1719,1206.565 L401.5625,1153.13 L401.9531,1235.573 L402.3438,1208.092 L402.7344,1102.748 L403.125,1188.244 L403.5156,1154.656 L403.9063,1194.351 L404.2969,1166.87 L404.6875,1185.191 L405.0781,1203.511 L405.4688,1179.084 L405.8594,1203.511 L406.25,1157.71 L406.6406,1198.931 L407.0313,1197.405 L407.4219,1137.863 L407.8125,1160.763 L408.2032,1169.924 L408.5938,1232.519 L408.9844,1195.878 L409.375,1105.802 L409.7656,1140.916 L410.1563,1185.191 L410.5469,1185.191 L410.9375,1180.611 L411.3281,1140.916 L411.7188,1147.023 L412.1094,1243.206 L412.5,1147.023 L412.8906,1162.29 L413.2813,1176.031 L413.6719,1240.153 L414.0625,1174.504 L414.4531,1093.588 L414.8438,1171.45 L415.2344,1197.405 L415.625,1162.29 L416.0157,1162.29 L416.4063,1121.069 L416.7969,1159.237 L417.1875,1145.496 L417.5781,1148.55 L417.9688,1195.878 L418.3594,1143.969 L418.75,1215.725 L419.1406,1160.763 L419.5313,1195.878 L419.9219,1208.092 L420.3125,1198.931 L420.7031,1194.351 L421.0938,1101.221 L421.4844,1176.031 L421.875,1168.397 L422.2656,1111.908 L422.6563,1136.336 L423.0469,1214.198 L423.4375,1201.985 L423.8282,1136.336 L424.2188,1192.824 L424.6094,1224.885 L425,1165.344 L425.3906,1156.183 L425.7813,1160.763 L426.1719,1150.076 L426.5625,1145.496 L426.9531,1177.557 L427.3438,1140.916 L427.7344,1145.496 L428.125,1160.763 L428.5156,1119.542 L428.9063,1171.45 L429.2969,1179.084 L429.6875,1111.908 L430.0781,1102.748 L430.4688,1166.87 L430.8594,1113.435 L431.25,1180.611 L431.6407,1160.763 L432.0313,1143.969 L432.4219,1067.634 L432.8125,1197.405 L433.2031,1092.061 L433.5938,1249.313 L433.9844,1139.389 L434.375,1145.496 L434.7656,1150.076 L435.1563,1176.031 L435.5469,1250.84 L435.9375,1168.397 L436.3281,1201.985 L436.7188,1215.725 L437.1094,1226.412 L437.5,1139.389 L437.8906,1172.977 L438.2813,1162.29 L438.6719,1139.389 L439.0625,1172.977 L439.4532,1131.756 L439.8438,1128.702 L440.2344,1168.397 L440.625,1208.092 L441.0156,1133.282 L441.4063,1185.191 L441.7969,1084.427 L442.1875,1139.389 L442.5781,1160.763 L442.9688,1217.252 L443.3594,1154.656 L443.75,1206.565 L444.1406,1154.656 L444.5313,1125.649 L444.9219,1156.183 L445.3125,1151.603 L445.7031,1188.244 " stroke="blue" fill="none" />
<text x="50" y="1310" font-family="Arial" font-size="12" fill="black">Policy Loss</text>
<text x="50" y="1325" font-family="Arial" font-size="10" fill="black">0.005826297</text>
<text x="50" y="1540" font-family="Arial" font-size="10" fill="black">0</text>
<path d="M50,1501.316 L56.25,1524.536 L62.5,1518.214 L68.75,1527.751 L75,1490.248 L81.25,1530 L87.5,1530 L93.75,1529.139 L100,1419.651 L106.25,1527.859 L112.5,1522.927 L118.75,1517.064 L125,1523.254 L131.25,1517.715 L137.5,1517.561 L143.75,1524.665 L150,1446.118 L156.25,1483.19 L162.5,1522.935 L168.75,1515.932 L175,1498.009 L181.25,1483.416 L187.5,1493.827 L193.75,1485.167 L200,1330 L206.25,1491.529 L212.5,1506.319 L218.75,1514.693 L225,1487.098 L231.25,1524.566 L237.5,1512.789 L243.75,1501.783 L250,1403.205 L256.25,1508.29 L262.5,1523.664 L268.75,1522.165 L275,1512.184 L281.25,1515.696 L287.5,1504.011 L293.75,1529.757 L300,1348.771 L306.25,1486.285 L312.5,1498.237 L318.75,1489.548 L325,1500.201 L331.25,1495.865 L337.5,1498.054 L343.75,1493.156 L350,1390.632 L356.25,1502.964 L362.5,1496.352 L368.75,1500.814 L375,1503.392 L381.25,1519.419 L387.5,1494.162 L393.75,1505.655 L400,1453.859 L406.25,1527.114 L412.5,1504.712 L418.75,1508.625 L425,1499.104 L431.25,1502.433 L437.5,1528.562 L443.75,1497.936 L450,1458.004 L456.25,1516.092 L462.5,1519.685 L468.75,1520.494 L475,1528.961 L481.25,1520.471 L487.5,1514.974 L493.75,1528.124 L500,1436.53 L506.25,1500.46 L512.5,1517.423 L518.75,1500.885 L525,1523.549 L531.25,1511.418 L537.5,1498.786 L543.75,1499.112 " stroke="blue" fill="none" />
<text x="50" y="1580" font-family="Arial" font-size="12" fill="black">Value Loss</text>
<text x="50" y="1595" font-family="Arial" font-size="10" fill="black">0.07535052</text>
<text x="50" y="1810" font-family="Arial" font-size="10" fill="black">0.02996349</text>
<path d="M50,1683.109 L56.25,1695.87 L62.5,1701.25 L68.75,1704.12 L75,1705.682 L81.25,1706.938 L87.5,1707.375 L93.75,1707.983 L100,1743.35 L106.25,1751.363 L112.5,1753.851 L118.75,1754.632 L125,1754.976 L131.25,1755.567 L137.5,1755.598 L143.75,1756.268 L150,1789.468 L156.25,1795.092 L162.5,1797.157 L168.75,1798.095 L175,1798.967 L181.25,1798.974 L187.5,1799.314 L193.75,1800 L200,1717.571 L206.25,1724.001 L212.5,1725.546 L218.75,1726.467 L225,1727.107 L231.25,1727.789 L237.5,1727.945 L243.75,1727.85 L250,1757.789 L256.25,1756.819 L262.5,1762.413 L268.75,1763.709 L275,1764.266 L281.25,1764.564 L287.5,1765.015 L293.75,1765.19 L300,1738.103 L306.25,1741.511 L312.5,1743.08 L318.75,1743.998 L325,1744.449 L331.25,1744.703 L337.5,1745.034 L343.75,1745.327 L350,1629.083 L356.25,1634.188 L362.5,1636.722 L368.75,1638.446 L375,1638.668 L381.25,1639.955 L387.5,1640.515 L393.75,1640.808 L400,1600 L406.25,1604.33 L412.5,1609.28 L418.75,1613.01 L425,1615.349 L431.25,1616.783 L437.5,1618.361 L443.75,1619.003 L450,1682.152 L456.25,1687.771 L462.5,1691.217 L468.75,1693.123 L475,1694.881 L481.25,1695.911 L487.5,1696.501 L493.75,1696.491 L500,1728.64 L506.25,1734.023 L512.5,1737.094 L518.75,1739.411 L525,1740.852 L531.25,1742.26 L537.5,1742.066 L543.75,1743.281 " stroke="blue" fill="none" />
<text x="50" y="1850" font-family="Arial" font-size="12" fill="black">Learning Rate</text>
<text x="50" y="1865" font-family="Arial" font-size="10" fill="black">0.0003</text>
<text x="50" y="2080" font-family="Arial" font-size="10" fill="black">0.0003</text>
<path d="M50,2070 L56.25,2070 L62.5,2070 L68.75,2070 L75,2070 L81.25,2070 L87.5,2070 L93.75,2070 L100,2070 L106.25,2070 L112.5,2070 L118.75,2070 L125,2070 L131.25,2070 L137.5,2070 L143.75,2070 L150,2070 L156.25,2070 L162.5,2070 L168.75,2070 L175,2070 L181.25,2070 L187.5,2070 L193.75,2070 L200,2070 L206.25,2070 L212.5,2070 L218.75,2070 L225,2070 L231.25,2070 L237.5,2070 L243.75,2070 L250,2070 L256.25,2070 L262.5,2070 L268.75,2070 L275,2070 L281.25,2070 L287.5,2070 L293.75,2070 L300,2070 L306.25,2070 L312.5,2070 L318.75,2070 L325,2070 L331.25,2070 L337.5,2070 L343.75,2070 L350,2070 L356.25,2070 L362.5,2070 L368.75,2070 L375,2070 L381.25,2070 L387.5,2070 L393.75,2070 L400,2070 L406.25,2070 L412.5,2070 L418.75,2070 L425,2070 L431.25,2070 L437.5,2070 L443.75,2070 L450,2070 L456.25,2070 L462.5,2070 L468.75,2070 L475,2070 L481.25,2070 L487.5,2070 L493.75,2070 L500,2070 L506.25,2070 L512.5,2070 L518.75,2070 L525,2070 L531.25,2070 L537.5,2070 L543.75,2070 " stroke="blue" fill="none" />
<text x="50" y="2120" font-family="Arial" font-size="12" fill="black">Epsilon</text>
<text x="50" y="2135" font-family="Arial" font-size="10" fill="black">0.2</text>
<text x="50" y="2350" font-family="Arial" font-size="10" fill="black">0.2</text>
<path d="M50,2340 L56.25,2340 L62.5,2340 L68.75,2340 L75,2340 L81.25,2340 L87.5,2340 L93.75,2340 L100,2340 L106.25,2340 L112.5,2340 L118.75,2340 L125,2340 L131.25,2340 L137.5,2340 L143.75,2340 L150,2340 L156.25,2340 L162.5,2340 L168.75,2340 L175,2340 L181.25,2340 L187.5,2340 L193.75,2340 L200,2340 L206.25,2340 L212.5,2340 L218.75,2340 L225,2340 L231.25,2340 L237.5,2340 L243.75,2340 L250,2340 L256.25,2340 L262.5,2340 L268.75,2340 L275,2340 L281.25,2340 L287.5,2340 L293.75,2340 L300,2340 L306.25,2340 L312.5,2340 L318.75,2340 L325,2340 L331.25,2340 L337.5,2340 L343.75,2340 L350,2340 L356.25,2340 L362.5,2340 L368.75,2340 L375,2340 L381.25,2340 L387.5,2340 L393.75,2340 L400,2340 L406.25,2340 L412.5,2340 L418.75,2340 L425,2340 L431.25,2340 L437.5,2340 L443.75,2340 L450,2340 L456.25,2340 L462.5,2340 L468.75,2340 L475,2340 L481.25,2340 L487.5,2340 L493.75,2340 L500,2340 L506.25,2340 L512.5,2340 L518.75,2340 L525,2340 L531.25,2340 L537.5,2340 L543.75,2340 " stroke="blue" fill="none" />
</svg>
