<svg width="2000" height="2500" xmlns="http://www.w3.org/2000/svg">
<text x="10" y="20" font-family="Arial" font-size="26" fill="black"> [<tspan font-weight="bold" fill="blue">RobotScript</tspan>] Training Session</text>
<text x="10" y="50" font-family="Arial" font-size="16" fill="black">[Statistics]</text>
<text x="50" y="70" font-family="Arial" font-size="12" fill="black">Started at: 9:44:16 PM, Sunday, March 31, 2024</text>
<text x="50" y="90" font-family="Arial" font-size="12" fill="black">Finished at: 9:46:02 PM, Sunday, March 31, 2024</text>
<text x="50" y="110" font-family="Arial" font-size="12" fill="black">Training Session Time: 0 hrs : 1 min : 28 sec</text>
<text x="50" y="130" font-family="Arial" font-size="12" fill="black">Inference Time: 0 hrs : 48 min : 2 sec        [Device: CPU]</text>
<text x="50" y="150" font-family="Arial" font-size="12" fill="black">Update Time: 0 hrs : 0 min : 57 sec        [Per iteration: 0 hrs : 0 min : 56.936 sec]        [Device: GPU]</text>
<text x="50" y="170" font-family="Arial" font-size="12" fill="black">Episode Count: 489</text>
<text x="50" y="190" font-family="Arial" font-size="12" fill="black">Inference Steps: 30000</text>
<text x="50" y="210" font-family="Arial" font-size="12" fill="black">Iterations: 1</text>
<text x="50" y="230" font-family="Arial" font-size="12" fill="black">Parallel Agents: 90</text>
<text x="50" y="250" font-family="Arial" font-size="12" fill="black">Timescale: 1</text>
<text x="50" y="270" font-family="Arial" font-size="12" fill="black">Trainer: PPO</text>
<text x="10" y="320" font-family="Arial" font-size="16" fill="black">[Hyperparameters]</text>
<text x="50" y="340" font-family="Arial" font-size="12" fill="black">Buffer Size: 30000        [Batch Size: 1000       (x30)]</text>
<text x="50" y="360" font-family="Arial" font-size="12" fill="black">Num Epoch: 8</text>
<text x="50" y="380" font-family="Arial" font-size="12" fill="black">Time Horizon: 256</text>
<text x="50" y="400" font-family="Arial" font-size="12" fill="black">Gradient Cliping by Norm: 0.5</text>
<text x="50" y="420" font-family="Arial" font-size="12" fill="black">Learning Rate Schedule: True    </text>
<text x="10" y="470" font-family="Arial" font-size="16" fill="black">[Behaviour]</text>
<text x="50" y="490" font-family="Arial" font-size="12" fill="black">Space Size: 86</text>
<text x="50" y="510" font-family="Arial" font-size="12" fill="black">Continuous Actions: 26 [Standard Deviation: Fixed]     [Value: 1]</text>
<text x="50" y="530" font-family="Arial" font-size="12" fill="black">Discrete Actions: 0</text>
<text x="50" y="550" font-family="Arial" font-size="12" fill="black">TargetFPS: 60 (physics update rate)</text>
<text x="50" y="570" font-family="Arial" font-size="12" fill="black">Observations Normalization: True</text>
<text x="10" y="620" font-family="Arial" font-size="16" fill="black">[Decision Requester]</text>
<text x="50" y="640" font-family="Arial" font-size="12" fill="black">Max Step: 10000</text>
<text x="50" y="660" font-family="Arial" font-size="12" fill="black">Decision Period: 5      [Actions Between Decisions: True]</text>
<text x="10" y="710" font-family="Arial" font-size="16" fill="black">[Graphs]</text>
<text x="50" y="730" font-family="Arial" font-size="12" fill="black">Episode Reward (489)</text>
<text x="50" y="745" font-family="Arial" font-size="10" fill="black">17.71</text>
<text x="50" y="960" font-family="Arial" font-size="10" fill="black">1.347501</text>
<path d="M50,892.3988 L50.78125,886.1345 L51.5625,873.7587 L52.34375,879.7174 L53.125,873.4531 L53.90625,885.6761 L54.6875,867.1888 L55.46875,873.3003 L56.25,867.0359 L57.03125,867.0359 L57.8125,860.7717 L58.59375,866.8832 L59.375,866.7304 L60.15625,866.7304 L60.9375,860.6188 L61.71875,872.8419 L62.5,897.1353 L63.28125,860.3133 L64.0625,854.049 L64.84375,860.0077 L65.625,890.5654 L66.40625,865.9665 L67.1875,872.078 L67.96875,841.5203 L68.75,859.8549 L69.53125,853.7434 L70.3125,853.7434 L71.09375,865.8137 L71.875,847.4791 L72.65625,853.4378 L73.4375,847.3263 L74.21875,853.285 L75,871.6196 L75.78125,840.9092 L76.5625,865.3553 L77.34375,865.3553 L78.125,846.8679 L78.90625,846.8679 L79.6875,846.8679 L80.46875,840.7564 L81.25,865.2025 L82.03125,865.0497 L82.8125,852.8267 L83.59375,828.3806 L84.375,846.7151 L85.15625,858.9382 L85.9375,871.1613 L86.71875,846.7151 L87.5,852.8267 L88.28125,840.4508 L89.0625,840.4508 L89.84375,840.4508 L90.625,828.075 L91.40625,840.298 L92.1875,840.298 L92.96875,852.3683 L93.75,834.0337 L94.53125,852.3683 L95.3125,852.2155 L96.09375,833.8809 L96.875,852.2155 L97.65625,839.9925 L98.4375,876.5089 L99.21875,821.5051 L100,833.7281 L100.7813,827.6166 L101.5625,833.5754 L102.3438,827.4638 L103.125,845.6456 L103.9063,821.1995 L104.6875,815.088 L105.4688,839.5341 L106.25,821.1995 L107.0313,814.9352 L107.8125,808.8237 L108.5938,827.0055 L109.375,808.5181 L110.1563,826.8527 L110.9375,814.4768 L111.7188,832.6586 L112.5,826.5471 L113.2813,802.101 L114.0625,937.7769 L114.8438,807.4485 L115.625,788.9612 L116.4063,794.9199 L117.1875,806.9902 L117.9688,794.6144 L118.75,794.0032 L119.5313,769.4042 L120.3125,818.1438 L121.0938,950 L121.875,898.3575 L122.6563,860.7717 L123.4375,872.078 L124.2188,854.049 L125,853.285 L125.7813,860.6188 L126.5625,879.4118 L127.3438,892.0933 L128.125,853.5906 L128.9063,872.3835 L129.6875,878.9535 L130.4688,847.6318 L131.25,859.091 L132.0313,854.5073 L132.8125,873.6058 L133.5938,865.8137 L134.375,860.6188 L135.1563,827.9222 L135.9375,860.6188 L136.7188,853.1323 L137.5,865.9665 L138.2813,844.8817 L139.0625,859.5494 L139.8438,866.7304 L140.625,808.5181 L141.4063,859.3965 L142.1875,866.7304 L142.9688,840.1453 L143.75,826.5471 L144.5313,866.272 L145.3125,865.0497 L146.0938,834.0337 L146.875,846.5624 L147.6563,852.0627 L148.4375,847.3263 L149.2188,839.6869 L150,808.3653 L150.7813,820.5884 L151.5625,847.1735 L152.3438,847.1735 L153.125,845.7984 L153.9063,827.9222 L154.6875,821.1995 L155.4688,910.2751 L156.25,833.7281 L157.0313,847.1735 L157.8125,891.7877 L158.5938,847.4791 L159.375,853.7434 L160.1563,827.6166 L160.9375,820.5884 L161.7188,834.1865 L162.5,858.0215 L163.2813,851.91 L164.0625,871.3141 L164.8438,839.9925 L165.625,813.8657 L166.4063,827.4638 L167.1875,788.35 L167.9688,834.4921 L168.75,827.1583 L169.5313,828.3806 L170.3125,834.1865 L171.0938,827.4638 L171.875,815.088 L172.6563,840.1453 L173.4375,821.1995 L174.2188,814.324 L175,827.6166 L175.7813,820.5884 L176.5625,814.9352 L177.3438,775.6686 L178.125,814.9352 L178.9063,827.4638 L179.6875,860.4661 L180.4688,858.0215 L181.25,860.1605 L182.0313,815.088 L182.8125,827.7694 L183.5938,857.4103 L184.375,821.8107 L185.1563,836.9368 L185.9375,782.5441 L186.7188,788.0444 L187.5,879.7174 L188.2813,799.962 L189.0625,846.2568 L189.8438,872.8419 L190.625,802.101 L191.4063,847.4791 L192.1875,812.1851 L192.9688,826.5471 L193.75,781.7802 L194.5313,860.6188 L195.3125,854.3546 L196.0938,833.5754 L196.875,859.2438 L197.6563,854.049 L198.4375,891.0237 L199.2188,866.5776 L200,885.9818 L200.7813,853.285 L201.5625,879.8702 L202.3438,865.5081 L203.125,890.5654 L203.9063,910.7335 L204.6875,846.5624 L205.4688,845.4929 L206.25,872.6891 L207.0313,865.8137 L207.8125,892.8572 L208.5938,847.3263 L209.375,865.0497 L210.1563,865.8137 L210.9375,859.8549 L211.7188,782.8497 L212.5,892.246 L213.2813,877.7312 L214.0625,840.6036 L214.8438,839.3813 L215.625,821.3523 L216.4063,840.1453 L217.1875,834.9504 L217.9688,845.7984 L218.75,840.1453 L219.5313,853.4378 L220.3125,870.8557 L221.0938,852.5211 L221.875,834.3393 L222.6563,840.9092 L223.4375,826.8527 L224.2188,834.7977 L225,840.298 L225.7813,858.1743 L226.5625,832.5059 L227.3438,833.8809 L228.125,808.8237 L228.9063,853.285 L229.6875,821.6578 L230.4688,866.4248 L231.25,911.8029 L232.0313,789.2668 L232.8125,820.8939 L233.5938,827.6166 L234.375,814.7824 L235.1563,814.6296 L235.9375,858.6326 L236.7188,802.101 L237.5,858.6326 L238.2813,768.9458 L239.0625,839.8397 L239.8438,832.8114 L240.625,814.7824 L241.4063,795.8367 L242.1875,840.298 L242.9688,828.2278 L243.75,872.078 L244.5313,879.7174 L245.3125,820.2828 L246.0938,795.6838 L246.875,807.9069 L247.6563,813.4073 L248.4375,807.4485 L249.2188,838.3118 L250,858.7854 L250.7813,828.2278 L251.5625,846.7151 L252.3438,847.4791 L253.125,782.3913 L253.9063,824.8665 L254.6875,807.2958 L255.4688,821.1995 L256.25,879.1063 L257.0313,846.4095 L257.8125,820.2828 L258.5938,890.5654 L259.375,860.0077 L260.1563,801.6426 L260.9375,819.3661 L261.7188,844.4233 L262.5,750 L263.2813,871.4669 L264.0625,866.8832 L264.8438,859.2438 L265.625,834.0337 L266.4063,828.2278 L267.1875,821.3523 L267.9688,853.1323 L268.75,853.5906 L269.5313,840.6036 L270.3125,833.2698 L271.0938,832.5059 L271.875,891.1765 L272.6563,823.3386 L273.4375,859.8549 L274.2188,898.8159 L275,853.285 L275.7813,867.3416 L276.5625,808.2125 L277.3438,865.0497 L278.125,845.9512 L278.9063,847.7847 L279.6875,854.9658 L280.4688,847.0207 L281.25,878.9535 L282.0313,813.8657 L282.8125,840.4508 L283.5938,814.4768 L284.375,853.4378 L285.1563,866.8832 L285.9375,859.5494 L286.7188,860.4661 L287.5,827.9222 L288.2813,847.4791 L289.0625,878.0367 L289.8438,840.4508 L290.625,834.3393 L291.4063,845.7984 L292.1875,872.078 L292.9688,795.2255 L293.75,879.8702 L294.5313,840.298 L295.3125,858.7854 L296.0938,834.1865 L296.875,847.3263 L297.6563,814.6296 L298.4375,834.6448 L299.2188,834.4921 L300,821.6578 L300.7813,827.4638 L301.5625,865.9665 L302.3438,852.8267 L303.125,858.1743 L303.9063,839.6869 L304.6875,872.9947 L305.4688,834.1865 L306.25,851.91 L307.0313,879.5646 L307.8125,852.9795 L308.5938,839.8397 L309.375,828.3806 L310.1563,841.3676 L310.9375,846.5624 L311.7188,834.1865 L312.5,841.2148 L313.2813,847.1735 L314.0625,828.075 L314.8438,861.0772 L315.625,831.2836 L316.4063,846.8679 L317.1875,852.8267 L317.9688,852.8267 L318.75,839.6869 L319.5313,854.049 L320.3125,891.0237 L321.0938,820.8939 L321.875,838.6174 L322.6563,788.6556 L323.4375,847.4791 L324.2188,814.9352 L325,833.7281 L325.7813,860.4661 L326.5625,867.1888 L327.3438,853.5906 L328.125,808.0597 L328.9063,873.4531 L329.6875,841.2148 L330.4688,866.4248 L331.25,859.8549 L332.0313,814.4768 L332.8125,815.088 L333.5938,839.2285 L334.375,847.1735 L335.1563,839.3813 L335.9375,860.1605 L336.7188,847.4791 L337.5,821.0467 L338.2813,859.3965 L339.0625,860.6188 L339.8438,860.0077 L340.625,846.5624 L341.4063,866.272 L342.1875,853.5906 L342.9688,886.2873 L343.75,827.6166 L344.5313,852.8267 L345.3125,832.5059 L346.0938,864.5914 L346.875,839.0757 L347.6563,827.6166 L348.4375,847.1735 L349.2188,876.8145 L350,872.8419 L350.7813,853.7434 L351.5625,821.3523 L352.3438,864.5914 L353.125,846.7151 L353.9063,833.5754 L354.6875,808.3653 L355.4688,795.3783 L356.25,762.5287 L357.0313,866.8832 L357.8125,847.1735 L358.5938,827.7694 L359.375,853.7434 L360.1563,873.3003 L360.9375,873.6058 L361.7188,858.7854 L362.5,846.7151 L363.2813,866.8832 L364.0625,852.8267 L364.8438,820.8939 L365.625,833.2698 L366.4063,884.7594 L367.1875,859.8549 L367.9688,866.1193 L368.75,840.6036 L369.5313,834.6448 L370.3125,877.7312 L371.0938,865.9665 L371.875,846.4095 L372.6563,813.7129 L373.4375,820.2828 L374.2188,840.6036 L375,847.4791 L375.7813,826.3943 L376.5625,802.101 L377.3438,891.1765 L378.125,897.1353 L378.9063,860.0077 L379.6875,873.3003 L380.4688,858.6326 L381.25,859.5494 L382.0313,865.6609 L382.8125,795.9894 L383.5938,839.8397 L384.375,860.3133 L385.1563,879.7174 L385.9375,853.8962 L386.7188,834.3393 L387.5,834.4921 L388.2813,877.884 L389.0625,853.285 L389.8438,820.4355 L390.625,840.7564 L391.4063,860.6188 L392.1875,851.91 L392.9688,833.2698 L393.75,814.9352 L394.5313,840.9092 L395.3125,834.0337 L396.0938,814.1713 L396.875,834.0337 L397.6563,838.4646 L398.4375,873.1475 L399.2188,840.6036 L400,865.5081 L400.7813,781.6273 L401.5625,794.9199 L402.3438,789.114 L403.125,834.1865 L403.9063,815.088 L404.6875,821.0467 L405.4688,840.298 L406.25,860.1605 L407.0313,840.6036 L407.8125,884.9122 L408.5938,853.8962 L409.375,865.5081 L410.1563,821.1995 L410.9375,814.9352 L411.7188,860.3133 L412.5,802.2538 L413.2813,821.1995 L414.0625,860.4661 L414.8438,827.7694 L415.625,852.2155 L416.4063,890.1071 L417.1875,873.7587 L417.9688,852.6739 L418.75,787.7389 L419.5313,860.1605 L420.3125,859.8549 L421.0938,866.5776 L421.875,827.9222 L422.6563,782.5441 L423.4375,821.0467 L424.2188,853.8962 L425,832.8114 L425.7813,853.7434 L426.5625,860.7717 L427.3438,854.049 L428.125,840.4508 L428.9063,834.3393 L429.6875,820.8939 L430.4688,808.6708 L431.25,876.0505 " stroke="blue" fill="none" />
<text x="50" y="1000" font-family="Arial" font-size="12" fill="black">Episode Length (489)</text>
<text x="50" y="1015" font-family="Arial" font-size="10" fill="black">97</text>
<text x="50" y="1230" font-family="Arial" font-size="10" fill="black">28</text>
<path d="M50,1173.623 L50.78125,1170.725 L51.5625,1167.826 L52.34375,1164.927 L53.125,1162.029 L53.90625,1162.029 L54.6875,1159.13 L55.46875,1159.13 L56.25,1156.232 L57.03125,1156.232 L57.8125,1153.333 L58.59375,1153.333 L59.375,1150.435 L60.15625,1150.435 L60.9375,1150.435 L61.71875,1150.435 L62.5,1147.536 L63.28125,1144.638 L64.0625,1141.739 L64.84375,1138.841 L65.625,1138.841 L66.40625,1135.942 L67.1875,1135.942 L67.96875,1135.942 L68.75,1135.942 L69.53125,1135.942 L70.3125,1135.942 L71.09375,1133.043 L71.875,1133.043 L72.65625,1130.145 L73.4375,1130.145 L74.21875,1127.246 L75,1127.246 L75.78125,1124.348 L76.5625,1124.348 L77.34375,1124.348 L78.125,1121.449 L78.90625,1121.449 L79.6875,1121.449 L80.46875,1121.449 L81.25,1121.449 L82.03125,1118.551 L82.8125,1118.551 L83.59375,1118.551 L84.375,1118.551 L85.15625,1118.551 L85.9375,1118.551 L86.71875,1118.551 L87.5,1118.551 L88.28125,1115.652 L89.0625,1115.652 L89.84375,1115.652 L90.625,1112.754 L91.40625,1112.754 L92.1875,1112.754 L92.96875,1109.855 L93.75,1109.855 L94.53125,1109.855 L95.3125,1106.957 L96.09375,1106.957 L96.875,1106.957 L97.65625,1106.957 L98.4375,1104.058 L99.21875,1104.058 L100,1104.058 L100.7813,1104.058 L101.5625,1101.159 L102.3438,1101.159 L103.125,1098.261 L103.9063,1098.261 L104.6875,1098.261 L105.4688,1098.261 L106.25,1098.261 L107.0313,1095.362 L107.8125,1095.362 L108.5938,1092.464 L109.375,1089.565 L110.1563,1089.565 L110.9375,1086.667 L111.7188,1083.768 L112.5,1083.768 L113.2813,1083.768 L114.0625,1220 L114.8438,1069.275 L115.625,1066.377 L116.4063,1063.478 L117.1875,1060.58 L117.9688,1057.681 L118.75,1046.087 L119.5313,1043.188 L120.3125,1040.29 L121.0938,1220 L121.875,1167.826 L122.6563,1150.435 L123.4375,1133.043 L124.2188,1138.841 L125,1124.348 L125.7813,1147.536 L126.5625,1156.232 L127.3438,1164.927 L128.125,1130.145 L128.9063,1138.841 L129.6875,1147.536 L130.4688,1133.043 L131.25,1118.551 L132.0313,1147.536 L132.8125,1162.029 L133.5938,1130.145 L134.375,1147.536 L135.1563,1106.957 L135.9375,1147.536 L136.7188,1121.449 L137.5,1133.043 L138.2813,1080.87 L139.0625,1127.246 L139.8438,1147.536 L140.625,1086.667 L141.4063,1124.348 L142.1875,1147.536 L142.9688,1106.957 L143.75,1080.87 L144.5313,1138.841 L145.3125,1115.652 L146.0938,1106.957 L146.875,1112.754 L147.6563,1101.159 L148.4375,1127.246 L149.2188,1098.261 L150,1083.768 L150.7813,1083.768 L151.5625,1124.348 L152.3438,1124.348 L153.125,1098.261 L153.9063,1106.957 L154.6875,1095.362 L155.4688,1162.029 L156.25,1101.159 L157.0313,1124.348 L157.8125,1159.13 L158.5938,1130.145 L159.375,1133.043 L160.1563,1101.159 L160.9375,1083.768 L161.7188,1109.855 L162.5,1098.261 L163.2813,1098.261 L164.0625,1118.551 L164.8438,1104.058 L165.625,1072.174 L166.4063,1098.261 L167.1875,1051.884 L167.9688,1115.652 L168.75,1092.464 L169.5313,1115.652 L170.3125,1109.855 L171.0938,1098.261 L171.875,1095.362 L172.6563,1106.957 L173.4375,1095.362 L174.2188,1080.87 L175,1101.159 L175.7813,1083.768 L176.5625,1092.464 L177.3438,1043.188 L178.125,1092.464 L178.9063,1098.261 L179.6875,1144.638 L180.4688,1098.261 L181.25,1138.841 L182.0313,1095.362 L182.8125,1104.058 L183.5938,1086.667 L184.375,1106.957 L185.1563,1046.087 L185.9375,1057.681 L186.7188,1046.087 L187.5,1162.029 L188.2813,1040.29 L189.0625,1106.957 L189.8438,1147.536 L190.625,1080.87 L191.4063,1130.145 L192.1875,1040.29 L192.9688,1080.87 L193.75,1043.188 L194.5313,1147.536 L195.3125,1144.638 L196.0938,1098.261 L196.875,1121.449 L197.6563,1138.841 L198.4375,1144.638 L199.2188,1144.638 L200,1164.927 L200.7813,1124.348 L201.5625,1164.927 L202.3438,1124.348 L203.125,1135.942 L203.9063,1170.725 L204.6875,1112.754 L205.4688,1092.464 L206.25,1144.638 L207.0313,1130.145 L207.8125,1179.42 L208.5938,1127.246 L209.375,1115.652 L210.1563,1130.145 L210.9375,1133.043 L211.7188,1063.478 L212.5,1167.826 L213.2813,1124.348 L214.0625,1115.652 L214.8438,1092.464 L215.625,1098.261 L216.4063,1106.957 L217.1875,1124.348 L217.9688,1098.261 L218.75,1106.957 L219.5313,1127.246 L220.3125,1109.855 L221.0938,1109.855 L221.875,1112.754 L222.6563,1121.449 L223.4375,1086.667 L224.2188,1121.449 L225,1109.855 L225.7813,1101.159 L226.5625,1077.971 L227.3438,1104.058 L228.125,1092.464 L228.9063,1124.348 L229.6875,1104.058 L230.4688,1141.739 L231.25,1191.015 L232.0313,1069.275 L232.8125,1089.565 L233.5938,1101.159 L234.375,1089.565 L235.1563,1086.667 L235.9375,1109.855 L236.7188,1080.87 L237.5,1109.855 L238.2813,1031.594 L239.0625,1101.159 L239.8438,1083.768 L240.625,1089.565 L241.4063,1077.971 L242.1875,1109.855 L242.9688,1112.754 L243.75,1133.043 L244.5313,1162.029 L245.3125,1077.971 L246.0938,1075.073 L246.875,1075.073 L247.6563,1063.478 L248.4375,1066.377 L249.2188,1072.174 L250,1112.754 L250.7813,1112.754 L251.5625,1115.652 L252.3438,1130.145 L253.125,1054.783 L253.9063,1048.985 L254.6875,1063.478 L255.4688,1095.362 L256.25,1150.435 L257.0313,1109.855 L257.8125,1077.971 L258.5938,1135.942 L259.375,1135.942 L260.1563,1072.174 L260.9375,1060.58 L261.7188,1072.174 L262.5,1020 L263.2813,1121.449 L264.0625,1150.435 L264.8438,1121.449 L265.625,1106.957 L266.4063,1112.754 L267.1875,1098.261 L267.9688,1121.449 L268.75,1130.145 L269.5313,1115.652 L270.3125,1092.464 L271.0938,1077.971 L271.875,1147.536 L272.6563,1020 L273.4375,1133.043 L274.2188,1176.522 L275,1124.348 L275.7813,1159.13 L276.5625,1080.87 L277.3438,1115.652 L278.125,1101.159 L278.9063,1135.942 L279.6875,1040.29 L280.4688,1121.449 L281.25,1147.536 L282.0313,1072.174 L282.8125,1112.754 L283.5938,1083.768 L284.375,1127.246 L285.1563,1150.435 L285.9375,1127.246 L286.7188,1144.638 L287.5,1106.957 L288.2813,1130.145 L289.0625,1130.145 L289.8438,1112.754 L290.625,1112.754 L291.4063,1098.261 L292.1875,1133.043 L292.9688,1066.377 L293.75,1164.927 L294.5313,1109.855 L295.3125,1112.754 L296.0938,1109.855 L296.875,1127.246 L297.6563,1086.667 L298.4375,1118.551 L299.2188,1115.652 L300,1104.058 L300.7813,1098.261 L301.5625,1133.043 L302.3438,1115.652 L303.125,1101.159 L303.9063,1098.261 L304.6875,1150.435 L305.4688,1109.855 L306.25,1098.261 L307.0313,1159.13 L307.8125,1118.551 L308.5938,1101.159 L309.375,1115.652 L310.1563,1130.145 L310.9375,1112.754 L311.7188,1109.855 L312.5,1127.246 L313.2813,1124.348 L314.0625,1109.855 L314.8438,1156.232 L315.625,1054.783 L316.4063,1118.551 L317.1875,1115.652 L317.9688,1115.652 L318.75,1098.261 L319.5313,1138.841 L320.3125,1144.638 L321.0938,1089.565 L321.875,1077.971 L322.6563,1057.681 L323.4375,1130.145 L324.2188,1092.464 L325,1101.159 L325.7813,1144.638 L326.5625,1156.232 L327.3438,1130.145 L328.125,1077.971 L328.9063,1159.13 L329.6875,1127.246 L330.4688,1141.739 L331.25,1133.043 L332.0313,1083.768 L332.8125,1095.362 L333.5938,1089.565 L334.375,1124.348 L335.1563,1092.464 L335.9375,1138.841 L336.7188,1130.145 L337.5,1092.464 L338.2813,1124.348 L339.0625,1147.536 L339.8438,1135.942 L340.625,1112.754 L341.4063,1138.841 L342.1875,1130.145 L342.9688,1170.725 L343.75,1101.159 L344.5313,1115.652 L345.3125,1077.971 L346.0938,1106.957 L346.875,1086.667 L347.6563,1101.159 L348.4375,1124.348 L349.2188,1106.957 L350,1147.536 L350.7813,1133.043 L351.5625,1098.261 L352.3438,1106.957 L353.125,1115.652 L353.9063,1098.261 L354.6875,1083.768 L355.4688,1069.275 L356.25,1025.797 L357.0313,1150.435 L357.8125,1124.348 L358.5938,1104.058 L359.375,1133.043 L360.1563,1156.232 L360.9375,1162.029 L361.7188,1112.754 L362.5,1115.652 L363.2813,1150.435 L364.0625,1115.652 L364.8438,1089.565 L365.625,1092.464 L366.4063,1141.739 L367.1875,1133.043 L367.9688,1135.942 L368.75,1115.652 L369.5313,1118.551 L370.3125,1124.348 L371.0938,1133.043 L371.875,1109.855 L372.6563,1069.275 L373.4375,1077.971 L374.2188,1115.652 L375,1130.145 L375.7813,1077.971 L376.5625,1080.87 L377.3438,1147.536 L378.125,1144.638 L378.9063,1135.942 L379.6875,1156.232 L380.4688,1109.855 L381.25,1127.246 L382.0313,1127.246 L382.8125,1080.87 L383.5938,1101.159 L384.375,1141.739 L385.1563,1162.029 L385.9375,1135.942 L386.7188,1112.754 L387.5,1115.652 L388.2813,1127.246 L389.0625,1124.348 L389.8438,1080.87 L390.625,1118.551 L391.4063,1147.536 L392.1875,1098.261 L392.9688,1092.464 L393.75,1092.464 L394.5313,1121.449 L395.3125,1106.957 L396.0938,1077.971 L396.875,1106.957 L397.6563,1075.073 L398.4375,1153.333 L399.2188,1115.652 L400,1124.348 L400.7813,1040.29 L401.5625,1060.58 L402.3438,1066.377 L403.125,1109.855 L403.9063,1095.362 L404.6875,1092.464 L405.4688,1109.855 L406.25,1138.841 L407.0313,1115.652 L407.8125,1144.638 L408.5938,1135.942 L409.375,1124.348 L410.1563,1095.362 L410.9375,1092.464 L411.7188,1141.739 L412.5,1083.768 L413.2813,1095.362 L414.0625,1144.638 L414.8438,1104.058 L415.625,1104.058 L416.4063,1127.246 L417.1875,1164.927 L417.9688,1112.754 L418.75,1040.29 L419.5313,1138.841 L420.3125,1133.043 L421.0938,1144.638 L421.875,1106.957 L422.6563,1057.681 L423.4375,1092.464 L424.2188,1135.942 L425,1083.768 L425.7813,1133.043 L426.5625,1150.435 L427.3438,1138.841 L428.125,1112.754 L428.9063,1112.754 L429.6875,1089.565 L430.4688,1089.565 L431.25,1092.464 " stroke="blue" fill="none" />
<text x="50" y="1270" font-family="Arial" font-size="12" fill="black">Policy Loss</text>
<text x="50" y="1285" font-family="Arial" font-size="10" fill="black">0.7542202</text>
<text x="50" y="1500" font-family="Arial" font-size="10" fill="black">0.7542202</text>
<path d="M50,1490 " stroke="blue" fill="none" />
<text x="50" y="1540" font-family="Arial" font-size="12" fill="black">Value Loss</text>
<text x="50" y="1555" font-family="Arial" font-size="10" fill="black">0.4068265</text>
<text x="50" y="1770" font-family="Arial" font-size="10" fill="black">0.4068265</text>
<path d="M50,1760 " stroke="blue" fill="none" />
<text x="50" y="1810" font-family="Arial" font-size="12" fill="black">Learning Rate</text>
<text x="50" y="1825" font-family="Arial" font-size="10" fill="black">9.99985E-05</text>
<text x="50" y="2040" font-family="Arial" font-size="10" fill="black">9.99985E-05</text>
<path d="M50,2030 " stroke="blue" fill="none" />
<text x="50" y="2080" font-family="Arial" font-size="12" fill="black">Entropy</text>
<text x="50" y="2095" font-family="Arial" font-size="10" fill="black">1</text>
<text x="50" y="2310" font-family="Arial" font-size="10" fill="black">1</text>
<path d="M50,2300 " stroke="blue" fill="none" />
<text x="750" y="730" font-family="Arial" font-size="12" fill="black">Simplified</text>
<text x="750" y="745" font-family="Arial" font-size="10" fill="black">11.42052</text>
<text x="750" y="960" font-family="Arial" font-size="10" fill="black">7.712628</text>
<path d="M764.0625,950 L778.9063,887.296 L793.75,838.538 L808.5938,781.0859 L823.4375,771.824 L838.2813,900.3904 L853.125,828.2825 L867.9688,817.4592 L882.8125,750 L897.6563,774.8049 L912.5,928.7083 L927.3438,821.5402 L942.1875,757.0617 L957.0313,772.0369 L971.875,810.6459 L986.7188,854.2939 L1001.563,817.3528 L1016.406,837.7218 L1031.25,832.2924 L1046.094,839.1058 L1060.938,815.401 L1075.781,841.3414 L1090.625,863.3073 L1105.469,765.614 L1120.313,838.0413 L1131.25,799.6426 " stroke="blue" fill="none" />
<text x="750" y="1000" font-family="Arial" font-size="12" fill="black">Simplified</text>
<text x="750" y="1015" font-family="Arial" font-size="10" fill="black">70.73684</text>
<text x="750" y="1230" font-family="Arial" font-size="10" fill="black">49.89474</text>
<path d="M764.0625,1220 L778.9063,1135.656 L793.75,1088.182 L808.5938,1038.182 L823.4375,1025.051 L838.2813,1150.808 L853.125,1074.04 L867.9688,1061.414 L882.8125,1030.606 L897.6563,1020 L912.5,1149.798 L927.3438,1058.889 L942.1875,1030.101 L957.0313,1021.01 L971.875,1045.253 L986.7188,1080.606 L1001.563,1080.101 L1016.406,1087.172 L1031.25,1090.707 L1046.094,1086.667 L1060.938,1072.525 L1075.781,1078.081 L1090.625,1107.879 L1105.469,1030.606 L1120.313,1091.717 L1131.25,1066.14 " stroke="blue" fill="none" />
</svg>
