<svg width="2000" height="2500" xmlns="http://www.w3.org/2000/svg">
<text x="10" y="20" font-family="Arial" font-size="26" fill="black"> [RobotScript] Training Session</text>
<text x="10" y="50" font-family="Arial" font-size="16" fill="black">[Statistics]</text>
<text x="50" y="70" font-family="Arial" font-size="12" fill="black">Started at: 12:13:35 PM, Sunday, March 31, 2024</text>
<text x="50" y="90" font-family="Arial" font-size="12" fill="black">Finished at: 12:15:24 PM, Sunday, March 31, 2024</text>
<text x="50" y="110" font-family="Arial" font-size="12" fill="black">Training Session Time: 0 hrs : 1 min : 27 sec</text>
<text x="50" y="130" font-family="Arial" font-size="12" fill="black">Inference Time: 1 hrs : 3 min : 48 sec        [Device: CPU]</text>
<text x="50" y="150" font-family="Arial" font-size="12" fill="black">Update Time: 0 hrs : 0 min : 56 sec        [Per iteration: 0 hrs : 0 min : 55.802 sec]        [Device: GPU]</text>
<text x="50" y="170" font-family="Arial" font-size="12" fill="black">Episode Count: 1117</text>
<text x="50" y="190" font-family="Arial" font-size="12" fill="black">Inference Steps: 30000</text>
<text x="50" y="210" font-family="Arial" font-size="12" fill="black">Iterations: 1</text>
<text x="50" y="230" font-family="Arial" font-size="12" fill="black">Parallel Agents: 90</text>
<text x="50" y="250" font-family="Arial" font-size="12" fill="black">Timescale: 1</text>
<text x="50" y="270" font-family="Arial" font-size="12" fill="black">Trainer: PPO</text>
<text x="10" y="320" font-family="Arial" font-size="16" fill="black">[Hyperparameters]</text>
<text x="50" y="340" font-family="Arial" font-size="12" fill="black">Buffer Size: 30000        [Batch Size: 1000       (x30)]</text>
<text x="50" y="360" font-family="Arial" font-size="12" fill="black">Num Epoch: 8</text>
<text x="50" y="380" font-family="Arial" font-size="12" fill="black">Time Horizon: 256</text>
<text x="50" y="400" font-family="Arial" font-size="12" fill="black">Gradient Cliping by Norm: 0.5</text>
<text x="50" y="420" font-family="Arial" font-size="12" fill="black">Learning Rate Schedule: True    </text>
<text x="10" y="470" font-family="Arial" font-size="16" fill="black">[Behaviour]</text>
<text x="50" y="490" font-family="Arial" font-size="12" fill="black">Space Size: 86</text>
<text x="50" y="510" font-family="Arial" font-size="12" fill="black">Continuous Actions: 26 [Standard Deviation: Fixed]     [Value: 1.5]</text>
<text x="50" y="530" font-family="Arial" font-size="12" fill="black">Discrete Actions: 0</text>
<text x="50" y="550" font-family="Arial" font-size="12" fill="black">TargetFPS: 60 (physics update rate)</text>
<text x="50" y="570" font-family="Arial" font-size="12" fill="black">Observations Normalization: True</text>
<text x="10" y="620" font-family="Arial" font-size="16" fill="black">[Decision Requester]</text>
<text x="50" y="640" font-family="Arial" font-size="12" fill="black">Max Step: 10000</text>
<text x="50" y="660" font-family="Arial" font-size="12" fill="black">Decision Period: 5      [Actions Between Decisions: True]</text>
<text x="10" y="710" font-family="Arial" font-size="16" fill="black">[Graphs]</text>
<text x="50" y="730" font-family="Arial" font-size="12" fill="black">Episode Reward (1117)</text>
<text x="50" y="745" font-family="Arial" font-size="10" fill="black">14.77249</text>
<text x="50" y="960" font-family="Arial" font-size="10" fill="black">0.6350002</text>
<path d="M50,928.2493 L50.39063,942.3961 L50.78125,928.2493 L51.17188,928.2493 L51.5625,942.2192 L51.95313,913.3952 L52.34375,941.6888 L52.73438,913.2183 L53.125,913.2183 L53.51563,913.0415 L53.90625,912.8647 L54.29688,919.9381 L54.6875,919.938 L55.07813,912.6879 L55.46875,912.6879 L55.85938,905.4376 L56.25,912.3342 L56.64063,911.9805 L57.03125,926.1273 L57.42188,911.8037 L57.8125,925.9505 L58.20313,911.6268 L58.59375,904.3766 L58.98438,897.3032 L59.375,897.1264 L59.76563,889.8762 L60.15625,904.0229 L60.54688,896.7728 L60.9375,896.7728 L61.32813,928.0724 L61.71875,903.6693 L62.10938,889.5225 L62.5,910.5659 L62.89063,896.4191 L63.28125,917.4624 L63.67188,888.992 L64.0625,881.9186 L64.45313,903.1388 L64.84375,905.4376 L65.23438,902.962 L65.625,881.7418 L66.01563,902.6083 L66.40625,873.9611 L66.79688,904.7303 L67.1875,916.2246 L67.57813,894.8276 L67.96875,894.6508 L68.35938,934.7922 L68.75,905.084 L69.14063,919.5844 L69.53125,919.4076 L69.92188,897.6569 L70.3125,928.0724 L70.70313,887.0469 L71.09375,889.1689 L71.48438,879.6198 L71.875,897.3032 L72.26563,897.1264 L72.65625,927.542 L73.04688,928.2493 L73.4375,850.9725 L73.82813,843.7224 L74.21875,896.7728 L74.60938,850.6189 L75,905.7913 L75.39063,902.4315 L75.78125,843.3687 L76.17188,919.0539 L76.5625,897.3032 L76.95313,912.8647 L77.34375,850.2652 L77.73438,857.1618 L78.125,910.5659 L78.51563,842.8381 L78.90625,905.6144 L79.29688,905.6144 L79.6875,888.2847 L80.07813,867.2413 L80.46875,842.6613 L80.85938,842.6613 L81.25,849.7347 L81.64063,897.1264 L82.03125,835.4111 L82.42188,828.3377 L82.8125,927.7188 L83.20313,856.4545 L83.59375,849.381 L83.98438,863.5278 L84.375,903.3156 L84.76563,842.1309 L85.15625,842.1309 L85.54688,889.1689 L85.9375,896.0654 L86.32813,911.0963 L86.71875,896.5959 L87.10938,841.7772 L87.5,827.4536 L87.89063,841.4235 L88.28125,827.2767 L88.67188,890.053 L89.0625,820.0265 L89.45313,910.9195 L89.84375,901.901 L90.23438,841.0698 L90.625,841.0698 L91.01563,833.9965 L91.40625,905.4376 L91.79688,874.6684 L92.1875,819.6729 L92.57813,847.9664 L92.96875,905.2608 L93.35938,905.4376 L93.75,881.7418 L94.14063,833.6428 L94.53125,819.496 L94.92188,927.0115 L95.3125,878.382 L95.70313,819.3192 L96.09375,833.4659 L96.48438,905.6144 L96.875,904.1998 L97.26563,882.0955 L97.65625,934.7922 L98.04688,895.7117 L98.4375,811.8921 L98.82813,811.7153 L99.21875,811.7153 L99.60938,818.7887 L100,904.5535 L100.3906,912.8647 L100.7813,919.5844 L101.1719,902.962 L101.5625,804.465 L101.9531,895.0044 L102.3438,825.5084 L102.7344,912.1573 L103.125,903.8461 L103.5156,903.4925 L103.9063,920.6454 L104.2969,796.6843 L104.6875,920.1149 L105.0781,888.2847 L105.4688,824.8011 L105.8594,889.1689 L106.25,926.8347 L106.6406,796.3307 L107.0313,903.3156 L107.4219,796.1538 L107.8125,824.4474 L108.2031,803.2272 L108.5938,912.1573 L108.9844,881.9186 L109.375,890.7603 L109.7656,925.5968 L110.1563,816.8435 L110.5469,927.8956 L110.9375,888.992 L111.3281,905.2608 L111.7188,919.2307 L112.1094,882.0955 L112.5,927.1883 L112.8906,910.389 L113.2813,919.7612 L113.6719,927.8956 L114.0625,912.8647 L114.4531,912.511 L114.8438,916.2245 L115.2344,905.2608 L115.625,890.9372 L116.0156,920.2917 L116.4063,927.7188 L116.7969,888.992 L117.1875,897.8337 L117.5781,920.6454 L117.9688,919.0539 L118.3594,895.1813 L118.75,903.3156 L119.1406,887.7542 L119.5313,912.1573 L119.9219,897.3032 L120.3125,903.1388 L120.7031,872.7232 L121.0938,912.8647 L121.4844,890.4067 L121.875,881.3881 L122.2656,896.7728 L122.6563,898.0106 L123.0469,897.1264 L123.4375,912.511 L123.8281,927.8956 L124.2188,902.962 L124.6094,910.2122 L125,897.1264 L125.3906,904.0229 L125.7813,889.5225 L126.1719,882.0955 L126.5625,927.8956 L126.9531,836.4721 L127.3438,905.4376 L127.7344,896.9496 L128.125,911.8036 L128.5156,896.7728 L128.9063,836.2953 L129.2969,805.1724 L129.6875,912.511 L130.0781,904.3766 L130.4688,911.45 L130.8594,905.4376 L131.25,835.4111 L131.6406,904.3766 L132.0313,882.8028 L132.4219,897.3032 L132.8125,897.8337 L133.2031,888.992 L133.5938,920.6454 L133.9844,926.8347 L134.375,887.5773 L134.7656,842.3077 L135.1563,848.6737 L135.5469,926.8347 L135.9375,897.1264 L136.3281,918.8771 L136.7188,828.1609 L137.1094,849.2042 L137.5,912.3342 L137.8906,912.3342 L138.2813,849.5579 L138.6719,828.3377 L139.0625,857.1618 L139.4531,897.6569 L139.8438,888.992 L140.2344,904.7303 L140.625,864.9425 L141.0156,834.1733 L141.4063,888.992 L141.7969,904.9071 L142.1875,942.2192 L142.5781,903.3156 L142.9688,818.7887 L143.3594,871.8391 L143.75,890.4067 L144.1406,909.5049 L144.5313,828.5145 L144.9219,919.2307 L145.3125,882.2723 L145.7031,919.7612 L146.0938,919.7612 L146.4844,911.45 L146.875,840.893 L147.2656,847.4359 L147.6563,904.1998 L148.0469,804.1114 L148.4375,842.8381 L148.8281,841.6003 L149.2188,897.1264 L149.6094,858.2228 L150,847.2591 L150.3906,827.0999 L150.7813,916.0478 L151.1719,818.6118 L151.5625,911.9805 L151.9531,834.5269 L152.3438,774.9337 L152.7344,905.6144 L153.125,905.4376 L153.5156,889.6993 L153.9063,926.8347 L154.2969,910.7427 L154.6875,942.0424 L155.0781,890.4067 L155.4688,910.7427 L155.8594,888.8152 L156.25,902.7852 L156.6406,826.5694 L157.0313,819.496 L157.4219,835.9416 L157.8125,824.9779 L158.2031,919.4076 L158.5938,911.6268 L158.9844,842.4845 L159.375,840.5394 L159.7656,856.6313 L160.1563,811.3616 L160.5469,905.4376 L160.9375,855.2166 L161.3281,881.7418 L161.7188,896.4191 L162.1094,896.7728 L162.5,905.4376 L162.8906,905.6144 L163.2813,905.2608 L163.6719,812.4226 L164.0625,940.6277 L164.4531,833.9965 L164.8438,804.2882 L165.2344,898.1874 L165.625,832.7586 L166.0156,926.8347 L166.4063,928.0724 L166.7969,889.3457 L167.1875,898.1874 L167.5781,858.3996 L167.9688,882.2723 L168.3594,910.7427 L168.75,917.6393 L169.1406,802.3431 L169.5313,904.3766 L169.9219,924.5358 L170.3125,910.2122 L170.7031,935.1459 L171.0938,897.1264 L171.4844,913.2183 L171.875,842.1309 L172.2656,905.6144 L172.6563,810.1238 L173.0469,896.7728 L173.4375,890.4067 L173.8281,924.7126 L174.2188,902.7852 L174.6094,881.7418 L175,888.8152 L175.3906,889.1689 L175.7813,897.1264 L176.1719,897.4801 L176.5625,889.1689 L176.9531,918.1697 L177.3438,913.0415 L177.7344,881.0345 L178.125,916.755 L178.5156,896.9496 L178.9063,882.2723 L179.2969,934.4385 L179.6875,802.8735 L180.0781,881.0345 L180.4688,904.3766 L180.8594,909.1512 L181.25,895.7117 L181.6406,918.8771 L182.0313,898.3643 L182.4219,904.9071 L182.8125,931.0787 L183.2031,857.6923 L183.5938,903.3156 L183.9844,909.8585 L184.375,858.2228 L184.7656,864.9425 L185.1563,820.7338 L185.5469,911.2732 L185.9375,874.4916 L186.3281,911.0964 L186.7188,928.0724 L187.1094,905.2608 L187.5,841.2467 L187.8906,897.8337 L188.2813,889.6993 L188.6719,864.412 L189.0625,836.4721 L189.4531,864.9425 L189.8438,872.3696 L190.2344,912.1573 L190.625,881.7418 L191.0156,843.7224 L191.4063,927.0115 L191.7969,828.3377 L192.1875,865.1193 L192.5781,875.5526 L192.9688,850.2652 L193.3594,914.6331 L193.75,850.2652 L194.1406,903.6693 L194.5313,835.0574 L194.9219,843.3687 L195.3125,826.923 L195.7031,898.1874 L196.0938,912.3342 L196.4844,856.6313 L196.875,920.2917 L197.2656,897.8337 L197.6563,834.1733 L198.0469,842.4845 L198.4375,788.9036 L198.8281,911.6268 L199.2188,911.0964 L199.6094,919.7612 L200,819.3192 L200.3906,874.6684 L200.7813,896.0654 L201.1719,882.2723 L201.5625,904.3766 L201.9531,934.9691 L202.3438,903.8461 L202.7344,904.7303 L203.125,841.0698 L203.5156,842.1309 L203.9063,897.6569 L204.2969,911.8037 L204.6875,865.473 L205.0781,920.6454 L205.4688,927.7188 L205.8594,903.6693 L206.25,835.4111 L206.6406,897.4801 L207.0313,904.5535 L207.4219,797.038 L207.8125,855.3934 L208.2031,911.8036 L208.5938,902.6083 L208.9844,905.4376 L209.375,896.2422 L209.7656,890.4067 L210.1563,933.2007 L210.5469,821.2643 L210.9375,836.2953 L211.3281,942.2192 L211.7188,842.6613 L212.1094,920.1149 L212.5,882.8028 L212.8906,882.626 L213.2813,904.7303 L213.6719,893.5898 L214.0625,881.7418 L214.4531,928.2493 L214.8438,825.8621 L215.2344,895.8886 L215.625,904.3766 L216.0156,903.1388 L216.4063,888.2847 L216.7969,819.496 L217.1875,895.7117 L217.5781,920.6454 L217.9688,819.8497 L218.3594,905.9681 L218.75,865.2962 L219.1406,847.0822 L219.5313,826.2157 L219.9219,905.6144 L220.3125,825.5084 L220.7031,901.0168 L221.0938,888.992 L221.4844,897.4801 L221.875,804.6419 L222.2656,903.6693 L222.6563,890.4067 L223.0469,905.6144 L223.4375,920.6454 L223.8281,920.2917 L224.2188,919.2307 L224.6094,904.3766 L225,949.1158 L225.3906,912.8647 L225.7813,890.5835 L226.1719,897.3032 L226.5625,847.9664 L226.9531,904.5535 L227.3438,911.8037 L227.7344,904.7303 L228.125,820.7338 L228.5156,826.7462 L228.9063,911.6268 L229.2969,905.4376 L229.6875,903.6693 L230.0781,911.8037 L230.4688,903.8461 L230.8594,904.3766 L231.25,810.6543 L231.6406,842.6613 L232.0313,904.1998 L232.4219,889.1689 L232.8125,895.7117 L233.2031,904.7303 L233.5938,896.4191 L233.9844,898.1874 L234.375,856.9849 L234.7656,816.4899 L235.1563,874.6684 L235.5469,835.2343 L235.9375,889.1688 L236.3281,888.4615 L236.7188,851.6799 L237.1094,889.6993 L237.5,896.7728 L237.8906,919.938 L238.2813,904.0229 L238.6719,902.2546 L239.0625,889.3457 L239.4531,905.6144 L239.8438,879.7966 L240.2344,920.2917 L240.625,917.6393 L241.0156,886.1627 L241.4063,905.4376 L241.7969,875.1989 L242.1875,928.2493 L242.5781,905.4376 L242.9688,842.4845 L243.3594,819.496 L243.75,911.9805 L244.1406,905.4376 L244.5313,902.7852 L244.9219,887.2237 L245.3125,849.7347 L245.7031,912.8647 L246.0938,911.8037 L246.4844,896.4191 L246.875,812.7762 L247.2656,835.9416 L247.6563,833.2891 L248.0469,820.3802 L248.4375,888.6384 L248.8281,925.9504 L249.2188,841.0698 L249.6094,890.4067 L250,912.1573 L250.3906,834.8806 L250.7813,911.45 L251.1719,889.1689 L251.5625,882.8028 L251.9531,864.0583 L252.3438,862.9974 L252.7344,896.0654 L253.125,904.9071 L253.5156,928.2493 L253.9063,919.2307 L254.2969,886.8701 L254.6875,934.6154 L255.0781,897.4801 L255.4688,855.3934 L255.8594,841.954 L256.25,920.6454 L256.6406,912.1573 L257.0313,911.6268 L257.4219,889.8762 L257.8125,912.6879 L258.2031,775.641 L258.5938,874.8452 L258.9844,897.4801 L259.375,873.0769 L259.7656,818.6118 L260.1563,897.3032 L260.5469,904.9071 L260.9375,927.8956 L261.3281,881.7418 L261.7188,881.0345 L262.1094,841.7772 L262.5,841.4235 L262.8906,872.3696 L263.2813,896.2422 L263.6719,911.6268 L264.0625,909.6817 L264.4531,904.5535 L264.8438,812.4226 L265.2344,889.8762 L265.625,804.6419 L266.0156,898.0106 L266.4063,889.6993 L266.7969,913.0415 L267.1875,910.5658 L267.5781,896.9496 L267.9688,834.5269 L268.3594,889.5225 L268.75,828.3377 L269.1406,910.5659 L269.5313,928.2493 L269.9219,782.1839 L270.3125,889.3457 L270.7031,928.0724 L271.0938,912.511 L271.4844,889.8762 L271.875,805.1724 L272.2656,818.9655 L272.6563,803.9346 L273.0469,896.5959 L273.4375,912.6879 L273.8281,782.007 L274.2188,918.3466 L274.6094,904.5535 L275,856.6313 L275.3906,872.1927 L275.7813,903.3156 L276.1719,910.9196 L276.5625,904.5535 L276.9531,913.0415 L277.3438,817.374 L277.7344,928.0724 L278.125,903.1388 L278.5156,912.1573 L278.9063,788.9036 L279.2969,911.8037 L279.6875,889.1688 L280.0781,895.1813 L280.4688,904.7303 L280.8594,903.1388 L281.25,896.4191 L281.6406,832.405 L282.0313,904.7303 L282.4219,927.7188 L282.8125,889.6993 L283.2031,904.5535 L283.5938,904.5535 L283.9844,850.4421 L284.375,903.4925 L284.7656,913.2183 L285.1563,912.1573 L285.5469,858.046 L285.9375,811.3616 L286.3281,928.0724 L286.7188,928.2493 L287.1094,890.4067 L287.5,833.8196 L287.8906,896.4191 L288.2813,933.0239 L288.6719,925.5968 L289.0625,905.4376 L289.4531,803.5809 L289.8438,928.0724 L290.2344,887.4005 L290.625,904.3766 L291.0156,902.2546 L291.4063,897.1264 L291.7969,889.8762 L292.1875,904.5535 L292.5781,889.6993 L292.9688,928.0724 L293.3594,834.7038 L293.75,890.4067 L294.1406,818.7887 L294.5313,848.4969 L294.9219,928.0724 L295.3125,847.2591 L295.7031,927.7188 L296.0938,919.5844 L296.4844,866.1804 L296.875,879.2661 L297.2656,889.6993 L297.6563,890.053 L298.0469,835.588 L298.4375,904.5535 L298.8281,880.8576 L299.2188,888.8152 L299.6094,797.038 L300,889.3457 L300.3906,904.5535 L300.7813,909.6817 L301.1719,927.8956 L301.5625,878.2051 L301.9531,875.0221 L302.3438,888.1078 L302.7344,920.8223 L303.125,928.0724 L303.5156,856.2776 L303.9063,904.3766 L304.2969,902.4315 L304.6875,826.5694 L305.0781,858.7533 L305.4688,874.4916 L305.8594,896.9496 L306.25,913.3952 L306.6407,797.038 L307.0313,905.4376 L307.4219,834.1733 L307.8125,911.6268 L308.2031,912.6879 L308.5938,835.4111 L308.9844,890.2299 L309.375,812.5994 L309.7656,896.7728 L310.1563,903.8461 L310.5469,811.8921 L310.9375,826.5694 L311.3281,819.6729 L311.7188,881.2113 L312.1094,811.0079 L312.5,857.6923 L312.8906,897.6569 L313.2813,835.588 L313.6719,881.0345 L314.0625,911.9805 L314.4532,903.4925 L314.8438,889.1689 L315.2344,835.2343 L315.625,927.0115 L316.0156,882.2723 L316.4063,889.3457 L316.7969,910.0353 L317.1875,911.8037 L317.5781,928.0724 L317.9688,889.5225 L318.3594,843.1918 L318.75,926.3041 L319.1406,918.1697 L319.5313,888.4615 L319.9219,904.1998 L320.3125,826.3926 L320.7031,918.5234 L321.0938,911.6268 L321.4844,896.4191 L321.875,902.4315 L322.2657,904.7303 L322.6563,873.9611 L323.0469,857.1618 L323.4375,903.4925 L323.8281,882.2723 L324.2188,918.3466 L324.6094,912.511 L325,897.8337 L325.3906,912.6879 L325.7813,820.2033 L326.1719,834.8806 L326.5625,913.2183 L326.9531,819.1423 L327.3438,912.3342 L327.7344,904.1998 L328.125,841.954 L328.5156,920.4686 L328.9063,904.7303 L329.2969,905.4376 L329.6875,858.046 L330.0782,818.9655 L330.4688,846.9054 L330.8594,895.8886 L331.25,897.1264 L331.6406,897.4801 L332.0313,903.8461 L332.4219,833.2891 L332.8125,920.6454 L333.2031,841.2467 L333.5938,843.7224 L333.9844,934.6154 L334.375,927.7188 L334.7656,889.5225 L335.1563,925.7736 L335.5469,841.4235 L335.9375,881.2113 L336.3281,897.3032 L336.7188,882.2723 L337.1094,889.8762 L337.5,912.8647 L337.8907,934.4385 L338.2813,904.9071 L338.6719,889.5225 L339.0625,804.6419 L339.4531,904.7303 L339.8438,890.9372 L340.2344,890.5835 L340.625,903.8461 L341.0156,890.4067 L341.4063,826.923 L341.7969,811.1848 L342.1875,904.1998 L342.5781,890.4067 L342.9688,881.2113 L343.3594,928.2493 L343.75,887.2237 L344.1406,833.9965 L344.5313,904.5535 L344.9219,849.5579 L345.3125,818.9655 L345.7032,927.7188 L346.0938,850.2652 L346.4844,919.5844 L346.875,850.2652 L347.2656,898.1874 L347.6563,912.1573 L348.0469,897.1264 L348.4375,849.5579 L348.8281,912.6879 L349.2188,903.8461 L349.6094,911.8037 L350,889.8762 L350.3906,889.5225 L350.7813,896.2422 L351.1719,896.4191 L351.5625,897.1264 L351.9531,881.5649 L352.3438,827.6304 L352.7344,909.3281 L353.125,897.4801 L353.5157,838.9479 L353.9063,849.9116 L354.2969,866.534 L354.6875,898.3643 L355.0781,826.3926 L355.4688,812.069 L355.8594,821.0875 L356.25,912.511 L356.6406,902.6083 L357.0313,904.1998 L357.4219,888.2847 L357.8125,896.9496 L358.2031,881.3881 L358.5938,910.2122 L358.9844,870.7781 L359.375,898.1874 L359.7656,896.9496 L360.1563,889.8762 L360.5469,904.9071 L360.9375,825.5084 L361.3282,897.4801 L361.7188,897.4801 L362.1094,803.5809 L362.5,905.4376 L362.8906,903.6693 L363.2813,813.3068 L363.6719,903.1388 L364.0625,895.7117 L364.4531,862.4669 L364.8438,813.4836 L365.2344,896.7728 L365.625,894.8276 L366.0156,820.3802 L366.4063,905.4376 L366.7969,881.2113 L367.1875,843.8992 L367.5781,905.7913 L367.9688,920.4686 L368.3594,888.4615 L368.75,858.3996 L369.1407,873.9611 L369.5313,903.4925 L369.9219,881.5649 L370.3125,910.2122 L370.7031,820.0265 L371.0938,912.1573 L371.4844,909.1512 L371.875,910.389 L372.2656,834.3501 L372.6563,918.8771 L373.0469,904.1998 L373.4375,918.8771 L373.8281,835.2343 L374.2188,920.4686 L374.6094,796.6843 L375,818.6118 L375.3906,864.9425 L375.7813,872.3696 L376.1719,810.8311 L376.5625,818.2582 L376.9532,950 L377.3438,912.511 L377.7344,857.5154 L378.125,890.9372 L378.5156,819.8497 L378.9063,864.9425 L379.2969,896.0654 L379.6875,889.8762 L380.0781,849.7347 L380.4688,918.8771 L380.8594,919.7612 L381.25,889.5225 L381.6406,933.5543 L382.0313,927.1883 L382.4219,928.0724 L382.8125,911.0963 L383.2031,912.8647 L383.5938,889.8762 L383.9844,920.6454 L384.375,927.8956 L384.7657,890.2299 L385.1563,871.4854 L385.5469,798.099 L385.9375,904.7303 L386.3281,928.0724 L386.7188,904.7303 L387.1094,903.8461 L387.5,897.1264 L387.8906,927.8956 L388.2813,889.8762 L388.6719,828.6914 L389.0625,897.8337 L389.4531,894.6508 L389.8438,926.6578 L390.2344,842.4845 L390.625,898.1874 L391.0156,927.7188 L391.4063,750 L391.7969,928.0724 L392.1875,903.3156 L392.5782,928.0724 L392.9688,841.954 L393.3594,842.4845 L393.75,789.611 L394.1406,904.5535 L394.5313,911.0964 L394.9219,888.8152 L395.3125,903.8461 L395.7031,887.2237 L396.0938,919.7612 L396.4844,912.511 L396.875,912.511 L397.2656,858.9301 L397.6563,911.6268 L398.0469,896.7728 L398.4375,896.9496 L398.8281,934.7922 L399.2188,833.2891 L399.6094,865.2962 L400,832.2281 L400.3907,881.2113 L400.7813,809.5933 L401.1719,803.2272 L401.5625,928.0724 L401.9531,868.3024 L402.3438,873.4306 L402.7344,895.3581 L403.125,824.8011 L403.5156,919.4076 L403.9063,913.0415 L404.2969,919.0539 L404.6875,904.3766 L405.0781,928.2493 L405.4688,833.8196 L405.8594,867.4182 L406.25,881.0345 L406.6406,842.6613 L407.0313,913.2183 L407.4219,895.3581 L407.8125,874.1379 L408.2032,911.9805 L408.5938,926.8347 L408.9844,811.0079 L409.375,864.7657 L409.7656,890.7603 L410.1563,904.1998 L410.5469,875.1989 L410.9375,840.0089 L411.3281,896.5959 L411.7188,903.4925 L412.1094,918.8771 L412.5,840.0089 L412.8906,911.0963 L413.2813,928.0724 L413.6719,874.6684 L414.0625,864.9425 L414.4531,905.4376 L414.8438,897.3032 L415.2344,838.0637 L415.625,905.2608 L416.0157,889.6993 L416.4063,855.0398 L416.7969,854.6862 L417.1875,928.0724 L417.5781,925.7736 L417.9688,903.8461 L418.3594,896.9496 L418.75,843.015 L419.1406,851.1494 L419.5313,928.0724 L419.9219,905.2608 L420.3125,911.2732 L420.7031,928.0724 L421.0938,828.8682 L421.4844,898.0106 L421.875,886.5164 L422.2656,887.7542 L422.6563,905.6144 L423.0469,867.0645 L423.4375,827.0999 L423.8282,911.6268 L424.2188,911.0964 L424.6094,818.435 L425,834.5269 L425.3906,889.3457 L425.7813,840.0089 L426.1719,849.7347 L426.5625,888.992 L426.9531,805.3492 L427.3438,910.0353 L427.7344,918.1697 L428.125,889.1689 L428.5156,903.8461 L428.9063,833.8196 L429.2969,827.4536 L429.6875,920.2917 L430.0781,904.1998 L430.4688,849.2042 L430.8594,913.3952 L431.25,896.2422 L431.6407,904.0229 L432.0313,925.5968 L432.4219,928.0724 L432.8125,827.2767 L433.2031,880.504 L433.5938,851.1494 L433.9844,827.2767 L434.375,926.6578 L434.7656,904.5535 L435.1563,898.0106 L435.5469,901.5473 L435.9375,920.4686 L436.3281,920.2917 L436.7188,905.2608 L437.1094,850.9725 L437.5,796.1538 L437.8906,911.0964 L438.2813,827.9841 L438.6719,904.7303 L439.0625,833.2891 L439.4532,912.8647 L439.8438,897.4801 L440.2344,903.6693 L440.625,894.6508 L441.0156,920.6454 L441.4063,819.1423 L441.7969,872.9001 L442.1875,887.7542 L442.5781,856.8081 L442.9688,918.7003 L443.3594,910.0353 L443.75,928.0724 L444.1406,871.6622 L444.5313,832.0513 L444.9219,895.5349 L445.3125,836.4721 L445.7031,880.3271 L446.0938,883.3333 L446.4844,866.1804 L446.875,925.42 L447.2657,904.5535 L447.6563,928.0724 L448.0469,928.0724 L448.4375,911.2732 L448.8281,928.0724 L449.2188,856.4545 L449.6094,842.3077 L450,850.2652 L450.3906,858.7533 L450.7813,873.0769 L451.1719,911.2732 L451.5625,871.6622 L451.9531,881.9186 L452.3438,810.1238 L452.7344,898.0106 L453.125,941.3351 L453.5156,896.0654 L453.9063,904.9071 L454.2969,910.389 L454.6875,888.4615 L455.0782,905.6144 L455.4688,858.9301 L455.8594,895.8886 L456.25,904.1998 L456.6406,819.496 L457.0313,904.5535 L457.4219,911.0964 L457.8125,919.4076 L458.2031,928.0724 L458.5938,813.8373 L458.9844,903.6693 L459.375,927.0115 L459.7656,851.1494 L460.1563,924.5358 L460.5469,905.4376 L460.9375,857.6923 L461.3281,819.3192 L461.7188,889.3457 L462.1094,910.9195 L462.5,911.0964 L462.8907,827.8072 L463.2813,897.4801 L463.6719,833.1123 L464.0625,888.1078 L464.4531,890.2299 L464.8438,850.4421 L465.2344,806.587 L465.625,843.015 L466.0156,905.2608 L466.4063,904.5535 L466.7969,859.2838 L467.1875,904.9071 L467.5781,853.6251 L467.9688,890.053 L468.3594,897.3032 L468.75,896.9496 L469.1406,912.8647 L469.5313,903.8461 L469.9219,896.5959 L470.3125,843.7224 L470.7032,911.45 L471.0938,911.45 L471.4844,857.6923 L471.875,905.4376 L472.2656,904.1998 L472.6563,890.4067 L473.0469,819.1423 L473.4375,881.2113 L473.8281,910.7427 L474.2188,849.0274 L474.6094,834.8806 L475,898.1874 L475.3906,880.504 L475.7813,841.4235 L476.1719,896.9496 L476.5625,881.9186 L476.9531,881.2113 L477.3438,896.4191 L477.7344,911.2732 L478.125,895.3581 L478.5157,911.8037 L478.9063,911.9805 L479.2969,934.9691 L479.6875,787.489 L480.0781,819.6729 L480.4688,835.4111 L480.8594,820.3802 L481.25,912.1573 L481.6406,928.0724 L482.0313,873.2537 L482.4219,911.9805 L482.8125,810.4775 L483.2031,888.6384 L483.5938,881.0345 L483.9844,834.8806 L484.375,889.1689 L484.7656,896.4191 L485.1563,912.511 L485.5469,890.4067 L485.9375,896.2422 " stroke="blue" fill="none" />
<text x="50" y="1000" font-family="Arial" font-size="12" fill="black">Episode Length (1117)</text>
<text x="50" y="1015" font-family="Arial" font-size="10" fill="black">102</text>
<text x="50" y="1230" font-family="Arial" font-size="10" fill="black">11</text>
<path d="M50,1215.604 L50.39063,1215.604 L50.78125,1215.604 L51.17188,1215.604 L51.5625,1213.407 L51.95313,1206.813 L52.34375,1206.813 L52.73438,1204.615 L53.125,1204.615 L53.51563,1202.418 L53.90625,1200.22 L54.29688,1200.22 L54.6875,1200.22 L55.07813,1198.022 L55.46875,1198.022 L55.85938,1195.824 L56.25,1193.626 L56.64063,1189.231 L57.03125,1189.231 L57.42188,1187.033 L57.8125,1187.033 L58.20313,1184.835 L58.59375,1182.637 L58.98438,1182.637 L59.375,1180.44 L59.76563,1178.242 L60.15625,1178.242 L60.54688,1176.044 L60.9375,1176.044 L61.32813,1211.209 L61.71875,1173.846 L62.10938,1173.846 L62.5,1171.648 L62.89063,1171.648 L63.28125,1169.451 L63.67188,1167.253 L64.0625,1167.253 L64.45313,1167.253 L64.84375,1193.626 L65.23438,1165.055 L65.625,1165.055 L66.01563,1160.659 L66.40625,1156.264 L66.79688,1184.835 L67.1875,1154.066 L67.57813,1151.868 L67.96875,1149.67 L68.35938,1206.813 L68.75,1189.231 L69.14063,1193.626 L69.53125,1191.429 L69.92188,1184.835 L70.3125,1211.209 L70.70313,1143.077 L71.09375,1167.253 L71.48438,1138.681 L71.875,1180.44 L72.26563,1178.242 L72.65625,1204.615 L73.04688,1213.407 L73.4375,1134.286 L73.82813,1132.088 L74.21875,1173.846 L74.60938,1129.89 L75,1198.022 L75.39063,1156.264 L75.78125,1127.692 L76.17188,1187.033 L76.5625,1180.44 L76.95313,1198.022 L77.34375,1125.495 L77.73438,1123.297 L78.125,1169.451 L78.51563,1121.099 L78.90625,1195.824 L79.29688,1195.824 L79.6875,1156.264 L80.07813,1158.462 L80.46875,1118.901 L80.85938,1118.901 L81.25,1118.901 L81.64063,1178.242 L82.03125,1116.703 L82.42188,1116.703 L82.8125,1206.813 L83.20313,1114.505 L83.59375,1114.505 L83.98438,1114.505 L84.375,1167.253 L84.76563,1112.308 L85.15625,1112.308 L85.54688,1167.253 L85.9375,1165.055 L86.32813,1176.044 L86.71875,1171.648 L87.10938,1107.912 L87.5,1105.714 L87.89063,1103.516 L88.28125,1103.516 L88.67188,1178.242 L89.0625,1101.319 L89.45313,1173.846 L89.84375,1149.67 L90.23438,1099.121 L90.625,1099.121 L91.01563,1099.121 L91.40625,1193.626 L91.79688,1162.857 L92.1875,1096.923 L92.57813,1096.923 L92.96875,1191.429 L93.35938,1193.626 L93.75,1162.857 L94.14063,1094.725 L94.53125,1094.725 L94.92188,1198.022 L95.3125,1121.099 L95.70313,1092.527 L96.09375,1092.527 L96.48438,1195.824 L96.875,1178.242 L97.26563,1167.253 L97.65625,1206.813 L98.04688,1160.659 L98.4375,1088.132 L98.82813,1085.934 L99.21875,1085.934 L99.60938,1085.934 L100,1182.637 L100.3906,1198.022 L100.7813,1193.626 L101.1719,1162.857 L101.5625,1083.736 L101.9531,1151.868 L102.3438,1081.538 L102.7344,1189.231 L103.125,1173.846 L103.5156,1169.451 L103.9063,1206.813 L104.2969,1074.945 L104.6875,1200.22 L105.0781,1156.264 L105.4688,1072.747 L105.8594,1167.253 L106.25,1195.824 L106.6406,1070.549 L107.0313,1167.253 L107.4219,1068.352 L107.8125,1068.352 L108.2031,1068.352 L108.5938,1189.231 L108.9844,1165.055 L109.375,1187.033 L109.7656,1180.44 L110.1563,1061.758 L110.5469,1209.011 L110.9375,1165.055 L111.3281,1191.429 L111.7188,1189.231 L112.1094,1167.253 L112.5,1200.22 L112.8906,1167.253 L113.2813,1195.824 L113.6719,1209.011 L114.0625,1198.022 L114.4531,1193.626 L114.8438,1151.868 L115.2344,1191.429 L115.625,1189.231 L116.0156,1202.418 L116.4063,1206.813 L116.7969,1165.055 L117.1875,1187.033 L117.5781,1206.813 L117.9688,1187.033 L118.3594,1154.066 L118.75,1167.253 L119.1406,1149.67 L119.5313,1189.231 L119.9219,1180.44 L120.3125,1165.055 L120.7031,1138.681 L121.0938,1198.022 L121.4844,1182.637 L121.875,1158.462 L122.2656,1173.846 L122.6563,1189.231 L123.0469,1178.242 L123.4375,1193.626 L123.8281,1209.011 L124.2188,1162.857 L124.6094,1165.055 L125,1178.242 L125.3906,1176.044 L125.7813,1171.648 L126.1719,1167.253 L126.5625,1209.011 L126.9531,1127.692 L127.3438,1193.626 L127.7344,1176.044 L128.125,1184.835 L128.5156,1173.846 L128.9063,1125.495 L129.2969,1090.33 L129.6875,1193.626 L130.0781,1180.44 L130.4688,1180.44 L130.8594,1193.626 L131.25,1114.505 L131.6406,1180.44 L132.0313,1176.044 L132.4219,1180.44 L132.8125,1187.033 L133.2031,1165.055 L133.5938,1206.813 L133.9844,1195.824 L134.375,1147.473 L134.7656,1112.308 L135.1563,1103.516 L135.5469,1195.824 L135.9375,1178.242 L136.3281,1184.835 L136.7188,1112.308 L137.1094,1110.11 L137.5,1191.429 L137.8906,1191.429 L138.2813,1114.505 L138.6719,1114.505 L139.0625,1121.099 L139.4531,1184.835 L139.8438,1165.055 L140.2344,1184.835 L140.625,1129.89 L141.0156,1099.121 L141.4063,1165.055 L141.7969,1187.033 L142.1875,1211.209 L142.5781,1167.253 L142.9688,1083.736 L143.3594,1127.692 L143.75,1182.637 L144.1406,1156.264 L144.5313,1116.703 L144.9219,1189.231 L145.3125,1169.451 L145.7031,1195.824 L146.0938,1195.824 L146.4844,1180.44 L146.875,1094.725 L147.2656,1088.132 L147.6563,1178.242 L148.0469,1077.143 L148.4375,1118.901 L148.8281,1103.516 L149.2188,1178.242 L149.6094,1134.286 L150,1085.934 L150.3906,1099.121 L150.7813,1149.67 L151.1719,1081.538 L151.5625,1187.033 L151.9531,1103.516 L152.3438,1066.154 L152.7344,1195.824 L153.125,1193.626 L153.5156,1173.846 L153.9063,1195.824 L154.2969,1171.648 L154.6875,1209.011 L155.0781,1182.637 L155.4688,1171.648 L155.8594,1162.857 L156.25,1160.659 L156.6406,1092.527 L157.0313,1092.527 L157.4219,1121.099 L157.8125,1072.747 L158.2031,1191.429 L158.5938,1182.637 L158.9844,1114.505 L159.375,1090.33 L159.7656,1114.505 L160.1563,1079.341 L160.5469,1193.626 L160.9375,1096.923 L161.3281,1162.857 L161.7188,1169.451 L162.1094,1173.846 L162.5,1193.626 L162.8906,1195.824 L163.2813,1191.429 L163.6719,1092.527 L164.0625,1191.429 L164.4531,1096.923 L164.8438,1079.341 L165.2344,1191.429 L165.625,1081.538 L166.0156,1195.824 L166.4063,1211.209 L166.7969,1169.451 L167.1875,1191.429 L167.5781,1136.484 L167.9688,1169.451 L168.3594,1171.648 L168.75,1169.451 L169.1406,1055.165 L169.5313,1180.44 L169.9219,1167.253 L170.3125,1165.055 L170.7031,1211.209 L171.0938,1178.242 L171.4844,1202.418 L171.875,1110.11 L172.2656,1195.824 L172.6563,1063.956 L173.0469,1173.846 L173.4375,1182.637 L173.8281,1169.451 L174.2188,1160.659 L174.6094,1162.857 L175,1162.857 L175.3906,1167.253 L175.7813,1178.242 L176.1719,1182.637 L176.5625,1167.253 L176.9531,1176.044 L177.3438,1200.22 L177.7344,1154.066 L178.125,1158.462 L178.5156,1176.044 L178.9063,1169.451 L179.2969,1202.418 L179.6875,1061.758 L180.0781,1154.066 L180.4688,1180.44 L180.8594,1151.868 L181.25,1160.659 L181.6406,1184.835 L182.0313,1193.626 L182.4219,1187.033 L182.8125,1160.659 L183.2031,1127.692 L183.5938,1167.253 L183.9844,1160.659 L184.375,1134.286 L184.7656,1129.89 L185.1563,1107.912 L185.5469,1178.242 L185.9375,1160.659 L186.3281,1176.044 L186.7188,1211.209 L187.1094,1191.429 L187.5,1099.121 L187.8906,1187.033 L188.2813,1173.846 L188.6719,1123.297 L189.0625,1127.692 L189.4531,1129.89 L189.8438,1134.286 L190.2344,1189.231 L190.625,1162.857 L191.0156,1129.89 L191.4063,1198.022 L191.7969,1114.505 L192.1875,1132.088 L192.5781,1173.846 L192.9688,1123.297 L193.3594,1132.088 L193.75,1123.297 L194.1406,1171.648 L194.5313,1110.11 L194.9219,1125.495 L195.3125,1096.923 L195.7031,1191.429 L196.0938,1191.429 L196.4844,1114.505 L196.875,1202.418 L197.2656,1187.033 L197.6563,1099.121 L198.0469,1114.505 L198.4375,1063.956 L198.8281,1182.637 L199.2188,1176.044 L199.6094,1195.824 L200,1090.33 L200.3906,1162.857 L200.7813,1165.055 L201.1719,1169.451 L201.5625,1180.44 L201.9531,1209.011 L202.3438,1173.846 L202.7344,1184.835 L203.125,1096.923 L203.5156,1110.11 L203.9063,1184.835 L204.2969,1184.835 L204.6875,1136.484 L205.0781,1206.813 L205.4688,1206.813 L205.8594,1171.648 L206.25,1114.505 L206.6406,1182.637 L207.0313,1182.637 L207.4219,1077.143 L207.8125,1099.121 L208.2031,1184.835 L208.5938,1158.462 L208.9844,1193.626 L209.375,1167.253 L209.7656,1182.637 L210.1563,1187.033 L210.5469,1114.505 L210.9375,1125.495 L211.3281,1211.209 L211.7188,1116.703 L212.1094,1200.22 L212.5,1176.044 L212.8906,1173.846 L213.2813,1184.835 L213.6719,1134.286 L214.0625,1162.857 L214.4531,1213.407 L214.8438,1083.736 L215.2344,1162.857 L215.625,1180.44 L216.0156,1165.055 L216.4063,1156.264 L216.7969,1092.527 L217.1875,1160.659 L217.5781,1206.813 L217.9688,1096.923 L218.3594,1200.22 L218.75,1134.286 L219.1406,1083.736 L219.5313,1088.132 L219.9219,1195.824 L220.3125,1079.341 L220.7031,1138.681 L221.0938,1165.055 L221.4844,1182.637 L221.875,1083.736 L222.2656,1171.648 L222.6563,1182.637 L223.0469,1195.824 L223.4375,1206.813 L223.8281,1202.418 L224.2188,1189.231 L224.6094,1180.44 L225,1209.011 L225.3906,1198.022 L225.7813,1184.835 L226.1719,1180.44 L226.5625,1094.725 L226.9531,1182.637 L227.3438,1184.835 L227.7344,1184.835 L228.125,1107.912 L228.5156,1094.725 L228.9063,1182.637 L229.2969,1193.626 L229.6875,1171.648 L230.0781,1184.835 L230.4688,1173.846 L230.8594,1180.44 L231.25,1070.549 L231.6406,1116.703 L232.0313,1178.242 L232.4219,1167.253 L232.8125,1160.659 L233.2031,1184.835 L233.5938,1169.451 L233.9844,1191.429 L234.375,1118.901 L234.7656,1055.165 L235.1563,1162.857 L235.5469,1112.308 L235.9375,1167.253 L236.3281,1158.462 L236.7188,1140.879 L237.1094,1173.846 L237.5,1173.846 L237.8906,1198.022 L238.2813,1176.044 L238.6719,1154.066 L239.0625,1169.451 L239.4531,1195.824 L239.8438,1138.681 L240.2344,1202.418 L240.625,1169.451 L241.0156,1129.89 L241.4063,1193.626 L241.7969,1169.451 L242.1875,1213.407 L242.5781,1193.626 L242.9688,1114.505 L243.3594,1092.527 L243.75,1187.033 L244.1406,1193.626 L244.5313,1160.659 L244.9219,1143.077 L245.3125,1116.703 L245.7031,1198.022 L246.0938,1184.835 L246.4844,1169.451 L246.875,1096.923 L247.2656,1121.099 L247.6563,1088.132 L248.0469,1103.516 L248.4375,1160.659 L248.8281,1184.835 L249.2188,1096.923 L249.6094,1182.637 L250,1189.231 L250.3906,1107.912 L250.7813,1180.44 L251.1719,1167.253 L251.5625,1176.044 L251.9531,1118.901 L252.3438,1105.714 L252.7344,1165.055 L253.125,1187.033 L253.5156,1213.407 L253.9063,1189.231 L254.2969,1138.681 L254.6875,1204.615 L255.0781,1182.637 L255.4688,1099.121 L255.8594,1107.912 L256.25,1206.813 L256.6406,1189.231 L257.0313,1182.637 L257.4219,1176.044 L257.8125,1195.824 L258.2031,1074.945 L258.5938,1165.055 L258.9844,1182.637 L259.375,1143.077 L259.7656,1081.538 L260.1563,1180.44 L260.5469,1187.033 L260.9375,1209.011 L261.3281,1162.857 L261.7188,1154.066 L262.1094,1105.714 L262.5,1101.319 L262.8906,1134.286 L263.2813,1167.253 L263.6719,1182.637 L264.0625,1158.462 L264.4531,1182.637 L264.8438,1092.527 L265.2344,1176.044 L265.625,1083.736 L266.0156,1189.231 L266.4063,1173.846 L266.7969,1200.22 L267.1875,1169.451 L267.5781,1176.044 L267.9688,1103.516 L268.3594,1171.648 L268.75,1114.505 L269.1406,1169.451 L269.5313,1213.407 L269.9219,1068.352 L270.3125,1169.451 L270.7031,1211.209 L271.0938,1193.626 L271.4844,1176.044 L271.875,1090.33 L272.2656,1085.934 L272.6563,1074.945 L273.0469,1171.648 L273.4375,1195.824 L273.8281,1066.154 L274.2188,1178.242 L274.6094,1182.637 L275,1114.505 L275.3906,1132.088 L275.7813,1167.253 L276.1719,1173.846 L276.5625,1182.637 L276.9531,1200.22 L277.3438,1066.154 L277.7344,1211.209 L278.125,1165.055 L278.5156,1189.231 L278.9063,1063.956 L279.2969,1184.835 L279.6875,1167.253 L280.0781,1154.066 L280.4688,1184.835 L280.8594,1165.055 L281.25,1169.451 L281.6406,1077.143 L282.0313,1184.835 L282.4219,1206.813 L282.8125,1173.846 L283.2031,1182.637 L283.5938,1182.637 L283.9844,1125.495 L284.375,1169.451 L284.7656,1202.418 L285.1563,1189.231 L285.5469,1132.088 L285.9375,1079.341 L286.3281,1211.209 L286.7188,1213.407 L287.1094,1182.637 L287.5,1094.725 L287.8906,1169.451 L288.2813,1184.835 L288.6719,1180.44 L289.0625,1193.626 L289.4531,1070.549 L289.8438,1211.209 L290.2344,1145.275 L290.625,1180.44 L291.0156,1154.066 L291.4063,1178.242 L291.7969,1176.044 L292.1875,1182.637 L292.5781,1173.846 L292.9688,1211.209 L293.3594,1105.714 L293.75,1182.637 L294.1406,1083.736 L294.5313,1101.319 L294.9219,1211.209 L295.3125,1085.934 L295.7031,1206.813 L296.0938,1193.626 L296.4844,1145.275 L296.875,1132.088 L297.2656,1173.846 L297.6563,1178.242 L298.0469,1116.703 L298.4375,1182.637 L298.8281,1151.868 L299.2188,1162.857 L299.6094,1077.143 L300,1169.451 L300.3906,1182.637 L300.7813,1158.462 L301.1719,1209.011 L301.5625,1118.901 L301.9531,1167.253 L302.3438,1154.066 L302.7344,1209.011 L303.125,1211.209 L303.5156,1110.11 L303.9063,1180.44 L304.2969,1156.264 L304.6875,1092.527 L305.0781,1140.879 L305.4688,1160.659 L305.8594,1176.044 L306.25,1204.615 L306.6407,1077.143 L307.0313,1193.626 L307.4219,1099.121 L307.8125,1182.637 L308.2031,1195.824 L308.5938,1114.505 L308.9844,1180.44 L309.375,1094.725 L309.7656,1173.846 L310.1563,1173.846 L310.5469,1085.934 L310.9375,1092.527 L311.3281,1094.725 L311.7188,1156.264 L312.1094,1074.945 L312.5,1127.692 L312.8906,1184.835 L313.2813,1116.703 L313.6719,1154.066 L314.0625,1187.033 L314.4532,1169.451 L314.8438,1167.253 L315.2344,1112.308 L315.625,1198.022 L316.0156,1169.451 L316.4063,1169.451 L316.7969,1162.857 L317.1875,1184.835 L317.5781,1211.209 L317.9688,1171.648 L318.3594,1123.297 L318.75,1189.231 L319.1406,1176.044 L319.5313,1158.462 L319.9219,1178.242 L320.3125,1090.33 L320.7031,1180.44 L321.0938,1182.637 L321.4844,1169.451 L321.875,1156.264 L322.2657,1184.835 L322.6563,1154.066 L323.0469,1121.099 L323.4375,1169.451 L323.8281,1169.451 L324.2188,1178.242 L324.6094,1193.626 L325,1187.033 L325.3906,1195.824 L325.7813,1101.319 L326.1719,1107.912 L326.5625,1202.418 L326.9531,1088.132 L327.3438,1191.429 L327.7344,1178.242 L328.125,1107.912 L328.5156,1204.615 L328.9063,1184.835 L329.2969,1193.626 L329.6875,1132.088 L330.0782,1085.934 L330.4688,1081.538 L330.8594,1162.857 L331.25,1178.242 L331.6406,1182.637 L332.0313,1173.846 L332.4219,1088.132 L332.8125,1206.813 L333.2031,1099.121 L333.5938,1129.89 L333.9844,1204.615 L334.375,1206.813 L334.7656,1171.648 L335.1563,1182.637 L335.5469,1101.319 L335.9375,1156.264 L336.3281,1180.44 L336.7188,1169.451 L337.1094,1176.044 L337.5,1198.022 L337.8907,1202.418 L338.2813,1187.033 L338.6719,1171.648 L339.0625,1083.736 L339.4531,1184.835 L339.8438,1189.231 L340.2344,1184.835 L340.625,1173.846 L341.0156,1182.637 L341.4063,1096.923 L341.7969,1077.143 L342.1875,1178.242 L342.5781,1182.637 L342.9688,1156.264 L343.3594,1213.407 L343.75,1143.077 L344.1406,1096.923 L344.5313,1182.637 L344.9219,1114.505 L345.3125,1085.934 L345.7032,1206.813 L346.0938,1123.297 L346.4844,1193.626 L346.875,1123.297 L347.2656,1191.429 L347.6563,1189.231 L348.0469,1178.242 L348.4375,1114.505 L348.8281,1195.824 L349.2188,1173.846 L349.6094,1184.835 L350,1176.044 L350.3906,1171.648 L350.7813,1167.253 L351.1719,1169.451 L351.5625,1178.242 L351.9531,1160.659 L352.3438,1105.714 L352.7344,1154.066 L353.125,1182.637 L353.5157,1070.549 L353.9063,1118.901 L354.2969,1149.67 L354.6875,1193.626 L355.0781,1090.33 L355.4688,1088.132 L355.8594,1112.308 L356.25,1193.626 L356.6406,1158.462 L357.0313,1178.242 L357.4219,1156.264 L357.8125,1176.044 L358.2031,1158.462 L358.5938,1165.055 L358.9844,1114.505 L359.375,1191.429 L359.7656,1176.044 L360.1563,1176.044 L360.5469,1187.033 L360.9375,1079.341 L361.3282,1182.637 L361.7188,1182.637 L362.1094,1070.549 L362.5,1193.626 L362.8906,1171.648 L363.2813,1103.516 L363.6719,1165.055 L364.0625,1160.659 L364.4531,1099.121 L364.8438,1105.714 L365.2344,1173.846 L365.625,1149.67 L366.0156,1103.516 L366.4063,1193.626 L366.7969,1156.264 L367.1875,1132.088 L367.5781,1198.022 L367.9688,1204.615 L368.3594,1158.462 L368.75,1136.484 L369.1407,1154.066 L369.5313,1169.451 L369.9219,1160.659 L370.3125,1165.055 L370.7031,1099.121 L371.0938,1189.231 L371.4844,1151.868 L371.875,1167.253 L372.2656,1101.319 L372.6563,1184.835 L373.0469,1178.242 L373.4375,1184.835 L373.8281,1112.308 L374.2188,1204.615 L374.6094,1072.747 L375,1081.538 L375.3906,1129.89 L375.7813,1134.286 L376.1719,1072.747 L376.5625,1077.143 L376.9532,1220 L377.3438,1193.626 L377.7344,1125.495 L378.125,1189.231 L378.5156,1096.923 L378.9063,1129.89 L379.2969,1165.055 L379.6875,1176.044 L380.0781,1116.703 L380.4688,1184.835 L380.8594,1195.824 L381.25,1171.648 L381.6406,1191.429 L382.0313,1200.22 L382.4219,1211.209 L382.8125,1176.044 L383.2031,1198.022 L383.5938,1176.044 L383.9844,1206.813 L384.375,1209.011 L384.7657,1180.44 L385.1563,1123.297 L385.5469,1090.33 L385.9375,1184.835 L386.3281,1211.209 L386.7188,1184.835 L387.1094,1173.846 L387.5,1178.242 L387.8906,1209.011 L388.2813,1176.044 L388.6719,1118.901 L389.0625,1187.033 L389.4531,1147.473 L389.8438,1193.626 L390.2344,1114.505 L390.625,1191.429 L391.0156,1206.813 L391.4063,1020 L391.7969,1211.209 L392.1875,1167.253 L392.5782,1211.209 L392.9688,1107.912 L393.3594,1114.505 L393.75,1072.747 L394.1406,1182.637 L394.5313,1176.044 L394.9219,1162.857 L395.3125,1173.846 L395.7031,1143.077 L396.0938,1195.824 L396.4844,1193.626 L396.875,1193.626 L397.2656,1143.077 L397.6563,1182.637 L398.0469,1173.846 L398.4375,1176.044 L398.8281,1206.813 L399.2188,1088.132 L399.6094,1134.286 L400,1074.945 L400.3907,1156.264 L400.7813,1057.363 L401.1719,1066.154 L401.5625,1211.209 L401.9531,1171.648 L402.3438,1147.473 L402.7344,1156.264 L403.125,1070.549 L403.5156,1191.429 L403.9063,1200.22 L404.2969,1187.033 L404.6875,1180.44 L405.0781,1213.407 L405.4688,1094.725 L405.8594,1160.659 L406.25,1154.066 L406.6406,1116.703 L407.0313,1202.418 L407.4219,1156.264 L407.8125,1156.264 L408.2032,1187.033 L408.5938,1195.824 L408.9844,1074.945 L409.375,1127.692 L409.7656,1187.033 L410.1563,1178.242 L410.5469,1169.451 L410.9375,1083.736 L411.3281,1171.648 L411.7188,1169.451 L412.1094,1184.835 L412.5,1083.736 L412.8906,1176.044 L413.2813,1211.209 L413.6719,1162.857 L414.0625,1129.89 L414.4531,1193.626 L414.8438,1180.44 L415.2344,1059.56 L415.625,1191.429 L416.0157,1173.846 L416.4063,1094.725 L416.7969,1090.33 L417.1875,1211.209 L417.5781,1182.637 L417.9688,1173.846 L418.3594,1176.044 L418.75,1121.099 L419.1406,1134.286 L419.5313,1211.209 L419.9219,1191.429 L420.3125,1178.242 L420.7031,1211.209 L421.0938,1121.099 L421.4844,1189.231 L421.875,1134.286 L422.2656,1149.67 L422.6563,1195.824 L423.0469,1156.264 L423.4375,1099.121 L423.8282,1182.637 L424.2188,1176.044 L424.6094,1079.341 L425,1103.516 L425.3906,1169.451 L425.7813,1083.736 L426.1719,1116.703 L426.5625,1165.055 L426.9531,1092.527 L427.3438,1162.857 L427.7344,1176.044 L428.125,1167.253 L428.5156,1173.846 L428.9063,1094.725 L429.2969,1103.516 L429.6875,1202.418 L430.0781,1178.242 L430.4688,1110.11 L430.8594,1204.615 L431.25,1167.253 L431.6407,1176.044 L432.0313,1180.44 L432.4219,1211.209 L432.8125,1101.319 L433.2031,1147.473 L433.5938,1134.286 L433.9844,1101.319 L434.375,1193.626 L434.7656,1182.637 L435.1563,1189.231 L435.5469,1145.275 L435.9375,1204.615 L436.3281,1202.418 L436.7188,1191.429 L437.1094,1132.088 L437.5,1066.154 L437.8906,1176.044 L438.2813,1110.11 L438.6719,1184.835 L439.0625,1088.132 L439.4532,1198.022 L439.8438,1182.637 L440.2344,1171.648 L440.625,1147.473 L441.0156,1206.813 L441.4063,1088.132 L441.7969,1140.879 L442.1875,1149.67 L442.5781,1116.703 L442.9688,1182.637 L443.3594,1162.857 L443.75,1211.209 L444.1406,1125.495 L444.5313,1072.747 L444.9219,1158.462 L445.3125,1127.692 L445.7031,1145.275 L446.0938,1182.637 L446.4844,1145.275 L446.875,1178.242 L447.2657,1182.637 L447.6563,1211.209 L448.0469,1211.209 L448.4375,1178.242 L448.8281,1211.209 L449.2188,1112.308 L449.6094,1112.308 L450,1123.297 L450.3906,1140.879 L450.7813,1143.077 L451.1719,1178.242 L451.5625,1125.495 L451.9531,1165.055 L452.3438,1063.956 L452.7344,1189.231 L453.125,1200.22 L453.5156,1165.055 L453.9063,1187.033 L454.2969,1167.253 L454.6875,1158.462 L455.0782,1195.824 L455.4688,1143.077 L455.8594,1162.857 L456.25,1178.242 L456.6406,1092.527 L457.0313,1182.637 L457.4219,1176.044 L457.8125,1191.429 L458.2031,1211.209 L458.5938,1110.11 L458.9844,1171.648 L459.375,1198.022 L459.7656,1134.286 L460.1563,1167.253 L460.5469,1193.626 L460.9375,1127.692 L461.3281,1090.33 L461.7188,1169.451 L462.1094,1173.846 L462.5,1176.044 L462.8907,1107.912 L463.2813,1182.637 L463.6719,1085.934 L464.0625,1154.066 L464.4531,1180.44 L464.8438,1125.495 L465.2344,1107.912 L465.625,1121.099 L466.0156,1191.429 L466.4063,1182.637 L466.7969,1147.473 L467.1875,1187.033 L467.5781,1077.143 L467.9688,1178.242 L468.3594,1180.44 L468.75,1176.044 L469.1406,1198.022 L469.5313,1173.846 L469.9219,1171.648 L470.3125,1129.89 L470.7032,1180.44 L471.0938,1180.44 L471.4844,1127.692 L471.875,1193.626 L472.2656,1178.242 L472.6563,1182.637 L473.0469,1088.132 L473.4375,1156.264 L473.8281,1171.648 L474.2188,1107.912 L474.6094,1107.912 L475,1191.429 L475.3906,1147.473 L475.7813,1101.319 L476.1719,1176.044 L476.5625,1165.055 L476.9531,1156.264 L477.3438,1169.451 L477.7344,1178.242 L478.125,1156.264 L478.5157,1184.835 L478.9063,1187.033 L479.2969,1209.011 L479.6875,1046.374 L480.0781,1094.725 L480.4688,1114.505 L480.8594,1103.516 L481.25,1189.231 L481.6406,1211.209 L482.0313,1145.275 L482.4219,1187.033 L482.8125,1068.352 L483.2031,1160.659 L483.5938,1154.066 L483.9844,1107.912 L484.375,1167.253 L484.7656,1169.451 L485.1563,1193.626 L485.5469,1182.637 L485.9375,1167.253 " stroke="blue" fill="none" />
<text x="50" y="1270" font-family="Arial" font-size="12" fill="black">Policy Loss</text>
<text x="50" y="1285" font-family="Arial" font-size="10" fill="black">0.7227783</text>
<text x="50" y="1500" font-family="Arial" font-size="10" fill="black">0.7227783</text>
<path d="M50,1490 " stroke="blue" fill="none" />
<text x="50" y="1540" font-family="Arial" font-size="12" fill="black">Value Loss</text>
<text x="50" y="1555" font-family="Arial" font-size="10" fill="black">0.3594708</text>
<text x="50" y="1770" font-family="Arial" font-size="10" fill="black">0.3594708</text>
<path d="M50,1760 " stroke="blue" fill="none" />
<text x="50" y="1810" font-family="Arial" font-size="12" fill="black">Learning Rate</text>
<text x="50" y="1825" font-family="Arial" font-size="10" fill="black">9.99985E-05</text>
<text x="50" y="2040" font-family="Arial" font-size="10" fill="black">9.99985E-05</text>
<path d="M50,2030 " stroke="blue" fill="none" />
<text x="50" y="2080" font-family="Arial" font-size="12" fill="black">Entropy</text>
<text x="50" y="2095" font-family="Arial" font-size="10" fill="black">1.5</text>
<text x="50" y="2310" font-family="Arial" font-size="10" fill="black">1.5</text>
<path d="M50,2300 " stroke="blue" fill="none" />
<text x="750" y="730" font-family="Arial" font-size="12" fill="black">Simplified</text>
<text x="750" y="745" font-family="Arial" font-size="10" fill="black">6.956707</text>
<text x="750" y="960" font-family="Arial" font-size="10" fill="black">2.688948</text>
<path d="M757.0313,950 L764.4531,890.2806 L771.875,886.7042 L779.2969,836.6656 L786.7188,781.0776 L794.1406,750 L801.5625,775.7747 L808.9844,780.2143 L816.4063,902.8904 L823.8281,883.2511 L831.25,840.8586 L838.6719,831.8252 L846.0938,836.5424 L853.5156,754.9329 L860.9375,797.2947 L868.3594,829.6053 L875.7813,851.6804 L883.2031,869.0073 L890.625,819.277 L898.0469,780.5226 L905.4688,838.4539 L912.8906,821.5585 L920.3125,803.43 L927.7344,876.3142 L935.1563,807.068 L942.5781,861.5154 L950,793.5949 L957.4219,853.4994 L964.8438,799.6069 L972.2656,796.9555 L979.6875,816.009 L987.1094,855.9658 L994.5313,832.1027 L1001.953,835.1858 L1009.375,805.5573 L1016.797,788.4769 L1024.219,864.0743 L1031.641,813.3267 L1039.063,838.5771 L1046.484,813.4192 L1053.906,830.0062 L1061.328,811.631 L1068.75,795.8764 L1076.172,796.308 L1083.594,859.7888 L1091.016,859.8505 L1098.438,826.2448 L1105.859,799.5453 L1113.281,833.4285 L1120.703,846.9016 L1128.125,787.7679 L1135.547,832.3493 L1142.969,820.4486 L1150.391,834.7541 L1157.813,846.8707 L1165.234,799.6995 L1172.656,844.4659 L1180.078,801.1484 L1185.938,810.1819 " stroke="blue" fill="none" />
<text x="750" y="1000" font-family="Arial" font-size="12" fill="black">Simplified</text>
<text x="750" y="1015" font-family="Arial" font-size="10" fill="black">51.47368</text>
<text x="750" y="1230" font-family="Arial" font-size="10" fill="black">18.52632</text>
<path d="M757.0313,1220 L764.4531,1150.351 L771.875,1135.974 L779.2969,1115.208 L786.7188,1051.31 L794.1406,1023.514 L801.5625,1046.837 L808.9844,1041.406 L816.4063,1160.575 L823.8281,1148.434 L831.25,1118.083 L838.6719,1101.15 L846.0938,1098.914 L853.5156,1020 L860.9375,1050.032 L868.3594,1103.706 L875.7813,1102.428 L883.2031,1115.847 L890.625,1086.134 L898.0469,1055.144 L905.4688,1105.943 L912.8906,1096.997 L920.3125,1062.492 L927.7344,1140.447 L935.1563,1074.633 L942.5781,1127.668 L950,1062.812 L957.4219,1108.498 L964.8438,1073.994 L972.2656,1084.856 L979.6875,1077.828 L987.1094,1121.278 L994.5313,1091.246 L1001.953,1097.636 L1009.375,1084.537 L1016.797,1060.895 L1024.219,1115.847 L1031.641,1088.371 L1039.063,1107.22 L1046.484,1089.329 L1053.906,1095.08 L1061.328,1083.578 L1068.75,1073.674 L1076.172,1052.588 L1083.594,1122.556 L1091.016,1135.974 L1098.438,1094.441 L1105.859,1060.575 L1113.281,1092.204 L1120.703,1104.026 L1128.125,1053.546 L1135.547,1093.802 L1142.969,1085.495 L1150.391,1093.163 L1157.813,1103.706 L1165.234,1074.952 L1172.656,1117.125 L1180.078,1064.409 L1185.938,1085.602 " stroke="blue" fill="none" />
</svg>
