<svg width="2000" height="2500" xmlns="http://www.w3.org/2000/svg">
<text x="10" y="20" font-family="Arial" font-size="26" fill="black"> [<tspan font-weight="bold" fill="blue">RobotScript</tspan>] Training Session</text>
<text x="10" y="50" font-family="Arial" font-size="16" fill="black">[Statistics]</text>
<text x="50" y="70" font-family="Arial" font-size="12" fill="black">Started at: 12:15:46 PM, Saturday, April 27, 2024</text>
<text x="50" y="90" font-family="Arial" font-size="12" fill="black">Finished at: 12:16:13 PM, Saturday, April 27, 2024</text>
<text x="50" y="110" font-family="Arial" font-size="12" fill="black">Training Session Time: 0 hrs : 0 min : 26 sec</text>
<text x="50" y="130" font-family="Arial" font-size="12" fill="black">Inference Time: 0 hrs : 14 min : 53 sec        [Device: CPU]</text>
<text x="50" y="150" font-family="Arial" font-size="12" fill="black">Update Time: 0 hrs : 0 min : 11 sec        [Per iteration: 0 hrs : 0 min : 10.542 sec]        [Device: GPU]</text>
<text x="50" y="170" font-family="Arial" font-size="12" fill="black">Episode Count: 488</text>
<text x="50" y="190" font-family="Arial" font-size="12" fill="black">Inference Steps: 10240</text>
<text x="50" y="210" font-family="Arial" font-size="12" fill="black">Iterations: 1</text>
<text x="50" y="230" font-family="Arial" font-size="12" fill="black">Parallel Agents: 64</text>
<text x="50" y="250" font-family="Arial" font-size="12" fill="black">Timescale: 1</text>
<text x="50" y="270" font-family="Arial" font-size="12" fill="black">Trainer: PPO</text>
<text x="10" y="320" font-family="Arial" font-size="16" fill="black">[Hyperparameters]</text>
<text x="50" y="340" font-family="Arial" font-size="12" fill="black">Buffer Size: 10240        [Batch Size: 512       (x20)]</text>
<text x="50" y="360" font-family="Arial" font-size="12" fill="black">Num Epoch: 8</text>
<text x="50" y="380" font-family="Arial" font-size="12" fill="black">Time Horizon: 256</text>
<text x="50" y="400" font-family="Arial" font-size="12" fill="black">Gradient Cliping by Norm: 0.5</text>
<text x="50" y="420" font-family="Arial" font-size="12" fill="black">Learning Rate Schedule: True    </text>
<text x="10" y="470" font-family="Arial" font-size="16" fill="black">[Behaviour]</text>
<text x="50" y="490" font-family="Arial" font-size="12" fill="black">Space Size: 86</text>
<text x="50" y="510" font-family="Arial" font-size="12" fill="black">Continuous Actions: 26 [Standard Deviation: Fixed]     [Value: 3]</text>
<text x="50" y="530" font-family="Arial" font-size="12" fill="black">Discrete Actions: 0</text>
<text x="50" y="550" font-family="Arial" font-size="12" fill="black">TargetFPS: 60 (physics update rate)</text>
<text x="50" y="570" font-family="Arial" font-size="12" fill="black">Observations Normalization: True</text>
<text x="10" y="620" font-family="Arial" font-size="16" fill="black">[Decision Requester]</text>
<text x="50" y="640" font-family="Arial" font-size="12" fill="black">Max Step: 10000</text>
<text x="50" y="660" font-family="Arial" font-size="12" fill="black">Decision Period: 5      [Actions Between Decisions: True]</text>
<text x="10" y="710" font-family="Arial" font-size="16" fill="black">[Graphs]</text>
<text x="50" y="730" font-family="Arial" font-size="12" fill="black">Episode Reward (488)</text>
<text x="50" y="745" font-family="Arial" font-size="10" fill="black">0.03415138</text>
<text x="50" y="960" font-family="Arial" font-size="10" fill="black">0.001756973</text>
<path d="M50,921.468 L50.78125,914.4009 L51.5625,903.7207 L52.34375,891.4739 L53.125,885.7068 L53.90625,881.7294 L54.6875,896.9152 L55.46875,880.5815 L56.25,886.1093 L57.03125,884.7506 L57.8125,886.5431 L58.59375,894.7242 L59.375,889.4409 L60.15625,893.2355 L60.9375,891.8024 L61.71875,884.443 L62.5,882.2393 L63.28125,885.9668 L64.0625,907.4067 L64.84375,883.0014 L65.625,881.9009 L66.40625,891.0514 L67.1875,889.4046 L67.96875,879.168 L68.75,885.6729 L69.53125,883.0148 L70.3125,896.7515 L71.09375,865.1265 L71.875,887.741 L72.65625,890.1147 L73.4375,884.3046 L74.21875,877.5768 L75,910.1272 L75.78125,893.1015 L76.5625,857.2393 L77.34375,908.6714 L78.125,879.6098 L78.90625,869.0952 L79.6875,851.8502 L80.46875,844.1934 L81.25,890.0231 L82.03125,887.6357 L82.8125,880.3398 L83.59375,858.829 L84.375,876.4901 L85.15625,847.301 L85.9375,860.6962 L86.71875,904.8 L87.5,861.2419 L88.28125,861.2878 L89.0625,867.3161 L89.84375,910.1969 L90.625,881.249 L91.40625,850.7289 L92.1875,880.5848 L92.96875,915.1543 L93.75,836.0773 L94.53125,890.6414 L95.3125,923.8639 L96.09375,898.1927 L96.875,870.1194 L97.65625,883.1385 L98.4375,849.0323 L99.21875,873.8516 L100,901.1178 L100.7813,870.0309 L101.5625,881.4428 L102.3438,866.151 L103.125,914.9308 L103.9063,857.4188 L104.6875,855.3406 L105.4688,870.3785 L106.25,872.9529 L107.0313,869.1083 L107.8125,869.6178 L108.5938,870.8778 L109.375,872.2278 L110.1563,840.1487 L110.9375,845.3776 L111.7188,867.7388 L112.5,886.1606 L113.2813,860.452 L114.0625,826.0969 L114.8438,845.9421 L115.625,830.3611 L116.4063,808.3877 L117.1875,842.574 L117.9688,845.062 L118.75,867.7115 L119.5313,838.2509 L120.3125,841.0839 L121.0938,840.898 L121.875,888.1675 L122.6563,812.799 L123.4375,824.4077 L124.2188,914.6611 L125,913.6415 L125.7813,870.3024 L126.5625,885.9583 L127.3438,873.1649 L128.125,848.3893 L128.9063,857.8265 L129.6875,907.2153 L130.4688,860.9949 L131.25,858.8163 L132.0313,859.9445 L132.8125,861.5446 L133.5938,829.9428 L134.375,845.7311 L135.1563,854.8649 L135.9375,848.0735 L136.7188,882.0062 L137.5,891.5109 L138.2813,850.753 L139.0625,887.6661 L139.8438,795.18 L140.625,854.0154 L141.4063,880.8085 L142.1875,829.4211 L142.9688,888.513 L143.75,846.72 L144.5313,890.3528 L145.3125,894.6538 L146.0938,914.6602 L146.875,830.5992 L147.6563,872.4807 L148.4375,878.7391 L149.2188,878.7687 L150,890.6058 L150.7813,814.7664 L151.5625,915.4086 L152.3438,890.9209 L153.125,885.2859 L153.9063,868.7958 L154.6875,889.7579 L155.4688,876.9324 L156.25,883.6564 L157.0313,835.6447 L157.8125,902.3446 L158.5938,838.4395 L159.375,866.5344 L160.1563,890.4736 L160.9375,878.5471 L161.7188,844.6913 L162.5,882.821 L163.2813,890.8029 L164.0625,863.3632 L164.8438,883.5987 L165.625,850.7982 L166.4063,891.3024 L167.1875,843.0794 L167.9688,896.7064 L168.75,916.1462 L169.5313,865.0092 L170.3125,871.9668 L171.0938,809.8608 L171.875,911.8189 L172.6563,871.5109 L173.4375,900.5295 L174.2188,841.1965 L175,869.2289 L175.7813,885.7448 L176.5625,853.9207 L177.3438,832.237 L178.125,838.6267 L178.9063,875.7278 L179.6875,856.0161 L180.4688,854.8314 L181.25,882.4114 L182.0313,846.0829 L182.8125,856.6423 L183.5938,891.2162 L184.375,892.2221 L185.1563,879.7332 L185.9375,838.0884 L186.7188,855.3095 L187.5,854.5352 L188.2813,794.009 L189.0625,860.2429 L189.8438,880.9329 L190.625,888.6093 L191.4063,838.5005 L192.1875,831.3121 L192.9688,836.8437 L193.75,876.9202 L194.5313,866.3573 L195.3125,812.1051 L196.0938,877.2228 L196.875,876.0737 L197.6563,871.2433 L198.4375,926.0271 L199.2188,769.4779 L200,867.3286 L200.7813,873.5622 L201.5625,871.9567 L202.3438,879.6898 L203.125,782.6545 L203.9063,868.6976 L204.6875,818.6774 L205.4688,860.7942 L206.25,883.3516 L207.0313,844.8583 L207.8125,881.6213 L208.5938,825.4414 L209.375,837.1505 L210.1563,897.5111 L210.9375,833.8458 L211.7188,889.3552 L212.5,875.6656 L213.2813,901.0732 L214.0625,916.3929 L214.8438,906.5928 L215.625,846.6637 L216.4063,869.3486 L217.1875,839.9843 L217.9688,843.5641 L218.75,845.6847 L219.5313,852.1701 L220.3125,864.188 L221.0938,825.3177 L221.875,857.5832 L222.6563,915.8961 L223.4375,869.8257 L224.2188,899.1917 L225,835.0481 L225.7813,862.4329 L226.5625,917.3151 L227.3438,884.4193 L228.125,883.351 L228.9063,840.4308 L229.6875,919.9805 L230.4688,836.7942 L231.25,815.6145 L232.0313,823.1543 L232.8125,891.3538 L233.5938,829.2982 L234.375,861.8905 L235.1563,858.1091 L235.9375,824.7042 L236.7188,835.3312 L237.5,880.7827 L238.2813,891.4993 L239.0625,828.3891 L239.8438,866.0026 L240.625,855.2407 L241.4063,853.0146 L242.1875,850.1889 L242.9688,893.7148 L243.75,872.7082 L244.5313,829.0771 L245.3125,821.0615 L246.0938,815.6512 L246.875,905.0664 L247.6563,875.2553 L248.4375,888.5836 L249.2188,879.9513 L250,881.2586 L250.7813,905.9861 L251.5625,825.4183 L252.3438,816.8304 L253.125,844.7968 L253.9063,816.3531 L254.6875,844.6324 L255.4688,859.1465 L256.25,897.0893 L257.0313,831.9977 L257.8125,835.115 L258.5938,834.6249 L259.375,866.8335 L260.1563,867.4847 L260.9375,873.1633 L261.7188,863.001 L262.5,875.1788 L263.2813,892.1206 L264.0625,825.0057 L264.8438,866.2247 L265.625,912.2014 L266.4063,872.0784 L267.1875,893.0784 L267.9688,831.2725 L268.75,834.7584 L269.5313,867.208 L270.3125,830.0036 L271.0938,879.5038 L271.875,774.6944 L272.6563,881.2982 L273.4375,844.1098 L274.2188,903.1646 L275,898.9828 L275.7813,863.2676 L276.5625,864.8017 L277.3438,853.6635 L278.125,918.6793 L278.9063,892.5601 L279.6875,882.0874 L280.4688,839.9852 L281.25,836.5613 L282.0313,856.0688 L282.8125,872.1176 L283.5938,847.3239 L284.375,837.1936 L285.1563,869.3898 L285.9375,831.6063 L286.7188,893.175 L287.5,872.3844 L288.2813,873.4385 L289.0625,750.0001 L289.8438,873.4211 L290.625,878.9925 L291.4063,861.9412 L292.1875,885.2621 L292.9688,870.2586 L293.75,872.3877 L294.5313,847.3361 L295.3125,902.0909 L296.0938,893.2956 L296.875,927.3401 L297.6563,811.8627 L298.4375,871.305 L299.2188,881.1239 L300,880.2031 L300.7813,860.0361 L301.5625,841.326 L302.3438,855.9334 L303.125,905.0109 L303.9063,870.3015 L304.6875,779.4 L305.4688,876.5905 L306.25,863.3514 L307.0313,895.797 L307.8125,881.5002 L308.5938,870.8312 L309.375,914.1161 L310.1563,798.1654 L310.9375,886.6119 L311.7188,910.4944 L312.5,918.9418 L313.2813,874.0415 L314.0625,851.1096 L314.8438,849.5153 L315.625,875.1018 L316.4063,839.4101 L317.1875,851.0792 L317.9688,837.8795 L318.75,868.9755 L319.5313,796.3503 L320.3125,911.4951 L321.0938,833.9452 L321.875,835.9904 L322.6563,817.7824 L323.4375,843.334 L324.2188,832.5718 L325,893.3585 L325.7813,870.476 L326.5625,823.4732 L327.3438,883.3528 L328.125,853.582 L328.9063,891.3686 L329.6875,832.8929 L330.4688,861.2099 L331.25,870.0466 L332.0313,831.8354 L332.8125,881.1178 L333.5938,847.2242 L334.375,890.1348 L335.1563,842.0082 L335.9375,829.6854 L336.7188,850.9009 L337.5,883.7711 L338.2813,850.3839 L339.0625,834.5483 L339.8438,902.1331 L340.625,837.4181 L341.4063,881.85 L342.1875,880.7534 L342.9688,914.605 L343.75,870.3863 L344.5313,817.7756 L345.3125,832.1689 L346.0938,909.2574 L346.875,849.8698 L347.6563,909.8417 L348.4375,809.8571 L349.2188,864.7789 L350,850.9897 L350.7813,855.4593 L351.5625,875.0518 L352.3438,753.3536 L353.125,858.7897 L353.9063,852.0526 L354.6875,892.0476 L355.4688,881.6647 L356.25,853.8813 L357.0313,888.6423 L357.8125,866.821 L358.5938,839.4056 L359.375,890.3985 L360.1563,886.6868 L360.9375,893.3201 L361.7188,822.7485 L362.5,855.9746 L363.2813,783.5448 L364.0625,903.371 L364.8438,873.1685 L365.625,820.5262 L366.4063,885.3267 L367.1875,828.3401 L367.9688,872.0964 L368.75,900.6691 L369.5313,873.0333 L370.3125,843.7719 L371.0938,859.4581 L371.875,833.6818 L372.6563,861.5333 L373.4375,882.2445 L374.2188,845.7198 L375,893.9682 L375.7813,950 L376.5625,899.6364 L377.3438,849.1435 L378.125,853.0975 L378.9063,921.626 L379.6875,867.5342 L380.4688,870.9576 L381.25,883.4598 L382.0313,807.7546 L382.8125,880.5339 L383.5938,857.0151 L384.375,883.6152 L385.1563,866.6439 L385.9375,866.9122 L386.7188,871.2831 L387.5,883.5431 L388.2813,881.6628 L389.0625,872.6543 L389.8438,851.4178 L390.625,888.1475 L391.4063,895.3333 L392.1875,833.3086 L392.9688,900.9529 L393.75,846.468 L394.5313,850.4482 L395.3125,836.9727 L396.0938,834.7495 L396.875,879.8095 L397.6563,846.3318 L398.4375,920.7737 L399.2188,923.9567 L400,839.1008 L400.7813,856.6293 L401.5625,870.3969 L402.3438,871.5495 L403.125,854.6461 L403.9063,813.6296 L404.6875,864.0869 L405.4688,847.8052 L406.25,850.2975 L407.0313,870.9089 L407.8125,827.5829 L408.5938,884.553 L409.375,867.8999 L410.1563,868.8302 L410.9375,896.1255 L411.7188,868.5234 L412.5,834.1496 L413.2813,845.2141 L414.0625,924.8919 L414.8438,852.8945 L415.625,886.2228 L416.4063,855.753 L417.1875,890.4379 L417.9688,848.289 L418.75,857.5629 L419.5313,889.4543 L420.3125,863.8345 L421.0938,859.3858 L421.875,880.9445 L422.6563,897.8653 L423.4375,866.8333 L424.2188,894.5999 L425,884.699 L425.7813,876.0193 L426.5625,921.2325 L427.3438,890.7457 L428.125,800.5794 L428.9063,880.9484 L429.6875,817.371 L430.4688,874.2445 " stroke="blue" fill="none" />
<text x="50" y="1000" font-family="Arial" font-size="12" fill="black">Episode Length (488)</text>
<text x="50" y="1015" font-family="Arial" font-size="10" fill="black">48</text>
<text x="50" y="1230" font-family="Arial" font-size="10" fill="black">4</text>
<path d="M50,1192.727 L50.78125,1192.727 L51.5625,1174.545 L52.34375,1174.545 L53.125,1174.545 L53.90625,1170 L54.6875,1170 L55.46875,1170 L56.25,1170 L57.03125,1170 L57.8125,1170 L58.59375,1170 L59.375,1170 L60.15625,1170 L60.9375,1170 L61.71875,1165.455 L62.5,1165.455 L63.28125,1165.455 L64.0625,1165.455 L64.84375,1165.455 L65.625,1165.455 L66.40625,1165.455 L67.1875,1165.455 L67.96875,1165.455 L68.75,1165.455 L69.53125,1165.455 L70.3125,1165.455 L71.09375,1160.909 L71.875,1160.909 L72.65625,1156.364 L73.4375,1156.364 L74.21875,1156.364 L75,1151.818 L75.78125,1151.818 L76.5625,1147.273 L77.34375,1147.273 L78.125,1147.273 L78.90625,1142.727 L79.6875,1142.727 L80.46875,1142.727 L81.25,1138.182 L82.03125,1138.182 L82.8125,1138.182 L83.59375,1138.182 L84.375,1138.182 L85.15625,1138.182 L85.9375,1138.182 L86.71875,1138.182 L87.5,1138.182 L88.28125,1138.182 L89.0625,1133.636 L89.84375,1133.636 L90.625,1133.636 L91.40625,1133.636 L92.1875,1133.636 L92.96875,1133.636 L93.75,1129.091 L94.53125,1129.091 L95.3125,1192.727 L96.09375,1120 L96.875,1156.364 L97.65625,1110.909 L98.4375,1101.818 L99.21875,1160.909 L100,1165.455 L100.7813,1156.364 L101.5625,1160.909 L102.3438,1156.364 L103.125,1188.182 L103.9063,1151.818 L104.6875,1151.818 L105.4688,1151.818 L106.25,1160.909 L107.0313,1156.364 L107.8125,1151.818 L108.5938,1156.364 L109.375,1138.182 L110.1563,1138.182 L110.9375,1074.545 L111.7188,1160.909 L112.5,1142.727 L113.2813,1142.727 L114.0625,1138.182 L114.8438,1070 L115.625,1133.636 L116.4063,1110.909 L117.1875,1138.182 L117.9688,1133.636 L118.75,1147.273 L119.5313,1138.182 L120.3125,1133.636 L121.0938,1133.636 L121.875,1165.455 L122.6563,1133.636 L123.4375,1129.091 L124.2188,1160.909 L125,1151.818 L125.7813,1160.909 L126.5625,1165.455 L127.3438,1160.909 L128.125,1124.545 L128.9063,1120 L129.6875,1170 L130.4688,1151.818 L131.25,1147.273 L132.0313,1147.273 L132.8125,1147.273 L133.5938,1133.636 L134.375,1133.636 L135.1563,1138.182 L135.9375,1142.727 L136.7188,1138.182 L137.5,1142.727 L138.2813,1042.727 L139.0625,1138.182 L139.8438,1106.364 L140.625,1124.545 L141.4063,1142.727 L142.1875,1138.182 L142.9688,1170 L143.75,1138.182 L144.5313,1165.455 L145.3125,1170 L146.0938,1188.182 L146.875,1129.091 L147.6563,1156.364 L148.4375,1165.455 L149.2188,1115.455 L150,1138.182 L150.7813,1124.545 L151.5625,1188.182 L152.3438,1138.182 L153.125,1170 L153.9063,1156.364 L154.6875,1170 L155.4688,1160.909 L156.25,1165.455 L157.0313,1070 L157.8125,1170 L158.5938,1142.727 L159.375,1156.364 L160.1563,1165.455 L160.9375,1165.455 L161.7188,1142.727 L162.5,1160.909 L163.2813,1165.455 L164.0625,1151.818 L164.8438,1156.364 L165.625,1151.818 L166.4063,1165.455 L167.1875,1142.727 L167.9688,1138.182 L168.75,1188.182 L169.5313,1156.364 L170.3125,1147.273 L171.0938,1133.636 L171.875,1165.455 L172.6563,1160.909 L173.4375,1151.818 L174.2188,1120 L175,1147.273 L175.7813,1160.909 L176.5625,1129.091 L177.3438,1129.091 L178.125,1142.727 L178.9063,1165.455 L179.6875,1151.818 L180.4688,1133.636 L181.25,1151.818 L182.0313,1110.909 L182.8125,1156.364 L183.5938,1142.727 L184.375,1165.455 L185.1563,1156.364 L185.9375,1133.636 L186.7188,1133.636 L187.5,1129.091 L188.2813,1101.818 L189.0625,1156.364 L189.8438,1160.909 L190.625,1165.455 L191.4063,1138.182 L192.1875,1115.455 L192.9688,1129.091 L193.75,1156.364 L194.5313,1120 L195.3125,1097.273 L196.0938,1165.455 L196.875,1160.909 L197.6563,1160.909 L198.4375,1192.727 L199.2188,1092.727 L200,1156.364 L200.7813,1160.909 L201.5625,1138.182 L202.3438,1156.364 L203.125,1101.818 L203.9063,1160.909 L204.6875,1138.182 L205.4688,1142.727 L206.25,1133.636 L207.0313,1142.727 L207.8125,1165.455 L208.5938,1120 L209.375,1083.636 L210.1563,1170 L210.9375,1097.273 L211.7188,1160.909 L212.5,1156.364 L213.2813,1074.545 L214.0625,1147.273 L214.8438,1156.364 L215.625,1110.909 L216.4063,1156.364 L217.1875,1151.818 L217.9688,1138.182 L218.75,1133.636 L219.5313,1151.818 L220.3125,1151.818 L221.0938,1138.182 L221.875,1147.273 L222.6563,1138.182 L223.4375,1156.364 L224.2188,1165.455 L225,1133.636 L225.7813,1151.818 L226.5625,1092.727 L227.3438,1165.455 L228.125,1160.909 L228.9063,1138.182 L229.6875,1133.636 L230.4688,1147.273 L231.25,1129.091 L232.0313,1129.091 L232.8125,1165.455 L233.5938,1047.273 L234.375,1151.818 L235.1563,1147.273 L235.9375,1133.636 L236.7188,1138.182 L237.5,1133.636 L238.2813,1170 L239.0625,1138.182 L239.8438,1147.273 L240.625,1133.636 L241.4063,1151.818 L242.1875,1133.636 L242.9688,1165.455 L243.75,1138.182 L244.5313,1138.182 L245.3125,1110.909 L246.0938,1110.909 L246.875,1170 L247.6563,1165.455 L248.4375,1156.364 L249.2188,1160.909 L250,1165.455 L250.7813,1165.455 L251.5625,1133.636 L252.3438,1124.545 L253.125,1133.636 L253.9063,1133.636 L254.6875,1133.636 L255.4688,1151.818 L256.25,1156.364 L257.0313,1129.091 L257.8125,1129.091 L258.5938,1138.182 L259.375,1160.909 L260.1563,1138.182 L260.9375,1160.909 L261.7188,1124.545 L262.5,1160.909 L263.2813,1124.545 L264.0625,1101.818 L264.8438,1160.909 L265.625,1156.364 L266.4063,1124.545 L267.1875,1170 L267.9688,1124.545 L268.75,1133.636 L269.5313,1151.818 L270.3125,1138.182 L271.0938,1156.364 L271.875,1115.455 L272.6563,1092.727 L273.4375,1142.727 L274.2188,1170 L275,1165.455 L275.7813,1147.273 L276.5625,1147.273 L277.3438,1147.273 L278.125,1165.455 L278.9063,1170 L279.6875,1160.909 L280.4688,1120 L281.25,1138.182 L282.0313,1142.727 L282.8125,1160.909 L283.5938,1129.091 L284.375,1129.091 L285.1563,1129.091 L285.9375,1138.182 L286.7188,1156.364 L287.5,1156.364 L288.2813,1160.909 L289.0625,1083.636 L289.8438,1142.727 L290.625,1160.909 L291.4063,1156.364 L292.1875,1160.909 L292.9688,1156.364 L293.75,1160.909 L294.5313,1124.545 L295.3125,1165.455 L296.0938,1170 L296.875,1192.727 L297.6563,1124.545 L298.4375,1156.364 L299.2188,1160.909 L300,1138.182 L300.7813,1151.818 L301.5625,1133.636 L302.3438,1138.182 L303.125,1165.455 L303.9063,1160.909 L304.6875,1115.455 L305.4688,1165.455 L306.25,1147.273 L307.0313,1142.727 L307.8125,1165.455 L308.5938,1129.091 L309.375,1142.727 L310.1563,1120 L310.9375,1170 L311.7188,1129.091 L312.5,1156.364 L313.2813,1160.909 L314.0625,1138.182 L314.8438,1129.091 L315.625,1138.182 L316.4063,1142.727 L317.1875,1147.273 L317.9688,1129.091 L318.75,1147.273 L319.5313,1110.909 L320.3125,1183.636 L321.0938,1120 L321.875,1129.091 L322.6563,1110.909 L323.4375,1110.909 L324.2188,1124.545 L325,1138.182 L325.7813,1151.818 L326.5625,1138.182 L327.3438,1160.909 L328.125,1133.636 L328.9063,1165.455 L329.6875,1129.091 L330.4688,1142.727 L331.25,1101.818 L332.0313,1142.727 L332.8125,1160.909 L333.5938,1151.818 L334.375,1165.455 L335.1563,1133.636 L335.9375,1110.909 L336.7188,1133.636 L337.5,1160.909 L338.2813,1133.636 L339.0625,1110.909 L339.8438,1165.455 L340.625,1147.273 L341.4063,1120 L342.1875,1160.909 L342.9688,1020 L343.75,1142.727 L344.5313,1120 L345.3125,1115.455 L346.0938,1142.727 L346.875,1129.091 L347.6563,1165.455 L348.4375,1097.273 L349.2188,1160.909 L350,1133.636 L350.7813,1147.273 L351.5625,1160.909 L352.3438,1074.545 L353.125,1151.818 L353.9063,1142.727 L354.6875,1160.909 L355.4688,1133.636 L356.25,1120 L357.0313,1165.455 L357.8125,1151.818 L358.5938,1133.636 L359.375,1147.273 L360.1563,1165.455 L360.9375,1147.273 L361.7188,1124.545 L362.5,1151.818 L363.2813,1092.727 L364.0625,1133.636 L364.8438,1151.818 L365.625,1115.455 L366.4063,1165.455 L367.1875,1110.909 L367.9688,1138.182 L368.75,1097.273 L369.5313,1160.909 L370.3125,1129.091 L371.0938,1133.636 L371.875,1101.818 L372.6563,1142.727 L373.4375,1142.727 L374.2188,1138.182 L375,1160.909 L375.7813,1220 L376.5625,1138.182 L377.3438,1129.091 L378.125,1101.818 L378.9063,1188.182 L379.6875,1156.364 L380.4688,1160.909 L381.25,1160.909 L382.0313,1110.909 L382.8125,1151.818 L383.5938,1133.636 L384.375,1133.636 L385.1563,1147.273 L385.9375,1156.364 L386.7188,1151.818 L387.5,1156.364 L388.2813,1160.909 L389.0625,1147.273 L389.8438,1101.818 L390.625,1156.364 L391.4063,1170 L392.1875,1133.636 L392.9688,1160.909 L393.75,1115.455 L394.5313,1147.273 L395.3125,1138.182 L396.0938,1129.091 L396.875,1165.455 L397.6563,1147.273 L398.4375,1151.818 L399.2188,1192.727 L400,1147.273 L400.7813,1129.091 L401.5625,1151.818 L402.3438,1156.364 L403.125,1142.727 L403.9063,1120 L404.6875,1133.636 L405.4688,1142.727 L406.25,1129.091 L407.0313,1147.273 L407.8125,1138.182 L408.5938,1133.636 L409.375,1138.182 L410.1563,1156.364 L410.9375,1170 L411.7188,1156.364 L412.5,1133.636 L413.2813,1142.727 L414.0625,1115.455 L414.8438,1138.182 L415.625,1160.909 L416.4063,1138.182 L417.1875,1160.909 L417.9688,1133.636 L418.75,1129.091 L419.5313,1138.182 L420.3125,1151.818 L421.0938,1133.636 L421.875,1165.455 L422.6563,1165.455 L423.4375,1151.818 L424.2188,1147.273 L425,1142.727 L425.7813,1138.182 L426.5625,1192.727 L427.3438,1170 L428.125,1051.818 L428.9063,1079.091 L429.6875,1133.636 L430.4688,1151.818 " stroke="blue" fill="none" />
<text x="50" y="1270" font-family="Arial" font-size="12" fill="black">Policy Loss</text>
<text x="50" y="1285" font-family="Arial" font-size="10" fill="black">0.4915913</text>
<text x="50" y="1500" font-family="Arial" font-size="10" fill="black">0.4915913</text>
<path d="M50,1490 " stroke="blue" fill="none" />
<text x="50" y="1540" font-family="Arial" font-size="12" fill="black">Value Loss</text>
<text x="50" y="1555" font-family="Arial" font-size="10" fill="black">7.433058E-05</text>
<text x="50" y="1770" font-family="Arial" font-size="10" fill="black">7.433058E-05</text>
<path d="M50,1760 " stroke="blue" fill="none" />
<text x="50" y="1810" font-family="Arial" font-size="12" fill="black">Learning Rate</text>
<text x="50" y="1825" font-family="Arial" font-size="10" fill="black">0.000199999</text>
<text x="50" y="2040" font-family="Arial" font-size="10" fill="black">0.000199999</text>
<path d="M50,2030 " stroke="blue" fill="none" />
<text x="50" y="2080" font-family="Arial" font-size="12" fill="black">Entropy</text>
<text x="50" y="2095" font-family="Arial" font-size="10" fill="black">3</text>
<text x="50" y="2310" font-family="Arial" font-size="10" fill="black">3</text>
<path d="M50,2300 " stroke="blue" fill="none" />
<text x="750" y="730" font-family="Arial" font-size="12" fill="black">Simplified</text>
<text x="750" y="745" font-family="Arial" font-size="10" fill="black">0.01851813</text>
<text x="750" y="960" font-family="Arial" font-size="10" fill="black">0.01102639</text>
<path d="M764.0625,950 L778.9063,915.8664 L793.75,859.7275 L808.5938,887.5406 L823.4375,750.0002 L838.2813,848.1998 L853.125,853.7128 L867.9688,862.5255 L882.8125,830.9417 L897.6563,804.0801 L912.5,796.3855 L927.3438,856.6999 L942.1875,786.705 L957.0313,800.2343 L971.875,797.7246 L986.7188,841.5305 L1001.563,834.2408 L1016.406,848.4005 L1031.25,778.5198 L1046.094,819.2098 L1060.938,815.7856 L1075.781,819.4871 L1090.625,857.598 L1105.469,818.9801 L1120.313,840.9363 L1130.469,863.3331 " stroke="blue" fill="none" />
<text x="750" y="1000" font-family="Arial" font-size="12" fill="black">Simplified</text>
<text x="750" y="1015" font-family="Arial" font-size="10" fill="black">23.42105</text>
<text x="750" y="1230" font-family="Arial" font-size="10" fill="black">14.52632</text>
<path d="M764.0625,1220 L778.9063,1150.177 L793.75,1044.852 L808.5938,1118.225 L823.4375,1020 L838.2813,1066.154 L853.125,1099.29 L867.9688,1122.959 L882.8125,1098.107 L897.6563,1068.521 L912.5,1063.787 L927.3438,1061.42 L942.1875,1053.136 L957.0313,1082.722 L971.875,1063.787 L986.7188,1085.089 L1001.563,1112.308 L1016.406,1086.272 L1031.25,1038.935 L1046.094,1029.467 L1060.938,1068.521 L1075.781,1048.402 L1090.625,1082.722 L1105.469,1091.006 L1120.313,1074.438 L1130.469,1062.33 " stroke="blue" fill="none" />
</svg>
