<svg width="2000" height="2500" xmlns="http://www.w3.org/2000/svg">
<text x="10" y="20" font-family="Arial" font-size="26" fill="black"> [RobotScript] Training Session</text>
<text x="10" y="50" font-family="Arial" font-size="16" fill="black">[Statistics]</text>
<text x="50" y="70" font-family="Arial" font-size="12" fill="black">Started at: 7:15:44 PM, Monday, March 25, 2024</text>
<text x="50" y="90" font-family="Arial" font-size="12" fill="black">Finished at: 7:16:38 PM, Monday, March 25, 2024</text>
<text x="50" y="110" font-family="Arial" font-size="12" fill="black">Training Session Time: 0 hrs : 0 min : 52 sec</text>
<text x="50" y="130" font-family="Arial" font-size="12" fill="black">Inference Time: 0 hrs : 29 min : 56 sec        [Device: CPU]</text>
<text x="50" y="150" font-family="Arial" font-size="12" fill="black">Update Time: 0 hrs : 0 min : 30 sec        [Per iteration: 0 hrs : 0 min : 29.834 sec]        [Device: GPU]</text>
<text x="50" y="170" font-family="Arial" font-size="12" fill="black">Episode Count: 1657</text>
<text x="50" y="190" font-family="Arial" font-size="12" fill="black">Inference Steps: 20000</text>
<text x="50" y="210" font-family="Arial" font-size="12" fill="black">Iterations: 1</text>
<text x="50" y="230" font-family="Arial" font-size="12" fill="black">Parallel Agents: 80</text>
<text x="50" y="250" font-family="Arial" font-size="12" fill="black">Timescale: 1</text>
<text x="50" y="270" font-family="Arial" font-size="12" fill="black">Trainer: PPO</text>
<text x="10" y="320" font-family="Arial" font-size="16" fill="black">[Hyperparameters]</text>
<text x="50" y="340" font-family="Arial" font-size="12" fill="black">Buffer Size: 20000        [Batch Size: 1000       (x20)]</text>
<text x="50" y="360" font-family="Arial" font-size="12" fill="black">Num Epoch: 8</text>
<text x="50" y="380" font-family="Arial" font-size="12" fill="black">Time Horizon: 64</text>
<text x="50" y="400" font-family="Arial" font-size="12" fill="black">Gradient Cliping by Norm: 0.5</text>
<text x="50" y="420" font-family="Arial" font-size="12" fill="black">Learning Rate Schedule: True    </text>
<text x="10" y="470" font-family="Arial" font-size="16" fill="black">[Behaviour]</text>
<text x="50" y="490" font-family="Arial" font-size="12" fill="black">Space Size: 86</text>
<text x="50" y="510" font-family="Arial" font-size="12" fill="black">Continuous Actions: 26 [Standard Deviation: Trainable]     </text>
<text x="50" y="530" font-family="Arial" font-size="12" fill="black">Discrete Actions: 0</text>
<text x="50" y="550" font-family="Arial" font-size="12" fill="black">TargetFPS: 60 (physics update rate)</text>
<text x="50" y="570" font-family="Arial" font-size="12" fill="black">Observations Normalization: True</text>
<text x="10" y="620" font-family="Arial" font-size="16" fill="black">[Decision Requester]</text>
<text x="50" y="640" font-family="Arial" font-size="12" fill="black">Max Step: 10000</text>
<text x="50" y="660" font-family="Arial" font-size="12" fill="black">Decision Period: 5      [Actions Between Decisions: True]</text>
<text x="10" y="710" font-family="Arial" font-size="16" fill="black">[Graphs]</text>
<text x="50" y="730" font-family="Arial" font-size="12" fill="black">Episode Reward (1657)</text>
<text x="50" y="745" font-family="Arial" font-size="10" fill="black">0.3475</text>
<text x="50" y="960" font-family="Arial" font-size="10" fill="black">-2.8275</text>
<path d="M50,861.0236 L50.19531,797.2441 L50.39063,828.7402 L50.58594,828.7402 L50.78125,827.9528 L50.97656,827.9528 L51.17188,827.9528 L51.36719,827.9528 L51.5625,827.1653 L51.75781,795.6693 L51.95313,795.6693 L52.14844,827.1653 L52.34375,795.6693 L52.53906,827.1653 L52.73438,827.1653 L52.92969,826.378 L53.125,794.8819 L53.32031,826.378 L53.51563,794.8819 L53.71094,826.378 L53.90625,826.378 L54.10156,826.378 L54.29688,857.874 L54.49219,826.378 L54.6875,889.3701 L54.88281,794.8819 L55.07813,826.378 L55.27344,826.378 L55.46875,794.0945 L55.66406,825.5906 L55.85938,794.0945 L56.05469,825.5906 L56.25,825.5906 L56.44531,825.5906 L56.64063,825.5906 L56.83594,825.5906 L57.03125,888.5827 L57.22656,824.8032 L57.42188,793.3071 L57.61719,887.7953 L57.8125,824.8032 L58.00781,824.8032 L58.20313,793.3071 L58.39844,793.3071 L58.59375,793.3071 L58.78906,824.8032 L58.98438,793.3071 L59.17969,793.3071 L59.375,824.8032 L59.57031,824.8032 L59.76563,793.3071 L59.96094,824.0157 L60.15625,824.0157 L60.35156,824.0157 L60.54688,887.0079 L60.74219,823.2283 L60.9375,854.7244 L61.13281,823.2283 L61.32813,823.2283 L61.52344,823.2283 L61.71875,823.2283 L61.91406,823.2283 L62.10938,886.2205 L62.30469,823.2283 L62.5,790.9449 L62.69531,790.9449 L62.89063,790.9449 L63.08594,822.441 L63.28125,822.441 L63.47656,822.441 L63.67188,795.6693 L63.86719,796.4567 L64.0625,827.9528 L64.25781,796.4567 L64.45313,796.4567 L64.64844,794.8819 L64.84375,794.8819 L65.03906,820.0787 L65.23438,820.0787 L65.42969,883.0709 L65.625,820.0787 L65.82031,820.0787 L66.01563,788.5827 L66.21094,827.9528 L66.40625,794.8819 L66.60156,828.7402 L66.79688,828.7402 L66.99219,827.9528 L67.1875,827.9528 L67.38281,829.5276 L67.57813,819.2913 L67.77344,826.378 L67.96875,827.1653 L68.16406,890.1575 L68.35938,827.9528 L68.55469,794.8819 L68.75,827.9528 L68.94531,795.6693 L69.14063,827.9528 L69.33594,817.7166 L69.53125,817.7166 L69.72656,754.7244 L69.92188,795.6693 L70.11719,887.0079 L70.3125,824.8032 L70.50781,794.0945 L70.70313,794.0945 L70.89844,889.3701 L71.09375,793.3071 L71.28906,794.8819 L71.48438,826.378 L71.67969,826.378 L71.875,794.8819 L72.07031,791.7323 L72.26563,828.7402 L72.46094,795.6693 L72.65625,794.0945 L72.85156,827.9528 L73.04688,795.6693 L73.24219,827.1653 L73.4375,824.0157 L73.63281,823.2283 L73.82813,886.2205 L74.02344,826.378 L74.21875,885.4331 L74.41406,825.5906 L74.60938,797.2441 L74.80469,828.7402 L75,825.5906 L75.19531,824.8032 L75.39063,828.7402 L75.58594,790.9449 L75.78125,823.2283 L75.97656,828.7402 L76.17188,888.5827 L76.36719,788.5827 L76.5625,823.2283 L76.75781,827.9528 L76.95313,824.8032 L77.14844,822.441 L77.34375,794.8819 L77.53906,827.9528 L77.73438,794.8819 L77.92969,827.1653 L78.125,795.6693 L78.32031,827.9528 L78.51563,793.3071 L78.71094,824.0157 L78.90625,823.2283 L79.10156,823.2283 L79.29688,820.0787 L79.49219,823.2283 L79.6875,826.378 L79.88281,827.1653 L80.07813,824.8032 L80.27344,797.2441 L80.46875,797.2441 L80.66406,793.3071 L80.85938,821.6536 L81.05469,827.1653 L81.25,884.6457 L81.44531,827.1653 L81.64063,819.2913 L81.83594,818.504 L82.03125,817.7166 L82.22656,828.7402 L82.42188,792.5197 L82.61719,824.8032 L82.8125,886.2205 L83.00781,823.2283 L83.20313,827.1653 L83.39844,824.0157 L83.59375,826.378 L83.78906,880.7087 L83.98438,824.8032 L84.17969,819.2913 L84.375,824.8032 L84.57031,817.7166 L84.76563,818.504 L84.96094,824.8032 L85.15625,827.9528 L85.35156,857.0866 L85.54688,825.5906 L85.74219,827.1653 L85.9375,826.378 L86.13281,794.8819 L86.32813,792.5197 L86.52344,817.7166 L86.71875,821.6536 L86.91406,794.8819 L87.10938,792.5197 L87.30469,824.0157 L87.5,826.378 L87.69531,793.3071 L87.89063,824.0157 L88.08594,794.0945 L88.28125,794.0945 L88.47656,826.378 L88.67188,820.8661 L88.86719,890.9449 L89.0625,827.9528 L89.25781,826.378 L89.45313,793.3071 L89.64844,827.1653 L89.84375,793.3071 L90.03906,793.3071 L90.23438,819.2913 L90.42969,823.2283 L90.625,824.0157 L90.82031,818.504 L91.01563,827.9528 L91.21094,796.4567 L91.40625,829.5276 L91.60156,796.4567 L91.79688,823.2283 L91.99219,826.378 L92.1875,811.4174 L92.38281,829.5276 L92.57813,824.0157 L92.77344,817.7166 L92.96875,889.3701 L93.16406,852.3622 L93.35938,888.5827 L93.55469,826.378 L93.75,824.8032 L93.94531,826.378 L94.14063,827.1653 L94.33594,786.2205 L94.53125,796.4567 L94.72656,826.378 L94.92188,795.6693 L95.11719,824.0157 L95.3125,827.9528 L95.50781,887.0079 L95.70313,885.4331 L95.89844,827.1653 L96.09375,827.9528 L96.28906,824.8032 L96.48438,795.6693 L96.67969,827.1653 L96.875,885.4331 L97.07031,828.7402 L97.26563,822.441 L97.46094,827.1653 L97.65625,827.9528 L97.85156,825.5906 L98.04688,828.7402 L98.24219,883.8583 L98.4375,824.0157 L98.63281,820.0787 L98.82813,794.8819 L99.02344,821.6536 L99.21875,794.8819 L99.41406,825.5906 L99.60938,822.441 L99.80469,824.0157 L100,825.5906 L100.1953,827.1653 L100.3906,826.378 L100.5859,824.8032 L100.7813,822.441 L100.9766,794.0945 L101.1719,822.441 L101.3672,950 L101.5625,826.378 L101.7578,825.5906 L101.9531,881.4961 L102.1484,792.5197 L102.3438,824.0157 L102.5391,794.8819 L102.7344,825.5906 L102.9297,827.1653 L103.125,881.4961 L103.3203,821.6536 L103.5156,794.8819 L103.7109,794.0945 L103.9063,821.6536 L104.1016,822.441 L104.2969,817.7166 L104.4922,750 L104.6875,824.0157 L104.8828,794.0945 L105.0781,826.378 L105.2734,826.378 L105.4688,884.6457 L105.6641,822.441 L105.8594,825.5906 L106.0547,792.5197 L106.25,824.8032 L106.4453,824.0157 L106.6406,824.8032 L106.8359,883.8583 L107.0313,790.9449 L107.2266,792.5197 L107.4219,823.2283 L107.6172,793.3071 L107.8125,825.5906 L108.0078,795.6693 L108.2031,794.0945 L108.3984,823.2283 L108.5938,794.8819 L108.7891,827.1653 L108.9844,820.8661 L109.1797,825.5906 L109.375,827.1653 L109.5703,824.8032 L109.7656,798.0315 L109.9609,792.5197 L110.1563,823.2283 L110.3516,824.8032 L110.5469,860.2362 L110.7422,789.3701 L110.9375,888.5827 L111.1328,761.811 L111.3281,794.8819 L111.5234,793.3071 L111.7188,884.6457 L111.9141,886.2205 L112.1094,788.5827 L112.3047,830.315 L112.5,795.6693 L112.6953,824.0157 L112.8906,827.9528 L113.0859,794.8819 L113.2813,887.0079 L113.4766,824.0157 L113.6719,823.2283 L113.8672,794.8819 L114.0625,884.6457 L114.2578,823.2283 L114.4531,821.6536 L114.6484,827.1653 L114.8438,797.2441 L115.0391,796.4567 L115.2344,828.7402 L115.4297,824.8032 L115.625,820.0787 L115.8203,796.4567 L116.0156,790.9449 L116.2109,883.8583 L116.4063,795.6693 L116.6016,793.3071 L116.7969,823.2283 L116.9922,797.2441 L117.1875,794.0945 L117.3828,790.1575 L117.5781,824.8032 L117.7734,797.2441 L117.9688,823.2283 L118.1641,882.2834 L118.3594,827.1653 L118.5547,827.9528 L118.75,829.5276 L118.9453,824.8032 L119.1406,828.7402 L119.3359,826.378 L119.5313,820.8661 L119.7266,827.9528 L119.9219,818.504 L120.1172,793.3071 L120.3125,794.8819 L120.5078,827.9528 L120.7031,827.1653 L120.8984,790.1575 L121.0938,822.441 L121.2891,885.433 L121.4844,798.0315 L121.6797,889.3701 L121.875,790.1575 L122.0703,823.2283 L122.2656,826.378 L122.4609,828.7402 L122.6563,794.0945 L122.8516,886.2205 L123.0469,824.0157 L123.2422,818.504 L123.4375,791.7323 L123.6328,829.5276 L123.8281,828.7402 L124.0234,823.2283 L124.2188,827.1653 L124.4141,824.8032 L124.6094,818.504 L124.8047,826.378 L125,828.7402 L125.1953,825.5906 L125.3906,827.9528 L125.5859,826.378 L125.7813,828.7402 L125.9766,826.378 L126.1719,854.7244 L126.3672,823.2283 L126.5625,795.6693 L126.7578,858.6614 L126.9531,795.6693 L127.1484,828.7402 L127.3438,829.5276 L127.5391,884.6457 L127.7344,827.1653 L127.9297,820.0787 L128.125,795.6693 L128.3203,828.7402 L128.5156,820.0787 L128.7109,795.6693 L128.9063,783.8583 L129.1016,825.5906 L129.2969,887.7953 L129.4922,828.7402 L129.6875,824.8032 L129.8828,824.8032 L130.0781,825.5906 L130.2734,827.1653 L130.4688,884.6457 L130.6641,821.6536 L130.8594,796.4567 L131.0547,827.1653 L131.25,827.1653 L131.4453,888.5827 L131.6406,794.8819 L131.8359,790.9449 L132.0313,794.0945 L132.2266,825.5906 L132.4219,855.5118 L132.6172,820.0787 L132.8125,824.8032 L133.0078,796.4567 L133.2031,826.378 L133.3984,824.0157 L133.5938,827.9528 L133.7891,793.3071 L133.9844,823.2283 L134.1797,790.1575 L134.375,888.5827 L134.5703,827.9528 L134.7656,793.3071 L134.9609,824.8032 L135.1563,828.7402 L135.3516,794.0945 L135.5469,821.6536 L135.7422,828.7402 L135.9375,887.7953 L136.1328,821.6536 L136.3281,857.874 L136.5234,828.7402 L136.7188,827.1653 L136.9141,824.8032 L137.1094,829.5276 L137.3047,824.0157 L137.5,824.8032 L137.6953,820.0787 L137.8906,888.5827 L138.0859,789.3701 L138.2813,793.3071 L138.4766,794.8819 L138.6719,823.2283 L138.8672,824.0157 L139.0625,794.8819 L139.2578,829.5276 L139.4531,827.1653 L139.6484,824.8032 L139.8438,795.6693 L140.0391,855.5118 L140.2344,887.0079 L140.4297,824.8032 L140.625,826.378 L140.8203,825.5906 L141.0156,827.9528 L141.2109,825.5906 L141.4063,794.8819 L141.6016,827.9528 L141.7969,823.2283 L141.9922,818.504 L142.1875,794.8819 L142.3828,824.0157 L142.5781,791.7323 L142.7734,827.9528 L142.9688,827.9528 L143.1641,852.3622 L143.3594,824.8032 L143.5547,828.7402 L143.75,853.937 L143.9453,796.4567 L144.1406,790.9449 L144.3359,820.8661 L144.5313,796.4567 L144.7266,828.7402 L144.9219,822.441 L145.1172,858.6614 L145.3125,794.8819 L145.5078,825.5906 L145.7031,790.1575 L145.8984,823.2283 L146.0938,822.441 L146.2891,826.378 L146.4844,790.9449 L146.6797,794.8819 L146.875,827.9528 L147.0703,885.4331 L147.2656,889.3701 L147.4609,884.6457 L147.6563,794.8819 L147.8516,827.1653 L148.0469,794.8819 L148.2422,827.9528 L148.4375,792.5197 L148.6328,823.2283 L148.8281,826.378 L149.0234,794.8819 L149.2188,796.4567 L149.4141,792.5197 L149.6094,794.0945 L149.8047,889.3701 L150,824.8032 L150.1953,810.6299 L150.3906,827.9528 L150.5859,794.0945 L150.7813,826.378 L150.9766,794.0945 L151.1719,794.8819 L151.3672,792.5197 L151.5625,825.5906 L151.7578,824.8032 L151.9531,824.0157 L152.1484,857.874 L152.3438,796.4567 L152.5391,794.0945 L152.7344,827.1653 L152.9297,795.6693 L153.125,827.9528 L153.3203,824.0157 L153.5156,825.5906 L153.7109,831.1024 L153.9063,824.8032 L154.1016,825.5906 L154.2969,787.7953 L154.4922,822.441 L154.6875,792.5197 L154.8828,886.2205 L155.0781,828.7402 L155.2734,827.1653 L155.4688,824.8032 L155.6641,879.9213 L155.8594,826.378 L156.0547,827.1653 L156.25,824.0157 L156.4453,859.4489 L156.6406,794.0945 L156.8359,826.378 L157.0313,818.504 L157.2266,827.9528 L157.4219,817.7166 L157.6172,826.378 L157.8125,794.0945 L158.0078,797.2441 L158.2031,794.8819 L158.3984,883.8583 L158.5938,827.1653 L158.7891,795.6693 L158.9844,825.5906 L159.1797,794.0945 L159.375,825.5906 L159.5703,827.9528 L159.7656,820.0787 L159.9609,823.2283 L160.1563,827.9528 L160.3516,827.9528 L160.5469,790.9449 L160.7422,792.5197 L160.9375,822.441 L161.1328,822.441 L161.3281,887.0079 L161.5234,819.2913 L161.7188,821.6536 L161.9141,883.0709 L162.1094,826.378 L162.3047,794.0945 L162.5,827.9528 L162.6953,792.5197 L162.8906,827.9528 L163.0859,887.7953 L163.2813,827.9528 L163.4766,794.0945 L163.6719,828.7402 L163.8672,822.441 L164.0625,824.0157 L164.2578,827.1653 L164.4531,825.5906 L164.6484,828.7402 L164.8438,794.0945 L165.0391,947.6378 L165.2344,820.0787 L165.4297,822.441 L165.625,794.8819 L165.8203,830.315 L166.0156,794.8819 L166.2109,790.9449 L166.4063,790.1575 L166.6016,823.2283 L166.7969,816.1417 L166.9922,796.4567 L167.1875,788.5827 L167.3828,856.2992 L167.5781,790.9449 L167.7734,888.5827 L167.9688,886.2205 L168.1641,795.6693 L168.3594,790.9449 L168.5547,759.4489 L168.75,795.6693 L168.9453,827.9528 L169.1406,827.1653 L169.3359,795.6693 L169.5313,825.5906 L169.7266,827.1653 L169.9219,789.3701 L170.1172,789.3701 L170.3125,827.9528 L170.5078,797.2441 L170.7031,793.3071 L170.8984,824.8032 L171.0938,827.9528 L171.2891,819.2913 L171.4844,887.0079 L171.6797,828.7402 L171.875,824.8032 L172.0703,794.8819 L172.2656,889.3701 L172.4609,823.2283 L172.6563,827.1653 L172.8516,827.1653 L173.0469,827.1653 L173.2422,824.8032 L173.4375,793.3071 L173.6328,827.1653 L173.8281,827.1653 L174.0234,879.1339 L174.2188,827.9528 L174.4141,827.1653 L174.6094,824.0157 L174.8047,797.2441 L175,829.5276 L175.1953,859.4489 L175.3906,793.3071 L175.5859,824.0157 L175.7813,825.5906 L175.9766,826.378 L176.1719,794.0945 L176.3672,823.2283 L176.5625,824.0157 L176.7578,793.3071 L176.9531,887.0079 L177.1484,827.1653 L177.3438,827.1653 L177.5391,824.0157 L177.7344,821.6536 L177.9297,825.5906 L178.125,829.5276 L178.3203,823.2283 L178.5156,819.2913 L178.7109,824.0157 L178.9063,796.4567 L179.1016,829.5276 L179.2969,794.8819 L179.4922,826.378 L179.6875,820.8661 L179.8828,819.2913 L180.0781,794.0945 L180.2735,825.5906 L180.4688,826.378 L180.6641,827.1653 L180.8594,797.2441 L181.0547,825.5906 L181.25,828.7402 L181.4453,826.378 L181.6406,827.1653 L181.8359,887.0079 L182.0313,823.2283 L182.2266,790.1575 L182.4219,826.378 L182.6172,825.5906 L182.8125,824.0157 L183.0078,828.7402 L183.2031,787.0079 L183.3984,827.9528 L183.5938,820.8661 L183.7891,828.7402 L183.9844,848.4252 L184.1797,797.2441 L184.375,827.9528 L184.5703,827.9528 L184.7656,791.7323 L184.9609,825.5906 L185.1563,825.5906 L185.3516,886.2205 L185.5469,793.3071 L185.7422,883.0709 L185.9375,820.8661 L186.1328,827.1653 L186.3281,819.2913 L186.5234,947.6378 L186.7188,793.3071 L186.9141,790.9449 L187.1094,857.0866 L187.3047,887.7953 L187.5,819.2913 L187.6953,794.8819 L187.8906,824.8032 L188.086,824.0157 L188.2813,827.9528 L188.4766,857.874 L188.6719,858.6614 L188.8672,795.6693 L189.0625,824.8032 L189.2578,827.1653 L189.4531,823.2283 L189.6484,827.9528 L189.8438,828.7402 L190.0391,827.9528 L190.2344,790.1575 L190.4297,824.8032 L190.625,825.5906 L190.8203,827.9528 L191.0156,885.4331 L191.2109,823.2283 L191.4063,823.2283 L191.6016,795.6693 L191.7969,827.1653 L191.9922,828.7402 L192.1875,824.8032 L192.3828,820.0787 L192.5781,794.0945 L192.7734,756.2992 L192.9688,824.8032 L193.1641,887.7953 L193.3594,825.5906 L193.5547,790.9449 L193.75,826.378 L193.9453,794.8819 L194.1406,824.8032 L194.3359,795.6693 L194.5313,822.441 L194.7266,827.1653 L194.9219,794.8819 L195.1172,793.3071 L195.3125,783.0709 L195.5078,794.8819 L195.7031,859.4489 L195.8985,828.7402 L196.0938,826.378 L196.2891,827.9528 L196.4844,824.0157 L196.6797,881.4961 L196.875,824.0157 L197.0703,824.8032 L197.2656,823.2283 L197.4609,792.5197 L197.6563,823.2283 L197.8516,798.0315 L198.0469,824.8032 L198.2422,828.7402 L198.4375,820.8661 L198.6328,789.3701 L198.8281,823.2283 L199.0234,824.8032 L199.2188,825.5906 L199.4141,825.5906 L199.6094,884.6457 L199.8047,820.0787 L200,795.6693 L200.1953,793.3071 L200.3906,792.5197 L200.5859,858.6614 L200.7813,827.1653 L200.9766,828.7402 L201.1719,824.8032 L201.3672,824.8032 L201.5625,761.811 L201.7578,823.2283 L201.9531,829.5276 L202.1484,821.6536 L202.3438,798.0315 L202.5391,826.378 L202.7344,827.9528 L202.9297,825.5906 L203.125,816.1417 L203.3203,824.8032 L203.5156,822.441 L203.711,818.504 L203.9063,825.5906 L204.1016,827.9528 L204.2969,820.0787 L204.4922,825.5906 L204.6875,827.1653 L204.8828,825.5906 L205.0781,825.5906 L205.2734,824.0157 L205.4688,820.0787 L205.6641,883.8583 L205.8594,825.5906 L206.0547,796.4567 L206.25,885.4331 L206.4453,820.8661 L206.6406,825.5906 L206.8359,823.2283 L207.0313,795.6693 L207.2266,883.0709 L207.4219,791.7323 L207.6172,825.5906 L207.8125,823.2283 L208.0078,818.504 L208.2031,820.8661 L208.3984,824.0157 L208.5938,887.0079 L208.7891,825.5906 L208.9844,794.8819 L209.1797,827.9528 L209.375,827.9528 L209.5703,883.0709 L209.7656,817.7166 L209.9609,827.1653 L210.1563,795.6693 L210.3516,821.6536 L210.5469,829.5276 L210.7422,828.7402 L210.9375,824.0157 L211.1328,827.9528 L211.3281,793.3071 L211.5235,828.7402 L211.7188,828.7402 L211.9141,794.8819 L212.1094,826.378 L212.3047,826.378 L212.5,821.6536 L212.6953,827.9528 L212.8906,794.8819 L213.0859,791.7323 L213.2813,825.5906 L213.4766,823.2283 L213.6719,820.8661 L213.8672,794.0945 L214.0625,825.5906 L214.2578,797.2441 L214.4531,859.4489 L214.6484,792.5197 L214.8438,796.4567 L215.0391,793.3071 L215.2344,827.9528 L215.4297,826.378 L215.625,824.0157 L215.8203,820.8661 L216.0156,826.378 L216.2109,828.7402 L216.4063,795.6693 L216.6016,827.1653 L216.7969,793.3071 L216.9922,824.8032 L217.1875,829.5276 L217.3828,794.0945 L217.5781,794.0945 L217.7734,827.1653 L217.9688,793.3071 L218.1641,827.9528 L218.3594,826.378 L218.5547,795.6693 L218.75,794.0945 L218.9453,828.7402 L219.1406,827.1653 L219.336,826.378 L219.5313,825.5906 L219.7266,831.8898 L219.9219,796.4567 L220.1172,824.8032 L220.3125,827.9528 L220.5078,890.9449 L220.7031,793.3071 L220.8984,826.378 L221.0938,794.8819 L221.2891,828.7402 L221.4844,827.1653 L221.6797,829.5276 L221.875,887.0079 L222.0703,825.5906 L222.2656,825.5906 L222.4609,824.8032 L222.6563,824.8032 L222.8516,827.1653 L223.0469,824.8032 L223.2422,796.4567 L223.4375,830.315 L223.6328,824.8032 L223.8281,825.5906 L224.0234,820.8661 L224.2188,826.378 L224.4141,883.0709 L224.6094,822.441 L224.8047,824.0157 L225,830.315 L225.1953,825.5906 L225.3906,851.5748 L225.5859,819.2913 L225.7813,822.441 L225.9766,794.0945 L226.1719,824.8032 L226.3672,827.9528 L226.5625,794.0945 L226.7578,818.504 L226.9531,794.0945 L227.1485,793.3071 L227.3438,794.0945 L227.5391,795.6693 L227.7344,791.7323 L227.9297,827.1653 L228.125,824.8032 L228.3203,826.378 L228.5156,820.0787 L228.7109,827.1653 L228.9063,827.1653 L229.1016,827.9528 L229.2969,829.5276 L229.4922,885.433 L229.6875,828.7402 L229.8828,825.5906 L230.0781,827.1653 L230.2734,824.0157 L230.4688,824.8032 L230.6641,791.7323 L230.8594,820.8661 L231.0547,824.8032 L231.25,790.9449 L231.4453,795.6693 L231.6406,816.9291 L231.8359,796.4567 L232.0313,792.5197 L232.2266,825.5906 L232.4219,795.6693 L232.6172,794.8819 L232.8125,824.8032 L233.0078,823.2283 L233.2031,816.9291 L233.3984,883.0709 L233.5938,828.7402 L233.7891,829.5276 L233.9844,794.8819 L234.1797,792.5197 L234.375,822.441 L234.5703,817.7166 L234.7656,794.0945 L234.961,790.1575 L235.1563,825.5906 L235.3516,887.7953 L235.5469,825.5906 L235.7422,794.0945 L235.9375,793.3071 L236.1328,797.2441 L236.3281,793.3071 L236.5234,827.1653 L236.7188,824.0157 L236.9141,796.4567 L237.1094,827.9528 L237.3047,824.8032 L237.5,827.9528 L237.6953,828.7402 L237.8906,883.8583 L238.0859,820.8661 L238.2813,829.5276 L238.4766,796.4567 L238.6719,824.0157 L238.8672,794.0945 L239.0625,823.2283 L239.2578,822.441 L239.4531,794.8819 L239.6484,822.441 L239.8438,824.8032 L240.0391,881.4961 L240.2344,856.2993 L240.4297,828.7402 L240.625,794.8819 L240.8203,792.5197 L241.0156,822.441 L241.2109,884.6457 L241.4063,794.8819 L241.6016,887.7953 L241.7969,854.7244 L241.9922,826.378 L242.1875,890.9449 L242.3828,826.378 L242.5781,823.2283 L242.7735,793.3071 L242.9688,817.7166 L243.1641,792.5197 L243.3594,824.8032 L243.5547,822.441 L243.75,794.0945 L243.9453,827.9528 L244.1406,823.2283 L244.3359,828.7402 L244.5313,820.8661 L244.7266,828.7402 L244.9219,826.378 L245.1172,822.441 L245.3125,827.1653 L245.5078,787.7953 L245.7031,819.2913 L245.8984,887.7953 L246.0938,829.5276 L246.2891,824.8032 L246.4844,791.7323 L246.6797,795.6693 L246.875,787.0079 L247.0703,825.5906 L247.2656,792.5197 L247.4609,822.441 L247.6563,824.0157 L247.8516,824.8032 L248.0469,828.7402 L248.2422,828.7402 L248.4375,827.9528 L248.6328,826.378 L248.8281,824.8032 L249.0234,827.1653 L249.2188,794.0945 L249.4141,827.9528 L249.6094,947.6378 L249.8047,830.315 L250,827.9528 L250.1953,824.8032 L250.3906,886.2205 L250.586,828.7402 L250.7813,886.2205 L250.9766,847.6378 L251.1719,827.1653 L251.3672,824.8032 L251.5625,826.378 L251.7578,824.0157 L251.9531,795.6693 L252.1484,827.9528 L252.3438,828.7402 L252.5391,794.8819 L252.7344,823.2283 L252.9297,824.8032 L253.125,826.378 L253.3203,821.6536 L253.5156,808.2678 L253.7109,792.5197 L253.9063,824.8032 L254.1016,886.2205 L254.2969,819.2913 L254.4922,791.7323 L254.6875,829.5276 L254.8828,792.5197 L255.0781,822.441 L255.2734,827.1653 L255.4688,885.4331 L255.6641,797.2441 L255.8594,827.9528 L256.0547,820.0787 L256.25,824.0157 L256.4453,827.9528 L256.6406,793.3071 L256.8359,791.7323 L257.0313,795.6693 L257.2266,790.9449 L257.4219,889.3701 L257.6172,824.0157 L257.8125,820.8661 L258.0078,824.8032 L258.2031,822.441 L258.3984,827.9528 L258.5938,826.378 L258.7891,827.1653 L258.9844,828.7402 L259.1797,885.4331 L259.375,827.9528 L259.5703,794.8819 L259.7656,793.3071 L259.9609,794.8819 L260.1563,822.441 L260.3516,822.441 L260.5469,828.7402 L260.7422,825.5906 L260.9375,883.8583 L261.1328,787.7953 L261.3281,887.0079 L261.5234,824.8032 L261.7188,794.0945 L261.9141,816.9291 L262.1094,824.8032 L262.3047,825.5906 L262.5,775.9843 L262.6953,827.9528 L262.8906,824.8032 L263.0859,826.378 L263.2813,824.0157 L263.4766,821.6536 L263.6719,824.0157 L263.8672,827.1653 L264.0625,821.6536 L264.2578,755.5118 L264.4531,791.7323 L264.6484,826.378 L264.8438,827.1653 L265.0391,790.9449 L265.2344,827.9528 L265.4297,887.0079 L265.625,824.8032 L265.8203,828.7402 L266.0156,794.0945 L266.2109,827.1653 L266.4063,821.6536 L266.6016,797.2441 L266.7969,827.1653 L266.9922,825.5906 L267.1875,890.9449 L267.3828,829.5276 L267.5781,890.1575 L267.7734,823.2283 L267.9688,827.9528 L268.1641,819.2913 L268.3594,796.4567 L268.5547,827.9528 L268.75,827.1653 L268.9453,826.378 L269.1406,793.3071 L269.3359,794.0945 L269.5313,816.1417 L269.7266,796.4567 L269.9219,826.378 L270.1172,888.5827 L270.3125,795.6693 L270.5078,816.9291 L270.7031,826.378 L270.8984,849.2126 L271.0938,823.2283 L271.2891,827.9528 L271.4844,794.8819 L271.6797,790.9449 L271.875,793.3071 L272.0703,826.378 L272.2656,823.2283 L272.4609,827.9528 L272.6563,828.7402 L272.8516,825.5906 L273.0469,796.4567 L273.2422,824.8032 L273.4375,829.5276 L273.6328,794.0945 L273.8281,826.378 L274.0234,827.1653 L274.2188,825.5906 L274.4141,824.8032 L274.6094,821.6536 L274.8047,823.2283 L275,825.5906 L275.1953,824.8032 L275.3906,795.6693 L275.5859,852.3622 L275.7813,887.7953 L275.9766,827.9528 L276.1719,792.5197 L276.3672,819.2913 L276.5625,790.1575 L276.7578,790.1575 L276.9531,827.1653 L277.1484,825.5906 L277.3438,825.5906 L277.5391,827.1653 L277.7344,829.5276 L277.9297,824.8032 L278.125,827.1653 L278.3203,824.8032 L278.5156,826.378 L278.7109,824.0157 L278.9063,831.1024 L279.1016,791.7323 L279.2969,787.0079 L279.4922,825.5906 L279.6875,796.4567 L279.8828,825.5906 L280.0781,793.3071 L280.2734,823.2283 L280.4688,820.8661 L280.6641,826.378 L280.8594,828.7402 L281.0547,795.6693 L281.25,826.378 L281.4453,827.9528 L281.6406,826.378 L281.8359,795.6693 L282.0313,794.8819 L282.2266,827.1653 L282.4219,824.0157 L282.6172,795.6693 L282.8125,827.9528 L283.0078,792.5197 L283.2031,796.4567 L283.3984,824.0157 L283.5938,826.378 L283.7891,886.2205 L283.9844,823.2283 L284.1797,790.1575 L284.375,793.3071 L284.5703,826.378 L284.7656,827.1653 L284.9609,827.1653 L285.1563,821.6536 L285.3516,826.378 L285.5469,823.2283 L285.7422,827.1653 L285.9375,821.6536 L286.1328,887.7953 L286.3281,818.504 L286.5234,881.4961 L286.7188,795.6693 L286.9141,816.1417 L287.1094,816.9291 L287.3047,828.7402 L287.5,790.1575 L287.6953,823.2283 L287.8906,793.3071 L288.0859,824.8032 L288.2813,826.378 L288.4766,822.441 L288.6719,795.6693 L288.8672,827.1653 L289.0625,824.0157 L289.2578,794.8819 L289.4531,792.5197 L289.6484,820.8661 L289.8438,824.8032 L290.0391,794.8819 L290.2344,793.3071 L290.4297,886.2205 L290.625,783.0709 L290.8203,824.0157 L291.0156,825.5906 L291.2109,794.0945 L291.4063,827.1653 L291.6016,795.6693 L291.7969,827.1653 L291.9922,797.2441 L292.1875,830.315 L292.3828,794.8819 L292.5781,824.0157 L292.7734,824.8032 L292.9688,827.1653 L293.1641,886.2205 L293.3594,824.8032 L293.5547,823.2283 L293.75,824.0157 L293.9453,826.378 L294.1406,826.378 L294.3359,822.441 L294.5313,828.7402 L294.7266,824.0157 L294.9219,822.441 L295.1172,796.4567 L295.3125,889.3701 L295.5078,820.8661 L295.7031,831.1024 L295.8984,823.2283 L296.0938,794.0945 L296.2891,790.9449 L296.4844,792.5197 L296.6797,887.7953 L296.875,825.5906 L297.0703,819.2913 L297.2656,823.2283 L297.4609,795.6693 L297.6563,820.8661 L297.8516,790.9449 L298.0469,793.3071 L298.2422,827.9528 L298.4375,827.1653 L298.6328,820.8661 L298.8281,827.1653 L299.0234,887.7953 L299.2188,820.0787 L299.4141,826.378 L299.6094,831.1024 L299.8047,821.6536 L300,795.6693 L300.1953,827.1653 L300.3906,795.6693 L300.5859,791.7323 L300.7813,825.5906 L300.9766,827.1653 L301.1719,827.9528 L301.3672,827.1653 L301.5625,819.2913 L301.7578,821.6536 L301.9531,887.7953 L302.1484,796.4567 L302.3438,791.7323 L302.5391,817.7166 L302.7344,824.0157 L302.9297,826.378 L303.125,794.0945 L303.3203,822.441 L303.5156,822.441 L303.711,823.2283 L303.9063,794.0945 L304.1016,843.7008 L304.2969,885.4331 L304.4922,825.5906 L304.6875,830.315 L304.8828,795.6693 L305.0781,820.8661 L305.2734,794.8819 L305.4688,824.8032 L305.6641,824.0157 L305.8594,822.441 L306.0547,827.9528 L306.25,825.5906 L306.4453,794.0945 L306.6407,795.6693 L306.8359,826.378 L307.0313,810.6299 L307.2266,794.0945 L307.4219,852.3622 L307.6172,825.5906 L307.8125,830.315 L308.0078,822.441 L308.2031,827.1653 L308.3984,826.378 L308.5938,824.0157 L308.7891,824.8032 L308.9844,827.9528 L309.1797,825.5906 L309.375,821.6536 L309.5703,827.1653 L309.7656,827.1653 L309.9609,791.7323 L310.1563,792.5197 L310.3516,791.7323 L310.5469,823.2283 L310.7422,794.0945 L310.9375,821.6536 L311.1328,827.9528 L311.3281,791.7323 L311.5235,827.1653 L311.7188,854.7244 L311.9141,793.3071 L312.1094,795.6693 L312.3047,824.8032 L312.5,827.9528 L312.6953,825.5906 L312.8906,822.441 L313.0859,823.2283 L313.2813,881.4961 L313.4766,829.5276 L313.6719,860.2362 L313.8672,857.0866 L314.0625,885.433 L314.2578,823.2283 L314.4532,797.2441 L314.6484,794.8819 L314.8438,828.7402 L315.0391,825.5906 L315.2344,825.5906 L315.4297,798.0315 L315.625,814.567 L315.8203,827.1653 L316.0156,827.9528 L316.2109,825.5906 L316.4063,827.1653 L316.6016,797.2441 L316.7969,794.0945 L316.9922,824.8032 L317.1875,820.8661 L317.3828,820.8661 L317.5781,825.5906 L317.7734,794.8819 L317.9688,793.3071 L318.1641,855.5118 L318.3594,795.6693 L318.5547,824.0157 L318.75,795.6693 L318.9453,827.9528 L319.1406,826.378 L319.336,824.0157 L319.5313,828.7402 L319.7266,886.2205 L319.9219,794.8819 L320.1172,796.4567 L320.3125,794.0945 L320.5078,828.7402 L320.7031,826.378 L320.8984,880.7087 L321.0938,826.378 L321.2891,826.378 L321.4844,824.8032 L321.6797,822.441 L321.875,820.8661 L322.0703,820.8661 L322.2657,824.8032 L322.4609,824.8032 L322.6563,828.7402 L322.8516,822.441 L323.0469,828.7402 L323.2422,823.2283 L323.4375,827.9528 L323.6328,824.8032 L323.8281,794.0945 L324.0234,792.5197 L324.2188,794.8819 L324.4141,883.8583 L324.6094,824.8032 L324.8047,796.4567 L325,825.5906 L325.1953,859.4489 L325.3906,826.378 L325.5859,819.2913 L325.7813,828.7402 L325.9766,825.5906 L326.1719,825.5906 L326.3672,798.0315 L326.5625,883.8583 L326.7578,821.6536 L326.9531,794.0945 L327.1485,823.2283 L327.3438,829.5276 L327.5391,830.315 L327.7344,856.2993 L327.9297,825.5906 L328.125,858.6614 L328.3203,796.4567 L328.5156,829.5276 L328.7109,797.2441 L328.9063,822.441 L329.1016,826.378 L329.2969,820.0787 L329.4922,793.3071 L329.6875,889.3701 L329.8828,829.5276 L330.0782,794.8819 L330.2734,795.6693 L330.4688,826.378 L330.6641,882.2834 L330.8594,884.6457 L331.0547,793.3071 L331.25,827.1653 L331.4453,859.4489 L331.6406,822.441 L331.8359,826.378 L332.0313,827.9528 L332.2266,884.6457 L332.4219,796.4567 L332.6172,794.8819 L332.8125,794.8819 L333.0078,798.0315 L333.2031,794.0945 L333.3984,825.5906 L333.5938,822.441 L333.7891,796.4567 L333.9844,797.2441 L334.1797,829.5276 L334.375,890.9449 L334.5703,855.5118 L334.7656,824.8032 L334.961,827.9528 L335.1563,817.7166 L335.3516,820.0787 L335.5469,827.9528 L335.7422,827.1653 L335.9375,824.8032 L336.1328,825.5906 L336.3281,824.0157 L336.5234,817.7166 L336.7188,795.6693 L336.9141,824.8032 L337.1094,826.378 L337.3047,792.5197 L337.5,791.7323 L337.6953,795.6693 L337.8907,794.8819 L338.0859,794.0945 L338.2813,822.441 L338.4766,888.5827 L338.6719,878.3465 L338.8672,830.315 L339.0625,816.1417 L339.2578,827.9528 L339.4531,820.8661 L339.6484,822.441 L339.8438,824.0157 L340.0391,823.2283 L340.2344,857.0866 L340.4297,823.2283 L340.625,795.6693 L340.8203,826.378 L341.0156,827.1653 L341.2109,822.441 L341.4063,822.441 L341.6016,827.9528 L341.7969,796.4567 L341.9922,821.6536 L342.1875,794.8819 L342.3828,796.4567 L342.5781,824.8032 L342.7735,791.7323 L342.9688,889.3701 L343.1641,761.811 L343.3594,826.378 L343.5547,886.2205 L343.75,825.5906 L343.9453,794.8819 L344.1406,825.5906 L344.3359,827.1653 L344.5313,826.378 L344.7266,792.5197 L344.9219,830.315 L345.1172,821.6536 L345.3125,814.567 L345.5078,823.2283 L345.7032,827.9528 L345.8984,797.2441 L346.0938,827.1653 L346.2891,794.8819 L346.4844,794.8819 L346.6797,821.6536 L346.875,791.7323 L347.0703,826.378 L347.2656,827.9528 L347.4609,827.1653 L347.6563,823.2283 L347.8516,881.4961 L348.0469,820.8661 L348.2422,828.7402 L348.4375,824.0157 L348.6328,826.378 L348.8281,826.378 L349.0234,797.2441 L349.2188,792.5197 L349.4141,887.0079 L349.6094,791.7323 L349.8047,824.8032 L350,793.3071 L350.1953,816.1417 L350.3906,828.7402 L350.586,825.5906 L350.7813,828.7402 L350.9766,828.7402 L351.1719,858.6614 L351.3672,793.3071 L351.5625,796.4567 L351.7578,828.7402 L351.9531,875.9843 L352.1484,819.2913 L352.3438,812.9921 L352.5391,827.1653 L352.7344,824.0157 L352.9297,820.8661 L353.125,792.5197 L353.3203,826.378 L353.5157,820.0787 L353.7109,794.0945 L353.9063,824.8032 L354.1016,824.0157 L354.2969,827.1653 L354.4922,791.7323 L354.6875,796.4567 L354.8828,825.5906 L355.0781,825.5906 L355.2734,828.7402 L355.4688,824.8032 L355.6641,790.9449 L355.8594,824.0157 L356.0547,827.9528 L356.25,883.8583 L356.4453,827.1653 L356.6406,887.0079 L356.8359,823.2283 L357.0313,790.1575 L357.2266,886.2205 L357.4219,824.8032 L357.6172,815.3544 L357.8125,821.6536 L358.0078,792.5197 L358.2031,884.6457 L358.3985,880.7087 L358.5938,795.6693 L358.7891,821.6536 L358.9844,823.2283 L359.1797,855.5118 L359.375,790.1575 L359.5703,790.9449 L359.7656,824.8032 L359.9609,792.5197 L360.1563,796.4567 L360.3516,792.5197 L360.5469,820.8661 L360.7422,821.6536 L360.9375,822.441 L361.1328,890.1575 L361.3282,818.504 L361.5234,794.0945 L361.7188,821.6536 L361.9141,824.0157 L362.1094,827.1653 L362.3047,828.7402 L362.5,824.0157 L362.6953,883.0709 L362.8906,786.2205 L363.0859,827.9528 L363.2813,794.8819 L363.4766,824.8032 L363.6719,831.8898 L363.8672,793.3071 L364.0625,827.1653 L364.2578,790.9449 L364.4531,826.378 L364.6484,797.2441 L364.8438,821.6536 L365.0391,794.8819 L365.2344,827.1653 L365.4297,886.2205 L365.625,824.8032 L365.8203,819.2913 L366.0156,822.441 L366.211,829.5276 L366.4063,826.378 L366.6016,827.9528 L366.7969,824.0157 L366.9922,825.5906 L367.1875,812.9921 L367.3828,796.4567 L367.5781,824.8032 L367.7734,822.441 L367.9688,827.9528 L368.1641,827.9528 L368.3594,818.504 L368.5547,822.441 L368.75,794.0945 L368.9453,829.5276 L369.1407,822.441 L369.3359,785.4331 L369.5313,823.2283 L369.7266,828.7402 L369.9219,794.8819 L370.1172,794.0945 L370.3125,887.7953 L370.5078,797.2441 L370.7031,827.1653 L370.8984,796.4567 L371.0938,829.5276 L371.2891,788.5827 L371.4844,819.2913 L371.6797,822.441 L371.875,823.2283 L372.0703,795.6693 L372.2656,825.5906 L372.4609,787.7953 L372.6563,829.5276 L372.8516,884.6457 L373.0469,826.378 L373.2422,824.0157 L373.4375,824.0157 " stroke="blue" fill="none" />
<text x="50" y="1000" font-family="Arial" font-size="12" fill="black">Episode Length (1657)</text>
<text x="50" y="1015" font-family="Arial" font-size="10" fill="black">35</text>
<text x="50" y="1230" font-family="Arial" font-size="10" fill="black">4</text>
<path d="M50,1207.097 L50.19531,1200.645 L50.39063,1200.645 L50.58594,1200.645 L50.78125,1194.194 L50.97656,1194.194 L51.17188,1194.194 L51.36719,1194.194 L51.5625,1187.742 L51.75781,1187.742 L51.95313,1187.742 L52.14844,1187.742 L52.34375,1187.742 L52.53906,1187.742 L52.73438,1187.742 L52.92969,1181.29 L53.125,1181.29 L53.32031,1181.29 L53.51563,1181.29 L53.71094,1181.29 L53.90625,1181.29 L54.10156,1181.29 L54.29688,1181.29 L54.49219,1181.29 L54.6875,1181.29 L54.88281,1181.29 L55.07813,1181.29 L55.27344,1181.29 L55.46875,1174.839 L55.66406,1174.839 L55.85938,1174.839 L56.05469,1174.839 L56.25,1174.839 L56.44531,1174.839 L56.64063,1174.839 L56.83594,1174.839 L57.03125,1174.839 L57.22656,1168.387 L57.42188,1168.387 L57.61719,1168.387 L57.8125,1168.387 L58.00781,1168.387 L58.20313,1168.387 L58.39844,1168.387 L58.59375,1168.387 L58.78906,1168.387 L58.98438,1168.387 L59.17969,1168.387 L59.375,1168.387 L59.57031,1168.387 L59.76563,1168.387 L59.96094,1161.935 L60.15625,1161.935 L60.35156,1161.935 L60.54688,1161.935 L60.74219,1155.484 L60.9375,1155.484 L61.13281,1155.484 L61.32813,1155.484 L61.52344,1155.484 L61.71875,1155.484 L61.91406,1155.484 L62.10938,1155.484 L62.30469,1155.484 L62.5,1149.032 L62.69531,1149.032 L62.89063,1149.032 L63.08594,1149.032 L63.28125,1149.032 L63.47656,1149.032 L63.67188,1181.29 L63.86719,1187.742 L64.0625,1187.742 L64.25781,1187.742 L64.45313,1187.742 L64.64844,1174.839 L64.84375,1174.839 L65.03906,1129.677 L65.23438,1129.677 L65.42969,1129.677 L65.625,1129.677 L65.82031,1129.677 L66.01563,1129.677 L66.21094,1187.742 L66.40625,1174.839 L66.60156,1194.194 L66.79688,1194.194 L66.99219,1187.742 L67.1875,1187.742 L67.38281,1200.645 L67.57813,1123.226 L67.77344,1174.839 L67.96875,1181.29 L68.16406,1181.29 L68.35938,1187.742 L68.55469,1174.839 L68.75,1187.742 L68.94531,1181.29 L69.14063,1187.742 L69.33594,1110.323 L69.53125,1110.323 L69.72656,1110.323 L69.92188,1181.29 L70.11719,1155.484 L70.3125,1161.935 L70.50781,1168.387 L70.70313,1168.387 L70.89844,1174.839 L71.09375,1161.935 L71.28906,1174.839 L71.48438,1174.839 L71.67969,1174.839 L71.875,1174.839 L72.07031,1149.032 L72.26563,1194.194 L72.46094,1181.29 L72.65625,1168.387 L72.85156,1187.742 L73.04688,1181.29 L73.24219,1181.29 L73.4375,1155.484 L73.63281,1149.032 L73.82813,1149.032 L74.02344,1174.839 L74.21875,1142.581 L74.41406,1168.387 L74.60938,1194.194 L74.80469,1194.194 L75,1168.387 L75.19531,1161.935 L75.39063,1194.194 L75.58594,1142.581 L75.78125,1149.032 L75.97656,1194.194 L76.17188,1168.387 L76.36719,1123.226 L76.5625,1149.032 L76.75781,1187.742 L76.95313,1161.935 L77.14844,1142.581 L77.34375,1174.839 L77.53906,1187.742 L77.73438,1174.839 L77.92969,1181.29 L78.125,1181.29 L78.32031,1187.742 L78.51563,1161.935 L78.71094,1155.484 L78.90625,1149.032 L79.10156,1149.032 L79.29688,1123.226 L79.49219,1149.032 L79.6875,1174.839 L79.88281,1181.29 L80.07813,1161.935 L80.27344,1194.194 L80.46875,1194.194 L80.66406,1161.935 L80.85938,1136.129 L81.05469,1181.29 L81.25,1136.129 L81.44531,1181.29 L81.64063,1116.774 L81.83594,1110.323 L82.03125,1103.871 L82.22656,1194.194 L82.42188,1155.484 L82.61719,1161.935 L82.8125,1149.032 L83.00781,1149.032 L83.20313,1181.29 L83.39844,1155.484 L83.59375,1174.839 L83.78906,1103.871 L83.98438,1161.935 L84.17969,1116.774 L84.375,1161.935 L84.57031,1103.871 L84.76563,1110.323 L84.96094,1161.935 L85.15625,1187.742 L85.35156,1168.387 L85.54688,1168.387 L85.74219,1181.29 L85.9375,1174.839 L86.13281,1174.839 L86.32813,1155.484 L86.52344,1103.871 L86.71875,1136.129 L86.91406,1174.839 L87.10938,1155.484 L87.30469,1155.484 L87.5,1174.839 L87.69531,1161.935 L87.89063,1155.484 L88.08594,1168.387 L88.28125,1168.387 L88.47656,1174.839 L88.67188,1129.677 L88.86719,1187.742 L89.0625,1187.742 L89.25781,1174.839 L89.45313,1161.935 L89.64844,1181.29 L89.84375,1161.935 L90.03906,1161.935 L90.23438,1116.774 L90.42969,1149.032 L90.625,1155.484 L90.82031,1110.323 L91.01563,1187.742 L91.21094,1187.742 L91.40625,1200.645 L91.60156,1187.742 L91.79688,1149.032 L91.99219,1174.839 L92.1875,1052.258 L92.38281,1200.645 L92.57813,1155.484 L92.77344,1103.871 L92.96875,1174.839 L93.16406,1129.677 L93.35938,1168.387 L93.55469,1174.839 L93.75,1161.935 L93.94531,1174.839 L94.14063,1181.29 L94.33594,1103.871 L94.53125,1187.742 L94.72656,1174.839 L94.92188,1181.29 L95.11719,1155.484 L95.3125,1187.742 L95.50781,1155.484 L95.70313,1142.581 L95.89844,1181.29 L96.09375,1187.742 L96.28906,1161.935 L96.48438,1181.29 L96.67969,1181.29 L96.875,1142.581 L97.07031,1194.194 L97.26563,1142.581 L97.46094,1181.29 L97.65625,1187.742 L97.85156,1168.387 L98.04688,1194.194 L98.24219,1129.677 L98.4375,1155.484 L98.63281,1123.226 L98.82813,1174.839 L99.02344,1136.129 L99.21875,1174.839 L99.41406,1168.387 L99.60938,1142.581 L99.80469,1155.484 L100,1168.387 L100.1953,1181.29 L100.3906,1174.839 L100.5859,1161.935 L100.7813,1142.581 L100.9766,1168.387 L101.1719,1142.581 L101.3672,1155.484 L101.5625,1174.839 L101.7578,1168.387 L101.9531,1110.323 L102.1484,1155.484 L102.3438,1155.484 L102.5391,1174.839 L102.7344,1168.387 L102.9297,1181.29 L103.125,1110.323 L103.3203,1136.129 L103.5156,1174.839 L103.7109,1168.387 L103.9063,1136.129 L104.1016,1142.581 L104.2969,1103.871 L104.4922,1065.161 L104.6875,1155.484 L104.8828,1168.387 L105.0781,1174.839 L105.2734,1174.839 L105.4688,1136.129 L105.6641,1142.581 L105.8594,1168.387 L106.0547,1155.484 L106.25,1161.935 L106.4453,1155.484 L106.6406,1161.935 L106.8359,1129.677 L107.0313,1142.581 L107.2266,1155.484 L107.4219,1149.032 L107.6172,1161.935 L107.8125,1168.387 L108.0078,1181.29 L108.2031,1168.387 L108.3984,1149.032 L108.5938,1174.839 L108.7891,1181.29 L108.9844,1129.677 L109.1797,1168.387 L109.375,1181.29 L109.5703,1161.935 L109.7656,1200.645 L109.9609,1155.484 L110.1563,1149.032 L110.3516,1161.935 L110.5469,1194.194 L110.7422,1129.677 L110.9375,1168.387 L111.1328,1161.935 L111.3281,1174.839 L111.5234,1161.935 L111.7188,1136.129 L111.9141,1149.032 L112.1094,1123.226 L112.3047,1207.097 L112.5,1181.29 L112.6953,1155.484 L112.8906,1187.742 L113.0859,1174.839 L113.2813,1155.484 L113.4766,1155.484 L113.6719,1149.032 L113.8672,1174.839 L114.0625,1136.129 L114.2578,1149.032 L114.4531,1136.129 L114.6484,1181.29 L114.8438,1194.194 L115.0391,1187.742 L115.2344,1194.194 L115.4297,1161.935 L115.625,1123.226 L115.8203,1187.742 L116.0156,1142.581 L116.2109,1129.677 L116.4063,1181.29 L116.6016,1161.935 L116.7969,1149.032 L116.9922,1194.194 L117.1875,1168.387 L117.3828,1136.129 L117.5781,1161.935 L117.7734,1194.194 L117.9688,1149.032 L118.1641,1116.774 L118.3594,1181.29 L118.5547,1187.742 L118.75,1200.645 L118.9453,1161.935 L119.1406,1194.194 L119.3359,1174.839 L119.5313,1129.677 L119.7266,1187.742 L119.9219,1110.323 L120.1172,1161.935 L120.3125,1174.839 L120.5078,1187.742 L120.7031,1181.29 L120.8984,1136.129 L121.0938,1142.581 L121.2891,1142.581 L121.4844,1200.645 L121.6797,1174.839 L121.875,1136.129 L122.0703,1149.032 L122.2656,1174.839 L122.4609,1194.194 L122.6563,1168.387 L122.8516,1149.032 L123.0469,1155.484 L123.2422,1110.323 L123.4375,1149.032 L123.6328,1200.645 L123.8281,1194.194 L124.0234,1149.032 L124.2188,1181.29 L124.4141,1161.935 L124.6094,1110.323 L124.8047,1174.839 L125,1194.194 L125.1953,1168.387 L125.3906,1187.742 L125.5859,1174.839 L125.7813,1194.194 L125.9766,1174.839 L126.1719,1149.032 L126.3672,1149.032 L126.5625,1181.29 L126.7578,1181.29 L126.9531,1181.29 L127.1484,1194.194 L127.3438,1200.645 L127.5391,1136.129 L127.7344,1181.29 L127.9297,1123.226 L128.125,1181.29 L128.3203,1194.194 L128.5156,1123.226 L128.7109,1181.29 L128.9063,1084.516 L129.1016,1168.387 L129.2969,1161.935 L129.4922,1194.194 L129.6875,1161.935 L129.8828,1161.935 L130.0781,1168.387 L130.2734,1181.29 L130.4688,1136.129 L130.6641,1136.129 L130.8594,1187.742 L131.0547,1181.29 L131.25,1181.29 L131.4453,1168.387 L131.6406,1174.839 L131.8359,1142.581 L132.0313,1168.387 L132.2266,1168.387 L132.4219,1155.484 L132.6172,1123.226 L132.8125,1161.935 L133.0078,1187.742 L133.2031,1174.839 L133.3984,1155.484 L133.5938,1187.742 L133.7891,1161.935 L133.9844,1149.032 L134.1797,1136.129 L134.375,1168.387 L134.5703,1187.742 L134.7656,1161.935 L134.9609,1161.935 L135.1563,1194.194 L135.3516,1168.387 L135.5469,1136.129 L135.7422,1194.194 L135.9375,1161.935 L136.1328,1136.129 L136.3281,1174.839 L136.5234,1194.194 L136.7188,1181.29 L136.9141,1161.935 L137.1094,1200.645 L137.3047,1155.484 L137.5,1161.935 L137.6953,1123.226 L137.8906,1168.387 L138.0859,1129.677 L138.2813,1161.935 L138.4766,1174.839 L138.6719,1149.032 L138.8672,1155.484 L139.0625,1174.839 L139.2578,1200.645 L139.4531,1181.29 L139.6484,1161.935 L139.8438,1181.29 L140.0391,1155.484 L140.2344,1155.484 L140.4297,1161.935 L140.625,1174.839 L140.8203,1168.387 L141.0156,1187.742 L141.2109,1168.387 L141.4063,1174.839 L141.6016,1187.742 L141.7969,1149.032 L141.9922,1110.323 L142.1875,1174.839 L142.3828,1155.484 L142.5781,1149.032 L142.7734,1187.742 L142.9688,1187.742 L143.1641,1129.677 L143.3594,1161.935 L143.5547,1194.194 L143.75,1142.581 L143.9453,1187.742 L144.1406,1142.581 L144.3359,1129.677 L144.5313,1187.742 L144.7266,1194.194 L144.9219,1142.581 L145.1172,1181.29 L145.3125,1174.839 L145.5078,1168.387 L145.7031,1136.129 L145.8984,1149.032 L146.0938,1142.581 L146.2891,1174.839 L146.4844,1142.581 L146.6797,1174.839 L146.875,1187.742 L147.0703,1142.581 L147.2656,1174.839 L147.4609,1136.129 L147.6563,1174.839 L147.8516,1181.29 L148.0469,1174.839 L148.2422,1187.742 L148.4375,1155.484 L148.6328,1149.032 L148.8281,1174.839 L149.0234,1174.839 L149.2188,1187.742 L149.4141,1155.484 L149.6094,1168.387 L149.8047,1174.839 L150,1161.935 L150.1953,1045.806 L150.3906,1187.742 L150.5859,1168.387 L150.7813,1174.839 L150.9766,1168.387 L151.1719,1174.839 L151.3672,1155.484 L151.5625,1168.387 L151.7578,1161.935 L151.9531,1155.484 L152.1484,1174.839 L152.3438,1187.742 L152.5391,1168.387 L152.7344,1181.29 L152.9297,1181.29 L153.125,1187.742 L153.3203,1155.484 L153.5156,1168.387 L153.7109,1213.548 L153.9063,1161.935 L154.1016,1168.387 L154.2969,1116.774 L154.4922,1142.581 L154.6875,1155.484 L154.8828,1149.032 L155.0781,1194.194 L155.2734,1181.29 L155.4688,1161.935 L155.6641,1097.419 L155.8594,1174.839 L156.0547,1181.29 L156.25,1155.484 L156.4453,1187.742 L156.6406,1168.387 L156.8359,1174.839 L157.0313,1110.323 L157.2266,1187.742 L157.4219,1103.871 L157.6172,1174.839 L157.8125,1168.387 L158.0078,1194.194 L158.2031,1174.839 L158.3984,1129.677 L158.5938,1181.29 L158.7891,1181.29 L158.9844,1168.387 L159.1797,1168.387 L159.375,1168.387 L159.5703,1187.742 L159.7656,1123.226 L159.9609,1149.032 L160.1563,1187.742 L160.3516,1187.742 L160.5469,1142.581 L160.7422,1155.484 L160.9375,1142.581 L161.1328,1142.581 L161.3281,1155.484 L161.5234,1116.774 L161.7188,1136.129 L161.9141,1123.226 L162.1094,1174.839 L162.3047,1168.387 L162.5,1187.742 L162.6953,1155.484 L162.8906,1187.742 L163.0859,1161.935 L163.2813,1187.742 L163.4766,1168.387 L163.6719,1194.194 L163.8672,1142.581 L164.0625,1155.484 L164.2578,1181.29 L164.4531,1168.387 L164.6484,1194.194 L164.8438,1168.387 L165.0391,1136.129 L165.2344,1123.226 L165.4297,1142.581 L165.625,1174.839 L165.8203,1207.097 L166.0156,1174.839 L166.2109,1142.581 L166.4063,1136.129 L166.6016,1149.032 L166.7969,1090.968 L166.9922,1187.742 L167.1875,1123.226 L167.3828,1161.935 L167.5781,1142.581 L167.7734,1168.387 L167.9688,1149.032 L168.1641,1181.29 L168.3594,1142.581 L168.5547,1142.581 L168.75,1181.29 L168.9453,1187.742 L169.1406,1181.29 L169.3359,1181.29 L169.5313,1168.387 L169.7266,1181.29 L169.9219,1129.677 L170.1172,1129.677 L170.3125,1187.742 L170.5078,1194.194 L170.7031,1161.935 L170.8984,1161.935 L171.0938,1187.742 L171.2891,1116.774 L171.4844,1155.484 L171.6797,1194.194 L171.875,1161.935 L172.0703,1174.839 L172.2656,1174.839 L172.4609,1149.032 L172.6563,1181.29 L172.8516,1181.29 L173.0469,1181.29 L173.2422,1161.935 L173.4375,1161.935 L173.6328,1181.29 L173.8281,1181.29 L174.0234,1090.968 L174.2188,1187.742 L174.4141,1181.29 L174.6094,1155.484 L174.8047,1194.194 L175,1200.645 L175.1953,1187.742 L175.3906,1161.935 L175.5859,1155.484 L175.7813,1168.387 L175.9766,1174.839 L176.1719,1168.387 L176.3672,1149.032 L176.5625,1155.484 L176.7578,1161.935 L176.9531,1155.484 L177.1484,1181.29 L177.3438,1181.29 L177.5391,1155.484 L177.7344,1136.129 L177.9297,1168.387 L178.125,1200.645 L178.3203,1149.032 L178.5156,1116.774 L178.7109,1155.484 L178.9063,1187.742 L179.1016,1200.645 L179.2969,1174.839 L179.4922,1174.839 L179.6875,1129.677 L179.8828,1116.774 L180.0781,1168.387 L180.2735,1168.387 L180.4688,1174.839 L180.6641,1181.29 L180.8594,1194.194 L181.0547,1168.387 L181.25,1194.194 L181.4453,1174.839 L181.6406,1181.29 L181.8359,1155.484 L182.0313,1149.032 L182.2266,1136.129 L182.4219,1174.839 L182.6172,1168.387 L182.8125,1155.484 L183.0078,1194.194 L183.2031,1110.323 L183.3984,1187.742 L183.5938,1129.677 L183.7891,1194.194 L183.9844,1097.419 L184.1797,1194.194 L184.375,1187.742 L184.5703,1187.742 L184.7656,1149.032 L184.9609,1168.387 L185.1563,1168.387 L185.3516,1149.032 L185.5469,1161.935 L185.7422,1123.226 L185.9375,1129.677 L186.1328,1181.29 L186.3281,1116.774 L186.5234,1136.129 L186.7188,1161.935 L186.9141,1142.581 L187.1094,1168.387 L187.3047,1161.935 L187.5,1116.774 L187.6953,1174.839 L187.8906,1161.935 L188.086,1155.484 L188.2813,1187.742 L188.4766,1174.839 L188.6719,1181.29 L188.8672,1181.29 L189.0625,1161.935 L189.2578,1181.29 L189.4531,1149.032 L189.6484,1187.742 L189.8438,1194.194 L190.0391,1187.742 L190.2344,1136.129 L190.4297,1161.935 L190.625,1168.387 L190.8203,1187.742 L191.0156,1142.581 L191.2109,1149.032 L191.4063,1149.032 L191.6016,1181.29 L191.7969,1181.29 L191.9922,1194.194 L192.1875,1161.935 L192.3828,1123.226 L192.5781,1168.387 L192.7734,1116.774 L192.9688,1161.935 L193.1641,1161.935 L193.3594,1168.387 L193.5547,1142.581 L193.75,1174.839 L193.9453,1174.839 L194.1406,1161.935 L194.3359,1181.29 L194.5313,1142.581 L194.7266,1181.29 L194.9219,1174.839 L195.1172,1161.935 L195.3125,1078.065 L195.5078,1174.839 L195.7031,1187.742 L195.8985,1194.194 L196.0938,1174.839 L196.2891,1187.742 L196.4844,1155.484 L196.6797,1110.323 L196.875,1155.484 L197.0703,1161.935 L197.2656,1149.032 L197.4609,1155.484 L197.6563,1149.032 L197.8516,1200.645 L198.0469,1161.935 L198.2422,1194.194 L198.4375,1129.677 L198.6328,1129.677 L198.8281,1149.032 L199.0234,1161.935 L199.2188,1168.387 L199.4141,1168.387 L199.6094,1136.129 L199.8047,1123.226 L200,1181.29 L200.1953,1161.935 L200.3906,1155.484 L200.5859,1181.29 L200.7813,1181.29 L200.9766,1194.194 L201.1719,1161.935 L201.3672,1161.935 L201.5625,1161.935 L201.7578,1149.032 L201.9531,1200.645 L202.1484,1136.129 L202.3438,1200.645 L202.5391,1174.839 L202.7344,1187.742 L202.9297,1168.387 L203.125,1090.968 L203.3203,1161.935 L203.5156,1142.581 L203.711,1110.323 L203.9063,1168.387 L204.1016,1187.742 L204.2969,1123.226 L204.4922,1168.387 L204.6875,1181.29 L204.8828,1168.387 L205.0781,1168.387 L205.2734,1155.484 L205.4688,1123.226 L205.6641,1129.677 L205.8594,1168.387 L206.0547,1187.742 L206.25,1142.581 L206.4453,1129.677 L206.6406,1168.387 L206.8359,1149.032 L207.0313,1181.29 L207.2266,1123.226 L207.4219,1149.032 L207.6172,1168.387 L207.8125,1149.032 L208.0078,1110.323 L208.2031,1129.677 L208.3984,1155.484 L208.5938,1155.484 L208.7891,1168.387 L208.9844,1174.839 L209.1797,1187.742 L209.375,1187.742 L209.5703,1123.226 L209.7656,1103.871 L209.9609,1181.29 L210.1563,1181.29 L210.3516,1136.129 L210.5469,1200.645 L210.7422,1194.194 L210.9375,1155.484 L211.1328,1187.742 L211.3281,1161.935 L211.5235,1194.194 L211.7188,1194.194 L211.9141,1174.839 L212.1094,1174.839 L212.3047,1174.839 L212.5,1136.129 L212.6953,1187.742 L212.8906,1174.839 L213.0859,1149.032 L213.2813,1168.387 L213.4766,1149.032 L213.6719,1129.677 L213.8672,1168.387 L214.0625,1168.387 L214.2578,1194.194 L214.4531,1187.742 L214.6484,1155.484 L214.8438,1187.742 L215.0391,1161.935 L215.2344,1187.742 L215.4297,1174.839 L215.625,1155.484 L215.8203,1129.677 L216.0156,1174.839 L216.2109,1194.194 L216.4063,1181.29 L216.6016,1181.29 L216.7969,1161.935 L216.9922,1161.935 L217.1875,1200.645 L217.3828,1168.387 L217.5781,1168.387 L217.7734,1181.29 L217.9688,1161.935 L218.1641,1187.742 L218.3594,1174.839 L218.5547,1181.29 L218.75,1168.387 L218.9453,1194.194 L219.1406,1181.29 L219.336,1174.839 L219.5313,1168.387 L219.7266,1220 L219.9219,1187.742 L220.1172,1161.935 L220.3125,1187.742 L220.5078,1187.742 L220.7031,1161.935 L220.8984,1174.839 L221.0938,1174.839 L221.2891,1194.194 L221.4844,1181.29 L221.6797,1200.645 L221.875,1155.484 L222.0703,1168.387 L222.2656,1168.387 L222.4609,1161.935 L222.6563,1161.935 L222.8516,1181.29 L223.0469,1161.935 L223.2422,1187.742 L223.4375,1207.097 L223.6328,1161.935 L223.8281,1168.387 L224.0234,1129.677 L224.2188,1174.839 L224.4141,1123.226 L224.6094,1142.581 L224.8047,1155.484 L225,1207.097 L225.1953,1168.387 L225.3906,1123.226 L225.5859,1116.774 L225.7813,1142.581 L225.9766,1168.387 L226.1719,1161.935 L226.3672,1187.742 L226.5625,1168.387 L226.7578,1110.323 L226.9531,1168.387 L227.1485,1161.935 L227.3438,1168.387 L227.5391,1181.29 L227.7344,1149.032 L227.9297,1181.29 L228.125,1161.935 L228.3203,1174.839 L228.5156,1123.226 L228.7109,1181.29 L228.9063,1181.29 L229.1016,1187.742 L229.2969,1200.645 L229.4922,1142.581 L229.6875,1194.194 L229.8828,1168.387 L230.0781,1181.29 L230.2734,1155.484 L230.4688,1161.935 L230.6641,1149.032 L230.8594,1129.677 L231.0547,1161.935 L231.25,1142.581 L231.4453,1181.29 L231.6406,1097.419 L231.8359,1187.742 L232.0313,1155.484 L232.2266,1168.387 L232.4219,1181.29 L232.6172,1174.839 L232.8125,1161.935 L233.0078,1149.032 L233.2031,1097.419 L233.3984,1123.226 L233.5938,1194.194 L233.7891,1200.645 L233.9844,1174.839 L234.1797,1155.484 L234.375,1142.581 L234.5703,1103.871 L234.7656,1168.387 L234.961,1136.129 L235.1563,1168.387 L235.3516,1161.935 L235.5469,1168.387 L235.7422,1168.387 L235.9375,1161.935 L236.1328,1194.194 L236.3281,1161.935 L236.5234,1181.29 L236.7188,1155.484 L236.9141,1187.742 L237.1094,1187.742 L237.3047,1161.935 L237.5,1187.742 L237.6953,1194.194 L237.8906,1129.677 L238.0859,1129.677 L238.2813,1200.645 L238.4766,1187.742 L238.6719,1155.484 L238.8672,1168.387 L239.0625,1149.032 L239.2578,1142.581 L239.4531,1174.839 L239.6484,1142.581 L239.8438,1161.935 L240.0391,1110.323 L240.2344,1161.935 L240.4297,1194.194 L240.625,1174.839 L240.8203,1155.484 L241.0156,1142.581 L241.2109,1136.129 L241.4063,1174.839 L241.6016,1161.935 L241.7969,1149.032 L241.9922,1174.839 L242.1875,1187.742 L242.3828,1174.839 L242.5781,1149.032 L242.7735,1161.935 L242.9688,1103.871 L243.1641,1155.484 L243.3594,1161.935 L243.5547,1142.581 L243.75,1168.387 L243.9453,1187.742 L244.1406,1149.032 L244.3359,1194.194 L244.5313,1129.677 L244.7266,1194.194 L244.9219,1174.839 L245.1172,1142.581 L245.3125,1181.29 L245.5078,1116.774 L245.7031,1116.774 L245.8984,1161.935 L246.0938,1200.645 L246.2891,1161.935 L246.4844,1149.032 L246.6797,1181.29 L246.875,1110.323 L247.0703,1168.387 L247.2656,1155.484 L247.4609,1142.581 L247.6563,1155.484 L247.8516,1161.935 L248.0469,1194.194 L248.2422,1194.194 L248.4375,1187.742 L248.6328,1174.839 L248.8281,1161.935 L249.0234,1181.29 L249.2188,1168.387 L249.4141,1187.742 L249.6094,1136.129 L249.8047,1207.097 L250,1187.742 L250.1953,1161.935 L250.3906,1149.032 L250.586,1194.194 L250.7813,1149.032 L250.9766,1090.968 L251.1719,1181.29 L251.3672,1161.935 L251.5625,1174.839 L251.7578,1155.484 L251.9531,1181.29 L252.1484,1187.742 L252.3438,1194.194 L252.5391,1174.839 L252.7344,1149.032 L252.9297,1161.935 L253.125,1174.839 L253.3203,1136.129 L253.5156,1026.452 L253.7109,1155.484 L253.9063,1161.935 L254.1016,1149.032 L254.2969,1116.774 L254.4922,1149.032 L254.6875,1200.645 L254.8828,1155.484 L255.0781,1142.581 L255.2734,1181.29 L255.4688,1142.581 L255.6641,1194.194 L255.8594,1187.742 L256.0547,1123.226 L256.25,1155.484 L256.4453,1187.742 L256.6406,1161.935 L256.8359,1149.032 L257.0313,1181.29 L257.2266,1142.581 L257.4219,1174.839 L257.6172,1155.484 L257.8125,1129.677 L258.0078,1161.935 L258.2031,1142.581 L258.3984,1187.742 L258.5938,1174.839 L258.7891,1181.29 L258.9844,1194.194 L259.1797,1142.581 L259.375,1187.742 L259.5703,1174.839 L259.7656,1161.935 L259.9609,1174.839 L260.1563,1142.581 L260.3516,1142.581 L260.5469,1194.194 L260.7422,1168.387 L260.9375,1129.677 L261.1328,1116.774 L261.3281,1155.484 L261.5234,1161.935 L261.7188,1168.387 L261.9141,1097.419 L262.1094,1161.935 L262.3047,1168.387 L262.5,1020 L262.6953,1187.742 L262.8906,1161.935 L263.0859,1174.839 L263.2813,1155.484 L263.4766,1136.129 L263.6719,1155.484 L263.8672,1181.29 L264.0625,1136.129 L264.2578,1110.323 L264.4531,1149.032 L264.6484,1174.839 L264.8438,1181.29 L265.0391,1142.581 L265.2344,1187.742 L265.4297,1155.484 L265.625,1161.935 L265.8203,1194.194 L266.0156,1168.387 L266.2109,1181.29 L266.4063,1136.129 L266.6016,1194.194 L266.7969,1181.29 L266.9922,1168.387 L267.1875,1187.742 L267.3828,1200.645 L267.5781,1181.29 L267.7734,1149.032 L267.9688,1187.742 L268.1641,1116.774 L268.3594,1187.742 L268.5547,1187.742 L268.75,1181.29 L268.9453,1174.839 L269.1406,1161.935 L269.3359,1168.387 L269.5313,1090.968 L269.7266,1187.742 L269.9219,1174.839 L270.1172,1168.387 L270.3125,1181.29 L270.5078,1097.419 L270.7031,1174.839 L270.8984,1103.871 L271.0938,1149.032 L271.2891,1187.742 L271.4844,1174.839 L271.6797,1142.581 L271.875,1161.935 L272.0703,1174.839 L272.2656,1149.032 L272.4609,1187.742 L272.6563,1194.194 L272.8516,1168.387 L273.0469,1187.742 L273.2422,1161.935 L273.4375,1200.645 L273.6328,1168.387 L273.8281,1174.839 L274.0234,1181.29 L274.2188,1168.387 L274.4141,1161.935 L274.6094,1136.129 L274.8047,1149.032 L275,1168.387 L275.1953,1161.935 L275.3906,1181.29 L275.5859,1129.677 L275.7813,1161.935 L275.9766,1187.742 L276.1719,1155.484 L276.3672,1116.774 L276.5625,1136.129 L276.7578,1136.129 L276.9531,1181.29 L277.1484,1168.387 L277.3438,1168.387 L277.5391,1181.29 L277.7344,1200.645 L277.9297,1161.935 L278.125,1181.29 L278.3203,1161.935 L278.5156,1174.839 L278.7109,1155.484 L278.9063,1213.548 L279.1016,1149.032 L279.2969,1110.323 L279.4922,1168.387 L279.6875,1187.742 L279.8828,1168.387 L280.0781,1161.935 L280.2734,1149.032 L280.4688,1129.677 L280.6641,1174.839 L280.8594,1194.194 L281.0547,1181.29 L281.25,1174.839 L281.4453,1187.742 L281.6406,1174.839 L281.8359,1181.29 L282.0313,1174.839 L282.2266,1181.29 L282.4219,1155.484 L282.6172,1181.29 L282.8125,1187.742 L283.0078,1155.484 L283.2031,1187.742 L283.3984,1155.484 L283.5938,1174.839 L283.7891,1149.032 L283.9844,1149.032 L284.1797,1136.129 L284.375,1161.935 L284.5703,1174.839 L284.7656,1181.29 L284.9609,1181.29 L285.1563,1136.129 L285.3516,1174.839 L285.5469,1149.032 L285.7422,1181.29 L285.9375,1136.129 L286.1328,1161.935 L286.3281,1110.323 L286.5234,1110.323 L286.7188,1181.29 L286.9141,1090.968 L287.1094,1097.419 L287.3047,1194.194 L287.5,1136.129 L287.6953,1149.032 L287.8906,1161.935 L288.0859,1161.935 L288.2813,1174.839 L288.4766,1142.581 L288.6719,1181.29 L288.8672,1181.29 L289.0625,1155.484 L289.2578,1174.839 L289.4531,1155.484 L289.6484,1129.677 L289.8438,1161.935 L290.0391,1174.839 L290.2344,1161.935 L290.4297,1149.032 L290.625,1078.065 L290.8203,1155.484 L291.0156,1168.387 L291.2109,1168.387 L291.4063,1181.29 L291.6016,1181.29 L291.7969,1181.29 L291.9922,1194.194 L292.1875,1207.097 L292.3828,1174.839 L292.5781,1155.484 L292.7734,1161.935 L292.9688,1181.29 L293.1641,1149.032 L293.3594,1161.935 L293.5547,1149.032 L293.75,1155.484 L293.9453,1174.839 L294.1406,1174.839 L294.3359,1142.581 L294.5313,1194.194 L294.7266,1155.484 L294.9219,1142.581 L295.1172,1187.742 L295.3125,1174.839 L295.5078,1129.677 L295.7031,1213.548 L295.8984,1149.032 L296.0938,1168.387 L296.2891,1142.581 L296.4844,1155.484 L296.6797,1161.935 L296.875,1168.387 L297.0703,1116.774 L297.2656,1149.032 L297.4609,1181.29 L297.6563,1129.677 L297.8516,1142.581 L298.0469,1161.935 L298.2422,1187.742 L298.4375,1181.29 L298.6328,1129.677 L298.8281,1181.29 L299.0234,1161.935 L299.2188,1123.226 L299.4141,1174.839 L299.6094,1213.548 L299.8047,1136.129 L300,1181.29 L300.1953,1181.29 L300.3906,1181.29 L300.5859,1149.032 L300.7813,1168.387 L300.9766,1181.29 L301.1719,1187.742 L301.3672,1181.29 L301.5625,1116.774 L301.7578,1136.129 L301.9531,1161.935 L302.1484,1187.742 L302.3438,1149.032 L302.5391,1103.871 L302.7344,1155.484 L302.9297,1174.839 L303.125,1168.387 L303.3203,1142.581 L303.5156,1142.581 L303.711,1149.032 L303.9063,1168.387 L304.1016,1058.71 L304.2969,1142.581 L304.4922,1168.387 L304.6875,1207.097 L304.8828,1181.29 L305.0781,1129.677 L305.2734,1174.839 L305.4688,1161.935 L305.6641,1155.484 L305.8594,1142.581 L306.0547,1187.742 L306.25,1168.387 L306.4453,1168.387 L306.6407,1181.29 L306.8359,1174.839 L307.0313,1045.806 L307.2266,1168.387 L307.4219,1129.677 L307.6172,1168.387 L307.8125,1207.097 L308.0078,1142.581 L308.2031,1181.29 L308.3984,1174.839 L308.5938,1155.484 L308.7891,1161.935 L308.9844,1187.742 L309.1797,1168.387 L309.375,1136.129 L309.5703,1181.29 L309.7656,1181.29 L309.9609,1149.032 L310.1563,1155.484 L310.3516,1149.032 L310.5469,1149.032 L310.7422,1168.387 L310.9375,1136.129 L311.1328,1187.742 L311.3281,1149.032 L311.5235,1181.29 L311.7188,1149.032 L311.9141,1161.935 L312.1094,1181.29 L312.3047,1161.935 L312.5,1187.742 L312.6953,1168.387 L312.8906,1142.581 L313.0859,1149.032 L313.2813,1110.323 L313.4766,1200.645 L313.6719,1194.194 L313.8672,1168.387 L314.0625,1142.581 L314.2578,1149.032 L314.4532,1194.194 L314.6484,1174.839 L314.8438,1194.194 L315.0391,1168.387 L315.2344,1168.387 L315.4297,1200.645 L315.625,1078.065 L315.8203,1181.29 L316.0156,1187.742 L316.2109,1168.387 L316.4063,1181.29 L316.6016,1194.194 L316.7969,1168.387 L316.9922,1161.935 L317.1875,1129.677 L317.3828,1129.677 L317.5781,1168.387 L317.7734,1174.839 L317.9688,1161.935 L318.1641,1155.484 L318.3594,1181.29 L318.5547,1155.484 L318.75,1181.29 L318.9453,1187.742 L319.1406,1174.839 L319.336,1155.484 L319.5313,1194.194 L319.7266,1149.032 L319.9219,1174.839 L320.1172,1187.742 L320.3125,1168.387 L320.5078,1194.194 L320.7031,1174.839 L320.8984,1103.871 L321.0938,1174.839 L321.2891,1174.839 L321.4844,1161.935 L321.6797,1142.581 L321.875,1129.677 L322.0703,1129.677 L322.2657,1161.935 L322.4609,1161.935 L322.6563,1194.194 L322.8516,1142.581 L323.0469,1194.194 L323.2422,1149.032 L323.4375,1187.742 L323.6328,1161.935 L323.8281,1168.387 L324.0234,1155.484 L324.2188,1174.839 L324.4141,1129.677 L324.6094,1161.935 L324.8047,1187.742 L325,1168.387 L325.1953,1187.742 L325.3906,1174.839 L325.5859,1116.774 L325.7813,1194.194 L325.9766,1168.387 L326.1719,1168.387 L326.3672,1200.645 L326.5625,1129.677 L326.7578,1136.129 L326.9531,1168.387 L327.1485,1149.032 L327.3438,1200.645 L327.5391,1207.097 L327.7344,1161.935 L327.9297,1168.387 L328.125,1181.29 L328.3203,1187.742 L328.5156,1200.645 L328.7109,1194.194 L328.9063,1142.581 L329.1016,1174.839 L329.2969,1123.226 L329.4922,1161.935 L329.6875,1174.839 L329.8828,1200.645 L330.0782,1174.839 L330.2734,1181.29 L330.4688,1174.839 L330.6641,1116.774 L330.8594,1136.129 L331.0547,1161.935 L331.25,1181.29 L331.4453,1187.742 L331.6406,1142.581 L331.8359,1174.839 L332.0313,1187.742 L332.2266,1136.129 L332.4219,1187.742 L332.6172,1174.839 L332.8125,1174.839 L333.0078,1200.645 L333.2031,1168.387 L333.3984,1168.387 L333.5938,1142.581 L333.7891,1187.742 L333.9844,1194.194 L334.1797,1200.645 L334.375,1187.742 L334.5703,1155.484 L334.7656,1161.935 L334.961,1187.742 L335.1563,1103.871 L335.3516,1123.226 L335.5469,1187.742 L335.7422,1181.29 L335.9375,1161.935 L336.1328,1168.387 L336.3281,1155.484 L336.5234,1103.871 L336.7188,1181.29 L336.9141,1161.935 L337.1094,1174.839 L337.3047,1155.484 L337.5,1149.032 L337.6953,1181.29 L337.8907,1174.839 L338.0859,1168.387 L338.2813,1142.581 L338.4766,1168.387 L338.6719,1084.516 L338.8672,1207.097 L339.0625,1090.968 L339.2578,1187.742 L339.4531,1129.677 L339.6484,1142.581 L339.8438,1155.484 L340.0391,1149.032 L340.2344,1168.387 L340.4297,1149.032 L340.625,1181.29 L340.8203,1174.839 L341.0156,1181.29 L341.2109,1142.581 L341.4063,1142.581 L341.6016,1187.742 L341.7969,1187.742 L341.9922,1136.129 L342.1875,1174.839 L342.3828,1187.742 L342.5781,1161.935 L342.7735,1149.032 L342.9688,1174.839 L343.1641,1161.935 L343.3594,1174.839 L343.5547,1149.032 L343.75,1168.387 L343.9453,1174.839 L344.1406,1168.387 L344.3359,1181.29 L344.5313,1174.839 L344.7266,1155.484 L344.9219,1207.097 L345.1172,1136.129 L345.3125,1078.065 L345.5078,1149.032 L345.7032,1187.742 L345.8984,1194.194 L346.0938,1181.29 L346.2891,1174.839 L346.4844,1174.839 L346.6797,1136.129 L346.875,1149.032 L347.0703,1174.839 L347.2656,1187.742 L347.4609,1181.29 L347.6563,1149.032 L347.8516,1110.323 L348.0469,1129.677 L348.2422,1194.194 L348.4375,1155.484 L348.6328,1174.839 L348.8281,1174.839 L349.0234,1194.194 L349.2188,1155.484 L349.4141,1155.484 L349.6094,1149.032 L349.8047,1161.935 L350,1161.935 L350.1953,1090.968 L350.3906,1194.194 L350.586,1168.387 L350.7813,1194.194 L350.9766,1194.194 L351.1719,1181.29 L351.3672,1161.935 L351.5625,1187.742 L351.7578,1194.194 L351.9531,1065.161 L352.1484,1116.774 L352.3438,1065.161 L352.5391,1181.29 L352.7344,1155.484 L352.9297,1129.677 L353.125,1155.484 L353.3203,1174.839 L353.5157,1123.226 L353.7109,1168.387 L353.9063,1161.935 L354.1016,1155.484 L354.2969,1181.29 L354.4922,1149.032 L354.6875,1187.742 L354.8828,1168.387 L355.0781,1168.387 L355.2734,1194.194 L355.4688,1161.935 L355.6641,1142.581 L355.8594,1155.484 L356.0547,1187.742 L356.25,1129.677 L356.4453,1181.29 L356.6406,1155.484 L356.8359,1149.032 L357.0313,1136.129 L357.2266,1149.032 L357.4219,1161.935 L357.6172,1084.516 L357.8125,1136.129 L358.0078,1155.484 L358.2031,1136.129 L358.3985,1103.871 L358.5938,1181.29 L358.7891,1136.129 L358.9844,1149.032 L359.1797,1155.484 L359.375,1136.129 L359.5703,1142.581 L359.7656,1161.935 L359.9609,1155.484 L360.1563,1187.742 L360.3516,1155.484 L360.5469,1129.677 L360.7422,1136.129 L360.9375,1142.581 L361.1328,1181.29 L361.3282,1110.323 L361.5234,1168.387 L361.7188,1136.129 L361.9141,1155.484 L362.1094,1181.29 L362.3047,1194.194 L362.5,1155.484 L362.6953,1123.226 L362.8906,1103.871 L363.0859,1187.742 L363.2813,1174.839 L363.4766,1161.935 L363.6719,1220 L363.8672,1161.935 L364.0625,1181.29 L364.2578,1142.581 L364.4531,1174.839 L364.6484,1194.194 L364.8438,1136.129 L365.0391,1174.839 L365.2344,1181.29 L365.4297,1149.032 L365.625,1161.935 L365.8203,1116.774 L366.0156,1142.581 L366.211,1200.645 L366.4063,1174.839 L366.6016,1187.742 L366.7969,1155.484 L366.9922,1168.387 L367.1875,1065.161 L367.3828,1187.742 L367.5781,1161.935 L367.7734,1142.581 L367.9688,1187.742 L368.1641,1187.742 L368.3594,1110.323 L368.5547,1142.581 L368.75,1168.387 L368.9453,1200.645 L369.1407,1142.581 L369.3359,1097.419 L369.5313,1149.032 L369.7266,1194.194 L369.9219,1174.839 L370.1172,1168.387 L370.3125,1161.935 L370.5078,1194.194 L370.7031,1181.29 L370.8984,1187.742 L371.0938,1200.645 L371.2891,1123.226 L371.4844,1116.774 L371.6797,1142.581 L371.875,1149.032 L372.0703,1181.29 L372.2656,1168.387 L372.4609,1116.774 L372.6563,1200.645 L372.8516,1136.129 L373.0469,1174.839 L373.2422,1155.484 L373.4375,1155.484 " stroke="blue" fill="none" />
<text x="50" y="1270" font-family="Arial" font-size="12" fill="black">Policy Loss</text>
<text x="50" y="1285" font-family="Arial" font-size="10" fill="black">0.7751076</text>
<text x="50" y="1500" font-family="Arial" font-size="10" fill="black">0.7751076</text>
<path d="M50,1490 " stroke="blue" fill="none" />
<text x="50" y="1540" font-family="Arial" font-size="12" fill="black">Value Loss</text>
<text x="50" y="1555" font-family="Arial" font-size="10" fill="black">0.2230767</text>
<text x="50" y="1770" font-family="Arial" font-size="10" fill="black">0.2230767</text>
<path d="M50,1760 " stroke="blue" fill="none" />
<text x="50" y="1810" font-family="Arial" font-size="12" fill="black">Learning Rate</text>
<text x="50" y="1825" font-family="Arial" font-size="10" fill="black">9.9999E-05</text>
<text x="50" y="2040" font-family="Arial" font-size="10" fill="black">9.9999E-05</text>
<path d="M50,2030 " stroke="blue" fill="none" />
<text x="50" y="2080" font-family="Arial" font-size="12" fill="black">Entropy</text>
<text x="50" y="2095" font-family="Arial" font-size="10" fill="black">1.172043</text>
<text x="50" y="2310" font-family="Arial" font-size="10" fill="black">1.172043</text>
<path d="M50,2300 " stroke="blue" fill="none" />
<text x="750" y="730" font-family="Arial" font-size="12" fill="black">Simplified</text>
<text x="750" y="745" font-family="Arial" font-size="10" fill="black">-0.6544737</text>
<text x="750" y="960" font-family="Arial" font-size="10" fill="black">-1.0775</text>
<path d="M753.5156,796.0341 L757.2266,870.9953 L760.9375,810.3422 L764.6484,759.6423 L768.3594,850.4666 L772.0703,750 L775.7813,833.0482 L779.4922,801.633 L783.2031,835.2255 L786.9141,828.0716 L790.625,775.8165 L794.3359,857.9316 L798.0469,885.3033 L801.7578,871.3063 L805.4688,811.5863 L809.1797,772.0839 L812.8906,815.9409 L816.6016,812.8305 L820.3125,790.7465 L824.0234,851.0886 L827.7344,872.2395 L831.4453,862.5972 L835.1563,790.1245 L838.8672,850.7776 L842.5781,817.4961 L846.2891,814.6967 L850,830.2488 L853.7109,768.0404 L857.4219,857.6205 L861.1328,777.9938 L864.8438,865.0856 L868.5547,803.1882 L872.2656,806.9207 L875.9766,845.4899 L879.6875,814.0746 L883.3984,816.563 L887.1094,893.7014 L890.8203,856.6874 L894.5313,798.5226 L898.2422,801.944 L901.9531,799.4557 L905.6641,843.9347 L909.375,858.2426 L913.0859,805.6766 L916.7969,769.5956 L920.5078,804.4324 L924.2188,834.9145 L927.9297,783.5925 L931.6406,825.2722 L935.3516,784.5257 L939.0625,782.9705 L942.7734,897.7449 L946.4844,808.7869 L950.1953,844.5568 L953.9063,856.9985 L957.6172,824.028 L961.3281,861.9751 L965.0391,750.9331 L968.75,886.2364 L972.4609,784.8367 L976.1719,831.182 L979.8828,777.6827 L983.5938,759.6424 L987.3047,864.4634 L991.0156,757.154 L994.7266,820.9176 L998.4375,798.8336 L1002.148,840.5131 L1005.859,803.1882 L1009.57,813.4526 L1013.281,785.1478 L1016.992,834.9144 L1020.703,793.8569 L1024.414,846.4231 L1028.125,870.0622 L1031.836,855.7543 L1035.547,820.2955 L1039.258,809.098 L1042.969,812.8305 L1046.68,777.9938 L1050.391,823.717 L1054.102,818.4293 L1057.813,857.9315 L1061.523,813.1415 L1065.234,791.0575 L1068.945,834.6035 L1072.656,761.8196 L1073.438,950 " stroke="blue" fill="none" />
<text x="750" y="1000" font-family="Arial" font-size="12" fill="black">Simplified</text>
<text x="750" y="1015" font-family="Arial" font-size="10" fill="black">15.31579</text>
<text x="750" y="1230" font-family="Arial" font-size="10" fill="black">8.526316</text>
<path d="M753.5156,1220 L757.2266,1159.535 L760.9375,1105.271 L764.6484,1091.318 L768.3594,1100.62 L772.0703,1089.767 L775.7813,1126.977 L779.4922,1094.419 L783.2031,1075.814 L786.9141,1040.155 L790.625,1089.767 L794.3359,1064.961 L798.0469,1139.38 L801.7578,1069.612 L805.4688,1020 L809.1797,1071.163 L812.8906,1103.721 L816.6016,1088.217 L820.3125,1102.171 L824.0234,1092.868 L827.7344,1136.279 L831.4453,1088.217 L835.1563,1099.07 L838.8672,1091.318 L842.5781,1111.473 L846.2891,1097.519 L850,1113.023 L853.7109,1113.023 L857.4219,1063.411 L861.1328,1100.62 L864.8438,1100.62 L868.5547,1040.155 L872.2656,1120.775 L875.9766,1126.977 L879.6875,1094.419 L883.3984,1106.822 L887.1094,1057.209 L890.8203,1120.775 L894.5313,1078.915 L898.2422,1095.969 L901.9531,1083.566 L905.6641,1057.209 L909.375,1066.512 L913.0859,1114.574 L916.7969,1120.775 L920.5078,1170.388 L924.2188,1136.279 L927.9297,1066.512 L931.6406,1088.217 L935.3516,1071.163 L939.0625,1125.426 L942.7734,1077.364 L946.4844,1068.062 L950.1953,1122.326 L953.9063,1060.31 L957.6172,1082.016 L961.3281,1085.116 L965.0391,1027.752 L968.75,1144.031 L972.4609,1072.713 L976.1719,1117.674 L979.8828,1099.07 L983.5938,1133.178 L987.3047,1035.504 L991.0156,1058.76 L994.7266,1128.527 L998.4375,1080.465 L1002.148,1102.171 L1005.859,1040.155 L1009.57,1091.318 L1013.281,1074.264 L1016.992,1136.279 L1020.703,1117.674 L1024.414,1069.612 L1028.125,1125.426 L1031.836,1116.124 L1035.547,1125.426 L1039.258,1069.612 L1042.969,1088.217 L1046.68,1100.62 L1050.391,1080.465 L1054.102,1054.109 L1057.813,1064.961 L1061.523,1027.752 L1065.234,1103.721 L1068.945,1072.713 L1072.656,1082.016 L1073.438,1058.76 " stroke="blue" fill="none" />
</svg>
