<svg width="2000" height="2500" xmlns="http://www.w3.org/2000/svg">
<text x="10" y="20" font-family="Arial" font-size="26" fill="black"> [HoldBall] Training Session</text>
<text x="10" y="50" font-family="Arial" font-size="16" fill="black">[Statistics]</text>
<text x="50" y="70" font-family="Arial" font-size="12" fill="black">Started at: 12:30:26 AM, Saturday, December 9, 2023</text>
<text x="50" y="90" font-family="Arial" font-size="12" fill="black">Finished at: 12:37:24 AM, Saturday, December 9, 2023</text>
<text x="50" y="110" font-family="Arial" font-size="12" fill="black">Training Session Time: 0 hrs : 6 min : 58 sec</text>
<text x="50" y="130" font-family="Arial" font-size="12" fill="black">Inference Time: 1 hrs : 31 min : 2 sec       [Per agent: 1 hrs : 31 min : 2 sec]        [Device: CPU]</text>
<text x="50" y="150" font-family="Arial" font-size="12" fill="black">Policy Update Time: 0 hrs : 1 min : 51 sec        [Per iteration: 0 hrs : 0 min : 4 sec]        [Device: GPU]</text>
<text x="50" y="170" font-family="Arial" font-size="12" fill="black">Inference Time / Training Session Time: 12.970</text>
<text x="50" y="190" font-family="Arial" font-size="12" fill="black">Policy Update Time / Training Session Time: 0.269</text>
<text x="50" y="210" font-family="Arial" font-size="12" fill="black">Episode Count: 698</text>
<text x="50" y="230" font-family="Arial" font-size="12" fill="black">Inference Steps: 272849    [Per agent: 272849]     [Per Episode (mean): 390]</text>
<text x="50" y="250" font-family="Arial" font-size="12" fill="black">Iterations: 26</text>
<text x="50" y="270" font-family="Arial" font-size="12" fill="black">Parallel Agents: 1</text>
<text x="50" y="290" font-family="Arial" font-size="12" fill="black">Timescale: 18.78975</text>
<text x="50" y="310" font-family="Arial" font-size="12" fill="black">Trainer: PPO</text>
<text x="10" y="360" font-family="Arial" font-size="16" fill="black">[Hyperparameters]</text>
<text x="50" y="380" font-family="Arial" font-size="12" fill="black">Buffer Size: 10240        [Batch Size: 512       (x20)]</text>
<text x="50" y="400" font-family="Arial" font-size="12" fill="black">Num Epoch: 8</text>
<text x="50" y="420" font-family="Arial" font-size="12" fill="black">Time Horizon: 64</text>
<text x="50" y="440" font-family="Arial" font-size="12" fill="black">Gradient Cliping Normalization: 0.5</text>
<text x="50" y="460" font-family="Arial" font-size="12" fill="black">Learning Rate Schedule: False    </text>
<text x="10" y="510" font-family="Arial" font-size="16" fill="black">[Behaviour]</text>
<text x="50" y="530" font-family="Arial" font-size="12" fill="black">Space Size: 10</text>
<text x="50" y="550" font-family="Arial" font-size="12" fill="black">Continuous Actions: 2 [Standard Deviation: Trainable]     </text>
<text x="50" y="570" font-family="Arial" font-size="12" fill="black">Discrete Actions: 0</text>
<text x="50" y="590" font-family="Arial" font-size="12" fill="black">TargetFPS: 50 (physics update rate)</text>
<text x="50" y="610" font-family="Arial" font-size="12" fill="black">Observations Normalization: True</text>
<text x="10" y="660" font-family="Arial" font-size="16" fill="black">[Decision Requester]</text>
<text x="50" y="680" font-family="Arial" font-size="12" fill="black">Max Step: 0</text>
<text x="50" y="700" font-family="Arial" font-size="12" fill="black">Decision Period: 1</text>
<text x="10" y="750" font-family="Arial" font-size="16" fill="black">[Graphs]</text>
<text x="50" y="770" font-family="Arial" font-size="12" fill="black">Episode Reward (698)</text>
<text x="50" y="785" font-family="Arial" font-size="10" fill="black">519.8444</text>
<text x="50" y="1000" font-family="Arial" font-size="10" fill="black">2.425</text>
<path d="M50,989.6038 L50.39063,989.8068 L50.78125,989.7198 L51.17188,989.1303 L51.5625,989.7294 L51.95313,989.7971 L52.34375,989.5845 L52.73438,989.5651 L53.125,989.8647 L53.51563,989.6811 L53.90625,989.884 L54.29688,989.6231 L54.6875,989.7294 L55.07813,989.5361 L55.46875,989.4879 L55.85938,989.8744 L56.25,989.1593 L56.64063,989.6425 L57.03125,988.7921 L57.42188,989.7488 L57.8125,989.8937 L58.20313,989.8068 L58.59375,989.7681 L58.98438,989.0916 L59.375,989.5361 L59.76563,989.5941 L60.15625,989.6908 L60.54688,989.3815 L60.9375,989.7681 L61.32813,989.4395 L61.71875,989.6328 L62.10938,989.2463 L62.5,989.7198 L62.89063,989.9324 L63.28125,989.4589 L63.67188,989.2366 L64.0625,989.9034 L64.45313,989.8068 L64.84375,989.8164 L65.23438,989.6521 L65.625,989.6714 L66.01563,988.908 L66.40625,989.942 L66.79688,989.8454 L67.1875,989.8937 L67.57813,989.7778 L67.96875,989.6038 L68.35938,989.913 L68.75,989.7584 L69.14063,989.5845 L69.53125,989.7874 L69.92188,989.8647 L70.3125,989.0433 L70.70313,989.9807 L71.09375,989.7294 L71.48438,989.2463 L71.875,989.3815 L72.26563,989.2173 L72.65625,989.6135 L73.04688,989.7391 L73.4375,989.6714 L73.82813,989.5651 L74.21875,989.9034 L74.60938,989.6425 L75,989.6038 L75.39063,989.5168 L75.78125,989.3429 L76.17188,989.6811 L76.5625,989.7101 L76.95313,989.2753 L77.34375,989.2173 L77.73438,989.8454 L78.125,989.6521 L78.51563,989.8454 L78.90625,989.9614 L79.29688,989.6328 L79.6875,988.5505 L80.07813,989.9034 L80.46875,989.7101 L80.85938,989.4879 L81.25,989.5748 L81.64063,989.826 L82.03125,989.1593 L82.42188,989.2753 L82.8125,989.4879 L83.20313,989.6231 L83.59375,989.7778 L83.98438,989.8647 L84.375,989.7294 L84.76563,989.7488 L85.15625,989.8454 L85.54688,989.6618 L85.9375,989.9034 L86.32813,989.2849 L86.71875,989.6908 L87.10938,988.9564 L87.5,989.5748 L87.89063,989.6135 L88.28125,989.4105 L88.67188,989.7101 L89.0625,989.3429 L89.45313,989.8357 L89.84375,989.053 L90.23438,989.6328 L90.625,989.7681 L91.01563,989.6618 L91.40625,989.7101 L91.79688,989.884 L92.1875,989.6811 L92.57813,989.9807 L92.96875,989.7584 L93.35938,989.8647 L93.75,989.2849 L94.14063,989.2366 L94.53125,989.7294 L94.92188,989.8647 L95.3125,989.4009 L95.70313,989.7101 L96.09375,989.9227 L96.48438,989.5458 L96.875,989.4781 L97.26563,989.6425 L97.65625,989.913 L98.04688,989.7294 L98.4375,989.5168 L98.82813,989.7488 L99.21875,989.7681 L99.60938,989.6521 L100,989.855 L100.3906,989.7778 L100.7813,989.8744 L101.1719,989.7778 L101.5625,989.826 L101.9531,989.6038 L102.3438,989.826 L102.7344,989.7584 L103.125,989.7101 L103.5156,989.6135 L103.9063,989.7004 L104.2969,989.5651 L104.6875,989.6811 L105.0781,989.5941 L105.4688,989.7198 L105.8594,989.4685 L106.25,988.5698 L106.6406,989.9227 L107.0313,989.8164 L107.4219,989.3912 L107.8125,989.1883 L108.2031,989.4589 L108.5938,989.7391 L108.9844,989.942 L109.375,989.2946 L109.7656,989.855 L110.1563,989.7391 L110.5469,989.8164 L110.9375,989.3912 L111.3281,988.8694 L111.7188,989.6811 L112.1094,989.913 L112.5,989.4009 L112.8906,989.1206 L113.2813,989.3912 L113.6719,989.0626 L114.0625,989.5458 L114.4531,989.3525 L114.8438,989.4105 L115.2344,989.3043 L115.625,989.9517 L116.0156,989.1593 L116.4063,989.6714 L116.7969,989.7874 L117.1875,989.4492 L117.5781,988.2703 L117.9688,989.7488 L118.3594,988.9564 L118.75,989.6038 L119.1406,989.7391 L119.5313,989.7681 L119.9219,989.4202 L120.3125,989.8647 L120.7031,989.5651 L121.0938,989.3139 L121.4844,989.5071 L121.875,989.0723 L122.2656,989.6618 L122.6563,989.14 L123.0469,989.3139 L123.4375,989.4395 L123.8281,989.7488 L124.2188,989.8647 L124.6094,989.7778 L125,989.3815 L125.3906,989.4299 L125.7813,989.7778 L126.1719,989.884 L126.5625,989.1593 L126.9531,988.8694 L127.3438,989.5651 L127.7344,989.4879 L128.125,989.4299 L128.5156,989.7101 L128.9063,989.7584 L129.2969,989.2559 L129.6875,989.7778 L130.0781,989.6231 L130.4688,989.826 L130.8594,989.1593 L131.25,989.6908 L131.6406,989.913 L132.0313,989.4202 L132.4219,989.4105 L132.8125,989.3525 L133.2031,989.3815 L133.5938,989.826 L133.9844,989.7874 L134.375,989.4589 L134.7656,990 L135.1563,989.0626 L135.5469,989.2173 L135.9375,989.7101 L136.3281,989.7778 L136.7188,989.6618 L137.1094,989.5651 L137.5,988.9854 L137.8906,989.6714 L138.2813,989.826 L138.6719,989.7101 L139.0625,989.5458 L139.4531,989.8068 L139.8438,989.6521 L140.2344,989.3043 L140.625,989.6038 L141.0156,989.6714 L141.4063,989.2366 L141.7969,989.6714 L142.1875,989.2269 L142.5781,989.884 L142.9688,989.3333 L143.3594,989.7391 L143.75,989.6038 L144.1406,989.4685 L144.5313,989.6038 L144.9219,989.3235 L145.3125,989.9517 L145.7031,989.3719 L146.0938,989.5458 L146.4844,988.4828 L146.875,989.7584 L147.2656,989.913 L147.6563,989.6231 L148.0469,989.4589 L148.4375,989.5941 L148.8281,989.7584 L149.2188,989.7778 L149.6094,988.8694 L150,989.4492 L150.3906,989.4202 L150.7813,989.2753 L151.1719,989.3622 L151.5625,989.0047 L151.9531,988.7244 L152.3438,989.4685 L152.7344,989.7971 L153.125,989.5941 L153.5156,989.4589 L153.9063,989.7681 L154.2969,989.6908 L154.6875,989.4395 L155.0781,989.7391 L155.4688,989.7391 L155.8594,989.8454 L156.25,989.1979 L156.6406,988.2896 L157.0313,989.9614 L157.4219,989.826 L157.8125,989.9227 L158.2031,989.9517 L158.5938,989.4395 L158.9844,989.3429 L159.375,989.913 L159.7656,989.7294 L160.1563,989.7488 L160.5469,989.5845 L160.9375,989.6135 L161.3281,989.7874 L161.7188,989.5168 L162.1094,989.7584 L162.5,989.7778 L162.8906,988.9467 L163.2813,989.6135 L163.6719,989.5845 L164.0625,989.6811 L164.4531,989.6714 L164.8438,989.3912 L165.2344,989.1593 L165.625,989.0916 L166.0156,989.6328 L166.4063,988.995 L166.7969,989.1689 L167.1875,989.5748 L167.5781,988.7921 L167.9688,988.5505 L168.3594,988.7534 L168.75,987.8064 L169.1406,989.0916 L169.5313,988.908 L169.9219,989.1786 L170.3125,989.4299 L170.7031,989.6521 L171.0938,989.4395 L171.4844,989.8357 L171.875,988.8307 L172.2656,989.7681 L172.6563,988.8694 L173.0469,989.5265 L173.4375,989.5361 L173.8281,989.8068 L174.2188,988.7341 L174.6094,989.6811 L175,989.4395 L175.3906,988.4345 L175.7813,989.7294 L176.1719,989.4589 L176.5625,989.5651 L176.9531,989.9614 L177.3438,989.7778 L177.7344,989.3429 L178.125,989.6714 L178.5156,987.9514 L178.9063,989.6714 L179.2969,989.7198 L179.6875,989.971 L180.0781,989.5555 L180.4688,989.7778 L180.8594,988.4055 L181.25,988.3572 L181.6406,989.7198 L182.0313,989.5265 L182.4219,989.4202 L182.8125,989.8937 L183.2031,988.821 L183.5938,989.6811 L183.9844,989.1689 L184.375,989.024 L184.7656,989.5555 L185.1563,989.2076 L185.5469,989.7874 L185.9375,989.3333 L186.3281,988.5795 L186.7188,989.0047 L187.1094,988.6664 L187.5,989.8937 L187.8906,989.6908 L188.2813,989.8454 L188.6719,989.3139 L189.0625,989.0626 L189.4531,989.5361 L189.8438,989.826 L190.2344,988.4828 L190.625,989.1496 L191.0156,989.6038 L191.4063,989.6714 L191.7969,989.3139 L192.1875,988.048 L192.5781,989.6038 L192.9688,989.024 L193.3594,989.4589 L193.75,989.5845 L194.1406,989.8454 L194.5313,988.5118 L194.9219,989.3622 L195.3125,989.111 L195.7031,989.6714 L196.0938,989.3719 L196.4844,989.2463 L196.875,989.2849 L197.2656,989.3719 L197.6563,989.5845 L198.0469,988.821 L198.4375,988.9854 L198.8281,989.0337 L199.2188,989.2463 L199.6094,988.5795 L200,989.5361 L200.3906,989.5845 L200.7813,988.6375 L201.1719,987.6518 L201.5625,988.85 L201.9531,989.4395 L202.3438,989.2946 L202.7344,988.9564 L203.125,988.5698 L203.5156,989.4009 L203.9063,986.7821 L204.2969,988.3862 L204.6875,988.0093 L205.0781,988.4732 L205.4688,988.4925 L205.8594,989.8937 L206.25,989.3719 L206.6406,989.1883 L207.0313,988.7728 L207.4219,988.0963 L207.8125,989.4395 L208.2031,988.8984 L208.5938,986.2217 L208.9844,989.1206 L209.375,989.3235 L209.7656,988.6182 L210.1563,988.7051 L210.5469,988.5215 L210.9375,989.2656 L211.3281,988.7921 L211.7188,989.0626 L212.1094,989.4685 L212.5,989.2656 L212.8906,989.4202 L213.2813,988.3765 L213.6719,988.2606 L214.0625,987.3619 L214.4531,989.3139 L214.8438,988.0673 L215.2344,987.5842 L215.625,988.937 L216.0156,988.85 L216.4063,988.6085 L216.7969,989.5361 L217.1875,988.2993 L217.5781,989.0626 L217.9688,989.3622 L218.3594,986.212 L218.75,988.6858 L219.1406,989.1013 L219.5313,988.7631 L219.9219,988.7824 L220.3125,988.4539 L220.7031,989.5941 L221.0938,987.3136 L221.4844,988.8887 L221.875,989.3815 L222.2656,989.5941 L222.6563,988.937 L223.0469,986.2506 L223.4375,989.4589 L223.8281,985.8351 L224.2188,988.3862 L224.6094,989.2849 L225,988.8018 L225.3906,987.6422 L225.7813,988.5698 L226.1719,987.0624 L226.5625,987.9031 L226.9531,989.0143 L227.3438,988.3475 L227.7344,988.1736 L228.125,988.5312 L228.5156,985.7578 L228.9063,989.2849 L229.2969,988.6664 L229.6875,988.966 L230.0781,989.2946 L230.4688,989.6521 L230.8594,988.3282 L231.25,988.2123 L231.6406,988.5988 L232.0313,988.4539 L232.4219,989.2753 L232.8125,988.9467 L233.2031,988.8018 L233.5938,988.8597 L233.9844,986.0574 L234.375,988.6954 L234.7656,989.111 L235.1563,986.985 L235.5469,988.879 L235.9375,989.3235 L236.3281,989.1883 L236.7188,988.2219 L237.1094,987.101 L237.5,988.8114 L237.8906,989.2946 L238.2813,988.966 L238.6719,988.85 L239.0625,987.3522 L239.4531,988.1929 L239.8438,988.995 L240.2344,989.0047 L240.625,988.6761 L241.0156,986.5212 L241.4063,989.6038 L241.7969,987.6422 L242.1875,988.2509 L242.5781,988.7244 L242.9688,986.6951 L243.3594,989.6908 L243.75,986.1057 L244.1406,989.5941 L244.5313,985.5452 L244.9219,987.2943 L245.3125,988.1349 L245.7031,989.3815 L246.0938,986.067 L246.4844,988.4055 L246.875,988.0963 L247.2656,988.4732 L247.6563,988.7824 L248.0469,988.4345 L248.4375,989.4975 L248.8281,989.4105 L249.2188,988.9564 L249.6094,987.4972 L250,989.2076 L250.3906,988.6085 L250.7813,989.3525 L251.1719,987.275 L251.5625,989.6135 L251.9531,988.8404 L252.3438,988.1929 L252.7344,988.9564 L253.125,988.2413 L253.5156,989.4781 L253.9063,989.0916 L254.2969,989.6618 L254.6875,988.1929 L255.0781,987.3136 L255.4688,989.0916 L255.8594,988.995 L256.25,988.8404 L256.6406,988.2123 L257.0313,987.7291 L257.4219,988.4635 L257.8125,988.3475 L258.2031,989.6231 L258.5938,989.4395 L258.9844,988.5022 L259.375,988.908 L259.7656,988.8307 L260.1563,988.6664 L260.5469,988.6858 L260.9375,988.6761 L261.3281,987.1976 L261.7188,987.2556 L262.1094,988.6568 L262.5,988.6375 L262.8906,986.5502 L263.2813,988.9757 L263.6719,989.4589 L264.0625,989.4781 L264.4531,988.6182 L264.8438,986.5889 L265.2344,988.5408 L265.625,988.5215 L266.0156,989.3139 L266.4063,988.1349 L266.7969,988.9854 L267.1875,987.159 L267.5781,988.2123 L267.9688,989.2366 L268.3594,989.5168 L268.75,989.6521 L269.1406,988.2123 L269.5313,989.2849 L269.9219,988.1447 L270.3125,989.1883 L270.7031,989.5555 L271.0938,988.7148 L271.4844,987.5262 L271.875,988.4828 L272.2656,988.6472 L272.6563,988.2509 L273.0469,989.1206 L273.4375,988.879 L273.8281,984.3276 L274.2188,989.3235 L274.6094,988.9274 L275,986.5019 L275.3906,987.1783 L275.7813,988.6954 L276.1719,988.2509 L276.5625,988.2413 L276.9531,987.7001 L277.3438,988.4732 L277.7344,989.4299 L278.125,988.5022 L278.5156,989.6038 L278.9063,988.995 L279.2969,987.2556 L279.6875,987.6614 L280.0781,989.5555 L280.4688,989.2849 L280.8594,987.9127 L281.25,989.0337 L281.6406,989.2559 L282.0313,988.4539 L282.4219,985.6516 L282.8125,988.4152 L283.2031,988.7051 L283.5938,988.7534 L283.9844,988.1543 L284.375,989.0143 L284.7656,988.821 L285.1563,988.2123 L285.5469,989.111 L285.9375,988.908 L286.3281,988.1833 L286.7188,985.5066 L287.1094,989.0433 L287.5,989.4685 L287.8906,986.212 L288.2813,987.0044 L288.6719,987.8934 L289.0625,986.3666 L289.4531,985.6129 L289.8438,987.2943 L290.2344,986.2023 L290.625,986.0477 L291.0156,988.6472 L291.4063,984.7142 L291.7969,987.2556 L292.1875,988.5892 L292.5781,986.8691 L292.9688,987.8161 L293.3594,989.1786 L293.75,988.7438 L294.1406,988.3862 L294.5313,988.2993 L294.9219,982.598 L295.3125,988.3185 L295.7031,986.7435 L296.0938,988.8114 L296.4844,988.2026 L296.875,987.5745 L297.2656,989.6521 L297.6563,986.8015 L298.0469,988.4152 L298.4375,987.3232 L298.8281,982.9941 L299.2188,986.4729 L299.6094,985.5549 L300,986.6951 L300.3906,984.0764 L300.7813,989.4781 L301.1719,987.9803 L301.5625,985.352 L301.9531,986.9367 L302.3438,985.4099 L302.7344,988.5505 L303.125,988.5505 L303.5156,987.9707 L303.9063,985.6032 L304.2969,988.0287 L304.6875,987.5552 L305.0781,987.7774 L305.4688,988.8404 L305.8594,987.6325 L306.25,988.821 L306.6407,989.2656 L307.0313,989.0047 L307.4219,987.5842 L307.8125,988.7631 L308.2031,981.3031 L308.5938,987.7968 L308.9844,983.8542 L309.375,976.2297 L309.7656,981.2258 L310.1563,985.8544 L310.5469,988.0577 L310.9375,980.6556 L311.3281,987.4392 L311.7188,988.4442 L312.1094,989.2173 L312.5,982.366 L312.8906,968.2763 L313.2813,985.236 L313.6719,973.6205 L314.0625,985.6226 L314.4532,969.7839 L314.8438,982.337 L315.2344,983.9122 L315.625,986.2506 L316.0156,973.8621 L316.4063,980.0565 L316.7969,962.6423 L317.1875,980.8392 L317.5781,969.0978 L317.9688,988.85 L318.3594,976.3553 L318.75,983.0715 L319.1406,954.8531 L319.5313,978.6554 L319.9219,914.8043 L320.3125,981.1098 L320.7031,876.7206 L321.0938,966.6044 L321.4844,970.0448 L321.875,790 L322.2657,976.2394 " stroke="blue" fill="none" />
<text x="50" y="1040" font-family="Arial" font-size="12" fill="black">Episode Length (698)</text>
<text x="50" y="1055" font-family="Arial" font-size="10" fill="black">20798</text>
<text x="50" y="1270" font-family="Arial" font-size="10" fill="black">98</text>
<path d="M50,1259.614 L50.39063,1259.807 L50.78125,1259.72 L51.17188,1259.13 L51.5625,1259.729 L51.95313,1259.797 L52.34375,1259.585 L52.73438,1259.565 L53.125,1259.865 L53.51563,1259.681 L53.90625,1259.884 L54.29688,1259.623 L54.6875,1259.729 L55.07813,1259.536 L55.46875,1259.488 L55.85938,1259.874 L56.25,1259.159 L56.64063,1259.642 L57.03125,1258.792 L57.42188,1259.749 L57.8125,1259.894 L58.20313,1259.807 L58.59375,1259.768 L58.98438,1259.092 L59.375,1259.536 L59.76563,1259.594 L60.15625,1259.691 L60.54688,1259.382 L60.9375,1259.768 L61.32813,1259.44 L61.71875,1259.633 L62.10938,1259.246 L62.5,1259.72 L62.89063,1259.932 L63.28125,1259.459 L63.67188,1259.237 L64.0625,1259.903 L64.45313,1259.807 L64.84375,1259.816 L65.23438,1259.652 L65.625,1259.672 L66.01563,1258.908 L66.40625,1259.942 L66.79688,1259.845 L67.1875,1259.894 L67.57813,1259.778 L67.96875,1259.604 L68.35938,1259.913 L68.75,1259.758 L69.14063,1259.585 L69.53125,1259.787 L69.92188,1259.865 L70.3125,1259.043 L70.70313,1259.981 L71.09375,1259.729 L71.48438,1259.246 L71.875,1259.382 L72.26563,1259.217 L72.65625,1259.614 L73.04688,1259.739 L73.4375,1259.672 L73.82813,1259.565 L74.21875,1259.903 L74.60938,1259.642 L75,1259.604 L75.39063,1259.517 L75.78125,1259.343 L76.17188,1259.681 L76.5625,1259.71 L76.95313,1259.275 L77.34375,1259.217 L77.73438,1259.845 L78.125,1259.652 L78.51563,1259.845 L78.90625,1259.961 L79.29688,1259.633 L79.6875,1258.551 L80.07813,1259.903 L80.46875,1259.71 L80.85938,1259.488 L81.25,1259.575 L81.64063,1259.826 L82.03125,1259.159 L82.42188,1259.275 L82.8125,1259.488 L83.20313,1259.623 L83.59375,1259.778 L83.98438,1259.865 L84.375,1259.729 L84.76563,1259.749 L85.15625,1259.845 L85.54688,1259.662 L85.9375,1259.903 L86.32813,1259.285 L86.71875,1259.691 L87.10938,1258.957 L87.5,1259.575 L87.89063,1259.614 L88.28125,1259.411 L88.67188,1259.71 L89.0625,1259.343 L89.45313,1259.836 L89.84375,1259.053 L90.23438,1259.633 L90.625,1259.768 L91.01563,1259.662 L91.40625,1259.71 L91.79688,1259.884 L92.1875,1259.681 L92.57813,1259.981 L92.96875,1259.758 L93.35938,1259.865 L93.75,1259.285 L94.14063,1259.237 L94.53125,1259.729 L94.92188,1259.865 L95.3125,1259.401 L95.70313,1259.71 L96.09375,1259.923 L96.48438,1259.546 L96.875,1259.478 L97.26563,1259.642 L97.65625,1259.913 L98.04688,1259.729 L98.4375,1259.517 L98.82813,1259.749 L99.21875,1259.768 L99.60938,1259.652 L100,1259.855 L100.3906,1259.778 L100.7813,1259.874 L101.1719,1259.778 L101.5625,1259.826 L101.9531,1259.604 L102.3438,1259.826 L102.7344,1259.758 L103.125,1259.71 L103.5156,1259.614 L103.9063,1259.7 L104.2969,1259.565 L104.6875,1259.681 L105.0781,1259.594 L105.4688,1259.72 L105.8594,1259.469 L106.25,1258.57 L106.6406,1259.923 L107.0313,1259.816 L107.4219,1259.391 L107.8125,1259.188 L108.2031,1259.459 L108.5938,1259.739 L108.9844,1259.942 L109.375,1259.295 L109.7656,1259.855 L110.1563,1259.739 L110.5469,1259.816 L110.9375,1259.391 L111.3281,1258.87 L111.7188,1259.681 L112.1094,1259.913 L112.5,1259.401 L112.8906,1259.121 L113.2813,1259.391 L113.6719,1259.063 L114.0625,1259.546 L114.4531,1259.353 L114.8438,1259.411 L115.2344,1259.304 L115.625,1259.952 L116.0156,1259.159 L116.4063,1259.672 L116.7969,1259.787 L117.1875,1259.449 L117.5781,1258.271 L117.9688,1259.749 L118.3594,1258.957 L118.75,1259.604 L119.1406,1259.739 L119.5313,1259.768 L119.9219,1259.42 L120.3125,1259.865 L120.7031,1259.565 L121.0938,1259.314 L121.4844,1259.507 L121.875,1259.073 L122.2656,1259.662 L122.6563,1259.14 L123.0469,1259.314 L123.4375,1259.44 L123.8281,1259.749 L124.2188,1259.865 L124.6094,1259.778 L125,1259.382 L125.3906,1259.43 L125.7813,1259.778 L126.1719,1259.884 L126.5625,1259.159 L126.9531,1258.87 L127.3438,1259.565 L127.7344,1259.488 L128.125,1259.43 L128.5156,1259.71 L128.9063,1259.758 L129.2969,1259.256 L129.6875,1259.778 L130.0781,1259.623 L130.4688,1259.826 L130.8594,1259.159 L131.25,1259.691 L131.6406,1259.913 L132.0313,1259.42 L132.4219,1259.411 L132.8125,1259.353 L133.2031,1259.382 L133.5938,1259.826 L133.9844,1259.787 L134.375,1259.459 L134.7656,1260 L135.1563,1259.063 L135.5469,1259.217 L135.9375,1259.71 L136.3281,1259.778 L136.7188,1259.662 L137.1094,1259.565 L137.5,1258.985 L137.8906,1259.672 L138.2813,1259.826 L138.6719,1259.71 L139.0625,1259.546 L139.4531,1259.807 L139.8438,1259.652 L140.2344,1259.304 L140.625,1259.604 L141.0156,1259.672 L141.4063,1259.237 L141.7969,1259.672 L142.1875,1259.227 L142.5781,1259.884 L142.9688,1259.333 L143.3594,1259.739 L143.75,1259.604 L144.1406,1259.469 L144.5313,1259.604 L144.9219,1259.324 L145.3125,1259.952 L145.7031,1259.372 L146.0938,1259.546 L146.4844,1258.483 L146.875,1259.758 L147.2656,1259.913 L147.6563,1259.623 L148.0469,1259.459 L148.4375,1259.594 L148.8281,1259.758 L149.2188,1259.778 L149.6094,1258.87 L150,1259.449 L150.3906,1259.42 L150.7813,1259.275 L151.1719,1259.362 L151.5625,1259.005 L151.9531,1258.725 L152.3438,1259.469 L152.7344,1259.797 L153.125,1259.594 L153.5156,1259.459 L153.9063,1259.768 L154.2969,1259.691 L154.6875,1259.44 L155.0781,1259.739 L155.4688,1259.739 L155.8594,1259.845 L156.25,1259.198 L156.6406,1258.29 L157.0313,1259.961 L157.4219,1259.826 L157.8125,1259.923 L158.2031,1259.952 L158.5938,1259.44 L158.9844,1259.343 L159.375,1259.913 L159.7656,1259.729 L160.1563,1259.749 L160.5469,1259.585 L160.9375,1259.614 L161.3281,1259.787 L161.7188,1259.517 L162.1094,1259.758 L162.5,1259.778 L162.8906,1258.947 L163.2813,1259.614 L163.6719,1259.585 L164.0625,1259.681 L164.4531,1259.672 L164.8438,1259.391 L165.2344,1259.159 L165.625,1259.092 L166.0156,1259.633 L166.4063,1258.995 L166.7969,1259.169 L167.1875,1259.575 L167.5781,1258.792 L167.9688,1258.551 L168.3594,1258.754 L168.75,1257.807 L169.1406,1259.092 L169.5313,1258.908 L169.9219,1259.179 L170.3125,1259.43 L170.7031,1259.652 L171.0938,1259.44 L171.4844,1259.836 L171.875,1258.831 L172.2656,1259.768 L172.6563,1258.87 L173.0469,1259.527 L173.4375,1259.536 L173.8281,1259.807 L174.2188,1258.734 L174.6094,1259.681 L175,1259.44 L175.3906,1258.435 L175.7813,1259.729 L176.1719,1259.459 L176.5625,1259.565 L176.9531,1259.961 L177.3438,1259.778 L177.7344,1259.343 L178.125,1259.672 L178.5156,1257.952 L178.9063,1259.672 L179.2969,1259.72 L179.6875,1259.971 L180.0781,1259.556 L180.4688,1259.778 L180.8594,1258.406 L181.25,1258.358 L181.6406,1259.72 L182.0313,1259.527 L182.4219,1259.42 L182.8125,1259.894 L183.2031,1258.821 L183.5938,1259.681 L183.9844,1259.169 L184.375,1259.024 L184.7656,1259.556 L185.1563,1259.208 L185.5469,1259.787 L185.9375,1259.333 L186.3281,1258.58 L186.7188,1259.005 L187.1094,1258.667 L187.5,1259.894 L187.8906,1259.691 L188.2813,1259.845 L188.6719,1259.314 L189.0625,1259.063 L189.4531,1259.536 L189.8438,1259.826 L190.2344,1258.483 L190.625,1259.15 L191.0156,1259.604 L191.4063,1259.672 L191.7969,1259.314 L192.1875,1258.048 L192.5781,1259.604 L192.9688,1259.024 L193.3594,1259.459 L193.75,1259.585 L194.1406,1259.845 L194.5313,1258.512 L194.9219,1259.362 L195.3125,1259.111 L195.7031,1259.672 L196.0938,1259.372 L196.4844,1259.246 L196.875,1259.285 L197.2656,1259.372 L197.6563,1259.585 L198.0469,1258.821 L198.4375,1258.985 L198.8281,1259.034 L199.2188,1259.246 L199.6094,1258.58 L200,1259.536 L200.3906,1259.585 L200.7813,1258.638 L201.1719,1257.652 L201.5625,1258.85 L201.9531,1259.44 L202.3438,1259.295 L202.7344,1258.957 L203.125,1258.57 L203.5156,1259.401 L203.9063,1256.783 L204.2969,1258.386 L204.6875,1258.01 L205.0781,1258.473 L205.4688,1258.493 L205.8594,1259.894 L206.25,1259.372 L206.6406,1259.188 L207.0313,1258.773 L207.4219,1258.097 L207.8125,1259.44 L208.2031,1258.899 L208.5938,1256.222 L208.9844,1259.121 L209.375,1259.324 L209.7656,1258.618 L210.1563,1258.705 L210.5469,1258.522 L210.9375,1259.266 L211.3281,1258.792 L211.7188,1259.063 L212.1094,1259.469 L212.5,1259.266 L212.8906,1259.42 L213.2813,1258.377 L213.6719,1258.261 L214.0625,1257.362 L214.4531,1259.314 L214.8438,1258.068 L215.2344,1257.585 L215.625,1258.937 L216.0156,1258.85 L216.4063,1258.609 L216.7969,1259.536 L217.1875,1258.3 L217.5781,1259.063 L217.9688,1259.362 L218.3594,1256.213 L218.75,1258.686 L219.1406,1259.101 L219.5313,1258.763 L219.9219,1258.783 L220.3125,1258.454 L220.7031,1259.594 L221.0938,1257.314 L221.4844,1258.889 L221.875,1259.382 L222.2656,1259.594 L222.6563,1258.937 L223.0469,1256.251 L223.4375,1259.459 L223.8281,1255.836 L224.2188,1258.386 L224.6094,1259.285 L225,1258.802 L225.3906,1257.642 L225.7813,1258.57 L226.1719,1257.063 L226.5625,1257.903 L226.9531,1259.015 L227.3438,1258.348 L227.7344,1258.174 L228.125,1258.531 L228.5156,1255.758 L228.9063,1259.285 L229.2969,1258.667 L229.6875,1258.966 L230.0781,1259.295 L230.4688,1259.652 L230.8594,1258.328 L231.25,1258.213 L231.6406,1258.599 L232.0313,1258.454 L232.4219,1259.275 L232.8125,1258.947 L233.2031,1258.802 L233.5938,1258.86 L233.9844,1256.058 L234.375,1258.696 L234.7656,1259.111 L235.1563,1256.985 L235.5469,1258.879 L235.9375,1259.324 L236.3281,1259.188 L236.7188,1258.222 L237.1094,1257.101 L237.5,1258.812 L237.8906,1259.295 L238.2813,1258.966 L238.6719,1258.85 L239.0625,1257.353 L239.4531,1258.193 L239.8438,1258.995 L240.2344,1259.005 L240.625,1258.676 L241.0156,1256.522 L241.4063,1259.604 L241.7969,1257.642 L242.1875,1258.251 L242.5781,1258.725 L242.9688,1256.696 L243.3594,1259.691 L243.75,1256.106 L244.1406,1259.594 L244.5313,1255.546 L244.9219,1257.295 L245.3125,1258.135 L245.7031,1259.382 L246.0938,1256.068 L246.4844,1258.406 L246.875,1258.097 L247.2656,1258.473 L247.6563,1258.783 L248.0469,1258.435 L248.4375,1259.498 L248.8281,1259.411 L249.2188,1258.957 L249.6094,1257.498 L250,1259.208 L250.3906,1258.609 L250.7813,1259.353 L251.1719,1257.275 L251.5625,1259.614 L251.9531,1258.841 L252.3438,1258.193 L252.7344,1258.957 L253.125,1258.242 L253.5156,1259.478 L253.9063,1259.092 L254.2969,1259.662 L254.6875,1258.193 L255.0781,1257.314 L255.4688,1259.092 L255.8594,1258.995 L256.25,1258.841 L256.6406,1258.213 L257.0313,1257.729 L257.4219,1258.464 L257.8125,1258.348 L258.2031,1259.623 L258.5938,1259.44 L258.9844,1258.502 L259.375,1258.908 L259.7656,1258.831 L260.1563,1258.667 L260.5469,1258.686 L260.9375,1258.676 L261.3281,1257.198 L261.7188,1257.256 L262.1094,1258.657 L262.5,1258.638 L262.8906,1256.551 L263.2813,1258.976 L263.6719,1259.459 L264.0625,1259.478 L264.4531,1258.618 L264.8438,1256.589 L265.2344,1258.541 L265.625,1258.522 L266.0156,1259.314 L266.4063,1258.135 L266.7969,1258.985 L267.1875,1257.159 L267.5781,1258.213 L267.9688,1259.237 L268.3594,1259.517 L268.75,1259.652 L269.1406,1258.213 L269.5313,1259.285 L269.9219,1258.145 L270.3125,1259.188 L270.7031,1259.556 L271.0938,1258.715 L271.4844,1257.527 L271.875,1258.483 L272.2656,1258.647 L272.6563,1258.251 L273.0469,1259.121 L273.4375,1258.879 L273.8281,1254.328 L274.2188,1259.324 L274.6094,1258.927 L275,1256.502 L275.3906,1257.179 L275.7813,1258.696 L276.1719,1258.251 L276.5625,1258.242 L276.9531,1257.7 L277.3438,1258.473 L277.7344,1259.43 L278.125,1258.502 L278.5156,1259.604 L278.9063,1258.995 L279.2969,1257.256 L279.6875,1257.662 L280.0781,1259.556 L280.4688,1259.285 L280.8594,1257.913 L281.25,1259.034 L281.6406,1259.256 L282.0313,1258.454 L282.4219,1255.652 L282.8125,1258.415 L283.2031,1258.705 L283.5938,1258.754 L283.9844,1258.155 L284.375,1259.015 L284.7656,1258.821 L285.1563,1258.213 L285.5469,1259.111 L285.9375,1258.908 L286.3281,1258.184 L286.7188,1255.507 L287.1094,1259.043 L287.5,1259.469 L287.8906,1256.213 L288.2813,1257.005 L288.6719,1257.894 L289.0625,1256.367 L289.4531,1255.614 L289.8438,1257.295 L290.2344,1256.203 L290.625,1256.048 L291.0156,1258.647 L291.4063,1254.715 L291.7969,1257.256 L292.1875,1258.589 L292.5781,1256.87 L292.9688,1257.816 L293.3594,1259.179 L293.75,1258.744 L294.1406,1258.386 L294.5313,1258.3 L294.9219,1252.599 L295.3125,1258.319 L295.7031,1256.744 L296.0938,1258.812 L296.4844,1258.203 L296.875,1257.575 L297.2656,1259.652 L297.6563,1256.802 L298.0469,1258.415 L298.4375,1257.324 L298.8281,1252.995 L299.2188,1256.473 L299.6094,1255.556 L300,1256.696 L300.3906,1254.077 L300.7813,1259.478 L301.1719,1257.981 L301.5625,1255.353 L301.9531,1256.937 L302.3438,1255.411 L302.7344,1258.551 L303.125,1258.551 L303.5156,1257.971 L303.9063,1255.604 L304.2969,1258.029 L304.6875,1257.556 L305.0781,1257.778 L305.4688,1258.841 L305.8594,1257.633 L306.25,1258.821 L306.6407,1259.266 L307.0313,1259.005 L307.4219,1257.585 L307.8125,1258.763 L308.2031,1251.304 L308.5938,1257.797 L308.9844,1253.855 L309.375,1246.232 L309.7656,1251.227 L310.1563,1255.855 L310.5469,1258.058 L310.9375,1250.657 L311.3281,1257.44 L311.7188,1258.444 L312.1094,1259.217 L312.5,1252.367 L312.8906,1238.28 L313.2813,1255.237 L313.6719,1243.623 L314.0625,1255.623 L314.4532,1239.787 L314.8438,1252.338 L315.2344,1253.913 L315.625,1256.251 L316.0156,1243.865 L316.4063,1250.058 L316.7969,1232.647 L317.1875,1250.841 L317.5781,1239.101 L317.9688,1258.85 L318.3594,1246.358 L318.75,1253.073 L319.1406,1224.86 L319.5313,1248.657 L319.9219,1184.812 L320.3125,1251.111 L320.7031,1146.725 L321.0938,1236.609 L321.4844,1240.048 L321.875,1060 L322.2657,1246.242 " stroke="blue" fill="none" />
<text x="50" y="1310" font-family="Arial" font-size="12" fill="black">Policy Loss</text>
<text x="50" y="1325" font-family="Arial" font-size="10" fill="black">0.009548597</text>
<text x="50" y="1540" font-family="Arial" font-size="10" fill="black">0.0007349445</text>
<path d="M50,1492.026 L51.5625,1517.099 L53.125,1522.336 L54.6875,1520.322 L56.25,1514.301 L57.8125,1509.949 L59.375,1508.664 L60.9375,1515.081 L62.5,1483.964 L64.0625,1514.517 L65.625,1514.797 L67.1875,1514.639 L68.75,1513.323 L70.3125,1517.66 L71.875,1512.888 L73.4375,1522.821 L75,1474.112 L76.5625,1513.805 L78.125,1525.634 L79.6875,1517.611 L81.25,1522.722 L82.8125,1516.696 L84.375,1514.472 L85.9375,1523.433 L87.5,1462.188 L89.0625,1509.403 L90.625,1514.675 L92.1875,1514.873 L93.75,1518.861 L95.3125,1516.513 L96.875,1516.706 L98.4375,1513.301 L100,1454.856 L101.5625,1509.927 L103.125,1513.582 L104.6875,1519.547 L106.25,1522.54 L107.8125,1512.584 L109.375,1524.25 L110.9375,1518.123 L112.5,1436.553 L114.0625,1512.733 L115.625,1505.026 L117.1875,1521.903 L118.75,1518.035 L120.3125,1518.69 L121.875,1506.053 L123.4375,1522.487 L125,1443.363 L126.5625,1510.639 L128.125,1511.784 L129.6875,1516.808 L131.25,1511.392 L132.8125,1511.321 L134.375,1523.275 L135.9375,1513.948 L137.5,1440.617 L139.0625,1523.499 L140.625,1519.741 L142.1875,1518.148 L143.75,1523.195 L145.3125,1513.916 L146.875,1518.953 L148.4375,1513.705 L150,1423.208 L151.5625,1520.597 L153.125,1512.684 L154.6875,1510.195 L156.25,1525.008 L157.8125,1513.937 L159.375,1517.861 L160.9375,1520.108 L162.5,1435.796 L164.0625,1509.881 L165.625,1518.281 L167.1875,1524.676 L168.75,1515.859 L170.3125,1517.584 L171.875,1516.679 L173.4375,1525.879 L175,1400 L176.5625,1515.53 L178.125,1510.373 L179.6875,1522.834 L181.25,1516.453 L182.8125,1508.989 L184.375,1516.564 L185.9375,1525.672 L187.5,1372.178 L189.0625,1513.58 L190.625,1520.441 L192.1875,1520.801 L193.75,1517.757 L195.3125,1513.417 L196.875,1512.38 L198.4375,1521.712 L200,1370.588 L201.5625,1507.082 L203.125,1518.276 L204.6875,1516.089 L206.25,1511.527 L207.8125,1520.073 L209.375,1515.211 L210.9375,1503.163 L212.5,1330 L214.0625,1517.855 L215.625,1511.276 L217.1875,1518.799 L218.75,1506.943 L220.3125,1516.118 L221.875,1511.005 L223.4375,1518.182 L225,1384.391 L226.5625,1519.933 L228.125,1518.32 L229.6875,1526.342 L231.25,1516.925 L232.8125,1517.589 L234.375,1517.943 L235.9375,1524.836 L237.5,1352.363 L239.0625,1519.009 L240.625,1514.799 L242.1875,1499.008 L243.75,1521.79 L245.3125,1526.42 L246.875,1515.29 L248.4375,1514.013 L250,1392.392 L251.5625,1515.498 L253.125,1507.785 L254.6875,1521.401 L256.25,1520.658 L257.8125,1521.176 L259.375,1518.55 L260.9375,1519.606 L262.5,1399.855 L264.0625,1509.418 L265.625,1511.284 L267.1875,1507.875 L268.75,1510.239 L270.3125,1510.479 L271.875,1516.473 L273.4375,1517.095 L275,1353.247 L276.5625,1520.414 L278.125,1518.242 L279.6875,1516.921 L281.25,1523.874 L282.8125,1517.712 L284.375,1519.377 L285.9375,1516.406 L287.5,1430.224 L289.0625,1512.069 L290.625,1522.083 L292.1875,1516.682 L293.75,1517.718 L295.3125,1522.881 L296.875,1524.133 L298.4375,1520.529 L300,1428.66 L301.5625,1519.426 L303.125,1520.398 L304.6875,1510.012 L306.25,1516.674 L307.8125,1520.173 L309.375,1517.631 L310.9375,1519.295 L312.5,1449.534 L314.0625,1516.627 L315.625,1514.8 L317.1875,1518.631 L318.75,1517.599 L320.3125,1516.387 L321.875,1519.525 L323.4375,1512.214 L325,1484.115 L326.5625,1515.904 L328.125,1517.245 L329.6875,1530 L331.25,1516.874 L332.8125,1527.506 L334.375,1516.769 L335.9375,1516.808 L337.5,1504.216 L339.0625,1510.076 L340.625,1510.067 L342.1875,1517.939 L343.75,1510.328 L345.3125,1522.262 L346.875,1516.979 L348.4375,1525.818 L350,1468.313 L351.5625,1522.707 L353.125,1511.346 L354.6875,1511.337 L356.25,1512.012 L357.8125,1517.915 L359.375,1508.75 L360.9375,1518.715 L362.5,1378.988 L364.0625,1515.601 L365.625,1512.466 L367.1875,1519.299 L368.75,1509.138 L370.3125,1518.362 L371.875,1520.178 L373.4375,1516.631 " stroke="blue" fill="none" />
<text x="50" y="1580" font-family="Arial" font-size="12" fill="black">Value Loss</text>
<text x="50" y="1595" font-family="Arial" font-size="10" fill="black">0.005099612</text>
<text x="50" y="1810" font-family="Arial" font-size="10" fill="black">3.182944E-06</text>
<path d="M50,1600 L51.5625,1650.412 L53.125,1691.183 L54.6875,1725.771 L56.25,1752.246 L57.8125,1770.1 L59.375,1780.627 L60.9375,1786.029 L62.5,1694.604 L64.0625,1766.449 L65.625,1789.594 L67.1875,1795.929 L68.75,1797.089 L70.3125,1797.288 L71.875,1797.399 L73.4375,1797.493 L75,1748.986 L76.5625,1788.69 L78.125,1793.162 L79.6875,1793.585 L81.25,1793.859 L82.8125,1794.018 L84.375,1794.167 L85.9375,1794.291 L87.5,1768.279 L89.0625,1786.738 L90.625,1788.805 L92.1875,1789.456 L93.75,1789.831 L95.3125,1790.179 L96.875,1790.465 L98.4375,1790.705 L100,1770.02 L101.5625,1781.657 L103.125,1783.434 L104.6875,1784.342 L106.25,1785.002 L107.8125,1785.548 L109.375,1786.035 L110.9375,1786.452 L112.5,1766.554 L114.0625,1772.69 L115.625,1775.104 L117.1875,1776.543 L118.75,1777.656 L120.3125,1778.521 L121.875,1779.349 L123.4375,1780.037 L125,1771.865 L126.5625,1777.155 L128.125,1778.851 L129.6875,1779.606 L131.25,1780.282 L132.8125,1780.876 L134.375,1781.412 L135.9375,1781.868 L137.5,1755.195 L139.0625,1766.369 L140.625,1769.707 L142.1875,1771.892 L143.75,1773.613 L145.3125,1775.039 L146.875,1776.191 L148.4375,1777.075 L150,1768.454 L151.5625,1774.133 L153.125,1777.324 L154.6875,1778.721 L156.25,1779.718 L157.8125,1780.415 L159.375,1781.042 L160.9375,1781.496 L162.5,1773.385 L164.0625,1777.883 L165.625,1779.862 L167.1875,1780.458 L168.75,1780.964 L170.3125,1781.437 L171.875,1781.8 L173.4375,1782.185 L175,1776.997 L176.5625,1781.067 L178.125,1782.518 L179.6875,1783.185 L181.25,1783.78 L182.8125,1784.204 L184.375,1784.561 L185.9375,1784.887 L187.5,1781.688 L189.0625,1783.885 L190.625,1785.325 L192.1875,1785.749 L193.75,1785.98 L195.3125,1786.238 L196.875,1786.419 L198.4375,1786.58 L200,1781.928 L201.5625,1784.342 L203.125,1785.307 L204.6875,1785.768 L206.25,1786.032 L207.8125,1786.321 L209.375,1786.524 L210.9375,1786.836 L212.5,1777.387 L214.0625,1781.122 L215.625,1782.442 L217.1875,1783.209 L218.75,1783.636 L220.3125,1784.007 L221.875,1784.37 L223.4375,1784.645 L225,1780.843 L226.5625,1784.325 L228.125,1785.876 L229.6875,1786.618 L231.25,1787.047 L232.8125,1787.382 L234.375,1787.662 L235.9375,1787.896 L237.5,1784.993 L239.0625,1786.019 L240.625,1787.572 L242.1875,1788.063 L243.75,1788.326 L245.3125,1788.604 L246.875,1788.849 L248.4375,1789.046 L250,1791.716 L251.5625,1793.629 L253.125,1794.15 L254.6875,1794.442 L256.25,1794.651 L257.8125,1794.819 L259.375,1794.955 L260.9375,1795.085 L262.5,1794.463 L264.0625,1795.296 L265.625,1795.715 L267.1875,1795.819 L268.75,1795.9 L270.3125,1795.963 L271.875,1796.039 L273.4375,1796.103 L275,1794.225 L276.5625,1795.512 L278.125,1796.025 L279.6875,1796.259 L281.25,1796.423 L282.8125,1796.551 L284.375,1796.659 L285.9375,1796.754 L287.5,1798.286 L289.0625,1798.582 L290.625,1798.979 L292.1875,1799.104 L293.75,1799.156 L295.3125,1799.204 L296.875,1799.24 L298.4375,1799.267 L300,1798.296 L301.5625,1798.729 L303.125,1798.915 L304.6875,1798.974 L306.25,1799 L307.8125,1799.023 L309.375,1799.047 L310.9375,1799.075 L312.5,1798.044 L314.0625,1798.4 L315.625,1798.509 L317.1875,1798.558 L318.75,1798.591 L320.3125,1798.615 L321.875,1798.638 L323.4375,1798.671 L325,1799.616 L326.5625,1799.778 L328.125,1799.809 L329.6875,1799.816 L331.25,1799.819 L332.8125,1799.823 L334.375,1799.823 L335.9375,1799.822 L337.5,1799.789 L339.0625,1799.885 L340.625,1799.91 L342.1875,1799.918 L343.75,1799.922 L345.3125,1799.923 L346.875,1799.924 L348.4375,1799.924 L350,1799.854 L351.5625,1799.924 L353.125,1799.955 L354.6875,1799.957 L356.25,1799.956 L357.8125,1799.954 L359.375,1799.952 L360.9375,1799.95 L362.5,1799.919 L364.0625,1799.969 L365.625,1799.998 L367.1875,1800 L368.75,1799.999 L370.3125,1799.996 L371.875,1799.993 L373.4375,1799.989 " stroke="blue" fill="none" />
<text x="50" y="1850" font-family="Arial" font-size="12" fill="black">Learning Rate</text>
<text x="50" y="1865" font-family="Arial" font-size="10" fill="black">0.0003</text>
<text x="50" y="2080" font-family="Arial" font-size="10" fill="black">0.0003</text>
<path d="M50,2070 L51.5625,2070 L53.125,2070 L54.6875,2070 L56.25,2070 L57.8125,2070 L59.375,2070 L60.9375,2070 L62.5,2070 L64.0625,2070 L65.625,2070 L67.1875,2070 L68.75,2070 L70.3125,2070 L71.875,2070 L73.4375,2070 L75,2070 L76.5625,2070 L78.125,2070 L79.6875,2070 L81.25,2070 L82.8125,2070 L84.375,2070 L85.9375,2070 L87.5,2070 L89.0625,2070 L90.625,2070 L92.1875,2070 L93.75,2070 L95.3125,2070 L96.875,2070 L98.4375,2070 L100,2070 L101.5625,2070 L103.125,2070 L104.6875,2070 L106.25,2070 L107.8125,2070 L109.375,2070 L110.9375,2070 L112.5,2070 L114.0625,2070 L115.625,2070 L117.1875,2070 L118.75,2070 L120.3125,2070 L121.875,2070 L123.4375,2070 L125,2070 L126.5625,2070 L128.125,2070 L129.6875,2070 L131.25,2070 L132.8125,2070 L134.375,2070 L135.9375,2070 L137.5,2070 L139.0625,2070 L140.625,2070 L142.1875,2070 L143.75,2070 L145.3125,2070 L146.875,2070 L148.4375,2070 L150,2070 L151.5625,2070 L153.125,2070 L154.6875,2070 L156.25,2070 L157.8125,2070 L159.375,2070 L160.9375,2070 L162.5,2070 L164.0625,2070 L165.625,2070 L167.1875,2070 L168.75,2070 L170.3125,2070 L171.875,2070 L173.4375,2070 L175,2070 L176.5625,2070 L178.125,2070 L179.6875,2070 L181.25,2070 L182.8125,2070 L184.375,2070 L185.9375,2070 L187.5,2070 L189.0625,2070 L190.625,2070 L192.1875,2070 L193.75,2070 L195.3125,2070 L196.875,2070 L198.4375,2070 L200,2070 L201.5625,2070 L203.125,2070 L204.6875,2070 L206.25,2070 L207.8125,2070 L209.375,2070 L210.9375,2070 L212.5,2070 L214.0625,2070 L215.625,2070 L217.1875,2070 L218.75,2070 L220.3125,2070 L221.875,2070 L223.4375,2070 L225,2070 L226.5625,2070 L228.125,2070 L229.6875,2070 L231.25,2070 L232.8125,2070 L234.375,2070 L235.9375,2070 L237.5,2070 L239.0625,2070 L240.625,2070 L242.1875,2070 L243.75,2070 L245.3125,2070 L246.875,2070 L248.4375,2070 L250,2070 L251.5625,2070 L253.125,2070 L254.6875,2070 L256.25,2070 L257.8125,2070 L259.375,2070 L260.9375,2070 L262.5,2070 L264.0625,2070 L265.625,2070 L267.1875,2070 L268.75,2070 L270.3125,2070 L271.875,2070 L273.4375,2070 L275,2070 L276.5625,2070 L278.125,2070 L279.6875,2070 L281.25,2070 L282.8125,2070 L284.375,2070 L285.9375,2070 L287.5,2070 L289.0625,2070 L290.625,2070 L292.1875,2070 L293.75,2070 L295.3125,2070 L296.875,2070 L298.4375,2070 L300,2070 L301.5625,2070 L303.125,2070 L304.6875,2070 L306.25,2070 L307.8125,2070 L309.375,2070 L310.9375,2070 L312.5,2070 L314.0625,2070 L315.625,2070 L317.1875,2070 L318.75,2070 L320.3125,2070 L321.875,2070 L323.4375,2070 L325,2070 L326.5625,2070 L328.125,2070 L329.6875,2070 L331.25,2070 L332.8125,2070 L334.375,2070 L335.9375,2070 L337.5,2070 L339.0625,2070 L340.625,2070 L342.1875,2070 L343.75,2070 L345.3125,2070 L346.875,2070 L348.4375,2070 L350,2070 L351.5625,2070 L353.125,2070 L354.6875,2070 L356.25,2070 L357.8125,2070 L359.375,2070 L360.9375,2070 L362.5,2070 L364.0625,2070 L365.625,2070 L367.1875,2070 L368.75,2070 L370.3125,2070 L371.875,2070 L373.4375,2070 " stroke="blue" fill="none" />
<text x="50" y="2120" font-family="Arial" font-size="12" fill="black">Entropy</text>
<text x="50" y="2135" font-family="Arial" font-size="10" fill="black">0.08513724</text>
<text x="50" y="2350" font-family="Arial" font-size="10" fill="black">0.06369568</text>
<path d="M50,2165.834 L51.5625,2166.968 L53.125,2167.177 L54.6875,2167.375 L56.25,2167.336 L57.8125,2167.653 L59.375,2167.984 L60.9375,2168.313 L62.5,2162.822 L64.0625,2160.849 L65.625,2159.162 L67.1875,2157.339 L68.75,2156.192 L70.3125,2156.165 L71.875,2155.652 L73.4375,2155.123 L75,2158.118 L76.5625,2157.494 L78.125,2156.689 L79.6875,2155.993 L81.25,2155.61 L82.8125,2155.12 L84.375,2155.095 L85.9375,2154.692 L87.5,2148.049 L89.0625,2145.782 L90.625,2144.769 L92.1875,2144.117 L93.75,2143.48 L95.3125,2143.118 L96.875,2143.536 L98.4375,2143.361 L100,2140 L101.5625,2140.678 L103.125,2141.06 L104.6875,2141.029 L106.25,2141.119 L107.8125,2141.976 L109.375,2142.156 L110.9375,2142.947 L112.5,2157.356 L114.0625,2155.896 L115.625,2154.426 L117.1875,2152.88 L118.75,2151.928 L120.3125,2152.234 L121.875,2152.455 L123.4375,2151.832 L125,2144.983 L126.5625,2144.356 L128.125,2143.702 L129.6875,2143.553 L131.25,2144.404 L132.8125,2145.07 L134.375,2145.5 L135.9375,2145.312 L137.5,2178.123 L139.0625,2178.442 L140.625,2176.503 L142.1875,2175.446 L143.75,2177.465 L145.3125,2177.012 L146.875,2178.132 L148.4375,2178.04 L150,2172.148 L151.5625,2174.121 L153.125,2173.826 L154.6875,2172.724 L156.25,2172.043 L157.8125,2170.611 L159.375,2171.251 L160.9375,2170.293 L162.5,2176.705 L164.0625,2178.647 L165.625,2178.103 L167.1875,2176.044 L168.75,2176.054 L170.3125,2175.68 L171.875,2176.697 L173.4375,2176.359 L175,2168.467 L176.5625,2170.496 L178.125,2171.379 L179.6875,2171.64 L181.25,2171.904 L182.8125,2173.161 L184.375,2172.25 L185.9375,2172.749 L187.5,2173.045 L189.0625,2174.186 L190.625,2174.763 L192.1875,2175.404 L193.75,2175.824 L195.3125,2175.507 L196.875,2175.441 L198.4375,2175.476 L200,2179.698 L201.5625,2182.948 L203.125,2183.484 L204.6875,2181.967 L206.25,2183.237 L207.8125,2184.637 L209.375,2184.747 L210.9375,2184.614 L212.5,2180.875 L214.0625,2180.697 L215.625,2180.117 L217.1875,2179.87 L218.75,2180.08 L220.3125,2180.24 L221.875,2180.783 L223.4375,2181.448 L225,2175.707 L226.5625,2173.05 L228.125,2173.022 L229.6875,2174.394 L231.25,2175.561 L232.8125,2175.566 L234.375,2176.01 L235.9375,2176.232 L237.5,2165.684 L239.0625,2163.343 L240.625,2163.27 L242.1875,2163.896 L243.75,2164.039 L245.3125,2165.566 L246.875,2166.097 L248.4375,2165.652 L250,2176.087 L251.5625,2177.284 L253.125,2179.716 L254.6875,2181.186 L256.25,2181.873 L257.8125,2182.695 L259.375,2183.391 L260.9375,2182.455 L262.5,2198.762 L264.0625,2199.077 L265.625,2199.822 L267.1875,2200.416 L268.75,2202.059 L270.3125,2201.854 L271.875,2200.689 L273.4375,2201.135 L275,2203.025 L276.5625,2204.073 L278.125,2204.554 L279.6875,2205.554 L281.25,2206.015 L282.8125,2207.307 L284.375,2209.493 L285.9375,2208.95 L287.5,2236.764 L289.0625,2240.342 L290.625,2241.767 L292.1875,2241.88 L293.75,2243.48 L295.3125,2243.811 L296.875,2244.151 L298.4375,2245.955 L300,2312.981 L301.5625,2316.942 L303.125,2319.166 L304.6875,2319.681 L306.25,2323.248 L307.8125,2322.219 L309.375,2318.922 L310.9375,2320.45 L312.5,2240.241 L314.0625,2242.073 L315.625,2243.53 L317.1875,2245.1 L318.75,2245.81 L320.3125,2246.246 L321.875,2246.612 L323.4375,2247.358 L325,2304.215 L326.5625,2308.136 L328.125,2308.091 L329.6875,2308.379 L331.25,2310.071 L332.8125,2307.848 L334.375,2311.331 L335.9375,2311.033 L337.5,2325.846 L339.0625,2332.672 L340.625,2330.75 L342.1875,2334.13 L343.75,2334.602 L345.3125,2336.123 L346.875,2333.601 L348.4375,2335.688 L350,2323.407 L351.5625,2327.552 L353.125,2331.681 L354.6875,2332.365 L356.25,2329.498 L357.8125,2330.53 L359.375,2331.583 L360.9375,2332.146 L362.5,2335.941 L364.0625,2338.885 L365.625,2337.964 L367.1875,2338.436 L368.75,2336.89 L370.3125,2339.773 L371.875,2337.573 L373.4375,2340 " stroke="blue" fill="none" />
<text x="750" y="770" font-family="Arial" font-size="12" fill="black">Simplified</text>
<text x="750" y="785" font-family="Arial" font-size="10" fill="black">104.5699</text>
<text x="750" y="1000" font-family="Arial" font-size="10" fill="black">3.142108</text>
<path d="M757.0313,989.3228 L764.4531,989.4422 L771.875,989.642 L779.2969,989.437 L786.7188,989.2943 L794.1406,989.2554 L801.5625,990 L808.9844,989.3384 L816.4063,988.7105 L823.8281,988.56 L831.25,989.1127 L838.6719,989.1957 L846.0938,989.1438 L853.5156,988.4044 L860.9375,989.4655 L868.3594,988.0437 L875.7813,987.5741 L883.2031,988.3447 L890.625,987.8725 L898.0469,987.7869 L905.4688,984.9459 L912.8906,985.8954 L920.3125,983.7939 L927.7344,982.9402 L935.1563,983.4877 L942.5781,983.7887 L950,982.0893 L957.4219,984.4736 L964.8438,983.6537 L972.2656,984.7097 L979.6875,982.1022 L987.1094,983.3528 L994.5313,978.1508 L1001.953,975.2994 L1009.375,974.9128 L1016.797,944.3903 L1022.266,790 " stroke="blue" fill="none" />
<text x="750" y="1040" font-family="Arial" font-size="12" fill="black">Simplified</text>
<text x="750" y="1055" font-family="Arial" font-size="10" fill="black">4184.143</text>
<text x="750" y="1270" font-family="Arial" font-size="10" fill="black">126.6842</text>
<path d="M757.0313,1259.325 L764.4531,1259.442 L771.875,1259.642 L779.2969,1259.437 L786.7188,1259.294 L794.1406,1259.255 L801.5625,1260 L808.9844,1259.339 L816.4063,1258.711 L823.8281,1258.56 L831.25,1259.113 L838.6719,1259.196 L846.0938,1259.144 L853.5156,1258.405 L860.9375,1259.466 L868.3594,1258.044 L875.7813,1257.574 L883.2031,1258.345 L890.625,1257.873 L898.0469,1257.787 L905.4688,1254.946 L912.8906,1255.896 L920.3125,1253.794 L927.7344,1252.941 L935.1563,1253.488 L942.5781,1253.789 L950,1252.09 L957.4219,1254.474 L964.8438,1253.654 L972.2656,1254.71 L979.6875,1252.103 L987.1094,1253.353 L994.5313,1248.152 L1001.953,1245.301 L1009.375,1244.914 L1016.797,1214.395 L1022.266,1060 " stroke="blue" fill="none" />
</svg>
