<svg width="2000" height="2500" xmlns="http://www.w3.org/2000/svg">
<text x="10" y="20" font-family="Arial" font-size="26" fill="black"> [HoldBall] Training Session</text>
<text x="10" y="50" font-family="Arial" font-size="16" fill="black">[Statistics]</text>
<text x="50" y="70" font-family="Arial" font-size="12" fill="black">Started at: 3:39:27 PM, Sunday, November 26, 2023</text>
<text x="50" y="90" font-family="Arial" font-size="12" fill="black">Finished at: 3:48:18 PM, Sunday, November 26, 2023</text>
<text x="50" y="110" font-family="Arial" font-size="12" fill="black">Training Session Time: 0 hrs : 8 min : 50 sec</text>
<text x="50" y="130" font-family="Arial" font-size="12" fill="black">Inference Time: 1 hrs : 13 min : 35 sec       [Per agent: 1 hrs : 13 min : 35 sec]        [Device: CPU]</text>
<text x="50" y="150" font-family="Arial" font-size="12" fill="black">Policy Update Time: 0 hrs : 2 min : 37 sec        [Per iteration: 0 hrs : 0 min : 5 sec]        [Device: GPU]</text>
<text x="50" y="170" font-family="Arial" font-size="12" fill="black">Inference Time / Training Session Time: 8.319</text>
<text x="50" y="190" font-family="Arial" font-size="12" fill="black">Policy Update Time / Training Session Time: 0.294</text>
<text x="50" y="210" font-family="Arial" font-size="12" fill="black">Episode Count: 619</text>
<text x="50" y="230" font-family="Arial" font-size="12" fill="black">Inference Steps: 110592    [Per agent: 110592]     [Per Episode (mean): 178]</text>
<text x="50" y="250" font-family="Arial" font-size="12" fill="black">Iterations: 27</text>
<text x="50" y="270" font-family="Arial" font-size="12" fill="black">Parallel Agents: 1</text>
<text x="50" y="290" font-family="Arial" font-size="12" fill="black">Timescale: 12.35059</text>
<text x="50" y="310" font-family="Arial" font-size="12" fill="black">Trainer: PPO</text>
<text x="10" y="360" font-family="Arial" font-size="16" fill="black">[Hyperparameters]</text>
<text x="50" y="380" font-family="Arial" font-size="12" fill="black">Buffer Size: 4096        [Batch Size: 256       (x16)]</text>
<text x="50" y="400" font-family="Arial" font-size="12" fill="black">Num Epoch: 8</text>
<text x="50" y="420" font-family="Arial" font-size="12" fill="black">Time Horizon: 64</text>
<text x="50" y="440" font-family="Arial" font-size="12" fill="black">Gradient Cliping Normalization: 0.5</text>
<text x="50" y="460" font-family="Arial" font-size="12" fill="black">Learning Rate Schedule: False    </text>
<text x="10" y="510" font-family="Arial" font-size="16" fill="black">[Behaviour]</text>
<text x="50" y="530" font-family="Arial" font-size="12" fill="black">Space Size: 10</text>
<text x="50" y="550" font-family="Arial" font-size="12" fill="black">Continuous Actions: 2 [Standard Deviation: Trainable]     </text>
<text x="50" y="570" font-family="Arial" font-size="12" fill="black">Discrete Actions: 0</text>
<text x="50" y="590" font-family="Arial" font-size="12" fill="black">TargetFPS: 50 (physics update rate)</text>
<text x="50" y="610" font-family="Arial" font-size="12" fill="black">Observations Normalization: True</text>
<text x="10" y="660" font-family="Arial" font-size="16" fill="black">[Decision Requester]</text>
<text x="50" y="680" font-family="Arial" font-size="12" fill="black">Max Step: 0</text>
<text x="50" y="700" font-family="Arial" font-size="12" fill="black">Decision Period: 2      [Actions Between Decisions: True]</text>
<text x="10" y="750" font-family="Arial" font-size="16" fill="black">[Graphs]</text>
<text x="50" y="770" font-family="Arial" font-size="12" fill="black">Episode Reward (619)</text>
<text x="50" y="785" font-family="Arial" font-size="10" fill="black">627.4494</text>
<text x="50" y="1000" font-family="Arial" font-size="10" fill="black">2.275</text>
<path d="M50,989.952 L50.78125,989.7201 L51.5625,989.7841 L52.34375,989.2802 L53.125,989.5201 L53.90625,989.6721 L54.6875,989.944 L55.46875,989.5761 L56.25,989.6961 L57.03125,989.92 L57.8125,989.6561 L58.59375,989.928 L59.375,989.84 L60.15625,989.6241 L60.9375,989.864 L61.71875,989.7601 L62.5,989.7681 L63.28125,989.84 L64.0625,989.6721 L64.84375,989.84 L65.625,989.7681 L66.40625,989.944 L67.1875,989.8961 L67.96875,989.4642 L68.75,989.7601 L69.53125,989.6001 L70.3125,989.7761 L71.09375,989.84 L71.875,989.92 L72.65625,989.936 L73.4375,989.3522 L74.21875,989.816 L75,989.92 L75.78125,989.6161 L76.5625,989.9041 L77.34375,989.88 L78.125,989.8 L78.90625,989.7681 L79.6875,989.96 L80.46875,988.9843 L81.25,989.944 L82.03125,989.848 L82.8125,989.7041 L83.59375,989.96 L84.375,989.7601 L85.15625,989.3602 L85.9375,989.88 L86.71875,989.6001 L87.5,989.7521 L88.28125,989.7841 L89.0625,989.832 L89.84375,989.7041 L90.625,989.7921 L91.40625,989.848 L92.1875,989.984 L92.96875,989.7521 L93.75,989.816 L94.53125,989.6961 L95.3125,989.7441 L96.09375,989.4562 L96.875,989.8961 L97.65625,989.6561 L98.4375,989.856 L99.21875,989.9041 L100,989.6881 L100.7813,989.5042 L101.5625,989.808 L102.3438,989.1762 L103.125,989.8 L103.9063,989.5521 L104.6875,989.4401 L105.4688,989.7921 L106.25,989.7601 L107.0313,989.6481 L107.8125,989.5841 L108.5938,989.4241 L109.375,989.5921 L110.1563,989.7041 L110.9375,989.5201 L111.7188,989.816 L112.5,989.6001 L113.2813,989.7761 L114.0625,989.7041 L114.8438,989.888 L115.625,989.848 L116.4063,989.96 L117.1875,989.7921 L117.9688,989.5601 L118.75,989.6081 L119.5313,989.7361 L120.3125,989.7201 L121.0938,989.7201 L121.875,989.3842 L122.6563,989.872 L123.4375,989.848 L124.2188,989.864 L125,989.3762 L125.7813,989.6641 L126.5625,989.936 L127.3438,989.96 L128.125,989.92 L128.9063,989.88 L129.6875,989.824 L130.4688,989.3762 L131.25,989.816 L132.0313,989.7281 L132.8125,989.952 L133.5938,989.5521 L134.375,989.832 L135.1563,989.7841 L135.9375,989.968 L136.7188,989.88 L137.5,990 L138.2813,989.888 L139.0625,989.944 L139.8438,989.888 L140.625,989.6401 L141.4063,989.832 L142.1875,989.912 L142.9688,989.9041 L143.75,989.816 L144.5313,989.6481 L145.3125,989.1042 L146.0938,989.9041 L146.875,989.856 L147.6563,989.3282 L148.4375,989.7521 L149.2188,989.3362 L150,989.808 L150.7813,989.928 L151.5625,989.7201 L152.3438,989.976 L153.125,989.888 L153.9063,989.6161 L154.6875,989.5601 L155.4688,989.928 L156.25,989.824 L157.0313,989.5281 L157.8125,989.6241 L158.5938,989.7921 L159.375,989.8961 L160.1563,989.6961 L160.9375,989.5841 L161.7188,989.7601 L162.5,989.84 L163.2813,989.7761 L164.0625,989.2082 L164.8438,989.848 L165.625,989.6721 L166.4063,989.6721 L167.1875,989.7121 L167.9688,989.88 L168.75,989.7441 L169.5313,989.848 L170.3125,989.6721 L171.0938,989.7441 L171.875,989.808 L172.6563,989.7841 L173.4375,989.944 L174.2188,989.5042 L175,989.856 L175.7813,989.872 L176.5625,989.7041 L177.3438,989.872 L178.125,989.856 L178.9063,989.6641 L179.6875,989.952 L180.4688,989.888 L181.25,989.848 L182.0313,989.888 L182.8125,989.9041 L183.5938,989.7841 L184.375,989.5601 L185.1563,989.832 L185.9375,989.7441 L186.7188,989.6401 L187.5,989.84 L188.2813,989.848 L189.0625,989.84 L189.8438,989.6321 L190.625,989.6241 L191.4063,989.8961 L192.1875,989.9041 L192.9688,989.856 L193.75,989.8961 L194.5313,989.96 L195.3125,989.5201 L196.0938,989.84 L196.875,989.7601 L197.6563,989.7761 L198.4375,989.7521 L199.2188,989.912 L200,989.7121 L200.7813,989.848 L201.5625,989.4802 L202.3438,989.848 L203.125,989.3682 L203.9063,989.7441 L204.6875,989.4161 L205.4688,989.6961 L206.25,989.7041 L207.0313,989.864 L207.8125,989.8 L208.5938,989.3602 L209.375,989.864 L210.1563,989.864 L210.9375,989.912 L211.7188,989.7521 L212.5,989.7681 L213.2813,989.832 L214.0625,989.816 L214.8438,989.7761 L215.625,989.816 L216.4063,989.7681 L217.1875,989.872 L217.9688,989.856 L218.75,989.848 L219.5313,989.5681 L220.3125,989.872 L221.0938,989.2802 L221.875,989.6641 L222.6563,989.7361 L223.4375,989.7761 L224.2188,989.88 L225,989.872 L225.7813,989.9041 L226.5625,988.7363 L227.3438,989.7441 L228.125,989.7681 L228.9063,989.92 L229.6875,988.9843 L230.4688,989.7761 L231.25,989.7841 L232.0313,989.856 L232.8125,989.4562 L233.5938,989.5681 L234.375,989.6881 L235.1563,989.1202 L235.9375,989.7201 L236.7188,989.5121 L237.5,989.5921 L238.2813,989.8961 L239.0625,989.7841 L239.8438,989.4562 L240.625,989.872 L241.4063,989.7281 L242.1875,989.7201 L242.9688,989.5841 L243.75,989.8961 L244.5313,989.7921 L245.3125,989.7281 L246.0938,989.6001 L246.875,989.816 L247.6563,989.6081 L248.4375,989.7201 L249.2188,989.7921 L250,989.4321 L250.7813,989.5042 L251.5625,989.7761 L252.3438,989.6161 L253.125,989.6641 L253.9063,989.1922 L254.6875,989.6161 L255.4688,988.9922 L256.25,989.3202 L257.0313,989.6641 L257.8125,989.0963 L258.5938,989.7041 L259.375,989.5601 L260.1563,989.7761 L260.9375,989.7681 L261.7188,989.5361 L262.5,989.6401 L263.2813,989.9041 L264.0625,989.872 L264.8438,989.3282 L265.625,989.4081 L266.4063,989.872 L267.1875,989.6961 L267.9688,989.6881 L268.75,989.7521 L269.5313,989.976 L270.3125,989.6881 L271.0938,989.2082 L271.875,989.9041 L272.6563,989.5201 L273.4375,988.8243 L274.2188,989.6241 L275,989.7121 L275.7813,989.7281 L276.5625,989.2402 L277.3438,989.6241 L278.125,989.2162 L278.9063,989.6081 L279.6875,989.7761 L280.4688,989.848 L281.25,989.4401 L282.0313,989.808 L282.8125,989.3042 L283.5938,989.5441 L284.375,989.7201 L285.1563,989.7201 L285.9375,989.7361 L286.7188,989.6481 L287.5,989.4882 L288.2813,989.3042 L289.0625,989.4802 L289.8438,989.832 L290.625,989.5441 L291.4063,989.1762 L292.1875,989.92 L292.9688,989.2882 L293.75,989.5761 L294.5313,989.4802 L295.3125,989.4081 L296.0938,989.2082 L296.875,988.9203 L297.6563,989.5841 L298.4375,989.808 L299.2188,989.3122 L300,989.3602 L300.7813,989.0643 L301.5625,989.1282 L302.3438,989.3282 L303.125,989.5841 L303.9063,989.5281 L304.6875,989.7201 L305.4688,989.7841 L306.25,989.6561 L307.0313,989.3122 L307.8125,989.4962 L308.5938,989.1602 L309.375,989.1522 L310.1563,989.808 L310.9375,989.6881 L311.7188,989.848 L312.5,989.6401 L313.2813,989.0003 L314.0625,989.6321 L314.8438,989.5361 L315.625,989.5521 L316.4063,989.0883 L317.1875,989.1602 L317.9688,989.5281 L318.75,989.6001 L319.5313,989.88 L320.3125,989.7761 L321.0938,989.5761 L321.875,989.3842 L322.6563,989.6721 L323.4375,988.9922 L324.2188,989.7441 L325,989.3682 L325.7813,988.9922 L326.5625,989.6561 L327.3438,989.4241 L328.125,989.6481 L328.9063,989.6001 L329.6875,989.1522 L330.4688,989.6161 L331.25,989.7601 L332.0313,988.3204 L332.8125,989.2402 L333.5938,989.3522 L334.375,989.1922 L335.1563,989.6481 L335.9375,989.6641 L336.7188,988.7924 L337.5,989.0803 L338.2813,989.88 L339.0625,989.1282 L339.8438,989.6961 L340.625,989.4562 L341.4063,989.1042 L342.1875,989.4722 L342.9688,988.8004 L343.75,989.6961 L344.5313,989.808 L345.3125,988.9603 L346.0938,988.9843 L346.875,989.4401 L347.6563,989.7441 L348.4375,989.5921 L349.2188,989.1122 L350,989.2562 L350.7813,989.5361 L351.5625,989.3042 L352.3438,989.0963 L353.125,989.3442 L353.9063,989.4882 L354.6875,989.872 L355.4688,988.7764 L356.25,987.8326 L357.0313,988.6564 L357.8125,989.8 L358.5938,989.0243 L359.375,989.6481 L360.1563,988.6804 L360.9375,988.8643 L361.7188,989.84 L362.5,989.5281 L363.2813,988.7603 L364.0625,989.5361 L364.8438,989.3842 L365.625,989.5121 L366.4063,989.88 L367.1875,989.4401 L367.9688,989.2482 L368.75,988.7443 L369.5313,989.3922 L370.3125,989.1842 L371.0938,987.2328 L371.875,989.6881 L372.6563,989.6801 L373.4375,986.9209 L374.2188,989.0563 L375,989.0083 L375.7813,989.4482 L376.5625,988.1445 L377.3438,987.4887 L378.125,989.4161 L378.9063,987.8566 L379.6875,987.7846 L380.4688,986.9929 L381.25,989.0483 L382.0313,989.4962 L382.8125,989.2722 L383.5938,989.6641 L384.375,988.1205 L385.1563,988.7123 L385.9375,989.872 L386.7188,988.7603 L387.5,988.6404 L388.2813,989.944 L389.0625,989.2722 L389.8438,989.2162 L390.625,988.2085 L391.4063,989.3122 L392.1875,989.3922 L392.9688,989.7041 L393.75,989.3362 L394.5313,989.1122 L395.3125,989.2802 L396.0938,989.1602 L396.875,988.1205 L397.6563,988.9843 L398.4375,989.5441 L399.2188,987.1848 L400,982.4342 L400.7813,988.6804 L401.5625,987.0728 L402.3438,989.832 L403.125,989.7521 L403.9063,988.8004 L404.6875,988.9123 L405.4688,988.2885 L406.25,987.6807 L407.0313,989.6241 L407.8125,989.888 L408.5938,986.2891 L409.375,988.9203 L410.1563,989.968 L410.9375,985.8812 L411.7188,989.4882 L412.5,989.7601 L413.2813,989.7281 L414.0625,989.3602 L414.8438,989.4401 L415.625,989.4241 L416.4063,987.1608 L417.1875,985.8332 L417.9688,989.88 L418.75,986.8249 L419.5313,988.8004 L420.3125,988.7844 L421.0938,986.713 L421.875,987.5367 L422.6563,988.8803 L423.4375,986.705 L424.2188,989.1202 L425,989.4482 L425.7813,989.0003 L426.5625,986.8089 L427.3438,988.7603 L428.125,989.872 L428.9063,987.3767 L429.6875,989.1762 L430.4688,986.9209 L431.25,988.3845 L432.0313,986.8809 L432.8125,989.3602 L433.5938,989.6001 L434.375,988.8004 L435.1563,989.0883 L435.9375,988.1445 L436.7188,989.5601 L437.5,989.0483 L438.2813,988.5044 L439.0625,987.9686 L439.8438,985.5693 L440.625,989.1122 L441.4063,989.0323 L442.1875,988.3044 L442.9688,988.3445 L443.75,986.2491 L444.5313,986.697 L445.3125,989.3602 L446.0938,988.6244 L446.875,987.0168 L447.6563,985.4013 L448.4375,988.1445 L449.2188,989.3922 L450,985.4573 L450.7813,989.6721 L451.5625,988.4804 L452.3438,988.0085 L453.125,989.5361 L453.9063,986.8649 L454.6875,987.7686 L455.4688,986.8729 L456.25,988.3765 L457.0313,987.8406 L457.8125,982.7701 L458.5938,986.9289 L459.375,988.5844 L460.1563,986.345 L460.9375,989.0563 L461.7188,981.8583 L462.5,982.8181 L463.2813,989.1842 L464.0625,985.8252 L464.8438,988.4324 L465.625,987.9846 L466.4063,986.337 L467.1875,983.322 L467.9688,989.6481 L468.75,985.0255 L469.5313,987.5607 L470.3125,984.2656 L471.0938,987.3287 L471.875,984.7135 L472.6563,984.1057 L473.4375,989.0723 L474.2188,986.8649 L475,984.2496 L475.7813,979.5229 L476.5625,988.1365 L477.3438,986.7609 L478.125,988.5124 L478.9063,988.8883 L479.6875,982.1463 L480.4688,984.7215 L481.25,983.154 L482.0313,989.5042 L482.8125,986.9048 L483.5938,974.812 L484.375,987.3847 L485.1563,988.1205 L485.9375,984.4256 L486.7188,989.4081 L487.5,988.6164 L488.2813,984.6176 L489.0625,981.8503 L489.8438,982.954 L490.625,988.2005 L491.4063,978.3472 L492.1875,988.9283 L492.9688,988.9603 L493.75,989.5441 L494.5313,987.1048 L495.3125,979.5309 L496.0938,987.8486 L496.875,987.1448 L497.6563,984.4096 L498.4375,989.3842 L499.2188,987.1848 L500,987.1768 L500.7813,985.5453 L501.5625,978.6992 L502.3438,980.9146 L503.125,978.8831 L503.9063,982.0183 L504.6875,988.7283 L505.4688,975.6758 L506.25,987.8166 L507.0313,984.6895 L507.8125,986.8089 L508.5938,989.824 L509.375,989.0563 L510.1563,983.6898 L510.9375,981.7464 L511.7188,973.7083 L512.5,987.6727 L513.2813,979.9229 L514.0625,969.9811 L514.8438,981.3465 L515.625,987.9286 L516.4063,988.0005 L517.1875,986.9689 L517.9688,984.8095 L518.75,988.6004 L519.5313,976.5956 L520.3125,986.1291 L521.0938,971.5407 L521.875,982.0663 L522.6563,975.6838 L523.4375,983.9777 L524.2188,978.5632 L525,790 L525.7813,926.4537 L526.5625,976.5316 L527.3438,988.8083 L528.125,988.5764 L528.9063,980.4108 L529.6875,981.6664 L530.4688,954.2325 L531.25,955.0163 L532.0313,908.3112 L532.8125,921.6722 " stroke="blue" fill="none" />
<text x="50" y="1040" font-family="Arial" font-size="12" fill="black">Episode Length (619)</text>
<text x="50" y="1055" font-family="Arial" font-size="10" fill="black">12550</text>
<text x="50" y="1270" font-family="Arial" font-size="10" fill="black">47</text>
<path d="M50,1259.968 L50.78125,1259.728 L51.5625,1259.792 L52.34375,1259.28 L53.125,1259.52 L53.90625,1259.68 L54.6875,1259.952 L55.46875,1259.584 L56.25,1259.696 L57.03125,1259.92 L57.8125,1259.664 L58.59375,1259.936 L59.375,1259.84 L60.15625,1259.632 L60.9375,1259.872 L61.71875,1259.76 L62.5,1259.776 L63.28125,1259.84 L64.0625,1259.68 L64.84375,1259.84 L65.625,1259.776 L66.40625,1259.952 L67.1875,1259.904 L67.96875,1259.472 L68.75,1259.76 L69.53125,1259.6 L70.3125,1259.776 L71.09375,1259.84 L71.875,1259.92 L72.65625,1259.936 L73.4375,1259.36 L74.21875,1259.824 L75,1259.92 L75.78125,1259.616 L76.5625,1259.904 L77.34375,1259.888 L78.125,1259.808 L78.90625,1259.776 L79.6875,1259.968 L80.46875,1258.992 L81.25,1259.952 L82.03125,1259.856 L82.8125,1259.712 L83.59375,1259.968 L84.375,1259.76 L85.15625,1259.36 L85.9375,1259.888 L86.71875,1259.6 L87.5,1259.76 L88.28125,1259.792 L89.0625,1259.84 L89.84375,1259.712 L90.625,1259.792 L91.40625,1259.856 L92.1875,1259.984 L92.96875,1259.76 L93.75,1259.824 L94.53125,1259.696 L95.3125,1259.744 L96.09375,1259.456 L96.875,1259.904 L97.65625,1259.664 L98.4375,1259.856 L99.21875,1259.904 L100,1259.696 L100.7813,1259.504 L101.5625,1259.808 L102.3438,1259.184 L103.125,1259.808 L103.9063,1259.552 L104.6875,1259.44 L105.4688,1259.792 L106.25,1259.76 L107.0313,1259.648 L107.8125,1259.584 L108.5938,1259.424 L109.375,1259.6 L110.1563,1259.712 L110.9375,1259.52 L111.7188,1259.824 L112.5,1259.6 L113.2813,1259.776 L114.0625,1259.712 L114.8438,1259.888 L115.625,1259.856 L116.4063,1259.968 L117.1875,1259.792 L117.9688,1259.568 L118.75,1259.616 L119.5313,1259.744 L120.3125,1259.728 L121.0938,1259.728 L121.875,1259.392 L122.6563,1259.872 L123.4375,1259.856 L124.2188,1259.872 L125,1259.376 L125.7813,1259.664 L126.5625,1259.936 L127.3438,1259.968 L128.125,1259.92 L128.9063,1259.888 L129.6875,1259.824 L130.4688,1259.376 L131.25,1259.824 L132.0313,1259.728 L132.8125,1259.952 L133.5938,1259.552 L134.375,1259.84 L135.1563,1259.792 L135.9375,1259.968 L136.7188,1259.888 L137.5,1260 L138.2813,1259.888 L139.0625,1259.952 L139.8438,1259.888 L140.625,1259.648 L141.4063,1259.84 L142.1875,1259.92 L142.9688,1259.904 L143.75,1259.824 L144.5313,1259.648 L145.3125,1259.104 L146.0938,1259.904 L146.875,1259.856 L147.6563,1259.328 L148.4375,1259.76 L149.2188,1259.344 L150,1259.808 L150.7813,1259.936 L151.5625,1259.728 L152.3438,1259.984 L153.125,1259.888 L153.9063,1259.616 L154.6875,1259.568 L155.4688,1259.936 L156.25,1259.824 L157.0313,1259.536 L157.8125,1259.632 L158.5938,1259.792 L159.375,1259.904 L160.1563,1259.696 L160.9375,1259.584 L161.7188,1259.76 L162.5,1259.84 L163.2813,1259.776 L164.0625,1259.216 L164.8438,1259.856 L165.625,1259.68 L166.4063,1259.68 L167.1875,1259.712 L167.9688,1259.888 L168.75,1259.744 L169.5313,1259.856 L170.3125,1259.68 L171.0938,1259.744 L171.875,1259.808 L172.6563,1259.792 L173.4375,1259.952 L174.2188,1259.504 L175,1259.856 L175.7813,1259.872 L176.5625,1259.712 L177.3438,1259.872 L178.125,1259.856 L178.9063,1259.664 L179.6875,1259.952 L180.4688,1259.888 L181.25,1259.856 L182.0313,1259.888 L182.8125,1259.904 L183.5938,1259.792 L184.375,1259.568 L185.1563,1259.84 L185.9375,1259.744 L186.7188,1259.648 L187.5,1259.84 L188.2813,1259.856 L189.0625,1259.84 L189.8438,1259.632 L190.625,1259.632 L191.4063,1259.904 L192.1875,1259.904 L192.9688,1259.856 L193.75,1259.904 L194.5313,1259.968 L195.3125,1259.52 L196.0938,1259.84 L196.875,1259.76 L197.6563,1259.776 L198.4375,1259.76 L199.2188,1259.92 L200,1259.712 L200.7813,1259.856 L201.5625,1259.488 L202.3438,1259.856 L203.125,1259.376 L203.9063,1259.744 L204.6875,1259.424 L205.4688,1259.696 L206.25,1259.712 L207.0313,1259.872 L207.8125,1259.808 L208.5938,1259.36 L209.375,1259.872 L210.1563,1259.872 L210.9375,1259.92 L211.7188,1259.76 L212.5,1259.776 L213.2813,1259.84 L214.0625,1259.824 L214.8438,1259.776 L215.625,1259.824 L216.4063,1259.776 L217.1875,1259.872 L217.9688,1259.856 L218.75,1259.856 L219.5313,1259.568 L220.3125,1259.872 L221.0938,1259.28 L221.875,1259.664 L222.6563,1259.744 L223.4375,1259.776 L224.2188,1259.888 L225,1259.872 L225.7813,1259.904 L226.5625,1258.736 L227.3438,1259.744 L228.125,1259.776 L228.9063,1259.92 L229.6875,1258.992 L230.4688,1259.776 L231.25,1259.792 L232.0313,1259.856 L232.8125,1259.456 L233.5938,1259.568 L234.375,1259.696 L235.1563,1259.12 L235.9375,1259.728 L236.7188,1259.52 L237.5,1259.6 L238.2813,1259.904 L239.0625,1259.792 L239.8438,1259.456 L240.625,1259.872 L241.4063,1259.728 L242.1875,1259.728 L242.9688,1259.584 L243.75,1259.904 L244.5313,1259.792 L245.3125,1259.728 L246.0938,1259.6 L246.875,1259.824 L247.6563,1259.616 L248.4375,1259.728 L249.2188,1259.792 L250,1259.44 L250.7813,1259.504 L251.5625,1259.776 L252.3438,1259.616 L253.125,1259.664 L253.9063,1259.2 L254.6875,1259.616 L255.4688,1258.992 L256.25,1259.328 L257.0313,1259.664 L257.8125,1259.104 L258.5938,1259.712 L259.375,1259.568 L260.1563,1259.776 L260.9375,1259.776 L261.7188,1259.536 L262.5,1259.648 L263.2813,1259.904 L264.0625,1259.872 L264.8438,1259.328 L265.625,1259.408 L266.4063,1259.872 L267.1875,1259.696 L267.9688,1259.696 L268.75,1259.76 L269.5313,1259.984 L270.3125,1259.696 L271.0938,1259.216 L271.875,1259.904 L272.6563,1259.52 L273.4375,1258.832 L274.2188,1259.632 L275,1259.712 L275.7813,1259.728 L276.5625,1259.248 L277.3438,1259.632 L278.125,1259.216 L278.9063,1259.616 L279.6875,1259.776 L280.4688,1259.856 L281.25,1259.44 L282.0313,1259.808 L282.8125,1259.312 L283.5938,1259.552 L284.375,1259.728 L285.1563,1259.728 L285.9375,1259.744 L286.7188,1259.648 L287.5,1259.488 L288.2813,1259.312 L289.0625,1259.488 L289.8438,1259.84 L290.625,1259.552 L291.4063,1259.184 L292.1875,1259.92 L292.9688,1259.296 L293.75,1259.584 L294.5313,1259.488 L295.3125,1259.408 L296.0938,1259.216 L296.875,1258.928 L297.6563,1259.584 L298.4375,1259.808 L299.2188,1259.312 L300,1259.36 L300.7813,1259.072 L301.5625,1259.136 L302.3438,1259.328 L303.125,1259.584 L303.9063,1259.536 L304.6875,1259.728 L305.4688,1259.792 L306.25,1259.664 L307.0313,1259.312 L307.8125,1259.504 L308.5938,1259.168 L309.375,1259.152 L310.1563,1259.808 L310.9375,1259.696 L311.7188,1259.856 L312.5,1259.648 L313.2813,1259.008 L314.0625,1259.632 L314.8438,1259.536 L315.625,1259.552 L316.4063,1259.088 L317.1875,1259.168 L317.9688,1259.536 L318.75,1259.6 L319.5313,1259.888 L320.3125,1259.776 L321.0938,1259.584 L321.875,1259.392 L322.6563,1259.68 L323.4375,1258.992 L324.2188,1259.744 L325,1259.376 L325.7813,1258.992 L326.5625,1259.664 L327.3438,1259.424 L328.125,1259.648 L328.9063,1259.6 L329.6875,1259.152 L330.4688,1259.616 L331.25,1259.76 L332.0313,1258.32 L332.8125,1259.248 L333.5938,1259.36 L334.375,1259.2 L335.1563,1259.648 L335.9375,1259.664 L336.7188,1258.8 L337.5,1259.088 L338.2813,1259.888 L339.0625,1259.136 L339.8438,1259.696 L340.625,1259.456 L341.4063,1259.104 L342.1875,1259.472 L342.9688,1258.8 L343.75,1259.696 L344.5313,1259.808 L345.3125,1258.96 L346.0938,1258.992 L346.875,1259.44 L347.6563,1259.744 L348.4375,1259.6 L349.2188,1259.12 L350,1259.264 L350.7813,1259.536 L351.5625,1259.312 L352.3438,1259.104 L353.125,1259.344 L353.9063,1259.488 L354.6875,1259.872 L355.4688,1258.784 L356.25,1257.841 L357.0313,1258.656 L357.8125,1259.808 L358.5938,1259.024 L359.375,1259.648 L360.1563,1258.688 L360.9375,1258.864 L361.7188,1259.84 L362.5,1259.536 L363.2813,1258.768 L364.0625,1259.536 L364.8438,1259.392 L365.625,1259.52 L366.4063,1259.888 L367.1875,1259.44 L367.9688,1259.248 L368.75,1258.752 L369.5313,1259.392 L370.3125,1259.184 L371.0938,1257.233 L371.875,1259.696 L372.6563,1259.68 L373.4375,1256.929 L374.2188,1259.056 L375,1259.008 L375.7813,1259.456 L376.5625,1258.144 L377.3438,1257.489 L378.125,1259.424 L378.9063,1257.857 L379.6875,1257.792 L380.4688,1256.993 L381.25,1259.056 L382.0313,1259.504 L382.8125,1259.28 L383.5938,1259.664 L384.375,1258.128 L385.1563,1258.72 L385.9375,1259.872 L386.7188,1258.768 L387.5,1258.64 L388.2813,1259.952 L389.0625,1259.28 L389.8438,1259.216 L390.625,1258.208 L391.4063,1259.312 L392.1875,1259.392 L392.9688,1259.712 L393.75,1259.344 L394.5313,1259.12 L395.3125,1259.28 L396.0938,1259.168 L396.875,1258.128 L397.6563,1258.992 L398.4375,1259.552 L399.2188,1257.185 L400,1252.434 L400.7813,1258.688 L401.5625,1257.073 L402.3438,1259.84 L403.125,1259.76 L403.9063,1258.8 L404.6875,1258.912 L405.4688,1258.288 L406.25,1257.681 L407.0313,1259.632 L407.8125,1259.888 L408.5938,1256.289 L409.375,1258.928 L410.1563,1259.968 L410.9375,1255.889 L411.7188,1259.488 L412.5,1259.76 L413.2813,1259.728 L414.0625,1259.36 L414.8438,1259.44 L415.625,1259.424 L416.4063,1257.169 L417.1875,1255.841 L417.9688,1259.888 L418.75,1256.833 L419.5313,1258.8 L420.3125,1258.784 L421.0938,1256.721 L421.875,1257.537 L422.6563,1258.88 L423.4375,1256.705 L424.2188,1259.12 L425,1259.456 L425.7813,1259.008 L426.5625,1256.817 L427.3438,1258.768 L428.125,1259.872 L428.9063,1257.377 L429.6875,1259.184 L430.4688,1256.929 L431.25,1258.384 L432.0313,1256.881 L432.8125,1259.36 L433.5938,1259.6 L434.375,1258.8 L435.1563,1259.088 L435.9375,1258.144 L436.7188,1259.568 L437.5,1259.056 L438.2813,1258.512 L439.0625,1257.969 L439.8438,1255.569 L440.625,1259.12 L441.4063,1259.04 L442.1875,1258.304 L442.9688,1258.352 L443.75,1256.257 L444.5313,1256.705 L445.3125,1259.36 L446.0938,1258.624 L446.875,1257.025 L447.6563,1255.409 L448.4375,1258.144 L449.2188,1259.392 L450,1255.457 L450.7813,1259.68 L451.5625,1258.48 L452.3438,1258.016 L453.125,1259.536 L453.9063,1256.865 L454.6875,1257.776 L455.4688,1256.881 L456.25,1258.384 L457.0313,1257.841 L457.8125,1252.77 L458.5938,1256.929 L459.375,1258.592 L460.1563,1256.353 L460.9375,1259.056 L461.7188,1251.858 L462.5,1252.818 L463.2813,1259.184 L464.0625,1255.825 L464.8438,1258.432 L465.625,1257.984 L466.4063,1256.337 L467.1875,1253.33 L467.9688,1259.648 L468.75,1255.025 L469.5313,1257.569 L470.3125,1254.273 L471.0938,1257.329 L471.875,1254.721 L472.6563,1254.113 L473.4375,1259.072 L474.2188,1256.865 L475,1254.257 L475.7813,1249.522 L476.5625,1258.144 L477.3438,1256.769 L478.125,1258.512 L478.9063,1258.896 L479.6875,1252.146 L480.4688,1254.721 L481.25,1253.154 L482.0313,1259.504 L482.8125,1256.913 L483.5938,1244.82 L484.375,1257.393 L485.1563,1258.128 L485.9375,1254.433 L486.7188,1259.408 L487.5,1258.624 L488.2813,1254.625 L489.0625,1251.858 L489.8438,1252.962 L490.625,1258.208 L491.4063,1248.355 L492.1875,1258.928 L492.9688,1258.96 L493.75,1259.552 L494.5313,1257.105 L495.3125,1249.538 L496.0938,1257.857 L496.875,1257.153 L497.6563,1254.417 L498.4375,1259.392 L499.2188,1257.185 L500,1257.185 L500.7813,1255.553 L501.5625,1248.707 L502.3438,1250.914 L503.125,1248.883 L503.9063,1252.018 L504.6875,1258.736 L505.4688,1245.683 L506.25,1257.824 L507.0313,1254.689 L507.8125,1256.817 L508.5938,1259.824 L509.375,1259.056 L510.1563,1253.698 L510.9375,1251.746 L511.7188,1243.716 L512.5,1257.681 L513.2813,1249.922 L514.0625,1239.989 L514.8438,1251.346 L515.625,1257.937 L516.4063,1258 L517.1875,1256.977 L517.9688,1254.817 L518.75,1258.608 L519.5313,1246.595 L520.3125,1256.129 L521.0938,1241.54 L521.875,1252.066 L522.6563,1245.683 L523.4375,1253.985 L524.2188,1248.563 L525,1060 L525.7813,1196.447 L526.5625,1246.531 L527.3438,1258.816 L528.125,1258.576 L528.9063,1250.418 L529.6875,1251.666 L530.4688,1224.233 L531.25,1225.016 L532.0313,1178.308 L532.8125,1191.664 " stroke="blue" fill="none" />
<text x="50" y="1310" font-family="Arial" font-size="12" fill="black">Policy Loss</text>
<text x="50" y="1325" font-family="Arial" font-size="10" fill="black">0.02508443</text>
<text x="50" y="1540" font-family="Arial" font-size="10" fill="black">0.001458745</text>
<path d="M50,1494.928 L51.5625,1516.423 L53.125,1512.555 L54.6875,1517.751 L56.25,1522.346 L57.8125,1514.597 L59.375,1513.368 L60.9375,1516.184 L62.5,1497.666 L64.0625,1519.958 L65.625,1514.625 L67.1875,1512.913 L68.75,1508.862 L70.3125,1519.122 L71.875,1517.187 L73.4375,1506.771 L75,1489.127 L76.5625,1515.736 L78.125,1527.586 L79.6875,1517.585 L81.25,1512.532 L82.8125,1519.732 L84.375,1509.606 L85.9375,1517.36 L87.5,1452.071 L89.0625,1517.468 L90.625,1519.896 L92.1875,1519.43 L93.75,1530 L95.3125,1516.818 L96.875,1511.876 L98.4375,1517.022 L100,1450.164 L101.5625,1522.851 L103.125,1525.695 L104.6875,1513.594 L106.25,1518.256 L107.8125,1512.174 L109.375,1520.473 L110.9375,1515.956 L112.5,1461.073 L114.0625,1512.947 L115.625,1521.5 L117.1875,1526.8 L118.75,1509.827 L120.3125,1518.625 L121.875,1508.687 L123.4375,1521.257 L125,1449.061 L126.5625,1525.687 L128.125,1518.718 L129.6875,1524.561 L131.25,1517.859 L132.8125,1522.281 L134.375,1510.877 L135.9375,1517.899 L137.5,1383.993 L139.0625,1522.158 L140.625,1519.344 L142.1875,1517.116 L143.75,1524.165 L145.3125,1517.398 L146.875,1522.685 L148.4375,1516.796 L150,1330 L151.5625,1513.752 L153.125,1505.031 L154.6875,1511.542 L156.25,1506.223 L157.8125,1523.076 L159.375,1521.235 L160.9375,1512.658 L162.5,1370.164 L164.0625,1520.253 L165.625,1515.649 L167.1875,1504.406 L168.75,1521.119 L170.3125,1516.339 L171.875,1515.89 L173.4375,1507.64 L175,1401.288 L176.5625,1518.845 L178.125,1523.349 L179.6875,1509.02 L181.25,1522.033 L182.8125,1513.624 L184.375,1521.487 L185.9375,1516.455 L187.5,1391.29 L189.0625,1515.081 L190.625,1513.121 L192.1875,1522.204 L193.75,1525.399 L195.3125,1507.733 L196.875,1507.184 L198.4375,1506.947 L200,1382.252 L201.5625,1519.656 L203.125,1514.233 L204.6875,1503.557 L206.25,1518.76 L207.8125,1518.89 L209.375,1513.567 L210.9375,1513.034 L212.5,1343.148 L214.0625,1512.216 L215.625,1519.674 L217.1875,1512.206 L218.75,1516.797 L220.3125,1521.016 L221.875,1509.44 L223.4375,1515.942 L225,1352.738 L226.5625,1520.027 L228.125,1522.366 L229.6875,1516.92 L231.25,1513.652 L232.8125,1516.349 L234.375,1512.71 L235.9375,1521.605 L237.5,1431.915 L239.0625,1513.039 L240.625,1518.538 L242.1875,1518.655 L243.75,1515.784 L245.3125,1514.791 L246.875,1515.062 L248.4375,1520.428 L250,1370.517 L251.5625,1509.412 L253.125,1520.697 L254.6875,1512.529 L256.25,1517.672 L257.8125,1518.148 L259.375,1524.413 L260.9375,1524.313 L262.5,1384.137 L264.0625,1511.813 L265.625,1517.602 L267.1875,1519.95 L268.75,1521.1 L270.3125,1514.614 L271.875,1521.422 L273.4375,1519.239 L275,1411.727 L276.5625,1515.999 L278.125,1519.987 L279.6875,1521.328 L281.25,1513.112 L282.8125,1517.263 L284.375,1524.604 L285.9375,1525.975 L287.5,1438.549 L289.0625,1520.199 L290.625,1521.738 L292.1875,1529.308 L293.75,1509.184 L295.3125,1520.854 L296.875,1526.049 L298.4375,1517.332 L300,1442.471 L301.5625,1515.312 L303.125,1519.616 L304.6875,1509.611 L306.25,1515.608 L307.8125,1512.703 L309.375,1518.197 L310.9375,1511.009 L312.5,1454.356 L314.0625,1513.35 L315.625,1525.207 L317.1875,1522.483 L318.75,1509.285 L320.3125,1519.628 L321.875,1521.287 L323.4375,1517.63 L325,1450.552 L326.5625,1520.519 L328.125,1515.244 L329.6875,1513.438 L331.25,1515.172 L332.8125,1514.237 L334.375,1514.052 L335.9375,1511.693 L337.5,1338.444 L339.0625,1520.62 L340.625,1505.293 L342.1875,1516.999 L343.75,1509.213 L345.3125,1517.144 L346.875,1509.959 L348.4375,1516.533 L350,1413.632 L351.5625,1518.681 L353.125,1514.686 L354.6875,1520.405 L356.25,1513.411 L357.8125,1516.546 L359.375,1509.829 L360.9375,1521.374 L362.5,1450.277 L364.0625,1518.623 L365.625,1520.372 L367.1875,1518.792 L368.75,1515.227 L370.3125,1516.143 L371.875,1519.531 L373.4375,1515.372 L375,1447.754 L376.5625,1519.637 L378.125,1518.673 L379.6875,1516.253 L381.25,1506.894 L382.8125,1509.16 L384.375,1515.683 L385.9375,1525.954 " stroke="blue" fill="none" />
<text x="50" y="1580" font-family="Arial" font-size="12" fill="black">Value Loss</text>
<text x="50" y="1595" font-family="Arial" font-size="10" fill="black">0.008315115</text>
<text x="50" y="1810" font-family="Arial" font-size="10" fill="black">0.0001339575</text>
<path d="M50,1600 L51.5625,1759.202 L53.125,1782.712 L54.6875,1790.44 L56.25,1792.216 L57.8125,1793.284 L59.375,1794.18 L60.9375,1794.844 L62.5,1741.37 L64.0625,1786.588 L65.625,1792.977 L67.1875,1794.888 L68.75,1795.97 L70.3125,1796.61 L71.875,1797.13 L73.4375,1797.511 L75,1777.461 L76.5625,1786.454 L78.125,1788.192 L79.6875,1789.453 L81.25,1790.5 L82.8125,1791.383 L84.375,1792.139 L85.9375,1792.871 L87.5,1781.478 L89.0625,1784.812 L90.625,1786.992 L92.1875,1788.271 L93.75,1789.238 L95.3125,1790.075 L96.875,1790.811 L98.4375,1791.404 L100,1778.875 L101.5625,1782.802 L103.125,1785.395 L104.6875,1787.199 L106.25,1788.626 L107.8125,1789.788 L109.375,1790.75 L110.9375,1791.556 L112.5,1779.42 L114.0625,1782.449 L115.625,1784.68 L117.1875,1786.072 L118.75,1786.888 L120.3125,1787.535 L121.875,1788.123 L123.4375,1788.553 L125,1774.295 L126.5625,1778.244 L128.125,1780.489 L129.6875,1781.264 L131.25,1781.897 L132.8125,1782.369 L134.375,1782.743 L135.9375,1782.963 L137.5,1767.03 L139.0625,1773.866 L140.625,1779.066 L142.1875,1780.146 L143.75,1780.967 L145.3125,1781.574 L146.875,1782.01 L148.4375,1782.36 L150,1753.472 L151.5625,1768.019 L153.125,1770.435 L154.6875,1771.742 L156.25,1772.56 L157.8125,1773.204 L159.375,1773.646 L160.9375,1774.068 L162.5,1748.126 L164.0625,1755.239 L165.625,1759.082 L167.1875,1760.488 L168.75,1760.965 L170.3125,1761.597 L171.875,1761.826 L173.4375,1762.098 L175,1754.02 L176.5625,1763.679 L178.125,1765.776 L179.6875,1766.713 L181.25,1767.172 L182.8125,1767.553 L184.375,1767.969 L185.9375,1768.267 L187.5,1750.239 L189.0625,1757.896 L190.625,1760.286 L192.1875,1761.384 L193.75,1762.124 L195.3125,1762.782 L196.875,1763.441 L198.4375,1764.013 L200,1741.035 L201.5625,1749.455 L203.125,1752.131 L204.6875,1753.659 L206.25,1755.288 L207.8125,1756.027 L209.375,1757.147 L210.9375,1758.017 L212.5,1741.595 L214.0625,1754.312 L215.625,1756.408 L217.1875,1757.503 L218.75,1758.338 L220.3125,1758.942 L221.875,1759.447 L223.4375,1759.949 L225,1745.95 L226.5625,1756.373 L228.125,1758.585 L229.6875,1759.37 L231.25,1759.973 L232.8125,1760.479 L234.375,1761.006 L235.9375,1761.4 L237.5,1747.318 L239.0625,1756.663 L240.625,1757.997 L242.1875,1758.832 L243.75,1759.726 L245.3125,1760.355 L246.875,1760.855 L248.4375,1761.423 L250,1734.07 L251.5625,1738.556 L253.125,1743.261 L254.6875,1745.281 L256.25,1746.241 L257.8125,1746.961 L259.375,1747.629 L260.9375,1748.149 L262.5,1743.29 L264.0625,1753.153 L265.625,1754.788 L267.1875,1755.65 L268.75,1756.146 L270.3125,1756.726 L271.875,1757.172 L273.4375,1757.649 L275,1761.012 L276.5625,1769.961 L278.125,1773.153 L279.6875,1774.4 L281.25,1775.485 L282.8125,1776.398 L284.375,1776.963 L285.9375,1777.63 L287.5,1793.526 L289.0625,1796.137 L290.625,1797.273 L292.1875,1797.663 L293.75,1797.9 L295.3125,1798.088 L296.875,1798.262 L298.4375,1798.422 L300,1798.555 L301.5625,1799.047 L303.125,1799.466 L304.6875,1799.676 L306.25,1799.776 L307.8125,1799.863 L309.375,1799.936 L310.9375,1800 L312.5,1788.138 L314.0625,1791.021 L315.625,1792.762 L317.1875,1793.722 L318.75,1794.195 L320.3125,1794.49 L321.875,1794.972 L323.4375,1795.102 L325,1788.105 L326.5625,1790.709 L328.125,1792.044 L329.6875,1792.551 L331.25,1792.817 L332.8125,1793.003 L334.375,1793.178 L335.9375,1793.334 L337.5,1753.694 L339.0625,1763.208 L340.625,1766.732 L342.1875,1767.651 L343.75,1768.591 L345.3125,1769.044 L346.875,1769.523 L348.4375,1769.971 L350,1777.127 L351.5625,1780.896 L353.125,1782.063 L354.6875,1782.674 L356.25,1783.142 L357.8125,1783.77 L359.375,1784.186 L360.9375,1784.532 L362.5,1789.934 L364.0625,1790.649 L365.625,1791.639 L367.1875,1791.945 L368.75,1792.143 L370.3125,1792.396 L371.875,1792.521 L373.4375,1792.677 L375,1788.29 L376.5625,1789.7 L378.125,1790.383 L379.6875,1790.731 L381.25,1791.064 L382.8125,1791.27 L384.375,1791.46 L385.9375,1791.642 " stroke="blue" fill="none" />
<text x="50" y="1850" font-family="Arial" font-size="12" fill="black">Learning Rate</text>
<text x="50" y="1865" font-family="Arial" font-size="10" fill="black">0.0003</text>
<text x="50" y="2080" font-family="Arial" font-size="10" fill="black">0.0003</text>
<path d="M50,2070 L51.5625,2070 L53.125,2070 L54.6875,2070 L56.25,2070 L57.8125,2070 L59.375,2070 L60.9375,2070 L62.5,2070 L64.0625,2070 L65.625,2070 L67.1875,2070 L68.75,2070 L70.3125,2070 L71.875,2070 L73.4375,2070 L75,2070 L76.5625,2070 L78.125,2070 L79.6875,2070 L81.25,2070 L82.8125,2070 L84.375,2070 L85.9375,2070 L87.5,2070 L89.0625,2070 L90.625,2070 L92.1875,2070 L93.75,2070 L95.3125,2070 L96.875,2070 L98.4375,2070 L100,2070 L101.5625,2070 L103.125,2070 L104.6875,2070 L106.25,2070 L107.8125,2070 L109.375,2070 L110.9375,2070 L112.5,2070 L114.0625,2070 L115.625,2070 L117.1875,2070 L118.75,2070 L120.3125,2070 L121.875,2070 L123.4375,2070 L125,2070 L126.5625,2070 L128.125,2070 L129.6875,2070 L131.25,2070 L132.8125,2070 L134.375,2070 L135.9375,2070 L137.5,2070 L139.0625,2070 L140.625,2070 L142.1875,2070 L143.75,2070 L145.3125,2070 L146.875,2070 L148.4375,2070 L150,2070 L151.5625,2070 L153.125,2070 L154.6875,2070 L156.25,2070 L157.8125,2070 L159.375,2070 L160.9375,2070 L162.5,2070 L164.0625,2070 L165.625,2070 L167.1875,2070 L168.75,2070 L170.3125,2070 L171.875,2070 L173.4375,2070 L175,2070 L176.5625,2070 L178.125,2070 L179.6875,2070 L181.25,2070 L182.8125,2070 L184.375,2070 L185.9375,2070 L187.5,2070 L189.0625,2070 L190.625,2070 L192.1875,2070 L193.75,2070 L195.3125,2070 L196.875,2070 L198.4375,2070 L200,2070 L201.5625,2070 L203.125,2070 L204.6875,2070 L206.25,2070 L207.8125,2070 L209.375,2070 L210.9375,2070 L212.5,2070 L214.0625,2070 L215.625,2070 L217.1875,2070 L218.75,2070 L220.3125,2070 L221.875,2070 L223.4375,2070 L225,2070 L226.5625,2070 L228.125,2070 L229.6875,2070 L231.25,2070 L232.8125,2070 L234.375,2070 L235.9375,2070 L237.5,2070 L239.0625,2070 L240.625,2070 L242.1875,2070 L243.75,2070 L245.3125,2070 L246.875,2070 L248.4375,2070 L250,2070 L251.5625,2070 L253.125,2070 L254.6875,2070 L256.25,2070 L257.8125,2070 L259.375,2070 L260.9375,2070 L262.5,2070 L264.0625,2070 L265.625,2070 L267.1875,2070 L268.75,2070 L270.3125,2070 L271.875,2070 L273.4375,2070 L275,2070 L276.5625,2070 L278.125,2070 L279.6875,2070 L281.25,2070 L282.8125,2070 L284.375,2070 L285.9375,2070 L287.5,2070 L289.0625,2070 L290.625,2070 L292.1875,2070 L293.75,2070 L295.3125,2070 L296.875,2070 L298.4375,2070 L300,2070 L301.5625,2070 L303.125,2070 L304.6875,2070 L306.25,2070 L307.8125,2070 L309.375,2070 L310.9375,2070 L312.5,2070 L314.0625,2070 L315.625,2070 L317.1875,2070 L318.75,2070 L320.3125,2070 L321.875,2070 L323.4375,2070 L325,2070 L326.5625,2070 L328.125,2070 L329.6875,2070 L331.25,2070 L332.8125,2070 L334.375,2070 L335.9375,2070 L337.5,2070 L339.0625,2070 L340.625,2070 L342.1875,2070 L343.75,2070 L345.3125,2070 L346.875,2070 L348.4375,2070 L350,2070 L351.5625,2070 L353.125,2070 L354.6875,2070 L356.25,2070 L357.8125,2070 L359.375,2070 L360.9375,2070 L362.5,2070 L364.0625,2070 L365.625,2070 L367.1875,2070 L368.75,2070 L370.3125,2070 L371.875,2070 L373.4375,2070 L375,2070 L376.5625,2070 L378.125,2070 L379.6875,2070 L381.25,2070 L382.8125,2070 L384.375,2070 L385.9375,2070 " stroke="blue" fill="none" />
<text x="50" y="2120" font-family="Arial" font-size="12" fill="black">Entropy</text>
<text x="50" y="2135" font-family="Arial" font-size="10" fill="black">0.143352</text>
<text x="50" y="2350" font-family="Arial" font-size="10" fill="black">0.08774322</text>
<path d="M50,2154.545 L51.5625,2156.947 L53.125,2161.548 L54.6875,2161.753 L56.25,2163.028 L57.8125,2162.43 L59.375,2162.631 L60.9375,2159.038 L62.5,2182.577 L64.0625,2184.219 L65.625,2177.188 L67.1875,2176.811 L68.75,2178.341 L70.3125,2175.904 L71.875,2181.19 L73.4375,2176.677 L75,2159.104 L76.5625,2157.73 L78.125,2154.045 L79.6875,2153.579 L81.25,2151.367 L82.8125,2153.435 L84.375,2150.567 L85.9375,2151.824 L87.5,2147.963 L89.0625,2148.189 L90.625,2145.301 L92.1875,2144.812 L93.75,2143.414 L95.3125,2146.364 L96.875,2147.018 L98.4375,2143.488 L100,2143.275 L101.5625,2140.581 L103.125,2143.42 L104.6875,2142.528 L106.25,2143.681 L107.8125,2140.665 L109.375,2140 L110.9375,2140.733 L112.5,2142.801 L114.0625,2145.938 L115.625,2144.43 L117.1875,2144.595 L118.75,2145.747 L120.3125,2144.537 L121.875,2143.387 L123.4375,2146.901 L125,2149.134 L126.5625,2147.46 L128.125,2147.167 L129.6875,2145.723 L131.25,2147.146 L132.8125,2144.924 L134.375,2147.96 L135.9375,2145.863 L137.5,2147.697 L139.0625,2152.231 L140.625,2150.466 L142.1875,2151.027 L143.75,2153.403 L145.3125,2151.599 L146.875,2154.855 L148.4375,2149.005 L150,2174.92 L151.5625,2175.73 L153.125,2174.517 L154.6875,2173.362 L156.25,2178.322 L157.8125,2174.154 L159.375,2176.403 L160.9375,2176.483 L162.5,2177.979 L164.0625,2178.354 L165.625,2177.909 L167.1875,2178.053 L168.75,2176.48 L170.3125,2179.813 L171.875,2176.467 L173.4375,2176.654 L175,2189.489 L176.5625,2193.175 L178.125,2189.643 L179.6875,2190.576 L181.25,2188.632 L182.8125,2193.984 L184.375,2190.568 L185.9375,2190.871 L187.5,2210.915 L189.0625,2215.799 L190.625,2212.132 L192.1875,2212.949 L193.75,2212.915 L195.3125,2210.39 L196.875,2216.696 L198.4375,2209.14 L200,2203.544 L201.5625,2205.382 L203.125,2196.376 L204.6875,2208.426 L206.25,2202.992 L207.8125,2202.506 L209.375,2204.581 L210.9375,2202.124 L212.5,2192.627 L214.0625,2189.442 L215.625,2193.508 L217.1875,2192.155 L218.75,2189.799 L220.3125,2194.074 L221.875,2188.231 L223.4375,2196.087 L225,2195.058 L226.5625,2202.986 L228.125,2204.16 L229.6875,2200.568 L231.25,2200.634 L232.8125,2201.885 L234.375,2202.941 L235.9375,2204.656 L237.5,2209.409 L239.0625,2213.777 L240.625,2213.085 L242.1875,2211.393 L243.75,2208.44 L245.3125,2215.943 L246.875,2209.721 L248.4375,2208.255 L250,2225.862 L251.5625,2234.773 L253.125,2234.388 L254.6875,2236.117 L256.25,2232.256 L257.8125,2228.525 L259.375,2235.965 L260.9375,2232.522 L262.5,2226.313 L264.0625,2231.565 L265.625,2231.621 L267.1875,2232.006 L268.75,2227.225 L270.3125,2228.159 L271.875,2230.99 L273.4375,2229.644 L275,2238.943 L276.5625,2243.652 L278.125,2241.2 L279.6875,2238.529 L281.25,2239.165 L282.8125,2242.972 L284.375,2237.792 L285.9375,2236.225 L287.5,2295.302 L289.0625,2296.615 L290.625,2296.621 L292.1875,2294.962 L293.75,2297.361 L295.3125,2294.491 L296.875,2294.517 L298.4375,2290.536 L300,2313.969 L301.5625,2301.319 L303.125,2310.936 L304.6875,2304.758 L306.25,2312.119 L307.8125,2311.245 L309.375,2307.367 L310.9375,2313.648 L312.5,2330.121 L314.0625,2329.045 L315.625,2331.247 L317.1875,2333.965 L318.75,2328.529 L320.3125,2340 L321.875,2329.201 L323.4375,2332.047 L325,2277.541 L326.5625,2280.745 L328.125,2282.249 L329.6875,2272.023 L331.25,2276.377 L332.8125,2278.062 L334.375,2281.098 L335.9375,2277.803 L337.5,2275.852 L339.0625,2281.284 L340.625,2284.616 L342.1875,2277.327 L343.75,2279.847 L345.3125,2278.672 L346.875,2279.375 L348.4375,2275.648 L350,2310.021 L351.5625,2312.884 L353.125,2301.874 L354.6875,2311.215 L356.25,2309.359 L357.8125,2315.729 L359.375,2307.286 L360.9375,2308.046 L362.5,2312.205 L364.0625,2319.367 L365.625,2315.656 L367.1875,2311.14 L368.75,2318.281 L370.3125,2311.653 L371.875,2316.46 L373.4375,2312.322 L375,2326.881 L376.5625,2329.071 L378.125,2326.203 L379.6875,2331.593 L381.25,2325.697 L382.8125,2332.694 L384.375,2325.669 L385.9375,2326.509 " stroke="blue" fill="none" />
<text x="750" y="770" font-family="Arial" font-size="12" fill="black">Simplified</text>
<text x="750" y="785" font-family="Arial" font-size="10" fill="black">149.5663</text>
<text x="750" y="1000" font-family="Arial" font-size="10" fill="black">2.875002</text>
<path d="M764.0625,989.7004 L778.9063,989.8762 L793.75,989.756 L808.5938,989.3344 L823.4375,989.6179 L838.2813,989.9659 L853.125,989.7381 L867.9688,989.5659 L882.8125,990 L897.6563,989.8655 L912.5,989.6215 L927.3438,989.6107 L942.1875,989.2932 L957.0313,989.0941 L971.875,989.3326 L986.7188,988.9434 L1001.563,988.3245 L1016.406,988.6904 L1031.25,988.694 L1046.094,987.7396 L1060.938,987.4687 L1075.781,987.1135 L1090.625,985.4146 L1105.469,984.7401 L1120.313,984.7025 L1135.156,983.7373 L1150,981.8303 L1164.844,978.5313 L1179.688,973.8707 L1194.531,972.326 L1209.375,968.6879 L1224.219,954.6893 L1232.813,790 " stroke="blue" fill="none" />
<text x="750" y="1040" font-family="Arial" font-size="12" fill="black">Simplified</text>
<text x="750" y="1055" font-family="Arial" font-size="10" fill="black">2992.727</text>
<text x="750" y="1270" font-family="Arial" font-size="10" fill="black">58.84211</text>
<path d="M764.0625,1259.713 L778.9063,1259.882 L793.75,1259.77 L808.5938,1259.333 L823.4375,1259.63 L838.2813,1259.968 L853.125,1259.745 L867.9688,1259.573 L882.8125,1260 L897.6563,1259.871 L912.5,1259.638 L927.3438,1259.613 L942.1875,1259.3 L957.0313,1259.096 L971.875,1259.34 L986.7188,1258.952 L1001.563,1258.335 L1016.406,1258.698 L1031.25,1258.698 L1046.094,1257.743 L1060.938,1257.474 L1075.781,1257.119 L1090.625,1255.422 L1105.469,1254.747 L1120.313,1254.704 L1135.156,1253.739 L1150,1251.838 L1164.844,1248.533 L1179.688,1243.876 L1194.531,1242.337 L1209.375,1238.699 L1224.219,1224.696 L1232.813,1060 " stroke="blue" fill="none" />
</svg>
