<svg width="2000" height="2500" xmlns="http://www.w3.org/2000/svg">
<text x="10" y="20" font-family="Arial" font-size="26" fill="black"> [HoldBall] Training Session</text>
<text x="10" y="50" font-family="Arial" font-size="16" fill="black">[Statistics]</text>
<text x="50" y="70" font-family="Arial" font-size="12" fill="black">Started at: 11:47:37 PM, Sunday, December 17, 2023</text>
<text x="50" y="90" font-family="Arial" font-size="12" fill="black">Finished at: 11:56:13 PM, Sunday, December 17, 2023</text>
<text x="50" y="110" font-family="Arial" font-size="12" fill="black">Training Session Time: 0 hrs : 8 min : 35 sec</text>
<text x="50" y="130" font-family="Arial" font-size="12" fill="black">Inference Time: 1 hrs : 53 min : 45 sec       [Per agent: 1 hrs : 53 min : 45 sec]        [Device: CPU]</text>
<text x="50" y="150" font-family="Arial" font-size="12" fill="black">Policy Update Time: 0 hrs : 2 min : 24 sec        [Per iteration: 0 hrs : 0 min : 4 sec]        [Device: GPU]</text>
<text x="50" y="170" font-family="Arial" font-size="12" fill="black">Inference Time / Training Session Time: 13.190</text>
<text x="50" y="190" font-family="Arial" font-size="12" fill="black">Policy Update Time / Training Session Time: 0.279</text>
<text x="50" y="210" font-family="Arial" font-size="12" fill="black">Episode Count: 1379</text>
<text x="50" y="230" font-family="Arial" font-size="12" fill="black">Inference Steps: 340912    [Per agent: 340912]     [Per Episode (mean): 247]</text>
<text x="50" y="250" font-family="Arial" font-size="12" fill="black">Iterations: 33</text>
<text x="50" y="270" font-family="Arial" font-size="12" fill="black">Parallel Agents: 1</text>
<text x="50" y="290" font-family="Arial" font-size="12" fill="black">Timescale: 19.71319</text>
<text x="50" y="310" font-family="Arial" font-size="12" fill="black">Trainer: PPO</text>
<text x="10" y="360" font-family="Arial" font-size="16" fill="black">[Hyperparameters]</text>
<text x="50" y="380" font-family="Arial" font-size="12" fill="black">Buffer Size: 10240        [Batch Size: 512       (x20)]</text>
<text x="50" y="400" font-family="Arial" font-size="12" fill="black">Num Epoch: 8</text>
<text x="50" y="420" font-family="Arial" font-size="12" fill="black">Time Horizon: 64</text>
<text x="50" y="440" font-family="Arial" font-size="12" fill="black">Gradient Cliping Normalization: 0.5</text>
<text x="50" y="460" font-family="Arial" font-size="12" fill="black">Learning Rate Schedule: False    </text>
<text x="10" y="510" font-family="Arial" font-size="16" fill="black">[Behaviour]</text>
<text x="50" y="530" font-family="Arial" font-size="12" fill="black">Space Size: 10</text>
<text x="50" y="550" font-family="Arial" font-size="12" fill="black">Continuous Actions: 2 [Standard Deviation: Trainable]     </text>
<text x="50" y="570" font-family="Arial" font-size="12" fill="black">Discrete Actions: 0</text>
<text x="50" y="590" font-family="Arial" font-size="12" fill="black">TargetFPS: 50 (physics update rate)</text>
<text x="50" y="610" font-family="Arial" font-size="12" fill="black">Observations Normalization: True</text>
<text x="10" y="660" font-family="Arial" font-size="16" fill="black">[Decision Requester]</text>
<text x="50" y="680" font-family="Arial" font-size="12" fill="black">Max Step: 10000</text>
<text x="50" y="700" font-family="Arial" font-size="12" fill="black">Decision Period: 1</text>
<text x="10" y="750" font-family="Arial" font-size="16" fill="black">[Graphs]</text>
<text x="50" y="770" font-family="Arial" font-size="12" fill="black">Episode Reward (1379)</text>
<text x="50" y="785" font-family="Arial" font-size="10" fill="black">170.5451</text>
<text x="50" y="1000" font-family="Arial" font-size="10" fill="black">2.149999</text>
<path d="M50,988.1591 L50.19531,989.4359 L50.39063,989.2577 L50.58594,989.6437 L50.78125,987.0605 L50.97656,989.4061 L51.17188,989.2577 L51.36719,989.614 L51.5625,989.4359 L51.75781,989.1389 L51.95313,989.4359 L52.14844,989.7625 L52.34375,989.2874 L52.53906,988.7529 L52.73438,989.7031 L52.92969,989.3171 L53.125,989.3765 L53.32031,989.3468 L53.51563,989.4359 L53.71094,989.5546 L53.90625,988.2184 L54.10156,986.526 L54.29688,989.0795 L54.49219,988.1294 L54.6875,989.4952 L54.88281,989.228 L55.07813,987.8325 L55.27344,989.4061 L55.46875,989.4655 L55.66406,989.6734 L55.85938,988.6639 L56.05469,988.6639 L56.25,988.1888 L56.44531,988.9311 L56.64063,988.2778 L56.83594,988.5154 L57.03125,988.2184 L57.22656,989.1686 L57.42188,988.3372 L57.61719,989.4359 L57.8125,989.1983 L58.00781,989.7031 L58.20313,989.2874 L58.39844,989.5546 L58.59375,988.2778 L58.78906,989.2874 L58.98438,989.3765 L59.17969,989.7625 L59.375,989.8218 L59.57031,988.7232 L59.76563,989.2577 L59.96094,988.6935 L60.15625,989.3765 L60.35156,989.3765 L60.54688,989.614 L60.74219,988.7826 L60.9375,989.2874 L61.13281,989.3468 L61.32813,988.6342 L61.52344,989.9406 L61.71875,989.5249 L61.91406,988.7826 L62.10938,989.4655 L62.30469,989.0795 L62.5,989.5843 L62.69531,988.7826 L62.89063,989.8516 L63.08594,989.1686 L63.28125,989.8218 L63.47656,987.981 L63.67188,989.614 L63.86719,989.0499 L64.0625,988.3372 L64.25781,989.1983 L64.45313,988.6342 L64.64844,988.3966 L64.84375,988.5748 L65.03906,988.1888 L65.23438,989.0499 L65.42969,988.2482 L65.625,987.2089 L65.82031,988.7826 L66.01563,988.3372 L66.21094,987.8325 L66.40625,988.3372 L66.60156,989.4655 L66.79688,988.6935 L66.99219,989.4952 L67.1875,988.1888 L67.38281,989.0201 L67.57813,988.9014 L67.77344,988.5154 L67.96875,989.0499 L68.16406,989.5249 L68.35938,988.8123 L68.55469,988.8123 L68.75,988.07 L68.94531,987.9216 L69.14063,989.4655 L69.33594,987.7731 L69.53125,989.614 L69.72656,988.9014 L69.92188,987.9512 L70.11719,988.9608 L70.3125,989.1686 L70.50781,989.0201 L70.70313,989.0795 L70.89844,989.1983 L71.09375,988.6342 L71.28906,988.9608 L71.48438,989.7922 L71.67969,988.5748 L71.875,989.1983 L72.07031,989.7625 L72.26563,989.4952 L72.46094,988.3372 L72.65625,989.5843 L72.85156,989.7328 L73.04688,989.8218 L73.24219,989.2874 L73.4375,989.1983 L73.63281,989.0499 L73.82813,988.7826 L74.02344,988.7826 L74.21875,989.3171 L74.41406,989.4061 L74.60938,989.4061 L74.80469,989.2874 L75,989.0795 L75.19531,989.7625 L75.39063,988.7232 L75.58594,988.9311 L75.78125,989.1686 L75.97656,989.2874 L76.17188,988.9311 L76.36719,988.9311 L76.5625,989.6734 L76.75781,989.1983 L76.95313,988.4857 L77.14844,989.8516 L77.34375,989.2874 L77.53906,989.3765 L77.73438,988.9311 L77.92969,989.1686 L78.125,989.228 L78.32031,989.3765 L78.51563,988.8123 L78.71094,989.0499 L78.90625,988.6935 L79.10156,988.842 L79.29688,989.4061 L79.49219,989.6437 L79.6875,989.3171 L79.88281,988.6045 L80.07813,988.7232 L80.27344,989.6437 L80.46875,989.6437 L80.66406,987.7731 L80.85938,989.6437 L81.05469,989.4952 L81.25,987.7434 L81.44531,989.1983 L81.64063,989.228 L81.83594,989.1686 L82.03125,989.7625 L82.22656,989.0795 L82.42188,988.7529 L82.61719,988.9311 L82.8125,988.9311 L83.00781,989.6437 L83.20313,988.6342 L83.39844,989.3765 L83.59375,989.1983 L83.78906,989.4655 L83.98438,989.0795 L84.17969,989.1389 L84.375,989.2874 L84.57031,989.5249 L84.76563,989.4655 L84.96094,989.1983 L85.15625,989.7625 L85.35156,989.4655 L85.54688,989.3468 L85.74219,989.1686 L85.9375,989.5843 L86.13281,989.6734 L86.32813,989.3765 L86.52344,989.614 L86.71875,989.1686 L86.91406,989.0499 L87.10938,989.3468 L87.30469,989.4359 L87.5,988.5154 L87.69531,989.8218 L87.89063,989.1093 L88.08594,989.7328 L88.28125,989.5546 L88.47656,988.4857 L88.67188,989.3468 L88.86719,989.5249 L89.0625,988.8123 L89.25781,989.4655 L89.45313,989.2874 L89.64844,988.2778 L89.84375,989.6437 L90.03906,989.0499 L90.23438,988.8123 L90.42969,989.2874 L90.625,989.2577 L90.82031,988.7826 L91.01563,988.6639 L91.21094,989.5843 L91.40625,989.5546 L91.60156,989.4061 L91.79688,989.2577 L91.99219,989.6734 L92.1875,989.8516 L92.38281,989.5843 L92.57813,989.4061 L92.77344,989.1093 L92.96875,989.7328 L93.16406,989.5249 L93.35938,989.6734 L93.55469,989.4655 L93.75,990 L93.94531,988.5748 L94.14063,989.4359 L94.33594,989.4655 L94.53125,989.5249 L94.72656,989.3468 L94.92188,989.228 L95.11719,989.228 L95.3125,988.9014 L95.50781,988.9014 L95.70313,989.7328 L95.89844,986.8526 L96.09375,989.3171 L96.28906,989.2577 L96.48438,989.5249 L96.67969,989.1389 L96.875,988.1591 L97.07031,988.9014 L97.26563,989.4952 L97.46094,989.3468 L97.65625,988.8717 L97.85156,989.4061 L98.04688,989.1686 L98.24219,989.0201 L98.4375,989.8218 L98.63281,989.6437 L98.82813,989.2874 L99.02344,989.4655 L99.21875,988.3372 L99.41406,988.2778 L99.60938,989.7328 L99.80469,989.6734 L100,989.7922 L100.1953,989.4359 L100.3906,989.0499 L100.5859,989.4655 L100.7813,989.6437 L100.9766,988.9014 L101.1719,989.4952 L101.3672,989.4359 L101.5625,989.5843 L101.7578,989.3765 L101.9531,989.6734 L102.1484,987.6246 L102.3438,989.0795 L102.5391,988.5748 L102.7344,989.0499 L102.9297,988.9905 L103.125,989.2874 L103.3203,988.2778 L103.5156,989.3468 L103.7109,989.4061 L103.9063,989.228 L104.1016,989.1093 L104.2969,989.0795 L104.4922,989.5546 L104.6875,988.8717 L104.8828,988.6935 L105.0781,989.7625 L105.2734,989.4359 L105.4688,989.1389 L105.6641,988.9014 L105.8594,988.8717 L106.0547,989.1389 L106.25,987.3574 L106.4453,989.8516 L106.6406,989.4952 L106.8359,989.4655 L107.0313,989.4061 L107.2266,989.3468 L107.4219,988.7826 L107.6172,988.9608 L107.8125,989.1093 L108.0078,989.614 L108.2031,989.3171 L108.3984,988.8123 L108.5938,989.3765 L108.7891,988.5154 L108.9844,989.3171 L109.1797,989.614 L109.375,989.2874 L109.5703,989.6734 L109.7656,989.4655 L109.9609,989.5546 L110.1563,988.0403 L110.3516,989.4655 L110.5469,988.3372 L110.7422,988.7529 L110.9375,988.456 L111.1328,989.4655 L111.3281,988.5451 L111.5234,989.3171 L111.7188,989.5249 L111.9141,988.4857 L112.1094,989.5249 L112.3047,989.7625 L112.5,989.0499 L112.6953,989.4359 L112.8906,989.8812 L113.0859,989.7031 L113.2813,989.1983 L113.4766,989.2874 L113.6719,989.228 L113.8672,989.6437 L114.0625,989.6734 L114.2578,989.5249 L114.4531,989.2577 L114.6484,989.5843 L114.8438,988.9905 L115.0391,989.5546 L115.2344,989.7328 L115.4297,989.5843 L115.625,988.9608 L115.8203,989.6734 L116.0156,989.4655 L116.2109,989.1983 L116.4063,988.9608 L116.6016,989.4655 L116.7969,989.7031 L116.9922,989.3765 L117.1875,988.8123 L117.3828,989.4359 L117.5781,989.1983 L117.7734,989.3765 L117.9688,989.4655 L118.1641,989.5249 L118.3594,989.3765 L118.5547,989.6437 L118.75,989.2577 L118.9453,987.3574 L119.1406,989.7031 L119.3359,989.4952 L119.5313,989.2874 L119.7266,989.3765 L119.9219,989.7328 L120.1172,989.5249 L120.3125,988.6342 L120.5078,988.9608 L120.7031,988.456 L120.8984,989.1686 L121.0938,989.2577 L121.2891,989.1983 L121.4844,989.5843 L121.6797,989.6734 L121.875,989.3171 L122.0703,988.8717 L122.2656,989.6734 L122.4609,989.614 L122.6563,989.3171 L122.8516,989.5843 L123.0469,989.4952 L123.2422,988.7232 L123.4375,988.9311 L123.6328,989.7922 L123.8281,987.0308 L124.0234,989.1983 L124.2188,989.4655 L124.4141,989.228 L124.6094,989.2577 L124.8047,988.842 L125,987.9512 L125.1953,989.3765 L125.3906,988.7529 L125.5859,988.6342 L125.7813,989.0499 L125.9766,989.0499 L126.1719,989.0201 L126.3672,989.5249 L126.5625,989.228 L126.7578,988.3669 L126.9531,988.7826 L127.1484,988.9905 L127.3438,989.5546 L127.5391,988.3372 L127.7344,989.3468 L127.9297,989.2874 L128.125,988.4263 L128.3203,989.4359 L128.5156,989.7031 L128.7109,989.614 L128.9063,989.2577 L129.1016,989.5249 L129.2969,989.0201 L129.4922,988.8123 L129.6875,989.614 L129.8828,988.8123 L130.0781,989.8218 L130.2734,989.5843 L130.4688,988.9608 L130.6641,989.5843 L130.8594,988.8717 L131.0547,987.5949 L131.25,988.842 L131.4453,988.9311 L131.6406,989.4061 L131.8359,988.842 L132.0313,989.228 L132.2266,989.5249 L132.4219,988.3372 L132.6172,988.9014 L132.8125,989.4359 L133.0078,989.2874 L133.2031,989.228 L133.3984,989.4952 L133.5938,989.7922 L133.7891,988.9608 L133.9844,988.5154 L134.1797,989.228 L134.375,989.5843 L134.5703,989.4952 L134.7656,988.9905 L134.9609,989.4061 L135.1563,989.0795 L135.3516,988.9311 L135.5469,989.0795 L135.7422,988.7826 L135.9375,989.6734 L136.1328,989.5546 L136.3281,988.8123 L136.5234,988.4857 L136.7188,989.2577 L136.9141,989.2874 L137.1094,989.2874 L137.3047,988.9608 L137.5,989.5249 L137.6953,987.3574 L137.8906,989.6734 L138.0859,988.0403 L138.2813,989.2577 L138.4766,989.4952 L138.6719,989.4359 L138.8672,989.4952 L139.0625,989.4655 L139.2578,988.5748 L139.4531,989.3468 L139.6484,989.614 L139.8438,987.3871 L140.0391,986.9417 L140.2344,989.2874 L140.4297,989.3171 L140.625,989.3468 L140.8203,989.1093 L141.0156,988.7529 L141.2109,988.842 L141.4063,988.1294 L141.6016,988.7826 L141.7969,989.5249 L141.9922,989.5546 L142.1875,988.9014 L142.3828,989.1983 L142.5781,988.3966 L142.7734,989.7031 L142.9688,989.0201 L143.1641,989.0499 L143.3594,989.5249 L143.5547,989.228 L143.75,989.228 L143.9453,989.3765 L144.1406,989.1093 L144.3359,988.9905 L144.5313,989.1686 L144.7266,989.4359 L144.9219,987.9512 L145.1172,989.9109 L145.3125,989.4655 L145.5078,987.8325 L145.7031,989.8218 L145.8984,989.228 L146.0938,989.1389 L146.2891,989.7031 L146.4844,988.3372 L146.6797,988.0403 L146.875,988.7232 L147.0703,988.6045 L147.2656,989.5843 L147.4609,988.7529 L147.6563,989.1093 L147.8516,989.5843 L148.0469,988.3966 L148.2422,989.8218 L148.4375,988.2778 L148.6328,988.5748 L148.8281,989.2577 L149.0234,989.228 L149.2188,989.4655 L149.4141,988.7529 L149.6094,989.4952 L149.8047,989.0795 L150,989.4359 L150.1953,987.9216 L150.3906,988.5748 L150.5859,989.228 L150.7813,989.0499 L150.9766,989.5546 L151.1719,988.2778 L151.3672,989.614 L151.5625,989.1389 L151.7578,989.3765 L151.9531,988.9014 L152.1484,989.6437 L152.3438,988.842 L152.5391,989.5843 L152.7344,988.8717 L152.9297,988.842 L153.125,988.842 L153.3203,989.1093 L153.5156,989.4655 L153.7109,989.0499 L153.9063,989.0795 L154.1016,989.1389 L154.2969,988.7826 L154.4922,988.3669 L154.6875,988.3966 L154.8828,988.6045 L155.0781,988.7232 L155.2734,987.9216 L155.4688,988.7529 L155.6641,989.4061 L155.8594,989.1093 L156.0547,989.0201 L156.25,989.1093 L156.4453,989.2874 L156.6406,990 L156.8359,988.5154 L157.0313,989.0201 L157.2266,989.0795 L157.4219,988.2184 L157.6172,988.9608 L157.8125,988.9905 L158.0078,988.9311 L158.2031,989.1093 L158.3984,988.3076 L158.5938,989.4655 L158.7891,988.9014 L158.9844,988.9311 L159.1797,988.4263 L159.375,989.2874 L159.5703,989.4655 L159.7656,988.1591 L159.9609,989.3765 L160.1563,989.0201 L160.3516,989.1389 L160.5469,989.5546 L160.7422,988.3966 L160.9375,988.5154 L161.1328,988.9014 L161.3281,988.6935 L161.5234,989.1686 L161.7188,988.3372 L161.9141,989.3765 L162.1094,989.4655 L162.3047,988.6639 L162.5,988.6045 L162.6953,989.6437 L162.8906,988.07 L163.0859,989.4952 L163.2813,989.3765 L163.4766,989.1983 L163.6719,989.2577 L163.8672,989.5843 L164.0625,989.1093 L164.2578,989.3171 L164.4531,988.5154 L164.6484,988.8717 L164.8438,988.9608 L165.0391,988.6342 L165.2344,989.4655 L165.4297,989.4655 L165.625,989.7031 L165.8203,989.5546 L166.0156,989.4655 L166.2109,989.0499 L166.4063,989.1686 L166.6016,988.9608 L166.7969,989.4952 L166.9922,988.6342 L167.1875,989.1093 L167.3828,989.2874 L167.5781,988.9608 L167.7734,989.4359 L167.9688,988.9608 L168.1641,989.3765 L168.3594,989.3468 L168.5547,989.4952 L168.75,988.5154 L168.9453,989.5546 L169.1406,989.7625 L169.3359,988.6935 L169.5313,988.9311 L169.7266,987.3277 L169.9219,988.8123 L170.1172,988.6045 L170.3125,988.6342 L170.5078,988.6045 L170.7031,989.2577 L170.8984,989.6437 L171.0938,987.5059 L171.2891,988.5154 L171.4844,988.0106 L171.6797,988.6342 L171.875,988.0106 L172.0703,988.6935 L172.2656,988.842 L172.4609,987.3574 L172.6563,989.228 L172.8516,988.4263 L173.0469,985.8431 L173.2422,989.1389 L173.4375,988.2482 L173.6328,988.3372 L173.8281,988.2482 L174.0234,989.228 L174.2188,988.5154 L174.4141,988.8717 L174.6094,988.842 L174.8047,989.228 L175,987.8028 L175.1953,988.9014 L175.3906,989.614 L175.5859,989.4952 L175.7813,988.2778 L175.9766,988.6045 L176.1719,988.9311 L176.3672,988.9014 L176.5625,988.7529 L176.7578,989.1983 L176.9531,989.3765 L177.1484,988.7529 L177.3438,989.1093 L177.5391,989.3765 L177.7344,987.981 L177.9297,988.8123 L178.125,988.9608 L178.3203,988.9608 L178.5156,989.1983 L178.7109,988.9905 L178.9063,987.8325 L179.1016,989.0499 L179.2969,988.6045 L179.4922,989.2874 L179.6875,989.614 L179.8828,988.07 L180.0781,989.2577 L180.2735,986.8823 L180.4688,989.0499 L180.6641,988.9608 L180.8594,989.1093 L181.0547,987.5355 L181.25,988.9608 L181.4453,989.1093 L181.6406,988.07 L181.8359,989.0795 L182.0313,988.4857 L182.2266,988.8717 L182.4219,988.7232 L182.6172,989.0201 L182.8125,989.2874 L183.0078,989.3765 L183.2031,985.9916 L183.3984,988.9311 L183.5938,988.842 L183.7891,986.6745 L183.9844,989.4061 L184.1797,988.5748 L184.375,989.0499 L184.5703,989.1983 L184.7656,988.9014 L184.9609,987.6246 L185.1563,989.3171 L185.3516,989.0499 L185.5469,987.0901 L185.7422,988.9608 L185.9375,987.4168 L186.1328,988.0106 L186.3281,988.2184 L186.5234,989.1983 L186.7188,987.8622 L186.9141,986.5854 L187.1094,988.456 L187.3047,988.5154 L187.5,988.7529 L187.6953,988.9608 L187.8906,988.1294 L188.086,989.1389 L188.2813,989.0201 L188.4766,988.9608 L188.6719,988.2482 L188.8672,989.614 L189.0625,988.9905 L189.2578,987.8325 L189.4531,988.5154 L189.6484,989.1686 L189.8438,987.3574 L190.0391,988.0106 L190.2344,988.2778 L190.4297,985.9619 L190.625,988.8717 L190.8203,988.7826 L191.0156,987.8622 L191.2109,989.4359 L191.4063,989.3765 L191.6016,989.7625 L191.7969,989.4061 L191.9922,988.456 L192.1875,988.7529 L192.3828,988.8717 L192.5781,988.4857 L192.7734,988.7826 L192.9688,988.9608 L193.1641,988.3372 L193.3594,988.3076 L193.5547,988.456 L193.75,988.7826 L193.9453,989.1093 L194.1406,988.9311 L194.3359,988.6045 L194.5313,989.1093 L194.7266,987.6543 L194.9219,987.9216 L195.1172,988.842 L195.3125,988.9608 L195.5078,987.981 L195.7031,989.0201 L195.8985,988.9311 L196.0938,989.1686 L196.2891,988.6342 L196.4844,987.9512 L196.6797,989.614 L196.875,989.0795 L197.0703,988.7826 L197.2656,987.5949 L197.4609,988.8123 L197.6563,987.0901 L197.8516,989.1389 L198.0469,988.9311 L198.2422,988.0997 L198.4375,989.1686 L198.6328,987.6543 L198.8281,988.9014 L199.0234,988.6342 L199.2188,989.0795 L199.4141,988.9905 L199.6094,986.1697 L199.8047,987.6543 L200,988.6342 L200.1953,986.051 L200.3906,987.0605 L200.5859,988.3669 L200.7813,986.8823 L200.9766,987.4465 L201.1719,988.0403 L201.3672,989.2874 L201.5625,988.9311 L201.7578,988.07 L201.9531,987.0308 L202.1484,989.0499 L202.3438,986.6151 L202.5391,986.6448 L202.7344,988.4857 L202.9297,988.842 L203.125,987.8028 L203.3203,986.7635 L203.5156,987.9216 L203.711,986.9714 L203.9063,988.5154 L204.1016,988.7826 L204.2969,989.4359 L204.4922,987.8028 L204.6875,988.1591 L204.8828,987.6543 L205.0781,989.1093 L205.2734,989.0795 L205.4688,988.5154 L205.6641,989.1093 L205.8594,987.1199 L206.0547,988.07 L206.25,989.3171 L206.4453,987.7731 L206.6406,988.1591 L206.8359,988.6639 L207.0313,987.3574 L207.2266,988.9608 L207.4219,988.5748 L207.6172,988.2778 L207.8125,988.6639 L208.0078,988.2482 L208.2031,989.3468 L208.3984,989.3468 L208.5938,987.9216 L208.7891,988.3669 L208.9844,988.2482 L209.1797,986.3478 L209.375,988.8717 L209.5703,988.9014 L209.7656,987.8918 L209.9609,988.3669 L210.1563,985.8728 L210.3516,988.2184 L210.5469,987.8028 L210.7422,987.8918 L210.9375,985.3977 L211.1328,986.051 L211.3281,989.1983 L211.5235,988.8123 L211.7188,988.1888 L211.9141,985.6649 L212.1094,988.3372 L212.3047,987.8622 L212.5,986.912 L212.6953,987.5355 L212.8906,988.0106 L213.0859,987.5652 L213.2813,988.0106 L213.4766,988.2778 L213.6719,987.7434 L213.8672,988.4857 L214.0625,989.0499 L214.2578,986.6151 L214.4531,987.5059 L214.6484,988.2482 L214.8438,986.437 L215.0391,988.6045 L215.2344,986.3182 L215.4297,988.8123 L215.625,988.07 L215.8203,986.7933 L216.0156,988.1294 L216.2109,987.4168 L216.4063,988.6045 L216.6016,989.2577 L216.7969,987.298 L216.9922,987.5355 L217.1875,988.456 L217.3828,986.4963 L217.5781,987.8622 L217.7734,987.6246 L217.9688,988.3669 L218.1641,988.7826 L218.3594,989.4952 L218.5547,988.4857 L218.75,985.0414 L218.9453,984.8929 L219.1406,987.0901 L219.336,988.2778 L219.5313,988.9608 L219.7266,986.7635 L219.9219,986.7042 L220.1172,988.2184 L220.3125,985.6055 L220.5078,987.981 L220.7031,988.3966 L220.8984,987.4465 L221.0938,988.07 L221.2891,985.9619 L221.4844,986.912 L221.6797,988.2482 L221.875,987.0011 L222.0703,989.0201 L222.2656,988.3669 L222.4609,988.8717 L222.6563,987.684 L222.8516,986.437 L223.0469,987.6543 L223.2422,985.6649 L223.4375,988.1888 L223.6328,987.2683 L223.8281,984.8633 L224.0234,984.4476 L224.2188,987.981 L224.4141,986.8229 L224.6094,989.0795 L224.8047,986.0806 L225,988.3966 L225.1953,988.6935 L225.3906,988.2482 L225.5859,987.2386 L225.7813,988.3669 L225.9766,988.2482 L226.1719,989.3468 L226.3672,983.9428 L226.5625,985.4571 L226.7578,983.8537 L226.9531,988.4263 L227.1485,987.8028 L227.3438,986.9714 L227.5391,983.438 L227.7344,988.8717 L227.9297,988.2778 L228.125,985.9322 L228.3203,989.2577 L228.5156,985.5165 L228.7109,988.0997 L228.9063,986.912 L229.1016,987.7434 L229.2969,988.4263 L229.4922,986.1994 L229.6875,986.8526 L229.8828,984.4178 L230.0781,985.8728 L230.2734,983.2302 L230.4688,988.3076 L230.6641,988.4857 L230.8594,984.21 L231.0547,986.5557 L231.25,984.4178 L231.4453,986.8823 L231.6406,983.2005 L231.8359,979.5187 L232.0313,987.5355 L232.2266,988.842 L232.4219,987.4761 L232.6172,989.1686 L232.8125,988.4857 L233.0078,988.1294 L233.2031,984.8336 L233.3984,983.8834 L233.5938,989.1389 L233.7891,986.6151 L233.9844,986.6448 L234.1797,988.0106 L234.375,988.1591 L234.5703,987.9512 L234.7656,986.4963 L234.961,986.5854 L235.1563,987.5949 L235.3516,986.2885 L235.5469,986.8526 L235.7422,985.1305 L235.9375,986.4072 L236.1328,983.7943 L236.3281,989.1983 L236.5234,986.2588 L236.7188,986.912 L236.9141,984.0616 L237.1094,988.6639 L237.3047,985.5461 L237.5,988.7529 L237.6953,986.6745 L237.8906,986.8526 L238.0859,988.8123 L238.2813,986.9417 L238.4766,986.4666 L238.6719,984.4476 L238.8672,984.1506 L239.0625,985.6353 L239.2578,984.9523 L239.4531,987.1199 L239.6484,981.0627 L239.8438,988.0106 L240.0391,987.8918 L240.2344,985.3087 L240.4297,985.9322 L240.625,987.7137 L240.8203,987.1495 L241.0156,985.3383 L241.2109,986.5854 L241.4063,987.4465 L241.6016,987.7137 L241.7969,987.4465 L241.9922,987.3574 L242.1875,986.4072 L242.3828,985.2789 L242.5781,987.1199 L242.7735,989.5249 L242.9688,987.5355 L243.1641,985.9025 L243.3594,985.6649 L243.5547,986.912 L243.75,982.9927 L243.9453,983.9725 L244.1406,986.9417 L244.3359,981.8644 L244.5313,982.9927 L244.7266,988.3372 L244.9219,988.9905 L245.1172,985.8728 L245.3125,988.9311 L245.5078,985.2789 L245.7031,988.4263 L245.8984,987.6543 L246.0938,985.9916 L246.2891,988.1294 L246.4844,983.438 L246.6797,973.046 L246.875,985.4571 L247.0703,988.7529 L247.2656,983.1411 L247.4609,986.0806 L247.6563,988.4263 L247.8516,983.1708 L248.0469,989.6437 L248.2422,985.5759 L248.4375,986.4963 L248.6328,987.684 L248.8281,987.8918 L249.0234,987.1495 L249.2188,987.5949 L249.4141,981.5378 L249.6094,985.0117 L249.8047,986.8526 L250,986.1697 L250.1953,986.8823 L250.3906,985.3383 L250.586,984.1804 L250.7813,987.298 L250.9766,986.8229 L251.1719,985.6353 L251.3672,988.5451 L251.5625,986.2291 L251.7578,982.7848 L251.9531,987.3871 L252.1484,989.228 L252.3438,986.9714 L252.5391,986.1994 L252.7344,988.2184 L252.9297,985.7837 L253.125,987.298 L253.3203,986.3182 L253.5156,986.7339 L253.7109,981.1518 L253.9063,982.5176 L254.1016,985.6946 L254.2969,977.47 L254.4922,987.1793 L254.6875,986.2885 L254.8828,987.0605 L255.0781,984.9523 L255.2734,985.5165 L255.4688,986.7339 L255.6641,989.0795 L255.8594,975.3916 L256.0547,987.0605 L256.25,988.0403 L256.4453,986.8526 L256.6406,986.4072 L256.8359,988.3372 L257.0313,987.5949 L257.2266,988.5154 L257.4219,985.7243 L257.6172,977.6185 L257.8125,983.0817 L258.0078,980.6173 L258.2031,986.3776 L258.3984,985.754 L258.5938,986.0806 L258.7891,989.3171 L258.9844,988.6639 L259.1797,988.1888 L259.375,982.9927 L259.5703,989.4061 L259.7656,985.9916 L259.9609,987.8622 L260.1563,986.6745 L260.3516,988.7232 L260.5469,983.438 L260.7422,987.1495 L260.9375,983.6755 L261.1328,987.2089 L261.3281,987.7137 L261.5234,986.2885 L261.7188,987.6543 L261.9141,987.4168 L262.1094,985.9322 L262.3047,988.07 L262.5,982.8739 L262.6953,983.824 L262.8906,986.2885 L263.0859,985.8728 L263.2813,985.4868 L263.4766,986.9417 L263.6719,987.5059 L263.8672,982.4879 L264.0625,983.2896 L264.2578,987.684 L264.4531,984.21 L264.6484,985.0711 L264.8438,986.7933 L265.0391,988.3966 L265.2344,986.526 L265.4297,985.4868 L265.625,986.3776 L265.8203,986.912 L266.0156,987.1793 L266.2109,988.0997 L266.4063,981.0033 L266.6016,985.0414 L266.7969,986.9714 L266.9922,985.6649 L267.1875,956.478 L267.3828,982.3691 L267.5781,981.2408 L267.7734,986.1697 L267.9688,988.2482 L268.1641,987.2683 L268.3594,983.1114 L268.5547,984.1804 L268.75,986.1104 L268.9453,985.7243 L269.1406,988.2778 L269.3359,987.1199 L269.5313,985.8134 L269.7266,981.3893 L269.9219,959.952 L270.1172,981.9238 L270.3125,983.7943 L270.5078,987.7731 L270.7031,989.1686 L270.8984,987.2386 L271.0938,975.6292 L271.2891,986.1697 L271.4844,985.5461 L271.6797,976.6089 L271.875,982.9927 L272.0703,963.4258 L272.2656,988.3076 L272.4609,986.0212 L272.6563,987.3277 L272.8516,986.2885 L273.0469,966.0981 L273.2422,983.9131 L273.4375,982.4879 L273.6328,986.3182 L273.8281,983.3489 L274.0234,972.7787 L274.2188,977.2325 L274.4141,987.684 L274.6094,982.577 L274.8047,976.4308 L275,985.3977 L275.1953,986.9417 L275.3906,986.051 L275.5859,982.963 L275.7813,979.8156 L275.9766,987.298 L276.1719,986.9417 L276.3672,988.6935 L276.5625,977.7966 L276.7578,975.7776 L276.9531,981.3299 L277.1484,982.3691 L277.3438,984.4772 L277.5391,987.0605 L277.7344,983.0817 L277.9297,985.8134 L278.125,972.6896 L278.3203,986.9714 L278.5156,985.9916 L278.7109,987.2386 L278.9063,987.8325 L279.1016,968.2359 L279.2969,986.8526 L279.4922,987.3574 L279.6875,972.1255 L279.8828,978.9843 L280.0781,982.9927 L280.2734,985.2789 L280.4688,981.0924 L280.6641,986.526 L280.8594,980.7064 L281.0547,985.7243 L281.25,983.4974 L281.4453,986.7339 L281.6406,957.25 L281.8359,988.1294 L282.0313,986.7933 L282.2266,981.419 L282.4219,985.8431 L282.6172,984.8336 L282.8125,968.3547 L283.0078,987.4168 L283.2031,983.3489 L283.3984,965.4449 L283.5938,985.5759 L283.7891,984.982 L283.9844,932.1589 L284.1797,987.684 L284.375,980.7064 L284.5703,983.1708 L284.7656,987.7731 L284.9609,979.4296 L285.1563,988.3669 L285.3516,975.1541 L285.5469,983.438 L285.7422,986.14 L285.9375,980.9439 L286.1328,984.0319 L286.3281,979.5187 L286.5234,984.5663 L286.7188,981.7753 L286.9141,978.6577 L287.1094,974.2039 L287.3047,983.6459 L287.5,988.2184 L287.6953,987.2683 L287.8906,987.1199 L288.0859,988.9311 L288.2813,971.502 L288.4766,976.1636 L288.6719,988.1294 L288.8672,985.6946 L289.0625,966.4544 L289.2578,982.7254 L289.4531,986.5557 L289.6484,974.2336 L289.8438,985.0711 L290.0391,986.1994 L290.2344,986.2291 L290.4297,986.6151 L290.625,987.5059 L290.8203,983.2599 L291.0156,975.2134 L291.2109,982.3394 L291.4063,974.1445 L291.6016,988.2184 L291.7969,982.0425 L291.9922,956.8937 L292.1875,974.2336 L292.3828,987.4168 L292.5781,986.7042 L292.7734,980.0235 L292.9688,984.6851 L293.1641,985.9025 L293.3594,978.1529 L293.5547,967.7015 L293.75,966.2169 L293.9453,989.0201 L294.1406,962.2679 L294.3359,985.6055 L294.5313,986.7042 L294.7266,974.7681 L294.9219,987.3871 L295.1172,974.9165 L295.3125,963.0992 L295.5078,967.8203 L295.7031,961.5553 L295.8984,983.7646 L296.0938,977.3215 L296.2891,983.7646 L296.4844,985.4868 L296.6797,983.1708 L296.875,972.8975 L297.0703,982.7254 L297.2656,967.2264 L297.4609,980.9736 L297.6563,984.2397 L297.8516,986.4666 L298.0469,983.5568 L298.2422,986.3776 L298.4375,984.121 L298.6328,987.5355 L298.8281,987.0901 L299.0234,982.963 L299.2188,985.8134 L299.4141,982.0425 L299.6094,982.9036 L299.8047,986.3776 L300,984.8039 L300.1953,986.4963 L300.3906,952.0538 L300.5859,979.9641 L300.7813,977.4403 L300.9766,982.0425 L301.1719,972.0958 L301.3672,975.065 L301.5625,982.963 L301.7578,971.0566 L301.9531,987.8622 L302.1484,956.6265 L302.3438,968.711 L302.5391,959.8926 L302.7344,976.9355 L302.9297,980.5579 L303.125,984.4476 L303.3203,981.0033 L303.5156,985.5759 L303.711,980.3798 L303.9063,946.5901 L304.1016,970.1659 L304.2969,975.0947 L304.4922,971.1457 L304.6875,986.1104 L304.8828,981.7159 L305.0781,984.7742 L305.2734,986.7635 L305.4688,961.1099 L305.6641,970.9379 L305.8594,984.8929 L306.0547,976.9653 L306.25,951.7866 L306.4453,972.9569 L306.6407,979.7563 L306.8359,980.7361 L307.0313,980.0532 L307.2266,961.8225 L307.4219,978.3311 L307.6172,987.2683 L307.8125,957.2797 L308.0078,975.6292 L308.2031,972.3036 L308.3984,968.5031 L308.5938,984.5366 L308.7891,982.1316 L308.9844,966.8701 L309.1797,979.1624 L309.375,988.3372 L309.5703,970.9675 L309.7656,957.1609 L309.9609,863.7442 L310.1563,814.6087 L310.3516,963.3368 L310.5469,803.2988 L310.7422,968.8 L310.9375,935.4846 L311.1328,954.8747 L311.3281,964.5839 L311.5235,986.3182 L311.7188,954.2808 L311.9141,985.6649 L312.1094,978.4202 L312.3047,973.1647 L312.5,986.0212 L312.6953,929.3973 L312.8906,981.7159 L313.0859,974.4117 L313.2813,982.7551 L313.4766,835.1506 L313.6719,976.8465 L313.8672,920.2813 L314.0625,984.596 L314.2578,986.5557 L314.4532,930.793 L314.6484,970.6409 L314.8438,977.1434 L315.0391,944.3334 L315.2344,974.8275 L315.4297,961.7037 L315.625,984.9523 L315.8203,980.1125 L316.0156,938.6619 L316.2109,937.8601 L316.4063,918.47 L316.6016,983.1114 L316.7969,940.1168 L316.9922,961.8522 L317.1875,978.4202 L317.3828,790 L317.5781,865.1398 L317.7734,922.4787 L317.9688,872.207 L318.1641,811.9371 L318.3594,980.2907 L318.5547,926.9921 L318.75,942.433 L318.9453,967.4936 L319.1406,974.4415 " stroke="blue" fill="none" />
<text x="50" y="1040" font-family="Arial" font-size="12" fill="black">Episode Length (1379)</text>
<text x="50" y="1055" font-family="Arial" font-size="10" fill="black">6823</text>
<text x="50" y="1270" font-family="Arial" font-size="10" fill="black">87</text>
<path d="M50,1258.189 L50.19531,1259.436 L50.39063,1259.258 L50.58594,1259.644 L50.78125,1257.061 L50.97656,1259.406 L51.17188,1259.258 L51.36719,1259.614 L51.5625,1259.436 L51.75781,1259.139 L51.95313,1259.436 L52.14844,1259.762 L52.34375,1259.287 L52.53906,1258.753 L52.73438,1259.703 L52.92969,1259.317 L53.125,1259.376 L53.32031,1259.347 L53.51563,1259.436 L53.71094,1259.555 L53.90625,1258.219 L54.10156,1256.526 L54.29688,1259.08 L54.49219,1258.129 L54.6875,1259.495 L54.88281,1259.228 L55.07813,1257.833 L55.27344,1259.406 L55.46875,1259.466 L55.66406,1259.673 L55.85938,1258.664 L56.05469,1258.664 L56.25,1258.189 L56.44531,1258.931 L56.64063,1258.278 L56.83594,1258.515 L57.03125,1258.219 L57.22656,1259.169 L57.42188,1258.337 L57.61719,1259.436 L57.8125,1259.198 L58.00781,1259.703 L58.20313,1259.287 L58.39844,1259.555 L58.59375,1258.278 L58.78906,1259.287 L58.98438,1259.376 L59.17969,1259.762 L59.375,1259.822 L59.57031,1258.723 L59.76563,1259.258 L59.96094,1258.694 L60.15625,1259.376 L60.35156,1259.376 L60.54688,1259.614 L60.74219,1258.783 L60.9375,1259.287 L61.13281,1259.347 L61.32813,1258.634 L61.52344,1259.941 L61.71875,1259.525 L61.91406,1258.783 L62.10938,1259.466 L62.30469,1259.08 L62.5,1259.584 L62.69531,1258.783 L62.89063,1259.852 L63.08594,1259.169 L63.28125,1259.822 L63.47656,1257.981 L63.67188,1259.614 L63.86719,1259.05 L64.0625,1258.337 L64.25781,1259.198 L64.45313,1258.634 L64.64844,1258.397 L64.84375,1258.575 L65.03906,1258.189 L65.23438,1259.05 L65.42969,1258.248 L65.625,1257.209 L65.82031,1258.783 L66.01563,1258.337 L66.21094,1257.833 L66.40625,1258.337 L66.60156,1259.466 L66.79688,1258.694 L66.99219,1259.495 L67.1875,1258.189 L67.38281,1259.02 L67.57813,1258.901 L67.77344,1258.515 L67.96875,1259.05 L68.16406,1259.525 L68.35938,1258.812 L68.55469,1258.812 L68.75,1258.07 L68.94531,1257.922 L69.14063,1259.466 L69.33594,1257.773 L69.53125,1259.614 L69.72656,1258.901 L69.92188,1257.951 L70.11719,1258.961 L70.3125,1259.169 L70.50781,1259.02 L70.70313,1259.08 L70.89844,1259.198 L71.09375,1258.634 L71.28906,1258.961 L71.48438,1259.792 L71.67969,1258.575 L71.875,1259.198 L72.07031,1259.762 L72.26563,1259.495 L72.46094,1258.337 L72.65625,1259.584 L72.85156,1259.733 L73.04688,1259.822 L73.24219,1259.287 L73.4375,1259.198 L73.63281,1259.05 L73.82813,1258.783 L74.02344,1258.783 L74.21875,1259.317 L74.41406,1259.406 L74.60938,1259.406 L74.80469,1259.287 L75,1259.08 L75.19531,1259.762 L75.39063,1258.723 L75.58594,1258.931 L75.78125,1259.169 L75.97656,1259.287 L76.17188,1258.931 L76.36719,1258.931 L76.5625,1259.673 L76.75781,1259.198 L76.95313,1258.486 L77.14844,1259.852 L77.34375,1259.287 L77.53906,1259.376 L77.73438,1258.931 L77.92969,1259.169 L78.125,1259.228 L78.32031,1259.376 L78.51563,1258.812 L78.71094,1259.05 L78.90625,1258.694 L79.10156,1258.842 L79.29688,1259.406 L79.49219,1259.644 L79.6875,1259.317 L79.88281,1258.604 L80.07813,1258.723 L80.27344,1259.644 L80.46875,1259.644 L80.66406,1257.773 L80.85938,1259.644 L81.05469,1259.495 L81.25,1257.743 L81.44531,1259.198 L81.64063,1259.228 L81.83594,1259.169 L82.03125,1259.762 L82.22656,1259.08 L82.42188,1258.753 L82.61719,1258.931 L82.8125,1258.931 L83.00781,1259.644 L83.20313,1258.634 L83.39844,1259.376 L83.59375,1259.198 L83.78906,1259.466 L83.98438,1259.08 L84.17969,1259.139 L84.375,1259.287 L84.57031,1259.525 L84.76563,1259.466 L84.96094,1259.198 L85.15625,1259.762 L85.35156,1259.466 L85.54688,1259.347 L85.74219,1259.169 L85.9375,1259.584 L86.13281,1259.673 L86.32813,1259.376 L86.52344,1259.614 L86.71875,1259.169 L86.91406,1259.05 L87.10938,1259.347 L87.30469,1259.436 L87.5,1258.515 L87.69531,1259.822 L87.89063,1259.109 L88.08594,1259.733 L88.28125,1259.555 L88.47656,1258.486 L88.67188,1259.347 L88.86719,1259.525 L89.0625,1258.812 L89.25781,1259.466 L89.45313,1259.287 L89.64844,1258.278 L89.84375,1259.644 L90.03906,1259.05 L90.23438,1258.812 L90.42969,1259.287 L90.625,1259.258 L90.82031,1258.783 L91.01563,1258.664 L91.21094,1259.584 L91.40625,1259.555 L91.60156,1259.406 L91.79688,1259.258 L91.99219,1259.673 L92.1875,1259.852 L92.38281,1259.584 L92.57813,1259.406 L92.77344,1259.109 L92.96875,1259.733 L93.16406,1259.525 L93.35938,1259.673 L93.55469,1259.466 L93.75,1260 L93.94531,1258.575 L94.14063,1259.436 L94.33594,1259.466 L94.53125,1259.525 L94.72656,1259.347 L94.92188,1259.228 L95.11719,1259.228 L95.3125,1258.901 L95.50781,1258.901 L95.70313,1259.733 L95.89844,1256.853 L96.09375,1259.317 L96.28906,1259.258 L96.48438,1259.525 L96.67969,1259.139 L96.875,1258.159 L97.07031,1258.901 L97.26563,1259.495 L97.46094,1259.347 L97.65625,1258.872 L97.85156,1259.406 L98.04688,1259.169 L98.24219,1259.02 L98.4375,1259.822 L98.63281,1259.644 L98.82813,1259.287 L99.02344,1259.466 L99.21875,1258.337 L99.41406,1258.278 L99.60938,1259.733 L99.80469,1259.673 L100,1259.792 L100.1953,1259.436 L100.3906,1259.05 L100.5859,1259.466 L100.7813,1259.644 L100.9766,1258.901 L101.1719,1259.495 L101.3672,1259.436 L101.5625,1259.584 L101.7578,1259.376 L101.9531,1259.673 L102.1484,1257.625 L102.3438,1259.08 L102.5391,1258.575 L102.7344,1259.05 L102.9297,1258.99 L103.125,1259.287 L103.3203,1258.278 L103.5156,1259.347 L103.7109,1259.406 L103.9063,1259.228 L104.1016,1259.109 L104.2969,1259.08 L104.4922,1259.555 L104.6875,1258.872 L104.8828,1258.694 L105.0781,1259.762 L105.2734,1259.436 L105.4688,1259.139 L105.6641,1258.901 L105.8594,1258.872 L106.0547,1259.139 L106.25,1257.357 L106.4453,1259.852 L106.6406,1259.495 L106.8359,1259.466 L107.0313,1259.406 L107.2266,1259.347 L107.4219,1258.783 L107.6172,1258.961 L107.8125,1259.109 L108.0078,1259.614 L108.2031,1259.317 L108.3984,1258.812 L108.5938,1259.376 L108.7891,1258.515 L108.9844,1259.317 L109.1797,1259.614 L109.375,1259.287 L109.5703,1259.673 L109.7656,1259.466 L109.9609,1259.555 L110.1563,1258.04 L110.3516,1259.466 L110.5469,1258.337 L110.7422,1258.753 L110.9375,1258.456 L111.1328,1259.466 L111.3281,1258.545 L111.5234,1259.317 L111.7188,1259.525 L111.9141,1258.486 L112.1094,1259.525 L112.3047,1259.762 L112.5,1259.05 L112.6953,1259.436 L112.8906,1259.881 L113.0859,1259.703 L113.2813,1259.198 L113.4766,1259.287 L113.6719,1259.228 L113.8672,1259.644 L114.0625,1259.673 L114.2578,1259.525 L114.4531,1259.258 L114.6484,1259.584 L114.8438,1258.99 L115.0391,1259.555 L115.2344,1259.733 L115.4297,1259.584 L115.625,1258.961 L115.8203,1259.673 L116.0156,1259.466 L116.2109,1259.198 L116.4063,1258.961 L116.6016,1259.466 L116.7969,1259.703 L116.9922,1259.376 L117.1875,1258.812 L117.3828,1259.436 L117.5781,1259.198 L117.7734,1259.376 L117.9688,1259.466 L118.1641,1259.525 L118.3594,1259.376 L118.5547,1259.644 L118.75,1259.258 L118.9453,1257.357 L119.1406,1259.703 L119.3359,1259.495 L119.5313,1259.287 L119.7266,1259.376 L119.9219,1259.733 L120.1172,1259.525 L120.3125,1258.634 L120.5078,1258.961 L120.7031,1258.456 L120.8984,1259.169 L121.0938,1259.258 L121.2891,1259.198 L121.4844,1259.584 L121.6797,1259.673 L121.875,1259.317 L122.0703,1258.872 L122.2656,1259.673 L122.4609,1259.614 L122.6563,1259.317 L122.8516,1259.584 L123.0469,1259.495 L123.2422,1258.723 L123.4375,1258.931 L123.6328,1259.792 L123.8281,1257.031 L124.0234,1259.198 L124.2188,1259.466 L124.4141,1259.228 L124.6094,1259.258 L124.8047,1258.842 L125,1257.951 L125.1953,1259.376 L125.3906,1258.753 L125.5859,1258.634 L125.7813,1259.05 L125.9766,1259.05 L126.1719,1259.02 L126.3672,1259.525 L126.5625,1259.228 L126.7578,1258.367 L126.9531,1258.783 L127.1484,1258.99 L127.3438,1259.555 L127.5391,1258.337 L127.7344,1259.347 L127.9297,1259.287 L128.125,1258.426 L128.3203,1259.436 L128.5156,1259.703 L128.7109,1259.614 L128.9063,1259.258 L129.1016,1259.525 L129.2969,1259.02 L129.4922,1258.812 L129.6875,1259.614 L129.8828,1258.812 L130.0781,1259.822 L130.2734,1259.584 L130.4688,1258.961 L130.6641,1259.584 L130.8594,1258.872 L131.0547,1257.595 L131.25,1258.842 L131.4453,1258.931 L131.6406,1259.406 L131.8359,1258.842 L132.0313,1259.228 L132.2266,1259.525 L132.4219,1258.337 L132.6172,1258.901 L132.8125,1259.436 L133.0078,1259.287 L133.2031,1259.228 L133.3984,1259.495 L133.5938,1259.792 L133.7891,1258.961 L133.9844,1258.515 L134.1797,1259.228 L134.375,1259.584 L134.5703,1259.495 L134.7656,1258.99 L134.9609,1259.406 L135.1563,1259.08 L135.3516,1258.931 L135.5469,1259.08 L135.7422,1258.783 L135.9375,1259.673 L136.1328,1259.555 L136.3281,1258.812 L136.5234,1258.486 L136.7188,1259.258 L136.9141,1259.287 L137.1094,1259.287 L137.3047,1258.961 L137.5,1259.525 L137.6953,1257.357 L137.8906,1259.673 L138.0859,1258.04 L138.2813,1259.258 L138.4766,1259.495 L138.6719,1259.436 L138.8672,1259.495 L139.0625,1259.466 L139.2578,1258.575 L139.4531,1259.347 L139.6484,1259.614 L139.8438,1257.387 L140.0391,1256.942 L140.2344,1259.287 L140.4297,1259.317 L140.625,1259.347 L140.8203,1259.109 L141.0156,1258.753 L141.2109,1258.842 L141.4063,1258.129 L141.6016,1258.783 L141.7969,1259.525 L141.9922,1259.555 L142.1875,1258.901 L142.3828,1259.198 L142.5781,1258.397 L142.7734,1259.703 L142.9688,1259.02 L143.1641,1259.05 L143.3594,1259.525 L143.5547,1259.228 L143.75,1259.228 L143.9453,1259.376 L144.1406,1259.109 L144.3359,1258.99 L144.5313,1259.169 L144.7266,1259.436 L144.9219,1257.951 L145.1172,1259.911 L145.3125,1259.466 L145.5078,1257.833 L145.7031,1259.822 L145.8984,1259.228 L146.0938,1259.139 L146.2891,1259.703 L146.4844,1258.337 L146.6797,1258.04 L146.875,1258.723 L147.0703,1258.604 L147.2656,1259.584 L147.4609,1258.753 L147.6563,1259.109 L147.8516,1259.584 L148.0469,1258.397 L148.2422,1259.822 L148.4375,1258.278 L148.6328,1258.575 L148.8281,1259.258 L149.0234,1259.228 L149.2188,1259.466 L149.4141,1258.753 L149.6094,1259.495 L149.8047,1259.08 L150,1259.436 L150.1953,1257.922 L150.3906,1258.575 L150.5859,1259.228 L150.7813,1259.05 L150.9766,1259.555 L151.1719,1258.278 L151.3672,1259.614 L151.5625,1259.139 L151.7578,1259.376 L151.9531,1258.901 L152.1484,1259.644 L152.3438,1258.842 L152.5391,1259.584 L152.7344,1258.872 L152.9297,1258.842 L153.125,1258.842 L153.3203,1259.109 L153.5156,1259.466 L153.7109,1259.05 L153.9063,1259.08 L154.1016,1259.139 L154.2969,1258.783 L154.4922,1258.367 L154.6875,1258.397 L154.8828,1258.604 L155.0781,1258.723 L155.2734,1257.922 L155.4688,1258.753 L155.6641,1259.406 L155.8594,1259.109 L156.0547,1259.02 L156.25,1259.109 L156.4453,1259.287 L156.6406,1260 L156.8359,1258.515 L157.0313,1259.02 L157.2266,1259.08 L157.4219,1258.219 L157.6172,1258.961 L157.8125,1258.99 L158.0078,1258.931 L158.2031,1259.109 L158.3984,1258.308 L158.5938,1259.466 L158.7891,1258.901 L158.9844,1258.931 L159.1797,1258.426 L159.375,1259.287 L159.5703,1259.466 L159.7656,1258.159 L159.9609,1259.376 L160.1563,1259.02 L160.3516,1259.139 L160.5469,1259.555 L160.7422,1258.397 L160.9375,1258.515 L161.1328,1258.901 L161.3281,1258.694 L161.5234,1259.169 L161.7188,1258.337 L161.9141,1259.376 L162.1094,1259.466 L162.3047,1258.664 L162.5,1258.604 L162.6953,1259.644 L162.8906,1258.07 L163.0859,1259.495 L163.2813,1259.376 L163.4766,1259.198 L163.6719,1259.258 L163.8672,1259.584 L164.0625,1259.109 L164.2578,1259.317 L164.4531,1258.515 L164.6484,1258.872 L164.8438,1258.961 L165.0391,1258.634 L165.2344,1259.466 L165.4297,1259.466 L165.625,1259.703 L165.8203,1259.555 L166.0156,1259.466 L166.2109,1259.05 L166.4063,1259.169 L166.6016,1258.961 L166.7969,1259.495 L166.9922,1258.634 L167.1875,1259.109 L167.3828,1259.287 L167.5781,1258.961 L167.7734,1259.436 L167.9688,1258.961 L168.1641,1259.376 L168.3594,1259.347 L168.5547,1259.495 L168.75,1258.515 L168.9453,1259.555 L169.1406,1259.762 L169.3359,1258.694 L169.5313,1258.931 L169.7266,1257.328 L169.9219,1258.812 L170.1172,1258.604 L170.3125,1258.634 L170.5078,1258.604 L170.7031,1259.258 L170.8984,1259.644 L171.0938,1257.506 L171.2891,1258.515 L171.4844,1258.011 L171.6797,1258.634 L171.875,1258.011 L172.0703,1258.694 L172.2656,1258.842 L172.4609,1257.357 L172.6563,1259.228 L172.8516,1258.426 L173.0469,1255.843 L173.2422,1259.139 L173.4375,1258.248 L173.6328,1258.337 L173.8281,1258.248 L174.0234,1259.228 L174.2188,1258.515 L174.4141,1258.872 L174.6094,1258.842 L174.8047,1259.228 L175,1257.803 L175.1953,1258.901 L175.3906,1259.614 L175.5859,1259.495 L175.7813,1258.278 L175.9766,1258.604 L176.1719,1258.931 L176.3672,1258.901 L176.5625,1258.753 L176.7578,1259.198 L176.9531,1259.376 L177.1484,1258.753 L177.3438,1259.109 L177.5391,1259.376 L177.7344,1257.981 L177.9297,1258.812 L178.125,1258.961 L178.3203,1258.961 L178.5156,1259.198 L178.7109,1258.99 L178.9063,1257.833 L179.1016,1259.05 L179.2969,1258.604 L179.4922,1259.287 L179.6875,1259.614 L179.8828,1258.07 L180.0781,1259.258 L180.2735,1256.882 L180.4688,1259.05 L180.6641,1258.961 L180.8594,1259.109 L181.0547,1257.536 L181.25,1258.961 L181.4453,1259.109 L181.6406,1258.07 L181.8359,1259.08 L182.0313,1258.486 L182.2266,1258.872 L182.4219,1258.723 L182.6172,1259.02 L182.8125,1259.287 L183.0078,1259.376 L183.2031,1255.992 L183.3984,1258.931 L183.5938,1258.842 L183.7891,1256.675 L183.9844,1259.406 L184.1797,1258.575 L184.375,1259.05 L184.5703,1259.198 L184.7656,1258.901 L184.9609,1257.625 L185.1563,1259.317 L185.3516,1259.05 L185.5469,1257.09 L185.7422,1258.961 L185.9375,1257.417 L186.1328,1258.011 L186.3281,1258.219 L186.5234,1259.198 L186.7188,1257.862 L186.9141,1256.586 L187.1094,1258.456 L187.3047,1258.515 L187.5,1258.753 L187.6953,1258.961 L187.8906,1258.129 L188.086,1259.139 L188.2813,1259.02 L188.4766,1258.961 L188.6719,1258.248 L188.8672,1259.614 L189.0625,1258.99 L189.2578,1257.833 L189.4531,1258.515 L189.6484,1259.169 L189.8438,1257.357 L190.0391,1258.011 L190.2344,1258.278 L190.4297,1255.962 L190.625,1258.872 L190.8203,1258.783 L191.0156,1257.862 L191.2109,1259.436 L191.4063,1259.376 L191.6016,1259.762 L191.7969,1259.406 L191.9922,1258.456 L192.1875,1258.753 L192.3828,1258.872 L192.5781,1258.486 L192.7734,1258.783 L192.9688,1258.961 L193.1641,1258.337 L193.3594,1258.308 L193.5547,1258.456 L193.75,1258.783 L193.9453,1259.109 L194.1406,1258.931 L194.3359,1258.604 L194.5313,1259.109 L194.7266,1257.654 L194.9219,1257.922 L195.1172,1258.842 L195.3125,1258.961 L195.5078,1257.981 L195.7031,1259.02 L195.8985,1258.931 L196.0938,1259.169 L196.2891,1258.634 L196.4844,1257.951 L196.6797,1259.614 L196.875,1259.08 L197.0703,1258.783 L197.2656,1257.595 L197.4609,1258.812 L197.6563,1257.09 L197.8516,1259.139 L198.0469,1258.931 L198.2422,1258.1 L198.4375,1259.169 L198.6328,1257.654 L198.8281,1258.901 L199.0234,1258.634 L199.2188,1259.08 L199.4141,1258.99 L199.6094,1256.17 L199.8047,1257.654 L200,1258.634 L200.1953,1256.051 L200.3906,1257.061 L200.5859,1258.367 L200.7813,1256.882 L200.9766,1257.447 L201.1719,1258.04 L201.3672,1259.287 L201.5625,1258.931 L201.7578,1258.07 L201.9531,1257.031 L202.1484,1259.05 L202.3438,1256.615 L202.5391,1256.645 L202.7344,1258.486 L202.9297,1258.842 L203.125,1257.803 L203.3203,1256.764 L203.5156,1257.922 L203.711,1256.971 L203.9063,1258.515 L204.1016,1258.783 L204.2969,1259.436 L204.4922,1257.803 L204.6875,1258.159 L204.8828,1257.654 L205.0781,1259.109 L205.2734,1259.08 L205.4688,1258.515 L205.6641,1259.109 L205.8594,1257.12 L206.0547,1258.07 L206.25,1259.317 L206.4453,1257.773 L206.6406,1258.159 L206.8359,1258.664 L207.0313,1257.357 L207.2266,1258.961 L207.4219,1258.575 L207.6172,1258.278 L207.8125,1258.664 L208.0078,1258.248 L208.2031,1259.347 L208.3984,1259.347 L208.5938,1257.922 L208.7891,1258.367 L208.9844,1258.248 L209.1797,1256.348 L209.375,1258.872 L209.5703,1258.901 L209.7656,1257.892 L209.9609,1258.367 L210.1563,1255.873 L210.3516,1258.219 L210.5469,1257.803 L210.7422,1257.892 L210.9375,1255.398 L211.1328,1256.051 L211.3281,1259.198 L211.5235,1258.812 L211.7188,1258.189 L211.9141,1255.665 L212.1094,1258.337 L212.3047,1257.862 L212.5,1256.912 L212.6953,1257.536 L212.8906,1258.011 L213.0859,1257.565 L213.2813,1258.011 L213.4766,1258.278 L213.6719,1257.743 L213.8672,1258.486 L214.0625,1259.05 L214.2578,1256.615 L214.4531,1257.506 L214.6484,1258.248 L214.8438,1256.437 L215.0391,1258.604 L215.2344,1256.318 L215.4297,1258.812 L215.625,1258.07 L215.8203,1256.793 L216.0156,1258.129 L216.2109,1257.417 L216.4063,1258.604 L216.6016,1259.258 L216.7969,1257.298 L216.9922,1257.536 L217.1875,1258.456 L217.3828,1256.496 L217.5781,1257.862 L217.7734,1257.625 L217.9688,1258.367 L218.1641,1258.783 L218.3594,1259.495 L218.5547,1258.486 L218.75,1255.042 L218.9453,1254.893 L219.1406,1257.09 L219.336,1258.278 L219.5313,1258.961 L219.7266,1256.764 L219.9219,1256.704 L220.1172,1258.219 L220.3125,1255.606 L220.5078,1257.981 L220.7031,1258.397 L220.8984,1257.447 L221.0938,1258.07 L221.2891,1255.962 L221.4844,1256.912 L221.6797,1258.248 L221.875,1257.001 L222.0703,1259.02 L222.2656,1258.367 L222.4609,1258.872 L222.6563,1257.684 L222.8516,1256.437 L223.0469,1257.654 L223.2422,1255.665 L223.4375,1258.189 L223.6328,1257.268 L223.8281,1254.863 L224.0234,1254.448 L224.2188,1257.981 L224.4141,1256.823 L224.6094,1259.08 L224.8047,1256.081 L225,1258.397 L225.1953,1258.694 L225.3906,1258.248 L225.5859,1257.239 L225.7813,1258.367 L225.9766,1258.248 L226.1719,1259.347 L226.3672,1253.943 L226.5625,1255.457 L226.7578,1253.854 L226.9531,1258.426 L227.1485,1257.803 L227.3438,1256.971 L227.5391,1253.438 L227.7344,1258.872 L227.9297,1258.278 L228.125,1255.932 L228.3203,1259.258 L228.5156,1255.517 L228.7109,1258.1 L228.9063,1256.912 L229.1016,1257.743 L229.2969,1258.426 L229.4922,1256.2 L229.6875,1256.853 L229.8828,1254.418 L230.0781,1255.873 L230.2734,1253.23 L230.4688,1258.308 L230.6641,1258.486 L230.8594,1254.21 L231.0547,1256.556 L231.25,1254.418 L231.4453,1256.882 L231.6406,1253.201 L231.8359,1249.519 L232.0313,1257.536 L232.2266,1258.842 L232.4219,1257.476 L232.6172,1259.169 L232.8125,1258.486 L233.0078,1258.129 L233.2031,1254.834 L233.3984,1253.884 L233.5938,1259.139 L233.7891,1256.615 L233.9844,1256.645 L234.1797,1258.011 L234.375,1258.159 L234.5703,1257.951 L234.7656,1256.496 L234.961,1256.586 L235.1563,1257.595 L235.3516,1256.289 L235.5469,1256.853 L235.7422,1255.131 L235.9375,1256.407 L236.1328,1253.795 L236.3281,1259.198 L236.5234,1256.259 L236.7188,1256.912 L236.9141,1254.062 L237.1094,1258.664 L237.3047,1255.546 L237.5,1258.753 L237.6953,1256.675 L237.8906,1256.853 L238.0859,1258.812 L238.2813,1256.942 L238.4766,1256.467 L238.6719,1254.448 L238.8672,1254.151 L239.0625,1255.635 L239.2578,1254.953 L239.4531,1257.12 L239.6484,1251.063 L239.8438,1258.011 L240.0391,1257.892 L240.2344,1255.309 L240.4297,1255.932 L240.625,1257.714 L240.8203,1257.15 L241.0156,1255.339 L241.2109,1256.586 L241.4063,1257.447 L241.6016,1257.714 L241.7969,1257.447 L241.9922,1257.357 L242.1875,1256.407 L242.3828,1255.279 L242.5781,1257.12 L242.7735,1259.525 L242.9688,1257.536 L243.1641,1255.903 L243.3594,1255.665 L243.5547,1256.912 L243.75,1252.993 L243.9453,1253.973 L244.1406,1256.942 L244.3359,1251.865 L244.5313,1252.993 L244.7266,1258.337 L244.9219,1258.99 L245.1172,1255.873 L245.3125,1258.931 L245.5078,1255.279 L245.7031,1258.426 L245.8984,1257.654 L246.0938,1255.992 L246.2891,1258.129 L246.4844,1253.438 L246.6797,1243.046 L246.875,1255.457 L247.0703,1258.753 L247.2656,1253.141 L247.4609,1256.081 L247.6563,1258.426 L247.8516,1253.171 L248.0469,1259.644 L248.2422,1255.576 L248.4375,1256.496 L248.6328,1257.684 L248.8281,1257.892 L249.0234,1257.15 L249.2188,1257.595 L249.4141,1251.538 L249.6094,1255.012 L249.8047,1256.853 L250,1256.17 L250.1953,1256.882 L250.3906,1255.339 L250.586,1254.181 L250.7813,1257.298 L250.9766,1256.823 L251.1719,1255.635 L251.3672,1258.545 L251.5625,1256.229 L251.7578,1252.785 L251.9531,1257.387 L252.1484,1259.228 L252.3438,1256.971 L252.5391,1256.2 L252.7344,1258.219 L252.9297,1255.784 L253.125,1257.298 L253.3203,1256.318 L253.5156,1256.734 L253.7109,1251.152 L253.9063,1252.518 L254.1016,1255.695 L254.2969,1247.47 L254.4922,1257.179 L254.6875,1256.289 L254.8828,1257.061 L255.0781,1254.953 L255.2734,1255.517 L255.4688,1256.734 L255.6641,1259.08 L255.8594,1245.392 L256.0547,1257.061 L256.25,1258.04 L256.4453,1256.853 L256.6406,1256.407 L256.8359,1258.337 L257.0313,1257.595 L257.2266,1258.515 L257.4219,1255.724 L257.6172,1247.619 L257.8125,1253.082 L258.0078,1250.618 L258.2031,1256.378 L258.3984,1255.754 L258.5938,1256.081 L258.7891,1259.317 L258.9844,1258.664 L259.1797,1258.189 L259.375,1252.993 L259.5703,1259.406 L259.7656,1255.992 L259.9609,1257.862 L260.1563,1256.675 L260.3516,1258.723 L260.5469,1253.438 L260.7422,1257.15 L260.9375,1253.676 L261.1328,1257.209 L261.3281,1257.714 L261.5234,1256.289 L261.7188,1257.654 L261.9141,1257.417 L262.1094,1255.932 L262.3047,1258.07 L262.5,1252.874 L262.6953,1253.824 L262.8906,1256.289 L263.0859,1255.873 L263.2813,1255.487 L263.4766,1256.942 L263.6719,1257.506 L263.8672,1252.488 L264.0625,1253.29 L264.2578,1257.684 L264.4531,1254.21 L264.6484,1255.071 L264.8438,1256.793 L265.0391,1258.397 L265.2344,1256.526 L265.4297,1255.487 L265.625,1256.378 L265.8203,1256.912 L266.0156,1257.179 L266.2109,1258.1 L266.4063,1251.004 L266.6016,1255.042 L266.7969,1256.971 L266.9922,1255.665 L267.1875,1226.479 L267.3828,1252.369 L267.5781,1251.241 L267.7734,1256.17 L267.9688,1258.248 L268.1641,1257.268 L268.3594,1253.112 L268.5547,1254.181 L268.75,1256.11 L268.9453,1255.724 L269.1406,1258.278 L269.3359,1257.12 L269.5313,1255.814 L269.7266,1251.39 L269.9219,1229.953 L270.1172,1251.924 L270.3125,1253.795 L270.5078,1257.773 L270.7031,1259.169 L270.8984,1257.239 L271.0938,1245.629 L271.2891,1256.17 L271.4844,1255.546 L271.6797,1246.609 L271.875,1252.993 L272.0703,1233.426 L272.2656,1258.308 L272.4609,1256.021 L272.6563,1257.328 L272.8516,1256.289 L273.0469,1236.099 L273.2422,1253.913 L273.4375,1252.488 L273.6328,1256.318 L273.8281,1253.349 L274.0234,1242.779 L274.2188,1247.233 L274.4141,1257.684 L274.6094,1252.577 L274.8047,1246.431 L275,1255.398 L275.1953,1256.942 L275.3906,1256.051 L275.5859,1252.963 L275.7813,1249.816 L275.9766,1257.298 L276.1719,1256.942 L276.3672,1258.694 L276.5625,1247.797 L276.7578,1245.778 L276.9531,1251.33 L277.1484,1252.369 L277.3438,1254.477 L277.5391,1257.061 L277.7344,1253.082 L277.9297,1255.814 L278.125,1242.69 L278.3203,1256.971 L278.5156,1255.992 L278.7109,1257.239 L278.9063,1257.833 L279.1016,1238.236 L279.2969,1256.853 L279.4922,1257.357 L279.6875,1242.126 L279.8828,1248.985 L280.0781,1252.993 L280.2734,1255.279 L280.4688,1251.093 L280.6641,1256.526 L280.8594,1250.707 L281.0547,1255.724 L281.25,1253.498 L281.4453,1256.734 L281.6406,1227.251 L281.8359,1258.129 L282.0313,1256.793 L282.2266,1251.419 L282.4219,1255.843 L282.6172,1254.834 L282.8125,1238.355 L283.0078,1257.417 L283.2031,1253.349 L283.3984,1235.445 L283.5938,1255.576 L283.7891,1254.982 L283.9844,1202.161 L284.1797,1257.684 L284.375,1250.707 L284.5703,1253.171 L284.7656,1257.773 L284.9609,1249.43 L285.1563,1258.367 L285.3516,1245.154 L285.5469,1253.438 L285.7422,1256.14 L285.9375,1250.944 L286.1328,1254.032 L286.3281,1249.519 L286.5234,1254.567 L286.7188,1251.776 L286.9141,1248.658 L287.1094,1244.204 L287.3047,1253.646 L287.5,1258.219 L287.6953,1257.268 L287.8906,1257.12 L288.0859,1258.931 L288.2813,1241.502 L288.4766,1246.164 L288.6719,1258.129 L288.8672,1255.695 L289.0625,1236.455 L289.2578,1252.726 L289.4531,1256.556 L289.6484,1244.234 L289.8438,1255.071 L290.0391,1256.2 L290.2344,1256.229 L290.4297,1256.615 L290.625,1257.506 L290.8203,1253.26 L291.0156,1245.214 L291.2109,1252.34 L291.4063,1244.145 L291.6016,1258.219 L291.7969,1252.043 L291.9922,1226.894 L292.1875,1244.234 L292.3828,1257.417 L292.5781,1256.704 L292.7734,1250.024 L292.9688,1254.685 L293.1641,1255.903 L293.3594,1248.153 L293.5547,1237.702 L293.75,1236.217 L293.9453,1259.02 L294.1406,1232.268 L294.3359,1255.606 L294.5313,1256.704 L294.7266,1244.768 L294.9219,1257.387 L295.1172,1244.917 L295.3125,1233.1 L295.5078,1237.821 L295.7031,1231.556 L295.8984,1253.765 L296.0938,1247.322 L296.2891,1253.765 L296.4844,1255.487 L296.6797,1253.171 L296.875,1242.898 L297.0703,1252.726 L297.2656,1237.227 L297.4609,1250.974 L297.6563,1254.24 L297.8516,1256.467 L298.0469,1253.557 L298.2422,1256.378 L298.4375,1254.121 L298.6328,1257.536 L298.8281,1257.09 L299.0234,1252.963 L299.2188,1255.814 L299.4141,1252.043 L299.6094,1252.904 L299.8047,1256.378 L300,1254.804 L300.1953,1256.496 L300.3906,1222.055 L300.5859,1249.964 L300.7813,1247.441 L300.9766,1252.043 L301.1719,1242.096 L301.3672,1245.065 L301.5625,1252.963 L301.7578,1241.057 L301.9531,1257.862 L302.1484,1226.627 L302.3438,1238.711 L302.5391,1229.893 L302.7344,1246.936 L302.9297,1250.558 L303.125,1254.448 L303.3203,1251.004 L303.5156,1255.576 L303.711,1250.38 L303.9063,1216.591 L304.1016,1240.166 L304.2969,1245.095 L304.4922,1241.146 L304.6875,1256.11 L304.8828,1251.716 L305.0781,1254.774 L305.2734,1256.764 L305.4688,1231.11 L305.6641,1240.938 L305.8594,1254.893 L306.0547,1246.966 L306.25,1221.787 L306.4453,1242.957 L306.6407,1249.757 L306.8359,1250.736 L307.0313,1250.053 L307.2266,1231.823 L307.4219,1248.331 L307.6172,1257.268 L307.8125,1227.28 L308.0078,1245.629 L308.2031,1242.304 L308.3984,1238.504 L308.5938,1254.537 L308.7891,1252.132 L308.9844,1236.871 L309.1797,1249.163 L309.375,1258.337 L309.5703,1240.968 L309.7656,1227.161 L309.9609,1133.753 L310.1563,1084.614 L310.3516,1233.337 L310.5469,1073.302 L310.7422,1238.8 L310.9375,1205.487 L311.1328,1224.875 L311.3281,1234.584 L311.5235,1256.318 L311.7188,1224.281 L311.9141,1255.665 L312.1094,1248.42 L312.3047,1243.165 L312.5,1256.021 L312.6953,1199.4 L312.8906,1251.716 L313.0859,1244.412 L313.2813,1252.755 L313.4766,1105.16 L313.6719,1246.847 L313.8672,1190.285 L314.0625,1254.596 L314.2578,1256.556 L314.4532,1200.796 L314.6484,1240.641 L314.8438,1247.144 L315.0391,1214.335 L315.2344,1244.828 L315.4297,1231.704 L315.625,1254.953 L315.8203,1250.113 L316.0156,1208.664 L316.2109,1207.862 L316.4063,1188.474 L316.6016,1253.112 L316.7969,1210.119 L316.9922,1231.853 L317.1875,1248.42 L317.3828,1060 L317.5781,1135.148 L317.7734,1192.482 L317.9688,1142.215 L318.1641,1081.942 L318.3594,1250.291 L318.5547,1196.995 L318.75,1212.435 L318.9453,1237.494 L319.1406,1244.442 " stroke="blue" fill="none" />
<text x="50" y="1310" font-family="Arial" font-size="12" fill="black">Policy Loss</text>
<text x="50" y="1325" font-family="Arial" font-size="10" fill="black">0.0006826278</text>
<text x="50" y="1540" font-family="Arial" font-size="10" fill="black">2.003311E-05</text>
<path d="M50,1515.346 L51.5625,1373.086 L53.125,1389.994 L54.6875,1444.091 L56.25,1477.062 L57.8125,1466.749 L59.375,1439.812 L60.9375,1460.91 L62.5,1528.732 L64.0625,1510.308 L65.625,1497.171 L67.1875,1479.112 L68.75,1462.085 L70.3125,1460.634 L71.875,1456.639 L73.4375,1451.643 L75,1530 L76.5625,1519.91 L78.125,1512.1 L79.6875,1499.221 L81.25,1495.136 L82.8125,1487.475 L84.375,1479.693 L85.9375,1475.598 L87.5,1528.389 L89.0625,1500.584 L90.625,1487.252 L92.1875,1480.933 L93.75,1470.858 L95.3125,1469.935 L96.875,1464.105 L98.4375,1459.986 L100,1526.544 L101.5625,1507.321 L103.125,1494.636 L104.6875,1485.802 L106.25,1479.233 L107.8125,1471.205 L109.375,1466.313 L110.9375,1463.776 L112.5,1528.453 L114.0625,1511.398 L115.625,1498.262 L117.1875,1487.312 L118.75,1480.682 L120.3125,1474.304 L121.875,1469 L123.4375,1464.254 L125,1526.016 L126.5625,1512.083 L128.125,1497.43 L129.6875,1491.252 L131.25,1483.196 L132.8125,1478.796 L134.375,1472.803 L135.9375,1470.316 L137.5,1526.985 L139.0625,1514.618 L140.625,1500.114 L142.1875,1493.346 L143.75,1487.002 L145.3125,1474.33 L146.875,1470.002 L148.4375,1465.182 L150,1525.026 L151.5625,1508.759 L153.125,1496.276 L154.6875,1485.101 L156.25,1475.065 L157.8125,1469.399 L159.375,1462.478 L160.9375,1454.515 L162.5,1525.457 L164.0625,1509.114 L165.625,1496.324 L167.1875,1492.026 L168.75,1479.01 L170.3125,1473.357 L171.875,1467.431 L173.4375,1464.013 L175,1529.131 L176.5625,1512.229 L178.125,1497.128 L179.6875,1487.693 L181.25,1476.233 L182.8125,1474.363 L184.375,1466.421 L185.9375,1460.229 L187.5,1523.315 L189.0625,1503.857 L190.625,1495.837 L192.1875,1474.742 L193.75,1472.288 L195.3125,1462.047 L196.875,1457.723 L198.4375,1450.597 L200,1523.784 L201.5625,1514.151 L203.125,1499.795 L204.6875,1498.275 L206.25,1491.206 L207.8125,1481.142 L209.375,1472.958 L210.9375,1472.412 L212.5,1514.716 L214.0625,1510.343 L215.625,1506.635 L217.1875,1492.606 L218.75,1484.9 L220.3125,1470.746 L221.875,1465.197 L223.4375,1457.023 L225,1528.125 L226.5625,1523.907 L228.125,1515.163 L229.6875,1507.653 L231.25,1499.754 L232.8125,1493.543 L234.375,1489.517 L235.9375,1485.554 L237.5,1524.937 L239.0625,1517.464 L240.625,1502.712 L242.1875,1496.786 L243.75,1486.338 L245.3125,1474.795 L246.875,1475.103 L248.4375,1472.047 L250,1522.072 L251.5625,1514.065 L253.125,1505.919 L254.6875,1503.66 L256.25,1493.582 L257.8125,1482.482 L259.375,1476.906 L260.9375,1477.52 L262.5,1527.558 L264.0625,1523.513 L265.625,1500.242 L267.1875,1501.949 L268.75,1492.078 L270.3125,1488.181 L271.875,1479.04 L273.4375,1473.981 L275,1522.289 L276.5625,1512.574 L278.125,1508.692 L279.6875,1496.372 L281.25,1486.134 L282.8125,1485.467 L284.375,1480.686 L285.9375,1472.631 L287.5,1528.549 L289.0625,1518.258 L290.625,1504.406 L292.1875,1493.279 L293.75,1486.533 L295.3125,1475.238 L296.875,1469.601 L298.4375,1460.999 L300,1519.392 L301.5625,1515.53 L303.125,1490.917 L304.6875,1486.238 L306.25,1468.671 L307.8125,1473.742 L309.375,1467.015 L310.9375,1463.083 L312.5,1528.617 L314.0625,1520.633 L315.625,1513.286 L317.1875,1512.202 L318.75,1499.583 L320.3125,1492.171 L321.875,1488.128 L323.4375,1481.684 L325,1529.337 L326.5625,1520.921 L328.125,1505.881 L329.6875,1498.57 L331.25,1485.702 L332.8125,1481.51 L334.375,1476.001 L335.9375,1474.573 L337.5,1520.926 L339.0625,1518.849 L340.625,1504.752 L342.1875,1500.005 L343.75,1491.426 L345.3125,1484.612 L346.875,1481.776 L348.4375,1481.735 L350,1524.729 L351.5625,1521.657 L353.125,1512.576 L354.6875,1507.347 L356.25,1499.29 L357.8125,1495.219 L359.375,1490.487 L360.9375,1486.699 L362.5,1505.11 L364.0625,1514.201 L365.625,1511.665 L367.1875,1512.411 L368.75,1511.455 L370.3125,1502.305 L371.875,1502.765 L373.4375,1495.775 L375,1330.003 L376.5625,1387.387 L378.125,1401.774 L379.6875,1405.828 L381.25,1410.961 L382.8125,1414.801 L384.375,1415.939 L385.9375,1425.735 L387.5,1527.437 L389.0625,1519.487 L390.625,1506.493 L392.1875,1503.403 L393.75,1490.98 L395.3125,1491.139 L396.875,1480.433 L398.4375,1474.526 L400,1527.79 L401.5625,1517.509 L403.125,1508.737 L404.6875,1503.053 L406.25,1497.318 L407.8125,1488.886 L409.375,1485.315 L410.9375,1478.063 L412.5,1525.549 L414.0625,1522.312 L415.625,1510.363 L417.1875,1506.294 L418.75,1498.988 L420.3125,1494.963 L421.875,1488.38 L423.4375,1483.557 L425,1529.187 L426.5625,1518.535 L428.125,1510.654 L429.6875,1505.371 L431.25,1499.382 L432.8125,1494.618 L434.375,1486.596 L435.9375,1484.416 L437.5,1524.814 L439.0625,1517.698 L440.625,1507.926 L442.1875,1502.758 L443.75,1491.712 L445.3125,1497.899 L446.875,1489.633 L448.4375,1491.93 L450,1520.541 L451.5625,1523.32 L453.125,1511.415 L454.6875,1496.699 L456.25,1501.884 L457.8125,1495.688 L459.375,1488.166 L460.9375,1484.326 " stroke="blue" fill="none" />
<text x="50" y="1580" font-family="Arial" font-size="12" fill="black">Value Loss</text>
<text x="50" y="1595" font-family="Arial" font-size="10" fill="black">0.01316351</text>
<text x="50" y="1810" font-family="Arial" font-size="10" fill="black">0.0001405726</text>
<path d="M50,1600 L51.5625,1702.548 L53.125,1739.522 L54.6875,1753.328 L56.25,1759.068 L57.8125,1762.316 L59.375,1764.461 L60.9375,1766.082 L62.5,1721.523 L64.0625,1770.266 L65.625,1778.998 L67.1875,1782.011 L68.75,1783.991 L70.3125,1785.432 L71.875,1786.474 L73.4375,1787.298 L75,1771.193 L76.5625,1786.127 L78.125,1789.346 L79.6875,1790.789 L81.25,1791.725 L82.8125,1792.43 L84.375,1792.983 L85.9375,1793.427 L87.5,1782.468 L89.0625,1788.635 L90.625,1790.586 L92.1875,1791.525 L93.75,1792.133 L95.3125,1792.606 L96.875,1792.994 L98.4375,1793.312 L100,1789.487 L101.5625,1792.01 L103.125,1792.948 L104.6875,1793.517 L106.25,1793.963 L107.8125,1794.34 L109.375,1794.643 L110.9375,1794.917 L112.5,1792.188 L114.0625,1793.642 L115.625,1794.295 L117.1875,1794.698 L118.75,1795.026 L120.3125,1795.297 L121.875,1795.536 L123.4375,1795.749 L125,1794.133 L126.5625,1794.799 L128.125,1795.322 L129.6875,1795.66 L131.25,1795.931 L132.8125,1796.159 L134.375,1796.358 L135.9375,1796.546 L137.5,1791.5 L139.0625,1792.716 L140.625,1793.502 L142.1875,1794.017 L143.75,1794.453 L145.3125,1794.81 L146.875,1795.103 L148.4375,1795.36 L150,1793.074 L151.5625,1793.81 L153.125,1794.257 L154.6875,1794.579 L156.25,1794.83 L157.8125,1795.068 L159.375,1795.284 L160.9375,1795.479 L162.5,1791.192 L164.0625,1792.69 L165.625,1793.668 L167.1875,1794.267 L168.75,1794.688 L170.3125,1795.036 L171.875,1795.314 L173.4375,1795.558 L175,1792.882 L176.5625,1793.973 L178.125,1794.529 L179.6875,1794.881 L181.25,1795.161 L182.8125,1795.374 L184.375,1795.56 L185.9375,1795.731 L187.5,1789.276 L189.0625,1790.645 L190.625,1791.507 L192.1875,1792.094 L193.75,1792.567 L195.3125,1792.984 L196.875,1793.316 L198.4375,1793.621 L200,1790.216 L201.5625,1791.72 L203.125,1792.341 L204.6875,1792.783 L206.25,1793.125 L207.8125,1793.38 L209.375,1793.625 L210.9375,1793.831 L212.5,1790.958 L214.0625,1792.473 L215.625,1793.172 L217.1875,1793.562 L218.75,1793.859 L220.3125,1794.127 L221.875,1794.331 L223.4375,1794.537 L225,1790.157 L226.5625,1791.511 L228.125,1792.036 L229.6875,1792.461 L231.25,1792.818 L232.8125,1793.103 L234.375,1793.359 L235.9375,1793.583 L237.5,1789.382 L239.0625,1791.521 L240.625,1792.554 L242.1875,1793.094 L243.75,1793.465 L245.3125,1793.777 L246.875,1794.013 L248.4375,1794.243 L250,1791.197 L251.5625,1792.946 L253.125,1793.512 L254.6875,1793.893 L256.25,1794.195 L257.8125,1794.442 L259.375,1794.651 L260.9375,1794.842 L262.5,1788.933 L264.0625,1790.509 L265.625,1791.287 L267.1875,1791.787 L268.75,1792.203 L270.3125,1792.554 L271.875,1792.825 L273.4375,1793.085 L275,1791.913 L276.5625,1793.404 L278.125,1793.912 L279.6875,1794.234 L281.25,1794.495 L282.8125,1794.746 L284.375,1794.937 L285.9375,1795.13 L287.5,1791.536 L289.0625,1792.766 L290.625,1793.273 L292.1875,1793.638 L293.75,1793.922 L295.3125,1794.165 L296.875,1794.385 L298.4375,1794.581 L300,1790.968 L301.5625,1792.357 L303.125,1793.054 L304.6875,1793.469 L306.25,1793.805 L307.8125,1794.052 L309.375,1794.284 L310.9375,1794.49 L312.5,1790.666 L314.0625,1792.12 L315.625,1792.868 L317.1875,1793.224 L318.75,1793.507 L320.3125,1793.741 L321.875,1793.938 L323.4375,1794.123 L325,1794.509 L326.5625,1795.286 L328.125,1795.798 L329.6875,1796.092 L331.25,1796.312 L332.8125,1796.492 L334.375,1796.641 L335.9375,1796.775 L337.5,1791.56 L339.0625,1792.607 L340.625,1793.111 L342.1875,1793.454 L343.75,1793.704 L345.3125,1793.949 L346.875,1794.146 L348.4375,1794.319 L350,1794.133 L351.5625,1794.689 L353.125,1795.239 L354.6875,1795.492 L356.25,1795.677 L357.8125,1795.854 L359.375,1795.997 L360.9375,1796.132 L362.5,1796.551 L364.0625,1797.98 L365.625,1798.522 L367.1875,1798.78 L368.75,1798.916 L370.3125,1799.033 L371.875,1799.129 L373.4375,1799.219 L375,1798.439 L376.5625,1799.011 L378.125,1799.239 L379.6875,1799.376 L381.25,1799.474 L382.8125,1799.561 L384.375,1799.636 L385.9375,1799.708 L387.5,1794.655 L389.0625,1795.381 L390.625,1795.911 L392.1875,1796.192 L393.75,1796.439 L395.3125,1796.631 L396.875,1796.777 L398.4375,1796.922 L400,1796.173 L401.5625,1796.864 L403.125,1797.25 L404.6875,1797.48 L406.25,1797.65 L407.8125,1797.785 L409.375,1797.903 L410.9375,1798.01 L412.5,1794.732 L414.0625,1795.542 L415.625,1795.975 L417.1875,1796.262 L418.75,1796.484 L420.3125,1796.663 L421.875,1796.818 L423.4375,1796.956 L425,1798.174 L426.5625,1798.88 L428.125,1799.24 L429.6875,1799.454 L431.25,1799.608 L432.8125,1799.72 L434.375,1799.821 L435.9375,1799.895 L437.5,1798.812 L439.0625,1799.2 L440.625,1799.563 L442.1875,1799.72 L443.75,1799.809 L445.3125,1799.887 L446.875,1799.948 L448.4375,1800 L450,1798.081 L451.5625,1798.469 L453.125,1798.693 L454.6875,1798.843 L456.25,1798.955 L457.8125,1799.06 L459.375,1799.144 L460.9375,1799.221 " stroke="blue" fill="none" />
<text x="50" y="1850" font-family="Arial" font-size="12" fill="black">Learning Rate</text>
<text x="50" y="1865" font-family="Arial" font-size="10" fill="black">0.0003</text>
<text x="50" y="2080" font-family="Arial" font-size="10" fill="black">0.0003</text>
<path d="M50,2070 L51.5625,2070 L53.125,2070 L54.6875,2070 L56.25,2070 L57.8125,2070 L59.375,2070 L60.9375,2070 L62.5,2070 L64.0625,2070 L65.625,2070 L67.1875,2070 L68.75,2070 L70.3125,2070 L71.875,2070 L73.4375,2070 L75,2070 L76.5625,2070 L78.125,2070 L79.6875,2070 L81.25,2070 L82.8125,2070 L84.375,2070 L85.9375,2070 L87.5,2070 L89.0625,2070 L90.625,2070 L92.1875,2070 L93.75,2070 L95.3125,2070 L96.875,2070 L98.4375,2070 L100,2070 L101.5625,2070 L103.125,2070 L104.6875,2070 L106.25,2070 L107.8125,2070 L109.375,2070 L110.9375,2070 L112.5,2070 L114.0625,2070 L115.625,2070 L117.1875,2070 L118.75,2070 L120.3125,2070 L121.875,2070 L123.4375,2070 L125,2070 L126.5625,2070 L128.125,2070 L129.6875,2070 L131.25,2070 L132.8125,2070 L134.375,2070 L135.9375,2070 L137.5,2070 L139.0625,2070 L140.625,2070 L142.1875,2070 L143.75,2070 L145.3125,2070 L146.875,2070 L148.4375,2070 L150,2070 L151.5625,2070 L153.125,2070 L154.6875,2070 L156.25,2070 L157.8125,2070 L159.375,2070 L160.9375,2070 L162.5,2070 L164.0625,2070 L165.625,2070 L167.1875,2070 L168.75,2070 L170.3125,2070 L171.875,2070 L173.4375,2070 L175,2070 L176.5625,2070 L178.125,2070 L179.6875,2070 L181.25,2070 L182.8125,2070 L184.375,2070 L185.9375,2070 L187.5,2070 L189.0625,2070 L190.625,2070 L192.1875,2070 L193.75,2070 L195.3125,2070 L196.875,2070 L198.4375,2070 L200,2070 L201.5625,2070 L203.125,2070 L204.6875,2070 L206.25,2070 L207.8125,2070 L209.375,2070 L210.9375,2070 L212.5,2070 L214.0625,2070 L215.625,2070 L217.1875,2070 L218.75,2070 L220.3125,2070 L221.875,2070 L223.4375,2070 L225,2070 L226.5625,2070 L228.125,2070 L229.6875,2070 L231.25,2070 L232.8125,2070 L234.375,2070 L235.9375,2070 L237.5,2070 L239.0625,2070 L240.625,2070 L242.1875,2070 L243.75,2070 L245.3125,2070 L246.875,2070 L248.4375,2070 L250,2070 L251.5625,2070 L253.125,2070 L254.6875,2070 L256.25,2070 L257.8125,2070 L259.375,2070 L260.9375,2070 L262.5,2070 L264.0625,2070 L265.625,2070 L267.1875,2070 L268.75,2070 L270.3125,2070 L271.875,2070 L273.4375,2070 L275,2070 L276.5625,2070 L278.125,2070 L279.6875,2070 L281.25,2070 L282.8125,2070 L284.375,2070 L285.9375,2070 L287.5,2070 L289.0625,2070 L290.625,2070 L292.1875,2070 L293.75,2070 L295.3125,2070 L296.875,2070 L298.4375,2070 L300,2070 L301.5625,2070 L303.125,2070 L304.6875,2070 L306.25,2070 L307.8125,2070 L309.375,2070 L310.9375,2070 L312.5,2070 L314.0625,2070 L315.625,2070 L317.1875,2070 L318.75,2070 L320.3125,2070 L321.875,2070 L323.4375,2070 L325,2070 L326.5625,2070 L328.125,2070 L329.6875,2070 L331.25,2070 L332.8125,2070 L334.375,2070 L335.9375,2070 L337.5,2070 L339.0625,2070 L340.625,2070 L342.1875,2070 L343.75,2070 L345.3125,2070 L346.875,2070 L348.4375,2070 L350,2070 L351.5625,2070 L353.125,2070 L354.6875,2070 L356.25,2070 L357.8125,2070 L359.375,2070 L360.9375,2070 L362.5,2070 L364.0625,2070 L365.625,2070 L367.1875,2070 L368.75,2070 L370.3125,2070 L371.875,2070 L373.4375,2070 L375,2070 L376.5625,2070 L378.125,2070 L379.6875,2070 L381.25,2070 L382.8125,2070 L384.375,2070 L385.9375,2070 L387.5,2070 L389.0625,2070 L390.625,2070 L392.1875,2070 L393.75,2070 L395.3125,2070 L396.875,2070 L398.4375,2070 L400,2070 L401.5625,2070 L403.125,2070 L404.6875,2070 L406.25,2070 L407.8125,2070 L409.375,2070 L410.9375,2070 L412.5,2070 L414.0625,2070 L415.625,2070 L417.1875,2070 L418.75,2070 L420.3125,2070 L421.875,2070 L423.4375,2070 L425,2070 L426.5625,2070 L428.125,2070 L429.6875,2070 L431.25,2070 L432.8125,2070 L434.375,2070 L435.9375,2070 L437.5,2070 L439.0625,2070 L440.625,2070 L442.1875,2070 L443.75,2070 L445.3125,2070 L446.875,2070 L448.4375,2070 L450,2070 L451.5625,2070 L453.125,2070 L454.6875,2070 L456.25,2070 L457.8125,2070 L459.375,2070 L460.9375,2070 " stroke="blue" fill="none" />
<text x="50" y="2120" font-family="Arial" font-size="12" fill="black">Entropy</text>
<text x="50" y="2135" font-family="Arial" font-size="10" fill="black">0.09867742</text>
<text x="50" y="2350" font-family="Arial" font-size="10" fill="black">0.05540153</text>
<path d="M50,2161.171 L51.5625,2160.472 L53.125,2160.839 L54.6875,2159.873 L56.25,2159.89 L57.8125,2159.946 L59.375,2159.571 L60.9375,2159.762 L62.5,2141.402 L64.0625,2142.317 L65.625,2141.887 L67.1875,2141.075 L68.75,2140.667 L70.3125,2140 L71.875,2141.112 L73.4375,2140.383 L75,2144.791 L76.5625,2143.543 L78.125,2143.814 L79.6875,2144.036 L81.25,2144.959 L82.8125,2143.947 L84.375,2143.5 L85.9375,2143.096 L87.5,2146.637 L89.0625,2147.292 L90.625,2147.317 L92.1875,2147.911 L93.75,2147.554 L95.3125,2147.238 L96.875,2147.6 L98.4375,2147.159 L100,2164.51 L101.5625,2163.593 L103.125,2165.38 L104.6875,2165.573 L106.25,2164.594 L107.8125,2164.728 L109.375,2164.998 L110.9375,2165.398 L112.5,2149.875 L114.0625,2149.429 L115.625,2150.91 L117.1875,2152.171 L118.75,2151.781 L120.3125,2152.678 L121.875,2152.253 L123.4375,2151.977 L125,2160.26 L126.5625,2161.439 L128.125,2161.634 L129.6875,2161.974 L131.25,2161.278 L132.8125,2162.08 L134.375,2162.368 L135.9375,2161.645 L137.5,2148.542 L139.0625,2149.844 L140.625,2149.606 L142.1875,2150.012 L143.75,2149.643 L145.3125,2149.621 L146.875,2150.106 L148.4375,2150.108 L150,2155.339 L151.5625,2156.223 L153.125,2157.008 L154.6875,2155.417 L156.25,2156.204 L157.8125,2156.103 L159.375,2157.053 L160.9375,2156.801 L162.5,2146.919 L164.0625,2146.441 L165.625,2147.825 L167.1875,2148.244 L168.75,2148.192 L170.3125,2147.995 L171.875,2148.675 L173.4375,2147.663 L175,2149.444 L176.5625,2149.334 L178.125,2148.577 L179.6875,2148.277 L181.25,2149.144 L182.8125,2148.333 L184.375,2147.887 L185.9375,2148.972 L187.5,2167.132 L189.0625,2167.098 L190.625,2166.785 L192.1875,2166.399 L193.75,2166.853 L195.3125,2166.495 L196.875,2166.44 L198.4375,2166.421 L200,2190.888 L201.5625,2193.962 L203.125,2193.376 L204.6875,2193.685 L206.25,2195.885 L207.8125,2192.211 L209.375,2194.728 L210.9375,2192.026 L212.5,2215.78 L214.0625,2214.694 L215.625,2212.581 L217.1875,2213.283 L218.75,2212.804 L220.3125,2211.911 L221.875,2211.47 L223.4375,2213.162 L225,2186.938 L226.5625,2186.333 L228.125,2186.788 L229.6875,2186.962 L231.25,2188.46 L232.8125,2188.151 L234.375,2187.9 L235.9375,2190.354 L237.5,2204.352 L239.0625,2203.979 L240.625,2206.403 L242.1875,2204.484 L243.75,2206.257 L245.3125,2205.962 L246.875,2205.353 L248.4375,2205.696 L250,2233.613 L251.5625,2233.075 L253.125,2233.821 L254.6875,2233.213 L256.25,2233.624 L257.8125,2233.56 L259.375,2234.262 L260.9375,2233.065 L262.5,2221.177 L264.0625,2220.787 L265.625,2221.108 L267.1875,2220.734 L268.75,2221.986 L270.3125,2220.638 L271.875,2221.477 L273.4375,2221.998 L275,2235.527 L276.5625,2237.673 L278.125,2239.97 L279.6875,2236.443 L281.25,2237.473 L282.8125,2237.776 L284.375,2237.17 L285.9375,2237.781 L287.5,2207.883 L289.0625,2206.662 L290.625,2208.57 L292.1875,2210.786 L293.75,2207.72 L295.3125,2209.416 L296.875,2209.29 L298.4375,2210.323 L300,2251.283 L301.5625,2251.486 L303.125,2251.301 L304.6875,2249.137 L306.25,2251.32 L307.8125,2253.207 L309.375,2252.704 L310.9375,2252.731 L312.5,2220.961 L314.0625,2222.051 L315.625,2219.774 L317.1875,2221.104 L318.75,2220.171 L320.3125,2220.2 L321.875,2220.282 L323.4375,2219.876 L325,2240.016 L326.5625,2238.431 L328.125,2238.996 L329.6875,2238.794 L331.25,2238.621 L332.8125,2239.897 L334.375,2237.998 L335.9375,2239.588 L337.5,2251.582 L339.0625,2250.21 L340.625,2250.768 L342.1875,2251.547 L343.75,2250.284 L345.3125,2253.253 L346.875,2250.508 L348.4375,2251.22 L350,2258.421 L351.5625,2258.39 L353.125,2256.113 L354.6875,2258.358 L356.25,2258.425 L357.8125,2259.209 L359.375,2257.511 L360.9375,2258.83 L362.5,2339.88 L364.0625,2339.88 L365.625,2339.88 L367.1875,2339.88 L368.75,2339.88 L370.3125,2339.88 L371.875,2339.88 L373.4375,2339.88 L375,2300.873 L376.5625,2304.544 L378.125,2302.727 L379.6875,2301.078 L381.25,2303.685 L382.8125,2302.386 L384.375,2301.785 L385.9375,2303.092 L387.5,2267.875 L389.0625,2272.259 L390.625,2270.447 L392.1875,2270.174 L393.75,2271.964 L395.3125,2269.272 L396.875,2269.994 L398.4375,2270.151 L400,2292.78 L401.5625,2295.776 L403.125,2297.518 L404.6875,2297.154 L406.25,2297.026 L407.8125,2297.162 L409.375,2295.819 L410.9375,2297.073 L412.5,2293.777 L414.0625,2294.768 L415.625,2295.86 L417.1875,2295.508 L418.75,2293.393 L420.3125,2294.506 L421.875,2294.218 L423.4375,2295.194 L425,2314.073 L426.5625,2317.949 L428.125,2321.322 L429.6875,2318.966 L431.25,2321.42 L432.8125,2319.891 L434.375,2320.507 L435.9375,2320.67 L437.5,2312.377 L439.0625,2319.013 L440.625,2317.222 L442.1875,2318.793 L443.75,2317.413 L445.3125,2317.891 L446.875,2318.459 L448.4375,2315.862 L450,2337.448 L451.5625,2336.978 L453.125,2338.201 L454.6875,2337.582 L456.25,2337.608 L457.8125,2338.509 L459.375,2340 L460.9375,2338.336 " stroke="blue" fill="none" />
<text x="750" y="770" font-family="Arial" font-size="12" fill="black">Simplified</text>
<text x="750" y="785" font-family="Arial" font-size="10" fill="black">67.83684</text>
<text x="750" y="1000" font-family="Arial" font-size="10" fill="black">2.648685</text>
<path d="M753.5156,989.4671 L757.2266,988.1632 L760.9375,989.5115 L764.6484,989.2451 L768.3594,988.0259 L772.0703,988.6557 L775.7813,989.5115 L779.4922,989.3783 L783.2031,989.0715 L786.9141,989.891 L790.625,989.459 L794.3359,990 L798.0469,989.124 L801.7578,989.8224 L805.4688,989.1078 L809.1797,989.2532 L812.8906,989.3582 L816.6016,989.9919 L820.3125,989.6649 L824.0234,989.3339 L827.7344,988.9141 L831.4453,989.3137 L835.1563,989.455 L838.8672,989.1361 L842.5781,988.6032 L846.2891,989.4752 L850,988.8818 L853.7109,989.0674 L857.4219,988.6113 L861.1328,988.7889 L864.8438,989.0433 L868.5547,989.5681 L872.2656,988.0704 L875.9766,987.7515 L879.6875,988.7687 L883.3984,987.8281 L887.1094,987.2388 L890.8203,987.6021 L894.5313,988.5104 L898.2422,987.7515 L901.9531,986.3708 L905.6641,986.8068 L909.375,987.1298 L913.0859,985.3414 L916.7969,986.0479 L920.5078,985.0911 L924.2188,984.5259 L927.9297,984.4008 L931.6406,982.0836 L935.3516,983.5571 L939.0625,982.2249 L942.7734,982.7416 L946.4844,981.4458 L950.1953,980.1863 L953.9063,981.2843 L957.6172,979.5001 L961.3281,981.8656 L965.0391,980.9371 L968.75,975.8184 L972.4609,971.5272 L976.1719,972.2094 L979.8828,971.2285 L983.5938,969.3635 L987.3047,965.2012 L991.0156,972.9159 L994.7266,962.0326 L998.4375,962.5533 L1002.148,963.4131 L1005.859,954.3867 L1009.57,951.4761 L1013.281,875.6989 L1016.992,896.0882 L1019.141,790 " stroke="blue" fill="none" />
<text x="750" y="1040" font-family="Arial" font-size="12" fill="black">Simplified</text>
<text x="750" y="1055" font-family="Arial" font-size="10" fill="black">2714.455</text>
<text x="750" y="1270" font-family="Arial" font-size="10" fill="black">106.9474</text>
<path d="M753.5156,1259.471 L757.2266,1258.163 L760.9375,1259.511 L764.6484,1259.245 L768.3594,1258.026 L772.0703,1258.656 L775.7813,1259.511 L779.4922,1259.378 L783.2031,1259.072 L786.9141,1259.891 L790.625,1259.459 L794.3359,1260 L798.0469,1259.124 L801.7578,1259.822 L805.4688,1259.108 L809.1797,1259.253 L812.8906,1259.358 L816.6016,1259.992 L820.3125,1259.665 L824.0234,1259.334 L827.7344,1258.914 L831.4453,1259.314 L835.1563,1259.455 L838.8672,1259.136 L842.5781,1258.603 L846.2891,1259.475 L850,1258.882 L853.7109,1259.068 L857.4219,1258.611 L861.1328,1258.789 L864.8438,1259.043 L868.5547,1259.568 L872.2656,1258.07 L875.9766,1257.751 L879.6875,1258.769 L883.3984,1257.828 L887.1094,1257.239 L890.8203,1257.602 L894.5313,1258.51 L898.2422,1257.751 L901.9531,1256.371 L905.6641,1256.807 L909.375,1257.13 L913.0859,1255.341 L916.7969,1256.048 L920.5078,1255.091 L924.2188,1254.526 L927.9297,1254.401 L931.6406,1252.084 L935.3516,1253.557 L939.0625,1252.225 L942.7734,1252.742 L946.4844,1251.446 L950.1953,1250.186 L953.9063,1251.284 L957.6172,1249.5 L961.3281,1251.866 L965.0391,1250.937 L968.75,1245.818 L972.4609,1241.527 L976.1719,1242.209 L979.8828,1241.228 L983.5938,1239.363 L987.3047,1235.201 L991.0156,1242.916 L994.7266,1232.032 L998.4375,1232.553 L1002.148,1233.413 L1005.859,1224.386 L1009.57,1221.476 L1013.281,1145.698 L1016.992,1166.089 L1019.141,1060 " stroke="blue" fill="none" />
</svg>
