<svg width="1000" height="2500" xmlns="http://www.w3.org/2000/svg">
<text x="10" y="20" font-family="Arial" font-size="26" fill="black"> [MoveToGoal] Training Session</text>
<text x="10" y="50" font-family="Arial" font-size="16" fill="black">[Statistics]</text>
<text x="50" y="70" font-family="Arial" font-size="12" fill="black">Started at: 12:12:21 AM, Friday, October 6, 2023</text>
<text x="50" y="90" font-family="Arial" font-size="12" fill="black">Finished at: 12:17:26 AM, Friday, October 6, 2023</text>
<text x="50" y="110" font-family="Arial" font-size="12" fill="black">Training Session Time: 0 hrs : 5 min : 4 sec</text>
<text x="50" y="130" font-family="Arial" font-size="12" fill="black">Inference Time: 0 hrs : 44 min : 13 sec       [Per agent: 0 hrs : 44 min : 13 sec]        [Device: CPU]</text>
<text x="50" y="150" font-family="Arial" font-size="12" fill="black">Policy Update Time: 0 hrs : 1 min : 36 sec        [Per iteration: 0 hrs : 0 min : 3 sec]        [Device: GPU]</text>
<text x="50" y="170" font-family="Arial" font-size="12" fill="black">Inference Time / Training Session Time: 8.650</text>
<text x="50" y="190" font-family="Arial" font-size="12" fill="black">Policy Update Time / Training Session Time: 0.316</text>
<text x="50" y="210" font-family="Arial" font-size="12" fill="black">Episode Count: 599</text>
<text x="50" y="230" font-family="Arial" font-size="12" fill="black">Inference Steps: 65536    [Per agent: 65536]     [Per Episode (mean): 109]</text>
<text x="50" y="250" font-family="Arial" font-size="12" fill="black">Iterations: 32</text>
<text x="50" y="270" font-family="Arial" font-size="12" fill="black">Parallel Agents: 1</text>
<text x="50" y="290" font-family="Arial" font-size="12" fill="black">Timescale: 19.34</text>
<text x="10" y="340" font-family="Arial" font-size="16" fill="black">[Hyperparameters]</text>
<text x="50" y="360" font-family="Arial" font-size="12" fill="black">Buffer Size: 2048        [Batch Size: 128       (x16)]</text>
<text x="50" y="380" font-family="Arial" font-size="12" fill="black">Num Epoch: 8</text>
<text x="50" y="400" font-family="Arial" font-size="12" fill="black">Time Horizon: 64</text>
<text x="50" y="420" font-family="Arial" font-size="12" fill="black">Gradient Cliping Normalization: 0.5</text>
<text x="50" y="440" font-family="Arial" font-size="12" fill="black">Advantages Normalization: True</text>
<text x="50" y="460" font-family="Arial" font-size="12" fill="black">Training Data Shuffle: True</text>
<text x="50" y="480" font-family="Arial" font-size="12" fill="black">Learning Rate Schedule: False    </text>
<text x="10" y="530" font-family="Arial" font-size="16" fill="black">[Behaviour]</text>
<text x="50" y="550" font-family="Arial" font-size="12" fill="black">Space Size: 4</text>
<text x="50" y="570" font-family="Arial" font-size="12" fill="black">Continuous Actions: 0</text>
<text x="50" y="590" font-family="Arial" font-size="12" fill="black">Discrete Actions: 4</text>
<text x="50" y="610" font-family="Arial" font-size="12" fill="black">TargetFPS: 50 (physics update rate)</text>
<text x="50" y="630" font-family="Arial" font-size="12" fill="black">Observations Normalization: False</text>
<text x="50" y="650" font-family="Arial" font-size="12" fill="black">Standard Deviation: Trainable    [Scale: 1]</text>
<text x="10" y="700" font-family="Arial" font-size="16" fill="black">[Decision Requester]</text>
<text x="50" y="720" font-family="Arial" font-size="12" fill="black">Max Step: 200</text>
<text x="50" y="740" font-family="Arial" font-size="12" fill="black">Decision Period: 2      [Actions Between Decisions: False]</text>
<text x="10" y="790" font-family="Arial" font-size="16" fill="black">[Graphs]</text>
<text x="50" y="810" font-family="Arial" font-size="12" fill="black">Episode Reward</text>
<text x="50" y="825" font-family="Arial" font-size="10" fill="black">2.9975</text>
<text x="50" y="1040" font-family="Arial" font-size="10" fill="black">-2.497499</text>
<path d="M50,868.5805 L50.78125,1017.443 L51.5625,1018.626 L52.34375,867.3066 L53.125,1013.258 L53.90625,1012.985 L54.6875,1016.442 L55.46875,1015.623 L56.25,1020.901 L57.03125,1022.266 L57.8125,870.5823 L58.59375,1020.81 L59.375,1016.351 L60.15625,1017.534 L60.9375,868.2166 L61.71875,1018.717 L62.5,1017.17 L63.28125,1013.167 L64.0625,1022.994 L64.84375,1024.449 L65.625,1015.35 L66.40625,1012.803 L67.1875,1017.17 L67.96875,1017.625 L68.75,1013.803 L69.53125,1015.259 L70.3125,1014.44 L71.09375,1020.719 L71.875,1015.623 L72.65625,1020.264 L73.4375,1018.899 L74.21875,957.2975 L75,957.2975 L75.78125,1016.624 L76.5625,1014.895 L77.34375,830 L78.125,866.3967 L78.90625,1015.532 L79.6875,1013.44 L80.46875,1015.168 L81.25,830 L82.03125,1015.805 L82.8125,1016.897 L83.59375,1026.815 L84.375,957.2975 L85.15625,1026.542 L85.9375,957.2975 L86.71875,1013.712 L87.5,957.2975 L88.28125,830 L89.0625,1023.813 L89.84375,1024.268 L90.625,1015.532 L91.40625,1017.898 L92.1875,1013.076 L92.96875,870.6733 L93.75,957.2975 L94.53125,1015.896 L95.3125,1027.998 L96.09375,1013.167 L96.875,957.2975 L97.65625,1020.355 L98.4375,879.1356 L99.21875,1015.441 L100,870.8553 L100.7813,1023.54 L101.5625,957.2975 L102.3438,957.2975 L103.125,1014.986 L103.9063,877.9527 L104.6875,1013.712 L105.4688,1018.262 L106.25,1016.988 L107.0313,1021.265 L107.8125,1017.17 L108.5938,1017.443 L109.375,881.5013 L110.1563,866.3967 L110.9375,1017.898 L111.7188,1014.258 L112.5,1020.628 L113.2813,1020.446 L114.0625,867.3066 L114.8438,1013.985 L115.625,1018.535 L116.4063,957.2975 L117.1875,1015.714 L117.9688,1019.172 L118.75,870.5823 L119.5313,957.2975 L120.3125,1018.626 L121.0938,1014.986 L121.875,1013.167 L122.6563,830 L123.4375,1016.26 L124.2188,1015.714 L125,877.1337 L125.7813,1015.441 L126.5625,957.2975 L127.3438,957.2975 L128.125,1017.443 L128.9063,1017.534 L129.6875,957.2975 L130.4688,870.7643 L131.25,1015.714 L132.0313,1016.806 L132.8125,830 L133.5938,1013.985 L134.375,1022.994 L135.1563,1019.263 L135.9375,1019.081 L136.7188,830 L137.5,1027.452 L138.2813,1012.894 L139.0625,957.2975 L139.8438,1016.169 L140.625,1026.815 L141.4063,1023.54 L142.1875,830 L142.9688,1013.803 L143.75,957.2975 L144.5313,1019.9 L145.3125,1015.077 L146.0938,881.0464 L146.875,957.2975 L147.6563,1017.807 L148.4375,1017.079 L149.2188,957.2975 L150,957.2975 L150.7813,1024.449 L151.5625,957.2975 L152.3438,1014.713 L153.125,830 L153.9063,867.1246 L154.6875,866.3967 L155.4688,1014.622 L156.25,1020.719 L157.0313,870.8553 L157.8125,1021.629 L158.5938,1022.448 L159.375,1013.167 L160.1563,1018.808 L160.9375,1014.531 L161.7188,1019.354 L162.5,1012.803 L163.2813,871.5833 L164.0625,1014.076 L164.8438,1028.999 L165.625,871.8563 L166.4063,1015.987 L167.1875,877.1337 L167.9688,867.5796 L168.75,1013.076 L169.5313,1017.352 L170.3125,1012.53 L171.0938,1021.265 L171.875,1017.534 L172.6563,1015.532 L173.4375,1014.44 L174.2188,1018.808 L175,1016.351 L175.7813,1025.45 L176.5625,1018.171 L177.3438,1017.261 L178.125,957.2975 L178.9063,957.2975 L179.6875,867.9436 L180.4688,1021.993 L181.25,1012.894 L182.0313,867.0337 L182.8125,1022.812 L183.5938,830 L184.375,1018.808 L185.1563,1020.81 L185.9375,1013.44 L186.7188,1016.806 L187.5,1014.349 L188.2813,1014.531 L189.0625,830 L189.8438,1016.806 L190.625,1025.814 L191.4063,1016.533 L192.1875,878.9536 L192.9688,1013.894 L193.75,1022.448 L194.5313,872.5842 L195.3125,1027.634 L196.0938,1016.715 L196.875,1013.985 L197.6563,874.495 L198.4375,1015.077 L199.2188,957.2975 L200,830 L200.7813,1014.258 L201.5625,871.5833 L202.3438,870.4913 L203.125,1024.995 L203.9063,830 L204.6875,957.2975 L205.4688,1026.815 L206.25,830 L207.0313,957.2975 L207.8125,1025.814 L208.5938,1016.897 L209.375,957.2975 L210.1563,1022.266 L210.9375,1016.533 L211.7188,867.1246 L212.5,1014.622 L213.2813,873.4031 L214.0625,880.2275 L214.8438,957.2975 L215.625,1015.532 L216.4063,868.4896 L217.1875,1017.807 L217.9688,1014.713 L218.75,830 L219.5313,866.3967 L220.3125,872.4932 L221.0938,1023.631 L221.875,1019.9 L222.6563,868.5805 L223.4375,1015.987 L224.2188,1019.991 L225,1020.173 L225.7813,957.2975 L226.5625,1017.534 L227.3438,1015.441 L228.125,1026.178 L228.9063,957.2975 L229.6875,867.3066 L230.4688,1016.988 L231.25,1021.174 L232.0313,1022.175 L232.8125,1026.451 L233.5938,957.2975 L234.375,1015.259 L235.1563,866.5787 L235.9375,1026.633 L236.7188,1023.267 L237.5,1014.167 L238.2813,872.3112 L239.0625,875.3139 L239.8438,1016.806 L240.625,881.5923 L241.4063,1016.26 L242.1875,1021.174 L242.9688,1017.625 L243.75,1022.175 L244.5313,873.949 L245.3125,957.2975 L246.0938,957.2975 L246.875,1029.454 L247.6563,1016.988 L248.4375,957.2975 L249.2188,957.2975 L250,1015.35 L250.7813,957.2975 L251.5625,866.4877 L252.3438,867.3066 L253.125,1020.537 L253.9063,1014.531 L254.6875,1022.266 L255.4688,1020.719 L256.25,957.2975 L257.0313,957.2975 L257.8125,1021.174 L258.5938,830 L259.375,866.3967 L260.1563,878.1346 L260.9375,1021.356 L261.7188,1023.176 L262.5,957.2975 L263.2813,1022.812 L264.0625,957.2975 L264.8438,830 L265.625,1021.447 L266.4063,957.2975 L267.1875,1024.541 L267.9688,1021.811 L268.75,1016.442 L269.5313,871.9472 L270.3125,1020.446 L271.0938,1029.818 L271.875,957.2975 L272.6563,957.2975 L273.4375,1025.905 L274.2188,1026.451 L275,870.4004 L275.7813,866.3967 L276.5625,957.2975 L277.3438,867.5796 L278.125,1020.628 L278.9063,869.1265 L279.6875,1012.439 L280.4688,871.1283 L281.25,1025.086 L282.0313,1020.264 L282.8125,830 L283.5938,1015.714 L284.375,1013.622 L285.1563,880.7734 L285.9375,1022.903 L286.7188,1028.18 L287.5,880.4095 L288.2813,1015.714 L289.0625,957.2975 L289.8438,1016.988 L290.625,867.7616 L291.4063,957.2975 L292.1875,1027.725 L292.9688,868.8535 L293.75,957.2975 L294.5313,1014.349 L295.3125,1017.17 L296.0938,1015.987 L296.875,1023.176 L297.6563,1015.987 L298.4375,957.2975 L299.2188,830 L300,866.3967 L300.7813,1023.904 L301.5625,957.2975 L302.3438,957.2975 L303.125,1020.992 L303.9063,876.4968 L304.6875,1021.538 L305.4688,875.4959 L306.25,1024.086 L307.0313,1018.99 L307.8125,1027.816 L308.5938,1018.353 L309.375,1016.897 L310.1563,1025.359 L310.9375,1029.818 L311.7188,884.4131 L312.5,957.2975 L313.2813,1021.174 L314.0625,1027.361 L314.8438,830 L315.625,868.7625 L316.4063,866.3967 L317.1875,1014.713 L317.9688,830 L318.75,957.2975 L319.5313,957.2975 L320.3125,1021.902 L321.0938,957.2975 L321.875,871.5833 L322.6563,866.3967 L323.4375,870.0364 L324.2188,866.3967 L325,957.2975 L325.7813,957.2975 L326.5625,883.8671 L327.3438,957.2975 L328.125,957.2975 L328.9063,1014.713 L329.6875,957.2975 L330.4688,1027.816 L331.25,957.2975 L332.0313,957.2975 L332.8125,957.2975 L333.5938,866.3967 L334.375,1024.359 L335.1563,957.2975 L335.9375,957.2975 L336.7188,1025.632 L337.5,1026.815 L338.2813,874.677 L339.0625,957.2975 L339.8438,1018.08 L340.625,1016.351 L341.4063,957.2975 L342.1875,869.6724 L342.9688,957.2975 L343.75,830 L344.5313,866.3967 L345.3125,957.2975 L346.0938,957.2975 L346.875,957.2975 L347.6563,957.2975 L348.4375,957.2975 L349.2188,883.1392 L350,957.2975 L350.7813,957.2975 L351.5625,957.2975 L352.3438,957.2975 L353.125,957.2975 L353.9063,1019.081 L354.6875,1028.453 L355.4688,866.3967 L356.25,957.2975 L357.0313,830 L357.8125,957.2975 L358.5938,1027.361 L359.375,868.0346 L360.1563,957.2975 L360.9375,957.2975 L361.7188,1015.714 L362.5,1023.813 L363.2813,874.04 L364.0625,957.2975 L364.8438,876.0419 L365.625,1027.634 L366.4063,1030 L367.1875,869.1265 L367.9688,1018.717 L368.75,883.1392 L369.5313,1022.903 L370.3125,830 L371.0938,957.2975 L371.875,1027.27 L372.6563,957.2975 L373.4375,1018.717 L374.2188,830 L375,866.3967 L375.7813,877.4977 L376.5625,1017.807 L377.3438,869.6724 L378.125,879.9545 L378.9063,883.7761 L379.6875,1014.167 L380.4688,957.2975 L381.25,957.2975 L382.0313,874.313 L382.8125,957.2975 L383.5938,957.2975 L384.375,957.2975 L385.1563,957.2975 L385.9375,957.2975 L386.7188,868.7625 L387.5,1020.082 L388.2813,1017.534 L389.0625,1021.629 L389.8438,1017.625 L390.625,957.2975 L391.4063,868.9445 L392.1875,873.6761 L392.9688,957.2975 L393.75,866.6697 L394.5313,957.2975 L395.3125,957.2975 L396.0938,872.4932 L396.875,874.8589 L397.6563,880.3185 L398.4375,873.949 L399.2188,957.2975 L400,866.3967 L400.7813,868.0346 L401.5625,1016.806 L402.3438,957.2975 L403.125,872.1292 L403.9063,1021.902 L404.6875,957.2975 L405.4688,1020.173 L406.25,1025.814 L407.0313,957.2975 L407.8125,957.2975 L408.5938,957.2975 L409.375,957.2975 L410.1563,957.2975 L410.9375,874.495 L411.7188,957.2975 L412.5,830 L413.2813,957.2975 L414.0625,871.0373 L414.8438,957.2975 L415.625,957.2975 L416.4063,957.2975 L417.1875,872.5842 L417.9688,1026.724 L418.75,957.2975 L419.5313,957.2975 L420.3125,957.2975 L421.0938,957.2975 L421.875,1025.632 L422.6563,957.2975 L423.4375,957.2975 L424.2188,957.2975 L425,957.2975 L425.7813,869.6724 L426.5625,957.2975 L427.3438,957.2975 L428.125,957.2975 L428.9063,1027.907 L429.6875,878.7716 L430.4688,1023.449 L431.25,957.2975 L432.0313,957.2975 L432.8125,957.2975 L433.5938,883.7761 L434.375,957.2975 L435.1563,957.2975 L435.9375,957.2975 L436.7188,957.2975 L437.5,957.2975 L438.2813,957.2975 L439.0625,872.5842 L439.8438,1022.357 L440.625,957.2975 L441.4063,957.2975 L442.1875,957.2975 L442.9688,957.2975 L443.75,957.2975 L444.5313,957.2975 L445.3125,957.2975 L446.0938,957.2975 L446.875,957.2975 L447.6563,957.2975 L448.4375,957.2975 L449.2188,871.5833 L450,957.2975 L450.7813,957.2975 L451.5625,873.4941 L452.3438,957.2975 L453.125,871.4922 L453.9063,957.2975 L454.6875,957.2975 L455.4688,866.9427 L456.25,957.2975 L457.0313,830 L457.8125,875.8599 L458.5938,957.2975 L459.375,957.2975 L460.1563,866.3967 L460.9375,878.3167 L461.7188,957.2975 L462.5,957.2975 L463.2813,957.2975 L464.0625,872.8571 L464.8438,957.2975 L465.625,876.8608 L466.4063,1022.721 L467.1875,957.2975 L467.9688,871.9472 L468.75,957.2975 L469.5313,868.8535 L470.3125,957.2975 L471.0938,881.9563 L471.875,957.2975 L472.6563,1015.441 L473.4375,957.2975 L474.2188,873.949 L475,957.2975 L475.7813,957.2975 L476.5625,1024.359 L477.3438,957.2975 L478.125,870.3094 L478.9063,872.4022 L479.6875,873.7671 L480.4688,1019.809 L481.25,871.5833 L482.0313,868.3076 L482.8125,880.6824 L483.5938,957.2975 L484.375,882.6843 L485.1563,957.2975 L485.9375,871.0373 L486.7188,957.2975 L487.5,957.2975 L488.2813,872.5842 L489.0625,957.2975 L489.8438,875.4049 L490.625,871.8563 L491.4063,957.2975 L492.1875,873.858 L492.9688,879.0446 L493.75,957.2975 L494.5313,830 L495.3125,957.2975 L496.0938,957.2975 L496.875,957.2975 L497.6563,869.0355 L498.4375,957.2975 L499.2188,957.2975 L500,830 L500.7813,866.3967 L501.5625,957.2975 L502.3438,957.2975 L503.125,957.2975 L503.9063,867.7616 L504.6875,879.9545 L505.4688,957.2975 L506.25,882.9572 L507.0313,870.9463 L507.8125,957.2975 L508.5938,957.2975 L509.375,957.2975 L510.1563,1025.632 L510.9375,869.6724 L511.7188,871.7653 L512.5,881.9563 L513.2813,884.4131 L514.0625,957.2975 L514.8438,957.2975 L515.625,1017.261 L516.4063,874.222 L517.1875,957.2975 " stroke="blue" fill="none" />
<text x="50" y="1080" font-family="Arial" font-size="12" fill="black">Episode Length</text>
<text x="50" y="1095" font-family="Arial" font-size="10" fill="black">200</text>
<text x="50" y="1310" font-family="Arial" font-size="10" fill="black">1</text>
<path d="M50,1276.884 L50.78125,1239.698 L51.5625,1226.633 L52.34375,1289.95 L53.125,1285.93 L53.90625,1288.945 L54.6875,1250.754 L55.46875,1259.799 L56.25,1201.508 L57.03125,1186.432 L57.8125,1253.769 L58.59375,1202.513 L59.375,1251.759 L60.15625,1238.693 L60.9375,1279.9 L61.71875,1225.628 L62.5,1242.714 L63.28125,1286.935 L64.0625,1178.392 L64.84375,1162.312 L65.625,1262.814 L66.40625,1290.955 L67.1875,1242.714 L67.96875,1237.688 L68.75,1279.9 L69.53125,1263.819 L70.3125,1272.864 L71.09375,1203.518 L71.875,1259.799 L72.65625,1208.543 L73.4375,1223.618 L74.21875,1100 L75,1100 L75.78125,1248.744 L76.5625,1267.839 L77.34375,1300 L78.125,1300 L78.90625,1260.804 L79.6875,1283.92 L80.46875,1264.824 L81.25,1300 L82.03125,1257.789 L82.8125,1245.729 L83.59375,1136.181 L84.375,1100 L85.15625,1139.196 L85.9375,1100 L86.71875,1280.905 L87.5,1100 L88.28125,1300 L89.0625,1169.347 L89.84375,1164.322 L90.625,1260.804 L91.40625,1234.673 L92.1875,1287.94 L92.96875,1252.764 L93.75,1100 L94.53125,1256.784 L95.3125,1123.116 L96.09375,1286.935 L96.875,1100 L97.65625,1207.538 L98.4375,1159.297 L99.21875,1261.809 L100,1250.754 L100.7813,1172.362 L101.5625,1100 L102.3438,1100 L103.125,1266.834 L103.9063,1172.362 L104.6875,1280.905 L105.4688,1230.653 L106.25,1244.724 L107.0313,1197.487 L107.8125,1242.714 L108.5938,1239.698 L109.375,1133.166 L110.1563,1300 L110.9375,1234.673 L111.7188,1274.874 L112.5,1204.523 L113.2813,1206.533 L114.0625,1289.95 L114.8438,1277.889 L115.625,1227.638 L116.4063,1100 L117.1875,1258.794 L117.9688,1220.603 L118.75,1253.769 L119.5313,1100 L120.3125,1226.633 L121.0938,1266.834 L121.875,1286.935 L122.6563,1300 L123.4375,1252.764 L124.2188,1258.794 L125,1181.407 L125.7813,1261.809 L126.5625,1100 L127.3438,1100 L128.125,1239.698 L128.9063,1238.693 L129.6875,1100 L130.4688,1251.759 L131.25,1258.794 L132.0313,1246.734 L132.8125,1300 L133.5938,1277.889 L134.375,1178.392 L135.1563,1219.598 L135.9375,1221.608 L136.7188,1300 L137.5,1129.146 L138.2813,1289.95 L139.0625,1100 L139.8438,1253.769 L140.625,1136.181 L141.4063,1172.362 L142.1875,1300 L142.9688,1279.9 L143.75,1100 L144.5313,1212.563 L145.3125,1265.829 L146.0938,1138.191 L146.875,1100 L147.6563,1235.678 L148.4375,1243.719 L149.2188,1100 L150,1100 L150.7813,1162.312 L151.5625,1100 L152.3438,1269.849 L153.125,1300 L153.9063,1291.96 L154.6875,1300 L155.4688,1270.854 L156.25,1203.518 L157.0313,1250.754 L157.8125,1193.467 L158.5938,1184.422 L159.375,1286.935 L160.1563,1224.623 L160.9375,1271.859 L161.7188,1218.593 L162.5,1290.955 L163.2813,1242.714 L164.0625,1276.884 L164.8438,1112.06 L165.625,1239.698 L166.4063,1255.779 L167.1875,1181.407 L167.9688,1286.935 L168.75,1287.94 L169.5313,1240.703 L170.3125,1293.97 L171.0938,1197.487 L171.875,1238.693 L172.6563,1260.804 L173.4375,1272.864 L174.2188,1224.623 L175,1251.759 L175.7813,1151.256 L176.5625,1231.658 L177.3438,1241.708 L178.125,1100 L178.9063,1100 L179.6875,1282.915 L180.4688,1189.447 L181.25,1289.95 L182.0313,1292.965 L182.8125,1180.402 L183.5938,1300 L184.375,1224.623 L185.1563,1202.513 L185.9375,1283.92 L186.7188,1246.734 L187.5,1273.869 L188.2813,1271.859 L189.0625,1300 L189.8438,1246.734 L190.625,1147.236 L191.4063,1249.749 L192.1875,1161.307 L192.9688,1278.895 L193.75,1184.422 L194.5313,1231.658 L195.3125,1127.136 L196.0938,1247.739 L196.875,1277.889 L197.6563,1210.553 L198.4375,1265.829 L199.2188,1100 L200,1300 L200.7813,1274.874 L201.5625,1242.714 L202.3438,1254.774 L203.125,1156.281 L203.9063,1300 L204.6875,1100 L205.4688,1136.181 L206.25,1300 L207.0313,1100 L207.8125,1147.236 L208.5938,1245.729 L209.375,1100 L210.1563,1186.432 L210.9375,1249.749 L211.7188,1291.96 L212.5,1270.854 L213.2813,1222.613 L214.0625,1147.236 L214.8438,1100 L215.625,1260.804 L216.4063,1276.884 L217.1875,1235.678 L217.9688,1269.849 L218.75,1300 L219.5313,1300 L220.3125,1232.663 L221.0938,1171.357 L221.875,1212.563 L222.6563,1275.879 L223.4375,1255.779 L224.2188,1211.558 L225,1209.548 L225.7813,1100 L226.5625,1238.693 L227.3438,1261.809 L228.125,1143.216 L228.9063,1100 L229.6875,1289.95 L230.4688,1244.724 L231.25,1198.492 L232.0313,1187.437 L232.8125,1140.201 L233.5938,1100 L234.375,1263.819 L235.1563,1297.99 L235.9375,1138.191 L236.7188,1175.377 L237.5,1275.879 L238.2813,1234.673 L239.0625,1201.508 L239.8438,1246.734 L240.625,1132.161 L241.4063,1252.764 L242.1875,1198.492 L242.9688,1237.688 L243.75,1187.437 L244.5313,1216.583 L245.3125,1100 L246.0938,1100 L246.875,1107.035 L247.6563,1244.724 L248.4375,1100 L249.2188,1100 L250,1262.814 L250.7813,1100 L251.5625,1298.995 L252.3438,1289.95 L253.125,1205.528 L253.9063,1271.859 L254.6875,1186.432 L255.4688,1203.518 L256.25,1100 L257.0313,1100 L257.8125,1198.492 L258.5938,1300 L259.375,1300 L260.1563,1170.352 L260.9375,1196.482 L261.7188,1176.382 L262.5,1100 L263.2813,1180.402 L264.0625,1100 L264.8438,1300 L265.625,1195.477 L266.4063,1100 L267.1875,1161.307 L267.9688,1191.457 L268.75,1250.754 L269.5313,1238.693 L270.3125,1206.533 L271.0938,1103.015 L271.875,1100 L272.6563,1100 L273.4375,1146.231 L274.2188,1140.201 L275,1255.779 L275.7813,1300 L276.5625,1100 L277.3438,1286.935 L278.125,1204.523 L278.9063,1269.849 L279.6875,1294.975 L280.4688,1247.739 L281.25,1155.276 L282.0313,1208.543 L282.8125,1300 L283.5938,1258.794 L284.375,1281.91 L285.1563,1141.206 L285.9375,1179.397 L286.7188,1121.105 L287.5,1145.226 L288.2813,1258.794 L289.0625,1100 L289.8438,1244.724 L290.625,1284.925 L291.4063,1100 L292.1875,1126.131 L292.9688,1272.864 L293.75,1100 L294.5313,1273.869 L295.3125,1242.714 L296.0938,1255.779 L296.875,1176.382 L297.6563,1255.779 L298.4375,1100 L299.2188,1300 L300,1300 L300.7813,1168.342 L301.5625,1100 L302.3438,1100 L303.125,1200.503 L303.9063,1188.442 L304.6875,1194.472 L305.4688,1199.497 L306.25,1166.332 L307.0313,1222.613 L307.8125,1125.126 L308.5938,1229.648 L309.375,1245.729 L310.1563,1152.261 L310.9375,1103.015 L311.7188,1101.005 L312.5,1100 L313.2813,1198.492 L314.0625,1130.151 L314.8438,1300 L315.625,1273.869 L316.4063,1300 L317.1875,1269.849 L317.9688,1300 L318.75,1100 L319.5313,1100 L320.3125,1190.452 L321.0938,1100 L321.875,1242.714 L322.6563,1300 L323.4375,1259.799 L324.2188,1300 L325,1100 L325.7813,1100 L326.5625,1107.035 L327.3438,1100 L328.125,1100 L328.9063,1269.849 L329.6875,1100 L330.4688,1125.126 L331.25,1100 L332.0313,1100 L332.8125,1100 L333.5938,1300 L334.375,1163.317 L335.1563,1100 L335.9375,1100 L336.7188,1149.246 L337.5,1136.181 L338.2813,1208.543 L339.0625,1100 L339.8438,1232.663 L340.625,1251.759 L341.4063,1100 L342.1875,1263.819 L342.9688,1100 L343.75,1300 L344.5313,1300 L345.3125,1100 L346.0938,1100 L346.875,1100 L347.6563,1100 L348.4375,1100 L349.2188,1115.075 L350,1100 L350.7813,1100 L351.5625,1100 L352.3438,1100 L353.125,1100 L353.9063,1221.608 L354.6875,1118.09 L355.4688,1300 L356.25,1100 L357.0313,1300 L357.8125,1100 L358.5938,1130.151 L359.375,1281.91 L360.1563,1100 L360.9375,1100 L361.7188,1258.794 L362.5,1169.347 L363.2813,1215.578 L364.0625,1100 L364.8438,1193.467 L365.625,1127.136 L366.4063,1101.005 L367.1875,1269.849 L367.9688,1225.628 L368.75,1115.075 L369.5313,1179.397 L370.3125,1300 L371.0938,1100 L371.875,1131.156 L372.6563,1100 L373.4375,1225.628 L374.2188,1300 L375,1300 L375.7813,1177.387 L376.5625,1235.678 L377.3438,1263.819 L378.125,1150.251 L378.9063,1108.04 L379.6875,1275.879 L380.4688,1100 L381.25,1100 L382.0313,1212.563 L382.8125,1100 L383.5938,1100 L384.375,1100 L385.1563,1100 L385.9375,1100 L386.7188,1273.869 L387.5,1210.553 L388.2813,1238.693 L389.0625,1193.467 L389.8438,1237.688 L390.625,1100 L391.4063,1271.859 L392.1875,1219.598 L392.9688,1100 L393.75,1296.985 L394.5313,1100 L395.3125,1100 L396.0938,1232.663 L396.875,1206.533 L397.6563,1146.231 L398.4375,1216.583 L399.2188,1100 L400,1300 L400.7813,1281.91 L401.5625,1246.734 L402.3438,1100 L403.125,1236.683 L403.9063,1190.452 L404.6875,1100 L405.4688,1209.548 L406.25,1147.236 L407.0313,1100 L407.8125,1100 L408.5938,1100 L409.375,1100 L410.1563,1100 L410.9375,1210.553 L411.7188,1100 L412.5,1300 L413.2813,1100 L414.0625,1248.744 L414.8438,1100 L415.625,1100 L416.4063,1100 L417.1875,1231.658 L417.9688,1137.186 L418.75,1100 L419.5313,1100 L420.3125,1100 L421.0938,1100 L421.875,1149.246 L422.6563,1100 L423.4375,1100 L424.2188,1100 L425,1100 L425.7813,1263.819 L426.5625,1100 L427.3438,1100 L428.125,1100 L428.9063,1124.121 L429.6875,1163.317 L430.4688,1173.367 L431.25,1100 L432.0313,1100 L432.8125,1100 L433.5938,1108.04 L434.375,1100 L435.1563,1100 L435.9375,1100 L436.7188,1100 L437.5,1100 L438.2813,1100 L439.0625,1231.658 L439.8438,1185.427 L440.625,1100 L441.4063,1100 L442.1875,1100 L442.9688,1100 L443.75,1100 L444.5313,1100 L445.3125,1100 L446.0938,1100 L446.875,1100 L447.6563,1100 L448.4375,1100 L449.2188,1242.714 L450,1100 L450.7813,1100 L451.5625,1221.608 L452.3438,1100 L453.125,1243.719 L453.9063,1100 L454.6875,1100 L455.4688,1293.97 L456.25,1100 L457.0313,1300 L457.8125,1195.477 L458.5938,1100 L459.375,1100 L460.1563,1300 L460.9375,1168.342 L461.7188,1100 L462.5,1100 L463.2813,1100 L464.0625,1228.643 L464.8438,1100 L465.625,1184.422 L466.4063,1181.407 L467.1875,1100 L467.9688,1238.693 L468.75,1100 L469.5313,1272.864 L470.3125,1100 L471.0938,1128.141 L471.875,1100 L472.6563,1261.809 L473.4375,1100 L474.2188,1216.583 L475,1100 L475.7813,1100 L476.5625,1163.317 L477.3438,1100 L478.125,1256.784 L478.9063,1233.668 L479.6875,1218.593 L480.4688,1213.568 L481.25,1242.714 L482.0313,1278.895 L482.8125,1142.211 L483.5938,1100 L484.375,1120.1 L485.1563,1100 L485.9375,1248.744 L486.7188,1100 L487.5,1100 L488.2813,1231.658 L489.0625,1100 L489.8438,1200.503 L490.625,1239.698 L491.4063,1100 L492.1875,1217.588 L492.9688,1160.302 L493.75,1100 L494.5313,1300 L495.3125,1100 L496.0938,1100 L496.875,1100 L497.6563,1270.854 L498.4375,1100 L499.2188,1100 L500,1300 L500.7813,1300 L501.5625,1100 L502.3438,1100 L503.125,1100 L503.9063,1284.925 L504.6875,1150.251 L505.4688,1100 L506.25,1117.085 L507.0313,1249.749 L507.8125,1100 L508.5938,1100 L509.375,1100 L510.1563,1149.246 L510.9375,1263.819 L511.7188,1240.703 L512.5,1128.141 L513.2813,1101.005 L514.0625,1100 L514.8438,1100 L515.625,1241.708 L516.4063,1213.568 L517.1875,1100 " stroke="blue" fill="none" />
<text x="50" y="1350" font-family="Arial" font-size="12" fill="black">Policy Loss</text>
<text x="50" y="1365" font-family="Arial" font-size="10" fill="black">0.08430546</text>
<text x="50" y="1580" font-family="Arial" font-size="10" fill="black">0.00414123</text>
<path d="M50,1456.315 L51.5625,1556.087 L53.125,1553.514 L54.6875,1547.887 L56.25,1555.619 L57.8125,1556.565 L59.375,1550.255 L60.9375,1556.248 L62.5,1435.088 L64.0625,1554.287 L65.625,1559.687 L67.1875,1544.507 L68.75,1545.67 L70.3125,1539.915 L71.875,1532.826 L73.4375,1528.49 L75,1426.269 L76.5625,1557.92 L78.125,1570 L79.6875,1559.776 L81.25,1553.567 L82.8125,1549.545 L84.375,1557.079 L85.9375,1557.747 L87.5,1426.266 L89.0625,1557.751 L90.625,1555.403 L92.1875,1562.85 L93.75,1557.245 L95.3125,1562.511 L96.875,1553.844 L98.4375,1554.652 L100,1412.542 L101.5625,1562.64 L103.125,1560.856 L104.6875,1557.962 L106.25,1556.292 L107.8125,1562.049 L109.375,1553.355 L110.9375,1555.97 L112.5,1431.355 L114.0625,1561.99 L115.625,1562.273 L117.1875,1558.963 L118.75,1566.385 L120.3125,1557.109 L121.875,1555.316 L123.4375,1564.688 L125,1430.264 L126.5625,1550.224 L128.125,1560.255 L129.6875,1556.008 L131.25,1552.908 L132.8125,1547.905 L134.375,1547.801 L135.9375,1551.084 L137.5,1428.477 L139.0625,1553.048 L140.625,1560.555 L142.1875,1555.812 L143.75,1544.616 L145.3125,1550.792 L146.875,1557.179 L148.4375,1555.638 L150,1430.372 L151.5625,1551.699 L153.125,1550.968 L154.6875,1560.255 L156.25,1559.101 L157.8125,1556.596 L159.375,1561.482 L160.9375,1556.354 L162.5,1417.501 L164.0625,1563.692 L165.625,1561.521 L167.1875,1561.223 L168.75,1555.896 L170.3125,1565.235 L171.875,1553.096 L173.4375,1559.27 L175,1429.39 L176.5625,1560.838 L178.125,1552.301 L179.6875,1550.956 L181.25,1557.116 L182.8125,1545.757 L184.375,1557.339 L185.9375,1551.031 L187.5,1409.666 L189.0625,1553.569 L190.625,1555.064 L192.1875,1557.501 L193.75,1555.839 L195.3125,1553.216 L196.875,1551.463 L198.4375,1558.449 L200,1497.272 L201.5625,1562.258 L203.125,1561.051 L204.6875,1563.105 L206.25,1561.324 L207.8125,1544.412 L209.375,1558.927 L210.9375,1552.637 L212.5,1419.8 L214.0625,1559.032 L215.625,1555.207 L217.1875,1553.973 L218.75,1561.347 L220.3125,1562.395 L221.875,1555.624 L223.4375,1560.115 L225,1409.195 L226.5625,1564.699 L228.125,1562.832 L229.6875,1557.271 L231.25,1555.437 L232.8125,1559.914 L234.375,1560.933 L235.9375,1550.445 L237.5,1420.707 L239.0625,1558.867 L240.625,1557.534 L242.1875,1562.379 L243.75,1559.467 L245.3125,1552.776 L246.875,1555.985 L248.4375,1561.206 L250,1419.669 L251.5625,1564.15 L253.125,1557.351 L254.6875,1552.146 L256.25,1560.183 L257.8125,1553.498 L259.375,1557.994 L260.9375,1552.924 L262.5,1425.441 L264.0625,1558.785 L265.625,1560.074 L267.1875,1556.51 L268.75,1561.891 L270.3125,1553.288 L271.875,1557.554 L273.4375,1559.635 L275,1455.153 L276.5625,1551.595 L278.125,1554.28 L279.6875,1542.424 L281.25,1557.956 L282.8125,1558.682 L284.375,1556.747 L285.9375,1556 L287.5,1404.964 L289.0625,1566.884 L290.625,1562.875 L292.1875,1556.631 L293.75,1555.097 L295.3125,1553.941 L296.875,1557.491 L298.4375,1560.764 L300,1402.239 L301.5625,1553.262 L303.125,1558.827 L304.6875,1553.378 L306.25,1558.633 L307.8125,1559.915 L309.375,1558.339 L310.9375,1550.849 L312.5,1439.445 L314.0625,1558.513 L315.625,1561.587 L317.1875,1553.351 L318.75,1552.554 L320.3125,1558.219 L321.875,1563.728 L323.4375,1565.826 L325,1370 L326.5625,1554.593 L328.125,1549.46 L329.6875,1558.849 L331.25,1554.383 L332.8125,1551.954 L334.375,1565.291 L335.9375,1556.049 L337.5,1397.414 L339.0625,1558.13 L340.625,1552.622 L342.1875,1559.267 L343.75,1557.319 L345.3125,1562.883 L346.875,1560.188 L348.4375,1558.748 L350,1451.163 L351.5625,1560.122 L353.125,1554.808 L354.6875,1561.592 L356.25,1557.026 L357.8125,1561.742 L359.375,1562.907 L360.9375,1562.86 L362.5,1403.003 L364.0625,1560.809 L365.625,1556.681 L367.1875,1552.877 L368.75,1551.904 L370.3125,1555.058 L371.875,1564.849 L373.4375,1564.002 L375,1384.648 L376.5625,1561.563 L378.125,1556.178 L379.6875,1552.242 L381.25,1544.199 L382.8125,1559.975 L384.375,1553.307 L385.9375,1553.722 L387.5,1453.396 L389.0625,1565.753 L390.625,1560.975 L392.1875,1556.419 L393.75,1556.995 L395.3125,1557.626 L396.875,1564.428 L398.4375,1566.237 L400,1407.779 L401.5625,1560.629 L403.125,1564.048 L404.6875,1549.037 L406.25,1536.407 L407.8125,1544.634 L409.375,1540.053 L410.9375,1540.762 L412.5,1401.402 L414.0625,1559.547 L415.625,1555.645 L417.1875,1564.626 L418.75,1563.973 L420.3125,1559.083 L421.875,1560.636 L423.4375,1560.227 L425,1391.998 L426.5625,1559.106 L428.125,1564.112 L429.6875,1554.154 L431.25,1566.251 L432.8125,1559.402 L434.375,1555.71 L435.9375,1561.288 L437.5,1426.363 L439.0625,1561.068 L440.625,1560.623 L442.1875,1561.388 L443.75,1557.467 L445.3125,1563.218 L446.875,1559.291 L448.4375,1550.271 " stroke="blue" fill="none" />
<text x="50" y="1620" font-family="Arial" font-size="12" fill="black">Value Loss</text>
<text x="50" y="1635" font-family="Arial" font-size="10" fill="black">0.03551567</text>
<text x="50" y="1850" font-family="Arial" font-size="10" fill="black">0.0007607999</text>
<path d="M50,1748.278 L51.5625,1771.303 L53.125,1783.671 L54.6875,1790.556 L56.25,1795.004 L57.8125,1798.696 L59.375,1801.355 L60.9375,1803.836 L62.5,1805.65 L64.0625,1810.617 L65.625,1817.1 L67.1875,1821.422 L68.75,1824.105 L70.3125,1826.152 L71.875,1827.65 L73.4375,1828.668 L75,1705.807 L76.5625,1751.709 L78.125,1781.484 L79.6875,1796.427 L81.25,1804.015 L82.8125,1808.711 L84.375,1812.185 L85.9375,1814.721 L87.5,1756.772 L89.0625,1782.592 L90.625,1797.097 L92.1875,1804.783 L93.75,1808.967 L95.3125,1813.102 L96.875,1815.813 L98.4375,1817.841 L100,1765.66 L101.5625,1800.84 L103.125,1813.28 L104.6875,1819.385 L106.25,1823.275 L107.8125,1825.879 L109.375,1827.375 L110.9375,1828.615 L112.5,1693.997 L114.0625,1738.091 L115.625,1777.946 L117.1875,1793.118 L118.75,1801.401 L120.3125,1807.009 L121.875,1810.733 L123.4375,1813.624 L125,1744.994 L126.5625,1778.723 L128.125,1806.02 L129.6875,1817.505 L131.25,1821.489 L132.8125,1823.994 L134.375,1825.838 L135.9375,1827.243 L137.5,1679.15 L139.0625,1738.599 L140.625,1790.02 L142.1875,1813.621 L143.75,1822.593 L145.3125,1825.771 L146.875,1827.571 L148.4375,1828.711 L150,1776.813 L151.5625,1796.535 L153.125,1808.528 L154.6875,1815.727 L156.25,1819.951 L157.8125,1822.716 L159.375,1824.345 L160.9375,1825.985 L162.5,1651.165 L164.0625,1754.124 L165.625,1789.634 L167.1875,1801.093 L168.75,1809.196 L170.3125,1813.245 L171.875,1815.351 L173.4375,1817.11 L175,1754.968 L176.5625,1780.574 L178.125,1807.664 L179.6875,1817.225 L181.25,1822.046 L182.8125,1825.307 L184.375,1826.864 L185.9375,1828.429 L187.5,1788.099 L189.0625,1810.231 L190.625,1822.963 L192.1875,1827.949 L193.75,1830.528 L195.3125,1832.057 L196.875,1833.264 L198.4375,1833.99 L200,1758.778 L201.5625,1794.303 L203.125,1811.712 L204.6875,1819.407 L206.25,1823.135 L207.8125,1825.921 L209.375,1827.998 L210.9375,1829.325 L212.5,1729.506 L214.0625,1758.557 L215.625,1774.93 L217.1875,1781.989 L218.75,1786.55 L220.3125,1789.562 L221.875,1791.532 L223.4375,1794.106 L225,1743.209 L226.5625,1783.515 L228.125,1805.446 L229.6875,1813.227 L231.25,1816.822 L232.8125,1818.784 L234.375,1820.636 L235.9375,1822.264 L237.5,1748.378 L239.0625,1795.251 L240.625,1810.785 L242.1875,1817.89 L243.75,1821.738 L245.3125,1823.601 L246.875,1825.045 L248.4375,1825.815 L250,1759.644 L251.5625,1793.544 L253.125,1812.955 L254.6875,1820.272 L256.25,1824.752 L257.8125,1827.375 L259.375,1829.551 L260.9375,1830.805 L262.5,1751.315 L264.0625,1786.23 L265.625,1806.123 L267.1875,1810.495 L268.75,1812.242 L270.3125,1814.34 L271.875,1815.724 L273.4375,1817.432 L275,1762.986 L276.5625,1775.661 L278.125,1804.783 L279.6875,1813.18 L281.25,1816.79 L282.8125,1818.779 L284.375,1819.877 L285.9375,1820.258 L287.5,1745.292 L289.0625,1783.445 L290.625,1802.174 L292.1875,1811.244 L293.75,1816.727 L295.3125,1820.114 L296.875,1822.622 L298.4375,1824.673 L300,1729.002 L301.5625,1802.85 L303.125,1820.206 L304.6875,1824.587 L306.25,1826.313 L307.8125,1827.174 L309.375,1828.293 L310.9375,1829.091 L312.5,1679.438 L314.0625,1737.742 L315.625,1766.737 L317.1875,1782.108 L318.75,1792.071 L320.3125,1798.16 L321.875,1802.643 L323.4375,1805.51 L325,1640 L326.5625,1769.538 L328.125,1801.654 L329.6875,1818.706 L331.25,1825.438 L332.8125,1827.708 L334.375,1830.07 L335.9375,1831.387 L337.5,1806.979 L339.0625,1823.425 L340.625,1830.282 L342.1875,1833.503 L343.75,1835.029 L345.3125,1836.372 L346.875,1837.287 L348.4375,1838.018 L350,1784.961 L351.5625,1811.329 L353.125,1827.315 L354.6875,1829.755 L356.25,1831.318 L357.8125,1831.851 L359.375,1832.774 L360.9375,1833.473 L362.5,1784.056 L364.0625,1763.525 L365.625,1812.505 L367.1875,1829.719 L368.75,1834.237 L370.3125,1836.813 L371.875,1838.398 L373.4375,1839.185 L375,1745.029 L376.5625,1790.971 L378.125,1817.737 L379.6875,1825.671 L381.25,1829.351 L382.8125,1831.035 L384.375,1832.172 L385.9375,1833.105 L387.5,1778.112 L389.0625,1804.36 L390.625,1829.626 L392.1875,1835.657 L393.75,1837.794 L395.3125,1839.032 L396.875,1839.639 L398.4375,1840 L400,1704.581 L401.5625,1768.858 L403.125,1805.009 L404.6875,1817.756 L406.25,1825.523 L407.8125,1830.566 L409.375,1833.017 L410.9375,1834.518 L412.5,1729.446 L414.0625,1792.007 L415.625,1814.861 L417.1875,1825.868 L418.75,1829.398 L420.3125,1831.103 L421.875,1832.209 L423.4375,1832.749 L425,1782.946 L426.5625,1812.398 L428.125,1829.033 L429.6875,1833.308 L431.25,1835.451 L432.8125,1836.985 L434.375,1838.06 L435.9375,1838.764 L437.5,1728.205 L439.0625,1781.832 L440.625,1806.715 L442.1875,1814.834 L443.75,1819.14 L445.3125,1821.835 L446.875,1823.833 L448.4375,1825.01 " stroke="blue" fill="none" />
<text x="50" y="1890" font-family="Arial" font-size="12" fill="black">Learning Rate</text>
<text x="50" y="1905" font-family="Arial" font-size="10" fill="black">0.0003</text>
<text x="50" y="2120" font-family="Arial" font-size="10" fill="black">0.0003</text>
<path d="M50,2110 L51.5625,2110 L53.125,2110 L54.6875,2110 L56.25,2110 L57.8125,2110 L59.375,2110 L60.9375,2110 L62.5,2110 L64.0625,2110 L65.625,2110 L67.1875,2110 L68.75,2110 L70.3125,2110 L71.875,2110 L73.4375,2110 L75,2110 L76.5625,2110 L78.125,2110 L79.6875,2110 L81.25,2110 L82.8125,2110 L84.375,2110 L85.9375,2110 L87.5,2110 L89.0625,2110 L90.625,2110 L92.1875,2110 L93.75,2110 L95.3125,2110 L96.875,2110 L98.4375,2110 L100,2110 L101.5625,2110 L103.125,2110 L104.6875,2110 L106.25,2110 L107.8125,2110 L109.375,2110 L110.9375,2110 L112.5,2110 L114.0625,2110 L115.625,2110 L117.1875,2110 L118.75,2110 L120.3125,2110 L121.875,2110 L123.4375,2110 L125,2110 L126.5625,2110 L128.125,2110 L129.6875,2110 L131.25,2110 L132.8125,2110 L134.375,2110 L135.9375,2110 L137.5,2110 L139.0625,2110 L140.625,2110 L142.1875,2110 L143.75,2110 L145.3125,2110 L146.875,2110 L148.4375,2110 L150,2110 L151.5625,2110 L153.125,2110 L154.6875,2110 L156.25,2110 L157.8125,2110 L159.375,2110 L160.9375,2110 L162.5,2110 L164.0625,2110 L165.625,2110 L167.1875,2110 L168.75,2110 L170.3125,2110 L171.875,2110 L173.4375,2110 L175,2110 L176.5625,2110 L178.125,2110 L179.6875,2110 L181.25,2110 L182.8125,2110 L184.375,2110 L185.9375,2110 L187.5,2110 L189.0625,2110 L190.625,2110 L192.1875,2110 L193.75,2110 L195.3125,2110 L196.875,2110 L198.4375,2110 L200,2110 L201.5625,2110 L203.125,2110 L204.6875,2110 L206.25,2110 L207.8125,2110 L209.375,2110 L210.9375,2110 L212.5,2110 L214.0625,2110 L215.625,2110 L217.1875,2110 L218.75,2110 L220.3125,2110 L221.875,2110 L223.4375,2110 L225,2110 L226.5625,2110 L228.125,2110 L229.6875,2110 L231.25,2110 L232.8125,2110 L234.375,2110 L235.9375,2110 L237.5,2110 L239.0625,2110 L240.625,2110 L242.1875,2110 L243.75,2110 L245.3125,2110 L246.875,2110 L248.4375,2110 L250,2110 L251.5625,2110 L253.125,2110 L254.6875,2110 L256.25,2110 L257.8125,2110 L259.375,2110 L260.9375,2110 L262.5,2110 L264.0625,2110 L265.625,2110 L267.1875,2110 L268.75,2110 L270.3125,2110 L271.875,2110 L273.4375,2110 L275,2110 L276.5625,2110 L278.125,2110 L279.6875,2110 L281.25,2110 L282.8125,2110 L284.375,2110 L285.9375,2110 L287.5,2110 L289.0625,2110 L290.625,2110 L292.1875,2110 L293.75,2110 L295.3125,2110 L296.875,2110 L298.4375,2110 L300,2110 L301.5625,2110 L303.125,2110 L304.6875,2110 L306.25,2110 L307.8125,2110 L309.375,2110 L310.9375,2110 L312.5,2110 L314.0625,2110 L315.625,2110 L317.1875,2110 L318.75,2110 L320.3125,2110 L321.875,2110 L323.4375,2110 L325,2110 L326.5625,2110 L328.125,2110 L329.6875,2110 L331.25,2110 L332.8125,2110 L334.375,2110 L335.9375,2110 L337.5,2110 L339.0625,2110 L340.625,2110 L342.1875,2110 L343.75,2110 L345.3125,2110 L346.875,2110 L348.4375,2110 L350,2110 L351.5625,2110 L353.125,2110 L354.6875,2110 L356.25,2110 L357.8125,2110 L359.375,2110 L360.9375,2110 L362.5,2110 L364.0625,2110 L365.625,2110 L367.1875,2110 L368.75,2110 L370.3125,2110 L371.875,2110 L373.4375,2110 L375,2110 L376.5625,2110 L378.125,2110 L379.6875,2110 L381.25,2110 L382.8125,2110 L384.375,2110 L385.9375,2110 L387.5,2110 L389.0625,2110 L390.625,2110 L392.1875,2110 L393.75,2110 L395.3125,2110 L396.875,2110 L398.4375,2110 L400,2110 L401.5625,2110 L403.125,2110 L404.6875,2110 L406.25,2110 L407.8125,2110 L409.375,2110 L410.9375,2110 L412.5,2110 L414.0625,2110 L415.625,2110 L417.1875,2110 L418.75,2110 L420.3125,2110 L421.875,2110 L423.4375,2110 L425,2110 L426.5625,2110 L428.125,2110 L429.6875,2110 L431.25,2110 L432.8125,2110 L434.375,2110 L435.9375,2110 L437.5,2110 L439.0625,2110 L440.625,2110 L442.1875,2110 L443.75,2110 L445.3125,2110 L446.875,2110 L448.4375,2110 " stroke="blue" fill="none" />
<text x="50" y="2160" font-family="Arial" font-size="12" fill="black">Epsilon</text>
<text x="50" y="2175" font-family="Arial" font-size="10" fill="black">0.2</text>
<text x="50" y="2390" font-family="Arial" font-size="10" fill="black">0.2</text>
<path d="M50,2380 L51.5625,2380 L53.125,2380 L54.6875,2380 L56.25,2380 L57.8125,2380 L59.375,2380 L60.9375,2380 L62.5,2380 L64.0625,2380 L65.625,2380 L67.1875,2380 L68.75,2380 L70.3125,2380 L71.875,2380 L73.4375,2380 L75,2380 L76.5625,2380 L78.125,2380 L79.6875,2380 L81.25,2380 L82.8125,2380 L84.375,2380 L85.9375,2380 L87.5,2380 L89.0625,2380 L90.625,2380 L92.1875,2380 L93.75,2380 L95.3125,2380 L96.875,2380 L98.4375,2380 L100,2380 L101.5625,2380 L103.125,2380 L104.6875,2380 L106.25,2380 L107.8125,2380 L109.375,2380 L110.9375,2380 L112.5,2380 L114.0625,2380 L115.625,2380 L117.1875,2380 L118.75,2380 L120.3125,2380 L121.875,2380 L123.4375,2380 L125,2380 L126.5625,2380 L128.125,2380 L129.6875,2380 L131.25,2380 L132.8125,2380 L134.375,2380 L135.9375,2380 L137.5,2380 L139.0625,2380 L140.625,2380 L142.1875,2380 L143.75,2380 L145.3125,2380 L146.875,2380 L148.4375,2380 L150,2380 L151.5625,2380 L153.125,2380 L154.6875,2380 L156.25,2380 L157.8125,2380 L159.375,2380 L160.9375,2380 L162.5,2380 L164.0625,2380 L165.625,2380 L167.1875,2380 L168.75,2380 L170.3125,2380 L171.875,2380 L173.4375,2380 L175,2380 L176.5625,2380 L178.125,2380 L179.6875,2380 L181.25,2380 L182.8125,2380 L184.375,2380 L185.9375,2380 L187.5,2380 L189.0625,2380 L190.625,2380 L192.1875,2380 L193.75,2380 L195.3125,2380 L196.875,2380 L198.4375,2380 L200,2380 L201.5625,2380 L203.125,2380 L204.6875,2380 L206.25,2380 L207.8125,2380 L209.375,2380 L210.9375,2380 L212.5,2380 L214.0625,2380 L215.625,2380 L217.1875,2380 L218.75,2380 L220.3125,2380 L221.875,2380 L223.4375,2380 L225,2380 L226.5625,2380 L228.125,2380 L229.6875,2380 L231.25,2380 L232.8125,2380 L234.375,2380 L235.9375,2380 L237.5,2380 L239.0625,2380 L240.625,2380 L242.1875,2380 L243.75,2380 L245.3125,2380 L246.875,2380 L248.4375,2380 L250,2380 L251.5625,2380 L253.125,2380 L254.6875,2380 L256.25,2380 L257.8125,2380 L259.375,2380 L260.9375,2380 L262.5,2380 L264.0625,2380 L265.625,2380 L267.1875,2380 L268.75,2380 L270.3125,2380 L271.875,2380 L273.4375,2380 L275,2380 L276.5625,2380 L278.125,2380 L279.6875,2380 L281.25,2380 L282.8125,2380 L284.375,2380 L285.9375,2380 L287.5,2380 L289.0625,2380 L290.625,2380 L292.1875,2380 L293.75,2380 L295.3125,2380 L296.875,2380 L298.4375,2380 L300,2380 L301.5625,2380 L303.125,2380 L304.6875,2380 L306.25,2380 L307.8125,2380 L309.375,2380 L310.9375,2380 L312.5,2380 L314.0625,2380 L315.625,2380 L317.1875,2380 L318.75,2380 L320.3125,2380 L321.875,2380 L323.4375,2380 L325,2380 L326.5625,2380 L328.125,2380 L329.6875,2380 L331.25,2380 L332.8125,2380 L334.375,2380 L335.9375,2380 L337.5,2380 L339.0625,2380 L340.625,2380 L342.1875,2380 L343.75,2380 L345.3125,2380 L346.875,2380 L348.4375,2380 L350,2380 L351.5625,2380 L353.125,2380 L354.6875,2380 L356.25,2380 L357.8125,2380 L359.375,2380 L360.9375,2380 L362.5,2380 L364.0625,2380 L365.625,2380 L367.1875,2380 L368.75,2380 L370.3125,2380 L371.875,2380 L373.4375,2380 L375,2380 L376.5625,2380 L378.125,2380 L379.6875,2380 L381.25,2380 L382.8125,2380 L384.375,2380 L385.9375,2380 L387.5,2380 L389.0625,2380 L390.625,2380 L392.1875,2380 L393.75,2380 L395.3125,2380 L396.875,2380 L398.4375,2380 L400,2380 L401.5625,2380 L403.125,2380 L404.6875,2380 L406.25,2380 L407.8125,2380 L409.375,2380 L410.9375,2380 L412.5,2380 L414.0625,2380 L415.625,2380 L417.1875,2380 L418.75,2380 L420.3125,2380 L421.875,2380 L423.4375,2380 L425,2380 L426.5625,2380 L428.125,2380 L429.6875,2380 L431.25,2380 L432.8125,2380 L434.375,2380 L435.9375,2380 L437.5,2380 L439.0625,2380 L440.625,2380 L442.1875,2380 L443.75,2380 L445.3125,2380 L446.875,2380 L448.4375,2380 " stroke="blue" fill="none" />
</svg>
