<svg width="2000" height="2500" xmlns="http://www.w3.org/2000/svg">
<text x="10" y="20" font-family="Arial" font-size="26" fill="black"> [<tspan font-weight="bold" fill="blue">Climber</tspan>] Training Session</text>
<text x="10" y="50" font-family="Arial" font-size="16" fill="black">[Statistics]</text>
<text x="50" y="70" font-family="Arial" font-size="12" fill="black">Started at: 11:53:08 AM, Sunday, April 28, 2024</text>
<text x="50" y="90" font-family="Arial" font-size="12" fill="black">Finished at: 11:53:37 AM, Sunday, April 28, 2024</text>
<text x="50" y="110" font-family="Arial" font-size="12" fill="black">Training Session Time: 0 hrs : 0 min : 27 sec</text>
<text x="50" y="130" font-family="Arial" font-size="12" fill="black">Inference Time: 0 hrs : 19 min : 9 sec        [Device: CPU]</text>
<text x="50" y="150" font-family="Arial" font-size="12" fill="black">Update Time: 0 hrs : 0 min : 8 sec        [Per iteration: 0 hrs : 0 min : 7.702 sec]        [Device: GPU]</text>
<text x="50" y="170" font-family="Arial" font-size="12" fill="black">Episode Count: 1245</text>
<text x="50" y="190" font-family="Arial" font-size="12" fill="black">Inference Steps: 10240</text>
<text x="50" y="210" font-family="Arial" font-size="12" fill="black">Iterations: 1</text>
<text x="50" y="230" font-family="Arial" font-size="12" fill="black">Parallel Agents: 89</text>
<text x="50" y="250" font-family="Arial" font-size="12" fill="black">Timescale: 1</text>
<text x="50" y="270" font-family="Arial" font-size="12" fill="black">Trainer: PPO</text>
<text x="10" y="320" font-family="Arial" font-size="16" fill="black">[Hyperparameters]</text>
<text x="50" y="340" font-family="Arial" font-size="12" fill="black">Buffer Size: 10240        [Batch Size: 512       (x20)]</text>
<text x="50" y="360" font-family="Arial" font-size="12" fill="black">Num Epoch: 8</text>
<text x="50" y="380" font-family="Arial" font-size="12" fill="black">Time Horizon: 256</text>
<text x="50" y="400" font-family="Arial" font-size="12" fill="black">Gradient Cliping by Norm: 0.5</text>
<text x="50" y="420" font-family="Arial" font-size="12" fill="black">Learning Rate Schedule: False    </text>
<text x="10" y="470" font-family="Arial" font-size="16" fill="black">[Behaviour]</text>
<text x="50" y="490" font-family="Arial" font-size="12" fill="black">Space Size: 148</text>
<text x="50" y="510" font-family="Arial" font-size="12" fill="black">Continuous Actions: 38 [Standard Deviation: Fixed]     [Value: 2.5]</text>
<text x="50" y="530" font-family="Arial" font-size="12" fill="black">Discrete Actions: 0</text>
<text x="50" y="550" font-family="Arial" font-size="12" fill="black">TargetFPS: 100 (physics update rate)</text>
<text x="50" y="570" font-family="Arial" font-size="12" fill="black">Observations Normalization: True</text>
<text x="10" y="620" font-family="Arial" font-size="16" fill="black">[Decision Requester]</text>
<text x="50" y="640" font-family="Arial" font-size="12" fill="black">Max Step: 300</text>
<text x="50" y="660" font-family="Arial" font-size="12" fill="black">Decision Period: 10      [Actions Between Decisions: True]</text>
<text x="10" y="710" font-family="Arial" font-size="16" fill="black">[Graphs]</text>
<text x="50" y="730" font-family="Arial" font-size="12" fill="black">Episode Reward (1245)</text>
<text x="50" y="745" font-family="Arial" font-size="10" fill="black">-0.025</text>
<text x="50" y="960" font-family="Arial" font-size="10" fill="black">-0.25</text>
<path d="M50,750 L50.39063,816.6667 L50.78125,816.6667 L51.17188,838.8889 L51.5625,816.6667 L51.95313,794.4445 L52.34375,816.6667 L52.73438,816.6667 L53.125,750 L53.51563,816.6667 L53.90625,816.6667 L54.29688,794.4445 L54.6875,772.2222 L55.07813,794.4445 L55.46875,794.4445 L55.85938,750 L56.25,772.2222 L56.64063,861.1111 L57.03125,772.2222 L57.42188,816.6667 L57.8125,816.6667 L58.20313,816.6667 L58.59375,838.8889 L58.98438,816.6667 L59.375,750 L59.76563,794.4445 L60.15625,794.4445 L60.54688,750 L60.9375,838.8889 L61.32813,838.8889 L61.71875,816.6667 L62.10938,861.1111 L62.5,838.8889 L62.89063,816.6667 L63.28125,750 L63.67188,838.8889 L64.0625,750 L64.45313,838.8889 L64.84375,816.6667 L65.23438,838.8889 L65.625,838.8889 L66.01563,750 L66.40625,816.6667 L66.79688,816.6667 L67.1875,816.6667 L67.57813,750 L67.96875,838.8889 L68.35938,772.2222 L68.75,816.6667 L69.14063,772.2222 L69.53125,794.4445 L69.92188,794.4445 L70.3125,816.6667 L70.70313,772.2222 L71.09375,838.8889 L71.48438,838.8889 L71.875,750 L72.26563,816.6667 L72.65625,772.2222 L73.04688,816.6667 L73.4375,794.4445 L73.82813,772.2222 L74.21875,794.4445 L74.60938,816.6667 L75,794.4445 L75.39063,816.6667 L75.78125,816.6667 L76.17188,838.8889 L76.5625,794.4445 L76.95313,794.4445 L77.34375,772.2222 L77.73438,838.8889 L78.125,816.6667 L78.51563,816.6667 L78.90625,750 L79.29688,794.4445 L79.6875,750 L80.07813,794.4445 L80.46875,816.6667 L80.85938,816.6667 L81.25,838.8889 L81.64063,772.2222 L82.03125,794.4445 L82.42188,838.8889 L82.8125,750 L83.20313,950 L83.59375,927.7778 L83.98438,750 L84.375,927.7778 L84.76563,794.4445 L85.15625,750 L85.54688,816.6667 L85.9375,816.6667 L86.32813,794.4445 L86.71875,772.2222 L87.10938,838.8889 L87.5,816.6667 L87.89063,750 L88.28125,772.2222 L88.67188,816.6667 L89.0625,816.6667 L89.45313,750 L89.84375,794.4445 L90.23438,750 L90.625,838.8889 L91.01563,816.6667 L91.40625,772.2222 L91.79688,772.2222 L92.1875,794.4445 L92.57813,816.6667 L92.96875,794.4445 L93.35938,750 L93.75,838.8889 L94.14063,794.4445 L94.53125,816.6667 L94.92188,838.8889 L95.3125,794.4445 L95.70313,816.6667 L96.09375,816.6667 L96.48438,816.6667 L96.875,772.2222 L97.26563,816.6667 L97.65625,772.2222 L98.04688,861.1111 L98.4375,861.1111 L98.82813,838.8889 L99.21875,750 L99.60938,816.6667 L100,794.4445 L100.3906,794.4445 L100.7813,838.8889 L101.1719,816.6667 L101.5625,750 L101.9531,794.4445 L102.3438,838.8889 L102.7344,750 L103.125,816.6667 L103.5156,794.4445 L103.9063,816.6667 L104.2969,816.6667 L104.6875,816.6667 L105.0781,794.4445 L105.4688,838.8889 L105.8594,816.6667 L106.25,816.6667 L106.6406,838.8889 L107.0313,883.3333 L107.4219,816.6667 L107.8125,794.4445 L108.2031,750 L108.5938,772.2222 L108.9844,838.8889 L109.375,750 L109.7656,838.8889 L110.1563,816.6667 L110.5469,816.6667 L110.9375,772.2222 L111.3281,794.4445 L111.7188,794.4445 L112.1094,750 L112.5,750 L112.8906,794.4445 L113.2813,816.6667 L113.6719,816.6667 L114.0625,883.3333 L114.4531,927.7778 L114.8438,950 L115.2344,794.4445 L115.625,950 L116.0156,838.8889 L116.4063,950 L116.7969,750 L117.1875,950 L117.5781,772.2222 L117.9688,816.6667 L118.3594,950 L118.75,950 L119.1406,816.6667 L119.5313,950 L119.9219,772.2222 L120.3125,794.4445 L120.7031,816.6667 L121.0938,794.4445 L121.4844,838.8889 L121.875,816.6667 L122.2656,816.6667 L122.6563,838.8889 L123.0469,816.6667 L123.4375,838.8889 L123.8281,794.4445 L124.2188,794.4445 L124.6094,794.4445 L125,750 L125.3906,794.4445 L125.7813,794.4445 L126.1719,772.2222 L126.5625,838.8889 L126.9531,816.6667 L127.3438,750 L127.7344,772.2222 L128.125,816.6667 L128.5156,772.2222 L128.9063,794.4445 L129.2969,816.6667 L129.6875,772.2222 L130.0781,794.4445 L130.4688,816.6667 L130.8594,861.1111 L131.25,794.4445 L131.6406,861.1111 L132.0313,750 L132.4219,838.8889 L132.8125,838.8889 L133.2031,794.4445 L133.5938,816.6667 L133.9844,838.8889 L134.375,816.6667 L134.7656,816.6667 L135.1563,750 L135.5469,772.2222 L135.9375,816.6667 L136.3281,838.8889 L136.7188,838.8889 L137.1094,816.6667 L137.5,794.4445 L137.8906,772.2222 L138.2813,838.8889 L138.6719,794.4445 L139.0625,772.2222 L139.4531,816.6667 L139.8438,750 L140.2344,838.8889 L140.625,772.2222 L141.0156,772.2222 L141.4063,816.6667 L141.7969,816.6667 L142.1875,772.2222 L142.5781,794.4445 L142.9688,772.2222 L143.3594,905.5555 L143.75,861.1111 L144.1406,816.6667 L144.5313,794.4445 L144.9219,861.1111 L145.3125,772.2222 L145.7031,816.6667 L146.0938,794.4445 L146.4844,816.6667 L146.875,794.4445 L147.2656,794.4445 L147.6563,794.4445 L148.0469,794.4445 L148.4375,794.4445 L148.8281,816.6667 L149.2188,838.8889 L149.6094,750 L150,816.6667 L150.3906,772.2222 L150.7813,950 L151.1719,816.6667 L151.5625,861.1111 L151.9531,816.6667 L152.3438,750 L152.7344,794.4445 L153.125,794.4445 L153.5156,794.4445 L153.9063,772.2222 L154.2969,794.4445 L154.6875,794.4445 L155.0781,816.6667 L155.4688,794.4445 L155.8594,816.6667 L156.25,838.8889 L156.6406,838.8889 L157.0313,816.6667 L157.4219,816.6667 L157.8125,772.2222 L158.2031,794.4445 L158.5938,816.6667 L158.9844,794.4445 L159.375,750 L159.7656,838.8889 L160.1563,816.6667 L160.5469,794.4445 L160.9375,816.6667 L161.3281,838.8889 L161.7188,838.8889 L162.1094,794.4445 L162.5,750 L162.8906,816.6667 L163.2813,772.2222 L163.6719,838.8889 L164.0625,772.2222 L164.4531,794.4445 L164.8438,794.4445 L165.2344,816.6667 L165.625,794.4445 L166.0156,838.8889 L166.4063,772.2222 L166.7969,816.6667 L167.1875,794.4445 L167.5781,772.2222 L167.9688,838.8889 L168.3594,838.8889 L168.75,816.6667 L169.1406,772.2222 L169.5313,750 L169.9219,816.6667 L170.3125,883.3333 L170.7031,794.4445 L171.0938,838.8889 L171.4844,838.8889 L171.875,794.4445 L172.2656,794.4445 L172.6563,772.2222 L173.0469,838.8889 L173.4375,816.6667 L173.8281,838.8889 L174.2188,794.4445 L174.6094,816.6667 L175,816.6667 L175.3906,816.6667 L175.7813,816.6667 L176.1719,772.2222 L176.5625,838.8889 L176.9531,750 L177.3438,816.6667 L177.7344,794.4445 L178.125,838.8889 L178.5156,750 L178.9063,838.8889 L179.2969,794.4445 L179.6875,794.4445 L180.0781,816.6667 L180.4688,794.4445 L180.8594,750 L181.25,838.8889 L181.6406,927.7778 L182.0313,838.8889 L182.4219,794.4445 L182.8125,838.8889 L183.2031,816.6667 L183.5938,772.2222 L183.9844,772.2222 L184.375,838.8889 L184.7656,950 L185.1563,772.2222 L185.5469,794.4445 L185.9375,816.6667 L186.3281,838.8889 L186.7188,772.2222 L187.1094,794.4445 L187.5,950 L187.8906,905.5555 L188.2813,838.8889 L188.6719,838.8889 L189.0625,772.2222 L189.4531,772.2222 L189.8438,861.1111 L190.2344,816.6667 L190.625,838.8889 L191.0156,883.3333 L191.4063,838.8889 L191.7969,794.4445 L192.1875,838.8889 L192.5781,816.6667 L192.9688,816.6667 L193.3594,772.2222 L193.75,838.8889 L194.1406,816.6667 L194.5313,816.6667 L194.9219,794.4445 L195.3125,838.8889 L195.7031,750 L196.0938,816.6667 L196.4844,816.6667 L196.875,772.2222 L197.2656,816.6667 L197.6563,750 L198.0469,794.4445 L198.4375,772.2222 L198.8281,794.4445 L199.2188,772.2222 L199.6094,883.3333 L200,816.6667 L200.3906,816.6667 L200.7813,861.1111 L201.1719,816.6667 L201.5625,816.6667 L201.9531,838.8889 L202.3438,750 L202.7344,816.6667 L203.125,750 L203.5156,838.8889 L203.9063,772.2222 L204.2969,816.6667 L204.6875,772.2222 L205.0781,772.2222 L205.4688,794.4445 L205.8594,816.6667 L206.25,772.2222 L206.6406,772.2222 L207.0313,750 L207.4219,750 L207.8125,883.3333 L208.2031,816.6667 L208.5938,816.6667 L208.9844,772.2222 L209.375,794.4445 L209.7656,861.1111 L210.1563,772.2222 L210.5469,816.6667 L210.9375,816.6667 L211.3281,794.4445 L211.7188,816.6667 L212.1094,838.8889 L212.5,794.4445 L212.8906,816.6667 L213.2813,794.4445 L213.6719,838.8889 L214.0625,816.6667 L214.4531,794.4445 L214.8438,750 L215.2344,816.6667 L215.625,816.6667 L216.0156,772.2222 L216.4063,861.1111 L216.7969,950 L217.1875,816.6667 L217.5781,794.4445 L217.9688,838.8889 L218.3594,772.2222 L218.75,816.6667 L219.1406,794.4445 L219.5313,772.2222 L219.9219,816.6667 L220.3125,794.4445 L220.7031,772.2222 L221.0938,772.2222 L221.4844,950 L221.875,950 L222.2656,816.6667 L222.6563,927.7778 L223.0469,816.6667 L223.4375,794.4445 L223.8281,816.6667 L224.2188,794.4445 L224.6094,816.6667 L225,816.6667 L225.3906,772.2222 L225.7813,838.8889 L226.1719,816.6667 L226.5625,838.8889 L226.9531,816.6667 L227.3438,816.6667 L227.7344,794.4445 L228.125,883.3333 L228.5156,838.8889 L228.9063,816.6667 L229.2969,838.8889 L229.6875,772.2222 L230.0781,794.4445 L230.4688,816.6667 L230.8594,816.6667 L231.25,794.4445 L231.6406,772.2222 L232.0313,794.4445 L232.4219,794.4445 L232.8125,838.8889 L233.2031,772.2222 L233.5938,816.6667 L233.9844,816.6667 L234.375,838.8889 L234.7656,838.8889 L235.1563,816.6667 L235.5469,838.8889 L235.9375,794.4445 L236.3281,838.8889 L236.7188,861.1111 L237.1094,794.4445 L237.5,794.4445 L237.8906,861.1111 L238.2813,816.6667 L238.6719,794.4445 L239.0625,794.4445 L239.4531,816.6667 L239.8438,794.4445 L240.2344,816.6667 L240.625,838.8889 L241.0156,772.2222 L241.4063,750 L241.7969,772.2222 L242.1875,838.8889 L242.5781,838.8889 L242.9688,816.6667 L243.3594,883.3333 L243.75,816.6667 L244.1406,861.1111 L244.5313,794.4445 L244.9219,794.4445 L245.3125,794.4445 L245.7031,816.6667 L246.0938,838.8889 L246.4844,838.8889 L246.875,772.2222 L247.2656,816.6667 L247.6563,772.2222 L248.0469,861.1111 L248.4375,794.4445 L248.8281,772.2222 L249.2188,750 L249.6094,794.4445 L250,816.6667 L250.3906,816.6667 L250.7813,816.6667 L251.1719,816.6667 L251.5625,750 L251.9531,950 L252.3438,838.8889 L252.7344,794.4445 L253.125,794.4445 L253.5156,816.6667 L253.9063,861.1111 L254.2969,816.6667 L254.6875,794.4445 L255.0781,816.6667 L255.4688,838.8889 L255.8594,772.2222 L256.25,772.2222 L256.6406,927.7778 L257.0313,794.4445 L257.4219,950 L257.8125,816.6667 L258.2031,838.8889 L258.5938,816.6667 L258.9844,794.4445 L259.375,816.6667 L259.7656,794.4445 L260.1563,816.6667 L260.5469,794.4445 L260.9375,816.6667 L261.3281,794.4445 L261.7188,816.6667 L262.1094,838.8889 L262.5,816.6667 L262.8906,794.4445 L263.2813,750 L263.6719,838.8889 L264.0625,794.4445 L264.4531,838.8889 L264.8438,750 L265.2344,816.6667 L265.625,816.6667 L266.0156,838.8889 L266.4063,772.2222 L266.7969,816.6667 L267.1875,861.1111 L267.5781,772.2222 L267.9688,772.2222 L268.3594,794.4445 L268.75,772.2222 L269.1406,816.6667 L269.5313,772.2222 L269.9219,816.6667 L270.3125,838.8889 L270.7031,816.6667 L271.0938,838.8889 L271.4844,816.6667 L271.875,772.2222 L272.2656,816.6667 L272.6563,816.6667 L273.0469,772.2222 L273.4375,838.8889 L273.8281,794.4445 L274.2188,883.3333 L274.6094,794.4445 L275,816.6667 L275.3906,794.4445 L275.7813,772.2222 L276.1719,838.8889 L276.5625,794.4445 L276.9531,794.4445 L277.3438,838.8889 L277.7344,794.4445 L278.125,838.8889 L278.5156,794.4445 L278.9063,794.4445 L279.2969,838.8889 L279.6875,772.2222 L280.0781,816.6667 L280.4688,772.2222 L280.8594,838.8889 L281.25,816.6667 L281.6406,816.6667 L282.0313,794.4445 L282.4219,772.2222 L282.8125,838.8889 L283.2031,750 L283.5938,838.8889 L283.9844,816.6667 L284.375,816.6667 L284.7656,838.8889 L285.1563,794.4445 L285.5469,816.6667 L285.9375,794.4445 L286.3281,794.4445 L286.7188,816.6667 L287.1094,838.8889 L287.5,794.4445 L287.8906,861.1111 L288.2813,950 L288.6719,772.2222 L289.0625,794.4445 L289.4531,750 L289.8438,772.2222 L290.2344,838.8889 L290.625,750 L291.0156,816.6667 L291.4063,794.4445 L291.7969,838.8889 L292.1875,861.1111 L292.5781,816.6667 L292.9688,772.2222 L293.3594,838.8889 L293.75,772.2222 L294.1406,794.4445 L294.5313,772.2222 L294.9219,772.2222 L295.3125,883.3333 L295.7031,816.6667 L296.0938,816.6667 L296.4844,816.6667 L296.875,750 L297.2656,816.6667 L297.6563,816.6667 L298.0469,794.4445 L298.4375,838.8889 L298.8281,816.6667 L299.2188,816.6667 L299.6094,772.2222 L300,816.6667 L300.3906,750 L300.7813,794.4445 L301.1719,816.6667 L301.5625,772.2222 L301.9531,838.8889 L302.3438,794.4445 L302.7344,816.6667 L303.125,772.2222 L303.5156,816.6667 L303.9063,838.8889 L304.2969,816.6667 L304.6875,838.8889 L305.0781,772.2222 L305.4688,816.6667 L305.8594,838.8889 L306.25,816.6667 L306.6407,772.2222 L307.0313,794.4445 L307.4219,772.2222 L307.8125,883.3333 L308.2031,794.4445 L308.5938,750 L308.9844,816.6667 L309.375,816.6667 L309.7656,794.4445 L310.1563,772.2222 L310.5469,772.2222 L310.9375,816.6667 L311.3281,816.6667 L311.7188,838.8889 L312.1094,838.8889 L312.5,816.6667 L312.8906,816.6667 L313.2813,861.1111 L313.6719,861.1111 L314.0625,794.4445 L314.4532,794.4445 L314.8438,794.4445 L315.2344,838.8889 L315.625,794.4445 L316.0156,816.6667 L316.4063,772.2222 L316.7969,861.1111 L317.1875,772.2222 L317.5781,816.6667 L317.9688,794.4445 L318.3594,794.4445 L318.75,838.8889 L319.1406,772.2222 L319.5313,772.2222 L319.9219,838.8889 L320.3125,950 L320.7031,772.2222 L321.0938,838.8889 L321.4844,838.8889 L321.875,816.6667 L322.2657,794.4445 L322.6563,750 L323.0469,816.6667 L323.4375,794.4445 L323.8281,750 L324.2188,927.7778 L324.6094,750 L325,816.6667 L325.3906,816.6667 L325.7813,794.4445 L326.1719,816.6667 L326.5625,794.4445 L326.9531,816.6667 L327.3438,794.4445 L327.7344,883.3333 L328.125,816.6667 L328.5156,838.8889 L328.9063,816.6667 L329.2969,772.2222 L329.6875,772.2222 L330.0782,838.8889 L330.4688,794.4445 L330.8594,772.2222 L331.25,794.4445 L331.6406,750 L332.0313,794.4445 L332.4219,816.6667 L332.8125,794.4445 L333.2031,816.6667 L333.5938,772.2222 L333.9844,750 L334.375,794.4445 L334.7656,838.8889 L335.1563,838.8889 L335.5469,750 L335.9375,838.8889 L336.3281,838.8889 L336.7188,750 L337.1094,794.4445 L337.5,772.2222 L337.8907,794.4445 L338.2813,750 L338.6719,772.2222 L339.0625,816.6667 L339.4531,816.6667 L339.8438,794.4445 L340.2344,794.4445 L340.625,838.8889 L341.0156,772.2222 L341.4063,794.4445 L341.7969,794.4445 L342.1875,838.8889 L342.5781,750 L342.9688,794.4445 L343.3594,794.4445 L343.75,772.2222 L344.1406,883.3333 L344.5313,838.8889 L344.9219,794.4445 L345.3125,816.6667 L345.7032,772.2222 L346.0938,861.1111 L346.4844,861.1111 L346.875,816.6667 L347.2656,772.2222 L347.6563,905.5555 L348.0469,816.6667 L348.4375,838.8889 L348.8281,794.4445 L349.2188,838.8889 L349.6094,816.6667 L350,794.4445 L350.3906,750 L350.7813,794.4445 L351.1719,838.8889 L351.5625,816.6667 L351.9531,816.6667 L352.3438,816.6667 L352.7344,816.6667 L353.125,794.4445 L353.5157,861.1111 L353.9063,816.6667 L354.2969,816.6667 L354.6875,838.8889 L355.0781,950 L355.4688,838.8889 L355.8594,794.4445 L356.25,838.8889 L356.6406,816.6667 L357.0313,838.8889 L357.4219,927.7778 L357.8125,794.4445 L358.2031,838.8889 L358.5938,816.6667 L358.9844,816.6667 L359.375,950 L359.7656,772.2222 L360.1563,772.2222 L360.5469,750 L360.9375,772.2222 L361.3282,794.4445 L361.7188,950 L362.1094,772.2222 L362.5,816.6667 L362.8906,750 L363.2813,838.8889 L363.6719,816.6667 L364.0625,794.4445 L364.4531,838.8889 L364.8438,772.2222 L365.2344,750 L365.625,794.4445 L366.0156,816.6667 L366.4063,794.4445 L366.7969,838.8889 L367.1875,838.8889 L367.5781,794.4445 L367.9688,816.6667 L368.3594,838.8889 L368.75,816.6667 L369.1407,772.2222 L369.5313,750 L369.9219,772.2222 L370.3125,816.6667 L370.7031,816.6667 L371.0938,794.4445 L371.4844,816.6667 L371.875,794.4445 L372.2656,750 L372.6563,816.6667 L373.0469,794.4445 L373.4375,794.4445 L373.8281,772.2222 L374.2188,794.4445 L374.6094,861.1111 L375,861.1111 L375.3906,794.4445 L375.7813,883.3333 L376.1719,816.6667 L376.5625,816.6667 L376.9532,816.6667 L377.3438,816.6667 L377.7344,838.8889 L378.125,794.4445 L378.5156,816.6667 L378.9063,794.4445 L379.2969,816.6667 L379.6875,794.4445 L380.0781,794.4445 L380.4688,816.6667 L380.8594,838.8889 L381.25,816.6667 L381.6406,861.1111 L382.0313,750 L382.4219,794.4445 L382.8125,794.4445 L383.2031,838.8889 L383.5938,794.4445 L383.9844,816.6667 L384.375,794.4445 L384.7657,772.2222 L385.1563,838.8889 L385.5469,794.4445 L385.9375,838.8889 L386.3281,861.1111 L386.7188,794.4445 L387.1094,816.6667 L387.5,950 L387.8906,794.4445 L388.2813,838.8889 L388.6719,950 L389.0625,794.4445 L389.4531,750 L389.8438,838.8889 L390.2344,794.4445 L390.625,838.8889 L391.0156,816.6667 L391.4063,816.6667 L391.7969,816.6667 L392.1875,816.6667 L392.5782,794.4445 L392.9688,794.4445 L393.3594,950 L393.75,838.8889 L394.1406,816.6667 L394.5313,750 L394.9219,750 L395.3125,927.7778 L395.7031,794.4445 L396.0938,838.8889 L396.4844,816.6667 L396.875,861.1111 L397.2656,772.2222 L397.6563,794.4445 L398.0469,838.8889 L398.4375,794.4445 L398.8281,794.4445 L399.2188,861.1111 L399.6094,838.8889 L400,794.4445 L400.3907,838.8889 L400.7813,816.6667 L401.1719,794.4445 L401.5625,794.4445 L401.9531,816.6667 L402.3438,794.4445 L402.7344,772.2222 L403.125,838.8889 L403.5156,772.2222 L403.9063,838.8889 L404.2969,816.6667 L404.6875,772.2222 L405.0781,838.8889 L405.4688,816.6667 L405.8594,772.2222 L406.25,772.2222 L406.6406,816.6667 L407.0313,816.6667 L407.4219,838.8889 L407.8125,838.8889 L408.2032,794.4445 L408.5938,861.1111 L408.9844,772.2222 L409.375,816.6667 L409.7656,772.2222 L410.1563,794.4445 L410.5469,838.8889 L410.9375,772.2222 L411.3281,772.2222 L411.7188,816.6667 L412.1094,816.6667 L412.5,816.6667 L412.8906,861.1111 L413.2813,794.4445 L413.6719,794.4445 L414.0625,816.6667 L414.4531,816.6667 L414.8438,838.8889 L415.2344,794.4445 L415.625,861.1111 L416.0157,816.6667 L416.4063,794.4445 L416.7969,838.8889 L417.1875,816.6667 L417.5781,816.6667 L417.9688,772.2222 L418.3594,816.6667 L418.75,838.8889 L419.1406,794.4445 L419.5313,838.8889 L419.9219,772.2222 L420.3125,816.6667 L420.7031,772.2222 L421.0938,816.6667 L421.4844,950 L421.875,772.2222 L422.2656,927.7778 L422.6563,794.4445 L423.0469,750 L423.4375,794.4445 L423.8282,816.6667 L424.2188,816.6667 L424.6094,816.6667 L425,816.6667 L425.3906,772.2222 L425.7813,794.4445 L426.1719,838.8889 L426.5625,750 L426.9531,772.2222 L427.3438,816.6667 L427.7344,816.6667 L428.125,927.7778 L428.5156,816.6667 L428.9063,794.4445 L429.2969,816.6667 L429.6875,950 L430.0781,794.4445 L430.4688,772.2222 L430.8594,905.5555 L431.25,950 L431.6407,816.6667 L432.0313,794.4445 L432.4219,861.1111 L432.8125,816.6667 L433.2031,794.4445 L433.5938,772.2222 L433.9844,816.6667 L434.375,838.8889 L434.7656,794.4445 L435.1563,838.8889 L435.5469,816.6667 L435.9375,750 L436.3281,816.6667 L436.7188,816.6667 L437.1094,838.8889 L437.5,816.6667 L437.8906,772.2222 L438.2813,794.4445 L438.6719,772.2222 L439.0625,816.6667 L439.4532,816.6667 L439.8438,816.6667 L440.2344,794.4445 L440.625,772.2222 L441.0156,794.4445 L441.4063,750 L441.7969,750 L442.1875,750 L442.5781,861.1111 L442.9688,816.6667 L443.3594,816.6667 L443.75,794.4445 L444.1406,838.8889 L444.5313,816.6667 L444.9219,883.3333 L445.3125,816.6667 L445.7031,772.2222 L446.0938,772.2222 L446.4844,816.6667 L446.875,838.8889 L447.2657,816.6667 L447.6563,772.2222 L448.0469,838.8889 L448.4375,772.2222 L448.8281,772.2222 L449.2188,816.6667 L449.6094,816.6667 L450,794.4445 L450.3906,794.4445 L450.7813,950 L451.1719,838.8889 L451.5625,816.6667 L451.9531,816.6667 L452.3438,816.6667 L452.7344,772.2222 L453.125,750 L453.5156,794.4445 L453.9063,838.8889 L454.2969,772.2222 L454.6875,861.1111 L455.0782,794.4445 L455.4688,816.6667 L455.8594,750 L456.25,772.2222 L456.6406,794.4445 L457.0313,794.4445 L457.4219,794.4445 L457.8125,772.2222 L458.2031,816.6667 L458.5938,794.4445 L458.9844,772.2222 L459.375,838.8889 L459.7656,816.6667 L460.1563,750 L460.5469,794.4445 L460.9375,794.4445 L461.3281,794.4445 L461.7188,772.2222 L462.1094,794.4445 L462.5,794.4445 L462.8907,794.4445 L463.2813,950 L463.6719,750 L464.0625,772.2222 L464.4531,772.2222 L464.8438,816.6667 L465.2344,750 L465.625,816.6667 L466.0156,816.6667 L466.4063,794.4445 L466.7969,794.4445 L467.1875,883.3333 L467.5781,838.8889 L467.9688,816.6667 L468.3594,794.4445 L468.75,794.4445 L469.1406,816.6667 L469.5313,750 L469.9219,794.4445 L470.3125,883.3333 L470.7032,794.4445 L471.0938,838.8889 L471.4844,816.6667 L471.875,816.6667 L472.2656,838.8889 L472.6563,816.6667 L473.0469,772.2222 L473.4375,794.4445 L473.8281,816.6667 L474.2188,816.6667 L474.6094,772.2222 L475,816.6667 L475.3906,816.6667 L475.7813,816.6667 L476.1719,838.8889 L476.5625,794.4445 L476.9531,861.1111 L477.3438,816.6667 L477.7344,838.8889 L478.125,838.8889 L478.5157,838.8889 L478.9063,794.4445 L479.2969,794.4445 L479.6875,838.8889 L480.0781,816.6667 L480.4688,838.8889 L480.8594,838.8889 L481.25,816.6667 L481.6406,816.6667 L482.0313,816.6667 L482.4219,816.6667 L482.8125,838.8889 L483.2031,794.4445 L483.5938,816.6667 L483.9844,838.8889 L484.375,816.6667 L484.7656,772.2222 L485.1563,816.6667 L485.5469,816.6667 L485.9375,794.4445 L486.3282,794.4445 L486.7188,816.6667 L487.1094,816.6667 L487.5,838.8889 L487.8906,794.4445 L488.2813,838.8889 L488.6719,838.8889 L489.0625,794.4445 L489.4531,772.2222 L489.8438,816.6667 L490.2344,772.2222 L490.625,816.6667 L491.0156,794.4445 L491.4063,772.2222 L491.7969,794.4445 L492.1875,838.8889 L492.5781,794.4445 L492.9688,750 L493.3594,816.6667 L493.75,794.4445 L494.1407,838.8889 L494.5313,772.2222 L494.9219,794.4445 L495.3125,950 L495.7031,816.6667 L496.0938,794.4445 L496.4844,950 L496.875,794.4445 L497.2656,794.4445 L497.6563,838.8889 L498.0469,794.4445 L498.4375,772.2222 L498.8281,794.4445 L499.2188,794.4445 L499.6094,861.1111 L500,772.2222 L500.3906,927.7778 L500.7813,772.2222 L501.1719,927.7778 L501.5625,838.8889 L501.9532,794.4445 L502.3438,838.8889 L502.7344,772.2222 L503.125,838.8889 L503.5156,816.6667 L503.9063,816.6667 L504.2969,861.1111 L504.6875,794.4445 L505.0781,772.2222 L505.4688,794.4445 L505.8594,816.6667 L506.25,772.2222 L506.6406,772.2222 L507.0313,816.6667 L507.4219,794.4445 L507.8125,772.2222 L508.2031,838.8889 L508.5938,861.1111 L508.9844,816.6667 L509.375,794.4445 L509.7657,772.2222 L510.1563,838.8889 L510.5469,816.6667 L510.9375,838.8889 L511.3281,816.6667 L511.7188,816.6667 L512.1094,838.8889 L512.5,816.6667 L512.8906,861.1111 L513.2813,750 L513.6719,750 L514.0625,772.2222 L514.4531,772.2222 L514.8438,794.4445 L515.2344,794.4445 L515.625,816.6667 L516.0156,816.6667 L516.4063,816.6667 L516.7969,794.4445 L517.1875,838.8889 L517.5781,838.8889 L517.9688,816.6667 L518.3594,816.6667 L518.75,838.8889 L519.1406,816.6667 L519.5313,816.6667 L519.9219,794.4445 L520.3125,816.6667 L520.7031,772.2222 L521.0938,750 L521.4844,794.4445 L521.875,750 L522.2656,838.8889 L522.6563,816.6667 L523.0469,816.6667 L523.4375,927.7778 L523.8281,772.2222 L524.2188,794.4445 L524.6094,794.4445 L525,950 L525.3906,772.2222 L525.7813,794.4445 L526.1719,816.6667 L526.5625,816.6667 L526.9531,794.4445 L527.3438,838.8889 L527.7344,950 L528.125,794.4445 L528.5156,816.6667 L528.9063,772.2222 L529.2969,794.4445 L529.6875,838.8889 L530.0781,838.8889 L530.4688,794.4445 L530.8594,772.2222 L531.25,772.2222 L531.6406,772.2222 L532.0313,772.2222 L532.4219,816.6667 L532.8125,816.6667 L533.2031,861.1111 L533.5938,950 L533.9844,816.6667 L534.375,927.7778 L534.7656,838.8889 L535.1563,772.2222 L535.5469,772.2222 L535.9375,772.2222 " stroke="blue" fill="none" />
<text x="50" y="1000" font-family="Arial" font-size="12" fill="black">Episode Length (1245)</text>
<text x="50" y="1015" font-family="Arial" font-size="10" fill="black">27</text>
<text x="50" y="1230" font-family="Arial" font-size="10" fill="black">2</text>
<path d="M50,1188 L50.39063,1172 L50.78125,1172 L51.17188,1172 L51.5625,1172 L51.95313,1172 L52.34375,1172 L52.73438,1172 L53.125,1172 L53.51563,1172 L53.90625,1172 L54.29688,1172 L54.6875,1172 L55.07813,1172 L55.46875,1172 L55.85938,1172 L56.25,1172 L56.64063,1172 L57.03125,1172 L57.42188,1172 L57.8125,1172 L58.20313,1172 L58.59375,1172 L58.98438,1172 L59.375,1172 L59.76563,1172 L60.15625,1172 L60.54688,1172 L60.9375,1172 L61.32813,1172 L61.71875,1172 L62.10938,1172 L62.5,1172 L62.89063,1172 L63.28125,1172 L63.67188,1172 L64.0625,1172 L64.45313,1172 L64.84375,1172 L65.23438,1172 L65.625,1172 L66.01563,1172 L66.40625,1172 L66.79688,1172 L67.1875,1172 L67.57813,1172 L67.96875,1172 L68.35938,1172 L68.75,1172 L69.14063,1172 L69.53125,1172 L69.92188,1172 L70.3125,1172 L70.70313,1172 L71.09375,1172 L71.48438,1172 L71.875,1172 L72.26563,1172 L72.65625,1172 L73.04688,1172 L73.4375,1172 L73.82813,1172 L74.21875,1172 L74.60938,1172 L75,1172 L75.39063,1172 L75.78125,1172 L76.17188,1172 L76.5625,1172 L76.95313,1172 L77.34375,1172 L77.73438,1172 L78.125,1172 L78.51563,1172 L78.90625,1172 L79.29688,1172 L79.6875,1172 L80.07813,1172 L80.46875,1172 L80.85938,1172 L81.25,1172 L81.64063,1172 L82.03125,1172 L82.42188,1172 L82.8125,1172 L83.20313,1164 L83.59375,1164 L83.98438,1164 L84.375,1164 L84.76563,1164 L85.15625,1180 L85.54688,1164 L85.9375,1164 L86.32813,1164 L86.71875,1164 L87.10938,1164 L87.5,1164 L87.89063,1164 L88.28125,1164 L88.67188,1164 L89.0625,1164 L89.45313,1164 L89.84375,1164 L90.23438,1164 L90.625,1164 L91.01563,1164 L91.40625,1164 L91.79688,1164 L92.1875,1164 L92.57813,1164 L92.96875,1164 L93.35938,1164 L93.75,1164 L94.14063,1164 L94.53125,1164 L94.92188,1164 L95.3125,1164 L95.70313,1164 L96.09375,1164 L96.48438,1164 L96.875,1164 L97.26563,1164 L97.65625,1164 L98.04688,1164 L98.4375,1164 L98.82813,1164 L99.21875,1164 L99.60938,1164 L100,1164 L100.3906,1164 L100.7813,1164 L101.1719,1164 L101.5625,1164 L101.9531,1164 L102.3438,1164 L102.7344,1164 L103.125,1164 L103.5156,1164 L103.9063,1164 L104.2969,1164 L104.6875,1164 L105.0781,1164 L105.4688,1164 L105.8594,1164 L106.25,1164 L106.6406,1164 L107.0313,1164 L107.4219,1164 L107.8125,1164 L108.2031,1164 L108.5938,1164 L108.9844,1164 L109.375,1164 L109.7656,1164 L110.1563,1164 L110.5469,1164 L110.9375,1164 L111.3281,1164 L111.7188,1164 L112.1094,1164 L112.5,1164 L112.8906,1164 L113.2813,1164 L113.6719,1164 L114.0625,1156 L114.4531,1156 L114.8438,1156 L115.2344,1164 L115.625,1156 L116.0156,1164 L116.4063,1156 L116.7969,1164 L117.1875,1156 L117.5781,1156 L117.9688,1164 L118.3594,1156 L118.75,1156 L119.1406,1164 L119.5313,1156 L119.9219,1164 L120.3125,1164 L120.7031,1164 L121.0938,1164 L121.4844,1164 L121.875,1164 L122.2656,1164 L122.6563,1164 L123.0469,1164 L123.4375,1164 L123.8281,1164 L124.2188,1164 L124.6094,1164 L125,1164 L125.3906,1164 L125.7813,1164 L126.1719,1164 L126.5625,1164 L126.9531,1164 L127.3438,1164 L127.7344,1164 L128.125,1164 L128.5156,1164 L128.9063,1164 L129.2969,1164 L129.6875,1164 L130.0781,1164 L130.4688,1164 L130.8594,1164 L131.25,1164 L131.6406,1164 L132.0313,1164 L132.4219,1164 L132.8125,1164 L133.2031,1164 L133.5938,1164 L133.9844,1164 L134.375,1164 L134.7656,1164 L135.1563,1164 L135.5469,1164 L135.9375,1164 L136.3281,1164 L136.7188,1164 L137.1094,1164 L137.5,1164 L137.8906,1164 L138.2813,1164 L138.6719,1164 L139.0625,1164 L139.4531,1164 L139.8438,1164 L140.2344,1164 L140.625,1164 L141.0156,1164 L141.4063,1164 L141.7969,1164 L142.1875,1164 L142.5781,1164 L142.9688,1164 L143.3594,1164 L143.75,1164 L144.1406,1164 L144.5313,1164 L144.9219,1164 L145.3125,1164 L145.7031,1164 L146.0938,1164 L146.4844,1164 L146.875,1164 L147.2656,1164 L147.6563,1164 L148.0469,1164 L148.4375,1164 L148.8281,1164 L149.2188,1164 L149.6094,1164 L150,1164 L150.3906,1164 L150.7813,1156 L151.1719,1164 L151.5625,1156 L151.9531,1164 L152.3438,1164 L152.7344,1164 L153.125,1164 L153.5156,1164 L153.9063,1172 L154.2969,1164 L154.6875,1164 L155.0781,1164 L155.4688,1164 L155.8594,1164 L156.25,1164 L156.6406,1164 L157.0313,1164 L157.4219,1164 L157.8125,1164 L158.2031,1164 L158.5938,1164 L158.9844,1164 L159.375,1164 L159.7656,1164 L160.1563,1164 L160.5469,1164 L160.9375,1164 L161.3281,1164 L161.7188,1164 L162.1094,1164 L162.5,1164 L162.8906,1164 L163.2813,1164 L163.6719,1164 L164.0625,1164 L164.4531,1164 L164.8438,1164 L165.2344,1164 L165.625,1164 L166.0156,1164 L166.4063,1164 L166.7969,1164 L167.1875,1164 L167.5781,1164 L167.9688,1164 L168.3594,1164 L168.75,1164 L169.1406,1164 L169.5313,1164 L169.9219,1164 L170.3125,1164 L170.7031,1164 L171.0938,1164 L171.4844,1164 L171.875,1164 L172.2656,1164 L172.6563,1164 L173.0469,1164 L173.4375,1164 L173.8281,1164 L174.2188,1164 L174.6094,1164 L175,1164 L175.3906,1164 L175.7813,1164 L176.1719,1164 L176.5625,1164 L176.9531,1164 L177.3438,1164 L177.7344,1164 L178.125,1164 L178.5156,1164 L178.9063,1164 L179.2969,1164 L179.6875,1164 L180.0781,1164 L180.4688,1164 L180.8594,1164 L181.25,1164 L181.6406,1020 L182.0313,1164 L182.4219,1164 L182.8125,1164 L183.2031,1164 L183.5938,1164 L183.9844,1164 L184.375,1164 L184.7656,1156 L185.1563,1164 L185.5469,1164 L185.9375,1164 L186.3281,1164 L186.7188,1164 L187.1094,1164 L187.5,1156 L187.8906,1156 L188.2813,1164 L188.6719,1164 L189.0625,1164 L189.4531,1164 L189.8438,1164 L190.2344,1164 L190.625,1164 L191.0156,1164 L191.4063,1164 L191.7969,1164 L192.1875,1164 L192.5781,1164 L192.9688,1164 L193.3594,1164 L193.75,1164 L194.1406,1164 L194.5313,1164 L194.9219,1164 L195.3125,1164 L195.7031,1164 L196.0938,1164 L196.4844,1164 L196.875,1164 L197.2656,1164 L197.6563,1164 L198.0469,1164 L198.4375,1164 L198.8281,1164 L199.2188,1164 L199.6094,1164 L200,1164 L200.3906,1164 L200.7813,1164 L201.1719,1164 L201.5625,1164 L201.9531,1164 L202.3438,1164 L202.7344,1164 L203.125,1164 L203.5156,1164 L203.9063,1164 L204.2969,1164 L204.6875,1164 L205.0781,1164 L205.4688,1164 L205.8594,1164 L206.25,1164 L206.6406,1164 L207.0313,1164 L207.4219,1164 L207.8125,1164 L208.2031,1164 L208.5938,1164 L208.9844,1164 L209.375,1164 L209.7656,1164 L210.1563,1164 L210.5469,1164 L210.9375,1164 L211.3281,1164 L211.7188,1164 L212.1094,1164 L212.5,1164 L212.8906,1164 L213.2813,1164 L213.6719,1164 L214.0625,1164 L214.4531,1164 L214.8438,1164 L215.2344,1164 L215.625,1164 L216.0156,1164 L216.4063,1164 L216.7969,1156 L217.1875,1164 L217.5781,1164 L217.9688,1164 L218.3594,1164 L218.75,1164 L219.1406,1164 L219.5313,1164 L219.9219,1164 L220.3125,1164 L220.7031,1164 L221.0938,1164 L221.4844,1156 L221.875,1156 L222.2656,1164 L222.6563,1156 L223.0469,1164 L223.4375,1164 L223.8281,1164 L224.2188,1164 L224.6094,1164 L225,1164 L225.3906,1164 L225.7813,1164 L226.1719,1164 L226.5625,1164 L226.9531,1164 L227.3438,1164 L227.7344,1164 L228.125,1164 L228.5156,1164 L228.9063,1164 L229.2969,1164 L229.6875,1164 L230.0781,1164 L230.4688,1164 L230.8594,1164 L231.25,1164 L231.6406,1164 L232.0313,1164 L232.4219,1164 L232.8125,1164 L233.2031,1164 L233.5938,1164 L233.9844,1164 L234.375,1164 L234.7656,1164 L235.1563,1164 L235.5469,1164 L235.9375,1164 L236.3281,1164 L236.7188,1164 L237.1094,1164 L237.5,1164 L237.8906,1164 L238.2813,1164 L238.6719,1164 L239.0625,1164 L239.4531,1164 L239.8438,1164 L240.2344,1164 L240.625,1164 L241.0156,1164 L241.4063,1164 L241.7969,1164 L242.1875,1164 L242.5781,1164 L242.9688,1164 L243.3594,1164 L243.75,1164 L244.1406,1164 L244.5313,1164 L244.9219,1164 L245.3125,1164 L245.7031,1164 L246.0938,1164 L246.4844,1164 L246.875,1164 L247.2656,1164 L247.6563,1164 L248.0469,1164 L248.4375,1164 L248.8281,1164 L249.2188,1164 L249.6094,1164 L250,1164 L250.3906,1164 L250.7813,1164 L251.1719,1164 L251.5625,1164 L251.9531,1156 L252.3438,1164 L252.7344,1164 L253.125,1164 L253.5156,1164 L253.9063,1164 L254.2969,1164 L254.6875,1164 L255.0781,1164 L255.4688,1164 L255.8594,1164 L256.25,1164 L256.6406,1156 L257.0313,1164 L257.4219,1156 L257.8125,1164 L258.2031,1164 L258.5938,1164 L258.9844,1172 L259.375,1164 L259.7656,1164 L260.1563,1164 L260.5469,1164 L260.9375,1164 L261.3281,1164 L261.7188,1164 L262.1094,1164 L262.5,1164 L262.8906,1164 L263.2813,1164 L263.6719,1164 L264.0625,1164 L264.4531,1164 L264.8438,1164 L265.2344,1164 L265.625,1164 L266.0156,1164 L266.4063,1164 L266.7969,1164 L267.1875,1164 L267.5781,1164 L267.9688,1164 L268.3594,1164 L268.75,1164 L269.1406,1164 L269.5313,1164 L269.9219,1164 L270.3125,1164 L270.7031,1164 L271.0938,1164 L271.4844,1164 L271.875,1164 L272.2656,1164 L272.6563,1164 L273.0469,1164 L273.4375,1164 L273.8281,1164 L274.2188,1164 L274.6094,1164 L275,1164 L275.3906,1164 L275.7813,1164 L276.1719,1164 L276.5625,1164 L276.9531,1164 L277.3438,1164 L277.7344,1164 L278.125,1164 L278.5156,1164 L278.9063,1164 L279.2969,1164 L279.6875,1164 L280.0781,1164 L280.4688,1164 L280.8594,1164 L281.25,1164 L281.6406,1164 L282.0313,1164 L282.4219,1164 L282.8125,1164 L283.2031,1164 L283.5938,1164 L283.9844,1164 L284.375,1164 L284.7656,1164 L285.1563,1164 L285.5469,1164 L285.9375,1164 L286.3281,1164 L286.7188,1164 L287.1094,1164 L287.5,1164 L287.8906,1164 L288.2813,1156 L288.6719,1164 L289.0625,1164 L289.4531,1164 L289.8438,1164 L290.2344,1164 L290.625,1164 L291.0156,1164 L291.4063,1164 L291.7969,1164 L292.1875,1164 L292.5781,1164 L292.9688,1164 L293.3594,1164 L293.75,1172 L294.1406,1164 L294.5313,1164 L294.9219,1164 L295.3125,1164 L295.7031,1164 L296.0938,1164 L296.4844,1164 L296.875,1164 L297.2656,1164 L297.6563,1164 L298.0469,1164 L298.4375,1164 L298.8281,1164 L299.2188,1164 L299.6094,1164 L300,1164 L300.3906,1164 L300.7813,1164 L301.1719,1164 L301.5625,1164 L301.9531,1164 L302.3438,1164 L302.7344,1164 L303.125,1164 L303.5156,1164 L303.9063,1164 L304.2969,1164 L304.6875,1164 L305.0781,1164 L305.4688,1164 L305.8594,1164 L306.25,1164 L306.6407,1164 L307.0313,1164 L307.4219,1164 L307.8125,1164 L308.2031,1164 L308.5938,1164 L308.9844,1164 L309.375,1164 L309.7656,1164 L310.1563,1164 L310.5469,1164 L310.9375,1164 L311.3281,1164 L311.7188,1164 L312.1094,1164 L312.5,1164 L312.8906,1164 L313.2813,1164 L313.6719,1164 L314.0625,1164 L314.4532,1164 L314.8438,1164 L315.2344,1164 L315.625,1164 L316.0156,1164 L316.4063,1164 L316.7969,1164 L317.1875,1164 L317.5781,1164 L317.9688,1164 L318.3594,1164 L318.75,1164 L319.1406,1164 L319.5313,1164 L319.9219,1164 L320.3125,1156 L320.7031,1164 L321.0938,1164 L321.4844,1164 L321.875,1164 L322.2657,1164 L322.6563,1164 L323.0469,1164 L323.4375,1164 L323.8281,1164 L324.2188,1156 L324.6094,1220 L325,1164 L325.3906,1164 L325.7813,1164 L326.1719,1164 L326.5625,1164 L326.9531,1164 L327.3438,1164 L327.7344,1204 L328.125,1180 L328.5156,1164 L328.9063,1164 L329.2969,1164 L329.6875,1164 L330.0782,1164 L330.4688,1164 L330.8594,1164 L331.25,1164 L331.6406,1164 L332.0313,1164 L332.4219,1164 L332.8125,1164 L333.2031,1164 L333.5938,1164 L333.9844,1164 L334.375,1164 L334.7656,1164 L335.1563,1164 L335.5469,1164 L335.9375,1164 L336.3281,1164 L336.7188,1164 L337.1094,1164 L337.5,1164 L337.8907,1164 L338.2813,1164 L338.6719,1164 L339.0625,1164 L339.4531,1164 L339.8438,1164 L340.2344,1164 L340.625,1164 L341.0156,1164 L341.4063,1164 L341.7969,1164 L342.1875,1164 L342.5781,1164 L342.9688,1164 L343.3594,1164 L343.75,1164 L344.1406,1164 L344.5313,1164 L344.9219,1164 L345.3125,1164 L345.7032,1164 L346.0938,1164 L346.4844,1164 L346.875,1164 L347.2656,1164 L347.6563,1164 L348.0469,1164 L348.4375,1164 L348.8281,1164 L349.2188,1164 L349.6094,1164 L350,1164 L350.3906,1164 L350.7813,1164 L351.1719,1164 L351.5625,1164 L351.9531,1164 L352.3438,1164 L352.7344,1164 L353.125,1164 L353.5157,1164 L353.9063,1164 L354.2969,1164 L354.6875,1164 L355.0781,1156 L355.4688,1164 L355.8594,1164 L356.25,1164 L356.6406,1164 L357.0313,1164 L357.4219,1156 L357.8125,1164 L358.2031,1164 L358.5938,1164 L358.9844,1164 L359.375,1156 L359.7656,1164 L360.1563,1164 L360.5469,1164 L360.9375,1164 L361.3282,1164 L361.7188,1156 L362.1094,1156 L362.5,1164 L362.8906,1164 L363.2813,1164 L363.6719,1164 L364.0625,1164 L364.4531,1164 L364.8438,1164 L365.2344,1164 L365.625,1164 L366.0156,1164 L366.4063,1164 L366.7969,1164 L367.1875,1164 L367.5781,1164 L367.9688,1164 L368.3594,1164 L368.75,1164 L369.1407,1164 L369.5313,1164 L369.9219,1164 L370.3125,1164 L370.7031,1164 L371.0938,1164 L371.4844,1164 L371.875,1164 L372.2656,1164 L372.6563,1164 L373.0469,1164 L373.4375,1164 L373.8281,1164 L374.2188,1164 L374.6094,1164 L375,1164 L375.3906,1164 L375.7813,1164 L376.1719,1164 L376.5625,1164 L376.9532,1164 L377.3438,1164 L377.7344,1164 L378.125,1164 L378.5156,1164 L378.9063,1164 L379.2969,1164 L379.6875,1164 L380.0781,1164 L380.4688,1164 L380.8594,1164 L381.25,1164 L381.6406,1164 L382.0313,1164 L382.4219,1164 L382.8125,1164 L383.2031,1164 L383.5938,1164 L383.9844,1164 L384.375,1164 L384.7657,1164 L385.1563,1164 L385.5469,1164 L385.9375,1164 L386.3281,1164 L386.7188,1164 L387.1094,1164 L387.5,1156 L387.8906,1164 L388.2813,1164 L388.6719,1156 L389.0625,1164 L389.4531,1164 L389.8438,1164 L390.2344,1164 L390.625,1164 L391.0156,1164 L391.4063,1164 L391.7969,1164 L392.1875,1164 L392.5782,1164 L392.9688,1164 L393.3594,1156 L393.75,1164 L394.1406,1164 L394.5313,1164 L394.9219,1164 L395.3125,1156 L395.7031,1164 L396.0938,1164 L396.4844,1164 L396.875,1164 L397.2656,1164 L397.6563,1164 L398.0469,1164 L398.4375,1164 L398.8281,1164 L399.2188,1164 L399.6094,1164 L400,1164 L400.3907,1164 L400.7813,1164 L401.1719,1164 L401.5625,1164 L401.9531,1164 L402.3438,1164 L402.7344,1164 L403.125,1164 L403.5156,1164 L403.9063,1164 L404.2969,1164 L404.6875,1164 L405.0781,1164 L405.4688,1164 L405.8594,1164 L406.25,1164 L406.6406,1164 L407.0313,1164 L407.4219,1164 L407.8125,1164 L408.2032,1164 L408.5938,1164 L408.9844,1164 L409.375,1164 L409.7656,1164 L410.1563,1164 L410.5469,1164 L410.9375,1164 L411.3281,1164 L411.7188,1164 L412.1094,1164 L412.5,1164 L412.8906,1164 L413.2813,1164 L413.6719,1164 L414.0625,1164 L414.4531,1164 L414.8438,1164 L415.2344,1164 L415.625,1164 L416.0157,1164 L416.4063,1164 L416.7969,1164 L417.1875,1164 L417.5781,1164 L417.9688,1164 L418.3594,1164 L418.75,1164 L419.1406,1164 L419.5313,1164 L419.9219,1164 L420.3125,1164 L420.7031,1164 L421.0938,1164 L421.4844,1156 L421.875,1164 L422.2656,1156 L422.6563,1164 L423.0469,1164 L423.4375,1164 L423.8282,1164 L424.2188,1164 L424.6094,1164 L425,1164 L425.3906,1164 L425.7813,1164 L426.1719,1164 L426.5625,1164 L426.9531,1164 L427.3438,1164 L427.7344,1164 L428.125,1156 L428.5156,1164 L428.9063,1164 L429.2969,1164 L429.6875,1156 L430.0781,1164 L430.4688,1164 L430.8594,1164 L431.25,1156 L431.6407,1164 L432.0313,1164 L432.4219,1164 L432.8125,1164 L433.2031,1164 L433.5938,1164 L433.9844,1164 L434.375,1164 L434.7656,1164 L435.1563,1164 L435.5469,1164 L435.9375,1164 L436.3281,1164 L436.7188,1164 L437.1094,1164 L437.5,1164 L437.8906,1164 L438.2813,1164 L438.6719,1164 L439.0625,1164 L439.4532,1164 L439.8438,1164 L440.2344,1164 L440.625,1164 L441.0156,1164 L441.4063,1164 L441.7969,1164 L442.1875,1164 L442.5781,1164 L442.9688,1164 L443.3594,1164 L443.75,1164 L444.1406,1164 L444.5313,1164 L444.9219,1164 L445.3125,1164 L445.7031,1164 L446.0938,1164 L446.4844,1164 L446.875,1164 L447.2657,1164 L447.6563,1164 L448.0469,1164 L448.4375,1164 L448.8281,1164 L449.2188,1164 L449.6094,1164 L450,1164 L450.3906,1164 L450.7813,1164 L451.1719,1164 L451.5625,1164 L451.9531,1164 L452.3438,1164 L452.7344,1164 L453.125,1164 L453.5156,1164 L453.9063,1164 L454.2969,1164 L454.6875,1164 L455.0782,1164 L455.4688,1164 L455.8594,1164 L456.25,1164 L456.6406,1164 L457.0313,1164 L457.4219,1164 L457.8125,1164 L458.2031,1164 L458.5938,1164 L458.9844,1164 L459.375,1164 L459.7656,1164 L460.1563,1164 L460.5469,1164 L460.9375,1164 L461.3281,1164 L461.7188,1164 L462.1094,1164 L462.5,1164 L462.8907,1164 L463.2813,1156 L463.6719,1164 L464.0625,1164 L464.4531,1164 L464.8438,1164 L465.2344,1164 L465.625,1164 L466.0156,1164 L466.4063,1164 L466.7969,1164 L467.1875,1164 L467.5781,1164 L467.9688,1164 L468.3594,1164 L468.75,1164 L469.1406,1164 L469.5313,1164 L469.9219,1164 L470.3125,1164 L470.7032,1164 L471.0938,1164 L471.4844,1164 L471.875,1164 L472.2656,1164 L472.6563,1164 L473.0469,1164 L473.4375,1164 L473.8281,1164 L474.2188,1164 L474.6094,1164 L475,1164 L475.3906,1164 L475.7813,1164 L476.1719,1164 L476.5625,1164 L476.9531,1164 L477.3438,1164 L477.7344,1164 L478.125,1164 L478.5157,1164 L478.9063,1164 L479.2969,1164 L479.6875,1164 L480.0781,1164 L480.4688,1164 L480.8594,1164 L481.25,1164 L481.6406,1164 L482.0313,1164 L482.4219,1164 L482.8125,1164 L483.2031,1164 L483.5938,1164 L483.9844,1164 L484.375,1164 L484.7656,1164 L485.1563,1164 L485.5469,1164 L485.9375,1164 L486.3282,1164 L486.7188,1164 L487.1094,1164 L487.5,1164 L487.8906,1164 L488.2813,1164 L488.6719,1164 L489.0625,1164 L489.4531,1164 L489.8438,1164 L490.2344,1164 L490.625,1164 L491.0156,1164 L491.4063,1164 L491.7969,1164 L492.1875,1164 L492.5781,1164 L492.9688,1164 L493.3594,1164 L493.75,1164 L494.1407,1164 L494.5313,1164 L494.9219,1164 L495.3125,1156 L495.7031,1164 L496.0938,1164 L496.4844,1156 L496.875,1164 L497.2656,1164 L497.6563,1164 L498.0469,1164 L498.4375,1164 L498.8281,1164 L499.2188,1164 L499.6094,1164 L500,1164 L500.3906,1156 L500.7813,1164 L501.1719,1156 L501.5625,1164 L501.9532,1164 L502.3438,1164 L502.7344,1164 L503.125,1164 L503.5156,1164 L503.9063,1164 L504.2969,1164 L504.6875,1164 L505.0781,1164 L505.4688,1164 L505.8594,1164 L506.25,1164 L506.6406,1164 L507.0313,1164 L507.4219,1164 L507.8125,1164 L508.2031,1164 L508.5938,1164 L508.9844,1164 L509.375,1164 L509.7657,1164 L510.1563,1164 L510.5469,1164 L510.9375,1164 L511.3281,1164 L511.7188,1164 L512.1094,1164 L512.5,1164 L512.8906,1164 L513.2813,1164 L513.6719,1164 L514.0625,1164 L514.4531,1164 L514.8438,1164 L515.2344,1164 L515.625,1164 L516.0156,1164 L516.4063,1164 L516.7969,1164 L517.1875,1164 L517.5781,1164 L517.9688,1164 L518.3594,1164 L518.75,1164 L519.1406,1164 L519.5313,1164 L519.9219,1164 L520.3125,1164 L520.7031,1164 L521.0938,1164 L521.4844,1164 L521.875,1164 L522.2656,1164 L522.6563,1164 L523.0469,1164 L523.4375,1156 L523.8281,1164 L524.2188,1164 L524.6094,1164 L525,1156 L525.3906,1164 L525.7813,1164 L526.1719,1164 L526.5625,1164 L526.9531,1164 L527.3438,1164 L527.7344,1156 L528.125,1164 L528.5156,1164 L528.9063,1164 L529.2969,1164 L529.6875,1164 L530.0781,1164 L530.4688,1164 L530.8594,1164 L531.25,1164 L531.6406,1164 L532.0313,1164 L532.4219,1164 L532.8125,1164 L533.2031,1092 L533.5938,1156 L533.9844,1164 L534.375,1156 L534.7656,1164 L535.1563,1164 L535.5469,1164 L535.9375,1164 " stroke="blue" fill="none" />
<text x="50" y="1270" font-family="Arial" font-size="12" fill="black">Policy Loss</text>
<text x="50" y="1285" font-family="Arial" font-size="10" fill="black">0.7635831</text>
<text x="50" y="1500" font-family="Arial" font-size="10" fill="black">0.7635831</text>
<path d="M50,1490 " stroke="blue" fill="none" />
<text x="50" y="1540" font-family="Arial" font-size="12" fill="black">Value Loss</text>
<text x="50" y="1555" font-family="Arial" font-size="10" fill="black">0.005503082</text>
<text x="50" y="1770" font-family="Arial" font-size="10" fill="black">0.005503082</text>
<path d="M50,1760 " stroke="blue" fill="none" />
<text x="50" y="1810" font-family="Arial" font-size="12" fill="black">Learning Rate</text>
<text x="50" y="1825" font-family="Arial" font-size="10" fill="black">0.0003</text>
<text x="50" y="2040" font-family="Arial" font-size="10" fill="black">0.0003</text>
<path d="M50,2030 " stroke="blue" fill="none" />
<text x="50" y="2080" font-family="Arial" font-size="12" fill="black">Entropy</text>
<text x="50" y="2095" font-family="Arial" font-size="10" fill="black">2.5</text>
<text x="50" y="2310" font-family="Arial" font-size="10" fill="black">2.5</text>
<path d="M50,2300 " stroke="blue" fill="none" />
<text x="750" y="730" font-family="Arial" font-size="12" fill="black">Simplified</text>
<text x="750" y="745" font-family="Arial" font-size="10" fill="black">-0.075</text>
<text x="750" y="960" font-family="Arial" font-size="10" fill="black">-0.1223684</text>
<path d="M757.0313,766.6667 L764.4531,822.2222 L771.875,788.889 L779.2969,783.3334 L786.7188,844.4445 L794.1406,750.0001 L801.5625,822.2223 L808.9844,827.7778 L816.4063,927.7778 L823.8281,950 L831.25,755.5556 L838.6719,827.7778 L846.0938,805.5557 L853.5156,816.6667 L860.9375,800.0001 L868.3594,800.0001 L875.7813,833.3334 L883.2031,827.7778 L890.625,905.5555 L898.0469,822.2223 L905.4688,794.4445 L912.8906,794.4445 L920.3125,833.3334 L927.7344,911.1112 L935.1563,844.4445 L942.5781,833.3333 L950,827.7778 L957.4219,911.1111 L964.8438,811.1111 L972.2656,811.1111 L979.6875,822.2223 L987.1094,822.2223 L994.5313,816.6667 L1001.953,805.5556 L1009.375,811.1112 L1016.797,844.4445 L1024.219,838.889 L1031.641,788.889 L1039.063,750.0001 L1046.484,822.2222 L1053.906,855.5556 L1061.328,911.1112 L1068.75,838.889 L1076.172,794.4445 L1083.594,827.7778 L1091.016,900.0001 L1098.438,872.2223 L1105.859,822.2222 L1113.281,822.2223 L1120.703,833.3333 L1128.125,866.6667 L1135.547,916.6667 L1142.969,755.5556 L1150.391,816.6667 L1157.813,805.5556 L1165.234,761.1111 L1172.656,855.5556 L1180.078,850.0001 L1187.5,855.5556 L1194.922,777.7778 L1202.344,933.3334 L1209.766,800.0001 L1217.188,816.6667 L1224.609,822.2223 L1232.031,844.4445 L1235.938,939.9999 " stroke="blue" fill="none" />
<text x="750" y="1000" font-family="Arial" font-size="12" fill="black">Simplified</text>
<text x="750" y="1015" font-family="Arial" font-size="10" fill="black">10.1</text>
<text x="750" y="1230" font-family="Arial" font-size="10" fill="black">7.894737</text>
<path d="M757.0313,1220 L764.4531,1210.453 L771.875,1210.453 L779.2969,1210.453 L786.7188,1172.267 L794.1406,1119.761 L801.5625,1119.761 L808.9844,1119.761 L816.4063,1095.895 L823.8281,1095.895 L831.25,1119.761 L838.6719,1119.761 L846.0938,1119.761 L853.5156,1110.215 L860.9375,1124.535 L868.3594,1119.761 L875.7813,1119.761 L883.2031,1033.843 L890.625,1105.442 L898.0469,1119.761 L905.4688,1119.761 L912.8906,1119.761 L920.3125,1114.988 L927.7344,1105.442 L935.1563,1119.761 L942.5781,1119.761 L950,1119.761 L957.4219,1105.442 L964.8438,1124.535 L972.2656,1119.761 L979.6875,1119.761 L987.1094,1119.761 L994.5313,1119.761 L1001.953,1119.761 L1009.375,1119.761 L1016.797,1119.761 L1024.219,1110.215 L1031.641,1186.587 L1039.063,1119.761 L1046.484,1119.761 L1053.906,1119.761 L1061.328,1105.442 L1068.75,1110.215 L1076.172,1119.761 L1083.594,1119.761 L1091.016,1110.215 L1098.438,1110.215 L1105.859,1119.761 L1113.281,1119.761 L1120.703,1119.761 L1128.125,1105.442 L1135.547,1110.215 L1142.969,1119.761 L1150.391,1119.761 L1157.813,1119.761 L1165.234,1114.988 L1172.656,1119.761 L1180.078,1119.761 L1187.5,1119.761 L1194.922,1119.761 L1202.344,1100.668 L1209.766,1119.761 L1217.188,1119.761 L1224.609,1114.988 L1232.031,1110.215 L1235.938,1020 " stroke="blue" fill="none" />
</svg>
